<?xml version="1.0" encoding="UTF-8" standalone="no"?>
<svg
   xmlns:dc="http://purl.org/dc/elements/1.1/"
   xmlns:cc="http://creativecommons.org/ns#"
   xmlns:rdf="http://www.w3.org/1999/02/22-rdf-syntax-ns#"
   xmlns:svg="http://www.w3.org/2000/svg"
   xmlns="http://www.w3.org/2000/svg"
   xmlns:sodipodi="http://sodipodi.sourceforge.net/DTD/sodipodi-0.dtd"
   xmlns:inkscape="http://www.inkscape.org/namespaces/inkscape"
   width="32"
   height="32"
   version="1"
   id="svg158"
   sodipodi:docname="battery.svg"
   inkscape:version="0.92.4 5da689c313, 2019-01-14">
  <metadata
     id="metadata164">
    <rdf:RDF>
      <cc:Work
         rdf:about="">
        <dc:format>image/svg+xml</dc:format>
        <dc:type
           rdf:resource="http://purl.org/dc/dcmitype/StillImage" />
      </cc:Work>
    </rdf:RDF>
  </metadata>
  <defs
     id="defs162" />
  <sodipodi:namedview
     pagecolor="#ffffff"
     bordercolor="#666666"
     borderopacity="1"
     objecttolerance="10"
     gridtolerance="10"
     guidetolerance="10"
     inkscape:pageopacity="0"
     inkscape:pageshadow="2"
     inkscape:window-width="1624"
     inkscape:window-height="931"
     id="namedview160"
     showgrid="false"
     inkscape:zoom="10.429825"
     inkscape:cx="392.29004"
     inkscape:cy="15.448108"
     inkscape:window-x="0"
     inkscape:window-y="24"
     inkscape:window-maximized="0"
     inkscape:current-layer="svg158" />
  <g
     id="22-22-battery-ups"
     transform="translate(255.46001,-426.49999)">
    <rect
       style="opacity:0.001"
       width="22"
       height="22"
       x="192.54"
       y="404.5"
       id="rect2" />
    <path
       style="fill:#dfdfdf"
       d="m 197.53573,408.50504 v 15 h 12 v -15 c 0.0768,-1.06936 -1,-1 -1,-1 h -10 c 0,0 -1,-0.004 -1,1 z m 6,1 v 3 h 2 l -2,5 v -3 h -2 z m -4,10 h 1 v 2 h -1 z m 2,0 h 1 v 2 h -1 z m 2,0 h 1 v 2 h -1 z m 3,0 c 0.55229,0 1,0.44772 1,1 0,0.55228 -0.44771,1 -1,1 -0.55229,0 -1,-0.44772 -1,-1 0,-0.55228 0.44771,-1 1,-1 z"
       id="path4" />
  </g>
  <g
     id="22-22-Battery"
     transform="translate(-214.53999,-404.5)">
    <rect
       style="opacity:0.001"
       width="22"
       height="22"
       x="-404.5"
       y="214.54"
       transform="rotate(-90)"
       id="rect7" />
    <path
       style="fill:#dfdfdf"
       d="m 219.53573,401.50505 h 3 6 3 v -3 -11 -1 h -3 -0.99999 v -0.5 c 0,-0.277 -0.223,-0.5 -0.5,-0.5 h -3 c -0.49575,-0.005 -0.5,0.5 -0.5,0.5 v 0.5 h -1.00001 -3 v 1 12 z m 2,-2 v -11 h 2.50001 3 2.49999 v 11 z"
       id="path9" />
  </g>
  <g
     id="22-22-Fill100"
     transform="translate(-182.53999,-404.5)">
    <rect
       style="opacity:0.001"
       width="22"
       height="22"
       x="-404.5"
       y="214.54"
       transform="rotate(-90)"
       id="rect12" />
    <path
       style="fill:#dfdfdf"
       d="m 230.53575,400.50504 h -10 v -13 h 10 z"
       id="path14" />
  </g>
  <g
     id="22-22-Fill90"
     transform="translate(-150.53999,-404.5)">
    <rect
       style="opacity:0.001"
       width="22"
       height="22"
       x="-404.5"
       y="214.54"
       transform="rotate(-90)"
       id="rect17" />
    <path
       style="fill:#dfdfdf"
       d="m 230.53575,400.50504 h -10 v -11 h 10 z"
       id="path19" />
  </g>
  <g
     id="22-22-Fill80"
     transform="translate(-118.54,-404.5)">
    <rect
       style="opacity:0.001"
       width="22"
       height="22"
       x="-404.5"
       y="214.54"
       transform="rotate(-90)"
       id="rect22" />
    <path
       style="fill:#dfdfdf"
       d="m 230.53575,400.50504 h -10 v -10 h 10 z"
       id="path24" />
  </g>
  <g
     id="22-22-Fill70"
     transform="translate(-86.540002,-404.5)">
    <rect
       style="opacity:0.001"
       width="22"
       height="22"
       x="-404.5"
       y="214.54"
       transform="rotate(-90)"
       id="rect27" />
    <path
       style="fill:#dfdfdf"
       d="m 230.53575,400.50504 h -10 v -9 h 10 z"
       id="path29" />
  </g>
  <g
     id="22-22-Fill60"
     transform="translate(-54.540001,-404.5)">
    <rect
       style="opacity:0.001"
       width="22"
       height="22"
       x="-404.5"
       y="214.54"
       transform="rotate(-90)"
       id="rect32" />
    <path
       style="fill:#dfdfdf"
       d="m 230.53575,400.50504 h -10 v -8 h 10 z"
       id="path34" />
  </g>
  <g
     id="22-22-Fill50"
     transform="translate(-22.540003,-404.5)">
    <rect
       style="opacity:0.001"
       width="22"
       height="22"
       x="-404.5"
       y="214.54"
       transform="rotate(-90)"
       id="rect37" />
    <path
       style="fill:#dfdfdf"
       d="m 230.53575,400.50504 h -10 v -7 h 10 z"
       id="path39" />
  </g>
  <g
     id="22-22-Fill40"
     transform="translate(9.4599952,-404.5)">
    <rect
       style="opacity:0.001"
       width="22"
       height="22"
       x="-404.5"
       y="214.54"
       transform="rotate(-90)"
       id="rect42" />
    <path
       style="fill:#dfdfdf"
       d="m 230.53575,400.50504 h -10 v -6 h 10 z"
       id="path44" />
  </g>
  <g
     id="22-22-Fill30"
     transform="translate(41.459997,-404.5)">
    <rect
       style="opacity:0.001"
       width="22"
       height="22"
       x="-404.5"
       y="214.54"
       transform="rotate(-90)"
       id="rect47" />
    <path
       style="fill:#dfdfdf"
       d="m 230.53574,400.50504 h -10 v -5 h 10 z"
       id="path49" />
  </g>
  <g
     id="22-22-Fill20"
     transform="translate(73.459997,-404.5)">
    <rect
       style="opacity:0.001"
       width="22"
       height="22"
       x="-404.5"
       y="214.54"
       transform="rotate(-90)"
       id="rect52" />
    <path
       style="fill:#dfdfdf"
       d="m 230.53575,400.50504 h -10 v -4 h 10 z"
       id="path54" />
  </g>
  <g
     id="22-22-Fill10"
     transform="translate(105.46,-404.5)">
    <rect
       style="opacity:0.001"
       width="22"
       height="22"
       x="-404.5"
       y="214.54"
       transform="rotate(-90)"
       id="rect57" />
    <path
       style="fill:#448aff;fill-opacity:1"
       transform="translate(-5.46425,382.50504)"
       d="M 229.5,3 C 229.00425,3 229,3.5 229,3.5 V 4 h -1 -3 v 1 12 2 h 3 6 3 V 16 5 4 h -3 -1 V 3.5 C 233,3.223 232.777,3 232.5,3 Z M 227,6 h 2.5 3 2.5 v 9 h -8 z"
       id="path59" />
  </g>
  <g
     id="22-22-Fill0"
     transform="translate(137.46,-404.5)">
    <rect
       style="opacity:0.001"
       width="22"
       height="22"
       x="-404.5"
       y="214.54"
       transform="rotate(-90)"
       id="rect62" />
    <path
       style="fill:#448aff;fill-opacity:1"
       d="m 219.53573,401.50505 h 3 6 3 v -3 -11 -1 h -3 -0.99999 v -0.5 c 0,-0.277 -0.223,-0.5 -0.5,-0.5 h -3 c -0.49574,0 -0.5,0.5 -0.5,0.5 v 0.5 h -1.00001 -3 v 1 12 z m 2,-2 v -11 h 2.50001 3 2.49999 v 11 z"
       id="path64" />
  </g>
  <g
     id="22-22-Unavailable"
     transform="translate(213.46,-426.5)">
    <rect
       style="opacity:0.001"
       width="22"
       height="22"
       x="-426.5"
       y="170.54"
       transform="rotate(-90)"
       id="rect67" />
    <g
       id="g73">
      <rect
         style="fill:#448aff;fill-opacity:1"
         width="10"
         height="10"
         x="181.54"
         y="415.5"
         ry="1"
         id="rect69" />
      <path
         style="fill:#ffffff"
         d="m 188.65704,416.96951 -2.12132,2.12132 -2.12132,-2.12132 -1.41421,1.41421 2.12132,2.12132 -2.12132,2.12132 1.41421,1.41421 2.12132,-2.12132 2.12132,2.12132 1.41421,-1.41421 -2.12132,-2.12132 2.12132,-2.12132 z"
         id="path71" />
    </g>
  </g>
  <g
     id="22-22-AcAdapter"
     transform="translate(482,7.6293946e-6)">
    <rect
       style="opacity:0.001"
       width="22"
       height="22"
       x="0"
       y="-66"
       transform="rotate(-90)"
       id="rect76" />
    <path
       style="fill:#448aff;fill-opacity:1"
       d="m -55,-15 v 3 h 2 l -2,5 v -3 h -2 z"
       id="path78" />
  </g>
  <g
     id="Fill100"
     transform="translate(31.999998)">
    <rect
       style="opacity:0.001"
       width="32"
       height="32"
       x="-32"
       y="0"
       transform="rotate(-90)"
       id="rect81" />
    <path
       style="fill:#dfdfdf"
       d="M 9.9999999,25 V 9 h 3.7500151 4.5 H 22 v 16 z"
       id="path83" />
  </g>
  <g
     id="Battery"
     transform="translate(-1.8043747e-6)">
    <rect
       style="opacity:0.001"
       width="32"
       height="32"
       x="-32"
       y="0"
       transform="rotate(-90)"
       id="rect86" />
    <path
       style="fill:#dfdfdf"
       d="M 7.0000001,28 H 11.5 20.5 25 V 23.5 7 6 H 20.5 19.000015 V 4.75 c 0,-0.4154999 -0.3345,-0.75 -0.75,-0.75 h -4.5 c -0.750015,0 -0.75,0.75 -0.75,0.75 V 6 H 11.5 7.0000001 V 7 25 Z M 9.9999999,25 V 9 h 3.7500151 4.5 H 22 v 16 z"
       id="path88" />
  </g>
  <g
     id="Fill90"
     transform="translate(63.999996)">
    <rect
       style="opacity:0.001"
       width="32"
       height="32"
       x="-32"
       y="0"
       transform="rotate(-90)"
       id="rect91" />
    <path
       style="fill:#dfdfdf"
       d="M 9.9999999,25 V 11 h 3.7500151 4.5 H 22 v 14 z"
       id="path93" />
  </g>
  <g
     id="Fill80"
     transform="translate(95.999994)">
    <rect
       style="opacity:0.001"
       width="32"
       height="32"
       x="-32"
       y="0"
       transform="rotate(-90)"
       id="rect96" />
    <path
       style="fill:#dfdfdf"
       d="M 9.9999999,25 V 13 h 3.7500151 4.5 H 22 v 12 z"
       id="path98" />
  </g>
  <g
     id="Fill70"
     transform="translate(127.99999)">
    <rect
       style="opacity:0.001"
       width="32"
       height="32"
       x="-32"
       y="0"
       transform="rotate(-90)"
       id="rect101" />
    <path
       style="fill:#dfdfdf"
       d="M 9.9999999,25 V 14 h 3.7500151 4.5 H 22 v 11 z"
       id="path103" />
  </g>
  <g
     id="Fill60"
     transform="translate(159.99999)">
    <rect
       style="opacity:0.001"
       width="32"
       height="32"
       x="-32"
       y="0"
       transform="rotate(-90)"
       id="rect106" />
    <path
       style="fill:#dfdfdf"
       d="M 9.9999999,25 V 15 h 3.7500151 4.5 H 22 v 10 z"
       id="path108" />
  </g>
  <g
     id="Fill50"
     transform="translate(191.99999)">
    <rect
       style="opacity:0.001"
       width="32"
       height="32"
       x="-32"
       y="0"
       transform="rotate(-90)"
       id="rect111" />
    <path
       style="fill:#dfdfdf"
       d="m 9.9999999,25 v -8 h 3.7500151 4.5 H 22 v 8 z"
       id="path113" />
  </g>
  <g
     id="Fill40"
     transform="translate(223.99999)">
    <rect
       style="opacity:0.001"
       width="32"
       height="32"
       x="-32"
       y="0"
       transform="rotate(-90)"
       id="rect116" />
    <path
       style="fill:#dfdfdf"
       d="m 9.9999999,25 v -7 h 3.7500151 4.5 H 22 v 7 z"
       id="path118" />
  </g>
  <g
     id="Fill30"
     transform="translate(255.99999)">
    <rect
       style="opacity:0.001"
       width="32"
       height="32"
       x="-32"
       y="0"
       transform="rotate(-90)"
       id="rect121" />
    <path
       style="fill:#dfdfdf"
       d="m 9.9999999,25 v -5 h 3.7500151 4.5 H 22 v 5 z"
       id="path123" />
  </g>
  <g
     id="Fill20"
     transform="translate(287.99999)">
    <rect
       style="opacity:0.001"
       width="32"
       height="32"
       x="-32"
       y="0"
       transform="rotate(-90)"
       id="rect126" />
    <path
       style="fill:#dfdfdf"
       d="m 9.9999999,25 v -3 h 3.7500151 4.5 H 22 v 3 z"
       id="path128" />
  </g>
  <g
     id="Fill10"
     transform="translate(31.999998)">
    <rect
       style="opacity:0.001"
       width="32"
       height="32"
       x="-32"
       y="288"
       transform="rotate(-90)"
       id="rect131" />
    <path
       style="fill:#448aff;fill-opacity:1"
       d="M 301.75,4 C 300.99998,4 301,4.75 301,4.75 V 6 h -1.5 -4.5 v 1 18 3 h 4.5 9 4.5 V 23.5 7 6 H 308.5 307 V 4.75 C 307,4.3345001 306.6655,4 306.25,4 Z M 298,9 h 3.75 4.5 3.75 v 15 h -3.75 -4.5 -3.75 z"
       id="path133" />
  </g>
  <g
     id="Fill0"
     transform="translate(351.99999)">
    <rect
       style="opacity:0.001"
       width="32"
       height="32"
       x="-32"
       y="0"
       transform="rotate(-90)"
       id="rect136" />
    <path
       style="fill:#448aff;fill-opacity:1"
       d="M 7.0000001,28 H 11.5 20.5 25 V 23.5 7 6 H 20.5 19.000015 V 4.75 c 0,-0.4154999 -0.3345,-0.75 -0.75,-0.75 h -4.5 c -0.750015,0 -0.75,0.75 -0.75,0.75 V 6 H 11.5 7.0000001 V 7 25 Z M 9.9999999,25 V 9 h 3.7500151 4.5 H 22 v 16 z"
       id="path138" />
  </g>
  <g
     id="Unavailable"
     transform="translate(31.999998)">
    <rect
       style="opacity:0.001"
       width="32"
       height="32"
       x="-32"
       y="352"
       transform="rotate(-90)"
       id="rect141" />
    <rect
       style="fill:#448aff;fill-opacity:1"
       width="14"
       height="14"
       x="368"
       y="16"
       ry="1.4"
       id="rect143" />
    <path
       style="fill:#ffffff"
       d="M 378.00001,17.999996 375,21 371.99999,17.999996 370,19.999994 l 3,3.000004 -3,3.000004 L 371.99999,28 375,24.999996 378.00001,28 380,26.000002 376.99999,22.999998 380,19.999994 Z"
       id="path145" />
  </g>
  <g
     id="AcAdapter"
     transform="translate(31.999998)">
    <rect
       style="opacity:0.001"
       width="32"
       height="32"
       x="-32"
       y="384"
       transform="rotate(-90)"
       id="rect148" />
    <path
       style="fill:#448aff;fill-opacity:1"
       d="m 400,10 v 5 h 3 l -3,7 v -5 h -3 z"
       id="path150" />
  </g>
  <g
     id="battery-ups"
     transform="translate(31.999998)">
    <rect
       style="opacity:0.001"
       width="32"
       height="32"
       x="416"
       y="0"
       id="rect153" />
    <path
       style="fill:#dfdfdf"
       d="m 424.5,4.0019531 c 0,0 -1.5,-0.00591 -1.5,1.5 V 28 h 17.99414 V 5.5019531 c 0.11516,-1.6039484 -1.5,-1.5 -1.5,-1.5 z M 432,7 v 5 h 3 l -3,7 v -5 h -3 z m -6,15 h 1 v 3 h -1 z m 3,0 h 1 v 3 h -1 z m 3,0 h 1 v 3 h -1 z m 4.5,0 c 0.82844,0 1.5,0.671626 1.5,1.5 0,0.828372 -0.67156,1.5 -1.5,1.5 -0.82843,0 -1.5,-0.671628 -1.5,-1.5 0,-0.828374 0.67157,-1.5 1.5,-1.5 z"
       id="path155" />
  </g>
</svg>
