<?xml version="1.0" encoding="UTF-8" standalone="no"?>
<svg
   xmlns:dc="http://purl.org/dc/elements/1.1/"
   xmlns:cc="http://creativecommons.org/ns#"
   xmlns:rdf="http://www.w3.org/1999/02/22-rdf-syntax-ns#"
   xmlns:svg="http://www.w3.org/2000/svg"
   xmlns="http://www.w3.org/2000/svg"
   xmlns:sodipodi="http://sodipodi.sourceforge.net/DTD/sodipodi-0.dtd"
   xmlns:inkscape="http://www.inkscape.org/namespaces/inkscape"
   width="32"
   height="32"
   version="1.1"
   id="svg12"
   sodipodi:docname="plasmavault-error.svg"
   inkscape:version="0.92.4 5da689c313, 2019-01-14">
  <metadata
     id="metadata18">
    <rdf:RDF>
      <cc:Work
         rdf:about="">
        <dc:format>image/svg+xml</dc:format>
        <dc:type
           rdf:resource="http://purl.org/dc/dcmitype/StillImage" />
      </cc:Work>
    </rdf:RDF>
  </metadata>
  <defs
     id="defs16" />
  <sodipodi:namedview
     pagecolor="#ffffff"
     bordercolor="#666666"
     borderopacity="1"
     objecttolerance="10"
     gridtolerance="10"
     guidetolerance="10"
     inkscape:pageopacity="0"
     inkscape:pageshadow="2"
     inkscape:window-width="1603"
     inkscape:window-height="865"
     id="namedview14"
     showgrid="false"
     inkscape:zoom="7.375"
     inkscape:cx="-7.0508475"
     inkscape:cy="16"
     inkscape:window-x="0"
     inkscape:window-y="24"
     inkscape:window-maximized="0"
     inkscape:current-layer="svg12" />
  <g
     id="22-22-plasmavault-error"
     transform="translate(32,10)">
    <rect
       style="opacity:0.001"
       width="22"
       height="22"
       x="0"
       y="0"
       id="rect2" />
    <path
       style="fill:#448aff;fill-opacity:1"
       d="M 4.1425781,3 C 4.1425781,3 3,3.04269 3,4.1855469 V 16.857422 C 3,16.857422 2.9997211,18 4.1425781,18 H 17.857422 C 17.857422,18 19,18.000279 19,16.857422 V 6.171875 C 19,5.0290177 17.857422,5 17.857422,5 H 12.142578 L 9.8574219,3 Z M 10,6 h 2 v 7 h -2 z m 1,8 a 1,1 0 0 1 1,1 1,1 0 0 1 -1,1 1,1 0 0 1 -1,-1 1,1 0 0 1 1,-1 z"
       id="path4" />
  </g>
  <g
     id="plasmavault-error">
    <rect
       style="opacity:0.001"
       width="32"
       height="32"
       x="0"
       y="0"
       id="rect7" />
    <path
       style="fill:#448aff;fill-opacity:1"
       d="M 4,3 C 4,3 2,3 2,5 V 27 C 2,27 2,29 4,29 H 28 C 28,29 30,29 30,27 V 9 C 30,7 28,7 28,7 H 18 L 14,3 Z M 15,10 H 18 V 21 H 15 Z M 16.5,23 C 17.328,23 18,23.672 18,24.5 18,25.328 17.328,26 16.5,26 15.672,26 15,25.328 15,24.5 15,23.672 15.672,23 16.5,23 Z"
       id="path9" />
  </g>
</svg>
