<?xml version="1.0" encoding="UTF-8" standalone="no"?>
<svg
   xmlns:dc="http://purl.org/dc/elements/1.1/"
   xmlns:cc="http://creativecommons.org/ns#"
   xmlns:rdf="http://www.w3.org/1999/02/22-rdf-syntax-ns#"
   xmlns:svg="http://www.w3.org/2000/svg"
   xmlns="http://www.w3.org/2000/svg"
   xmlns:sodipodi="http://sodipodi.sourceforge.net/DTD/sodipodi-0.dtd"
   xmlns:inkscape="http://www.inkscape.org/namespaces/inkscape"
   version="1.1"
   viewBox="0 0 22 22"
   id="svg9"
   sodipodi:docname="video-card.svg"
   inkscape:version="0.92.4 5da689c313, 2019-01-14">
  <metadata
     id="metadata15">
    <rdf:RDF>
      <cc:Work
         rdf:about="">
        <dc:format>image/svg+xml</dc:format>
        <dc:type
           rdf:resource="http://purl.org/dc/dcmitype/StillImage" />
      </cc:Work>
    </rdf:RDF>
  </metadata>
  <defs
     id="defs13" />
  <sodipodi:namedview
     pagecolor="#ffffff"
     bordercolor="#666666"
     borderopacity="1"
     objecttolerance="10"
     gridtolerance="10"
     guidetolerance="10"
     inkscape:pageopacity="0"
     inkscape:pageshadow="2"
     inkscape:window-width="1698"
     inkscape:window-height="845"
     id="namedview11"
     showgrid="false"
     inkscape:zoom="21.454545"
     inkscape:cx="14.921603"
     inkscape:cy="8.8593422"
     inkscape:window-x="0"
     inkscape:window-y="24"
     inkscape:window-maximized="0"
     inkscape:current-layer="svg9" />
  <g
     id="22-22-video-card-inactive">
    <path
       d="M0 0v22h22V0H0z"
       fill="none"
       id="path2" />
    <path
       d="m2 2v18h2v-18zm4 2c-0.554 0-1 0.446-1 1v11c0 0.554 0.446 1 1 1h1c0 0.554 0.446 1 1 1h6c0.554 0 1-0.446 1-1h1.1738c-0.11432-0.32104-0.1731-0.65921-0.17383-1 0-1.6569 1.3431-3 3-3 0.3409 0.0014 0.67908 0.0608 1 0.17578v-8.1758c0-0.554-0.446-1-1-1zm7.4355 3c0.02133-2.731e-4 0.04312-2.731e-4 0.06445 0 1.3807 0 2.5 1.1193 2.5 2.5-0.0021 1.1863-0.83767 2.2081-2 2.4453v-3.9453h-2.4961c0.45761-0.61075 1.1688-0.97903 1.9316-1zm-5.4355 2h2.0391c-0.025275 0.1655-0.037705 0.33259-0.039063 0.5 2e-3 1.7383 1.2795 3.2126 3 3.4609v1.0391h-5zm3.0508 0h1.9492v2.9492c-1.1642-0.23763-1.6968-1.4397-2-2.4492-0.048189-0.16044 0.017364-0.33544 0.050781-0.5z"
       color="#dfdfdf"
       fill="currentColor"
       id="path4" />
    <path
       d="M18.768 14.014A2 2 0 0 0 17 16h1a1 1 0 0 1 1-1c.507 0 .935.395.994.898-.018 1.18-.896 1.237-1.992 1.323L18 19.014h1V18h.232A2 2 0 0 0 21 16.104c-.01-.106-.008-.196-.014-.32a2 2 0 0 0-1.896-1.768l-.322-.002zM18.002 20v1h1v-1h-1z"
       fill="#fdbc4b"
       id="path6"
       style="fill:#448aff;fill-opacity:1" />
  </g>
</svg>
