<?xml version="1.0" encoding="UTF-8" standalone="no"?>
<!-- Created with Inkscape (http://www.inkscape.org/) -->

<svg
   xmlns:dc="http://purl.org/dc/elements/1.1/"
   xmlns:cc="http://creativecommons.org/ns#"
   xmlns:rdf="http://www.w3.org/1999/02/22-rdf-syntax-ns#"
   xmlns:svg="http://www.w3.org/2000/svg"
   xmlns="http://www.w3.org/2000/svg"
   xmlns:xlink="http://www.w3.org/1999/xlink"
   xmlns:sodipodi="http://sodipodi.sourceforge.net/DTD/sodipodi-0.dtd"
   xmlns:inkscape="http://www.inkscape.org/namespaces/inkscape"
   width="24"
   height="24"
   id="svg4428"
   version="1.1"
   inkscape:version="0.92.4 5da689c313, 2019-01-14"
   sodipodi:docname="close.svg">
  <defs
     id="defs4430">
    <linearGradient
       id="linearGradient4635"
       inkscape:collect="always">
      <stop
         id="stop4631"
         offset="0"
         style="stop-color:#448aff;stop-opacity:1" />
      <stop
         id="stop4633"
         offset="1"
         style="stop-color:#82b1ff;stop-opacity:1" />
    </linearGradient>
    <linearGradient
       inkscape:collect="always"
       id="linearGradient4587">
      <stop
         style="stop-color:#757575;stop-opacity:1"
         offset="0"
         id="stop4583" />
      <stop
         style="stop-color:#bdbdbd;stop-opacity:1"
         offset="1"
         id="stop4585" />
    </linearGradient>
    <linearGradient
       inkscape:collect="always"
       xlink:href="#linearGradient4587"
       id="linearGradient4589"
       x1="4.9171791"
       y1="1047.3191"
       x2="19.165642"
       y2="1033.074"
       gradientUnits="userSpaceOnUse" />
    <linearGradient
       inkscape:collect="always"
       xlink:href="#linearGradient4635"
       id="linearGradient4629"
       gradientUnits="userSpaceOnUse"
       x1="4.9171791"
       y1="1047.3191"
       x2="19.165642"
       y2="1033.074" />
  </defs>
  <sodipodi:namedview
     id="base"
     pagecolor="#eff0f1"
     bordercolor="#666666"
     borderopacity="1.0"
     inkscape:pageopacity="1"
     inkscape:pageshadow="2"
     inkscape:zoom="12.074264"
     inkscape:cx="24.314341"
     inkscape:cy="23.268354"
     inkscape:document-units="px"
     inkscape:current-layer="layer1"
     showgrid="true"
     inkscape:snap-bbox="true"
     inkscape:window-width="1390"
     inkscape:window-height="766"
     inkscape:window-x="250"
     inkscape:window-y="145"
     inkscape:window-maximized="0"
     showborder="true"
     inkscape:showpageshadow="false"
     inkscape:snap-nodes="false"
     inkscape:bbox-nodes="true"
     inkscape:snap-bbox-edge-midpoints="false"
     inkscape:snap-global="false">
    <inkscape:grid
       type="xygrid"
       id="grid4436"
       empspacing="5"
       visible="true"
       enabled="true"
       snapvisiblegridlinesonly="true"
       originx="0"
       originy="0"
       spacingx="1.0666667"
       spacingy="1.0666667" />
  </sodipodi:namedview>
  <metadata
     id="metadata4433">
    <rdf:RDF>
      <cc:Work
         rdf:about="">
        <dc:format>image/svg+xml</dc:format>
        <dc:type
           rdf:resource="http://purl.org/dc/dcmitype/StillImage" />
        <dc:title />
      </cc:Work>
    </rdf:RDF>
  </metadata>
  <g
     inkscape:label="Layer 1"
     inkscape:groupmode="layer"
     id="layer1"
     transform="translate(0,-1098.5197)">
    <g
       id="4"
       inkscape:label="#g3842"
       transform="translate(86.4,-3.2)" />
    <g
       transform="translate(-288.74252,1344.6573)"
       style="display:inline;stroke:none"
       id="active-center"
       inkscape:label="#active-center">
      <rect
         ry="1.6930764e-05"
         y="-216.63782"
         x="293"
         height="16"
         width="16"
         id="rect1577-8-3-67"
         style="opacity:0;fill:#000000;fill-opacity:1;stroke:none;stroke-width:0.47432083;stroke-linejoin:miter;stroke-miterlimit:4;stroke-dasharray:none;stroke-opacity:1;paint-order:markers stroke fill" />
      <g
         inkscape:label="#g879"
         transform="translate(294,-215.63782)"
         id="titlebutton-close-hover-1-4-0-5"
         style="stroke:none;enable-background:new">
        <g
           transform="translate(-4.9999997,-1033.3622)"
           id="g8-5-3-35"
           style="stroke:none">
          <path
             style="fill:url(#linearGradient4589);fill-opacity:1;fill-rule:evenodd;stroke:none;stroke-width:1;stroke-miterlimit:4;stroke-dasharray:none;stroke-opacity:1"
             d="m 12.000061,1047.3622 c 3.865929,0 6.999939,-3.134 6.999939,-7 0,-3.866 -3.13401,-7 -6.999939,-7 -3.8660427,0 -7.0000616,3.134 -7.0000616,7 0,3.866 3.1340189,7 7.0000616,7"
             id="path2-62-0-0-62"
             inkscape:connector-curvature="0" />
          <path
             style="opacity:1;fill:#ffffff;fill-opacity:1;stroke:none;stroke-width:2;stroke-linecap:round;stroke-linejoin:round;stroke-miterlimit:4;stroke-dasharray:none;stroke-opacity:1;enable-background:new"
             d="m 9.1715729,1037.5338 c -0.3917372,0.3917 -0.3917372,1.0224 0,1.4142 l 1.4142131,1.4142 -1.4142131,1.4142 c -0.3917372,0.3918 -0.3917372,1.0225 0,1.4142 0.3917371,0.3918 1.0224761,0.3918 1.4142131,0 L 12,1041.7764 l 1.414214,1.4142 c 0.391737,0.3918 1.022476,0.3918 1.414213,0 0.391737,-0.3917 0.391737,-1.0224 0,-1.4142 l -1.414213,-1.4142 1.414213,-1.4142 c 0.391737,-0.3918 0.391737,-1.0225 0,-1.4142 -0.391737,-0.3918 -1.022476,-0.3918 -1.414213,0 L 12,1038.948 l -1.414214,-1.4142 c -0.391737,-0.3918 -1.022476,-0.3918 -1.4142131,0 z"
             id="path6-36-9-9"
             inkscape:connector-curvature="0" />
        </g>
      </g>
    </g>
    <g
       transform="translate(-289.48791,1318.9)"
       style="display:inline;stroke:none"
       id="hover-center"
       inkscape:label="#hover-center">
      <rect
         ry="1.6930764e-05"
         y="-216.63782"
         x="293"
         height="16"
         width="16"
         id="rect1577-8-3-67-0"
         style="opacity:0;fill:#000000;fill-opacity:1;stroke:none;stroke-width:0.47432083;stroke-linejoin:miter;stroke-miterlimit:4;stroke-dasharray:none;stroke-opacity:1;paint-order:markers stroke fill" />
      <g
         inkscape:label="#g879"
         transform="translate(294,-215.63782)"
         id="titlebutton-close-hover-1-4-0-5-9"
         style="stroke:none;enable-background:new">
        <g
           transform="translate(-4.9999997,-1033.3622)"
           id="g8-5-3-35-3"
           style="stroke:none">
          <path
             style="fill:url(#linearGradient4629);fill-opacity:1;fill-rule:evenodd;stroke:none;stroke-width:1;stroke-miterlimit:4;stroke-dasharray:none;stroke-opacity:1"
             d="m 12.000061,1047.3622 c 3.865929,0 6.999939,-3.134 6.999939,-7 0,-3.866 -3.13401,-7 -6.999939,-7 -3.8660427,0 -7.0000616,3.134 -7.0000616,7 0,3.866 3.1340189,7 7.0000616,7"
             id="path2-62-0-0-62-6"
             inkscape:connector-curvature="0" />
          <path
             style="opacity:1;fill:#ffffff;fill-opacity:1;stroke:none;stroke-width:2;stroke-linecap:round;stroke-linejoin:round;stroke-miterlimit:4;stroke-dasharray:none;stroke-opacity:1;enable-background:new"
             d="m 9.1715729,1037.5338 c -0.3917372,0.3917 -0.3917372,1.0224 0,1.4142 l 1.4142131,1.4142 -1.4142131,1.4142 c -0.3917372,0.3918 -0.3917372,1.0225 0,1.4142 0.3917371,0.3918 1.0224761,0.3918 1.4142131,0 L 12,1041.7764 l 1.414214,1.4142 c 0.391737,0.3918 1.022476,0.3918 1.414213,0 0.391737,-0.3917 0.391737,-1.0224 0,-1.4142 l -1.414213,-1.4142 1.414213,-1.4142 c 0.391737,-0.3918 0.391737,-1.0225 0,-1.4142 -0.391737,-0.3918 -1.022476,-0.3918 -1.414213,0 L 12,1038.948 l -1.414214,-1.4142 c -0.391737,-0.3918 -1.022476,-0.3918 -1.4142131,0 z"
             id="path6-36-9-9-0"
             inkscape:connector-curvature="0" />
        </g>
      </g>
    </g>
    <g
       transform="translate(-289.48791,1296.29)"
       style="display:inline;stroke:none"
       id="pressed-center"
       inkscape:label="#pressed-center">
      <rect
         ry="1.6930764e-05"
         y="-216.63782"
         x="293"
         height="16"
         width="16"
         id="rect1577-8-3-67-1"
         style="opacity:0;fill:#000000;fill-opacity:1;stroke:none;stroke-width:0.47432083;stroke-linejoin:miter;stroke-miterlimit:4;stroke-dasharray:none;stroke-opacity:1;paint-order:markers stroke fill" />
      <g
         inkscape:label="#g879"
         transform="translate(294,-215.63782)"
         id="titlebutton-close-hover-1-4-0-5-8"
         style="stroke:none;enable-background:new">
        <g
           transform="translate(-4.9999997,-1033.3622)"
           id="g8-5-3-35-7"
           style="stroke:none">
          <path
             style="fill:#2962ff;fill-opacity:1;fill-rule:evenodd;stroke:none;stroke-width:1;stroke-miterlimit:4;stroke-dasharray:none;stroke-opacity:1"
             d="m 12.000061,1047.3622 c 3.865929,0 6.999939,-3.134 6.999939,-7 0,-3.866 -3.13401,-7 -6.999939,-7 -3.8660427,0 -7.0000616,3.134 -7.0000616,7 0,3.866 3.1340189,7 7.0000616,7"
             id="path2-62-0-0-62-9"
             inkscape:connector-curvature="0" />
          <path
             style="opacity:1;fill:#ffffff;fill-opacity:1;stroke:none;stroke-width:2;stroke-linecap:round;stroke-linejoin:round;stroke-miterlimit:4;stroke-dasharray:none;stroke-opacity:1;enable-background:new"
             d="m 9.1715729,1037.5338 c -0.3917372,0.3917 -0.3917372,1.0224 0,1.4142 l 1.4142131,1.4142 -1.4142131,1.4142 c -0.3917372,0.3918 -0.3917372,1.0225 0,1.4142 0.3917371,0.3918 1.0224761,0.3918 1.4142131,0 L 12,1041.7764 l 1.414214,1.4142 c 0.391737,0.3918 1.022476,0.3918 1.414213,0 0.391737,-0.3917 0.391737,-1.0224 0,-1.4142 l -1.414213,-1.4142 1.414213,-1.4142 c 0.391737,-0.3918 0.391737,-1.0225 0,-1.4142 -0.391737,-0.3918 -1.022476,-0.3918 -1.414213,0 L 12,1038.948 l -1.414214,-1.4142 c -0.391737,-0.3918 -1.022476,-0.3918 -1.4142131,0 z"
             id="path6-36-9-9-2"
             inkscape:connector-curvature="0" />
        </g>
      </g>
    </g>
    <g
       transform="translate(-268.36861,1296.5385)"
       style="display:inline;opacity:1;stroke:none"
       id="inactive-center"
       inkscape:label="#hover-center">
      <rect
         ry="1.6930764e-05"
         y="-216.63782"
         x="293"
         height="16"
         width="16"
         id="rect1577-8-3-67-7"
         style="opacity:0;fill:#000000;fill-opacity:1;stroke:none;stroke-width:0.47432083;stroke-linejoin:miter;stroke-miterlimit:4;stroke-dasharray:none;stroke-opacity:1;paint-order:markers stroke fill" />
      <g
         inkscape:label="#g879"
         transform="translate(294,-215.63782)"
         id="titlebutton-close-hover-1-4-0-5-5"
         style="stroke:none;enable-background:new">
        <g
           transform="translate(-4.9999997,-1033.3622)"
           id="g8-5-3-35-9"
           style="stroke:none">
          <path
             style="fill:#757575;fill-opacity:1;fill-rule:evenodd;stroke:none;stroke-width:1;stroke-miterlimit:4;stroke-dasharray:none;stroke-opacity:1"
             d="m 12.000061,1047.3622 c 3.865929,0 6.999939,-3.134 6.999939,-7 0,-3.866 -3.13401,-7 -6.999939,-7 -3.8660427,0 -7.0000616,3.134 -7.0000616,7 0,3.866 3.1340189,7 7.0000616,7"
             id="path2-62-0-0-62-2"
             inkscape:connector-curvature="0" />
        </g>
      </g>
    </g>
    <g
       transform="translate(-268.86554,1318.9)"
       style="display:inline;opacity:1;stroke:none"
       id="deactivated-center"
       inkscape:label="#hover-center">
      <rect
         ry="1.6930764e-05"
         y="-216.63782"
         x="293"
         height="16"
         width="16"
         id="rect1577-8-3-67-6"
         style="opacity:0;fill:#000000;fill-opacity:1;stroke:none;stroke-width:0.47432083;stroke-linejoin:miter;stroke-miterlimit:4;stroke-dasharray:none;stroke-opacity:1;paint-order:markers stroke fill" />
      <g
         inkscape:label="#g879"
         transform="translate(294,-215.63782)"
         id="titlebutton-close-hover-1-4-0-5-1"
         style="stroke:none;enable-background:new">
        <g
           transform="translate(-4.9999997,-1033.3622)"
           id="g8-5-3-35-2"
           style="stroke:none">
          <path
             style="fill:#757575;fill-opacity:1;fill-rule:evenodd;stroke:none;stroke-width:1;stroke-miterlimit:4;stroke-dasharray:none;stroke-opacity:1"
             d="m 12.000061,1047.3622 c 3.865929,0 6.999939,-3.134 6.999939,-7 0,-3.866 -3.13401,-7 -6.999939,-7 -3.8660427,0 -7.0000616,3.134 -7.0000616,7 0,3.866 3.1340189,7 7.0000616,7"
             id="path2-62-0-0-62-93"
             inkscape:connector-curvature="0" />
        </g>
      </g>
    </g>
  </g>
</svg>
