<svg xmlns:osb="http://www.openswatchbook.org/uri/2009/osb" xmlns="http://www.w3.org/2000/svg" xmlns:xlink="http://www.w3.org/1999/xlink" width="48" height="48" version="1.1" id="svg38"><defs id="defs22"><linearGradient id="linearGradient846"><stop offset="0" id="stop842" stop-color="#000" stop-opacity="1"/><stop offset="1" id="stop844" stop-color="#000" stop-opacity="0"/></linearGradient><linearGradient id="linearGradient4488"><stop id="stop4490" offset="0" stop-color="#000" stop-opacity=".047"/><stop id="stop4492" offset="1" stop-color="#000" stop-opacity="0"/></linearGradient><style id="style4511"/><style id="style4511-26"/><style id="style4511-9"/><style id="style4552"/><linearGradient id="a-3" y1="543.8" y2="512.8" x2="0" gradientUnits="userSpaceOnUse"><stop stop-color="#cea476" id="stop2-6"/><stop offset="1" stop-color="#dab58b" id="stop4-75"/></linearGradient><linearGradient id="c-70" y1="542.8" y2="533.8" gradientUnits="userSpaceOnUse" x2="0" gradientTransform="translate(0 -28)"><stop stop-color="#802420" id="stop12-9" stop-opacity="1"/><stop offset="1" stop-color="#d6b987" id="stop14-360" stop-opacity="1"/></linearGradient><style id="style4511-2"/><linearGradient xlink:href="#linearGradient4488" id="linearGradient4540" gradientUnits="userSpaceOnUse" gradientTransform="translate(-62.889 1.994) scale(.3038)" x1="288.112" y1="141.785" x2="287.575" y2="79.008"/><linearGradient osb:paint="solid" id="linearGradient5293"><stop id="stop5295" offset="0" stop-color="#9a89c0" stop-opacity="1"/></linearGradient><linearGradient gradientUnits="userSpaceOnUse" gradientTransform="matrix(2.6002 0 0 .04343 60.894 36.867)" id="linearGradient-7" y2="25.675" x2="4.536" y1="17.964" x1="4.536"><stop id="stop18-1" offset="0%" stop-color="#F7F7F7"/><stop id="stop20-2" offset="100%" stop-color="#F7F7F7"/></linearGradient><linearGradient xlink:href="#a-3" id="linearGradient1308" x1="4.248" y1="23.665" x2="43.255" y2="23.665" gradientUnits="userSpaceOnUse" gradientTransform="translate(-36.61 2.339)"/><linearGradient xlink:href="#c-70" id="linearGradient1219" x1="23.797" y1="43.831" x2="23.752" y2="8.665" gradientUnits="userSpaceOnUse"/><linearGradient xlink:href="#linearGradient846" id="linearGradient848" x1="2.583" y1="23.586" x2="44.829" y2="23.586" gradientUnits="userSpaceOnUse"/></defs><style id="style4485" type="text/css"/><path d="M82.713 37.983a.675.675 0 0 0-.584-.335H63.246a.675.675 0 0 0-.584.335z" id="use70" fill="url(#linearGradient-7)" fill-rule="evenodd" stroke="none" stroke-width=".336"/><path id="path4516" d="M2.75 26.22v1.67c0 9.573 5.583 17.281 17.146 17.281h6.93c15.132 0 17.836-11.322 17.836-17.282v-1.668c0 5.96-2.704 17.282-17.836 17.282h-6.93C8.333 43.503 2.75 35.795 2.75 26.22z" opacity="1" fill="url(#linearGradient4540)" fill-opacity="1" stroke="none" stroke-width="1.1" stroke-linecap="square" stroke-linejoin="bevel" stroke-miterlimit="4" stroke-dasharray="none" stroke-dashoffset="0" stroke-opacity=".078"/><path id="path4518" d="M19.363 2.742h8.495c13.908 0 16.804 11.247 16.804 17.282v7.124c0 5.96-2.704 17.282-17.836 17.282h-6.93C8.333 44.43 2.75 36.722 2.75 27.148v-7.124c0-9.574 5.47-17.282 16.613-17.282z" stroke-miterlimit="4" stroke-dashoffset="0" stroke-dasharray="none" stroke-opacity=".078" stroke-linejoin="bevel" stroke-linecap="square" stroke-width=".334" stroke="url(#linearGradient848)" fill-opacity="1" fill="url(#linearGradient1219)" opacity="1"/><path id="path1244" d="M36.752 23.665c0 7.18-5.82 13-13 13s-13-5.82-13-13 5.82-13 13-13 13 5.82 13 13m0 0" stroke="none" fill-rule="nonzero" fill-opacity="1" fill="#d6b987"/><path id="path1246" d="M23.752 8.665c-8.285 0-15 6.715-15 15s6.715 15 15 15 15-6.715 15-15-6.715-15-15-15m-1.281 2.594c.012 0 .27-.027.28-.027v11.434H11.347c.582-5.902 5.23-10.81 11.125-11.406m2.28-.027c5.915.582 10.825 5.523 11.407 11.44H24.752m-13.406 2h11.406v11.439c-5.914-.582-10.824-5.523-11.406-11.438m13.406 0h11.406c-.582 5.906-5.492 10.852-11.406 11.438m0-11.438" fill="#674147" fill-opacity="1" fill-rule="nonzero" stroke="none" stroke-opacity="1"/></svg>