<svg xmlns:osb="http://www.openswatchbook.org/uri/2009/osb" xmlns="http://www.w3.org/2000/svg" width="48" height="48" version="1.1" id="svg38"><defs id="defs22"><style id="style4511"/><style id="style4511-26"/><style id="style4511-9"/><style id="style4552"/><style id="style4511-2"/><linearGradient osb:paint="solid" id="linearGradient5293"><stop id="stop5295" offset="0" stop-color="#9a89c0" stop-opacity="1"/></linearGradient></defs><style id="style4485" type="text/css"/><path id="path4518" d="M19.591 2.743h8.611c14.098 0 17.034 11.247 17.034 17.282v7.122c0 5.96-2.74 17.282-18.08 17.282h-7.025c-11.72 0-17.38-7.708-17.38-17.282v-7.122c0-9.574 5.545-17.282 16.84-17.282z" opacity="1" fill="#e6e6e6" fill-opacity="1" stroke="#000" stroke-width=".336" stroke-linecap="square" stroke-linejoin="bevel" stroke-miterlimit="4" stroke-dasharray="none" stroke-dashoffset="0" stroke-opacity=".078"/><g id="g1283" transform="matrix(.73129 0 0 .65336 5.712 8.232)"><g id="g1281"><path d="M10.5 13h12.1l3.7-9H10.5C8 4 6 6 6 8.5S8 13 10.5 13z" id="path1273" fill="#f68b22"/><path d="M10.5 28h13.1l3.7-9H10.5C8 19 6 21 6 23.5S8 28 10.5 28z" id="path1275" fill="#f68b22"/><path d="M28.4 34H10.5C8 34 6 36 6 38.5S8 43 10.5 43h14.1z" id="path1277" fill="#f68b22"/><path d="M44 16c-.1-6.6-5.5-12-12.2-12h-2.5l-3.7 9h6.2c1.7 0 3.1 1.4 3.2 3 0 1.7-1.4 3-3.2 3h-1.5l-3.7 9h5.2c1.7 0 3.1 1.4 3.2 3 0 1.7-1.4 3-3.2 3h-.5l-3.7 9h4.2C38.5 43 44 37.7 44 31.1V31c0-2.8-1.1-5.4-2.7-7.5 1.7-2 2.7-4.6 2.7-7.4z" id="path1279" fill="#2ca5bf"/></g></g></svg>