<svg xmlns="http://www.w3.org/2000/svg" xmlns:xlink="http://www.w3.org/1999/xlink" height="48" width="48"><defs><linearGradient x1="1" x2="47" gradientTransform="translate(-48 .002)" gradientUnits="userSpaceOnUse" id="a"><stop offset="0" stop-color="#ecc200"/><stop offset="1" stop-color="#ffe700"/></linearGradient><linearGradient xlink:href="#a" id="b" x1="2.985" y1="23.808" x2="45.232" y2="23.808" gradientUnits="userSpaceOnUse"/></defs><path d="M19.765 2.965h8.496c13.907 0 16.804 11.246 16.804 17.282v7.123c0 5.96-2.704 17.282-17.837 17.282h-6.93c-11.562 0-17.146-7.708-17.146-17.282v-7.123c0-9.575 5.47-17.282 16.613-17.282z" stroke="#000" stroke-width=".334" stroke-linecap="square" stroke-linejoin="bevel" stroke-opacity=".078" fill="url(#b)"/><path d="M12.023 11.934v24.402h24.402V11.934m-23.463.938h22.525v22.525H12.962m0-22.525" fill="#b9b095"/><path d="M12.962 12.869h11.262V24.13H12.962m0-11.262" fill="#ececd4"/><path d="M24.224 12.869h11.263V24.13H24.224m0-11.262" fill="#e5d6ab"/><path d="M12.962 24.135h11.262v11.262H12.962m0-11.262" fill="#ffcf53"/><path d="M24.224 24.135h11.263v11.262H24.224m0-11.262" fill="#ffb95b"/><path d="M22.347 32.582h-.938v1.877h-1.877v-1.877h-3.755v-1.877l3.285-5.632h2.347v5.632h.938v1.877m-2.815-1.877V26.95l-1.877 3.755m3.754-7.509h-5.632V21.32c2.926-2.925 4.59-3.973 3.322-5.239-.59-.59-1.254-.106-2.383.547l-.939-1.877c1.662-1.1 3.468-1.243 4.693 0 2.526 2.562-1.056 5.037-2.402 6.57h3.34m8.447 3.752a2.817 2.817 0 0 0-2.815 2.816c0 .725.488 1.379.938 1.877-.45.498-.938 1.152-.938 1.877a2.817 2.817 0 0 0 5.631 0c0-.725-.488-1.379-.939-1.877.451-.498.939-1.152.939-1.877a2.817 2.817 0 0 0-2.816-2.816m0 1.877a.94.94 0 0 1 .939.939c0 .517-.623.939-.939.939-.315 0-.938-.422-.938-.939a.94.94 0 0 1 .938-.939m0 3.755c.345 0 .939.421.939.938a.94.94 0 0 1-.939.939.94.94 0 0 1-.938-.939c0-.517.594-.938.938-.938" fill="#28241a"/></svg>