<svg xmlns:osb="http://www.openswatchbook.org/uri/2009/osb" xmlns="http://www.w3.org/2000/svg" xmlns:xlink="http://www.w3.org/1999/xlink" width="48" height="48" version="1.1" id="svg38"><defs id="defs22"><linearGradient id="linearGradient4488"><stop id="stop4490" offset="0" stop-color="#000" stop-opacity=".047"/><stop id="stop4492" offset="1" stop-color="#000" stop-opacity="0"/></linearGradient><style id="style4511"/><style id="style4511-26"/><style id="style4511-9"/><style id="style4552"/><style id="style4511-2"/><linearGradient xlink:href="#linearGradient4488" id="linearGradient4540" gradientUnits="userSpaceOnUse" gradientTransform="matrix(.3074 0 0 .30379 -63.667 1.994)" x1="288.112" y1="141.785" x2="287.575" y2="79.008"/><linearGradient osb:paint="solid" id="linearGradient5293"><stop id="stop5295" offset="0" stop-color="#9a89c0" stop-opacity="1"/></linearGradient><style id="style2" type="text/css"><![CDATA[.fil5{fill:none}.fil1{fill:#196FBA}.fil0{fill:#25B2EE}.fil4{fill:#793C7C}.fil3{fill:#8C508C}.fil2{fill:white}]]></style></defs><style id="style4485" type="text/css"/><path id="path4516" d="M2.751 26.22v1.669c0 9.574 5.65 17.282 17.35 17.282h7.012c15.312 0 18.048-11.323 18.048-17.282V26.22c0 5.96-2.736 17.282-18.048 17.282H20.1c-11.7 0-17.349-7.708-17.349-17.282z" opacity="1" fill="url(#linearGradient4540)" fill-opacity="1" stroke="none" stroke-width="1.106" stroke-linecap="square" stroke-linejoin="bevel" stroke-miterlimit="4" stroke-dasharray="none" stroke-dashoffset="0" stroke-opacity=".078"/><path id="path4518" d="M19.561 2.743h8.596c14.073 0 17.004 11.247 17.004 17.282v7.122c0 5.96-2.736 17.282-18.048 17.282H20.1c-11.7 0-17.35-7.708-17.35-17.282v-7.122c0-9.574 5.535-17.282 16.81-17.282z" opacity="1" fill="#fddb00" fill-opacity="1" stroke="#000" stroke-width=".336" stroke-linecap="square" stroke-linejoin="bevel" stroke-miterlimit="4" stroke-dasharray="none" stroke-dashoffset="0" stroke-opacity=".078"/><path d="M27.571 39.344c-6.445 0-12.082-3.44-15.213-8.585-.032-.052-.05-.107-.084-.158-.015-.025-.035-.044-.05-.069-.097-.162-.336-.445-.336-.445-1.659-2.133-4.35-2.903-6.28-1.676-2.082 1.324-2.475 4.451-.877 6.985.14.224.441.64.441.64 4.162 5.064 10.462 8.293 17.512 8.293 11.89 0 21.627-9.185 22.595-20.871-.997 8.937-8.54 15.886-17.708 15.886z" id="path10" fill="#44a400" stroke-width="1.083"/><path d="M20.463 8.059c6.446 0 12.083 3.44 15.214 8.584.031.052.05.108.083.159.015.025.036.043.05.068.097.163.337.446.337.446 1.658 2.133 4.349 2.903 6.279 1.676 2.083-1.325 2.475-4.452.877-6.986-.14-.223-.44-.639-.44-.639C38.7 6.302 32.4 3.073 25.35 3.073c-11.89 0-21.627 9.186-22.594 20.872.996-8.936 8.54-15.886 17.707-15.886z" id="path12-36" fill="#44a400" stroke-width="1.083"/><path d="M31.52 20.332h-4.322v-4.34a2.165 2.165 0 0 0-2.161-2.169h-2.161a2.165 2.165 0 0 0-2.161 2.17v4.339h-4.322c-1.194 0-2.161.97-2.161 2.17v2.169c0 1.198.967 2.17 2.16 2.17h4.323v4.338c0 1.199.967 2.17 2.16 2.17h2.162c1.194 0 2.16-.971 2.16-2.17V26.84h4.323c1.194 0 2.16-.97 2.16-2.17v-2.169c0-1.198-.967-2.17-2.16-2.17z" id="path14-7" fill="#44a400" stroke-width="1.083"/></svg>