<svg xmlns="http://www.w3.org/2000/svg" xmlns:xlink="http://www.w3.org/1999/xlink" width="48" height="48" version="1.1" id="svg38"><defs id="defs22"><linearGradient id="linearGradient4488"><stop id="stop4490" offset="0" stop-color="#000" stop-opacity=".047"/><stop id="stop4492" offset="1" stop-color="#000" stop-opacity="0"/></linearGradient><style id="style4511"/><linearGradient id="e" y1="543.8" y2="503.8" gradientUnits="userSpaceOnUse" x2="0" gradientTransform="matrix(1.125 0 0 1 -435.64 504.56)"><stop stop-color="#1d1e1e" id="stop22"/><stop offset="1" stop-color="#44484c" id="stop24"/></linearGradient><style id="style4511-26"/><style id="style4511-9"/><style id="style4552"/><style id="style4511-2"/><linearGradient gradientTransform="translate(-63.205 2.216) scale(.3038)" xlink:href="#linearGradient4488" id="linearGradient4160" x1="288.112" y1="141.785" x2="287.575" y2="79.008" gradientUnits="userSpaceOnUse"/><linearGradient xlink:href="#e" id="linearGradient1299" x1="2.266" y1="23.808" x2="44.513" y2="23.808" gradientUnits="userSpaceOnUse"/><filter height="400%" width="400%" y="-200%" x="-200%" id="m3q1ZV92A9xTaYgIDjDTAwyblbCgyFw1"><feOffset id="feOffset1204" dy="4" dx="0" result="offOut" in="SourceAlpha"/><feGaussianBlur id="feGaussianBlur1206" stdDeviation="5" result="blurOut" in="offOut"/><feComponentTransfer id="feComponentTransfer1210" result="opacOut" in="blurOut"><feFuncA id="feFuncA1208" tableValues="0 0.5" type="table"/></feComponentTransfer><feBlend id="feBlend1212" mode="normal" in2="opacOut" in="SourceGraphic"/></filter><filter height="400%" width="400%" y="-200%" x="-200%" id="tQovwizVrWoXGLTaXz8XmLG1fMgc6YiS"><feOffset id="feOffset1226" dy="4" dx="0" result="offOut" in="SourceAlpha"/><feGaussianBlur id="feGaussianBlur1228" stdDeviation="5" result="blurOut" in="offOut"/><feComponentTransfer id="feComponentTransfer1232" result="opacOut" in="blurOut"><feFuncA id="feFuncA1230" tableValues="0 0.5" type="table"/></feComponentTransfer><feBlend id="feBlend1234" mode="normal" in2="opacOut" in="SourceGraphic"/></filter><filter height="400%" width="400%" y="-200%" x="-200%" id="JDM0Qd0egscaK9LncF6CjOh28haH26ko"><feOffset id="feOffset1248" dy="4" dx="0" result="offOut" in="SourceAlpha"/><feGaussianBlur id="feGaussianBlur1250" stdDeviation="5" result="blurOut" in="offOut"/><feComponentTransfer id="feComponentTransfer1254" result="opacOut" in="blurOut"><feFuncA id="feFuncA1252" tableValues="0 0.5" type="table"/></feComponentTransfer><feBlend id="feBlend1256" mode="normal" in2="opacOut" in="SourceGraphic"/></filter></defs><style id="style4485" type="text/css"/><g id="g1783"><g id="g1739"><g id="g1733"><g id="g1728" fill-opacity="1" stroke-linecap="square" stroke-linejoin="bevel" stroke-miterlimit="4" stroke-dasharray="none" stroke-dashoffset="0" stroke-opacity=".078"><path d="M2.433 26.443v1.668c0 9.575 5.583 17.282 17.146 17.282h6.93c15.133 0 17.837-11.322 17.837-17.282v-1.668c0 5.96-2.704 17.282-17.837 17.282h-6.93c-11.563 0-17.146-7.708-17.146-17.282z" id="path4147" opacity="1" fill="url(#linearGradient4160)" stroke="none" stroke-width="1.1"/><path d="M19.046 2.965h8.495c13.908 0 16.805 11.246 16.805 17.282v7.123c0 5.96-2.704 17.282-17.837 17.282h-6.93c-11.562 0-17.146-7.708-17.146-17.282v-7.123c0-9.575 5.47-17.282 16.613-17.282z" id="rect4144" opacity="1" fill="url(#linearGradient1299)" stroke="#000" stroke-width=".334"/></g></g></g><g transform="matrix(.18203 0 0 .17832 .505 .67)" id="Group" style="isolation:isolate"><g id="g1224" filter="url(#m3q1ZV92A9xTaYgIDjDTAwyblbCgyFw1)"><radialGradient gradientUnits="userSpaceOnUse" id="_rgradient_0" fx="150.531" fy="106.235" cx="156.817" cy="115.497" r="44.683"><stop offset="1.739%" stop-opacity="1" id="stop1217" stop-color="#fa9381"/><stop offset="51.834%" stop-opacity="1" id="stop1219" stop-color="#bc1938"/></radialGradient><path d="M114.731 100.513c8.27-23.229 33.843-35.373 57.071-27.103 23.228 8.271 35.372 33.843 27.102 57.071-8.27 23.228-33.843 35.372-57.071 27.102-23.228-8.27-35.372-33.842-27.102-57.07z" id="path1222" fill="url(#_rgradient_0)"/></g><g id="g1246" filter="url(#tQovwizVrWoXGLTaXz8XmLG1fMgc6YiS)"><radialGradient gradientUnits="userSpaceOnUse" id="_rgradient_1" fx="99.885" fy="114.593" cx="100.175" cy="115.86" r="44.674"><stop offset="0%" stop-opacity="1" id="stop1239" stop-color="#cbe667"/><stop offset="100%" stop-opacity="1" id="stop1241" stop-color="#46a926"/></radialGradient><path d="M55.5 115.861c0-24.657 20.018-44.675 44.674-44.675s44.674 20.018 44.674 44.675c0 24.656-20.018 44.674-44.674 44.674S55.5 140.517 55.5 115.861z" id="path1244" fill="url(#_rgradient_1)"/></g><g id="g1268" filter="url(#JDM0Qd0egscaK9LncF6CjOh28haH26ko)"><radialGradient gradientUnits="userSpaceOnUse" id="_rgradient_2" fx="128.212" fy="149.872" cx="128.501" cy="151.139" r="44.674"><stop offset="1.739%" stop-opacity="1" id="stop1261" stop-color="#aee3f8"/><stop offset="100%" stop-opacity="1" id="stop1263" stop-color="#1463a5"/></radialGradient><path d="M83.826 151.139c0-24.656 20.018-44.674 44.674-44.674s44.674 20.018 44.674 44.674c0 24.657-20.018 44.675-44.674 44.675s-44.674-20.018-44.674-44.675z" id="path1266" fill="url(#_rgradient_2)"/></g></g></g></svg>