<svg xmlns:osb="http://www.openswatchbook.org/uri/2009/osb" xmlns="http://www.w3.org/2000/svg" xmlns:xlink="http://www.w3.org/1999/xlink" width="48" height="48" version="1.1" id="svg38"><defs id="defs22"><style id="style4511"/><linearGradient id="d" y1="1050.34" y2="1038.36" gradientUnits="userSpaceOnUse" x2="0" gradientTransform="matrix(-2.83522 0 0 2.83875 47.655 -1933.28)"><stop stop-color="#c61423" id="stop17"/><stop offset="1" stop-color="#dc2b41" id="stop19"/></linearGradient><style id="style4511-26"/><style id="style4511-9"/><style id="style4552"/><style id="style4511-2"/><linearGradient osb:paint="solid" id="linearGradient5293"><stop id="stop5295" offset="0" stop-color="#9a89c0" stop-opacity="1"/></linearGradient><linearGradient xlink:href="#d" id="linearGradient1305" x1="2.583" y1="23.586" x2="44.83" y2="23.586" gradientUnits="userSpaceOnUse" gradientTransform="matrix(0 -1.00966 .99997 0 .324 48.24)"/></defs><style id="style4485" type="text/css"/><g id="g463" fill-opacity="1"><path d="M3.066 28.69v-8.577c0-14.042 11.247-16.967 17.282-16.967h7.123c5.96 0 17.282 2.73 17.282 18.01v6.996c0 11.674-7.708 17.312-17.282 17.312h-7.123c-9.574 0-17.282-5.523-17.282-16.774z" id="path4518" opacity="1" fill="url(#linearGradient1305)" stroke="#000" stroke-width=".336" stroke-linecap="square" stroke-linejoin="bevel" stroke-miterlimit="4" stroke-dasharray="none" stroke-dashoffset="0" stroke-opacity=".078"/><path d="M14.87 16.204c-1.507 0-1.507 1.35-1.507 1.35v13.502c0 1.35 1.507 1.35 1.507 1.35h18.08s1.506 0 1.506-1.35V17.555c0-1.35-1.507-1.35-1.507-1.35zm5.273 6.16l4.99 5.063 3.202-2.784 3.108 2.784v2.279H16.376V26.33z" style="text-indent:0;text-transform:none" id="rect6307" color="#000" fill="#fff" stroke-width="1.037"/></g></svg>