<svg xmlns:osb="http://www.openswatchbook.org/uri/2009/osb" xmlns="http://www.w3.org/2000/svg" xmlns:xlink="http://www.w3.org/1999/xlink" width="48" height="48" version="1.1" id="svg38"><defs id="defs22"><linearGradient id="linearGradient4488"><stop id="stop4490" offset="0" stop-color="#000" stop-opacity=".047"/><stop id="stop4492" offset="1" stop-color="#000" stop-opacity="0"/></linearGradient><style id="style4511"/><style id="style4511-26"/><style id="style4511-9"/><style id="style4552"/><style id="style4511-2"/><linearGradient xlink:href="#linearGradient4488" id="linearGradient4540" gradientUnits="userSpaceOnUse" gradientTransform="matrix(.30902 0 0 .3038 -64.017 1.994)" x1="288.112" y1="141.785" x2="287.575" y2="79.008"/><linearGradient osb:paint="solid" id="linearGradient5293"><stop id="stop5295" offset="0" stop-color="#9a89c0" stop-opacity="1"/></linearGradient><linearGradient gradientTransform="rotate(-90 24 24)" gradientUnits="userSpaceOnUse" x2="47" x1="1" id="linearGradient3764-3675"><stop id="stop503" stop-opacity="1" stop-color="#7fa935"/><stop id="stop505" stop-opacity="1" stop-color="#89b83a" offset="1"/></linearGradient><clipPath id="clipPath-761924835-5"/><linearGradient xlink:href="#linearGradient3764-3675" id="linearGradient1535" x1="2.583" y1="23.586" x2="44.83" y2="23.586" gradientUnits="userSpaceOnUse" gradientTransform="matrix(1.0172 0 0 1 -.047 0)"/></defs><style id="style4485" type="text/css"/><path id="path4516" d="M2.75 26.22v1.67c0 9.573 5.68 17.281 17.44 17.281h7.05c15.392 0 18.143-11.322 18.143-17.282v-1.668c0 5.96-2.75 17.282-18.143 17.282h-7.05c-11.76 0-17.44-7.708-17.44-17.282z" opacity="1" fill="url(#linearGradient4540)" fill-opacity="1" stroke="none" stroke-width="1.109" stroke-linecap="square" stroke-linejoin="bevel" stroke-miterlimit="4" stroke-dasharray="none" stroke-dashoffset="0" stroke-opacity=".078"/><path id="path4518" d="M19.649 2.742h8.64c14.148 0 17.094 11.247 17.094 17.282v7.124c0 5.96-2.75 17.282-18.143 17.282h-7.05c-11.76 0-17.44-7.708-17.44-17.282v-7.124c0-9.574 5.564-17.282 16.899-17.282z" opacity="1" fill="url(#linearGradient1535)" fill-opacity="1" stroke="#000" stroke-width=".337" stroke-linecap="square" stroke-linejoin="bevel" stroke-miterlimit="4" stroke-dasharray="none" stroke-dashoffset="0" stroke-opacity=".078"/><path id="path546" d="M21.164 13.812a5.658 5.562 0 0 0-1.748.313c-2.483.859-4.367 3.359-4.923 6.465-1.633.402-3.044 1.855-3.533 3.969-.68 2.996.75 6.121 3.175 6.965.04.012.064.023.103.031a2.736 2.69 0 0 0 1.11.254h.54s1.016-.988 1.016-2V17.813c0-1 .986-2 .986-2h3.048s-.982 1-.982 2v3h8.158v-3c0-.5.23-1 .477-1.375a3.359 3.302 0 0 0-.413.125c-.465.16-.882.395-1.271.719-1.336-2.223-3.477-3.535-5.75-3.469m-2.947 3c-.155.305-.286.652-.286 1h1.017c0-.348.127-.695.282-1m10.202 0c-.154.305-.286.652-.286 1h1.018c0-.348.127-.695.281-1m.986.094c-.14.285-.254.582-.254.906v11.996c0 1.02-1.013 2-1.013 2h2.793c.627 0 1.188-.238 1.68-.625 1.971-1.156 3.052-3.941 2.448-6.621-.449-1.98-1.717-3.402-3.207-3.906-.023-.066-.023-.121-.031-.188-.37-1.617-1.276-2.883-2.416-3.578m-13.498 1.922v1h1.017v-1m10.192 0v1h1.017v-1m-12.226 1.996v1h1.017v-1m10.192 0v1h1.017v-1m-10.192 1v5h8.158v-5m-10.192 1v1h1.017v-1m10.192 0v1h1.017v-1m-12.226 1.996v1h1.017v-1m10.192 0v1h1.017v-1m-12.226 2v1h1.017v-1m10.192 0v1h1.017v-1m-10.192 1v1.996c0 .98-1.017 2-1.017 2H27.1s1.017-1 1.017-2v-1.996m-10.192 1v.996h1.017v-.996m10.192 0v.996h1.017v-.996m-12.516 1.996c-.302.574-.732 1-.732 1h1.018s.429-.426.731-1m10.192 0c-.302.574-.731 1-.731 1h1.017s.43-.426.732-1m-1.018 0" fill="#f9f9f9" fill-opacity="1" fill-rule="nonzero" stroke="none" stroke-width="1.009"/></svg>