<svg xmlns:osb="http://www.openswatchbook.org/uri/2009/osb" xmlns="http://www.w3.org/2000/svg" xmlns:xlink="http://www.w3.org/1999/xlink" width="48" height="48" version="1.1" id="svg38"><defs id="defs22"><linearGradient id="linearGradient4488"><stop id="stop4490" offset="0" stop-color="#000" stop-opacity=".047"/><stop id="stop4492" offset="1" stop-color="#000" stop-opacity="0"/></linearGradient><style id="style4511"/><style id="style4511-26"/><style id="style4511-9"/><style id="style4552"/><style id="style4511-2"/><linearGradient xlink:href="#linearGradient4488" id="linearGradient4540" gradientUnits="userSpaceOnUse" gradientTransform="translate(-62.889 1.994) scale(.3038)" x1="288.112" y1="141.785" x2="287.575" y2="79.008"/><linearGradient osb:paint="solid" id="linearGradient5293"><stop id="stop5295" offset="0" stop-color="#9a89c0" stop-opacity="1"/></linearGradient><linearGradient id="linearGradient3650-7-9"><stop id="stop4366" offset="0" stop-color="#5884f4" stop-opacity="1"/><stop offset="1" id="stop4368" stop-color="#80a3fa" stop-opacity="1"/></linearGradient><linearGradient xlink:href="#linearGradient3650-7-9" id="linearGradient1249" x1="2.583" y1="23.586" x2="44.83" y2="23.586" gradientUnits="userSpaceOnUse" gradientTransform="rotate(-90 23.706 23.586)"/></defs><style id="style4485" type="text/css"/><path id="path4516" d="M2.75 26.22v1.67c0 9.573 5.583 17.281 17.146 17.281h6.93c15.132 0 17.836-11.322 17.836-17.282v-1.668c0 5.96-2.704 17.282-17.836 17.282h-6.93C8.333 43.503 2.75 35.795 2.75 26.22z" opacity="1" fill="url(#linearGradient4540)" fill-opacity="1" stroke="none" stroke-width="1.1" stroke-linecap="square" stroke-linejoin="bevel" stroke-miterlimit="4" stroke-dasharray="none" stroke-dashoffset="0" stroke-opacity=".078"/><path id="path4518" d="M2.862 27.93v-8.496C2.862 5.526 14.11 2.63 20.145 2.63h7.123c5.96 0 17.282 2.704 17.282 17.836v6.93c0 11.563-7.708 17.146-17.282 17.146h-7.123c-9.575 0-17.283-5.47-17.283-16.613z" opacity="1" fill="url(#linearGradient1249)" fill-opacity="1" stroke="#000" stroke-width=".334" stroke-linecap="square" stroke-linejoin="bevel" stroke-miterlimit="4" stroke-dasharray="none" stroke-dashoffset="0" stroke-opacity=".078"/><path id="path4148" d="M23.559 13.246a10.044 9.077 27.016 0 0-9.688 5.036 8.035 7.262 27.016 0 0-4.864 6.044 8.035 7.262 27.016 0 0 7.424 8.382 8.035 7.262 27.016 0 0 5.342-1.191 10.044 9.077 27.016 0 0 .671.12 10.044 9.077 27.016 0 0 4.21-.332 8.035 7.262 27.016 0 0 3.66 1.358 8.035 7.262 27.016 0 0 8.315-6.332 8.035 7.262 27.016 0 0-7.424-8.382 8.035 7.262 27.016 0 0-.016-.002 10.044 9.077 27.016 0 0-7.63-4.701z" fill="#fff" fill-opacity="1" stroke-width="1.01"/><path id="path8672" d="M21.598 19.082c-.551 0-1.002.432-1.002.959v4.88a2.269 2.269 0 0 0-.745-.134c-1.235 0-2.236.958-2.236 2.14 0 1.18 1.001 2.138 2.236 2.138 1.235 0 2.236-.957 2.236-2.139v-4.991h4.471v2.986a2.269 2.269 0 0 0-.745-.134c-1.235 0-2.236.958-2.236 2.14 0 1.18 1.001 2.138 2.236 2.138 1.235 0 2.236-.957 2.236-2.139v-7.13h-.047a.98.98 0 0 0-.954-.714h-5.45z" fill="#658bf3" fill-opacity="1"/></svg>