<svg height="48" width="48" xmlns="http://www.w3.org/2000/svg" xmlns:xlink="http://www.w3.org/1999/xlink"><linearGradient id="a" gradientUnits="userSpaceOnUse" x1="25.0314256" x2="24.868285" y1="45.068283" y2="25.9966304"><stop offset="0" stop-opacity=".047"/><stop offset="1" stop-opacity="0"/></linearGradient><linearGradient id="b" gradientUnits="userSpaceOnUse" x1="23.154751" x2="23.298569" y1="42.247269" y2="17.941969"><stop offset="0" stop-color="#d6d6d6"/><stop offset="1" stop-color="#fff"/></linearGradient><linearGradient id="c" gradientUnits="userSpaceOnUse" x1="41.514751" x2="5.246152" y1="10.568677" y2="10.392443"><stop offset="0" stop-color="#ff9038"/><stop offset="1" stop-color="#ffc13e"/></linearGradient><path d="m3.141 26.22v1.67c0 9.573 5.583 17.281 17.146 17.281h6.93c15.133 0 17.837-11.322 17.837-17.282v-1.668c0 5.96-2.704 17.282-17.837 17.282h-6.93c-11.563 0-17.146-7.708-17.146-17.282z" fill="url(#a)"/><path d="m19.754 2.742h8.495c13.908 0 16.805 11.247 16.805 17.282v7.124c0 5.96-2.704 17.282-17.837 17.282h-6.93c-11.562 0-17.146-7.708-17.146-17.282v-7.124c0-9.574 5.47-17.282 16.613-17.282z" style="stroke:#000;stroke-width:.334;stroke-linecap:square;stroke-linejoin:bevel;stroke-opacity:.078;fill:url(#b)"/><path d="m23.445312 2.5742188.002.00195h-3.654297c-.747151 0-1.457994.048097-2.152344.1171875a654.746 654.746 0 0 1 -.0098-.00977c-1.894.184-3.606.6061875-5.125 1.2421874l.0098.00977a14.34 14.34 0 0 0 -3.8457491 2.3652375l.00977.00977c-2.0652225 1.7789061-3.5603747 4.0891758-4.4570357 6.7695268h.2773438.2753906 5.9375004 6.140625 6.111328 6.140625 6.154297 6.138672 2.560546a18.183 18.183 0 0 0 -.783203-1.880859l.002-.002c-.0059-.01249-.01356-.02463-.01953-.03711a18.183 18.183 0 0 0 -.05078-.105468l-.0039.0039c-.630527-1.2954276-1.437217-2.5467469-2.468805-3.6737754l.0059-.00586c-.052-.056-.10325-.1158749-.15625-.171875-.093-.093-.227219-.2301249-.324219-.328125-.03895-.038368-.08353-.073306-.123047-.1113281-.223799-.2158908-.456458-.4269848-.699259-.6308587-.09933-.0833148-.2041-.1629773-.306641-.2441407-.104192-.082485-.202925-.1678937-.310547-.2480469l.05859.060547c-2.199207-1.6610611-5.107589-2.8284041-8.947262-3.0742188a23.988 23.988 0 0 0 -.01563 0c-.06175-.00391-.117454-.014145-.179687-.017578l.0098.011719a23.988 23.988 0 0 0 -1.359375-.050781z" fill="url(#c)"/><path d="m4.713 14.356a.34.34 0 0 1 -.345-.335.34.34 0 0 1 .345-.334c.19 0 .344.15.344.334a.34.34 0 0 1 -.344.335zm1.379 0a.34.34 0 0 1 -.345-.335.34.34 0 0 1 .345-.334c.19 0 .344.15.344.334a.34.34 0 0 1 -.344.335zm1.379 0a.34.34 0 0 1 -.345-.335.34.34 0 0 1 .345-.334c.19 0 .345.15.345.334a.34.34 0 0 1 -.345.335zm1.379 0a.34.34 0 0 1 -.345-.335.34.34 0 0 1 .345-.334c.19 0 .345.15.345.334a.34.34 0 0 1 -.345.335zm1.379 0a.34.34 0 0 1 -.345-.335.34.34 0 0 1 .345-.334c.19 0 .345.15.345.334a.34.34 0 0 1 -.345.335zm1.379 0a.34.34 0 0 1 -.345-.335.34.34 0 0 1 .345-.334c.19 0 .345.15.345.334a.34.34 0 0 1 -.345.335zm1.38 0a.34.34 0 0 1 -.346-.335.34.34 0 0 1 .345-.334c.19 0 .345.15.345.334a.34.34 0 0 1 -.345.335zm1.378 0a.34.34 0 0 1 -.345-.335.34.34 0 0 1 .345-.334c.19 0 .345.15.345.334a.34.34 0 0 1 -.345.335zm1.38 0a.34.34 0 0 1 -.346-.335.34.34 0 0 1 .345-.334c.19 0 .345.15.345.334a.34.34 0 0 1 -.345.335zm1.378 0a.34.34 0 0 1 -.344-.335.34.34 0 0 1 .344-.334c.19 0 .345.15.345.334a.34.34 0 0 1 -.345.335zm1.38 0a.34.34 0 0 1 -.345-.335.34.34 0 0 1 .344-.334c.19 0 .345.15.345.334a.34.34 0 0 1 -.345.335zm1.378 0a.34.34 0 0 1 -.344-.335.34.34 0 0 1 .344-.334c.19 0 .345.15.345.334a.34.34 0 0 1 -.345.335zm1.38 0a.34.34 0 0 1 -.345-.335.34.34 0 0 1 .345-.334c.19 0 .344.15.344.334a.34.34 0 0 1 -.344.335zm1.379 0a.34.34 0 0 1 -.345-.335.34.34 0 0 1 .345-.334c.19 0 .344.15.344.334a.34.34 0 0 1 -.344.335zm1.379 0a.34.34 0 0 1 -.345-.335.34.34 0 0 1 .345-.334c.19 0 .345.15.345.334a.34.34 0 0 1 -.345.335zm1.379 0a.34.34 0 0 1 -.345-.335.34.34 0 0 1 .345-.334c.19 0 .345.15.345.334a.34.34 0 0 1 -.345.335zm1.379 0a.34.34 0 0 1 -.345-.335.34.34 0 0 1 .345-.334c.19 0 .345.15.345.334a.34.34 0 0 1 -.345.335zm1.379 0a.34.34 0 0 1 -.345-.335.34.34 0 0 1 .345-.334c.19 0 .345.15.345.334a.34.34 0 0 1 -.345.335zm1.38 0a.34.34 0 0 1 -.346-.335.34.34 0 0 1 .345-.334c.19 0 .345.15.345.334a.34.34 0 0 1 -.345.335zm1.378 0a.34.34 0 0 1 -.345-.335.34.34 0 0 1 .345-.334c.19 0 .345.15.345.334a.34.34 0 0 1 -.345.335zm1.38 0a.34.34 0 0 1 -.346-.335.34.34 0 0 1 .345-.334c.19 0 .345.15.345.334a.34.34 0 0 1 -.345.335zm1.378 0a.34.34 0 0 1 -.344-.335.34.34 0 0 1 .344-.334c.19 0 .345.15.345.334a.34.34 0 0 1 -.345.335zm1.38 0a.34.34 0 0 1 -.345-.335.34.34 0 0 1 .344-.334c.19 0 .345.15.345.334a.34.34 0 0 1 -.345.335zm1.378 0a.34.34 0 0 1 -.344-.335.34.34 0 0 1 .344-.334c.19 0 .345.15.345.334a.34.34 0 0 1 -.345.335zm1.38 0a.34.34 0 0 1 -.345-.335.34.34 0 0 1 .345-.334c.19 0 .344.15.344.334a.34.34 0 0 1 -.344.335zm1.379 0a.34.34 0 0 1 -.345-.335.34.34 0 0 1 .345-.334c.19 0 .344.15.344.334a.34.34 0 0 1 -.344.335zm1.379 0a.34.34 0 0 1 -.345-.335.34.34 0 0 1 .345-.334c.19 0 .344.15.344.334a.34.34 0 0 1 -.344.335zm1.379 0a.34.34 0 0 1 -.345-.335.34.34 0 0 1 .345-.334c.19 0 .345.15.345.334a.34.34 0 0 1 -.345.335zm1.379 0a.34.34 0 0 1 -.345-.335.34.34 0 0 1 .345-.334c.19 0 .345.15.345.334a.34.34 0 0 1 -.345.335z" fill="#4d4d4d" opacity=".4"/><g fill="#ccc" fill-opacity=".959" stroke="#ccc" stroke-opacity=".957"><path d="m3.196 18.926 41.642.002" opacity=".566" stroke-width=".597"/><path d="m3.22 23.932 41.643.002" opacity=".566" stroke-width=".597"/><path d="m3.26 28.761 41.643.002" opacity=".566" stroke-width=".597"/><path d="m4.158 33.626 39.833.002" opacity=".566" stroke-width=".584"/><path d="m6.643 38.514 34.796.002" opacity=".566" stroke-width=".546"/></g><path d="m35.479-6.784h1.97v18.773h-1.97z" fill="#3b6dad" transform="matrix(.69021 .7236 -.6644 .74738 0 0)"/><path d="m30.964 18.386-1.312 1.478 1.36 1.426 1.313-1.477z" fill="#c83737"/><path d="m16.523 34.633 1.36 1.426-3.306 2.24z" fill="#efdc90"/><path d="m35.479-7.772h1.97v.988h-1.97z" fill="#d7e3f4" transform="matrix(.69021 .7236 -.6644 .74738 0 0)"/><path d="m36.464-6.784h.985v18.773h-.985z" fill="#2c4f92" transform="matrix(.69021 .7236 -.6644 .74738 0 0)"/><path d="m16.243 37.193-1.666 1.107.978-1.828.687.72z" fill="#212121"/></svg>