<svg height="48" width="48" xmlns="http://www.w3.org/2000/svg" xmlns:xlink="http://www.w3.org/1999/xlink"><linearGradient id="a" gradientUnits="userSpaceOnUse" x1="25.03094675612" x2="24.86807943138" y1="45.06785145782" y2="25.99627061771"><stop offset="0" stop-opacity=".046875"/><stop offset="1" stop-opacity="0"/></linearGradient><path d="m3.1412274 26.220541v1.668528c0 9.574276 5.58322 17.282199 17.1457296 17.282199h6.93044c15.13236 0 17.83641-11.322632 17.83641-17.282199v-1.668528c0 5.959567-2.70405 17.282198-17.83641 17.282198h-6.93044c-11.5625096 0-17.1457296-7.707923-17.1457296-17.282198z" fill="url(#a)"/><path d="m19.754367 2.7423187h8.49507c13.90774 0 16.80439 11.2468653 16.80439 17.2820843v7.123176c0 5.959564-2.70417 17.282082-17.83653 17.282082h-6.9301c-11.5625096 0-17.1459396-7.707808-17.1459396-17.282082v-7.123176c0-9.574274 5.47018-17.2820843 16.6131096-17.2820843z" style="fill:#34d22c;stroke:#000;stroke-width:.33418;stroke-linecap:square;stroke-linejoin:bevel;stroke-opacity:.078125"/><path d="m15.725472 11.629784v2.085938 2.083984h-2.222656-2.220704v.853516.85547h5.332032 5.330078v-.85547-.853516h-2.220703-2.222656v-2.083984-2.085938h-.886719zm10.525391 4.169922v.853516.85547h5.263672 5.261718v-.85547-.853516h-5.261718zm-10.457031 3.076173v1.537109 1.539063h.853515.853516v-1.539063-1.537109h-.853516zm15.699218 6.765625c-.337564.002-.66703.167927-.873047.496094-.212949.339214-.158632.933764.111329 1.220703.110377.117319.293472.2563.40625.306641.295471.131886.511405.115891.857421-.05859.56003-.282407.769615-1.013464.423829-1.480469-.241044-.325547-.588217-.486355-.925782-.484375zm-11.49414.06836-1.744141 1.742188-1.74414 1.744141-1.673829-1.673829-1.673828-1.675781-.615234.615234-.615235.615235 1.673829 1.675781 1.673828 1.673828-1.742188 1.742188-1.742187 1.742187.613281.617188.615234.615234 4.09961-4.099609 4.101562-4.101563-.613281-.617187zm6.183593 3.828125v.853516.855469h5.365235 5.365234v-.855469-.853516h-5.365234zm-7.24414 2.017578-.617188.613282-.615234.613281 1.144531 1.146484c.629456.630273 1.161641 1.146485 1.181641 1.146485s.304823-.270094.632812-.59961l.595704-.599609-1.16211-1.160156zm12.585937 1.904297c-.265251.0061-.537257.118086-.759765.347657-.199934.206277-.236113.296688-.257813.634765-.02944.458688.112072.749699.476563.978516.174752.109673.308281.135064.617187.115234.338077-.0217.426536-.05983.632813-.259765.318675-.308916.42369-.655566.310547-1.033204-.153045-.510818-.577445-.793362-1.019532-.783203z" fill="#fff"/></svg>