<svg xmlns="http://www.w3.org/2000/svg" xmlns:xlink="http://www.w3.org/1999/xlink" width="48" height="48" version="1.1" id="svg38"><defs id="defs22"><linearGradient id="linearGradient4488"><stop id="stop4490" offset="0" stop-color="#000" stop-opacity=".047"/><stop id="stop4492" offset="1" stop-color="#000" stop-opacity="0"/></linearGradient><style id="style4511"/><style id="style4511-26"/><style id="style4511-9"/><linearGradient id="linearGradient4903"><stop offset="0" id="stop3" stop-color="#eef1f2" stop-opacity="1"/><stop offset="1" id="stop5" stop-color="#f9fafb" stop-opacity="1"/></linearGradient><style id="style4552"/><style id="style4511-2"/><linearGradient gradientTransform="matrix(.3071 0 0 .30202 -63.408 2.469)" xlink:href="#linearGradient4488" id="linearGradient4160" x1="288.112" y1="141.785" x2="287.575" y2="79.008" gradientUnits="userSpaceOnUse"/><linearGradient xlink:href="#linearGradient4903" id="linearGradient1655" x1="2.778" y1="23.935" x2="45.482" y2="23.935" gradientUnits="userSpaceOnUse"/></defs><style id="style4485" type="text/css"/><path d="M19.74 3.213h8.587c14.059 0 16.987 11.181 16.987 17.18v7.082c0 5.925-2.733 17.181-18.03 17.181h-7.006c-11.689 0-17.333-7.662-17.333-17.18v-7.082c0-9.518 5.53-17.181 16.794-17.181z" id="rect4144" opacity="1" fill="url(#linearGradient1655)" fill-opacity="1" stroke="#000" stroke-width=".335" stroke-linecap="square" stroke-linejoin="bevel" stroke-miterlimit="4" stroke-dasharray="none" stroke-dashoffset="0" stroke-opacity=".078"/><path d="M2.945 26.554v1.658c0 9.519 5.644 17.181 17.333 17.181h7.006c15.297 0 18.03-11.256 18.03-17.18v-1.66c0 5.925-2.733 17.182-18.03 17.182h-7.006c-11.689 0-17.333-7.663-17.333-17.181z" id="path4147" opacity="1" fill="url(#linearGradient4160)" fill-opacity="1" stroke="none" stroke-width="1.103" stroke-linecap="square" stroke-linejoin="bevel" stroke-miterlimit="4" stroke-dasharray="none" stroke-dashoffset="0" stroke-opacity=".078"/><path id="path832" style="line-height:1000%;-inkscape-font-specification:'Ubuntu Light';text-align:center" d="M24.343 35.31q1.512 0 2.625-.07 1.154-.106 1.95-.247v-6.396q-.438-.176-1.393-.352-.954-.21-2.625-.21-.955 0-1.989.14-1.034.105-1.909.527-.875.387-1.432 1.09-.557.703-.557 1.862 0 1.02.358 1.722.398.703 1.074 1.125.716.422 1.67.633.995.175 2.228.175zm-.238-16.94q2.028 0 3.42.527 1.432.492 2.307 1.406.875.878 1.273 2.108.398 1.23.398 2.671V36.54q-.398.106-1.154.246l-1.75.246q-.994.141-2.227.211-1.194.106-2.466.106-1.631 0-3.023-.317-1.353-.316-2.387-.984-.994-.703-1.59-1.757-.557-1.09-.557-2.636 0-1.476.636-2.53.636-1.054 1.79-1.722 1.153-.703 2.744-1.02 1.591-.316 3.46-.316.557 0 1.154.07.636.036 1.193.141.597.07.995.176.437.07.596.14V25.47q0-.95-.159-1.828-.159-.913-.716-1.616-.517-.738-1.511-1.16-.955-.457-2.546-.457-2.267 0-3.38.281-1.114.281-1.631.457l-.358-2.003q.676-.281 2.068-.527 1.432-.246 3.42-.246zM21.12 9.794l6.285 5.342-1.313 1.336-6.801-4.885z" font-style="normal" font-variant="normal" font-weight="300" font-stretch="normal" font-size="37.388" font-family="Ubuntu" letter-spacing="0" word-spacing="0" text-anchor="middle" fill="#666" fill-opacity="1" stroke="none" stroke-width=".935" stroke-linecap="butt" stroke-linejoin="miter" stroke-opacity="1"/></svg>