<svg xmlns="http://www.w3.org/2000/svg" xmlns:xlink="http://www.w3.org/1999/xlink" width="48" height="48" version="1.1" id="svg38"><defs id="defs22"><linearGradient id="linearGradient4488"><stop id="stop4490" offset="0" stop-color="#000" stop-opacity=".047"/><stop id="stop4492" offset="1" stop-color="#000" stop-opacity="0"/></linearGradient><style id="style4511"/><style id="style4511-26"/><style id="style4511-9"/><style id="style4552"/><style id="style4511-2"/><linearGradient xlink:href="#linearGradient4488" id="linearGradient4546" gradientUnits="userSpaceOnUse" gradientTransform="translate(-62.497 1.994) scale(.3038)" x1="288.112" y1="141.785" x2="287.575" y2="79.008"/><style id="style4511-8"/><style id="style4511-26-4"/><style id="style4511-9-7"/><style id="style4552-3"/><style id="style4511-2-8"/><style id="style4552-7"/><style id="style4552-6"/><style id="style4552-73"/><style id="style4552-2"/></defs><style id="style4485" type="text/css"/><style type="text/css" id="style4485-0"/><style id="style4485-4" type="text/css"/><style id="style4485-5" type="text/css"/><style id="style4485-3" type="text/css"/><style id="style4485-5-1" type="text/css"/><path d="M3.141 26.22v1.67c0 9.573 5.583 17.281 17.146 17.281h6.93c15.133 0 17.837-11.322 17.837-17.282v-1.668c0 5.96-2.704 17.282-17.837 17.282h-6.93c-11.563 0-17.146-7.708-17.146-17.282z" id="path4528" opacity="1" fill="url(#linearGradient4546)" fill-opacity="1" stroke="none" stroke-width="1.1" stroke-linecap="square" stroke-linejoin="bevel" stroke-miterlimit="4" stroke-dasharray="none" stroke-dashoffset="0" stroke-opacity=".078"/><path d="M19.754 2.742h8.495c13.908 0 16.805 11.247 16.805 17.282v7.124c0 5.96-2.704 17.282-17.837 17.282h-6.93c-11.562 0-17.146-7.708-17.146-17.282v-7.124c0-9.574 5.47-17.282 16.613-17.282z" id="path4530" opacity="1" fill="#fdeb8b" fill-opacity="1" stroke="#000" stroke-width=".334" stroke-linecap="square" stroke-linejoin="bevel" stroke-miterlimit="4" stroke-dasharray="none" stroke-dashoffset="0" stroke-opacity=".078"/><path d="M12.622 4.037a14.34 14.34 0 0 0-3.989 2.43l1.045 1.076-5.217 5.705h6.213l5.389-5.709c-.958-.959-2.18-2.211-3.441-3.502z" id="path5889" opacity="1" fill="#fdce49" fill-opacity="1" stroke="none" stroke-width="1.8" stroke-linecap="round" stroke-linejoin="miter" stroke-miterlimit="4" stroke-dasharray="none" stroke-dashoffset="0" stroke-opacity="1"/><path d="M17.593 2.85c-1.896.183-3.606.606-5.125 1.242l3.35 3.45-5.216 5.706h6.213l5.387-5.71a654.746 654.746 0 0 1-4.61-4.689z" id="path5893" opacity="1" fill="#fdce49" fill-opacity="1" stroke="none" stroke-width="1.8" stroke-linecap="round" stroke-linejoin="miter" stroke-miterlimit="4" stroke-dasharray="none" stroke-dashoffset="0" stroke-opacity="1"/><path d="M19.754 2.742c-.82 0-1.599.054-2.357.135l4.531 4.666-5.215 5.705h6.213l5.387-5.709c-1.312-1.314-2.999-3.042-4.713-4.797z" id="path5895" opacity="1" fill="#fdce49" fill-opacity="1" stroke="none" stroke-width="1.8" stroke-linecap="round" stroke-linejoin="miter" stroke-miterlimit="4" stroke-dasharray="none" stroke-dashoffset="0" stroke-opacity="1"/><path d="M23.407 2.742l4.662 4.8-5.215 5.706h6.213l5.387-5.71c-1.298-1.298-2.963-3.004-4.66-4.741a23.988 23.988 0 0 0-1.545-.055z" id="path5897" opacity="1" fill="#fdce49" fill-opacity="1" stroke="none" stroke-width="1.8" stroke-linecap="round" stroke-linejoin="miter" stroke-miterlimit="4" stroke-dasharray="none" stroke-dashoffset="0" stroke-opacity="1"/><path d="M29.598 2.78l4.625 4.763-5.215 5.705h6.213l5.381-5.703c-.052-.057-.103-.114-.156-.17-.093-.093-.227-.232-.324-.33-2.345-2.31-5.72-4-10.524-4.266z" id="path5899" opacity="1" fill="#fdce49" fill-opacity="1" stroke="none" stroke-width="1.8" stroke-linecap="round" stroke-linejoin="miter" stroke-miterlimit="4" stroke-dasharray="none" stroke-dashoffset="0" stroke-opacity="1"/><path d="M38.682 5.81l1.682 1.733-5.217 5.705h6.213l1.78-1.885c-.981-2.061-2.405-4.023-4.458-5.552z" id="path5901" opacity="1" fill="#fdce49" fill-opacity="1" stroke="none" stroke-width="1.8" stroke-linecap="round" stroke-linejoin="miter" stroke-miterlimit="4" stroke-dasharray="none" stroke-dashoffset="0" stroke-opacity="1"/><path d="M43.069 11.22l-1.854 2.028h2.705a18.183 18.183 0 0 0-.851-2.027z" id="path5903" opacity="1" fill="#fdce49" fill-opacity="1" stroke="none" stroke-width="1.8" stroke-linecap="round" stroke-linejoin="miter" stroke-miterlimit="4" stroke-dasharray="none" stroke-dashoffset="0" stroke-opacity="1"/><path d="M8.875 6.27c-2.19 1.803-3.76 4.195-4.69 6.978h.552l5.387-5.709c-.348-.348-.841-.856-1.249-1.27z" id="path5905" opacity="1" fill="#fdce49" fill-opacity="1" stroke="none" stroke-width="1.8" stroke-linecap="round" stroke-linejoin="miter" stroke-miterlimit="4" stroke-dasharray="none" stroke-dashoffset="0" stroke-opacity="1"/><path style="marker:none" d="M4.713 14.356a.34.34 0 0 1-.345-.335.34.34 0 0 1 .345-.334c.19 0 .344.15.344.334a.34.34 0 0 1-.344.335zm1.379 0a.34.34 0 0 1-.345-.335.34.34 0 0 1 .345-.334c.19 0 .344.15.344.334a.34.34 0 0 1-.344.335zm1.379 0a.34.34 0 0 1-.345-.335.34.34 0 0 1 .345-.334c.19 0 .345.15.345.334a.34.34 0 0 1-.345.335zm1.379 0a.34.34 0 0 1-.345-.335.34.34 0 0 1 .345-.334c.19 0 .345.15.345.334a.34.34 0 0 1-.345.335zm1.379 0a.34.34 0 0 1-.345-.335.34.34 0 0 1 .345-.334c.19 0 .345.15.345.334a.34.34 0 0 1-.345.335zm1.379 0a.34.34 0 0 1-.345-.335.34.34 0 0 1 .345-.334c.19 0 .345.15.345.334a.34.34 0 0 1-.345.335zm1.38 0a.34.34 0 0 1-.346-.335.34.34 0 0 1 .345-.334c.19 0 .345.15.345.334a.34.34 0 0 1-.345.335zm1.378 0a.34.34 0 0 1-.345-.335.34.34 0 0 1 .345-.334c.19 0 .345.15.345.334a.34.34 0 0 1-.345.335zm1.38 0a.34.34 0 0 1-.346-.335.34.34 0 0 1 .345-.334c.19 0 .345.15.345.334a.34.34 0 0 1-.345.335zm1.378 0a.34.34 0 0 1-.344-.335.34.34 0 0 1 .344-.334c.19 0 .345.15.345.334a.34.34 0 0 1-.345.335zm1.38 0a.34.34 0 0 1-.345-.335.34.34 0 0 1 .344-.334c.19 0 .345.15.345.334a.34.34 0 0 1-.345.335zm1.378 0a.34.34 0 0 1-.344-.335.34.34 0 0 1 .344-.334c.19 0 .345.15.345.334a.34.34 0 0 1-.345.335zm1.38 0a.34.34 0 0 1-.345-.335.34.34 0 0 1 .345-.334c.19 0 .344.15.344.334a.34.34 0 0 1-.344.335zm1.379 0a.34.34 0 0 1-.345-.335.34.34 0 0 1 .345-.334c.19 0 .344.15.344.334a.34.34 0 0 1-.344.335zm1.379 0a.34.34 0 0 1-.345-.335.34.34 0 0 1 .345-.334c.19 0 .345.15.345.334a.34.34 0 0 1-.345.335zm1.379 0a.34.34 0 0 1-.345-.335.34.34 0 0 1 .345-.334c.19 0 .345.15.345.334a.34.34 0 0 1-.345.335zm1.379 0a.34.34 0 0 1-.345-.335.34.34 0 0 1 .345-.334c.19 0 .345.15.345.334a.34.34 0 0 1-.345.335zm1.379 0a.34.34 0 0 1-.345-.335.34.34 0 0 1 .345-.334c.19 0 .345.15.345.334a.34.34 0 0 1-.345.335zm1.38 0a.34.34 0 0 1-.346-.335.34.34 0 0 1 .345-.334c.19 0 .345.15.345.334a.34.34 0 0 1-.345.335zm1.378 0a.34.34 0 0 1-.345-.335.34.34 0 0 1 .345-.334c.19 0 .345.15.345.334a.34.34 0 0 1-.345.335zm1.38 0a.34.34 0 0 1-.346-.335.34.34 0 0 1 .345-.334c.19 0 .345.15.345.334a.34.34 0 0 1-.345.335zm1.378 0a.34.34 0 0 1-.344-.335.34.34 0 0 1 .344-.334c.19 0 .345.15.345.334a.34.34 0 0 1-.345.335zm1.38 0a.34.34 0 0 1-.345-.335.34.34 0 0 1 .344-.334c.19 0 .345.15.345.334a.34.34 0 0 1-.345.335zm1.378 0a.34.34 0 0 1-.344-.335.34.34 0 0 1 .344-.334c.19 0 .345.15.345.334a.34.34 0 0 1-.345.335zm1.38 0a.34.34 0 0 1-.345-.335.34.34 0 0 1 .345-.334c.19 0 .344.15.344.334a.34.34 0 0 1-.344.335zm1.379 0a.34.34 0 0 1-.345-.335.34.34 0 0 1 .345-.334c.19 0 .344.15.344.334a.34.34 0 0 1-.344.335zm1.379 0a.34.34 0 0 1-.345-.335.34.34 0 0 1 .345-.334c.19 0 .344.15.344.334a.34.34 0 0 1-.344.335zm1.379 0a.34.34 0 0 1-.345-.335.34.34 0 0 1 .345-.334c.19 0 .345.15.345.334a.34.34 0 0 1-.345.335zm1.379 0a.34.34 0 0 1-.345-.335.34.34 0 0 1 .345-.334c.19 0 .345.15.345.334a.34.34 0 0 1-.345.335z" id="path4568" color="#000" display="inline" overflow="visible" visibility="visible" opacity=".4" fill="#4d4d4d" fill-opacity="1" stroke="none" stroke-width="1.018"/><path d="M3.196 18.926l41.642.002" id="path976" opacity=".566" fill="#000" fill-opacity=".959" stroke="#ccc" stroke-width=".597" stroke-linecap="butt" stroke-linejoin="miter" stroke-opacity=".957"/><path d="M3.22 23.932l41.643.002" id="path976-6" opacity=".566" fill="#000" fill-opacity=".959" stroke="#ccc" stroke-width=".597" stroke-linecap="butt" stroke-linejoin="miter" stroke-opacity=".957"/><path d="M3.26 28.761l41.643.002" id="path976-2" opacity=".566" fill="#000" fill-opacity=".959" stroke="#ccc" stroke-width=".597" stroke-linecap="butt" stroke-linejoin="miter" stroke-opacity=".957"/><path d="M4.158 33.626l39.833.002" id="path976-9" opacity=".566" fill="#000" fill-opacity=".959" stroke="#ccc" stroke-width=".584" stroke-linecap="butt" stroke-linejoin="miter" stroke-opacity=".957"/><path d="M6.643 38.514l34.796.002" id="path976-1" opacity=".566" fill="#ccc" fill-opacity=".959" stroke="#ccc" stroke-width=".546" stroke-linecap="butt" stroke-linejoin="miter" stroke-opacity=".957"/><path id="polygon1691" transform="matrix(.70574 0 0 .74006 6.258 15.69)" fill="#ed9920" d="M19.76 26.889l.594-2.918L39.575 4.143l1.823 3.605-18.295 18.889z"/><path id="polygon1693" transform="matrix(.70574 0 0 .74006 6.258 15.69)" fill="#f9c975" d="M19.824 23.458L36.567 6.383l3.609-.338-20.304 20.611z"/><path id="path1695" d="M35.58 21.309a.754.754 0 0 1-1.102.018l-1.12-1.138a.846.846 0 0 1-.018-1.156l1.087-1.174a.755.755 0 0 1 1.102-.017l1.12 1.138a.846.846 0 0 1 .017 1.156z" fill="#fc3a3a" stroke-width=".723"/><path id="path1697" d="M35.417 20.823a.542.542 0 0 1-.792.014l-.804-.818a.608.608 0 0 1-.013-.83l.78-.843a.54.54 0 0 1 .791-.013l.805.818a.609.609 0 0 1 .012.83z" fill="#f55" stroke-width=".723"/><path id="rect1699" transform="matrix(.7011 .71307 -.679 .73413 0 0)" fill="#727171" stroke-width=".723" d="M37.442-11.241h3.192v3.996h-3.192z"/><path id="rect1701" transform="matrix(.70114 .71302 -.67896 .73418 0 0)" fill="#c9caca" stroke-width=".723" d="M37.879-10.888h2.324v3.294h-2.324z"/><path id="rect1703" transform="matrix(.7012 .71297 -.6789 .73423 0 0)" fill="#595757" stroke-width=".723" d="M37.856-9.901h2.361v.399h-2.361z"/><path id="rect1705" transform="matrix(.7012 .71297 -.6789 .73423 0 0)" fill="#595757" stroke-width=".723" d="M37.877-8.906h2.34v.399h-2.34z"/><path id="path1707" d="M17.868 38.124l2.406-5.106s.802.648.125 1.379c-.675.731.535-.707 1.047-.187.514.522-.92 1.9-.243 1.17.675-.732 1.404.008 1.404.008z" fill="#c9a063" stroke-width=".723"/><path id="path1709" d="M18.617 36.533l-.757 1.437s-.208.394.157.158c.365-.234 1.332-.86 1.332-.86z" fill="#231815" stroke-width=".723"/></svg>