<svg height="48" width="48" xmlns="http://www.w3.org/2000/svg" xmlns:xlink="http://www.w3.org/1999/xlink"><linearGradient id="a" gradientUnits="userSpaceOnUse" x1="24.80428975612" x2="24.64142243138" y1="45.29005345782" y2="26.21847261771"><stop offset="0" stop-opacity=".046875"/><stop offset="1" stop-opacity="0"/></linearGradient><path d="m2.9145667 26.442743v1.668528c0 9.574276 5.58322 17.282199 17.1457303 17.282199h6.93044c15.13236 0 17.83641-11.322632 17.83641-17.282199v-1.668528c0 5.959567-2.70405 17.282198-17.83641 17.282198h-6.93044c-11.5625103 0-17.1457303-7.707923-17.1457303-17.282198z" fill="url(#a)"/><path d="m19.527707 2.9645209h8.49507c13.90774 0 16.80439 11.2468651 16.80439 17.2820841v7.123176c0 5.959564-2.70417 17.282082-17.83653 17.282082h-6.9301c-11.5625103 0-17.1459403-7.707808-17.1459403-17.282082v-7.123176c0-9.574274 5.47018-17.2820841 16.6131103-17.2820841z" style="fill:#e02828;stroke:#000;stroke-width:.33418;stroke-linecap:square;stroke-linejoin:bevel;stroke-opacity:.078125"/><g fill="#fff"><path d="m24.156016 12.31789c-8.282297-.0019-8.730046.0029-8.987405.08757-.421546.138733-.703304.371534-.881625.728386l-.15324.306479v.895556c0 .492547-.01418 1.132336-.03184 1.420949l-.03184.523403h-1.050786-1.052776v.517433.517432h1.59409 1.5921l.03184-1.042825c.01785-.573167.03383-1.456227.03383-1.962264v-.919437l8.696847-.03582 8.698837-.03582.16717.1612.165181.1612v6.183319c-.000173 3.912584-.01903 6.245401-.04975 6.35447-.04652.165162-.571947.830992-1.345325 1.699567-.355981.399798-1.570751 1.754714-1.803053 2.012016l-.125378.139309.368173.336331c.202464.184824.385087.325369.405986.31245.0637-.03937 1.841176-2.018834 2.453824-2.732442.660892-.769801.938848-1.160731 1.080638-1.520456.09897-.251095.100465-.321774.08757-6.541541l-.01393-6.286805-.137318-.292549c-.189346-.404316-.419697-.670107-.730376-.839832l-.264687-.14528zm-10.267055 7.558495-.01194 1.144322-.01393 1.146312-.923418.01194-.923418.01393v.541315.539324h1.42891 1.42692v-1.697577-1.699567h-.491561zm-.0995 5.811166v1.329404 1.329403h-.911478-.911477v.541314.541314h1.42891 1.42891v-1.870717-1.870718h-.517433zm-.09752 6.075852v.262696c-.000005.41026.137955.985415.340311 1.416969.42779.912324 1.207468 1.597766 2.211029 1.940372l.378124.129358 5.860918.02388c3.2232.01397 7.072605.0315 8.555548.03781l2.696619.01194v-.543304-.541314l-7.793329-.004c-4.286315-.0022-8.15037-.01863-8.58739-.03781-.792259-.03479-.797124-.03657-1.178154-.224884-.819002-.404773-1.450802-1.343582-1.450802-2.155305 0-.214518.003-.21431-.626889-.276628l-.405985-.0398z"/><path d="m27.382105 17.921028c.156407.0096.324738 0 .509083.127808 1.646173.708304.542135 2.651659-1.556213 4.12993-.01261-.278811-.128465-.885699-.125739-1.152833 1.790312-1.227373 2.837447-2.422036 1.696605-2.895677-1.202855-.499236-1.576319.863704-1.597446 2.842491-.112108.11621-.888342.631842-1.006241.713262.04362-1.80427 1.002834-3.646052 1.924568-3.751705.04941-.0096.103248-.0096.155383-.0096m-1.675819 3.139376.374487-.145883.310424.209228.06271.658316-.392206.300964-.162881.218346c-1.207625.80116-2.236357 1.418286-3.590166 1.927999l-.844042.125409h-.555427c-.512151-.301845-.206837-.418136-2.067344-.650157l2.096649.162518c1.617209-.626963 3.267813-1.527618 4.769168-2.509934m-3.690347 2.626546c-.242615 0-2.134473-.16428-2.887192-.233782-.744886-.116212-1.659806-.151003-1.486704.72006-.196954-.464524.252158-1.253047.890726-1.392053.987501-.220825 2.554279.384304 3.117543.570098m-.907763.241299c.293728.116132.964669.199952 1.281569.304565-.449112.232342-2.704892 1.065175-3.636169.890737-.148909 0-.777596-.452206-.79293-.777646.04839.592332 2.805754.151003 3.14753-.429652m-.613355.01041c.241593-.116131 1.373232-.110373 1.622662-.20307 1.416848.495877 3.323017 1.659426 4.687048 2.444271l.395273.11613c.07633.542186.410265.728858.714899 1.079891l-.46172.464363-.361199-.592172c-1.597105-.963599-4.754175-2.52089-6.5956-3.268464m6.5956 3.268464c.195253.116212.381644.232423.558494.348234.409585 1.162271.886978 1.945035 1.342905 1.911282-.704336.336637-2.221364-1.322469-2.732835-2.883039m2.732835 2.883039c1.074395-.63856-1.199788-1.802589-1.710576-2.140265-.114833-.325119.199339-.863784.09678-1.247129 1.603925.998791 2.551897 2.443151 2.013846 3.12842-.129487.162599-.266805.244019-.402771.255536m-1.560644-2.432993c-.07462-.299126-1.06519-.979916-1.244086-1.084529-.239549-1.88681-.251135-2.073163-.454564-3.539757.121649-.116131.870963-.700305.986819-.781325.143799 1.567449.414354 3.691639.79702 5.110564" stroke-width=".426047"/></g></svg>