<svg xmlns="http://www.w3.org/2000/svg" xmlns:xlink="http://www.w3.org/1999/xlink" width="48" height="48" version="1.1" id="svg38"><defs id="defs22"><style id="style4511"/><style id="style4511-26"/><style id="style4511-9"/><style id="style4552"/><style id="style4511-2"/><style id="style4511-8"/><style id="style4511-26-4"/><style id="style4511-9-8"/><style id="style4552-5"/><style id="style4511-2-5"/><style id="style4511-87"/><linearGradient gradientTransform="matrix(-1.08798 0 0 1.08934 -14.257 -100.392)" x2="0" gradientUnits="userSpaceOnUse" y2="1038.36" y1="1050.34" id="d-2-36"><stop id="stop17-9-1" stop-color="#c61423"/><stop id="stop19-1-0" stop-color="#dc2b41" offset="1"/></linearGradient><style id="style4511-26-7"/><style id="style4511-9-1"/><style id="style4552-53"/><style id="style4511-2-9"/><linearGradient xlink:href="#d-2-36" id="linearGradient1544" x1="2.748" y1="23.808" x2="44.994" y2="23.808" gradientUnits="userSpaceOnUse"/></defs><style id="style4485" type="text/css"/><style type="text/css" id="style4485-4"/><style type="text/css" id="style4485-3"/><path id="path4475" d="M19.528 2.965h8.495c13.908 0 16.804 11.246 16.804 17.282v7.123c0 5.96-2.704 17.282-17.836 17.282h-6.93c-11.563 0-17.146-7.708-17.146-17.282v-7.123c0-9.575 5.47-17.282 16.613-17.282z" opacity="1" fill="url(#linearGradient1544)" fill-opacity="1" stroke="#000" stroke-width=".334" stroke-linecap="square" stroke-linejoin="bevel" stroke-miterlimit="4" stroke-dasharray="none" stroke-dashoffset="0" stroke-opacity=".078"/><path id="path641" d="M25.813 10.418c-2.156.164-3.715 1.547-4.602 4.141-1.29 3.742-3.465 5.97-7.281 7.422-2.258.855-3.051 1.43-3.754 2.781-.566 1.086-.684 2.68-.316 4.01.246.887 1.523 2.352 2.523 2.871.94.496 2.715.56 5.328.16 1.53-.234 1.902-.246 3.313.031 1.98.391 3.852 1.336 5.453 2.72 1.48 1.28 2.07 1.585 3.215 1.77 1.109.171 1.965.062 3.09-.41 1-.423 2.105-1.552 2.555-2.595.168-.383.313-1.234.316-1.926.004-1.492-.453-2.512-1.641-3.887-1.16-1.34-1.984-2.676-2.461-3.98-.563-1.547-.684-4.656-.25-6.602.484-2.18.078-3.69-1.355-5.05-1.012-.957-1.828-1.344-3.188-1.453a5.96 5.96 0 0 0-.945 0m-2.082 9.855c1.105-.027 2.25.387 3.156 1.262 2.242 2.176 1.71 5.676-1.074 7.078-.88.441-2.313.54-3.31.22-.94-.302-2.07-1.25-2.585-2.212-.223-.406-.313-1.07-.316-1.96-.004-1.118.082-1.439.535-2.212.813-1.387 2.172-2.145 3.594-2.176m0 0" fill="#f9f9f9" fill-opacity="1" fill-rule="nonzero" stroke="none"/></svg>