<svg xmlns="http://www.w3.org/2000/svg" xmlns:xlink="http://www.w3.org/1999/xlink" width="48" height="48" version="1.1" id="svg38"><defs id="defs22"><linearGradient id="linearGradient218-2" spreadMethod="pad" gradientTransform="matrix(0 -74.11765 80.7574 0 205.597 44.683)" gradientUnits="userSpaceOnUse" y2="0" x2="1" y1="0" x1="0"><stop id="stop1486" offset="0" stop-opacity="1" stop-color="#bf2026"/><stop id="stop1488" offset="1" stop-opacity="1" stop-color="#e42f28"/></linearGradient><linearGradient id="linearGradient4488"><stop id="stop4490" offset="0" stop-color="#000" stop-opacity=".047"/><stop id="stop4492" offset="1" stop-color="#000" stop-opacity="0"/></linearGradient><style id="style4511"/><style id="style4511-26"/><style id="style4511-9"/><style id="style4552"/><style id="style4511-2"/><linearGradient xlink:href="#linearGradient4488" id="linearGradient4546" gradientUnits="userSpaceOnUse" gradientTransform="translate(-62.497 1.994) scale(.3038)" x1="288.112" y1="141.785" x2="287.575" y2="79.008"/><linearGradient x1="0" y1="0" x2="1" y2="0" gradientUnits="userSpaceOnUse" gradientTransform="matrix(0 -74.11765 80.7574 0 205.597 44.683)" spreadMethod="pad" id="linearGradient218-2-1"><stop offset="0" id="stop220-0" stop-opacity="1" stop-color="#bf2026"/><stop offset="1" id="stop222-6" stop-opacity="1" stop-color="#e42f28"/></linearGradient><clipPath clipPathUnits="userSpaceOnUse" id="clipPath230"><path d="M0 512h512V0H0v512z" id="path232"/></clipPath><linearGradient xlink:href="#linearGradient218-2" id="linearGradient1497" x1="2.936" y1="24.297" x2="45.259" y2="24.297" gradientUnits="userSpaceOnUse" gradientTransform="rotate(-90 24.098 24.297)"/></defs><style id="style4485" type="text/css"/><path d="M3.141 26.22v1.67c0 9.573 5.583 17.281 17.146 17.281h6.93c15.133 0 17.837-11.322 17.837-17.282v-1.668c0 5.96-2.704 17.282-17.837 17.282h-6.93c-11.563 0-17.146-7.708-17.146-17.282z" id="path4528" opacity="1" fill="url(#linearGradient4546)" fill-opacity="1" stroke="none" stroke-width="1.1" stroke-linecap="square" stroke-linejoin="bevel" stroke-miterlimit="4" stroke-dasharray="none" stroke-dashoffset="0" stroke-opacity=".078"/><path d="M19.755 3.304h8.494c13.907 0 16.803 11.327 16.803 17.406v7.174c0 6.003-2.704 17.407-17.835 17.407h-6.93c-11.561 0-17.144-7.763-17.144-17.407V20.71c0-9.643 5.47-17.406 16.612-17.406z" id="path4530" opacity="1" fill="url(#linearGradient1497)" fill-opacity="1" stroke="#000" stroke-width=".335" stroke-linecap="square" stroke-linejoin="bevel" stroke-miterlimit="4" stroke-dasharray="none" stroke-dashoffset="0" stroke-opacity=".078"/><path id="path224" d="M174.474-20.94c-12.34 11.326-12.34 45.802 0 57.128 12.341 11.326 49.906 11.326 62.246 0 12.341-11.326 12.341-45.802 0-57.128-6.17-5.663-18.646-8.495-31.123-8.495-12.476 0-24.952 2.832-31.123 8.495" fill="url(#linearGradient218-2-1)" stroke="none" stroke-width="1.25"/><path d="M24.098 14.072L11.222 34.525h16.723l-2.258-3.587h-7.691l6.102-9.692 6.102 9.692 2.261 3.587h4.513z" id="path236" fill="#fff" fill-opacity="1" fill-rule="nonzero" stroke="none" stroke-width="1.25"/></svg>