<svg xmlns="http://www.w3.org/2000/svg" xmlns:xlink="http://www.w3.org/1999/xlink" width="48" height="48" version="1.1" id="svg38"><defs id="defs22"><linearGradient id="linearGradient4488"><stop id="stop4490" offset="0" stop-color="#000" stop-opacity=".047"/><stop id="stop4492" offset="1" stop-color="#000" stop-opacity="0"/></linearGradient><style id="style4511"/><style id="style4511-26"/><style id="style4511-9"/><style id="style4552"/><style id="style4511-2"/><linearGradient gradientTransform="translate(-63.205 2.216) scale(.3038)" xlink:href="#linearGradient4488" id="linearGradient4160" x1="288.112" y1="141.785" x2="287.575" y2="79.008" gradientUnits="userSpaceOnUse"/></defs><style id="style4485" type="text/css"/><path d="M2.433 26.443v1.668c0 9.575 5.583 17.282 17.146 17.282h6.93c15.133 0 17.837-11.322 17.837-17.282v-1.668c0 5.96-2.704 17.282-17.837 17.282h-6.93c-11.563 0-17.146-7.708-17.146-17.282z" id="path4147" opacity="1" fill="url(#linearGradient4160)" fill-opacity="1" stroke="none" stroke-width="1.1" stroke-linecap="square" stroke-linejoin="bevel" stroke-miterlimit="4" stroke-dasharray="none" stroke-dashoffset="0" stroke-opacity=".078"/><path d="M19.046 2.965h8.495c13.908 0 16.805 11.246 16.805 17.282v7.123c0 5.96-2.704 17.282-17.837 17.282h-6.93c-11.562 0-17.146-7.708-17.146-17.282v-7.123c0-9.575 5.47-17.282 16.613-17.282z" id="rect4144" opacity="1" fill="#007ee5" fill-opacity="1" stroke="#000" stroke-width=".334" stroke-linecap="square" stroke-linejoin="bevel" stroke-miterlimit="4" stroke-dasharray="none" stroke-dashoffset="0" stroke-opacity=".078"/><path d="M23.39 11.563a.92.92 0 1 0 0 1.84.92.92 0 0 0 0-1.84zm-3.066.06c-.49-.003-.974.11-1.21.23-1.074.544-2.19 1.507-3.348 2.24-1.319.834-1.394.754-2.114 1.115-.054.03-.098.038-.053.113.218.312.822.242 1.205.176 7.674-4.32 1.905-.362 5.616-.558.116-.021.13.037.081.15-.5.298.483 1.568 1.568 1.431.2-.012.405-.064.609-.164l.047-.026-.033-1.456-.137.043c-1.045.277-1.447-.481-1.38-.89.035-.211 1.257-.732.387-1.929-.256-.35-.75-.472-1.238-.475zm6.132 0c-.49.003-.983.124-1.239.475-.87 1.197.352 1.718.387 1.93.067.408-.335 1.166-1.38.89l-.137-.044-.032 1.456.046.026c.204.1.41.152.61.164 1.084.137 2.068-1.133 1.567-1.431-.049-.113-.035-.171.081-.15 1.18.163 1.925-.817 1.795-1.84-.008-.068.039-.082.077-.084.044-.003.079.05.1.085.367.59.988.95 1.554 1.329.65.435 1.655.993 2.09 1.068.383.066.987.136 1.205-.176.045-.075.001-.083-.053-.113-.72-.361-.795-.281-2.114-1.116-1.157-.732-2.274-1.695-3.348-2.239-.236-.119-.72-.233-1.21-.23zm-3.67 1.978l.16 6.497c-1.046-.3-2.2-.731-2.023-2.054.017-.043.067-.06.094-.018.08.125.315.34.763.296.334-.033.97-.491.727-.71-.257-.232-.701-.23-.996-.204-.85.073-1.382.831-1.323 1.493.078.875.876 1.49 1.76 1.947-1.764 1.135-1.172 2.68-.638 3.295.262.3.618.565.997.814-.883.562-1.562 1.289-1.058 2.623.219.578.614 1.01 1.05 1.35-.074.07-.146.145-.214.225-.62.735-.458 1.608 0 2.082a4.2 4.2 0 0 0 .707.595c-.135.125-.257.24-.35.335-.535.546-.493 1.356.089 1.935-.09-.596-.31-1.045.359-1.591.119-.097.235-.175.353-.246l.093 3.788h.107l.093-3.788c.118.07.235.148.353.246.67.546.45.995.36 1.591.582-.58.624-1.39.09-1.935-.095-.095-.217-.21-.352-.336a4.16 4.16 0 0 0 .707-.594c.459-.473.62-1.347 0-2.082a2.703 2.703 0 0 0-.214-.225c.437-.34.832-.772 1.05-1.35.504-1.334-.174-2.061-1.057-2.623.379-.25.735-.513.997-.814.534-.614 1.125-2.16-.638-3.295.884-.457 1.682-1.072 1.76-1.947.059-.662-.474-1.42-1.323-1.493-.295-.026-.739-.028-.996.203-.243.22.393.678.727.711.447.044.682-.17.762-.296.028-.042.077-.025.095.018.177 1.323-.978 1.754-2.023 2.054l.159-6.497zm1.01 8.056c1.17.613 1.1 1.684.17 2.332a4.951 4.951 0 0 1-.231.15zm-.812 0l.06 2.483a5.44 5.44 0 0 1-.231-.151c-.929-.648-.999-1.72.17-2.331zm-.404 3.476l.496.312c-.163-.103-.33-.206-.496-.312zm1.112.733c.14.106.268.214.377.326.654.67.115 1.422-.155 1.624-.09.067-.18.13-.274.191zm-.605 0l.052 2.14a5.341 5.341 0 0 1-.274-.19c-.27-.202-.81-.954-.155-1.624.11-.112.238-.22.377-.325zm.51 3.866c.306.213.568.57.175 1.084a4.215 4.215 0 0 1-.207.249zm-.416 0l.033 1.332a4.2 4.2 0 0 1-.207-.247c-.392-.514-.13-.872.174-1.085zm-.08 2.287l.138.077-.139-.077z" id="svg_1" fill="#fff" fill-opacity="1" stroke="none" stroke-width=".05" stroke-linejoin="bevel"/></svg>