<svg xmlns:osb="http://www.openswatchbook.org/uri/2009/osb" xmlns="http://www.w3.org/2000/svg" xmlns:xlink="http://www.w3.org/1999/xlink" width="48" height="48" version="1.1" id="svg38"><defs id="defs22"><linearGradient id="linearGradient4488"><stop id="stop4490" offset="0" stop-color="#000" stop-opacity=".047"/><stop id="stop4492" offset="1" stop-color="#000" stop-opacity="0"/></linearGradient><style id="style4511"/><style id="style4511-26"/><style id="style4511-9"/><style id="style4552"/><style id="style4511-2"/><linearGradient xlink:href="#linearGradient4488" id="linearGradient4540" gradientUnits="userSpaceOnUse" gradientTransform="matrix(.30902 0 0 .30792 -64.017 1.984)" x1="288.112" y1="141.785" x2="287.575" y2="79.008"/><linearGradient osb:paint="solid" id="linearGradient5293"><stop id="stop5295" offset="0" stop-color="#9a89c0" stop-opacity="1"/></linearGradient><radialGradient gradientTransform="matrix(0 -.14105 -.14597 0 -93.228 -33.725)" gradientUnits="userSpaceOnUse" r="96" fy="-256.2" fx="-256" cy="-256.2" cx="-256" id="radialGradient4404" xlink:href="#linearGradient4398"/><linearGradient id="linearGradient4398"><stop offset="0" id="stop4402" stop-color="#000" stop-opacity="0"/><stop id="stop4408" offset=".899" stop-color="#000" stop-opacity="0"/><stop offset=".949" id="stop4410" stop-color="#000" stop-opacity=".262"/><stop offset="1" id="stop4400" stop-color="#000" stop-opacity="1"/></linearGradient><filter height="1.12" y="-.06" width="1.12" x="-.06" id="filter1013" color-interpolation-filters="sRGB"><feGaussianBlur id="feGaussianBlur1015" stdDeviation="3.4"/></filter><filter height="1.024" y="-.012" width="1.024" x="-.012" id="filter4323" color-interpolation-filters="sRGB"><feGaussianBlur id="feGaussianBlur4325" stdDeviation="1.76"/></filter></defs><style id="style4485" type="text/css"/><g id="g606"><path d="M2.75 26.539v1.691c0 9.704 5.68 17.517 17.44 17.517h7.05c15.392 0 18.143-11.477 18.143-17.517v-1.691c0 6.04-2.75 17.516-18.143 17.516h-7.05c-11.76 0-17.44-7.812-17.44-17.516z" id="path4516" opacity="1" fill="url(#linearGradient4540)" fill-opacity="1" stroke="none" stroke-width="1.117" stroke-linecap="square" stroke-linejoin="bevel" stroke-miterlimit="4" stroke-dasharray="none" stroke-dashoffset="0" stroke-opacity=".078"/><path d="M19.649 2.742h8.64c14.148 0 17.094 11.4 17.094 17.517v7.22c0 6.04-2.75 17.516-18.143 17.516h-7.05c-11.76 0-17.44-7.812-17.44-17.517v-7.22c0-9.703 5.564-17.516 16.899-17.516z" id="path4518" opacity="1" fill="#c8c4b7" fill-opacity="1" stroke="#000" stroke-width=".339" stroke-linecap="square" stroke-linejoin="bevel" stroke-miterlimit="4" stroke-dasharray="none" stroke-dashoffset="0" stroke-opacity=".078"/><g transform="matrix(1 0 0 1.02323 79.729 21.768)" id="g1573" stroke="none"><circle r="176" cy="-256" cx="-258" transform="matrix(0 -.08463 -.08758 0 -78.252 -19.28)" id="circle4305" style="marker:none" color="#000" display="inline" overflow="visible" visibility="visible" opacity=".1" fill="#000" fill-opacity=".996" stroke-width="4.96" filter="url(#filter4323)" enable-background="accumulate"/><ellipse style="marker:none" id="path4389-5" transform="matrix(0 -1 -1 0 0 0)" cx="-2.385" cy="55.831" rx="14.895" ry="15.414" color="#000" display="inline" overflow="visible" visibility="visible" fill="#f7f7f7" fill-opacity="1" stroke-width=".427" enable-background="accumulate"/><ellipse style="marker:none" id="circle4191" transform="matrix(0 -1 -1 0 0 0)" cx="-2.555" cy="55.831" rx="13.541" ry="14.013" color="#000" display="inline" overflow="visible" visibility="visible" opacity="1" fill="#fff" fill-opacity="1" stroke-width=".344" enable-background="accumulate"/><ellipse cy="55.831" cx="-2.385" transform="matrix(0 -1 -1 0 0 0)" id="circle4371" style="marker:none" rx="13.541" ry="14.013" color="#000" display="inline" overflow="visible" visibility="visible" fill="#aea795" fill-opacity="1" stroke-width=".344" enable-background="accumulate"/><circle style="marker:none" id="circle1011" transform="matrix(0 -.16926 -.17516 0 -82.455 -24.02)" cx="-157" cy="-152" r="68" color="#000" display="inline" overflow="visible" visibility="visible" opacity=".1" fill="#000" fill-opacity="1" stroke-width="2" filter="url(#filter1013)" enable-background="accumulate"/><path style="marker:none" d="M-55.83-11.156A14.013 13.541 0 0 0-69.845 2.385 14.013 13.541 0 0 0-55.83 15.927 14.013 13.541 0 0 0-41.817 2.385a14.013 13.541 0 0 0-14.014-13.54zm0 4.845a9 8.697 0 0 1 8.999 8.696 9 8.697 0 0 1-9 8.697 9 8.697 0 0 1-9-8.697 9 8.697 0 0 1 9-8.696z" id="circle4396" color="#000" display="inline" overflow="visible" visibility="visible" opacity=".05" fill="url(#radialGradient4404)" fill-opacity="1" stroke-width=".344" enable-background="accumulate"/><ellipse cy="55.831" cx="-2.385" transform="matrix(0 -1 -1 0 0 0)" id="circle4269" style="marker:none" rx="11.51" ry="11.911" color="#000" display="inline" overflow="visible" visibility="visible" opacity="1" fill="#f7f7f7" fill-opacity="1" stroke-width=".344" enable-background="accumulate"/><ellipse style="marker:none" id="circle4201" transform="matrix(0 -1 -1 0 0 0)" cx="-2.385" cy="55.831" rx="10.156" ry="10.51" color="#000" display="inline" overflow="visible" visibility="visible" opacity=".1" fill="#000" fill-opacity="1" stroke-width=".344" enable-background="accumulate"/><ellipse cy="55.831" cx="-2.385" transform="matrix(0 -1 -1 0 0 0)" id="circle1084" style="marker:none" rx="5.416" ry="5.605" color="#000" display="inline" overflow="visible" visibility="visible" opacity=".1" fill="#000" fill-opacity="1" stroke-width=".344" enable-background="accumulate"/><path style="marker:none" d="M-55.83-12.51A15.414 14.895 0 0 0-71.246 2.385a15.414 14.895 0 0 0 .007.14A15.414 14.895 0 0 1-55.83-12.17 15.414 14.895 0 0 1-40.423 2.583a15.414 14.895 0 0 0 .007-.198A15.414 14.895 0 0 0-55.83-12.51z" id="circle1021" color="#000" display="inline" overflow="visible" visibility="visible" opacity="1" fill="#fff" fill-opacity="1" stroke-width=".427" enable-background="accumulate"/><path d="M-57.232-4.385h2.803v7.194l-.934.846.934.846v4.655h-2.803V1.962l.934-.846-.934-.846z" id="rect3030" display="inline" fill="#3b3b3b" fill-opacity="1" stroke-width=".172" enable-background="new"/><path style="marker:none" d="M-55.83-9.125a11.911 11.51 0 0 0-11.912 11.51 11.911 11.51 0 0 0 .008.14A11.911 11.51 0 0 1-55.83-8.785a11.911 11.51 0 0 1 11.903 11.37 11.911 11.51 0 0 0 .008-.199A11.911 11.51 0 0 0-55.83-9.125z" id="circle1017" color="#000" display="inline" overflow="visible" visibility="visible" opacity="1" fill="#fff" fill-opacity="1" stroke-width=".344" enable-background="accumulate"/></g></g></svg>