<svg xmlns:osb="http://www.openswatchbook.org/uri/2009/osb" xmlns="http://www.w3.org/2000/svg" xmlns:xlink="http://www.w3.org/1999/xlink" width="48" height="48" version="1.1" id="svg38"><defs id="defs22"><linearGradient id="linearGradient4488"><stop id="stop4490" offset="0" stop-color="#000" stop-opacity=".047"/><stop id="stop4492" offset="1" stop-color="#000" stop-opacity="0"/></linearGradient><style id="style4511"/><style id="style4511-26"/><style id="style4511-9"/><style id="style4552"/><style id="style4511-2"/><linearGradient xlink:href="#linearGradient4488" id="linearGradient4540" gradientUnits="userSpaceOnUse" gradientTransform="matrix(.30673 0 0 .3038 -63.522 1.994)" x1="288.112" y1="141.785" x2="287.575" y2="79.008"/><linearGradient osb:paint="solid" id="linearGradient5293"><stop id="stop5295" offset="0" stop-color="#9a89c0" stop-opacity="1"/></linearGradient><linearGradient osb:paint="solid" id="linearGradient5251"><stop id="stop5253" offset="0" stop-color="#2f343f" stop-opacity="1"/></linearGradient><linearGradient xlink:href="#linearGradient876" id="linearGradient1847" x1="2.583" y1="23.739" x2="45.236" y2="23.739" gradientUnits="userSpaceOnUse" gradientTransform="rotate(-180 23.91 23.739)"/><linearGradient id="linearGradient876"><stop id="stop872" offset="0" stop-color="#aea795" stop-opacity="1"/><stop id="stop874" offset="1" stop-color="#c8c4b7" stop-opacity="1"/></linearGradient><radialGradient fx="0" fy="0" cx="0" cy="0" r="1" gradientUnits="userSpaceOnUse" gradientTransform="matrix(11.81767 0 0 13.16991 23.91 14.328)" spreadMethod="pad" id="radialGradient250"><stop offset="0" id="stop252" stop-opacity="1" stop-color="#744720"/><stop offset="1" id="stop254" stop-opacity="1" stop-color="#30251c"/></radialGradient><radialGradient fx="0" fy="0" cx="0" cy="0" r="1" gradientUnits="userSpaceOnUse" gradientTransform="matrix(9.12902 0 0 11.11388 24.11 24.565)" spreadMethod="pad" id="radialGradient270"><stop offset="0" id="stop272" stop-opacity="1" stop-color="#fff"/><stop offset=".019" id="stop274" stop-opacity="1" stop-color="#fff"/><stop offset=".202" id="stop276" stop-opacity="1" stop-color="#fff"/><stop offset="1" id="stop278" stop-opacity="1" stop-color="#babcbe"/></radialGradient><clipPath clipPathUnits="userSpaceOnUse" id="clipPath286"><path d="M0 512h512V0H0v512z" id="path288"/></clipPath></defs><style id="style4485" type="text/css"/><path id="path4516" d="M2.75 26.22v1.669c0 9.574 5.638 17.282 17.312 17.282h6.998c15.278 0 18.008-11.323 18.008-17.282V26.22c0 5.96-2.73 17.282-18.008 17.282h-6.998c-11.674 0-17.311-7.708-17.311-17.282z" opacity="1" fill="url(#linearGradient4540)" fill-opacity="1" stroke="none" stroke-width="1.105" stroke-linecap="square" stroke-linejoin="bevel" stroke-miterlimit="4" stroke-dasharray="none" stroke-dashoffset="0" stroke-opacity=".078"/><path id="path4518" d="M28.295 44.734h-8.577c-14.042 0-16.966-11.329-16.966-17.408v-7.175c0-6.003 2.73-17.408 18.008-17.408h6.997c11.673 0 17.31 7.764 17.31 17.408v7.175c0 9.644-5.522 17.408-16.772 17.408z" opacity="1" fill="url(#linearGradient1847)" fill-opacity="1" stroke="#000" stroke-width=".337" stroke-linecap="square" stroke-linejoin="bevel" stroke-miterlimit="4" stroke-dasharray="none" stroke-dashoffset="0" stroke-opacity=".078"/><path d="M17.953 12.877c-5.658-3.236-8.472-.194-8.472-.194.546-.138 1.015.186 1.28.453-.359.098-.518.258-.518.258.673.016.909.394 1.109.947l.031.09.001.003.035.102.024.075.002.004c.792 2.4.83 4.673.83 4.673.142.682.893.936 1.352.458l4.227-4.404c.459-.478.658-2.145.1-2.465" id="path212" fill="#fff" fill-opacity="1" fill-rule="nonzero" stroke="none" stroke-width=".094"/><path d="M12.984 18.877c-.025-.66.208-3.862-1.47-6.091.024-.004 2.667-.994 6.04.86.337.117.588.348.271.87l-4.032 4.092c-.019.019-.663.815-.809.27" id="path216" fill="#a36f2a" fill-opacity="1" fill-rule="nonzero" stroke="none" stroke-width=".094"/><path d="M29.867 12.877c5.658-3.236 8.472-.194 8.472-.194-.545-.138-1.014.186-1.28.453.36.098.518.258.518.258-.673.016-.908.394-1.108.947l-.032.09v.003l-.035.102-.025.075-.001.004c-.792 2.4-.83 4.673-.83 4.673-.143.682-.894.936-1.353.458l-4.227-4.404c-.458-.478-.658-2.145-.099-2.465" id="path220" fill="#fff" fill-opacity="1" fill-rule="nonzero" stroke="none" stroke-width=".094"/><path d="M34.836 18.877c.025-.66-.208-3.862 1.47-6.091-.023-.004-2.667-.994-6.039.86-.337.117-.589.348-.272.87l4.033 4.092c.018.019.663.815.808.27" id="path224" fill="#a36f2a" fill-opacity="1" fill-rule="nonzero" stroke="none" stroke-width=".094"/><path d="M27.539 11.368c-1.748-.11-2.937 1.215-3.839 1.215-.815 0-1.79-1.328-3.507-1.265-5.886.215-18.822 21.048.281 23.137.2.962 1.687 1.707 3.433 1.707 1.8 0 3.298-.774 3.45-1.764 17.454-2.367 6.747-22.62.182-23.03" id="path228" fill="#f6892e" fill-opacity="1" fill-rule="nonzero" stroke="none" stroke-width=".094"/><path d="M27.37 34.065c0-1.21-1.687.559-3.598.559-1.911 0-3.323-1.769-3.323-.56 0 .95 1.583 1.636 3.46 1.636 1.9 0 3.461-.685 3.461-1.635" id="path232" fill="#ee2324" fill-opacity="1" fill-rule="nonzero" stroke="none" stroke-width=".094"/><path d="M38.192 24.6c1.675-.02 2.792 2.194 2.792 2.194-.504-9.021-8.557-6.355-12.176-3.494a9.897 9.897 0 0 1-.555-1.642 2.6 2.6 0 0 1 .154-.704c.389-.994 1.57-.49 1.57-.49-.458-.541-.9-.832-1.317-.937.501-.399 1.273-.07 1.273-.07-.534-.63-1.046-.922-1.521-.976.494-.5 1.347-.136 1.347-.136-2.262-2.675-4.142.74-4.483 2.567-.199 1.07-.272 1.862 0 2.446-.002.027-.001.053-.002.08a4.366 4.865 0 0 0-1.364-.243 4.37 4.87 0 0 0-1.355.24c0-.036 0-.071-.002-.109.272-.583.199-1.376 0-2.445-.34-1.827-2.22-5.242-4.483-2.567 0 0 .852-.364 1.347.136-.475.054-.988.346-1.521.976 0 0 .772-.329 1.273.07-.417.105-.86.395-1.318.937 0 0 1.182-.504 1.57.49a2.6 2.6 0 0 1 .155.704 9.858 9.858 0 0 1-.567 1.67c-3.622-2.86-11.67-5.521-12.173 3.497 0 0 1.117-2.215 2.792-2.193-1.62 1.034-2.616 3.04-2.173 6.519 0 0 .71-2.485 2.4-2.79-.663 1.149-.958 2.759-.678 4.959 0 0 .643-2.25 2.161-2.731-.477 1.1-.467 2.769.642 4.442 0 0-.08-3.446 2.328-2.722.387.116 4.6 2.158 6.785-.481.76.715 1.743 1.147 2.817 1.147 1.073 0 2.056-.432 2.817-1.147 2.184 2.64 6.398.597 6.785.48 2.408-.723 2.15 2.977 2.15 2.977 1.19-1.038 1.297-3.596.82-4.696 1.518.48 2.161 2.73 2.161 2.73.28-2.2-.015-3.81-.68-4.958 1.69.305 2.402 2.79 2.402 2.79.442-3.48-.553-5.485-2.173-6.52" id="path236" fill="#fff" fill-opacity="1" fill-rule="nonzero" stroke="none" stroke-width=".094"/><path id="path256" d="M22.568 21.536c.067.289-.105-.117-.623-.523-.422-.33-1.074-.661-2.013-.617-2.576.122-5.108 4.696-5.108 7.602 0 5.593 5.792 6.434 9.004 6.434 3.213 0 9.169-.841 9.169-6.434 0-2.992-2.067-7.174-4.695-7.502-1.21-.151-1.963.186-2.415.522-.51.38-.634.76-.597.439.177-1.545-.486-7.287-1.38-7.362a.27.301 0 0 0-.017 0c-.918 0-1.613 6.219-1.325 7.441" fill="url(#radialGradient250)" stroke="none" stroke-width=".094"/><path id="path280" d="M15.743 30.377c0 2.544 3.52 4.246 8.03 4.246 4.508 0 8.297-2.112 8.297-4.246 0-6.887-6.31-9.098-8.163-9.098-1.583 0-8.164 1.878-8.164 9.098" fill="url(#radialGradient270)" stroke="none" stroke-width=".094"/><path d="M26.415 29.376c0 1.542-1.017 1.74-2.4 1.74s-2.61-.198-2.61-1.74c0-1.211 1.62-2.79 2.505-2.79.886 0 2.505 1.579 2.505 2.79" id="path292" fill="#000" fill-opacity="1" fill-rule="nonzero" stroke="none" stroke-width=".094"/><path d="M22.025 22.952c0 1.128-.82 2.042-1.833 2.042-1.011 0-1.832-.914-1.832-2.042 0-1.127.82-2.042 1.832-2.042s1.833.915 1.833 2.042" id="path296" fill="#fff" fill-opacity="1" fill-rule="nonzero" stroke="none" stroke-width=".094"/><path d="M20.192 22.952c-.82 0-1.487.914-1.487 0s.667-1.657 1.487-1.657c.82 0 1.488.743 1.488 1.657s-.667 0-1.488 0" id="path300" fill="#000" fill-opacity="1" fill-rule="nonzero" stroke="none" stroke-width=".094"/><path d="M29.46 22.952c0 1.128-.82 2.042-1.832 2.042s-1.832-.914-1.832-2.042c0-1.127.82-2.042 1.832-2.042s1.832.915 1.832 2.042" id="path304" fill="#fff" fill-opacity="1" fill-rule="nonzero" stroke="none" stroke-width=".094"/><path d="M27.628 22.952c-.82 0-1.487.914-1.487 0s.667-1.657 1.487-1.657c.82 0 1.487.743 1.487 1.657s-.667 0-1.487 0" id="path308" fill="#000" fill-opacity="1" fill-rule="nonzero" stroke="none" stroke-width=".094"/></svg>