<svg xmlns="http://www.w3.org/2000/svg" xmlns:xlink="http://www.w3.org/1999/xlink" width="48" height="48" version="1.1" id="svg38"><defs id="defs22"><linearGradient id="linearGradient4488"><stop id="stop4490" offset="0" stop-color="#000" stop-opacity=".047"/><stop id="stop4492" offset="1" stop-color="#000" stop-opacity="0"/></linearGradient><style id="style4511"/><style id="style4511-26"/><style id="style4511-9"/><style id="style4552"/><style id="style4511-2"/><linearGradient gradientTransform="translate(-63.205 2.216) scale(.3038)" xlink:href="#linearGradient4488" id="linearGradient4160" x1="288.112" y1="141.785" x2="287.575" y2="79.008" gradientUnits="userSpaceOnUse"/><clipPath clipPathUnits="userSpaceOnUse" id="clipPath230"><path d="M0 512h512V0H0v512z" id="path232"/></clipPath></defs><style id="style4485" type="text/css"/><path d="M19.564 2.966h8.758c14.34 0 17.327 11.44 17.327 17.579v7.246c0 6.061-2.789 17.579-18.39 17.579h-7.146c-11.922 0-17.678-7.84-17.678-17.58v-7.245c0-9.739 5.64-17.579 17.129-17.579z" id="rect4144" opacity="1" fill="#4d4d4d" fill-opacity="1" stroke="#000" stroke-width=".342" stroke-linecap="square" stroke-linejoin="bevel" stroke-miterlimit="4" stroke-dasharray="none" stroke-dashoffset="0" stroke-opacity=".078"/><path d="M2.433 26.443v1.668c0 9.575 5.583 17.282 17.146 17.282h6.93c15.133 0 17.837-11.322 17.837-17.282v-1.668c0 5.96-2.704 17.282-17.837 17.282h-6.93c-11.563 0-17.146-7.708-17.146-17.282z" id="path4147" opacity="1" fill="url(#linearGradient4160)" fill-opacity="1" stroke="none" stroke-width="1.1" stroke-linecap="square" stroke-linejoin="bevel" stroke-miterlimit="4" stroke-dasharray="none" stroke-dashoffset="0" stroke-opacity=".078"/><path d="M31.498 18.82c-.352.397-1.062.442-1.46.082-1.423-1.29-3.347-2.11-5.342-2.244-2.422-.185-4.897.661-6.622 2.231-.398.387-1.138.343-1.497-.069-.385-.335-.417-.948-.047-1.303 1.71-1.573 4.021-2.574 6.426-2.801 3.14-.315 6.401.75 8.624 2.815.347.365.304.962-.082 1.29m-2.73 2.7c-.36.401-1.085.428-1.477.053a4.72 4.72 0 0 0-2.97-1.255 4.742 4.742 0 0 0-3.443 1.195c-.221.229-.55.369-.885.333-.78-.05-1.322-1.009-.785-1.584 1.086-1.082 2.626-1.753 4.214-1.898 1.982-.181 4.031.517 5.41 1.838.378.361.334.984-.064 1.318m-4.705 4.467c-1.146.037-2.208-.838-2.308-1.886-.163-1.1.772-2.203 1.97-2.33 1.277-.197 2.574.773 2.615 1.965.119 1.168-1.002 2.277-2.277 2.251m11.415-8.255a23.287 21.424 0 0 0-1.174-1.683.94.864 0 0 1-.097.095c-.372.403-1.116.41-1.499.018-2.503-2.217-6.037-3.416-9.506-3.177-2.883.17-5.675 1.312-7.767 3.142-.186.175-.423.319-.697.33-.685.075-1.319-.584-1.17-1.2.04-.222.196-.406.372-.554 2.449-2.157 5.736-3.482 9.119-3.687a15.764 15.764 0 0 1 7.802 1.513c-4.825-3.872-10.923-5.11-15.557-2.648-6.316 3.355-7.523 12.309-2.697 20 4.826 7.69 13.858 11.205 20.174 7.85 6.315-3.355 7.523-12.308 2.697-19.999" id="path236" fill="#fff" fill-opacity="1" fill-rule="nonzero" stroke="none" stroke-width=".162"/><path d="M34.304 16.05c.312-.348.323-.905-.026-1.236a14.274 14.274 0 0 0-3.417-2.283 20.795 20.795 0 0 1 3.443 3.519" id="path240" fill="#fff" fill-opacity="1" fill-rule="nonzero" stroke="none" stroke-width=".162"/><path id="path2964" d="M22.911 28.256a3.699 3.699 0 0 0-3.698 3.699 3.699 3.699 0 0 0 3.698 3.699 3.699 3.699 0 0 0 3.7-3.7 3.699 3.699 0 0 0-3.7-3.698zm0 1.85a1.85 1.85 0 0 1 1.85 1.849 1.85 1.85 0 0 1-1.85 1.85 1.85 1.85 0 0 1-1.849-1.85 1.85 1.85 0 0 1 1.85-1.85z" fill="#4d4d4d" fill-opacity="1" stroke-width=".925"/><path id="path2966" d="M25.686 31.03h8.322v1.85h-8.322zm4.623 1.85h1.85v1.849h-1.85z" fill="#4d4d4d" fill-opacity="1" stroke-width=".925"/></svg>