<svg xmlns:osb="http://www.openswatchbook.org/uri/2009/osb" xmlns="http://www.w3.org/2000/svg" xmlns:xlink="http://www.w3.org/1999/xlink" width="48" height="48" version="1.1" id="svg38"><defs id="defs22"><linearGradient id="linearGradient4488"><stop id="stop4490" offset="0" stop-color="#000" stop-opacity=".047"/><stop id="stop4492" offset="1" stop-color="#000" stop-opacity="0"/></linearGradient><style id="style4511"/><style id="style4511-26"/><style id="style4511-9"/><style id="style4552"/><style id="style4511-2"/><linearGradient xlink:href="#linearGradient4488" id="linearGradient4548" gradientUnits="userSpaceOnUse" gradientTransform="translate(-62.55 1.994) scale(.3038)" x1="288.112" y1="141.785" x2="287.575" y2="79.008"/><style id="style4511-8"/><style id="style4511-26-4"/><style id="style4511-9-8"/><style id="style4552-5"/><linearGradient gradientTransform="translate(0 -28)" x2="0" gradientUnits="userSpaceOnUse" y2="533.8" y1="542.8" id="c-70-6"><stop id="stop12-9-9" stop-color="#bcb4a1"/><stop id="stop14-360-2" stop-color="#c5bfad" offset="1"/></linearGradient><style id="style4511-2-5"/><linearGradient id="linearGradient5293" osb:paint="solid"><stop offset="0" id="stop5295" stop-color="#9a89c0" stop-opacity="1"/></linearGradient><linearGradient xlink:href="#c-70-6" id="linearGradient1401" x1="2.921" y1="23.586" x2="45.168" y2="23.586" gradientUnits="userSpaceOnUse"/></defs><style id="style4485" type="text/css"/><style type="text/css" id="style4485-4"/><path id="path4532" d="M3.088 26.22v1.67c0 9.573 5.583 17.281 17.146 17.281h6.93c15.133 0 17.837-11.322 17.837-17.282v-1.668c0 5.96-2.704 17.282-17.837 17.282h-6.93c-11.563 0-17.146-7.708-17.146-17.282z" opacity="1" fill="url(#linearGradient4548)" fill-opacity="1" stroke="none" stroke-width="1.1" stroke-linecap="square" stroke-linejoin="bevel" stroke-miterlimit="4" stroke-dasharray="none" stroke-dashoffset="0" stroke-opacity=".078"/><path id="path4534" d="M19.701 2.742h8.495c13.908 0 16.805 11.247 16.805 17.282v7.124c0 5.96-2.704 17.282-17.837 17.282h-6.93c-11.562 0-17.146-7.708-17.146-17.282v-7.124c0-9.574 5.47-17.282 16.613-17.282z" opacity="1" fill="url(#linearGradient1401)" fill-opacity="1" stroke="#000" stroke-width=".334" stroke-linecap="square" stroke-linejoin="bevel" stroke-miterlimit="4" stroke-dasharray="none" stroke-dashoffset="0" stroke-opacity=".078"/><g id="g737" transform="matrix(1.19846 0 0 1.12631 -4.402 -4.173)"><path d="M16.813 13.284c-.622.003-1.143.461-1.151 1.005l-.26 20.741c-.003.55.503 1 1.13 1.002l14.14-.029c.62.002 1.132-.458 1.14-1.006l.258-20.737c.004-.549-.502-1.003-1.123-1m-14.145.023" id="path502" fill="#f9f9f9" fill-opacity="1" fill-rule="nonzero" stroke="none" stroke-width="1.236"/><g transform="matrix(.2696 0 0 .19993 -12.016 35.57)" id="g710" fill="#e74c3c"><path d="M128.337-68.105c-2.763 0-5.02 3.76-5.02 8.415 0 2.423.606 4.633 1.577 6.17l7.59 12.344 7.84-12.343c.972-1.535 1.576-3.747 1.576-6.17 0-4.655-2.256-8.415-5.019-8.415-1.819 0-3.397 1.619-4.272 4.066-.875-2.447-2.453-4.066-4.272-4.066z" id="path8" stroke-width="1.25"/><path d="M156.3-18.175c.92 0 1.672-1.175 1.672-2.63 0-.755-.201-1.448-.525-1.928l-2.53-3.857-2.614 3.857c-.324.48-.525 1.173-.525 1.927 0 1.456.752 2.631 1.672 2.631.607 0 1.134-.505 1.425-1.27.291.765.817 1.27 1.424 1.27z" id="path14-3" stroke-width="1.042"/><path d="M156.036-13.967h-2.323l-.387-1.403h-1.548l2.294 11.22h1.577l2.39-11.22h-1.616zm-1.86 2.805h1.464l-.765 4.208-.7-4.208z" id="path16" stroke-width="1.042"/><path id="path4550" d="M108.918-91.107c-.92 0-1.672 1.176-1.672 2.631 0 .755.201 1.448.525 1.928l2.53 3.857 2.614-3.857c.324-.48.525-1.173.525-1.928 0-1.455-.752-2.63-1.672-2.63-.607 0-1.134.504-1.425 1.27-.291-.766-.818-1.27-1.425-1.27z" stroke-width="1.042"/><path id="path4552" d="M109.182-95.314h2.323l.387 1.402h1.548l-2.294-11.22h-1.577l-2.39 11.22h1.616zm1.86-2.805h-1.464l.765-4.208.7 4.207z" stroke-width="1.042"/></g></g></svg>