<svg xmlns="http://www.w3.org/2000/svg" xmlns:xlink="http://www.w3.org/1999/xlink" width="48" height="48" version="1.1" id="svg38"><defs id="defs22"><linearGradient id="linearGradient4488"><stop id="stop4490" offset="0" stop-color="#000" stop-opacity=".047"/><stop id="stop4492" offset="1" stop-color="#000" stop-opacity="0"/></linearGradient><style id="style4511"/><style id="style4511-26"/><style id="style4511-9"/><style id="style4552"/><style id="style4511-2"/><linearGradient gradientTransform="matrix(.3082 0 0 .3038 -64.056 2.216)" xlink:href="#linearGradient4488" id="linearGradient4160" x1="288.112" y1="141.785" x2="287.575" y2="79.008" gradientUnits="userSpaceOnUse"/></defs><style id="style4485" type="text/css"/><g id="g408" fill-opacity="1"><path id="path4147" d="M2.535 26.443v1.668c0 9.575 5.664 17.282 17.394 17.282h7.031c15.352 0 18.095-11.322 18.095-17.282v-1.668c0 5.96-2.743 17.282-18.095 17.282h-7.03c-11.73 0-17.395-7.708-17.395-17.282z" opacity="1" fill="url(#linearGradient4160)" stroke="none" stroke-width="1.108" stroke-linecap="square" stroke-linejoin="bevel" stroke-miterlimit="4" stroke-dasharray="none" stroke-dashoffset="0" stroke-opacity=".078"/><path id="rect4144" d="M19.389 2.965h8.618c14.11 0 17.048 11.246 17.048 17.282v7.123c0 5.96-2.743 17.282-18.095 17.282h-7.03c-11.73 0-17.395-7.708-17.395-17.282v-7.123c0-9.575 5.55-17.282 16.854-17.282z" opacity="1" fill="#666" stroke="#000" stroke-width=".337" stroke-linecap="square" stroke-linejoin="bevel" stroke-miterlimit="4" stroke-dasharray="none" stroke-dashoffset="0" stroke-opacity=".078"/><path id="path369" d="M21.069 15.813c-3.521-.004-6.094 2.696-7.74 5.84-2.143 4.099-4.405 10.156-.04 10.156 4.594 0 8.41-2.55 11.11-4.477.979 1.785 2.404 4.477 4.395 4.477 1.99 0 3.806-.784 4.693-1.482l3.307-4.606-.358-.412c-4.186 2.074-5.614 3.5-7.966-.976l2.969-2.73 4.36-5.397-.321-.398-7.845 6.87c-1.27-2.63-3.88-6.862-6.567-6.865m-2.937 3.396c2.493 0 3.955 3.672 5.422 6.393-2.163 1.23-4.99 2.747-7.06 2.323-2.455-.503-3.08-3.071-2.091-5 .877-1.808 1.953-3.714 3.726-3.714" opacity=".1" fill="#000" stroke="none"/><path id="path371" d="M21.069 15.813c-3.521-.004-6.094 2.696-7.74 5.84-2.143 4.099-4.405 10.156-.04 10.156 4.594 0 8.41-2.55 11.11-4.477.979 1.785 2.404 4.477 4.395 4.477 1.99 0 3.806-.784 4.693-1.482l3.307-4.606-.358-.412c-4.186 2.074-5.614 3.5-7.966-.976l2.969-2.73 4.36-5.397-.321-.398-7.845 6.87c-1.27-2.63-3.88-6.862-6.567-6.865m-2.937 3.396c2.493 0 3.955 3.672 5.422 6.393-2.163 1.23-4.99 2.747-7.06 2.323-2.455-.503-3.08-3.071-2.091-5 .877-1.808 1.953-3.714 3.726-3.714" opacity="1" fill="#c5f533" stroke="none"/></g></svg>