<svg xmlns="http://www.w3.org/2000/svg" xmlns:xlink="http://www.w3.org/1999/xlink" width="48" height="48" version="1.1" id="svg38"><defs id="defs22"><linearGradient id="linearGradient4488"><stop id="stop4490" offset="0" stop-color="#000" stop-opacity=".047"/><stop id="stop4492" offset="1" stop-color="#000" stop-opacity="0"/></linearGradient><style id="style4511"/><style id="style4511-26"/><style id="style4511-9"/><style id="style4552"/><linearGradient id="c-27" y1="5.342" x1="42.799" y2="31.357" x2="11.999" gradientUnits="userSpaceOnUse"><stop stop-color="#4ce0c6" id="stop12-09"/><stop offset="1" stop-color="#3b85b5" id="stop14-36"/></linearGradient><style id="style4511-2"/><linearGradient xlink:href="#linearGradient4488" id="linearGradient4483" gradientUnits="userSpaceOnUse" gradientTransform="translate(-62.91 2.216) scale(.3038)" x1="288.112" y1="141.785" x2="287.575" y2="79.008"/><filter height="1.075" y="-.038" width="1.133" x="-.067" id="filter2940" color-interpolation-filters="sRGB"><feGaussianBlur id="feGaussianBlur2942" stdDeviation=".607"/></filter><filter height="1.131" y="-.066" width="1.076" x="-.038" id="filter2958" color-interpolation-filters="sRGB"><feGaussianBlur id="feGaussianBlur2960" stdDeviation="1.865"/></filter><filter id="filter1577" x="-.012" width="1.024" y="-.012" height="1.024" color-interpolation-filters="sRGB"><feGaussianBlur stdDeviation=".209" id="feGaussianBlur1579"/></filter><radialGradient xlink:href="#c-27" id="radialGradient1581" cx="24.116" cy="23.952" fx="24.116" fy="23.952" r="21.458" gradientTransform="matrix(1 0 0 .99475 0 .126)" gradientUnits="userSpaceOnUse"/></defs><style id="style4485" type="text/css"/><path d="M2.729 26.443v1.668c0 9.575 5.583 17.282 17.145 17.282h6.93c15.133 0 17.837-11.322 17.837-17.282v-1.668c0 5.96-2.704 17.282-17.836 17.282h-6.93c-11.563 0-17.146-7.708-17.146-17.282z" id="path4479" opacity="1" fill="url(#linearGradient4483)" fill-opacity="1" stroke="none" stroke-width="1.1" stroke-linecap="square" stroke-linejoin="bevel" stroke-miterlimit="4" stroke-dasharray="none" stroke-dashoffset="0" stroke-opacity=".078"/><path d="M19.773 3.108h8.495c13.908 0 16.805 11.247 16.805 17.282v7.124c0 5.96-2.705 17.282-17.837 17.282h-6.93c-11.563 0-17.146-7.708-17.146-17.282V20.39c0-9.574 5.47-17.282 16.613-17.282z" id="path4481" opacity="1" fill="url(#radialGradient1581)" fill-opacity="1" stroke="#000" stroke-width=".334" stroke-linecap="square" stroke-linejoin="bevel" stroke-miterlimit="4" stroke-dasharray="none" stroke-dashoffset="0" stroke-opacity=".078" filter="url(#filter1577)"/><g id="g1567" transform="matrix(.89361 0 0 .96176 .436 .234)" fill-opacity="1"><g id="g2914" transform="matrix(.69606 0 0 .60032 2.004 -132.67)" opacity=".3" fill="#000" filter="url(#filter2940)"><path id="rect2886" opacity="1" stroke="none" stroke-width="1.501" stroke-miterlimit="4" stroke-dasharray="none" stroke-opacity=".976" d="M31.71 258.675h6.855v11.185H31.71z"/><circle r="10.954" cy="279.872" cx="35.408" id="circle2888" opacity="1" stroke="none" stroke-width="1.515" stroke-miterlimit="4" stroke-dasharray="none" stroke-opacity=".976"/><path id="path2890" d="M31.337 290.032c.012.006.022.013.034.018.03.013.063.016.094.029a10.954 10.954 0 0 1-.128-.047z" stroke-width=".299"/><path id="path2892" d="M24.503 280.816c.05.45.101.896.204 1.334a10.954 10.954 0 0 1-.093-.416 10.954 10.954 0 0 1-.111-.918z" stroke-width=".299"/><path id="path2894" d="M24.844 277.026a10.954 10.954 0 0 0-.171.67 10.954 10.954 0 0 0-.163 1.083 10.954 10.954 0 0 0-.055 1.093 10.954 10.954 0 0 0 .026.731c.006.072.014.142.022.213a10.954 10.954 0 0 0 .111.918 10.954 10.954 0 0 0 .093.416c.802 3.417 3.15 6.42 6.63 7.882a10.954 10.954 0 0 0 .128.047c.542.22 1.094.366 1.646.498a10.954 10.954 0 0 0 .121.03 10.954 10.954 0 0 0 1.083.164 10.954 10.954 0 0 0 1.094.055 10.954 10.954 0 0 0 .774-.028 10.954 10.954 0 0 0 1.087-.131 10.954 10.954 0 0 0 1.069-.24 10.954 10.954 0 0 0 1.039-.345 10.954 10.954 0 0 0 1-.447 10.954 10.954 0 0 0 .948-.545 10.954 10.954 0 0 0 .892-.638 10.954 10.954 0 0 0 .822-.722 10.954 10.954 0 0 0 .746-.801 10.954 10.954 0 0 0 .663-.872 10.954 10.954 0 0 0 .572-.933 10.954 10.954 0 0 0 .476-.986 10.954 10.954 0 0 0 .376-1.029 10.954 10.954 0 0 0 .27-1.06 10.954 10.954 0 0 0 .165-1.083 10.954 10.954 0 0 0 .054-1.094 10.954 10.954 0 0 0-.027-.775 10.954 10.954 0 0 0-.043-.353c-2.401-2.302-7.802-3.042-10.445-.554-1.66 1.127-4.108 2.495-7.257 1.846-2.334-.48-3.735-1.35-3.746-3.01z" stroke-width=".299"/><circle r="1.899" cy="275.61" cx="29.998" id="circle2896" opacity="1" stroke="none" stroke-width="1.584" stroke-miterlimit="4" stroke-dasharray="none" stroke-opacity=".976"/><circle id="circle2898" cx="41.833" cy="274.076" r="1.168" opacity=".5" stroke="none" stroke-width=".975" stroke-miterlimit="4" stroke-dasharray="none" stroke-opacity=".976"/><circle r=".73" cy="271.133" cx="37.217" id="circle2900" opacity="1" stroke="none" stroke-width=".609" stroke-miterlimit="4" stroke-dasharray="none" stroke-opacity=".976"/><circle id="circle2902" cx="41.311" cy="281.837" r="2.337" opacity=".5" stroke="none" stroke-width="1.95" stroke-miterlimit="4" stroke-dasharray="none" stroke-opacity=".976"/><circle r="1.168" cy="286.896" cx="31.564" id="circle2904" opacity=".5" stroke="none" stroke-width=".975" stroke-miterlimit="4" stroke-dasharray="none" stroke-opacity=".976"/><path id="path2906" d="M29.974 252.02l10.102-.022-1.69 4.081-6.473.046z" stroke="none" stroke-width=".292" stroke-linecap="butt" stroke-linejoin="miter" stroke-opacity="1"/><path id="rect2908" opacity="1" stroke="none" stroke-width="1.46" stroke-miterlimit="4" stroke-dasharray="none" stroke-opacity=".976" d="M29.816 255.608H40.46v3.518H29.816z"/><circle id="circle2910" cx="33.518" cy="262.384" r=".73" opacity="1" stroke="none" stroke-width=".609" stroke-miterlimit="4" stroke-dasharray="none" stroke-opacity=".976"/><circle r="1.168" cy="266.048" cx="36.691" id="circle2912" opacity=".5" stroke="none" stroke-width=".975" stroke-miterlimit="4" stroke-dasharray="none" stroke-opacity=".976"/></g><path d="M21.258 25.625c-.326.3-.72.537-1.033.85a33.3 33.3 0 0 0-4.043 4.904c-.787 1.16-1.433 2.498-2.112 3.795 3.643.146 8.16.213 18.201.213 26.605 0 34.55.828 33.442 3.482-4.794 11.485-3.095 20.416 4.578 24.057 6.117 2.903 14.289.064 16.72-5.807 1.835-4.429.752-11.924-2.472-17.111L81.75 35.52l3.559-1.423c1.957-.783 4.912-1.424 6.566-1.424h3.008l-1.758 5.201c-2.33 6.903-2.385 16.073-.123 20.69 4.788 9.772 16.986 9.962 22.26.345 2.723-4.966 1.896-15.099-1.844-22.584-1.58-3.163-2.875-5.89-2.875-6.058 0-.17 1.248-.309 2.773-.309 8.136 0 8.989 3.174 8.989 33.492v24.41h10.027l-.264-26.943c-.263-26.877-.27-26.953-2.576-31.43-3.364-6.532-8.53-9.904-15.18-9.904-3.645 0-6.126.568-8.431 1.928-2.861 1.688-4.216 1.867-10.924 1.449-8.36-.522-14.819.963-19.21 4.418-2.282 1.795-2.422 1.8-6.612.215-3.694-1.398-8.103-1.666-32.19-1.95-8.39-.098-11.48-.042-15.687-.019zM103.7 40.502c.308.162.653.607 1.045 1.322 1.805 3.29 2.543 9.684 1.406 12.18-2.297 5.042-5.095.636-4.408-6.943.452-4.985 1.034-7.046 1.957-6.559zm-29.4 4.02c.526-.54 1.275.112 2.181 2.021.82 1.727 1.49 3.995 1.49 5.039 0 1.422-.567 1.9-2.261 1.9-2.06 0-2.26-.343-2.248-3.845.01-2.849.312-4.577.838-5.116z" id="path2944" transform="matrix(.18417 0 0 .15884 3.077 4.963)" opacity=".3" fill="#000" stroke-width=".905" filter="url(#filter2958)"/><path id="path2848" d="M6.691 9.026c-.048.055-.093.097-.124.162-.14.197-.342.444-.526.74-.144.184-.248.416-.373.622.671.024 1.503.034 3.352.034 4.9 0 6.363.132 6.159.553-.883 1.824-.57 3.243.843 3.821 1.127.461 2.632.01 3.08-.922.337-.703.138-1.894-.456-2.718l-.513-.712.655-.227c.36-.124.905-.226 1.21-.226h.553l-.324.826c-.429 1.097-.439 2.553-.022 3.287.882 1.552 3.128 1.582 4.1.054.5-.788.349-2.398-.34-3.587-.291-.502-.53-.935-.53-.962 0-.027.23-.049.511-.049 1.498 0 1.655.504 1.655 5.32v3.877h1.847l-.049-4.28c-.048-4.269-.05-4.28-.474-4.992-.62-1.037-1.57-1.573-2.796-1.573-.67 0-1.128.09-1.552.306-.527.268-.777.297-2.012.23-1.54-.082-2.73.153-3.538.702-.42.285-.446.286-1.218.034-.68-.222-1.492-.264-5.928-.31-1.545-.015-2.38-.055-3.154-.052zm15.484 2.37c.057.026.12.097.193.21.332.523.468 1.539.259 1.935-.424.801-.939.101-.812-1.103.083-.791.19-1.119.36-1.041zm-5.414.64c.096-.087.235.017.401.32.151.275.275.635.275.8 0 .226-.105.302-.417.302-.38 0-.416-.054-.414-.61.002-.453.058-.727.155-.813z" fill="#b4e9ff" stroke-width=".155"/><g transform="matrix(.69606 0 0 .60032 2.004 -132.67)" id="g2879"><path id="rect2225" opacity="1" fill="#6ab8d9" stroke="none" stroke-width="1.501" stroke-miterlimit="4" stroke-dasharray="none" stroke-opacity=".976" d="M31.71 258.675h6.855v11.185H31.71z"/><circle id="path1507" cx="35.408" cy="279.872" r="10.954" opacity="1" fill="#b2e2f9" stroke="none" stroke-width="1.515" stroke-miterlimit="4" stroke-dasharray="none" stroke-opacity=".976"/><path d="M31.337 290.032c.012.006.022.013.034.018.03.013.063.016.094.029a10.954 10.954 0 0 1-.128-.047z" id="path2163" fill="#922929" stroke-width=".299"/><path d="M24.503 280.816c.05.45.101.896.204 1.334a10.954 10.954 0 0 1-.093-.416 10.954 10.954 0 0 1-.111-.918z" id="path2161" fill="#922929" stroke-width=".299"/><path d="M24.844 277.026a10.954 10.954 0 0 0-.171.67 10.954 10.954 0 0 0-.163 1.083 10.954 10.954 0 0 0-.055 1.093 10.954 10.954 0 0 0 .026.731c.006.072.014.142.022.213a10.954 10.954 0 0 0 .111.918 10.954 10.954 0 0 0 .093.416c.802 3.417 3.15 6.42 6.63 7.882a10.954 10.954 0 0 0 .128.047c.542.22 1.094.366 1.646.498a10.954 10.954 0 0 0 .121.03 10.954 10.954 0 0 0 1.083.164 10.954 10.954 0 0 0 1.094.055 10.954 10.954 0 0 0 .774-.028 10.954 10.954 0 0 0 1.087-.131 10.954 10.954 0 0 0 1.069-.24 10.954 10.954 0 0 0 1.039-.345 10.954 10.954 0 0 0 1-.447 10.954 10.954 0 0 0 .948-.545 10.954 10.954 0 0 0 .892-.638 10.954 10.954 0 0 0 .822-.722 10.954 10.954 0 0 0 .746-.801 10.954 10.954 0 0 0 .663-.872 10.954 10.954 0 0 0 .572-.933 10.954 10.954 0 0 0 .476-.986 10.954 10.954 0 0 0 .376-1.029 10.954 10.954 0 0 0 .27-1.06 10.954 10.954 0 0 0 .165-1.083 10.954 10.954 0 0 0 .054-1.094 10.954 10.954 0 0 0-.027-.775 10.954 10.954 0 0 0-.043-.353c-2.401-2.302-7.802-3.042-10.445-.554-1.66 1.127-4.108 2.495-7.257 1.846-2.334-.48-3.735-1.35-3.746-3.01z" id="path1578-3" fill="#f8703e" stroke-width=".299"/><circle id="path2176" cx="29.998" cy="275.61" r="1.899" opacity="1" fill="#f8703e" stroke="none" stroke-width="1.584" stroke-miterlimit="4" stroke-dasharray="none" stroke-opacity=".976"/><circle r="1.168" cy="274.076" cx="41.833" id="circle2178" opacity=".5" fill="#fff" stroke="none" stroke-width=".975" stroke-miterlimit="4" stroke-dasharray="none" stroke-opacity=".976"/><circle id="circle2180" cx="37.217" cy="271.133" r=".73" opacity="1" fill="#f8703e" stroke="none" stroke-width=".609" stroke-miterlimit="4" stroke-dasharray="none" stroke-opacity=".976"/><circle r="2.337" cy="281.837" cx="41.311" id="circle2182" opacity=".5" fill="#fff" stroke="none" stroke-width="1.95" stroke-miterlimit="4" stroke-dasharray="none" stroke-opacity=".976"/><circle id="circle2184" cx="31.564" cy="286.896" r="1.168" opacity=".5" fill="#fff" stroke="none" stroke-width=".975" stroke-miterlimit="4" stroke-dasharray="none" stroke-opacity=".976"/><path d="M29.974 252.02l10.102-.022-1.69 4.081-6.473.046z" id="path2233" fill="#ad7771" stroke="none" stroke-width=".292" stroke-linecap="butt" stroke-linejoin="miter" stroke-opacity="1"/><path id="rect2227" opacity="1" fill="#2e6379" stroke="none" stroke-width="1.46" stroke-miterlimit="4" stroke-dasharray="none" stroke-opacity=".976" d="M29.816 255.608H40.46v3.518H29.816z"/><circle r=".73" cy="262.384" cx="33.518" id="circle2235" opacity="1" fill="#f8703e" stroke="none" stroke-width=".609" stroke-miterlimit="4" stroke-dasharray="none" stroke-opacity=".976"/><circle id="circle2237" cx="36.691" cy="266.048" r="1.168" opacity=".5" fill="#fff" stroke="none" stroke-width=".975" stroke-miterlimit="4" stroke-dasharray="none" stroke-opacity=".976"/></g></g></svg>