<svg xmlns:osb="http://www.openswatchbook.org/uri/2009/osb" xmlns="http://www.w3.org/2000/svg" xmlns:xlink="http://www.w3.org/1999/xlink" width="48" height="48" version="1.1" id="svg38"><defs id="defs22"><linearGradient id="linearGradient4140"><stop offset="0" id="stop12" stop-color="#279646" stop-opacity="1"/><stop offset="1" id="stop14" stop-color="#76ff68" stop-opacity="1"/></linearGradient><style id="style4511"/><style id="style4511-26"/><style id="style4511-9"/><style id="style4552"/><style id="style4511-2"/><linearGradient osb:paint="solid" id="linearGradient5293"><stop id="stop5295" offset="0" stop-color="#9a89c0" stop-opacity="1"/></linearGradient><linearGradient id="linearGradient4632-92-3-0-8-1-9"><stop id="stop4634-68-8-0-2-9-4" offset="0" stop-color="#fafafa" stop-opacity="1"/><stop id="stop4636-8-21-7-1-4-8" offset="1" stop-color="#e1e1e1" stop-opacity="1"/></linearGradient><linearGradient xlink:href="#linearGradient4632-92-3-0-8-1-9" id="linearGradient4960" x1="14.237" y1="18.432" x2="32.569" y2="18.432" gradientUnits="userSpaceOnUse" gradientTransform="matrix(1.04687 0 0 1.1274 -1.78 -3.457)"/><radialGradient xlink:href="#linearGradient4140" id="radialGradient4926" cx="24.197" cy="24.298" fx="24.197" fy="24.298" r="14.763" gradientTransform="matrix(1 0 0 .9449 0 1.339)" gradientUnits="userSpaceOnUse"/></defs><style id="style4485" type="text/css"/><path id="path4518" d="M19.711 3.153h8.775c14.366 0 17.358 11.41 17.358 17.532v7.226c0 6.046-2.794 17.532-18.424 17.532h-7.16c-11.943 0-17.71-7.82-17.71-17.532v-7.226c0-9.713 5.65-17.532 17.16-17.532z" opacity="1" fill="#666" fill-opacity="1" stroke="#000" stroke-width=".342" stroke-linecap="square" stroke-linejoin="bevel" stroke-miterlimit="4" stroke-dasharray="none" stroke-dashoffset="0" stroke-opacity=".078"/><path d="M16.816 10.348c-4.077 0-7.382 3.123-7.382 6.975.004 1.925.85 3.763 2.336 5.078-.076.19-.121.398-.121.62v4.067c-.815 0-1.476.624-1.476 1.394 0 .77.66 1.395 1.476 1.395v4.067c0 .839.606 1.513 1.36 1.513h4.926l-1.697 1.733c-.46.47.115 1.057 1.035 1.057h10.896c.674 0 1.216-.328 1.195-.726a.515.515 0 0 0-.16-.331l-1.697-1.733h4.926c.753 0 1.36-.674 1.36-1.513v-3.737l1.103.643 2.945 1.717a.746.746 0 0 0 1.119-.652V25.05a.75.75 0 0 0-.768-.752.74.74 0 0 0-.35.101l-2.946 1.716-1.103.642v-3.735c0-.22-.044-.428-.12-.616 1.488-1.317 2.332-3.157 2.335-5.083 0-3.852-3.305-6.974-7.382-6.974-2.325.003-4.513 1.041-5.903 2.802-1.392-1.761-3.581-2.8-5.907-2.802z" id="path4113" fill="url(#radialGradient4926)" fill-opacity="1" stroke-width=".718"/><path d="M16.816 13.836c-2.03 0-3.69 1.57-3.69 3.487 0 1.918 1.66 3.487 3.69 3.487 2.03 0 3.69-1.569 3.69-3.487 0-1.918-1.66-3.487-3.69-3.487zm11.81 0c-2.03 0-3.69 1.57-3.69 3.487 0 1.918 1.66 3.487 3.69 3.487 2.03 0 3.69-1.569 3.69-3.487 0-1.918-1.66-3.487-3.69-3.487zm-11.81 1.395c1.232 0 2.214.928 2.214 2.092 0 1.164-.982 2.092-2.214 2.092s-2.215-.928-2.215-2.092c0-1.164.983-2.092 2.215-2.092zm11.81 0c1.232 0 2.214.928 2.214 2.092 0 1.164-.982 2.092-2.214 2.092s-2.214-.928-2.214-2.092c0-1.164.982-2.092 2.214-2.092z" id="path4117" fill="url(#linearGradient4960)" fill-opacity="1" stroke-width=".718"/><path id="path4518-3" d="M19.711 3.153h8.775c14.366 0 17.358 11.41 17.358 17.532v7.226c0 6.046-2.794 17.532-18.424 17.532h-7.16c-11.943 0-17.71-7.82-17.71-17.532v-7.226c0-9.713 5.65-17.532 17.16-17.532z" opacity="1" fill="#666" fill-opacity=".156" stroke="#000" stroke-width=".342" stroke-linecap="square" stroke-linejoin="bevel" stroke-miterlimit="4" stroke-dasharray="none" stroke-dashoffset="0" stroke-opacity=".078"/></svg>