<svg xmlns="http://www.w3.org/2000/svg" xmlns:xlink="http://www.w3.org/1999/xlink" width="48" height="48" version="1.1" id="svg38"><defs id="defs22"><linearGradient id="linearGradient4488"><stop id="stop4490" offset="0" stop-color="#000" stop-opacity=".047"/><stop id="stop4492" offset="1" stop-color="#000" stop-opacity="0"/></linearGradient><style id="style4511"/><style id="style4511-26"/><style id="style4511-9"/><linearGradient id="linearGradient4422-8"><stop id="stop19-3" offset="0" stop-color="#377d50" stop-opacity="1"/><stop id="stop21" offset="1" stop-color="#54d883" stop-opacity="1"/></linearGradient><style id="style4552"/><style id="style4511-2"/><linearGradient gradientTransform="matrix(.3082 0 0 .3038 -64.056 2.216)" xlink:href="#linearGradient4488" id="linearGradient4160" x1="288.112" y1="141.785" x2="287.575" y2="79.008" gradientUnits="userSpaceOnUse"/><linearGradient xlink:href="#linearGradient4422-8" id="linearGradient1294" x1="2.367" y1="23.808" x2="45.224" y2="23.808" gradientUnits="userSpaceOnUse" gradientTransform="rotate(180 23.897 23.808)"/></defs><style id="style4485" type="text/css"/><path d="M2.535 26.443v1.668c0 9.575 5.664 17.282 17.394 17.282h7.031c15.352 0 18.095-11.322 18.095-17.282v-1.668c0 5.96-2.743 17.282-18.095 17.282h-7.03c-11.73 0-17.395-7.708-17.395-17.282z" id="path4147" opacity="1" fill="url(#linearGradient4160)" fill-opacity="1" stroke="none" stroke-width="1.108" stroke-linecap="square" stroke-linejoin="bevel" stroke-miterlimit="4" stroke-dasharray="none" stroke-dashoffset="0" stroke-opacity=".078"/><path d="M28.405 44.652h-8.619c-14.109 0-17.048-11.247-17.048-17.282v-7.123c0-5.96 2.744-17.282 18.095-17.282h7.031c11.73 0 17.395 7.707 17.395 17.282v7.123c0 9.574-5.55 17.282-16.854 17.282z" id="rect4144" opacity="1" fill="url(#linearGradient1294)" fill-opacity="1" stroke="#000" stroke-width=".337" stroke-linecap="square" stroke-linejoin="bevel" stroke-miterlimit="4" stroke-dasharray="none" stroke-dashoffset="0" stroke-opacity=".078"/><g id="g10" transform="matrix(.7625 0 0 .77743 5.495 4.923)" fill="#02160a"><path id="path6" d="M41.79 17.323C36.416 4.57 24 5.299 24 5.299S11.584 4.57 6.21 17.323c-4.182 9.923 3.529 13.448 7.156 14.524l-.004-.001s1.221 3.958 4.891 5.883c.092.048.201-.052.153-.144-.484-.918-1.859-4.594-1.36-5.038h-.002l.265.032-.263-.008c1.682.355 3.444 1.677 3.828 2.181.104.136.263.248.435.248h5.382c.172 0 .331-.112.434-.247.384-.504 2.146-1.826 3.828-2.181l-.263.008.265-.032h-.002c.499.444-.876 4.121-1.36 5.038-.048.091.061.192.153.144 3.669-1.925 4.891-5.883 4.891-5.883l-.004.001c3.629-1.077 11.339-4.601 7.157-14.525z"/><path id="path8" d="M28.952 38.771a.4.4 0 0 0-.442-.217l-2.431.5c-1.405.211-2.74.237-4.158 0l-2.434-.501a.4.4 0 0 0-.441.211c-.3.608-1.019 2.138-1.355 2.854a.384.384 0 0 0 .224.53c.966.344 3.525 1.157 6.084 1.143 2.55-.013 5.101-.806 6.074-1.143a.39.39 0 0 0 .225-.542z"/></g><g id="g16" transform="matrix(.7625 0 0 .77743 5.495 4.923)" fill="#fff"><path id="path12" d="M14.877 25.922l-.471 1.516a.38.38 0 0 0 .174.443l1.921 1.078s3.499.917 4.499.708v-.792s-3.443-.938-5.722-3.046c-.121-.112-.352-.064-.401.093z"/><path id="path14" d="M33.012 25.922c-.049-.158-.224-.205-.345-.093C30.387 27.937 27 28.896 27 28.896v.771c1 .208 4.443-.708 4.443-.708l1.866-1.078a.38.38 0 0 0 .174-.443z"/></g><path id="path18" d="M24.022 26.846v.422s4.549.578 9.066-6.164c0 0 .382-.546-1.525-3.984 0 0-.679 8.883-7.541 9.726z" fill="#768376" stroke-width=".77"/><path id="path20" d="M23.536 27.267v-.422c-3.62-.693-7.291-4.429-7.852-7.977-.498-3.155 1.927-6.365 1.927-6.365-2.662 1.619-3.925 3.48-4.524 4.726-.482 1.004-.554 2.363.151 3.218.3.362.592.694.883 1.019l-.06-.06c1.393 1.823-.64 3.244-1.18 4.966-.482 1.537 1.978 2.307 2.216 2.377 1.185.404 3.17.695 3.394.727 1.125.163 2.378 1.019 2.836 1.355.077.056.18-.001.18-.096v-1.881a.234.234 0 0 0-.21-.24c-2.884-.226-4.593-1.243-5.273-1.742-.19-.132-.125-.467-.125-.467l.699-2.111c0-.002.048-.275.341-.106 3.294 2.905 6.597 3.079 6.597 3.079z" fill="#177138" stroke-width=".77"/><path id="polygon28" transform="matrix(.7625 0 0 .77743 5.495 4.923)" fill="#fff" d="M23.531 31.844v1.509h-1.187l.531-1.509z"/><path id="polygon30" transform="matrix(.7625 0 0 .77743 5.495 4.923)" fill="#fff" d="M24.297 31.844v1.509h1.187l-.531-1.509z"/></svg>