<svg xmlns:osb="http://www.openswatchbook.org/uri/2009/osb" xmlns="http://www.w3.org/2000/svg" xmlns:xlink="http://www.w3.org/1999/xlink" width="48" height="48" version="1.1" id="svg38"><defs id="defs22"><linearGradient id="linearGradient4488"><stop id="stop4490" offset="0" stop-color="#000" stop-opacity=".047"/><stop id="stop4492" offset="1" stop-color="#000" stop-opacity="0"/></linearGradient><style id="style4511"/><style id="style4511-26"/><style id="style4511-9"/><style id="style4552"/><style id="style4511-2"/><linearGradient xlink:href="#linearGradient4488" id="linearGradient4540" gradientUnits="userSpaceOnUse" gradientTransform="matrix(.30902 0 0 .3038 -64.017 2.569)" x1="288.112" y1="141.785" x2="287.575" y2="79.008"/><linearGradient osb:paint="solid" id="linearGradient5293"><stop id="stop5295" offset="0" stop-color="#9a89c0" stop-opacity="1"/></linearGradient></defs><style id="style4485" type="text/css"/><g id="g1351"><path d="M2.75 26.796v1.668c0 9.575 5.68 17.283 17.44 17.283h7.05c15.392 0 18.143-11.323 18.143-17.283v-1.668c0 5.96-2.75 17.282-18.143 17.282h-7.05c-11.76 0-17.44-7.708-17.44-17.282z" id="path4516" opacity="1" fill="url(#linearGradient4540)" fill-opacity="1" stroke="none" stroke-width="1.109" stroke-linecap="square" stroke-linejoin="bevel" stroke-miterlimit="4" stroke-dasharray="none" stroke-dashoffset="0" stroke-opacity=".078"/><path d="M19.649 3.318h8.64c14.148 0 17.094 11.246 17.094 17.282v7.123c0 5.96-2.75 17.282-18.143 17.282h-7.05c-11.76 0-17.44-7.708-17.44-17.282V20.6c0-9.575 5.564-17.282 16.899-17.282z" id="path4518" opacity="1" fill="#ffa100" fill-opacity="1" stroke="#000" stroke-width=".337" stroke-linecap="square" stroke-linejoin="bevel" stroke-miterlimit="4" stroke-dasharray="none" stroke-dashoffset="0" stroke-opacity=".078"/><g transform="translate(1.695 .513)" id="g1344" fill-rule="evenodd" stroke="none" stroke-width="1.099"><path d="M34.177 23.125c-.104-6.36-5.35-11.485-11.806-11.485-6.52 0-11.806 5.228-11.806 11.678 0 6.449 5.286 11.677 11.806 11.677 3.016 0 5.767-1.118 7.854-2.958l3.271 3.494a.396.396 0 0 0 .682-.264V23.123z" id="path882" fill="#f5f5f5"/><path d="M10.59 24.096a11.725 11.725 0 0 1-.025-.778c0-6.45 5.286-11.678 11.806-11.678 6.456 0 11.702 5.125 11.806 11.485l.001-.002v.973z" id="path884" fill="#e2e2e2"/></g></g></svg>