<svg xmlns:osb="http://www.openswatchbook.org/uri/2009/osb" xmlns="http://www.w3.org/2000/svg" xmlns:xlink="http://www.w3.org/1999/xlink" width="48" height="48" version="1.1" id="svg38"><defs id="defs22"><linearGradient id="linearGradient4300" osb:paint="solid"><stop offset="0" id="stop4298" stop-color="#9f007b" stop-opacity="1"/></linearGradient><linearGradient id="linearGradient4488"><stop id="stop4490" offset="0" stop-color="#000" stop-opacity=".047"/><stop id="stop4492" offset="1" stop-color="#000" stop-opacity="0"/></linearGradient><style id="style4511"/><style id="style4511-26"/><style id="style4511-9"/><style id="style4552"/><style id="style4511-2"/><linearGradient xlink:href="#linearGradient4488" id="linearGradient4540" gradientUnits="userSpaceOnUse" gradientTransform="matrix(.3038 0 0 .30593 -62.889 2.276)" x1="288.112" y1="141.785" x2="287.575" y2="79.008"/><linearGradient osb:paint="solid" id="linearGradient5293"><stop id="stop5295" offset="0" stop-color="#9a89c0" stop-opacity="1"/></linearGradient><style id="style4511-879"/><style id="style4511-26-65"/><style id="style4511-9-2"/><style id="style4552-89"/><style id="style4511-2-1"/><style id="style4511-8"/><style id="style4511-26-4"/><style id="style4511-9-7"/><style id="style4552-3"/><style id="style4511-2-8"/><style id="style4552-7"/><style id="style4552-6"/><style id="style4552-73"/><style id="style4552-2"/><linearGradient id="linearGradient5251" osb:paint="solid"><stop offset="0" id="stop5253" stop-color="#2f343f" stop-opacity="1"/></linearGradient><style id="style4511-87"/><style id="style4511-26-6"/><style id="style4511-9-1"/><style id="style4552-8"/><style id="style4511-2-5"/><linearGradient xlink:href="#linearGradient4488" id="linearGradient4546" gradientUnits="userSpaceOnUse" gradientTransform="translate(-63.442 3.036) scale(.3038)" x1="288.112" y1="141.785" x2="287.575" y2="79.008"/></defs><style id="style4485" type="text/css"/><style type="text/css" id="style4485-34"/><style id="style4485-0" type="text/css"/><style type="text/css" id="style4485-4"/><style type="text/css" id="style4485-5"/><style type="text/css" id="style4485-3"/><style type="text/css" id="style4485-5-1"/><style id="style4485-1" type="text/css"/><g id="g2702"><path d="M2.75 26.673v1.68c0 9.641 5.583 17.403 17.146 17.403h6.93c15.132 0 17.836-11.402 17.836-17.403v-1.68c0 6.001-2.704 17.403-17.836 17.403h-6.93c-11.563 0-17.146-7.762-17.146-17.403z" id="path4516" opacity="1" fill="url(#linearGradient4540)" fill-opacity="1" stroke="none" stroke-width="1.104" stroke-linecap="square" stroke-linejoin="bevel" stroke-miterlimit="4" stroke-dasharray="none" stroke-dashoffset="0" stroke-opacity=".078"/><path d="M19.363 3.132h8.495c13.908 0 16.804 11.325 16.804 17.403v7.173c0 6.001-2.704 17.403-17.836 17.403h-6.93C8.333 45.111 2.75 37.35 2.75 27.708v-7.173c0-9.642 5.47-17.403 16.613-17.403z" id="path4518" opacity="1" fill="#f9f9f9" fill-opacity="1" stroke="#000" stroke-width=".335" stroke-linecap="square" stroke-linejoin="bevel" stroke-miterlimit="4" stroke-dasharray="none" stroke-dashoffset="0" stroke-opacity=".078"/><path id="path4528" d="M2.196 27.263v1.668c0 9.574 5.583 17.282 17.146 17.282h6.93c15.133 0 17.837-11.322 17.837-17.282v-1.668c0 5.96-2.704 17.282-17.837 17.282h-6.93c-11.563 0-17.146-7.708-17.146-17.282z" opacity="1" fill="url(#linearGradient4546)" fill-opacity="1" stroke="none" stroke-width="1.1" stroke-linecap="square" stroke-linejoin="bevel" stroke-miterlimit="4" stroke-dasharray="none" stroke-dashoffset="0" stroke-opacity=".078"/><g id="g2694"><path d="M19.571 4.265h8.031c13.148 0 15.887 10.728 15.887 16.485v6.794c0 5.685-2.557 16.485-16.863 16.485h-6.551c-10.931 0-16.21-7.352-16.21-16.485V20.75c0-9.133 5.172-16.485 15.706-16.485z" id="path4530" opacity="1" fill="#ff4b00" fill-opacity="1" stroke="#000" stroke-width=".317" stroke-linecap="square" stroke-linejoin="bevel" stroke-miterlimit="4" stroke-dasharray="none" stroke-dashoffset="0" stroke-opacity=".078"/><path transform="matrix(.9779 0 0 1.081 1.467 .908)" id="Triangle-3" fill="#fff" fill-rule="evenodd" stroke="none" stroke-width="1" d="M14.169 32.253V11.815l20.506 10.208z"/></g></g></svg>