<svg xmlns="http://www.w3.org/2000/svg" xmlns:xlink="http://www.w3.org/1999/xlink" width="48" height="48" version="1.1" id="svg38"><defs id="defs22"><linearGradient id="linearGradient4488"><stop id="stop4490" offset="0" stop-color="#000" stop-opacity=".047"/><stop id="stop4492" offset="1" stop-color="#000" stop-opacity="0"/></linearGradient><style id="style4511"/><style id="style4511-26"/><style id="style4511-9"/><style id="style4552"/><style id="style4511-2"/><linearGradient xlink:href="#linearGradient4488" id="linearGradient4477" gradientUnits="userSpaceOnUse" gradientTransform="translate(-62.724 2.216) scale(.3038)" x1="288.112" y1="141.785" x2="287.575" y2="79.008"/><style id="style4511-8"/><style id="style4511-26-4"/><style id="style4511-9-8"/><style id="style4552-5"/><style id="style4511-2-5"/></defs><style id="style4485" type="text/css"/><path id="path4473" d="M2.915 26.443v1.668c0 9.575 5.583 17.282 17.145 17.282h6.93c15.133 0 17.837-11.322 17.837-17.282v-1.668c0 5.96-2.704 17.282-17.836 17.282h-6.93c-11.563 0-17.146-7.708-17.146-17.282z" opacity="1" fill="url(#linearGradient4477)" fill-opacity="1" stroke="none" stroke-width="1.1" stroke-linecap="square" stroke-linejoin="bevel" stroke-miterlimit="4" stroke-dasharray="none" stroke-dashoffset="0" stroke-opacity=".078"/><path id="path4475" d="M19.528 2.965h8.495c13.908 0 16.804 11.246 16.804 17.282v7.123c0 5.96-2.704 17.282-17.836 17.282h-6.93c-11.563 0-17.146-7.708-17.146-17.282v-7.123c0-9.575 5.47-17.282 16.613-17.282z" opacity="1" fill="#636a82" fill-opacity="1" stroke="#000" stroke-width=".334" stroke-linecap="square" stroke-linejoin="bevel" stroke-miterlimit="4" stroke-dasharray="none" stroke-dashoffset="0" stroke-opacity=".078"/><path d="M24.156 12.318c-8.282-.002-8.73.003-8.987.087-.422.14-.704.372-.882.729l-.153.306v.896c0 .492-.014 1.132-.032 1.42l-.032.524h-2.103v1.035h3.186l.032-1.043c.017-.573.033-1.456.033-1.962v-.92l8.697-.035 8.699-.036.167.161.165.161v6.184c0 3.912-.019 6.245-.05 6.354-.046.165-.571.831-1.345 1.7-.356.4-1.57 1.754-1.803 2.012l-.125.139.368.336c.203.185.385.326.406.313.064-.04 1.841-2.019 2.454-2.733.66-.77.939-1.16 1.08-1.52.1-.251.101-.322.088-6.542l-.014-6.286-.137-.293c-.19-.404-.42-.67-.73-.84l-.265-.145zm-10.267 7.558l-.012 1.145-.014 1.146-.923.012-.924.014v1.081h2.856v-3.398h-.491zm-.1 5.812v2.659h-1.822v1.082h2.858v-3.741h-.518zm-.097 6.075v.263c0 .41.138.986.34 1.417.428.912 1.208 1.598 2.211 1.94l.378.13 5.861.024 8.556.037 2.696.012v-1.084l-7.793-.004c-4.286-.002-8.15-.019-8.587-.038-.792-.035-.797-.037-1.178-.225-.82-.405-1.451-1.343-1.451-2.155 0-.215.003-.214-.627-.277l-.406-.04z" id="path31847" fill="#fff" stroke="none" stroke-width=".019" stroke-miterlimit="4" stroke-dasharray="none" stroke-opacity="1"/><style type="text/css" id="style4485-4"/><path d="M20.802 20.644a3.514 3.514 0 0 0-1.813.342c-.773.372-1.43 1.149-1.685 1.99-.56 1.845.598 3.818 2.47 4.213h.001a3.29 3.29 0 0 0 2.94-.818c.417-.393.627-.704.854-1.267l.166-.415h3.867l.013 1.29.014 1.293h1.381v-2.609h1.33v-1.431l-3.307-.014-3.309-.014-.09-.267c-.35-1.027-1.233-1.886-2.246-2.183a3 3 0 0 0-.585-.11zm-.486 1.424A1.899 1.899 0 0 1 22.17 23.1c.15.29.161.344.161.848 0 .513-.006.55-.172.856-.212.39-.533.695-.919.872-.384.176-.991.209-1.365.074a1.907 1.907 0 0 1-1.202-1.233 1.73 1.73 0 0 1 0-1.14 1.842 1.842 0 0 1 1.642-1.309z" id="path13008" fill="#fff" fill-opacity="1" stroke="none" stroke-width="1" stroke-linecap="butt" stroke-linejoin="miter" stroke-opacity="1"/></svg>