<svg xmlns="http://www.w3.org/2000/svg" xmlns:xlink="http://www.w3.org/1999/xlink" width="48" height="48" version="1.1" id="svg38"><defs id="defs22"><linearGradient id="linearGradient4154"><stop offset="0" id="stop2" stop-color="#000" stop-opacity="1"/><stop offset="1" id="stop4" stop-color="#000" stop-opacity="0"/></linearGradient><style id="style4511"/><style id="style4511-26"/><style id="style4511-9"/><style id="style4552"/><style id="style4511-2"/><linearGradient id="linearGradient2390"><stop id="stop2386" offset="0" stop-color="#e70b22" stop-opacity="1"/><stop id="stop2388" offset="1" stop-color="#f85858" stop-opacity="1"/></linearGradient><linearGradient id="linearGradient4382"><stop offset="0" id="stop4384" stop-color="#fff"/><stop offset="1" id="stop4386" stop-color="#fff" stop-opacity="0"/></linearGradient><linearGradient id="linearGradient4259"><stop offset="0" id="stop4261" stop-color="#d9d6d0"/><stop offset=".736" id="stop4267" stop-color="#bdb8ad"/><stop offset="1" id="stop4263" stop-color="#938a79"/></linearGradient><linearGradient id="linearGradient4043"><stop offset="0" id="stop4045" stop-color="#a4967d"/><stop offset="1" id="stop4047" stop-color="#cdc6ba"/></linearGradient><linearGradient id="linearGradient3822"><stop offset="0" id="stop3824" stop-color="#d7d3cd"/><stop offset="1" id="stop3826" stop-color="#f4f3f1"/></linearGradient><linearGradient id="linearGradient3797"><stop offset="0" id="stop3799" stop-color="#e5e2dd"/><stop offset="1" id="stop3801" stop-color="#f2f1ee"/></linearGradient><linearGradient id="linearGradient3838-0"><stop offset="0" id="stop3840-4" stop-color="#d6d4cf"/><stop offset="1" id="stop3842-9" stop-color="#fbfaf9"/></linearGradient><linearGradient x1="192" y1="148" x2="192" gradientUnits="userSpaceOnUse" xlink:href="#linearGradient3797" y2="100" id="linearGradient4182-3"/><clipPath clipPathUnits="userSpaceOnUse" id="clipPath4200"><path id="rect4202" color="#000" fill="#f0f" d="M128 116h104v16H128z"/></clipPath><linearGradient x1="145.94" y1="124" x2="176" gradientUnits="userSpaceOnUse" xlink:href="#linearGradient4259" y2="124" id="linearGradient4265"/><clipPath clipPathUnits="userSpaceOnUse" id="clipPath4277"><path d="M167.47 132c-7.264.184-12.351.786-15.469 2.656-2.11 1.267-3.515 3.045-4.531 6.094-1.017 3.05-1.531 7.357-1.531 13.25s.514 10.201 1.53 13.25c1.017 3.05 2.421 4.827 4.532 6.094 3.166 1.9 8.333 2.485 15.781 2.656h2.22c3.324 0 6-2.676 6-6v-32c0-3.324-2.676-6-6-6h-2.531z" id="path4279" color="#000" opacity=".5" fill="#f0f"/></clipPath><filter id="filter4289"><feGaussianBlur stdDeviation="1.26" id="feGaussianBlur4291"/></filter><linearGradient x1="176" y1="162" x2="160" gradientUnits="userSpaceOnUse" xlink:href="#linearGradient4154" y2="162" id="linearGradient4299-6"/><linearGradient x1="192" y1="148" x2="192" gradientUnits="userSpaceOnUse" xlink:href="#linearGradient3838-0" y2="100" id="linearGradient4314"/><linearGradient x1="176.68" y1="102.4" x2="176.68" gradientUnits="userSpaceOnUse" xlink:href="#linearGradient4382" y2="144.81" id="linearGradient4388"/><linearGradient x1="176.68" y1="102.4" gradientTransform="matrix(-1 0 0 1 360 0)" x2="176.68" gradientUnits="userSpaceOnUse" xlink:href="#linearGradient4382" y2="144.81" id="linearGradient4392-7"/><radialGradient r="2.69" gradientTransform="matrix(1 0 0 7.4015 0 -781.59)" cx="177.85" cy="122.09" gradientUnits="userSpaceOnUse" id="radialGradient4519"><stop offset="0" id="stop4507" stop-color="#fff"/><stop offset="1" id="stop4509" stop-color="#fff" stop-opacity="0"/></radialGradient><filter x="-.08" y="-.12" width="1.16" height="1.24" id="filter4525"><feGaussianBlur stdDeviation="2.4" id="feGaussianBlur4527"/></filter><filter x="-.16" y="-.24" width="1.32" height="1.48" id="filter4533"><feGaussianBlur stdDeviation="4.8" id="feGaussianBlur4535"/></filter><linearGradient x1="192" y1="124.34" x2="192" gradientUnits="userSpaceOnUse" spreadMethod="reflect" y2="99.823" id="linearGradient4989"><stop offset="0" id="stop4985" stop-color="#f18137"/><stop offset=".5" id="stop4991" stop-color="#f18137" stop-opacity=".15"/><stop offset="1" id="stop4987" stop-color="#f1a737" stop-opacity="0"/></linearGradient><filter height="2.793" x="-.051" y="-.897" width="1.101" id="filter5228-9-4" color-interpolation-filters="sRGB"><feGaussianBlur stdDeviation="2.155" id="feGaussianBlur5230-6-6"/></filter><clipPath clipPathUnits="userSpaceOnUse" id="clipPath4022-0"><path d="M96 92c-16 0-24 0-24 8s8 8 24 8h320c16 0 24 0 24-8s-8-8-24-8z" id="path4024-4" color="#000" fill="#f0f"/></clipPath><filter id="filter4030-8"><feGaussianBlur stdDeviation="1.04" id="feGaussianBlur4032-0"/></filter><linearGradient y2="122.95" x2="176.65" y1="75.433" x1="176.65" gradientTransform="matrix(.4845 0 0 .38317 -2.264 255.718)" gradientUnits="userSpaceOnUse" id="linearGradient1039" xlink:href="#linearGradient3822"/><linearGradient y2="111.97" x2="176.52" y1="87.922" x1="176.52" gradientTransform="matrix(.48442 0 0 .38168 -2.243 255.867)" gradientUnits="userSpaceOnUse" id="linearGradient1041" xlink:href="#linearGradient4043"/><linearGradient y2="111.97" x2="176.52" y1="87.922" x1="176.52" gradientTransform="matrix(.26913 0 0 .38168 13.251 255.867)" gradientUnits="userSpaceOnUse" id="linearGradient1043" xlink:href="#linearGradient2390"/><radialGradient r="2.69" cy="122.09" cx="177.85" gradientTransform="matrix(1 0 0 7.4015 0 -781.59)" gradientUnits="userSpaceOnUse" id="radialGradient1061" xlink:href="#radialGradient4519"/><linearGradient spreadMethod="reflect" y2="99.823" x2="192" y1="124.34" x1="192" gradientUnits="userSpaceOnUse" id="linearGradient1063" xlink:href="#linearGradient4989"/><linearGradient y2="111.97" x2="176.52" y1="87.922" x1="176.52" gradientTransform="matrix(.49709 0 0 .38168 -3.155 255.867)" gradientUnits="userSpaceOnUse" id="linearGradient1085" xlink:href="#linearGradient2390"/><radialGradient r="2.69" cy="122.09" cx="177.85" gradientTransform="matrix(1 0 0 7.4015 0 -781.59)" gradientUnits="userSpaceOnUse" id="radialGradient1103" xlink:href="#radialGradient4519"/><linearGradient xlink:href="#linearGradient3822" id="linearGradient769" gradientUnits="userSpaceOnUse" gradientTransform="matrix(.4845 0 0 .38317 -2.264 255.718)" x1="176.65" y1="75.433" x2="176.65" y2="122.95"/><linearGradient xlink:href="#linearGradient4043" id="linearGradient771" gradientUnits="userSpaceOnUse" gradientTransform="matrix(.48442 0 0 .38168 -2.243 255.867)" x1="176.52" y1="87.922" x2="176.52" y2="111.97"/><linearGradient xlink:href="#linearGradient3797" id="linearGradient773" gradientUnits="userSpaceOnUse" x1="192" y1="148" x2="192" y2="100"/><linearGradient xlink:href="#linearGradient4259" id="linearGradient775" gradientUnits="userSpaceOnUse" x1="145.94" y1="124" x2="176" y2="124"/><linearGradient xlink:href="#linearGradient4154" id="linearGradient777" gradientUnits="userSpaceOnUse" x1="176" y1="162" x2="160" y2="162"/><linearGradient xlink:href="#linearGradient3838-0" id="linearGradient779" gradientUnits="userSpaceOnUse" x1="192" y1="148" x2="192" y2="100"/><linearGradient xlink:href="#linearGradient4259" id="linearGradient781" gradientUnits="userSpaceOnUse" x1="145.94" y1="124" x2="176" y2="124"/><linearGradient xlink:href="#linearGradient4154" id="linearGradient783" gradientUnits="userSpaceOnUse" x1="176" y1="162" x2="160" y2="162"/><linearGradient xlink:href="#linearGradient4382" id="linearGradient785" gradientUnits="userSpaceOnUse" x1="176.68" y1="102.4" x2="176.68" y2="144.81"/><linearGradient xlink:href="#linearGradient4382" id="linearGradient787" gradientUnits="userSpaceOnUse" gradientTransform="matrix(-1 0 0 1 360 0)" x1="176.68" y1="102.4" x2="176.68" y2="144.81"/><linearGradient xlink:href="#linearGradient4989" id="linearGradient789" gradientUnits="userSpaceOnUse" x1="192" y1="124.34" x2="192" y2="99.823" spreadMethod="reflect"/><linearGradient xlink:href="#linearGradient4259" id="linearGradient791" gradientUnits="userSpaceOnUse" x1="145.94" y1="124" x2="176" y2="124"/><linearGradient xlink:href="#linearGradient4154" id="linearGradient793" gradientUnits="userSpaceOnUse" x1="176" y1="162" x2="160" y2="162"/></defs><style id="style4485" type="text/css"/><path d="M19.564 2.965h8.76c14.342 0 17.329 11.246 17.329 17.282v7.123c0 5.96-2.789 17.282-18.393 17.282h-7.146c-11.923 0-17.68-7.708-17.68-17.282v-7.123c0-9.575 5.64-17.282 17.13-17.282z" id="rect4144" opacity="1" fill="#f1f0e9" fill-opacity="1" stroke="#000" stroke-width=".339" stroke-linecap="square" stroke-linejoin="bevel" stroke-miterlimit="4" stroke-dasharray="none" stroke-dashoffset="0" stroke-opacity=".078"/><g transform="matrix(.13079 0 0 .1508 7.645 -26.205)" id="g8259"><g transform="translate(-3.131 1.757)" id="g1174"><g transform="rotate(-90 147.18 306.655)" id="g1037" color="#000"><path id="path991" d="M50.062 284.84h143.412c17.442 0 21.318 0 21.318 9.195 0 9.196-3.876 9.196-21.318 9.196H50.062c-17.442 0-21.318 0-21.318-9.196s3.876-9.196 21.318-9.196z" fill="url(#linearGradient769)" stroke-width=".528"/><path id="path993" d="M28.744 293.748v.287c0 9.196 3.876 9.196 21.318 9.196h143.412c17.442 0 21.318 0 21.318-9.196v-.287c-.083 8.906-4.061 8.909-21.318 8.909H50.062c-17.256 0-21.235 0-21.318-8.91z" opacity=".6" fill="#fff" stroke-width=".528"/><path id="path995" d="M50.062 284.84c-17.442 0-21.318 0-21.318 9.195v.288c.083-8.906 4.062-8.91 21.318-8.91h143.412c17.256 0 21.235.003 21.318 8.91v-.288c0-9.196-3.876-9.196-21.318-9.196z" opacity=".05" stroke-width=".528"/><path id="path997" d="M44.248 289.437c-7.752 0-11.628 0-11.628 4.598s3.876 4.598 11.628 4.598h155.04c7.752 0 11.628 0 11.628-4.598s-3.876-4.598-11.628-4.598z" opacity=".6" fill="url(#linearGradient771)" stroke-width=".528"/><path id="path999" d="M108 84c-36 0-44 0-44 16s8 16 44 16h296c36 0 44 0 44-16s-8-16-44-16zm-17.625 9c1.75-.016 3.625 0 5.625 0h320c16 0 24-.5 24 7.5s-8 7.5-24 7.5H96c-16 0-24 .5-24-7.5 0-7 6.125-7.39 18.375-7.5z" clip-path="url(#clipPath4022-0)" transform="matrix(.4845 0 0 .57476 -2.264 236.56)" opacity=".4" filter="url(#filter4030-8)"/><path id="path1001" d="M37.566 289.437c-3.297.063-4.946.575-4.946 4.598 0 4.598 2.153 4.598 6.46 4.598h38.912v-9.196H39.08c-.538 0-1.043-.009-1.514 0z" fill="url(#linearGradient1043)" stroke-width=".393"/><path id="path1003" d="M180.09 123.42a50.987 2.884 0 1 1-101.97 0 50.987 2.884 0 1 1 101.97 0z" transform="matrix(.41589 0 0 .57476 3.095 223.067)" opacity=".3" fill="#fff229" filter="url(#filter5228-9-4)"/><g id="g1035" transform="translate(-97.63 143.037) scale(1.21549)"><path id="path1005" d="M176 101h8c24 0 32 0 32 24s-8 24-32 24h-8c-24 0-32 0-32-24s8-24 32-24z" opacity=".4" filter="url(#filter4525)"/><path id="path1007" d="M176 100h8c24 0 32 0 32 24s-8 24-32 24h-8c-24 0-32 0-32-24s8-24 32-24z" clip-path="url(#clipPath4200)" opacity=".5" stroke="#000" stroke-width="4" filter="url(#filter4533)"/><path id="path1011" d="M176 100h8c24 0 32 0 32 24s-8 24-32 24h-8c-24 0-32 0-32-24s8-24 32-24z" fill="url(#linearGradient773)"/><g id="g1017" opacity=".5"><path id="path1013" d="M167.47 102c-7.27.18-12.35.79-15.47 2.66-2.11 1.26-3.51 3.04-4.53 6.09-1.02 3.05-1.53 7.36-1.53 13.25s.51 10.2 1.53 13.25c1.02 3.05 2.42 4.83 4.53 6.09 3.17 1.9 8.33 2.49 15.78 2.66H170c3.32 0 6-2.68 6-6v-32c0-3.32-2.68-6-6-6z" opacity=".5" fill="url(#linearGradient775)"/><path id="path1015" d="M164.65 132c-9.665.184-16.434.786-20.582 2.656-2.808 1.267-4.677 3.045-6.03 6.094-1.36 3.05-2.04 7.36-2.04 13.25 0 5.893.686 10.201 2.038 13.25 1.353 3.05 3.221 4.827 6.03 6.094 4.212 1.9 11.087 2.485 20.997 2.656h2.953c4.43 0 7.99-2.68 7.99-6v-32c0-3.324-3.561-6-7.984-6h-3.368z" clip-path="url(#clipPath4277)" transform="translate(0 -30)" opacity=".2" fill="none" stroke="url(#linearGradient777)" filter="url(#filter4289)"/></g><path id="path1019" d="M176 100c-24 0-32 0-32 24s8 24 32 24h8c24 0 32 0 32-24s-8-24-32-24zm-4.31.97c1.37-.01 2.81 0 4.31 0h8c12 0 19.89.11 24.5 2.87 2.3 1.39 3.87 3.39 4.94 6.6 1.07 3.21 1.59 7.61 1.59 13.56s-.52 10.35-1.59 13.56c-1.07 3.21-2.64 5.21-4.94 6.6-4.61 2.76-12.5 2.87-24.5 2.87h-8c-12 0-19.89-.11-24.5-2.87-2.3-1.39-3.87-3.39-4.94-6.6-1.07-3.21-1.59-7.61-1.59-13.56s.52-10.35 1.59-13.56c1.07-3.21 2.64-5.21 4.94-6.6 4.03-2.41 10.57-2.81 20.19-2.87z" fill="url(#linearGradient779)"/><g id="g1025" transform="matrix(-1 0 0 1 359.94 0)" opacity=".8"><path id="path1021" d="M167.47 102c-7.264.184-12.351.786-15.469 2.656-2.11 1.266-3.515 3.044-4.531 6.094-1.017 3.05-1.531 7.357-1.531 13.25s.514 10.201 1.53 13.25c1.017 3.05 2.421 4.827 4.532 6.094 3.166 1.9 8.333 2.485 15.781 2.656h2.22c3.324 0 6-2.676 6-6v-32c0-3.324-2.676-6-6-6h-2.531z" opacity=".5" fill="url(#linearGradient781)"/><path id="path1023" d="M164.65 132c-9.665.184-16.434.786-20.582 2.656-2.808 1.267-4.677 3.045-6.03 6.094-1.36 3.05-2.04 7.36-2.04 13.25 0 5.893.686 10.201 2.038 13.25 1.353 3.05 3.221 4.827 6.03 6.094 4.212 1.9 11.087 2.485 20.997 2.656h2.953c4.43 0 7.99-2.68 7.99-6v-32c0-3.324-3.561-6-7.984-6h-3.368z" clip-path="url(#clipPath4277)" transform="translate(0 -30)" opacity=".2" fill="none" stroke="url(#linearGradient783)" filter="url(#filter4289)"/></g><path id="path1027" d="M170 102c3.32 0 6 2.68 6 6v32c0 3.32-2.68 6-6 6h1c3.32 0 6-2.68 6-6v-32c0-3.32-2.68-6-6-6z" opacity=".8" fill="url(#linearGradient785)"/><path id="path1029" d="M190 102c-3.324 0-6 2.676-6 6v32c0 3.324 2.676 6 6 6h-1c-3.324 0-6-2.676-6-6v-32c0-3.324 2.676-6 6-6z" opacity=".8" fill="url(#linearGradient787)"/><path transform="matrix(0 .69363 -1 0 298.28 -22.358)" id="path1031" d="M180.05 122.09a2.19 19.413 0 1 1-4.38 0 2.19 19.413 0 1 1 4.38 0z" fill="url(#radialGradient1061)"/><path id="path1033" d="M167.75 100.06C150.14 100.39 144 103 144 124c0 21.73 6.7 23.74 25.75 23.94C152.14 147.61 146 145 146 124s6.14-23.61 23.75-23.94c-.64.01-1.39-.01-2 0z" opacity=".3" fill="url(#linearGradient789)"/></g></g><g transform="translate(-7.918 205.61) scale(3.762)" id="g81"><path d="M6 10v48h16V10h-1z" id="path45" color="#000" fill="#313a40"/><rect x="8" y="52" width="12" height="4" rx="0" ry="0" id="rect47" color="#000" fill="#5e8e34"/><rect x="8" y="42" width="12" height="4" rx="0" ry="0" id="rect49" color="#000" fill="#788e34"/><rect x="8" y="27" width="12" height="4" rx="0" ry="0" id="rect51" color="#000" fill="#ac9b3f"/><rect x="8" y="12" width="12" height="4" rx="0" ry="0" id="rect53" color="#000" fill="#ae6840"/><rect transform="scale(1 -1)" x="8" y="-51" width="12" height="4" rx="0" ry="0" id="rect55" color="#000" fill="#6c8e34"/><rect transform="scale(1 -1)" x="8" y="-36" width="12" height="4" rx="0" ry="0" id="rect57" color="#000" fill="#adad3f"/><rect transform="scale(1 -1)" x="8" y="-21" width="12" height="4" rx="0" ry="0" id="rect59" color="#000" fill="#ae7e40"/><rect transform="scale(1 -1)" x="8" y="-41" width="12" height="4" rx="0" ry="0" id="rect61" color="#000" fill="#858e34"/><rect transform="scale(1 -1)" x="8" y="-26" width="12" height="4" rx="0" ry="0" id="rect63" color="#000" fill="#ad8f3f"/><g id="g67"><rect x="8" y="52" width="12" height="4" rx="0" ry="0" id="rect65" color="#000" fill="#a6ff56"/></g><g transform="translate(0 -5)" id="g71"><rect transform="scale(1 -1)" x="8" y="-56" width="12" height="4" rx="0" ry="0" id="rect69" color="#000" fill="#beff40"/></g><g transform="translate(0 -10)" id="g75"><rect x="8" y="52" width="12" height="4" rx="0" ry="0" id="rect73" color="#000" fill="#cbff44"/></g><g transform="translate(0 -15)" id="g79"><rect transform="scale(1 -1)" x="8" y="-56" width="12" height="4" rx="0" ry="0" id="rect77" color="#000" fill="#e7ff4e"/></g></g><g id="g1079" transform="rotate(-90 182.2 271.634)" color="#000"><path d="M50.062 284.84h143.412c17.442 0 21.318 0 21.318 9.195 0 9.196-3.876 9.196-21.318 9.196H50.062c-17.442 0-21.318 0-21.318-9.196s3.876-9.196 21.318-9.196z" id="path1034" fill="url(#linearGradient1039)" stroke-width=".528"/><path d="M28.744 293.748v.287c0 9.196 3.876 9.196 21.318 9.196h143.412c17.442 0 21.318 0 21.318-9.196v-.287c-.083 8.906-4.061 8.909-21.318 8.909H50.062c-17.256 0-21.235 0-21.318-8.91z" id="path1036" opacity=".6" fill="#fff" stroke-width=".528"/><path d="M50.062 284.84c-17.442 0-21.318 0-21.318 9.195v.288c.083-8.906 4.062-8.91 21.318-8.91h143.412c17.256 0 21.235.003 21.318 8.91v-.288c0-9.196-3.876-9.196-21.318-9.196z" id="path1038" opacity=".05" stroke-width=".528"/><path d="M44.248 289.437c-7.752 0-11.628 0-11.628 4.598s3.876 4.598 11.628 4.598h155.04c7.752 0 11.628 0 11.628-4.598s-3.876-4.598-11.628-4.598z" id="path1040" opacity=".6" fill="url(#linearGradient1041)" stroke-width=".528"/><path transform="matrix(.4845 0 0 .57476 -2.264 236.56)" clip-path="url(#clipPath4022-0)" d="M108 84c-36 0-44 0-44 16s8 16 44 16h296c36 0 44 0 44-16s-8-16-44-16zm-17.625 9c1.75-.016 3.625 0 5.625 0h320c16 0 24-.5 24 7.5s-8 7.5-24 7.5H96c-16 0-24 .5-24-7.5 0-7 6.125-7.39 18.375-7.5z" id="path1042" opacity=".4" filter="url(#filter4030-8)"/><path d="M41.756 289.437c-6.09.063-9.136.575-9.136 4.598 0 4.598 3.977 4.598 11.932 4.598h71.87v-9.196h-71.87c-.994 0-1.926-.009-2.796 0z" id="path1044" fill="url(#linearGradient1085)" stroke-width=".535"/><path transform="matrix(.7391 0 0 .57476 -22.154 223.067)" d="M180.09 123.42a50.987 2.884 0 1 1-101.97 0 50.987 2.884 0 1 1 101.97 0z" id="path1046" opacity=".3" fill="#fff229" filter="url(#filter5228-9-4)"/><g transform="translate(-64.799 143.037) scale(1.21549)" id="g1077"><path d="M176 101h8c24 0 32 0 32 24s-8 24-32 24h-8c-24 0-32 0-32-24s8-24 32-24z" id="path1048" opacity=".4" filter="url(#filter4525)"/><path clip-path="url(#clipPath4200)" d="M176 100h8c24 0 32 0 32 24s-8 24-32 24h-8c-24 0-32 0-32-24s8-24 32-24z" id="path1050" opacity=".5" stroke="#000" stroke-width="4" filter="url(#filter4533)"/><path d="M176 100h8c24 0 32 0 32 24s-8 24-32 24h-8c-24 0-32 0-32-24s8-24 32-24z" id="path1052" fill="url(#linearGradient4182-3)"/><g id="g1058" opacity=".5"><path d="M167.47 102c-7.27.18-12.35.79-15.47 2.66-2.11 1.26-3.51 3.04-4.53 6.09-1.02 3.05-1.53 7.36-1.53 13.25s.51 10.2 1.53 13.25c1.02 3.05 2.42 4.83 4.53 6.09 3.17 1.9 8.33 2.49 15.78 2.66H170c3.32 0 6-2.68 6-6v-32c0-3.32-2.68-6-6-6z" id="path1054" opacity=".5" fill="url(#linearGradient791)"/><path transform="translate(0 -30)" clip-path="url(#clipPath4277)" d="M164.65 132c-9.665.184-16.434.786-20.582 2.656-2.808 1.267-4.677 3.045-6.03 6.094-1.36 3.05-2.04 7.36-2.04 13.25 0 5.893.686 10.201 2.038 13.25 1.353 3.05 3.221 4.827 6.03 6.094 4.212 1.9 11.087 2.485 20.997 2.656h2.953c4.43 0 7.99-2.68 7.99-6v-32c0-3.324-3.561-6-7.984-6h-3.368z" id="path1056" opacity=".2" fill="none" stroke="url(#linearGradient793)" filter="url(#filter4289)"/></g><path d="M176 100c-24 0-32 0-32 24s8 24 32 24h8c24 0 32 0 32-24s-8-24-32-24zm-4.31.97c1.37-.01 2.81 0 4.31 0h8c12 0 19.89.11 24.5 2.87 2.3 1.39 3.87 3.39 4.94 6.6 1.07 3.21 1.59 7.61 1.59 13.56s-.52 10.35-1.59 13.56c-1.07 3.21-2.64 5.21-4.94 6.6-4.61 2.76-12.5 2.87-24.5 2.87h-8c-12 0-19.89-.11-24.5-2.87-2.3-1.39-3.87-3.39-4.94-6.6-1.07-3.21-1.59-7.61-1.59-13.56s.52-10.35 1.59-13.56c1.07-3.21 2.64-5.21 4.94-6.6 4.03-2.41 10.57-2.81 20.19-2.87z" id="path1060" fill="url(#linearGradient4314)"/><g transform="matrix(-1 0 0 1 359.94 0)" id="g1066" opacity=".8"><path d="M167.47 102c-7.264.184-12.351.786-15.469 2.656-2.11 1.266-3.515 3.044-4.531 6.094-1.017 3.05-1.531 7.357-1.531 13.25s.514 10.201 1.53 13.25c1.017 3.05 2.421 4.827 4.532 6.094 3.166 1.9 8.333 2.485 15.781 2.656h2.22c3.324 0 6-2.676 6-6v-32c0-3.324-2.676-6-6-6h-2.531z" id="path1062" opacity=".5" fill="url(#linearGradient4265)"/><path transform="translate(0 -30)" clip-path="url(#clipPath4277)" d="M164.65 132c-9.665.184-16.434.786-20.582 2.656-2.808 1.267-4.677 3.045-6.03 6.094-1.36 3.05-2.04 7.36-2.04 13.25 0 5.893.686 10.201 2.038 13.25 1.353 3.05 3.221 4.827 6.03 6.094 4.212 1.9 11.087 2.485 20.997 2.656h2.953c4.43 0 7.99-2.68 7.99-6v-32c0-3.324-3.561-6-7.984-6h-3.368z" id="path1064" opacity=".2" fill="none" stroke="url(#linearGradient4299-6)" filter="url(#filter4289)"/></g><path d="M170 102c3.32 0 6 2.68 6 6v32c0 3.32-2.68 6-6 6h1c3.32 0 6-2.68 6-6v-32c0-3.32-2.68-6-6-6z" id="path1069" opacity=".8" fill="url(#linearGradient4388)"/><path d="M190 102c-3.324 0-6 2.676-6 6v32c0 3.324 2.676 6 6 6h-1c-3.324 0-6-2.676-6-6v-32c0-3.324 2.676-6 6-6z" id="path1071" opacity=".8" fill="url(#linearGradient4392-7)"/><path d="M180.05 122.09a2.19 19.413 0 1 1-4.38 0 2.19 19.413 0 1 1 4.38 0z" id="path1073" transform="matrix(0 .69363 -1 0 298.28 -22.358)" fill="url(#radialGradient1103)"/><path d="M167.75 100.06C150.14 100.39 144 103 144 124c0 21.73 6.7 23.74 25.75 23.94C152.14 147.61 146 145 146 124s6.14-23.61 23.75-23.94c-.64.01-1.39-.01-2 0z" id="path1075" opacity=".3" fill="url(#linearGradient1063)"/></g></g></g></g></svg>