<svg xmlns:osb="http://www.openswatchbook.org/uri/2009/osb" xmlns="http://www.w3.org/2000/svg" xmlns:xlink="http://www.w3.org/1999/xlink" width="48" height="48" version="1.1" id="svg38"><defs id="defs22"><style id="style4511"/><style id="style4511-26"/><style id="style4511-9"/><linearGradient id="linearGradient4214"><stop offset="0" id="stop41" stop-color="#2f74c8" stop-opacity="1"/><stop offset="1" id="stop43" stop-color="#4699d7" stop-opacity="1"/></linearGradient><style id="style4552"/><style id="style4511-2"/><linearGradient osb:paint="solid" id="linearGradient5293"><stop id="stop5295" offset="0" stop-color="#9a89c0" stop-opacity="1"/></linearGradient><linearGradient xlink:href="#linearGradient4214" id="linearGradient1327" x1="2.728" y1="25.782" x2="34.764" y2="25.782" gradientUnits="userSpaceOnUse" gradientTransform="matrix(.82386 0 0 .8502 .48 6.758)"/></defs><style id="style4485" type="text/css"/><path id="path4518" d="M19.649 3.342h8.64c14.147 0 17.093 11.253 17.093 17.292v7.127c0 5.963-2.75 17.292-18.142 17.292h-7.05c-11.76 0-17.439-7.712-17.439-17.292v-7.127c0-9.58 5.564-17.292 16.898-17.292z" opacity="1" fill="#e6e6e6" fill-opacity="1" stroke="#000" stroke-width=".337" stroke-linecap="square" stroke-linejoin="bevel" stroke-miterlimit="4" stroke-dasharray="none" stroke-dashoffset="0" stroke-opacity=".078"/><path d="M25.14 12.243c-.753 0-2.214 1.856-2.761 2.149-.549.293-4.884 3.614-5.294 4.2-.411.586-.959.83-1.552.781-.594-.049-2.468-.069-3.107.322-.639.39-3.555 3.585-4.286 3.976-.73.39-1.683.59-2.139.64-.456.048-1.968 1.85-2.379 2.193-.001 0-.892.843-.89.894l-.003 3.005c-.002 1.214.193 2.412.303 3.356.027.483.19.885.31 1.293.119.411.264.879.39 1.222.135.394.217.587.349.888.138.324.28.64.423.871.122.278.268.55.398.775.153.234.303.489.465.687.15.216.346.523.52.699.146.222.456.617.63.763.203.214.63.634.839.798.235.211.933.8 1.216.968.299.195.926.578 1.3.739.339.19 1.162.6 1.619.719.853.295 2.585.703 3.142.748l1.535.123 1.503.024 1.507.037 1.514-.034c.026-.792.03-5.312.092-5.937.092-.879.41-8.253 1.597-10.207 1.187-1.953 4.578-4.298 5.764-4.542 1.187-.245.959-.733.959-1.172 0-.44-.183-1.417-.502-1.563-.32-.147-1.566.733-1.977.83-.41.098-2.373.245-2.646-.243-.274-.488 2.213-5.47 2.532-6.056.32-.586.457-1.367-.137-2.198-.593-.83-1.003-1.66-1.231-1.66zM14.742 22.608c.31-.005.52.027.52.027.174.406-.634 1.68-1.385 1.854-.75.174-2.482 2.723-2.54 2.144-.058-.58.693-2.491 1.559-3.36.541-.544 1.33-.657 1.846-.665z" id="path6" fill="url(#linearGradient1327)" fill-opacity="1" stroke-width=".504"/></svg>