<svg xmlns:osb="http://www.openswatchbook.org/uri/2009/osb" xmlns="http://www.w3.org/2000/svg" xmlns:xlink="http://www.w3.org/1999/xlink" width="48" height="48" version="1.1" id="svg38"><defs id="defs22"><linearGradient id="linearGradient4488"><stop id="stop4490" offset="0" stop-color="#000" stop-opacity=".047"/><stop id="stop4492" offset="1" stop-color="#000" stop-opacity="0"/></linearGradient><style id="style4511"/><style id="style4511-26"/><style id="style4511-9"/><style id="style4552"/><style id="style4511-2"/><linearGradient xlink:href="#linearGradient4488" id="linearGradient4540" gradientUnits="userSpaceOnUse" gradientTransform="translate(-62.889 1.994) scale(.3038)" x1="288.112" y1="141.785" x2="287.575" y2="79.008"/><linearGradient osb:paint="solid" id="linearGradient5293"><stop id="stop5295" offset="0" stop-color="#9a89c0" stop-opacity="1"/></linearGradient><clipPath id="clipPath-643011164"/></defs><style id="style4485" type="text/css"/><path id="path4516" d="M2.75 26.22v1.67c0 9.573 5.583 17.281 17.146 17.281h6.93c15.132 0 17.836-11.322 17.836-17.282v-1.668c0 5.96-2.704 17.282-17.836 17.282h-6.93C8.333 43.503 2.75 35.795 2.75 26.22z" opacity="1" fill="url(#linearGradient4540)" fill-opacity="1" stroke="none" stroke-width="1.1" stroke-linecap="square" stroke-linejoin="bevel" stroke-miterlimit="4" stroke-dasharray="none" stroke-dashoffset="0" stroke-opacity=".078"/><path id="path4518" d="M19.363 2.742h8.495c13.908 0 16.804 11.247 16.804 17.282v7.124c0 5.96-2.704 17.282-17.836 17.282h-6.93C8.333 44.43 2.75 36.722 2.75 27.148v-7.124c0-9.574 5.47-17.282 16.613-17.282z" opacity="1" fill="#e6e6e6" fill-opacity="1" stroke="#000" stroke-width=".334" stroke-linecap="square" stroke-linejoin="bevel" stroke-miterlimit="4" stroke-dasharray="none" stroke-dashoffset="0" stroke-opacity=".078"/><path id="path67" d="M18.24 27.602h17.68v8H18.24m0-8" fill="#de4b28" fill-opacity="1" fill-rule="nonzero" stroke="none" stroke-width="1.021"/><path id="path69" d="M17.145 27.602h2.114a2.086 2 0 0 1 2.086 2v4a2.086 2 0 0 1-2.086 2h-2.114a2.086 2 0 0 1-2.085-2v-4a2.086 2 0 0 1 2.085-2m0 0" fill="#de4b28" fill-opacity="1" fill-rule="nonzero" stroke="none" stroke-width="1.021"/><path id="path71" d="M32.23 28.602a2.565 2.46 0 0 0-2.575 2.469v1.063a2.565 2.46 0 0 0 2.574 2.469h3.682v-6m-3.682 0" fill="#ebddb7" fill-opacity="1" fill-rule="nonzero" stroke="none" stroke-width="1.021"/><path id="path73" d="M32.23 28.602c-.844 0-1.586.402-2.054 1h5.735v-1m-6.192 2c-.028.148-.065.305-.065.469v.531h6.256v-1m-6.192 2c.078.375.229.703.457 1h5.735v-1m-6.192 0" fill="#e3cc92" fill-opacity="1" fill-rule="nonzero" stroke="none" stroke-width="1.021"/><path id="path75" d="M14.07 19.602h17.673v8H14.07m0-8" fill="#dd7f2d" fill-opacity="1" fill-rule="nonzero" stroke="none" stroke-width="1.021"/><path id="path77" d="M12.974 19.602h2.118c1.15 0 2.082.895 2.082 2v4c0 1.105-.934 2-2.082 2h-2.118a2.086 2 0 0 1-2.085-2v-4a2.086 2 0 0 1 2.085-2m0 0" fill="#dd7f2d" fill-opacity="1" fill-rule="nonzero" stroke="none" stroke-width="1.021"/><path id="path79" d="M28.058 20.602a2.565 2.46 0 0 0-2.574 2.469v1.063a2.565 2.46 0 0 0 2.574 2.469h3.682v-6m-3.682 0" fill="#ebddb7" fill-opacity="1" fill-rule="nonzero" stroke="none" stroke-width="1.021"/><path id="path81" d="M28.058 20.602c-.843 0-1.585.402-2.053 1h5.735v-1m-6.192 2c-.028.148-.065.305-.065.469v.531h6.256v-1m-6.192 2c.077.375.229.703.457 1h5.735v-1m-6.192 0" fill="#e3cc92" fill-opacity="1" fill-rule="nonzero" stroke="none" stroke-width="1.021"/><path id="path83" d="M18.24 11.602h17.68v8H18.24m0-8" fill="#537f95" fill-opacity="1" fill-rule="nonzero" stroke="none" stroke-width="1.021"/><path id="path85" d="M17.145 11.602h2.114a2.086 2 0 0 1 2.086 2v4a2.086 2 0 0 1-2.086 2h-2.114a2.086 2 0 0 1-2.085-2v-4a2.086 2 0 0 1 2.085-2m0 0" fill="#537f95" fill-opacity="1" fill-rule="nonzero" stroke="none" stroke-width="1.021"/><path id="path87" d="M32.23 12.602a2.565 2.46 0 0 0-2.575 2.469v1.063a2.565 2.46 0 0 0 2.574 2.469h3.682v-6m-3.682 0" fill="#ebddb7" fill-opacity="1" fill-rule="nonzero" stroke="none" stroke-width="1.021"/><path id="path89" d="M32.23 12.602c-.844 0-1.586.402-2.054 1h5.735v-1m-6.192 2c-.028.148-.065.305-.065.469v.531h6.256v-1m-6.192 2c.078.375.229.703.457 1h5.735v-1m-6.192 0" fill="#e3cc92" fill-opacity="1" fill-rule="nonzero" stroke="none" stroke-width="1.021"/></svg>