<svg xmlns="http://www.w3.org/2000/svg" xmlns:xlink="http://www.w3.org/1999/xlink" width="48" height="48" version="1.1" id="svg38"><defs id="defs22"><linearGradient id="linearGradient4488"><stop id="stop4490" offset="0" stop-color="#000" stop-opacity=".047"/><stop id="stop4492" offset="1" stop-color="#000" stop-opacity="0"/></linearGradient><style id="style4511"/><style id="style4511-26"/><style id="style4511-9"/><style id="style4552"/><style id="style4511-2"/><linearGradient gradientTransform="matrix(.3082 0 0 .3038 -64.056 2.216)" xlink:href="#linearGradient4488" id="linearGradient4160" x1="288.112" y1="141.785" x2="287.575" y2="79.008" gradientUnits="userSpaceOnUse"/><linearGradient gradientTransform="rotate(-90 -4.415 46.728)" gradientUnits="userSpaceOnUse" x2="47" x1="1" id="linearGradient3764"><stop id="stop356" stop-opacity="1" stop-color="#d3d3d3"/><stop id="stop358" stop-opacity="1" stop-color="#ddd" offset="1"/></linearGradient><clipPath id="clipPath-036441573"/><linearGradient xlink:href="#linearGradient3764" id="linearGradient1294" x1="2.367" y1="23.808" x2="45.224" y2="23.808" gradientUnits="userSpaceOnUse"/></defs><style id="style4485" type="text/css"/><path d="M2.535 26.443v1.668c0 9.575 5.664 17.282 17.394 17.282h7.031c15.352 0 18.095-11.322 18.095-17.282v-1.668c0 5.96-2.743 17.282-18.095 17.282h-7.03c-11.73 0-17.395-7.708-17.395-17.282z" id="path4147" opacity="1" fill="url(#linearGradient4160)" fill-opacity="1" stroke="none" stroke-width="1.108" stroke-linecap="square" stroke-linejoin="bevel" stroke-miterlimit="4" stroke-dasharray="none" stroke-dashoffset="0" stroke-opacity=".078"/><path d="M19.389 2.965h8.618c14.11 0 17.048 11.246 17.048 17.282v7.123c0 5.96-2.743 17.282-18.095 17.282h-7.03c-11.73 0-17.395-7.708-17.395-17.282v-7.123c0-9.575 5.55-17.282 16.854-17.282z" id="rect4144" opacity="1" fill="url(#linearGradient1294)" fill-opacity="1" stroke="#000" stroke-width=".337" stroke-linecap="square" stroke-linejoin="bevel" stroke-miterlimit="4" stroke-dasharray="none" stroke-dashoffset="0" stroke-opacity=".078"/><path id="path403" d="M25.291 21.742c0 1.367.035 2.504-.625 3.715-.531.984-1.375 1.59-2.316 1.59-1.285 0-2.031-1.023-2.031-2.535 0-2.984 2.555-3.527 4.973-3.527v.758m3.375 8.531a.673.673 0 0 1-.789.086c-1.109-.965-1.309-1.414-1.922-2.336-1.836 1.961-3.133 2.547-5.516 2.547-2.816 0-5.01-1.816-5.01-5.453 0-2.84 1.473-4.777 3.566-5.723 1.813-.836 4.352-.984 6.293-1.215v-.453c0-.832.063-1.816-.402-2.535-.41-.645-1.191-.91-1.879-.91-1.277 0-2.414.684-2.691 2.102-.059.316-.277.625-.582.641l-3.246-.363c-.273-.066-.574-.297-.5-.734.75-4.109 4.305-5.352 7.484-5.352 1.629 0 3.758.453 5.04 1.742 1.629 1.59 1.473 3.711 1.473 6.02v5.453c0 1.641.648 2.359 1.262 3.246.215.313.262.695-.008.93-.684.602-1.898 1.703-2.566 2.324l-.012-.012" fill="#201f1f" fill-opacity="1" fill-rule="evenodd" stroke="none"/><path id="path405" d="M33.931 33.27c-2.848 2.148-6.973 3.297-10.527 3.297-4.98 0-9.465-1.887-12.859-5.03-.266-.246-.027-.582.293-.391 3.66 2.184 8.191 3.496 12.867 3.496 3.152 0 6.625-.668 9.813-2.059.484-.207.887.324.414.684" fill="#f90" fill-opacity="1" fill-rule="evenodd" stroke="none"/><path id="path407" d="M35.115 31.882c-.363-.477-2.406-.227-3.32-.113-.281.035-.324-.215-.07-.395 1.625-1.172 4.297-.836 4.605-.441.313.395-.078 3.137-1.609 4.445-.234.203-.457.094-.352-.172.34-.879 1.113-2.848.746-3.324" fill="#f90" fill-opacity="1" fill-rule="evenodd" stroke="none"/></svg>