<svg xmlns="http://www.w3.org/2000/svg" xmlns:xlink="http://www.w3.org/1999/xlink" width="48" height="48" version="1.1" id="svg38"><defs id="defs22"><linearGradient id="linearGradient4488"><stop id="stop4490" offset="0" stop-color="#000" stop-opacity=".047"/><stop id="stop4492" offset="1" stop-color="#000" stop-opacity="0"/></linearGradient><style id="style4511"/><style id="style4511-26"/><style id="style4511-9"/><style id="style4552"/><style id="style4511-2"/><linearGradient xlink:href="#linearGradient4488" id="linearGradient4544" gradientUnits="userSpaceOnUse" gradientTransform="translate(-62.887 1.994) scale(.3038)" x1="288.112" y1="141.785" x2="287.575" y2="79.008"/></defs><style id="style4485" type="text/css"/><path id="path4524" d="M2.752 26.22v1.67c0 9.573 5.583 17.281 17.146 17.281h6.93c15.133 0 17.837-11.322 17.837-17.282v-1.668c0 5.96-2.704 17.282-17.837 17.282h-6.93c-11.563 0-17.146-7.708-17.146-17.282z" opacity="1" fill="url(#linearGradient4544)" fill-opacity="1" stroke="none" stroke-width="1.1" stroke-linecap="square" stroke-linejoin="bevel" stroke-miterlimit="4" stroke-dasharray="none" stroke-dashoffset="0" stroke-opacity=".078"/><path id="path4526" d="M19.365 2.742h8.495c13.908 0 16.805 11.247 16.805 17.282v7.124c0 5.96-2.705 17.282-17.837 17.282h-6.93c-11.563 0-17.146-7.708-17.146-17.282v-7.124c0-9.574 5.47-17.282 16.613-17.282z" opacity="1" fill="#77a3ee" fill-opacity="1" stroke="#000" stroke-width=".334" stroke-linecap="square" stroke-linejoin="bevel" stroke-miterlimit="4" stroke-dasharray="none" stroke-dashoffset="0" stroke-opacity=".078"/><g id="g4469" transform="translate(-3.473 -2.554)" fill="#fff"><circle id="path4609-7-9" cx="27.182" cy="26.14" r="14.296" fill-opacity=".235" stroke="#fff" stroke-width=".381" stroke-miterlimit="4" stroke-dasharray="none" stroke-opacity="1"/><path id="path2-2-6-3" d="M24.87 38.13c-2.76-.277-4.185-1.046-5.606-2.444-.574-.565-.964-1.084-1.289-1.715-.686-1.337-.9-2.84-.565-3.953.334-1.105 1.094-2.324 2.163-3.47.594-.637 1.012-1.192 1.287-1.712.331-.626.415-.96.387-1.54-.027-.564-.141-.636-.459-.893-.3-.243-1.1-.292-2.031-.248-.91.042-1.355-.012-1.79-.217-.336-.158-.456-.337-.352-.528.094-.172.572-.614 1.163-.79.264-.078.472-.162.463-.185-.009-.023-.217-.19-.462-.37-1-.737-1.597-1.567-1.597-2.386 0-.227.024-.301.134-.402.12-.11.17-.12.477-.093.188.017.528.103.756.192.554.217 1.248.205 1.808.131.234-.03.48-.091.547-.134.067-.044.251-.3.408-.57.612-1.053 1.26-1.733 1.986-2.083.837-.404 2.02-.62 3.144-.574 1.35.055 2.497.51 3.434 1.362.644.585 1.07.731 1.683.578.43-.109.44-.108.44.024 0 .173-.141.397-.359.568l-.2.157.202.117c.278.161.245.29-.086.337-.276.039-.483.128-.483.208 0 .029.04.274.088.546.119.666.077 1.758-.085 2.395-.25.989-.629 1.685-1.276 2.346-.496.506-1.074.903-1.623 1.114-.372.143-.472.233-.26.233.063 0 .412.026.777.057 1.335.116 2.284.672 3.624 1.28 1.267.575 1.805.837 2.505.489.448-.222 1.198-1.511 1.677-2.14.409-.536.594-.662.974-.662.373 0 .587.137.87.556.398.593.616 1.232.77 2.266.111.738.08 2.771-.057 3.507-.82 4.4-3.702 7.362-8.103 8.327-1.188.26-1.667.307-3.313.323-.854.01-1.65.006-1.77-.005z" fill-opacity="1" stroke-width=".606"/></g></svg>