<svg xmlns="http://www.w3.org/2000/svg" xmlns:xlink="http://www.w3.org/1999/xlink" width="48" height="48" version="1.1" id="svg38"><defs id="defs22"><linearGradient id="linearGradient4488"><stop id="stop4490" offset="0" stop-color="#000" stop-opacity=".047"/><stop id="stop4492" offset="1" stop-color="#000" stop-opacity="0"/></linearGradient><style id="style4511"/><style id="style4511-26"/><style id="style4511-9"/><style id="style4552"/><style id="style4511-2"/><linearGradient gradientTransform="translate(-63.205 2.216) scale(.3038)" xlink:href="#linearGradient4488" id="linearGradient4160" x1="288.112" y1="141.785" x2="287.575" y2="79.008" gradientUnits="userSpaceOnUse"/><linearGradient gradientUnits="userSpaceOnUse" gradientTransform="rotate(-90 -8.496 57.564)" x2="47" x1="1" id="linearGradient3764"><stop offset="0" id="stop2-367535" stop-color="#0c8a7e"/><stop offset="1" id="stop4-6" stop-color="#0e9c8f"/></linearGradient><linearGradient xlink:href="#linearGradient3764" id="linearGradient1203" x1="2.266" y1="23.808" x2="44.513" y2="23.808" gradientUnits="userSpaceOnUse"/></defs><style id="style4485" type="text/css"/><path d="M2.433 26.443v1.668c0 9.575 5.583 17.282 17.146 17.282h6.93c15.133 0 17.837-11.322 17.837-17.282v-1.668c0 5.96-2.704 17.282-17.837 17.282h-6.93c-11.563 0-17.146-7.708-17.146-17.282z" id="path4147" opacity="1" fill="url(#linearGradient4160)" fill-opacity="1" stroke="none" stroke-width="1.1" stroke-linecap="square" stroke-linejoin="bevel" stroke-miterlimit="4" stroke-dasharray="none" stroke-dashoffset="0" stroke-opacity=".078"/><path d="M19.046 2.965h8.495c13.908 0 16.805 11.246 16.805 17.282v7.123c0 5.96-2.704 17.282-17.837 17.282h-6.93c-11.562 0-17.146-7.708-17.146-17.282v-7.123c0-9.575 5.47-17.282 16.613-17.282z" id="rect4144" opacity="1" fill="url(#linearGradient1203)" fill-opacity="1" stroke="#000" stroke-width=".334" stroke-linecap="square" stroke-linejoin="bevel" stroke-miterlimit="4" stroke-dasharray="none" stroke-dashoffset="0" stroke-opacity=".078"/><g id="g1207" transform="translate(.288)"><path d="M17.966 12.1v1l1.613 1.614-2.613 1.766v2.62h14v-3l-2.5-1.5 1.5-1.5v-1h-1l-1.75 1.75-1.25-.75h-4l-1.194.807-1.806-1.806zm2 4h1v1h-1zm7 0h1v1h-1zm-14 4v10h3v-10zm4 0v13h3v5h3v-5h2v5h3v-5h3v-13zm15 0v10h3v-10z" id="path4560" opacity=".1"/><path d="M16.966 11.1v1l1.613 1.614-2.613 1.766v2.62h14v-3l-2.5-1.5 1.5-1.5v-1h-1l-1.75 1.75-1.25-.75h-4l-1.194.807-1.806-1.806h-1zm2 4h1v1h-1zm7 0h1v1h-1zm-14 4v10h3v-10zm4 0v13h3v5h3v-5h2v5h3v-5h3v-13zm15 0v10h3v-10z" id="rect4524" fill="#f9f9f9"/></g></svg>