<svg xmlns="http://www.w3.org/2000/svg" xmlns:xlink="http://www.w3.org/1999/xlink" width="48" height="48" version="1.1" id="svg38"><defs id="defs22"><linearGradient id="linearGradient4488"><stop id="stop4490" offset="0" stop-color="#000" stop-opacity=".047"/><stop id="stop4492" offset="1" stop-color="#000" stop-opacity="0"/></linearGradient><style id="style4511"/><style id="style4511-26"/><style id="style4511-9"/><style id="style4552"/><style id="style4511-2"/><linearGradient xlink:href="#linearGradient4488" id="linearGradient4546" gradientUnits="userSpaceOnUse" gradientTransform="translate(-62.497 1.994) scale(.3038)" x1="288.112" y1="141.785" x2="287.575" y2="79.008"/></defs><style id="style4485" type="text/css"/><path d="M3.141 26.22v1.67c0 9.573 5.583 17.281 17.146 17.281h6.93c15.133 0 17.837-11.322 17.837-17.282v-1.668c0 5.96-2.704 17.282-17.837 17.282h-6.93c-11.563 0-17.146-7.708-17.146-17.282z" id="path4528" opacity="1" fill="url(#linearGradient4546)" fill-opacity="1" stroke="none" stroke-width="1.1" stroke-linecap="square" stroke-linejoin="bevel" stroke-miterlimit="4" stroke-dasharray="none" stroke-dashoffset="0" stroke-opacity=".078"/><path d="M19.754 2.742h8.495c13.908 0 16.805 11.247 16.805 17.282v7.124c0 5.96-2.704 17.282-17.837 17.282h-6.93c-11.562 0-17.146-7.708-17.146-17.282v-7.124c0-9.574 5.47-17.282 16.613-17.282z" id="path4530" opacity="1" fill="#7cb842" fill-opacity="1" stroke="#000" stroke-width=".334" stroke-linecap="square" stroke-linejoin="bevel" stroke-miterlimit="4" stroke-dasharray="none" stroke-dashoffset="0" stroke-opacity=".078"/><g transform="matrix(.02337 .02312 -.02312 .02337 37.737 -14.998)" style="line-height:125%;-inkscape-font-specification:Ubuntu;text-align:start" id="g13973" font-style="normal" font-variant="normal" font-weight="400" font-stretch="normal" font-size="550" font-family="Ubuntu" letter-spacing="0" word-spacing="0" writing-mode="lr-tb" text-anchor="start" fill="#fff" fill-opacity="1" stroke="#fff" stroke-width="0" stroke-miterlimit="4" stroke-dasharray="none" stroke-opacity="1"><path d="M38.547 31.305c-.47.049-.913.257-1.326.603-.7.598-.932 1.392-.932 2.29v8.415a14.176 14.176 0 0 0 4.996-3.94l.002-4.468c0-.23 0-.46-.035-.682-.162-.948-.666-1.657-1.563-2.033a2.53 2.53 0 0 0-.664-.18 2.13 2.13 0 0 0-.478-.005zm-28.881.029a2.461 2.461 0 0 0-1.172.156c-.957.376-1.588 1.359-1.588 2.512v4.797c1.31 1.601 2.97 2.92 4.98 3.879.009-3.569.014-7.737-.027-9.045-.038-1.25-1.041-2.172-2.193-2.299zm3.629.43c-.35 0-.428.118-.428.443.017 1.47.01 2.93.01 4.398v6.522c2.118.836 4.583 1.303 7.41 1.303h6.93c3.238 0 5.902-.522 8.097-1.395 0-4.192 0-8.936.002-10.87 0-.326-.11-.401-.417-.401-7.201.008-14.403.008-21.604 0z" transform="rotate(-44.686 1123.784 1170.379) scale(30.41762)" id="path4876-3"/><path d="M390.1 162.4H127.4c2.4-49.4 25.2-85.9 67.4-111.1-3.8-7.3-7.4-14.3-11.1-21.4-2.9-5.6-5.8-11.2-8.9-16.7-1.5-2.7-2.1-5.2.9-6.9 2.9-1.6 4.4.5 5.7 3 6.1 11.7 12.3 23.2 18.5 34.9.6 1.1 1.3 2.2 2.2 3.6 37.8-16.6 75.6-16.7 114 .1 3-5.7 6.1-11.3 9.1-17l11.4-21.6c1.3-2.4 3-4.8 5.6-2.8 1.3 1 1.8 4.7 1 6.3-5.3 10.9-11.1 21.6-16.8 32.3-1 1.9-2 3.8-3.2 6.3 30 17.1 50.8 41.8 61.4 74.5 3.8 11.7 6 23.8 5.5 36.5zm-59.2-61.9c0-6.7-4.7-11.6-11-11.8-6.3-.1-11.4 4.9-11.5 11.4-.1 6.8 4.7 12.2 11.1 12.2 6.8.1 11.4-4.8 11.4-11.8zm-132.4 11.8c6.4-.1 11.1-5.2 11.1-12.2-.1-6.5-5-11.5-11.3-11.4-6.2 0-11 5.1-11.1 11.7-.1 7 4.7 12 11.3 11.9z" id="path4536-2-8" transform="rotate(-44.686 1718.552 840.745) scale(2.59826)"/></g></svg>