<svg xmlns="http://www.w3.org/2000/svg" width="48" height="48" version="1.1" id="svg38"><defs id="defs22"><style id="style4511"/><style id="style4511-26"/><style id="style4511-9"/><style id="style4552"/><style id="style4511-2"/></defs><style id="style4485" type="text/css"/><g id="g1278"><path d="M19.694 3.174h8.495c13.908 0 16.805 11.247 16.805 17.282v7.123c0 5.96-2.704 17.282-17.837 17.282h-6.93c-11.562 0-17.146-7.708-17.146-17.282v-7.123c0-9.574 5.47-17.282 16.613-17.282z" id="path4510" opacity="1" fill="#7cb842" fill-opacity="1" stroke="#000" stroke-width=".334" stroke-linecap="square" stroke-linejoin="bevel" stroke-miterlimit="4" stroke-dasharray="none" stroke-dashoffset="0" stroke-opacity=".078"/><g transform="matrix(.5924 0 0 .56666 2.74 -125.057)" id="g983" stroke-width=".225"><path d="M55.085 280.665a1.596 1.596 0 0 0-.202-.631l-7.21-12.504-2.388-4.168-4.46-7.705-3.403 3.402 4.19 7.277 2.299 3.988 6.961 12.03c.113.203.27.361.451.474l3.47 2.365a.42.42 0 0 0 .428.023.443.443 0 0 0 .202-.383z" id="path1354" fill="#e1e1e1"/><path d="M48.484 254.71c0 3.29-1.216 6.309-3.222 8.652a13.31 13.31 0 0 1-3.65 2.974 13.06 13.06 0 0 1-6.398 1.644 13.16 13.16 0 0 1-6.376-1.644l4.19-7.277-3.401-3.402-14.081 24.377c-.113.203-.18.405-.203.63l-.316 4.191c-.022.158.068.293.203.383.135.09.293.068.428-.022l3.47-2.343c.18-.135.338-.293.45-.473l6.962-12.054a17.739 17.739 0 0 0 8.697 2.276c3.154 0 6.128-.834 8.696-2.276a17.602 17.602 0 0 0 3.74-2.794c3.335-3.244 5.43-7.795 5.43-12.819z" id="path1360" fill="#f1f1f1"/><path d="M39.54 245.496h-1.442v-4.641h-5.745v4.641h-1.465a2.606 2.606 0 0 0-2.59 2.59v5.881h.022c-.022.225.113.473.406.766l5.204 5.204c.36.36.834.541 1.284.541v-.022l.023.022c.473 0 .946-.18 1.284-.54l5.204-5.205c.293-.293.406-.563.406-.766h.022v-5.858c-.022-1.442-1.171-2.613-2.613-2.613zm-4.303 9.214h-.023c-1.892 0-3.447-1.554-3.447-3.47 0-1.914 1.555-3.469 3.447-3.469v-.045l.023.045c1.892.023 3.447 1.555 3.447 3.47 0 1.915-1.555 3.447-3.447 3.47z" id="path1374" fill="#646464"/></g></g></svg>