<svg xmlns="http://www.w3.org/2000/svg" xmlns:xlink="http://www.w3.org/1999/xlink" width="48" height="48" version="1.1" id="svg38"><defs id="defs22"><linearGradient id="linearGradient4488"><stop id="stop4490" offset="0" stop-color="#000" stop-opacity=".047"/><stop id="stop4492" offset="1" stop-color="#000" stop-opacity="0"/></linearGradient><style id="style4511"/><style id="style4511-26"/><style id="style4511-9"/><style id="style4552"/><style id="style4511-2"/><linearGradient gradientTransform="translate(-63.205 2.216) scale(.3038)" xlink:href="#linearGradient4488" id="linearGradient4160" x1="288.112" y1="141.785" x2="287.575" y2="79.008" gradientUnits="userSpaceOnUse"/><clipPath clipPathUnits="userSpaceOnUse" id="clipPath232"><path d="M0 512h512V0H0v512z" id="path234"/></clipPath></defs><style id="style4485" type="text/css"/><path d="M19.046 2.965h8.495c13.908 0 16.805 11.246 16.805 17.282v7.123c0 5.96-2.704 17.282-17.837 17.282h-6.93c-11.562 0-17.146-7.708-17.146-17.282v-7.123c0-9.575 5.47-17.282 16.613-17.282z" id="rect4144" opacity="1" fill="#1a1a1a" fill-opacity="1" stroke="#000" stroke-width=".334" stroke-linecap="square" stroke-linejoin="bevel" stroke-miterlimit="4" stroke-dasharray="none" stroke-dashoffset="0" stroke-opacity=".078"/><path d="M2.433 26.443v1.668c0 9.575 5.583 17.282 17.146 17.282h6.93c15.133 0 17.837-11.322 17.837-17.282v-1.668c0 5.96-2.704 17.282-17.837 17.282h-6.93c-11.563 0-17.146-7.708-17.146-17.282z" id="path4147" opacity="1" fill="url(#linearGradient4160)" fill-opacity="1" stroke="none" stroke-width="1.1" stroke-linecap="square" stroke-linejoin="bevel" stroke-miterlimit="4" stroke-dasharray="none" stroke-dashoffset="0" stroke-opacity=".078"/><path d="M20.311 20.51l2.053 3.917a.861.81 0 0 0 .649.443l4.59.628c.707.097.99.914.478 1.383L24.76 29.93a.862.811 0 0 0-.248.718l.785 4.304c.12.663-.618 1.168-1.25.855l-4.106-2.032a.862.811 0 0 0-.802 0l-4.106 2.032c-.632.313-1.37-.192-1.25-.855l.784-4.304a.861.81 0 0 0-.248-.718l-3.322-3.049c-.511-.469-.229-1.286.478-1.383l4.59-.628a.861.81 0 0 0 .65-.443l2.052-3.917c.316-.603 1.23-.603 1.545 0" id="path238" fill="#0098ff" fill-opacity="1" fill-rule="nonzero" stroke="none" stroke-width=".147"/><path d="M30.794 12.006l1.342 2.559a.563.53 0 0 0 .424.29l3 .41c.461.063.646.597.312.904L33.7 18.16a.562.53 0 0 0-.162.469l.513 2.813c.078.432-.404.763-.817.558l-2.683-1.328a.563.53 0 0 0-.524 0L27.343 22c-.412.205-.895-.126-.816-.558l.512-2.813a.563.53 0 0 0-.162-.47l-2.17-1.991c-.335-.307-.15-.84.311-.904l3-.41a.563.53 0 0 0 .424-.29l1.342-2.56c.206-.393.803-.393 1.01 0" id="path242" fill="#0098ff" fill-opacity="1" fill-rule="nonzero" stroke="none" stroke-width=".147"/></svg>