<svg xmlns="http://www.w3.org/2000/svg" xmlns:xlink="http://www.w3.org/1999/xlink" width="48" height="48" version="1.1" id="svg38"><defs id="defs22"><linearGradient id="linearGradient4245"><stop id="stop1442" offset="0" stop-color="#c58d67" stop-opacity=".996"/><stop id="stop1444" offset="1" stop-color="#e6aa81" stop-opacity=".996"/></linearGradient><linearGradient id="linearGradient4488"><stop id="stop4490" offset="0" stop-color="#000" stop-opacity=".047"/><stop id="stop4492" offset="1" stop-color="#000" stop-opacity="0"/></linearGradient><style id="style4511"/><style id="style4511-26"/><style id="style4511-9"/><style id="style4552"/><style id="style4511-2"/><linearGradient xlink:href="#linearGradient4488" id="linearGradient4546" gradientUnits="userSpaceOnUse" gradientTransform="translate(-62.497 1.994) scale(.3038)" x1="288.112" y1="141.785" x2="287.575" y2="79.008"/><linearGradient xlink:href="#linearGradient4245" id="linearGradient1440" x1="2.974" y1="23.586" x2="45.221" y2="23.586" gradientUnits="userSpaceOnUse"/></defs><style id="style4485" type="text/css"/><g id="g1452" fill-opacity="1"><path id="path4528" d="M3.141 26.22v1.67c0 9.573 5.583 17.281 17.146 17.281h6.93c15.133 0 17.837-11.322 17.837-17.282v-1.668c0 5.96-2.704 17.282-17.837 17.282h-6.93c-11.563 0-17.146-7.708-17.146-17.282z" opacity="1" fill="url(#linearGradient4546)" stroke="none" stroke-width="1.1" stroke-linecap="square" stroke-linejoin="bevel" stroke-miterlimit="4" stroke-dasharray="none" stroke-dashoffset="0" stroke-opacity=".078"/><path id="path4530" d="M19.754 2.742h8.495c13.908 0 16.805 11.247 16.805 17.282v7.124c0 5.96-2.704 17.282-17.837 17.282h-6.93c-11.562 0-17.146-7.708-17.146-17.282v-7.124c0-9.574 5.47-17.282 16.613-17.282z" opacity="1" fill="url(#linearGradient1440)" stroke="#000" stroke-width=".334" stroke-linecap="square" stroke-linejoin="bevel" stroke-miterlimit="4" stroke-dasharray="none" stroke-dashoffset="0" stroke-opacity=".078"/><g transform="matrix(.87582 0 0 .78027 51.619 5.79)" id="g1432" stroke="none"><path id="path1969" d="M-26.812 8.809c9.061 0 10.357 1.313 10.357 10.518V26.7c0 9.206-1.296 10.52-10.357 10.52h-9.223c-9.062 0-10.357-1.314-10.357-10.52v-7.372c0-9.205 1.295-10.518 10.357-10.518z" display="inline" opacity="1" fill="#d8d8d8" stroke-width=".252" stroke-linecap="round" stroke-linejoin="round" stroke-miterlimit="4" stroke-dasharray="none" stroke-dashoffset="0" stroke-opacity="1"/><path style="marker:none" d="M-37.39 15.235v15.63s7.796-3.204 14.167-7.82l-.002-.004a.015.015 0 0 0-.003-.005l-.003-.005-.002-.005c-6.72-4.763-14.158-7.79-14.158-7.79z" id="path4360" color="#000" display="inline" overflow="visible" visibility="visible" fill="#fb4a4a" fill-rule="nonzero" stroke-width=".388"/></g></g></svg>