<svg xmlns:osb="http://www.openswatchbook.org/uri/2009/osb" xmlns="http://www.w3.org/2000/svg" xmlns:xlink="http://www.w3.org/1999/xlink" width="48" height="48" version="1.1" id="svg38"><defs id="defs22"><linearGradient id="linearGradient4488"><stop id="stop4490" offset="0" stop-color="#000" stop-opacity=".047"/><stop id="stop4492" offset="1" stop-color="#000" stop-opacity="0"/></linearGradient><style id="style4511"/><style id="style4511-26"/><style id="style4511-9"/><style id="style4552"/><style id="style4511-2"/><linearGradient xlink:href="#linearGradient4488" id="linearGradient4540" gradientUnits="userSpaceOnUse" gradientTransform="matrix(.30902 0 0 .31307 -64.017 1.97)" x1="288.112" y1="141.785" x2="287.575" y2="79.008"/><linearGradient osb:paint="solid" id="linearGradient5293"><stop id="stop5295" offset="0" stop-color="#9a89c0" stop-opacity="1"/></linearGradient><linearGradient id="linearGradient34" spreadMethod="pad" gradientTransform="scale(40.94882 -40.94882) rotate(45 4.962 7.41)" gradientUnits="userSpaceOnUse" y2="0" x2="1" y1="0" x1="0"><stop id="stop36" offset="0" stop-opacity="1" stop-color="#ed1c24"/><stop id="stop38" offset="1" stop-opacity="1" stop-color="#bf1b2c"/></linearGradient><linearGradient gradientUnits="userSpaceOnUse" y2="277.311" x2="51.796" y1="247.421" x1="16.959" id="linearGradient1616" xlink:href="#linearGradient34" gradientTransform="matrix(.4783 0 0 .46138 7.601 -96.872)"/></defs><style id="style4485" type="text/css"/><path id="path4516" d="M2.75 26.937v1.72c0 9.866 5.68 17.809 17.44 17.809h7.05c15.392 0 18.143-11.668 18.143-17.81v-1.72c0 6.142-2.75 17.81-18.143 17.81h-7.05c-11.76 0-17.44-7.943-17.44-17.81z" opacity="1" fill="url(#linearGradient4540)" fill-opacity="1" stroke="none" stroke-width="1.126" stroke-linecap="square" stroke-linejoin="bevel" stroke-miterlimit="4" stroke-dasharray="none" stroke-dashoffset="0" stroke-opacity=".078"/><path id="path4518" d="M19.649 2.742h8.64c14.148 0 17.094 11.59 17.094 17.81v7.34c0 6.141-2.75 17.81-18.143 17.81h-7.05c-11.76 0-17.44-7.944-17.44-17.81v-7.34c0-9.867 5.564-17.81 16.899-17.81z" opacity="1" fill="#e6e6e6" fill-opacity="1" stroke="#000" stroke-width=".342" stroke-linecap="square" stroke-linejoin="bevel" stroke-miterlimit="4" stroke-dasharray="none" stroke-dashoffset="0" stroke-opacity=".078"/><path d="M18.724 14.187c4.836-4.62 6.249-4.57 11.305.409l4.05 3.987c5.057 4.978 5.087 6.35.25 10.97l-4.92 4.702c-4.836 4.62-6.25 4.57-11.306-.409l-4.05-3.987c-5.056-4.979-5.087-6.35-.25-10.97z" id="path1973" display="inline" stroke-miterlimit="4" opacity="1" fill="url(#linearGradient1616)" fill-opacity="1" stroke="none" stroke-width=".19" stroke-linecap="round" stroke-linejoin="round" stroke-dasharray="none" stroke-dashoffset="0" stroke-opacity="1"/><path id="path1618" d="M17.547 11.978c5.901-5.639 7.625-5.577 13.796.499l4.941 4.865c6.171 6.075 6.208 7.748.307 13.386l-6.006 5.739c-5.901 5.638-7.625 5.577-13.796-.498l-4.942-4.866c-6.17-6.076-6.208-7.749-.306-13.387z" display="inline" stroke-miterlimit="4" opacity="1" fill="none" fill-opacity="1" stroke="#ababab" stroke-width=".76" stroke-linecap="round" stroke-linejoin="round" stroke-dasharray="none" stroke-dashoffset="0" stroke-opacity="1"/></svg>