<svg xmlns:osb="http://www.openswatchbook.org/uri/2009/osb" xmlns="http://www.w3.org/2000/svg" xmlns:xlink="http://www.w3.org/1999/xlink" width="48" height="48" version="1.1" id="svg38"><defs id="defs22"><linearGradient id="linearGradient4488"><stop id="stop4490" offset="0" stop-color="#000" stop-opacity=".047"/><stop id="stop4492" offset="1" stop-color="#000" stop-opacity="0"/></linearGradient><style id="style4511"/><style id="style4511-26"/><style id="style4511-9"/><style id="style4552"/><style id="style4511-2"/><linearGradient xlink:href="#linearGradient4488" id="linearGradient4540" gradientUnits="userSpaceOnUse" gradientTransform="translate(-62.889 1.994) scale(.3038)" x1="288.112" y1="141.785" x2="287.575" y2="79.008"/><linearGradient osb:paint="solid" id="linearGradient5293"><stop id="stop5295" offset="0" stop-color="#9a89c0" stop-opacity="1"/></linearGradient><linearGradient id="linearGradient-13-1" y2="18.888" x2="32.763" y1="18.888" x1="52.625" gradientTransform="scale(.75328 1.32752)" gradientUnits="userSpaceOnUse"><stop id="stop1244" offset="0%" stop-color="#FF8964"/><stop id="stop1246" offset="100%" stop-color="#FFCE56"/></linearGradient><linearGradient xlink:href="#linearGradient-13-1" id="linearGradient1477" x1="18.751" y1="23.764" x2="44.723" y2="23.764" gradientUnits="userSpaceOnUse"/></defs><style id="style4485" type="text/css"/><path id="path4516" d="M2.75 26.22v1.67c0 9.573 5.583 17.281 17.146 17.281h6.93c15.132 0 17.836-11.322 17.836-17.282v-1.668c0 5.96-2.704 17.282-17.836 17.282h-6.93C8.333 43.503 2.75 35.795 2.75 26.22z" opacity="1" fill="url(#linearGradient4540)" fill-opacity="1" stroke="none" stroke-width="1.1" stroke-linecap="square" stroke-linejoin="bevel" stroke-miterlimit="4" stroke-dasharray="none" stroke-dashoffset="0" stroke-opacity=".078"/><path id="path4518" d="M19.363 2.742h8.495c13.908 0 16.804 11.247 16.804 17.282v7.124c0 5.96-2.704 17.282-17.836 17.282h-6.93C8.333 44.43 2.75 36.722 2.75 27.148v-7.124c0-9.574 5.47-17.282 16.613-17.282z" opacity="1" fill="#d30b66" fill-opacity="1" stroke="#000" stroke-width=".334" stroke-linecap="square" stroke-linejoin="bevel" stroke-miterlimit="4" stroke-dasharray="none" stroke-dashoffset="0" stroke-opacity=".078"/><path d="M19.267 2.736l-.83.015c-.3.005-.712.028-.971.056-.94.893-3.532 3.815-4.043 4.322-.835.828-1.963 1.914-2.507 2.412-.544.497-1.756 1.628-2.694 2.511a163.77 163.77 0 0 1-2.16 2.01c-.51.45-2.25 2.082-2.986 2.8-.047.046-.09.103-.143.154-.114.679-.254 1.589-.25 2.407l.052 9.305c0 .105.145.931.17 1.194 1.025-1.68 2.197-3.558 3.363-5.472A57401.897 57401.897 0 0 1 15.54 9.241c1.202-1.972 3.515-5.194 4.318-6.51z" id="path925" fill="#8cda6c" stroke-width=".893" fill-opacity="1"/><path d="M43.95 32.62c.249-.743.692-2.817.694-3.13l.079-9.413c.005-.555-.237-3.423-.46-4.46-.115-.613-.318-1.23-.517-1.775a15.285 15.285 0 0 0-.632-1.698c-.164-.49-.445-1.023-.654-1.418a12.707 12.707 0 0 0-.65-1.161c-.235-.375-.455-.662-.683-.967-.228-.306-.47-.612-.746-.905-.28-.297-.458-.51-.748-.78-.286-.265-.59-.543-.903-.781-.312-.242-.404-.365-.814-.616-.403-.247-.706-.464-1.145-.712-.509-.264-.778-.394-1.261-.632a16.116 16.116 0 0 0-1.769-.668c-.288-.085-1.536-.392-1.827-.404-6.609 13.188-12.038 29.452-13.163 41.32l8.26.007a25.24 25.24 0 0 0 2.442-.1z" id="path912" fill="url(#linearGradient1477)" stroke-width=".96" fill-opacity="1"/><path d="M3.647 14.293c.048-.044.104-.057.146-.097a114.4 114.4 0 0 1 2.691-2.44c.225-.195 1.097-.99 1.939-1.768.84-.778 1.929-1.772 2.417-2.21a96.78 96.78 0 0 0 2.248-2.12c.458-.446 1.813-1.832 2.657-2.617a13.52 13.52 0 0 0-2.497.598c-3.705 3.783-6.55 6.76-9.547 9.896a6.604 6.604 0 0 0-.254.868z" id="path909" fill="#b8da6c" fill-opacity="1" stroke-width=".793"/><path d="M28.425 44.404a30.34 30.34 0 0 0 2.784-.29c.66-.041 1.456-.332 2.018-.49a17.088 17.088 0 0 0 1.603-.522 9.63 9.63 0 0 0 1.46-.676c.458-.221.874-.466 1.198-.679.355-.22.683-.476 1.003-.705.32-.23.615-.487.912-.745.278-.254.64-.579.89-.859.366-.389.703-.785.941-1.119.293-.4.839-1.24.935-1.402.226-.425.754-1.424.905-1.754.218-.528.574-1.475.733-1.948.143-.595.554-1.896.628-2.371.109-.54.217-1.104.206-1.422z" id="path22" fill="#77a03c" fill-opacity="1" stroke-width=".985"/></svg>