<svg xmlns="http://www.w3.org/2000/svg" xmlns:xlink="http://www.w3.org/1999/xlink" width="48" height="48" version="1.1" id="svg38"><defs id="defs22"><linearGradient id="linearGradient4488"><stop id="stop4490" offset="0" stop-color="#000" stop-opacity=".047"/><stop id="stop4492" offset="1" stop-color="#000" stop-opacity="0"/></linearGradient><style id="style4511"/><style id="style4511-26"/><style id="style4511-9"/><style id="style4552"/><style id="style4511-2"/><linearGradient xlink:href="#linearGradient4488" id="linearGradient4483" gradientUnits="userSpaceOnUse" gradientTransform="translate(-62.91 2.216) scale(.3038)" x1="288.112" y1="141.785" x2="287.575" y2="79.008"/></defs><style id="style4485" type="text/css"/><path d="M2.729 26.443v1.668c0 9.575 5.583 17.282 17.145 17.282h6.93c15.133 0 17.837-11.322 17.837-17.282v-1.668c0 5.96-2.704 17.282-17.836 17.282h-6.93c-11.563 0-17.146-7.708-17.146-17.282z" id="path4479" opacity="1" fill="url(#linearGradient4483)" fill-opacity="1" stroke="none" stroke-width="1.1" stroke-linecap="square" stroke-linejoin="bevel" stroke-miterlimit="4" stroke-dasharray="none" stroke-dashoffset="0" stroke-opacity=".078"/><path d="M19.342 2.965h8.495c13.907 0 16.804 11.246 16.804 17.282v7.123c0 5.96-2.704 17.282-17.836 17.282h-6.93c-11.563 0-17.146-7.708-17.146-17.282v-7.123c0-9.575 5.47-17.282 16.613-17.282z" id="path4481" opacity="1" fill="#ff9d17" fill-opacity="1" stroke="#000" stroke-width=".334" stroke-linecap="square" stroke-linejoin="bevel" stroke-miterlimit="4" stroke-dasharray="none" stroke-dashoffset="0" stroke-opacity=".078"/><path id="circle32-7-8-3" d="M23.685 10.377a13.431 13.431 0 0 0-13.432 13.431A13.431 13.431 0 0 0 23.685 37.24a13.431 13.431 0 0 0 13.431-13.432 13.431 13.431 0 0 0-13.431-13.431zm0 1.492c2.238 0 3.73 1.493 3.73 1.493s-.89 3.023-1.492 4.477c-.638 1.541-2.238 4.477-2.238 4.477s-1.6-2.936-2.239-4.477c-.602-1.454-1.492-4.477-1.492-4.477s1.492-1.493 3.73-1.493zm-4.748 1.914s1.508 2.768 2.11 4.222c.639 1.541 1.583 4.748 1.583 4.748s-3.207-.944-4.749-1.583c-1.453-.603-4.222-2.11-4.222-2.11s0-2.112 1.583-3.695c1.583-1.582 3.695-1.582 3.695-1.582zm9.496 0s2.112 0 3.695 1.582c1.582 1.583 1.582 3.695 1.582 3.695s-2.768 1.508-4.222 2.11c-1.541.639-4.748 1.583-4.748 1.583s.944-3.207 1.583-4.748c.603-1.454 2.11-4.222 2.11-4.222zM13.24 20.077s3.023.89 4.477 1.493c1.541.638 4.477 2.238 4.477 2.238s-2.936 1.6-4.477 2.239c-1.454.602-4.477 1.492-4.477 1.492s-1.493-1.492-1.493-3.73c0-2.24 1.493-3.732 1.493-3.732zm20.893 0s1.492 1.493 1.492 3.731c0 2.239-1.492 3.731-1.492 3.731s-3.024-.89-4.477-1.492c-1.542-.639-4.477-2.239-4.477-2.239s2.935-1.6 4.477-2.238c1.453-.603 4.477-1.493 4.477-1.493zM22.63 24.863s-.944 3.207-1.583 4.749c-.603 1.453-2.11 4.222-2.11 4.222s-2.112 0-3.694-1.583c-1.583-1.583-1.583-3.695-1.583-3.695s2.768-1.508 4.222-2.11c1.542-.639 4.748-1.583 4.748-1.583zm2.109 0s3.207.944 4.748 1.583c1.454.603 4.222 2.11 4.222 2.11s0 2.112-1.582 3.695c-1.583 1.583-3.695 1.583-3.695 1.583s-1.508-2.769-2.11-4.222c-.639-1.542-1.583-4.749-1.583-4.749zm-1.054.438s1.6 2.935 2.239 4.477c.602 1.453 1.492 4.477 1.492 4.477s-1.492 1.492-3.73 1.492c-2.24 0-3.732-1.492-3.732-1.492s.89-3.024 1.493-4.477c.638-1.542 2.238-4.477 2.238-4.477z" fill="#fff" fill-opacity="1" stroke-width="1.576" stroke-linecap="round" stroke-linejoin="round"/></svg>