<svg xmlns:osb="http://www.openswatchbook.org/uri/2009/osb" xmlns="http://www.w3.org/2000/svg" xmlns:xlink="http://www.w3.org/1999/xlink" width="48" height="48" version="1.1" id="svg38"><defs id="defs22"><linearGradient id="linearGradient4488"><stop id="stop4490" offset="0" stop-color="#000" stop-opacity=".047"/><stop id="stop4492" offset="1" stop-color="#000" stop-opacity="0"/></linearGradient><style id="style4511"/><style id="style4511-26"/><style id="style4511-9"/><style id="style4552"/><style id="style4511-2"/><linearGradient xlink:href="#linearGradient4488" id="linearGradient4540" gradientUnits="userSpaceOnUse" gradientTransform="matrix(.30902 0 0 .3038 -64.017 1.994)" x1="288.112" y1="141.785" x2="287.575" y2="79.008"/><linearGradient osb:paint="solid" id="linearGradient5293"><stop id="stop5295" offset="0" stop-color="#9a89c0" stop-opacity="1"/></linearGradient></defs><style id="style4485" type="text/css"/><path id="path4516" d="M2.75 26.22v1.67c0 9.573 5.68 17.281 17.44 17.281h7.05c15.392 0 18.143-11.322 18.143-17.282v-1.668c0 5.96-2.75 17.282-18.143 17.282h-7.05c-11.76 0-17.44-7.708-17.44-17.282z" opacity="1" fill="url(#linearGradient4540)" fill-opacity="1" stroke="none" stroke-width="1.109" stroke-linecap="square" stroke-linejoin="bevel" stroke-miterlimit="4" stroke-dasharray="none" stroke-dashoffset="0" stroke-opacity=".078"/><path id="path4518" d="M19.649 2.742h8.64c14.148 0 17.094 11.247 17.094 17.282v7.124c0 5.96-2.75 17.282-18.143 17.282h-7.05c-11.76 0-17.44-7.708-17.44-17.282v-7.124c0-9.574 5.564-17.282 16.899-17.282z" opacity="1" fill="#ff740f" fill-opacity="1" stroke="#000" stroke-width=".337" stroke-linecap="square" stroke-linejoin="bevel" stroke-miterlimit="4" stroke-dasharray="none" stroke-dashoffset="0" stroke-opacity=".078"/><g id="g1315" transform="matrix(1.05327 0 0 1.06958 47.07 -1.214)" fill-rule="evenodd" stroke="none" stroke-width="1"><g transform="translate(-32.34 13.686)" id="Group-2" fill="#fff"><path id="Combined-Shape" d="M14 6a2 2 0 1 0 2 2h-2zM0 2l11-2v19L0 17zm12 2h7v10a1 1 0 0 1-1 1h-6zm1 7v1h5v-1zm0 2v1h5v-1zm2-8v2h2c-.007-1.106-.9-2-2-2z"/><path id="path1279" d="M20 10V3.5a.5.5 0 0 0-.5-.5H14V2h6a1 1 0 0 1 1 1v6a1 1 0 0 1-1 1z"/></g><text y="-2.314" x="-46.341" font-weight="700" font-size="14" id="P" font-family="BanglaSangamMN-Bold,'Bangla Sangam MN'" fill="#ff740f"><tspan id="tspan1282" y="28.686" x="-30.675">P</tspan></text></g></svg>