<svg xmlns:osb="http://www.openswatchbook.org/uri/2009/osb" xmlns="http://www.w3.org/2000/svg" xmlns:xlink="http://www.w3.org/1999/xlink" width="48" height="48" version="1.1" id="svg38"><defs id="defs22"><linearGradient id="linearGradient4488"><stop id="stop4490" offset="0" stop-color="#000" stop-opacity=".047"/><stop id="stop4492" offset="1" stop-color="#000" stop-opacity="0"/></linearGradient><style id="style4511"/><style id="style4511-26"/><style id="style4511-9"/><style id="style4552"/><style id="style4511-2"/><linearGradient xlink:href="#linearGradient4488" id="linearGradient4540" gradientUnits="userSpaceOnUse" gradientTransform="matrix(.30902 0 0 .31307 -64.017 1.97)" x1="288.112" y1="141.785" x2="287.575" y2="79.008"/><linearGradient osb:paint="solid" id="linearGradient5293"><stop id="stop5295" offset="0" stop-color="#9a89c0" stop-opacity="1"/></linearGradient></defs><style id="style4485" type="text/css"/><path id="path4516" d="M2.75 26.937v1.72c0 9.866 5.68 17.809 17.44 17.809h7.05c15.392 0 18.143-11.668 18.143-17.81v-1.72c0 6.142-2.75 17.81-18.143 17.81h-7.05c-11.76 0-17.44-7.943-17.44-17.81z" opacity="1" fill="url(#linearGradient4540)" fill-opacity="1" stroke="none" stroke-width="1.126" stroke-linecap="square" stroke-linejoin="bevel" stroke-miterlimit="4" stroke-dasharray="none" stroke-dashoffset="0" stroke-opacity=".078"/><path id="path4518" d="M19.649 2.742h8.64c14.148 0 17.094 11.59 17.094 17.81v7.34c0 6.141-2.75 17.81-18.143 17.81h-7.05c-11.76 0-17.44-7.944-17.44-17.81v-7.34c0-9.867 5.564-17.81 16.899-17.81z" opacity="1" fill="#e6e6e6" fill-opacity="1" stroke="#000" stroke-width=".342" stroke-linecap="square" stroke-linejoin="bevel" stroke-miterlimit="4" stroke-dasharray="none" stroke-dashoffset="0" stroke-opacity=".078"/><g id="g1646" transform="matrix(.94106 0 0 .91797 53.388 2.417)" stroke-width=".067"><path id="path1125" d="M-30.334 30.543l-7.398-7.642a1.38 1.38 0 0 1 0-1.906 1.276 1.276 0 0 1 1.846 0l7.398 7.641c.51.527.51 1.38 0 1.907a1.276 1.276 0 0 1-1.846 0z" fill="#ffdb77"/><path id="path1127" d="M-28.488 28.636l-3.699-3.82-1.846 1.906 3.7 3.82a1.274 1.274 0 0 0 1.845 0 1.38 1.38 0 0 0 0-1.906z" fill="#ff905e"/><path id="path1129" d="M-18.877 18.71l-7.398-7.642a1.38 1.38 0 0 1 0-1.906 1.276 1.276 0 0 1 1.846 0l7.398 7.64c.51.527.51 1.38 0 1.907a1.276 1.276 0 0 1-1.846 0z" fill="#ffdb77"/><path id="path1131" d="M-17.031 16.803l-3.699-3.82-1.846 1.906 3.7 3.82a1.274 1.274 0 0 0 1.845 0 1.38 1.38 0 0 0 0-1.906z" fill="#ff905e"/><path id="path1133" d="M-37.888 38.344l-7.398-7.64a1.38 1.38 0 0 1 0-1.907 1.276 1.276 0 0 1 1.846 0l7.398 7.64c.51.527.51 1.38 0 1.907a1.276 1.276 0 0 1-1.846 0z" fill="#28d2e4"/><path id="path1135" d="M-36.042 36.438l-3.699-3.82-1.846 1.906 3.7 3.82a1.274 1.274 0 0 0 1.845 0 1.38 1.38 0 0 0 0-1.906z" fill="#28c3e4"/><path id="path1137" d="M-26.43 26.511l-7.399-7.64a1.38 1.38 0 0 1 0-1.907 1.276 1.276 0 0 1 1.846 0l7.398 7.64c.51.527.51 1.38 0 1.907a1.276 1.276 0 0 1-1.846 0z" fill="#28d2e4"/><path id="path1139" d="M-24.585 24.605l-3.699-3.82-1.846 1.906 3.7 3.82c.51.527 1.335.527 1.845 0a1.38 1.38 0 0 0 0-1.906z" fill="#28c3e4"/><path id="path1141" d="M-23.84 19.479c2.463.3 6.732.356 9.267-2.262a1.38 1.38 0 0 0 0-1.907 1.276 1.276 0 0 0-1.846 0c-1.788 1.847-5.407 1.798-7.905 1.375-.351-2.166-.547-6.206 1.34-8.156a1.38 1.38 0 0 0 0-1.906 1.276 1.276 0 0 0-1.846 0c-2.535 2.618-2.481 7.028-2.19 9.571-8.322-1.016-12.462 3.053-11.457 11.833-2.462-.3-6.732-.356-9.267 2.262a1.38 1.38 0 0 0 0 1.907c.51.526 1.337.526 1.846 0 1.785-1.843 5.394-1.799 7.897-1.376.41 2.584.453 6.313-1.331 8.157a1.38 1.38 0 0 0 0 1.906c.51.527 1.336.527 1.845 0 2.535-2.618 2.482-7.028 2.19-9.571 8.322 1.016 12.462-3.053 11.457-11.833zm-2.704-.492c1.177 7.43-1.532 9.793-6.503 9.774a17.091 17.091 0 0 1-2.726-.242 18.807 18.807 0 0 1-.234-2.816c-.018-5.01 2.144-7.953 9.463-6.716z" fill="#808285"/><path id="path1143" d="M-35.297 31.312c8.322 1.016 12.462-3.053 11.457-11.833 2.463.3 6.732.356 9.267-2.262a1.38 1.38 0 0 0 0-1.907 1.276 1.276 0 0 0-1.846 0c-1.786 1.845-5.4 1.798-7.897 1.376l-2.228 2.301c1.177 7.43-1.533 9.793-6.503 9.774a17.091 17.091 0 0 1-2.726-.242l-2.228 2.301c.41 2.584.453 6.313-1.332 8.157a1.38 1.38 0 0 0 0 1.906c.51.527 1.336.527 1.846 0 2.535-2.618 2.481-7.028 2.19-9.571z" fill="#6d6e71"/></g></svg>