<?xml version="1.0" encoding="UTF-8" standalone="no"?>
<svg
   xmlns:dc="http://purl.org/dc/elements/1.1/"
   xmlns:cc="http://creativecommons.org/ns#"
   xmlns:rdf="http://www.w3.org/1999/02/22-rdf-syntax-ns#"
   xmlns:svg="http://www.w3.org/2000/svg"
   xmlns="http://www.w3.org/2000/svg"
   xmlns:xlink="http://www.w3.org/1999/xlink"
   xmlns:sodipodi="http://sodipodi.sourceforge.net/DTD/sodipodi-0.dtd"
   xmlns:inkscape="http://www.inkscape.org/namespaces/inkscape"
   width="48"
   height="48"
   version="1.1"
   id="svg38"
   sodipodi:docname="applications-system (1).svg"
   inkscape:version="0.91 r13725">
  <metadata
     id="metadata42">
    <rdf:RDF>
      <cc:Work
         rdf:about="">
        <dc:format>image/svg+xml</dc:format>
        <dc:type
           rdf:resource="http://purl.org/dc/dcmitype/StillImage" />
      </cc:Work>
    </rdf:RDF>
  </metadata>
  <sodipodi:namedview
     pagecolor="#ffffff"
     bordercolor="#666666"
     borderopacity="1"
     objecttolerance="10"
     gridtolerance="10"
     guidetolerance="10"
     inkscape:pageopacity="0"
     inkscape:pageshadow="2"
     inkscape:window-width="1920"
     inkscape:window-height="1050"
     id="namedview40"
     showgrid="false"
     inkscape:zoom="3.4766083"
     inkscape:cx="-91.394298"
     inkscape:cy="-7.9440547"
     inkscape:window-x="0"
     inkscape:window-y="0"
     inkscape:window-maximized="1"
     inkscape:current-layer="svg38" />
  <defs
     id="defs22">
    <linearGradient
       id="linearGradient4488">
      <stop
         id="stop4490"
         style="stop-color:#000000;stop-opacity:0.046875"
         offset="0" />
      <stop
         id="stop4492"
         style="stop-color:#000000;stop-opacity:0"
         offset="1" />
    </linearGradient>
    <style
       id="style4511">.cls-1{fill:#8e8e8e;}.cls-2{fill:none;stroke:#8e8e8e;stroke-linecap:square;stroke-miterlimit:10;}</style>
    <style
       id="style4511-26">.cls-1{fill:#8e8e8e;}.cls-2{fill:none;stroke:#8e8e8e;stroke-linecap:square;stroke-miterlimit:10;}</style>
    <style
       id="style4511-9">.cls-1{fill:#8e8e8e;}.cls-2{fill:none;stroke:#8e8e8e;stroke-linecap:square;stroke-miterlimit:10;}</style>
    <style
       id="style4552">.cls-1{fill:#8e8e8e;}.cls-2{fill:none;stroke:#8e8e8e;stroke-linecap:square;stroke-miterlimit:10;}</style>
    <style
       id="style4511-2">.cls-1{fill:#8e8e8e;}.cls-2{fill:none;stroke:#8e8e8e;stroke-linecap:square;stroke-miterlimit:10;}</style>
    <linearGradient
       gradientTransform="matrix(0.30380027,0,0,0.30380027,-63.205442,2.2158784)"
       inkscape:collect="always"
       xlink:href="#linearGradient4488"
       id="linearGradient4160"
       x1="288.11157"
       y1="141.78452"
       x2="287.57547"
       y2="79.007812"
       gradientUnits="userSpaceOnUse" />
  </defs>
  <style
     id="style4485"
     type="text/css">
	.st0{fill:#005C75;}
	.st1{fill:url(#SVGID_1_);}
	.st2{opacity:0.45;fill:#231F20;}
	.st3{fill:#FFFFFF;}
</style>
  <path
     style="opacity:1;fill:url(#linearGradient4160);fill-opacity:1;stroke:none;stroke-width:1.10000002;stroke-linecap:square;stroke-linejoin:bevel;stroke-miterlimit:4;stroke-dasharray:none;stroke-dashoffset:0;stroke-opacity:0.078125"
     d="m 2.4332147,26.442743 0,1.668528 c 0,9.574276 5.5832168,17.282199 17.1457273,17.282199 l 6.930445,0 c 15.132351,0 17.836399,-11.322632 17.836399,-17.282199 l 0,-1.668528 c 0,5.959567 -2.704048,17.282198 -17.836399,17.282198 l -6.930445,0 c -11.5625105,0 -17.1457273,-7.707923 -17.1457273,-17.282198 z"
     id="path4147"
     inkscape:connector-curvature="0" />
  <path
     style="opacity:1;fill:#80a7ff;fill-opacity:1;stroke:#000000;stroke-width:0.3341803;stroke-linecap:square;stroke-linejoin:bevel;stroke-miterlimit:4;stroke-dasharray:none;stroke-dashoffset:0;stroke-opacity:0.078125"
     d="m 19.046357,2.9645209 8.495066,0 c 13.907739,0 16.804384,11.2468651 16.804384,17.2820841 l 0,7.123176 c 0,5.959564 -2.704172,17.282082 -17.836524,17.282082 l -6.930103,0 c -11.5625118,0 -17.145935,-7.707808 -17.145935,-17.282082 l 0,-7.123176 c 0,-9.574274 5.4701791,-17.2820841 16.613112,-17.2820841 z"
     id="rect4144"
     inkscape:connector-curvature="0"
     sodipodi:nodetypes="sssssssss" />
  <path
     inkscape:connector-curvature="0"
     id="path16308-9-7-3"
     d="m 23.279818,10.452384 0,0.0018 c -0.357564,0.0035 -0.719849,0.0333 -1.084608,0.08951 -0.211241,0.03239 -0.411074,0.07546 -0.603729,0.121096 -0.382064,0.09058 -0.680813,0.455159 -0.693236,0.847678 0,0.0446 -0.0035,0.106922 -0.0035,0.182523 0.0023,0.426192 0,1.170604 0,1.170604 -0.0012,0.02276 -0.0047,0.04698 -0.007,0.0702 -0.03251,0.276036 -0.226762,0.494074 -0.477367,0.568628 -0.777367,0.223666 -1.517311,0.530655 -2.20607,0.91086 -0.229933,0.124487 -0.518794,0.110909 -0.737111,-0.06143 -0.01823,-0.0144 -0.03628,-0.03323 -0.05265,-0.04914 l -0.828384,-0.824864 c -0.03264,-0.03264 -0.0703,-0.07074 -0.114076,-0.112321 -0.283008,-0.269654 -0.747354,-0.32539 -1.082852,-0.124608 -0.503879,0.301705 -0.97773,0.666657 -1.405777,1.084607 l -0.007,0.0053 c -0.036,0.036 -0.07269,0.07094 -0.108813,0.107056 -0.250138,0.255369 -0.487193,0.53425 -0.705517,0.831888 -0.126346,0.17222 -0.234666,0.342207 -0.33872,0.510713 -0.20601,0.334216 -0.163532,0.807122 0.105301,1.093382 0.03066,0.03252 0.07809,0.07633 0.131628,0.129872 0.307046,0.301929 0.823108,0.831883 0.823108,0.831883 0.01568,0.01649 0.0365,0.03079 0.0509,0.04914 0.172336,0.218322 0.184279,0.510683 0.05968,0.74062 -0.384851,0.696426 -0.694567,1.438744 -0.91788,2.213091 -0.07711,0.246075 -0.29058,0.436541 -0.563364,0.468592 -0.02323,0.0023 -0.04393,0.0035 -0.06669,0.0035 l -1.170602,0 -0.161463,0 c -0.390889,0.0093 -0.757716,0.301681 -0.852944,0.680957 -0.142953,0.569612 -0.221072,1.160239 -0.228153,1.758535 l 0,0.0088 0,0.154443 c 0.0035,0.357561 0.03517,0.719845 0.09126,1.084606 0.03239,0.211238 0.07382,0.410955 0.119341,0.60373 0.0907,0.381948 0.455278,0.680811 0.84768,0.693237 0.0447,0 0.108678,0.0035 0.184278,0.0035 0.426424,-0.0023 1.170603,0.0035 1.170603,0.0035 0.02276,0 0.0472,4.3e-5 0.0702,0.0035 0.272668,0.03205 0.48637,0.22415 0.563363,0.470348 0.0012,0.0035 0.0023,0.0035 0.0035,0.007 0.22366,0.777252 0.530539,1.517424 0.910859,2.206068 0.124489,0.230049 0.112664,0.522184 -0.05967,0.740621 -0.0144,0.01835 -0.03499,0.03276 -0.0509,0.04914 l -0.826616,0.831882 c -0.03252,0.03264 -0.07251,0.06854 -0.114078,0.112322 -0.269648,0.283008 -0.320245,0.745713 -0.119341,1.081096 0.301584,0.503995 0.664672,0.977846 1.082852,1.405776 l 0,0.0035 0.007,0.0018 c 0.036,0.03589 0.07445,0.07433 0.110567,0.110567 0.255365,0.250254 0.530851,0.485559 0.828373,0.703766 0.172335,0.126348 0.343962,0.236428 0.512468,0.340476 0.334217,0.206014 0.801858,0.161783 1.088116,-0.107057 0.03264,-0.03066 0.07996,-0.07295 0.133383,-0.126362 l 0.828373,-0.826618 c 0.01649,-0.01568 0.03442,-0.03287 0.05265,-0.04738 0.218324,-0.172221 0.510683,-0.187785 0.740621,-0.06318 0.693865,0.383458 1.43135,0.691172 2.202561,0.914369 0.250605,0.07444 0.448359,0.290718 0.480879,0.566875 0.0023,0.02323 0.0035,0.04755 0.0035,0.07021 l 0,1.170602 c 0,0.04611 -0.0012,0.09944 0,0.159708 0.0093,0.39089 0.303546,0.755966 0.682705,0.851188 0.569609,0.143074 1.156614,0.222942 1.755026,0.22991 l 0.0035,0 0.007,0 0.157953,0 c 0.357558,-0.0035 0.714582,-0.03342 1.079342,-0.08951 0.211237,-0.03252 0.414463,-0.0737 0.60724,-0.11934 0.382057,-0.09046 0.67917,-0.455166 0.69148,-0.84768 0,-0.0446 0.007,-0.10856 0.007,-0.184278 -0.0023,-0.432581 0,-1.170602 0,-1.170602 0.0012,-0.02264 0.0012,-0.05071 0.0035,-0.07371 0.03252,-0.276273 0.230268,-0.488924 0.480877,-0.563364 -0.0547,0.0158 -0.111452,0.02913 -0.166728,0.04388 0.839142,-0.227381 1.631856,-0.552372 2.367532,-0.958245 0.22994,-0.124604 0.522298,-0.109155 0.740622,0.06318 0.01835,0.0144 0.03814,0.03158 0.05441,0.04738 l 0.826617,0.826618 c 0.03263,0.03264 0.06678,0.07261 0.110568,0.114076 0.283124,0.269885 0.752623,0.320125 1.088116,0.119343 0.503884,-0.301703 0.972461,-0.663032 1.400513,-1.081097 l 0.01053,-0.0088 c 0.036,-0.03589 0.06919,-0.07094 0.105301,-0.107056 0.250257,-0.255255 0.487197,-0.53249 0.705522,-0.830129 0.126341,-0.172214 0.238066,-0.342211 0.34223,-0.510713 0.206016,-0.334337 0.160028,-0.805373 -0.108813,-1.091627 -0.03054,-0.03264 -0.07458,-0.07633 -0.128115,-0.129872 -0.309021,-0.30391 -0.826619,-0.830127 -0.826619,-0.830127 -0.01568,-0.01672 -0.03287,-0.03617 -0.04738,-0.05441 -0.172221,-0.218438 -0.184275,-0.510458 -0.05967,-0.740621 -0.02044,0.03704 -0.04567,0.07714 -0.06669,0.114076 0.441636,-0.777713 0.787801,-1.611137 1.024936,-2.485119 -0.01533,0.05713 -0.03101,0.11368 -0.04738,0.170238 0.07456,-0.250605 0.290484,-0.448128 0.566873,-0.480878 0.023,-0.0023 0.04744,-0.0035 0.07021,-0.0035 l 1.170604,0 0.161463,0 c 0.390767,-0.0093 0.754319,-0.301792 0.84943,-0.680951 0.143069,-0.569608 0.224573,-1.156852 0.231667,-1.755028 l 0,-0.0035 0,-0.007 0,-0.156198 c -0.0035,-0.357563 -0.03517,-0.719963 -0.09127,-1.084607 -0.0324,-0.211242 -0.07382,-0.41119 -0.119331,-0.60373 -0.0907,-0.382179 -0.455169,-0.680925 -0.847683,-0.693235 -0.0446,0 -0.108677,-0.0035 -0.184277,-0.0035 -0.426429,0.0023 -1.170604,0 -1.170604,0 -0.02288,0 -0.04721,-0.0048 -0.07021,-0.007 -0.276273,-0.03251 -0.492318,-0.226532 -0.566873,-0.477368 -0.2369,-0.823124 -0.569383,-1.602394 -0.981061,-2.32541 0.02299,0.04006 0.0479,0.07881 0.0702,0.119342 -0.124604,-0.229933 -0.112549,-0.518794 0.05967,-0.737112 0.01451,-0.01823 0.03148,-0.03616 0.04738,-0.05265 l 0.82662,-0.828373 c 0.03275,-0.03264 0.0725,-0.06866 0.114078,-0.112322 0.269652,-0.283119 0.320133,-0.749335 0.119345,-1.084602 -0.301581,-0.503988 -0.663029,-0.977602 -1.081094,-1.405771 l -0.0053,-0.007 c -0.0359,-0.03589 -0.07447,-0.07269 -0.110572,-0.108808 -0.255253,-0.250258 -0.530618,-0.487197 -0.828372,-0.70552 -0.172218,-0.126234 -0.344082,-0.234668 -0.512468,-0.33872 -0.334337,-0.20601 -0.805252,-0.160023 -1.091627,0.108811 -0.03239,0.03066 -0.07645,0.0747 -0.129871,0.128117 -0.182906,0.179768 -0.831884,0.823107 -0.831884,0.823107 -0.01649,0.01568 -0.03091,0.03287 -0.04914,0.04739 -0.218322,0.172215 -0.510573,0.187674 -0.740622,0.06318 0.06247,0.0345 0.120623,0.07094 0.182524,0.107057 -0.747291,-0.43235 -1.548169,-0.778255 -2.388593,-1.021426 -0.250724,-0.07456 -0.444738,-0.290606 -0.477366,-0.566873 -0.0023,-0.02311 -0.0035,-0.04393 -0.0035,-0.06669 l 0,-1.172369 0,-0.159708 c -0.0093,-0.3909 -0.303416,-0.757724 -0.682691,-0.852952 -0.569609,-0.143068 -1.156846,-0.221187 -1.755027,-0.228153 l -0.0035,0 -0.0088,0 z m 0.108809,8.834806 a 4.5217363,4.5217363 0 0 1 4.522706,4.520951 4.5217363,4.5217363 0 0 1 -4.522706,4.522705 4.5217363,4.5217363 0 0 1 -4.520949,-4.522705 4.5217363,4.5217363 0 0 1 4.520949,-4.520951 z"
     style="fill:#ffffff;fill-opacity:1;fill-rule:nonzero;stroke:none;stroke-width:0.85491467" />
</svg>
