<svg xmlns:osb="http://www.openswatchbook.org/uri/2009/osb" xmlns="http://www.w3.org/2000/svg" xmlns:xlink="http://www.w3.org/1999/xlink" width="48" height="48" version="1.1" id="svg38"><defs id="defs22"><linearGradient id="linearGradient4488"><stop id="stop4490" offset="0" stop-color="#000" stop-opacity=".047"/><stop id="stop4492" offset="1" stop-color="#000" stop-opacity="0"/></linearGradient><style id="style4511"/><style id="style4511-26"/><style id="style4511-9"/><style id="style4552"/><style id="style4511-2"/><linearGradient xlink:href="#linearGradient4488" id="linearGradient4540" gradientUnits="userSpaceOnUse" gradientTransform="matrix(.30673 0 0 .3038 -63.522 1.994)" x1="288.112" y1="141.785" x2="287.575" y2="79.008"/><linearGradient osb:paint="solid" id="linearGradient5293"><stop id="stop5295" offset="0" stop-color="#9a89c0" stop-opacity="1"/></linearGradient><linearGradient osb:paint="solid" id="linearGradient5251"><stop id="stop5253" offset="0" stop-color="#2f343f" stop-opacity="1"/></linearGradient><linearGradient id="linearGradient6290"><stop id="stop6292" offset="0" stop-color="#d4aa6b" stop-opacity="1"/><stop id="stop6294" offset="1" stop-color="#ffcea1" stop-opacity="1"/></linearGradient><linearGradient xlink:href="#linearGradient6290" id="linearGradient2107" x1="2.583" y1="23.739" x2="45.236" y2="23.739" gradientUnits="userSpaceOnUse"/></defs><style id="style4485" type="text/css"/><path id="path4516" d="M2.75 26.22v1.669c0 9.574 5.638 17.282 17.312 17.282h6.998c15.278 0 18.008-11.323 18.008-17.282V26.22c0 5.96-2.73 17.282-18.008 17.282h-6.998c-11.674 0-17.311-7.708-17.311-17.282z" opacity="1" fill="url(#linearGradient4540)" fill-opacity="1" stroke="none" stroke-width="1.105" stroke-linecap="square" stroke-linejoin="bevel" stroke-miterlimit="4" stroke-dasharray="none" stroke-dashoffset="0" stroke-opacity=".078"/><path id="path4518" d="M28.295 44.734h-8.577c-14.042 0-16.966-11.329-16.966-17.408v-7.175c0-6.003 2.73-17.408 18.008-17.408h6.997c11.673 0 17.31 7.764 17.31 17.408v7.175c0 9.644-5.522 17.408-16.772 17.408z" opacity="1" fill="url(#linearGradient2107)" fill-opacity="1" stroke="#000" stroke-width=".337" stroke-linecap="square" stroke-linejoin="bevel" stroke-miterlimit="4" stroke-dasharray="none" stroke-dashoffset="0" stroke-opacity=".078"/><g id="g2099" transform="translate(0 .793)" fill-opacity="1" fill-rule="nonzero" stroke="none"><path d="M14.117 20.98a2.387 2.387 0 0 1-.261 3.28 2.268 2.268 0 0 1-3.218-.205c-.803-.987-.689-2.446.261-3.28a2.268 2.268 0 0 1 3.218.206m0 0" id="path1897" fill="#19b271" stroke-width="1.117"/><path d="M15.203 26.924a2.39 2.39 0 0 1-.26 3.276 2.274 2.274 0 0 1-3.215-.197 2.38 2.38 0 0 1 .266-3.271 2.264 2.264 0 0 1 3.21.192m0 0" id="path1909" fill="#289cec" stroke-width="1.117"/><path d="M18.925 31.575a2.386 2.386 0 0 1-.302 3.24 2.27 2.27 0 0 1-3.183-.166 2.381 2.381 0 0 1 .292-3.24 2.273 2.273 0 0 1 3.187.166m0 0" id="path1911" fill="#a24592" stroke-width="1.117"/><path d="M29.422 23.413a.688.688 0 0 0-.693.69v.953c-.353.11-.698.24-1.016.41l-.672-.669a.705.705 0 0 0-.99 0l-1.47 1.472a.708.708 0 0 0 0 .991l.668.673a5.75 5.75 0 0 0-.41 1.018h-.95a.688.688 0 0 0-.69.694v2.074a.69.69 0 0 0 .69.694h.95c.11.35.24.694.41 1.017l-.667.67a.714.714 0 0 0 0 .995l1.469 1.468c.265.27.723.27.99 0l.672-.668c.318.17.663.305 1.016.41v.952c0 .385.309.695.693.695h2.07c.384 0 .694-.31.694-.695v-.952c.349-.105.693-.24 1.015-.41l.668.668c.27.27.723.27.994 0l1.466-1.468a.714.714 0 0 0 0-.996l-.668-.669c.17-.323.305-.668.41-1.017h.951c.384 0 .693-.31.693-.694v-2.074a.692.692 0 0 0-.693-.694h-.95a5.506 5.506 0 0 0-.41-1.018l.667-.673a.708.708 0 0 0 0-.991l-1.466-1.472a.71.71 0 0 0-.994 0l-.668.669a6.016 6.016 0 0 0-1.015-.41v-.953a.69.69 0 0 0-.694-.69m-1.038 5.538c.955 0 1.732.777 1.732 1.73 0 .955-.776 1.733-1.732 1.733a1.733 1.733 0 0 1 0-3.463m0 0" id="path1913" fill="#535353" stroke-width="1.117"/><path d="M13.664 24.47a14.563 14.563 0 0 1-.266-3.826l7.461 2.306m-7.194 1.52" id="path1925" fill="#19b271" stroke-width="1.117"/><path d="M15.531 29.436c-.86-.96-1.587-2.03-2.145-3.157l7.57-1.887m-5.425 5.044" id="path1927" fill="#289cec" stroke-width="1.117"/><path d="M19.515 32.916a13.915 13.915 0 0 1-3.444-1.546l5.476-5.668m-2.032 7.214" id="path1929" fill="#a24592" stroke-width="1.117"/><g transform="rotate(163.99 -1.613 18.98)" id="g2087"><path d="M-36.323 2.875c0 9.898 4.5 8.102 9.703 12.293a3.485 3.485 0 0 0-.703 2.105 3.597 3.597 0 0 0 3.598 3.602 3.598 3.598 0 0 0 3.602-3.602c0-.324-.09-.629-.145-.926l.145.027-.199-.254c-.27-.789-.816-1.438-1.52-1.887m-1.883 1.242c.992 0 1.801.809 1.801 1.797 0 .992-.809 1.801-1.801 1.801a1.804 1.804 0 0 1-1.797-1.801c0-.988.809-1.797 1.797-1.797m0 0" id="path1988" fill="#45abc5"/><path d="M-21.924 2.875c0 9.898-4.5 8.098-9.703 12.293.441.598.703 1.305.703 2.105a3.6 3.6 0 1 1-7.2 0c0-.32.063-.629.145-.93l-.145.031.195-.254c.27-.793.82-1.438 1.523-1.887m1.879 1.238a1.81 1.81 0 0 0-1.801 1.801 1.81 1.81 0 0 0 1.801 1.801 1.81 1.81 0 0 0 1.801-1.801 1.81 1.81 0 0 0-1.801-1.801m0 0" id="path1990" fill="#de58b9"/></g></g></svg>