<svg xmlns:osb="http://www.openswatchbook.org/uri/2009/osb" xmlns="http://www.w3.org/2000/svg" width="48" height="48" version="1.1" id="svg38"><defs id="defs22"><style id="style4511"/><style id="style4511-26"/><style id="style4511-9"/><style id="style4552"/><style id="style4511-2"/><linearGradient osb:paint="solid" id="linearGradient5293"><stop id="stop5295" offset="0" stop-color="#9a89c0" stop-opacity="1"/></linearGradient><style id="style4511-8"/><style id="style4511-26-4"/><style id="style4511-9-8"/><style id="style4552-5"/><style id="style4511-2-5"/><style id="style4511-87"/><style id="style4511-26-7"/><style id="style4511-9-1"/><style id="style4552-3"/><style id="style4511-2-9"/></defs><style id="style4485" type="text/css"/><style type="text/css" id="style4485-1"/><style type="text/css" id="style4485-6"/><g id="g2366" transform="matrix(1.00956 0 0 .99996 -.128 0)" fill-opacity="1"><path d="M2.789 28.79v-8.707C2.789 5.83 14.22 2.862 20.356 2.862h7.24c6.059 0 17.568 2.77 17.568 18.28v7.102c0 11.85-7.835 17.571-17.567 17.571h-7.241c-9.732 0-17.567-5.606-17.567-17.025z" id="path4518" stroke-miterlimit="4" opacity="1" fill="#569a40" stroke="#000" stroke-width=".341" stroke-linecap="square" stroke-linejoin="bevel" stroke-dasharray="none" stroke-dashoffset="0" stroke-opacity=".078"/><path d="M4.129 28.528v-8.096c0-13.254 10.692-16.015 16.43-16.015h6.771c5.666 0 16.43 2.577 16.43 16.999v6.604c0 11.019-7.327 16.34-16.43 16.34h-6.77c-9.103 0-16.43-5.213-16.43-15.832z" id="path4518-3" stroke-miterlimit="4" opacity="1" fill="#f9f9f9" stroke="#000" stroke-width=".318" stroke-linecap="square" stroke-linejoin="bevel" stroke-dasharray="none" stroke-dashoffset="0" stroke-opacity=".078"/><path d="M4.947 28.362v-7.721c0-12.642 10.258-15.275 15.762-15.275h6.496c5.435 0 15.762 2.458 15.762 16.213v6.3c0 10.51-7.03 15.584-15.762 15.584H20.71c-8.732 0-15.762-4.972-15.762-15.1z" id="path4518-3-6" stroke-miterlimit="4" opacity="1" fill="#569a40" stroke="#000" stroke-width=".304" stroke-linecap="square" stroke-linejoin="bevel" stroke-dasharray="none" stroke-dashoffset="0" stroke-opacity=".078"/><text transform="scale(1.09324 .9147)" id="text2360" y="38.757" x="10.099" style="line-height:1.25;-inkscape-font-specification:'Standard Symbols L Bold'" xml:space="preserve" font-style="normal" font-variant="normal" font-weight="700" font-stretch="normal" font-size="33.175" letter-spacing="0" word-spacing="0" font-family="Standard Symbols L" fill="#e6e6e6" stroke="none" stroke-width=".829"><tspan style="-inkscape-font-specification:'Standard Symbols L Bold'" y="38.757" x="10.099" id="tspan2358" font-style="normal" font-variant="normal" font-weight="700" font-stretch="normal" font-family="Standard Symbols L" stroke-width=".829">P</tspan></text><ellipse ry="1.514" rx="1.568" cy="40.397" cx="9.978" id="path2359" stroke-miterlimit="4" opacity="1" fill="#fff" stroke="none" stroke-width=".667" stroke-dasharray="none" stroke-opacity="1" paint-order="markers stroke fill"/></g></svg>