<svg xmlns:osb="http://www.openswatchbook.org/uri/2009/osb" xmlns="http://www.w3.org/2000/svg" xmlns:xlink="http://www.w3.org/1999/xlink" width="48" height="48" version="1.1" id="svg38"><defs id="defs22"><linearGradient id="linearGradient4488"><stop id="stop4490" offset="0" stop-color="#000" stop-opacity=".047"/><stop id="stop4492" offset="1" stop-color="#000" stop-opacity="0"/></linearGradient><style id="style4511"/><style id="style4511-26"/><style id="style4511-9"/><style id="style4552"/><style id="style4511-2"/><linearGradient xlink:href="#linearGradient4488" id="linearGradient4540" gradientUnits="userSpaceOnUse" gradientTransform="translate(-62.889 1.994) scale(.3038)" x1="288.112" y1="141.785" x2="287.575" y2="79.008"/><linearGradient osb:paint="solid" id="linearGradient5293"><stop id="stop5295" offset="0" stop-color="#9a89c0" stop-opacity="1"/></linearGradient></defs><style id="style4485" type="text/css"/><path id="path4516" d="M2.75 26.22v1.67c0 9.573 5.583 17.281 17.146 17.281h6.93c15.132 0 17.836-11.322 17.836-17.282v-1.668c0 5.96-2.704 17.282-17.836 17.282h-6.93C8.333 43.503 2.75 35.795 2.75 26.22z" opacity="1" fill="url(#linearGradient4540)" fill-opacity="1" stroke="none" stroke-width="1.1" stroke-linecap="square" stroke-linejoin="bevel" stroke-miterlimit="4" stroke-dasharray="none" stroke-dashoffset="0" stroke-opacity=".078"/><path id="path4518" d="M19.363 2.742h8.495c13.908 0 16.804 11.247 16.804 17.282v7.124c0 5.96-2.704 17.282-17.836 17.282h-6.93C8.333 44.43 2.75 36.722 2.75 27.148v-7.124c0-9.574 5.47-17.282 16.613-17.282z" opacity="1" fill="#e6e6e6" fill-opacity="1" stroke="#000" stroke-width=".334" stroke-linecap="square" stroke-linejoin="bevel" stroke-miterlimit="4" stroke-dasharray="none" stroke-dashoffset="0" stroke-opacity=".078"/><path stroke-miterlimit="10" id="line1180" fill="#999" stroke="#c9caca" stroke-width="1.057" d="M38.931 7.355v32.634"/><path stroke-miterlimit="10" id="line1182" fill="#999" stroke="#c9caca" stroke-width="1.057" d="M8.138 7.355v32.634"/><path stroke-miterlimit="10" id="line1184" fill="#999" stroke="#c9caca" stroke-width="1.057" d="M5.483 16.303h33.979"/><path stroke-miterlimit="10" id="line1186" fill="#999" stroke="#c9caca" stroke-width="1.057" d="M5.483 36.304h33.979"/><path stroke-miterlimit="10" id="line1188" fill="#999" stroke="#c9caca" stroke-width="1.057" d="M5.483 9.987h36.103"/><ellipse stroke-miterlimit="10" cx="13.425" cy="21.566" id="circle1190" rx="2.124" ry="2.105" fill="#999" stroke="#c9caca" stroke-width="1.057"/><ellipse stroke-miterlimit="10" cx="13.425" cy="28.935" id="circle1192" rx="2.124" ry="2.105" fill="#999" stroke="#c9caca" stroke-width="1.057"/><path d="M8.817 36.558h30.645V9.064zm26.16-5.93H24.53l10.447-10.895z" id="path1196" opacity=".7" fill="#d4a300" stroke-width=".86" fill-opacity="1"/></svg>