<svg xmlns="http://www.w3.org/2000/svg" xmlns:xlink="http://www.w3.org/1999/xlink" width="48" height="48" version="1.1" id="svg38"><defs id="defs22"><linearGradient id="linearGradient4488"><stop id="stop4490" offset="0" stop-color="#000" stop-opacity=".047"/><stop id="stop4492" offset="1" stop-color="#000" stop-opacity="0"/></linearGradient><style id="style4511"/><style id="style4511-26"/><style id="style4511-9"/><style id="style4552"/><style id="style4511-2"/><linearGradient gradientTransform="translate(-63.205 2.216) scale(.3038)" xlink:href="#linearGradient4488" id="linearGradient4160" x1="288.112" y1="141.785" x2="287.575" y2="79.008" gradientUnits="userSpaceOnUse"/><path id="path-4" d="M16.988 8.913a8 8 0 1 1-16 0 8 8 0 0 1 16 0"/><path id="path-6" d="M2.097 12.053c1.586.463 5.928 1.463 8.67-.473 1.778-1.256 1.55-3.267 1.55-3.267-.03-1.53-.997-3.049-.997-3.049 3.759 3.276 1.537 6.916 1.537 6.916-1.144 2.25-3.623 3.604-5.601 4.078a7.557 7.557 0 0 1-5.16-4.205zm1.018-7.92c.466 2.44 1.51 4.498 2.205 5.246.898.967 2.22 1.993 3.917 1.57 1.698-.425 2.043-2.28 2.043-2.28.375-1.58-.158-3.454-.187-3.494-.029-.04-.284-.083-.284-.083.267 2.486-.388 3.586-.388 3.586-.951 1.95-2.348 1.347-2.348 1.347C6.52 9.233 6.593 7 6.593 7c-.048-1.552.567-4.117 1.749-5.61a7.53 7.53 0 0 0-5.227 2.741zm8.79-2.167c-.907.737-2.45 2.311-2.45 2.311C7.165 6.4 7.609 8.185 7.609 8.185c.365 1.875 1.5.612 1.5.612 1.194-1.234 1.105-3.69 1.105-3.69-.483.078-.789.345-.789.345-.06 1.638-1.026 2.654-1.026 2.654-.375.415-.642.02-.642.02-.197-.297.198-.504.198-.504.552-.483.718-1.308.71-1.618-.007-.31.158-.394.158-.394a8.915 8.915 0 0 1 1.56-.958c1.045-.533 2.91-.622 2.91-.622.506.017.99-.008 1.376-.042a7.558 7.558 0 0 0-2.764-2.022z"/><mask id="mask-7" fill="#fff"><use height="100%" width="100%" y="0" x="0" xlink:href="#path-6" id="use1178"/></mask><mask fill="#fff" id="mask-5"><use id="use1171" xlink:href="#path-4" x="0" y="0" width="100%" height="100%"/></mask></defs><style id="style4485" type="text/css"/><path stroke-miterlimit="4" d="M2.433 26.443v1.668c0 9.575 5.583 17.282 17.146 17.282h6.93c15.133 0 17.837-11.322 17.837-17.282v-1.668c0 5.96-2.704 17.282-17.837 17.282h-6.93c-11.563 0-17.146-7.708-17.146-17.282z" id="path4147" opacity="1" fill="url(#linearGradient4160)" fill-opacity="1" stroke="none" stroke-width="1.1" stroke-linecap="square" stroke-linejoin="bevel" stroke-dasharray="none" stroke-dashoffset="0" stroke-opacity=".078"/><path stroke-miterlimit="4" d="M19.046 2.965h8.495c13.908 0 16.805 11.246 16.805 17.282v7.123c0 5.96-2.704 17.282-17.837 17.282h-6.93c-11.562 0-17.146-7.708-17.146-17.282v-7.123c0-9.575 5.47-17.282 16.613-17.282z" id="rect4144" opacity="1" fill="#2485ff" fill-opacity="1" stroke="#000" stroke-width=".334" stroke-linecap="square" stroke-linejoin="bevel" stroke-dasharray="none" stroke-dashoffset="0" stroke-opacity=".078"/><path mask="url(#mask-5)" id="Fill-1" d="M16.988 8.913a8 8 0 1 1-16 0 8 8 0 0 1 16 0" transform="matrix(1.04993 0 0 1.04577 13.957 9.327)" fill="none" fill-rule="evenodd" stroke="none" stroke-width="1"/><path d="M31.486 18.644a8.097 8.065 0 1 1-16.195 0 8.097 8.065 0 0 1 16.195 0" id="Fill-4" fill="none" fill-rule="evenodd" stroke="#fff" stroke-width="1.048"/><use height="100%" width="100%" y="0" x="0" id="Clip-6" xlink:href="#path-6" transform="matrix(1.04993 0 0 1.04577 13.957 9.327)" fill="#fff" fill-rule="evenodd" stroke="none" stroke-width="1"/><path id="path836" style="line-height:0%" d="M16.66 32.141v4.743h1q1.268 0 1.854-.572.59-.572.59-1.805 0-1.226-.59-1.794-.586-.572-1.854-.572zm-.829-.678h1.702q1.78 0 2.613.74.832.735.832 2.304 0 1.577-.836 2.316-.837.74-2.609.74h-1.702z" font-weight="400" font-size="8.383" font-family="SourceHanSansSC-Regular,'Source Han Sans SC'" fill="#fff" fill-rule="evenodd" stroke="none" stroke-width="1.047"/><path id="path838" style="line-height:0%" d="M22.3 31.463h.828v6.1h-.829z" font-weight="400" font-size="8.383" font-family="SourceHanSansSC-Regular,'Source Han Sans SC'" fill="#fff" fill-rule="evenodd" stroke="none" stroke-width="1.047"/><path id="path840" style="line-height:0%" d="M24.776 31.463h1.235l1.563 4.15 1.57-4.15h1.235v6.1h-.808v-5.356l-1.58 4.183h-.832l-1.579-4.183v5.355h-.804z" font-weight="400" font-size="8.383" font-family="SourceHanSansSC-Regular,'Source Han Sans SC'" fill="#fff" fill-rule="evenodd" stroke="none" stroke-width="1.047"/></svg>