<svg height="48" width="48" xmlns="http://www.w3.org/2000/svg"><linearGradient id="a" gradientUnits="userSpaceOnUse" x1="24.978" x2="24.815" y1="45.068" y2="25.996"><stop offset="0" stop-opacity=".047"/><stop offset="1" stop-opacity="0"/></linearGradient><path d="M3.088 26.22v1.67c0 9.573 5.583 17.281 17.146 17.281h6.93c15.133 0 17.837-11.322 17.837-17.282v-1.668c0 5.96-2.704 17.282-17.837 17.282h-6.93c-11.563 0-17.146-7.708-17.146-17.282z" fill="url(#a)"/><path d="M19.701 2.742h8.495c13.908 0 16.805 11.247 16.805 17.282v7.124c0 5.96-2.704 17.282-17.837 17.282h-6.93c-11.562 0-17.146-7.708-17.146-17.282v-7.124c0-9.574 5.47-17.282 16.613-17.282z" fill="#636a82" stroke="#000" stroke-width=".334" stroke-linecap="square" stroke-linejoin="bevel" stroke-opacity=".078"/><g transform="translate(.197 .733)"><circle cx="23.444" cy="23.602" fill="#8d92a8" r="13.424"/><g fill="#fff"><path d="M23.444 13.839a9.763 9.763 0 0 0-.156.008 9.763 9.763 0 0 0-.442.023 9.763 9.763 0 0 0-.525.043 9.763 9.763 0 0 0-.438.066 9.763 9.763 0 0 0-.535.098 9.763 9.763 0 0 0-.433.111 9.763 9.763 0 0 0-.487.141 9.763 9.763 0 0 0-.459.168 9.763 9.763 0 0 0-.459.184 9.763 9.763 0 0 0-.414.2 9.763 9.763 0 0 0-.46.24 9.763 9.763 0 0 0-.495.294l.008.006a9.763 9.763 0 0 0-.576.39l7.886 4.555.354.238c.006.005.008.015.014.02l.191.129.436-6.426a9.763 9.763 0 0 0-.664-.184v-.005a9.763 9.763 0 0 0-.079-.016 9.763 9.763 0 0 0-.66-.133 9.763 9.763 0 0 0-.314-.055 9.763 9.763 0 0 0-.602-.072 9.763 9.763 0 0 0-.164-.004 9.763 9.763 0 0 0-.527-.02zm3.795.77l.027 8.5c0 .018-.013.032-.021.048v.578l-.045.639 5.74-2.994a9.763 9.763 0 0 0-.19-.662l.008-.006a9.763 9.763 0 0 0-.047-.125 9.763 9.763 0 0 0-.187-.512 9.763 9.763 0 0 0-.152-.387 9.763 9.763 0 0 0-.245-.504 9.763 9.763 0 0 0-.193-.373 9.763 9.763 0 0 0-.277-.453 9.763 9.763 0 0 0-.252-.384 9.763 9.763 0 0 0-.307-.403 9.763 9.763 0 0 0-.293-.363 9.763 9.763 0 0 0-.336-.361 9.763 9.763 0 0 0-.342-.346 9.763 9.763 0 0 0-.404-.354 9.763 9.763 0 0 0-.32-.265 9.763 9.763 0 0 0-.447-.32 9.763 9.763 0 0 0-.366-.247 9.763 9.763 0 0 0-.722-.416 9.763 9.763 0 0 0-.63-.29zm-10.31 1.736a9.763 9.763 0 0 0-.491.484l-.008-.004a9.763 9.763 0 0 0-.08.09 9.763 9.763 0 0 0-.351.402 9.763 9.763 0 0 0-.293.356 9.763 9.763 0 0 0-.288.402 9.763 9.763 0 0 0-.265.399 9.763 9.763 0 0 0-.248.431 9.763 9.763 0 0 0-.225.424 9.763 9.763 0 0 0-.203.455 9.763 9.763 0 0 0-.18.436 9.763 9.763 0 0 0-.164.494 9.763 9.763 0 0 0-.127.43 9.763 9.763 0 0 0-.117.523 9.763 9.763 0 0 0-.082.428 9.763 9.763 0 0 0-.101.814 9.763 9.763 0 0 0 0 .031 9.763 9.763 0 0 0 0 .012 9.763 9.763 0 0 0-.024.65 9.763 9.763 0 0 0 .014.235 9.763 9.763 0 0 0 .004.156l.006-.002a9.763 9.763 0 0 0 .046.691l7.844-4.56.533-.262-5.2-3.515zm16.167 5.859l-6.217 3.828c-.018.01-.037.006-.056.008l-1.586.916-.615.299 5.28 3.654a9.763 9.763 0 0 0 .495-.48l.008.003a9.763 9.763 0 0 0 .086-.095 9.763 9.763 0 0 0 .36-.406 9.763 9.763 0 0 0 .273-.325 9.763 9.763 0 0 0 .337-.466 9.763 9.763 0 0 0 .225-.329 9.763 9.763 0 0 0 .268-.46 9.763 9.763 0 0 0 .22-.407 9.763 9.763 0 0 0 .211-.463 9.763 9.763 0 0 0 .178-.422 9.763 9.763 0 0 0 .17-.5 9.763 9.763 0 0 0 .133-.435 9.763 9.763 0 0 0 .113-.49 9.763 9.763 0 0 0 .092-.455 9.763 9.763 0 0 0 .1-.786 9.763 9.763 0 0 0 .007-.054 9.763 9.763 0 0 0 0-.014 9.763 9.763 0 0 0 .004-.031 9.763 9.763 0 0 0 .002-.082 9.763 9.763 0 0 0 .024-.612 9.763 9.763 0 0 0-.012-.216 9.763 9.763 0 0 0-.026-.493l-.003.002a9.763 9.763 0 0 0-.07-.689zm-13.396.459l-5.826 2.857a9.763 9.763 0 0 0 .168.67l-.008.004a9.763 9.763 0 0 0 .039.121 9.763 9.763 0 0 0 .166.504 9.763 9.763 0 0 0 .154.424 9.763 9.763 0 0 0 .205.465 9.763 9.763 0 0 0 .21.432 9.763 9.763 0 0 0 .235.412 9.763 9.763 0 0 0 .26.425 9.763 9.763 0 0 0 .291.41 9.763 9.763 0 0 0 .274.362 9.763 9.763 0 0 0 .361.412 9.763 9.763 0 0 0 .295.318 9.763 9.763 0 0 0 .371.348 9.763 9.763 0 0 0 .357.316 9.763 9.763 0 0 0 .409.311 9.763 9.763 0 0 0 .359.26 9.763 9.763 0 0 0 .463.285 9.763 9.763 0 0 0 .385.22 9.763 9.763 0 0 0 .14.08v-.011a9.763 9.763 0 0 0 .63.305v-6.985c0-.006.005-.009.005-.015v-2.127l.057-.803zm1.177 3.791l-.457 6.418a9.763 9.763 0 0 0 .666.184v.005a9.763 9.763 0 0 0 .08.016 9.763 9.763 0 0 0 .637.13 9.763 9.763 0 0 0 .34.06 9.763 9.763 0 0 0 .607.074 9.763 9.763 0 0 0 .178.004 9.763 9.763 0 0 0 .516.02 9.763 9.763 0 0 0 .16-.009 9.763 9.763 0 0 0 .398-.02 9.763 9.763 0 0 0 .588-.046 9.763 9.763 0 0 0 .385-.06 9.763 9.763 0 0 0 .568-.104 9.763 9.763 0 0 0 .397-.104 9.763 9.763 0 0 0 .543-.156 9.763 9.763 0 0 0 .389-.142 9.763 9.763 0 0 0 .515-.206 9.763 9.763 0 0 0 .393-.19 9.763 9.763 0 0 0 .47-.247 9.763 9.763 0 0 0 .432-.254l-.01-.006a9.763 9.763 0 0 0 .58-.387l-6.214-3.68-1.62-.935-.54-.365z" fill-rule="evenodd"/><circle cx="9.569" cy="9.724" r="1.042"/></g></g></svg>