<svg xmlns:osb="http://www.openswatchbook.org/uri/2009/osb" xmlns="http://www.w3.org/2000/svg" xmlns:xlink="http://www.w3.org/1999/xlink" width="48" height="48" version="1.1" id="svg38"><defs id="defs22"><linearGradient id="linearGradient4488"><stop id="stop4490" offset="0" stop-color="#000" stop-opacity=".047"/><stop id="stop4492" offset="1" stop-color="#000" stop-opacity="0"/></linearGradient><style id="style4511"/><style id="style4511-26"/><style id="style4511-9"/><style id="style4552"/><style id="style4511-2"/><linearGradient xlink:href="#linearGradient4488" id="linearGradient4540" gradientUnits="userSpaceOnUse" gradientTransform="matrix(-.00052 .30406 -.2948 -.00054 45.95 -62.006)" x1="288.112" y1="141.785" x2="287.575" y2="79.008"/><linearGradient osb:paint="solid" id="linearGradient5293"><stop id="stop5295" offset="0" stop-color="#9a89c0" stop-opacity="1"/></linearGradient><style id="style4511-87"/><style id="style4511-26-7"/><style id="style4511-9-1"/><style id="style4552-53"/><style id="style4511-2-9"/><style id="style4511-8"/><style id="style4511-26-4"/><style id="style4511-9-8"/><style id="style4552-5"/><style id="style4511-2-5"/><style id="style4511-879"/><style id="style4511-26-76"/><style id="style4511-9-2"/><style id="style4552-8"/><style id="style4511-2-0"/><path id="SVGID_9_" d="M18.9 29.9v-14l12.1 7-12.1 7z"/></defs><style id="style4485" type="text/css"/><style type="text/css" id="style4485-7"/><style id="style4485-6" type="text/css"/><style type="text/css" id="style4485-3"/><path id="path4516" d="M22.328 3.645l-1.619-.003c-9.29-.017-16.78 5.557-16.8 17.13l-.012 6.936C3.871 42.853 14.854 45.58 20.637 45.59l1.62.003c-5.784-.01-16.767-2.737-16.74-17.882l.011-6.936c.02-11.573 7.51-17.147 16.8-17.13z" opacity="1" fill="url(#linearGradient4540)" fill-opacity="1" stroke="none" stroke-width="1.084" stroke-linecap="square" stroke-linejoin="bevel" stroke-miterlimit="4" stroke-dasharray="none" stroke-dashoffset="0" stroke-opacity=".078"/><path d="M45.192 20.314c.02-11.152-7.45-16.64-16.741-16.658l-4.166-.007-.072 41.947 4.166.008c5.857.01 16.775-2.869 16.799-16.788z" id="path4518" opacity="1" fill="#cc811a" fill-opacity="1" stroke="#000" stroke-width=".329" stroke-linecap="square" stroke-linejoin="bevel" stroke-miterlimit="4" stroke-dasharray="none" stroke-dashoffset="0" stroke-opacity=".078"/><path d="M3.284 28.96c-.004 11.152 7.472 16.63 16.763 16.634l4.166.002.017-41.947-4.165-.002C14.208 3.644 3.294 6.539 3.288 20.458z" id="path4518-7" opacity="1" fill="#cc811a" fill-opacity="1" stroke="#000" stroke-width=".329" stroke-linecap="square" stroke-linejoin="bevel" stroke-miterlimit="4" stroke-dasharray="none" stroke-dashoffset="0" stroke-opacity=".078"/><path id="path4518-0" d="M5.44 28.477v-7.551c0-12.363 10.143-14.937 15.585-14.937h6.424c5.374 0 15.585 2.403 15.585 15.854v6.16c0 10.277-6.95 15.24-15.585 15.24h-6.424c-8.634 0-15.585-4.862-15.585-14.766z" opacity="1" fill="#1d583a" fill-opacity="1" stroke="#000" stroke-width=".299" stroke-linecap="square" stroke-linejoin="bevel" stroke-miterlimit="4" stroke-dasharray="none" stroke-dashoffset="0" stroke-opacity=".078"/><g id="g2422" transform="translate(50.75 .75)"><path id="path850" d="M-14.698 20.288l-14.253-8.256c-.824-.471-1.766.118-1.766 1.062v16.51c0 .944.942 1.533 1.766 1.062l14.253-8.256a1.22 1.22 0 0 0 0-2.122zm-14.842 9.316v-16.51l14.253 8.255z" fill="#fff" stroke-width="1.179"/><g transform="matrix(1.17787 0 0 1.17933 -51.801 -5.658)" id="g892"><clipPath id="SVGID_1_-1"><use id="use855" overflow="visible" xlink:href="#SVGID_9_" x="0" y="0" width="100%" height="100%"/></clipPath><g id="g890" clip-path="url(#SVGID_1_-1)" stroke-miterlimit="10" fill="none" stroke="#fff" stroke-width=".3"><path id="line858" d="M11.1 23.8l11.5-11.5"/><path id="line860" d="M12.5 25.2L24 13.7"/><path id="line862" d="M13.9 26.7l11.6-11.6"/><path id="line864" d="M15.3 28.1l11.6-11.6"/><path id="line866" d="M16.7 29.5l11.6-11.6"/><path id="line868" d="M18.1 30.9l11.6-11.6"/><path id="line870" d="M19.6 32.3l11.5-11.6"/><path id="line872" d="M21 33.7l11.5-11.5"/><path id="line874" d="M11.8 24.5L23.3 13"/><path id="line876" d="M13.2 25.9l11.6-11.5"/><path id="line878" d="M14.6 27.4l11.6-11.6"/><path id="line880" d="M16 28.8l11.6-11.6"/><path id="line882" d="M17.4 30.2L29 18.6"/><path id="line884" d="M18.8 31.6L30.4 20"/><path id="line886" d="M20.3 33l11.5-11.5"/><path id="line888" d="M21.7 34.4l11.5-11.5"/></g></g><g transform="matrix(1.17787 0 0 1.17933 -51.801 -5.658)" id="g904" opacity=".5" stroke-miterlimit="10" fill="none" stroke="#fff" stroke-width=".3"><path id="line894" d="M9 31.5h19"/><path id="line896" d="M18 27.3v10.1"/><circle id="circle898" r="3.4" cy="31.5" cx="18"/><path id="line900" d="M22.5 12l-8 6.1"/><path id="line902" d="M20 12.5l-8 6.1"/></g></g><text xml:space="preserve" style="line-height:1.25;-inkscape-font-specification:'FreeSerif Bold Italic'" x="6.992" y="32.657" id="text1485" transform="scale(1.13496 .88109)" font-style="italic" font-variant="normal" font-weight="700" font-stretch="normal" font-size="17.219" font-family="FreeSerif" letter-spacing="0" word-spacing="0" fill="#fff" fill-opacity="1" stroke="none" stroke-width="1"><tspan id="tspan1483" x="6.992" y="32.657" stroke-width="1">b</tspan></text></svg>