<svg xmlns:osb="http://www.openswatchbook.org/uri/2009/osb" xmlns="http://www.w3.org/2000/svg" xmlns:xlink="http://www.w3.org/1999/xlink" width="48" height="48" version="1.1" id="svg38"><defs id="defs22"><linearGradient id="linearGradient4488"><stop id="stop4490" offset="0" stop-color="#000" stop-opacity=".047"/><stop id="stop4492" offset="1" stop-color="#000" stop-opacity="0"/></linearGradient><style id="style4511"/><style id="style4511-26"/><style id="style4511-9"/><style id="style4552"/><style id="style4511-2"/><linearGradient xlink:href="#linearGradient4488" id="linearGradient4540" gradientUnits="userSpaceOnUse" gradientTransform="translate(-62.889 1.994) scale(.3038)" x1="288.112" y1="141.785" x2="287.575" y2="79.008"/><linearGradient osb:paint="solid" id="linearGradient5293"><stop id="stop5295" offset="0" stop-color="#9a89c0" stop-opacity="1"/></linearGradient><clipPath id="clipPath1205-3" clipPathUnits="userSpaceOnUse"><path d="M115.031 44C42.383 44 32 54.357 32 126.938v58.124c0 13.772.379 25.294 1.482 34.938h237.036c1.103-9.644 1.482-21.166 1.482-34.938v-58.125C272 54.358 261.617 44 188.969 44z" id="path1207-6" opacity="1" fill="#f1f0e9" fill-opacity="1" stroke="none" stroke-width="2" stroke-linecap="round" stroke-linejoin="round" stroke-miterlimit="4" stroke-dasharray="none" stroke-dashoffset="0" stroke-opacity="1"/></clipPath></defs><style id="style4485" type="text/css"/><path id="path4516" d="M2.75 26.22v1.67c0 9.573 5.583 17.281 17.146 17.281h6.93c15.132 0 17.836-11.322 17.836-17.282v-1.668c0 5.96-2.704 17.282-17.836 17.282h-6.93C8.333 43.503 2.75 35.795 2.75 26.22z" opacity="1" fill="url(#linearGradient4540)" fill-opacity="1" stroke="none" stroke-width="1.1" stroke-linecap="square" stroke-linejoin="bevel" stroke-miterlimit="4" stroke-dasharray="none" stroke-dashoffset="0" stroke-opacity=".078"/><path id="path4518" d="M19.363 2.742h8.495c13.908 0 16.804 11.247 16.804 17.282v7.124c0 5.96-2.704 17.282-17.836 17.282h-6.93C8.333 44.43 2.75 36.722 2.75 27.148v-7.124c0-9.574 5.47-17.282 16.613-17.282z" opacity="1" fill="#e20b19" fill-opacity="1" stroke="#000" stroke-width=".334" stroke-linecap="square" stroke-linejoin="bevel" stroke-miterlimit="4" stroke-dasharray="none" stroke-dashoffset="0" stroke-opacity=".078"/><path d="M17.51 44.322c.695.075 1.463.107 2.328.107h7.27c.893 0 1.69-.03 2.402-.11.101-.012.188-.033.286-.046-1.44-3.158-4.013-5.91-6.323-5.91-2.322 0-4.545 2.789-5.963 5.959z" id="path1051" fill="#fca" stroke-width=".069"/><g id="g1355" transform="matrix(.07847 0 0 .08118 3.459 5.973)"><g id="g1079"><g id="g1065"><g id="g1057"><circle cx="343" cy="250.4" r="58.4" id="circle1053" fill="#fff"/><path d="M343 250.4c-19 19-53.4 15.4-34.4 34.4s49.9 19 68.9 0c19-19 19-49.9 0-68.9-19-19-15.5 15.5-34.5 34.5z" id="path1055" fill="#010101"/></g><g id="g1063"><circle cx="169" cy="250.4" r="58.4" id="circle1059" fill="#fff"/><path d="M134.6 216c-19 19-19 49.9 0 68.9 19 19 49.9 19 68.9 0 19-19-15.5-15.5-34.5-34.5S153.6 197 134.6 216z" id="path1061" fill="#010101"/></g></g><g id="g1071"><path d="M184.5 336.7c-12.4 7 29.7 51.9 70.6 51.9 42.3 0 85.3-44.3 73.9-51.9-38.3-25.4-56.6-20.3-74-20.7-16.9-.4-39.2 3.1-70.5 20.7z" id="path1067" fill="#ce5b27"/><path d="M183.7 344c-26 9.3 24.5-65.4 72.4-65.4 49.4 0 94.2 70.9 74.6 65.4-47-13.3-54.3 31.9-74.7 32.4-19.8.6-32.1-46.8-72.3-32.4z" id="path1069" fill="#fbad18"/></g><g id="g1077" fill="#010101"><path d="M238.8 243.6c-35.8-10.5-124.1-42.5-137.5-75.7-4.3-10.7 22.6-52.5 30.5-43.2 32.9 38.1 118.3 98.2 118.3 98.2s-4.5 22.7-11.3 20.7z" id="path1073"/><path d="M273.2 243.6c35.8-10.5 124.1-42.5 137.5-75.7 4.3-10.7-22.6-52.5-30.5-43.2-32.9 38.1-118.3 98.2-118.3 98.2s4.5 22.7 11.3 20.7z" id="path1075"/></g></g><g id="g1087" fill="#010101"><path d="M256.2 149.5c-16.5-27.1-54.9-69.7-54.9-69.7 1.7-18 14.9-24.3 14.9-24.3s39.6 58.1 49.1 82.1c1.5 4.1-7 15.3-9.1 11.9z" id="path1081"/><path d="M260.1 161.1c-22.7-12.9-69.5-24.5-69.5-24.5-3.7-17.3 6.1-31.9 6.1-31.9s52.4 24.8 67.9 39.6c2.6 2.4-1.7 18.3-4.5 16.8z" id="path1083"/><path d="M254.1 148.5c-8.2-34.9-32.4-97.2-32.4-97.2 6.3-15.6 20-13.3 20-13.3s21.2 77.4 23.8 105.1c.4 4.6-10.4 9.8-11.4 5.4z" id="path1085"/></g></g></svg>