<svg xmlns:osb="http://www.openswatchbook.org/uri/2009/osb" xmlns="http://www.w3.org/2000/svg" xmlns:xlink="http://www.w3.org/1999/xlink" width="48" height="48" version="1.1" id="svg38"><defs id="defs22"><linearGradient id="linearGradient4488"><stop id="stop4490" offset="0" stop-color="#000" stop-opacity=".047"/><stop id="stop4492" offset="1" stop-color="#000" stop-opacity="0"/></linearGradient><style id="style4511"/><style id="style4511-26"/><style id="style4511-9"/><style id="style4552"/><linearGradient id="e-1" y1="41.22" x1="24.392" y2="25.343" x2="20.643" gradientUnits="userSpaceOnUse"><stop stop-color="#334545" id="stop22-8"/><stop offset="1" stop-color="#536161" id="stop24-7"/></linearGradient><style id="style4511-2"/><linearGradient xlink:href="#linearGradient4488" id="linearGradient4540" gradientUnits="userSpaceOnUse" gradientTransform="translate(-62.889 1.994) scale(.3038)" x1="288.112" y1="141.785" x2="287.575" y2="79.008"/><linearGradient osb:paint="solid" id="linearGradient5293"><stop id="stop5295" offset="0" stop-color="#9a89c0" stop-opacity="1"/></linearGradient><linearGradient xlink:href="#e-1" id="linearGradient1438" x1="2.583" y1="23.586" x2="44.83" y2="23.586" gradientUnits="userSpaceOnUse"/></defs><style id="style4485" type="text/css"/><path id="path4516" d="M2.75 26.22v1.67c0 9.573 5.583 17.281 17.146 17.281h6.93c15.132 0 17.836-11.322 17.836-17.282v-1.668c0 5.96-2.704 17.282-17.836 17.282h-6.93C8.333 43.503 2.75 35.795 2.75 26.22z" opacity="1" fill="url(#linearGradient4540)" fill-opacity="1" stroke="none" stroke-width="1.1" stroke-linecap="square" stroke-linejoin="bevel" stroke-miterlimit="4" stroke-dasharray="none" stroke-dashoffset="0" stroke-opacity=".078"/><path id="path4518" d="M19.363 2.742h8.495c13.908 0 16.804 11.247 16.804 17.282v7.124c0 5.96-2.704 17.282-17.836 17.282h-6.93C8.333 44.43 2.75 36.722 2.75 27.148v-7.124c0-9.574 5.47-17.282 16.613-17.282z" opacity="1" fill="url(#linearGradient1438)" fill-opacity="1" stroke="#000" stroke-width=".334" stroke-linecap="square" stroke-linejoin="bevel" stroke-miterlimit="4" stroke-dasharray="none" stroke-dashoffset="0" stroke-opacity=".078"/><g id="g1572" transform="rotate(.35 272.808 14.56)" fill-opacity="1" fill-rule="evenodd" stroke="none"><rect rx=".682" y="13.967" x="14.629" height="3.068" width="8.527" id="rect33" fill="#c37c14" stroke-width=".611"/><rect width="8.527" height="3.068" x="23.849" y="13.967" rx=".682" id="rect37" fill="#00aad4" stroke-width=".611"/><rect width="8.527" height="2.976" x="5.481" y="13.952" rx=".682" id="rect39" fill="#3465a4" stroke-width=".602"/><rect width="6.821" height="2.191" x="15.481" y="14.405" rx=".171" id="rect41" fill="#f3ad47" stroke-width=".611"/><rect rx=".171" y="14.405" x="24.702" height="2.191" width="6.821" id="rect43" fill="#80e5ff" stroke-width=".611"/><rect width="6.821" height="2.126" x="6.333" y="14.377" rx=".171" id="rect45" fill="#729fcf" stroke-width=".602"/><rect width="8.527" height="3.023" x="33.3" y="13.966" rx=".682" id="rect39-3" fill="#ff2a2a" stroke-width=".607"/><rect width="6.821" height="2.16" x="34.153" y="14.398" rx=".171" id="rect45-6" fill="#f55" stroke-width=".607"/><rect rx=".682" y="17.379" x="14.629" height="3.068" width="8.527" id="rect33-3" fill="#60f" stroke-width=".611"/><rect width="8.527" height="3.068" x="23.849" y="17.379" rx=".682" id="rect37-6" fill="#5e9d23" stroke-width=".611"/><rect width="8.527" height="2.976" x="5.481" y="17.364" rx=".682" id="rect39-7" fill="#d400aa" stroke-width=".602"/><rect width="6.821" height="2.191" x="15.481" y="17.817" rx=".171" id="rect41-5" fill="#95f" stroke-width=".611"/><rect rx=".171" y="17.817" x="24.702" height="2.191" width="6.821" id="rect43-3" fill="#82d530" stroke-width=".611"/><rect width="6.821" height="2.126" x="6.333" y="17.789" rx=".171" id="rect45-5" fill="#d5f" stroke-width=".602"/><rect width="8.527" height="3.023" x="33.3" y="17.378" rx=".682" id="rect39-3-6" fill="#536c67" stroke-width=".607"/><rect width="6.821" height="2.16" x="34.153" y="17.81" rx=".171" id="rect45-6-2" fill="#93aca7" stroke-width=".607"/><rect rx=".682" y="21.159" x="14.578" height="3.068" width="8.527" id="rect33-9" fill="#d4aa00" stroke-width=".611"/><rect width="8.527" height="3.068" x="23.798" y="21.159" rx=".682" id="rect37-1" fill="#6f0" stroke-width=".611"/><rect width="8.527" height="2.976" x="5.43" y="21.144" rx=".682" id="rect39-2" fill="#3465a4" stroke-width=".602"/><rect width="6.821" height="2.191" x="15.431" y="21.597" rx=".171" id="rect41-7" fill="#fd5" stroke-width=".611"/><rect rx=".171" y="21.597" x="24.651" height="2.191" width="6.821" id="rect43-0" fill="#bcd35f" stroke-width=".611"/><rect width="6.821" height="2.126" x="6.283" y="21.569" rx=".171" id="rect45-9" fill="#729fcf" stroke-width=".602"/><rect width="8.527" height="3.023" x="33.25" y="21.158" rx=".682" id="rect39-3-3" fill="#d40000" stroke-width=".607"/><rect width="6.821" height="2.16" x="34.102" y="21.59" rx=".171" id="rect45-6-6" fill="#ff2a2a" stroke-width=".607"/><rect rx=".682" y="10.244" x="18.799" height="2.894" width="8.527" id="rect33-9-0" fill="#d4aa00" stroke-width=".594"/><rect width="8.527" height="2.807" x="9.651" y="10.23" rx=".682" id="rect39-2-2" fill="#3465a4" stroke-width=".585"/><rect width="6.821" height="2.067" x="19.652" y="10.657" rx=".171" id="rect41-7-6" fill="#fd5" stroke-width=".594"/><rect width="6.821" height="2.005" x="10.504" y="10.631" rx=".171" id="rect45-9-8" fill="#729fcf" stroke-width=".585"/><rect width="8.527" height="2.852" x="27.877" y="10.243" rx=".682" id="rect39-3-3-7" fill="#d40000" stroke-width=".589"/><rect width="6.821" height="2.037" x="28.73" y="10.65" rx=".171" id="rect45-6-6-9" fill="#ff2a2a" stroke-width=".589"/><rect rx=".698" y="6.432" x="23.722" height="2.894" width="8.725" id="rect33-3-2" fill="#60f" stroke-width=".601"/><rect width="8.725" height="2.807" x="14.361" y="6.418" rx=".698" id="rect39-7-0" fill="#d400aa" stroke-width=".592"/><rect width="6.98" height="2.067" x="24.594" y="6.846" rx=".174" id="rect41-5-2" fill="#95f" stroke-width=".601"/><rect width="6.98" height="2.005" x="15.234" y="6.819" rx=".174" id="rect45-5-3" fill="#d5f" stroke-width=".592"/></g><g id="g1580" transform="translate(48.95 .238)" stroke="none"><g transform="matrix(.84258 0 0 .82617 -1.97 -3.487)" id="g242" fill="#ecac20" fill-opacity="1" fill-rule="nonzero"><path id="path73-7" d="M-40.555 51.208c3.44-2.015 2.651-2.338 4.116-3.914.021.089.035.182.111.24.114.086.293.132.532.132.239 0 .52-.046.82-.133.3-.086.62-.209.942-.363.323-.154.646-.336.954-.54.308-.204.6-.43.853-.664a3.64 3.64 0 0 0 .583-.664c.133-.204.205-.387.215-.54a.397.397 0 0 0-.157-.364c-.114-.086-.293-.132-.532-.132a3.05 3.05 0 0 0-.82.132c-.3.087-.619.21-.942.363a7.907 7.907 0 0 0-.954.54c-.308.204-.6.43-.853.665-.254.234-.45.46-.583.664-.055.084-.053.145-.087.221-.42.238-.84.427-1.44.532 3.3-1.984.531-1.763 2.639-3.49-.402.085-1.303.654-1.826 1.355.254-.985 1.46-1.833 2.956-2.683-1.19.567-2.13.565-3.28 1.362 2.2-2.429 7.582-4.54 10.628-4.54h.216c1.91 0 2.929 1.683.76 3.76.154-.39-.215-1.148-.746-1.148.172 1.134-1.378 2.834-4.386 4.464 1.242-1.063 1.274-1.631 1.154-1.993-.82 1.497-2.663 3.202-5.851 4.703.522-.368.93-.656 1.208-.992-.359.412-3.67 2.32-6.232 3.029m.001-.001" stroke-width=".286"/><path id="path75-5" d="M-37.32 48.51c.084-.637.272-1.317 1.252-2.223 1.583-1.464 3.826-2.636 5.21-2.636h.055c1.594.058.502 1.963-2.58 3.569-.49.24-1.125.824-1.469 1.41-.26-.294.085-.88 1.007-1.465-.567.237-1.014.584-1.428.98-.107-.05-.212-.101-.387-.101-.24 0-.522.048-.826.137a6.273 6.273 0 0 0-.832.33m-.002 0" stroke-width=".291"/></g><path d="M-27.743 30.666c.269 1.428 1.88 2.293 3.601 1.929 1.717-.363 2.892-1.814 2.623-3.241-.269-1.428-1.88-2.29-3.601-1.928-1.717.362-2.892 1.813-2.623 3.24m0 0" id="path71" fill="#0cf" fill-opacity="1" fill-rule="evenodd" stroke-width=".749"/><path d="M-24.587 29.46c-.496.285-1.08.31-1.304.058-.227-.253-.007-.688.49-.972.495-.284 1.076-.31 1.303-.06.224.253.007.688-.49.974m0 0" id="path73" fill="#fff" fill-opacity=".765" fill-rule="evenodd" stroke-width=".749"/><path d="M-26.58 29.236c-.272.357-.4.774-.325 1.186.174.906 1.28 1.438 2.472 1.187 1.191-.252 2.018-1.19 1.844-2.1-.068-.37-.295-.68-.62-.898.591.253 1.018.706 1.13 1.284.203 1.092-.791 2.223-2.223 2.522-1.435.302-2.761-.336-2.968-1.428-.119-.625.16-1.266.69-1.753m0 0" id="path75" fill="#fff" fill-opacity=".102" fill-rule="evenodd" stroke-width=".749"/></g></svg>