<svg xmlns:osb="http://www.openswatchbook.org/uri/2009/osb" xmlns="http://www.w3.org/2000/svg" xmlns:xlink="http://www.w3.org/1999/xlink" width="48" height="48" version="1.1" id="svg38"><defs id="defs22"><linearGradient id="linearGradient4488"><stop id="stop4490" offset="0" stop-color="#000" stop-opacity=".047"/><stop id="stop4492" offset="1" stop-color="#000" stop-opacity="0"/></linearGradient><style id="style4511"/><style id="style4511-26"/><style id="style4511-9"/><style id="style4552"/><style id="style4511-2"/><linearGradient xlink:href="#linearGradient4488" id="linearGradient4540" gradientUnits="userSpaceOnUse" gradientTransform="matrix(-.00052 .30406 -.2948 -.00054 45.95 -62.006)" x1="288.112" y1="141.785" x2="287.575" y2="79.008"/><linearGradient osb:paint="solid" id="linearGradient5293"><stop id="stop5295" offset="0" stop-color="#9a89c0" stop-opacity="1"/></linearGradient><style id="style4511-87"/><style id="style4511-26-7"/><style id="style4511-9-1"/><style id="style4552-53"/><style id="style4511-2-9"/><style id="style4511-8"/><style id="style4511-26-4"/><style id="style4511-9-8"/><style id="style4552-5"/><style id="style4511-2-5"/><style id="style4511-879"/><style id="style4511-26-76"/><style id="style4511-9-2"/><style id="style4552-8"/><style id="style4511-2-0"/></defs><style id="style4485" type="text/css"/><style type="text/css" id="style4485-7"/><style id="style4485-6" type="text/css"/><style type="text/css" id="style4485-3"/><g id="g2419"><path d="M22.328 3.645l-1.619-.003c-9.29-.017-16.78 5.557-16.8 17.13l-.012 6.936C3.871 42.853 14.854 45.58 20.637 45.59l1.62.003c-5.784-.01-16.767-2.737-16.74-17.882l.011-6.936c.02-11.573 7.51-17.147 16.8-17.13z" id="path4516" opacity="1" fill="url(#linearGradient4540)" fill-opacity="1" stroke="none" stroke-width="1.084" stroke-linecap="square" stroke-linejoin="bevel" stroke-miterlimit="4" stroke-dasharray="none" stroke-dashoffset="0" stroke-opacity=".078"/><path id="path4518" d="M45.083 20.314c.02-11.152-7.45-16.641-16.741-16.658l-4.166-.008-.072 41.948 4.166.008c5.857.01 16.775-2.869 16.799-16.789z" opacity="1" fill="#333" fill-opacity="1" stroke="#000" stroke-width=".329" stroke-linecap="square" stroke-linejoin="bevel" stroke-miterlimit="4" stroke-dasharray="none" stroke-dashoffset="0" stroke-opacity=".078"/><path id="path4518-7" d="M3.23 28.96c-.005 11.152 7.472 16.63 16.763 16.634l4.166.002.017-41.947-4.166-.002C14.153 3.644 3.24 6.539 3.233 20.458z" opacity="1" fill="#333" fill-opacity="1" stroke="#000" stroke-width=".329" stroke-linecap="square" stroke-linejoin="bevel" stroke-miterlimit="4" stroke-dasharray="none" stroke-dashoffset="0" stroke-opacity=".078"/><g transform="matrix(1.78365 0 0 1 -1.715 -1.355)" id="g2259" fill="#2ea7e0"><path id="polygon2255" d="M18 16V5h-1v10h-2v-2H5v1h9v2z"/><path id="polygon2257" d="M15 5h-1v5H5v1h10z"/></g><path id="path2261" d="M30.259 29.302h2c1.1 0 2-.9 2-2v-6c0-1.1-.9-2-2-2h-2c-1.1 0-2 .9-2 2v6c0 1.1.9 2 2 2zm1-9c1.1 0 2 .9 2 2v5c0 .6-.4 1-1 1h-2c-.6 0-1-.4-1-1v-5c0-1.1.9-2 2-2z" fill="#2ea7e0"/><g transform="translate(1.259 5.302)" id="g2267" fill="#2ea7e0"><path id="path2263" d="M39 12.5v8c0 .8.7 1.5 1.5 1.5H43v-1h-2.5c-.3 0-.5-.2-.5-.5v-8c0-.3.2-.5.5-.5H43v-1h-2.5c-.8 0-1.5.7-1.5 1.5z"/><path id="path2265" d="M43 23h-3.5c-.8 0-1.5-.7-1.5-1.5v-10c0-.8.7-1.5 1.5-1.5H43V9h-3.5c-1.4 0-2.5 1.1-2.5 2.5v10c0 1.4 1.1 2.5 2.5 2.5H43z"/></g><g transform="translate(-17.841 2.596)" id="g2273" fill="#2ea7e0"><path id="path2269" d="M38 43v-8.5c0-.8.7-1.5 1.5-1.5h3c.2 0 .3 0 .5.1v-1c-.2 0-.3-.1-.5-.1h-3c-1.4 0-2.5 1.1-2.5 2.5V43z"/><path id="polygon2271" d="M43 34h-2v9h1v-8h1z"/></g><path id="path2275" d="M3.26 19.25v.791h14v1.582h-11v7.906c0 .474-.4.79-1 .79h-2v.791h2c1.1 0 2-.712 2-1.581v-7.116h11v-3.162z" fill="#2ea7e0" stroke-width=".889"/><path id="path2277" d="M24.352 24.276l12.2-8.1c-2.6-3.9-7.1-6.5-12.2-6.5-8 0-14.6 6.5-14.6 14.6s6.6 14.7 14.7 14.7c5.9 0 11.1-3.5 13.3-8.6z" fill="#fb3"/><circle id="circle2279" r="1" cy="11.302" cx="36.259" fill="#fb3"/><circle id="circle2281" r="1" cy="18.302" cx="36.446" fill="#fb3"/><circle id="circle2283" r="1" cy="31.302" cx="36.259" fill="#fb3"/><circle id="circle2285" r="1" cy="26.302" cx="36.259" fill="#fb3"/><circle id="circle2287" r="1" cy="40.938" cx="36.259" fill="#fb3"/><circle id="circle2291" r="1" cy="40.999" cx="26.966" fill="#fb3"/><circle id="circle2293" r="1" cy="40.999" cx="31.966" fill="#fb3"/><circle id="circle2295" r="1" cy="40.999" cx="16.966" fill="#fb3"/><circle id="circle2297" r="1" cy="40.822" cx="12.761" fill="#fb3"/><circle id="circle2299" r="1" cy="22.312" cx="36.403" fill="#fb3"/><circle id="circle2301" r="1" cy="15.973" cx="6.196" fill="#fb3"/></g></svg>