<svg xmlns="http://www.w3.org/2000/svg" xmlns:xlink="http://www.w3.org/1999/xlink" width="48" height="48" version="1.1" id="svg38"><defs id="defs22"><linearGradient id="linearGradient4488"><stop id="stop4490" offset="0" stop-color="#000" stop-opacity=".047"/><stop id="stop4492" offset="1" stop-color="#000" stop-opacity="0"/></linearGradient><style id="style4511"/><style id="style4511-26"/><style id="style4511-9"/><style id="style4552"/><style id="style4511-2"/><linearGradient gradientTransform="matrix(.3082 0 0 .3038 -64.056 2.216)" xlink:href="#linearGradient4488" id="linearGradient4160" x1="288.112" y1="141.785" x2="287.575" y2="79.008" gradientUnits="userSpaceOnUse"/></defs><style id="style4485" type="text/css"/><path d="M2.535 26.443v1.668c0 9.575 5.664 17.282 17.394 17.282h7.031c15.352 0 18.095-11.322 18.095-17.282v-1.668c0 5.96-2.743 17.282-18.095 17.282h-7.03c-11.73 0-17.395-7.708-17.395-17.282z" id="path4147" opacity="1" fill="url(#linearGradient4160)" fill-opacity="1" stroke="none" stroke-width="1.108" stroke-linecap="square" stroke-linejoin="bevel" stroke-miterlimit="4" stroke-dasharray="none" stroke-dashoffset="0" stroke-opacity=".078"/><path d="M19.389 2.965h8.618c14.11 0 17.048 11.246 17.048 17.282v7.123c0 5.96-2.743 17.282-18.095 17.282h-7.03c-11.73 0-17.395-7.708-17.395-17.282v-7.123c0-9.575 5.55-17.282 16.854-17.282z" id="rect4144" opacity="1" fill="#226db1" fill-opacity="1" stroke="#000" stroke-width=".337" stroke-linecap="square" stroke-linejoin="bevel" stroke-miterlimit="4" stroke-dasharray="none" stroke-dashoffset="0" stroke-opacity=".078"/><g id="g1250" transform="matrix(.8586 0 0 .93073 3.365 1.65)" fill-opacity="1" stroke="none" stroke-opacity="1"><path id="path5689" d="M27.207 10.595l-17.076 3.357v19.57l17.076 3.5z" opacity="1" fill="#f9f9f9" fill-rule="evenodd" stroke-width=".644" stroke-linecap="butt" stroke-linejoin="miter"/><rect ry="0" y="19.415" x="28.578" height="12.744" width="8.882" id="rect4140" opacity="1" fill="#f9f9f9" stroke-width=".322" stroke-linecap="round" stroke-linejoin="round"/><path id="path4142" d="M18.33 18.202a5.466 5.765 0 0 0-5.465 5.765 5.466 5.765 0 0 0 5.465 5.765 5.466 5.765 0 0 0 5.466-5.765 5.466 5.765 0 0 0-5.466-5.765zm0 1.213a4.1 4.551 0 0 1 4.1 4.552 4.1 4.551 0 0 1-4.1 4.55 4.1 4.551 0 0 1-4.1-4.55 4.1 4.551 0 0 1 4.1-4.552z" opacity="1" fill="#226db1" stroke-width=".322" stroke-linecap="round" stroke-linejoin="round"/><path id="path4156" d="M28.578 21.843l2.733 2.433 6.149-4.254v1.82l-6.126 4.24-2.733-2.454z" fill="#226db1" fill-rule="evenodd" stroke-width=".644" stroke-linecap="butt" stroke-linejoin="miter"/></g></svg>