<svg xmlns:osb="http://www.openswatchbook.org/uri/2009/osb" xmlns="http://www.w3.org/2000/svg" xmlns:xlink="http://www.w3.org/1999/xlink" width="48" height="48" version="1.1" id="svg38"><defs id="defs22"><linearGradient id="linearGradient4488"><stop id="stop4490" offset="0" stop-color="#000" stop-opacity=".047"/><stop id="stop4492" offset="1" stop-color="#000" stop-opacity="0"/></linearGradient><style id="style4511"/><style id="style4511-26"/><style id="style4511-9"/><style id="style4552"/><style id="style4511-2"/><linearGradient xlink:href="#linearGradient4488" id="linearGradient4540" gradientUnits="userSpaceOnUse" gradientTransform="translate(-62.889 1.994) scale(.3038)" x1="288.112" y1="141.785" x2="287.575" y2="79.008"/><linearGradient osb:paint="solid" id="linearGradient5293"><stop id="stop5295" offset="0" stop-color="#9a89c0" stop-opacity="1"/></linearGradient><linearGradient gradientUnits="userSpaceOnUse" gradientTransform="matrix(2.6002 0 0 .04343 60.894 36.867)" id="linearGradient-7" y2="25.675" x2="4.536" y1="17.964" x1="4.536"><stop id="stop18-1" offset="0%" stop-color="#F7F7F7"/><stop id="stop20-2" offset="100%" stop-color="#F7F7F7"/></linearGradient></defs><style id="style4485" type="text/css"/><rect id="Mask" x="63.147" y="78.204" width="20.231" height="20.096" rx=".581" fill="#f1f1f1" fill-opacity="1" fill-rule="evenodd" stroke="none" stroke-width=".336"/><path d="M82.713 37.983a.675.675 0 0 0-.584-.335H63.246a.675.675 0 0 0-.584.335z" id="use70" fill="url(#linearGradient-7)" fill-rule="evenodd" stroke="none" stroke-width=".336"/><g id="g1228" transform="matrix(1.01931 0 0 .99995 -.153 .51)"><path d="M2.75 26.22v1.67c0 9.573 5.583 17.281 17.146 17.281h6.93c15.132 0 17.836-11.322 17.836-17.282v-1.668c0 5.96-2.704 17.282-17.836 17.282h-6.93C8.333 43.503 2.75 35.795 2.75 26.22z" id="path4516" opacity="1" fill="url(#linearGradient4540)" fill-opacity="1" stroke="none" stroke-width="1.1" stroke-linecap="square" stroke-linejoin="bevel" stroke-miterlimit="4" stroke-dasharray="none" stroke-dashoffset="0" stroke-opacity=".078"/><path d="M19.363 2.742h8.495c13.908 0 16.804 11.247 16.804 17.282v7.124c0 5.96-2.704 17.282-17.836 17.282h-6.93C8.333 44.43 2.75 36.722 2.75 27.148v-7.124c0-9.574 5.47-17.282 16.613-17.282z" id="path4518" opacity="1" fill="#73c021" fill-opacity="1" stroke="#000" stroke-width=".334" stroke-linecap="square" stroke-linejoin="bevel" stroke-miterlimit="4" stroke-dasharray="none" stroke-dashoffset="0" stroke-opacity=".078"/><path d="M19.742 4.32h7.843c12.841 0 15.516 10.438 15.516 16.04v6.61c0 5.532-2.497 16.04-16.469 16.04h-6.398c-10.676 0-15.831-7.153-15.831-16.04v-6.61c0-8.887 5.05-16.04 15.339-16.04z" id="path4518-0" opacity="1" fill="#ececec" fill-opacity="1" stroke="#000" stroke-width=".309" stroke-linecap="square" stroke-linejoin="bevel" stroke-miterlimit="4" stroke-dasharray="none" stroke-dashoffset="0" stroke-opacity=".078"/><g transform="matrix(.97072 0 0 .97766 .779 .588)" id="g1286" stroke="none" stroke-opacity="1"><path d="M9.242 13.338l-.003.463c3.893 7.181 7.525 14.259 11.417 21.437 1.863-1.05 3.873-2.183 5.728-3.235 1.112 1.047 2.527 2.364 3.623 3.427 1.101-2.063 2.577-4.799 3.662-6.907 2.301-1.177 5.018-2.463 6.82-3.34l-.002-.278c-10.793-4.03-21.803-8.055-31.244-11.57h-.001z" id="path4882" opacity=".05" fill="#000" fill-opacity="1" fill-rule="evenodd" stroke-width=".666" stroke-linecap="butt" stroke-linejoin="miter"/><path id="path4878" d="M9.242 13.003l-.003.462c3.893 7.182 7.615 14.25 11.506 21.428 1.864-1.05 3.834-2.154 5.688-3.206a358.062 358.062 0 0 1 3.512 3.37c1.062-2.093 2.429-4.611 3.513-6.72 2.318-1.183 5.189-2.525 7.031-3.423l-.002-.26c-.002 0-.002 0-.004-.007C30.366 20.877 19.37 16.77 9.243 13h-.001z" opacity=".1" fill="#000" fill-opacity="1" fill-rule="evenodd" stroke-width=".666" stroke-linecap="butt" stroke-linejoin="miter"/><path d="M9.242 12.679l-.003.463c3.893 7.181 7.665 14.21 11.556 21.39 1.863-1.05 3.853-2.108 5.708-3.16 1.112 1.048 2.275 2.254 3.371 3.316 1.063-2.093 2.25-4.446 3.335-6.555 2.308-1.184 5.037-2.423 7.271-3.502 0-.05-.002-.077.007-.012v-.289c-.002 0-.002-.003-.004-.004-10.117-3.77-21.112-7.877-31.24-11.647h-.001z" id="path4832" opacity=".15" fill="#000" fill-opacity="1" fill-rule="evenodd" stroke-width=".666" stroke-linecap="butt" stroke-linejoin="miter"/><path d="M9.237 12.672l31.255 11.656-7.462 3.587-3.224 6.349-3.277-3.189-5.616 3.142z" id="path4785" opacity="1" fill="#73c021" fill-opacity="1" fill-rule="evenodd" stroke-width=".388" stroke-linecap="butt" stroke-linejoin="miter"/><path d="M9.977 13.237l23.051 14.685-3.224 6.339-1.06-4.588z" id="path4787" fill="#4e890f" fill-opacity="1" fill-rule="evenodd" stroke-width=".388" stroke-linecap="butt" stroke-linejoin="miter"/><path d="M26.517 31.066l2.228-1.38 1.06 4.578z" id="path4789" fill="#8e9ca5" fill-opacity="1" fill-rule="evenodd" stroke-width=".388" stroke-linecap="butt" stroke-linejoin="miter"/><g id="g4804" transform="matrix(.38398 .0923 -.09606 .36894 135.264 -352.707)" fill="#fff"><path id="path4791" d="M-44.464 1044.568l19.323-5.122s-3.02-7.976-12.966-5.969c-7.478 1.51-8.37 8.816-8.37 8.816z" opacity="1" fill-rule="evenodd" stroke-width="1" stroke-linecap="butt" stroke-linejoin="miter"/><path id="path4793" d="M-43.374 1045.762l18.542-5.013 1.818 6.277-10.343 10.055z" opacity="1" fill-opacity="1" fill-rule="evenodd" stroke-width="1" stroke-linecap="butt" stroke-linejoin="miter"/><path id="path4795" d="M-21.909 1045.927l4.04-4.32s-1.03-2.744-3.602-1.475c-2.16 1.029-.438 5.795-.438 5.795z" opacity="1" fill-opacity="1" fill-rule="evenodd" stroke-width="1" stroke-linecap="butt" stroke-linejoin="miter"/><rect transform="rotate(-48.715)" ry=".412" y="647.586" x="-806.753" height="6.003" width=".823" id="rect4797" opacity="1" fill-opacity="1" stroke-width="3" stroke-linecap="round" stroke-linejoin="round"/><path id="rect4799" d="M-33.025 1032.097l-1.317 3.146a.411.411 0 1 0 .76.319l1.285-3.069z" opacity="1" fill-opacity="1" stroke-width="3" stroke-linecap="round" stroke-linejoin="round"/></g><ellipse id="path4811" cx="26.087" cy="21.182" transform="matrix(.9723 .23372 -.25197 .96774 0 0)" rx=".395" ry=".381" opacity="1" fill="#73c021" fill-opacity="1" stroke-width="1.164" stroke-linecap="round" stroke-linejoin="round"/><ellipse id="ellipse4815" cx="28.905" cy="20.783" transform="matrix(.9723 .23372 -.25197 .96774 0 0)" rx=".395" ry=".381" opacity="1" fill="#73c021" fill-opacity="1" stroke-width="1.164" stroke-linecap="round" stroke-linejoin="round"/></g></g></svg>