<svg xmlns:osb="http://www.openswatchbook.org/uri/2009/osb" xmlns="http://www.w3.org/2000/svg" xmlns:xlink="http://www.w3.org/1999/xlink" width="48" height="48" version="1.1" id="svg38"><defs id="defs22"><style id="style4511"/><style id="style4511-26"/><style id="style4511-9"/><style id="style4552"/><style id="style4511-2"/><linearGradient osb:paint="solid" id="linearGradient5293"><stop id="stop5295" offset="0" stop-color="#9a89c0" stop-opacity="1"/></linearGradient><linearGradient gradientTransform="translate(-64.678 .314)" gradientUnits="userSpaceOnUse" x1="24" y1="42.66" x2="24" y2="2" id="linearGradient-1"><stop stop-color="#5141FF" offset="0%" id="stop862"/><stop stop-color="#00C0FF" offset="100%" id="stop864"/></linearGradient><linearGradient xlink:href="#linearGradient-1" id="linearGradient1307" x1="12.703" y1="23.434" x2="40.703" y2="23.434" gradientUnits="userSpaceOnUse" gradientTransform="translate(-2.709 .152)"/></defs><style id="style4485" type="text/css"/><path id="path4518" d="M19.591 2.743h8.611c14.098 0 17.034 11.247 17.034 17.282v7.122c0 5.96-2.74 17.282-18.08 17.282h-7.025c-11.72 0-17.38-7.708-17.38-17.282v-7.122c0-9.574 5.545-17.282 16.84-17.282z" opacity="1" fill="#e6e6e6" fill-opacity="1" stroke="#000" stroke-width=".336" stroke-linecap="square" stroke-linejoin="bevel" stroke-miterlimit="4" stroke-dasharray="none" stroke-dashoffset="0" stroke-opacity=".078"/><path d="M22.194 11.195c-7 .8-12.2 7.1-12.2 14.2v3.9c0 3.7 3 6.6 6.6 6.6.8 0 1.4-.6 1.4-1.4v-7.3c0-1.3-1.1-2.4-2.4-2.4h-1.6c-1.2 0-2-1-1.8-2.2 1-5.6 5.9-9.6 11.8-9.6s10.8 4 11.8 9.8c.2 1.2-.7 2.2-1.8 2.2h-1.6c-1.3 0-2.4 1.1-2.4 2.4v7.3c0 .8.6 1.4 1.4 1.4 3.7 0 6.6-3 6.6-6.6v-4.5c0-8.2-7.3-14.9-15.8-13.8z" id="path1264" fill="url(#linearGradient1307)" fill-opacity="1"/></svg>