<svg xmlns:osb="http://www.openswatchbook.org/uri/2009/osb" xmlns="http://www.w3.org/2000/svg" xmlns:xlink="http://www.w3.org/1999/xlink" width="48" height="48" version="1.1" id="svg38"><defs id="defs22"><linearGradient id="linearGradient4488"><stop id="stop4490" offset="0" stop-color="#000" stop-opacity=".047"/><stop id="stop4492" offset="1" stop-color="#000" stop-opacity="0"/></linearGradient><style id="style4511"/><style id="style4511-26"/><style id="style4511-9"/><style id="style4552"/><style id="style4511-2"/><linearGradient xlink:href="#linearGradient4488" id="linearGradient4540" gradientUnits="userSpaceOnUse" gradientTransform="matrix(.3074 0 0 .30379 -63.667 1.994)" x1="288.112" y1="141.785" x2="287.575" y2="79.008"/><linearGradient osb:paint="solid" id="linearGradient5293"><stop id="stop5295" offset="0" stop-color="#9a89c0" stop-opacity="1"/></linearGradient><style id="style2" type="text/css"><![CDATA[.fil5{fill:none}.fil1{fill:#196FBA}.fil0{fill:#25B2EE}.fil4{fill:#793C7C}.fil3{fill:#8C508C}.fil2{fill:white}]]></style></defs><style id="style4485" type="text/css"/><path id="path4516" d="M2.751 26.22v1.669c0 9.574 5.65 17.282 17.35 17.282h7.012c15.312 0 18.048-11.323 18.048-17.282V26.22c0 5.96-2.736 17.282-18.048 17.282H20.1c-11.7 0-17.349-7.708-17.349-17.282z" opacity="1" fill="url(#linearGradient4540)" fill-opacity="1" stroke="none" stroke-width="1.106" stroke-linecap="square" stroke-linejoin="bevel" stroke-miterlimit="4" stroke-dasharray="none" stroke-dashoffset="0" stroke-opacity=".078"/><path id="path4518" d="M19.561 2.743h8.596c14.073 0 17.004 11.247 17.004 17.282v7.122c0 5.96-2.736 17.282-18.048 17.282H20.1c-11.7 0-17.35-7.708-17.35-17.282v-7.122c0-9.574 5.535-17.282 16.81-17.282z" opacity="1" fill="#ff2a2a" fill-opacity="1" stroke="#000" stroke-width=".336" stroke-linecap="square" stroke-linejoin="bevel" stroke-miterlimit="4" stroke-dasharray="none" stroke-dashoffset="0" stroke-opacity=".078"/><path id="Combined-Shape" d="M19.037 12.383h15.811s.703 5.86-4.919 15.167c2.108 1.724 1.406 1.724 7.027 5.171 0 0-1.405 1.379-1.757 3.103-.35 0-4.567-2.413-7.73-5.86 0 0-3.161 4.136-8.432 5.86-.351 0-.351-1.035-1.757-2.758 0 0 4.568-1.379 7.73-5.171-5.27-6.205-5.973-15.512-5.973-15.512zm4.216 2.757h8.082s0 5.171-3.865 9.997c-3.865-3.792-4.217-9.997-4.217-9.997zm-8.08 10.342l2.81 1.724s-1.405 4.826-4.567 8.273c-.703-.345-1.757-1.379-2.46-2.068 2.108-2.921 4.216-7.929 4.216-7.929zm-4.217-5.516l1.406-2.413s3.513 2.069 4.918 3.448l-1.405 2.413zm4.216-3.102c1.553 0 2.811-1.235 2.811-2.758s-1.258-2.758-2.81-2.758c-1.553 0-2.811 1.235-2.811 2.758s1.258 2.758 2.81 2.758z" fill="#fff" fill-rule="evenodd" stroke="none" stroke-width="1"/></svg>