<svg xmlns:osb="http://www.openswatchbook.org/uri/2009/osb" xmlns="http://www.w3.org/2000/svg" xmlns:xlink="http://www.w3.org/1999/xlink" width="48" height="48" version="1.1" id="svg38"><defs id="defs22"><linearGradient id="linearGradient4488"><stop id="stop4490" offset="0" stop-color="#000" stop-opacity=".047"/><stop id="stop4492" offset="1" stop-color="#000" stop-opacity="0"/></linearGradient><style id="style4511"/><style id="style4511-26"/><style id="style4511-9"/><style id="style4552"/><style id="style4511-2"/><linearGradient xlink:href="#linearGradient4488" id="linearGradient4540" gradientUnits="userSpaceOnUse" gradientTransform="matrix(.3074 0 0 .30379 -63.667 1.994)" x1="288.112" y1="141.785" x2="287.575" y2="79.008"/><linearGradient osb:paint="solid" id="linearGradient5293"><stop id="stop5295" offset="0" stop-color="#9a89c0" stop-opacity="1"/></linearGradient><style id="style2" type="text/css"><![CDATA[.fil5{fill:none}.fil1{fill:#196FBA}.fil0{fill:#25B2EE}.fil4{fill:#793C7C}.fil3{fill:#8C508C}.fil2{fill:white}]]></style></defs><style id="style4485" type="text/css"/><path id="path4516" d="M2.751 26.22v1.669c0 9.574 5.65 17.282 17.35 17.282h7.012c15.312 0 18.048-11.323 18.048-17.282V26.22c0 5.96-2.736 17.282-18.048 17.282H20.1c-11.7 0-17.349-7.708-17.349-17.282z" opacity="1" fill="url(#linearGradient4540)" fill-opacity="1" stroke="none" stroke-width="1.106" stroke-linecap="square" stroke-linejoin="bevel" stroke-miterlimit="4" stroke-dasharray="none" stroke-dashoffset="0" stroke-opacity=".078"/><path id="path4518" d="M19.561 2.743h8.596c14.073 0 17.004 11.247 17.004 17.282v7.122c0 5.96-2.736 17.282-18.048 17.282H20.1c-11.7 0-17.35-7.708-17.35-17.282v-7.122c0-9.574 5.535-17.282 16.81-17.282z" opacity="1" fill="#ff2a2a" fill-opacity="1" stroke="#000" stroke-width=".336" stroke-linecap="square" stroke-linejoin="bevel" stroke-miterlimit="4" stroke-dasharray="none" stroke-dashoffset="0" stroke-opacity=".078"/><path stroke-miterlimit="10" id="line36" opacity=".3" fill="none" stroke="#fff" stroke-width="1.017" d="M3.489 14.715h40.786"/><path stroke-miterlimit="10" id="rect38" fill="none" stroke="#fff" stroke-width=".984" d="M35.499 12.789h4.025v12.519h-4.025z"/><path stroke-miterlimit="10" id="line40" fill="none" stroke="#fff" stroke-width=".984" d="M37.512 24.827v3.852"/><path stroke-miterlimit="10" id="line42" fill="none" stroke="#fff" stroke-width=".984" d="M37.512 9.418v3.853"/><path stroke-miterlimit="10" id="rect44" fill="#fff" stroke="#fff" stroke-width=".984" d="M31.474 16.641h2.013v4.815h-2.013z"/><path stroke-miterlimit="10" id="rect46" fill="none" stroke="#fff" stroke-width=".984" d="M26.442 19.53h3.019v2.889h-3.019z"/><path stroke-miterlimit="10" id="rect48" fill="#fff" stroke="#fff" stroke-width=".984" d="M21.41 22.419h3.019v4.815H21.41z"/><path stroke-miterlimit="10" id="rect50" fill="none" stroke="#fff" stroke-width=".984" d="M15.372 19.53h4.025v4.815h-4.025z"/><path stroke-miterlimit="10" id="line52" fill="none" stroke="#fff" stroke-width=".984" d="M17.384 20.012v-1.926"/><path stroke-miterlimit="10" id="line54" fill="none" stroke="#fff" stroke-width=".984" d="M23.423 22.901v-1.926"/><path stroke-miterlimit="10" id="rect56" fill="#fff" stroke="#fff" stroke-width=".984" d="M7.321 24.346h3.019v4.815H7.321z"/><path stroke-miterlimit="10" id="line58" fill="none" stroke="#fff" stroke-width=".984" d="M9.333 24.827v-1.926"/><path stroke-miterlimit="10" id="rect60" fill="none" stroke="#fff" stroke-width=".984" d="M12.353 26.272h4.025v4.815h-4.025z"/><path stroke-miterlimit="10" id="line62" fill="none" stroke="#fff" stroke-width=".984" d="M14.365 30.605v1.926"/><path stroke-miterlimit="10" id="line64" opacity=".3" fill="none" stroke="#fff" stroke-width="1.012" d="M3.688 33.013h40.445"/><path stroke-miterlimit="10" id="line66" opacity=".3" fill="none" stroke="#fff" stroke-width="1.028" d="M32.422 2.645v41.128"/><path stroke-miterlimit="10" id="line68" opacity=".3" fill="none" stroke="#fff" stroke-width="1.012" d="M14.077 3.597v39.901"/></svg>