<svg xmlns="http://www.w3.org/2000/svg" xmlns:xlink="http://www.w3.org/1999/xlink" width="48" height="48" version="1.1" id="svg38"><defs id="defs22"><linearGradient id="linearGradient4488"><stop id="stop4490" offset="0" stop-color="#000" stop-opacity=".047"/><stop id="stop4492" offset="1" stop-color="#000" stop-opacity="0"/></linearGradient><style id="style4511"/><style id="style4511-26"/><style id="style4511-9"/><style id="style4552"/><style id="style4511-2"/><linearGradient gradientTransform="matrix(.3071 0 0 .30202 -63.471 2.719)" xlink:href="#linearGradient4488" id="linearGradient4160" x1="288.112" y1="141.785" x2="287.575" y2="79.008" gradientUnits="userSpaceOnUse"/></defs><style id="style4485" type="text/css"/><path d="M19.74 3.213h8.587c14.059 0 16.987 11.181 16.987 17.18v7.082c0 5.925-2.733 17.181-18.03 17.181h-7.006c-11.689 0-17.333-7.662-17.333-17.18v-7.082c0-9.518 5.53-17.181 16.794-17.181z" id="rect4144" opacity="1" fill="#256a99" fill-opacity="1" stroke="#000" stroke-width=".335" stroke-linecap="square" stroke-linejoin="bevel" stroke-miterlimit="4" stroke-dasharray="none" stroke-dashoffset="0" stroke-opacity=".078"/><path d="M19.668 3.122h8.587c14.058 0 16.986 11.267 16.986 17.313v7.135c0 5.97-2.733 17.313-18.03 17.313h-7.004c-11.688 0-17.331-7.722-17.331-17.313v-7.135c0-9.591 5.529-17.313 16.792-17.313z" id="rect4144-3" opacity="1" fill="#4e8df5" fill-opacity="1" stroke="#000" stroke-width=".336" stroke-linecap="square" stroke-linejoin="bevel" stroke-miterlimit="4" stroke-dasharray="none" stroke-dashoffset="0" stroke-opacity=".078"/><path d="M2.883 26.804v1.658c0 9.519 5.644 17.181 17.332 17.181h7.006c15.297 0 18.03-11.256 18.03-17.18v-1.66c0 5.925-2.733 17.182-18.03 17.182h-7.006c-11.688 0-17.332-7.663-17.332-17.181z" id="path4147" opacity="1" fill="url(#linearGradient4160)" fill-opacity="1" stroke="none" stroke-width="1.103" stroke-linecap="square" stroke-linejoin="bevel" stroke-miterlimit="4" stroke-dasharray="none" stroke-dashoffset="0" stroke-opacity=".078"/><g id="g1220" transform="matrix(1.30936 0 0 2.1844 -7.366 -48.083)"><g id="g1218" fill="#f1f1f1"><path id="rect1210" d="M16 28h16v1H16z"/><path id="rect1212" d="M16 31h16v1H16z"/><path id="rect1214" d="M16 34h16v1H16z"/><path id="rect1216" d="M16 37h12v1H16z"/></g></g></svg>