<svg xmlns:osb="http://www.openswatchbook.org/uri/2009/osb" xmlns="http://www.w3.org/2000/svg" xmlns:xlink="http://www.w3.org/1999/xlink" width="48" height="48" version="1.1" id="svg38"><defs id="defs22"><linearGradient id="linearGradient4488"><stop id="stop4490" offset="0" stop-color="#000" stop-opacity=".047"/><stop id="stop4492" offset="1" stop-color="#000" stop-opacity="0"/></linearGradient><style id="style4511"/><style id="style4511-26"/><style id="style4511-9"/><style id="style4552"/><style id="style4511-2"/><linearGradient xlink:href="#linearGradient4488" id="linearGradient4540" gradientUnits="userSpaceOnUse" gradientTransform="matrix(.3074 0 0 .30379 -63.667 1.994)" x1="288.112" y1="141.785" x2="287.575" y2="79.008"/><linearGradient osb:paint="solid" id="linearGradient5293"><stop id="stop5295" offset="0" stop-color="#9a89c0" stop-opacity="1"/></linearGradient><style id="style2" type="text/css"><![CDATA[.fil5{fill:none}.fil1{fill:#196FBA}.fil0{fill:#25B2EE}.fil4{fill:#793C7C}.fil3{fill:#8C508C}.fil2{fill:white}]]></style></defs><style id="style4485" type="text/css"/><path id="path4516" d="M2.751 26.22v1.669c0 9.574 5.65 17.282 17.35 17.282h7.012c15.312 0 18.048-11.323 18.048-17.282V26.22c0 5.96-2.736 17.282-18.048 17.282H20.1c-11.7 0-17.349-7.708-17.349-17.282z" opacity="1" fill="url(#linearGradient4540)" fill-opacity="1" stroke="none" stroke-width="1.106" stroke-linecap="square" stroke-linejoin="bevel" stroke-miterlimit="4" stroke-dasharray="none" stroke-dashoffset="0" stroke-opacity=".078"/><path id="path4518" d="M19.561 2.743h8.596c14.073 0 17.004 11.247 17.004 17.282v7.122c0 5.96-2.736 17.282-18.048 17.282H20.1c-11.7 0-17.35-7.708-17.35-17.282v-7.122c0-9.574 5.535-17.282 16.81-17.282z" opacity="1" fill="#089eef" fill-opacity="1" stroke="#000" stroke-width=".336" stroke-linecap="square" stroke-linejoin="bevel" stroke-miterlimit="4" stroke-dasharray="none" stroke-dashoffset="0" stroke-opacity=".078"/><path id="Combined-Shape" d="M34.31 28.289c-.779 2.306-2.924 3.963-5.448 3.963-3.182 0-5.762-2.634-5.762-5.883s2.58-5.882 5.762-5.882c2.676 0 4.925 1.861 5.574 4.384L26.37 27.96s1.09 3.18 4.671 2.226c1.627-.433 2.644-1.194 3.269-1.896zm-11.647-14.48c2.952.012 5.577 1.864 6.712 4.656l.423 1.04.936-.597a4.023 4.023 0 0 1 2.177-.64c2.317 0 4.205 1.978 4.205 4.428 0 .086-.002.17-.007.255l-.025.464.342.306c1.173 1.05 1.862 2.584 1.862 4.238 0 3.079-2.374 5.427-5.29 5.427H14.223c-3.178 0-5.762-2.562-5.762-5.904 0-2.018.95-3.865 2.506-4.985a.967.967 0 0 0 .225-1.33.922.922 0 0 0-1.302-.23c-2.05 1.475-3.298 3.902-3.298 6.545 0 4.386 3.411 7.95 7.63 7.95h19.774c3.96 0 7.16-3.351 7.16-7.473 0-2.207-.923-4.261-2.499-5.672 0 0 .327.53.327.41 0-3.494-2.714-6.336-6.074-6.336a5.864 5.864 0 0 0-3.168.93l1.358.442c-1.424-3.503-4.738-5.832-8.468-5.832-4.7 0-8.415 3.378-8.924 8.185a2.15 2.15 0 0 0 0 .538v11.739h9.15v-2.046h-5.084V19.063s0-3.595 3.876-4.867a8.924 8.924 0 0 0 1.012-.387zm3.396 12.083l6.074-2.067s-1.246-2.066-3.894-1.271c-2.647.794-2.18 3.338-2.18 3.338z" fill="#fff" fill-rule="evenodd" stroke="none" stroke-width="1.02"/></svg>