<svg xmlns="http://www.w3.org/2000/svg" xmlns:xlink="http://www.w3.org/1999/xlink" width="48" height="48" version="1.1" id="svg38"><defs id="defs22"><style id="style4511"/><style id="style4511-26"/><linearGradient id="d-06" y1="540.8" y2="531.8" gradientUnits="userSpaceOnUse" x2="0"><stop stop-color="#1e1f21" id="stop17-2"/><stop offset="1" stop-color="#242628" id="stop19-61"/></linearGradient><style id="style4511-9"/><style id="style4552"/><style id="style4511-2"/><radialGradient xlink:href="#d-06" id="radialGradient4932" cx="24.035" cy="24.099" fx="24.035" fy="24.099" r="21.484" gradientTransform="matrix(1 0 0 .99163 0 .202)" gradientUnits="userSpaceOnUse"/></defs><style id="style4485" type="text/css"/><path d="M19.618 2.965h8.64c14.146 0 17.092 11.403 17.092 17.523v7.222c0 6.043-2.75 17.524-18.142 17.524H20.16c-11.76 0-17.44-7.816-17.44-17.524v-7.222c0-9.708 5.565-17.523 16.898-17.523z" id="rect4144" opacity="1" fill="url(#radialGradient4932)" fill-opacity="1" stroke="#000" stroke-width=".339" stroke-linecap="square" stroke-linejoin="bevel" stroke-miterlimit="4" stroke-dasharray="none" stroke-dashoffset="0" stroke-opacity=".078"/><g id="g1224" transform="matrix(.95374 0 0 .92856 56.582 3.535)"><g transform="translate(-58.413 -2.064)" id="g1159"><path id="path1157" d="M34.724 20.191L29.439 7.098l-3.392 7.674s-.968-.274-1.649-.274-1.649.274-1.649.274l-3.392-7.674-5.285 13.093s-2.11 4.355 1.178 9.231l8.298 11.486a1 1 0 0 0 1.632-.015l7.965-11.471c3.29-4.876 1.579-9.231 1.579-9.231z" fill="#fff"/></g><ellipse id="ellipse1161" ry="4.917" rx="2.425" cy="-7.254" cx="-45.05" transform="rotate(-39.47)" stroke-width="1"/><ellipse id="ellipse1163" ry="4.917" rx="2.425" cy="-36.058" cx="7.518" transform="rotate(-140.53)" stroke-width="1"/><g transform="translate(-58.413 -2.064)" id="g1167"><path id="path1165" d="M26.797 36.531a.5.5 0 0 1-.432-.248l-1.999-3.429-1.973 3.406a.501.501 0 0 1-.866-.501l2.403-4.15a.502.502 0 0 1 .432-.25h.001c.178 0 .343.094.432.248l2.433 4.172a.499.499 0 0 1-.431.752z"/></g></g></svg>