<svg xmlns:osb="http://www.openswatchbook.org/uri/2009/osb" xmlns="http://www.w3.org/2000/svg" xmlns:xlink="http://www.w3.org/1999/xlink" width="48" height="48" version="1.1" id="svg38"><defs id="defs22"><linearGradient id="linearGradient4488"><stop id="stop4490" offset="0" stop-color="#000" stop-opacity=".047"/><stop id="stop4492" offset="1" stop-color="#000" stop-opacity="0"/></linearGradient><style id="style4511"/><style id="style4511-26"/><style id="style4511-9"/><style id="style4552"/><style id="style4511-2"/><linearGradient xlink:href="#linearGradient4488" id="linearGradient4540" gradientUnits="userSpaceOnUse" gradientTransform="translate(-62.889 1.994) scale(.3038)" x1="288.112" y1="141.785" x2="287.575" y2="79.008"/><linearGradient osb:paint="solid" id="linearGradient5293"><stop id="stop5295" offset="0" stop-color="#9a89c0" stop-opacity="1"/></linearGradient></defs><style id="style4485" type="text/css"/><g id="g1432" transform="matrix(1.029 0 0 .99994 -.59 .001)"><path d="M2.75 26.22v1.67c0 9.573 5.583 17.281 17.146 17.281h6.93c15.132 0 17.836-11.322 17.836-17.282v-1.668c0 5.96-2.704 17.282-17.836 17.282h-6.93C8.333 43.503 2.75 35.795 2.75 26.22z" id="path4516" opacity="1" fill="url(#linearGradient4540)" fill-opacity="1" stroke="none" stroke-width="1.1" stroke-linecap="square" stroke-linejoin="bevel" stroke-miterlimit="4" stroke-dasharray="none" stroke-dashoffset="0" stroke-opacity=".078"/><path d="M3.065 28.169v-8.577c0-14.042 11.247-16.967 17.282-16.967h7.123c5.96 0 17.282 2.73 17.282 18.009v6.997c0 11.674-7.707 17.312-17.282 17.312h-7.123c-9.574 0-17.282-5.523-17.282-16.774z" id="path4518" opacity="1" fill="#ff2a2a" fill-opacity="1" stroke="#000" stroke-width=".336" stroke-linecap="square" stroke-linejoin="bevel" stroke-miterlimit="4" stroke-dasharray="none" stroke-dashoffset="0" stroke-opacity=".078"/><path d="M37.446 7.32l.093 11.903-3.386-1.39S29.145 26.515 16.68 29.77c-7.697 2.01-11.679 1.278-13.599.424l-.075-9.693c.18-.18.372-.362.574-.546 6.346-5.806 13.396-4.02 13.396-4.02s5.345 1.299-.995 5.811c-6.34 4.513-10.706 2.58-10.706 2.58s6.51.23 8.245-3.696c-.013-1.606-2.333-1.41-2.333-1.41s-5.758.45-7.52 4.72c-1.761 4.27 6.446 2.984 6.446 2.984s11.907-2.181 17.598-11.692l-3.633-1.76z" id="Combined-Shape" fill="#fff" fill-rule="evenodd" stroke="none" stroke-width=".834"/></g></svg>