<svg xmlns:osb="http://www.openswatchbook.org/uri/2009/osb" xmlns="http://www.w3.org/2000/svg" xmlns:xlink="http://www.w3.org/1999/xlink" width="48" height="48" version="1.1" id="svg38"><defs id="defs22"><linearGradient id="linearGradient3764-367535629" x1="1" x2="47" gradientUnits="userSpaceOnUse" gradientTransform="rotate(-90 -2.813 50.063)"><stop stop-color="#004ba0" stop-opacity="1" id="stop1383"/><stop offset="1" stop-color="#0055b5" stop-opacity="1" id="stop1385"/></linearGradient><linearGradient id="linearGradient4488"><stop id="stop4490" offset="0" stop-color="#000" stop-opacity=".047"/><stop id="stop4492" offset="1" stop-color="#000" stop-opacity="0"/></linearGradient><style id="style4511"/><style id="style4511-26"/><style id="style4511-9"/><style id="style4552"/><style id="style4511-2"/><linearGradient xlink:href="#linearGradient4488" id="linearGradient4540" gradientUnits="userSpaceOnUse" gradientTransform="matrix(.3074 0 0 .30379 -63.667 1.994)" x1="288.112" y1="141.785" x2="287.575" y2="79.008"/><linearGradient osb:paint="solid" id="linearGradient5293"><stop id="stop5295" offset="0" stop-color="#9a89c0" stop-opacity="1"/></linearGradient><style id="style2" type="text/css"><![CDATA[.fil5{fill:none}.fil1{fill:#196FBA}.fil0{fill:#25B2EE}.fil4{fill:#793C7C}.fil3{fill:#8C508C}.fil2{fill:white}]]></style><linearGradient xlink:href="#linearGradient3764-367535629" id="linearGradient1394" x1="2.583" y1="23.586" x2="45.329" y2="23.586" gradientUnits="userSpaceOnUse"/></defs><style id="style4485" type="text/css"/><path id="path4516" d="M2.751 26.22v1.669c0 9.574 5.65 17.282 17.35 17.282h7.012c15.312 0 18.048-11.323 18.048-17.282V26.22c0 5.96-2.736 17.282-18.048 17.282H20.1c-11.7 0-17.349-7.708-17.349-17.282z" opacity="1" fill="url(#linearGradient4540)" fill-opacity="1" stroke="none" stroke-width="1.106" stroke-linecap="square" stroke-linejoin="bevel" stroke-miterlimit="4" stroke-dasharray="none" stroke-dashoffset="0" stroke-opacity=".078"/><path id="path4518" d="M19.561 2.743h8.596c14.073 0 17.004 11.247 17.004 17.282v7.122c0 5.96-2.736 17.282-18.048 17.282H20.1c-11.7 0-17.35-7.708-17.35-17.282v-7.122c0-9.574 5.535-17.282 16.81-17.282z" opacity="1" fill="url(#linearGradient1394)" fill-opacity="1" stroke="#000" stroke-width=".336" stroke-linecap="square" stroke-linejoin="bevel" stroke-miterlimit="4" stroke-dasharray="none" stroke-dashoffset="0" stroke-opacity=".078"/><g id="g1380" transform="translate(.614 -.61)" fill="#fff"><path id="polygon880" opacity=".3" d="M35.886 24.045L23.333 35.16 10.781 24.045l12.811-7.086z"/><g id="g888"><path id="path882" d="M23.148 15.851L9.496 23.402a1 1 0 0 0-.223 1.582l13.354 13.354a.999.999 0 0 0 1.414 0l13.371-13.371a1 1 0 0 0-.208-1.573l-13.072-7.535a1 1 0 0 0-.984-.008zm-12.367 8.194l12.811-7.086 12.293 7.086L23.333 35.16z"/><path id="path884" d="M28.971 16.408l2.915 1.452-2.088-8.1-8.675 2.736 2.796 1.393c-2.65 2.608-5.761 8.472-3.258 21.146l2.807 2.886c0 .002-1.687-14.124 5.503-21.513z"/><path id="path886" d="M29 24.946l2.424 1.232-1.625-4.942-7.328.391 2.326 1.182c-2.267 1.139-4.971 4.087-3.07 11.717l1.633 2.042c-.001.001-.515-8.352 5.64-11.622z" opacity=".3"/></g></g></svg>