<svg xmlns:osb="http://www.openswatchbook.org/uri/2009/osb" xmlns="http://www.w3.org/2000/svg" xmlns:xlink="http://www.w3.org/1999/xlink" width="48" height="48" version="1.1" id="svg38"><defs id="defs22"><linearGradient id="linearGradient4488"><stop id="stop4490" offset="0" stop-color="#000" stop-opacity=".047"/><stop id="stop4492" offset="1" stop-color="#000" stop-opacity="0"/></linearGradient><style id="style4511"/><style id="style4511-26"/><style id="style4511-9"/><style id="style4552"/><style id="style4511-2"/><linearGradient xlink:href="#linearGradient4488" id="linearGradient4540" gradientUnits="userSpaceOnUse" gradientTransform="translate(-62.889 1.994) scale(.3038)" x1="288.112" y1="141.785" x2="287.575" y2="79.008"/><linearGradient osb:paint="solid" id="linearGradient5293"><stop id="stop5295" offset="0" stop-color="#9a89c0" stop-opacity="1"/></linearGradient></defs><style id="style4485" type="text/css"/><path id="path4516" d="M2.75 26.22v1.67c0 9.573 5.583 17.281 17.146 17.281h6.93c15.132 0 17.836-11.322 17.836-17.282v-1.668c0 5.96-2.704 17.282-17.836 17.282h-6.93C8.333 43.503 2.75 35.795 2.75 26.22z" opacity="1" fill="url(#linearGradient4540)" fill-opacity="1" stroke="none" stroke-width="1.1" stroke-linecap="square" stroke-linejoin="bevel" stroke-miterlimit="4" stroke-dasharray="none" stroke-dashoffset="0" stroke-opacity=".078"/><path id="path4518" d="M3.065 28.169v-8.577c0-14.042 11.247-16.967 17.282-16.967h7.123c5.96 0 17.282 2.73 17.282 18.009v6.997c0 11.674-7.707 17.312-17.282 17.312h-7.123c-9.574 0-17.282-5.523-17.282-16.774z" opacity="1" fill="#2d31c4" fill-opacity="1" stroke="#000" stroke-width=".336" stroke-linecap="square" stroke-linejoin="bevel" stroke-miterlimit="4" stroke-dasharray="none" stroke-dashoffset="0" stroke-opacity=".078"/><path id="华" d="M16.362 17.567v.979h6.931v3.521h1.302v-3.521h7v-.979h-7v-1.37h-1.302v1.37zm12.912-1.579c.739 0 1.302-.111 1.653-.335.387-.252.669-.978.81-2.152l-1.197-.308c-.088.909-.264 1.468-.51 1.663-.193.14-.528.21-.985.21h-2.638c-.493 0-.74-.168-.74-.49V13.25c2.024-.768 3.783-1.663 5.295-2.683l-.861-.699c-1.161.839-2.639 1.622-4.433 2.32V9.434h-1.214v3.2c-1.003.35-2.093.685-3.29.993l.704.838c.88-.251 1.742-.503 2.586-.782v1.09c0 .81.528 1.215 1.583 1.215zM18.79 12.802v3.675h1.231v-4.625a10.94 10.94 0 0 0 1.988-2.25l-1.073-.391c-1.02 1.481-2.621 2.78-4.82 3.927l.405 1.034a21.564 21.564 0 0 0 2.269-1.37zm-2.48 13.635v.88h4.098v.964h1.302v-.964h4.52v.978h1.091v.573h-7.933v1.873h-1.6v-2.348h-1.091v3.186h2.691v1.412h-3.413v.838h1.003c-.07 1.635-.457 2.753-1.16 3.368l.879.545c.774-.74 1.213-2.04 1.284-3.913h1.407v.154c-.035 1.593-.352 2.823-.985 3.717l.915.657c.774-1.104 1.178-2.558 1.213-4.374V29.72h6.808c.07 1.816.246 3.298.528 4.443.105.476.246.909.404 1.314a7.07 7.07 0 0 1-1.741 1.65v-.574h-1.548v-1.327h1.53V32.57h-1.53v-1.215h1.548v-.81h-5.014v6.819h4.61l-.3.153.598.755a7.534 7.534 0 0 0 2.322-1.719c.14.28.282.517.457.74.528.672 1.038 1.02 1.496 1.02.563 0 1.002-.866 1.301-2.598l-.914-.406c-.176 1.258-.387 1.887-.598 1.9-.176 0-.44-.279-.757-.81a4.002 4.002 0 0 1-.334-.712c.827-1.258 1.372-2.865 1.653-4.85l-1.073-.181c-.175 1.383-.51 2.585-1.002 3.62a14.14 14.14 0 0 1-.106-.462c-.21-.95-.352-2.32-.422-4.094h3.307v-.853h-.88a13.743 13.743 0 0 0-.545-1.188l-1.073.14a8.1 8.1 0 0 1 .58 1.048H28.43v-.782h-.897v-.769h4.099v-.88h-4.099v-.88h-1.301v.88H21.71v-.895h-1.302v.895zm7.67 4.919v1.215h-1.426v-1.215zm-1.426 1.956h2.973v1.16h-2.973zm0 1.915h1.425v1.327h-1.425z" fill="#fff" fill-rule="evenodd" stroke="none" stroke-width="1.038"/></svg>