<svg xmlns="http://www.w3.org/2000/svg" width="48" height="48" version="1.1" id="svg38"><defs id="defs22"><style id="style4511"/><style id="style4511-26"/><style id="style4511-9"/><style id="style4552"/><style id="style4511-2"/><style id="style4511-8"/><style id="style4511-26-4"/><style id="style4511-9-7"/><style id="style4552-5"/><style id="style4511-2-8"/><style id="style4552-7"/><style id="style4552-6"/><style type="text/css" id="current-color-scheme"/><style id="style4552-9"/></defs><style id="style4485" type="text/css"/><style type="text/css" id="style4485-0"/><style id="style4485-4" type="text/css"/><style id="style4485-5" type="text/css"/><style type="text/css" id="style4485-8"/><g id="g1761" fill-opacity="1"><path id="path5149" d="M19.534 3.325h8.73c14.29 0 17.267 11.347 17.267 17.436v7.186c0 6.012-2.779 17.435-18.328 17.435h-7.121c-11.881 0-17.618-7.776-17.618-17.435V20.76c0-9.66 5.62-17.436 17.07-17.436z" opacity="1" fill="#009200" stroke="#000" stroke-width=".34" stroke-linecap="square" stroke-linejoin="bevel" stroke-miterlimit="4" stroke-dasharray="none" stroke-dashoffset="0" stroke-opacity=".078"/><path id="rect4165" d="M24.005 11.271c-5.983 0-10.01.635-10.01.635-2.98.405-4.998 2.23-4.998 4.998v.055h2.496c.503-1.6 1.993-2.648 4.033-2.92 0 0 3.41-.527 8.477-.527s8.467.527 8.467.527c2.026.301 3.522 1.33 4.03 2.92h2.497v-.055c0-2.768-2.033-4.548-4.996-4.998 0 0-4.013-.634-9.996-.635zm-1.008 6.602v13.031h2.063V17.873zm4 .031l3 7.97v.01l-.008.023h.008v5h2v-4.998h.012l-.01-.027 2.998-7.975h-2l-2 5.316-2-5.316h-2zm-10.67.01a2.31 2.31 0 0 0-2.316 2.314v8.354a2.31 2.31 0 0 0 2.316 2.314h2.453c.077 0 .15-.016.225-.024l.006 1.069s.005.912.982.957v.01h2.004v-.996h-1.482s-.52.033-.52-.508c0-.462.005-.536.01-.86a2.301 2.301 0 0 0 1.092-1.958v-8.354a2.31 2.31 0 0 0-2.317-2.314h-2.453zm-7.33.035v2.969h2.297V18.18c0-.08.017-.152.022-.23H8.997zm27.684 0c.004.078.021.15.021.23v12.436c0 .125-.023.238-.033.358h2.328V17.949h-2.316zm-20.047 1.94h1.76c.335 0 .605.268.605.603v7.797c0 .335-.27.605-.605.605h-1.76a.603.603 0 0 1-.604-.605v-7.797c0-.335.269-.603.604-.603zm-7.637 2.02v9.064h2.33c-.01-.12-.033-.233-.033-.358v-8.707H8.997zm.004 10.052c.026 2.737 2.024 4.43 4.994 4.945 0 0 4.012.449 9.992.524 5.981.075 10.014-.524 10.014-.524 2.95-.495 4.966-2.208 4.992-4.945H36.46c-.545 1.508-2.015 2.472-3.99 2.797 0 0-3.415.495-8.48.433-5.066-.062-8.464-.433-8.464-.433-1.988-.338-3.45-1.294-3.992-2.797z" opacity="1" fill="#fff" stroke="none" stroke-width=".5" stroke-linecap="round" stroke-linejoin="round" stroke-opacity="1"/></g></svg>