<svg xmlns:osb="http://www.openswatchbook.org/uri/2009/osb" xmlns="http://www.w3.org/2000/svg" xmlns:xlink="http://www.w3.org/1999/xlink" width="48" height="48" version="1.1" id="svg38"><defs id="defs22"><linearGradient id="linearGradient4488"><stop id="stop4490" offset="0" stop-color="#000" stop-opacity=".047"/><stop id="stop4492" offset="1" stop-color="#000" stop-opacity="0"/></linearGradient><style id="style4511"/><style id="style4511-26"/><style id="style4511-9"/><style id="style4552"/><style id="style4511-2"/><linearGradient xlink:href="#linearGradient4488" id="linearGradient4540" gradientUnits="userSpaceOnUse" gradientTransform="matrix(.30902 0 0 .3038 -64.017 1.994)" x1="288.112" y1="141.785" x2="287.575" y2="79.008"/><linearGradient osb:paint="solid" id="linearGradient5293"><stop id="stop5295" offset="0" stop-color="#9a89c0" stop-opacity="1"/></linearGradient><filter height="1.12" y="-.06" width="1.08" x="-.04" id="filter975" color-interpolation-filters="sRGB"><feGaussianBlur id="feGaussianBlur977" stdDeviation="5.438"/></filter></defs><style id="style4485" type="text/css"/><path id="path4516" d="M2.75 26.22v1.67c0 9.573 5.68 17.281 17.44 17.281h7.05c15.392 0 18.143-11.322 18.143-17.282v-1.668c0 5.96-2.75 17.282-18.143 17.282h-7.05c-11.76 0-17.44-7.708-17.44-17.282z" opacity="1" fill="url(#linearGradient4540)" fill-opacity="1" stroke="none" stroke-width="1.109" stroke-linecap="square" stroke-linejoin="bevel" stroke-miterlimit="4" stroke-dasharray="none" stroke-dashoffset="0" stroke-opacity=".078"/><path id="path4518" d="M19.649 2.742h8.64c14.148 0 17.094 11.247 17.094 17.282v7.124c0 5.96-2.75 17.282-18.143 17.282h-7.05c-11.76 0-17.44-7.708-17.44-17.282v-7.124c0-9.574 5.564-17.282 16.899-17.282z" opacity="1" fill="#1aa15f" fill-opacity="1" stroke="#000" stroke-width=".337" stroke-linecap="square" stroke-linejoin="bevel" stroke-miterlimit="4" stroke-dasharray="none" stroke-dashoffset="0" stroke-opacity=".078"/><g id="layer4" transform="matrix(.0831 0 0 .08774 4.746 -.03)" stroke-width="10.877"><path id="path957" d="M184.594 159.316c-33.981.043-67.94.022-101.896.043-2.582 0-5.023.544-7.266 1.915-5.776 3.502-7.645 8.658-6.968 14.945.021.327.043.653.043.98-.027 33.676-.074 52.907-.085 86.562 0 8.55 6.015 25.867 14.787 25.997 2.338.043 4.675.043 7.011.043l65.137.13c-1.72 9.442-6.157 20.755-13.597 27.455-6.2 5.57-10.53 8.05-18.492 9.812-6.287 1.392-11.16 3.48-11.182 8.375 0 1.393.065 2.785.087 4.199l-.174 19.123c.043 3.546.043 7.113.087 10.66.065 5.068 1.632 7.918 6.853 7.179 6.83-.958 15.642-2.48 22.277-4.286.24-.13.522-.24.761-.392.435-.108.849-.217 1.262-.326.783-.392 1.545-.827 2.35-1.153 31.675-12.77 53.169-43.88 53.19-77.121.043-37.201 0-74.38 0-111.581l.048-9.893c-.546-6.84-6.871-12.676-14.234-12.667zm195.794 0c-33.981.043-67.94.022-101.9.043-2.567 0-5.025.544-7.266 1.915-5.765 3.502-7.636 8.658-6.962 14.945.022.327.043.653.043.98-.021 33.676-.087 52.907-.087 86.562 0 8.55 6.004 25.867 14.793 25.997 2.328.043 4.656.043 7.006.043l65.134.13c-1.719 9.442-6.157 20.755-13.597 27.455-6.2 5.57-10.53 8.05-18.492 9.812-6.287 1.392-11.16 3.48-11.182 8.375 0 1.393.065 2.785.087 4.199l-.174 19.123c.043 3.546.043 7.113.087 10.66.065 5.068 1.632 7.918 6.853 7.179 6.831-.958 15.642-2.48 22.277-4.286.24-.13.522-.24.762-.392.435-.108.848-.217 1.261-.326.783-.392 1.545-.827 2.35-1.153 31.675-12.77 53.169-43.88 53.19-77.121.043-37.201 0-74.38 0-111.581.11-.805.006-10.322.006-10.322-.77-6.652-6.984-12.247-14.192-12.238z" opacity=".3" fill="#000" fill-opacity="1" filter="url(#filter975)"/><path d="M184.594 159.316c-33.981.043-67.94.022-101.896.043-2.582 0-5.023.544-7.266 1.915-5.776 3.502-7.645 8.658-6.968 14.945.021.327.043.653.043.98-.027 33.676-.074 52.907-.085 86.562 0 8.55 6.015 25.867 14.787 25.997 2.338.043 4.675.043 7.011.043l65.137.13c-1.72 9.442-6.157 20.755-13.597 27.455-6.2 5.57-10.53 8.05-18.492 9.812-6.287 1.392-11.16 3.48-11.182 8.375 0 1.393.065 2.785.087 4.199l-.174 19.123c.043 3.546.043 7.113.087 10.66.065 5.068 1.632 7.918 6.853 7.179 6.83-.958 15.642-2.48 22.277-4.286.24-.13.522-.24.761-.392.435-.108.849-.217 1.262-.326.783-.392 1.545-.827 2.35-1.153 31.675-12.77 53.169-43.88 53.19-77.121.043-37.201 0-74.38 0-111.581l.048-9.893c-.546-6.84-6.871-12.676-14.234-12.667zm195.794 0c-33.981.043-67.94.022-101.9.043-2.567 0-5.025.544-7.266 1.915-5.765 3.502-7.636 8.658-6.962 14.945.022.327.043.653.043.98-.021 33.676-.087 52.907-.087 86.562 0 8.55 6.004 25.867 14.793 25.997 2.328.043 4.656.043 7.006.043l65.134.13c-1.719 9.442-6.157 20.755-13.597 27.455-6.2 5.57-10.53 8.05-18.492 9.812-6.287 1.392-11.16 3.48-11.182 8.375 0 1.393.065 2.785.087 4.199l-.174 19.123c.043 3.546.043 7.113.087 10.66.065 5.068 1.632 7.918 6.853 7.179 6.831-.958 15.642-2.48 22.277-4.286.24-.13.522-.24.762-.392.435-.108.848-.217 1.261-.326.783-.392 1.545-.827 2.35-1.153 31.675-12.77 53.169-43.88 53.19-77.121.043-37.201 0-74.38 0-111.581.11-.805.006-10.322.006-10.322-.77-6.652-6.984-12.247-14.192-12.238z" id="path8" fill="#fff"/></g></svg>