<svg xmlns="http://www.w3.org/2000/svg" xmlns:xlink="http://www.w3.org/1999/xlink" width="48" height="48" version="1.1" id="svg38"><defs id="defs22"><linearGradient id="linearGradient4488"><stop id="stop4490" offset="0" stop-color="#000" stop-opacity=".047"/><stop id="stop4492" offset="1" stop-color="#000" stop-opacity="0"/></linearGradient><style id="style4511"/><style id="style4511-26"/><style id="style4511-9"/><style id="style4552"/><style id="style4511-2"/><linearGradient xlink:href="#linearGradient4488" id="linearGradient4546" gradientUnits="userSpaceOnUse" gradientTransform="translate(-62.497 1.994) scale(.3038)" x1="288.112" y1="141.785" x2="287.575" y2="79.008"/><linearGradient gradientTransform="rotate(-90 -1.668 49.438)" gradientUnits="userSpaceOnUse" x2="47" x1="1" id="linearGradient3764-3"><stop id="stop336" stop-opacity="1" stop-color="#63c632"/><stop id="stop338" stop-opacity="1" stop-color="#6cce3d" offset="1"/></linearGradient><clipPath id="clipPath-501592574"/><linearGradient xlink:href="#linearGradient3764-3" id="linearGradient1263" x1="2.974" y1="23.586" x2="45.221" y2="23.586" gradientUnits="userSpaceOnUse"/></defs><style id="style4485" type="text/css"/><path d="M3.141 26.22v1.67c0 9.573 5.583 17.281 17.146 17.281h6.93c15.133 0 17.837-11.322 17.837-17.282v-1.668c0 5.96-2.704 17.282-17.837 17.282h-6.93c-11.563 0-17.146-7.708-17.146-17.282z" id="path4528" opacity="1" fill="url(#linearGradient4546)" fill-opacity="1" stroke="none" stroke-width="1.1" stroke-linecap="square" stroke-linejoin="bevel" stroke-miterlimit="4" stroke-dasharray="none" stroke-dashoffset="0" stroke-opacity=".078"/><path d="M19.754 2.742h8.495c13.908 0 16.805 11.247 16.805 17.282v7.124c0 5.96-2.704 17.282-17.837 17.282h-6.93c-11.562 0-17.146-7.708-17.146-17.282v-7.124c0-9.574 5.47-17.282 16.613-17.282z" id="path4530" opacity="1" fill="url(#linearGradient1263)" fill-opacity="1" stroke="#000" stroke-width=".334" stroke-linecap="square" stroke-linejoin="bevel" stroke-miterlimit="4" stroke-dasharray="none" stroke-dashoffset="0" stroke-opacity=".078"/><path id="path379" d="M15.152 16.48h2.469a.253.253 0 0 0 .254-.254s-.031-2.09-.031-2.672v-.008c0-.477.102-.895.281-1.242l.082-.156a.032.032 0 0 0-.027.016l-4.797 4.699c-.008.008-.012.02-.016.031.098-.051.234-.117.254-.125.418-.188.922-.289 1.531-.289m19.2-.512c-.195-1.039-.816-1.547-1.383-1.75-.609-.219-1.844-.441-3.391-.621-1.25-.148-2.715-.137-3.602-.109-.105-.719-.617-1.375-1.188-1.605-1.523-.602-3.875-.457-4.48-.289-.477.129-1.012.402-1.305.82-.199.281-.328.641-.328 1.141 0 .281.008.949.016 1.543l.016 1.129a.984.984 0 0 1-.973.973h-2.469c-.527 0-.93.086-1.234.223a1.702 1.702 0 0 0-.691.547c-.332.438-.387.977-.387 1.527 0 0 .004.441.113 1.316.094.68.832 5.391 1.535 6.816.273.559.453.789.988 1.035 1.191.504 3.918 1.066 5.191 1.227 1.277.16 2.074.5 2.551-.48.004 0 .098-.246.227-.605.414-1.238.469-2.34.469-3.137 0-.078.121-.082.121 0 0 .563-.109 2.551 1.41 3.086.602.211 1.844.398 3.109.543 1.145.129 1.973.574 1.973 3.477 0 1.766-.375 2-2.332 2-1.59 0-2.195.043-2.195-1.207 0-1.012 1.012-.898 1.758-.898.332 0 .09-.246.09-.867 0-.617.391-.977.02-.984-2.582-.07-4.105-.004-4.105 3.191 0 2.902 1.125 3.441 4.793 3.441 2.875 0 3.891-.098 5.078-3.738.234-.719.805-2.914 1.148-6.602.215-2.328-.207-9.359-.543-11.141m-5.01 7.773a5.102 5.102 0 0 0-1.023.063c.098-.719.395-1.598 1.445-1.559 1.176.039 1.34 1.137 1.344 1.879a4.846 4.846 0 0 0-1.77-.383m0 0" fill="#2d2d2d" fill-opacity="1" fill-rule="nonzero" stroke="none"/></svg>