<svg xmlns="http://www.w3.org/2000/svg" xmlns:xlink="http://www.w3.org/1999/xlink" width="48" height="48" version="1.1" id="svg38"><defs id="defs22"><style id="style4511"/><style id="style4511-26"/><linearGradient id="linearGradient2188"><stop offset="0" id="stop2190" stop-color="#c4a000" stop-opacity="1"/><stop id="stop3626" offset=".206" stop-color="#edd400" stop-opacity="1"/><stop id="stop2848" offset=".5" stop-color="#fce94f" stop-opacity="1"/><stop offset=".75" id="stop2850" stop-color="#edd400" stop-opacity="1"/><stop offset="1" id="stop2192" stop-color="#c4a000" stop-opacity="1"/></linearGradient><style id="style4511-9"/><linearGradient id="linearGradient4303"><stop offset="0" id="stop8-3" stop-color="#197cf1" stop-opacity="1"/><stop offset="1" id="stop10-6" stop-color="#21c9fb" stop-opacity="1"/></linearGradient><style id="style4552"/><style id="style4511-2"/><radialGradient xlink:href="#linearGradient4303" id="radialGradient1275" cx="23.795" cy="23.808" fx="23.795" fy="23.808" r="13.472" gradientTransform="matrix(1 0 0 .98122 0 .447)" gradientUnits="userSpaceOnUse"/><radialGradient xlink:href="#linearGradient2188" id="radialGradient1277" cx="23.795" cy="23.808" fx="23.795" fy="23.808" r="21.428" gradientTransform="matrix(1 0 0 .98056 0 .463)" gradientUnits="userSpaceOnUse"/></defs><style id="style4485" type="text/css"/><path d="M19.389 2.965h8.618c14.11 0 17.048 11.246 17.048 17.282v7.123c0 5.96-2.743 17.282-18.095 17.282h-7.03c-11.73 0-17.395-7.708-17.395-17.282v-7.123c0-9.575 5.55-17.282 16.854-17.282z" id="rect4144" opacity="1" fill="url(#radialGradient1277)" fill-opacity="1" stroke="#000" stroke-width=".337" stroke-linecap="square" stroke-linejoin="bevel" stroke-miterlimit="4" stroke-dasharray="none" stroke-dashoffset="0" stroke-opacity=".078"/><path d="M31.514 37.027h4.677c.757 0 1.276-.748 1.002-1.441l-9.639-24.323a1.073 1.073 0 0 0-1-.674h-5.516c-.443 0-.84.268-1.002.674l-9.638 24.323c-.275.693.245 1.441 1 1.441h4.678c.442 0 .84-.267 1.001-.673l1.41-3.557h10.617l1.41 3.557c.16.406.557.673 1 .673zm-7.719-17.626l2.375 5.993h-4.75z" id="path1223" fill="url(#radialGradient1275)" stroke-width="1.066" fill-opacity="1"/><path d="M28.458 31.74h3.14a.53.53 0 0 0 .5-.726L26.08 16.21a.537.537 0 0 0-.5-.332h-3.57a.537.537 0 0 0-.5.332l-6.017 14.805a.53.53 0 0 0 .5.726h3.14c.22 0 .418-.131.5-.332l1.154-2.84h6.017l1.154 2.84c.082.2.28.332.5.332zm-5.952-7.403l1.29-3.173 1.289 3.173z" id="path1225" fill="#e7f1fa" stroke-width="1.066"/></svg>