<svg xmlns:osb="http://www.openswatchbook.org/uri/2009/osb" xmlns="http://www.w3.org/2000/svg" xmlns:xlink="http://www.w3.org/1999/xlink" width="48" height="48" version="1.1" id="svg38"><defs id="defs22"><linearGradient id="linearGradient4488"><stop id="stop4490" offset="0" stop-color="#000" stop-opacity=".047"/><stop id="stop4492" offset="1" stop-color="#000" stop-opacity="0"/></linearGradient><style id="style4511"/><style id="style4511-26"/><style id="style4511-9"/><style id="style4552"/><style id="style4511-2"/><linearGradient osb:paint="solid" id="linearGradient5293"><stop id="stop5295" offset="0" stop-color="#9a89c0" stop-opacity="1"/></linearGradient><linearGradient osb:paint="solid" id="linearGradient5251"><stop id="stop5253" offset="0" stop-color="#2f343f" stop-opacity="1"/></linearGradient><style id="style4511-8"/><style id="style4511-26-4"/><style id="style4511-9-8"/><style id="style4552-5"/><style id="style4511-2-5"/><style id="style4511-879"/><style id="style4511-26-76"/><style id="style4511-9-2"/><style id="style4552-8"/><style id="style4511-2-2"/><linearGradient y2="79.008" x2="287.575" y1="141.785" x1="288.112" gradientTransform="matrix(.3075 .00112 -.00116 .29812 -63.261 2.077)" gradientUnits="userSpaceOnUse" id="linearGradient4540" xlink:href="#linearGradient4488"/><style id="style4511-87"/><style id="style4511-26-7"/><style id="style4511-9-1"/><style id="style4552-53"/><style id="style4511-2-9"/><style id="style4511-8-6"/><style id="style4511-26-4-2"/><style id="style4511-9-8-8"/><style id="style4552-5-6"/><style id="style4511-2-5-4"/></defs><style id="style4485" type="text/css"/><style type="text/css" id="style4485-4"/><style type="text/css" id="style4485-0"/><style id="style4485-7" type="text/css"/><style type="text/css" id="style4485-6"/><path stroke-miterlimit="4" id="path4516" d="M3.083 26.094l-.006 1.637c-.037 9.395 5.585 16.98 17.288 17.022l7.015.026c15.316.056 18.096-11.045 18.119-16.893l.006-1.638c-.023 5.848-2.803 16.95-18.12 16.894l-7.014-.026C8.668 43.073 3.046 35.49 3.083 26.094z" opacity="1" fill="url(#linearGradient4540)" fill-opacity="1" stroke="none" stroke-width="1.096" stroke-linecap="square" stroke-linejoin="bevel" stroke-dasharray="none" stroke-dashoffset="0" stroke-opacity=".078"/><path stroke-miterlimit="4" d="M19.988 3.115C8.709 3.074 3.143 10.617 3.107 20.012l-.017 4.213 42.422.155.016-4.213c.023-5.923-2.866-16.97-16.943-17.02z" id="path4518-5" opacity="1" fill="#e6e6e6" fill-opacity="1" stroke="#000" stroke-width=".333" stroke-linecap="square" stroke-linejoin="bevel" stroke-dasharray="none" stroke-dashoffset="0" stroke-opacity=".078"/><path stroke-miterlimit="4" d="M28.644 45.456c11.278.027 16.834-7.523 16.858-16.919l.01-4.212-42.422-.1-.01 4.213c-.015 5.922 2.89 16.965 16.966 16.998z" id="path4518-7" opacity="1" fill="#666" fill-opacity="1" stroke="#000" stroke-width=".333" stroke-linecap="square" stroke-linejoin="bevel" stroke-dasharray="none" stroke-dashoffset="0" stroke-opacity=".078"/><path stroke-miterlimit="4" d="M3.08 28.438c-.014 5.922 2.89 16.965 16.966 16.998l5.08.012V24.277L3.09 24.225z" id="path4518-7-6" opacity="1" fill="#666" fill-opacity="1" stroke="#000" stroke-width=".333" stroke-linecap="square" stroke-linejoin="bevel" stroke-dasharray="none" stroke-dashoffset="0" stroke-opacity=".078"/><path d="M25.527 45.445V24.266" id="path701" fill="#666" fill-opacity="1" stroke="#666" stroke-width="1.8" stroke-linecap="butt" stroke-linejoin="miter" stroke-opacity="1"/></svg>