<svg xmlns:osb="http://www.openswatchbook.org/uri/2009/osb" xmlns="http://www.w3.org/2000/svg" xmlns:xlink="http://www.w3.org/1999/xlink" width="48" height="48" version="1.1" id="svg38"><defs id="defs22"><linearGradient id="linearGradient4488"><stop id="stop4490" offset="0" stop-color="#000" stop-opacity=".047"/><stop id="stop4492" offset="1" stop-color="#000" stop-opacity="0"/></linearGradient><style id="style4511"/><style id="style4511-26"/><style id="style4511-9"/><style id="style4552"/><style id="style4511-2"/><linearGradient xlink:href="#linearGradient4488" id="linearGradient4540" gradientUnits="userSpaceOnUse" gradientTransform="matrix(.3074 0 0 .30379 -63.667 1.994)" x1="288.112" y1="141.785" x2="287.575" y2="79.008"/><linearGradient osb:paint="solid" id="linearGradient5293"><stop id="stop5295" offset="0" stop-color="#9a89c0" stop-opacity="1"/></linearGradient><style id="style2" type="text/css"><![CDATA[.fil5{fill:none}.fil1{fill:#196FBA}.fil0{fill:#25B2EE}.fil4{fill:#793C7C}.fil3{fill:#8C508C}.fil2{fill:white}]]></style></defs><style id="style4485" type="text/css"/><path id="path4516" d="M2.751 26.22v1.669c0 9.574 5.65 17.282 17.35 17.282h7.012c15.312 0 18.048-11.323 18.048-17.282V26.22c0 5.96-2.736 17.282-18.048 17.282H20.1c-11.7 0-17.349-7.708-17.349-17.282z" opacity="1" fill="url(#linearGradient4540)" fill-opacity="1" stroke="none" stroke-width="1.106" stroke-linecap="square" stroke-linejoin="bevel" stroke-miterlimit="4" stroke-dasharray="none" stroke-dashoffset="0" stroke-opacity=".078"/><path id="path4518" d="M19.561 2.743h8.596c14.073 0 17.004 11.247 17.004 17.282v7.122c0 5.96-2.736 17.282-18.048 17.282H20.1c-11.7 0-17.35-7.708-17.35-17.282v-7.122c0-9.574 5.535-17.282 16.81-17.282z" opacity="1" fill="#1285b4" fill-opacity="1" stroke="#000" stroke-width=".336" stroke-linecap="square" stroke-linejoin="bevel" stroke-miterlimit="4" stroke-dasharray="none" stroke-dashoffset="0" stroke-opacity=".078"/><path d="M34.915 23.993c-.311 0-.623 0-.935.101v-.303c0-5.456-4.363-9.8-9.661-9.8-.104 0-2.182 0-3.948.909-2.078 1.212-3.636 3.334-4.051 5.759-.728-.303-1.455-.404-2.286-.404-3.636 0-6.545 3.03-6.545 6.77 0 3.738 2.909 6.769 6.545 6.769 1.247 0 2.39-.404 3.428-1.112.312-.202.624-.404.831-.606 1.559.91 3.22 1.516 5.09 1.516 2.286 0 4.78-.809 6.65-2.324.935 1.515 2.7 2.526 4.674 2.526 3.013 0 5.403-2.223 5.403-4.951 0-2.728-2.182-4.85-5.195-4.85zM9.151 27.125c0-2.93 2.182-5.254 4.987-5.254.727 0 1.454.202 2.078.505h.104c0 .708.207 1.415.415 2.122-1.039-.303-2.078-.303-3.013.101-.519.202-1.038.607-1.454 1.01-.935.91-1.143 2.426-.416 3.537.416.606 1.04 1.01 1.767 1.212.207 0 .311.101.519.101.52 0 1.143-.202 1.558-.505.312-.202.416-.707.208-1.01-.208-.303-.727-.404-1.039-.202-.312.202-.623.303-.935.202-.311-.101-.52-.202-.727-.505-.416-.606-.208-1.415.416-1.819.207-.202.415-.303.727-.404.727-.303 1.454-.303 2.077 0a3.05 3.05 0 0 1 1.663 1.718c.415 1.111.207 2.222-.416 3.132-.935 1.01-2.182 1.616-3.532 1.616-2.701-.303-4.987-2.728-4.987-5.557zm10.181 3.84a4.79 4.79 0 0 0 .52-2.728c1.142.707 2.493.909 3.947 1.01 0 0 5.818 0 5.818-5.658 0-1.516-.416-2.83-1.454-3.94-.935-.91-2.286-1.314-3.948-1.314-1.766 0-3.324 1.414-3.324 3.132 0 1.718 1.454 3.132 3.116 3.132.416 0 .831-.303.831-.707 0-.404-.208-.91-.727-.91-.831 0-1.558-.707-1.558-1.515 0-.808.83-1.515 1.766-1.515.935 0 2.181.303 2.805.909.727.707 1.039 1.718 1.039 2.829 0 4.041-4.26 4.041-4.364 4.041-3.324 0-5.921-2.525-5.921-5.759 0-2.526 1.558-4.85 3.74-5.86.83-.303 1.766-.505 2.7-.505 4.468 0 8.104 3.738 8.104 8.285 0 4.95-4.571 8.285-8.934 8.285a7.644 7.644 0 0 1-4.156-1.212zm15.583 1.414c-1.558 0-2.909-.808-3.532-2.02.52-.506.935-1.112 1.35-1.82.312.506.832.91 1.455 1.112.312.101.727.202 1.039.202.52 0 .935-.1 1.35-.303.416-.202.52-.606.312-1.01-.208-.404-.623-.505-1.039-.303-.311.202-.83.202-1.143.1-.311-.1-.623-.403-.83-.707a.897.897 0 0 1 0-1.01c.207-.606.83-.91 1.454-.91h.104c1.87.203 3.324 1.617 3.324 3.335 0 1.819-1.766 3.334-3.844 3.334z" id="path840" fill="#fff" stroke-width="1.025"/></svg>