<svg xmlns:osb="http://www.openswatchbook.org/uri/2009/osb" xmlns="http://www.w3.org/2000/svg" width="48" height="48" version="1.1" id="svg38"><defs id="defs22"><style id="style4511"/><style id="style4511-26"/><style id="style4511-9"/><style id="style4552"/><style id="style4511-2"/><linearGradient osb:paint="solid" id="linearGradient5293"><stop id="stop5295" offset="0" stop-color="#9a89c0" stop-opacity="1"/></linearGradient></defs><style id="style4485" type="text/css"/><path id="path4518" d="M19.738 3.544h8.495c13.908 0 16.804 11.146 16.804 17.128v7.06c0 5.906-2.704 17.127-17.836 17.127h-6.93c-11.563 0-17.146-7.639-17.146-17.128v-7.06c0-9.488 5.47-17.127 16.613-17.127z" opacity="1" fill="#e6e6e6" fill-opacity="1" stroke="#000" stroke-width=".333" stroke-linecap="square" stroke-linejoin="bevel" stroke-miterlimit="4" stroke-dasharray="none" stroke-dashoffset="0" stroke-opacity=".078"/><g id="g981" transform="matrix(.58355 0 0 .62654 48.06 -143.552)"><g transform="translate(-59.671 230.766) scale(.5766)" id="g4096"><path d="M-245.134 37.475c-2.407 1.3-3.22 1.76-5.827 3.552-1.808 1.065-3.616 2.492-5.427 3.7-.515.348-.96.924-1.448 1.294-4.186 6.57-6.63 14.708 1.225 20.454l91.343 70.125a14.944 14.944 0 0 0 18.256 0l86.723-66.577 4.62-3.548c5.549-4.061 7.77-10.695 6.898-16.424-.355-.392-.64-.858-1.014-1.23a63.797 63.797 0 0 0-4.602-4.16c-1.684-1.385-2.952-2.138-4.976-3.445a93.435 93.435 0 0 0-6.215-3.687c-.774-.419-1.428-.732-2.327-.961-1.505 1.078-5.026 4.194-6.019 4.98l-82.217 63.108z" id="path1002" transform="translate(103.488 -3.369) scale(.45887)" fill="#d54b3d" fill-rule="evenodd" stroke-width="3.851"/></g><path d="M-248.441 40.85c-.727.287-1.55.512-2.239.824a38.842 38.842 0 0 0-5.744 3.185 32.683 32.683 0 0 0-4.816 3.961 32.665 32.665 0 0 0-3.967 4.81 38.778 38.778 0 0 0-3.19 5.74c-.942 2.075-1.77 4.317-2.492 6.74-.722 2.422-1.34 5.023-1.867 7.818-.527 2.794-.963 5.78-1.32 8.972-.358 3.192-.637 6.59-.85 10.205-.426 7.23-.588 15.33-.588 24.403v58.125c0 9.072.162 17.173.588 24.402.213 3.615.492 7.011.85 10.203a121.19 121.19 0 0 0 1.32 8.973c.527 2.794 1.145 5.396 1.867 7.818.723 2.423 1.55 4.665 2.493 6.74a38.778 38.778 0 0 0 3.189 5.739 32.665 32.665 0 0 0 3.967 4.81 32.683 32.683 0 0 0 4.816 3.961 38.842 38.842 0 0 0 5.744 3.186c.69.312 1.512.539 2.239.826z" id="rect877-5" transform="translate(0 228.824) scale(.26458)" display="inline" opacity="1" fill="#d54b3d" fill-opacity="1" stroke="none" stroke-width="2.083" stroke-linecap="round" stroke-linejoin="round" stroke-miterlimit="4" stroke-dasharray="none" stroke-dashoffset="0" stroke-opacity="1"/><path d="M-62.586 252.291c.727-.287 1.55-.514 2.238-.826a38.864 38.864 0 0 0 5.746-3.186 32.683 32.683 0 0 0 4.817-3.96 32.654 32.654 0 0 0 3.965-4.811 38.785 38.785 0 0 0 3.191-5.738c.943-2.076 1.768-4.318 2.49-6.74.723-2.423 1.342-5.025 1.87-7.82.527-2.793.962-5.78 1.32-8.972.357-3.192.635-6.588.847-10.203.426-7.23.588-15.33.588-24.402v-58.125c0-9.073-.162-17.173-.588-24.403-.212-3.614-.49-7.013-.847-10.205a121.331 121.331 0 0 0-1.32-8.972c-.528-2.795-1.147-5.396-1.87-7.819-.722-2.422-1.547-4.664-2.49-6.74a38.785 38.785 0 0 0-3.191-5.738 32.654 32.654 0 0 0-3.965-4.81 32.683 32.683 0 0 0-4.817-3.962 38.864 38.864 0 0 0-5.746-3.185c-.689-.312-1.512-.537-2.238-.824z" id="path1004" transform="translate(0 228.824) scale(.26458)" display="inline" opacity="1" fill="#d54b3d" fill-opacity="1" stroke="none" stroke-width="2.083" stroke-linecap="round" stroke-linejoin="round" stroke-miterlimit="4" stroke-dasharray="none" stroke-dashoffset="0" stroke-opacity="1"/></g><path id="path4518-3" d="M19.738 3.544h8.495c13.908 0 16.804 11.146 16.804 17.128v7.06c0 5.906-2.704 17.127-17.836 17.127h-6.93c-11.563 0-17.146-7.639-17.146-17.128v-7.06c0-9.488 5.47-17.127 16.613-17.127z" opacity="1" fill="#e6e6e6" fill-opacity=".145" stroke="#000" stroke-width=".333" stroke-linecap="square" stroke-linejoin="bevel" stroke-miterlimit="4" stroke-dasharray="none" stroke-dashoffset="0" stroke-opacity=".078"/></svg>