<svg xmlns="http://www.w3.org/2000/svg" xmlns:xlink="http://www.w3.org/1999/xlink" width="48" height="48" version="1.1" id="svg38"><defs id="defs22"><style id="style4511"/><style id="style4511-26"/><style id="style4511-9"/><style id="style4552"/><style id="style4511-2"/><style id="style4511-8"/><style id="style4511-26-4"/><style id="style4511-9-8"/><style id="style4552-5"/><style id="style4511-2-5"/><style id="style4511-87"/><style id="style4511-26-7"/><style id="style4511-9-1"/><style id="style4552-53"/><linearGradient gradientUnits="userSpaceOnUse" x2="0" y2="503.8" y1="536.8" id="a-367-3"><stop id="stop2-5-0" stop-color="#2a2c2f"/><stop id="stop4-3-3" stop-color="#424649" offset="1"/></linearGradient><style id="style4511-2-9"/><linearGradient xlink:href="#a-367-3" id="linearGradient1347" x1="2.266" y1="23.808" x2="44.513" y2="23.808" gradientUnits="userSpaceOnUse"/></defs><style id="style4485" type="text/css"/><path d="M19.046 2.965h8.495c13.908 0 16.805 11.246 16.805 17.282v7.123c0 5.96-2.704 17.282-17.837 17.282h-6.93c-11.562 0-17.146-7.708-17.146-17.282v-7.123c0-9.575 5.47-17.282 16.613-17.282z" id="rect4144" opacity="1" fill="url(#linearGradient1347)" fill-opacity="1" stroke="#000" stroke-width=".334" stroke-linecap="square" stroke-linejoin="bevel" stroke-miterlimit="4" stroke-dasharray="none" stroke-dashoffset="0" stroke-opacity=".078"/><path id="rect4203-6" d="M8.43 7.607c-6.3 4.715-5.759 13.986-5.948 17.835H20.94c0-1.832 1.118-3.4 2.717-4.11L11.35 5.294z" opacity=".1" fill="#fff" fill-opacity="1" stroke-width="1.006"/><path id="path5733" d="M37.853 41.143c4.758-4.957 6.89-9.857 6.89-17.705H27.21a4.509 4.509 0 0 1-2.581 4.099L35.472 42.82z" opacity=".1" fill="#fff" fill-opacity=".856" stroke-width=".979"/><style type="text/css" id="style4485-4"/><style type="text/css" id="style4485-6"/><g id="g1403" transform="translate(49.244 4.632)" fill-opacity="1" stroke="none" stroke-width="1.5" stroke-linecap="round" stroke-linejoin="round" stroke-opacity="1"><path id="circle5691" d="M-16.97 3.324a.72.72 0 0 0-.64.447l-.004-.002-.047.127v.002l-4.773 13.152a4 4 0 0 0-3.406-1.91 4 4 0 0 0-4 4 4 4 0 0 0 4 4 4 4 0 0 0 3.836-2.875l5.459-15.04a16.84 16.84 0 0 1 4.101 3.853c.602.8 1.8-.103 1.2-.903a18.336 18.336 0 0 0-5.296-4.742.75.75 0 0 0-.43-.11z" opacity="1" fill="#f5332e"/><path style="line-height:normal;text-indent:0;text-align:start;text-decoration-line:none;text-decoration-style:solid;text-decoration-color:#000;text-transform:none;white-space:normal;isolation:auto;mix-blend-mode:normal;solid-color:#000;solid-opacity:1" d="M-27.463.956c-8.47.743-15.55 7.356-16.559 16.129-1.154 10.025 6.05 19.105 16.076 20.26 10.025 1.154 19.106-6.053 20.26-16.079.44-3.826-.336-7.52-2.022-10.681-.47-.883-1.794-.178-1.324.705a16.704 16.704 0 0 1 1.856 9.806c-1.062 9.22-9.378 15.82-18.598 14.758-9.22-1.061-15.82-9.38-14.758-18.6 1.062-9.22 9.378-15.819 18.598-14.757A16.82 16.82 0 0 1-19.7 3.55c.931.366 1.48-1.03.55-1.396a18.318 18.318 0 0 0-4.612-1.149 18.344 18.344 0 0 0-3.701-.05z" id="path5703" color="#000" font-style="normal" font-variant="normal" font-weight="400" font-stretch="normal" font-size="medium" font-family="sans-serif" text-decoration="none" letter-spacing="normal" word-spacing="normal" writing-mode="lr-tb" direction="ltr" baseline-shift="baseline" text-anchor="start" clip-rule="nonzero" display="inline" overflow="visible" visibility="visible" opacity="1" color-interpolation="sRGB" color-interpolation-filters="linearRGB" fill="#fff" fill-rule="nonzero" stroke-miterlimit="4" stroke-dasharray="none" stroke-dashoffset="0" color-rendering="auto" image-rendering="auto" shape-rendering="auto" text-rendering="auto"/></g></svg>