<svg xmlns:osb="http://www.openswatchbook.org/uri/2009/osb" xmlns="http://www.w3.org/2000/svg" xmlns:xlink="http://www.w3.org/1999/xlink" width="48" height="48" version="1.1" id="svg38"><defs id="defs22"><linearGradient id="linearGradient4488"><stop id="stop4490" offset="0" stop-color="#000" stop-opacity=".047"/><stop id="stop4492" offset="1" stop-color="#000" stop-opacity="0"/></linearGradient><style id="style4511"/><style id="style4511-26"/><style id="style4511-9"/><style id="style4552"/><style id="style4511-2"/><linearGradient xlink:href="#linearGradient4488" id="linearGradient4540" gradientUnits="userSpaceOnUse" gradientTransform="matrix(.3074 0 0 .30379 -63.667 1.994)" x1="288.112" y1="141.785" x2="287.575" y2="79.008"/><linearGradient osb:paint="solid" id="linearGradient5293"><stop id="stop5295" offset="0" stop-color="#9a89c0" stop-opacity="1"/></linearGradient><style id="style2" type="text/css"><![CDATA[.fil5{fill:none}.fil1{fill:#196FBA}.fil0{fill:#25B2EE}.fil4{fill:#793C7C}.fil3{fill:#8C508C}.fil2{fill:white}]]></style><linearGradient gradientTransform="rotate(-90 -3.312 49.312)" gradientUnits="userSpaceOnUse" x2="47" x1="1" id="linearGradient3764-3675356"><stop id="stop2-2" stop-opacity="1" stop-color="#d62e2e"/><stop id="stop4-9127" stop-opacity="1" stop-color="#d93f3f" offset="1"/></linearGradient><linearGradient xlink:href="#linearGradient3764-3675356" id="linearGradient1408" x1="2.583" y1="23.586" x2="45.329" y2="23.586" gradientUnits="userSpaceOnUse"/></defs><style id="style4485" type="text/css"/><path id="path4516" d="M2.751 26.22v1.669c0 9.574 5.65 17.282 17.35 17.282h7.012c15.312 0 18.048-11.323 18.048-17.282V26.22c0 5.96-2.736 17.282-18.048 17.282H20.1c-11.7 0-17.349-7.708-17.349-17.282z" opacity="1" fill="url(#linearGradient4540)" fill-opacity="1" stroke="none" stroke-width="1.106" stroke-linecap="square" stroke-linejoin="bevel" stroke-miterlimit="4" stroke-dasharray="none" stroke-dashoffset="0" stroke-opacity=".078"/><path id="path4518" d="M19.561 2.743h8.596c14.073 0 17.004 11.247 17.004 17.282v7.122c0 5.96-2.736 17.282-18.048 17.282H20.1c-11.7 0-17.35-7.708-17.35-17.282v-7.122c0-9.574 5.535-17.282 16.81-17.282z" opacity="1" fill="url(#linearGradient1408)" fill-opacity="1" stroke="#000" stroke-width=".336" stroke-linecap="square" stroke-linejoin="bevel" stroke-miterlimit="4" stroke-dasharray="none" stroke-dashoffset="0" stroke-opacity=".078"/><g id="g1399" transform="matrix(1 0 0 1.09278 -.123 -2.554)" stroke-width=".957" fill="#fff"><g id="g83" clip-rule="evenodd" fill-rule="evenodd"><path id="path79" d="M8.12 25.067l-.043.05-.043.05-.033.05-.044.055-.027.05-.026.055-.033.06-.021.05-.022.06-.012.06-.016.051-.017.065-.011.06-.005.06-.005.06v.065l-.017.086-.016.079-.011.086-.027.075-.027.075-.027.07-.033.065-.027.07-.022.085-.016.08-.011.081-.011.079v.075l.011.09.011.075.016.081.022.065.027.065.033.055.043.05.049.045.055.035.059.024.071.025.076.01.07.01h.065l.07-.005.06-.01.06-.015.054-.03.055-.02.043-.03.054-.039.033-.035.043-.055.033-.051.027-.06.033-.07.022-.075.048-.146.054-.14.06-.13.055-.12.048-.055.05-.055.043-.05.043-.065.043-.06.027-.065.038-.06.033-.066.021-.069.022-.066.016-.065.005-.064.005-.07-.005-.076-.011-.069-.026-.076-.006-.15.006-.15.005-.14.011-.145.043-.095.021-.09.006-.086.005-.079-.005-.081-.006-.075-.021-.065-.043-.065-.044-.06-.059-.04-.054-.045-.065-.025-.022-.009-.038-.005-.033-.005h-.096l-.071.015-.038.014-.038.015-.033.026-.038.02-.027.02-.027.026-.033.035-.027.026-.049.079-.048.081-.033.094-.038.111-.017.04-.027.055-.027.04-.027.055-.038.04-.038.05-.043.05zm2.149-.24l-.032.25-.033.211-.028.17-.027.135-.011.08v.21l.005.135.017.15.016.17.028.185.033.205v.06l.005.065.016.064.027.071.028.075.038.065.049.075.054.075.043.075.038.06.048.045.038.045.044.031.037.014.05.015.043.005.038-.005.049-.015.044-.014.049-.021.049-.03.048-.04.054-.045.06-.05.049-.085.049-.075.033-.07.016-.075.005-.06.016-.075.011-.09.005-.11.038-.086.027-.085.033-.08.022-.085.011-.08.005-.081v-.084l-.005-.081-.022-.09-.016-.089-.016-.091-.022-.091v-.099l-.005-.101v-.199l.005-.06v-.06l-.005-.065-.005-.059-.027-.141-.033-.135-.033-.05-.027-.045-.044-.045-.032-.035-.044-.035-.054-.026-.049-.025-.054-.025-.087-.024-.076-.015-.065-.015-.054-.005-.043.005-.038.015-.022.005-.01.01-.011.015-.005.009-.033.025-.043.031-.038.02-.054.02-.022.004-.017.012-.011.021-.027.029-.043.076zm1.879-.425l.022.12.015.101.012.08.005.065v.035l.011.055.01.045.027.07.054.14.081.176.016.065.033.06.027.065.054.065.049.066.07.054.076.07.082.06.065.06.065.05.055.035.065.03.049.02.054.011.022.005.016-.005.022-.011.027-.005.043-.015.043-.02.038-.025.033-.046.049-.039.038-.055.038-.06.039-.075.032-.095.017-.096.005-.08-.005-.075-.006-.075-.01-.08-.027-.09-.021-.1.011-.06v-.099l-.011-.05-.022-.045-.021-.055-.011-.055-.01-.065-.017-.055-.021-.06-.022-.065-.027-.055-.033-.065-.033-.066-.043-.06-.043-.065-.049-.045-.038-.04-.054-.04-.049-.026-.065-.029-.055-.015-.065-.005-.065-.005h-.162l-.065.011-.068.002-.038.02-.033.025-.022.01-.011.01-.005.015-.006.01-.027.05-.027.045-.043.035-.033.035-.022.01-.016.02-.011.02-.017.03-.021.095zm-3.475-1.221l.06.045.06.04.054.034.06.036.06.024.055.031.06.025.065.02.053.024.065.01.06.01.055.01.065.005.06.005h.06l.06-.005H9.7l.081.005.082.01.076.02.081.025.076.025.093.04.081.035.06.03.071.035.065.015.065.01.07.005h.07l.071-.005.07-.005.108-.031.114-.025.115-.01.119-.005.07-.005.076-.01.07-.01.071-.01.07-.025.06-.02.06-.021.065-.02.049-.03.06-.03.049-.03.054-.035.049-.04.043-.04.044-.041.044-.044.054-.066.06-.055.065-.06.071-.06.065-.045.065-.06.081-.05.082-.045.076-.055.07-.055.054-.045.049-.055.082-.029.07-.05.065-.045.076-.065.049-.06.038-.065.038-.065.027-.07.027-.075.016-.079.017-.081.005-.085v-.129l-.01-.045-.022-.105-.038-.099-.027-.091-.027-.11-.027-.135-.016-.155-.005-.07-.011-.06-.016-.07-.016-.07-.043-.154-.06-.161-.016-.055-.022-.041-.021-.044-.028-.031-.016-.03-.026-.035-.033-.015-.027-.02-.054-.06-.049-.065-.043-.069-.038-.07-.016-.05-.027-.045-.022-.036-.027-.03-.038-.03-.027-.025-.038-.025-.043-.019-.028-.015-.032-.015-.033-.035-.022-.045-.016-.01-.016-.02-.017-.115-.011-.1-.016-.096-.016-.085-.005-.009v-.011l-.005-.026v-.019l.005-.05.016-.041.022-.044.027-.04.005-.031.011-.039.016-.03.011-.035.022-.035.033-.034.033-.03.032-.03.06-.05.065-.05.071-.04.076-.05.082-.035.092-.04.103-.034.098-.031.043-.015.038-.015.043-.025.033-.03.044-.045.032-.05.038-.056.033-.07.016-.05.011-.039.005-.055v-.099l-.005-.046-.011-.05-.016-.045-.022-.05-.016-.045-.005-.045-.011-.045v-.04l.011-.036.01-.034.017-.041.011-.02.005-.03v-.041l-.011-.035-.022-.045-.022-.046-.038-.055-.038-.06-.044-.045-.038-.04-.043-.04-.038-.041-.049-.034-.043-.036-.049-.025-.044-.025-.055-.03-.043-.025-.06-.011-.054-.02-.054-.014-.055-.01-.06-.011-.054-.005-.082-.004-.076-.01-.065-.015-.049-.015-.043-.015-.033-.01-.033-.005h-.037l-.033.005-.033.01-.027.015-.032.015-.055.025-.049.025-.06.02-.06.01h-.049l-.055.01-.038.005-.043.02-.039.02-.032.035-.027.025-.022.045-.021.055-.022.06-.011.05v.039l.005.041.016.035.022.024.027.025.076.035.071.045.049.03.054.041.033.035.027.029.022.04.011.025.011.035.006.024v.031l-.006.03-.011.031-.016.024-.027.035-.027.03-.033.04-.038.05-.034.071-.027.085-.021.055-.022.05-.027.05-.022.04-.038.045-.033.035-.038.031-.038.024-.038.026-.027.035-.027.045-.027.05-.027.055-.016.035-.022.045-.039.03-.026.019-.039.015-.043.02-.038.005-.038.005-.027.01-.027.015-.038.015-.06.04-.07.055-.038.04-.044.025-.048.02-.044.014h-.054l-.043-.014-.065-.015-.054-.02-.038-.019-.049-.021-.066-.015-.087-.01-.043-.005-.043-.01-.043-.01-.033-.015-.027-.025-.033-.02-.011-.025-.016-.034-.006-.016-.011-.01-.011-.01-.022-.015-.033-.02-.06-.025-.027-.02-.026-.02-.043-.035-.033-.04-.082-.095-.087-.12-.011-.025-.01-.03-.005-.025-.005-.036v-.064l.011-.081.016-.085.033-.084.038-.096.048-.104.027-.095.01-.081.023-.065.022-.06.022-.06.033-.035.021-.039.027-.026.022-.005.022-.014.015-.015.012-.03.049-.065.038-.095.038-.085.043-.08.022-.031.027-.034.027-.025.027-.025.022-.009.027-.025.017-.021.022-.026.015-.029.016-.035.012-.035.005-.041.017-.06.027-.05.054-.07.054-.075.027-.025.022-.025.027-.02.027-.01.027-.01.022-.005h.094l.038-.015.044-.03.049-.035.027-.015.033-.026.033-.01.033-.01.033-.009h.076l.043.009h.081l.039-.005.032-.01.044-.01.027-.014.043-.02.033-.021.022-.014.022-.01.027-.01.033-.011.033-.005h.093l.043.005h.049l.037-.014.055-.01.049-.015.065-.03.054-.041.06-.035.07-.05.027-.015.022-.025.021-.04.017-.035.005-.05.011-.051v-.135l-.005-.04-.005-.029-.011-.041-.012-.035-.037-.075-.044-.07-.06-.064-.076-.071-.076-.075-.103-.065-.087-.05-.076-.029-.087-.026-.081-.019-.076-.02h-.158l-.065.02h-.053l-.071-.01-.081-.015-.098-.026-.06-.01-.06-.01-.06-.005h-.06l-.044.01-.054.01-.038.015-.049.02-.049.029-.065.021-.066.01-.075.005h-.022l-.017.005-.022.005-.027.01-.043.035-.054.046-.049.065-.066.075-.06.095-.06.105-.033.05-.022.04-.027.035-.026.03-.022.025-.027.02-.022.015-.027.01-.027.015-.027.021-.033.019-.016.025-.017.035-.021.02-.017.035-.016.036-.006.025-.01.026-.006.029-.011.02-.016.015-.021.02-.027.025-.022.015-.054.045-.049.06-.043.055-.038.06-.022.07-.033.06-.033.05-.027.024-.033.03-.032.05-.049.06-.04.076-.12.195-.146.25-.071.125-.048.105-.049.096-.038.085-.033.075-.017.07-.016.055-.006.045.006.019-.006.036-.005.025-.012.02-.011.03-.021.025-.022.025-.026.025-.027.02-.016.035-.017.045-.011.065-.011.065-.005.085v.1l.005.105.005.035.005.034.011.035.016.031.016.029.027.03.022.03.027.03.027.025.027.03.016.025.017.025.01.03.006.025v.105l.01.036.01.029.016.015.022.029.027.021.033.015.043.025.048.03.038.035.043.04.016.035.022.039.038.031.043.029.05.041.054.02.06.03.07.031.027.005.027.01.032.01.022.015.027.024.033.025.027.031.022.034.049.055.033.06.022.055.011.07.033.055.016.065.011.07v.065l-.006.06-.01.07-.022.065-.038.069-.044.07-.054.075-.033.07-.038.06-.022.07-.022.06-.011.06-.006.056-.005.055-.016.056-.016.045-.022.046-.027.03-.033.04-.032.025-.039.02-.033.01-.032.021-.033.026-.021.025-.071.06-.06.069-.065.091-.065.1-.054.115-.071.135-.038.075-.033.07-.021.07-.022.076-.011.06-.005.065.005.065.011.06.027.115.016.105.005.095v.094l-.005.03.005.035.005.041.011.04.033.095.038.106.06.11.06.124.081.135zm3.019-3.214l.027.025.016.026.011.02.01.024.011.031.016.025.033.026.027.034.06.055.043.07.049.075.038.08.017.065.027.055.021.04.016.031.027.035.028.03.021.045.022.045.016.055.022.055.005.065.011.065v.214l-.011.065v.06l-.022.059-.016.055-.016.056-.017.04-.015.045-.011.05-.01.055-.011.115-.006.142v.029l-.054.06-.055.055-.059.054-.06.051-.06.045-.076.04-.071.039-.065.036-.082.02-.07.02-.065.025-.071.01-.053.006-.06.005h-.044l-.054-.005-.027-.01-.043-.005-.038-.01-.038.01-.049.005-.049.01-.055.015-.053.01-.033.011-.038.005h-.059l-.044-.01-.033-.01-.043-.015-.038-.029-.027-.01-.038-.015-.033-.01-.048-.01-.098-.015-.114-.01h-.049l-.049-.005-.054-.015-.043-.01-.055-.01-.043-.02-.054-.015-.043-.025-.06-.06-.054-.066-.05-.067-.043-.07-.038-.07-.033-.066-.022-.065-.021-.073v-.041l.005-.041.017-.045.022-.039.027-.045.038-.045.043-.044.049-.046.044-.045.032-.036.032-.05.033-.05.017-.05.022-.06.01-.06.01-.065.006-.045.022-.05.022-.036.022-.045.038-.035.038-.036.038-.039.054-.03.081-.055.07-.051.07-.055.055-.06.06-.06.043-.069.049-.066.027-.075.022-.05.027-.041.033-.045.027-.024.049-.031.038-.025.054-.015.06-.01.065-.005.06-.005.065-.01.043-.02.055-.015.038-.021.05-.025.027-.025.005-.005v-.005l.006-.005h.01l.125.035.114.034.103.041zm4.967-2.187l.021.124.006.096.016.074.005.06.005.036.011.05.017.05.022.06.053.145.082.165.011.065.027.051.043.059.038.06.06.05.065.06.07.06.087.045.06.06.06.045.054.04.054.026.049.015.044.01.043-.005.05-.005.033-.02.043-.02.038-.03.037-.035.039-.045.027-.05.038-.06.028-.055.027-.105.022-.085.005-.08-.005-.065-.005-.065-.016-.076-.022-.09-.022-.1.005-.06.005-.05-.005-.045-.005-.039-.022-.05-.033-.05-.011-.055-.022-.05-.011-.054-.022-.066-.027-.055-.016-.06-.033-.06-.038-.06-.028-.06-.043-.06-.048-.041-.038-.029-.054-.026-.054-.029-.054-.02-.054-.01-.065-.01-.054-.005-.082-.004-.076.004-.065.005-.043.015-.049.01-.033.026-.006.01-.005.015-.005.015-.005.015-.033.04-.033.039-.026.036-.049.024-.017.011-.017.015-.011.025-.01.03-.017.086zm2.047 7.062l-.065.011-.065.014-.06.02-.065.026-.049.035-.054.035-.049.05-.049.045-.054.105-.038.094-.017.051-.006.045-.011.044-.005.046.005.065.011.05.022.06.026.05.044.051.033.04.054.04.049.039.119.026.103.015.103.02.098.005h.093l.087-.016.087-.014.076-.02.048-.021.065-.009.06-.01h.124l.055-.011.06-.005.044-.005.015-.005h.044l.048.005.082.021.141.01h.261l.114-.01.103-.026.103-.03.043-.015.049-.021.039-.019.043-.02.038-.02.021-.025.028-.015.022-.025.027-.025.016-.035.016-.02.016-.041.033-.06.017-.076.005-.085v-.084l-.015-.081-.028-.069-.033-.07-.033-.065-.049-.05-.049-.055-.065-.045-.071-.039-.087-.04-.087-.036-.092-.025-.087-.009-.087-.011-.081.011-.087.009-.081.02-.033.015-.038.015-.043.02-.055.01-.109.009-.13.011-.146.01-.119.01-.098.014-.076.015-.07.026-.071.015-.087.02zm4.255.651l.011.115.011.109.005.105.017.105.027.095.016.09.022.09.022.085.022.095.016.091.005.084.005.081v.075l-.005.076-.011.07-.011.06-.038.086-.027.07-.022.075-.022.05-.027.08-.033.075-.038.05-.033.035-.065.05-.06.041-.076.035-.07.03-.071.02-.076.026-.081.005h-.147l-.07-.02-.065-.026-.055-.029-.065-.035-.06-.046-.054-.05-.049-.065-.06-.079-.038-.075-.043-.07-.027-.075-.017-.06-.01-.065-.011-.06.005-.045v-.095l-.005-.085-.011-.046-.016-.034-.011-.04-.016-.036-.011-.034v-.03l-.005-.03-.005-.035.005-.035.005-.034v-.035l.011-.04.011-.035.011-.05.005-.039v-.09l-.005-.05-.011-.045-.011-.05-.028-.115-.021-.11-.028-.095-.011-.096-.01-.084v-.081l.005-.065.01-.065.017-.18.016-.175.005-.176v-.175l-.017-.17-.01-.171-.022-.179-.022-.171-.005-.089v-.175l.005-.081.006-.095v-.266l-.004-.165-.005-.1-.005-.1v-.09l.005-.084.005-.076.006-.075.01-.06.016-.065.017-.08.021-.08.01-.08.005-.086v-.169l-.005-.086-.01-.085-.027-.105-.022-.111-.016-.12-.006-.141-.076-.07-.07-.065-.065-.045-.06-.039-.097-.09-.082-.07-.065-.051-.065-.045-.038-.016-.044-.009-.13-.041-.135-.024-.125-.015-.13-.01h-.136l-.125.005-.135.01-.13.02-.114.02-.098.02-.092.01-.087.005-.087.009-.075.021-.049.02-.049.025-.044.02-.049.015-.033.025-.043.034.022.025v.015l.005.095v.096l.005.094.011.1v.124l-.016.056-.027.059-.005.011-.005.01-.005.015v.024l.071.075.076.076.081.06.082.06.016.015.017.014.114-.005.13.005.13.015.152.02.157.005h.283l.13-.005.076.005.065.01.065.015.065.015.066.029.065.026.071.03.054.045.071.041.059.055.043.055.049.055.027.07.022.07.016.076.005.08v.04l-.005.035-.011.024-.005.041-.006.03-.016.025-.017.035-.016.025-.027.03-.022.025-.028.024-.038.031-.065.04-.082.045-.103.026-.114.02-.109.015h-.114l-.114-.005-.13-.015-.124-.02-.125-.04-.092-.02-.103-.02-.092-.011h-.294l-.098.008-.103.015-.076.015-.07.015-.081.005-.071.005h-.07l-.07-.005-.071-.01-.065-.014h-.016l-.168.06-.158.05-.135.05-.125.05-.108.045-.098.05-.093.04-.065.04.016.015.005.06.011.075-.011.065-.005.075-.016.081-.022.084-.022.091-.043.1-.011.086-.011.079v.06l.005.06v.335l.005.09.011.085.027.08.027.075.016.05.016.035.022.04.033.035.044.035.043.036.027.039.017.045.006.045-.006.051-.011.055-.015.06-.028.055-.038.055-.027.05-.044.039-.043.041-.049.035-.049.03-.049.025-.065.005-.066.005-.053-.005-.05-.005-.054-.021-.065-.014-.065-.02-.071-.026-.048-.01-.044-.025-.038-.01-.038-.025-.043-.024-.033-.035-.033-.025-.038-.04-.027-.036-.033-.044-.033-.046-.022-.044-.06-.106-.038-.115-.033-.156-.027-.149-.022-.146-.01-.141-.006-.12v-.12l.006-.11.005-.106.017-.09.01-.085.01-.08.017-.075v-.13l-.021-.045-.022-.05-.015-.035-.028-.04-.027-.045-.027-.035-.022-.036-.027-.029-.076-.005h-.13l-.07-.009-.066-.036-.065-.04-.065-.029-.049-.041v.041l.016.039-.005.115-.011.12-.027.132-.027.149-.022.055-.033.065-.017.055-.017.055-.01.055-.005.055v.095l-.005.075-.012.075-.005.07-.011.065-.022.06-.01.06-.006.064.006.075-.006.065-.016.075-.015.075-.033.075-.016.05-.022.045-.01.046-.017.044-.011.045-.011.05v.15l-.011.07-.021.085-.033.094-.06.15-.06.135-.043.125-.049.124-.033.111-.032.105-.028.1-.016.09-.027.06-.022.05-.033.066-.033.055-.037.05-.044.055-.043.055-.049.05-.077.055-.076.055-.076.039-.065.045-.065.025-.07.031-.065.024-.07.015H13.9l-.054-.01-.06-.01-.065-.014-.054-.02-.065-.015-.065-.025-.044-.045-.054-.035-.049-.05-.033-.041-.033-.05-.033-.05-.022-.045-.016-.05-.022-.105-.022-.1-.005-.106.005-.104.038-.1.038-.091.033-.089.033-.081.065-.069.065-.09.076-.1.082-.121.065-.074.065-.08.043-.07.043-.06.033-.07.017-.06.01-.055.005-.055.027-.081.022-.065.016-.025.011-.03.012-.015.021-.02.071-.175.06-.17.054-.156.033-.15.048-.095.027-.096.011-.05.01-.045v-.039l.005-.045.006-.151.01-.155.027-.156.027-.155.033-.15.054-.151.054-.15.06-.145.038-.09.022-.096.016-.09.012-.09v-.085l-.012-.09-.016-.086-.027-.085.017-.13.016-.105.011-.086.012-.06.015-.06.016-.06.016-.06.005-.066.011-.05v-.18l-.016-.1-.011-.095-.005-.096-.005-.09v-.09l.005-.085.005-.09.011-.086.005-.08.005-.11v-.11l-.005-.145-.005-.151-.005-.175-.011-.19-.016-.21-.015-.121-.022-.119-.022-.11-.038-.1-.033-.096-.049-.09-.038-.081-.06-.074-.027-.05-.038-.06-.038-.05-.027-.06-.022-.06-.033-.055-.022-.07-.022-.06-.038-.141-.027-.134-.016-.151-.006-.155-.01-.081-.006-.08-.005-.075V17.1l.005-.075.006-.075.01-.075.011-.075.016-.075.016-.07.027-.07.016-.07.027-.075.032-.07.038-.07.033-.07.071-.145.076-.135.065-.11.065-.11.071-.081.065-.075.033-.025.037-.026.027-.019.033-.02.043-.015.049-.02.055-.015.038-.01.054-.015.038-.01h.137l.037.005.044.015.044.01.038.015.044.02.043.015.033.026-.005-.01-.005-.005.005-.005h.005l.043-.005h.119l.076.005h.125l.081-.005.098-.005.093-.025.097-.025.098-.02.098-.01.092-.005h.098l.093.005.097.015.065.02.054.01.065.005.049.005h.054l.049-.005.043-.005.039-.01.092-.04.076-.026.07-.024.071-.02.065-.01.055-.005h.054l.038.01.06.005.06-.01.065-.015.076-.025.098-.04.103-.025.092-.015.092-.01.081-.005.093.005.075.01.077.015.076.02.081.01.087.01.076.005h.082l.081-.005.081-.01.087-.014.119-.015.125-.015.119-.005.114-.005.109.005h.108l.103.005.093.015.114.015.103.005h.093l.081-.005.049.005h.038l.038.01.049.01.027.021.043.014.033.015.022.02.054.03.038.02.055.015.049.015.049.01.049.005h.103l.071-.005h.055l.065.005.055.01.054.005.049.01.049.01.043.016.098.054.082.05.032.035.027.024.033.031.016.025.022.045.033.04.038.034.033.046.049.024.044.035.059.035.06.02.054.035.049.03.054.029.038.041.049.035.033.04.044.039.038.046.033.044.038.045.027.05.027.055.054.105.038.125.011.065.016.07.005.07.006.07-.006.07-.005.069-.016.081-.011.075-.011.045-.016.05-.016.034-.027.046-.022.034-.016.035-.028.027-.033.03-.027.03-.022.031-.021.04-.022.029-.016.041-.01.035-.011.035v.045l-.011.079-.016.065-.022.05-.022.04-.022.045-.011.045-.011.05-.005.035v.08l.011.034.005.045.011.03.005.045.005.035v.091l-.005.045-.005.055-.011.046-.027.139-.016.135-.016.136-.005.139-.005.146v.134l.005.151.01.144v.096l-.005.089-.011.086-.011.084-.016.081-.022.075-.027.069-.028.067-.011.035-.006.051v.135l.012.055.011.06.011.06.016.056.006.055.005.055-.005.06v.066l-.011.065-.011.07-.016.07-.011.05-.011.065-.011.06v.126l.011.06.011.065.011.065.027.14.022.146.022.134.005.131v.243l-.005.12-.017.105-.023.175-.016.17v.291l.016.13.022.12.017.055.01.05.017.044.021.045.076.221.07.22.049.2.055.19.032.18.033.17.017.166zm-5.51-3.534l.108-.055.098-.06.082-.055.071-.046.005-.05.011-.039v-.175l-.011-.07-.022-.076v-.401l-.027-.029-.033-.02-.027-.015-.033-.01-.054-.024-.049-.031-.049-.02-.054-.02-.114-.04-.12-.026h-.022l-.13.066-.119.04-.06.02-.054.02-.049.01-.044.005-.097.015-.093.01-.092.005h-.093l-.064.024-.033.02-.087.05-.071.06-.054.055-.043.06-.038.04-.038.051-.033.039-.027.06-.016.15-.01.135-.027.115-.027.1-.028.06-.021.045-.011.06-.011.06-.011.055-.005.06v.125l.043-.05.06-.045.049-.04.065-.035.065-.035.07-.026.081-.019.07-.026.136-.034.114-.026.054-.015.049-.005h.093l.043.02.048.005.049.005h.093l.054-.005.043-.005.06-.02.038-.009.055-.005.044-.005h.086l.044.005.044.005.043.009h.033zm3.881-2.452l-.027.014-.022.015-.016.015-.016.02-.027-.01-.027-.005-.13.005h-.141l-.135-.005-.153-.015-.152-.015-.141-.019h-.25l-.005-.021-.006-.015-.017-.004h-.01l-.049-.065-.049-.045.011-.05.005-.044.016-.045.006-.041.005-.095.01-.09.017-.085.021-.08.033-.07.028-.065.038-.06.049-.055.081-.096.07-.099.06-.11.06-.105.032-.105.033-.115.028-.115.026-.125v-.087l-.005-.07-.005-.08-.011-.08-.015-.075-.022-.069-.027-.07-.033-.076-.033-.04-.033-.05-.033-.041-.043-.034-.033-.025-.038-.025-.048-.02-.038-.015-.059-.005h-.06l-.054.014-.071.021-.07.03-.071.04-.087.05-.082.06-.065.05-.065.06-.022.03-.033.036-.022.034-.016.036-.027.07-.033.08-.01.085-.005.085-.005.05-.011.055-.016.051-.011.06-.048.124-.06.135-.006.06-.006.07.006.084.006.091.021.11.017.111.01.094v.081l-.027.094-.027.086-.033.075-.033.06-.033.035-.022.04-.016.045-.01.05-.065.07-.06.06-.033.036-.06.035-.065.045-.075.041h-.017l-.103-.005h-.092l-.092.005h-.083l-.065.009-.071.01-.06.015-.043.015-.049.025-.044.015-.054.025-.054.01-.055.01h-.124l-.06-.005-.06-.01-.054-.01h-.107l-.065.004-.049.005-.053.01-.05.015-.07.011-.07.01-.065.005h-.125l-.06-.005-.06-.01-.06-.011-.087-.005-.098.01-.098.015-.109.029-.027-.02-.027-.031-.114-.074-.125-.09-.136-.101-.152-.115-.027-.02v-.031l-.054-.075-.033-.085-.038-.09-.022-.1-.022-.101-.005-.105-.005-.115.005-.115-.01-.125-.022-.155-.032-.2-.038-.24v-.048l.01-.07.022-.08.028-.085.038-.094.049-.115.06-.11.07-.135.016-.05.011-.045.065-.041.07-.04.077-.045.103-.045.217-.1.266-.106.028-.019.06-.02.06-.005h.135l.071.005.043.005.043-.005.06-.005.049-.011.135-.039.147-.05.087-.04.082-.03.087-.025.087-.031.087-.019.087-.016.087-.014.087-.01.093-.01.087-.005h.087l.087.005.098.01.087.01.093.014.087.016.14.025.125.025.125.005.114.005h.108l.103-.01.092-.015.087-.02.082-.02.087-.015.081-.005h.087l.087.009.093.016.093.025.098.03.098.035.104.05.103.05.103.06.108.07.109.079.114.08.119.09.087.1.081.1.065.105.054.105.054.105.033.105.027.11.022.111.005.13v.235l-.005.105-.011.095-.005.085-.011.08-.011.08-.011.06-.01.07-.012.075-.005.066-.01.154.005.166v.225l-.044.055-.033.039-.049.055z"/><path id="path81" d="M32.126 16.664l-.087-.03-.087-.011-.081-.004-.081.004-.027.011-.044.015-.027.01-.038.015-.032.015-.027.015-.033.02-.028.029-.054.05-.043.06-.043.055-.033.065-.028.06-.027.064-.016.073-.011.069v.07l.005.07.022.07.033.065.032.06.049.06.055.05.059.06.043.014.055.015.055.015.043.015.054.005.049.01h.228l.119-.014.125-.031.125-.029.18-.035.163-.035.152-.015.147-.01h.266l.12.01.114.02.049.015.054.021.06.014.049.01.059.005.049.005h.119l.114-.005.12-.015.124-.025.115-.045.103-.015.103-.02.114-.011.114-.005.12.005.125.021.125.014.13.031.065.024.07.015.07.01.076.005.071-.009.07-.01.076-.025.076-.03.054-.025.049-.041.038-.04.043-.06.038-.055.022-.07.022-.069.022-.075-.01-.086-.017-.08-.021-.075-.038-.075-.049-.07-.048-.06-.071-.065-.065-.045-.076-.04-.087-.025-.087-.014-.098-.011-.098-.005-.098.01-.115.015-.108.014-.094.027-.103.015-.097.005h-.109l-.114-.004-.108-.015-.115-.026-.124-.024-.158-.026-.157-.02-.157-.01H33.7l-.158.005-.163.019-.157.02-.163.025-.136.035-.135.03-.13.015-.119.01h-.114l-.109-.005-.098-.015zm-.12-1.256l-.076.035-.07.03-.076.02-.081.029-.071.021-.076.02-.076.01-.07.014-.076.011-.07.005-.076.005h-.146l-.071-.005-.076-.005-.07-.011-.065-.024-.048-.015-.054-.02-.044-.02-.049-.031-.032-.019-.044-.026-.033-.034-.022-.025-.033-.031-.022-.04-.016-.03-.011-.041-.005-.04-.005-.039-.011-.045v-.08l.016-.081.011-.075.027-.07.043-.07.038-.05.06-.06.06-.05.081-.055.092-.06.093-.04.098-.04.103-.034.108-.015.109-.015.108-.01.153-.01.157-.015.147-.03.162-.019.103-.046.119-.03.12-.02.125-.024.131-.02.125-.015.135-.005.136-.005h.483l.141.005.136.005.12.01.119.015.108.021.13.025.136.02.13.014.141.015.135.005h.141l.147-.005.135-.021.108-.009.115-.011.103-.005.103-.005h.103l.098.005.097.01.098.01.109.01.092.025.093.015.092.02.092.024.087.035.087.031.087.039.043.026.049.02.054.014.054.021.071.01.065.005h.152l.092.005.087.02.092.031.087.024.093.045.093.045.092.065.098.066.103.055.076.06.076.055.06.055.054.051.038.055.011.02.005.025.005.025.005.024.005.045.011.051.022.04.022.045.022.035.033.045.033.035.038.039.027.03.028.03.022.036.022.035.038.085.027.1.022.105.022.109.005.136v.14l.022.135.033.13.048.115.043.11.039.055.021.06.022.07.016.085.022.08.01.095.006.095v1.061l-.006.16-.021.145-.017.076-.016.07-.017.055-.016.065-.022.06-.027.051-.027.06-.027.05-.032.045-.038.045-.027.041-.043.04-.033.045-.038.044-.038.041-.044.045-.092.08-.098.069-.103.07-.119.07-.131.05-.135.054-.049.025-.054.025-.06.031-.059.014-.055.014-.065.015-.065.02-.065.01-.136.015-.152.005-.146-.005-.164-.01-.108-.005-.109-.005h-.103l-.103.005-.098.005-.087.01-.087.01-.087.011-.087.024-.093.026-.087.015-.093.01h-.087l-.081-.005-.081-.015-.081-.02-.082-.034-.076-.015-.076-.015-.076-.005h-.081l-.082.005-.076.015-.081.015-.093.039-.087.03-.098.015-.087.005h-.082l-.087-.005-.081-.02-.081-.03-.06-.025-.06-.02-.066-.005-.06-.005h-.13l-.065.01-.071.011-.043.139-.06.13-.06.14-.07.13-.038.05-.048.06-.055.055-.049.045-.065.06-.058.058-.071.05-.071.05-.075.066-.071.055-.071.07-.054.075-.038.065-.033.05-.027.045-.043.04-.038.035-.049.03-.049.02-.049.019-.055.021-.06.025-.054.024-.049.026-.049.035-.048.035-.049.03-.038.045-.076.065-.076.06-.082.066-.076.05-.087.045-.087.041-.092.034-.092.035-.136.06-.146.07-.141.07-.13.086-.071.04-.065.035-.07.026-.087.029-.104.026-.098.015-.108.009-.108.01h-.098l-.103.015-.092.02-.087.02-.087.033-.087.03-.081.035-.081.045-.076.035-.076.03-.065.025-.065.015-.06.01-.06.01-.043.005-.049-.005h-.18l-.076.021-.06.015-.103.031-.108.03-.104.015-.098.005h-.103l-.109-.005-.102-.027-.108-.02-.082-.02-.06-.025-.065-.03-.044-.025-.043-.021-.027-.03-.017-.025-.016-.025-.011-.06-.016-.035-.016-.025-.011-.01-.011-.01-.011-.004-.022-.015-.016-.015-.016-.02-.011-.025-.016-.06-.005-.076-.005-.055v-.06l.005-.065.011-.05.022-.06.022-.05.038-.05.038-.051.043-.035.038-.029.054-.03.049-.035.065-.026.065-.028.065-.03.076-.025.081-.011.082-.015.076-.005.087-.005h.081l.081.005.07.005.087.015.115.016.13.014.146.015.152.005.076-.015.081-.016.076-.014.07-.015.082-.025.07-.029.065-.025.07-.041.065-.044.065-.041.071-.031.07-.029.071-.026.076-.015.081-.015.081-.004.077-.015.07-.025.082-.015.07-.031.07-.04.076-.035.059-.045.065-.045.065-.045.055-.035.065-.04.065-.025.06-.024.065-.021.065-.02.07-.015.092-.04.098-.055.087-.05.081-.055.076-.06.065-.065.076-.066.065-.065.055-.091.049-.075.054-.076.044-.064-.103-.03-.103-.01-.098-.01h-.103l-.098.005-.098.016-.098.03-.092.035-.066.015-.081.015-.087.005-.092-.005-.114-.015-.115-.015-.125-.03-.135-.04-.142-.03-.13-.04-.108-.045-.098-.055-.038-.025-.038-.02-.033-.029-.038-.03-.027-.019-.022-.036-.021-.03-.017-.026-.015-.069-.028-.06-.038-.065-.033-.05-.06-.054-.054-.061-.065-.05-.081-.055-.022-.014-.038-.021-.022-.03-.021-.025-.017-.026-.027-.039-.016-.035-.011-.035-.011-.045-.011-.04-.005-.045-.005-.05v-.105l.005-.12-.005-.18-.005-.175-.005-.165-.005-.16-.016-.146-.016-.135-.01-.13-.017-.131-.022-.065-.016-.075-.005-.07-.006-.07v-.076l.006-.075.005-.069.022-.066.011-.1.005-.095.005-.1-.005-.1v-.211l.011-.099.016-.095.022-.095.027-.095.033-.085.044-.086.027-.05.032-.06.038-.05.033-.045.033-.04.043-.035.038-.036.043-.03.032-.025.044-.025.039-.026.043-.01.038-.014.049-.01.032-.01.044-.005.103.02.092.02.076.02.081.035.038.03.039.04.027.04.033.041.027.05.021.05.022.055.017.055.027.075.022.084.022.101v.115l.005.12v.135l-.005.141-.022.145-.022.19-.022.174-.016.16-.011.146v.271l.005.11.017.11.027.121.033.11.027.11.033.09.038.085.033.075.038.064.044.056.055.081.059.069.071.069.075.06.082.045.087.051.092.039.103.03.087.02.076.015.081.015.082.01.075.005.087.01h.261l.087-.015h.086l.098-.014.092-.015.087-.015.093-.029.103-.015.119-.035.125-.025.12-.03.12-.014.119-.02.125-.011.12-.014.124-.005.114-.005.12.005.124.005.115.009.119.016.119.015.114.015.115.025.152.03.135.019.136.01h.135l.13-.01.124-.015.12-.034.119-.03.114-.025.125-.031.12-.02.125-.015.13-.01.136-.005.141-.005.135.005.065.005.059.004h.06l.054-.004h.054l.049-.01.049-.01.049-.02.048-.015.043-.019.049-.015.033-.031.049-.025.032-.03.038-.035.038-.035.054-.045.048-.05.049-.06.049-.069.044-.081.043-.085.049-.094.033-.1.011-.115.005-.115v-.109l-.005-.11-.011-.1-.022-.095-.022-.095-.038-.085-.033-.081-.022-.076-.011-.078-.022-.07-.016-.07-.005-.065-.006-.076-.005-.055-.011-.091-.016-.094-.022-.09-.033-.096-.087-.105-.071-.091-.022-.045-.016-.029-.017-.03-.005-.035-.022-.04-.022-.045-.016-.029-.021-.041-.027-.03-.027-.02-.022-.025-.033-.015-.081-.035-.081-.04-.076-.039-.065-.046-.027-.025-.038-.025-.038-.026-.059-.019-.06-.02-.07-.02-.082-.02-.097-.021-.212-.025-.245-.03-.287-.025-.321-.015h-.874l-.19-.01-.179-.005-.173-.02-.163-.015-.108-.014-.103-.015-.109-.01-.098-.005h-.201l-.103.005-.098.005-.098.015-.093.015-.097.02-.093.03-.103.021-.092.04-.093.035zm5.081 12.837l.054-.005.055-.014.059-.021.065-.026.146-.059.168-.09.19-.096.206-.115.234-.14.244-.156.136-.08.114-.08.108-.075.109-.076.092-.08.082-.07.07-.08.076-.081.049-.1.054-.08.027-.03.027-.025.033-.03.033-.021.016-.005.022-.01.021-.005.033-.014.054-.045.065-.045.081-.075.087-.081.093-.105.098-.11.076-.11.07-.11.049-.1.049-.1.032-.085.027-.085.016-.076.005-.075v-.095l.006-.091.01-.074.017-.07.049-.13.043-.12.022-.105.021-.09.006-.086v-.069l-.006-.041-.01-.02-.016-.025-.005-.031-.016-.054-.005-.06-.006-.065v-.045l.006-.06.016-.045.011-.05.026-.045.017-.035.011-.034v-.031l.005-.04-.005-.029-.009-.028-.017-.039-.021-.025-.022-.041-.027-.039-.022-.041-.026-.04-.011-.039-.017-.045-.01-.045-.011-.045v-.06l-.005-.065-.01-.055-.017-.055-.022-.06-.022-.046-.033-.055-.049-.05-.07-.14-.06-.125-.065-.11-.055-.095-.005-.06-.017-.056-.017-.05-.026-.045-.022-.05-.033-.036-.049-.044-.038-.026-.195-.15-.18-.135-.081-.075-.07-.065-.071-.065-.065-.07-.027-.045-.044-.05-.048-.046-.05-.044-.065-.039-.076-.046-.076-.034-.087-.04-.097-.035-.103-.045-.097-.04-.098-.05-.093-.056-.098-.05-.103-.055-.092-.065-.049-.031-.059-.025-.044-.029-.053-.015-.044-.011-.049-.004h-.048l-.044.004h-.125l-.065-.004-.06-.005-.066-.01-.048-.021-.06-.015-.043-.024-.103-.005-.098.005-.081.01-.076.02-.054.021-.066.005h-.06l-.07-.005-.082-.015-.081-.015-.086-.02-.098-.025-.179-.035-.179-.02-.168-.019-.163-.011h-.168l-.087.005-.081.01-.087.015-.093.02-.087.025-.098.02-.087.04-.07.046-.038.02-.027.03-.027.03-.034.022-.022.031-.017.034-.017.029-.021.041-.011.035-.01.034-.005.041v.125l.01.08.022.065.027.06.027.06.049.045.043.045.06.03.016.02-.168.115-.168.11-.173.11-.19.095-.081.05-.076.065-.076.064-.071.07-.103.066-.125.084-.168.105-.195.13-.125.065-.125.075-.119.065-.12.065-.108.064-.103.056-.099.058-.098.06-.114.051-.136.065-.135.09-.158.094-.087.076-.098.07-.103.06-.119.065-.06.02-.07.025-.055.035-.055.031-.054.024-.049.041-.038.036-.05.04-.065.05-.093.056-.114.055-.13.06-.146.06-.174.06-.184.07-.207.065-.174.035-.152.03-.059.026-.06.019-.055.026-.043.014-.076.046-.087.034-.104.03-.114.03-.141.026-.141.025-.169.02-.168.015-.104.01-.091.015-.093.026-.093.025-.087.034-.082.045-.07.06-.071.055-.076.07-.06.07-.049.065-.038.066-.027.06-.011.06-.005.036v.049l.005.036.022.08.027.08.038.069.043.07.049.065.06.055.06.05.076.05.06.031.06.034.076.021.082.01.081.01.093.01H28l.113-.005.081-.01.087-.01.098-.02.092-.029.087-.031.087-.034.082-.051.098-.055.076-.045.07-.039.066-.035.064-.026.049-.02.054-.015.038-.005h.044l.06-.005.081-.01.092-.025.109-.03.114-.035.125-.05.146-.05.147-.065.222-.09.19-.085.158-.076.13-.065.06-.06.06-.05.06-.045.053-.045.065-.039.049-.025.06-.035.049-.02.082-.025.087-.035.081-.03.071-.03.059-.041.066-.039.043-.041.055-.045.038-.046.049-.039.043-.04.049-.04.049-.035.049-.026.054-.035.054-.026.07-.029.071-.045.06-.04.065-.05.13-.1.13-.11.087-.075.082-.065.086-.055.087-.04.135-.081.157-.104.169-.121.179-.144.043-.045.049-.055.044-.046.054-.039.05-.04.054-.04.054-.03.065-.035.152-.105.163-.121.173-.115.168-.135.065-.075.066-.07.081-.065.087-.055.076-.055.077-.045.06-.056.054-.045.049-.06.038-.055.033-.05.027-.065h.032l.043.01.049.005h.119l.054-.005.076-.01.07-.014.076-.01.049-.021.054-.01.071-.005h.07l.076.005.087.01.098.011.109.02h.054l.054.01.049.004.043.015.011.025.022.035.027.039.027.045.06.12.048.135.06.146.049.155.022.065.015.06.022.06.022.034.016.041.028.024.022.021.027.005.055-.005.065-.01.071-.015.081-.014.082-.011.092-.01.114-.026.119-.014.065-.01.082-.005.098-.01.108-.005.033.011.044.01.038.014.039.02.114.105.103.106.098.105.087.115.081.115.07.11.055.125.054.125.016.035.011.039.022.046.011.05.016.1.005.11v.125l-.016.134-.016.151-.033.16-.054.156-.054.146-.06.125-.06.12-.065.111-.07.094-.071.09-.07.075-.066.06-.064.081-.076.086-.071.094-.103.121-.103.1-.097.094-.098.091-.098.07-.093.065-.092.05-.092.04-.038.005-.038.01-.027.014-.033.015-.027.02-.022.02-.033.031-.021.035-.027.02-.038.025-.038.019-.049.031-.098.04-.114.05-.146.04-.153.045-.173.03-.2.045-.146.036-.142.024-.136.02-.124.011-.115.005-.103-.005-.093-.011-.087-.02-.06-.005-.065-.014-.049-.015-.065-.025-.103-.075-.098-.075-.098-.06-.087-.045-.092-.045-.087-.031-.081-.015-.076-.015h-.082l-.027.01-.044.01-.033.005-.027.011-.033.015-.033.02-.027.03-.038.029-.022.04-.022.04-.022.05-.005.05v.124l.005.066.017.06.016.06.022.065.027.066.033.055.038.065.049.06.043.051.044.06.021.06.022.06.005.04.01.045.022.031.021.034.017.04.027.03.038.039.033.026.07.084.06.081.048.084.033.086.038.04.032.03.05.029.049.03.065.02.071.02.075.024.087.01.092.015.103.02.119.035.141.041.054.009.066.005.076-.005.076-.009.081-.02.092-.021.093-.035.103-.035.206-.07.196-.065.184-.051zm-5.314-2.213l-.081.056-.098.055-.119.065-.142.066-.163.065-.185.075-.211.08-.223.08-.098.015-.092.014-.087.02-.076.03-.077.025-.07.02-.055.03-.06.036-.082.039-.097.045-.114.036-.125.045-.141.03-.163.035-.174.025-.184.026-.109.01-.114.02-.103.02-.092.035-.093.04-.087.05-.087.055-.082.075-.076.075-.054.07-.06.076-.033.075-.033.065-.016.07-.005.04v.025l.005.04v.035l.038.09.027.085.049.08.043.076.06.065.06.065.076.055.076.055.065.024.07.031.087.02.087.015.092.009.103.005.109-.005.114-.009.092-.005.093-.014.098-.031.092-.029.103-.03.097-.05.103-.045.098-.065.087-.055.081-.04.076-.045.06-.031.065-.025.055-.014.049-.01h.038l.082-.005.087-.02.098-.029.117-.039.119-.05.147-.05.158-.065.168-.075.239-.101.211-.094.087-.045.07-.04.071-.046.06-.039.07-.06.06-.06.07-.045.065-.05.065-.041.055-.035.059-.03.065-.03.104-.041.092-.035.087-.039.076-.045.076-.036.054-.045.055-.03.049-.045.049-.045.038-.055.054-.04.043-.051.055-.035.054-.05.055-.034.06-.036.016-.015.022-.004.005-.005.022-.005.022-.005h.032l.103-.005.092-.009.076-.015.07-.005.071-.005h.152l.06.005.017-.02.022-.06.016-.085.033-.115.011-.094.027-.09.021-.08.038-.085.082-.035.081-.045.092-.05.087-.065.092-.06.087-.07.097-.081.093-.084.049-.06.043-.055.054-.055.055-.05.054-.05.06-.035.07-.034.06-.041.163-.115.18-.135.179-.146.19-.141.044-.055.033-.045.049-.045.033-.039.049-.036.043-.035.043-.034.049-.031.087-.05.076-.06.07-.055.06-.065.048-.07.043-.07.033-.075.017-.075v-.08l-.006-.035-.005-.04-.01-.025-.016-.035-.022-.036-.022-.019-.022-.026-.027-.029-.038-.02-.033-.015-.038-.02-.038-.021-.044-.015-.049-.01-.065-.015h-.07l-.067.003-.071.015-.081.03-.076.029-.081.04-.081.056-.109.085-.103.081-.114.08-.115.079-.108.075-.114.075-.124.075-.115.065-.043.03-.054.026-.038.04-.044.035-.038.039-.038.04-.032.041-.027.05-.124.064-.152.095-.179.12-.212.14-.147.09-.124.081-.131.08-.125.07-.119.07-.109.07-.114.06-.098.05-.114.07-.141.08-.147.091-.168.115-.06.039-.043.05-.06.035-.06.045-.053.035-.06.035-.065.03-.06.03-.065.031-.065.03-.065.041-.05.029-.06.04-.043.041-.054.039z"/></g><g id="g107" opacity=".6"><path id="path85" d="M10.749 31.968l-.604 1.782h-.374l-.403-1.25a.785.785 0 0 1-.033-.171h-.007a.687.687 0 0 1-.042.167L8.85 33.75h-.363l-.608-1.782h.374l.405 1.321c.012.04.021.094.027.163H8.7a.696.696 0 0 1 .035-.168l.436-1.316h.331l.425 1.323a.851.851 0 0 1 .029.164h.017a.634.634 0 0 1 .033-.164l.396-1.323z"/><path id="path87" d="M14.691 31.968l-.604 1.782h-.373l-.404-1.25a.785.785 0 0 1-.033-.171h-.007a.687.687 0 0 1-.042.167l-.436 1.254h-.362l-.608-1.782h.374l.405 1.321c.012.04.021.094.027.163h.015a.696.696 0 0 1 .035-.168l.436-1.316h.331l.425 1.323a.851.851 0 0 1 .029.164h.017a.634.634 0 0 1 .033-.164l.396-1.323z"/><path id="path89" d="M18.633 31.968l-.604 1.782h-.373l-.403-1.25a.785.785 0 0 1-.033-.171h-.007a.687.687 0 0 1-.042.167l-.436 1.254h-.362l-.608-1.782h.374l.405 1.321c.012.04.021.094.027.163h.015a.696.696 0 0 1 .035-.168l.436-1.316h.331l.425 1.323a.851.851 0 0 1 .029.164h.017a.634.634 0 0 1 .033-.164l.396-1.323z"/><path id="path91" d="M19.631 33.584c0-.058.022-.106.068-.146a.244.244 0 0 1 .168-.06c.068 0 .125.02.17.061a.19.19 0 0 1 0 .291.251.251 0 0 1-.172.061.24.24 0 0 1-.167-.061.193.193 0 0 1-.067-.146z"/><path id="path93" d="M21.896 33.75v-2.135a1.287 1.287 0 0 1-.285.166 1.852 1.852 0 0 1-.371.129v-.31a2.53 2.53 0 0 0 .481-.175c.17-.08.302-.155.394-.227h.135v2.551h-.354z"/><path id="path95" d="M25.549 31.574a1.125 1.125 0 0 0-.463-.1.714.714 0 0 0-.591.282c-.149.188-.225.444-.228.771h.009c.134-.229.349-.344.643-.344.245 0 .441.07.587.211.146.141.22.328.22.562a.786.786 0 0 1-.253.601.909.909 0 0 1-.647.235c-.288 0-.514-.1-.678-.298-.164-.197-.247-.479-.247-.843 0-.44.108-.791.323-1.05.216-.26.499-.39.851-.39.202 0 .359.024.475.072v.291zm-1.26 1.359c0 .165.049.306.149.423.1.117.232.176.396.176a.508.508 0 0 0 .527-.542c0-.172-.046-.306-.138-.401a.522.522 0 0 0-.392-.145.54.54 0 0 0-.392.146.462.462 0 0 0-.15.343z"/><path id="path97" d="M26.948 33.333c.194.132.413.198.657.198.195 0 .35-.043.464-.127a.4.4 0 0 0 .171-.339c0-.316-.257-.474-.771-.474h-.236v-.261h.225c.456 0 .683-.147.683-.444 0-.274-.174-.411-.522-.411a.992.992 0 0 0-.562.178v-.299c.186-.094.402-.142.65-.142.242 0 .436.056.583.167.147.111.22.256.22.433 0 .326-.189.536-.568.63v.007c.205.02.367.083.486.19a.524.524 0 0 1 .179.404.646.646 0 0 1-.276.543c-.184.138-.428.206-.733.206-.269 0-.485-.044-.65-.132z"/><path id="path99" d="M29.898 33.584c0-.058.022-.106.068-.146a.244.244 0 0 1 .168-.06c.068 0 .125.02.17.061a.19.19 0 0 1 0 .291.251.251 0 0 1-.172.061.24.24 0 0 1-.167-.061.196.196 0 0 1-.067-.146z"/><path id="path101" d="M33.098 33.669a1.184 1.184 0 0 1-.56.123c-.293 0-.529-.083-.707-.248a.84.84 0 0 1-.267-.644c0-.292.096-.527.288-.706.192-.179.45-.269.772-.269.186 0 .344.029.476.087v.313a.863.863 0 0 0-.476-.139.69.69 0 0 0-.501.188.668.668 0 0 0-.193.5c0 .205.061.366.182.481.122.116.285.175.492.175a.89.89 0 0 0 .494-.152z"/><path id="path103" d="M34.266 32.878c0-.294.093-.526.28-.696.187-.171.44-.256.76-.256.304 0 .542.082.715.246.173.164.259.39.259.679 0 .282-.092.509-.276.682-.185.173-.432.26-.742.26-.303 0-.544-.084-.725-.252a.862.862 0 0 1-.271-.663zm.366-.01c0 .206.059.367.177.485a.642.642 0 0 0 .475.178c.205 0 .361-.059.469-.174.108-.115.161-.281.161-.497 0-.217-.054-.384-.161-.499-.107-.116-.264-.175-.469-.175a.632.632 0 0 0-.477.183c-.117.121-.175.288-.175.499z"/><path id="path105" d="M40.542 33.75h-.359v-1.023c0-.193-.034-.331-.103-.415-.068-.083-.181-.125-.337-.125a.432.432 0 0 0-.338.163.568.568 0 0 0-.141.385v1.016h-.359v-1.056c0-.338-.148-.508-.445-.508a.429.429 0 0 0-.339.155.577.577 0 0 0-.135.395v1.014h-.359v-1.782h.359v.282h.007c.144-.216.354-.324.632-.324.136 0 .255.033.359.099a.508.508 0 0 1 .216.266c.15-.242.375-.364.674-.364.445 0 .668.242.668.726z"/></g></g></svg>