<svg xmlns:osb="http://www.openswatchbook.org/uri/2009/osb" xmlns="http://www.w3.org/2000/svg" xmlns:xlink="http://www.w3.org/1999/xlink" width="48" height="48" version="1.1" id="svg38"><defs id="defs22"><linearGradient id="linearGradient4488"><stop id="stop4490" offset="0" stop-color="#000" stop-opacity=".047"/><stop id="stop4492" offset="1" stop-color="#000" stop-opacity="0"/></linearGradient><style id="style4511"/><style id="style4511-26"/><style id="style4511-9"/><style id="style4552"/><style id="style4511-2"/><linearGradient xlink:href="#linearGradient4488" id="linearGradient4540" gradientUnits="userSpaceOnUse" gradientTransform="matrix(.30902 0 0 .30744 -64.017 1.985)" x1="288.112" y1="141.785" x2="287.575" y2="79.008"/><linearGradient osb:paint="solid" id="linearGradient5293"><stop id="stop5295" offset="0" stop-color="#9a89c0" stop-opacity="1"/></linearGradient><linearGradient id="linearGradient3764-6" x1="1" x2="47" gradientUnits="userSpaceOnUse" gradientTransform="rotate(-90 24 24)"><stop stop-color="#d1d1d1" stop-opacity="1" id="stop2-7-6"/><stop offset="1" stop-color="#dbdbdb" stop-opacity="1" id="stop4-5-2"/></linearGradient><linearGradient xlink:href="#linearGradient3764-6" id="linearGradient1379" x1="2.581" y1="23.586" x2="45.552" y2="23.586" gradientUnits="userSpaceOnUse" gradientTransform="matrix(1 0 0 1.01198 -.288 -.033)"/></defs><style id="style4485" type="text/css"/><path id="path4516" d="M2.75 26.502v1.688c0 9.69 5.68 17.49 17.44 17.49h7.05c15.392 0 18.143-11.459 18.143-17.49v-1.688c0 6.03-2.75 17.49-18.143 17.49h-7.05c-11.76 0-17.44-7.801-17.44-17.49z" opacity="1" fill="url(#linearGradient4540)" fill-opacity="1" stroke="none" stroke-width="1.116" stroke-linecap="square" stroke-linejoin="bevel" stroke-miterlimit="4" stroke-dasharray="none" stroke-dashoffset="0" stroke-opacity=".078"/><path id="path4518" d="M19.361 2.742h8.641c14.147 0 17.093 11.382 17.093 17.49v7.208c0 6.031-2.75 17.49-18.143 17.49h-7.049c-11.761 0-17.44-7.8-17.44-17.49v-7.208c0-9.69 5.563-17.49 16.898-17.49z" opacity="1" fill="url(#linearGradient1379)" fill-opacity="1" stroke="#000" stroke-width=".339" stroke-linecap="square" stroke-linejoin="bevel" stroke-miterlimit="4" stroke-dasharray="none" stroke-dashoffset="0" stroke-opacity=".078"/><g id="g1435" transform="matrix(1 0 0 1.01198 0 -.033)"><ellipse ry="16.532" rx="16.568" id="circle585" cy="23.586" cx="24.066" fill="#5b6362" stroke-width=".974"/><path d="M28.94 23.78l-2.535 4.182 12.573.097c.39-1.458.682-2.917.682-4.57 0-4.182-1.657-7.877-4.288-10.697l-3.704 6.223z" id="path587" fill="#e69cd9" fill-opacity="1" stroke-width=".974"/><path d="M26.405 27.962h-5.262l6.042 10.794c5.458-1.167 9.94-5.154 11.695-10.308 0-.097.098-.291.098-.389z" id="path589" fill="#999adf" fill-opacity="1" stroke-width=".974"/><path d="M9.155 18.724h16.958l-5.75-10.308C15.1 9.68 10.813 13.57 9.155 18.724z" id="path591" fill="#d92972" fill-opacity="1" stroke-width=".974"/><path d="M9.155 18.918c-.487 1.07-.682 3.015-.682 4.668 0 3.987 1.56 7.682 3.996 10.405l9.064-15.073z" id="path593" fill="#9cdbe1" fill-opacity="1" stroke-width=".974"/><path d="M18.609 23.489L12.37 33.894a15.547 15.547 0 0 0 11.695 5.251c1.072 0 2.047-.097 3.12-.291z" id="path595" fill="#5bddef" fill-opacity="1" stroke-width=".974"/><path d="M28.94 23.78l6.432-10.891c-2.827-3.015-6.92-4.862-11.306-4.862-1.169 0-2.533.194-3.606.486z" id="path597" fill="#f552a0" fill-opacity="1" stroke-width=".974"/><ellipse transform="rotate(-28.804) skewX(.106)" cx="10.113" cy="26.836" rx="8.572" ry="5.546" id="ellipse599" opacity=".3" fill="#fff" stroke-width=".973"/><ellipse transform="rotate(-42.153) skewX(.124)" cx="2.05" cy="27.014" rx="3.31" ry="2.141" id="ellipse601" fill="#fff" stroke-width=".973"/></g></svg>