<svg xmlns="http://www.w3.org/2000/svg" xmlns:xlink="http://www.w3.org/1999/xlink" width="48" height="48" version="1.1" id="svg38"><defs id="defs22"><linearGradient id="linearGradient4488"><stop id="stop4490" offset="0" stop-color="#000" stop-opacity=".047"/><stop id="stop4492" offset="1" stop-color="#000" stop-opacity="0"/></linearGradient><style id="style4511"/><style id="style4511-26"/><style id="style4511-9"/><style id="style4552"/><style id="style4511-2"/><linearGradient xlink:href="#linearGradient4488" id="linearGradient4546" gradientUnits="userSpaceOnUse" gradientTransform="translate(-62.497 2.425) scale(.3038)" x1="288.112" y1="141.785" x2="287.575" y2="79.008"/><linearGradient xlink:href="#linear0" id="linearGradient1474" x1="2.974" y1="23.586" x2="45.221" y2="23.586" gradientUnits="userSpaceOnUse" gradientTransform="translate(0 .431)"/><linearGradient gradientTransform="translate(0 -1006.362)" y2="1039.36" x2="0" y1="1009.36" gradientUnits="userSpaceOnUse" id="linear0"><stop id="stop426" stop-opacity="1" stop-color="#f45b45"/><stop id="stop428" stop-opacity="1" stop-color="#db3d28" offset=".5"/><stop id="stop430" stop-opacity="1" stop-color="#f45b45" offset="1"/></linearGradient><linearGradient xlink:href="#linear0" id="linearGradient526" gradientUnits="userSpaceOnUse" gradientTransform="translate(.353 -1006.838)" y1="1009.36" x2="0" y2="1039.36"/><linearGradient xlink:href="#linear0" id="linearGradient528" gradientUnits="userSpaceOnUse" gradientTransform="translate(.533 -1004.393)" y1="1009.36" x2="0" y2="1039.36"/></defs><style id="style4485" type="text/css"/><g id="g1370"><path id="path4528" d="M3.141 26.652v1.669c0 9.574 5.583 17.282 17.146 17.282h6.93c15.133 0 17.837-11.323 17.837-17.282v-1.669c0 5.96-2.704 17.282-17.837 17.282h-6.93c-11.563 0-17.146-7.708-17.146-17.282z" opacity="1" fill="url(#linearGradient4546)" fill-opacity="1" stroke="none" stroke-width="1.1" stroke-linecap="square" stroke-linejoin="bevel" stroke-miterlimit="4" stroke-dasharray="none" stroke-dashoffset="0" stroke-opacity=".078"/><path id="path4530" d="M19.754 3.174h8.495c13.908 0 16.805 11.247 16.805 17.282v7.123c0 5.96-2.704 17.282-17.837 17.282h-6.93c-11.562 0-17.146-7.708-17.146-17.282v-7.123c0-9.574 5.47-17.282 16.613-17.282z" opacity="1" fill="url(#linearGradient1474)" fill-opacity="1" stroke="#000" stroke-width=".334" stroke-linecap="square" stroke-linejoin="bevel" stroke-miterlimit="4" stroke-dasharray="none" stroke-dashoffset="0" stroke-opacity=".078"/><path d="M20.48 6.568h7.176c11.748 0 14.195 9.42 14.195 14.475v5.966c0 4.992-2.284 14.475-15.067 14.475H20.93c-9.768 0-14.484-6.456-14.484-14.475v-5.966c0-8.02 4.62-14.475 14.033-14.475z" id="path4461" opacity="1" fill="#ececec" fill-opacity="1" stroke="none" stroke-width=".29" stroke-linecap="square" stroke-linejoin="bevel" stroke-miterlimit="4" stroke-dasharray="none" stroke-dashoffset="0" stroke-opacity=".078"/><path d="M16.353 3.524v29h.055l7.945-7.813 7.945 7.813h.055v-29m-8 7l2 4h5l-4 4 2 5-5-3.5-5 3.5 2-5-4-4h5" id="path469" fill="url(#linearGradient526)" fill-rule="nonzero" stroke="none"/><path d="M16.533 22.97v12h.063l7.938-7.814 7.938 7.813h.066v-12h-4.191l1.19 3-4.28-3h-1.441l-4.27 3 1.188-3m-4.191 0" id="path471" fill="url(#linearGradient528)" fill-rule="nonzero" stroke="none"/></g></svg>