<svg xmlns="http://www.w3.org/2000/svg" width="48" height="48" version="1.1" id="svg38"><defs id="defs22"><style id="style4511"/><style id="style4511-26"/><style id="style4511-9"/><style id="style4552"/><style id="style4511-2"/></defs><style id="style4485" type="text/css"/><path d="M19.677 3.253h8.618c14.108 0 17.047 11.413 17.047 17.537v7.229c0 6.047-2.744 17.537-18.094 17.537h-7.03c-11.73 0-17.394-7.822-17.394-17.537V20.79c0-9.715 5.549-17.537 16.853-17.537z" id="rect4144" opacity="1" fill="#436a88" fill-opacity="1" stroke="#000" stroke-width=".339" stroke-linecap="square" stroke-linejoin="bevel" stroke-miterlimit="4" stroke-dasharray="none" stroke-dashoffset="0" stroke-opacity=".078"/><path d="M24.016 9.783c-3.663 0-6.632 3.264-6.632 7.292.002.81.127 1.616.37 2.382 2.831.2 5.433 1.382 6.33 3.318.833-1.932 3.414-3.06 6.191-3.309a7.95 7.95 0 0 0 .374-2.391c0-4.028-2.97-7.293-6.633-7.292zM18.586 22.3c-3.26 0-5.903 2.47-5.905 5.517 0 3.05 2.644 5.521 5.905 5.521.14 0 .28-.01.42-.019a6.025 6.025 0 0 0-.01.186c0 3.049 2.247 5.52 5.02 5.52 2.773 0 5.021-2.471 5.02-5.52a6.04 6.04 0 0 0-.006-.195c.183.018.366.027.55.028 3.26 0 5.905-2.471 5.904-5.52-.001-3.048-2.645-5.518-5.904-5.518-2.43 0-4.612 1.396-5.496 3.512-.884-2.117-3.067-3.512-5.498-3.512z" id="ellipse4187" opacity="1" fill="#fff" fill-opacity="1" stroke="none" stroke-width=".483" stroke-linecap="round" stroke-linejoin="round" stroke-opacity="1"/></svg>