<svg xmlns:osb="http://www.openswatchbook.org/uri/2009/osb" xmlns="http://www.w3.org/2000/svg" xmlns:xlink="http://www.w3.org/1999/xlink" width="48" height="48" version="1.1" id="svg38"><defs id="defs22"><linearGradient id="linearGradient4488"><stop id="stop4490" offset="0" stop-color="#000" stop-opacity=".047"/><stop id="stop4492" offset="1" stop-color="#000" stop-opacity="0"/></linearGradient><style id="style4511"/><style id="style4511-26"/><style id="style4511-9"/><style id="style4552"/><style id="style4511-2"/><linearGradient xlink:href="#linearGradient4488" id="linearGradient4540" gradientUnits="userSpaceOnUse" gradientTransform="matrix(.3074 0 0 .30379 -63.667 1.994)" x1="288.112" y1="141.785" x2="287.575" y2="79.008"/><linearGradient osb:paint="solid" id="linearGradient5293"><stop id="stop5295" offset="0" stop-color="#9a89c0" stop-opacity="1"/></linearGradient><style id="style2" type="text/css"><![CDATA[.fil5{fill:none}.fil1{fill:#196FBA}.fil0{fill:#25B2EE}.fil4{fill:#793C7C}.fil3{fill:#8C508C}.fil2{fill:white}]]></style><linearGradient gradientTransform="rotate(-90 -3.458 49.325)" gradientUnits="userSpaceOnUse" x2="47" x1="1" id="linearGradient3764-367535629"><stop id="stop2-12" stop-opacity="1" stop-color="#9b1815"/><stop id="stop4-70" stop-opacity="1" stop-color="#ac1917" offset="1"/></linearGradient><linearGradient xlink:href="#linearGradient3764-367535629" id="linearGradient1408" x1="2.583" y1="23.586" x2="45.329" y2="23.586" gradientUnits="userSpaceOnUse"/></defs><style id="style4485" type="text/css"/><path id="path4516" d="M2.751 26.22v1.669c0 9.574 5.65 17.282 17.35 17.282h7.012c15.312 0 18.048-11.323 18.048-17.282V26.22c0 5.96-2.736 17.282-18.048 17.282H20.1c-11.7 0-17.349-7.708-17.349-17.282z" opacity="1" fill="url(#linearGradient4540)" fill-opacity="1" stroke="none" stroke-width="1.106" stroke-linecap="square" stroke-linejoin="bevel" stroke-miterlimit="4" stroke-dasharray="none" stroke-dashoffset="0" stroke-opacity=".078"/><path id="path4518" d="M19.561 2.743h8.596c14.073 0 17.004 11.247 17.004 17.282v7.122c0 5.96-2.736 17.282-18.048 17.282H20.1c-11.7 0-17.35-7.708-17.35-17.282v-7.122c0-9.574 5.535-17.282 16.81-17.282z" opacity="1" fill="url(#linearGradient1408)" fill-opacity="1" stroke="#000" stroke-width=".336" stroke-linecap="square" stroke-linejoin="bevel" stroke-miterlimit="4" stroke-dasharray="none" stroke-dashoffset="0" stroke-opacity=".078"/><g id="g1399" transform="translate(52.15 .177)" fill-opacity="1" stroke="none" stroke-opacity="1"><path id="path4824" d="M-29.698 10.504a12.136 12.136 0 0 0-1.476.012c-4.003.268-9.631 2.232-12.915 7.587-.44.489-.5 1.21-.148 1.766 2.668 4.191 6.555 6.92 10.838 7.702 4.195.765 9.432-.483 13.666-4.599l-1.76-2.346c-2.766 3.097-8.01 4.679-11.38 4.065-3.084-.563-5.958-2.462-8.178-5.47 2.974-4.181 7.228-5.591 10.072-5.782 3.059-.205 5.735 1.09 8.06 3.058 4.653 3.934 6.82 9.574 6.82 9.574.76 1.799 3.458.658 2.698-1.14 0 0-2.23-6.107-7.626-10.67-2.36-1.997-5.293-3.574-8.671-3.756zm15.517.032a1.465 1.465 0 0 0-1.307.953c-.31.801-1.445 2.79-2.052 3.966l1.968 2.515c.765-1.457 2.094-3.611 2.816-5.425a1.464 1.464 0 0 0-1.425-2.01z" style="line-height:normal;text-indent:0;text-align:start;text-decoration-line:none;text-decoration-style:solid;text-decoration-color:#000;text-transform:none;white-space:normal;isolation:auto;mix-blend-mode:normal;solid-color:#000;solid-opacity:1" color="#000" font-style="normal" font-variant="normal" font-weight="400" font-stretch="normal" font-size="medium" font-family="sans-serif" text-decoration="none" letter-spacing="normal" word-spacing="normal" writing-mode="lr-tb" direction="ltr" baseline-shift="baseline" text-anchor="start" clip-rule="nonzero" display="inline" overflow="visible" visibility="visible" opacity="1" color-interpolation="sRGB" color-interpolation-filters="linearRGB" fill="#fff" fill-rule="evenodd" stroke-width="3.054" stroke-linecap="round" stroke-linejoin="round" stroke-miterlimit="4" stroke-dasharray="none" stroke-dashoffset="0" color-rendering="auto" image-rendering="auto" shape-rendering="auto" text-rendering="auto"/><text id="text4826" y="20.918" x="-36.401" style="line-height:0%" xml:space="preserve" font-style="normal" font-weight="400" font-family="sans-serif" letter-spacing="0" word-spacing="0" fill="#fff" stroke-width="1" stroke-linecap="butt" stroke-linejoin="miter"><tspan y="20.918" x="-36.401" id="tspan4828" style="line-height:1.25" font-size="4.427">BIBLE</tspan></text><g transform="rotate(26.2 -17.705 49.082)" id="g128" stroke-width="1" stroke-linecap="butt" stroke-linejoin="miter"><path d="M-40.762 41.202c.817 0 9.088.02 11.993.027 0 0 1.005-.01 1-.997l-.008-12.001z" id="path4895" fill="#5e0912" fill-rule="evenodd"/><text xml:space="preserve" style="line-height:0%" x="-52.048" y="5.466" id="text4826-6" transform="rotate(-45)" font-style="normal" font-weight="400" font-family="sans-serif" letter-spacing="0" word-spacing="0" fill="#fff"><tspan style="line-height:1.25" id="tspan4828-0" x="-52.048" y="5.466" font-size="4.886">HD</tspan></text></g></g></svg>