<svg xmlns="http://www.w3.org/2000/svg" xmlns:xlink="http://www.w3.org/1999/xlink" width="48" height="48" version="1.1" id="svg38"><defs id="defs22"><linearGradient id="linearGradient4488"><stop id="stop4490" offset="0" stop-color="#000" stop-opacity=".047"/><stop id="stop4492" offset="1" stop-color="#000" stop-opacity="0"/></linearGradient><style id="style4511"/><style id="style4511-26"/><style id="style4511-9"/><style id="style4552"/><style id="style4511-2"/><linearGradient gradientTransform="matrix(.3082 0 0 .3038 -64.056 2.216)" xlink:href="#linearGradient4488" id="linearGradient4160" x1="288.112" y1="141.785" x2="287.575" y2="79.008" gradientUnits="userSpaceOnUse"/></defs><style id="style4485" type="text/css"/><path d="M2.535 26.443v1.668c0 9.575 5.664 17.282 17.394 17.282h7.031c15.352 0 18.095-11.322 18.095-17.282v-1.668c0 5.96-2.743 17.282-18.095 17.282h-7.03c-11.73 0-17.395-7.708-17.395-17.282z" id="path4147" opacity="1" fill="url(#linearGradient4160)" fill-opacity="1" stroke="none" stroke-width="1.108" stroke-linecap="square" stroke-linejoin="bevel" stroke-miterlimit="4" stroke-dasharray="none" stroke-dashoffset="0" stroke-opacity=".078"/><path d="M19.389 2.965h8.618c14.11 0 17.048 11.246 17.048 17.282v7.123c0 5.96-2.743 17.282-18.095 17.282h-7.03c-11.73 0-17.395-7.708-17.395-17.282v-7.123c0-9.575 5.55-17.282 16.854-17.282z" id="rect4144" opacity="1" fill="#2582bb" fill-opacity="1" stroke="#000" stroke-width=".337" stroke-linecap="square" stroke-linejoin="bevel" stroke-miterlimit="4" stroke-dasharray="none" stroke-dashoffset="0" stroke-opacity=".078"/><g id="g1186" transform="matrix(.9703 0 0 1.0876 .556 -.935)" fill="#fff"><path d="M32.3 16.8c-.4 0-.8 0-1.1.1-1.1-2.4-3.6-4-6.6-4-3.1 0-5.7 1.8-6.7 4.3l2.3.8c.7-1.4 2.1-2.2 4-2.2 1.6 0 3.6.8 4.2 1.9.6 1 .5 2.1.5 2.1s7.7-.8 8 4c.1 1.4-.6 2.5-1.7 3.3-1.3.9-3.4 1-6.1-1.5 0 0-5.7-5.1-9.3-6.7-1.6-.7-2.8-1-4.3-1-4.7 0-8.5 3.3-8.5 7.3 0 1.1.3 2.2.8 3.1v-.1c0-2.8 2.6-5.2 5.9-5.2 1.2 0 2.3.3 3.3.9.7.4 1.8 1.1 3 1.8l7 5c.1.1.2.1.3.2l.2.1c1.4.9 3 1.4 4.8 1.4 4.7 0 8.6-3.5 8.6-7.8s-3.9-7.8-8.6-7.8z" id="path1182"/><path d="M18.8 29.1c-.8.3-1.8.6-2.8.6-2.6 0-4.9-2-4.8-4.4.1-1.3-2-.8-2.1 2.3-.1 2.8 2.9 5 6.5 5 2.9 0 5.3-1.4 6.2-3.4.4-1.1-.3-1.5-3-.1z" id="path1184"/></g></svg>