<svg xmlns:osb="http://www.openswatchbook.org/uri/2009/osb" xmlns="http://www.w3.org/2000/svg" xmlns:xlink="http://www.w3.org/1999/xlink" width="48" height="48" version="1.1" id="svg38"><defs id="defs22"><linearGradient id="linearGradient4488"><stop id="stop4490" offset="0" stop-color="#000" stop-opacity=".047"/><stop id="stop4492" offset="1" stop-color="#000" stop-opacity="0"/></linearGradient><style id="style4511"/><style id="style4511-26"/><style id="style4511-9"/><style id="style4552"/><style id="style4511-2"/><linearGradient xlink:href="#linearGradient4488" id="linearGradient4540" gradientUnits="userSpaceOnUse" gradientTransform="matrix(.31001 0 0 .3079 -64.228 1.986)" x1="288.112" y1="141.785" x2="287.575" y2="79.008"/><linearGradient osb:paint="solid" id="linearGradient5293"><stop id="stop5295" offset="0" stop-color="#9a89c0" stop-opacity="1"/></linearGradient></defs><style id="style4485" type="text/css"/><path id="path4516" d="M2.753 26.54v1.69c0 9.704 5.697 17.516 17.496 17.516h7.072c15.442 0 18.201-11.475 18.201-17.515V26.54c0 6.04-2.759 17.515-18.2 17.515h-7.073c-11.799 0-17.496-7.812-17.496-17.515z" opacity="1" fill="url(#linearGradient4540)" fill-opacity="1" stroke="none" stroke-width="1.119" stroke-linecap="square" stroke-linejoin="bevel" stroke-miterlimit="4" stroke-dasharray="none" stroke-dashoffset="0" stroke-opacity=".078"/><path id="path4518" d="M19.706 2.745h8.668c14.192 0 17.148 11.399 17.148 17.515v7.22c0 6.04-2.76 17.515-18.2 17.515h-7.073c-11.799 0-17.496-7.812-17.496-17.516V20.26c0-9.703 5.582-17.515 16.953-17.515z" opacity="1" fill="#f93" fill-opacity="1" stroke="#000" stroke-width=".34" stroke-linecap="square" stroke-linejoin="bevel" stroke-miterlimit="4" stroke-dasharray="none" stroke-dashoffset="0" stroke-opacity=".078"/><g id="g1326" transform="matrix(.8552 0 0 .86014 -43.66 5.529)" fill-opacity="1" fill-rule="evenodd" stroke="none" stroke-linejoin="miter" stroke-opacity="1"><path id="path7678" d="M67.371 35.094l1.386-12.403s-6.29-1.711-4.531-8.18c1.759-6.469 9.436-2.887 9.436-2.887s2.398-4.597 6.183-3.742c3.785.855 5.065 4.01 5.225 5.934.16 1.925 1.492-1.818 1.492-1.818s9.49-3.207 9.81 4.277c.319 7.485-7.41 6.897-7.41 6.897l-1.547 12.136z" fill="#fff" stroke-width="1.165" stroke-linecap="butt"/><path id="path7640" d="M79.114 6.68c-2.526 0-4.889 1.488-6.065 3.637-.942-.419-1.922-.825-2.395-.88a7.118 7.118 0 0 0-.812-.048c-1.953 0-4.294.802-5.899 3.325l-.032.05-.027.055c-.971 1.944-1.233 3.685-.97 5.164.262 1.478 1.033 2.635 1.888 3.473a8.607 8.607 0 0 0 2.9 1.882L66.42 34.347c-.106.886.108 1.794 1.644 1.793l19.063-.011c1.155-.027 1.33-.548 1.397-1.164l1.18-10.432c3.827.094 7.255-2.729 7.701-6.543.465-3.975-2.49-7.47-6.508-7.828a7.625 7.625 0 0 0-5.204 1.468c-.84-2.856-3.472-4.955-6.579-4.955zm0 2.226c2.576 0 4.643 2.076 4.643 4.672a1.265 1.265 0 0 1-.182.627l1.99 1.028c.916-1.745 2.885-2.906 5.057-2.712 2.804.25 4.757 2.614 4.447 5.266-.292 2.499-2.498 4.371-5.097 4.374l.209-1.846s-.054-.946-1.077-.976c-1.023-.03-1.264.976-1.264.976l-.856 7.677-14.896-.04c-1.571-.029-1.585 2.345-.013 2.334l14.643.037-.414 3.456-17.538.027 1.474-12.081-.959-.271s-1.658-.498-2.854-1.669c-.598-.585-1.06-1.293-1.223-2.212-.16-.904-.028-2.077.737-3.64 1.373-2.122 2.951-2.353 4.445-2.18 1.29.148 3.087 1.372 3.78 2.13 0 0 .139-1.083.853-2.53.715-1.446 2.525-2.45 4.095-2.45z" style="line-height:normal;text-indent:0;text-align:start;text-decoration-line:none;text-decoration-style:solid;text-decoration-color:#000;text-transform:none;white-space:normal;isolation:auto;mix-blend-mode:normal;solid-color:#000;solid-opacity:1" color="#000" font-style="normal" font-variant="normal" font-weight="400" font-stretch="normal" font-size="medium" font-family="sans-serif" text-decoration="none" letter-spacing="normal" word-spacing="normal" writing-mode="lr-tb" direction="ltr" baseline-shift="baseline" text-anchor="start" clip-rule="nonzero" display="inline" overflow="visible" visibility="visible" opacity="1" color-interpolation="sRGB" color-interpolation-filters="linearRGB" fill="#351000" stroke-width="2.33" stroke-linecap="round" stroke-miterlimit="4" stroke-dasharray="none" stroke-dashoffset="0" color-rendering="auto" image-rendering="auto" shape-rendering="auto" text-rendering="auto"/></g></svg>