<svg xmlns="http://www.w3.org/2000/svg" xmlns:xlink="http://www.w3.org/1999/xlink" width="48" height="48" version="1.1" id="svg38"><defs id="defs22"><linearGradient id="linearGradient4488"><stop id="stop4490" offset="0" stop-color="#000" stop-opacity=".047"/><stop id="stop4492" offset="1" stop-color="#000" stop-opacity="0"/></linearGradient><style id="style4511"/><style id="style4511-26"/><style id="style4511-9"/><style id="style4552"/><style id="style4511-2"/><linearGradient xlink:href="#linearGradient4488" id="linearGradient4471" gradientUnits="userSpaceOnUse" gradientTransform="translate(-62.47 2.216) scale(.3038)" x1="288.112" y1="141.785" x2="287.575" y2="79.008"/><circle id="SVGID_1_" r="15.999" cy="-31.965" cx="73.957"/><filter id="filter-1" filterUnits="objectBoundingBox" height="200%" width="200%" y="-50%" x="-50%"><feOffset id="feOffset1554" result="shadowOffsetOuter1" in="SourceAlpha" dy="1" dx="0"/><feGaussianBlur id="feGaussianBlur1556" result="shadowBlurOuter1" in="shadowOffsetOuter1" stdDeviation=".5"/><feColorMatrix id="feColorMatrix1558" result="shadowMatrixOuter1" type="matrix" in="shadowBlurOuter1" values="0 0 0 0 0 0 0 0 0 0 0 0 0 0 0 0 0 0 0.21 0"/><feMerge id="feMerge1564"><feMergeNode id="feMergeNode1560" in="shadowMatrixOuter1"/><feMergeNode id="feMergeNode1562" in="SourceGraphic"/></feMerge></filter></defs><style id="style4485" type="text/css"/><g id="g9" transform="translate(-49.354 -2.761)"><g id="g11"><g id="g13"><g id="g15"><g id="g17" opacity=".15"><g id="g19"><clipPath id="SVGID_2_"><use id="use25" x="0" y="0" width="1" height="1" xlink:href="#SVGID_1_" overflow="visible"/></clipPath></g></g></g></g></g></g><path d="M3.168 26.443v1.668c0 9.575 5.583 17.282 17.146 17.282h6.93c15.132 0 17.836-11.322 17.836-17.282v-1.668c0 5.96-2.704 17.282-17.836 17.282h-6.93c-11.563 0-17.146-7.708-17.146-17.282z" id="path4467" opacity="1" fill="url(#linearGradient4471)" fill-opacity="1" stroke="none" stroke-width="1.1" stroke-linecap="square" stroke-linejoin="bevel" stroke-miterlimit="4" stroke-dasharray="none" stroke-dashoffset="0" stroke-opacity=".078"/><path d="M19.781 2.965h8.495c13.908 0 16.805 11.246 16.805 17.282v7.123c0 5.96-2.705 17.282-17.837 17.282h-6.93c-11.563 0-17.146-7.708-17.146-17.282v-7.123c0-9.575 5.47-17.282 16.613-17.282z" id="path4469" opacity="1" fill="#ececec" fill-opacity="1" stroke="#000" stroke-width=".334" stroke-linecap="square" stroke-linejoin="bevel" stroke-miterlimit="4" stroke-dasharray="none" stroke-dashoffset="0" stroke-opacity=".078"/><g id="g1665" transform="matrix(.73996 0 0 .7212 67.037 8.126)" fill-rule="evenodd" stroke="none" stroke-width="1"><path id="Path-19" d="M-73.267 12.927l21.5-3.395 1.131 23.197-10.184 7.921-9.96-7.862c-.436-.345-.828-1.062-.877-1.618z" fill="#ffb210" filter="url(#filter-1)"/><path id="Path-22" d="M-61.386 18.019l20.935-5.092v19.372c0 .55-.426 1.15-.942 1.336L-60.82 40.65z" fill="#fff29d" filter="url(#filter-1)"/><g id="g1652"><path d="M-73.267 12.927l11.881 5.092-6.65 6.65c-.39.39-1.1.497-1.585.242l-8.99-4.732c-.486-.256-.58-.79-.202-1.202z" id="Path-20" fill="#fbf083" filter="url(#filter-1)"/><path d="M-55.699 7.792c-1.108-1.112-3.679-3.742-4.561-5.089-.83-1.75 1.433-2.672 2.21-2.992.777-.321 2.046-.79 2.697-1.601.875 5.1-2.072 4.593-2.697 4.593.162.229.364.507.595.818 1.52 2.05 4.248 5.517 4.248 5.517l-.027-.01c.069.106.13.218.183.336.654 1.47-.29 3.317-2.107 4.127-1.818.81-3.823.274-4.477-1.196-.654-1.47.289-3.317 2.107-4.126a4.254 4.254 0 0 1 1.83-.377z" id="Combined-Shape" fill="#0095d2" filter="url(#filter-1)"/><path d="M-51.767 9.532l11.316 3.395-10.75 15.842z" id="Path-21" fill="#ff9026" filter="url(#filter-1)"/><path d="M-40.451 12.927l2.296 3.675c.294.47.078.851-.467.851h-2.96z" id="Path-23" fill="#ffb20d" filter="url(#filter-1)"/><rect id="Rectangle-14" x="-55.162" y="18.019" width="4.417" height="17.403" rx="21" fill="#ff782c" filter="url(#filter-1)"/><rect id="rect1576" transform="rotate(-138 -9.289 40.278)" x="29.21" y="19.23" width="3.961" height="13.715" rx="21" fill="#ff782c" filter="url(#filter-1)"/><path d="M14.718 9.916c-.844-.846-2.8-2.848-3.471-3.873-.63-1.331 1.09-2.033 1.682-2.277.591-.244 1.556-.601 2.052-1.218.666 3.881-1.577 3.495-2.052 3.495.123.174.277.386.452.622 1.158 1.56 3.233 4.199 3.233 4.199l-.021-.008c.053.08.1.166.14.256.497 1.118-.22 2.524-1.604 3.14-1.383.615-2.908.208-3.406-.91-.498-1.118.22-2.524 1.603-3.14a3.236 3.236 0 0 1 1.392-.286z" id="path1578" transform="rotate(48 -23.39 -82.536)" fill="#0095d2" filter="url(#filter-1)"/><rect id="rect1580" transform="rotate(-59 -10.485 101.178)" x="29.64" y="26.268" width="3.961" height="10.672" rx="21" fill="#ff782c" filter="url(#filter-1)"/></g></g></svg>