<svg xmlns:osb="http://www.openswatchbook.org/uri/2009/osb" xmlns="http://www.w3.org/2000/svg" xmlns:xlink="http://www.w3.org/1999/xlink" width="48" height="48" version="1.1" id="svg38"><defs id="defs22"><linearGradient id="linearGradient4488"><stop id="stop4490" offset="0" stop-color="#000" stop-opacity=".047"/><stop id="stop4492" offset="1" stop-color="#000" stop-opacity="0"/></linearGradient><style id="style4511"/><style id="style4511-26"/><style id="style4511-9"/><style id="style4552"/><style id="style4511-2"/><linearGradient xlink:href="#linearGradient4488" id="linearGradient4540" gradientUnits="userSpaceOnUse" gradientTransform="matrix(.3074 0 0 .30379 -63.667 1.994)" x1="288.112" y1="141.785" x2="287.575" y2="79.008"/><linearGradient osb:paint="solid" id="linearGradient5293"><stop id="stop5295" offset="0" stop-color="#9a89c0" stop-opacity="1"/></linearGradient><style id="style2" type="text/css"><![CDATA[.fil5{fill:none}.fil1{fill:#196FBA}.fil0{fill:#25B2EE}.fil4{fill:#793C7C}.fil3{fill:#8C508C}.fil2{fill:white}]]></style></defs><style id="style4485" type="text/css"/><path id="path4516" d="M2.751 26.22v1.669c0 9.574 5.65 17.282 17.35 17.282h7.012c15.312 0 18.048-11.323 18.048-17.282V26.22c0 5.96-2.736 17.282-18.048 17.282H20.1c-11.7 0-17.349-7.708-17.349-17.282z" opacity="1" fill="url(#linearGradient4540)" fill-opacity="1" stroke="none" stroke-width="1.106" stroke-linecap="square" stroke-linejoin="bevel" stroke-miterlimit="4" stroke-dasharray="none" stroke-dashoffset="0" stroke-opacity=".078"/><path id="path4518" d="M19.561 2.743h8.596c14.073 0 17.004 11.247 17.004 17.282v7.122c0 5.96-2.736 17.282-18.048 17.282H20.1c-11.7 0-17.35-7.708-17.35-17.282v-7.122c0-9.574 5.535-17.282 16.81-17.282z" opacity="1" fill="#128fb4" fill-opacity="1" stroke="#000" stroke-width=".336" stroke-linecap="square" stroke-linejoin="bevel" stroke-miterlimit="4" stroke-dasharray="none" stroke-dashoffset="0" stroke-opacity=".078"/><g id="g959" transform="matrix(1.10607 0 0 1.09428 -92.7 7.955)"><path id="path75" d="M105.47-.716c-8.3 0-15 6.7-15 15s6.7 15 15 15 15-6.7 15-15c0-8.2-6.8-15-15-15zm0 27c-6.6 0-12-5.4-12-12s5.4-12 12-12 12 5.4 12 12c0 6.7-5.4 12-12 12z" fill="#f9f7f3"/><circle id="circle77" r="7" cy="14.284" cx="105.469" fill="#231b1c"/><ellipse id="ellipse79" ry="4" rx="5.7" cy="13.384" cx="105.469" fill="#b2b2b2"/><ellipse id="ellipse81" ry="3.1" rx="4.8" cy="13.384" cx="105.469" fill="#f8f8f8"/><path id="rect83" fill="#f8f8f8" d="M102.469 13.384h6v13h-6z"/><path id="path85" d="M105.47 13.784c-.8 0-1.5-.4-1.8-.9-.2.1-.2.3-.2.5 0 .8.9 1.4 2 1.4s2-.6 2-1.4c0-.2-.1-.3-.1-.5-.4.5-1.1.9-1.9.9z" fill="#868686"/><g transform="translate(81.47 -9.616)" id="g97" fill="#231b1c"><path id="path87" d="M23.1 33.6h-.2v-1.7h.2v.7H25v.2h-1.9z"/><path id="path89" d="M23.1 34.9h-.2v-1.7h.2v.8H25v.2h-1.9z"/><path id="path91" d="M22.9 31.6v-1.1c0-.1.1-.2.1-.2 0-.1.1-.1.2-.2.1 0 .2-.1.3-.1.1 0 .3 0 .4.1.1.1.2.2.2.3v.8h1v.2h-2.2zm.2-.3h.7v-.4c0-.3 0-.4-.1-.5-.1-.1-.2-.1-.3-.1-.2 0-.4.2-.4.6v.4z"/><path id="path93" d="M24 29.9c-.2 0-.4 0-.6-.1-.2-.1-.3-.2-.4-.3-.1-.1-.2-.3-.2-.5s0-.3.1-.5c.1-.1.2-.3.4-.3.2-.1.4-.1.6-.1.2 0 .4 0 .6.1.2.1.3.2.4.3.1.1.1.3.1.5s0 .3-.1.5c-.1.1-.2.3-.4.3-.1.1-.3.1-.5.1zm0-1.7c-.3 0-.5.1-.7.2-.2.1-.3.3-.3.5s.1.4.3.5c.2.1.4.2.7.2.3 0 .5-.1.6-.2.1-.1.3-.3.3-.5s-.1-.4-.3-.5c-.1-.1-.3-.2-.6-.2z"/><path id="path95" d="M25.1 27.8h-2.2v-.4c0-.3 0-.5.1-.7 0-.1.1-.3.2-.4.1-.1.2-.2.4-.2.1-.1.3-.1.4-.1.2 0 .4 0 .6.1.2.1.3.2.4.4.1.1.1.4.1.6zm-.2-.2v-.8c0-.1-.1-.2-.2-.3-.1-.1-.2-.2-.3-.2-.1 0-.2-.1-.4-.1-.1 0-.3 0-.4.1-.1.1-.2.1-.3.2-.1.1-.1.2-.2.3v.8z"/></g></g></svg>