<svg xmlns:osb="http://www.openswatchbook.org/uri/2009/osb" xmlns="http://www.w3.org/2000/svg" xmlns:xlink="http://www.w3.org/1999/xlink" width="48" height="48" version="1.1" id="svg38"><defs id="defs22"><linearGradient id="linearGradient4488"><stop id="stop4490" offset="0" stop-color="#000" stop-opacity=".047"/><stop id="stop4492" offset="1" stop-color="#000" stop-opacity="0"/></linearGradient><style id="style4511"/><style id="style4511-26"/><style id="style4511-9"/><style id="style4552"/><style id="style4511-2"/><linearGradient xlink:href="#linearGradient4488" id="linearGradient4540" gradientUnits="userSpaceOnUse" gradientTransform="rotate(-179.934 55.36 23.231) scale(.3038)" x1="288.112" y1="141.785" x2="287.575" y2="79.008"/><linearGradient osb:paint="solid" id="linearGradient5293"><stop id="stop5295" offset="0" stop-color="#9a89c0" stop-opacity="1"/></linearGradient><style id="style4511-87"/><style id="style4511-26-7"/><style id="style4511-9-1"/><style id="style4552-53"/><style id="style4511-2-9"/><style id="style4511-8"/><style id="style4511-26-4"/><style id="style4511-9-8"/><style id="style4552-5"/><linearGradient id="b-56-7" y1="547.8" y2="536.8" x2="0" gradientUnits="userSpaceOnUse" gradientTransform="matrix(1 0 0 .54545 0 244)"><stop stop-color="#c6cdd1" id="stop7-2-6"/><stop offset="1" stop-color="#e0e5e7" id="stop9-91-4"/></linearGradient><style id="style4511-2-5"/><linearGradient gradientTransform="rotate(-90 2.287 55.602)" gradientUnits="userSpaceOnUse" x2="47" x1="1" id="linearGradient3764-3675"><stop id="stop1522" stop-opacity="1" stop-color="#785048"/><stop id="stop1524" stop-opacity="1" stop-color="#845950" offset="1"/></linearGradient><linearGradient xlink:href="#linearGradient3764-3675" id="linearGradient1739" x1="3.001" y1="13.329" x2="45.249" y2="13.329" gradientUnits="userSpaceOnUse"/><linearGradient xlink:href="#b-56-7" id="linearGradient1543" x1="2.994" y1="34.857" x2="45.247" y2="34.857" gradientUnits="userSpaceOnUse"/></defs><style id="style4485" type="text/css"/><style type="text/css" id="style4485-7"/><style id="style4485-6" type="text/css"/><g id="g1562"><path d="M45.084 22.218l.003-1.669c.017-9.574-5.553-17.292-17.115-17.312l-6.93-.012C5.908 3.198 3.184 14.515 3.173 20.475l-.003 1.669c.01-5.96 2.735-17.278 17.867-17.25l6.93.011c11.563.02 17.133 7.739 17.116 17.313z" id="path4516" opacity="1" fill="url(#linearGradient4540)" fill-opacity="1" stroke="none" stroke-width="1.1" stroke-linecap="square" stroke-linejoin="bevel" stroke-miterlimit="4" stroke-dasharray="none" stroke-dashoffset="0" stroke-opacity=".078"/><path id="path4518" d="M28.429 45.667c11.143.02 16.627-7.678 16.644-17.252l.007-4.293-41.912-.074-.007 4.293c-.01 6.035 2.866 17.286 16.774 17.31z" opacity="1" fill="url(#linearGradient1543)" fill-opacity="1" stroke="#000" stroke-width=".334" stroke-linecap="square" stroke-linejoin="bevel" stroke-miterlimit="4" stroke-dasharray="none" stroke-dashoffset="0" stroke-opacity=".078"/><path id="path4518-7" d="M19.79 2.537C8.649 2.532 3.175 10.237 3.17 19.81l-.002 4.293 41.912.018.002-4.293c.003-6.035-2.89-17.283-16.797-17.288z" opacity="1" fill="url(#linearGradient1739)" fill-opacity="1" stroke="#000" stroke-width=".334" stroke-linecap="square" stroke-linejoin="bevel" stroke-miterlimit="4" stroke-dasharray="none" stroke-dashoffset="0" stroke-opacity=".078"/><g transform="matrix(1 0 0 1.01187 29.964 -5.18)" id="g1797" fill-opacity="1" fill-rule="nonzero" stroke="none" stroke-width=".887"><path id="path1593" d="M-18.628 9.482l-1.01.583v18.873h1" fill="#ff2f6e"/><path id="path1595" d="M-17.65 9.014l-.978.468-.01 19.456h1" fill="#ffd468"/><path id="path1597" d="M-16.662 8.64l-.988.374.011 19.924h1" fill="#7de5a8"/><path id="path1599" d="M-15.526 8.294l-1.136.346.023 20.298h1" fill="#4c9cff"/></g><g transform="translate(.927)" id="g1813" fill-rule="nonzero" stroke="none" stroke-width=".765"><path id="path1601" d="M31.198 14.356c0 4.22-3.426 7.64-7.652 7.64s-7.652-3.42-7.652-7.64 3.426-7.64 7.652-7.64 7.652 3.42 7.652 7.64m0 0" fill="#e5d6c8" fill-opacity="1"/><path id="path1603" d="M29.668 14.356a6.117 6.117 0 0 1-6.122 6.112 6.117 6.117 0 0 1-6.121-6.112 6.117 6.117 0 0 1 6.121-6.113 6.117 6.117 0 0 1 6.122 6.113m0 0" fill="#5b5b5b" fill-opacity="1"/><path id="path1605" d="M28.137 14.356a4.589 4.589 0 0 1-4.59 4.584 4.589 4.589 0 0 1-4.592-4.584 4.589 4.589 0 0 1 4.591-4.584 4.589 4.589 0 0 1 4.591 4.584m0 0" fill="#84b295" fill-opacity="1"/><path id="path1607" d="M25.842 14.356a2.295 2.295 0 0 1-2.296 2.292 2.295 2.295 0 0 1-2.296-2.292 2.295 2.295 0 0 1 2.296-2.292 2.295 2.295 0 0 1 2.296 2.292m0 0" fill="#3c3c3c" fill-opacity="1"/><path id="path1609" d="M26.607 12.064a.766.766 0 0 1-1.53 0 .766.766 0 0 1 1.53 0m0 0" fill="#fff" fill-opacity=".302"/><path id="path1611" d="M22.016 15.12a.766.766 0 0 1-1.53 0 .766.766 0 0 1 1.53 0m0 0" fill="#fff" fill-opacity=".302"/></g><path d="M35.125 7.665h3.446c.397 0 .723.339.723.755v3.6c0 .415-.325.755-.723.755h-3.446c-.398 0-.723-.34-.723-.756v-3.6c0-.415.324-.754.723-.754m0 0" id="path1613" fill="#2f353d" fill-opacity="1" fill-rule="nonzero" stroke="none" stroke-width=".833"/><path d="M38.478 10.22c0 .94-.73 1.702-1.63 1.702-.902 0-1.631-.762-1.631-1.703 0-.94.73-1.703 1.63-1.703.901 0 1.63.762 1.63 1.703m0 0" id="path1615" fill="#282828" fill-opacity="1" fill-rule="nonzero" stroke="none" stroke-width=".833"/></g></svg>