<svg xmlns="http://www.w3.org/2000/svg" xmlns:xlink="http://www.w3.org/1999/xlink" width="48" height="48" version="1.1" id="svg38"><defs id="defs22"><linearGradient id="linearGradient4488"><stop id="stop4490" offset="0" stop-color="#000" stop-opacity=".047"/><stop id="stop4492" offset="1" stop-color="#000" stop-opacity="0"/></linearGradient><style id="style4511"/><style id="style4511-26"/><style id="style4511-9"/><style id="style4552"/><style id="style4511-2"/><linearGradient gradientTransform="matrix(.3082 0 0 .3038 -64.056 2.216)" xlink:href="#linearGradient4488" id="linearGradient4160" x1="288.112" y1="141.785" x2="287.575" y2="79.008" gradientUnits="userSpaceOnUse"/><clipPath id="clipPath-334796349"/></defs><style id="style4485" type="text/css"/><path d="M2.535 26.443v1.668c0 9.575 5.664 17.282 17.394 17.282h7.031c15.352 0 18.095-11.322 18.095-17.282v-1.668c0 5.96-2.743 17.282-18.095 17.282h-7.03c-11.73 0-17.395-7.708-17.395-17.282z" id="path4147" opacity="1" fill="url(#linearGradient4160)" fill-opacity="1" stroke="none" stroke-width="1.108" stroke-linecap="square" stroke-linejoin="bevel" stroke-miterlimit="4" stroke-dasharray="none" stroke-dashoffset="0" stroke-opacity=".078"/><path d="M19.389 2.965h8.618c14.11 0 17.048 11.246 17.048 17.282v7.123c0 5.96-2.743 17.282-18.095 17.282h-7.03c-11.73 0-17.395-7.708-17.395-17.282v-7.123c0-9.575 5.55-17.282 16.854-17.282z" id="rect4144" opacity="1" fill="#336bb0" fill-opacity="1" stroke="#000" stroke-width=".337" stroke-linecap="square" stroke-linejoin="bevel" stroke-miterlimit="4" stroke-dasharray="none" stroke-dashoffset="0" stroke-opacity=".078"/><g id="g412" transform="matrix(1.06636 0 0 1.0539 -3.15 -.206)"><g clip-path="url(#clipPath-334796349)" id="g410"><g id="g408" fill="#f9f9f9" fill-opacity="1" fill-rule="nonzero" stroke="none"><path d="M20.43 30.902c-1.57-.41-2.449-1.711-2.449-3.641 0-.617.039-.914.191-1.309.359-.977 1.324-1.711 2.59-1.98.629-.133.82-.277.82-.613 0-.105.074-.418.168-.691.414-1.258 1.188-2.309 2.01-2.738.852-.449 1.297-.547 2.34-.543 1.477.004 2.219.344 3.246 1.469l.563.621.516-.184c2.465-.887 4.914.621 5.105 3.141l.063.691.477.18c1.395.52 2.035 1.602 1.918 3.195-.078 1.039-.547 1.875-1.277 2.285l-.355.195-7.75.012c-5.953.012-7.844-.008-8.176-.094m-.004.004" id="path404"/><path d="M14.621 29.789c-.918-.227-1.895-1.07-2.352-2.039-.258-.543-.273-.625-.273-1.598 0-.922.023-1.07.227-1.527a3.483 3.483 0 0 1 2.313-1.934c.219-.059.43-.148.461-.207.031-.051.066-.352.082-.664.074-1.93 1.289-3.629 2.984-4.176.918-.293 2.074-.223 3.07.191.316.133.281.16.949-.754.398-.539 1.199-1.211 1.848-1.555.707-.367 1.445-.539 2.324-.539 2.453.008 4.574 1.605 5.355 4.04.254.781.238 1-.055 1-.129.004-.496.078-.82.16l-.586.16-.535-.555c-1.504-1.566-3.969-1.906-6.06-.836a5.031 5.031 0 0 0-2.01 1.844c-.359.57-.82 1.637-.82 1.902 0 .191-.148.281-.77.496-1.934.66-3.063 2.184-3.059 4.129 0 .711.176 1.578.418 2.074.094.188.141.363.113.395-.074.078-2.477.055-2.809-.031m.004.016" id="path406"/></g></g></g></svg>