<svg xmlns:osb="http://www.openswatchbook.org/uri/2009/osb" xmlns="http://www.w3.org/2000/svg" xmlns:xlink="http://www.w3.org/1999/xlink" width="48" height="48" version="1.1" id="svg38"><defs id="defs22"><linearGradient id="linearGradient3764-3675356" x1="1" x2="47" gradientUnits="userSpaceOnUse" gradientTransform="rotate(-90 -4.062 53.937)"><stop stop-color="#33466d" stop-opacity="1" id="stop1409"/><stop offset="1" stop-color="#3a4f7a" stop-opacity="1" id="stop1411"/></linearGradient><linearGradient id="linearGradient4488"><stop id="stop4490" offset="0" stop-color="#000" stop-opacity=".047"/><stop id="stop4492" offset="1" stop-color="#000" stop-opacity="0"/></linearGradient><style id="style4511"/><style id="style4511-26"/><style id="style4511-9"/><style id="style4552"/><style id="style4511-2"/><linearGradient xlink:href="#linearGradient4488" id="linearGradient4540" gradientUnits="userSpaceOnUse" gradientTransform="matrix(.3074 0 0 .30379 -63.667 1.994)" x1="288.112" y1="141.785" x2="287.575" y2="79.008"/><linearGradient osb:paint="solid" id="linearGradient5293"><stop id="stop5295" offset="0" stop-color="#9a89c0" stop-opacity="1"/></linearGradient><style id="style2" type="text/css"><![CDATA[.fil5{fill:none}.fil1{fill:#196FBA}.fil0{fill:#25B2EE}.fil4{fill:#793C7C}.fil3{fill:#8C508C}.fil2{fill:white}]]></style><linearGradient xlink:href="#linearGradient3764-3675356" id="linearGradient1420" x1="2.583" y1="23.586" x2="45.329" y2="23.586" gradientUnits="userSpaceOnUse"/></defs><style id="style4485" type="text/css"/><path id="path4516" d="M2.751 26.22v1.669c0 9.574 5.65 17.282 17.35 17.282h7.012c15.312 0 18.048-11.323 18.048-17.282V26.22c0 5.96-2.736 17.282-18.048 17.282H20.1c-11.7 0-17.349-7.708-17.349-17.282z" opacity="1" fill="url(#linearGradient4540)" fill-opacity="1" stroke="none" stroke-width="1.106" stroke-linecap="square" stroke-linejoin="bevel" stroke-miterlimit="4" stroke-dasharray="none" stroke-dashoffset="0" stroke-opacity=".078"/><path id="path4518" d="M19.561 2.743h8.596c14.073 0 17.004 11.247 17.004 17.282v7.122c0 5.96-2.736 17.282-18.048 17.282H20.1c-11.7 0-17.35-7.708-17.35-17.282v-7.122c0-9.574 5.535-17.282 16.81-17.282z" opacity="1" fill="url(#linearGradient1420)" fill-opacity="1" stroke="#000" stroke-width=".336" stroke-linecap="square" stroke-linejoin="bevel" stroke-miterlimit="4" stroke-dasharray="none" stroke-dashoffset="0" stroke-opacity=".078"/><g id="g60" transform="matrix(1.16674 0 0 1.13052 -5.396 -2.803)"><path d="M24.5 33.5l-9 1c-.9.1-1.6-.6-1.5-1.5l1-9c0-.5.3-.9.6-1.2L26 12.4c.3-.3.7-.3 1 0l9.1 9.1c.3.3.3.7 0 1L25.8 32.9c-.4.3-.8.6-1.3.6z" id="path56" fill="#fff"/><path d="M36.1 21.5L31.6 17 14.4 34.1c.3.3.7.4 1.1.4l9-1c.5 0 .9-.3 1.2-.6l10.4-10.4c.3-.2.3-.7 0-1z" id="path58" fill="#ecf6ff"/></g></svg>