<svg xmlns:osb="http://www.openswatchbook.org/uri/2009/osb" xmlns="http://www.w3.org/2000/svg" xmlns:xlink="http://www.w3.org/1999/xlink" width="48" height="48" version="1.1" id="svg38"><defs id="defs22"><linearGradient id="linearGradient4488"><stop id="stop4490" offset="0" stop-color="#000" stop-opacity=".047"/><stop id="stop4492" offset="1" stop-color="#000" stop-opacity="0"/></linearGradient><style id="style4511"/><style id="style4511-26"/><style id="style4511-9"/><style id="style4552"/><style id="style4511-2"/><linearGradient xlink:href="#linearGradient4488" id="linearGradient4540" gradientUnits="userSpaceOnUse" gradientTransform="matrix(-.00052 .30406 -.2948 -.00054 45.95 -62.006)" x1="288.112" y1="141.785" x2="287.575" y2="79.008"/><linearGradient osb:paint="solid" id="linearGradient5293"><stop id="stop5295" offset="0" stop-color="#9a89c0" stop-opacity="1"/></linearGradient><style id="style4511-87"/><style id="style4511-26-7"/><style id="style4511-9-1"/><style id="style4552-53"/><style id="style4511-2-9"/><style id="style4511-8"/><style id="style4511-26-4"/><style id="style4511-9-8"/><style id="style4552-5"/><style id="style4511-2-5"/><style id="style4511-879"/><style id="style4511-26-76"/><style id="style4511-9-2"/><style id="style4552-8"/><style id="style4511-2-0"/></defs><style id="style4485" type="text/css"/><style type="text/css" id="style4485-7"/><style id="style4485-6" type="text/css"/><style type="text/css" id="style4485-3"/><path id="path4516" d="M22.328 3.645l-1.619-.003c-9.29-.017-16.78 5.557-16.8 17.13l-.012 6.936C3.871 42.853 14.854 45.58 20.637 45.59l1.62.003c-5.784-.01-16.767-2.737-16.74-17.882l.011-6.936c.02-11.573 7.51-17.147 16.8-17.13z" opacity="1" fill="url(#linearGradient4540)" fill-opacity="1" stroke="none" stroke-width="1.084" stroke-linecap="square" stroke-linejoin="bevel" stroke-miterlimit="4" stroke-dasharray="none" stroke-dashoffset="0" stroke-opacity=".078"/><path d="M45.192 20.314c.02-11.152-7.45-16.64-16.741-16.658l-4.166-.007-.072 41.947 4.166.008c5.857.01 16.775-2.869 16.799-16.788z" id="path4518" opacity="1" fill="#f2f2f2" fill-opacity="1" stroke="#000" stroke-width=".329" stroke-linecap="square" stroke-linejoin="bevel" stroke-miterlimit="4" stroke-dasharray="none" stroke-dashoffset="0" stroke-opacity=".078"/><path d="M3.284 28.96c-.004 11.152 7.472 16.63 16.763 16.634l4.166.002.017-41.947-4.165-.002C14.208 3.644 3.294 6.539 3.288 20.458z" id="path4518-7" opacity="1" fill="#f2f2f2" fill-opacity="1" stroke="#000" stroke-width=".329" stroke-linecap="square" stroke-linejoin="bevel" stroke-miterlimit="4" stroke-dasharray="none" stroke-dashoffset="0" stroke-opacity=".078"/><path id="path4518-0" d="M6.844 28.22v-7.035c0-11.519 9.409-13.918 14.458-13.918h5.959c4.986 0 14.458 2.24 14.458 14.773v5.74c0 9.576-6.448 14.2-14.458 14.2h-5.96c-8.009 0-14.457-4.53-14.457-13.76z" opacity="1" fill="#ed2b3c" fill-opacity="1" stroke="#000" stroke-width=".278" stroke-linecap="square" stroke-linejoin="bevel" stroke-miterlimit="4" stroke-dasharray="none" stroke-dashoffset="0" stroke-opacity=".078"/><path d="M35.222 24.106c-2.815-.647-4.862-1.553-7.038-2.847h7.038V18.67H24.985v-1.683c2.815-.129 8.958-.647 8.958-.647v-2.588S21.786 14.79 15.004 14.79h-.384v2.588s5.119-.13 7.678-.26v1.554H13.34v2.588h6.783a47.525 47.525 0 0 1-6.783 3.364v2.459l2.56-.906v1.553h3.71c0 3.623-2.047 4.788-6.27 5.176v2.588s8.958.259 8.958-7.764h3.839l-1.28 1.294v2.588H31c-.128 1.035-.384 1.294-1.536 1.294h-5.758v2.588h6.398c4.607-.13 3.839-6.47 3.839-6.47h-5.375l1.536-1.941V25.14h-5.119v-3.106c3.711 3.106 10.237 4.659 10.237 4.659zm-12.796-1.553v2.588h-4.223c2.303-1.294 2.815-1.553 4.223-2.588z" id="path23" fill="#fff" stroke-width=".899"/></svg>