<svg xmlns="http://www.w3.org/2000/svg" xmlns:xlink="http://www.w3.org/1999/xlink" width="48" height="48" version="1.1" id="svg38"><defs id="defs22"><linearGradient id="linearGradient3764-36" x1="1" x2="47" gradientUnits="userSpaceOnUse" gradientTransform="rotate(-90 -1.69 50.032)"><stop id="stop1291" stop-color="#e4e4e4" stop-opacity="1"/><stop offset="1" id="stop1293" stop-color="#eee" stop-opacity="1"/></linearGradient><style id="style4511"/><style id="style4511-26"/><style id="style4511-9"/><style id="style4552"/><style id="style4511-2"/><linearGradient xlink:href="#linearGradient3764-36" id="linearGradient1310" x1="2.778" y1="23.935" x2="45.482" y2="23.935" gradientUnits="userSpaceOnUse"/></defs><style id="style4485" type="text/css"/><path d="M19.74 3.213h8.587c14.059 0 16.987 11.181 16.987 17.18v7.082c0 5.925-2.733 17.181-18.03 17.181h-7.006c-11.689 0-17.333-7.662-17.333-17.18v-7.082c0-9.518 5.53-17.181 16.794-17.181z" id="rect4144" opacity="1" fill="url(#linearGradient1310)" fill-opacity="1" stroke="#000" stroke-width=".335" stroke-linecap="square" stroke-linejoin="bevel" stroke-miterlimit="4" stroke-dasharray="none" stroke-dashoffset="0" stroke-opacity=".078"/><g id="g937" transform="translate(-.011 -.151)"><g id="g929"><g id="g927"><path d="M38.136 29.983c.98 0 1.775-.795 1.775-1.775 0-4.307-3.503-7.81-7.81-7.81-.137 0-.268.033-.405.04.088-.467.145-.946.145-1.438 0-4.307-3.503-7.81-7.81-7.81-4.307 0-7.81 3.503-7.81 7.81 0 .497.058.981.147 1.453-.183-.013-.357-.055-.543-.055-4.307 0-7.81 3.503-7.81 7.81 0 4.307 3.503 7.811 7.81 7.811a7.779 7.779 0 0 0 5.584-2.367l.007.006s7.312-8.081 7.64-8.43a4.227 4.227 0 0 1 3.045-1.28 4.265 4.265 0 0 1 4.26 4.26c0 .98.795 1.775 1.775 1.775zM24.032 14.74a4.265 4.265 0 0 1 4.26 4.26 4.265 4.265 0 0 1-4.26 4.261A4.265 4.265 0 0 1 19.772 19a4.265 4.265 0 0 1 4.26-4.26zM11.567 28.208a4.265 4.265 0 0 1 4.26-4.26 4.265 4.265 0 0 1 4.261 4.26c0 1.162-.47 2.215-1.227 2.984l-.031.034a4.246 4.246 0 0 1-3.003 1.242 4.265 4.265 0 0 1-4.26-4.26z" id="path925" fill="#127dd9"/></g></g><circle cx="38.242" cy="34.242" r="1.775" id="circle931" fill="#247ad3"/><g id="g935"><path d="M11.746 21.93c1.017 0 1.842.825 1.842 1.842 0 .407-.137.78-.361 1.085a4.219 4.219 0 0 1 2.599-.909 4.265 4.265 0 0 1 4.261 4.26c0 1.16-.468 2.21-1.222 2.979l4.501-5.049c-.906-3.314-3.931-5.753-7.533-5.753a7.784 7.784 0 0 0-4.955 1.772c.26-.14.552-.227.868-.227z" id="path933" fill="#ec3e43"/></g></g></svg>