<svg xmlns:osb="http://www.openswatchbook.org/uri/2009/osb" xmlns="http://www.w3.org/2000/svg" xmlns:xlink="http://www.w3.org/1999/xlink" width="48" height="48" version="1.1" id="svg38"><defs id="defs22"><linearGradient id="linearGradient3764-3675356" x1="1" x2="47" gradientUnits="userSpaceOnUse" gradientTransform="rotate(-90 24 24)"><stop stop-color="#32a8ce" stop-opacity="1" id="stop1371"/><stop offset="1" stop-color="#41afd2" stop-opacity="1" id="stop1373"/></linearGradient><linearGradient id="linearGradient4488"><stop id="stop4490" offset="0" stop-color="#000" stop-opacity=".047"/><stop id="stop4492" offset="1" stop-color="#000" stop-opacity="0"/></linearGradient><style id="style4511"/><style id="style4511-26"/><style id="style4511-9"/><style id="style4552"/><style id="style4511-2"/><linearGradient xlink:href="#linearGradient4488" id="linearGradient4540" gradientUnits="userSpaceOnUse" gradientTransform="matrix(.3074 0 0 .30379 -63.667 1.994)" x1="288.112" y1="141.785" x2="287.575" y2="79.008"/><linearGradient osb:paint="solid" id="linearGradient5293"><stop id="stop5295" offset="0" stop-color="#9a89c0" stop-opacity="1"/></linearGradient><style id="style2" type="text/css"><![CDATA[.fil5{fill:none}.fil1{fill:#196FBA}.fil0{fill:#25B2EE}.fil4{fill:#793C7C}.fil3{fill:#8C508C}.fil2{fill:white}]]></style><linearGradient xlink:href="#linearGradient3764-3675356" id="linearGradient1382" x1="2.583" y1="23.586" x2="45.329" y2="23.586" gradientUnits="userSpaceOnUse"/></defs><style id="style4485" type="text/css"/><path id="path4516" d="M2.751 26.22v1.669c0 9.574 5.65 17.282 17.35 17.282h7.012c15.312 0 18.048-11.323 18.048-17.282V26.22c0 5.96-2.736 17.282-18.048 17.282H20.1c-11.7 0-17.349-7.708-17.349-17.282z" opacity="1" fill="url(#linearGradient4540)" fill-opacity="1" stroke="none" stroke-width="1.106" stroke-linecap="square" stroke-linejoin="bevel" stroke-miterlimit="4" stroke-dasharray="none" stroke-dashoffset="0" stroke-opacity=".078"/><path id="path4518" d="M19.561 2.743h8.596c14.073 0 17.004 11.247 17.004 17.282v7.122c0 5.96-2.736 17.282-18.048 17.282H20.1c-11.7 0-17.35-7.708-17.35-17.282v-7.122c0-9.574 5.535-17.282 16.81-17.282z" opacity="1" fill="url(#linearGradient1382)" fill-opacity="1" stroke="#000" stroke-width=".336" stroke-linecap="square" stroke-linejoin="bevel" stroke-miterlimit="4" stroke-dasharray="none" stroke-dashoffset="0" stroke-opacity=".078"/><path id="path1358" d="M36.462 20.315l-12.03 6.803a.458.458 0 0 1-.421.013l-5.563-2.68c-.293-.14-.637.062-.637.376v2.363c0 .156.09.298.233.37l6.04 3.084a.456.456 0 0 0 .423-.006l8.887-4.871c.292-.16.657.042.657.365v2.46a.42.42 0 0 1-.224.367l-9.653 5.196a.456.456 0 0 1-.434-.003l-9.659-5.326a.417.417 0 0 1-.22-.364v-9.28c0-.322.361-.524.655-.366l9.087 4.906a.454.454 0 0 0 .44-.005L36.2 16.78a.412.412 0 0 0-.007-.726L24.691 9.72a1.82 1.82 0 0 0-1.75 0L11.67 15.927a1.673 1.673 0 0 0-.882 1.459v12.391c0 .605.34 1.163.889 1.463l11.412 6.216a1.825 1.825 0 0 0 1.735 0l11.413-6.216c.548-.3.887-.858.887-1.463v-9.1c0-.325-.37-.527-.662-.362z" fill="#f8f8f8" stroke-width=".859"/></svg>