<svg xmlns="http://www.w3.org/2000/svg" xmlns:xlink="http://www.w3.org/1999/xlink" width="48" height="48" version="1.1" id="svg38"><defs id="defs22"><linearGradient id="linearGradient4488"><stop id="stop4490" offset="0" stop-color="#000" stop-opacity=".047"/><stop id="stop4492" offset="1" stop-color="#000" stop-opacity="0"/></linearGradient><style id="style4511"/><style id="style4511-26"/><style id="style4511-9"/><style id="style4552"/><style id="style4511-2"/><linearGradient xlink:href="#linearGradient4488" id="linearGradient4546" gradientUnits="userSpaceOnUse" gradientTransform="translate(-62.497 1.994) scale(.3038)" x1="288.112" y1="141.785" x2="287.575" y2="79.008"/><style id="style4511-8"/><style id="style4511-26-4"/><style id="style4511-9-8"/><style id="style4552-5"/><style id="style4511-2-5"/></defs><style id="style4485" type="text/css"/><path d="M3.141 26.22v1.67c0 9.573 5.583 17.281 17.146 17.281h6.93c15.133 0 17.837-11.322 17.837-17.282v-1.668c0 5.96-2.704 17.282-17.837 17.282h-6.93c-11.563 0-17.146-7.708-17.146-17.282z" id="path4528" opacity="1" fill="url(#linearGradient4546)" fill-opacity="1" stroke="none" stroke-width="1.1" stroke-linecap="square" stroke-linejoin="bevel" stroke-miterlimit="4" stroke-dasharray="none" stroke-dashoffset="0" stroke-opacity=".078"/><path d="M19.754 2.742h8.495c13.908 0 16.805 11.247 16.805 17.282v7.124c0 5.96-2.704 17.282-17.837 17.282h-6.93c-11.562 0-17.146-7.708-17.146-17.282v-7.124c0-9.574 5.47-17.282 16.613-17.282z" id="path4530" opacity="1" fill="#1a8efc" fill-opacity="1" stroke="#000" stroke-width=".334" stroke-linecap="square" stroke-linejoin="bevel" stroke-miterlimit="4" stroke-dasharray="none" stroke-dashoffset="0" stroke-opacity=".078"/><style type="text/css" id="style4485-4"/><g id="g1288" transform="translate(-2.03 1.62)" fill-rule="evenodd" stroke="none" stroke-width=".943"><path id="Combined-Shape" d="M25.391 29.971a3.251 3.251 0 0 0-4.635 0l-1.315 1.33c-1.28 1.294-2.24.933-2.142-.81l.1-1.79c.098-1.74-1.368-3.08-3.277-2.991l-1.96.091c-1.908.09-2.306-.785-.887-1.954l1.456-1.2c1.418-1.17 1.42-3.063 0-4.232l-1.456-1.2c-1.418-1.17-1.023-2.045.887-1.956l1.96.092c1.907.089 3.375-1.25 3.277-2.992l-.1-1.79c-.097-1.74.86-2.105 2.142-.81l1.315 1.33a3.251 3.251 0 0 0 4.635 0l1.315-1.33c1.28-1.293 2.24-.932 2.142.81l-.1 1.79c-.098 1.741 1.368 3.08 3.277 2.992l1.96-.092c1.908-.088 2.306.786.887 1.955l-1.457 1.2c-1.417 1.17-1.419 3.063 0 4.232l1.457 1.2c1.418 1.17 1.023 2.044-.887 1.955l-1.96-.091c-1.907-.09-3.375 1.249-3.278 2.992l.1 1.79c.098 1.74-.86 2.104-2.14.809zm-2.318-2.231c4.362 0 7.898-3.228 7.898-7.21 0-3.981-3.536-7.209-7.898-7.209-4.361 0-7.897 3.228-7.897 7.21 0 3.981 3.536 7.209 7.897 7.209z" fill="#ffd000"/><ellipse ry="5.407" rx="5.923" cy="20.53" cx="23.073" id="Oval-2" fill="#ffd000"/><path id="path1245" d="M19.125 34.929c-2.768-.228-4.936-2.35-4.936-4.936 0-2.738 2.43-4.957 5.43-4.957.617 0 1.211.094 1.765.268.957-3.268 4.224-5.675 8.106-5.675 4.478 0 8.136 3.201 8.379 7.233 2.227.219 3.962 1.94 3.962 4.032 0 2.087-1.728 3.806-3.95 4.03v.025H19.126z" fill="#fff"/></g></svg>