<svg xmlns:osb="http://www.openswatchbook.org/uri/2009/osb" xmlns="http://www.w3.org/2000/svg" xmlns:xlink="http://www.w3.org/1999/xlink" width="48" height="48" version="1.1" id="svg38"><defs id="defs22"><linearGradient id="linearGradient4488"><stop id="stop4490" offset="0" stop-color="#000" stop-opacity=".047"/><stop id="stop4492" offset="1" stop-color="#000" stop-opacity="0"/></linearGradient><style id="style4511"/><style id="style4511-26"/><style id="style4511-9"/><style id="style4552"/><linearGradient id="e-1" y1="41.22" x1="24.392" y2="25.343" x2="20.643" gradientUnits="userSpaceOnUse"><stop stop-color="#334545" id="stop22-8"/><stop offset="1" stop-color="#536161" id="stop24-7"/></linearGradient><style id="style4511-2"/><linearGradient xlink:href="#linearGradient4488" id="linearGradient4540" gradientUnits="userSpaceOnUse" gradientTransform="matrix(.3074 0 0 .30379 -63.667 1.994)" x1="288.112" y1="141.785" x2="287.575" y2="79.008"/><linearGradient osb:paint="solid" id="linearGradient5293"><stop id="stop5295" offset="0" stop-color="#9a89c0" stop-opacity="1"/></linearGradient><style id="style2" type="text/css"><![CDATA[.fil5{fill:none}.fil1{fill:#196FBA}.fil0{fill:#25B2EE}.fil4{fill:#793C7C}.fil3{fill:#8C508C}.fil2{fill:white}]]></style><filter id="filter-1-3" filterUnits="objectBoundingBox" height="200%" width="200%" y="-50%" x="-50%"><feOffset id="feOffset6" result="shadowOffsetOuter1" in="SourceAlpha" dy="1" dx="0"/><feGaussianBlur id="feGaussianBlur8" result="shadowBlurOuter1" in="shadowOffsetOuter1" stdDeviation=".5"/><feColorMatrix id="feColorMatrix10" result="shadowMatrixOuter1" type="matrix" in="shadowBlurOuter1" values="0 0 0 0 0 0 0 0 0 0 0 0 0 0 0 0 0 0 0.21 0"/><feMerge id="feMerge16"><feMergeNode id="feMergeNode12" in="shadowMatrixOuter1"/><feMergeNode id="feMergeNode14" in="SourceGraphic"/></feMerge></filter><linearGradient xlink:href="#e-1" id="linearGradient1404" x1="2.583" y1="23.586" x2="45.329" y2="23.586" gradientUnits="userSpaceOnUse"/></defs><style id="style4485" type="text/css"/><path id="path4516" d="M2.751 26.22v1.669c0 9.574 5.65 17.282 17.35 17.282h7.012c15.312 0 18.048-11.323 18.048-17.282V26.22c0 5.96-2.736 17.282-18.048 17.282H20.1c-11.7 0-17.349-7.708-17.349-17.282z" opacity="1" fill="url(#linearGradient4540)" fill-opacity="1" stroke="none" stroke-width="1.106" stroke-linecap="square" stroke-linejoin="bevel" stroke-miterlimit="4" stroke-dasharray="none" stroke-dashoffset="0" stroke-opacity=".078"/><path id="path4518" d="M19.561 2.743h8.596c14.073 0 17.004 11.247 17.004 17.282v7.122c0 5.96-2.736 17.282-18.048 17.282H20.1c-11.7 0-17.35-7.708-17.35-17.282v-7.122c0-9.574 5.535-17.282 16.81-17.282z" opacity="1" fill="url(#linearGradient1404)" fill-opacity="1" stroke="#000" stroke-width=".336" stroke-linecap="square" stroke-linejoin="bevel" stroke-miterlimit="4" stroke-dasharray="none" stroke-dashoffset="0" stroke-opacity=".078"/><g id="g1388" transform="matrix(.91528 0 0 .8729 57.692 4.052)" fill="#ef0113" fill-rule="evenodd" stroke="none" stroke-width="1"><path transform="matrix(1.07627 0 0 1.08354 -59.512 -.823)" id="Path-30" d="M13.286 13.437c.014-.056-.182.038-.466.14-.987.357-3.204 1.498-3.287 4.58-.108 3.967 4.826 5.683 4.826 5.683s4.29 2.038 2.144 2.896c-.321.107-.643.214-.643.536 0 0-.75.429-.322 1.501 0 0 .215-.965.644-.965 0 0 .75.322 1.287-.107 0 0 .321-.107.429.107.107.215.75.644.75.644s.537.321.644.75c.107.43.322.965.965.644 0 0 .643.321.429 1.18 0 0 .75-.644 0-1.502 0 0 .536-.644-1.394-2.145 0 0 1.608.536 1.93.858.322.322 1.073.429 1.287-.107 0 0 .858.322.75.965 0 0 .323-1.18-.428-1.287 0 0 .214-.965-1.073-.965s-1.287-.43-1.287-.43h1.61s1.072.215 1.286-.643c0 0 .536 0 1.073.43 0 0-.322-.859-1.073-.859 0 0-.429-.75-1.609-.107-1.18.644-2.144.43-2.144.43s-.858 0-1.395-.752c-.536-.75-.321-.965.43-.965.75 0 2.037-.429 2.037-.429s1.287-.429 2.681-1.394c0 0 1.609-.965 3.217-1.072 1.609-.108 2.252 0 2.252 0s1.716 0 1.93 1.716c.215 1.716-1.393 1.823-1.393 1.823s-.751-.751-1.287-1.716c-.536-.965-.43-.965-1.18-1.18 0 0-.322-.429-1.18 0 0 0 .966 0 .966.43 0 0-.322.214.107.535.429.322.965.858.965.858s-1.072-1.287-1.93-.643c0 0-.43-.322-.966.322 0 0 .751-.215.966.107 0 0-.215.429 1.072.75 1.287.322 1.18.751 1.18.751s-.43-.107-1.287-.536c-.858-.429-1.073-.107-1.18.107 0 0-.643 0-.858.751 0 0 .43-.429.858-.322 0 0-.107.536 1.18.536 0 0 .643 0 .965.858.322.858 1.072.751 1.072.751s.43.107.43.536c0 .43.536.537.536.537s.107.429-.215.75c0 0 .858-.214.536-.858 0 0 .537-.536-.107-1.287-.429-.536.43-.858.43-.858s.643-.321.643.537c0 .858-.322 2.145-.322 2.145s.965-1.61 1.18-2.896c.429-2.467-.751-4.183-.751-4.183s-.644-1.394-3.86-1.072c-3.218.322-6.328 1.823-6.328 1.823s2.895-2.788 7.828-2.574c0 0-3.11-.965-5.362 0 0 0 3.325-1.823 6.328-.429s3.217 4.29 3.217 4.29.536 2.574-1.394 5.362c-1.93 2.789-2.252 3.003-2.252 3.003s-2.252 2.145-3.11 2.574c-.858.429-4.397 2.038-8.902 1.18 0 0 .966.643 3.325.858 0 0-5.47.214-8.365-2.896l-1.501-1.501s-.108-.858 1.072.643c0 0 .429-3.539-3.003-3.86l.965.964s.108.751-.75 0c-.858-.75-.858-1.18-.858-1.18s0-.857-1.716-1.179c-1.716-.322-1.287-.965-1.287-.965s-.644 1.287.643 2.466c.858.751 1.287.966 1.287.966s1.073.858.215.858-1.18-.966-1.18-.966.644 4.076 4.933 4.076c0 0-2.788-1.716-1.072-1.609 0 0-1.93-2.038-.644-1.501.108 0 .966 1.287.966 1.287s2.252 3.002 4.397 3.753c0 0-1.716-.429-3.003-1.501 0 0 2.36 2.466 5.47 3.324 3.11.858 6.112.215 6.112.215s-3.003-.644-.107-.751c2.895-.107 4.826-.965 4.826-.965s3.11-1.287 4.397-3.54c0 0-.858.108.429-.857.536-.75 1.501-1.93 2.574-5.148.429-1.18.429-1.823 1.18-1.716.75.107.321 1.073.321 1.073s-.214.643.214.75c0 0 0 .644.537.751 0 0-.215-.536 0-.75.214-.215.429-.215.429-1.288 0-1.072-.108-.857.321-2.252.43-1.394.644-2.466.215-3.11-.43-.643.214-1.072.214-1.072s-.858.429-.643 1.072c0 0-.536.108-.322 1.073 0 0 .107.75-.214 1.18-.322.428-.108-1.288-.108-1.288s.108-.536-.214-.965c-.322-.429-.322-.965-.322-.965s-.321.322-.107.965c0 0-.429.322-.107 1.18.321.858 0 .965 0 .965s-.322 0-.215-.75c.108-.751-.214-1.395-.536-1.18-.322.214-.214-.965-.214-.965s-.43.643-.215 1.072c0 0-.322.322.215 1.072 0 0 .321.43.107.966-.215.536.75.643.75.643s.751.215.644.858c0 0-.75-.322-1.287-.75-.536-.43-.75-.43-.965-1.931-.215-1.501-.322-3.432-2.681-3.646 0 0 .214-.644 1.072-.322.858.322 1.394.965 1.502 1.501.107.537.643-2.466-1.716-3.002-2.36-.537-3.647.321-3.647.321s-2.037 1.502-2.252.644c-.214-.858 1.823-1.18 1.823-1.18l1.61-.107s-2.575-1.823-5.149-.322c-2.144 1.287-2.359 2.145-2.359 2.145s-.75 1.287-1.18.643c-.429-.643 1.609-1.93 1.609-1.93s-2.467-.965-4.504 1.609c-.75.965-.858 1.287-.858 1.287s-.43.643-1.073 0c-.643-.644 1.61-1.395 1.61-1.395s-1.717-.429-3.325.966c-1.61 1.394-2.789-.644-2.789-.644s-.536-1.072-.429-2.36c.107-1.286-1.072 1.502-.214 3.218.858 1.716 1.716 1.93 1.716 1.93s2.68 1.61 7.185-.214c0 0-2.467 1.716-5.255 1.394-2.788-.322-3.646-1.608-3.646-1.608s-1.287-1.18-.965-3.325c.321-2.145 1.501-2.896 1.501-2.896" filter="url(#filter-1-3)"/><g id="g1380" transform="matrix(1.07627 0 0 1.08354 -59.477 -.38)"><circle id="Oval-8" cx="29.751" cy="9.751" r=".751" filter="url(#filter-1-3)"/><path d="M13.614 14.467c1.45.232 2.886 1.296 5.77-1.107 2.573-2.145 2.037-.75 2.037-.75s-.643.75-1.608.857c-.966.108 2.466.644 3.539-.75 1.072-1.395 2.68-1.073 2.68-1.073s1.61.644 2.682.215c.965.536 2.574 1.18 2.145-1.18-.322.536-.43.858-1.502.107-.643 0-.75-.107-.643-.858-.322.43-.43.965-1.18.43-.75-.537-.429-.215-1.18-.323-.75-.107-2.788-.643 0-1.18 2.145-.428 1.93-.428 2.038.43.107.858.429-.965.429-.965s.214.643 1.18.321c.858.43.321.215.643.215s.215.643.215.858c0 .214.643-.644.536-1.394.214-.43.429-.644.322-1.395.536-.643.643-1.501-1.18-1.823-1.073-1.072-1.716-1.287-3.54-.965-1.822.322-3.11.107-3.11.107s-.857-.107.323.322 3.646-.214 3.646-.214S29.25 4.244 30 5.21c-.537.107-1.287.428-3.218.428-1.93 0-.214.215 1.18.215S30 5.424 30 5.424s.107.536-.858.643c-.322.43-.858.537-2.252.537-1.395 0-1.18-.108-1.18-.108s.429-1.93-1.609-1.394c-.214-.429-.321-.965-2.574-.107-2.359.536-5.576-.429-5.576-.429s-2.467-.75-1.502.107c.966.858 1.93.644 1.93.644s.43.214-.643.429c-1.072.214-.965.429-.965.429s.107.643 1.716 0c1.609-.644 2.145-.322 2.145-.322s.107.429-1.93.643c-2.038.215-3.969.108-3.969.108s-4.182-.43-2.573.214c1.608.644 2.895.43 2.895.43s.322.32-.965.535c-1.072.322-.75.966.215.644.965-.322 1.715-.858 3.431-.965 1.394-.108.965.429.965.429s.108.429-1.286.107c-1.395-.322-2.574.75-2.789 1.716.536-.259 1.073-.751 2.467-.536.75.429-.43.536-.43.536s-3.11-.259-3.645 4.075c.536-.322 1.18-1.18 3.646-1.394 1.609-.107 2.145-.965 2.145-.965s.536-.537.858.107c.321.643-.858.643-.858.643s-.858 0-1.609 1.073c-.75 1.072-1.739 1.062-1.93 1.18.11.002.224.015.343.034zm6.413-5.611s-1.072.858.215 1.287c1.072.107 1.715-.751 1.715-.751s1.073-.965 2.467-.858c-.858.429-1.287.536-2.038 1.287-.75.75-1.287 1.072-2.359 1.18-1.072.107-1.823-.322-1.072-1.609-.858.215-3.003-.643-.108-2.145-1.93 2.252 1.18 1.609 1.18 1.609zm.75-2.348s1.502-.548 2.896-.119c-1.716 1.93-2.895.12-2.895.12zm9.116-.272s.322-.276.644-.705c.322-.429 1.287.646 1.287.646s-.107.534-.43.641c-.32.107-1.5-.582-1.5-.582z" id="Combined-Shape" filter="url(#filter-1-3)"/><path d="M9.656 14.383s.214-2.574 1.287-3.646c1.072-1.073.214-1.073.214-1.073s-.536-.107-1.287.322c-.75.429-1.716.107-1.716.107S5.58 9.88 5.26 13.096c.643-.643 1.823-1.609 2.788-1.394.643.107-.858.858-.858.858s-2.681 1.394-2.467 4.29c.644-1.287 1.073-1.609 1.716-1.824.644-.214.215.537.215.537L5.58 17.064s-1.18 1.394.322 3.646c-.107-.965-.107-2.466.43-2.68.535-.215.214 1.393.214 1.393s-.644 2.36 1.394 3.432c0 0-.322-.536-.322-1.287 0-.75.429.43.429.43s.107.321.75.643c.644.321-.107.75-.107.75s-.965.644-1.715-.321a44.306 44.306 0 0 0-1.61-1.93s-.428-.43-.964-.215c0 0-.965-.43-1.287.214 0 0 .858-.214 1.072.215 0 0-.214.429 1.716 1.394 0 0-2.145-1.18-2.574-.322-.429.108-.643.108-1.072.751 0 0 .858-.429 1.287-.322 0 0 0 .536 1.394.536.107 0 1.07.108 1.501.644 0 0-1.287-.107-1.716-.322-.429-.214-1.072-.107-.965.43 0 0-.858.106-.965 1.179 0 0 .536-.858.965-.644 0 0 .215.644 1.18.322s1.823.858 1.823.858.322.429.965.215c.43 0 .536.429.536.429s.322.75.966.643c0 0 .321.536 0 .965 0 0 .536-.643.321-1.072 0 0 .751-.536-.321-1.609-.322-.965 1.072-1.609 1.18-1.394.107.214 1.608 1.394 4.29.858 0 0-5.685-1.18-6.221-5.899-.322-2.68 1.18-4.611 1.18-4.611z" id="Path-29" filter="url(#filter-1-3)"/><path d="M30.52 29.436s-3.003 0-4.397 2.68c0 0 2.36-1.393 2.36-.643 0 .751-1.288.644-1.288.644s-1.93-.107-3.753 2.037c0 0 1.93-1.286 2.252-.643.322.643-2.896.858-2.896.858s-1.501 0-2.895.536c-1.394.536-2.574.215-2.574.215s3.86.965 6.756-.108c2.896-1.072 3.218-1.608 4.397-2.68 1.18-1.073 2.038-2.896 2.038-2.896z" id="Path-31" filter="url(#filter-1-3)"/></g></g></svg>