<svg xmlns:osb="http://www.openswatchbook.org/uri/2009/osb" xmlns="http://www.w3.org/2000/svg" xmlns:xlink="http://www.w3.org/1999/xlink" width="48" height="48" version="1.1" id="svg38"><defs id="defs22"><linearGradient id="linearGradient4488"><stop id="stop4490" offset="0" stop-color="#000" stop-opacity=".047"/><stop id="stop4492" offset="1" stop-color="#000" stop-opacity="0"/></linearGradient><style id="style4511"/><style id="style4511-26"/><style id="style4511-9"/><style id="style4552"/><linearGradient id="e-1" y1="41.22" x1="24.392" y2="25.343" x2="20.643" gradientUnits="userSpaceOnUse"><stop stop-color="#334545" id="stop22-8"/><stop offset="1" stop-color="#536161" id="stop24-7"/></linearGradient><style id="style4511-2"/><linearGradient xlink:href="#linearGradient4488" id="linearGradient4540" gradientUnits="userSpaceOnUse" gradientTransform="matrix(.3074 0 0 .30379 -63.667 1.994)" x1="288.112" y1="141.785" x2="287.575" y2="79.008"/><linearGradient osb:paint="solid" id="linearGradient5293"><stop id="stop5295" offset="0" stop-color="#9a89c0" stop-opacity="1"/></linearGradient><style id="style2" type="text/css"><![CDATA[.fil5{fill:none}.fil1{fill:#196FBA}.fil0{fill:#25B2EE}.fil4{fill:#793C7C}.fil3{fill:#8C508C}.fil2{fill:white}]]></style><linearGradient xlink:href="#e-1" id="linearGradient1480" x1="2.583" y1="23.586" x2="45.329" y2="23.586" gradientUnits="userSpaceOnUse"/></defs><style id="style4485" type="text/css"/><path id="path4516" d="M2.751 26.22v1.669c0 9.574 5.65 17.282 17.35 17.282h7.012c15.312 0 18.048-11.323 18.048-17.282V26.22c0 5.96-2.736 17.282-18.048 17.282H20.1c-11.7 0-17.349-7.708-17.349-17.282z" opacity="1" fill="url(#linearGradient4540)" fill-opacity="1" stroke="none" stroke-width="1.106" stroke-linecap="square" stroke-linejoin="bevel" stroke-miterlimit="4" stroke-dasharray="none" stroke-dashoffset="0" stroke-opacity=".078"/><path id="path4518" d="M19.561 2.743h8.596c14.073 0 17.004 11.247 17.004 17.282v7.122c0 5.96-2.736 17.282-18.048 17.282H20.1c-11.7 0-17.35-7.708-17.35-17.282v-7.122c0-9.574 5.535-17.282 16.81-17.282z" opacity="1" fill="url(#linearGradient1480)" fill-opacity="1" stroke="#000" stroke-width=".336" stroke-linecap="square" stroke-linejoin="bevel" stroke-miterlimit="4" stroke-dasharray="none" stroke-dashoffset="0" stroke-opacity=".078"/><g transform="matrix(.73243 0 0 .74754 6.513 -746.243)" id="layer1" stroke="none" stroke-opacity="1"><path id="path4409" d="M5.006 1011.96l.086.086 2.336 10.433 10.52 8.953-4.858 5.727-.09-.09-1.52 1.52-.076-1.487.81-.818-.112-1.738-1.414-1.41-1.75-.11h-.002l-.801.8-.807.81h-.002l-.404.406.635 3.068 3.14 3.14a2.12 7.09 45 0 0-.986 1.178 2.12 7.09 45 0 0-.043.057 2.12 7.09 45 0 0-.33.438 2.12 7.09 45 0 0-.008.012 2.12 7.09 45 0 0-1.154 1.922 2.12 7.09 45 0 0-.004.01 2.12 7.09 45 0 0-.201.502 2.292 2.292 0 0 0-2.276.574 2.292 2.292 0 0 0 0 3.242 2.292 2.292 0 0 0 3.24 0 2.292 2.292 0 0 0 .586-2.244 2.12 7.09 45 0 0 .176-.062 2.12 7.09 45 0 0 .12-.05 2.12 7.09 45 0 0 .306-.132 2.12 7.09 45 0 0 .178-.088 2.12 7.09 45 0 0 .228-.117h.002a2.12 7.09 45 0 0 1.711-1.117 2.12 7.09 45 0 0 .053-.041 2.12 7.09 45 0 0 .346-.27 2.12 7.09 45 0 0 .293-.234 2.12 7.09 45 0 0 .716-.623l3.166 3.166 3.065.638.99-.99 1.045-1.02-.113-1.747-1.426-1.424-1.715-.1-.834.803-1.465-.098 1.498-1.5-.054-.055 6.205-5.282 6.191 5.268-.055.055 1.5 1.5-1.464.098-.836-.803-1.715.098-1.426 1.426-.113 1.746 1.045 1.02.99.992 3.064-.639 3.166-3.166a7.09 2.12 45 0 0 .733.635 7.09 2.12 45 0 0 .232.187 7.09 2.12 45 0 0 .426.332 7.09 2.12 45 0 0 .047.033 7.09 2.12 45 0 0 .486.352 7.09 2.12 45 0 0 1.416.856 7.09 2.12 45 0 0 .207.103 7.09 2.12 45 0 0 .256.111 7.09 2.12 45 0 0 .156.065 7.09 2.12 45 0 0 .172.06 2.292 2.292 0 0 0 .584 2.245 2.292 2.292 0 0 0 3.242 0 2.292 2.292 0 0 0 0-3.243 2.292 2.292 0 0 0-2.275-.574 7.09 2.12 45 0 0-1.36-2.432 7.09 2.12 45 0 0-.015-.019 7.09 2.12 45 0 0-.355-.472 7.09 2.12 45 0 0-.004 0 7.09 2.12 45 0 0-.994-1.19l3.14-3.14.637-3.069-.408-.408-.807-.808-.8-.801-1.753.111-1.412 1.412-.115 1.738.81.819-.076 1.486-1.52-1.52-.091.093-4.844-5.71 10.508-8.94 2.338-10.434c.027-.027.058-.06.086-.086l-.07.016.002-.012-.114.037-10.443 2.406-8.371 9.865-8.381-9.879-10.441-2.408-.114-.037.002.012-.07-.016z" opacity=".05" fill="#000" fill-opacity="1" stroke-width=".5" stroke-linecap="round" stroke-linejoin="round"/><path d="M5.006 1011.45l.086.085 2.336 10.434 10.52 8.953-4.858 5.726-.09-.09-1.52 1.52-.076-1.486.81-.819-.112-1.738-1.414-1.41-1.75-.11h-.002l-.801.801-.807.809h-.002l-.404.406.635 3.069 3.14 3.14a2.12 7.09 45 0 0-.986 1.178 2.12 7.09 45 0 0-.043.057 2.12 7.09 45 0 0-.33.437 2.12 7.09 45 0 0-.008.012 2.12 7.09 45 0 0-1.154 1.922 2.12 7.09 45 0 0-.004.01 2.12 7.09 45 0 0-.201.502 2.292 2.292 0 0 0-2.276.574 2.292 2.292 0 0 0 0 3.243 2.292 2.292 0 0 0 3.24 0 2.292 2.292 0 0 0 .586-2.245 2.12 7.09 45 0 0 .176-.062 2.12 7.09 45 0 0 .12-.049 2.12 7.09 45 0 0 .306-.132 2.12 7.09 45 0 0 .178-.088 2.12 7.09 45 0 0 .228-.118h.002a2.12 7.09 45 0 0 1.711-1.117 2.12 7.09 45 0 0 .053-.04 2.12 7.09 45 0 0 .346-.27 2.12 7.09 45 0 0 .293-.235 2.12 7.09 45 0 0 .716-.623l3.166 3.166 3.065.639.99-.99 1.045-1.02-.113-1.748-1.426-1.424-1.715-.1-.834.803-1.465-.098 1.498-1.5-.054-.055 6.205-5.281 6.191 5.267-.055.055 1.5 1.5-1.464.098-.836-.802-1.715.098-1.426 1.426-.113 1.746 1.045 1.02.99.991 3.064-.638 3.166-3.166a7.09 2.12 45 0 0 .733.634 7.09 2.12 45 0 0 .232.188 7.09 2.12 45 0 0 .426.332 7.09 2.12 45 0 0 .047.033 7.09 2.12 45 0 0 .486.352 7.09 2.12 45 0 0 1.416.855 7.09 2.12 45 0 0 .207.104 7.09 2.12 45 0 0 .256.11 7.09 2.12 45 0 0 .156.066 7.09 2.12 45 0 0 .172.06 2.292 2.292 0 0 0 .584 2.244 2.292 2.292 0 0 0 3.242 0 2.292 2.292 0 0 0 0-3.242 2.292 2.292 0 0 0-2.275-.574 7.09 2.12 45 0 0-1.36-2.432 7.09 2.12 45 0 0-.015-.02 7.09 2.12 45 0 0-.355-.472 7.09 2.12 45 0 0-.004 0 7.09 2.12 45 0 0-.994-1.19l3.14-3.14.637-3.068-.408-.408-.807-.809-.8-.8-1.753.11-1.412 1.413-.115 1.738.81.818-.076 1.487-1.52-1.52-.091.092-4.844-5.709 10.508-8.941 2.338-10.434.086-.086-.07.016.002-.012-.114.037-10.443 2.406-8.371 9.866-8.381-9.88-10.441-2.408-.114-.037.002.012-.07-.016z" id="path4407" opacity=".1" fill="#000" fill-opacity="1" stroke-width=".5" stroke-linecap="round" stroke-linejoin="round"/><path id="ellipse4314" d="M5.006 1010.939l.086.086 2.336 10.433 10.52 8.953-4.858 5.727-.09-.09-1.52 1.52-.076-1.487.81-.818-.112-1.738-1.414-1.41-1.75-.11h-.002l-.801.8-.807.81h-.002l-.404.406.635 3.068 3.14 3.14a2.12 7.09 45 0 0-.986 1.178 2.12 7.09 45 0 0-.043.057 2.12 7.09 45 0 0-.33.438 2.12 7.09 45 0 0-.008.012 2.12 7.09 45 0 0-1.154 1.922 2.12 7.09 45 0 0-.004.01 2.12 7.09 45 0 0-.201.502 2.292 2.292 0 0 0-2.276.574 2.292 2.292 0 0 0 0 3.242 2.292 2.292 0 0 0 3.24 0 2.292 2.292 0 0 0 .586-2.244 2.12 7.09 45 0 0 .176-.062 2.12 7.09 45 0 0 .12-.05 2.12 7.09 45 0 0 .306-.132 2.12 7.09 45 0 0 .178-.088 2.12 7.09 45 0 0 .228-.117h.002a2.12 7.09 45 0 0 1.711-1.117 2.12 7.09 45 0 0 .053-.041 2.12 7.09 45 0 0 .346-.27 2.12 7.09 45 0 0 .293-.234 2.12 7.09 45 0 0 .716-.623l3.166 3.166 3.065.638.99-.99 1.045-1.02-.113-1.747-1.426-1.424-1.715-.1-.834.803-1.465-.098 1.498-1.5-.054-.055 6.205-5.282 6.191 5.268-.055.055 1.5 1.5-1.464.098-.836-.803-1.715.098-1.426 1.426-.113 1.746 1.045 1.02.99.992 3.064-.639 3.166-3.166a7.09 2.12 45 0 0 .733.635 7.09 2.12 45 0 0 .232.187 7.09 2.12 45 0 0 .426.332 7.09 2.12 45 0 0 .047.033 7.09 2.12 45 0 0 .486.352 7.09 2.12 45 0 0 1.416.856 7.09 2.12 45 0 0 .207.103 7.09 2.12 45 0 0 .256.111 7.09 2.12 45 0 0 .156.065 7.09 2.12 45 0 0 .172.06 2.292 2.292 0 0 0 .584 2.245 2.292 2.292 0 0 0 3.242 0 2.292 2.292 0 0 0 0-3.243 2.292 2.292 0 0 0-2.275-.574 7.09 2.12 45 0 0-1.36-2.432 7.09 2.12 45 0 0-.015-.019 7.09 2.12 45 0 0-.355-.472 7.09 2.12 45 0 0-.004 0 7.09 2.12 45 0 0-.994-1.19l3.14-3.14.637-3.069-.408-.408-.807-.808-.8-.801-1.753.111-1.412 1.412-.115 1.738.81.819-.076 1.486-1.52-1.52-.091.093-4.844-5.71 10.508-8.94 2.338-10.434c.027-.027.058-.06.086-.086l-.07.016.002-.012-.114.037-10.443 2.406-8.371 9.865-8.381-9.879-10.441-2.408-.114-.037.002.012-.07-.016z" opacity=".15" fill="#000" fill-opacity="1" stroke-width=".5" stroke-linecap="round" stroke-linejoin="round"/><g transform="rotate(-45 -154.073 1106.503) scale(1.1461)" id="g4266"><ellipse id="path4180" cx="22.982" cy="1041.316" rx="1.85" ry="6.186" opacity="1" fill="#dba05d" fill-opacity="1" stroke-width=".5" stroke-linecap="round" stroke-linejoin="round"/><path d="M19.072 1012.272l3.918-7.86 5.035 7.94-2.381 29.603-5.236.012z" id="rect4160" opacity="1" fill="#d6d7d9" fill-opacity="1" stroke-width=".5" stroke-linecap="round" stroke-linejoin="round"/><g id="g4199" fill="#a05a2c" fill-rule="evenodd" stroke-width="1" stroke-linecap="butt" stroke-linejoin="miter"><path id="path4184" transform="translate(0 1004.362)" d="M24.828 36.586l-3.613 2.184a1.85 6.186 0 0 0 .139 1.113l3.458-2.088a1.85 6.186 0 0 0 .02-.842 1.85 6.186 0 0 0-.004-.367z"/><path id="path4186" transform="translate(0 1004.362)" d="M24.744 38.826l-3.217 1.945a1.85 6.186 0 0 0 .303 1.016l2.736-1.652a1.85 6.186 0 0 0 .178-1.309z"/><path id="path4188" transform="translate(0 1004.362)" d="M24.287 41.334l-2.068 1.25a1.85 6.186 0 0 0 .763.557 1.85 6.186 0 0 0 1.305-1.807z"/></g><circle id="path4182" cx="22.965" cy="1048.342" r="2" opacity="1" fill="#bb891d" fill-opacity="1" stroke-width=".5" stroke-linecap="round" stroke-linejoin="round"/><path d="M23.03.005l-5.044 8.066 2.422 29.534 2.637-.005c-.08-11.871-.025-25.575-.015-37.595z" transform="translate(0 1004.362)" id="path4209" opacity="1" fill="#a4a5aa" fill-opacity="1" stroke-width=".5" stroke-linecap="round" stroke-linejoin="round"/><path id="rect4207" opacity="1" fill="#d4aa00" fill-opacity="1" stroke-width=".5" stroke-linecap="round" stroke-linejoin="round" d="M20 1038.362h6v3h-6z"/><path d="M23 34v3h3v-3z" transform="translate(0 1004.362)" id="rect4229" opacity="1" fill="#f3d056" fill-opacity="1" stroke-width=".5" stroke-linecap="round" stroke-linejoin="round"/><path id="path4253" d="M26.878 1012.837l-1.603 25.025-1.548-.04.232-29.73s2.142 3.468 2.919 4.745z" opacity=".733" fill="#efefef" fill-opacity="1" stroke-width=".5" stroke-linecap="round" stroke-linejoin="round"/><path d="M16.145 1037.36l-1.15 1.012v1.987h.003v.502l2.286 1.502h11.427l2.284-1.497v-1.222l.015-1.274-1.147-1.007h-1.76l-1.118.998-.02 1.01-1.135.993-5.668.018-1.126-1.014-.004-1.006-1.143-1.002z" id="rect4162" opacity="1" fill="#d4aa00" fill-opacity="1" stroke-width=".5" stroke-linecap="round" stroke-linejoin="round"/><path d="M16.145 32.998l-1.149 1.012v1.986h.002v.502L17.283 38h5.703v-1.988l-2.824.008-1.125-1.014L19.031 34l-1.142-1.002z" transform="translate(0 1004.362)" id="path4255" opacity="1" fill="#bb891d" fill-opacity="1" stroke-width=".5" stroke-linecap="round" stroke-linejoin="round"/><circle id="path4260" cx="23.384" cy="1048.186" r="1.237" opacity="1" fill="#d4aa00" fill-opacity="1" stroke-width=".5" stroke-linecap="round" stroke-linejoin="round"/></g><g id="g4282" transform="scale(-1.1461 1.1461) rotate(-45 -155.406 1015.932)"><ellipse ry="6.186" rx="1.85" cy="1041.316" cx="22.982" id="ellipse4284" opacity="1" fill="#dba05d" fill-opacity="1" stroke-width=".5" stroke-linecap="round" stroke-linejoin="round"/><path id="path4286" d="M19.072 1012.272l3.918-7.86 5.035 7.94-2.381 29.603-5.236.012z" opacity="1" fill="#d6d7d9" fill-opacity="1" stroke-width=".5" stroke-linecap="round" stroke-linejoin="round"/><g id="g4288" fill="#a05a2c" fill-rule="evenodd" stroke-width="1" stroke-linecap="butt" stroke-linejoin="miter"><path d="M24.828 36.586l-3.613 2.184a1.85 6.186 0 0 0 .139 1.113l3.458-2.088a1.85 6.186 0 0 0 .02-.842 1.85 6.186 0 0 0-.004-.367z" transform="translate(0 1004.362)" id="path4290"/><path d="M24.744 38.826l-3.217 1.945a1.85 6.186 0 0 0 .303 1.016l2.736-1.652a1.85 6.186 0 0 0 .178-1.309z" transform="translate(0 1004.362)" id="path4292"/><path d="M24.287 41.334l-2.068 1.25a1.85 6.186 0 0 0 .763.557 1.85 6.186 0 0 0 1.305-1.807z" transform="translate(0 1004.362)" id="path4294"/></g><circle r="2" cy="1048.342" cx="22.965" id="circle4296" opacity="1" fill="#bb891d" fill-opacity="1" stroke-width=".5" stroke-linecap="round" stroke-linejoin="round"/><path id="path4298" transform="translate(0 1004.362)" d="M23.03.005l-5.044 8.066 2.422 29.534 2.637-.005c-.08-11.871-.025-25.575-.015-37.595z" opacity="1" fill="#a4a5aa" fill-opacity="1" stroke-width=".5" stroke-linecap="round" stroke-linejoin="round"/><path id="rect4300" opacity="1" fill="#d4aa00" fill-opacity="1" stroke-width=".5" stroke-linecap="round" stroke-linejoin="round" d="M20 1038.362h6v3h-6z"/><path id="path4302" transform="translate(0 1004.362)" d="M23 34v3h3v-3z" opacity="1" fill="#f3d056" fill-opacity="1" stroke-width=".5" stroke-linecap="round" stroke-linejoin="round"/><path d="M26.878 1012.837l-1.603 25.025-1.548-.04.232-29.73s2.142 3.468 2.919 4.745z" id="path4304" opacity=".733" fill="#eee" fill-opacity="1" stroke-width=".5" stroke-linecap="round" stroke-linejoin="round"/><path id="path4306" d="M16.145 1037.36l-1.15 1.012v1.987h.003v.502l2.286 1.502h11.427l2.284-1.497v-1.222l.015-1.274-1.147-1.007h-1.76l-1.118.998-.02 1.01-1.135.993-5.668.018-1.126-1.014-.004-1.006-1.143-1.002z" opacity="1" fill="#d4aa00" fill-opacity="1" stroke-width=".5" stroke-linecap="round" stroke-linejoin="round"/><path id="path4308" transform="translate(0 1004.362)" d="M16.145 32.998l-1.149 1.012v1.986h.002v.502L17.283 38h5.703v-1.988l-2.824.008-1.125-1.014L19.031 34l-1.142-1.002z" opacity="1" fill="#bb891d" fill-opacity="1" stroke-width=".5" stroke-linecap="round" stroke-linejoin="round"/><circle r="1.237" cy="1048.186" cx="23.384" id="circle4310" opacity="1" fill="#d4aa00" fill-opacity="1" stroke-width=".5" stroke-linecap="round" stroke-linejoin="round"/></g></g></svg>