<svg xmlns="http://www.w3.org/2000/svg" width="48" height="48" version="1.1" id="svg38"><defs id="defs22"><style id="style4511"/><style id="style4511-26"/><style id="style4511-9"/><style id="style4552"/><style id="style4511-2"/></defs><style id="style4485" type="text/css"/><path d="M19.677 3.253h8.618c14.108 0 17.047 11.413 17.047 17.537v7.229c0 6.047-2.744 17.537-18.094 17.537h-7.03c-11.73 0-17.394-7.822-17.394-17.537V20.79c0-9.715 5.549-17.537 16.853-17.537z" id="rect4144" opacity="1" fill="#f08200" fill-opacity="1" stroke="#000" stroke-width=".339" stroke-linecap="square" stroke-linejoin="bevel" stroke-miterlimit="4" stroke-dasharray="none" stroke-dashoffset="0" stroke-opacity=".078"/><g id="g1273" transform="matrix(1 0 0 1.0326 55.624 -1.382)" fill="#fff"><circle id="circle1236" r="4" cy="19.06" cx="-40.506"/><path id="rect1238" d="M-20.576 15.06h2v8h-2z"/><path id="path1240" d="M-20.741 27.06c-1.414 3.805-5.068 6.522-9.366 6.522s-7.952-2.716-9.366-6.522h-3.918c1.15 5.733 6.212 10.053 12.284 10.053 6.072 0 11.133-4.32 12.284-10.053z"/></g></svg>