<svg xmlns:osb="http://www.openswatchbook.org/uri/2009/osb" xmlns="http://www.w3.org/2000/svg" xmlns:xlink="http://www.w3.org/1999/xlink" width="48" height="48" version="1.1" id="svg38"><defs id="defs22"><linearGradient id="linearGradient4488"><stop id="stop4490" offset="0" stop-color="#000" stop-opacity=".047"/><stop id="stop4492" offset="1" stop-color="#000" stop-opacity="0"/></linearGradient><style id="style4511"/><style id="style4511-26"/><style id="style4511-9"/><style id="style4552"/><style id="style4511-2"/><linearGradient xlink:href="#linearGradient4488" id="linearGradient4540" gradientUnits="userSpaceOnUse" gradientTransform="rotate(-179.934 55.36 23.231) scale(.3038)" x1="288.112" y1="141.785" x2="287.575" y2="79.008"/><linearGradient osb:paint="solid" id="linearGradient5293"><stop id="stop5295" offset="0" stop-color="#9a89c0" stop-opacity="1"/></linearGradient><style id="style4511-87"/><style id="style4511-26-7"/><style id="style4511-9-1"/><style id="style4552-53"/><style id="style4511-2-9"/><style id="style4511-8"/><style id="style4511-26-4"/><style id="style4511-9-8"/><style id="style4552-5"/><style id="style4511-2-5"/></defs><style id="style4485" type="text/css"/><style type="text/css" id="style4485-7"/><style id="style4485-6" type="text/css"/><path id="path4516" d="M45.084 22.218l.003-1.669c.017-9.574-5.553-17.292-17.115-17.312l-6.93-.012C5.908 3.198 3.184 14.515 3.173 20.475l-.003 1.669c.01-5.96 2.735-17.278 17.867-17.25l6.93.011c11.563.02 17.133 7.739 17.116 17.313z" opacity="1" fill="url(#linearGradient4540)" fill-opacity="1" stroke="none" stroke-width="1.1" stroke-linecap="square" stroke-linejoin="bevel" stroke-miterlimit="4" stroke-dasharray="none" stroke-dashoffset="0" stroke-opacity=".078"/><path d="M28.429 45.667c11.143.02 16.627-7.678 16.644-17.252l.007-4.293-41.912-.074-.007 4.293c-.01 6.035 2.866 17.286 16.774 17.31z" id="path4518" opacity="1" fill="#666" fill-opacity="1" stroke="#000" stroke-width=".334" stroke-linecap="square" stroke-linejoin="bevel" stroke-miterlimit="4" stroke-dasharray="none" stroke-dashoffset="0" stroke-opacity=".078"/><path d="M19.79 2.537C8.649 2.532 3.175 10.237 3.17 19.81l-.002 4.293 41.912.018.002-4.293c.003-6.035-2.89-17.283-16.797-17.288z" id="path4518-7" opacity="1" fill="#e6e6e6" fill-opacity="1" stroke="#000" stroke-width=".334" stroke-linecap="square" stroke-linejoin="bevel" stroke-miterlimit="4" stroke-dasharray="none" stroke-dashoffset="0" stroke-opacity=".078"/><g id="g20" transform="matrix(.6758 0 0 .70593 7.489 7.258)" stroke-width="1.332"><path id="path14-3" d="M38.2 39.1L8 43.4 8.1 8c0-.6.4-1 1-1h29c.6 0 1 .4 1 1v30.1c0 .5-.4.9-.9 1z" fill="#f0f0f0"/><path id="path16-6" d="M19 19.4l1.8-.7c.3-.1.7 0 .9.2.8.8 2.4 2.8 3.1 4.3.1.2.3.2.4 0C26.3 21 31.9 10 42.3 3.8c.2-.1.5-.2.7-.1l1.2.5s-13.4 8-18.9 24.6c-.2.7-1.2.8-1.5.1-1.1-2.3-3.1-6.1-5.1-8.2-.4-.4-.2-1.1.3-1.3z" fill="#285076"/><path id="path18" d="M38.8 38.8c-.3.2-1 0-1.5-.7-.7-1-2.4-3.4-3.6-7.6-10.9 7.1-24 11.6-28.6 13.1-.1 0-.1.2.1.2l32.9-4.7c0 .1.5 0 .7-.3z" fill="#dcdddd"/></g></svg>