<svg xmlns="http://www.w3.org/2000/svg" xmlns:xlink="http://www.w3.org/1999/xlink" width="48" height="48" version="1.1" id="svg38"><defs id="defs22"><linearGradient id="linearGradient3764" x1="1" x2="47" gradientUnits="userSpaceOnUse" gradientTransform="rotate(-90 -13.923 65.898)"><stop stop-color="#e4e4e4" stop-opacity="1" id="stop1281"/><stop offset="1" stop-color="#eee" stop-opacity="1" id="stop1283"/></linearGradient><linearGradient id="linearGradient4488"><stop id="stop4490" offset="0" stop-color="#000" stop-opacity=".047"/><stop id="stop4492" offset="1" stop-color="#000" stop-opacity="0"/></linearGradient><style id="style4511"/><style id="style4511-26"/><style id="style4511-9"/><style id="style4552"/><style id="style4511-2"/><linearGradient xlink:href="#linearGradient4488" id="linearGradient4544" gradientUnits="userSpaceOnUse" gradientTransform="translate(-62.887 1.994) scale(.3038)" x1="288.112" y1="141.785" x2="287.575" y2="79.008"/><linearGradient xlink:href="#linearGradient3764" id="linearGradient1292" x1="2.585" y1="23.586" x2="44.832" y2="23.586" gradientUnits="userSpaceOnUse"/></defs><style id="style4485" type="text/css"/><path id="path4524" d="M2.752 26.22v1.67c0 9.573 5.583 17.281 17.146 17.281h6.93c15.133 0 17.837-11.322 17.837-17.282v-1.668c0 5.96-2.704 17.282-17.837 17.282h-6.93c-11.563 0-17.146-7.708-17.146-17.282z" opacity="1" fill="url(#linearGradient4544)" fill-opacity="1" stroke="none" stroke-width="1.1" stroke-linecap="square" stroke-linejoin="bevel" stroke-miterlimit="4" stroke-dasharray="none" stroke-dashoffset="0" stroke-opacity=".078"/><path id="path4526" d="M19.365 2.742h8.495c13.908 0 16.805 11.247 16.805 17.282v7.124c0 5.96-2.705 17.282-17.837 17.282h-6.93c-11.563 0-17.146-7.708-17.146-17.282v-7.124c0-9.574 5.47-17.282 16.613-17.282z" opacity="1" fill="url(#linearGradient1292)" fill-opacity="1" stroke="#000" stroke-width=".334" stroke-linecap="square" stroke-linejoin="bevel" stroke-miterlimit="4" stroke-dasharray="none" stroke-dashoffset="0" stroke-opacity=".078"/><g transform="matrix(.88865 0 0 .81421 2.38 -813.952)" id="layer1"><g transform="matrix(1.13873 0 0 .97794 -2.246 23.2)" id="g4172" fill-rule="evenodd" stroke="none" stroke-linecap="butt" stroke-linejoin="miter" stroke-opacity="1"><path id="path4149" d="M23.035 1007.898c3.395 7.15 4.37 8.005 8.592 15.01 8.802 13.861 1.29 27.04-8.566 26.992h-.023c-9.857.05-17.368-13.13-8.567-26.992 4.195-7.028 4.208-7.064 8.564-15.01z" opacity=".05" fill="#000" stroke-width="4"/><path d="M23.035 1007.372c3.395 7.15 4.37 8.005 8.592 15.01 8.802 13.86 1.29 27.04-8.566 26.992h-.023c-9.857.05-17.368-13.13-8.567-26.992 4.195-7.028 4.208-7.065 8.564-15.01z" id="path4147" opacity=".1" fill="#000" stroke-width="4"/><path id="path4145" d="M23.035 1006.84c3.395 7.15 4.37 8.005 8.592 15.01 8.802 13.86 1.29 27.04-8.566 26.992h-.023c-9.857.05-17.368-13.13-8.567-26.993 4.195-7.027 4.208-7.064 8.564-15.01z" opacity=".15" fill="#000" stroke-width="4"/><path d="M23.056 1006.368c3.342 7.15 4.301 8.005 8.459 15.01 8.664 13.861 1.27 27.04-8.434 26.992h-.022c-9.704.049-17.099-13.13-8.434-26.992 4.13-7.028 4.142-7.065 8.43-15.01z" id="path4219" opacity="1" fill="#579eba" fill-opacity="1" stroke-width="4"/><path d="M23.056 1006.368l.067.127-.02-.01c-4.94 16.079-8.252 17.114-9.08 26.161-.322 8.54 6.777 17.828 18.826 10.01-2.688 4.338-7.03 5.723-9.768 5.71h-.022c-9.704.049-17.099-13.13-8.434-26.992 4.13-7.028 4.142-7.065 8.43-15.01z" id="path4251" opacity="1" fill="#468ca9" fill-opacity="1" stroke-width="4"/><path d="M26.736 1016.85s11.58 13.459 4.863 23.267c-1.523 2.161-4.926 1.902-3.129-.291 1.846-2.607 5.27-9.963-1.734-22.976z" id="path4167" fill="#c2ecf0" fill-opacity="1" stroke-width="1"/></g></g></svg>