<svg xmlns:osb="http://www.openswatchbook.org/uri/2009/osb" xmlns="http://www.w3.org/2000/svg" xmlns:xlink="http://www.w3.org/1999/xlink" width="48" height="48" version="1.1" id="svg38"><defs id="defs22"><linearGradient id="linearGradient4488"><stop id="stop4490" offset="0" stop-color="#000" stop-opacity=".047"/><stop id="stop4492" offset="1" stop-color="#000" stop-opacity="0"/></linearGradient><style id="style4511"/><style id="style4511-26"/><style id="style4511-9"/><style id="style4552"/><style id="style4511-2"/><linearGradient xlink:href="#linearGradient4488" id="linearGradient4540" gradientUnits="userSpaceOnUse" gradientTransform="matrix(-.00052 .30406 -.2948 -.00054 45.95 -62.006)" x1="288.112" y1="141.785" x2="287.575" y2="79.008"/><linearGradient osb:paint="solid" id="linearGradient5293"><stop id="stop5295" offset="0" stop-color="#9a89c0" stop-opacity="1"/></linearGradient><style id="style4511-87"/><style id="style4511-26-7"/><style id="style4511-9-1"/><style id="style4552-53"/><style id="style4511-2-9"/><style id="style4511-8"/><style id="style4511-26-4"/><style id="style4511-9-8"/><style id="style4552-5"/><style id="style4511-2-5"/><style id="style4511-879"/><style id="style4511-26-76"/><style id="style4511-9-2"/><style id="style4552-8"/><style id="style4511-2-0"/></defs><style id="style4485" type="text/css"/><style type="text/css" id="style4485-7"/><style id="style4485-6" type="text/css"/><style type="text/css" id="style4485-3"/><path id="path4516" d="M22.328 3.645l-1.619-.003c-9.29-.017-16.78 5.557-16.8 17.13l-.012 6.936C3.871 42.853 14.854 45.58 20.637 45.59l1.62.003c-5.784-.01-16.767-2.737-16.74-17.882l.011-6.936c.02-11.573 7.51-17.147 16.8-17.13z" opacity="1" fill="url(#linearGradient4540)" fill-opacity="1" stroke="none" stroke-width="1.084" stroke-linecap="square" stroke-linejoin="bevel" stroke-miterlimit="4" stroke-dasharray="none" stroke-dashoffset="0" stroke-opacity=".078"/><path d="M45.083 20.314c.02-11.152-7.45-16.641-16.741-16.658l-4.166-.008-.072 41.948 4.166.008c5.857.01 16.775-2.869 16.799-16.789z" id="path4518" opacity="1" fill="#9f7835" fill-opacity="1" stroke="#000" stroke-width=".329" stroke-linecap="square" stroke-linejoin="bevel" stroke-miterlimit="4" stroke-dasharray="none" stroke-dashoffset="0" stroke-opacity=".078"/><path d="M3.23 28.96c-.005 11.152 7.472 16.63 16.763 16.634l4.166.002.017-41.947-4.166-.002C14.153 3.644 3.24 6.539 3.233 20.458z" id="path4518-7" opacity="1" fill="#9f7835" fill-opacity="1" stroke="#000" stroke-width=".329" stroke-linecap="square" stroke-linejoin="bevel" stroke-miterlimit="4" stroke-dasharray="none" stroke-dashoffset="0" stroke-opacity=".078"/><path id="path4518-0" d="M7.091 28.269v-6.885c0-11.272 9.208-13.62 14.15-13.62h5.831c4.88 0 14.15 2.192 14.15 14.456v5.617c0 9.37-6.31 13.896-14.15 13.896H21.24c-7.838 0-14.149-4.434-14.149-13.464z" opacity="1" fill="#f8ce7a" fill-opacity="1" stroke="#000" stroke-width=".272" stroke-linecap="square" stroke-linejoin="bevel" stroke-miterlimit="4" stroke-dasharray="none" stroke-dashoffset="0" stroke-opacity=".078"/><g id="g2835" transform="translate(.25 .375)"><g transform="matrix(.84151 0 0 .92721 4.25 3.787)" id="g285"><g id="g47"><circle id="circle45" r="1" cy="10" cx="10" fill="#695225"/></g><g id="g51"><circle id="circle49" r="1" cy="13" cx="10" fill="#695225"/></g><g id="g55"><circle id="circle53" r="1" cy="16" cx="10" fill="#695225"/></g><g id="g59"><circle id="circle57" r="1" cy="19" cx="10" fill="#695225"/></g><g id="g63"><circle id="circle61" r="1" cy="22" cx="10" fill="#695225"/></g><g id="g67"><circle id="circle65" r="1" cy="25" cx="10" fill="#695225"/></g><g id="g71"><circle id="circle69" r="1" cy="10" cx="13" fill="#695225"/></g><g id="g75"><circle id="circle73" r="1" cy="13" cx="13" fill="#695225"/></g><g id="g79"><circle id="circle77" r="1" cy="16" cx="13" fill="#695225"/></g><g id="g83"><circle id="circle81" r="1" cy="19" cx="13" fill="#695225"/></g><g id="g87"><circle id="circle85" r="1" cy="22" cx="13" fill="#695225"/></g><g id="g91"><circle id="circle89" r="1" cy="25" cx="13" fill="#695225"/></g><g id="g95"><circle id="circle93" r="1" cy="10" cx="16" fill="#695225"/></g><g id="g99"><circle id="circle97" r="1" cy="13" cx="16" fill="#695225"/></g><g id="g103"><circle id="circle101" r="1" cy="16" cx="16" fill="#695225"/></g><g id="g107"><circle id="circle105" r="1" cy="19" cx="16" fill="#695225"/></g><g id="g111"><circle id="circle109" r="1" cy="22" cx="16" fill="#695225"/></g><g id="g115"><circle id="circle113" r="1" cy="25" cx="16" fill="#695225"/></g><g id="g119"><circle id="circle117" r="1" cy="10" cx="19" fill="#695225"/></g><g id="g123"><circle id="circle121" r="1" cy="13" cx="19" fill="#695225"/></g><g id="g127"><circle id="circle125" r="1" cy="16" cx="19" fill="#695225"/></g><g id="g131"><circle id="circle129" r="1" cy="19" cx="19" fill="#695225"/></g><g id="g135"><circle id="circle133" r="1" cy="22" cx="19" fill="#695225"/></g><g id="g139"><circle id="circle137" r="1" cy="25" cx="19" fill="#695225"/></g><g id="g143"><circle id="circle141" r="1" cy="10" cx="22" fill="#695225"/></g><g id="g147"><circle id="circle145" r="1" cy="13" cx="22" fill="#695225"/></g><g id="g151"><circle id="circle149" r="1" cy="16" cx="22" fill="#695225"/></g><g id="g155"><circle id="circle153" r="1" cy="19" cx="22" fill="#695225"/></g><g id="g159"><circle id="circle157" r="1" cy="22" cx="22" fill="#695225"/></g><g id="g163"><circle id="circle161" r="1" cy="25" cx="22" fill="#695225"/></g><g id="g167"><circle id="circle165" r="1" cy="10" cx="25" fill="#695225"/></g><g id="g171"><circle id="circle169" r="1" cy="13" cx="25" fill="#695225"/></g><g id="g175"><circle id="circle173" r="1" cy="16" cx="25" fill="#695225"/></g><g id="g179"><circle id="circle177" r="1" cy="19" cx="25" fill="#695225"/></g><g id="g183"><circle id="circle181" r="1" cy="22" cx="25" fill="#695225"/></g><g id="g187"><circle id="circle185" r="1" cy="25" cx="25" fill="#695225"/></g><g id="g191"><circle id="circle189" r="1" cy="10" cx="28" fill="#695225"/></g><g id="g195"><circle id="circle193" r="1" cy="13" cx="28" fill="#695225"/></g><g id="g199"><circle id="circle197" r="1" cy="16" cx="28" fill="#695225"/></g><g id="g203"><circle id="circle201" r="1" cy="19" cx="28" fill="#695225"/></g><g id="g207"><circle id="circle205" r="1" cy="22" cx="28" fill="#695225"/></g><g id="g211"><circle id="circle209" r="1" cy="25" cx="28" fill="#695225"/></g><g id="g215"><circle id="circle213" r="1" cy="10" cx="31" fill="#695225"/></g><g id="g219"><circle id="circle217" r="1" cy="13" cx="31" fill="#695225"/></g><g id="g223"><circle id="circle221" r="1" cy="16" cx="31" fill="#695225"/></g><g id="g227"><circle id="circle225" r="1" cy="19" cx="31" fill="#695225"/></g><g id="g231"><circle id="circle229" r="1" cy="22" cx="31" fill="#695225"/></g><g id="g235"><circle id="circle233" r="1" cy="25" cx="31" fill="#695225"/></g><g id="g239"><circle id="circle237" r="1" cy="10" cx="34" fill="#695225"/></g><g id="g243"><circle id="circle241" r="1" cy="13" cx="34" fill="#695225"/></g><g id="g247"><circle id="circle245" r="1" cy="16" cx="34" fill="#695225"/></g><g id="g251"><circle id="circle249" r="1" cy="19" cx="34" fill="#695225"/></g><g id="g255"><circle id="circle253" r="1" cy="22" cx="34" fill="#695225"/></g><g id="g259"><circle id="circle257" r="1" cy="25" cx="34" fill="#695225"/></g><g id="g263"><circle id="circle261" r="1" cy="10" cx="37" fill="#695225"/></g><g id="g267"><circle id="circle265" r="1" cy="13" cx="37" fill="#695225"/></g><g id="g271"><circle id="circle269" r="1" cy="16" cx="37" fill="#695225"/></g><g id="g275"><circle id="circle273" r="1" cy="19" cx="37" fill="#695225"/></g><g id="g279"><circle id="circle277" r="1" cy="22" cx="37" fill="#695225"/></g><g id="g283"><circle id="circle281" r="1" cy="25" cx="37" fill="#695225"/></g></g><g transform="translate(-6.368 -.58)" id="g289"><circle id="circle287" r="4" cy="33.99" cx="35" fill="#fffffe"/></g><g transform="translate(-6.368 -.58)" id="g293"><circle id="circle291" r="2" cy="33.989" cx="35" fill="#9f7835"/></g><g transform="translate(-6.368 -.58)" id="g297"><circle id="circle295" r="4" cy="33.99" cx="25.5" fill="#fffffe"/></g><g transform="translate(-6.368 -.58)" id="g301"><circle id="circle299" r="2" cy="33.989" cx="25.5" fill="#9f7835"/></g></g></svg>