<svg xmlns:osb="http://www.openswatchbook.org/uri/2009/osb" xmlns="http://www.w3.org/2000/svg" xmlns:xlink="http://www.w3.org/1999/xlink" width="48" height="48" version="1.1" id="svg38"><defs id="defs22"><linearGradient id="linearGradient4488"><stop id="stop4490" offset="0" stop-color="#000" stop-opacity=".047"/><stop id="stop4492" offset="1" stop-color="#000" stop-opacity="0"/></linearGradient><style id="style4511"/><style id="style4511-26"/><style id="style4511-9"/><style id="style4552"/><style id="style4511-2"/><linearGradient xlink:href="#linearGradient4488" id="linearGradient4540" gradientUnits="userSpaceOnUse" gradientTransform="matrix(.3074 0 0 .30379 -63.667 1.994)" x1="288.112" y1="141.785" x2="287.575" y2="79.008"/><linearGradient osb:paint="solid" id="linearGradient5293"><stop id="stop5295" offset="0" stop-color="#9a89c0" stop-opacity="1"/></linearGradient><style id="style2" type="text/css"><![CDATA[.fil5{fill:none}.fil1{fill:#196FBA}.fil0{fill:#25B2EE}.fil4{fill:#793C7C}.fil3{fill:#8C508C}.fil2{fill:white}]]></style></defs><style id="style4485" type="text/css"/><path id="path4516" d="M2.751 26.22v1.669c0 9.574 5.65 17.282 17.35 17.282h7.012c15.312 0 18.048-11.323 18.048-17.282V26.22c0 5.96-2.736 17.282-18.048 17.282H20.1c-11.7 0-17.349-7.708-17.349-17.282z" opacity="1" fill="url(#linearGradient4540)" fill-opacity="1" stroke="none" stroke-width="1.106" stroke-linecap="square" stroke-linejoin="bevel" stroke-miterlimit="4" stroke-dasharray="none" stroke-dashoffset="0" stroke-opacity=".078"/><path id="path4518" d="M19.561 2.743h8.596c14.073 0 17.004 11.247 17.004 17.282v7.122c0 5.96-2.736 17.282-18.048 17.282H20.1c-11.7 0-17.35-7.708-17.35-17.282v-7.122c0-9.574 5.535-17.282 16.81-17.282z" opacity="1" fill="#e6e6e6" fill-opacity="1" stroke="#000" stroke-width=".336" stroke-linecap="square" stroke-linejoin="bevel" stroke-miterlimit="4" stroke-dasharray="none" stroke-dashoffset="0" stroke-opacity=".078"/><g transform="matrix(.65714 0 0 .69415 9.481 -690.426)" id="layer1" fill-opacity="1" stroke="none" stroke-width=".5" stroke-linecap="round" stroke-linejoin="round" stroke-opacity="1"><path d="M19.995 1008.85v5.034l-10.316.03.031 4.935-5.142-.022-.04 9.014H9.71v5.016l10.314.023-.029 17.006h19.532v-41.035z" id="path4833" opacity=".05" fill="#000"/><path id="path4831" d="M20.022 1008.336v5.033L10 1013.4l.03 4.935-4.996-.022-.039 9.015h5.035v5.016l10.02.023-.028 17.005h18.976v-41.035z" opacity=".1" fill="#000"/><path d="M20.022 1007.842v5.034l-10.022.03.03 4.934-4.996-.022-.039 9.015h5.035v5.016l10.02.023-.028 17.006h18.976v-41.036z" id="path4829" opacity=".15" fill="#000"/><path id="rect4812" d="M20.022 1007.325v5.034l-10.022.03.03 4.934-4.996-.022-.039 9.015h5.035v5.016l10.02.023-.028 17.006h18.976v-41.036z" opacity="1" fill="#000"/><path id="rect4818" d="M20 1012.355l.034 5.057-10-.01-.034 8.967h15v2.991h9v-17.008z" opacity="1" fill="red"/><path id="rect4822" opacity="1" fill="#fff" d="M25.033 1029.392H34v13.976h-8.967z"/></g></svg>