<svg xmlns:osb="http://www.openswatchbook.org/uri/2009/osb" xmlns="http://www.w3.org/2000/svg" xmlns:xlink="http://www.w3.org/1999/xlink" width="48" height="48" version="1.1" id="svg38"><defs id="defs22"><linearGradient id="linearGradient4488"><stop id="stop4490" offset="0" stop-color="#000" stop-opacity=".047"/><stop id="stop4492" offset="1" stop-color="#000" stop-opacity="0"/></linearGradient><style id="style4511"/><style id="style4511-26"/><style id="style4511-9"/><style id="style4552"/><style id="style4511-2"/><linearGradient xlink:href="#linearGradient4488" id="linearGradient4540" gradientUnits="userSpaceOnUse" gradientTransform="matrix(.30673 0 0 .3038 -63.522 1.994)" x1="288.112" y1="141.785" x2="287.575" y2="79.008"/><linearGradient osb:paint="solid" id="linearGradient5293"><stop id="stop5295" offset="0" stop-color="#9a89c0" stop-opacity="1"/></linearGradient><linearGradient gradientTransform="rotate(-90 24 24)" gradientUnits="userSpaceOnUse" x2="47" x1="1" id="linearGradient3764-36"><stop offset="0" id="stop7-75" stop-color="#eb3c00" stop-opacity="1"/><stop id="stop9-35" offset="1" stop-color="#dfd466" stop-opacity="1"/></linearGradient><linearGradient osb:paint="solid" id="linearGradient5251"><stop id="stop5253" offset="0" stop-color="#2f343f" stop-opacity="1"/></linearGradient><linearGradient xlink:href="#linearGradient3764-36" id="linearGradient2107" x1="2.583" y1="23.739" x2="45.236" y2="23.739" gradientUnits="userSpaceOnUse" gradientTransform="rotate(-90 23.91 23.739)"/></defs><style id="style4485" type="text/css"/><path id="path4516" d="M2.75 26.22v1.669c0 9.574 5.638 17.282 17.312 17.282h6.998c15.278 0 18.008-11.323 18.008-17.282V26.22c0 5.96-2.73 17.282-18.008 17.282h-6.998c-11.674 0-17.311-7.708-17.311-17.282z" opacity="1" fill="url(#linearGradient4540)" fill-opacity="1" stroke="none" stroke-width="1.105" stroke-linecap="square" stroke-linejoin="bevel" stroke-miterlimit="4" stroke-dasharray="none" stroke-dashoffset="0" stroke-opacity=".078"/><path id="path4518" d="M44.905 19.354v8.576c0 14.042-11.329 16.967-17.408 16.967h-7.175c-6.003 0-17.407-2.73-17.407-18.009v-6.996c0-11.674 7.763-17.311 17.407-17.311h7.175c9.644 0 17.408 5.522 17.408 16.773z" opacity="1" fill="url(#linearGradient2107)" fill-opacity="1" stroke="#000" stroke-width=".337" stroke-linecap="square" stroke-linejoin="bevel" stroke-miterlimit="4" stroke-dasharray="none" stroke-dashoffset="0" stroke-opacity=".078"/><g id="g1913" transform="translate(49.436 .75)" fill-rule="evenodd" stroke="none" stroke-width="1"><path id="Star-1" d="M-16.306 27.986c-.916.612-1.903 1.977-2.199 3.026l-1.794 6.364c-.298 1.06-1.25 1.36-2.106.684l-5.192-4.093c-.864-.682-2.468-1.2-3.557-1.156l-6.606.26c-1.1.043-1.68-.77-1.302-1.792l2.289-6.202c.381-1.033.377-2.718 0-3.74l-2.29-6.203c-.38-1.033.214-1.835 1.303-1.792l6.606.26c1.1.044 2.702-.48 3.557-1.156l5.192-4.094c.865-.681 1.81-.364 2.106.685l1.794 6.363c.3 1.06 1.293 2.421 2.199 3.027l5.498 3.672c.915.612.906 1.61 0 2.215z" fill="#e9e9e9"/><path id="Rectangle-1" fill="#ee9a00" d="M-31.907 19.528h3v8h-3z"/><path id="Combined-Shape" d="M-18.898 27.528l-2.14-7-2.869.877 1.872 6.123z" fill="#ee9a00"/><path id="Rectangle-2" fill="#ee9a00" d="M-27.907 16.528h3v11h-3z"/></g></svg>