<svg xmlns:osb="http://www.openswatchbook.org/uri/2009/osb" xmlns="http://www.w3.org/2000/svg" xmlns:xlink="http://www.w3.org/1999/xlink" width="48" height="48" version="1.1" id="svg38"><defs id="defs22"><linearGradient id="linearGradient4488"><stop id="stop4490" offset="0" stop-color="#000" stop-opacity=".047"/><stop id="stop4492" offset="1" stop-color="#000" stop-opacity="0"/></linearGradient><style id="style4511"/><style id="style4511-26"/><style id="style4511-9"/><style id="style4552"/><style id="style4511-2"/><linearGradient xlink:href="#linearGradient4488" id="linearGradient4540" gradientUnits="userSpaceOnUse" gradientTransform="matrix(.3074 0 0 .30379 -63.667 1.994)" x1="288.112" y1="141.785" x2="287.575" y2="79.008"/><linearGradient osb:paint="solid" id="linearGradient5293"><stop id="stop5295" offset="0" stop-color="#9a89c0" stop-opacity="1"/></linearGradient><style id="style2" type="text/css"><![CDATA[.fil5{fill:none}.fil1{fill:#196FBA}.fil0{fill:#25B2EE}.fil4{fill:#793C7C}.fil3{fill:#8C508C}.fil2{fill:white}]]></style></defs><style id="style4485" type="text/css"/><path id="path4516" d="M2.751 26.22v1.669c0 9.574 5.65 17.282 17.35 17.282h7.012c15.312 0 18.048-11.323 18.048-17.282V26.22c0 5.96-2.736 17.282-18.048 17.282H20.1c-11.7 0-17.349-7.708-17.349-17.282z" opacity="1" fill="url(#linearGradient4540)" fill-opacity="1" stroke="none" stroke-width="1.106" stroke-linecap="square" stroke-linejoin="bevel" stroke-miterlimit="4" stroke-dasharray="none" stroke-dashoffset="0" stroke-opacity=".078"/><path id="path4518" d="M19.561 2.743h8.596c14.073 0 17.004 11.247 17.004 17.282v7.122c0 5.96-2.736 17.282-18.048 17.282H20.1c-11.7 0-17.35-7.708-17.35-17.282v-7.122c0-9.574 5.535-17.282 16.81-17.282z" opacity="1" fill="#1278ef" fill-opacity="1" stroke="#000" stroke-width=".336" stroke-linecap="square" stroke-linejoin="bevel" stroke-miterlimit="4" stroke-dasharray="none" stroke-dashoffset="0" stroke-opacity=".078"/><g id="g1343" transform="matrix(.98826 0 0 1.05823 64.249 .32)" fill="#f8f9f9" fill-rule="evenodd" stroke="none" stroke-width="1"><path d="M-28.646 21.644a1.79 1.79 0 0 1-1.243-1.372c-1.07-5.15-5.59-9.02-11.011-9.02-5.44 0-9.974 3.894-11.024 9.07a1.651 1.651 0 0 1-1.164 1.28c-2.167.61-3.775 2.805-3.78 5.439-.006 2.985 2.198 5.557 4.843 5.65.285.01.565-.007.838-.05.74-.115 1.29-.837 1.29-1.68v-8.604c.136-4.888 4.114-8.586 8.997-8.586 4.922 0 8.928 3.757 9.002 8.702v8.583c0 .805.525 1.482 1.23 1.602.292.05.592.07.899.06 2.645-.094 4.849-2.667 4.842-5.653-.005-2.608-1.583-4.786-3.72-5.42" id="Fill-3"/><path d="M-42.9 29.31h-2.035c-1.094 0-1.984-1.024-1.984-2.257 0-1.234.89-2.257 1.984-2.257h2.035zm.99-11.283h-.99v4.513h-2.035c-2.2 0-3.984 2.03-3.984 4.513 0 2.482 1.784 4.513 3.984 4.513h4.035v-12.4c0-.63-.452-1.14-1.01-1.14z" id="Fill-5"/><path d="M-33.912 22.54h-.989v6.77h-3v-5.63c0-.63-.452-1.14-1.009-1.14h-.99v6.728c0 1.269.911 2.298 2.036 2.298h3.997c.534 0 .966-.489.966-1.09V23.68c0-.63-.453-1.14-1.01-1.14" id="path133"/></g></svg>