<svg xmlns:osb="http://www.openswatchbook.org/uri/2009/osb" xmlns="http://www.w3.org/2000/svg" xmlns:xlink="http://www.w3.org/1999/xlink" width="48" height="48" version="1.1" id="svg38"><defs id="defs22"><linearGradient id="linearGradient4488"><stop id="stop4490" offset="0" stop-color="#000" stop-opacity=".047"/><stop id="stop4492" offset="1" stop-color="#000" stop-opacity="0"/></linearGradient><style id="style4511"/><style id="style4511-26"/><style id="style4511-9"/><style id="style4552"/><style id="style4511-2"/><linearGradient xlink:href="#linearGradient4488" id="linearGradient4540" gradientUnits="userSpaceOnUse" gradientTransform="matrix(-.00052 .30406 -.2948 -.00054 45.95 -62.006)" x1="288.112" y1="141.785" x2="287.575" y2="79.008"/><linearGradient osb:paint="solid" id="linearGradient5293"><stop id="stop5295" offset="0" stop-color="#9a89c0" stop-opacity="1"/></linearGradient><style id="style4511-87"/><style id="style4511-26-7"/><style id="style4511-9-1"/><style id="style4552-53"/><style id="style4511-2-9"/><style id="style4511-8"/><style id="style4511-26-4"/><style id="style4511-9-8"/><style id="style4552-5"/><style id="style4511-2-5"/><style id="style4511-879"/><style id="style4511-26-76"/><style id="style4511-9-2"/><style id="style4552-8"/><style id="style4511-2-0"/></defs><style id="style4485" type="text/css"/><style type="text/css" id="style4485-7"/><style id="style4485-6" type="text/css"/><style type="text/css" id="style4485-3"/><g id="g2418" fill-opacity="1"><path d="M22.328 3.645l-1.619-.003c-9.29-.017-16.78 5.557-16.8 17.13l-.012 6.936C3.871 42.853 14.854 45.58 20.637 45.59l1.62.003c-5.784-.01-16.767-2.737-16.74-17.882l.011-6.936c.02-11.573 7.51-17.147 16.8-17.13z" id="path4516" opacity="1" fill="url(#linearGradient4540)" stroke="none" stroke-width="1.084" stroke-linecap="square" stroke-linejoin="bevel" stroke-miterlimit="4" stroke-dasharray="none" stroke-dashoffset="0" stroke-opacity=".078"/><path id="path4518" d="M45.192 20.314c.02-11.152-7.45-16.64-16.741-16.658l-4.166-.007-.072 41.947 4.166.008c5.857.01 16.775-2.869 16.799-16.788z" opacity="1" fill="#f2f2f2" stroke="#000" stroke-width=".329" stroke-linecap="square" stroke-linejoin="bevel" stroke-miterlimit="4" stroke-dasharray="none" stroke-dashoffset="0" stroke-opacity=".078"/><path id="path4518-7" d="M3.284 28.96c-.004 11.152 7.472 16.63 16.763 16.634l4.166.002.017-41.947-4.165-.002C14.208 3.644 3.294 6.539 3.288 20.458z" opacity="1" fill="#f2f2f2" stroke="#000" stroke-width=".329" stroke-linecap="square" stroke-linejoin="bevel" stroke-miterlimit="4" stroke-dasharray="none" stroke-dashoffset="0" stroke-opacity=".078"/><path d="M7.091 28.269v-6.885c0-11.272 9.208-13.62 14.15-13.62h5.831c4.88 0 14.15 2.192 14.15 14.456v5.617c0 9.37-6.31 13.896-14.15 13.896H21.24c-7.838 0-14.149-4.434-14.149-13.464z" id="path4518-0" opacity="1" fill="#018acd" stroke="#000" stroke-width=".272" stroke-linecap="square" stroke-linejoin="bevel" stroke-miterlimit="4" stroke-dasharray="none" stroke-dashoffset="0" stroke-opacity=".078"/><path id="rect6660" d="M29.143 13.612a2396.183 2396.183 0 0 1-8.158 6.975l.722-6.951h-5.39L14.13 34.683h5.39l.75-7.205 7.104 7.172 6.25.033-9.07-9.295c-.679-.661-.683-1.114.053-1.79l11.162-9.962s-5.511-.022-6.626-.022z" fill="#eef7fb" fill-rule="evenodd" stroke="none" stroke-width="1.094" stroke-linecap="butt" stroke-linejoin="miter" stroke-opacity="1"/></g></svg>