<svg xmlns:osb="http://www.openswatchbook.org/uri/2009/osb" xmlns="http://www.w3.org/2000/svg" xmlns:xlink="http://www.w3.org/1999/xlink" width="48" height="48" version="1.1" id="svg38"><defs id="defs22"><linearGradient id="linearGradient4488"><stop id="stop4490" offset="0" stop-color="#000" stop-opacity=".047"/><stop id="stop4492" offset="1" stop-color="#000" stop-opacity="0"/></linearGradient><style id="style4511"/><style id="style4511-26"/><style id="style4511-9"/><style id="style4552"/><style id="style4511-2"/><linearGradient xlink:href="#linearGradient4488" id="linearGradient4540" gradientUnits="userSpaceOnUse" gradientTransform="matrix(.3074 0 0 .30379 -63.667 1.994)" x1="288.112" y1="141.785" x2="287.575" y2="79.008"/><linearGradient osb:paint="solid" id="linearGradient5293"><stop id="stop5295" offset="0" stop-color="#9a89c0" stop-opacity="1"/></linearGradient><style id="style2" type="text/css"><![CDATA[.fil5{fill:none}.fil1{fill:#196FBA}.fil0{fill:#25B2EE}.fil4{fill:#793C7C}.fil3{fill:#8C508C}.fil2{fill:white}]]></style></defs><style id="style4485" type="text/css"/><path id="path4516" d="M2.751 26.22v1.669c0 9.574 5.65 17.282 17.35 17.282h7.012c15.312 0 18.048-11.323 18.048-17.282V26.22c0 5.96-2.736 17.282-18.048 17.282H20.1c-11.7 0-17.349-7.708-17.349-17.282z" opacity="1" fill="url(#linearGradient4540)" fill-opacity="1" stroke="none" stroke-width="1.106" stroke-linecap="square" stroke-linejoin="bevel" stroke-miterlimit="4" stroke-dasharray="none" stroke-dashoffset="0" stroke-opacity=".078"/><path id="path4518" d="M19.561 2.743h8.596c14.073 0 17.004 11.247 17.004 17.282v7.122c0 5.96-2.736 17.282-18.048 17.282H20.1c-11.7 0-17.35-7.708-17.35-17.282v-7.122c0-9.574 5.535-17.282 16.81-17.282z" opacity="1" fill="#e6e6e6" fill-opacity="1" stroke="#000" stroke-width=".336" stroke-linecap="square" stroke-linejoin="bevel" stroke-miterlimit="4" stroke-dasharray="none" stroke-dashoffset="0" stroke-opacity=".078"/><g transform="matrix(.822 0 0 .72474 5.25 -721.376)" id="layer1" fill-opacity="1" stroke-opacity="1"><path id="path4510" d="M31.984 1007.497c-10.306-.09-8.746 8.44-8.746 8.44s3.402 1.906 7.233.06c2.615-1.337 2.891-3.73 6.695-7.882-1.996-.415-3.71-.604-5.182-.617zm-9.964 3.833l-2.979.034s2.047 2.25 2.914 7.981c.511-2.892.249-7.496.065-8.016zm6.99 6.564a6.922 6.922 0 0 0-2.424.504c-4.13 1.682-5.924 1.522-8.297.65s-10.633-2.212-12.84 7.998c-1.956 9.05 1.742 14.935 3.367 17.332 1.15 1.695 4.926 7.383 13.006 5.657 3.862-.825 5.099 2.063 9.637-.592 4.538-2.655 8.881-8.806 9.428-17.508.478-7.614-6.065-14.21-11.877-14.041z" opacity=".05" fill="#000" fill-rule="evenodd" stroke="none" stroke-width="1" stroke-linecap="butt" stroke-linejoin="miter"/><path d="M31.984 1007.02c-10.306-.091-8.746 8.44-8.746 8.44s3.402 1.906 7.233.06c2.615-1.338 2.891-3.731 6.695-7.882-1.996-.415-3.71-.605-5.182-.618zm-9.964 3.832l-2.979.035s2.047 2.25 2.914 7.98c.511-2.892.249-7.496.065-8.015zm6.99 6.564a6.922 6.922 0 0 0-2.424.504c-4.13 1.683-5.924 1.523-8.297.65-2.373-.872-10.633-2.21-12.84 7.999-1.956 9.05 1.742 14.934 3.367 17.332 1.15 1.695 4.926 7.382 13.006 5.656 3.862-.825 5.099 2.063 9.637-.592 4.538-2.655 8.881-8.806 9.428-17.507.478-7.615-6.065-14.21-11.877-14.042z" id="path4508" opacity=".1" fill="#000" fill-rule="evenodd" stroke="none" stroke-width="1" stroke-linecap="butt" stroke-linejoin="miter"/><path id="path4501" d="M31.984 1006.594c-10.306-.09-8.746 8.44-8.746 8.44s3.402 1.906 7.233.06c2.615-1.337 2.891-3.73 6.695-7.882-1.996-.415-3.71-.604-5.182-.617zm-9.964 3.832l-2.979.035s2.047 2.25 2.914 7.98c.511-2.892.249-7.496.065-8.015zm6.99 6.565a6.922 6.922 0 0 0-2.424.504c-4.13 1.682-5.924 1.522-8.297.65s-10.633-2.212-12.84 7.998c-1.956 9.05 1.742 14.935 3.367 17.332 1.15 1.695 4.926 7.382 13.006 5.656 3.862-.825 5.099 2.064 9.637-.592 4.538-2.654 8.881-8.805 9.428-17.507.478-7.614-6.065-14.21-11.877-14.041z" opacity=".15" fill="#000" fill-rule="evenodd" stroke="none" stroke-width="1" stroke-linecap="butt" stroke-linejoin="miter"/><path id="path4149" d="M18.29 1017.745c2.372.872 4.166 1.031 8.296-.65 6.224-2.537 14.846 4.836 14.3 13.537-.546 8.702-4.889 14.853-9.427 17.508-4.538 2.655-5.775-.233-9.637.592-8.08 1.726-11.857-3.961-13.006-5.656-1.626-2.398-5.323-8.282-3.367-17.332 2.207-10.21 10.467-8.872 12.84-8z" fill="#1b80f2" fill-rule="evenodd" stroke="none" stroke-width="1" stroke-linecap="butt" stroke-linejoin="miter"/><path id="path4153" d="M19.04 1010.061l2.98-.035c.184.52.447 5.124-.064 8.016-.867-5.731-2.915-7.98-2.915-7.98z" fill="#1b80f2" fill-rule="evenodd" stroke="none" stroke-width=".932" stroke-linecap="round" stroke-linejoin="round" stroke-miterlimit="4" stroke-dasharray="none"/><path id="path4145" d="M23.239 1014.634s-2.04-11.142 13.928-7.823c-3.804 4.151-4.081 6.545-6.696 7.883-3.831 1.846-7.232-.06-7.232-.06z" fill="#1b80f2" fill-rule="evenodd" stroke="none" stroke-width="1" stroke-linecap="butt" stroke-linejoin="miter"/><g id="g4157" fill="#fff" stroke="none" stroke-width=".932" stroke-linecap="round" stroke-linejoin="round" stroke-miterlimit="4" stroke-dasharray="none"><g id="g4189"><rect id="rect4159" width="1" height="3.009" x="21.994" y="1020.359" ry="0" opacity="1"/><rect ry="0" y="1044.368" x="22.016" height="2.993" width="1" id="rect4161" opacity="1"/></g><g transform="rotate(90 22.505 1033.86)" id="g4193"><rect ry="0" y="1020.359" x="21.994" height="3.009" width="1" id="rect4195" opacity="1"/><rect id="rect4197" width="1" height="2.993" x="22.016" y="1044.368" ry="0" opacity="1"/></g><g id="g4199" transform="rotate(30 22.505 1033.86)"><rect id="rect4201" width="1" height="3.009" x="21.994" y="1020.359" ry="0" opacity="1"/><rect ry="0" y="1044.368" x="22.016" height="2.993" width="1" id="rect4203" opacity="1"/></g><g transform="rotate(60 22.505 1033.86)" id="g4205"><rect ry="0" y="1020.359" x="21.994" height="3.009" width="1" id="rect4207" opacity="1"/><rect id="rect4209" width="1" height="2.993" x="22.016" y="1044.368" ry="0" opacity="1"/></g><g id="g4211" transform="rotate(120 22.505 1033.86)"><rect id="rect4213" width="1" height="3.009" x="21.994" y="1020.359" ry="0" opacity="1"/><rect ry="0" y="1044.368" x="22.016" height="2.993" width="1" id="rect4215" opacity="1"/></g><g transform="rotate(150 22.505 1033.86)" id="g4217"><rect ry="0" y="1020.359" x="21.994" height="3.009" width="1" id="rect4219" opacity="1"/><rect id="rect4221" width="1" height="2.993" x="22.016" y="1044.368" ry="0" opacity="1"/></g></g><circle r="1" cy="1033.873" cx="22.551" id="path4223" opacity="1" fill="#fff" stroke="none" stroke-width=".932" stroke-linecap="round" stroke-linejoin="round" stroke-miterlimit="4" stroke-dasharray="none"/><rect transform="rotate(41.09)" ry=".508" y="753.311" x="695.956" height="11.705" width="1.016" id="rect4225" opacity="1" fill="none" stroke="#fff" stroke-width=".25" stroke-linecap="round" stroke-linejoin="round" stroke-miterlimit="4" stroke-dasharray="none"/><rect transform="rotate(130.53)" ry=".499" y="-697.456" x="770.719" height="9.001" width=".997" id="rect4229" opacity="1" fill="none" stroke="#fff" stroke-width=".25" stroke-linecap="round" stroke-linejoin="round" stroke-miterlimit="4" stroke-dasharray="none"/><rect transform="rotate(59.901)" ry="0" y="498.949" x="905.493" height="12.054" width=".434" id="rect4231" opacity="1" fill="#fff" stroke="none" stroke-width=".932" stroke-linecap="round" stroke-linejoin="round" stroke-miterlimit="4" stroke-dasharray="none"/><path id="rect4233" d="M26.217 1029.558c.266.243.313.476.215.588l-3.726 4.274c-.099.112-.516-.005-.629-.103-.112-.099-.312-.427-.214-.54l3.726-4.273c.098-.112.41-.146.628.054z" opacity="1" fill="#fff" stroke="#fff" stroke-width=".053" stroke-linecap="round" stroke-linejoin="round" stroke-miterlimit="4" stroke-dasharray="none"/><path d="M25.905 1036.784c-.202.223-.396.264-.49.183l-3.592-3.088c-.095-.082 0-.431.082-.526.081-.094.354-.263.449-.182l3.592 3.088c.094.082.125.342-.041.525z" id="path4247" opacity="1" fill="#fff" stroke="#fff" stroke-width=".044" stroke-linecap="round" stroke-linejoin="round" stroke-miterlimit="4" stroke-dasharray="none"/><g transform="translate(-.937 -43.085) scale(1.04167)" id="g4421" fill="#fff" color="#000" font-style="normal" font-variant="normal" font-weight="400" font-stretch="normal" font-size="medium" font-family="sans-serif" letter-spacing="normal" word-spacing="normal" writing-mode="lr-tb" direction="ltr" text-anchor="start" clip-rule="nonzero" visibility="visible" color-interpolation="sRGB" color-interpolation-filters="linearRGB" fill-rule="evenodd" stroke="none" stroke-width="1" stroke-linecap="butt" stroke-linejoin="miter" stroke-miterlimit="4" stroke-dasharray="none" stroke-dashoffset="0" color-rendering="auto" image-rendering="auto" shape-rendering="auto" text-rendering="auto"><g id="g4277" transform="rotate(7.233 22.482 1033.86)"><g id="g4255"><path style="line-height:normal;text-indent:0;text-align:start;text-decoration-line:none;text-decoration-style:solid;text-decoration-color:#000;text-transform:none;white-space:normal;isolation:auto;mix-blend-mode:normal;solid-color:#000;solid-opacity:1" d="M22.639 1020.902h-.314v.977h.315l-.001-.977z" id="path4249" text-decoration="none" baseline-shift="baseline" display="inline" overflow="visible" opacity="1"/><path id="path4253" d="M22.639 1045.84h-.314v.977h.315l-.001-.977z" style="line-height:normal;text-indent:0;text-align:start;text-decoration-line:none;text-decoration-style:solid;text-decoration-color:#000;text-transform:none;white-space:normal;isolation:auto;mix-blend-mode:normal;solid-color:#000;solid-opacity:1" text-decoration="none" baseline-shift="baseline" display="inline" overflow="visible" opacity="1"/></g><g transform="rotate(5.11 22.483 1033.86)" id="g4259"><path id="path4261" d="M22.639 1020.902h-.314v.977h.315l-.001-.977z" style="line-height:normal;text-indent:0;text-align:start;text-decoration-line:none;text-decoration-style:solid;text-decoration-color:#000;text-transform:none;white-space:normal;isolation:auto;mix-blend-mode:normal;solid-color:#000;solid-opacity:1" text-decoration="none" baseline-shift="baseline" display="inline" overflow="visible" opacity="1"/><path style="line-height:normal;text-indent:0;text-align:start;text-decoration-line:none;text-decoration-style:solid;text-decoration-color:#000;text-transform:none;white-space:normal;isolation:auto;mix-blend-mode:normal;solid-color:#000;solid-opacity:1" d="M22.639 1045.84h-.314v.977h.315l-.001-.977z" id="path4263" text-decoration="none" baseline-shift="baseline" display="inline" overflow="visible" opacity="1"/></g><g id="g4265" transform="rotate(10.074 22.482 1033.86)"><path style="line-height:normal;text-indent:0;text-align:start;text-decoration-line:none;text-decoration-style:solid;text-decoration-color:#000;text-transform:none;white-space:normal;isolation:auto;mix-blend-mode:normal;solid-color:#000;solid-opacity:1" d="M22.639 1020.902h-.314v.977h.315l-.001-.977z" id="path4267" text-decoration="none" baseline-shift="baseline" display="inline" overflow="visible" opacity="1"/><path id="path4269" d="M22.639 1045.84h-.314v.977h.315l-.001-.977z" style="line-height:normal;text-indent:0;text-align:start;text-decoration-line:none;text-decoration-style:solid;text-decoration-color:#000;text-transform:none;white-space:normal;isolation:auto;mix-blend-mode:normal;solid-color:#000;solid-opacity:1" text-decoration="none" baseline-shift="baseline" display="inline" overflow="visible" opacity="1"/></g><g transform="rotate(15.04 22.482 1033.86)" id="g4271"><path id="path4273" d="M22.639 1020.902h-.314v.977h.315l-.001-.977z" style="line-height:normal;text-indent:0;text-align:start;text-decoration-line:none;text-decoration-style:solid;text-decoration-color:#000;text-transform:none;white-space:normal;isolation:auto;mix-blend-mode:normal;solid-color:#000;solid-opacity:1" text-decoration="none" baseline-shift="baseline" display="inline" overflow="visible" opacity="1"/><path style="line-height:normal;text-indent:0;text-align:start;text-decoration-line:none;text-decoration-style:solid;text-decoration-color:#000;text-transform:none;white-space:normal;isolation:auto;mix-blend-mode:normal;solid-color:#000;solid-opacity:1" d="M22.639 1045.84h-.314v.977h.315l-.001-.977z" id="path4275" text-decoration="none" baseline-shift="baseline" display="inline" overflow="visible" opacity="1"/></g></g><g transform="rotate(37.381 22.482 1033.86)" id="g4291"><g id="g4293"><path id="path4295" d="M22.639 1020.902h-.314v.977h.315l-.001-.977z" style="line-height:normal;text-indent:0;text-align:start;text-decoration-line:none;text-decoration-style:solid;text-decoration-color:#000;text-transform:none;white-space:normal;isolation:auto;mix-blend-mode:normal;solid-color:#000;solid-opacity:1" text-decoration="none" baseline-shift="baseline" display="inline" overflow="visible" opacity="1"/><path style="line-height:normal;text-indent:0;text-align:start;text-decoration-line:none;text-decoration-style:solid;text-decoration-color:#000;text-transform:none;white-space:normal;isolation:auto;mix-blend-mode:normal;solid-color:#000;solid-opacity:1" d="M22.639 1045.84h-.314v.977h.315l-.001-.977z" id="path4297" text-decoration="none" baseline-shift="baseline" display="inline" overflow="visible" opacity="1"/></g><g id="g4299" transform="rotate(5.11 22.483 1033.86)"><path style="line-height:normal;text-indent:0;text-align:start;text-decoration-line:none;text-decoration-style:solid;text-decoration-color:#000;text-transform:none;white-space:normal;isolation:auto;mix-blend-mode:normal;solid-color:#000;solid-opacity:1" d="M22.639 1020.902h-.314v.977h.315l-.001-.977z" id="path4301" text-decoration="none" baseline-shift="baseline" display="inline" overflow="visible" opacity="1"/><path id="path4303" d="M22.639 1045.84h-.314v.977h.315l-.001-.977z" style="line-height:normal;text-indent:0;text-align:start;text-decoration-line:none;text-decoration-style:solid;text-decoration-color:#000;text-transform:none;white-space:normal;isolation:auto;mix-blend-mode:normal;solid-color:#000;solid-opacity:1" text-decoration="none" baseline-shift="baseline" display="inline" overflow="visible" opacity="1"/></g><g transform="rotate(10.074 22.482 1033.86)" id="g4305"><path id="path4307" d="M22.639 1020.902h-.314v.977h.315l-.001-.977z" style="line-height:normal;text-indent:0;text-align:start;text-decoration-line:none;text-decoration-style:solid;text-decoration-color:#000;text-transform:none;white-space:normal;isolation:auto;mix-blend-mode:normal;solid-color:#000;solid-opacity:1" text-decoration="none" baseline-shift="baseline" display="inline" overflow="visible" opacity="1"/><path style="line-height:normal;text-indent:0;text-align:start;text-decoration-line:none;text-decoration-style:solid;text-decoration-color:#000;text-transform:none;white-space:normal;isolation:auto;mix-blend-mode:normal;solid-color:#000;solid-opacity:1" d="M22.639 1045.84h-.314v.977h.315l-.001-.977z" id="path4309" text-decoration="none" baseline-shift="baseline" display="inline" overflow="visible" opacity="1"/></g><g id="g4311" transform="rotate(15.04 22.482 1033.86)"><path style="line-height:normal;text-indent:0;text-align:start;text-decoration-line:none;text-decoration-style:solid;text-decoration-color:#000;text-transform:none;white-space:normal;isolation:auto;mix-blend-mode:normal;solid-color:#000;solid-opacity:1" d="M22.639 1020.902h-.314v.977h.315l-.001-.977z" id="path4313" text-decoration="none" baseline-shift="baseline" display="inline" overflow="visible" opacity="1"/><path id="path4315" d="M22.639 1045.84h-.314v.977h.315l-.001-.977z" style="line-height:normal;text-indent:0;text-align:start;text-decoration-line:none;text-decoration-style:solid;text-decoration-color:#000;text-transform:none;white-space:normal;isolation:auto;mix-blend-mode:normal;solid-color:#000;solid-opacity:1" text-decoration="none" baseline-shift="baseline" display="inline" overflow="visible" opacity="1"/></g></g><g id="g4317" transform="rotate(67.855 22.482 1033.86)"><g id="g4319"><path style="line-height:normal;text-indent:0;text-align:start;text-decoration-line:none;text-decoration-style:solid;text-decoration-color:#000;text-transform:none;white-space:normal;isolation:auto;mix-blend-mode:normal;solid-color:#000;solid-opacity:1" d="M22.639 1020.902h-.314v.977h.315l-.001-.977z" id="path4321" text-decoration="none" baseline-shift="baseline" display="inline" overflow="visible" opacity="1"/><path id="path4323" d="M22.639 1045.84h-.314v.977h.315l-.001-.977z" style="line-height:normal;text-indent:0;text-align:start;text-decoration-line:none;text-decoration-style:solid;text-decoration-color:#000;text-transform:none;white-space:normal;isolation:auto;mix-blend-mode:normal;solid-color:#000;solid-opacity:1" text-decoration="none" baseline-shift="baseline" display="inline" overflow="visible" opacity="1"/></g><g transform="rotate(5.11 22.483 1033.86)" id="g4325"><path id="path4327" d="M22.639 1020.902h-.314v.977h.315l-.001-.977z" style="line-height:normal;text-indent:0;text-align:start;text-decoration-line:none;text-decoration-style:solid;text-decoration-color:#000;text-transform:none;white-space:normal;isolation:auto;mix-blend-mode:normal;solid-color:#000;solid-opacity:1" text-decoration="none" baseline-shift="baseline" display="inline" overflow="visible" opacity="1"/><path style="line-height:normal;text-indent:0;text-align:start;text-decoration-line:none;text-decoration-style:solid;text-decoration-color:#000;text-transform:none;white-space:normal;isolation:auto;mix-blend-mode:normal;solid-color:#000;solid-opacity:1" d="M22.639 1045.84h-.314v.977h.315l-.001-.977z" id="path4329" text-decoration="none" baseline-shift="baseline" display="inline" overflow="visible" opacity="1"/></g><g id="g4331" transform="rotate(10.074 22.482 1033.86)"><path style="line-height:normal;text-indent:0;text-align:start;text-decoration-line:none;text-decoration-style:solid;text-decoration-color:#000;text-transform:none;white-space:normal;isolation:auto;mix-blend-mode:normal;solid-color:#000;solid-opacity:1" d="M22.639 1020.902h-.314v.977h.315l-.001-.977z" id="path4333" text-decoration="none" baseline-shift="baseline" display="inline" overflow="visible" opacity="1"/><path id="path4335" d="M22.639 1045.84h-.314v.977h.315l-.001-.977z" style="line-height:normal;text-indent:0;text-align:start;text-decoration-line:none;text-decoration-style:solid;text-decoration-color:#000;text-transform:none;white-space:normal;isolation:auto;mix-blend-mode:normal;solid-color:#000;solid-opacity:1" text-decoration="none" baseline-shift="baseline" display="inline" overflow="visible" opacity="1"/></g><g transform="rotate(15.04 22.482 1033.86)" id="g4337"><path id="path4339" d="M22.639 1020.902h-.314v.977h.315l-.001-.977z" style="line-height:normal;text-indent:0;text-align:start;text-decoration-line:none;text-decoration-style:solid;text-decoration-color:#000;text-transform:none;white-space:normal;isolation:auto;mix-blend-mode:normal;solid-color:#000;solid-opacity:1" text-decoration="none" baseline-shift="baseline" display="inline" overflow="visible" opacity="1"/><path style="line-height:normal;text-indent:0;text-align:start;text-decoration-line:none;text-decoration-style:solid;text-decoration-color:#000;text-transform:none;white-space:normal;isolation:auto;mix-blend-mode:normal;solid-color:#000;solid-opacity:1" d="M22.639 1045.84h-.314v.977h.315l-.001-.977z" id="path4341" text-decoration="none" baseline-shift="baseline" display="inline" overflow="visible" opacity="1"/></g></g><g transform="rotate(97.286 22.482 1033.86)" id="g4343"><g id="g4345"><path id="path4347" d="M22.639 1020.902h-.314v.977h.315l-.001-.977z" style="line-height:normal;text-indent:0;text-align:start;text-decoration-line:none;text-decoration-style:solid;text-decoration-color:#000;text-transform:none;white-space:normal;isolation:auto;mix-blend-mode:normal;solid-color:#000;solid-opacity:1" text-decoration="none" baseline-shift="baseline" display="inline" overflow="visible" opacity="1"/><path style="line-height:normal;text-indent:0;text-align:start;text-decoration-line:none;text-decoration-style:solid;text-decoration-color:#000;text-transform:none;white-space:normal;isolation:auto;mix-blend-mode:normal;solid-color:#000;solid-opacity:1" d="M22.639 1045.84h-.314v.977h.315l-.001-.977z" id="path4349" text-decoration="none" baseline-shift="baseline" display="inline" overflow="visible" opacity="1"/></g><g id="g4351" transform="rotate(5.11 22.483 1033.86)"><path style="line-height:normal;text-indent:0;text-align:start;text-decoration-line:none;text-decoration-style:solid;text-decoration-color:#000;text-transform:none;white-space:normal;isolation:auto;mix-blend-mode:normal;solid-color:#000;solid-opacity:1" d="M22.639 1020.902h-.314v.977h.315l-.001-.977z" id="path4353" text-decoration="none" baseline-shift="baseline" display="inline" overflow="visible" opacity="1"/><path id="path4355" d="M22.639 1045.84h-.314v.977h.315l-.001-.977z" style="line-height:normal;text-indent:0;text-align:start;text-decoration-line:none;text-decoration-style:solid;text-decoration-color:#000;text-transform:none;white-space:normal;isolation:auto;mix-blend-mode:normal;solid-color:#000;solid-opacity:1" text-decoration="none" baseline-shift="baseline" display="inline" overflow="visible" opacity="1"/></g><g transform="rotate(10.074 22.482 1033.86)" id="g4357"><path id="path4359" d="M22.639 1020.902h-.314v.977h.315l-.001-.977z" style="line-height:normal;text-indent:0;text-align:start;text-decoration-line:none;text-decoration-style:solid;text-decoration-color:#000;text-transform:none;white-space:normal;isolation:auto;mix-blend-mode:normal;solid-color:#000;solid-opacity:1" text-decoration="none" baseline-shift="baseline" display="inline" overflow="visible" opacity="1"/><path style="line-height:normal;text-indent:0;text-align:start;text-decoration-line:none;text-decoration-style:solid;text-decoration-color:#000;text-transform:none;white-space:normal;isolation:auto;mix-blend-mode:normal;solid-color:#000;solid-opacity:1" d="M22.639 1045.84h-.314v.977h.315l-.001-.977z" id="path4361" text-decoration="none" baseline-shift="baseline" display="inline" overflow="visible" opacity="1"/></g><g id="g4363" transform="rotate(15.04 22.482 1033.86)"><path style="line-height:normal;text-indent:0;text-align:start;text-decoration-line:none;text-decoration-style:solid;text-decoration-color:#000;text-transform:none;white-space:normal;isolation:auto;mix-blend-mode:normal;solid-color:#000;solid-opacity:1" d="M22.639 1020.902h-.314v.977h.315l-.001-.977z" id="path4365" text-decoration="none" baseline-shift="baseline" display="inline" overflow="visible" opacity="1"/><path id="path4367" d="M22.639 1045.84h-.314v.977h.315l-.001-.977z" style="line-height:normal;text-indent:0;text-align:start;text-decoration-line:none;text-decoration-style:solid;text-decoration-color:#000;text-transform:none;white-space:normal;isolation:auto;mix-blend-mode:normal;solid-color:#000;solid-opacity:1" text-decoration="none" baseline-shift="baseline" display="inline" overflow="visible" opacity="1"/></g></g><g id="g4369" transform="rotate(127.403 22.482 1033.86)"><g id="g4371"><path style="line-height:normal;text-indent:0;text-align:start;text-decoration-line:none;text-decoration-style:solid;text-decoration-color:#000;text-transform:none;white-space:normal;isolation:auto;mix-blend-mode:normal;solid-color:#000;solid-opacity:1" d="M22.639 1020.902h-.314v.977h.315l-.001-.977z" id="path4373" text-decoration="none" baseline-shift="baseline" display="inline" overflow="visible" opacity="1"/><path id="path4375" d="M22.639 1045.84h-.314v.977h.315l-.001-.977z" style="line-height:normal;text-indent:0;text-align:start;text-decoration-line:none;text-decoration-style:solid;text-decoration-color:#000;text-transform:none;white-space:normal;isolation:auto;mix-blend-mode:normal;solid-color:#000;solid-opacity:1" text-decoration="none" baseline-shift="baseline" display="inline" overflow="visible" opacity="1"/></g><g transform="rotate(5.11 22.483 1033.86)" id="g4377"><path id="path4379" d="M22.639 1020.902h-.314v.977h.315l-.001-.977z" style="line-height:normal;text-indent:0;text-align:start;text-decoration-line:none;text-decoration-style:solid;text-decoration-color:#000;text-transform:none;white-space:normal;isolation:auto;mix-blend-mode:normal;solid-color:#000;solid-opacity:1" text-decoration="none" baseline-shift="baseline" display="inline" overflow="visible" opacity="1"/><path style="line-height:normal;text-indent:0;text-align:start;text-decoration-line:none;text-decoration-style:solid;text-decoration-color:#000;text-transform:none;white-space:normal;isolation:auto;mix-blend-mode:normal;solid-color:#000;solid-opacity:1" d="M22.639 1045.84h-.314v.977h.315l-.001-.977z" id="path4381" text-decoration="none" baseline-shift="baseline" display="inline" overflow="visible" opacity="1"/></g><g id="g4383" transform="rotate(10.074 22.482 1033.86)"><path style="line-height:normal;text-indent:0;text-align:start;text-decoration-line:none;text-decoration-style:solid;text-decoration-color:#000;text-transform:none;white-space:normal;isolation:auto;mix-blend-mode:normal;solid-color:#000;solid-opacity:1" d="M22.639 1020.902h-.314v.977h.315l-.001-.977z" id="path4385" text-decoration="none" baseline-shift="baseline" display="inline" overflow="visible" opacity="1"/><path id="path4387" d="M22.639 1045.84h-.314v.977h.315l-.001-.977z" style="line-height:normal;text-indent:0;text-align:start;text-decoration-line:none;text-decoration-style:solid;text-decoration-color:#000;text-transform:none;white-space:normal;isolation:auto;mix-blend-mode:normal;solid-color:#000;solid-opacity:1" text-decoration="none" baseline-shift="baseline" display="inline" overflow="visible" opacity="1"/></g><g transform="rotate(15.04 22.482 1033.86)" id="g4389"><path id="path4391" d="M22.639 1020.902h-.314v.977h.315l-.001-.977z" style="line-height:normal;text-indent:0;text-align:start;text-decoration-line:none;text-decoration-style:solid;text-decoration-color:#000;text-transform:none;white-space:normal;isolation:auto;mix-blend-mode:normal;solid-color:#000;solid-opacity:1" text-decoration="none" baseline-shift="baseline" display="inline" overflow="visible" opacity="1"/><path style="line-height:normal;text-indent:0;text-align:start;text-decoration-line:none;text-decoration-style:solid;text-decoration-color:#000;text-transform:none;white-space:normal;isolation:auto;mix-blend-mode:normal;solid-color:#000;solid-opacity:1" d="M22.639 1045.84h-.314v.977h.315l-.001-.977z" id="path4393" text-decoration="none" baseline-shift="baseline" display="inline" overflow="visible" opacity="1"/></g></g><g transform="rotate(157.01 22.482 1033.86)" id="g4395"><g id="g4397"><path id="path4399" d="M22.639 1020.902h-.314v.977h.315l-.001-.977z" style="line-height:normal;text-indent:0;text-align:start;text-decoration-line:none;text-decoration-style:solid;text-decoration-color:#000;text-transform:none;white-space:normal;isolation:auto;mix-blend-mode:normal;solid-color:#000;solid-opacity:1" text-decoration="none" baseline-shift="baseline" display="inline" overflow="visible" opacity="1"/><path style="line-height:normal;text-indent:0;text-align:start;text-decoration-line:none;text-decoration-style:solid;text-decoration-color:#000;text-transform:none;white-space:normal;isolation:auto;mix-blend-mode:normal;solid-color:#000;solid-opacity:1" d="M22.639 1045.84h-.314v.977h.315l-.001-.977z" id="path4401" text-decoration="none" baseline-shift="baseline" display="inline" overflow="visible" opacity="1"/></g><g id="g4403" transform="rotate(5.11 22.483 1033.86)"><path style="line-height:normal;text-indent:0;text-align:start;text-decoration-line:none;text-decoration-style:solid;text-decoration-color:#000;text-transform:none;white-space:normal;isolation:auto;mix-blend-mode:normal;solid-color:#000;solid-opacity:1" d="M22.639 1020.902h-.314v.977h.315l-.001-.977z" id="path4405" text-decoration="none" baseline-shift="baseline" display="inline" overflow="visible" opacity="1"/><path id="path4407" d="M22.639 1045.84h-.314v.977h.315l-.001-.977z" style="line-height:normal;text-indent:0;text-align:start;text-decoration-line:none;text-decoration-style:solid;text-decoration-color:#000;text-transform:none;white-space:normal;isolation:auto;mix-blend-mode:normal;solid-color:#000;solid-opacity:1" text-decoration="none" baseline-shift="baseline" display="inline" overflow="visible" opacity="1"/></g><g transform="rotate(10.074 22.482 1033.86)" id="g4409"><path id="path4411" d="M22.639 1020.902h-.314v.977h.315l-.001-.977z" style="line-height:normal;text-indent:0;text-align:start;text-decoration-line:none;text-decoration-style:solid;text-decoration-color:#000;text-transform:none;white-space:normal;isolation:auto;mix-blend-mode:normal;solid-color:#000;solid-opacity:1" text-decoration="none" baseline-shift="baseline" display="inline" overflow="visible" opacity="1"/><path style="line-height:normal;text-indent:0;text-align:start;text-decoration-line:none;text-decoration-style:solid;text-decoration-color:#000;text-transform:none;white-space:normal;isolation:auto;mix-blend-mode:normal;solid-color:#000;solid-opacity:1" d="M22.639 1045.84h-.314v.977h.315l-.001-.977z" id="path4413" text-decoration="none" baseline-shift="baseline" display="inline" overflow="visible" opacity="1"/></g><g id="g4415" transform="rotate(15.04 22.482 1033.86)"><path style="line-height:normal;text-indent:0;text-align:start;text-decoration-line:none;text-decoration-style:solid;text-decoration-color:#000;text-transform:none;white-space:normal;isolation:auto;mix-blend-mode:normal;solid-color:#000;solid-opacity:1" d="M22.639 1020.902h-.314v.977h.315l-.001-.977z" id="path4417" text-decoration="none" baseline-shift="baseline" display="inline" overflow="visible" opacity="1"/><path id="path4419" d="M22.639 1045.84h-.314v.977h.315l-.001-.977z" style="line-height:normal;text-indent:0;text-align:start;text-decoration-line:none;text-decoration-style:solid;text-decoration-color:#000;text-transform:none;white-space:normal;isolation:auto;mix-blend-mode:normal;solid-color:#000;solid-opacity:1" text-decoration="none" baseline-shift="baseline" display="inline" overflow="visible" opacity="1"/></g></g></g></g></svg>