<svg xmlns="http://www.w3.org/2000/svg" xmlns:xlink="http://www.w3.org/1999/xlink" width="48" height="48" version="1.1" id="svg38"><defs id="defs22"><linearGradient id="linearGradient4488"><stop id="stop4490" offset="0" stop-color="#000" stop-opacity=".047"/><stop id="stop4492" offset="1" stop-color="#000" stop-opacity="0"/></linearGradient><style id="style4511"/><style id="style4511-26"/><style id="style4511-9"/><style id="style4552"/><style id="style4511-2"/><linearGradient gradientTransform="translate(-63.205 2.216) scale(.3038)" xlink:href="#linearGradient4488" id="linearGradient4160" x1="288.112" y1="141.785" x2="287.575" y2="79.008" gradientUnits="userSpaceOnUse"/></defs><style id="style4485" type="text/css"/><path d="M2.433 26.443v1.668c0 9.575 5.583 17.282 17.146 17.282h6.93c15.133 0 17.837-11.322 17.837-17.282v-1.668c0 5.96-2.704 17.282-17.837 17.282h-6.93c-11.563 0-17.146-7.708-17.146-17.282z" id="path4147" opacity="1" fill="url(#linearGradient4160)" fill-opacity="1" stroke="none" stroke-width="1.1" stroke-linecap="square" stroke-linejoin="bevel" stroke-miterlimit="4" stroke-dasharray="none" stroke-dashoffset="0" stroke-opacity=".078"/><path d="M19.046 2.965h8.495c13.908 0 16.805 11.246 16.805 17.282v7.123c0 5.96-2.704 17.282-17.837 17.282h-6.93c-11.562 0-17.146-7.708-17.146-17.282v-7.123c0-9.575 5.47-17.282 16.613-17.282z" id="rect4144" opacity="1" fill="#9a80ff" fill-opacity="1" stroke="#000" stroke-width=".334" stroke-linecap="square" stroke-linejoin="bevel" stroke-miterlimit="4" stroke-dasharray="none" stroke-dashoffset="0" stroke-opacity=".078"/><path id="path16308-9-7-3" d="M23.28 10.452v.002a7.61 7.61 0 0 0-1.689.21.927.927 0 0 0-.693.848c0 .045-.003.107-.003.183.002.426 0 1.17 0 1.17-.001.023-.005.048-.007.07a.675.675 0 0 1-.478.57 10.67 10.67 0 0 0-2.206.91.67.67 0 0 1-.737-.061.614.614 0 0 1-.052-.05l-.829-.824a4.258 4.258 0 0 0-.114-.112.925.925 0 0 0-1.083-.125 7.621 7.621 0 0 0-1.406 1.085l-.007.005-.108.107a7.61 7.61 0 0 0-.706.832 7.576 7.576 0 0 0-.339.51.932.932 0 0 0 .106 1.094c.03.032.078.076.131.13.307.302.823.832.823.832.016.016.037.03.051.049.173.218.185.51.06.74a10.72 10.72 0 0 0-.918 2.213.672.672 0 0 1-.63.473h-1.332a.927.927 0 0 0-.853.68 7.597 7.597 0 0 0-.228 1.76v.162a7.633 7.633 0 0 0 .21 1.689c.091.382.456.68.848.693.045 0 .109.003.184.003.427-.002 1.171.004 1.171.004a.674.674 0 0 1 .634.474c0 .003.002.003.003.007.224.777.53 1.517.911 2.206a.676.676 0 0 1-.06.74c-.014.019-.035.033-.05.05l-.827.831c-.033.033-.073.069-.114.113a.922.922 0 0 0-.12 1.08c.302.505.665.979 1.083 1.407v.003l.007.002.11.11c.256.25.532.486.83.704.172.127.343.237.512.34a.924.924 0 0 0 1.088-.106c.032-.031.08-.073.133-.127l.829-.826a.676.676 0 0 1 .793-.11c.694.383 1.431.69 2.202.914a.676.676 0 0 1 .485.637v1.33c.01.39.303.756.682.851.57.143 1.157.223 1.755.23h.169a7.555 7.555 0 0 0 1.687-.209.925.925 0 0 0 .691-.848c0-.044.007-.108.007-.184-.002-.432 0-1.17 0-1.17.001-.023.001-.051.003-.074a.672.672 0 0 1 .481-.563l-.166.043a10.643 10.643 0 0 0 2.367-.958.676.676 0 0 1 .795.11l.827.827c.032.033.067.073.11.114.284.27.753.32 1.089.12a7.562 7.562 0 0 0 1.4-1.081l.01-.01c.037-.035.07-.07.106-.106a7.65 7.65 0 0 0 1.048-1.341.93.93 0 0 0-.11-1.092l-.127-.13c-.31-.303-.827-.83-.827-.83a.676.676 0 0 1-.107-.795c-.02.037-.046.077-.067.114a10.712 10.712 0 0 0 .978-2.315.676.676 0 0 1 .637-.484h1.332a.923.923 0 0 0 .85-.68c.143-.57.224-1.158.231-1.756V23.7a7.63 7.63 0 0 0-.21-1.688.927.927 0 0 0-.848-.693c-.045 0-.109-.004-.184-.004-.427.003-1.171 0-1.171 0-.023 0-.047-.004-.07-.007a.672.672 0 0 1-.567-.477 10.656 10.656 0 0 0-.981-2.325c.023.04.048.078.07.119a.67.67 0 0 1 .107-.79l.827-.828c.032-.033.072-.069.114-.113a.927.927 0 0 0 .12-1.084 7.592 7.592 0 0 0-1.082-1.406l-.005-.007-.11-.109a7.618 7.618 0 0 0-.83-.705 7.674 7.674 0 0 0-.512-.339.93.93 0 0 0-1.091.109c-.033.03-.077.075-.13.128l-.832.823c-.017.016-.031.033-.05.047a.676.676 0 0 1-.74.064c.063.034.12.07.183.107a10.723 10.723 0 0 0-2.389-1.022.672.672 0 0 1-.48-.633v-1.333a.929.929 0 0 0-.683-.852 7.556 7.556 0 0 0-1.755-.228h-.013zm.109 8.835a4.522 4.522 0 0 1 4.522 4.521 4.522 4.522 0 0 1-4.522 4.523 4.522 4.522 0 0 1-4.521-4.523 4.522 4.522 0 0 1 4.52-4.52z" fill="#fff" fill-opacity="1" fill-rule="nonzero" stroke="none" stroke-width=".855"/></svg>