<svg xmlns:osb="http://www.openswatchbook.org/uri/2009/osb" xmlns="http://www.w3.org/2000/svg" xmlns:xlink="http://www.w3.org/1999/xlink" width="48" height="48" version="1.1" id="svg38"><defs id="defs22"><linearGradient id="linearGradient4488"><stop id="stop4490" offset="0" stop-color="#000" stop-opacity=".047"/><stop id="stop4492" offset="1" stop-color="#000" stop-opacity="0"/></linearGradient><style id="style4511"/><style id="style4511-26"/><style id="style4511-9"/><style id="style4552"/><style id="style4511-2"/><linearGradient xlink:href="#linearGradient4488" id="linearGradient4540" gradientUnits="userSpaceOnUse" gradientTransform="matrix(-.00052 .30406 -.2948 -.00054 45.95 -62.006)" x1="288.112" y1="141.785" x2="287.575" y2="79.008"/><linearGradient osb:paint="solid" id="linearGradient5293"><stop id="stop5295" offset="0" stop-color="#9a89c0" stop-opacity="1"/></linearGradient><style id="style4511-87"/><style id="style4511-26-7"/><style id="style4511-9-1"/><style id="style4552-53"/><style id="style4511-2-9"/><style id="style4511-8"/><style id="style4511-26-4"/><style id="style4511-9-8"/><style id="style4552-5"/><style id="style4511-2-5"/><style id="style4511-879"/><style id="style4511-26-76"/><style id="style4511-9-2"/><style id="style4552-8"/><style id="style4511-2-0"/><linearGradient gradientTransform="rotate(-90 24 24)" gradientUnits="userSpaceOnUse" x2="47" x1="1" id="linearGradient3764-37"><stop id="stop2-4" stop-color="#008bb8" stop-opacity="1"/><stop id="stop4-52" offset="1" stop-color="#009acd" stop-opacity="1"/></linearGradient><linearGradient xlink:href="#linearGradient3764-37" id="linearGradient2463" x1="24.048" y1="24.626" x2="45.357" y2="24.626" gradientUnits="userSpaceOnUse"/><linearGradient xlink:href="#linearGradient3764-37" id="linearGradient2471" x1="3.12" y1="24.622" x2="24.395" y2="24.622" gradientUnits="userSpaceOnUse"/></defs><style id="style4485" type="text/css"/><style type="text/css" id="style4485-7"/><style id="style4485-6" type="text/css"/><style type="text/css" id="style4485-3"/><g id="g2513"><g transform="translate(0 -.177)" id="g2494" fill-opacity="1"><path id="path4516" d="M22.328 3.645l-1.619-.003c-9.29-.017-16.78 5.557-16.8 17.13l-.012 6.936C3.871 42.853 14.854 45.58 20.637 45.59l1.62.003c-5.784-.01-16.767-2.737-16.74-17.882l.011-6.936c.02-11.573 7.51-17.147 16.8-17.13z" opacity="1" fill="url(#linearGradient4540)" stroke="none" stroke-width="1.084" stroke-linecap="square" stroke-linejoin="bevel" stroke-miterlimit="4" stroke-dasharray="none" stroke-dashoffset="0" stroke-opacity=".078"/><path d="M45.192 20.314c.02-11.152-7.45-16.64-16.741-16.658l-4.166-.007-.072 41.947 4.166.008c5.857.01 16.775-2.869 16.799-16.788z" id="path4518" opacity="1" fill="url(#linearGradient2463)" stroke="#000" stroke-width=".329" stroke-linecap="square" stroke-linejoin="bevel" stroke-miterlimit="4" stroke-dasharray="none" stroke-dashoffset="0" stroke-opacity=".078"/><path d="M3.284 28.96c-.004 11.152 7.472 16.63 16.763 16.634l4.166.002.017-41.947-4.165-.002C14.208 3.644 3.294 6.539 3.288 20.458z" id="path4518-7" opacity="1" fill="url(#linearGradient2471)" stroke="#000" stroke-width=".329" stroke-linecap="square" stroke-linejoin="bevel" stroke-miterlimit="4" stroke-dasharray="none" stroke-dashoffset="0" stroke-opacity=".078"/><g id="g41" transform="translate(-61.53 -21.46) scale(.17706)" opacity=".2" fill="#000"><g id="g45" transform="translate(169.806 -71.883) scale(1.22947)" fill="#000" fill-opacity="1"><path d="M225.512 288.535v-35.204L256 235.729l30.488 17.602v35.204L256 306.138z" id="path_6_"/><path d="M321.936 238.733l-26.403 15.244-.402 33.603 26.561 15.835z" id="path_5_"/><path d="M190.064 303.134l26.403-15.244.402-33.603-26.561-15.835z" id="path_4_"/><path d="M250.919 344.136v-30.488l-28.9-17.149-26.994 15.085z" id="path_3_"/><path d="M316.854 311.935l-26.403-15.244-29.302 16.453-.433 30.92z" id="path_2_"/><path d="M195.146 229.932l26.403 15.244 29.302-16.453.433-30.92z" id="path_1_"/><path d="M261.081 197.731v30.488l28.9 17.149 26.994-15.085z" id="path"/></g></g><g id="g2476" transform="translate(.05 .885)" color="#000" visibility="visible" fill-rule="nonzero" stroke="none" stroke-width="2.207" stroke-linecap="butt" stroke-linejoin="miter" stroke-miterlimit="4" stroke-dasharray="none" stroke-dashoffset="0" stroke-opacity="1"><path style="marker:none" d="M24.235 2.764v1.218h1.137V2.764zm0 1.218h-1.137v1.219h1.137zm0 1.219v1.218h1.137V5.201zm0 1.218h-1.137v1.219h1.137zm0 1.219v1.218h1.137V7.638zm0 1.218h-1.137v1.219h1.137zm0 1.219v1.218h1.137v-1.218zm0 1.218h-1.137v1.218h1.137zm0 1.218v1.219h1.137v-1.22zm0 1.219h-1.137v1.218h1.137zm0 1.218v1.219h1.137v-1.219zm0 1.219h-1.137v1.218h1.137zm0 1.218v1.219h1.137v-1.219z" id="rect4185" display="inline" overflow="visible" opacity=".1" fill="#000"/><path id="path937" d="M24.235 2.764v1.218h-1.137V2.764zm0 1.218h1.137v1.219h-1.137zm0 1.219v1.218h-1.137V5.201zm0 1.218h1.137v1.219h-1.137zm0 1.219v1.218h-1.137V7.638zm0 1.218h1.137v1.219h-1.137zm0 1.219v1.218h-1.137v-1.218zm0 1.218h1.137v1.218h-1.137zm0 1.218v1.219h-1.137v-1.22zm0 1.219h1.137v1.218h-1.137zm0 1.218v1.219h-1.137v-1.219zm0 1.219h1.137v1.218h-1.137zm0 1.218v1.219h-1.137v-1.219z" style="marker:none" display="inline" overflow="visible" opacity="1" fill="#f1f0e9"/><path id="path4783" d="M23.098 18.604v4.569c0 .169.127.305.284.305h1.706c.157 0 .284-.136.284-.305v-4.57zm.569 3.046h1.137v1.218h-1.137z" style="marker:none" display="inline" overflow="visible" opacity="1" fill="#faf8f6"/></g></g></g></svg>