<svg xmlns:osb="http://www.openswatchbook.org/uri/2009/osb" xmlns="http://www.w3.org/2000/svg" xmlns:xlink="http://www.w3.org/1999/xlink" width="48" height="48" version="1.1" id="svg38"><defs id="defs22"><linearGradient id="linearGradient4488"><stop id="stop4490" offset="0" stop-color="#000" stop-opacity=".047"/><stop id="stop4492" offset="1" stop-color="#000" stop-opacity="0"/></linearGradient><style id="style4511"/><style id="style4511-26"/><style id="style4511-9"/><linearGradient gradientUnits="userSpaceOnUse" x2="19.574" y2="22.495" x1="3.783" y1="23.644" id="g-5"><stop id="stop24-2" stop-color="#2980b9"/><stop id="stop26" stop-color="#34495e" offset="1"/></linearGradient><style id="style4552"/><style id="style4511-2"/><linearGradient xlink:href="#linearGradient4488" id="linearGradient4540" gradientUnits="userSpaceOnUse" gradientTransform="matrix(.30673 0 0 .3038 -63.522 1.994)" x1="288.112" y1="141.785" x2="287.575" y2="79.008"/><linearGradient osb:paint="solid" id="linearGradient5293"><stop id="stop5295" offset="0" stop-color="#9a89c0" stop-opacity="1"/></linearGradient><linearGradient osb:paint="solid" id="linearGradient5251"><stop id="stop5253" offset="0" stop-color="#2f343f" stop-opacity="1"/></linearGradient><linearGradient xlink:href="#g-5" id="linearGradient1847" x1="2.583" y1="23.739" x2="45.236" y2="23.739" gradientUnits="userSpaceOnUse" gradientTransform="rotate(90 23.91 23.739)"/></defs><style id="style4485" type="text/css"/><path id="path4516" d="M2.75 26.22v1.669c0 9.574 5.638 17.282 17.312 17.282h6.998c15.278 0 18.008-11.323 18.008-17.282V26.22c0 5.96-2.73 17.282-18.008 17.282h-6.998c-11.674 0-17.311-7.708-17.311-17.282z" opacity="1" fill="url(#linearGradient4540)" fill-opacity="1" stroke="none" stroke-width="1.105" stroke-linecap="square" stroke-linejoin="bevel" stroke-miterlimit="4" stroke-dasharray="none" stroke-dashoffset="0" stroke-opacity=".078"/><path id="path4518" d="M44.905 19.354v8.576c0 14.042-11.329 16.967-17.408 16.967h-7.175c-6.003 0-17.407-2.73-17.407-18.009v-6.996c0-11.674 7.763-17.311 17.407-17.311h7.175c9.644 0 17.408 5.522 17.408 16.773z" opacity="1" fill="url(#linearGradient1847)" fill-opacity="1" stroke="#000" stroke-width=".337" stroke-linecap="square" stroke-linejoin="bevel" stroke-miterlimit="4" stroke-dasharray="none" stroke-dashoffset="0" stroke-opacity=".078"/><g id="g1820" transform="matrix(.13542 0 0 .13203 -10.76 -10.062)"><g id="g1806"><g id="g1804"><path d="M256 210.1c-25.3 0-45.9 20.6-45.9 45.9 0 25.3 20.6 45.9 45.9 45.9 25.3 0 45.9-20.6 45.9-45.9 0-25.3-20.6-45.9-45.9-45.9zm0 69.4c-13 0-23.5-10.6-23.5-23.5 0-13 10.6-23.5 23.5-23.5 13 0 23.5 10.6 23.5 23.5 0 13-10.5 23.5-23.5 23.5z" id="path1800" opacity=".5" fill="#e2e0e0"/><path d="M256 232.5c-13 0-23.5 10.6-23.5 23.5 0 13 10.6 23.5 23.5 23.5 13 0 23.5-10.6 23.5-23.5 0-13-10.5-23.5-23.5-23.5zm0 44.5c-11.6 0-21-9.4-21-21s9.4-21 21-21 21 9.4 21 21-9.4 21-21 21z" id="path1802" fill="#fff"/></g></g><g id="g1818"><g id="g1816"><g id="g1812" fill="#fff"><path d="M256 208.2c-26.4 0-47.8 21.4-47.8 47.8s21.4 47.8 47.8 47.8 47.8-21.4 47.8-47.8-21.4-47.8-47.8-47.8zm0 92.7c-24.7 0-44.9-20.1-44.9-44.9 0-24.7 20.1-44.9 44.9-44.9 24.8 0 44.9 20.1 44.9 44.9 0 24.7-20.2 44.9-44.9 44.9z" id="path1808"/><path d="M336.1 175.9c-21.4-21.4-49.9-33.2-80.1-33.2-30.3 0-58.7 11.8-80.1 33.2-21.4 21.4-33.2 49.9-33.2 80.1 0 30.2 11.8 58.7 33.2 80.1 21.4 21.4 49.9 33.2 80.1 33.2 30.2 0 58.7-11.8 80.1-33.2 21.4-21.4 33.2-49.9 33.2-80.1 0-30.3-11.8-58.7-33.2-80.1zM334 334c-20.8 20.8-48.6 32.3-78 32.3s-57.2-11.5-78-32.3c-20.8-20.8-32.3-48.6-32.3-78 0-29.5 11.5-57.2 32.3-78 20.8-20.8 48.6-32.3 78-32.3 29.5 0 57.2 11.5 78 32.3 20.8 20.8 32.3 48.6 32.3 78 .1 29.5-11.4 57.2-32.3 78z" id="path1810" opacity=".5"/></g><path d="M334 178c-20.8-20.8-48.6-32.3-78-32.3s-57.2 11.5-78 32.3c-20.8 20.8-32.3 48.6-32.3 78 0 29.5 11.5 57.2 32.3 78 20.8 20.8 48.6 32.3 78 32.3s57.2-11.5 78-32.3c20.8-20.8 32.3-48.6 32.3-78 .1-29.5-11.4-57.2-32.3-78zm-78 125.8c-26.4 0-47.8-21.4-47.8-47.8s21.4-47.8 47.8-47.8 47.8 21.4 47.8 47.8-21.4 47.8-47.8 47.8z" id="path1814" fill="#f7f7f7"/></g></g></g></svg>