<svg xmlns="http://www.w3.org/2000/svg" xmlns:xlink="http://www.w3.org/1999/xlink" width="48" height="48" version="1.1" id="svg38"><defs id="defs22"><style id="style4511"/><style id="style4511-26"/><style id="style4511-9"/><style id="style4552"/><linearGradient id="e-1" y1="41.22" x1="24.392" y2="25.343" x2="20.643" gradientUnits="userSpaceOnUse"><stop stop-color="#334545" id="stop22-8"/><stop offset="1" stop-color="#536161" id="stop24-7"/></linearGradient><style id="style4511-2"/><clipPath id="clipPath-498702923"/><linearGradient xlink:href="#e-1" id="linearGradient1257" x1="2.266" y1="23.808" x2="44.513" y2="23.808" gradientUnits="userSpaceOnUse" gradientTransform="matrix(1.01709 0 0 1.01396 .246 -.041)"/></defs><style id="style4485" type="text/css"/><path d="M19.618 2.965h8.64c14.146 0 17.092 11.403 17.092 17.523v7.222c0 6.043-2.75 17.524-18.142 17.524H20.16c-11.76 0-17.44-7.816-17.44-17.524v-7.222c0-9.708 5.565-17.523 16.898-17.523z" id="rect4144" opacity="1" fill="url(#linearGradient1257)" fill-opacity="1" stroke="#000" stroke-width=".339" stroke-linecap="square" stroke-linejoin="bevel" stroke-miterlimit="4" stroke-dasharray="none" stroke-dashoffset="0" stroke-opacity=".078"/><path id="path1184" d="M11.837 35.253l12.205-22.308 12.205 22.308c-.397-.02-.854-.31-1.291-.353-.29-.032-.576.166-.855.15-.242-.012-.448-.777-.696-.812-.277-.04-.445.637-.877.582-.525-.071-.18-1.415-.703-1.415-.373 0-.346 1.137-.81 1.149-.632.016-.184-2.348-.74-2.348-.544 0-.275 2.055-.842 2.038-.505-.017-.306-3.379-.775-3.331-.405.035-.246 3.052-.763 3.018-.6-.04-.358-4.369-.803-4.388-.36-.012-.262 4.086-.758 4.066-.632-.02-.275-5.72-.76-5.597-.516.127-.349 5.28-.837 5.276-.453-.005-.286-6.544-.696-6.56-.492-.023-.198 6.275-.87 6.275-.54.004-.143-7.108-.723-7.078-.441.016-.23 6.944-.775 6.876-.68-.08-.31-7.07-.85-7.075-.525-.004-.286 7.038-.623 7.139-.724.079-.346-6.543-.898-6.547-.346-.005-.215 6.634-.78 6.891-.31.143-.294-5.223-.79-5.339-.278-.064-.044 5.569-.767 5.803-.631.202-.33-3.185-.783-3.192-.46-.004-.06 3.549-.696 3.746-.608.187-.33-1.504-.906-1.473-.517.028-.02 1.866-.656 2.038-.37.104-.552-.51-.85-.455-.425.083-.902.903-1.251.903m.004.009" fill="#ff5353" fill-opacity="1" fill-rule="nonzero" stroke="none" stroke-width="1.016"/></svg>