<svg height="48" width="48" xmlns="http://www.w3.org/2000/svg" xmlns:xlink="http://www.w3.org/1999/xlink"><linearGradient id="a" gradientUnits="userSpaceOnUse" x1="24.97799675612" x2="24.81512943138" y1="45.06785145782" y2="25.99627061771"><stop offset="0" stop-opacity=".046875"/><stop offset="1" stop-opacity="0"/></linearGradient><linearGradient id="b" gradientUnits="userSpaceOnUse" x1="24.521025" x2="24.664843" y1="41.384357" y2="9.169051"><stop offset="0" stop-color="#acc012"/><stop offset="1" stop-color="#b4c700"/></linearGradient><path d="m3.0882703 26.220541v1.668528c0 9.574276 5.58322 17.282199 17.1457297 17.282199h6.93044c15.13236 0 17.83641-11.322632 17.83641-17.282199v-1.668528c0 5.959567-2.70405 17.282198-17.83641 17.282198h-6.93044c-11.5625097 0-17.1457297-7.707923-17.1457297-17.282198z" fill="url(#a)"/><path d="m19.70141 2.7423187h8.49507c13.90774 0 16.80439 11.2468653 16.80439 17.2820843v7.123176c0 5.959564-2.70417 17.282082-17.83653 17.282082h-6.9301c-11.5625097 0-17.1459397-7.707808-17.1459397-17.282082v-7.123176c0-9.574274 5.47018-17.2820843 16.6131097-17.2820843z" style="stroke:#000;stroke-width:.33418;stroke-linecap:square;stroke-linejoin:bevel;stroke-opacity:.078125;fill:url(#b)"/><path d="m15.165594 13.470251-.01651 1.999396 2.053152.01655.01651-2.001464-2.053162-.01447zm-1.986988 2.003531-.0145 2.001464 2.053152.01655.0145-2.001464zm1.875345 2.022141-.0145 2.001463 2.053162.01655.0145-2.001466-2.053151-.01654zm-1.984923 2.005599-.01651 2.001465 2.055227.01655.0145-2.001464-2.053152-.01655zm2.032476 2.051088-.0145 1.999396 2.053152.01655.0145-2.001465-2.053152-.01447zm-1.984923 2.003531-.01651 2.001465 2.053162.01655.01651-2.001464-2.053151-.01655zm1.953906 2.129658-.01652 1.999397 2.053152.01654.01651-2.001463-2.053151-.01447zm-1.986988 2.003532-.0145 2.001464 1.970441.01655-.0145 1.627224 2.053152.01655.01651-2.001464-1.970452-.01655.01239-1.627223-2.053151-.01655zm-.0289 3.649363-.0145 2.001464 2.011807.01446c-.108855 3.716494.05787-1.999403.05787-1.999403l-2.055227-.01655z" fill="#fff" transform="matrix(1.3730602 0 0 1.3730602 -4.389175 -9.845037)"/></svg>