<svg xmlns="http://www.w3.org/2000/svg" xmlns:xlink="http://www.w3.org/1999/xlink" width="48" height="48" version="1.1" id="svg38"><defs id="defs22"><linearGradient id="linearGradient4488"><stop id="stop4490" offset="0" stop-color="#000" stop-opacity=".047"/><stop id="stop4492" offset="1" stop-color="#000" stop-opacity="0"/></linearGradient><style id="style4511"/><style id="style4511-26"/><style id="style4511-9"/><style id="style4552"/><style id="style4511-2"/><linearGradient gradientTransform="translate(-63.205 2.216) scale(.3038)" xlink:href="#linearGradient4488" id="linearGradient4160" x1="288.112" y1="141.785" x2="287.575" y2="79.008" gradientUnits="userSpaceOnUse"/></defs><style id="style4485" type="text/css"/><path d="M2.433 26.443v1.668c0 9.575 5.583 17.282 17.146 17.282h6.93c15.133 0 17.837-11.322 17.837-17.282v-1.668c0 5.96-2.704 17.282-17.837 17.282h-6.93c-11.563 0-17.146-7.708-17.146-17.282z" id="path4147" opacity="1" fill="url(#linearGradient4160)" fill-opacity="1" stroke="none" stroke-width="1.1" stroke-linecap="square" stroke-linejoin="bevel" stroke-miterlimit="4" stroke-dasharray="none" stroke-dashoffset="0" stroke-opacity=".078"/><path d="M19.046 2.965h8.495c13.908 0 16.805 11.246 16.805 17.282v7.123c0 5.96-2.704 17.282-17.837 17.282h-6.93c-11.562 0-17.146-7.708-17.146-17.282v-7.123c0-9.575 5.47-17.282 16.613-17.282z" id="rect4144" opacity="1" fill="#248be9" fill-opacity="1" stroke="#000" stroke-width=".334" stroke-linecap="square" stroke-linejoin="bevel" stroke-miterlimit="4" stroke-dasharray="none" stroke-dashoffset="0" stroke-opacity=".078"/><circle id="path4609-5-6-4" cx="23.39" cy="23.808" r="14.048" fill="#ba4c81" fill-opacity=".006" stroke="#fff" stroke-width=".749" stroke-miterlimit="4" stroke-dasharray="none" stroke-opacity=".983"/><path d="M23.165 9.767a14.166 14.166 0 0 0-3.121.396c-.264.237-.654.357-1.092.345-.157.15-.12.429-.206.635-.072.172-.324.357-.497.342-.128-.01-.274-.19-.275-.31 0-.143.2-.223.09-.383a13.955 13.955 0 0 0-3.11 1.762c.256-.094.538-.252.769-.257.038 0 .073.002.107.012.156.04.565.489.224.635a3.54 3.54 0 0 1-.583.05c-.118-.02-.19-.184-.31-.206-.2-.035-.457.174-.63.08a14.004 14.004 0 0 0-4.29 5.93c.082-.047.166-.097.239-.135.25-.13.463-.34.754-.36.146-.003.356.039.496.068.129.027.233.113.345.122.317.024.391-.222.65-.36.267.037.445-.045.686-.018.165.018.284.194.412.203.107.011.203-.1.307-.084.102.015.276.236.292.36.021.155-.113.294-.069.463.162.165.455.198.686.292.15-.124.02-.353 0-.533-.002-.079.011-.149 0-.222-.014-.123-.068-.237-.068-.342-.003-.488.394-.716.72-.91.143-.083.254-.23.377-.291.173-.087.302-.108.447-.188.26-.146.483-.264.686-.43.093-.22.01-.517.018-.736.093-.058.174.026.274.018.157-.033.17-.254.259-.342.051-.051.192-.087.256-.138.156-.122.207-.307.343-.36.049-.02.162-.015.239-.035.101-.028.245-.148.41-.204.109-.037.356-.045.396-.086.051-.051 0-.196.018-.274.084-.387.667-.47 1.012-.6.242-.09.489-.259.754-.207-.052.184-.299.12-.256.342.057.31.472-.09.582-.135.209-.088.568-.14.842-.24.24-.089.672-.223.445-.499-.189-.01-.28.222-.445.292-.114.018-.092-.094-.19-.104-.092-.01-.144.086-.239.069-.094-.015-.226-.164-.24-.275-.038-.286.241-.403.36-.617-.078-.259-.437-.054-.653-.154.02-.155.18-.261.36-.29.148-.026.48-.012.567.066.05.043.004.151.086.223.087.079.194.072.308.053.04-.195-.254-.147-.222-.276.232-.152.608-.027.892-.069.163-.024.335-.14.48-.221.137-.078.316-.215.462-.086.04.14-.128.187-.206.256a5.575 5.575 0 0 0-.736.772c.125.122.352.061.564.086.083.01.186.036.275.05.102.019.212.013.291.034.145.035.183.19.326.19.235 0 .236-.255.104-.413.042-.162.107-.245.05-.359-.105-.212-.493-.011-.513-.275-.013-.17.143-.164.206-.292-.028-.33.27-.354.239-.65-.014-.124-.12-.125-.206-.241-.046-.06-.066-.178-.12-.224-.18-.151-.544-.122-.566-.41-.003-.098.01-.187.02-.28-.166-.006-.33-.023-.496-.025zm-6.682 3.365c.08.01.178.097.275.104.091.002.167-.05.223-.036.144.038.204.255.069.36-.112.015-.157-.048-.241-.033-.233.04-.322.496-.496.48-.164-.014-.253-.413-.086-.533.011-.103-.075-.12-.07-.223a.42.42 0 0 1 .327-.12m-.772.054c.048.001.084.012.103.033-.023.183-.167.172-.308.257-.243.147-.384.371-.462.686-.023.091-.263.334-.379.31-.271-.057.075-.56.137-.636.069-.084.16-.159.242-.256.078-.095.13-.222.206-.275.082-.057.319-.125.462-.12m2.03.618c.088.002.164.015.2.05-.056.227-.542.167-.72.085.011-.085.144-.109.256-.12.079-.002.178-.018.265-.015m-1.112.417a.628.628 0 0 1 .18.028c-.159.131-.33.206-.6.291-.13.042-.356.093-.379-.053-.027-.178.19-.136.31-.153.15-.02.315-.107.49-.113m17.23.254a1.09 1.09 0 0 1-.02.39c-.047.186-.214.354-.206.515.01.083.101.162.121.275.011.06-.028.187 0 .24.088.17.325.027.48.052.152.024.327.241.326.41-.002.12-.113.316-.188.43-.15.227-.352.237-.567.359-.179.101-.256.27-.36.447-.114.19-.184.306-.138.582-.153.304-.386.49-.703.635-.094.042-.222.057-.308.12-.069.049-.108.182-.206.291-.12.135-.246.19-.31.292-.049.08-.065.238-.12.343-.072.144-.228.214-.324.36-.044.068-.074.204-.122.292-.109.198-.294.34-.275.514.02.167.21.196.223.342.003.083-.054.134-.05.223.002.132.09.224.102.326.026.254-.088.356-.135.531-.023.084-.013.176-.035.241-.042.127-.22.244-.223.394-.002.107.11.193.119.343.003.104-.052.214-.034.31.037.186.371.403.515.548.195.194.448.344.532.549.07.173.07.4.206.531.1.097.266.156.394.257.12.093.25.175.378.274.21.164.524.49.856.465.174-.013.352-.156.549-.19.203-.037.466-.055.67-.034.157.015.318.109.48.102.172-.01.37-.138.564-.223.31-.134.758-.301 1.209-.276.086-.632.147-1.274.147-1.93 0-2.658-.744-5.13-2.017-7.244-.06-.004-.113-.013-.178-.01-.174.01-.46.01-.463-.206-.002-.178.168-.217.37-.23a14.055 14.055 0 0 0-1.261-1.64m-21.439 6.435c-.285.016-.471.029-.633.102-.371.169-.3.671-.67.79-.128.041-.304.042-.445.069-.122.021-.27.089-.395.086-.149-.002-.408-.146-.496-.241-.06-.065-.16-.296-.225-.449-.09.494-.152.997-.188 1.507.03.005.062.014.088.014.162 0 .336-.168.515-.172.42-.012.603.535.942.703.085.043.198.045.308.07.089.019.155.056.24.085.182.062.404.054.55.12.218.096.378.506.566.616.01.111-.02.261.018.343.089.12.214.094.36.172.175.095.228.338.394.412.057.025.202.023.292.05.227.069.301.332.496.275.128-.037.118-.17.139-.292.084-.091.176-.236.307-.239.213-.01.232.22.31.427.044.117.158.22.188.343.053.213.027.85-.018.977-.054.157-.265.223-.396.396-.061.081-.09.2-.137.257-.084.102-.21.129-.272.223-.036.053-.07.167-.104.239-.103.218-.241.373-.155.635.036.108.206.18.206.307.001.15-.318.284-.342.447-.018.122.098.34.137.498.028.12.255.195.326.275.12.135.216.326.327.495.217.334.387.74.599 1.065.111.17.268.321.342.498.039.089.034.194.069.274.122.277.663.567.943.704.13.064.276.087.395.153.182.101.54.374.633.533.082.144.133.492.172.72.053.3.003.532.018.858.011.176.067.354.069.531 0 .062-.033.108-.035.17-.003.214.054.455.035.67a.745.745 0 0 1-.014.122 14.072 14.072 0 0 0 5.485 1.104c.204 0 .402-.023.604-.032a.827.827 0 0 1 .015-.09c.063-.174.223-.232.326-.36.078-.097.114-.211.188-.308.08-.105.153-.2.206-.292.05-.313-.125-.531-.05-.805.08-.308.506-.496.804-.635.103-.048.209-.126.292-.155.207-.072.464-.033.653-.102.321-.118.355-.462.513-.755.075-.139.173-.277.188-.376.013-.089-.032-.171-.018-.276.016-.104.108-.193.137-.307.038-.149.053-.366.053-.532 0-.136-.063-.256-.068-.378-.022-.445.16-.495.325-.737.083-.12.113-.257.17-.342.276-.412.756-.611.721-1.235-.012-.206-.14-.672-.292-.739-.086-.037-.285-.002-.41-.05-.406-.152-.645-.654-1.065-.686-.09-.011-.172.036-.273.035-.166-.011-.417-.116-.601-.138-.117-.012-.272.035-.343 0-.107-.052-.118-.248-.206-.307-.07-.048-.203-.063-.307-.104-.169-.065-.303-.141-.498-.154-.06-.003-.136.029-.206.018-.108-.018-.193-.145-.292-.206-.125-.076-.24-.113-.292-.222.113-.369-.199-.472-.274-.686-.036-.1-.02-.22-.05-.31-.045-.127-.172-.2-.31-.307-.249-.191-.469-.37-.824-.414-.156-.019-.309.047-.498.036-.2-.013-.45-.188-.599-.36-.145-.166-.216-.315-.343-.395-.12-.077-.278-.075-.36-.153-.037-.034-.03-.092-.069-.172-.06-.125-.161-.194-.086-.343-.137-.07-.14.13-.29.104-.134-.189-.246-.279-.55-.223-.138.026-.216.201-.378.206-.132.01-.236-.148-.41-.173-.133-.018-.283.036-.377.018-.147-.029-.191-.151-.325-.239-.099-.063-.288-.174-.343-.172-.172.01-.295.367-.533.241-.115-.147.188-.224.05-.36-.103-.104-.19.046-.274.103-.095.066-.185.132-.29.17-.236.089-.382.043-.567.138-.17.088-.178.236-.274.411-.08.144-.26.352-.379.36-.143.012-.28-.2-.41-.256-.393-.17-.584.15-.91.154-.303.011-.734-.487-.72-.771.003-.174.1-.438.12-.653.018-.17.135-.273.137-.429.003-.208-.276-.369-.41-.394-.322-.06-.766.13-1.133-.018-.07-.116.082-.197.122-.31.021-.064.01-.15.033-.221.04-.11.155-.194.206-.31.038-.088.048-.215.086-.325.044-.125.127-.205.137-.292a.386.386 0 0 0-.121-.326m4.585 3.631c.116.011.13.251.011.27-.128.021-.193-.2-.068-.257a.106.106 0 0 1 .057-.012" id="path44-3-1-4" opacity=".4" fill="#fff" fill-opacity="1" stroke-width=".889"/><path d="M28.544 12.309a4.287 4.287 0 0 0-.601.045 4.331 4.331 0 0 0-.48.093l-.024.006c-1.735.452-3.005 1.937-3.005 3.7l.001.038-.001.024c.002 1.21.635 2.345 1.644 3.083l-.11 1.234 1.2-.642c.442.15.908.229 1.377.23 2.187-.002 3.99-1.63 4.102-3.706a3.66 3.66 0 0 0 .006-.137l.004-.062-.001-.026v-.036c0-1.991-1.619-3.632-3.7-3.825a4.284 4.284 0 0 0-.342-.016c-.023 0-.046-.003-.07-.003z" id="path2-6-1-9-3" fill="#fff" fill-opacity="1" stroke="none" stroke-width=".156" stroke-miterlimit="4" stroke-dasharray="none" stroke-opacity=".063"/><path d="M28.414 13.541a2.733 2.733 0 0 0-.873.264l-.152.082-.008.297-.008.298.174-.105c.213-.13.51-.259.697-.3.207-.047.566-.022.697.046.262.136.374.302.377.565.003.253-.075.386-.431.738-.344.339-.526.56-.596.719-.057.127-.1.48-.102.812v.223h.602l.014-.393c.017-.518.018-.52.54-1.057.226-.23.44-.472.477-.535.109-.187.154-.388.139-.607-.05-.718-.682-1.145-1.547-1.047zm-.225 4.121v.815h.635v-.815h-.635z" id="path4480" opacity="1" fill="#248be9" fill-opacity="1" stroke="none" stroke-width=".749" stroke-linecap="square" stroke-linejoin="miter" stroke-miterlimit="4" stroke-dasharray="none" stroke-opacity="1"/></svg>