<svg xmlns:osb="http://www.openswatchbook.org/uri/2009/osb" xmlns="http://www.w3.org/2000/svg" xmlns:xlink="http://www.w3.org/1999/xlink" width="48" height="48" version="1.1" id="svg38"><defs id="defs22"><linearGradient id="linearGradient3764-36753" x1="1" x2="47" gradientTransform="rotate(-90 64.25 -8)" gradientUnits="userSpaceOnUse"><stop id="stop1335" offset="0" stop-color="#0c3258"/><stop id="stop1337" offset="1" stop-color="#0e3c6a"/></linearGradient><linearGradient id="linearGradient4488"><stop id="stop4490" offset="0" stop-color="#000" stop-opacity=".047"/><stop id="stop4492" offset="1" stop-color="#000" stop-opacity="0"/></linearGradient><style id="style4511"/><style id="style4511-26"/><style id="style4511-9"/><style id="style4552"/><style id="style4511-2"/><linearGradient xlink:href="#linearGradient4488" id="linearGradient4540" gradientUnits="userSpaceOnUse" gradientTransform="matrix(.3074 0 0 .30379 -63.667 1.994)" x1="288.112" y1="141.785" x2="287.575" y2="79.008"/><linearGradient osb:paint="solid" id="linearGradient5293"><stop id="stop5295" offset="0" stop-color="#9a89c0" stop-opacity="1"/></linearGradient><style id="style2" type="text/css"><![CDATA[.fil5{fill:none}.fil1{fill:#196FBA}.fil0{fill:#25B2EE}.fil4{fill:#793C7C}.fil3{fill:#8C508C}.fil2{fill:white}]]></style><linearGradient xlink:href="#linearGradient3764-36753" id="linearGradient1346" x1="2.583" y1="23.586" x2="45.329" y2="23.586" gradientUnits="userSpaceOnUse"/></defs><style id="style4485" type="text/css"/><path id="path4516" d="M2.751 26.22v1.669c0 9.574 5.65 17.282 17.35 17.282h7.012c15.312 0 18.048-11.323 18.048-17.282V26.22c0 5.96-2.736 17.282-18.048 17.282H20.1c-11.7 0-17.349-7.708-17.349-17.282z" opacity="1" fill="url(#linearGradient4540)" fill-opacity="1" stroke="none" stroke-width="1.106" stroke-linecap="square" stroke-linejoin="bevel" stroke-miterlimit="4" stroke-dasharray="none" stroke-dashoffset="0" stroke-opacity=".078"/><path id="path4518" d="M19.561 2.743h8.596c14.073 0 17.004 11.247 17.004 17.282v7.122c0 5.96-2.736 17.282-18.048 17.282H20.1c-11.7 0-17.35-7.708-17.35-17.282v-7.122c0-9.574 5.535-17.282 16.81-17.282z" opacity="1" fill="url(#linearGradient1346)" fill-opacity="1" stroke="#000" stroke-width=".336" stroke-linecap="square" stroke-linejoin="bevel" stroke-miterlimit="4" stroke-dasharray="none" stroke-dashoffset="0" stroke-opacity=".078"/><g id="g1332" transform="matrix(1 0 0 1.02 -72.795 -9.819)"><path d="M97.252 21.25c-.648 0-1.296.115-1.793.344l-10.463 4.828c-.993.458-.993 1.198 0 1.656l10.463 4.828c.993.459 2.593.459 3.586 0l10.463-4.828c.993-.458.993-1.198 0-1.656l-10.463-4.828c-.497-.23-1.145-.344-1.793-.344zm-8.633 9.5l-3.623 1.672c-.993.458-.993 1.198 0 1.656l10.463 4.828c.994.459 2.593.459 3.586 0l10.463-4.828c.993-.458.993-1.198 0-1.656l-3.623-1.672-6.84 3.156c-.993.459-2.592.459-3.586 0l-6.84-3.156zm0 6l-3.623 1.672c-.993.458-.993 1.198 0 1.656l10.463 4.828c.994.459 2.593.459 3.586 0l10.463-4.828c.993-.458.993-1.198 0-1.656l-3.623-1.672-6.84 3.156c-.993.459-2.592.459-3.586 0l-6.84-3.156z" id="path4235" opacity=".1"/><path d="M87.618 35.75l-3.623 1.672c-.993.458-.993 1.198 0 1.656l10.463 4.828c.993.459 2.593.459 3.586 0l10.463-4.828c.993-.458.993-1.198 0-1.656l-3.623-1.672-6.84 3.156c-.993.458-2.593.458-3.586 0z" id="rect4144" fill="#f5602b"/><path d="M87.618 29.75l-3.623 1.672c-.993.458-.993 1.198 0 1.656l10.463 4.828c.993.459 2.593.459 3.586 0l10.463-4.828c.993-.458.993-1.198 0-1.656l-3.623-1.672-6.84 3.156c-.993.459-2.593.459-3.586 0z" id="rect4142" fill="#a4cf3b"/><rect transform="matrix(.90796 -.41906 .90796 .41906 0 0)" width="15.472" y="76.588" ry="1.975" height="15.472" x="13.948" id="rect4140" fill="#4aaad6" fill-opacity=".996" stroke-width="1"/></g></svg>