<svg height="48" width="48" xmlns="http://www.w3.org/2000/svg" xmlns:xlink="http://www.w3.org/1999/xlink"><linearGradient id="a" gradientUnits="userSpaceOnUse" x1="25.03094675612" x2="24.86807943138" y1="45.06785145782" y2="25.99627061771"><stop offset="0" stop-opacity=".046875"/><stop offset="1" stop-opacity="0"/></linearGradient><path d="m3.1412274 26.220541v1.668528c0 9.574276 5.58322 17.282199 17.1457296 17.282199h6.93044c15.13236 0 17.83641-11.322632 17.83641-17.282199v-1.668528c0 5.959567-2.70405 17.282198-17.83641 17.282198h-6.93044c-11.5625096 0-17.1457296-7.707923-17.1457296-17.282198z" fill="url(#a)"/><path d="m19.754367 2.7423187h8.49507c13.90774 0 16.80439 11.2468653 16.80439 17.2820843v7.123176c0 5.959564-2.70417 17.282082-17.83653 17.282082h-6.9301c-11.5625096 0-17.1459396-7.707808-17.1459396-17.282082v-7.123176c0-9.574274 5.47018-17.2820843 16.6131096-17.2820843z" style="fill:#34d22c;stroke:#000;stroke-width:.33418;stroke-linecap:square;stroke-linejoin:bevel;stroke-opacity:.078125"/><g transform="matrix(1.1214033 0 0 1.1214033 -2.738475 -2.009258)"><path d="m23.717821 21.552724c-.828 0-1.5.675906-1.5 1.503906s.672 1.5 1.5 1.5 1.5-.672 1.5-1.5-.672-1.503906-1.5-1.503906z" fill="#fff"/><g fill="none" stroke="#fff" stroke-linecap="round" stroke-linejoin="round" stroke-width="1.2"><path d="m33.433487 26.291201s3.041987-1.0813 3-3c-.07589-3.467798-9.243942-4.931785-12.5-5-7.070189-.148121-12.331438 1.357955-12.499999 4s3 3 3 3"/><path d="m30.433487 16.291201s1.120844-3.767011-.561792-4.69c-3.041146-1.6681759-8.893022 5.640065-10.580126 8.425786-3.663372 6.048904-4.989696 11.358317-2.785899 12.825317 2.203798 1.467001 3.927818-.561103 3.927818-.561103"/><path d="m21.433487 13.291201s-2.168191-2.356074-3.808841-1.360362c-2.965256 1.799622.35092 10.471381 1.919873 13.325317 3.406818 6.197025 7.341742 10.000362 9.714101 8.825318 5.16592-1.979968-.825133-12.790273-.825133-12.790273"/></g></g></svg>