<svg xmlns:osb="http://www.openswatchbook.org/uri/2009/osb" xmlns="http://www.w3.org/2000/svg" xmlns:xlink="http://www.w3.org/1999/xlink" width="48" height="48" version="1.1" id="svg38"><defs id="defs22"><linearGradient id="linearGradient4488"><stop id="stop4490" offset="0" stop-color="#000" stop-opacity=".047"/><stop id="stop4492" offset="1" stop-color="#000" stop-opacity="0"/></linearGradient><style id="style4511"/><style id="style4511-26"/><style id="style4511-9"/><style id="style4552"/><style id="style4511-2"/><linearGradient xlink:href="#linearGradient4488" id="linearGradient4540" gradientUnits="userSpaceOnUse" gradientTransform="translate(-62.889 1.994) scale(.3038)" x1="288.112" y1="141.785" x2="287.575" y2="79.008"/><linearGradient osb:paint="solid" id="linearGradient5293"><stop id="stop5295" offset="0" stop-color="#9a89c0" stop-opacity="1"/></linearGradient><filter height="1.096" y="-.048" width="1.096" x="-.048" id="filter1021" color-interpolation-filters="sRGB"><feGaussianBlur id="feGaussianBlur1023" stdDeviation="1.5"/></filter></defs><style id="style4485" type="text/css"/><g id="g1355" fill-opacity="1"><path d="M2.75 26.22v1.67c0 9.573 5.583 17.281 17.146 17.281h6.93c15.132 0 17.836-11.322 17.836-17.282v-1.668c0 5.96-2.704 17.282-17.836 17.282h-6.93C8.333 43.503 2.75 35.795 2.75 26.22z" id="path4516" opacity="1" fill="url(#linearGradient4540)" stroke="none" stroke-width="1.1" stroke-linecap="square" stroke-linejoin="bevel" stroke-miterlimit="4" stroke-dasharray="none" stroke-dashoffset="0" stroke-opacity=".078"/><path d="M19.666 2.742h8.65c14.16 0 17.11 11.247 17.11 17.282v7.124c0 5.96-2.754 17.282-18.162 17.282h-7.056C8.435 44.43 2.75 36.722 2.75 27.148v-7.124c0-9.574 5.57-17.282 16.916-17.282z" id="path4518" opacity="1" fill="#4d4d4d" stroke="#000" stroke-width=".337" stroke-linecap="square" stroke-linejoin="bevel" stroke-miterlimit="4" stroke-dasharray="none" stroke-dashoffset="0" stroke-opacity=".078"/><g id="g1930" transform="matrix(.38988 0 0 .38357 -.031 -1.357)" color="#000" visibility="visible" fill-rule="nonzero" stroke="none" stroke-width="2.812"><path style="marker:none" d="M61.375 27.704c-20.71 0-37.5 16.79-37.5 37.5s16.79 37.5 37.5 37.5c20.711 0 37.5-16.79 37.5-37.5s-16.789-37.5-37.5-37.5zm1.74 20.454c8.488.302 13.51 5.683 14.063 13.53.624 8.846-2.148 11.149-.959 12.926 2.484 3.712-1.038 4.685-3.373 6.499-1.453 1.128-4.256.611-5.647-.994-4.226-2.292-2.599 2.111-11.328 2.13-4.537-.174-8.697-3.246-9.872-7.386-1.802-6.349.843-11.034 8.203-13.246 2.129-.64 6.346-.253 8.203-1.527 1.754-1.203 1.124-2.935-1.03-3.16-3.089-.323-7.909.992-10.76.461-2.288-.425-2.984-4.523-1.491-6.285 2.444-2.884 8.71-2.758 12.251-2.912.597-.026 1.175-.056 1.74-.035zM61.98 67.122c-1.966 0-3.587 1.376-3.587 3.089s1.621 3.125 3.587 3.125c1.966 0 3.516-1.412 3.516-3.125s-1.55-3.09-3.516-3.09z" id="path1007" display="inline" overflow="visible" opacity=".3" fill="#000" filter="url(#filter1021)" enable-background="accumulate"/><path id="path3890" d="M61.375 27.704c-20.71 0-37.5 16.79-37.5 37.5s16.79 37.5 37.5 37.5c20.711 0 37.5-16.79 37.5-37.5s-16.789-37.5-37.5-37.5zm1.74 20.454c8.488.302 13.51 5.683 14.063 13.53.624 8.846-2.148 11.149-.959 12.926 2.484 3.712-1.038 4.685-3.373 6.499-1.453 1.128-4.256.611-5.647-.994-4.226-2.292-2.599 2.111-11.328 2.13-4.537-.174-8.697-3.246-9.872-7.386-1.802-6.349.843-11.034 8.203-13.246 2.129-.64 6.346-.253 8.203-1.527 1.754-1.203 1.124-2.935-1.03-3.16-3.089-.323-7.909.992-10.76.461-2.288-.425-2.984-4.523-1.491-6.285 2.444-2.884 8.71-2.758 12.251-2.912.597-.026 1.175-.056 1.74-.035zM61.98 67.122c-1.966 0-3.587 1.376-3.587 3.089s1.621 3.125 3.587 3.125c1.966 0 3.516-1.412 3.516-3.125s-1.55-3.09-3.516-3.09z" style="marker:none" display="inline" overflow="visible" fill="#fff" enable-background="accumulate"/></g></g></svg>