<svg xmlns:osb="http://www.openswatchbook.org/uri/2009/osb" xmlns="http://www.w3.org/2000/svg" xmlns:xlink="http://www.w3.org/1999/xlink" width="48" height="48" version="1.1" id="svg38"><defs id="defs22"><linearGradient id="linearGradient4488"><stop id="stop4490" offset="0" stop-color="#000" stop-opacity=".047"/><stop id="stop4492" offset="1" stop-color="#000" stop-opacity="0"/></linearGradient><style id="style4511"/><style id="style4511-26"/><style id="style4511-9"/><linearGradient gradientUnits="userSpaceOnUse" x2="19.574" y2="22.495" x1="3.783" y1="23.644" id="g-5"><stop id="stop24-2" stop-color="#2980b9"/><stop id="stop26" stop-color="#34495e" offset="1"/></linearGradient><style id="style4552"/><style id="style4511-2"/><linearGradient xlink:href="#linearGradient4488" id="linearGradient4540" gradientUnits="userSpaceOnUse" gradientTransform="matrix(-.30019 -.00052 .00053 -.2924 109.652 46.154)" x1="288.112" y1="141.785" x2="287.575" y2="79.008"/><linearGradient osb:paint="solid" id="linearGradient5293"><stop id="stop5295" offset="0" stop-color="#9a89c0" stop-opacity="1"/></linearGradient><style id="style4511-87"/><style id="style4511-26-7"/><style id="style4511-9-1"/><style id="style4552-53"/><style id="style4511-2-9"/><style id="style4511-8"/><style id="style4511-26-4"/><style id="style4511-9-8"/><style id="style4552-5"/><style id="style4511-2-5"/><linearGradient xlink:href="#g-5" id="linearGradient1542" x1="3.248" y1="34.89" x2="44.995" y2="34.89" gradientUnits="userSpaceOnUse"/><linearGradient gradientUnits="userSpaceOnUse" y2="28.935" x2="8.249" y1="22.81" x1="3.51" id="linearGradient10705" xlink:href="#linearGradient10707" gradientTransform="matrix(.5647 0 0 .54684 10.595 11.425)"/><linearGradient id="linearGradient10707"><stop offset="0" id="stop10709" stop-color="#fff" stop-opacity="1"/><stop offset="1" id="stop10711" stop-color="#fff" stop-opacity="0"/></linearGradient><filter height="1.107" y="-.054" width="1.087" x="-.044" id="filter1662" color-interpolation-filters="sRGB"><feGaussianBlur id="feGaussianBlur1664" stdDeviation="3.263"/></filter><linearGradient xlink:href="#g-5" id="linearGradient1884" x1="3.255" y1="14.17" x2="44.997" y2="14.17" gradientUnits="userSpaceOnUse"/></defs><style id="style4485" type="text/css"/><style type="text/css" id="style4485-7"/><style id="style4485-6" type="text/css"/><path id="path4516" d="M44.836 22.725l.003-1.606c.016-9.215-5.487-16.643-16.912-16.663l-6.848-.012C6.126 4.42 3.435 15.312 3.424 21.048l-.003 1.605c.01-5.735 2.702-16.628 17.655-16.603l6.848.012c11.425.02 16.929 7.448 16.912 16.663z" opacity="1" fill="url(#linearGradient4540)" fill-opacity="1" stroke="none" stroke-width="1.073" stroke-linecap="square" stroke-linejoin="bevel" stroke-miterlimit="4" stroke-dasharray="none" stroke-dashoffset="0" stroke-opacity=".078"/><path d="M28.379 45.294c11.01.019 16.43-7.39 16.446-16.605l.007-4.132-41.414-.07-.007 4.131c-.01 5.809 2.832 16.638 16.575 16.661z" id="path4518" opacity="1" fill="url(#linearGradient1542)" fill-opacity="1" stroke="#000" stroke-width=".326" stroke-linecap="square" stroke-linejoin="bevel" stroke-miterlimit="4" stroke-dasharray="none" stroke-dashoffset="0" stroke-opacity=".078"/><path d="M19.843 3.783c-11.01-.005-16.42 7.41-16.423 16.625l-.002 4.132 41.414.017.002-4.131c.003-5.81-2.855-16.634-16.598-16.64z" id="path4518-7" opacity="1" fill="url(#linearGradient1884)" fill-opacity="1" stroke="#000" stroke-width=".326" stroke-linecap="square" stroke-linejoin="bevel" stroke-miterlimit="4" stroke-dasharray="none" stroke-dashoffset="0" stroke-opacity=".078"/><path id="path4518-0" d="M20.136 5.362h7.792c12.756 0 15.413 10.353 15.413 15.91v6.557c0 5.486-2.48 15.909-16.36 15.909h-6.356C10.02 43.738 4.9 36.642 4.9 27.828v-6.557c0-8.813 5.017-15.91 15.237-15.91z" opacity="1" fill="#ececec" fill-opacity="1" stroke="#000" stroke-width=".307" stroke-linecap="square" stroke-linejoin="bevel" stroke-miterlimit="4" stroke-dasharray="none" stroke-dashoffset="0" stroke-opacity=".078"/><g id="g1896" transform="matrix(1.0092 0 0 1.08249 -.206 -2.485)" fill-opacity="1" stroke-opacity="1"><path id="path2790" transform="matrix(.1501 0 0 .14535 5.257 5.652)" d="M125.484 55.316c-15.361.027-30.766 4.798-42.49 14.532-11.075 9.194-18.691 22.942-19.502 40.537-7.26 1.563-13.679 6.299-18.46 12.927-5.907 8.187-9.464 19.313-9.464 31.553 0 12.24 3.557 23.364 9.463 31.551 5.906 8.187 14.31 13.488 23.71 13.488h2.435v-90.082h-.014c.9-15.152 7.332-26.316 16.71-34.101 10.123-8.406 23.847-12.748 37.626-12.772 13.779-.024 27.508 4.271 37.643 12.662 9.621 7.967 16.159 19.518 16.82 35.348v88.945h2.435c9.4 0 17.804-5.301 23.71-13.488 5.905-8.187 9.462-19.31 9.462-31.55 0-12.24-3.557-23.367-9.463-31.554-4.797-6.65-11.24-11.397-18.529-12.945-.837-17.68-8.475-31.452-19.568-40.637-11.742-9.722-27.162-14.44-42.524-14.414zm43.252 52.93a3.763 3.763 0 0 0-3.705 3.817V197.2a3.763 3.763 0 1 0 7.526 0v-85.138a3.763 3.763 0 0 0-3.82-3.817zm-88.078.531a3.763 3.763 0 0 0-3.705 3.815v85.14a3.763 3.763 0 1 0 7.524 0v-85.14a3.763 3.763 0 0 0-3.819-3.815z" style="line-height:normal;font-variant-ligatures:normal;font-variant-position:normal;font-variant-caps:normal;font-variant-numeric:normal;font-variant-alternates:normal;font-feature-settings:normal;text-indent:0;text-align:start;text-decoration-line:none;text-decoration-style:solid;text-decoration-color:#000;text-transform:none;text-orientation:mixed;white-space:normal;shape-padding:0;isolation:auto;mix-blend-mode:normal;solid-color:#000;solid-opacity:1" color="#000" font-style="normal" font-variant="normal" font-weight="400" font-stretch="normal" font-size="medium" font-family="sans-serif" text-decoration="none" letter-spacing="normal" word-spacing="normal" writing-mode="lr-tb" direction="ltr" dominant-baseline="auto" baseline-shift="baseline" text-anchor="start" clip-rule="nonzero" display="inline" overflow="visible" visibility="visible" opacity=".3" color-interpolation="sRGB" color-interpolation-filters="linearRGB" vector-effect="none" fill="#000" fill-rule="nonzero" stroke="none" stroke-width="4.871" stroke-linecap="butt" stroke-linejoin="miter" stroke-miterlimit="4" stroke-dasharray="none" stroke-dashoffset="0" filter="url(#filter1662)" color-rendering="auto" image-rendering="auto" shape-rendering="auto" text-rendering="auto" enable-background="accumulate"/><path id="path1626" d="M18.07 27.552l.942.273.365-1.189.576.763.16-4.226.781 4.379.47-.546s.265.675.265.546c0-.13.534-2.954.534-2.954l.613 3.114.471-1.798v1.365l.47-.273v.947l1.199-4.532.213 4.13.862-1.671.55 1.672 1.1-2.979.312 2.979.814-1.06.598.787.47-.273v2.184l-.47-.273-.47.967-.694-.967s-.676 4.317-.676 4.044c0-.273-.513-3.771-.513-3.771l-.989 1.157-.423-1.157-.941 2.183-.47-1.91-.688 1.125-.254-1.126s-.386 1.542-.386 1.428c0-.115-.085-1.155-.085-1.155s-.8 3.704-.8 3.432c0-.273-.14-3.705-.14-3.705l-.857 1.4-.085-1.127-.76 3.375-.299-3.272-.818.46-.005-.836-.942-.399z" opacity=".8" fill="none" fill-rule="evenodd" stroke="#fff13b" stroke-width=".591" stroke-linecap="square" stroke-linejoin="round" stroke-miterlimit="4" stroke-dasharray="none"/><path d="M18.07 27.552l.942.273.365-1.189.576.763.16-4.226.781 4.379.47-.546s.265.675.265.546c0-.13.534-2.954.534-2.954l.613 3.114.471-1.798v1.365l.47-.273v.947l1.199-4.532.213 4.13.862-1.671.55 1.672 1.1-2.979.312 2.979.814-1.06.598.787.47-.273v2.184l-.47-.273-.47.967-.694-.967s-.676 4.317-.676 4.044c0-.273-.513-3.771-.513-3.771l-.989 1.157-.423-1.157-.941 2.183-.47-1.91-.688 1.125-.254-1.126s-.386 1.542-.386 1.428c0-.115-.085-1.155-.085-1.155s-.8 3.704-.8 3.432c0-.273-.14-3.705-.14-3.705l-.857 1.4-.085-1.127-.76 3.375-.299-3.272-.818.46-.005-.836-.942-.399z" id="path6815" opacity=".8" fill="#ef2929" fill-rule="evenodd" stroke="none" stroke-width=".603" stroke-linecap="butt" stroke-linejoin="miter"/><path style="line-height:normal;font-variant-ligatures:normal;font-variant-position:normal;font-variant-caps:normal;font-variant-numeric:normal;font-variant-alternates:normal;font-feature-settings:normal;text-indent:0;text-align:start;text-decoration-line:none;text-decoration-style:solid;text-decoration-color:#000;text-transform:none;text-orientation:mixed;white-space:normal;shape-padding:0;isolation:auto;mix-blend-mode:normal;solid-color:#000;solid-opacity:1" d="M24.091 13.692c-2.305.004-4.617.698-6.377 2.112-1.662 1.337-2.806 3.335-2.927 5.892-1.09.228-2.053.916-2.771 1.88-.887 1.19-1.42 2.807-1.42 4.586 0 1.779.533 3.396 1.42 4.586.886 1.19 2.148 1.96 3.558 1.96h.366V21.615h-.002c.135-2.203 1.1-3.825 2.508-4.957 1.52-1.222 3.58-1.853 5.647-1.856 2.069-.004 4.13.62 5.65 1.84 1.445 1.158 2.426 2.837 2.525 5.138v12.928h.366c1.41 0 2.672-.77 3.558-1.96.887-1.19 1.42-2.807 1.42-4.586 0-1.78-.533-3.397-1.42-4.587-.72-.966-1.687-1.656-2.78-1.881-.126-2.57-1.273-4.572-2.938-5.907-1.762-1.413-4.077-2.099-6.383-2.095zm6.492 7.694a.565.547 0 0 0-.556.554v12.375a.565.547 0 1 0 1.13 0V21.94a.565.547 0 0 0-.574-.554zm-13.22.077a.565.547 0 0 0-.556.554v12.375a.565.547 0 1 0 1.13 0V22.017a.565.547 0 0 0-.574-.554z" id="path1644" color="#000" font-style="normal" font-variant="normal" font-weight="400" font-stretch="normal" font-size="medium" font-family="sans-serif" text-decoration="none" letter-spacing="normal" word-spacing="normal" writing-mode="lr-tb" direction="ltr" dominant-baseline="auto" baseline-shift="baseline" text-anchor="start" clip-rule="nonzero" display="inline" overflow="visible" visibility="visible" opacity="1" color-interpolation="sRGB" color-interpolation-filters="linearRGB" vector-effect="none" fill="#375485" fill-rule="nonzero" stroke="none" stroke-width=".72" stroke-linecap="butt" stroke-linejoin="miter" stroke-miterlimit="4" stroke-dasharray="none" stroke-dashoffset="0" color-rendering="auto" image-rendering="auto" shape-rendering="auto" text-rendering="auto" enable-background="accumulate"/><path d="M14.635 22.26c-2 1.002-2.392 2.13-2.71 3.38 0 0 1.552-2.153 2.658-2.667z" id="path9728" fill="url(#linearGradient10705)" fill-rule="evenodd" stroke="none" stroke-width=".348" stroke-linecap="butt" stroke-linejoin="miter"/></g></svg>