<svg xmlns="http://www.w3.org/2000/svg" xmlns:xlink="http://www.w3.org/1999/xlink" width="48" height="48" version="1.1" id="svg38"><defs id="defs22"><linearGradient id="linearGradient3764" x1="1" x2="47" gradientUnits="userSpaceOnUse" gradientTransform="rotate(-90 -13.317 60.943)"><stop stop-color="#e4e4e4" stop-opacity="1" id="stop1284"/><stop offset="1" stop-color="#eee" stop-opacity="1" id="stop1286"/></linearGradient><linearGradient id="linearGradient4488"><stop id="stop4490" offset="0" stop-color="#000" stop-opacity=".047"/><stop id="stop4492" offset="1" stop-color="#000" stop-opacity="0"/></linearGradient><style id="style4511"/><style id="style4511-26"/><style id="style4511-9"/><style id="style4552"/><style id="style4511-2"/><linearGradient gradientTransform="translate(-63.205 2.216) scale(.3038)" xlink:href="#linearGradient4488" id="linearGradient4160" x1="288.112" y1="141.785" x2="287.575" y2="79.008" gradientUnits="userSpaceOnUse"/><clipPath id="clipPath-223639780"/><linearGradient xlink:href="#linearGradient3764" id="linearGradient1295" x1="2.266" y1="23.808" x2="44.513" y2="23.808" gradientUnits="userSpaceOnUse"/></defs><style id="style4485" type="text/css"/><path stroke-miterlimit="4" d="M2.433 26.443v1.668c0 9.575 5.583 17.282 17.146 17.282h6.93c15.133 0 17.837-11.322 17.837-17.282v-1.668c0 5.96-2.704 17.282-17.837 17.282h-6.93c-11.563 0-17.146-7.708-17.146-17.282z" id="path4147" opacity="1" fill="url(#linearGradient4160)" fill-opacity="1" stroke="none" stroke-width="1.1" stroke-linecap="square" stroke-linejoin="bevel" stroke-dasharray="none" stroke-dashoffset="0" stroke-opacity=".078"/><path stroke-miterlimit="4" d="M19.046 2.965h8.495c13.908 0 16.805 11.246 16.805 17.282v7.123c0 5.96-2.704 17.282-17.837 17.282h-6.93c-11.562 0-17.146-7.708-17.146-17.282v-7.123c0-9.575 5.47-17.282 16.613-17.282z" id="rect4144" opacity="1" fill="url(#linearGradient1295)" fill-opacity="1" stroke="#000" stroke-width=".334" stroke-linecap="square" stroke-linejoin="bevel" stroke-dasharray="none" stroke-dashoffset="0" stroke-opacity=".078"/><path id="path387" d="M35.39 13.797s-2 3-5 3c-2.797-.539-3.906-.082-4 0v12.1c-.133 2.551-2.223 5.105-5.336 6.281-3.949 1.492-8.125.195-9.332-2.906-1.211-3.098 1-6.848 4.953-8.34 3.059-1.156 5.867-.871 7.715.863v-12c4-2.66 7.719.961 11 1m0 0" fill="#2d4c78" fill-opacity="1" fill-rule="nonzero" stroke="none"/><path id="path389" d="M17.359 21.82h13.773v4H17.359m0-4" fill="#ff6f03" fill-opacity="1" fill-rule="nonzero" stroke="none"/><path id="path391" d="M30.39 21.82v4h2.438s.563-.324.563-1.996c0-1.613-.621-2-.621-2h-2.375m-.004-.004" fill="#ff2d5b" fill-opacity="1" fill-rule="nonzero" stroke="none"/><path id="path393" d="M17.39 21.82l-4 2 4 1.996v-4m0 .004" fill="#ffc13d" fill-opacity="1" fill-rule="nonzero" stroke="none"/><path id="path395" d="M15.39 22.8l-1.996 1.02 1.996 1.016m0-2.035" fill="#2d2d2d" fill-opacity="1" fill-rule="nonzero" stroke="none"/></svg>