<svg xmlns:osb="http://www.openswatchbook.org/uri/2009/osb" xmlns="http://www.w3.org/2000/svg" xmlns:xlink="http://www.w3.org/1999/xlink" width="48" height="48" version="1.1" id="svg38"><defs id="defs22"><linearGradient id="linearGradient4488"><stop id="stop4490" offset="0" stop-color="#000" stop-opacity=".047"/><stop id="stop4492" offset="1" stop-color="#000" stop-opacity="0"/></linearGradient><style id="style4511"/><style id="style4511-26"/><style id="style4511-9"/><style id="style4552"/><style id="style4511-2"/><linearGradient xlink:href="#linearGradient4488" id="linearGradient4540" gradientUnits="userSpaceOnUse" gradientTransform="matrix(.3074 0 0 .30379 -63.667 1.994)" x1="288.112" y1="141.785" x2="287.575" y2="79.008"/><linearGradient osb:paint="solid" id="linearGradient5293"><stop id="stop5295" offset="0" stop-color="#9a89c0" stop-opacity="1"/></linearGradient><style id="style2" type="text/css"><![CDATA[.fil5{fill:none}.fil1{fill:#196FBA}.fil0{fill:#25B2EE}.fil4{fill:#793C7C}.fil3{fill:#8C508C}.fil2{fill:white}]]></style><linearGradient id="linearGradient2867-449-88-871-390-598-476-591-434-148-57-177-8-3-3-6-4-8-8-8"><stop offset="0" id="stop3750-1-0-7-6-6-1-3-9" stop-color="#fe5" stop-opacity="1"/><stop id="stop1654" offset=".426" stop-color="#feeb46" stop-opacity="1"/><stop offset=".509" id="stop3752-3-7-4-0-32-8-923-0" stop-color="#fc8f36" stop-opacity="1"/><stop id="stop1062" offset=".588" stop-color="#ef6422" stop-opacity="1"/><stop offset=".668" id="stop3754-1-8-5-2-7-6-7-1" stop-color="#e23a0e" stop-opacity="1"/><stop id="stop1658" offset=".937" stop-color="#b8017a" stop-opacity=".973"/><stop offset="1" id="stop3756-1-6-2-6-6-1-96-6" stop-color="#b8017a" stop-opacity="1"/></linearGradient><radialGradient xlink:href="#linearGradient2867-449-88-871-390-598-476-591-434-148-57-177-8-3-3-6-4-8-8-8" id="radialGradient1916" cx="23.956" cy="23.586" fx="23.956" fy="23.586" r="21.373" gradientTransform="matrix(1 0 0 .98306 0 .4)" gradientUnits="userSpaceOnUse"/></defs><style id="style4485" type="text/css"/><path id="path4516" d="M2.751 26.22v1.669c0 9.574 5.65 17.282 17.35 17.282h7.012c15.312 0 18.048-11.323 18.048-17.282V26.22c0 5.96-2.736 17.282-18.048 17.282H20.1c-11.7 0-17.349-7.708-17.349-17.282z" opacity="1" fill="url(#linearGradient4540)" fill-opacity="1" stroke="none" stroke-width="1.106" stroke-linecap="square" stroke-linejoin="bevel" stroke-miterlimit="4" stroke-dasharray="none" stroke-dashoffset="0" stroke-opacity=".078"/><path id="path4518" d="M19.561 2.743h8.596c14.073 0 17.004 11.247 17.004 17.282v7.122c0 5.96-2.736 17.282-18.048 17.282H20.1c-11.7 0-17.35-7.708-17.35-17.282v-7.122c0-9.574 5.535-17.282 16.81-17.282z" opacity="1" fill="url(#radialGradient1916)" fill-opacity="1" stroke="#000" stroke-width=".336" stroke-linecap="square" stroke-linejoin="bevel" stroke-miterlimit="4" stroke-dasharray="none" stroke-dashoffset="0" stroke-opacity=".078"/><g id="g1906" transform="matrix(.74789 0 0 .7523 42.645 2.996)"><g transform="matrix(.10576 0 0 .10817 -49.204 -1.773)" id="g1885"><path d="M432.892 270.738c0-19.656-36.306-36.598-92.189-46.318 6.527-9.28 12.38-18.313 17.448-26.977 8.491-14.518 19.991-37.203 20.462-54.235 4.069-3.061 6.713-7.916 6.713-13.4 0-9.265-7.512-16.777-16.777-16.777-6.101 0-11.426 3.267-14.362 8.138-18.709 1.495-46.912 15.391-78.897 37.896-9.718-55.923-26.665-92.258-46.33-92.258-19.664 0-36.611 36.335-46.33 92.257-7.278-5.122-14.365-9.807-21.185-13.99a16.704 16.704 0 0 0 1.077-5.871c0-9.266-7.512-16.778-16.777-16.778-5.617 0-10.576 2.77-13.621 7.007-12.406-5.45-23.173-8.4-31.642-8.4-6.78 0-12.07 1.853-15.723 5.505-13.893 13.894-.215 51.525 32.403 97.892-55.85 9.722-92.132 26.66-92.132 46.309 0 19.656 36.306 36.598 92.188 46.318-6.526 9.279-12.378 18.313-17.447 26.977-11.842 20.244-29.54 56.377-15.01 70.904 3.652 3.653 8.942 5.506 15.722 5.506 18.602 0 48.251-14.182 82.148-38.032 9.718 55.923 26.665 92.258 46.33 92.258 13.736 0 26.145-17.739 35.694-47.49 1.01.19 2.047.3 3.112.3 9.266 0 16.777-7.512 16.777-16.777 0-7.45-4.86-13.758-11.58-15.947a430.336 430.336 0 0 0 2.328-12.342c33.897 23.85 63.545 38.031 82.147 38.031 6.78 0 12.07-1.853 15.723-5.505 14.53-14.529-3.169-50.66-15.01-70.904-5.067-8.664-10.92-17.698-17.447-26.977 55.88-9.722 92.187-26.665 92.187-46.32zm-80.648-144.826a16.785 16.785 0 0 0-.473 3.896c0 9.265 7.512 16.777 16.778 16.777 1.915 0 3.748-.337 5.461-.928-1.094 12.069-7.796 29.075-19.75 49.51-5.325 9.103-11.547 18.629-18.498 28.418-16.405-2.674-34.395-4.737-53.564-6.086-1.35-19.188-3.415-37.195-6.094-53.613 30.71-21.873 57.803-35.666 76.14-37.974zm-75.34 95.814l1.005.064c.07 1.047.134 2.1.2 3.153zm-47.131-6.05l-.812-.002c-.431 0-.858.004-1.289.004l1.045-3.146zm-68.145 57.21c-.642-.729-1.286-1.457-1.922-2.184a734.182 734.182 0 0 1 4.704-5.291zm37.825 27.763l26.722-80.46c.928-.004 1.855-.008 2.786-.008.777 0 1.551.006 2.327.008l27.017 80.462h-58.852zm-19.571-76.798c.043-.687.085-1.376.13-2.06l.652-.042zm-5.311 14.268l-5.933 15.937a726.203 726.203 0 0 0-11.91 13.217c-11.648-13.493-22.192-26.77-31.42-39.47 15.499-2.452 32.336-4.386 50.107-5.69a718.255 718.255 0 0 0-.844 16.006zm-14.746 39.611l-9.147 24.572c-7.703.198-14.1 5.579-15.85 12.79a529.04 529.04 0 0 1-9.638-1.438c9.326-12.835 19.919-26.094 31.497-39.465a770.896 770.896 0 0 0 3.138 3.541zm69.22 62.208l-.084.075-.085-.075zm64.027-75.021a704.923 704.923 0 0 1 5.176 5.82c-.693.79-1.41 1.583-2.109 2.374zm4.853 12.964c1.102-1.237 2.211-2.473 3.297-3.71 11.584 13.378 22.18 26.642 31.51 39.481a551.762 551.762 0 0 1-20.358 2.828zm-9.11-24.34l-5.422-14.485a728.976 728.976 0 0 0-.884-16.943c17.815 1.308 34.693 3.248 50.223 5.71-9.328 12.84-19.926 26.104-31.51 39.48a731.583 731.583 0 0 0-12.408-13.762zm-11.23-36.35c-.81-.052-1.62-.106-2.436-.155l-15.357-41.027a536.173 536.173 0 0 1 12.08-9.066c2.464 15.538 4.405 32.424 5.714 50.247zM228.962 71.313c17.335 0 32.965 36.547 42.113 90.758a529.958 529.958 0 0 0-12.909 9.593l-6.974-18.632h-44.948l-6.837 18.367a530.337 530.337 0 0 0-12.56-9.328c9.15-54.212 24.78-90.758 42.115-90.758zm-42.912 95.63a535.646 535.646 0 0 1 11.739 8.805l-15.378 41.308c-.695.043-1.383.09-2.074.133 1.308-17.823 3.25-34.709 5.713-50.246zm-98.103-37.22c2.777-2.777 6.994-4.185 12.536-4.185 7.917 0 17.97 2.727 29.57 7.772a16.705 16.705 0 0 0-1.085 5.892c0 9.266 7.512 16.778 16.778 16.778 5.625 0 10.592-2.779 13.636-7.029 7.196 4.433 14.7 9.426 22.434 14.936-2.678 16.418-4.743 34.424-6.094 53.612-19.127 1.346-37.081 3.403-53.458 6.069-31.809-44.753-46.564-81.598-34.317-93.846zm-58.41 141.014c0-17.32 36.488-32.94 90.625-42.091 9.7 13.472 20.949 27.631 33.532 42.117-12.377 14.269-23.629 28.414-33.461 42.077-54.177-9.15-90.695-24.775-90.695-42.103zm70.946 145.199c-5.542 0-9.759-1.408-12.536-4.185-9.05-9.049-3.321-32.902 15.714-65.444 5.326-9.103 11.547-18.63 18.499-28.418 3.978.648 8.052 1.26 12.21 1.836a16.706 16.706 0 0 0 5.46 11.72l-21.218 56.998h47.233c-26.968 17.42-50.112 27.493-65.362 27.493zm70.928-31.157l7.966-23.9a522.81 522.81 0 0 0 2.44 16.709 442.33 442.33 0 0 1-10.406 7.19zm11.39-34.171l3.557-10.671h35.748a741.59 741.59 0 0 0 3.442 3.041c-13.493 11.685-26.776 22.285-39.499 31.553a560.908 560.908 0 0 1-3.248-23.923zm85.579 43.347c-.205-.006-.406-.031-.613-.031-9.265 0-16.777 7.511-16.777 16.777 0 6.6 3.82 12.293 9.363 15.033-8.694 27.658-19.651 44.428-31.39 44.428-17.335 0-32.965-36.547-42.114-90.758 13.558-9.757 27.732-20.998 42.114-33.454 14.382 12.456 28.556 23.697 42.113 33.454a450.184 450.184 0 0 1-2.696 14.55zm3.493-19.424c-12.722-9.269-26.005-19.868-39.498-31.554a736.875 736.875 0 0 0 3.443-3.041h35.586l3.688 10.953a560.196 560.196 0 0 1-3.219 23.642zm4.233 3.057c.87-5.34 1.676-10.851 2.414-16.512l7.977 23.691a440.292 440.292 0 0 1-10.39-7.18zm78.156-31.28c19.035 32.54 24.764 56.394 15.714 65.443-2.777 2.777-6.994 4.185-12.536 4.185-15.25 0-38.393-10.073-65.362-27.494h47.234l-25.26-67.485a532.653 532.653 0 0 0 21.714-3.068c6.95 9.789 13.17 19.315 18.496 28.418zM337.69 312.84c-9.839-13.672-21.098-27.826-33.483-42.103 12.385-14.277 23.644-28.432 33.483-42.103 54.176 9.15 90.695 24.775 90.695 42.103 0 17.328-36.519 32.953-90.695 42.103z" id="path1239" opacity=".4" stroke-width=".887"/><g id="g1265" transform="translate(1.977 41.094) scale(.88666)"><g id="g1257" fill="#393c3d"><path d="M333.78 264.056l-2.014-5.381-3.459-9.24a828.667 828.667 0 0 0-10.381-11.354 904.985 904.985 0 0 1 0 35.838 857.774 857.774 0 0 1-.189 7.63 836.475 836.475 0 0 1-1.345 29.292 726.606 726.606 0 0 0 33.683-3.249z" id="path1241"/><path d="M281.539 194.262a825.156 825.156 0 0 1 5.572 5.292 872.366 872.366 0 0 1 12.803 12.532 889.44 889.44 0 0 1 12.532 12.812c-.256-6.945-.595-13.8-1.015-20.547l-1.358-3.628-1.98-5.289-17.32-46.272c-10.11 7.811-20.462 16.302-30.923 25.363a826.438 826.438 0 0 1 21.689 19.737z" id="path1243"/><path d="M288.939 144.261l-7.866-21.013h-50.694l-7.711 20.714c10.895 8.34 22.057 17.446 33.332 27.211 11.139-9.647 22.168-18.654 32.939-26.912z" id="path1245"/><path d="M323.505 236.605l-6.115-16.337c.136 3.367.25 6.765.348 10.183 1.934 2.051 3.868 4.102 5.767 6.154z" id="path1247"/><path d="M351.966 312.64c-11.474 1.388-23.478 2.528-35.922 3.404-1.027 14.603-2.423 28.597-4.15 41.844l8.996 26.72a450.505 450.505 0 0 0 6.294 4.145h53.272z" id="path1249"/><path d="M199.554 224.899a884.282 884.282 0 0 1 12.533-12.812 857.587 857.587 0 0 1 18.375-17.824 824.68 824.68 0 0 1 21.689-19.737c-10.595-9.176-21.076-17.763-31.308-25.657L203.5 195.458l-1.97 5.291-.882 2.37-5.991 16.093-6.691 17.975a846.86 846.86 0 0 1 6.297-6.734 825.632 825.632 0 0 1 5.291-5.554z" id="path1251"/><path d="M312.694 279.499a846.42 846.42 0 0 0 0-46.997 878.214 878.214 0 0 0-16.373-16.822 871.23 871.23 0 0 0-16.838-16.374A823.616 823.616 0 0 0 256 177.87a823.368 823.368 0 0 0-23.483 21.436 871.199 871.199 0 0 0-16.837 16.374 881.34 881.34 0 0 0-16.374 16.823 864.086 864.086 0 0 0-5.232 5.579 832.86 832.86 0 0 0-10.876 11.911l-3.138 8.429-2.034 5.463-10.316 27.713c.165-.004.325-.025.491-.025 10.339 0 18.728 8.296 18.906 18.592a772.123 772.123 0 0 0 13.689 1.039c7.886.526 15.929.94 24.093 1.241a849.238 849.238 0 0 0 31.112.575 845.334 845.334 0 0 0 31.112-.575 808.094 808.094 0 0 0 24.092-1.241c.527-7.889.94-15.935 1.241-24.103.093-2.522.177-5.056.248-7.602zm-89.974 10.236l30.138-90.746 1.69-5.088 1.178-3.548 1.191 3.546 1.709 5.088 30.471 90.748z" id="path1253-2"/><path d="M273.917 317.926a904.782 904.782 0 0 1-35.833 0 855.243 855.243 0 0 1-7.623-.189 837.062 837.062 0 0 1-34.505-1.693c-3.187-.224-6.35-.463-9.477-.722-2.137 8.108-9.498 14.096-18.277 14.096-4.908 0-9.365-1.884-12.727-4.949l-23.93 64.284h53.271a447.951 447.951 0 0 0 6.277-4.133l8.985-26.954 3.861-11.584 4.012-12.035h95.917l4.159 12.353a731.117 731.117 0 0 0 2.815-30.006 834.458 834.458 0 0 1-29.301 1.345c-2.53.071-5.069.136-7.624.187z" id="path1255"/></g><g id="g1263" fill="#fff"><path d="M258.625 198.988l-1.709-5.088c-.306 0-.61-.003-.916-.003-.486 0-.967.004-1.453.005l-1.69 5.088c1.047-.004 2.092-.01 3.142-.01.878-.001 1.751.005 2.626.008z" id="path1259"/><path d="M486 256c0-22.169-40.947-41.276-103.973-52.239 7.361-10.466 13.962-20.654 19.678-30.426 9.577-16.373 22.547-41.958 23.078-61.167 4.589-3.453 7.571-8.928 7.571-15.113 0-10.45-8.472-18.922-18.922-18.922-6.881 0-12.886 3.685-16.198 9.178-21.1 1.686-52.908 17.359-88.982 42.74C297.292 66.98 278.178 26 256 26s-41.292 40.98-52.253 104.05c-8.209-5.776-16.202-11.06-23.893-15.779a18.84 18.84 0 0 0 1.214-6.621c0-10.45-8.472-18.922-18.922-18.922-6.334 0-11.927 3.124-15.362 7.903-13.992-6.147-26.135-9.474-35.687-9.474-7.647 0-13.613 2.089-17.732 6.208-15.67 15.67-.243 58.112 36.545 110.406C66.92 214.736 26 233.839 26 256c0 22.169 40.947 41.276 103.973 52.239-7.361 10.465-13.961 20.654-19.677 30.426-13.356 22.832-33.317 63.583-16.93 79.968 4.12 4.12 10.086 6.209 17.732 6.209 20.981 0 54.42-15.995 92.65-42.893C214.708 445.02 233.822 486 256 486c15.492 0 29.488-20.006 40.257-53.56a18.97 18.97 0 0 0 3.51.338c10.45 0 18.922-8.472 18.922-18.922 0-8.403-5.482-15.516-13.06-17.985.92-4.509 1.796-9.15 2.625-13.92 38.23 26.898 71.668 42.893 92.649 42.893 7.647 0 13.613-2.09 17.733-6.209 16.387-16.386-3.574-57.137-16.928-79.968-5.716-9.772-12.317-19.961-19.678-30.426C445.053 297.276 486 278.168 486 256zM395.043 92.661a18.93 18.93 0 0 0-.533 4.393c0 10.45 8.472 18.922 18.922 18.922 2.16 0 4.227-.379 6.16-1.046-1.234 13.611-8.793 32.791-22.275 55.838-6.006 10.267-13.023 21.011-20.863 32.051-18.502-3.016-38.792-5.342-60.411-6.864-1.523-21.641-3.852-41.949-6.873-60.466 34.635-24.669 65.192-40.225 85.873-42.828zM187.107 310.166c-.178-10.297-8.566-18.592-18.906-18.592-.166 0-.326.021-.491.025-8.688.223-15.903 6.292-17.877 14.426a596.639 596.639 0 0 1-10.869-1.623c10.518-14.475 22.465-29.429 35.523-44.51 1.17 1.329 2.35 2.661 3.539 3.994l2.034-5.463c-.724-.821-1.451-1.643-2.168-2.463 1.744-1.987 3.525-3.977 5.306-5.967 3.554-3.97 7.18-7.941 10.876-11.911a840.304 840.304 0 0 1 5.232-5.579 878.32 878.32 0 0 1 16.374-16.823 871.199 871.199 0 0 1 16.837-16.374A823.616 823.616 0 0 1 256 177.87a823.368 823.368 0 0 1 23.483 21.436 874.118 874.118 0 0 1 16.838 16.374 878.214 878.214 0 0 1 16.373 16.822 846.293 846.293 0 0 1 0 46.997 847.097 847.097 0 0 1-1.489 31.706c-7.886.526-15.928.94-24.092 1.241a849.238 849.238 0 0 1-31.112.575 845.334 845.334 0 0 1-31.112-.575 811.714 811.714 0 0 1-24.093-1.241 749.899 749.899 0 0 1-13.689-1.039zm13.54-107.047c.049-.774.096-1.552.148-2.323l.734-.047 1.97-5.291c-.784.048-1.56.101-2.34.15 1.476-20.103 3.665-39.146 6.444-56.669a605.374 605.374 0 0 1 13.239 9.93c10.233 7.894 20.714 16.481 31.308 25.657a826.438 826.438 0 0 0-21.689 19.737 849.684 849.684 0 0 0-18.375 17.824 889.418 889.418 0 0 0-12.533 12.812 850.22 850.22 0 0 0-5.291 5.553 864.508 864.508 0 0 0-6.297 6.734 819.019 819.019 0 0 0-13.433 14.906c-13.137-15.218-25.028-30.193-35.435-44.515 17.479-2.766 36.469-4.947 56.511-6.418a822.66 822.66 0 0 0-.951 18.052zm109.426-2.396c.376.025.756.047 1.132.072.079 1.181.152 2.368.226 3.556.42 6.747.759 13.602 1.015 20.547a884.075 884.075 0 0 0-12.532-12.812 857.587 857.587 0 0 0-18.375-17.824 826.52 826.52 0 0 0-21.69-19.738c10.461-9.06 20.813-17.551 30.923-25.363a604.693 604.693 0 0 1 13.624-10.224c2.779 17.523 4.968 36.567 6.444 56.67-.915-.058-1.828-.118-2.748-.174zm7.664 80.826c.072-2.532.138-5.072.189-7.63a904.985 904.985 0 0 0 0-35.838 835.14 835.14 0 0 1 10.381 11.354 794.516 794.516 0 0 1 5.838 6.565c-.782.891-1.59 1.784-2.379 2.676l2.014 5.381c1.243-1.395 2.494-2.789 3.719-4.183 13.064 15.087 25.017 30.047 35.538 44.527a624.397 624.397 0 0 1-22.961 3.191 725.497 725.497 0 0 1-33.683 3.249 836.509 836.509 0 0 0 1.344-29.292zm5.768-44.944a857.941 857.941 0 0 0-5.767-6.154 822.183 822.183 0 0 0-1.345-29.292c20.093 1.475 39.128 3.663 56.644 6.44-10.521 14.481-22.474 29.441-35.538 44.528a825.04 825.04 0 0 0-13.994-15.522zM256 31.083c19.551 0 37.179 41.219 47.497 102.36a599.621 599.621 0 0 0-14.559 10.819c-10.77 8.258-21.799 17.265-32.938 26.912-11.275-9.765-22.436-18.87-33.332-27.211a598.108 598.108 0 0 0-14.166-10.52C218.821 72.301 236.449 31.083 256 31.083zM96.959 96.959c3.132-3.131 7.888-4.719 14.138-4.719 8.929 0 20.267 3.075 33.351 8.765a18.84 18.84 0 0 0-1.224 6.646c0 10.45 8.472 18.922 18.922 18.922 6.345 0 11.947-3.134 15.38-7.927 8.116 4.999 16.579 10.631 25.302 16.845-3.021 18.517-5.35 38.825-6.873 60.466-21.573 1.518-41.822 3.837-60.292 6.844-35.875-50.474-52.517-92.029-38.704-105.842zM31.083 256c0-19.535 41.151-37.15 102.209-47.472 10.94 15.195 23.627 31.164 37.818 47.501-13.959 16.093-26.649 32.047-37.738 47.456C72.27 293.166 31.083 275.543 31.083 256zm160.009 128.62a442.167 442.167 0 0 1-6.277 4.133c-30.416 19.648-56.518 31.008-73.718 31.008-6.25 0-11.006-1.588-14.138-4.72-10.206-10.205-3.746-37.108 17.723-73.809 6.006-10.267 13.023-21.011 20.863-32.051a581.03 581.03 0 0 0 13.772 2.07 18.842 18.842 0 0 0 6.157 13.219c3.362 3.065 7.819 4.949 12.727 4.949 8.779 0 16.141-5.988 18.277-14.096a764.62 764.62 0 0 0 14.68 1.07c9.533.608 19.311 1.06 29.302 1.345 2.529.072 5.068.138 7.623.189a904.68 904.68 0 0 0 35.833 0c2.556-.051 5.094-.116 7.624-.189a834.57 834.57 0 0 0 29.301-1.345 731.117 731.117 0 0 1-2.815 30.006 630.4 630.4 0 0 1-3.629 26.663c-14.348-10.453-29.329-22.407-44.547-35.587a831.947 831.947 0 0 0 3.883-3.43h-7.637l-.096.085-.096-.085h-7.636a838.646 838.646 0 0 0 3.882 3.43c-15.218 13.179-30.199 25.134-44.548 35.586a632.59 632.59 0 0 1-3.665-26.981l-3.861 11.584a589.618 589.618 0 0 0 2.752 18.844 493.222 493.222 0 0 1-11.736 8.112zm109.365 10.349c-.231-.008-.458-.035-.691-.035-10.45 0-18.922 8.472-18.922 18.922 0 7.444 4.309 13.865 10.559 16.955-9.805 31.193-22.163 50.107-35.403 50.107-19.551 0-37.179-41.219-47.497-102.36 15.291-11.004 31.277-23.682 47.498-37.73 16.221 14.048 32.207 26.726 47.497 37.73a507.738 507.738 0 0 1-3.041 16.411zm96.861-53.738c21.468 36.701 27.929 63.604 17.723 73.809-3.132 3.132-7.888 4.72-14.139 4.72-17.2 0-43.301-11.36-73.717-31.008a441.726 441.726 0 0 1-6.294-4.145 502.578 502.578 0 0 1-11.718-8.097 590.461 590.461 0 0 0 2.723-18.623c1.728-13.247 3.123-27.241 4.15-41.844 12.443-.876 24.448-2.016 35.922-3.404a600.706 600.706 0 0 0 24.49-3.46c7.837 11.041 14.854 21.785 20.86 32.052zm-18.69-37.746c-11.096-15.419-23.794-31.383-37.763-47.485 13.969-16.102 26.667-32.067 37.763-47.485 61.102 10.32 102.289 27.942 102.289 47.485s-41.187 37.166-102.289 47.485z" id="path1261"/></g></g></g></g></svg>