<svg xmlns="http://www.w3.org/2000/svg" xmlns:xlink="http://www.w3.org/1999/xlink" width="48" height="48" version="1.1" id="svg38"><defs id="defs22"><linearGradient id="linearGradient4488"><stop id="stop4490" offset="0" stop-color="#000" stop-opacity=".047"/><stop id="stop4492" offset="1" stop-color="#000" stop-opacity="0"/></linearGradient><style id="style4511"/><style id="style4511-26"/><style id="style4511-9"/><style id="style4552"/><linearGradient id="b-2-9" y1="540.92" y2="522.55" x2="0" gradientUnits="userSpaceOnUse" gradientTransform="matrix(1 0 0 1.14286 0 -77.4)"><stop stop-color="#197cf1" id="stop7-91"/><stop offset="1" stop-color="#05a0eb" id="stop9-2"/></linearGradient><style id="style4511-2"/><linearGradient xlink:href="#linearGradient4488" id="linearGradient4546" gradientUnits="userSpaceOnUse" gradientTransform="translate(-62.497 1.994) scale(.3038)" x1="288.112" y1="141.785" x2="287.575" y2="79.008"/><linearGradient xlink:href="#b-2-9" id="linearGradient1263" x1="2.974" y1="23.586" x2="45.221" y2="23.586" gradientUnits="userSpaceOnUse" gradientTransform="rotate(-90 24.098 23.586)"/><clipPath clipPathUnits="userSpaceOnUse" id="clipPath250"><path d="M0 512h512V0H0v512z" id="path252"/></clipPath></defs><style id="style4485" type="text/css"/><path d="M3.254 27.93v-8.496C3.254 5.526 14.5 2.63 20.536 2.63h7.123c5.96 0 17.282 2.704 17.282 17.836v6.93c0 11.563-7.708 17.146-17.282 17.146h-7.123c-9.574 0-17.282-5.47-17.282-16.613z" id="path4530" opacity="1" fill="url(#linearGradient1263)" fill-opacity="1" stroke="#000" stroke-width=".334" stroke-linecap="square" stroke-linejoin="bevel" stroke-miterlimit="4" stroke-dasharray="none" stroke-dashoffset="0" stroke-opacity=".078"/><path d="M3.141 26.22v1.67c0 9.573 5.583 17.281 17.146 17.281h6.93c15.133 0 17.837-11.322 17.837-17.282v-1.668c0 5.96-2.704 17.282-17.837 17.282h-6.93c-11.563 0-17.146-7.708-17.146-17.282z" id="path4528" opacity="1" fill="url(#linearGradient4546)" fill-opacity="1" stroke="none" stroke-width="1.1" stroke-linecap="square" stroke-linejoin="bevel" stroke-miterlimit="4" stroke-dasharray="none" stroke-dashoffset="0" stroke-opacity=".078"/><path d="M36.877 30.298c0 1.179-.906 2.134-2.024 2.134H13.345c-1.118 0-2.024-.955-2.024-2.134 0-1.18.906-2.135 2.024-2.135h21.508c1.118 0 2.024.956 2.024 2.135" id="path256" fill="#fff" fill-opacity="1" fill-rule="nonzero" stroke="none" stroke-width=".119"/><path d="M20.379 22.382c0 1.055-.811 1.911-1.812 1.911h-5.434c-1.001 0-1.812-.856-1.812-1.91V16.65c0-1.056.811-1.911 1.812-1.911h5.434c1 0 1.812.855 1.812 1.91z" id="path260" fill="#fff" fill-opacity="1" fill-rule="nonzero" stroke="none" stroke-width=".119"/><path d="M28.989 24.39c0 .672-.518 1.217-1.155 1.217h-3.465c-.638 0-1.155-.545-1.155-1.218v-3.655c0-.673.517-1.218 1.155-1.218h3.465c.637 0 1.155.545 1.155 1.218z" id="path264" fill="#fff" fill-opacity="1" fill-rule="nonzero" stroke="none" stroke-width=".119"/><path d="M36.81 24.39c0 .672-.517 1.217-1.155 1.217H32.19c-.638 0-1.155-.545-1.155-1.218v-3.655c0-.673.517-1.218 1.155-1.218h3.465c.638 0 1.155.545 1.155 1.218z" id="path268" fill="#fff" fill-opacity="1" fill-rule="nonzero" stroke="none" stroke-width=".119"/><path d="M15.152 26.812l.698-1.274.697 1.274z" id="path272" fill="#fff" fill-opacity="1" fill-rule="nonzero" stroke="none" stroke-width=".119"/></svg>