<svg xmlns:osb="http://www.openswatchbook.org/uri/2009/osb" xmlns="http://www.w3.org/2000/svg" xmlns:xlink="http://www.w3.org/1999/xlink" width="48" height="48" version="1.1" id="svg38"><defs id="defs22"><linearGradient id="linearGradient4488"><stop id="stop4490" offset="0" stop-color="#000" stop-opacity=".047"/><stop id="stop4492" offset="1" stop-color="#000" stop-opacity="0"/></linearGradient><style id="style4511"/><style id="style4511-26"/><style id="style4511-9"/><style id="style4552"/><style id="style4511-2"/><linearGradient xlink:href="#linearGradient4488" id="linearGradient4546" gradientUnits="userSpaceOnUse" gradientTransform="translate(-62.497 1.994) scale(.3038)" x1="288.112" y1="141.785" x2="287.575" y2="79.008"/><linearGradient osb:paint="solid" id="linearGradient5251"><stop id="stop5253" offset="0" stop-color="#2f343f" stop-opacity="1"/></linearGradient></defs><style id="style4485" type="text/css"/><path d="M3.141 26.22v1.67c0 9.573 5.583 17.281 17.146 17.281h6.93c15.133 0 17.837-11.322 17.837-17.282v-1.668c0 5.96-2.704 17.282-17.837 17.282h-6.93c-11.563 0-17.146-7.708-17.146-17.282z" id="path4528" opacity="1" fill="url(#linearGradient4546)" fill-opacity="1" stroke="none" stroke-width="1.1" stroke-linecap="square" stroke-linejoin="bevel" stroke-miterlimit="4" stroke-dasharray="none" stroke-dashoffset="0" stroke-opacity=".078"/><path d="M19.754 2.742h8.495c13.908 0 16.805 11.247 16.805 17.282v7.124c0 5.96-2.704 17.282-17.837 17.282h-6.93c-7.018 0-11.833-3.027-14.534-7.213-1.805-2.797-2.612-6.306-2.612-10.07v-7.123c0-9.574 5.47-17.282 16.613-17.282z" id="path4530" opacity="1" fill="#c90f00" fill-opacity="1" stroke="#000" stroke-width=".334" stroke-linecap="square" stroke-linejoin="bevel" stroke-miterlimit="4" stroke-dasharray="none" stroke-dashoffset="0" stroke-opacity=".078"/><text xml:space="preserve" style="line-height:1.25;-inkscape-font-specification:'Century Schoolbook L Bold Italic'" x="12.11" y="28.593" id="text845" transform="scale(.8285 1.20701)" font-style="italic" font-variant="normal" font-weight="700" font-stretch="normal" font-size="24.599" font-family="Century Schoolbook L" letter-spacing="0" word-spacing="0" fill="#e6e6e6" fill-opacity="1" stroke="#e6e6e6" stroke-width="1.595" stroke-miterlimit="4" stroke-dasharray="none" stroke-opacity="1"><tspan id="tspan843" x="12.11" y="28.593" fill="#e6e6e6" stroke="#e6e6e6" stroke-width="1.595" stroke-miterlimit="4" stroke-dasharray="none" stroke-opacity="1">AZ</tspan></text></svg>