<svg xmlns="http://www.w3.org/2000/svg" xmlns:xlink="http://www.w3.org/1999/xlink" width="48" height="48" version="1.1" id="svg38"><defs id="defs22"><style id="style4511"/><style id="style4511-26"/><style id="style4511-9"/><style id="style4552"/><style id="style4511-2"/><linearGradient gradientTransform="rotate(-90 -8.76 51.208)" gradientUnits="userSpaceOnUse" x2="47" x1="1" id="linearGradient3764"><stop id="stop336" stop-opacity="1" stop-color="#e4e4e4"/><stop id="stop338" stop-opacity="1" stop-color="#eee" offset="1"/></linearGradient><linearGradient xlink:href="#linearGradient3764" id="linearGradient1274" x1="2.974" y1="23.586" x2="45.221" y2="23.586" gradientUnits="userSpaceOnUse"/></defs><style id="style4485" type="text/css"/><path d="M19.754 2.742h8.495c13.908 0 16.805 11.247 16.805 17.282v7.124c0 5.96-2.704 17.282-17.837 17.282h-6.93c-11.562 0-17.146-7.708-17.146-17.282v-7.124c0-9.574 5.47-17.282 16.613-17.282z" id="path4530" opacity="1" fill="url(#linearGradient1274)" fill-opacity="1" stroke="#000" stroke-width=".334" stroke-linecap="square" stroke-linejoin="bevel" stroke-miterlimit="4" stroke-dasharray="none" stroke-dashoffset="0" stroke-opacity=".078"/><g id="g1177" transform="translate(.617 .588)"><path id="path1166" d="M10.139 11.48c-1.152 1.104-1.152 6.388-1.152 9.733 0 12.143 7.484 17.11 14.391 17.11 6.908 0 14.392-4.967 14.392-17.11 0-3.312 0-8.629-1.152-9.732-1.151-1.105-8.778 2.322-11.08 4.53H21.22c-2.303-2.208-9.93-5.635-11.081-4.53z" fill="#4f4f4f" fill-rule="evenodd" stroke-width=".698"/><g id="g1174" transform="matrix(.71955 0 0 .67641 6.11 9.238)" opacity=".2"><path id="path1168" d="M28 33.758C28 36.101 26.21 38 24 38s-4-1.899-4-4.242 8-2.343 8 0z"/><path id="path1170" d="M16 15a7 8 0 0 0-7 8 7 8 0 0 0 7 8 7 8 0 0 0 7-8 7 8 0 0 0-7-8zm0 3a4 5 0 0 1 4 5 4 5 0 0 1-4 5 4 5 0 0 1-4-5 4 5 0 0 1 4-5z" fill-rule="evenodd"/><path id="path1172" d="M32 15a7 8 0 0 0-7 8 7 8 0 0 0 7 8 7 8 0 0 0 7-8 7 8 0 0 0-7-8zm0 3a4 5 0 0 1 4 5 4 5 0 0 1-4 5 4 5 0 0 1-4-5 4 5 0 0 1 4-5z" fill-rule="evenodd"/></g><g transform="matrix(.71955 0 0 .67641 6.11 8.561)" id="g1182" fill="#fff"><path id="path1176" d="M28 33.758C28 36.101 26.21 38 24 38s-4-1.899-4-4.242 8-2.343 8 0z"/><path id="path1178" d="M16 15a7 8 0 0 0-7 8 7 8 0 0 0 7 8 7 8 0 0 0 7-8 7 8 0 0 0-7-8zm0 3a4 5 0 0 1 4 5 4 5 0 0 1-4 5 4 5 0 0 1-4-5 4 5 0 0 1 4-5z" fill-rule="evenodd"/><path id="path1180" d="M32 15a7 8 0 0 0-7 8 7 8 0 0 0 7 8 7 8 0 0 0 7-8 7 8 0 0 0-7-8zm0 3a4 5 0 0 1 4 5 4 5 0 0 1-4 5 4 5 0 0 1-4-5 4 5 0 0 1 4-5z" fill-rule="evenodd"/></g></g></svg>