<svg xmlns="http://www.w3.org/2000/svg" xmlns:xlink="http://www.w3.org/1999/xlink" width="48" height="48" version="1.1" id="svg38"><defs id="defs22"><linearGradient id="linearGradient4488"><stop id="stop4490" offset="0" stop-color="#000" stop-opacity=".047"/><stop id="stop4492" offset="1" stop-color="#000" stop-opacity="0"/></linearGradient><style id="style4511"/><style id="style4511-26"/><style id="style4511-9"/><style id="style4552"/><linearGradient id="b-56" y1="547.8" y2="536.8" x2="0" gradientUnits="userSpaceOnUse" gradientTransform="matrix(1 0 0 .54545 0 244)"><stop stop-color="#c6cdd1" id="stop7-2"/><stop offset="1" stop-color="#e0e5e7" id="stop9-91"/></linearGradient><linearGradient id="b-2-9" y1="540.92" y2="522.55" x2="0" gradientUnits="userSpaceOnUse" gradientTransform="matrix(1 0 0 1.14286 0 -77.4)"><stop stop-color="#197cf1" id="stop7-91"/><stop offset="1" stop-color="#05a0eb" id="stop9-2"/></linearGradient><style id="style4511-2"/><linearGradient gradientTransform="translate(-63.205 2.216) scale(.3038)" xlink:href="#linearGradient4488" id="linearGradient4160" x1="288.112" y1="141.785" x2="287.575" y2="79.008" gradientUnits="userSpaceOnUse"/><linearGradient gradientTransform="rotate(-90 -1.75 52.557)" gradientUnits="userSpaceOnUse" x2="47" x1="1" id="linearGradient3764"><stop id="stop1141" stop-opacity="1" stop-color="#ecc85c"/><stop id="stop1143" stop-opacity="1" stop-color="#eecf6d" offset="1"/></linearGradient><linearGradient xlink:href="#linearGradient3764" id="linearGradient1266" x1="2.266" y1="23.808" x2="44.513" y2="23.808" gradientUnits="userSpaceOnUse"/><linearGradient xlink:href="#b-2-9" id="linearGradient1171" x1="10.869" y1="21.078" x2="30.048" y2="21.078" gradientUnits="userSpaceOnUse"/><linearGradient xlink:href="#b-56" id="linearGradient1179" x1="13.83" y1="27.455" x2="33.465" y2="27.455" gradientUnits="userSpaceOnUse"/></defs><style id="style4485" type="text/css"/><path d="M2.433 26.443v1.668c0 9.575 5.583 17.282 17.146 17.282h6.93c15.133 0 17.837-11.322 17.837-17.282v-1.668c0 5.96-2.704 17.282-17.837 17.282h-6.93c-11.563 0-17.146-7.708-17.146-17.282z" id="path4147" opacity="1" fill="url(#linearGradient4160)" fill-opacity="1" stroke="none" stroke-width="1.1" stroke-linecap="square" stroke-linejoin="bevel" stroke-miterlimit="4" stroke-dasharray="none" stroke-dashoffset="0" stroke-opacity=".078"/><path d="M19.046 2.965h8.495c13.908 0 16.805 11.246 16.805 17.282v7.123c0 5.96-2.704 17.282-17.837 17.282h-6.93c-11.562 0-17.146-7.708-17.146-17.282v-7.123c0-9.575 5.47-17.282 16.613-17.282z" id="rect4144" opacity="1" fill="url(#linearGradient1266)" fill-opacity="1" stroke="#000" stroke-width=".334" stroke-linecap="square" stroke-linejoin="bevel" stroke-miterlimit="4" stroke-dasharray="none" stroke-dashoffset="0" stroke-opacity=".078"/><g id="g1188" transform="translate(.816 1.007)"><g id="g1183" fill-opacity="1" stroke="none"><path id="path1186" d="M33.465 27.455c0 4.694-4.396 8.5-9.818 8.5-5.424 0-9.817-3.806-9.817-8.5s4.396-8.5 9.817-8.5c5.42 0 9.818 3.806 9.818 8.5m0 0" fill="url(#linearGradient1179)" fill-rule="nonzero" stroke-width="1.077"/><path id="path1188" d="M20.483 9.648c-6.888.283-5.731 3.626-9.614 6.296 3.869.125 4.673-2.624 7.205-2.52V32.32c3.834.392 12.951.823 11.888-5.964-.824-5.206-9.486-1.593-9.486-1.593m4.148.997c1.059 0 1.958.253 2.122 1.414.496 3.509-6.265 2.63-6.265 2.63v-2.52s2.387-1.54 4.143-1.524m0 0" fill="url(#linearGradient1171)" fill-rule="evenodd" stroke-width="1.234"/></g></g></svg>