<svg xmlns="http://www.w3.org/2000/svg" xmlns:xlink="http://www.w3.org/1999/xlink" width="48" height="48" version="1.1" id="svg38"><defs id="defs22"><linearGradient id="linearGradient4488"><stop id="stop4490" offset="0" stop-color="#000" stop-opacity=".047"/><stop id="stop4492" offset="1" stop-color="#000" stop-opacity="0"/></linearGradient><style id="style4511"/><style id="style4511-26"/><style id="style4511-9"/><style id="style4552"/><style id="style4511-2"/><linearGradient xlink:href="#linearGradient4488" id="linearGradient4548" gradientUnits="userSpaceOnUse" gradientTransform="matrix(.30791 0 0 .30817 -63.719 1.983)" x1="288.112" y1="141.785" x2="287.575" y2="79.008"/><linearGradient gradientTransform="rotate(-90 -2.1 48.862)" gradientUnits="userSpaceOnUse" x2="47" x1="1" id="linearGradient3764-36-7" y1="0" y2="0" spreadMethod="pad"><stop id="stop1188" stop-opacity="1" stop-color="#e2262b"/><stop id="stop1190" stop-opacity="1" stop-color="#e4383e" offset="1"/></linearGradient><linearGradient xlink:href="#linearGradient3764-36-7" id="linearGradient1310" x1="2.639" y1="23.886" x2="45.458" y2="23.886" gradientUnits="userSpaceOnUse"/></defs><style id="style4485" type="text/css"/><g id="g1238"><path d="M2.808 26.558v1.693c0 9.712 5.66 17.53 17.378 17.53h7.025c15.337 0 18.077-11.485 18.077-17.53v-1.693c0 6.045-2.74 17.53-18.077 17.53h-7.025c-11.719 0-17.378-7.818-17.378-17.53z" id="path4532" opacity="1" fill="url(#linearGradient4548)" fill-opacity="1" stroke="none" stroke-width="1.115" stroke-linecap="square" stroke-linejoin="bevel" stroke-miterlimit="4" stroke-dasharray="none" stroke-dashoffset="0" stroke-opacity=".078"/><path d="M19.647 2.742h8.61c14.096 0 17.032 11.409 17.032 17.53V27.5c0 6.045-2.741 17.53-18.079 17.53h-7.023c-11.72 0-17.379-7.818-17.379-17.53v-7.226c0-9.712 5.545-17.53 16.839-17.53z" id="path4534" opacity="1" fill="url(#linearGradient1310)" fill-opacity="1" stroke="#000" stroke-width=".339" stroke-linecap="square" stroke-linejoin="bevel" stroke-miterlimit="4" stroke-dasharray="none" stroke-dashoffset="0" stroke-opacity=".078"/><g transform="translate(.048 -.114)" id="g1198" fill="#fff"><path id="path1192" d="M19 19v10h10V19zm1 1h7v3h1v5h-8v-6zm2 2v1h3v-1zm0 3v1h4v-1z"/><path id="path1194" d="M7 19v10h10V19zm1 1h7v3h1v5H8v-6zm2 2v1h3v-1zm0 3v1h4v-1z"/><path id="path1196" d="M31 19v10h10V19zm1 1h8v2h-6v4h6v2h-8z"/></g></g></svg>