<svg xmlns:osb="http://www.openswatchbook.org/uri/2009/osb" xmlns="http://www.w3.org/2000/svg" xmlns:xlink="http://www.w3.org/1999/xlink" width="48" height="48" version="1.1" id="svg38"><defs id="defs22"><linearGradient id="linearGradient4488"><stop id="stop4490" offset="0" stop-color="#000" stop-opacity=".047"/><stop id="stop4492" offset="1" stop-color="#000" stop-opacity="0"/></linearGradient><style id="style4511"/><style id="style4511-26"/><style id="style4511-9"/><style id="style4552"/><style id="style4511-2"/><linearGradient osb:paint="solid" id="linearGradient5293"><stop id="stop5295" offset="0" stop-color="#9a89c0" stop-opacity="1"/></linearGradient><style id="style4511-879202375"/><style id="style4511-26-30"/><style id="style4511-9-76"/><style id="style4552-5"/><style id="style4511-2-6"/><style id="style4511-87920237"/><style id="style4511-26-443"/><style id="style4511-9-5"/><style id="style4552-09"/><style id="style4511-2-0"/><linearGradient osb:paint="solid" id="linearGradient4390"><stop id="stop4388" offset="0" stop-color="#000" stop-opacity="1"/></linearGradient><linearGradient osb:paint="solid" id="linearGradient4300"><stop id="stop4298" offset="0" stop-color="#9f007b" stop-opacity="1"/></linearGradient><style id="style4511-879202"/><style id="style4511-26-47"/><style id="style4511-9-17"/><style id="style4552-4"/><style id="style4511-2-4"/><style id="style4511-879"/><style id="style4511-26-65"/><style id="style4511-9-2"/><style id="style4552-89"/><style id="style4511-2-1"/><style id="style4511-8"/><style id="style4511-26-4"/><style id="style4511-9-7"/><style id="style4552-3"/><style id="style4511-2-8"/><style id="style4552-7"/><style id="style4552-6"/><style id="style4552-73"/><style id="style4552-2"/><linearGradient osb:paint="solid" id="linearGradient5251"><stop id="stop5253" offset="0" stop-color="#2f343f" stop-opacity="1"/></linearGradient><style id="style4511-87"/><style id="style4511-26-6"/><style id="style4511-9-1"/><style id="style4552-8"/><style id="style4511-2-5"/><style id="style4511-8792"/><style id="style4511-26-3"/><style id="style4511-9-0"/><style id="style4552-86"/><style id="style4511-2-84"/><style id="style4511-8-6"/><style id="style4511-26-4-3"/><style id="style4511-9-7-8"/><style id="style4552-3-7"/><style id="style4511-2-8-9"/><style id="style4552-7-5"/><style id="style4552-6-87"/><style id="style4552-73-3"/><style id="style4552-2-1"/><style id="style4511-87-0"/><style id="style4511-26-6-5"/><style id="style4511-9-1-3"/><style id="style4552-8-8"/><style id="style4511-2-5-3"/><style id="style4511-879-4"/><style id="style4511-26-65-7"/><style id="style4511-9-2-0"/><style id="style4552-89-8"/><style id="style4511-2-1-9"/><style id="style4511-8-0"/><style id="style4511-26-4-0"/><style id="style4511-9-7-9"/><style id="style4552-3-4"/><style id="style4511-2-8-7"/><style id="style4552-7-4"/><style id="style4552-6-8"/><style id="style4552-73-7"/><style id="style4552-2-2"/><style id="style4511-87-2"/><style id="style4511-26-6-4"/><style id="style4511-9-1-7"/><style id="style4552-8-9"/><style id="style4511-2-5-0"/><style id="style4511-87920"/><style id="style4511-26-45"/><style id="style4511-9-9"/><style id="style4552-0"/><style id="style4511-2-9"/><style id="style4511-8792023"/><style id="style4511-26-44"/><style id="style4511-9-71"/><style id="style4552-43"/><style id="style4511-2-96"/><linearGradient xlink:href="#linearGradient4488" id="linearGradient5481" gradientUnits="userSpaceOnUse" gradientTransform="matrix(0 .30689 -.31235 0 46.41 -63.13)" x1="288.112" y1="141.785" x2="287.575" y2="79.008"/><style id="style4511-7"/><style id="style4511-26-5"/><style id="style4511-9-97"/><style id="style4552-59"/><style id="style4511-2-46"/><linearGradient x2="47" x1="1" gradientTransform="rotate(-90 -12.814 54.112)" gradientUnits="userSpaceOnUse" id="linearGradient3171"><stop id="stop5394" stop-opacity="1" stop-color="#e7a739"/><stop id="stop5396" stop-opacity="1" stop-color="#e9af4b" offset="1"/></linearGradient></defs><style id="style4485" type="text/css"/><rect id="Mask" x="63.147" y="78.204" width="20.231" height="20.096" rx=".581" fill="#f1f1f1" fill-opacity="1" fill-rule="evenodd" stroke="none" stroke-width=".336"/><style type="text/css" id="style4485-333"/><style id="style4485-8" type="text/css"/><style type="text/css" id="style4485-039"/><style id="style4485-34" type="text/css"/><style type="text/css" id="style4485-0"/><style id="style4485-4" type="text/css"/><style id="style4485-5" type="text/css"/><style id="style4485-3" type="text/css"/><style id="style4485-5-1" type="text/css"/><style type="text/css" id="style4485-1"/><style id="style4485-33" type="text/css"/><style type="text/css" id="style4485-0-7"/><style id="style4485-4-9" type="text/css"/><style id="style4485-5-4" type="text/css"/><style id="style4485-3-9" type="text/css"/><style id="style4485-5-1-9" type="text/css"/><style type="text/css" id="style4485-1-5"/><style type="text/css" id="style4485-51"/><style id="style4485-0-9" type="text/css"/><style type="text/css" id="style4485-4-7"/><style type="text/css" id="style4485-5-13"/><style type="text/css" id="style4485-3-1"/><style type="text/css" id="style4485-5-1-2"/><style id="style4485-1-6" type="text/css"/><style id="style4485-03" type="text/css"/><style type="text/css" id="style4485-6"/><style type="text/css" id="style4485-41"/><path id="path4516" d="M21.502 3.174h-1.715c-9.844 0-17.769 5.64-17.769 17.32v7.001c0 15.286 11.641 18.018 17.769 18.018h1.715c-6.127 0-17.768-2.732-17.768-18.018v-7c0-11.68 7.924-17.32 17.768-17.32z" opacity="1" fill="url(#linearGradient5481)" fill-opacity="1" stroke="none" stroke-width="1.121" stroke-linecap="square" stroke-linejoin="bevel" stroke-miterlimit="4" stroke-dasharray="none" stroke-dashoffset="0" stroke-opacity=".078"/><path id="path4518" d="M45.64 19.956v8.582c0 14.049-11.563 16.975-17.768 16.975H20.55c-6.127 0-17.768-2.732-17.768-18.018v-7c0-11.68 7.924-17.32 17.768-17.32h7.323c9.844 0 17.769 5.525 17.769 16.781z" opacity="1" fill="#006f00" fill-opacity="1" stroke="none" stroke-width=".341" stroke-linecap="square" stroke-linejoin="bevel" stroke-miterlimit="4" stroke-dasharray="none" stroke-dashoffset="0" stroke-opacity="1"/><g id="g5494" transform="matrix(.5327 0 0 .53414 46.811 14.837)"><g transform="translate(-66.925 -6.702)" id="g5407"><path id="path5401" d="M36.31 5c5.859 4.062 9.688 10.831 9.688 18.5 0 12.426-10.07 22.5-22.5 22.5-7.669 0-14.438-3.828-18.5-9.688a23.24 23.24 0 0 0 3.781 4.969 22.923 22.923 0 0 0 15.469 5.969c12.703 0 23-10.298 23-23a22.92 22.92 0 0 0-5.969-15.469A23.216 23.216 0 0 0 36.31 5zm4.969 3.781A22.911 22.911 0 0 1 47.498 24.5c0 12.703-10.297 23-23 23a22.909 22.909 0 0 1-15.719-6.219C12.939 45.425 18.662 48 24.998 48c12.703 0 23-10.298 23-23 0-6.335-2.575-12.06-6.719-16.219z" opacity=".05"/><path id="path5403" d="M41.28 8.781a22.923 22.923 0 0 1 5.969 15.469c0 12.703-10.297 23-23 23A22.92 22.92 0 0 1 8.78 41.281 22.911 22.911 0 0 0 24.499 47.5c12.703 0 23-10.298 23-23A22.909 22.909 0 0 0 41.28 8.781z" opacity=".1"/><path id="path5405" d="M31.25 2.375C39.865 5.529 46 13.792 46 23.505c0 12.426-10.07 22.5-22.5 22.5-9.708 0-17.971-6.135-21.12-14.75a23 23 0 0 0 44.875-7 23 23 0 0 0-16-21.875z" opacity=".2"/></g><path id="path5409" d="M-62.55 5.298a22.95 22.95 0 0 0-3.375 12c0 4.392 1.24 8.51 3.375 12h39.25a22.95 22.95 0 0 0 3.375-12c0-4.392-1.24-8.51-3.375-12z" fill="url(#linearGradient3171)" fill-opacity="1"/><path id="path5411" d="M-31.925 18.298c0 5.523-4.477 10-10 10s-10-4.477-10-10 4.477-10 10-10 10 4.477 10 10m0 0" opacity=".1" fill="#000" fill-opacity="1" fill-rule="nonzero" stroke="none"/><use id="use5413" transform="translate(1 1)" xlink:href="#SVGCleanerId_0" width="48" height="48" x="0" y="0" opacity=".1"/><use id="use5415" transform="translate(1 1)" xlink:href="#SVGCleanerId_1" width="48" height="48" x="0" y="0" opacity=".1"/><path id="path5417" d="M-62.52 5.298c-.201.33-.407.66-.593 1h40.38c-.186-.34-.392-.67-.594-1z" opacity=".1" fill="#000" fill-opacity="1" fill-rule="nonzero" stroke="none"/><path id="path5419" d="M-62.55 29.298c4.04 6.606 11.314 11 19.625 11 8.31 0 15.584-4.394 19.625-11z" fill="#f9f9f9" fill-opacity="1" fill-rule="nonzero" stroke="none"/><path id="path5421" d="M-32.925 17.298c0 5.523-4.477 10-10 10s-10-4.477-10-10 4.477-10 10-10 10 4.477 10 10m0 0" fill="#f9f9f9" fill-opacity="1" fill-rule="nonzero" stroke="none"/><path d="M-50.865 20.518h2.262v-6.46l-2.313.48v-1.755l2.305-.48h2.434v8.215h2.262V22.3h-6.941v-1.78" id="SVGCleanerId_0" fill="#000" fill-opacity="1" fill-rule="nonzero" stroke="none"/><path d="M-36.845 16.915c.637.164 1.105.461 1.434.88.316.413.484.937.484 1.577 0 .957-.352 1.684-1.06 2.184-.706.496-1.733.742-3.085.742a8.58 8.58 0 0 1-1.441-.12 8.815 8.815 0 0 1-1.414-.356v-1.918c.445.234.898.41 1.332.527.44.117.887.176 1.313.176.637 0 1.12-.113 1.457-.344.34-.227.512-.559.512-.98 0-.44-.176-.77-.523-.996-.344-.227-.855-.344-1.531-.344h-.957v-1.602h1c.605 0 1.05-.098 1.344-.293.297-.195.445-.496.445-.895 0-.37-.145-.656-.43-.859-.29-.199-.691-.305-1.211-.305-.387 0-.777.047-1.172.137-.391.09-.785.223-1.176.398v-1.82c.473-.137.94-.242 1.406-.309a9.725 9.725 0 0 1 1.359-.102c1.219 0 2.109.203 2.707.621.605.406.906 1.027.906 1.852 0 .563-.145 1.027-.43 1.391-.29.355-.707.61-1.27.754" id="SVGCleanerId_1" fill="#000" fill-opacity="1" fill-rule="nonzero" stroke="none"/><path id="path5425" d="M-42.925-5.702c-8.311 0-15.584 4.394-19.625 11h39.25c-4.04-6.606-11.314-11-19.625-11z" fill="#f9f9f9" fill-opacity="1" fill-rule="nonzero" stroke="none"/></g></svg>