<svg xmlns:osb="http://www.openswatchbook.org/uri/2009/osb" xmlns="http://www.w3.org/2000/svg" xmlns:xlink="http://www.w3.org/1999/xlink" width="48" height="48" version="1.1" id="svg38"><defs id="defs22"><style id="style4511"/><style id="style4511-26"/><style id="style4511-9"/><style id="style4552"/><style id="style4511-2"/><linearGradient osb:paint="solid" id="linearGradient5293"><stop id="stop5295" offset="0" stop-color="#9a89c0" stop-opacity="1"/></linearGradient><linearGradient id="linearGradient3764-6" x1="1" x2="47" gradientUnits="userSpaceOnUse" gradientTransform="rotate(-90 24 24)"><stop stop-color="#d1d1d1" stop-opacity="1" id="stop2-7-6"/><stop offset="1" stop-color="#dbdbdb" stop-opacity="1" id="stop4-5-2"/></linearGradient><linearGradient xlink:href="#linearGradient3764-6" id="linearGradient1301" x1="2.583" y1="23.942" x2="45.236" y2="23.942" gradientUnits="userSpaceOnUse"/></defs><style id="style4485" type="text/css"/><path id="path4518" d="M19.525 2.846H28.1c14.042 0 16.966 11.383 16.966 17.491v7.21c0 6.031-2.73 17.491-18.008 17.491h-6.996c-11.674 0-17.311-7.801-17.311-17.491v-7.21c0-9.69 5.523-17.491 16.773-17.491z" opacity="1" fill="url(#linearGradient1301)" fill-opacity="1" stroke="#000" stroke-width=".338" stroke-linecap="square" stroke-linejoin="bevel" stroke-miterlimit="4" stroke-dasharray="none" stroke-dashoffset="0" stroke-opacity=".078"/><g id="g1328" transform="translate(-.091 -.683)" fill-opacity="1" stroke="none"><path id="path1289" d="M28.001 11.625l-4 2.066v23.934l4-2v-2.063c6.62 6.769 13.592-17.351 5.03-17.352-1.566 0-4.135 2.809-5.03 5.178m3.761-.113c1.03.022 1.434 1.241 1.506 2.23.107 2.138-.527 4.603-1.785 6.258-.583.7-1.307 1.559-2.134.838-.913-1.018-.836-2.609-.779-3.953.1-2.353 1.387-5.412 3.192-5.373z" fill="#2a7dda"/><path id="path1291" d="M20.001 11.625l4 2.066v23.934l-4-2v-2.063c-6.62 6.769-13.592-17.351-5.03-17.352 1.566 0 4.135 2.809 5.03 5.178zm-3.761 9.65c-1.03.022-1.434 1.241-1.506 2.23-.107 2.138.527 4.603 1.785 6.258.583.7 1.307 1.559 2.134.838.913-1.018.836-2.609.779-3.953-.1-2.353-1.387-5.412-3.192-5.373z" fill="#e63232"/></g></svg>