<svg xmlns="http://www.w3.org/2000/svg" xmlns:xlink="http://www.w3.org/1999/xlink" width="48" height="48" version="1.1" id="svg38"><defs id="defs22"><linearGradient id="linearGradient4488"><stop id="stop4490" offset="0" stop-color="#000" stop-opacity=".047"/><stop id="stop4492" offset="1" stop-color="#000" stop-opacity="0"/></linearGradient><style id="style4511"/><style id="style4511-26"/><style id="style4511-9"/><style id="style4552"/><style id="style4511-2"/><linearGradient gradientTransform="matrix(.3071 0 0 .30202 -63.408 2.469)" xlink:href="#linearGradient4488" id="linearGradient4160" x1="288.112" y1="141.785" x2="287.575" y2="79.008" gradientUnits="userSpaceOnUse"/><linearGradient gradientTransform="rotate(-90 -10.728 59.217)" gradientUnits="userSpaceOnUse" x2="47" x1="1" id="linearGradient3764-3"><stop id="stop371" stop-opacity="1" stop-color="#e4e4e4"/><stop id="stop373" stop-opacity="1" stop-color="#eee" offset="1"/></linearGradient><linearGradient xlink:href="#linearGradient3764-3" id="linearGradient1440" x1="2.778" y1="23.935" x2="45.482" y2="23.935" gradientUnits="userSpaceOnUse"/></defs><style id="style4485" type="text/css"/><path d="M2.945 26.554v1.658c0 9.519 5.644 17.181 17.333 17.181h7.006c15.297 0 18.03-11.256 18.03-17.18v-1.66c0 5.925-2.733 17.182-18.03 17.182h-7.006c-11.689 0-17.333-7.663-17.333-17.181z" id="path4147" opacity="1" fill="url(#linearGradient4160)" fill-opacity="1" stroke="none" stroke-width="1.103" stroke-linecap="square" stroke-linejoin="bevel" stroke-miterlimit="4" stroke-dasharray="none" stroke-dashoffset="0" stroke-opacity=".078"/><path d="M19.74 3.213h8.587c14.059 0 16.987 11.181 16.987 17.18v7.082c0 5.925-2.733 17.181-18.03 17.181h-7.006c-11.689 0-17.333-7.662-17.333-17.18v-7.082c0-9.518 5.53-17.181 16.794-17.181z" id="rect4144" opacity="1" fill="url(#linearGradient1440)" fill-opacity="1" stroke="#000" stroke-width=".335" stroke-linecap="square" stroke-linejoin="bevel" stroke-miterlimit="4" stroke-dasharray="none" stroke-dashoffset="0" stroke-opacity=".078"/><g id="g1470" transform="translate(46.412 31.583)"><g transform="matrix(.79839 0 0 .73681 -41.136 -24.787)" id="g1441"><g id="g1439"><path id="path1433" d="M40 14.5C40 8.7 35.3 4 29.5 4H9v39h20.5C35.3 43 40 38.3 40 32.5c0-3.8-2-7.1-5.1-9 3.1-1.8 5.1-5.2 5.1-9z" fill="#0096cc"/><path id="polygon1435" fill="#fff" d="M29 22h-5v-4h6l1-6H16v23h8v-7h4z"/><path id="polygon1437" fill="#a3daf6" d="M18 35V14h12.7l.3-2H16v23z"/></g></g></g></svg>