<svg xmlns:osb="http://www.openswatchbook.org/uri/2009/osb" xmlns="http://www.w3.org/2000/svg" xmlns:xlink="http://www.w3.org/1999/xlink" width="48" height="48" version="1.1" id="svg38"><defs id="defs22"><linearGradient id="linearGradient4488"><stop id="stop4490" offset="0" stop-color="#000" stop-opacity=".047"/><stop id="stop4492" offset="1" stop-color="#000" stop-opacity="0"/></linearGradient><style id="style4511"/><style id="style4511-26"/><style id="style4511-9"/><style id="style4552"/><style id="style4511-2"/><linearGradient xlink:href="#linearGradient4488" id="linearGradient4540" gradientUnits="userSpaceOnUse" gradientTransform="matrix(.30902 0 0 .3038 -64.017 2.569)" x1="288.112" y1="141.785" x2="287.575" y2="79.008"/><linearGradient osb:paint="solid" id="linearGradient5293"><stop id="stop5295" offset="0" stop-color="#9a89c0" stop-opacity="1"/></linearGradient></defs><style id="style4485" type="text/css"/><g id="g1489" fill-opacity="1"><path d="M2.75 26.796v1.668c0 9.575 5.68 17.283 17.44 17.283h7.05c15.392 0 18.143-11.323 18.143-17.283v-1.668c0 5.96-2.75 17.282-18.143 17.282h-7.05c-11.76 0-17.44-7.708-17.44-17.282z" id="path4516" opacity="1" fill="url(#linearGradient4540)" stroke="none" stroke-width="1.109" stroke-linecap="square" stroke-linejoin="bevel" stroke-miterlimit="4" stroke-dasharray="none" stroke-dashoffset="0" stroke-opacity=".078"/><path d="M19.649 3.318h8.64c14.148 0 17.094 11.246 17.094 17.282v7.123c0 5.96-2.75 17.282-18.143 17.282h-7.05c-11.76 0-17.44-7.708-17.44-17.282V20.6c0-9.575 5.564-17.282 16.899-17.282z" id="path4518" opacity="1" fill="#673399" stroke="#000" stroke-width=".337" stroke-linecap="square" stroke-linejoin="bevel" stroke-miterlimit="4" stroke-dasharray="none" stroke-dashoffset="0" stroke-opacity=".078"/><g transform="matrix(.86273 0 0 .95362 46.7 3.179)" id="g670"><g transform="matrix(.03596 0 0 .03764 -54.803 14.344)" id="g942" opacity=".9" fill="#f6f6f6"><g transform="matrix(.1 0 0 -.1 -1049.242 112.194)" id="g940" fill="#f6f6f6" fill-opacity="1" stroke-width="1"><path d="M13094.392-2358.176v-243.315c0-427.471 7.729-809.136 27.791-1149.762 10.031-170.313 23.102-330.348 39.939-480.74 16.837-150.391 37.372-291.1 62.209-422.763 24.837-131.664 54.038-254.248 88.068-368.377 5.888-19.748 14.153-35.695 20.338-54.939 46.749-121.163 95.973-242.164 152.67-362.763 30.579-57.95 59.343-118.214 94.601-170.246 55.997-82.64 105.457-162.445 174.229-231.128 57.907-82.093 115.543-158.041 219.69-204.506 91.397-40.777 183.701-92.873 281.601-137.226 97.901-44.353 197.29-93.798 311.546-127.776 114.256-33.977 238.313-96.709 370.117-121.505 79.071-14.875 211.906-64.744 297.637-76.658-192.995 209.355-403.362 516.435-518.033 685.852-641.9 937-841.298 1630.748-797.398 2763.148 16 458.5 43.89 645.867 123.59 905.067 530.2 1734.3 1969.596 2922.463 3556.496 2938.363l326.966 4.05 23.834 259.142c16 143.5 35.902 342.955 51.902 450.555l23.927 187.364-394.696-3.958c-219.3 0-546.317-35.887-733.717-71.687-1088.4-227.3-1945.643-753.6-2747.043-1698.6-493.844-580.372-887.661-1434.286-1056.264-2267.592z" id="path934"/><path d="M15723.315-6604.302c72.088-5.76 188.687-40.637 264.816-45.108 343.049-40.593 664.274-69.92 1092.09-75.596l548.162-7.273c-1482.202 598.847-2536.861 1990.468-2536.861 3511.919 0 450.5 12.032 534.343 119.632 845.343 223.3 649.9 629.961 1184.209 1160.161 1523.109 522.3 334.9 1024.719 478.524 1662.619 470.524 466.5 0 841.31-75.823 1251.91-243.222 163.5-67.8 302.996-115.619 306.996-111.72 8 4.001 95.669 179.426 195.369 382.826 211.3 426.6 211.298 426.581-139.602 562.181-518.3 203.3-917.025 283.09-1495.225 298.99-306.699 7.8-645.675-.204-757.274-16.104-1252.001-203.3-2324.525-1012.684-2870.725-2164.984-498.4-1044.6-450.418-2392.306 123.681-3520.606 240.965-472.632 666.162-1045.914 1074.251-1410.28z" id="path936"/><path d="M19549.802-6741.524l1019.85 46.856c292.219 13.426 767.521 118.117 1095.903 174.907 99.138 20.374 139.666 51.832 221.472 58.643 237.38 169.908 941.325 834.372 907.644 864.3-7.9 4-159.571.023-334.971-19.877-175.4-16-725.67-51.929-1220.07-75.829-1889.9-87.7-3018.215 95.725-3931.314 645.925-267.101 163.5-685.755 594.087-801.356 833.287-410.7 853.3-175.473 1858.033 550.127 2344.433 857.2 570.2 2029.398 350.856 2583.698-486.445l99.755-147.516 382.825 203.284c211.3 115.6 390.753 211.295 398.653 219.296 47.9 39.9-171.413 346.961-454.512 633.96-263.201 271.1-382.743 358.737-697.643 514.238-594.1 291.2-1168.354 367.05-1834.153 239.45-350.9-67.801-936.951-342.926-1196.051-558.226-626.001-518.3-933.043-1212.055-933.043-2089.155 0-546.3 63.789-837.312 298.989-1303.812 458.5-913 1708.96-1777.293 3172.259-2092.293 28.125-6.388 645.136.129 671.938-5.426z" id="path938"/></g></g><g transform="matrix(.37276 0 0 .39013 -50.511 -1.982)" id="g938" fill="#fff" stroke="none" stroke-linecap="round" stroke-linejoin="round" stroke-miterlimit="4" stroke-dasharray="none" stroke-opacity="1"><circle id="circle4945" cx="61.843" cy="85.861" r="20.759" display="inline" opacity=".15" stroke-width="2.521"/><circle r="11.364" cy="85.877" cx="61.911" id="circle900" display="inline" opacity=".3" stroke-width="1.38"/><circle id="circle902" cx="61.911" cy="85.877" r="5.682" display="inline" opacity=".45" stroke-width=".69"/></g></g></g></svg>