<svg xmlns:osb="http://www.openswatchbook.org/uri/2009/osb" xmlns="http://www.w3.org/2000/svg" xmlns:xlink="http://www.w3.org/1999/xlink" width="48" height="48" version="1.1" id="svg38"><defs id="defs22"><linearGradient id="linearGradient4488"><stop id="stop4490" offset="0" stop-color="#000" stop-opacity=".047"/><stop id="stop4492" offset="1" stop-color="#000" stop-opacity="0"/></linearGradient><style id="style4511"/><style id="style4511-26"/><style id="style4511-9"/><style id="style4552"/><style id="style4511-2"/><linearGradient xlink:href="#linearGradient4488" id="linearGradient4540" gradientUnits="userSpaceOnUse" gradientTransform="rotate(90.216 54.465 -7.917) scale(.3038)" x1="288.112" y1="141.785" x2="287.575" y2="79.008"/><linearGradient osb:paint="solid" id="linearGradient5293"><stop id="stop5295" offset="0" stop-color="#9a89c0" stop-opacity="1"/></linearGradient><style id="style4511-87"/><style id="style4511-26-7"/><style id="style4511-9-1"/><style id="style4552-53"/><style id="style4511-2-9"/><style id="style4511-8"/><style id="style4511-26-4"/><style id="style4511-9-8"/><style id="style4552-5"/><style id="style4511-2-5"/><clipPath id="clipPath-121880098"/></defs><style id="style4485" type="text/css"/><style type="text/css" id="style4485-7"/><style id="style4485-6" type="text/css"/><path stroke-miterlimit="4" id="path4516" d="M22.28 3.136l-1.67-.007C11.037 3.093 3.309 8.648 3.265 20.21l-.026 6.93c-.057 15.133 11.255 17.88 17.215 17.902l1.669.006c-5.96-.022-17.272-2.77-17.215-17.901l.026-6.93C4.976 8.653 12.705 3.1 22.279 3.135z" opacity="1" fill="url(#linearGradient4540)" fill-opacity="1" stroke="none" stroke-width="1.1" stroke-linecap="square" stroke-linejoin="bevel" stroke-dasharray="none" stroke-dashoffset="0" stroke-opacity=".078"/><path stroke-miterlimit="4" d="M45.695 19.837C45.737 8.694 38.05 3.195 28.476 3.16l-4.293-.016-.157 41.912 4.293.016c6.035.023 17.292-2.832 17.344-16.74z" id="path4518" opacity="1" fill="#eb6755" fill-opacity="1" stroke="#000" stroke-width=".334" stroke-linecap="square" stroke-linejoin="bevel" stroke-dasharray="none" stroke-dashoffset="0" stroke-opacity=".078"/><path stroke-miterlimit="4" d="M2.548 28.39c-.027 11.142 7.667 16.631 17.24 16.655l4.294.01.101-41.912-4.293-.01C13.855 3.118 2.602 5.988 2.568 19.895z" id="path4518-7" opacity="1" fill="#6593c7" fill-opacity="1" stroke="#000" stroke-width=".334" stroke-linecap="square" stroke-linejoin="bevel" stroke-dasharray="none" stroke-dashoffset="0" stroke-opacity=".078"/><path d="M19.888 3.133c-6.04-.013-17.3 2.854-17.333 16.762l-.012 5.02H24.13l.052-21.772z" id="path4518-7-6" stroke-miterlimit="4" opacity="1" fill="#d1eb55" fill-opacity="1" stroke="#000" stroke-width=".334" stroke-linecap="square" stroke-linejoin="bevel" stroke-dasharray="none" stroke-dashoffset="0" stroke-opacity=".078"/><path stroke-miterlimit="4" d="M28.371 45.056C34.41 45.05 45.66 42.343 45.644 29.4l-.006-4.672-21.587.072.024 20.262z" id="path4518-7-6-7" opacity="1" fill="#83be5a" fill-opacity="1" stroke="#000" stroke-width=".322" stroke-linecap="square" stroke-linejoin="bevel" stroke-dasharray="none" stroke-dashoffset="0" stroke-opacity=".078"/><circle cx="24.119" cy="24.102" r="15" id="circle1676" fill="#434343" fill-opacity="1"/><path id="path1678" d="M25.319 16.105l-3 .4v11.6l3-.4v-5.123c1.281 1.934 2.285 3.653 3.999 5.523l3-1c-1.638-1.898-2.922-3.37-4.04-5.192 1.163-1.712 2.618-3.27 4.04-4.808l-3-1c-1.48 1.668-2.821 3.269-4 5m-6.875-2.59a.239.239 0 0 0-.13.07c-.348.329-.678.658-1.023.987-.152.147.003.32.07.443l.702.97.525.71c.075.102.097.113.058.185-.047.074-.086.135-.13.21-.683 1.148-.205 1.237-1.668 1.61l-1.12.185c-.166.056-.382.05-.393.28 0 .465-.014.927-.014 1.39-.009.212.23.232.37.268l1.193.207.894.163c.122.016.149-.012.177.08.365 1.54.843 1.187.047 2.534l-.642.894c-.086.155-.244.307-.083.464.338.335.661.673 1.001 1.007.15.147.343-.002.465-.07l.987-.686.739-.497c.103-.083.116-.103.191-.058 1.48.904 1.533.25 1.964 1.772l.213 1.09c.055.163.06.373.287.382h1.439c.216 0 .235-.246.262-.382l.202-1.159.144-.858c.009-.082.006-.124.022-.152 1.735-.356 1.303-.86 2.714-.058l.916.626c.169.082.33.226.49.072.34-.321.677-.645 1.018-.963.152-.155.003-.332-.07-.451h-.013l-.667-.916-.44.15c-.113.074-.263.046-.396-.128l-.962-1.239a4.964 4.964 0 0 1-4.006 1.994c-2.714 0-4.93-2.155-4.93-4.8 0-1.878 1.118-3.504 2.74-4.291v-1.104c-.056.027-.12.042-.167.058-.634.257-.675.373-1.712-.207l-.916-.636c-.127-.055-.24-.16-.357-.133m3.145 2.467c-1.378.758-2.313 2.21-2.313 3.862 0 2.437 2.042 4.429 4.554 4.429a4.557 4.557 0 0 0 3.734-1.93l-.044-.095c-.963 1.04-2.05 1.715-3.704 1.752-2.061.036-4.146-1.752-4.158-4.105-.016-1.52.703-2.54 1.928-3.267" fill="#e9e9e9" fill-opacity="1" fill-rule="evenodd" stroke="none" stroke-width=".667"/></svg>