<svg xmlns:osb="http://www.openswatchbook.org/uri/2009/osb" xmlns="http://www.w3.org/2000/svg" xmlns:xlink="http://www.w3.org/1999/xlink" width="48" height="48" version="1.1" id="svg38"><defs id="defs22"><linearGradient id="linearGradient4488"><stop id="stop4490" offset="0" stop-color="#000" stop-opacity=".047"/><stop id="stop4492" offset="1" stop-color="#000" stop-opacity="0"/></linearGradient><style id="style4511"/><style id="style4511-26"/><style id="style4511-9"/><style id="style4552"/><style id="style4511-2"/><linearGradient xlink:href="#linearGradient4488" id="linearGradient4540" gradientUnits="userSpaceOnUse" gradientTransform="matrix(.3074 0 0 .30379 -63.667 1.994)" x1="288.112" y1="141.785" x2="287.575" y2="79.008"/><linearGradient osb:paint="solid" id="linearGradient5293"><stop id="stop5295" offset="0" stop-color="#9a89c0" stop-opacity="1"/></linearGradient><style id="style2" type="text/css"><![CDATA[.fil5{fill:none}.fil1{fill:#196FBA}.fil0{fill:#25B2EE}.fil4{fill:#793C7C}.fil3{fill:#8C508C}.fil2{fill:white}]]></style></defs><style id="style4485" type="text/css"/><path id="path4516" d="M2.751 26.22v1.669c0 9.574 5.65 17.282 17.35 17.282h7.012c15.312 0 18.048-11.323 18.048-17.282V26.22c0 5.96-2.736 17.282-18.048 17.282H20.1c-11.7 0-17.349-7.708-17.349-17.282z" opacity="1" fill="url(#linearGradient4540)" fill-opacity="1" stroke="none" stroke-width="1.106" stroke-linecap="square" stroke-linejoin="bevel" stroke-miterlimit="4" stroke-dasharray="none" stroke-dashoffset="0" stroke-opacity=".078"/><path id="path4518" d="M19.561 2.743h8.596c14.073 0 17.004 11.247 17.004 17.282v7.122c0 5.96-2.736 17.282-18.048 17.282H20.1c-11.7 0-17.35-7.708-17.35-17.282v-7.122c0-9.574 5.535-17.282 16.81-17.282z" opacity="1" fill="#e98f19" fill-opacity="1" stroke="#000" stroke-width=".336" stroke-linecap="square" stroke-linejoin="bevel" stroke-miterlimit="4" stroke-dasharray="none" stroke-dashoffset="0" stroke-opacity=".078"/><g id="g1539" transform="matrix(1.02582 0 0 1.06162 .21 -1.666)" fill-opacity="1"><ellipse ry="14.255" rx="14.239" cy="24.47" cx="24.32" id="path1622" opacity="1" fill="#fff" stroke="none" stroke-width="1.709" stroke-linecap="butt" stroke-linejoin="round" stroke-miterlimit="4" stroke-dasharray="none" stroke-opacity="1"/><path id="path1596" d="M21.947 41.182c-1.454-.15-2.971-.478-4.168-.904-.511-.181-1.629-.653-1.879-.793l-.72-.399c-2.516-1.392-4.77-3.59-6.291-6.132-1.362-2.277-2.116-4.605-2.4-7.416-.273-2.683.215-5.797 1.313-8.377 1.874-4.404 5.534-7.871 9.977-9.45 1.687-.6 3.806-.966 5.576-.963 2.66.003 5.527.716 7.784 1.934 1.69.912 2.877 1.803 4.21 3.159 3.16 3.214 4.948 7.607 4.948 12.154 0 2.878-.722 5.731-2.098 8.293-2.965 5.52-8.75 8.987-14.925 8.947a18.338 18.338 0 0 1-1.327-.053zm6.311-6.55c1.132-.207 2.07-.629 3.001-1.346.4-.308 1.078-1.003 1.291-1.322l.295-.441c.448-.672.79-1.571.957-2.519.101-.57.11-.848.11-3.502 0-2.736-.006-2.896-.107-3.172a1.63 1.63 0 0 0-.696-.857c-.243-.146-.288-.152-1.2-.179-.88-.025-.963-.037-1.164-.16-.58-.356-.716-.637-.817-1.681-.09-.917-.098-.963-.303-1.597-.523-1.618-1.693-3.015-3.168-3.783a7.662 7.662 0 0 0-1.803-.675c-.478-.11-.693-.12-3.044-.137-2.36-.017-2.571-.011-3.149.094-.981.179-1.76.5-2.631 1.085-1.48.994-2.522 2.562-2.906 4.376-.092.431-.099.825-.099 5.179 0 4.42.006 4.742.103 5.206.179.86.623 1.924 1.033 2.48.09.122.206.287.256.368.144.228.918 1.001 1.269 1.266a6.979 6.979 0 0 0 2.916 1.313c.497.094.893.103 4.903.108 4.117.005 4.395-.001 4.953-.104zm-9.424-5.423c-.322-.155-.47-.307-.618-.64a1.328 1.328 0 0 1 .27-1.484c.38-.387.048-.36 4.8-.378 3.677-.012 4.316-.003 4.48.066.727.31 1.04 1.113.712 1.823-.153.329-.302.478-.63.63-.238.11-.332.112-4.493.112l-4.25.001-.27-.13zm.053-8.017c-.472-.22-.784-.694-.784-1.19 0-.575.249-.99.731-1.222l.271-.13h2.29l2.288-.001.256.132c.915.474.96 1.761.082 2.32l-.26.166-2.328.013c-2.167.013-2.343.007-2.546-.088z" fill="#e98f19" stroke-width=".055"/></g></svg>