<svg xmlns:osb="http://www.openswatchbook.org/uri/2009/osb" xmlns="http://www.w3.org/2000/svg" xmlns:xlink="http://www.w3.org/1999/xlink" width="48" height="48" version="1.1" id="svg38"><defs id="defs22"><linearGradient id="linearGradient4488"><stop id="stop4490" offset="0" stop-color="#000" stop-opacity=".047"/><stop id="stop4492" offset="1" stop-color="#000" stop-opacity="0"/></linearGradient><style id="style4511"/><style id="style4511-26"/><style id="style4511-9"/><style id="style4552"/><style id="style4511-2"/><linearGradient xlink:href="#linearGradient4488" id="linearGradient4540" gradientUnits="userSpaceOnUse" gradientTransform="matrix(0 -.30902 .3038 0 2.063 112.234)" x1="288.112" y1="141.785" x2="287.575" y2="79.008"/><linearGradient osb:paint="solid" id="linearGradient5293"><stop id="stop5295" offset="0" stop-color="#9a89c0" stop-opacity="1"/></linearGradient><style id="style4511-87920237"/><style id="style4511-26-443"/><style id="style4511-9-5"/><style id="style4552-09"/><style id="style4511-2-0"/><linearGradient id="linearGradient4390" osb:paint="solid"><stop offset="0" id="stop4388" stop-color="#000" stop-opacity="1"/></linearGradient><linearGradient id="linearGradient4300" osb:paint="solid"><stop offset="0" id="stop4298" stop-color="#9f007b" stop-opacity="1"/></linearGradient><style id="style4511-879202"/><linearGradient id="c-293" y1="520.8" y2="503.8" gradientUnits="userSpaceOnUse" x2="0" gradientTransform="translate(-384.57 504.56)"><stop stop-color="#197cf1" id="stop12-936-1"/><stop offset="1" stop-color="#20bcfa" id="stop14-06-94"/></linearGradient><style id="style4511-26-47"/><style id="style4511-9-17"/><style id="style4552-4"/><style id="style4511-2-4"/><style id="style4511-879"/><style id="style4511-26-65"/><style id="style4511-9-2"/><style id="style4552-89"/><style id="style4511-2-1"/><style id="style4511-8"/><style id="style4511-26-4"/><style id="style4511-9-7"/><style id="style4552-3"/><style id="style4511-2-8"/><style id="style4552-7"/><style id="style4552-6"/><style id="style4552-73"/><style id="style4552-2"/><linearGradient id="linearGradient5251" osb:paint="solid"><stop offset="0" id="stop5253" stop-color="#2f343f" stop-opacity="1"/></linearGradient><style id="style4511-87"/><style id="style4511-26-6"/><style id="style4511-9-1"/><style id="style4552-8"/><style id="style4511-2-5"/><style id="style4511-8792"/><style id="style4511-26-3"/><style id="style4511-9-0"/><style id="style4552-86"/><style id="style4511-2-84"/><style id="style4511-8-6"/><style id="style4511-26-4-3"/><style id="style4511-9-7-8"/><style id="style4552-3-7"/><style id="style4511-2-8-9"/><style id="style4552-7-5"/><style id="style4552-6-87"/><style id="style4552-73-3"/><style id="style4552-2-1"/><style id="style4511-87-0"/><style id="style4511-26-6-5"/><style id="style4511-9-1-3"/><style id="style4552-8-8"/><style id="style4511-2-5-3"/><style id="style4511-879-4"/><style id="style4511-26-65-7"/><style id="style4511-9-2-0"/><style id="style4552-89-8"/><style id="style4511-2-1-9"/><style id="style4511-8-0"/><style id="style4511-26-4-0"/><style id="style4511-9-7-9"/><style id="style4552-3-4"/><style id="style4511-2-8-7"/><style id="style4552-7-4"/><style id="style4552-6-8"/><style id="style4552-73-7"/><style id="style4552-2-2"/><style id="style4511-87-2"/><style id="style4511-26-6-4"/><style id="style4511-9-1-7"/><style id="style4552-8-9"/><style id="style4511-2-5-0"/><style id="style4511-87920"/><style id="style4511-26-45"/><style id="style4511-9-9"/><style id="style4552-0"/><style id="style4511-2-9"/><style id="style4511-8792023"/><style id="style4511-26-44"/><style id="style4511-9-71"/><style id="style4552-43"/><style id="style4511-2-96"/><filter height="1.212" y="-.106" width="2.198" x="-.599" id="filter887" color-interpolation-filters="sRGB"><feGaussianBlur id="feGaussianBlur889" stdDeviation="2.03"/></filter><linearGradient xlink:href="#c-293" id="linearGradient5686" x1="2.796" y1="13.211" x2="45.43" y2="13.211" gradientUnits="userSpaceOnUse"/></defs><style id="style4485" type="text/css"/><style type="text/css" id="style4485-8"/><style id="style4485-039" type="text/css"/><style type="text/css" id="style4485-34"/><style id="style4485-0" type="text/css"/><style type="text/css" id="style4485-4"/><style type="text/css" id="style4485-5"/><style type="text/css" id="style4485-3"/><style type="text/css" id="style4485-5-1"/><style id="style4485-1" type="text/css"/><style type="text/css" id="style4485-33"/><style id="style4485-0-7" type="text/css"/><style type="text/css" id="style4485-4-9"/><style type="text/css" id="style4485-5-4"/><style type="text/css" id="style4485-3-9"/><style type="text/css" id="style4485-5-1-9"/><style id="style4485-1-5" type="text/css"/><style id="style4485-51" type="text/css"/><style type="text/css" id="style4485-0-9"/><style id="style4485-4-7" type="text/css"/><style id="style4485-5-13" type="text/css"/><style id="style4485-3-1" type="text/css"/><style id="style4485-5-1-2" type="text/css"/><style type="text/css" id="style4485-1-6"/><style type="text/css" id="style4485-03"/><style id="style4485-6" type="text/css"/><path id="path4516" d="M26.29 45.467h1.669c9.574 0 17.282-5.68 17.282-17.44v-7.05c0-15.393-11.323-18.143-17.282-18.143H26.29c5.96 0 17.282 2.75 17.282 18.143v7.05c0 11.76-7.708 17.44-17.282 17.44z" opacity="1" fill="url(#linearGradient4540)" fill-opacity="1" stroke="none" stroke-width="1.109" stroke-linecap="square" stroke-linejoin="bevel" stroke-miterlimit="4" stroke-dasharray="none" stroke-dashoffset="0" stroke-opacity=".078"/><path id="path4518" d="M28.48 45.4h-8.64C5.692 45.4 2.746 33.933 2.746 27.78v-7.26c0-6.076 2.75-17.618 18.142-17.618h7.049c11.76 0 17.44 7.857 17.44 17.618v7.261c0 9.76-5.565 17.618-16.898 17.618z" opacity="1" fill="#00bcaa" fill-opacity="1" stroke="#000" stroke-width=".34" stroke-linecap="square" stroke-linejoin="bevel" stroke-miterlimit="4" stroke-dasharray="none" stroke-dashoffset="0" stroke-opacity=".078"/><path d="M43.567 22.988c.55.243 1.265.332 1.81.182l.052-3.267c.02-1.205-.255-3.107-.452-4.289-.038-.585-.48-1.583-.643-2.072-.169-.5-.274-.747-.434-1.155-.164-.419-.266-.621-.465-1.036-.171-.38-.377-.673-.568-1.01-.196-.316-.404-.61-.616-.894-.213-.278-.386-.59-.673-.912-.276-.324-.49-.582-.786-.879-.313-.192-.732-.681-1.038-.94A39.39 39.39 0 0 0 38.468 5.7c-.273-.181-1.26-.733-1.744-.988a30.438 30.438 0 0 0-1.986-.849c-.79-.29-1.882-.511-2.527-.612-.78-.135-2.35-.337-3.6-.338L18.442 2.9c-1.647-.002-3.059.376-4.007.772-.597.206-1.355.437-1.913.606-.525.207-.59.25-.989.432-.546.268-1.306.732-1.733 1.004-.432.271-1.02.756-1.406 1.088a7.748 7.748 0 0 0-.92.86c-.322.344-.67.675-.829.872-.268.291-.461.628-.673.912-.212.284-.4.593-.568.93-.168.336-.409.59-.604.959-.195.38-.356.75-.532 1.164-.176.41-.359.84-.516 1.329-.13.478-.316.92-.448 1.484-.22 1.034-.287 1.37-.383 2.225l-.126 1.124c3.41 4.172 6.775 5.277 10.746 4.73 4.67-.982 8.14-4.294 13.453-4.532 5.957-.267 8.241.557 12.145 2.067z" id="path1645" fill="url(#linearGradient5686)" fill-opacity="1" stroke-width=".722"/><path style="line-height:normal;font-variant-ligatures:normal;font-variant-position:normal;font-variant-caps:normal;font-variant-numeric:normal;font-variant-alternates:normal;font-feature-settings:normal;text-indent:0;text-align:start;text-decoration-line:none;text-decoration-style:solid;text-decoration-color:#000;text-transform:none;text-orientation:mixed;white-space:normal;shape-padding:0;isolation:auto;mix-blend-mode:normal;solid-color:#000;solid-opacity:1" d="M16.187 239.18a22.536 22.536 0 0 0-2.236 3.443c-2.652 4.981-4.262 11.78-4.262 19.284 0 7.503 1.61 14.304 4.262 19.285.8 1.5 1.7 2.84 2.686 3.984l1.184-.732c-.959-1.083-1.851-2.39-2.655-3.899-2.516-4.724-4.102-11.333-4.102-18.638 0-7.306 1.586-13.913 4.102-18.637a21.328 21.328 0 0 1 2.032-3.155l-1.01-.935z" id="path852" transform="matrix(-.65546 0 0 -.68084 47.897 202.28)" color="#000" font-style="normal" font-variant="normal" font-weight="400" font-stretch="normal" font-size="medium" font-family="sans-serif" text-decoration="none" letter-spacing="normal" word-spacing="normal" writing-mode="lr-tb" direction="ltr" dominant-baseline="auto" baseline-shift="baseline" text-anchor="start" clip-rule="nonzero" display="inline" overflow="visible" visibility="visible" opacity=".87" color-interpolation="sRGB" color-interpolation-filters="linearRGB" vector-effect="none" fill="#fff" fill-opacity="1" fill-rule="nonzero" stroke="none" stroke-width="1.376" stroke-linecap="butt" stroke-linejoin="miter" stroke-miterlimit="4" stroke-dasharray="none" stroke-dashoffset="0" stroke-opacity="1" filter="url(#filter887)" color-rendering="auto" image-rendering="auto" shape-rendering="auto" text-rendering="auto" enable-background="accumulate"/><g id="g5235" transform="matrix(.46427 0 0 .45062 10.412 20.912)"><path id="path5166" d="M44.8 5.859s-9.851.82-9.409 18.789c0 0-1.424 11.963 9.925 11.568 0 0-8.817-5.725-2.713-16.405 0 0 1.421-2.005.247-7.199.002-.001-.08-4.055 1.95-6.753z" fill="#558ecf"/><path id="path5173" d="M44.8 5.859s-7.837 7.276-6.118 22.458l-2.336-3.332S36.151 9.612 44.8 5.859z" fill="url(#SVGID_1_-3)" fill-opacity=".472"/><g id="g5181"><ellipse id="ellipse5175" ry="10.223" rx="7.732" cy="20.373" cx="11.049" fill="#e9fafa"/><path id="path5177" d="M12.049 17.15c2.391 0 4.636.466 6.589 1.279-.687-4.715-3.822-8.279-7.589-8.279-4.05 0-7.367 4.119-7.699 9.36 2.359-1.473 5.391-2.36 8.699-2.36z" fill="#5892d2"/><circle id="circle5179" r="1.747" cy="20.888" cx="6.005" fill="#231815"/></g><path id="path5183" d="M40.021 26.785c0 6.2-10.453 18.209-19.342 18.209S4.371 36.903 4.371 26.914c0-9.989 7.093-18.085 15.983-18.085s19.667 13.39 19.667 17.956z" fill="#2562b2"/><g id="g5204"><ellipse id="ellipse5185" ry="7.127" rx="7.395" cy="23.893" cx="23.719" fill="#5090d8"/><linearGradient y2="29.788" x2="23.719" y1="15.422" x1="23.719" gradientUnits="userSpaceOnUse" id="SVGID_2_-6"><stop id="stop5187" offset="0" stop-color="#fff"/><stop id="stop5189" offset="1" stop-color="#fff" stop-opacity=".176"/></linearGradient><ellipse id="ellipse5192" ry="7.183" rx="6.693" cy="22.605" cx="23.719" fill="url(#SVGID_2_-6)"/><ellipse id="ellipse5194" ry="9.648" rx="6.405" cy="18.669" cx="23.719" fill="#e9fafa"/><g id="g5198"><path id="path5196" d="M23.714 17.713c2.731 0 5.11 1.018 6.392 2.529.542-6.816-2.971-11.221-6.387-11.221-3.413 0-6.95 4.363-6.387 11.209 1.285-1.504 3.658-2.517 6.382-2.517z" fill="#5892d2"/></g><circle id="circle5200" r="1.877" cy="21.145" cx="27.177" fill="#231815"/><circle id="circle5202" r=".644" cy="20.737" cx="27.973" fill="#fff"/></g><path id="path5206" d="M5.402 32.986s5.327 5.769 16.735 1.037c0 0 1.882-.92 2.478-.77 0 0-1.082 8.103-13.093 8.586 0 0-6.224.002-6.805-5.26.001 0-1.71-2.196.685-3.593z" fill="#5090d8"/><path id="path5208" d="M5.402 32.986s5.327 5.769 16.735 1.037c0 0 1.882-.92 2.478-.77 0 0-2.991 4.689-9.716 5.653-3.001.43-7.885-.182-10.182-2.327.001 0-1.71-2.196.685-3.593z" fill="#60a0e6"/></g><path d="M40.716 17.887c.001.255.016.446.016.71v-.726c-.005.006-.012.01-.016.016z" id="path585" fill="#0aa" stroke-width=".084"/><ellipse id="path5694" cx="34.313" cy="10.844" rx="4.563" ry="4.406" opacity=".699" fill="#fffb00" fill-opacity="1" stroke="none" stroke-width=".215" stroke-miterlimit="4" stroke-dasharray="none" stroke-opacity="1"/></svg>