<svg xmlns="http://www.w3.org/2000/svg" xmlns:xlink="http://www.w3.org/1999/xlink" width="48" height="48" version="1.1" id="svg38"><defs id="defs22"><linearGradient id="linearGradient4488"><stop id="stop4490" offset="0" stop-color="#000" stop-opacity=".047"/><stop id="stop4492" offset="1" stop-color="#000" stop-opacity="0"/></linearGradient><style id="style4511"/><style id="style4511-26"/><style id="style4511-9"/><style id="style4552"/><style id="style4511-2"/><linearGradient gradientTransform="translate(-63.205 2.216) scale(.3038)" xlink:href="#linearGradient4488" id="linearGradient4160" x1="288.112" y1="141.785" x2="287.575" y2="79.008" gradientUnits="userSpaceOnUse"/></defs><style id="style4485" type="text/css"/><path d="M2.433 26.443v1.668c0 9.575 5.583 17.282 17.146 17.282h6.93c15.133 0 17.837-11.322 17.837-17.282v-1.668c0 5.96-2.704 17.282-17.837 17.282h-6.93c-11.563 0-17.146-7.708-17.146-17.282z" id="path4147" opacity="1" fill="url(#linearGradient4160)" fill-opacity="1" stroke="none" stroke-width="1.1" stroke-linecap="square" stroke-linejoin="bevel" stroke-miterlimit="4" stroke-dasharray="none" stroke-dashoffset="0" stroke-opacity=".078"/><path d="M19.046 2.965h8.495c13.908 0 16.805 11.246 16.805 17.282v7.123c0 5.96-2.704 17.282-17.837 17.282h-6.93c-11.562 0-17.146-7.708-17.146-17.282v-7.123c0-9.575 5.47-17.282 16.613-17.282z" id="rect4144" opacity="1" fill="#16f" fill-opacity="1" stroke="#000" stroke-width=".334" stroke-linecap="square" stroke-linejoin="bevel" stroke-miterlimit="4" stroke-dasharray="none" stroke-dashoffset="0" stroke-opacity=".078"/><path d="M38.47 9.538c0-.04-.463.276-1.03.703-5.323 4.014-11.977 7.525-15.702 8.286l-.703.143-.266.7c-.928 2.439-3.566 4.169-7.7 5.05-.654.139-1.355.337-1.558.44-.628.32-1.357 1.05-1.687 1.69-.266.516-.307.739-.267 1.44.034.588.115.9.282 1.081.224.244.782.371.64.147-.11-.176.415-.74.935-1 .841-.422 2.148-.621 3.516-.603.244.005.537.015.74.031 1.024.072 2.042.265 2.887.581.454.17.84.373 1.152.603a10.53 10.53 0 0 1 2.97 2.271c0-.03.004-.058.004-.089.005-.59.026-1.072.044-1.072.019 0 .093.15.165.336.174.45.265.922.282 1.397 1.564 1.942 2.488 4.335 3.031 6.645.724-1.233 1.41-2.863 1.413-3.53.004-.985.699.95.918 2.559l.151 1.114.275-.675c.46-1.128.675-2.307.676-3.696.001-.718-.035-1.422-.081-1.563-.046-.142-.034-.258.028-.258.15 0 1.346 1.198 1.652 1.655.29.432.312.243.074-.633-.627-2.317-2.428-4.5-4.996-6.06l-.993-.603.494-.014c.272-.008.662-.052.868-.098l.374-.083-.499-.167-.499-.168.8-.16c.44-.088 1.198-.346 1.684-.573l.884-.411-1.123.043-1.122.044.873-.29c1.215-.403 3.546-1.606 3.396-1.752-.02-.021-.457.069-.969.2-1.505.384-1.664.3-.488-.259 1.145-.544 2.757-1.566 3.548-2.252l.5-.432-.936.414c-.794.352-2.607.931-2.917.931-.052 0 .268-.185.71-.412 1.267-.65 2.412-1.509 3.828-2.873l1.31-1.263-1.06.55c-1.003.52-3.118 1.455-3.118 1.378 0-.02.266-.221.592-.448 1.265-.879 3.503-3.2 4.828-5.007l.48-.655-1.179.906c-1.26.968-3.832 2.609-3.933 2.509-.034-.033.091-.16.278-.28.55-.354 2.975-3.046 4.308-4.783.68-.886 1.236-1.644 1.236-1.685z" id="path16-0-9-8" fill="#fff" fill-opacity="1"/></svg>