<svg xmlns="http://www.w3.org/2000/svg" xmlns:xlink="http://www.w3.org/1999/xlink" width="48" height="48" version="1.1" id="svg38"><defs id="defs22"><linearGradient id="linearGradient4488"><stop id="stop4490" offset="0" stop-color="#000" stop-opacity=".047"/><stop id="stop4492" offset="1" stop-color="#000" stop-opacity="0"/></linearGradient><style id="style4511"/><style id="style4511-26"/><style id="style4511-9"/><style id="style4552"/><style id="style4511-2"/><linearGradient xlink:href="#linearGradient4488" id="linearGradient4544" gradientUnits="userSpaceOnUse" gradientTransform="translate(-62.887 1.994) scale(.3038)" x1="288.112" y1="141.785" x2="287.575" y2="79.008"/><linearGradient xlink:href="#linearGradient4246" id="linearGradient4505" x1="14.788" y1="42.705" x2="22.866" y2="2.84" gradientUnits="userSpaceOnUse"/><style id="style4511-8"/><style id="style4511-26-4"/><style id="style4511-9-8"/><style id="style4552-5"/><style id="style4511-2-5"/><linearGradient id="linearGradient943"><stop id="stop939" offset="0" stop-color="#fff" stop-opacity="1"/><stop offset=".936" id="stop947" stop-color="#ddd" stop-opacity="1"/><stop id="stop941" offset="1" stop-color="#c8c8c8" stop-opacity="1"/></linearGradient><linearGradient id="linearGradient4246" gradientUnits="userSpaceOnUse" x1="64" y1="3" x2="64" y2="113"><stop offset="0" id="stop4248" stop-color="#1f6998" stop-opacity="1"/><stop offset="1" id="stop4258" stop-color="#0a466c" stop-opacity="1"/></linearGradient><radialGradient r="22.761" fy="307.117" fx="20.831" cy="307.117" cx="20.831" gradientTransform="matrix(1.23817 1.35688 -1.18472 1.08107 348.48 -115.766)" gradientUnits="userSpaceOnUse" id="radialGradient1622" xlink:href="#linearGradient943"/><filter height="1.272" y="-.136" width="1.734" x="-.367" id="filter2044" color-interpolation-filters="sRGB"><feGaussianBlur id="feGaussianBlur2046" stdDeviation=".824"/></filter><filter height="1.68" y="-.34" width="1.223" x="-.112" id="filter2064" color-interpolation-filters="sRGB"><feGaussianBlur id="feGaussianBlur2066" stdDeviation=".518"/></filter><filter height="1.284" y="-.142" width="1.41" x="-.205" id="filter2088" color-interpolation-filters="sRGB"><feGaussianBlur id="feGaussianBlur2090" stdDeviation=".752"/></filter><filter height="1.683" y="-.341" width="1.558" x="-.279" id="filter2132" color-interpolation-filters="sRGB"><feGaussianBlur id="feGaussianBlur2134" stdDeviation=".512"/></filter><filter height="1.154" y="-.077" width="1.098" x="-.049" id="filter2231" color-interpolation-filters="sRGB"><feGaussianBlur id="feGaussianBlur2233" stdDeviation=".629"/></filter><filter height="1.293" y="-.147" width="1.393" x="-.197" id="filter2317" color-interpolation-filters="sRGB"><feGaussianBlur id="feGaussianBlur2319" stdDeviation=".372"/></filter><filter height="1.275" y="-.137" width="1.213" x="-.107" id="filter2419" color-interpolation-filters="sRGB"><feGaussianBlur id="feGaussianBlur2421" stdDeviation=".434"/></filter><filter height="1.125" y="-.062" width="1.115" x="-.058" id="filter2445" color-interpolation-filters="sRGB"><feGaussianBlur id="feGaussianBlur2447" stdDeviation="1.02"/></filter><filter height="1.075" y="-.037" width="1.069" x="-.035" id="filter2459" color-interpolation-filters="sRGB"><feGaussianBlur id="feGaussianBlur2461" stdDeviation=".612"/></filter></defs><style id="style4485" type="text/css"/><style type="text/css" id="style4485-4"/><path id="path4524" d="M2.752 26.22v1.67c0 9.573 5.583 17.281 17.146 17.281h6.93c15.133 0 17.837-11.322 17.837-17.282v-1.668c0 5.96-2.704 17.282-17.837 17.282h-6.93c-11.563 0-17.146-7.708-17.146-17.282z" opacity="1" fill="url(#linearGradient4544)" fill-opacity="1" stroke="none" stroke-width="1.1" stroke-linecap="square" stroke-linejoin="bevel" stroke-miterlimit="4" stroke-dasharray="none" stroke-dashoffset="0" stroke-opacity=".078"/><path id="path4526" d="M19.365 2.742h8.495c13.908 0 16.805 11.247 16.805 17.282v7.124c0 5.96-2.705 17.282-17.837 17.282h-6.93c-11.563 0-17.146-7.708-17.146-17.282v-7.124c0-9.574 5.47-17.282 16.613-17.282z" opacity="1" fill="url(#linearGradient4505)" fill-opacity="1" stroke="#000" stroke-width=".334" stroke-linecap="square" stroke-linejoin="bevel" stroke-miterlimit="4" stroke-dasharray="none" stroke-dashoffset="0" stroke-opacity=".078"/><g id="g835" transform="matrix(.77646 0 0 .79844 108.275 3.84)" stroke-linecap="butt" stroke-linejoin="miter" stroke-opacity="1"><g id="g1620" transform="matrix(.85162 0 0 .86398 -134.315 -196.502)" fill-opacity="1"><path d="M45.624 236.327c-.542-.039-1.09.028-1.625.116-.454.075-.896.213-1.335.348-.55.17-.99.29-1.625.58a14.76 14.76 0 0 0-2.147 1.22 13.777 13.777 0 0 0-1.915 1.624c-.685.696-1.857 2.263-1.857 2.263s-3.839-.12-5.745.058c-.548.052-1.625.29-1.625.29l-1.741.378s-.707.179-1.431.476c0 0-.798.35-1.384.568-.835.312-1.19.656-1.944 1.132-.685.432-1.289.99-1.857 1.567a8.577 8.577 0 0 0-1.218 1.509c-.386.648-.712 1.351-.87 2.089-.136.624-.138 1.281-.059 1.915.07.559.464 1.625.464 1.625s.59.8.929 1.16c.375.4.733.85 1.218 1.103.458.239.997.283 1.51.348l.085.01c.715.077 1.34.122 2.003.049.714-.08 1.43-.24 2.09-.523.695-.298 1.333-.734 1.915-1.218.567-.473 1.174-.966 1.508-1.625.232-.457.392-1.007.29-1.509-.055-.273-.243-.525-.464-.696-.173-.135-.441-.074-.62-.218-.007-.005-.013-.008-.018-.014-.204-.187-.296-.482-.348-.754-.074-.38-.117-.815.058-1.161.124-.245.492-.763.701-.942.375-.32.627-.296 1.04-.567.043-.028.056-.029.126-.059.01-.005.023-.008.036-.015.367-.166 1.269-.555 1.81-.622.213-.027.49-.095.64.058.002.002.005.004.006.007.107.246.051.805.051.805l-.015.035-3.64 8.205s-1.416 3.185-2.496 4.527c-.387.48-.875.883-1.393 1.218-.429.278-.9.508-1.393.639-.638.169-1.33.322-1.973.174-.55-.127-1.11-.421-1.45-.87a1.874 1.874 0 0 1-.349-1.277c.017-.172.145-.315.232-.465.14-.24.335-.449.465-.696.145-.277.343-.558.348-.87.005-.392-.14-.817-.407-1.103-.289-.31-.745-.433-1.16-.522-.549-.118-1.124-.043-1.683 0a18.9 18.9 0 0 0-2.67.406c-.818.18-1.61.478-2.379.812-.583.254-1.166.528-1.683.9-.583.42-1.067.967-1.567 1.48a8.485 8.485 0 0 0-1.392 1.857 9.525 9.525 0 0 0-.929 2.553c-.176.835-.205 1.7-.174 2.553.02.547.111 1.092.232 1.625.157.692.309 1.403.639 2.031.41.782.952 1.468 1.624 2.09.673.621 1.528 1.147 2.38 1.566.743.367 1.558.685 2.35.813.746.12 1.508.103 2.263.116 1.103.019 2.197-.018 3.279-.232 1.04-.206 2.013-.684 2.96-1.16 1.203-.607 2.37-1.309 3.423-2.148a13.783 13.783 0 0 0 2.032-2.031 22.009 22.009 0 0 0 2.263-3.366c.694-1.26 1.162-2.63 1.74-3.946.35-.793.762-1.56 1.045-2.38.229-.66.328-1.36.523-2.03.21-.723.696-2.148.696-2.148s1.45-.224 2.147-.058c.514.123.977.43 1.393.755.248.193.486.42.638.696.176.316.234.688.29 1.045.073.459.152.937.058 1.392-.108.526-.324 1.065-.696 1.451a2.1 2.1 0 0 1-1.102.58 1.007 1.007 0 0 1-.523-.058c-.196-.071-.395-.182-.522-.348-.149-.194-.155-.464-.232-.696-.078-.232-.072-.512-.232-.697a.329.329 0 0 0-.232-.116c-.364-.004-.698.244-.987.465-.403.308-.697.743-.987 1.16a8.56 8.56 0 0 0-.812 1.451c-.301.69-.579 1.404-.696 2.147-.106.669-.13 1.367 0 2.031.108.554.312 1.107.638 1.567.254.358.637.605.987.87.367.28.738.568 1.16.755.348.154.73.212 1.103.29.613.128 1.23.286 1.857.29a6.452 6.452 0 0 0 2.03-.29c.75-.243 1.453-.64 2.09-1.102.808-.588 1.476-1.35 2.147-2.09.583-.642 1.158-1.3 1.625-2.03.396-.62.732-1.284.987-1.974a9.867 9.867 0 0 0 .522-2.089c.104-.767.19-1.559.058-2.321-.11-.634-.416-1.22-.696-1.8-.216-.444-.446-.89-.755-1.276a5.168 5.168 0 0 0-1.044-.986c-.55-.39-1.8-.929-1.8-.929l1.451-.58s1.233-.511 1.741-.929c.425-.349.829-.77 1.045-1.276.375-.878.437-1.893.348-2.844-.083-.89-.348-1.79-.812-2.553-.313-.514-.816-.89-1.277-1.277-.489-.411-1.003-.803-1.567-1.103-.53-.28-1.094-.521-1.683-.638-.664-.132-2.03-.058-2.03-.058s.322-.631.58-.9c.372-.387.832-.846 1.305-1.102a3.45 3.45 0 0 1 1.19-.377c.33-.048.711-.016.986.174.28.191.342.584.523.87.149.236.229.546.464.697.313.2.735.23 1.102.174.513-.08.972-.393 1.393-.697.289-.208.525-.483.755-.754a5.08 5.08 0 0 0 .58-.813c.172-.31.374-.632.406-.986.035-.374-.077-.76-.232-1.103-.16-.352-.4-.68-.696-.928-.3-.25-1.045-.523-1.045-.523s-.88-.257-1.335-.29zm-9.035 10.211s1.04-.1 1.455 0c.415.1.733.247.981.506.249.258.332.551.444.95.111.397.248.904.157 1.423-.09.519-.421 1.112-.759 1.55a4.233 4.233 0 0 1-1.202 1.044c-.446.266-.919.497-1.424.539-.376.03-1.108-.222-1.108-.222z" id="path2423" opacity=".6" fill="#000" stroke="none" stroke-width=".464" filter="url(#filter2445)"/><path id="path908-3" d="M45.624 236.327c-.542-.039-1.09.028-1.625.116-.454.075-.896.213-1.335.348-.55.17-.99.29-1.625.58a14.76 14.76 0 0 0-2.147 1.22 13.777 13.777 0 0 0-1.915 1.624c-.685.696-1.857 2.263-1.857 2.263s-3.839-.12-5.745.058c-.548.052-1.625.29-1.625.29l-1.741.378s-.707.179-1.431.476c0 0-.798.35-1.384.568-.835.312-1.19.656-1.944 1.132-.685.432-1.289.99-1.857 1.567a8.577 8.577 0 0 0-1.218 1.509c-.386.648-.712 1.351-.87 2.089-.136.624-.138 1.281-.059 1.915.07.559.464 1.625.464 1.625s.59.8.929 1.16c.375.4.733.85 1.218 1.103.458.239.997.283 1.51.348l.085.01c.715.077 1.34.122 2.003.049.714-.08 1.43-.24 2.09-.523.695-.298 1.333-.734 1.915-1.218.567-.473 1.174-.966 1.508-1.625.232-.457.392-1.007.29-1.509-.055-.273-.243-.525-.464-.696-.173-.135-.441-.074-.62-.218-.007-.005-.013-.008-.018-.014-.204-.187-.296-.482-.348-.754-.074-.38-.117-.815.058-1.161.124-.245.492-.763.701-.942.375-.32.627-.296 1.04-.567.043-.028.056-.029.126-.059.01-.005.023-.008.036-.015.367-.166 1.269-.555 1.81-.622.213-.027.49-.095.64.058.002.002.005.004.006.007.107.246.051.805.051.805l-.015.035-3.64 8.205s-1.416 3.185-2.496 4.527c-.387.48-.875.883-1.393 1.218-.429.278-.9.508-1.393.639-.638.169-1.33.322-1.973.174-.55-.127-1.11-.421-1.45-.87a1.874 1.874 0 0 1-.349-1.277c.017-.172.145-.315.232-.465.14-.24.335-.449.465-.696.145-.277.343-.558.348-.87.005-.392-.14-.817-.407-1.103-.289-.31-.745-.433-1.16-.522-.549-.118-1.124-.043-1.683 0a18.9 18.9 0 0 0-2.67.406c-.818.18-1.61.478-2.379.812-.583.254-1.166.528-1.683.9-.583.42-1.067.967-1.567 1.48a8.485 8.485 0 0 0-1.392 1.857 9.525 9.525 0 0 0-.929 2.553c-.176.835-.205 1.7-.174 2.553.02.547.111 1.092.232 1.625.157.692.309 1.403.639 2.031.41.782.952 1.468 1.624 2.09.673.621 1.528 1.147 2.38 1.566.743.367 1.558.685 2.35.813.746.12 1.508.103 2.263.116 1.103.019 2.197-.018 3.279-.232 1.04-.206 2.013-.684 2.96-1.16 1.203-.607 2.37-1.309 3.423-2.148a13.783 13.783 0 0 0 2.032-2.031 22.009 22.009 0 0 0 2.263-3.366c.694-1.26 1.162-2.63 1.74-3.946.35-.793.762-1.56 1.045-2.38.229-.66.328-1.36.523-2.03.21-.723.696-2.148.696-2.148s1.45-.224 2.147-.058c.514.123.977.43 1.393.755.248.193.486.42.638.696.176.316.234.688.29 1.045.073.459.152.937.058 1.392-.108.526-.324 1.065-.696 1.451a2.1 2.1 0 0 1-1.102.58 1.007 1.007 0 0 1-.523-.058c-.196-.071-.395-.182-.522-.348-.149-.194-.155-.464-.232-.696-.078-.232-.072-.512-.232-.697a.329.329 0 0 0-.232-.116c-.364-.004-.698.244-.987.465-.403.308-.697.743-.987 1.16a8.56 8.56 0 0 0-.812 1.451c-.301.69-.579 1.404-.696 2.147-.106.669-.13 1.367 0 2.031.108.554.312 1.107.638 1.567.254.358.637.605.987.87.367.28.738.568 1.16.755.348.154.73.212 1.103.29.613.128 1.23.286 1.857.29a6.452 6.452 0 0 0 2.03-.29c.75-.243 1.453-.64 2.09-1.102.808-.588 1.476-1.35 2.147-2.09.583-.642 1.158-1.3 1.625-2.03.396-.62.732-1.284.987-1.974a9.867 9.867 0 0 0 .522-2.089c.104-.767.19-1.559.058-2.321-.11-.634-.416-1.22-.696-1.8-.216-.444-.446-.89-.755-1.276a5.168 5.168 0 0 0-1.044-.986c-.55-.39-1.8-.929-1.8-.929l1.451-.58s1.233-.511 1.741-.929c.425-.349.829-.77 1.045-1.276.375-.878.437-1.893.348-2.844-.083-.89-.348-1.79-.812-2.553-.313-.514-.816-.89-1.277-1.277-.489-.411-1.003-.803-1.567-1.103-.53-.28-1.094-.521-1.683-.638-.664-.132-2.03-.058-2.03-.058s.322-.631.58-.9c.372-.387.832-.846 1.305-1.102a3.45 3.45 0 0 1 1.19-.377c.33-.048.711-.016.986.174.28.191.342.584.523.87.149.236.229.546.464.697.313.2.735.23 1.102.174.513-.08.972-.393 1.393-.697.289-.208.525-.483.755-.754a5.08 5.08 0 0 0 .58-.813c.172-.31.374-.632.406-.986.035-.374-.077-.76-.232-1.103-.16-.352-.4-.68-.696-.928-.3-.25-1.045-.523-1.045-.523s-.88-.257-1.335-.29zm-9.035 10.211s1.04-.1 1.455 0c.415.1.733.247.981.506.249.258.332.551.444.95.111.397.248.904.157 1.423-.09.519-.421 1.112-.759 1.55a4.233 4.233 0 0 1-1.202 1.044c-.446.266-.919.497-1.424.539-.376.03-1.108-.222-1.108-.222z" opacity="1" fill="url(#radialGradient1622)" stroke="none" stroke-width=".464"/><path id="path1580" transform="translate(-2.304 225.634) scale(.26458)" d="M179.607 40.375c-1.54.025-3.084.23-4.603.479-1.715.282-3.384.804-5.045 1.316-2.077.64-3.74 1.093-6.143 2.193-2.402 1.1-5.543 2.809-8.115 4.606a52.053 52.053 0 0 0-7.236 6.14c-2.587 2.63-7.02 8.555-7.02 8.555s-3.626-.115-8.154-.144c-2.05-.016-3.971.124-6.137.164l-38.039 53.668c.116.015.233.034.348.048.105.015.213.027.326.04 1.35.143 2.616.258 3.857.302a25.09 25.09 0 0 0 3.713-.12c1.349-.15 2.7-.376 4.026-.698a24.384 24.384 0 0 0 3.87-1.278 25.448 25.448 0 0 0 3.78-2.039 36.068 36.068 0 0 0 3.46-2.566c1.072-.894 2.181-1.806 3.18-2.807 1-1 1.889-2.088 2.52-3.334.438-.863.81-1.814 1.022-2.787.212-.972.267-1.967.076-2.916a3.995 3.995 0 0 0-.643-1.46 5.317 5.317 0 0 0-1.11-1.173c-.656-.508-1.67-.278-2.349-.822-.023-.019-.045-.03-.066-.053-.385-.354-.663-.808-.871-1.304a7.917 7.917 0 0 1-.445-1.545c-.14-.719-.248-1.489-.24-2.242.006-.754.13-1.491.46-2.145.469-.927 1.861-2.885 2.65-3.56.709-.606 1.3-.887 1.91-1.143.611-.257 1.241-.489 2.02-1 .164-.107.214-.11.477-.223.04-.019.086-.03.137-.06a53.095 53.095 0 0 1 3.174-1.313c1.281-.477 2.645-.909 3.67-1.037.4-.05.862-.14 1.294-.144.433-.004.835.075 1.118.363.009.008.022.016.027.027.201.467.248 1.227.246 1.871-.002.645-.055 1.172-.055 1.172l-.058.133-13.76 31.012s-1.336 3.01-3.184 6.652a110.535 110.535 0 0 1-3.05 5.643c-1.076 1.841-2.177 3.544-3.198 4.812a19.372 19.372 0 0 1-2.445 2.51 25.673 25.673 0 0 1-2.818 2.098c-1.621 1.048-3.398 1.918-5.264 2.412-1.206.32-2.462.622-3.72.777-1.26.155-2.521.16-3.737-.119a11.072 11.072 0 0 1-3.037-1.188c-.95-.55-1.802-1.254-2.446-2.103a6.67 6.67 0 0 1-1.097-2.29 7.147 7.147 0 0 1-.219-2.534c.064-.65.549-1.19.877-1.756.53-.912 1.263-1.698 1.754-2.631.275-.523.601-1.05.86-1.594.257-.544.448-1.107.456-1.697a6.385 6.385 0 0 0-.365-2.143L44.54 180.24c.872.696 1.707 1.42 2.668 2.041a47.029 47.029 0 0 0 4.75 2.676 41.855 41.855 0 0 0 4.373 1.873c1.495.534 3.013.956 4.51 1.197 2.819.455 5.7.39 8.555.438.38.008.756-.023 1.136-.02l22.278-31.52 37.628-51.507 14.64-18.766 1.921-7.644s.983-.095 2.162-.143c.68-.026 1.266.05 1.926.082l10.764-13.799c-.139 0-.266-.025-.4-.025-1.606.008-2.897.078-2.897.078s1.22-2.386 2.193-3.4c.703-.733 1.49-1.534 2.324-2.272.835-.737 1.718-1.413 2.612-1.896.863-.467 1.796-.611 2.699-.856l12.764-16.36v-.003a17.507 17.507 0 0 0-1.538-.039zm5.407 40.205l-31.305 41.977c.123.562.368 1.082.457 1.644.137.868.28 1.753.346 2.637.065.884.05 1.767-.127 2.627-.205.993-.51 2-.942 2.94-.43.94-.986 1.814-1.69 2.544a7.395 7.395 0 0 1-1.913 1.41 8.237 8.237 0 0 1-2.254.784c-.65.123-1.353.008-1.975-.221a4.532 4.532 0 0 1-1.746-1.164l-16.025 21.488c.005.023 0 .05.006.074.205 1.046.5 2.092.898 3.094a13.452 13.452 0 0 0 1.514 2.828c.48.676 1.083 1.247 1.73 1.776.648.528 1.34 1.012 2 1.513 1.39 1.055 2.793 2.146 4.387 2.852 1.314.581 2.76.803 4.166 1.097 1.159.243 2.321.513 3.49.725 1.17.212 2.346.363 3.53.371.75.004 1.504-.086 2.257-.14l32.35-48.444c-.46-1.076-.981-2.132-1.488-3.178-.815-1.68-1.686-3.366-2.852-4.826a19.527 19.527 0 0 0-3.947-3.728c-1.04-.738-2.742-1.614-4.182-2.307a77.133 77.133 0 0 0-2.619-1.201l5.485-2.193s1.163-.484 2.568-1.164c1.405-.68 3.051-1.557 4.012-2.346.803-.66 1.585-1.389 2.27-2.192.683-.802 1.269-1.679 1.677-2.634.709-1.66 1.123-3.447 1.316-5.27.194-1.823.168-3.68 0-5.476a24.539 24.539 0 0 0-.996-5.006c-.097-.313-.287-.583-.398-.89z" fill="#fc5c74" stroke="none" stroke-width="1"/><path d="M45.624 236.327c-.542-.039-1.09.028-1.625.116-.454.075-.896.213-1.335.348-.55.17-.99.29-1.625.58a14.76 14.76 0 0 0-2.147 1.22 13.777 13.777 0 0 0-1.915 1.624c-.685.696-1.857 2.263-1.857 2.263s-3.839-.12-5.745.058c-.548.052-1.625.29-1.625.29l-1.741.378s-.707.179-1.431.476c0 0-.798.35-1.384.568-.835.312-1.19.656-1.944 1.132-.685.432-1.289.99-1.857 1.567a8.577 8.577 0 0 0-1.218 1.509c-.386.648-.712 1.351-.87 2.089-.136.624-.138 1.281-.059 1.915.07.559.464 1.625.464 1.625s.59.8.929 1.16c.375.4.733.85 1.218 1.103.458.239.997.283 1.51.348l.085.01c.715.077 1.34.122 2.003.049.714-.08 1.43-.24 2.09-.523.695-.298 1.333-.734 1.915-1.218.567-.473 1.174-.966 1.508-1.625.232-.457.392-1.007.29-1.509-.055-.273-.243-.525-.464-.696-.173-.135-.441-.074-.62-.218-.007-.005-.013-.008-.018-.014-.204-.187-.296-.482-.348-.754-.074-.38-.117-.815.058-1.161.124-.245.492-.763.701-.942.375-.32.627-.296 1.04-.567.043-.028.056-.029.126-.059.01-.005.023-.008.036-.015.367-.166 1.269-.555 1.81-.622.213-.027.49-.095.64.058.002.002.005.004.006.007.107.246.051.805.051.805l-.015.035-3.64 8.205s-1.416 3.185-2.496 4.527c-.387.48-.875.883-1.393 1.218-.429.278-.9.508-1.393.639-.638.169-1.33.322-1.973.174-.55-.127-1.11-.421-1.45-.87a1.874 1.874 0 0 1-.349-1.277c.017-.172.145-.315.232-.465.14-.24.335-.449.465-.696.145-.277.343-.558.348-.87.005-.392-.14-.817-.407-1.103-.289-.31-.745-.433-1.16-.522-.549-.118-1.124-.043-1.683 0a18.9 18.9 0 0 0-2.67.406c-.818.18-1.61.478-2.379.812-.583.254-1.166.528-1.683.9-.583.42-1.067.967-1.567 1.48a8.485 8.485 0 0 0-1.392 1.857 9.525 9.525 0 0 0-.929 2.553c-.176.835-.205 1.7-.174 2.553.02.547.111 1.092.232 1.625.157.692.309 1.403.639 2.031.41.782.952 1.468 1.624 2.09.673.621 1.528 1.147 2.38 1.566.743.367 1.558.685 2.35.813.746.12 1.508.103 2.263.116 1.103.019 2.197-.018 3.279-.232 1.04-.206 2.013-.684 2.96-1.16 1.203-.607 2.37-1.309 3.423-2.148a13.783 13.783 0 0 0 2.032-2.031 22.009 22.009 0 0 0 2.263-3.366c.694-1.26 1.162-2.63 1.74-3.946.35-.793.762-1.56 1.045-2.38.229-.66.328-1.36.523-2.03.21-.723.696-2.148.696-2.148s1.45-.224 2.147-.058c.514.123.977.43 1.393.755.248.193.486.42.638.696.176.316.234.688.29 1.045.073.459.152.937.058 1.392-.108.526-.324 1.065-.696 1.451a2.1 2.1 0 0 1-1.102.58 1.007 1.007 0 0 1-.523-.058c-.196-.071-.395-.182-.522-.348-.149-.194-.155-.464-.232-.696-.078-.232-.072-.512-.232-.697a.329.329 0 0 0-.232-.116c-.364-.004-.698.244-.987.465-.403.308-.697.743-.987 1.16a8.56 8.56 0 0 0-.812 1.451c-.301.69-.579 1.404-.696 2.147-.106.669-.13 1.367 0 2.031.108.554.312 1.107.638 1.567.254.358.637.605.987.87.367.28.738.568 1.16.755.348.154.73.212 1.103.29.613.128 1.23.286 1.857.29a6.452 6.452 0 0 0 2.03-.29c.75-.243 1.453-.64 2.09-1.102.808-.588 1.476-1.35 2.147-2.09.583-.642 1.158-1.3 1.625-2.03.396-.62.732-1.284.987-1.974a9.867 9.867 0 0 0 .522-2.089c.104-.767.19-1.559.058-2.321-.11-.634-.416-1.22-.696-1.8-.216-.444-.446-.89-.755-1.276a5.168 5.168 0 0 0-1.044-.986c-.55-.39-1.8-.929-1.8-.929l1.451-.58s1.233-.511 1.741-.929c.425-.349.829-.77 1.045-1.276.375-.878.437-1.893.348-2.844-.083-.89-.348-1.79-.812-2.553-.313-.514-.816-.89-1.277-1.277-.489-.411-1.003-.803-1.567-1.103-.53-.28-1.094-.521-1.683-.638-.664-.132-2.03-.058-2.03-.058s.322-.631.58-.9c.372-.387.832-.846 1.305-1.102a3.45 3.45 0 0 1 1.19-.377c.33-.048.711-.016.986.174.28.191.342.584.523.87.149.236.229.546.464.697.313.2.735.23 1.102.174.513-.08.972-.393 1.393-.697.289-.208.525-.483.755-.754a5.08 5.08 0 0 0 .58-.813c.172-.31.374-.632.406-.986.035-.374-.077-.76-.232-1.103-.16-.352-.4-.68-.696-.928-.3-.25-1.045-.523-1.045-.523s-.88-.257-1.335-.29zm-9.035 10.211s1.04-.1 1.455 0c.415.1.733.247.981.506.249.258.332.551.444.95.111.397.248.904.157 1.423-.09.519-.421 1.112-.759 1.55a4.233 4.233 0 0 1-1.202 1.044c-.446.266-.919.497-1.424.539-.376.03-1.108-.222-1.108-.222z" id="path2449" opacity=".3" fill="none" stroke="#7d2533" stroke-width=".464" filter="url(#filter2459)"/></g><path transform="matrix(.85162 0 0 .86398 -137.564 -199.174)" d="M47.781 243.124s.295.689.503.998c.206.309.462.753.728.843.629.043 1.079-.158 1.555-.399.172-.143.69-.683.973-1.006.326-.443.487-.763.626-1.266.082-.288-.18-.923-.18-.923v0" id="path1645" fill="none" stroke="#7d2533" stroke-width=".265" filter="url(#filter2132)"/><path transform="matrix(.85162 0 0 .86398 -137.564 -199.174)" d="M49.435 260.645s.35 2.424.217 3.267c-.133.844-.214 1.367-.553 2.259-.467 1.155-1.093 1.94-1.986 3.047-.964 1.18-1.178 1.493-1.683 1.99-.453.445-.837.782-1.324 1.074-.577.347-1.217.588-1.861.785-.44.134-1.353.266-1.353.266" id="path1647" fill="none" stroke="#7d2533" stroke-width=".286" filter="url(#filter2088)"/><path transform="matrix(.85162 0 0 .86398 -137.564 -199.174)" d="M21.73 256.634s.53 1.101 1.127 1.577 1.194.702 1.849.907c.52.162 1.07.22 1.614.245.59.027 1.248-.034 1.77-.104.521-.07 1.109-.27 1.535-.467.426-.196.73-.41 1.15-.716.42-.305.965-.708 1.345-1.134.449-.455.562-.62.765-1.231" id="path1649" fill="none" stroke="#7d2533" stroke-width=".265" filter="url(#filter2064)"/><path transform="matrix(.85162 0 0 .86398 -137.564 -199.174)" d="M11.58 273.328s1.115 2.086 1.99 2.841c.747.644 1.707 1.023 2.646 1.323.976.312 2.015.401 3.038.473.798.057 1.605.054 2.4-.032.885-.096 1.771-.255 2.614-.538.955-.322 1.856-.8 2.727-1.307.894-.52 1.642-.894 2.548-1.765.907-.872 1.9-1.938 2.663-3.052.972-1.42 1.658-3.02 2.4-4.574.68-1.419 1.3-2.606 1.878-4.33.336-1.003.175-2.475.899-3.395.18-.23.486-.35.77-.418a4.984 4.984 0 0 1 2.57.074c.399.122.771.366 1.057.67.26.277.551 1 .551 1" id="path1651" fill="none" stroke="#7d2533" stroke-width=".265" filter="url(#filter2231)"/><path id="path1994" d="M48.077 248.256s.35 2.424.217 3.267c-.134.843-.215 1.366-.554 2.258-.467 1.155-1.092 1.94-1.985 3.047-.964 1.181-1.178 1.493-1.683 1.99-.453.446-.837.782-1.324 1.075-.578.346-1.218.588-1.862.784-.44.135-1.352.267-1.352.267" transform="matrix(.51962 -.15689 .19136 .426 -168.13 -82.421)" fill="none" stroke="#7d2533" stroke-width=".286" filter="url(#filter2044)"/><path transform="matrix(.85162 0 0 .86398 -137.564 -199.174)" d="M40.404 249.63s1.327-.24 1.918.006c.37.153.647.502.849.848.192.329.28.721.306 1.101.04.596-.002 1.23-.245 1.775-.206.463-.595.833-.98 1.163-.513.442-1.073.912-1.733 1.061-.514.116-1.57-.163-1.57-.163" id="path2235" opacity=".75" fill="none" stroke="#7d2533" stroke-width=".265" filter="url(#filter2317)"/><path transform="matrix(.85162 0 0 .86398 -137.564 -199.174)" d="M23.278 264.278s.394.683.688.934c.292.25.653.427 1.022.53a4.08 4.08 0 0 0 1.519.104c.445-.047 1.291-.369 1.291-.369s.991-.498 1.422-.84a7.898 7.898 0 0 0 1.497-1.58c.438-.614 1.047-2.007 1.047-2.007l1.292-2.767" id="path2321" fill="none" stroke="#7d2533" stroke-width=".265" filter="url(#filter2419)"/></g></svg>