<svg xmlns:osb="http://www.openswatchbook.org/uri/2009/osb" xmlns="http://www.w3.org/2000/svg" xmlns:xlink="http://www.w3.org/1999/xlink" width="48" height="48" version="1.1" id="svg38"><defs id="defs22"><linearGradient id="linearGradient4488"><stop id="stop4490" offset="0" stop-color="#000" stop-opacity=".047"/><stop id="stop4492" offset="1" stop-color="#000" stop-opacity="0"/></linearGradient><style id="style4511"/><style id="style4511-26"/><style id="style4511-9"/><style id="style4552"/><style id="style4511-2"/><linearGradient xlink:href="#linearGradient4488" id="linearGradient4540" gradientUnits="userSpaceOnUse" gradientTransform="matrix(.3074 0 0 .30379 -63.667 1.994)" x1="288.112" y1="141.785" x2="287.575" y2="79.008"/><linearGradient osb:paint="solid" id="linearGradient5293"><stop id="stop5295" offset="0" stop-color="#9a89c0" stop-opacity="1"/></linearGradient><style id="style2" type="text/css"><![CDATA[.fil5{fill:none}.fil1{fill:#196FBA}.fil0{fill:#25B2EE}.fil4{fill:#793C7C}.fil3{fill:#8C508C}.fil2{fill:white}]]></style><style id="style4511-8"/><style id="style4511-26-4"/><style id="style4511-9-8"/><style id="style4552-5"/><style id="style4511-2-5"/></defs><style id="style4485" type="text/css"/><path id="path4516" d="M2.751 26.22v1.669c0 9.574 5.65 17.282 17.35 17.282h7.012c15.312 0 18.048-11.323 18.048-17.282V26.22c0 5.96-2.736 17.282-18.048 17.282H20.1c-11.7 0-17.349-7.708-17.349-17.282z" opacity="1" fill="url(#linearGradient4540)" fill-opacity="1" stroke="none" stroke-width="1.106" stroke-linecap="square" stroke-linejoin="bevel" stroke-miterlimit="4" stroke-dasharray="none" stroke-dashoffset="0" stroke-opacity=".078"/><path id="path4518" d="M19.561 2.618h8.596c14.073 0 17.004 11.247 17.004 17.282v7.122c0 5.96-2.736 17.282-18.048 17.282H20.1c-11.7 0-17.35-7.708-17.35-17.282V19.9c0-9.574 5.535-17.282 16.81-17.282z" opacity="1" fill="#00c586" fill-opacity="1" stroke="#000" stroke-width=".336" stroke-linecap="square" stroke-linejoin="bevel" stroke-miterlimit="4" stroke-dasharray="none" stroke-dashoffset="0" stroke-opacity=".078"/><style type="text/css" id="style4485-4"/><g id="g1512" transform="matrix(1.24432 0 0 1.1875 61.684 -8.156)"><g id="g1498"><path d="M-20.375 16.625s-22 6.977-22 7l8.145 3.422 2.855.578.613 2.924 3.387 8.076zm-14.762 13.004a2.096 2.096 0 0 0-.328.057c-.853.222-2.093 1.14-2.758 2.04a5.768 5.768 0 0 0-1.152 3.438c0 .341.015.4.115.443.114.05 1.08-.01 1.47-.09 1.13-.23 2.091-.758 2.95-1.619.54-.54.859-.987 1.172-1.64.205-.428.345-.948.273-1.02-.014-.013-.126.054-.25.15-.931.598-1.674 1.03-2.73 1.237.274-1.038.567-1.829 1.111-2.574.158-.213.287-.396.287-.406 0-.02-.066-.024-.16-.016z" id="path1470" fill="#fff"/><path d="M-20.375 16.625s-22 6.977-22 7l8.144 3.42 2.856.58z" id="path1472" fill="#c4f1e3"/></g><g id="g1504"><path id="path1500" d="M-20.375 16.625s-22 6.977-22 7l8.145 3.422 2.855.578.613 2.924 3.387 8.076zm-14.762 13.004a2.096 2.096 0 0 0-.328.057c-.853.222-2.093 1.14-2.758 2.04a5.768 5.768 0 0 0-1.152 3.438c0 .341.015.4.115.443.114.05 1.08-.01 1.47-.09 1.13-.23 2.091-.758 2.95-1.619.54-.54.859-.987 1.172-1.64.205-.428.345-.948.273-1.02-.014-.013-.126.054-.25.15-.931.598-1.674 1.03-2.73 1.237.274-1.038.567-1.829 1.111-2.574.158-.213.287-.396.287-.406 0-.02-.066-.024-.16-.016z" fill="#fff"/><path id="path1502" d="M-20.375 16.625s-22 6.977-22 7l8.144 3.42 2.856.58z" fill="#c4f1e3"/></g></g></svg>