<svg xmlns="http://www.w3.org/2000/svg" xmlns:xlink="http://www.w3.org/1999/xlink" width="48" height="48" version="1.1" id="svg38"><defs id="defs22"><radialGradient id="SVGID_4_" cx="258.5" cy="-185.5" r="261.002" gradientTransform="matrix(.13372 0 0 -.12471 -83.245 -16.39)" gradientUnits="userSpaceOnUse"><stop offset="0" id="stop1499" stop-color="#ebebeb"/><stop offset="1" id="stop1501" stop-color="#9b9b9b"/></radialGradient><linearGradient id="linearGradient4488"><stop id="stop4490" offset="0" stop-color="#000" stop-opacity=".047"/><stop id="stop4492" offset="1" stop-color="#000" stop-opacity="0"/></linearGradient><style id="style4511"/><style id="style4511-26"/><style id="style4511-9"/><style id="style4552"/><style id="style4511-2"/><linearGradient gradientTransform="translate(-63.205 2.216) scale(.3038)" xlink:href="#linearGradient4488" id="linearGradient4160" x1="288.112" y1="141.785" x2="287.575" y2="79.008" gradientUnits="userSpaceOnUse"/><radialGradient xlink:href="#SVGID_4_" id="radialGradient1512" cx="24.042" cy="24.168" fx="24.042" fy="24.168" r="21.778" gradientTransform="matrix(1 0 0 .9814 0 .45)" gradientUnits="userSpaceOnUse"/></defs><style id="style4485" type="text/css"/><path d="M2.433 26.443v1.668c0 9.575 5.583 17.282 17.146 17.282h6.93c15.133 0 17.837-11.322 17.837-17.282v-1.668c0 5.96-2.704 17.282-17.837 17.282h-6.93c-11.563 0-17.146-7.708-17.146-17.282z" id="path4147" opacity="1" fill="url(#linearGradient4160)" fill-opacity="1" stroke="none" stroke-width="1.1" stroke-linecap="square" stroke-linejoin="bevel" stroke-miterlimit="4" stroke-dasharray="none" stroke-dashoffset="0" stroke-opacity=".078"/><path d="M19.564 2.966h8.758c14.34 0 17.327 11.44 17.327 17.579v7.246c0 6.061-2.789 17.579-18.39 17.579h-7.146c-11.922 0-17.678-7.84-17.678-17.58v-7.245c0-9.739 5.64-17.579 17.129-17.579z" id="rect4144" opacity="1" fill="url(#radialGradient1512)" fill-opacity="1" stroke="#000" stroke-width=".342" stroke-linecap="square" stroke-linejoin="bevel" stroke-miterlimit="4" stroke-dasharray="none" stroke-dashoffset="0" stroke-opacity=".078"/><g id="g1474" transform="matrix(.12266 0 0 .11787 -7.36 -7.524)"><g id="g1341" opacity=".4"><g id="g1329"><path id="path1321" d="M119.7 217.3l-.3 2.4h273.1l-.3-2.4"/><path id="path1323" d="M119.4 316.3l.3 2.4h272.6l.3-2.4"/><path id="path1325" d="M205.3 404.3l2.4.3V131.4l-2.4.3"/><path id="path1327" d="M306.7 131.7l-2.4-.3v273.1l2.4-.3"/></g><path id="path1331" d="M160.5 348c11.3 0 20.5 9.2 20.5 20.5s-9.2 20.5-20.5 20.5-20.5-9.2-20.5-20.5 9.2-20.5 20.5-20.5m0-10c-16.8 0-30.5 13.7-30.5 30.5s13.7 30.5 30.5 30.5 30.5-13.7 30.5-30.5-13.7-30.5-30.5-30.5z"/><path id="path1333" d="M256 247.5c11.3 0 20.5 9.2 20.5 20.5s-9.2 20.5-20.5 20.5-20.5-9.2-20.5-20.5 9.2-20.5 20.5-20.5m0-10c-16.8 0-30.5 13.7-30.5 30.5s13.7 30.5 30.5 30.5 30.5-13.7 30.5-30.5-13.7-30.5-30.5-30.5z"/><path id="path1335" d="M256 346c11.3 0 20.5 9.2 20.5 20.5S267.3 387 256 387s-20.5-9.2-20.5-20.5S244.7 346 256 346m0-10c-16.8 0-30.5 13.7-30.5 30.5S239.2 397 256 397s30.5-13.7 30.5-30.5S272.8 336 256 336z"/><path id="polygon1337" d="M327.9 151l18 18-18 18 7.1 7.1 18-18 18 18 7.1-7.1-18-18 18-18-7.1-7.1-18 18-18-18z"/><path id="polygon1339" d="M327.9 349l18 18-18 18 7.1 7.1 18-18 18 18 7.1-7.1-18-18 18-18-7.1-7.1-18 18-18-18z"/></g><g id="g1353"><path id="path1343" d="M160.5 336c11.3 0 20.5 9.2 20.5 20.5s-9.2 20.5-20.5 20.5-20.5-9.2-20.5-20.5 9.2-20.5 20.5-20.5m0-10c-16.8 0-30.5 13.7-30.5 30.5s13.7 30.5 30.5 30.5 30.5-13.7 30.5-30.5-13.7-30.5-30.5-30.5z" fill="#fff"/><path id="path1345" d="M256 235.5c11.3 0 20.5 9.2 20.5 20.5s-9.2 20.5-20.5 20.5-20.5-9.2-20.5-20.5 9.2-20.5 20.5-20.5m0-10c-16.8 0-30.5 13.7-30.5 30.5s13.7 30.5 30.5 30.5 30.5-13.7 30.5-30.5-13.7-30.5-30.5-30.5z" fill="#fff"/><path id="path1347" d="M256 334c11.3 0 20.5 9.2 20.5 20.5S267.3 375 256 375s-20.5-9.2-20.5-20.5S244.7 334 256 334m0-10c-16.8 0-30.5 13.7-30.5 30.5S239.2 385 256 385s30.5-13.7 30.5-30.5S272.8 324 256 324z" fill="#fff"/><path id="polygon1349" fill="red" d="M327.9 139l18 18-18 18 7.1 7.1 18-18 18 18 7.1-7.1-18-18 18-18-7.1-7.1-18 18-18-18z"/><path id="polygon1351" fill="red" d="M327.9 337l18 18-18 18 7.1 7.1 18-18 18 18 7.1-7.1-18-18 18-18-7.1-7.1-18 18-18-18z"/></g></g></svg>