<svg xmlns="http://www.w3.org/2000/svg" xmlns:xlink="http://www.w3.org/1999/xlink" width="48" height="48" version="1.1" id="svg38"><defs id="defs22"><linearGradient id="linearGradient4488"><stop id="stop4490" offset="0" stop-color="#000" stop-opacity=".047"/><stop id="stop4492" offset="1" stop-color="#000" stop-opacity="0"/></linearGradient><style id="style4511"/><style id="style4511-26"/><style id="style4511-9"/><linearGradient id="4246-6"><stop offset="0" id="stop41" stop-color="#2f74c8" stop-opacity="1"/><stop offset="1" id="stop43" stop-color="#4699d7" stop-opacity="1"/></linearGradient><style id="style4552"/><style id="style4511-2"/><linearGradient xlink:href="#linearGradient4488" id="linearGradient4546" gradientUnits="userSpaceOnUse" gradientTransform="translate(-62.497 2.425) scale(.3038)" x1="288.112" y1="141.785" x2="287.575" y2="79.008"/><linearGradient xlink:href="#4246-6" id="linearGradient1474" x1="2.974" y1="23.586" x2="45.221" y2="23.586" gradientUnits="userSpaceOnUse" gradientTransform="translate(0 .431)"/></defs><style id="style4485" type="text/css"/><path id="path1807" d="M-81.234-19.315c10.966 0 12.534 1.564 12.534 12.525v8.778c0 10.96-1.568 12.525-12.534 12.525h-11.16c-10.966 0-12.533-1.564-12.533-12.525V-6.79c0-10.96 1.567-12.525 12.533-12.525z" display="inline" opacity="1" fill="#fff" fill-opacity="1" stroke="none" stroke-width=".302" stroke-linecap="round" stroke-linejoin="round" stroke-miterlimit="4" stroke-dasharray="none" stroke-dashoffset="0" stroke-opacity="1"/><path d="M3.141 26.652v1.669c0 9.574 5.583 17.282 17.146 17.282h6.93c15.133 0 17.837-11.323 17.837-17.282v-1.669c0 5.96-2.704 17.282-17.837 17.282h-6.93c-11.563 0-17.146-7.708-17.146-17.282z" id="path4528" opacity="1" fill="url(#linearGradient4546)" fill-opacity="1" stroke="none" stroke-width="1.1" stroke-linecap="square" stroke-linejoin="bevel" stroke-miterlimit="4" stroke-dasharray="none" stroke-dashoffset="0" stroke-opacity=".078"/><path d="M19.754 3.174h8.495c13.908 0 16.805 11.247 16.805 17.282v7.123c0 5.96-2.704 17.282-17.837 17.282h-6.93c-11.562 0-17.146-7.708-17.146-17.282v-7.123c0-9.574 5.47-17.282 16.613-17.282z" id="path4530" opacity="1" fill="url(#linearGradient1474)" fill-opacity="1" stroke="#000" stroke-width=".334" stroke-linecap="square" stroke-linejoin="bevel" stroke-miterlimit="4" stroke-dasharray="none" stroke-dashoffset="0" stroke-opacity=".078"/><path id="path4461" d="M20.48 6.568h7.176c11.748 0 14.195 9.42 14.195 14.475v5.966c0 4.992-2.284 14.475-15.067 14.475H20.93c-9.768 0-14.484-6.456-14.484-14.475v-5.966c0-8.02 4.62-14.475 14.033-14.475z" opacity="1" fill="#ececec" fill-opacity="1" stroke="none" stroke-width=".29" stroke-linecap="square" stroke-linejoin="bevel" stroke-miterlimit="4" stroke-dasharray="none" stroke-dashoffset="0" stroke-opacity=".078"/><g id="g1440" transform="matrix(.98934 0 0 1 .107 .102)"><g transform="matrix(.1777 0 0 .17778 -42.885 18.177)" id="g4906"><path id="brackets" d="M370.1-32.007v30.581h-35.678v66.259H370.1v33.13h-68.807v-129.97zm84.098 0v129.97h-68.807v-33.13h38.226V-1.426h-38.226v-30.581z" fill="#4d4d4d" stroke-width="4.028"/></g><path id="path1107" d="M19.93 36.811c-8.665 0-9.904-1.2-9.904-9.608v-3.366h28.625v3.366c0 8.408-1.238 9.608-9.903 9.608z" display="inline" opacity=".1" fill="#fff" fill-opacity="1" stroke="none" stroke-width=".235" stroke-linecap="round" stroke-linejoin="round" stroke-miterlimit="4" stroke-dasharray="none" stroke-dashoffset="0" stroke-opacity="1"/></g></svg>