<svg xmlns="http://www.w3.org/2000/svg" xmlns:xlink="http://www.w3.org/1999/xlink" width="48" height="48" version="1.1" id="svg38"><defs id="defs22"><linearGradient id="linearGradient4488"><stop id="stop4490" offset="0" stop-color="#000" stop-opacity=".047"/><stop id="stop4492" offset="1" stop-color="#000" stop-opacity="0"/></linearGradient><style id="style4511"/><style id="style4511-26"/><style id="style4511-9"/><style id="style4552"/><style id="style4511-2"/><linearGradient gradientTransform="translate(-63.205 2.216) scale(.3038)" xlink:href="#linearGradient4488" id="linearGradient4160" x1="288.112" y1="141.785" x2="287.575" y2="79.008" gradientUnits="userSpaceOnUse"/></defs><style id="style4485" type="text/css"/><path d="M2.433 26.443v1.668c0 9.575 5.583 17.282 17.146 17.282h6.93c15.133 0 17.837-11.322 17.837-17.282v-1.668c0 5.96-2.704 17.282-17.837 17.282h-6.93c-11.563 0-17.146-7.708-17.146-17.282z" id="path4147" opacity="1" fill="url(#linearGradient4160)" fill-opacity="1" stroke="none" stroke-width="1.1" stroke-linecap="square" stroke-linejoin="bevel" stroke-miterlimit="4" stroke-dasharray="none" stroke-dashoffset="0" stroke-opacity=".078"/><path d="M19.046 2.965h8.495c13.908 0 16.805 11.246 16.805 17.282v7.123c0 5.96-2.704 17.282-17.837 17.282h-6.93c-11.562 0-17.146-7.708-17.146-17.282v-7.123c0-9.575 5.47-17.282 16.613-17.282z" id="rect4144" opacity="1" fill="#e6be29" fill-opacity="1" stroke="#000" stroke-width=".334" stroke-linecap="square" stroke-linejoin="bevel" stroke-miterlimit="4" stroke-dasharray="none" stroke-dashoffset="0" stroke-opacity=".078"/><path d="M17.34 23.808v-9.741l4.589.011c5.026.012 4.821.004 5.5.217.95.298 1.569.937 1.84 1.9.154.549.17.796.17 2.68 0 1.451-.01 1.838-.053 2.085-.15.865-.435 1.383-1.07 1.944l-.31.273.385.376c.558.546.793.96.967 1.709.06.254.064.458.064 2.888 0 2.614 0 2.614-.08 2.973-.336 1.511-1.24 2.24-2.962 2.39-.258.022-2.014.036-4.725.036h-4.314v-9.74zm9.33 8.567c.86-.241 1.376-.757 1.615-1.61.075-.272.076-.296.076-2.667 0-2.374 0-2.394-.076-2.665-.233-.83-.733-1.346-1.547-1.595l-.256-.078-2.725-.01-2.725-.012V22.65l2.708-.01c2.697-.011 2.71-.012 2.959-.088.642-.197 1.108-.56 1.367-1.062.294-.57.322-.82.305-2.793-.012-1.486-.017-1.583-.088-1.842-.246-.898-.817-1.439-1.718-1.625-.308-.063-.494-.066-4.226-.066h-3.905v17.294l4.007-.01c3.753-.01 4.021-.015 4.23-.073z" id="path12671" opacity="1" fill="#fff" fill-opacity="1" stroke="none" stroke-width=".038" stroke-linecap="square" stroke-linejoin="miter" stroke-miterlimit="4" stroke-dasharray="none" stroke-opacity="1"/></svg>