<svg height="48" width="48" xmlns="http://www.w3.org/2000/svg" xmlns:xlink="http://www.w3.org/1999/xlink"><linearGradient id="a" gradientTransform="matrix(.30902 0 0 .3038 -64.017 1.994)" gradientUnits="userSpaceOnUse" x1="288.112" x2="287.575" y1="141.785" y2="79.008"><stop offset="0" stop-opacity=".047"/><stop offset="1" stop-opacity="0"/></linearGradient><linearGradient id="b" gradientUnits="userSpaceOnUse" x1="24.689272" x2="24.138" y1="31.722483" y2="14.259"><stop offset="0" stop-color="#e5e5e5"/><stop offset="1" stop-color="#fff"/></linearGradient><linearGradient id="c" gradientUnits="userSpaceOnUse" x1="24.16148" x2="24.449116" y1="42.535175" y2="4.854775"><stop offset="0" stop-color="#ff6000"/><stop offset="1" stop-color="#ffa400"/></linearGradient><g transform="translate(0 .575)"><path d="m2.75 26.22v1.67c0 9.573 5.68 17.281 17.44 17.281h7.05c15.392 0 18.143-11.322 18.143-17.282v-1.668c0 5.96-2.75 17.282-18.143 17.282h-7.05c-11.76 0-17.44-7.708-17.44-17.282z" fill="url(#a)"/><path d="m19.649 2.742h8.64c14.148 0 17.094 11.247 17.094 17.282v7.124c0 5.96-2.75 17.282-18.143 17.282h-7.05c-11.76 0-17.44-7.708-17.44-17.282v-7.124c0-9.574 5.564-17.282 16.899-17.282z" style="stroke:#000;stroke-width:.337;stroke-linecap:square;stroke-linejoin:bevel;stroke-opacity:.078;fill:url(#c)"/><path d="m19.683 10.398c-.557 0-2.506 2.211-2.785 2.211h-1.392c-.557 0-2.507 1.935-2.507 2.488v1.658c0 .276-2.215 2.21-2.227 2.763-.013.553 3.898 13.542 4.455 14.095s6.684 5.527 8.355 5.527h1.113c1.671 0 7.798-4.974 8.355-5.527s4.466-13.542 4.455-14.095c-.012-.55-2.228-2.487-2.228-2.763v-1.658c0-.553-1.949-2.488-2.506-2.488h-1.391c-.279 0-2.228-2.21-2.785-2.21h-8.911z" fill="#4b422f"/><path d="m25.252 15.364c-.554 0-1.107.19-1.67.562-1.671 1.105-3.9-.553-4.456-.553-.557 0-3.899 4.027-3.899 5.527 0 1.106 4.177 3.648 4.177 4.422 0 .553-.835.818-.835 1.991 0 .773 1.114 2.155 2.228 2.155s3.9-2.17 3.898-2.708v-.333c0-.663-2.506-1.499-2.506-2.763 0-1.106.836-1.515.836-2.764 0-1.074-2.228-1.382-3.9-1.658-.556 0 1.672-1.818 4.735.147.775.497-.835 2.464-.557 4.275.418.387 1.184.58 1.95.58s1.531-.193 1.949-.58c.278-1.81-1.333-3.778-.557-4.275 3.063-1.965 5.29-.147 4.734-.147-1.671.276-3.899.584-3.899 1.658 0 1.25.836 1.658.836 2.764 0 1.264-2.507 2.1-2.507 2.763v.333c-.002.537 2.785 2.708 3.899 2.708s2.228-1.382 2.228-2.155c0-1.172-.836-1.438-.836-1.991 0-.774 4.177-3.316 4.177-4.422 0-1.5-3.341-5.527-3.898-5.527s-2.785 1.658-4.456.553c-.563-.373-1.114-.562-1.67-.562zm0 13.164c-1.114 0-3.62 1.713-3.62 2.045s2.506 3.04 3.62 3.04 3.62-2.708 3.62-3.04-2.506-2.045-3.62-2.045z" opacity=".1"/><path d="m24.138 14.259c-.554 0-1.107.189-1.67.561-1.671 1.106-3.899-.553-4.456-.553s-3.899 4.028-3.899 5.528c0 1.105 4.178 3.648 4.178 4.422 0 .552-.836.818-.836 1.99 0 .773 1.114 2.155 2.228 2.155s3.9-2.17 3.899-2.707v-.333c0-.663-2.507-1.499-2.507-2.764 0-1.105.836-1.514.836-2.763 0-1.075-2.228-1.382-3.899-1.658-.557 0 1.67-1.819 4.734.147.775.497-.835 2.464-.557 4.274.418.387 1.184.58 1.95.58s1.531-.193 1.949-.58c.278-1.81-1.332-3.777-.557-4.274 3.063-1.966 5.29-.147 4.734-.147-1.67.276-3.899.583-3.899 1.658 0 1.249.836 1.658.836 2.763 0 1.265-2.507 2.1-2.507 2.764v.333c-.002.537 2.785 2.707 3.9 2.707 1.113 0 2.227-1.382 2.227-2.154 0-1.172-.836-1.439-.836-1.991 0-.774 4.178-3.317 4.178-4.422 0-1.5-3.342-5.528-3.9-5.528-.556 0-2.784 1.659-4.455.553-.563-.372-1.114-.561-1.67-.561zm0 13.163c-1.113 0-3.62 1.714-3.62 2.046 0 .331 2.507 3.04 3.62 3.04 1.114 0 3.62-2.709 3.62-3.04 0-.332-2.506-2.046-3.62-2.046z" fill="url(#b)"/></g></svg>