<svg xmlns="http://www.w3.org/2000/svg" xmlns:xlink="http://www.w3.org/1999/xlink" width="48" height="48" version="1.1" id="svg38"><defs id="defs22"><linearGradient id="linearGradient4488"><stop id="stop4490" offset="0" stop-color="#000" stop-opacity=".047"/><stop id="stop4492" offset="1" stop-color="#000" stop-opacity="0"/></linearGradient><style id="style4511"/><style id="style4511-26"/><style id="style4511-9"/><style id="style4552"/><style id="style4511-2"/><linearGradient xlink:href="#linearGradient4488" id="linearGradient4540" gradientUnits="userSpaceOnUse" gradientTransform="translate(-62.889 1.994) scale(.3038)" x1="288.112" y1="141.785" x2="287.575" y2="79.008"/></defs><style id="style4485" type="text/css"/><path id="path4516" d="M2.75 26.22v1.67c0 9.573 5.583 17.281 17.146 17.281h6.93c15.132 0 17.836-11.322 17.836-17.282v-1.668c0 5.96-2.704 17.282-17.836 17.282h-6.93C8.333 43.503 2.75 35.795 2.75 26.22z" opacity="1" fill="url(#linearGradient4540)" fill-opacity="1" stroke="none" stroke-width="1.1" stroke-linecap="square" stroke-linejoin="bevel" stroke-miterlimit="4" stroke-dasharray="none" stroke-dashoffset="0" stroke-opacity=".078"/><path id="path4518" d="M19.363 2.742h8.495c13.908 0 16.804 11.247 16.804 17.282v7.124c0 5.96-2.704 17.282-17.836 17.282h-6.93C8.333 44.43 2.75 36.722 2.75 27.148v-7.124c0-9.574 5.47-17.282 16.613-17.282z" opacity="1" fill="#4c85bd" fill-opacity="1" stroke="#000" stroke-width=".334" stroke-linecap="square" stroke-linejoin="bevel" stroke-miterlimit="4" stroke-dasharray="none" stroke-dashoffset="0" stroke-opacity=".078"/><path d="M24.268 10.223a13.665 13.665 0 0 0-1.19.006c-3.466.17-6.265 1.31-8.523 3.474-.868.832-1.377 1.43-1.967 2.315-.818 1.224-1.772 3.353-1.772 3.955 0 .344.251.584.61.584.311 0 .489-.215.685-.828.235-.73.93-2.163 1.407-2.893 1.189-1.825 2.76-3.256 4.552-4.15 2.352-1.174 5.488-1.543 8.297-.973 4.1.832 7.399 3.834 8.754 7.965.313.952.335 1.09.203 1.222-.141.142-.253.106-.814-.273-.706-.476-.897-.513-1.182-.229-.274.275-.298.635-.057.856.09.081.803.573 1.586 1.092 1.546 1.023 1.685 1.075 2.028.758.199-.185.2-.191.16-.881-.186-3.224-2.364-7.124-5.193-9.297-2.156-1.656-4.82-2.598-7.584-2.703zm-13.41 13.672c-.424.084-.51.256-.493.974.055 2.234 1.332 5.208 3.196 7.444 2.024 2.429 5.063 4.117 8.08 4.488.356.043.727.091.826.105.407.059 2.12.04 2.814-.031 5.07-.515 9.073-3.615 10.987-8.51.382-.978.422-1.245.226-1.494a.612.612 0 0 0-.783-.174c-.176.091-.245.21-.398.686-.85 2.634-2.81 5.2-5.043 6.601-.54.338-1.795.918-2.446 1.13-2.46.797-5.625.8-8.056.005-3.695-1.207-6.575-4.278-7.649-8.154-.143-.517-.143-.521-.002-.662.163-.163.16-.162.934.338.554.358.79.389 1.039.14.24-.24.293-.504.146-.728-.065-.1-.803-.636-1.638-1.192-1.345-.894-1.546-1.005-1.74-.966z" id="path4477" opacity="1" fill="#fff" fill-opacity="1" stroke="none" stroke-width=".038" stroke-linecap="round" stroke-linejoin="miter" stroke-miterlimit="4" stroke-dasharray="none" stroke-opacity="1"/></svg>