<svg xmlns="http://www.w3.org/2000/svg" width="48" height="48" version="1.1" id="svg38"><defs id="defs22"><style id="style4511"/><style id="style4511-26"/><style id="style4511-9"/><style id="style4552"/><style id="style4511-2"/><style id="style4511-8"/><style id="style4511-26-4"/><style id="style4511-9-8"/><style id="style4552-5"/><style id="style4511-2-5"/><style id="style4511-87"/><style id="style4511-26-7"/><style id="style4511-9-1"/><style id="style4552-53"/><style id="style4511-2-9"/><clipPath clipPathUnits="userSpaceOnUse" id="clipPath230"><path d="M0 512h512V0H0v512z" id="path232"/></clipPath></defs><style id="style4485" type="text/css"/><style type="text/css" id="style4485-4"/><style type="text/css" id="style4485-3"/><path id="path4475" d="M19.528 2.965h8.495c13.908 0 16.804 11.246 16.804 17.282v7.123c0 5.96-2.704 17.282-17.836 17.282h-6.93c-11.563 0-17.146-7.708-17.146-17.282v-7.123c0-9.575 5.47-17.282 16.613-17.282z" opacity="1" fill="#e6e6e6" fill-opacity="1" stroke="#000" stroke-width=".334" stroke-linecap="square" stroke-linejoin="bevel" stroke-miterlimit="4" stroke-dasharray="none" stroke-dashoffset="0" stroke-opacity=".078"/><style id="style1394" type="text/css"/><path d="M37.84 24.889c.025 7.405-6.197 13.428-13.898 13.452l-.092-26.816c7.7-.025 13.964 5.958 13.99 13.364" id="path236" fill="#eaeaea" fill-opacity="1" fill-rule="nonzero" stroke="none" stroke-width=".104"/><path d="M23.923 11.525l-.092 26.816C16.13 38.317 9.908 32.294 9.933 24.89c.026-7.406 6.29-13.389 13.99-13.364" id="path240" fill="#efeded" fill-opacity="1" fill-rule="nonzero" stroke="none" stroke-width=".104"/><path d="M37.94 22.748c-1.28-6.657-7.47-11.25-14.309-10.959-6.647-.061-12.58 4.47-13.829 10.972-1.4 7.282 3.604 14.276 11.177 15.623l2.945-18.307 2.84 18.294c7.572-1.347 12.576-8.34 11.176-15.623" id="path244" fill="#e2394e" fill-opacity="1" fill-rule="nonzero" stroke="none" stroke-width=".104"/><path d="M18.829 23.642c1.091 0 1.976.85 1.976 1.9 0 1.05-.885 1.9-1.976 1.9-1.092 0-1.977-.85-1.977-1.9 0-1.05.885-1.9 1.977-1.9" id="path248" fill="#231f20" fill-opacity="1" fill-rule="nonzero" stroke="none" stroke-width=".104"/><path d="M13.305 26.273c1.091 0 1.976.851 1.976 1.9 0 1.05-.885 1.901-1.976 1.901-1.092 0-1.976-.85-1.976-1.9 0-1.05.884-1.9 1.976-1.9" id="path252" fill="#231f20" fill-opacity="1" fill-rule="nonzero" stroke="none" stroke-width=".104"/><path d="M18.575 30.854c1.092 0 1.977.85 1.977 1.9 0 1.05-.885 1.9-1.977 1.9-1.091 0-1.976-.85-1.976-1.9 0-1.05.885-1.9 1.976-1.9" id="path256" fill="#231f20" fill-opacity="1" fill-rule="nonzero" stroke="none" stroke-width=".104"/><path d="M13.964 21.085c1.091 0 1.976.851 1.976 1.9 0 1.05-.885 1.901-1.976 1.901-1.092 0-1.977-.85-1.977-1.9 0-1.05.885-1.9 1.977-1.9" id="path260" fill="#231f20" fill-opacity="1" fill-rule="nonzero" stroke="none" stroke-width=".104"/><path d="M31.91 21.278c1.092 0 1.977.851 1.977 1.9 0 1.05-.885 1.901-1.976 1.901-1.092 0-1.977-.85-1.977-1.9 0-1.05.885-1.9 1.977-1.9" id="path264" fill="#231f20" fill-opacity="1" fill-rule="nonzero" stroke="none" stroke-width=".104"/><path d="M27.14 24.373c1.091 0 1.976.85 1.976 1.9 0 1.05-.885 1.9-1.976 1.9-1.092 0-1.977-.85-1.977-1.9 0-1.05.885-1.9 1.977-1.9" id="path268" fill="#231f20" fill-opacity="1" fill-rule="nonzero" stroke="none" stroke-width=".104"/><path d="M33.322 27.053c1.092 0 1.977.85 1.977 1.9 0 1.05-.885 1.9-1.977 1.9-1.091 0-1.976-.85-1.976-1.9 0-1.05.885-1.9 1.976-1.9" id="path272" fill="#231f20" fill-opacity="1" fill-rule="nonzero" stroke="none" stroke-width=".104"/><path d="M29.934 31.682c1.092 0 1.977.851 1.977 1.9 0 1.05-.885 1.901-1.977 1.901-1.091 0-1.976-.85-1.976-1.9 0-1.05.885-1.9 1.976-1.9" id="path276" fill="#231f20" fill-opacity="1" fill-rule="nonzero" stroke="none" stroke-width=".104"/><path d="M20.054 18.177c1.092 0 1.977.85 1.977 1.9 0 1.05-.885 1.9-1.977 1.9-1.091 0-1.976-.85-1.976-1.9 0-1.05.885-1.9 1.976-1.9" id="path280" fill="#231f20" fill-opacity="1" fill-rule="nonzero" stroke="none" stroke-width=".104"/><path d="M26.24 18.177c1.092 0 1.977.85 1.977 1.9 0 1.05-.885 1.9-1.977 1.9-1.091 0-1.976-.85-1.976-1.9 0-1.05.885-1.9 1.976-1.9" id="path284" fill="#231f20" fill-opacity="1" fill-rule="nonzero" stroke="none" stroke-width=".104"/><path d="M23.871 9.231c7.9 0 14.304 6.158 14.304 13.755 0 0-6.588-4.62-14.252-4.62-8.122 0-14.356 4.62-14.356 4.62 0-7.597 6.404-13.755 14.304-13.755" id="path288" fill="#3d3d3d" fill-opacity="1" fill-rule="nonzero" stroke="none" stroke-width=".104"/><path d="M18.74 9.9c1.525 0 2.762 1.189 2.762 2.655 0 1.467-1.237 2.656-2.762 2.656s-2.762-1.189-2.762-2.656c0-1.466 1.237-2.655 2.762-2.655" id="path292" fill="#fff" fill-opacity="1" fill-rule="nonzero" stroke="none" stroke-width=".104"/><path d="M21.173 12.556c0 1.291-1.09 2.339-2.433 2.339-1.343 0-2.432-1.048-2.432-2.34 0-1.291 1.089 0 2.432 0s2.433-1.291 2.433 0" id="path296" fill="#2d2d2d" fill-opacity="1" fill-rule="nonzero" stroke="none" stroke-width=".104"/><path d="M29.002 9.9c1.525 0 2.762 1.189 2.762 2.655 0 1.467-1.237 2.656-2.762 2.656s-2.762-1.189-2.762-2.656c0-1.466 1.237-2.655 2.762-2.655" id="path300" fill="#fff" fill-opacity="1" fill-rule="nonzero" stroke="none" stroke-width=".104"/><path d="M31.435 12.556c0 1.291-1.09 2.339-2.433 2.339-1.343 0-2.432-1.048-2.432-2.34 0-1.291 1.089 0 2.432 0 1.344 0 2.433-1.291 2.433 0" id="path304" fill="#2d2d2d" fill-opacity="1" fill-rule="nonzero" stroke="none" stroke-width=".104"/></svg>