<svg xmlns="http://www.w3.org/2000/svg" xmlns:xlink="http://www.w3.org/1999/xlink" width="48" height="48" version="1.1" id="svg38"><defs id="defs22"><linearGradient id="linearGradient4488"><stop id="stop4490" offset="0" stop-color="#000" stop-opacity=".047"/><stop id="stop4492" offset="1" stop-color="#000" stop-opacity="0"/></linearGradient><style id="style4511"/><style id="style4511-26"/><style id="style4511-9"/><style id="style4552"/><style id="style4511-2"/><linearGradient xlink:href="#linearGradient4488" id="linearGradient4536" gradientUnits="userSpaceOnUse" gradientTransform="translate(-63.133 1.994) scale(.3038)" x1="288.112" y1="141.785" x2="287.575" y2="79.008"/></defs><style id="style4485" type="text/css"/><path id="path4508" d="M2.506 26.22v1.67c0 9.573 5.583 17.281 17.146 17.281h6.93c15.133 0 17.837-11.322 17.837-17.282v-1.668c0 5.96-2.704 17.282-17.837 17.282h-6.93c-11.563 0-17.146-7.708-17.146-17.282z" opacity="1" fill="url(#linearGradient4536)" fill-opacity="1" stroke="none" stroke-width="1.1" stroke-linecap="square" stroke-linejoin="bevel" stroke-miterlimit="4" stroke-dasharray="none" stroke-dashoffset="0" stroke-opacity=".078"/><path id="path4510" d="M19.12 2.742h8.494c13.908 0 16.805 11.247 16.805 17.282v7.124c0 5.96-2.705 17.282-17.837 17.282h-6.93c-11.563 0-17.146-7.708-17.146-17.282v-7.124c0-9.574 5.47-17.282 16.613-17.282z" opacity="1" fill="#00a9ff" fill-opacity="1" stroke="#000" stroke-width=".334" stroke-linecap="square" stroke-linejoin="bevel" stroke-miterlimit="4" stroke-dasharray="none" stroke-dashoffset="0" stroke-opacity=".078"/><g transform="matrix(1.12208 0 0 1.13559 -2.992 -3.668)" id="g1411" fill-opacity="1" stroke="none"><path d="M25.13 15.906l-.75.625c.925 1.127 1.667 2.089 2.344 2.813.677.723 1.251 1.235 1.906 1.438.328.101.707.101 1.031-.031.324-.132.576-.375.813-.688.474-.625.887-1.549 1.313-2.906l-.969-.313c-.411 1.312-.794 2.189-1.125 2.625-.165.218-.301.301-.406.344-.106.043-.19.079-.344.031-.307-.095-.833-.508-1.469-1.188-.636-.679-1.417-1.62-2.344-2.75z" id="path1359" color="#000" display="inline" visibility="visible" opacity="1" fill="#0e334c"/><path d="M17.215 25.475L22 15l3 1-3 10.5z" id="path1361" opacity="1" fill="#e4ae00"/><path id="rect1363" opacity="1" fill="#0e334c" fill-rule="nonzero" d="M14 33h11v3H14z"/><path d="M15 33l3-2v-2h3v2l3 2z" id="path1365" fill="#e4ae00"/><g id="g1371" fill="#0e334c"><path d="M25.522 15l5.478.274v-.552L25.345 14" id="path1367"/><path d="M24.05 16.516l6.98.036-.031-.552-7.229-.475" id="path1369"/></g><path d="M18 26l5-11 1.313.68L20.657 27" id="path1373" fill="#0e334c"/><path d="M14.219 24.906c-.699.028-1.274.159-1.75.375-.82.372-1.316 1.03-1.375 1.719h1c.036-.268.237-.565.781-.813.335-.152.813-.257 1.406-.281.49-.02 1.106.092 1.781.219l-.031.875h1l.031-1.344v-.406l-.375-.094a9.404 9.404 0 0 0-2.469-.25z" id="path1375" color="#000" display="inline" visibility="visible" opacity="1" fill="#0e334c"/><circle transform="translate(-2.423 -5) scale(1.125)" cx="19.487" cy="28" r="4" id="circle1377" opacity="1" fill="#ffcf36" fill-rule="nonzero"/><circle transform="matrix(.625 0 0 .625 7.32 9)" cx="19.487" cy="28" r="4" id="circle1379" opacity="1" fill="#0e334c" fill-rule="nonzero"/><circle transform="translate(-3.572 -1.807) scale(1.15663)" cx="23.406" cy="14.531" r="2.594" id="circle1381" opacity="1" fill="#ffcf36" fill-rule="nonzero"/><circle transform="translate(9.964 6.596) scale(.57831)" cx="23.406" cy="14.531" r="2.594" id="circle1383" fill="#0e334c" fill-rule="nonzero"/><path d="M32 17h1v8h-1z" id="path1385" fill="#0e334c" fill-rule="nonzero"/><path d="M34.31 16.594l-.625.813c.634.484 1.319 1.496 1.368 1.607.025.055.007.031 0 .063-.007.031-.024.134-.094.25-.281.463-1.462 3.719-1.462 5.675h1c0-1.719.931-4.557 1.306-5.175.094-.155.205-.317.25-.531a1.16 1.16 0 0 0-.094-.688c-.196-.441-.973-1.497-1.65-2.01z" id="path1387" color="#000" display="inline" visibility="visible" fill="#0e334c"/><circle transform="matrix(1.25 0 0 1.25 -7.5 -4.5)" cx="32" cy="16" r="2" id="circle1389" opacity="1" fill="#ffcf36" fill-rule="nonzero"/><circle transform="matrix(1.5 0 0 1.5 -15.5 -8.5)" cx="32" cy="16" r="1" id="circle1391" opacity="1" fill="#0e334c" fill-rule="nonzero"/><path d="M30 24h5v2h-5z" id="path1393" fill="#ffcf36" fill-rule="nonzero"/><path d="M31 26h3v1h-3z" id="path1395" fill="#0e334c" fill-rule="nonzero"/><path d="M11.09 27a1.72 1.72 0 0 0 0 .344c.101.799.812 1.435 1.813 1.594 1 .159 2.301-.108 3.875-1.031l-.75-.781c-1.304.71-2.329.914-2.969.813-.684-.109-.93-.448-.969-.75a.788.788 0 0 1 0-.188z" id="path1397" color="#000" display="inline" visibility="visible" fill="#0e334c"/><path transform="rotate(40.716)" d="M40.457-.514h1v2h-1z" id="path1399" fill="#0e334c" fill-rule="nonzero"/><path d="M32 26h1v2h-1z" id="path1401" fill="#0e334c" fill-rule="nonzero"/><path transform="scale(-1 1) rotate(40.716)" d="M-8.81 41.885h1v2h-1z" id="path1403" fill="#0e334c" fill-rule="nonzero"/><path d="M29.699 27.528l-.559.66 1.648 2.01-.336-2.047z" id="path1405" fill="#0e334c"/><path d="M35.3 27.518l.559.66-1.648 2.01.336-2.047z" id="path1407" fill="#0e334c"/><path d="M32 28l.492 1.469L33 28" id="path1409" fill="#0e334c"/></g></svg>