<svg xmlns:osb="http://www.openswatchbook.org/uri/2009/osb" xmlns="http://www.w3.org/2000/svg" xmlns:xlink="http://www.w3.org/1999/xlink" width="48" height="48" version="1.1" id="svg38"><defs id="defs22"><linearGradient id="linearGradient4488"><stop id="stop4490" offset="0" stop-color="#000" stop-opacity=".047"/><stop id="stop4492" offset="1" stop-color="#000" stop-opacity="0"/></linearGradient><style id="style4511"/><style id="style4511-26"/><style id="style4511-9"/><style id="style4552"/><style id="style4511-2"/><linearGradient xlink:href="#linearGradient4488" id="linearGradient4546" gradientUnits="userSpaceOnUse" gradientTransform="translate(-62.497 1.994) scale(.3038)" x1="288.112" y1="141.785" x2="287.575" y2="79.008"/><style id="style4511-8"/><style id="style4511-26-4"/><style id="style4511-9-7"/><style id="style4552-3"/><style id="style4511-2-8"/><style id="style4552-7"/><style id="style4552-6"/><style id="style4552-73"/><style id="style4552-2"/><linearGradient osb:paint="solid" id="linearGradient5251"><stop id="stop5253" offset="0" stop-color="#2f343f" stop-opacity="1"/></linearGradient></defs><style id="style4485" type="text/css"/><style type="text/css" id="style4485-0"/><style id="style4485-4" type="text/css"/><style id="style4485-5" type="text/css"/><style id="style4485-3" type="text/css"/><style id="style4485-5-1" type="text/css"/><path d="M3.141 26.22v1.67c0 9.573 5.583 17.281 17.146 17.281h6.93c15.133 0 17.837-11.322 17.837-17.282v-1.668c0 5.96-2.704 17.282-17.837 17.282h-6.93c-11.563 0-17.146-7.708-17.146-17.282z" id="path4528" opacity="1" fill="url(#linearGradient4546)" fill-opacity="1" stroke="none" stroke-width="1.1" stroke-linecap="square" stroke-linejoin="bevel" stroke-miterlimit="4" stroke-dasharray="none" stroke-dashoffset="0" stroke-opacity=".078"/><path d="M19.754 2.742h8.495c13.908 0 16.805 11.247 16.805 17.282v7.124c0 5.96-2.704 17.282-17.837 17.282h-6.93c-11.562 0-17.146-7.708-17.146-17.282v-7.124c0-9.574 5.47-17.282 16.613-17.282z" id="path4530" opacity="1" fill="#ececec" fill-opacity="1" stroke="#000" stroke-width=".334" stroke-linecap="square" stroke-linejoin="bevel" stroke-miterlimit="4" stroke-dasharray="none" stroke-dashoffset="0" stroke-opacity=".078"/><g id="g1727" fill="#37abc8" fill-opacity="1" stroke="none" stroke-width="1.8" stroke-linecap="round" stroke-linejoin="miter" stroke-miterlimit="4" stroke-dasharray="none" stroke-dashoffset="0" stroke-opacity="1"><path id="path5889" d="M12.66 3.87A14.34 14.34 0 0 0 8.67 6.3l1.045 1.076L4.5 13.081h6.213L16.1 7.372c-.958-.959-2.18-2.21-3.441-3.502z" opacity="1"/><path id="path5893" d="M17.63 2.683c-1.894.184-3.605.606-5.124 1.242l3.35 3.451-5.215 5.705h6.212l5.387-5.709a654.746 654.746 0 0 1-4.61-4.69z" opacity="1"/><path id="path5895" d="M19.793 2.576c-.82 0-1.6.053-2.358.134l4.531 4.666-5.214 5.705h6.212l5.387-5.709C27.04 6.06 25.352 4.33 23.638 2.576z" opacity="1"/><path id="path5897" d="M23.445 2.575l4.662 4.801-5.215 5.705h6.213l5.387-5.709c-1.297-1.299-2.963-3.005-4.66-4.742a23.988 23.988 0 0 0-1.545-.055z" opacity="1"/><path id="path5899" d="M29.636 2.613l4.625 4.763-5.215 5.705h6.213l5.381-5.703c-.052-.056-.103-.114-.156-.17-.093-.093-.227-.232-.324-.33-2.345-2.31-5.72-4-10.524-4.265z" opacity="1"/><path id="path5901" d="M38.72 5.644l1.682 1.732-5.217 5.705h6.213l1.78-1.884c-.981-2.062-2.405-4.024-4.458-5.553z" opacity="1"/><path id="path5903" d="M43.107 11.054l-1.853 2.027h2.705a18.183 18.183 0 0 0-.852-2.027z" opacity="1"/><path id="path5905" d="M8.914 6.103c-2.19 1.804-3.761 4.195-4.692 6.978h.553l5.387-5.709c-.348-.347-.84-.856-1.248-1.27z" opacity="1"/></g><path style="marker:none" d="M4.713 14.356a.34.34 0 0 1-.345-.335.34.34 0 0 1 .345-.334c.19 0 .344.15.344.334a.34.34 0 0 1-.344.335zm1.379 0a.34.34 0 0 1-.345-.335.34.34 0 0 1 .345-.334c.19 0 .344.15.344.334a.34.34 0 0 1-.344.335zm1.379 0a.34.34 0 0 1-.345-.335.34.34 0 0 1 .345-.334c.19 0 .345.15.345.334a.34.34 0 0 1-.345.335zm1.379 0a.34.34 0 0 1-.345-.335.34.34 0 0 1 .345-.334c.19 0 .345.15.345.334a.34.34 0 0 1-.345.335zm1.379 0a.34.34 0 0 1-.345-.335.34.34 0 0 1 .345-.334c.19 0 .345.15.345.334a.34.34 0 0 1-.345.335zm1.379 0a.34.34 0 0 1-.345-.335.34.34 0 0 1 .345-.334c.19 0 .345.15.345.334a.34.34 0 0 1-.345.335zm1.38 0a.34.34 0 0 1-.346-.335.34.34 0 0 1 .345-.334c.19 0 .345.15.345.334a.34.34 0 0 1-.345.335zm1.378 0a.34.34 0 0 1-.345-.335.34.34 0 0 1 .345-.334c.19 0 .345.15.345.334a.34.34 0 0 1-.345.335zm1.38 0a.34.34 0 0 1-.346-.335.34.34 0 0 1 .345-.334c.19 0 .345.15.345.334a.34.34 0 0 1-.345.335zm1.378 0a.34.34 0 0 1-.344-.335.34.34 0 0 1 .344-.334c.19 0 .345.15.345.334a.34.34 0 0 1-.345.335zm1.38 0a.34.34 0 0 1-.345-.335.34.34 0 0 1 .344-.334c.19 0 .345.15.345.334a.34.34 0 0 1-.345.335zm1.378 0a.34.34 0 0 1-.344-.335.34.34 0 0 1 .344-.334c.19 0 .345.15.345.334a.34.34 0 0 1-.345.335zm1.38 0a.34.34 0 0 1-.345-.335.34.34 0 0 1 .345-.334c.19 0 .344.15.344.334a.34.34 0 0 1-.344.335zm1.379 0a.34.34 0 0 1-.345-.335.34.34 0 0 1 .345-.334c.19 0 .344.15.344.334a.34.34 0 0 1-.344.335zm1.379 0a.34.34 0 0 1-.345-.335.34.34 0 0 1 .345-.334c.19 0 .345.15.345.334a.34.34 0 0 1-.345.335zm1.379 0a.34.34 0 0 1-.345-.335.34.34 0 0 1 .345-.334c.19 0 .345.15.345.334a.34.34 0 0 1-.345.335zm1.379 0a.34.34 0 0 1-.345-.335.34.34 0 0 1 .345-.334c.19 0 .345.15.345.334a.34.34 0 0 1-.345.335zm1.379 0a.34.34 0 0 1-.345-.335.34.34 0 0 1 .345-.334c.19 0 .345.15.345.334a.34.34 0 0 1-.345.335zm1.38 0a.34.34 0 0 1-.346-.335.34.34 0 0 1 .345-.334c.19 0 .345.15.345.334a.34.34 0 0 1-.345.335zm1.378 0a.34.34 0 0 1-.345-.335.34.34 0 0 1 .345-.334c.19 0 .345.15.345.334a.34.34 0 0 1-.345.335zm1.38 0a.34.34 0 0 1-.346-.335.34.34 0 0 1 .345-.334c.19 0 .345.15.345.334a.34.34 0 0 1-.345.335zm1.378 0a.34.34 0 0 1-.344-.335.34.34 0 0 1 .344-.334c.19 0 .345.15.345.334a.34.34 0 0 1-.345.335zm1.38 0a.34.34 0 0 1-.345-.335.34.34 0 0 1 .344-.334c.19 0 .345.15.345.334a.34.34 0 0 1-.345.335zm1.378 0a.34.34 0 0 1-.344-.335.34.34 0 0 1 .344-.334c.19 0 .345.15.345.334a.34.34 0 0 1-.345.335zm1.38 0a.34.34 0 0 1-.345-.335.34.34 0 0 1 .345-.334c.19 0 .344.15.344.334a.34.34 0 0 1-.344.335zm1.379 0a.34.34 0 0 1-.345-.335.34.34 0 0 1 .345-.334c.19 0 .344.15.344.334a.34.34 0 0 1-.344.335zm1.379 0a.34.34 0 0 1-.345-.335.34.34 0 0 1 .345-.334c.19 0 .344.15.344.334a.34.34 0 0 1-.344.335zm1.379 0a.34.34 0 0 1-.345-.335.34.34 0 0 1 .345-.334c.19 0 .345.15.345.334a.34.34 0 0 1-.345.335zm1.379 0a.34.34 0 0 1-.345-.335.34.34 0 0 1 .345-.334c.19 0 .345.15.345.334a.34.34 0 0 1-.345.335z" id="path4568" color="#000" display="inline" overflow="visible" visibility="visible" opacity=".4" fill="#4d4d4d" fill-opacity="1" stroke="none" stroke-width="1.018"/><g transform="matrix(.04723 .00896 -.00903 .04756 5.347 -2.178)" id="txt" image-rendering="optimizeSpeed"><g id="drawingObject"><path d="M696.639 393.763l30.641-53.41-5.65-29.046-225.373 43.839 5.65 29.045 193.907-37.718c-19.085 32.462-34.667 62.846-46.962 91.475-14.438 37.698-23.722 66.02-28.226 84.48-6.699 27.261-10.605 54.537-11.611 82.366.286 37.346 1.693 66.1 4.219 86.263l33.887-6.591c-5.748-41.029-6.565-79.667-2.399-115.646 2.92-23.735 9.701-56.315 20.344-97.741 9.343-29.45 19.958-55.239 31.573-77.316zM457.783 457.25c-3.191-16.405-8.706-30.405-16.76-41.678-8.002-11.003-17.572-20.027-28.876-26.481-11.52-6.133-24.288-10.069-38.251-11.54-13.963-1.471-28.635-.85-43.965 2.132-18.825 3.662-34.655 9.812-47.706 18.77-13.051 8.958-23.21 19.866-30.478 32.724-7.268 12.857-11.481 27.074-13.071 43.293-1.59 16.219-.551 33.043 3.492 50.958l31.466-6.121c-2.832-13.126-4.163-25.707-3.454-37.846.44-12.088 3.024-23.197 7.7-33.597 4.46-10.078 11.384-18.961 20.558-26.328 9.226-7.098 21.074-12.193 35.328-14.966 10.488-2.04 21.022-2.415 31.01-1.287 10.041 1.396 19.268 4.347 27.732 9.12 8.465 4.773 15.578 11.205 21.338 19.295 6.029 8.038 10.116 17.57 12.366 29.135 2.668 13.716 2.602 26.289-.251 37.451-3.122 11.213-8.448 22.577-15.978 34.089-7.799 11.566-17.047 22.854-27.527 33.546l-62.78 64.685c-10.107 11.177-18.66 23.168-26.032 35.488-7.321 12.589-12.228 26.103-15.313 40.38-3.032 14.546-3.277 30.503-.198 47.768l230.752-44.885-5.65-29.046-194.714 37.875c-.367-11.931 2.651-23.682 8.783-35.202 6.185-11.252 13.551-22.174 22.418-32.552l82.762-83.924a185.133 185.133 0 0 0 22.581-33.141c6.402-11.573 10.712-23.855 13.199-36.899s2.344-26.693-.481-41.216z" id="path1" fill="#333" fill-opacity="1"/></g></g><g transform="matrix(.04815 .00896 -.0092 .04756 4.203 -4.118)" id="drawingObject1" image-rendering="optimizeSpeed" stroke-width="6.159" stroke-miterlimit="4" stroke-dasharray="none" stroke="#fff" stroke-opacity="1"><path id="path4" d="M548.662 114.584l38.388-7.234-1.684-8.935-86.952 16.386 1.684 8.935 38.14-7.187 19.02 100.933 10.425-1.964zm-60.361 36.562l10.507-1.98c-1.836-5.65-4.54-10.452-8.097-14.323-3.556-3.87-7.65-6.954-12.265-9.168-4.631-2.297-9.535-3.772-14.779-4.326-5.343-.621-10.53-.414-15.742.568-8.687 1.637-15.92 4.628-21.879 8.92a50.264 50.264 0 0 0-7.875 7.31c-2.34 2.583-4.287 5.434-5.955 8.404-3.304 6.106-5.377 12.836-6.234 20.108-.857 7.272-.576 14.673.858 22.284 1.419 7.529 3.866 14.607 7.327 21.151 3.445 6.461 7.794 11.81 13.079 16.211 2.665 2.325 5.501 4.189 8.621 5.743a54.618 54.618 0 0 0 9.964 3.777c7.128 1.912 14.953 2.065 23.64.428 4.302-.811 9.989-2.91 16.962-6.366 4.906-3.066 8.993-6.835 12.164-11.373 3.171-4.539 5.525-9.78 6.911-15.61 1.453-5.928 1.871-12.346 1.337-19.271l-10.507 1.98c.423 4.975.138 9.826-.887 14.389-1.092 4.661-2.789 8.836-5.077 12.608-2.469 3.721-5.558 6.873-9.269 9.457-3.778 2.682-8.24 4.465-13.287 5.416-3.723.702-7.177 1.01-10.378.843-3.269-.07-6.352-.517-9.264-1.424-2.83-.924-5.525-2.043-8.035-3.541a36.95 36.95 0 0 1-6.862-5.046c-4.167-3.927-7.631-8.671-10.294-14.166-2.664-5.495-4.598-11.214-5.72-17.17a67.86 67.86 0 0 1-.938-18.157c.497-6.005 2.012-11.602 4.464-16.776 1.218-2.628 2.731-5.055 4.523-7.363 1.824-2.143 3.911-4.25 6.211-6.14 2.382-1.905 5.091-3.443 8.11-4.698 2.921-1.321 6.251-2.291 9.973-2.993 3.972-.748 7.886-.886 11.745-.414a37.854 37.854 0 0 1 10.993 3.326c3.482 1.657 6.577 3.986 9.269 6.906 2.692 2.919 4.981 6.429 6.686 10.476zm-99.858 18.818c-3.445-6.461-7.826-11.975-13.125-16.459-5.285-4.402-11.457-7.608-18.519-9.618-7.112-1.83-14.937-1.983-23.541-.361-8.605 1.621-15.837 4.612-21.796 8.904a50.311 50.311 0 0 0-7.875 7.31c-2.34 2.583-4.287 5.434-5.955 8.404-3.304 6.106-5.377 12.836-6.234 20.108-.857 7.272-.576 14.673.858 22.284 1.419 7.529 3.866 14.607 7.327 21.151 3.445 6.461 7.794 11.81 13.078 16.211 2.666 2.325 5.502 4.19 8.621 5.743a54.628 54.628 0 0 0 9.965 3.777c7.128 1.912 14.953 2.065 23.557.444 8.604-1.622 15.837-4.612 21.78-8.988 5.876-4.277 10.459-9.51 13.763-15.615 3.32-6.023 5.424-12.588 6.281-19.86.841-7.355.545-14.838-.874-22.367-1.434-7.611-3.866-14.606-7.311-21.068zm-26.005-13.432a46.857 46.857 0 0 1 6.893 5.211c4.167 3.927 7.615 8.589 10.263 14.001a67.863 67.863 0 0 1 5.736 17.253c1.122 5.956 1.402 11.986.921 18.074-.48 6.087-1.98 11.767-4.432 16.941-2.534 5.19-6.068 9.625-10.75 13.42-4.697 3.712-10.637 6.288-17.918 7.66-3.64.686-7.094.994-10.296.827-3.351-.054-6.434-.501-9.263-1.424-2.83-.924-5.526-2.043-8.035-3.541a36.99 36.99 0 0 1-6.863-5.046c-4.249-3.911-7.631-8.671-10.294-14.166-2.663-5.495-4.597-11.213-5.72-17.17a67.901 67.901 0 0 1-.937-18.157c.496-6.005 1.929-11.586 4.463-16.776 1.218-2.628 2.731-5.055 4.524-7.363 1.824-2.143 3.911-4.25 6.211-6.14 2.299-1.889 5.008-3.428 8.11-4.698 2.921-1.321 6.25-2.291 9.89-2.977 7.281-1.372 13.751-1.135 19.477.613 2.83.923 5.541 2.126 8.02 3.458z" fill="#fff" fill-opacity="1" stroke-width="6.159" stroke-miterlimit="4" stroke-dasharray="none" stroke="#fff" stroke-opacity="1"/></g></svg>