<svg xmlns="http://www.w3.org/2000/svg" xmlns:xlink="http://www.w3.org/1999/xlink" width="48" height="48" version="1.1" id="svg38"><defs id="defs22"><style id="style4511"/><style id="style4511-26"/><style id="style4511-9"/><style id="style4552"/><style id="style4511-2"/><linearGradient gradientTransform="translate(7 4)" gradientUnits="userSpaceOnUse" x2="21" y2="32" x1="8" y1="4" id="g-3"><stop id="stop32" stop-color="#bdc3c7"/><stop id="stop34" stop-color="#7f8c8d" offset="1"/></linearGradient><linearGradient gradientTransform="translate(-4.5 4)" gradientUnits="userSpaceOnUse" x2="0" y2="32" y1="36" id="b-6"><stop id="stop7-75" stop-color="#f39c12"/><stop id="stop9-35" stop-color="#f5ab35" offset="1"/></linearGradient><linearGradient gradientTransform="matrix(5 0 0 6.25 57.465 -10.718)" gradientUnits="userSpaceOnUse" x2="19" y2="33" x1="27" y1="44" id="a-6"><stop id="stop2-2" stop-color="#18222a"/><stop id="stop4-912" stop-color="#566069" offset="1"/></linearGradient><linearGradient xlink:href="#g-3" id="linearGradient530" gradientUnits="userSpaceOnUse" gradientTransform="translate(7 4)" x1="8" y1="4" x2="21" y2="32"/><linearGradient xlink:href="#b-6" id="linearGradient532" gradientUnits="userSpaceOnUse" gradientTransform="translate(-4.5 4)" y1="36" x2="0" y2="32"/><linearGradient xlink:href="#a-6" id="linearGradient534" gradientUnits="userSpaceOnUse" gradientTransform="matrix(5 0 0 6.25 57.465 -10.718)" x1="27" y1="44" x2="19" y2="33"/></defs><style id="style4485" type="text/css"/><path d="M19.046 2.965h8.495c13.908 0 16.805 11.246 16.805 17.282v7.123c0 5.96-2.704 17.282-17.837 17.282h-6.93c-11.562 0-17.146-7.708-17.146-17.282v-7.123c0-9.575 5.47-17.282 16.613-17.282z" id="rect4144" opacity="1" fill="#e6e6e6" fill-opacity="1" stroke="#000" stroke-width=".334" stroke-linecap="square" stroke-linejoin="bevel" stroke-miterlimit="4" stroke-dasharray="none" stroke-dashoffset="0" stroke-opacity=".078"/><g id="g918" transform="matrix(.1838 0 0 .17162 -5.453 -3.567)" display="inline" fill="#b3b3b3" color="#000" visibility="visible" fill-rule="nonzero" stroke="none"><path style="marker:none" d="M72 108v-8h144.667v8z" id="path14979" display="inline" overflow="visible" opacity="1" fill-opacity=".996" stroke-width="3"/><path style="marker:none" d="M160 124v-8h79.333v8z" id="path4235" display="inline" overflow="visible" opacity="1" fill-opacity=".997" stroke-width="3"/><path id="rect4315" d="M72 116v64h72v-64z" style="marker:none" display="inline" overflow="visible" opacity="1" fill-opacity="1" stroke-width="3"/><path id="path4631" d="M160 140v-8h40v8z" style="marker:none" display="inline" overflow="visible" opacity="1" fill-opacity=".997" stroke-width="3"/><path style="marker:none" d="M160 155.927V148h79.333v7.927z" id="path4633" display="inline" overflow="visible" opacity="1" fill-opacity=".996" stroke-width="3"/><path id="path4635" d="M72 212v-8h168v8z" style="marker:none" display="inline" overflow="visible" opacity="1" fill-opacity=".996" stroke-width="3"/><path style="marker:none" d="M125.424 132a8.25 8.25 0 1 0 0 16.5 8.25 8.25 0 0 0 0-16.5zm-24.847 7.436L84 168h37.69l-11.016-21.112-3.105 5.95z" id="path4250" display="inline" overflow="visible" opacity="1" fill-opacity="1" stroke-width="2.25"/><path id="path4725" d="M160 171.927V164h79.333v7.927z" style="marker:none" display="inline" overflow="visible" opacity="1" fill-opacity=".996" stroke-width="3"/><path style="marker:none" d="M72 196v-7.927h168V196z" id="path4727" display="inline" overflow="visible" opacity="1" fill-opacity=".996" stroke-width="3"/><path id="path14983" d="M72 228v-8h104v8z" style="marker:none" display="inline" overflow="visible" opacity="1" fill-opacity=".996" stroke-width="3"/><path id="path14977" d="M72 92v-8h168v8z" style="marker:none" display="inline" overflow="visible" opacity="1" fill-opacity=".996" stroke-width="3"/></g><g id="g69" transform="matrix(.8867 0 0 .68926 7.628 14.199)" stroke-linejoin="bevel"><path d="M18 8a2 2 0 0 0-2 2 2 2 0 0 0 .855 1.637C15.39 16.06 12.71 23.29 10 26c0 0 4 6 4 10h10c0-4 4-10 4-10-2.71-2.71-5.387-9.93-6.85-14.361A2 2 0 0 0 22 10a2 2 0 0 0-2-2v18.27a2 2 0 1 1-2 .001V12z" id="path61" fill="url(#linearGradient530)" stroke-width="2"/><g id="g67" stroke-width="6.2"><path d="M14 36h10c.831 0 1.5.669 1.5 1.5S24.831 39 24 39H14c-.831 0-1.5-.669-1.5-1.5S13.169 36 14 36" id="path63" fill="url(#linearGradient532)"/><path d="M192.723 239.281c2.858-.194 5.685-.398 8.273-.687.523-.059.957-.153 1.469-.215V214.28h-50v25z" id="rect65" transform="matrix(.2 0 0 .2 -16.493 -3.856)" fill="url(#linearGradient534)" stroke-width="31" stroke-linecap="round"/></g></g></svg>