<svg xmlns="http://www.w3.org/2000/svg" xmlns:xlink="http://www.w3.org/1999/xlink" width="48" height="48" version="1.1" id="svg38"><defs id="defs22"><linearGradient id="linearGradient4488"><stop id="stop4490" offset="0" stop-color="#000" stop-opacity=".047"/><stop id="stop4492" offset="1" stop-color="#000" stop-opacity="0"/></linearGradient><style id="style4511"/><style id="style4511-26"/><style id="style4511-9"/><style id="style4552"/><style id="style4511-2"/><linearGradient xlink:href="#linearGradient4488" id="linearGradient4536" gradientUnits="userSpaceOnUse" gradientTransform="translate(-63.133 1.994) scale(.3038)" x1="288.112" y1="141.785" x2="287.575" y2="79.008"/><linearGradient xlink:href="#a-3675-4" id="linearGradient4467" x1="-19.809" y1="17.833" x2="51.908" y2="33.349" gradientUnits="userSpaceOnUse"/><linearGradient gradientTransform="matrix(-.99376 -.00423 .00423 .98887 47.823 2.34)" gradientUnits="userSpaceOnUse" x2="37.758" y2="39.833" x1="17.483" y1="4.716" id="a-3675-4"><stop id="stop7-3-5" stop-color="#3fc380"/><stop id="stop9-562" stop-color="#3f8ed3" offset="1"/></linearGradient></defs><style id="style4485" type="text/css"/><path id="path4508" d="M2.506 26.22v1.67c0 9.573 5.583 17.281 17.146 17.281h6.93c15.133 0 17.837-11.322 17.837-17.282v-1.668c0 5.96-2.704 17.282-17.837 17.282h-6.93c-11.563 0-17.146-7.708-17.146-17.282z" opacity="1" fill="url(#linearGradient4536)" fill-opacity="1" stroke="none" stroke-width="1.1" stroke-linecap="square" stroke-linejoin="bevel" stroke-miterlimit="4" stroke-dasharray="none" stroke-dashoffset="0" stroke-opacity=".078"/><path id="path4510" d="M19.12 2.742h8.494c13.908 0 16.805 11.247 16.805 17.282v7.124c0 5.96-2.705 17.282-17.837 17.282h-6.93c-11.563 0-17.146-7.708-17.146-17.282v-7.124c0-9.574 5.47-17.282 16.613-17.282z" opacity="1" fill="url(#linearGradient4467)" fill-opacity="1" stroke="#000" stroke-width=".334" stroke-linecap="square" stroke-linejoin="bevel" stroke-miterlimit="4" stroke-dasharray="none" stroke-dashoffset="0" stroke-opacity=".078"/><g id="g37-9-2-7" transform="translate(6.825 8.8) scale(.60263)" fill-rule="evenodd"><path d="M26.5 4l3 1s1.242 3.822 2.242 4.822C33.323 11.403 39.5 15 39.5 23c0 6-4 10-9 13 5-5 7-7 7-13 0-8-8-9-8-9v21.775c0 2.225-2.097 5.918-5.519 7.34-4.338 1.796-8.883.77-10.15-2.292-1.267-3.06 1.22-6.999 5.557-8.795 2.591-1.074 5.02-1.32 7.113-.417z" id="path35-3-5-9" fill="#fff" fill-opacity="1" stroke="#3ec14d" stroke-width="0" stroke-miterlimit="4" stroke-dasharray="none" stroke-opacity="1"/></g></svg>