<svg xmlns="http://www.w3.org/2000/svg" xmlns:xlink="http://www.w3.org/1999/xlink" width="48" height="48" version="1.1" id="svg38"><defs id="defs22"><linearGradient id="linearGradient4488"><stop id="stop4490" offset="0" stop-color="#000" stop-opacity=".047"/><stop id="stop4492" offset="1" stop-color="#000" stop-opacity="0"/></linearGradient><style id="style4511"/><style id="style4511-26"/><style id="style4511-9"/><style id="style4552"/><linearGradient id="a-3675" y1="543.8" y2="503.8" x2="0" gradientUnits="userSpaceOnUse" gradientTransform="matrix(1.125 0 0 1 -51.07 0)"><stop stop-color="#2a2c2f" id="stop2-3"/><stop offset="1" stop-color="#424649" id="stop4-56"/></linearGradient><style id="style4511-2"/><linearGradient xlink:href="#linearGradient4488" id="linearGradient4548" gradientUnits="userSpaceOnUse" gradientTransform="translate(-62.55 1.994) scale(.3038)" x1="288.112" y1="141.785" x2="287.575" y2="79.008"/><linearGradient xlink:href="#a-3675" id="linearGradient1181" x1="2.921" y1="23.586" x2="45.168" y2="23.586" gradientUnits="userSpaceOnUse"/></defs><style id="style4485" type="text/css"/><path id="path4532" d="M3.088 26.22v1.67c0 9.573 5.583 17.281 17.146 17.281h6.93c15.133 0 17.837-11.322 17.837-17.282v-1.668c0 5.96-2.704 17.282-17.837 17.282h-6.93c-11.563 0-17.146-7.708-17.146-17.282z" opacity="1" fill="url(#linearGradient4548)" fill-opacity="1" stroke="none" stroke-width="1.1" stroke-linecap="square" stroke-linejoin="bevel" stroke-miterlimit="4" stroke-dasharray="none" stroke-dashoffset="0" stroke-opacity=".078"/><path id="path4534" d="M19.701 2.742h8.495c13.908 0 16.805 11.247 16.805 17.282v7.124c0 5.96-2.704 17.282-17.837 17.282h-6.93c-11.562 0-17.146-7.708-17.146-17.282v-7.124c0-9.574 5.47-17.282 16.613-17.282z" opacity="1" fill="url(#linearGradient1181)" fill-opacity="1" stroke="#000" stroke-width=".334" stroke-linecap="square" stroke-linejoin="bevel" stroke-miterlimit="4" stroke-dasharray="none" stroke-dashoffset="0" stroke-opacity=".078"/><g id="g1210" transform="matrix(1.17827 0 0 1.16012 69.896 -3.306)"><g transform="translate(-48.192 12.402)" id="Group-21" fill="none" fill-rule="evenodd" stroke="none" stroke-width="1"><path id="Combined-Shape" d="M11.984 19.66v.01a8.062 8.062 0 0 1-3.617.853c-4.621 0-8.367-3.9-8.367-8.71C0 7 3.746 3.1 8.367 3.1c1.316 0 2.494.443 3.58 1.047a1.083 1.083 0 0 1 2.129.282v3.79a1.083 1.083 0 0 1-2.165 0v-.597c-.179-.413-.48-1.016-.813-1.348-.75-.752-1.791-1.129-2.78-1.154-3.75-.097-5.66 2.886-5.66 6.446 0 3.56 1.524 6.543 5.66 6.446.983-.023 1.82-.198 2.522-.5 1.388-.893 2.213-1.374 2.473-1.444.37-.098.599.036.935.468.173.221.468.615.197 1.058-.27.443-.647.78-1.304 1.304a7.459 7.459 0 0 1-1.157.76z" fill="#fff"/><path id="Rectangle-6" fill="#52abf2" d="M16.586 0h1.969v21.557h-1.969z"/></g></g></svg>