<svg xmlns="http://www.w3.org/2000/svg" height="48" width="48"><linearGradient id="a" gradientTransform="matrix(0 .30689 -.31235 0 46.41 -63.13)" gradientUnits="userSpaceOnUse" x1="288.112" x2="287.575" y1="141.785" y2="79.008"><stop offset="0" stop-opacity=".047"/><stop offset="1" stop-opacity="0"/></linearGradient><clipPath id="c"><path d="M188.969 44C261.617 44 272 54.357 272 126.938v58.124C272 257.644 261.617 268 188.969 268H115.03C42.383 268 32 257.643 32 185.062v-58.125C32 54.358 42.383 44 115.031 44z"/></clipPath><filter id="d" color-interpolation-filters="sRGB" height="2.62" width="2.62" x="-.81" y="-.81"><feGaussianBlur stdDeviation="2.7"/></filter><filter id="f" color-interpolation-filters="sRGB" height="1.055" width="1.042" x="-.021" y="-.028"><feGaussianBlur stdDeviation="1.768"/></filter><radialGradient id="g" cx="345.947" cy="607.442" gradientTransform="matrix(.1353 0 0 .13145 -22.982 -58.717)" gradientUnits="userSpaceOnUse" r="61.944"><stop offset="0" stop-color="#fff"/><stop offset="1" stop-color="#fff" stop-opacity="0"/></radialGradient><filter id="e" color-interpolation-filters="sRGB" height="1.097" width="1.095" x="-.047" y="-.049"><feGaussianBlur stdDeviation="2.446"/></filter><linearGradient id="b" gradientUnits="userSpaceOnUse" x1="2.781" x2="45.641" y1="24.344" y2="24.344"><stop offset="0" stop-color="#4f5065"/><stop offset="1" stop-color="#00006d"/></linearGradient><path d="M15.727 4.737v39.17" fill="#4d4d4d" stroke="#333" stroke-width="4.812"/><rect fill="#f1f1f1" fill-rule="evenodd" height="20.096" rx=".581" width="20.231" x="63.147" y="78.204"/><path d="M21.502 3.174h-1.715c-9.844 0-17.769 5.64-17.769 17.32v7.001c0 15.286 11.641 18.018 17.769 18.018h1.715c-6.127 0-17.768-2.732-17.768-18.018v-7c0-11.68 7.924-17.32 17.768-17.32z" fill="url(#a)"/><path d="M45.64 19.956v8.582c0 14.049-11.563 16.975-17.768 16.975H20.55c-6.127 0-17.768-2.732-17.768-18.018v-7c0-11.68 7.924-17.32 17.768-17.32h7.323c9.844 0 17.769 5.525 17.769 16.781z" fill="url(#b)"/><g clip-path="url(#c)" fill="#fff" transform="matrix(.17286 0 0 .16917 -2.476 -2.197)"><circle cx="98" cy="134" r="4"/><circle cx="118" cy="214" r="4"/><circle cx="178" cy="174" r="4"/><circle cx="198" cy="114" r="4"/><circle cx="98" cy="134" filter="url(#d)" r="4"/><circle cx="118" cy="214" filter="url(#d)" r="4"/><circle cx="178" cy="174" filter="url(#d)" r="4"/><circle cx="198" cy="114" filter="url(#d)" r="4"/><circle cx="65.322" cy="94.363" r="4"/><circle cx="85.322" cy="174.363" r="4"/><circle cx="145.322" cy="134.363" r="4"/><circle cx="165.322" cy="74.363" r="4"/><circle cx="65.322" cy="94.363" filter="url(#d)" r="4"/><circle cx="85.322" cy="174.363" filter="url(#d)" r="4"/><circle cx="145.322" cy="134.363" filter="url(#d)" r="4"/><circle cx="165.322" cy="74.363" filter="url(#d)" r="4"/><circle cx="138.242" cy="157.903" r="4"/><circle cx="158.242" cy="237.903" r="4"/><circle cx="218.242" cy="197.903" r="4"/><circle cx="238.242" cy="137.903" r="4"/><circle cx="138.242" cy="157.903" filter="url(#d)" r="4"/><circle cx="158.242" cy="237.903" filter="url(#d)" r="4"/><circle cx="218.242" cy="197.903" filter="url(#d)" r="4"/><circle cx="238.242" cy="137.903" filter="url(#d)" r="4"/></g><path d="M24.826 15.15a8.904 8.904 0 0 0-2.44.349 9.221 9.221 0 0 0-1.589.622 9.647 9.647 0 0 0-2.813 2.145 9.36 9.36 0 0 0-1.775 2.874 8.872 8.872 0 0 0-.449 1.576 8.43 8.43 0 0 0-.143 1.604 7.96 7.96 0 0 0 .17 1.585 7.433 7.433 0 0 0 2.42 4.119c.405.349.842.649 1.305.9.463.25.951.453 1.457.604a8.114 8.114 0 0 0 1.56.304 8.55 8.55 0 0 0 1.618 0 8.904 8.904 0 0 0 1.626-.31 9.221 9.221 0 0 0 1.59-.624 9.646 9.646 0 0 0 2.813-2.146 9.41 9.41 0 0 0 1.03-1.374 9.13 9.13 0 0 0 1.193-3.074c.1-.532.147-1.07.144-1.604a7.963 7.963 0 0 0-.17-1.586 7.435 7.435 0 0 0-2.42-4.118 7.394 7.394 0 0 0-1.306-.9 7.69 7.69 0 0 0-1.456-.604 8.115 8.115 0 0 0-2.365-.343z" fill="#aeaeae"/><path d="M334.958 573.651a64.218 64.218 0 0 0-5.95.282 65.96 65.96 0 0 0-11.907 2.237 68.044 68.044 0 0 0-11.63 4.502 70.232 70.232 0 0 0-11.005 6.8 70.258 70.258 0 0 0-9.584 8.692 68.052 68.052 0 0 0-7.547 9.93 65.943 65.943 0 0 0-5.445 10.82 63.378 63.378 0 0 0-3.284 11.375 60.116 60.116 0 0 0-1.052 11.584 56.714 56.714 0 0 0 1.242 11.45 54.149 54.149 0 0 0 3.6 10.98c1.6 3.542 3.602 6.947 6.02 10.161s5.138 6.083 8.099 8.602a54.132 54.132 0 0 0 9.552 6.497 56.715 56.715 0 0 0 10.659 4.364 60.103 60.103 0 0 0 11.422 2.196c3.896.366 7.862.366 11.838-.005a65.957 65.957 0 0 0 11.907-2.237 68.044 68.044 0 0 0 11.63-4.503 70.253 70.253 0 0 0 11.005-6.802 70.257 70.257 0 0 0 9.583-8.693 68.03 68.03 0 0 0 7.547-9.927 65.968 65.968 0 0 0 5.446-10.823 63.353 63.353 0 0 0 3.283-11.372 60.117 60.117 0 0 0 1.052-11.583 56.738 56.738 0 0 0-1.242-11.453 54.123 54.123 0 0 0-3.599-10.977 53.527 53.527 0 0 0-6.02-10.164 53.518 53.518 0 0 0-8.1-8.599c-2.96-2.518-6.164-4.688-9.552-6.5s-6.959-3.267-10.658-4.362a60.108 60.108 0 0 0-11.422-2.195 62.654 62.654 0 0 0-5.888-.276z" filter="url(#e)" opacity=".4" transform="matrix(.13663 0 0 .13848 -20.938 -64.29)"/><path d="M269.972 653.99c-28.84 26.633-45.43 48.845-40.053 55.99 7.767 10.321 58.415-14.67 113.061-55.794 54.646-41.122 92.694-82.876 84.927-93.197-5.216-6.931-29.81 2.113-61.925 21.223 1.946 1.22 3.79 2.604 5.581 4.08 18.056-9.407 31.17-13.178 34.446-8.825 6.049 8.038-23.59 40.553-66.146 72.577-42.555 32.024-81.998 51.495-88.047 43.458-3.46-4.597 4.784-17.21 20.407-33.147-.874-2.095-1.65-4.215-2.25-6.364z" fill="#e1e1e1" filter="url(#f)" transform="matrix(.13663 0 0 .13848 -20.938 -64.29)"/><path d="M22.335 16.484a8.948 8.948 0 0 0-2.416.34 9.223 9.223 0 0 0-1.573.607 9.507 9.507 0 0 0-3.807 3.428c-.293.47-.54.958-.737 1.46s-.346 1.015-.444 1.534a8.084 8.084 0 0 0-.142 1.562c.004.52.06 1.038.168 1.545a7.212 7.212 0 0 0 2.397 4.011c.4.34.834.632 1.292.876a7.7 7.7 0 0 0 1.442.589c.5.148 1.019.247 1.546.296.527.05 1.063.05 1.601 0a8.948 8.948 0 0 0 1.611-.302 9.223 9.223 0 0 0 1.574-.608 9.51 9.51 0 0 0 3.806-3.428c.294-.47.54-.959.737-1.46a8.524 8.524 0 0 0 .444-1.534 8.084 8.084 0 0 0 .142-1.562 7.633 7.633 0 0 0-.168-1.545 7.284 7.284 0 0 0-1.301-2.851 7.227 7.227 0 0 0-2.388-2.037 7.685 7.685 0 0 0-1.442-.588 8.155 8.155 0 0 0-2.342-.333z" fill="url(#g)" transform="matrix(1.00986 0 0 1.02675 2.27 -1.776)"/></svg>