<svg xmlns:osb="http://www.openswatchbook.org/uri/2009/osb" xmlns="http://www.w3.org/2000/svg" xmlns:xlink="http://www.w3.org/1999/xlink" width="48" height="48" version="1.1" id="svg38"><defs id="defs22"><linearGradient id="linearGradient4488"><stop id="stop4490" offset="0" stop-color="#000" stop-opacity=".047"/><stop id="stop4492" offset="1" stop-color="#000" stop-opacity="0"/></linearGradient><style id="style4511"/><style id="style4511-26"/><style id="style4511-9"/><style id="style4552"/><style id="style4511-2"/><linearGradient xlink:href="#linearGradient4488" id="linearGradient4540" gradientUnits="userSpaceOnUse" gradientTransform="rotate(90.216 54.465 -7.917) scale(.3038)" x1="288.112" y1="141.785" x2="287.575" y2="79.008"/><linearGradient osb:paint="solid" id="linearGradient5293"><stop id="stop5295" offset="0" stop-color="#9a89c0" stop-opacity="1"/></linearGradient><style id="style4511-87"/><style id="style4511-26-7"/><style id="style4511-9-1"/><style id="style4552-53"/><style id="style4511-2-9"/><style id="style4511-8"/><style id="style4511-26-4"/><style id="style4511-9-8"/><style id="style4552-5"/><style id="style4511-2-5"/></defs><style id="style4485" type="text/css"/><style type="text/css" id="style4485-7"/><style id="style4485-6" type="text/css"/><g id="g1643"><path d="M22.28 3.136l-1.67-.007C11.037 3.093 3.309 8.648 3.265 20.21l-.026 6.93c-.057 15.133 11.255 17.88 17.215 17.902l1.669.006c-5.96-.022-17.272-2.77-17.215-17.901l.026-6.93C4.976 8.653 12.705 3.1 22.279 3.135z" id="path4516" opacity="1" fill="url(#linearGradient4540)" fill-opacity="1" stroke="none" stroke-width="1.1" stroke-linecap="square" stroke-linejoin="bevel" stroke-miterlimit="4" stroke-dasharray="none" stroke-dashoffset="0" stroke-opacity=".078"/><path id="path4518" d="M45.695 19.837C45.737 8.694 38.05 3.195 28.476 3.16l-4.293-.016-.157 41.912 4.293.016c6.035.023 17.292-2.832 17.344-16.74z" opacity="1" fill="#4d4d4d" fill-opacity="1" stroke="#000" stroke-width=".334" stroke-linecap="square" stroke-linejoin="bevel" stroke-miterlimit="4" stroke-dasharray="none" stroke-dashoffset="0" stroke-opacity=".078"/><path id="path4518-7" d="M2.548 28.39c-.027 11.142 7.667 16.631 17.24 16.655l4.294.01.101-41.912-4.293-.01C13.855 3.118 2.602 5.988 2.568 19.895z" opacity="1" fill="#4d4d4d" fill-opacity="1" stroke="#000" stroke-width=".334" stroke-linecap="square" stroke-linejoin="bevel" stroke-miterlimit="4" stroke-dasharray="none" stroke-dashoffset="0" stroke-opacity=".078"/><g id="g748" fill="#cecbbc" fill-opacity="1"><path d="M19.89 3.133C13.855 3.12 2.602 5.987 2.568 19.895l-.012 5.02h21.575l.052-21.772z" id="path4518-7-6" opacity="1" fill="#cecbbc" fill-opacity="1" stroke="#000" stroke-width=".334" stroke-linecap="square" stroke-linejoin="bevel" stroke-miterlimit="4" stroke-dasharray="none" stroke-dashoffset="0" stroke-opacity=".078"/></g><path id="path4518-7-6-7" d="M28.371 45.056C34.41 45.05 45.66 42.343 45.644 29.4l-.006-4.672-21.587.072.024 20.262z" opacity="1" fill="#cecbbc" fill-opacity="1" stroke="#000" stroke-width=".322" stroke-linecap="square" stroke-linejoin="bevel" stroke-miterlimit="4" stroke-dasharray="none" stroke-dashoffset="0" stroke-opacity=".078"/><path id="path774" d="M38.104 38.64c-.002-.113.07-1.064-1.31-1.702 0 0-1.708-.634-1.37-3.796.775-.152 1.397-.44 1.397-.76 0-.334-.603-.589-1.432-.735 0-.04.004-.376-.006-.384 1.028-.394 1.73-1.136 1.73-1.996 0-1.27-1.513-2.3-3.38-2.3-1.868 0-3.381 1.03-3.381 2.3 0 .863.707 1.606 1.74 2-.012 0 .011.29.011.328-.845.145-1.488.45-1.488.787 0 .324.609.596 1.397.746.313 3.186-1.336 3.81-1.336 3.81-1.38.638-1.307 1.588-1.31 1.7-.524.012-.946.404-.946.89v.446c0 .246.216.446.483.446h9.659c.267 0 .483-.2.483-.446v-.446c0-.485-.42-.875-.94-.888z" fill="#fff" stroke-width=".928"/><path id="path776" d="M18.493 19.559c0-.502-.415-1.022-.927-1.022h-.116c-.927-2.215-.7-6.389-.7-6.389.439-.072.777.03.777-.878h.039c.512 0 .927-.18.927-.681V8.545h-1.854v.908h-.927v-.908h-3.709v.908h-.927v-.908H9.222v2.044c0 .501.415.681.927.681h.04c0 .908.775.878.775.878s.547 3.65-.699 6.389h-.116c-.512 0-.927.52-.927 1.022-.512 0-.927.52-.927 1.021v1.363c0 .25.208.227.464.227h10.197c.256 0 .464.024.464-.227V20.58c0-.5-.415-1.021-.927-1.021zm-.927.348a.45.45 0 0 1-.455.446h-6.508a.45.45 0 0 1-.454-.446v-.017a.45.45 0 0 1 .455-.445h6.508c.25 0 .454.2.454.446zm-1.854-7.274a.46.46 0 0 1-.464.454h-2.781a.46.46 0 0 1-.464-.454.46.46 0 0 1 .464-.455h2.781a.46.46 0 0 1 .464.455z" fill="#3e3a39" stroke-width=".918"/></g></svg>