<svg xmlns="http://www.w3.org/2000/svg" xmlns:xlink="http://www.w3.org/1999/xlink" width="48" height="48" version="1.1" id="svg38"><defs id="defs22"><linearGradient id="linearGradient4488"><stop id="stop4490" offset="0" stop-color="#000" stop-opacity=".047"/><stop id="stop4492" offset="1" stop-color="#000" stop-opacity="0"/></linearGradient><style id="style4511"/><style id="style4511-26"/><style id="style4511-9"/><style id="style4552"/><style id="style4511-2"/><linearGradient gradientTransform="matrix(.31327 0 0 .3038 -65.252 2.216)" xlink:href="#linearGradient4488" id="linearGradient4160" x1="288.112" y1="141.785" x2="287.575" y2="79.008" gradientUnits="userSpaceOnUse"/><linearGradient gradientTransform="rotate(-90 -3.537 54.759)" gradientUnits="userSpaceOnUse" x2="47" x1="1" id="linearGradient3764"><stop id="stop362" stop-color="#e4e4e4" stop-opacity="1"/><stop id="stop364" offset="1" stop-color="#eee" stop-opacity="1"/></linearGradient><linearGradient xlink:href="#linearGradient3764" id="linearGradient1296" x1="2.264" y1="23.808" x2="45.822" y2="23.808" gradientUnits="userSpaceOnUse"/></defs><style id="style4485" type="text/css"/><path d="M2.433 26.443v1.668c0 9.575 5.758 17.282 17.68 17.282h7.147c15.604 0 18.393-11.322 18.393-17.282v-1.668c0 5.96-2.789 17.282-18.393 17.282h-7.146c-11.923 0-17.68-7.708-17.68-17.282z" id="path4147" opacity="1" fill="url(#linearGradient4160)" fill-opacity="1" stroke="none" stroke-width="1.117" stroke-linecap="square" stroke-linejoin="bevel" stroke-miterlimit="4" stroke-dasharray="none" stroke-dashoffset="0" stroke-opacity=".078"/><path d="M19.564 2.965h8.76c14.342 0 17.329 11.246 17.329 17.282v7.123c0 5.96-2.789 17.282-18.393 17.282h-7.146c-11.923 0-17.68-7.708-17.68-17.282v-7.123c0-9.575 5.64-17.282 17.13-17.282z" id="rect4144" opacity="1" fill="url(#linearGradient1296)" fill-opacity="1" stroke="#000" stroke-width=".339" stroke-linecap="square" stroke-linejoin="bevel" stroke-miterlimit="4" stroke-dasharray="none" stroke-dashoffset="0" stroke-opacity=".078"/><g id="g1215" transform="matrix(.75021 0 0 .7048 6.04 6.886)"><g id="g1213"><path id="polygon1169" fill="#e83828" d="M26.002 40.008l-.004-.001v.001z"/><g id="g1173"><path id="path1171" d="M38.222 11.433c0-1.596.74-3.005 1.879-3.951a4.741 4.741 0 0 0-3.146-1.207H17.374a4.777 4.777 0 0 0-4.776 4.776v.581a4.777 4.777 0 0 0 4.776 4.776h19.581a4.724 4.724 0 0 0 3.033-1.116c-1.075-.945-1.766-2.316-1.766-3.859z" fill="#e3cc92"/></g><g id="g1177"><path id="path1175" d="M38.233 11.341H12.598v.291a4.777 4.777 0 0 0 4.776 4.776h19.581a4.724 4.724 0 0 0 3.033-1.116c-1.075-.945-1.766-2.316-1.766-3.859 0-.033.01-.061.011-.092z" fill="#ebddb7"/></g><g id="g1181"><path id="path1179" d="M38.222 36.766c0-1.596.74-3.005 1.879-3.951a4.741 4.741 0 0 0-3.146-1.207H17.374a4.777 4.777 0 0 0-4.776 4.776v.581a4.777 4.777 0 0 0 4.776 4.776h19.581a4.724 4.724 0 0 0 3.033-1.116c-1.075-.945-1.766-2.315-1.766-3.859z" fill="#e3cc92"/></g><g id="g1185"><path id="path1183" d="M38.233 36.674H12.598v.291a4.777 4.777 0 0 0 4.776 4.776h19.581a4.724 4.724 0 0 0 3.033-1.116c-1.075-.945-1.766-2.316-1.766-3.859 0-.032.01-.061.011-.092z" fill="#ebddb7"/></g><path id="path1187" d="M36.16 5.008H10.569c-3.077 0-5.571 2.678-5.571 6.129v.204h21.533v-.107c0-1.936 1.4-3.694 3.127-3.694h13.34V5.008z" fill="#8fc31f"/><path id="path1189" d="M25.264 36.629c0-1.919 1.4-3.754 3.127-3.754h14.607v-2.533H10.569c-3.077 0-5.571 2.772-5.571 6.19v.288c0 3.418 2.494 6.19 5.571 6.19h32.429v-2.533H28.391c-1.727 0-3.127-1.836-3.127-3.754v-.046z" fill="#2ea7e0"/><path id="path1191" d="M40.822 15.141H29.658c-1.723 0-3.12-1.869-3.126-3.8H4.998v.084c0 3.451 2.494 6.249 5.571 6.249h32.429v-2.533z" fill="#00913a"/><path id="path1193" d="M16.738 11.341H12.82c0 3.588 1.794 6.273 3.132 6.333.135.006 4.897 0 4.897 0-2.272 0-4.111-2.835-4.111-6.333z" fill="#d21c32"/><path id="path1195" d="M20.85 5.008h-3.917c-2.271 0-4.112 2.835-4.112 6.333h3.918c-.001-3.498 1.838-6.333 4.111-6.333z" fill="#e44537"/><g id="g1199"><path id="path1197" d="M38.222 24.099c0-1.596.74-3.005 1.879-3.951a4.741 4.741 0 0 0-3.146-1.207H17.374a4.777 4.777 0 0 0-4.776 4.776v.581a4.777 4.777 0 0 0 4.776 4.776h19.581a4.724 4.724 0 0 0 3.033-1.116c-1.075-.944-1.766-2.315-1.766-3.859z" fill="#e3cc92"/></g><g id="g1203"><path id="path1201" d="M38.233 24.008H12.598v.291a4.777 4.777 0 0 0 4.776 4.776h19.581a4.724 4.724 0 0 0 3.033-1.116c-1.075-.945-1.766-2.316-1.766-3.859 0-.033.01-.061.011-.092z" fill="#ebddb7"/></g><path id="path1205" d="M36.16 17.674H10.569c-3.077 0-5.571 2.678-5.571 6.129v.204h21.533V23.9c0-1.936 1.4-3.694 3.127-3.694h13.34v-2.533H36.16z" fill="#ff8e12"/><path id="path1207" d="M40.822 27.808H29.658c-1.723 0-3.12-1.869-3.126-3.8H4.998v.084c0 3.451 2.494 6.249 5.571 6.249h32.429v-2.533z" fill="#ea5514"/><path id="path1209" d="M40.822 40.474H29.658c-3.028 0-4.386-1.869-4.393-3.8H4.998v.084c0 3.451 2.494 6.249 5.571 6.249h32.429v-2.533z" fill="#036eb8"/><path id="path1211" d="M29.78 38.243a4.92 4.92 0 0 1-.672 2.511c.74-.158 1.618-.861 2.207-1.604 0 0 .576.719.756 1.436.385-.654.484-1.255.484-2.275 0-3.052-1.479-3.31-1.479-3.31h-3.234c1.037-.001 1.938 1.245 1.938 3.242z" fill="#e44537"/></g></g></svg>