<svg xmlns="http://www.w3.org/2000/svg" xmlns:xlink="http://www.w3.org/1999/xlink" width="48" height="48" version="1.1" id="svg38"><defs id="defs22"><linearGradient id="linearGradient4801"><stop offset="0" id="stop4804" stop-color="#000" stop-opacity=".188"/><stop offset="1" id="stop4806" stop-color="#000" stop-opacity="0"/></linearGradient><style id="style4511"/><style id="style4511-26"/><style id="style4511-9"/><style id="style4552"/><style id="style4511-2"/><style id="style4552-7"/><style id="style4552-6"/><style id="current-color-scheme" type="text/css"/><linearGradient id="linearGradient4185"><stop offset="0" id="stop4187" stop-color="#f2f6f7" stop-opacity="1"/><stop offset="1" id="stop4189" stop-color="#ecf0f1" stop-opacity="1"/></linearGradient><linearGradient y2="514.798" x2="408.571" y1="531.798" x1="408.571" gradientTransform="translate(-403.092 -524.545) scale(1.04032)" gradientUnits="userSpaceOnUse" id="linearGradient5005-0" xlink:href="#linearGradient4185"/><linearGradient xlink:href="#linearGradient4801" id="linearGradient4809" x1="65.187" y1="13.276" x2="78.126" y2="18.682" gradientUnits="userSpaceOnUse" gradientTransform="translate(-65.208 -3.452)"/><linearGradient gradientTransform="translate(-49.045 16.841)" xlink:href="#linearGradient4801" id="linearGradient4809-2" x1="65.187" y1="13.276" x2="78.126" y2="18.682" gradientUnits="userSpaceOnUse"/><linearGradient gradientTransform="translate(-41.684 -1.952)" xlink:href="#linearGradient4801" id="linearGradient4809-0" x1="61.62" y1="20.063" x2="79.531" y2="18.159" gradientUnits="userSpaceOnUse"/><linearGradient xlink:href="#linearGradient4801" id="linearGradient4471-6" gradientUnits="userSpaceOnUse" gradientTransform="translate(-62.32 2.297) scale(.3038)" x1="288.112" y1="141.785" x2="287.575" y2="79.008"/></defs><style id="style4485" type="text/css"/><style type="text/css" id="style4485-4"/><style type="text/css" id="style4485-5"/><g id="g4744" transform="translate(-54.954 3.842)" stroke="#000" stroke-opacity="1"><g id="g4879" transform="translate(-253.33 -404.317) scale(.81129)" display="inline"><g id="g4917"><path id="path4881" d="M404.561 497.592c-8.913 0-14.856 4.018-17.947 10.054l-.008-.008c-.035.069-.064.14-.098.21-.04.078-.083.152-.12.23l.007.01c-1.527 3.168-2.312 6.848-2.312 10.805v8.78c0 11.801 6.883 21.303 21.135 21.303h8.542c.526 0 1.036-.014 1.538-.036l.02-.002c.439-.02.864-.05 1.285-.085.053-.004.109-.007.161-.012 16.008-1.423 18.98-14.236 18.98-21.168v-8.78c0-1.53-.167-3.338-.558-5.234h.005c-.02-.099-.048-.201-.07-.3a25.264 25.264 0 0 0-.243-1.034c-.08-.306-.174-.615-.267-.924-.105-.346-.219-.69-.342-1.038a22.77 22.77 0 0 0-.404-1.078c-.079-.19-.166-.379-.25-.568a21.14 21.14 0 0 0-.762-1.544 19.562 19.562 0 0 0-.765-1.278c-.043-.066-.076-.136-.12-.202h-.008c-3.008-4.507-8.202-8.1-16.929-8.1h-10.47z" display="inline" opacity="1" fill="none" fill-opacity="1" fill-rule="evenodd" stroke="#000" stroke-width=".243" stroke-linecap="butt" stroke-linejoin="miter" stroke-opacity=".447" stroke-miterlimit="4" stroke-dasharray="none"/></g></g></g><path d="M3.318 26.524v1.668c0 9.574 5.583 17.282 17.146 17.282h6.93c15.133 0 17.837-11.322 17.837-17.282v-1.668c0 5.96-2.704 17.282-17.837 17.282h-6.93c-11.563 0-17.146-7.708-17.146-17.282z" id="path4467-1" opacity="1" fill="url(#linearGradient4471-6)" fill-opacity="1" stroke="none" stroke-width="1.1" stroke-linecap="square" stroke-linejoin="bevel" stroke-miterlimit="4" stroke-dasharray="none" stroke-dashoffset="0" stroke-opacity=".078"/><g id="g4928" transform="translate(.454 .574)"><g id="g3427-4-8-3" transform="translate(-308.739 -401.048) scale(.81129)" display="inline"><path transform="translate(300.178 490.08) scale(1.2326)" id="path4217-0-7-6-5" d="M70.12 14.244c-1.358 2.649-2.048 5.77-2.048 9.131v7.123c0 9.574 5.584 17.283 17.147 17.283h6.93c.853 0 1.66-.04 2.437-.11l6.074-12.442-17.918-6.334-12.623-14.65z" display="inline" opacity="1" fill="#669df7" fill-opacity="1" fill-rule="evenodd" stroke="none" stroke-width="1.597" stroke-linecap="butt" stroke-linejoin="miter" stroke-opacity="1"/><path id="path4209-3-0-0-6" transform="translate(300.178 490.08) scale(1.2326)" d="M91.428 12.666l4.5 20.063-7.711 15.052h3.931c15.133 0 17.836-11.323 17.836-17.283v-7.123c0-2.964-.706-7.18-3.064-10.709H91.428z" display="inline" fill="#99b7f1" fill-opacity="1" fill-rule="evenodd" stroke="none" stroke-width="1.597" stroke-linecap="butt" stroke-linejoin="miter" stroke-opacity="1"/><g id="g3441-9-4-6-2" transform="translate(-241.463 -313.379) scale(1.59706)" display="inline"><path id="path4219-9-0-6-1" transform="translate(339.148 503.086) scale(.7718)" d="M84.686 6.094c-7.406 0-12.29 3.414-14.745 8.508l11.727 15.767 14.6 2.713-4.846-14.018 18.113.065c-1.219-5.944-5.308-13.035-16.355-13.035h-8.494z" fill="#406dd3" fill-opacity="1" fill-rule="evenodd" stroke="none" stroke-width="1.296" stroke-linecap="butt" stroke-linejoin="miter" stroke-opacity="1"/></g></g><path id="rect4211-3-6-8-6" d="M21.952 11.008a9.342 9.342 0 0 1 9.363 9.363 9.342 9.342 0 0 1-9.363 9.363 9.342 9.342 0 0 1-9.363-9.363 9.342 9.342 0 0 1 9.363-9.363z" transform="translate(1.83 3.269)" display="inline" opacity="1" fill="url(#linearGradient5005-0)" fill-opacity="1" stroke="none" stroke-width=".916"/><path id="rect4213-8-1-7-1" d="M21.952 12.586a7.768 7.768 0 0 1 7.785 7.785 7.768 7.768 0 0 1-7.785 7.785 7.768 7.768 0 0 1-7.785-7.785 7.768 7.768 0 0 1 7.785-7.785z" transform="translate(1.83 3.269)" display="inline" opacity="1" fill="#4c8cf6" fill-opacity="1" stroke="none" stroke-width=".916"/><path id="path4779" d="M4.746 11.124l6.113 8.263 2.974-4.037z" fill="url(#linearGradient4809)" fill-opacity="1" fill-rule="evenodd" stroke="none" stroke-width="1" stroke-linecap="butt" stroke-linejoin="miter" stroke-opacity="1"/><path id="path4779-7" d="M23.46 43.448l5.934-11.583-3.944 1.154z" fill="url(#linearGradient4809-2)" fill-opacity="1" fill-rule="evenodd" stroke="none" stroke-width="1" stroke-linecap="butt" stroke-linejoin="miter" stroke-opacity="1"/><path id="path4779-0" d="M38.726 15.664l-10.081-.036 1.559 1.185.746.79.528.688.806 1.358z" fill="url(#linearGradient4809-0)" fill-opacity="1" fill-rule="evenodd" stroke="none" stroke-width="1" stroke-linecap="butt" stroke-linejoin="miter" stroke-opacity="1"/></g></svg>