<svg xmlns:osb="http://www.openswatchbook.org/uri/2009/osb" xmlns="http://www.w3.org/2000/svg" xmlns:xlink="http://www.w3.org/1999/xlink" width="48" height="48" version="1.1" id="svg38"><defs id="defs22"><style id="style4511"/><style id="style4511-26"/><style id="style4511-9"/><linearGradient id="linearGradient4214"><stop offset="0" id="stop41" stop-color="#2f74c8" stop-opacity="1"/><stop offset="1" id="stop43" stop-color="#4699d7" stop-opacity="1"/></linearGradient><style id="style4552"/><style id="style4511-2"/><clipPath id="SVGID_6_-20" clip-path="url(#SVGID_5_)"><use xlink:href="#SVGID_4_" overflow="visible" id="use26-2" x="0" y="0" width="100%" height="100%"/></clipPath><linearGradient id="SVGID_11_-3" gradientUnits="userSpaceOnUse" x1="67.374" y1="82.338" x2="67.374" y2="49.164"><stop offset="0" id="stop125-6" stop-color="#c8c8c8"/><stop offset=".063" id="stop127-1" stop-color="#bfbfbf"/><stop offset=".316" id="stop129-2" stop-color="#a0a0a0"/><stop offset=".561" id="stop131-9" stop-color="#898989"/><stop offset=".793" id="stop133-3" stop-color="#7c7c7c"/><stop offset="1" id="stop135-19" stop-color="#777"/></linearGradient><linearGradient xlink:href="#linearGradient4227-2" id="linearGradient1384" gradientUnits="userSpaceOnUse" x1="2.264" y1="23.952" x2="45.629" y2="23.952"/><linearGradient osb:paint="gradient" id="linearGradient4207-3"><stop id="stop3371" offset="0" stop-color="#3498db" stop-opacity="1"/><stop id="stop3373" offset="1" stop-color="#3498db" stop-opacity="0"/></linearGradient><linearGradient id="linearGradient4227-2"><stop offset="0" id="stop4229-9" stop-color="#566069" stop-opacity="1"/><stop offset="1" id="stop4231-4" stop-color="#6c7884" stop-opacity="1"/></linearGradient><style id="style4511-8"/><style id="style4511-26-4"/><style id="style4511-9-8"/><style id="style4552-9"/><style id="style4511-2-4"/><radialGradient xlink:href="#linearGradient4214" id="radialGradient1677" cx="24.162" cy="23.835" fx="24.162" fy="23.835" r="17.657" gradientTransform="matrix(1 0 0 .95031 0 1.184)" gradientUnits="userSpaceOnUse"/></defs><style id="style4485" type="text/css"/><g clip-path="url(#SVGID_6_-20)" id="g98" transform="matrix(.06034 .06406 -.06158 .06277 -25.328 20.285)"><g id="g96" opacity=".1"><path d="M67.375 52.718c7.197 0 13.033 5.835 13.033 13.033 0 7.198-5.835 13.033-13.033 13.033-7.198 0-13.033-5.835-13.033-13.033 0-7.198 5.835-13.033 13.033-13.033m0-10.664c-13.066 0-23.696 10.63-23.696 23.696s10.63 23.696 23.696 23.696 23.696-10.63 23.696-23.696-10.63-23.696-23.696-23.696z" id="path94"/></g></g><g clip-path="url(#SVGID_6_-20)" id="g142" transform="matrix(.06034 .06406 -.06158 .06277 -25.328 20.285)"><path d="M67.375 55.888c5.447 0 9.862 4.416 9.862 9.862s-4.415 9.863-9.862 9.863-9.863-4.417-9.863-9.863 4.415-9.862 9.863-9.862m0-6.724c-9.146 0-16.587 7.441-16.587 16.587 0 9.145 7.441 16.587 16.587 16.587s16.587-7.442 16.587-16.587c-.001-9.146-7.442-16.587-16.587-16.587z" id="path123" fill="#e9e6dd"/><g id="g140"><linearGradient id="linearGradient1618" gradientUnits="userSpaceOnUse" x1="67.374" y1="82.338" x2="67.374" y2="49.164"><stop offset="0" id="stop1606" stop-color="#c8c8c8"/><stop offset=".063" id="stop1608" stop-color="#bfbfbf"/><stop offset=".316" id="stop1610" stop-color="#a0a0a0"/><stop offset=".561" id="stop1612" stop-color="#898989"/><stop offset=".793" id="stop1614" stop-color="#7c7c7c"/><stop offset="1" id="stop1616" stop-color="#777"/></linearGradient><path d="M67.375 55.888c5.447 0 9.862 4.416 9.862 9.862s-4.415 9.863-9.862 9.863-9.863-4.417-9.863-9.863 4.415-9.862 9.863-9.862m0-6.724c-9.146 0-16.587 7.441-16.587 16.587 0 9.145 7.441 16.587 16.587 16.587s16.587-7.442 16.587-16.587c-.001-9.146-7.442-16.587-16.587-16.587z" id="path138" fill="url(#SVGID_11_-3)"/></g></g><flowRoot xml:space="preserve" id="flowRoot55" style="line-height:1.25" transform="translate(-80.67 -1.748)" font-style="normal" font-weight="400" font-size="5.333" font-family="sans-serif" letter-spacing="0" word-spacing="0" fill="#333" fill-opacity="1" stroke="none"><flowRegion id="flowRegion57" fill="#333"><path id="rect59" fill="#333" d="M-28.332 10.176h24.018v19.415h-24.018z"/></flowRegion><flowPara id="flowPara61"/></flowRoot><flowRoot xml:space="preserve" id="flowRoot926" style="line-height:1.25" transform="translate(-80.67 -1.748)" font-style="normal" font-weight="400" font-size="5.333" font-family="sans-serif" letter-spacing="0" word-spacing="0" fill="#000" fill-opacity="1" stroke="none"><flowRegion id="flowRegion928"><path id="rect930" d="M-52.373 9.458h31.22v24.407h-31.22z"/></flowRegion><flowPara id="flowPara932"/></flowRoot><path id="rect4144" d="M19.488 3.108h8.72c14.278 0 17.252 11.247 17.252 17.282v7.124c0 5.96-2.776 17.282-18.31 17.282h-7.115c-11.87 0-17.602-7.708-17.602-17.282V20.39c0-9.574 5.616-17.282 17.055-17.282z" opacity="1" fill="url(#linearGradient1384)" fill-opacity="1" stroke="#000" stroke-width=".339" stroke-linecap="square" stroke-linejoin="bevel" stroke-miterlimit="4" stroke-dasharray="none" stroke-dashoffset="0" stroke-opacity=".078"/><path d="M41.819 23.835c0-15.489-5.885-16.78-17.657-16.78-11.77 0-17.656 1.291-17.656 16.78s5.885 16.779 17.656 16.779c11.772 0 17.657-1.29 17.657-16.78z" id="path173" fill="url(#radialGradient1677)" fill-opacity="1" stroke-width=".907"/><style type="text/css" id="style4485-4"/><g id="g1703" transform="matrix(.47164 0 0 .47725 41.223 14.605)"><path d="M-26.13 19.524c0 5.516-4.465 9.99-9.969 9.99s-9.969-4.474-9.969-9.99 4.465-9.991 9.97-9.991c5.503 0 9.968 4.475 9.968 9.99m0 0" id="path26" fill="#f9f9f9" fill-opacity="1" fill-rule="nonzero" stroke="none" stroke-width="1.001"/><path d="M-28.099 19.524c0 4.428-3.582 8.018-8 8.018s-8-3.59-8-8.018c0-4.428 3.582-8.018 8-8.018s8 3.59 8 8.018m0 0" id="path28" fill="#209cc8" fill-opacity="1" fill-rule="nonzero" stroke="none" stroke-width="1.001"/><path d="M-28.126 19.524c0 4.412-3.57 7.99-7.973 7.99-4.402 0-7.973-3.577-7.973-7.99 0-4.412 3.57-7.99 7.973-7.99 4.402 0 7.973 3.577 7.973 7.99m0 0" id="path30" fill="#209dc8" fill-opacity="1" fill-rule="nonzero" stroke="none" stroke-width="1.001"/><path d="M-30.536 12.508c1.027.826 1.973 1.903 2.563 3.101.586 1.19.875 2.526.875 3.947a8.996 8.996 0 0 1-.688 3.508 9.093 9.093 0 0 1-1.938 2.881c-.813.818-2.075 1.563-3.149 2.024-.879.372-1.365.495-2.358.577l-7.71 12.997a22.976 22.976 0 0 0 6.843 1.034c12.703 0 23-10.32 23-23.051a23.07 23.07 0 0 0-1.094-7.016z" id="path32" fill="#fdd20a" fill-opacity="1" fill-rule="nonzero" stroke="none" stroke-width="1.001"/><path d="M-51.818 2.708c-4.478 4.206-7.28 10.182-7.28 16.818 0 10.985 7.673 20.174 17.937 22.487l8.313-14.06c-1.227.478-2.52.712-3.844.626-1.324-.086-2.649-.51-3.875-1.222a8.951 8.951 0 0 1-2.688-2.349 9.215 9.215 0 0 1-1.53-3.132 9.038 9.038 0 0 1-.25-3.446c.116-.947.504-1.825.937-2.725h.031l-7.75-12.997z" id="path34" fill="#4db749" fill-opacity="1" fill-rule="nonzero" stroke="none" stroke-width="1.001"/><path d="M-36.099-3.527a22.923 22.923 0 0 0-17.06 7.58l8.188 14.12a9.152 9.152 0 0 1 1.406-3.663 8.867 8.867 0 0 1 2.97-2.756c1.077-.627 2.214-1.019 3.374-1.159a9.062 9.062 0 0 1 3.47.25 8.892 8.892 0 0 1 3.093 1.504c.762.571 1.348 1.366 1.906 2.193l15.09-.031C-15.949 4.195-25.118-3.53-36.1-3.53z" id="path36" fill="#df2228" fill-opacity="1" fill-rule="nonzero" stroke="none" stroke-width="1.001"/><path d="M-28.099 20.526c0 3.876-3.133 7.016-7 7.016s-7-3.14-7-7.016c0-3.875 3.133-7.015 7-7.015s7 3.14 7 7.015m0 0" id="SVGCleanerId_0" opacity=".1" fill="#000" fill-opacity="1" fill-rule="nonzero" stroke="none" stroke-width="1.001"/><path d="M-27.099 19.524c0 4.984-4.03 9.02-9 9.02-4.969 0-9-4.04-9-9.02 0-4.98 4.03-9.02 9-9.02 4.973 0 9 4.039 9 9.02m0 0" id="path39" fill="#f9f9f9" fill-opacity="1" fill-rule="nonzero" stroke="none" stroke-width="1.001"/><use height="100%" width="100%" y="0" x="0" xlink:href="#SVGCleanerId_0" id="use41"/><path d="M-29.099 19.524c0 3.875-3.133 7.015-7 7.015s-7-3.14-7-7.015c0-3.876 3.133-7.016 7-7.016s7 3.14 7 7.016m0 0" id="path43" fill="#3d7de5" fill-opacity="1" fill-rule="nonzero" stroke="none" stroke-width="1.001"/><path d="M-36.099 10.504c-4.97 0-9 4.039-9 9.02a8.999 8.999 0 0 0 3.094 6.796 8.371 8.371 0 0 1-.25-.314 9.289 9.289 0 0 1-1.53-3.132 9.03 9.03 0 0 1-.25-3.445c.012-.107.041-.208.062-.314l.031.009c.04-.254.097-.449.156-.698.191-.579.393-1.3.665-1.867l-.009.02c.177-.37.365-.722.594-1.066a8.86 8.86 0 0 1 2.97-2.756c1.077-.622 2.214-1.018 3.374-1.159a9.068 9.068 0 0 1 3.47.25 9.034 9.034 0 0 1 3.093 1.504c.136.103.25.229.375.345-1.65-1.946-4.096-3.195-6.844-3.195z" id="path49" opacity=".1" fill="#000" fill-opacity="1" fill-rule="nonzero" stroke="none" stroke-width="1.001"/></g></svg>