<svg xmlns:osb="http://www.openswatchbook.org/uri/2009/osb" xmlns="http://www.w3.org/2000/svg" xmlns:xlink="http://www.w3.org/1999/xlink" width="48" height="48" version="1.1" id="svg38"><defs id="defs22"><linearGradient id="linearGradient4488"><stop id="stop4490" offset="0" stop-color="#000" stop-opacity=".047"/><stop id="stop4492" offset="1" stop-color="#000" stop-opacity="0"/></linearGradient><style id="style4511"/><style id="style4511-26"/><style id="style4511-9"/><style id="style4552"/><style id="style4511-2"/><linearGradient xlink:href="#linearGradient4488" id="linearGradient4540" gradientUnits="userSpaceOnUse" gradientTransform="translate(-62.889 1.994) scale(.3038)" x1="288.112" y1="141.785" x2="287.575" y2="79.008"/><linearGradient osb:paint="solid" id="linearGradient5293"><stop id="stop5295" offset="0" stop-color="#9a89c0" stop-opacity="1"/></linearGradient></defs><style id="style4485" type="text/css"/><path id="path4516" d="M2.75 26.22v1.67c0 9.573 5.583 17.281 17.146 17.281h6.93c15.132 0 17.836-11.322 17.836-17.282v-1.668c0 5.96-2.704 17.282-17.836 17.282h-6.93C8.333 43.503 2.75 35.795 2.75 26.22z" opacity="1" fill="url(#linearGradient4540)" fill-opacity="1" stroke="none" stroke-width="1.1" stroke-linecap="square" stroke-linejoin="bevel" stroke-miterlimit="4" stroke-dasharray="none" stroke-dashoffset="0" stroke-opacity=".078"/><path id="path4518" d="M19.65 3.605h8.496c13.907 0 16.804 11.247 16.804 17.282v7.123c0 5.96-2.704 17.283-17.836 17.283h-6.93c-11.563 0-17.146-7.708-17.146-17.283v-7.123c0-9.574 5.47-17.282 16.613-17.282z" opacity="1" fill="#4d4d4d" fill-opacity="1" stroke="#000" stroke-width=".334" stroke-linecap="square" stroke-linejoin="bevel" stroke-miterlimit="4" stroke-dasharray="none" stroke-dashoffset="0" stroke-opacity=".078"/><g id="g518" transform="matrix(1.1799 0 0 1.04767 -4.526 -2.11)" stroke="none"><g id="g496" transform="matrix(.65 0 0 .65 11 5.8)"><g id="g494" transform="translate(1.15)" fill-opacity="1" fill-rule="nonzero" stroke-width="1" stroke-miterlimit="4" stroke-dasharray="none" stroke-opacity="1"><path id="path486" d="M8.849 8h10v40h-10z" opacity="1" fill="#f67152"/><path id="path488" d="M8.849 8v40H5.134c-3.481.011-6.274-2.782-6.285-6.285v-27.43A6.26 6.26 0 0 1 5.134 8z" opacity="1" fill="#d14e40"/><path id="path490" d="M18.849 8h10v40h-10z" opacity="1" fill="#fca069"/><path id="path492" d="M28.849 8v40h3.715c3.481.011 6.274-2.782 6.285-6.285v-27.43A6.26 6.26 0 0 0 32.564 8z" opacity="1" fill="#fbc77c"/></g></g><g id="g506" transform="matrix(3.69292 0 0 3.59324 -.464 1.507)" opacity=".1" fill="#000" fill-opacity="1" fill-rule="nonzero"><path id="path498" transform="matrix(.18344 0 0 .15522 3.316 2.427)" d="M5 48c-3.064-.007-6.145-2.536-6.154-6.285v-.987c3.4.007 6.17 2.909 6.154 7.273z" opacity="1" stroke-width="1" stroke-miterlimit="4" stroke-dasharray="none" stroke-opacity="1"/><g id="g504" transform="translate(.282 1.035) scale(.24375)"><path id="path500" d="M75.65 7.661h-4c0 9.94-8.06 18-18 18v4c12.15 0 22-9.85 22-22z" transform="rotate(-90 41.134 35.287) scale(.74832)"/><path id="path502" d="M67.65 7.661h-4c0 5.52-4.48 10-10 10v4c7.73 0 14-6.27 14-14z" transform="rotate(-90 41.134 35.287) scale(.74832)"/></g></g><g id="g516" transform="translate(0 2) scale(3.5433)" fill="#fff" fill-opacity="1" fill-rule="nonzero"><path id="path508" transform="matrix(.18344 0 0 .15522 3.316 2.427)" d="M5 48c-3.064-.007-6.145-2.536-6.154-6.285v-.987c3.4.007 6.17 2.909 6.154 7.273z" opacity="1"/><g id="g514" transform="translate(.282 1.035) scale(.24375)"><path id="path510" d="M75.65 7.661h-4c0 9.94-8.06 18-18 18v4c12.15 0 22-9.85 22-22z" transform="rotate(-90 41.134 35.287) scale(.74832)"/><path id="path512" d="M67.65 7.661h-4c0 5.52-4.48 10-10 10v4c7.73 0 14-6.27 14-14z" transform="rotate(-90 41.134 35.287) scale(.74832)"/></g></g></g><ellipse id="circle520" cx="24.103" cy="39.843" rx="1.73" ry="1.656" opacity="1" fill="#fff" fill-opacity="1" fill-rule="evenodd" stroke="none" stroke-width="1.231"/></svg>