<svg xmlns:osb="http://www.openswatchbook.org/uri/2009/osb" xmlns="http://www.w3.org/2000/svg" xmlns:xlink="http://www.w3.org/1999/xlink" width="48" height="48" version="1.1" id="svg38"><defs id="defs22"><linearGradient id="linearGradient4488"><stop id="stop4490" offset="0" stop-color="#000" stop-opacity=".047"/><stop id="stop4492" offset="1" stop-color="#000" stop-opacity="0"/></linearGradient><style id="style4511"/><style id="style4511-26"/><style id="style4511-9"/><style id="style4552"/><style id="style4511-2"/><linearGradient xlink:href="#linearGradient4488" id="linearGradient4540" gradientUnits="userSpaceOnUse" gradientTransform="rotate(90.216 54.465 -7.917) scale(.3038)" x1="288.112" y1="141.785" x2="287.575" y2="79.008"/><linearGradient osb:paint="solid" id="linearGradient5293"><stop id="stop5295" offset="0" stop-color="#9a89c0" stop-opacity="1"/></linearGradient><style id="style4511-87"/><style id="style4511-26-7"/><style id="style4511-9-1"/><style id="style4552-53"/><style id="style4511-2-9"/><style id="style4511-8"/><style id="style4511-26-4"/><style id="style4511-9-8"/><style id="style4552-5"/><style id="style4511-2-5"/><style id="style4511-879"/><style id="style4511-26-76"/><style id="style4511-9-2"/><style id="style4552-8"/><style id="style4511-2-2"/></defs><style id="style4485" type="text/css"/><style type="text/css" id="style4485-7"/><style id="style4485-6" type="text/css"/><path id="path4516" d="M22.28 3.136l-1.67-.007C11.037 3.093 3.309 8.648 3.265 20.21l-.026 6.93c-.057 15.133 11.255 17.88 17.215 17.902l1.669.006c-5.96-.022-17.272-2.77-17.215-17.901l.026-6.93C4.976 8.653 12.705 3.1 22.279 3.135z" opacity="1" fill="url(#linearGradient4540)" fill-opacity="1" stroke="none" stroke-width="1.1" stroke-linecap="square" stroke-linejoin="bevel" stroke-miterlimit="4" stroke-dasharray="none" stroke-dashoffset="0" stroke-opacity=".078"/><path d="M45.695 19.837C45.737 8.694 38.05 3.195 28.476 3.16l-4.293-.016-.157 41.912 4.293.016c6.035.023 17.292-2.832 17.344-16.74z" id="path4518" opacity="1" fill="#f12629" fill-opacity="1" stroke="#000" stroke-width=".334" stroke-linecap="square" stroke-linejoin="bevel" stroke-miterlimit="4" stroke-dasharray="none" stroke-dashoffset="0" stroke-opacity=".078"/><path d="M2.548 28.39c-.027 11.142 7.667 16.631 17.24 16.655l4.294.01.101-41.912-4.293-.01C13.855 3.118 2.602 5.988 2.568 19.895z" id="path4518-7" opacity="1" fill="#3e6db3" fill-opacity="1" stroke="#000" stroke-width=".334" stroke-linecap="square" stroke-linejoin="bevel" stroke-miterlimit="4" stroke-dasharray="none" stroke-dashoffset="0" stroke-opacity=".078"/><style type="text/css" id="style4485-64"/><path style="marker:none" d="M23.6 8.174H12.569c-.298 0-.55.28-.55.492v10.699c0 .25.252.505.563.505H24.99l.013-.001h11.018c.238 0 .583-.167.583-.488V8.656c0-.172-.185-.482-.591-.482h-.037zm11.427.6h.63c.175 0 .316.133.316.3v.899c0 .166-.14.3-.315.3h-.63a.307.307 0 0 1-.316-.3v-.9c0-.166.14-.3.315-.3zm-4.412 0h.63c.175 0 .315.134.315.3v.9c0 .165-.14.299-.315.299h-.63a.307.307 0 0 1-.315-.3v-.9c0-.165.14-.3.315-.3zm2.206 0h.63c.175 0 .316.133.316.3v.9c0 .165-.14.299-.315.299h-.63a.307.307 0 0 1-.316-.3v-.9c0-.165.14-.3.315-.3zm-5.988 0c.174 0 .315.134.315.3v.9c0 .166-.14.3-.315.3h-.63a.307.307 0 0 1-.316-.3v-.9c0-.166.14-.3.316-.3zm1.576 0h.63c.175 0 .315.134.315.3v.9c0 .166-.14.3-.315.3h-.63a.307.307 0 0 1-.316-.3v-.9c0-.166.141-.3.316-.3zm-3.782 0c.174 0 .315.134.315.3v.9c0 .166-.14.3-.315.3h-.63a.332.332 0 0 1-.224-.088.291.291 0 0 1-.092-.212v-.9c0-.062.02-.12.054-.167a.316.316 0 0 1 .261-.132zm-2.837 0h.63c.175 0 .316.134.316.3v.9c0 .166-.14.3-.315.3h-.63a.307.307 0 0 1-.316-.3v-.9c0-.166.14-.3.315-.3zm-4.412.001h.63c.175 0 .315.134.315.3v.9c0 .165-.14.3-.315.3h-.63a.307.307 0 0 1-.315-.3v-.9c0-.166.14-.3.315-.3zm2.206 0h.63c.175 0 .316.134.316.3v.9c0 .165-.14.3-.316.3h-.63a.307.307 0 0 1-.315-.3v-.9c0-.166.14-.3.315-.3zm-4.412 0h.63c.174 0 .315.134.315.3v.9c0 .166-.14.3-.315.3h-.63a.307.307 0 0 1-.315-.3v-.9c0-.166.14-.3.315-.3zm-2.207 0h.63c.175 0 .316.134.316.3v.9c0 .166-.14.3-.315.3h-.63a.307.307 0 0 1-.315-.3v-.9c0-.166.14-.3.314-.3zm19.857 8.994h.63c.175 0 .315.134.315.3v.9c0 .165-.14.3-.314.3h-.63a.307.307 0 0 1-.316-.3v-.9c0-.166.14-.3.315-.3zm2.206 0h.63c.175 0 .316.133.316.3v.9c0 .165-.14.3-.315.3h-.63a.307.307 0 0 1-.316-.3v-.9c0-.166.14-.3.315-.3zm-4.412 0h.63c.175 0 .315.134.315.3v.9c0 .166-.14.3-.315.3h-.63a.307.307 0 0 1-.315-.3v-.9c0-.166.14-.3.315-.3zm-4.412 0h.63c.174 0 .315.134.315.3v.9c0 .166-.14.3-.315.3h-.63a.307.307 0 0 1-.316-.3v-.9c0-.166.14-.3.316-.3zm2.206 0h.63c.175 0 .315.134.315.3v.9c0 .166-.14.3-.315.3h-.63a.307.307 0 0 1-.316-.3v-.9c0-.166.141-.3.316-.3zm-4.413 0h.63c.175 0 .316.134.316.3v.9c0 .166-.14.3-.315.3h-.63a.307.307 0 0 1-.316-.3v-.9c0-.145.108-.265.251-.293a.336.336 0 0 1 .064-.006zm-3.782.001c.175 0 .316.134.316.3v.9c0 .166-.14.3-.316.3h-.63a.307.307 0 0 1-.315-.3v-.9c0-.166.14-.3.315-.3zm1.576 0h.63c.175 0 .316.134.316.3v.9c0 .166-.14.3-.315.3h-.63a.307.307 0 0 1-.316-.3v-.9c0-.166.14-.3.315-.3zm-4.412 0h.63c.175 0 .316.134.316.3v.9c0 .166-.141.3-.316.3h-.63a.307.307 0 0 1-.315-.3v-.9c0-.166.14-.3.315-.3zm-3.782 0c.174 0 .315.134.315.3v.9c0 .166-.14.3-.315.3h-.63a.307.307 0 0 1-.316-.3v-.9c0-.165.14-.299.315-.299zm1.576 0h.63c.175 0 .315.134.315.3v.9c0 .166-.14.3-.315.3h-.63a.307.307 0 0 1-.315-.3v-.9c0-.166.14-.3.315-.3z" id="rect5505-21" color="#000" display="inline" overflow="visible" visibility="visible" fill="#3f3955" fill-opacity="1" fill-rule="nonzero" stroke="none" stroke-width=".233"/><rect ry="0" rx="0" y="11.116" x="12.85" height="5.811" width="6.734" id="rect872" opacity=".05" fill="#000" fill-opacity="1" stroke="none" stroke-width=".817" stroke-linecap="round" stroke-linejoin="miter" stroke-miterlimit="4" stroke-dasharray="none" stroke-opacity="1"/><rect id="rect874" width="6.734" height="5.811" x="20.945" y="11.116" rx="0" ry="0" opacity=".05" fill="#020000" fill-opacity="1" stroke="none" stroke-width=".817" stroke-linecap="round" stroke-linejoin="miter" stroke-miterlimit="4" stroke-dasharray="none" stroke-opacity="1"/><rect ry="0" rx="0" y="11.116" x="29.039" height="5.811" width="6.734" id="rect876" opacity=".05" fill="#000" fill-opacity="1" stroke="none" stroke-width=".817" stroke-linecap="round" stroke-linejoin="miter" stroke-miterlimit="4" stroke-dasharray="none" stroke-opacity="1"/><path id="rect2077" fill="#ffcbb5" fill-opacity=".357" stroke-width=".467" d="M20.945 11.116h6.806v5.834h-6.806z"/><path id="rect2077-5" fill="#ffcbb5" fill-opacity=".357" stroke-width=".467" d="M12.85 11.116h6.806v5.834H12.85z"/><path id="rect2077-8" fill="#ffcbb5" fill-opacity=".357" stroke-width=".467" d="M29.039 11.116h6.806v5.834h-6.806z"/><path d="M13.838 39.714c-.089-.103-.086-.357.007-.549.04-.08.032-.111-.02-.084-.05.026-.071-.027-.057-.137.028-.218.262-.388.658-.477.28-.064.512-.21.436-.273-.02-.017.025-.034.099-.039.309-.02 1.87-.217 2.024-.254.241-.059.314-.22.58-1.28.325-1.302.67-2.44.88-2.894.169-.369.186-.42.206-.594.004-.046.07-.136.146-.2.286-.246.609-.646.65-.806.025-.092.085-.16.136-.15.05.008.303-.162.563-.378.442-.368.592-.534.382-.425-.056.03-.069.018-.034-.03.032-.043.092-.06.135-.037.107.056 2.582-2.031 2.536-2.139-.02-.047-.006-.07.032-.05.135.07.34-.511.314-.887-.051-.713 0-3.407.07-3.714.04-.17.063-.32.051-.33-.012-.01-.657.008-1.433.041-1.361.058-1.43.054-1.974-.093-.977-.265-1.046-.47-.558-1.668.377-.926.451-1.237.31-1.312-.056-.03-.343-.056-.637-.057-.294 0-.607-.033-.696-.074-.097-.043-.548-.069-1.122-.063-.79.008-.983-.009-1.087-.097-.319-.269.022-.595.68-.651 1.894-.163 2.15-.173 2.602-.101.26.04.47.065.543.07.072.003.244.103.236.129-.008.026.037.084.172.206l.245.221-.114.428c-.062.235-.164.71-.225 1.054-.062.345-.16.765-.218.932l-.106.305.283-.056c.155-.03.723-.056 1.263-.056.798-.002 1.018-.023 1.176-.115.368-.215.463-.323.485-.55l.022-.226-.397-.02c-.219-.012-.5.015-.627.058a3.834 3.834 0 0 1-.269.087c-.128.021-.235.128-.235.232 0 .213-.454.278-.637.093-.131-.134-.104-.302.094-.575.15-.207.21-.544.086-.479-.036.019-.062-.099-.059-.261.005-.219-.027-.304-.122-.33-.07-.018-.144-.12-.162-.226-.019-.106-.007-.179.025-.162.032.017.08.002.105-.032.025-.034-.035-.072-.132-.084-.307-.036-.266-.274.087-.51.32-.214.536-.605.573-1.04.011-.138.05-.196.119-.174.066.022.101-.023.101-.128 0-.14-.038-.163-.283-.17-.156-.006-.333-.045-.394-.087-.094-.066-.093-.1.01-.23.147-.19.147-.203.001-.203-.064 0-.117.022-.117.05 0 .074-.297-.008-.398-.11-.07-.071-.046-.107.11-.167.243-.093.749-.023.81.113.04.087.06.086.176-.001.279-.213.75-.315 1.613-.351.897-.038 1.344.025 1.53.215.052.052.123.317.16.588.036.27.127.59.203.71.076.12.141.234.145.252.004.018.08.152.169.297.434.708.7 2.027.541 2.678l-.092.378.464.18c.317.122.54.168.71.145.958-.133 1.427-.173 2.024-.175l.682-.002.138-.245c.076-.135.36-.442.63-.684.426-.414.57-.496.807-.667.177-.156.214-.225.14-.26-.51-.123-.892.091-1.411-.12-.087-.104-.22-.129-.77-.145-.305-.062-.314.013-.674-.085-.045-.013-.201-.14-.22-.222-.101-.218-.08-.262.148-.36 0 0 .133-.039.271-.049.2-.09 2.731-.097 3.122-.008.362.082.546.233.648.532.063.185.042.253-.15.488-.122.15-.227.295-.232.322-.005.027-.036.052-.069.054-.212.21-.279.305-.47.45-.227.406-.624.913-.92 1.164 0 .073-.036.133-.08.135-.042.002-.2.07-.352.15-.565.302-1.578.48-3.722.655l-.627.05-.01 2.081c-.009 1.656.011 2.114.097 2.246.347.53.677 1.36.899 2.26.136.555.266 1.076.287 1.158a.191.191 0 0 0 .181.148c.079 0 .168.033.197.073.036.05 0 .059-.113.029-.192-.051-.22.042-.049.163.138.096.162.295.027.224-.065-.034-.076.014-.04.17.03.119.052.274.052.345 0 .098.037.118.157.086.212-.056.212.135 0 .247-.248.13-.185.269.197.44.661.295.954.652 1.605 1.955.257.515.4.724.489.718.073-.005.11.028.087.077-.028.061.09.1.408.133.607.064.933.3.933.677v.265l.213-.093c.302-.131.358-.119.5.114.158.256.148.264-.766.703-.376.18-.658.35-.627.38.031.029.015.033-.035.009-.05-.025-.361.09-.693.256-.796.397-1.646.632-2.432.674-.732.04-.898-.038-.898-.417 0-.198.025-.227.198-.227.192 0 .194-.004.072-.161-.144-.186-.092-.41.107-.459.073-.018.274-.04.446-.05.248-.012.395-.078.705-.317.215-.165.383-.322.373-.348-.01-.026.026-.033.079-.017.121.038.213-.017.432-.257.095-.104.15-.22.122-.258-.028-.038-.014-.05.031-.026.045.024.12.003.168-.044.065-.067.028-.134-.156-.28a10.68 10.68 0 0 1-.754-.736c-.282-.3-.548-.525-.592-.502-.118-.112-.277-.37-.412-.454 0 0-.141-.275-.24-.385a5.4 5.4 0 0 1-.462-.593 3.085 3.085 0 0 0-.39-.483l-.198-.186-.999.043c-.607.027-1.305.014-1.782-.033-.903-.088-.777-.082-1.514-.066-.501.011-.597-.006-.764-.138-.105-.083-.19-.12-.19-.084 0 .099-.378.25-.59.235-.154-.01-.188.022-.209.201-.023.2-.045.215-.357.234-.316.02-.377-.017-.343-.202.006-.027-.017-.05-.049-.05s-.063.231-.069.513c-.012.613-.126.918-.984 2.62-.59 1.174-.62 1.256-.488 1.338a.597.597 0 0 0 .198.087c.103 0 .383.441.383.604a.552.552 0 0 1-.116.299c-.11.132-.103.141.148.181.232.037.269.07.297.272.03.217.014.235-.247.293-.153.034-1.318.082-2.59.108-1.935.038-2.325.03-2.392-.047zm6.389-6.334c0-.075-.052-.132-.122-.132-.067 0-.1.03-.075.066.028.037-.004.048-.073.026-.08-.026-.122-.002-.122.066 0 .07.068.107.196.107.144 0 .196-.036.196-.133zm.776-.421c.15-.152-.115-.185-.322-.04l-.18.127.206.002c.113.001.246-.039.296-.09zm.87.066c0-.014-.088-.04-.194-.057-.106-.017-.175-.005-.152.026.04.054.346.082.346.03zm2.026-.375l-.185-.135.176.04c.137.032.176.014.176-.078-.001-.067-.027-.091-.06-.054-.03.036-.11.066-.174.066-.065 0-.13.067-.143.148-.02.123.012.149.185.149h.21zm.637-.166c-.05-.275-.042-.292.13-.292.135 0 .184-.038.184-.14 0-.09-.037-.127-.108-.104-.142.046-.283-.077-.227-.2.032-.071-.005-.09-.143-.074-.125.015-.196.072-.213.172-.014.082-.059.132-.1.11-.133-.069-.036.128.125.255.087.067.113.104.06.08-.071-.03-.099.032-.099.217 0 .238.017.258.222.263.219.005.221.001.17-.287zm.705.104c.036 0 .045-.065.02-.144l-.044-.144-.063.144c-.035.08-.099.144-.142.144-.043 0-.058-.045-.033-.1.025-.054.012-.098-.029-.098-.12 0-.084.225.05.309.099.062.13.058.15-.016.014-.053.055-.095.09-.095zm.645 0c-.053-.303.16-.529.499-.529.165 0 .257-.026.229-.066-.063-.085-.4-.084-.592.002-.215.097-.41.445-.354.633.071.238.26.203.218-.04zm.714.132c.132 0 .172-.042.178-.184.007-.169-.016-.184-.274-.182-.263.002-.284.018-.308.226-.02.186-.003.217.105.182a1.18 1.18 0 0 1 .3-.042zm-3.224-.215c.017-.147.08-.235.201-.28.195-.072.242-.298.063-.298-.063 0-.149.052-.191.116-.073.11-.08.11-.13 0-.029-.064-.12-.116-.201-.116-.127 0-.148.051-.148.353 0 .382.032.44.243.44.1 0 .146-.061.163-.215zm2.158.083c.007-.073-.017-.132-.052-.132-.036 0-.083.06-.106.132-.024.077-.002.132.053.132.051 0 .099-.06.105-.132zm1.567-.007c-.006-.064-.04-.1-.076-.082-.036.019-.043-.05-.016-.153.037-.144.029-.164-.035-.088-.124.147-.107.44.026.44.061 0 .107-.052.1-.117zm-4.523-.186c0-.246-.075-.411-.165-.364-.039.02-.07.005-.07-.034s-.157-.07-.353-.07c-.196 0-.353.032-.353.07 0 .039-.034.052-.077.03-.045-.024-.057.004-.029.067.032.069.076.084.125.043.046-.04.168-.042.314-.007.131.032.268.042.305.023.036-.019.047.008.023.06-.024.053-.191.117-.372.143l-.328.049.235.06c.13.032.297.046.373.031.075-.015.117 0 .093.032-.024.033.029.06.117.06.127 0 .162-.042.162-.193zm-1.41-.137c0-.037-.098-.068-.216-.071-.173-.004-.187-.014-.071-.053.139-.046.139-.052.005-.144-.118-.08-.13-.08-.074-.002.05.07.035.083-.063.052-.072-.023-.13-.02-.13.005.003.098.122.199.274.23.252.054.274.052.274-.017zm4.349 0c.026-.037.01-.066-.035-.066-.046 0-.083.03-.083.066 0 .036.016.066.035.066.019 0 .056-.03.083-.066zm-.229-.225c-.034-.155-.019-.235.05-.256.058-.017.071-.054.03-.088-.04-.034-.083-.024-.104.024-.049.115-.178.103-.178-.017 0-.054.035-.099.078-.099s.078-.03.078-.066c0-.118-.13-.07-.209.078-.058.111-.043.172.067.264.078.066.142.18.142.253 0 .072.022.132.048.132.026 0 .026-.102-.002-.225zm.315-.01c-.142-.087-.14-.094.064-.16.117-.037.33-.068.472-.068.245 0 .487-.133.39-.214-.025-.021-.157-.008-.294.029a6.25 6.25 0 0 1-.522.11c-.315.051-.407.235-.184.372.08.049.162.074.183.056.022-.018-.028-.075-.11-.125zm-2.87-.225c.063-.034.098-.076.078-.093-.02-.017-.106.011-.19.063-.167.103-.073.128.111.03zm.785-.003c0-.036-.035-.066-.078-.066s-.079.03-.079.066c0 .037.036.066.079.066.043 0 .078-.03.078-.066zm-.194-.09c.06-.051.087-.11.06-.133-.027-.022.006-.04.073-.04.067 0 .117.048.111.107-.006.06.051.116.127.126.075.01.137-.008.137-.042 0-.033.037-.06.083-.06.045 0 .058.035.027.077-.034.046-.022.058.03.03.049-.025.066-.093.039-.153-.033-.072-.019-.092.042-.06.05.027.092.022.092-.01 0-.031-.238-.062-.529-.068-.522-.01-.823.06-.692.164.037.03.083.016.102-.03.02-.045.09-.082.158-.082.106 0 .103.019-.018.132-.162.151-.017.189.158.041zm.35-.108c0-.036.036-.066.08-.066.042 0 .078.03.078.066 0 .037-.036.066-.079.066-.043 0-.078-.03-.078-.066zm1.98-.11a.356.356 0 0 0-.196 0c-.054.019-.01.034.098.034.107 0 .152-.015.098-.034zm.479-.055c-.025-.054-.015-.099.022-.099s.072-.078.079-.174c.006-.095.053-.195.103-.22.065-.035.035-.133-.103-.341-.17-.256-.185-.333-.125-.604.066-.301-.022-.736-.103-.51l-.134.355c-.074.192-.076.267-.008.303.065.034.057.07-.03.132-.067.046-.122.122-.122.167 0 .046-.079.133-.176.193-.097.061-.132.093-.078.07.054-.021.098-.01.098.025 0 .036-.106.085-.236.109-.13.024-.216.07-.191.104.068.093.318.072.424-.035.052-.053.197-.09.324-.083.188.011.208.027.11.087-.17.106-.157.536.02.575.075.016.144.033.154.037.009.005-.004-.036-.028-.09zm.363-.033c0-.036-.035-.066-.078-.066s-.079.03-.079.066c0 .036.036.066.079.066.043 0 .078-.03.078-.066zm-3.487-.462c-.027-.037-.101-.066-.166-.066s-.096.03-.07.066c.027.036.102.066.167.066.064 0 .095-.03.069-.066zm.206-.047c-.077-.025-.081-.048-.016-.082.05-.026-.02-.047-.155-.047-.243 0-.243 0-.062.085a.84.84 0 0 0 .262.083c.043-.001.03-.019-.029-.039zm.48-.063a.356.356 0 0 0-.196 0c-.054.018-.01.033.098.033.107 0 .151-.015.098-.033zm1.43-.023c.1-.037.017-.044-.235-.019a2.628 2.628 0 0 0-.425.062c-.068.05.51.012.66-.043zm-3.302-12.582c-.025-.054-.06-.099-.076-.099-.017 0-.031.045-.031.1 0 .054.034.099.076.099.041 0 .055-.045.03-.1z" id="path817" fill="#e6e6e6" fill-opacity="1" stroke-width=".072"/></svg>