<svg xmlns="http://www.w3.org/2000/svg" xmlns:xlink="http://www.w3.org/1999/xlink" width="48" height="48" version="1.1" id="svg38"><defs id="defs22"><linearGradient id="linearGradient4488"><stop id="stop4490" offset="0" stop-color="#000" stop-opacity=".047"/><stop id="stop4492" offset="1" stop-color="#000" stop-opacity="0"/></linearGradient><style id="style4511"/><style id="style4511-26"/><style id="style4511-9"/><style id="style4552"/><linearGradient id="e-1" y1="41.22" x1="24.392" y2="25.343" x2="20.643" gradientUnits="userSpaceOnUse"><stop stop-color="#334545" id="stop22-8"/><stop offset="1" stop-color="#536161" id="stop24-7"/></linearGradient><style id="style4511-2"/><linearGradient xlink:href="#linearGradient4488" id="linearGradient4548" gradientUnits="userSpaceOnUse" gradientTransform="translate(-62.55 1.994) scale(.3038)" x1="288.112" y1="141.785" x2="287.575" y2="79.008"/><linearGradient xlink:href="#e-1" id="linearGradient1181" x1="2.921" y1="23.586" x2="45.168" y2="23.586" gradientUnits="userSpaceOnUse"/></defs><style id="style4485" type="text/css"/><path id="path4532" d="M3.088 26.22v1.67c0 9.573 5.583 17.281 17.146 17.281h6.93c15.133 0 17.837-11.322 17.837-17.282v-1.668c0 5.96-2.704 17.282-17.837 17.282h-6.93c-11.563 0-17.146-7.708-17.146-17.282z" opacity="1" fill="url(#linearGradient4548)" fill-opacity="1" stroke="none" stroke-width="1.1" stroke-linecap="square" stroke-linejoin="bevel" stroke-miterlimit="4" stroke-dasharray="none" stroke-dashoffset="0" stroke-opacity=".078"/><path id="path4534" d="M19.701 2.742h8.495c13.908 0 16.805 11.247 16.805 17.282v7.124c0 5.96-2.704 17.282-17.837 17.282h-6.93c-11.562 0-17.146-7.708-17.146-17.282v-7.124c0-9.574 5.47-17.282 16.613-17.282z" opacity="1" fill="url(#linearGradient1181)" fill-opacity="1" stroke="#000" stroke-width=".334" stroke-linecap="square" stroke-linejoin="bevel" stroke-miterlimit="4" stroke-dasharray="none" stroke-dashoffset="0" stroke-opacity=".078"/><path d="M23.545 8.586a1.5 1.5 0 0 0-.307.033c-7.908.42-14.193 6.954-14.193 14.967 0 8.284 6.715 15 15 15 8.01 0 14.542-6.282 14.966-14.186a1.5 1.5 0 0 0 .034-.314 1.5 1.5 0 0 0-1.5-1.5 1.5 1.5 0 0 0-1.498 1.469c-.002.004-.012.005-.012.01-.251 6.405-5.523 11.521-11.99 11.521-6.628 0-12-5.373-12-12 0-6.463 5.11-11.733 11.51-11.99.003 0 .006-.01.01-.01a1.5 1.5 0 0 0 1.48-1.5 1.5 1.5 0 0 0-1.5-1.5zm0 6a1.5 1.5 0 0 0-.4.055h-.003c-4.545.454-8.097 4.28-8.097 8.945a9 9 0 0 0 9 9c4.667 0 8.494-3.555 8.945-8.104a1.5 1.5 0 0 0 .055-.396 1.5 1.5 0 0 0-1.5-1.5 1.5 1.5 0 0 0-1.497 1.426c-.005.011-.02.02-.021.033a6 6 0 1 1-6.383-6.445c.01-.001.015-.015.024-.02a1.5 1.5 0 0 0 1.377-1.494 1.5 1.5 0 0 0-1.5-1.5zm.5 6a3 3 0 0 0-3 3 3 3 0 0 0 3 3 3 3 0 0 0 3-3 3 3 0 0 0-3-3z" id="path1154" fill="#fff"/></svg>