<svg xmlns="http://www.w3.org/2000/svg" xmlns:xlink="http://www.w3.org/1999/xlink" width="48" height="48" version="1.1" id="svg38"><defs id="defs22"><linearGradient id="linearGradient4488"><stop id="stop4490" offset="0" stop-color="#000" stop-opacity=".047"/><stop id="stop4492" offset="1" stop-color="#000" stop-opacity="0"/></linearGradient><style id="style4511"/><linearGradient gradientUnits="userSpaceOnUse" x2="13" y2="4" x1="43" y1="40" id="a"><stop id="stop2-36753" stop-color="#f27935"/><stop id="stop4-562" stop-color="#f2784b" offset="1"/></linearGradient><style id="style4511-26"/><style id="style4511-9"/><style id="style4552"/><style id="style4511-2"/><linearGradient gradientTransform="translate(-63.205 2.216) scale(.3038)" xlink:href="#linearGradient4488" id="linearGradient4160" x1="288.112" y1="141.785" x2="287.575" y2="79.008" gradientUnits="userSpaceOnUse"/><clipPath id="b-3675"><use id="use948" overflow="visible" xlink:href="#a" x="0" y="0" width="100%" height="100%"/></clipPath><clipPath id="clipPath-561578208"/><clipPath id="clipPath-572739784"/></defs><style id="style4485" type="text/css"/><path d="M19.046 2.965h8.495c13.908 0 16.805 11.246 16.805 17.282v7.123c0 5.96-2.704 17.282-17.837 17.282h-6.93c-11.562 0-17.146-7.708-17.146-17.282v-7.123c0-9.575 5.47-17.282 16.613-17.282z" id="rect4144" opacity="1" fill="#666" fill-opacity="1" stroke="#000" stroke-width=".334" stroke-linecap="square" stroke-linejoin="bevel" stroke-miterlimit="4" stroke-dasharray="none" stroke-dashoffset="0" stroke-opacity=".078"/><path d="M2.433 26.443v1.668c0 9.575 5.583 17.282 17.146 17.282h6.93c15.133 0 17.837-11.322 17.837-17.282v-1.668c0 5.96-2.704 17.282-17.837 17.282h-6.93c-11.563 0-17.146-7.708-17.146-17.282z" id="path4147" opacity="1" fill="url(#linearGradient4160)" fill-opacity="1" stroke="none" stroke-width="1.1" stroke-linecap="square" stroke-linejoin="bevel" stroke-miterlimit="4" stroke-dasharray="none" stroke-dashoffset="0" stroke-opacity=".078"/><path clip-path="url(#b-3675)" d="M0 37V11l17 13z" id="path951-3" transform="matrix(.16414 0 0 .1812 -56.492 -.302)" fill="#fbbc05"/><path clip-path="url(#b-3675)" d="M0 11l17 13 7-6.1L48 14V0H0z" id="path953" transform="matrix(.16414 0 0 .1812 -56.492 -.302)" fill="#ea4335"/><path clip-path="url(#b-3675)" d="M0 37l30-23 7.9 1L48 0v48H0z" id="path955" transform="matrix(.16414 0 0 .1812 -56.492 -.302)" fill="#34a853"/><path clip-path="url(#b-3675)" d="M48 48L17 24l-4-3 35-10z" id="path957" transform="matrix(.16414 0 0 .1812 -56.492 -.302)" fill="#4285f4"/><path id="path1555" d="M9.367 14.598a.914.914 0 0 0-.918.907v1.812a.918.906 0 0 0 .918.906h1.835a.918.906 0 0 0 .918-.906v-1.812c0-.5-.412-.907-.918-.907zm5.507 0a.914.914 0 0 0-.918.907v1.812a.918.906 0 0 0 .918.906h1.835a.918.906 0 0 0 .918-.906v-1.812c0-.5-.412-.907-.918-.907zm5.507 0a.914.914 0 0 0-.918.907v1.812a.918.906 0 0 0 .918.906h1.835a.918.906 0 0 0 .918-.906v-1.812c0-.5-.412-.907-.918-.907zm5.507 0a.914.914 0 0 0-.918.907v1.812a.918.906 0 0 0 .918.906h1.835a.918.906 0 0 0 .918-.906v-1.812c0-.5-.412-.907-.918-.907zm5.506 0a.914.914 0 0 0-.917.907v1.812a.918.906 0 0 0 .917.906h1.836a.918.906 0 0 0 .918-.906v-1.812c0-.5-.412-.907-.918-.907zm5.507 0a.914.914 0 0 0-.917.907v1.812a.918.906 0 0 0 .917.906h1.836a.918.906 0 0 0 .918-.906v-1.812c0-.5-.412-.907-.918-.907zM9.367 20.036a.914.914 0 0 0-.918.906v1.812a.918.906 0 0 0 .918.906h1.835a.918.906 0 0 0 .918-.906v-1.812c0-.5-.412-.906-.918-.906zm5.507 0a.914.914 0 0 0-.918.906v1.812a.918.906 0 0 0 .918.906h1.835a.918.906 0 0 0 .918-.906v-1.812c0-.5-.412-.906-.918-.906zm5.507 0a.914.914 0 0 0-.918.906v1.812a.918.906 0 0 0 .918.906h1.835a.918.906 0 0 0 .918-.906v-1.812c0-.5-.412-.906-.918-.906zm5.507 0a.914.914 0 0 0-.918.906v1.812a.918.906 0 0 0 .918.906h1.835a.918.906 0 0 0 .918-.906v-1.812c0-.5-.412-.906-.918-.906zm5.506 0a.914.914 0 0 0-.917.906v1.812a.918.906 0 0 0 .917.906h1.836a.918.906 0 0 0 .918-.906v-1.812c0-.5-.412-.906-.918-.906zm5.507 0a.914.914 0 0 0-.917.906v1.812a.918.906 0 0 0 .917.906h1.836a.918.906 0 0 0 .918-.906v-1.812c0-.5-.412-.906-.918-.906zM9.367 25.473a.914.914 0 0 0-.918.906v1.812a.918.906 0 0 0 .918.907h1.835a.918.906 0 0 0 .918-.907V26.38c0-.5-.412-.906-.918-.906zm5.507 0a.914.914 0 0 0-.918.906v1.812a.918.906 0 0 0 .918.907h1.835a.918.906 0 0 0 .918-.907V26.38c0-.5-.412-.906-.918-.906zm5.507 0a.914.914 0 0 0-.918.906v1.812a.918.906 0 0 0 .918.907h1.835a.918.906 0 0 0 .918-.907V26.38c0-.5-.412-.906-.918-.906zm5.507 0a.914.914 0 0 0-.918.906v1.812a.918.906 0 0 0 .918.907h1.835a.918.906 0 0 0 .918-.907V26.38c0-.5-.412-.906-.918-.906zm5.506 0a.914.914 0 0 0-.917.906v1.812a.918.906 0 0 0 .917.907h1.836a.918.906 0 0 0 .918-.907V26.38c0-.5-.412-.906-.918-.906zm5.507 0a.914.914 0 0 0-.917.906v1.812a.918.906 0 0 0 .917.907h1.836a.918.906 0 0 0 .918-.907V26.38c0-.5-.412-.906-.918-.906zM14.874 30.91a.914.914 0 0 0-.918.906v1.813a.918.906 0 0 0 .918.906H33.23a.918.906 0 0 0 .918-.906v-1.813c0-.5-.412-.906-.918-.906z" opacity=".359" fill="#000" fill-opacity="1" fill-rule="nonzero" stroke="none" stroke-width=".969"/><path id="path1567" d="M8.449 13.692h1.836c.505 0 .917.407.917.906v1.813a.918.906 0 0 1-.917.906H8.449a.918.906 0 0 1-.918-.906v-1.813c0-.499.412-.906.918-.906m0 0" fill="#ed7868" fill-opacity="1" fill-rule="nonzero" stroke="none" stroke-width=".969"/><path id="path1569" d="M13.956 13.692h1.836c.505 0 .917.407.917.906v1.813a.918.906 0 0 1-.917.906h-1.836a.918.906 0 0 1-.918-.906v-1.813c0-.499.412-.906.918-.906m0 0" fill="#ed7868" fill-opacity="1" fill-rule="nonzero" stroke="none" stroke-width=".969"/><path id="path1571" d="M19.463 13.692h1.835c.506 0 .918.407.918.906v1.813a.918.906 0 0 1-.918.906h-1.835a.918.906 0 0 1-.918-.906v-1.813c0-.499.412-.906.918-.906m0 0" fill="#d992c9" fill-opacity="1" fill-rule="nonzero" stroke="none" stroke-width=".969"/><path id="path1573" d="M24.97 13.692h1.835c.506 0 .918.407.918.906v1.813a.918.906 0 0 1-.918.906H24.97a.918.906 0 0 1-.918-.906v-1.813c0-.499.412-.906.918-.906m0 0" fill="#d992c9" fill-opacity="1" fill-rule="nonzero" stroke="none" stroke-width=".969"/><path id="path1575" d="M30.477 13.692h1.835c.506 0 .918.407.918.906v1.813a.918.906 0 0 1-.918.906h-1.835a.918.906 0 0 1-.918-.906v-1.813c0-.499.412-.906.918-.906m0 0" fill="#d992c9" fill-opacity="1" fill-rule="nonzero" stroke="none" stroke-width=".969"/><path id="path1577" d="M35.984 13.692h1.835c.506 0 .918.407.918.906v1.813a.918.906 0 0 1-.918.906h-1.835a.918.906 0 0 1-.918-.906v-1.813c0-.499.412-.906.918-.906m0 0" fill="#9ab9dd" fill-opacity="1" fill-rule="nonzero" stroke="none" stroke-width=".969"/><path id="path1579" d="M8.449 19.13h1.836c.505 0 .917.406.917.906v1.812a.918.906 0 0 1-.917.906H8.449a.918.906 0 0 1-.918-.906v-1.812c0-.5.412-.907.918-.907m0 0" fill="#ed7868" fill-opacity="1" fill-rule="nonzero" stroke="none" stroke-width=".969"/><path id="path1581" d="M13.956 19.13h1.836c.505 0 .917.406.917.906v1.812a.918.906 0 0 1-.917.906h-1.836a.918.906 0 0 1-.918-.906v-1.812c0-.5.412-.907.918-.907m0 0" fill="#f2b477" fill-opacity="1" fill-rule="nonzero" stroke="none" stroke-width=".969"/><path id="path1583" d="M19.463 19.13h1.835c.506 0 .918.406.918.906v1.812a.918.906 0 0 1-.918.906h-1.835a.918.906 0 0 1-.918-.906v-1.812c0-.5.412-.907.918-.907m0 0" fill="#f2b477" fill-opacity="1" fill-rule="nonzero" stroke="none" stroke-width=".969"/><path id="path1585" d="M24.97 19.13h1.835c.506 0 .918.406.918.906v1.812a.918.906 0 0 1-.918.906H24.97a.918.906 0 0 1-.918-.906v-1.812c0-.5.412-.907.918-.907m0 0" fill="#86dd95" fill-opacity="1" fill-rule="nonzero" stroke="none" stroke-width=".969"/><path id="path1587" d="M30.477 19.13h1.835c.506 0 .918.406.918.906v1.812a.918.906 0 0 1-.918.906h-1.835a.918.906 0 0 1-.918-.906v-1.812c0-.5.412-.907.918-.907m0 0" fill="#86dd95" fill-opacity="1" fill-rule="nonzero" stroke="none" stroke-width=".969"/><path id="path1589" d="M35.984 19.13h1.835c.506 0 .918.406.918.906v1.812a.918.906 0 0 1-.918.906h-1.835a.918.906 0 0 1-.918-.906v-1.812c0-.5.412-.907.918-.907m0 0" fill="#9ab9dd" fill-opacity="1" fill-rule="nonzero" stroke="none" stroke-width=".969"/><path id="path1591" d="M8.449 24.567h1.836c.505 0 .917.407.917.906v1.812a.918.906 0 0 1-.917.906H8.449a.918.906 0 0 1-.918-.906v-1.812c0-.5.412-.906.918-.906m0 0" fill="#f2b477" fill-opacity="1" fill-rule="nonzero" stroke="none" stroke-width=".969"/><path id="path1593" d="M13.956 24.567h1.836c.505 0 .917.407.917.906v1.812a.918.906 0 0 1-.917.906h-1.836a.918.906 0 0 1-.918-.906v-1.812c0-.5.412-.906.918-.906m0 0" fill="#f3f284" fill-opacity="1" fill-rule="nonzero" stroke="none" stroke-width=".969"/><path id="path1595" d="M19.463 24.567h1.835c.506 0 .918.407.918.906v1.812a.918.906 0 0 1-.918.906h-1.835a.918.906 0 0 1-.918-.906v-1.812c0-.5.412-.906.918-.906m0 0" fill="#f3f284" fill-opacity="1" fill-rule="nonzero" stroke="none" stroke-width=".969"/><path id="path1597" d="M24.97 24.567h1.835c.506 0 .918.407.918.906v1.812a.918.906 0 0 1-.918.906H24.97a.918.906 0 0 1-.918-.906v-1.812c0-.5.412-.906.918-.906m0 0" fill="#f3f284" fill-opacity="1" fill-rule="nonzero" stroke="none" stroke-width=".969"/><path id="path1599" d="M30.477 24.567h1.835c.506 0 .918.407.918.906v1.812a.918.906 0 0 1-.918.906h-1.835a.918.906 0 0 1-.918-.906v-1.812c0-.5.412-.906.918-.906m0 0" fill="#86dd95" fill-opacity="1" fill-rule="nonzero" stroke="none" stroke-width=".969"/><path id="path1601" d="M35.984 24.567h1.835c.506 0 .918.407.918.906v1.812a.918.906 0 0 1-.918.906h-1.835a.918.906 0 0 1-.918-.906v-1.812c0-.5.412-.906.918-.906m0 0" fill="#9ab9dd" fill-opacity="1" fill-rule="nonzero" stroke="none" stroke-width=".969"/><path id="path1603" d="M13.956 30.004h18.356c.506 0 .918.407.918.906v1.812a.918.906 0 0 1-.918.907H13.956a.918.906 0 0 1-.918-.907V30.91c0-.5.412-.906.918-.906m0 0" fill="#ececeb" fill-opacity="1" fill-rule="nonzero" stroke="none" stroke-width=".969"/></svg>