<svg xmlns="http://www.w3.org/2000/svg" xmlns:xlink="http://www.w3.org/1999/xlink" width="48" height="48" version="1.1" id="svg38"><defs id="defs22"><style id="style4511"/><style id="style4511-26"/><style id="style4511-9"/><style id="style4552"/><style id="style4511-2"/><style id="style4511-8"/><style id="style4511-26-4"/><style id="style4511-9-8"/><style id="style4552-5"/><style id="style4511-2-5"/><style id="style4511-87"/><linearGradient gradientTransform="matrix(-1.08798 0 0 1.08934 -14.257 -100.392)" x2="0" gradientUnits="userSpaceOnUse" y2="1038.36" y1="1050.34" id="d-2-36"><stop id="stop17-9-1" stop-color="#a5111d" stop-opacity="1"/><stop id="stop19-1-0" stop-color="#e9656d" offset="1" stop-opacity="1"/></linearGradient><style id="style4511-26-7"/><style id="style4511-9-1"/><style id="style4552-53"/><style id="style4511-2-9"/><linearGradient xlink:href="#d-2-36" id="linearGradient1544" x1="2.748" y1="23.808" x2="44.994" y2="23.808" gradientUnits="userSpaceOnUse"/></defs><style id="style4485" type="text/css"/><style type="text/css" id="style4485-4"/><style type="text/css" id="style4485-3"/><path id="path4475" d="M19.528 2.965h8.495c13.908 0 16.804 11.246 16.804 17.282v7.123c0 5.96-2.704 17.282-17.836 17.282h-6.93c-11.563 0-17.146-7.708-17.146-17.282v-7.123c0-9.575 5.47-17.282 16.613-17.282z" opacity="1" fill="#e4182c" fill-opacity="1" stroke="#000" stroke-width=".334" stroke-linecap="square" stroke-linejoin="bevel" stroke-miterlimit="4" stroke-dasharray="none" stroke-dashoffset="0" stroke-opacity=".078"/><path id="path1452" d="M12.664 16.457a16.147 15.86 0 0 1 .087-.09 16.147 15.86 0 0 1 1.212-1.047 16.147 15.86 0 0 1 .913-.642 13.326 13.669 0 0 1-4.007-7.602 13.326 13.669 0 0 0-.194 2.233 13.326 13.669 0 0 0 1.99 7.148z" fill="#630e17" fill-opacity="1" stroke-width=".666"/><path id="path1403" d="M37.131 6.987a13.326 13.669 0 0 1-3.996 7.678 16.147 15.86 0 0 1 1.267.949 16.147 15.86 0 0 1 .93.85 13.326 13.669 0 0 0 1.995-7.155 13.326 13.669 0 0 0-.194-2.322z" fill="#630e17" fill-opacity="1" stroke-width=".666"/><path id="path1405" d="M22.091 26.465c-2.368 3.826-7.612 5.136-11.712 2.926-4.1-2.208-5.506-7.1-3.14-10.926z" opacity=".484" fill="#525252" fill-opacity="1" stroke-width="2"/><path id="path1407" d="M26.091 26.465c2.366 3.826 7.61 5.136 11.712 2.928 4.1-2.21 5.506-7.102 3.138-10.928z" opacity=".484" fill="#525252" fill-opacity="1" stroke-width="2"/><path d="M22.09 25.465c-2.368 3.826-7.612 5.136-11.712 2.926-4.1-2.208-5.505-7.1-3.138-10.926z" id="path1411" fill="#fff"/><path d="M14.199 21.215v.25c-.431 2.205.42 4.84 2.612 7.742l.076-.016c-1.07-2.043-.896-4.32.146-6.451z" id="path1413" fill="#2c2c2c"/><path d="M26.09 25.465c2.368 3.826 7.612 5.136 11.712 2.926 4.1-2.208 5.506-7.1 3.139-10.926z" id="path1415" fill="#fff"/><path d="M33.981 21.215v.25c.432 2.205-.419 4.84-2.611 7.742l-.076-.016c1.07-2.043.895-4.32-.147-6.451z" id="path1417" fill="#2c2c2c"/></svg>