<svg xmlns="http://www.w3.org/2000/svg" style="isolation:isolate" width="48" height="48"><defs><linearGradient gradientUnits="userSpaceOnUse" gradientTransform="scale(.99258 1.00748)" y2="2.787" x2="24.088" y1="45.462" x1="24.088" id="a"><stop stop-color="#c61423" offset="0%"/><stop stop-color="#dc2b41" offset="100%"/></linearGradient><radialGradient gradientUnits="userSpaceOnUse" gradientTransform="scale(1.68481 .59354)" r="4591.215" cy="6415.977" cx="5186.308" fy="6415.977" fx="5186.308" id="b"><stop stop-color="#fff" offset="0%"/><stop stop-color="#f5f5f5" offset="26.11%"/><stop stop-color="#e5e5e5" offset="76.1%"/></radialGradient></defs><path d="M3.066 28.69v-8.577c0-14.042 11.247-16.967 17.282-16.967h7.123c5.959 0 17.282 2.731 17.282 18.009v6.997c0 11.674-7.708 17.312-17.282 17.312h-7.123c-9.574 0-17.282-5.523-17.282-16.774z" vector-effect="non-scaling-stroke" fill="url(#a)" stroke="#000" stroke-width=".336" stroke-linecap="square" stroke-linejoin="bevel" stroke-opacity=".078"/><path d="M32.099 17c.488.005.975.001 1.463.001v4.205l-1.463.001zm3.236 4.746c1.34-1.298 2.664-2.611 4.003-3.91.343.341.697.671 1.033 1.018-1.324 1.309-2.662 2.605-3.987 3.913-.355-.335-.699-.681-1.049-1.021zm-25.653-.771a4.394 4.394 0 0 1 1.125-.115c1.257-.028 2.478.593 3.256 1.545.371.45.641.979.791 1.538-.576.002-1.151.001-1.727.001-.254-.494-.642-.934-1.149-1.191a2.585 2.585 0 0 0-.903-.286c-.295-.006-.597-.03-.885.043a2.54 2.54 0 0 0-1.281.703c-.449.413-.75.993-.776 1.6-.058.577.055 1.183.391 1.669.323.465.781.853 1.322 1.053.908.328 2.007.13 2.703-.54.234-.232.437-.498.584-.791.573-.003 1.146-.003 1.72 0-.142.592-.451 1.142-.842 1.613-.268.274-.531.561-.861.765-1.481.998-3.632.942-5.024-.187-.433-.36-.829-.775-1.101-1.268-.501-.87-.626-1.916-.449-2.891.15-.827.593-1.588 1.204-2.17a3.955 3.955 0 0 1 1.902-1.091zm6.049-.115h1.641c0 2.822.002 5.645 0 8.467-.547.002-1.094 0-1.641 0zm4.959 1.685c.311-.061.63-.027.944-.035.365.031.73.082 1.077.203.348.118.706.266.949.548.287.333.388.776.41 1.201-.001 1.621.002 3.244-.001 4.865-.555-.002-1.11.012-1.664-.007-.006-.22.004-.441-.004-.661-.483.407-1.122.595-1.748.642-.395.067-.804.007-1.181-.117a1.594 1.594 0 0 1-1.028-1.035 2.545 2.545 0 0 1 .058-1.581c.197-.513.672-.877 1.194-1.044.668-.231 1.382-.267 2.074-.401a.614.614 0 0 0 .564-.364c.064-.24.008-.541-.208-.694-.238-.153-.528-.185-.806-.192-.247.007-.508.009-.727.138-.284.157-.412.471-.468.771-.549-.012-1.099 0-1.649-.009.068-.529.182-1.094.569-1.495.406-.465 1.036-.687 1.645-.733zm1.21 3.661c-.325.073-.645.168-.975.217-.262.051-.539.134-.725.332-.26.301-.279.763-.078 1.097.088.154.261.229.423.284a1.709 1.709 0 0 0 1.472-.426c.39-.478.321-1.124.32-1.696-.153.048-.277.163-.437.192zm6.082-3.468c.339-.081.671-.218 1.027-.185.004.548.034 1.097.022 1.646-.302-.041-.618-.074-.915.014-.64.174-1.175.726-1.25 1.382-.004.145-.044.286-.046.431-.001 1.101.002 2.201 0 3.302-.545-.001-1.091.004-1.637-.003-.006-2.167-.001-4.336.003-6.504.529-.005 1.057.015 1.586.034 0 .268-.007.535.003.803.309-.403.715-.752 1.207-.92zm4.088-.168a4.11 4.11 0 0 1 .736-.027c1.471.018 2.815 1.129 3.166 2.515.303 1.133.008 2.44-.868 3.261a3.373 3.373 0 0 1-1.94 1.008c-.356.003-.711.002-1.067.001-1.061-.146-1.984-.856-2.508-1.754a3.424 3.424 0 0 1-.013-3.228c.507-.912 1.43-1.627 2.494-1.776zm.132 1.606c-.49.108-.907.445-1.157.866a1.758 1.758 0 0 0 .151 2.003c.474.667 1.447.893 2.191.55.433-.19.763-.564.946-.987a1.808 1.808 0 0 0-.077-1.521c-.257-.47-.729-.84-1.272-.925a3.3 3.3 0 0 0-.782.014zm4.914.244c1.461 0 2.922-.001 4.384.001-.001.475.001.951-.001 1.426-1.461-.001-2.921.003-4.382.001-.003-.476.001-.952-.001-1.428z" fill="url(#b)"/></svg>