<svg xmlns="http://www.w3.org/2000/svg" xmlns:xlink="http://www.w3.org/1999/xlink" width="48" height="48" version="1.1" id="svg38"><defs id="defs22"><linearGradient id="linearGradient4488"><stop id="stop4490" offset="0" stop-color="#000" stop-opacity=".047"/><stop id="stop4492" offset="1" stop-color="#000" stop-opacity="0"/></linearGradient><style id="style4511"/><style id="style4511-26"/><style id="style4511-9"/><linearGradient id="linearGradient10454-6"><stop id="stop4727" offset="0" stop-color="#f38230" stop-opacity="1"/><stop id="stop4729" offset="1" stop-color="#fec335" stop-opacity="1"/></linearGradient><style id="style4552"/><style id="style4511-2"/><linearGradient xlink:href="#linearGradient4488" id="linearGradient4483" gradientUnits="userSpaceOnUse" gradientTransform="translate(-62.91 2.216) scale(.3038)" x1="288.112" y1="141.785" x2="287.575" y2="79.008"/><linearGradient xlink:href="#linearGradient10454-6" id="linearGradient1147" x1="2.561" y1="23.808" x2="44.808" y2="23.808" gradientUnits="userSpaceOnUse"/></defs><style id="style4485" type="text/css"/><path d="M2.729 26.443v1.668c0 9.575 5.583 17.282 17.145 17.282h6.93c15.133 0 17.837-11.322 17.837-17.282v-1.668c0 5.96-2.704 17.282-17.836 17.282h-6.93c-11.563 0-17.146-7.708-17.146-17.282z" id="path4479" opacity="1" fill="url(#linearGradient4483)" fill-opacity="1" stroke="none" stroke-width="1.1" stroke-linecap="square" stroke-linejoin="bevel" stroke-miterlimit="4" stroke-dasharray="none" stroke-dashoffset="0" stroke-opacity=".078"/><path d="M19.342 2.965h8.495c13.907 0 16.804 11.246 16.804 17.282v7.123c0 5.96-2.704 17.282-17.836 17.282h-6.93c-11.563 0-17.146-7.708-17.146-17.282v-7.123c0-9.575 5.47-17.282 16.613-17.282z" id="path4481" opacity="1" fill="url(#linearGradient1147)" fill-opacity="1" stroke="#000" stroke-width=".334" stroke-linecap="square" stroke-linejoin="bevel" stroke-miterlimit="4" stroke-dasharray="none" stroke-dashoffset="0" stroke-opacity=".078"/><path id="circle32-7-8-3" d="M23.685 8.507A15.013 15.301 0 0 0 8.67 23.808 15.013 15.301 0 0 0 23.685 39.11a15.013 15.301 0 0 0 15.013-15.3A15.013 15.301 0 0 0 23.685 8.506zm0 1.7c2.502 0 4.17 1.7 4.17 1.7s-.995 3.445-1.668 5.1c-.714 1.757-2.502 5.101-2.502 5.101s-1.788-3.344-2.502-5.1c-.673-1.656-1.669-5.1-1.669-5.1s1.669-1.7 4.17-1.7zm-5.308 2.18s1.686 3.154 2.36 4.81c.713 1.756 1.768 5.41 1.768 5.41s-3.584-1.076-5.307-1.804c-1.625-.687-4.72-2.404-4.72-2.404s0-2.406 1.77-4.209c1.769-1.803 4.13-1.803 4.13-1.803zm10.615 0s2.36 0 4.13 1.803 1.77 4.209 1.77 4.209-3.095 1.718-4.72 2.404c-1.723.728-5.308 1.803-5.308 1.803s1.055-3.653 1.77-5.409c.673-1.656 2.358-4.81 2.358-4.81zm-16.983 7.17s3.38 1.015 5.005 1.701c1.723.728 5.004 2.55 5.004 2.55s-3.28 1.823-5.004 2.55c-1.625.686-5.005 1.7-5.005 1.7s-1.668-1.7-1.668-4.25 1.668-4.25 1.668-4.25zm23.355 0s1.668 1.701 1.668 4.251c0 2.55-1.668 4.25-1.668 4.25s-3.38-1.014-5.005-1.7c-1.723-.727-5.004-2.55-5.004-2.55s3.28-1.822 5.004-2.55c1.625-.686 5.005-1.7 5.005-1.7zM22.507 25.01s-1.055 3.653-1.77 5.41c-.673 1.655-2.358 4.81-2.358 4.81s-2.36 0-4.13-1.804c-1.769-1.803-1.769-4.209-1.769-4.209s3.095-1.718 4.72-2.404c1.723-.727 5.307-1.803 5.307-1.803zm2.357 0s3.585 1.076 5.308 1.803c1.625.687 4.72 2.404 4.72 2.404s0 2.406-1.77 4.209c-1.77 1.803-4.13 1.803-4.13 1.803s-1.685-3.154-2.359-4.81c-.714-1.756-1.769-5.409-1.769-5.409zm-1.178.498s1.789 3.344 2.503 5.1c.673 1.657 1.668 5.101 1.668 5.101s-1.668 1.7-4.17 1.7c-2.503 0-4.17-1.7-4.17-1.7s.994-3.444 1.667-5.1c.714-1.757 2.502-5.1 2.502-5.1z" fill="#fff" fill-opacity="1" stroke-width="1.779" stroke-linecap="round" stroke-linejoin="round"/></svg>