<svg xmlns:osb="http://www.openswatchbook.org/uri/2009/osb" xmlns="http://www.w3.org/2000/svg" xmlns:xlink="http://www.w3.org/1999/xlink" width="48" height="48" version="1.1" id="svg38"><defs id="defs22"><linearGradient id="linearGradient4488"><stop id="stop4490" offset="0" stop-color="#000" stop-opacity=".047"/><stop id="stop4492" offset="1" stop-color="#000" stop-opacity="0"/></linearGradient><style id="style4511"/><style id="style4511-26"/><style id="style4511-9"/><style id="style4552"/><style id="style4511-2"/><linearGradient xlink:href="#linearGradient4488" id="linearGradient4540" gradientUnits="userSpaceOnUse" gradientTransform="translate(-62.889 1.994) scale(.3038)" x1="288.112" y1="141.785" x2="287.575" y2="79.008"/><linearGradient osb:paint="solid" id="linearGradient5293"><stop id="stop5295" offset="0" stop-color="#9a89c0" stop-opacity="1"/></linearGradient><linearGradient gradientUnits="userSpaceOnUse" gradientTransform="matrix(2.6002 0 0 .04343 60.894 36.867)" id="linearGradient-7" y2="25.675" x2="4.536" y1="17.964" x1="4.536"><stop id="stop18-1" offset="0%" stop-color="#F7F7F7"/><stop id="stop20-2" offset="100%" stop-color="#F7F7F7"/></linearGradient></defs><style id="style4485" type="text/css"/><rect id="Mask" x="63.147" y="78.204" width="20.231" height="20.096" rx=".581" fill="#f1f1f1" fill-opacity="1" fill-rule="evenodd" stroke="none" stroke-width=".336"/><path d="M82.713 37.983a.675.675 0 0 0-.584-.335H63.246a.675.675 0 0 0-.584.335z" id="use70" fill="url(#linearGradient-7)" fill-rule="evenodd" stroke="none" stroke-width=".336"/><ellipse ry="23.001" rx="22.788" cx="128.339" cy="1.439" id="circle6" fill="#00b2de" stroke-width="1.205"/><g id="g1226" fill-opacity="1"><path d="M2.75 26.22v1.67c0 9.573 5.583 17.281 17.146 17.281h6.93c15.132 0 17.836-11.322 17.836-17.282v-1.668c0 5.96-2.704 17.282-17.836 17.282h-6.93C8.333 43.503 2.75 35.795 2.75 26.22z" id="path4516" opacity="1" fill="url(#linearGradient4540)" stroke="none" stroke-width="1.1" stroke-linecap="square" stroke-linejoin="bevel" stroke-miterlimit="4" stroke-dasharray="none" stroke-dashoffset="0" stroke-opacity=".078"/><path d="M19.363 2.742h8.495c13.908 0 16.804 11.247 16.804 17.282v7.124c0 5.96-2.704 17.282-17.836 17.282h-6.93C8.333 44.43 2.75 36.722 2.75 27.148v-7.124c0-9.574 5.47-17.282 16.613-17.282z" id="path4518" opacity="1" fill="#f2f2f2" stroke="#000" stroke-width=".334" stroke-linecap="square" stroke-linejoin="bevel" stroke-miterlimit="4" stroke-dasharray="none" stroke-dashoffset="0" stroke-opacity=".078"/><path d="M19.742 4.32h7.843c12.841 0 15.516 10.438 15.516 16.04v6.61c0 5.532-2.497 16.04-16.469 16.04h-6.398c-10.676 0-15.831-7.153-15.831-16.04v-6.61c0-8.887 5.05-16.04 15.339-16.04z" id="path4518-0" opacity="1" fill="#00b2de" stroke="#000" stroke-width=".309" stroke-linecap="square" stroke-linejoin="bevel" stroke-miterlimit="4" stroke-dasharray="none" stroke-dashoffset="0" stroke-opacity=".078"/><path id="path8" d="M20.78 4.136c-3.078 0-6.006.597-8.666 1.78a23.814 23.814 0 0 0-1.777 9.055c0 12.608 9.851 22.83 22.003 22.83 3.078 0 5.889-.734 8.549-1.917 1.572-2.562 2.236-5.708 2.236-8.901 0-3.153.157-6.515-.219-9.624-.355-2.928-2.24-7.096-4.23-9.162-1.991-2.065-4.668-3-7.3-3.598-2.803-.636-7.558-.463-10.596-.463z" fill="#32c9e8" stroke-width="1.18"/></g></svg>