<svg xmlns:osb="http://www.openswatchbook.org/uri/2009/osb" xmlns="http://www.w3.org/2000/svg" width="48" height="48" version="1.1" id="svg38"><defs id="defs22"><style id="style4511"/><style id="style4511-26"/><style id="style4511-9"/><style id="style4552"/><style id="style4511-2"/><linearGradient osb:paint="solid" id="linearGradient5293"><stop id="stop5295" offset="0" stop-color="#9a89c0" stop-opacity="1"/></linearGradient></defs><style id="style4485" type="text/css"/><path id="path4518" d="M19.592 3.308h8.612c14.098 0 17.034 11.287 17.034 17.345v7.149c0 5.981-2.74 17.345-18.08 17.345h-7.025c-11.721 0-17.381-7.736-17.381-17.345v-7.15c0-9.609 5.545-17.344 16.84-17.344z" opacity="1" fill="#ececec" fill-opacity="1" stroke="#000" stroke-width=".337" stroke-linecap="square" stroke-linejoin="bevel" stroke-miterlimit="4" stroke-dasharray="none" stroke-dashoffset="0" stroke-opacity=".078"/><g id="g1393" transform="matrix(.84982 0 0 .75107 49.138 9.402)"><g transform="translate(-52.309 -3.527)" id="g1308"><g id="g1306"><path id="path1280" d="M33.923 2.466S31 5.982 31 11.096v29.78s-.933-2.145-3.63-.006c0 0-10.645 7.883-18.525-1.118 0 0-9.617-12.843 4.604-26.92 4.108-4.066 9.973-8.149 20.474-10.366z" fill="#ff9600"/><path id="path1282" d="M9.692 17.655S11 19.862 11 23.071v18.507s1.253-.987 2.953.386c0 0 7.586 4.91 12.688-.908 0 0 6.221-8.06-3.212-16.895-2.724-2.552-6.772-5.114-13.737-6.506z" fill="#fff"/><g id="g1304" fill="#00a4d8"><path id="path1284" d="M18.079 38.88h-2.853v-2.272h2.853v.572h-2.3v1.143h2.3z"/><path id="path1286" d="M19.227 38.889h-.572v-2.866h.572z"/><path id="path1288" d="M22.66 38.889h-2.862v-2.295h2.862zm-.581-.58V37.18H20.37v1.129z"/><path id="path1290" d="M26.102 38.889h-.581v-.567h-.562v-.571h-.572v-.571h-.576v1.709h-.571v-2.295h1.147v.585h.572v.571h.562v-1.157h.581z"/><path id="path1292" d="M29.531 38.889h-2.848v-2.281h2.848v.572h-.571v.576h-.571v-.576h-1.152v1.156h2.295v.553z"/><path id="path1294" d="M32.964 38.889h-2.862v-.581h1.139v-.567h.571v-.561h-1.71v-.585h2.862v.585h-.581v.562h-.571v.567h1.152z"/><path id="path1296" d="M34.088 36.608h-.571v-.571h.571zm0 2.29h-.571v-1.714h.571z"/><path id="path1298" d="M35.218 38.889h-.572v-2.866h.572z"/><path id="path1300" d="M36.361 38.889h-.572v-2.866h.572z"/><path id="path1302" d="M39.78 38.898h-2.848v-1.705h.553v-.572h2.295zm-.572-.553v-1.152h-1.724v1.152z"/></g></g></g></g></svg>