<svg xmlns:osb="http://www.openswatchbook.org/uri/2009/osb" xmlns="http://www.w3.org/2000/svg" xmlns:xlink="http://www.w3.org/1999/xlink" width="48" height="48" version="1.1" id="svg38"><defs id="defs22"><linearGradient id="linearGradient4488"><stop id="stop4490" offset="0" stop-color="#000" stop-opacity=".047"/><stop id="stop4492" offset="1" stop-color="#000" stop-opacity="0"/></linearGradient><style id="style4511"/><style id="style4511-26"/><style id="style4511-9"/><style id="style4552"/><style id="style4511-2"/><linearGradient xlink:href="#linearGradient4488" id="linearGradient4540" gradientUnits="userSpaceOnUse" gradientTransform="translate(-62.889 1.994) scale(.3038)" x1="288.112" y1="141.785" x2="287.575" y2="79.008"/><linearGradient osb:paint="solid" id="linearGradient5293"><stop id="stop5295" offset="0" stop-color="#9a89c0" stop-opacity="1"/></linearGradient><clipPath id="clipPath-554390653"/></defs><style id="style4485" type="text/css"/><path id="path4516" d="M2.75 26.22v1.67c0 9.573 5.583 17.281 17.146 17.281h6.93c15.132 0 17.836-11.322 17.836-17.282v-1.668c0 5.96-2.704 17.282-17.836 17.282h-6.93C8.333 43.503 2.75 35.795 2.75 26.22z" opacity="1" fill="url(#linearGradient4540)" fill-opacity="1" stroke="none" stroke-width="1.1" stroke-linecap="square" stroke-linejoin="bevel" stroke-miterlimit="4" stroke-dasharray="none" stroke-dashoffset="0" stroke-opacity=".078"/><path id="path4518" d="M19.65 3.605h8.496c13.907 0 16.804 11.247 16.804 17.282v7.123c0 5.96-2.704 17.283-17.836 17.283h-6.93c-11.563 0-17.146-7.708-17.146-17.283v-7.123c0-9.574 5.47-17.282 16.613-17.282z" opacity="1" fill="#4d4d4d" fill-opacity="1" stroke="#000" stroke-width=".334" stroke-linecap="square" stroke-linejoin="bevel" stroke-miterlimit="4" stroke-dasharray="none" stroke-dashoffset="0" stroke-opacity=".078"/><path id="path523" d="M19.646 19.37h7.488c.145 0 .258.09.258.203v9.594c0 .109-.113.203-.258.203h-7.488c-.141 0-.254-.094-.254-.203v-9.594c0-.113.113-.203.254-.203m0 0" fill="#dedede" fill-opacity="1" fill-rule="nonzero" stroke="none"/><path id="path525" d="M25.392 29.37l10 6-12-24m2 18" fill="#eb2035" fill-opacity="1" fill-rule="nonzero" stroke="none"/><path id="path527" d="M11.392 35.37h24l-16-10m-8 10" fill="#49cf3d" fill-opacity="1" fill-rule="nonzero" stroke="none"/><path id="path529" d="M23.392 11.37l1 8.422-13 15.578m12-24" fill="#3db2cc" fill-opacity="1" fill-rule="nonzero" stroke="none"/></svg>