<svg xmlns="http://www.w3.org/2000/svg" xmlns:xlink="http://www.w3.org/1999/xlink" width="48" height="48" version="1.1" id="svg38"><defs id="defs22"><linearGradient id="linearGradient3764" x1="1" x2="47" gradientUnits="userSpaceOnUse" gradientTransform="rotate(-90 -5.55 48.287)"><stop stop-color="#e4e4e4" stop-opacity="1" id="stop1294"/><stop offset="1" stop-color="#eee" stop-opacity="1" id="stop1296"/></linearGradient><linearGradient id="linearGradient4488"><stop id="stop4490" offset="0" stop-color="#000" stop-opacity=".047"/><stop id="stop4492" offset="1" stop-color="#000" stop-opacity="0"/></linearGradient><style id="style4511"/><style id="style4511-26"/><style id="style4511-9"/><style id="style4552"/><style id="style4511-2"/><linearGradient xlink:href="#linearGradient4488" id="linearGradient4548" gradientUnits="userSpaceOnUse" gradientTransform="translate(-62.55 1.994) scale(.3038)" x1="288.112" y1="141.785" x2="287.575" y2="79.008"/><clipPath id="clipPath-241417912"/><linearGradient xlink:href="#linearGradient3764" id="linearGradient1305" x1="2.921" y1="23.586" x2="45.168" y2="23.586" gradientUnits="userSpaceOnUse"/></defs><style id="style4485" type="text/css"/><path stroke-miterlimit="4" id="path4532" d="M3.088 26.22v1.67c0 9.573 5.583 17.281 17.146 17.281h6.93c15.133 0 17.837-11.322 17.837-17.282v-1.668c0 5.96-2.704 17.282-17.837 17.282h-6.93c-11.563 0-17.146-7.708-17.146-17.282z" opacity="1" fill="url(#linearGradient4548)" fill-opacity="1" stroke="none" stroke-width="1.1" stroke-linecap="square" stroke-linejoin="bevel" stroke-dasharray="none" stroke-dashoffset="0" stroke-opacity=".078"/><path stroke-miterlimit="4" id="path4534" d="M19.701 2.742h8.495c13.908 0 16.805 11.247 16.805 17.282v7.124c0 5.96-2.704 17.282-17.837 17.282h-6.93c-11.562 0-17.146-7.708-17.146-17.282v-7.124c0-9.574 5.47-17.282 16.613-17.282z" opacity="1" fill="url(#linearGradient1305)" fill-opacity="1" stroke="#000" stroke-width=".334" stroke-linecap="square" stroke-linejoin="bevel" stroke-dasharray="none" stroke-dashoffset="0" stroke-opacity=".078"/><path id="path385" d="M13.147 11.586h7.797c.609 0 1.102.559 1.102 1.246v7.512c0 .688-.492 1.242-1.102 1.242h-7.797c-.605 0-1.105-.555-1.105-1.242v-7.512c0-.688.496-1.246 1.105-1.246m0 0" fill="#ec1a3e" fill-opacity="1" fill-rule="nonzero" stroke="none"/><path id="path387" d="M27.147 11.586h7.797c.609 0 1.102.559 1.102 1.246v7.512c0 .688-.492 1.242-1.102 1.242h-7.797c-.605 0-1.105-.555-1.105-1.242v-7.512c0-.688.496-1.246 1.105-1.246m0 0" fill="#0ac819" fill-opacity="1" fill-rule="nonzero" stroke="none"/><path id="path389" d="M13.147 25.586h7.797c.609 0 1.102.559 1.102 1.246v7.512c0 .684-.492 1.242-1.102 1.242h-7.797c-.605 0-1.105-.559-1.105-1.242v-7.512c0-.688.496-1.246 1.105-1.246m0 0" fill="#e5b700" fill-opacity="1" fill-rule="nonzero" stroke="none"/><path id="path391" d="M27.147 25.586h7.797c.609 0 1.102.559 1.102 1.246v7.512c0 .684-.492 1.242-1.102 1.242h-7.797c-.605 0-1.105-.559-1.105-1.242v-7.512c0-.688.496-1.246 1.105-1.246m0 0" fill="#288dd6" fill-opacity="1" fill-rule="nonzero" stroke="none"/></svg>