<svg xmlns:osb="http://www.openswatchbook.org/uri/2009/osb" xmlns="http://www.w3.org/2000/svg" xmlns:xlink="http://www.w3.org/1999/xlink" width="48" height="48" version="1.1" id="svg38"><defs id="defs22"><linearGradient id="linearGradient3764-367535" x1="1" x2="47" gradientUnits="userSpaceOnUse" gradientTransform="rotate(-90 -.23 48.143)"><stop stop-color="#e4e4e4" stop-opacity="1" id="stop1510"/><stop offset="1" stop-color="#eee" stop-opacity="1" id="stop1512"/></linearGradient><style id="style4511"/><style id="style4511-26"/><style id="style4511-9"/><style id="style4552"/><style id="style4511-2"/><linearGradient osb:paint="solid" id="linearGradient5293"><stop id="stop5295" offset="0" stop-color="#9a89c0" stop-opacity="1"/></linearGradient><linearGradient xlink:href="#linearGradient3764-367535" id="linearGradient1521" x1="2.58" y1="23.869" x2="45.553" y2="23.869" gradientUnits="userSpaceOnUse"/></defs><style id="style4485" type="text/css"/><path id="path4518" d="M19.649 2.742h8.64c14.148 0 17.094 11.4 17.094 17.517v7.22c0 6.04-2.75 17.516-18.143 17.516h-7.05c-11.76 0-17.44-7.812-17.44-17.517v-7.22c0-9.703 5.564-17.516 16.899-17.516z" opacity="1" fill="url(#linearGradient1521)" fill-opacity="1" stroke="#000" stroke-width=".339" stroke-linecap="square" stroke-linejoin="bevel" stroke-miterlimit="4" stroke-dasharray="none" stroke-dashoffset="0" stroke-opacity=".078"/><path id="path1426" d="M8.516 10.365l-.262 2.549-2.201 1.327 2.556.256 1.326 2.197.26-2.553 2.202-1.323-2.556-.26m-1.325-2.193" fill="#09f" fill-opacity="1" fill-rule="nonzero" stroke="none"/><g id="g1431" transform="matrix(.79146 0 0 .78901 5.071 4.233)"><g id="g1413"><path id="polygon1407" fill="#ffce00" d="M4 36.96V22.463l11.034-4.582 13.104 3.7-.69 14.689-10.345 5.966z"/><path id="polygon1409" fill="#dca900" d="M4 36.96V22.463l13.103 4.478v15.295z"/><path id="polygon1411" fill="#a67300" d="M28.138 36.27V21.773l-11.035 5.168v15.295z"/></g><g id="g1421"><path id="polygon1415" fill="#78e94f" d="M20.552 40.408V25.719l11.034-4.389L44 24.532v14.497l-10.345 5.966z"/><path id="polygon1417" fill="#29ac13" d="M20.552 40.408V25.911l13.103 3.788v15.296z"/><path id="polygon1419" fill="#007200" d="M44 39.029V24.532l-10.345 5.167v15.296z"/></g><g id="g1429"><path id="polygon1423" fill="#58a4ea" d="M11.586 23.07V8.893l10.485-4.115L35.352 7.98v14.497l-10.485 5.276z"/><path id="polygon1425" fill="#0080e6" d="M11.586 23.07V8.893l13.281 3.565v15.295z"/><path id="polygon1427" fill="#003ca2" d="M35.352 22.477V7.98l-10.485 4.478v15.295z"/></g></g></svg>