<svg xmlns="http://www.w3.org/2000/svg" xmlns:xlink="http://www.w3.org/1999/xlink" width="48" height="48" version="1.1" id="svg38"><defs id="defs22"><linearGradient id="linearGradient4488"><stop id="stop4490" offset="0" stop-color="#000" stop-opacity=".047"/><stop id="stop4492" offset="1" stop-color="#000" stop-opacity="0"/></linearGradient><style id="style4511"/><style id="style4511-26"/><style id="style4511-9"/><linearGradient gradientUnits="userSpaceOnUse" x2="19.574" y2="22.495" x1="3.783" y1="23.644" id="g-5"><stop id="stop24-2" stop-color="#2980b9"/><stop id="stop26" stop-color="#34495e" offset="1"/></linearGradient><style id="style4552"/><style id="style4511-2"/><linearGradient gradientTransform="matrix(.3082 0 0 .3038 -64.056 2.216)" xlink:href="#linearGradient4488" id="linearGradient4160" x1="288.112" y1="141.785" x2="287.575" y2="79.008" gradientUnits="userSpaceOnUse"/><filter id="filter1948" x="-.048" width="1.097" y="-.048" height="1.095" color-interpolation-filters="sRGB"><feGaussianBlur stdDeviation="3.024" id="feGaussianBlur1950"/></filter><radialGradient xlink:href="#g-5" id="radialGradient1411" cx="23.795" cy="23.808" fx="23.795" fy="23.808" r="21.428" gradientTransform="matrix(1 0 0 .98056 0 .463)" gradientUnits="userSpaceOnUse"/></defs><style id="style4485" type="text/css"/><path d="M2.535 26.443v1.668c0 9.575 5.664 17.282 17.394 17.282h7.031c15.352 0 18.095-11.322 18.095-17.282v-1.668c0 5.96-2.743 17.282-18.095 17.282h-7.03c-11.73 0-17.395-7.708-17.395-17.282z" id="path4147" opacity="1" fill="url(#linearGradient4160)" fill-opacity="1" stroke="none" stroke-width="1.108" stroke-linecap="square" stroke-linejoin="bevel" stroke-miterlimit="4" stroke-dasharray="none" stroke-dashoffset="0" stroke-opacity=".078"/><path d="M19.389 2.965h8.618c14.11 0 17.048 11.246 17.048 17.282v7.123c0 5.96-2.743 17.282-18.095 17.282h-7.03c-11.73 0-17.395-7.708-17.395-17.282v-7.123c0-9.575 5.55-17.282 16.854-17.282z" id="rect4144" opacity="1" fill="url(#radialGradient1411)" fill-opacity="1" stroke="#000" stroke-width=".337" stroke-linecap="square" stroke-linejoin="bevel" stroke-miterlimit="4" stroke-dasharray="none" stroke-dashoffset="0" stroke-opacity=".078"/><g id="g1934" transform="matrix(.16413 0 0 .1623 15.575 12.067)" opacity=".4" fill="#3d341d" fill-opacity="1" filter="url(#filter1948)"><path d="M49.85-11.596c-9.764 16.362-12.823 24.303-9.3 34.717 3.194 9.44 11.621 14.496 7.47 36.328 6.817-10.637 11.945-24.478 6.592-35.376-5.443-11.084-8.184-17.607-4.76-35.669zM68.968-4.49c-6.756 9.993-8.363 15.71-5.347 22.705 3.071 7.123 6.525 8.079 2.49 18.457 7.444-8.394 7.827-13.855 4.761-20.361-3.128-6.637-6.361-9.075-1.904-20.801zM30.515 7.814c-6.13 10.527-8.037 15.632-5.713 22.265 2.107 6.013 7.482 9.16 4.98 23.145 7.679-9.688 7.429-16.575 4.029-22.705-3.315-5.977-5.36-11.136-3.296-22.705zM-2.225 65.82v18.75c0 20.775 8.363 37.5 18.75 37.5h56.25c8.765 0 16.09-11.925 18.165-28.125h14.648a7.016 7.016 0 0 0 7.031-7.03V72.852a7.016 7.016 0 0 0-7.031-7.032H91.526zm9.302 4.615h4.761V84.57c.121 10.458-1.272 26.964 9.375 32.886h-3.516c-10.8-5.091-9.74-22.944-10.62-32.886zm84.449 2.417h9.668a4.385 4.385 0 0 1 4.394 4.394v5.86a4.385 4.385 0 0 1-4.394 4.394h-9.742c.038-.979.073-1.93.073-2.93zM-30.35 126.759c0 7.79 16.725 14.062 37.5 14.062h75c20.775 0 37.5-6.271 37.5-14.062z" id="path1932" style="marker:none" color="#000" display="inline" overflow="visible" visibility="visible" fill="#3d341d" fill-opacity="1" fill-rule="nonzero" stroke="none" stroke-width="2.344" enable-background="accumulate"/></g><g transform="matrix(.16413 0 0 .1623 15.575 12.067)" id="layer4" fill="#ffefc5" fill-opacity="1"><path style="marker:none" id="rect3675" d="M49.85-11.596c-9.764 16.362-12.823 24.303-9.3 34.717 3.194 9.44 11.621 14.496 7.47 36.328 6.817-10.637 11.945-24.478 6.592-35.376-5.443-11.084-8.184-17.607-4.76-35.669zM68.968-4.49c-6.756 9.993-8.363 15.71-5.347 22.705 3.071 7.123 6.525 8.079 2.49 18.457 7.444-8.394 7.827-13.855 4.761-20.361-3.128-6.637-6.361-9.075-1.904-20.801zM30.515 7.814c-6.13 10.527-8.037 15.632-5.713 22.265 2.107 6.013 7.482 9.16 4.98 23.145 7.679-9.688 7.429-16.575 4.029-22.705-3.315-5.977-5.36-11.136-3.296-22.705zM-2.225 65.82v18.75c0 20.775 8.363 37.5 18.75 37.5h56.25c8.765 0 16.09-11.925 18.165-28.125h14.648a7.016 7.016 0 0 0 7.031-7.03V72.852a7.016 7.016 0 0 0-7.031-7.032H91.526zm9.302 4.615h4.761V84.57c.121 10.458-1.272 26.964 9.375 32.886h-3.516c-10.8-5.091-9.74-22.944-10.62-32.886zm84.449 2.417h9.668a4.385 4.385 0 0 1 4.394 4.394v5.86a4.385 4.385 0 0 1-4.394 4.394h-9.742c.038-.979.073-1.93.073-2.93zM-30.35 126.759c0 7.79 16.725 14.062 37.5 14.062h75c20.775 0 37.5-6.271 37.5-14.062z" color="#000" display="inline" overflow="visible" visibility="visible" fill="#ffefc5" fill-opacity="1" fill-rule="nonzero" stroke="none" stroke-width="2.344" enable-background="accumulate"/></g></svg>