<svg height="48" width="48" xmlns="http://www.w3.org/2000/svg">
    <g fill-rule="evenodd">
        <path d="M18.9 3.309c-2.635 0-4.943.445-6.947 1.23L23.25 24.17l.428-20.86z" fill="#efe57a"/>
        <path d="M23.248 24.135l-11.707 19.35c2.224.964 4.845 1.511 7.893 1.511h3.783l.031-20.861z" fill="#3b3687"/>
        <path d="M23.272 3.309l-.031 20.863L34.996 4.74c-2.067-.896-4.572-1.431-7.6-1.431h-4.124z" fill="#f3d23b"/>
        <path d="M23.256 24.139L3.55 34.984c1.473 3.907 4.25 7.02 8.397 8.682z" fill="#115f95"/>
        <path d="M34.582 4.574l-11.35 19.594L42.89 13.35c-1.32-3.53-3.82-6.985-8.307-8.776z" fill="#e8ae30"/>
        <path d="M2.287 23.717v3.998c0 2.766.482 5.367 1.424 7.681l19.55-11.25z" fill="#209a66"/>
        <path d="M42.73 12.936L23.228 24.16l20.972.43v-3.998c0-2.141-.377-4.938-1.468-7.656z" fill="#dc6c34"/>
        <path d="M3.865 12.422c-1.05 2.43-1.578 5.21-1.578 8.17v3.535l20.975.03L3.865 12.421z" fill="#7eb439"/>
        <path d="M23.225 24.15l19.308 11.68c1.284-2.872 1.666-5.873 1.666-8.115V24.18l-20.974-.03z" fill="#c21c5d"/>
        <path d="M12.375 4.389c-4.22 1.518-7.104 4.555-8.67 8.45l19.553 11.327z" fill="#d4d53e"/>
        <path d="M23.23 24.14l10.8 19.624c4.654-1.707 7.26-4.965 8.667-8.346z" fill="#a41b69"/>
        <path d="M23.239 24.135l-.428 20.861h3.553c3.229 0 5.888-.517 8.08-1.387z" fill="#822166"/>
    </g>
</svg>
