<svg xmlns="http://www.w3.org/2000/svg" xmlns:xlink="http://www.w3.org/1999/xlink" width="48" height="48" id="svg6826" version="1.0"><defs id="defs6828"><filter id="filter6444" x="-.269" width="1.537" y="-.089" height="1.179"><feGaussianBlur stdDeviation="1.082" id="feGaussianBlur6446"/></filter><filter id="filter6531" x="-.319" width="1.639" y="-.063" height="1.125"><feGaussianBlur stdDeviation=".622" id="feGaussianBlur6533"/></filter><linearGradient id="linearGradient11579"><stop offset="0" id="stop11581" stop-color="#000" stop-opacity="1"/><stop offset="1" id="stop11583" stop-color="#000" stop-opacity="0"/></linearGradient><clipPath clipPathUnits="userSpaceOnUse" id="clipPath11530"><path style="marker:none" d="M118.625 209.5c2.583-.388 5.167-.51 7.75.75 0 0 .282 5.481-1.625 5.625-2.378.18-6.125-6.375-6.125-6.375z" id="path11532" overflow="visible" opacity="1" fill="none" fill-opacity="1" fill-rule="nonzero" stroke="#000" stroke-width=".088" stroke-linecap="butt" stroke-linejoin="miter" stroke-miterlimit="4" stroke-dasharray="none" stroke-dashoffset="0" stroke-opacity="1" visibility="visible" display="inline"/></clipPath><linearGradient id="linearGradient12477"><stop offset="0" id="stop12479" stop-color="#616161" stop-opacity="1"/><stop offset="1" id="stop12481" stop-color="#000" stop-opacity="1"/></linearGradient><filter id="filter12325" x="-.107" width="1.214" y="-.082" height="1.164"><feGaussianBlur stdDeviation="1.449" id="feGaussianBlur12327"/></filter><linearGradient id="linearGradient12297"><stop offset="0" id="stop12299" stop-color="#fdfcbc" stop-opacity="1"/><stop offset="1" id="stop12301" stop-color="#fdfcbc" stop-opacity="0"/></linearGradient><linearGradient id="linearGradient6499"><stop offset="0" id="stop6501" stop-color="#fff" stop-opacity="1"/><stop offset="1" id="stop6503" stop-color="#a7cc5c" stop-opacity="1"/></linearGradient><radialGradient xlink:href="#linearGradient12297" id="radialGradient2806" gradientUnits="userSpaceOnUse" gradientTransform="matrix(1 0 0 .4923 0 89.646)" cx="142.75" cy="172.867" fx="142.75" fy="172.867" r="16.25"/><radialGradient xlink:href="#linearGradient12297" id="radialGradient3895" gradientUnits="userSpaceOnUse" gradientTransform="matrix(1 0 0 .4923 0 89.646)" cx="142.75" cy="172.867" fx="142.75" fy="172.867" r="16.25"/><radialGradient xlink:href="#linearGradient6499" id="radialGradient2587" gradientUnits="userSpaceOnUse" gradientTransform="matrix(1.411 0 -.00005 1.52318 -129.589 -88.508)" cx="315.073" cy="169.69" fx="315.073" fy="169.69" r="8.626"/><linearGradient xlink:href="#linearGradient11579" id="linearGradient2592" gradientUnits="userSpaceOnUse" gradientTransform="translate(302.937 165.2) scale(.08752)" x1="182.102" y1="187.813" x2="183.494" y2="191.967"/><linearGradient xlink:href="#linearGradient11579" id="linearGradient2594" gradientUnits="userSpaceOnUse" gradientTransform="translate(302.928 165.216) scale(.08752)" x1="182.102" y1="187.813" x2="183.494" y2="191.967"/><radialGradient xlink:href="#linearGradient12477" id="radialGradient2596" gradientUnits="userSpaceOnUse" gradientTransform="matrix(.52941 0 0 .7 81.176 34.5)" cx="172.5" cy="104.071" fx="172.5" fy="104.071" r="8.5"/><radialGradient xlink:href="#linearGradient12477" id="radialGradient2600" gradientUnits="userSpaceOnUse" gradientTransform="matrix(.52941 0 0 .7 81.176 34.5)" cx="172.5" cy="104.071" fx="172.5" fy="104.071" r="8.5"/><linearGradient id="linearGradient4488"><stop offset="0" id="stop4490" stop-color="#000" stop-opacity=".047"/><stop offset="1" id="stop4492" stop-color="#000" stop-opacity="0"/></linearGradient><style id="style4511"/><style id="style4511-26"/><style id="style4511-9"/><style id="style4552"/><style id="style4511-2"/><linearGradient gradientUnits="userSpaceOnUse" y2="79.008" x2="287.575" y1="141.785" x1="288.112" id="linearGradient4160" xlink:href="#linearGradient4488" gradientTransform="translate(-63.639 1.773) scale(.3038)"/></defs><g id="layer1"><path xlink:href="#path6824" style="marker:none" id="path7025" d="M24 3.5A14.496 14.496 0 0 1 3.5 24 14.496 14.496 0 0 1 24 44.5 14.496 14.496 0 0 1 44.5 24 14.496 14.496 0 0 1 24 3.5z" transform="translate(-706.906 -383.688) scale(2.3197)" display="inline" overflow="visible" visibility="visible" fill="none" fill-opacity="1" fill-rule="nonzero" stroke="url(#radialGradient2587)" stroke-width=".431" stroke-linecap="round" stroke-linejoin="round" stroke-miterlimit="4" stroke-dasharray="none" stroke-dashoffset="0" stroke-opacity="1"/><g id="g1311" transform="translate(.87 .497)"><path id="path4147" d="M2 26v1.669C2 37.243 7.583 44.95 19.146 44.95h6.93c15.133 0 17.837-11.323 17.837-17.282V26c0 5.96-2.704 17.282-17.837 17.282h-6.93C7.583 43.282 2 35.574 2 26z" opacity="1" fill="url(#linearGradient4160)" fill-opacity="1" stroke="none" stroke-width="1.1" stroke-linecap="square" stroke-linejoin="bevel" stroke-miterlimit="4" stroke-dasharray="none" stroke-dashoffset="0" stroke-opacity=".078"/><path id="rect4144" d="M18.613 2.522h8.495c13.908 0 16.805 11.247 16.805 17.282v7.123c0 5.96-2.705 17.282-17.837 17.282h-6.93C7.583 44.21 2 36.501 2 26.927v-7.123C2 10.23 7.47 2.522 18.613 2.522z" opacity="1" fill="#a0d260" fill-opacity="1" stroke="#000" stroke-width=".334" stroke-linecap="square" stroke-linejoin="bevel" stroke-miterlimit="4" stroke-dasharray="none" stroke-dashoffset="0" stroke-opacity=".078"/><g transform="translate(4.872 7.132) scale(.75759)" id="g1686" opacity="1"><g id="g2734" transform="translate(-.676 -1.971)" visibility="visible" fill-opacity="1" fill-rule="nonzero" stroke-linecap="butt" stroke-linejoin="miter" stroke-miterlimit="4" stroke-dasharray="none" stroke-dashoffset="0" stroke-opacity="1"><g transform="scale(-8.3589 8.3589) rotate(40.827 397.424 -337.829)" id="g5835"><g transform="scale(-1 1) rotate(34.848 .276 -824.952)" id="g5837"><path id="path5839" d="M313.212 183.48c.226-.035.452-.045.678.065 0 0 .025.48-.142.492-.208.016-.536-.558-.536-.558z" style="marker:none" display="inline" overflow="visible" opacity="1" fill="#a4ac9b" stroke="none" stroke-width="5"/><path clip-path="url(#clipPath11530)" style="marker:none" d="M118.625 209.5c2.583-.388 5.167-.51 7.75.75 0 0 .282 5.481-1.625 5.625-2.378.18-6.125-6.375-6.125-6.375z" id="path5841" transform="translate(302.83 165.144) scale(.08752)" display="inline" overflow="visible" opacity=".6" fill="none" stroke="#000" stroke-width="1.867"/><path id="path5843" d="M313.704 183.95c-.158-.088-.271-.267-.372-.47l.23-.012c0 .177.054.335.142.482z" style="marker:none" display="inline" overflow="visible" opacity="1" fill="#fff" stroke="none" stroke-width="1"/></g><path id="path5845" d="M318.613 181.891l.132.182c.114-.373.245-.49.39-.379l-.003-.251c-.185.109-.374.2-.519.448z" style="marker:none" display="inline" overflow="visible" opacity=".752" fill="url(#linearGradient2592)" stroke="none" stroke-width="1"/></g><g id="g5823" transform="rotate(39.16 3310.156 -2809.681) scale(8.04766)"><g id="g5825" transform="scale(-1 1) rotate(34.848 .276 -824.952)"><path style="marker:none" d="M313.228 183.487c.226-.034.452-.044.678.066 0 0 .025.48-.142.492-.208.016-.536-.558-.536-.558z" id="path5827" display="inline" overflow="visible" opacity="1" fill="#a4ac9b" stroke="none" stroke-width="5"/><path transform="translate(302.846 165.151) scale(.08752)" id="path5829" d="M118.625 209.5c2.583-.388 5.167-.51 7.75.75 0 0 .282 5.481-1.625 5.625-2.378.18-6.125-6.375-6.125-6.375z" style="marker:none" clip-path="url(#clipPath11530)" display="inline" overflow="visible" opacity=".6" fill="none" stroke="#000" stroke-width="2.091"/><path style="marker:none" d="M313.72 183.958c-.158-.088-.271-.267-.372-.47l.23-.012c0 .177.054.335.142.482z" id="path5831" display="inline" overflow="visible" opacity="1" fill="#fff" stroke="none" stroke-width="1"/></g><path style="marker:none" d="M318.605 181.907l.131.182c.115-.373.246-.49.391-.38l-.004-.25c-.184.109-.374.2-.518.448z" id="path5833" display="inline" overflow="visible" opacity=".381" fill="url(#linearGradient2594)" stroke="none" stroke-width="1"/></g></g><path d="M6.388 30.406h35.5" id="path2591" fill="none" fill-opacity=".75" fill-rule="evenodd" stroke="#000" stroke-width="1" stroke-linecap="butt" stroke-linejoin="miter" stroke-miterlimit="4" stroke-dasharray="none" stroke-opacity="1"/><g id="g5880" transform="scale(-3.6325 3.6325) rotate(26.837 511.318 -585.825)" display="inline" fill="#070902" fill-opacity="1" visibility="visible" fill-rule="nonzero" stroke="none" stroke-linecap="butt" stroke-linejoin="miter" stroke-miterlimit="4" stroke-dasharray="none" stroke-dashoffset="0" stroke-opacity="1"><g id="g5882" transform="translate(-.038 -.162)" stroke-width="1"><ellipse transform="matrix(.0835 .02755 -.03454 .08153 305.811 160.85)" id="path5884" style="marker:none" cx="177.556" cy="69.59" rx="9.496" ry="6.218" display="inline" overflow="visible" opacity="1" fill-opacity="1"/><ellipse style="marker:none" id="path5886" transform="matrix(.10272 .037 -.04281 .10853 303.094 157.379)" cx="177.556" cy="69.59" rx="9.496" ry="6.218" display="inline" overflow="visible" opacity=".604" fill-opacity=".332"/></g><path id="path5888" d="M317.569 170.65c-.507.607.946 1.414 1.345.646.446-.859-.048-2.03-.566-2.546-.114-.114-.363.013-.33.156.136.601-.117 1.345-.45 1.743z" style="marker:none" display="inline" overflow="visible" opacity="1" stroke-width=".438"/><path style="marker:none" d="M174.777 40.614c.701 7.225.035 13.618-5.263 23.17 1.291 2.46 2.65 4.883 6.547 5.931 5.596-12.023 2.74-21.291-1.284-29.1z" id="path5890" transform="matrix(.08587 -.0022 -.0022 .08263 303.252 166.049)" display="inline" overflow="visible" opacity=".446" stroke-width="1" filter="url(#filter6531)"/><path style="marker:none" d="M180.622 46.373c4.512 10 5.001 18.587-1.26 23.807 1.604-8.459 3.209-16.79 1.26-23.807z" id="path5892" transform="matrix(.08587 -.0022 -.0022 .08263 303.31 166.056)" display="inline" overflow="visible" opacity=".307" stroke-width="1" filter="url(#filter6531)"/></g><g transform="rotate(22.539 2075.298 -2416.916) scale(3.53295)" id="g5865" display="inline" fill="#070902" fill-opacity="1" visibility="visible" fill-rule="nonzero" stroke="none" stroke-linecap="butt" stroke-linejoin="miter" stroke-miterlimit="4" stroke-dasharray="none" stroke-dashoffset="0" stroke-opacity="1"><g transform="translate(-.038 -.162)" id="g5867" stroke-width="1"><ellipse style="marker:none" id="path5869" transform="matrix(.08207 .0321 -.03002 .083 305.576 159.788)" cx="177.556" cy="69.59" rx="9.496" ry="6.218" display="inline" overflow="visible" opacity="1" fill-opacity="1"/><ellipse transform="matrix(.1049 .04089 -.04083 .11201 302.421 156.376)" id="path5871" style="marker:none" cx="177.556" cy="69.59" rx="9.496" ry="6.218" display="inline" overflow="visible" opacity=".604" fill-opacity=".332"/></g><path style="marker:none" d="M317.46 170.577c-.55.626.982 1.419 1.42.633.49-.88-.016-2.059-.56-2.574-.118-.113-.385.02-.353.164.135.608-.147 1.367-.508 1.777z" id="path5873" display="inline" overflow="visible" opacity="1" stroke-width=".438"/><path transform="matrix(.09138 -.00375 -.00375 .0839 302.308 166.162)" id="path5876" d="M174.777 40.614c.701 7.225.035 13.618-5.263 23.17 1.291 2.46 2.65 4.883 6.547 5.931 5.596-12.023 2.74-21.291-1.284-29.1z" style="marker:none" display="inline" overflow="visible" opacity=".668" stroke-width="1" filter="url(#filter6444)"/><path transform="matrix(.09138 -.00375 -.00375 .0839 302.37 166.168)" id="path5878" d="M180.622 46.373c4.512 10 5.001 18.587-1.26 23.807 1.604-8.459 3.209-16.79 1.26-23.807z" style="marker:none" display="inline" overflow="visible" opacity=".668" stroke-width="1" filter="url(#filter6531)"/></g><path transform="matrix(.15385 0 0 -.12941 13.656 47.735)" id="path3893" d="M126.5 187s2.21-41.347 15.5-41.5c13.731-.158 17 42.5 17 42.5-15.307-21.808-23.645-10.165-32.5-1z" display="inline" opacity=".995" fill="url(#radialGradient3895)" fill-opacity="1" fill-rule="evenodd" stroke="none" stroke-width="1" stroke-linecap="butt" stroke-linejoin="miter" stroke-opacity="1" filter="url(#filter12325)"/><g id="g2665" transform="translate(12.128 10.734)"><g id="use12709" transform="matrix(.30013 0 0 .1288 -28.672 -2.677)"><ellipse transform="matrix(.97998 0 0 1.14182 4.753 -19.896)" id="path13214" style="marker:none" cx="172.5" cy="115" rx="8.5" ry="17" display="inline" overflow="visible" visibility="visible" opacity="1" fill="url(#radialGradient2596)" fill-opacity="1" fill-rule="nonzero" stroke="none" stroke-width="1" stroke-linecap="round" stroke-linejoin="round" stroke-miterlimit="4" stroke-dasharray="none" stroke-dashoffset="0" stroke-opacity="1"/></g><circle transform="matrix(1.14017 0 0 1.12919 -348.81 -54.748)" id="path2658" style="marker:none" cx="326.531" cy="57.594" r=".406" display="inline" overflow="visible" visibility="visible" fill="#eeeeec" fill-opacity="1" fill-rule="nonzero" stroke="none" stroke-width="1" stroke-linecap="round" stroke-linejoin="round" stroke-miterlimit="4" stroke-dasharray="none" stroke-dashoffset="0" stroke-opacity="1"/></g><path d="M126.5 187s2.21-41.347 15.5-41.5c13.731-.158 17 42.5 17 42.5-15.307-21.808-23.645-10.165-32.5-1z" id="path2762" transform="matrix(.15385 0 0 -.12941 -9.344 47.735)" display="inline" opacity=".995" fill="url(#radialGradient2806)" fill-opacity="1" fill-rule="evenodd" stroke="none" stroke-width="1" stroke-linecap="butt" stroke-linejoin="miter" stroke-opacity="1" filter="url(#filter12325)"/><g id="g2764" transform="translate(-11.88 10.734)"><g id="g2766" transform="matrix(.30013 0 0 .1288 -28.672 -2.677)"><ellipse transform="matrix(.97998 0 0 1.14182 8.113 -19.896)" id="path2768" style="marker:none" cx="172.5" cy="115" rx="8.5" ry="17" display="inline" overflow="visible" visibility="visible" opacity="1" fill="url(#radialGradient2600)" fill-opacity="1" fill-rule="nonzero" stroke="none" stroke-width="1" stroke-linecap="round" stroke-linejoin="round" stroke-miterlimit="4" stroke-dasharray="none" stroke-dashoffset="0" stroke-opacity="1"/></g><circle transform="matrix(1.14017 0 0 1.12919 -347.802 -54.748)" id="path2772" style="marker:none" cx="326.531" cy="57.594" r=".406" display="inline" overflow="visible" visibility="visible" fill="#eeeeec" fill-opacity="1" fill-rule="nonzero" stroke="none" stroke-width="1" stroke-linecap="round" stroke-linejoin="round" stroke-miterlimit="4" stroke-dasharray="none" stroke-dashoffset="0" stroke-opacity="1"/></g></g></g></g><style type="text/css" id="style4485"/></svg>