<svg xmlns="http://www.w3.org/2000/svg" xmlns:xlink="http://www.w3.org/1999/xlink" width="48" height="48" version="1.1" id="svg38"><defs id="defs22"><linearGradient id="linearGradient4488"><stop id="stop4490" offset="0" stop-color="#000" stop-opacity=".047"/><stop id="stop4492" offset="1" stop-color="#000" stop-opacity="0"/></linearGradient><style id="style4511"/><style id="style4511-26"/><style id="style4511-9"/><style id="style4552"/><style id="style4511-2"/><linearGradient xlink:href="#linearGradient4488" id="linearGradient4546" gradientUnits="userSpaceOnUse" gradientTransform="translate(-62.497 1.994) scale(.3038)" x1="288.112" y1="141.785" x2="287.575" y2="79.008"/></defs><style id="style4485" type="text/css"/><path d="M3.141 26.22v1.67c0 9.573 5.583 17.281 17.146 17.281h6.93c15.133 0 17.837-11.322 17.837-17.282v-1.668c0 5.96-2.704 17.282-17.837 17.282h-6.93c-11.563 0-17.146-7.708-17.146-17.282z" id="path4528" opacity="1" fill="url(#linearGradient4546)" fill-opacity="1" stroke="none" stroke-width="1.1" stroke-linecap="square" stroke-linejoin="bevel" stroke-miterlimit="4" stroke-dasharray="none" stroke-dashoffset="0" stroke-opacity=".078"/><path d="M19.754 2.742h8.495c13.908 0 16.805 11.247 16.805 17.282v7.124c0 5.96-2.704 17.282-17.837 17.282h-6.93c-11.562 0-17.146-7.708-17.146-17.282v-7.124c0-9.574 5.47-17.282 16.613-17.282z" id="path4530" opacity="1" fill="#0bcd74" fill-opacity="1" stroke="#000" stroke-width=".334" stroke-linecap="square" stroke-linejoin="bevel" stroke-miterlimit="4" stroke-dasharray="none" stroke-dashoffset="0" stroke-opacity=".078"/><path d="M21.534 9.669l-.336.16c-.615.291-.666.353-1.677 2.057-.508.855-1.378 2.302-1.934 3.217-.556.914-.993 1.68-.972 1.699.062.058 4.224 2.46 4.26 2.459.017-.001.487-.79 1.044-1.752l1.735-2.998.722-1.246.444.86a31.035 31.035 0 0 0 1.76 3.032l.251.385-.26.149c-1.209.689-1.763 1.02-1.744 1.04.013.014 1.486.42 3.272.903 1.786.483 3.27.878 3.299.88.043.004 1.864-6.61 1.832-6.654-.006-.007-.464.25-1.018.569-.554.32-1.021.564-1.039.545-.018-.02-.648-1.102-1.398-2.405a155.384 155.384 0 0 0-1.457-2.498c-.051-.071-.217-.19-.37-.265l-.275-.137h-6.139zm-4.11 10.856c-.012-.011-1.522.382-3.356.873l-3.336.892.994.572c.547.316 1.004.592 1.017.614.014.021-.6 1.117-1.363 2.437-.763 1.32-1.42 2.49-1.457 2.598-.085.245-.02.673.149 1 .062.12.743 1.293 1.511 2.605 1.354 2.313 1.406 2.394 1.676 2.594.154.114.404.257.557.316.275.11.288.108 3.851.137 1.967.016 3.638.034 3.711.04l.133.009v-5.123h-3.336c-1.834 0-3.334-.011-3.334-.025 0-.035 2.268-3.953 2.316-4.002.022-.022.48.215 1.016.525.537.31.986.553 1 .54.024-.025-1.709-6.56-1.75-6.602zm17.067 1.023c-.018-.022-4.16 2.502-4.173 2.543-.008.023.738 1.354 1.66 2.959a318.433 318.433 0 0 1 1.699 2.978c.018.048-.485.061-2.422.061h-2.447v-2.344l-2.44 2.442-2.441 2.44 2.428 2.429 2.43 2.43.013-1.16.012-1.16 2.863-.003c2.697 0 2.874-.006 3.063-.092.442-.2.53-.327 1.994-2.898a446.26 446.26 0 0 0 1.482-2.615c.125-.234.131-1.09.01-1.387-.046-.112-.499-.927-1.008-1.813a371.287 371.287 0 0 1-1.82-3.205c-.492-.877-.897-1.599-.903-1.605z" id="path12490" opacity="1" fill="#fff" fill-opacity="1" stroke="none" stroke-width=".025" stroke-linecap="round" stroke-linejoin="miter" stroke-miterlimit="4" stroke-dasharray="none" stroke-opacity="1"/></svg>