<svg xmlns="http://www.w3.org/2000/svg" xmlns:xlink="http://www.w3.org/1999/xlink" width="48" height="48" version="1.1" id="svg38"><defs id="defs22"><linearGradient id="linearGradient4488"><stop id="stop4490" offset="0" stop-color="#000" stop-opacity=".047"/><stop id="stop4492" offset="1" stop-color="#000" stop-opacity="0"/></linearGradient><style id="style4511"/><style id="style4511-26"/><style id="style4511-9"/><style id="style4552"/><style id="style4511-2"/><linearGradient gradientTransform="matrix(.31327 0 0 .3038 -65.252 2.216)" xlink:href="#linearGradient4488" id="linearGradient4160" x1="288.112" y1="141.785" x2="287.575" y2="79.008" gradientUnits="userSpaceOnUse"/><linearGradient gradientTransform="rotate(-90 -3.537 54.759)" gradientUnits="userSpaceOnUse" x2="47" x1="1" id="linearGradient3764"><stop id="stop362" stop-color="#e4e4e4" stop-opacity="1"/><stop id="stop364" offset="1" stop-color="#eee" stop-opacity="1"/></linearGradient><linearGradient xlink:href="#linearGradient3764" id="linearGradient1296" x1="2.264" y1="23.808" x2="45.822" y2="23.808" gradientUnits="userSpaceOnUse"/></defs><style id="style4485" type="text/css"/><g id="g394"><path id="path4147" d="M2.433 26.443v1.668c0 9.575 5.758 17.282 17.68 17.282h7.147c15.604 0 18.393-11.322 18.393-17.282v-1.668c0 5.96-2.789 17.282-18.393 17.282h-7.146c-11.923 0-17.68-7.708-17.68-17.282z" opacity="1" fill="url(#linearGradient4160)" fill-opacity="1" stroke="none" stroke-width="1.117" stroke-linecap="square" stroke-linejoin="bevel" stroke-miterlimit="4" stroke-dasharray="none" stroke-dashoffset="0" stroke-opacity=".078"/><path id="rect4144" d="M19.564 2.965h8.76c14.342 0 17.329 11.246 17.329 17.282v7.123c0 5.96-2.789 17.282-18.393 17.282h-7.146c-11.923 0-17.68-7.708-17.68-17.282v-7.123c0-9.575 5.64-17.282 17.13-17.282z" opacity="1" fill="url(#linearGradient1296)" fill-opacity="1" stroke="#000" stroke-width=".339" stroke-linecap="square" stroke-linejoin="bevel" stroke-miterlimit="4" stroke-dasharray="none" stroke-dashoffset="0" stroke-opacity=".078"/><g transform="matrix(1.07084 0 0 1.09283 -1.627 -2.42)" id="g413"><g id="g411"><g id="g409" fill-opacity="1" fill-rule="nonzero" stroke="none"><path id="path393" d="M23.934 9a14.92 14.92 0 0 0-3.965.555l1.41 3.395a11.264 11.264 0 0 1 5.219-.004l1.4-3.398a14.914 14.914 0 0 0-4.064-.547z" fill="#f88e18"/><path id="path395" d="M31.363 10.934l-1.402 3.398a11.207 11.207 0 0 1 3.691 3.688l3.395-1.41a14.884 14.884 0 0 0-5.684-5.676z" fill="#dc2c2e"/><path id="path397" d="M37.07 31.367l-3.398-1.406a11.284 11.284 0 0 1-3.684 3.695l1.41 3.391a14.92 14.92 0 0 0 5.672-5.68m0 0" fill="#c66dfb"/><path id="path399" d="M38.443 19.971l-3.393 1.408c.398 1.68.422 3.465.008 5.219L38.454 28c.75-2.695.707-5.468-.012-8.03z" fill="#de28b1"/><path id="path401" d="M16.605 10.953a14.935 14.935 0 0 0-5.672 5.686l3.398 1.4a11.227 11.227 0 0 1 3.684-3.689l-1.41-3.396z" fill="#e5d717"/><path id="path403" d="M26.621 35.05c-1.68.398-3.465.422-5.215.008L20 38.454c2.699.75 5.468.707 8.03-.012l-1.408-3.393z" fill="#20b9ce"/><path id="path405" d="M14.35 29.984l-3.396 1.41a14.935 14.935 0 0 0 5.686 5.672l1.4-3.398a11.227 11.227 0 0 1-3.689-3.684z" fill="#20c145"/><path id="path407" d="M9.547 20a14.865 14.865 0 0 0 .008 8.03l3.395-1.412a11.26 11.26 0 0 1-.004-5.215l-3.398-1.402z" fill="#a2d620"/></g></g></g><path id="path419" d="M24.073 9.055l-1.152 4.995a8.88 8.88 0 0 0-1.098.194c-4.334 1.06-7.387 5.017-7.387 9.565 0 4.547 3.054 8.502 7.387 9.564 4.334 1.062 8.815-1.047 10.838-5.1l-3.82-1.986c-.913 1.83-2.755 2.986-4.767 2.986-2.957 0-5.354-2.447-5.354-5.464 0-3.018 2.397-5.465 5.354-5.465 2.013 0 3.855 1.154 4.769 2.984l3.818-1.985c-1.46-2.918-4.248-4.901-7.435-5.291z" opacity="1" fill="gray" fill-opacity="1" stroke="none" stroke-width="1.082"/></g></svg>