<svg xmlns:osb="http://www.openswatchbook.org/uri/2009/osb" xmlns="http://www.w3.org/2000/svg" xmlns:xlink="http://www.w3.org/1999/xlink" width="48" height="48" version="1.1" id="svg38"><defs id="defs22"><linearGradient id="linearGradient4488"><stop id="stop4490" offset="0" stop-color="#000" stop-opacity=".047"/><stop id="stop4492" offset="1" stop-color="#000" stop-opacity="0"/></linearGradient><style id="style4511"/><style id="style4511-26"/><style id="style4511-9"/><style id="style4552"/><style id="style4511-2"/><linearGradient xlink:href="#linearGradient4488" id="linearGradient4540" gradientUnits="userSpaceOnUse" gradientTransform="matrix(.30902 0 0 .3038 -64.017 1.994)" x1="288.112" y1="141.785" x2="287.575" y2="79.008"/><linearGradient osb:paint="solid" id="linearGradient5293"><stop id="stop5295" offset="0" stop-color="#9a89c0" stop-opacity="1"/></linearGradient><linearGradient gradientTransform="rotate(-90 -6.993 55.55)" gradientUnits="userSpaceOnUse" x2="47" x1="1" id="3764-36753-5"><stop id="stop2-67" stop-opacity="1" stop-color="#e4e4e4"/><stop id="stop4-535" stop-opacity="1" stop-color="#eee" offset="1"/></linearGradient><linearGradient xlink:href="#3764-36753-5" id="linearGradient1458" x1="2.581" y1="23.586" x2="45.552" y2="23.586" gradientUnits="userSpaceOnUse"/><clipPath id="clipPath-756192215"/></defs><style id="style4485" type="text/css"/><path id="path4518" d="M19.649 2.742h8.64c14.148 0 17.094 11.247 17.094 17.282v7.124c0 5.96-2.75 17.282-18.143 17.282h-7.05c-11.76 0-17.44-7.708-17.44-17.282v-7.124c0-9.574 5.564-17.282 16.899-17.282z" opacity="1" fill="url(#linearGradient1458)" fill-opacity="1" stroke="#000" stroke-width=".337" stroke-linecap="square" stroke-linejoin="bevel" stroke-miterlimit="4" stroke-dasharray="none" stroke-dashoffset="0" stroke-opacity=".078"/><path id="path4516" d="M2.75 26.22v1.67c0 9.573 5.68 17.281 17.44 17.281h7.05c15.392 0 18.143-11.322 18.143-17.282v-1.668c0 5.96-2.75 17.282-18.143 17.282h-7.05c-11.76 0-17.44-7.708-17.44-17.282z" opacity="1" fill="url(#linearGradient4540)" fill-opacity="1" stroke="none" stroke-width="1.109" stroke-linecap="square" stroke-linejoin="bevel" stroke-miterlimit="4" stroke-dasharray="none" stroke-dashoffset="0" stroke-opacity=".078"/><path id="path693" d="M27.507 19.03H36.6c.71 0 1.286.61 1.286 1.363v8.247c0 .755-.574 1.364-1.286 1.364h-9.093c-.706 0-1.289-.61-1.289-1.364v-8.247c0-.755.578-1.363 1.289-1.363m0 0" fill="#0ac819" fill-opacity="1" fill-rule="nonzero" stroke="none" stroke-width="1.132"/><path id="path695" d="M20.52 25.617h9.09c.71 0 1.285.613 1.285 1.368v8.246c0 .751-.574 1.364-1.285 1.364h-9.09c-.71 0-1.285-.614-1.285-1.364v-8.246c0-.756.574-1.368 1.286-1.368m0 0" fill="#e5b700" fill-opacity="1" fill-rule="nonzero" stroke="none" stroke-width="1.132"/><path id="path697" d="M20.52 10.248h9.09c.71 0 1.285.613 1.285 1.367v8.247c0 .755-.574 1.364-1.285 1.364h-9.09c-.71 0-1.285-.61-1.285-1.364v-8.247c0-.755.574-1.367 1.286-1.367m0 0" fill="#288dd6" fill-opacity="1" fill-rule="nonzero" stroke="none" stroke-width="1.132"/><path id="path699" d="M11.179 17.932h9.093c.71 0 1.285.61 1.285 1.364v8.246c0 .756-.573 1.368-1.285 1.368H11.18c-.706 0-1.29-.613-1.29-1.368v-8.246c0-.756.58-1.364 1.29-1.364m0 0" fill="#ec1a3e" fill-opacity="1" fill-rule="nonzero" stroke="none" stroke-width="1.132"/></svg>