<svg xmlns="http://www.w3.org/2000/svg" xmlns:xlink="http://www.w3.org/1999/xlink" width="48" height="48" version="1.1" id="svg38"><defs id="defs22"><linearGradient id="linearGradient4488"><stop id="stop4490" offset="0" stop-color="#000" stop-opacity=".047"/><stop id="stop4492" offset="1" stop-color="#000" stop-opacity="0"/></linearGradient><style id="style4511"/><style id="style4511-26"/><style id="style4511-9"/><style id="style4552"/><style id="style4511-2"/><linearGradient xlink:href="#linearGradient4488" id="linearGradient4540" gradientUnits="userSpaceOnUse" gradientTransform="translate(-62.889 1.994) scale(.3038)" x1="288.112" y1="141.785" x2="287.575" y2="79.008"/></defs><style id="style4485" type="text/css"/><path id="path4516" d="M2.75 26.22v1.67c0 9.573 5.583 17.281 17.146 17.281h6.93c15.132 0 17.836-11.322 17.836-17.282v-1.668c0 5.96-2.704 17.282-17.836 17.282h-6.93C8.333 43.503 2.75 35.795 2.75 26.22z" opacity="1" fill="url(#linearGradient4540)" fill-opacity="1" stroke="none" stroke-width="1.1" stroke-linecap="square" stroke-linejoin="bevel" stroke-miterlimit="4" stroke-dasharray="none" stroke-dashoffset="0" stroke-opacity=".078"/><path id="path4518" d="M19.363 2.742h8.495c13.908 0 16.804 11.247 16.804 17.282v7.124c0 5.96-2.704 17.282-17.836 17.282h-6.93C8.333 44.43 2.75 36.722 2.75 27.148v-7.124c0-9.574 5.47-17.282 16.613-17.282z" opacity="1" fill="#1eafed" fill-opacity="1" stroke="#000" stroke-width=".334" stroke-linecap="square" stroke-linejoin="bevel" stroke-miterlimit="4" stroke-dasharray="none" stroke-dashoffset="0" stroke-opacity=".078"/><path d="M24.184 10.645a13.045 13.045 0 0 0-3.664.369c-1.49.366-3.07 1.15-4.407 2.187-.614.477-1.898 1.64-1.898 1.72 0 .03.191.246.428.481l.43.428.386-.351c1.87-1.705 3.024-2.432 4.807-3.026 1.02-.34 2.167-.504 3.505-.504 4.272 0 8.472 2.644 10.374 6.53.666 1.362.998 2.69 1.1 4.406l.034.59-.656.033c-.36.018-1.017.033-1.46.033-.744 0-.805.007-.774.088.046.122 2.187 3.894 2.715 4.785l.431.729.385-.653c.212-.358.96-1.635 1.662-2.838l1.275-2.187-1.16-.014-1.162-.014v-.519c-.003-2.04-.733-4.447-1.877-6.2a14.058 14.058 0 0 0-4.678-4.407 12.724 12.724 0 0 0-5.796-1.666zM11.75 18.08c-.024-.018-.04-.012-.053.008-.155.224-3.136 5.563-3.117 5.582.009.008.479.032 1.045.053l1.03.037v.172c0 .33.157 1.66.26 2.197a12.436 12.436 0 0 0 2.837 5.861c1.06 1.229 2.565 2.396 4.033 3.13 1.467.731 3.36 1.279 4.79 1.384 1.074.079 2.768-.035 3.75-.252 1.3-.288 2.85-.961 4.036-1.754.903-.603 1.297-.92 2.282-1.842l.453-.424-.301-.306a7.386 7.386 0 0 0-.492-.461l-.194-.154-.673.654c-1.056 1.025-1.813 1.558-3.09 2.174-1.6.772-2.836 1.047-4.71 1.047-1.931 0-3.408-.333-5.075-1.145-1.93-.94-3.5-2.298-4.676-4.037-.47-.696-1.07-1.914-1.319-2.674-.41-1.256-.659-3.01-.482-3.398.095-.209.268-.246 1.443-.301a29.128 29.128 0 0 0 1.135-.065c.015-.012-1.05-2.061-2.29-4.41-.4-.753-.55-1.022-.622-1.076z" id="path4469" opacity="1" fill="#fff" fill-opacity="1" stroke="none" stroke-width=".036" stroke-linecap="round" stroke-linejoin="miter" stroke-miterlimit="4" stroke-dasharray="none" stroke-opacity="1"/></svg>