<svg xmlns="http://www.w3.org/2000/svg" xmlns:xlink="http://www.w3.org/1999/xlink" width="48" height="48" version="1.1" id="svg38"><defs id="defs22"><style id="style4511"/><style id="style4511-26"/><style id="style4511-9"/><style id="style4552"/><linearGradient id="d-0" y1="22.346" x1="29.855" y2="28.506" x2="54.32" gradientUnits="userSpaceOnUse"><stop stop-color="#ffc169" id="stop17-62"/><stop offset="1" stop-color="#ffa92d" id="stop19-6"/></linearGradient><linearGradient id="e-1" y1="41.22" x1="24.392" y2="25.343" x2="20.643" gradientUnits="userSpaceOnUse"><stop stop-color="#334545" id="stop22-8"/><stop offset="1" stop-color="#536161" id="stop24-7"/></linearGradient><style id="style4511-2"/><filter height="1.101" y="-.051" width="1.091" x="-.046" id="filter1051" color-interpolation-filters="sRGB"><feGaussianBlur id="feGaussianBlur1053" stdDeviation=".845"/></filter><clipPath id="SVGID_6_-20" clip-path="url(#SVGID_5_)"><use xlink:href="#SVGID_4_" overflow="visible" id="use26-2" x="0" y="0" width="100%" height="100%"/></clipPath><linearGradient id="SVGID_11_-3" gradientUnits="userSpaceOnUse" x1="67.374" y1="82.338" x2="67.374" y2="49.164"><stop offset="0" id="stop125-6" stop-color="#c8c8c8"/><stop offset=".063" id="stop127-1" stop-color="#bfbfbf"/><stop offset=".316" id="stop129-2" stop-color="#a0a0a0"/><stop offset=".561" id="stop131-9" stop-color="#898989"/><stop offset=".793" id="stop133-3" stop-color="#7c7c7c"/><stop offset="1" id="stop135-19" stop-color="#777"/></linearGradient><linearGradient xlink:href="#e-1" id="linearGradient1593" x1="4.323" y1="262.605" x2="52.827" y2="262.605" gradientUnits="userSpaceOnUse"/><linearGradient xlink:href="#d-0" id="linearGradient1645" x1="11.695" y1="23.592" x2="36.008" y2="23.592" gradientUnits="userSpaceOnUse"/></defs><style id="style4485" type="text/css"/><g clip-path="url(#SVGID_6_-20)" id="g98" transform="matrix(.06034 .06406 -.06158 .06277 -25.328 20.285)"><g id="g96" opacity=".1"><path d="M67.375 52.718c7.197 0 13.033 5.835 13.033 13.033 0 7.198-5.835 13.033-13.033 13.033-7.198 0-13.033-5.835-13.033-13.033 0-7.198 5.835-13.033 13.033-13.033m0-10.664c-13.066 0-23.696 10.63-23.696 23.696s10.63 23.696 23.696 23.696 23.696-10.63 23.696-23.696-10.63-23.696-23.696-23.696z" id="path94"/></g></g><g clip-path="url(#SVGID_6_-20)" id="g142" transform="matrix(.06034 .06406 -.06158 .06277 -25.328 20.285)"><path d="M67.375 55.888c5.447 0 9.862 4.416 9.862 9.862s-4.415 9.863-9.862 9.863-9.863-4.417-9.863-9.863 4.415-9.862 9.863-9.862m0-6.724c-9.146 0-16.587 7.441-16.587 16.587 0 9.145 7.441 16.587 16.587 16.587s16.587-7.442 16.587-16.587c-.001-9.146-7.442-16.587-16.587-16.587z" id="path123" fill="#e9e6dd"/><g id="g140"><linearGradient id="linearGradient1618" gradientUnits="userSpaceOnUse" x1="67.374" y1="82.338" x2="67.374" y2="49.164"><stop offset="0" id="stop1606" stop-color="#c8c8c8"/><stop offset=".063" id="stop1608" stop-color="#bfbfbf"/><stop offset=".316" id="stop1610" stop-color="#a0a0a0"/><stop offset=".561" id="stop1612" stop-color="#898989"/><stop offset=".793" id="stop1614" stop-color="#7c7c7c"/><stop offset="1" id="stop1616" stop-color="#777"/></linearGradient><path d="M67.375 55.888c5.447 0 9.862 4.416 9.862 9.862s-4.415 9.863-9.862 9.863-9.863-4.417-9.863-9.863 4.415-9.862 9.863-9.862m0-6.724c-9.146 0-16.587 7.441-16.587 16.587 0 9.145 7.441 16.587 16.587 16.587s16.587-7.442 16.587-16.587c-.001-9.146-7.442-16.587-16.587-16.587z" id="path138" fill="url(#SVGID_11_-3)"/></g></g><flowRoot xml:space="preserve" id="flowRoot55" style="line-height:1.25" transform="translate(-80.67 -1.748)" font-style="normal" font-weight="400" font-size="5.333" font-family="sans-serif" letter-spacing="0" word-spacing="0" fill="#333" fill-opacity="1" stroke="none"><flowRegion id="flowRegion57" fill="#333"><path id="rect59" fill="#333" d="M-28.332 10.176h24.018v19.415h-24.018z"/></flowRegion><flowPara id="flowPara61"/></flowRoot><flowRoot xml:space="preserve" id="flowRoot926" style="line-height:1.25" transform="translate(-80.67 -1.748)" font-style="normal" font-weight="400" font-size="5.333" font-family="sans-serif" letter-spacing="0" word-spacing="0" fill="#000" fill-opacity="1" stroke="none"><flowRegion id="flowRegion928"><path id="rect930" d="M-52.373 9.458h31.22v24.407h-31.22z"/></flowRegion><flowPara id="flowPara932"/></flowRoot><path d="M19.488 3.108h8.72c14.278 0 17.252 11.247 17.252 17.282v7.124c0 5.96-2.776 17.282-18.31 17.282h-7.115c-11.87 0-17.602-7.708-17.602-17.282V20.39c0-9.574 5.616-17.282 17.055-17.282z" id="rect4144" opacity="1" fill="#ccc" fill-opacity="1" stroke="#000" stroke-width=".339" stroke-linecap="square" stroke-linejoin="bevel" stroke-miterlimit="4" stroke-dasharray="none" stroke-dashoffset="0" stroke-opacity=".078"/><path id="path1033" d="M50.8 262.605c0-18.464-7.407-20.003-22.225-20.003-14.817 0-22.225 1.539-22.225 20.003s7.408 20.002 22.225 20.002c14.818 0 22.225-1.538 22.225-20.002z" transform="matrix(.772 0 0 .69087 1.764 -159.388)" opacity=".3" fill="url(#linearGradient1593)" fill-opacity="1" stroke-width="1.111" filter="url(#filter1051)"/><path d="M41.388 23.952c0-14.758-5.813-15.988-17.441-15.988S6.506 9.194 6.506 23.952c0 14.76 5.813 15.988 17.44 15.988 11.629 0 17.442-1.229 17.442-15.988z" id="path173" fill="#323232" stroke-width=".88"/><path id="path54" d="M14.66 29.271h.593v-.54h-.593v.54h.593v-.54h-1.779v.54zm5.04 1.353h1.483v.54h-2.965v-.54zm15.715 3.786h.593v.541h-.593zm-1.78 0h.594v.541h-.593zm-1.778 0h1.779v.541h-1.78zm-1.186 0h.593v.541h-.593zm-1.78 0h.594v.541h-.593zm-1.778 0h1.779v.541h-1.78zm-1.186 0h.593v.541h-.593zm-2.965 0h1.779v.541h-1.779zm-1.779 0h.593v.541h-.593zm-1.779 0h.593v.541h-.593zm-1.186 0h.593v.541h-.593zm-1.779 0h.593v.541h-.593zm-1.779 0h1.78v.541h-1.78zm-1.186 0h.593v.541h-.593zm-1.779 0h.593v.541h-.593zm23.72-1.893h.593v.541h-.593zm-1.78 0h1.78v.541h-1.78zm-1.778 0h.593v.541h-.593zm-1.186 0h.593v.541h-.593zm-1.78 0h1.78v.541h-1.78zm-1.778 0h.593v.541h-.593zm-1.186 0h.593v.541h-.593zm-2.965 0h1.779v.541h-1.779zm-3.558 0h2.965v.541h-2.965zm-1.186 0h.593v.541h-.593zm-1.779 0h.593v.541h-.593zm-1.779 0h1.78v.541h-1.78zm-1.186 0h.593v.541h-.593zm-1.779 0h.593v.541h-.593zm23.72-1.893h.593v.54h-.593zm-1.78 0h.594v.54h-.593zm-1.778 0h1.779v.54h-1.78zm-1.186 0h.593v.54h-.593zm-1.78 0h1.78v.54h-1.78zm-1.778 0h.593v.54h-.593zm-1.186 0h.593v.54h-.593zm-1.779 0h1.779v.54h-1.779zm-1.186 0h.593v.54h-.593zm-1.779 0h.593v.54h-.593zm-4.744 0h.593v.54h-.593zm-1.779 0h.593v.54h-.593zm-1.186 0h.593v.54h-.593zm-1.779 0h1.78v.54h-1.78zm23.72-1.893h.593v.54h-.593zm-3.558 0h2.965v.54h-2.965zm-1.186 0h.593v.54h-.593zm-1.78 0h.594v.54h-.593zm-1.778 0h.593v.54h-.593zm-1.186 0h.593v.54h-.593zm-1.779 0h1.779v.54h-1.779zm-1.186 0h.593v.54h-.593zm-1.779 0h1.779v.54h-1.779zm-1.779 0h.593v.54h-.593zm-1.186 0h.593v.54h-.593zm-1.779 0h.593v.54h-.593zm-4.744 0h.593v.54h-.593zm23.72-2.164h.593v.54h-.593zm-1.78 0h.594v.54h-.593zm-1.778 0h.593v.54h-.593zm-2.965 0h2.965v.54h-2.965zm-1.78 0h1.78v.54h-1.78zm-1.185 0h.593v.54h-.593zm-1.779 0h.593v.54h-.593zm-1.186 0h.593v.54h-.593zm-1.779 0h.593v.54h-.593zm-1.779 0h.593v.54h-.593zm-1.186 0h.593v.54h-.593zm-1.779 0h1.78v.54h-1.78zm-1.779 0h.593v.54h-.593zm-1.186 0h.593v.54h-.593zm-1.779 0h1.78v.54h-1.78zm23.72-2.164h.593v.54h-.593zm-1.78 0h.594v.54h-.593zm-2.964 0h1.779v.54h-1.78zm-1.78 0h.594v.54h-.593zm-1.778 0h.593v.54h-.593zm-1.186 0h.593v.54h-.593zm-1.779 0h.593v.54h-.593zm-1.186 0h.593v.54h-.593zm-1.779 0h.593v.54h-.593zm-1.779 0h.593v.54h-.593zm-1.186 0h.593v.54h-.593zm-1.779 0h.593v.54h-.593zm-1.779 0h1.78v.54h-1.78zm-1.186 0h.593v.54h-.593zm-1.779 0h.593v.54h-.593zm23.72-2.164h.593v.541h-.593zm-3.558 0h2.965v.541h-2.965zm-1.186 0h.593v.541h-.593zm-1.78 0h.594v.541h-.593zm-1.778 0h.593v.541h-.593zm-1.186 0h.593v.541h-.593zm-1.779 0h.593v.541h-.593zm-1.186 0h.593v.541h-.593zm-1.779 0h.593v.541h-.593zm-1.779 0h.593v.541h-.593zm-1.186 0h.593v.541h-.593zm-1.779 0h1.78v.541h-1.78zm-2.965 0h1.78v.541h-1.78zm-1.779 0h.593v.541h-.593zm23.72-2.164h.593v.541h-.593zm-1.78 0h1.78v.541h-1.78zm-1.778 0h.593v.541h-.593zm-1.186 0h.593v.541h-.593zm-1.78 0h.594v.541h-.593zm-1.778 0h.593v.541h-.593zm-1.186 0h.593v.541h-.593zm-1.779 0h.593v.541h-.593zm-1.186 0h.593v.541h-.593zm-1.779 0h.593v.541h-.593zm-1.779 0h.593v.541h-.593zm-1.186 0h.593v.541h-.593zm-3.558 0h2.965v.541H14.66zm-1.186 0h.593v.541h-.593zm-1.779 0h1.78v.541h-1.78zm23.72-1.893h.593v.541h-.593zm-1.78 0h.594v.541h-.593zm-1.778 0h.593v.541h-.593zm-1.186 0h.593v.541h-.593zm-1.78 0h.594v.541h-.593zm-1.778 0h.593v.541h-.593zm-1.186 0h.593v.541h-.593zm-1.779 0h.593v.541h-.593zm-1.186 0h.593v.541h-.593zm-4.744 0h4.744v.541h-4.744zm-1.779 0h.593v.541h-.593zm-2.965 0h1.78v.541h-1.78zm-1.779 0h1.78v.541h-1.78zm23.72-1.893h.593v.54h-.593zm-1.78 0h.594v.54h-.593zm-1.778 0h.593v.54h-.593zm-1.186 0h.593v.54h-.593zm-1.78 0h.594v.54h-.593zm-1.778 0h.593v.54h-.593zm-2.965 0h1.779v.54h-1.779zm-1.186 0h.593v.54h-.593zm-1.779 0h.593v.54h-.593zm-1.779 0h1.78v.54h-1.78zm-2.965 0h.593v.54h-.593zm-1.779 0h1.78v.54h-1.78zm-1.186 0h.593v.54h-.593zm-1.779 0h1.78v.54h-1.78zm23.72-1.894h.593v.541h-.593zm-1.78 0h.594v.541h-.593zm-1.778 0h.593v.541h-.593zm-1.186 0h.593v.541h-.593zm-1.78 0h.594v.541h-.593zm-5.929 0h4.744v.541h-4.744zm-1.779 0h1.779v.541h-1.779zm-2.965 0h1.78v.541h-1.78zm-1.779 0h.593v.541h-.593zm-2.965 0h1.78v.541h-1.78zm-1.779 0h1.78v.541h-1.78zm23.72-2.163h.593v.54h-.593zm-1.78 0h.594v.54h-.593zm-1.778 0h.593v.54h-.593zm-1.186 0h.593v.54h-.593zm-1.78 0h.594v.54h-.593zm-1.778 0h.593v.54h-.593zm-2.965 0h2.965v.54h-2.965zm-1.186 0h.593v.54h-.593zm-1.779 0h1.779v.54h-1.779zm-2.965 0h1.78v.54h-1.78zm-1.779 0h.593v.54h-.593zm-2.965 0h1.78v.54h-1.78zm-1.779 0h.593v.54h-.593z" fill="url(#linearGradient1645)" fill-opacity="1" fill-rule="evenodd" stroke="none" stroke-width=".283"/><g id="g1420" transform="matrix(.7064 0 0 .97399 6.576 8.061)" fill="#ff992f" fill-opacity="1" fill-rule="evenodd" stroke="none"><path id="path1414" d="M11 12v10h8v-3h-5v-4h5v-3z"/><path id="path1416" d="M20 15v10h3v-4h1l2 4h3l-2.5-5H28v-5zm3 2h2v2h-2z" transform="translate(0 -3)"/><path id="path1418" d="M29 12v3h3v7h3v-7h3v-3z"/></g></svg>