<svg xmlns="http://www.w3.org/2000/svg" xmlns:xlink="http://www.w3.org/1999/xlink" width="48" height="48" version="1.1" id="svg38"><defs id="defs22"><linearGradient id="linearGradient4488"><stop id="stop4490" offset="0" stop-color="#000" stop-opacity=".047"/><stop id="stop4492" offset="1" stop-color="#000" stop-opacity="0"/></linearGradient><style id="style4511"/><linearGradient id="c" y1="520.8" y2="503.8" gradientUnits="userSpaceOnUse" x2="0" gradientTransform="translate(-384.57 504.56)"><stop stop-color="#197cf1" id="stop12-936"/><stop offset="1" stop-color="#20bcfa" id="stop14-06"/></linearGradient><style id="style4511-26"/><style id="style4511-9"/><style id="style4552"/><style id="style4511-2"/><linearGradient xlink:href="#linearGradient4488" id="linearGradient4471" gradientUnits="userSpaceOnUse" gradientTransform="matrix(.3038 0 0 .3086 -62.47 2.206)" x1="288.112" y1="141.785" x2="287.575" y2="79.008"/><linearGradient xlink:href="#c" id="linearGradient1228" x1="3.001" y1="23.808" x2="45.248" y2="23.808" gradientUnits="userSpaceOnUse" gradientTransform="matrix(0 -1.01578 1 0 .316 48.644)"/><clipPath id="clipPath-260786515"/></defs><style id="style4485" type="text/css"/><path d="M3.28 28.55v-8.629c0-14.127 11.247-17.07 17.283-17.07h7.123c5.96 0 17.282 2.748 17.282 18.119v7.04c0 11.744-7.708 17.416-17.282 17.416h-7.123c-9.575 0-17.282-5.557-17.282-16.876z" id="path4469" opacity="1" fill="url(#linearGradient1228)" fill-opacity="1" stroke="#000" stroke-width=".337" stroke-linecap="square" stroke-linejoin="bevel" stroke-miterlimit="4" stroke-dasharray="none" stroke-dashoffset="0" stroke-opacity=".078"/><path d="M3.168 26.815v1.695c0 9.725 5.583 17.555 17.146 17.555h6.93c15.132 0 17.836-11.502 17.836-17.555v-1.695c0 6.054-2.704 17.555-17.836 17.555h-6.93c-11.563 0-17.146-7.83-17.146-17.555z" id="path4467" opacity="1" fill="url(#linearGradient4471)" fill-opacity="1" stroke="none" stroke-width="1.109" stroke-linecap="square" stroke-linejoin="bevel" stroke-miterlimit="4" stroke-dasharray="none" stroke-dashoffset="0" stroke-opacity=".078"/><path id="path1205" d="M20.563 33.994a3247.753 3248.2 0 0 0-3.821-11.884c-.008-.012-1.262.397-2.785.91l-2.773.928-.468-.223 1.904-1.607c1.047-.88 2.223-1.869 2.606-2.194.385-.325.706-.6.719-.611.012-.028 2.36.611 2.4.65.02.021.662 1.6 3.249 7.952.424 1.04.778 1.889.782 1.889.016 0 1.09-.7 3.796-2.473.556-.369 1.702-1.122 2.547-1.682l1.532-1.016.551.175 1.004.318.452.143.075.14c.044.074 1.143 2.023 2.44 4.337 2.229 3.96 2.364 4.21 2.352 4.296-.044.267-.024.238-.234.238 0 0-13.886-1.087-13.854-1.087l-.404.246c-.227.135-.73.448-1.12.687a26.06 26.06 0 0 1-.741.445c-.012 0-.104-.262-.21-.588m-.008.02" fill="#fff" fill-opacity="1" fill-rule="nonzero" stroke="none" stroke-width="1.016"/><path id="path1207" d="M22.46 28.446c-.104-.226-.472-1.036-.826-1.793-.35-.758-.635-1.38-.626-1.385.008-.004.809-.445 1.79-.976 2.022-1.1 1.935-1.064 2.566-1.087.836-.031 1.852.183 3.094.643.452.163 1.322.535 1.322.56 0 .02-7.054 4.444-7.098 4.452-.02.004-.114-.179-.222-.408m0-.005" fill="#f46900" fill-opacity="1" fill-rule="nonzero" stroke="none" stroke-width="1.016"/><path id="path1209" d="M30.675 24.26c-.428-.15-1.17-.412-1.646-.583-.48-.17-.876-.31-.88-.314 0-.004.726-1.17 1.622-2.599.893-1.424 2.246-3.59 3.008-4.809.762-1.213 1.392-2.222 1.404-2.237.02-.024.227 0 .278.031.027.016-.12.575-.583 2.234-1.12 3.976-2.202 7.845-2.302 8.197a3.352 3.352 0 0 1-.11.35c-.009 0-.365-.127-.794-.278m.004.004" fill="#fff" fill-opacity="1" fill-rule="nonzero" stroke="none" stroke-width="1.016"/></svg>