<svg xmlns:osb="http://www.openswatchbook.org/uri/2009/osb" xmlns="http://www.w3.org/2000/svg" xmlns:xlink="http://www.w3.org/1999/xlink" viewBox="0 0 48 48" version="1.1" id="svg69"><defs id="defs17"><linearGradient id="linearGradient3440" osb:paint="solid"><stop offset="0" id="stop3438" stop-color="#0ac642" stop-opacity="1"/></linearGradient><clipPath id="clipPath-702268006"/><linearGradient id="linearGradient4488"><stop offset="0" id="stop4490" stop-color="#000" stop-opacity=".047"/><stop offset="1" id="stop4492" stop-color="#000" stop-opacity="0"/></linearGradient><style id="style4511"/><style id="style4511-26"/><style id="style4511-9"/><style id="style4552"/><style id="style4511-2"/><linearGradient gradientUnits="userSpaceOnUse" y2="79.008" x2="287.575" y1="141.785" x1="288.112" id="linearGradient4160" xlink:href="#linearGradient4488" gradientTransform="matrix(.31405 0 0 .31116 -65.443 -7.475)"/></defs><style type="text/css" id="style4485"/><path d="M19.584 2.874h8.781c14.377 0 17.372 11.52 17.372 17.702v7.295c0 6.105-2.795 17.701-18.439 17.701h-7.163c-11.953 0-17.725-7.895-17.725-17.7v-7.296c0-9.808 5.655-17.702 17.174-17.702z" id="rect4144" opacity=".821" fill="#10b0e9" fill-opacity="1" stroke="#000" stroke-width=".344" stroke-linecap="square" stroke-linejoin="bevel" stroke-miterlimit="4" stroke-dasharray="none" stroke-dashoffset="0" stroke-opacity=".078"/><path d="M2.41 17.339v1.708c0 9.808 5.771 17.701 17.725 17.701h7.163c15.644 0 18.44-11.596 18.44-17.7v-1.709c0 6.104-2.796 17.7-18.44 17.7h-7.163C8.18 35.04 2.41 27.146 2.41 17.34z" id="path4147" opacity=".821" fill="url(#linearGradient4160)" fill-opacity="1" stroke="none" stroke-width="1.132" stroke-linecap="square" stroke-linejoin="bevel" stroke-miterlimit="4" stroke-dasharray="none" stroke-dashoffset="0" stroke-opacity=".078"/><path id="path51" d="M30.094 11.308a6.948 6.948 0 0 0-5.55 2.759 7.432 7.432 0 0 1 1.414 4.373c0 .87-.16 1.682-.437 2.455 1.619 1.248 3.044 2.85 4.473 4.406 3.674-.152 6.996-3.447 6.996-7.13 0-3.78-3.082-6.862-6.895-6.862m.203 4.17a2.652 2.652 0 0 1 2.665 2.658c0 1.48-1.186 2.69-2.665 2.69a2.701 2.701 0 0 1-2.691-2.69c0-1.475 1.215-2.657 2.69-2.657m0 0" fill-opacity="1" fill-rule="nonzero" stroke="none" stroke-width="1.076"/><path id="path53" d="M23.573 29.67l-4.393 7.47c-1.308-2.098-3.406-8.87 1.883-11.826m2.51 4.355" fill-opacity="1" fill-rule="nonzero" stroke="none" stroke-width="1.076"/><path id="path55" d="M29.85 37.139l-9.413-15.56 2.51-2.49c2.543 2.877 5.09 4.449 7.626 8.46 1.993 2.593.344 9.123-.723 9.589m0 0" fill-opacity="1" fill-rule="nonzero" stroke="none" stroke-width="1.076"/><path id="path57" d="M18.061 11.405c-3.813 0-6.903 3.065-6.903 6.844 0 3.784 3.09 6.848 6.903 6.848 3.814 0 6.904-3.065 6.904-6.848 0-3.78-3.09-6.844-6.904-6.844m.14 4.221a2.67 2.67 0 0 1 2.686 2.666 2.671 2.671 0 0 1-2.687 2.666c-1.488 0-2.708-1.19-2.708-2.666 0-1.475 1.22-2.666 2.708-2.666m0 0" fill-opacity="1" fill-rule="nonzero" stroke="none" stroke-width="1.076"/></svg>