<svg xmlns="http://www.w3.org/2000/svg" xmlns:xlink="http://www.w3.org/1999/xlink" width="48" height="48" version="1.1" id="svg38"><defs id="defs22"><linearGradient id="linearGradient4488"><stop id="stop4490" offset="0" stop-color="#000" stop-opacity=".047"/><stop id="stop4492" offset="1" stop-color="#000" stop-opacity="0"/></linearGradient><style id="style4511"/><style id="style4511-26"/><style id="style4511-9"/><style id="style4552"/><style id="style4511-2"/><linearGradient xlink:href="#linearGradient4488" id="linearGradient4546" gradientUnits="userSpaceOnUse" gradientTransform="translate(-62.497 1.994) scale(.3038)" x1="288.112" y1="141.785" x2="287.575" y2="79.008"/><style id="style4511-8"/><style id="style4511-26-4"/><style id="style4511-9-7"/><style id="style4552-3"/><style id="style4511-2-8"/><style id="style4552-7"/><style id="style4552-6"/><style id="style4552-73"/><style id="style4552-2"/></defs><style id="style4485" type="text/css"/><style type="text/css" id="style4485-0"/><style id="style4485-4" type="text/css"/><style id="style4485-5" type="text/css"/><style id="style4485-3" type="text/css"/><style id="style4485-5-1" type="text/css"/><g id="g746"><g id="g2431"><path d="M3.141 26.22v1.67c0 9.573 5.583 17.281 17.146 17.281h6.93c15.133 0 17.837-11.322 17.837-17.282v-1.668c0 5.96-2.704 17.282-17.837 17.282h-6.93c-11.563 0-17.146-7.708-17.146-17.282z" id="path4528" opacity="1" fill="url(#linearGradient4546)" fill-opacity="1" stroke="none" stroke-width="1.1" stroke-linecap="square" stroke-linejoin="bevel" stroke-miterlimit="4" stroke-dasharray="none" stroke-dashoffset="0" stroke-opacity=".078"/><path d="M19.754 2.742h8.495c13.908 0 16.805 11.247 16.805 17.282v7.124c0 5.96-2.704 17.282-17.837 17.282h-6.93c-11.562 0-17.146-7.708-17.146-17.282v-7.124c0-9.574 5.47-17.282 16.613-17.282z" id="path4530" opacity="1" fill="#688ab1" fill-opacity="1" stroke="#000" stroke-width=".334" stroke-linecap="square" stroke-linejoin="bevel" stroke-miterlimit="4" stroke-dasharray="none" stroke-dashoffset="0" stroke-opacity=".078"/><g id="g2389" fill="#e967a2" fill-opacity="1" stroke="none" stroke-width="1.8" stroke-linecap="round" stroke-linejoin="miter" stroke-miterlimit="4" stroke-dasharray="none" stroke-dashoffset="0" stroke-opacity="1"><path id="path5889" d="M12.66 3.87A14.34 14.34 0 0 0 8.67 6.3l1.045 1.076L4.5 13.081h6.213L16.1 7.372c-.958-.959-2.18-2.21-3.441-3.502z" opacity="1"/><path id="path5893" d="M17.63 2.683c-1.894.184-3.605.606-5.124 1.242l3.35 3.451-5.215 5.705h6.212l5.387-5.709a654.746 654.746 0 0 1-4.61-4.69z" opacity="1"/><path id="path5895" d="M19.793 2.576c-.82 0-1.6.053-2.358.134l4.531 4.666-5.214 5.705h6.212l5.387-5.709C27.04 6.06 25.352 4.33 23.638 2.576z" opacity="1"/><path id="path5897" d="M23.445 2.575l4.662 4.801-5.215 5.705h6.213l5.387-5.709c-1.297-1.299-2.963-3.005-4.66-4.742a23.988 23.988 0 0 0-1.545-.055z" opacity="1"/><path id="path5899" d="M29.636 2.613l4.625 4.763-5.215 5.705h6.213l5.381-5.703c-.052-.056-.103-.114-.156-.17-.093-.093-.227-.232-.324-.33-2.345-2.31-5.72-4-10.524-4.265z" opacity="1"/><path id="path5901" d="M38.72 5.644l1.682 1.732-5.217 5.705h6.213l1.78-1.884c-.981-2.062-2.405-4.024-4.458-5.553z" opacity="1"/><path id="path5903" d="M43.107 11.054l-1.853 2.027h2.705a18.183 18.183 0 0 0-.852-2.027z" opacity="1"/><path id="path5905" d="M8.914 6.103c-2.19 1.804-3.761 4.195-4.692 6.978h.553l5.387-5.709c-.348-.347-.84-.856-1.248-1.27z" opacity="1"/></g><g id="g1610" transform="matrix(.89977 0 0 .89573 3.557 4.063)"><g transform="matrix(.21277 0 0 .19739 -27.65 -189.765)" id="g1585" fill="#5c6698" fill-opacity="1" stroke-width="4.167"><circle cx="202.79" cy="1065.333" r="41.667" id="circle957" opacity=".2"/><circle cx="269.456" cy="1065.333" r="41.667" id="circle959" opacity=".2"/><path d="M236.072 1065.333c-2.046 0-4.129.75-5.825 2.631l-33.403 27.841c-.193.208-.35.442-.519.667-.047.083-.099.116-.142.183-.453.642-.773 1.307-1.05 1.998-.106.275-.17.541-.254.825-.163.541-.322 1.087-.387 1.648-.054.408-.03.825-.03 1.242.005.409-.02.834.03 1.242.065.559.224 1.1.387 1.648.083.283.148.558.255.825.276.691.596 1.364 1.049 1.997.041.084.097.117.142.175.17.217.326.458.52.683l33.402 37.099c1.696 1.881 3.78 2.626 5.825 2.63h.083c2.047 0 4.128-.75 5.826-2.63l33.423-37.099c.193-.208.35-.45.519-.683.045-.084.1-.109.142-.175.454-.633.773-1.307 1.05-1.998.105-.275.17-.542.254-.825.163-.542.312-1.088.377-1.648.052-.409.037-.826.041-1.242 0-.425.012-.834-.041-1.243-.065-.558-.214-1.098-.377-1.647-.084-.284-.148-.559-.255-.825-.276-.692-.595-1.365-1.049-1.999-.043-.083-.095-.108-.142-.175-.17-.225-.325-.45-.52-.666l-33.422-27.84c-1.698-1.883-3.779-2.611-5.825-2.631h-.084z" id="path961" opacity=".2" fill-rule="evenodd"/><circle cx="269.456" cy="1061.166" r="41.667" id="circle963" fill="#fff"/><circle cx="202.79" cy="1061.166" r="41.667" id="circle965" fill="#fff"/><path d="M236.072 1061.167c-2.046 0-4.129.75-5.825 2.63l-33.403 27.841c-.193.209-.35.442-.519.667-.047.083-.099.117-.142.183-.453.642-.773 1.307-1.05 1.998-.106.275-.17.542-.254.825-.163.542-.322 1.087-.387 1.648-.054.408-.03.825-.03 1.243.005.408-.02.833.03 1.241.065.559.224 1.1.387 1.648.083.283.148.558.255.825.276.692.596 1.364 1.049 1.997.041.084.097.117.142.175.17.217.326.459.52.684l33.402 37.098c1.696 1.882 3.78 2.627 5.825 2.63h.083c2.047 0 4.128-.75 5.826-2.63l33.423-37.098c.193-.209.35-.45.519-.684.045-.084.1-.108.142-.175.454-.633.773-1.306 1.05-1.998.105-.275.17-.542.254-.825.163-.542.312-1.088.377-1.648.052-.409.037-.825.041-1.242 0-.425.012-.833-.041-1.242-.065-.559-.214-1.099-.377-1.648-.084-.283-.148-.558-.255-.825-.276-.692-.595-1.365-1.049-1.998-.043-.084-.095-.109-.142-.175-.17-.225-.325-.45-.52-.667l-33.422-27.84c-1.698-1.883-3.779-2.61-5.825-2.63h-.084z" id="path967" fill="#fcb700" fill-rule="evenodd"/><circle cx="202.79" cy="1065.333" r="12.5" id="circle969" opacity=".6"/><circle cx="269.456" cy="1065.333" r="12.5" id="circle971" opacity=".6"/></g></g><ellipse id="path2391" cx="17.422" cy="22.305" rx="2.408" ry="2.356" fill="#4d4d4d" fill-opacity="1" stroke-width="1.994"/><ellipse id="path2391-2" cx="30.356" cy="22.475" rx="2.408" ry="2.356" fill="#4d4d4d" fill-opacity="1" stroke-width="1.994"/></g></g></svg>