<svg xmlns="http://www.w3.org/2000/svg" xmlns:xlink="http://www.w3.org/1999/xlink" width="48" height="48" version="1.1" id="svg38"><defs id="defs22"><linearGradient id="linearGradient4488"><stop id="stop4490" offset="0" stop-color="#000" stop-opacity=".047"/><stop id="stop4492" offset="1" stop-color="#000" stop-opacity="0"/></linearGradient><style id="style4511"/><style id="style4511-26"/><style id="style4511-9"/><style id="style4552"/><style id="style4511-2"/><linearGradient gradientTransform="matrix(.3082 0 0 .3038 -64.056 2.216)" xlink:href="#linearGradient4488" id="linearGradient4160" x1="288.112" y1="141.785" x2="287.575" y2="79.008" gradientUnits="userSpaceOnUse"/><clipPath id="clipPath-525937098"/></defs><style id="style4485" type="text/css"/><path d="M19.389 2.965h8.618c14.11 0 17.048 11.246 17.048 17.282v7.123c0 5.96-2.743 17.282-18.095 17.282h-7.03c-11.73 0-17.395-7.708-17.395-17.282v-7.123c0-9.575 5.55-17.282 16.854-17.282z" id="rect4144" opacity="1" fill="#287bff" fill-opacity="1" stroke="#000" stroke-width=".337" stroke-linecap="square" stroke-linejoin="bevel" stroke-miterlimit="4" stroke-dasharray="none" stroke-dashoffset="0" stroke-opacity=".078"/><path d="M2.535 26.443v1.668c0 9.575 5.664 17.282 17.394 17.282h7.031c15.352 0 18.095-11.322 18.095-17.282v-1.668c0 5.96-2.743 17.282-18.095 17.282h-7.03c-11.73 0-17.395-7.708-17.395-17.282z" id="path4147" opacity="1" fill="url(#linearGradient4160)" fill-opacity="1" stroke="none" stroke-width="1.108" stroke-linecap="square" stroke-linejoin="bevel" stroke-miterlimit="4" stroke-dasharray="none" stroke-dashoffset="0" stroke-opacity=".078"/><path id="path488" d="M24.169 24.477c-.204-.865.87-1.37 1.598-1.276 1.432.184 2.107 1.738 1.78 2.98-.498 1.893-2.716 2.744-4.534 2.179-2.47-.77-3.552-3.544-2.704-5.83 1.078-2.902 4.59-4.157 7.469-3.079 3.51 1.319 5.014 5.372 3.63 8.677-1.633 3.926-6.466 5.587-10.401 3.982-4.568-1.858-6.484-7.196-4.568-11.529 2.195-4.945 8.353-7.008 13.34-4.88 5.613 2.394 7.96 9.02 5.489 14.378-2.743 5.963-10.233 8.437-16.273 5.783-6.66-2.928-9.42-10.847-6.418-17.226 2.355-5.004 7.744-8.151 13.384-8.01" fill="#fff" fill-opacity="1" fill-rule="evenodd" stroke="none" stroke-width="1.113"/></svg>