<svg xmlns="http://www.w3.org/2000/svg" style="isolation:isolate" width="48" height="48"><defs><linearGradient gradientUnits="userSpaceOnUse" gradientTransform="scale(1.48718 .67241)" y2="67.024" x2="16.568" y1="38.662" x1="16.458" id="b"><stop stop-opacity="0" offset="0%"/><stop stop-opacity=".047" offset="100%"/></linearGradient><linearGradient gradientUnits="userSpaceOnUse" gradientTransform="scale(1.00266 .99735)" y2="23.649" x2="44.878" y1="23.649" x1="2.408" id="a"><stop stop-color="#334545" offset="0%"/><stop stop-color="#536161" offset="100%"/></linearGradient></defs><path d="M19.363 2.742h8.495c13.908 0 16.804 11.247 16.804 17.282v7.124c0 5.959-2.704 17.282-17.836 17.282h-6.93C8.333 44.43 2.75 36.722 2.75 27.148v-7.124c0-9.574 5.47-17.282 16.613-17.282z" vector-effect="non-scaling-stroke" fill="url(#a)" stroke="#000" stroke-width=".334" stroke-linecap="square" stroke-linejoin="bevel" stroke-opacity=".078"/><path d="M2.75 26.221v1.668c0 9.574 5.583 17.282 17.146 17.282h6.93c15.132 0 17.836-11.322 17.836-17.282v-1.668c0 5.959-2.704 17.282-17.836 17.282h-6.93c-11.563 0-17.146-7.708-17.146-17.282z" fill="url(#b)"/><path d="M32.642 9.989c0 1.294-1.001 2.344-2.234 2.344-1.234 0-2.234-1.05-2.234-2.344H10.75v27.194h17.424c0-1.294 1-2.344 2.234-2.344 1.233 0 2.234 1.05 2.234 2.344h4.021V9.989z" fill="#56a157"/><path d="M10.75 9.989v3.751l3.574-3.751z" fill="#ebda6c"/><path d="M29.976 14.677H17.437c-1.226 0-2.22 1.043-2.22 2.329v2.595c0 .388.301.703.671.703.37 0 .67.315.67.703v5.158c0 .388-.3.703-.67.703-.37 0-.671.315-.671.703v2.595c0 1.286.994 2.329 2.22 2.329h12.539c1.225 0 2.219-1.043 2.219-2.329v-13.16c0-1.286-.994-2.329-2.219-2.329zM11.643 33.432c0-.258.2-.468.447-.468s.447.21.447.468c0 .259-.2.469-.447.469a.458.458 0 0 1-.447-.469zm0 2.345c0-.259.2-.469.447-.469s.447.21.447.469-.2.469-.447.469a.458.458 0 0 1-.447-.469zm23.233-24.382c0-.259.2-.469.446-.469.247 0 .447.21.447.469s-.2.469-.447.469a.458.458 0 0 1-.446-.469zm0 24.382c0-.259.2-.469.446-.469.247 0 .447.21.447.469s-.2.469-.447.469a.458.458 0 0 1-.446-.469zm-22.339-3.282c0-.259.2-.469.447-.469.246 0 .446.21.446.469 0 .258-.2.469-.446.469a.459.459 0 0 1-.447-.469zm21.445-6.565c0-.258.2-.469.447-.469a.46.46 0 0 1 .447.469.459.459 0 0 1-.447.469.458.458 0 0 1-.447-.469zm.894.938c0-.259.2-.469.446-.469.247 0 .447.21.447.469s-.2.469-.447.469a.458.458 0 0 1-.446-.469zm-.894 3.751c0-.259.2-.469.447-.469.246 0 .447.21.447.469a.459.459 0 0 1-.447.469.458.458 0 0 1-.447-.469zm.894.938c0-.259.2-.469.446-.469.247 0 .447.21.447.469s-.2.469-.447.469a.458.458 0 0 1-.446-.469zm-.894-10.315c0-.259.2-.469.447-.469.246 0 .447.21.447.469a.459.459 0 0 1-.447.468.458.458 0 0 1-.447-.468zm.894.937c0-.258.2-.469.446-.469.247 0 .447.211.447.469 0 .259-.2.469-.447.469a.458.458 0 0 1-.446-.469zm-23.233 8.909c0-.259.2-.469.447-.469s.447.21.447.469-.2.469-.447.469a.458.458 0 0 1-.447-.469zm.894-.938c0-.259.2-.469.447-.469.246 0 .446.21.446.469s-.2.469-.446.469a.458.458 0 0 1-.447-.469zm-.894-1.406c0-.259.2-.469.447-.469s.447.21.447.469c0 .258-.2.469-.447.469a.459.459 0 0 1-.447-.469zm.894-.938c0-.259.2-.469.447-.469.246 0 .446.21.446.469s-.2.469-.446.469a.458.458 0 0 1-.447-.469zm-.894-1.407c0-.259.2-.469.447-.469s.447.21.447.469-.2.469-.447.469a.458.458 0 0 1-.447-.469zm.894-.938c0-.258.2-.468.447-.468.246 0 .446.21.446.468 0 .259-.2.469-.446.469a.458.458 0 0 1-.447-.469zm-.894-1.406c0-.259.2-.469.447-.469s.447.21.447.469-.2.469-.447.469a.458.458 0 0 1-.447-.469zm.894-.938c0-.259.2-.469.447-.469.246 0 .446.21.446.469s-.2.469-.446.469a.458.458 0 0 1-.447-.469zm-.894-1.407c0-.258.2-.468.447-.468s.447.21.447.468c0 .259-.2.469-.447.469a.458.458 0 0 1-.447-.469zm.894-.937c0-.259.2-.469.447-.469.246 0 .446.21.446.469s-.2.469-.446.469a.458.458 0 0 1-.447-.469zm-.894-6.096c0-.258.2-.469.447-.469s.447.211.447.469c0 .259-.2.469-.447.469a.458.458 0 0 1-.447-.469zm5.808-3.282c0-.259.201-.469.447-.469.247 0 .447.21.447.469s-.2.469-.447.469a.459.459 0 0 1-.447-.469zm-1.787 0c0-.259.2-.469.447-.469s.447.21.447.469-.2.469-.447.469a.458.458 0 0 1-.447-.469zm-4.021 4.689c0-.259.2-.469.447-.469s.447.21.447.469-.2.469-.447.469a.458.458 0 0 1-.447-.469zm14.744 19.693c0-.259.2-.469.447-.469.246 0 .446.21.446.469s-.2.469-.446.469a.458.458 0 0 1-.447-.469zm-.894-.938c0-.259.2-.469.447-.469s.447.21.447.469-.2.469-.447.469a.458.458 0 0 1-.447-.469zm-1.34.938c0-.259.2-.469.447-.469.246 0 .446.21.446.469s-.2.469-.446.469a.458.458 0 0 1-.447-.469zm-.894-.938c0-.259.201-.469.447-.469.247 0 .447.21.447.469s-.2.469-.447.469a.459.459 0 0 1-.447-.469zm-1.34.938c0-.259.2-.469.447-.469.246 0 .447.21.447.469a.459.459 0 0 1-.447.469.458.458 0 0 1-.447-.469zm-.893-.938c0-.259.2-.469.446-.469.247 0 .447.21.447.469s-.2.469-.447.469a.458.458 0 0 1-.446-.469zm-1.341.938c0-.259.2-.469.447-.469s.447.21.447.469-.2.469-.447.469a.458.458 0 0 1-.447-.469zm-.893-.938c0-.259.2-.469.446-.469.247 0 .447.21.447.469s-.2.469-.447.469a.458.458 0 0 1-.446-.469zm-1.341.938c0-.259.201-.469.447-.469.247 0 .447.21.447.469s-.2.469-.447.469a.459.459 0 0 1-.447-.469zm-.893-.938c0-.259.2-.469.447-.469.246 0 .446.21.446.469s-.2.469-.446.469a.458.458 0 0 1-.447-.469zm-1.341.938c0-.259.201-.469.447-.469.247 0 .447.21.447.469s-.2.469-.447.469a.459.459 0 0 1-.447-.469zm-.893-.938c0-.259.2-.469.447-.469.246 0 .446.21.446.469s-.2.469-.446.469a.458.458 0 0 1-.447-.469z" fill="#eddc6e"/><path d="M29.374 31.088H18.038c-.818 0-1.48-.695-1.48-1.553V17.637c0-.858.662-1.553 1.48-1.553h11.337c.817 0 1.48.695 1.48 1.553v11.898c0 .858-.663 1.553-1.481 1.553z" fill="#414141"/><text font-size="6" font-weight="400" x="18.22" y="26" font-family="Offside" fill="#fff">CPU</text></svg>