<svg xmlns="http://www.w3.org/2000/svg" xmlns:xlink="http://www.w3.org/1999/xlink" width="48" height="48" version="1.1" id="svg38"><defs id="defs22"><style id="style4511"/><style id="style4511-26"/><style id="style4511-9"/><linearGradient id="linearGradient4198"><stop offset="0" id="stop7-9" stop-color="#208dff" stop-opacity="1"/><stop offset="1" id="stop9-1" stop-color="#51a6ff" stop-opacity="1"/></linearGradient><style id="style4552"/><style id="style4511-2"/><radialGradient xlink:href="#linearGradient4198" id="radialGradient1250" cx="24.045" cy="23.586" fx="24.045" fy="23.586" r="21.123" gradientTransform="matrix(1 0 0 .99467 0 .126)" gradientUnits="userSpaceOnUse"/></defs><style id="style4485" type="text/css"/><path id="path4534" d="M19.701 2.742h8.495c13.908 0 16.805 11.247 16.805 17.282v7.124c0 5.96-2.704 17.282-17.837 17.282h-6.93c-11.562 0-17.146-7.708-17.146-17.282v-7.124c0-9.574 5.47-17.282 16.613-17.282z" opacity="1" fill="url(#radialGradient1250)" fill-opacity="1" stroke="#000" stroke-width=".334" stroke-linecap="square" stroke-linejoin="bevel" stroke-miterlimit="4" stroke-dasharray="none" stroke-dashoffset="0" stroke-opacity=".078"/><g id="g1230" transform="translate(.144)"><path id="path1207" d="M23.9 12.155c-4.213 0-7.802 2.588-9.347 6.251-3.923.586-6.931 3.94-6.931 8.039 0 4.51 3.644 8.166 8.14 8.166h17.296c3.933 0 7.121-3.2 7.121-7.145a7.117 7.117 0 0 0-6.295-7.082c-.925-4.681-5.045-8.23-9.983-8.23z" fill="#e4e4e4" stroke-width=".744"/><g id="g1217" transform="matrix(.89755 0 0 .92528 -363.639 -455.145)" opacity=".5"><path id="path1211" d="M435 512.95c-.388 0-.753.09-1.084.238a3.97 3.97 0 0 1-1.1 3.64c.46.7 1.26 1.17 2.18 1.17 1.433 0 2.594-1.13 2.594-2.524 0-1.396-1.16-2.528-2.594-2.528zm0 6.05c-.196 0-.372.013-.553.021.698.4 1.23.878 1.604 1.377.94 1.26.95 2.6.95 2.6h3v-1s0-3-5-3z"/><path id="path1213" d="M430 511a3 3 0 1 1 0 6 3 3 0 0 1 0-6z"/><path id="path1215" d="M430 519c6-.01 6 4 6 4v1h-12v-1s0-4 6-4.003z"/></g></g></svg>