<svg xmlns="http://www.w3.org/2000/svg" xmlns:xlink="http://www.w3.org/1999/xlink" width="48" height="48" version="1.1" id="svg38"><defs id="defs22"><linearGradient id="linearGradient3764-7" x1="1" x2="47" gradientUnits="userSpaceOnUse" gradientTransform="rotate(-90 -5 51.874)"><stop stop-color="#48a1e0" stop-opacity="1" id="stop1825"/><stop offset="1" stop-color="#5aa9e3" stop-opacity="1" id="stop1827"/></linearGradient><style id="style4511"/><style id="style4511-26"/><style id="style4511-9"/><style id="style4552"/><style id="style4511-2"/><clipPath id="clipPath-886807824"/><clipPath id="clipPath-897244418"/><linearGradient xlink:href="#linearGradient3764-7" id="linearGradient1651" x1="2.985" y1="23.808" x2="45.232" y2="23.808" gradientUnits="userSpaceOnUse"/><clipPath id="clipPath-493981608"/></defs><style id="style4485" type="text/css"/><path d="M19.765 2.965h8.496c13.907 0 16.804 11.246 16.804 17.282v7.123c0 5.96-2.704 17.282-17.837 17.282h-6.93c-11.562 0-17.146-7.766-17.146-17.282v-7.123c0-9.575 5.47-17.282 16.613-17.282z" id="rect4144" opacity="1" fill="url(#linearGradient1651)" fill-opacity="1" stroke="#000" stroke-width=".334" stroke-linecap="square" stroke-linejoin="bevel" stroke-miterlimit="4" stroke-dasharray="none" stroke-dashoffset="0" stroke-opacity=".078"/><path id="path1737" d="M9.126 30.625l-1 5h32l-1-5m-30 0" fill="#2d2d2d" fill-opacity="1" fill-rule="nonzero" stroke="none"/><path id="path1739" d="M13.454 26.625h3.344c.734 0 1.328.594 1.328 1.328v3.344c0 .734-.594 1.328-1.328 1.328h-3.344a1.33 1.33 0 0 1-1.328-1.328v-3.344a1.33 1.33 0 0 1 1.328-1.328m0 0" fill="#f9f9f9" fill-opacity="1" fill-rule="nonzero" stroke="none"/><path id="path1741" d="M22.454 26.625h3.344c.734 0 1.328.594 1.328 1.328v3.344c0 .734-.594 1.328-1.328 1.328h-3.344a1.33 1.33 0 0 1-1.328-1.328v-3.344a1.33 1.33 0 0 1 1.328-1.328m0 0" fill="#f9f9f9" fill-opacity="1" fill-rule="nonzero" stroke="none"/><path id="path1743" d="M31.456 26.625h3.352c.727 0 1.328.594 1.328 1.328v3.344c0 .734-.602 1.328-1.328 1.328h-3.352c-.727 0-1.32-.594-1.32-1.328v-3.344c0-.734.598-1.328 1.32-1.328m0 0" fill="#f9f9f9" fill-opacity="1" fill-rule="nonzero" stroke="none"/></svg>