<svg xmlns:osb="http://www.openswatchbook.org/uri/2009/osb" xmlns="http://www.w3.org/2000/svg" xmlns:xlink="http://www.w3.org/1999/xlink" width="48" height="48" version="1.1" id="svg38"><defs id="defs22"><linearGradient id="linearGradient4488"><stop id="stop4490" offset="0" stop-color="#000" stop-opacity=".047"/><stop id="stop4492" offset="1" stop-color="#000" stop-opacity="0"/></linearGradient><style id="style4511"/><style id="style4511-26"/><style id="style4511-9"/><style id="style4552"/><style id="style4511-2"/><linearGradient xlink:href="#linearGradient4488" id="linearGradient4546" gradientUnits="userSpaceOnUse" gradientTransform="rotate(.331 -280.512 -10519.961) scale(.3038)" x1="288.112" y1="141.785" x2="287.575" y2="79.008"/><style id="style4511-8"/><style id="style4511-26-4"/><style id="style4511-9-7"/><style id="style4552-3"/><style id="style4511-2-8"/><style id="style4552-7"/><style id="style4552-6"/><style id="style4552-73"/><style id="style4552-2"/><linearGradient osb:paint="solid" id="linearGradient5251"><stop id="stop5253" offset="0" stop-color="#2f343f" stop-opacity="1"/></linearGradient><style id="style4511-87"/><style id="style4511-26-7"/><style id="style4511-9-1"/><style id="style4552-8"/><style id="style4511-2-5"/><clipPath id="clipPath-886807824"/><clipPath id="clipPath-897244418"/><linearGradient id="linearGradient3764-7-5" x1="1" x2="47" gradientUnits="userSpaceOnUse" gradientTransform="rotate(-90 -5 51.874)"><stop stop-color="#48a1e0" stop-opacity="1" id="stop1688"/><stop offset="1" stop-color="#5aa9e3" stop-opacity="1" id="stop1690"/></linearGradient><linearGradient xlink:href="#linearGradient3764-7-5" id="linearGradient3023" x1="2.956" y1="23.589" x2="45.245" y2="23.589" gradientUnits="userSpaceOnUse"/></defs><style id="style4485" type="text/css"/><style type="text/css" id="style4485-0"/><style id="style4485-4" type="text/css"/><style id="style4485-5" type="text/css"/><style id="style4485-3" type="text/css"/><style id="style4485-5-1" type="text/css"/><path d="M3.129 26.103l-.01 1.668c-.057 9.574 5.48 17.315 17.043 17.384l6.93.04c15.132.09 17.903-11.216 17.939-17.175l.01-1.669c-.036 5.96-2.807 17.266-17.939 17.176l-6.93-.04c-11.562-.07-17.1-7.81-17.043-17.384z" id="path4528" opacity="1" fill="url(#linearGradient4546)" fill-opacity="1" stroke="none" stroke-width="1.1" stroke-linecap="square" stroke-linejoin="bevel" stroke-miterlimit="4" stroke-dasharray="none" stroke-dashoffset="0" stroke-opacity=".078"/><path d="M19.88 2.723l8.496.05c13.907.083 16.737 11.347 16.701 17.382l-.042 7.123C45 33.238 42.23 44.544 27.097 44.454l-6.93-.04c-11.563-.07-17.1-7.81-17.044-17.384l.043-7.123c.056-9.574 5.572-17.25 16.715-17.184z" id="path4530" opacity="1" fill="url(#linearGradient3023)" fill-opacity="1" stroke="#000" stroke-width=".334" stroke-linecap="square" stroke-linejoin="bevel" stroke-miterlimit="4" stroke-dasharray="none" stroke-dashoffset="0" stroke-opacity=".078"/><path d="M12.78 3.81a14.34 14.34 0 0 0-4.003 2.405l1.039 1.083-5.25 5.674 6.212.037L16.2 7.332a479.75 479.75 0 0 1-3.42-3.523z" id="path5889" opacity="1" fill="#4d4d4d" fill-opacity="1" stroke="none" stroke-width="1.8" stroke-linecap="round" stroke-linejoin="miter" stroke-miterlimit="4" stroke-dasharray="none" stroke-dashoffset="0" stroke-opacity="1"/><path d="M17.758 2.651c-1.897.173-3.61.585-5.133 1.212l3.33 3.471-5.25 5.674 6.214.037 5.42-5.677a654.759 654.759 0 0 1-4.581-4.717z" id="path5893" opacity="1" fill="#4d4d4d" fill-opacity="1" stroke="none" stroke-width="1.8" stroke-linecap="round" stroke-linejoin="miter" stroke-miterlimit="4" stroke-dasharray="none" stroke-dashoffset="0" stroke-opacity="1"/><path d="M19.92 2.557c-.82-.005-1.6.044-2.358.12l4.503 4.693-5.248 5.675 6.213.036 5.42-5.677c-1.304-1.321-2.98-3.06-4.684-4.824z" id="path5895" opacity="1" fill="#4d4d4d" fill-opacity="1" stroke="none" stroke-width="1.8" stroke-linecap="round" stroke-linejoin="miter" stroke-miterlimit="4" stroke-dasharray="none" stroke-dashoffset="0" stroke-opacity="1"/><path d="M23.573 2.578l4.633 4.829-5.248 5.674 6.212.036 5.42-5.676c-1.289-1.307-2.944-3.023-4.631-4.77a24.678 24.678 0 0 0-1.545-.064z" id="path5897" opacity="1" fill="#4d4d4d" fill-opacity="1" stroke="none" stroke-width="1.8" stroke-linecap="round" stroke-linejoin="miter" stroke-miterlimit="4" stroke-dasharray="none" stroke-dashoffset="0" stroke-opacity="1"/><path d="M29.763 2.652l4.597 4.791-5.248 5.674 6.212.037 5.415-5.67-.155-.172c-.092-.093-.226-.233-.323-.332-2.33-2.324-5.695-4.034-10.498-4.328z" id="path5899" opacity="1" fill="#4d4d4d" fill-opacity="1" stroke="none" stroke-width="1.8" stroke-linecap="round" stroke-linejoin="miter" stroke-miterlimit="4" stroke-dasharray="none" stroke-dashoffset="0" stroke-opacity="1"/><path d="M38.83 5.737L40.5 7.48l-5.25 5.674 6.213.037 1.79-1.875c-.968-2.067-2.38-4.037-4.424-5.579z" id="path5901" opacity="1" fill="#4d4d4d" fill-opacity="1" stroke="none" stroke-width="1.8" stroke-linecap="round" stroke-linejoin="miter" stroke-miterlimit="4" stroke-dasharray="none" stroke-dashoffset="0" stroke-opacity="1"/><path d="M43.184 11.173l-1.866 2.017 2.705.016a18.183 18.183 0 0 0-.84-2.033z" id="path5903" opacity="1" fill="#4d4d4d" fill-opacity="1" stroke="none" stroke-width="1.8" stroke-linecap="round" stroke-linejoin="miter" stroke-miterlimit="4" stroke-dasharray="none" stroke-dashoffset="0" stroke-opacity="1"/><path d="M9.02 6.02c-2.2 1.79-3.785 4.173-4.732 6.95l.552.004 5.42-5.677c-.344-.35-.835-.862-1.24-1.277z" id="path5905" opacity="1" fill="#4d4d4d" fill-opacity="1" stroke="none" stroke-width="1.8" stroke-linecap="round" stroke-linejoin="miter" stroke-miterlimit="4" stroke-dasharray="none" stroke-dashoffset="0" stroke-opacity="1"/><g id="g1870" transform="translate(69.254 1.424)" fill="#fff" fill-opacity="1" fill-rule="nonzero" stroke="none"><path id="path1808" d="M-61.023 17.975v-2h6v4h-6m0-2"/><path id="path1810" d="M-61.023 23.975v-2h6v4h-6m0-2"/><path id="path1812" d="M-61.023 29.975v-2h6v4h-6m0-2"/></g><style type="text/css" id="style4485-04"/></svg>