<svg xmlns="http://www.w3.org/2000/svg" xmlns:xlink="http://www.w3.org/1999/xlink" width="48" height="48" version="1.1" id="svg38"><defs id="defs22"><style id="style4511"/><style id="style4511-26"/><style id="style4511-9"/><style id="style4552"/><linearGradient id="b-5" y1="532.8" y2="506.8" x2="0" gradientUnits="userSpaceOnUse"><stop stop-color="#989a9b" id="stop7-629"/><stop offset="1" stop-color="#f6f6f7" id="stop9-12"/></linearGradient><linearGradient id="c-70" y1="542.8" y2="533.8" gradientUnits="userSpaceOnUse" x2="0" gradientTransform="translate(0 -28)"><stop stop-color="#bcb4a1" id="stop12-9"/><stop offset="1" stop-color="#c5bfad" id="stop14-360"/></linearGradient><style id="style4511-2"/><linearGradient xlink:href="#b-5" id="linearGradient1213" x1="12.355" y1="20.383" x2="28.814" y2="20.383" gradientUnits="userSpaceOnUse"/><linearGradient xlink:href="#c-70" id="linearGradient1221" x1="11.971" y1="20.482" x2="29.399" y2="20.482" gradientUnits="userSpaceOnUse"/><linearGradient id="linearGradient876"><stop id="stop872" offset="0" stop-color="#772853" stop-opacity="1"/><stop id="stop874" offset="1" stop-color="#a1316f" stop-opacity="1"/></linearGradient><linearGradient xlink:href="#linearGradient876" id="linearGradient1589" x1="2.654" y1="24.405" x2="45.511" y2="24.405" gradientUnits="userSpaceOnUse"/><linearGradient id="linearGradient6602-4"><stop offset="0" id="stop6604-3" stop-color="#fff" stop-opacity="1"/><stop offset="1" id="stop6606-7" stop-color="#fff" stop-opacity="0"/></linearGradient><linearGradient gradientTransform="matrix(1.14965 0 0 1.20339 -3.6 -.483)" gradientUnits="userSpaceOnUse" xlink:href="#linearGradient3332-412-419-652-471" id="linearGradient2899" y2="26.058" x2="17.431" y1="16.056" x1="17.431"/><linearGradient id="linearGradient6432"><stop offset="0" id="stop6434" stop-color="#fff" stop-opacity="1"/><stop offset="1" id="stop6436" stop-color="#000" stop-opacity="1"/></linearGradient><linearGradient id="linearGradient4434"><stop offset="0" id="stop4436" stop-color="#d3d7cf" stop-opacity="1"/><stop offset=".183" id="stop4438" stop-color="#babdb6" stop-opacity="1"/><stop offset=".319" id="stop4440" stop-color="#fff" stop-opacity="1"/><stop offset=".876" id="stop4442" stop-color="#babdb6" stop-opacity="1"/><stop offset="1" id="stop4444" stop-color="#eeeeec" stop-opacity="1"/></linearGradient><linearGradient id="linearGradient7444"><stop offset="0" id="stop7446" stop-color="#888a85" stop-opacity="1"/><stop offset="1" id="stop7448" stop-color="#555753" stop-opacity="1"/></linearGradient><linearGradient id="linearGradient7381"><stop offset="0" id="stop7383" stop-color="#babdb6" stop-opacity="1"/><stop offset="1" id="stop7385" stop-color="#fff" stop-opacity="1"/></linearGradient><linearGradient gradientTransform="translate(55.75 906.777)" gradientUnits="userSpaceOnUse" xlink:href="#linearGradient4434" id="linearGradient6778" y2="81.926" x2="335.3" y1="64.295" x1="304.762"/><linearGradient gradientTransform="translate(55.75 906.777)" gradientUnits="userSpaceOnUse" xlink:href="#linearGradient7444" id="linearGradient6780" y2="99.274" x2="330.061" y1="70.282" x1="324.497"/><linearGradient gradientTransform="translate(55.75 906.777)" gradientUnits="userSpaceOnUse" xlink:href="#linearGradient7381" id="linearGradient6782" y2="60.768" x2="308.649" y1="58.443" x1="302.292"/><linearGradient gradientUnits="userSpaceOnUse" xlink:href="#linearGradient6602-4" id="linearGradient6786" y2="88.006" x2="317.161" y1="75.575" x1="326.602"/><linearGradient gradientTransform="matrix(1.07424 0 0 1.11763 3.461 -124.118)" gradientUnits="userSpaceOnUse" xlink:href="#linearGradient6432" id="linearGradient2936" y2="986.929" x2="340.934" y1="984.382" x1="340.934"/><mask id="mask2932"><path id="rect2934" fill="url(#linearGradient2936)" fill-opacity="1" fill-rule="nonzero" stroke="none" visibility="visible" display="inline" d="M344.801 958.025h32.496v37.72h-32.496z"/></mask><linearGradient id="linearGradient3332-412-419-652-471"><stop id="stop2759" offset="0" stop-color="#650d5c" stop-opacity="1"/><stop id="stop2761" offset="1" stop-color="#ad53a5" stop-opacity="1"/></linearGradient></defs><style id="style4485" type="text/css"/><path d="M19.677 3.253h8.618c14.108 0 17.047 11.413 17.047 17.537v7.229c0 6.047-2.744 17.537-18.094 17.537h-7.03c-11.73 0-17.394-7.822-17.394-17.537V20.79c0-9.715 5.549-17.537 16.853-17.537z" id="rect4144" opacity="1" fill="url(#linearGradient1589)" fill-opacity="1" stroke="#000" stroke-width=".339" stroke-linecap="square" stroke-linejoin="bevel" stroke-miterlimit="4" stroke-dasharray="none" stroke-dashoffset="0" stroke-opacity=".078"/><g id="g1227" transform="matrix(.99994 0 0 1.01475 -31.326 -55.5)" fill-opacity="1" fill-rule="nonzero" stroke="none" stroke-width=".973"><path d="M20.497 12.066c4.547-.049 8.269 3.635 8.317 8.23.048 4.597-3.595 8.36-8.142 8.405-4.544.053-8.269-3.631-8.317-8.23-.048-4.593 3.599-8.356 8.142-8.405m0 0" id="path84" fill="url(#linearGradient1213)"/><path d="M27.387 25.673l-1.44 1.488 4.827 4.776 1.44-1.487" id="path86" fill="#d29537"/><path d="M11.971 20.59a8.803 8.803 0 0 0 2.622 6.188 8.655 8.655 0 0 0 12.324-.133c3.36-3.469 3.301-9.062-.131-12.461a8.662 8.662 0 0 0-12.324.132 8.89 8.89 0 0 0-2.491 6.273m1.433-.015a7.361 7.361 0 0 1 2.074-5.222 7.202 7.202 0 0 1 10.282-.11 7.401 7.401 0 0 1 .11 10.402 7.202 7.202 0 0 1-10.282.11 7.356 7.356 0 0 1-2.184-5.179m0 0" id="path88" fill="url(#linearGradient1221)"/><path d="M32.468 30.065l-2.055 2.12 4.828 4.778 2.055-2.122" id="path90" fill="#222b30"/></g><g id="g1528" transform="translate(.091 -.45)" fill-opacity="1" stroke-width="1"><rect id="rect7303" y="19.444" x="10.71" ry="1.203" rx="1.15" height="10.822" width="26.563" opacity=".9" fill="#fff" stroke="url(#linearGradient2899)" stroke-opacity="1"/><path id="path2879" d="M18.243 24.788a2.3 2.407 0 0 1-4.598 0 2.3 2.407 0 1 1 4.598 0z" fill="#000" stroke="none"/><path id="path3653" d="M26.291 24.788a2.3 2.407 0 0 1-4.599 0 2.3 2.407 0 1 1 4.599 0z" fill="#000" stroke="none"/><path id="path3655" d="M34.339 24.788a2.3 2.407 0 0 1-4.6 0 2.3 2.407 0 1 1 4.6 0z" fill="#000" stroke="none"/></g><g transform="matrix(.91868 0 0 .91245 -305.682 -853.376)" mask="url(#mask2932)" id="g6402" display="inline" stroke-width="1.29"><path d="M354.902 961.714a.39.39 0 0 0-.095.175c-.435 1.875-.23 4.03.596 5.506 1.127 2.017 3.474 2.98 5.773 2.572.94.316 2.185 1.012 3.662 2.479l18.436 18.312 3.473-3.45-18.436-18.312c-1.331-1.323-2.03-2.456-2.387-3.352.31-1.237.183-2.558-.47-3.727-.825-1.476-2.556-2.782-4.39-3.418a.393.393 0 0 0-.48.566l2.246 4.028c.202.36.097.825-.229 1.3-.328.48-.874.958-1.573 1.34-.699.38-1.398.59-1.982.61-.58.019-1.037-.142-1.24-.504l-2.259-4.05a.4.4 0 0 0-.645-.075z" id="path6912" display="inline" fill="url(#linearGradient6778)" fill-opacity="1" fill-rule="evenodd" stroke="url(#linearGradient6780)" stroke-width="1.092" stroke-linecap="round" stroke-linejoin="round" stroke-miterlimit="4" stroke-dasharray="none" stroke-dashoffset=".361" stroke-opacity="1"/><path d="M360.938 958.84c.018.007.007.031 0 .031l2.25 4.031c.303.544.084 1.185-.282 1.72-.37.539-.942 1.062-1.687 1.468-.747.407-1.531.603-2.188.625-.655.022-1.27-.165-1.562-.688l-2.25-4.062c-.013-.002-.034.002-.032 0 .021-.022.004.016 0 .031-.414 1.788-.2 3.855.563 5.219 1.043 1.866 3.22 2.757 5.375 2.375 2.145-.384 3.98-2.253 4.437-4.031.29-1.152.166-2.39-.437-3.469-.76-1.36-2.432-2.641-4.188-3.25z" id="path7379" display="inline" fill="url(#linearGradient6782)" fill-opacity="1" fill-rule="evenodd" stroke="none" stroke-width="1.29"/><path d="M306.313 53.188l1.5 2.718c.426.763.133 1.582-.282 2.188-.42.612-1.042 1.156-1.844 1.593-.805.44-1.63.694-2.375.72-.745.024-1.568-.221-1.968-.938l-1.563-2.813c-.066 1.318.084 2.65.594 3.563.94 1.683 2.924 2.507 4.906 2.156a.838.838 0 0 1 .438.031c1.074.362 2.418 1.117 3.969 2.657l18.437 18.312 2.281-2.25-18.437-18.313c-1.398-1.388-2.158-2.612-2.563-3.624a.84.84 0 0 1-.031-.5c.263-1.048.168-2.185-.375-3.157-.496-.888-1.546-1.701-2.687-2.343z" transform="translate(55.75 906.777)" id="path6394" display="inline" fill="none" stroke="url(#linearGradient6786)" stroke-width=".765" stroke-linecap="round" stroke-linejoin="miter" stroke-miterlimit="4" stroke-dasharray="none" stroke-dashoffset=".361" stroke-opacity="1"/><rect width="1.956" height="30.755" rx=".747" ry="1.493" x="-428.175" y="943.147" transform="rotate(-45)" id="rect7166" display="inline" opacity=".08" fill="#000" fill-opacity="1" fill-rule="evenodd" stroke="none" stroke-width="1.29"/></g></svg>