<svg xmlns:osb="http://www.openswatchbook.org/uri/2009/osb" xmlns="http://www.w3.org/2000/svg" xmlns:xlink="http://www.w3.org/1999/xlink" width="48" height="48" version="1.1" id="svg38"><defs id="defs22"><linearGradient id="linearGradient6141"><stop offset="0" id="stop6137" stop-color="#f9f9f9" stop-opacity="1"/><stop offset="1" id="stop6139" stop-color="#f9f9f9" stop-opacity="0"/></linearGradient><linearGradient id="linearGradient6133"><stop offset="0" id="stop6129" stop-color="#f9f9f9" stop-opacity="1"/><stop offset="1" id="stop6131" stop-color="#f9f9f9" stop-opacity="0"/></linearGradient><linearGradient id="linearGradient6125"><stop offset="0" id="stop6121" stop-color="#f9f9f9" stop-opacity="1"/><stop offset="1" id="stop6123" stop-color="#f9f9f9" stop-opacity="0"/></linearGradient><linearGradient id="linearGradient4488"><stop id="stop4490" offset="0" stop-color="#000" stop-opacity=".047"/><stop id="stop4492" offset="1" stop-color="#000" stop-opacity="0"/></linearGradient><style id="style4511"/><style id="style4511-26"/><style id="style4511-9"/><linearGradient id="linearGradient4223"><stop id="stop7-6-2" offset="0" stop-color="#c6cdd1" stop-opacity="1"/><stop id="stop9-7-3" offset="1" stop-color="#e0e5e7" stop-opacity="1"/></linearGradient><style id="style4552"/><style id="style4511-2"/><clipPath id="SVGID_6_-20" clip-path="url(#SVGID_5_)"><use xlink:href="#SVGID_4_" overflow="visible" id="use26-2" x="0" y="0" width="100%" height="100%"/></clipPath><linearGradient id="SVGID_11_-3" gradientUnits="userSpaceOnUse" x1="67.374" y1="82.338" x2="67.374" y2="49.164"><stop offset="0" id="stop125-6" stop-color="#c8c8c8"/><stop offset=".063" id="stop127-1" stop-color="#bfbfbf"/><stop offset=".316" id="stop129-2" stop-color="#a0a0a0"/><stop offset=".561" id="stop131-9" stop-color="#898989"/><stop offset=".793" id="stop133-3" stop-color="#7c7c7c"/><stop offset="1" id="stop135-19" stop-color="#777"/></linearGradient><linearGradient xlink:href="#linearGradient4223" id="linearGradient1384" gradientUnits="userSpaceOnUse" x1="2.264" y1="23.952" x2="45.629" y2="23.952"/><linearGradient osb:paint="gradient" id="linearGradient4207-3"><stop id="stop3371" offset="0" stop-color="#3498db" stop-opacity="1"/><stop id="stop3373" offset="1" stop-color="#3498db" stop-opacity="0"/></linearGradient><style id="style4511-8"/><style id="style4511-26-4"/><style id="style4511-9-8"/><style id="style4552-9"/><style id="style4511-2-4"/><style id="style4511-879"/><style id="style4511-26-765"/><style id="style4511-9-22"/><style id="style4552-4"/><style id="style4511-2-84"/><linearGradient y2="79.008" x2="287.575" y1="141.785" x1="288.112" gradientTransform="matrix(-.2628 0 0 -.25042 98.926 41.621)" gradientUnits="userSpaceOnUse" id="linearGradient4546" xlink:href="#linearGradient4488"/><style id="style4511-8-72"/><style id="style4511-26-4-9"/><style id="style4511-9-7"/><style id="style4552-3"/><style id="style4511-2-8"/><style id="style4552-7"/><style id="style4552-6"/><style id="style4552-73"/><style id="style4552-2"/><linearGradient id="linearGradient5251" osb:paint="solid"><stop offset="0" id="stop5253" stop-color="#2f343f" stop-opacity="1"/></linearGradient><style id="style4511-87"/><style id="style4511-26-76"/><style id="style4511-9-2"/><style id="style4552-8"/><style id="style4511-2-51"/><linearGradient osb:paint="solid" id="linearGradient5293"><stop id="stop5295" offset="0" stop-color="#9a89c0" stop-opacity="1"/></linearGradient><style id="style4511-8-7"/><style id="style4511-26-7"/><style id="style4511-9-7-9"/><style id="style4552-5"/><style id="style4511-2-5"/><linearGradient id="linearGradient4514"><stop offset="0" id="stop4510" stop-color="#78d1d1" stop-opacity="1"/><stop offset="1" id="stop4512" stop-color="#138ebb" stop-opacity="1"/></linearGradient><linearGradient gradientUnits="userSpaceOnUse" y2="24.161" x2="45.221" y1="24.161" x1="2.974" id="linearGradient2245" xlink:href="#linearGradient4514" gradientTransform="matrix(.8674 0 0 .82428 3.068 3.908)"/><style id="style4511-8792"/><style id="style4511-26-3"/><style id="style4511-9-0"/><style id="style4552-86"/><style id="style4511-2-9"/><style id="style4511-8-1"/><style id="style4511-26-4-6"/><style id="style4511-9-7-0"/><style id="style4552-3-5"/><style id="style4511-2-8-8"/><style id="style4552-7-6"/><style id="style4552-6-7"/><style id="style4552-73-1"/><style id="style4552-2-8"/><style id="style4511-87-5"/><style id="style4511-26-7-2"/><style id="style4511-9-1"/><style id="style4552-8-5"/><style id="style4511-2-5-8"/><linearGradient id="linearGradient9014"><stop id="stop9016" offset="0" stop-color="#fff" stop-opacity="0"/><stop id="stop9018" offset=".493" stop-color="#fff" stop-opacity="1"/><stop id="stop9020" offset="1" stop-color="#fff" stop-opacity="0"/></linearGradient><style id="style4511-879-9"/><style id="style4511-26-76-4"/><style id="style4511-9-2-1"/><style id="style4552-89"/><style id="style4511-2-1"/><linearGradient xlink:href="#linearGradient9014" id="linearGradient6119" x1="7.077" y1="11.133" x2="14.489" y2="11.133" gradientUnits="userSpaceOnUse"/><linearGradient xlink:href="#linearGradient6125" id="linearGradient6127" x1="34.355" y1="11.694" x2="41.217" y2="11.694" gradientUnits="userSpaceOnUse"/><linearGradient xlink:href="#linearGradient6133" id="linearGradient6135" x1="33.481" y1="36.664" x2="40.893" y2="36.664" gradientUnits="userSpaceOnUse"/><linearGradient xlink:href="#linearGradient6141" id="linearGradient6143" x1="6.779" y1="36.088" x2="13.641" y2="36.088" gradientUnits="userSpaceOnUse"/></defs><style id="style4485" type="text/css"/><g clip-path="url(#SVGID_6_-20)" id="g98" transform="matrix(.06034 .06406 -.06158 .06277 -25.328 20.285)"><g id="g96" opacity=".1"><path d="M67.375 52.718c7.197 0 13.033 5.835 13.033 13.033 0 7.198-5.835 13.033-13.033 13.033-7.198 0-13.033-5.835-13.033-13.033 0-7.198 5.835-13.033 13.033-13.033m0-10.664c-13.066 0-23.696 10.63-23.696 23.696s10.63 23.696 23.696 23.696 23.696-10.63 23.696-23.696-10.63-23.696-23.696-23.696z" id="path94"/></g></g><g clip-path="url(#SVGID_6_-20)" id="g142" transform="matrix(.06034 .06406 -.06158 .06277 -25.328 20.285)"><path d="M67.375 55.888c5.447 0 9.862 4.416 9.862 9.862s-4.415 9.863-9.862 9.863-9.863-4.417-9.863-9.863 4.415-9.862 9.863-9.862m0-6.724c-9.146 0-16.587 7.441-16.587 16.587 0 9.145 7.441 16.587 16.587 16.587s16.587-7.442 16.587-16.587c-.001-9.146-7.442-16.587-16.587-16.587z" id="path123" fill="#e9e6dd"/><g id="g140"><linearGradient id="linearGradient1618" gradientUnits="userSpaceOnUse" x1="67.374" y1="82.338" x2="67.374" y2="49.164"><stop offset="0" id="stop1606" stop-color="#c8c8c8"/><stop offset=".063" id="stop1608" stop-color="#bfbfbf"/><stop offset=".316" id="stop1610" stop-color="#a0a0a0"/><stop offset=".561" id="stop1612" stop-color="#898989"/><stop offset=".793" id="stop1614" stop-color="#7c7c7c"/><stop offset="1" id="stop1616" stop-color="#777"/></linearGradient><path d="M67.375 55.888c5.447 0 9.862 4.416 9.862 9.862s-4.415 9.863-9.862 9.863-9.863-4.417-9.863-9.863 4.415-9.862 9.863-9.862m0-6.724c-9.146 0-16.587 7.441-16.587 16.587 0 9.145 7.441 16.587 16.587 16.587s16.587-7.442 16.587-16.587c-.001-9.146-7.442-16.587-16.587-16.587z" id="path138" fill="url(#SVGID_11_-3)"/></g></g><flowRoot xml:space="preserve" id="flowRoot55" style="line-height:1.25" transform="translate(-80.67 -1.748)" font-style="normal" font-weight="400" font-size="5.333" font-family="sans-serif" letter-spacing="0" word-spacing="0" fill="#333" fill-opacity="1" stroke="none"><flowRegion id="flowRegion57" fill="#333"><path id="rect59" fill="#333" d="M-28.332 10.176h24.018v19.415h-24.018z"/></flowRegion><flowPara id="flowPara61"/></flowRoot><flowRoot xml:space="preserve" id="flowRoot926" style="line-height:1.25" transform="translate(-80.67 -1.748)" font-style="normal" font-weight="400" font-size="5.333" font-family="sans-serif" letter-spacing="0" word-spacing="0" fill="#000" fill-opacity="1" stroke="none"><flowRegion id="flowRegion928"><path id="rect930" d="M-52.373 9.458h31.22v24.407h-31.22z"/></flowRegion><flowPara id="flowPara932"/></flowRoot><path id="rect4144" d="M19.488 3.108h8.72c14.278 0 17.252 11.247 17.252 17.282v7.124c0 5.96-2.776 17.282-18.31 17.282h-7.115c-11.87 0-17.602-7.708-17.602-17.282V20.39c0-9.574 5.616-17.282 17.055-17.282z" opacity="1" fill="url(#linearGradient1384)" fill-opacity="1" stroke="#000" stroke-width=".339" stroke-linecap="square" stroke-linejoin="bevel" stroke-miterlimit="4" stroke-dasharray="none" stroke-dashoffset="0" stroke-opacity=".078"/><style type="text/css" id="style4485-4"/><style type="text/css" id="style4485-86"/><style id="style4485-0" type="text/css"/><style type="text/css" id="style4485-4-2"/><style type="text/css" id="style4485-5"/><style type="text/css" id="style4485-3"/><style type="text/css" id="style4485-5-1"/><style id="style4485-83" type="text/css"/><style type="text/css" id="style4485-8"/><path d="M42.148 21.652v-1.376c0-7.892-4.83-14.245-14.832-14.245h-5.994c-13.09 0-15.43 9.333-15.43 14.245v1.376c0-4.913 2.34-14.246 15.43-14.246h5.995c10.001 0 14.83 6.354 14.83 14.246z" id="path4528" opacity="1" fill="url(#linearGradient4546)" fill-opacity="1" stroke="none" stroke-width="1.1" stroke-linecap="square" stroke-linejoin="bevel" stroke-miterlimit="4" stroke-dasharray="none" stroke-dashoffset="0" stroke-opacity=".078"/><path d="M27.737 41.004H20.37c-12.064 0-14.576-9.27-14.576-14.245v-5.872c0-4.912 2.345-14.245 15.471-14.245h6.011c10.03 0 14.873 6.354 14.873 14.245v5.872c0 7.892-4.745 14.245-14.41 14.245z" id="path4530" opacity="1" fill="url(#linearGradient2245)" fill-opacity="1" stroke="#000" stroke-width=".334" stroke-linecap="square" stroke-linejoin="bevel" stroke-miterlimit="4" stroke-dasharray="none" stroke-dashoffset="0" stroke-opacity=".078"/><style type="text/css" id="style4485-1"/><style id="style4485-0-4" type="text/css"/><style type="text/css" id="style4485-4-0"/><style type="text/css" id="style4485-5-3"/><style type="text/css" id="style4485-3-1"/><style type="text/css" id="style4485-5-1-2"/><style id="style4485-04" type="text/css"/><style id="style4485-040" type="text/css"/><path id="path61" d="M33.549 40.095c3.496-1.23 5.864-3.535 7.344-6.84l-5.759-.023c-.782-.003-1.653.761-1.653 1.444" fill="url(#linearGradient6135)" fill-opacity="1" fill-rule="nonzero" stroke="none" stroke-width="1.178"/><path id="path61-5" d="M14.421 7.701c-3.496 1.23-5.865 3.535-7.344 6.84l5.758.023c.783.003 1.654-.761 1.654-1.444" fill="url(#linearGradient6119)" fill-opacity="1" fill-rule="nonzero" stroke="none" stroke-width="1.178"/><path id="path61-1" d="M41.217 15.333c-1.23-3.497-3.534-5.865-6.839-7.345l-.023 5.76c-.003.781.76 1.653 1.444 1.653" fill="url(#linearGradient6127)" fill-opacity="1" fill-rule="nonzero" stroke="none" stroke-width="1.178"/><path id="path61-10" d="M6.779 32.45c1.23 3.496 3.534 5.864 6.839 7.344l.023-5.76c.003-.781-.76-1.653-1.444-1.653" fill="url(#linearGradient6143)" fill-opacity="1" fill-rule="nonzero" stroke="none" stroke-width="1.178"/></svg>