<svg xmlns="http://www.w3.org/2000/svg" xmlns:xlink="http://www.w3.org/1999/xlink" width="48" height="48" version="1.1" id="svg38"><defs id="defs22"><linearGradient id="linearGradient3764-367" x1="1" x2="47" gradientUnits="userSpaceOnUse" gradientTransform="rotate(-90 -4.904 60.008)" y1="0" y2="0" spreadMethod="pad"><stop id="stop1272" stop-color="#c3d9e5" stop-opacity="1"/><stop offset="1" id="stop1274" stop-color="#d1e2eb" stop-opacity="1"/></linearGradient><style id="style4511"/><style id="style4511-26"/><style id="style4511-9"/><style id="style4552"/><style id="style4511-2"/><linearGradient xlink:href="#linearGradient3764-367" id="linearGradient1283" x1="2.654" y1="24.405" x2="45.511" y2="24.405" gradientUnits="userSpaceOnUse"/></defs><style id="style4485" type="text/css"/><path d="M19.677 3.253h8.618c14.108 0 17.047 11.413 17.047 17.537v7.229c0 6.047-2.744 17.537-18.094 17.537h-7.03c-11.73 0-17.394-7.822-17.394-17.537V20.79c0-9.715 5.549-17.537 16.853-17.537z" id="rect4144" opacity="1" fill="url(#linearGradient1283)" fill-opacity="1" stroke="#000" stroke-width=".339" stroke-linecap="square" stroke-linejoin="bevel" stroke-miterlimit="4" stroke-dasharray="none" stroke-dashoffset="0" stroke-opacity=".078"/><g id="g1269" transform="matrix(1.17176 0 0 1.2651 71.994 -14.816)" fill-opacity="1" stroke="none"><path id="path1226" d="M-37.692 19.074c-8.517.217-17.282 4.258-15.53 14.469 1.5 9.257 10.32 11.28 19.405 7.78-7.38 2.41-13.864-.856-15.344-9-1.784-10.398 7.25-13.947 15.531-13.06a28.826 28.826 0 0 0-4.063-.187zm1.625 5.125c-1.335.02-2.628.32-3.719.875.142-.041.295-.107.406-.125 1.265-.203 3.135.723 4.625 1.406 1.293-.296 2.503-.7 3.938-.875a10.821 10.821 0 0 0-5.25-1.281zm6.72 8.78l-3.845.72c-.238.045-1.993 1.84-3.156 2.78 2.475-.18 5.125-1.39 7-3.5z" fill="#156885"/><path id="path1228" d="M-29.353 32.975l1.025 5.573c-9.411 6.502-18.996 3.885-20.836-6.238-1.903-11.09 8.515-14.36 17.19-12.8l1.151 5.968c-5.327-2.857-12.515-.974-12.296 5.465.468 7.01 9.308 7.05 13.771 2.03z" opacity="1" fill="#22c0f0"/></g></svg>