<svg xmlns="http://www.w3.org/2000/svg" xmlns:xlink="http://www.w3.org/1999/xlink" width="48" height="48" version="1.1" id="svg38"><defs id="defs22"><linearGradient id="linearGradient3066" gradientUnits="userSpaceOnUse" gradientTransform="rotate(-90 -1.72 48.813) scale(3.5433)" x1="1.521" y1="6.63" x2="11.968" y2="6.659"><stop stop-color="#fb8e45" stop-opacity="1" id="stop1217"/><stop offset="1" stop-color="#20b8e5" stop-opacity="1" id="stop1219"/></linearGradient><linearGradient id="linearGradient4488"><stop id="stop4490" offset="0" stop-color="#000" stop-opacity=".047"/><stop id="stop4492" offset="1" stop-color="#000" stop-opacity="0"/></linearGradient><style id="style4511"/><style id="style4511-26"/><style id="style4511-9"/><style id="style4552"/><style id="style4511-2"/><linearGradient xlink:href="#linearGradient4488" id="linearGradient4471" gradientUnits="userSpaceOnUse" gradientTransform="translate(-62.47 2.216) scale(.3038)" x1="288.112" y1="141.785" x2="287.575" y2="79.008"/><linearGradient xlink:href="#linearGradient3066" id="linearGradient1228" x1="3.001" y1="23.808" x2="45.248" y2="23.808" gradientUnits="userSpaceOnUse" gradientTransform="rotate(-90 24.124 23.808)"/></defs><style id="style4485" type="text/css"/><g id="g1233" fill-opacity="1"><path id="path4467" d="M3.168 26.443v1.668c0 9.575 5.583 17.282 17.146 17.282h6.93c15.132 0 17.836-11.322 17.836-17.282v-1.668c0 5.96-2.704 17.282-17.836 17.282h-6.93c-11.563 0-17.146-7.708-17.146-17.282z" opacity="1" fill="url(#linearGradient4471)" stroke="none" stroke-width="1.1" stroke-linecap="square" stroke-linejoin="bevel" stroke-miterlimit="4" stroke-dasharray="none" stroke-dashoffset="0" stroke-opacity=".078"/><path id="path4469" d="M3.28 28.151v-8.495C3.28 5.75 14.528 2.852 20.564 2.852h7.123c5.96 0 17.282 2.704 17.282 17.836v6.93c0 11.563-7.708 17.146-17.282 17.146h-7.123c-9.575 0-17.282-5.47-17.282-16.613z" opacity="1" fill="url(#linearGradient1228)" stroke="#000" stroke-width=".334" stroke-linecap="square" stroke-linejoin="bevel" stroke-miterlimit="4" stroke-dasharray="none" stroke-dashoffset="0" stroke-opacity=".078"/><path id="path1176" d="M23.377 26.434c-2.19-2.746-2.859-5.352-1.992-8.172.242-.78.473-1.699.516-2.043.074-.609.066-.645-.3-1.012a5.786 5.786 0 0 0-.97-.73l-.594-.344-1.113.137c-2.926.352-4.668 1.285-6.352 3.391-.44.551-.57.492-.309-.133 1.52-2.477 4.512-3.598 6.648-3.887 1.285-.25 1.578-.344 1.715-.563.383-.594 1.012-1.16 1.371-1.234.547-.113 1.52.141 1.86.48.468.465.57 1 .495 2.613-.035.79-.137 1.688-.23 1.996-.172.641-.199 1.246-.23 1.906 4.625 1.672 9.137 4.254 12.227 7.453-.672-.402-1.73-.875-2.262-1.03 2.426 1.308 1.934 3.362-.195 1.562.078-.027.316.035.531.145.215.105.441.18.508.156-1.703-2.039-5.359-.805-6.52.215-.813 2.72-.277 6.098-.926 8.367a.481.481 0 0 1-.523.027c.375-2.68.387-5.586.313-7.96l-.746-.056a8.91 8.91 0 0 1-.914-.102c.277 2.492.457 5.328.457 8.04-.133.18-.324.191-.543.008-.176-3.688.34-6.21-1.926-9.215m.004-.012" fill="#001936" fill-rule="nonzero" stroke="none"/></g></svg>