<svg xmlns="http://www.w3.org/2000/svg" xmlns:xlink="http://www.w3.org/1999/xlink" width="48" height="48" version="1.1" id="svg38"><defs id="defs22"><linearGradient id="linearGradient4488"><stop id="stop4490" offset="0" stop-color="#000" stop-opacity=".047"/><stop id="stop4492" offset="1" stop-color="#000" stop-opacity="0"/></linearGradient><style id="style4511"/><style id="style4511-26"/><style id="style4511-9"/><style id="style4552"/><style id="style4511-2"/><linearGradient gradientTransform="translate(-63.205 2.216) scale(.3038)" xlink:href="#linearGradient4488" id="linearGradient4160" x1="288.112" y1="141.785" x2="287.575" y2="79.008" gradientUnits="userSpaceOnUse"/></defs><style id="style4485" type="text/css"/><path d="M2.433 26.443v1.668c0 9.575 5.583 17.282 17.146 17.282h6.93c15.133 0 17.837-11.322 17.837-17.282v-1.668c0 5.96-2.704 17.282-17.837 17.282h-6.93c-11.563 0-17.146-7.708-17.146-17.282z" id="path4147" opacity="1" fill="url(#linearGradient4160)" fill-opacity="1" stroke="none" stroke-width="1.1" stroke-linecap="square" stroke-linejoin="bevel" stroke-miterlimit="4" stroke-dasharray="none" stroke-dashoffset="0" stroke-opacity=".078"/><path d="M19.046 2.965h8.495c13.908 0 16.805 11.246 16.805 17.282v7.123c0 5.96-2.704 17.282-17.837 17.282h-6.93c-11.562 0-17.146-7.708-17.146-17.282v-7.123c0-9.575 5.47-17.282 16.613-17.282z" id="rect4144" opacity="1" fill="#ce3a7d" fill-opacity="1" stroke="#000" stroke-width=".334" stroke-linecap="square" stroke-linejoin="bevel" stroke-miterlimit="4" stroke-dasharray="none" stroke-dashoffset="0" stroke-opacity=".078"/><path d="M17.227 38.327c-.425-.123-.406-.385.097-1.36.201-.392.366-.725.366-.742 0-.016-.103.047-.23.14-1.298.952-3.472 1.13-4.636.377-.322-.209-.526-.444-.62-.716-.113-.33.042-.537.78-1.034.504-.339.893-.734 1.07-1.087.175-.346.313-.936.292-1.246l-.015-.227-.265.348c-.424.557-1.049 1.159-1.39 1.337a2.91 2.91 0 0 1-1.162.298c-.569.002-1.323-.259-1.866-.646-.575-.41-.861-.83-.858-1.257.002-.292.124-.43.455-.513.83-.209 1.43-.561 2.088-1.226.47-.474.657-.767.774-1.216.09-.35.1-1.18.013-1.286-.033-.04-.223-.168-.423-.284-.708-.412-1.106-.931-1.048-1.366.023-.17.008-.205-.143-.338-.901-.791-1.475-2.784-1.342-4.66.023-.314.049-.497.058-.407l.017.163.28-.025c.485-.044 1.212-.455 1.212-.685 0-.127.138-.27.263-.27.047 0 .233-.15.412-.333.458-.469.643-.556 1.18-.559.474-.002.554-.048.495-.282-.049-.195-.476-.59-.827-.762-.273-.134-.35-.151-.569-.127a2.49 2.49 0 0 0-.568.16c-.259.11-.405.137-.833.154-.448.018-.523.01-.55-.059-.04-.104.461-1.115.87-1.757.95-1.492 2.155-2.67 3.206-3.135.25-.11.308-.119.559-.079.275.045.279.044.306-.08.08-.367.223-.85.286-.973.04-.077.203-.249.364-.382.273-.228 1.155-.826 1.553-1.053l.178-.102.15.266c.522.924 1.707 1.53 2.998 1.534.252 0 .578-.027.725-.063.903-.216 1.513-.836 1.692-1.72.068-.332.073-1.198.008-1.53-.04-.207-.035-.228.059-.253.149-.04.512-.035.512.007 0 .02-.032.189-.072.375-.246 1.163.104 2.697.746 3.275.306.275.556.347 1.08.313 1.411-.092 2.996-1.418 3.23-2.702l.058-.323.246.096c.852.33 2.19 1.072 2.91 1.612.387.291.384.285.526 1.185.044.279.087.532.096.561.012.04.09.035.275-.015.739-.2 1.648.202 2.563 1.13.726.735 1.271 1.517 1.818 2.607.266.532.54 1.152.54 1.224 0 .016-.226.035-.502.043-.47.014-.533.004-.999-.158-.274-.095-.575-.172-.67-.172-.328 0-.97.382-1.203.714-.268.38-.168.496.416.481.334-.008.456.009.59.081.093.05.484.398.87.773.81.787 1.07.947 1.607.985l.326.023v.76c0 .86-.055 1.369-.22 2.03-.21.845-.588 1.581-1.046 2.04-.194.194-.208.225-.21.476-.004.495-.372.93-1.162 1.373l-.407.229v.546c0 .618.094 1.011.33 1.378.516.803 1.586 1.568 2.535 1.812.392.1.519.23.518.526-.001.576-.93 1.413-1.875 1.691-.662.195-1.383.131-1.955-.172-.342-.181-.863-.684-1.341-1.292l-.314-.4-.015.3c-.018.37.129.975.313 1.292.188.323.54.661 1.11 1.064.269.19.546.414.616.497.376.448-.154 1.159-1.096 1.471-1.225.406-2.883.166-3.962-.573-.179-.122-.325-.211-.325-.198 0 .014.16.345.356.737.502 1.004.52 1.155.159 1.32-.259.117-1.18.126-1.801.018-1.195-.208-2.426-.854-3.179-1.667-.759-.82-1.149-1.715-1.251-2.874-.007-.08-.04.055-.073.3-.146 1.074-.584 1.942-1.374 2.724-.763.756-1.893 1.323-3.029 1.521-.44.077-1.486.088-1.726.019zm5.638-16.339c.364-.11.73-.367.924-.646a3.41 3.41 0 0 0 .277-.558c.48-1.227.212-2.357-.662-2.786-.24-.118-.33-.135-.687-.132-1.116.01-2.123.813-2.648 2.113-.132.329-.15.754-.043 1.012.223.534.998 1.013 1.773 1.095.415.044.682.02 1.066-.098zm3.356-.301c.468-.221.845-.742.844-1.167-.001-.433-.364-.895-.901-1.146-.388-.182-.673-.22-.87-.118-.43.222-.837 1.048-.847 1.717-.008.596.294.813 1.145.823.312.003.434-.018.629-.11zm-6.359-2.153c.288-.202.379-.473.319-.95-.04-.321-.185-.504-.398-.504-.412 0-.847.307-.91.64-.048.259.01.571.137.73.177.222.596.264.852.084zm7.277-.83c.816-.305 1.18-1.015 1.123-2.19-.075-1.53-.884-2.808-1.918-3.03-.535-.114-1.306.181-1.738.666-.443.497-.676 1.124-.715 1.924-.043.862.165 1.458.692 1.988.34.342.943.667 1.372.74.367.063.864.022 1.184-.098zm2.42-.232c.323-.147.595-.555.789-1.183.13-.425.127-.712-.013-1.054-.255-.62-.701-1.025-1.121-1.019-.532.008-.791.563-.728 1.562.056.87.302 1.547.62 1.704.2.099.214.098.453-.01zm-7.948-.555c.781-.276 1.507-1.012 2.026-2.054.281-.566.405-1.024.407-1.508.002-.367-.015-.446-.143-.696-.381-.743-1.397-.912-2.738-.456-1.295.44-1.878 1.188-1.878 2.412 0 .511.089.874.34 1.385.218.448.532.8.833.936.29.132.747.124 1.153-.02zm-3.282-2.191c.465-.315.99-1.39 1.041-2.128.04-.577-.12-.787-.602-.786-.475 0-1.247.543-1.497 1.05-.122.25-.136.33-.136.766 0 .445.012.51.145.773.117.23.187.308.362.396.254.129.417.112.687-.071zm10.269-1.476c.067-.127.09-.348.117-1.148.018-.545.06-1.095.09-1.223.072-.287.018-.372-.237-.372-.456 0-1.598.984-1.598 1.376 0 .197.262.626.599.981.531.56.869.686 1.029.386z" id="path11910" opacity="1" fill="#fff" fill-opacity="1" stroke="none" stroke-width=".407" stroke-linecap="round" stroke-linejoin="miter" stroke-miterlimit="4" stroke-dasharray="none" stroke-opacity="1"/></svg>