<svg xmlns="http://www.w3.org/2000/svg" xmlns:xlink="http://www.w3.org/1999/xlink" width="48" height="48" version="1.1" id="svg38"><defs id="defs22"><style id="style4511"/><style id="style4511-26"/><style id="style4511-9"/><style id="style4552"/><style id="style4511-2"/><linearGradient gradientTransform="rotate(-90 24 24)" gradientUnits="userSpaceOnUse" x2="47" x1="1" id="linearGradient3764-3675"><stop id="stop1208" stop-opacity="1" stop-color="#708290"/><stop id="stop1210" stop-opacity="1" stop-color="#7b8c99" offset="1"/></linearGradient><clipPath id="clipPath-729351590"/><radialGradient xlink:href="#linearGradient3764-3675" id="radialGradient1344" cx="24.083" cy="24.405" fx="24.083" fy="24.405" r="21.428" gradientTransform="matrix(1 0 0 .99497 0 .123)" gradientUnits="userSpaceOnUse"/></defs><style id="style4485" type="text/css"/><path d="M19.677 3.253h8.618c14.108 0 17.047 11.413 17.047 17.537v7.229c0 6.047-2.744 17.537-18.094 17.537h-7.03c-11.73 0-17.394-7.822-17.394-17.537V20.79c0-9.715 5.549-17.537 16.853-17.537z" id="rect4144" opacity="1" fill="url(#radialGradient1344)" fill-opacity="1" stroke="#000" stroke-width=".339" stroke-linecap="square" stroke-linejoin="bevel" stroke-miterlimit="4" stroke-dasharray="none" stroke-dashoffset="0" stroke-opacity=".078"/><path id="path1257" d="M13.151 29.98s-2.565-6.59-.465-11.522c2.097-4.928 5.41-5.356 7.772-4.237 2.351 1.119 2.52 6.013 1.18 10.64-1.343 4.632-1.896 6.25-1.896 6.25m-6.59-1.13" fill="#f9f9f9" fill-opacity=".941" fill-rule="nonzero" stroke="none" stroke-width="1.078"/><path id="path1259" d="M13.092 31.183l6.311 1.085s.54 3.526-.916 4.632c-1.455 1.106-5.013.424-5.703-1.767-.694-2.191.305-3.95.305-3.95m.004 0" fill="#f9f9f9" fill-opacity=".941" fill-rule="nonzero" stroke="none" stroke-width="1.078"/><path id="path1261" d="M32.083 28.734s4.575-5.364 4.202-10.716c-.373-5.357-3.365-6.869-5.951-6.602-2.59.271-4.344 4.83-4.586 9.649-.244 4.822-.251 6.53-.251 6.53m6.586 1.14" fill="#f9f9f9" fill-opacity="1" fill-rule="nonzero" stroke="none" stroke-width="1.078"/><path id="path1263" d="M31.754 29.893l-6.318-1.085s-1.657 3.148-.645 4.678c1.008 1.534 4.595 2.08 5.96.25 1.368-1.839 1.004-3.83 1.004-3.83m0-.005" fill="#f9f9f9" fill-opacity="1" fill-rule="nonzero" stroke="none" stroke-width="1.078"/></svg>