<svg xmlns:osb="http://www.openswatchbook.org/uri/2009/osb" xmlns="http://www.w3.org/2000/svg" xmlns:xlink="http://www.w3.org/1999/xlink" width="48" height="48" version="1.1" id="svg38"><defs id="defs22"><linearGradient id="linearGradient4488"><stop id="stop4490" offset="0" stop-color="#000" stop-opacity=".047"/><stop id="stop4492" offset="1" stop-color="#000" stop-opacity="0"/></linearGradient><style id="style4511"/><style id="style4511-26"/><style id="style4511-9"/><style id="style4552"/><linearGradient id="e-1" y1="41.22" x1="24.392" y2="25.343" x2="20.643" gradientUnits="userSpaceOnUse"><stop stop-color="#334545" id="stop22-8"/><stop offset="1" stop-color="#536161" id="stop24-7"/></linearGradient><style id="style4511-2"/><linearGradient xlink:href="#linearGradient4488" id="linearGradient4540" gradientUnits="userSpaceOnUse" gradientTransform="matrix(.30673 0 0 .3038 -63.522 1.994)" x1="288.112" y1="141.785" x2="287.575" y2="79.008"/><linearGradient osb:paint="solid" id="linearGradient5293"><stop id="stop5295" offset="0" stop-color="#9a89c0" stop-opacity="1"/></linearGradient><linearGradient osb:paint="solid" id="linearGradient5251"><stop id="stop5253" offset="0" stop-color="#2f343f" stop-opacity="1"/></linearGradient><linearGradient xlink:href="#e-1" id="linearGradient2002" x1="2.746" y1="23.739" x2="45.073" y2="23.739" gradientUnits="userSpaceOnUse"/></defs><style id="style4485" type="text/css"/><path id="path4516" d="M2.75 26.22v1.669c0 9.574 5.638 17.282 17.312 17.282h6.998c15.278 0 18.008-11.323 18.008-17.282V26.22c0 5.96-2.73 17.282-18.008 17.282h-6.998c-11.674 0-17.311-7.708-17.311-17.282z" opacity="1" fill="url(#linearGradient4540)" fill-opacity="1" stroke="none" stroke-width="1.105" stroke-linecap="square" stroke-linejoin="bevel" stroke-miterlimit="4" stroke-dasharray="none" stroke-dashoffset="0" stroke-opacity=".078"/><path id="path4518" d="M44.905 19.354v8.576c0 14.042-11.329 16.967-17.408 16.967h-7.175c-6.003 0-17.407-2.73-17.407-18.009v-6.996c0-11.674 7.763-17.311 17.407-17.311h7.175c9.644 0 17.408 5.522 17.408 16.773z" opacity="1" fill="url(#linearGradient2002)" fill-opacity="1" stroke="#000" stroke-width=".337" stroke-linecap="square" stroke-linejoin="bevel" stroke-miterlimit="4" stroke-dasharray="none" stroke-dashoffset="0" stroke-opacity=".078"/><path id="rect16" d="M7.644 38.145c.09.11.17.233.268.335.15.155.324.287.495.421h29.778c.171-.134.345-.266.496-.421.098-.102.177-.224.267-.335z" fill="#99a1a7" stroke-width=".779"/><path d="M7.669 10.19c-.064.235-.113.5-.165.757h32.123c-.052-.257-.101-.522-.165-.756z" id="rect24" fill="#3daee9" stroke-width=".799"/><rect width="1.463" x="35.003" y="6.991" rx=".732" height="1.512" id="rect26" fill="#eff0f1" stroke-width=".744"/><g id="g38" transform="matrix(.73159 0 0 .75618 -275.688 -372.31)" color="#000" stroke-width="3" stroke-linecap="round" stroke-linejoin="round"><circle id="circle30" r="3.5" cy="533.3" cx="395.07" fill="#eff0f1"/><circle id="circle32" r="2.5" cy="533.3" cx="395.07" fill="#3daefd"/><circle id="circle34" r="3.5" cy="524.3" cx="395.07" fill="#eff0f1"/><circle id="circle36" r="2.5" cy="524.3" cx="395.07" fill="#3daefd"/></g><g id="g44" transform="matrix(.73159 0 0 .75618 -275.688 -372.31)" fill="#da4453"><path id="rect40" d="M399.57 513.8h2v1h-2z"/><path id="rect42" d="M402.57 513.8h3v1h-3z"/></g><g id="g52" transform="matrix(.73159 0 0 .75618 -275.688 -372.31)" fill="#95a5a6"><path id="rect46" d="M408.57 513.8h3v1h-3z"/><path id="rect48" d="M413.57 513.8h6v1h-6z"/><path id="rect50" d="M420.57 513.8h4v1h-4z"/></g><g id="g58" transform="matrix(.73159 0 0 .75618 -275.688 -372.31)" fill="#bdc3c7"><path id="rect54" d="M399.57 515.8h4v1h-4z"/><path id="rect56" d="M404.57 515.8h2v1h-2z"/></g><path id="rect60" fill="#95a5a6" stroke-width=".744" d="M23.216 17.728h5.853v.756h-5.853z"/><g id="g66" transform="matrix(.73159 0 0 .75618 -275.688 -372.31)" fill="#3daefd"><path id="rect62" d="M399.57 522.8h2v1h-2z"/><path id="rect64" d="M402.57 522.8h3v1h-3z"/></g><g id="g74" transform="matrix(.73159 0 0 .75618 -275.688 -372.31)" fill="#95a5a6"><path id="rect68" d="M408.57 522.8h4v1h-4z"/><path id="rect70" d="M414.57 522.8h4v1h-4z"/><path id="rect72" d="M419.57 522.8h5v1h-5z"/></g><path id="rect76" fill="#bdc3c7" stroke-width=".744" d="M16.632 24.534h2.195v.756h-2.195z"/><g id="g90" transform="matrix(.73159 0 0 .75618 -275.688 -372.31)" fill="#95a5a6"><path id="rect78" d="M408.57 524.8h3v1h-3z"/><path id="rect80" d="M412.57 524.8h1v1h-1z"/><path id="rect82" d="M414.57 524.8h5v1h-5z"/><g id="g88" transform="scale(-1 1)"><path id="rect84" d="M-419.57 533.8h2v1h-2z"/><path id="rect86" d="M-416.57 533.8h8v1h-8z"/></g></g><g id="g104" transform="matrix(-.73159 0 0 .75618 -275.688 -372.31)"><path id="rect92" fill="#bdc3c7" d="M-406.57 533.8h7v1h-7z"/><g id="g100" fill="#95a5a6"><path id="rect94" d="M-424.57 531.8h2v1h-2z"/><path id="rect96" d="M-421.57 531.8h3v1h-3z"/><path id="rect98" d="M-417.57 531.8h9v1h-9z"/></g><path id="rect102" fill="#3daefd" d="M-404.57 531.8h5v1h-5z"/></g><g id="g110" transform="matrix(.73159 0 0 .75618 -275.688 -372.31)" fill-rule="evenodd"><path id="path106" d="M395.07 511.72l-3.501 1.467s.416 1.902.867 3c.225.551.5 1.121.889 1.617s.965.99 1.745.99c.78 0 1.354-.494 1.743-.99s.664-1.066.889-1.617c.451-1.102.869-3 .869-3z" color="#000" color-interpolation="sRGB" color-interpolation-filters="linearRGB" fill="#eff0f1" stroke-width="2" color-rendering="auto" image-rendering="auto" shape-rendering="auto" text-rendering="auto"/><path id="path108" d="M392.57 513.8l2.5-1 2.5 1s-.928 4-2.5 4-2.5-4-2.5-4" fill="#da4453"/></g></svg>