<svg xmlns:osb="http://www.openswatchbook.org/uri/2009/osb" xmlns="http://www.w3.org/2000/svg" xmlns:xlink="http://www.w3.org/1999/xlink" width="48" height="48" version="1.1" id="svg38"><defs id="defs22"><linearGradient id="linearGradient218-3-5" spreadMethod="pad" gradientTransform="scale(45.45702 43.22697) rotate(-90 .104 .94)" gradientUnits="userSpaceOnUse" y2="0" x2="1" y1="0" x1="0"><stop id="stop2094" offset="0" stop-opacity="1" stop-color="#3d3d3d"/><stop id="stop2096" offset=".328" stop-opacity="1" stop-color="#3d3d3d"/><stop id="stop2098" offset="1" stop-opacity="1" stop-color="#919396"/></linearGradient><linearGradient id="linearGradient4488"><stop id="stop4490" offset="0" stop-color="#000" stop-opacity=".047"/><stop id="stop4492" offset="1" stop-color="#000" stop-opacity="0"/></linearGradient><style id="style4511"/><style id="style4511-26"/><style id="style4511-9"/><style id="style4552"/><style id="style4511-2"/><linearGradient xlink:href="#linearGradient4488" id="linearGradient4540" gradientUnits="userSpaceOnUse" gradientTransform="matrix(.3038 0 0 .31387 -62.745 1.375)" x1="288.112" y1="141.785" x2="287.575" y2="79.008"/><linearGradient osb:paint="solid" id="linearGradient5293"><stop id="stop5295" offset="0" stop-color="#9a89c0" stop-opacity="1"/></linearGradient><linearGradient x1="0" y1="0" x2="1" y2="0" gradientUnits="userSpaceOnUse" gradientTransform="scale(33.2833 33.55934) rotate(-45 1.48 .084)" spreadMethod="pad" id="linearGradient356"><stop offset="0" id="stop358" stop-opacity="1" stop-color="#000"/><stop offset=".5" id="stop360" stop-opacity="1" stop-color="#4d4d4d"/><stop offset="1" id="stop362" stop-opacity="1" stop-color="#000"/></linearGradient><linearGradient x1="0" y1="0" x2="1" y2="0" gradientUnits="userSpaceOnUse" gradientTransform="scale(27.42706 27.65453) rotate(-45 1.744 -.027)" spreadMethod="pad" id="linearGradient378" xlink:href="#linearGradient356"><stop offset="0" id="stop380" stop-opacity="1" stop-color="#000"/><stop offset=".5" id="stop382" stop-opacity="1" stop-color="#4d4d4d"/><stop offset="1" id="stop384" stop-opacity="1" stop-color="#000"/></linearGradient><clipPath clipPathUnits="userSpaceOnUse" id="clipPath392"><path d="M0 512h512V0H0v512z" id="path394"/></clipPath><clipPath clipPathUnits="userSpaceOnUse" id="clipPath424"><path d="M194.479 317.521h123.042V194.479H194.479v123.042z" id="path426"/></clipPath><clipPath clipPathUnits="userSpaceOnUse" id="clipPath440"><path d="M212.666 299.334h86.668v-86.668h-86.668v86.668z" id="path442"/></clipPath><clipPath clipPathUnits="userSpaceOnUse" id="clipPath456"><path d="M234.037 277.963h43.926v-43.926h-43.926v43.926z" id="path458"/></clipPath><clipPath clipPathUnits="userSpaceOnUse" id="clipPath472"><path d="M157.366 256c0-54.387 44.247-98.634 98.634-98.634s98.634 44.247 98.634 98.634-44.247 98.634-98.634 98.634-98.634-44.247-98.634-98.634" id="path474"/></clipPath><radialGradient fx="0" fy="0" cx="0" cy="0" r="1" gradientUnits="userSpaceOnUse" gradientTransform="matrix(110.66867 0 0 -110.66867 256 256)" spreadMethod="pad" id="radialGradient484"><stop offset="0" id="stop486" stop-opacity="0" stop-color="#fff"/><stop offset=".728" id="stop488" stop-opacity="0" stop-color="#fff"/><stop offset="1" id="stop490" stop-opacity="1" stop-color="#fff"/></radialGradient><mask maskUnits="userSpaceOnUse" x="0" y="0" width="1" height="1" id="mask492"><g id="g494"><g id="g496"><g id="g498"><g id="g500"><path d="M-32768 32767h65535v-65535h-65535v65535z" id="path502" fill="url(#radialGradient484)" stroke="none"/></g></g></g></g></mask><radialGradient fx="0" fy="0" cx="0" cy="0" r="1" gradientUnits="userSpaceOnUse" gradientTransform="matrix(18.68087 0 0 18.8358 51.484 35.689)" spreadMethod="pad" id="radialGradient508"><stop offset="0" id="stop510" stop-opacity="1" stop-color="#000"/><stop offset=".728" id="stop512" stop-opacity="1" stop-color="#000"/><stop offset="1" id="stop514" stop-opacity="1" stop-color="#000"/></radialGradient><linearGradient xlink:href="#linearGradient218-3-5" id="linearGradient2107" x1="2.58" y1="24.322" x2="45.596" y2="24.322" gradientUnits="userSpaceOnUse" gradientTransform="matrix(0 -1.01711 1 0 -.09 48.597)"/><linearGradient xlink:href="#linearGradient356" id="linearGradient1085" gradientUnits="userSpaceOnUse" gradientTransform="scale(31.62683 31.88914) rotate(-45 1.545 .056)" x1="0" y1="0" x2="1" y2="0" spreadMethod="pad"/></defs><style id="style4485" type="text/css"/><path id="path4518" d="M2.654 28.595v-8.797c0-14.403 11.643-17.402 17.89-17.402h7.375c6.17 0 17.89 2.8 17.89 18.47v7.177c0 11.974-7.979 17.756-17.89 17.756h-7.374c-9.912 0-17.89-5.665-17.89-17.204z" stroke-miterlimit="4" stroke-dashoffset="0" stroke-dasharray="none" stroke-opacity=".078" stroke-linejoin="bevel" stroke-linecap="square" stroke-width=".346" stroke="#c3c3c3" fill-opacity="1" fill="url(#linearGradient2107)" opacity="1"/><path id="path4516" d="M2.894 26.405v1.724c0 9.892 5.583 17.855 17.145 17.855h6.93c15.133 0 17.837-11.698 17.837-17.855v-1.724c0 6.157-2.704 17.856-17.836 17.856h-6.93c-11.563 0-17.146-7.964-17.146-17.856z" opacity="1" fill="url(#linearGradient4540)" fill-opacity="1" stroke="none" stroke-width="1.118" stroke-linecap="square" stroke-linejoin="bevel" stroke-miterlimit="4" stroke-dasharray="none" stroke-dashoffset="0" stroke-opacity=".078"/><path id="path364" d="M8.409 24.096c0 8.796 7.097 15.952 15.82 15.952 8.724 0 15.822-7.156 15.822-15.952S32.953 8.144 24.23 8.144c-8.724 0-15.821 7.156-15.821 15.952" fill="url(#linearGradient1085)" stroke="none" stroke-width=".161"/><path d="M26.75 19.873l-9.818-10.87a16.355 16.355 0 0 1 7.298-1.695c3.18 0 6.267.906 8.936 2.62l-4.307 13.628z" id="path398" fill="#e84c3d" fill-opacity="1" fill-rule="nonzero" stroke="none" stroke-width=".169"/><path d="M29.117 24.185l4.427-14.006c4.598 3.133 7.335 8.314 7.335 13.917 0 .238-.005.48-.015.72l-13.856 3.052z" id="path402" fill="#9c56b8" fill-opacity="1" fill-rule="nonzero" stroke="none" stroke-width=".169"/><path d="M7.62 22.921c.4-5.793 3.788-11.014 8.909-13.713l9.552 10.576h-4.218z" id="path406" fill="#f1c50e" fill-opacity="1" fill-rule="nonzero" stroke="none" stroke-width=".169"/><path d="M24.23 40.883c-3.181 0-6.268-.905-8.936-2.62L19.6 24.636l2.11 3.683 9.818 10.87a16.356 16.356 0 0 1-7.298 1.694" id="path410" fill="#00bd9b" fill-opacity="1" fill-rule="nonzero" stroke="none" stroke-width=".169"/><path d="M14.916 38.013C10.317 34.88 7.58 29.699 7.58 24.096c0-.238.005-.48.015-.72l13.857-3.053-2.11 3.684z" id="path414" fill="#51d88b" fill-opacity="1" fill-rule="nonzero" stroke="none" stroke-width=".169"/><path d="M22.379 28.408h4.218l14.242-3.138c-.4 5.794-3.787 11.015-8.908 13.713z" id="path418" fill="#2d98e0" fill-opacity="1" fill-rule="nonzero" stroke="none" stroke-width=".169"/></svg>