<svg xmlns:osb="http://www.openswatchbook.org/uri/2009/osb" xmlns="http://www.w3.org/2000/svg" xmlns:xlink="http://www.w3.org/1999/xlink" width="48" height="48" version="1.1" id="svg38"><defs id="defs22"><linearGradient id="linearGradient4488"><stop id="stop4490" offset="0" stop-color="#000" stop-opacity=".047"/><stop id="stop4492" offset="1" stop-color="#000" stop-opacity="0"/></linearGradient><style id="style4511"/><style id="style4511-26"/><style id="style4511-9"/><style id="style4552"/><style id="style4511-2"/><linearGradient xlink:href="#linearGradient4488" id="linearGradient4540" gradientUnits="userSpaceOnUse" gradientTransform="rotate(90.216 54.465 -7.917) scale(.3038)" x1="288.112" y1="141.785" x2="287.575" y2="79.008"/><linearGradient osb:paint="solid" id="linearGradient5293"><stop id="stop5295" offset="0" stop-color="#9a89c0" stop-opacity="1"/></linearGradient><style id="style4511-87"/><style id="style4511-26-7"/><style id="style4511-9-1"/><style id="style4552-53"/><style id="style4511-2-9"/><style id="style4511-8"/><style id="style4511-26-4"/><style id="style4511-9-8"/><style id="style4552-5"/><style id="style4511-2-5"/><style id="style4511-8792"/><style id="style4511-26-3"/><style id="style4511-9-6"/><style id="style4552-4"/><style id="style4511-2-06"/><style id="style4511-87-2"/><style id="style4511-26-7-2"/><style id="style4511-9-1-8"/><style id="style4552-53-6"/><style id="style4511-2-9-9"/><style id="style4511-8-6"/><style id="style4511-26-4-2"/><style id="style4511-9-8-4"/><style id="style4552-5-9"/><style id="style4511-2-5-9"/><style id="style4511-879"/><style id="style4511-26-76"/><style id="style4511-9-2"/><style id="style4552-8"/><style id="style4511-2-0"/></defs><style id="style4485" type="text/css"/><style type="text/css" id="style4485-7"/><style id="style4485-6" type="text/css"/><style type="text/css" id="style4485-8"/><style id="style4485-7-2" type="text/css"/><style type="text/css" id="style4485-6-4"/><style id="style4485-3" type="text/css"/><g id="g6643"><path d="M22.28 3.136l-1.67-.007C11.037 3.093 3.309 8.648 3.265 20.21l-.026 6.93c-.057 15.133 11.255 17.88 17.215 17.902l1.669.006c-5.96-.022-17.272-2.77-17.215-17.901l.026-6.93C4.976 8.653 12.705 3.1 22.279 3.135z" id="path4516" opacity="1" fill="url(#linearGradient4540)" fill-opacity="1" stroke="none" stroke-width="1.1" stroke-linecap="square" stroke-linejoin="bevel" stroke-miterlimit="4" stroke-dasharray="none" stroke-dashoffset="0" stroke-opacity=".078"/><path id="path4518" d="M45.695 19.837C45.737 8.694 38.05 3.195 28.476 3.16l-4.293-.016-.157 41.912 4.293.016c6.035.023 17.292-2.832 17.344-16.74z" opacity="1" fill="#cf4f8c" fill-opacity="1" stroke="#000" stroke-width=".334" stroke-linecap="square" stroke-linejoin="bevel" stroke-miterlimit="4" stroke-dasharray="none" stroke-dashoffset="0" stroke-opacity=".078"/><path id="path4518-7" d="M2.548 28.39c-.027 11.142 7.667 16.631 17.24 16.655l4.294.01.101-41.912-4.293-.01C13.855 3.118 2.602 5.988 2.568 19.895z" opacity="1" fill="#2086e7" fill-opacity="1" stroke="#000" stroke-width=".334" stroke-linecap="square" stroke-linejoin="bevel" stroke-miterlimit="4" stroke-dasharray="none" stroke-dashoffset="0" stroke-opacity=".078"/><g transform="matrix(1.00064 0 0 1 -.015 0)" id="g748" fill="#21d789" fill-opacity="1"><path d="M19.89 3.133C13.855 3.12 2.602 5.987 2.568 19.895l-.012 5.02h21.575l.052-21.772z" id="path4518-7-6" opacity="1" fill="#21d789" fill-opacity="1" stroke="#000" stroke-width=".334" stroke-linecap="square" stroke-linejoin="bevel" stroke-miterlimit="4" stroke-dasharray="none" stroke-dashoffset="0" stroke-opacity=".078"/></g><path id="path4518-7-6-7" d="M28.371 45.056C34.41 45.05 45.66 42.343 45.644 29.4l-.006-4.672-21.587.072.024 20.262z" opacity="1" fill="#6655e4" fill-opacity="1" stroke="#000" stroke-width=".322" stroke-linecap="square" stroke-linejoin="bevel" stroke-miterlimit="4" stroke-dasharray="none" stroke-dashoffset="0" stroke-opacity=".078"/><path d="M7.147 27.469v-6.702c0-10.971 9.208-13.256 14.149-13.256h5.832c4.88 0 14.15 2.133 14.15 14.07v5.468c0 9.12-6.311 13.526-14.15 13.526h-5.832c-7.839 0-14.15-4.316-14.15-13.106z" id="path4518-0" opacity="1" fill="#4d4d4d" fill-opacity="1" stroke="#000" stroke-width=".269" stroke-linecap="square" stroke-linejoin="bevel" stroke-miterlimit="4" stroke-dasharray="none" stroke-dashoffset="0" stroke-opacity=".078"/><path d="M12.862 32.901h12.34" id="path1104" fill="none" stroke="#fff" stroke-width="2.975" stroke-linecap="round"/><g transform="matrix(1.353 0 0 1.28937 6.176 44.27)" id="g5818" fill="none" stroke-width="2" stroke-linecap="round" stroke-linejoin="bevel"><path d="M5.764-13.494s4.044.35 4-4c-.044-4.35-4-4-4-4M5.75-13.5v-8" id="path5759" opacity=".2" stroke="#000"/><path d="M5.764-14.494s4.044.35 4-4c-.044-4.35-4-4-4-4M5.75-14.5v-8" id="path5761" stroke="#fff"/><path d="M16.75-16.5h2m-1 0s.49 3-2 3c-2 0-2-2-2-4s0-4 2-4 1.992 1 1.992 1" id="path5763" opacity=".2" stroke="#000"/><path d="M16.75-17.5h2m-1 0s.49 3-2 3c-2 0-2-2-2-4s0-4 2-4 1.992 1 1.992 1" id="path5765" stroke="#fff"/></g></g></svg>