<svg xmlns:osb="http://www.openswatchbook.org/uri/2009/osb" xmlns="http://www.w3.org/2000/svg" xmlns:xlink="http://www.w3.org/1999/xlink" width="48" height="48" version="1.1" id="svg38"><defs id="defs22"><linearGradient gradientTransform="translate(-48.814 -1)" gradientUnits="userSpaceOnUse" x1="24" y1="2" x2="24" y2="46" id="linearGradient-1-3"><stop stop-color="#D11B58" offset="0%" id="stop1288"/><stop stop-color="#811139" offset="100%" id="stop1290"/></linearGradient><style id="style4511"/><style id="style4511-26"/><style id="style4511-9"/><style id="style4552"/><style id="style4511-2"/><linearGradient osb:paint="solid" id="linearGradient5293"><stop id="stop5295" offset="0" stop-color="#9a89c0" stop-opacity="1"/></linearGradient><linearGradient xlink:href="#linearGradient-1-3" id="linearGradient1305" x1="2.583" y1="23.586" x2="44.83" y2="23.586" gradientUnits="userSpaceOnUse" gradientTransform="matrix(1.00966 0 0 1.00382 -.026 .6)"/></defs><style id="style4485" type="text/css"/><path id="path4518" d="M19.524 3.353h8.578c14.042 0 16.966 11.29 16.966 17.348v7.15c0 5.983-2.73 17.349-18.009 17.349h-6.997c-11.674 0-17.311-7.738-17.311-17.35V20.7c0-9.61 5.523-17.348 16.773-17.348z" opacity="1" fill="url(#linearGradient1305)" fill-opacity="1" stroke="#000" stroke-width=".336" stroke-linecap="square" stroke-linejoin="bevel" stroke-miterlimit="4" stroke-dasharray="none" stroke-dashoffset="0" stroke-opacity=".078"/><path id="Oval-2" d="M24.55 25.016a.924.924 0 0 1-1.28 0c-3.227-3.12-4.84-5.613-4.84-7.478 0-2.977 2.453-5.39 5.48-5.39 3.026 0 5.48 2.413 5.48 5.39 0 1.865-1.614 4.358-4.84 7.478zm.365 2.804a.897.897 0 0 1 .64-1.09c4.36-1.189 7.362-1.317 9.004-.384 2.62 1.488 3.519 4.785 2.006 7.363-1.514 2.578-4.865 3.461-7.486 1.973-1.642-.933-3.03-3.553-4.164-7.862zm-2.652-1.09c.48.13.766.616.64 1.09-1.133 4.309-2.52 6.93-4.163 7.862-2.62 1.488-5.972.605-7.485-1.973-1.514-2.578-.616-5.875 2.005-7.363 1.642-.933 4.643-.805 9.003.383z" fill="#fff" fill-rule="evenodd" stroke="none" stroke-width=".906"/></svg>