<svg xmlns:osb="http://www.openswatchbook.org/uri/2009/osb" xmlns="http://www.w3.org/2000/svg" xmlns:xlink="http://www.w3.org/1999/xlink" width="48" height="48" version="1.1" id="svg38"><defs id="defs22"><linearGradient id="linearGradient4488"><stop id="stop4490" offset="0" stop-color="#000" stop-opacity=".047"/><stop id="stop4492" offset="1" stop-color="#000" stop-opacity="0"/></linearGradient><style id="style4511"/><style id="style4511-26"/><style id="style4511-9"/><style id="style4552"/><style id="style4511-2"/><linearGradient xlink:href="#linearGradient4488" id="linearGradient4540" gradientUnits="userSpaceOnUse" gradientTransform="matrix(.30691 0 0 .3038 -63.56 2.426)" x1="288.112" y1="141.785" x2="287.575" y2="79.008"/><linearGradient osb:paint="solid" id="linearGradient5293"><stop id="stop5295" offset="0" stop-color="#9a89c0" stop-opacity="1"/></linearGradient><linearGradient xlink:href="#linearGradient-3" id="linearGradient1249" x1="2.583" y1="23.586" x2="44.83" y2="23.586" gradientUnits="userSpaceOnUse" gradientTransform="matrix(1.01024 0 0 .99997 -.027 .432)"/><linearGradient id="linearGradient-3" y2="45" x2="20.704" y1="3" x1="20.704" gradientUnits="userSpaceOnUse" gradientTransform="translate(-55.373 1.728)"><stop id="stop619" offset="0%" stop-color="#30FFAF"/><stop id="stop621" offset="100%" stop-color="#08C5FF"/></linearGradient><path id="path-4" d="M24.616 2.629a9.567 9.567 0 0 1 9.567 9.567v18.142a2 2 0 0 1-2 2H15.05V12.196a9.567 9.567 0 0 1 9.567-9.567z"/><path id="path-5" d="M21.275 19.864h11.477v1.428H21.275z"/><path id="path-6" d="M18.268 22.894h11.477v1.428H18.268z"/><path id="path-7" d="M12.39 17.033a2.976 2.976 0 0 1 2.977 2.976v4.594H9.414v-4.594a2.976 2.976 0 0 1 2.977-2.976z"/><path id="path-8" d="M15.498 20.164a2.835 2.835 0 0 1 2.834 2.834v4.736h-5.67v-4.736a2.835 2.835 0 0 1 2.836-2.834z"/><path id="path-9" d="M18.504 23.194a2.835 2.835 0 0 1 2.835 2.834v4.736h-5.67v-4.736a2.835 2.835 0 0 1 2.835-2.834z"/><path id="path-10" d="M21.611 26.324a2.976 2.976 0 0 1 2.977 2.977v2.594a2 2 0 0 1-2 2h-3.953V29.3a2.976 2.976 0 0 1 2.976-2.977z"/><path id="path-11" d="M21.99 7.098v5.51c0 2.957-2.22 5.356-4.96 5.356V7.098"/></defs><style id="style4485" type="text/css"/><path id="path4516" d="M2.75 26.652v1.668c0 9.574 5.641 17.282 17.322 17.282h7.002c15.287 0 18.019-11.322 18.019-17.282v-1.668c0 5.96-2.732 17.282-18.02 17.282h-7C8.39 43.934 2.75 36.226 2.75 26.652z" opacity="1" fill="url(#linearGradient4540)" fill-opacity="1" stroke="none" stroke-width="1.106" stroke-linecap="square" stroke-linejoin="bevel" stroke-miterlimit="4" stroke-dasharray="none" stroke-dashoffset="0" stroke-opacity=".078"/><path id="path4518" d="M19.534 3.174h8.582c14.05 0 16.977 11.247 16.977 17.282v7.123c0 5.96-2.732 17.282-18.02 17.282h-7C8.392 44.86 2.75 37.153 2.75 27.579v-7.123c0-9.574 5.526-17.282 16.783-17.282z" opacity="1" fill="url(#linearGradient1249)" fill-opacity="1" stroke="#000" stroke-width=".336" stroke-linecap="square" stroke-linejoin="bevel" stroke-miterlimit="4" stroke-dasharray="none" stroke-dashoffset="0" stroke-opacity=".078"/><g id="g1442" transform="matrix(.92261 0 0 .93226 1.913 1.634)" fill-rule="evenodd" stroke="none"><g id="Rectangle" transform="scale(.932 .9038) rotate(45 17.026 27.123)" fill="none" stroke-width="1"><use height="100%" width="100%" y="0" x="0" xlink:href="#path-4" id="use641" fill="#404040" fill-rule="evenodd"/><path d="M15.65 31.738h16.533a1.4 1.4 0 0 0 1.4-1.4V12.196a8.967 8.967 0 1 0-17.934 0z" id="path643" stroke="#373737" stroke-width="1.2"/></g><path d="M23.539 13.738l11.71 11.355a1.77 1.77 0 0 1 0 2.557l-10.166 9.858a1.905 1.905 0 0 1-2.636 0l-11.71-11.356a8.592 8.592 0 0 1 0-12.414c3.535-3.428 9.267-3.428 12.802 0z" id="Rectangle-13" fill="#fff" stroke-width=".918"/><g id="Rectangle-2" transform="scale(.932 .9038) rotate(45 19.423 30.218)" fill="none" stroke-width="1"><use height="100%" width="100%" y="0" x="0" xlink:href="#path-5" id="use647" fill="#606060" fill-rule="evenodd"/><path id="rect649" stroke="#373737" stroke-width="1.4" d="M21.975 20.564h10.077v1H21.975z"/></g><g id="g656" transform="scale(.932 .9038) rotate(45 16.416 33.248)" fill="none" stroke-width="1"><use height="100%" width="100%" y="0" x="0" xlink:href="#path-6" id="use652" fill="#606060" fill-rule="evenodd"/><path id="rect654" stroke="#373737" stroke-width="1.4" d="M18.968 23.594h10.077v1H18.968z"/></g><g id="Rectangle-14" transform="scale(.932 .9038) rotate(45 4.8 30.458)" fill="none" stroke-width="1"><use height="100%" width="100%" y="0" x="0" xlink:href="#path-7" id="use658" fill="#404040" fill-rule="evenodd"/><path d="M10.114 23.903h4.553v-3.894a2.276 2.276 0 0 0-4.553 0z" id="path660" stroke="#373737" stroke-width="1.4"/></g><g id="g667" transform="scale(.932 .9038) rotate(45 7.907 33.589)" fill="none" stroke-width="1"><use height="100%" width="100%" y="0" x="0" xlink:href="#path-8" id="use663" fill="#404040" fill-rule="evenodd"/><path d="M13.363 27.034h4.27v-4.036a2.135 2.135 0 0 0-4.27 0z" id="path665" stroke="#373737" stroke-width="1.4"/></g><g id="g673" transform="scale(.932 .9038) rotate(45 10.914 36.619)" fill="none" stroke-width="1"><use height="100%" width="100%" y="0" x="0" xlink:href="#path-9" id="use669" fill="#404040" fill-rule="evenodd"/><path d="M16.37 30.064h4.269v-4.036a2.135 2.135 0 1 0-4.27 0z" id="path671" stroke="#373737" stroke-width="1.4"/></g><g id="g679" transform="scale(.932 .9038) rotate(45 14.02 39.75)" fill="none" stroke-width="1"><use height="100%" width="100%" y="0" x="0" xlink:href="#path-10" id="use675" fill="#404040" fill-rule="evenodd"/><path d="M19.335 33.195h3.253a1.3 1.3 0 0 0 1.3-1.3V29.3a2.276 2.276 0 1 0-4.553 0z" id="path677" stroke="#373737" stroke-width="1.4"/></g><g id="Rectangle-15" transform="scale(.932 .9038) rotate(45 11.92 22.17)" fill="none" stroke-width="1"><use height="100%" width="100%" y="0" x="0" xlink:href="#path-11" id="use681" fill="#404040" fill-rule="evenodd"/><path d="M21.29 7.798h-3.56V17.2c2.011-.365 3.56-2.274 3.56-4.594z" id="path683" stroke="#373737" stroke-width="1.4"/></g></g></svg>