<svg xmlns:osb="http://www.openswatchbook.org/uri/2009/osb" xmlns="http://www.w3.org/2000/svg" xmlns:xlink="http://www.w3.org/1999/xlink" width="48" height="48" version="1.1" id="svg38"><defs id="defs22"><linearGradient id="linearGradient4488"><stop id="stop4490" offset="0" stop-color="#000" stop-opacity=".047"/><stop id="stop4492" offset="1" stop-color="#000" stop-opacity="0"/></linearGradient><style id="style4511"/><style id="style4511-26"/><style id="style4511-9"/><style id="style4552"/><style id="style4511-2"/><linearGradient xlink:href="#linearGradient4488" id="linearGradient4540" gradientUnits="userSpaceOnUse" gradientTransform="matrix(.3074 0 0 .30379 -63.667 1.994)" x1="288.112" y1="141.785" x2="287.575" y2="79.008"/><linearGradient osb:paint="solid" id="linearGradient5293"><stop id="stop5295" offset="0" stop-color="#9a89c0" stop-opacity="1"/></linearGradient><style id="style2" type="text/css"><![CDATA[.fil5{fill:none}.fil1{fill:#196FBA}.fil0{fill:#25B2EE}.fil4{fill:#793C7C}.fil3{fill:#8C508C}.fil2{fill:white}]]></style></defs><style id="style4485" type="text/css"/><path id="path4516" d="M2.751 26.22v1.669c0 9.574 5.65 17.282 17.35 17.282h7.012c15.312 0 18.048-11.323 18.048-17.282V26.22c0 5.96-2.736 17.282-18.048 17.282H20.1c-11.7 0-17.349-7.708-17.349-17.282z" opacity="1" fill="url(#linearGradient4540)" fill-opacity="1" stroke="none" stroke-width="1.106" stroke-linecap="square" stroke-linejoin="bevel" stroke-miterlimit="4" stroke-dasharray="none" stroke-dashoffset="0" stroke-opacity=".078"/><path id="path4518" d="M19.561 2.743h8.596c14.073 0 17.004 11.247 17.004 17.282v7.122c0 5.96-2.736 17.282-18.048 17.282H20.1c-11.7 0-17.35-7.708-17.35-17.282v-7.122c0-9.574 5.535-17.282 16.81-17.282z" opacity="1" fill="#e6e6e6" fill-opacity="1" stroke="#000" stroke-width=".336" stroke-linecap="square" stroke-linejoin="bevel" stroke-miterlimit="4" stroke-dasharray="none" stroke-dashoffset="0" stroke-opacity=".078"/><g id="g11733" transform="matrix(1.06068 0 0 1.14663 2.855 9.654)" fill="none" fill-rule="evenodd" stroke="none" stroke-width="1"><g id="g1377" transform="translate(.787 .897)"><path id="path3298-6-5-2-4-0-8-3" d="M26.851 5.609c0 .435-1.438.787-3.212.787-1.775 0-3.213-.352-3.213-.787 0-.435 1.438-.788 3.213-.788 1.774 0 3.212.353 3.212.788z" stroke="#6ac1ff" stroke-width=".5" stroke-linecap="round" stroke-linejoin="round"/><path id="path3300-9-8-3-3-9-8-6" d="M23.644 4.472c-2.333 0-4.225.543-4.225 1.213 0 .669 1.892 1.21 4.225 1.21 2.334 0 4.226-.541 4.226-1.21 0-.67-1.892-1.213-4.226-1.213z" stroke="#4a9ce6" stroke-width=".5" stroke-linecap="round" stroke-linejoin="round"/><g transform="translate(20.813 .235)" id="g8744-1-2-0-2-5-6-9" fill-rule="nonzero"><path id="path468-4-1-4-0-0-2-9" d="M.379 4.889c0-.568.696-.849 1.352-.838.656.01 1.517.38 1.517.897 0 .518-.899.494-1.517.494-.312 0-.878.038-1.121-.097-.24-.134-.241-.456-.231-.456z" fill="#000" stroke="#000" stroke-width=".5" stroke-linejoin="round"/><path id="path472-7-0-6-5-5-0-6" d="M.379 4.889c0-.568.696-.849 1.352-.838.656.01 1.517.38 1.517.897 0 .518-.899.494-1.517.494-.312 0-.878.038-1.121-.097-.24-.134-.241-.456-.231-.456z" fill="#a67e33" stroke="#000" stroke-width=".5"/><path id="path524-8-2-0-1-2-1-4" d="M5.265 2.607c0 1.407-1.165 2.548-2.601 2.548-1.437 0-2.602-1.14-2.602-2.548C.062 1.199 1.227.058 2.664.058c1.436 0 2.601 1.141 2.601 2.549z" fill="#000" stroke="#000" stroke-width=".5" stroke-linejoin="round"/><path id="path528-4-3-9-8-3-4-1" d="M5.265 2.607c0 1.407-1.165 2.548-2.601 2.548-1.437 0-2.602-1.14-2.602-2.548C.062 1.199 1.227.058 2.664.058c1.436 0 2.601 1.141 2.601 2.549z" fill="orange" stroke="#000" stroke-width=".5"/><path id="path530-6-0-0-5-4-8-9" d="M4.89 1.478c.015.113.03.227.03.344 0 1.453-1.203 2.634-2.687 2.634a2.694 2.694 0 0 1-1.772-.67 2.518 2.518 0 0 0 2.203 1.285c1.39 0 2.513-1.102 2.513-2.464 0-.408-.107-.79-.287-1.129z" opacity=".3" fill="#d40000"/><path id="path538-1-6-1-6-2-6-1" d="M2.546 4.889c0-.568.696-.849 1.352-.838.657.01 1.517.38 1.517.897 0 .518-.898.494-1.517.494-.311 0-.877.038-1.121-.097-.24-.134-.24-.456-.23-.456z" fill="#000" stroke="#000" stroke-width=".5" stroke-linejoin="round"/><path id="path542-8-1-7-3-6-0-5" d="M2.546 4.889c0-.568.696-.849 1.352-.838.657.01 1.517.38 1.517.897 0 .518-.898.494-1.517.494-.311 0-.877.038-1.121-.097-.24-.134-.24-.456-.23-.456z" fill="#a67e33" stroke="#000" stroke-width=".5"/><path id="path3308-6-4-3-3-2-2-4-5" d="M3.226 2.258c0 .442-.187.8-.417.8-.23 0-.417-.358-.417-.8 0-.442.187-.8.417-.8.23 0 .417.358.417.8z" fill="#1a1a1a"/><path id="path3312-6-2-2-6-9-5-9-5" d="M2.81 1.458c-.23 0-.416.357-.416.799 0 .38.14.7.325.782-.094-.147-.153-.37-.153-.621 0-.442.186-.8.416-.8.032 0 .062.008.091.02-.071-.112-.163-.18-.263-.18z" fill="#000"/><path id="path3308-6-8-1-0-0-0-2-1-2" d="M2.132 2.257c0 .442-.187.8-.417.8-.23 0-.416-.358-.416-.8 0-.442.186-.8.416-.8.23 0 .417.358.417.8z" fill="#1a1a1a"/><path id="path3312-6-9-0-8-5-7-4-4-9" d="M1.716 1.457c-.23 0-.416.358-.416.8 0 .38.14.7.325.781-.094-.147-.153-.37-.153-.62 0-.443.186-.8.416-.8.032 0 .062.007.092.02-.072-.112-.164-.18-.264-.18z" fill="#000"/><path id="path8730-0-4-4-0-0-8-9" d="M4.928 4.426c-.023.438-.506.86-1.501.952H4.84l.53-.225-.018-.416z" opacity=".3" fill="#000"/></g><path id="path3298-6-5-2-4-0-8" d="M13.363 11.74c0 .777-2.569 1.407-5.738 1.407-3.17 0-5.738-.63-5.738-1.407s2.569-1.407 5.738-1.407c3.17 0 5.738.63 5.738 1.407z" stroke="#6ac1ff" stroke-width=".649" stroke-linecap="round" stroke-linejoin="round"/><path id="path3300-9-8-3-3-9-8" d="M7.635 9.709c-4.168 0-7.547.971-7.547 2.167 0 1.195 3.38 2.16 7.547 2.16 4.168 0 7.547-.965 7.547-2.16 0-1.196-3.38-2.167-7.547-2.167z" stroke="#4a9ce6" stroke-width=".649" stroke-linecap="round" stroke-linejoin="round"/><g transform="translate(2.577 2.141)" id="g8744-1-2-0-2-5-6" fill-rule="nonzero"><path id="path468-4-1-4-0-0-2" d="M.677 8.732c0-1.015 1.242-1.515 2.415-1.497 1.172.018 2.709.678 2.709 1.603 0 .925-1.605.881-2.71.881-.556 0-1.567.07-2.002-.172-.43-.24-.43-.815-.412-.815z" fill="#000" stroke="#000" stroke-width=".572" stroke-linejoin="round"/><path id="path472-7-0-6-5-5-0" d="M.677 8.732c0-1.015 1.242-1.515 2.415-1.497 1.172.018 2.709.678 2.709 1.603 0 .925-1.605.881-2.71.881-.556 0-1.567.07-2.002-.172-.43-.24-.43-.815-.412-.815z" fill="#a67e33" stroke="#000" stroke-width=".5"/><path id="path524-8-2-0-1-2-1" d="M9.404 4.656c0 2.514-2.08 4.552-4.646 4.552C2.19 9.208.11 7.17.11 4.656S2.19.104 4.758.104c2.566 0 4.646 2.038 4.646 4.552z" fill="#000" stroke="#000" stroke-width=".766" stroke-linejoin="round"/><path id="path528-4-3-9-8-3-4" d="M9.404 4.656c0 2.514-2.08 4.552-4.646 4.552C2.19 9.208.11 7.17.11 4.656S2.19.104 4.758.104c2.566 0 4.646 2.038 4.646 4.552z" fill="orange" stroke="#000" stroke-width=".5"/><path id="path530-6-0-0-5-4-8" d="M8.735 2.64c.027.202.052.405.052.614 0 2.595-2.149 4.705-4.799 4.705A4.811 4.811 0 0 1 .824 6.764a4.497 4.497 0 0 0 3.935 2.294c2.483 0 4.488-1.969 4.488-4.401a4.3 4.3 0 0 0-.512-2.017z" opacity=".3" fill="#d40000"/><path id="path538-1-6-1-6-2-6" d="M4.548 8.732c0-1.015 1.242-1.515 2.415-1.497 1.172.018 2.709.678 2.709 1.603 0 .925-1.605.881-2.709.881-.556 0-1.568.07-2.003-.172-.43-.24-.43-.815-.412-.815z" fill="#000" stroke="#000" stroke-width=".572" stroke-linejoin="round"/><path id="path542-8-1-7-3-6-0" d="M4.548 8.732c0-1.015 1.242-1.515 2.415-1.497 1.172.018 2.709.678 2.709 1.603 0 .925-1.605.881-2.709.881-.556 0-1.568.07-2.003-.172-.43-.24-.43-.815-.412-.815z" fill="#a67e33" stroke="#000" stroke-width=".5"/><path id="path3308-6-4-3-3-2-2-4" d="M7.213 4.61c0 .79-.333 1.429-.744 1.429s-.744-.64-.744-1.429.333-1.429.744-1.429c.41 0 .744.64.744 1.43z" fill="#1a1a1a"/><path id="path3312-6-2-2-6-9-5-9" d="M6.47 3.181c-.41 0-.743.639-.743 1.428 0 .68.25 1.251.58 1.396-.167-.263-.273-.662-.273-1.109 0-.789.333-1.428.744-1.428.057 0 .11.013.163.036-.128-.2-.292-.323-.47-.323z" fill="#000"/><path id="path3308-6-8-1-0-0-0-2-1" d="M5.26 4.609c0 .789-.334 1.429-.745 1.429-.41 0-.744-.64-.744-1.429 0-.79.333-1.429.744-1.429s.745.64.745 1.429z" fill="#1a1a1a"/><path id="path3312-6-9-0-8-5-7-4-4" d="M4.517 3.18c-.41 0-.744.639-.744 1.428 0 .68.25 1.25.581 1.396-.167-.263-.273-.662-.273-1.11 0-.788.332-1.427.744-1.427.056 0 .11.013.163.036-.128-.2-.292-.323-.47-.323z" fill="#000"/><path id="path8730-0-4-4-0-0-8" d="M8.803 7.905c-.042.783-.905 1.535-2.682 1.7h2.524l.946-.402-.031-.741z" opacity=".3" fill="#000"/></g><path id="path3298-6-5-2-4-0" d="M36.65 11.77c0 .713-2.356 1.29-5.263 1.29s-5.264-.577-5.264-1.29c0-.713 2.357-1.29 5.264-1.29s5.263.577 5.263 1.29z" stroke="#6ac1ff" stroke-width=".595" stroke-linecap="round" stroke-linejoin="round"/><path id="path3300-9-8-3-3-9" d="M31.396 9.907c-3.823 0-6.923.89-6.923 1.987 0 1.096 3.1 1.982 6.923 1.982s6.923-.886 6.923-1.982-3.1-1.987-6.923-1.987z" stroke="#4a9ce6" stroke-width=".595" stroke-linecap="round" stroke-linejoin="round"/><g transform="translate(26.756 2.965)" id="g8744-1-2-0-2-5" fill-rule="nonzero"><path id="path468-4-1-4-0-0" d="M.621 8.01c0-.931 1.14-1.39 2.215-1.374 1.075.017 2.485.622 2.485 1.47 0 .849-1.472.81-2.485.81-.51 0-1.438.063-1.837-.16C.605 8.539.604 8.01.62 8.01z" fill="#000" stroke="#000" stroke-width=".525" stroke-linejoin="round"/><path id="path472-7-0-6-5-5" d="M.621 8.01c0-.931 1.14-1.39 2.215-1.374 1.075.017 2.485.622 2.485 1.47 0 .849-1.472.81-2.485.81-.51 0-1.438.063-1.837-.16C.605 8.539.604 8.01.62 8.01z" fill="#a67e33" stroke="#000" stroke-width=".5"/><path id="path524-8-2-0-1-2" d="M8.626 4.27c0 2.307-1.908 4.176-4.262 4.176C2.01 8.446.102 6.577.102 4.271S2.01.095 4.364.095c2.354 0 4.262 1.87 4.262 4.176z" fill="#000" stroke="#000" stroke-width=".702" stroke-linejoin="round"/><path id="path528-4-3-9-8-3" d="M8.626 4.27c0 2.307-1.908 4.176-4.262 4.176C2.01 8.446.102 6.577.102 4.271S2.01.095 4.364.095c2.354 0 4.262 1.87 4.262 4.176z" fill="orange" stroke="#000" stroke-width=".5"/><path id="path530-6-0-0-5-4" d="M8.012 2.422c.025.185.048.37.048.562 0 2.381-1.97 4.317-4.402 4.317A4.413 4.413 0 0 1 .756 6.204 4.125 4.125 0 0 0 4.365 8.31c2.277 0 4.117-1.806 4.117-4.038a3.94 3.94 0 0 0-.47-1.849z" opacity=".3" fill="#d40000"/><path id="path538-1-6-1-6-2" d="M4.172 8.01c0-.931 1.14-1.39 2.215-1.374 1.075.017 2.485.622 2.485 1.47 0 .849-1.472.81-2.485.81-.51 0-1.438.063-1.838-.16-.393-.218-.394-.746-.377-.746z" fill="#000" stroke="#000" stroke-width=".525" stroke-linejoin="round"/><path id="path542-8-1-7-3-6" d="M4.172 8.01c0-.931 1.14-1.39 2.215-1.374 1.075.017 2.485.622 2.485 1.47 0 .849-1.472.81-2.485.81-.51 0-1.438.063-1.838-.16-.393-.218-.394-.746-.377-.746z" fill="#a67e33" stroke="#000" stroke-width=".5"/><path id="path3308-6-4-3-3-2-2" d="M5.581 3.89c0 .724-.306 1.31-.683 1.31-.377 0-.682-.586-.682-1.31 0-.724.305-1.31.682-1.31.377 0 .683.586.683 1.31z" fill="#1a1a1a"/><path id="path3312-6-2-2-6-9-5" d="M4.9 2.58c-.377 0-.682.585-.682 1.309 0 .624.228 1.148.532 1.28-.153-.24-.25-.606-.25-1.016 0-.724.305-1.31.682-1.31.052 0 .1.012.15.033-.118-.184-.268-.297-.432-.297z" fill="#000"/><path id="path3308-6-8-1-0-0-0-2" d="M3.79 3.89c0 .723-.307 1.31-.684 1.31-.377 0-.682-.587-.682-1.31 0-.725.305-1.311.682-1.311.377 0 .683.586.683 1.31z" fill="#1a1a1a"/><path id="path3312-6-9-0-8-5-7-4" d="M3.108 2.578c-.377 0-.682.586-.682 1.31 0 .624.229 1.148.533 1.28-.154-.24-.251-.606-.251-1.016 0-.724.305-1.31.682-1.31.052 0 .101.012.15.033-.118-.184-.268-.297-.432-.297z" fill="#000"/><path id="path8730-0-4-4-0-0" d="M8.074 7.251c-.038.719-.83 1.408-2.46 1.56H7.93l.868-.369-.03-.68z" opacity=".3" fill="#000"/></g><path id="path3298-6-5-2-4" d="M26.683 18.74c0 1.15-3.805 2.083-8.498 2.083-4.694 0-8.498-.933-8.498-2.084 0-1.15 3.804-2.083 8.498-2.083 4.693 0 8.498.932 8.498 2.083z" stroke="#6ac1ff" stroke-width=".961" stroke-linecap="round" stroke-linejoin="round"/><path id="path3300-9-8-3-3" d="M18.2 15.731c-6.173 0-11.177 1.439-11.177 3.209s5.004 3.2 11.177 3.2c6.172 0 11.176-1.43 11.176-3.2 0-1.77-5.004-3.209-11.176-3.209z" stroke="#4a9ce6" stroke-width=".961" stroke-linecap="round" stroke-linejoin="round"/><g transform="translate(10.71 4.525)" id="g8744-1-2-0-2" fill-rule="nonzero"><path id="path468-4-1-4-0" d="M1.003 12.932c0-1.504 1.84-2.245 3.575-2.218 1.737.027 4.012 1.004 4.012 2.374s-2.376 1.305-4.012 1.305c-.823 0-2.32.103-2.965-.255-.636-.354-.638-1.206-.61-1.206z" fill="#000" stroke="#000" stroke-width=".847" stroke-linejoin="round"/><path id="path472-7-0-6-5" d="M1.003 12.932c0-1.504 1.84-2.245 3.575-2.218 1.737.027 4.012 1.004 4.012 2.374s-2.376 1.305-4.012 1.305c-.823 0-2.32.103-2.965-.255-.636-.354-.638-1.206-.61-1.206z" fill="#a67e33" stroke="#000" stroke-width=".678"/><path id="path524-8-2-0-1" d="M13.927 6.895c0 3.723-3.08 6.742-6.881 6.742S.164 10.618.164 6.895 3.244.153 7.046.153c3.8 0 6.881 3.019 6.881 6.742z" fill="#000" stroke="#000" stroke-width="1.134" stroke-linejoin="round"/><path id="path528-4-3-9-8" d="M13.927 6.895c0 3.723-3.08 6.742-6.881 6.742S.164 10.618.164 6.895 3.244.153 7.046.153c3.8 0 6.881 3.019 6.881 6.742z" fill="orange" stroke="#000" stroke-width=".504"/><path id="path530-6-0-0-5" d="M12.935 3.91c.04.298.077.599.077.908 0 3.844-3.181 6.969-7.106 6.969-1.805 0-3.432-.683-4.686-1.77a6.659 6.659 0 0 0 5.827 3.398c3.677 0 6.647-2.917 6.647-6.519a6.35 6.35 0 0 0-.759-2.986z" opacity=".3" fill="#d40000"/><path id="path538-1-6-1-6" d="M6.735 12.932c0-1.504 1.84-2.245 3.576-2.218 1.737.027 4.012 1.004 4.012 2.374s-2.376 1.305-4.012 1.305c-.823 0-2.321.103-2.966-.255-.636-.354-.637-1.206-.61-1.206z" fill="#000" stroke="#000" stroke-width=".847" stroke-linejoin="round"/><path id="path542-8-1-7-3" d="M6.735 12.932c0-1.504 1.84-2.245 3.576-2.218 1.737.027 4.012 1.004 4.012 2.374s-2.376 1.305-4.012 1.305c-.823 0-2.321.103-2.966-.255-.636-.354-.637-1.206-.61-1.206z" fill="#a67e33" stroke="#000" stroke-width=".678"/><path id="path3308-6-4-3-3-2" d="M9.492 6.375c0 1.169-.493 2.116-1.102 2.116-.609 0-1.102-.947-1.102-2.116 0-1.168.493-2.116 1.102-2.116.609 0 1.102.948 1.102 2.116z" fill="#1a1a1a"/><path id="path3312-6-2-2-6-9" d="M8.393 4.259c-.609 0-1.102.946-1.102 2.114 0 1.007.37 1.853.86 2.068-.247-.39-.405-.98-.405-1.642 0-1.169.493-2.115 1.102-2.115.084 0 .163.02.242.054-.19-.297-.433-.48-.697-.48z" fill="#000"/><path id="path3308-6-8-1-0-0-0" d="M6.6 6.373c0 1.169-.494 2.116-1.103 2.116-.608 0-1.102-.947-1.102-2.116 0-1.168.494-2.115 1.102-2.115.61 0 1.103.947 1.103 2.115z" fill="#1a1a1a"/><path id="path3312-6-9-0-8-5-7" d="M5.5 4.257c-.608 0-1.101.946-1.101 2.114 0 1.007.369 1.853.86 2.068-.248-.39-.406-.98-.406-1.642 0-1.169.493-2.114 1.102-2.114.084 0 .163.019.242.053-.19-.297-.433-.479-.697-.479z" fill="#000"/><path id="path8730-0-4-4-0" d="M13.036 11.707c-.062 1.16-1.34 2.273-3.971 2.517h3.737l1.402-.595-.047-1.098z" opacity=".3" fill="#000"/></g></g></g></svg>