<svg xmlns="http://www.w3.org/2000/svg" xmlns:xlink="http://www.w3.org/1999/xlink" width="48" height="48" version="1.1" id="svg38"><defs id="defs22"><linearGradient id="linearGradient4488"><stop id="stop4490" offset="0" stop-color="#000" stop-opacity=".047"/><stop id="stop4492" offset="1" stop-color="#000" stop-opacity="0"/></linearGradient><style id="style4511"/><style id="style4511-26"/><style id="style4511-9"/><style id="style4552"/><linearGradient id="b-56" y1="547.8" y2="536.8" x2="0" gradientUnits="userSpaceOnUse" gradientTransform="matrix(1 0 0 .54545 0 244)"><stop stop-color="#c6cdd1" id="stop7-2"/><stop offset="1" stop-color="#e0e5e7" id="stop9-91"/></linearGradient><style id="style4511-2"/><linearGradient xlink:href="#linearGradient4488" id="linearGradient4546" gradientUnits="userSpaceOnUse" gradientTransform="matrix(.31226 0 0 .30893 -65.042 2.271)" x1="288.112" y1="141.785" x2="287.575" y2="79.008"/><linearGradient xlink:href="#b-56" id="linearGradient1236" x1="2.974" y1="23.586" x2="45.221" y2="23.586" gradientUnits="userSpaceOnUse" gradientTransform="matrix(1.02785 0 0 1.0169 -.804 .244)"/></defs><style id="style4485" type="text/css"/><g id="g1198"><path id="path4528" d="M2.425 26.907v1.697c0 9.736 5.738 17.574 17.623 17.574h7.123c15.554 0 18.333-11.514 18.333-17.574v-1.697c0 6.06-2.779 17.574-18.333 17.574h-7.123c-11.885 0-17.623-7.838-17.623-17.574z" opacity="1" fill="url(#linearGradient4546)" fill-opacity="1" stroke="none" stroke-width="1.125" stroke-linecap="square" stroke-linejoin="bevel" stroke-miterlimit="4" stroke-dasharray="none" stroke-dashoffset="0" stroke-opacity=".078"/><path id="path4530" d="M19.5 3.033h8.732c14.295 0 17.273 11.436 17.273 17.574v7.243c0 6.06-2.78 17.574-18.334 17.574h-7.123c-11.884 0-17.623-7.838-17.623-17.574v-7.243c0-9.736 5.622-17.574 17.075-17.574z" opacity="1" fill="url(#linearGradient1236)" fill-opacity="1" stroke="#000" stroke-width=".342" stroke-linecap="square" stroke-linejoin="bevel" stroke-miterlimit="4" stroke-dasharray="none" stroke-dashoffset="0" stroke-opacity=".078"/><g id="g1191"><path id="path4461" d="M19.966 5.243h7.821c12.804 0 15.471 10.244 15.471 15.741v6.488c0 5.429-2.49 15.741-16.421 15.741h-6.38c-10.645 0-15.786-7.02-15.786-15.74v-6.489c0-8.72 5.036-15.74 15.295-15.74z" opacity="1" fill="#2f4f4f" fill-opacity="1" stroke="none" stroke-width=".316" stroke-linecap="square" stroke-linejoin="bevel" stroke-miterlimit="4" stroke-dasharray="none" stroke-dashoffset="0" stroke-opacity=".078"/><path id="path1140" d="M17.64 12.674V24.18l6.391-4.314 6.392 4.314-12.783 8.628v2.876L34.684 24.18l-8.522-5.752z" fill="#abd582" stroke-width=".071"/></g></g></svg>