<svg xmlns="http://www.w3.org/2000/svg" xmlns:xlink="http://www.w3.org/1999/xlink" width="48" height="48" version="1.1" id="svg38"><defs id="defs22"><linearGradient id="linearGradient4488"><stop id="stop4490" offset="0" stop-color="#000" stop-opacity=".047"/><stop id="stop4492" offset="1" stop-color="#000" stop-opacity="0"/></linearGradient><style id="style4511"/><style id="style4511-26"/><style id="style4511-9"/><style id="style4552"/><style id="style4511-2"/><linearGradient xlink:href="#linearGradient4488" id="linearGradient4536" gradientUnits="userSpaceOnUse" gradientTransform="translate(-63.133 1.994) scale(.3038)" x1="288.112" y1="141.785" x2="287.575" y2="79.008"/><radialGradient xlink:href="#linearGradient3764-3" id="radialGradient1208" cx="23.462" cy="23.586" fx="23.462" fy="23.586" r="21.123" gradientTransform="matrix(1 0 0 .99467 0 .126)" gradientUnits="userSpaceOnUse"/><linearGradient gradientTransform="rotate(-90 -10.081 59.433)" gradientUnits="userSpaceOnUse" x2="47" x1="1" id="linearGradient3764-3"><stop id="stop1154" stop-opacity="1" stop-color="#9f298a"/><stop id="stop1156" stop-opacity="1" stop-color="#af2d97" offset="1"/></linearGradient><clipPath id="clipPath-599146894"/></defs><style id="style4485" type="text/css"/><path id="path4510" d="M19.12 2.742h8.494c13.908 0 16.805 11.247 16.805 17.282v7.124c0 5.96-2.705 17.282-17.837 17.282h-6.93c-11.563 0-17.146-7.708-17.146-17.282v-7.124c0-9.574 5.47-17.282 16.613-17.282z" opacity="1" fill="url(#radialGradient1208)" fill-opacity="1" stroke="#000" stroke-width=".334" stroke-linecap="square" stroke-linejoin="bevel" stroke-miterlimit="4" stroke-dasharray="none" stroke-dashoffset="0" stroke-opacity=".078"/><path id="path4508" d="M2.506 26.22v1.67c0 9.573 5.583 17.281 17.146 17.281h6.93c15.133 0 17.837-11.322 17.837-17.282v-1.668c0 5.96-2.704 17.282-17.837 17.282h-6.93c-11.563 0-17.146-7.708-17.146-17.282z" opacity="1" fill="url(#linearGradient4536)" fill-opacity="1" stroke="none" stroke-width="1.1" stroke-linecap="square" stroke-linejoin="bevel" stroke-miterlimit="4" stroke-dasharray="none" stroke-dashoffset="0" stroke-opacity=".078"/><path id="path1197" d="M35.539 24.852a7.127 6.683 0 0 0-2.157-1.59c.624-2.387.579-5.5-1.233-7.961a1.562 1.465 0 0 0-.383-1.559c-1.94-1.762-4.799-2.656-8.302-2.656-3.503 0-6.365.891-8.306 2.656a1.568 1.47 0 0 0-.382 1.559c-1.808 2.461-1.858 5.574-1.229 7.961a7.268 6.816 0 0 0-2.17 1.59 7.163 6.717 0 0 0-1.762 4.918c.258 3.539 3.425 6.316 7.203 6.316.166 0 .333-.008.5-.02a.93.872 0 0 0 .645-.301.95.89 0 0 0 .23-.637l-.86-11.766a.94.881 0 0 0-1-.82c-.34.023-.67.074-.995.137-.468-1.93-.425-4.488 1.02-6.418.358-.023.704-.152.979-.406 1.337-1.215 3.466-1.828 6.132-1.828 2.657 0 4.79.617 6.127 1.828.275.254.625.383.979.406 1.445 1.934 1.487 4.488 1.025 6.418a7.93 7.436 0 0 0-1-.137.942.883 0 0 0-1 .82l-.868 11.766a.929.871 0 0 0 .23.637c.162.18.395.285.645.301.166.012.333.02.5.02 3.778 0 6.94-2.773 7.202-6.316a7.208 6.759 0 0 0-1.754-4.918m-.017 0" fill="#f9f9f9" fill-opacity="1" fill-rule="nonzero" stroke="none" stroke-width="1.033"/></svg>