<svg xmlns="http://www.w3.org/2000/svg" xmlns:xlink="http://www.w3.org/1999/xlink" width="48" height="48" version="1.1" id="svg38"><defs id="defs22"><style id="style4511"/><style id="style4511-26"/><style id="style4511-9"/><style id="style4552"/><linearGradient id="e-1" y1="41.22" x1="24.392" y2="25.343" x2="20.643" gradientUnits="userSpaceOnUse"><stop stop-color="#334545" id="stop22-8"/><stop offset="1" stop-color="#536161" id="stop24-7"/></linearGradient><style id="style4511-2"/><filter height="1.101" y="-.051" width="1.091" x="-.046" id="filter1051" color-interpolation-filters="sRGB"><feGaussianBlur id="feGaussianBlur1053" stdDeviation=".845"/></filter><clipPath id="SVGID_6_-20" clip-path="url(#SVGID_5_)"><use xlink:href="#SVGID_4_" overflow="visible" id="use26-2" x="0" y="0" width="100%" height="100%"/></clipPath><linearGradient id="SVGID_11_-3" gradientUnits="userSpaceOnUse" x1="67.374" y1="82.338" x2="67.374" y2="49.164"><stop offset="0" id="stop125-6" stop-color="#c8c8c8"/><stop offset=".063" id="stop127-1" stop-color="#bfbfbf"/><stop offset=".316" id="stop129-2" stop-color="#a0a0a0"/><stop offset=".561" id="stop131-9" stop-color="#898989"/><stop offset=".793" id="stop133-3" stop-color="#7c7c7c"/><stop offset="1" id="stop135-19" stop-color="#777"/></linearGradient><linearGradient xlink:href="#e-1" id="linearGradient1593" x1="4.323" y1="262.605" x2="52.827" y2="262.605" gradientUnits="userSpaceOnUse"/></defs><style id="style4485" type="text/css"/><g clip-path="url(#SVGID_6_-20)" id="g98" transform="matrix(.06034 .06406 -.06158 .06277 -25.328 20.285)"><g id="g96" opacity=".1"><path d="M67.375 52.718c7.197 0 13.033 5.835 13.033 13.033 0 7.198-5.835 13.033-13.033 13.033-7.198 0-13.033-5.835-13.033-13.033 0-7.198 5.835-13.033 13.033-13.033m0-10.664c-13.066 0-23.696 10.63-23.696 23.696s10.63 23.696 23.696 23.696 23.696-10.63 23.696-23.696-10.63-23.696-23.696-23.696z" id="path94"/></g></g><g clip-path="url(#SVGID_6_-20)" id="g142" transform="matrix(.06034 .06406 -.06158 .06277 -25.328 20.285)"><path d="M67.375 55.888c5.447 0 9.862 4.416 9.862 9.862s-4.415 9.863-9.862 9.863-9.863-4.417-9.863-9.863 4.415-9.862 9.863-9.862m0-6.724c-9.146 0-16.587 7.441-16.587 16.587 0 9.145 7.441 16.587 16.587 16.587s16.587-7.442 16.587-16.587c-.001-9.146-7.442-16.587-16.587-16.587z" id="path123" fill="#e9e6dd"/><g id="g140"><linearGradient id="linearGradient1618" gradientUnits="userSpaceOnUse" x1="67.374" y1="82.338" x2="67.374" y2="49.164"><stop offset="0" id="stop1606" stop-color="#c8c8c8"/><stop offset=".063" id="stop1608" stop-color="#bfbfbf"/><stop offset=".316" id="stop1610" stop-color="#a0a0a0"/><stop offset=".561" id="stop1612" stop-color="#898989"/><stop offset=".793" id="stop1614" stop-color="#7c7c7c"/><stop offset="1" id="stop1616" stop-color="#777"/></linearGradient><path d="M67.375 55.888c5.447 0 9.862 4.416 9.862 9.862s-4.415 9.863-9.862 9.863-9.863-4.417-9.863-9.863 4.415-9.862 9.863-9.862m0-6.724c-9.146 0-16.587 7.441-16.587 16.587 0 9.145 7.441 16.587 16.587 16.587s16.587-7.442 16.587-16.587c-.001-9.146-7.442-16.587-16.587-16.587z" id="path138" fill="url(#SVGID_11_-3)"/></g></g><flowRoot xml:space="preserve" id="flowRoot55" style="line-height:1.25" transform="translate(-80.67 -1.748)" font-style="normal" font-weight="400" font-size="5.333" font-family="sans-serif" letter-spacing="0" word-spacing="0" fill="#333" fill-opacity="1" stroke="none"><flowRegion id="flowRegion57" fill="#333"><path id="rect59" fill="#333" d="M-28.332 10.176h24.018v19.415h-24.018z"/></flowRegion><flowPara id="flowPara61"/></flowRoot><flowRoot xml:space="preserve" id="flowRoot926" style="line-height:1.25" transform="translate(-80.67 -1.748)" font-style="normal" font-weight="400" font-size="5.333" font-family="sans-serif" letter-spacing="0" word-spacing="0" fill="#000" fill-opacity="1" stroke="none"><flowRegion id="flowRegion928"><path id="rect930" d="M-52.373 9.458h31.22v24.407h-31.22z"/></flowRegion><flowPara id="flowPara932"/></flowRoot><path d="M19.488 3.108h8.72c14.278 0 17.252 11.247 17.252 17.282v7.124c0 5.96-2.776 17.282-18.31 17.282h-7.115c-11.87 0-17.602-7.708-17.602-17.282V20.39c0-9.574 5.616-17.282 17.055-17.282z" id="rect4144" opacity="1" fill="#e6e6e6" fill-opacity="1" stroke="#000" stroke-width=".339" stroke-linecap="square" stroke-linejoin="bevel" stroke-miterlimit="4" stroke-dasharray="none" stroke-dashoffset="0" stroke-opacity=".078"/><path id="path1033" d="M50.8 262.605c0-18.464-7.407-20.003-22.225-20.003-14.817 0-22.225 1.539-22.225 20.003s7.408 20.002 22.225 20.002c14.818 0 22.225-1.538 22.225-20.002z" transform="matrix(.772 0 0 .69087 1.764 -159.388)" opacity=".3" fill="url(#linearGradient1593)" fill-opacity="1" stroke-width="1.111" filter="url(#filter1051)"/><path d="M41.388 23.952c0-14.758-5.813-15.988-17.441-15.988S6.506 9.194 6.506 23.952c0 14.76 5.813 15.988 17.44 15.988 11.629 0 17.442-1.229 17.442-15.988z" id="path173" fill="#1373ab" stroke-width=".88" fill-opacity="1"/><g id="g1504" transform="matrix(.79558 0 0 .77832 49.253 9.003)"><path transform="translate(-59.438 -5.308)" id="polygon1307" fill="#313131" d="M11.526 34.186l18.885-21.299 3.115 3.136z"/><circle id="circle1309" r="1" cy="17.804" cx="-36.387" fill="#d0d6db"/><g transform="translate(-59.438 -5.308)" id="g1351"><g id="g1335"><g id="g1315"><g id="g1313"><path id="rect1311" fill="#a4ffff" d="M23.036 8.119h1v3h-1z"/></g></g><g id="g1321"><g id="g1319"><path id="rect1317" fill="#a4ffff" d="M23.036 35.119h1v3h-1z"/></g></g><g id="g1327"><g id="g1325"><path id="rect1323" fill="#a4ffff" d="M8.036 22.119h3v1h-3z"/></g></g><g id="g1333"><g id="g1331"><path id="rect1329" fill="#a4ffff" d="M35.036 22.119h3v1h-3z"/></g></g></g><g id="g1349"><g id="g1341"><g id="g1339"><path id="rect1337" transform="rotate(45.001 13.411 33.45)" fill="#a4ffff" d="M12.911 31.998h1v2.903h-1z"/></g></g><g id="g1347"><g id="g1345"><path id="rect1343" transform="rotate(45.001 33.354 32.745)" fill="#a4ffff" d="M31.902 32.245h2.903v1h-2.903z"/></g></g></g></g><path id="path1353" d="M-14.403 18.81h-6.536c.026 0 .055-.7.055-1.07 0-8.495-6.912-15.396-15.408-15.396-8.496 0-15.408 6.918-15.408 15.413 0 .085.01.169.013.254.135-5.734 5.256-10.361 11.543-10.361 6.372 0 11.556 4.73 11.556 10.572 0 .206-.021.589-.034.589h-7.303c-.762 0-1.222.865-.81 1.506l10.834 18.353a.963.963 0 0 0 1.623 0l10.688-18.36c.407-.642-.053-1.5-.813-1.5z" fill="#7bd73b"/></g></svg>