<svg xmlns="http://www.w3.org/2000/svg" xmlns:xlink="http://www.w3.org/1999/xlink" width="48" height="48" version="1.1" id="svg38"><defs id="defs22"><linearGradient id="linearGradient4488"><stop id="stop4490" offset="0" stop-color="#000" stop-opacity=".047"/><stop id="stop4492" offset="1" stop-color="#000" stop-opacity="0"/></linearGradient><style id="style4511"/><style id="style4511-26"/><style id="style4511-9"/><style id="style4552"/><style id="style4511-2"/><linearGradient gradientTransform="matrix(.3082 0 0 .3038 -64.056 2.216)" xlink:href="#linearGradient4488" id="linearGradient4160" x1="288.112" y1="141.785" x2="287.575" y2="79.008" gradientUnits="userSpaceOnUse"/><linearGradient gradientTransform="rotate(-90 -4.415 46.728)" gradientUnits="userSpaceOnUse" x2="47" x1="1" id="linearGradient3764"><stop id="stop356" stop-opacity="1" stop-color="#d3d3d3"/><stop id="stop358" stop-opacity="1" stop-color="#ddd" offset="1"/></linearGradient><linearGradient xlink:href="#linearGradient3764" id="linearGradient1294" x1="2.367" y1="23.808" x2="45.224" y2="23.808" gradientUnits="userSpaceOnUse"/></defs><style id="style4485" type="text/css"/><path d="M2.535 26.443v1.668c0 9.575 5.664 17.282 17.394 17.282h7.031c15.352 0 18.095-11.322 18.095-17.282v-1.668c0 5.96-2.743 17.282-18.095 17.282h-7.03c-11.73 0-17.395-7.708-17.395-17.282z" id="path4147" opacity="1" fill="url(#linearGradient4160)" fill-opacity="1" stroke="none" stroke-width="1.108" stroke-linecap="square" stroke-linejoin="bevel" stroke-miterlimit="4" stroke-dasharray="none" stroke-dashoffset="0" stroke-opacity=".078"/><path d="M19.389 2.965h8.618c14.11 0 17.048 11.246 17.048 17.282v7.123c0 5.96-2.743 17.282-18.095 17.282h-7.03c-11.73 0-17.395-7.708-17.395-17.282v-7.123c0-9.575 5.55-17.282 16.854-17.282z" id="rect4144" opacity="1" fill="url(#linearGradient1294)" fill-opacity="1" stroke="#000" stroke-width=".337" stroke-linecap="square" stroke-linejoin="bevel" stroke-miterlimit="4" stroke-dasharray="none" stroke-dashoffset="0" stroke-opacity=".078"/><g id="g1177" transform="matrix(.76216 0 0 .72035 5.094 7.24)"><g id="g1175"><path d="M30.909 38.296c.87-1.753 1.057-3.629.631-5.539-.426-1.911-1.42-3.651-2.578-5.229a26.34 26.34 0 0 0-1.547-1.914c-1.058-1.192-2.251-2.326-2.865-3.797-.724-1.732-.515-3.823.538-5.378.699-1.033 2.109-1.613 3.527-1.881a6.67 6.67 0 0 1 3.015.267c.367.123.724.278 1.097.384.751.213 1.543.218 2.324.221.28.001.58-.003.811-.161.32-.218.392-.725.144-1.023-.248-.298-.759-.321-1.032-.046-.127.128-.207.307-.364.396a.747.747 0 0 1-.331.075c-1.145.062-2.263-.374-3.262-.936-.824-.464-1.623-1.027-2.551-1.208-.795-.155-1.605-.086-2.333.27-.475.232-.837.554-1.26 1.048-.278.385-.948 1.07-1.408.894-.175-.067-.346-.329.014-.975.18-.308.41-.695.196-.978-.219-.288-.678-.157-.984.037-.444.282-1.245 1.022-1.438 1.539-.266.711-.17 1.645.489 2.022.207.119.447.172.652.295.205.123.453.438.174.849-.623.918-.888 2.079-.668 3.166.208 1.026.801 1.932 1.468 2.739 1.69 2.046 3.952 3.68 5.094 6.075a7.866 7.866 0 0 1 .218 6.183c-.776 1.974-3.726 4.106-3.726 4.106 1.21-1.278 2.127-2.866 2.437-4.598.31-1.732-.11-4.039-2.319-6.361-.683-.719-1.425-1.381-2.137-2.071-.578-.56-1.159-1.123-1.656-1.756-1.683-2.144-2.286-4.949-1.957-7.655a6.144 6.144 0 0 0-1.51 3.668c-.08 1.344.313 2.704 1.066 3.821.761 1.129 1.989 2.235 2.36 2.625 1.39 1.46 2.849 3.058 3.127 5.054.09.643.049 1.301-.079 1.938-.285 1.416-.906 2.505-2.001 3.742 0 0 .279-1.883.319-2.528.132-2.108-.027-4.488-3.373-7.087-1.607-1.248-2.968-2.881-3.623-4.808-.655-1.926-.518-4.179.647-5.847.187-.268.4-.523.524-.825.124-.302.143-.672-.05-.936-.224-.306-.763-.655-1.727-.184-4.872 2.733-8.131 7.706-8.131 13.39C6.87 38.006 14.378 45 23.641 45c3.816-1.749 6.385-4.925 7.268-6.704z" id="path1159" fill="#184a78"/><g id="g1171" fill="#f30000"><path d="M39.774 11.603c-1.522.359-3.109-.004-4.657-.22-1.549-.216-3.228-.28-4.567.527 2.208-.156 4.38.513 6.572.822 1.614.228 3.39.221 4.713-.733.503-.362.814-.797 1.323-1.151.569-.395 1.124-.812 1.742-.77-1.548-.405-3.341 1.104-5.126 1.525z" id="path1161"/><path d="M18.568 11.237c-.253-.089-.528-.089-.796-.08-1.737.056-3.437.573-5.175.593-.36.004-.723-.014-1.071-.106-1.419-.376-3.87-2.601-4.006-2.557.545.676 1.085 1.285 1.63 1.961.549.681 1.121 1.382 1.9 1.781.614.314 1.316.417 2.005.424.689.007 1.376-.077 2.065-.114.562-.031 1.151-.025 1.654.227.503.252.897.818.767 1.366.738-.586 1.066-1.019 1.481-1.619.244-.351.538-1.529-.454-1.876z" id="path1163"/><path d="M14.852 4.698c.43.464.961.828 1.517 1.13 1.612.874 3.709 1.151 4.859.941.811-.148 2.263-.766 2.937-1.289a3.83 3.83 0 0 0-3.136-1.114c-.455.053-.895.189-1.344.279-.492.1-.995.146-1.498.139-1.002-.014-2.03-.257-2.825-.868-.604-.463-1.068-1.221-.9-1.964.065-.288.204-.637-.009-.84-.106-.101-.266-.12-.412-.113-.378.018-.747.18-1.016.446.244.818.666 1.511 1.107 2.242.215.356.439.708.72 1.011z" id="path1165"/><path d="M31.938 9.664c1.78-.58 4.112-.411 5.057-.539 2.481-.337 2.781-1.878 2.783-2.468.002-.59-.868-.782-2.136.539-1.041 1.085-2.508 1.16-4.315.89-1.199-.179-2.198-.202-3.425.391-.495.239-1.096.468-1.645.499-1.022.057-.971-.89-.293-1.178.584-.248 1.333-.151 1.561-.467.482-.671-.58-1.618-1.551-1.753-.818-.114-1.542.031-2.292.378-.963.445-1.909.823-2.872 1.268-1.345.621-2.537 1.172-3.938.688-.468-.162-1.362-.742-2.023-.769-1.341-.055-2.366.97-3.708.93-1.461-.043-2.421-1.328-3.788-1.844-.768-.289-1.614-.245-2.433-.305-.818-.061-1.697-.272-2.212-.911.287.74.901 1.301 1.534 1.78a14.135 14.135 0 0 0 8.411 2.832c1.528.004 2.47-.264 3.975-.001 1.389.243 1.605 1.127 3.304 1.578 4.221 1.119 5.708-.137 10.006-1.538z" id="path1167"/><path d="M33.313 16.772c-1.297-.78-4.078-.835-5.558.801-1.172 1.296-1.078 3.163-.241 4.696.867 1.588 2.565 2.902 3.648 4.272 1.275 1.613 1.819 2.654 2.455 4.61.656 2.017.561 7.425-3.81 10.788-1.672 1.413-3.709 2.311-6.154 3.059 9.085-.19 16.758-7.11 16.758-15.617.001-5.603-3.442-10.412-7.098-12.609z" id="path1169"/></g><path id="polygon1173" opacity=".6" fill="#184a77" d="M23.641 45h.006l.006-.003z"/></g></g></svg>