<svg xmlns:osb="http://www.openswatchbook.org/uri/2009/osb" xmlns="http://www.w3.org/2000/svg" xmlns:xlink="http://www.w3.org/1999/xlink" width="48" height="48" version="1.1" id="svg38"><defs id="defs22"><linearGradient id="linearGradient4488"><stop id="stop4490" offset="0" stop-color="#000" stop-opacity=".047"/><stop id="stop4492" offset="1" stop-color="#000" stop-opacity="0"/></linearGradient><style id="style4511"/><style id="style4511-26"/><style id="style4511-9"/><style id="style4552"/><style id="style4511-2"/><linearGradient xlink:href="#linearGradient4488" id="linearGradient4540" gradientUnits="userSpaceOnUse" gradientTransform="matrix(.30673 0 0 .3038 -63.725 1.994)" x1="288.112" y1="141.785" x2="287.575" y2="79.008"/><linearGradient osb:paint="solid" id="linearGradient5293"><stop id="stop5295" offset="0" stop-color="#9a89c0" stop-opacity="1"/></linearGradient><linearGradient osb:paint="solid" id="linearGradient5251"><stop id="stop5253" offset="0" stop-color="#2f343f" stop-opacity="1"/></linearGradient><style id="style4511-87"/><style id="style4511-26-7"/><style id="style4511-9-1"/><style id="style4552-8"/><style id="style4511-2-2"/><style id="style4552-7"/><linearGradient id="c-93" y1="-514" x1="-398.07" y2="-533.13" x2="-417.2" gradientUnits="userSpaceOnUse"><stop stop-color="#2e5d89" id="stop12-60"/><stop offset="1" stop-color="#1b92f4" id="stop14-62"/></linearGradient><style id="style4552-6"/><style id="style4552-66"/><style id="style4511-8"/><style id="style4511-26-4"/><style id="style4511-9-7"/><style id="style4552-3"/><style id="style4511-2-8"/><linearGradient gradientTransform="rotate(-90 24 24) scale(3.5433)" x2="13.547" x1="0" gradientUnits="userSpaceOnUse" id="linear0"><stop id="stop14-60" stop-opacity="1" stop-color="#008ef3"/><stop id="stop16-62" stop-opacity="1" stop-color="#00d4ff" offset="1"/></linearGradient><linearGradient gradientTransform="matrix(0 -1 .99128 0 .398 48.95)" gradientUnits="userSpaceOnUse" y2="23.78" x2="45.216" y1="23.78" x1="2.97" id="linearGradient1950" xlink:href="#linear0"/><linearGradient gradientTransform="matrix(0 -1 .99128 0 .398 48.95)" gradientUnits="userSpaceOnUse" y2="23.78" x2="45.216" y1="23.78" x1="2.97" id="linearGradient1855" xlink:href="#c-93"/></defs><style id="style4485" type="text/css"/><path id="path4516" d="M2.547 26.22v1.669c0 9.574 5.638 17.282 17.312 17.282h6.997c15.279 0 18.009-11.323 18.009-17.282V26.22c0 5.96-2.73 17.282-18.009 17.282H19.86c-11.674 0-17.312-7.708-17.312-17.282z" opacity="1" fill="url(#linearGradient4540)" fill-opacity="1" stroke="none" stroke-width="1.105" stroke-linecap="square" stroke-linejoin="bevel" stroke-miterlimit="4" stroke-dasharray="none" stroke-dashoffset="0" stroke-opacity=".078"/><style type="text/css" id="style4485-10"/><style id="style4485-4" type="text/css"/><style id="style4485-5" type="text/css"/><style id="style4485-49" type="text/css"/><style id="style4485-1" type="text/css"/><g id="g2091" transform="matrix(1.01949 0 0 1.00302 -.279 -.741)"><path d="M3.31 29.2v-8.495C3.31 6.797 14.457 3.9 20.44 3.9h7.062c5.908 0 17.131 2.705 17.131 17.837v6.93c0 11.563-7.64 17.146-17.131 17.146H20.44c-9.491 0-17.132-5.47-17.132-16.613z" id="path5876" opacity="1" fill="url(#linearGradient1855)" fill-opacity="1" stroke="url(#linearGradient1950)" stroke-width=".333" stroke-linecap="square" stroke-linejoin="bevel" stroke-miterlimit="4" stroke-dasharray="none" stroke-dashoffset="0" stroke-opacity=".078"/><g transform="translate(0 .53)" id="g1872" stroke="none" stroke-width="1.81" stroke-linecap="round" stroke-linejoin="miter" stroke-miterlimit="4" stroke-dasharray="none" stroke-dashoffset="0" stroke-opacity="1"><path d="M12.555 4.688a14.192 14.192 0 0 0-3.962 2.473L9.63 8.256l-5.183 5.806h6.173l5.354-5.81c-.952-.976-2.166-2.25-3.42-3.564z" id="path5889" opacity="1" fill="#666" fill-opacity="1"/><path d="M17.494 3.48c-1.883.186-3.582.616-5.092 1.263l3.328 3.513-5.18 5.806h6.172l5.352-5.81a659.094 659.094 0 0 1-4.58-4.773z" id="path5893" opacity="1" fill="#e6e6e6" fill-opacity="1"/><path d="M19.642 3.37c-.814 0-1.589.055-2.342.137l4.502 4.75-5.181 5.805h6.173l5.352-5.81c-1.304-1.337-2.98-3.096-4.683-4.882z" id="path5895" opacity="1" fill="#666" fill-opacity="1"/><path d="M23.271 3.37l4.632 4.886-5.18 5.806h6.172l5.352-5.81c-1.289-1.322-2.944-3.059-4.63-4.827a23.27 23.27 0 0 0-1.535-.055z" id="path5897" opacity="1" fill="#e6e6e6" fill-opacity="1"/><path d="M29.423 3.408l4.595 4.848-5.181 5.806h6.172l5.347-5.804c-.052-.058-.103-.116-.156-.173-.092-.094-.225-.236-.322-.336-2.33-2.352-5.682-4.07-10.455-4.341z" id="path5899" opacity="1" fill="#666" fill-opacity="1"/><path d="M38.448 6.493l1.67 1.763-5.182 5.806h6.172l1.768-1.918c-.974-2.098-2.388-4.095-4.428-5.651z" id="path5901" opacity="1" fill="#e6e6e6" fill-opacity="1"/><path d="M42.806 12l-1.841 2.062h2.688A18.756 18.756 0 0 0 42.806 12z" id="path5903" opacity="1" fill="#666" fill-opacity="1"/><path d="M8.834 6.96c-2.177 1.836-3.77 4.248-4.662 7.102h.55l5.352-5.81c-.346-.354-.836-.871-1.24-1.292z" id="path5905" opacity="1" fill="#e6e6e6" fill-opacity="1"/><path d="M4.188 14.02c-.073.222-.13.454-.196.68h39.855c-.068-.227-.133-.452-.21-.68z" id="rect5972" opacity="1" fill="#0db0e4" fill-opacity=".188"/></g><path id="path39" d="M18.225 20.348v17.777l14.62-8.889m-9.747-3.555c2.369.01 3.895 1.93 3.9 3.555 0 2.667-2.925 3.556-3.9 3.556v-1.778c3.27-.299 2.201-4.33-.974-3.555v5.333h-1.95v-5.723c0-.486.975-1.389 2.924-1.389m0 0" fill="#f2f2f2" fill-opacity="1" fill-rule="nonzero" stroke="none" stroke-width=".931"/></g></svg>