<svg xmlns="http://www.w3.org/2000/svg" width="48" height="48" version="1.1" id="svg38"><defs id="defs22"><style id="style4511"/><style id="style4511-26"/><style id="style4511-9"/><style id="style4552"/><style id="style4511-2"/></defs><style id="style4485" type="text/css"/><path d="M19.677 3.253h8.618c14.108 0 17.047 11.413 17.047 17.537v7.229c0 6.047-2.744 17.537-18.094 17.537h-7.03c-11.73 0-17.394-7.822-17.394-17.537V20.79c0-9.715 5.549-17.537 16.853-17.537z" id="rect4144" opacity="1" fill="#ececec" fill-opacity="1" stroke="#000" stroke-width=".339" stroke-linecap="square" stroke-linejoin="bevel" stroke-miterlimit="4" stroke-dasharray="none" stroke-dashoffset="0" stroke-opacity=".078"/><g id="g1188" transform="matrix(.78055 0 0 .75593 5.35 6.262)"><path d="M20.414 17h15.177c.265 0 .52-.105.707-.293l6.409-6.414A1 1 0 0 0 43 9.586V5a1 1 0 0 0-1-1h-4.508c-.303 0-.59.138-.78.374L33.3 8.626a1 1 0 0 1-.78.374H18.43a.996.996 0 0 0-.683.27L5 23v17.586c0 .265.105.52.293.707l2.414 2.414a1 1 0 0 0 .707.293h23.143c.282 0 .55-.119.74-.327l9.442-10.387c.167-.184.26-.424.26-.673v-8.225c0-.267-.107-.523-.296-.711l-2.411-2.388a1 1 0 0 0-.703-.289h-7.144a1 1 0 0 0-.763.353l-4.994 5.891a.498.498 0 0 0 .378.823c1.547-.001 4.406-.035 5.924-.054a.998.998 0 0 1 1.01 1v3.55c0 .267-.107.522-.296.71l-2.458 2.436a.998.998 0 0 1-.704.29H18.387a1 1 0 0 1-.7-.286L14.3 31.419a1 1 0 0 1-.3-.714v-6.29c0-.265.105-.52.293-.707l5.414-6.414a.996.996 0 0 1 .707-.294z" id="path1186" fill="#cc342f"/></g></svg>