<svg xmlns:osb="http://www.openswatchbook.org/uri/2009/osb" xmlns="http://www.w3.org/2000/svg" xmlns:xlink="http://www.w3.org/1999/xlink" width="48" height="48" version="1.1" id="svg38"><defs id="defs22"><linearGradient id="linearGradient4488"><stop id="stop4490" offset="0" stop-color="#000" stop-opacity=".047"/><stop id="stop4492" offset="1" stop-color="#000" stop-opacity="0"/></linearGradient><style id="style4511"/><style id="style4511-26"/><style id="style4511-9"/><style id="style4552"/><style id="style4511-2"/><linearGradient osb:paint="solid" id="linearGradient5293"><stop id="stop5295" offset="0" stop-color="#9a89c0" stop-opacity="1"/></linearGradient><linearGradient osb:paint="solid" id="linearGradient5251"><stop id="stop5253" offset="0" stop-color="#2f343f" stop-opacity="1"/></linearGradient><style id="style4511-8"/><style id="style4511-26-4"/><style id="style4511-9-8"/><style id="style4552-5"/><style id="style4511-2-5"/><style id="style4511-87"/><style id="style4511-26-7"/><style id="style4511-9-1"/><style id="style4552-53"/><style id="style4511-2-9"/><linearGradient id="linearGradient4499"><stop id="stop4501" offset="0" stop-color="#2b86be" stop-opacity="1"/><stop id="stop4503" offset="1" stop-color="#31b8a2" stop-opacity="1"/></linearGradient><style id="style4511-879"/><style id="style4511-26-76"/><style id="style4511-9-2"/><style id="style4552-8"/><style id="style4511-2-2"/><linearGradient gradientUnits="userSpaceOnUse" y2="2.84" x2="22.866" y1="42.705" x1="14.788" id="linearGradient4505" xlink:href="#linearGradient4499"/><style id="style4511-8-5"/><style id="style4511-26-4-9"/><style id="style4511-9-8-6"/><style id="style4552-5-6"/><style id="style4511-2-5-0"/><clipPath id="clipPath-222431279"/><linearGradient xlink:href="#linearGradient4488" id="linearGradient1510" gradientUnits="userSpaceOnUse" gradientTransform="translate(-62.887 1.994) scale(.3038)" x1="288.112" y1="141.785" x2="287.575" y2="79.008"/></defs><style id="style4485" type="text/css"/><style type="text/css" id="style4485-4"/><style type="text/css" id="style4485-3"/><style type="text/css" id="style4485-8"/><style id="style4485-4-0" type="text/css"/><g id="g1508" transform="matrix(1.01031 0 0 1.00648 -.056 .013)"><g id="g485"><path id="path4524-2" d="M2.752 26.22v1.67c0 9.573 5.583 17.281 17.146 17.281h6.93c15.133 0 17.837-11.322 17.837-17.282v-1.668c0 5.96-2.704 17.282-17.837 17.282h-6.93c-11.563 0-17.146-7.708-17.146-17.282z" opacity="1" fill="url(#linearGradient1510)" fill-opacity="1" stroke="none" stroke-width="1.1" stroke-linecap="square" stroke-linejoin="bevel" stroke-miterlimit="4" stroke-dasharray="none" stroke-dashoffset="0" stroke-opacity=".078"/><path id="path4526-9" d="M19.365 2.742h8.495c13.908 0 16.805 11.247 16.805 17.282v7.124c0 5.96-2.705 17.282-17.837 17.282h-6.93c-11.563 0-17.146-7.708-17.146-17.282v-7.124c0-9.574 5.47-17.282 16.613-17.282z" opacity="1" fill="url(#linearGradient4505)" fill-opacity="1" stroke="#000" stroke-width=".334" stroke-linecap="square" stroke-linejoin="bevel" stroke-miterlimit="4" stroke-dasharray="none" stroke-dashoffset="0" stroke-opacity=".078"/><g id="g59" transform="translate(-.291 -.223)"><g clip-path="url(#clipPath-222431279)" id="g57"><g transform="translate(1 1)" id="g55"><g id="g53" opacity=".1"><g id="g51" fill="#000" fill-opacity="1" fill-rule="nonzero" stroke="none"><path d="M12 13h6v6h-6m0-6" id="path33"/><path d="M21 13h6v6h-6m0-6" id="path35"/><path d="M30 13h6v6h-6m0-6" id="path37"/><path d="M12 21h6v6h-6m0-6" id="path39"/><path d="M21 21h6v6h-6m0-6" id="path41"/><path d="M30 21h6v6h-6m0-6" id="path43"/><path d="M12 29h6v6h-6m0-6" id="path45"/><path d="M21 29h6v6h-6m0-6" id="path47"/><path d="M30 29h6v6h-6m0-6" id="path49"/></g></g></g></g></g><path id="path61" d="M11.709 12.777h6v6h-6m0-6" fill="#fff" fill-opacity="1" fill-rule="nonzero" stroke="none"/><path id="path63" d="M20.709 12.777h6v6h-6m0-6" fill="#fff" fill-opacity="1" fill-rule="nonzero" stroke="none"/><path id="path65" d="M29.709 12.777h6v6h-6m0-6" fill="#fff" fill-opacity="1" fill-rule="nonzero" stroke="none"/><path id="path67" d="M11.709 20.777h6v6h-6m0-6" fill="#fff" fill-opacity="1" fill-rule="nonzero" stroke="none"/><path id="path69" d="M20.709 20.777h6v6h-6m0-6" fill="#1bb4e6" fill-opacity="1" fill-rule="nonzero" stroke="none"/><path id="path71" d="M29.709 20.777h6v6h-6m0-6" fill="#fff" fill-opacity="1" fill-rule="nonzero" stroke="none"/><path id="path73" d="M11.709 28.777h6v6h-6m0-6" fill="#fff" fill-opacity="1" fill-rule="nonzero" stroke="none"/><path id="path75" d="M20.709 28.777h6v6h-6m0-6" fill="#fff" fill-opacity="1" fill-rule="nonzero" stroke="none"/><path id="path77" d="M29.709 28.777h6v6h-6m0-6" fill="#fff" fill-opacity="1" fill-rule="nonzero" stroke="none"/></g></g></svg>