<svg xmlns:osb="http://www.openswatchbook.org/uri/2009/osb" xmlns="http://www.w3.org/2000/svg" width="48" height="48" version="1.1" id="svg38"><defs id="defs22"><style id="style4511"/><style id="style4511-26"/><style id="style4511-9"/><style id="style4552"/><style id="style4511-2"/><linearGradient osb:paint="solid" id="linearGradient5293"><stop id="stop5295" offset="0" stop-color="#9a89c0" stop-opacity="1"/></linearGradient></defs><style id="style4485" type="text/css"/><path id="path4518" d="M2.565 28.169v-8.577c0-14.041 11.572-16.966 17.783-16.966h7.33c6.132 0 17.783 2.73 17.783 18.008v6.997c0 11.673-7.932 17.31-17.784 17.31h-7.33c-9.851 0-17.782-5.522-17.782-16.772z" opacity="1" fill="#d01100" fill-opacity="1" stroke="#000" stroke-width=".341" stroke-linecap="square" stroke-linejoin="bevel" stroke-miterlimit="4" stroke-dasharray="none" stroke-dashoffset="0" stroke-opacity=".078"/><g id="g1446" transform="matrix(.94323 0 0 .94724 .904 .332)" fill="#fff"><path d="M21 16v-3.984S19.984 13 18 13v3h-4a3 3 0 0 0-3 3v16s1.082-1 2.927-1H26a2 2 0 0 0 2-2V15s-1.035 1-3.039 1H21zm4 14.5a1.5 1.5 0 0 1-1.5 1.5h-8.438A1.063 1.063 0 0 1 14 30.938V19.5a1.5 1.5 0 0 1 1.5-1.5H18v6h-.978C15.008 24 15 26 15 26s1.046-1 2.001-1H18v4.854c0 .633.513 1.146 1.146 1.146h.708c.633 0 1.146-.513 1.146-1.146V25h.984C23.935 25 24 23 24 23s-.999 1-2.016 1H21v-6h2.938c.586 0 1.062.476 1.062 1.063z" id="path1442"/><path d="M33 15a4 4 0 0 0-4 4v18.5s1.016-.984 3-.984v-3.657c.321.083.653.141 1 .141h1a4 4 0 0 0 4-4v-5.037c-.141-.51-.984-.575-1.531-.338 0 0 1.531-.616 1.531-1.824v-7.803C37 15.025 33 15 33 15zm2 7.25c0 .297-.688.313-1.328.844-.549.456-.843.744-1.141 1.547 0 0 2.033-1.189 2.469.316V30a2 2 0 0 1-2 2 1 1 0 0 1-1-1V18a2 2 0 0 1 2-2 1 1 0 0 1 1 1z" id="path1444"/></g></svg>