<svg xmlns="http://www.w3.org/2000/svg" style="isolation:isolate" width="48" height="48"><path d="M19.046 2.965h8.495c13.908 0 16.805 11.246 16.805 17.282v7.123c0 5.959-2.704 17.282-17.837 17.282h-6.93c-11.562 0-17.146-7.708-17.146-17.282v-7.123c0-9.575 5.47-17.282 16.613-17.282z" vector-effect="non-scaling-stroke" fill="#e8e8e8" stroke="#000" stroke-width=".334" stroke-linecap="square" stroke-linejoin="bevel" stroke-opacity=".078"/><path d="M28.539 24.448c-1.242 0-2.248-.932-2.248-2.083 0-.122.01-.24.032-.356l-5.376-2.87a2.294 2.216 0 0 1-1.45.492c-1.242 0-2.248-.933-2.248-2.083 0-1.151 1.006-2.083 2.248-2.083 1.242 0 2.249.932 2.249 2.083 0 .133-.015.261-.04.388l5.358 2.858a2.291 2.213 0 0 1 1.475-.512c1.24 0 2.248.933 2.248 2.083 0 1.151-1.007 2.083-2.248 2.083zm-6.82 2.767c0 1.151-1.006 2.084-2.25 2.084-1.24 0-2.247-.933-2.247-2.084 0-1.15 1.006-2.083 2.247-2.083.56 0 1.07.189 1.462.5l3.92-2.087c.168.448.428.857.759 1.205l-3.928 2.091c.024.122.037.247.037.374zM35.239 14.5L24.562 8.847a2.452 2.368 0 0 0-2.347 0L11.538 14.5a2.256 2.179 0 0 0-1.191 1.903v11.5c0 .783.45 1.507 1.182 1.898l18.38 9.83.004-6.982 5.333-2.848a2.256 2.179 0 0 0 1.185-1.899v-11.5c0-.784-.455-1.512-1.192-1.902z" fill="#042b48" stroke-width="1.031"/></svg>