<svg xmlns="http://www.w3.org/2000/svg" xmlns:xlink="http://www.w3.org/1999/xlink" width="48" height="48" version="1.1" id="svg38"><defs id="defs22"><style id="style4511"/><style id="style4511-26"/><style id="style4511-9"/><linearGradient gradientTransform="rotate(45 820.042 -190.615)" x2="378.58" gradientUnits="userSpaceOnUse" y2="523.86" x1="430.51" y1="522.99" id="b-3-7"><stop id="stop7-67" stop-color="#fcfcfc"/><stop id="stop9-53" stop-color="#e9eaeb" offset="1"/></linearGradient><style id="style4552"/><style id="style4511-2"/><linearGradient xlink:href="#b-3-7" id="linearGradient1182" x1="2.367" y1="24.062" x2="45.224" y2="24.062" gradientUnits="userSpaceOnUse"/></defs><style id="style4485" type="text/css"/><path d="M19.39 2.966h8.617c14.109 0 17.047 11.383 17.047 17.492v7.21c0 6.031-2.743 17.491-18.094 17.491h-7.03c-11.73 0-17.394-7.801-17.394-17.492v-7.21c0-9.69 5.55-17.491 16.853-17.491z" id="rect4144" opacity="1" fill="url(#linearGradient1182)" fill-opacity="1" stroke="#000" stroke-width=".339" stroke-linecap="square" stroke-linejoin="bevel" stroke-miterlimit="4" stroke-dasharray="none" stroke-dashoffset="0" stroke-opacity=".078"/><g id="g1233" transform="matrix(1.19468 0 0 1.0361 -4.632 -.99)" fill-rule="evenodd" stroke="none" stroke-width=".683"><path d="M23.795 36.729c7.752 0 14.036-5.546 14.036-13.248 0-7.7-6.284-13.246-14.036-13.247-7.752 0-14.036 5.546-14.036 13.247 0 4.217 1.884 7.788 4.862 10.156.178.142-.226 2.916-1.38 3.834-.285.225-.102.689.253.65 1.358-.148 3.352-.68 4.734-2.419a15.302 15.302 0 0 0 5.567 1.027z" id="Combined-Shape" fill="#27c08c" fill-opacity="1"/><rect ry="1" id="Rectangle-119" x="16.443" y="18.194" width="14.704" height="1.394" rx="1" fill="#fff"/><rect ry="1" id="rect1183" x="16.443" y="22.378" width="14.704" height="1.394" rx="1" fill="#fff"/><rect ry="1" id="rect1185" x="16.443" y="26.561" width="14.704" height="1.394" rx="1" fill="#fff"/></g></svg>