<svg xmlns:osb="http://www.openswatchbook.org/uri/2009/osb" xmlns="http://www.w3.org/2000/svg" xmlns:xlink="http://www.w3.org/1999/xlink" width="48" height="48" version="1.1" id="svg38"><defs id="defs22"><linearGradient id="linearGradient4488"><stop id="stop4490" offset="0" stop-color="#000" stop-opacity=".047"/><stop id="stop4492" offset="1" stop-color="#000" stop-opacity="0"/></linearGradient><style id="style4511"/><style id="style4511-26"/><style id="style4511-9"/><style id="style4552"/><style id="style4511-2"/><linearGradient xlink:href="#linearGradient4488" id="linearGradient4540" gradientUnits="userSpaceOnUse" gradientTransform="translate(-62.889 1.994) scale(.3038)" x1="288.112" y1="141.785" x2="287.575" y2="79.008"/><linearGradient osb:paint="solid" id="linearGradient5293"><stop id="stop5295" offset="0" stop-color="#9a89c0" stop-opacity="1"/></linearGradient></defs><style id="style4485" type="text/css"/><g id="g1365"><path d="M2.75 26.22v1.67c0 9.573 5.583 17.281 17.146 17.281h6.93c15.132 0 17.836-11.322 17.836-17.282v-1.668c0 5.96-2.704 17.282-17.836 17.282h-6.93C8.333 43.503 2.75 35.795 2.75 26.22z" id="path4516" opacity="1" fill="url(#linearGradient4540)" fill-opacity="1" stroke="none" stroke-width="1.1" stroke-linecap="square" stroke-linejoin="bevel" stroke-miterlimit="4" stroke-dasharray="none" stroke-dashoffset="0" stroke-opacity=".078"/><path d="M19.363 2.742h8.495c13.908 0 16.804 11.247 16.804 17.282v7.124c0 5.96-2.704 17.282-17.836 17.282h-6.93C8.333 44.43 2.75 36.722 2.75 27.148v-7.124c0-9.574 5.47-17.282 16.613-17.282z" id="path4518" opacity="1" fill="#cedee7" fill-opacity="1" stroke="#000" stroke-width=".334" stroke-linecap="square" stroke-linejoin="bevel" stroke-miterlimit="4" stroke-dasharray="none" stroke-dashoffset="0" stroke-opacity=".078"/><path id="path14637" d="M13.878 18.97c-.388 0-.703-.329-.703-.733l-.017-7.662c0-.404.315-.732.703-.732h19.696c.389 0 .704.329.703.734v7.662c-.002.404-.316.73-.703.73z" fill="#0080ff" fill-rule="evenodd" stroke="none" stroke-width=".703"/><path id="Shape-2" d="M39.184 24.026c0-2.805-1.916-5.17-4.54-5.92-.753-2.889-3.426-5.029-6.617-5.029-.928 0-1.812.183-2.62.51a7.645 7.645 0 0 0-5.524-2.34c-4.153 0-7.522 3.26-7.586 7.302-2.367.834-4.063 3.042-4.063 5.643 0 3.297 2.722 5.97 6.09 6.001v.008h18.734v-.011c3.4-.1 6.126-2.818 6.126-6.164z" fill="#e7f4ff" fill-rule="evenodd" stroke="none" stroke-width=".703"/><ellipse ry="1.053" rx="1.055" cy="23.539" cx="35.992" id="circle14648" fill="#0fb8ff" fill-rule="evenodd" stroke="none" stroke-width=".703"/><path id="path14650" d="M13.158 24.585V36.52c0 .387.315.702.704.702l19.696-.032a.702.702 0 0 0 .702-.702V24.585z" fill="#0080ff" fill-rule="evenodd" stroke="none" stroke-width=".703"/><path transform="matrix(.70339 0 0 .70201 6.828 6.333)" id="rect14652" fill="#fff" fill-rule="evenodd" stroke="none" stroke-width="1" d="M35 32v1H13v-1z"/><path transform="matrix(.70339 0 0 .70201 6.828 6.333)" id="rect14654" fill="#fff" fill-rule="evenodd" stroke="none" stroke-width="1" d="M35 37v1H13v-1z"/></g></svg>