<svg xmlns:osb="http://www.openswatchbook.org/uri/2009/osb" xmlns="http://www.w3.org/2000/svg" xmlns:xlink="http://www.w3.org/1999/xlink" width="48" height="48" version="1.1" id="svg38"><defs id="defs22"><linearGradient id="linearGradient4488"><stop id="stop4490" offset="0" stop-color="#000" stop-opacity=".047"/><stop id="stop4492" offset="1" stop-color="#000" stop-opacity="0"/></linearGradient><style id="style4511"/><style id="style4511-26"/><style id="style4511-9"/><style id="style4552"/><style id="style4511-2"/><linearGradient xlink:href="#linearGradient4488" id="linearGradient4540" gradientUnits="userSpaceOnUse" gradientTransform="translate(-62.457 2.425) scale(.3038)" x1="288.112" y1="141.785" x2="287.575" y2="79.008"/><linearGradient osb:paint="solid" id="linearGradient5293"><stop id="stop5295" offset="0" stop-color="#9a89c0" stop-opacity="1"/></linearGradient><radialGradient id="radialGradient-3" gradientTransform="matrix(.95119 0 0 1.05131 -63.981 4.892)" r="38.387" fy="9.874" fx="25.232" cy="9.874" cx="25.232" gradientUnits="userSpaceOnUse"><stop id="stop393" offset="0%" stop-color="#04A38C"/><stop id="stop395" offset="100%" stop-color="#075661"/></radialGradient><linearGradient xlink:href="#radialGradient-3" id="linearGradient1281" x1="2.583" y1="23.586" x2="44.83" y2="23.586" gradientUnits="userSpaceOnUse" gradientTransform="translate(.431 .431)"/></defs><style id="style4485" type="text/css"/><path id="path4516" d="M3.181 26.652v1.669c0 9.574 5.584 17.282 17.146 17.282h6.93c15.133 0 17.837-11.323 17.837-17.282v-1.669c0 5.96-2.704 17.282-17.837 17.282h-6.93c-11.562 0-17.146-7.708-17.146-17.282z" opacity="1" fill="url(#linearGradient4540)" fill-opacity="1" stroke="none" stroke-width="1.1" stroke-linecap="square" stroke-linejoin="bevel" stroke-miterlimit="4" stroke-dasharray="none" stroke-dashoffset="0" stroke-opacity=".078"/><path id="path4518" d="M19.794 3.174h8.496c13.907 0 16.804 11.247 16.804 17.282v7.123c0 5.96-2.704 17.282-17.837 17.282h-6.93c-11.562 0-17.146-7.708-17.146-17.282v-7.123c0-9.574 5.47-17.282 16.613-17.282z" opacity="1" fill="url(#linearGradient1281)" fill-opacity="1" stroke="#000" stroke-width=".334" stroke-linecap="square" stroke-linejoin="bevel" stroke-miterlimit="4" stroke-dasharray="none" stroke-dashoffset="0" stroke-opacity=".078"/><rect rx="2" height="42" width="38" y="7.892" x="-58.981" id="rect412" fill="#04a38c" fill-rule="evenodd" stroke="none" stroke-width="1" fill-opacity="0"/><g id="g395" transform="matrix(.93866 0 0 1.02289 .78 -1.867)" fill-rule="evenodd" stroke="none"><path d="M24.524 14.089c-.49-.023-.88-.377-.88-.81 0-.449.416-.812.93-.812.513 0 .93.363.93.811 0 .434-.39.788-.882.81l4.27 1.586h-8.637zm-5.36 18.419h10.819c.135 0 .254.098.264.219l.372 1.967c.01.121-.1.219-.245.219H18.773c-.146 0-.256-.098-.245-.219l.372-1.967c.01-.121.128-.219.264-.219zm1.09-16.033h8.638v.802h-8.637zm1.728 1.604v1.603h-.864v-1.603zm6.046 0v1.603h-.863v-1.603zm-1.727 0v1.603h-3.455v-1.603zm-6.046 2.404h8.637v.802h-8.637zm0 11.223l1.2-9.62h6.237l1.2 9.62zm3.455-5.611V28.5h1.727v-2.405z" id="Combined-Shape" fill="#fff" stroke-width=".832"/><path d="M8.038 22.173V15.76L20.13 18.2v1.533zm20.73-3.974l12.092-2.44v6.414l-12.092-2.44z" id="path415" opacity=".3" fill="#fff" stroke-width=".832"/><path d="M15.135 35.195h19.642V33.59v3.207c0 .443-.251.802-.561.802h-19.08c-.31 0-.562-.36-.562-.802v-.802c0-.442.251-.801.561-.801z" id="path418" fill="#d5fcf9" stroke-width=".671"/></g></svg>