<svg xmlns="http://www.w3.org/2000/svg" xmlns:xlink="http://www.w3.org/1999/xlink" width="48" height="48" version="1.1" id="svg38"><defs id="defs22"><linearGradient id="linearGradient4488"><stop id="stop4490" offset="0" stop-color="#000" stop-opacity=".047"/><stop id="stop4492" offset="1" stop-color="#000" stop-opacity="0"/></linearGradient><style id="style4511"/><style id="style4511-26"/><style id="style4511-9"/><style id="style4552"/><style id="style4511-2"/><linearGradient xlink:href="#linearGradient4488" id="linearGradient4544" gradientUnits="userSpaceOnUse" gradientTransform="translate(-62.887 1.994) scale(.3038)" x1="288.112" y1="141.785" x2="287.575" y2="79.008"/><linearGradient gradientUnits="userSpaceOnUse" id="linearGradient-2-9-3" y2="118" x2="64" y1="10" x1="64" gradientTransform="matrix(.41082 0 0 .40951 -56.206 -.744)"><stop id="stop11-1" offset="0%" stop-color="#23E6BA"/><stop id="stop13-2" offset="100%" stop-color="#26C7A3"/></linearGradient><linearGradient gradientUnits="userSpaceOnUse" gradientTransform="scale(1.62019 .61721)" id="linearGradient-3" y2="103.692" x2="54.315" y1="103.692" x1="2.469"><stop id="stop16-7" offset="0%" stop-color="#24E1B7"/><stop id="stop18-0" offset="100%" stop-color="#26CBA6"/></linearGradient><linearGradient xlink:href="#linearGradient-2-9-3" id="linearGradient1287" x1="2.585" y1="23.586" x2="44.832" y2="23.586" gradientUnits="userSpaceOnUse"/></defs><style id="style4485" type="text/css"/><g id="g1314"><path d="M2.752 26.22v1.67c0 9.573 5.583 17.281 17.146 17.281h6.93c15.133 0 17.837-11.322 17.837-17.282v-1.668c0 5.96-2.704 17.282-17.837 17.282h-6.93c-11.563 0-17.146-7.708-17.146-17.282z" id="path4524" opacity="1" fill="url(#linearGradient4544)" fill-opacity="1" stroke="none" stroke-width="1.1" stroke-linecap="square" stroke-linejoin="bevel" stroke-miterlimit="4" stroke-dasharray="none" stroke-dashoffset="0" stroke-opacity=".078"/><path d="M19.365 2.742h8.495c13.908 0 16.805 11.247 16.805 17.282v7.124c0 5.96-2.705 17.282-17.837 17.282h-6.93c-11.563 0-17.146-7.708-17.146-17.282v-7.124c0-9.574 5.47-17.282 16.613-17.282z" id="path4526" opacity="1" fill="url(#linearGradient1287)" fill-opacity="1" stroke="#000" stroke-width=".334" stroke-linecap="square" stroke-linejoin="bevel" stroke-miterlimit="4" stroke-dasharray="none" stroke-dashoffset="0" stroke-opacity=".078"/><path id="Combined-Shape" d="M9.74 23.996c0-7.69 6.254-13.924 13.968-13.924s13.968 6.234 13.968 13.924c0 7.69-6.254 13.923-13.968 13.923S9.741 31.685 9.741 23.996zm.822 0c0 7.237 5.886 13.104 13.146 13.104 7.26 0 13.146-5.867 13.146-13.104 0-7.238-5.885-13.105-13.146-13.105-7.26 0-13.146 5.867-13.146 13.105z" fill="#1db996" fill-rule="evenodd" stroke="none" stroke-width=".41"/><path id="path28" d="M11.384 23.996c0-6.786 5.518-12.286 12.324-12.286 6.807 0 12.325 5.5 12.325 12.286 0 6.785-5.518 12.285-12.325 12.285-6.806 0-12.324-5.5-12.324-12.285zm6.573 0c0 3.166 2.575 5.733 5.751 5.733 3.177 0 5.752-2.567 5.752-5.733 0-3.167-2.575-5.734-5.752-5.734-3.176 0-5.751 2.567-5.751 5.734z" fill="#1db996" fill-rule="evenodd" stroke="none" stroke-width=".41"/><g transform="matrix(0 .40951 -.41082 0 37.95 9.39)" id="Group-3" fill="#fff" fill-rule="evenodd" stroke="none" stroke-width="1"><path id="path30" d="M34.667 68.667c-18.778 0-34-15.223-34-34 0-18.778 15.222-34 34-34 18.777 0 34 15.222 34 34 0 18.777-15.223 34-34 34zm0-2c17.673 0 32-14.327 32-32 0-17.673-14.327-32-32-32-17.673 0-32 14.327-32 32 0 17.673 14.327 32 32 32z"/><path id="path32" d="M34.667 64.667c-16.569 0-30-13.432-30-30 0-16.569 13.431-30 30-30 16.568 0 30 13.431 30 30 0 16.568-13.432 30-30 30zm0-16c7.732 0 14-6.268 14-14s-6.268-14-14-14-14 6.268-14 14 6.268 14 14 14z"/></g><path transform="matrix(0 .40951 -.41082 0 42.606 4.748)" id="Rectangle-2" fill="url(#linearGradient-3)" fill-rule="evenodd" stroke="none" stroke-width="1" d="M88 80H4V48h84z"/><path transform="matrix(0 .40951 -.41082 0 44.66 3.52)" id="Rectangle" fill="#1db996" fill-rule="evenodd" stroke="none" stroke-width="1" d="M86 75H14V55h72z"/><path transform="matrix(0 .40951 -.41082 0 44.249 3.11)" id="polygon37" fill="#fff" fill-rule="evenodd" stroke="none" stroke-width="1" d="M86 74H14V54h72z"/><path id="path39" d="M13.849 11.3v-.818h4.93v.819zm0 16.381v-.819h4.93v.82zm0-13.104v-.82h2.465v.82zm0 3.276v-.82h2.465v.82zm0 6.552v-.819h2.465v.819zm0-3.276v-.82h2.465v.82zm0 16.38v-.819h2.465v.82zm0-6.552v-.819h2.465v.82zm0 3.276v-.819h2.465v.82z" fill="#26c7a3" fill-rule="nonzero" stroke="none" stroke-width=".41"/></g></svg>