<svg xmlns="http://www.w3.org/2000/svg" xmlns:xlink="http://www.w3.org/1999/xlink" width="48" height="48" version="1.1" id="svg38"><defs id="defs22"><linearGradient id="linearGradient4488"><stop id="stop4490" offset="0" stop-color="#000" stop-opacity=".047"/><stop id="stop4492" offset="1" stop-color="#000" stop-opacity="0"/></linearGradient><style id="style4511"/><style id="style4511-26"/><style id="style4511-9"/><style id="style4552"/><style id="style4511-2"/><linearGradient xlink:href="#linearGradient4488" id="linearGradient4471" gradientUnits="userSpaceOnUse" gradientTransform="translate(-62.47 2.216) scale(.3038)" x1="288.112" y1="141.785" x2="287.575" y2="79.008"/></defs><style id="style4485" type="text/css"/><path d="M3.168 26.443v1.668c0 9.575 5.583 17.282 17.146 17.282h6.93c15.132 0 17.836-11.322 17.836-17.282v-1.668c0 5.96-2.704 17.282-17.836 17.282h-6.93c-11.563 0-17.146-7.708-17.146-17.282z" id="path4467" opacity="1" fill="url(#linearGradient4471)" fill-opacity="1" stroke="none" stroke-width="1.1" stroke-linecap="square" stroke-linejoin="bevel" stroke-miterlimit="4" stroke-dasharray="none" stroke-dashoffset="0" stroke-opacity=".078"/><path d="M19.781 2.965h8.495c13.908 0 16.805 11.246 16.805 17.282v7.123c0 5.96-2.705 17.282-17.837 17.282h-6.93c-11.563 0-17.146-7.708-17.146-17.282v-7.123c0-9.575 5.47-17.282 16.613-17.282z" id="path4469" opacity="1" fill="#198bf1" fill-opacity="1" stroke="#000" stroke-width=".334" stroke-linecap="square" stroke-linejoin="bevel" stroke-miterlimit="4" stroke-dasharray="none" stroke-dashoffset="0" stroke-opacity=".078"/><path id="Combined-Shape" d="M28.236 25.396a6575.435 6575.435 0 0 0-6.304 6.964l-.004-.004a6.69 6.69 0 0 1-4.804 2.037c-3.705 0-6.719-3.017-6.719-6.725 0-3.708 3.014-6.725 6.719-6.725.16 0 .31.037.467.047a6.625 6.625 0 0 1-.127-1.25c0-3.71 3.015-6.725 6.719-6.725s6.719 3.016 6.719 6.725c0 .386-.042.762-.106 1.132a6.831 6.831 0 0 1 4.803 1.784 6.713 6.713 0 0 1 2.244 5.08 6.863 6.863 0 0 1-9.068 6.5 1.717 1.717 0 0 1 1.104-3.25 3.431 3.431 0 0 0 4.535-3.251 3.431 3.431 0 0 0-3.43-3.433c-1.565 0-2.44.89-2.747 1.095zm-4.053-9.324a3.67 3.67 0 0 0-3.665 3.668 3.671 3.671 0 0 0 3.665 3.668 3.671 3.671 0 0 0 3.665-3.668 3.67 3.67 0 0 0-3.665-3.668zM13.459 27.668a3.67 3.67 0 0 0 3.665 3.668c1.008 0 1.92-.408 2.583-1.068l.026-.03a3.649 3.649 0 0 0 1.055-2.57A3.67 3.67 0 0 0 17.124 24a3.671 3.671 0 0 0-3.665 3.668z" fill="#fff" fill-rule="evenodd" stroke="none" stroke-width="1.056"/></svg>