<svg xmlns:osb="http://www.openswatchbook.org/uri/2009/osb" xmlns="http://www.w3.org/2000/svg" xmlns:xlink="http://www.w3.org/1999/xlink" width="48" height="48" version="1.1" id="svg38"><defs id="defs22"><linearGradient id="linearGradient4488"><stop id="stop4490" offset="0" stop-color="#000" stop-opacity=".047"/><stop id="stop4492" offset="1" stop-color="#000" stop-opacity="0"/></linearGradient><style id="style4511"/><style id="style4511-26"/><style id="style4511-9"/><style id="style4552"/><style id="style4511-2"/><linearGradient xlink:href="#linearGradient4488" id="linearGradient4540" gradientUnits="userSpaceOnUse" gradientTransform="translate(-62.889 1.994) scale(.3038)" x1="288.112" y1="141.785" x2="287.575" y2="79.008"/><linearGradient osb:paint="solid" id="linearGradient5293"><stop id="stop5295" offset="0" stop-color="#9a89c0" stop-opacity="1"/></linearGradient></defs><style id="style4485" type="text/css"/><g id="g1266"><path d="M2.75 26.22v1.67c0 9.573 5.583 17.281 17.146 17.281h6.93c15.132 0 17.836-11.322 17.836-17.282v-1.668c0 5.96-2.704 17.282-17.836 17.282h-6.93C8.333 43.503 2.75 35.795 2.75 26.22z" id="path4516" opacity="1" fill="url(#linearGradient4540)" fill-opacity="1" stroke="none" stroke-width="1.1" stroke-linecap="square" stroke-linejoin="bevel" stroke-miterlimit="4" stroke-dasharray="none" stroke-dashoffset="0" stroke-opacity=".078"/><path d="M19.363 2.742h8.495c13.908 0 16.804 11.247 16.804 17.282v7.124c0 5.96-2.704 17.282-17.836 17.282h-6.93C8.333 44.43 2.75 36.722 2.75 27.148v-7.124c0-9.574 5.47-17.282 16.613-17.282z" id="path4518" opacity="1" fill="#cedee7" fill-opacity="1" stroke="#000" stroke-width=".334" stroke-linecap="square" stroke-linejoin="bevel" stroke-miterlimit="4" stroke-dasharray="none" stroke-dashoffset="0" stroke-opacity=".078"/><g transform="translate(-.305 .305)" id="g1346" fill-rule="evenodd" stroke="none"><path d="M41.62 21.462c0-3.201-2.193-5.9-5.196-6.757-.862-3.297-3.921-5.739-7.574-5.739a7.985 7.985 0 0 0-2.998.582 8.763 8.763 0 0 0-6.323-2.67c-4.753 0-8.61 3.72-8.683 8.333-2.71.953-4.65 3.473-4.65 6.44 0 3.764 3.115 6.816 6.97 6.85v.009h21.442v-.013c3.892-.114 7.012-3.216 7.012-7.035z" id="Shape" fill="#e7f4ff" stroke-width=".803"/><ellipse id="Oval" cx="37.992" cy="22.51" rx="1.208" ry="1.202" fill="#0fb8ff" stroke-width=".803"/><rect id="Rectangle-10" x="12.637" y="17.294" width="22.542" height="21.633" rx="1.61" fill="#acdcfc" stroke-width=".803"/><path id="Rectangle-11" fill="#0070ff" stroke-width=".803" d="M14.247 18.896h19.322v18.428H14.247z"/><path id="Combined-Shape" transform="matrix(.80508 0 0 .80123 4.586 3.673)" fill="#fff" stroke-width="1" d="M35 32h-1v-1H14v1h-1v-3h1v1h20v-1h1z"/><path id="Rectangle-18" opacity=".5" fill="#fff" stroke-width=".803" d="M18.272 21.3h11.271v13.621H18.272z"/></g></g></svg>