<svg xmlns="http://www.w3.org/2000/svg" width="48" height="48" version="1.1" id="svg38"><defs id="defs22"><style id="style4511"/><style id="style4511-26"/><style id="style4511-9"/><style id="style4552"/><style id="style4511-2"/><clipPath id="clipPath-886807824"/><clipPath id="clipPath-897244418"/></defs><style id="style4485" type="text/css"/><g id="g1662" fill-opacity="1"><path id="rect4144" d="M19.765 2.965h8.496c13.907 0 16.804 11.246 16.804 17.282v7.123c0 5.96-2.704 17.282-17.837 17.282h-6.93c-11.562 0-17.146-7.766-17.146-17.282v-7.123c0-9.575 5.47-17.282 16.613-17.282z" opacity="1" fill="#009fff" stroke="#000" stroke-width=".334" stroke-linecap="square" stroke-linejoin="bevel" stroke-miterlimit="4" stroke-dasharray="none" stroke-dashoffset="0" stroke-opacity=".078"/><path id="path46" d="M44.55 15.618c-.721-4.175-2.727-6.808-4.912-8.824-4.118-3.8-9.951-4.066-15.51-4.174-6.194-.12-10.605.465-14.522 3.24-2.975 2.107-4.97 5.329-6.028 9.722l4.503.012.124-.192a18.883 18.883 0 0 1 15.617-8.643v-.007l.718.004v.007a18.878 18.878 0 0 1 15.55 8.786l.122.193 4.362.02m-6.86-.032a16.806 16.806 0 0 0-13.536-6.914h-.007a16.803 16.803 0 0 0-13.592 6.79l27.135.125" fill="#e6e6e6" fill-rule="evenodd" stroke-width=".136"/><g transform="translate(-1.06 .177)" id="g1652" fill="#ececec"><path d="M34.607 30.552c-.364.017-.642-.051-.836-.203-.253-.2-.672-.132-1.358.22-.77.394-.852.488-.978 1.108-.155.758-.289.86-1.255.947-.967.088-1.113.015-1.426-.719-.255-.597-.216-.568-1.143-.836-.85-.246-1.034-.226-1.606.17-.545.376-.748.347-1.446-.203s-.778-.765-.515-1.389c.23-.548.219-.727-.08-1.32-.397-.785-.59-.951-1.255-1.083-.744-.147-.877-.307-.962-1.154-.075-.752.198-1.24.761-1.357.464-.095.605-.257.868-.994.289-.811.274-1.037-.103-1.605-.414-.624-.397-.737.22-1.443.667-.763.779-.78 1.9-.294.177.078.456-.02 1.377-.485.445-.224.551-.373.683-.96.177-.783.385-.928 1.42-.99.703-.041 1.103.22 1.257.82.102.399.31.544 1.115.779.853.249.976.237 1.584-.15.674-.429.864-.395 1.68.298.683.58.757.768.479 1.213-.374.6-.37.832.024 1.553.406.74.559.845 1.35.926.539.054.747.383.81 1.277.053.761-.157 1.058-.893 1.262-.477.132-.518.186-.815 1.077-.272.817-.25.954.237 1.557.368.453.327.637-.301 1.356-.483.553-.557.611-.793.622m-2.775-4.649c.44-1.62-.866-3.09-2.624-2.948-1.81.146-2.84 2.034-1.934 3.545 1.096 1.827 4.002 1.446 4.558-.597" id="path74" stroke-width=".084"/><path d="M24.444 40.02c-.246-.045-.42-.133-.523-.265-.135-.173-.427-.192-.945-.061-.58.146-.651.196-.84.593-.233.485-.34.532-.999.442-.66-.09-.746-.161-.83-.702-.07-.44-.048-.414-.62-.736-.526-.296-.653-.311-1.102-.134-.428.169-.559.118-.931-.358-.373-.477-.39-.633-.109-1.011.247-.333.27-.455.171-.9-.131-.586-.231-.727-.653-.918-.472-.214-.534-.341-.447-.923.078-.516.343-.801.739-.793.326.008.447-.08.748-.533.33-.5.36-.654.204-1.093-.17-.482-.14-.555.392-.935.574-.409.652-.403 1.318.096.105.08.308.056 1.002-.114.335-.082.43-.165.618-.538.251-.499.415-.565 1.116-.446.476.08.7.317.7.743 0 .283.115.413.612.694.527.298.612.31 1.083.144.523-.185.645-.133 1.071.458.358.495.375.631.114.887-.351.345-.388.502-.247 1.046.145.56.229.653.744.829.35.12.433.372.323.981-.093.52-.284.686-.81.71-.34.015-.377.045-.727.597-.32.506-.33.602-.105 1.081.168.36.109.478-.432.864-.416.296-.476.324-.635.295m-1.063-3.546c.57-1.02-.054-2.207-1.252-2.382-1.233-.18-2.241.928-1.892 2.08.421 1.395 2.426 1.587 3.144.302" id="path76" stroke-width=".084"/><g id="g922" transform="matrix(1.38486 0 0 1.41747 -12.17 -12.594)"><path id="rect107" stroke-width=".804" d="M18.915 25.729h4.017v3.932h-4.017z"/><ellipse ry="1.619" rx="1.932" cy="23.585" cx="20.898" id="path109" stroke-width=".669"/></g></g></g></svg>