<svg xmlns="http://www.w3.org/2000/svg" xmlns:xlink="http://www.w3.org/1999/xlink" width="48" height="48" version="1.1" id="svg38"><defs id="defs22"><linearGradient id="linearGradient4488"><stop id="stop4490" offset="0" stop-color="#000" stop-opacity=".047"/><stop id="stop4492" offset="1" stop-color="#000" stop-opacity="0"/></linearGradient><style id="style4511"/><style id="style4511-26"/><style id="style4511-9"/><style id="style4552"/><style id="style4511-2"/><linearGradient xlink:href="#linearGradient4488" id="linearGradient4544" gradientUnits="userSpaceOnUse" gradientTransform="translate(-62.887 1.994) scale(.3038)" x1="288.112" y1="141.785" x2="287.575" y2="79.008"/></defs><style id="style4485" type="text/css"/><path id="path4524" d="M2.752 26.22v1.67c0 9.573 5.583 17.281 17.146 17.281h6.93c15.133 0 17.837-11.322 17.837-17.282v-1.668c0 5.96-2.704 17.282-17.837 17.282h-6.93c-11.563 0-17.146-7.708-17.146-17.282z" opacity="1" fill="url(#linearGradient4544)" fill-opacity="1" stroke="none" stroke-width="1.1" stroke-linecap="square" stroke-linejoin="bevel" stroke-miterlimit="4" stroke-dasharray="none" stroke-dashoffset="0" stroke-opacity=".078"/><path id="path4526" d="M19.365 2.742h8.495c13.908 0 16.805 11.247 16.805 17.282v7.124c0 5.96-2.705 17.282-17.837 17.282h-6.93c-11.563 0-17.146-7.708-17.146-17.282v-7.124c0-9.574 5.47-17.282 16.613-17.282z" opacity="1" fill="#11bcb1" fill-opacity="1" stroke="#000" stroke-width=".334" stroke-linecap="square" stroke-linejoin="bevel" stroke-miterlimit="4" stroke-dasharray="none" stroke-dashoffset="0" stroke-opacity=".078"/><path d="M22.389 35.432c-.114-.037-.264-.139-.415-.282a599.57 599.57 0 0 1-4.448-4.366c-5.777-5.706-5.53-5.452-6.016-6.21a8.783 8.783 0 0 1-.8-1.69c-.474-1.423-.474-3.073 0-4.537.59-1.822 1.89-3.336 3.568-4.16 1.032-.505 1.848-.673 3.089-.636 1.344.04 2.142.299 3.204 1.036.605.42 1.109.862 1.931 1.694l.69.699.934-.957c1.022-1.046 1.063-1.075 1.484-1.049.15.01.433.223.561.424a.59.59 0 0 1 .116.388c0 .115-.026.274-.058.353-.04.097-.479.579-1.33 1.458l-1.272 1.313-1.059-1.083c-1.352-1.383-1.927-1.873-2.864-2.436-.811-.489-1.287-.648-2.15-.72-1.53-.127-3.05.465-4.259 1.66-1.044 1.03-1.604 2.138-1.797 3.553-.215 1.569.288 3.295 1.355 4.66.104.133.548.596.986 1.03.439.433 2.106 2.094 3.705 3.69 1.6 1.598 3.451 3.442 4.115 4.1l1.207 1.195 1.7-1.78 3.956-4.137 2.255-2.355-2.986-3.08-2.985-3.078 3.49-3.604c1.92-1.982 3.537-3.622 3.594-3.645.176-.069.34-.047.52.07.163.108.297.31.297.451 0 .218-.181.42-2.727 3.046l-2.611 2.693.01.243c.011.292.093.474.3.667.21.195.325.247.609.277l.244.025 3.551-3.656c3.155-3.25 3.567-3.66 3.693-3.683.219-.041.404.012.544.156.104.108.126.159.125.299-.002.368.05.31-3.53 4.003l-3.377 3.484-.024.198c-.031.245.068.506.278.73.216.23.4.314.683.31l.24-.004 2.894-2.978c1.591-1.638 2.948-3.006 3.014-3.04.238-.122.47-.05.634.2a.54.54 0 0 1 .053.511c-.028.084-1.103 1.2-3.389 3.517l-3.348 3.394-.01.262c-.014.315.06.493.302.733a.77.77 0 0 0 .68.235c.171-.026.222-.072 1.472-1.33 2.737-2.753 3.1-3.112 3.212-3.172.39-.208.916.246.782.674-.038.12-1.325 1.466-6.812 7.12-4.817 4.965-6.813 6.997-6.934 7.06-.216.115-.622.14-.876.057z" id="path4486" opacity="1" fill="#fff" fill-opacity="1" stroke="none" stroke-width=".04" stroke-linecap="square" stroke-linejoin="miter" stroke-miterlimit="4" stroke-dasharray="none" stroke-opacity="1"/></svg>