<svg xmlns:osb="http://www.openswatchbook.org/uri/2009/osb" xmlns="http://www.w3.org/2000/svg" xmlns:xlink="http://www.w3.org/1999/xlink" width="48" height="48" version="1.1" id="svg38"><defs id="defs22"><linearGradient id="linearGradient4488"><stop id="stop4490" offset="0" stop-color="#000" stop-opacity=".047"/><stop id="stop4492" offset="1" stop-color="#000" stop-opacity="0"/></linearGradient><style id="style4511"/><style id="style4511-26"/><style id="style4511-9"/><style id="style4552"/><style id="style4511-2"/><linearGradient gradientTransform="translate(-63.205 2.216) scale(.3038)" xlink:href="#linearGradient4488" id="linearGradient4160" x1="288.112" y1="141.785" x2="287.575" y2="79.008" gradientUnits="userSpaceOnUse"/><style id="style4511-8"/><style id="style4511-26-4"/><style id="style4511-9-8"/><style id="style4552-9"/><style id="style4511-2-4"/><linearGradient y2="79.008" x2="287.575" y1="141.785" x1="288.112" gradientTransform="translate(45.776 43.635) scale(.3038)" gradientUnits="userSpaceOnUse" id="linearGradient4540" xlink:href="#linearGradient4488"/><linearGradient id="linearGradient5293" osb:paint="solid"><stop offset="0" id="stop5295" stop-color="#9a89c0" stop-opacity="1"/></linearGradient><style id="style4511-5"/><style id="style4511-26-46"/><style id="style4511-9-6"/><style id="style4552-2"/><style id="style4511-2-1"/><style id="style4511-4"/><style id="style4511-26-3"/><style id="style4511-9-9"/><style id="style4552-4"/><style id="style4511-2-7"/><style id="style4511-91"/><style id="style4511-26-32"/><style id="style4511-9-5"/><style id="style4552-0"/><style id="style4511-2-46"/><style id="style4511-87"/><style id="style4511-26-7"/><style id="style4511-9-1"/><style id="style4552-53"/><style id="style4511-2-9"/><style id="style4511-8-0"/><style id="style4511-26-4-4"/><style id="style4511-9-8-9"/><style id="style4552-5"/><style id="style4511-2-5"/><style id="style4511-879"/><style id="style4511-26-76"/><style id="style4511-9-2"/><style id="style4552-8"/><style id="style4511-2-2"/></defs><style id="style4485" type="text/css"/><style type="text/css" id="style4485-1"/><path id="path4516" d="M-19.863 19.408V17.74c0-9.574-5.583-17.282-17.145-17.282h-6.93c-15.133 0-17.837 11.322-17.837 17.282v1.668c0-5.96 2.704-17.282 17.836-17.282h6.93c11.563 0 17.146 7.708 17.146 17.282z" opacity="1" fill="url(#linearGradient4540)" fill-opacity="1" stroke="none" stroke-width="1.1" stroke-linecap="square" stroke-linejoin="bevel" stroke-miterlimit="4" stroke-dasharray="none" stroke-dashoffset="0" stroke-opacity=".078"/><style type="text/css" id="style4485-7"/><style type="text/css" id="style4485-9"/><style type="text/css" id="style4485-3"/><style id="style4485-7-9" type="text/css"/><style type="text/css" id="style4485-6"/><style id="style4485-5" type="text/css"/><g id="g3117" transform="translate(.431)"><path id="path4147" d="M2.433 26.443v1.668c0 9.575 5.583 17.282 17.146 17.282h6.93c15.133 0 17.837-11.322 17.837-17.282v-1.668c0 5.96-2.704 17.282-17.837 17.282h-6.93c-11.563 0-17.146-7.708-17.146-17.282z" opacity="1" fill="url(#linearGradient4160)" fill-opacity="1" stroke="none" stroke-width="1.1" stroke-linecap="square" stroke-linejoin="bevel" stroke-miterlimit="4" stroke-dasharray="none" stroke-dashoffset="0" stroke-opacity=".078"/><path id="rect4144" d="M19.046 2.965h8.495c13.908 0 16.805 11.246 16.805 17.282v7.123c0 5.96-2.704 17.282-17.837 17.282h-6.93c-11.562 0-17.146-7.708-17.146-17.282v-7.123c0-9.575 5.47-17.282 16.613-17.282z" opacity="1" fill="#f60" fill-opacity="1" stroke="#000" stroke-width=".334" stroke-linecap="square" stroke-linejoin="bevel" stroke-miterlimit="4" stroke-dasharray="none" stroke-dashoffset="0" stroke-opacity=".078"/><path d="M17.654 11.498h11.47v13.523h5.736L23.39 35.839 11.919 25.02h5.735" id="path1249" fill="none" fill-opacity="1" fill-rule="nonzero" stroke="#ff0" stroke-width="1.392" stroke-miterlimit="4" stroke-dasharray="none" stroke-opacity="0"/><path d="M17.654 11.498H28.51v10.943h5.427l-10.854 8.754-10.855-8.754h5.427" id="path1249-5" fill="#e6e6e6" fill-opacity="1" fill-rule="nonzero" stroke="none" stroke-width="1.218"/><path id="path4740-3-9-9" d="M22.726 14.275v6.14a3.554 3.554 0 0 0-.972-.138c-1.61 0-2.917 1.009-2.917 2.25 0 1.242 1.308 2.251 2.917 2.251 1.61 0 2.917-1.009 2.917-2.25v-6.752h2.917v-1.5z" fill="#f60" fill-opacity="1" stroke-width=".619"/><path id="path6380" d="M12.922 34.304l20.164.006" fill="#ececec" stroke="#fff" stroke-width="2.551" stroke-linecap="butt" stroke-linejoin="miter" stroke-opacity="1"/></g></svg>