<svg xmlns:osb="http://www.openswatchbook.org/uri/2009/osb" xmlns="http://www.w3.org/2000/svg" xmlns:xlink="http://www.w3.org/1999/xlink" width="48" height="48" version="1.1" id="svg38"><defs id="defs22"><linearGradient id="linearGradient4488"><stop id="stop4490" offset="0" stop-color="#000" stop-opacity=".047"/><stop id="stop4492" offset="1" stop-color="#000" stop-opacity="0"/></linearGradient><style id="style4511"/><style id="style4511-26"/><style id="style4511-9"/><style id="style4552"/><style id="style4511-2"/><linearGradient xlink:href="#linearGradient4488" id="linearGradient4540" gradientUnits="userSpaceOnUse" gradientTransform="translate(-62.889 1.994) scale(.3038)" x1="288.112" y1="141.785" x2="287.575" y2="79.008"/><linearGradient osb:paint="solid" id="linearGradient5293"><stop id="stop5295" offset="0" stop-color="#9a89c0" stop-opacity="1"/></linearGradient><linearGradient id="linearGradient-3" y2="35.938" x2="14.458" y1="33.053" x1="14.458" gradientTransform="scale(1.8143 .55118)" gradientUnits="userSpaceOnUse"><stop id="stop550" offset="0%" stop-color="#D5FDAF"/><stop id="stop552" offset="100%" stop-color="#ABFA77"/></linearGradient></defs><style id="style4485" type="text/css"/><g id="g748" transform="matrix(1 0 0 1.0305 0 -.084)"><path d="M2.75 26.22v1.67c0 9.573 5.583 17.281 17.146 17.281h6.93c15.132 0 17.836-11.322 17.836-17.282v-1.668c0 5.96-2.704 17.282-17.836 17.282h-6.93C8.333 43.503 2.75 35.795 2.75 26.22z" id="path4516" opacity="1" fill="url(#linearGradient4540)" fill-opacity="1" stroke="none" stroke-width="1.1" stroke-linecap="square" stroke-linejoin="bevel" stroke-miterlimit="4" stroke-dasharray="none" stroke-dashoffset="0" stroke-opacity=".078"/><path d="M19.666 2.742h8.65c14.16 0 17.11 11.247 17.11 17.282v7.124c0 5.96-2.754 17.282-18.162 17.282h-7.056C8.435 44.43 2.75 36.722 2.75 27.148v-7.124c0-9.574 5.57-17.282 16.916-17.282z" id="path4518" opacity="1" fill="#4d4d4d" fill-opacity="1" stroke="#000" stroke-width=".337" stroke-linecap="square" stroke-linejoin="bevel" stroke-miterlimit="4" stroke-dasharray="none" stroke-dashoffset="0" stroke-opacity=".078"/><g id="图标形状" transform="translate(3.628 3.828)" fill="none" fill-rule="evenodd" stroke="none" stroke-width="1"><path id="Fill-6" fill="#f2987a" d="M6 19.808h5.233v-1.59H6z"/><path id="Fill-2" fill="#e20613" d="M6 28.006h5.233v-1.59H6z"/><path id="Fill-3" fill="#e20613" d="M6 25.886h5.233v-1.59H6z"/><path id="Fill-4" fill="#e20613" d="M6 23.907h5.233v-1.59H6z"/><path id="Fill-5" fill="#f2987a" d="M6 21.787h5.233v-1.59H6z"/><path id="Fill-7" fill="#f66748" d="M11.919 28.006h5.233v-1.59h-5.233z"/><path id="Fill-8" fill="#f77c3e" d="M11.919 25.886h5.233v-1.59h-5.233z"/><path id="Fill-9" fill="#f9b75b" d="M11.919 23.907h5.233v-1.59h-5.233z"/><path id="Fill-10" fill="#e5007e" d="M17.837 28.006h5.233v-1.59h-5.233z"/><path id="Fill-11" fill="#e5007e" d="M17.837 25.886h5.233v-1.59h-5.233z"/><path id="Fill-12" fill="#e5007e" d="M17.837 23.907h5.233v-1.59h-5.233z"/><path id="Fill-13" fill="#f19dc3" d="M17.837 21.787h5.233v-1.59h-5.233z"/><path id="Fill-14" fill="#f19dc3" d="M17.837 19.808h5.233v-1.59h-5.233z"/><path id="Fill-15" fill="#f19dc3" d="M17.837 17.689h5.233v-1.59h-5.233z"/><path id="Fill-16" fill="#f19dc3" d="M17.837 15.569h5.233v-1.59h-5.233z"/><path id="Fill-17" fill="#57e227" d="M23.615 28.006h5.233v-1.59h-5.233z"/><path id="Fill-18" fill="#62f23e" d="M23.615 25.886h5.233v-1.59h-5.233z"/><path id="Fill-19" fill="#78f64a" d="M23.615 23.907h5.233v-1.59h-5.233z"/><path id="Fill-20" fill="#c2f67e" d="M23.615 21.787h5.233v-1.59h-5.233z"/><path id="Fill-21" fill="url(#linearGradient-3)" d="M23.615 19.808h5.233v-1.59h-5.233z"/><path id="Fill-22" fill="#40bfef" d="M29.534 28.006h5.233v-1.59h-5.233z"/><path id="Fill-23" fill="#40bfef" d="M29.534 25.886h5.233v-1.59h-5.233z"/><path id="Fill-24" fill="#40bfef" d="M29.534 23.907h5.233v-1.59h-5.233z"/><path id="Fill-25" fill="#bce3f9" d="M29.534 21.787h5.233v-1.59h-5.233z"/><path id="Fill-26" fill="#bce3f9" d="M29.534 19.809h5.233v-1.59h-5.233z"/><path id="Fill-27" fill="#bce3f9" d="M29.534 17.688h5.233v-1.59h-5.233z"/><path id="Fill-28" fill="#bce3f9" d="M29.534 15.568h5.233v-1.59h-5.233z"/><path id="Fill-29" fill="#bce3f9" d="M29.534 13.59h5.233V12h-5.233z"/></g></g></svg>