<svg xmlns="http://www.w3.org/2000/svg" xmlns:xlink="http://www.w3.org/1999/xlink" width="48" height="48" version="1.1" id="svg38"><defs id="defs22"><linearGradient id="linearGradient4488"><stop id="stop4490" offset="0" stop-color="#000" stop-opacity=".047"/><stop id="stop4492" offset="1" stop-color="#000" stop-opacity="0"/></linearGradient><style id="style4511"/><style id="style4511-26"/><style id="style4511-9"/><style id="style4552"/><style id="style4511-2"/><linearGradient xlink:href="#linearGradient4488" id="linearGradient4546" gradientUnits="userSpaceOnUse" gradientTransform="matrix(.3038 0 0 .30687 -62.641 2.42)" x1="288.112" y1="141.785" x2="287.575" y2="79.008"/></defs><style id="style4485" type="text/css"/><path d="M2.997 26.892v1.685c0 9.671 5.584 17.457 17.146 17.457h6.93c15.133 0 17.837-11.437 17.837-17.457v-1.685c0 6.02-2.704 17.457-17.836 17.457h-6.93c-11.563 0-17.147-7.786-17.147-17.457z" id="path4528" opacity="1" fill="url(#linearGradient4546)" fill-opacity="1" stroke="none" stroke-width="1.106" stroke-linecap="square" stroke-linejoin="bevel" stroke-miterlimit="4" stroke-dasharray="none" stroke-dashoffset="0" stroke-opacity=".078"/><path d="M44.797 19.844v8.58c0 14.049-11.246 16.975-17.282 16.975h-7.123c-5.96 0-17.282-2.732-17.282-18.017v-7c0-11.68 7.708-17.32 17.282-17.32h7.123c9.575 0 17.282 5.526 17.282 16.782z" id="path4530" opacity="1" fill="#4d4d4d" fill-opacity="1" stroke="#000" stroke-width=".336" stroke-linecap="square" stroke-linejoin="bevel" stroke-miterlimit="4" stroke-dasharray="none" stroke-dashoffset="0" stroke-opacity=".078"/><path id="path3707" d="M34.34 4.121l-7.18 13.19.028.017a6.388 6.388 0 0 1 1.492 1.28 6.749 6.749 0 0 1 .767 1.09 6.98 6.98 0 0 1 .733 1.886 7.217 7.217 0 0 1 .186 1.638l14.427.11c.002-1.094.06-4.595-.173-6.317-.353-2.617-.836-3.998-1.658-5.636-.975-1.94-2.497-3.633-3.803-4.661-1.614-1.27-3.328-2.181-4.82-2.597z" style="marker:none" color="#000" display="inline" overflow="visible" visibility="visible" opacity="1" fill="#e8bf28" fill-opacity="1" fill-rule="nonzero" stroke="none" stroke-width="1.984"/><path id="path3709" d="M13.577 4.148c-1.638.53-3.564 1.58-5.124 2.935C7.178 8.19 6.31 9.223 5.19 11.18c-1.35 2.357-1.537 3.896-1.88 6.084-.298 1.898-.202 3.977-.202 5.958h14.43a7.262 7.262 0 0 1 .506-2.658 7.023 7.023 0 0 1 .613-1.195 6.8 6.8 0 0 1 .825-1.043 6.556 6.556 0 0 1 1.003-.847c.087-.056.175-.11.264-.161z" style="marker:none" color="#000" display="inline" overflow="visible" visibility="visible" opacity="1" fill="#e8bf28" fill-opacity="1" fill-rule="nonzero" stroke="none" stroke-width="1.984"/><path id="path975" d="M20.745 29.133l-8.059 14.78c1.714.687 3.158 1.114 4.912 1.336 1.695.216 4.555.152 6.355.152 1.799 0 3.837.07 5.648-.118 1.753-.183 4.123-.66 5.45-1.315l-7.894-14.84a6.324 6.324 0 0 1-.293.178 6.23 6.23 0 0 1-1.818.644 6.047 6.047 0 0 1-4.3-.817z" style="marker:none" color="#000" display="inline" overflow="visible" visibility="visible" opacity="1" fill="#e8bf28" fill-opacity="1" fill-rule="nonzero" stroke="none" stroke-width="1.984"/><path d="M27.961 23.222a4.009 4.265 0 1 1-8.017 0 4.009 4.265 0 1 1 8.017 0z" id="path3703" style="marker:none" color="#000" display="inline" overflow="visible" visibility="visible" opacity="1" fill="#e8bf28" fill-opacity="1" fill-rule="nonzero" stroke="none" stroke-width=".382"/></svg>