<svg xmlns:osb="http://www.openswatchbook.org/uri/2009/osb" xmlns="http://www.w3.org/2000/svg" xmlns:xlink="http://www.w3.org/1999/xlink" width="48" height="48" version="1.1" id="svg38"><defs id="defs22"><linearGradient id="linearGradient4488"><stop id="stop4490" offset="0" stop-color="#000" stop-opacity=".047"/><stop id="stop4492" offset="1" stop-color="#000" stop-opacity="0"/></linearGradient><style id="style4511"/><style id="style4511-26"/><style id="style4511-9"/><style id="style4552"/><style id="style4511-2"/><linearGradient xlink:href="#linearGradient4488" id="linearGradient4540" gradientUnits="userSpaceOnUse" gradientTransform="matrix(-.00052 .30406 -.2948 -.00054 45.95 -62.006)" x1="288.112" y1="141.785" x2="287.575" y2="79.008"/><linearGradient osb:paint="solid" id="linearGradient5293"><stop id="stop5295" offset="0" stop-color="#9a89c0" stop-opacity="1"/></linearGradient><style id="style4511-87"/><style id="style4511-26-7"/><style id="style4511-9-1"/><style id="style4552-53"/><style id="style4511-2-9"/><style id="style4511-8"/><style id="style4511-26-4"/><style id="style4511-9-8"/><style id="style4552-5"/><style id="style4511-2-5"/><style id="style4511-879"/><style id="style4511-26-76"/><style id="style4511-9-2"/><style id="style4552-8"/><style id="style4511-2-0"/><filter height="1.048" y="-.024" width="1.048" x="-.024" id="filter1229" color-interpolation-filters="sRGB"><feGaussianBlur id="feGaussianBlur1231" stdDeviation=".24"/></filter><filter height="1.12" y="-.06" width="1.12" x="-.06" id="filter966" color-interpolation-filters="sRGB"><feGaussianBlur id="feGaussianBlur968" stdDeviation="2"/></filter><filter height="1.051" y="-.026" width="1.045" x="-.023" id="filter1219" color-interpolation-filters="sRGB"><feGaussianBlur id="feGaussianBlur1221" stdDeviation=".792"/></filter></defs><style id="style4485" type="text/css"/><style type="text/css" id="style4485-7"/><style id="style4485-6" type="text/css"/><style type="text/css" id="style4485-3"/><path id="path4516" d="M22.328 3.645l-1.619-.003c-9.29-.017-16.78 5.557-16.8 17.13l-.012 6.936C3.871 42.853 14.854 45.58 20.637 45.59l1.62.003c-5.784-.01-16.767-2.737-16.74-17.882l.011-6.936c.02-11.573 7.51-17.147 16.8-17.13z" opacity="1" fill="url(#linearGradient4540)" fill-opacity="1" stroke="none" stroke-width="1.084" stroke-linecap="square" stroke-linejoin="bevel" stroke-miterlimit="4" stroke-dasharray="none" stroke-dashoffset="0" stroke-opacity=".078"/><path d="M45.083 20.314c.02-11.152-7.45-16.641-16.741-16.658l-4.166-.008-.072 41.948 4.166.008c5.857.01 16.775-2.869 16.799-16.789z" id="path4518" opacity="1" fill="#4d4d4d" fill-opacity="1" stroke="#000" stroke-width=".329" stroke-linecap="square" stroke-linejoin="bevel" stroke-miterlimit="4" stroke-dasharray="none" stroke-dashoffset="0" stroke-opacity=".078"/><path d="M3.23 28.96c-.005 11.152 7.472 16.63 16.763 16.634l4.166.002.017-41.947-4.166-.002C14.153 3.644 3.24 6.539 3.233 20.458z" id="path4518-7" opacity="1" fill="#4d4d4d" fill-opacity="1" stroke="#000" stroke-width=".329" stroke-linecap="square" stroke-linejoin="bevel" stroke-miterlimit="4" stroke-dasharray="none" stroke-dashoffset="0" stroke-opacity=".078"/><path id="path4518-0" d="M6.145 28.36v-7.392c0-12.102 9.693-14.623 14.895-14.623h6.139c5.136 0 14.895 2.353 14.895 15.52v6.031c0 10.061-6.643 14.92-14.895 14.92h-6.14c-8.25 0-14.894-4.76-14.894-14.456z" opacity="1" fill="#666" fill-opacity="1" stroke="#000" stroke-width=".289" stroke-linecap="square" stroke-linejoin="bevel" stroke-miterlimit="4" stroke-dasharray="none" stroke-dashoffset="0" stroke-opacity=".078"/><path id="path945" d="M-37.652 5.984h13.817c6.646 0 9.65.69 10.736 1.755 1.086 1.064 1.79 4.003 1.79 10.518v10.657c0 6.514-.704 9.454-1.79 10.518-1.086 1.065-4.09 1.755-10.736 1.755h-13.817c-6.647 0-9.65-.69-10.736-1.755-1.087-1.064-1.79-4.004-1.79-10.518V18.257c0-6.515.703-9.454 1.79-10.518 1.086-1.065 4.09-1.755 10.736-1.755z" style="line-height:normal;font-variant-ligatures:normal;font-variant-position:normal;font-variant-caps:normal;font-variant-numeric:normal;font-variant-alternates:normal;font-feature-settings:normal;text-indent:0;text-align:start;text-decoration-line:none;text-decoration-style:solid;text-decoration-color:#000;text-transform:none;text-orientation:mixed;white-space:normal;shape-padding:0;isolation:auto;mix-blend-mode:normal;solid-color:#000;solid-opacity:1" color="#000" font-style="normal" font-variant="normal" font-weight="400" font-stretch="normal" font-size="medium" font-family="sans-serif" text-decoration="none" letter-spacing="normal" word-spacing="normal" writing-mode="lr-tb" direction="ltr" dominant-baseline="auto" baseline-shift="baseline" text-anchor="start" clip-rule="nonzero" display="inline" overflow="visible" visibility="visible" opacity=".2" color-interpolation="sRGB" color-interpolation-filters="linearRGB" vector-effect="none" fill="none" fill-opacity="1" fill-rule="nonzero" stroke="#fff" stroke-width=".37" stroke-linecap="round" stroke-linejoin="round" stroke-miterlimit="4" stroke-dasharray="none" stroke-dashoffset="0" stroke-opacity="1" color-rendering="auto" image-rendering="auto" shape-rendering="auto" text-rendering="auto" enable-background="accumulate"/><g id="g2574" transform="matrix(1.0982 0 0 1.12297 -1.98 -5.009)" stroke-linejoin="miter" stroke-miterlimit="4" stroke-dasharray="none" stroke-opacity="1"><path transform="matrix(.18687 0 0 .18335 .29 2.713)" id="path1197" d="M163.851 131.54a4 4 0 0 0-2.178.563l-28.312 16.346a12 12 0 0 0-7.793-2.881 12 12 0 0 0-7.785 2.887l-28.32-16.352a4 4 0 0 0-1.899-.56 4 4 0 0 0-2.101 7.49l28.314 16.346a12 12 0 0 0-.209 2.189 12 12 0 0 0 8 11.299v32.701a4 4 0 1 0 8 0v-32.701a12 12 0 0 0 8-11.299 12 12 0 0 0-.207-2.19l28.312-16.345a4 4 0 0 0-1.822-7.492z" style="line-height:normal;font-variant-ligatures:normal;font-variant-position:normal;font-variant-caps:normal;font-variant-numeric:normal;font-variant-alternates:normal;font-feature-settings:normal;text-indent:0;text-align:start;text-decoration-line:none;text-decoration-style:solid;text-decoration-color:#000;text-transform:none;text-orientation:mixed;white-space:normal;shape-padding:0;isolation:auto;mix-blend-mode:normal;solid-color:#000;solid-opacity:1" color="#000" font-style="normal" font-variant="normal" font-weight="400" font-stretch="normal" font-size="medium" font-family="sans-serif" text-decoration="none" letter-spacing="normal" word-spacing="normal" writing-mode="lr-tb" direction="ltr" dominant-baseline="auto" baseline-shift="baseline" text-anchor="start" clip-rule="nonzero" display="inline" overflow="visible" visibility="visible" opacity=".1" color-interpolation="sRGB" color-interpolation-filters="linearRGB" vector-effect="none" fill="#000" fill-opacity="1" fill-rule="evenodd" stroke="none" stroke-width="8" stroke-linecap="round" stroke-dashoffset="0" filter="url(#filter1219)" color-rendering="auto" image-rendering="auto" shape-rendering="auto" text-rendering="auto" enable-background="accumulate"/><g transform="matrix(.18687 0 0 .18335 -4.649 -5.434)" id="g932" display="inline" fill="none" fill-rule="evenodd" stroke="#cdcdcd" stroke-width="8" stroke-linecap="round"><path id="path908" d="M152 244v-44"/><path id="path914" d="M152 200l-38.105-22"/><path id="path922" d="M190.105 178L152 200"/></g><circle transform="matrix(.18687 0 0 .18335 .29 2.713)" cy="157.568" cx="125.568" id="circle1223" r="12" display="inline" opacity=".1" fill="#000" fill-opacity="1" stroke="none" stroke-width="3" stroke-linecap="butt" stroke-dashoffset="1" filter="url(#filter1229)" enable-background="new"/><ellipse ry="2.2" rx="2.242" id="circle904" cx="23.756" cy="31.236" display="inline" opacity="1" fill="#e6e6e6" fill-opacity="1" stroke="none" stroke-width=".555" stroke-linecap="butt" stroke-dashoffset="1" enable-background="new"/><ellipse ry="1.467" rx="1.495" cy="31.236" cx="23.756" id="circle934" display="inline" opacity="1" fill="#fff" fill-opacity="1" stroke="none" stroke-width=".555" stroke-linecap="butt" stroke-dashoffset="1" enable-background="new"/></g><g id="g2582" transform="translate(.353)" fill-opacity="1" stroke="none" stroke-linecap="butt" stroke-linejoin="miter" stroke-miterlimit="4" stroke-dasharray="none" stroke-dashoffset="1" stroke-opacity="1"><circle transform="matrix(.18687 0 0 .18335 .29 2.713)" id="circle964" cx="125.568" cy="77.568" r="40" display="inline" opacity=".1" fill="#000" stroke-width="3" filter="url(#filter966)" enable-background="new"/><ellipse ry="7.334" rx="7.475" cy="16.568" cx="23.756" id="path898" display="inline" opacity="1" fill="#fff" stroke-width=".555" enable-background="new"/><ellipse ry="6.234" rx="6.354" id="circle900" cx="23.756" cy="16.568" display="inline" opacity="1" fill="#cdcdcd" stroke-width=".555" enable-background="new"/><ellipse ry="5.134" rx="5.232" id="circle936" cx="23.756" cy="16.568" display="inline" opacity="1" fill="#666" stroke-width=".555" enable-background="new"/><path id="circle938" d="M23.756 11.434l-1.112 1.638a3.737 3.667 0 0 0-2.625 3.496 3.737 3.667 0 0 0 3.737 3.667 3.737 3.667 0 0 0 3.738-3.667 3.737 3.667 0 0 0-2.629-3.501z" display="inline" opacity="1" fill="#f7f7f7" stroke-width=".555" enable-background="new"/><path d="M23.756 12.461l-.89 1.31a2.99 2.934 0 0 0-2.1 2.797 2.99 2.934 0 0 0 2.99 2.934 2.99 2.934 0 0 0 2.99-2.934 2.99 2.934 0 0 0-2.103-2.801z" id="path971" display="inline" opacity="1" fill="#fff" stroke-width=".555" enable-background="new"/></g></svg>