<svg xmlns="http://www.w3.org/2000/svg" xmlns:xlink="http://www.w3.org/1999/xlink" width="48" height="48" version="1.1" id="svg38"><defs id="defs22"><linearGradient id="linearGradient3764" x1="1" x2="47" gradientUnits="userSpaceOnUse" gradientTransform="rotate(-90 -13.923 65.898)"><stop stop-color="#e4e4e4" stop-opacity="1" id="stop1281"/><stop offset="1" stop-color="#eee" stop-opacity="1" id="stop1283"/></linearGradient><linearGradient id="linearGradient4488"><stop id="stop4490" offset="0" stop-color="#000" stop-opacity=".047"/><stop id="stop4492" offset="1" stop-color="#000" stop-opacity="0"/></linearGradient><style id="style4511"/><style id="style4511-26"/><style id="style4511-9"/><style id="style4552"/><style id="style4511-2"/><linearGradient xlink:href="#linearGradient4488" id="linearGradient4544" gradientUnits="userSpaceOnUse" gradientTransform="translate(-62.887 1.994) scale(.3038)" x1="288.112" y1="141.785" x2="287.575" y2="79.008"/><linearGradient xlink:href="#linearGradient3764" id="linearGradient1292" x1="2.585" y1="23.586" x2="44.832" y2="23.586" gradientUnits="userSpaceOnUse"/><linearGradient id="linearGradient3650-7-9"><stop id="stop4366" offset="0" stop-color="#5884f4" stop-opacity="1"/><stop offset="1" id="stop4368" stop-color="#80a3fa" stop-opacity="1"/></linearGradient><radialGradient r="17.375" fy="21.664" fx="156.366" cy="21.664" cx="156.366" gradientTransform="matrix(0 4.02038 -4.0807 0 121.873 -400.516)" gradientUnits="userSpaceOnUse" id="radialGradient4101" xlink:href="#linearGradient3650-7-9"/></defs><style id="style4485" type="text/css"/><path id="path4524" d="M2.752 26.22v1.67c0 9.573 5.583 17.281 17.146 17.281h6.93c15.133 0 17.837-11.322 17.837-17.282v-1.668c0 5.96-2.704 17.282-17.837 17.282h-6.93c-11.563 0-17.146-7.708-17.146-17.282z" opacity="1" fill="url(#linearGradient4544)" fill-opacity="1" stroke="none" stroke-width="1.1" stroke-linecap="square" stroke-linejoin="bevel" stroke-miterlimit="4" stroke-dasharray="none" stroke-dashoffset="0" stroke-opacity=".078"/><path id="path4526" d="M19.365 2.742h8.495c13.908 0 16.805 11.247 16.805 17.282v7.124c0 5.96-2.705 17.282-17.837 17.282h-6.93c-11.563 0-17.146-7.708-17.146-17.282v-7.124c0-9.574 5.47-17.282 16.613-17.282z" opacity="1" fill="url(#linearGradient1292)" fill-opacity="1" stroke="#000" stroke-width=".334" stroke-linecap="square" stroke-linejoin="bevel" stroke-miterlimit="4" stroke-dasharray="none" stroke-dashoffset="0" stroke-opacity=".078"/><g id="g1349" transform="matrix(.89384 0 0 1.01682 52.216 -2.5)"><g transform="matrix(.62484 0 0 .6224 -52.993 -139.385)" id="g920" fill-opacity="1" stroke="none"><path id="path925" d="M35.563 232.428h-3.991c-5.02 7.334-9.872 14.79-14.78 22.198-1.498 2.573-2.884 4.826-3.836 7.254a17.506 17.506 0 0 0-.928 5.619c0 10.972 10.187 19.876 22.765 19.876 12.577 0 22.763-8.904 22.763-19.876-.048-2.402-.55-4.469-1.137-6.164-1.179-3.146-3.898-6.276-5.565-8.847-4.95-6.79-10.32-13.284-15.29-20.06z" style="marker:none" color="#000" display="inline" overflow="visible" visibility="visible" fill="url(#radialGradient4101)" stroke-width=".507"/><path id="path4042" d="M23.868 243.91c-2.362 3.571-4.713 7.149-7.076 10.716-.75 1.287-1.47 2.493-2.123 3.682a39.216 39.216 0 0 0-.923 1.777 25.331 25.331 0 0 0-.79 1.795 17.416 17.416 0 0 0-.81 7.65 17.51 17.51 0 0 0 .905 3.877 18.374 18.374 0 0 0 1.724 3.563c.35.564.73 1.111 1.14 1.64.409.528.846 1.04 1.31 1.53a22.026 22.026 0 0 0 3.085 2.694c.562.406 1.147.788 1.753 1.145a23.599 23.599 0 0 0 3.867 1.833 24.793 24.793 0 0 0 4.273 1.16 25.812 25.812 0 0 0 4.59.403 26.343 26.343 0 0 0 4.589-.404 25.302 25.302 0 0 0 4.273-1.159 23.599 23.599 0 0 0 3.867-1.833c.437-.258.85-.543 1.264-.825-5.94-1.604-13.053-3.858-17.283-6.552a.19.19 0 0 1-.012-.005c-7.199-5.293-8.944-12.42-6.691-17.783 2.252-5.363 8.494-8.928 17.078-7.168 2.329.477 4.64 2.998 6.411 5.38a38.356 38.356 0 0 1 2.33 3.519c-.282-1.255-.837-3.445-2.178-6.386-1.84-4.039-4.884-8.493-9.667-10.234-1.66-.604-3.67-.85-5.705-.89a34.709 34.709 0 0 0-2.03.022 44.61 44.61 0 0 0-7.17.853z" display="inline" fill="#8ab4ff" stroke-width="1.409"/></g></g></svg>