<svg xmlns="http://www.w3.org/2000/svg" xmlns:xlink="http://www.w3.org/1999/xlink" width="48" height="48" version="1.1" id="svg38"><defs id="defs22"><linearGradient id="linearGradient4488"><stop id="stop4490" offset="0" stop-color="#000" stop-opacity=".047"/><stop id="stop4492" offset="1" stop-color="#000" stop-opacity="0"/></linearGradient><style id="style4511"/><style id="style4511-26"/><style id="style4511-9"/><style id="style4552"/><style id="style4511-2"/><linearGradient gradientTransform="translate(-63.205 2.216) scale(.3038)" xlink:href="#linearGradient4488" id="linearGradient4160" x1="288.112" y1="141.785" x2="287.575" y2="79.008" gradientUnits="userSpaceOnUse"/></defs><style id="style4485" type="text/css"/><path d="M19.046 2.965h8.495c13.908 0 16.805 11.246 16.805 17.282v7.123c0 5.96-2.704 17.282-17.837 17.282h-6.93c-11.562 0-17.146-7.708-17.146-17.282v-7.123c0-9.575 5.47-17.282 16.613-17.282z" id="rect4144" opacity="1" fill="#316de6" fill-opacity="1" stroke="#000" stroke-width=".334" stroke-linecap="square" stroke-linejoin="bevel" stroke-miterlimit="4" stroke-dasharray="none" stroke-dashoffset="0" stroke-opacity=".078"/><path d="M2.433 26.443v1.668c0 9.575 5.583 17.282 17.146 17.282h6.93c15.133 0 17.837-11.322 17.837-17.282v-1.668c0 5.96-2.704 17.282-17.837 17.282h-6.93c-11.563 0-17.146-7.708-17.146-17.282z" id="path4147" opacity="1" fill="url(#linearGradient4160)" fill-opacity="1" stroke="none" stroke-width="1.1" stroke-linecap="square" stroke-linejoin="bevel" stroke-miterlimit="4" stroke-dasharray="none" stroke-dashoffset="0" stroke-opacity=".078"/><path id="path3775" d="M32.11 10.607c-5.868 0-6.969 8.358-3.668 8.358 3.3 0 9.535-8.358 3.668-8.358z" fill="#fff" fill-opacity="1" fill-rule="nonzero" stroke="none" stroke-width=".082"/><path id="path3777" d="M22.366 17.929c1.758.107 3.686-6.707.383-6.279-3.302.429-2.14 6.172-.383 6.279z" fill="#fff" fill-opacity="1" fill-rule="nonzero" stroke="none" stroke-width=".082"/><path id="path3779" d="M14.312 22.163c1.25-.55.16-5.932-1.965-4.464-2.124 1.468.715 5.014 1.965 4.464z" fill="#fff" fill-opacity="1" fill-rule="nonzero" stroke="none" stroke-width=".082"/><path id="path3781" d="M17.834 19.347c1.488-.304 1.57-6.408-1.084-5.313-2.654 1.095-.403 5.616 1.084 5.313z" fill="#fff" fill-opacity="1" fill-rule="nonzero" stroke="none" stroke-width=".082"/><path id="path3783" d="M25.604 33.006c.264 2.016-1.48 3.012-3.187 1.712-5.434-4.138 8.999-6.202 8.048-11.855-.79-4.692-15.187-3.248-16.827 4.094-1.11 4.966 4.568 11.856 10.493 11.856 2.914 0 6.276-2.632 6.905-5.966.48-2.542-5.652-1.523-5.432.159z" fill="#fff" fill-opacity="1" fill-rule="nonzero" stroke="none" stroke-width=".082"/></svg>