<svg xmlns:osb="http://www.openswatchbook.org/uri/2009/osb" xmlns="http://www.w3.org/2000/svg" xmlns:xlink="http://www.w3.org/1999/xlink" width="48" height="48" version="1.1" id="svg38"><defs id="defs22"><style id="style4511"/><style id="style4511-26"/><style id="style4511-9"/><style id="style4552"/><style id="style4511-2"/><linearGradient osb:paint="solid" id="linearGradient5293"><stop id="stop5295" offset="0" stop-color="#9a89c0" stop-opacity="1"/></linearGradient><linearGradient gradientTransform="matrix(.40735 0 0 .40637 -34.054 3.839)" gradientUnits="userSpaceOnUse" xlink:href="#linearGradient3889" id="linearGradient3919" y2="49" x2="54" y1="49" x1="42"/><linearGradient id="linearGradient3889"><stop offset="0" id="stop3891" stop-color="#464646" stop-opacity="1"/><stop offset="1" id="stop3893" stop-color="#464646" stop-opacity="0"/></linearGradient><linearGradient id="linearGradient3825"><stop offset="0" id="stop3827" stop-color="#000" stop-opacity="1"/><stop offset=".6" id="stop3833" stop-color="#000" stop-opacity="1"/><stop offset="1" id="stop3829" stop-color="#000" stop-opacity="0"/></linearGradient><linearGradient spreadMethod="reflect" gradientTransform="rotate(90 -77.03 149.995) scale(.74912)" gradientUnits="userSpaceOnUse" xlink:href="#linearGradient3825" id="linearGradient3862-3" y2="8" x2="15" y1="48" x1="15"/><linearGradient spreadMethod="reflect" gradientTransform="translate(2.923 224.777) scale(.74912)" gradientUnits="userSpaceOnUse" xlink:href="#linearGradient3825" id="linearGradient3831-3" y2="8" x2="15" y1="48" x1="15"/></defs><style id="style4485" type="text/css"/><g id="g749" fill-opacity="1"><g transform="matrix(1.00785 0 0 1 -.022 .165)" id="g698"><path id="path4518" d="M19.363 2.742h8.495c13.908 0 16.804 11.247 16.804 17.282v7.124c0 5.96-2.704 17.282-17.836 17.282h-6.93C8.333 44.43 2.75 36.722 2.75 27.148v-7.124c0-9.574 5.47-17.282 16.613-17.282z" opacity="1" fill="#e6e6e6" stroke="#000" stroke-width=".334" stroke-linecap="square" stroke-linejoin="bevel" stroke-miterlimit="4" stroke-dasharray="none" stroke-dashoffset="0" stroke-opacity=".078"/><g transform="matrix(.62532 0 0 .58241 .332 -128.563)" id="g924" color="#000" font-style="normal" font-variant="normal" font-weight="400" font-stretch="normal" font-size="medium" font-family="Sans" letter-spacing="normal" word-spacing="normal" writing-mode="lr-tb" direction="ltr" text-anchor="start" visibility="visible" stroke="none" stroke-width=".749"><path d="M14.16 230.77v59.93h.75v-59.93zm7.491 0v59.93h.75v-59.93zm7.491 0v59.93h.75v-59.93zm7.492 0v59.93h.749v-59.93zm7.49 0v59.93h.75v-59.93zm7.492 0v59.93h.75v-59.93zm7.491 0v59.93h.75v-59.93z" id="path3811" style="line-height:normal;-inkscape-font-specification:Sans;text-indent:0;text-align:start;text-decoration-line:none;text-transform:none;marker:none" text-decoration="none" baseline-shift="baseline" display="inline" overflow="visible" opacity=".1" fill="url(#linearGradient3831-3)"/><path d="M66.973 238.261H7.043v.75h59.93zm0 7.492H7.043v.749h59.93zm0 7.49H7.043v.75h59.93zm0 7.492H7.043v.75h59.93zm0 7.491H7.043v.75h59.93zm0 7.491H7.043v.75h59.93zm0 7.492H7.043v.749h59.93z" id="path3860" style="line-height:normal;-inkscape-font-specification:Sans;text-indent:0;text-align:start;text-decoration-line:none;text-transform:none;marker:none" text-decoration="none" baseline-shift="baseline" display="inline" overflow="visible" opacity=".1" fill="url(#linearGradient3862-3)"/></g></g><path style="marker:none" id="path3903" d="M16.13 13.592v2.45h9.777c4.098 0 7.32 3.215 7.32 7.303s-3.222 7.302-7.32 7.302h-9.776v2.45h9.776c5.417 0 9.777-4.35 9.777-9.752 0-5.403-4.36-9.753-9.777-9.753z" color="#000" display="inline" overflow="visible" visibility="visible" fill="#282828" fill-rule="nonzero" stroke="none" stroke-width=".407"/><path style="marker:none" id="rect3905" color="#000" display="inline" overflow="visible" visibility="visible" fill="#282828" fill-rule="nonzero" stroke="none" stroke-width=".407" d="M17.76 11.154h.815v23.569h-.815z"/><path style="marker:none" id="rect3907" transform="scale(-1 1)" color="#000" display="inline" overflow="visible" visibility="visible" fill="url(#linearGradient3919)" fill-rule="nonzero" stroke="none" stroke-width=".407" d="M-28.351 23.345h16.294v.813h-16.294z"/><path style="marker:none" id="path3909" d="M31.61 23.751l-3.259 1.626v-3.251z" color="#000" display="inline" overflow="visible" visibility="visible" fill="#282828" fill-rule="nonzero" stroke="none" stroke-width=".505"/><path style="marker:none" id="path3911" d="M18.168 37.974l-1.63-3.251h3.26z" color="#000" display="inline" overflow="visible" visibility="visible" fill="#282828" fill-rule="nonzero" stroke="none" stroke-width=".505"/><path style="marker:none" id="rect3913" color="#000" display="inline" overflow="visible" visibility="visible" fill="#282828" fill-rule="nonzero" stroke="none" stroke-width=".407" d="M16.946 9.528h2.444v2.438h-2.444z"/><path style="marker:none" id="rect3915" color="#000" display="inline" overflow="visible" visibility="visible" fill="#ff2a2a" fill-rule="nonzero" stroke="none" stroke-width=".407" d="M17.353 9.935h1.629v1.625h-1.629z"/><path style="marker:none" id="path3917" d="M23.463 19.281l4.074 8.127H19.39z" color="#000" display="inline" overflow="visible" visibility="visible" fill="#c83737" fill-rule="nonzero" stroke="none" stroke-width="1.262"/></g></svg>