<svg xmlns="http://www.w3.org/2000/svg" xmlns:xlink="http://www.w3.org/1999/xlink" width="48" height="48" version="1.1" id="svg38"><defs id="defs22"><linearGradient id="linearGradient4488"><stop id="stop4490" offset="0" stop-color="#000" stop-opacity=".047"/><stop id="stop4492" offset="1" stop-color="#000" stop-opacity="0"/></linearGradient><style id="style4511"/><style id="style4511-26"/><style id="style4511-9"/><style id="style4552"/><style id="style4511-2"/><linearGradient xlink:href="#linearGradient4488" id="linearGradient4548" gradientUnits="userSpaceOnUse" gradientTransform="translate(-62.55 1.994) scale(.3038)" x1="288.112" y1="141.785" x2="287.575" y2="79.008"/></defs><style id="style4485" type="text/css"/><path id="path4532" d="M3.088 26.22v1.67c0 9.573 5.583 17.281 17.146 17.281h6.93c15.133 0 17.837-11.322 17.837-17.282v-1.668c0 5.96-2.704 17.282-17.837 17.282h-6.93c-11.563 0-17.146-7.708-17.146-17.282z" opacity="1" fill="url(#linearGradient4548)" fill-opacity="1" stroke="none" stroke-width="1.1" stroke-linecap="square" stroke-linejoin="bevel" stroke-miterlimit="4" stroke-dasharray="none" stroke-dashoffset="0" stroke-opacity=".078"/><path id="path4534" d="M19.701 2.742h8.495c13.908 0 16.805 11.247 16.805 17.282v7.124c0 5.96-2.704 17.282-17.837 17.282h-6.93c-11.562 0-17.146-7.708-17.146-17.282v-7.124c0-9.574 5.47-17.282 16.613-17.282z" opacity="1" fill="#5f6786" fill-opacity="1" stroke="#000" stroke-width=".334" stroke-linecap="square" stroke-linejoin="bevel" stroke-miterlimit="4" stroke-dasharray="none" stroke-dashoffset="0" stroke-opacity=".078"/><path d="M16.748 23.582v-9.777l5.964.022c5.463.02 5.998.031 6.373.142 1.186.35 1.792.965 2.13 2.165.119.418.126.863.126 7.45 0 6.518-.008 7.037-.122 7.45-.18.658-.378 1.02-.763 1.405-.375.376-.735.575-1.37.76-.366.106-.86.122-4.529.143l-4.118.025v-1.17l3.879-.001c4.19 0 4.284-.008 4.903-.37.349-.205.58-.483.802-.966l.156-.338.022-6.63c.016-4.706 0-6.76-.055-7.078-.139-.805-.526-1.309-1.27-1.652l-.337-.155-5.349-.02-5.348-.019V33.36h-1.094v-9.777z" id="path14525" opacity="1" fill="#fff" fill-opacity="1" stroke="none" stroke-width=".334" stroke-linecap="round" stroke-linejoin="miter" stroke-miterlimit="4" stroke-dasharray="none" stroke-opacity="1"/></svg>