<svg xmlns="http://www.w3.org/2000/svg" xmlns:xlink="http://www.w3.org/1999/xlink" width="48" height="48" version="1.1" id="svg38"><defs id="defs22"><linearGradient id="linearGradient4488"><stop id="stop4490" offset="0" stop-color="#000" stop-opacity=".047"/><stop id="stop4492" offset="1" stop-color="#000" stop-opacity="0"/></linearGradient><style id="style4511"/><style id="style4511-26"/><style id="style4511-9"/><style id="style4552"/><style id="style4511-2"/><linearGradient xlink:href="#linearGradient4488" id="linearGradient4536" gradientUnits="userSpaceOnUse" gradientTransform="translate(-63.133 1.994) scale(.3038)" x1="288.112" y1="141.785" x2="287.575" y2="79.008"/><linearGradient x2="47" x1="1" gradientTransform="rotate(-90 -8.211 48.359)" gradientUnits="userSpaceOnUse" id="linearGradient3843-3"><stop id="stop1149" stop-color="#5c6149" stop-opacity="1"/><stop id="stop1151" offset="1" stop-color="#676c52" stop-opacity="1"/></linearGradient><radialGradient xlink:href="#linearGradient3843-3" id="radialGradient1208" cx="23.462" cy="23.586" fx="23.462" fy="23.586" r="21.123" gradientTransform="matrix(1 0 0 .99467 0 .126)" gradientUnits="userSpaceOnUse"/></defs><style id="style4485" type="text/css"/><path id="path4508" d="M2.506 26.22v1.67c0 9.573 5.583 17.281 17.146 17.281h6.93c15.133 0 17.837-11.322 17.837-17.282v-1.668c0 5.96-2.704 17.282-17.837 17.282h-6.93c-11.563 0-17.146-7.708-17.146-17.282z" opacity="1" fill="url(#linearGradient4536)" fill-opacity="1" stroke="none" stroke-width="1.1" stroke-linecap="square" stroke-linejoin="bevel" stroke-miterlimit="4" stroke-dasharray="none" stroke-dashoffset="0" stroke-opacity=".078"/><path id="path4510" d="M19.12 2.742h8.494c13.908 0 16.805 11.247 16.805 17.282v7.124c0 5.96-2.705 17.282-17.837 17.282h-6.93c-11.563 0-17.146-7.708-17.146-17.282v-7.124c0-9.574 5.47-17.282 16.613-17.282z" opacity="1" fill="url(#radialGradient1208)" fill-opacity="1" stroke="#000" stroke-width=".334" stroke-linecap="square" stroke-linejoin="bevel" stroke-miterlimit="4" stroke-dasharray="none" stroke-dashoffset="0" stroke-opacity=".078"/><path d="M22.418 12.726l-3.133 3.062v1.02l3.133 3.062h1.044l3.133-3.062v-1.02l-3.133-3.062zm.522 2.551l1.044 1.02-1.044 1.021-1.044-1.02zm-6.787 3.572v5.103H13.02l-3.133 3.062v7.143h9.398V18.85zm16.708 3.04l-6.266.022v12.246h3.133v-9.205l2.088.021 2.089 2.042v7.143h3.133v-8.184L32.86 21.89zm-11.487.022v12.246h3.133V21.911zm-7.31 5.103h2.089v4.082H13.02v-3.062z" style="white-space:normal;isolation:auto;mix-blend-mode:normal;solid-color:#000;solid-opacity:1" id="path1172" color="#000" display="inline" visibility="visible" opacity="1" color-interpolation="sRGB" color-interpolation-filters="linearRGB" fill="#f4f8cd" fill-opacity="1" fill-rule="evenodd" stroke="none" stroke-width="1.032" color-rendering="auto" image-rendering="auto" shape-rendering="auto"/></svg>