<svg xmlns="http://www.w3.org/2000/svg" xmlns:xlink="http://www.w3.org/1999/xlink" width="48" height="48" version="1.1" id="svg38"><defs id="defs22"><linearGradient id="linearGradient4488"><stop id="stop4490" offset="0" stop-color="#000" stop-opacity=".047"/><stop id="stop4492" offset="1" stop-color="#000" stop-opacity="0"/></linearGradient><style id="style4511"/><style id="style4511-26"/><style id="style4511-9"/><style id="style4552"/><style id="style4511-2"/><linearGradient xlink:href="#linearGradient4488" id="linearGradient4471" gradientUnits="userSpaceOnUse" gradientTransform="translate(-62.47 2.216) scale(.3038)" x1="288.112" y1="141.785" x2="287.575" y2="79.008"/></defs><style id="style4485" type="text/css"/><path d="M3.168 26.443v1.668c0 9.575 5.583 17.282 17.146 17.282h6.93c15.132 0 17.836-11.322 17.836-17.282v-1.668c0 5.96-2.704 17.282-17.836 17.282h-6.93c-11.563 0-17.146-7.708-17.146-17.282z" id="path4467" opacity="1" fill="url(#linearGradient4471)" fill-opacity="1" stroke="none" stroke-width="1.1" stroke-linecap="square" stroke-linejoin="bevel" stroke-miterlimit="4" stroke-dasharray="none" stroke-dashoffset="0" stroke-opacity=".078"/><path d="M19.781 2.965h8.495c13.908 0 16.805 11.246 16.805 17.282v7.123c0 5.96-2.705 17.282-17.837 17.282h-6.93c-11.563 0-17.146-7.708-17.146-17.282v-7.123c0-9.575 5.47-17.282 16.613-17.282z" id="path4469" opacity="1" fill="#198bf1" fill-opacity="1" stroke="#000" stroke-width=".334" stroke-linecap="square" stroke-linejoin="bevel" stroke-miterlimit="4" stroke-dasharray="none" stroke-dashoffset="0" stroke-opacity=".078"/><path id="Shape" d="M12.856 9.683c0 2.043.28 4.94 1.748 6.522.787.849 2.086 1.079 3.129 1.455 2.279.82 4.802 2.069 7.23 2.28l-3.194-.468-7.231-1.381c.016.729.163 1.342.438 2.018 1.808 4.441 6.172 3.531 10.156 3.531-1.502.456-3.156.51-4.709.72-.517.07-1.514.088-1.837.575-.545.821.996 1.95 1.501 2.36 2.206 1.793 4.41 1.45 6.894.38l-.84 4.205h2.69l-1.345 6.053 3.154-4.036 3.572-4.876h-3.531c1.158-2.177 2.584-4.207 3.736-6.39.505-.956 1.208-2.064.9-3.195-.482-1.761-3.625-2.535-5.14-3.055-4.164-1.428-8.195-3.101-12.276-4.738-1.593-.64-3.31-1.87-5.045-1.96z" fill="#fafefe" fill-rule="nonzero" stroke="none" stroke-width="1"/></svg>