<svg xmlns:osb="http://www.openswatchbook.org/uri/2009/osb" xmlns="http://www.w3.org/2000/svg" xmlns:xlink="http://www.w3.org/1999/xlink" width="48" height="48" version="1.1" id="svg38"><defs id="defs22"><linearGradient id="linearGradient4488"><stop id="stop4490" offset="0" stop-color="#000" stop-opacity=".047"/><stop id="stop4492" offset="1" stop-color="#000" stop-opacity="0"/></linearGradient><style id="style4511"/><style id="style4511-26"/><style id="style4511-9"/><style id="style4552"/><linearGradient id="b-5" y1="532.8" y2="506.8" x2="0" gradientUnits="userSpaceOnUse"><stop stop-color="#989a9b" id="stop7-629"/><stop offset="1" stop-color="#f6f6f7" id="stop9-12"/></linearGradient><style id="style4511-2"/><linearGradient xlink:href="#linearGradient4488" id="linearGradient4540" gradientUnits="userSpaceOnUse" gradientTransform="matrix(-.00052 .30406 -.2948 -.00054 45.95 -62.006)" x1="288.112" y1="141.785" x2="287.575" y2="79.008"/><linearGradient osb:paint="solid" id="linearGradient5293"><stop id="stop5295" offset="0" stop-color="#9a89c0" stop-opacity="1"/></linearGradient><style id="style4511-87"/><style id="style4511-26-7"/><style id="style4511-9-1"/><style id="style4552-53"/><style id="style4511-2-9"/><style id="style4511-8"/><style id="style4511-26-4"/><style id="style4511-9-8"/><style id="style4552-5"/><style id="style4511-2-5"/><style id="style4511-879"/><style id="style4511-26-76"/><style id="style4511-9-2"/><style id="style4552-8"/><style id="style4511-2-0"/><linearGradient xlink:href="#b-5" id="linearGradient2307" x1="17.77" y1="8.873" x2="30.012" y2="8.873" gradientUnits="userSpaceOnUse" gradientTransform="translate(.221 .265)"/></defs><style id="style4485" type="text/css"/><style type="text/css" id="style4485-7"/><style id="style4485-6" type="text/css"/><style type="text/css" id="style4485-3"/><path id="path4516" d="M22.328 3.645l-1.619-.003c-9.29-.017-16.78 5.557-16.8 17.13l-.012 6.936C3.871 42.853 14.854 45.58 20.637 45.59l1.62.003c-5.784-.01-16.767-2.737-16.74-17.882l.011-6.936c.02-11.573 7.51-17.147 16.8-17.13z" opacity="1" fill="url(#linearGradient4540)" fill-opacity="1" stroke="none" stroke-width="1.084" stroke-linecap="square" stroke-linejoin="bevel" stroke-miterlimit="4" stroke-dasharray="none" stroke-dashoffset="0" stroke-opacity=".078"/><path d="M45.083 20.314c.02-11.152-7.45-16.641-16.741-16.658l-4.166-.008-.072 41.948 4.166.008c5.857.01 16.775-2.869 16.799-16.789z" id="path4518" opacity="1" fill="#9d7a50" fill-opacity="1" stroke="#000" stroke-width=".329" stroke-linecap="square" stroke-linejoin="bevel" stroke-miterlimit="4" stroke-dasharray="none" stroke-dashoffset="0" stroke-opacity=".078"/><path d="M3.23 28.96c-.005 11.152 7.472 16.63 16.763 16.634l4.166.002.017-41.947-4.166-.002C14.153 3.644 3.24 6.539 3.233 20.458z" id="path4518-7" opacity="1" fill="#9d7a50" fill-opacity="1" stroke="#000" stroke-width=".329" stroke-linecap="square" stroke-linejoin="bevel" stroke-miterlimit="4" stroke-dasharray="none" stroke-dashoffset="0" stroke-opacity=".078"/><path id="path4518-0" d="M6.145 28.36v-7.392c0-12.102 9.693-14.623 14.895-14.623h6.139c5.136 0 14.895 2.353 14.895 15.52v6.031c0 10.061-6.643 14.92-14.895 14.92h-6.14c-8.25 0-14.894-4.76-14.894-14.456z" opacity=".77" fill="#e5b279" fill-opacity="1" stroke="#000" stroke-width=".289" stroke-linecap="square" stroke-linejoin="bevel" stroke-miterlimit="4" stroke-dasharray="none" stroke-dashoffset="0" stroke-opacity=".078"/><g id="g2315" transform="translate(-.138 -1.526)"><g transform="matrix(.925 0 0 .9473 82.363 -5.578)" id="g2299" stroke-width=".895"><rect width="25.113" height="25" x="16.99" y="50.5" rx="1.435" ry="1.429" transform="rotate(90)" id="rect2261" fill="#e4e4e4"/><path d="M-50.5 18.784v-.448a1.42 1.42 0 0 0-1.423-1.43h-22.153a1.42 1.42 0 0 0-1.424 1.43v.448c0-.795.632-1.43 1.423-1.43h22.154a1.42 1.42 0 0 1 1.423 1.43z" id="path2263" opacity=".4" fill="#fff"/><path d="M-75.5 40.668v.897c0 .796.637 1.435 1.428 1.435h22.143c.792 0 1.429-.64 1.429-1.435v-.897c0 .796-.637 1.435-1.429 1.435h-22.143c-.791 0-1.428-.64-1.428-1.435z" id="path2265" opacity=".2"/><path d="M-71.036 35.825v-1.794h10.715v1.794zm0-3.588v-1.793h16.072v1.793zm0-3.587v-1.794h16.072v1.794zm0-3.588V23.27h16.072v1.793z" id="path2267" opacity=".5"/></g><path d="M17.99 6.52v5.237h12.243V6.519m-12.242 0" id="path2423" fill="url(#linearGradient2307)" fill-opacity="1" fill-rule="nonzero" stroke="none" stroke-width="1.416"/></g></svg>