<svg xmlns:osb="http://www.openswatchbook.org/uri/2009/osb" xmlns="http://www.w3.org/2000/svg" xmlns:xlink="http://www.w3.org/1999/xlink" width="48" height="48" version="1.1" id="svg38"><defs id="defs22"><linearGradient id="linearGradient4488"><stop id="stop4490" offset="0" stop-color="#000" stop-opacity=".047"/><stop id="stop4492" offset="1" stop-color="#000" stop-opacity="0"/></linearGradient><style id="style4511"/><style id="style4511-26"/><style id="style4511-9"/><style id="style4552"/><style id="style4511-2"/><linearGradient xlink:href="#linearGradient4488" id="linearGradient4540" gradientUnits="userSpaceOnUse" gradientTransform="translate(-62.889 1.994) scale(.3038)" x1="288.112" y1="141.785" x2="287.575" y2="79.008"/><linearGradient osb:paint="solid" id="linearGradient5293"><stop id="stop5295" offset="0" stop-color="#9a89c0" stop-opacity="1"/></linearGradient><linearGradient gradientTransform="rotate(-90 -9.434 56.772)" gradientUnits="userSpaceOnUse" x2="47" x1="1" id="a-3675356"><stop id="stop1360" stop-color="#627ad6"/><stop id="stop1362" stop-color="#7289da" offset="1"/></linearGradient><linearGradient xlink:href="#a-3675356" id="linearGradient1425" x1="2.897" y1="23.784" x2="44.92" y2="23.784" gradientUnits="userSpaceOnUse"/></defs><style id="style4485" type="text/css"/><path id="path4516" d="M2.75 26.22v1.67c0 9.573 5.583 17.281 17.146 17.281h6.93c15.132 0 17.836-11.322 17.836-17.282v-1.668c0 5.96-2.704 17.282-17.836 17.282h-6.93C8.333 43.503 2.75 35.795 2.75 26.22z" opacity="1" fill="url(#linearGradient4540)" fill-opacity="1" stroke="none" stroke-width="1.1" stroke-linecap="square" stroke-linejoin="bevel" stroke-miterlimit="4" stroke-dasharray="none" stroke-dashoffset="0" stroke-opacity=".078"/><path id="path4518" d="M3.065 28.169v-8.577c0-14.042 11.247-16.967 17.282-16.967h7.123c5.96 0 17.282 2.73 17.282 18.009v6.997c0 11.674-7.707 17.312-17.282 17.312h-7.123c-9.574 0-17.282-5.523-17.282-16.774z" opacity="1" fill="url(#linearGradient1425)" fill-opacity="1" stroke="#000" stroke-width=".336" stroke-linecap="square" stroke-linejoin="bevel" stroke-miterlimit="4" stroke-dasharray="none" stroke-dashoffset="0" stroke-opacity=".078"/><path d="M20.37 14.435s-3.05-.068-6.256 2.337c0 0-3.205 5.81-3.205 12.978 0 0 1.869 3.227 6.789 3.383 0 0 .826-1 1.493-1.846-2.827-.846-3.896-2.626-3.896-2.626s.222.156.622.378c.022.022.044.044.089.066.067.045.134.067.2.112.558.312 1.114.557 1.626.757.913.356 2 .713 3.27.958 1.67.312 3.629.42 5.766.02a14.627 14.627 0 0 0 3.228-.958 12.728 12.728 0 0 0 2.56-1.313s-1.112 1.825-4.03 2.649a98.159 98.159 0 0 0 1.468 1.803c4.925-.16 6.815-3.383 6.815-3.383 0-7.168-3.205-12.978-3.205-12.978-3.206-2.404-6.256-2.337-6.256-2.337l-.31.356c3.784 1.158 5.542 2.827 5.542 2.827a18.139 18.139 0 0 0-6.7-2.136 18.86 18.86 0 0 0-4.498.043c-.134 0-.245.023-.378.046-.78.067-2.67.356-5.05 1.402-.824.378-1.313.645-1.313.645s1.847-1.758 5.854-2.916l-.224-.267m-.622 8.303c1.269 0 2.293 1.113 2.27 2.47 0 1.359-1 2.472-2.27 2.472-1.247 0-2.271-1.113-2.271-2.471s1-2.471 2.27-2.471m8.126 0c1.269 0 2.27 1.113 2.27 2.47 0 1.359-1 2.472-2.27 2.472-1.247 0-2.271-1.113-2.271-2.471s1-2.471 2.27-2.471" id="path1385" fill="#f9f9f9"/></svg>