<svg xmlns:osb="http://www.openswatchbook.org/uri/2009/osb" xmlns="http://www.w3.org/2000/svg" xmlns:xlink="http://www.w3.org/1999/xlink" width="48" height="48" version="1.1" id="svg38"><defs id="defs22"><linearGradient id="linearGradient4488"><stop id="stop4490" offset="0" stop-color="#000" stop-opacity=".047"/><stop id="stop4492" offset="1" stop-color="#000" stop-opacity="0"/></linearGradient><linearGradient id="linearGradient4154"><stop offset="0" id="stop2" stop-color="#000" stop-opacity="1"/><stop offset="1" id="stop4" stop-color="#000" stop-opacity="0"/></linearGradient><style id="style4511"/><style id="style4511-26"/><style id="style4511-9"/><style id="style4552"/><linearGradient id="c-70" y1="542.8" y2="533.8" gradientUnits="userSpaceOnUse" x2="0" gradientTransform="translate(0 -28)"><stop stop-color="#bcb4a1" id="stop12-9"/><stop offset="1" stop-color="#c5bfad" id="stop14-360"/></linearGradient><style id="style4511-2"/><linearGradient xlink:href="#linearGradient4488" id="linearGradient4540" gradientUnits="userSpaceOnUse" gradientTransform="matrix(.30902 0 0 .3038 -64.017 1.994)" x1="288.112" y1="141.785" x2="287.575" y2="79.008"/><linearGradient osb:paint="solid" id="linearGradient5293"><stop id="stop5295" offset="0" stop-color="#9a89c0" stop-opacity="1"/></linearGradient><filter height="1.12" y="-.06" width="1.12" x="-.06" id="filter1422" color-interpolation-filters="sRGB"><feGaussianBlur id="feGaussianBlur1424" stdDeviation="3.75"/></filter><linearGradient gradientUnits="userSpaceOnUse" y2="236" x2="152" y1="124" x1="152" id="linearGradient982" xlink:href="#linearGradient4154"/><clipPath id="clipPath999" clipPathUnits="userSpaceOnUse"><path id="path1001" d="M152 68c-48.601 0-88 39.399-88 88s39.399 88 88 88 88-39.399 88-88-39.399-88-88-88z" style="marker:none" color="#000" display="inline" overflow="visible" visibility="visible" opacity="1" fill="#5d5d5d" fill-opacity="1" fill-rule="nonzero" stroke="none" stroke-width="3.826" stroke-linecap="butt" stroke-linejoin="round" stroke-miterlimit="4" stroke-dasharray="none" stroke-dashoffset="0" stroke-opacity="1" enable-background="accumulate"/></clipPath><filter height="1.12" y="-.06" width="1.12" x="-.06" id="filter1003" color-interpolation-filters="sRGB"><feGaussianBlur id="feGaussianBlur1005" stdDeviation="4.4"/></filter><filter height="1.241" y="-.121" width="1.08" x="-.04" id="filter1469" color-interpolation-filters="sRGB"><feGaussianBlur id="feGaussianBlur1471" stdDeviation="2.321"/></filter><linearGradient xlink:href="#c-70" id="linearGradient1458" x1="2.581" y1="23.586" x2="45.552" y2="23.586" gradientUnits="userSpaceOnUse"/></defs><style id="style4485" type="text/css"/><g id="g1494" fill-opacity="1"><path d="M2.75 26.22v1.67c0 9.573 5.68 17.281 17.44 17.281h7.05c15.392 0 18.143-11.322 18.143-17.282v-1.668c0 5.96-2.75 17.282-18.143 17.282h-7.05c-11.76 0-17.44-7.708-17.44-17.282z" id="path4516" opacity="1" fill="url(#linearGradient4540)" stroke="none" stroke-width="1.109" stroke-linecap="square" stroke-linejoin="bevel" stroke-miterlimit="4" stroke-dasharray="none" stroke-dashoffset="0" stroke-opacity=".078"/><path d="M19.649 2.742h8.64c14.148 0 17.094 11.247 17.094 17.282v7.124c0 5.96-2.75 17.282-18.143 17.282h-7.05c-11.76 0-17.44-7.708-17.44-17.282v-7.124c0-9.574 5.564-17.282 16.899-17.282z" id="path4518" opacity="1" fill="url(#linearGradient1458)" stroke="#000" stroke-width=".337" stroke-linecap="square" stroke-linejoin="bevel" stroke-miterlimit="4" stroke-dasharray="none" stroke-dashoffset="0" stroke-opacity=".078"/><ellipse ry="15.717" rx="15.63" transform="scale(1 -1)" cy="-23.724" cx="24.049" id="path4238" style="marker:none" color="#000" display="inline" overflow="visible" visibility="visible" opacity="1" fill="#5d5d5d" fill-rule="nonzero" stroke="none" stroke-width=".681" stroke-linecap="butt" stroke-linejoin="miter" stroke-miterlimit="4" stroke-dasharray="2.04435857,2.04435857" stroke-dashoffset="0" stroke-opacity="1" enable-background="accumulate"/><path id="circle1007" d="M8.419 23.724a15.63 15.717 0 0 1 15.63-15.717 15.63 15.717 0 0 1 15.63 15.717z" style="marker:none" color="#000" display="inline" overflow="visible" visibility="visible" opacity=".05" fill="#000" fill-rule="nonzero" stroke="none" stroke-width=".681" stroke-linecap="butt" stroke-linejoin="miter" stroke-miterlimit="4" stroke-dasharray="2.04435857,2.04435857" stroke-dashoffset="0" stroke-opacity="1" enable-background="accumulate"/><path clip-path="url(#clipPath999)" id="path962" d="M152 70c-48.601 0-88 39.399-88 88s39.399 88 88 88 88-39.399 88-88-39.399-88-88-88z" style="marker:none" transform="matrix(.17761 0 0 .1786 -2.949 -4.137)" color="#000" display="inline" overflow="visible" visibility="visible" opacity=".2" fill="none" fill-rule="nonzero" stroke="url(#linearGradient982)" stroke-width="10" stroke-linecap="butt" stroke-linejoin="round" stroke-miterlimit="4" stroke-dasharray="none" stroke-dashoffset="0" stroke-opacity="1" filter="url(#filter1003)" enable-background="accumulate"/><path transform="matrix(.17761 0 0 .1786 1.746 3.084)" d="M125.568 192.568c-41.421 0-75-33.579-75-75 0-41.422 33.579-75 75-75 41.422 0 75 33.578 75 75 0 41.421-33.578 75-75 75z" id="path1414" display="inline" opacity=".2" fill="#000" stroke="none" stroke-width="16" stroke-linecap="round" stroke-linejoin="round" stroke-miterlimit="4" stroke-dasharray="none" stroke-dashoffset="0" stroke-opacity="1" filter="url(#filter1422)" enable-background="new"/><path id="path1041" d="M10.55 9.436a.71.714 0 0 0-.71.715.71.714 0 0 0 .71.714.71.714 0 0 0 .71-.714.71.714 0 0 0-.71-.715zm26.997 0a.71.714 0 0 0-.71.715.71.714 0 0 0 .71.714.71.714 0 0 0 .71-.714.71.714 0 0 0-.71-.715zM10.55 36.584a.71.714 0 0 0-.71.714.71.714 0 0 0 .71.714.71.714 0 0 0 .71-.714.71.714 0 0 0-.71-.714zm26.997 0a.71.714 0 0 0-.71.714.71.714 0 0 0 .71.714.71.714 0 0 0 .71-.714.71.714 0 0 0-.71-.714z" display="inline" opacity=".1" fill="#000" stroke="none" stroke-width="2.85" stroke-linecap="round" stroke-linejoin="round" stroke-miterlimit="4" stroke-dasharray="none" stroke-dashoffset="0" stroke-opacity="1" enable-background="new"/><path id="path1446" d="M24.049 10.33c-7.357 0-13.321 5.996-13.321 13.394 0 .06.003.12.004.179.096-7.315 6.02-13.217 13.317-13.217 7.297 0 13.22 5.902 13.316 13.217 0-.06.005-.119.005-.179 0-7.398-5.964-13.395-13.321-13.395z" display="inline" opacity=".2" fill="#fff" stroke="none" stroke-width="2.85" stroke-linecap="round" stroke-linejoin="round" stroke-miterlimit="4" stroke-dasharray="none" stroke-dashoffset="0" stroke-opacity="1" enable-background="new"/><path d="M19.87 26.682l-7.21 4.692a13.58 13.654 0 0 0 11.39 6.244 13.58 13.654 0 0 0 6.392-1.612l-4.048-7.629a4.979 5.007 0 0 1-2.34.592 4.979 5.007 0 0 1-4.18-2.289" id="path43" opacity="1" fill="#a8cf36" stroke="none" stroke-width=".908"/><path d="M24.05 10.31a13.58 13.654 0 0 0-13.579 13.654 13.58 13.654 0 0 0 2.373 7.711l7.101-4.889a4.979 5.007 0 0 1-.873-2.822 4.979 5.007 0 0 1 4.979-5.007 4.979 5.007 0 0 1 4.979 5.007h8.6A13.58 13.654 0 0 0 24.05 10.31z" id="path45" opacity="1" fill="#e38353" stroke="none" stroke-width=".908"/><path d="M28.944 23.054a4.979 5.007 0 0 1 .086.91 4.979 5.007 0 0 1-4.98 5.007v8.648a13.58 13.654 0 0 0 13.58-13.655 13.58 13.654 0 0 0-.045-.91z" id="path47" opacity="1" fill="#59a3c8" stroke="none" stroke-width=".908"/><path id="path1467" d="M177.073 159.4S59.08 203.44 52.677 205.157c-6.402 1.715-12.982-2.084-14.697-8.485-1.715-6.402 2.084-12.982 8.485-14.697 6.402-1.716 130.608-22.573 130.608-22.573z" transform="matrix(.18105 0 0 .18206 1.581 2.367)" display="inline" opacity=".3" fill="#000" stroke="none" stroke-width="16" stroke-linecap="round" stroke-linejoin="round" stroke-miterlimit="4" stroke-dasharray="none" stroke-dashoffset="0" stroke-opacity="1" filter="url(#filter1469)" enable-background="new"/><path d="M33.641 31.023s-21.363 8.018-22.522 8.33a2.171 2.171 0 0 1-2.661-1.545 2.186 2.186 0 0 1 1.536-2.675c1.159-.313 23.647-4.11 23.647-4.11z" id="path1038" display="inline" opacity="1" fill="#fff" stroke="none" stroke-width="2.905" stroke-linecap="round" stroke-linejoin="round" stroke-miterlimit="4" stroke-dasharray="none" stroke-dashoffset="0" stroke-opacity="1" enable-background="new"/><ellipse ry=".728" rx=".724" id="path1041-7" cx="10.556" cy="37.243" display="inline" opacity="1" fill="gray" stroke="none" stroke-width="2.905" stroke-linecap="round" stroke-linejoin="round" stroke-miterlimit="4" stroke-dasharray="none" stroke-dashoffset="0" stroke-opacity="1" enable-background="new"/><g transform="matrix(.6713 0 0 .67503 1.807 -153.28)" id="g1818" stroke="none" stroke-miterlimit="4" stroke-dasharray="none" stroke-opacity="1"><circle id="path1541" cx="33.186" cy="262.139" r="8.599" display="inline" opacity="1" fill="#fff" stroke-width="2.646"/><g id="g1514" transform="translate(-7.885 220.08) scale(.2697)" display="inline" stroke-width="16" stroke-linecap="round" stroke-linejoin="round" stroke-dashoffset="0"><ellipse id="ellipse971" cx="152" cy="156" rx="32" ry="32" display="inline" opacity=".05" fill="#000" enable-background="new"/><ellipse ry="20" rx="20" cy="156" cx="152" id="ellipse966" display="inline" opacity="1" fill="#fff" enable-background="new"/><g id="g1374" opacity=".1" fill="#000"><circle transform="rotate(-30)" r="2" cy="185.1" cx="53.636" id="path973" opacity="1"/><circle transform="rotate(-30)" id="circle975" cx="53.636" cy="237.1" r="2" opacity="1"/><circle transform="rotate(-60)" id="circle1308" cx="-59.1" cy="183.636" r="2" opacity="1"/><circle transform="rotate(-60)" r="2" cy="235.636" cx="-59.1" id="circle1310" opacity="1"/><circle transform="rotate(-90)" r="2" cy="126" cx="-156" id="circle1314" opacity="1"/><circle transform="rotate(-90)" id="circle1316" cx="-156" cy="178" r="2" opacity="1"/><circle transform="rotate(-120)" id="circle1320" cx="-211.1" cy="27.636" r="2" opacity="1"/><circle transform="rotate(-120)" r="2" cy="79.636" cx="-211.1" id="circle1322" opacity="1"/><circle id="circle1326" cx="152" cy="130" r="2" transform="rotate(-150 152 156)" display="inline" opacity="1" enable-background="new"/><circle r="2" cy="182" cx="152" id="circle1328" transform="rotate(-150 152 156)" display="inline" opacity="1" enable-background="new"/><circle transform="scale(-1)" id="circle1332" cx="-152" cy="-182" r="2" opacity="1"/><circle transform="scale(-1)" r="2" cy="-130" cx="-152" id="circle1334" opacity="1"/></g><ellipse id="ellipse1434" cx="152" cy="156" rx="16" ry="16" display="inline" opacity=".1" fill="#000" enable-background="new"/><ellipse id="ellipse1438" cx="152" cy="156" rx="4" ry="4" display="inline" opacity="1" fill="#888" enable-background="new"/></g></g></g></svg>