<svg xmlns:osb="http://www.openswatchbook.org/uri/2009/osb" xmlns="http://www.w3.org/2000/svg" width="48" height="48" version="1.1" id="svg38"><defs id="defs22"><style id="style4511"/><style id="style4511-26"/><style id="style4511-9"/><style id="style4552"/><style id="style4511-2"/><linearGradient osb:paint="solid" id="linearGradient5293"><stop id="stop5295" offset="0" stop-color="#9a89c0" stop-opacity="1"/></linearGradient><filter height="1.12" y="-.06" width="1.12" x="-.06" id="filter1422" color-interpolation-filters="sRGB"><feGaussianBlur id="feGaussianBlur1424" stdDeviation="3.75"/></filter></defs><style id="style4485" type="text/css"/><g id="g1323"><path d="M19.363 2.742h8.495c13.908 0 16.804 11.247 16.804 17.282v7.124c0 5.96-2.704 17.282-17.836 17.282h-6.93C8.333 44.43 2.75 36.722 2.75 27.148v-7.124c0-9.574 5.47-17.282 16.613-17.282z" id="path4518" opacity="1" fill="#ccc" fill-opacity="1" stroke="#000" stroke-width=".334" stroke-linecap="square" stroke-linejoin="bevel" stroke-miterlimit="4" stroke-dasharray="none" stroke-dashoffset="0" stroke-opacity=".078"/><g transform="translate(-.219 -.043)" id="g512" fill-opacity="1" stroke="none" stroke-miterlimit="4" stroke-dashoffset="0" stroke-opacity="1"><ellipse style="marker:none" id="path4238" cx="23.925" cy="-23.629" transform="scale(1 -1)" rx="16.868" ry="17.072" color="#000" display="inline" overflow="visible" visibility="visible" opacity="1" fill="#5d5d5d" fill-rule="nonzero" stroke-width=".738" stroke-linecap="butt" stroke-linejoin="miter" stroke-dasharray="2.2133912,2.2133912" enable-background="accumulate"/><path id="path1414" d="M-244.02 142.352c-41.421 0-75-33.579-75-75 0-41.422 33.579-75 75-75 41.422 0 75 33.578 75 75 0 41.421-33.578 75-75 75z" transform="matrix(.19168 0 0 .194 70.698 10.951)" display="inline" opacity=".2" fill="#000" stroke-width="16" stroke-linecap="round" stroke-linejoin="round" stroke-dasharray="none" filter="url(#filter1422)" enable-background="new"/></g><path id="path1148-9-1" d="M24.185 38.176a14.376 14.55 0 0 1-14.334-11.58 14.376 14.55 0 0 1 8.573-16.41 14.376 14.55 0 0 1 17.527 5.471L23.925 23.63z" opacity="1" fill="#ffc100" fill-opacity="1" stroke="none" stroke-width=".386" stroke-linecap="butt" stroke-linejoin="miter" stroke-miterlimit="4" stroke-dasharray=".38566668,.38566668" stroke-dashoffset="1" stroke-opacity="1"/><path d="M34.937 14.277a14.376 14.55 0 0 1 1.067 17.241l-12.08-7.889z" id="path1150-3-8" opacity="1" fill="#5884f4" fill-opacity="1" stroke="none" stroke-width=".386" stroke-linecap="butt" stroke-linejoin="miter" stroke-miterlimit="4" stroke-dasharray=".38566668,.38566668" stroke-dashoffset="1" stroke-opacity="1"/><path id="path1152-6-7" d="M32.174 35.544a14.376 14.55 0 0 1-11.97 2.139l3.72-14.054z" opacity="1" fill="#76c22b" fill-opacity="1" stroke="none" stroke-width=".386" stroke-linecap="butt" stroke-linejoin="miter" stroke-miterlimit="4" stroke-dasharray=".38566668,.38566668" stroke-dashoffset="1" stroke-opacity="1"/><path d="M36.954 29.778a14.376 14.55 0 0 1-5.841 6.451l-7.188-12.6z" id="path1154-0-9" opacity="1" fill="#fd6c2b" fill-opacity="1" stroke="none" stroke-width=".386" stroke-linecap="butt" stroke-linejoin="miter" stroke-miterlimit="4" stroke-dasharray=".38566668,.38566668" stroke-dashoffset="1" stroke-opacity="1"/><g id="g1310"><path d="M23.925 9.08c-7.94 0-14.376 6.513-14.376 14.549 0 8.035 6.436 14.55 14.376 14.55 7.94 0 14.376-6.515 14.376-14.55 0-8.036-6.437-14.55-14.376-14.55z" id="path949-6" display="inline" opacity=".2" fill="#f9f96d" fill-opacity="1" stroke="none" stroke-width="3.085" stroke-linecap="round" stroke-linejoin="round" stroke-miterlimit="4" stroke-dasharray="none" stroke-dashoffset="0" stroke-opacity="1" enable-background="new"/></g><path id="path1041" d="M9.139 8.066a.767.776 0 0 0-.767.776.767.776 0 0 0 .767.776.767.776 0 0 0 .766-.776.767.776 0 0 0-.766-.776zm29.135 0a.767.776 0 0 0-.767.776.767.776 0 0 0 .767.776.767.776 0 0 0 .767-.776.767.776 0 0 0-.767-.776zM9.139 37.554a.767.776 0 0 0-.767.776.767.776 0 0 0 .767.776.767.776 0 0 0 .766-.776.767.776 0 0 0-.766-.776zm29.135 0a.767.776 0 0 0-.767.776.767.776 0 0 0 .767.776.767.776 0 0 0 .767-.776.767.776 0 0 0-.767-.776z" display="inline" opacity=".1" fill="#000" fill-opacity="1" stroke="none" stroke-width="3.085" stroke-linecap="round" stroke-linejoin="round" stroke-miterlimit="4" stroke-dasharray="none" stroke-dashoffset="0" stroke-opacity="1" enable-background="new"/></g></svg>