<svg xmlns:osb="http://www.openswatchbook.org/uri/2009/osb" xmlns="http://www.w3.org/2000/svg" xmlns:xlink="http://www.w3.org/1999/xlink" width="48" height="48" version="1.1" id="svg38"><defs id="defs22"><style id="style4511"/><style id="style4511-26"/><style id="style4511-9"/><style id="style4552"/><style id="style4511-2"/><linearGradient osb:paint="solid" id="linearGradient5293"><stop id="stop5295" offset="0" stop-color="#9a89c0" stop-opacity="1"/></linearGradient><linearGradient xlink:href="#linearGradient-1-3" id="linearGradient1535" x1="2.583" y1="23.586" x2="44.83" y2="23.586" gradientUnits="userSpaceOnUse" gradientTransform="matrix(-.00548 -1.0061 .99999 -.00533 .236 48.147)"/><linearGradient id="linearGradient-1-3" y2="0" x2="37.947" y1="37.947" x1="4.292" gradientTransform="matrix(1.0541 0 0 .94868 -50.712 6.017)" gradientUnits="userSpaceOnUse"><stop id="stop473" offset="0%" stop-color="#E91A1A"/><stop id="stop475" offset="100%" stop-color="#FA8C55"/></linearGradient><linearGradient gradientTransform="matrix(-.27218 -3.12737 4.69186 -.325 -72.722 112.699)" x2="1" x1="0" gradientUnits="userSpaceOnUse" id="linear0"><stop id="stop17-60" stop-opacity="1" stop-color="#ec2c20"/><stop id="stop19-62" stop-opacity="1" stop-color="#fab218" offset="1"/></linearGradient><style id="style4511-8"/><style id="style4511-26-7"/><style id="style4511-9-7"/><style id="style4552-5"/><linearGradient gradientUnits="userSpaceOnUse" x2="0" y2="506.8" y1="532.8" id="b-5-8"><stop id="stop7-629-6" stop-color="#989a9b"/><stop id="stop9-12-0" stop-color="#f6f6f7" offset="1"/></linearGradient><style id="style4511-2-5"/><linearGradient xlink:href="#b-5-8" id="linearGradient2395" x1="15.525" y1="32.632" x2="31.836" y2="32.632" gradientUnits="userSpaceOnUse" gradientTransform="matrix(1.07108 0 0 1.05105 -2.071 .197)"/></defs><style id="style4485" type="text/css"/><style type="text/css" id="style4485-9"/><path id="path4518" d="M2.872 28.651l-.047-8.547C2.75 6.112 13.98 3.137 20.015 3.105l7.123-.038c5.96-.032 17.297 2.629 17.38 17.853l.038 6.973c.063 11.633-7.614 17.291-17.188 17.342l-7.123.038c-9.574.051-17.312-5.411-17.373-16.622z" opacity="1" fill="url(#linearGradient1535)" fill-opacity="1" stroke="#000" stroke-width=".335" stroke-linecap="square" stroke-linejoin="bevel" stroke-miterlimit="4" stroke-dasharray="none" stroke-dashoffset="0" stroke-opacity=".078"/><g id="g758" fill-rule="nonzero" stroke="none"><path d="M18.664 13.401c4.29 5.288-4.338 13.428.476 10.78.34-.267.982-.861 1.394-1.047a5.902 5.902 0 0 1 2.044-.5 5.977 5.977 0 0 1 2.1.23c.654.196 1.25.497 1.762.888a4.78 4.78 0 0 1 1.248 1.41 4.248 4.248 0 0 1 .283 3.651 4.617 4.617 0 0 1-1.017 1.558c-.447.454-.99.83-1.607 1.107a5.902 5.902 0 0 1-2.043.5 5.978 5.978 0 0 1-2.1-.23 5.495 5.495 0 0 1-1.763-.888 4.78 4.78 0 0 1-1.247-1.41 4.248 4.248 0 0 1-.284-3.65c.093-.24 1.255-1.67 1.387-1.89-.551-.621-2.216.155-3.73-.037 3.96 5.221-3.84 5.118-2.736 9.815-.97-.17-1.965-1.676-1.394-3.65-2.278 2.869-1.21 5.14.74 7.362-1.89-1.442-4.053 1.511-5.107-.622-.79 6.759 8.436 9.182 17.772 8.574l.663-.043c5.83-.02 14.006-1.028 13.8-6.753-.738 1.127-4.03-1.098-5.658-.992 4.043-3.394 4.568-8.124.4-12.353.51 2.902-1.153 4.579-2.64 5.674 2.128-4.272 1.764-8.956-3.352-12.769.462.985.817 1.757.626 2.698.178-1.148-4.057-6.14-9.706-7.732" id="path73" fill="url(#linear0)" stroke-width=".832"/><path d="M22.92 20.624c1.757-.12 3.404.422 4.635 1.408 1.23.987 2.044 2.419 2.164 4.043.12 1.625-.475 3.153-1.547 4.297-1.073 1.144-2.624 1.905-4.38 2.025-1.756.12-3.403-.422-4.634-1.409-1.23-.986-2.044-2.418-2.164-4.042-.12-1.625.474-3.153 1.547-4.297 1.073-1.144 2.624-1.905 4.38-2.025m0 0" id="path71" fill="#fab21f" fill-opacity="1" stroke-width="2.045"/></g><g id="g754" transform="matrix(1.10115 0 0 1.09279 -2.018 -3.034)"><ellipse ry="3.53" rx="3.692" cy="34.117" cx="23.132" id="path2297" fill="#0b9574" fill-opacity="1" stroke="#2d1dd0" stroke-width="1.061" stroke-opacity=".078"/><path d="M18.928 34.494c0 2.362 1.955 4.28 4.362 4.28 2.408 0 4.363-1.918 4.363-4.28s-1.955-4.28-4.363-4.28c-2.407 0-4.362 1.918-4.362 4.28zm5.643 0c0 .695-.574 1.256-1.281 1.256s-1.28-.562-1.28-1.256.573-1.256 1.28-1.256c.707 0 1.28.562 1.28 1.256z" id="path3307_13_" opacity=".3" fill="#e6e6e6" stroke-width=".456"/><path d="M23.29 35.551c.595 0 1.078-.472 1.078-1.056 0-.585-.482-1.057-1.077-1.057 0 0 0 0 0 0-.595 0-1.078.473-1.078 1.056 0 .584.482 1.057 1.077 1.057z" id="path3352_13_" opacity=".3" fill="#e6e6e6" stroke="#fbffff" stroke-width="3.71" stroke-linecap="round"/><path d="M14.552 34.494c0 4.733 3.914 8.574 8.738 8.574 4.823 0 8.738-3.841 8.738-8.574 0-4.732-3.914-8.573-8.738-8.573s-8.738 3.841-8.738 8.573zm11.987 0c0 1.76-1.455 3.188-3.249 3.188-1.793 0-3.249-1.428-3.249-3.188 0-1.759 1.456-3.188 3.25-3.188 1.793 0 3.248 1.429 3.248 3.188z" id="path3170_13_" fill="#e6e6e6" stroke-width=".456"/><path d="M15.728 38.78c2.411 4.1 7.757 5.505 11.933 3.138 4.175-2.365 5.608-7.612 3.197-11.71-2.411-4.098-7.757-5.504-11.932-3.138-4.176 2.366-5.608 7.612-3.198 11.71zm5.934-7.06c1.56-.883 3.556-.358 4.457 1.173.9 1.53.365 3.492-1.195 4.375-1.56.884-3.556.359-4.457-1.172-.9-1.531-.365-3.491 1.195-4.375z" id="path3230_13_" opacity=".8" fill="url(#linearGradient2395)" fill-opacity="1" stroke-width=".456"/><path d="M19.387 34.52c0 2.115 1.747 3.83 3.902 3.83 2.156.001 3.904-1.713 3.904-3.828v-.002c0-2.115-1.746-3.83-3.902-3.83-2.155 0-3.903 1.713-3.904 3.828v.002z" id="path3304_13_" opacity=".15" fill="#e6e6e6" stroke="#000" stroke-width="3.072" stroke-linecap="round"/></g></svg>