<svg xmlns:osb="http://www.openswatchbook.org/uri/2009/osb" xmlns="http://www.w3.org/2000/svg" width="48" height="48" version="1.1" id="svg38"><defs id="defs22"><style id="style4511"/><style id="style4511-26"/><style id="style4511-9"/><style id="style4552"/><style id="style4511-2"/><linearGradient osb:paint="solid" id="linearGradient5293"><stop id="stop5295" offset="0" stop-color="#9a89c0" stop-opacity="1"/></linearGradient></defs><style id="style4485" type="text/css"/><path id="path4518" d="M3.066 28.69v-8.577c0-14.042 11.247-16.967 17.282-16.967h7.123c5.96 0 17.282 2.73 17.282 18.01v6.996c0 11.674-7.708 17.312-17.282 17.312h-7.123c-9.574 0-17.282-5.523-17.282-16.774z" opacity="1" fill="#dd5514" fill-opacity="1" stroke="#000" stroke-width=".336" stroke-linecap="square" stroke-linejoin="bevel" stroke-miterlimit="4" stroke-dasharray="none" stroke-dashoffset="0" stroke-opacity=".078"/><path d="M9.75 21.38a2.92 2.92 0 0 0-2.917 2.926 2.92 2.92 0 0 0 2.916 2.924 2.92 2.92 0 0 0 2.917-2.924 2.92 2.92 0 0 0-2.917-2.925zm20.825 13.294a2.928 2.928 0 0 0-1.067 3.994 2.912 2.912 0 0 0 3.983 1.07 2.928 2.928 0 0 0 1.067-3.994 2.912 2.912 0 0 0-3.983-1.07zm-14.49-10.369a8.538 8.538 0 0 1 3.623-6.99l-2.132-3.581a12.727 12.727 0 0 0-5.24 7.386c.92.753 1.51 1.9 1.51 3.185a4.102 4.102 0 0 1-1.51 3.185 12.725 12.725 0 0 0 5.24 7.387l2.132-3.582a8.537 8.537 0 0 1-3.623-6.99zm8.52-8.544c4.451 0 8.103 3.423 8.485 7.786l4.157-.06a12.681 12.681 0 0 0-3.765-8.242 4.097 4.097 0 0 1-5.492-3.184 12.639 12.639 0 0 0-9 .854l2.026 3.641a8.465 8.465 0 0 1 3.59-.795zm0 17.088a8.466 8.466 0 0 1-3.589-.795l-2.027 3.642a12.64 12.64 0 0 0 9.001.853 4.1 4.1 0 0 1 1.995-2.9 4.077 4.077 0 0 1 3.498-.284 12.681 12.681 0 0 0 3.764-8.241l-4.157-.061c-.382 4.364-4.034 7.786-8.485 7.786zm5.97-18.913a2.911 2.911 0 0 0 3.983-1.07 2.928 2.928 0 0 0-1.067-3.994 2.912 2.912 0 0 0-3.984 1.07 2.928 2.928 0 0 0 1.068 3.994z" id="path8" fill="#fff" stroke-width=".931"/></svg>