<svg xmlns:osb="http://www.openswatchbook.org/uri/2009/osb" xmlns="http://www.w3.org/2000/svg" width="48" height="48" version="1.1" id="svg38"><defs id="defs22"><style id="style4511"/><style id="style4511-26"/><style id="style4511-9"/><style id="style4552"/><style id="style4511-2"/><linearGradient osb:paint="solid" id="linearGradient5293"><stop id="stop5295" offset="0" stop-color="#9a89c0" stop-opacity="1"/></linearGradient><clipPath id="clipPath-777376520"/></defs><style id="style4485" type="text/css"/><path id="path4518" d="M3.066 28.69v-8.577c0-14.042 11.247-16.967 17.282-16.967h7.123c5.96 0 17.282 2.73 17.282 18.01v6.996c0 11.674-7.708 17.312-17.282 17.312h-7.123c-9.574 0-17.282-5.523-17.282-16.774z" opacity="1" fill="#9291f3" fill-opacity="1" stroke="#000" stroke-width=".336" stroke-linecap="square" stroke-linejoin="bevel" stroke-miterlimit="4" stroke-dasharray="none" stroke-dashoffset="0" stroke-opacity=".078"/><path id="path1295" d="M21.615 11.6c-5.83.276-10.396 5.502-10.167 8.347.229 2.766 7.318 5.196 7.239 5.279a110.452 109.618 0 0 0-3.62 3.124c-2.91 2.631-4.922 4.58-3.905 7.32 1.18 3.158 3.751 3.027 6.774 2.442 7.811-1.524 20.645-11.276 19.98-14.874-.537-2.91-7.704-8.665-11.952-10.728a9.05 8.983 0 0 0-4.368-.91m1.224 4.995c.73-.073 1.576.115 2.527.569 2.07.987 4.213 3.613 0 5.107-1.145.397-4.813-.978-4.707-2.892.097-1.775.964-2.68 2.18-2.784m0 0" fill="#fff" fill-opacity="1" fill-rule="evenodd" stroke="none" stroke-width="1.123"/></svg>