<svg xmlns:osb="http://www.openswatchbook.org/uri/2009/osb" xmlns="http://www.w3.org/2000/svg" xmlns:xlink="http://www.w3.org/1999/xlink" width="48" height="48" version="1.1" id="svg38"><defs id="defs22"><linearGradient id="linearGradient4488"><stop id="stop4490" offset="0" stop-color="#000" stop-opacity=".047"/><stop id="stop4492" offset="1" stop-color="#000" stop-opacity="0"/></linearGradient><style id="style4511"/><style id="style4511-26"/><style id="style4511-9"/><style id="style4552"/><style id="style4511-2"/><linearGradient xlink:href="#linearGradient4488" id="linearGradient4540" gradientUnits="userSpaceOnUse" gradientTransform="translate(-62.889 1.994) scale(.3038)" x1="288.112" y1="141.785" x2="287.575" y2="79.008"/><linearGradient osb:paint="solid" id="linearGradient5293"><stop id="stop5295" offset="0" stop-color="#9a89c0" stop-opacity="1"/></linearGradient><clipPath id="clipPath-373969720"/><clipPath id="clipPath-386450974"/></defs><style id="style4485" type="text/css"/><path id="path4518" d="M19.363 2.742h8.495c13.908 0 16.804 11.247 16.804 17.282v7.124c0 5.96-2.704 17.282-17.836 17.282h-6.93C8.333 44.43 2.75 36.722 2.75 27.148v-7.124c0-9.574 5.47-17.282 16.613-17.282z" opacity="1" fill="#c40649" fill-opacity="1" stroke="#000" stroke-width=".334" stroke-linecap="square" stroke-linejoin="bevel" stroke-miterlimit="4" stroke-dasharray="none" stroke-dashoffset="0" stroke-opacity=".078"/><path id="path4516" d="M2.75 26.22v1.67c0 9.573 5.583 17.281 17.146 17.281h6.93c15.132 0 17.836-11.322 17.836-17.282v-1.668c0 5.96-2.704 17.282-17.836 17.282h-6.93C8.333 43.503 2.75 35.795 2.75 26.22z" opacity="1" fill="url(#linearGradient4540)" fill-opacity="1" stroke="none" stroke-width="1.1" stroke-linecap="square" stroke-linejoin="bevel" stroke-miterlimit="4" stroke-dasharray="none" stroke-dashoffset="0" stroke-opacity=".078"/><path id="path424" d="M25.184 24.306c-.414.004.078.203.617.285.148-.113.281-.227.402-.336a3.202 3.202 0 0 1-1.02.051" fill="#f9f9f9" fill-opacity="1" fill-rule="nonzero" stroke="none"/><path id="path426" d="M27.401 23.776c.238-.328.422-.684.48-1.055-.055.262-.203.492-.344.73-.773.469-.074-.277 0-.559-.832 1-.117.602-.145.883" fill="#f9f9f9" fill-opacity="1" fill-rule="nonzero" stroke="none"/><path id="path428" d="M28.215 21.726c.047-.715-.148-.488-.215-.215.078.035.141.504.215.215" fill="#f9f9f9" fill-opacity="1" fill-rule="nonzero" stroke="none"/><path id="path430" d="M23.618 11.935c.223.039.477.066.441.117.242-.051.297-.098-.441-.117" fill="#f9f9f9" fill-opacity="1" fill-rule="nonzero" stroke="none"/><path id="path432" d="M24.059 12.052l-.156.035.145-.016.012-.02" fill="#f9f9f9" fill-opacity="1" fill-rule="nonzero" stroke="none"/><path id="path434" d="M30.922 21.993c.027.645-.195.957-.391 1.508l-.355.172c-.293.547.027.348-.184.781-.453.391-1.379 1.223-1.676 1.297-.219-.004.145-.246.191-.34-.609.402-.488.605-1.422.852l-.027-.059c-2.297 1.043-5.492-1.023-5.449-3.844-.027.18-.07.133-.121.207-.121-1.453.695-2.91 2.066-3.504 1.344-.641 2.918-.379 3.879.484-.527-.664-1.578-1.371-2.824-1.305-1.223.016-2.363.766-2.746 1.574-.625.379-.695 1.465-.969 1.66-.367 2.598.688 3.723 2.477 5.04.281.18.078.207.117.348a4.834 4.834 0 0 1-1.586-1.168c.238.336.492.66.824.918-.559-.184-1.309-1.309-1.527-1.355.965 1.668 3.914 2.922 5.461 2.297-.715.027-1.625.016-2.426-.27-.34-.168-.797-.516-.715-.578 2.105.758 4.285.574 6.109-.836.461-.348.969-.941 1.117-.949-.23.32.035.152-.133.438.461-.719-.199-.293.477-1.242l.254.332c-.094-.598.766-1.32.68-2.266.199-.289.219.313.012.977.289-.738.074-.855.148-1.465.082.207.188.422.242.637-.188-.711.195-1.199.289-1.609-.094-.043-.293.313-.336-.527.004-.367.105-.188.141-.281-.074-.043-.27-.313-.387-.852.086-.125.23.328.348.348-.074-.426-.207-.754-.211-1.082-.344-.688-.121.094-.398-.293-.363-1.098.301-.254.348-.754.551.773.867 1.965 1.012 2.461a9.63 9.63 0 0 0-.508-1.754c.168.07-.27-1.238.219-.371-.52-1.852-2.23-3.578-3.801-4.387.191.168.434.383.348.414-.781-.445-.645-.48-.758-.672-.637-.25-.68.02-1.102 0-1.199-.613-1.43-.547-2.535-.941l.051.23c-.797-.254-.926.098-1.789 0-.051-.039.277-.145.547-.184-.77.102-.734-.145-1.484.027.184-.125.379-.207.578-.316-.629.039-1.496.355-1.227.066-1.023.441-2.84 1.059-3.859 1.98l-.035-.207c-.465.539-2.035 1.613-2.16 2.316l-.125.027c-.242.395-.402.844-.594 1.254-.316.523-.465.199-.422.281-.625 1.223-.934 2.25-1.203 3.094.191.273.004 1.66.078 2.766-.316 5.469 3.98 10.773 8.672 12 .691.238 1.711.23 2.582.254-1.023-.285-1.16-.152-2.16-.488-.719-.328-.879-.699-1.391-1.129l.203.344c-1-.34-.582-.422-1.398-.672l.219-.27c-.324-.023-.863-.527-1.01-.809l-.355.016c-.426-.512-.656-.875-.637-1.16l-.117.199c-.129-.219-1.57-1.906-.82-1.512-.141-.125-.324-.199-.527-.551l.152-.168c-.359-.445-.66-1.02-.637-1.207.191.25.324.293.457.336-.91-2.172-.961-.117-1.648-2.211l.145-.012c-.109-.16-.176-.336-.27-.508l.066-.609c-.656-.73-.184-3.102-.09-4.398.066-.531.547-1.094.91-1.977l-.223-.035c.426-.715 2.43-2.875 3.352-2.766.449-.543-.09 0-.176-.137.984-.988 1.297-.699 1.965-.875.727-.41-.617.16-.27-.156 1.234-.305.879-.695 2.5-.852.172.094-.398.145-.539.266 1.035-.488 3.27-.375 4.727.273 1.691.762 3.586 3.01 3.66 5.125l.086.02c-.043.848.133 1.816-.172 2.707l.207-.422" fill="#f9f9f9" fill-opacity="1" fill-rule="nonzero" stroke="none"/><path id="path436" d="M20.68 24.856l-.059.277c.27.355.484.742.832 1.02-.25-.469-.434-.664-.773-1.297" fill="#f9f9f9" fill-opacity="1" fill-rule="nonzero" stroke="none"/><path id="path438" d="M21.321 24.826c-.141-.152-.227-.336-.324-.52.094.32.277.598.453.879l-.129-.359" fill="#f9f9f9" fill-opacity="1" fill-rule="nonzero" stroke="none"/><path id="path440" d="M32.665 22.45l-.063.145a6.974 6.974 0 0 1-.719 2.215 6.76 6.76 0 0 0 .777-2.363" fill="#f9f9f9" fill-opacity="1" fill-rule="nonzero" stroke="none"/><path id="path442" d="M23.7 11.746c.281-.098.688-.051.984-.117-.387.031-.77.051-1.148.098l.164.02" fill="#f9f9f9" fill-opacity="1" fill-rule="nonzero" stroke="none"/><path id="path444" d="M13.911 16.766c.063.574-.449.797.109.418.301-.652-.117-.18-.109-.418" fill="#f9f9f9" fill-opacity="1" fill-rule="nonzero" stroke="none"/><path id="path446" d="M13.251 19.419c.133-.383.156-.613.203-.832-.355.438-.164.531-.203.832" fill="#f9f9f9" fill-opacity="1" fill-rule="nonzero" stroke="none"/></svg>