<svg xmlns:osb="http://www.openswatchbook.org/uri/2009/osb" xmlns="http://www.w3.org/2000/svg" xmlns:xlink="http://www.w3.org/1999/xlink" width="48" height="48" version="1.1" id="svg38"><defs id="defs22"><linearGradient id="linearGradient4488"><stop id="stop4490" offset="0" stop-color="#000" stop-opacity=".047"/><stop id="stop4492" offset="1" stop-color="#000" stop-opacity="0"/></linearGradient><style id="style4511"/><style id="style4511-26"/><style id="style4511-9"/><style id="style4552"/><style id="style4511-2"/><linearGradient xlink:href="#linearGradient4488" id="linearGradient4540" gradientUnits="userSpaceOnUse" gradientTransform="rotate(90 54.154 -8.502) scale(.3038)" x1="288.112" y1="141.785" x2="287.575" y2="79.008"/><linearGradient osb:paint="solid" id="linearGradient5293"><stop id="stop5295" offset="0" stop-color="#9a89c0" stop-opacity="1"/></linearGradient><linearGradient xlink:href="#linearGradient3764-3675-3" id="linearGradient1466" x1="3.049" y1="23.939" x2="45.07" y2="23.939" gradientUnits="userSpaceOnUse"/><linearGradient gradientTransform="rotate(-90 -17.138 61.085)" gradientUnits="userSpaceOnUse" x2="47" x1="1" id="linearGradient3764-3675-3"><stop id="stop1289" stop-opacity="1" stop-color="#8cd644"/><stop id="stop1291" stop-opacity="1" stop-color="#97da54" offset="1"/></linearGradient><clipPath id="clipPath-004379514"/></defs><style id="style4485" type="text/css"/><path id="path4518" d="M44.903 19.596v8.495c0 13.908-11.247 16.805-17.282 16.805h-7.123c-5.96 0-17.282-2.705-17.282-17.837v-6.93c0-11.563 7.708-17.146 17.282-17.146h7.123c9.574 0 17.282 5.47 17.282 16.613z" opacity="1" fill="url(#linearGradient1466)" fill-opacity="1" stroke="#000" stroke-width=".334" stroke-linecap="square" stroke-linejoin="bevel" stroke-miterlimit="4" stroke-dasharray="none" stroke-dashoffset="0" stroke-opacity=".078"/><path id="path4516" d="M21.425 2.983h-1.669c-9.574 0-17.282 5.583-17.282 17.146v6.93c0 15.132 11.323 17.837 17.282 17.837h1.669c-5.96 0-17.282-2.705-17.282-17.837v-6.93c0-11.563 7.708-17.146 17.282-17.146z" opacity="1" fill="url(#linearGradient4540)" fill-opacity="1" stroke="none" stroke-width="1.1" stroke-linecap="square" stroke-linejoin="bevel" stroke-miterlimit="4" stroke-dasharray="none" stroke-dashoffset="0" stroke-opacity=".078"/><path id="path1336" d="M25.235 18.65c-.901 0-1.702.351-2.346 1.022a3.301 3.428 0 0 0-.98 2.468v4.802h2.1V22.14c0-.362.111-.649.362-.914.251-.264.517-.385.858-.385.351 0 .618.12.864.385.25.265.363.549.363.914v4.802h2.099V22.14c0-.362.116-.649.363-.914.25-.264.512-.385.86-.385s.618.12.864.385c.251.265.363.549.363.914l.016 5.611c0 1.201-1.1 2.208-2.511 2.208l-6.764-.027c-1.089 0-2.016-1.1-2.016-2.514V16.852h-1.983v10.973c0 1.166.412 2.187 1.209 3.014.68.7 1.504 1.154 2.42 1.256h7.533c1.16 0 2.178-.447 2.994-1.318h.004a4.393 4.393 0 0 0 1.205-2.638l-.008-5.998c0-.952-.333-1.792-.98-2.468-.644-.672-1.44-1.021-2.342-1.021-.887 0-1.657.342-2.287.975a3.167 3.289 0 0 0-2.279-.975m.022 0" fill="#f9f9f9" fill-opacity="1" fill-rule="evenodd" stroke="none" stroke-width=".976"/><path id="path1339" d="M22.858 36.444c-4.768 0-8.907-3.754-8.907-8.705l-.003-6.008v-1.535h-3.024V12.56l12.75.065 3.989.008c4.77 0 8.906 3.75 8.906 8.7v15.102H22.855m11.772-4.045V21.338c0-3.692-3.12-6.684-6.964-6.684H23.67v-.008l-10.8-.055v3.586h1.21c.823 0 1.811.801 1.811 1.978l.02 7.57c0 3.691 3.117 6.687 6.96 6.687h9.486c1.217 0 2.283-.804 2.283-2.028m-.004 0" fill="#f9f9f9" fill-opacity="1" fill-rule="evenodd" stroke="none" stroke-width=".976"/></svg>