<svg xmlns="http://www.w3.org/2000/svg" xmlns:xlink="http://www.w3.org/1999/xlink" width="48" height="48" version="1.1" id="svg38"><defs id="defs22"><linearGradient id="linearGradient4488"><stop id="stop4490" offset="0" stop-color="#000" stop-opacity=".047"/><stop id="stop4492" offset="1" stop-color="#000" stop-opacity="0"/></linearGradient><style id="style4511"/><style id="style4511-26"/><style id="style4511-9"/><style id="style4552"/><linearGradient id="c-70" y1="542.8" y2="533.8" gradientUnits="userSpaceOnUse" x2="0" gradientTransform="translate(0 -28)"><stop stop-color="#bcb4a1" id="stop12-9"/><stop offset="1" stop-color="#c5bfad" id="stop14-360"/></linearGradient><style id="style4511-2"/><linearGradient xlink:href="#linearGradient4488" id="linearGradient4544" gradientUnits="userSpaceOnUse" gradientTransform="translate(-62.887 1.994) scale(.3038)" x1="288.112" y1="141.785" x2="287.575" y2="79.008"/><linearGradient gradientTransform="rotate(-90 -13.923 65.898)" gradientUnits="userSpaceOnUse" x2="47" x1="1" id="linearGradient3764-3"><stop id="stop1146" stop-opacity="1" stop-color="#e4e4e4"/><stop id="stop1148" stop-opacity="1" stop-color="#eee" offset="1"/></linearGradient><linearGradient id="SVGID_2_" gradientUnits="userSpaceOnUse" x1="22.343" y1="3.061" x2="22.542" y2="44.846" gradientTransform="matrix(1.16901 0 0 1.0638 -3.473 -1.624)" xlink:href="#c-70"><stop offset="0" id="stop367" stop-color="#22e1fd"/><stop offset=".966" id="stop369" stop-color="#0b53b6"/></linearGradient><linearGradient xlink:href="#linearGradient3764-3" id="linearGradient1242" x1="2.585" y1="23.586" x2="44.832" y2="23.586" gradientUnits="userSpaceOnUse"/></defs><style id="style4485" type="text/css"/><path id="path4524" d="M2.752 26.22v1.67c0 9.573 5.583 17.281 17.146 17.281h6.93c15.133 0 17.837-11.322 17.837-17.282v-1.668c0 5.96-2.704 17.282-17.837 17.282h-6.93c-11.563 0-17.146-7.708-17.146-17.282z" opacity="1" fill="url(#linearGradient4544)" fill-opacity="1" stroke="none" stroke-width="1.1" stroke-linecap="square" stroke-linejoin="bevel" stroke-miterlimit="4" stroke-dasharray="none" stroke-dashoffset="0" stroke-opacity=".078"/><path id="path4526" d="M19.365 2.742h8.495c13.908 0 16.805 11.247 16.805 17.282v7.124c0 5.96-2.705 17.282-17.837 17.282h-6.93c-11.563 0-17.146-7.708-17.146-17.282v-7.124c0-9.574 5.47-17.282 16.613-17.282z" opacity="1" fill="url(#linearGradient1242)" fill-opacity="1" stroke="#000" stroke-width=".334" stroke-linecap="square" stroke-linejoin="bevel" stroke-miterlimit="4" stroke-dasharray="none" stroke-dashoffset="0" stroke-opacity=".078"/><path d="M3.458 32.682c4.869 1.29 18.193 4.082 26.606-1.324 5.457-3.506 4.755-9.122 4.755-9.122-.091-4.27-3.058-8.513-3.058-8.513 11.536 9.147 4.718 19.31 4.718 19.31-3.512 6.286-11.14 10.067-17.209 11.39a20.06 20.06 0 0 1-5.324-.797c-1.658-.493-3.673-1.477-5-2.447C7.599 40.192 6 38.38 5.305 37.11c-.795-1.45-1.482-2.847-1.846-4.428zM5.965 8.994c1.43 6.814 5.254 14.13 7.385 16.22 2.755 2.7 6.814 5.567 12.022 4.382 5.21-1.185 6.268-6.366 6.268-6.366 1.152-4.409-.486-9.645-.575-9.754-.089-.11-.87-.234-.87-.234.818 6.943-1.19 10.016-1.19 10.016-2.92 5.443-7.205 3.76-7.205 3.76-4.768-2.212-4.543-8.444-4.543-8.444-.146-4.333 1.76-11.669 5.387-15.839-3.334-.125-6.984.058-9.692 1.025-2.98 1.063-5.332 2.8-6.987 5.234zm28.223-5.318c-2.783 2.06-8.15 7.29-8.15 7.29-7.025 5.925-5.662 10.913-5.662 10.913 1.12 5.235 4.603 1.708 4.603 1.708 3.663-3.444 3.39-10.306 3.39-10.306-1.483.22-2.422.965-2.422.965-.181 4.573-3.15 7.413-3.15 7.413-1.15 1.157-1.967.055-1.967.055-.604-.828.606-1.406.606-1.406 1.694-1.35 2.204-3.653 2.181-4.518-.024-.867.483-1.104.483-1.104a28.105 28.105 0 0 1 4.785-2.673c3.209-1.487 8.932-1.736 8.932-1.736 1.464-.129 3.11-.061 4.298-.156-.868-1.41-2.04-2.87-3.363-3.953-1.301-1.065-2.826-2.009-4.564-2.492z" id="path372" fill="url(#SVGID_2_)" stroke-width="1.115" fill-opacity="1"/></svg>