<svg xmlns="http://www.w3.org/2000/svg" xmlns:xlink="http://www.w3.org/1999/xlink" width="48" height="48" version="1.1" id="svg38"><defs id="defs22"><style id="style4511"/><style id="style4511-26"/><style id="style4511-9"/><style id="style4552"/><style id="style4511-2"/><radialGradient xlink:href="#linearGradient3764-36753-6" id="radialGradient1344" cx="24.083" cy="24.405" fx="24.083" fy="24.405" r="21.428" gradientTransform="matrix(1 0 0 .99497 0 .123)" gradientUnits="userSpaceOnUse"/><linearGradient gradientTransform="rotate(-90 -11.89 58.372)" gradientUnits="userSpaceOnUse" x2="47" x1="1" id="linearGradient3764-36753-6"><stop id="stop1214" stop-opacity="1" stop-color="#1791d1"/><stop id="stop1216" stop-opacity="1" stop-color="#19a0e3" offset="1"/></linearGradient><clipPath id="clipPath-626667287"/></defs><style id="style4485" type="text/css"/><path d="M19.677 3.253h8.618c14.108 0 17.047 11.413 17.047 17.537v7.229c0 6.047-2.744 17.537-18.094 17.537h-7.03c-11.73 0-17.394-7.822-17.394-17.537V20.79c0-9.715 5.549-17.537 16.853-17.537z" id="rect4144" opacity="1" fill="url(#radialGradient1344)" fill-opacity="1" stroke="#000" stroke-width=".339" stroke-linecap="square" stroke-linejoin="bevel" stroke-miterlimit="4" stroke-dasharray="none" stroke-dashoffset="0" stroke-opacity=".078"/><path id="path1257" d="M24.082 12.094c-1.17 2.684-1.875 4.442-3.172 7.05.795.79 1.772 1.714 3.365 2.756-1.712-.657-2.874-1.322-3.746-2.007-1.665 3.257-4.274 7.895-9.565 16.812 4.16-2.25 7.383-3.641 10.39-4.17a7.463 7 0 0 1-.202-1.67l.005-.124c.069-2.5 1.452-4.422 3.096-4.29 1.64.128 2.917 2.263 2.852 4.763a7.39 6.93 0 0 1-.17 1.342c2.972.545 6.162 1.935 10.266 4.158-.807-1.397-1.533-2.664-2.22-3.861-1.085-.79-2.22-1.815-4.532-2.925 1.589.389 2.725.834 3.613 1.334-7.012-12.244-7.58-13.867-9.984-19.159m.004 0" fill="#f9f9f9" fill-opacity="1" fill-rule="evenodd" stroke="none" stroke-width="1.059"/></svg>