<svg xmlns:osb="http://www.openswatchbook.org/uri/2009/osb" xmlns="http://www.w3.org/2000/svg" xmlns:xlink="http://www.w3.org/1999/xlink" width="48" height="48" version="1.1" id="svg38"><defs id="defs22"><linearGradient id="linearGradient3764-367535" x1="1" x2="47" gradientUnits="userSpaceOnUse" gradientTransform="rotate(-90 -3.093 49.983)"><stop stop-color="#243964" stop-opacity="1" id="stop1388"/><stop offset="1" stop-color="#294172" stop-opacity="1" id="stop1390"/></linearGradient><style id="style4511"/><style id="style4511-26"/><style id="style4511-9"/><style id="style4552"/><style id="style4511-2"/><linearGradient osb:paint="solid" id="linearGradient5293"><stop id="stop5295" offset="0" stop-color="#9a89c0" stop-opacity="1"/></linearGradient><clipPath id="clipPath-191109045"/><linearGradient xlink:href="#linearGradient3764-367535" id="linearGradient1399" x1="2.899" y1="24.305" x2="44.921" y2="24.305" gradientUnits="userSpaceOnUse"/></defs><style id="style4485" type="text/css"/><path id="path4518" d="M3.066 28.69v-8.577c0-14.042 11.247-16.967 17.282-16.967h7.123c5.96 0 17.282 2.73 17.282 18.01v6.996c0 11.674-7.708 17.312-17.282 17.312h-7.123c-9.574 0-17.282-5.523-17.282-16.774z" opacity="1" fill="url(#linearGradient1399)" fill-opacity="1" stroke="#000" stroke-width=".336" stroke-linecap="square" stroke-linejoin="bevel" stroke-miterlimit="4" stroke-dasharray="none" stroke-dashoffset="0" stroke-opacity=".078"/><path id="path1308" d="M29.615 26.097c4.102 0 7.468-3.443 7.468-7.632 0-4.193-3.365-7.633-7.468-7.633-4.102 0-7.464 3.44-7.464 7.633V26.1h7.464m0-3.58H25.64v-4.06a3.95 4.042 0 0 1 3.974-4.062 3.945 4.037 0 0 1 3.973 4.061 3.95 4.042 0 0 1-3.973 4.062m0 0" fill="#3c6eb2" fill-opacity="1" fill-rule="nonzero" stroke="none" stroke-width="1.11"/><path id="path1310" d="M18.203 22.513c-4.103 0-7.468 3.443-7.468 7.632 0 4.193 3.364 7.632 7.468 7.632 4.102 0 7.468-3.439 7.468-7.632v-7.632m-7.468 3.575h3.973v4.062a3.95 4.042 0 0 1-3.973 4.061 3.945 4.037 0 0 1-3.974-4.061 3.95 4.042 0 0 1 3.974-4.062m0 0" fill="#3c6eb2" fill-opacity="1" fill-rule="nonzero" stroke="none" stroke-width="1.11"/><path id="path1312" d="M29.615 10.839a7.46 7.633 0 0 0-7.464 7.632v4.057h-3.133c-.973 0-1.761.776-1.761 1.781a1.734 1.774 0 0 0 1.749 1.772h2.589c.308 0 .557.255.557.57v3.5a3.936 4.028 0 0 1-3.944 4.014c-.737 0-.917-.097-1.423-.097-1.06 0-1.762.728-1.762 1.715 0 .824.686 1.535 1.535 1.759a5.675 5.675 0 0 0 1.65.223 7.464 7.637 0 0 0 7.468-7.632V26.08h3.133c.974 0 1.762-.785 1.762-1.776 0-.996-.78-1.777-1.75-1.777h-2.593a.562.575 0 0 1-.553-.575v-3.495a3.935 4.027 0 0 1 3.94-4.022c.737 0 .917.1 1.423.1 1.063 0 1.766-.727 1.766-1.719 0-.824-.69-1.53-1.531-1.755a5.85 5.985 0 0 0-1.655-.223m0 0" fill="#f9f9f9" fill-opacity="1" fill-rule="nonzero" stroke="none" stroke-width="1.11"/></svg>