<svg xmlns="http://www.w3.org/2000/svg" xmlns:xlink="http://www.w3.org/1999/xlink" width="48" height="48" version="1.1" id="svg38"><defs id="defs22"><style id="style4511"/><style id="style4511-26"/><style id="style4511-9"/><style id="style4552"/><style id="style4511-2"/><linearGradient gradientTransform="rotate(-90 -3.144 49.423)" gradientUnits="userSpaceOnUse" x2="47" x1="1" id="linearGradient3764-3675"><stop id="stop1208" stop-opacity="1" stop-color="#31af54"/><stop id="stop1210" stop-opacity="1" stop-color="#35bf5c" offset="1"/></linearGradient><clipPath id="clipPath-398118914"/><radialGradient xlink:href="#linearGradient3764-3675" id="radialGradient1356" cx="24.083" cy="24.405" fx="24.083" fy="24.405" r="21.428" gradientTransform="matrix(1 0 0 .99497 0 .123)" gradientUnits="userSpaceOnUse"/></defs><style id="style4485" type="text/css"/><path d="M19.677 3.253h8.618c14.108 0 17.047 11.413 17.047 17.537v7.229c0 6.047-2.744 17.537-18.094 17.537h-7.03c-11.73 0-17.394-7.822-17.394-17.537V20.79c0-9.715 5.549-17.537 16.853-17.537z" id="rect4144" opacity="1" fill="url(#radialGradient1356)" fill-opacity="1" stroke="#000" stroke-width=".339" stroke-linecap="square" stroke-linejoin="bevel" stroke-miterlimit="4" stroke-dasharray="none" stroke-dashoffset="0" stroke-opacity=".078"/><path id="path1251" d="M14.364 12.043v7.338h.004l-.004 2.982h5.399v-3.09h7.56v-7.21h-12.96m14.04-.016v24.719h5.399v-24.72m-12.96 8.24v16.48h6.48v-16.48m-12.954 3.09v13.39h5.4v-13.39m-5.4 0" fill="#f9f9f9" fill-opacity="1" fill-rule="evenodd" stroke="none" stroke-width="1.055"/></svg>