<svg xmlns="http://www.w3.org/2000/svg" xmlns:xlink="http://www.w3.org/1999/xlink" width="48" height="48" version="1.1" id="svg38"><defs id="defs22"><linearGradient id="linearGradient853"><stop offset="0" id="stop849" stop-color="#f31d41" stop-opacity="1"/><stop offset="1" id="stop851" stop-color="#f24949" stop-opacity="1"/></linearGradient><linearGradient id="linearGradient4488"><stop id="stop4490" offset="0" stop-color="#000" stop-opacity=".047"/><stop id="stop4492" offset="1" stop-color="#000" stop-opacity="0"/></linearGradient><style id="style4511"/><style id="style4511-26"/><style id="style4511-9"/><style id="style4552"/><style id="style4511-2"/><linearGradient xlink:href="#linearGradient4488" id="linearGradient4540" gradientUnits="userSpaceOnUse" gradientTransform="translate(-62.889 1.994) scale(.3038)" x1="288.112" y1="141.785" x2="287.575" y2="79.008"/><style id="style4552-1"/><style id="style4552-3"/><style id="style4511-20"/><style id="style4552-2"/><style id="style4511-2-6"/><style id="style4511-7"/><style id="style4511-26-7"/><style id="style4511-9-1"/><style id="style4552-38"/><style id="style4511-2-8"/><style id="style4552-7"/><style id="style4552-6"/><style type="text/css" id="current-color-scheme"/><linearGradient id="b-3675" gradientUnits="userSpaceOnUse" x1="13.085" x2="28.809" xlink:href="#a-35" y1="1024.741" y2="1024.741" gradientTransform="translate(-14.91 -1865.543) scale(1.84351)"/><linearGradient id="a-35"><stop offset="0" stop-color="#f6fbff" id="stop2-629"/><stop offset="1" stop-color="#eaeff2" id="stop4-1"/></linearGradient><linearGradient xlink:href="#linearGradient853" id="linearGradient855" x1="25.627" y1="41.695" x2="26.237" y2="7.729" gradientUnits="userSpaceOnUse"/></defs><style id="style4485" type="text/css"/><path id="path4516" d="M2.75 26.22v1.67c0 9.573 5.583 17.281 17.146 17.281h6.93c15.132 0 17.836-11.322 17.836-17.282v-1.668c0 5.96-2.704 17.282-17.836 17.282h-6.93C8.333 43.503 2.75 35.795 2.75 26.22z" opacity="1" fill="url(#linearGradient4540)" fill-opacity="1" stroke="none" stroke-width="1.1" stroke-linecap="square" stroke-linejoin="bevel" stroke-miterlimit="4" stroke-dasharray="none" stroke-dashoffset="0" stroke-opacity=".078"/><path id="path4518" d="M19.363 2.742h8.495c13.908 0 16.804 11.247 16.804 17.282v7.124c0 5.96-2.704 17.282-17.836 17.282h-6.93C8.333 44.43 2.75 36.722 2.75 27.148v-7.124c0-9.574 5.47-17.282 16.613-17.282z" opacity="1" fill="url(#linearGradient855)" fill-opacity="1" stroke="#000" stroke-width=".334" stroke-linecap="square" stroke-linejoin="bevel" stroke-miterlimit="4" stroke-dasharray="none" stroke-dashoffset="0" stroke-opacity=".078"/><style type="text/css" id="style4485-31"/><style id="style4485-35" type="text/css"/><style id="style4485-3" type="text/css"/><style type="text/css" id="style4485-0"/><style id="style4485-4" type="text/css"/><style id="style4485-5" type="text/css"/><path id="path24" d="M37.731 26.882c-.58-.57-1.865-.872-3.82-.899-1.324-.021-2.917.102-4.592.337-.752-.433-1.525-.904-2.132-1.47-1.633-1.526-2.995-3.644-3.846-5.971a16.7 16.7 0 0 0 .146-.604s.92-5.224.677-6.99a2.045 2.045 0 0 0-.119-.502l-.08-.204c-.25-.578-.741-1.189-1.51-1.155l-.45-.022h-.013c-.858 0-1.558.438-1.74 1.093-.558 2.057.018 5.134 1.06 9.118l-.266.649c-.749 1.82-1.683 3.654-2.51 5.272l-.107.21a88.52 88.52 0 0 1-2.371 4.367l-.737.39a57.964 57.964 0 0 0-1.616.875c-2.516 1.503-4.183 3.208-4.46 4.561-.087.433-.022.985.426 1.24l.713.36c.31.154.636.234.97.234 1.793 0 3.873-2.232 6.74-7.235 3.309-1.076 7.075-1.971 10.377-2.465 2.516 1.416 5.61 2.4 7.563 2.4.347 0 .645-.033.89-.097.374-.1.689-.314.881-.604.38-.57.457-1.355.354-2.16-.032-.238-.222-.533-.428-.735zm-26.765 9.536c.327-.894 1.62-2.66 3.534-4.228.12-.096.415-.374.687-.632-2 3.19-3.34 4.461-4.22 4.86zm11.33-26.086c.574 0 .901 1.452.93 2.815.026 1.36-.292 2.315-.687 3.022-.327-1.046-.485-2.696-.485-3.775 0 0-.025-2.062.241-2.062zm-3.382 18.589c.403-.718.82-1.476 1.246-2.28a43.413 43.413 0 0 0 2.186-4.769c.973 1.77 2.185 3.274 3.609 4.481.178.149.366.3.563.452-2.897.572-5.4 1.27-7.604 2.116zm18.26-.162c-.176.109-.68.175-1.006.175-1.05 0-2.346-.48-4.167-1.26.7-.05 1.341-.077 1.916-.077 1.05 0 1.364 0 2.391.257 1.03.264 1.043.796.867.906z" fill="url(#b-3675)" stroke-width="1.843"/></svg>