<svg xmlns="http://www.w3.org/2000/svg" xmlns:xlink="http://www.w3.org/1999/xlink" width="48" height="48" version="1.1" id="svg38"><defs id="defs22"><linearGradient id="linearGradient4488"><stop id="stop4490" offset="0" stop-color="#000" stop-opacity=".047"/><stop id="stop4492" offset="1" stop-color="#000" stop-opacity="0"/></linearGradient><style id="style4511"/><style id="style4511-26"/><style id="style4511-9"/><style id="style4552"/><style id="style4511-2"/><linearGradient xlink:href="#linearGradient4488" id="linearGradient4471" gradientUnits="userSpaceOnUse" gradientTransform="translate(-62.47 2.216) scale(.3038)" x1="288.112" y1="141.785" x2="287.575" y2="79.008"/><linearGradient id="linearGradient876"><stop id="stop872" offset="0" stop-color="#1a7fd4" stop-opacity="1"/><stop id="stop874" offset="1" stop-color="#37a6e6" stop-opacity="1"/></linearGradient><filter height="1.097" y="-.048" width="1.095" x="-.048" id="filter2400" color-interpolation-filters="sRGB"><feGaussianBlur id="feGaussianBlur2402" stdDeviation=".981"/></filter><linearGradient xlink:href="#linearGradient876" id="linearGradient1258" x1="3.001" y1="23.808" x2="45.248" y2="23.808" gradientUnits="userSpaceOnUse"/></defs><style id="style4485" type="text/css"/><path d="M3.168 26.443v1.668c0 9.575 5.583 17.282 17.146 17.282h6.93c15.132 0 17.836-11.322 17.836-17.282v-1.668c0 5.96-2.704 17.282-17.836 17.282h-6.93c-11.563 0-17.146-7.708-17.146-17.282z" id="path4467" opacity="1" fill="url(#linearGradient4471)" fill-opacity="1" stroke="none" stroke-width="1.1" stroke-linecap="square" stroke-linejoin="bevel" stroke-miterlimit="4" stroke-dasharray="none" stroke-dashoffset="0" stroke-opacity=".078"/><path d="M19.781 2.965h8.495c13.908 0 16.805 11.246 16.805 17.282v7.123c0 5.96-2.705 17.282-17.837 17.282h-6.93c-11.563 0-17.146-7.708-17.146-17.282v-7.123c0-9.575 5.47-17.282 16.613-17.282z" id="path4469" opacity="1" fill="url(#linearGradient1258)" fill-opacity="1" stroke="#000" stroke-width=".334" stroke-linecap="square" stroke-linejoin="bevel" stroke-miterlimit="4" stroke-dasharray="none" stroke-dashoffset="0" stroke-opacity=".078"/><g id="g2406" transform="matrix(.62825 0 0 .61982 -1.149 -139.246)" color="#000" visibility="visible" fill-opacity="1" fill-rule="nonzero" stroke="none" stroke-width=".526"><path style="marker:none" d="M60.858 289.59c3.652-23.468-6.16-31.143-4.332-34.288 1.33-2.281 7.212-1.258 7.212-1.258-4.592-3.837-8.686-4.008-12.627-3.006-4.8-7.258-24.433-16.836-32.496-3.609 0 0-4.62 1.526-4.244 3.225.371 1.662 7.305-.786 17.15 3.864-.582 6.793 2.428 11.133 7.97 13.742-1.515-2.706-3.668-5.2-1.48-9.6 6.986 4.575 10.554 10.468 13.57 16.38-.675-6.116-6.734-21.298-25.948-25.721 15.272-12.474 37.403 15.241 35.225 40.272z" id="path2370" display="inline" overflow="visible" opacity=".3" fill="#442424" filter="url(#filter2400)" enable-background="accumulate"/><path id="path3095" d="M60.858 289.59c3.652-23.468-6.16-31.143-4.332-34.288 1.33-2.281 7.212-1.258 7.212-1.258-4.592-3.837-8.686-4.008-12.627-3.006-4.8-7.258-24.433-16.836-32.496-3.609 0 0-4.62 1.526-4.244 3.225.371 1.662 7.305-.786 17.15 3.864-.582 6.793 2.428 11.133 7.97 13.742-1.515-2.706-3.668-5.2-1.48-9.6 6.986 4.575 10.554 10.468 13.57 16.38-.675-6.116-6.734-21.298-25.948-25.721 15.272-12.474 37.403 15.241 35.225 40.272z" style="marker:none" display="inline" overflow="visible" fill="#f9f9f9" enable-background="accumulate"/></g></svg>