<svg xmlns:osb="http://www.openswatchbook.org/uri/2009/osb" xmlns="http://www.w3.org/2000/svg" xmlns:xlink="http://www.w3.org/1999/xlink" width="48" height="48" version="1.1" id="svg38"><defs id="defs22"><linearGradient id="linearGradient4488"><stop id="stop4490" offset="0" stop-color="#000" stop-opacity=".047"/><stop id="stop4492" offset="1" stop-color="#000" stop-opacity="0"/></linearGradient><style id="style4511"/><style id="style4511-26"/><style id="style4511-9"/><style id="style4552"/><style id="style4511-2"/><linearGradient osb:paint="solid" id="linearGradient5293"><stop id="stop5295" offset="0" stop-color="#9a89c0" stop-opacity="1"/></linearGradient><linearGradient osb:paint="solid" id="linearGradient5251"><stop id="stop5253" offset="0" stop-color="#2f343f" stop-opacity="1"/></linearGradient><style id="style4511-8"/><style id="style4511-26-4"/><style id="style4511-9-8"/><style id="style4552-5"/><style id="style4511-2-5"/><style id="style4511-87"/><style id="style4511-26-7"/><style id="style4511-9-1"/><style id="style4552-83"/><style id="style4511-2-6"/><linearGradient y2="79.008" x2="287.575" y1="141.785" x1="288.112" gradientTransform="matrix(.306 0 0 .3075 -63.355 1.95)" gradientUnits="userSpaceOnUse" id="linearGradient4548" xlink:href="#linearGradient4488"/><style id="style4511-8-9"/><style id="style4511-26-4-3"/><style id="style4511-9-7"/><style id="style4552-3"/><style id="style4511-2-8"/><style id="style4552-7"/><style id="style4552-6"/><style id="style4552-73"/><style id="style4552-2"/><style id="style4511-7"/><style id="style4511-26-1"/><style id="style4511-9-4"/><style id="style4552-8"/><style id="style4511-2-5-5"/></defs><style id="style4485" type="text/css"/><style type="text/css" id="style4485-4"/><style type="text/css" id="style4485-9"/><style id="style4485-0" type="text/css"/><style type="text/css" id="style4485-4-0"/><style type="text/css" id="style4485-5"/><style type="text/css" id="style4485-3"/><style type="text/css" id="style4485-5-1"/><style type="text/css" id="style4485-1"/><path id="path4532" d="M2.76 26.472v1.689c0 9.69 5.623 17.493 17.27 17.493h6.98c15.242 0 17.966-11.461 17.966-17.493v-1.689c0 6.032-2.724 17.493-17.966 17.493h-6.98c-11.647 0-17.27-7.802-17.27-17.493z" opacity="1" fill="url(#linearGradient4548)" fill-opacity="1" stroke="none" stroke-width="1.111" stroke-linecap="square" stroke-linejoin="bevel" stroke-miterlimit="4" stroke-dasharray="none" stroke-dashoffset="0" stroke-opacity=".078"/><path id="path4534" d="M19.493 2.708h8.557c14.008 0 16.926 11.384 16.926 17.492v7.21c0 6.032-2.724 17.493-17.966 17.493h-6.98c-11.647 0-17.27-7.802-17.27-17.493V20.2c0-9.69 5.51-17.492 16.733-17.492z" opacity="1" fill="#2c9bff" fill-opacity="1" stroke="#000" stroke-width=".337" stroke-linecap="square" stroke-linejoin="bevel" stroke-miterlimit="4" stroke-dasharray="none" stroke-dashoffset="0" stroke-opacity=".078"/><path d="M9.052 15.347v-4.245c0-.094.42-.155.93-.137l27.837 1.024c.514.02.93.111.93.205v4.246c0 .083-.376.136-.825.12L9.877 15.528c-.456-.017-.825-.096-.825-.18z" id="path25-7" fill="#ff8c45" fill-opacity="1" fill-rule="evenodd" stroke="none" stroke-width="1.01"/><path d="M8.574 19.246l-.39-5.408c-.009-.12.416-.256.94-.304l28.62-2.607c.528-.048.963.01.972.13l.39 5.408c.008.106-.372.226-.835.269L9.436 19.36c-.468.043-.854-.007-.862-.114z" id="path25-3" fill="#ccc" fill-rule="evenodd" stroke="none" stroke-width="1.01"/><path d="M7.544 19.625v-4.87c0-.107.456-.195 1.01-.195h30.22c.558 0 1.01.088 1.01.195v4.87c0 .095-.408.172-.896.172H8.44c-.495 0-.896-.076-.896-.172z" id="path25" fill="#edf5f6" fill-rule="evenodd" stroke="none" stroke-width="1.01"/><path d="M5.165 12.397zM4.393 14.6zm38.21-2.203zm.771 2.203zM3.652 17.13zm-.8 2.494c-.039.498.026.982-.061 1.49l42.064-.062c-.086-.507.07-.96-.03-1.459z" id="path19-4" opacity=".1" fill="#000" fill-opacity="1" fill-rule="evenodd" stroke="none" stroke-width=".983"/><g id="g2427" transform="translate(.224)" fill="#fff" stroke-width=".49"><path id="path2389" d="M24.689 24.449l-2.592.231v9.917l2.577-.363v-4.193l3.609 4.66 3.064-.933-4.095-4.193 4.124-4.194-3.093-.932-3.609 4.66v-4.66z"/><path id="path2391" d="M18.85 27.246a.157.157 0 0 0-.09.031l-1.1.988a.115.115 0 0 0-.017.155l1.17 1.733a4.857 4.857 0 0 0-.631 1.313l-2.158.402a.137.137 0 0 0-.113.13v1.394c0 .059.05.109.113.123l2.093.456c.131.526.354 1.02.649 1.47l-1.22 1.667a.119.119 0 0 0 .019.16l1.098.987a.154.154 0 0 0 .175.017l1.904-1.038c.47.254.983.448 1.528.57l.444 1.92c.014.06.07.102.137.102h1.554a.14.14 0 0 0 .137-.096l.527-1.931a5.951 5.951 0 0 0 1.534-.6l1.912 1.126c.056.033.13.026.178-.016l1.093-.986c.047-.042.058-.106.024-.156l-.746-1.105-.245.07a.092.092 0 0 1-.096-.033l-.416-.508c-.086-.118-.502-.67-.931-1.177-.677 1.311-2.133 2.15-3.733 2.15-2.278 0-4.124-1.668-4.124-3.727.002-1.414.732-2.67 2.062-3.3v-1.506c-.287.096-.477.215-.74.351l-1.903-1.118a.14.14 0 0 0-.089-.018z"/></g></svg>