<svg xmlns:osb="http://www.openswatchbook.org/uri/2009/osb" xmlns="http://www.w3.org/2000/svg" xmlns:xlink="http://www.w3.org/1999/xlink" width="48" height="48" version="1.1" id="svg38"><defs id="defs22"><linearGradient id="linearGradient4488"><stop id="stop4490" offset="0" stop-color="#000" stop-opacity=".047"/><stop id="stop4492" offset="1" stop-color="#000" stop-opacity="0"/></linearGradient><style id="style4511"/><style id="style4511-26"/><style id="style4511-9"/><style id="style4552"/><style id="style4511-2"/><linearGradient xlink:href="#linearGradient4488" id="linearGradient4540" gradientUnits="userSpaceOnUse" gradientTransform="matrix(.30902 0 0 .31307 -64.017 1.97)" x1="288.112" y1="141.785" x2="287.575" y2="79.008"/><linearGradient osb:paint="solid" id="linearGradient5293"><stop id="stop5295" offset="0" stop-color="#9a89c0" stop-opacity="1"/></linearGradient><clipPath id="clipPath-040303870"/></defs><style id="style4485" type="text/css"/><path id="path4518" d="M19.649 2.742h8.64c14.148 0 17.094 11.59 17.094 17.81v7.34c0 6.141-2.75 17.81-18.143 17.81h-7.05c-11.76 0-17.44-7.944-17.44-17.81v-7.34c0-9.867 5.564-17.81 16.899-17.81z" opacity="1" fill="#b64732" fill-opacity="1" stroke="#000" stroke-width=".342" stroke-linecap="square" stroke-linejoin="bevel" stroke-miterlimit="4" stroke-dasharray="none" stroke-dashoffset="0" stroke-opacity=".078"/><path id="path4516" d="M2.75 26.937v1.72c0 9.866 5.68 17.809 17.44 17.809h7.05c15.392 0 18.143-11.668 18.143-17.81v-1.72c0 6.142-2.75 17.81-18.143 17.81h-7.05c-11.76 0-17.44-7.943-17.44-17.81z" opacity="1" fill="url(#linearGradient4540)" fill-opacity="1" stroke="none" stroke-width="1.126" stroke-linecap="square" stroke-linejoin="bevel" stroke-miterlimit="4" stroke-dasharray="none" stroke-dashoffset="0" stroke-opacity=".078"/><path id="path1319" d="M12.41 12.417a9.956 11.066 0 0 0-8.322 4.973v12.256a9.956 11.066 0 0 0 8.323 4.973c5.517 0 9.987-4.969 9.987-11.101 0-6.132-4.47-11.1-9.987-11.1m.052 2.688c4.161 0 7.515 3.728 7.515 8.353 0 4.621-3.354 8.38-7.515 8.38s-7.54-3.758-7.54-8.38c0-4.625 3.381-8.353 7.54-8.353m0 0" fill="#ecedf1" fill-opacity="1" fill-rule="nonzero" stroke="none" stroke-width=".877"/><path id="path1321" d="M35.714 12.417c-5.517 0-9.987 4.969-9.987 11.101 0 6.132 4.47 11.1 9.987 11.1 3.482 0 6.535-1.972 8.323-4.972V17.39a9.956 11.066 0 0 0-8.323-4.973m0 2.776c4.139 0 7.49 3.727 7.49 8.325 0 4.6-3.353 8.325-7.49 8.325-4.139 0-7.49-3.727-7.49-8.325 0-4.6 3.354-8.325 7.49-8.325m0 0" fill="#ecedf1" fill-opacity="1" fill-rule="nonzero" stroke="none" stroke-width=".877"/></svg>