<svg xmlns:osb="http://www.openswatchbook.org/uri/2009/osb" xmlns="http://www.w3.org/2000/svg" xmlns:xlink="http://www.w3.org/1999/xlink" width="48" height="48" version="1.1" id="svg38"><defs id="defs22"><linearGradient id="linearGradient4488"><stop id="stop4490" offset="0" stop-color="#000" stop-opacity=".047"/><stop id="stop4492" offset="1" stop-color="#000" stop-opacity="0"/></linearGradient><style id="style4511"/><style id="style4511-26"/><style id="style4511-9"/><style id="style4552"/><style id="style4511-2"/><linearGradient xlink:href="#linearGradient4488" id="linearGradient4540" gradientUnits="userSpaceOnUse" gradientTransform="matrix(.30902 0 0 .3057 -64.017 1.989)" x1="288.112" y1="141.785" x2="287.575" y2="79.008"/><linearGradient osb:paint="solid" id="linearGradient5293"><stop id="stop5295" offset="0" stop-color="#9a89c0" stop-opacity="1"/></linearGradient><linearGradient xlink:href="#linearGradient-1-3" id="linearGradient1535" x1="2.583" y1="23.586" x2="44.83" y2="23.586" gradientUnits="userSpaceOnUse" gradientTransform="matrix(1.0172 0 0 1.00623 -.047 -.017)"/><linearGradient id="linearGradient-1-3" y2="45" x2="24" y1="3" x1="24" gradientUnits="userSpaceOnUse" gradientTransform="translate(-60 .83)"><stop id="stop473" offset="0%" stop-color="#FF8E00"/><stop id="stop475" offset="100%" stop-color="#F08805"/></linearGradient></defs><style id="style4485" type="text/css"/><path id="path4516" d="M2.75 26.367v1.679c0 9.634 5.68 17.39 17.44 17.39h7.05c15.392 0 18.143-11.394 18.143-17.39v-1.68c0 5.997-2.75 17.39-18.143 17.39h-7.05c-11.76 0-17.44-7.755-17.44-17.39z" opacity="1" fill="url(#linearGradient4540)" fill-opacity="1" stroke="none" stroke-width="1.113" stroke-linecap="square" stroke-linejoin="bevel" stroke-miterlimit="4" stroke-dasharray="none" stroke-dashoffset="0" stroke-opacity=".078"/><path id="path4518" d="M19.649 2.742h8.64c14.148 0 17.094 11.317 17.094 17.39V27.3c0 5.996-2.75 17.39-18.143 17.39h-7.05c-11.76 0-17.44-7.756-17.44-17.39v-7.168c0-9.634 5.564-17.39 16.899-17.39z" opacity="1" fill="url(#linearGradient1535)" fill-opacity="1" stroke="#000" stroke-width=".338" stroke-linecap="square" stroke-linejoin="bevel" stroke-miterlimit="4" stroke-dasharray="none" stroke-dashoffset="0" stroke-opacity=".078"/><g id="g489" transform="matrix(.94808 0 0 .90787 1.168 2.396)"><g transform="matrix(.857 0 0 .8913 55.004 2.689)" id="g530" fill-rule="evenodd"><rect rx="2" height="11" width="12" y="8.831" x="-42" id="Rectangle" fill="#fff" stroke="none" stroke-width="1"/><rect rx="2" height="11" width="13" y="26.831" x="-52" id="rect483" fill="#fff" stroke="none" stroke-width="1"/><path id="Line" d="M-38.5 19.33l-5 8" fill="none" stroke="#fff" stroke-width="2" stroke-linecap="square"/><path id="path486" d="M-33.5 19.33l5 8" fill="none" stroke="#fff" stroke-width="2" stroke-linecap="square"/><rect rx="2" height="11" width="13" y="26.831" x="-33" id="rect488" fill="#fff" stroke="none" stroke-width="1"/></g></g></svg>