<svg xmlns="http://www.w3.org/2000/svg" xmlns:xlink="http://www.w3.org/1999/xlink" width="48" height="48" version="1.1" id="svg38"><defs id="defs22"><linearGradient id="linearGradient4488"><stop id="stop4490" offset="0" stop-color="#000" stop-opacity=".047"/><stop id="stop4492" offset="1" stop-color="#000" stop-opacity="0"/></linearGradient><style id="style4511"/><style id="style4511-26"/><style id="style4511-9"/><style id="style4552"/><style id="style4511-2"/><linearGradient xlink:href="#linearGradient4488" id="linearGradient4546" gradientUnits="userSpaceOnUse" gradientTransform="matrix(.31 0 0 .31201 -64.266 2.12)" x1="288.112" y1="141.785" x2="287.575" y2="79.008"/></defs><style id="style4485" type="text/css"/><path d="M2.713 27.003v1.713c0 9.833 5.697 17.75 17.496 17.75h7.072c15.442 0 18.2-11.63 18.2-17.75v-1.713c0 6.12-2.758 17.749-18.2 17.749H20.21c-11.799 0-17.496-7.916-17.496-17.75z" id="path4528" opacity="1" fill="url(#linearGradient4546)" fill-opacity="1" stroke="none" stroke-width="1.126" stroke-linecap="square" stroke-linejoin="bevel" stroke-miterlimit="4" stroke-dasharray="none" stroke-dashoffset="0" stroke-opacity=".078"/><path d="M19.666 2.89h8.668c14.192 0 17.148 11.55 17.148 17.749v7.316c0 6.12-2.76 17.749-18.201 17.749h-7.072c-11.798 0-17.496-7.916-17.496-17.75V20.64c0-9.833 5.582-17.75 16.953-17.75z" id="path4530" opacity="1" fill="#75aa03" fill-opacity="1" stroke="#000" stroke-width=".342" stroke-linecap="square" stroke-linejoin="bevel" stroke-miterlimit="4" stroke-dasharray="none" stroke-dashoffset="0" stroke-opacity=".078"/><g id="g1245" transform="matrix(1.02043 0 0 1.00635 -.492 2.05)"><g transform="matrix(.26107 0 0 .26093 78.592 4.046)" id="g1202"><g id="g1149" transform="matrix(.33454 0 0 .32814 -294.543 -6.367)" stroke="#fff" stroke-linecap="round"><path d="M107 212v106m299-106v106m-107 66v56m-85-56v56" id="path1145" stroke-width="58"/><path d="M203 88l-17-32m123 32l18-32" id="path1147" stroke-width="8"/></g><path d="M-208.566 18.572c-25.426 0-38.473 19.688-38.473 34.454h76.61c0-15.422-14.05-34.126-38.137-34.454zm-38.473 37.736v53.814c0 5.25 4.35 9.516 9.368 9.516h57.54c5.353 0 9.702-4.266 9.702-9.516V56.308z" id="path1151" fill="#fff" stroke-width=".331"/><g id="g1157" transform="matrix(.33454 0 0 .32814 -294.543 -6.367)" fill="#a4c639"><circle cx="204" cy="130" r="9" id="circle1153"/><circle cx="309" cy="130" r="9" id="circle1155"/></g></g><path id="rect1214" opacity="1" fill="#75aa03" fill-opacity="1" stroke="none" stroke-width=".773" stroke-opacity="1" d="M14.489 35.271h18.62v7.267h-18.62z"/></g><g id="g1187" transform="translate(-.636 -.729)"><g transform="matrix(1.14405 0 0 1.15421 -3.247 -2.98)" id="g1283" fill-opacity="1" stroke="none" stroke-opacity="1"><ellipse id="path1247" cx="24.457" cy="28.419" rx="5.142" ry="4.998" opacity="1" fill="#75aa03" stroke-width="1.5"/><ellipse id="path1249" cx="24.457" cy="28.419" rx="1.856" ry="1.774" opacity="1" fill="#e6e6e6" stroke-width="1.869"/></g></g></svg>