<svg xmlns="http://www.w3.org/2000/svg" xmlns:xlink="http://www.w3.org/1999/xlink" width="48" height="48" version="1.1" id="svg38"><defs id="defs22"><linearGradient id="linearGradient4488"><stop id="stop4490" offset="0" stop-color="#000" stop-opacity=".047"/><stop id="stop4492" offset="1" stop-color="#000" stop-opacity="0"/></linearGradient><style id="style4511"/><style id="style4511-26"/><style id="style4511-9"/><style id="style4552"/><style id="style4511-2"/><linearGradient gradientTransform="translate(-63.205 2.216) scale(.3038)" xlink:href="#linearGradient4488" id="linearGradient4160" x1="288.112" y1="141.785" x2="287.575" y2="79.008" gradientUnits="userSpaceOnUse"/></defs><style id="style4485" type="text/css"/><g id="g376" fill-opacity="1"><path id="rect4144" d="M19.046 2.965h8.495c13.908 0 16.805 11.246 16.805 17.282v7.123c0 5.96-2.704 17.282-17.837 17.282h-6.93c-11.562 0-17.146-7.708-17.146-17.282v-7.123c0-9.575 5.47-17.282 16.613-17.282z" opacity="1" fill="#0099e5" stroke="#000" stroke-width=".334" stroke-linecap="square" stroke-linejoin="bevel" stroke-miterlimit="4" stroke-dasharray="none" stroke-dashoffset="0" stroke-opacity=".078"/><path id="path4147" d="M2.433 26.443v1.668c0 9.575 5.583 17.282 17.146 17.282h6.93c15.133 0 17.837-11.322 17.837-17.282v-1.668c0 5.96-2.704 17.282-17.837 17.282h-6.93c-11.563 0-17.146-7.708-17.146-17.282z" opacity="1" fill="url(#linearGradient4160)" stroke="none" stroke-width="1.1" stroke-linecap="square" stroke-linejoin="bevel" stroke-miterlimit="4" stroke-dasharray="none" stroke-dashoffset="0" stroke-opacity=".078"/><g transform="matrix(1.07174 0 0 1.10373 -2.237 -2.93)" id="g1342" fill-rule="nonzero" stroke="none" stroke-width="1.049"><path id="path1198" d="M23.911 17.141l-8.08 4.572v10.48l8.08-4.604 8.08 4.603v-10.48m-8.08-4.57" fill="#b3b3b3"/><path id="path1200" d="M31.99 32.18V21.725l-8.079-4.575v10.455m8.08 4.575" fill="#cdcccc"/><path id="path1202" d="M15.831 21.724v10.467l8.08 4.564 8.08-4.564V21.724l-8.08 4.564m-8.08-4.564" fill="#cdcccc"/><path id="path1204" d="M31.99 21.724V32.18l-8.079 4.575V26.299m8.08-4.575" fill="#b3b3b3"/><path id="path1206" d="M15.831 21.724l-5.386 4.248 8.08 4.899 5.386-4.572m-8.08-4.575" fill="#e6e6e6"/><path id="path1208" d="M31.99 21.724l5.387 4.248-8.08 4.899-5.386-4.572m8.08-4.575" fill="#e6e6e6"/><path id="path1210" d="M10.445 17.15l5.386 4.574 8.08-4.575-5.724-4.902m-7.743 4.902" fill="#e6e6e6"/><path id="path1212" d="M37.377 17.15l-5.386 4.574-8.08-4.575 5.724-4.902m7.743 4.902" fill="#ececec"/></g></g></svg>