<svg xmlns="http://www.w3.org/2000/svg" xmlns:xlink="http://www.w3.org/1999/xlink" width="48" height="48" version="1.1" id="svg38"><defs id="defs22"><linearGradient id="linearGradient1156"><stop offset="0" id="stop1152" stop-color="#d359a3" stop-opacity="1"/><stop offset="1" id="stop1154" stop-color="#d359a3" stop-opacity="0"/></linearGradient><linearGradient id="linearGradient1220"><stop offset="0" id="stop1216" stop-color="#c83aff" stop-opacity="1"/><stop offset="1" id="stop1218" stop-color="#c83aff" stop-opacity="0"/></linearGradient><linearGradient id="linearGradient4488"><stop id="stop4490" offset="0" stop-color="#000" stop-opacity=".047"/><stop id="stop4492" offset="1" stop-color="#000" stop-opacity="0"/></linearGradient><style id="style4511"/><style id="style4511-26"/><style id="style4511-9"/><style id="style4552"/><style id="style4511-2"/><linearGradient xlink:href="#linearGradient4488" id="linearGradient4546" gradientUnits="userSpaceOnUse" gradientTransform="translate(-62.497 1.994) scale(.3038)" x1="288.112" y1="141.785" x2="287.575" y2="79.008"/><linearGradient xlink:href="#linearGradient1220" id="linearGradient1222" x1="13.242" y1="12.814" x2="31.301" y2="12.814" gradientUnits="userSpaceOnUse"/><linearGradient xlink:href="#linearGradient1156" id="linearGradient1160" x1="13.242" y1="12.814" x2="31.301" y2="12.814" gradientUnits="userSpaceOnUse"/></defs><style id="style4485" type="text/css"/><g id="g1182" fill-opacity="1"><path id="path4528" d="M3.141 26.22v1.67c0 9.573 5.583 17.281 17.146 17.281h6.93c15.133 0 17.837-11.322 17.837-17.282v-1.668c0 5.96-2.704 17.282-17.837 17.282h-6.93c-11.563 0-17.146-7.708-17.146-17.282z" opacity="1" fill="url(#linearGradient4546)" stroke="none" stroke-width="1.1" stroke-linecap="square" stroke-linejoin="bevel" stroke-miterlimit="4" stroke-dasharray="none" stroke-dashoffset="0" stroke-opacity=".078"/><path id="path4530" d="M19.754 2.742h8.495c13.908 0 16.805 11.247 16.805 17.282v7.124c0 5.96-2.704 17.282-17.837 17.282h-6.93c-11.562 0-17.146-7.708-17.146-17.282v-7.124c0-9.574 5.47-17.282 16.613-17.282z" opacity="1" fill="#feecec" stroke="#000" stroke-width=".334" stroke-linecap="square" stroke-linejoin="bevel" stroke-miterlimit="4" stroke-dasharray="none" stroke-dashoffset="0" stroke-opacity=".078"/><g transform="matrix(1 0 0 .97293 .508 1.555)" id="g1237"><path id="path1156" d="M28.881 19.424l-9.03 2.42-6.61-6.611 2.42-9.03 9.03-2.42 6.61 6.611z" transform="rotate(-13.953 28.55 7.976)" fill="url(#linearGradient1222)"/><path id="path1156-3" d="M28.881 19.424l-9.03 2.42-6.61-6.611 2.42-9.03 9.03-2.42 6.61 6.611z" transform="rotate(-13.953 84.974 51.1)" fill="#ff3aff"/><path id="path1156-6" d="M28.881 19.424l-9.03 2.42-6.61-6.611 2.42-9.03 9.03-2.42 6.61 6.611z" transform="rotate(-13.953 94.588 -19.28)" fill="#ff46ff"/></g><path id="path1155" d="M28.881 19.424l-9.03 2.42-6.61-6.611 2.42-9.03 9.03-2.42 6.61 6.611z" transform="matrix(-.9705 .2346 -.24112 -.94422 48.835 22.23)" fill="url(#linearGradient1160)"/><path id="path1157" d="M28.881 19.424l-9.03 2.42-6.61-6.611 2.42-9.03 9.03-2.42 6.61 6.611z" transform="matrix(.9705 -.2346 .24112 .94422 -9.306 22.956)" fill="#d359a3"/><path id="path1159" d="M28.881 19.424l-9.03 2.42-6.61-6.611 2.42-9.03 9.03-2.42 6.61 6.611z" transform="matrix(.9705 -.2346 .24112 .94422 7.948 23.19)" fill="#d359a3"/></g></svg>