<svg xmlns="http://www.w3.org/2000/svg" xmlns:xlink="http://www.w3.org/1999/xlink" width="48" height="48" version="1.1" id="svg38"><defs id="defs22"><linearGradient id="linearGradient4488"><stop id="stop4490" offset="0" stop-color="#000" stop-opacity=".047"/><stop id="stop4492" offset="1" stop-color="#000" stop-opacity="0"/></linearGradient><style id="style4511"/><style id="style4511-26"/><style id="style4511-9"/><style id="style4552"/><style id="style4511-2"/><linearGradient xlink:href="#linearGradient4488" id="linearGradient4548" gradientUnits="userSpaceOnUse" gradientTransform="matrix(.30791 0 0 .30817 -63.719 1.983)" x1="288.112" y1="141.785" x2="287.575" y2="79.008"/></defs><style id="style4485" type="text/css"/><g id="g1193" fill-opacity="1"><path d="M2.808 26.558v1.693c0 9.712 5.66 17.53 17.378 17.53h7.025c15.337 0 18.077-11.485 18.077-17.53v-1.693c0 6.045-2.74 17.53-18.077 17.53h-7.025c-11.719 0-17.378-7.818-17.378-17.53z" id="path4532" opacity="1" fill="url(#linearGradient4548)" stroke="none" stroke-width="1.115" stroke-linecap="square" stroke-linejoin="bevel" stroke-miterlimit="4" stroke-dasharray="none" stroke-dashoffset="0" stroke-opacity=".078"/><path d="M19.647 2.742h8.61c14.096 0 17.032 11.409 17.032 17.53V27.5c0 6.045-2.741 17.53-18.079 17.53h-7.023c-11.72 0-17.379-7.818-17.379-17.53v-7.226c0-9.712 5.545-17.53 16.839-17.53z" id="path4534" opacity="1" fill="#ececec" stroke="#000" stroke-width=".339" stroke-linecap="square" stroke-linejoin="bevel" stroke-miterlimit="4" stroke-dasharray="none" stroke-dashoffset="0" stroke-opacity=".078"/><path id="path1217" d="M15.549 12.386c-.554 0-1 .446-1 1v7h-3l8 7 3.883-3.398c-.855-.64-1.974-1.734-2.758-2.986-1.247-1.992-2.125-3.515-2.125-7.615 0-.554-.446-1-1-1h-2zm6 0c-.554 0-1 .446-1 1v2.6c0 3.753 1.796 6.257 3.463 7.494l3.537-3.094h-3v-7c0-.554-.446-1-1-1zm8 9l-3.883 3.398c.855.64 1.974 1.734 2.758 2.986 1.247 1.992 2.125 3.515 2.125 7.615 0 .554.446 1 1 1h2c.554 0 1-.446 1-1v-7h3l-8-7zm-4.463 3.906l-3.537 3.094h3v7c0 .554.446 1 1 1h2c.554 0 1-.446 1-1v-2.6c0-3.753-1.796-6.257-3.463-7.494z" opacity=".1" fill="#000" stroke="none"/><path id="path1219" d="M14.549 11.386c-.554 0-1 .446-1 1v7h-3l8 7 3.883-3.398c-.855-.64-1.974-1.734-2.758-2.986-1.247-1.992-2.125-3.515-2.125-7.615 0-.554-.446-1-1-1" opacity="1" fill="#d89f54" stroke="none"/><path id="path1221" d="M20.549 11.386c-.554 0-1 .446-1 1v2.6c0 3.753 1.796 6.257 3.463 7.494l3.537-3.094h-3v-7c0-.554-.446-1-1-1z" opacity="1" fill="#646464" stroke="none"/><path id="path1223" d="M14.549 12.386v8h-1.34l5.34 4.672 2.465-2.156c-.755-.682-1.553-1.356-2.188-2.37-1.257-2.01-2.277-3.901-2.277-8.144z" opacity="1" fill="#c3822d" stroke="none"/><path id="path1225" d="M20.549 12.386v2.6c0 3.01 1.282 4.913 2.553 6.088l.785-.688h-1.338v-8z" opacity="1" fill="#464646" stroke="none"/><path id="path1227" d="M32.548 35.386c.554 0 1-.446 1-1v-7h3l-8-7-3.883 3.398c.855.64 1.974 1.734 2.758 2.986 1.247 1.992 2.125 3.515 2.125 7.615 0 .554.446 1 1 1" opacity="1" fill="#646464" stroke="none"/><path id="path1229" d="M26.549 35.386c.554 0 1-.446 1-1v-2.6c0-3.753-1.796-6.257-3.463-7.494l-3.537 3.094h3v7c0 .554.446 1 1 1z" opacity="1" fill="#d89f54" stroke="none"/><path id="path1231" d="M32.548 34.386v-8h1.34l-5.34-4.672-2.464 2.156c.755.682 1.553 1.356 2.188 2.369 1.257 2.01 2.277 3.902 2.277 8.145l2 .002" opacity="1" fill="#464646" stroke="none"/><path id="path1233" d="M26.549 34.386v-2.6c0-3.01-1.282-4.913-2.553-6.088l-.785.688h1.338v8z" opacity="1" fill="#c3822d" stroke="none"/></g></svg>