<svg xmlns="http://www.w3.org/2000/svg" xmlns:xlink="http://www.w3.org/1999/xlink" width="48" height="48" version="1.1" id="svg38"><defs id="defs22"><style id="style4511"/><style id="style4511-26"/><style id="style4511-9"/><linearGradient id="linearGradient4217"><stop id="stop12-5" offset="0" stop-color="#1f93b9" stop-opacity="1"/><stop id="stop14-5" offset="1" stop-color="#1a5c9b" stop-opacity="1"/></linearGradient><style id="style4552"/><style id="style4511-2"/><radialGradient xlink:href="#linearGradient4217" id="radialGradient1384" cx="24.083" cy="24.405" fx="24.083" fy="24.405" r="21.428" gradientTransform="matrix(1 0 0 .99497 0 .123)" gradientUnits="userSpaceOnUse"/></defs><style id="style4485" type="text/css"/><path d="M19.677 3.253h8.618c14.108 0 17.047 11.413 17.047 17.537v7.229c0 6.047-2.744 17.537-18.094 17.537h-7.03c-11.73 0-17.394-7.822-17.394-17.537V20.79c0-9.715 5.549-17.537 16.853-17.537z" id="rect4144" opacity="1" fill="url(#radialGradient1384)" fill-opacity="1" stroke="#000" stroke-width=".339" stroke-linecap="square" stroke-linejoin="bevel" stroke-miterlimit="4" stroke-dasharray="none" stroke-dashoffset="0" stroke-opacity=".078"/><g id="g1374" transform="matrix(1.02625 0 0 1.021 -1.705 -1.664)" fill-opacity="1" fill-rule="nonzero" stroke="none"><path d="M38.823 25.534c0 7.563-6.129 13.695-13.695 13.695-7.563 0-13.695-6.133-13.695-13.695 0-7.566 6.133-13.7 13.695-13.7 7.566 0 13.695 6.134 13.695 13.7m0 0" id="path1246" fill="#666"/><g id="g1366"><path id="path1248" d="M25.332 38.934a13.404 13.404 0 0 1-11.79-6.633 13.409 13.409 0 0 1 0-13.527 13.4 13.4 0 0 1 11.79-6.637 6.7 6.7 0 1 1 0 13.402m0 13.395" fill="#f9f9f9"/><path id="path1250" d="M31.827 32.233a6.7 6.7 0 1 1-13.4-.002 6.7 6.7 0 0 1 13.4.002m0 0" fill="#666"/><path id="path1252" d="M26.91 18.83" fill="#666"/><path id="path1254" d="M26.91 32.233a1.78 1.78 0 1 1-3.56-.005 1.78 1.78 0 0 1 3.56.005m0 0" fill="#f9f9f9"/></g></g></svg>