<svg xmlns="http://www.w3.org/2000/svg" xmlns:xlink="http://www.w3.org/1999/xlink" width="48" height="48" version="1.1" id="svg38"><defs id="defs22"><linearGradient id="linearGradient4488"><stop id="stop4490" offset="0" stop-color="#000" stop-opacity=".047"/><stop id="stop4492" offset="1" stop-color="#000" stop-opacity="0"/></linearGradient><style id="style4511"/><style id="style4511-26"/><style id="style4511-9"/><style id="style4552"/><style id="style4511-2"/><linearGradient gradientTransform="matrix(.3082 0 0 .3038 -64.056 2.216)" xlink:href="#linearGradient4488" id="linearGradient4160" x1="288.112" y1="141.785" x2="287.575" y2="79.008" gradientUnits="userSpaceOnUse"/></defs><style id="style4485" type="text/css"/><path d="M2.535 26.443v1.668c0 9.575 5.664 17.282 17.394 17.282h7.031c15.352 0 18.095-11.322 18.095-17.282v-1.668c0 5.96-2.743 17.282-18.095 17.282h-7.03c-11.73 0-17.395-7.708-17.395-17.282z" id="path4147" opacity="1" fill="url(#linearGradient4160)" fill-opacity="1" stroke="none" stroke-width="1.108" stroke-linecap="square" stroke-linejoin="bevel" stroke-miterlimit="4" stroke-dasharray="none" stroke-dashoffset="0" stroke-opacity=".078"/><path d="M19.389 2.965h8.618c14.11 0 17.048 11.246 17.048 17.282v7.123c0 5.96-2.743 17.282-18.095 17.282h-7.03c-11.73 0-17.395-7.708-17.395-17.282v-7.123c0-9.575 5.55-17.282 16.854-17.282z" id="rect4144" opacity="1" fill="#1b78ff" fill-opacity="1" stroke="#000" stroke-width=".337" stroke-linecap="square" stroke-linejoin="bevel" stroke-miterlimit="4" stroke-dasharray="none" stroke-dashoffset="0" stroke-opacity=".078"/><path d="M23.795 20.9c3.328-3.679 6.186-5.518 8.577-5.518 4.431 0 8.023 3.773 8.023 8.426 0 4.654-3.592 8.426-8.023 8.426-2.39 0-5.25-1.839-8.577-5.517-3.327 3.678-6.186 5.517-8.577 5.517-4.43 0-8.023-3.772-8.023-8.426 0-4.653 3.592-8.426 8.023-8.426 2.39 0 5.25 1.84 8.577 5.518zm-8.67 7.786c1.674 0 3.753-1.589 6.238-4.767-2.485-3.178-4.564-4.767-6.238-4.767-2.511 0-4.547 2.134-4.547 4.767 0 2.633 2.036 4.767 4.547 4.767zm17.552 0c2.51 0 4.546-2.134 4.546-4.767 0-2.633-2.035-4.767-4.546-4.767-1.674 0-3.754 1.589-6.239 4.767 2.485 3.178 4.565 4.767 6.239 4.767z" id="Combined-Shape" fill="#fff" fill-rule="evenodd" stroke="none" stroke-width=".886"/></svg>