<svg xmlns="http://www.w3.org/2000/svg" xmlns:xlink="http://www.w3.org/1999/xlink" width="48" height="48" version="1.1" id="svg38"><defs id="defs22"><linearGradient id="linearGradient4488"><stop id="stop4490" offset="0" stop-color="#000" stop-opacity=".047"/><stop id="stop4492" offset="1" stop-color="#000" stop-opacity="0"/></linearGradient><style id="style4511"/><style id="style4511-26"/><style id="style4511-9"/><style id="style4552"/><style id="style4511-2"/><linearGradient xlink:href="#linearGradient4488" id="linearGradient4540" gradientUnits="userSpaceOnUse" gradientTransform="translate(-62.889 1.994) scale(.3038)" x1="288.112" y1="141.785" x2="287.575" y2="79.008"/></defs><style id="style4485" type="text/css"/><path id="path4516" d="M2.75 26.22v1.67c0 9.573 5.583 17.281 17.146 17.281h6.93c15.132 0 17.836-11.322 17.836-17.282v-1.668c0 5.96-2.704 17.282-17.836 17.282h-6.93C8.333 43.503 2.75 35.795 2.75 26.22z" opacity="1" fill="url(#linearGradient4540)" fill-opacity="1" stroke="none" stroke-width="1.1" stroke-linecap="square" stroke-linejoin="bevel" stroke-miterlimit="4" stroke-dasharray="none" stroke-dashoffset="0" stroke-opacity=".078"/><path id="path4518" d="M19.363 2.742h8.495c13.908 0 16.804 11.247 16.804 17.282v7.124c0 5.96-2.704 17.282-17.836 17.282h-6.93C8.333 44.43 2.75 36.722 2.75 27.148v-7.124c0-9.574 5.47-17.282 16.613-17.282z" opacity="1" fill="#0b93c5" fill-opacity="1" stroke="#000" stroke-width=".334" stroke-linecap="square" stroke-linejoin="bevel" stroke-miterlimit="4" stroke-dasharray="none" stroke-dashoffset="0" stroke-opacity=".078"/><path d="M16.527 37.633c-2.359-.346-4.122-1.508-5.028-3.31-1.262-2.516-.704-6.222 1.382-9.166.187-.265.68-.83 1.095-1.256l.755-.775-.215-.549c-.72-1.836-1.02-3.21-1.094-4.998-.072-1.715.219-3.303.842-4.602.799-1.666 2.365-2.965 4.025-3.338.622-.14 1.843-.153 2.484-.027 2.317.454 4.172 2.04 5.695 4.865.62 1.152.97 2.017 1.338 3.304l.167.583.368.14c.252.097.58.166 1.047.22 1.7.197 2.954.562 4.3 1.252a8.248 8.248 0 0 1 2.265 1.645 7.857 7.857 0 0 1 2.02 3.306c.558 1.742.433 2.84-.482 4.225-.795 1.204-2.115 2.283-3.737 3.055-2.312 1.101-4.554 1.145-7.487.146-.292-.1-.603-.18-.69-.18-.184 0-.294.105-.66.635a16.521 16.521 0 0 1-1.57 1.875c-1.502 1.52-3.158 2.484-4.857 2.826-.473.095-1.652.17-1.963.124zm1.74-.915c.549-.097 1.09-.28 1.734-.583 1.468-.694 2.84-1.894 4.086-3.573.279-.376.296-.415.295-.686v-.288l-.317-.165a29.959 29.959 0 0 1-3.928-2.48c-1.76-1.321-3.57-3.016-4.328-4.05-.55-.752-.57-.77-.796-.739-.23.03-.338.122-.889.747-1.663 1.888-2.651 4.68-2.454 6.932.182 2.08 1.15 3.533 2.925 4.387 1.194.575 2.347.732 3.671.498zm12.446-4.496a8.102 8.102 0 0 0 2.912-.857c2.205-1.11 3.73-2.848 3.858-4.4.055-.667-.276-1.999-.71-2.858-.542-1.074-1.556-2.217-2.551-2.879-1.283-.851-2.957-1.447-4.678-1.664-.778-.098-1.078-.09-1.198.03-.102.101-.103.13-.055 1.269.059 1.375.005 2.743-.145 3.733-.304 2-.93 4.005-1.832 5.873-.325.672-.327.681-.163.873.306.358 2.388.858 3.85.925.084.004.405-.017.712-.045zm-5.564-1.425c.055-.029.237-.328.406-.664.817-1.63 1.384-3.381 1.735-5.359.143-.807.155-.97.178-2.466.02-1.263.008-1.735-.054-2.231a8.307 8.307 0 0 0-.094-.646c-.028-.027-1.623.124-2.175.207-2.796.419-5.418 1.379-8.026 2.94-.983.588-1.144.722-1.137.945.02.703 2.48 3.188 4.918 4.97 1.155.843 2.063 1.415 3.152 1.983.702.367.903.426 1.097.321zM16.656 21.9c3.024-1.81 6.315-2.925 9.48-3.21.833-.076.92-.119.91-.457-.008-.283-.361-1.364-.71-2.172-.678-1.571-1.74-3.177-2.688-4.062-1.316-1.229-2.937-1.802-4.626-1.636-1.11.11-1.971.523-2.843 1.366-.912.882-1.427 1.865-1.773 3.385-.15.656-.19 2.851-.068 3.693.13.903.315 1.676.617 2.587.29.874.408 1.067.65 1.067.062 0 .535-.252 1.051-.561z" id="path4467" opacity="1" fill="#fff" fill-opacity="1" stroke="none" stroke-width=".031" stroke-linecap="round" stroke-linejoin="miter" stroke-miterlimit="4" stroke-dasharray="none" stroke-opacity="1"/></svg>