<svg xmlns="http://www.w3.org/2000/svg" style="isolation:isolate" width="48" height="48"><defs><linearGradient gradientUnits="userSpaceOnUse" gradientTransform="scale(1.47752 .67681)" y2="68.497" x2="16.931" y1="39.459" x1="16.819" id="a"><stop stop-opacity="0" offset="0%"/><stop stop-opacity=".047" offset="100%"/></linearGradient></defs><path d="M19.649 2.742h8.641c14.147 0 17.093 11.59 17.093 17.81v7.34c0 6.141-2.751 17.809-18.143 17.809h-7.049c-11.762 0-17.441-7.943-17.441-17.809v-7.34c0-9.867 5.564-17.81 16.899-17.81z" vector-effect="non-scaling-stroke" fill="#e6e6e6" stroke="#000" stroke-width=".342" stroke-linecap="square" stroke-linejoin="bevel" stroke-opacity=".078"/><path d="M2.75 26.937v1.719c0 9.867 5.679 17.81 17.44 17.81h7.05c15.392 0 18.143-11.668 18.143-17.81v-1.719c0 6.141-2.751 17.809-18.143 17.809h-7.05c-11.761 0-17.44-7.943-17.44-17.809z" fill="url(#a)"/><path d="M39.207 16.396l-2.936 5.872-2.757-5.872h-4.212l4.825 9.088v4.813h3.855v-4.813l5.157-9.088z" fill="#9c0"/><path d="M32.925 25.816v-2.597c-.005-.024-.831-3.855-2.93-5.518a10.53 10.53 0 0 0-1.304-.074 8.38 8.38 0 0 0-1.103.067c-.657.088-1.223.269-1.663.575-.692.448-1.09 1.206-1.09 2.393h2.892c0-.705.069-1.362.846-1.479.081-.013.169-.019.265-.019 1.069 0 1.194.603 1.194 1.439v.759l-.104-.001c-1.615-.021-3.204.034-4.224.76-.691.492-1.121 1.292-1.121 2.586 0 1.496.576 2.768 2.091 3.066v-.001.001c.219.043.458.066.718.066.599 0 1.106-.107 1.541-.325.492-.246.891-.636 1.225-1.173h.042l.126 1.303h2.745c-.062-.603-.146-1.225-.146-1.828zm-4.36.331c-.964 0-1.09-.856-1.09-1.556 0-1.04.385-1.421 1.004-1.571.424-.103.957-.098 1.553-.121 0 .886.187 2.532-.737 3.071a1.417 1.417 0 0 1-.73.177z" fill="#fc0"/><path d="M25.704 22.121c-.423-.417-1.027-.678-1.894-.678-1.063 0-1.793.29-2.398 1.122h-.042v-5.129h-2.941v13.975h2.795v-1.084h.042c.542.948 1.356 1.277 2.482 1.277 2.432 0 2.854-2 2.926-3.831m-2.864-1.337c0 2.459-.187 3.485-1.251 3.485-1.001 0-1.189-1.026-1.189-3.485 0-1.954-.021-3.309 1.189-3.309 1.272 0 1.251 1.355 1.251 3.309z" fill="#009"/><path d="M18.429 22.055a8.272 8.272 0 0 0-1.566-.451c-1.049-.205-2.368-.317-4.032-.317-7.076 0-7.837 2.012-7.837 4.365 0 2.694.913 4.587 7.837 4.587 1.593 0 2.955-.147 4.049-.372a9.037 9.037 0 0 0 1.549-.467c.035-.014.969-.68.654-1.567-.078-.22-.654-.702-.654-.702h-1.533l-.033-.003h-1.749c0 .757-.38 1.576-2.283 1.576-2.358 0-2.434-1.535-2.434-2.558h8.032s1.641-1.692 0-4.091zm-3.125 2.744h-4.907c0-.733-.038-2.029 2.434-2.029 2.549 0 2.473 1.194 2.473 2.029z" fill="red"/><path d="M29.995 17.701l2.93 5.518v-2.305c0-1.556-.366-2.891-2.93-3.213z" fill="#990"/><path d="M26.688 26.456c0-1.397.041-3.325-.984-4.335-.691.492-1.121 1.292-1.121 2.586 0 1.496.576 2.768 2.091 3.066.018-.461.014-.912.014-1.317z" fill="#c60"/><path d="M20.588 27.131h-2.159V29.4l.104-.042c1.294-.529 1.979-1.296 2.055-2.227zm.08-.985c.122-1.756-.162-3.241-2.239-4.091v4.091z" fill="#903"/></svg>