<svg xmlns="http://www.w3.org/2000/svg" width="48" height="48" version="1.1" id="svg38"><defs id="defs22"><style id="style4511"/><style id="style4511-26"/><style id="style4511-9"/><style id="style4552"/><style id="style4511-2"/><style id="style4511-8"/><style id="style4511-26-4"/><style id="style4511-9-7"/><style id="style4552-5"/><style id="style4511-2-8"/><style id="style4552-7"/><style id="style4552-6"/><style type="text/css" id="current-color-scheme"/><style id="style4552-9"/></defs><style id="style4485" type="text/css"/><style type="text/css" id="style4485-0"/><style id="style4485-4" type="text/css"/><style id="style4485-5" type="text/css"/><style type="text/css" id="style4485-8"/><g id="g931"><g transform="translate(-.231 -.5) scale(1.02754)" id="g5145" fill="#4d4d4d" fill-opacity="1" stroke-linecap="square" stroke-linejoin="bevel" stroke-miterlimit="4" stroke-dasharray="none" stroke-dashoffset="0" stroke-opacity=".078"><path d="M2.623 26.443v1.668c0 9.575 5.583 17.282 17.145 17.282h6.93c15.133 0 17.837-11.322 17.837-17.282v-1.668c0 5.96-2.704 17.282-17.836 17.282h-6.93c-11.563 0-17.146-7.708-17.146-17.282z" id="path5147" opacity="1" stroke="none" stroke-width="1.1"/><path d="M19.236 2.965h8.495c13.908 0 16.804 11.246 16.804 17.282v7.123c0 5.96-2.704 17.282-17.836 17.282h-6.93c-11.563 0-17.146-7.708-17.146-17.282v-7.123c0-9.575 5.47-17.282 16.613-17.282z" id="path5149" opacity="1" stroke="#000" stroke-width=".334"/><path id="path5300" d="M19.236 2.965h8.495c13.908 0 16.804 11.246 16.804 17.282v7.123c0 5.96-2.704 17.282-17.836 17.282h-6.93c-11.563 0-17.146-7.708-17.146-17.282v-7.123c0-9.575 5.47-17.282 16.613-17.282z" opacity="1" stroke="#000" stroke-width=".334"/></g><g transform="matrix(.71964 0 0 .71045 .197 -162.307)" id="g873" stroke-width="1.058"><path d="M33.073 241.438a21.167 21.167 0 0 0-21.167 21.166 21.167 21.167 0 0 0 21.167 21.167v-6.35a14.817 14.817 0 0 1-14.817-14.817 14.817 14.817 0 0 1 14.817-14.816 14.817 14.817 0 0 1 14.817 14.816h6.35a21.167 21.167 0 0 0-21.167-21.166z" id="path14" fill="#fff"/><path d="M33.073 252.02a10.583 10.583 0 0 0-10.583 10.584h6.35a4.233 4.233 0 0 1 4.233-4.233 4.233 4.233 0 0 1 4.233 4.233h6.35a10.583 10.583 0 0 0-10.583-10.583z" id="path16" fill="#00adef"/></g></g></svg>