<svg xmlns:osb="http://www.openswatchbook.org/uri/2009/osb" xmlns="http://www.w3.org/2000/svg" xmlns:xlink="http://www.w3.org/1999/xlink" width="48" height="48" version="1.1" id="svg38"><defs id="defs22"><style id="style4511"/><style id="style4511-26"/><style id="style4511-9"/><style id="style4552"/><style id="style4511-2"/><linearGradient osb:paint="solid" id="linearGradient5293"><stop id="stop5295" offset="0" stop-color="#9a89c0" stop-opacity="1"/></linearGradient><linearGradient gradientTransform="rotate(-90 24 24)" gradientUnits="userSpaceOnUse" x2="47" x1="1" id="linearGradient3764"><stop offset="0" id="stop7-367" stop-color="#826eb2" stop-opacity="1"/><stop id="stop9-535" offset="1" stop-color="#cbc1de" stop-opacity="1"/></linearGradient><linearGradient xlink:href="#linearGradient3764" id="linearGradient1498" x1="2.583" y1="23.586" x2="45.236" y2="23.586" gradientUnits="userSpaceOnUse"/></defs><style id="style4485" type="text/css"/><g id="g572" fill-opacity="1"><path d="M19.524 2.743h8.578c14.042 0 16.966 11.246 16.966 17.282v7.122c0 5.96-2.73 17.282-18.009 17.282h-6.997c-11.674 0-17.311-7.707-17.311-17.282v-7.122c0-9.575 5.523-17.282 16.773-17.282z" id="path4518" opacity="1" fill="url(#linearGradient1498)" stroke="#000" stroke-width=".336" stroke-linecap="square" stroke-linejoin="bevel" stroke-miterlimit="4" stroke-dasharray="none" stroke-dashoffset="0" stroke-opacity=".078"/><g transform="translate(-.144)" id="g565" stroke="none"><path id="path591" d="M25.292 9.72h.005c7.387 0 13.335 6.185 13.335 13.869v.004c0 7.68-5.948 13.865-13.335 13.865h-.005c-7.384 0-13.33-6.186-13.33-13.865v-.004c0-7.684 5.947-13.87 13.33-13.87m0 0" fill="#2c2053" fill-rule="evenodd" stroke-width="1.133"/><path id="path593" d="M22.199 9.72c-7.209 0-13.012 6.185-13.012 13.869 0 7.683 5.803 13.87 13.012 13.87.368 0 .72-.041 1.084-.074-6.692-.591-11.927-6.51-11.927-13.797 0-7.292 5.235-13.21 11.927-13.798-.364-.036-.716-.076-1.084-.076m0 .004" fill="#f4941e" fill-rule="evenodd" stroke-width="1.119"/><path id="path595" d="M13.173 17.81c-.326.74-.6 1.508-.8 2.312h25.838a14.31 14.31 0 0 0-.8-2.312m-25.385 4.623c-.03.388-.07.763-.07 1.156 0 .393.039.767.07 1.156h26.532c.03-.389.07-.763.07-1.156 0-.393-.04-.768-.07-1.156m-26.185 4.623c.2.803.478 1.57.799 2.312h24.24c.325-.741.603-1.509.799-2.312m-25.837 0" fill="#f9f9f9" fill-rule="nonzero" stroke-width="1.133"/></g></g></svg>