<svg xmlns:osb="http://www.openswatchbook.org/uri/2009/osb" xmlns="http://www.w3.org/2000/svg" xmlns:xlink="http://www.w3.org/1999/xlink" width="48" height="48" version="1.1" id="svg38"><defs id="defs22"><linearGradient id="linearGradient4488"><stop id="stop4490" offset="0" stop-color="#000" stop-opacity=".047"/><stop id="stop4492" offset="1" stop-color="#000" stop-opacity="0"/></linearGradient><style id="style4511"/><style id="style4511-26"/><style id="style4511-9"/><style id="style4552"/><linearGradient id="e-1" y1="41.22" x1="24.392" y2="25.343" x2="20.643" gradientUnits="userSpaceOnUse"><stop stop-color="#334545" id="stop22-8"/><stop offset="1" stop-color="#536161" id="stop24-7"/></linearGradient><style id="style4511-2"/><linearGradient xlink:href="#linearGradient4488" id="linearGradient4540" gradientUnits="userSpaceOnUse" gradientTransform="matrix(.30902 0 0 .3038 -64.017 1.994)" x1="288.112" y1="141.785" x2="287.575" y2="79.008"/><linearGradient osb:paint="solid" id="linearGradient5293"><stop id="stop5295" offset="0" stop-color="#9a89c0" stop-opacity="1"/></linearGradient><linearGradient xlink:href="#e-1" id="linearGradient1335" x1="2.581" y1="23.586" x2="45.552" y2="23.586" gradientUnits="userSpaceOnUse"/></defs><style id="style4485" type="text/css"/><path id="path4516" d="M2.75 26.22v1.67c0 9.573 5.68 17.281 17.44 17.281h7.05c15.392 0 18.143-11.322 18.143-17.282v-1.668c0 5.96-2.75 17.282-18.143 17.282h-7.05c-11.76 0-17.44-7.708-17.44-17.282z" opacity="1" fill="url(#linearGradient4540)" fill-opacity="1" stroke="none" stroke-width="1.109" stroke-linecap="square" stroke-linejoin="bevel" stroke-miterlimit="4" stroke-dasharray="none" stroke-dashoffset="0" stroke-opacity=".078"/><path id="path4518" d="M19.649 2.742h8.64c14.148 0 17.094 11.247 17.094 17.282v7.124c0 5.96-2.75 17.282-18.143 17.282h-7.05c-11.76 0-17.44-7.708-17.44-17.282v-7.124c0-9.574 5.564-17.282 16.899-17.282z" opacity="1" fill="url(#linearGradient1335)" fill-opacity="1" stroke="#000" stroke-width=".337" stroke-linecap="square" stroke-linejoin="bevel" stroke-miterlimit="4" stroke-dasharray="none" stroke-dashoffset="0" stroke-opacity=".078"/><g transform="matrix(.97602 0 0 .94077 12.359 7.601)" id="Group-5" fill="none" fill-rule="evenodd" stroke="none" stroke-width="1"><path id="Combined-Shape" d="M5.844 26.107c-1.223-.016-2.453.59-3.212 1.716-.781 1.158-.656 3.196.377 6.115 2.972-.217 4.849-.905 5.63-2.064.775-1.149.865-2.551.357-3.692a5.177 5.177 0 0 1-.73 1.594c-.717 1.063-2.027 1.802-3.93 2.217-.49-2.03-.378-3.576.339-4.638.342-.508.746-.93 1.169-1.248z" fill="#66baea"/><path id="path1287" d="M22.883.002l.005-.009.003.008.006-.001-.004.007c2.534 6.858.679 14.714-5.566 23.568l1.292 3.341-8.724 7.073-.005-5.757-2.021-1.225.017-.03-3.147-2.04L0 28.2l1.535-11.364h3.583C8.974 6.73 14.896 1.119 22.883.002zM3.03 22.556l1.715-1.01L9.39 24.11 21.06 3.033C15.049 4.75 10.55 10.344 7.27 19.106l-3.635.304zm9.784 5.773l2.606-2.395-1.184-2.887c5.555-6.835 7.83-13.507 6.824-20.014L9.39 24.11l3.114 2.111z" fill="#66baea"/><ellipse ry="2.263" rx="2.262" cy="9.713" cx="17.009" id="Oval-8" stroke="#66baea" stroke-width="2.1"/></g></svg>