<svg xmlns="http://www.w3.org/2000/svg" xmlns:xlink="http://www.w3.org/1999/xlink" width="48" height="48" version="1.1" id="svg38"><defs id="defs22"><linearGradient id="linearGradient4488"><stop id="stop4490" offset="0" stop-color="#000" stop-opacity=".047"/><stop id="stop4492" offset="1" stop-color="#000" stop-opacity="0"/></linearGradient><style id="style4511"/><style id="style4511-26"/><style id="style4511-9"/><linearGradient id="linearGradient4217"><stop id="stop12-5" offset="0" stop-color="#1f93b9" stop-opacity="1"/><stop id="stop14-5" offset="1" stop-color="#1a5c9b" stop-opacity="1"/></linearGradient><style id="style4552"/><style id="style4511-2"/><linearGradient gradientTransform="matrix(.3082 0 0 .3038 -64.056 2.216)" xlink:href="#linearGradient4488" id="linearGradient4160" x1="288.112" y1="141.785" x2="287.575" y2="79.008" gradientUnits="userSpaceOnUse"/><radialGradient xlink:href="#linearGradient4217" id="radialGradient1411" cx="23.795" cy="23.808" fx="23.795" fy="23.808" r="21.428" gradientTransform="matrix(1 0 0 .98056 0 .463)" gradientUnits="userSpaceOnUse"/><clipPath id="clipPath-334381133"/></defs><style id="style4485" type="text/css"/><path d="M19.389 2.965h8.618c14.11 0 17.048 11.246 17.048 17.282v7.123c0 5.96-2.743 17.282-18.095 17.282h-7.03c-11.73 0-17.395-7.708-17.395-17.282v-7.123c0-9.575 5.55-17.282 16.854-17.282z" id="rect4144" opacity="1" fill="url(#radialGradient1411)" fill-opacity="1" stroke="#000" stroke-width=".337" stroke-linecap="square" stroke-linejoin="bevel" stroke-miterlimit="4" stroke-dasharray="none" stroke-dashoffset="0" stroke-opacity=".078"/><path d="M2.535 26.443v1.668c0 9.575 5.664 17.282 17.394 17.282h7.031c15.352 0 18.095-11.322 18.095-17.282v-1.668c0 5.96-2.743 17.282-18.095 17.282h-7.03c-11.73 0-17.395-7.708-17.395-17.282z" id="path4147" opacity="1" fill="url(#linearGradient4160)" fill-opacity="1" stroke="none" stroke-width="1.108" stroke-linecap="square" stroke-linejoin="bevel" stroke-miterlimit="4" stroke-dasharray="none" stroke-dashoffset="0" stroke-opacity=".078"/><path id="path1452" d="M17.587 28.336s9.775-3.699 8.842-8.545c-.93-4.847-7.292-6.575-11.4-3.782-4.112 2.792-7.992 8.628-4.58 14.297 3.416 5.674 10.088 4.605 14.275 1.148 4.193-3.448 7.526-2.137 9.155-2.708 1.628-.577 1.787-2.467-.075-3.207-1.862-.738-4.654 0-7.137 2.551-2.484 2.551-4.655 5.256-8.38 3.782-3.726-1.482-8.3-8.875-4.809-12.573 3.488-3.699 6.57-2.137 7.574.035 1 2.168.73 3.663-.67 5.629-1.395 1.97-2.792 3.368-2.792 3.368m-.004 0" fill="#fffbd6" fill-opacity="1" fill-rule="nonzero" stroke="none" stroke-width="1.127"/><path id="path1454" d="M9.833 31.132s1.704 3.039 4.65 3.945c2.95.907 4.345.822 6.283-.166 1.942-.985 4.627-2.84 6.689-3.932 1.836-.971 3.663-.971 5.5-.971 2.972 0 4.416 2.524 3.95 4.164-.468 1.645-1.243 2.63-3.646 2.63-2.405 0-1.55-2.713-5.976-1.315-4.425 1.394-9.313 2.713-12.422 1.068-3.1-1.644-5.042-5.426-5.042-5.426m.009.004" fill="#5bc8ff" fill-opacity="1" fill-rule="nonzero" stroke="none" stroke-width="1.127"/><path id="path1456" d="M25.627 24.188s1.035-1.218 1.832-2.911c.916-1.94 1.074-3.154-1.206-5.599-2.285-2.45-1.91-1.944-2.277-3.707-.356-1.763 3.404-2.34 4.271-.717.863 1.622-1.065 1.28.127 3.227 1.194 1.948 1.885 4.187.917 5.819-.969 1.63-3.664 3.883-3.664 3.883m-.004.004" fill="#ff6a5b" fill-opacity="1" fill-rule="nonzero" stroke="none" stroke-width="1.127"/><path id="path1458" d="M36.623 27.596c-.766.404-1.757 1.451-1.15 2.032.604.586 2.361.29 2.744-.461.384-.757.278-1.28-.22-1.57-.493-.291-1.37 0-1.37 0m-.004 0" fill="#66db62" fill-opacity="1" fill-rule="nonzero" stroke="none" stroke-width="1.127"/><path id="path1460" d="M29.282 21.295c1.153-1.447 1.875-3.17 2.007-4.081.132-.911.872-2.872 1.506-3.4.638-.528 2.158.255 1.775 1.333-.384 1.073-1.92 1.525-2.04 2.194-.115.673.55.962-.215 1.75-.762.783-3.033 2.204-3.033 2.204m0 0" fill="#ff9569" fill-opacity="1" fill-rule="nonzero" stroke="none" stroke-width="1.127"/></svg>