<svg xmlns="http://www.w3.org/2000/svg" xmlns:xlink="http://www.w3.org/1999/xlink" width="48" height="48" version="1.1" id="svg38"><defs id="defs22"><style id="style4511"/><style id="style4511-26"/><style id="style4511-9"/><style id="style4552"/><style id="style4511-2"/><style id="style4511-8"/><style id="style4511-26-4"/><style id="style4511-9-7"/><style id="style4552-5"/><style id="style4511-2-8"/><style id="style4552-7"/><style id="style4552-6"/><style type="text/css" id="current-color-scheme"/><style id="style4552-9"/><linearGradient id="linearGradient1664"><stop id="stop1660" offset="0" stop-color="#fff" stop-opacity="1"/><stop offset=".176" id="stop1668" stop-color="#fff" stop-opacity="1"/><stop id="stop1670" offset=".176" stop-color="#85dca8" stop-opacity="1"/><stop offset=".296" id="stop1672" stop-color="#8acaa4" stop-opacity="1"/><stop id="stop1674" offset=".296" stop-color="#fff" stop-opacity="1"/><stop offset=".424" id="stop1676" stop-color="#fff" stop-opacity="1"/><stop id="stop1678" offset=".424" stop-color="#85dca8" stop-opacity="1"/><stop offset=".544" id="stop1680" stop-color="#87d8a8" stop-opacity="1"/><stop id="stop1682" offset=".544" stop-color="#ecf6f0" stop-opacity="1"/><stop offset=".64" id="stop1684" stop-color="#ecf6f0" stop-opacity="1"/><stop id="stop1690" offset=".64" stop-color="#5ac083" stop-opacity="1"/><stop id="stop1686" offset=".711" stop-color="#4cb28a" stop-opacity="1"/><stop offset=".856" id="stop1688" stop-color="#41a692" stop-opacity="1"/><stop id="stop1662" offset="1" stop-color="#2d919f" stop-opacity="1"/></linearGradient><linearGradient id="linearGradient1654"><stop id="stop1650" offset="0" stop-color="#fff" stop-opacity="1"/><stop id="stop1652" offset="1" stop-color="#fff" stop-opacity="0"/></linearGradient><linearGradient gradientUnits="userSpaceOnUse" y2="239.19" x2="139.031" y1="110.682" x1="138.056" id="linearGradient1656" xlink:href="#linearGradient1654" gradientTransform="matrix(.1574 0 0 .16064 4.245 3.901)"/><linearGradient gradientTransform="matrix(.59488 0 0 .60714 4.245 -135.297)" gradientUnits="userSpaceOnUse" y2="275.833" x2="34.396" y1="242.76" x1="34.396" id="linearGradient1666" xlink:href="#linearGradient1664"/><clipPath id="clipPath5239-3" clipPathUnits="userSpaceOnUse"><circle r="42.143" cy="781.665" cx="343.267" id="circle5241-6" fill="#389ef3" fill-opacity="1" stroke="none" stroke-width="10" stroke-linecap="round" stroke-linejoin="round" stroke-miterlimit="4" stroke-dasharray="none"/></clipPath><clipPath id="clipPath5262-7" clipPathUnits="userSpaceOnUse"><rect id="rect5264-5" width="315.714" height="87.143" x="105.714" y="733.791" ry="43.571" rx="41.416" fill="#000" fill-opacity="1" stroke="none" stroke-width="10" stroke-linecap="round" stroke-linejoin="round" stroke-miterlimit="4" stroke-dasharray="none"/></clipPath><clipPath id="clipPath5256-3" clipPathUnits="userSpaceOnUse"><rect id="rect5258-5" width="315.714" height="87.143" x="105.714" y="733.791" ry="43.571" rx="41.416" fill="#000" fill-opacity="1" stroke="none" stroke-width="10" stroke-linecap="round" stroke-linejoin="round" stroke-miterlimit="4" stroke-dasharray="none"/></clipPath></defs><style id="style4485" type="text/css"/><style type="text/css" id="style4485-0"/><style id="style4485-4" type="text/css"/><style id="style4485-5" type="text/css"/><style type="text/css" id="style4485-8"/><path d="M19.534 2.547h8.73c14.29 0 17.267 11.556 17.267 17.758v7.32c0 6.123-2.779 17.757-18.328 17.757h-7.121c-11.881 0-17.618-7.92-17.618-17.758v-7.32c0-9.837 5.62-17.757 17.07-17.757z" id="path5149" opacity="1" fill="#ccc" fill-opacity="1" stroke="#000" stroke-width=".343" stroke-linecap="square" stroke-linejoin="bevel" stroke-miterlimit="4" stroke-dasharray="none" stroke-dashoffset="0" stroke-opacity=".078"/><path id="path5300" d="M19.534 2.547h8.73c14.29 0 17.267 11.556 17.267 17.758v7.32c0 6.123-2.779 17.757-18.328 17.757h-7.121c-11.881 0-17.618-7.92-17.618-17.758v-7.32c0-9.837 5.62-17.757 17.07-17.757z" opacity="1" fill="#ccc" fill-opacity="1" stroke="#000" stroke-width=".343" stroke-linecap="square" stroke-linejoin="bevel" stroke-miterlimit="4" stroke-dasharray="none" stroke-dashoffset="0" stroke-opacity=".078"/><path d="M9.293 41.402c.288.125.585.244.913.343.389.118.807.22 1.256.306.449.086.928.157 1.44.215.513.058 1.059.104 1.64.139 1.16.07 2.461.096 3.918.096h11.863c1.457 0 2.758-.027 3.92-.096.58-.035 1.125-.08 1.638-.139.512-.058.992-.13 1.44-.215a12.33 12.33 0 0 0 1.256-.306 8.357 8.357 0 0 0 1.083-.407c.054-.025.097-.058.15-.084l-3.146-5.6-24.272.047z" id="path1628" opacity=".5" fill="url(#linearGradient1656)" fill-opacity="1" stroke="none" stroke-width=".159" stroke-linecap="butt" stroke-linejoin="miter" stroke-opacity="1"/><path d="M10.103 12.134c-.872 0-1.574.717-1.574 1.607V30.43c0 .89.702 1.606 1.574 1.606H38.68c.872 0 1.574-.717 1.574-1.606V13.74c0-.89-.702-1.606-1.574-1.606z" id="rect1658" opacity=".8" fill="url(#linearGradient1666)" fill-opacity="1" stroke="none" stroke-width=".016" stroke-linecap="square" stroke-linejoin="round" stroke-miterlimit="4" stroke-dasharray="none" stroke-opacity="1"/><ellipse id="path4429" cx="8.578" cy="9.877" rx=".888" ry=".906" fill="#2c2c2c" fill-opacity=".518" stroke-width=".074"/><ellipse cy="9.877" cx="39.815" id="circle4431" rx=".888" ry=".906" fill="#2c2c2c" fill-opacity=".518" stroke-width=".074"/><ellipse id="circle4433" cx="39.815" cy="37.939" rx=".888" ry=".906" fill="#2c2c2c" fill-opacity=".518" stroke-width=".074"/><ellipse cy="37.939" cx="8.682" id="circle4435" rx=".888" ry=".906" fill="#2c2c2c" fill-opacity=".518" stroke-width=".074"/><ellipse cy="37.299" cx="29.995" id="circle4437" rx=".888" ry=".906" fill="#253033" fill-opacity=".895" stroke-width=".074"/><ellipse id="circle4439" cx="34.174" cy="38.366" rx=".679" ry=".8" fill="#253033" fill-opacity=".895" stroke-width=".074"/><ellipse id="circle4441" cx="-17.98" cy="37.299" transform="scale(-1 1)" rx=".888" ry=".906" fill="#253033" fill-opacity=".895" stroke-width=".074"/><ellipse ry=".8" rx=".679" cy="38.366" cx="-13.801" id="ellipse4443" transform="scale(-1 1)" fill="#253033" fill-opacity=".895" stroke-width=".074"/><g id="g891" transform="matrix(.59488 0 0 .60714 2.581 -138.558)"><g id="g952" transform="translate(54.106 125.316) scale(.51549)"><path id="rect944" opacity="1" fill="#d6d1ae" fill-opacity="1" stroke-width=".26" d="M-50.403 256.488h33.073v22.977h-33.073z"/><rect rx="10.958" ry="11.528" y="256.448" x="-75.603" height="23.057" width="83.533" id="rect5245" fill="#4d4d4d" fill-opacity=".44" stroke="none" stroke-width="2.646" stroke-linecap="round" stroke-linejoin="round" stroke-miterlimit="4" stroke-dasharray="none"/><circle transform="translate(-103.574 62.3) scale(.26458)" clip-path="url(#clipPath5256-3)" r="95.357" cy="777.005" cx="374.643" id="path5249" fill="#383846" fill-opacity="1" stroke="none" stroke-width="10" stroke-linecap="round" stroke-linejoin="round" stroke-miterlimit="4" stroke-dasharray="none"/><path transform="translate(-94.88 61.165) scale(.26458)" clip-path="url(#clipPath5239-3)" d="M343.267 730.587a51.078 51.078 0 0 0-51.079 51.078 51.078 51.078 0 0 0 51.08 51.078 51.078 51.078 0 0 0 51.077-51.078 51.078 51.078 0 0 0-51.078-51.078zm-5.33 21.057v3.366c0 2.06 1.658 3.72 3.719 3.72h3.223c2.06 0 3.72-1.66 3.72-3.72v-3.345a30.498 30.498 0 0 1 12.122 5.007l-2.376 2.376a3.712 3.712 0 0 0 0 5.26l2.28 2.279a3.71 3.71 0 0 0 5.26 0l2.359-2.36a30.498 30.498 0 0 1 5.043 12.106h-3.365a3.711 3.711 0 0 0-3.72 3.72v3.223c0 2.06 1.66 3.72 3.72 3.72h3.345a30.498 30.498 0 0 1-5.007 12.123l-2.376-2.376a3.706 3.706 0 0 0-5.259 0l-2.28 2.28a3.712 3.712 0 0 0 0 5.26l2.36 2.36a30.498 30.498 0 0 1-12.107 5.043v-3.367c0-2.06-1.658-3.72-3.719-3.72h-3.223a3.711 3.711 0 0 0-3.72 3.72v3.346a30.498 30.498 0 0 1-12.123-5.006l2.377-2.377a3.712 3.712 0 0 0 0-5.26l-2.28-2.279a3.708 3.708 0 0 0-5.26 0l-2.36 2.36a30.498 30.498 0 0 1-5.045-12.107h3.368c2.06 0 3.72-1.66 3.72-3.72v-3.223c0-2.06-1.66-3.72-3.72-3.72h-3.347a30.498 30.498 0 0 1 5.007-12.123l2.377 2.377a3.71 3.71 0 0 0 5.26 0l2.28-2.28a3.712 3.712 0 0 0 0-5.26l-2.36-2.36a30.498 30.498 0 0 1 12.106-5.043z" id="path5227-6" fill="#fff" fill-opacity="1" fill-rule="evenodd" stroke="none" stroke-width="1" stroke-linecap="butt" stroke-linejoin="miter" stroke-opacity="1"/><circle transform="translate(-103.574 62.3) scale(.26458)" clip-path="url(#clipPath5262-7)" id="circle5251" cx="153.214" cy="774.148" r="95.357" fill="#383846" fill-opacity="1" stroke="none" stroke-width="10" stroke-linecap="round" stroke-linejoin="round" stroke-miterlimit="4" stroke-dasharray="none"/><path id="path5247-2" d="M343.267 730.587a51.078 51.078 0 0 0-51.079 51.078 51.078 51.078 0 0 0 51.08 51.078 51.078 51.078 0 0 0 51.077-51.078 51.078 51.078 0 0 0-51.078-51.078zm-5.33 21.057v3.366c0 2.06 1.658 3.72 3.719 3.72h3.223c2.06 0 3.72-1.66 3.72-3.72v-3.345a30.498 30.498 0 0 1 12.122 5.007l-2.376 2.376a3.712 3.712 0 0 0 0 5.26l2.28 2.279a3.71 3.71 0 0 0 5.26 0l2.359-2.36a30.498 30.498 0 0 1 5.043 12.106h-3.365a3.711 3.711 0 0 0-3.72 3.72v3.223c0 2.06 1.66 3.72 3.72 3.72h3.345a30.498 30.498 0 0 1-5.007 12.123l-2.376-2.376a3.706 3.706 0 0 0-5.259 0l-2.28 2.28a3.712 3.712 0 0 0 0 5.26l2.36 2.36a30.498 30.498 0 0 1-12.107 5.043v-3.367c0-2.06-1.658-3.72-3.719-3.72h-3.223a3.711 3.711 0 0 0-3.72 3.72v3.346a30.498 30.498 0 0 1-12.123-5.006l2.377-2.377a3.712 3.712 0 0 0 0-5.26l-2.28-2.279a3.708 3.708 0 0 0-5.26 0l-2.36 2.36a30.498 30.498 0 0 1-5.045-12.107h3.368c2.06 0 3.72-1.66 3.72-3.72v-3.223c0-2.06-1.66-3.72-3.72-3.72h-3.347a30.498 30.498 0 0 1 5.007-12.123l2.377 2.377a3.71 3.71 0 0 0 5.26 0l2.28-2.28a3.712 3.712 0 0 0 0-5.26l-2.36-2.36a30.498 30.498 0 0 1 12.106-5.043z" clip-path="url(#clipPath5239-3)" transform="translate(-154.214 61.165) scale(.26458)" fill="#fff" fill-opacity="1" fill-rule="evenodd" stroke="none" stroke-width="1" stroke-linecap="butt" stroke-linejoin="miter" stroke-opacity="1"/></g></g></svg>