<svg xmlns="http://www.w3.org/2000/svg" xmlns:xlink="http://www.w3.org/1999/xlink" width="48" height="48" version="1.1" id="svg38"><defs id="defs22"><linearGradient id="linearGradient4488"><stop id="stop4490" offset="0" stop-color="#000" stop-opacity=".047"/><stop id="stop4492" offset="1" stop-color="#000" stop-opacity="0"/></linearGradient><style id="style4511"/><style id="style4511-26"/><style id="style4511-9"/><style id="style4552"/><style id="style4511-2"/><linearGradient xlink:href="#linearGradient4488" id="linearGradient4548" gradientUnits="userSpaceOnUse" gradientTransform="translate(-62.55 1.994) scale(.3038)" x1="288.112" y1="141.785" x2="287.575" y2="79.008"/><linearGradient id="linearGradient4964"><stop id="stop4966" offset="0" stop-color="#5e7fde" stop-opacity="1"/><stop id="stop4968" offset="1" stop-color="#8a2cb5" stop-opacity="1"/></linearGradient><linearGradient xlink:href="#linearGradient4964" id="linearGradient4484" x1="-14.481" y1="15.892" x2="45.168" y2="23.586" gradientUnits="userSpaceOnUse"/></defs><style id="style4485" type="text/css"/><path id="path4532" d="M3.088 26.22v1.67c0 9.573 5.583 17.281 17.146 17.281h6.93c15.133 0 17.837-11.322 17.837-17.282v-1.668c0 5.96-2.704 17.282-17.837 17.282h-6.93c-11.563 0-17.146-7.708-17.146-17.282z" opacity="1" fill="url(#linearGradient4548)" fill-opacity="1" stroke="none" stroke-width="1.1" stroke-linecap="square" stroke-linejoin="bevel" stroke-miterlimit="4" stroke-dasharray="none" stroke-dashoffset="0" stroke-opacity=".078"/><path id="path4534" d="M19.701 2.742h8.495c13.908 0 16.805 11.247 16.805 17.282v7.124c0 5.96-2.704 17.282-17.837 17.282h-6.93c-11.562 0-17.146-7.708-17.146-17.282v-7.124c0-9.574 5.47-17.282 16.613-17.282z" opacity="1" fill="url(#linearGradient4484)" fill-opacity="1" stroke="#000" stroke-width=".334" stroke-linecap="square" stroke-linejoin="bevel" stroke-miterlimit="4" stroke-dasharray="none" stroke-dashoffset="0" stroke-opacity=".078"/><path d="M23.59 36.602c-.386-.022-.92-.06-1.185-.083l-.483-.042.483-.007c1.083-.016 3.406-.224 4.405-.394.904-.155 1.177-.33 1.177-.752 0-.645-.95-.982-4.011-1.421-3.388-.487-4.779-.958-7.492-2.539-1.546-.9-2.458-1.557-3.19-2.294-1.674-1.688-1.785-3.229-.32-4.456.731-.613 2.344-1.264 3.921-1.582 1.103-.223 1.627-.267 3.118-.266 1.785.002 2.758.117 4.488.53.382.092.758.166.836.166.334 0 .52-.501.27-.732-.06-.055-.529-.348-1.042-.65a22.071 22.071 0 0 1-1.45-.93c-.284-.209-.908-.663-1.387-1.01-2.106-1.526-3.197-2.643-3.889-3.98-.365-.707-.442-.921-.443-1.236-.001-.55.4-.907 1.244-1.109.242-.058.551-.079 1.13-.077.92.003 1.537.068 3.747.397 5.37.8 6.932.857 7.638.275.202-.166.358-.466.36-.69.001-.23-.269-.722-.499-.909-.411-.334-1.285-.667-2.56-.976-.46-.111-.548-.146-.458-.18.06-.023.947-.046 1.97-.05 1.801-.008 1.874-.004 2.238.101 1.08.313 1.962.981 2.37 1.796.226.451.29.785.263 1.378-.026.6-.147.94-.456 1.283-.647.72-1.492.84-3.432.486-2.434-.442-3.552-.552-5.646-.555-1.737-.002-1.936.02-2.503.29-1.137.537-1.179 1.512-.113 2.624.163.17 1.791 1.516 3.62 2.993 1.827 1.476 3.316 2.69 3.309 2.698-.008.008-1.123.037-2.478.065-3.308.067-4.368.151-5.484.435-2.067.524-3.422 1.338-3.922 2.355-.148.3-.162.367-.162.765 0 .563.085.728.67 1.307.685.678 1.571 1.223 2.835 1.742 1.303.535 2.526.889 5.509 1.592 3.627.856 4.578 1.169 5.688 1.87.524.33.625.565.34.783-.898.685-3.426 1.055-7.067 1.036a48.912 48.912 0 0 1-1.958-.047z" id="path17225-5" fill="#fff" fill-opacity="1" stroke="none" stroke-width=".041" stroke-linecap="square" stroke-linejoin="round" stroke-miterlimit="4" stroke-dasharray="none" stroke-opacity="1"/></svg>