<svg xmlns:osb="http://www.openswatchbook.org/uri/2009/osb" xmlns="http://www.w3.org/2000/svg" xmlns:xlink="http://www.w3.org/1999/xlink" width="48" height="48" version="1.1" id="svg38"><defs id="defs22"><linearGradient id="linearGradient4488"><stop id="stop4490" offset="0" stop-color="#000" stop-opacity=".047"/><stop id="stop4492" offset="1" stop-color="#000" stop-opacity="0"/></linearGradient><style id="style4511"/><style id="style4511-26"/><style id="style4511-9"/><style id="style4552"/><style id="style4511-2"/><linearGradient xlink:href="#linearGradient4488" id="linearGradient4540" gradientUnits="userSpaceOnUse" gradientTransform="matrix(.30673 0 0 .3038 -63.522 1.994)" x1="288.112" y1="141.785" x2="287.575" y2="79.008"/><linearGradient osb:paint="solid" id="linearGradient5293"><stop id="stop5295" offset="0" stop-color="#9a89c0" stop-opacity="1"/></linearGradient><linearGradient osb:paint="solid" id="linearGradient5251"><stop id="stop5253" offset="0" stop-color="#2f343f" stop-opacity="1"/></linearGradient><linearGradient y2="3.621" x2="23.668" y1="36.865" x1="23.295" gradientUnits="userSpaceOnUse" id="linear0"><stop id="stop22-6" stop-opacity="1" stop-color="#5bcc01"/><stop id="stop24-0" stop-opacity="0" stop-color="#b7fb3b" offset="1"/></linearGradient><linearGradient xlink:href="#linear0" id="linearGradient3901" gradientUnits="userSpaceOnUse" gradientTransform="translate(-57.505 -2.546)" x1="23.295" y1="36.865" x2="23.668" y2="3.621"/></defs><style id="style4485" type="text/css"/><path id="path4516" d="M2.75 26.22v1.669c0 9.574 5.638 17.282 17.312 17.282h6.998c15.278 0 18.008-11.323 18.008-17.282V26.22c0 5.96-2.73 17.282-18.008 17.282h-6.998c-11.674 0-17.311-7.708-17.311-17.282z" opacity="1" fill="url(#linearGradient4540)" fill-opacity="1" stroke="none" stroke-width="1.105" stroke-linecap="square" stroke-linejoin="bevel" stroke-miterlimit="4" stroke-dasharray="none" stroke-dashoffset="0" stroke-opacity=".078"/><path id="path4518" d="M28.295 44.734h-8.577c-14.042 0-16.966-11.329-16.966-17.408v-7.175c0-6.003 2.73-17.408 18.008-17.408h6.997c11.673 0 17.31 7.764 17.31 17.408v7.175c0 9.644-5.522 17.408-16.772 17.408z" opacity="1" fill="#e6e6e6" fill-opacity="1" stroke="#000" stroke-width=".337" stroke-linecap="square" stroke-linejoin="bevel" stroke-miterlimit="4" stroke-dasharray="none" stroke-dashoffset="0" stroke-opacity=".078"/><g id="g2292" transform="matrix(1.0595 0 0 1.0574 59.925 2.581)" stroke="none"><path d="M-45.83 31.032l7.849-19.398 4.277-2.742 4.082 2.234 6.703 7.973.699 7.277-2.68 3.379m-20.93 1.277" stroke-miterlimit="4" id="path78" fill="url(#linearGradient3901)" fill-rule="nonzero" stroke-width="3.543"/><path style="line-height:normal;-inkscape-font-specification:Sans;text-indent:0;text-align:start;text-decoration-line:none;text-transform:none;marker:none" d="M-33.656 8.735l-4.468 2.844-7.956 19.703 21.362-1.306 2.812-3.397-.718-7.469-6.782-8.062zm.032.563l3.468 1.906-7.218.5zm4.093 2.375l6.282 7.437-.844 4.407-4.281-1.5-3.219-5.438.344-4.781zm-2.25.156l-.312 4.5-5.625 3.563.062-7.688zm-6.375 1.219l-.062 6.781-6.719 9.969zm6.157 3.844l3.093 5.25-3.218 5-5.344-6.813zm9 3.406l.593 6.156-2.28 2.844zm-15.032.125l5.313 6.781-12.031 3.219zm9.532 2.062l4.312 1.532-1.031 5.5-3.5.218-3.031-2.28zm-3.844 5.125l2.812 2.157-14.156.875z" id="path3079" color="#000" font-style="normal" font-variant="normal" font-weight="400" font-stretch="normal" font-size="medium" font-family="Sans" text-decoration="none" letter-spacing="normal" word-spacing="normal" writing-mode="lr-tb" direction="ltr" baseline-shift="baseline" text-anchor="start" display="inline" overflow="visible" visibility="visible" fill="#5fb10b" fill-opacity="1" stroke-width="1.772"/></g></svg>