<svg xmlns:osb="http://www.openswatchbook.org/uri/2009/osb" xmlns="http://www.w3.org/2000/svg" xmlns:xlink="http://www.w3.org/1999/xlink" width="48" height="48" version="1.1" id="svg38"><defs id="defs22"><linearGradient id="linearGradient4488"><stop id="stop4490" offset="0" stop-color="#000" stop-opacity=".047"/><stop id="stop4492" offset="1" stop-color="#000" stop-opacity="0"/></linearGradient><style id="style4511"/><style id="style4511-26"/><style id="style4511-9"/><style id="style4552"/><style id="style4511-2"/><linearGradient xlink:href="#linearGradient4488" id="linearGradient4540" gradientUnits="userSpaceOnUse" gradientTransform="matrix(.30673 0 0 .3038 -63.522 1.994)" x1="288.112" y1="141.785" x2="287.575" y2="79.008"/><linearGradient osb:paint="solid" id="linearGradient5293"><stop id="stop5295" offset="0" stop-color="#9a89c0" stop-opacity="1"/></linearGradient><linearGradient osb:paint="solid" id="linearGradient5251"><stop id="stop5253" offset="0" stop-color="#2f343f" stop-opacity="1"/></linearGradient><linearGradient y2="348.038" x2="108.56" y1="330.553" x1="121.976" gradientTransform="matrix(.09232 0 0 .09335 -.044 -2.875)" gradientUnits="userSpaceOnUse" id="linearGradient4177" xlink:href="#linearGradient4120"/><linearGradient id="linearGradient4120"><stop id="stop4122" offset="0" stop-color="#e6a240" stop-opacity=".996"/><stop id="stop4124" offset="1" stop-color="#eab261" stop-opacity=".275"/></linearGradient><linearGradient gradientTransform="matrix(.6842 0 0 .69184 -125.17 -226.034)" gradientUnits="userSpaceOnUse" y2="375.678" x2="211.404" y1="344.742" x1="211.404" id="linearGradient4134" xlink:href="#linearGradient4289"/><linearGradient id="linearGradient4289"><stop offset="0" id="stop4291" stop-color="#fdfdfb" stop-opacity="1"/><stop offset="1" id="stop4293" stop-color="#f0e9df" stop-opacity="1"/></linearGradient><linearGradient gradientTransform="matrix(.09232 0 0 .09335 -.044 -1.195)" gradientUnits="userSpaceOnUse" y2="141.4" x2="299.397" y1="344.067" x1="297.987" id="linearGradient4143" xlink:href="#linearGradient4155"/><linearGradient id="linearGradient4155"><stop offset="0" id="stop4318-2" stop-color="#f3e6d2" stop-opacity=".996"/><stop offset="1" id="stop4320-4" stop-color="#f7f4ee" stop-opacity="1"/></linearGradient><filter height="1.028" y="-.014" width="1.021" x="-.011" id="filter4500" color-interpolation-filters="sRGB"><feGaussianBlur id="feGaussianBlur4502" stdDeviation="1.346"/></filter><linearGradient y2="375.408" x2="232.776" y1="344.742" x1="211.404" gradientTransform="translate(-1355.39 -2406.617) scale(7.41138)" gradientUnits="userSpaceOnUse" id="linearGradient4479" xlink:href="#linearGradient4486"/><linearGradient id="linearGradient4486"><stop offset="0" id="stop4488" stop-color="#000" stop-opacity="0"/><stop id="stop4490-2" offset=".67" stop-color="#000" stop-opacity="1"/><stop offset="1" id="stop4492-9" stop-color="#000" stop-opacity="0"/></linearGradient><filter height="1.221" y="-.11" width="1.17" x="-.085" id="filter4482" color-interpolation-filters="sRGB"><feGaussianBlur id="feGaussianBlur4484" stdDeviation="10.766"/></filter><linearGradient id="linearGradient4221"><stop id="stop4223" offset="0" stop-color="#f37e40" stop-opacity="1"/><stop id="stop4225" offset="1" stop-color="#fac82e" stop-opacity="1"/></linearGradient><linearGradient xlink:href="#linearGradient4221" id="linearGradient1847" x1="2.583" y1="23.739" x2="45.236" y2="23.739" gradientUnits="userSpaceOnUse" gradientTransform="rotate(-180 23.91 23.739)"/></defs><style id="style4485" type="text/css"/><g id="g1613" fill-opacity="1"><path d="M2.75 26.22v1.669c0 9.574 5.638 17.282 17.312 17.282h6.998c15.278 0 18.008-11.323 18.008-17.282V26.22c0 5.96-2.73 17.282-18.008 17.282h-6.998c-11.674 0-17.311-7.708-17.311-17.282z" id="path4516" opacity="1" fill="url(#linearGradient4540)" stroke="none" stroke-width="1.105" stroke-linecap="square" stroke-linejoin="bevel" stroke-miterlimit="4" stroke-dasharray="none" stroke-dashoffset="0" stroke-opacity=".078"/><path d="M28.295 44.734h-8.577c-14.042 0-16.966-11.329-16.966-17.408v-7.175c0-6.003 2.73-17.408 18.008-17.408h6.997c11.673 0 17.31 7.764 17.31 17.408v7.175c0 9.644-5.522 17.408-16.772 17.408z" id="path4518" opacity="1" fill="url(#linearGradient1847)" stroke="#000" stroke-width=".337" stroke-linecap="square" stroke-linejoin="bevel" stroke-miterlimit="4" stroke-dasharray="none" stroke-dashoffset="0" stroke-opacity=".078"/><g transform="matrix(.9606 0 0 1.02034 1.453 .588)" id="g1839"><path style="line-height:125%;-inkscape-font-specification:Ubuntu;text-align:center" d="M132.664 147.4c-14.297-.178-23.904 3.031-28.834 8.948-5.177 6.163-7.83 16.274-7.83 30.326v128.119c0 14.051 2.653 24.161 7.83 30.324 4.93 5.917 14.536 8.95 28.834 8.95h33.957l44.783 31.61 44.784-31.61h123.148c14.298 0 23.903-3.033 28.834-8.95 5.177-6.163 7.83-16.273 7.83-30.324V186.674c0-14.052-2.653-24.163-7.83-30.326-4.93-5.917-14.536-8.948-28.834-8.948h-181.75z" id="path4473" transform="matrix(.09232 0 0 .09335 -.044 -1.195)" font-style="normal" font-variant="normal" font-weight="400" font-stretch="normal" font-size="15" font-family="Ubuntu" letter-spacing="0" word-spacing="0" writing-mode="lr-tb" text-anchor="middle" display="inline" opacity=".2" fill="url(#linearGradient4479)" stroke="none" stroke-width="2" filter="url(#filter4482)" enable-background="new"/><path id="path4494" d="M132.664 147.4c-14.297-.178-23.904 3.031-28.834 8.948-5.177 6.163-7.83 16.274-7.83 30.326v128.119c0 14.051 2.653 24.161 7.83 30.324 4.93 5.917 14.536 8.95 28.834 8.95h33.957l44.783 31.61 44.784-31.61h123.148c14.298 0 23.903-3.033 28.834-8.95 5.177-6.163 7.83-16.273 7.83-30.324V186.674c0-14.052-2.653-24.163-7.83-30.326-4.93-5.917-14.536-8.948-28.834-8.948h-181.75z" style="line-height:125%;-inkscape-font-specification:Ubuntu;text-align:center" transform="matrix(.09232 0 0 .09335 -.044 -1.195)" font-style="normal" font-variant="normal" font-weight="400" font-stretch="normal" font-size="15" font-family="Ubuntu" letter-spacing="0" word-spacing="0" writing-mode="lr-tb" text-anchor="middle" display="inline" opacity=".1" fill="#000" stroke="none" stroke-width="2" filter="url(#filter4500)" enable-background="new"/><path style="line-height:125%;-inkscape-font-specification:Ubuntu;text-align:center" d="M8.818 18.221v9.782c0 1.312.245 2.256.723 2.831.455.552 1.342.836 2.662.836h3.135l4.134 2.95 4.134-2.95h11.37c1.32 0 2.206-.284 2.661-.836.478-.575.723-1.519.723-2.83V18.22z" id="path1634" font-style="normal" font-variant="normal" font-weight="400" font-stretch="normal" font-size="15" font-family="Ubuntu" letter-spacing="0" word-spacing="0" writing-mode="lr-tb" text-anchor="middle" display="inline" fill="url(#linearGradient4143)" stroke="none" stroke-width=".186" enable-background="new"/><path style="line-height:125%;-inkscape-font-specification:Ubuntu;text-align:center" d="M12.203 12.247c-1.32-.017-2.207.298-2.662.85-.478.576-.723 1.52-.723 2.831v11.615l6.52 4.127 4.134 2.95 4.134-2.95L38.36 20.342v-4.414c0-1.311-.245-2.255-.723-2.83-.455-.553-1.342-.851-2.662-.851H18.196z" id="path4163" font-style="normal" font-variant="normal" font-weight="400" font-stretch="normal" font-size="15" font-family="Ubuntu" letter-spacing="0" word-spacing="0" writing-mode="lr-tb" text-anchor="middle" display="inline" fill="url(#linearGradient4134)" stroke="none" stroke-width=".186" enable-background="new"/><path d="M14.727 18.221v1.494h17.725V18.22z" id="path4227" display="inline" opacity="1" fill="#fbc58c" stroke-width=".186" enable-background="new"/><path style="line-height:125%;-inkscape-font-specification:Ubuntu;text-align:center" d="M8.818 27.543v.46c0 1.312.245 2.256.723 2.831.455.553 1.351.992 2.662.836h3.135z" id="path4171" font-style="normal" font-variant="normal" font-weight="400" font-stretch="normal" font-size="15" font-family="Ubuntu" letter-spacing="0" word-spacing="0" writing-mode="lr-tb" text-anchor="middle" display="inline" opacity=".1" fill="url(#linearGradient4177)" stroke="none" stroke-width=".186" enable-background="new"/><path id="path975" d="M14.727 22.702v1.494h8.862v-1.494z" display="inline" opacity="1" fill="#fbc58c" stroke-width=".186" enable-background="new"/><path style="line-height:125%;-inkscape-font-specification:Ubuntu;text-align:center" d="M12.203 12.247c-1.32-.017-2.207.298-2.662.85-.478.576-.723 1.52-.723 2.831v.374c0-1.312.245-2.256.723-2.83.455-.553 1.342-.868 2.662-.852h22.772c1.32 0 2.207.299 2.662.851.478.575.723 1.52.723 2.83v-.373c0-1.311-.245-2.255-.723-2.83-.455-.553-1.342-.851-2.662-.851H18.196z" id="path1008" font-style="normal" font-variant="normal" font-weight="400" font-stretch="normal" font-size="15" font-family="Ubuntu" letter-spacing="0" word-spacing="0" writing-mode="lr-tb" text-anchor="middle" display="inline" fill="#fff" stroke="none" stroke-width=".186" enable-background="new"/></g></g></svg>