<svg xmlns:osb="http://www.openswatchbook.org/uri/2009/osb" xmlns="http://www.w3.org/2000/svg" xmlns:xlink="http://www.w3.org/1999/xlink" width="48" height="48" version="1.1" id="svg38"><defs id="defs22"><linearGradient id="linearGradient4488"><stop id="stop4490" offset="0" stop-color="#000" stop-opacity=".047"/><stop id="stop4492" offset="1" stop-color="#000" stop-opacity="0"/></linearGradient><style id="style4511"/><style id="style4511-26"/><style id="style4511-9"/><style id="style4552"/><style id="style4511-2"/><linearGradient xlink:href="#linearGradient4488" id="linearGradient4540" gradientUnits="userSpaceOnUse" gradientTransform="matrix(.30673 0 0 .3038 -63.522 1.994)" x1="288.112" y1="141.785" x2="287.575" y2="79.008"/><linearGradient osb:paint="solid" id="linearGradient5293"><stop id="stop5295" offset="0" stop-color="#9a89c0" stop-opacity="1"/></linearGradient><linearGradient osb:paint="solid" id="linearGradient5251"><stop id="stop5253" offset="0" stop-color="#2f343f" stop-opacity="1"/></linearGradient><linearGradient xlink:href="#linearGradient876" id="linearGradient1847" x1="2.583" y1="23.739" x2="45.236" y2="23.739" gradientUnits="userSpaceOnUse" gradientTransform="rotate(-180 23.91 23.739)"/><linearGradient id="linearGradient876"><stop id="stop872" offset="0" stop-color="#aea795" stop-opacity="1"/><stop id="stop874" offset="1" stop-color="#c8c4b7" stop-opacity="1"/></linearGradient><filter height="1.024" y="-.012" width="1.024" x="-.012" id="filter1736" color-interpolation-filters="sRGB"><feGaussianBlur id="feGaussianBlur1738" stdDeviation=".147"/></filter><filter height="1.021" y="-.011" width="1.027" x="-.014" id="filter1748" color-interpolation-filters="sRGB"><feGaussianBlur id="feGaussianBlur1750" stdDeviation=".599"/></filter></defs><style id="style4485" type="text/css"/><path id="path4516" d="M2.75 26.22v1.669c0 9.574 5.638 17.282 17.312 17.282h6.998c15.278 0 18.008-11.323 18.008-17.282V26.22c0 5.96-2.73 17.282-18.008 17.282h-6.998c-11.674 0-17.311-7.708-17.311-17.282z" opacity="1" fill="url(#linearGradient4540)" fill-opacity="1" stroke="none" stroke-width="1.105" stroke-linecap="square" stroke-linejoin="bevel" stroke-miterlimit="4" stroke-dasharray="none" stroke-dashoffset="0" stroke-opacity=".078"/><path id="path4518" d="M28.295 44.734h-8.577c-14.042 0-16.966-11.329-16.966-17.408v-7.175c0-6.003 2.73-17.408 18.008-17.408h6.997c11.673 0 17.31 7.764 17.31 17.408v7.175c0 9.644-5.522 17.408-16.772 17.408z" opacity="1" fill="url(#linearGradient1847)" fill-opacity="1" stroke="#000" stroke-width=".337" stroke-linecap="square" stroke-linejoin="bevel" stroke-miterlimit="4" stroke-dasharray="none" stroke-dashoffset="0" stroke-opacity=".078"/><g id="g1852" transform="rotate(4.95 -26.006 535.117)"><path transform="matrix(.59486 0 0 .60573 -44.523 -135.508)" d="M52.904 234.385c-.584.074-1.356 1.476-1.952 2.716-1.359 2.827-2.764 5.908-4.023 9.716-1.252 3.786-1.437 3.642-.175 11.03 1.321-.113 4.196.183 5.506.622.135-.333.238-.864.356-1.218 1.852-5.564 1.286-13.557 1.134-19.939-.053-2.242-.391-2.985-.846-2.927zM25.477 248.3c-1.908.396 3.18 7.082 4.635 8.758 1.321 1.521 4.415 3.994 6.894 5.998.531.43 1.003.8 1.451 1.15 0 0 .3.31.443.14.809-.972 3.362-4.657 4.45-5.264l-.187-.219c-3.822-4.244-9.579-7.611-16.41-10.314-.588-.233-1.004-.305-1.276-.249z" id="path1716" opacity=".5" fill="#000" fill-opacity="1" stroke-width="1.116" filter="url(#filter1736)"/><path id="path989" d="M-13.053 6.466c-.347.045-.806.894-1.161 1.645-.808 1.712-1.644 3.579-2.393 5.885-.745 2.294-.855 2.207-.104 6.682.786-.069 2.496.11 3.275.376.08-.201.142-.523.212-.738 1.101-3.37.765-8.211.674-12.077-.031-1.358-.233-1.808-.503-1.773zm-16.315 8.429c-1.135.24 1.891 4.29 2.757 5.305.786.92 2.627 2.419 4.101 3.633.316.26.597.484.863.697 0 0 .179.188.264.084.481-.588 2-2.82 2.647-3.188l-.111-.133c-2.274-2.571-5.698-4.61-9.762-6.247-.35-.141-.597-.185-.759-.151z" fill="#895c33" stroke-width=".67"/><path d="M163.15 240.285h2.536c9.257 0 17.521-.164 24.898-.598 3.688-.216 7.155-.5 10.412-.863 1.96-.219 3.699-.529 5.51-.808 2.447-.53 5.273-1.14 7.117-1.504a46.512 46.512 0 0 0 4.777-1.213c4.879-1.507 9.583-3.806 13.807-6.688l.03-.002c.203-.144.376-.318.577-.463.402-.283.758-.612 1.153-.902.588-.509 1.26-.939 1.808-1.486a33.299 33.299 0 0 0 4.043-4.905 39.512 39.512 0 0 0 3.252-5.847c.961-2.116 1.803-4.402 2.54-6.871.736-2.47 1.366-5.122 1.904-7.971.418-2.218.735-4.66 1.047-7.121-1.128-4.016-3.235-8.044-6.641-11.957-13.942-16.017-29.423-35.911-33.414-59.4-.834-3.387-2.478-6.21-4.72-8.499-7.582-7.001-20.842-7.78-29.854-6.544l.002.006c-16.201 3.857-25.822 14.118-30.487 27.408-.56 3.233-.612 6.743-.08 10.496 1.842 12.981 7.322 22.433 8.031 35.787.962 18.098-10.918 30.794-2.67 46.105.18.379.27.734.471 1.116 1.715 3.24 4.662 6.431 8.66 9.89.648.56 1.388 1.023 2.143 1.475.938.574 2.072.936 3.148 1.36z" id="path1718" transform="matrix(.15739 0 0 .16027 -44.523 3.366)" opacity=".5" fill="#000" fill-opacity="1" stroke-width="4.217" filter="url(#filter1748)"/><path id="path993-4" d="M-18.845 41.875h.399c1.457 0 2.758-.026 3.919-.096.58-.034 1.126-.08 1.638-.138.309-.035.583-.085.868-.13.385-.085.83-.182 1.12-.24.252-.05.503-.117.752-.195a8.091 8.091 0 0 0 2.173-1.072h.004c.032-.023.06-.051.091-.074.063-.046.12-.098.182-.145.092-.081.198-.15.284-.238.234-.238.446-.5.637-.786.19-.287.36-.598.511-.937.152-.34.284-.706.4-1.102.116-.395.215-.82.3-1.277.066-.355.115-.747.165-1.141-.178-.644-.51-1.29-1.046-1.917-2.194-2.567-4.63-5.755-5.259-9.52a2.928 2.928 0 0 0-.743-1.361c-1.193-1.122-3.28-1.247-4.698-1.05v.002c-2.55.618-4.064 2.262-4.798 4.392a5.491 5.491 0 0 0-.013 1.682c.29 2.08 1.153 3.596 1.264 5.736.152 2.9-1.718 4.935-.42 7.389.028.06.042.118.074.179.27.52.734 1.03 1.363 1.585.102.09.219.164.337.236.148.092.326.15.496.218z" fill="#c37e3f" stroke-width=".67"/><path id="path995" d="M-11.705 22.876c-1.098-4.538-11.153-2.833-10.248 3.658.29 2.077 1.152 3.59 1.264 5.727.185 3.557-2.687 5.809 1.014 9.133 1.869 1.68 6.718.289 8.774-.127 3.944-.796 7.638-5.16 4.451-8.886-2.193-2.563-4.628-5.746-5.255-9.505z" fill="none" stroke-width=".67"/><path id="path1665" d="M-13.293 30.931c-2.218.455-5.152 1.372-6.236 2.979 1.553-1.163 3.867-2.392 6.236-2.979z" fill="#8e8e8e" stroke-width=".67"/><path id="path1663" d="M-8.676 30.896a1.615 1.615 0 0 0-.748-.374c-.677-.136-1.538.01-2.472.144l-.069.013c1.174-.159 2.3-.111 3.289.217z" fill="#8e8e8e" stroke-width=".67"/><path id="path1659" d="M-7.743 39.822c.108-.093.229-.174.328-.275.234-.238.446-.5.637-.786.19-.287.36-.598.511-.937.152-.34.284-.706.4-1.102.116-.395.215-.82.3-1.277.064-.346.112-.728.16-1.112-.182-.603-.51-1.207-1.021-1.795-.578-.832-1.358-1.347-2.248-1.642.324.28.563.71.66 1.412.15 1.066-1.262 2.865-1.543 4.397.338 1.233.909 2.419 1.588 3.299.08-.056.15-.124.228-.182z" fill="#8e8e8e" stroke-width=".67"/><path id="path997" d="M-18.889 41.875h.443c1.029 0 1.888-.035 2.767-.068-.085-.69-.144-1.384-.25-2.039a6.286 6.286 0 0 0-.034-.198c-.415-1.733-3.635-1.612-3.98-4.081a2.177 2.177 0 0 1 .271-1.399c.036-.064.1-.118.143-.18-.707.529-1.305 1.048-1.593 1.479-.004.707-.984 2.381.088 4.446.27.52.733 1.03 1.362 1.585.22.194.49.339.783.455z" fill="#8e8e8e" stroke-width=".67"/><path id="path999" d="M-15.637 42.145c-.236-1.67-.218-3.364-1.092-4.613-.875-1.253-1.799-2.313-2.943-3.442" fill="none" stroke-width=".67"/><path id="path1001-3" d="M-7.971 40.004c-.903-1.17-1.613-2.881-1.842-4.522-.177-1.273-.02-3.576.389-4.96" fill="none" stroke-width=".67"/><path id="path1003" d="M-15.93 39.768c-.208-1.943-3.656-1.72-4.012-4.28-.426-3.057 5.43-4.444 8.046-4.822 1.942-.28 3.568-.604 3.88 1.642.15 1.066-1.262 2.865-1.542 4.397" fill="none" stroke-width=".67"/><path id="path1005" d="M-15.679 41.807c.366-.013.81-.007 1.152-.028.58-.034 1.126-.08 1.638-.138.321-.037.606-.088.902-.135.369-.082.806-.179 1.087-.235a7.14 7.14 0 0 0 .751-.194 8.088 8.088 0 0 0 2.178-1.073c-.68-.88-1.25-2.067-1.588-3.3a9.7 9.7 0 0 1-.254-1.222c-.177-1.273-.02-3.576.389-4.96-.677-.136-1.539.01-2.473.144-2.177.315-6.6 1.33-7.775 3.424 1.144 1.13 2.068 2.19 2.943 3.442.417.595.63 1.291.766 2.038.015.063.026.13.034.198.106.655.165 1.349.25 2.04z" fill="#e4e4e4" stroke-width=".67"/><path id="path1007" d="M-16.729 37.532c-.875-1.253-1.799-2.313-2.943-3.442a2.177 2.177 0 0 0-.27 1.398c.344 2.47 3.564 2.35 3.979 4.082-.136-.747-.35-1.443-.766-2.038z" fill="#3f3f3f" stroke-width=".67"/><path id="path1009" d="M-9.424 30.522c-.409 1.384-.566 3.687-.389 4.96.057.406.143.817.255 1.223.28-1.532 1.692-3.33 1.543-4.397-.163-1.166-.679-1.64-1.41-1.786z" fill="#3f3f3f" stroke-width=".67"/><path id="path1015" d="M-13.539 29.755c.619.347 3.38.483 3.247-.52-.131-.989-.284-1.822-.491-2.358-.208-.537-.62-1.55-1.217-1.926-.375-.236-1.278-.272-1.755-.057-.478.214-.974 2.533-.875 3.254.13.941.473 1.26 1.091 1.607z" fill="none" stroke-width=".67"/><path id="path1019" d="M-13.755 24.894c-.478.214-.974 2.533-.875 3.254.13.941.473 1.26 1.091 1.607.619.347 3.38.483 3.247-.52-.131-.989-.284-1.822-.491-2.358-.208-.537-.62-1.55-1.217-1.926-.375-.236-1.278-.272-1.755-.057z" fill="#fff" stroke-width=".67"/><ellipse ry=".905" rx=".889" transform="matrix(.98972 -.143 .13802 .99043 0 0)" id="ellipse1021" cy="25.934" cx="-16.894" fill="#3f3f3f" stroke-width=".67"/><path id="path1023" d="M-18.144 31.478c1.207-.81 2.17-1.655 1.657-3.512-.2-.724-1.324-1.834-1.98-2.143-1.657-.78-2.433 1.103-2.105 2.528.244 1.06 1.22 3.938 2.428 3.127z" fill="none" stroke-width=".67"/><path id="path1027-3" d="M-16.487 27.966c-.2-.724-1.324-1.834-1.98-2.143-1.657-.78-2.433 1.103-2.105 2.528.244 1.06 1.22 3.938 2.428 3.127 1.207-.81 2.17-1.655 1.657-3.512z" fill="#fff" stroke-width=".67"/><ellipse ry=".905" rx=".889" transform="matrix(.98972 -.143 .13802 .99043 0 0)" id="ellipse1029" cy="25.934" cx="-21.633" fill="#3f3f3f" stroke-width=".67"/></g></svg>