<svg xmlns="http://www.w3.org/2000/svg" width="48" height="48" version="1.1" id="svg38"><defs id="defs22"><style id="style4511"/><style id="style4511-26"/><style id="style4511-9"/><style id="style4552"/><style id="style4511-2"/><clipPath id="clipPath-886807824"/><clipPath id="clipPath-897244418"/><radialGradient gradientTransform="matrix(.8 0 0 .8 -47.624 3.1)" gradientUnits="userSpaceOnUse" r="5" cy="18" cx="30" id="radialGradient4256"><stop id="stop1595" stop-color="#3e4652" stop-opacity="1"/><stop id="stop1597" offset="1" stop-color="#262b32" stop-opacity="1"/></radialGradient></defs><style id="style4485" type="text/css"/><path d="M19.765 2.965h8.496c13.907 0 16.804 11.246 16.804 17.282v7.123c0 5.96-2.704 17.282-17.837 17.282h-6.93c-11.562 0-17.146-7.766-17.146-17.282v-7.123c0-9.575 5.47-17.282 16.613-17.282z" id="rect4144" opacity="1" fill="#e6e6e6" fill-opacity="1" stroke="#000" stroke-width=".334" stroke-linecap="square" stroke-linejoin="bevel" stroke-miterlimit="4" stroke-dasharray="none" stroke-dashoffset="0" stroke-opacity=".078"/><g id="g1722" transform="matrix(1.0677 0 0 1.08333 55.738 -1.65)" fill-opacity="1" stroke="none"><g transform="translate(-53.624 -.5)" id="g1644"><path id="path1620" d="M18 18l-6 6h12z" opacity="1" fill="#8181b5"/><path id="path1622" d="M18 18l-6-6h12z" opacity="1" fill="#acb4d4"/><path id="path1624" d="M18 18l6-6v12z" opacity="1" fill="#8d8dbb"/><path id="path1626" d="M18 18l-6-6v12z" opacity="1" fill="#96a1ce"/><path id="path1628" d="M30 30l-6 6h12z" opacity="1" fill="#8181b5"/><path id="path1630" d="M30 30l-6-6h12z" opacity="1" fill="#acb4d4"/><path id="path1632" d="M30 30l6-6v12z" opacity="1" fill="#8d8dbb"/><path id="path1634" d="M30 30l-6-6v12z" opacity="1" fill="#96a1ce"/><path id="path1636" d="M18 30l-6 6h12z" opacity="1" fill="#cd6970"/><path id="path1638" d="M18 30l-6-6h12z" opacity="1" fill="#d9a7ab"/><path id="path1640" d="M18 30l6-6v12z" opacity="1" fill="#cf797f"/><path id="path1642" d="M18 30l-6-6v12z" opacity="1" fill="#d49095"/></g><circle id="circle1646" r="4" cy="17.5" cx="-23.624" opacity="1" fill="url(#radialGradient4256)"/></g></svg>