<svg xmlns="http://www.w3.org/2000/svg" xmlns:xlink="http://www.w3.org/1999/xlink" width="48" height="48" version="1.1" id="svg38"><defs id="defs22"><linearGradient id="linearGradient3764-3675-3" x1="1" x2="47" gradientTransform="rotate(-90 -3.988 55.336)" gradientUnits="userSpaceOnUse"><stop offset="0" id="stop1608" stop-color="#d5edf3"/><stop offset="1" id="stop1610" stop-color="#e5f4f7"/></linearGradient><style id="style4511"/><style id="style4511-26"/><style id="style4511-9"/><style id="style4552"/><style id="style4511-2"/><clipPath id="clipPath-886807824"/><clipPath id="clipPath-897244418"/><linearGradient xlink:href="#linearGradient3764-3675-3" id="linearGradient1619" x1="2.985" y1="23.808" x2="45.232" y2="23.808" gradientUnits="userSpaceOnUse"/></defs><style id="style4485" type="text/css"/><path d="M19.765 2.965h8.496c13.907 0 16.804 11.246 16.804 17.282v7.123c0 5.96-2.704 17.282-17.837 17.282h-6.93c-11.562 0-17.146-7.766-17.146-17.282v-7.123c0-9.575 5.47-17.282 16.613-17.282z" id="rect4144" opacity="1" fill="url(#linearGradient1619)" fill-opacity="1" stroke="#000" stroke-width=".334" stroke-linecap="square" stroke-linejoin="bevel" stroke-miterlimit="4" stroke-dasharray="none" stroke-dashoffset="0" stroke-opacity=".078"/><g id="g1600" transform="matrix(1.09766 0 0 1.07422 62.882 -5.569)"><path id="path1557" d="M-35.324 11.347l-3.5 10 5.5-.999zm6 12.5l1 5.5 9-2zm-22 3.5l10 3.5-1-5.5zm19.5 6l-5.5 1 2 9z" fill="#48a0e4"/><circle id="circle1559" r="3" cy="27.347" cx="-35.324" fill="#0a2d56"/><path id="path1561" d="M-35.324 11.347v10h3.5zm-6 12.5l-10 3.5h10zm12 3.5v3.5l10-3.5zm-9.5 6l3.5 10v-10z" fill="#6ec3f0"/><path id="path1563" d="M-45.324 17.347l3.258 5.694a7.987 7.987 0 0 0-1.258 4.306 7.986 7.986 0 0 0 1.264 4.299l-3.264 5.701 5.693-3.258a7.985 7.985 0 0 0 4.307 1.258 7.988 7.988 0 0 0 4.299-1.264l5.701 3.264-3.258-5.693a7.987 7.987 0 0 0 1.258-4.307 7.986 7.986 0 0 0-1.264-4.299l3.264-5.7-5.693 3.257a7.985 7.985 0 0 0-4.307-1.258 7.988 7.988 0 0 0-4.299 1.264zm10 5a5 5 0 1 1 0 10 5 5 0 0 1 0-10z" fill="#1867c6"/></g></svg>