<svg xmlns="http://www.w3.org/2000/svg" width="48" height="48" version="1.1" id="svg38"><defs id="defs22"><style id="style4511"/><style id="style4511-26"/><style id="style4511-9"/><style id="style4552"/><style id="style4511-2"/></defs><style id="style4485" type="text/css"/><path d="M19.677 3.253h8.618c14.108 0 17.047 11.413 17.047 17.537v7.229c0 6.047-2.744 17.537-18.094 17.537h-7.03c-11.73 0-17.394-7.822-17.394-17.537V20.79c0-9.715 5.549-17.537 16.853-17.537z" id="rect4144" opacity="1" fill="#e6e6e6" fill-opacity="1" stroke="#000" stroke-width=".339" stroke-linecap="square" stroke-linejoin="bevel" stroke-miterlimit="4" stroke-dasharray="none" stroke-dashoffset="0" stroke-opacity=".078"/><ellipse id="path1225" cx="20.566" cy="13.699" rx="2.301" ry="2.373" opacity="1" fill="#4d4d4d" fill-opacity="1" stroke="#fff" stroke-opacity="1"/><ellipse id="path1227" cx="27.829" cy="34.913" rx="2.123" ry="2.339" opacity="1" fill="#4d4d4d" fill-opacity="1" stroke="#fff" stroke-width=".925" stroke-opacity="1"/><g id="g3775" transform="matrix(.34564 0 0 .33796 -33.958 -17.95)" fill="#1abc9f" fill-opacity=".941"><path id="path1948" d="M167.352 84.041c-3.359.016-6.567.305-9.39.809-8.316 1.483-9.825 4.588-9.825 10.314v7.562h19.651v2.521h-27.026c-5.711 0-10.712 3.466-12.276 10.06-1.804 7.558-1.884 12.274 0 20.166 1.397 5.874 4.733 10.06 10.444 10.06h6.756v-9.065c0-6.549 5.612-12.326 12.276-12.326h19.628c5.464 0 9.825-4.542 9.825-10.083V95.165c0-5.377-4.492-9.417-9.825-10.314-3.375-.568-6.878-.825-10.238-.81zm-10.626 6.082c2.03 0 3.687 1.701 3.687 3.793 0 2.084-1.658 3.77-3.687 3.77-2.037 0-3.687-1.685-3.687-3.77-.001-2.092 1.65-3.793 3.687-3.793z"/><path id="path1950" d="M190.004 105.096v8.746c0 6.781-5.747 12.488-12.301 12.488h-19.668c-5.387 0-9.845 4.612-9.845 10.009v18.755c0 5.338 4.64 8.477 9.845 10.008 6.233 1.833 12.21 2.165 19.668 0 4.957-1.436 9.845-4.325 9.845-10.008v-7.506H167.88v-2.502h29.514c5.722 0 7.855-3.993 9.845-9.986 2.056-6.17 1.969-12.103 0-20.017-1.414-5.698-4.115-9.986-9.845-9.986h-7.39zm-11.062 47.495c2.041 0 3.695 1.673 3.695 3.742 0 2.076-1.654 3.765-3.695 3.765-2.034 0-3.695-1.689-3.695-3.765 0-2.069 1.661-3.742 3.695-3.742z"/></g></svg>