<svg xmlns="http://www.w3.org/2000/svg" xmlns:xlink="http://www.w3.org/1999/xlink" width="48" height="48" version="1.1" id="svg38"><defs id="defs22"><linearGradient id="linearGradient4488"><stop id="stop4490" offset="0" stop-color="#000" stop-opacity=".047"/><stop id="stop4492" offset="1" stop-color="#000" stop-opacity="0"/></linearGradient><style id="style4511"/><style id="style4511-26"/><style id="style4511-9"/><style id="style4552"/><style id="style4511-2"/><linearGradient gradientTransform="translate(-63.205 2.216) scale(.3038)" xlink:href="#linearGradient4488" id="linearGradient4160" x1="288.112" y1="141.785" x2="287.575" y2="79.008" gradientUnits="userSpaceOnUse"/><linearGradient y2="506.8" x2="409.57" gradientTransform="matrix(.16892 0 0 .17117 -45.627 -113.46)" y1="540.8" gradientUnits="userSpaceOnUse" x1="409.57" id="linearGradient4282"><stop offset="0" stop-color="#2a2c2f" id="stop4161"/><stop offset="1" stop-color="#424649" id="stop4163"/></linearGradient><style id="style4511-8"/><style id="style4511-26-4"/><style id="style4511-9-8"/><style id="style4552-5"/><style id="style4511-2-5"/></defs><style id="style4485" type="text/css"/><path d="M2.433 26.443v1.668c0 9.575 5.583 17.282 17.146 17.282h6.93c15.133 0 17.837-11.322 17.837-17.282v-1.668c0 5.96-2.704 17.282-17.837 17.282h-6.93c-11.563 0-17.146-7.708-17.146-17.282z" id="path4147" opacity="1" fill="url(#linearGradient4160)" fill-opacity="1" stroke="none" stroke-width="1.1" stroke-linecap="square" stroke-linejoin="bevel" stroke-miterlimit="4" stroke-dasharray="none" stroke-dashoffset="0" stroke-opacity=".078"/><path d="M19.046 2.965h8.495c13.908 0 16.805 11.246 16.805 17.282v7.123c0 5.96-2.704 17.282-17.837 17.282h-6.93c-11.562 0-17.146-7.708-17.146-17.282v-7.123c0-9.575 5.47-17.282 16.613-17.282z" id="rect4144" opacity="1" fill="#4d4d4d" fill-opacity="1" stroke="#000" stroke-width=".334" stroke-linecap="square" stroke-linejoin="bevel" stroke-miterlimit="4" stroke-dasharray="none" stroke-dashoffset="0" stroke-opacity=".078"/><path id="rect4203-6" d="M7.337 7.2c-5.143 3.889-4.7 11.533-4.855 14.707H17.55c0-1.511.912-2.804 2.218-3.39L9.72 5.295z" opacity=".1" fill="#fff" stroke-width=".826"/><path id="path5733" d="M38.424 41.08c4.09-4.098 5.922-8.15 5.922-14.637H29.277c0 1.51-.913 2.803-2.218 3.389l9.319 12.634z" opacity=".1" fill="#fff" stroke-width=".826"/><rect id="rect4270" ry="10.184" height="20.369" width="20.1" y="13.624" x="13.339" fill="#d8b215" fill-opacity="1" stroke-width="1.274"/><rect id="rect4280" transform="scale(1 -1)" ry="2.91" height="5.82" width="5.743" y="-26.718" x="20.518" fill="url(#linearGradient4282)" stroke-width="1.274"/><path id="rect4284" d="M23.39 15.079c-4.773 0-8.615 3.893-8.615 8.73 0 4.835 3.842 8.729 8.615 8.729 4.772 0 8.614-3.894 8.614-8.73s-3.842-8.73-8.614-8.73zm0 1.455c3.977 0 7.178 3.244 7.178 7.274 0 4.03-3.201 7.275-7.178 7.275s-7.18-3.245-7.18-7.275 3.203-7.274 7.18-7.274z" fill="#4d4d4d" fill-opacity=".275" stroke-width="1.274"/><style type="text/css" id="style4485-4"/><g id="g1296" transform="translate(-13.177 11.113)" fill="#f2f2f2" fill-opacity=".554" stroke="none"><g transform="matrix(-1.21321 0 0 -1.4319 3.76 70.824)" id="g242" fill-rule="nonzero"><path id="path73-7" d="M-40.555 51.208c3.44-2.015 2.651-2.338 4.116-3.914.021.089.035.182.111.24.114.086.293.132.532.132.239 0 .52-.046.82-.133.3-.086.62-.209.942-.363.323-.154.646-.336.954-.54.308-.204.6-.43.853-.664a3.64 3.64 0 0 0 .583-.664c.133-.204.205-.387.215-.54a.397.397 0 0 0-.157-.364c-.114-.086-.293-.132-.532-.132a3.05 3.05 0 0 0-.82.132c-.3.087-.619.21-.942.363a7.907 7.907 0 0 0-.954.54c-.308.204-.6.43-.853.665-.254.234-.45.46-.583.664-.055.084-.053.145-.087.221-.42.238-.84.427-1.44.532 3.3-1.984.531-1.763 2.639-3.49-.402.085-1.303.654-1.826 1.355.254-.985 1.46-1.833 2.956-2.683-1.19.567-2.13.565-3.28 1.362 2.2-2.429 7.582-4.54 10.628-4.54h.216c1.91 0 2.929 1.683.76 3.76.154-.39-.215-1.148-.746-1.148.172 1.134-1.378 2.834-4.386 4.464 1.242-1.063 1.274-1.631 1.154-1.993-.82 1.497-2.663 3.202-5.851 4.703.522-.368.93-.656 1.208-.992-.359.412-3.67 2.32-6.232 3.029m.001-.001" stroke-width=".286"/><path id="path75-5" d="M-37.32 48.51c.084-.637.272-1.317 1.252-2.223 1.583-1.464 3.826-2.636 5.21-2.636h.055c1.594.058.502 1.963-2.58 3.569-.49.24-1.125.824-1.469 1.41-.26-.294.085-.88 1.007-1.465-.567.237-1.014.584-1.428.98-.107-.05-.212-.101-.387-.101-.24 0-.522.048-.826.137a6.273 6.273 0 0 0-.832.33m-.002 0" stroke-width=".291"/></g><path d="M40.873 11.396c-.372-2.31-2.603-3.708-4.984-3.118-2.376.585-4.002 2.933-3.63 5.24.373 2.31 2.604 3.705 4.984 3.12 2.376-.587 4.002-2.934 3.63-5.242m0 0" id="path71" fill-rule="evenodd" stroke-width="1.12"/><path d="M39.263 13.709c.377-.577.555-1.252.45-1.917-.24-1.466-1.77-2.326-3.42-1.921-1.65.409-2.794 1.925-2.553 3.395.096.6.41 1.1.859 1.454-.818-.408-1.409-1.142-1.564-2.077-.281-1.766 1.095-3.594 3.077-4.078 1.985-.489 3.82.543 4.106 2.309.164 1.012-.222 2.047-.953 2.836m0 0" id="path75" fill-rule="evenodd" stroke-width="1.12"/></g><ellipse id="path1298" cx="23.434" cy="23.76" rx="2.817" ry="2.851" fill="#4d4d4d" fill-opacity="1" stroke="none" stroke-width=".905" stroke-miterlimit="4" stroke-dasharray="none" stroke-opacity="1"/></svg>