<svg xmlns:osb="http://www.openswatchbook.org/uri/2009/osb" xmlns="http://www.w3.org/2000/svg" xmlns:xlink="http://www.w3.org/1999/xlink" width="48" height="48" version="1.1" id="svg38"><defs id="defs22"><linearGradient id="linearGradient4488"><stop id="stop4490" offset="0" stop-color="#000" stop-opacity=".047"/><stop id="stop4492" offset="1" stop-color="#000" stop-opacity="0"/></linearGradient><style id="style4511"/><style id="style4511-26"/><style id="style4511-9"/><style id="style4552"/><style id="style4511-2"/><linearGradient xlink:href="#linearGradient4488" id="linearGradient4546" gradientUnits="userSpaceOnUse" gradientTransform="rotate(90 54.35 -8.372) scale(.3038)" x1="288.112" y1="141.785" x2="287.575" y2="79.008"/><style id="style4511-8"/><style id="style4511-26-4"/><style id="style4511-9-7"/><style id="style4552-3"/><style id="style4511-2-8"/><style id="style4552-7"/><style id="style4552-6"/><style id="style4552-73"/><style id="style4552-2"/><linearGradient osb:paint="solid" id="linearGradient5251"><stop id="stop5253" offset="0" stop-color="#2f343f" stop-opacity="1"/></linearGradient><filter id="a-6"><feGaussianBlur id="feGaussianBlur977" stdDeviation=".8" in="SourceAlpha"/><feOffset id="feOffset979" dy=".4"/><feComponentTransfer id="feComponentTransfer983"><feFuncA id="feFuncA981" type="linear" slope=".3"/></feComponentTransfer><feMerge id="feMerge989"><feMergeNode id="feMergeNode985"/><feMergeNode id="feMergeNode987" in="SourceGraphic"/></feMerge></filter></defs><style id="style4485" type="text/css"/><style type="text/css" id="style4485-0"/><style id="style4485-4" type="text/css"/><style id="style4485-5" type="text/css"/><style id="style4485-3" type="text/css"/><style id="style4485-5-1" type="text/css"/><g id="g1945"><path id="path4528" d="M21.75 2.917h-1.668C10.507 2.917 2.8 8.5 2.8 20.063v6.93c0 15.132 11.322 17.837 17.282 17.837h1.668c-5.96 0-17.282-2.705-17.282-17.837v-6.93C4.468 8.5 12.176 2.917 21.75 2.917z" opacity="1" fill="url(#linearGradient4546)" fill-opacity="1" stroke="none" stroke-width="1.1" stroke-linecap="square" stroke-linejoin="bevel" stroke-miterlimit="4" stroke-dasharray="none" stroke-dashoffset="0" stroke-opacity=".078"/><path id="path4530" d="M3.541 28.216v-8.495c0-13.907 11.247-16.804 17.282-16.804h7.123c5.96 0 17.282 2.704 17.282 17.837v6.93c0 11.562-7.707 17.146-17.282 17.146h-7.123c-9.574 0-17.282-5.47-17.282-16.614z" opacity="1" fill="#008096" fill-opacity="1" stroke="#000" stroke-width=".334" stroke-linecap="square" stroke-linejoin="bevel" stroke-miterlimit="4" stroke-dasharray="none" stroke-dashoffset="0" stroke-opacity=".078"/><path id="path5889" d="M44.1 12.435a14.34 14.34 0 0 0-2.43-3.988l-1.076 1.045-5.705-5.217v6.213l5.71 5.389c.959-.958 2.21-2.18 3.501-3.442z" opacity="1" fill="#b3b3b3" fill-opacity="1" stroke="none" stroke-width="1.8" stroke-linecap="round" stroke-linejoin="miter" stroke-miterlimit="4" stroke-dasharray="none" stroke-dashoffset="0" stroke-opacity="1"/><path id="path5893" d="M45.288 17.406c-.184-1.895-.606-3.605-1.242-5.125l-3.451 3.35-5.705-5.215v6.213l5.709 5.387a654.752 654.752 0 0 1 4.69-4.61z" opacity="1" fill="#b3b3b3" fill-opacity="1" stroke="none" stroke-width="1.8" stroke-linecap="round" stroke-linejoin="miter" stroke-miterlimit="4" stroke-dasharray="none" stroke-dashoffset="0" stroke-opacity="1"/><path id="path5895" d="M45.395 19.568c0-.82-.053-1.599-.134-2.357l-4.667 4.531-5.705-5.215v6.213l5.71 5.387c1.313-1.312 3.042-2.999 4.796-4.713z" opacity="1" fill="#b3b3b3" fill-opacity="1" stroke="none" stroke-width="1.8" stroke-linecap="round" stroke-linejoin="miter" stroke-miterlimit="4" stroke-dasharray="none" stroke-dashoffset="0" stroke-opacity="1"/><path id="path5897" d="M45.396 23.22l-4.801 4.663-5.705-5.215v6.213l5.709 5.387c1.299-1.298 3.005-2.963 4.742-4.66a23.99 23.99 0 0 0 .055-1.545z" opacity="1" fill="#b3b3b3" fill-opacity="1" stroke="none" stroke-width="1.8" stroke-linecap="round" stroke-linejoin="miter" stroke-miterlimit="4" stroke-dasharray="none" stroke-dashoffset="0" stroke-opacity="1"/><path id="path5899" d="M45.358 29.412l-4.764 4.625-5.705-5.215v6.213l5.704 5.381.17-.156c.092-.093.232-.227.33-.325 2.31-2.344 4-5.718 4.265-10.523z" opacity="1" fill="#b3b3b3" fill-opacity="1" stroke="none" stroke-width="1.8" stroke-linecap="round" stroke-linejoin="miter" stroke-miterlimit="4" stroke-dasharray="none" stroke-dashoffset="0" stroke-opacity="1"/><path id="path5901" d="M42.327 38.496l-1.733 1.682-5.705-5.217v6.213l1.885 1.78c2.062-.981 4.024-2.405 5.553-4.458z" opacity="1" fill="#b3b3b3" fill-opacity="1" stroke="none" stroke-width="1.8" stroke-linecap="round" stroke-linejoin="miter" stroke-miterlimit="4" stroke-dasharray="none" stroke-dashoffset="0" stroke-opacity="1"/><path id="path5903" d="M36.917 42.883l-2.028-1.854v2.705a18.113 18.113 0 0 0 2.028-.851z" opacity="1" fill="#b3b3b3" fill-opacity="1" stroke="none" stroke-width="1.8" stroke-linecap="round" stroke-linejoin="miter" stroke-miterlimit="4" stroke-dasharray="none" stroke-dashoffset="0" stroke-opacity="1"/><path id="path5905" d="M41.868 8.69c-1.804-2.19-4.196-3.761-6.979-4.692v.553l5.71 5.386c.347-.347.856-.84 1.269-1.248z" opacity="1" fill="#b3b3b3" fill-opacity="1" stroke="none" stroke-width="1.8" stroke-linecap="round" stroke-linejoin="miter" stroke-miterlimit="4" stroke-dasharray="none" stroke-dashoffset="0" stroke-opacity="1"/><path d="M39-20a5 5 0 1 0 0 10 5 5 0 0 0 0-10zM35-6c-.554 0-1 .446-1 1v2c0 .554.446 1 1 1h2c.554 0 1-.446 1-1v-2c0-.554-.446-1-1-1zm6 0c-.554 0-1 .446-1 1v2c0 .554.446 1 1 1h2c.554 0 1-.446 1-1v-2c0-.554-.446-1-1-1zm-6 6c-.554 0-1 .446-1 1v2c0 .554.446 1 1 1h2c.554 0 1-.446 1-1V1c0-.554-.446-1-1-1zm6 0c-.554 0-1 .446-1 1v2c0 .554.446 1 1 1h2c.554 0 1-.446 1-1V1c0-.554-.446-1-1-1z" id="path1004" transform="matrix(.85182 0 0 .8587 6.67 30.382)" fill="#eceff1" filter="url(#a-6)"/><g id="g1659" transform="matrix(.1806 0 0 .15368 -9.17 20.387)" fill="none" stroke="#e0f2f1" stroke-width="11.571"><path id="path998" d="M99.352 2.978a17.357 17.357 0 0 1-17.357 17.357M99.352 2.978A17.357 17.357 0 0 1 116.71-14.38a17.357 17.357 0 0 1 17.357 17.357m57.857 40.5a28.928 28.928 0 0 1-14.465 25.051 28.928 28.928 0 0 1-28.928 0 28.928 28.928 0 0 1-14.464-25.052m57.857-46.285a28.928 28.928 0 0 1 28.928-28.928" stroke-linecap="round"/><path id="path1000" d="M134.066 2.978v40.5m57.857-46.286v46.285m28.928-75.213h23.142"/><path id="path1006-3" d="M70.424 20.335h11.571"/></g></g></svg>