<svg xmlns:osb="http://www.openswatchbook.org/uri/2009/osb" xmlns="http://www.w3.org/2000/svg" xmlns:xlink="http://www.w3.org/1999/xlink" width="48" height="48" version="1.1" id="svg38"><defs id="defs22"><linearGradient id="linearGradient4488"><stop id="stop4490" offset="0" stop-color="#000" stop-opacity=".047"/><stop id="stop4492" offset="1" stop-color="#000" stop-opacity="0"/></linearGradient><style id="style4511"/><style id="style4511-26"/><style id="style4511-9"/><style id="style4552"/><style id="style4511-2"/><linearGradient xlink:href="#linearGradient4488" id="linearGradient4540" gradientUnits="userSpaceOnUse" gradientTransform="matrix(.30902 0 0 .3038 -64.161 2.713)" x1="288.112" y1="141.785" x2="287.575" y2="79.008"/><linearGradient osb:paint="solid" id="linearGradient5293"><stop id="stop5295" offset="0" stop-color="#9a89c0" stop-opacity="1"/></linearGradient></defs><style id="style4485" type="text/css"/><path id="path4516" d="M2.606 26.94v1.668c0 9.574 5.68 17.282 17.44 17.282h7.05c15.393 0 18.143-11.322 18.143-17.282V26.94c0 5.96-2.75 17.282-18.143 17.282h-7.05c-11.76 0-17.44-7.708-17.44-17.282z" opacity="1" fill="url(#linearGradient4540)" fill-opacity="1" stroke="none" stroke-width="1.109" stroke-linecap="square" stroke-linejoin="bevel" stroke-miterlimit="4" stroke-dasharray="none" stroke-dashoffset="0" stroke-opacity=".078"/><path id="path4518" d="M19.505 3.461h8.64c14.148 0 17.094 11.247 17.094 17.282v7.124c0 5.96-2.75 17.282-18.143 17.282h-7.05c-11.76 0-17.44-7.708-17.44-17.282v-7.124c0-9.574 5.564-17.282 16.899-17.282z" opacity="1" fill="#78bb00" fill-opacity="1" stroke="#000" stroke-width=".337" stroke-linecap="square" stroke-linejoin="bevel" stroke-miterlimit="4" stroke-dasharray="none" stroke-dashoffset="0" stroke-opacity=".078"/><path id="rect4096" d="M22.95 12.674c-1.62 0-2.932.908-2.932 2.029.047.418.312.946.451 1.127.677.902.677 1.466.508 1.804h-5.468a1.8 1.8 0 0 0-1.804 1.804v4.566c.338.17.902.17 1.804-.507.18-.14.709-.404 1.127-.45 1.12 0 2.03 1.312 2.03 2.93 0 1.62-.91 2.932-2.03 2.932-.344-.006-.867-.314-1.127-.451-.902-.677-1.466-.677-1.804-.507v5.919a1.8 1.8 0 0 0 1.804 1.804h7.272c.169-.339.169-.902-.508-1.804-.14-.182-.404-.71-.45-1.128 0-1.12 1.312-2.03 2.93-2.03 1.62 0 2.932.91 2.932 2.03-.006.344-.313.867-.45 1.128-.677.902-.677 1.465-.508 1.804h3.213a1.8 1.8 0 0 0 1.804-1.804v-5.017c.338-.17.902-.17 1.804.507.26.137.783.445 1.127.45 1.121 0 2.03-1.312 2.03-2.93 0-1.62-.909-2.932-2.03-2.932-.418.047-.946.312-1.127.451-.902.677-1.466.677-1.804.507v-5.468a1.8 1.8 0 0 0-1.804-1.804h-5.017c-.17-.338-.17-.902.507-1.804.138-.26.445-.783.451-1.127 0-1.12-1.312-2.03-2.931-2.03z" fill="#fff" fill-rule="evenodd" stroke="none" stroke-width="1"/></svg>