<svg xmlns="http://www.w3.org/2000/svg" xmlns:xlink="http://www.w3.org/1999/xlink" width="48" height="48" version="1.1" id="svg38"><defs id="defs22"><linearGradient id="linearGradient4488"><stop id="stop4490" offset="0" stop-color="#000" stop-opacity=".047"/><stop id="stop4492" offset="1" stop-color="#000" stop-opacity="0"/></linearGradient><style id="style4511"/><style id="style4511-26"/><style id="style4511-9"/><style id="style4552"/><style id="style4511-2"/><linearGradient gradientTransform="translate(-63.205 2.216) scale(.3038)" xlink:href="#linearGradient4488" id="linearGradient4160" x1="288.112" y1="141.785" x2="287.575" y2="79.008" gradientUnits="userSpaceOnUse"/><linearGradient id="linearGradient4019"><stop id="stop4021" offset="0" stop-color="#ddd" stop-opacity="1"/><stop id="stop4024" offset="1" stop-color="#e7e7e7" stop-opacity="1"/></linearGradient><linearGradient xlink:href="#linearGradient4019" id="linearGradient1742" x1="2.266" y1="23.808" x2="44.513" y2="23.808" gradientUnits="userSpaceOnUse"/></defs><style id="style4485" type="text/css"/><path d="M2.433 26.443v1.668c0 9.575 5.583 17.282 17.146 17.282h6.93c15.133 0 17.837-11.322 17.837-17.282v-1.668c0 5.96-2.704 17.282-17.837 17.282h-6.93c-11.563 0-17.146-7.708-17.146-17.282z" id="path4147" opacity="1" fill="url(#linearGradient4160)" fill-opacity="1" stroke="none" stroke-width="1.1" stroke-linecap="square" stroke-linejoin="bevel" stroke-miterlimit="4" stroke-dasharray="none" stroke-dashoffset="0" stroke-opacity=".078"/><path d="M19.046 2.965h8.495c13.908 0 16.805 11.246 16.805 17.282v7.123c0 5.96-2.704 17.282-17.837 17.282h-6.93c-11.562 0-17.146-7.708-17.146-17.282v-7.123c0-9.575 5.47-17.282 16.613-17.282z" id="rect4144" opacity="1" fill="url(#linearGradient1742)" fill-opacity="1" stroke="#000" stroke-width=".334" stroke-linecap="square" stroke-linejoin="bevel" stroke-miterlimit="4" stroke-dasharray="none" stroke-dashoffset="0" stroke-opacity=".078"/><g id="g1573" transform="matrix(.95911 0 0 .98893 6.916 10.43)" fill="none" fill-rule="nonzero" stroke="none" stroke-width="1"><path d="M30.4 17.69s-2.773-4.001-6.392-9.318C20.39 3.055 18.9 1.324 15.2 0c0 0 .43 3.408 3.411 7.466A935.206 935.206 0 0 1 26.4 18.281z" id="XMLID_74_" fill="#bdbec0"/><path d="M31.2 18.323s-2.775-3.963-6.394-9.226C21.187 3.834 19.693 2.116 16 .813c0 0 .436 3.378 3.418 7.396a3839.73 3839.73 0 0 1 7.393 10.01l1.21.468z" id="XMLID_73_" fill="#a8aaad"/><path d="M22.39 6.385c.035.056-.034.142-.086.107-.445-.327-1.417-1.205-2.297-3.129-.031-.07.052-.15.096-.094.521.653 1.615 2.042 2.288 3.116z" id="XMLID_66_" opacity=".15" fill="#010101"/><path d="M16 2.438c.471 1.395 1.316 3.324 2.795 5.417a4297.707 4297.707 0 0 1 7.283 10.347l1.191.485 3.131-.376s-.34-.508-.932-1.4c-4.907-7.44-8.99-5.26-13.468-14.474z" id="XMLID_60_" opacity=".04" fill="#010101"/><path d="M1.355 19.5l-.432-.486a.513.513 0 0 1-.03-.627L6.977 10.2c.086-.118.19-.221.306-.302L9.766 8.15a.132.132 0 0 1 .168.011l2.019 1.86a.154.154 0 0 1 .027.189c-1.648 2.859-3.474 1.857-4.7 3.548-1.623 2.244 1.298 4.145 2.788 2.531 0 0 .714 1.245-.735 1.853z" id="XMLID_30_" fill="#a8aaad"/><path d="M4.813 13.703c.469-.691 1.477-2.158 2.273-3.116.048-.058.135-.004.11.068-.204.57-.794 1.838-2.289 3.14-.058.053-.138-.027-.094-.092z" id="XMLID_61_" opacity=".15" fill="#010101"/><path d="M5.793 17.875l3.482-.063c1.484-.577.75-1.76.75-1.76-1.521 1.53-4.506-.276-2.847-2.402 1.252-1.606 3.118-.654 4.802-3.368a.14.14 0 0 0-.028-.179l-.414-.353c-1.217 2.441-3.627 1.77-5.012 3.568-1.491 1.937-.733 4.557-.733 4.557z" id="XMLID_62_" opacity=".04" fill="#010101"/><path d="M34.548 17.894a.628.628 0 0 0-.244-.012L32 18.215l1.326 3.723 1.685-2.442a1.06 1.06 0 0 0 .176-.454c.078-.534-.205-1.048-.639-1.148zm-.15 1.365c-.179 0-.322-.177-.322-.397 0-.221.143-.398.322-.398.18 0 .323.177.323.398 0 .216-.143.397-.323.397z" id="XMLID_82_" fill="#939598"/><path d="M32.085 18.167c2.088.072 1.855 2.168 3.14.937l-1.313 1.636z" id="XMLID_14_" transform="rotate(-4 33.655 19.454)" opacity=".1" fill="#010101"/><g id="XMLID_18_" transform="translate(32.8 17.875)" opacity=".2" fill="#fff"><path d="M2.375.775S2.372.762 2.361.731A1.1 1.1 0 0 0 2.103.3a.5.5 0 0 0-.172-.112.733.733 0 0 0-.202-.057.301.301 0 0 0-.105 0c-.04.007-.075.019-.113.025A2.841 2.841 0 0 1 1.274.2C1.115.225.956.256.808.281.66.3.522.32.402.331.342.338.29.344.24.344.19.35.148.35.113.356c-.07.007-.11.007-.11.007V.35L1.268.1c.078-.013.159-.031.237-.044.038-.006.077-.019.116-.019a.637.637 0 0 1 .501.212 1.08 1.08 0 0 1 .247.476l.01.044z" id="XMLID_24_"/></g><g id="shape" transform="translate(0 17.875)"><path d="M30.503 8.099H3.886c-2.132 0-3.861-1.81-3.861-4.044C.025 1.822 1.754.011 3.886.011h26.617c2.133 0 3.862 1.81 3.862 4.044 0 2.234-1.73 4.044-3.862 4.044z" id="XMLID_17_" fill="#3db54a"/><g id="XMLID_10_" opacity=".5" fill="#019547"><path d="M30.503.638c1.8 0 3.263 1.532 3.263 3.417 0 1.885-1.463 3.417-3.263 3.417H3.886c-1.8 0-3.262-1.532-3.262-3.417C.624 2.17 2.087.638 3.886.638zm0-.627H3.886C1.754.011.025 1.821.025 4.055.025 6.29 1.754 8.1 3.886 8.1h26.617c2.133 0 3.862-1.81 3.862-4.044 0-2.233-1.73-4.044-3.862-4.044z" id="XMLID_11_"/></g></g><g id="shadow" transform="translate(0 21.938)" opacity=".15" fill="#010101"><path d="M30.503 3.462H3.886C1.856 3.462.191 1.949.04.03a3.885 3.885 0 0 0-.014.29c0 2.055 1.729 3.721 3.861 3.721h26.617c2.133 0 3.862-1.666 3.862-3.721 0-.096-.004-.195-.015-.29-.152 1.918-1.817 3.43-3.847 3.43z" id="XMLID_9_"/></g><g id="symbol" transform="translate(2.4 20.313)" fill="#fff"><path d="M1.982 1.499V.972a.07.07 0 0 0-.04-.063L.149.013C.1-.013.033.023.033.076l.003.56c0 .027.015.05.04.064l1.066.534-1.066.53a.07.07 0 0 0-.04.063v.564c0 .053.066.09.117.063l1.789-.892a.07.07 0 0 0 .04-.063z" id="XMLID_5_"/><path d="M3.942 2.683a.102.102 0 0 0-.07-.023H1.797c-.065 0-.098.03-.098.09v.37c0 .067.033.1.098.1h2.077a.077.077 0 0 0 .04-.01l.032-.023a.21.21 0 0 0 .022-.033c.004-.013.008-.023.008-.033v-.372c-.004-.03-.011-.053-.033-.066z" id="XMLID_8_"/></g><g id="highlight" transform="translate(.8 18.688)" opacity=".5" fill="#fff"><path d="M.014 3.95c0-1.954 1.432-3.536 3.2-3.536h27.12c.609 0 1.18.19 1.666.515-.588-.573-1.358-.921-2.205-.921H3.343C1.502.008.011 1.656.011 3.69v.22c0 .043 0 .086.003.128z" id="XMLID_16_"/></g><g id="texture" transform="translate(0 18.688)" opacity=".05" fill="#010101"><path d="M33.987 1.272C27.111-4.266 8.723 10.763.028 4.11c.41 1.821 1.943 3.177 3.768 3.177h26.726c2.142 0 3.878-1.859 3.878-4.152 0-.67-.15-1.302-.413-1.862z" id="XMLID_52_"/></g><g id="XMLID_65_" transform="translate(7.2 20.313)" fill="#fff"><path d="M2.024 2.494c.029 0 .053.013.075.037a.126.126 0 0 1 .032.085v.488c0 .032-.011.06-.032.085a.096.096 0 0 1-.075.037H.128a.096.096 0 0 1-.075-.037.126.126 0 0 1-.032-.085V.142c0-.032.01-.06.032-.085A.096.096 0 0 1 .128.02h1.864c.029 0 .053.012.075.037a.126.126 0 0 1 .032.085V.63c0 .032-.011.06-.032.085a.096.096 0 0 1-.075.037H.76v.495h1.145c.028 0 .053.012.074.037a.126.126 0 0 1 .032.085v.488c0 .032-.01.06-.032.085a.096.096 0 0 1-.074.036H.759v.512h1.265z" id="XMLID_26_"/><path d="M3.73 2.295l-.515.825a.57.57 0 0 1-.053.073c-.021.02-.057.033-.11.033h-.606a.07.07 0 0 1-.06-.029.103.103 0 0 1-.025-.069c0-.004 0-.012.004-.02 0-.008.003-.016.01-.029L3.3 1.597 2.414.17a.158.158 0 0 1-.01-.05c0-.028.007-.052.024-.068a.078.078 0 0 1 .06-.029h.603c.053 0 .092.017.117.045.025.033.043.053.053.07l.486.775.468-.776c.01-.016.028-.036.053-.069.025-.032.064-.045.117-.045H5a.07.07 0 0 1 .06.029c.018.02.025.045.025.069a.121.121 0 0 1-.011.049l-.89 1.446.918 1.462c.007.013.007.02.011.029 0 .008.004.016.004.02a.095.095 0 0 1-.025.07.078.078 0 0 1-.06.028h-.61c-.053 0-.089-.013-.11-.033a.261.261 0 0 1-.053-.073z" id="XMLID_28_"/><path d="M7.498.016c.028 0 .053.012.074.037a.126.126 0 0 1 .032.085v.488c0 .032-.01.06-.032.085a.096.096 0 0 1-.074.037h-.706V3.1c0 .032-.01.06-.032.085a.096.096 0 0 1-.074.037h-.525a.096.096 0 0 1-.074-.037.126.126 0 0 1-.032-.085V.747h-.706a.096.096 0 0 1-.074-.036.126.126 0 0 1-.032-.085V.138c0-.032.01-.06.032-.085a.096.096 0 0 1 .074-.037z" id="XMLID_34_"/><path d="M9.157.016c.177 0 .333.02.471.065.139.045.256.106.355.191a.816.816 0 0 1 .223.33c.053.133.078.288.078.466 0 .228-.042.419-.124.573a.812.812 0 0 1-.35.346l.495 1.092c.008.02.011.037.011.05 0 .028-.007.052-.025.068a.078.078 0 0 1-.06.029h-.546c-.053 0-.092-.013-.113-.041a.846.846 0 0 1-.054-.081l-.443-.983h-.368v.983c0 .032-.011.06-.032.085a.096.096 0 0 1-.075.037h-.524A.096.096 0 0 1 8 3.189a.126.126 0 0 1-.032-.085V.142c0-.032.01-.06.032-.085A.096.096 0 0 1 8.076.02h1.08zm-.45 1.39h.453a.478.478 0 0 0 .277-.074c.074-.048.11-.138.11-.264 0-.13-.036-.215-.11-.264A.494.494 0 0 0 9.16.731h-.453z" id="XMLID_39_"/><path d="M12.206.016c.053 0 .095.017.12.049a.3.3 0 0 1 .057.102l.872 2.888c.01.033.018.053.018.07 0 .027-.007.052-.025.068a.078.078 0 0 1-.06.029h-.504c-.053 0-.092-.013-.113-.041a.21.21 0 0 1-.043-.077l-.113-.382H11.35l-.113.382a.192.192 0 0 1-.043.077c-.021.024-.06.04-.113.04h-.504c-.024 0-.046-.008-.06-.028a.103.103 0 0 1-.025-.069c0-.016.004-.037.018-.069l.872-2.888a.294.294 0 0 1 .057-.102.15.15 0 0 1 .12-.049h.646zm-.646 2.007h.65l-.323-1.1z" id="XMLID_42_"/><path d="M15.378.016c.029 0 .054.012.075.037a.126.126 0 0 1 .032.085v.488c0 .032-.01.06-.032.085a.096.096 0 0 1-.075.037h-.705V3.1c0 .032-.01.06-.032.085a.096.096 0 0 1-.074.037h-.525a.096.096 0 0 1-.074-.037.126.126 0 0 1-.032-.085V.747h-.706a.096.096 0 0 1-.074-.036.126.126 0 0 1-.032-.085V.138c0-.032.01-.06.032-.085a.096.096 0 0 1 .074-.037h2.148z" id="XMLID_45_"/><path d="M17.85 2.494c.028 0 .053.013.074.037a.126.126 0 0 1 .032.085v.488c0 .032-.01.06-.032.085a.096.096 0 0 1-.075.037h-1.896a.096.096 0 0 1-.075-.037.126.126 0 0 1-.032-.085V.142c0-.032.011-.06.032-.085a.096.096 0 0 1 .075-.037h1.864c.029 0 .054.012.075.037a.126.126 0 0 1 .032.085V.63c0 .032-.01.06-.032.085a.096.096 0 0 1-.075.037h-1.233v.495h1.145c.028 0 .053.012.074.037a.126.126 0 0 1 .032.085v.488c0 .032-.01.06-.032.085a.096.096 0 0 1-.074.036h-1.145v.512h1.265z" id="XMLID_47_"/><path d="M19.611.016c.177 0 .333.02.472.065.138.045.255.106.354.191a.816.816 0 0 1 .224.33c.053.133.078.288.078.466 0 .228-.043.419-.125.573a.812.812 0 0 1-.35.346l.496 1.092c.007.02.01.037.01.05 0 .028-.007.052-.024.068a.078.078 0 0 1-.06.029h-.547c-.053 0-.092-.013-.113-.041a.846.846 0 0 1-.053-.081l-.443-.983h-.369v.983c0 .032-.01.06-.032.085a.096.096 0 0 1-.074.037h-.525a.096.096 0 0 1-.074-.037.126.126 0 0 1-.032-.085V.142c0-.032.01-.06.032-.085A.096.096 0 0 1 18.53.02h1.081zm-.454 1.39h.454a.478.478 0 0 0 .277-.073c.074-.05.11-.139.11-.265 0-.13-.036-.215-.11-.264a.494.494 0 0 0-.277-.073h-.454z" id="XMLID_49_"/><path d="M22.37 2.417a.502.502 0 0 1-.054-.077l-.376-.756v1.52c0 .032-.01.06-.032.085a.096.096 0 0 1-.074.037h-.525a.096.096 0 0 1-.074-.037.126.126 0 0 1-.032-.085V.142c0-.032.01-.06.032-.085a.096.096 0 0 1 .074-.037h.465c.053 0 .092.017.12.05.029.032.043.056.053.072l.65 1.272.648-1.272a.342.342 0 0 1 .053-.073.15.15 0 0 1 .12-.049h.465c.028 0 .053.012.074.037a.126.126 0 0 1 .032.085v2.962c0 .032-.01.06-.032.085a.096.096 0 0 1-.074.037h-.525a.096.096 0 0 1-.074-.037.126.126 0 0 1-.032-.085v-1.52l-.376.756a.827.827 0 0 1-.053.077.122.122 0 0 1-.096.04h-.255c-.046 0-.078-.011-.103-.04z" id="XMLID_59_"/></g></g></svg>