<svg xmlns="http://www.w3.org/2000/svg" height="48" width="48" version="1" id="svg16"><defs id="defs20"><style id="style4511"/><style id="style4511-26"/><style id="style4511-9"/><style id="style4552"/><style id="style4511-2"/></defs><circle cy="18" cx="17" id="ellipse8" fill="#3f3f3f"/><style type="text/css" id="style4485"/><path d="M18.945 2.259h8.495c13.908 0 16.804 11.247 16.804 17.282v7.123c0 5.96-2.704 17.282-17.836 17.282h-6.93c-11.563 0-17.146-7.708-17.146-17.282v-7.123c0-9.574 5.47-17.282 16.613-17.282z" id="rect4144" opacity="1" fill="#fecd38" fill-opacity="1" stroke="none" stroke-width=".334" stroke-linecap="square" stroke-linejoin="bevel" stroke-miterlimit="4" stroke-dasharray="none" stroke-dashoffset="0" stroke-opacity="1"/><g id="g1168" transform="matrix(1.51638 0 0 1.39812 -12.026 -8.876)" stroke-width=".827"><path id="path2153" d="M17.498 16.445a2.481 2.481 0 0 0-2.481 2.482 2.481 2.481 0 0 0 2.481 2.481 2.481 2.481 0 0 0 2.482-2.481 2.481 2.481 0 0 0-2.482-2.482zm11.58 0a2.481 2.481 0 0 0-2.481 2.482 2.481 2.481 0 0 0 2.481 2.481 2.481 2.481 0 0 0 2.481-2.481 2.481 2.481 0 0 0-2.48-2.482zM16.671 28.852a7.651 8.271 0 0 0 6.62 4.136 7.651 8.271 0 0 0 6.614-4.136h-.929a7.651 8.271 0 0 1-5.685 2.758 7.651 8.271 0 0 1-5.688-2.758z" opacity=".2" fill="#fff"/><circle id="ellipse2157" cx="17.498" cy="18.1" r="2.481" fill="#3f3f3f"/><circle id="circle2159" r="2.481" cx="29.078" cy="18.1" fill="#3f3f3f"/><path id="path2161" d="M16.671 28.025a7.651 8.271 0 0 0 6.62 4.136 7.651 8.271 0 0 0 6.614-4.136h-.93a7.651 8.271 0 0 1-5.683 2.757 7.651 8.271 0 0 1-5.689-2.757h-.932z" fill="#3f3f3f"/></g></svg>