<svg xmlns:osb="http://www.openswatchbook.org/uri/2009/osb" xmlns="http://www.w3.org/2000/svg" xmlns:xlink="http://www.w3.org/1999/xlink" width="48" height="48" version="1.1" id="svg38"><defs id="defs22"><linearGradient id="linearGradient4488"><stop id="stop4490" offset="0" stop-color="#000" stop-opacity=".047"/><stop id="stop4492" offset="1" stop-color="#000" stop-opacity="0"/></linearGradient><style id="style4511"/><style id="style4511-26"/><style id="style4511-9"/><style id="style4552"/><style id="style4511-2"/><linearGradient xlink:href="#linearGradient4488" id="linearGradient4540" gradientUnits="userSpaceOnUse" gradientTransform="matrix(.30673 0 0 .3038 -63.522 1.994)" x1="288.112" y1="141.785" x2="287.575" y2="79.008"/><linearGradient osb:paint="solid" id="linearGradient5293"><stop id="stop5295" offset="0" stop-color="#9a89c0" stop-opacity="1"/></linearGradient><linearGradient id="linearGradient3650-7-9-7"><stop id="stop4366-9" offset="0" stop-color="#3c5a99" stop-opacity="1"/><stop offset="1" id="stop4368-2" stop-color="#647fb8" stop-opacity="1"/></linearGradient><linearGradient xlink:href="#linearGradient3650-7-9-7" id="linearGradient1517" x1="2.583" y1="23.586" x2="45.236" y2="23.586" gradientUnits="userSpaceOnUse"/></defs><style id="style4485" type="text/css"/><g id="g1522" transform="translate(0 .305)"><path d="M2.75 26.22v1.669c0 9.574 5.638 17.282 17.312 17.282h6.998c15.278 0 18.008-11.323 18.008-17.282V26.22c0 5.96-2.73 17.282-18.008 17.282h-6.998c-11.674 0-17.311-7.708-17.311-17.282z" id="path4516" opacity="1" fill="url(#linearGradient4540)" fill-opacity="1" stroke="none" stroke-width="1.105" stroke-linecap="square" stroke-linejoin="bevel" stroke-miterlimit="4" stroke-dasharray="none" stroke-dashoffset="0" stroke-opacity=".078"/><path d="M19.524 2.743h8.578c14.042 0 16.966 11.246 16.966 17.282v7.122c0 5.96-2.73 17.282-18.009 17.282h-6.997c-11.674 0-17.311-7.707-17.311-17.282v-7.122c0-9.575 5.523-17.282 16.773-17.282z" id="path4518" opacity="1" fill="url(#linearGradient1517)" fill-opacity="1" stroke="#000" stroke-width=".336" stroke-linecap="square" stroke-linejoin="bevel" stroke-miterlimit="4" stroke-dasharray="none" stroke-dashoffset="0" stroke-opacity=".078"/><path d="M29.928 44.435v-14.9h6.915l1.036-5.807h-7.951V20.02c0-1.68.645-2.827 3.979-2.827h4.252v-5.195c-.736-.07-3.26-.229-6.196-.229-6.13 0-10.327 2.706-10.327 7.676v4.283h-6.933v5.807h6.933v14.9z" id="f-3" fill="#fff" stroke-width=".176"/></g></svg>