<svg xmlns:osb="http://www.openswatchbook.org/uri/2009/osb" xmlns="http://www.w3.org/2000/svg" xmlns:xlink="http://www.w3.org/1999/xlink" width="48" height="48" version="1.1" id="svg38"><defs id="defs22"><linearGradient id="linearGradient4488"><stop id="stop4490" offset="0" stop-color="#000" stop-opacity=".047"/><stop id="stop4492" offset="1" stop-color="#000" stop-opacity="0"/></linearGradient><style id="style4511"/><style id="style4511-26"/><style id="style4511-9"/><style id="style4552"/><style id="style4511-2"/><linearGradient xlink:href="#linearGradient4488" id="linearGradient4540" gradientUnits="userSpaceOnUse" gradientTransform="translate(-62.889 1.994) scale(.3038)" x1="288.112" y1="141.785" x2="287.575" y2="79.008"/><linearGradient osb:paint="solid" id="linearGradient5293"><stop id="stop5295" offset="0" stop-color="#9a89c0" stop-opacity="1"/></linearGradient><linearGradient x1="46.493" gradientTransform="matrix(1.34484 0 0 1.3867 154.877 406.595)" x2="46.493" gradientUnits="userSpaceOnUse" y2="53.006" id="linearGradient3117"><stop offset="0" id="stop4148-2" stop-color="#f6f6f6"/><stop offset="1" id="stop4150-8" stop-color="#e2e2e2"/></linearGradient><radialGradient r="23" gradientTransform="matrix(0 -2.8515 3.7557 0 674.001 398.263)" cx="26.617" cy="-2.065" gradientUnits="userSpaceOnUse" id="radialGradient3322-7"><stop offset="0" id="stop2749-8" stop-color="#d280b9" stop-opacity="1"/><stop id="stop4269-6" offset=".529" stop-color="#b549b5" stop-opacity="1"/><stop offset="1" id="stop2755-8" stop-color="#8940a8" stop-opacity="1"/></radialGradient><linearGradient xlink:href="#linearGradient3117" id="linearGradient1521" x1="8.18" y1="28.461" x2="41.18" y2="28.461" gradientUnits="userSpaceOnUse"/><radialGradient xlink:href="#radialGradient3322-7" id="radialGradient1504" cx="23.909" cy="23.784" fx="23.909" fy="23.784" r="21.012" gradientTransform="matrix(1 0 0 1.015 0 -.357)" gradientUnits="userSpaceOnUse"/></defs><style id="style4485" type="text/css"/><g id="g1513" transform="matrix(1.03137 0 0 1.0214 -.392 -.256)"><path d="M2.75 26.22v1.67c0 9.573 5.583 17.281 17.146 17.281h6.93c15.132 0 17.836-11.322 17.836-17.282v-1.668c0 5.96-2.704 17.282-17.836 17.282h-6.93C8.333 43.503 2.75 35.795 2.75 26.22z" id="path4516" opacity="1" fill="url(#linearGradient4540)" fill-opacity="1" stroke="none" stroke-width="1.1" stroke-linecap="square" stroke-linejoin="bevel" stroke-miterlimit="4" stroke-dasharray="none" stroke-dashoffset="0" stroke-opacity=".078"/><path d="M3.065 28.169v-8.577c0-14.042 11.247-16.967 17.282-16.967h7.123c5.96 0 17.282 2.73 17.282 18.009v6.997c0 11.674-7.707 17.312-17.282 17.312h-7.123c-9.574 0-17.282-5.523-17.282-16.774z" id="path4518" opacity="1" fill="url(#radialGradient1504)" fill-opacity="1" stroke="#000" stroke-width=".336" stroke-linecap="square" stroke-linejoin="bevel" stroke-miterlimit="4" stroke-dasharray="none" stroke-dashoffset="0" stroke-opacity=".078"/><path id="path1543" d="M20.663 11.898c-2.472-.009-5.308.468-8.532 1.803 4.422.344 6.319.962 6.426 1.431-7.2-1.237-9.808 8.339-10.294 13.509-.03.32.067.312.053.595 0 0 2.682-3.282 3.581-3.596.277-.097.586-.189.92-.28-.8.826-1.47 1.537-1.973 1.927-.178.353-.356.804-.57 1.185-1.511 3.501-2.1 6.463-2.094 8.846.001.298.067 2.015.083 2.289-.06.978.096 1.325.29 1.619.27.184.708.607 1.435 1.026.25.24 1.162.702 1.9 1.1 4.867 1.884 7.082 1.664 11.31 1.672 4.71-.008 10.936.139 14.535-2.897-1.18-1.14-7.67-7.948-7.553-11.981.06-2.09 1.246-3.968 5.112-5.037a36.57 36.57 0 0 1 5.888-.211c-.347-2.692-2.955-5.51-7.08-6.379-.707-.337-4.889-6.591-13.437-6.621z" fill="url(#linearGradient1521)" fill-opacity="1" fill-rule="evenodd"/><path id="path1545" d="M28.138 16.51s3.539-1.391 4 2.746c-3.49.361-4-2.746-4-2.746z" fill="#3f3f3f" fill-rule="evenodd"/><path id="path1547" d="M13.619 41.367s5.97-15.606 23.105-16.204c0 0-14.75-2.21-24.57 12.183-.054 2.037 1.465 4.021 1.465 4.021z" opacity=".1" fill-rule="evenodd" stroke-width=".865"/><path id="path1549" d="M13.619 40.535s5.97-15.606 23.105-16.204c0 0-14.75-2.21-24.57 12.183-.054 2.036 1.465 4.021 1.465 4.021z" fill="#ffb039" fill-rule="evenodd" stroke-width=".865"/><path id="path1551" d="M13.104 13.089s4.751.276 6.447 1.443c.709-.146 1.31-.631 1.412-1.291-.607-.252-6.17-.705-7.859-.152z" fill="#ffb039" fill-rule="evenodd"/><path id="path1553" d="M9.196 29.96s6.15-7.145 18.158-7.999c0 0-16.548.74-17.92 5.355-.382 1.11-.238 2.643-.238 2.643z" opacity=".1" fill-rule="evenodd"/><path id="path1555" d="M9.196 28.96s6.15-7.145 18.158-7.998c0 0-16.548.738-17.92 5.354-.382 1.11-.238 2.643-.238 2.643z" fill="#ffb039" fill-rule="evenodd"/></g></svg>