<svg xmlns="http://www.w3.org/2000/svg" style="isolation:isolate" width="48" height="48"><defs><filter height="1.007" width="1.008" y="-.004" x="-.004" id="a"><feOffset result="offOut" in="SourceAlpha"/><feComponentTransfer result="opacOut" in="blurOut"><feFuncA tableValues="0 0.5" type="table"/></feComponentTransfer><feBlend in2="opacOut" in="SourceGraphic"/></filter></defs><path d="M45.033 20.405c.044-10.873-8.032-16.24-18.091-16.274l-4.51-.016-.166 40.896 4.51.015c6.342.023 18.169-2.763 18.224-16.334z" vector-effect="non-scaling-stroke" fill="#373737" stroke="#373737" stroke-width=".338" stroke-linecap="square" stroke-linejoin="bevel"/><path d="M3.081 28.749c-.026 10.873 7.383 16.23 16.604 16.252l4.134.01.099-40.896-4.135-.01C13.97 4.091 3.133 6.891 3.101 20.462z" vector-effect="non-scaling-stroke" fill="#373737" stroke="#000" stroke-width=".324" stroke-linecap="square" stroke-linejoin="bevel" stroke-opacity=".078"/><path d="M29.739 21.071c2.447-1.044 5.637-1.68 10.313-1.548-2.239-2.852-4.241-4.933-5.441-7.025-3.315 1.916-5.744 3.899-7.553 5.908a6.38 6.38 0 0 0-2.761-.742c.311-2.624 1.339-5.699 3.81-9.714h-8.059c-.562 4.776-.195 8.093.609 10.693a6.46 6.46 0 0 0-2.045 2.064c-2.11-1.539-4.244-3.703-6.449-6.755-1.106 2.474-2.203 4.137-4.06 5.565 3.821 2.859 6.887 4.223 9.551 4.835.04 1.007.315 1.94.761 2.776-2.447 1.044-5.637 1.678-10.312 1.546 2.237 2.852 4.239 4.933 5.441 7.025 3.313-1.916 5.743-3.895 7.55-5.904a6.38 6.38 0 0 0 2.764.741c-.311 2.625-1.339 5.7-3.81 9.714h8.059c.564-4.775.195-8.092-.611-10.693a6.447 6.447 0 0 0 2.047-2.064c2.112 1.538 4.247 3.703 6.451 6.751 1.106-2.472 2.202-4.137 4.06-5.563-3.821-2.859-6.886-4.222-9.553-4.836a6.433 6.433 0 0 0-.762-2.774zm-5.661 5.051a2.019 2.019 0 0 1 0-4.038 2.02 2.02 0 0 1 0 4.038z" transform="matrix(.95218 0 0 .9758 1.13 1.047)" fill="#b6ff33" filter="url(#a)" stroke-width=".481" stroke-linecap="round" stroke-linejoin="round"/></svg>