<svg xmlns="http://www.w3.org/2000/svg" xmlns:xlink="http://www.w3.org/1999/xlink" width="48" height="48" version="1.1" id="svg38"><defs id="defs22"><style id="style4511"/><style id="style4511-26"/><style id="style4511-9"/><style id="style4552"/><style id="style4511-2"/><linearGradient id="linearGradient10682"><stop id="stop10684" offset="0" stop-color="gray" stop-opacity="1"/><stop id="stop10686" offset="1" stop-color="#606060" stop-opacity="1"/></linearGradient><clipPath id="clipPath-886807824"/><clipPath id="clipPath-897244418"/><radialGradient xlink:href="#linearGradient10682" id="radialGradient1801" cx="24.109" cy="23.808" fx="24.109" fy="23.808" r="21.123" gradientTransform="matrix(1 0 0 .99467 0 .127)" gradientUnits="userSpaceOnUse"/></defs><style id="style4485" type="text/css"/><path d="M19.765 2.965h8.496c13.907 0 16.804 11.246 16.804 17.282v7.123c0 5.96-2.704 17.282-17.837 17.282h-6.93c-11.562 0-17.146-7.766-17.146-17.282v-7.123c0-9.575 5.47-17.282 16.613-17.282z" id="rect4144" opacity="1" fill="url(#radialGradient1801)" fill-opacity="1" stroke="#000" stroke-width=".334" stroke-linecap="square" stroke-linejoin="bevel" stroke-miterlimit="4" stroke-dasharray="none" stroke-dashoffset="0" stroke-opacity=".078"/><g id="g3128" transform="matrix(1.16346 0 0 1.24038 -3.814 -5.34)"><path id="rect3042" fill="#ccc" fill-opacity="1" fill-rule="nonzero" stroke="none" d="M11 17h26v13H11z"/><path id="rect3044" fill="#333" fill-opacity="1" fill-rule="nonzero" stroke="none" d="M12 19h24v10H12z"/><path id="rect3046" fill="#b3b3b3" fill-opacity="1" fill-rule="nonzero" stroke="none" d="M15 22h3v5h-3z"/><path transform="rotate(90)" id="rect3048" fill="#b3b3b3" fill-opacity="1" fill-rule="nonzero" stroke="none" d="M23-19h3v5h-3z"/><path id="rect3050" fill="#999" fill-opacity="1" fill-rule="nonzero" stroke="none" d="M21 19h6v1h-6z"/><path id="rect3052" fill="#999" fill-opacity="1" fill-rule="nonzero" stroke="none" d="M21 23h6v1h-6z"/><path id="rect3056" fill="#b3b3b3" fill-opacity="1" fill-rule="nonzero" stroke="none" d="M21 25h6v2h-6z"/><path id="rect3058" fill="#999" fill-opacity="1" fill-rule="nonzero" stroke="none" d="M21 21h6v1h-6z"/><path id="rect3060" fill="#999" fill-opacity="1" fill-rule="nonzero" stroke="none" d="M21 28h6v1h-6z"/><path id="rect3062" fill="#333" fill-opacity="1" fill-rule="nonzero" stroke="none" d="M21.665 25.751h2v.5h-2z"/><path id="rect3064" fill="#333" fill-opacity="1" fill-rule="nonzero" stroke="none" d="M24.333 25.751h2v.5h-2z"/><path id="rect3068" fill="#b3b3b3" fill-opacity="1" fill-rule="nonzero" stroke="none" d="M32 24h3v3h-3z"/><g transform="translate(0 -1)" id="g3091"><path id="rect3066" fill="#b3b3b3" fill-opacity="1" fill-rule="nonzero" stroke="none" d="M28 25h3v3h-3z"/><g id="g3088"><circle r="1.5" cy="18.5" cx="-30.5" transform="translate(54.917 11.083) scale(.83333)" id="path3070" fill="#d40000" fill-opacity="1" fill-rule="nonzero" stroke="none"/></g></g><circle r="1.5" cy="18.5" cx="-30.5" transform="translate(58.917 10.083) scale(.83333)" id="path3072" fill="#d40000" fill-opacity="1" fill-rule="nonzero" stroke="none"/><path id="rect3074" fill="#a00" fill-opacity="1" fill-rule="nonzero" stroke="none" d="M28 21h7v1h-7z"/><path id="rect3100" fill="#333" fill-opacity="1" fill-rule="nonzero" stroke="none" d="M15 24h3v1h-3z"/><path id="rect3102" fill="#333" fill-opacity="1" fill-rule="nonzero" stroke="none" d="M16 23h1v3h-1z"/></g></svg>