<svg xmlns:osb="http://www.openswatchbook.org/uri/2009/osb" xmlns="http://www.w3.org/2000/svg" xmlns:xlink="http://www.w3.org/1999/xlink" width="48" height="48" version="1.1" id="svg38"><defs id="defs22"><style id="style4511"/><style id="style4511-26"/><style id="style4511-9"/><style id="style4552"/><style id="style4511-2"/><linearGradient osb:paint="solid" id="linearGradient5293"><stop id="stop5295" offset="0" stop-color="#9a89c0" stop-opacity="1"/></linearGradient><linearGradient gradientTransform="rotate(3.388 -184.056 1079.17)" gradientUnits="userSpaceOnUse" id="SVGID_1_-7" y2="27.29" x2="43.38" y1="5.991" x1="4.656"><stop offset="0" id="stop16-3" stop-color="#e64404" stop-opacity="1"/><stop offset="1" id="stop18-6" stop-color="#ee6525" stop-opacity="1"/></linearGradient><linearGradient xlink:href="#SVGID_1_-7" id="linearGradient1508" x1="5.111" y1="23.665" x2="42.166" y2="23.665" gradientUnits="userSpaceOnUse"/></defs><style id="style4485" type="text/css"/><rect id="Mask" x="63.147" y="78.204" width="20.231" height="20.096" rx=".581" fill="#f1f1f1" fill-opacity="1" fill-rule="evenodd" stroke="none" stroke-width=".336"/><path id="path4518" d="M19.363 2.742h8.495c13.908 0 16.804 11.247 16.804 17.282v7.124c0 5.96-2.704 17.282-17.836 17.282h-6.93C8.333 44.43 2.75 36.722 2.75 27.148v-7.124c0-9.574 5.47-17.282 16.613-17.282z" opacity="1" fill="#f9f9f9" fill-opacity="1" stroke="#000" stroke-width=".334" stroke-linecap="square" stroke-linejoin="bevel" stroke-miterlimit="4" stroke-dasharray="none" stroke-dashoffset="0" stroke-opacity=".078"/><path id="path4518-0" d="M19.83 5.318h7.45c12.199 0 14.74 9.9 14.74 15.212v6.27c0 5.246-2.372 15.212-15.645 15.212h-6.078c-10.142 0-15.039-6.785-15.039-15.212v-6.27c0-8.427 4.798-15.212 14.572-15.212z" opacity="1" fill="url(#linearGradient1508)" fill-opacity="1" stroke="#000" stroke-width=".294" stroke-linecap="square" stroke-linejoin="bevel" stroke-miterlimit="4" stroke-dasharray="none" stroke-dashoffset="0" stroke-opacity=".078"/><path id="path26" d="M33.574 15.882l-1.419-4.572s-19.787-1.27-21.772 8.217c0 0-1.047 6.015 5.743 6.839 0 0 3.729.39 8.276.189 0 0 6.35-.502 3.237 2.486 0 0-3.237 3.773-14.207 2.113l1.32 4.545s8.829 1.521 15.647-1.54c0 0 7.933-3.168 6.344-9.112 0 0-.985-4.253-7.844-4.016 0 0-4.392.155-6.308-.028 0 0-4.737-.44-3.431-2.538 0-.001 1.813-3.163 14.414-2.583z" fill="#fff" stroke-width=".994"/></svg>