<svg xmlns:osb="http://www.openswatchbook.org/uri/2009/osb" xmlns="http://www.w3.org/2000/svg" xmlns:xlink="http://www.w3.org/1999/xlink" width="48" height="48" version="1.1" id="svg38"><defs id="defs22"><linearGradient id="linearGradient4488"><stop id="stop4490" offset="0" stop-color="#000" stop-opacity=".047"/><stop id="stop4492" offset="1" stop-color="#000" stop-opacity="0"/></linearGradient><style id="style4511"/><style id="style4511-26"/><style id="style4511-9"/><style id="style4552"/><style id="style4511-2"/><linearGradient xlink:href="#linearGradient4488" id="linearGradient4540" gradientUnits="userSpaceOnUse" gradientTransform="matrix(.30673 0 0 .3038 -63.522 1.994)" x1="288.112" y1="141.785" x2="287.575" y2="79.008"/><linearGradient osb:paint="solid" id="linearGradient5293"><stop id="stop5295" offset="0" stop-color="#9a89c0" stop-opacity="1"/></linearGradient><linearGradient osb:paint="solid" id="linearGradient5251"><stop id="stop5253" offset="0" stop-color="#2f343f" stop-opacity="1"/></linearGradient><clipPath id="clipPath-069049578"/></defs><style id="style4485" type="text/css"/><path id="path4518" d="M44.905 19.354v8.576c0 14.042-11.329 16.967-17.408 16.967h-7.175c-6.003 0-17.407-2.73-17.407-18.009v-6.996c0-11.674 7.763-17.311 17.407-17.311h7.175c9.644 0 17.408 5.522 17.408 16.773z" opacity="1" fill="#eb6227" fill-opacity="1" stroke="#000" stroke-width=".337" stroke-linecap="square" stroke-linejoin="bevel" stroke-miterlimit="4" stroke-dasharray="none" stroke-dashoffset="0" stroke-opacity=".078"/><path id="path4516" d="M2.75 26.22v1.669c0 9.574 5.638 17.282 17.312 17.282h6.998c15.278 0 18.008-11.323 18.008-17.282V26.22c0 5.96-2.73 17.282-18.008 17.282h-6.998c-11.674 0-17.311-7.708-17.311-17.282z" opacity="1" fill="url(#linearGradient4540)" fill-opacity="1" stroke="none" stroke-width="1.105" stroke-linecap="square" stroke-linejoin="bevel" stroke-miterlimit="4" stroke-dasharray="none" stroke-dashoffset="0" stroke-opacity=".078"/><path id="path49" d="M18.598 33.729c-.059 2.141-1.805 3.828-3.898 3.766-2.094-.063-3.742-1.848-3.68-3.988.059-2.141 1.805-3.828 3.898-3.766 2.094.063 3.742 1.848 3.68 3.988m0 0" fill="#fff" fill-opacity="1" fill-rule="nonzero" stroke="none"/><path id="path51" d="M21.934 37.503h4.996c-.273-11.168-8.121-16.441-15.918-17.234v5.293c6.277.516 10.852 4.617 10.922 11.941m0 0" fill="#fff" fill-opacity="1" fill-rule="nonzero" stroke="none"/><path id="path53" d="M30.836 37.511l4.148-.012c.695-14.789-12.13-25.5-23.969-25.988v4.836c10.859 1.199 19.867 10.367 19.824 21.16m-.004 0" fill="#fff" fill-opacity="1" fill-rule="nonzero" stroke="none"/></svg>