<svg xmlns="http://www.w3.org/2000/svg" xmlns:xlink="http://www.w3.org/1999/xlink" width="48" height="48" version="1.1" id="svg38"><defs id="defs22"><linearGradient id="linearGradient3764-36" x1="1" x2="47" gradientUnits="userSpaceOnUse" gradientTransform="rotate(-90 -2.387 47.568)"><stop stop-color="#70af2d" stop-opacity="1" id="stop1270"/><stop offset="1" stop-color="#79bf31" stop-opacity="1" id="stop1272"/></linearGradient><linearGradient id="linearGradient4488"><stop id="stop4490" offset="0" stop-color="#000" stop-opacity=".047"/><stop id="stop4492" offset="1" stop-color="#000" stop-opacity="0"/></linearGradient><style id="style4511"/><style id="style4511-26"/><style id="style4511-9"/><style id="style4552"/><style id="style4511-2"/><linearGradient xlink:href="#linearGradient4488" id="linearGradient4546" gradientUnits="userSpaceOnUse" gradientTransform="translate(-62.497 1.994) scale(.3038)" x1="288.112" y1="141.785" x2="287.575" y2="79.008"/><clipPath id="clipPath-728300487"/><linearGradient xlink:href="#linearGradient3764-36" id="linearGradient1286" x1="2.974" y1="23.586" x2="45.221" y2="23.586" gradientUnits="userSpaceOnUse"/></defs><style id="style4485" type="text/css"/><path d="M19.754 2.742h8.495c13.908 0 16.805 11.247 16.805 17.282v7.124c0 5.96-2.704 17.282-17.837 17.282h-6.93c-11.562 0-17.146-7.708-17.146-17.282v-7.124c0-9.574 5.47-17.282 16.613-17.282z" id="path4530" opacity="1" fill="url(#linearGradient1286)" fill-opacity="1" stroke="#000" stroke-width=".334" stroke-linecap="square" stroke-linejoin="bevel" stroke-miterlimit="4" stroke-dasharray="none" stroke-dashoffset="0" stroke-opacity=".078"/><path d="M3.141 26.22v1.67c0 9.573 5.583 17.281 17.146 17.281h6.93c15.133 0 17.837-11.322 17.837-17.282v-1.668c0 5.96-2.704 17.282-17.837 17.282h-6.93c-11.563 0-17.146-7.708-17.146-17.282z" id="path4528" opacity="1" fill="url(#linearGradient4546)" fill-opacity="1" stroke="none" stroke-width="1.1" stroke-linecap="square" stroke-linejoin="bevel" stroke-miterlimit="4" stroke-dasharray="none" stroke-dashoffset="0" stroke-opacity=".078"/><path id="path1196" d="M29.318 9.95a1.54 1.475 0 0 0-1.062.458l-13.233 13.36a1.51 1.445 0 0 0 .046 2.046l1.15 1.043 3.496-.133 12.571-12.68c.575-.587.52-1.496-.088-2.047l-1.817-1.637a1.472 1.409 0 0 0-1.063-.408m.886 10.138a1.515 1.45 0 0 0-1.062.452l-8.412 8.406a1.506 1.442 0 0 0 .046 2.046l1.15.999 3.497-.089 7.747-7.727a1.506 1.442 0 0 0-.046-2.047l-1.859-1.634a1.454 1.392 0 0 0-1.062-.407m-.84 11.677c-.375-.005-.769.165-1.065.457L26.53 33.95c-.584.577-.57 1.544 0 2.135l1.012 1.092 3.454.044 1.066-1.092c.58-.582.612-1.5.041-2.09l-1.73-1.816c-.277-.298-.634-.408-1.01-.413m0-.044" fill="#f9f9f9" fill-opacity="1" fill-rule="nonzero" stroke="none" stroke-width="1.161"/></svg>