<svg xmlns="http://www.w3.org/2000/svg" width="48" height="48" version="1.1" id="svg38"><defs id="defs22"><style id="style4511"/><style id="style4511-26"/><style id="style4511-9"/><style id="style4552"/><style id="style4511-2"/><clipPath id="clipPath-886807824"/><clipPath id="clipPath-897244418"/><clipPath id="clipPath-402877394"/></defs><style id="style4485" type="text/css"/><path d="M19.765 2.965h8.496c13.907 0 16.804 11.246 16.804 17.282v7.123c0 5.96-2.704 17.282-17.837 17.282h-6.93c-11.562 0-17.146-7.766-17.146-17.282v-7.123c0-9.575 5.47-17.282 16.613-17.282z" id="rect4144" opacity="1" fill="#4d4d4d" fill-opacity="1" stroke="#000" stroke-width=".334" stroke-linecap="square" stroke-linejoin="bevel" stroke-miterlimit="4" stroke-dasharray="none" stroke-dashoffset="0" stroke-opacity=".078"/><path id="path1665" d="M21.39 33.952c6.755-1.15 20.03-7.443 4.482-9.869 12.739-.1 13.399-3.408 6.476-11.956 16.311 13.287-.14 23.747-10.385 26.317m-.572-4.49" fill="#ff2c4a" fill-opacity="1" fill-rule="nonzero" stroke="none" stroke-width="1.144"/><path id="path1667" d="M26.826 13.659c-6.749 1.15-20.028 7.448-4.481 9.869-12.739.105-13.398 3.414-6.476 11.956-16.311-13.288.14-23.746 10.385-26.312m.572 4.486" fill="#69cc2f" fill-opacity="1" fill-rule="nonzero" stroke="none" stroke-width="1.144"/></svg>