<svg height="48" width="48" xmlns="http://www.w3.org/2000/svg" xmlns:xlink="http://www.w3.org/1999/xlink"><linearGradient id="a" gradientUnits="userSpaceOnUse" x1="24.32293075612" x2="24.16006343138" y1="45.29005345782" y2="26.21847261771"><stop offset="0" stop-opacity=".046875"/><stop offset="1" stop-opacity="0"/></linearGradient><path d="m2.4332147 26.442743v1.668528c0 9.574276 5.5832168 17.282199 17.1457273 17.282199h6.930445c15.132351 0 17.836399-11.322632 17.836399-17.282199v-1.668528c0 5.959567-2.704048 17.282198-17.836399 17.282198h-6.930445c-11.5625105 0-17.1457273-7.707923-17.1457273-17.282198z" fill="url(#a)"/><path d="m19.046357 2.9645209h8.495066c13.907739 0 16.804384 11.2468651 16.804384 17.2820841v7.123176c0 5.959564-2.704172 17.282082-17.836524 17.282082h-6.930103c-11.5625118 0-17.145935-7.707808-17.145935-17.282082v-7.123176c0-9.574274 5.4701791-17.2820841 16.613112-17.2820841z" style="fill:#e02828;stroke:#000;stroke-width:.33418;stroke-linecap:square;stroke-linejoin:bevel;stroke-opacity:.078125"/><path d="m27.934305 33.823558c-1.651705-.296643-2.03441-.333959-3.093195-.301601-1.007011.03078-1.335063.08118-1.969407.302578l-.761128.265652-.761871-.757403c-.419029-.416571-.750741-.784796-.737138-.818278.0136-.03348 2.254008-2.179688 4.978677-4.769347 2.72467-2.58966 4.953944-4.72706 4.953944-4.749779 0-.02272-2.99049-.04126-6.645534-.04121l-6.645535.000092-.926428 4.277216-.926427 4.277216-1.115947.02713-1.115947.02713.22508-1.042086c.123794-.573148.99612-4.64155 1.938501-9.040894l1.713421-7.998807h6.755922c6.46081 0 6.753511.0076 6.700719.173929-.03036.09566-.20031.606763-.377662 1.135782l-.322459.961853-5.406706.02496-5.406707.02496-.568187 2.294936c-.312503 1.262214-.587994 2.349307-.612201 2.415763-.03498.09603 1.563508.120828 7.788752.120828h7.832764l-.43854 1.329106-.43854 1.329107-3.914629 3.925854c-3.474707 3.48467-3.888997 3.931969-3.686548 3.980281.125443.02994.700474.127285 1.277846.21633.577371.08904 1.643073.33338 2.368227.542967 2.04962.59239 3.180591.589231 4.359442-.01217l.383049-.195417.09904.367806c.253946.943084.253769.944278-.187939 1.26425-1.172918.849658-2.451801.955801-5.316709.441269z" fill="#fff"/></svg>