<svg xmlns="http://www.w3.org/2000/svg" xmlns:xlink="http://www.w3.org/1999/xlink" width="48" height="48" version="1.1" id="svg38"><defs id="defs22"><linearGradient id="linearGradient4488"><stop id="stop4490" offset="0" stop-color="#000" stop-opacity=".047"/><stop id="stop4492" offset="1" stop-color="#000" stop-opacity="0"/></linearGradient><style id="style4511"/><style id="style4511-26"/><style id="style4511-9"/><style id="style4552"/><style id="style4511-2"/><linearGradient xlink:href="#linearGradient4488" id="linearGradient4548" gradientUnits="userSpaceOnUse" gradientTransform="translate(-62.55 1.994) scale(.3038)" x1="288.112" y1="141.785" x2="287.575" y2="79.008"/></defs><style id="style4485" type="text/css"/><path id="path4532" d="M3.088 26.22v1.67c0 9.573 5.583 17.281 17.146 17.281h6.93c15.133 0 17.837-11.322 17.837-17.282v-1.668c0 5.96-2.704 17.282-17.837 17.282h-6.93c-11.563 0-17.146-7.708-17.146-17.282z" opacity="1" fill="url(#linearGradient4548)" fill-opacity="1" stroke="none" stroke-width="1.1" stroke-linecap="square" stroke-linejoin="bevel" stroke-miterlimit="4" stroke-dasharray="none" stroke-dashoffset="0" stroke-opacity=".078"/><path id="path4534" d="M19.701 2.742h8.495c13.908 0 16.805 11.247 16.805 17.282v7.124c0 5.96-2.704 17.282-17.837 17.282h-6.93c-11.562 0-17.146-7.708-17.146-17.282v-7.124c0-9.574 5.47-17.282 16.613-17.282z" opacity="1" fill="#636a82" fill-opacity="1" stroke="#000" stroke-width=".334" stroke-linecap="square" stroke-linejoin="bevel" stroke-miterlimit="4" stroke-dasharray="none" stroke-dashoffset="0" stroke-opacity=".078"/><path id="path5428-1" d="M24.106 9.49c2.79-.012 5.183.506 7.359 1.596.724.362.837.49.79.88-.096.8-.508.878-1.73.33-2.272-1.02-3.378-1.238-6.243-1.24-3.289-.004-4.5.278-7.197 1.675-.464.24-1.93 1.372-2.478.764-.543-.543-.256-.991 1.14-1.785 2.755-1.566 5.16-2.204 8.359-2.22zm.085 3.23c3.682-.002 7.361 1.453 10.06 4.367 1.044 1.128 2.261 2.976 2.261 3.433 0 .532-.22.826-.618.826-.312 0-.63-.337-1.386-1.473-1.69-2.54-3.883-4.227-6.707-5.159-2.19-.714-4.754-.632-7.22 0-3.181 1.046-5.911 3.377-7.407 6.324-.325.642-.52.837-.839.837-.549 0-.871-.408-.721-.916.242-.818 1.532-2.8 2.508-3.856 2.702-2.918 6.387-4.38 10.069-4.382zm-.175 3.208c.785-.013 1.581.06 2.377.227 3.781.79 6.941 3.853 7.953 7.706.537 2.045.29 5.385-.596 8.056-.264.798-.392.965-.772 1.01-.872.1-.957-.315-.435-2.12 1.494-5.167.207-9.562-3.498-11.959-3.663-2.37-8.7-1.668-11.567 1.609-1.797 2.053-2.782 5.527-1.998 7.043.518 1.001 1.779 1.603 2.814 1.343.757-.19 1.654-1.12 1.77-1.833.405-2.519.977-3.504 2.425-4.178 1.235-.576 2.264-.56 3.477.054 1.13.572 1.994 1.727 2.17 2.896.063.42.035 1.332-.063 2.024-.611 4.308-3.694 7.717-7.927 8.765a8.487 8.487 0 0 1-1.935.207l-.968-.032c-.547-.278-.577-.917 0-1.232l1.37-.21c1.723-.262 2.437-.489 3.622-1.156 2.577-1.45 4.424-4.596 4.424-7.534 0-1.294-.49-2.05-1.634-2.524-.825-.342-.837-.342-1.663 0-1.045.433-1.548 1.158-1.678 2.413-.238 2.304-1.836 3.82-4.028 3.82-1.759 0-3.24-1.142-3.765-2.902-.514-1.723.176-4.616 1.625-6.816a10.355 10.355 0 0 1 8.5-4.677zm.114 3.337c1.095.014 2.221.216 3.145.576 1.423.697 2.779 2.089 3.48 3.57.534 1.127.566 1.302.566 3.216 0 2.353-.285 3.604-1.299 5.718-.873 1.821-2.083 3.41-3.428 4.498-1.166.943-1.29.989-1.775.634-.497-.363-.22-.987.784-1.757 1.088-.834 2.264-2.344 3.057-3.927 1.304-2.6 1.632-5.813.783-7.653-.617-1.335-1.557-2.33-2.756-2.92-1.44-.707-3.544-.707-4.985 0-1.719.845-2.818 2.382-3.207 4.49-.232 1.26-.584 1.678-1.12 1.332-.25-.16-.303-.427-.28-1.386.056-2.33 1.689-4.67 4.075-5.842.8-.39 1.865-.562 2.96-.549z" opacity="1" fill="#fff" fill-opacity="1" fill-rule="nonzero" stroke="none" stroke-width="42.535" stroke-miterlimit="4" stroke-dasharray="none" stroke-opacity="1"/></svg>