<svg height="48" width="48" xmlns="http://www.w3.org/2000/svg" xmlns:xlink="http://www.w3.org/1999/xlink"><filter id="a" color-interpolation-filters="sRGB" height="1.121077" width="1.118942" x="-.059471" y="-.060539"><feGaussianBlur stdDeviation="1.073475"/></filter><radialGradient id="b" cx="-14374.85" cy="9397.75" fx="-14403.608" gradientTransform="matrix(.02697981 .00120382 .00177033 -.03965537 410.79254 405.19405)" gradientUnits="userSpaceOnUse" r="450.875"><stop offset=".045" stop-color="#ffea00"/><stop offset=".12" stop-color="#ffde00"/><stop offset=".254" stop-color="#ffbf00"/><stop offset=".429" stop-color="#ff8e00"/><stop offset=".769" stop-color="#ff272d"/><stop offset=".872" stop-color="#e0255a"/><stop offset=".953" stop-color="#cc2477"/><stop offset="1" stop-color="#c42482"/></radialGradient><linearGradient id="c" gradientTransform="matrix(.03540658 0 0 -.03540658 6.203817 42.757393)" gradientUnits="userSpaceOnUse" x1="575.649" x2="384.211" y1="294.806" y2="921.034"><stop offset="0" stop-color="#000f43" stop-opacity=".4"/><stop offset=".485" stop-color="#001962" stop-opacity=".173"/><stop offset="1" stop-color="#002079" stop-opacity="0"/></linearGradient><radialGradient id="d" cx="-8291.357" cy="7620.007" gradientTransform="matrix(.04316062 .00435501 .00435501 -.04316062 367.26659 393.99343)" gradientUnits="userSpaceOnUse" r="266.886"><stop offset=".003" stop-color="#ffea00"/><stop offset=".497" stop-color="#ff272d"/><stop offset="1" stop-color="#c42482"/></radialGradient><radialGradient id="e" cx="-8315.504" cy="7875.919" gradientTransform="matrix(.04316062 .00435501 .00435501 -.04316062 367.26659 393.99343)" gradientUnits="userSpaceOnUse" r="445.678"><stop offset=".003" stop-color="#ffe900"/><stop offset=".157" stop-color="#ffaf0e"/><stop offset=".316" stop-color="#ff7a1b"/><stop offset=".472" stop-color="#ff4e26"/><stop offset=".621" stop-color="#ff2c2e"/><stop offset=".762" stop-color="#ff1434"/><stop offset=".892" stop-color="#ff0538"/><stop offset="1" stop-color="#ff0039"/></radialGradient><radialGradient id="f" cx="-8252.468" cy="7462.783" gradientTransform="matrix(.04316062 .00435501 .00435501 -.04316062 367.26659 393.99343)" gradientUnits="userSpaceOnUse" r="408.958"><stop offset=".003" stop-color="#ff272d"/><stop offset=".497" stop-color="#c42482"/><stop offset=".986" stop-color="#620700"/></radialGradient><radialGradient id="g" cx="750.189" cy="629.959" fx="778.167" fy="616.13" gradientTransform="matrix(.03540658 0 0 -.03540658 6.203817 42.757393)" gradientUnits="userSpaceOnUse" r="782.18"><stop offset=".156" stop-color="#ffea00"/><stop offset=".231" stop-color="#ffde00"/><stop offset=".365" stop-color="#ffbf00"/><stop offset=".541" stop-color="#ff8e00"/><stop offset=".763" stop-color="#ff272d"/><stop offset=".796" stop-color="#f92433"/><stop offset=".841" stop-color="#e91c45"/><stop offset=".893" stop-color="#cf0e62"/><stop offset=".935" stop-color="#b5007f"/></radialGradient><radialGradient id="h" cx="691.339" cy="1022.711" gradientTransform="matrix(.03540658 0 0 -.03540658 6.203817 42.757393)" gradientUnits="userSpaceOnUse" r="923.615"><stop offset=".279" stop-color="#ffea00"/><stop offset=".402" stop-color="#fd0"/><stop offset=".63" stop-color="#ffba00"/><stop offset=".856" stop-color="#ff9100"/><stop offset=".933" stop-color="#ff6711"/><stop offset=".994" stop-color="#ff4a1d"/></radialGradient><linearGradient id="i" gradientTransform="matrix(.04316062 .00435501 .00435501 -.04316062 367.26659 393.99343)" gradientUnits="userSpaceOnUse" x1="-8974.014" x2="-8689.652" y1="7777.06" y2="7849.544"><stop offset="0" stop-color="#c42482" stop-opacity=".5"/><stop offset=".474" stop-color="#ff272d" stop-opacity=".5"/><stop offset=".486" stop-color="#ff2c2c" stop-opacity=".513"/><stop offset=".675" stop-color="#ff7a1a" stop-opacity=".72"/><stop offset=".829" stop-color="#ffb20d" stop-opacity=".871"/><stop offset=".942" stop-color="#ffd605" stop-opacity=".964"/><stop offset="1" stop-color="#ffe302"/></linearGradient><linearGradient id="j" gradientTransform="matrix(.03522955 .00354066 .00354066 -.03522955 -4.645857 90.063275)" gradientUnits="userSpaceOnUse" x1="272.686" x2="218.114" y1="2138.185" y2="2278.032"><stop offset="0" stop-color="#891551" stop-opacity=".6"/><stop offset="1" stop-color="#c42482" stop-opacity="0"/></linearGradient><linearGradient id="k" gradientTransform="matrix(.03522955 .00354066 .00354066 -.03522955 12.318675 34.814423)" gradientUnits="userSpaceOnUse" x1="49.255" x2="143.363" y1="337.277" y2="230.39"><stop offset=".005" stop-color="#891551" stop-opacity=".5"/><stop offset=".484" stop-color="#ff272d" stop-opacity=".5"/><stop offset="1" stop-color="#ff272d" stop-opacity="0"/></linearGradient><linearGradient id="l" gradientTransform="matrix(.03522955 .00354066 .00354066 -.03522955 12.318675 34.814423)" gradientUnits="userSpaceOnUse" x1="227.277" x2="227.344" y1="151.525" y2="226.306"><stop offset="0" stop-color="#c42482"/><stop offset=".083" stop-color="#c42482" stop-opacity=".81"/><stop offset=".206" stop-color="#c42482" stop-opacity=".565"/><stop offset=".328" stop-color="#c42482" stop-opacity=".362"/><stop offset=".447" stop-color="#c42482" stop-opacity=".204"/><stop offset=".562" stop-color="#c42482" stop-opacity=".091"/><stop offset=".673" stop-color="#c42482" stop-opacity=".023"/><stop offset=".773" stop-color="#c42482" stop-opacity="0"/></linearGradient><linearGradient id="m" gradientTransform="matrix(.03540658 0 0 -.03540658 6.203817 42.757393)" gradientUnits="userSpaceOnUse" x1="655.531" x2="961.187" y1="987.88" y2="304.385"><stop offset="0" stop-color="#fff14f"/><stop offset=".268" stop-color="#ffee4c"/><stop offset=".452" stop-color="#ffe643"/><stop offset=".612" stop-color="#ffd834"/><stop offset=".757" stop-color="#ffc41e"/><stop offset=".892" stop-color="#ffab02"/><stop offset=".902" stop-color="#ffa900"/><stop offset=".949" stop-color="#ffa000"/><stop offset="1" stop-color="#ff9100"/></linearGradient><linearGradient id="n" gradientTransform="matrix(.03540658 0 0 -.03540658 6.203817 42.757393)" gradientUnits="userSpaceOnUse" x1="715.885" x2="571.098" y1="594.79" y2="206.04"><stop offset="0" stop-color="#ff8e00"/><stop offset=".04" stop-color="#ff8e00" stop-opacity=".858"/><stop offset=".084" stop-color="#ff8e00" stop-opacity=".729"/><stop offset=".13" stop-color="#ff8e00" stop-opacity=".628"/><stop offset=".178" stop-color="#ff8e00" stop-opacity=".557"/><stop offset=".227" stop-color="#ff8e00" stop-opacity=".514"/><stop offset=".282" stop-color="#ff8e00" stop-opacity=".5"/><stop offset=".389" stop-color="#ff8e00" stop-opacity=".478"/><stop offset=".524" stop-color="#ff8e00" stop-opacity=".416"/><stop offset=".676" stop-color="#ff8e00" stop-opacity=".314"/><stop offset=".838" stop-color="#ff8e00" stop-opacity=".172"/><stop offset="1" stop-color="#ff8e00" stop-opacity="0"/></linearGradient><linearGradient id="o" gradientUnits="userSpaceOnUse" x1="24.887474" x2="24.962559" y1="36.621052" y2="6.641593"><stop offset="0" stop-color="#b0c9ed"/><stop offset="1" stop-color="#f9fcff"/></linearGradient><path d="m19.584 2.736h8.78c8.292 0 12.798 3.82 15.125 8.236l.005.008.05.096c1.665 3.211 2.19 6.723 2.19 9.302v7.272c0 6.084-2.796 17.643-18.437 17.643h-7.162c-11.951 0-17.722-7.869-17.722-17.643v-7.272c0-9.774 5.654-17.642 17.17-17.642z" fill-opacity=".313726" filter="url(#a)"/><path d="m19.584 2.736h8.78c8.292 0 12.798 3.82 15.125 8.236l.005.008.05.096c1.665 3.211 2.19 6.723 2.19 9.302v7.272c0 6.084-2.796 17.643-18.437 17.643h-7.162c-11.951 0-17.722-7.869-17.722-17.643v-7.272c0-9.774 5.654-17.642 17.17-17.642z" fill="url(#o)"/><g stroke-width=".035407"><path d="m34.716739 9.7442988c-.846217.9878432-1.242771 3.2078362-.382391 5.4632362.86038 2.255399 2.177505 1.763248 2.998938 4.061135 1.083441 3.030804.580668 7.102561.580668 7.102561s1.302962 3.774342 2.212911-.233684c2.007554-7.538061-5.410126-14.541484-5.410126-16.3932482z" fill="url(#b)"/><path d="m36.147165 34.953787c-.339903.240765-.697509.453204-1.065738.6444.492152-.718754.941815-1.462292 1.356072-2.230615.336363-.371769.64086-.729376.892246-1.122389.120383-.191195.258468-.428419.403635-.70105.881624-1.589756 1.855305-4.163814 1.883631-6.805146v-.198277c.0035-.662103-.06373-1.324206-.201818-1.972146.0071.04957.01416.102679.02124.152248l-.02124-.116842c.01416.07081.02479.141627.03541.21244.180573 1.529564.05311 3.023722-.59129 4.121326-.01062.0177-.02124.03187-.03187.04603.332822-1.671191.446123-3.519415.07435-5.367638 0 0-.148708-.899328-1.253393-3.625635-.637319-1.572052-1.763248-2.857311-2.761714-3.795586-.874543-1.0799-1.66765-1.805735-2.106692-2.269562-.91349-.963059-1.295881-1.685353-1.455211-2.1562606-.138085-.067273-1.880089-1.763248-2.018175-1.8269798-.761241 1.1825799-3.158267 4.8754864-2.018175 8.3240884.516936 1.564971 1.823439 3.186592 3.190133 4.096542.06019.06727.814352.885164 1.171958 2.733388.368229 1.904874.177033 3.395491-.584209 5.59424-.895786 1.929659-3.190133 3.838074-5.335772 4.03281-4.592234.417798-6.270506-2.304968-6.270506-2.304968 1.639325.655021 3.455683.520476 4.556827-.162871 1.111767-.686887 1.784492-1.196742 2.329754-.994925.53818.201818.966599-.382391.580668-.984303-.605453-.934734-1.713679-1.416263-2.811283-1.225068-1.111767.180574-2.131477 1.062198-3.590228.208899-.0956-.05311-.184114-.113301-.272631-.180573-.0956-.06373.311578.0956.215981.02478-.283253-.155789-.786027-.488611-.917031-.608993-.02124-.02124.219521.07789.198277.05665-1.363154-1.122389-1.193202-1.88009-1.150714-2.358079.03541-.37885.283253-.867461.70105-1.065738.201818.10976.325741.194736.325741.194736s-.08498-.177033-.131004-.26909c.0177-.0071.03186-.0035.04957-.01062.166411.08143.531099.286793.722294.414257.251387.177033.329281.332822.329281.332822s.06727-.03541.0177-.191196c-.0177-.06373-.09206-.265549-.343444-.467367h.01416c.148708.08498.290334.180574.421339.290334.07081-.254927.194736-.520476.166411-.994925-.0177-.332822-.01062-.421338-.06727-.548802-.05311-.10976.02832-.152248.120383-.03895-.01416-.08852-.04249-.177033-.0779-.262009v-.0071c.113301-.396554 2.414729-1.433967 2.584681-1.554349.276171-.194736.506314-.446123.676266-.736457.127463-.205358.223061-.488611.247846-.924112.01416-.311578-.134545-.520477-2.460758-.764782-.637319-.06373-1.009088-.524018-1.221527-.948897-.03895-.09206-.0779-.173492-.116842-.258468-.03895-.0956-.06727-.198276-.09206-.297415.37885-1.094063 1.01971-2.018175 1.961525-2.715685.04957-.04603-.205358.01062-.152249-.03541.06019-.05311.449664-.212439.524018-.247846.08852-.04249-.385932-.244305-.80373-.194736-.428419.04957-.516936.09914-.747079.194736.0956-.0956.396554-.21598.325741-.21598-.460286.07081-1.033872.339903-1.522483.640859 0-.05311.01062-.106219.02833-.152248-.226602.0956-.789567.488611-.952437.817892.0071-.06373.01062-.127464.01062-.191195-.173492.145167-.329281.308037-.467367.48861l-.0071.0071c-1.324206-.53464-2.485542-.566506-3.473386-.329281-.21598-.215981-.3222-.05665-.810811-1.136552-.03187-.06373.02478.06373 0 0-.08143-.208899.04957.279712 0 0-.824973.651481-1.908415 1.387938-2.428892 1.908415-.0071.02124.608994-.173492 0 0-.212439.06019-.198277.187655-.230142 1.327747-.0071.08498 0 .184114-.0071.262009-.414257.531099-.697509.977221-.80727 1.210905-.53818.927652-1.12947 2.372241-1.7030566 4.659506.2549274-.619615.559424-1.217986.9134896-1.784491-.4779886 1.214445-.9382742 3.11932-1.0303314 6.050985.1168418-.605453.2620088-1.203824.4425823-1.795114-.113301 2.432432.3080373 4.864865 1.2286081 7.120264.329282.80727.878084 2.035879 1.805736 3.377788 2.913962 3.083914 7.035289 4.99587 11.599197 4.99587 4.765727 0 9.042842-2.085448 11.985129-5.395964z" fill="url(#c)"/><path d="m32.620669 37.187943c5.767733-.669185 8.320548-6.61041 5.041898-6.727252-2.963531-.0956-7.771745 7.04237-5.041898 6.727252z" fill="url(#d)" opacity=".45"/><path d="m38.076824 29.246246c3.969078-2.30851 2.931665-7.297298 2.931665-7.297298s-1.529564 1.777411-2.570518 4.613478c-1.026791 2.811283-2.747551 4.078839-.361147 2.68382z" fill="url(#e)"/><path d="m25.482702 40.140852c5.530509 1.766788 10.285613-2.591762 7.353948-4.046973-2.662576-1.313584-9.981117 3.211377-7.353948 4.046973z" fill="url(#f)"/><path d="m38.487541 31.363559c.134545-.191195.315118-.796648.477988-1.069278.977222-1.575594.984304-2.832527.984304-2.860853.591289-2.945827.534639-4.149651.173492-6.373185-.293875-1.791573-1.568512-4.35855-2.676738-5.59424-1.140092-1.274637-.336363-.85684-1.441048-1.788033-.9666-1.072819-1.904874-2.135017-2.41827-2.563436-3.689366-3.0874546-3.60439-3.7424764-3.533577-3.8557775-.01062.014163-.02833.031866-.05311.056651-.04249-.1734922-.07435-.3221999-.07435-.3221999s-2.018175 2.0181753-2.443054 5.3818014c-.276171 2.195208.545261 4.486013 1.734923 5.948305.619615.757701 1.320665 1.44813 2.088988 2.053582.899327 1.29234 1.39502 2.885637 1.39502 4.599315 0 4.291279-3.480468 7.771746-7.778827 7.771746-.584209 0-1.168417-.06373-1.738463-.194736-2.025257-.385931-3.197215-1.409182-3.781424-2.103152-.332821-.396553-.477988-.686887-.477988-.686887 1.816357.651481 3.823911.513395 5.045438-.15933 1.228608-.683347 1.975687-1.18612 2.577599-.987844.594831.198277 1.069279-.37885.6444-.973681-.417798-.59483-1.501239-1.45167-3.112239-1.214445-1.232149.180574-2.361619 1.055116-3.972619.205359-.102679-.05311-.205358-.113301-.304496-.177033-.10622-.06373.346984.0956.240765.02478-.315119-.152248-.871002-.48507-1.012629-.605451-.02478-.02124.244306.07789.219521.05665-1.50832-1.111766-1.320666-1.865927-1.274637-2.336834.03895-.378851.311578-.86038.775404-1.058657.223062.10976.361147.191195.361147.191195s-.0956-.173492-.145167-.265549c.0177-.0071.03541-.0035.05311-.01062.184115.07789.58775.283253.800189.410716.276171.173493.364688.332822.364688.332822s.07435-.03541.0177-.187655c-.02124-.06373-.102679-.262008-.37885-.463826h.0177c.16287.08143.318659.180574.463826.290334.07789-.251387.21598-.516936.187655-.987844-.0177-.332821-.01062-.417797-.07435-.545261-.05665-.10976.03187-.152248.134545-.03895-.0177-.08852-.04603-.177033-.08498-.258468v-.0071c.127463-.393013 2.673197-1.419804 2.860852-1.540186.297415-.187655.555883-.435501.750619-.729376.141627-.201817.247846-.48507.272631-.91703.0071-.194736-.04957-.346985-.725835-.495692-.403635-.08852-1.030332-.173493-1.996931-.26555-.704591-.06373-1.118848-.520477-1.352532-.941815-.04249-.09206-.08498-.173492-.131004-.254927-.04249-.0956-.07435-.194737-.09914-.297416.421339-1.104685 1.18258-2.0465 2.170424-2.694441.05665-.04603-.226602.01062-.169952-.03541.06727-.05311.499233-.208899.580668-.244306.09914-.04249-.424879-.240765-.892246-.194736-.474448.04603-.573586.09914-.824973.194736.10622-.09206.439042-.21598.361147-.21598-.509855.07081-1.143633.336363-1.685353.637319 0-.05311.01062-.10622.03187-.152249-.251387.0956-.871002.48507-1.051576.810811.0071-.06373.01062-.127464.01062-.191196-.191196.141627-.364688.304497-.516936.485071l-.01062.0071c-1.469373-.520477-2.758173-.555883-3.845155-.318659-.237224-.21598-.623156-.53818-1.164877-1.607459-.03541-.06373-.05665.134545-.08498.07081-.212439-.488611-.339903-1.2888-.318659-1.841142 0 0-.435501.198276-.796648 1.030331-.06727.148708-.10976.230143-.152248.315119-.02124.02478.04603-.272631.03541-.254928-.06373.10622-.226602.254928-.297415.446123-.04957.141627-.116842.223062-.16287.400095l-.01062.0177c-.0035-.05311.01416-.21598 0-.180574-.169952.343444-.315119.693969-.435501 1.055117-.194737.637318-.421339 1.50832-.456745 2.641331-.0071.08498 0 .180573-.0071.258468-.4602852.524017-.7754038.97014-.8922456 1.200283-.5948306.920571-1.2498524 2.350997-1.8871709 4.620559.2832526-.619615.6196152-1.210905 1.0090876-1.770329-.5275581 1.203824-1.0409536 3.090995-1.140092 6.001416.1274637-.601912.2938747-1.196742.4921515-1.77741-.092057 1.940281.1345451 4.344388 1.3596129 7.060073.7293755 1.596837 2.4041075 4.836539 6.5006485 7.36811 0 0 1.39502 1.037413 3.788505 1.816358.177033.06373.357607.127464.53818.187655-.05665-.02479-.113301-.04603-.166411-.07435 1.593296.477989 3.250325.722294 4.914434.722294 6.203234.0035 8.030214-2.485543 8.030214-2.485543s-.0071.0035-.0177.01416c.08852-.08144.173492-.16641.251387-.258468-.977222.924111-3.211377.984303-4.046973.91703 1.423345-.417798 2.36162-.771863 4.185059-1.469373.212439-.07789.43196-.169952.655021-.26909l.07435-.03187c.04249-.02124.08852-.03895.131005-.06019.888705-.417798 1.7243-.941815 2.489083-1.55789 1.83052-1.462292 2.227074-2.889178 2.435973-3.827453-.02833.08852-.120383.300956-.184115.435502-.470907 1.009087-1.515401 1.628703-2.651953 2.156261.541721-.708132 1.040954-1.448129 1.501239-2.209371.37531-.37531.488611-.952437.764783-1.338369z" fill="url(#g)"/><path d="m36.260466 34.86173c.747079-.821433 1.416264-1.763248 1.922578-2.832527 1.306503-2.747551 3.328219-7.315 1.734923-12.084267-1.253394-3.770801-2.981235-5.831465-5.172902-7.846099-3.558362-3.2680281-4.553287-4.7303201-4.553287-5.5977814 0 0-4.110705 4.5816124-2.326213 9.3615014s5.434911 4.602856 7.84964 9.591643c2.843149 5.866871-2.297887 12.271923-6.550218 14.063496.262009-.05665 9.453558-2.138558 9.935087-7.396436-.01416.0956-.223061 1.550809-2.839608 2.74047z" fill="url(#h)"/><path d="m24.353232 17.809919c.01416-.311578-.148708-.520477-2.715685-.761242-1.055116-.09914-1.462292-1.072819-1.582674-1.483536-.37531.977222-.531099 2.000472-.446123 3.239703.05665.810811.601912 1.681813.86392 2.195208 0 0 .05665-.07435.08498-.102679.492152-.509855 2.545734-1.2888 2.74047-1.39856.208899-.138086 1.019709-.732916 1.055116-1.688894z" fill="url(#i)"/><path d="m13.047909 12.042186c-.03541-.06373-.05665.134545-.08498.07081-.21244-.488611-.339904-1.281718-.308038-1.841142 0 0-.435501.198277-.796648 1.030331-.06727.148708-.10976.230143-.152248.315119-.02124.02478.04603-.272631.03541-.254927-.06373.106219-.226602.254927-.293874.439041-.06019.148708-.116842.230143-.16287.417798-.01416.04957.01416-.223061.0035-.191196-.846217 1.614541-1.005547 4.068217-.91703 3.961997 1.788032-1.908415 3.834533-2.361619 3.834533-2.361619-.21598-.15933-.690429-.623156-1.157796-1.586215z" fill="url(#j)"/><path d="m19.82827 31.997337c-2.467839-1.055116-5.275581-2.542193-5.169361-5.91644.145167-4.450608 4.149652-3.568984 4.149652-3.568984-.152249.03541-.555884.325741-.69751.630237-.152248.382392-.42842 1.249853.410716 2.156261 1.313585 1.423345-2.697981 3.377789 3.49463 7.067155.152249.08498-1.45521-.05311-2.188127-.368229z" fill="url(#k)"/><path d="m18.953728 29.780885c1.749085.608993 3.788504.502774 5.010032-.173492.817892-.456745 1.865927-1.18258 2.510326-1.005547-.559424-.219521-.980762-.325741-1.490617-.350525-.08498 0-.191195-.0035-.283253-.01062-.187654 0-.371769.01062-.559424.03187-.315118.02832-.665643.226602-.980762.194736-.0177 0 .308037-.134545.283253-.127464-.169952.03541-.350525.04249-.545262.06727-.123923.01416-.226602.02832-.350525.03541-3.646878.308037-6.727251-1.975687-6.727251-1.975687-.265549.885164 1.171958 2.630709 3.133483 3.314056z" fill="url(#l)"/><path d="m36.253385 34.882974c3.689366-3.622094 5.555293-8.023132 4.765726-12.95881 0 0 .315119 2.531571-.878083 5.119792.573587-2.52803.640859-5.668594-.885165-8.922459-2.035878-4.340848-5.3818-6.628113-6.659978-7.58055-1.93674-1.4445887-2.74047-2.913962-2.754632-3.2184586-.577128 1.1861205-2.329754 5.2472556-.187655 8.7454266 2.004012 3.27865 5.16582 4.24879 7.375191 7.254809 4.075298 5.544671-.775404 11.56025-.775404 11.56025z" fill="url(#m)"/><path d="m35.725827 25.464822c-1.2888-2.662575-2.896259-3.827451-4.418742-5.084385.177033.247846.219521.336362.318659.495692 1.338369 1.426885 3.314057 4.910893 1.88009 9.280066-2.697982 8.22849-13.493449 4.35501-14.62646 3.264487.456745 4.762186 8.426767 7.038829 13.617372 3.951375 2.95291-2.79358 5.342854-7.545143 3.229081-11.907235z" fill="url(#n)"/></g></svg>