<svg xmlns="http://www.w3.org/2000/svg" xmlns:xlink="http://www.w3.org/1999/xlink" width="48" height="48" version="1.1" id="svg38"><defs id="defs22"><linearGradient id="linearGradient4488"><stop id="stop4490" offset="0" stop-color="#000" stop-opacity=".047"/><stop id="stop4492" offset="1" stop-color="#000" stop-opacity="0"/></linearGradient><style id="style4511"/><style id="style4511-26"/><style id="style4511-9"/><style id="style4552"/><style id="style4511-2"/><linearGradient xlink:href="#linearGradient4488" id="linearGradient4471" gradientUnits="userSpaceOnUse" gradientTransform="translate(-62.47 2.216) scale(.3038)" x1="288.112" y1="141.785" x2="287.575" y2="79.008"/></defs><style id="style4485" type="text/css"/><path d="M3.168 26.443v1.668c0 9.575 5.583 17.282 17.146 17.282h6.93c15.132 0 17.836-11.322 17.836-17.282v-1.668c0 5.96-2.704 17.282-17.836 17.282h-6.93c-11.563 0-17.146-7.708-17.146-17.282z" id="path4467" opacity="1" fill="url(#linearGradient4471)" fill-opacity="1" stroke="none" stroke-width="1.1" stroke-linecap="square" stroke-linejoin="bevel" stroke-miterlimit="4" stroke-dasharray="none" stroke-dashoffset="0" stroke-opacity=".078"/><path d="M19.781 2.965h8.495c13.908 0 16.805 11.246 16.805 17.282v7.123c0 5.96-2.705 17.282-17.837 17.282h-6.93c-11.563 0-17.146-7.708-17.146-17.282v-7.123c0-9.575 5.47-17.282 16.613-17.282z" id="path4469" opacity="1" fill="#396bff" fill-opacity="1" stroke="#000" stroke-width=".334" stroke-linecap="square" stroke-linejoin="bevel" stroke-miterlimit="4" stroke-dasharray="none" stroke-dashoffset="0" stroke-opacity=".078"/><path d="M24.01 11.28c-3.51 0-6.686 1.439-8.97 3.757.036.052.073.102.112.151a2.353 2.353 0 0 0 .265.232l.071-.073a12.011 12.011 0 0 1 8.526-3.531c1.537 0 3.881.5 5.167 1.125.283.049-.126-.167.204-.082.404.069 2.026.954 2.423 1.062-1.292-1.704-5.385-2.642-7.794-2.642zm4.175 1.775a3.754 3.754 0 0 0-.961.092l-.09.024h-.051c.442.103.824.186 1.147.256.323.067.654.153.994.255.34.103.656.22.945.357.29.136.485.29.59.455a9.59 9.59 0 0 0-2.615.36 7.35 7.35 0 0 1 .574.127c.203.05.434.118.69.203.254.085.527.204.816.357.29.154.585.324.892.51.306.188.603.428.892.717.29.29.562.595.817.919.256.323.485.716.69 1.175.203.46.357.962.459 1.507-.375-.75-.783-1.193-1.225-1.329.238.681.34 1.542.306 2.58-.034 1.04-.154 1.882-.357 2.53l-.102-.103c-.17-.477-.46-.8-.868-.971a9.786 9.786 0 0 1-.077 3.372c-.221 1.157-.62 1.942-1.198 2.351-.034 0 0-.239.102-.716.237-.92.321-1.378.253-1.378a2.18 2.18 0 0 0-.202.306c-.511.75-1.048 1.37-1.609 1.864-.562.494-1.089.843-1.582 1.047a4.216 4.216 0 0 1-1.633.306c-.595 0-1.09-.042-1.48-.127-.392-.084-.859-.272-1.402-.56a42.537 42.537 0 0 1-1.176-.64 9.871 9.871 0 0 1-.97-.663c.32.085.688.117 1.107.096a6.555 6.555 0 0 0 1.086-.151c.63-.138 1.125-.34 1.482-.609.102-.033.228-.111.382-.23a2.346 2.346 0 0 1 .387-.26 2.85 2.85 0 0 0 .227-.148c.118-.085.203-.136.255-.154.052-.017.134-.051.253-.102.12-.05.196-.068.23-.05.034.017.103.006.205-.027.238.068.417.01.537-.178.119-.187.076-.384-.13-.588-.645-.748-1.479-.989-2.5-.716-.136.033-.366.12-.69.255-.324.136-.595.24-.816.308-.222.068-.528.083-.919.05a2.52 2.52 0 0 1-1.147-.41c-.92-.543-1.378-1.14-1.378-1.787.033-.137.068-.272.102-.408.068-.238.34-.46.817-.664a4.38 4.38 0 0 1 1.174.408v-.459c0-.008.007-.018.01-.03 0-.013.007-.027.007-.044.008-.095-.016-.258-.067-.487a2.27 2.27 0 0 0-.204-.766h.051v-.05c0-.104.221-.29.664-.562.237-.17.56-.394.97-.666.304-.17.458-.272.458-.306h.022c.008 0 .01-.004.015-.006.008-.003.014-.01.014-.018 0-.017.014-.025.048-.025a.869.869 0 0 0 .074-.07c.16-.167.255-.4.285-.697v-.102c.033-.069.033-.12 0-.153v-.101c-.034-.102-.34-.155-.918-.155h-1.123c-.612 0-1.106-.39-1.48-1.173.204-1.09.798-1.924 1.786-2.503l-.97.051c-1.121.238-1.957.696-2.5 1.378a6.45 6.45 0 0 0-2.333-.106 4.156 4.156 0 0 0-.161.027c-.053.01-.106.017-.16.028-.17 0-.357-.017-.56-.051-.817-.75-1.243-1.533-1.277-2.35a13.44 13.44 0 0 0-.408.435c-.171.187-.384.665-.639 1.431-.254.766-.348 1.626-.28 2.58v.153c-.375.544-.579.919-.612 1.123-.441.885-.8 2.095-1.071 3.627.017-.055.035-.11.055-.167.137-.395.34-.816.608-1.264-.408 1.227-.559 2.81-.457 4.75.033-.34.102-.748.204-1.224.135 1.634.715 3.354 1.735 5.16 2.211 3.814 5.424 5.892 9.643 6.232a20.819 20.819 0 0 0 2.041 0c.051-.017.095-.03.129-.04a.334.334 0 0 1 .075-.011 11.316 11.316 0 0 0 2.399-.358c1.462-.34 2.772-.913 3.93-1.712 1.155-.8 2.065-1.652 2.728-2.554a14.13 14.13 0 0 0 1.684-3.04c.46-1.124.775-2.136.945-3.039.17-.903.28-1.824.331-2.76.052-.936.078-1.566.078-1.89a4.04 4.04 0 0 0-.051-.74l-.306 1.94c-.273-2.383-.597-4.033-.972-4.953-.238-.613-.45-1.081-.637-1.405-.188-.324-.314-.512-.382-.563-.068-.051-.12-.075-.153-.075.17.408.297.791.382 1.149.085.358.111.621.078.792v.204a6.328 6.328 0 0 0-.333-.766c-.153-.307-.534-.774-1.147-1.404-.612-.631-1.293-1.067-2.042-1.304-1.403-.469-2.55-.712-3.44-.729z" id="path4260-5-3-4" fill="#fff" fill-opacity="1" fill-rule="evenodd" stroke="#fff" stroke-width=".4" stroke-miterlimit="4" stroke-dasharray="none" stroke-opacity="1"/></svg>