<svg xmlns="http://www.w3.org/2000/svg" xmlns:xlink="http://www.w3.org/1999/xlink" width="48" height="48" version="1.1" id="svg38"><defs id="defs22"><style id="style4511"/><style id="style4511-26"/><style id="style4511-9"/><style id="style4552"/><style id="style4511-2"/><radialGradient r="23" gradientTransform="matrix(0 -2.8515 3.7557 0 674.001 398.263)" cx="26.617" cy="-2.065" gradientUnits="userSpaceOnUse" id="radialGradient3322"><stop offset="0" id="stop2749" stop-color="#d280b9" stop-opacity="1"/><stop id="stop4269" offset=".529" stop-color="#b549b5" stop-opacity="1"/><stop offset="1" id="stop2755" stop-color="#8940a8" stop-opacity="1"/></radialGradient><linearGradient xlink:href="#radialGradient3322" id="linearGradient1589" x1="2.654" y1="24.405" x2="45.511" y2="24.405" gradientUnits="userSpaceOnUse" gradientTransform="rotate(90 24.083 24.405)"/></defs><style id="style4485" type="text/css"/><path d="M45.234 19.999v8.617c0 14.109-11.413 17.047-17.537 17.047h-7.228c-6.048 0-17.537-2.743-17.537-18.094v-7.03c0-11.73 7.821-17.393 17.537-17.393h7.228c9.715 0 17.537 5.549 17.537 16.853z" id="rect4144" opacity="1" fill="url(#linearGradient1589)" fill-opacity="1" stroke="#000" stroke-width=".339" stroke-linecap="square" stroke-linejoin="bevel" stroke-miterlimit="4" stroke-dasharray="none" stroke-dashoffset="0" stroke-opacity=".078"/><g id="g1413" transform="matrix(1.06638 0 0 1.0719 48.824 .087)"><path id="path1338" d="M-21.968 20.105c11.721-2.276 12.171-7.419 12.171-7.419s-.923 15.937-9.489 16.78c-10.854 1.069-12.476 6.22-12.476 6.22s-.222-1.653.462-3.811c1.37-4.32 4.737-10.878 9.332-11.77z" fill="#eb2273"/><path id="path1340" d="M-9.797 12.686s-.45 5.142-12.171 7.418c-4.596.893-7.962 7.45-9.333 11.77-.576 1.816-.511 3.21-.476 3.627.035-.677.147-1.588.476-2.627 1.37-4.32 4.737-10.877 9.333-11.77 9.404-1.826 11.523-5.456 12.005-6.836.108-.908.166-1.582.166-1.582z" opacity=".2" fill="#fff"/><path id="path1342" d="M-29.415 20.7c9.753-4.186 8.86-11.014 8.86-11.014s5.384 13.93-2.688 17.177c-9.018 3.627-8.617 9.823-8.617 9.823s-3.283-13.528 2.445-15.987z" opacity=".2"/><path id="path1344" d="M-29.415 19.7c9.753-4.186 8.86-11.014 8.86-11.014s5.384 13.93-2.688 17.177c-9.018 3.627-8.617 9.823-8.617 9.823s-3.283-13.528 2.445-15.987z" fill="#ff812d"/><path id="path1346" d="M-20.556 8.686s.893 6.829-8.86 11.014c-2.752 1.181-3.416 4.915-3.37 8.479.091-3.238.876-6.408 3.37-7.479 9.753-4.185 8.86-11.014 8.86-11.014s1.595 4.156 1.738 8.456c.11-4.633-1.738-9.456-1.738-9.456z" opacity=".2" fill="#fff"/><path id="path1350" d="M-34.921 23.188c5.459-7.348 4.23-12.502 4.23-12.502s6.995 8.953 2.236 14.497c-5.317 6.194-3.324 10.503-3.324 10.503s-6.273-8.284-3.142-12.498z" fill="#ffdf55"/><path id="path1358" d="M-30.691 10.686s.084.423.105 1.143c.4.528 3.515 4.787 3.756 9.16.28-4.98-3.861-10.303-3.861-10.303zm.101 1.868c-.086 2.125-.826 5.916-4.332 10.634-.727.98-.933 2.182-.841 3.446.065-.89.31-1.73.841-2.446 4.147-5.581 4.433-9.882 4.332-11.634zm-1.535 21.472c-.026.46-.01.846.026 1.194.082.114.32.466.32.466s-.272-.597-.346-1.66z" opacity=".2" fill="#fff"/></g></svg>