<svg xmlns="http://www.w3.org/2000/svg" xmlns:xlink="http://www.w3.org/1999/xlink" width="48" height="48" version="1.1" id="svg38"><defs id="defs22"><linearGradient id="linearGradient3764-367-5" x1="1" x2="47" gradientUnits="userSpaceOnUse" gradientTransform="rotate(-90 -2.044 49.679)"><stop id="stop1607" stop-color="#d0ecd7" stop-opacity="1"/><stop offset="1" id="stop1609" stop-color="#def2e3" stop-opacity="1"/></linearGradient><style id="style4511"/><style id="style4511-26"/><style id="style4511-9"/><style id="style4552"/><style id="style4511-2"/><clipPath id="clipPath-886807824"/><clipPath id="clipPath-897244418"/><linearGradient xlink:href="#linearGradient3764-367-5" id="linearGradient1618" x1="2.985" y1="23.808" x2="45.232" y2="23.808" gradientUnits="userSpaceOnUse"/></defs><style id="style4485" type="text/css"/><path d="M19.765 2.965h8.496c13.907 0 16.804 11.246 16.804 17.282v7.123c0 5.96-2.704 17.282-17.837 17.282h-6.93c-11.562 0-17.146-7.766-17.146-17.282v-7.123c0-9.575 5.47-17.282 16.613-17.282z" id="rect4144" opacity="1" fill="url(#linearGradient1618)" fill-opacity="1" stroke="#000" stroke-width=".334" stroke-linecap="square" stroke-linejoin="bevel" stroke-miterlimit="4" stroke-dasharray="none" stroke-dashoffset="0" stroke-opacity=".078"/><g id="g1599" transform="matrix(1.03143 0 0 1.08207 52.444 -.685)" fill-opacity="1" stroke="none"><path id="path1555" d="M-19.723 27.635c0 6-3.477 9-9 9s-10-6.268-10-14 5-13.5 7-13.5c0 14.5 12 8.5 12 18.5" opacity="1" fill="#f0464c"/><path id="path1557" d="M-28.723 8.635a9.043 9.043 0 0 0-2 .236v.264c0 3.487.71 5.6 1.7 7.04.988 1.436 2.306 2.257 3.763 3.02 1.456.76 3.05 1.415 4.352 2.654.031.03.06.065.09.096a9 9 0 0 0-7.904-13.301m5 4a1 1 0 0 1 1 1 1 1 0 0 1-1 1 1 1 0 0 1-1-1 1 1 0 0 1 1-1zm3.66.023a9.921 9.921 0 0 1 1.305 4.283l2.535-2.807-3.84-1.477" opacity="1" fill="#424242"/><path id="path1559" d="M-25.723 32.135c0 2.126-1.343 3.5-3 3.5a3 3 0 0 1-3-3c0-2.28 1.25-2 1.25-4 0-1.828-1.25-2.5-1.25-2.5 3.5.016 6 2 6 6z" opacity="1" fill="#f1f045"/></g></svg>