<svg xmlns="http://www.w3.org/2000/svg" xmlns:xlink="http://www.w3.org/1999/xlink" width="48" height="48" version="1.1" id="svg38"><defs id="defs22"><linearGradient id="linearGradient4488"><stop id="stop4490" offset="0" stop-color="#000" stop-opacity=".047"/><stop id="stop4492" offset="1" stop-color="#000" stop-opacity="0"/></linearGradient><style id="style4511"/><style id="style4511-26"/><style id="style4511-9"/><style id="style4552"/><style id="style4511-2"/><linearGradient gradientTransform="translate(-63.205 2.216) scale(.3038)" xlink:href="#linearGradient4488" id="linearGradient4160" x1="288.112" y1="141.785" x2="287.575" y2="79.008" gradientUnits="userSpaceOnUse"/><clipPath id="clipPath-887482936"/><linearGradient gradientTransform="matrix(.03661 0 0 .03708 9.347 7.879)" y2="-176.38" x2="0" y1="844.09" gradientUnits="userSpaceOnUse" id="linear0"><stop id="stop22-1" stop-opacity="1" stop-color="#ff6900"/><stop id="stop24-8" stop-opacity="1" stop-color="#ffec00" offset="1"/></linearGradient></defs><style id="style4485" type="text/css"/><path d="M19.046 2.965h8.495c13.908 0 16.805 11.246 16.805 17.282v7.123c0 5.96-2.704 17.282-17.837 17.282h-6.93c-11.562 0-17.146-7.708-17.146-17.282v-7.123c0-9.575 5.47-17.282 16.613-17.282z" id="rect4144" opacity="1" fill="#e3e7ea" fill-opacity="1" stroke="#000" stroke-width=".334" stroke-linecap="square" stroke-linejoin="bevel" stroke-miterlimit="4" stroke-dasharray="none" stroke-dashoffset="0" stroke-opacity=".078"/><path d="M2.433 26.443v1.668c0 9.575 5.583 17.282 17.146 17.282h6.93c15.133 0 17.837-11.322 17.837-17.282v-1.668c0 5.96-2.704 17.282-17.837 17.282h-6.93c-11.563 0-17.146-7.708-17.146-17.282z" id="path4147" opacity="1" fill="url(#linearGradient4160)" fill-opacity="1" stroke="none" stroke-width="1.1" stroke-linecap="square" stroke-linejoin="bevel" stroke-miterlimit="4" stroke-dasharray="none" stroke-dashoffset="0" stroke-opacity=".078"/><path d="M19.323 8.435c-.592.91-1.07 4.032.64 5.575 2.02 1.849 2.45 4.07 2.45 7.433 0 4.73-3.48 8.517-1.03 13.007-6.841-6.467.052-16.172-5.15-20.103 2.06 5.913-5.151 9.46-5.135 15.198-.016 6.088 4.104 9.636 9.05 9.623-3.525-1.645-5.127-6.61-4.946-9.447 2.479 6.449 6.18 9.46 12.362 9.46-2.383-3.57-2.772-4.022-2.91-6.295.013-2.097.75-2.564 2.037-5.188 3.24-5.834 1.759-11.723-2.651-14.472-.898-.513-1.139-.656-2.773-1.39-.941-.504-1.878-1.6-1.943-3.4m11.05 9.88c3.267 4.8-.454 8.697-2.161 11.636-1.4 2.31-.053 6.13 1.412 9.23.129-2.62 1.65-4.42 2.881-5.358 3.77-3.257 3.891-7.515 1.892-11.304-1.256-2.079-2.367-2.753-4.024-4.204m0 0" id="path64" fill="url(#linear0)" fill-rule="nonzero" stroke="none" stroke-width="1.104"/></svg>