<svg xmlns="http://www.w3.org/2000/svg" xmlns:xlink="http://www.w3.org/1999/xlink" width="48" height="48" version="1.1" id="svg38"><defs id="defs22"><linearGradient id="linearGradient4542"><stop offset="0" id="stop4544" stop-color="#b50807" stop-opacity="1"/><stop offset="1" id="stop4546" stop-color="#d4200b" stop-opacity="1"/></linearGradient><linearGradient id="linearGradient4488"><stop id="stop4490" offset="0" stop-color="#000" stop-opacity=".047"/><stop id="stop4492" offset="1" stop-color="#000" stop-opacity="0"/></linearGradient><style id="style4511"/><style id="style4511-26"/><style id="style4511-9"/><style id="style4552"/><style id="style4511-2"/><linearGradient xlink:href="#linearGradient4488" id="linearGradient4471" gradientUnits="userSpaceOnUse" gradientTransform="translate(-62.47 2.216) scale(.3038)" x1="288.112" y1="141.785" x2="287.575" y2="79.008"/><linearGradient xlink:href="#linearGradient4542" id="linearGradient4548" x1="16.628" y1="39.062" x2="24.095" y2="5.706" gradientUnits="userSpaceOnUse"/></defs><style id="style4485" type="text/css"/><path d="M3.168 26.443v1.668c0 9.575 5.583 17.282 17.146 17.282h6.93c15.132 0 17.836-11.322 17.836-17.282v-1.668c0 5.96-2.704 17.282-17.836 17.282h-6.93c-11.563 0-17.146-7.708-17.146-17.282z" id="path4467" opacity="1" fill="url(#linearGradient4471)" fill-opacity="1" stroke="none" stroke-width="1.1" stroke-linecap="square" stroke-linejoin="bevel" stroke-miterlimit="4" stroke-dasharray="none" stroke-dashoffset="0" stroke-opacity=".078"/><path d="M19.781 2.965h8.495c13.908 0 16.805 11.246 16.805 17.282v7.123c0 5.96-2.705 17.282-17.837 17.282h-6.93c-11.563 0-17.146-7.708-17.146-17.282v-7.123c0-9.575 5.47-17.282 16.613-17.282z" id="path4469" opacity="1" fill="url(#linearGradient4548)" fill-opacity="1" stroke="#000" stroke-width=".334" stroke-linecap="square" stroke-linejoin="bevel" stroke-miterlimit="4" stroke-dasharray="none" stroke-dashoffset="0" stroke-opacity=".078"/><g transform="translate(3.94 3.753) scale(.82314)" id="layer4_13_-9" stroke="#000" stroke-opacity="1"><linearGradient x1="367.57" y1="-750.606" x2="367.57" y2="-719.729" id="linearGradient4533" gradientUnits="userSpaceOnUse" gradientTransform="matrix(.8749 0 0 -.907 -298.082 -642.774)"><stop id="stop4176-1" offset="0" stop-color="#e6e6e6" stop-opacity="1"/><stop id="stop4178-2" offset="1" stop-color="#f5f5f5" stop-opacity="1"/></linearGradient></g><path d="M14.279 32.816v-1.784L15 30.87c1.96-.442 3.65-2.02 4.92-4.588.545-1.103.851-1.944 1.678-4.61.486-1.568 1.466-3.579 2.262-4.644 1.916-2.561 4.797-4.246 7.68-4.492l.738-.063v3.793h-.34c-.57 0-1.87.38-2.59.759-.927.488-1.853 1.268-2.464 2.076-.524.693-1.057 1.68-1.173 2.173l-.066.28h4.192v3.966h-5.78l-.178.483c-.772 2.09-1.101 2.772-1.961 4.057-1.718 2.569-4.308 4.229-6.986 4.479l-.654.061v-1.783z" id="path4540" opacity="1" fill="#fdfdff" fill-opacity="1" stroke="none" stroke-width="0" stroke-linecap="round" stroke-linejoin="miter" stroke-miterlimit="4" stroke-dasharray="none" stroke-opacity="1"/></svg>