<svg xmlns:osb="http://www.openswatchbook.org/uri/2009/osb" xmlns="http://www.w3.org/2000/svg" xmlns:xlink="http://www.w3.org/1999/xlink" width="48" height="48" version="1.1" id="svg38"><defs id="defs22"><linearGradient id="linearGradient4488"><stop id="stop4490" offset="0" stop-color="#000" stop-opacity=".047"/><stop id="stop4492" offset="1" stop-color="#000" stop-opacity="0"/></linearGradient><style id="style4511"/><style id="style4511-26"/><style id="style4511-9"/><style id="style4552"/><style id="style4511-2"/><linearGradient xlink:href="#linearGradient4488" id="linearGradient4540" gradientUnits="userSpaceOnUse" gradientTransform="matrix(.30902 0 0 .3057 -64.017 1.989)" x1="288.112" y1="141.785" x2="287.575" y2="79.008"/><linearGradient osb:paint="solid" id="linearGradient5293"><stop id="stop5295" offset="0" stop-color="#9a89c0" stop-opacity="1"/></linearGradient><linearGradient xlink:href="#linearGradient3764-36753-5" id="linearGradient1535" x1="2.583" y1="23.586" x2="44.83" y2="23.586" gradientUnits="userSpaceOnUse" gradientTransform="matrix(1.0172 0 0 1.00623 -.047 -.017)"/><linearGradient gradientTransform="rotate(-90 -4.974 49.423)" gradientUnits="userSpaceOnUse" x2="47" x1="1" id="linearGradient3764-36753-5"><stop id="stop1280" stop-color="#e4e4e4" stop-opacity="1"/><stop id="stop1282" offset="1" stop-color="#eee" stop-opacity="1"/></linearGradient><linearGradient y2="31" x2="0" y1="36" gradientTransform="matrix(1.00031 0 0 1 -48.734 -3.273)" gradientUnits="userSpaceOnUse" id="linearGradient4814"><stop id="stop1290" stop-color="#347bc6" stop-opacity="1"/><stop id="stop1292" offset="1" stop-color="#2e6cae" stop-opacity="1"/></linearGradient><linearGradient y2="11" x2="0" y1="32" gradientTransform="matrix(1 0 0 .9407 -48.731 -1.296)" gradientUnits="userSpaceOnUse" id="linearGradient4816"><stop id="stop1295" stop-color="#224e7e" stop-opacity="1"/><stop id="stop1297" offset="1" stop-color="#154477" stop-opacity="1"/></linearGradient></defs><style id="style4485" type="text/css"/><path id="path4516" d="M2.75 26.367v1.679c0 9.634 5.68 17.39 17.44 17.39h7.05c15.392 0 18.143-11.394 18.143-17.39v-1.68c0 5.997-2.75 17.39-18.143 17.39h-7.05c-11.76 0-17.44-7.755-17.44-17.39z" opacity="1" fill="url(#linearGradient4540)" fill-opacity="1" stroke="none" stroke-width="1.113" stroke-linecap="square" stroke-linejoin="bevel" stroke-miterlimit="4" stroke-dasharray="none" stroke-dashoffset="0" stroke-opacity=".078"/><path id="path4518" d="M19.649 2.742h8.64c14.148 0 17.094 11.317 17.094 17.39V27.3c0 5.996-2.75 17.39-18.143 17.39h-7.05c-11.76 0-17.44-7.756-17.44-17.39v-7.168c0-9.634 5.564-17.39 16.899-17.39z" opacity="1" fill="url(#linearGradient1535)" fill-opacity="1" stroke="#000" stroke-width=".338" stroke-linecap="square" stroke-linejoin="bevel" stroke-miterlimit="4" stroke-dasharray="none" stroke-dashoffset="0" stroke-opacity=".078"/><g id="g1392" transform="matrix(1.17993 0 0 1.16946 54.415 -1.509)" fill-opacity="1" fill-rule="nonzero" stroke="none"><path d="M-23.936 11.254C-28.658 14.04-31.087 20-34.795 25.947c3.183 5.64 15.14 4.933 18.12 1.106l-.004-.002s-1.271-4.67-1.051-6.614c.395-3.49 1.189-8.768.513-10.06-.922-1.762-4.788-.264-6.722.877z" id="path1316" fill="url(#linearGradient4816)"/><path d="M-34.781 25.92c-.793.914-4.228 2.328-3.919 3.367.309 1.035.619.902.619.902s4.059 3.786 13.178 3.348c9.844-.473 12.262-3.17 12.18-4.43-.082-1.32-3.995-2.234-4.01-2.238-4.906 2.347-14.682 1.927-18.05-.95z" id="path1318" fill="url(#linearGradient4814)"/></g></svg>