<svg xmlns="http://www.w3.org/2000/svg" xmlns:xlink="http://www.w3.org/1999/xlink" width="48" height="48" version="1.1" id="svg38"><defs id="defs22"><style id="style4511"/><linearGradient id="c" y1="520.8" y2="503.8" gradientUnits="userSpaceOnUse" x2="0" gradientTransform="translate(-384.57 504.56)"><stop stop-color="#197cf1" id="stop12-936"/><stop offset="1" stop-color="#20bcfa" id="stop14-06"/></linearGradient><style id="style4511-26"/><style id="style4511-9"/><linearGradient gradientUnits="userSpaceOnUse" x2="19.574" y2="22.495" x1="3.783" y1="23.644" id="g-5"><stop id="stop24-2" stop-color="#2980b9"/><stop id="stop26" stop-color="#34495e" offset="1"/></linearGradient><style id="style4552"/><style id="style4511-2"/><linearGradient id="linearGradient2867-449-88-871-390-598-476-591-434-148-57-177-8-3-3-6-4-8-8-8"><stop offset="0" id="stop3750-1-0-7-6-6-1-3-9" stop-color="#fe5" stop-opacity="1"/><stop id="stop1654" offset=".426" stop-color="#feeb46" stop-opacity="1"/><stop offset=".509" id="stop3752-3-7-4-0-32-8-923-0" stop-color="#fc8f36" stop-opacity="1"/><stop id="stop1062" offset=".588" stop-color="#ef6422" stop-opacity="1"/><stop offset=".668" id="stop3754-1-8-5-2-7-6-7-1" stop-color="#e23a0e" stop-opacity="1"/><stop id="stop1658" offset=".937" stop-color="#b8017a" stop-opacity=".973"/><stop offset="1" id="stop3756-1-6-2-6-6-1-96-6" stop-color="#b8017a" stop-opacity="1"/></linearGradient><linearGradient xlink:href="#c" id="linearGradient1523" x1="12.091" y1="24.449" x2="35.468" y2="24.449" gradientUnits="userSpaceOnUse" gradientTransform="matrix(-.28843 .84756 -.83917 -.28557 51.332 10.746)"/><linearGradient xlink:href="#linearGradient2867-449-88-871-390-598-476-591-434-148-57-177-8-3-3-6-4-8-8-8" id="linearGradient1531" x1="8.585" y1="24.449" x2="38.975" y2="24.449" gradientUnits="userSpaceOnUse" gradientTransform="matrix(-.0046 .96798 -1.04693 -.00417 49.662 1.09)"/><radialGradient xlink:href="#g-5" id="radialGradient1467" cx="23.957" cy="23.919" fx="23.957" fy="23.919" r="21.197" gradientTransform="matrix(1 0 0 .9912 0 .21)" gradientUnits="userSpaceOnUse"/></defs><style id="style4485" type="text/css"/><path id="path4518" d="M19.598 3.075h8.525c13.957 0 16.864 11.247 16.864 17.282v7.123c0 5.96-2.714 17.282-17.9 17.282h-6.954c-11.603 0-17.206-7.708-17.206-17.282v-7.123c0-9.574 5.49-17.282 16.671-17.282z" opacity="1" fill="url(#radialGradient1467)" fill-opacity="1" stroke="#000" stroke-width=".335" stroke-linecap="square" stroke-linejoin="bevel" stroke-miterlimit="4" stroke-dasharray="none" stroke-dashoffset="0" stroke-opacity=".078"/><path id="path27" d="M36.243 10.478c.003-.626-.414-1.133-.935-1.135l-22.563-.09c-.521-.002-.943.501-.946 1.128l-.129 27.154c-.003.627.414 1.134.935 1.136l22.564.09c.52.001.942-.501.945-1.128zm-1.885 1.124l-.022 4.526-3.76-.015.02-4.526zm-.033 6.789l-.021 4.526-3.76-.015.02-4.526zm-.032 6.789l-.022 4.525-3.76-.015.021-4.525zm-.032 6.788l-.022 4.526-3.76-.015.021-4.526zM17.435 11.535l-.022 4.526-3.76-.015.021-4.526zm-.033 6.789l-.021 4.525-3.76-.015.02-4.525zm-.032 6.788l-.021 4.526-3.76-.015.02-4.526zm-.032 6.789l-.022 4.525-3.76-.015.021-4.525z" fill="url(#linearGradient1531)" fill-opacity="1" stroke-width="1.031"/><path id="path29" d="M25.067 13.242l4.522 1.54c-.55 1.616-3.553.555-4.138 2.275-.586 1.72 2.475 2.61 1.89 4.329-.585 1.72-3.553.556-4.138 2.276-.585 1.72 2.476 2.608 1.89 4.328-.584 1.72-3.552.556-4.137 2.276-.585 1.72 2.42 2.773 1.89 4.329l-4.521-1.539z" fill="url(#linearGradient1523)" fill-opacity="1" stroke-width=".913"/></svg>