<svg xmlns="http://www.w3.org/2000/svg" xmlns:xlink="http://www.w3.org/1999/xlink" width="48" height="48" version="1.1" id="svg38"><defs id="defs22"><linearGradient id="linearGradient4488"><stop id="stop4490" offset="0" stop-color="#000" stop-opacity=".047"/><stop id="stop4492" offset="1" stop-color="#000" stop-opacity="0"/></linearGradient><style id="style4511"/><style id="style4511-26"/><style id="style4511-9"/><style id="style4552"/><linearGradient id="e-1" y1="41.22" x1="24.392" y2="25.343" x2="20.643" gradientUnits="userSpaceOnUse"><stop stop-color="#334545" id="stop22-8"/><stop offset="1" stop-color="#536161" id="stop24-7"/></linearGradient><style id="style4511-2"/><linearGradient gradientTransform="translate(-63.205 2.216) scale(.3038)" xlink:href="#linearGradient4488" id="linearGradient4160" x1="288.112" y1="141.785" x2="287.575" y2="79.008" gradientUnits="userSpaceOnUse"/><linearGradient xlink:href="#e-1" id="linearGradient1453" x1="15.449" y1="23.821" x2="35.629" y2="23.821" gradientUnits="userSpaceOnUse" gradientTransform="matrix(.93953 0 0 .94473 51.463 -2.459)"/></defs><style id="style4485" type="text/css"/><path d="M2.433 26.443v1.668c0 9.575 5.583 17.282 17.146 17.282h6.93c15.133 0 17.837-11.322 17.837-17.282v-1.668c0 5.96-2.704 17.282-17.837 17.282h-6.93c-11.563 0-17.146-7.708-17.146-17.282z" id="path4147" opacity="1" fill="url(#linearGradient4160)" fill-opacity="1" stroke="none" stroke-width="1.1" stroke-linecap="square" stroke-linejoin="bevel" stroke-miterlimit="4" stroke-dasharray="none" stroke-dashoffset="0" stroke-opacity=".078"/><path d="M19.046 2.965h8.495c13.908 0 16.805 11.246 16.805 17.282v7.123c0 5.96-2.704 17.282-17.837 17.282h-6.93c-11.562 0-17.146-7.708-17.146-17.282v-7.123c0-9.575 5.47-17.282 16.613-17.282z" id="rect4144" opacity="1" fill="#e3e7ea" fill-opacity="1" stroke="#000" stroke-width=".334" stroke-linecap="square" stroke-linejoin="bevel" stroke-miterlimit="4" stroke-dasharray="none" stroke-dashoffset="0" stroke-opacity=".078"/><g id="g1335" transform="matrix(.96215 0 0 .94595 -46.472 3.788)" fill-opacity="1" fill-rule="nonzero" stroke="none"><path d="M56.816 21.03c2.68-.853 5.211-.23 7.711.87 1.027.453 2.043 1.047 3.195 1.117 1.543.086 2.613-1.137 3.95-1.656-.364 1.047-.712 1.754-1.415 2.633a6.323 6.323 0 0 1-1.594 1.43c-2.809 1.816-5.984.418-8.648-.914-.934-.46-2.555-1.305-3.578-1.383-.832-.066-1.867.375-2.633.68.352-1.434 1.648-2.348 3.01-2.777m.012 0" id="path1275" fill="#518dce"/><g id="g1322"><path id="path1281" d="M75.562 23.62c.45.53.906 1.233 1.172 1.878 1.848 4.52-2.48 7.551-3.938 11.285-.523 1.32-.238 1.883 0 3.195-3.148-1.508-2.477-6.629-1.25-9.219l1.105-1.879c.598-.96 1.398-2.063 1.566-3.195.191-1.359-.62-2.62-1.223-3.762 1.141.234 1.828.813 2.563 1.695m-.004 0" fill="#5ac941"/><path id="path1265" d="M70.72 8.947c.042.957-.13 2.063-.294 3.01-.199 1.09-.629 2.684-.469 3.758.262 1.773 1.484 2.5 2.465 3.758-1-.082-1.723-.277-2.633-.71-.668-.32-1.328-.692-1.867-1.204-2.449-2.336-1.797-5.699-1.074-8.617.195-.8.691-2.828.645-3.582-.078-1.18-.688-2.039-1.277-3.01 3.094.332 4.398 3.875 4.508 6.586m-.004.008" fill="red"/><path id="path1267" d="M79.86 9.326c-.829 1.297-2.048 2.328-3.302 3.195-1.32.91-2.805 1.781-3.375 3.387-.348 1.027-.195 2.152 0 3.195-.992-.566-1.465-1.762-1.75-2.82-.156-.574-.34-1.668-.309-2.258.223-4.844 5.207-5.879 7.684-8.289 1.02-.996 1.395-1.977 1.512-3.37 1.656 1.878.746 5.073-.46 6.96m0 0" fill="#518dce"/><path id="path1269" d="M62.64 11.755c3.632 3.13 3.417 9.211 8.847 8.29-1.156 1.796-5.473 1.675-7.156.663-2.98-1.797-3.617-6.469-5.34-8.555-.809-.973-1.629-1.262-2.746-1.699 1.918-1.242 4.836-.03 6.383 1.301m.012 0" fill="#5ac941"/><path id="path1271" d="M88.265 13.994c-2.55 2.762-5.87 2.47-9.258 2.477-1.535.004-2.418.164-3.539 1.332-.566.594-.87 1.395-1.539 1.863 0-1.188.027-1.844.383-3.01.211-.69.473-1.289.895-1.879 2.445-3.438 6.637-2.25 10.191-2.258 2.13-.004 2.617-.398 4.141-1.89.383 1.155-.512 2.53-1.273 3.354m0 .004" fill="#5ac941"/><path id="path1273" d="M75.81 19.083c.73-.43 1.421-.73 2.257-.914 3.47-.762 5.47 1.531 7.707 3.754.891.887 2.168 2.137 3.387 2.516.82.258 1.422.211 2.254.117-.684 1.184-2.289 1.527-3.578 1.633-2.949.234-5.453-1.754-7.52-3.578-.789-.69-1.449-1.43-2.445-1.832-1.559-.625-2.672-.012-4.14.38.546-1.017 1.073-1.513 2.07-2.09m.007.015" fill="red"/><path id="path1277" d="M75.433 21.361c.914.012 1.582.13 2.445.465.555.22 1.223.555 1.691.926 3.36 2.668 1.648 7.348 2.543 10.836.344 1.363 1.2 1.934 1.973 3.01-4.359-.098-6.375-4.648-6.398-8.46-.004-1.13-.03-2.517-.465-3.579-.344-.836-1.063-1.613-1.789-2.137-.57-.406-1.074-.477-1.508-1.059h1.508m0 0" fill="#518dce"/><path id="path1279" d="M72.988 25.122c-.012.797-.078 1.31-.332 2.07-1.504 4.555-7.04 3.996-10.01 5.434-1.477.727-1.676 1.63-2.633 2.652-.227-3.836 1.512-6.188 5.078-7.625 2.855-1.152 5.63-.77 6.875-4.223.215-.602.238-.883.273-1.508.852.922.762 2.01.75 3.195m.004.004" fill="red"/></g><path d="M65.978 32.213V7.878l18.96 12.167m-18.96 12.168" id="path1283" fill="url(#linearGradient1453)" stroke-width=".942"/></g></svg>