<svg xmlns="http://www.w3.org/2000/svg" xmlns:xlink="http://www.w3.org/1999/xlink" width="48" height="48" version="1.1" id="svg38"><defs id="defs22"><linearGradient id="linearGradient4488"><stop id="stop4490" offset="0" stop-color="#000" stop-opacity=".047"/><stop id="stop4492" offset="1" stop-color="#000" stop-opacity="0"/></linearGradient><style id="style4511"/><style id="style4511-26"/><style id="style4511-9"/><style id="style4552"/><style id="style4511-2"/><linearGradient xlink:href="#linearGradient4488" id="linearGradient4540" gradientUnits="userSpaceOnUse" gradientTransform="translate(-62.889 1.994) scale(.3038)" x1="288.112" y1="141.785" x2="287.575" y2="79.008"/></defs><style id="style4485" type="text/css"/><path id="path4516" d="M2.75 26.22v1.67c0 9.573 5.583 17.281 17.146 17.281h6.93c15.132 0 17.836-11.322 17.836-17.282v-1.668c0 5.96-2.704 17.282-17.836 17.282h-6.93C8.333 43.503 2.75 35.795 2.75 26.22z" opacity="1" fill="url(#linearGradient4540)" fill-opacity="1" stroke="none" stroke-width="1.1" stroke-linecap="square" stroke-linejoin="bevel" stroke-miterlimit="4" stroke-dasharray="none" stroke-dashoffset="0" stroke-opacity=".078"/><path id="path4518" d="M19.363 2.742h8.495c13.908 0 16.804 11.247 16.804 17.282v7.124c0 5.96-2.704 17.282-17.836 17.282h-6.93C8.333 44.43 2.75 36.722 2.75 27.148v-7.124c0-9.574 5.47-17.282 16.613-17.282z" opacity="1" fill="#0b93c5" fill-opacity="1" stroke="#000" stroke-width=".334" stroke-linecap="square" stroke-linejoin="bevel" stroke-miterlimit="4" stroke-dasharray="none" stroke-dashoffset="0" stroke-opacity=".078"/><g transform="translate(-203.938 -264.243) scale(.55594)" id="g13-6-9" fill="#fff" fill-opacity="1" stroke="none"><path d="M407.146 494.22a1.33 1.33 0 0 0-1.33 1.33 1.33 1.33 0 0 0 1.33 1.33 1.33 1.33 0 0 0 1.33-1.33 1.33 1.33 0 0 0-1.33-1.33zm3.448 4.01a2.659 2.659 0 0 0-2.658 2.658 2.659 2.659 0 0 0 2.658 2.661 2.659 2.659 0 0 0 2.66-2.661 2.659 2.659 0 0 0-2.66-2.657zm-4.652 5.338a1.662 1.662 0 0 0-1.66 1.66 1.662 1.662 0 0 0 1.66 1.665 1.662 1.662 0 0 0 1.66-1.664 1.662 1.662 0 0 0-1.66-1.66z" id="path19-1-3" fill="#fff" fill-opacity=".573" stroke="none"/></g><path d="M17.202 37.73c-.24-.084-.528-.349-.623-.571-.176-.411-.226-.27 2.244-6.421l2.313-5.764V20.87l-.178-.353a4.09 4.09 0 0 1-.178-.38c0-.015 1.122-.027 2.492-.027h2.493l-.18.354-.178.355v4.205l2.314 5.766c1.276 3.18 2.313 5.836 2.313 5.92 0 .477-.338.925-.777 1.036-.372.094-11.79.078-12.055-.016zm11.132-.706c.3-.14.592-.458.675-.737.033-.108.06-.335.06-.505 0-.286-.12-.604-1.68-4.493-.924-2.302-1.699-4.204-1.721-4.226-.023-.023-.28.21-.573.518-.293.307-.596.583-.674.612-.22.084-.48-.063-1.251-.708-.971-.812-1.415-.989-1.975-.787l-.253.09-1.74 4.339c-.975 2.433-1.75 4.436-1.764 4.56-.06.53.271 1.103.774 1.338l.255.119h9.61l.257-.12z" id="path4483" opacity="1" fill="#fff" fill-opacity="1" stroke="none" stroke-width=".046" stroke-linecap="round" stroke-linejoin="miter" stroke-miterlimit="4" stroke-dasharray="none" stroke-opacity="1"/></svg>