<svg xmlns="http://www.w3.org/2000/svg" xmlns:xlink="http://www.w3.org/1999/xlink" width="48" height="48" version="1.1" id="svg38"><defs id="defs22"><linearGradient id="linearGradient4488"><stop id="stop4490" offset="0" stop-color="#000" stop-opacity=".047"/><stop id="stop4492" offset="1" stop-color="#000" stop-opacity="0"/></linearGradient><style id="style4511"/><style id="style4511-26"/><style id="style4511-9"/><style id="style4552"/><style id="style4511-2"/><linearGradient gradientTransform="translate(-63.205 2.216) scale(.3038)" xlink:href="#linearGradient4488" id="linearGradient4160" x1="288.112" y1="141.785" x2="287.575" y2="79.008" gradientUnits="userSpaceOnUse"/><clipPath id="clipPath-179298549"/></defs><style id="style4485" type="text/css"/><path d="M19.046 2.965h8.495c13.908 0 16.805 11.246 16.805 17.282v7.123c0 5.96-2.704 17.282-17.837 17.282h-6.93c-11.562 0-17.146-7.708-17.146-17.282v-7.123c0-9.575 5.47-17.282 16.613-17.282z" id="rect4144" opacity="1" fill="#e3e7ea" fill-opacity="1" stroke="#000" stroke-width=".334" stroke-linecap="square" stroke-linejoin="bevel" stroke-miterlimit="4" stroke-dasharray="none" stroke-dashoffset="0" stroke-opacity=".078"/><path d="M2.433 26.443v1.668c0 9.575 5.583 17.282 17.146 17.282h6.93c15.133 0 17.837-11.322 17.837-17.282v-1.668c0 5.96-2.704 17.282-17.837 17.282h-6.93c-11.563 0-17.146-7.708-17.146-17.282z" id="path4147" opacity="1" fill="url(#linearGradient4160)" fill-opacity="1" stroke="none" stroke-width="1.1" stroke-linecap="square" stroke-linejoin="bevel" stroke-miterlimit="4" stroke-dasharray="none" stroke-dashoffset="0" stroke-opacity=".078"/><path id="path1256" d="M23.39 11.72a15.648 15.317 0 0 0-14.582 9.676l12.338 4.53 3.365-14.171a16.46 16.46 0 0 0-1.121-.034m1.121.034c-18.696 25.597-9.346 12.798 0 0m0 0" fill="#76a4fa" fill-opacity="1" fill-rule="evenodd" stroke="none" stroke-width="1.11"/><path id="path1258" d="M24.512 11.753l1.121 14.24h.106l12.233-4.6a15.649 15.318 0 0 0-13.46-9.64m0 0" fill="#427fec" fill-opacity="1" fill-rule="nonzero" stroke="none" stroke-width="1.11"/><path id="path1260" d="M23.39 24.917a5.609 5.49 0 0 0-5.609 5.49 5.609 5.49 0 1 0 11.217 0c0-3.033-2.515-5.49-5.608-5.49m0 3.294c1.24 0 2.239.986 2.239 2.196a2.242 2.195 0 1 1-4.483 0c0-1.213 1.008-2.196 2.244-2.196m0 0" fill="#999" fill-opacity="1" fill-rule="nonzero" stroke="none" stroke-width="1.11"/></svg>