<svg xmlns="http://www.w3.org/2000/svg" xmlns:xlink="http://www.w3.org/1999/xlink" width="48" height="48" version="1.1" id="svg38"><defs id="defs22"><linearGradient id="linearGradient4488"><stop id="stop4490" offset="0" stop-color="#000" stop-opacity=".047"/><stop id="stop4492" offset="1" stop-color="#000" stop-opacity="0"/></linearGradient><style id="style4511"/><style id="style4511-26"/><style id="style4511-9"/><style id="style4552"/><style id="style4511-2"/><linearGradient xlink:href="#linearGradient4488" id="linearGradient4471" gradientUnits="userSpaceOnUse" gradientTransform="translate(-62.47 2.216) scale(.3038)" x1="288.112" y1="141.785" x2="287.575" y2="79.008"/><clipPath id="clipPath-754831725"/></defs><style id="style4485" type="text/css"/><path d="M19.781 2.965h8.495c13.908 0 16.805 11.246 16.805 17.282v7.123c0 5.96-2.705 17.282-17.837 17.282h-6.93c-11.563 0-17.146-7.708-17.146-17.282v-7.123c0-9.575 5.47-17.282 16.613-17.282z" id="path4469" opacity="1" fill="#f60" fill-opacity="1" stroke="#000" stroke-width=".334" stroke-linecap="square" stroke-linejoin="bevel" stroke-miterlimit="4" stroke-dasharray="none" stroke-dashoffset="0" stroke-opacity=".078"/><path d="M3.168 26.443v1.668c0 9.575 5.583 17.282 17.146 17.282h6.93c15.132 0 17.836-11.322 17.836-17.282v-1.668c0 5.96-2.704 17.282-17.836 17.282h-6.93c-11.563 0-17.146-7.708-17.146-17.282z" id="path4467" opacity="1" fill="url(#linearGradient4471)" fill-opacity="1" stroke="none" stroke-width="1.1" stroke-linecap="square" stroke-linejoin="bevel" stroke-miterlimit="4" stroke-dasharray="none" stroke-dashoffset="0" stroke-opacity=".078"/><path id="path1188" d="M21.123 14.09a5.938 5.983 0 0 0-1.843.338c-2.62.932-4.61 3.632-5.192 6.986-1.72.434-3.211 2.038-3.73 4.32-.72 3.24.79 6.58 3.35 7.492.041.013.092.025.133.033.356.16.708.27 1.106.27h18.59c.665 0 1.256-.252 1.775-.674 2.077-1.253 3.226-4.223 2.579-7.121-.473-2.138-1.801-3.709-3.383-4.253-.013-.071-.017-.13-.033-.203-.72-3.24-3.4-5.13-5.963-4.218-.49.173-.925.464-1.34.81-1.41-2.4-3.668-3.848-6.062-3.78m3.018 4.32l1.072 2.16h-2.144m-5.36-1.08h2.145v1.08h-1.072v1.08h1.072v2.16h-1.072v1.08h1.072v2.159h-1.072v1.08h1.072v2.16h-1.072v1.08h1.072v1.08h-2.144m11.522-12.52v1.18a.536.54 0 0 0-.234.44.536.54 0 1 0 1.071 0 .549.553 0 0 0-.3-.474v-1.148c.418.65 1.067 1.662.702 2.328-.356.642-1.586.638-1.943 0-.369-.662.268-1.675.703-2.328m-6.163 1.721h2.144v10.8h-2.144m5.36-8.64h2.143v8.64h-2.144m0-8.64" fill="#f9f9f9" fill-opacity="1" fill-rule="nonzero" stroke="none" stroke-width="1.076"/></svg>