<svg xmlns="http://www.w3.org/2000/svg" xmlns:xlink="http://www.w3.org/1999/xlink" width="48" height="48" version="1.1" id="svg38"><defs id="defs22"><linearGradient id="linearGradient3764" x1="1" x2="47" gradientUnits="userSpaceOnUse" gradientTransform="rotate(-90 -4.872 51.152)"><stop id="stop1347" stop-color="#fc98a1" stop-opacity="1"/><stop offset="1" id="stop1349" stop-color="#fdabb5" stop-opacity="1"/></linearGradient><linearGradient id="linearGradient4488"><stop id="stop4490" offset="0" stop-color="#000" stop-opacity=".047"/><stop id="stop4492" offset="1" stop-color="#000" stop-opacity="0"/></linearGradient><style id="style4511"/><style id="style4511-26"/><style id="style4511-9"/><style id="style4552"/><style id="style4511-2"/><linearGradient xlink:href="#linearGradient4488" id="linearGradient4483" gradientUnits="userSpaceOnUse" gradientTransform="translate(-62.91 2.216) scale(.3038)" x1="288.112" y1="141.785" x2="287.575" y2="79.008"/><linearGradient xlink:href="#linearGradient3764" id="linearGradient1358" x1="2.562" y1="23.808" x2="44.808" y2="23.808" gradientUnits="userSpaceOnUse"/></defs><style id="style4485" type="text/css"/><path d="M2.729 26.443v1.668c0 9.575 5.583 17.282 17.145 17.282h6.93c15.133 0 17.837-11.322 17.837-17.282v-1.668c0 5.96-2.704 17.282-17.836 17.282h-6.93c-11.563 0-17.146-7.708-17.146-17.282z" id="path4479" opacity="1" fill="url(#linearGradient4483)" fill-opacity="1" stroke="none" stroke-width="1.1" stroke-linecap="square" stroke-linejoin="bevel" stroke-miterlimit="4" stroke-dasharray="none" stroke-dashoffset="0" stroke-opacity=".078"/><path d="M19.342 2.965h8.495c13.907 0 16.804 11.246 16.804 17.282v7.123c0 5.96-2.704 17.282-17.836 17.282h-6.93c-11.563 0-17.146-7.708-17.146-17.282v-7.123c0-9.575 5.47-17.282 16.613-17.282z" id="path4481" opacity="1" fill="url(#linearGradient1358)" fill-opacity="1" stroke="#000" stroke-width=".334" stroke-linecap="square" stroke-linejoin="bevel" stroke-miterlimit="4" stroke-dasharray="none" stroke-dashoffset="0" stroke-opacity=".078"/><path d="M-19.714 3.28c5.859 4.062 9.688 10.83 9.688 18.5 0 12.426-10.07 22.5-22.5 22.5-7.67 0-14.438-3.828-18.5-9.688a23.24 23.24 0 0 0 3.78 4.969 22.923 22.923 0 0 0 15.47 5.969c12.703 0 23-10.298 23-23a22.92 22.92 0 0 0-5.97-15.47 23.216 23.216 0 0 0-4.968-3.78zm4.969 3.78a22.911 22.911 0 0 1 6.219 15.72c0 12.703-10.297 23-23 23a22.909 22.909 0 0 1-15.72-6.22c4.16 4.145 9.884 6.72 16.22 6.72 12.703 0 23-10.298 23-23 0-6.335-2.575-12.06-6.72-16.22z" id="path1295" opacity=".05"/><g id="g1345" transform="matrix(1.06592 0 0 1.00575 57.82 .897)" fill-opacity="1" fill-rule="evenodd" stroke="none"><path id="path1307" d="M-44.024 10.28v1h3v1h-3v3h4v1h3v1h-3v4h3v1h-3v4h3v1h-3v3h4v-15h4v1h3v1h-3v4h3v1h-3v3h4v-15h-12zm4 1h3v1h-3zm4 0h3v1h-3zm4 0h3v1h-3zm-11 2h2v1h-2zm4 0h2v1h-2zm4 0h2v1h-2zm4 0h2v1h-2zm-8 5h2v1h-2zm8 0h2v1h-2zm-8 5h2v1h-2zm8 0h2v1h-2zm-8 5h2v1h-2z" fill="#a30b0b"/><path id="path1309" d="M-28.024 10.28v1h3v1h-3v3h8v-5h-4zm4 1h3v1h-3zm-3 2h2v1h-2zm4 0h2v1h-2zm-21 2v1h3v1h-3v4h3v1h-3v4h3v1h-3v4h3v1h-3v3h20v-15h-4v1h3v1h-3v3h-4v-10h-4v1h3v1h-3v4h3v1h-3v4h3v1h-3v3h-4v-15zm1 3h2v1h-2zm8 0h2v1h-2zm-8 5h2v1h-2zm8 0h2v1h-2zm8 0h2v1h-2zm-5 3h3v1h-3zm4 0h3v1h-3zm-15 2h2v1h-2zm8 0h2v1h-2zm4 0h2v1h-2zm4 0h2v1h-2zm-13 3h3v1h-3zm4 0h3v1h-3zm4 0h3v1h-3zm4 0h3v1h-3zm-15 2h2v1h-2zm4 0h2v1h-2zm4 0h2v1h-2zm4 0h2v1h-2zm4 0h2v1h-2z" fill="#f9f9f9"/><path id="path1311" d="M-28.024 15.28v1h3v1h-3v3h4v1h3v1h-3v4h3v1h-3v4h3v1h-3v3h4v-20h-4zm4 1h3v1h-3zm-3 2h2v1h-2zm4 0h2v1h-2zm0 5h2v1h-2zm0 5h2v1h-2zm0 5h2v1h-2z" fill="#ee1c23"/></g></svg>