<svg xmlns="http://www.w3.org/2000/svg" xmlns:xlink="http://www.w3.org/1999/xlink" width="48" height="48" version="1.1" id="svg38"><defs id="defs22"><linearGradient id="linearGradient4488"><stop id="stop4490" offset="0" stop-color="#000" stop-opacity=".047"/><stop id="stop4492" offset="1" stop-color="#000" stop-opacity="0"/></linearGradient><style id="style4511"/><style id="style4511-26"/><style id="style4511-9"/><style id="style4552"/><style id="style4511-2"/><linearGradient gradientTransform="translate(-63.205 2.216) scale(.3038)" xlink:href="#linearGradient4488" id="linearGradient4160" x1="288.112" y1="141.785" x2="287.575" y2="79.008" gradientUnits="userSpaceOnUse"/></defs><style id="style4485" type="text/css"/><path d="M2.433 26.443v1.668c0 9.575 5.583 17.282 17.146 17.282h6.93c15.133 0 17.837-11.322 17.837-17.282v-1.668c0 5.96-2.704 17.282-17.837 17.282h-6.93c-11.563 0-17.146-7.708-17.146-17.282z" id="path4147" opacity="1" fill="url(#linearGradient4160)" fill-opacity="1" stroke="none" stroke-width="1.1" stroke-linecap="square" stroke-linejoin="bevel" stroke-miterlimit="4" stroke-dasharray="none" stroke-dashoffset="0" stroke-opacity=".078"/><path d="M19.046 2.965h8.495c13.908 0 16.805 11.246 16.805 17.282v7.123c0 5.96-2.704 17.282-17.837 17.282h-6.93c-11.562 0-17.146-7.708-17.146-17.282v-7.123c0-9.575 5.47-17.282 16.613-17.282z" id="rect4144" opacity="1" fill="#e3e7ea" fill-opacity="1" stroke="#000" stroke-width=".334" stroke-linecap="square" stroke-linejoin="bevel" stroke-miterlimit="4" stroke-dasharray="none" stroke-dashoffset="0" stroke-opacity=".078"/><g id="g1289" transform="translate(.166)" fill="#f60"><path id="path31-8-6" d="M18.386 19.044l-3.697 12.242c-.287 1.112-1.176 4.53-2.408 4.53a.394.394 0 0 1-.372-.38v-.027c0-.407.4-.705.4-1.14 0-.487-.658-.786-1.146-.786-.946 0-1.404.624-1.404 1.302 0 .895.803 1.926 2.436 1.926 3.124 0 4.729-4.042 5.388-6.32l3.353-11.338 5.144-.009-3.71 12.242c-.287 1.112-1.176 4.53-2.408 4.53a.394.394 0 0 1-.373-.38v-.026c0-.407.401-.705.401-1.14 0-.488-.659-.786-1.146-.786-.946 0-1.404.624-1.404 1.302 0 .895.803 1.925 2.435 1.925 3.125 0 4.73-4.041 5.389-6.32l3.353-11.347h2.903l.388-.736H28.8c.516-1.87 1.507-7.04 3.917-7.04 1.06 0 .516 1.872 2.206 1.872.745 0 1.261-.542 1.261-1.14 0-1.22-1.805-1.79-2.894-1.79-4.414 0-5.988 4.897-7.018 8.098h-5.138c.517-1.872 1.294-6.66 3.701-6.66 1.06 0 .516 1.872 2.207 1.872.745 0 1.261-.542 1.261-1.139 0-1.22-1.805-1.79-2.895-1.79-4.327 0-5.773 4.516-6.804 7.717h-3.015l-.388.736" fill-opacity="1" stroke-width=".993"/><g id="g982" transform="matrix(.7426 .21538 -.19898 .8038 18.572 -8.938)" clip-rule="evenodd" fill-rule="evenodd" stroke-linejoin="round" stroke-miterlimit="1.414"><path id="path980" d="M21.3 53.877l.329 1.455-.795.179-.328-1.454-1.455.328-.179-.795 1.455-.329-.329-1.454.796-.18.218.968 4.269-6.756a1.528 1.528 0 0 1 1.571-2.487l4.336-6.862-.921.208-.179-.795 1.455-.328-.328-1.455.795-.179.328 1.454 1.455-.328.179.795-1.455.329.329 1.454-.796.18-.195-.865-4.311 6.824a1.527 1.527 0 0 1-1.187 2.561 1.524 1.524 0 0 1-.39-.066l-4.208 6.659.818-.184.179.795z" fill="#f60" stroke="none" stroke-width=".13"/></g></g></svg>