<svg xmlns="http://www.w3.org/2000/svg" xmlns:xlink="http://www.w3.org/1999/xlink" width="48" height="48" version="1.1" id="svg38"><defs id="defs22"><linearGradient id="linearGradient4488"><stop id="stop4490" offset="0" stop-color="#000" stop-opacity=".047"/><stop id="stop4492" offset="1" stop-color="#000" stop-opacity="0"/></linearGradient><style id="style4511"/><style id="style4511-26"/><style id="style4511-9"/><style id="style4552"/><linearGradient id="e-1" y1="41.22" x1="24.392" y2="25.343" x2="20.643" gradientUnits="userSpaceOnUse"><stop stop-color="#334545" id="stop22-8"/><stop offset="1" stop-color="#536161" id="stop24-7"/></linearGradient><style id="style4511-2"/><linearGradient gradientTransform="translate(-63.205 2.216) scale(.3038)" xlink:href="#linearGradient4488" id="linearGradient4160" x1="288.112" y1="141.785" x2="287.575" y2="79.008" gradientUnits="userSpaceOnUse"/><linearGradient xlink:href="#e-1" id="linearGradient1266" x1="2.266" y1="23.808" x2="44.513" y2="23.808" gradientUnits="userSpaceOnUse"/></defs><style id="style4485" type="text/css"/><path d="M2.433 26.443v1.668c0 9.575 5.583 17.282 17.146 17.282h6.93c15.133 0 17.837-11.322 17.837-17.282v-1.668c0 5.96-2.704 17.282-17.837 17.282h-6.93c-11.563 0-17.146-7.708-17.146-17.282z" id="path4147" opacity="1" fill="url(#linearGradient4160)" fill-opacity="1" stroke="none" stroke-width="1.1" stroke-linecap="square" stroke-linejoin="bevel" stroke-miterlimit="4" stroke-dasharray="none" stroke-dashoffset="0" stroke-opacity=".078"/><path d="M19.046 2.965h8.495c13.908 0 16.805 11.246 16.805 17.282v7.123c0 5.96-2.704 17.282-17.837 17.282h-6.93c-11.562 0-17.146-7.708-17.146-17.282v-7.123c0-9.575 5.47-17.282 16.613-17.282z" id="rect4144" opacity="1" fill="url(#linearGradient1266)" fill-opacity="1" stroke="#000" stroke-width=".334" stroke-linecap="square" stroke-linejoin="bevel" stroke-miterlimit="4" stroke-dasharray="none" stroke-dashoffset="0" stroke-opacity=".078"/><g id="g1475" transform="matrix(.66152 0 0 .7052 .986 -160.284)" stroke="#fff" stroke-width="1.587" stroke-miterlimit="4" stroke-dasharray="none" stroke-opacity="1"><g id="g1479" transform="translate(-.104 1.437)"><g id="g4073" transform="translate(5.905 174.182) scale(.6279)" stroke="#fefefe" stroke-width="3" stroke-opacity="1" stroke-linecap="round" stroke-linejoin="round"><path d="M55.38 107.363l-4.625 17.782h8.937l-3.187 12.218h-8.938l-4.03 15.594h14.5c9.866 0 16.227-8.147 17.874-17.875l3-17.719c.925-5.462-4.46-10-10-10z" id="path4069" fill="none"/><path d="M39.13 107.363c-7.922 0-14.628 5.143-16.969 12.282h-.031l-.063.25a17.848 17.848 0 0 0-.437 1.718l-11.25 43.125h22.53l3.063-11.781h7.562l4.031-15.594h-7.53l3.187-12.218h7.53l4.626-17.782z" id="path4071" fill="#000" fill-opacity="1"/></g></g></g></svg>