<svg xmlns:osb="http://www.openswatchbook.org/uri/2009/osb" xmlns="http://www.w3.org/2000/svg" xmlns:xlink="http://www.w3.org/1999/xlink" width="48" height="48" version="1.1" id="svg38"><defs id="defs22"><linearGradient id="linearGradient4488"><stop id="stop4490" offset="0" stop-color="#000" stop-opacity=".047"/><stop id="stop4492" offset="1" stop-color="#000" stop-opacity="0"/></linearGradient><style id="style4511"/><style id="style4511-26"/><style id="style4511-9"/><style id="style4552"/><style id="style4511-2"/><linearGradient osb:paint="solid" id="linearGradient5293"><stop id="stop5295" offset="0" stop-color="#9a89c0" stop-opacity="1"/></linearGradient><style id="style4511-879202375"/><style id="style4511-26-30"/><style id="style4511-9-76"/><style id="style4552-5"/><style id="style4511-2-6"/><style id="style4511-87920237"/><style id="style4511-26-443"/><style id="style4511-9-5"/><style id="style4552-09"/><style id="style4511-2-0"/><linearGradient osb:paint="solid" id="linearGradient4390"><stop id="stop4388" offset="0" stop-color="#000" stop-opacity="1"/></linearGradient><linearGradient osb:paint="solid" id="linearGradient4300"><stop id="stop4298" offset="0" stop-color="#9f007b" stop-opacity="1"/></linearGradient><style id="style4511-879202"/><style id="style4511-26-47"/><style id="style4511-9-17"/><style id="style4552-4"/><style id="style4511-2-4"/><style id="style4511-879"/><style id="style4511-26-65"/><style id="style4511-9-2"/><style id="style4552-89"/><style id="style4511-2-1"/><style id="style4511-8"/><style id="style4511-26-4"/><style id="style4511-9-7"/><style id="style4552-3"/><style id="style4511-2-8"/><style id="style4552-7"/><style id="style4552-6"/><style id="style4552-73"/><style id="style4552-2"/><linearGradient osb:paint="solid" id="linearGradient5251"><stop id="stop5253" offset="0" stop-color="#2f343f" stop-opacity="1"/></linearGradient><style id="style4511-87"/><style id="style4511-26-6"/><style id="style4511-9-1"/><style id="style4552-8"/><style id="style4511-2-5"/><style id="style4511-8792"/><style id="style4511-26-3"/><style id="style4511-9-0"/><style id="style4552-86"/><style id="style4511-2-84"/><style id="style4511-8-6"/><style id="style4511-26-4-3"/><style id="style4511-9-7-8"/><style id="style4552-3-7"/><style id="style4511-2-8-9"/><style id="style4552-7-5"/><style id="style4552-6-87"/><style id="style4552-73-3"/><style id="style4552-2-1"/><style id="style4511-87-0"/><style id="style4511-26-6-5"/><style id="style4511-9-1-3"/><style id="style4552-8-8"/><style id="style4511-2-5-3"/><style id="style4511-879-4"/><style id="style4511-26-65-7"/><style id="style4511-9-2-0"/><style id="style4552-89-8"/><style id="style4511-2-1-9"/><style id="style4511-8-0"/><style id="style4511-26-4-0"/><style id="style4511-9-7-9"/><style id="style4552-3-4"/><style id="style4511-2-8-7"/><style id="style4552-7-4"/><style id="style4552-6-8"/><style id="style4552-73-7"/><style id="style4552-2-2"/><style id="style4511-87-2"/><linearGradient id="e-31-5" y1="543.8" y2="503.8" gradientUnits="userSpaceOnUse" x2="0" gradientTransform="matrix(1.125 0 0 1 -435.64 504.56)"><stop stop-color="#1d1e1e" id="stop22-94-8"/><stop offset="1" stop-color="#44484c" id="stop24-78-8"/></linearGradient><style id="style4511-26-6-4"/><style id="style4511-9-1-7"/><style id="style4552-8-9"/><style id="style4511-2-5-0"/><style id="style4511-87920"/><style id="style4511-26-45"/><style id="style4511-9-9"/><style id="style4552-0"/><style id="style4511-2-9"/><style id="style4511-8792023"/><style id="style4511-26-44"/><style id="style4511-9-71"/><style id="style4552-43"/><style id="style4511-2-96"/><linearGradient xlink:href="#linearGradient4488" id="linearGradient5481" gradientUnits="userSpaceOnUse" gradientTransform="matrix(0 .30689 -.31235 0 46.41 -63.13)" x1="288.112" y1="141.785" x2="287.575" y2="79.008"/><linearGradient gradientTransform="rotate(-90 -9.803 53.39)" gradientUnits="userSpaceOnUse" x2="47" x1="1" id="linearGradient3764-3675356-1"><stop id="stop5488" stop-opacity="1" stop-color="#e4e4e4"/><stop id="stop5490" stop-opacity="1" stop-color="#eee" offset="1"/></linearGradient><linearGradient xlink:href="#e-31-5" id="linearGradient5575" x1="20.647" y1="30.451" x2="38.629" y2="30.451" gradientUnits="userSpaceOnUse"/><linearGradient xlink:href="#linearGradient3764-3675356-1" id="linearGradient5583" x1="10.907" y1="28.209" x2="25.892" y2="28.209" gradientUnits="userSpaceOnUse"/></defs><style id="style4485" type="text/css"/><path d="M15.727 4.737v39.17" id="path5493" fill="#4d4d4d" fill-opacity="1" stroke="#333" stroke-width="4.812" stroke-linecap="butt" stroke-linejoin="miter" stroke-miterlimit="4" stroke-dasharray="none" stroke-opacity="1"/><rect id="Mask" x="63.147" y="78.204" width="20.231" height="20.096" rx=".581" fill="#f1f1f1" fill-opacity="1" fill-rule="evenodd" stroke="none" stroke-width=".336"/><style type="text/css" id="style4485-333"/><style id="style4485-8" type="text/css"/><style type="text/css" id="style4485-039"/><style id="style4485-34" type="text/css"/><style type="text/css" id="style4485-0"/><style id="style4485-4" type="text/css"/><style id="style4485-5" type="text/css"/><style id="style4485-3" type="text/css"/><style id="style4485-5-1" type="text/css"/><style type="text/css" id="style4485-1"/><style id="style4485-33" type="text/css"/><style type="text/css" id="style4485-0-7"/><style id="style4485-4-9" type="text/css"/><style id="style4485-5-4" type="text/css"/><style id="style4485-3-9" type="text/css"/><style id="style4485-5-1-9" type="text/css"/><style type="text/css" id="style4485-1-5"/><style type="text/css" id="style4485-51"/><style id="style4485-0-9" type="text/css"/><style type="text/css" id="style4485-4-7"/><style type="text/css" id="style4485-5-13"/><style type="text/css" id="style4485-3-1"/><style type="text/css" id="style4485-5-1-2"/><style id="style4485-1-6" type="text/css"/><style id="style4485-03" type="text/css"/><style type="text/css" id="style4485-6"/><path id="path4516" d="M21.502 3.174h-1.715c-9.844 0-17.769 5.64-17.769 17.32v7.001c0 15.286 11.641 18.018 17.769 18.018h1.715c-6.127 0-17.768-2.732-17.768-18.018v-7c0-11.68 7.924-17.32 17.768-17.32z" opacity="1" fill="url(#linearGradient5481)" fill-opacity="1" stroke="none" stroke-width="1.121" stroke-linecap="square" stroke-linejoin="bevel" stroke-miterlimit="4" stroke-dasharray="none" stroke-dashoffset="0" stroke-opacity=".078"/><path id="path4518" d="M45.64 19.956v8.582c0 14.049-11.563 16.975-17.768 16.975H20.55c-6.127 0-17.768-2.732-17.768-18.018v-7c0-11.68 7.924-17.32 17.768-17.32h7.323c9.844 0 17.769 5.525 17.769 16.781z" opacity="1" fill="#006755" fill-opacity="1" stroke="none" stroke-width=".341" stroke-linecap="square" stroke-linejoin="bevel" stroke-miterlimit="4" stroke-dasharray="none" stroke-dashoffset="0" stroke-opacity="1"/><g id="g5597" stroke-width=".748"><path id="path5510" d="M12.015 32.368C10.07 29.636 9.368 27.2 9.408 25.2c.072-3.593 2.297-5.785 2.297-5.785s-.258 1.881.624 2.06c.883.18.914-.981.858-2.943-.056-1.96 1.018-2.926 1.018-2.926s-.112 3.966 2.742 2.666c2.854-1.3.527-5.012.527-5.012s2.805.095 5.136 3.289c1.854 2.54 6.008 3.925 5.593 1.153-.414-2.772 1.948-2.796 1.948-2.796s-.85 1.718 3.594 4.605c3.522 2.29 5.396 7.185 3.176 12.668l-.814 2.01" opacity=".2" fill-rule="evenodd"/><path id="path5512" d="M22.586 10.27s-1.417 2.155.831 3.242c3.775 1.825 3.635 2.738 3.635 2.738s1.119-2.67-.714-4.228c-1.833-1.558-3.752-1.752-3.752-1.752z" opacity=".2" fill-rule="evenodd"/><path id="path5514" d="M12.015 31.62c-1.944-2.732-2.647-5.166-2.607-7.167.072-3.593 2.297-5.786 2.297-5.786s-.258 1.882.624 2.061c.883.18.914-.982.858-2.943-.056-1.961 1.018-2.927 1.018-2.927s-.112 3.966 2.742 2.666c2.854-1.3.527-5.011.527-5.011s2.805.094 5.136 3.288c1.854 2.54 6.008 3.926 5.593 1.154-.414-2.772 1.948-2.797 1.948-2.797s-.85 1.718 3.594 4.606c3.522 2.29 5.396 7.185 3.176 12.668l-.814 2.009" fill="#ff8a3c" fill-rule="evenodd"/><ellipse ry="7.474" rx="7.493" id="circle5516" cy="28.956" cx="18.399" opacity=".2"/><ellipse ry="7.474" rx="7.493" id="circle5518" cy="28.209" cx="18.399" fill="url(#linearGradient5583)" fill-opacity="1"/><ellipse ry="8.969" rx="8.991" id="circle5520" cy="31.198" cx="29.638" opacity=".2"/><ellipse ry="8.969" rx="8.991" id="circle5522" cy="30.451" cx="29.638" fill="url(#linearGradient5575)" fill-opacity="1"/><path id="path5524" d="M22.586 9.523s-1.417 2.155.831 3.242c3.775 1.825 3.635 2.737 3.635 2.737s1.119-2.67-.714-4.228c-1.833-1.558-3.752-1.751-3.752-1.751z" fill="#ff8a3c" fill-rule="evenodd"/><ellipse id="ellipse5526" transform="matrix(.8774 -.47977 .48485 .8746 0 0)" ry="3.9" rx="3.182" cy="42.303" cx="7.414" opacity=".2"/><ellipse id="ellipse5528" transform="matrix(.8774 -.47977 .48485 .8746 0 0)" ry="3.9" rx="3.182" cy="41.647" cx="7.776" fill="#fff"/><path id="path5530" d="M22.586 9.523s-.585.897-.4 1.826c.102-.607.4-1.079.4-1.079s1.919.194 3.752 1.752c.698.594.965 1.347 1.032 2.054.072-.881-.076-1.989-1.032-2.801-1.833-1.558-3.752-1.752-3.752-1.752z" opacity=".2" fill="#fff" fill-rule="evenodd"/><path id="path5532" d="M17.474 12.513s.195.328.403.801c.821.138 2.897.719 4.734 3.235 1.853 2.54 6.007 3.925 5.593 1.153-.005-.033-.005-.06-.009-.093-.339 1.84-3.902.497-5.584-1.807-2.331-3.194-5.137-3.29-5.137-3.29zm12.678 1.645s-2.211.03-1.972 2.555c.214-1.76 1.906-1.804 1.954-1.805-.103-.485.018-.75.018-.75zm-15.947.7s-1.073.966-1.017 2.927c.006.222.003.393.006.593.005-1.852 1.011-2.772 1.011-2.772s-.111 3.966 2.742 2.666c1.258-.573 1.509-1.615 1.397-2.6-.084.733-.456 1.424-1.397 1.852-2.853 1.3-2.742-2.665-2.742-2.665zm15.936.076c-.061.149-.638 1.82 3.603 4.577 2.375 1.544 3.994 4.275 4.121 7.57.109-3.628-1.569-6.659-4.12-8.317-2.693-1.75-3.431-3.06-3.604-3.83zm-18.435 3.733S9.48 20.86 9.408 24.453c-.003.166.006.34.013.512.16-3.398 2.2-5.462 2.264-5.526-.015-.408.02-.772.02-.772zm1.49.55c-.038 1.065-.23 1.641-.867 1.512-.441-.09-.597-.605-.642-1.098-.04.463-.08 1.698.642 1.845.767.156.884-.742.866-2.258z" opacity=".2" fill="#fff" fill-rule="evenodd"/></g></svg>