<svg xmlns="http://www.w3.org/2000/svg" xmlns:xlink="http://www.w3.org/1999/xlink" width="48" height="48" version="1.1" id="svg38"><defs id="defs22"><linearGradient id="linearGradient4488"><stop id="stop4490" offset="0" stop-color="#000" stop-opacity=".047"/><stop id="stop4492" offset="1" stop-color="#000" stop-opacity="0"/></linearGradient><style id="style4511"/><style id="style4511-26"/><style id="style4511-9"/><style id="style4552"/><style id="style4511-2"/><linearGradient xlink:href="#linearGradient4488" id="linearGradient4483" gradientUnits="userSpaceOnUse" gradientTransform="translate(-62.91 2.216) scale(.3038)" x1="288.112" y1="141.785" x2="287.575" y2="79.008"/></defs><style id="style4485" type="text/css"/><path d="M2.729 26.443v1.668c0 9.575 5.583 17.282 17.145 17.282h6.93c15.133 0 17.837-11.322 17.837-17.282v-1.668c0 5.96-2.704 17.282-17.836 17.282h-6.93c-11.563 0-17.146-7.708-17.146-17.282z" id="path4479" opacity="1" fill="url(#linearGradient4483)" fill-opacity="1" stroke="none" stroke-width="1.1" stroke-linecap="square" stroke-linejoin="bevel" stroke-miterlimit="4" stroke-dasharray="none" stroke-dashoffset="0" stroke-opacity=".078"/><path d="M19.342 2.965h8.495c13.907 0 16.804 11.246 16.804 17.282v7.123c0 5.96-2.704 17.282-17.836 17.282h-6.93c-11.563 0-17.146-7.708-17.146-17.282v-7.123c0-9.575 5.47-17.282 16.613-17.282z" id="path4481" opacity="1" fill="#f18d00" fill-opacity="1" stroke="#000" stroke-width=".334" stroke-linecap="square" stroke-linejoin="bevel" stroke-miterlimit="4" stroke-dasharray="none" stroke-dashoffset="0" stroke-opacity=".078"/><path d="M28.344 30.924c-.632.654-11.381 4.58-9.484-6.543 1.897-7.85 7.587-6.542 8.852-6.542 1.265 0 4.426 1.962 4.426 1.962s-.632-4.58-5.058-5.234c0 0 4.426-1.308 9.484 5.889 0 0-.632-9.16-8.852-9.814-10.117-.655-14.543 7.85-14.543 7.85s-7.588 12.432 4.426 17.666c10.75 3.271 14.543-3.926 14.543-3.926s3.162-4.58 0-10.468c0 0 0 1.963-1.264 2.617 0 0 0-1.963-1.897-2.617 0 0 .632 6.543-6.323 5.889 0 0 1.897 3.27 5.69 3.27z" id="Path-5" fill="#fff" stroke-width="1.286"/></svg>