<svg xmlns="http://www.w3.org/2000/svg" xmlns:xlink="http://www.w3.org/1999/xlink" width="48" height="48" version="1.1" id="svg38"><defs id="defs22"><linearGradient id="linearGradient4488"><stop id="stop4490" offset="0" stop-color="#000" stop-opacity=".047"/><stop id="stop4492" offset="1" stop-color="#000" stop-opacity="0"/></linearGradient><style id="style4511"/><style id="style4511-26"/><style id="style4511-9"/><linearGradient gradientUnits="userSpaceOnUse" x2="44" y2="24" x1="26.425" y1="37.11" id="a-7"><stop id="stop2-0" stop-color="#2980b9"/><stop id="stop4-9" stop-color="#1d99f3" offset="1"/></linearGradient><style id="style4552"/><style id="style4511-2"/><linearGradient xlink:href="#linearGradient4488" id="linearGradient4471" gradientUnits="userSpaceOnUse" gradientTransform="translate(-62.47 2.216) scale(.3038)" x1="288.112" y1="141.785" x2="287.575" y2="79.008"/><linearGradient xlink:href="#a-7" id="linearGradient1147" x1="3.001" y1="23.808" x2="45.248" y2="23.808" gradientUnits="userSpaceOnUse"/></defs><style id="style4485" type="text/css"/><path d="M3.168 26.443v1.668c0 9.575 5.583 17.282 17.146 17.282h6.93c15.132 0 17.836-11.322 17.836-17.282v-1.668c0 5.96-2.704 17.282-17.836 17.282h-6.93c-11.563 0-17.146-7.708-17.146-17.282z" id="path4467" opacity="1" fill="url(#linearGradient4471)" fill-opacity="1" stroke="none" stroke-width="1.1" stroke-linecap="square" stroke-linejoin="bevel" stroke-miterlimit="4" stroke-dasharray="none" stroke-dashoffset="0" stroke-opacity=".078"/><path d="M19.781 2.965h8.495c13.908 0 16.805 11.246 16.805 17.282v7.123c0 5.96-2.705 17.282-17.837 17.282h-6.93c-11.563 0-17.146-7.708-17.146-17.282v-7.123c0-9.575 5.47-17.282 16.613-17.282z" id="path4469" opacity="1" fill="url(#linearGradient1147)" fill-opacity="1" stroke="#000" stroke-width=".334" stroke-linecap="square" stroke-linejoin="bevel" stroke-miterlimit="4" stroke-dasharray="none" stroke-dashoffset="0" stroke-opacity=".078"/><path d="M12.117 14.768l-.03.167c-.032.174-.103 2.747-.151 5.476l-.029 1.602.262-.09c.59-.205 1.538-.808 1.538-.98 0-.037-.062-.18-.138-.317-.291-.526-.578-1.528-.878-3.077-.23-1.19-.488-2.463-.536-2.637l-.038-.144zm23.912.286l-.04.142a65.46 65.46 0 0 0-.3 1.545c-.462 2.466-.745 3.447-1.166 4.047a.482.482 0 0 0-.088.2c0 .147.595.51 1.346.821.207.087.415.157.461.158.094.002.096.318-.013-3.087-.062-1.937-.137-3.56-.172-3.707zm-16.02 4.091c-.25-.002-.376.024-.519.1-.34.183-.922.72-2.574 2.388-.896.904-1.808 1.79-2.028 1.967-.674.54-1.572.94-2.653 1.183-.673.15-1.635.15-2.196 0-.869-.234-1.161-.085-.979.5.351 1.122 2.852 2.19 5.992 2.556.65.075 2.186.087 2.717.02 1.688-.21 2.975-.782 4.692-2.083.899-.681 1.33-.918 1.67-.918.314 0 .813.26 1.49.781 1.48 1.136 1.982 1.433 3.044 1.792 1.299.44 1.399.457 2.748.456 2.373-.002 4.544-.385 6.016-1.063.795-.365 1.667-1.118 1.779-1.536.066-.247.028-.516-.084-.601-.104-.08-.415-.048-.99.098-.583.147-1.468.147-2.07-.002-1.029-.256-1.637-.511-2.335-.98-.66-.443-1.26-1.005-2.63-2.455-1.822-1.929-2.188-2.214-2.825-2.199-.386.01-.622.075-1.867.527-1.99.72-2.366.78-3.234.491-.26-.086-.84-.305-1.29-.486-1.018-.408-1.45-.532-1.874-.536zm-7.924 10.856c-.063 0-.06.047.02.346.185.682.589 1.395 1.018 1.798.438.412.838.575 1.606.657.891.094 2.13.036 2.515-.12.226-.09.313-.215.409-.59.078-.31.118-1.532.051-1.599-.02-.02-.578-.052-1.238-.07a39.397 39.397 0 0 1-1.542-.062 29.11 29.11 0 0 1-2.006-.242c-.42-.065-.794-.118-.833-.118zm24.14.075c-.01-.01-.215.022-.454.071-1.085.224-2.101.34-3.925.45-.658.04-1.227.07-1.263.07-.055 0-.067.148-.067.834v.836l.202.215c.125.133.265.23.366.254.09.021.515.04.943.042 1.697.01 2.664-.198 3.141-.682.104-.105.3-.4.439-.653.249-.455.655-1.4.618-1.437z" id="path11946" opacity="1" fill="#fff" fill-opacity="1" stroke="none" stroke-width=".043" stroke-linecap="round" stroke-linejoin="miter" stroke-miterlimit="4" stroke-dasharray="none" stroke-opacity="1"/></svg>