<svg xmlns="http://www.w3.org/2000/svg" xmlns:xlink="http://www.w3.org/1999/xlink" width="48" height="48" version="1.1" id="svg38"><defs id="defs22"><style id="style4511"/><style id="style4511-26"/><style id="style4511-9"/><style id="style4552"/><style id="style4511-2"/><clipPath id="clipPath-886807824"/><clipPath id="clipPath-897244418"/><linearGradient gradientTransform="matrix(.40913 0 0 .40953 -2.149 -2.237)" gradientUnits="userSpaceOnUse" x1="64" y1="8" x2="64" y2="120" id="linearGradient-2"><stop stop-color="#53A3FF" offset="0%" id="stop76"/><stop stop-color="#0065EA" offset="100%" id="stop78"/></linearGradient><linearGradient xlink:href="#linearGradient-2" id="linearGradient1723" x1="11.236" y1="30.764" x2="36.986" y2="30.764" gradientUnits="userSpaceOnUse"/></defs><style id="style4485" type="text/css"/><path d="M19.765 2.965h8.496c13.907 0 16.804 11.246 16.804 17.282v7.123c0 5.96-2.704 17.282-17.837 17.282h-6.93c-11.562 0-17.146-7.766-17.146-17.282v-7.123c0-9.575 5.47-17.282 16.613-17.282z" id="rect4144" opacity="1" fill="#e6e6e6" fill-opacity="1" stroke="#000" stroke-width=".334" stroke-linecap="square" stroke-linejoin="bevel" stroke-miterlimit="4" stroke-dasharray="none" stroke-dashoffset="0" stroke-opacity=".078"/><path id="path1735" d="M18.386 8.8c1.429 1.436 1.42 2.578 1.42 4.307v3.574c-5 1.675-8.574 6.182-8.574 11.5 0 4.563 2.649 8.543 6.563 10.635h12.628c3.914-2.092 6.563-6.072 6.563-10.634 0-5.307-3.588-9.81-8.584-11.5v-3.575c0-1.72-.008-2.867 1.42-4.307h-11.44m.008 0" fill="#9cf" fill-opacity="1" fill-rule="nonzero" stroke="none" stroke-width="1.072"/><path id="path1737" d="M12.577 22.728a11.594 11.594 0 0 0-1.341 5.425c0 4.557 2.657 8.554 6.571 10.647h12.607c3.914-2.092 6.572-6.09 6.572-10.647a11.6 11.6 0 0 0-1.342-5.425m-23.067 0" fill="url(#linearGradient1723)" fill-opacity="1" fill-rule="nonzero" stroke="none" stroke-width="1.072"/><path id="path1739" d="M27.33 36.12a.538.538 0 0 1-1.073 0 .535.535 0 1 1 1.072.001m0 0" fill="#f9f9f9" fill-opacity="1" fill-rule="nonzero" stroke="none" stroke-width="1.072"/><path id="path1741" d="M25.72 33.71a.804.804 0 1 1-1.609-.002.804.804 0 0 1 1.61.002m0 0" fill="#f9f9f9" fill-opacity="1" fill-rule="nonzero" stroke="none" stroke-width="1.072"/><path id="path1743" d="M27.33 30.228a1.074 1.074 0 0 1-2.146 0 1.074 1.074 0 0 1 2.146 0m0 0" fill="#f9f9f9" fill-opacity="1" fill-rule="nonzero" stroke="none" stroke-width="1.072"/><path id="path1745" d="M27.33 22.193a1.609 1.609 0 0 1-3.22 0 1.609 1.609 0 0 1 3.22 0m0 0" fill="#f9f9f9" fill-opacity="1" fill-rule="nonzero" stroke="none" stroke-width="1.072"/><path id="path1747" d="M24.647 26.746c0 .74-.6 1.34-1.34 1.34a1.34 1.34 0 0 1 0-2.678 1.34 1.34 0 0 1 1.34 1.338m0 0" fill="#f9f9f9" fill-opacity="1" fill-rule="nonzero" stroke="none" stroke-width="1.072"/></svg>