<svg xmlns:osb="http://www.openswatchbook.org/uri/2009/osb" xmlns="http://www.w3.org/2000/svg" xmlns:xlink="http://www.w3.org/1999/xlink" width="48" height="48" version="1.1" id="svg38"><defs id="defs22"><linearGradient id="linearGradient4488"><stop id="stop4490" offset="0" stop-color="#000" stop-opacity=".047"/><stop id="stop4492" offset="1" stop-color="#000" stop-opacity="0"/></linearGradient><style id="style4511"/><style id="style4511-26"/><style id="style4511-9"/><style id="style4552"/><style id="style4511-2"/><linearGradient xlink:href="#linearGradient4488" id="linearGradient4540" gradientUnits="userSpaceOnUse" gradientTransform="matrix(.30902 0 0 .3038 -64.017 1.994)" x1="288.112" y1="141.785" x2="287.575" y2="79.008"/><linearGradient osb:paint="solid" id="linearGradient5293"><stop id="stop5295" offset="0" stop-color="#9a89c0" stop-opacity="1"/></linearGradient><linearGradient id="linearGradient-1-3" y2="67.917%" x2="8.48%" y1="28.427%" x1="94.527%"><stop id="stop1274" offset="0%" stop-color="#A7FCA7"/><stop id="stop1276" offset="100%" stop-color="#3C983C"/></linearGradient><linearGradient id="linearGradient-2-6" y2="89.622%" x2="41.713%" y1="0%" x1="65.305%"><stop id="stop1279" offset="0%" stop-color="#05A800"/><stop id="stop1281" offset="100%" stop-color="#063C00"/></linearGradient><linearGradient id="linearGradient-3" y2="50%" x2="95.398%" y1="50%" x1="0%"><stop id="stop1284" offset="0%" stop-color="#003B00"/><stop id="stop1286" offset="100%" stop-color="#00A200"/></linearGradient><linearGradient id="linearGradient-4" y2="0%" x2="27.795%" y1="50%" x1="23.327%"><stop id="stop1289" offset="0%" stop-opacity="0" stop-color="#EEE"/><stop id="stop1291" offset="100%" stop-color="#4BFF00"/></linearGradient><linearGradient xlink:href="#linearGradient-1-3" id="linearGradient1358" x1="26.164" y1="7.808" x2="2.528" y2="18.656" gradientTransform="scale(1.44573 .6917)" gradientUnits="userSpaceOnUse"/><linearGradient xlink:href="#linearGradient-2-6" id="linearGradient1360" x1="18.138" y1="0" x2="11.657" y2="24.618" gradientTransform="scale(1.44573 .6917)" gradientUnits="userSpaceOnUse"/><linearGradient xlink:href="#linearGradient-3" id="linearGradient1362" x1="8.268" y1="17.288" x2="22.291" y2="17.288" gradientTransform="scale(1.35165 .73983)" gradientUnits="userSpaceOnUse"/><linearGradient xlink:href="#linearGradient-4" id="linearGradient1364" x1="7.203" y1="14.006" x2="8.323" y2="1.474" gradientTransform="scale(1.47428 .6783)" gradientUnits="userSpaceOnUse"/><linearGradient xlink:href="#linearGradient-1-3" id="linearGradient1366" x1="26.164" y1="7.808" x2="2.528" y2="18.656" gradientTransform="scale(1.44573 .6917)" gradientUnits="userSpaceOnUse"/><linearGradient xlink:href="#linearGradient-2-6" id="linearGradient1368" x1="18.138" y1="0" x2="11.657" y2="24.618" gradientTransform="scale(1.44573 .6917)" gradientUnits="userSpaceOnUse"/><linearGradient xlink:href="#linearGradient-3" id="linearGradient1370" x1="8.268" y1="17.288" x2="22.291" y2="17.288" gradientTransform="scale(1.35165 .73983)" gradientUnits="userSpaceOnUse"/><linearGradient xlink:href="#linearGradient-4" id="linearGradient1372" x1="7.203" y1="14.006" x2="8.323" y2="1.474" gradientTransform="scale(1.47428 .6783)" gradientUnits="userSpaceOnUse"/></defs><style id="style4485" type="text/css"/><path id="path4516" d="M2.75 26.22v1.67c0 9.573 5.68 17.281 17.44 17.281h7.05c15.392 0 18.143-11.322 18.143-17.282v-1.668c0 5.96-2.75 17.282-18.143 17.282h-7.05c-11.76 0-17.44-7.708-17.44-17.282z" opacity="1" fill="url(#linearGradient4540)" fill-opacity="1" stroke="none" stroke-width="1.109" stroke-linecap="square" stroke-linejoin="bevel" stroke-miterlimit="4" stroke-dasharray="none" stroke-dashoffset="0" stroke-opacity=".078"/><path id="path4518" d="M19.649 2.742h8.64c14.148 0 17.094 11.247 17.094 17.282v7.124c0 5.96-2.75 17.282-18.143 17.282h-7.05c-11.76 0-17.44-7.708-17.44-17.282v-7.124c0-9.574 5.564-17.282 16.899-17.282z" opacity="1" fill="#218559" fill-opacity="1" stroke="#000" stroke-width=".337" stroke-linecap="square" stroke-linejoin="bevel" stroke-miterlimit="4" stroke-dasharray="none" stroke-dashoffset="0" stroke-opacity=".078"/><g id="g1419" transform="translate(1.358 .434)" fill="none" fill-rule="evenodd" stroke="none" stroke-width="1"><g id="Group-2" transform="matrix(.71913 0 0 .73608 8.326 8.798)"><g id="Group"><path d="M20 0C10.113 0 1.901 7.174.288 16.601 4.28 12.528 9.905 10.411 16 10c4.445-.3 8.035.57 10.771 2.61a1 1 0 0 1 .11 1.51l-3.174 3.173A1 1 0 0 0 24.414 19H39a1 1 0 0 0 1-1V3.414a1 1 0 0 0-1.707-.707l-3.66 3.66A19.945 19.945 0 0 0 20 0z" id="Mask" fill="url(#linearGradient1358)"/><path d="M15.933 9.002c4.668-.315 8.493.612 11.436 2.806a2 2 0 0 1 .22 3.018L24.413 18H39V3.414l-4.392 4.392-.706-.758A18.942 18.942 0 0 0 20 1C11.776 1 4.653 6.26 2.05 13.75c3.765-2.781 8.544-4.388 13.883-4.748zm18.7-2.635l.683-.683 2.977-2.977A1 1 0 0 1 40 3.414V18a1 1 0 0 1-1 1H24.414a1 1 0 0 1-.707-1.707l3.174-3.174a1 1 0 0 0-.11-1.509C24.035 10.57 20.445 9.7 16 10c-6.095.411-11.72 2.528-15.712 6.601C1.9 7.174 10.113 0 20 0a19.934 19.934 0 0 1 14.633 6.367z" id="path1298" fill="url(#linearGradient1360)" fill-rule="nonzero"/><path d="M23.44 18.227a1.003 1.003 0 0 1 .267-.934l3.174-3.174a1 1 0 0 0-.11-1.509C24.035 10.57 20.445 9.7 16 10c-1.65.111-3.266.348-4.825.714a13.065 13.065 0 0 1 2.03-1.503c6.154-3.698 14.14-1.706 17.839 4.448z" id="Combined-Shape" fill="url(#linearGradient1362)"/><path d="M38.404 5.64c.184-.127.366-.257.546-.39C36.347 12.74 29.224 18 21 18a18.942 18.942 0 0 1-13.902-6.048l-.706-.758L2 15.586V7.793v6.793l4.392-4.392.706.758A18.942 18.942 0 0 0 21 17c7.705 0 14.444-4.618 17.404-11.36zM15.586 1h1l-3.174 3.174a2 2 0 0 0-.523.913 1.996 1.996 0 0 1 .523-1.913z" id="path1301" transform="rotate(180 20.475 9.5)" fill="#fff" fill-opacity=".2" fill-rule="nonzero"/><path d="M25.067 9.998c-4.668.315-8.493-.612-11.436-2.806a2 2 0 0 1-.22-3.018L16.587 1H2v14.586l4.392-4.392.706.758A18.942 18.942 0 0 0 21 18c8.224 0 15.347-5.26 17.95-12.75-3.765 2.781-8.544 4.388-13.883 4.748z" id="path1303" transform="rotate(180 20.475 9.5)" fill="url(#linearGradient1364)"/></g></g><g id="g1319" transform="matrix(-.71913 0 0 -.73608 37.091 37.505)"><g id="g1317"><path d="M20 0C10.113 0 1.901 7.174.288 16.601 4.28 12.528 9.905 10.411 16 10c4.445-.3 8.035.57 10.771 2.61a1 1 0 0 1 .11 1.51l-3.174 3.173A1 1 0 0 0 24.414 19H39a1 1 0 0 0 1-1V3.414a1 1 0 0 0-1.707-.707l-3.66 3.66A19.945 19.945 0 0 0 20 0z" id="path1307" fill="url(#linearGradient1366)"/><path d="M15.933 9.002c4.668-.315 8.493.612 11.436 2.806a2 2 0 0 1 .22 3.018L24.413 18H39V3.414l-4.392 4.392-.706-.758A18.942 18.942 0 0 0 20 1C11.776 1 4.653 6.26 2.05 13.75c3.765-2.781 8.544-4.388 13.883-4.748zm18.7-2.635l.683-.683 2.977-2.977A1 1 0 0 1 40 3.414V18a1 1 0 0 1-1 1H24.414a1 1 0 0 1-.707-1.707l3.174-3.174a1 1 0 0 0-.11-1.509C24.035 10.57 20.445 9.7 16 10c-6.095.411-11.72 2.528-15.712 6.601C1.9 7.174 10.113 0 20 0a19.934 19.934 0 0 1 14.633 6.367z" id="path1309" fill="url(#linearGradient1368)" fill-rule="nonzero"/><path d="M23.44 18.227a1.003 1.003 0 0 1 .267-.934l3.174-3.174a1 1 0 0 0-.11-1.509C24.035 10.57 20.445 9.7 16 10c-1.65.111-3.266.348-4.825.714a13.065 13.065 0 0 1 2.03-1.503c6.154-3.698 14.14-1.706 17.839 4.448z" id="path1311" fill="url(#linearGradient1370)"/><path d="M38.404 5.64c.184-.127.366-.257.546-.39C36.347 12.74 29.224 18 21 18a18.942 18.942 0 0 1-13.902-6.048l-.706-.758L2 15.586V7.793v6.793l4.392-4.392.706.758A18.942 18.942 0 0 0 21 17c7.705 0 14.444-4.618 17.404-11.36zM15.586 1h1l-3.174 3.174a2 2 0 0 0-.523.913 1.996 1.996 0 0 1 .523-1.913z" id="path1313" transform="rotate(180 20.475 9.5)" fill="#fff" fill-opacity=".2" fill-rule="nonzero"/><path d="M25.067 9.998c-4.668.315-8.493-.612-11.436-2.806a2 2 0 0 1-.22-3.018L16.587 1H2v14.586l4.392-4.392.706.758A18.942 18.942 0 0 0 21 18c8.224 0 15.347-5.26 17.95-12.75-3.765 2.781-8.544 4.388-13.883 4.748z" id="path1315" transform="rotate(180 20.475 9.5)" fill="url(#linearGradient1372)"/></g></g></g></svg>