<svg xmlns:osb="http://www.openswatchbook.org/uri/2009/osb" xmlns="http://www.w3.org/2000/svg" width="48" height="48" version="1.1" id="svg38"><defs id="defs22"><style id="style4511"/><style id="style4511-26"/><style id="style4511-9"/><style id="style4552"/><style id="style4511-2"/><linearGradient osb:paint="solid" id="linearGradient5293"><stop id="stop5295" offset="0" stop-color="#9a89c0" stop-opacity="1"/></linearGradient><style id="style4511-8"/><style id="style4511-26-4"/><style id="style4511-9-8"/><style id="style4552-5"/><style id="style4511-2-5"/><style id="style4511-87"/><style id="style4511-26-7"/><style id="style4511-9-1"/><style id="style4552-3"/><style id="style4511-2-9"/></defs><style id="style4485" type="text/css"/><style type="text/css" id="style4485-1"/><style type="text/css" id="style4485-6"/><path id="path4518" d="M2.502 28.76v-8.648c0-14.157 11.587-17.106 17.805-17.106h7.339c6.14 0 17.805 2.753 17.805 18.157v7.054c0 11.77-7.941 17.454-17.805 17.454h-7.34c-9.863 0-17.804-5.568-17.804-16.911z" opacity="1" fill="#004e76" fill-opacity="1" stroke="#000" stroke-width=".342" stroke-linecap="square" stroke-linejoin="bevel" stroke-miterlimit="4" stroke-dasharray="none" stroke-dashoffset="0" stroke-opacity=".078"/><path id="path4518-3" d="M7.377 27.94v-7.23c0-11.835 10.277-14.3 15.791-14.3h6.51c5.445 0 15.79 2.301 15.79 15.178v5.898c0 9.839-7.042 14.59-15.79 14.59h-6.51c-8.748 0-15.791-4.655-15.791-14.137z" opacity="1" fill="#f9f9f9" fill-opacity="1" stroke="#000" stroke-width=".295" stroke-linecap="square" stroke-linejoin="bevel" stroke-miterlimit="4" stroke-dasharray="none" stroke-dashoffset="0" stroke-opacity=".078"/><path id="path4518-3-6" d="M12.028 27.58v-6.215c0-10.174 9.046-12.292 13.9-12.292h5.73c4.794 0 13.902 1.978 13.902 13.047v5.07c0 8.458-6.2 12.543-13.902 12.543h-5.73c-7.7 0-13.9-4.002-13.9-12.153z" opacity="1" fill="#00cae5" fill-opacity="1" stroke="#000" stroke-width=".256" stroke-linecap="square" stroke-linejoin="bevel" stroke-miterlimit="4" stroke-dasharray="none" stroke-dashoffset="0" stroke-opacity=".078"/><path id="path1249" d="M10.056 30.106V18.7h15.972v-5.704l12.778 11.408L26.028 35.81v-5.704" fill="#f9f9f9" fill-opacity="1" fill-rule="nonzero" stroke="none" stroke-width="1.509"/></svg>