<svg xmlns:osb="http://www.openswatchbook.org/uri/2009/osb" xmlns="http://www.w3.org/2000/svg" xmlns:xlink="http://www.w3.org/1999/xlink" width="48" height="48" version="1.1" id="svg38"><defs id="defs22"><linearGradient id="linearGradient4488"><stop id="stop4490" offset="0" stop-color="#000" stop-opacity=".047"/><stop id="stop4492" offset="1" stop-color="#000" stop-opacity="0"/></linearGradient><style id="style4511"/><style id="style4511-26"/><style id="style4511-9"/><style id="style4552"/><style id="style4511-2"/><linearGradient xlink:href="#linearGradient4488" id="linearGradient4540" gradientUnits="userSpaceOnUse" gradientTransform="matrix(.30902 0 0 .3038 -64.017 1.994)" x1="288.112" y1="141.785" x2="287.575" y2="79.008"/><linearGradient osb:paint="solid" id="linearGradient5293"><stop id="stop5295" offset="0" stop-color="#9a89c0" stop-opacity="1"/></linearGradient><style id="style2" type="text/css"><![CDATA[.fil5{fill:none}.fil1{fill:#196FBA}.fil0{fill:#25B2EE}.fil4{fill:#793C7C}.fil3{fill:#8C508C}.fil2{fill:white}]]></style><linearGradient gradientTransform="rotate(-90 -3.394 50.732)" gradientUnits="userSpaceOnUse" x2="47" x1="1" id="linearGradient3764-367535"><stop id="stop897" stop-color="#e4e4e4" stop-opacity="1"/><stop id="stop899" offset="1" stop-color="#eee" stop-opacity="1"/></linearGradient><linearGradient xlink:href="#linearGradient3764-367535" id="linearGradient1789" x1="2.581" y1="23.586" x2="45.552" y2="23.586" gradientUnits="userSpaceOnUse"/></defs><style id="style4485" type="text/css"/><g id="g1796" fill-opacity="1"><path d="M2.75 26.22v1.67c0 9.573 5.68 17.281 17.44 17.281h7.05c15.392 0 18.143-11.322 18.143-17.282v-1.668c0 5.96-2.75 17.282-18.143 17.282h-7.05c-11.76 0-17.44-7.708-17.44-17.282z" id="path4516" opacity="1" fill="url(#linearGradient4540)" stroke="none" stroke-width="1.109" stroke-linecap="square" stroke-linejoin="bevel" stroke-miterlimit="4" stroke-dasharray="none" stroke-dashoffset="0" stroke-opacity=".078"/><path d="M19.649 2.742h8.64c14.148 0 17.094 11.247 17.094 17.282v7.124c0 5.96-2.75 17.282-18.143 17.282h-7.05c-11.76 0-17.44-7.708-17.44-17.282v-7.124c0-9.574 5.564-17.282 16.899-17.282z" id="path4518" opacity="1" fill="url(#linearGradient1789)" stroke="#000" stroke-width=".337" stroke-linecap="square" stroke-linejoin="bevel" stroke-miterlimit="4" stroke-dasharray="none" stroke-dashoffset="0" stroke-opacity=".078"/><g transform="translate(-.215 -.915)" id="g930"><path id="path926" transform="translate(1)" d="M11 13v20h4v-8h3v-3h-3v-4h7v-5z" fill="#cd5c2a"/><path id="path928" d="M24.514 15.973c-.109.021-.158.123-.158.234v3.404a7 7 0 0 0-.934.621l-3.138-1.33c-.102-.043-.216-.038-.278.054l-1.453 2.155c-.062.092-.024.2.054.278l2.404 2.406a7 7 0 0 0-.216 1.1l-3.162 1.277c-.103.042-.179.125-.158.234l.496 2.554c.021.109.123.158.234.158h3.404a7 7 0 0 0 .621.934L20.9 33.19c-.043.102-.038.216.054.278l2.155 1.453c.092.062.2.024.278-.054l2.406-2.404a7 7 0 0 0 1.1.216l1.277 3.162c.042.103.125.179.234.158l2.554-.496c.109-.021.158-.123.158-.234v-3.404a7 7 0 0 0 .934-.621l3.138 1.33c.102.043.216.038.278-.054l1.453-2.155c.062-.092.024-.2-.054-.278l-2.404-2.406a7 7 0 0 0 .216-1.1l3.162-1.277c.103-.042.179-.125.158-.234l-.496-2.554c-.021-.109-.123-.158-.234-.158h-3.404a7 7 0 0 0-.621-.934l1.33-3.138c.043-.102.038-.216-.054-.278l-2.155-1.453c-.092-.062-.2-.024-.278.054l-2.406 2.404a7 7 0 0 0-1.1-.216l-1.277-3.162c-.042-.103-.125-.179-.234-.158zm2.651 6.819a3 3 0 0 1 3.517 2.372 3 3 0 0 1-2.372 3.517 3 3 0 0 1-3.517-2.372 3 3 0 0 1 2.372-3.517z" fill="#3b6dbb" stroke="none"/></g></g></svg>