<svg xmlns="http://www.w3.org/2000/svg" xmlns:xlink="http://www.w3.org/1999/xlink" width="48" height="48" version="1.1" id="svg38"><defs id="defs22"><linearGradient id="linearGradient4488"><stop id="stop4490" offset="0" stop-color="#000" stop-opacity=".047"/><stop id="stop4492" offset="1" stop-color="#000" stop-opacity="0"/></linearGradient><style id="style4511"/><style id="style4511-26"/><style id="style4511-9"/><style id="style4552"/><style id="style4511-2"/><linearGradient xlink:href="#linearGradient4488" id="linearGradient4548" gradientUnits="userSpaceOnUse" gradientTransform="translate(-62.55 1.994) scale(.3038)" x1="288.112" y1="141.785" x2="287.575" y2="79.008"/></defs><style id="style4485" type="text/css"/><path id="path4532" d="M3.088 26.22v1.67c0 9.573 5.583 17.281 17.146 17.281h6.93c15.133 0 17.837-11.322 17.837-17.282v-1.668c0 5.96-2.704 17.282-17.837 17.282h-6.93c-11.563 0-17.146-7.708-17.146-17.282z" opacity="1" fill="url(#linearGradient4548)" fill-opacity="1" stroke="none" stroke-width="1.1" stroke-linecap="square" stroke-linejoin="bevel" stroke-miterlimit="4" stroke-dasharray="none" stroke-dashoffset="0" stroke-opacity=".078"/><path id="path4534" d="M19.701 2.742h8.495c13.908 0 16.805 11.247 16.805 17.282v7.124c0 5.96-2.704 17.282-17.837 17.282h-6.93c-11.562 0-17.146-7.708-17.146-17.282v-7.124c0-9.574 5.47-17.282 16.613-17.282z" opacity="1" fill="#636a82" fill-opacity="1" stroke="#000" stroke-width=".334" stroke-linecap="square" stroke-linejoin="bevel" stroke-miterlimit="4" stroke-dasharray="none" stroke-dashoffset="0" stroke-opacity=".078"/><path d="M15.965 11.902a.633.633 0 0 0-.201.045c-.259.108-.454.46-.405.725.014.073.753 1.588 1.641 3.365l1.615 3.233h.756c.415 0 .754-.008.754-.018 0-.045-3.537-7.091-3.59-7.15-.122-.138-.357-.214-.57-.2zm16.008 0a.686.686 0 0 0-.547.397c-.192.381-7.034 16.062-7.063 16.185-.065.278.086.563.373.705.178.089.453.1.596.026a.916.916 0 0 0 .193-.154c.064-.067 1.318-2.891 3.645-8.21 3.842-8.78 3.642-8.29 3.492-8.58-.083-.16-.29-.329-.44-.357a.847.847 0 0 0-.25-.012zm-5.932 6.002a.73.73 0 0 0-.307.067.83.83 0 0 0-.218.187c-.096.123-4.11 10.117-4.155 10.342-.054.277.114.567.4.697.28.127.604.068.78-.14.09-.107 4.126-10.138 4.18-10.387.052-.242-.131-.587-.38-.715a.672.672 0 0 0-.3-.05zm-2.953.006c-.195-.012-.251-.003-.383.074a.724.724 0 0 0-.23.23c-.125.222-7.06 16.087-7.104 16.253-.079.293.132.653.443.758.206.068.477.036.623-.077a.738.738 0 0 0 .178-.195c.028-.053 1.638-3.725 3.578-8.16 3.827-8.747 3.613-8.22 3.455-8.53-.114-.225-.291-.336-.56-.353zm4.775 9.988l-.058.145a.913.913 0 0 0-.057.178c0 .066 3.748 6.782 3.842 6.883a.79.79 0 0 0 .203.152c.157.073.43.036.627-.086.306-.19.408-.533.25-.846-.042-.083-.862-1.563-1.82-3.289l-1.743-3.137h-1.244z" id="path4467" opacity="1" fill="#fff" fill-opacity="1" stroke="none" stroke-width=".022" stroke-linecap="round" stroke-linejoin="miter" stroke-miterlimit="4" stroke-dasharray="none" stroke-opacity="1"/></svg>