<svg xmlns="http://www.w3.org/2000/svg" xmlns:xlink="http://www.w3.org/1999/xlink" width="48" height="48" version="1.1" id="svg38"><defs id="defs22"><linearGradient id="linearGradient4488"><stop id="stop4490" offset="0" stop-color="#000" stop-opacity=".047"/><stop id="stop4492" offset="1" stop-color="#000" stop-opacity="0"/></linearGradient><style id="style4511"/><style id="style4511-26"/><style id="style4511-9"/><style id="style4552"/><linearGradient id="e-1" y1="41.22" x1="24.392" y2="25.343" x2="20.643" gradientUnits="userSpaceOnUse"><stop stop-color="#334545" id="stop22-8"/><stop offset="1" stop-color="#536161" id="stop24-7"/></linearGradient><style id="style4511-2"/><linearGradient xlink:href="#linearGradient4488" id="linearGradient4546" gradientUnits="userSpaceOnUse" gradientTransform="translate(-62.497 1.994) scale(.3038)" x1="288.112" y1="141.785" x2="287.575" y2="79.008"/><filter height="1.19" y="-.095" width="1.194" x="-.097" id="filter1359" color-interpolation-filters="sRGB"><feGaussianBlur id="feGaussianBlur1361" stdDeviation=".499"/></filter><linearGradient xlink:href="#e-1" id="linearGradient1405" x1="2.974" y1="23.586" x2="45.221" y2="23.586" gradientUnits="userSpaceOnUse"/></defs><style id="style4485" type="text/css"/><path d="M3.141 26.22v1.67c0 9.573 5.583 17.281 17.146 17.281h6.93c15.133 0 17.837-11.322 17.837-17.282v-1.668c0 5.96-2.704 17.282-17.837 17.282h-6.93c-11.563 0-17.146-7.708-17.146-17.282z" id="path4528" opacity="1" fill="url(#linearGradient4546)" fill-opacity="1" stroke="none" stroke-width="1.1" stroke-linecap="square" stroke-linejoin="bevel" stroke-miterlimit="4" stroke-dasharray="none" stroke-dashoffset="0" stroke-opacity=".078"/><path d="M19.754 2.742h8.495c13.908 0 16.805 11.247 16.805 17.282v7.124c0 5.96-2.704 17.282-17.837 17.282h-6.93c-11.562 0-17.146-7.708-17.146-17.282v-7.124c0-9.574 5.47-17.282 16.613-17.282z" id="path4530" opacity="1" fill="url(#linearGradient1405)" fill-opacity="1" stroke="#000" stroke-width=".334" stroke-linecap="square" stroke-linejoin="bevel" stroke-miterlimit="4" stroke-dasharray="none" stroke-dashoffset="0" stroke-opacity=".078"/><g id="g1309" transform="matrix(.60477 0 0 .6471 2.027 -146.29)" fill="#f5251a" fill-opacity="1" stroke="none"><path d="M73.401 242.628c6.573 2.07 21.55 4.954 32.704 4.938l50.672-.072c12.924-.018 21.67-1.136 28.632-2.924 3.688-.217 10.719-3.01 13.976-3.373 3.257-.364 5.401-2.313 8.253-2.85.136-.025 2.467-.976 2.895-1.253 18.006-37.362 14.799-67.451-.138-89.922-16.275-24.482-45.73-39.677-74.948-45.967a1.8 1.8 0 0 0-.67 0c-.67.128-1.202.685-1.336 1.37a1.693 1.693 0 0 0 .729 1.74c14.995 9.722 22.745 21.598 24.963 34.398 2.218 12.8-1.12 26.692-8.807 40.307-13.551 24-40.87 47.39-73.586 61.397z" id="path3427" transform="translate(.753 229.267) scale(.26458)" display="inline" opacity=".75" fill-rule="evenodd" stroke-width="2.804"/><path d="M101.894 3.997c-7.526.003-24.616 2.478-31.87 5.17-1.954.46-6.675 2.247-8.592 3.01-16.294 19.357-25.348 37.956-27.72 54.071-2.455 16.687 1.588 31.47 9.66 43.977 16.142 25.014 48.13 41.038 77.376 47.334.801.122 1.58-.35 1.883-1.12a1.793 1.793 0 0 0-.608-2.115c-14.998-9.725-22.974-21.38-25.994-33.898-3.02-12.518-1.01-26.013 4.494-39.373 11.011-26.721 38.439-59.767 63.788-74.679 1.854-1.324 2.503-1.77 2.508-2.403z" id="path1319" transform="translate(.753 229.267) scale(.26458)" display="inline" opacity=".75" fill-rule="evenodd" stroke-width="2.804"/><path d="M39.883 268.896a7.544 4.55 46.464 1 1-10.54-10.794 7.544 4.55 46.464 1 1 10.54 10.794z" id="path1321" display="inline" opacity=".3" fill-rule="nonzero" stroke-width=".742" stroke-linecap="square" stroke-linejoin="round" stroke-miterlimit="4" stroke-dasharray="none" stroke-dashoffset="0" stroke-opacity="1" filter="url(#filter1359)"/><path id="path3301" d="M39.883 268.896a7.544 4.55 46.464 1 1-10.54-10.794 7.544 4.55 46.464 1 1 10.54 10.794z" display="inline" fill-rule="nonzero" stroke-width=".742" stroke-linecap="square" stroke-linejoin="round" stroke-miterlimit="4" stroke-dasharray="none" stroke-dashoffset="0" stroke-opacity="1"/></g></svg>