<svg xmlns="http://www.w3.org/2000/svg" xmlns:xlink="http://www.w3.org/1999/xlink" width="48" height="48" version="1.1" id="svg38"><defs id="defs22"><linearGradient id="linearGradient4488"><stop id="stop4490" offset="0" stop-color="#000" stop-opacity=".047"/><stop id="stop4492" offset="1" stop-color="#000" stop-opacity="0"/></linearGradient><style id="style4511"/><style id="style4511-26"/><style id="style4511-9"/><style id="style4552"/><style id="style4511-2"/><linearGradient gradientTransform="translate(-63.205 2.216) scale(.3038)" xlink:href="#linearGradient4488" id="linearGradient4160" x1="288.112" y1="141.785" x2="287.575" y2="79.008" gradientUnits="userSpaceOnUse"/></defs><style id="style4485" type="text/css"/><path d="M2.433 26.443v1.668c0 9.575 5.583 17.282 17.146 17.282h6.93c15.133 0 17.837-11.322 17.837-17.282v-1.668c0 5.96-2.704 17.282-17.837 17.282h-6.93c-11.563 0-17.146-7.708-17.146-17.282z" id="path4147" opacity="1" fill="url(#linearGradient4160)" fill-opacity="1" stroke="none" stroke-width="1.1" stroke-linecap="square" stroke-linejoin="bevel" stroke-miterlimit="4" stroke-dasharray="none" stroke-dashoffset="0" stroke-opacity=".078"/><path d="M19.046 2.965h8.495c13.908 0 16.805 11.246 16.805 17.282v7.123c0 5.96-2.704 17.282-17.837 17.282h-6.93c-11.562 0-17.146-7.708-17.146-17.282v-7.123c0-9.575 5.47-17.282 16.613-17.282z" id="rect4144" opacity="1" fill="#e3e7ea" fill-opacity="1" stroke="#000" stroke-width=".334" stroke-linecap="square" stroke-linejoin="bevel" stroke-miterlimit="4" stroke-dasharray="none" stroke-dashoffset="0" stroke-opacity=".078"/><g transform="matrix(1.05136 0 0 1.06537 -1.844 -2.826)" id="g1215" fill-opacity="1" stroke="none"><path d="M38 14c0 11-11.47 22-19.5 22-4.566 0-8.5-3.519-8.5-7.5C10 23 13.517 20 20 20h5.5c1.5 0 5.231-1.6 6.3-3.1-.033 1.5-.6 2.1-.6 2.1 1-.6 1.688-1.403 2.3-2.2-.07.637-.308 1.241-.5 2 .644-.4 2.2-2.3 2.655-3a14.235 14.235 0 0 1-.454 2.447c.9-.459 2.37-3.243 2.8-4.243" id="path1201" opacity="1" fill="#3297c2"/><path d="M20 20l-4.801 2.5c0 3.038 2.239 5.5 5 5.5s5-2.462 5-5.5c0-.869-.188-1.726-.547-2.5z" id="path1203" opacity=".1" fill="#000"/><ellipse ry="5.5" rx="5" cy="21.5" cx="19.2" id="ellipse1205" opacity="1" fill="#333"/><ellipse ry="5" rx="4.75" cy="22" cx="19.25" id="ellipse1207" opacity="1" fill="#f9f9f9"/><ellipse ry="3" rx="2.25" cy="22" cx="18.85" id="ellipse1209" opacity="1" fill="#333"/><path d="M22 33.3c-3 0-5-3.3-5-5.3 4 1.638 8 1.345 9.5.5C26 32 24 33.3 22 33.3" id="path1211" opacity="1" fill="#e0524c"/><path d="M15.416 26.824a.25.25 0 0 0-.148.447 8.83 8.83 0 0 0 1.518.945c.325 1.93 1.106 3.213 2.061 4.03.985.84 2.138 1.185 3.125 1.305 1.452.176 2.66-.657 3.482-1.725.734-.953 1.169-2.082 1.26-2.994a14.054 14.054 0 0 0 2.105-.893.25.25 0 1 0-.23-.443c-5.327 2.786-10.703 1.212-13.01-.613a.25.25 0 0 0-.162-.057zm1.928 1.65c1.07.463 2.335.818 3.729.965a.2.2 0 0 0 .074.082c1.208.775 1.337 1.323 1.51 1.859l.045.139h.146a.2.2 0 0 0 .162-.32c-.146-.45-.388-1.04-1.234-1.701a13.43 13.43 0 0 0 4.414-.516c-.128.76-.515 1.735-1.133 2.537-.756.981-1.795 1.683-3.03 1.533-.919-.112-1.968-.431-2.857-1.189-.807-.689-1.491-1.749-1.828-3.389z" style="white-space:normal;isolation:auto;mix-blend-mode:normal;solid-color:#000;solid-opacity:1" id="path1213" color="#000" display="inline" visibility="visible" opacity="1" color-interpolation="sRGB" color-interpolation-filters="linearRGB" fill="#333" fill-rule="evenodd" color-rendering="auto" image-rendering="auto" shape-rendering="auto"/></g></svg>