<svg xmlns="http://www.w3.org/2000/svg" xmlns:xlink="http://www.w3.org/1999/xlink" width="48" height="48" version="1.1" id="svg38"><defs id="defs22"><linearGradient id="linearGradient4488"><stop id="stop4490" offset="0" stop-color="#000" stop-opacity=".047"/><stop id="stop4492" offset="1" stop-color="#000" stop-opacity="0"/></linearGradient><style id="style4511"/><style id="style4511-26"/><style id="style4511-9"/><linearGradient gradientUnits="userSpaceOnUse" x2="37.922" y2="39.34" x1="8.84" y1="9.386" id="c-06"><stop id="stop8-2" stop-color="#faf8f8"/><stop id="stop10-61" stop-color="#bfd2d2" offset="1"/></linearGradient><style id="style4552"/><linearGradient gradientTransform="translate(61.546 14.229) scale(.65656)" gradientUnits="userSpaceOnUse" x2="24.839" y2="17.991" x1="27.04" y1="16.621" id="d-6"><stop id="stop4583-7" stop-color="#fcfcfc"/><stop id="stop4585-5" stop-color="#c7c7c7" offset="1"/></linearGradient><linearGradient id="e-1" y1="41.22" x1="24.392" y2="25.343" x2="20.643" gradientUnits="userSpaceOnUse"><stop stop-color="#334545" id="stop22-8"/><stop offset="1" stop-color="#536161" id="stop24-7"/></linearGradient><style id="style4511-2"/><linearGradient gradientTransform="matrix(.3082 0 0 .3038 -64.056 2.216)" xlink:href="#linearGradient4488" id="linearGradient4160" x1="288.112" y1="141.785" x2="287.575" y2="79.008" gradientUnits="userSpaceOnUse"/><style id="style4511-8"/><style id="style4511-26-4"/><style id="style4511-9-8"/><linearGradient gradientUnits="userSpaceOnUse" x2="4" x1="44" id="c-0-7"><stop id="stop12-06-1" stop-color="#42a603"/><stop id="stop14-26-1" stop-color="#78da06" offset="1"/></linearGradient><style id="style4552-5"/><style id="style4511-2-5"/><radialGradient gradientUnits="userSpaceOnUse" id="radialGradient1266" xlink:href="#c-06" cx=".5" cy=".5" fx=".5" fy=".5" r=".5"/><linearGradient gradientTransform="matrix(.89196 0 0 .8719 2.94 3.945)" gradientUnits="userSpaceOnUse" y2="23.695" x2="37.895" y1="23.695" x1="10.613" id="linearGradient1369" xlink:href="#d-6"/><linearGradient gradientTransform="matrix(.89196 0 0 .8719 2.94 3.945)" gradientUnits="userSpaceOnUse" y2="23.625" x2="38.659" y1="23.625" x1="10.079" id="linearGradient1377" xlink:href="#c-0-7"/><radialGradient xlink:href="#c-06" id="radialGradient5355" gradientUnits="userSpaceOnUse" cx=".5" cy=".5" fx=".5" fy=".5" r=".5"/><radialGradient xlink:href="#c-06" id="radialGradient5357" gradientUnits="userSpaceOnUse" cx=".5" cy=".5" fx=".5" fy=".5" r=".5"/><radialGradient xlink:href="#c-06" id="radialGradient5359" gradientUnits="userSpaceOnUse" cx=".5" cy=".5" fx=".5" fy=".5" r=".5"/><linearGradient xlink:href="#e-1" id="linearGradient5367" x1="1.96" y1="24.317" x2="46.037" y2="24.317" gradientUnits="userSpaceOnUse"/></defs><style id="style4485" type="text/css"/><path d="M2.535 26.443v1.668c0 9.575 5.664 17.282 17.394 17.282h7.031c15.352 0 18.095-11.322 18.095-17.282v-1.668c0 5.96-2.743 17.282-18.095 17.282h-7.03c-11.73 0-17.395-7.708-17.395-17.282z" id="path4147" opacity="1" fill="url(#linearGradient4160)" fill-opacity="1" stroke="none" stroke-width="1.108" stroke-linecap="square" stroke-linejoin="bevel" stroke-miterlimit="4" stroke-dasharray="none" stroke-dashoffset="0" stroke-opacity=".078"/><path d="M19.467 2.766h8.863c14.511 0 17.534 11.629 17.534 17.868V28c0 6.162-2.822 17.868-18.61 17.868h-7.231c-12.064 0-17.89-7.97-17.89-17.868v-7.365c0-9.899 5.708-17.868 17.334-17.868z" id="rect4144" opacity="1" fill="url(#linearGradient5367)" fill-opacity="1" stroke="#000" stroke-width=".347" stroke-linecap="square" stroke-linejoin="bevel" stroke-miterlimit="4" stroke-dasharray="none" stroke-dashoffset="0" stroke-opacity=".078"/><style type="text/css" id="style4485-8"/><path id="path914-6" d="M17.909 40.482L35.75 16.567l.99-1.36c-3.838.68-12.412 1.978-12.44 2.03.897-1.55 4.756-8.51 4.922-8.51H18.22l-1.117 3.284-4.696 11.9 12.406-2.085z" fill="url(#linearGradient1377)" fill-opacity="1" stroke="url(#linearGradient1369)" stroke-width="1.525" stroke-linecap="round" stroke-linejoin="round" stroke-miterlimit="4" stroke-dasharray="none"/></svg>