<svg xmlns="http://www.w3.org/2000/svg" xmlns:xlink="http://www.w3.org/1999/xlink" width="48" height="48" version="1.1" id="svg38"><defs id="defs22"><linearGradient id="linearGradient4488"><stop id="stop4490" offset="0" stop-color="#000" stop-opacity=".047"/><stop id="stop4492" offset="1" stop-color="#000" stop-opacity="0"/></linearGradient><style id="style4511"/><style id="style4511-26"/><style id="style4511-9"/><style id="style4552"/><style id="style4511-2"/><linearGradient gradientTransform="translate(-63.205 2.216) scale(.3038)" xlink:href="#linearGradient4488" id="linearGradient4160" x1="288.112" y1="141.785" x2="287.575" y2="79.008" gradientUnits="userSpaceOnUse"/></defs><style id="style4485" type="text/css"/><path d="M2.433 26.443v1.668c0 9.575 5.583 17.282 17.146 17.282h6.93c15.133 0 17.837-11.322 17.837-17.282v-1.668c0 5.96-2.704 17.282-17.837 17.282h-6.93c-11.563 0-17.146-7.708-17.146-17.282z" id="path4147" opacity="1" fill="url(#linearGradient4160)" fill-opacity="1" stroke="none" stroke-width="1.1" stroke-linecap="square" stroke-linejoin="bevel" stroke-miterlimit="4" stroke-dasharray="none" stroke-dashoffset="0" stroke-opacity=".078"/><path d="M19.046 2.965h8.495c13.908 0 16.805 11.246 16.805 17.282v7.123c0 5.96-2.704 17.282-17.837 17.282h-6.93c-11.562 0-17.146-7.708-17.146-17.282v-7.123c0-9.575 5.47-17.282 16.613-17.282z" id="rect4144" opacity="1" fill="#ccc" fill-opacity="1" stroke="#000" stroke-width=".334" stroke-linecap="square" stroke-linejoin="bevel" stroke-miterlimit="4" stroke-dasharray="none" stroke-dashoffset="0" stroke-opacity=".078"/><g id="g1283" transform="matrix(.7271 0 0 .72327 45.519 8.904)"><path id="path1161" d="M-12.634 38.815v-22.11l-2.933-2.816c-.719-.691-5.171-4.457-6.152-4.638l-8.643-6.13-9.755 6.413c-.833.548-5.078 3.924-5.773 4.639l-2.744 2.816v21.826c0 .997.803 1.8 1.8 1.8h32.4c.997 0 1.8-.803 1.8-1.8z" fill="#e4e4e4"/><path id="rect1163" opacity=".15" d="M-48.634 16.615h36v2h-36z"/><rect id="rect1165" ry="1.093" rx="1.069" y="2.615" x="-45.634" height="10" width="6" fill="#4f4f4f"/><rect id="rect1167" ry="1.5" rx="1.5" y="21.615" x="-44.634" height="16" width="10" fill="#956a42"/><path id="path1169" d="M-26.134 21.615a2.517 2.517 0 0 0-2.5 2.5v7c0 1.367 1.132 2.5 2.5 2.5h7c1.368 0 2.5-1.133 2.5-2.5v-7c0-1.368-1.132-2.5-2.5-2.5z" fill="#956a42"/><path id="path1171" d="M-26.134 24.615c-.294 0-.5.205-.5.5v7c0 .294.206.5.5.5h7c.294 0 .5-.206.5-.5v-7c0-.295-.206-.5-.5-.5z" opacity=".2"/><path id="path1173" d="M-26.134 23.615c-.294 0-.5.205-.5.5v7c0 .294.206.5.5.5h7c.294 0 .5-.206.5-.5v-7c0-.295-.206-.5-.5-.5z" fill="#c2eeff"/><circle id="circle1175" r="1" cy="30.615" cx="-36.634" opacity=".2"/><circle id="circle1177" r="1" cy="29.615" cx="-36.634" fill="#fff"/><path id="path1179" d="M-44.634 13.68c-.584.485-1.064.896-1.256 1.093l-2.744 2.816v-.974h4z" opacity=".05"/><path id="path1181" d="M-40.634 10.517c-.925.682-2.7 2.081-4 3.162v2.936h4z" opacity=".15"/><path id="path1183" d="M-36.634 7.845l-3.482 2.29c-.094.06-.349.258-.518.382v6.098h4z" opacity=".05"/><path id="path1185" d="M-32.634 5.214l-4 2.631v8.77h4z" opacity=".15"/><path id="path1187" d="M-30.362 3.72l-2.272 1.494v11.4h4V4.948z" opacity=".05"/><path id="path1189" d="M-28.634 4.947v11.668h4V7.783z" opacity=".15"/><path id="path1191" d="M-24.634 7.783v8.832h4v-6.182c-.471-.313-.87-.542-1.084-.582z" opacity=".05"/><path id="path1193" d="M-20.634 10.433v6.182h4V13.55c-1.134-.966-2.826-2.338-4-3.117z" opacity=".15"/><path id="path1195" d="M-16.634 13.55v3.065h4v.691l-2.934-2.818c-.17-.164-.573-.518-1.066-.938z" opacity=".05"/><path id="path1197" d="M-30.634 2.615l-18 14" fill="none" stroke="#5d5d5d" stroke-width="4" stroke-linecap="round" stroke-linejoin="round"/><path id="path1199" d="M-30.61 2.615l17.976 14" fill="none" stroke="#5d5d5d" stroke-width="4" stroke-linecap="round" stroke-linejoin="round"/><path id="path1201" d="M-30.68.597a2 2 0 0 0-.141.012 2 2 0 0 0-1.204.555l-17.837 13.873a2 2 0 0 0-.733 2.1 2 2 0 0 1 .733-1.1l17.837-13.873a2 2 0 0 1 1.204-.555 2 2 0 0 1 .14-.012 2 2 0 0 1 .04.002 2 2 0 0 1 .019-.002 2 2 0 0 1 .088.004 2 2 0 0 1 .066.004 2 2 0 0 1 1.25.56l17.813 13.872a2 2 0 0 1 .734 1.097 2 2 0 0 0-.734-2.097L-29.218 1.166a2 2 0 0 0-1.25-.561 2 2 0 0 0-.066-.004 2 2 0 0 0-.088-.004 2 2 0 0 0-.02.002 2 2 0 0 0-.039-.002z" opacity=".1" fill="#fff" fill-rule="evenodd"/><path id="path1203" d="M-44.566 2.615c-.592 0-1.068.488-1.068 1.094v1c0-.606.476-1.094 1.068-1.094h3.864c.592 0 1.068.488 1.068 1.094v-1c0-.606-.476-1.094-1.068-1.094z" opacity=".1" fill="#fff"/></g></svg>