<svg xmlns="http://www.w3.org/2000/svg" xmlns:xlink="http://www.w3.org/1999/xlink" width="48" height="48" version="1.1" id="svg38"><defs id="defs22"><style id="style4511"/><style id="style4511-26"/><style id="style4511-9"/><style id="style4552"/><style id="style4511-2"/><linearGradient gradientTransform="rotate(-90 -8.76 51.208)" gradientUnits="userSpaceOnUse" x2="47" x1="1" id="linearGradient3764"><stop id="stop336" stop-opacity="1" stop-color="#e4e4e4"/><stop id="stop338" stop-opacity="1" stop-color="#eee" offset="1"/></linearGradient><linearGradient xlink:href="#linearGradient3764" id="linearGradient1274" x1="2.974" y1="23.586" x2="45.221" y2="23.586" gradientUnits="userSpaceOnUse"/></defs><style id="style4485" type="text/css"/><path d="M19.754 2.742h8.495c13.908 0 16.805 11.247 16.805 17.282v7.124c0 5.96-2.704 17.282-17.837 17.282h-6.93c-11.562 0-17.146-7.708-17.146-17.282v-7.124c0-9.574 5.47-17.282 16.613-17.282z" id="path4530" opacity="1" fill="url(#linearGradient1274)" fill-opacity="1" stroke="#000" stroke-width=".334" stroke-linecap="square" stroke-linejoin="bevel" stroke-miterlimit="4" stroke-dasharray="none" stroke-dashoffset="0" stroke-opacity=".078"/><g id="g1218" transform="matrix(.93032 0 0 .85633 16.436 5.407)"><circle id="circle1171" r="16" cy="18.788" cx="8.415" fill="#18b2d6"/><rect id="rect1173" ry="2.842" rx="2.842" y="19.788" x="-7.585" height="18" width="18" fill="#18b2d6"/><rect id="rect1175" ry="2.842" rx="2.842" y="24.788" x=".415" height="18" width="18" fill="#18b2d6"/><path id="path1177" d="M-3.39 16.606a2 2 0 0 0-1.624.999l-2.652 4.591-2.65 4.592a2 2 0 0 0 1.732 3H2.019a2 2 0 0 0 1.733-3l-2.65-4.592-2.653-4.591a2 2 0 0 0-1.639-.999 2 2 0 0 0-.2 0z" fill="#18b2d6"/><path id="path1179" d="M9.138 7.835c-.319-.01-.641-.008-.963.004-1.825.066-3.67.48-5.29 1.205a12 12 0 0 0-4.218 3.662c-1.17 1.853-1.628 4.037-.902 5.426.857 1.64 2.783 2.637 4.605 2.637.943 0 1.017.05 1.017.729 0 1.484 1.79 2.33 4.501 2.33 1.447 0 1.69.063 1.56.403-.198.518.629 2.427 1.52 3.257.382.355.851 1.024 1.045 1.486.378.901.749 1.012 1.787.54.793-.362.821-.714.143-1.827-.284-.465-.517-.713-.518-.796 0-.084-.197-.144.904-.133 3.197.032 4.213-1.39 4.215-3.999 0-.423.217-.73.508-.983.988-.479 1.315-.995 1.363-1.987-.005-5.146-3.29-9.816-8.166-11.46-.113-.033-.222-.072-.338-.103-.88-.231-1.816-.36-2.773-.391z" opacity=".2"/><path id="path1181" d="M9.138 6.835a14.73 14.73 0 0 0-.963.003c-1.825.066-3.67.48-5.29 1.206a12 12 0 0 0-4.218 3.662c-1.17 1.852-1.628 4.036-.902 5.426.857 1.64 2.783 2.637 4.605 2.637.943 0 1.017.05 1.017.728 0 1.485 1.79 2.331 4.501 2.331 1.447 0 1.69.063 1.56.402-.198.519.629 2.427 1.52 3.257.382.356.851 1.025 1.045 1.487.378.9.749 1.012 1.787.539.793-.362.821-.714.143-1.826-.284-.466-.517-.713-.518-.796 0-.084-.197-.144.904-.133 3.197.031 4.213-1.391 4.215-4 0-.422.217-.73.508-.982.988-.479 1.315-.995 1.363-1.988-.005-5.146-3.29-9.815-8.166-11.46-.113-.033-.222-.072-.338-.103-.88-.23-1.816-.36-2.773-.39z" fill="#fff"/><path id="path1183" d="M8.415 2.788a16 16 0 0 0-16 16 16 16 0 0 0 .022.42A16 16 0 0 1 8.415 3.788a16 16 0 0 1 15.977 15.514 16 16 0 0 0 .023-.514 16 16 0 0 0-16-16zM-7.448 21.8l-.014.04-.205.356-2.65 4.592a2 2 0 0 0-.203 1.498 2 2 0 0 1 .203-.498l2.65-4.592.205-.355c.033-.113.064-.227.11-.334a16 16 0 0 1-.096-.707z" opacity=".2" fill="#fff"/></g></svg>