<svg xmlns="http://www.w3.org/2000/svg" width="48" height="48" version="1.1" id="svg38"><defs id="defs22"><style id="style4511"/><style id="style4511-26"/><style id="style4511-9"/><style id="style4552"/><style id="style4511-2"/><clipPath id="clipPath-886807824"/><clipPath id="clipPath-897244418"/></defs><style id="style4485" type="text/css"/><path d="M19.765 2.965h8.496c13.907 0 16.804 11.246 16.804 17.282v7.123c0 5.96-2.704 17.282-17.837 17.282h-6.93c-11.562 0-17.146-7.766-17.146-17.282v-7.123c0-9.575 5.47-17.282 16.613-17.282z" id="rect4144" opacity="1" fill="#e6e6e6" fill-opacity="1" stroke="#000" stroke-width=".334" stroke-linecap="square" stroke-linejoin="bevel" stroke-miterlimit="4" stroke-dasharray="none" stroke-dashoffset="0" stroke-opacity=".078"/><g id="g803" transform="matrix(1.14583 0 0 1.17188 61.242 -5.236)" fill-opacity="1" stroke="none"><path id="rect749" opacity="1" fill="#ea4c4c" d="M-28.407 20.784h8v8h-8z"/><path id="rect751" opacity="1" fill="#ea4c4c" d="M-44.407 20.784h8v8h-8z"/><path id="rect753" opacity="1" fill="#ea4c4c" d="M-36.407 12.784h8v8h-8z"/><path id="rect755" opacity="1" fill="#ea4c4c" d="M-36.407 28.784h8v8h-8z"/><path id="path757" d="M-33.407 22.784l-1 1v2l1 1h2l1-1v-2l-1-1z" opacity="1" fill="#3eb243"/></g></svg>