<svg xmlns="http://www.w3.org/2000/svg" xmlns:xlink="http://www.w3.org/1999/xlink" width="48" height="48" version="1.1" id="svg38"><defs id="defs22"><linearGradient id="linearGradient4154"><stop offset="0" id="stop2" stop-color="#000" stop-opacity="1"/><stop offset="1" id="stop4" stop-color="#000" stop-opacity="0"/></linearGradient><style id="style4511"/><style id="style4511-26"/><style id="style4511-9"/><style id="style4552"/><linearGradient id="b-5" y1="532.8" y2="506.8" x2="0" gradientUnits="userSpaceOnUse"><stop stop-color="#989a9b" id="stop7-629"/><stop offset="1" stop-color="#f6f6f7" id="stop9-12"/></linearGradient><linearGradient id="c-70" y1="542.8" y2="533.8" gradientUnits="userSpaceOnUse" x2="0" gradientTransform="translate(0 -28)"><stop stop-color="#bcb4a1" id="stop12-9"/><stop offset="1" stop-color="#c5bfad" id="stop14-360"/></linearGradient><style id="style4511-2"/><linearGradient xlink:href="#b-5" id="linearGradient1213" x1="12.355" y1="20.383" x2="28.814" y2="20.383" gradientUnits="userSpaceOnUse"/><linearGradient xlink:href="#c-70" id="linearGradient1221" x1="11.971" y1="20.482" x2="29.399" y2="20.482" gradientUnits="userSpaceOnUse"/><linearGradient id="linearGradient876"><stop id="stop872" offset="0" stop-color="#772853" stop-opacity="1"/><stop id="stop874" offset="1" stop-color="#a1316f" stop-opacity="1"/></linearGradient><linearGradient x1="76.523" y1="-9.023" x2="76.523" y2="3.451" id="linearGradient3149" xlink:href="#linearGradient4154" gradientUnits="userSpaceOnUse" gradientTransform="matrix(.4157 0 0 -.4162 6.159 263.847)"/><linearGradient xlink:href="#linearGradient876" id="linearGradient1589" x1="2.654" y1="24.405" x2="45.511" y2="24.405" gradientUnits="userSpaceOnUse"/></defs><style id="style4485" type="text/css"/><path d="M19.677 3.253h8.618c14.108 0 17.047 11.413 17.047 17.537v7.229c0 6.047-2.744 17.537-18.094 17.537h-7.03c-11.73 0-17.394-7.822-17.394-17.537V20.79c0-9.715 5.549-17.537 16.853-17.537z" id="rect4144" opacity="1" fill="url(#linearGradient1589)" fill-opacity="1" stroke="#000" stroke-width=".339" stroke-linecap="square" stroke-linejoin="bevel" stroke-miterlimit="4" stroke-dasharray="none" stroke-dashoffset="0" stroke-opacity=".078"/><g id="g1227" transform="matrix(.99994 0 0 1.01475 -.549 -.273)" fill-opacity="1" fill-rule="nonzero" stroke="none" stroke-width=".973"><path d="M20.497 12.066c4.547-.049 8.269 3.635 8.317 8.23.048 4.597-3.595 8.36-8.142 8.405-4.544.053-8.269-3.631-8.317-8.23-.048-4.593 3.599-8.356 8.142-8.405m0 0" id="path84" fill="url(#linearGradient1213)"/><path d="M27.387 25.673l-1.44 1.488 4.827 4.776 1.44-1.487" id="path86" fill="#d29537"/><path d="M11.971 20.59a8.803 8.803 0 0 0 2.622 6.188 8.655 8.655 0 0 0 12.324-.133c3.36-3.469 3.301-9.062-.131-12.461a8.662 8.662 0 0 0-12.324.132 8.89 8.89 0 0 0-2.491 6.273m1.433-.015a7.361 7.361 0 0 1 2.074-5.222 7.202 7.202 0 0 1 10.282-.11 7.401 7.401 0 0 1 .11 10.402 7.202 7.202 0 0 1-10.282.11 7.356 7.356 0 0 1-2.184-5.179m0 0" id="path88" fill="url(#linearGradient1221)"/><path d="M32.468 30.065l-2.055 2.12 4.828 4.778 2.055-2.122" id="path90" fill="#222b30"/></g><g id="g964" transform="matrix(.5031 0 0 .5198 3.66 -115.854)" fill="#666" visibility="visible" stroke-miterlimit="4" stroke-dasharray="none" stroke-opacity="1"><path id="path4690-5" d="M30.907 250.058c-.334 0-.613 1.29-.776 3.135a10.212 10.212 0 0 0-2.468 1.037c-1.425-1.195-2.539-1.916-2.776-1.68l-2.627 2.628c-.237.237.484 1.35 1.679 2.776a10.212 10.212 0 0 0-1.028 2.468c-1.85.163-3.144.441-3.144.776v3.714c0 .334 1.29.612 3.135.776a10.212 10.212 0 0 0 1.033 2.473c-1.192 1.423-1.912 2.534-1.675 2.77l2.627 2.628c.237.236 1.346-.482 2.767-1.672a10.212 10.212 0 0 0 2.477 1.02c.163 1.85.441 3.145.776 3.145h3.713c.335 0 .613-1.29.776-3.135a10.212 10.212 0 0 0 2.468-1.037c1.426 1.194 2.54 1.916 2.776 1.679l2.628-2.628c.237-.237-.485-1.35-1.68-2.776a10.212 10.212 0 0 0 1.029-2.467c1.85-.164 3.144-.442 3.144-.776v-3.714c0-.334-1.29-.613-3.135-.776a10.212 10.212 0 0 0-1.034-2.473c1.192-1.423 1.912-2.534 1.676-2.77l-2.628-2.628c-.236-.236-1.346.482-2.767 1.672a10.212 10.212 0 0 0-2.477-1.021c-.163-1.85-.44-3.144-.776-3.144zm1.857 8.355a4.642 4.642 0 0 1 4.641 4.642 4.642 4.642 0 0 1-4.641 4.642 4.642 4.642 0 0 1-4.642-4.642 4.642 4.642 0 0 1 4.642-4.642z" style="isolation:auto;mix-blend-mode:normal;solid-color:#000;solid-opacity:1;marker:none" color="#000" clip-rule="nonzero" display="inline" overflow="visible" opacity=".1" color-interpolation="sRGB" color-interpolation-filters="linearRGB" fill-opacity="1" fill-rule="nonzero" stroke="none" stroke-width=".789" stroke-linecap="butt" stroke-linejoin="miter" stroke-dashoffset="0" color-rendering="auto" image-rendering="auto" shape-rendering="auto" text-rendering="auto"/><path id="path4690" d="M30.907 249.594c-.334 0-.613 1.29-.776 3.135a10.212 10.212 0 0 0-2.468 1.037c-1.425-1.195-2.539-1.916-2.776-1.68l-2.627 2.628c-.237.237.484 1.35 1.679 2.776a10.212 10.212 0 0 0-1.028 2.468c-1.85.163-3.144.441-3.144.776v3.713c0 .335 1.29.613 3.135.776a10.212 10.212 0 0 0 1.033 2.474c-1.192 1.423-1.912 2.534-1.675 2.77l2.627 2.628c.237.236 1.346-.482 2.767-1.672a10.212 10.212 0 0 0 2.477 1.02c.163 1.85.441 3.145.776 3.145h3.713c.335 0 .613-1.29.776-3.135a10.212 10.212 0 0 0 2.468-1.037c1.426 1.194 2.54 1.915 2.776 1.679l2.628-2.628c.237-.237-.485-1.35-1.68-2.776a10.212 10.212 0 0 0 1.029-2.468c1.85-.163 3.144-.44 3.144-.776v-3.713c0-.334-1.29-.613-3.135-.776a10.212 10.212 0 0 0-1.034-2.473c1.192-1.423 1.912-2.534 1.676-2.77l-2.628-2.628c-.236-.237-1.346.482-2.767 1.672a10.212 10.212 0 0 0-2.477-1.021c-.163-1.85-.44-3.144-.776-3.144zm1.857 8.355a4.642 4.642 0 0 1 4.641 4.642 4.642 4.642 0 0 1-4.641 4.641 4.642 4.642 0 0 1-4.642-4.641 4.642 4.642 0 0 1 4.642-4.642z" style="isolation:auto;mix-blend-mode:normal;solid-color:#000;solid-opacity:1;marker:none" color="#000" clip-rule="nonzero" display="inline" overflow="visible" opacity="1" color-interpolation="sRGB" color-interpolation-filters="linearRGB" fill-opacity="1" fill-rule="nonzero" stroke="none" stroke-width=".464" stroke-linecap="butt" stroke-linejoin="miter" stroke-dashoffset="0" color-rendering="auto" image-rendering="auto" shape-rendering="auto" text-rendering="auto"/><path style="isolation:auto;mix-blend-mode:normal;solid-color:#000;solid-opacity:1;marker:none" d="M30.945 249.826a.445.445 0 0 0-.064.098c-.061.12-.13.327-.194.593-.127.534-.238 1.311-.32 2.227a.24.24 0 0 1-.175.21 9.99 9.99 0 0 0-2.411 1.014.24.24 0 0 1-.274-.024c-.708-.593-1.338-1.067-1.807-1.357a2.99 2.99 0 0 0-.559-.285.438.438 0 0 0-.116-.025l-2.574 2.575a.43.43 0 0 0 .025.116c.042.128.14.325.284.56.29.468.764 1.098 1.357 1.806a.24.24 0 0 1 .024.273 9.994 9.994 0 0 0-1.005 2.411.24.24 0 0 1-.21.176c-.918.081-1.698.192-2.233.32a2.966 2.966 0 0 0-.595.193.447.447 0 0 0-.1.064v3.638a.456.456 0 0 0 .1.065c.12.06.326.13.592.194.534.127 1.311.238 2.227.319a.24.24 0 0 1 .21.176 9.99 9.99 0 0 0 1.01 2.416.24.24 0 0 1-.023.274c-.592.706-1.065 1.335-1.354 1.803-.144.234-.242.43-.284.558a.435.435 0 0 0-.025.115l2.574 2.575a.428.428 0 0 0 .115-.025c.128-.042.324-.14.558-.284.467-.288 1.095-.76 1.8-1.351a.239.239 0 0 1 .273-.024 9.992 9.992 0 0 0 2.42.998.24.24 0 0 1 .177.21c.08.918.192 1.698.319 2.233.063.267.132.474.193.595a.448.448 0 0 0 .064.1h3.638a.438.438 0 0 0 .065-.1c.06-.12.13-.326.194-.592.127-.534.238-1.311.319-2.227a.24.24 0 0 1 .176-.21 9.99 9.99 0 0 0 2.41-1.014.24.24 0 0 1 .274.024c.708.593 1.338 1.067 1.807 1.357.234.145.431.243.56.285.058.02.096.024.115.025l2.574-2.575a.441.441 0 0 0-.024-.116 2.98 2.98 0 0 0-.285-.56c-.29-.468-.764-1.098-1.357-1.806a.24.24 0 0 1-.024-.273 9.994 9.994 0 0 0 1.005-2.411.24.24 0 0 1 .21-.176c.919-.081 1.698-.192 2.233-.32.268-.063.474-.132.595-.193a.447.447 0 0 0 .1-.064v-3.638a.456.456 0 0 0-.1-.065c-.12-.06-.325-.13-.592-.194-.533-.127-1.311-.238-2.227-.319a.24.24 0 0 1-.21-.176 9.99 9.99 0 0 0-1.01-2.416.24.24 0 0 1 .024-.273c.592-.707 1.064-1.336 1.353-1.804.145-.234.242-.43.285-.558a.435.435 0 0 0 .024-.115l-2.574-2.575a.434.434 0 0 0-.115.024 3.022 3.022 0 0 0-.557.285c-.467.288-1.095.76-1.8 1.35a.24.24 0 0 1-.274.025 9.991 9.991 0 0 0-2.42-.998.24.24 0 0 1-.176-.21c-.081-.918-.192-1.698-.32-2.233a2.974 2.974 0 0 0-.192-.595.443.443 0 0 0-.065-.1z" id="path4278" color="#000" clip-rule="nonzero" display="inline" overflow="visible" opacity=".05" color-interpolation="sRGB" color-interpolation-filters="linearRGB" fill-opacity="1" fill-rule="nonzero" stroke="#1b0000" stroke-width=".464" stroke-linecap="butt" stroke-linejoin="miter" stroke-dashoffset="0" color-rendering="auto" image-rendering="auto" shape-rendering="auto" text-rendering="auto"/><path style="marker:none" id="path4110" d="M32.763 267.462c2.871.092 5.33-2.776 4.802-5.604-.343-2.757-3.348-4.745-6.016-3.971-2.703.617-4.38 3.802-3.35 6.383.665 1.88 2.568 3.22 4.564 3.192z" display="inline" overflow="visible" opacity=".05" stroke="url(#linearGradient3149)" stroke-width=".464"/></g></svg>