<svg xmlns:osb="http://www.openswatchbook.org/uri/2009/osb" xmlns="http://www.w3.org/2000/svg" xmlns:xlink="http://www.w3.org/1999/xlink" width="48" height="48" version="1.1" id="svg38"><defs id="defs22"><linearGradient id="linearGradient4488"><stop id="stop4490" offset="0" stop-color="#000" stop-opacity=".047"/><stop id="stop4492" offset="1" stop-color="#000" stop-opacity="0"/></linearGradient><style id="style4511"/><style id="style4511-26"/><style id="style4511-9"/><style id="style4552"/><style id="style4511-2"/><linearGradient xlink:href="#linearGradient4488" id="linearGradient4540" gradientUnits="userSpaceOnUse" gradientTransform="matrix(.30902 0 0 .3038 -64.017 1.994)" x1="288.112" y1="141.785" x2="287.575" y2="79.008"/><linearGradient osb:paint="solid" id="linearGradient5293"><stop id="stop5295" offset="0" stop-color="#9a89c0" stop-opacity="1"/></linearGradient><linearGradient id="linearGradient908"><stop id="stop904" offset="0" stop-color="#eab305" stop-opacity="1"/><stop id="stop906" offset="1" stop-color="#ffda64" stop-opacity="1"/></linearGradient><linearGradient xlink:href="#linearGradient908" id="linearGradient1796" x1="2.581" y1="23.586" x2="45.552" y2="23.586" gradientUnits="userSpaceOnUse"/></defs><style id="style4485" type="text/css"/><g id="g1804" fill-opacity="1" stroke-miterlimit="4" stroke-dasharray="none"><path d="M2.75 26.22v1.67c0 9.573 5.68 17.281 17.44 17.281h7.05c15.392 0 18.143-11.322 18.143-17.282v-1.668c0 5.96-2.75 17.282-18.143 17.282h-7.05c-11.76 0-17.44-7.708-17.44-17.282z" id="path4516" opacity="1" fill="url(#linearGradient4540)" stroke="none" stroke-width="1.109" stroke-linecap="square" stroke-linejoin="bevel" stroke-dashoffset="0" stroke-opacity=".078"/><path d="M19.649 2.742h8.64c14.148 0 17.094 11.247 17.094 17.282v7.124c0 5.96-2.75 17.282-18.143 17.282h-7.05c-11.76 0-17.44-7.708-17.44-17.282v-7.124c0-9.574 5.564-17.282 16.899-17.282z" id="path4518" opacity="1" fill="url(#linearGradient1796)" stroke="#000" stroke-width=".337" stroke-linecap="square" stroke-linejoin="bevel" stroke-dashoffset="0" stroke-opacity=".078"/><g id="g1673" transform="matrix(.51077 0 0 .51977 -7.92 22.56)" fill="#d41a1a" stroke="none" stroke-width="22.614" stroke-linecap="round" stroke-linejoin="round" stroke-opacity=".2"><path id="path8884" d="M40.431-5.239c-2.189 0-8.393 9.878-8.878 13.5-.019.109-.03.224-.027.356a1.73 1.73 0 0 0 .027.352c.481 3.62 6.689 13.5 8.878 13.5 2.19 0 8.397-9.88 8.878-13.5.02-.107.03-.22.028-.352a1.747 1.747 0 0 0-.028-.356c-.484-3.622-6.689-13.5-8.878-13.5z" opacity="1"/><path d="M63.192 2.678c-2.189 0-8.394 9.878-8.878 13.5-.02.109-.03.223-.028.356-.002.132.008.245.028.352.481 3.62 6.688 13.5 8.878 13.5 2.19 0 8.397-9.88 8.878-13.5.02-.107.03-.22.028-.352a1.748 1.748 0 0 0-.028-.356c-.484-3.622-6.689-13.5-8.878-13.5z" id="path8911" opacity="1"/><path id="path8923" d="M85.952-5.239c-2.189 0-8.393 9.878-8.878 13.5-.019.109-.03.224-.027.356-.003.133.009.246.027.352.481 3.62 6.689 13.5 8.878 13.5 2.19 0 8.397-9.88 8.878-13.5.02-.107.03-.22.028-.352a1.747 1.747 0 0 0-.028-.356c-.484-3.622-6.689-13.5-8.878-13.5z" opacity="1"/></g></g></svg>