<svg xmlns="http://www.w3.org/2000/svg" xmlns:xlink="http://www.w3.org/1999/xlink" width="48" height="48" version="1.1" id="svg38"><defs id="defs22"><style id="style4511"/><style id="style4511-26"/><style id="style4511-9"/><linearGradient gradientUnits="userSpaceOnUse" x2="19.574" y2="22.495" x1="3.783" y1="23.644" id="g-5"><stop id="stop24-2" stop-color="#2980b9"/><stop id="stop26" stop-color="#3e8fde" offset="1" stop-opacity="1"/></linearGradient><style id="style4552"/><style id="style4511-2"/><clipPath id="clipPath-606771483"/><linearGradient xlink:href="#g-5" id="linearGradient1294" x1="2.654" y1="24.405" x2="45.511" y2="24.405" gradientUnits="userSpaceOnUse"/></defs><style id="style4485" type="text/css"/><path d="M19.677 3.253h8.618c14.108 0 17.047 11.413 17.047 17.537v7.229c0 6.047-2.744 17.537-18.094 17.537h-7.03c-11.73 0-17.394-7.822-17.394-17.537V20.79c0-9.715 5.549-17.537 16.853-17.537z" id="rect4144" opacity="1" fill="url(#linearGradient1294)" fill-opacity="1" stroke="#000" stroke-width=".339" stroke-linecap="square" stroke-linejoin="bevel" stroke-miterlimit="4" stroke-dasharray="none" stroke-dashoffset="0" stroke-opacity=".078"/><path id="path49" d="M35.274 17.596a2.804 3.365 0 0 0-2.609 2.089l-1.03 3.79V17.79h-5.026a3.226 3.872 0 0 0-2.319 1.16v-1.16h-5.154c-.959 0-1.84.517-2.448 1.315V17.79h-4.833c-2.093 0-3.83 2.03-3.833 4.717 0 1.252.451 2.373 1.095 3.21H8.022v5.494h4.896c1.373-.005 2.718-1.05 3.19-2.287l.031-.033c.548 1.367 1.675 2.32 2.996 2.32h5.154v-1.204c.604.735 1.41 1.204 2.32 1.204h14.399l-3.093-11.526a2.852 3.423 0 0 0-2.642-2.088m-.322.966c.112-.02.205 0 .322 0 .93 0 1.728.687 1.965 1.663l2.706 10.014h-5.219v-1.585h3.447l-2.222-8.158a.736.883 0 0 0-.677-.542c-.298 0-.536.256-.644.58l-2.674 9.705h-5.348c-1.43 0-2.577-1.436-2.577-3.21v-5.103c0-1.774 1.147-3.21 2.577-3.21h4.284v1.625h-4.284c-.712 0-1.288.697-1.288 1.585v5.103c0 .89.608 1.625 1.32 1.625h2.932v-4.369H27.22v-1.575h3.672v6.37l2.449-8.844a2.008 2.41 0 0 1 1.61-1.673m-23.129.155h4.123v1.628h-4.123c-.963 0-1.74.971-1.74 2.165 0 1.199.773 2.165 1.74 2.165h1.063c.797 0 1.45.831 1.45 1.818 0 .99-.653 1.782-1.45 1.782H8.762v-1.585h4.123a.17.204 0 0 0 .16-.193.17.204 0 0 0-.16-.193h-1.063c-1.683 0-3.06-1.696-3.06-3.789 0-2.092 1.377-3.793 3.06-3.793m7.313 0h4.413v1.628h-4.413c-.717 0-1.289.715-1.289 1.585v5.103c0 .9.572 1.625 1.289 1.625h4.38v1.584h-4.38c-1.434 0-2.577-1.435-2.577-3.209v-5.103c0-1.78 1.143-3.215 2.577-3.215m16.138 1.629c.186 0 .363.144.419.347l2.062 7.578h-3.029v-1.43l-.934 3.402h-1.514l2.609-9.55a.406.487 0 0 1 .386-.347m-23.45.387h4.122v1.585h-4.123a.164.197 0 0 0-.16.193c0 .106.076.193.16.193h1.063c1.687 0 3.06 1.696 3.06 3.79 0 2.088-1.373 3.789-3.06 3.789H8.76v-1.625h4.123c.967 0 1.772-.97 1.772-2.165 0-1.194-.805-2.165-1.772-2.165l-1.063-.038c-.797 0-1.45-.788-1.45-1.78 0-.985.653-1.782 1.45-1.782m7.313 0h4.413v1.585h-3.805c-.306 0-.286.39-.286.39h3.158v1.58h-4.446v-2.353c0-.676.414-1.203.967-1.203m7.473 0h4.284v1.585h-3.676c-.306.01-.285.39-.285.39v3.59c0 .209.125.392.285.392h.774v-.391h-.774v-1.625h2.062v3.596h-2.674c-.547 0-.967-.556-.967-1.238V21.93c0-.682.419-1.204.967-1.204m-8.44 3.948h4.446v1.625h-3.158a.304.365 0 0 0 .29.39h3.769v1.585h-4.38c-.544 0-.967-.56-.967-1.237m17.105-2.208l-.454 1.663h.902m-.452-1.663" fill="#fff" fill-opacity="1" fill-rule="nonzero" stroke="none" stroke-width="1.129"/><path id="path51" d="M38.977 20.008a.9 1.081 0 0 0 .644-.334.944 1.133 0 0 0 .266-.798.946 1.136 0 0 0-.266-.798.904 1.085 0 0 0-.644-.338.924 1.109 0 0 0-.91 1.126c0 .3.093.594.266.801.173.213.403.335.644.335m-.781-1.131a.814.977 0 0 1 .225-.687.773.928 0 0 1 1.112 0 .827.992 0 0 1 .23.687.797.956 0 0 1-.786.97.781.938 0 0 1-.556-.28.818.982 0 0 1-.23-.692m.005 0" fill="#3d70b3" fill-opacity="1" fill-rule="nonzero" stroke="none" stroke-width="1.129"/><path id="path53" d="M38.741 18.97v.532h-.133V18.25h.374c.141 0 .226 0 .302.073a.294.353 0 0 1 .109.29c0 .294-.194.333-.242.342l.286.545h-.161l-.274-.532h-.262m0-.14h.266c.044 0 .084 0 .125-.014.092-.025.124-.112.124-.198 0-.034 0-.121-.06-.18-.053-.053-.117-.053-.194-.053h-.262m0 .444" fill="#3d70b3" fill-opacity="1" fill-rule="nonzero" stroke="none" stroke-width="1.129"/></svg>