<svg xmlns:osb="http://www.openswatchbook.org/uri/2009/osb" xmlns="http://www.w3.org/2000/svg" xmlns:xlink="http://www.w3.org/1999/xlink" width="48" height="48" version="1.1" id="svg38"><defs id="defs22"><linearGradient id="linearGradient4488"><stop id="stop4490" offset="0" stop-color="#000" stop-opacity=".047"/><stop id="stop4492" offset="1" stop-color="#000" stop-opacity="0"/></linearGradient><style id="style4511"/><style id="style4511-26"/><style id="style4511-9"/><linearGradient gradientUnits="userSpaceOnUse" x2="19.574" y2="22.495" x1="3.783" y1="23.644" id="g-5"><stop id="stop24-2" stop-color="#2980b9"/><stop id="stop26" stop-color="#34495e" offset="1"/></linearGradient><style id="style4552"/><linearGradient id="d-0" y1="22.346" x1="29.855" y2="28.506" x2="54.32" gradientUnits="userSpaceOnUse"><stop stop-color="#ffc169" id="stop17-62"/><stop offset="1" stop-color="#ffa92d" id="stop19-6"/></linearGradient><style id="style4511-2"/><linearGradient xlink:href="#linearGradient4488" id="linearGradient4540" gradientUnits="userSpaceOnUse" gradientTransform="translate(-62.889 1.994) scale(.3038)" x1="288.112" y1="141.785" x2="287.575" y2="79.008"/><linearGradient osb:paint="solid" id="linearGradient5293"><stop id="stop5295" offset="0" stop-color="#9a89c0" stop-opacity="1"/></linearGradient><linearGradient xlink:href="#g-5" id="linearGradient1343" x1="-65.152" y1="26.79" x2="-23.152" y2="26.79" gradientUnits="userSpaceOnUse"/><linearGradient xlink:href="#d-0" id="linearGradient1351" x1="-47.152" y1="36.29" x2="-26.152" y2="36.29" gradientUnits="userSpaceOnUse"/><linearGradient xlink:href="#d-0" id="linearGradient1359" x1="-47.152" y1="14.501" x2="-41.151" y2="14.501" gradientUnits="userSpaceOnUse"/><linearGradient xlink:href="#d-0" id="linearGradient1367" x1="-47.152" y1="15.79" x2="-41.152" y2="15.79" gradientUnits="userSpaceOnUse"/></defs><style id="style4485" type="text/css"/><path id="path4516" d="M2.75 26.22v1.67c0 9.573 5.583 17.281 17.146 17.281h6.93c15.132 0 17.836-11.322 17.836-17.282v-1.668c0 5.96-2.704 17.282-17.836 17.282h-6.93C8.333 43.503 2.75 35.795 2.75 26.22z" opacity="1" fill="url(#linearGradient4540)" fill-opacity="1" stroke="none" stroke-width="1.1" stroke-linecap="square" stroke-linejoin="bevel" stroke-miterlimit="4" stroke-dasharray="none" stroke-dashoffset="0" stroke-opacity=".078"/><path id="path4518" d="M19.363 2.742h8.495c13.908 0 16.804 11.247 16.804 17.282v7.124c0 5.96-2.704 17.282-17.836 17.282h-6.93C8.333 44.43 2.75 36.722 2.75 27.148v-7.124c0-9.574 5.47-17.282 16.613-17.282z" opacity="1" fill="#e6e6e6" fill-opacity="1" stroke="#000" stroke-width=".334" stroke-linecap="square" stroke-linejoin="bevel" stroke-miterlimit="4" stroke-dasharray="none" stroke-dashoffset="0" stroke-opacity=".078"/><g id="g1384" transform="matrix(.78085 0 0 .76156 57.75 2.824)"><path id="path1253" d="M-46.8 7.79c-3.685-.007-7.736.681-11.662 1.813-1.118.323-2.834.896-2.917.976-.043.041.026.07.263.108.61.098 1.508.376 2.18.674 2.453 1.086 4.747 3.662 6.298 6.722.285.563.505 1.05.505 1.119 0 .02-.178.061-.47.109-2.965.483-5.777 2.348-8.354 5.146-1.08 1.173-2.224 2.716-3.12 4.208-.606 1.008-1.15 2.062-1.066 2.062.006 0 .293-.069.638-.153 3.684-.897 7.047-1.067 9.411-.476.997.25 1.844.418 2.442.863.256.19.519.432.519.477-1.174 1.162-2.46 2.429-3.281 3.65-1.959 3.722-2.776 6.862-2.738 10.702 1.516-1.163 3.911-3.137 5.746-3.81 2.163-.77 4.089-1.023 6.755-1.16.741-.04 3.5-.03 3.528.037 7.58-.056 11.063-3.006 14.363-6.654 2.289-2.256 3.484-5.461 4.245-8.51.239-.982.34-1.662.36-2.419.023-.897-.066-1.403-.35-1.978-.134-.274-.19-.355-.37-.534a1.74 1.74 0 0 0-.414-.316c-.218-.114-.57-.216-.743-.216-.1 0-.112-.01-.169-.125l-.06-.125.102-.219c.509-1.093.85-2.46 1-4.201.042-.48.07-1.294.047-1.41-.022-.12-.007-.116-.583-.175-1.372-.14-3.035-.106-4.783.101l-.509.06-.263-.232c-1.396-1.234-3.1-2.66-4.847-3.505a25.456 25.456 0 0 0-8.436-2.434A30.474 30.474 0 0 0-46.8 7.79z" fill="url(#linearGradient1343)" fill-opacity="1"/><path id="path1257" d="M-37.603 19.777a2.824 2.824 0 0 0-.516.013c-2.846.34-4.295 2.41-4.886 5.46-.232 2.004-.02 4.396.545 6.06.052.156.075.26.058.277-.016.016-.115.01-.26-.014-.088-.014-.31-.015-.49-.021v2.238h16l1.215-1.654.147-.881c.954-2.963.896-7.07.09-8.162a.694.694 0 0 0-.2-.176c-.512-.261-1.23.371-2.142 1.887-1.718 3.528-2.148 4.466-3.022 5.844-.212.23-.33.26-.533.13-.539-.341-.85-1.54-1.02-4.365-.055-.928-.108-.911-.21-1.422-.262-1.306-.729-2.347-1.452-3.24-.877-1.082-2.113-1.897-3.324-1.974z" fill="#fff"/><path id="path1259" d="M-28.144 25.013c-1.343 2.76-1.91 3.938-2.545 5.01a1.963 3.024 9.562 0 0 1.17.765 1.963 3.024 9.562 0 0 2.334-2.879 1.963 3.024 9.562 0 0-.959-2.896z" fill="#3f3f3f"/><path id="path1261" d="M-46.709 13.79l-.046.146c-.085.265-.236.918-.285 1.23a8.92 8.92 0 0 0-.112 1.527c0 1.036.103 1.728.394 2.644.117.368.155.453.2.453.015 0 .152-.101.304-.225 1.468-1.2 3.3-2.246 4.967-2.836.068-.024.129-.057.135-.073.017-.048-.478-.608-.804-.91a6.621 6.621 0 0 0-1.895-1.25 9.778 9.778 0 0 0-.782-.32 8.274 8.274 0 0 0-1.804-.367z" opacity=".2"/><path id="path1263" d="M-46.709 12.79l-.046.146c-.085.265-.236.918-.285 1.23a8.92 8.92 0 0 0-.112 1.527c0 1.036.103 1.728.394 2.644.117.368.155.453.2.453.015 0 .152-.101.304-.225 1.468-1.2 3.3-2.246 4.967-2.836.068-.024.129-.057.135-.073.017-.048-.478-.608-.804-.91a6.621 6.621 0 0 0-1.895-1.25 9.778 9.778 0 0 0-.782-.32 8.274 8.274 0 0 0-1.804-.367z" fill="url(#linearGradient1367)" fill-opacity="1"/><path id="path1265" d="M-26.283 33.392a1.838 1.838 0 0 0-1.157.463c-.197.182-.288.339-.292.501-.008.35.408.479 1.02.318.422-.111.827-.394.967-.675.176-.353.003-.58-.46-.605a1.254 1.254 0 0 0-.078-.002z" fill="#fcb9a4"/><path id="path1267" d="M-26.248 33.408c.464.003.659.237.49.587-.12.248-.545.545-.953.667-.18.054-.538.08-.659.048-.224-.06-.35-.189-.35-.359 0-.237.308-.565.707-.752.312-.146.503-.193.765-.191z" fill="#fcb9a4"/><path id="path1269" d="M-42.72 34.3c.4.002.591.127.904.593.512.762 1.042 1.27 1.735 1.66.55.31 1.18.495 1.797.526.205.01.41.038.53.073.168.049.217.08.369.23.148.149.183.205.233.366.033.105.06.239.06.297a1.3 1.3 0 0 1-.06.297c-.05.162-.086.218-.233.365-.147.148-.203.184-.365.233-.181.056-.49.073-.76.04-.663-.078-.901-.128-1.403-.291a6.323 6.323 0 0 1-2.529-1.564c-.498-.495-1.07-1.265-1.177-1.583a.941.941 0 0 1 .487-1.15.69.69 0 0 1 .412-.092z" fill="#fcb9a4"/><path id="path1271" d="M-42.313 40.678l.043.003c.134.013.297.024.41.03a10.13 10.13 0 0 1-.263-.02 6.757 6.757 0 0 0-.19-.013z" fill="#fcb9a4"/><path id="path1275" d="M-45.125 31.007c-1.073.404-1.748 1.205-1.965 2.335a5.723 5.723 0 0 0-.029 1.446c.307 2.032 1.704 3.972 3.757 5.261 1.026.692 1.65.878 2.796 1.262 1.128.323 2.326.478 3.66.48 1.309 0 2.341-.128 3.482-.432 2.523-.672 4.644-2.165 5.876-4.134.891-1.761 1.872-3.265 1.14-4.345-1.181-1.746-4.41-.374-5.66.159-1.13.482-1.54.616-2.13.699-1.333.185-2.055-.012-4.553-1.244-1.945-.93-4.297-2.22-6.374-1.487z" fill="url(#linearGradient1351)" fill-opacity="1"/><path id="path1277" d="M-25.103 26.943c-.043 1.418-.257 2.977-.687 4.312l-.147.88-.512.696c-1.21-1.663-4.383-.32-5.62.207-1.13.482-1.538.617-2.13.7a5.21 5.21 0 0 1-.857.052h-.106c-.868-.044-1.745-.387-3.59-1.297-1.17-.56-2.486-1.241-3.802-1.543-.31-1.053-.48-2.334-.518-3.611-.056 1.592.126 3.28.518 4.611 1.316.302 2.633.983 3.803 1.543 1.844.91 2.72 1.253 3.59 1.297h.105c.274.007.548-.01.857-.053.592-.082 1-.217 2.13-.699 1.237-.527 4.41-1.87 5.62-.207l.512-.695.147-.881c.535-1.66.742-3.666.687-5.312z" opacity=".1"/><path id="path1281" d="M-28.045 36.843c-.46-.141-.696-.32-.913-.694-.51-.877-.139-2.295.923-3.528.396-.46.765-.775 1.268-1.085 1.15-.707 2.3-.833 2.99-.326.264.195.395.384.505.73.09.28.096.33.082.67-.026.667-.224 1.224-.692 1.945-.576.885-1.473 1.67-2.334 2.042-.646.28-1.394.38-1.829.246z" fill="#4f4f4f"/><ellipse id="ellipse1283" transform="matrix(.99819 .06018 -.1215 .9926 0 0)" ry="3.02" rx="1.97" cy="30.093" cx="-34.559" fill="#3f3f3f"/><path id="path1285" d="M-43.152 34.79c1.39 2 3 3 6 3" opacity=".5" fill="none" stroke="#000" stroke-width="2" stroke-linecap="round"/><path id="path1287" d="M-46.708 12.79l-.047.147c-.085.264-.237.917-.285 1.228a8.926 8.926 0 0 0-.112 1.528c0 .186.009.351.016.52a8.74 8.74 0 0 1 .096-1.048c.048-.31.2-.964.285-1.228l.047-.147.271.02c.527.037 1.226.18 1.805.367.155.05.506.193.781.318a6.616 6.616 0 0 1 1.895 1.25c.055.051.118.124.18.186.162-.065.33-.145.49-.201.068-.024.128-.058.134-.075.017-.047-.479-.608-.804-.91a6.616 6.616 0 0 0-1.895-1.25 9.741 9.741 0 0 0-.781-.318 8.278 8.278 0 0 0-1.805-.367z" opacity=".1" fill="url(#linearGradient1359)" fill-opacity="1"/></g></svg>