<svg xmlns="http://www.w3.org/2000/svg" width="48" height="48" version="1.1" id="svg38"><defs id="defs22"><style id="style4511"/><style id="style4511-26"/><style id="style4511-9"/><style id="style4552"/><style id="style4511-2"/></defs><style id="style4485" type="text/css"/><path d="M19.677 3.253h8.618c14.108 0 17.047 11.413 17.047 17.537v7.229c0 6.047-2.744 17.537-18.094 17.537h-7.03c-11.73 0-17.394-7.822-17.394-17.537V20.79c0-9.715 5.549-17.537 16.853-17.537z" id="rect4144" opacity="1" fill="#e6e6e6" fill-opacity="1" stroke="#000" stroke-width=".339" stroke-linecap="square" stroke-linejoin="bevel" stroke-miterlimit="4" stroke-dasharray="none" stroke-dashoffset="0" stroke-opacity=".078"/><g id="g1312" transform="matrix(.78427 0 0 .7603 71.117 6.113)"><ellipse id="ellipse1197" transform="matrix(.84604 -.53312 .43955 .89822 0 0)" ry="14.82" rx="19.833" cy="-12.222" cx="-65.718" opacity=".2"/><path id="path1203" d="M-55.144 6.065a14.633 19.972 50.46 0 0-12.342 3.68 14.633 19.972 50.46 0 0-11.46 18.656 14.633 19.972 50.46 0 1 11.46-17.656 14.633 19.972 50.46 0 1 23.293 2.738 14.633 19.972 50.46 0 1 1.195 5.23 14.633 19.972 50.46 0 0-1.195-6.23 14.633 19.972 50.46 0 0-10.951-6.418z" opacity=".1" fill="#fff"/><rect id="rect1207" transform="matrix(0 -1 -1 0 0 0)" ry="6" rx="6" y="54.972" x="-15.058" height="12" width="12" fill="#3e3e3e"/><rect id="rect1209" transform="matrix(0 -1 -1 0 0 0)" ry="4" rx="4" y="56.972" x="-14.058" height="8" width="8" opacity=".2"/><rect id="rect1211" transform="matrix(0 -1 -1 0 0 0)" ry="4" rx="4" y="56.972" x="-13.058" height="8" width="8" fill="#f60" fill-opacity="1"/><rect id="rect1215" transform="matrix(0 -1 -1 0 0 0)" ry="6" rx="6" y="37.972" x="-25.058" height="12" width="12" fill="#3e3e3e"/><rect id="rect1217" transform="matrix(0 -1 -1 0 0 0)" ry="4" rx="4" y="39.972" x="-24.058" height="8" width="8" opacity=".2"/><rect id="rect1219" transform="matrix(0 -1 -1 0 0 0)" ry="4" rx="4" y="39.972" x="-23.058" height="8" width="8" fill="#f60"/><rect id="rect1223" transform="matrix(0 -1 -1 0 0 0)" ry="6" rx="6" y="46.972" x="-41.058" height="12" width="12" fill="#3e3e3e"/><rect id="rect1227" transform="matrix(0 -1 -1 0 0 0)" ry="4" rx="4" y="48.972" x="-39.058" height="8" width="8" fill="#f60"/><rect id="rect1229" transform="matrix(0 -1 -1 0 0 0)" ry="6" rx="6" y="64.972" x="-45.058" height="12" width="12" fill="#3e3e3e"/><rect id="rect1231" transform="matrix(0 -1 -1 0 0 0)" ry="4" rx="4" y="66.972" x="-44.058" height="8" width="8" opacity=".2"/><rect id="rect1233" transform="matrix(0 -1 -1 0 0 0)" ry="4" rx="4" y="66.972" x="-43.058" height="8" width="8" fill="#66f"/><rect id="rect1235" transform="matrix(0 -1 -1 0 0 0)" ry="6" rx="6" y="69.972" x="-27.058" height="12" width="12" fill="#3e3e3e"/><rect id="rect1239" transform="matrix(0 -1 -1 0 0 0)" ry="4" rx="4" y="71.972" x="-25.058" height="8" width="8" fill="#66f"/></g></svg>