<svg xmlns="http://www.w3.org/2000/svg" width="48" height="48" version="1.1" id="svg38"><defs id="defs22"><style id="style4511"/><style id="style4511-26"/><style id="style4511-9"/><style id="style4552"/><style id="style4511-2"/><clipPath id="clipPath-886807824"/><clipPath id="clipPath-897244418"/><clipPath id="clipPath-281645634"/></defs><style id="style4485" type="text/css"/><path d="M19.765 2.965h8.496c13.907 0 16.804 11.246 16.804 17.282v7.123c0 5.96-2.704 17.282-17.837 17.282h-6.93c-11.562 0-17.146-7.766-17.146-17.282v-7.123c0-9.575 5.47-17.282 16.613-17.282z" id="rect4144" opacity="1" fill="#cf0000" fill-opacity="1" stroke="#000" stroke-width=".334" stroke-linecap="square" stroke-linejoin="bevel" stroke-miterlimit="4" stroke-dasharray="none" stroke-dashoffset="0" stroke-opacity=".078"/><path id="path1716" stroke-miterlimit="4" d="M29.67 25.354s5.557-14.204-5.563-14.204c0 0 7.79 6.554-5.562 14.204" fill="none" stroke="#fff" stroke-width="1.101" stroke-linecap="butt" stroke-linejoin="miter" stroke-opacity="1"/><path id="path1718-9" d="M18.547 24.244c-3.686 0-6.675 2.937-6.675 6.556 0 3.62 2.99 6.556 6.675 6.556 1.907 0 3.615-.79 4.832-2.048a7.697 7.56 0 0 1-1.495-4.508c0-1.69.547-3.24 1.495-4.507a6.637 6.519 0 0 0-4.832-2.049m0 0" fill="#fff" fill-opacity="1" fill-rule="nonzero" stroke="none" stroke-width="1.103"/><path id="path1720" d="M24.109 11.132c1.756 7.423-3.447 6.15-8.9 11.37-2.22-5.463 3.269-15.203 8.9-11.37m0 0" fill="#fff" fill-opacity="1" fill-rule="nonzero" stroke="none" stroke-width="1.103"/><path id="path1722" d="M36.346 30.8c0 3.62-2.99 6.556-6.674 6.556-3.686 0-6.676-2.937-6.676-6.556 0-3.62 2.99-6.556 6.675-6.556 3.686 0 6.675 2.937 6.675 6.556m0 0" fill="#fff" fill-opacity="1" fill-rule="nonzero" stroke="none" stroke-width="1.103"/></svg>