<svg height="48" width="48" xmlns="http://www.w3.org/2000/svg" xmlns:xlink="http://www.w3.org/1999/xlink"><linearGradient id="a"><stop offset="0" stop-opacity=".047"/><stop offset="1" stop-opacity="0"/></linearGradient><linearGradient id="b" gradientUnits="userSpaceOnUse" x1="24.323426" x2="24.160285" xlink:href="#a" y1="45.290283" y2="26.21863"/><linearGradient id="c" gradientUnits="userSpaceOnUse" x1="81.929813" x2="94.807" xlink:href="#d" y1="28.592625" y2="17.911375"/><linearGradient id="d"><stop offset="0" stop-color="#94886c"/><stop offset="1" stop-color="#443d31"/></linearGradient><linearGradient id="e" gradientUnits="userSpaceOnUse" x1="75.359688" x2="88.014125" xlink:href="#d" y1="18.985344" y2="19.409969"/><linearGradient id="f" gradientUnits="userSpaceOnUse" x1="73.570031" x2="81.7965" xlink:href="#d" y1="31.323563" y2="32.989469"/><radialGradient id="g" cx="-8559.905" cy="588.941" gradientTransform="matrix(.05615 0 0 .05307 563.868 -6.955)" gradientUnits="userSpaceOnUse" r="97.424" xlink:href="#h"/><linearGradient id="h"><stop offset="0" stop-color="#fff"/><stop offset="1" stop-color="#e9e9e9" stop-opacity="0"/></linearGradient><radialGradient id="i" cx="-8762.575" cy="552.724" gradientTransform="matrix(.05947 0 0 .05995 598.005 -9.966)" gradientUnits="userSpaceOnUse" r="97.423" xlink:href="#h"/><linearGradient id="j" gradientUnits="userSpaceOnUse" x1="73.624031" x2="81.8505" xlink:href="#d" y1="31.287563" y2="32.953469"/><linearGradient id="k" gradientUnits="userSpaceOnUse" x1="-29.849" x2="-1.642" y1="33.017" y2="30.185"><stop offset="0" stop-color="#bc711d"/><stop offset="1" stop-color="#eb9d49"/></linearGradient><linearGradient id="l" gradientUnits="userSpaceOnUse" x1="5.954" x2="6.049" y1="27.937" y2="34.177"><stop offset="0" stop-color="#fbfbfb"/><stop offset="1" stop-color="#d9d9d9"/></linearGradient><linearGradient id="m" gradientUnits="userSpaceOnUse" x1="13.845" x2="33.204" y1="31.429" y2="31.515"><stop offset="0"/><stop offset="1" stop-color="#b9b9b9" stop-opacity=".992"/></linearGradient><linearGradient id="n" gradientUnits="userSpaceOnUse" x1="1.246" x2="-4.798" xlink:href="#a" y1="30.219" y2="30.155"/><linearGradient id="o" gradientUnits="userSpaceOnUse" x1="22.605" x2="22.75" y1="42.927" y2="7.131"><stop offset="0" stop-color="#d6d6d6"/><stop offset="1" stop-color="#efefef"/></linearGradient><filter id="p" color-interpolation-filters="sRGB" height="1.120325" width="1.119677" x="-.059838" y="-.060163"><feGaussianBlur stdDeviation="1.045"/></filter><path d="m19.046 2.965h8.495c13.908 0 16.805 11.246 16.805 17.282v7.123c0 5.96-2.704 17.282-17.837 17.282h-6.93c-11.562 0-17.146-7.708-17.146-17.282v-7.123c0-9.575 5.47-17.282 16.613-17.282z" style="stroke:#000;stroke-width:.334;stroke-linecap:square;stroke-linejoin:bevel;stroke-opacity:.078;fill-opacity:.313726;filter:url(#p)"/><path d="m2.433 26.443v1.668c0 9.575 5.583 17.282 17.146 17.282h6.93c15.133 0 17.837-11.322 17.837-17.282v-1.668c0 5.96-2.704 17.282-17.837 17.282h-6.93c-11.563 0-17.146-7.708-17.146-17.282z" fill="url(#b)"/><path d="m19.046 2.965h8.495c13.908 0 16.805 11.246 16.805 17.282v7.123c0 5.96-2.704 17.282-17.837 17.282h-6.93c-11.562 0-17.146-7.708-17.146-17.282v-7.123c0-9.575 5.47-17.282 16.613-17.282z" style="stroke-opacity:.078;stroke-linejoin:bevel;stroke-linecap:square;stroke-width:.334;stroke:#000;fill:url(#o)"/><g transform="translate(-61.127 -1.738)"><path d="m94.12 15.058a14.69 14.69 0 0 1 -.411.67 14.69 14.69 0 0 1 -.889 1.17 14.69 14.69 0 0 1 -1 1.074 14.69 14.69 0 0 1 -1.104.97 14.69 14.69 0 0 1 -1.194.853 14.69 14.69 0 0 1 -1.274.73 14.69 14.69 0 0 1 -.516.232 14.69 14.69 0 0 1 -.824.369 14.69 14.69 0 0 1 -1.278.424 3.045 3.045 0 0 1 .164.186 3.045 3.045 0 0 1 .177.248 3.045 3.045 0 0 1 .151.264 3.045 3.045 0 0 1 .125.278 3.045 3.045 0 0 1 .096.289 3.045 3.045 0 0 1 .066.296 3.045 3.045 0 0 1 .037.303 3.045 3.045 0 0 1 .008.215 3.045 3.045 0 0 1 -.003.061 3.045 3.045 0 0 1 -.012.243 3.045 3.045 0 0 1 -.046.301 3.045 3.045 0 0 1 -.075.295 3.045 3.045 0 0 1 -.105.286 3.045 3.045 0 0 1 -.132.274 3.045 3.045 0 0 1 -.16.26 3.045 3.045 0 0 1 -.183.242 3.045 3.045 0 0 1 -.208.222 3.045 3.045 0 0 1 -.228.201 3.045 3.045 0 0 1 -.248.177 3.045 3.045 0 0 1 -.264.152 3.045 3.045 0 0 1 -.278.124 3.045 3.045 0 0 1 -.289.096 3.045 3.045 0 0 1 -.297.067 3.045 3.045 0 0 1 -.302.036 3.045 3.045 0 0 1 -.215.008 3.045 3.045 0 0 1 -.304-.015 3.045 3.045 0 0 1 -.301-.046 3.045 3.045 0 0 1 -.295-.075 3.045 3.045 0 0 1 -.286-.104 3.045 3.045 0 0 1 -.274-.133 3.045 3.045 0 0 1 -.26-.159 3.045 3.045 0 0 1 -.242-.184 3.045 3.045 0 0 1 -.222-.208 3.045 3.045 0 0 1 -.201-.228 3.045 3.045 0 0 1 -.177-.248 3.045 3.045 0 0 1 -.152-.264 3.045 3.045 0 0 1 -.124-.278 3.045 3.045 0 0 1 -.096-.289 3.045 3.045 0 0 1 -.067-.296 3.045 3.045 0 0 1 -.036-.303 3.045 3.045 0 0 1 -.008-.215 3.045 3.045 0 0 1 .015-.304 3.045 3.045 0 0 1 .046-.301 3.045 3.045 0 0 1 .075-.295 3.045 3.045 0 0 1 .104-.286 3.045 3.045 0 0 1 .133-.274 3.045 3.045 0 0 1 .048-.079 14.69 14.69 0 0 1 -.015-.007 14.69 14.69 0 0 1 -.652-.032 14.69 14.69 0 0 1 -.435-.066 3.045 3.045 0 0 1 .035.079 3.045 3.045 0 0 1 .096.288 3.045 3.045 0 0 1 .067.297 3.045 3.045 0 0 1 .036.303 3.045 3.045 0 0 1 .008.215 3.045 3.045 0 0 1 -.015.304 3.045 3.045 0 0 1 -.046.3 3.045 3.045 0 0 1 -.075.296 3.045 3.045 0 0 1 -.104.286 3.045 3.045 0 0 1 -.133.274 3.045 3.045 0 0 1 -.159.26 3.045 3.045 0 0 1 -.184.242 3.045 3.045 0 0 1 -.207.222 3.045 3.045 0 0 1 -.23.201 3.045 3.045 0 0 1 -.247.177 3.045 3.045 0 0 1 -.264.152 3.045 3.045 0 0 1 -.278.124 3.045 3.045 0 0 1 -.288.096 3.045 3.045 0 0 1 -.297.067 3.045 3.045 0 0 1 -.303.036 3.045 3.045 0 0 1 -.215.008 3.045 3.045 0 0 1 -.304-.015 3.045 3.045 0 0 1 -.3-.046 3.045 3.045 0 0 1 -.296-.075 3.045 3.045 0 0 1 -.286-.105 3.045 3.045 0 0 1 -.274-.132 3.045 3.045 0 0 1 -.26-.159 3.045 3.045 0 0 1 -.241-.184 3.045 3.045 0 0 1 -.223-.208 3.045 3.045 0 0 1 -.201-.228 3.045 3.045 0 0 1 -.177-.248 3.045 3.045 0 0 1 -.152-.264 3.045 3.045 0 0 1 -.124-.278 3.045 3.045 0 0 1 -.096-.289 3.045 3.045 0 0 1 -.067-.297 3.045 3.045 0 0 1 -.036-.302 3.045 3.045 0 0 1 -.008-.215 3.045 3.045 0 0 1 .015-.304 3.045 3.045 0 0 1 .046-.301 3.045 3.045 0 0 1 .075-.295 3.045 3.045 0 0 1 .105-.286 3.045 3.045 0 0 1 .132-.274 3.045 3.045 0 0 1 .159-.26 3.045 3.045 0 0 1 .184-.242 3.045 3.045 0 0 1 .208-.222 3.045 3.045 0 0 1 .228-.201 3.045 3.045 0 0 1 .202-.144 14.69 14.69 0 0 1 -.647-.312 14.69 14.69 0 0 1 -1.252-.768 14.69 14.69 0 0 1 -.062-.048 14.69 14.69 0 0 0 -.055.361 14.69 14.69 0 0 0 -.073 1.467 14.69 14.69 0 0 0 .037 1.039 14.69 14.69 0 0 0 .177 1.457 14.69 14.69 0 0 0 .018.08 4.666 3.396 45 0 1 .05.043 4.666 3.396 45 0 1 .24.228 4.666 3.396 45 0 1 .317.341 4.666 3.396 45 0 1 .29.362 4.666 3.396 45 0 1 .26.379 4.666 3.396 45 0 1 .228.392 4.666 3.396 45 0 1 .193.401 4.666 3.396 45 0 1 .155.407 4.666 3.396 45 0 1 .118.408 4.666 3.396 45 0 1 .077.405 4.666 3.396 45 0 1 .038.398 4.666 3.396 45 0 1 -.004.387 4.666 3.396 45 0 1 -.044.372 4.666 3.396 45 0 1 -.084.354 4.666 3.396 45 0 1 -.006.016 14.69 14.69 0 0 0 .269.468 14.69 14.69 0 0 0 .854 1.194 14.69 14.69 0 0 0 .969 1.103 14.69 14.69 0 0 0 1.074 1.001 14.69 14.69 0 0 0 1.17.889 14.69 14.69 0 0 0 .709.435 14.69 14.69 0 0 0 .289.074 14.69 14.69 0 0 0 1.452.219 14.69 14.69 0 0 0 1.466.073 14.69 14.69 0 0 0 1.04-.036 14.69 14.69 0 0 0 1.457-.177 14.69 14.69 0 0 0 1.433-.322 14.69 14.69 0 0 0 1.393-.463 14.69 14.69 0 0 0 1.134-.507 14.69 14.69 0 0 0 .061-.044 14.69 14.69 0 0 0 1.103-.97 14.69 14.69 0 0 0 1.001-1.074 14.69 14.69 0 0 0 .889-1.169 14.69 14.69 0 0 0 .767-1.251 14.69 14.69 0 0 0 .639-1.323 14.69 14.69 0 0 0 .504-1.379 14.69 14.69 0 0 0 .363-1.423 14.69 14.69 0 0 0 .22-1.452 14.69 14.69 0 0 0 .063-1.267 14.69 14.69 0 0 0 .01-.2 14.69 14.69 0 0 0 -.037-1.038 14.69 14.69 0 0 0 -.177-1.458 14.69 14.69 0 0 0 -.322-1.433 14.69 14.69 0 0 0 -.124-.375 14.69 14.69 0 0 0 -.339-1.018 14.69 14.69 0 0 0 -.37-.826z" fill="url(#c)"/><path d="m74.328 15.475a14.69 14.69 0 0 0 -.069.142 14.69 14.69 0 0 0 -.353.968 14.69 14.69 0 0 0 -.15.411 14.69 14.69 0 0 0 -.364 1.423 14.69 14.69 0 0 0 -.165 1.092 14.69 14.69 0 0 0 .063.047 14.69 14.69 0 0 0 1.252.768 14.69 14.69 0 0 0 .646.312 3.045 3.045 0 0 1 .047-.033 3.045 3.045 0 0 1 .264-.152 3.045 3.045 0 0 1 .278-.124 3.045 3.045 0 0 1 .288-.096 3.045 3.045 0 0 1 .297-.067 3.045 3.045 0 0 1 .303-.036 3.045 3.045 0 0 1 .215-.008 3.045 3.045 0 0 1 .304.015 3.045 3.045 0 0 1 .3.046 3.045 3.045 0 0 1 .296.075 3.045 3.045 0 0 1 .286.105 3.045 3.045 0 0 1 .26.125 3.045 3.045 0 0 1 .014.007 3.045 3.045 0 0 1 .26.159 3.045 3.045 0 0 1 .242.184 3.045 3.045 0 0 1 .222.208 3.045 3.045 0 0 1 .01.011 3.045 3.045 0 0 1 .191.217 3.045 3.045 0 0 1 .177.248 3.045 3.045 0 0 1 .152.264 3.045 3.045 0 0 1 .089.199 14.69 14.69 0 0 0 .435.066 14.69 14.69 0 0 0 .652.032 14.69 14.69 0 0 0 .019.001 3.045 3.045 0 0 1 .107-.174 3.045 3.045 0 0 1 .184-.243 3.045 3.045 0 0 1 .207-.222 3.045 3.045 0 0 1 .229-.201 3.045 3.045 0 0 1 .248-.177 3.045 3.045 0 0 1 .264-.152 3.045 3.045 0 0 1 .022-.01 14.69 14.69 0 0 1 -.446-.067 14.69 14.69 0 0 1 -1.423-.364 14.69 14.69 0 0 1 -1.379-.503 14.69 14.69 0 0 1 -1.322-.639 14.69 14.69 0 0 1 -.978-.6 14.69 14.69 0 0 1 -.48-.547 14.69 14.69 0 0 1 -.855-1.194 14.69 14.69 0 0 1 -.73-1.274 14.69 14.69 0 0 1 -.11-.242zm13.404 5.282a14.69 14.69 0 0 1 -.713.16 14.69 14.69 0 0 1 -1.457.177 14.69 14.69 0 0 1 -.445.015 3.045 3.045 0 0 1 .011.007 3.045 3.045 0 0 1 .242.184 3.045 3.045 0 0 1 .223.208 3.045 3.045 0 0 1 .037.042 14.69 14.69 0 0 0 1.278-.424 14.69 14.69 0 0 0 .824-.37z" fill="url(#e)"/><path d="m69.853 22.507a4.666 3.396 45 0 0 -.377.032 4.666 3.396 45 0 0 -.36.073 4.666 3.396 45 0 0 -.055.018 4.666 3.396 45 0 0 -.283.094 4.666 3.396 45 0 0 -.314.151 4.666 3.396 45 0 0 -.287.188 4.666 3.396 45 0 0 -.256.223 4.666 3.396 45 0 0 -.162.178 4.666 3.396 45 0 0 -.198.278 4.666 3.396 45 0 0 -.162.307 4.666 3.396 45 0 0 -.124.332 4.666 3.396 45 0 0 -.084.354 4.666 3.396 45 0 0 -.045.372 4.666 3.396 45 0 0 -.003.387 4.666 3.396 45 0 0 .037.398 4.666 3.396 45 0 0 .078.405 4.666 3.396 45 0 0 .118.408 4.666 3.396 45 0 0 .155.406 4.666 3.396 45 0 0 .193.402 4.666 3.396 45 0 0 .227.392 4.666 3.396 45 0 0 .26.379 4.666 3.396 45 0 0 .29.362 4.666 3.396 45 0 0 .318.341 4.666 3.396 45 0 0 .24.228 4.666 3.396 45 0 0 .356.298 4.666 3.396 45 0 0 .374.27 4.666 3.396 45 0 0 .389.237 4.666 3.396 45 0 0 .4.203 4.666 3.396 45 0 0 .405.166 4.666 3.396 45 0 0 .408.129 4.666 3.396 45 0 0 .406.09 4.666 3.396 45 0 0 .4.049 4.666 3.396 45 0 0 .39.008 4.666 3.396 45 0 0 .378-.032 4.666 3.396 45 0 0 .36-.073 4.666 3.396 45 0 0 .263-.087 4.666 3.396 45 0 0 .075-.025 4.666 3.396 45 0 0 .314-.151 4.666 3.396 45 0 0 .287-.188 4.666 3.396 45 0 0 .256-.223 4.666 3.396 45 0 0 .162-.179 4.666 3.396 45 0 0 .198-.278 4.666 3.396 45 0 0 .162-.306 4.666 3.396 45 0 0 .118-.316 4.666 3.396 45 0 0 .006-.016 4.666 3.396 45 0 0 .084-.354 4.666 3.396 45 0 0 .044-.372 4.666 3.396 45 0 0 .003-.387 4.666 3.396 45 0 0 -.037-.398 4.666 3.396 45 0 0 -.078-.405 4.666 3.396 45 0 0 -.117-.408 4.666 3.396 45 0 0 -.156-.406 4.666 3.396 45 0 0 -.192-.402 4.666 3.396 45 0 0 -.228-.392 4.666 3.396 45 0 0 -.26-.379 4.666 3.396 45 0 0 -.29-.362 4.666 3.396 45 0 0 -.318-.341 4.666 3.396 45 0 0 -.24-.228 4.666 3.396 45 0 0 -.05-.042 4.666 3.396 45 0 0 -.305-.256 4.666 3.396 45 0 0 -.375-.27 4.666 3.396 45 0 0 -.388-.237 4.666 3.396 45 0 0 -.4-.203 4.666 3.396 45 0 0 -.405-.166 4.666 3.396 45 0 0 -.408-.129 4.666 3.396 45 0 0 -.406-.09 4.666 3.396 45 0 0 -.4-.049 4.666 3.396 45 0 0 -.391-.008z" fill="#1a2020"/><path d="m74.328 15.475a14.69 14.69 0 0 0 -.069.142 14.69 14.69 0 0 0 -.353.968 14.69 14.69 0 0 0 -.15.411 14.69 14.69 0 0 0 -.364 1.423 14.69 14.69 0 0 0 -.165 1.092 14.69 14.69 0 0 0 .063.047 14.69 14.69 0 0 0 1.252.768 14.69 14.69 0 0 0 .646.312 3.045 3.045 0 0 1 .047-.033 3.045 3.045 0 0 1 .264-.152 3.045 3.045 0 0 1 .278-.124 3.045 3.045 0 0 1 .288-.096 3.045 3.045 0 0 1 .297-.067 3.045 3.045 0 0 1 .303-.036 3.045 3.045 0 0 1 .215-.008 3.045 3.045 0 0 1 .304.015 3.045 3.045 0 0 1 .3.046 3.045 3.045 0 0 1 .296.075 3.045 3.045 0 0 1 .286.105 3.045 3.045 0 0 1 .26.125 3.045 3.045 0 0 1 .014.007 3.045 3.045 0 0 1 .26.159 3.045 3.045 0 0 1 .242.184 3.045 3.045 0 0 1 .222.208 3.045 3.045 0 0 1 .01.011 3.045 3.045 0 0 1 .191.217 3.045 3.045 0 0 1 .177.248 3.045 3.045 0 0 1 .152.264 3.045 3.045 0 0 1 .089.199 14.69 14.69 0 0 0 .435.066 14.69 14.69 0 0 0 .652.032 14.69 14.69 0 0 0 .019.001 3.045 3.045 0 0 1 .107-.174 3.045 3.045 0 0 1 .184-.243 3.045 3.045 0 0 1 .207-.222 3.045 3.045 0 0 1 .229-.201 3.045 3.045 0 0 1 .248-.177 3.045 3.045 0 0 1 .264-.152 3.045 3.045 0 0 1 .022-.01 14.69 14.69 0 0 1 -.446-.067 14.69 14.69 0 0 1 -1.423-.364 14.69 14.69 0 0 1 -1.379-.503 14.69 14.69 0 0 1 -1.322-.639 14.69 14.69 0 0 1 -.978-.6 14.69 14.69 0 0 1 -.48-.547 14.69 14.69 0 0 1 -.855-1.194 14.69 14.69 0 0 1 -.73-1.274 14.69 14.69 0 0 1 -.11-.242zm13.404 5.282a14.69 14.69 0 0 1 -.713.16 14.69 14.69 0 0 1 -1.457.177 14.69 14.69 0 0 1 -.445.015 3.045 3.045 0 0 1 .011.007 3.045 3.045 0 0 1 .242.184 3.045 3.045 0 0 1 .223.208 3.045 3.045 0 0 1 .037.042 14.69 14.69 0 0 0 1.278-.424 14.69 14.69 0 0 0 .824-.37z" fill="url(#e)"/><path d="m80.205 33.897a14.69 14.69 0 0 1 -.71-.435 14.69 14.69 0 0 1 -1.169-.889 14.69 14.69 0 0 1 -1.074-1 14.69 14.69 0 0 1 -.97-1.104 14.69 14.69 0 0 1 -.854-1.194 14.69 14.69 0 0 1 -.268-.468 4.666 3.396 45 0 1 -.118.316 4.666 3.396 45 0 1 -.162.306 4.666 3.396 45 0 1 -.199.278 4.666 3.396 45 0 1 -.161.179 4.666 3.396 45 0 1 -.256.223 4.666 3.396 45 0 1 -.287.188 4.666 3.396 45 0 1 -.314.15 4.666 3.396 45 0 1 -.076.026 14.69 14.69 0 0 0 .361.336 14.69 14.69 0 0 0 1.17.889 14.69 14.69 0 0 0 1.251.767 14.69 14.69 0 0 0 1.322.639 14.69 14.69 0 0 0 1.38.503 14.69 14.69 0 0 0 1.134.29z" fill="url(#f)"/><path d="m94.12 15.058a14.69 14.69 0 0 1 -.411.67 14.69 14.69 0 0 1 -.889 1.17 14.69 14.69 0 0 1 -1 1.074 14.69 14.69 0 0 1 -1.104.97 14.69 14.69 0 0 1 -1.194.853 14.69 14.69 0 0 1 -1.274.73 14.69 14.69 0 0 1 -.516.232 14.69 14.69 0 0 1 -.824.369 14.69 14.69 0 0 1 -1.278.424 3.045 3.045 0 0 1 .164.186 3.045 3.045 0 0 1 .177.248 3.045 3.045 0 0 1 .151.264 3.045 3.045 0 0 1 .125.278 3.045 3.045 0 0 1 .096.289 3.045 3.045 0 0 1 .066.296 3.045 3.045 0 0 1 .037.303 3.045 3.045 0 0 1 .008.215 3.045 3.045 0 0 1 -.003.061 3.045 3.045 0 0 1 -.012.243 3.045 3.045 0 0 1 -.046.301 3.045 3.045 0 0 1 -.075.295 3.045 3.045 0 0 1 -.105.286 3.045 3.045 0 0 1 -.132.274 3.045 3.045 0 0 1 -.16.26 3.045 3.045 0 0 1 -.183.242 3.045 3.045 0 0 1 -.208.222 3.045 3.045 0 0 1 -.228.201 3.045 3.045 0 0 1 -.248.177 3.045 3.045 0 0 1 -.264.152 3.045 3.045 0 0 1 -.278.124 3.045 3.045 0 0 1 -.289.096 3.045 3.045 0 0 1 -.297.067 3.045 3.045 0 0 1 -.302.036 3.045 3.045 0 0 1 -.215.008 3.045 3.045 0 0 1 -.304-.015 3.045 3.045 0 0 1 -.301-.046 3.045 3.045 0 0 1 -.295-.075 3.045 3.045 0 0 1 -.286-.104 3.045 3.045 0 0 1 -.274-.133 3.045 3.045 0 0 1 -.26-.159 3.045 3.045 0 0 1 -.242-.184 3.045 3.045 0 0 1 -.222-.208 3.045 3.045 0 0 1 -.201-.228 3.045 3.045 0 0 1 -.177-.248 3.045 3.045 0 0 1 -.152-.264 3.045 3.045 0 0 1 -.124-.278 3.045 3.045 0 0 1 -.096-.289 3.045 3.045 0 0 1 -.067-.296 3.045 3.045 0 0 1 -.036-.303 3.045 3.045 0 0 1 -.008-.215 3.045 3.045 0 0 1 .015-.304 3.045 3.045 0 0 1 .046-.301 3.045 3.045 0 0 1 .075-.295 3.045 3.045 0 0 1 .104-.286 3.045 3.045 0 0 1 .133-.274 3.045 3.045 0 0 1 .048-.079 14.69 14.69 0 0 1 -.015-.007 14.69 14.69 0 0 1 -.652-.032 14.69 14.69 0 0 1 -.435-.066 3.045 3.045 0 0 1 .035.079 3.045 3.045 0 0 1 .096.288 3.045 3.045 0 0 1 .067.297 3.045 3.045 0 0 1 .036.303 3.045 3.045 0 0 1 .008.215 3.045 3.045 0 0 1 -.015.304 3.045 3.045 0 0 1 -.046.3 3.045 3.045 0 0 1 -.075.296 3.045 3.045 0 0 1 -.104.286 3.045 3.045 0 0 1 -.133.274 3.045 3.045 0 0 1 -.159.26 3.045 3.045 0 0 1 -.184.242 3.045 3.045 0 0 1 -.207.222 3.045 3.045 0 0 1 -.23.201 3.045 3.045 0 0 1 -.247.177 3.045 3.045 0 0 1 -.264.152 3.045 3.045 0 0 1 -.278.124 3.045 3.045 0 0 1 -.288.096 3.045 3.045 0 0 1 -.297.067 3.045 3.045 0 0 1 -.303.036 3.045 3.045 0 0 1 -.215.008 3.045 3.045 0 0 1 -.304-.015 3.045 3.045 0 0 1 -.3-.046 3.045 3.045 0 0 1 -.296-.075 3.045 3.045 0 0 1 -.286-.105 3.045 3.045 0 0 1 -.274-.132 3.045 3.045 0 0 1 -.26-.159 3.045 3.045 0 0 1 -.241-.184 3.045 3.045 0 0 1 -.223-.208 3.045 3.045 0 0 1 -.201-.228 3.045 3.045 0 0 1 -.177-.248 3.045 3.045 0 0 1 -.152-.264 3.045 3.045 0 0 1 -.124-.278 3.045 3.045 0 0 1 -.096-.289 3.045 3.045 0 0 1 -.067-.297 3.045 3.045 0 0 1 -.036-.302 3.045 3.045 0 0 1 -.008-.215 3.045 3.045 0 0 1 .015-.304 3.045 3.045 0 0 1 .046-.301 3.045 3.045 0 0 1 .075-.295 3.045 3.045 0 0 1 .105-.286 3.045 3.045 0 0 1 .132-.274 3.045 3.045 0 0 1 .159-.26 3.045 3.045 0 0 1 .184-.242 3.045 3.045 0 0 1 .208-.222 3.045 3.045 0 0 1 .228-.201 3.045 3.045 0 0 1 .202-.144 14.69 14.69 0 0 1 -.647-.312 14.69 14.69 0 0 1 -1.252-.768 14.69 14.69 0 0 1 -.062-.048 14.69 14.69 0 0 0 -.055.361 14.69 14.69 0 0 0 -.073 1.467 14.69 14.69 0 0 0 .037 1.039 14.69 14.69 0 0 0 .177 1.457 14.69 14.69 0 0 0 .018.08 4.666 3.396 45 0 1 .05.043 4.666 3.396 45 0 1 .24.228 4.666 3.396 45 0 1 .317.341 4.666 3.396 45 0 1 .29.362 4.666 3.396 45 0 1 .26.379 4.666 3.396 45 0 1 .228.392 4.666 3.396 45 0 1 .193.401 4.666 3.396 45 0 1 .155.407 4.666 3.396 45 0 1 .118.408 4.666 3.396 45 0 1 .077.405 4.666 3.396 45 0 1 .038.398 4.666 3.396 45 0 1 -.004.387 4.666 3.396 45 0 1 -.044.372 4.666 3.396 45 0 1 -.084.354 4.666 3.396 45 0 1 -.006.016 14.69 14.69 0 0 0 .269.468 14.69 14.69 0 0 0 .854 1.194 14.69 14.69 0 0 0 .969 1.103 14.69 14.69 0 0 0 1.074 1.001 14.69 14.69 0 0 0 1.17.889 14.69 14.69 0 0 0 .709.435 14.69 14.69 0 0 0 .289.074 14.69 14.69 0 0 0 1.452.219 14.69 14.69 0 0 0 1.466.073 14.69 14.69 0 0 0 1.04-.036 14.69 14.69 0 0 0 1.457-.177 14.69 14.69 0 0 0 1.433-.322 14.69 14.69 0 0 0 1.393-.463 14.69 14.69 0 0 0 1.134-.507 14.69 14.69 0 0 0 .061-.044 14.69 14.69 0 0 0 1.103-.97 14.69 14.69 0 0 0 1.001-1.074 14.69 14.69 0 0 0 .889-1.169 14.69 14.69 0 0 0 .767-1.251 14.69 14.69 0 0 0 .639-1.323 14.69 14.69 0 0 0 .504-1.379 14.69 14.69 0 0 0 .363-1.423 14.69 14.69 0 0 0 .22-1.452 14.69 14.69 0 0 0 .063-1.267 14.69 14.69 0 0 0 .01-.2 14.69 14.69 0 0 0 -.037-1.038 14.69 14.69 0 0 0 -.177-1.458 14.69 14.69 0 0 0 -.322-1.433 14.69 14.69 0 0 0 -.124-.375 14.69 14.69 0 0 0 -.339-1.018 14.69 14.69 0 0 0 -.37-.826z" fill="url(#c)"/><path d="m83.409 20.584a3.045 3.045 0 0 0 -.216.008 3.045 3.045 0 0 0 -.302.036 3.045 3.045 0 0 0 -.297.067 3.045 3.045 0 0 0 -.289.096 3.045 3.045 0 0 0 -.254.114 3.045 3.045 0 0 0 -.023.01 3.045 3.045 0 0 0 -.264.152 3.045 3.045 0 0 0 -.248.177 3.045 3.045 0 0 0 -.229.2 3.045 3.045 0 0 0 -.207.223 3.045 3.045 0 0 0 -.184.243 3.045 3.045 0 0 0 -.107.174 3.045 3.045 0 0 0 -.004.006 3.045 3.045 0 0 0 -.048.08 3.045 3.045 0 0 0 -.133.273 3.045 3.045 0 0 0 -.104.286 3.045 3.045 0 0 0 -.075.295 3.045 3.045 0 0 0 -.046.301 3.045 3.045 0 0 0 -.015.304 3.045 3.045 0 0 0 .007.215 3.045 3.045 0 0 0 .037.303 3.045 3.045 0 0 0 .067.297 3.045 3.045 0 0 0 .096.288 3.045 3.045 0 0 0 .124.278 3.045 3.045 0 0 0 .152.264 3.045 3.045 0 0 0 .177.248 3.045 3.045 0 0 0 .2.228 3.045 3.045 0 0 0 .223.208 3.045 3.045 0 0 0 .242.184 3.045 3.045 0 0 0 .26.16 3.045 3.045 0 0 0 .274.132 3.045 3.045 0 0 0 .286.104 3.045 3.045 0 0 0 .295.075 3.045 3.045 0 0 0 .3.046 3.045 3.045 0 0 0 .305.015 3.045 3.045 0 0 0 .215-.008 3.045 3.045 0 0 0 .302-.036 3.045 3.045 0 0 0 .297-.067 3.045 3.045 0 0 0 .29-.096 3.045 3.045 0 0 0 .277-.124 3.045 3.045 0 0 0 .264-.152 3.045 3.045 0 0 0 .248-.177 3.045 3.045 0 0 0 .228-.2 3.045 3.045 0 0 0 .208-.223 3.045 3.045 0 0 0 .184-.243 3.045 3.045 0 0 0 .159-.26 3.045 3.045 0 0 0 .132-.273 3.045 3.045 0 0 0 .105-.286 3.045 3.045 0 0 0 .075-.295 3.045 3.045 0 0 0 .045-.301 3.045 3.045 0 0 0 .013-.243 3.045 3.045 0 0 0 .003-.06 3.045 3.045 0 0 0 -.008-.216 3.045 3.045 0 0 0 -.037-.302 3.045 3.045 0 0 0 -.066-.297 3.045 3.045 0 0 0 -.096-.29 3.045 3.045 0 0 0 -.125-.277 3.045 3.045 0 0 0 -.151-.264 3.045 3.045 0 0 0 -.177-.248 3.045 3.045 0 0 0 -.164-.186 3.045 3.045 0 0 0 -.037-.042 3.045 3.045 0 0 0 -.223-.208 3.045 3.045 0 0 0 -.242-.184 3.045 3.045 0 0 0 -.01-.007 3.045 3.045 0 0 0 -.25-.152 3.045 3.045 0 0 0 -.274-.132 3.045 3.045 0 0 0 -.285-.105 3.045 3.045 0 0 0 -.295-.075 3.045 3.045 0 0 0 -.301-.046 3.045 3.045 0 0 0 -.304-.015z" fill="url(#g)" stroke="#000" stroke-linecap="square" stroke-width=".063"/><path d="m76.88 20.122a2.978 2.978 0 0 0 -.815.111 3.052 3.052 0 0 0 -.83.372 2.98 2.98 0 0 0 -.047.033 3.046 3.046 0 1 0 4.53 1.426 3.023 3.023 0 0 0 -.035-.08 3.051 3.051 0 0 0 -.09-.198 3.04 3.04 0 0 0 -2.713-1.664z" fill="url(#i)" stroke="#000" stroke-linecap="square" stroke-width=".063"/><circle cx="84.031998" cy="23.902" fill="#1a2020" r="2.148"/><circle cx="77.833" cy="23.632999" fill="#1a2020" r="1.878"/><path d="m77.82 21.755a1.878 1.878 0 0 0 -1.386.627.776.71 0 0 0 .669.352.776.71 0 0 0 .775-.71.776.71 0 0 0 -.058-.27z" fill="#f7f7f7" fill-opacity=".822"/><path d="m83.81 21.768a2.148 2.148 0 0 0 -1.35.674.776.71 0 0 0 .626.292.776.71 0 0 0 .776-.71.776.71 0 0 0 -.053-.256z" fill="#f7f7f7" fill-opacity=".822"/><path d="m69.595 23.13a2.117 1.54 45 0 0 -.171.014 2.117 1.54 45 0 0 -.163.033 2.117 1.54 45 0 0 -.025.009 2.117 1.54 45 0 0 -.129.042 2.117 1.54 45 0 0 -.142.069 2.117 1.54 45 0 0 -.13.085 2.117 1.54 45 0 0 -.117.101 2.117 1.54 45 0 0 -.073.081 2.117 1.54 45 0 0 -.09.126 2.117 1.54 45 0 0 -.074.14 2.117 1.54 45 0 0 -.056.15 2.117 1.54 45 0 0 -.038.16 2.117 1.54 45 0 0 -.02.17 2.117 1.54 45 0 0 -.002.175 2.117 1.54 45 0 0 .017.18 2.117 1.54 45 0 0 .035.184 2.117 1.54 45 0 0 .054.185 2.117 1.54 45 0 0 .07.185 2.117 1.54 45 0 0 .088.182 2.117 1.54 45 0 0 .103.178 2.117 1.54 45 0 0 .118.172 2.117 1.54 45 0 0 .132.164 2.117 1.54 45 0 0 .144.155 2.117 1.54 45 0 0 .108.103 2.117 1.54 45 0 0 .162.136 2.117 1.54 45 0 0 .17.122 2.117 1.54 45 0 0 .176.107 2.117 1.54 45 0 0 .181.093 2.117 1.54 45 0 0 .184.075 2.117 1.54 45 0 0 .185.059 2.117 1.54 45 0 0 .185.04 2.117 1.54 45 0 0 .181.022 2.117 1.54 45 0 0 .178.004 2.117 1.54 45 0 0 .17-.014 2.117 1.54 45 0 0 .164-.033 2.117 1.54 45 0 0 .12-.04 2.117 1.54 45 0 0 .034-.011 2.117 1.54 45 0 0 .142-.069 2.117 1.54 45 0 0 .13-.085 2.117 1.54 45 0 0 .116-.101 2.117 1.54 45 0 0 .074-.081 2.117 1.54 45 0 0 .09-.126 2.117 1.54 45 0 0 .073-.14 2.117 1.54 45 0 0 .054-.143 2.117 1.54 45 0 0 .002-.007 2.117 1.54 45 0 0 .038-.16 2.117 1.54 45 0 0 .02-.17 2.117 1.54 45 0 0 .002-.175 2.117 1.54 45 0 0 -.017-.18 2.117 1.54 45 0 0 -.035-.184 2.117 1.54 45 0 0 -.053-.186 2.117 1.54 45 0 0 -.07-.184 2.117 1.54 45 0 0 -.088-.182 2.117 1.54 45 0 0 -.104-.178 2.117 1.54 45 0 0 -.118-.172 2.117 1.54 45 0 0 -.131-.164 2.117 1.54 45 0 0 -.144-.155 2.117 1.54 45 0 0 -.109-.103 2.117 1.54 45 0 0 -.023-.02 2.117 1.54 45 0 0 -.139-.116 2.117 1.54 45 0 0 -.17-.122 2.117 1.54 45 0 0 -.176-.108 2.117 1.54 45 0 0 -.18-.092 2.117 1.54 45 0 0 -.185-.075 2.117 1.54 45 0 0 -.185-.059 2.117 1.54 45 0 0 -.184-.04 2.117 1.54 45 0 0 -.182-.023 2.117 1.54 45 0 0 -.177-.003z" fill="#fff" fill-opacity=".09"/><path d="m74.328 15.475a14.69 14.69 0 0 0 -.069.142 14.69 14.69 0 0 0 -.353.968 14.69 14.69 0 0 0 -.15.411 14.69 14.69 0 0 0 -.364 1.423 14.69 14.69 0 0 0 -.165 1.092 14.69 14.69 0 0 0 .063.047 14.69 14.69 0 0 0 1.252.768 14.69 14.69 0 0 0 .646.312 3.045 3.045 0 0 1 .047-.033 3.045 3.045 0 0 1 .264-.152 3.045 3.045 0 0 1 .278-.124 3.045 3.045 0 0 1 .288-.096 3.045 3.045 0 0 1 .297-.067 3.045 3.045 0 0 1 .303-.036 3.045 3.045 0 0 1 .215-.008 3.045 3.045 0 0 1 .304.015 3.045 3.045 0 0 1 .3.046 3.045 3.045 0 0 1 .296.075 3.045 3.045 0 0 1 .286.105 3.045 3.045 0 0 1 .26.125 3.045 3.045 0 0 1 .014.007 3.045 3.045 0 0 1 .26.159 3.045 3.045 0 0 1 .242.184 3.045 3.045 0 0 1 .222.208 3.045 3.045 0 0 1 .01.011 3.045 3.045 0 0 1 .191.217 3.045 3.045 0 0 1 .177.248 3.045 3.045 0 0 1 .152.264 3.045 3.045 0 0 1 .089.199 14.69 14.69 0 0 0 .435.066 14.69 14.69 0 0 0 .652.032 14.69 14.69 0 0 0 .019.001 3.045 3.045 0 0 1 .107-.174 3.045 3.045 0 0 1 .184-.243 3.045 3.045 0 0 1 .207-.222 3.045 3.045 0 0 1 .229-.201 3.045 3.045 0 0 1 .248-.177 3.045 3.045 0 0 1 .264-.152 3.045 3.045 0 0 1 .022-.01 14.69 14.69 0 0 1 -.446-.067 14.69 14.69 0 0 1 -1.423-.364 14.69 14.69 0 0 1 -1.379-.503 14.69 14.69 0 0 1 -1.322-.639 14.69 14.69 0 0 1 -.978-.6 14.69 14.69 0 0 1 -.48-.547 14.69 14.69 0 0 1 -.855-1.194 14.69 14.69 0 0 1 -.73-1.274 14.69 14.69 0 0 1 -.11-.242zm13.404 5.282a14.69 14.69 0 0 1 -.713.16 14.69 14.69 0 0 1 -1.457.177 14.69 14.69 0 0 1 -.445.015 3.045 3.045 0 0 1 .011.007 3.045 3.045 0 0 1 .242.184 3.045 3.045 0 0 1 .223.208 3.045 3.045 0 0 1 .037.042 14.69 14.69 0 0 0 1.278-.424 14.69 14.69 0 0 0 .824-.37z" fill="url(#e)"/><path d="m80.259 33.861a14.69 14.69 0 0 1 -.71-.435 14.69 14.69 0 0 1 -1.17-.889 14.69 14.69 0 0 1 -1.073-1 14.69 14.69 0 0 1 -.97-1.104 14.69 14.69 0 0 1 -.854-1.194 14.69 14.69 0 0 1 -.268-.468 4.666 3.396 45 0 1 -.118.316 4.666 3.396 45 0 1 -.162.306 4.666 3.396 45 0 1 -.199.278 4.666 3.396 45 0 1 -.161.179 4.666 3.396 45 0 1 -.256.223 4.666 3.396 45 0 1 -.287.188 4.666 3.396 45 0 1 -.314.15 4.666 3.396 45 0 1 -.076.026 14.69 14.69 0 0 0 .361.336 14.69 14.69 0 0 0 1.17.889 14.69 14.69 0 0 0 1.251.767 14.69 14.69 0 0 0 1.322.639 14.69 14.69 0 0 0 1.38.503 14.69 14.69 0 0 0 1.134.29z" fill="url(#j)"/><path d="m75.593 31.282c6.6 1.28 9.955.331 13.482-3.341.025 3.123-3.06 3.93-4.782 4.193-3.03.468-5.184.429-8.701-.852" fill="#211f19" fill-opacity=".515"/><g transform="matrix(.21821128 .05847362 -.05847362 .21821128 94.838944 25.549277)"><path d="m0 0h48v48h-48z" fill="none"/><path d="m-30.348 29.825-2.498 2.476c-.629.623-1.703 1.5-1.703 1.5l40.598.376 7.214-1.311-.055-3.667-7.254-1.262-34.905.508z" fill="url(#k)"/><path d="m-2.154 34.134 8.203.043 7.214-1.311-.055-3.667-7.254-1.262-7.47.112z" fill="url(#l)"/><path d="m13.447 35.26c3.28 1.828 8.566 1.748 11.79-.179 2.551-1.525 6.184-1.052 7.859-.118.553-2.437-1.05-5.086-4.033-6.749-4.38-2.442-11.414-2.336-15.718.237-3.224 1.927-3.178 4.98.102 6.808z" fill="url(#m)"/><path d="m-1.585 28.083h-4.24l-1.026 6.052h4.697z" fill="url(#n)" fill-rule="evenodd"/></g></g></svg>