<svg xmlns="http://www.w3.org/2000/svg" xmlns:xlink="http://www.w3.org/1999/xlink" width="48" height="48" version="1.1" id="svg38"><defs id="defs22"><linearGradient id="linearGradient4488"><stop id="stop4490" offset="0" stop-color="#000" stop-opacity=".047"/><stop id="stop4492" offset="1" stop-color="#000" stop-opacity="0"/></linearGradient><style id="style4511"/><style id="style4511-26"/><style id="style4511-9"/><style id="style4552"/><linearGradient gradientTransform="translate(61.546 14.229) scale(.65656)" gradientUnits="userSpaceOnUse" x2="24.839" y2="17.991" x1="27.04" y1="16.621" id="d-6"><stop id="stop4583-7" stop-color="#fcfcfc"/><stop id="stop4585-5" stop-color="#c7c7c7" offset="1"/></linearGradient><style id="style4511-2"/><linearGradient gradientTransform="matrix(.31055 0 0 .3038 -64.664 2.216)" xlink:href="#linearGradient4488" id="linearGradient4160" x1="288.112" y1="141.785" x2="287.575" y2="79.008" gradientUnits="userSpaceOnUse"/><radialGradient xlink:href="#d-6" id="radialGradient1158" cx="23.855" cy="23.808" fx="23.855" fy="23.808" r="21.591" gradientTransform="matrix(1 0 0 .97322 0 .638)" gradientUnits="userSpaceOnUse"/></defs><style id="style4485" type="text/css"/><path d="M2.433 26.443v1.668c0 9.575 5.707 17.282 17.527 17.282h7.084c15.469 0 18.233-11.322 18.233-17.282v-1.668c0 5.96-2.764 17.282-18.233 17.282H19.96c-11.82 0-17.527-7.708-17.527-17.282z" id="path4147" opacity="1" fill="url(#linearGradient4160)" fill-opacity="1" stroke="none" stroke-width="1.112" stroke-linecap="square" stroke-linejoin="bevel" stroke-miterlimit="4" stroke-dasharray="none" stroke-dashoffset="0" stroke-opacity=".078"/><path d="M19.415 2.965H28.1c14.217 0 17.178 11.246 17.178 17.282v7.123c0 5.96-2.764 17.282-18.233 17.282H19.96c-11.82 0-17.527-7.708-17.527-17.282v-7.123c0-9.575 5.592-17.282 16.982-17.282z" id="rect4144" opacity="1" fill="url(#radialGradient1158)" fill-opacity="1" stroke="#000" stroke-width=".338" stroke-linecap="square" stroke-linejoin="bevel" stroke-miterlimit="4" stroke-dasharray="none" stroke-dashoffset="0" stroke-opacity=".078"/><g id="g1237" transform="matrix(.82444 0 0 .74158 4.078 6.857)"><linearGradient id="SVGID_1_" gradientUnits="userSpaceOnUse" x1="23.988" y1="3.407" x2="23.988" y2="44.79"><stop offset="0" id="stop1222" stop-color="#b3ba0e"/><stop offset=".111" id="stop1224" stop-color="#a1b012"/><stop offset=".284" id="stop1226" stop-color="#8ba516"/><stop offset=".474" id="stop1228" stop-color="#7b9c19"/><stop offset=".692" id="stop1230" stop-color="#72981a"/><stop offset="1" id="stop1232" stop-color="#6f961b"/></linearGradient><path d="M6.897 16.359s16.869 6.775 17.145 14.725c0 0 .622 7.743-3.18 12.375 0 0-.069.899.968 1.175 0 0 4.286-4.494 3.318-16.799 0 0 .277-6.015 8.365-9.61l7.466-3.249s3.941-1.797.83-5.047c0 0-.76-1.59-2.765-1.383 0 0-.484-1.244-1.659-1.244 0 0-.277-2.558-2.973-1.659 0 0-2.074-2.627-4.217-1.175 0 0-1.314-2.212-4.425-1.037 0 0-2.558-2.005-4.77.346 0 0-1.314 2.765.968 7.466 0 0-1.521-1.037-2.281-6.015 0 0-.691-.553-1.936.138 0 0-2.005-1.314-3.249.484 0 0-1.728 0-1.936 1.175 0 0-1.452-.207-1.797.899 0 0-2.281.138-2.281 1.867 0 0-1.59.069-1.521 1.106 0 0-1.175.899-.691 1.521.484.622-.277-.069-.277-.069s-1.659.553-.76 2.42c-.001 0-.071 1.452 1.658 1.59z" id="path1235" fill="url(#SVGID_1_)"/></g></svg>