<svg xmlns:osb="http://www.openswatchbook.org/uri/2009/osb" xmlns="http://www.w3.org/2000/svg" xmlns:xlink="http://www.w3.org/1999/xlink" width="48" height="48" version="1.1" id="svg38"><defs id="defs22"><linearGradient id="linearGradient4488"><stop id="stop4490" offset="0" stop-color="#000" stop-opacity=".047"/><stop id="stop4492" offset="1" stop-color="#000" stop-opacity="0"/></linearGradient><style id="style4511"/><style id="style4511-26"/><style id="style4511-9"/><style id="style4552"/><style id="style4511-2"/><linearGradient xlink:href="#linearGradient4488" id="linearGradient4540" gradientUnits="userSpaceOnUse" gradientTransform="matrix(.30902 0 0 .3038 -64.017 2.569)" x1="288.112" y1="141.785" x2="287.575" y2="79.008"/><linearGradient osb:paint="solid" id="linearGradient5293"><stop id="stop5295" offset="0" stop-color="#9a89c0" stop-opacity="1"/></linearGradient><linearGradient gradientUnits="userSpaceOnUse" y2="160.631" x2="334.866" y1="140.23" x1="334.866" id="linearGradient930" xlink:href="#linearGradient928"/><linearGradient id="linearGradient928"><stop id="stop924" offset="0" stop-color="gray" stop-opacity="1"/><stop id="stop926" offset="1" stop-color="#999" stop-opacity="1"/></linearGradient></defs><style id="style4485" type="text/css"/><g id="g1951" fill-opacity="1"><path d="M2.75 26.796v1.668c0 9.575 5.68 17.283 17.44 17.283h7.05c15.392 0 18.143-11.323 18.143-17.283v-1.668c0 5.96-2.75 17.282-18.143 17.282h-7.05c-11.76 0-17.44-7.708-17.44-17.282z" id="path4516" opacity="1" fill="url(#linearGradient4540)" stroke="none" stroke-width="1.109" stroke-linecap="square" stroke-linejoin="bevel" stroke-miterlimit="4" stroke-dasharray="none" stroke-dashoffset="0" stroke-opacity=".078"/><path d="M19.649 3.318h8.64c14.148 0 17.094 11.246 17.094 17.282v7.123c0 5.96-2.75 17.282-18.143 17.282h-7.05c-11.76 0-17.44-7.708-17.44-17.282V20.6c0-9.575 5.564-17.282 16.899-17.282z" id="path4518" opacity="1" fill="#f03133" stroke="#000" stroke-width=".337" stroke-linecap="square" stroke-linejoin="bevel" stroke-miterlimit="4" stroke-dasharray="none" stroke-dashoffset="0" stroke-opacity=".078"/><path d="M2.751 18.758h25.885v3.137H2.751m0-3.137" id="path1827" fill="#f9f9f9" fill-rule="nonzero" stroke="none" stroke-width="1.547"/><path d="M17.978 20.33c0 2.602-2.047 4.714-4.568 4.714-2.528 0-4.568-2.112-4.568-4.714 0-2.602 2.046-4.714 4.568-4.714 2.521 0 4.568 2.112 4.568 4.714m0 0" id="path1829" fill="#f9f9f9" fill-rule="nonzero" stroke="none" stroke-width="1.547"/><path d="M32.208 20.33c0 2.602-2.046 4.714-4.568 4.714-2.527 0-4.568-2.112-4.568-4.714 0-2.602 2.047-4.714 4.568-4.714 2.522 0 4.568 2.112 4.568 4.714m0 0" id="path1831" fill="#f9f9f9" fill-rule="nonzero" stroke="none" stroke-width="1.547"/><path d="M30.16 32.901c0 2.603-2.047 4.715-4.569 4.715-2.528 0-4.568-2.112-4.568-4.715 0-2.602 2.047-4.714 4.568-4.714 2.522 0 4.568 2.112 4.568 4.714m0 0" id="path1833" fill="#f9f9f9" fill-rule="nonzero" stroke="none" stroke-width="1.547"/><path d="M26.709 36.044L10.364 19.17l1.922-1.983L28.63 34.055m-1.921 1.99" id="path1835" fill="#f9f9f9" fill-rule="nonzero" stroke="none" stroke-width="1.547"/></g></svg>