<svg xmlns:osb="http://www.openswatchbook.org/uri/2009/osb" xmlns="http://www.w3.org/2000/svg" width="48" height="48" version="1.1" id="svg38"><defs id="defs22"><style id="style4511"/><style id="style4511-26"/><style id="style4511-9"/><style id="style4552"/><style id="style4511-2"/><linearGradient osb:paint="solid" id="linearGradient5293"><stop id="stop5295" offset="0" stop-color="#9a89c0" stop-opacity="1"/></linearGradient></defs><style id="style4485" type="text/css"/><g id="g962"><path id="path4518" d="M19.738 3.544h8.495c13.908 0 16.804 11.146 16.804 17.128v7.06c0 5.906-2.704 17.127-17.836 17.127h-6.93c-11.563 0-17.146-7.639-17.146-17.128v-7.06c0-9.488 5.47-17.127 16.613-17.127z" opacity="1" fill="#666" fill-opacity="1" stroke="#000" stroke-width=".333" stroke-linecap="square" stroke-linejoin="bevel" stroke-miterlimit="4" stroke-dasharray="none" stroke-dashoffset="0" stroke-opacity=".078"/><path id="path10" d="M19.176 44.867h10.262c.006-2.204.012-4.802.012-6.497 0-1.997-.819-3.303-1.561-3.965 4.61-.53 9.448-2.342 9.448-10.568 0-2.338-.644-4.25-1.97-5.746.212-.541.924-2.72-.206-5.668 0 0-.109-.036-.333-.046h-.002c-.673-.032-2.568.195-5.532 2.273-1.658-.504-3.55-.69-5.523-.686-1.804.003-3.676.154-5.495.686-2.964-2.078-4.48-2.304-5.153-2.272-.224.012-.333.045-.333.045-1.127 2.948-.414 5.128-.2 5.67-1.324 1.496-2.1 3.406-2.1 5.744 0 8.205 5.273 10.043 9.868 10.584-.59.535-.962 1.64-1.15 3.024-1.18.548-4.342 1.89-6.188-1.382 0 0-1.092-2.057-3.17-2.208 0 0-2.019-.027-.14 1.301 0 0 1.357.66 2.298 3.133 0 0 1.398 3.766 7.155 2.473.005.88.009 2.518.013 4.105z" fill="#fff" stroke-width=".793"/></g></svg>