<svg xmlns="http://www.w3.org/2000/svg" xmlns:xlink="http://www.w3.org/1999/xlink" width="48" height="48" version="1.1" id="svg38"><defs id="defs22"><linearGradient id="linearGradient4488"><stop id="stop4490" offset="0" stop-color="#000" stop-opacity=".047"/><stop id="stop4492" offset="1" stop-color="#000" stop-opacity="0"/></linearGradient><style id="style4511"/><style id="style4511-26"/><style id="style4511-9"/><linearGradient id="linearGradient4227-5"><stop offset="0" id="stop8-7" stop-color="#2e3436" stop-opacity="1"/><stop offset="1" id="stop10-0" stop-color="#555753" stop-opacity="1"/></linearGradient><style id="style4552"/><style id="style4511-2"/><linearGradient gradientTransform="translate(-63.205 2.216) scale(.3038)" xlink:href="#linearGradient4488" id="linearGradient4160" x1="288.112" y1="141.785" x2="287.575" y2="79.008" gradientUnits="userSpaceOnUse"/><linearGradient xlink:href="#linearGradient4227-5" id="linearGradient1169" x1="2.266" y1="23.808" x2="44.513" y2="23.808" gradientUnits="userSpaceOnUse"/></defs><style id="style4485" type="text/css"/><g id="g1165"><path id="path4147" d="M2.433 26.443v1.668c0 9.575 5.583 17.282 17.146 17.282h6.93c15.133 0 17.837-11.322 17.837-17.282v-1.668c0 5.96-2.704 17.282-17.837 17.282h-6.93c-11.563 0-17.146-7.708-17.146-17.282z" opacity="1" fill="url(#linearGradient4160)" fill-opacity="1" stroke="none" stroke-width="1.1" stroke-linecap="square" stroke-linejoin="bevel" stroke-miterlimit="4" stroke-dasharray="none" stroke-dashoffset="0" stroke-opacity=".078"/><path id="rect4144" d="M19.046 2.965h8.495c13.908 0 16.805 11.246 16.805 17.282v7.123c0 5.96-2.704 17.282-17.837 17.282h-6.93c-11.562 0-17.146-7.708-17.146-17.282v-7.123c0-9.575 5.47-17.282 16.613-17.282z" opacity="1" fill="url(#linearGradient1169)" fill-opacity="1" stroke="#000" stroke-width=".334" stroke-linecap="square" stroke-linejoin="bevel" stroke-miterlimit="4" stroke-dasharray="none" stroke-dashoffset="0" stroke-opacity=".078"/><path d="M15.239 11.08c-2.59 2.445-4.229 6.017-4.229 10.024 0 5.412 2.98 10.041 7.28 12.147v.104h.201c.601.28 1.233.496 1.88.675v2.27A14.56 15.593 0 0 1 8.93 21.103a14.56 15.593 0 0 1 .613-4.455h-2.15a16.64 17.82 0 0 0-.543 4.455 16.64 17.82 0 0 0 15.599 17.78v-7.87c.358.06.714.106 1.062.115.36-.016.689-.063 1.018-.109v7.848a16.64 17.82 0 0 0 15.599-17.764 16.64 17.82 0 0 0-.55-4.455h-2.15a14.56 15.593 0 0 1 .62 4.455 14.56 15.593 0 0 1-11.44 15.21V34.03a11.956 11.956 0 0 0 1.88-.674h.2v-.105c4.3-2.106 7.28-6.735 7.28-12.147 0-4.006-1.638-7.579-4.229-10.024h-3.725c3.48 1.797 5.874 5.595 5.874 10.024 0 4.136-2.09 7.725-5.2 9.646v-1.445c.72-.743.76-1.865.025-2.712l-.41-.472.14-.866c.208-1.29.705-2.259 1.44-2.806.332-.248.668-.53.747-.631.178-.226.187-1.357.017-2.008-.468-1.785-2.918-5.587-4.727-7.333-1.027-.992-1.832-1.444-2.61-1.393-.466.03-.922.242-1.412.627-.653.513-2.329 2.396-3.121 3.51-1.693 2.383-2.568 4.306-2.568 5.642 0 .886.074 1.029.79 1.538.792.564 1.25 1.39 1.49 2.691l.192 1.04-.3.29c-.495.477-.702 1.012-.643 1.661a2.2 2.2 0 0 0 .55 1.22v1.447c-3.109-1.92-5.199-5.509-5.199-9.645 0-4.429 2.395-8.227 5.874-10.025H15.24zm5.13 15.593a1.04 1.114 0 0 1 1.04 1.113 1.04 1.114 0 0 1-1.04 1.114 1.04 1.114 0 0 1-1.04-1.114 1.04 1.114 0 0 1 1.04-1.113zm6.24 0a1.04 1.114 0 0 1 1.04 1.113 1.04 1.114 0 0 1-1.04 1.114 1.04 1.114 0 0 1-1.04-1.114 1.04 1.114 0 0 1 1.04-1.113z" id="path8" opacity=".2" stroke-width="1.076"/><path d="M15.139 9.906c-2.59 2.446-4.229 6.018-4.229 10.024 0 5.412 2.98 10.042 7.28 12.148v.104h.2c.602.281 1.234.496 1.88.674v2.27A14.56 15.593 0 0 1 8.83 19.93a14.56 15.593 0 0 1 .614-4.456H7.293a16.64 17.82 0 0 0-.543 4.456 16.64 17.82 0 0 0 15.6 17.78v-7.872c.358.06.714.107 1.061.116.361-.016.69-.063 1.018-.11v7.85a16.64 17.82 0 0 0 15.6-17.764 16.64 17.82 0 0 0-.55-4.456h-2.15a14.56 15.593 0 0 1 .62 4.456 14.56 15.593 0 0 1-11.44 15.21v-2.285a11.93 11.93 0 0 0 1.88-.673h.2v-.105c4.3-2.105 7.28-6.735 7.28-12.147 0-4.007-1.638-7.579-4.229-10.024h-3.725c3.479 1.797 5.874 5.595 5.874 10.024 0 4.136-2.09 7.724-5.2 9.646v-1.445c.718-.743.758-1.865.024-2.713l-.41-.472.14-.866c.208-1.289.705-2.258 1.44-2.806.332-.247.668-.53.748-.63.178-.227.186-1.357.016-2.008-.467-1.785-2.918-5.587-4.727-7.334-1.027-.992-1.832-1.443-2.61-1.392-.466.03-.921.242-1.411.627-.654.512-2.33 2.396-3.122 3.51-1.692 2.38-2.567 4.304-2.567 5.64 0 .887.074 1.03.79 1.539.792.564 1.25 1.39 1.491 2.69l.191 1.04-.3.29c-.495.478-.702 1.013-.642 1.662a2.2 2.2 0 0 0 .55 1.22v1.447c-3.11-1.921-5.2-5.509-5.2-9.645 0-4.43 2.396-8.227 5.874-10.025H15.14zm5.13 15.593a1.04 1.114 0 0 1 1.04 1.114 1.04 1.114 0 0 1-1.04 1.114 1.04 1.114 0 0 1-1.04-1.114 1.04 1.114 0 0 1 1.04-1.114zm6.24 0a1.04 1.114 0 0 1 1.04 1.114 1.04 1.114 0 0 1-1.04 1.114 1.04 1.114 0 0 1-1.04-1.114 1.04 1.114 0 0 1 1.04-1.114z" id="path10" fill="#00ebc9" stroke-width="1.076" fill-opacity="1"/></g></svg>