<svg xmlns:osb="http://www.openswatchbook.org/uri/2009/osb" xmlns="http://www.w3.org/2000/svg" xmlns:xlink="http://www.w3.org/1999/xlink" width="48" height="48" version="1.1" id="svg38"><defs id="defs22"><linearGradient id="linearGradient4488"><stop id="stop4490" offset="0" stop-color="#000" stop-opacity=".047"/><stop id="stop4492" offset="1" stop-color="#000" stop-opacity="0"/></linearGradient><style id="style4511"/><style id="style4511-26"/><style id="style4511-9"/><style id="style4552"/><style id="style4511-2"/><linearGradient xlink:href="#linearGradient4488" id="linearGradient4540" gradientUnits="userSpaceOnUse" gradientTransform="translate(-62.889 1.994) scale(.3038)" x1="288.112" y1="141.785" x2="287.575" y2="79.008"/><linearGradient osb:paint="solid" id="linearGradient5293"><stop id="stop5295" offset="0" stop-color="#9a89c0" stop-opacity="1"/></linearGradient><linearGradient gradientTransform="rotate(-90 -3.92 51.616)" gradientUnits="userSpaceOnUse" x2="47" x1="1" id="linearGradient4203"><stop id="stop438" stop-color="#30353e" stop-opacity="1"/><stop id="stop440" offset="1" stop-color="#393f49" stop-opacity="1"/></linearGradient><linearGradient xlink:href="#linearGradient4203" id="linearGradient1411" x1="2.583" y1="23.586" x2="44.83" y2="23.586" gradientUnits="userSpaceOnUse"/></defs><style id="style4485" type="text/css"/><path id="path4516" d="M2.75 26.22v1.67c0 9.573 5.583 17.281 17.146 17.281h6.93c15.132 0 17.836-11.322 17.836-17.282v-1.668c0 5.96-2.704 17.282-17.836 17.282h-6.93C8.333 43.503 2.75 35.795 2.75 26.22z" opacity="1" fill="url(#linearGradient4540)" fill-opacity="1" stroke="none" stroke-width="1.1" stroke-linecap="square" stroke-linejoin="bevel" stroke-miterlimit="4" stroke-dasharray="none" stroke-dashoffset="0" stroke-opacity=".078"/><path id="path4518" d="M19.363 2.742h8.495c13.908 0 16.804 11.247 16.804 17.282v7.124c0 5.96-2.704 17.282-17.836 17.282h-6.93C8.333 44.43 2.75 36.722 2.75 27.148v-7.124c0-9.574 5.47-17.282 16.613-17.282z" opacity="1" fill="url(#linearGradient1411)" fill-opacity="1" stroke="#000" stroke-width=".334" stroke-linecap="square" stroke-linejoin="bevel" stroke-miterlimit="4" stroke-dasharray="none" stroke-dashoffset="0" stroke-opacity=".078"/><g transform="translate(29.126 9.706) scale(.0573)" id="g515" fill="none" stroke="none"><g transform="translate(2 19)" id="g513"><g id="g511"><g id="g509"><g transform="matrix(1 0 0 -1 0 457.333)" id="g507"><g id="g505"><g id="g503"><g id="g501"><g id="g499"><g transform="translate(.667 .667)" id="g497"><g transform="translate(336.974 280.256)" id="g495" fill="#e24329"><g transform="translate(-342.01)" id="g493"><path transform="translate(-180.776 -279.095)" d="M91 0c37.55 90.69 112.68 169.35 90.68 279.1H.31C-14.467 173.79 52.8 90.86 90.99 0" id="path479"/><path transform="translate(-307.552)" d="M0 0c40.712-17.342 81.22-36.8 127.09 0L72.471 168.1c-2.811 8.649-15.05 8.649-17.856 0L-.002 0" id="path481"/><path transform="translate(-308.443 -279.095)" d="M218.67 0l-90.68 279.09H.9C33.254 157.32 133.95 84.36 218.68 0" id="path483" fill="#fc6d26"/><path transform="translate(-336.885 -280)" d="M29.333 280L1.774 195.19a18.774 18.774 0 0 1 6.821-20.991L247.105.909l-217.78 279.09z" id="path485" fill="#fca326"/><path d="M128 0C77.327-31.576 38.54-17.996.91 0l54.619 168.1c2.811 8.649 15.05 8.649 17.856 0L128.002 0" id="path487"/><path transform="translate(-89.776 -279.095)" d="M0 0l90.68 279.09h127.09C187.894 148.91 88.03 79.6-.01 0" id="path489" fill="#fc6d26"/><path transform="translate(-90.667 -280)" d="M218.67 280l27.559-84.81a18.774 18.774 0 0 0-6.821-20.991L.898.909l217.78 279.09z" id="path491" fill="#fca326"/></g></g></g></g></g></g></g></g></g></g></g></g></svg>