<svg xmlns="http://www.w3.org/2000/svg" xmlns:xlink="http://www.w3.org/1999/xlink" width="48" height="48" version="1.1" id="svg38"><defs id="defs22"><linearGradient id="linearGradient4485"><stop id="stop4487" offset="0" stop-color="#ef4728" stop-opacity="1"/><stop id="stop4489" offset="1" stop-color="#f3b760" stop-opacity="1"/></linearGradient><linearGradient id="linearGradient4488"><stop id="stop4490" offset="0" stop-color="#000" stop-opacity=".047"/><stop id="stop4492" offset="1" stop-color="#000" stop-opacity="0"/></linearGradient><style id="style4511"/><style id="style4511-26"/><style id="style4511-9"/><style id="style4552"/><style id="style4511-2"/><linearGradient xlink:href="#linearGradient4488" id="linearGradient4546" gradientUnits="userSpaceOnUse" gradientTransform="matrix(.3038 0 0 .30671 -62.497 1.986)" x1="288.112" y1="141.785" x2="287.575" y2="79.008"/><linearGradient xlink:href="#linearGradient4485" id="linearGradient4483" x1="2.974" y1="23.586" x2="45.221" y2="23.586" gradientUnits="userSpaceOnUse" gradientTransform="matrix(1 0 0 1.00959 0 -.026)"/></defs><style id="style4485" type="text/css"/><path d="M3.141 26.446v1.684c0 9.666 5.583 17.448 17.146 17.448h6.93c15.133 0 17.837-11.431 17.837-17.448v-1.684c0 6.016-2.704 17.448-17.837 17.448h-6.93c-11.563 0-17.146-7.782-17.146-17.448z" id="path4528" opacity="1" fill="url(#linearGradient4546)" fill-opacity="1" stroke="none" stroke-width="1.105" stroke-linecap="square" stroke-linejoin="bevel" stroke-miterlimit="4" stroke-dasharray="none" stroke-dashoffset="0" stroke-opacity=".078"/><path d="M19.754 2.742h8.495c13.908 0 16.805 11.355 16.805 17.448v7.192c0 6.016-2.704 17.447-17.837 17.447h-6.93c-11.562 0-17.146-7.781-17.146-17.447V20.19c0-9.666 5.47-17.448 16.613-17.448z" id="path4530" opacity="1" fill="url(#linearGradient4483)" fill-opacity="1" stroke="#000" stroke-width=".336" stroke-linecap="square" stroke-linejoin="bevel" stroke-miterlimit="4" stroke-dasharray="none" stroke-dashoffset="0" stroke-opacity=".078"/><path id="rect3408" opacity=".1" fill="#cdc22c" fill-opacity="1" fill-rule="nonzero" stroke="none" stroke-width="2.5" stroke-linejoin="round" stroke-miterlimit="4" stroke-dasharray="none" stroke-opacity="1" d="M-34 46.116h18v27h-18z"/><g id="g1230" transform="matrix(1.02174 0 0 1.00215 -1.01 .953)" fill="#ececec" fill-opacity="1" fill-rule="nonzero" stroke="none" stroke-width="2.628" stroke-linejoin="round" stroke-miterlimit="4" stroke-dasharray="none" stroke-opacity="1"><path id="rect4212" opacity="1" d="M15.217 8.97h3.119v18.064h-3.119z"/><path id="rect4214" opacity="1" d="M20.415 13.22h3.119v23.377h-3.119z"/><path id="rect4216" opacity="1" d="M25.613 13.22h3.119v23.377h-3.119z"/><path id="rect4218" opacity="1" d="M30.81 13.22h3.119v13.814H30.81z"/></g></svg>