<svg xmlns:osb="http://www.openswatchbook.org/uri/2009/osb" xmlns="http://www.w3.org/2000/svg" xmlns:xlink="http://www.w3.org/1999/xlink" width="48" height="48" version="1.1" id="svg38"><defs id="defs22"><linearGradient id="linearGradient4488"><stop id="stop4490" offset="0" stop-color="#000" stop-opacity=".047"/><stop id="stop4492" offset="1" stop-color="#000" stop-opacity="0"/></linearGradient><linearGradient id="linearGradient4154"><stop offset="0" id="stop2" stop-color="#000" stop-opacity="1"/><stop offset="1" id="stop4" stop-color="#000" stop-opacity="0"/></linearGradient><style id="style4511"/><style id="style4511-26"/><style id="style4511-9"/><style id="style4552"/><style id="style4511-2"/><linearGradient xlink:href="#linearGradient4488" id="linearGradient4540" gradientUnits="userSpaceOnUse" gradientTransform="matrix(.30902 0 0 .3038 -64.017 2.569)" x1="288.112" y1="141.785" x2="287.575" y2="79.008"/><linearGradient osb:paint="solid" id="linearGradient5293"><stop id="stop5295" offset="0" stop-color="#9a89c0" stop-opacity="1"/></linearGradient><linearGradient gradientUnits="userSpaceOnUse" y2="160.631" x2="334.866" y1="140.23" x1="334.866" id="linearGradient930" xlink:href="#linearGradient928"/><linearGradient id="linearGradient928"><stop id="stop924" offset="0" stop-color="gray" stop-opacity="1"/><stop id="stop926" offset="1" stop-color="#999" stop-opacity="1"/></linearGradient><linearGradient gradientUnits="userSpaceOnUse" y2="210.694" x2="21.425" y1="210.694" x1="252.122" id="linearGradient918" xlink:href="#linearGradient4154"/><filter height="1.143" y="-.072" width="1.103" x="-.052" id="filter920" color-interpolation-filters="sRGB"><feGaussianBlur id="feGaussianBlur922" stdDeviation="3.138"/></filter></defs><style id="style4485" type="text/css"/><path id="path4516" d="M2.75 26.796v1.668c0 9.575 5.68 17.283 17.44 17.283h7.05c15.392 0 18.143-11.323 18.143-17.283v-1.668c0 5.96-2.75 17.282-18.143 17.282h-7.05c-11.76 0-17.44-7.708-17.44-17.282z" opacity="1" fill="url(#linearGradient4540)" fill-opacity="1" stroke="none" stroke-width="1.109" stroke-linecap="square" stroke-linejoin="bevel" stroke-miterlimit="4" stroke-dasharray="none" stroke-dashoffset="0" stroke-opacity=".078"/><path id="path4518" d="M19.649 3.318h8.64c14.148 0 17.094 11.246 17.094 17.282v7.123c0 5.96-2.75 17.282-18.143 17.282h-7.05c-11.76 0-17.44-7.708-17.44-17.282V20.6c0-9.575 5.564-17.282 16.899-17.282z" opacity="1" fill="#62237c" fill-opacity="1" stroke="#000" stroke-width=".337" stroke-linecap="square" stroke-linejoin="bevel" stroke-miterlimit="4" stroke-dasharray="none" stroke-dashoffset="0" stroke-opacity=".078"/><path transform="matrix(.11322 0 0 .14842 -1.277 -5.29)" style="line-height:125%;-inkscape-font-specification:'Ubuntu Medium';text-align:center" d="M110.858 138l-4.936 14.806 50.1 20.04-50.1 20.04 4.936 14.806 64.457-27.219V165.22zm64.365 90.031v15.105h76.7v-15.105z" id="path910" font-style="normal" font-variant="normal" font-weight="500" font-stretch="normal" font-size="299.107" font-family="Ubuntu" letter-spacing="0" word-spacing="0" writing-mode="lr-tb" text-anchor="middle" display="inline" opacity=".5" fill="url(#linearGradient918)" fill-opacity="1" stroke="none" stroke-width="1.92" filter="url(#filter920)" enable-background="new"/><path style="line-height:125%;-inkscape-font-specification:'Ubuntu Medium';text-align:center" d="M11.274 14.895l-.559 2.197 5.673 2.975-5.673 2.974.56 2.198 7.297-4.04v-2.264zm7.288 13.362v2.277h8.706v-2.277z" id="path4212" font-style="normal" font-variant="normal" font-weight="500" font-stretch="normal" font-size="299.107" font-family="Ubuntu" letter-spacing="0" word-spacing="0" writing-mode="lr-tb" text-anchor="middle" display="inline" fill="#f2f2f2" fill-opacity="1" stroke="none" stroke-width=".249" enable-background="new"/><path style="line-height:125%;-inkscape-font-specification:'Ubuntu Medium';text-align:center" d="M11.274 14.895l-.559 2.197.067.035.492-1.935 7.298 4.04v-.297zm4.83 5.32l-5.389 2.826.067.262 5.606-2.94zm2.458 8.042v.297h8.706v-.297z" id="path4327" font-style="normal" font-variant="normal" font-weight="500" font-stretch="normal" font-size="299.107" font-family="Ubuntu" letter-spacing="0" word-spacing="0" writing-mode="lr-tb" text-anchor="middle" display="inline" fill="#fff" fill-opacity="1" stroke="none" stroke-width=".249" enable-background="new"/></svg>