<svg xmlns="http://www.w3.org/2000/svg" xmlns:xlink="http://www.w3.org/1999/xlink" width="48" height="48" version="1.1" id="svg38"><defs id="defs22"><linearGradient id="linearGradient3764-3" x1="1" x2="47" gradientUnits="userSpaceOnUse" gradientTransform="rotate(-90 -2.483 48.559)"><stop id="stop1312" stop-color="#e1e1e1" stop-opacity="1"/><stop offset="1" id="stop1314" stop-color="#ebebeb" stop-opacity="1"/></linearGradient><linearGradient id="linearGradient4488"><stop id="stop4490" offset="0" stop-color="#000" stop-opacity=".047"/><stop id="stop4492" offset="1" stop-color="#000" stop-opacity="0"/></linearGradient><style id="style4511"/><style id="style4511-26"/><style id="style4511-9"/><style id="style4552"/><style id="style4511-2"/><linearGradient xlink:href="#linearGradient4488" id="linearGradient4471" gradientUnits="userSpaceOnUse" gradientTransform="matrix(.3038 0 0 .3086 -62.47 2.206)" x1="288.112" y1="141.785" x2="287.575" y2="79.008"/><linearGradient xlink:href="#linearGradient3764-3" id="linearGradient1323" x1="3.112" y1="24.139" x2="45.136" y2="24.139" gradientUnits="userSpaceOnUse"/></defs><style id="style4485" type="text/css"/><g id="g1312" fill-opacity="1"><path id="path4467" d="M3.168 26.815v1.695c0 9.725 5.583 17.555 17.146 17.555h6.93c15.132 0 17.836-11.502 17.836-17.555v-1.695c0 6.054-2.704 17.555-17.836 17.555h-6.93c-11.563 0-17.146-7.83-17.146-17.555z" opacity="1" fill="url(#linearGradient4471)" stroke="none" stroke-width="1.109" stroke-linecap="square" stroke-linejoin="bevel" stroke-miterlimit="4" stroke-dasharray="none" stroke-dashoffset="0" stroke-opacity=".078"/><path id="path4469" d="M3.28 28.55v-8.629c0-14.127 11.247-17.07 17.283-17.07h7.123c5.96 0 17.282 2.748 17.282 18.119v7.04c0 11.744-7.708 17.416-17.282 17.416h-7.123c-9.575 0-17.282-5.557-17.282-16.876z" opacity="1" fill="url(#linearGradient1323)" stroke="#000" stroke-width=".337" stroke-linecap="square" stroke-linejoin="bevel" stroke-miterlimit="4" stroke-dasharray="none" stroke-dashoffset="0" stroke-opacity=".078"/><g transform="matrix(.16898 0 0 .17923 6.503 6.84)" id="g880" color="#000"><g transform="rotate(135.259 263.714 476.043) scale(3.4433)" id="g1530" fill="#fcd951"><path d="M143.188 43.168L61.68 124.676c-12.54 12.54-9.406 15.67 3.132 28.21l43.895 43.895c12.54 12.538 15.67 15.673 28.211 3.133l81.508-81.508V52.568c0-3.134-.785-5.481-2.354-7.048-1.567-1.568-3.913-2.352-7.047-2.352zm44.501 20.592a10.296 10.296 0 0 1 7.131 3.015 10.296 10.296 0 0 1 0 14.56 10.296 10.296 0 0 1-14.56 0 10.296 10.296 0 0 1 0-14.56 10.296 10.296 0 0 1 7.43-3.015z" transform="translate(0 229.267) scale(.26458)" id="path1524" fill="#fcd951" stroke-width="2.059"/><path id="path1526" style="font-variant-ligatures:none;font-variant-position:normal;font-variant-caps:normal;font-variant-numeric:normal;font-variant-alternates:normal;font-feature-settings:normal;text-indent:0;text-decoration-line:none;text-decoration-style:solid;text-decoration-color:#000;text-transform:none;white-space:normal;shape-padding:0;isolation:auto;mix-blend-mode:normal;solid-color:#000" d="M39.588 262.254l-9.807 9.807 1.541 1.54 9.807-9.806z" text-decoration="none" fill="#c2a32c" stroke-width=".545" color-rendering="auto" image-rendering="auto" shape-rendering="auto"/><path id="path1528" style="font-variant-ligatures:none;font-variant-position:normal;font-variant-caps:normal;font-variant-numeric:normal;font-variant-alternates:normal;font-feature-settings:normal;text-indent:0;text-decoration-line:none;text-decoration-style:solid;text-decoration-color:#000;text-transform:none;white-space:normal;shape-padding:0;isolation:auto;mix-blend-mode:normal;solid-color:#000" d="M39.588 252.448l-14.71 14.71 1.54 1.54 14.71-14.71z" text-decoration="none" fill="#c2a32c" stroke-width=".545" color-rendering="auto" image-rendering="auto" shape-rendering="auto"/></g><g id="g1522" transform="scale(-3.4433) rotate(-1.712 -9675.781 2365.35)" fill="#e7484a"><path id="path4209" transform="translate(0 229.267) scale(.26458)" d="M143.188 43.168L61.68 124.676c-12.54 12.54-9.406 15.67 3.132 28.21l43.895 43.895c12.54 12.538 15.67 15.673 28.211 3.133l81.508-81.508V52.568c0-3.134-.785-5.481-2.354-7.048-1.567-1.568-3.913-2.352-7.047-2.352zm44.501 20.592a10.296 10.296 0 0 1 7.131 3.015 10.296 10.296 0 0 1 0 14.56 10.296 10.296 0 0 1-14.56 0 10.296 10.296 0 0 1 0-14.56 10.296 10.296 0 0 1 7.43-3.015z" fill="#e7484a" stroke-width="2.059"/><path d="M39.588 262.254l-9.807 9.807 1.541 1.54 9.807-9.806z" style="font-variant-ligatures:none;font-variant-position:normal;font-variant-caps:normal;font-variant-numeric:normal;font-variant-alternates:normal;font-feature-settings:normal;text-indent:0;text-decoration-line:none;text-decoration-style:solid;text-decoration-color:#000;text-transform:none;white-space:normal;shape-padding:0;isolation:auto;mix-blend-mode:normal;solid-color:#000" id="path4219" text-decoration="none" fill="#b23436" stroke-width=".545" color-rendering="auto" image-rendering="auto" shape-rendering="auto"/><path d="M39.588 252.448l-14.71 14.71 1.54 1.54 14.71-14.71z" style="font-variant-ligatures:none;font-variant-position:normal;font-variant-caps:normal;font-variant-numeric:normal;font-variant-alternates:normal;font-feature-settings:normal;text-indent:0;text-decoration-line:none;text-decoration-style:solid;text-decoration-color:#000;text-transform:none;white-space:normal;shape-padding:0;isolation:auto;mix-blend-mode:normal;solid-color:#000" id="path4217" text-decoration="none" fill="#b23436" stroke-width=".545" color-rendering="auto" image-rendering="auto" shape-rendering="auto"/></g><path id="path1532" d="M70.645 188.605l105.016-.084c16.156-.013 16.15-4.049 16.139-20.205l-.045-56.554c-.015-16.155-.015-20.191-16.172-20.179l-105.015.084-42.38 42.447c-2.016 2.02-3.022 4.04-3.02 6.06.002 2.019 1.01 4.034 3.03 6.052zM55.21 146.684a9.38 9.38 0 0 1-2.656-6.535 9.38 9.38 0 0 1 9.372-9.387 9.38 9.38 0 0 1 9.387 9.372 9.38 9.38 0 0 1-9.372 9.388 9.38 9.38 0 0 1-6.731-2.838z" fill="#4495cf" stroke-width="1.876"/><path d="M118.963 131.912l47.754-.039-.006-7.503-47.754.039z" style="font-variant-ligatures:none;font-variant-position:normal;font-variant-caps:normal;font-variant-numeric:normal;font-variant-alternates:normal;font-feature-settings:normal;text-indent:0;text-decoration-line:none;text-decoration-style:solid;text-decoration-color:#000;text-transform:none;white-space:normal;shape-padding:0;isolation:auto;mix-blend-mode:normal;solid-color:#000" id="path1534" text-decoration="none" fill="#2d6d9c" stroke-width="1.876" color-rendering="auto" image-rendering="auto" shape-rendering="auto"/><path d="M95.105 155.808l71.63-.058-.005-7.503-71.63.058z" style="font-variant-ligatures:none;font-variant-position:normal;font-variant-caps:normal;font-variant-numeric:normal;font-variant-alternates:normal;font-feature-settings:normal;text-indent:0;text-decoration-line:none;text-decoration-style:solid;text-decoration-color:#000;text-transform:none;white-space:normal;shape-padding:0;isolation:auto;mix-blend-mode:normal;solid-color:#000" id="path1536" text-decoration="none" fill="#2d6d9c" stroke-width="1.876" color-rendering="auto" image-rendering="auto" shape-rendering="auto"/></g></g></svg>