<svg xmlns="http://www.w3.org/2000/svg" xmlns:xlink="http://www.w3.org/1999/xlink" width="48" height="48" version="1.1" id="svg38"><defs id="defs22"><linearGradient id="linearGradient4488"><stop id="stop4490" offset="0" stop-color="#000" stop-opacity=".047"/><stop id="stop4492" offset="1" stop-color="#000" stop-opacity="0"/></linearGradient><style id="style4511"/><style id="style4511-26"/><style id="style4511-9"/><style id="style4552"/><style id="style4511-2"/><linearGradient xlink:href="#linearGradient4488" id="linearGradient4546" gradientUnits="userSpaceOnUse" gradientTransform="translate(-62.497 1.994) scale(.3038)" x1="288.112" y1="141.785" x2="287.575" y2="79.008"/><style id="style4511-8"/><style id="style4511-26-4"/><style id="style4511-9-8"/><style id="style4552-5"/><style id="style4511-2-5"/></defs><style id="style4485" type="text/css"/><path d="M3.141 26.22v1.67c0 9.573 5.583 17.281 17.146 17.281h6.93c15.133 0 17.837-11.322 17.837-17.282v-1.668c0 5.96-2.704 17.282-17.837 17.282h-6.93c-11.563 0-17.146-7.708-17.146-17.282z" id="path4528" opacity="1" fill="url(#linearGradient4546)" fill-opacity="1" stroke="none" stroke-width="1.1" stroke-linecap="square" stroke-linejoin="bevel" stroke-miterlimit="4" stroke-dasharray="none" stroke-dashoffset="0" stroke-opacity=".078"/><path d="M19.754 2.742h8.495c13.908 0 16.805 11.247 16.805 17.282v7.124c0 5.96-2.704 17.282-17.837 17.282h-6.93c-11.562 0-17.146-7.708-17.146-17.282v-7.124c0-9.574 5.47-17.282 16.613-17.282z" id="path4530" opacity="1" fill="#e6e6e6" fill-opacity="1" stroke="#000" stroke-width=".334" stroke-linecap="square" stroke-linejoin="bevel" stroke-miterlimit="4" stroke-dasharray="none" stroke-dashoffset="0" stroke-opacity=".078"/><style type="text/css" id="style4485-4"/><g id="g1232" transform="translate(.21 -1.229)" fill="#009ea4" fill-opacity="1"><path id="rect1226" d="M11 23h8v2h-8z"/><path id="polygon1228" d="M37 23h-3v-3h-2v3h-3v2h3v3h2v-3h3z"/><path d="M32.485 16.011c-3.806 0-7.089 1.871-8.62 4.563-1.51-2.688-4.746-4.555-8.497-4.555-5.189 0-9.41 3.564-9.41 7.945s4.221 7.945 9.41 7.945c3.751 0 6.987-1.868 8.497-4.555 1.531 2.692 4.814 4.563 8.62 4.563 5.262 0 9.543-3.567 9.543-7.952 0-4.387-4.281-7.954-9.543-7.954zM15.488 29.907c-4.117 0-7.466-2.666-7.466-5.944s3.349-5.944 7.466-5.944 7.466 2.667 7.466 5.944-3.35 5.944-7.466 5.944zm16.982-.008c-4.129 0-7.488-2.663-7.488-5.936s3.359-5.936 7.488-5.936c4.129 0 7.488 2.663 7.488 5.936s-3.359 5.936-7.488 5.936z" id="path1230"/></g></svg>