<svg xmlns="http://www.w3.org/2000/svg" xmlns:xlink="http://www.w3.org/1999/xlink" width="48" height="48" version="1.1" id="svg38"><defs id="defs22"><linearGradient id="linearGradient4488"><stop id="stop4490" offset="0" stop-color="#000" stop-opacity=".047"/><stop id="stop4492" offset="1" stop-color="#000" stop-opacity="0"/></linearGradient><style id="style4511"/><style id="style4511-26"/><style id="style4511-9"/><style id="style4552"/><style id="style4511-2"/><linearGradient xlink:href="#linearGradient4488" id="linearGradient4540" gradientUnits="userSpaceOnUse" gradientTransform="translate(-62.889 1.994) scale(.3038)" x1="288.112" y1="141.785" x2="287.575" y2="79.008"/></defs><style id="style4485" type="text/css"/><path id="path4516" d="M2.75 26.22v1.67c0 9.573 5.583 17.281 17.146 17.281h6.93c15.132 0 17.836-11.322 17.836-17.282v-1.668c0 5.96-2.704 17.282-17.836 17.282h-6.93C8.333 43.503 2.75 35.795 2.75 26.22z" opacity="1" fill="url(#linearGradient4540)" fill-opacity="1" stroke="none" stroke-width="1.1" stroke-linecap="square" stroke-linejoin="bevel" stroke-miterlimit="4" stroke-dasharray="none" stroke-dashoffset="0" stroke-opacity=".078"/><path id="path4518" d="M19.363 2.742h8.495c13.908 0 16.804 11.247 16.804 17.282v7.124c0 5.96-2.704 17.282-17.836 17.282h-6.93C8.333 44.43 2.75 36.722 2.75 27.148v-7.124c0-9.574 5.47-17.282 16.613-17.282z" opacity="1" fill="#d9d9d9" fill-opacity="1" stroke="#000" stroke-width=".334" stroke-linecap="square" stroke-linejoin="bevel" stroke-miterlimit="4" stroke-dasharray="none" stroke-dashoffset="0" stroke-opacity=".078"/><path d="M12.275 10.102c-.377 0-.717.151-.963.397l13.196 13.196 13.197-13.196a1.355 1.355 0 0 0-.963-.397z" id="path1382" fill="#3bc0a8" stroke-width=".68" fill-opacity="1"/><path d="M12.275 37.288a1.354 1.354 0 0 1-.963-.397l13.196-13.196L37.705 36.89a1.353 1.353 0 0 1-.963.397z" id="path1384" fill="#8353a4" stroke-width=".68" fill-opacity="1"/><path d="M38.102 11.461c0-.377-.151-.716-.397-.962L24.508 23.695 37.705 36.89c.246-.245.397-.586.397-.962z" id="path1386" fill="#94b832" stroke-width=".68" fill-opacity="1"/><path d="M10.915 11.461c0-.377.151-.716.397-.962l13.196 13.196L11.312 36.89a1.355 1.355 0 0 1-.397-.962z" id="path1388" fill="#cd6961" stroke-width=".68" fill-opacity="1"/></svg>