<svg xmlns:osb="http://www.openswatchbook.org/uri/2009/osb" xmlns="http://www.w3.org/2000/svg" xmlns:xlink="http://www.w3.org/1999/xlink" width="48" height="48" version="1.1" id="svg38"><defs id="defs22"><linearGradient id="linearGradient4488"><stop id="stop4490" offset="0" stop-color="#000" stop-opacity=".047"/><stop id="stop4492" offset="1" stop-color="#000" stop-opacity="0"/></linearGradient><style id="style4511"/><style id="style4511-26"/><style id="style4511-9"/><style id="style4552"/><style id="style4511-2"/><linearGradient xlink:href="#linearGradient4488" id="linearGradient4540" gradientUnits="userSpaceOnUse" gradientTransform="rotate(90 54.154 -8.502) scale(.3038)" x1="288.112" y1="141.785" x2="287.575" y2="79.008"/><linearGradient osb:paint="solid" id="linearGradient5293"><stop id="stop5295" offset="0" stop-color="#9a89c0" stop-opacity="1"/></linearGradient><linearGradient gradientTransform="rotate(-90 24 24)" gradientUnits="userSpaceOnUse" x2="47" x1="1" id="linearGradient3764-367"><stop offset="0" id="stop7-53" stop-color="#4671ef" stop-opacity="1"/><stop id="stop9-562" offset="1" stop-color="#a4bffb" stop-opacity="1"/></linearGradient><linearGradient xlink:href="#linearGradient3764-367" id="linearGradient1466" x1="3.049" y1="23.939" x2="45.07" y2="23.939" gradientUnits="userSpaceOnUse"/></defs><style id="style4485" type="text/css"/><g id="g1481" fill-opacity="1" stroke-miterlimit="4" stroke-dasharray="none"><path d="M21.425 2.983h-1.669c-9.574 0-17.282 5.583-17.282 17.146v6.93c0 15.132 11.323 17.837 17.282 17.837h1.669c-5.96 0-17.282-2.705-17.282-17.837v-6.93c0-11.563 7.708-17.146 17.282-17.146z" id="path4516" opacity="1" fill="url(#linearGradient4540)" stroke="none" stroke-width="1.1" stroke-linecap="square" stroke-linejoin="bevel" stroke-dashoffset="0" stroke-opacity=".078"/><path d="M44.903 19.596v8.495c0 13.908-11.247 16.805-17.282 16.805h-7.123c-5.96 0-17.282-2.705-17.282-17.837v-6.93c0-11.563 7.708-17.146 17.282-17.146h7.123c9.574 0 17.282 5.47 17.282 16.613z" id="path4518" opacity="1" fill="url(#linearGradient1466)" stroke="#000" stroke-width=".334" stroke-linecap="square" stroke-linejoin="bevel" stroke-dashoffset="0" stroke-opacity=".078"/><path id="path859" d="M44.547 15.411c-.045-.271-.159-.734-.222-.995a31.047 31.047 0 0 0-.504-1.54 14.68 14.68 0 0 0-1.142-2.415 10.677 10.677 0 0 0-.629-1.004 13.243 13.243 0 0 0-.758-.96 10.564 10.564 0 0 0-.882-.843l-.03 7.804z" opacity="1" fill="#f22c42" stroke="none" stroke-width=".74" stroke-opacity="1"/><path id="path864" d="M44.938 23.803l-.066-5.676c-.01-.91-.184-2.076-.325-2.716l-4.167.047v8.36z" opacity="1" fill="#f1f0e9" stroke="none" stroke-width=".74" stroke-opacity="1"/><path id="path869" d="M44.606 32.002c.175-.852.284-1.61.291-2.557l.041-5.642-4.558.014v8.36z" opacity="1" fill="#fdc92b" stroke="none" stroke-width=".74" stroke-opacity="1"/><path id="path874" d="M40.478 40.093c.306-.241.595-.549.843-.808.247-.266.487-.638.721-.952a17 17 0 0 0 .673-1.004 8.48 8.48 0 0 0 .61-1.158c.168-.401.398-.943.557-1.396.163-.464.283-.98.43-1.543.084-.315.241-.866.294-1.23l-4.226.174z" opacity="1" fill="#76c22b" stroke="none" stroke-width=".74" stroke-opacity="1"/><g transform="matrix(1.49833 0 0 1.45439 -936.264 -309.495)" id="g2368" display="inline" stroke-width=".889" fill="none" stroke="#fff" stroke-linejoin="round" stroke-dashoffset="1" stroke-opacity="1"><ellipse id="path2350" cx="639.95" cy="224.889" rx="3.283" ry="3.556" opacity="1" stroke-linecap="round"/><path d="M633.333 235.556c0-3.5 1.667-4.445 6.667-4.445s6.667.945 6.667 4.445z" id="rect2352" opacity="1" stroke-linecap="butt"/></g></g></svg>