<svg xmlns="http://www.w3.org/2000/svg" xmlns:xlink="http://www.w3.org/1999/xlink" width="48" height="48" version="1.1" id="svg38"><defs id="defs22"><linearGradient id="linearGradient4488"><stop id="stop4490" offset="0" stop-color="#000" stop-opacity=".047"/><stop id="stop4492" offset="1" stop-color="#000" stop-opacity="0"/></linearGradient><style id="style4511"/><style id="style4511-26"/><style id="style4511-9"/><linearGradient id="linearGradient4223"><stop id="stop7-6-2" offset="0" stop-color="#c6cdd1" stop-opacity="1"/><stop id="stop9-7-3" offset="1" stop-color="#e0e5e7" stop-opacity="1"/></linearGradient><style id="style4552"/><linearGradient id="e-1" y1="41.22" x1="24.392" y2="25.343" x2="20.643" gradientUnits="userSpaceOnUse"><stop stop-color="#334545" id="stop22-8"/><stop offset="1" stop-color="#536161" id="stop24-7"/></linearGradient><style id="style4511-2"/><linearGradient xlink:href="#linearGradient4488" id="linearGradient4548" gradientUnits="userSpaceOnUse" gradientTransform="translate(-62.55 1.994) scale(.3038)" x1="288.112" y1="141.785" x2="287.575" y2="79.008"/><linearGradient xlink:href="#linearGradient4223" id="linearGradient1323" x1="2.921" y1="23.586" x2="45.168" y2="23.586" gradientUnits="userSpaceOnUse"/><linearGradient xlink:href="#e-1" id="linearGradient1351" x1="3.104" y1="23.173" x2="44.985" y2="23.173" gradientUnits="userSpaceOnUse" gradientTransform="matrix(.99383 0 0 1 .134 0)"/></defs><style id="style4485" type="text/css"/><path id="path4532" d="M3.088 26.22v1.67c0 9.573 5.583 17.281 17.146 17.281h6.93c15.133 0 17.837-11.322 17.837-17.282v-1.668c0 5.96-2.704 17.282-17.837 17.282h-6.93c-11.563 0-17.146-7.708-17.146-17.282z" opacity="1" fill="url(#linearGradient4548)" fill-opacity="1" stroke="none" stroke-width="1.1" stroke-linecap="square" stroke-linejoin="bevel" stroke-miterlimit="4" stroke-dasharray="none" stroke-dashoffset="0" stroke-opacity=".078"/><path id="path4534" d="M19.701 2.742h8.495c13.908 0 16.805 11.247 16.805 17.282v7.124c0 5.96-2.704 17.282-17.837 17.282h-6.93c-11.562 0-17.146-7.708-17.146-17.282v-7.124c0-9.574 5.47-17.282 16.613-17.282z" opacity="1" fill="url(#linearGradient1323)" fill-opacity="1" stroke="#000" stroke-width=".334" stroke-linecap="square" stroke-linejoin="bevel" stroke-miterlimit="4" stroke-dasharray="none" stroke-dashoffset="0" stroke-opacity=".078"/><path id="path1194" d="M3.218 17.764h41.623v10.817H3.218m0-10.817" fill="url(#linearGradient1351)" fill-opacity="1" fill-rule="nonzero" stroke="none" stroke-width="1.847"/><path id="path1196" d="M27.852 23.173c0 1.992-1.704 3.605-3.808 3.605-2.103 0-3.807-1.613-3.807-3.605 0-1.993 1.704-3.606 3.807-3.606 2.104 0 3.808 1.613 3.808 3.606m0 0" fill="#dc2f2f" fill-opacity="1" fill-rule="nonzero" stroke="none" stroke-width="1.853"/><path id="path1198" d="M14.526 23.173c0 1.992-1.704 3.605-3.807 3.605-2.104 0-3.808-1.613-3.808-3.605 0-1.993 1.704-3.606 3.808-3.606 2.103 0 3.807 1.613 3.807 3.606m0 0" fill="#dc2f2f" fill-opacity="1" fill-rule="nonzero" stroke="none" stroke-width="1.853"/><path id="path1200" d="M41.177 23.173c0 1.992-1.703 3.605-3.807 3.605-2.103 0-3.807-1.613-3.807-3.605 0-1.993 1.704-3.606 3.807-3.606 2.104 0 3.807 1.613 3.807 3.606m0 0" fill="#dc2f2f" fill-opacity="1" fill-rule="nonzero" stroke="none" stroke-width="1.853"/></svg>