<svg xmlns="http://www.w3.org/2000/svg" xmlns:xlink="http://www.w3.org/1999/xlink" width="48" height="48" version="1.1" id="svg38"><defs id="defs22"><linearGradient id="linearGradient4488"><stop id="stop4490" offset="0" stop-color="#000" stop-opacity=".047"/><stop id="stop4492" offset="1" stop-color="#000" stop-opacity="0"/></linearGradient><style id="style4511"/><style id="style4511-26"/><style id="style4511-9"/><linearGradient id="linearGradient10454-6"><stop id="stop4727" offset="0" stop-color="#f38230" stop-opacity="1"/><stop id="stop4729" offset="1" stop-color="#fec335" stop-opacity="1"/></linearGradient><style id="style4552"/><style id="style4511-2"/><linearGradient xlink:href="#linearGradient4488" id="linearGradient4548" gradientUnits="userSpaceOnUse" gradientTransform="matrix(.30791 0 0 .30817 -63.719 1.983)" x1="288.112" y1="141.785" x2="287.575" y2="79.008"/><linearGradient id="linearGradient4253"><stop id="stop4255" offset="0" stop-color="#241f1c" stop-opacity="1"/><stop id="stop4257" offset="1" stop-color="#4d4d4d" stop-opacity="1"/></linearGradient><linearGradient id="linearGradient4243"><stop id="stop4245" offset="0" stop-color="#ed4c5c" stop-opacity="1"/><stop id="stop4247" offset="1" stop-color="#f55" stop-opacity="1"/></linearGradient><linearGradient id="linearGradient4211"><stop id="stop4213" offset="0" stop-color="#ffce31" stop-opacity="1"/><stop id="stop4215" offset="1" stop-color="#ffd42a" stop-opacity="1"/></linearGradient><linearGradient id="linearGradient4205"><stop offset="0" id="stop4207" stop-color="#333" stop-opacity="1"/><stop offset="1" id="stop4209" stop-color="#4d4d4d" stop-opacity="1"/></linearGradient><linearGradient gradientTransform="translate(-2.654 2.762) scale(.98268)" gradientUnits="userSpaceOnUse" y2="4.929" x2="11.647" y1="44.118" x1="27.056" id="linearGradient4201" xlink:href="#linearGradient4205"/><radialGradient gradientUnits="userSpaceOnUse" gradientTransform="matrix(1 0 0 .98512 0 .61)" r="15.734" fy="40.967" fx="47.015" cy="40.967" cx="47.015" id="radialGradient4219" xlink:href="#linearGradient4211"/><radialGradient gradientUnits="userSpaceOnUse" gradientTransform="matrix(1 0 0 .98512 0 .61)" r="15.734" fy="40.967" fx="47.015" cy="40.967" cx="47.015" id="radialGradient4251" xlink:href="#linearGradient4243"/><linearGradient gradientTransform="matrix(.67524 .6656 .71395 -.6295 -6.987 14.254)" gradientUnits="userSpaceOnUse" y2="4.59" x2="24.622" y1="26.466" x1="29.598" id="linearGradient4259" xlink:href="#linearGradient4253"/><linearGradient xlink:href="#linearGradient4205" id="linearGradient1227" gradientUnits="userSpaceOnUse" gradientTransform="translate(-2.654 2.762) scale(.98268)" x1="27.056" y1="44.118" x2="11.647" y2="4.929"/><linearGradient xlink:href="#linearGradient10454-6" id="linearGradient1246" x1="2.639" y1="23.886" x2="45.458" y2="23.886" gradientUnits="userSpaceOnUse"/></defs><style id="style4485" type="text/css"/><path id="path4532" d="M2.808 26.558v1.693c0 9.712 5.66 17.53 17.378 17.53h7.025c15.337 0 18.077-11.485 18.077-17.53v-1.693c0 6.045-2.74 17.53-18.077 17.53h-7.025c-11.719 0-17.378-7.818-17.378-17.53z" opacity="1" fill="url(#linearGradient4548)" fill-opacity="1" stroke="none" stroke-width="1.115" stroke-linecap="square" stroke-linejoin="bevel" stroke-miterlimit="4" stroke-dasharray="none" stroke-dashoffset="0" stroke-opacity=".078"/><path id="path4534" d="M19.647 2.742h8.61c14.096 0 17.032 11.409 17.032 17.53V27.5c0 6.045-2.741 17.53-18.079 17.53h-7.023c-11.72 0-17.379-7.818-17.379-17.53v-7.226c0-9.712 5.545-17.53 16.839-17.53z" opacity="1" fill="url(#linearGradient1246)" fill-opacity="1" stroke="#000" stroke-width=".339" stroke-linecap="square" stroke-linejoin="bevel" stroke-miterlimit="4" stroke-dasharray="none" stroke-dashoffset="0" stroke-opacity=".078"/><g id="g1225" transform="matrix(.63685 0 0 .62411 9.38 8.5)" fill-opacity="1"><circle r="19.654" cy="26.346" cx="22.862" id="path4177" opacity="1" fill="url(#linearGradient1227)" fill-rule="nonzero" stroke="none" stroke-width="2" stroke-linecap="butt" stroke-linejoin="round" stroke-miterlimit="4" stroke-dasharray="none" stroke-dashoffset="0" stroke-opacity="1"/><path id="path4" d="M10.617 2.07C17.416.95 29.962 13.319 38.27 25.49l-1.708.877C28.7 15.06 16.822 3.43 11.206 4.294c-3.083.517-4.077 4.804-3.868 8.708l-1.796.009C5.209 5.69 7.822 2.784 10.617 2.07z" fill="url(#linearGradient4259)"/><path id="path24" d="M3.702 12.016l5.36-5.271 3.395 3.305-5.45 5.271-3.305-3.305" fill="url(#linearGradient4201)"/><g transform="translate(4.259 -4.404) scale(.98268)" id="g4269" fill-rule="nonzero" stroke="none" stroke-width="2" stroke-linecap="butt" stroke-linejoin="round" stroke-miterlimit="4" stroke-dasharray="none" stroke-dashoffset="0" stroke-opacity="1"><path id="path4179" d="M57.268 52.747c-.013.012-7.512-4.752-7.529-4.746-.016.007-2.73 8.466-2.747 8.466-.018 0-2.7-8.47-2.717-8.475-.017-.006-7.533 4.73-7.546 4.719-.014-.012 3.375-8.224 3.366-8.24-.009-.015-8.81-1.217-8.814-1.235-.003-.017 7.872-4.13 7.875-4.147.003-.018-5.967-6.597-5.958-6.612.009-.016 8.685 1.895 8.698 1.884.014-.011-.33-8.888-.313-8.894.016-.007 5.434 7.034 5.452 7.034.017 0 5.46-7.021 5.477-7.015.016.006-.36 8.882-.346 8.893.014.012 8.696-1.868 8.705-1.853.01.015-5.984 6.573-5.98 6.59.002.018 7.862 4.159 7.859 4.176-.003.018-8.81 1.189-8.818 1.204-.01.016 3.35 8.24 3.336 8.251z" transform="matrix(-.4438 -.1292 -.13116 .4505 60.24 18.32)" opacity="1" fill="url(#radialGradient4251)"/><path transform="matrix(-.30134 -.08773 -.08905 .30589 51.844 22.287)" d="M57.268 52.747l-7.529-4.746-2.747 8.466-2.717-8.475-7.546 4.719 3.366-8.24-8.814-1.235 7.875-4.147-5.958-6.612 8.698 1.884-.313-8.894 5.452 7.034 5.477-7.015-.346 8.893 8.705-1.853-5.98 6.59 7.859 4.176-8.818 1.204z" id="path4185" opacity="1" fill="url(#radialGradient4219)"/></g></g></svg>