<svg xmlns="http://www.w3.org/2000/svg" xmlns:xlink="http://www.w3.org/1999/xlink" width="48" height="48" version="1.1" id="svg38"><defs id="defs22"><linearGradient id="linearGradient3764-3" x1="1" x2="47" gradientUnits="userSpaceOnUse" gradientTransform="rotate(-90 -2.483 48.559)"><stop id="stop1312" stop-color="#e1e1e1" stop-opacity="1"/><stop offset="1" id="stop1314" stop-color="#ebebeb" stop-opacity="1"/></linearGradient><linearGradient id="linearGradient4488"><stop id="stop4490" offset="0" stop-color="#000" stop-opacity=".047"/><stop id="stop4492" offset="1" stop-color="#000" stop-opacity="0"/></linearGradient><style id="style4511"/><style id="style4511-26"/><style id="style4511-9"/><style id="style4552"/><style id="style4511-2"/><linearGradient xlink:href="#linearGradient4488" id="linearGradient4471" gradientUnits="userSpaceOnUse" gradientTransform="matrix(.3038 0 0 .3086 -62.47 2.206)" x1="288.112" y1="141.785" x2="287.575" y2="79.008"/><linearGradient xlink:href="#linearGradient3764-3" id="linearGradient1323" x1="3.112" y1="24.139" x2="45.136" y2="24.139" gradientUnits="userSpaceOnUse"/><radialGradient r="3.039" fy="11.358" fx="28.199" cy="11.358" cx="28.199" gradientTransform="matrix(.49163 0 0 .49418 25.256 242.375)" gradientUnits="userSpaceOnUse" id="radialGradient6518" xlink:href="#linearGradient6508"/><linearGradient id="linearGradient6508"><stop id="stop6510" offset="0" stop-color="#6d6f69" stop-opacity="1"/><stop id="stop6512" offset="1" stop-color="#555753" stop-opacity="1"/></linearGradient><radialGradient r="7.098" fy="23.203" fx="6.774" cy="23.203" cx="6.774" gradientTransform="matrix(1 0 0 .85911 0 3.733)" gradientUnits="userSpaceOnUse" id="radialGradient3306" xlink:href="#linearGradient3276"/><linearGradient id="linearGradient3276"><stop id="stop3278" offset="0" stop-color="#8ae234" stop-opacity="1"/><stop id="stop3280" offset="1" stop-color="#417e08" stop-opacity="1"/></linearGradient><radialGradient r="7.098" fy="23.203" fx="7.749" cy="23.203" cx="7.749" gradientTransform="matrix(1 0 0 .85911 0 3.733)" gradientUnits="userSpaceOnUse" id="radialGradient3290" xlink:href="#linearGradient3270"/><linearGradient id="linearGradient3270"><stop offset="0" id="stop3272" stop-color="#729fcf" stop-opacity="1"/><stop offset="1" id="stop3274" stop-color="#284d7f" stop-opacity="1"/></linearGradient><radialGradient r="7.098" fy="23.203" fx="6.774" cy="23.203" cx="6.774" gradientTransform="matrix(1 0 0 .85911 0 3.733)" gradientUnits="userSpaceOnUse" id="radialGradient4386" xlink:href="#linearGradient3276"/><radialGradient r="7.098" fy="24.163" fx="8.074" cy="24.163" cx="8.074" gradientTransform="matrix(1 0 0 .85911 0 3.733)" gradientUnits="userSpaceOnUse" id="radialGradient4358" xlink:href="#linearGradient4366"/><linearGradient id="linearGradient4366"><stop offset="0" id="stop4368-6" stop-color="#f13c3c" stop-opacity="1"/><stop offset="1" id="stop4370" stop-color="#910000" stop-opacity="1"/></linearGradient><radialGradient r="7.098" fy="24.003" fx="7.749" cy="24.003" cx="7.749" gradientTransform="matrix(1 0 0 .85911 0 3.733)" gradientUnits="userSpaceOnUse" id="radialGradient4314" xlink:href="#linearGradient4322"/><linearGradient id="linearGradient4322"><stop offset="0" id="stop4324" stop-color="#fcaf3e" stop-opacity="1"/><stop offset="1" id="stop4326" stop-color="#b95200" stop-opacity="1"/></linearGradient><radialGradient r="7.098" fy="24.003" fx="7.749" cy="24.003" cx="7.749" gradientTransform="matrix(1 0 0 .85911 0 3.733)" gradientUnits="userSpaceOnUse" id="radialGradient4286" xlink:href="#linearGradient4294"/><linearGradient id="linearGradient4294"><stop offset="0" id="stop4296" stop-color="#fdee71" stop-opacity="1"/><stop offset="1" id="stop4298" stop-color="#c4a000" stop-opacity="1"/></linearGradient><radialGradient r="7.098" fy="23.203" fx="7.099" cy="23.203" cx="7.099" gradientTransform="matrix(1 0 0 .85911 0 3.733)" gradientUnits="userSpaceOnUse" id="radialGradient4258" xlink:href="#linearGradient4266"/><linearGradient id="linearGradient4266"><stop offset="0" id="stop4268" stop-color="#e9b96e" stop-opacity="1"/><stop offset="1" id="stop4270" stop-color="#7b4c01" stop-opacity="1"/></linearGradient><radialGradient r="7.098" fy="23.683" fx="7.424" cy="23.683" cx="7.424" gradientTransform="matrix(1 0 0 .85911 0 3.733)" gradientUnits="userSpaceOnUse" id="radialGradient4230" xlink:href="#linearGradient3264"/><linearGradient id="linearGradient3264"><stop id="stop3266" offset="0" stop-color="#ad7fa8" stop-opacity="1"/><stop id="stop3268" offset="1" stop-color="#6a4970" stop-opacity="1"/></linearGradient><radialGradient r="7.098" fy="23.203" fx="7.749" cy="23.203" cx="7.749" gradientTransform="matrix(1 0 0 .85911 0 3.733)" gradientUnits="userSpaceOnUse" id="radialGradient4184" xlink:href="#linearGradient3270"/><radialGradient gradientUnits="userSpaceOnUse" gradientTransform="matrix(.49163 0 0 .49418 14.27 242.375)" r="3.039" fy="11.358" fx="28.199" cy="11.358" cx="28.199" id="radialGradient6514" xlink:href="#linearGradient6508"/><linearGradient gradientUnits="userSpaceOnUse" y2="-8.992" x2="50.355" y1="-8.776" x1="47.917" id="linearGradient4483" xlink:href="#linearGradient4485"/><linearGradient id="linearGradient4485"><stop id="stop4487" offset="0" stop-color="#caacc7" stop-opacity="1"/><stop id="stop4489" offset="1" stop-color="#75507b" stop-opacity="1"/></linearGradient><radialGradient gradientUnits="userSpaceOnUse" gradientTransform="matrix(.99993 .0137 -.00224 .86488 .066 3.822)" r="7.038" fy="28.613" fx="12.1" cy="28.613" cx="12.1" id="radialGradient4444" xlink:href="#linearGradient4238"/><linearGradient id="linearGradient4238"><stop offset="0" id="stop4240" stop-color="#ad7fa8" stop-opacity="1"/><stop offset="1" id="stop4242" stop-color="#75507b" stop-opacity="1"/></linearGradient></defs><style id="style4485" type="text/css"/><path d="M3.168 26.815v1.695c0 9.725 5.583 17.555 17.146 17.555h6.93c15.132 0 17.836-11.502 17.836-17.555v-1.695c0 6.054-2.704 17.555-17.836 17.555h-6.93c-11.563 0-17.146-7.83-17.146-17.555z" id="path4467" opacity="1" fill="url(#linearGradient4471)" fill-opacity="1" stroke="none" stroke-width="1.109" stroke-linecap="square" stroke-linejoin="bevel" stroke-miterlimit="4" stroke-dasharray="none" stroke-dashoffset="0" stroke-opacity=".078"/><path d="M3.28 28.55v-8.629c0-14.127 11.247-17.07 17.283-17.07h7.123c5.96 0 17.282 2.748 17.282 18.119v7.04c0 11.744-7.708 17.416-17.282 17.416h-7.123c-9.575 0-17.282-5.557-17.282-16.876z" id="path4469" opacity="1" fill="url(#linearGradient1323)" fill-opacity="1" stroke="#000" stroke-width=".337" stroke-linecap="square" stroke-linejoin="bevel" stroke-miterlimit="4" stroke-dasharray="none" stroke-dashoffset="0" stroke-opacity=".078"/><g id="g1590" transform="translate(53.522 -.358)"><g transform="matrix(.67667 0 0 .7114 -52.933 -161.735)" id="g1455" fill-opacity="1" stroke-linecap="square" stroke-miterlimit="4" stroke-opacity="1"><g id="g3137" transform="matrix(.99863 0 0 1.01755 15.277 212.77)" fill="#ad7fa8" stroke="none" stroke-width=".991" stroke-dasharray="none"><rect transform="matrix(.4888 .8724 -.85942 .51128 0 0)" y="-15.085" x="48.149" height="10.581" width="2.046" id="rect3135" ry=".359" opacity="1" fill="url(#linearGradient4483)" stroke-width=".991" stroke-linejoin="miter"/><path transform="matrix(-.42308 -.7328 .86603 -.5 17.07 56.212)" d="M15.602 26.595c0 3.036-1.74 5.418-6.102 5.405-3.866-.011-6.386-2.291-5.893-5.492z" id="path3133" fill="url(#radialGradient4444)" stroke-width="1.077" stroke-linejoin="round"/></g><circle r=".999" cy="248.799" cx="28.759" id="path3181" opacity="1" fill="#2e3436" stroke="url(#radialGradient6514)" stroke-width=".999" stroke-linejoin="miter" stroke-dasharray="none"/><g transform="translate(10.284 237.315) scale(.99863)" id="g4217" stroke="none" stroke-linejoin="miter" stroke-dasharray="none"><ellipse ry="5.5" rx="6.5" cy="26.5" cx="9.5" transform="matrix(.76923 0 0 .9091 .192 .41)" id="path2157" opacity="1" fill="url(#radialGradient4184)" stroke-width="1.196"/><ellipse ry="5.5" rx="6.5" cy="26.5" cx="9.5" transform="matrix(.61538 0 0 .72727 1.654 5.227)" id="path3183" opacity=".604" fill="none" stroke-width="1.495"/></g><g id="g4222" transform="translate(21.269 237.315) scale(.99863)" stroke="none" stroke-linejoin="miter" stroke-dasharray="none"><ellipse ry="5.5" rx="6.5" cy="26.5" cx="9.5" transform="matrix(.76923 0 0 .9091 .192 .41)" id="path4224" opacity="1" fill="url(#radialGradient4230)" stroke-width="1.196"/><ellipse ry="5.5" rx="6.5" cy="26.5" cx="9.5" transform="matrix(.61538 0 0 .72727 1.654 5.227)" id="path4226" opacity=".624" fill="none" stroke-width="1.495"/></g><g id="g4250" transform="translate(32.254 250.297) scale(.99863)" stroke="none" stroke-linejoin="miter" stroke-dasharray="none"><ellipse ry="5.5" rx="6.5" cy="26.5" cx="9.5" transform="matrix(.76923 0 0 .9091 .192 .41)" id="path4252" opacity="1" fill="url(#radialGradient4258)" stroke-width="1.196"/><ellipse ry="5.5" rx="6.5" cy="26.5" cx="9.5" transform="matrix(.61538 0 0 .72727 1.654 5.227)" id="path4254" opacity=".64" fill="none" stroke-width="1.495"/></g><g id="g4278" transform="translate(43.239 237.315) scale(.99863)" stroke="none" stroke-linejoin="miter" stroke-dasharray="none"><ellipse ry="5.5" rx="6.5" cy="26.5" cx="9.5" transform="matrix(.76923 0 0 .9091 .192 .41)" id="path4280" opacity="1" fill="url(#radialGradient4286)" stroke-width="1.196"/><ellipse ry="5.5" rx="6.5" cy="26.5" cx="9.5" transform="matrix(.61538 0 0 .72727 1.654 5.227)" id="path4282" opacity=".892" fill="none" stroke-width="1.495"/></g><g id="g4306" transform="translate(10.284 250.297) scale(.99863)" stroke="none" stroke-linejoin="miter" stroke-dasharray="none"><ellipse ry="5.5" rx="6.5" cy="26.5" cx="9.5" transform="matrix(.76923 0 0 .9091 .192 .41)" id="path4308" opacity="1" fill="url(#radialGradient4314)" stroke-width="1.196"/><ellipse ry="5.5" rx="6.5" cy="26.5" cx="9.5" transform="matrix(.61538 0 0 .72727 1.654 5.227)" id="path4310" opacity=".616" fill="none" stroke-width="1.495"/></g><g id="g4350" transform="translate(32.254 237.315) scale(.99863)" stroke="none" stroke-linejoin="miter" stroke-dasharray="none"><ellipse ry="5.5" rx="6.5" cy="26.5" cx="9.5" transform="matrix(.76923 0 0 .9091 .192 .41)" id="path4352" opacity="1" fill="url(#radialGradient4358)" stroke-width="1.196"/><ellipse ry="5.5" rx="6.5" cy="26.5" cx="9.5" transform="matrix(.61538 0 0 .72727 1.654 5.227)" id="path4354" opacity=".608" fill="none" stroke-width="1.495"/></g><g id="g4378" transform="translate(43.239 250.297) scale(.99863)" stroke="none" stroke-linejoin="miter" stroke-dasharray="none"><ellipse ry="5.5" rx="6.5" cy="26.5" cx="9.5" transform="matrix(.76923 0 0 .9091 .192 .41)" id="path4380" opacity="1" fill="url(#radialGradient4386)" stroke-width="1.196"/><ellipse ry="5.5" rx="6.5" cy="26.5" cx="9.5" transform="matrix(.61538 0 0 .72727 1.654 5.227)" id="path4382" opacity=".624" fill="none" stroke-width="1.495"/></g><path d="M54.07 252.383l-3.943-7.16c2.452-1.11 4.565.374 5.382 2.802.635 1.885.014 3.441-1.44 4.358z" id="path4499" opacity=".628" fill="none" stroke="none" stroke-width=".999" stroke-linejoin="miter"/><g id="g3282" transform="translate(21.269 250.297) scale(.99863)" stroke="none" stroke-linejoin="miter" stroke-dasharray="none"><ellipse ry="5.5" rx="6.5" cy="26.5" cx="9.5" transform="matrix(.76923 0 0 .9091 .192 .41)" id="path3284" opacity="1" fill="url(#radialGradient3290)" stroke-width="1.196"/><ellipse ry="5.5" rx="6.5" cy="26.5" cx="9.5" transform="matrix(.61538 0 0 .72727 1.654 5.227)" id="path3286" opacity=".6" fill="none" stroke-width="1.495"/></g><g id="g3298" transform="translate(10.284 224.333) scale(.99863)" stroke="none" stroke-linejoin="miter" stroke-dasharray="none"><ellipse ry="5.5" rx="6.5" cy="26.5" cx="9.5" transform="matrix(.76923 0 0 .9091 .192 .41)" id="path3300" opacity="1" fill="url(#radialGradient3306)" stroke-width="1.196"/><ellipse ry="5.5" rx="6.5" cy="26.5" cx="9.5" transform="matrix(.61538 0 0 .72727 1.654 5.227)" id="path3302" opacity=".648" fill="none" stroke-width="1.495"/></g><circle r=".999" cy="248.799" cx="39.744" id="path6516" opacity="1" fill="#2e3436" stroke="url(#radialGradient6518)" stroke-width=".999" stroke-linejoin="miter" stroke-dasharray="none"/></g></g></svg>