<svg xmlns="http://www.w3.org/2000/svg" xmlns:xlink="http://www.w3.org/1999/xlink" width="48" height="48" version="1.1" id="svg38"><defs id="defs22"><style id="style4511"/><style id="style4511-26"/><style id="style4511-9"/><linearGradient gradientUnits="userSpaceOnUse" x2="44" y2="24" x1="26.425" y1="37.11" id="a-7"><stop id="stop2-0" stop-color="#2980b9"/><stop id="stop4-9" stop-color="#1d99f3" offset="1"/></linearGradient><style id="style4552"/><style id="style4511-2"/><clipPath id="clipPath-886807824"/><clipPath id="clipPath-897244418"/><clipPath clipPathUnits="userSpaceOnUse" id="clipPath1850"><use x="0" y="0" xlink:href="#g1846" id="use1852" width="100%" height="100%"/></clipPath><linearGradient xlink:href="#a-7" id="linearGradient1691" x1="2.985" y1="23.808" x2="45.232" y2="23.808" gradientUnits="userSpaceOnUse"/></defs><style id="style4485" type="text/css"/><path d="M19.765 2.965h8.496c13.907 0 16.804 11.246 16.804 17.282v7.123c0 5.96-2.704 17.282-17.837 17.282h-6.93c-11.562 0-17.146-7.766-17.146-17.282v-7.123c0-9.575 5.47-17.282 16.613-17.282z" id="rect4144" opacity="1" fill="url(#linearGradient1691)" fill-opacity="1" stroke="#000" stroke-width=".334" stroke-linecap="square" stroke-linejoin="bevel" stroke-miterlimit="4" stroke-dasharray="none" stroke-dashoffset="0" stroke-opacity=".078"/><g id="g1848" clip-path="url(#clipPath1850)" transform="matrix(1.39203 0 0 1.38912 -3.212 -7.968)"><g id="g1846"><g id="g1642" transform="translate(20.409 11.658) scale(.2174)"><path id="path1640" d="M24 1c12.703 0 23 10.297 23 23S36.703 47 24 47 1 36.703 1 24 11.297 1 24 1z" fill="#5c5c5c" fill-opacity="1"/></g><g id="g1660" transform="translate(20.409 11.658) scale(.2174)"><g id="g1658"><g id="g1656" fill="#dcdcdc" fill-opacity="1" fill-rule="nonzero" stroke="none"><path id="path1652" d="M37.8 33.2v-4.6H24v4.6"/><path id="path1654" d="M15.653 30.44L12.5 27.098l6.638-5.858-6.638-5.854 3.153-3.346 10.187 9.2"/></g></g></g><g id="g1664" transform="translate(20.409 11.658) scale(.2174)"><path id="path1662" d="M40.03 7.531A22.922 22.922 0 0 1 45.999 23c0 12.703-10.297 23-23 23A22.92 22.92 0 0 1 7.53 40.031C11.708 44.322 17.54 47 23.999 47c12.703 0 23-10.298 23-23 0-6.462-2.677-12.291-6.969-16.469z" opacity=".1"/></g><g id="g1668" transform="translate(8.409 11.658) scale(.2174)"><path id="path1666" d="M24 1c12.703 0 23 10.297 23 23S36.703 47 24 47 1 36.703 1 24 11.297 1 24 1z" fill="#dd5938" fill-opacity="1"/></g><g id="g1672" transform="translate(8.409 11.658) scale(.2174)"><path id="path1670" d="M40.03 7.531A22.922 22.922 0 0 1 45.999 23c0 12.703-10.297 23-23 23A22.92 22.92 0 0 1 7.53 40.031C11.708 44.322 17.54 47 23.999 47c12.703 0 23-10.298 23-23 0-6.462-2.677-12.291-6.969-16.469z" opacity=".1"/></g><g id="g1680" transform="translate(8.017 11.7) scale(.77028)" fill-opacity="1" stroke="none"><path id="path1674" d="M3.387 4.404v4.063h6.491L7.056 4.77l-.282-.649H3.67a.303.303 0 0 0-.282.282z" fill="#ff8f00"/><path id="rect1676" fill="#fffdf0" d="M3.906 4.9h3.246v1.298H3.906z"/><path id="path1678" transform="translate(-.508 -47.808) scale(1.29822)" d="M5.826 40.501L5.609 41H3v3h6v-3.267c0-.116-.108-.232-.217-.232z" fill="#ffca28"/></g><g id="g1686" transform="translate(8.409 23.657) scale(.2174)" fill-opacity="1"><path id="path1682" d="M24 1c-2.27 0-4.462.334-6.533.947 1.534 1.053-1.25 2.02-3.205 1.215C6.429 6.829 1 14.779 1 24c0 7.505 3.595 14.169 9.156 18.367C16 45 32 45 39.84 40.668a23.039 23.039 0 0 0 5.494-8.07v-.002c.234-1.595.667-3.594 1.23-4.15h.002c.282-1.438.434-2.923.434-4.443 0-.118-.006-.234-.008-.352h-.002c-.992-.649-.556-1.182-.154-2.348a22.9 22.9 0 0 0-1.014-4.568c-1.826-.738-7.823-7.734-11.1-13.08a22.889 22.889 0 0 0-10.725-2.654z" fill="#1f9ad1"/><path id="path1684" d="M17.475 1.943c-1.152.34-2.267.767-3.336 1.275l.514 1.566-.621.346-.254.465.189 1.063.754.125 1.344-1.344 2.191-.844 1.75-2.129.719-.189-.031-.273zm8.582.443l-1.906.121.5.598.531-.5.344.219.5-.25zm6 .461l-.844.066-1.152 1.1.434.438.375.031.156-.254-.375-.314.719-.652h.656l.189-.191-.156-.223zm2.725.824l-.008.006-.498.299-.531.438-.225.047-.316-.438-.652-.063.152.75-1.188.059-1.219.25-2.053.941-.469-.475.064-.254 1-.09-1.496-.627-.879-.156-.941.191-1.406 1.217-.652.719-.25.031-.098.344.281.5.406-.281.25-.063.188.375.316.563.379-.25.031-.408.27-.189.066-.156-.188-.219-.156-.063.188-.41.785-.809.254.189v.125l-.223.25-.066.594.535.125.594.09-.314.441-.5-.031-.314.316-.012.441-.404.297-.273-.094-1.355.188.031-.229.156-.25-.277-.223-.191.281.125.279-.09.221-.313.125-.439-.221-.156.064.225.281-.281.463-1.162.504-.25.031-.156.223.281.191.436.752-.283.25-.656.125-.125-.281-.434.438-.191.721v.598l.754.406.594-.221.602-1.064.527-.652.969-.156.219-.188 1.098 1.281.121.438.313-.156-.09-.375h.188l-.125-.254-1.063-1 .094-.188.344-.031.75.75.375.441v.688l.566.5.277-.094-.152-.566.281-.563.439.156.156.063-.031-.5.406-1.158.563.098.094.313.221.156.254-.219-.156-.348h.656l-.225.375.814.564.219.438-1.219-.033-1.219.314-.125.189-.436.094.189.469.344.406.625-.219.156.275.275-.219.375.064-.09 1.186-.754-.094-.188.465-1.375-.25-.25-.316-.66.75-1.75-1.025v-.941l-.564.031-.027.313-1.375-.063-.439.4-.844.031-2.41 3-.031 1.625-.252 1.1 1.35 2.182.875.469.09-.375h1.563l.41-.188 1.527.658-.246 1.313.908 2.223-.246 1.434.188 1.781 1.063 2.502.158 1.281.346-.344 1.404-.09.971-1.5.063-.594.688-1.406.344-.754.813-.777s-.162-1.879-.313-2.813l1.658-2.252.41-.406.404-1 .064-.691h-.594l-.281.281-.908-.719-.281-.563-1.4-2.383-.406-.719-.094-.469.438-.063 1.125 2.156.846 1.473.602.602.535-.5.594-.156 1.377-1.469.031-.5-.656-.754-.25.152-.156.254-.404-.188-.406-.723-.434-.406v-.813l.275.531.943.879.406-.094.25.281 1.783-.035.938 1.098.125.277h.275l.096-.313.094.467.496 1.658.467 1.344.219.277.314-.188.094-.314.09-1.465 1.469-1.691.844-.406.219.75.5.652.094.531.346-.156-.033-.375.313.066.125 1.25.281.063.09-.313.41.535.844 1 .535-.469.035-1.598-.604-.563-.092-.566.566-.555.152.375-.188.598.375.156.156-.531-.156-.379.375-.156.441-.221a23.094 23.094 0 0 0-11.06-13.1m-23.01.852l-.305.709.621.094s-.191.314-.094.314c.098 0 .469-.406.469-.406zm6.939.875l-.121.406.621.344.523-.125.352-.344-.227-.281zm-7.279.273l-1.4.061.154.068.531.465.523.125zm-1.588.5s-.434.248-.852.404l-.006.004c-.091.079-.181.156-.271.236-.053.12-.029.23-.029.23l-.035.844-.688.563-.436.656s-.281-.188-.281-.313-.063-.471-.063-.471l-.008-.006c-.43.462-.841.943-1.232 1.439l.416.545.281.434s-.248.844-.313 1c-.063.156-.25-.313-.25-.313l-.156-.814-.531.225-.41.965.094-.811.021-.086a22.94 22.94 0 0 0-2.205 3.957h.393l1.125-.25.406.531-.063.625.469.406-.031-1.348.566-.625 1.094-1.34.281-.563.938-.496.625-.691s.934-.148 1.121-.254c.191-.09.066-.434-.125-.75-.191-.313.094-.625.094-.625l.719-.434.625.121.066.754s.59.563.781.465c.188-.09.27-.406.27-.406l-.313-.813.191-.813-.844.121V7.084l-.91.285-.09-.688zm11.643 1.01l-.25.219-.15.621.469.223.063.277-.25.254-.219.375.152.156 1.063-.314-.275-.375-.1-.654zm-.775 1.184l-.281.469.375.156.156-.281zm10.938 1.848l.375.154-.25.221 1.027 2.127-.406.189-.531-.344-.658-1.125-.129-.813zm-7.906 1.188l-.375.719.281.281.25-.223.031-.309zm.904 1.219l-.188.064.309.531.281-.221zM5.335 16.792l-1.123.16.531.277.594.121.346.471.404-.25-.063-.279zm-1.787.41l-.564.09-.848.844-.363-.047c-.053.201-.101.404-.148.607l.58.275 1.094.6.156.725.875.84.5-.375.475.469-.752 1.75.029 1.125.967 2.563 1.313 1.313.158 4.137.691 3.088 1.25 2.285 1.221.525-.75-1.287.25-.719-.656-.344.5-.375-.281-.936.496-.654.781-.189.125-.598-.469-.219.188-.5.75-.094 1.125-2.691.979-.473.309-1.063.094-1.531.844-1.715-1.031-.91-.854.066-1.344-.781-.836-1.469-.652.035-.875-1.188-1.781-.5h-.875v.004l-.008.004-1.813.652-.344-1.316-.688-.621v-.438l.531-.566zm39.11 3.176l.906 2.219.625.066-.281-.846zm-3.594.064l-.316.406.156.6.344-.375-.063-.475zm7.785.889l-1.168.643-.727.691.875 1.777 1.17-.76a23.398 23.398 0 0 0-.15-2.352zm-4.303.275l-.43.059 1.996 3 .531.594 1.313.064.814.254-.879-.625-1.25-.346-.314-1.154-.688-.564zm-10.494 4.867l-.406.814-.814.5.254.344.156.156-.41.344.156 1.158.344.094.41-.625.25-.406.438-1.938-.096-.439zm14.52 1.986c-.05.017-.115.036-.119.051-.02.086-.563.375-.563.375-.113 0-.467.656-.467.656l-.186 2.813.129.168c.52-1.3.928-2.658 1.205-4.062zm-34.34 11.797l-1.344 1.123.5.625-.75.375-.475-.023a22.897 22.897 0 0 0 13.842 4.633 22.917 22.917 0 0 0 15.832-6.324l-2.549.096-3.063.621s-1.477.793-1.656.754c-.18-.043.625-1.031.625-1.031l-1.439.09-.904-.75-.91.621-2.25.658-6.719.1-1.402 1h-5.434l-.781-.381-.621-1.563-.5-.621z" fill="#abd6ec"/></g><g id="g1702" transform="translate(8.409 23.657) scale(.2174)"><path id="path1700" d="M40.03 7.531A22.922 22.922 0 0 1 45.999 23c0 12.703-10.297 23-23 23A22.92 22.92 0 0 1 7.53 40.031C11.708 44.322 17.54 47 23.999 47c12.703 0 23-10.298 23-23 0-6.462-2.677-12.291-6.969-16.469z" opacity=".1"/></g><path id="path1704" d="M25.626 23.875zm.333.014c-.117 2.728 1.972 4.294 4.6 5.815a4.998 4.998 0 0 0-4.599-5.815zm-4.476 2.193a4.987 4.987 0 0 0-.856 2.792 4.999 4.999 0 0 0 6.195 4.856c-1.636-1.926-3.532-5.122-5.339-7.649z" fill="#ffb910" fill-opacity="1"/><path id="path1706" d="M25.626 23.875a4.988 4.988 0 0 0-4.143 2.201v.007c.926 3.188 3.191 6.106 5.339 7.649a5.008 5.008 0 0 0 3.736-4.03c-1.942-1.741-3.435-3.502-4.599-5.815a5.233 5.233 0 0 0-.333-.014z" fill="#f9f9f9" fill-rule="evenodd" stroke="none"/><path id="path1708" d="M24.626 26.875v4l3-2" fill="#2d2d2d" fill-opacity="1" fill-rule="nonzero" stroke="none"/><g id="g1712" transform="translate(20.409 23.659) scale(.21737)"><path id="path1710" d="M40.03 7.531A22.922 22.922 0 0 1 45.999 23c0 12.703-10.297 23-23 23A22.92 22.92 0 0 1 7.53 40.031C11.708 44.322 17.54 47 23.999 47c12.703 0 23-10.298 23-23 0-6.462-2.677-12.291-6.969-16.469z" opacity=".1"/></g></g></g></svg>