<svg xmlns="http://www.w3.org/2000/svg" xmlns:xlink="http://www.w3.org/1999/xlink" width="48" height="48" version="1.1" id="svg38"><defs id="defs22"><linearGradient id="linearGradient4488"><stop id="stop4490" offset="0" stop-color="#000" stop-opacity=".047"/><stop id="stop4492" offset="1" stop-color="#000" stop-opacity="0"/></linearGradient><style id="style4511"/><style id="style4511-26"/><style id="style4511-9"/><style id="style4552"/><style id="style4511-2"/><style id="style4511-8"/><style id="style4511-26-4"/><style id="style4511-9-7"/><style id="style4552-5"/><style id="style4511-2-8"/><style id="style4552-7"/><style id="style4552-6"/><style type="text/css" id="current-color-scheme"/><style id="style4552-9"/><linearGradient id="linearGradient8497"><stop id="stop8499" offset="0" stop-color="#b973b1" stop-opacity="1"/><stop id="stop8501" offset="1" stop-color="#883596" stop-opacity="1"/></linearGradient><linearGradient xlink:href="#linearGradient4488" id="linearGradient5151" gradientUnits="userSpaceOnUse" gradientTransform="translate(-63.016 2.216) scale(.3038)" x1="288.112" y1="141.785" x2="287.575" y2="79.008"/><linearGradient xlink:href="#linearGradient8497" id="linearGradient5178" x1="13.299" y1="7.676" x2="33.33" y2="41.263" gradientUnits="userSpaceOnUse"/><linearGradient gradientTransform="translate(1.029 -1034.056) scale(3.64128)" gradientUnits="userSpaceOnUse" y2="291.965" x2="6.35" y1="289.327" x1="6.35" id="linearGradient1862-0" xlink:href="#linearGradient8497"/><linearGradient xlink:href="#linearGradient8497" id="linearGradient5508" gradientUnits="userSpaceOnUse" x1="13.299" y1="7.676" x2="33.33" y2="41.263"/></defs><style id="style4485" type="text/css"/><style type="text/css" id="style4485-0"/><style id="style4485-4" type="text/css"/><style id="style4485-5" type="text/css"/><g id="g5145" transform="translate(-.231 -.5) scale(1.02754)" fill-opacity="1" stroke-linecap="square" stroke-linejoin="bevel" stroke-miterlimit="4" stroke-dasharray="none" stroke-dashoffset="0" stroke-opacity=".078"><path id="path5147" d="M2.623 26.443v1.668c0 9.575 5.583 17.282 17.145 17.282h6.93c15.133 0 17.837-11.322 17.837-17.282v-1.668c0 5.96-2.704 17.282-17.836 17.282h-6.93c-11.563 0-17.146-7.708-17.146-17.282z" opacity="1" fill="url(#linearGradient5151)" stroke="none" stroke-width="1.1"/><path id="path5149" d="M19.236 2.965h8.495c13.908 0 16.804 11.246 16.804 17.282v7.123c0 5.96-2.704 17.282-17.836 17.282h-6.93c-11.563 0-17.146-7.708-17.146-17.282v-7.123c0-9.575 5.47-17.282 16.613-17.282z" opacity="1" fill="url(#linearGradient5508)" stroke="#000" stroke-width=".334"/><path d="M19.236 2.965h8.495c13.908 0 16.804 11.246 16.804 17.282v7.123c0 5.96-2.704 17.282-17.836 17.282h-6.93c-11.563 0-17.146-7.708-17.146-17.282v-7.123c0-9.575 5.47-17.282 16.613-17.282z" id="path5300" opacity="1" fill="url(#linearGradient5178)" stroke="#000" stroke-width=".334"/></g><style type="text/css" id="style4485-8"/><path id="path22-0" d="M23.773 11.758c-.7.025-1.082.26-1.333.764-.16.323-.291.861-.291 1.197 0 1.23-1.243 2.352-2.605 2.352-.668 0-1.034-.184-2.387-1.197-.616-.461-1.006-.342-1.961.598-.908.894-.93 1.322-.126 2.388.332.441.668 1.03.747 1.308.195.69-.125 1.951-.638 2.512-.42.46-1.464.819-2.375.819-.866 0-1.178.492-1.178 1.857 0 1.062.04 1.207.405 1.449.223.148.867.335 1.432.416.565.08 1.217.272 1.447.425.486.323 1.05 1.479 1.056 2.164.003.497-.38 1.376-.774 1.776-.43.436-.745 1.228-.632 1.59.145.463 1.128 1.454 1.637 1.65.292.112.504.08.787-.12.827-.587 2.243-1.225 2.72-1.225.72 0 1.916.636 2.178 1.159.123.246.277.82.342 1.274.158 1.101.41 1.62.83 1.71.19.04.497.109.681.151.184.043.597.043.918 0 .839-.113 1.286-.737 1.427-1.995.128-1.15.235-1.334 1.082-1.876.86-.55 1.532-.657 2.194-.35.548.255.77.387 1.669.986.659.44 1.069.366 1.83-.33 1.146-1.049 1.17-1.503.144-2.7-.977-1.14-.99-2.544-.029-3.621.368-.413.698-.556 1.788-.774 1.645-.328 1.913-.597 1.917-1.932.005-1.334-.207-1.551-1.752-1.793-1.47-.23-1.94-.562-2.457-1.726-.43-.968-.31-1.535.606-2.864.47-.681.703-1.179.65-1.388-.122-.468-1.643-1.863-2.033-1.863-.18 0-.662.259-1.069.574-1.123.868-1.793 1.064-2.753.807-1.128-.302-1.529-.78-1.814-2.156-.327-1.582-.538-1.866-1.47-1.972a5.322 5.322 0 0 0-.81-.042z" opacity="1" fill="#fff" fill-opacity="1" fill-rule="nonzero" stroke="none" stroke-width="2.93" stroke-miterlimit="4" stroke-dasharray="none" stroke-opacity=".503"/><path id="path24-3" d="M24.15 19.463a4.817 4.817 0 0 1 4.818 4.818 4.817 4.817 0 0 1-4.817 4.817 4.817 4.817 0 0 1-4.817-4.817 4.817 4.817 0 0 1 4.817-4.818z" opacity="1" fill="url(#linearGradient1862-0)" fill-opacity="1" fill-rule="nonzero" stroke="none" stroke-width="2.93" stroke-miterlimit="4" stroke-dasharray="none" stroke-opacity=".503"/></svg>