<svg xmlns:osb="http://www.openswatchbook.org/uri/2009/osb" xmlns="http://www.w3.org/2000/svg" xmlns:xlink="http://www.w3.org/1999/xlink" width="48" height="48" version="1.1" id="svg38"><defs id="defs22"><linearGradient id="linearGradient4488"><stop id="stop4490" offset="0" stop-color="#000" stop-opacity=".047"/><stop id="stop4492" offset="1" stop-color="#000" stop-opacity="0"/></linearGradient><style id="style4511"/><style id="style4511-26"/><style id="style4511-9"/><style id="style4552"/><style id="style4511-2"/><linearGradient xlink:href="#linearGradient4488" id="linearGradient4540" gradientUnits="userSpaceOnUse" gradientTransform="matrix(.30797 0 0 .308 -63.79 1.983)" x1="288.112" y1="141.785" x2="287.575" y2="79.008"/><linearGradient osb:paint="solid" id="linearGradient5293"><stop id="stop5295" offset="0" stop-color="#9a89c0" stop-opacity="1"/></linearGradient><style id="style4511-8"/><style id="style4511-26-4"/><style id="style4511-9-8"/><style id="style4552-9"/><style id="style4511-2-4"/><linearGradient id="linearGradient3797"><stop offset="0" id="stop3799" stop-color="#e5e2dd"/><stop offset="1" id="stop3801" stop-color="#f2f1ee"/></linearGradient><linearGradient xlink:href="#linearGradient3797" id="linearGradient1931" x1="2.58" y1="23.874" x2="45.407" y2="23.874" gradientUnits="userSpaceOnUse"/><linearGradient gradientUnits="userSpaceOnUse" y2="375" x2="256" y1="138" x1="256" id="linearGradient4413" xlink:href="#linearGradient4295"/><linearGradient id="linearGradient4295"><stop id="stop4260" offset="0" stop-color="#000" stop-opacity="0"/><stop offset=".505" id="stop4262" stop-color="#000" stop-opacity="1"/><stop id="stop4264" offset="1" stop-color="#000" stop-opacity="0"/></linearGradient><filter height="1.181" y="-.091" width="1.204" x="-.102" id="filter4415" color-interpolation-filters="sRGB"><feGaussianBlur id="feGaussianBlur4417" stdDeviation="9.064"/></filter><filter height="1.023" y="-.011" width="1.026" x="-.013" id="filter4460" color-interpolation-filters="sRGB"><feGaussianBlur id="feGaussianBlur4462" stdDeviation="1.133"/></filter><linearGradient gradientTransform="translate(12.415 238.731) scale(.09333)" gradientUnits="userSpaceOnUse" y2="135.281" x2="256" y1="375" x1="256" id="linearGradient4470" xlink:href="#linearGradient4464"/><linearGradient id="linearGradient4464"><stop offset="0" id="stop4468" stop-color="#f5f5f5" stop-opacity="1"/><stop offset="1" id="stop4466" stop-color="#d7eff1" stop-opacity="1"/></linearGradient></defs><style id="style4485" type="text/css"/><style type="text/css" id="style4485-8"/><path id="path4516" d="M2.75 26.545v1.691c0 9.707 5.66 17.521 17.38 17.521h7.026c15.34 0 18.081-11.479 18.081-17.52v-1.692c0 6.042-2.74 17.52-18.08 17.52H20.13c-11.721 0-17.381-7.814-17.381-17.52z" opacity="1" fill="url(#linearGradient4540)" fill-opacity="1" stroke="none" stroke-width="1.115" stroke-linecap="square" stroke-linejoin="bevel" stroke-miterlimit="4" stroke-dasharray="none" stroke-dashoffset="0" stroke-opacity=".078"/><path id="path4518" d="M19.59 2.742h8.612c14.099 0 17.035 11.403 17.035 17.521v7.222c0 6.042-2.74 17.52-18.08 17.52H20.13c-11.721 0-17.381-7.814-17.381-17.52v-7.222c0-9.706 5.545-17.52 16.84-17.52z" opacity="1" fill="url(#linearGradient1931)" fill-opacity="1" stroke="#000" stroke-width=".339" stroke-linecap="square" stroke-linejoin="bevel" stroke-miterlimit="4" stroke-dasharray="none" stroke-dashoffset="0" stroke-opacity=".078"/><g id="g1904" transform="matrix(.91442 0 0 .83489 57.445 2.196)" fill-opacity="1" stroke="none"><g transform="matrix(.6675 0 0 .7181 -59.323 -162.25)" id="g1977" stroke-linecap="round" stroke-linejoin="round" stroke-miterlimit="4" stroke-dasharray="none" stroke-dashoffset="0" stroke-opacity="1"><path d="M23.255 240.712c10.111-10.014 13.065-9.905 23.637.886l8.466 8.641c10.573 10.791 10.636 13.762.525 23.776l-10.29 10.192c-10.11 10.014-13.064 9.905-23.636-.885l-8.467-8.642c-10.572-10.791-10.636-13.762-.525-23.776z" id="path1973" display="inline" opacity="1" fill="#546e8b" stroke-width=".404" enable-background="new"/><path id="path1969" d="M41.143 242.104c13.204 0 15.09 1.882 15.09 15.074v10.564c0 13.19-1.886 15.073-15.09 15.073H27.705c-13.203 0-15.09-1.882-15.09-15.073v-10.564c0-13.192 1.887-15.074 15.09-15.074z" display="inline" opacity="1" fill="#6697cc" stroke-width=".363" enable-background="new"/></g><g transform="matrix(.6675 0 0 .7181 -60.107 -162.444)" id="g1983" color="#000" visibility="visible" fill-rule="nonzero"><path id="path4405" d="M155.411 138v240s121.725-49.198 221.19-120.076c0-.022-.012-.04-.025-.064a.456.456 0 0 0-.045-.079.611.611 0 0 1-.05-.079.165.165 0 0 1-.026-.075C271.54 184.488 155.411 138 155.411 138z" style="marker:none" transform="translate(12.415 238.731) scale(.09333)" display="inline" overflow="visible" opacity=".4" fill="url(#linearGradient4413)" stroke-width="6" filter="url(#filter4415)" enable-background="accumulate"/><path id="path4454" d="M155.411 138v240s121.725-49.198 221.19-120.076c0-.022-.012-.04-.025-.064a.456.456 0 0 0-.045-.079.611.611 0 0 1-.05-.079.165.165 0 0 1-.026-.075C271.54 184.488 155.411 138 155.411 138z" style="marker:none" transform="translate(12.415 238.731) scale(.09333)" display="inline" overflow="visible" opacity=".1" fill="#000" stroke-width="6" filter="url(#filter4460)" enable-background="accumulate"/><path style="marker:none" d="M26.918 251.423v22.398s11.36-4.591 20.643-11.206l-.003-.006a.022.022 0 0 0-.004-.007l-.004-.007-.003-.007c-9.791-6.825-20.629-11.164-20.629-11.164z" id="path4360" display="inline" overflow="visible" fill="url(#linearGradient4470)" stroke-width=".56" enable-background="accumulate"/><path style="marker:none" d="M26.918 251.423v.187s10.764 4.308 20.522 11.09l.12-.085-.002-.006a.022.022 0 0 0-.004-.007l-.005-.007-.002-.007c-9.791-6.825-20.629-11.164-20.629-11.164z" id="path4472" display="inline" overflow="visible" fill="#fff" stroke-width=".56" enable-background="accumulate"/></g></g></svg>