<svg xmlns:osb="http://www.openswatchbook.org/uri/2009/osb" xmlns="http://www.w3.org/2000/svg" xmlns:xlink="http://www.w3.org/1999/xlink" width="48" height="48" version="1.1" id="svg38"><defs id="defs22"><linearGradient id="linearGradient4488"><stop id="stop4490" offset="0" stop-color="#000" stop-opacity=".047"/><stop id="stop4492" offset="1" stop-color="#000" stop-opacity="0"/></linearGradient><style id="style4511"/><style id="style4511-26"/><style id="style4511-9"/><style id="style4552"/><style id="style4511-2"/><linearGradient xlink:href="#linearGradient4488" id="linearGradient4540" gradientUnits="userSpaceOnUse" gradientTransform="matrix(.30902 0 0 .3038 -64.017 1.994)" x1="288.112" y1="141.785" x2="287.575" y2="79.008"/><linearGradient osb:paint="solid" id="linearGradient5293"><stop id="stop5295" offset="0" stop-color="#9a89c0" stop-opacity="1"/></linearGradient><clipPath id="clipPath-384196710"/><linearGradient gradientTransform="matrix(2.71523 0 0 2.90632 11.165 3.9)" x2="10.442" x1="3.669" gradientUnits="userSpaceOnUse" id="linear0"><stop id="stop1687" stop-color="#e2f4fb" stop-opacity="1"/><stop id="stop1689" offset="1" stop-color="#f9f9f9" stop-opacity="1"/></linearGradient><style id="current-color-scheme" type="text/css"/><style id="current-color-scheme-2" type="text/css"/><style id="current-color-scheme-6" type="text/css"/></defs><style id="style4485" type="text/css"/><path id="path4518" d="M19.792 3.03h8.642c14.146 0 17.093 11.247 17.093 17.282v7.123c0 5.96-2.75 17.282-18.143 17.282h-7.05c-11.76 0-17.44-7.708-17.44-17.282v-7.123c0-9.574 5.564-17.282 16.898-17.282z" opacity="1" fill="#2e5075" fill-opacity="1" stroke="#000" stroke-width=".337" stroke-linecap="square" stroke-linejoin="bevel" stroke-miterlimit="4" stroke-dasharray="none" stroke-dashoffset="0" stroke-opacity=".078"/><path id="path4516" d="M2.75 26.22v1.67c0 9.573 5.68 17.281 17.44 17.281h7.05c15.392 0 18.143-11.322 18.143-17.282v-1.668c0 5.96-2.75 17.282-18.143 17.282h-7.05c-11.76 0-17.44-7.708-17.44-17.282z" opacity="1" fill="url(#linearGradient4540)" fill-opacity="1" stroke="none" stroke-width="1.109" stroke-linecap="square" stroke-linejoin="bevel" stroke-miterlimit="4" stroke-dasharray="none" stroke-dashoffset="0" stroke-opacity=".078"/><path id="path4505-6" d="M20.76 14.123l-2.448 4.865v4.022c-.344.393-.72.789-1.111 1.17-1.288 1.257-2.732 2.356-3.698 2.67l-1.626-1.585-4.987 2.389V39.24h17.816V17.683c-1.073-2.27-2.253-3.118-3.945-3.56zM13.972 29.67h.002a32.615 32.615 0 0 1-.002 0zm-1.677.955h.003a36.49 36.49 0 0 1-.003 0z" style="marker:none" color="#000" display="inline" overflow="visible" visibility="visible" opacity=".05" fill="#fff" fill-opacity="0" fill-rule="nonzero" stroke="none" stroke-width="5.499"/><path id="path1722" d="M21.127 25.226l6.13 6.562 12.26-13.944-2.298-2.46-9.962 11.482-3.832-4.1m-2.298 2.46" fill="url(#linear0)" fill-rule="evenodd" stroke="none" stroke-width=".793"/><path id="rect4756" d="M10.877 7.265v6h6v-6zm1 1h4v4h-4z" opacity="1" fill="#dd7107" fill-opacity="1" stroke="none" stroke-width="2" stroke-miterlimit="4" stroke-dasharray="none" stroke-opacity="1"/><path id="rect4756-8" d="M10.877 33.265v6h6v-6zm1 1h4v4h-4z" opacity="1" fill="#da4453" fill-opacity="1" stroke="none" stroke-width="2" stroke-miterlimit="4" stroke-dasharray="none" stroke-opacity="1"/><path id="rect4756-8-9" d="M10.877 20.265v6h6v-6zm1 1h4v4h-4z" opacity="1" fill="#27ae60" fill-opacity="1" stroke="none" stroke-width="2" stroke-miterlimit="4" stroke-dasharray="none" stroke-opacity="1"/></svg>