<svg xmlns="http://www.w3.org/2000/svg" xmlns:xlink="http://www.w3.org/1999/xlink" width="48" height="48" version="1.1" id="svg38"><defs id="defs22"><linearGradient id="linearGradient4462"><stop offset="0" id="stop4464" stop-color="#ea2e5e" stop-opacity="1"/><stop offset="1" id="stop4466" stop-color="#e62b73" stop-opacity="1"/></linearGradient><linearGradient id="linearGradient4488"><stop id="stop4490" offset="0" stop-color="#000" stop-opacity=".047"/><stop id="stop4492" offset="1" stop-color="#000" stop-opacity="0"/></linearGradient><style id="style4511"/><style id="style4511-26"/><style id="style4511-9"/><style id="style4552"/><style id="style4511-2"/><linearGradient xlink:href="#linearGradient4488" id="linearGradient4471" gradientUnits="userSpaceOnUse" gradientTransform="translate(-62.47 2.216) scale(.3038)" x1="288.112" y1="141.785" x2="287.575" y2="79.008"/><linearGradient xlink:href="#linearGradient4462" id="linearGradient4468" x1="3.001" y1="23.808" x2="45.248" y2="23.808" gradientUnits="userSpaceOnUse"/></defs><style id="style4485" type="text/css"/><path d="M3.168 26.443v1.668c0 9.575 5.583 17.282 17.146 17.282h6.93c15.132 0 17.836-11.322 17.836-17.282v-1.668c0 5.96-2.704 17.282-17.836 17.282h-6.93c-11.563 0-17.146-7.708-17.146-17.282z" id="path4467" opacity="1" fill="url(#linearGradient4471)" fill-opacity="1" stroke="none" stroke-width="1.1" stroke-linecap="square" stroke-linejoin="bevel" stroke-miterlimit="4" stroke-dasharray="none" stroke-dashoffset="0" stroke-opacity=".078"/><path d="M19.781 2.965h8.495c13.908 0 16.805 11.246 16.805 17.282v7.123c0 5.96-2.705 17.282-17.837 17.282h-6.93c-11.563 0-17.146-7.708-17.146-17.282v-7.123c0-9.575 5.47-17.282 16.613-17.282z" id="path4469" opacity="1" fill="url(#linearGradient4468)" fill-opacity="1" stroke="#000" stroke-width=".334" stroke-linecap="square" stroke-linejoin="bevel" stroke-miterlimit="4" stroke-dasharray="none" stroke-dashoffset="0" stroke-opacity=".078"/><path d="M25.31 35.545c-1.267-.208-3.084-.913-4.21-1.634-2.473-1.585-4.088-3.344-5.087-5.54-.332-.73-.514-1.297-1.033-3.224a14.98 14.98 0 0 0-.356-1.173c-.114-.28-.119-.374-.07-1.307.047-.886.2-2.085.282-2.211.015-.024.053-.031.083-.02.1.06.194-.213.286-.834.05-.34.13-.697.176-.793a4.2 4.2 0 0 0 .174-.47c.114-.374.27-.662.75-1.388.21-.32.43-.668.488-.773.067-.124.14-.186.208-.172.065.019.172-.068.284-.215.489-.633 2.79-2.501 3.002-2.438.059.02.301-.061.54-.174.431-.204.622-.252.622-.154 0 .029-.063.09-.139.14-.134.088-.131.09.077.041a7.38 7.38 0 0 1 .444-.085c.155-.025.218-.061.196-.114-.02-.046.026-.09.111-.112.212-.054.543-.046.543.02 0 .071-.19.143-.34.13-.101-.02-.106 0-.03.048.077.05.078.06.006.061-.048 0-.072.02-.052.035.02.02.148-.021.285-.087.138-.066.39-.149.56-.184.21-.042.31-.09.31-.152 0-.078.098-.085.756-.052.415.02 1.041.083 1.392.137.637.098.637.098.874-.031.285-.155.743-.174.864-.039.044.05.165.133.27.184.17.083.18.083.109 0-.137-.155-.001-.151.525.019 1.698.536 3.082 1.49 4.109 2.834.244.318.258.462.027.268l-.132-.11.101.185a.86.86 0 0 1 .101.256c0 .038.163.32.363.627.45.691.575.924.545 1.01-.014.036-.212-.207-.443-.541-.23-.335-.571-.785-.758-1.001-.278-.323-.351-.378-.408-.31a.366.366 0 0 1-.206.103l-.138.02.136.25c.075.138.146.224.158.19.065-.184.367.058.504.402.044.112.163.343.263.512.1.17.17.32.154.335-.015.02-.107-.031-.203-.103l-.175-.13.12.194c.065.107.175.236.244.289.085.065.126.168.13.33.007.297.188.649.286.556.153-.145.185-.054.146.419-.028.348-.014.577.054.82.102.37.08.462-.069.29-.095-.111-.096-.111-.053 0 .09.244.16.61.14.753-.035.268-.142.157-.179-.187l-.036-.335-.008.356a6.143 6.143 0 0 1-.109.842c-.054.27-.082.597-.062.736.037.261.013.271-.22.085-.095-.076-.11-.062-.176.166-.054.191-.054.3.001.459.04.116.064.27.052.347-.027.174-.175.228-.175.063 0-.207-.084-.133-.339.3-.69 1.166-1.78 2.07-3.015 2.496-.728.25-1.216.344-2.037.388l-.74.04.366.107c.294.085.467.099.893.066.558-.043 1.213-.157 1.51-.263.119-.043.199-.045.24-.02.096.091-.762.45-1.271.53-.867.138-2.027-.019-3.05-.392-.696-.259-1.727-.932-1.569-1.024.03-.02.226.072.436.196.268.16.382.202.382.14 0-.113.04-.108.252.036.193.13.785.369 1.21.49.466.134.285-.029-.338-.302-1.97-.866-2.79-1.733-3.197-3.385-.15-.606.008-1.935.284-2.35.068-.107.125-.236.125-.289 0-.23.407-.838.825-1.232.736-.694 1.502-.982 2.495-.94.48.022.686.06 1.085.211.454.17 1.025.527.85.53-.041.001-.222-.056-.4-.125-.273-.106-.448-.128-1.066-.132-.868 0-1.292.112-1.91.523-.876.58-1.363 1.25-1.535 2.11-.116.576-.12.736-.029 1.308.052.33.089.426.154.402.055-.019.086.02.086.08 0 .204.47 1.033.798 1.403.787.892 2.06 1.46 3.268 1.46.627 0 1.133-.113 1.6-.358.187-.098.424-.218.525-.267.359-.172.582-.367.842-.74.144-.207.302-.377.35-.377.07 0 .066.029-.016.16-.275.428.37-.35.704-.849l.375-.559-.041-.367c-.04-.353-.034-.375.146-.552.172-.17.187-.221.207-.678.018-.408.006-.493-.07-.493-.072 0-.102-.109-.133-.465-.04-.473-.449-2.064-.544-2.12-.029-.019-.108-.17-.177-.34-.231-.574-.638-1.127-1.27-1.728-.912-.866-2.06-1.535-3.144-1.832-.923-.252-2.49-.16-3.605.211-.544.182-1.08.421-1.171.524-.041.047-.1.07-.132.052-.034-.02-.024-.071.021-.124.206-.233-.476.194-.915.574-.265.23-.492.424-.504.433-.013.02.04 0 .115-.02.124-.03.13-.02.062.097-.043.075-.27.214-.546.332-.465.2-.766.418-1.005.73-.096.126-.1.153-.025.124.053-.019.096-.019.096.028 0 .166-.16.35-.397.46-.524.24-1.446 1.523-1.94 2.7-.22.526-.216.508-.096.508.126 0 .117.135-.056.86-.253 1.056-.253 1.022.022 2.508.334 1.811.53 2.416.902 2.79.087.087.172.276.21.464.045.224.12.372.262.513.13.127.173.207.123.224-.097.033.208.462.486.683.14.112.244.149.356.128.246-.045.497.089.883.47.4.396.44.503.175.466-.17-.023-.174-.02-.09.103.048.07.226.237.396.372.239.19.3.271.27.36-.043.128.08.247.358.348.172.062.227.196.098.236-.04.02.203.248.539.523.378.31.632.48.669.447.096-.087.218-.061.22.047.002.12.112.244.503.577.247.21.309.237.46.198.139-.037.226-.02.422.112.39.248.626.348.828.348.2 0 .228.054.124.236-.054.096-.043.112.083.112.081 0 .308.052.505.116.448.145.634.154.522.027-.165-.19.009-.137.603.176.828.437 1.246.487 2.895.345.244-.02.323-.019.323.05 0 .051-.211.126-.6.216-.512.116-.784.139-1.833.15-.827.02-1.391-.019-1.714-.063zm-.842-8.707c0-.02-.076-.066-.17-.12l-.17-.097.146.12c.142.116.193.143.193.097zm8.483-6.087c-.02-.047-.035-.033-.038.034 0 .062.013.097.033.076.02-.02.022-.07.005-.112zM18.93 14.62c.076-.091.074-.095-.024-.022a.401.401 0 0 0-.108.1c0 .047.051.02.131-.08zm.7-.538c.062-.063.098-.116.08-.116a.472.472 0 0 0-.141.116c-.062.064-.098.116-.081.116a.47.47 0 0 0 .142-.116zm.776-.408c.203-.066.318-.075.361-.037.043.04.202.02.498-.075.239-.073.423-.145.41-.157-.014-.019-.21.037-.438.107-.312.098-.424.112-.459.06-.058-.09-.619.087-.86.271l-.164.126.176-.1c.098-.055.312-.144.476-.196zm1.776-.147c.179-.05.315-.1.302-.114-.03-.027-.667.145-.667.18s.006.033.365-.066zm1.022-.316l.246-.043h-.216a.885.885 0 0 0-.37.083c-.099.058-.11.076-.03.047.068-.023.234-.06.37-.083zm.489-.11c.02-.03-.021-.04-.089-.024-.144.037-.162.076-.034.076.049 0 .104-.026.123-.052zm1.99.019c-.021-.02-.074-.022-.119 0-.05.019-.034.033.037.034.065 0 .102-.019.081-.03zm-.37-.064a.408.408 0 0 0-.215 0c-.059.02-.008.027.108.027.119 0 .167-.02.108-.027zm-.614-.06a2.122 2.122 0 0 0-.493 0c-.144.019-.041.023.23.023s.39-.02.263-.024zm-.804-.05c-.02-.02-.073-.022-.118 0-.049.019-.034.033.037.034.066 0 .102-.019.081-.03zm-.417 13.96c-.627-.424-.86-.643-.86-.811 0-.09.022-.163.048-.163.089 0 1.138 1.033 1.115 1.098-.014.038-.14-.02-.303-.124zm-.323-1.076c-.325-.31-.43-.478-.298-.478.079 0 .686.655.686.74 0 .04-.007.074-.018.074a5.78 5.78 0 0 1-.37-.336zm3.607-1.271c-.172-.066-.065-.188.215-.244a3.67 3.67 0 0 0 .569-.176c.151-.064.286-.106.3-.094.014.019-.055.14-.153.287-.176.262-.179.263-.516.259a2.22 2.22 0 0 1-.415-.033zm1.848-1.3c-.166-.064-.173-.17-.034-.535.12-.314.243-.376.174-.087a9.52 9.52 0 0 0-.073.334l-.029.145.123-.131c.073-.078.14-.262.165-.45.023-.174.067-.303.097-.286.076.045.068.504-.014.813-.072.27-.137.301-.409.198zm-14.58-.73c-.02-.05-.037-.248-.037-.44 0-.252.02-.342.077-.324.091.029.145.857.055.857-.032 0-.075-.04-.095-.091zm14.822-1.358c-.096-.121-.125-.218-.098-.32.056-.21.202-.18.31.064.167.377.021.554-.212.257zm-14.835-.922c-.005-.33 0-.34.155-.334.131 0 .163.037.178.184.017.164-.173.49-.285.49-.023 0-.045-.152-.047-.34zm15.97-7.14c.01-.52.102-.696.175-.332.05.254-.014.702-.112.778-.053.04-.069-.071-.062-.446zm-8.095-.311c.025-.07.875-.399 1.032-.399.184 0-.147.213-.528.34-.425.141-.538.155-.504.06z" id="path4181-7-9" opacity="1" fill="#f6f6f6" fill-opacity="1" stroke="#000" stroke-width="0" stroke-miterlimit="4" stroke-dasharray="none" stroke-opacity="1"/></svg>