<svg xmlns="http://www.w3.org/2000/svg" xmlns:xlink="http://www.w3.org/1999/xlink" width="48" height="48" version="1.1" id="svg38"><defs id="defs22"><linearGradient id="linearGradient4488"><stop id="stop4490" offset="0" stop-color="#000" stop-opacity=".047"/><stop id="stop4492" offset="1" stop-color="#000" stop-opacity="0"/></linearGradient><style id="style4511"/><style id="style4511-26"/><style id="style4511-9"/><style id="style4552"/><style id="style4511-2"/><linearGradient gradientTransform="translate(-63.205 2.216) scale(.3038)" xlink:href="#linearGradient4488" id="linearGradient4160" x1="288.112" y1="141.785" x2="287.575" y2="79.008" gradientUnits="userSpaceOnUse"/></defs><style id="style4485" type="text/css"/><path d="M2.433 26.443v1.668c0 9.575 5.583 17.282 17.146 17.282h6.93c15.133 0 17.837-11.322 17.837-17.282v-1.668c0 5.96-2.704 17.282-17.837 17.282h-6.93c-11.563 0-17.146-7.708-17.146-17.282z" id="path4147" opacity="1" fill="url(#linearGradient4160)" fill-opacity="1" stroke="none" stroke-width="1.1" stroke-linecap="square" stroke-linejoin="bevel" stroke-miterlimit="4" stroke-dasharray="none" stroke-dashoffset="0" stroke-opacity=".078"/><path d="M19.046 2.965h8.495c13.908 0 16.805 11.246 16.805 17.282v7.123c0 5.96-2.704 17.282-17.837 17.282h-6.93c-11.562 0-17.146-7.708-17.146-17.282v-7.123c0-9.575 5.47-17.282 16.613-17.282z" id="rect4144" opacity="1" fill="#e3e7ea" fill-opacity="1" stroke="#000" stroke-width=".334" stroke-linecap="square" stroke-linejoin="bevel" stroke-miterlimit="4" stroke-dasharray="none" stroke-dashoffset="0" stroke-opacity=".078"/><path d="M10.655 38.57v-1.2h26.402v1.2z" id="path1496" opacity=".1" stroke-width="1.2"/><path d="M10.655 37.37V10.966h9.6v8.401h3.601v-8.4h9.601v8.4h3.6v18.001z" id="path1498" fill="#353535" stroke-width="1.2"/><path id="rect1500" fill="#a7a7a7" stroke-width="1.2" d="M11.855 12.167h7.201v7.201h-7.201z"/><path id="rect1502" fill="#a7a7a7" stroke-width="1.2" d="M25.056 12.167h7.201v7.201h-7.201z"/><path id="rect1504" fill="#a7a7a7" stroke-width="1.2" d="M11.855 20.568h7.201v7.201h-7.201z"/><path id="rect1506" fill="#a7a7a7" stroke-width="1.2" d="M20.256 20.568h7.201v7.201h-7.201z"/><path id="rect1508" fill="#a7a7a7" stroke-width="1.2" d="M28.657 20.568h7.201v7.201h-7.201z"/><path id="rect1510" fill="#a7a7a7" stroke-width="1.2" d="M11.855 28.969h7.201v7.201h-7.201z"/><path id="rect1512" fill="#a7a7a7" stroke-width="1.2" d="M20.256 28.969h7.201v7.201h-7.201z"/><path id="rect1514" fill="#a7a7a7" stroke-width="1.2" d="M28.657 28.969h7.201v7.201h-7.201z"/><path d="M14.435 17.57h2.479v.598H13.58v-.598c.27-.278.636-.653 1.1-1.122.467-.471.76-.775.879-.91.227-.256.385-.472.475-.648.091-.177.137-.352.137-.524a.871.871 0 0 0-.295-.682c-.195-.175-.45-.264-.763-.264-.224 0-.459.039-.707.117a4.21 4.21 0 0 0-.791.351v-.717a5.53 5.53 0 0 1 .802-.26c.248-.06.475-.088.681-.088.544 0 .977.135 1.301.408.324.272.485.635.485 1.09 0 .215-.04.42-.124.615-.08.192-.225.42-.439.682-.059.068-.245.265-.56.59-.314.324-.756.777-1.328 1.361" id="path1516" fill="#2d2d2d" stroke-width="1.2"/><path d="M29.23 15.338c.34.073.605.225.795.454.192.229.288.513.288.85 0 .519-.178.92-.534 1.2-.357.284-.863.426-1.52.426a3.64 3.64 0 0 1-.681-.068 4.842 4.842 0 0 1-.722-.193v-.685c.197.115.413.201.647.26.234.059.48.088.735.088.445 0 .783-.088 1.016-.264.234-.175.352-.431.352-.767 0-.31-.11-.55-.327-.725-.216-.175-.517-.264-.903-.264h-.613v-.583h.64c.35 0 .617-.07.802-.208.184-.14.277-.342.277-.605 0-.27-.096-.475-.288-.619-.19-.145-.463-.218-.82-.218-.194 0-.403.021-.625.063a5.685 5.685 0 0 0-.735.197v-.632c.27-.076.523-.131.757-.17.236-.037.46-.056.668-.056.539 0 .966.124 1.28.37.314.243.471.574.471.99 0 .291-.083.537-.25.739-.166.2-.403.337-.71.415" id="path1518" fill="#2d2d2d" stroke-width="1.2"/><path d="M15.777 21.936l-1.793 2.802h1.793v-2.802m-.186-.619h.893v3.421h.749v.59h-.749v1.238h-.707V25.33h-2.37v-.685l2.183-3.326" id="path1520" fill="#2d2d2d" stroke-width="1.2"/><path d="M22.619 21.32h2.788v.597h-2.138v1.287c.104-.035.207-.062.31-.077.104-.02.207-.028.31-.028.586 0 1.05.16 1.392.481.342.322.514.756.514 1.305 0 .565-.175 1.004-.527 1.319-.352.312-.847.468-1.487.468-.221 0-.445-.02-.676-.057a5.268 5.268 0 0 1-.707-.169v-.714a2.76 2.76 0 0 0 1.369.34c.405 0 .726-.106.963-.32.237-.213.355-.502.355-.868s-.118-.656-.355-.87c-.236-.213-.558-.32-.963-.32-.19 0-.38.022-.57.064-.188.042-.38.108-.577.197v-2.637" id="path1522" fill="#2d2d2d" stroke-width="1.2"/><path d="M32.233 23.66c-.32 0-.573.11-.76.327-.184.219-.277.517-.277.897 0 .376.093.675.277.896.188.219.44.327.76.327s.571-.11.756-.327c.187-.22.28-.52.28-.896 0-.38-.093-.678-.28-.897-.185-.218-.437-.326-.756-.326m1.41-2.225v.647a2.84 2.84 0 0 0-.541-.194 2.243 2.243 0 0 0-.538-.067c-.47 0-.827.159-1.075.475-.246.317-.387.795-.422 1.435.137-.204.312-.36.52-.468a1.45 1.45 0 0 1 .69-.166c.526 0 .942.16 1.247.481.307.32.461.754.461 1.305 0 .538-.16.972-.478 1.297-.319.325-.742.488-1.273.488-.607 0-1.072-.231-1.392-.696-.322-.467-.481-1.141-.481-2.025 0-.83.197-1.49.59-1.983.394-.494.923-.742 1.586-.742a2.9 2.9 0 0 1 .537.053c.183.035.374.088.57.159" id="path1524" fill="#2d2d2d" stroke-width="1.2"/><path d="M13.646 29.72h3.374v.302l-1.905 4.947h-.742l1.793-4.651h-2.521v-.598" id="path1526" fill="#2d2d2d" stroke-width="1.2"/><path d="M23.745 32.477c-.337 0-.604.09-.798.27-.192.18-.288.43-.288.746 0 .317.096.565.288.745.194.18.46.272.798.272.337 0 .603-.09.798-.272.194-.182.291-.43.291-.745 0-.317-.097-.565-.291-.745-.192-.18-.459-.271-.798-.271m-.71-.303a1.3 1.3 0 0 1-.715-.425 1.173 1.173 0 0 1-.253-.763c0-.42.149-.751.446-.995.3-.243.71-.366 1.23-.366.524 0 .933.123 1.23.366.298.244.447.575.447.995 0 .3-.085.555-.257.763-.17.21-.405.35-.707.425.342.08.609.235.798.468.192.232.288.516.288.851 0 .509-.156.899-.468 1.171-.31.273-.753.408-1.332.408-.578 0-1.025-.135-1.336-.408-.31-.272-.464-.662-.464-1.17 0-.336.096-.62.288-.852.192-.231.46-.387.802-.468m-.26-1.122c0 .273.083.484.252.636.172.153.41.228.718.228.305 0 .543-.075.714-.228.174-.152.26-.365.26-.636 0-.272-.086-.484-.26-.636-.171-.152-.409-.228-.714-.228-.307 0-.546.076-.718.228-.169.152-.253.365-.253.636" id="path1528" fill="#2d2d2d" stroke-width="1.2"/><path d="M30.648 34.86v-.647c.177.084.358.149.54.193.183.045.363.068.538.068.47 0 .826-.158 1.073-.472.249-.317.39-.796.425-1.438a1.38 1.38 0 0 1-.517.465c-.209.108-.44.162-.692.162-.526 0-.941-.159-1.249-.476-.304-.319-.457-.753-.457-1.304 0-.539.16-.972.478-1.297.32-.326.743-.489 1.273-.489.607 0 1.07.233 1.389.7.321.464.48 1.139.48 2.026 0 .827-.196 1.488-.59 1.982-.391.492-.919.738-1.581.738-.178 0-.359-.018-.541-.053a3.796 3.796 0 0 1-.57-.158m1.413-2.225c.32 0 .571-.11.756-.326.188-.219.281-.518.281-.897 0-.377-.093-.674-.28-.893-.185-.22-.438-.33-.757-.33-.32 0-.572.11-.76.33-.184.219-.277.516-.277.893 0 .38.093.678.278.897.187.218.44.326.76.326" id="path1530" fill="#2d2d2d" stroke-width="1.2"/></svg>