<svg xmlns:osb="http://www.openswatchbook.org/uri/2009/osb" xmlns="http://www.w3.org/2000/svg" xmlns:xlink="http://www.w3.org/1999/xlink" width="48" height="48" version="1.1" id="svg38"><defs id="defs22"><linearGradient id="linearGradient4488"><stop id="stop4490" offset="0" stop-color="#000" stop-opacity=".047"/><stop id="stop4492" offset="1" stop-color="#000" stop-opacity="0"/></linearGradient><style id="style4511"/><style id="style4511-26"/><style id="style4511-9"/><style id="style4552"/><style id="style4511-2"/><linearGradient xlink:href="#linearGradient4488" id="linearGradient4540" gradientUnits="userSpaceOnUse" gradientTransform="matrix(.30673 0 0 .3038 -63.522 1.994)" x1="288.112" y1="141.785" x2="287.575" y2="79.008"/><linearGradient osb:paint="solid" id="linearGradient5293"><stop id="stop5295" offset="0" stop-color="#9a89c0" stop-opacity="1"/></linearGradient><linearGradient osb:paint="solid" id="linearGradient5251"><stop id="stop5253" offset="0" stop-color="#2f343f" stop-opacity="1"/></linearGradient><linearGradient y2="348.038" x2="108.56" y1="330.553" x1="121.976" gradientTransform="matrix(-.08868 0 0 -.09525 46.815 51.533)" gradientUnits="userSpaceOnUse" id="linearGradient4177" xlink:href="#linearGradient4120"/><linearGradient id="linearGradient4120"><stop id="stop4122" offset="0" stop-color="#e6a240" stop-opacity=".996"/><stop id="stop4124" offset="1" stop-color="#eab261" stop-opacity=".275"/></linearGradient><linearGradient gradientTransform="matrix(-.65725 0 0 -.70591 167.013 279.232)" gradientUnits="userSpaceOnUse" y2="375.678" x2="211.404" y1="344.742" x1="211.404" id="linearGradient4134" xlink:href="#linearGradient4289"/><linearGradient id="linearGradient4289"><stop offset="0" id="stop4291" stop-color="#fdfdfb" stop-opacity="1"/><stop offset="1" id="stop4293" stop-color="#f0e9df" stop-opacity="1"/></linearGradient><filter height="1.028" y="-.014" width="1.021" x="-.011" id="filter4500" color-interpolation-filters="sRGB"><feGaussianBlur id="feGaussianBlur4502" stdDeviation="1.346"/></filter><linearGradient y2="375.408" x2="232.776" y1="344.742" x1="211.404" gradientTransform="translate(-1355.39 -2406.617) scale(7.41138)" gradientUnits="userSpaceOnUse" id="linearGradient4479" xlink:href="#linearGradient4486"/><linearGradient id="linearGradient4486"><stop offset="0" id="stop4488" stop-color="#000" stop-opacity="0"/><stop id="stop4490-2" offset=".67" stop-color="#000" stop-opacity="1"/><stop offset="1" id="stop4492-9" stop-color="#000" stop-opacity="0"/></linearGradient><filter height="1.221" y="-.11" width="1.17" x="-.085" id="filter4482" color-interpolation-filters="sRGB"><feGaussianBlur id="feGaussianBlur4484" stdDeviation="10.766"/></filter></defs><style id="style4485" type="text/css"/><path id="path4516" d="M2.75 26.22v1.669c0 9.574 5.638 17.282 17.312 17.282h6.998c15.278 0 18.008-11.323 18.008-17.282V26.22c0 5.96-2.73 17.282-18.008 17.282h-6.998c-11.674 0-17.311-7.708-17.311-17.282z" opacity="1" fill="url(#linearGradient4540)" fill-opacity="1" stroke="none" stroke-width="1.105" stroke-linecap="square" stroke-linejoin="bevel" stroke-miterlimit="4" stroke-dasharray="none" stroke-dashoffset="0" stroke-opacity=".078"/><path id="path4518" d="M28.295 44.734h-8.577c-14.042 0-16.966-11.329-16.966-17.408v-7.175c0-6.003 2.73-17.408 18.008-17.408h6.997c11.673 0 17.31 7.764 17.31 17.408v7.175c0 9.644-5.522 17.408-16.772 17.408z" opacity="1" fill="#666" fill-opacity="1" stroke="#000" stroke-width=".337" stroke-linecap="square" stroke-linejoin="bevel" stroke-miterlimit="4" stroke-dasharray="none" stroke-dashoffset="0" stroke-opacity=".078"/><g id="g1831" transform="matrix(1 0 0 .9784 0 .78)"><path transform="matrix(-.08868 0 0 -.09525 46.815 49.818)" id="path4473" d="M132.664 147.4c-14.297-.178-23.904 3.031-28.834 8.948-5.177 6.163-7.83 16.274-7.83 30.326v128.119c0 14.051 2.653 24.161 7.83 30.324 4.93 5.917 14.536 8.95 28.834 8.95h33.957l44.783 31.61 44.784-31.61h123.148c14.298 0 23.903-3.033 28.834-8.95 5.177-6.163 7.83-16.273 7.83-30.324V186.674c0-14.052-2.653-24.163-7.83-30.326-4.93-5.917-14.536-8.948-28.834-8.948h-181.75z" style="line-height:125%;-inkscape-font-specification:Ubuntu;text-align:center" font-style="normal" font-variant="normal" font-weight="400" font-stretch="normal" font-size="15" font-family="Ubuntu" letter-spacing="0" word-spacing="0" writing-mode="lr-tb" text-anchor="middle" display="inline" opacity=".2" fill="url(#linearGradient4479)" fill-opacity="1" stroke="none" stroke-width="2" filter="url(#filter4482)" enable-background="new"/><path transform="matrix(-.08868 0 0 -.09525 46.815 49.818)" style="line-height:125%;-inkscape-font-specification:Ubuntu;text-align:center" d="M132.664 147.4c-14.297-.178-23.904 3.031-28.834 8.948-5.177 6.163-7.83 16.274-7.83 30.326v128.119c0 14.051 2.653 24.161 7.83 30.324 4.93 5.917 14.536 8.95 28.834 8.95h33.957l44.783 31.61 44.784-31.61h123.148c14.298 0 23.903-3.033 28.834-8.95 5.177-6.163 7.83-16.273 7.83-30.324V186.674c0-14.052-2.653-24.163-7.83-30.326-4.93-5.917-14.536-8.948-28.834-8.948h-181.75z" id="path4494" font-style="normal" font-variant="normal" font-weight="400" font-stretch="normal" font-size="15" font-family="Ubuntu" letter-spacing="0" word-spacing="0" writing-mode="lr-tb" text-anchor="middle" display="inline" opacity=".1" fill="#000" fill-opacity="1" stroke="none" stroke-width="2" filter="url(#filter4500)" enable-background="new"/><g transform="matrix(.30145 0 0 .27293 5.02 21.539)" id="g1020" fill="#fff" color="#000" visibility="visible" fill-rule="nonzero" stroke="none"><path style="marker:none" d="M22.077 46.784c.463.52.966.999 1.51 1.44h3.272v-7.97h-4.782zm0-83.03h4.782v-7.968h-3.272c-.544.44-1.047.919-1.51 1.439zm7.97 84.47h4.78v-7.97h-4.78zm0-84.47h4.78v-7.968h-4.78zm7.968 84.47h4.781v-7.97h-4.781zm0-84.47h4.781v-7.968h-4.781zm7.969 84.47h4.78v-7.97h-4.78zm0-84.47h4.78v-7.968h-4.78zm7.968 84.47h4.782v-7.97h-4.782zm0-84.47h4.782v-7.968h-4.782zm7.97 84.47h4.78v-7.97h-4.78zm0-84.47h4.78v-7.968h-4.78zm7.968 84.47h4.781v-7.97H69.89zm0-84.47h4.781v-7.968H69.89zm7.969 84.47h4.78v-7.97h-4.78zm0-84.47h4.78v-7.968h-4.78zm7.968 84.47h4.782v-7.97h-4.782zm0-84.47h4.782v-7.968h-4.782zm7.97 84.47h4.78v-7.97h-4.78zm0-84.47h4.78v-7.968h-4.78zm7.968 84.47h3.271c.545-.441 1.047-.92 1.51-1.44v-6.53h-4.781zm0-84.47h4.781v-6.53c-.463-.52-.965-.998-1.51-1.438h-3.271z" id="path4282" display="inline" overflow="visible" opacity=".3" fill-opacity="1" stroke-width=".398" stroke-linecap="butt" stroke-linejoin="miter" stroke-miterlimit="4" stroke-dasharray="none" stroke-dashoffset="0" stroke-opacity="1" enable-background="accumulate"/><path id="path4505-6" d="M57.401-25.782l-7.01 14.275V.297a59.81 59.81 0 0 1-3.181 3.436c-3.686 3.686-7.819 6.91-10.583 7.832l-4.657-4.65-14.275 7.01v34.003h51v-63.264c-3.072-6.663-6.449-9.148-11.294-10.446zm-19.436 45.62c.001 0 .005.002.006 0a92.372 92.372 0 0 0-.006 0zm-4.8 2.802h.006c-.546.299-1.101.594-1.656.884.555-.29 1.104-.585 1.65-.884z" style="marker:none" display="inline" overflow="visible" opacity=".05" fill-opacity="0" stroke-width="7.969" enable-background="accumulate"/></g><path id="path1634" d="M38.302 30.007v-9.981c0-1.339-.235-2.302-.694-2.889-.438-.563-1.29-.852-2.557-.852h-3.012l-3.971-3.011-3.972 3.011h-10.92c-1.269 0-2.12.289-2.558.852-.459.587-.694 1.55-.694 2.889v9.981z" style="line-height:125%;-inkscape-font-specification:Ubuntu;text-align:center" font-style="normal" font-variant="normal" font-weight="400" font-stretch="normal" font-size="15" font-family="Ubuntu" letter-spacing="0" word-spacing="0" writing-mode="lr-tb" text-anchor="middle" display="inline" fill="#00c6f4" fill-opacity=".404" stroke="none" stroke-width=".184" enable-background="new"/><path id="path4163" d="M35.05 36.103c1.268.017 2.12-.305 2.558-.868.459-.587.694-1.55.694-2.888V20.495l-6.263-4.21-3.971-3.01-3.972 3.01L9.924 27.843v4.504c0 1.338.235 2.3.694 2.888.438.563 1.29.868 2.557.868h16.118z" style="line-height:125%;-inkscape-font-specification:Ubuntu;text-align:center" font-style="normal" font-variant="normal" font-weight="400" font-stretch="normal" font-size="15" font-family="Ubuntu" letter-spacing="0" word-spacing="0" writing-mode="lr-tb" text-anchor="middle" display="inline" fill="url(#linearGradient4134)" fill-opacity="1" stroke="none" stroke-width=".184" enable-background="new"/><path id="path4227" d="M32.626 30.007v-1.524H15.6v1.524z" display="inline" opacity="1" fill="#308092" fill-opacity="1" stroke-width=".184" enable-background="new"/><path id="path4171" d="M38.302 20.495v-.47c0-1.338-.235-2.3-.694-2.888-.438-.563-1.298-1.011-2.557-.852h-3.012z" style="line-height:125%;-inkscape-font-specification:Ubuntu;text-align:center" font-style="normal" font-variant="normal" font-weight="400" font-stretch="normal" font-size="15" font-family="Ubuntu" letter-spacing="0" word-spacing="0" writing-mode="lr-tb" text-anchor="middle" display="inline" opacity=".1" fill="url(#linearGradient4177)" fill-opacity="1" stroke="none" stroke-width=".184" enable-background="new"/><path d="M32.626 25.435v-1.524h-8.513v1.524z" id="path975" display="inline" opacity="1" fill="#308092" fill-opacity=".941" stroke-width=".184" enable-background="new"/><path id="path1008" d="M35.05 36.103c1.268.017 2.12-.305 2.558-.868.459-.587.694-1.55.694-2.889v-.38c0 1.338-.235 2.3-.694 2.888-.438.563-1.29.885-2.557.868H13.175c-1.268 0-2.12-.305-2.557-.868-.459-.587-.694-1.55-.694-2.889v.381c0 1.339.235 2.302.694 2.889.437.563 1.29.868 2.557.868h16.118z" style="line-height:125%;-inkscape-font-specification:Ubuntu;text-align:center" font-style="normal" font-variant="normal" font-weight="400" font-stretch="normal" font-size="15" font-family="Ubuntu" letter-spacing="0" word-spacing="0" writing-mode="lr-tb" text-anchor="middle" display="inline" fill="#fff" fill-opacity="1" stroke="none" stroke-width=".184" enable-background="new"/></g></svg>