<svg xmlns="http://www.w3.org/2000/svg" xmlns:xlink="http://www.w3.org/1999/xlink" width="48" height="48" version="1.1" id="svg38"><defs id="defs22"><linearGradient id="linearGradient4488"><stop id="stop4490" offset="0" stop-color="#000" stop-opacity=".047"/><stop id="stop4492" offset="1" stop-color="#000" stop-opacity="0"/></linearGradient><linearGradient id="linearGradient4154"><stop offset="0" id="stop2" stop-color="#000" stop-opacity="1"/><stop offset="1" id="stop4" stop-color="#000" stop-opacity="0"/></linearGradient><style id="style4511"/><style id="style4511-26"/><style id="style4511-9"/><style id="style4552"/><style id="style4511-2"/><linearGradient xlink:href="#linearGradient4488" id="linearGradient4548" gradientUnits="userSpaceOnUse" gradientTransform="matrix(.3038 0 0 .3022 -62.678 2.72)" x1="288.112" y1="141.785" x2="287.575" y2="79.008"/><style id="style4511-8"/><style id="style4511-26-4"/><style id="style4511-9-7"/><style id="style4552-3"/><style id="style4511-2-8"/><style id="style4552-7"/><style id="style4552-6"/><style id="style4552-73"/><style id="style4552-2"/><style id="style4511-7"/><style id="style4511-26-1"/><style id="style4511-9-4"/><style id="style4552-8"/><style id="style4511-2-5"/><style id="style4511-87"/><style id="style4511-26-7"/><style id="style4511-9-1"/><style id="style4552-83"/><style id="style4511-2-1"/><style id="style4511-8-0"/><style id="style4511-26-4-2"/><style id="style4511-9-7-7"/><style id="style4552-3-4"/><style id="style4511-2-8-0"/><style id="style4552-7-6"/><style id="style4552-6-1"/><style id="style4552-73-0"/><style id="style4552-2-4"/><style id="style4511-7-6"/><style id="style4511-26-1-6"/><style id="style4511-9-4-9"/><style id="style4552-8-4"/><style id="style4511-2-5-3"/><linearGradient gradientTransform="matrix(1 0 0 .54545 0 244)" gradientUnits="userSpaceOnUse" x2="0" y2="536.8" y1="547.8" id="b-70-6-5"><stop id="stop7-93-7-0" stop-color="#c6cdd1"/><stop id="stop9-6-5-0" stop-color="#e0e5e7" offset="1"/></linearGradient><filter height="1.241" y="-.121" width="1.08" x="-.04" id="filter1469" color-interpolation-filters="sRGB"><feGaussianBlur id="feGaussianBlur1471" stdDeviation="2.321"/></filter><linearGradient y2="156" x2="227" y1="156" x1="77" gradientTransform="matrix(0 .18326 -.18457 0 52.819 -3.596)" gradientUnits="userSpaceOnUse" id="linearGradient1205" xlink:href="#b-70-6-5"/><filter height="1.12" y="-.06" width="1.12" x="-.06" id="filter1422" color-interpolation-filters="sRGB"><feGaussianBlur id="feGaussianBlur1424" stdDeviation="3.75"/></filter><linearGradient gradientUnits="userSpaceOnUse" y2="236" x2="152" y1="124" x1="152" id="linearGradient982" xlink:href="#linearGradient4154"/><clipPath id="clipPath999-91-6" clipPathUnits="userSpaceOnUse"><path id="path1001-27-3" d="M152 68c-48.601 0-88 39.399-88 88s39.399 88 88 88 88-39.399 88-88-39.399-88-88-88z" style="marker:none" color="#000" display="inline" overflow="visible" visibility="visible" opacity="1" fill="#5d5d5d" fill-opacity="1" fill-rule="nonzero" stroke="none" stroke-width="3.826" stroke-linecap="butt" stroke-linejoin="round" stroke-miterlimit="4" stroke-dasharray="none" stroke-dashoffset="0" stroke-opacity="1" enable-background="accumulate"/></clipPath><filter height="1.12" y="-.06" width="1.12" x="-.06" id="filter1003" color-interpolation-filters="sRGB"><feGaussianBlur id="feGaussianBlur1005" stdDeviation="4.4"/></filter></defs><style id="style4485" type="text/css"/><style type="text/css" id="style4485-0"/><style id="style4485-4" type="text/css"/><style id="style4485-5" type="text/css"/><style id="style4485-3" type="text/css"/><style id="style4485-5-1" type="text/css"/><style id="style4485-1" type="text/css"/><style type="text/css" id="style4485-34"/><style id="style4485-0-0" type="text/css"/><style type="text/css" id="style4485-4-6"/><style type="text/css" id="style4485-5-0"/><style type="text/css" id="style4485-3-8"/><style type="text/css" id="style4485-5-1-3"/><style type="text/css" id="style4485-1-3"/><g id="g3223" stroke-miterlimit="4" stroke-dashoffset="0"><path d="M2.963 26.82v1.66c0 9.523 5.583 17.19 17.146 17.19h6.93c15.133 0 17.837-11.262 17.837-17.19v-1.66c0 5.928-2.704 17.191-17.836 17.191h-6.931c-11.563 0-17.146-7.667-17.146-17.191z" id="path4532" opacity="1" fill="url(#linearGradient4548)" fill-opacity="1" stroke="none" stroke-width="1.097" stroke-linecap="square" stroke-linejoin="bevel" stroke-dasharray="none" stroke-opacity=".078"/><path d="M19.576 3.465h8.496c13.908 0 16.804 11.188 16.804 17.191v7.086c0 5.928-2.704 17.191-17.837 17.191h-6.93c-11.563 0-17.146-7.667-17.146-17.191v-7.086c0-9.523 5.47-17.19 16.613-17.19z" id="path4534" opacity="1" fill="#b3b3b3" fill-opacity="1" stroke="#000" stroke-width=".333" stroke-linecap="square" stroke-linejoin="bevel" stroke-dasharray="none" stroke-opacity=".078"/><path d="M19.576 3.465h8.496c13.908 0 16.804 11.188 16.804 17.191v7.086c0 5.928-2.704 17.191-17.837 17.191h-6.93c-11.563 0-17.146-7.667-17.146-17.191v-7.086c0-9.523 5.47-17.19 16.613-17.19z" id="path4534-3" opacity="1" fill="#666" fill-opacity=".073" stroke="#000" stroke-width=".333" stroke-linecap="square" stroke-linejoin="bevel" stroke-dasharray="none" stroke-opacity=".078"/><ellipse ry="16.127" rx="16.242" transform="scale(1 -1)" cy="-24.26" cx="24.025" id="path4238" style="marker:none" color="#000" display="inline" overflow="visible" visibility="visible" opacity="1" fill="#5d5d5d" fill-opacity="1" fill-rule="nonzero" stroke="none" stroke-width="3.856" stroke-linecap="butt" stroke-linejoin="miter" stroke-dasharray="11.56725092,11.56725092" stroke-opacity="1" enable-background="accumulate"/><path id="circle1007" d="M7.783 24.26A16.242 16.127 0 0 1 24.025 8.133 16.242 16.127 0 0 1 40.268 24.26z" style="marker:none" color="#000" display="inline" overflow="visible" visibility="visible" opacity=".05" fill="#000" fill-opacity="1" fill-rule="nonzero" stroke="none" stroke-width="3.856" stroke-linecap="butt" stroke-linejoin="miter" stroke-dasharray="11.56725092,11.56725092" stroke-opacity="1" enable-background="accumulate"/><path clip-path="url(#clipPath999-91-6)" id="path962" d="M152 70c-48.601 0-88 39.399-88 88s39.399 88 88 88 88-39.399 88-88-39.399-88-88-88z" style="marker:none" transform="matrix(.18457 0 0 .18326 -4.03 -4.33)" color="#000" display="inline" overflow="visible" visibility="visible" opacity=".2" fill="#4d4d4d" fill-opacity="1" fill-rule="nonzero" stroke="url(#linearGradient982)" stroke-width="54.794" stroke-linecap="butt" stroke-linejoin="round" stroke-dasharray="none" stroke-opacity="1" filter="url(#filter1003)" enable-background="accumulate"/><path transform="matrix(.18457 0 0 .18326 .849 3.08)" d="M125.568 192.568c-41.421 0-75-33.579-75-75 0-41.422 33.579-75 75-75 41.422 0 75 33.578 75 75 0 41.421-33.578 75-75 75z" id="path1414" display="inline" opacity=".2" fill="#000" fill-opacity="1" stroke="none" stroke-width="87.67" stroke-linecap="round" stroke-linejoin="round" stroke-dasharray="none" stroke-opacity="1" filter="url(#filter1422)" enable-background="new"/><path id="path949-0" d="M24.025 38.005c-7.645 0-13.843-6.154-13.843-13.745 0-7.59 6.198-13.745 13.843-13.745S37.868 16.67 37.868 24.26c0 7.591-6.198 13.745-13.843 13.745z" display="inline" opacity="1" fill="url(#linearGradient1205)" fill-opacity="1" stroke="none" stroke-width="16.124" stroke-linecap="round" stroke-linejoin="round" stroke-dasharray="none" stroke-opacity="1" enable-background="new"/><ellipse ry="5.864" rx="5.906" cy="24.26" cx="24.025" id="ellipse971" display="inline" opacity=".05" fill="#000" fill-opacity="1" stroke="none" stroke-width="16.124" stroke-linecap="round" stroke-linejoin="round" stroke-dasharray="none" stroke-opacity="1" enable-background="new"/><ellipse id="ellipse966" cx="24.025" cy="24.26" rx="3.691" ry="3.665" display="inline" opacity="1" fill="#fff" fill-opacity="1" stroke="none" stroke-width="16.124" stroke-linecap="round" stroke-linejoin="round" stroke-dasharray="none" stroke-opacity="1" enable-background="new"/><g transform="matrix(.18457 0 0 .18326 -4.03 -4.33)" id="g1374" opacity=".1" fill="#000" fill-opacity="1" stroke-width="87.67" stroke="none" stroke-linecap="round" stroke-linejoin="round" stroke-dasharray="none" stroke-opacity="1"><circle id="path973" cx="53.636" cy="185.1" r="2" transform="rotate(-30)" opacity="1"/><circle r="2" cy="237.1" cx="53.636" id="circle975" transform="rotate(-30)" opacity="1"/><circle r="2" cy="183.636" cx="-59.1" id="circle1308" transform="rotate(-60)" opacity="1"/><circle id="circle1310" cx="-59.1" cy="235.636" r="2" transform="rotate(-60)" opacity="1"/><circle id="circle1314" cx="-156" cy="126" r="2" transform="rotate(-90)" opacity="1"/><circle r="2" cy="178" cx="-156" id="circle1316" transform="rotate(-90)" opacity="1"/><circle r="2" cy="27.636" cx="-211.1" id="circle1320" transform="rotate(-120)" opacity="1"/><circle id="circle1322" cx="-211.1" cy="79.636" r="2" transform="rotate(-120)" opacity="1"/><circle transform="rotate(-150 152 156)" r="2" cy="130" cx="152" id="circle1326" display="inline" opacity="1" enable-background="new"/><circle transform="rotate(-150 152 156)" id="circle1328" cx="152" cy="182" r="2" display="inline" opacity="1" enable-background="new"/><circle r="2" cy="-182" cx="-152" id="circle1332" transform="scale(-1)" opacity="1"/><circle id="circle1334" cx="-152" cy="-130" r="2" transform="scale(-1)" opacity="1"/></g><ellipse ry="2.932" rx="2.953" cy="24.26" cx="24.025" id="ellipse1434" display="inline" opacity=".1" fill="#000" fill-opacity="1" stroke="none" stroke-width="16.124" stroke-linecap="round" stroke-linejoin="round" stroke-dasharray="none" stroke-opacity="1" enable-background="new"/><ellipse ry=".733" rx=".738" cy="24.26" cx="24.025" id="ellipse1438" display="inline" opacity="1" fill="#888" fill-opacity="1" stroke="none" stroke-width="16.124" stroke-linecap="round" stroke-linejoin="round" stroke-dasharray="none" stroke-opacity="1" enable-background="new"/><path transform="matrix(.18457 0 0 .18326 .849 3.08)" d="M177.073 159.4S59.08 203.44 52.677 205.157c-6.402 1.715-12.982-2.084-14.697-8.485-1.715-6.402 2.084-12.982 8.485-14.697 6.402-1.716 130.608-22.573 130.608-22.573z" id="path1467" display="inline" opacity=".2" fill="#000" fill-opacity="1" stroke="none" stroke-width="87.67" stroke-linecap="round" stroke-linejoin="round" stroke-dasharray="none" stroke-opacity="1" filter="url(#filter1469)" enable-background="new"/><path id="path1038" d="M33.532 31.927s-21.779 8.07-22.96 8.385a2.217 2.217 0 0 1-2.713-1.555 2.198 2.198 0 0 1 1.566-2.694c1.181-.314 24.107-4.136 24.107-4.136z" display="inline" opacity="1" fill="#fff" fill-opacity="1" stroke="none" stroke-width="16.124" stroke-linecap="round" stroke-linejoin="round" stroke-dasharray="none" stroke-opacity="1" enable-background="new"/><ellipse ry=".733" rx=".738" cy="38.188" cx="9.998" id="path1041" display="inline" opacity="1" fill="gray" fill-opacity="1" stroke="none" stroke-width="16.124" stroke-linecap="round" stroke-linejoin="round" stroke-dasharray="none" stroke-opacity="1" enable-background="new"/><path id="circle1473" d="M9.998 9.599a.738.733 0 0 0-.739.733.738.733 0 0 0 .739.733.738.733 0 0 0 .738-.733.738.733 0 0 0-.738-.733zm28.055 0a.738.733 0 0 0-.739.733.738.733 0 0 0 .739.733.738.733 0 0 0 .738-.733.738.733 0 0 0-.738-.733zm0 27.856a.738.733 0 0 0-.739.733.738.733 0 0 0 .739.733.738.733 0 0 0 .738-.733.738.733 0 0 0-.738-.733z" display="inline" opacity=".1" fill="#000" fill-opacity="1" stroke="none" stroke-width="16.124" stroke-linecap="round" stroke-linejoin="round" stroke-dasharray="none" stroke-opacity="1" enable-background="new"/></g></svg>