<svg xmlns:osb="http://www.openswatchbook.org/uri/2009/osb" xmlns="http://www.w3.org/2000/svg" xmlns:xlink="http://www.w3.org/1999/xlink" width="48" height="48" version="1.1" id="svg38"><defs id="defs22"><linearGradient id="linearGradient4488"><stop id="stop4490" offset="0" stop-color="#000" stop-opacity=".047"/><stop id="stop4492" offset="1" stop-color="#000" stop-opacity="0"/></linearGradient><style id="style4511"/><style id="style4511-26"/><style id="style4511-9"/><style id="style4552"/><style id="style4511-2"/><linearGradient xlink:href="#linearGradient4488" id="linearGradient4546" gradientUnits="userSpaceOnUse" gradientTransform="translate(-62.497 1.994) scale(.3038)" x1="288.112" y1="141.785" x2="287.575" y2="79.008"/><style id="style4511-8"/><style id="style4511-26-4"/><style id="style4511-9-7"/><style id="style4552-3"/><style id="style4511-2-8"/><style id="style4552-7"/><style id="style4552-6"/><style id="style4552-73"/><style id="style4552-2"/><linearGradient osb:paint="solid" id="linearGradient5251"><stop id="stop5253" offset="0" stop-color="#2f343f" stop-opacity="1"/></linearGradient></defs><style id="style4485" type="text/css"/><style type="text/css" id="style4485-0"/><style id="style4485-4" type="text/css"/><style id="style4485-5" type="text/css"/><style id="style4485-3" type="text/css"/><style id="style4485-5-1" type="text/css"/><g id="g1882"><path id="path4528" d="M3.141 26.22v1.67c0 9.573 5.583 17.281 17.146 17.281h6.93c15.133 0 17.837-11.322 17.837-17.282v-1.668c0 5.96-2.704 17.282-17.837 17.282h-6.93c-11.563 0-17.146-7.708-17.146-17.282z" opacity="1" fill="url(#linearGradient4546)" fill-opacity="1" stroke="none" stroke-width="1.1" stroke-linecap="square" stroke-linejoin="bevel" stroke-miterlimit="4" stroke-dasharray="none" stroke-dashoffset="0" stroke-opacity=".078"/><path id="path4530" d="M19.754 2.742h8.495c13.908 0 16.805 11.247 16.805 17.282v7.124c0 5.96-2.704 17.282-17.837 17.282h-6.93c-11.562 0-17.146-7.708-17.146-17.282v-7.124c0-9.574 5.47-17.282 16.613-17.282z" opacity="1" fill="#ececec" fill-opacity="1" stroke="#000" stroke-width=".334" stroke-linecap="square" stroke-linejoin="bevel" stroke-miterlimit="4" stroke-dasharray="none" stroke-dashoffset="0" stroke-opacity=".078"/><g id="g1846" fill="#bc1938" fill-opacity="1" stroke="none" stroke-width="1.8" stroke-linecap="round" stroke-linejoin="miter" stroke-miterlimit="4" stroke-dasharray="none" stroke-dashoffset="0" stroke-opacity="1"><path d="M12.66 3.87A14.34 14.34 0 0 0 8.67 6.3l1.045 1.076L4.5 13.081h6.213L16.1 7.372c-.958-.959-2.18-2.21-3.441-3.502z" id="path5889" opacity="1"/><path d="M17.63 2.683c-1.894.184-3.605.606-5.124 1.242l3.35 3.451-5.215 5.705h6.212l5.387-5.709a654.746 654.746 0 0 1-4.61-4.69z" id="path5893" opacity="1"/><path d="M19.793 2.576c-.82 0-1.6.053-2.358.134l4.531 4.666-5.214 5.705h6.212l5.387-5.709C27.04 6.06 25.352 4.33 23.638 2.576z" id="path5895" opacity="1"/><path d="M23.445 2.575l4.662 4.801-5.215 5.705h6.213l5.387-5.709c-1.297-1.299-2.963-3.005-4.66-4.742a23.988 23.988 0 0 0-1.545-.055z" id="path5897" opacity="1"/><path d="M29.636 2.613l4.625 4.763-5.215 5.705h6.213l5.381-5.703c-.052-.056-.103-.114-.156-.17-.093-.093-.227-.232-.324-.33-2.345-2.31-5.72-4-10.524-4.265z" id="path5899" opacity="1"/><path d="M38.72 5.644l1.682 1.732-5.217 5.705h6.213l1.78-1.884c-.981-2.062-2.405-4.024-4.458-5.553z" id="path5901" opacity="1"/><path d="M43.107 11.054l-1.853 2.027h2.705a18.183 18.183 0 0 0-.852-2.027z" id="path5903" opacity="1"/><path d="M8.914 6.103c-2.19 1.804-3.761 4.195-4.692 6.978h.553l5.387-5.709c-.348-.347-.84-.856-1.248-1.27z" id="path5905" opacity="1"/></g><path id="path4568" d="M4.713 14.356a.34.34 0 0 1-.345-.335.34.34 0 0 1 .345-.334c.19 0 .344.15.344.334a.34.34 0 0 1-.344.335zm1.379 0a.34.34 0 0 1-.345-.335.34.34 0 0 1 .345-.334c.19 0 .344.15.344.334a.34.34 0 0 1-.344.335zm1.379 0a.34.34 0 0 1-.345-.335.34.34 0 0 1 .345-.334c.19 0 .345.15.345.334a.34.34 0 0 1-.345.335zm1.379 0a.34.34 0 0 1-.345-.335.34.34 0 0 1 .345-.334c.19 0 .345.15.345.334a.34.34 0 0 1-.345.335zm1.379 0a.34.34 0 0 1-.345-.335.34.34 0 0 1 .345-.334c.19 0 .345.15.345.334a.34.34 0 0 1-.345.335zm1.379 0a.34.34 0 0 1-.345-.335.34.34 0 0 1 .345-.334c.19 0 .345.15.345.334a.34.34 0 0 1-.345.335zm1.38 0a.34.34 0 0 1-.346-.335.34.34 0 0 1 .345-.334c.19 0 .345.15.345.334a.34.34 0 0 1-.345.335zm1.378 0a.34.34 0 0 1-.345-.335.34.34 0 0 1 .345-.334c.19 0 .345.15.345.334a.34.34 0 0 1-.345.335zm1.38 0a.34.34 0 0 1-.346-.335.34.34 0 0 1 .345-.334c.19 0 .345.15.345.334a.34.34 0 0 1-.345.335zm1.378 0a.34.34 0 0 1-.344-.335.34.34 0 0 1 .344-.334c.19 0 .345.15.345.334a.34.34 0 0 1-.345.335zm1.38 0a.34.34 0 0 1-.345-.335.34.34 0 0 1 .344-.334c.19 0 .345.15.345.334a.34.34 0 0 1-.345.335zm1.378 0a.34.34 0 0 1-.344-.335.34.34 0 0 1 .344-.334c.19 0 .345.15.345.334a.34.34 0 0 1-.345.335zm1.38 0a.34.34 0 0 1-.345-.335.34.34 0 0 1 .345-.334c.19 0 .344.15.344.334a.34.34 0 0 1-.344.335zm1.379 0a.34.34 0 0 1-.345-.335.34.34 0 0 1 .345-.334c.19 0 .344.15.344.334a.34.34 0 0 1-.344.335zm1.379 0a.34.34 0 0 1-.345-.335.34.34 0 0 1 .345-.334c.19 0 .345.15.345.334a.34.34 0 0 1-.345.335zm1.379 0a.34.34 0 0 1-.345-.335.34.34 0 0 1 .345-.334c.19 0 .345.15.345.334a.34.34 0 0 1-.345.335zm1.379 0a.34.34 0 0 1-.345-.335.34.34 0 0 1 .345-.334c.19 0 .345.15.345.334a.34.34 0 0 1-.345.335zm1.379 0a.34.34 0 0 1-.345-.335.34.34 0 0 1 .345-.334c.19 0 .345.15.345.334a.34.34 0 0 1-.345.335zm1.38 0a.34.34 0 0 1-.346-.335.34.34 0 0 1 .345-.334c.19 0 .345.15.345.334a.34.34 0 0 1-.345.335zm1.378 0a.34.34 0 0 1-.345-.335.34.34 0 0 1 .345-.334c.19 0 .345.15.345.334a.34.34 0 0 1-.345.335zm1.38 0a.34.34 0 0 1-.346-.335.34.34 0 0 1 .345-.334c.19 0 .345.15.345.334a.34.34 0 0 1-.345.335zm1.378 0a.34.34 0 0 1-.344-.335.34.34 0 0 1 .344-.334c.19 0 .345.15.345.334a.34.34 0 0 1-.345.335zm1.38 0a.34.34 0 0 1-.345-.335.34.34 0 0 1 .344-.334c.19 0 .345.15.345.334a.34.34 0 0 1-.345.335zm1.378 0a.34.34 0 0 1-.344-.335.34.34 0 0 1 .344-.334c.19 0 .345.15.345.334a.34.34 0 0 1-.345.335zm1.38 0a.34.34 0 0 1-.345-.335.34.34 0 0 1 .345-.334c.19 0 .344.15.344.334a.34.34 0 0 1-.344.335zm1.379 0a.34.34 0 0 1-.345-.335.34.34 0 0 1 .345-.334c.19 0 .344.15.344.334a.34.34 0 0 1-.344.335zm1.379 0a.34.34 0 0 1-.345-.335.34.34 0 0 1 .345-.334c.19 0 .344.15.344.334a.34.34 0 0 1-.344.335zm1.379 0a.34.34 0 0 1-.345-.335.34.34 0 0 1 .345-.334c.19 0 .345.15.345.334a.34.34 0 0 1-.345.335zm1.379 0a.34.34 0 0 1-.345-.335.34.34 0 0 1 .345-.334c.19 0 .345.15.345.334a.34.34 0 0 1-.345.335z" style="marker:none" color="#000" display="inline" overflow="visible" visibility="visible" opacity=".4" fill="#4d4d4d" fill-opacity="1" stroke="none" stroke-width="1.018"/><path id="path3233" word-spacing="0" style="line-height:125%;-inkscape-font-specification:'DejaVu Serif';marker:none" overflow="visible" letter-spacing="0" font-weight="400" font-size="13.717" d="M13.761 17.124l-3.693 10.52H9.16v.81h2.62v-.81h-.839l.875-2.429h4.343l.874 2.43H15.9v.809h3.759v-.81h-1.037l-3.694-10.52zm.227 1.821L15.9 24.41h-3.79z" color="#bebebe" font-family="DejaVu Serif" display="inline" fill="#666" stroke-width=".195"/><path id="path1032" d="M21.139 17.934v.809h17.968v-.81zm0 3.237v.809h17.968v-.81zm0 3.222v.809h17.968v-.81zm0 3.237v.809h17.968v-.81zM9.161 30.867v.809l29.946.015v-.81zm0 3.237v.809h29.946v-.81zm0 3.237v.809h22.46v-.81z" style="marker:none" color="#000" display="inline" overflow="visible" visibility="visible" opacity="1" fill="#999" fill-opacity=".996" fill-rule="nonzero" stroke="none" stroke-width=".584"/></g><g id="g1889" transform="matrix(.86753 0 0 .87308 56.967 3.575)" fill-opacity="1" stroke-width=".281"><path id="path2" d="M-24.968 38.547a3.799 4.08 0 0 0 .864-5.695 3.799 4.08 0 0 0-.467-.573 1.776 1.776 0 0 0-.445-.396l1.683-11.85s-4.22 4.195-4.302 11.153c-.024.003-.044.008-.067.012a3.799 4.08 0 0 0-.16.029c-.043.009-.087.017-.128.028a3.799 4.08 0 0 0-1.416.67 3.799 4.08 0 0 0-.864 5.695 3.799 4.08 0 0 0 1.053 1.054c.298.261.706.448 1.26.545l.072.01a3.799 4.08 0 0 0 2.907-.697zm-1.278-1.907a1.628 1.749 0 0 1-2.273-.398 1.628 1.749 0 0 1 .37-2.44 1.628 1.749 0 0 1 2.273.397 1.628 1.749 0 0 1-.37 2.441zm.547-6.168a.543.583 0 0 1-.758-.132.543.583 0 0 1 .124-.814.543.583 0 0 1 .757.133.543.583 0 0 1-.123.813z" fill="#a2a2a2"/><path id="path8" d="M-18.801 33.78l-.01-.014a3.799 4.08 0 0 0 1.537-2.739l.014-.077c.09-.594.055-1.069-.08-1.455a3.799 4.08 0 0 0-.596-1.408 3.799 4.08 0 0 0-5.303-.928 3.799 4.08 0 0 0-1.042 1.229c-.022.038-.043.08-.065.12a3.799 4.08 0 0 0-.076.155c-.01.023-.022.04-.032.064-6.17-2.125-11.213.84-11.213.84l10.997 2.048c.045.228.117.418.208.58a3.799 4.08 0 0 0 .358.657 3.799 4.08 0 0 0 5.303.929zm-1.279-1.906a1.628 1.749 0 0 1-.137.095 1.628 1.749 0 0 1-.144.08 1.628 1.749 0 0 1-.152.063 1.628 1.749 0 0 1-.157.047 1.628 1.749 0 0 1-.16.03 1.628 1.749 0 0 1-.163.013 1.628 1.749 0 0 1-.162-.004 1.628 1.749 0 0 1-.162-.022 1.628 1.749 0 0 1-.158-.04 1.628 1.749 0 0 1-.154-.055 1.628 1.749 0 0 1-.149-.073 1.628 1.749 0 0 1-.14-.088 1.628 1.749 0 0 1-.132-.102 1.628 1.749 0 0 1-.122-.116 1.628 1.749 0 0 1-.11-.129 1.628 1.749 0 0 1-.07-.097 1.628 1.749 0 0 1-.09-.147 1.628 1.749 0 0 1-.073-.155 1.628 1.749 0 0 1-.06-.163 1.628 1.749 0 0 1-.043-.169 1.628 1.749 0 0 1-.029-.172 1.628 1.749 0 0 1-.012-.174 1.628 1.749 0 0 1 .004-.175 1.628 1.749 0 0 1 .021-.173 1.628 1.749 0 0 1 .036-.17 1.628 1.749 0 0 1 .053-.166 1.628 1.749 0 0 1 .067-.16 1.628 1.749 0 0 1 .082-.15 1.628 1.749 0 0 1 .095-.142 1.628 1.749 0 0 1 .108-.13 1.628 1.749 0 0 1 .12-.12 1.628 1.749 0 0 1 .091-.075 1.628 1.749 0 0 1 .137-.095 1.628 1.749 0 0 1 .145-.08 1.628 1.749 0 0 1 .151-.063 1.628 1.749 0 0 1 .157-.047 1.628 1.749 0 0 1 .16-.03 1.628 1.749 0 0 1 .163-.013 1.628 1.749 0 0 1 .162.004 1.628 1.749 0 0 1 .162.022 1.628 1.749 0 0 1 .158.04 1.628 1.749 0 0 1 .154.055 1.628 1.749 0 0 1 .149.073 1.628 1.749 0 0 1 .14.088 1.628 1.749 0 0 1 .132.102 1.628 1.749 0 0 1 .122.116 1.628 1.749 0 0 1 .11.129 1.628 1.749 0 0 1 .07.097 1.628 1.749 0 0 1 .09.147 1.628 1.749 0 0 1 .073.155 1.628 1.749 0 0 1 .06.163 1.628 1.749 0 0 1 .043.169 1.628 1.749 0 0 1 .029.172 1.628 1.749 0 0 1 .012.175 1.628 1.749 0 0 1-.004.174 1.628 1.749 0 0 1-.02.174 1.628 1.749 0 0 1-.037.17 1.628 1.749 0 0 1-.052.165 1.628 1.749 0 0 1-.068.16 1.628 1.749 0 0 1-.082.15 1.628 1.749 0 0 1-.095.142 1.628 1.749 0 0 1-.108.13 1.628 1.749 0 0 1-.12.12 1.628 1.749 0 0 1-.09.075zm-5.62-1.402a.543.583 0 0 1-.757-.132.543.583 0 0 1 .124-.814.543.583 0 0 1 .757.133.543.583 0 0 1-.123.813z" fill="#8a8a8a"/></g></svg>