<svg xmlns="http://www.w3.org/2000/svg" xmlns:xlink="http://www.w3.org/1999/xlink" width="48" height="48" version="1.1" id="svg38"><defs id="defs22"><linearGradient id="linearGradient4488"><stop id="stop4490" offset="0" stop-color="#000" stop-opacity=".047"/><stop id="stop4492" offset="1" stop-color="#000" stop-opacity="0"/></linearGradient><style id="style4511"/><style id="style4511-26"/><style id="style4511-9"/><style id="style4552"/><style id="style4511-2"/><linearGradient xlink:href="#linearGradient4488" id="linearGradient4548" gradientUnits="userSpaceOnUse" gradientTransform="translate(-62.55 1.994) scale(.3038)" x1="288.112" y1="141.785" x2="287.575" y2="79.008"/></defs><style id="style4485" type="text/css"/><path id="path4532" d="M3.088 26.22v1.67c0 9.573 5.583 17.281 17.146 17.281h6.93c15.133 0 17.837-11.322 17.837-17.282v-1.668c0 5.96-2.704 17.282-17.837 17.282h-6.93c-11.563 0-17.146-7.708-17.146-17.282z" opacity="1" fill="url(#linearGradient4548)" fill-opacity="1" stroke="none" stroke-width="1.1" stroke-linecap="square" stroke-linejoin="bevel" stroke-miterlimit="4" stroke-dasharray="none" stroke-dashoffset="0" stroke-opacity=".078"/><path id="path4534" d="M19.701 2.742h8.495c13.908 0 16.805 11.247 16.805 17.282v7.124c0 5.96-2.704 17.282-17.837 17.282h-6.93c-11.562 0-17.146-7.708-17.146-17.282v-7.124c0-9.574 5.47-17.282 16.613-17.282z" opacity="1" fill="#384958" fill-opacity="1" stroke="#000" stroke-width=".334" stroke-linecap="square" stroke-linejoin="bevel" stroke-miterlimit="4" stroke-dasharray="none" stroke-dashoffset="0" stroke-opacity=".078"/><path d="M18.297 10.621a1.24 1.24 0 0 0-.75.339c-.09.083-.206.24-.26.346-.09.179-.098.222-.1.574l-.002.38-1.682 1.2c-.925.661-1.696 1.202-1.714 1.202a.852.852 0 0 1-.203-.132 2.09 2.09 0 0 0-2.198-.222c-.745.375-1.177 1.07-1.179 1.896a2.103 2.103 0 0 0 1.659 2.053 2.059 2.059 0 0 0 1.923-.578c.436-.438.618-.881.616-1.494-.001-.31-.017-.408-.094-.631-.05-.146-.078-.276-.063-.29.015-.012.742-.532 1.617-1.155s1.63-1.162 1.678-1.198l.09-.065.228.113c.208.103.255.113.531.113.275 0 .325-.01.527-.11.447-.22.705-.63.706-1.113a1.216 1.216 0 0 0-1.33-1.228zm18.36.008c-.278 0-.341.014-.509.095a1.303 1.303 0 0 0-.606.616c-.095.202-.106.254-.101.51.002.156.01.31.017.34.008.04-.45.386-1.661 1.251a97.574 97.574 0 0 1-1.714 1.211c-.023.01-.12-.043-.219-.116-.513-.384-1.174-.53-1.767-.39a2.153 2.153 0 0 0-1.594 1.689c-.082.458-.025.84.195 1.303.28.59.933 1.064 1.582 1.15a2.126 2.126 0 0 0 2.18-1.154c.223-.443.28-1.028.145-1.485a14.245 14.245 0 0 1-.088-.304c-.015-.06.221-.239 1.682-1.282l1.699-1.213.237.111c.215.1.267.11.54.109.257-.001.328-.014.49-.092a1.25 1.25 0 0 0 .604-.585c.101-.205.111-.249.111-.542 0-.275-.013-.345-.09-.509a1.268 1.268 0 0 0-.593-.604c-.203-.1-.247-.11-.54-.11zm.094.73c.463.076.558.704.14.919-.223.114-.397.089-.578-.084a.48.48 0 0 1 .027-.708c.138-.121.243-.154.411-.126zm-18.257.004a.52.52 0 0 1 .268.151c.079.083.099.138.109.295.014.214-.052.36-.207.461a.628.628 0 0 1-.403.06.496.496 0 0 1-.352-.48c0-.343.3-.546.585-.487zm1.29.119v.737h15.502v-.737H19.784zm-1.742 1.741v1.253c0 .69-.007 1.276-.019 1.305-.018.048-.203.054-1.74.054h-1.72v.735l1.73.01 1.734.007.008 6.086.007 6.085h.737V16.57h9.542v-.736l-4.762-.01-4.763-.007-.01-1.298-.007-1.297h-.737zm18.248 0v15.535h.735V13.223h-.735zm-23.92 1.611c.179.008.36.052.535.134.236.111.5.372.618.61a1.366 1.366 0 0 1-.966 1.964c-.22.041-.303.04-.54-.012a1.397 1.397 0 0 1-.72-.429c-.254-.275-.333-.49-.334-.916 0-.308.007-.353.105-.56a1.364 1.364 0 0 1 1.301-.79zm18.086.002a1.359 1.359 0 0 1 1.357.788c.099.21.107.254.107.58 0 .33-.007.366-.107.57a1.418 1.418 0 0 1-.974.764c-.234.05-.347.046-.61-.023a1.345 1.345 0 0 1-1-1.129c-.049-.423.07-.818.33-1.1.252-.274.573-.42.897-.45zM11.95 18.445V32.24h.737V18.445h-.737zm18.246 0v11.282H19.784v.772h10.412v1.741h.735l.01-.863.009-.863 2.168-.007 2.168-.01v-.769l-2.168-.008-2.168-.01-.01-5.632-.007-5.633h-.737zM18.412 28.909c-.312 0-.374.008-.544.088a1.31 1.31 0 0 0-.585.59c-.086.174-.094.224-.094.564v.37l-1.586 1.135-1.7 1.215-.11.08-.176-.135a2.11 2.11 0 0 0-1.316-.452c-.588-.001-1.042.192-1.474.626-.16.162-.311.352-.377.476a2.26 2.26 0 0 0-.19 1.485 2.171 2.171 0 0 0 1.522 1.554c.25.065.793.065 1.047 0a2.142 2.142 0 0 0 1.484-1.397c.152-.467.128-.988-.072-1.51-.013-.034.482-.404 1.672-1.255.93-.664 1.705-1.209 1.722-1.209.017 0 .115.04.218.086.638.292 1.373.037 1.66-.576a1.233 1.233 0 0 0-.54-1.622c-.201-.11-.225-.113-.561-.113zm18.245 0c-.318 0-.368.009-.526.092a1.24 1.24 0 0 0-.668.843.851.851 0 0 0-.02.433c.035.2.035.206-.052.281-.13.112-3.312 2.384-3.339 2.384a.56.56 0 0 1-.134-.097c-.271-.239-.715-.427-1.12-.473-.98-.113-1.921.5-2.23 1.454-.073.224-.088.334-.088.64 0 .314.012.408.09.636.238.7.747 1.19 1.442 1.393.259.076.8.08 1.072.012a2.17 2.17 0 0 0 1.542-1.554c.077-.308.052-.844-.054-1.165-.043-.133-.073-.248-.065-.255.143-.116 3.345-2.38 3.381-2.39.029-.007.13.027.226.075a1.246 1.246 0 0 0 1.67-.578c.085-.171.096-.228.096-.528 0-.296-.011-.354-.092-.518a1.414 1.414 0 0 0-.593-.595c-.166-.082-.223-.09-.538-.09zm0 .72c.094 0 .19.023.26.066.296.18.325.556.062.802-.123.114-.427.134-.58.038-.294-.184-.294-.663 0-.842a.505.505 0 0 1 .258-.065zm-18.337.005a.511.511 0 0 1 .304.044c.328.155.353.667.044.855a.65.65 0 0 1-.474.033.682.682 0 0 1-.167-.134c-.09-.095-.101-.127-.101-.32 0-.202.007-.223.122-.338a.5.5 0 0 1 .272-.14zm-6.02 3.492c.345 0 .384.008.594.107.536.254.857.848.765 1.418-.074.46-.354.841-.767 1.045-.186.091-.258.107-.52.116-.345.012-.592-.054-.84-.226-.604-.415-.767-1.288-.353-1.89.138-.2.35-.38.567-.482.167-.079.227-.088.555-.088zm18.28 0c.33 0 .39.01.561.09a1.373 1.373 0 1 1-.004 2.495c-.156.075-.243.091-.507.1-.47.014-.742-.096-1.048-.424-.624-.667-.418-1.764.405-2.154.211-.1.25-.107.594-.107zm-16.02.955v.769h13.761v-.769h-13.76z" id="path13929" fill="#fff" fill-opacity="1" stroke="none" stroke-width=".003" stroke-miterlimit="4" stroke-dasharray="none" stroke-opacity="1"/></svg>