<svg xmlns="http://www.w3.org/2000/svg" xmlns:xlink="http://www.w3.org/1999/xlink" width="48" height="48" version="1.1" id="svg38"><defs id="defs22"><linearGradient id="linearGradient4488"><stop id="stop4490" offset="0" stop-color="#000" stop-opacity=".047"/><stop id="stop4492" offset="1" stop-color="#000" stop-opacity="0"/></linearGradient><style id="style4511"/><style id="style4511-26"/><style id="style4511-9"/><style id="style4552"/><style id="style4511-2"/><linearGradient xlink:href="#linearGradient4488" id="linearGradient4546" gradientUnits="userSpaceOnUse" gradientTransform="translate(-62.497 1.994) scale(.3038)" x1="288.112" y1="141.785" x2="287.575" y2="79.008"/></defs><style id="style4485" type="text/css"/><path d="M3.141 26.22v1.67c0 9.573 5.583 17.281 17.146 17.281h6.93c15.133 0 17.837-11.322 17.837-17.282v-1.668c0 5.96-2.704 17.282-17.837 17.282h-6.93c-11.563 0-17.146-7.708-17.146-17.282z" id="path4528" opacity="1" fill="url(#linearGradient4546)" fill-opacity="1" stroke="none" stroke-width="1.1" stroke-linecap="square" stroke-linejoin="bevel" stroke-miterlimit="4" stroke-dasharray="none" stroke-dashoffset="0" stroke-opacity=".078"/><path d="M19.754 2.742h8.495c13.908 0 16.805 11.247 16.805 17.282v7.124c0 5.96-2.704 17.282-17.837 17.282h-6.93c-11.562 0-17.146-7.708-17.146-17.282v-7.124c0-9.574 5.47-17.282 16.613-17.282z" id="path4530" opacity="1" fill="#0bcd74" fill-opacity="1" stroke="#000" stroke-width=".334" stroke-linecap="square" stroke-linejoin="bevel" stroke-miterlimit="4" stroke-dasharray="none" stroke-dashoffset="0" stroke-opacity=".078"/><path d="M23.257 37.195c-.023-.04-.096-.454-.161-.92-.069-.492-.185-.927-.277-1.037-.107-.126-.462-.253-1.078-.384a15.422 15.422 0 0 1-1.51-.403c-.372-.13-.686-.184-.846-.144-.156.04-.485.345-.848.788l-.595.724-.54-.304c-.946-.53-.898-.405-.524-1.387.188-.494.308-.958.278-1.076-.029-.115-.58-.735-1.227-1.38-1.343-1.34-1.316-1.33-2.404-.881-.387.16-.752.29-.81.288-.105-.002-.833-1.16-.833-1.323 0-.044.303-.317.673-.605.924-.72.958-.831.6-1.951a15.165 15.165 0 0 1-.391-1.46c-.171-.931-.298-1.037-1.414-1.183-.977-.127-.918-.065-.918-.978 0-.446.032-.812.072-.813.448-.01 1.832-.319 1.963-.438.099-.09.218-.423.282-.792.06-.351.243-1.05.404-1.554.353-1.1.338-1.153-.516-1.856a40.292 40.292 0 0 1-.69-.577c-.087-.08.286-.88.58-1.242l.181-.224.75.298c1.165.463 1.123.478 2.522-.915.692-.688 1.218-1.29 1.218-1.392 0-.099-.148-.564-.33-1.032-.373-.967-.42-.842.531-1.377l.54-.303.622.75c.72.865.853.911 1.758.61.33-.11.988-.283 1.46-.387.474-.103.929-.255 1.012-.338.088-.088.215-.546.303-1.094l.15-.943.831-.028.83-.027.125.941c.151 1.141.291 1.33 1.07 1.433.287.039.919.196 1.403.35 1.364.433 1.336.441 2.202-.663l.473-.602.55.301c.953.525.91.41.527 1.43-.186.493-.312.975-.282 1.072.03.097.581.701 1.224 1.343 1.34 1.341 1.31 1.33 2.449.878.401-.16.763-.29.804-.29.088 0 .79 1.18.79 1.327 0 .056-.306.35-.682.653-.375.303-.724.66-.774.794-.071.186-.027.448.19 1.127.155.486.337 1.163.404 1.504.066.34.2.698.296.795.19.19.275.215 1.309.376l.693.109.063.371c.034.204.033.568-.003.809-.073.485.008.442-1.241.651-.377.063-.738.185-.834.28-.094.095-.22.463-.284.83a13.98 13.98 0 0 1-.392 1.52c-.204.632-.255.923-.191 1.09.047.125.392.477.766.783.375.305.68.591.68.636 0 .169-.723 1.328-.828 1.328-.061 0-.428-.13-.815-.29-.386-.16-.817-.29-.957-.29-.195 0-.528.272-1.438 1.174-.652.646-1.207 1.266-1.235 1.378-.028.113.102.589.292 1.072.188.478.342.877.342.886 0 .009-.315.198-.699.42l-.699.402-.229-.274c-1.242-1.487-1.148-1.444-2.288-1.058a11.9 11.9 0 0 1-1.256.344c-.753.147-1.1.285-1.202.478-.045.086-.136.558-.203 1.05l-.121.894h-.802c-.442 0-.822-.032-.845-.072zm2.148-5.733c3.071-.498 5.571-2.819 6.398-5.94.284-1.073.285-2.784.002-3.866-.736-2.812-2.854-4.969-5.666-5.767-1.106-.315-3.05-.315-4.148-.001-2.418.691-4.27 2.305-5.252 4.577-.437 1.01-.614 1.938-.611 3.213.002 1.33.227 2.285.821 3.488 1.102 2.231 3.317 3.891 5.735 4.298.676.114 2.014.113 2.72-.002z" id="path14231" fill="#fff" fill-opacity="1" stroke="none" stroke-width=".138" stroke-miterlimit="4" stroke-dasharray="none" stroke-opacity="1"/></svg>