<svg xmlns="http://www.w3.org/2000/svg" xmlns:xlink="http://www.w3.org/1999/xlink" width="48" height="48" version="1.1" id="svg38"><defs id="defs22"><linearGradient id="linearGradient4488"><stop id="stop4490" offset="0" stop-color="#000" stop-opacity=".047"/><stop id="stop4492" offset="1" stop-color="#000" stop-opacity="0"/></linearGradient><style id="style4511"/><style id="style4511-26"/><style id="style4511-9"/><style id="style4552"/><style id="style4511-2"/><linearGradient xlink:href="#linearGradient4488" id="linearGradient4536" gradientUnits="userSpaceOnUse" gradientTransform="translate(-62.726 3.01) scale(.3038)" x1="288.112" y1="141.785" x2="287.575" y2="79.008"/></defs><style id="style4485" type="text/css"/><path id="path4508" d="M2.913 27.237v1.67c0 9.573 5.583 17.28 17.146 17.28h6.93c15.133 0 17.837-11.321 17.837-17.281v-1.668c0 5.96-2.704 17.282-17.837 17.282h-6.93c-11.563 0-17.146-7.708-17.146-17.282z" stroke-miterlimit="4" opacity="1" fill="url(#linearGradient4536)" fill-opacity="1" stroke="none" stroke-width="1.1" stroke-linecap="square" stroke-linejoin="bevel" stroke-dasharray="none" stroke-dashoffset="0" stroke-opacity=".078"/><path id="path4510" d="M19.527 3.759h8.494c13.908 0 16.805 11.247 16.805 17.282v7.124c0 5.96-2.705 17.282-17.837 17.282h-6.93c-11.563 0-17.146-7.708-17.146-17.282V21.04c0-9.574 5.47-17.282 16.613-17.282z" stroke-miterlimit="4" opacity="1" fill="#004775" fill-opacity="1" stroke="#000" stroke-width=".334" stroke-linecap="square" stroke-linejoin="bevel" stroke-dasharray="none" stroke-dashoffset="0" stroke-opacity=".078"/><g transform="translate(-.407 1.314)" id="g1654" opacity=".1"><path id="path1642" d="M15.332 14h5.336c.734 0 1.332.598 1.332 1.332v5.336c0 .734-.598 1.332-1.332 1.332h-5.336A1.334 1.334 0 0 1 14 20.668v-5.336c0-.734.598-1.332 1.332-1.332"/><path id="path1644" d="M27.332 26h5.336c.738 0 1.332.598 1.332 1.332v5.336c0 .738-.594 1.332-1.332 1.332h-5.336A1.332 1.332 0 0 1 26 32.668v-5.336c0-.734.598-1.332 1.332-1.332"/><path id="path1646" d="M14 24c-1.109 0-2 .891-2 2v8c0 1.109.891 2 2 2h8c1.109 0 2-.891 2-2v-8c0-1.109-.891-2-2-2m-8 1h8c.555 0 1 .445 1 1v8c0 .555-.445 1-1 1h-8c-.555 0-1-.445-1-1v-8c0-.555.445-1 1-1"/><path id="path1648" d="M15 26h6c.551 0 1 .449 1 1v6c0 .551-.449 1-1 1h-6c-.551 0-1-.449-1-1v-6c0-.551.449-1 1-1"/><path id="path1650" d="M26 12c-1.109 0-2 .891-2 2v8c0 1.109.891 2 2 2h8c1.109 0 2-.891 2-2v-8c0-1.109-.891-2-2-2m-8 1h8c.555 0 1 .445 1 1v8c0 .555-.445 1-1 1h-8c-.555 0-1-.445-1-1v-8c0-.555.445-1 1-1"/><path id="path1652" d="M27 14h6c.551 0 1 .449 1 1v6c0 .551-.449 1-1 1h-6c-.551 0-1-.449-1-1v-6c0-.551.449-1 1-1"/></g><path id="path1656" d="M14.925 14.314h5.336c.734 0 1.332.598 1.332 1.332v5.336c0 .734-.598 1.332-1.332 1.332h-5.336a1.334 1.334 0 0 1-1.332-1.332v-5.336c0-.734.598-1.332 1.332-1.332" fill="#268bcf"/><path id="path1658" d="M26.925 26.314h5.336c.738 0 1.332.598 1.332 1.332v5.336c0 .738-.594 1.332-1.332 1.332h-5.336a1.332 1.332 0 0 1-1.332-1.332v-5.336c0-.734.598-1.332 1.332-1.332" fill="#268bcf"/><path id="path1660" d="M13.593 24.314c-1.109 0-2 .89-2 2v8c0 1.109.891 2 2 2h8c1.11 0 2-.891 2-2v-8c0-1.11-.89-2-2-2m-8 1h8c.555 0 1 .445 1 1v8c0 .555-.445 1-1 1h-8c-.555 0-1-.445-1-1v-8c0-.555.445-1 1-1" fill="#ffcf36"/><path id="path1662" d="M14.593 26.314h6c.551 0 1 .449 1 1v6c0 .55-.449 1-1 1h-6c-.55 0-1-.45-1-1v-6c0-.551.45-1 1-1" fill="#ffcf36"/><path id="path1664" d="M25.593 12.314c-1.109 0-2 .89-2 2v8c0 1.109.891 2 2 2h8c1.11 0 2-.891 2-2v-8c0-1.11-.89-2-2-2m-8 1h8c.555 0 1 .445 1 1v8c0 .555-.445 1-1 1h-8c-.555 0-1-.445-1-1v-8c0-.555.445-1 1-1" fill="#ffcf36"/><path id="path1666" d="M26.593 14.314h6c.551 0 1 .449 1 1v6c0 .55-.449 1-1 1h-6c-.55 0-1-.45-1-1v-6c0-.551.45-1 1-1" fill="#ffcf36"/></svg>