<svg xmlns="http://www.w3.org/2000/svg" xmlns:xlink="http://www.w3.org/1999/xlink" width="48" height="48" version="1.1" id="svg38"><defs id="defs22"><linearGradient id="linearGradient4488"><stop id="stop4490" offset="0" stop-color="#000" stop-opacity=".047"/><stop id="stop4492" offset="1" stop-color="#000" stop-opacity="0"/></linearGradient><style id="style4511"/><style id="style4511-26"/><style id="style4511-9"/><style id="style4552"/><style id="style4511-2"/><linearGradient xlink:href="#linearGradient4488" id="linearGradient4540" gradientUnits="userSpaceOnUse" gradientTransform="translate(-62.889 1.994) scale(.3038)" x1="288.112" y1="141.785" x2="287.575" y2="79.008"/></defs><style id="style4485" type="text/css"/><path id="path4516" d="M2.75 26.22v1.67c0 9.573 5.583 17.281 17.146 17.281h6.93c15.132 0 17.836-11.322 17.836-17.282v-1.668c0 5.96-2.704 17.282-17.836 17.282h-6.93C8.333 43.503 2.75 35.795 2.75 26.22z" opacity="1" fill="url(#linearGradient4540)" fill-opacity="1" stroke="none" stroke-width="1.1" stroke-linecap="square" stroke-linejoin="bevel" stroke-miterlimit="4" stroke-dasharray="none" stroke-dashoffset="0" stroke-opacity=".078"/><path id="path4518" d="M19.363 2.742h8.495c13.908 0 16.804 11.247 16.804 17.282v7.124c0 5.96-2.704 17.282-17.836 17.282h-6.93C8.333 44.43 2.75 36.722 2.75 27.148v-7.124c0-9.574 5.47-17.282 16.613-17.282z" opacity="1" fill="#0e8ef2" fill-opacity="1" stroke="#000" stroke-width=".334" stroke-linecap="square" stroke-linejoin="bevel" stroke-miterlimit="4" stroke-dasharray="none" stroke-dashoffset="0" stroke-opacity=".078"/><path d="M23.828 11.97c-.01.003-.483.287-1.053.632l-6.535 3.941a1119.2 1119.2 0 0 0-5.526 3.346c-.022.021-.031 1.767-.037 7.67l-.006 7.642h.979v-6.836c0-3.759.007-7.08.015-7.379l.016-.545.799-.482 4.533-2.738c6.264-3.783 6.554-3.955 6.674-3.973.175-.026.313.036 1.012.453.807.482 2.216 1.368 5.517 3.469 1.048.667 1.917 1.216 1.932 1.219.024.005.525-.765.525-.807 0-.02-8.823-5.618-8.845-5.611zm10.79 7.917c-.5.02-.847.126-1.28.388-.256.155-.46.324-3.383 2.83-3.392 2.908-4.736 4.047-5.114 4.333a2.044 2.044 0 0 1-.654.306c-.296.07-.64.038-.895-.084-.132-.063-.196-.107-3.705-2.656l-3.261-2.37a60.14 60.14 0 0 0-1.448-1.028c-.022-.009-.547.697-.562.755-.003.011.144.128.326.26a963.44 963.44 0 0 0 7.2 5.213c1.05.75 1.129.794 1.55.879.279.056.8.039 1.09-.037.253-.067.571-.203.803-.342.271-.163.613-.451 5.625-4.756a732.81 732.81 0 0 1 2.162-1.853c.71-.597.953-.75 1.336-.842.228-.056.563-.04.754.035.364.143.597.448.609.799.002.072-.008.931-.024 1.908-.015.977-.04 2.994-.054 4.482-.03 3.308-.049 3.697-.203 4.108A2.883 2.883 0 0 1 33.634 34c-.338.112-.533.138-1.191.162-.346.013-3.917.029-7.938.035-4.02.007-7.606.02-7.968.028l-.659.015v.95l6.252-.008c6.39-.008 10.415-.036 10.953-.078.399-.032.616-.076.934-.194.541-.2.974-.453 1.324-.773a3.76 3.76 0 0 0 1.076-1.63c.203-.587.212-.72.243-3.517.013-1.19.037-3.246.054-4.568.038-2.982.038-2.945-.013-3.14a1.891 1.891 0 0 0-.762-1.046c-.424-.285-.747-.372-1.32-.35z" id="path12775" fill="#fff" fill-opacity="1" stroke="none" stroke-width=".017" stroke-miterlimit="4" stroke-dasharray="none" stroke-opacity="1"/></svg>