<svg xmlns:osb="http://www.openswatchbook.org/uri/2009/osb" xmlns="http://www.w3.org/2000/svg" xmlns:xlink="http://www.w3.org/1999/xlink" width="48" height="48" version="1.1" id="svg38"><defs id="defs22"><linearGradient id="linearGradient4488"><stop id="stop4490" offset="0" stop-color="#000" stop-opacity=".047"/><stop id="stop4492" offset="1" stop-color="#000" stop-opacity="0"/></linearGradient><style id="style4511"/><style id="style4511-26"/><style id="style4511-9"/><style id="style4552"/><style id="style4511-2"/><linearGradient xlink:href="#linearGradient4488" id="linearGradient4540" gradientUnits="userSpaceOnUse" gradientTransform="matrix(.3154 0 0 .31108 -65.845 2.12)" x1="288.112" y1="141.785" x2="287.575" y2="79.008"/><linearGradient osb:paint="solid" id="linearGradient5293"><stop id="stop5295" offset="0" stop-color="#9a89c0" stop-opacity="1"/></linearGradient><linearGradient gradientTransform="translate(-64.678 .314)" gradientUnits="userSpaceOnUse" x1="24" y1="42.66" x2="24" y2="2" id="linearGradient-1"><stop stop-color="#5141FF" offset="0%" id="stop862"/><stop stop-color="#00C0FF" offset="100%" id="stop864"/></linearGradient><radialGradient r="23" gradientTransform="matrix(0 -2.8515 3.7557 0 674.001 398.263)" cx="26.617" cy="-2.065" gradientUnits="userSpaceOnUse" id="radialGradient3322-5"><stop offset="0" id="stop2749-0" stop-color="#d280b9" stop-opacity="1"/><stop id="stop4269-4" offset=".529" stop-color="#b549b5" stop-opacity="1"/><stop offset="1" id="stop2755-8" stop-color="#8940a8" stop-opacity="1"/></radialGradient><linearGradient xlink:href="#linearGradient-1" id="linearGradient1883" x1="11.066" y1="24.086" x2="37.066" y2="24.086" gradientUnits="userSpaceOnUse" gradientTransform="matrix(1.02065 0 0 1 -.506 .144)"/><radialGradient xlink:href="#radialGradient3322-5" id="radialGradient1791" cx="24.066" cy="24.086" fx="24.066" fy="24.086" r="21.487" gradientTransform="matrix(1.02065 0 0 1.00124 -.506 .114)" gradientUnits="userSpaceOnUse"/></defs><style id="style4485" type="text/css"/><path id="path4516" d="M2.301 26.927v1.709c0 9.803 5.796 17.696 17.8 17.696h7.196c15.71 0 18.517-11.594 18.517-17.696v-1.709c0 6.103-2.807 17.697-18.517 17.697h-7.195C8.097 44.624 2.3 36.73 2.3 26.927z" opacity="1" fill="url(#linearGradient4540)" fill-opacity="1" stroke="none" stroke-width="1.134" stroke-linecap="square" stroke-linejoin="bevel" stroke-miterlimit="4" stroke-dasharray="none" stroke-dashoffset="0" stroke-opacity=".078"/><path id="path4518" d="M19.549 2.886h8.82c14.438 0 17.445 11.517 17.445 17.696v7.294c0 6.103-2.807 17.697-18.517 17.697h-7.195C8.098 45.573 2.3 37.68 2.3 27.876v-7.294c0-9.803 5.68-17.696 17.248-17.696z" opacity="1" fill="url(#radialGradient1791)" fill-opacity="1" stroke="#000" stroke-width=".345" stroke-linecap="square" stroke-linejoin="bevel" stroke-miterlimit="4" stroke-dasharray="none" stroke-dashoffset="0" stroke-opacity=".078"/><path d="M21.448 39.101c-1.747-.325-3.608-1.116-5.166-2.194-1.75-1.21-3.558-3.342-4.428-5.217-.874-1.885-1.227-4.163-.995-6.41.176-1.7.375-2.489.973-3.842 1.657-3.755 4.9-6.344 9.196-7.342.703-.163 1.19-.356 1.491-.589.447-.346.449-.35.717-2.056.336-2.13.331-2.113.675-2.197.463-.114 2.624.188 3.68.514 1.702.524 2.917 1.206 4.366 2.45.447.385.872.699.944.699.438 0 1.654.56 2.145 1.026 1.465 1.392 1.662 3.147.545 4.849-.3.457-.261.68-.261 1.27 0 .393-.07.803-.153.911-.124.158-.927.244-3.296.444-2.158.183-2.985.296-3.118.426-.395.385.039.466 4.232.79 3.921.303 4.566.409 4.268.7-.064.062-2.073.5-4.465.972l-4.349.859-2.732-1.032c-1.503-.568-2.78-1.033-2.837-1.033-.18 0-1.495 2.14-1.452 2.36.054.274.75.553 1.465.65.494.066.632.03 1.143-.302 1.138-.737 2.158-.738 2.791-.002.387.45.4.755.043 1-.357.245-.615.235-1.142-.04-.739-.388-1.208.118-.94.812.173.449.075.693-.278.693-.197 0-.337-.12-.474-.402-.195-.4-.197-.601-1.27-.672-1.16-.077-1.854-.112-2.58-.56-.573-.353-1.108-.968-1.108-1.273 0-.292.568-1.4 1.151-2.246.541-.785.558-.976.085-.976-.251 0-.456.115-.694.39-.418.482-1.4 2.476-1.4 2.844 0 .508.397 1.069 1.45 1.747.836.538 1.09.573 1.27.97.268.597.447 1.334.55 2.264.085.773.257.573.57.033.32-.549 1.203-.657 1.203-.147 0 .123-.137.295-.304.382-.553.29-.514.78.086 1.094.178.093.355.05.767-.187.295-.168.62-.307.722-.307.241 0 .567.46.567.8 0 .76-.61 1.237-1.582 1.237-1.16 0-2.048-.61-2.53-1.738-.257-.6-.969-1.401-1.383-1.837-.41-.43-.773-.505-1.116-.457-.383.054-.572.41-.574 1.323-.003 1.765.711 3.14 2.758 4.13 3.362 1.623 6.588 1.641 10.063.058 2.565-1.17 3.958-2.815 4.101-4.844.053-.746.021-.943-.224-1.406-.51-.963-2.093-1.522-3.172-1.043-.646.287-1.012.844-1.012 1.544 0 .433.07.59.416.928.33.323.514.407.891.407.573 0 .963-.243 1.072-.667.122-.474-.115-.664-.775-.624-.5.03-.568.004-.602-.228-.05-.35.484-.687 1.06-.671.34.01.533.11.843.44.481.514.527 1.041.152 1.76-.343.657-.87.948-1.71.946-1.197-.004-2.163-.656-2.445-1.648-.169-.595-.16-.833.053-1.536.62-2.04 4.12-2.458 5.786-.875.803.764 1.21 1.63 1.135 3.004-.163 2.978-2.643 5.991-6.142 7.672-2.072.995-3.236 1.262-5.757 1.319-1.436.032-2.355-.004-2.96-.116z" id="path1815" fill="url(#linearGradient1883)" fill-opacity="1" stroke-width="1.01"/><ellipse cx="25.589" cy="17.729" id="circle1817" rx="3.572" ry="3.5" opacity=".2" stroke-width="1.01"/><ellipse cx="25.589" cy="16.729" id="circle1819" rx="3.572" ry="3.5" fill="#fff" stroke-width="1.01"/><ellipse cx="24.568" cy="16.729" id="circle1821" rx="1.531" ry="1.5" fill="#5e5e5e" stroke-width="1.01"/><path d="M35.23 16.36c.231.815-.282 1.651-1.147 1.87l-.84-2.948c.865-.218 1.754.265 1.986 1.079z" id="path1823" opacity=".2" stroke-width="1.01"/><path d="M35.23 15.36c.231.815-.282 1.651-1.147 1.87l-.84-2.948c.865-.218 1.754.265 1.986 1.079z" id="path1825" fill="#fff" stroke-width="1.01"/><path d="M24.532 9.241c-.284-.017-.504-.017-.62.012-.344.084-.34.07-.676 2.199-.269 1.706-.27 1.709-.717 2.055-.302.233-.788.426-1.491.59-4.296.997-7.539 3.586-9.196 7.341-.598 1.354-.797 2.143-.973 3.842-.063.607-.08 1.215-.058 1.819.011-.273.03-.546.058-.819.176-1.7.375-2.488.973-3.842 1.657-3.755 4.9-6.344 9.196-7.341.703-.164 1.19-.357 1.49-.59.447-.346.45-.35.718-2.055.336-2.13.332-2.115.676-2.2.463-.113 2.623.19 3.68.516 1.701.525 2.915 1.207 4.364 2.452.447.383.872.697.945.697.437 0 1.653.558 2.145 1.025.688.655 1.086 1.391 1.21 2.162.17-1.132-.23-2.23-1.21-3.162-.492-.467-1.708-1.025-2.145-1.025-.073 0-.498-.314-.945-.697-1.45-1.245-2.663-1.927-4.364-2.452-.792-.244-2.207-.475-3.06-.527zm6.672 13.244c-1.522.14-2.328.247-2.442.358-.394.385.04.467 4.232.79.906.07 1.6.127 2.185.18 1.152-.244 2.044-.442 2.083-.48.298-.29-.347-.397-4.268-.7-.755-.058-1.261-.102-1.79-.148zm-10.89.657c-.042 0-.078.024-.118.03-.57.84-1.118 1.904-1.118 2.19 0 .11.085.264.2.426.213-.475.57-1.118.95-1.67.542-.785.559-.976.086-.976zm5.307 2.11c-.477.001-1.016.187-1.585.556-.511.33-.648.367-1.142.3-.446-.06-.865-.193-1.145-.35-.187.338-.335.63-.32.702.053.273.75.552 1.465.648.494.067.63.03 1.142-.3 1.138-.738 2.157-.739 2.79-.002.006.006.007.01.013.017.01-.007.02-.01.032-.017.357-.245.343-.55-.044-1a1.536 1.536 0 0 0-1.206-.553zm-7.253.63c-.086.22-.147.409-.147.494 0 .508.395 1.067 1.45 1.746.834.538 1.09.573 1.269.97.269.597.448 1.334.55 2.264.085.773.256.573.57.034.123-.212.331-.334.539-.405.05-.134.167-.26.36-.361.168-.088.303-.26.303-.383 0-.51-.882-.4-1.202.149-.314.54-.485.739-.57-.034-.102-.93-.281-1.667-.55-2.263-.03-.067-.069-.114-.106-.164a2.944 2.944 0 0 1-.648-.293 3.383 3.383 0 0 1-.837-.746c-.505-.366-.824-.7-.98-1.008zm14.403.385c-1.487-.085-3 .557-3.387 1.832-.189.621-.208.89-.095 1.353.026-.108.054-.216.095-.353.329-1.083 1.473-1.693 2.72-1.805.103-.01.205-.018.31-.014 1.01-.021 2.049.27 2.757.944.643.61 1.017 1.3 1.109 2.25.008-.083.021-.165.026-.247.075-1.373-.332-2.24-1.135-3.003-.624-.594-1.508-.907-2.4-.957zm-7.922 1.54a.605.605 0 0 0-.13.418c.13-.065.169-.21.13-.417zm7.472.465c-.22 0-.43.04-.632.098-.171.122-.28.277-.257.438.033.232.103.256.602.226.338-.02.563.021.687.129.213.047.381.165.614.414a1.6 1.6 0 0 1 .287.418c.194-.548.114-.99-.287-1.418-.081-.087-.145-.122-.215-.18a2.883 2.883 0 0 0-.8-.125zm-1.816 1.205a1.75 1.75 0 0 0-.076.514c0 .433.07.59.416.928.161.157.286.254.417.316.166.028.337.047.514.047.169 0 .317-.02.46-.043.294-.103.5-.297.573-.58.082-.321-.016-.503-.283-.58-.19.155-.454.248-.79.248-.376 0-.56-.085-.89-.408-.18-.175-.282-.3-.341-.442zm4.315.541c-.19 1.972-1.57 3.576-4.082 4.721-3.475 1.584-6.701 1.565-10.063-.058-1.827-.883-2.589-2.075-2.73-3.577-.013.136-.029.273-.03.448-.003 1.765.713 3.14 2.76 4.129 3.362 1.623 6.588 1.642 10.063.058 2.564-1.169 3.957-2.815 4.1-4.844.03-.417.028-.66-.018-.877zm-10.286 1.206c-.102 0-.427.14-.721.308-.413.237-.59.279-.768.186-.045-.024-.065-.055-.104-.08-.528.29-.488.77.104 1.08.178.093.355.05.768-.186.294-.169.62-.308.721-.308.143 0 .306.165.423.367.09-.165.143-.353.143-.567 0-.34-.324-.8-.566-.8z" id="path1827" opacity=".1" fill="#fff" stroke-width="1.01"/></svg>