<svg xmlns:osb="http://www.openswatchbook.org/uri/2009/osb" xmlns="http://www.w3.org/2000/svg" width="48" height="48" version="1.1" id="svg38"><defs id="defs22"><style id="style4511"/><style id="style4511-26"/><style id="style4511-9"/><style id="style4552"/><style id="style4511-2"/><linearGradient osb:paint="solid" id="linearGradient5293"><stop id="stop5295" offset="0" stop-color="#9a89c0" stop-opacity="1"/></linearGradient></defs><style id="style4485" type="text/css"/><path id="path4518" d="M19.738 3.544h8.495c13.908 0 16.804 11.146 16.804 17.128v7.06c0 5.906-2.704 17.127-17.836 17.127h-6.93c-11.563 0-17.146-7.639-17.146-17.128v-7.06c0-9.488 5.47-17.127 16.613-17.127z" opacity="1" fill="#e6e6e6" fill-opacity="1" stroke="#000" stroke-width=".333" stroke-linecap="square" stroke-linejoin="bevel" stroke-miterlimit="4" stroke-dasharray="none" stroke-dashoffset="0" stroke-opacity=".078"/><g id="g1391" transform="matrix(.9791 0 0 .9776 .503 .542)" fill-opacity="1"><path id="rect1790" display="inline" opacity="1" fill="#fff" stroke="none" stroke-width="1.864" stroke-linecap="round" stroke-linejoin="round" stroke-miterlimit="4" stroke-dasharray="none" stroke-dashoffset="0" stroke-opacity="1" d="M9.615 16.288h28v16.758h-28z"/><path id="path4027" d="M9.148 10.237V33.51h14v-.93h-3.733v-4.655h3.733v-.931h-3.733V22.34H38.08v-.931l-18.666.04v-4.695h8.4v6.64h.933v-6.64h8.4v6.982h.933v-13.5zm.933.93h8.4v4.656h-8.4zm9.334 0h8.4v4.656h-8.4zm9.333 0h8.4v4.656h-8.4zM10.08 16.755h8.4v4.696l-8.4-.041zm0 5.586h8.4v4.655h-8.4zm0 5.586h8.4v4.654l-8.4-.054z" style="marker:none" color="#000" display="inline" overflow="visible" visibility="visible" fill="#00bbf2" fill-rule="nonzero" stroke="none" stroke-width=".133"/><path style="marker:none" d="M9.615 10.702h28v5.586h-28z" id="path916" color="#000" display="inline" overflow="visible" visibility="visible" opacity=".35" fill="#009cf2" fill-rule="nonzero" stroke="none" stroke-width=".133"/><g transform="matrix(.23333 0 0 .23275 -13.252 -12.107)" id="g1828" display="inline"><path id="rect1788" opacity="1" fill="#fff" stroke="#b3b3b3" stroke-width="8" stroke-linecap="round" stroke-linejoin="miter" stroke-miterlimit="4" stroke-dasharray="none" stroke-dashoffset="0" stroke-opacity="1" d="M140 148h80v64h-80z"/><path id="rect1476" opacity="1" fill="#fff" stroke="none" stroke-width="8" stroke-linecap="round" stroke-linejoin="round" stroke-miterlimit="4" stroke-dasharray="none" stroke-dashoffset="0" stroke-opacity="1" d="M140 148h80v64h-80z"/><path style="marker:none" id="rect7707" color="#000" display="inline" overflow="visible" visibility="visible" fill="#2daaaa" fill-rule="nonzero" stroke="none" stroke-width=".571" d="M148 164h16v40h-16z"/><path id="rect7711" style="marker:none" color="#000" display="inline" overflow="visible" visibility="visible" fill="#fdc92b" fill-rule="nonzero" stroke="none" stroke-width=".571" d="M172 156h16v48h-16z"/><path style="marker:none" id="rect7715" color="#000" display="inline" overflow="visible" visibility="visible" fill="#f34f17" fill-rule="nonzero" stroke="none" stroke-width=".571" d="M196 180h16v24h-16z"/></g></g></svg>