<svg xmlns="http://www.w3.org/2000/svg" xmlns:xlink="http://www.w3.org/1999/xlink" width="48" height="48" version="1.1" id="svg38"><defs id="defs22"><linearGradient id="linearGradient4488"><stop id="stop4490" offset="0" stop-color="#000" stop-opacity=".047"/><stop id="stop4492" offset="1" stop-color="#000" stop-opacity="0"/></linearGradient><style id="style4511"/><style id="style4511-26"/><style id="style4511-9"/><style id="style4552"/><style id="style4511-2"/><linearGradient gradientTransform="matrix(.3071 0 0 .30202 -63.471 2.719)" xlink:href="#linearGradient4488" id="linearGradient4160" x1="288.112" y1="141.785" x2="287.575" y2="79.008" gradientUnits="userSpaceOnUse"/><linearGradient x2="47" x1="1" gradientTransform="rotate(-90 25.514 25.852)" gradientUnits="userSpaceOnUse" id="linearGradient3092"><stop id="stop1209" stop-opacity="1" stop-color="#26a8de"/><stop id="stop1211" stop-opacity="1" stop-color="#38aee1" offset="1"/></linearGradient><linearGradient xlink:href="#linearGradient3092" id="linearGradient1219" x1="2.707" y1="24.002" x2="45.409" y2="24.002" gradientUnits="userSpaceOnUse"/></defs><style id="style4485" type="text/css"/><g id="g1225"><path id="rect4144" d="M19.74 3.213h8.587c14.059 0 16.987 11.181 16.987 17.18v7.082c0 5.925-2.733 17.181-18.03 17.181h-7.006c-11.689 0-17.333-7.662-17.333-17.18v-7.082c0-9.518 5.53-17.181 16.794-17.181z" opacity="1" fill="#256a99" fill-opacity="1" stroke="#000" stroke-width=".335" stroke-linecap="square" stroke-linejoin="bevel" stroke-miterlimit="4" stroke-dasharray="none" stroke-dashoffset="0" stroke-opacity=".078"/><path id="rect4144-3" d="M19.668 3.122h8.587c14.058 0 16.986 11.267 16.986 17.313v7.135c0 5.97-2.733 17.313-18.03 17.313h-7.004c-11.688 0-17.331-7.722-17.331-17.313v-7.135c0-9.591 5.529-17.313 16.792-17.313z" opacity="1" fill="url(#linearGradient1219)" fill-opacity="1" stroke="#000" stroke-width=".336" stroke-linecap="square" stroke-linejoin="bevel" stroke-miterlimit="4" stroke-dasharray="none" stroke-dashoffset="0" stroke-opacity=".078"/><path id="path4147" d="M2.883 26.804v1.658c0 9.519 5.644 17.181 17.332 17.181h7.006c15.297 0 18.03-11.256 18.03-17.18v-1.66c0 5.925-2.733 17.182-18.03 17.182h-7.006c-11.688 0-17.332-7.663-17.332-17.181z" opacity="1" fill="url(#linearGradient4160)" fill-opacity="1" stroke="none" stroke-width="1.103" stroke-linecap="square" stroke-linejoin="bevel" stroke-miterlimit="4" stroke-dasharray="none" stroke-dashoffset="0" stroke-opacity=".078"/><path id="path1228" d="M31.305 16.948c-1.808.106-3.704.68-5.549 1.78-2.601-1.1-11.772-2.072-12.59 7.194-1.864-.309-6.693 1.314-6.989 5.363l-2.791 1.562c.55 1.87 1.539 4.52 2.459 5.642 1.191 1.451 3.083 3.193 4.63 4.15 1.75 1.08 3.392 1.507 5.522 2.008 2.256.322 4.757.39 7.138.39 1.24 0 2.187-.054 3.409-.051 1.211.003 2.81-.1 3.738-.19.727-.07 2.793-.485 3.398-.651.629-.173 2.248-.794 2.962-1.133.77-.366 2.048-1.099 2.88-1.831.834-.732 1.604-1.496 2.265-2.355.63-.818 1.309-1.987 1.736-2.89.398-.844.721-1.932 1.146-2.928-1.704-.54-3.015-2.896-3.28-2.948 1.742-8.011-3.622-13.497-10.078-13.115z" fill="#fff" fill-opacity=".902" fill-rule="nonzero" stroke="none" stroke-width=".903"/></g></svg>