<svg xmlns:osb="http://www.openswatchbook.org/uri/2009/osb" xmlns="http://www.w3.org/2000/svg" xmlns:xlink="http://www.w3.org/1999/xlink" width="48" height="48" version="1.1" id="svg38"><defs id="defs22"><linearGradient id="linearGradient4488"><stop id="stop4490" offset="0" stop-color="#000" stop-opacity=".047"/><stop id="stop4492" offset="1" stop-color="#000" stop-opacity="0"/></linearGradient><style id="style4511"/><style id="style4511-26"/><style id="style4511-9"/><style id="style4552"/><style id="style4511-2"/><linearGradient xlink:href="#linearGradient4488" id="linearGradient4540" gradientUnits="userSpaceOnUse" gradientTransform="matrix(.30673 0 0 .3038 -63.522 2.3)" x1="288.112" y1="141.785" x2="287.575" y2="79.008"/><linearGradient osb:paint="solid" id="linearGradient5293"><stop id="stop5295" offset="0" stop-color="#9a89c0" stop-opacity="1"/></linearGradient></defs><style id="style4485" type="text/css"/><path id="path4516" d="M2.75 26.526v1.668c0 9.574 5.638 17.282 17.312 17.282h6.998c15.278 0 18.008-11.323 18.008-17.282v-1.668c0 5.959-2.73 17.281-18.008 17.281h-6.998c-11.674 0-17.311-7.707-17.311-17.281z" opacity="1" fill="url(#linearGradient4540)" fill-opacity="1" stroke="none" stroke-width="1.105" stroke-linecap="square" stroke-linejoin="bevel" stroke-miterlimit="4" stroke-dasharray="none" stroke-dashoffset="0" stroke-opacity=".078"/><path id="path4518" d="M19.524 3.048h8.578c14.042 0 16.966 11.247 16.966 17.282v7.123c0 5.959-2.73 17.281-18.009 17.281h-6.997c-11.674 0-17.311-7.707-17.311-17.281V20.33c0-9.574 5.523-17.282 16.773-17.282z" opacity="1" fill="#ccc" fill-opacity="1" stroke="#000" stroke-width=".336" stroke-linecap="square" stroke-linejoin="bevel" stroke-miterlimit="4" stroke-dasharray="none" stroke-dashoffset="0" stroke-opacity=".078"/><g id="g563" transform="matrix(.8617 0 0 .90807 3.229 2.097)" fill="#6c3895" stroke-width="1.13"><path id="path557" d="M5.25 12.938l.004 1.718 4.953.45 9.367 11.3.285 5.844c-.25 1.012-1.05.648-1.625.86l-3.46.027.035 1.5 15.425-.13v-1.46l-4.543-.031c-.57.09-.523-.332-.574-.672l-.285-5.555c.07-.445.164-.894.762-1.34l8.984-7.183 4.207-.766.66-1.328h-13.98l.226 1.426 4.012.382c.242.192.715.18.192 1.051l-5.829 5.078c-.308.18-.546.082-.765-.097l-6.5-8.524c-.48-.68-.008-.804.574-.86l4.207-.19V13z"/><path id="path559" d="M33.777 31.71l1.856 1.153-1.25 2.2-1.89-1.184z"/><path id="path561" d="M34.676 29.71l1.574 1.005 6.5-10.676-3.68-2.11z"/></g></svg>