<svg xmlns="http://www.w3.org/2000/svg" xmlns:xlink="http://www.w3.org/1999/xlink" width="48" height="48" version="1.1" id="svg38"><defs id="defs22"><linearGradient id="linearGradient4488"><stop id="stop4490" offset="0" stop-color="#000" stop-opacity=".047"/><stop id="stop4492" offset="1" stop-color="#000" stop-opacity="0"/></linearGradient><style id="style4511"/><style id="style4511-26"/><style id="style4511-9"/><style id="style4552"/><style id="style4511-2"/><linearGradient gradientTransform="translate(-63.205 2.216) scale(.3038)" xlink:href="#linearGradient4488" id="linearGradient4160" x1="288.112" y1="141.785" x2="287.575" y2="79.008" gradientUnits="userSpaceOnUse"/><clipPath id="clipPath-024338034"/></defs><style id="style4485" type="text/css"/><path d="M2.433 26.443v1.668c0 9.575 5.583 17.282 17.146 17.282h6.93c15.133 0 17.837-11.322 17.837-17.282v-1.668c0 5.96-2.704 17.282-17.837 17.282h-6.93c-11.563 0-17.146-7.708-17.146-17.282z" id="path4147" opacity="1" fill="url(#linearGradient4160)" fill-opacity="1" stroke="none" stroke-width="1.1" stroke-linecap="square" stroke-linejoin="bevel" stroke-miterlimit="4" stroke-dasharray="none" stroke-dashoffset="0" stroke-opacity=".078"/><path d="M19.046 2.965h8.495c13.908 0 16.805 11.246 16.805 17.282v7.123c0 5.96-2.704 17.282-17.837 17.282h-6.93c-11.562 0-17.146-7.708-17.146-17.282v-7.123c0-9.575 5.47-17.282 16.613-17.282z" id="rect4144" opacity="1" fill="#e6e6e6" fill-opacity="1" stroke="#000" stroke-width=".334" stroke-linecap="square" stroke-linejoin="bevel" stroke-miterlimit="4" stroke-dasharray="none" stroke-dashoffset="0" stroke-opacity=".078"/><g id="g429" transform="matrix(1.34756 0 0 1.26367 -7.231 -5.407)" stroke-width=".766" fill="#0071c6"><g id="g391" transform="matrix(.23262 0 0 .23007 10.723 11.12)" stroke-width=".766"><path id="path387" d="M64.483 21.733V42.52l7.214 5.291h.784l30.692-21.733c0-2.448-1.7-4.346-4.299-4.346z"/><path id="path389" d="M64.567 50.133l6.507 4.47c.917.674 2.022 0 2.022 0-1.101.674 30.077-19.83 30.077-19.83v39.119c0 2.647-1.31 4.346-4.299 4.346h-34.39z"/></g><path d="M17.905 20.49c-.516 0-.927.24-1.23.718-.304.479-.456 1.113-.456 1.901 0 .8.152 1.434.456 1.899.303.466.701.697 1.193.697.508 0 .91-.226 1.208-.678.297-.453.447-1.081.447-1.884 0-.838-.144-1.49-.433-1.956-.29-.465-.684-.697-1.185-.697z" id="path393" stroke-width=".695"/><path d="M10.723 14.12v18l14 3v-24zm9.453 11.992c-.597.777-1.375 1.166-2.336 1.166-.936 0-1.698-.376-2.287-1.13-.59-.753-.884-1.733-.884-2.943 0-1.278.299-2.31.897-3.1.6-.788 1.392-1.183 2.379-1.183.932 0 1.687.377 2.262 1.132.576.756.864 1.75.864 2.987.001 1.27-.298 2.294-.895 3.07z" id="path395" stroke-width=".695"/></g></svg>