<svg xmlns="http://www.w3.org/2000/svg" xmlns:xlink="http://www.w3.org/1999/xlink" width="48" height="48" version="1.1" id="svg38"><defs id="defs22"><linearGradient id="linearGradient4488"><stop id="stop4490" offset="0" stop-color="#000" stop-opacity=".047"/><stop id="stop4492" offset="1" stop-color="#000" stop-opacity="0"/></linearGradient><style id="style4511"/><style id="style4511-26"/><style id="style4511-9"/><style id="style4552"/><style id="style4511-2"/><linearGradient xlink:href="#linearGradient4488" id="linearGradient4548" gradientUnits="userSpaceOnUse" gradientTransform="translate(-62.55 1.994) scale(.3038)" x1="288.112" y1="141.785" x2="287.575" y2="79.008"/></defs><style id="style4485" type="text/css"/><path id="path4532" d="M3.088 26.22v1.67c0 9.573 5.583 17.281 17.146 17.281h6.93c15.133 0 17.837-11.322 17.837-17.282v-1.668c0 5.96-2.704 17.282-17.837 17.282h-6.93c-11.563 0-17.146-7.708-17.146-17.282z" opacity="1" fill="url(#linearGradient4548)" fill-opacity="1" stroke="none" stroke-width="1.1" stroke-linecap="square" stroke-linejoin="bevel" stroke-miterlimit="4" stroke-dasharray="none" stroke-dashoffset="0" stroke-opacity=".078"/><path id="path4534" d="M19.701 2.742h8.495c13.908 0 16.805 11.247 16.805 17.282v7.124c0 5.96-2.704 17.282-17.837 17.282h-6.93c-11.562 0-17.146-7.708-17.146-17.282v-7.124c0-9.574 5.47-17.282 16.613-17.282z" opacity="1" fill="#3888c3" fill-opacity="1" stroke="#000" stroke-width=".334" stroke-linecap="square" stroke-linejoin="bevel" stroke-miterlimit="4" stroke-dasharray="none" stroke-dashoffset="0" stroke-opacity=".078"/><path id="path1234" d="M13.448 15.728c2.302 0 4.167 1.927 4.167 4.305 0 2.379-1.865 4.306-4.167 4.306-2.302 0-4.168-1.927-4.168-4.306 0-2.378 1.866-4.305 4.168-4.305z" fill="#fff" stroke-width="1.059"/><path id="path1236" d="M15.532 20.033a2.084 2.153 0 1 1-4.168 0 2.084 2.153 0 1 1 4.168 0z" fill="#353535" stroke-width="1.059"/><path id="path1240" d="M23.867 17.881c1.154 0 2.083.72 2.083 1.614v3.23c0 .894-.929 1.614-2.083 1.614-1.155 0-2.084-.72-2.084-1.615v-3.229c0-.894.93-1.614 2.084-1.614z" fill="#fff" stroke-width="1.059"/><g id="g1252" transform="matrix(1.04187 0 0 1.07627 19.7 -5.797)"><path id="path1248" d="M14 20a4 4 0 1 1 0 8 4 4 0 1 1 0-8z" fill="#fff"/><path id="path1250" d="M16 24a2 2 0 1 1-4 0 2 2 0 1 1 4 0z" fill="#353535"/></g><path id="path1256" d="M41.578 28.644h-6.25v3.228h-7.294v-3.228h-4.167m-17.712 0h6.251v3.228h7.293v-3.228h4.168" fill="none" stroke="#fff" stroke-width="2.118" stroke-linejoin="round"/></svg>