<svg xmlns:osb="http://www.openswatchbook.org/uri/2009/osb" xmlns="http://www.w3.org/2000/svg" xmlns:xlink="http://www.w3.org/1999/xlink" width="48" height="48" version="1.1" id="svg38"><defs id="defs22"><linearGradient id="linearGradient4488"><stop id="stop4490" offset="0" stop-color="#000" stop-opacity=".047"/><stop id="stop4492" offset="1" stop-color="#000" stop-opacity="0"/></linearGradient><style id="style4511"/><style id="style4511-26"/><style id="style4511-9"/><linearGradient id="linearGradient4217"><stop id="stop12-5" offset="0" stop-color="#1f93b9" stop-opacity="1"/><stop id="stop14-5" offset="1" stop-color="#1a5c9b" stop-opacity="1"/></linearGradient><style id="style4552"/><style id="style4511-2"/><linearGradient xlink:href="#linearGradient4488" id="linearGradient4540" gradientUnits="userSpaceOnUse" gradientTransform="translate(-62.889 1.994) scale(.3038)" x1="288.112" y1="141.785" x2="287.575" y2="79.008"/><linearGradient osb:paint="solid" id="linearGradient5293"><stop id="stop5295" offset="0" stop-color="#9a89c0" stop-opacity="1"/></linearGradient><clipPath id="clipPath-770810593"/><clipPath id="clipPath-779068817"/><linearGradient xlink:href="#linearGradient4217" id="linearGradient1359" x1="2.583" y1="23.586" x2="44.83" y2="23.586" gradientUnits="userSpaceOnUse"/></defs><style id="style4485" type="text/css"/><path stroke-miterlimit="4" id="path4516" d="M2.75 26.22v1.67c0 9.573 5.583 17.281 17.146 17.281h6.93c15.132 0 17.836-11.322 17.836-17.282v-1.668c0 5.96-2.704 17.282-17.836 17.282h-6.93C8.333 43.503 2.75 35.795 2.75 26.22z" opacity="1" fill="url(#linearGradient4540)" fill-opacity="1" stroke="none" stroke-width="1.1" stroke-linecap="square" stroke-linejoin="bevel" stroke-dasharray="none" stroke-dashoffset="0" stroke-opacity=".078"/><path stroke-miterlimit="4" id="path4518" d="M19.363 2.742h8.495c13.908 0 16.804 11.247 16.804 17.282v7.124c0 5.96-2.704 17.282-17.836 17.282h-6.93C8.333 44.43 2.75 36.722 2.75 27.148v-7.124c0-9.574 5.47-17.282 16.613-17.282z" opacity="1" fill="url(#linearGradient1359)" fill-opacity="1" stroke="#000" stroke-width=".334" stroke-linecap="square" stroke-linejoin="bevel" stroke-dasharray="none" stroke-dashoffset="0" stroke-opacity=".078"/><path id="path481" d="M23.417 5.88c-2.315 0-4.52.427-6.565 1.187 5.622.095 8.792.67 11.672 2.214.237.127.481.26.715.406a23.503 23.06 0 0 1 2.149 1.483c3.142 2.423 3.415 5.37 6.085 7.624 1.624 1.37 1.403 1.254 2.156 1.254.825 0 1.242-.728 1.44-1.519-2.393-7.334-9.393-12.648-17.652-12.648m-7.435 3.34a5.777 5.668 0 0 0-1.167.12c-.13.028-.255.054-.385.089-3.552.935-6.593 4.78-7.586 6.546-.06.11-.134.244-.202.364a18.145 17.804 0 0 0-1.248 3.46c.285-.357.56-.692.835-1.01 1.925-2.213 3.685-3.41 6.218-3.41 4.513 0 5.089 1.974 13.363 7.268 4.07 2.606 10.25 6.194 15.346 6.726.209-.667.374-1.367.5-2.058-1.903-.134-3.62-.85-5.48-2.059-.263-.172-.533-.35-.807-.544-2.173-1.54-4.592-3.721-7.737-6.437-2.398-2.058-8.422-9.067-11.65-9.067M9.514 29.993c-1.433 0-2.498.71-2.62 2.314a18.614 18.264 0 0 0 9.494 8.59c-.058-.073-.108-.155-.162-.24-.385-.583-.756-1.374-.756-2.28 0-1.06.695-1.476 1.483-1.476 1.044 0 4.495 1.613 10.268 1.613 2.89 0 6.495-.417 9.134-1.413a18.887 18.531 0 0 0 2.743-3.323c-1.688.671-4.809 1.642-8.868 1.642-7.85 0-15.004-3.295-17.07-4.351-.55-.28-1.957-1.08-3.638-1.08m-.007.003" fill="#f9f9f9" fill-opacity="1" fill-rule="evenodd" stroke="none" stroke-width=".913"/></svg>