<svg xmlns="http://www.w3.org/2000/svg" xmlns:xlink="http://www.w3.org/1999/xlink" width="48" height="48" version="1.1" id="svg38"><defs id="defs22"><linearGradient id="linearGradient3764-3" x1="1" x2="47" gradientUnits="userSpaceOnUse" gradientTransform="rotate(-90 -2.483 48.559)"><stop id="stop1312" stop-color="#e1e1e1" stop-opacity="1"/><stop offset="1" id="stop1314" stop-color="#ebebeb" stop-opacity="1"/></linearGradient><linearGradient id="linearGradient4488"><stop id="stop4490" offset="0" stop-color="#000" stop-opacity=".047"/><stop id="stop4492" offset="1" stop-color="#000" stop-opacity="0"/></linearGradient><style id="style4511"/><style id="style4511-26"/><style id="style4511-9"/><style id="style4552"/><style id="style4511-2"/><linearGradient xlink:href="#linearGradient4488" id="linearGradient4471" gradientUnits="userSpaceOnUse" gradientTransform="matrix(.3038 0 0 .3086 -62.47 2.206)" x1="288.112" y1="141.785" x2="287.575" y2="79.008"/><linearGradient xlink:href="#linearGradient3764-3" id="linearGradient1323" x1="3.112" y1="24.139" x2="45.136" y2="24.139" gradientUnits="userSpaceOnUse"/></defs><style id="style4485" type="text/css"/><path d="M3.168 26.815v1.695c0 9.725 5.583 17.555 17.146 17.555h6.93c15.132 0 17.836-11.502 17.836-17.555v-1.695c0 6.054-2.704 17.555-17.836 17.555h-6.93c-11.563 0-17.146-7.83-17.146-17.555z" id="path4467" opacity="1" fill="url(#linearGradient4471)" fill-opacity="1" stroke="none" stroke-width="1.109" stroke-linecap="square" stroke-linejoin="bevel" stroke-miterlimit="4" stroke-dasharray="none" stroke-dashoffset="0" stroke-opacity=".078"/><path d="M3.28 28.55v-8.629c0-14.127 11.247-17.07 17.283-17.07h7.123c5.96 0 17.282 2.748 17.282 18.119v7.04c0 11.744-7.708 17.416-17.282 17.416h-7.123c-9.575 0-17.282-5.557-17.282-16.876z" id="path4469" opacity="1" fill="url(#linearGradient1323)" fill-opacity="1" stroke="#000" stroke-width=".337" stroke-linecap="square" stroke-linejoin="bevel" stroke-miterlimit="4" stroke-dasharray="none" stroke-dashoffset="0" stroke-opacity=".078"/><g id="g1286" transform="matrix(.90339 0 0 .91356 60.763 9.387)"><path id="path1204" d="M-50.557 6.148l-10 10h20v-10" fill="#fec006"/><path id="path1206" d="M-30.557 6.148l-10-10v20h10" fill="#f34235"/><path id="path1208" d="M-50.557 26.148l10 10v-20h-10" fill="#4bae4f"/><path id="path1210" d="M-30.557 26.148l10-10h-20v10" fill="#2095f2"/><path id="path1212" d="M-40.557 16.148v1h19l1-1z" opacity=".2" fill="#fff"/><path id="path1214" d="M-30.557 6.148l-10 10h10z" fill="#9c27b0"/><path id="path1216" d="M-50.557 16.148v10l10-10z" fill="#1ea362"/><path id="path1218-3" d="M-40.557 16.148v10h10z" fill="#3e50b4"/><path id="path1220" d="M-50.557 6.148l10 10v-10z" fill="#fe9700"/><path id="path1222" d="M-40.557-3.852v1l10 10v-1zm-10 10l-10 10h1l9-9h10v-1z" opacity=".2" fill="#fff"/><path id="path1224" d="M-40.557 11.148l-2 4-4 2 4 2 2 4 2-4 4-2-4-2z" opacity=".2"/><path id="path1226" d="M-40.557 10.148l-2 4-4 2 4 2 2 4 2-4 4-2-4-2z" fill="#fff"/><path id="path1228" d="M-46.557 16.148l4 2 2 4v-6z" fill="#ebebeb"/><path id="path1230" d="M-34.557 16.148l-4 2-2 4v-6z" fill="#dfdfdf"/></g></svg>