<svg xmlns="http://www.w3.org/2000/svg" xmlns:xlink="http://www.w3.org/1999/xlink" width="48" height="48" version="1.1" id="svg38"><defs id="defs22"><linearGradient id="linearGradient4488"><stop id="stop4490" offset="0" stop-color="#000" stop-opacity=".047"/><stop id="stop4492" offset="1" stop-color="#000" stop-opacity="0"/></linearGradient><style id="style4511"/><style id="style4511-26"/><style id="style4511-9"/><style id="style4552"/><style id="style4511-2"/><linearGradient xlink:href="#linearGradient4488" id="linearGradient4483" gradientUnits="userSpaceOnUse" gradientTransform="matrix(.30864 0 0 .3038 -63.956 2.216)" x1="288.112" y1="141.785" x2="287.575" y2="79.008"/></defs><style id="style4485" type="text/css"/><g id="g345"><path id="path4479" d="M2.729 26.443v1.668c0 9.575 5.672 17.282 17.419 17.282h7.04c15.374 0 18.121-11.322 18.121-17.282v-1.668c0 5.96-2.747 17.282-18.12 17.282h-7.041c-11.747 0-17.42-7.708-17.42-17.282z" opacity="1" fill="url(#linearGradient4483)" fill-opacity="1" stroke="none" stroke-width="1.109" stroke-linecap="square" stroke-linejoin="bevel" stroke-miterlimit="4" stroke-dasharray="none" stroke-dashoffset="0" stroke-opacity=".078"/><path id="path4481" d="M19.606 2.965h8.63c14.13 0 17.073 11.246 17.073 17.282v7.123c0 5.96-2.747 17.282-18.12 17.282h-7.041c-11.747 0-17.42-7.708-17.42-17.282v-7.123c0-9.575 5.558-17.282 16.878-17.282z" opacity="1" fill="#f45731" fill-opacity=".961" stroke="#000" stroke-width=".337" stroke-linecap="square" stroke-linejoin="bevel" stroke-miterlimit="4" stroke-dasharray="none" stroke-dashoffset="0" stroke-opacity=".078"/><g id="g7798" transform="matrix(1.1992 0 0 1.20236 163.874 -6.418)" fill-opacity="1" stroke="none" stroke-opacity="1"><circle r="12.228" cy="25.139" cx="-116.623" id="circle7751" fill="#ffd119" fill-rule="evenodd" stroke-width="1" stroke-linecap="butt" stroke-linejoin="miter"/><circle id="path6949" cx="-116.623" cy="25.139" r="9.69" fill="#ff8c00" fill-rule="evenodd" stroke-width="1" stroke-linecap="butt" stroke-linejoin="miter"/><path id="path6941-3" d="M-115.42 18.95v5.648a3.554 3.554 0 0 0-2.368-.91 3.554 3.554 0 0 0-3.554 3.555 3.554 3.554 0 0 0 3.554 3.554 3.554 3.554 0 0 0 3.554-3.554V21.32h2.369v-2.37h-2.37z" opacity="1" fill="#fafafa" stroke-width="2.102" stroke-linecap="round" stroke-linejoin="round" stroke-miterlimit="4" stroke-dasharray="none" stroke-dashoffset="0"/></g></g></svg>