<svg xmlns="http://www.w3.org/2000/svg" xmlns:xlink="http://www.w3.org/1999/xlink" width="48" height="48" version="1.1" id="svg38"><defs id="defs22"><linearGradient id="linearGradient4488"><stop id="stop4490" offset="0" stop-color="#000" stop-opacity=".047"/><stop id="stop4492" offset="1" stop-color="#000" stop-opacity="0"/></linearGradient><style id="style4511"/><style id="style4511-26"/><style id="style4511-9"/><style id="style4552"/><style id="style4511-2"/><linearGradient xlink:href="#linearGradient4488" id="linearGradient4471" gradientUnits="userSpaceOnUse" gradientTransform="matrix(.3038 0 0 .3086 -62.47 2.206)" x1="288.112" y1="141.785" x2="287.575" y2="79.008"/><linearGradient id="linearGradient3798-7"><stop id="stop3800-5" offset="0" stop-color="#ede9ce" stop-opacity="1"/><stop id="stop3802-3" offset="1" stop-color="#f5f2de" stop-opacity="1"/></linearGradient><linearGradient xlink:href="#linearGradient3798-7" id="linearGradient1827" x1="3.112" y1="24.139" x2="45.136" y2="24.139" gradientUnits="userSpaceOnUse"/></defs><style id="style4485" type="text/css"/><path d="M3.168 26.815v1.695c0 9.725 5.583 17.555 17.146 17.555h6.93c15.132 0 17.836-11.502 17.836-17.555v-1.695c0 6.054-2.704 17.555-17.836 17.555h-6.93c-11.563 0-17.146-7.83-17.146-17.555z" id="path4467" opacity="1" fill="url(#linearGradient4471)" fill-opacity="1" stroke="none" stroke-width="1.109" stroke-linecap="square" stroke-linejoin="bevel" stroke-miterlimit="4" stroke-dasharray="none" stroke-dashoffset="0" stroke-opacity=".078"/><path d="M3.28 28.55v-8.629c0-14.127 11.247-17.07 17.283-17.07h7.123c5.96 0 17.282 2.748 17.282 18.119v7.04c0 11.744-7.708 17.416-17.282 17.416h-7.123c-9.575 0-17.282-5.557-17.282-16.876z" id="path4469" opacity="1" fill="url(#linearGradient1827)" fill-opacity="1" stroke="#000" stroke-width=".337" stroke-linecap="square" stroke-linejoin="bevel" stroke-miterlimit="4" stroke-dasharray="none" stroke-dashoffset="0" stroke-opacity=".078"/><g id="g1802" transform="matrix(1.13504 0 0 1.2084 76.276 -6.15)" fill-opacity="1" stroke="none"><path d="M-43.947 37.064v-18h-4v18" id="path3315" fill="#14a6db" fill-rule="nonzero" stroke-width="3.543"/><path d="M-47.947 19.064l-10-6v18l10 6" id="path3313" fill="#237bba" fill-rule="nonzero" stroke-width="3.543"/><path d="M-33.947 31.064v-18l-10 6v18" id="path3311" fill="#63c5e7" fill-rule="nonzero" stroke-width="3.543"/><path d="M-33.947 13.064c-4 0-8 1.02-12 4.5-4-3.395-8-4.5-12-4.5l10 6h4" id="path3309" fill="#0a5168" fill-rule="nonzero" stroke-width="3.543"/><path d="M-40.947 17.064v5l3-3v-4h-3z" id="path4085" fill="#0a5168"/></g></svg>