<svg xmlns="http://www.w3.org/2000/svg" xmlns:xlink="http://www.w3.org/1999/xlink" width="48" height="48"><defs><linearGradient id="d"><stop offset="0" stop-color="#fefafa"/><stop offset="1" stop-color="#fefafa" stop-opacity="0"/></linearGradient><linearGradient id="c"><stop offset="0" stop-color="#292c2f"/><stop offset="1" stop-opacity="0"/></linearGradient><linearGradient id="b"><stop offset="0" stop-color="#999a9c"/><stop offset="1" stop-color="#f4f5f5"/></linearGradient><linearGradient id="a"><stop offset="0" stop-color="#2a2c2f"/><stop offset="1" stop-color="#424649"/></linearGradient><linearGradient xlink:href="#a" id="e" x1="409.571" y1="543.798" x2="409.571" y2="503.798" gradientUnits="userSpaceOnUse" gradientTransform="matrix(1 0 0 .75 -384.57 -363.85)"/><linearGradient xlink:href="#b" id="f" x1="27.586" y1="24" x2="13.49" y2="23.901" gradientUnits="userSpaceOnUse" gradientTransform="rotate(90 18.818 25.646)"/><linearGradient xlink:href="#c" id="g" x1="403.571" y1="523.798" x2="416.571" y2="536.798" gradientUnits="userSpaceOnUse" gradientTransform="translate(-384.52 -496.556)"/><linearGradient xlink:href="#d" id="h" x1="25" y1="4" x2="25" y2="14" gradientUnits="userSpaceOnUse"/></defs><rect ry="0" y="14" x="4" height="30" width="40" fill="url(#e)" stroke-width=".866"/><path fill="#1c1e20" d="M3.999 43.002h40v1h-40z"/><path d="M36.121 18.758l-7.07 7.07-8.586 8.586-8.586-8.586-1.414 1.414 8.586 8.586 1.414 1.414 1.414-1.414 8.586-8.586 7.07-7.07z" fill="url(#f)"/><path d="M37.535 20.172l-17.07 17.07L27.223 44h16.775V26.635l-6.463-6.463z" opacity=".4" fill="url(#g)" fill-rule="evenodd"/><path fill="#d83e3c" stroke-width="2.125" stroke-linecap="round" stroke-linejoin="round" d="M4 4h10v10H4z"/><path fill="#3d64c7" stroke-width="2.125" stroke-linecap="round" stroke-linejoin="round" d="M14 4h10v10H14z"/><path fill="#06a652" stroke-width="2.125" stroke-linecap="round" stroke-linejoin="round" d="M24 4h10v10H24z"/><path fill="#ebb413" stroke-width="2.125" stroke-linecap="round" stroke-linejoin="round" d="M34 4h10v10H34z"/><path d="M4 4v10h40V4H14z" opacity=".4" fill="url(#h)" stroke-width="2.125" stroke-linecap="round" stroke-linejoin="round"/></svg>