<svg xmlns:osb="http://www.openswatchbook.org/uri/2009/osb" xmlns="http://www.w3.org/2000/svg" xmlns:xlink="http://www.w3.org/1999/xlink" width="48" height="48" version="1.1" id="svg38"><defs id="defs22"><linearGradient id="linearGradient4488"><stop id="stop4490" offset="0" stop-color="#000" stop-opacity=".047"/><stop id="stop4492" offset="1" stop-color="#000" stop-opacity="0"/></linearGradient><style id="style4511"/><style id="style4511-26"/><style id="style4511-9"/><style id="style4552"/><style id="style4511-2"/><linearGradient xlink:href="#linearGradient4488" id="linearGradient4540" gradientUnits="userSpaceOnUse" gradientTransform="matrix(.30795 0 0 .30379 -63.784 1.995)" x1="288.112" y1="141.785" x2="287.575" y2="79.008"/><linearGradient osb:paint="solid" id="linearGradient5293"><stop id="stop5295" offset="0" stop-color="#9a89c0" stop-opacity="1"/></linearGradient></defs><style id="style4485" type="text/css"/><path id="path4516" d="M2.751 26.22v1.669c0 9.574 5.66 17.281 17.38 17.281h7.025c15.34 0 18.08-11.322 18.08-17.281V26.22c0 5.96-2.74 17.282-18.08 17.282h-7.025c-11.72 0-17.38-7.708-17.38-17.282z" opacity="1" fill="url(#linearGradient4540)" fill-opacity="1" stroke="none" stroke-width="1.107" stroke-linecap="square" stroke-linejoin="bevel" stroke-miterlimit="4" stroke-dasharray="none" stroke-dashoffset="0" stroke-opacity=".078"/><path id="path4518" d="M19.591 2.743h8.611c14.098 0 17.034 11.247 17.034 17.282v7.122c0 5.96-2.74 17.282-18.08 17.282h-7.025c-11.72 0-17.38-7.708-17.38-17.282v-7.122c0-9.574 5.545-17.282 16.84-17.282z" opacity="1" fill="#e6e6e6" fill-opacity="1" stroke="#000" stroke-width=".336" stroke-linecap="square" stroke-linejoin="bevel" stroke-miterlimit="4" stroke-dasharray="none" stroke-dashoffset="0" stroke-opacity=".078"/><g id="g1317" transform="translate(52.614 1.398)"><path id="path1279" d="M-28.62 19.188v6h7.408a8 8 0 0 1-2.93 3.621l5.042 3.799c2.765-2.56 4.48-6.29 4.48-10.42 0-.672-.06-1.323-.148-1.967l.011-.08-.164-.953h-2.345z" fill="#3779d7"/><path id="path1281" d="M-28.323 8.188c-5.49 0-10.378 3.16-12.756 7.76l4.996 3.38a8 8 0 0 1 7.463-5.14 8 8 0 0 1 5.5 2.203l4.184-4.453a13.502 13.502 0 0 0-9.387-3.75z" fill="#e7453c"/><path id="path1283" d="M-41.089 15.948c-.969 1.88-1.53 4-1.53 6.24 0 2.32.592 4.5 1.622 6.42l4.94-3.477a8 8 0 0 1-.563-2.943 8 8 0 0 1 .537-2.86l-1.658-1.12z" fill="#eead33"/><path id="path1285" d="M-36.053 25.137l-4.934 3.47c2.408 4.5 7.246 7.581 12.664 7.581 3.592 0 6.804-1.35 9.223-3.58l-4.989-3.838a8 8 0 0 1-4.53 1.418 8 8 0 0 1-7.434-5.05z" fill="#359950"/></g></svg>