<svg xmlns="http://www.w3.org/2000/svg" xmlns:xlink="http://www.w3.org/1999/xlink" width="48" height="48" version="1.1" id="svg38"><defs id="defs22"><style id="style4511"/><style id="style4511-26"/><style id="style4511-9"/><style id="style4552"/><style id="style4511-2"/><linearGradient gradientTransform="rotate(-90 -6.347 55.067)" gradientUnits="userSpaceOnUse" x2="47" x1="1" id="linearGradient3764-3"><stop id="stop1151" stop-opacity="1" stop-color="#d84430"/><stop id="stop1153" stop-opacity="1" stop-color="#db5441" offset="1"/></linearGradient><clipPath id="clipPath-664114963"/><linearGradient xlink:href="#linearGradient3764-3" id="linearGradient1281" x1="2.56" y1="23.808" x2="45.477" y2="23.808" gradientUnits="userSpaceOnUse"/></defs><style id="style4485" type="text/css"/><path d="M19.606 2.965h8.63c14.13 0 17.073 11.246 17.073 17.282v7.123c0 5.96-2.747 17.282-18.12 17.282h-7.041c-11.747 0-17.42-7.708-17.42-17.282v-7.123c0-9.575 5.558-17.282 16.878-17.282z" id="path4481" opacity="1" fill="url(#linearGradient1281)" fill-opacity="1" stroke="#000" stroke-width=".337" stroke-linecap="square" stroke-linejoin="bevel" stroke-miterlimit="4" stroke-dasharray="none" stroke-dashoffset="0" stroke-opacity=".078"/><path id="path1196" d="M21.056 12.945c.191.148.418.348.676.598.258.23.508.527.742.883.238.336.441.734.613 1.199.172.461.258.984.258 1.574 0 .586-.074 1.102-.227 1.543a4.41 4.41 0 0 1-.613 1.195 7.102 7.102 0 0 1-.871.945c-.32.273-.656.535-1 .789a8.93 8.93 0 0 0-.613.66c-.191.23-.289.523-.289.883 0 .355.098.641.289.848.195.191.379.359.551.508l1.16.879c.344.297.68.59 1 .883.344.293.637.609.871.945a4.1 4.1 0 0 1 .613 1.133c.152.422.227.902.227 1.449 0 .734-.184 1.461-.547 2.176-.367.711-.906 1.344-1.613 1.887-.711.566-1.605 1.02-2.68 1.355-1.055.355-2.27.535-3.645.535-1.164 0-2.184-.125-3.066-.379-.859-.25-1.582-.586-2.16-1.012-.582-.418-1.012-.902-1.293-1.449a3.512 3.512 0 0 1-.418-1.668c0-.566.184-1.219.547-1.953.348-.715.992-1.344 1.938-1.891a8.31 8.31 0 0 1 1.582-.723 18.087 18.087 0 0 1 1.707-.41c.566-.105 1.086-.18 1.582-.219.496-.043.926-.074 1.289-.098a17.708 17.708 0 0 1-.676-.91c-.195-.336-.289-.746-.289-1.23 0-.273.031-.492.094-.66.066-.191.148-.379.23-.566-.172.02-.348.039-.52.063h-.516c-.859 0-1.625-.137-2.289-.406a5.327 5.327 0 0 1-1.68-1.137 4.712 4.712 0 0 1-1.031-1.578 4.937 4.937 0 0 1-.355-1.82c0-.734.172-1.473.52-2.207.344-.754.855-1.426 1.551-2.023.922-.73 1.891-1.207 2.902-1.418 1.027-.207 1.984-.313 2.871-.313h6.645l-2.066 1.133h-2m-3.551 8.883c.41 0 .816-.086 1.195-.254.406-.168.742-.375 1-.629.363-.355.59-.754.676-1.195.086-.438.129-.809.129-1.102 0-.57-.086-1.188-.258-1.859a7.485 7.485 0 0 0-.77-1.891 4.813 4.813 0 0 0-1.289-1.449 2.704 2.704 0 0 0-1.742-.598c-.434 0-.855.094-1.258.285-.41.188-.742.438-1 .754a2.822 2.822 0 0 0-.578 1.102 5.814 5.814 0 0 0-.129 1.23c0 .523.07 1.113.227 1.762.172.652.418 1.262.742 1.828a5.499 5.499 0 0 0 1.258 1.449c.52.379 1.117.566 1.805.566m4.777 9.262c0-.402-.078-.77-.227-1.105a3.561 3.561 0 0 0-.613-.945 7.54 7.54 0 0 0-1.098-.973c-.453-.336-.98-.715-1.582-1.137a2.37 2.37 0 0 0-.355-.031h-.836c-.238.023-.516.043-.84.063-.324.043-.668.102-1.031.16-.367.082-.723.176-1.063.281-.176.063-.418.16-.742.285a4.206 4.206 0 0 0-.902.598c-.301.25-.57.566-.809.945-.215.379-.32.852-.32 1.418 0 1.133.504 2.059 1.516 2.77 1.031.715 2.418 1.07 4.16 1.07 1.551 0 2.723-.324 3.52-.977.816-.629 1.227-1.438 1.227-2.422" fill="#f9f9f9" fill-opacity="1" fill-rule="nonzero" stroke="none"/><path id="path1198" d="M34.016 16.535v5.262h5v2h-5v5h-2v-5h-5v-2h5v-5.262" fill="#f9f9f9" fill-opacity="1" fill-rule="nonzero" stroke="none"/></svg>