<svg xmlns="http://www.w3.org/2000/svg" xmlns:xlink="http://www.w3.org/1999/xlink" width="48" height="48" version="1.1" id="svg38"><defs id="defs22"><linearGradient id="linearGradient872"><stop offset="0" id="stop868" stop-color="#425aed" stop-opacity="1"/><stop offset="1" id="stop870" stop-color="#22c0c7" stop-opacity=".788"/></linearGradient><linearGradient id="linearGradient864"><stop offset="0" id="stop860" stop-color="#35c130" stop-opacity="1"/><stop offset="1" id="stop862" stop-color="#2c9f32" stop-opacity="1"/></linearGradient><linearGradient id="linearGradient854"><stop offset="0" id="stop850" stop-color="#f6503b" stop-opacity="1"/><stop offset="1" id="stop852" stop-color="#e62f25" stop-opacity="1"/></linearGradient><linearGradient id="linearGradient846"><stop offset="0" id="stop842" stop-color="#e6bc00" stop-opacity="1"/><stop offset="1" id="stop844" stop-color="#ffce00" stop-opacity="1"/></linearGradient><style id="style4511"/><style id="style4511-26"/><style id="style4511-9"/><style id="style4552"/><style id="style4511-2"/><style id="style4552-7"/><style id="style4552-6"/><style id="current-color-scheme" type="text/css"/><linearGradient id="linearGradient4185"><stop offset="0" id="stop4187" stop-color="#f2f6f7" stop-opacity="1"/><stop offset="1" id="stop4189" stop-color="#ecf0f1" stop-opacity="1"/></linearGradient><linearGradient y2="514.798" x2="408.571" y1="531.798" x1="408.571" gradientTransform="translate(-400.807 -520.703) scale(1.04032)" gradientUnits="userSpaceOnUse" id="linearGradient5005-0" xlink:href="#linearGradient4185"/><linearGradient xlink:href="#linearGradient4185" id="linearGradient4324" gradientUnits="userSpaceOnUse" gradientTransform="translate(-400.807 -520.703) scale(1.04032)" x1="408.571" y1="531.798" x2="408.571" y2="514.798"/><linearGradient xlink:href="#linearGradient846" id="linearGradient848" x1="35.667" y1="44.227" x2="36.485" y2="15.956" gradientUnits="userSpaceOnUse"/><linearGradient xlink:href="#linearGradient854" id="linearGradient856" x1="87.328" y1="6.741" x2="86.515" y2="28.91" gradientUnits="userSpaceOnUse"/><linearGradient xlink:href="#linearGradient864" id="linearGradient866" x1="12.065" y1="16.135" x2="12.11" y2="45.219" gradientUnits="userSpaceOnUse"/><linearGradient xlink:href="#linearGradient872" id="linearGradient874" x1="25.017" y1="30.712" x2="24.237" y2="16.428" gradientUnits="userSpaceOnUse"/><filter id="filter890" x="-.06" width="1.12" y="-.06" height="1.12" color-interpolation-filters="sRGB"><feGaussianBlur stdDeviation="1.045" id="feGaussianBlur892"/></filter></defs><style id="style4485" type="text/css"/><style type="text/css" id="style4485-4"/><style type="text/css" id="style4485-5"/><g id="g888" filter="url(#filter890)" fill="#000" fill-opacity=".314"><path d="M5.366 11.366c-1.358 2.649-2.047 5.77-2.047 9.131v7.123c0 9.574 5.584 17.283 17.146 17.283h6.93c.853 0 1.661-.04 2.437-.109l6.075-12.443-17.918-6.334z" id="path876" display="inline" opacity="1" fill-rule="evenodd" stroke="none" stroke-width="1.597" stroke-linecap="butt" stroke-linejoin="miter" stroke-opacity="1"/><path d="M26.674 9.788l4.5 20.063-7.71 15.052h3.93c15.133 0 17.837-11.323 17.837-17.283v-7.123c0-2.964-.707-7.18-3.065-10.709z" id="path878" display="inline" fill-rule="evenodd" stroke="none" stroke-width="1.597" stroke-linecap="butt" stroke-linejoin="miter" stroke-opacity="1"/><g transform="translate(-504.18 -654.715) scale(1.29568)" id="g882" display="inline"><path d="M84.686 6.094c-7.406 0-12.29 3.414-14.745 8.508l11.727 15.767 14.6 2.713-4.846-14.018 18.113.065c-1.219-5.944-5.308-13.035-16.355-13.035z" transform="translate(339.148 503.086) scale(.7718)" id="path880" fill="#000" fill-opacity=".314" fill-rule="evenodd" stroke="none" stroke-width="1.296" stroke-linecap="butt" stroke-linejoin="miter" stroke-opacity="1"/></g></g><path d="M5.366 11.366c-1.358 2.649-2.047 5.77-2.047 9.131v7.123c0 9.574 5.584 17.283 17.146 17.283h6.93c.853 0 1.661-.04 2.437-.109l6.075-12.443-17.918-6.334z" id="path1463" display="inline" stroke-opacity="1" stroke-linejoin="miter" stroke-linecap="butt" stroke-width="1.597" stroke="none" fill-rule="evenodd" fill-opacity="1" fill="url(#linearGradient866)" opacity="1"/><path d="M26.674 9.788l4.5 20.063-7.71 15.052h3.93c15.133 0 17.837-11.323 17.837-17.283v-7.123c0-2.964-.707-7.18-3.065-10.709z" id="path1465" display="inline" stroke-opacity="1" stroke-linejoin="miter" stroke-linecap="butt" stroke-width="1.597" stroke="none" fill-rule="evenodd" fill-opacity="1" fill="url(#linearGradient848)"/><g transform="translate(-504.18 -654.715) scale(1.29568)" id="g1469" display="inline"><path d="M84.686 6.094c-7.406 0-12.29 3.414-14.745 8.508l11.727 15.767 14.6 2.713-4.846-14.018 18.113.065c-1.219-5.944-5.308-13.035-16.355-13.035z" transform="translate(339.148 503.086) scale(.7718)" id="path1467" fill="url(#linearGradient856)" fill-opacity="1" fill-rule="evenodd" stroke="none" stroke-width="1.296" stroke-linecap="butt" stroke-linejoin="miter" stroke-opacity="1"/></g><path id="path1475" d="M24.237 14.85a9.342 9.342 0 0 1 9.363 9.363 9.342 9.342 0 0 1-9.363 9.363 9.342 9.342 0 0 1-9.363-9.363 9.342 9.342 0 0 1 9.363-9.363z" display="inline" opacity="1" fill="url(#linearGradient4324)" fill-opacity="1" stroke="none" stroke-width=".916"/><path id="path1477" d="M24.237 16.428a7.768 7.768 0 0 1 7.785 7.785 7.768 7.768 0 0 1-7.785 7.785 7.768 7.768 0 0 1-7.785-7.785 7.768 7.768 0 0 1 7.785-7.785z" display="inline" opacity="1" fill="url(#linearGradient874)" fill-opacity="1" stroke="none" stroke-width=".916"/></svg>