<svg xmlns="http://www.w3.org/2000/svg" xmlns:xlink="http://www.w3.org/1999/xlink" width="48" height="48" version="1.1" id="svg38"><defs id="defs22"><style id="style4511"/><style id="style4511-26"/><style id="style4511-9"/><style id="style4552"/><style id="style4511-2"/><linearGradient gradientTransform="rotate(-90 14.943 63.891)" gradientUnits="userSpaceOnUse" x2="47" x1="1" id="linearGradient3764-36"><stop id="stop1157" stop-opacity="1" stop-color="#e4e4e4"/><stop id="stop1159" stop-opacity="1" stop-color="#eee" offset="1"/></linearGradient><clipPath id="clipPath-475585691"/><linearGradient xlink:href="#linearGradient3764-36" id="linearGradient1298" x1="2.56" y1="23.808" x2="45.477" y2="23.808" gradientUnits="userSpaceOnUse"/></defs><style id="style4485" type="text/css"/><path d="M19.606 2.965h8.63c14.13 0 17.073 11.246 17.073 17.282v7.123c0 5.96-2.747 17.282-18.12 17.282h-7.041c-11.747 0-17.42-7.708-17.42-17.282v-7.123c0-9.575 5.558-17.282 16.878-17.282z" id="path4481" opacity="1" fill="url(#linearGradient1298)" fill-opacity="1" stroke="#000" stroke-width=".337" stroke-linecap="square" stroke-linejoin="bevel" stroke-miterlimit="4" stroke-dasharray="none" stroke-dashoffset="0" stroke-opacity=".078"/><path id="path1206" d="M31.298 28.329a816.546 853.907 0 0 1 5.996-3.479c.674-.4 1.386-1.395 0-2.197-.446-.259-2.875-1.668-6-3.474L27 23.772m4.3 4.554" fill="#f9ab7d" fill-opacity="1" fill-rule="nonzero" stroke="none" stroke-width="1.102"/><path id="path1208" d="M27 23.774L13.263 38.45c.312.04.687-.043 1.112-.295.892-.515 10.434-6.054 16.926-9.828M27 23.773" fill="#cf435a" fill-opacity="1" fill-rule="nonzero" stroke="none" stroke-width="1.102"/><path id="path1210" d="M27 23.774l4.294-4.593S15.33 9.944 14.37 9.392c-.366-.211-.766-.286-1.12-.202l13.744 14.584m.004 0" fill="#95deb2" fill-opacity="1" fill-rule="nonzero" stroke="none" stroke-width="1.102"/><path id="path1212" d="M27 23.774L13.255 9.19c-.568.136-1.032.656-1.032 1.7V36.7c0 .986.367 1.682 1.04 1.748l13.74-14.676m-.005.004" fill="#43a2ab" fill-opacity="1" fill-rule="nonzero" stroke="none" stroke-width="1.102"/></svg>