<svg xmlns="http://www.w3.org/2000/svg" xmlns:xlink="http://www.w3.org/1999/xlink" width="48" height="48" version="1.1" id="svg38"><defs id="defs22"><linearGradient id="linearGradient4488"><stop id="stop4490" offset="0" stop-color="#000" stop-opacity=".047"/><stop id="stop4492" offset="1" stop-color="#000" stop-opacity="0"/></linearGradient><style id="style4511"/><style id="style4511-26"/><style id="style4511-9"/><style id="style4552"/><style id="style4511-2"/><linearGradient gradientTransform="translate(-63.205 2.216) scale(.3038)" xlink:href="#linearGradient4488" id="linearGradient4160" x1="288.112" y1="141.785" x2="287.575" y2="79.008" gradientUnits="userSpaceOnUse"/></defs><style id="style4485" type="text/css"/><path d="M2.433 26.443v1.668c0 9.575 5.583 17.282 17.146 17.282h6.93c15.133 0 17.837-11.322 17.837-17.282v-1.668c0 5.96-2.704 17.282-17.837 17.282h-6.93c-11.563 0-17.146-7.708-17.146-17.282z" id="path4147" opacity="1" fill="url(#linearGradient4160)" fill-opacity="1" stroke="none" stroke-width="1.1" stroke-linecap="square" stroke-linejoin="bevel" stroke-miterlimit="4" stroke-dasharray="none" stroke-dashoffset="0" stroke-opacity=".078"/><path d="M19.046 2.965h8.495c13.908 0 16.805 11.246 16.805 17.282v7.123c0 5.96-2.704 17.282-17.837 17.282h-6.93c-11.562 0-17.146-7.708-17.146-17.282v-7.123c0-9.575 5.47-17.282 16.613-17.282z" id="rect4144" opacity="1" fill="#ff2a24" fill-opacity=".961" stroke="#000" stroke-width=".334" stroke-linecap="square" stroke-linejoin="bevel" stroke-miterlimit="4" stroke-dasharray="none" stroke-dashoffset="0" stroke-opacity=".078"/><path d="M36.672 14.629l-12 .031c-6.727.018-12.12.052-12.277.076-.878.138-1.641.884-1.781 1.74-.025.151-.056 4.24-.072 9.272l-.032 9.002h1.11l.035-8.687c.019-4.779.053-8.887.076-9.13.077-.806.237-.952 1.137-1.038.283-.028 5.321-.058 12.144-.075l11.66-.029v-1.162zm-1.894 4.662c-.411-.016-.53-.002-.883.107-.68.212-.804.31-4.521 3.51-3.685 3.172-4.656 3.976-4.979 4.123a1.741 1.741 0 0 1-.603.12c-.366.018-.4.01-.606-.128-.265-.178-.734-.622-4.389-4.158L15.93 20.09l-.412.406-.41.406.434.41c.238.226 1.637 1.578 3.109 3.002 4.267 4.132 4.054 3.964 5.031 3.965.655.001.92-.055 1.34-.275.362-.19.714-.48 4.133-3.404 2.586-2.212 4.132-3.511 4.555-3.83.254-.193.735-.377.972-.373.2.003.464.114.68.285l.197.156v3.875c0 4.106-.046 5.887-.164 6.555-.154.87-.658 1.549-1.435 1.93-.799.39.043.357-9.6.38l-8.615.02v1.16l8.71-.02 8.712-.02.435-.134c.9-.277 1.449-.616 2.03-1.252.338-.37.686-.981.818-1.437.136-.47.166-1.314.226-6.256l.059-4.832-.18-.358a2.092 2.092 0 0 0-.969-.974c-.295-.146-.387-.167-.808-.184z" id="path13516" fill="#fff" fill-opacity="1" stroke="none" stroke-width=".5" stroke-miterlimit="4" stroke-dasharray="none" stroke-opacity="1"/></svg>