<svg xmlns:osb="http://www.openswatchbook.org/uri/2009/osb" xmlns="http://www.w3.org/2000/svg" xmlns:xlink="http://www.w3.org/1999/xlink" width="48" height="48" version="1.1" id="svg38"><defs id="defs22"><radialGradient id="radialGradient218" spreadMethod="pad" gradientTransform="matrix(230 0 0 -230 256 256)" gradientUnits="userSpaceOnUse" r="1" cy="0" cx="0" fy="0" fx="0"><stop id="stop1971" offset="0" stop-opacity="1" stop-color="#9c9c9d"/><stop id="stop1973" offset=".005" stop-opacity="1" stop-color="#9c9c9d"/><stop id="stop1975" offset="1" stop-opacity="1" stop-color="#000"/></radialGradient><linearGradient id="linearGradient4488"><stop id="stop4490" offset="0" stop-color="#000" stop-opacity=".047"/><stop id="stop4492" offset="1" stop-color="#000" stop-opacity="0"/></linearGradient><style id="style4511"/><style id="style4511-26"/><style id="style4511-9"/><style id="style4552"/><style id="style4511-2"/><linearGradient xlink:href="#linearGradient4488" id="linearGradient4540" gradientUnits="userSpaceOnUse" gradientTransform="matrix(.3038 0 0 .31387 -62.745 1.375)" x1="288.112" y1="141.785" x2="287.575" y2="79.008"/><linearGradient osb:paint="solid" id="linearGradient5293"><stop id="stop5295" offset="0" stop-color="#9a89c0" stop-opacity="1"/></linearGradient><clipPath clipPathUnits="userSpaceOnUse" id="clipPath232"><path d="M0 512h512V0H0v512z" id="path234"/></clipPath><radialGradient xlink:href="#radialGradient218" id="radialGradient1986" cx="24.232" cy="24.097" fx="24.232" fy="24.097" r="21.751" gradientTransform="matrix(1 0 0 1.0057 0 -.137)" gradientUnits="userSpaceOnUse"/></defs><style id="style4485" type="text/css"/><path id="path4516" d="M2.894 26.405v1.724c0 9.892 5.583 17.855 17.145 17.855h6.93c15.133 0 17.837-11.698 17.837-17.855v-1.724c0 6.157-2.704 17.856-17.836 17.856h-6.93c-11.563 0-17.146-7.964-17.146-17.856z" opacity="1" fill="url(#linearGradient4540)" fill-opacity="1" stroke="none" stroke-width="1.118" stroke-linecap="square" stroke-linejoin="bevel" stroke-miterlimit="4" stroke-dasharray="none" stroke-dashoffset="0" stroke-opacity=".078"/><path id="path4518" d="M2.654 28.595v-8.797c0-14.403 11.643-17.402 17.89-17.402h7.375c6.17 0 17.89 2.8 17.89 18.47v7.177c0 11.974-7.979 17.756-17.89 17.756h-7.374c-9.912 0-17.89-5.665-17.89-17.204z" opacity="1" fill="url(#radialGradient1986)" fill-opacity="1" stroke="#000" stroke-width=".346" stroke-linecap="square" stroke-linejoin="bevel" stroke-miterlimit="4" stroke-dasharray="none" stroke-dashoffset="0" stroke-opacity=".078"/><path id="path1875" d="M24.136 19.57c2.485 0 4.499 1.988 4.499 4.44 0 2.452-2.014 4.44-4.499 4.44s-4.499-1.988-4.499-4.44c0-2.452 2.014-4.44 4.5-4.44" fill="#000" fill-opacity="1" fill-rule="nonzero" stroke="none" stroke-width=".103"/><path id="path1879" d="M24.094 20.287c2.02 0 3.659 1.616 3.659 3.61 0 1.993-1.638 3.61-3.659 3.61-2.02 0-3.658-1.617-3.658-3.61 0-1.994 1.638-3.61 3.658-3.61" fill="#7b7b7c" fill-opacity="1" fill-rule="nonzero" stroke="none" stroke-width=".103"/><path id="path1883" d="M24.094 22.67c.687 0 1.243.55 1.243 1.227s-.556 1.226-1.243 1.226a1.235 1.235 0 0 1-1.243-1.226c0-.678.557-1.227 1.243-1.227" fill="#000" fill-opacity="1" fill-rule="nonzero" stroke="none" stroke-width=".103"/><path id="path1887" d="M23.73 24.657a.85.838 0 0 1-.328-.27c-.048-.066-4.858-6.54-12.414-5.936a.852.841 0 0 1-.138-1.676c8.536-.683 13.721 6.334 13.938 6.633a.853.841 0 1 1-1.058 1.25" fill="#c9c9c9" fill-opacity="1" fill-rule="nonzero" stroke="none" stroke-width=".103"/><path id="path1891" d="M11.732 16.013l1.418-1.227-.819 1.677 1.802-.552-1.44 1.203 1.873.218-1.81.522 1.62.951-1.869-.25 1.089 1.52-1.604-.98.368 1.826-1.062-1.539-.416 1.816-.336-1.832-1.129 1.492.448-1.809-1.646.91 1.155-1.472-1.879.17 1.662-.88-1.786-.6 1.881-.137-1.385-1.264 1.776.63-.745-1.712 1.363 1.288.024-1.862.715 1.723.79-1.69z" fill="#f04d22" fill-opacity="1" fill-rule="nonzero" stroke="none" stroke-width=".103"/></svg>