<svg xmlns="http://www.w3.org/2000/svg" xmlns:xlink="http://www.w3.org/1999/xlink" width="48" height="48" version="1.1" id="svg38"><defs id="defs22"><linearGradient id="linearGradient4488"><stop id="stop4490" offset="0" stop-color="#000" stop-opacity=".047"/><stop id="stop4492" offset="1" stop-color="#000" stop-opacity="0"/></linearGradient><style id="style4511"/><style id="style4511-26"/><style id="style4511-9"/><style id="style4552"/><style id="style4511-2"/><linearGradient xlink:href="#linearGradient4488" id="linearGradient4540" gradientUnits="userSpaceOnUse" gradientTransform="translate(-62.889 1.994) scale(.3038)" x1="288.112" y1="141.785" x2="287.575" y2="79.008"/><style id="style4552-1"/><style id="style4552-3"/><style id="style4511-20"/><style id="style4552-2"/><style id="style4511-2-6"/><style id="style4511-7"/><style id="style4511-26-7"/><style id="style4511-9-1"/><style id="style4552-38"/><style id="style4511-2-8"/><style id="style4552-7"/><style id="style4552-6"/><style type="text/css" id="current-color-scheme"/><linearGradient id="b-3675" gradientUnits="userSpaceOnUse" x1="13.085" x2="28.809" xlink:href="#a-35" y1="1024.741" y2="1024.741" gradientTransform="translate(-8.265 -1540.48) scale(1.5263)"/><linearGradient id="a-35"><stop offset="0" stop-color="#f6fbff" id="stop2-629"/><stop offset="1" stop-color="#eaeff2" id="stop4-1"/></linearGradient></defs><style id="style4485" type="text/css"/><path id="path4516" d="M2.75 26.22v1.67c0 9.573 5.583 17.281 17.146 17.281h6.93c15.132 0 17.836-11.322 17.836-17.282v-1.668c0 5.96-2.704 17.282-17.836 17.282h-6.93C8.333 43.503 2.75 35.795 2.75 26.22z" opacity="1" fill="url(#linearGradient4540)" fill-opacity="1" stroke="none" stroke-width="1.1" stroke-linecap="square" stroke-linejoin="bevel" stroke-miterlimit="4" stroke-dasharray="none" stroke-dashoffset="0" stroke-opacity=".078"/><path d="M19.35 2.676h8.521c13.952 0 16.858 11.283 16.858 17.337v7.146c0 5.979-2.713 17.337-17.893 17.337h-6.953c-11.599 0-17.2-7.732-17.2-17.337v-7.146c0-9.605 5.488-17.337 16.667-17.337z" id="path4472" stroke-miterlimit="4" opacity="1" fill="#f24949" fill-opacity="1" stroke="#000" stroke-width=".336" stroke-linecap="square" stroke-linejoin="bevel" stroke-dasharray="none" stroke-dashoffset="0" stroke-opacity=".078"/><style type="text/css" id="style4485-31"/><style id="style4485-35" type="text/css"/><style id="style4485-3" type="text/css"/><style type="text/css" id="style4485-0"/><style id="style4485-4" type="text/css"/><style id="style4485-5" type="text/css"/><path id="path24" d="M35.318 26.315c-.48-.472-1.544-.722-3.163-.744-1.096-.018-2.415.084-3.802.279-.622-.359-1.262-.749-1.765-1.218-1.352-1.263-2.48-3.016-3.184-4.943.046-.18.085-.338.121-.5 0 0 .762-4.325.56-5.788a1.693 1.693 0 0 0-.098-.415l-.066-.169c-.208-.478-.614-.984-1.25-.956l-.374-.018h-.01c-.71 0-1.29.362-1.441.905-.462 1.703.015 4.25.878 7.549l-.22.537c-.62 1.507-1.394 3.025-2.078 4.365l-.089.174a73.289 73.289 0 0 1-1.963 3.615l-.61.323a47.99 47.99 0 0 0-1.338.725c-2.083 1.244-3.463 2.656-3.692 3.776-.073.358-.019.815.352 1.027l.59.297c.257.128.527.194.804.194 1.484 0 3.206-1.848 5.579-5.99 2.74-.891 5.858-1.632 8.592-2.041 2.083 1.173 4.645 1.987 6.262 1.987.287 0 .534-.027.736-.08.31-.083.571-.26.73-.5.314-.472.378-1.122.293-1.788-.026-.197-.184-.442-.354-.609zm-22.16 7.895c.271-.74 1.342-2.202 2.926-3.5.1-.08.344-.31.569-.524-1.656 2.641-2.765 3.694-3.494 4.024zm9.38-21.597c.476 0 .747 1.202.77 2.33.022 1.126-.241 1.917-.568 2.502-.271-.866-.402-2.232-.402-3.125 0 0-.02-1.707.2-1.707zm-2.799 15.39c.333-.594.678-1.222 1.031-1.887a35.943 35.943 0 0 0 1.81-3.949c.806 1.465 1.809 2.711 2.988 3.71.147.123.303.249.466.374-2.398.474-4.47 1.051-6.295 1.752zm15.118-.134c-.146.09-.564.145-.833.145-.869 0-1.943-.397-3.45-1.043.58-.042 1.11-.064 1.586-.064.87 0 1.129 0 1.98.213.852.218.863.659.717.75z" fill="url(#b-3675)" stroke-width="1.526"/></svg>