<svg xmlns="http://www.w3.org/2000/svg" xmlns:xlink="http://www.w3.org/1999/xlink" width="48" height="48" version="1.1" id="svg38"><defs id="defs22"><linearGradient id="linearGradient3764" x1="1" x2="47" gradientUnits="userSpaceOnUse" gradientTransform="rotate(-90 -3.106 48)"><stop stop-color="#9dca3c" stop-opacity="1" id="stop1273"/><stop offset="1" stop-color="#a5ce4c" stop-opacity="1" id="stop1275"/></linearGradient><style id="style4511"/><style id="style4511-26"/><style id="style4511-9"/><style id="style4552"/><style id="style4511-2"/><clipPath id="clipPath-942386966"/><linearGradient xlink:href="#linearGradient3764" id="linearGradient1284" x1="2.266" y1="23.808" x2="44.513" y2="23.808" gradientUnits="userSpaceOnUse"/></defs><style id="style4485" type="text/css"/><path d="M19.046 2.965h8.495c13.908 0 16.805 11.246 16.805 17.282v7.123c0 5.96-2.704 17.282-17.837 17.282h-6.93c-11.562 0-17.146-7.708-17.146-17.282v-7.123c0-9.575 5.47-17.282 16.613-17.282z" id="rect4144" opacity="1" fill="url(#linearGradient1284)" fill-opacity="1" stroke="#000" stroke-width=".334" stroke-linecap="square" stroke-linejoin="bevel" stroke-miterlimit="4" stroke-dasharray="none" stroke-dashoffset="0" stroke-opacity=".078"/><path id="path1193" d="M20.766 29.349c-.579-.242-.73-1.068-.031-1.783.714-.715 2.28-1.314 3.997-2.06 1.718-.744 3.567-1.652 4.798-1.61 1.23.044 2.283 1.16 2.393 2.606.101 1.449-.235 3.362-.632 4.73-.402 1.368-.45 2.036-.992 2.279-.546.242-1.547.358-1.507-.938.035-1.283.582-3.881.757-5 .172-1.116-.578-1.198-1.18-1.033-.604.165-1.436.488-2.322.896-.885.407-1.834.91-2.787 1.337-.96.426-1.936.792-2.502.564" fill="#d64936" fill-opacity="1" fill-rule="nonzero" stroke="#2d2d2d" stroke-width=".825" stroke-linecap="butt" stroke-linejoin="miter" stroke-miterlimit="4" stroke-opacity="1"/><path id="path1195" d="M23.22 15.927c-1.896 1.503-3.575 3.4-4.812 5.218-1.238 1.814-2.034 3.543-2.507 5.1-.472 1.555-.628 2.938-.336 4.299.293 1.36 1.024 2.694 2.303 3.174 1.27.48 3.074.108 4.588-.458 1.51-.548 2.729-1.294 3.56-2.49.827-1.195 1.269-2.843 1.815-3.503.551-.662 1.223-.331 1.311.675.1 1-.374 2.686-1.096 3.954-.718 1.269-1.686 2.115-3.01 2.828a14.205 13.981 0 0 1-4.605 1.538c-1.649.245-3.317.153-4.6-.496-1.293-.626-2.221-1.814-2.67-3.604-.457-1.81-.418-4.219.137-6.528.562-2.318 1.65-4.512 3.478-6.752 1.815-2.24 4.372-4.519 6.562-5.863 2.194-1.356 4.033-1.753 5.497-1.818 1.46-.042 2.525.25 3.36.707.84.465 1.438 1.091 1.558 1.648.126.543-.233 1.026-1.05.789-.804-.246-2.069-1.192-3.782-1.11-1.686.075-3.827 1.19-5.72 2.681" fill="#d64936" fill-opacity="1" fill-rule="evenodd" stroke="#2d2d2d" stroke-width=".825" stroke-linecap="butt" stroke-linejoin="miter" stroke-miterlimit="4" stroke-opacity="1"/><path id="path1197" d="M23.253 15.927c-1.904 1.503-3.885 3.4-5.134 5.218-1.237 1.814-1.99 3.398-2.459 4.954-.463 1.567-.505 3.235-.212 4.594.295 1.361.971 2.802 2.237 3.275 1.271.48 3.402.054 4.905-.507 1.516-.547 2.64-1.495 3.47-2.69.83-1.196.806-2.737 1.355-3.397.556-.661 1.688-.426 1.781.58.098.996-.376 2.686-1.1 3.954-.724 1.269-1.692 2.114-3.02 2.828a14.447 14.22 0 0 1-4.623 1.53c-1.649.249-3.004.249-4.304-.377-1.3-.638-2.58-2.27-3.03-4.058-.458-1.81-.518-3.676.039-5.986.556-2.317 1.813-4.715 3.63-6.948 1.825-2.24 4.385-4.518 6.585-5.87 2.202-1.349 4.045-1.745 5.51-1.81 1.468-.055 2.533.242 3.375.706.842.467 1.633 1.127 1.743 1.68.121.545-.521 1.367-1.344 1.13-.814-.235-1.941-1.418-3.657-1.338-1.696.081-3.876 1.034-5.779 2.532" fill="#d64936" fill-opacity="1" fill-rule="nonzero" stroke="#2d2d2d" stroke-width=".826" stroke-linecap="butt" stroke-linejoin="miter" stroke-miterlimit="4" stroke-opacity="1"/></svg>