<svg xmlns="http://www.w3.org/2000/svg" xmlns:xlink="http://www.w3.org/1999/xlink" width="48" height="48" version="1.1" id="svg38"><defs id="defs22"><linearGradient id="linearGradient4488"><stop id="stop4490" offset="0" stop-color="#000" stop-opacity=".047"/><stop id="stop4492" offset="1" stop-color="#000" stop-opacity="0"/></linearGradient><style id="style4511"/><style id="style4511-26"/><style id="style4511-9"/><style id="style4552"/><style id="style4511-2"/><linearGradient xlink:href="#linearGradient4488" id="linearGradient4544" gradientUnits="userSpaceOnUse" gradientTransform="matrix(.30674 0 0 .3038 -63.521 2.197)" x1="288.112" y1="141.785" x2="287.575" y2="79.008"/><linearGradient xlink:href="#linearGradient4246" id="linearGradient4505" x1="14.788" y1="42.705" x2="22.866" y2="2.84" gradientUnits="userSpaceOnUse" gradientTransform="matrix(-1.00967 0 0 -1 47.848 47.375)"/><style id="style4511-8"/><style id="style4511-26-4"/><style id="style4511-9-8"/><style id="style4552-5"/><style id="style4511-2-5"/><linearGradient id="linearGradient4246" gradientUnits="userSpaceOnUse" x1="64" y1="3" x2="64" y2="113"><stop offset="0" id="stop4248" stop-color="#1f6998" stop-opacity="1"/><stop offset="1" id="stop4258" stop-color="#0a466c" stop-opacity="1"/></linearGradient><style id="style4511-87"/><style id="style4511-26-7"/><style id="style4511-9-1"/><style id="style4552-53"/><style id="style4511-2-9"/></defs><style id="style4485" type="text/css"/><style type="text/css" id="style4485-4"/><style type="text/css" id="style4485-6"/><path id="path4524" d="M2.752 26.424v1.668c0 9.575 5.637 17.283 17.311 17.283h6.998c15.279 0 18.009-11.323 18.009-17.283v-1.668c0 5.96-2.73 17.282-18.01 17.282h-6.997c-11.674 0-17.311-7.708-17.311-17.282z" opacity="1" fill="url(#linearGradient4544)" fill-opacity="1" stroke="none" stroke-width="1.105" stroke-linecap="square" stroke-linejoin="bevel" stroke-miterlimit="4" stroke-dasharray="none" stroke-dashoffset="0" stroke-opacity=".078"/><path id="path4526" d="M28.296 44.633h-8.577c-14.042 0-16.967-11.247-16.967-17.282v-7.123c0-5.96 2.73-17.282 18.009-17.282h6.997c11.674 0 17.312 7.708 17.312 17.282v7.123c0 9.574-5.523 17.282-16.774 17.282z" opacity="1" fill="url(#linearGradient4505)" fill-opacity="1" stroke="#000" stroke-width=".336" stroke-linecap="square" stroke-linejoin="bevel" stroke-miterlimit="4" stroke-dasharray="none" stroke-dashoffset="0" stroke-opacity=".078"/><g id="g622" transform="matrix(.91052 0 0 .92448 2.123 2.14)" fill-opacity="1"><path d="M16.666 36.021c-.191-.194-.328-.55-.326-.849 0-.154.168-.68.479-1.505.263-.697.481-1.33.486-1.406.005-.102-.122-.25-.472-.552a11.07 11.07 0 0 1-.853-.827c-.205-.229-.429-.439-.498-.467-.078-.03-.65.126-1.493.41-.752.253-1.473.467-1.604.476-.268.018-.77-.163-.986-.356-.171-.153-1.424-3.025-1.451-3.327-.027-.3.192-.751.47-.967.126-.098.81-.428 1.52-.732.764-.327 1.311-.6 1.342-.667.028-.063.035-.36.014-.659a10.2 10.2 0 0 1 .005-1.153c.023-.335.007-.649-.035-.697-.042-.048-.65-.354-1.352-.68-.816-.38-1.353-.66-1.491-.781-.263-.23-.46-.733-.394-1.012.026-.112.365-.892.753-1.731l.705-1.527.285-.146c.504-.259.676-.236 2.289.304.912.305 1.478.467 1.542.442.055-.021.318-.257.584-.524.265-.267.653-.622.861-.79.208-.167.4-.351.425-.408.025-.057-.153-.64-.396-1.295a32.862 32.862 0 0 1-.504-1.422 1.141 1.141 0 0 1 .215-1.016c.176-.223.354-.31 1.767-.861.864-.338 1.695-.623 1.846-.634.35-.025.81.157 1.033.41.094.106.434.739.754 1.406.32.666.61 1.245.643 1.286.035.043.36.063.772.046.392-.015.966-.01 1.275.013.419.03.595.012.691-.07.071-.06.412-.653.758-1.317.664-1.277.804-1.464 1.215-1.632.457-.186.65-.138 2.414.592l1.606.665.181.26c.312.446.29.636-.26 2.133-.266.725-.495 1.378-.508 1.452-.02.104.083.226.45.543.263.225.666.62.898.878.231.258.444.478.473.49.029.01.675-.19 1.437-.446s1.509-.475 1.66-.487c.358-.027.794.15 1.048.425.121.13.439.784.81 1.665.638 1.514.67 1.671.456 2.154-.153.342-.413.502-1.817 1.112-.763.331-1.398.626-1.41.654-.013.028-.007.374.012.769.02.395.012.934-.017 1.198-.035.328-.02.51.048.577.055.054.7.382 1.435.73 1.457.69 1.672.844 1.773 1.28.096.41.018.658-.694 2.194l-.68 1.469-.294.173c-.524.309-.617.298-2.323-.266-.834-.275-1.537-.493-1.561-.483-.025.01-.236.214-.468.455-.233.242-.647.62-.921.84-.274.22-.505.438-.513.484-.009.046.197.653.458 1.347.26.695.484 1.403.496 1.574.026.362-.1.684-.366.93-.234.216-3.057 1.324-3.448 1.352-.327.024-.822-.158-1.05-.386-.088-.088-.436-.731-.774-1.43-.337-.7-.657-1.29-.71-1.311-.054-.022-.418-.028-.808-.015-.39.013-.957.005-1.258-.019-.417-.032-.568-.017-.631.065-.046.06-.382.669-.747 1.354-.803 1.506-.94 1.649-1.633 1.693-.2.013-.48-.083-1.863-.64-1.224-.494-1.664-.694-1.775-.807zm5.48-5.919c1.534.444 3.01.382 4.498-.189a6.617 6.617 0 0 0 2.815-2.02c.493-.591 1.154-2.07 1.262-2.826.33-2.294-.547-4.432-2.422-5.908-.436-.343-.566-.412-1.538-.806-.93-.379-1.132-.44-1.637-.505-2.523-.324-5.023.703-6.451 2.648-1.284 1.749-1.54 3.956-.69 5.958.444 1.047 1.206 1.992 2.176 2.694.277.2.691.436 1.297.736.048.024.359.123.69.218zm-.426-3.017c-1.371-1.02-1.897-2.704-1.323-4.239.402-1.073 1.154-1.816 2.27-2.241 2.032-.775 4.32.13 5.135 2.028.67 1.564.25 3.237-1.084 4.317-1.137.92-2.577 1.155-3.988.649-.48-.173-.705-.287-1.01-.514zm2.382-.755c.496.02 1.367-.224 1.767-.552.283-.231.344-.321.574-.834.245-.547.096-.598.053-1.023-.087-.857-.521-1.448-1.34-1.824-.657-.301-1.12-.328-1.792-.103-.853.285-1.429.927-1.558 1.736-.112.7.058 1.275.536 1.812.446.5 1.021.758 1.76.788z" id="path2986-2" fill="#a5a5a5" stroke-width=".719"/><path d="M16.666 35.424c-.191-.194-.328-.55-.326-.849 0-.154.168-.68.479-1.504.263-.698.481-1.33.486-1.407.005-.102-.122-.25-.472-.552a11.07 11.07 0 0 1-.853-.827c-.205-.229-.429-.439-.498-.466-.078-.032-.65.125-1.493.409-.752.253-1.473.467-1.604.476-.268.019-.77-.163-.986-.356-.171-.153-1.424-3.024-1.451-3.327-.027-.3.192-.751.47-.967.126-.098.81-.427 1.52-.731.764-.328 1.311-.6 1.342-.668.028-.063.035-.36.014-.659a10.2 10.2 0 0 1 .005-1.153c.023-.335.007-.649-.035-.697-.042-.048-.65-.354-1.352-.68-.816-.379-1.353-.66-1.491-.78-.263-.23-.46-.734-.394-1.012.026-.113.365-.893.753-1.732l.705-1.527.285-.146c.504-.258.676-.236 2.289.304.912.305 1.478.467 1.542.442.055-.021.318-.257.584-.524.265-.267.653-.622.861-.79.208-.167.4-.35.425-.408.025-.057-.153-.64-.396-1.295a32.859 32.859 0 0 1-.504-1.422 1.141 1.141 0 0 1 .215-1.016c.176-.222.354-.31 1.767-.861.864-.338 1.695-.623 1.846-.634.35-.024.81.157 1.033.41.094.106.434.739.754 1.406.32.667.61 1.246.643 1.286.035.043.36.063.772.047.392-.016.966-.01 1.275.012.419.03.595.013.691-.07.071-.06.412-.653.758-1.317.664-1.276.804-1.464 1.215-1.632.457-.186.65-.138 2.414.592l1.606.665.181.26c.312.446.29.636-.26 2.133-.266.725-.495 1.378-.508 1.452-.02.104.083.226.45.543.263.225.666.62.898.878.231.258.444.478.473.49.029.01.675-.189 1.437-.445.762-.257 1.509-.476 1.66-.488.358-.027.794.15 1.048.425.121.13.439.784.81 1.666.638 1.513.67 1.67.456 2.153-.153.342-.413.502-1.817 1.112-.763.332-1.398.626-1.41.654-.013.028-.007.374.012.769.02.395.012.934-.017 1.198-.035.328-.02.51.048.578.055.053.7.381 1.435.729 1.457.69 1.672.844 1.773 1.28.096.41.018.658-.694 2.194l-.68 1.469-.294.173c-.524.31-.617.299-2.323-.266-.834-.275-1.537-.493-1.561-.483-.025.01-.236.214-.468.456a12.01 12.01 0 0 1-.921.839c-.274.22-.505.438-.513.484-.009.046.197.653.458 1.348.26.694.484 1.402.496 1.573.026.362-.1.684-.366.93-.234.217-3.057 1.324-3.448 1.352-.327.024-.822-.158-1.05-.386-.088-.088-.436-.731-.774-1.43-.337-.7-.657-1.29-.71-1.311-.054-.022-.418-.028-.808-.015-.39.013-.957.005-1.258-.019-.417-.032-.568-.017-.631.065-.046.06-.382.669-.747 1.354-.803 1.506-.94 1.649-1.633 1.693-.2.013-.48-.083-1.863-.64-1.224-.494-1.664-.694-1.775-.807zm5.48-5.918c1.534.444 3.01.381 4.498-.19a6.617 6.617 0 0 0 2.815-2.02c.493-.591 1.154-2.07 1.262-2.826.33-2.294-.547-4.432-2.422-5.907-.436-.344-.566-.412-1.538-.807-.93-.378-1.132-.44-1.637-.505-2.523-.324-5.023.703-6.451 2.649-1.284 1.748-1.54 3.955-.69 5.957.444 1.048 1.206 1.992 2.176 2.694.277.2.691.436 1.297.737.048.023.359.122.69.218zm-.426-3.018c-1.371-1.02-1.897-2.703-1.323-4.239.402-1.073 1.154-1.816 2.27-2.241 2.032-.774 4.32.13 5.135 2.028.67 1.564.25 3.237-1.084 4.317-1.137.92-2.577 1.155-3.988.649-.48-.172-.705-.287-1.01-.514zm2.382-.755c.496.02 1.367-.224 1.767-.552.283-.23.344-.32.574-.834.245-.546.096-.598.053-1.023-.087-.857-.521-1.448-1.34-1.823-.657-.302-1.12-.329-1.792-.104-.853.286-1.429.927-1.558 1.736-.112.7.058 1.275.536 1.812.446.5 1.021.758 1.76.788z" id="path2986" fill="#f1f1f1" stroke-width=".719"/><path id="SVGCleanerId_0-3" d="M24.094 8.42a6.542 6.542 0 0 0-2.738.629c-2.582 1.193-2.253 3.78-1.823 8.946.11 1.39-1.392 2.32-2.686 4.144-1.294 1.816-1.443 3.301-2.417 4.803-.949 1.439-.814 1.353-.47 2.577a8.836 8.836 0 0 0-.144.128c-.347.313-.765 1.105-1.371 1.491h-.002c-.6.386-2.137.355-2.527.807-.38.454.017 1.11.006 2.33 0 .523-.099.914-.165 1.231-.099.402-.16.684.033.97.346.506.891.638 4.045 1.221 1.684.312 3.28 1.115 4.344 1.198 1.068.068 1.3-.25 1.95-.76a3.71 3.71 0 0 1 .225-.17.439.439 0 0 0 .181-.028c1.415-.569.93-.391 3.188-.511 2.22-.112 2.868-.203 4.922.27.123.368.312.629.49.767.303.244.76.432 1.757.432 1.002 0 1.622-.198 2.283-.787.425-.376.876-.73 2.175-1.523 1.036-.625 2.593-1.314 2.901-1.59.154-.135.43-.265.452-.765.017-.433-.375-.575-.65-.726-.385-.197-1.382-.913-1.883-1.616-.303-.427.127-1.132-.292-1.668v.007a.534.534 0 0 0-.346-.202c.203-.425.36-.812.447-1.13l-.003.002c.507-1.84-1.09-5.026-2.625-6.955-1.53-1.929-2.785-3.129-3.402-5.568-.628-2.446.155-1.74-.396-3.874-.27-1.063-.749-1.903-1.277-2.46-.529-.57-1.245-.898-1.597-1.065a6.044 6.044 0 0 0-2.584-.555z" opacity=".3" fill="#000" fill-rule="nonzero" stroke="none" stroke-width=".942"/><path d="M35.544 28.467c-.446 1.632-2.7 5.036-3.904 6.536-1.198 1.506-1.054 2.86-3.269 2.332-2.209-.523-2.827-.428-5.118-.313-2.264.12-1.778-.058-3.197.512-1.413.565-6.166-6.907-6.554-8.303-.376-1.39-.558-1.223.431-2.724.977-1.506 1.127-2.995 2.424-4.816 1.298-1.83 2.805-2.761 2.694-4.156-.43-5.181-.761-7.776 1.828-8.972 2.462-1.14 4.527-.46 5.338-.074.354.167 1.072.497 1.602 1.067.53.56 1.01 1.401 1.28 2.468.553 2.14-.232 1.432.397 3.885.62 2.447 1.877 3.65 3.412 5.584 1.54 1.934 3.142 5.13 2.633 6.975m0 0" id="SVGCleanerId_0" fill="#000" fill-rule="nonzero" stroke="none" stroke-width=".942"/><path d="M20.923 15.776c.402-.14.336-.162.607-.685.215-.403.403-.576.398-1.187 0-.596-.21-.8-.525-1.193-.304-.37-.784-.392-1.092-.345-.177.026-.403.224-.559.518a1.72 1.72 0 0 0-.193.71c-.017.711.044.977.232 1.46.214.564.739.857 1.132.72m0 0" id="path88" fill="#f9f9f9" fill-rule="nonzero" stroke="none" stroke-width=".942"/><path d="M20.548 13.328c.2 0 .452.115.58.277.132.162.22.392.22.653 0 .382-.044.806-.304.936-.083.03-.26.079-.359.079-.226 0-.249-.137-.463-.335-.078-.068-.299-.419-.299-.705 0-.178-.043-.434.133-.664a.561.561 0 0 1 .492-.246m0 .004" id="SVGCleanerId_1" fill="#000" fill-rule="nonzero" stroke="none" stroke-width=".942"/><path d="M25.102 15.824c1.016-.093 1.37-.444 1.552-1.05.16-.538.165-1.135-.281-1.84-.426-.67-.669-.775-1.28-.821-.945-.069-1.392.518-1.602.935-.22.455-.177.392-.16.968.017.606.397.774.629 1.155.237.366 1.028.664 1.138.659m.006-.005" id="path91" fill="#f9f9f9" fill-rule="nonzero" stroke="none" stroke-width=".942"/><path d="M25.02 13.301c.507 0 .8.403.9.916a.871.871 0 0 1-.176.69c-.183.22-.508.346-.768.346-.254 0-.53.036-.684-.14-.148-.19-.176-.596-.176-.895 0-.33.11-.565.292-.748.144-.137.397-.167.614-.167m0 0" id="SVGCleanerId_2" fill="#000" fill-rule="nonzero" stroke="none" stroke-width=".942"/><path d="M22.005 18.611c-.877.031-2.264-2.153-2.302-1.245-.023.769.023.754.023 1.496 0 .496-.255.538-.806 1.286-.287.392-.508.82-.679 1.255-.11.256-.209.524-.292.79-.033.131-.093.272-.133.403-.27.905-1.26 2.024-1.485 2.929-.232.9-.502 1.475-.464 2.677.032 1.207.044.858.452 1.16.409.299.823.581 1.463 1.083.679.533 2.076 1.433 2.264 1.72.2.288.2.93.078 1.14-.121.204-1.176.32-1.176.32s.922 1.144 1.11 1.302c.176.156.933.915 4.002.403 1.735-.299 3.07-1.155 4.041-1.981 1.254-1.093.62-1.402.78-1.945.237-.79 1.004-1.083 1.175-1.972.023-.126.066-.22.2-.419.193-.252.148-.784.148-1.255 0-1.256-.16-2.516-.487-3.451-.298-.878-.767-1.49-1.17-2.28-.805-1.574-.767-2.285-1.49-3.289-.818-1.16-.415-1.934-1.508-1.887-1.358.068-2.456 1.725-3.742 1.772m0 0" id="path100" fill="#f9f9f9" fill-rule="nonzero" stroke="none" stroke-width=".942"/><path id="path102" d="M22.47 14.489c-.349.036-.564.004-.9.156-.36.162-.891.544-1.178.769-.551.43-.944.606-.921 1.135.016.501.475.894.977 1.26.496.366.921.821 1.225.915.315.106.863.084 1.254.084.872 0 2.003-.977 2.638-1.15.79-.225 1.067-.6 1.127-1.448.056-.707-1.11-.833-1.987-1.088-.265-.073-.47-.176-.756-.365-.31-.204-.988-.309-1.48-.257zm-7.944 14.166c-.552-.01-.86.253-1.209.566-.347.313-.767 1.108-1.375 1.495h-.002c-.602.387-2.142.356-2.534.81-.381.455.017 1.113.006 2.337 0 .523-.099.915-.165 1.234-.099.403-.16.685.033.973.347.507.894.64 4.057 1.224 1.689.313 3.29 1.118 4.356 1.201 1.071.069 1.303-.251 1.955-.763.646-.518.856-.36.834-1.49-.022-1.129-.833-1.464-1.755-2.765-.922-1.302-1.072-1.542-1.684-2.405-.614-.853-1.827-2.4-2.516-2.417zm15.192.608c-.43 0-.513.01-.877.213-.198.11-.215.82-.215 1.663 0 .664.004 1.412-.062 2.018-.154 1.412-.479 2.233-.507 3.143-.034.909.314 1.52.623 1.762.304.245.763.433 1.762.433 1.005 0 1.628-.199 2.29-.789.426-.377.878-.733 2.182-1.528 1.038-.626 2.6-1.317 2.91-1.594.153-.135.43-.266.453-.768.017-.433-.377-.576-.652-.727-.386-.198-1.387-.915-1.888-1.62-.304-.43.126-1.136-.293-1.674v.007c-.25-.324-.696-.184-.757-.184-.072 0-.459.595-.613.768-.166.183-.601.491-.911.664-.308.178-.552.272-1.215.23-.657-.046-.845-.245-1.054-.402-.205-.162-.414-.288-.376-.68.045-.392.1-.67-.032-.785-.145-.13-.337-.15-.768-.15z" fill="#f9de69" fill-rule="nonzero" stroke="none" stroke-width=".942"/><path id="SVGCleanerId_0-7" d="M23.626 7.932a6.56 6.56 0 0 0-2.747.63c-1.768.818-2.174 2.287-2.117 4.786.05-2.021.546-3.263 2.117-3.99 1-.463 1.935-.625 2.747-.63a6.06 6.06 0 0 1 2.591.557c.354.168 1.072.497 1.602 1.067.53.56 1.01 1.401 1.28 2.468.1.387.155.678.184.914.042-.358.066-.744-.184-1.71-.27-1.067-.75-1.909-1.28-2.468-.53-.57-1.248-.9-1.602-1.067a6.062 6.062 0 0 0-2.591-.557zm5.636 6.78c-.044.381-.063.833.234 1.993.62 2.447 1.877 3.65 3.412 5.584 1.245 1.563 2.53 3.95 2.708 5.782.214-1.88-1.273-4.776-2.708-6.578-1.535-1.934-2.793-3.137-3.412-5.584a8.567 8.567 0 0 1-.234-1.198zm-10.237 3.3c-.218 1.15-1.524 2.066-2.668 3.68-1.297 1.82-1.447 3.31-2.424 4.815-.739 1.121-.821 1.322-.66 1.93.097-.262.301-.589.66-1.134.977-1.505 1.127-2.995 2.424-4.816 1.298-1.83 2.805-2.761 2.694-4.156l-.026-.318zM13.28 29.258c-.34.334-.752 1.086-1.338 1.459h-.002c-.602.387-2.142.356-2.534.81-.21.25-.182.568-.118 1.004a.661.661 0 0 1 .118-.208c.392-.454 1.932-.423 2.534-.81h.002c.608-.387 1.028-1.182 1.375-1.495l.146-.128c-.074-.262-.137-.462-.183-.632zm22.103.48c-.08.205-.176.425-.287.658.123.021.25.076.348.203v-.007c.099.127.15.263.175.403 0-.383.112-.83-.175-1.2v.008a.525.525 0 0 0-.06-.066zm.257 1.498c.005.379-.095.76.097 1.03.501.705 1.502 1.422 1.888 1.62.177.097.403.192.537.362a.91.91 0 0 0 .115-.43c.017-.434-.377-.577-.652-.728-.386-.198-1.387-.916-1.889-1.62a.605.605 0 0 1-.096-.234zM9.397 34.202c-.03.36-.1.65-.15.895-.089.36-.146.623-.02.88l.02-.084c.066-.319.165-.71.165-1.234a5.753 5.753 0 0 0-.015-.457z" opacity=".2" fill="#fff" fill-rule="nonzero" stroke="none" stroke-width=".942"/><path id="path102-5" d="M26.63 15.912c-.125.545-.428.825-1.065 1.007-.635.172-1.766.706-2.638.706-.391 0-.939.021-1.254-.084-.304-.094-.73-.106-1.225-.472-.38-.278-.736-.57-.893-.914a.733.733 0 0 0-.084.393c.016.502.475.895.977 1.26.496.367.921.822 1.225.916.315.106.863.085 1.254.085.872 0 2.003-.978 2.638-1.151.79-.225 1.067-.6 1.128-1.448a.521.521 0 0 0-.063-.298zm3.89 13.54l-.002.006a.635.635 0 0 0 .046.338c.011-.152.006-.27-.045-.344zm5.1.752c-.003.102.001.2.02.29a1.57 1.57 0 0 0-.02-.29zM9.283 31.752c-.123.38.064.895.116 1.681.008-.098.013-.2.013-.31.005-.568-.077-1.01-.13-1.371zm28.897 1.722c-.1.193-.255.281-.357.37-.31.277-1.87.968-2.91 1.595-1.303.795-1.755 1.15-2.18 1.528-.663.59-1.286.789-2.29.789-1 0-1.459-.189-1.763-.434-.252-.197-.53-.64-.605-1.292-.009.09-.015.18-.018.27-.034.909.314 1.52.623 1.762.304.245.763.433 1.762.433 1.005 0 1.628-.199 2.29-.789.426-.377.878-.733 2.182-1.528 1.038-.626 2.6-1.317 2.91-1.594.153-.135.43-.266.453-.768a.532.532 0 0 0-.097-.342zM9.217 35.22c-.079.34-.11.593.062.85.348.508.894.64 4.058 1.225 1.689.313 3.29 1.118 4.355 1.201 1.072.069 1.304-.251 1.956-.763.646-.518.855-.36.834-1.49a2.185 2.185 0 0 0-.015-.216c-.061.57-.298.549-.82.967-.65.511-.883.831-1.955.763-1.065-.083-2.666-.888-4.355-1.201-3.164-.585-3.71-.717-4.058-1.225a.775.775 0 0 1-.062-.11z" fill="#f9b154" fill-rule="nonzero" stroke="none" stroke-width=".942"/></g></svg>