<svg xmlns:osb="http://www.openswatchbook.org/uri/2009/osb" xmlns="http://www.w3.org/2000/svg" xmlns:xlink="http://www.w3.org/1999/xlink" width="48" height="48" version="1.1" id="svg38"><defs id="defs22"><linearGradient id="linearGradient4488"><stop id="stop4490" offset="0" stop-color="#000" stop-opacity=".047"/><stop id="stop4492" offset="1" stop-color="#000" stop-opacity="0"/></linearGradient><style id="style4511"/><style id="style4511-26"/><style id="style4511-9"/><style id="style4552"/><style id="style4511-2"/><linearGradient xlink:href="#linearGradient4488" id="linearGradient4540" gradientUnits="userSpaceOnUse" gradientTransform="translate(-62.889 2.604) scale(.3038)" x1="288.112" y1="141.785" x2="287.575" y2="79.008"/><linearGradient osb:paint="solid" id="linearGradient5293"><stop id="stop5295" offset="0" stop-color="#9a89c0" stop-opacity="1"/></linearGradient><style id="style4511-8"/><style id="style4511-26-4"/><style id="style4511-9-8"/><style id="style4552-5"/><style id="style4511-2-5"/><clipPath clipPathUnits="userSpaceOnUse" id="clipPath234"><path d="M119.307 427.514h40.722v-40.722h-40.722v40.722z" id="path236"/></clipPath><clipPath clipPathUnits="userSpaceOnUse" id="clipPath250"><path d="M118.916 125.34h40.722V84.618h-40.722v40.722z" id="path252"/></clipPath><clipPath clipPathUnits="userSpaceOnUse" id="clipPath282"><path d="M352.361 427.514h40.722v-40.722h-40.722v40.722z" id="path284"/></clipPath><clipPath clipPathUnits="userSpaceOnUse" id="clipPath298"><path d="M351.97 125.34h40.722V84.618H351.97v40.722z" id="path300"/></clipPath><radialGradient fx="0" fy="0" cx="0" cy="0" r="1" gradientUnits="userSpaceOnUse" gradientTransform="matrix(14.63845 0 0 -14.55041 24.097 25.932)" spreadMethod="pad" id="radialGradient354"><stop offset="0" id="stop356" stop-opacity="1" stop-color="#ff7a20"/><stop offset=".142" id="stop358" stop-opacity="1" stop-color="#ff7e20"/><stop offset=".274" id="stop360" stop-opacity="1" stop-color="#ff8922"/><stop offset=".402" id="stop362" stop-opacity="1" stop-color="#ff9c24"/><stop offset=".527" id="stop364" stop-opacity="1" stop-color="#ffb627"/><stop offset=".624" id="stop366" stop-opacity="1" stop-color="#ffd02a"/><stop offset=".714" id="stop368" stop-opacity="1" stop-color="#ffd749"/><stop offset=".819" id="stop370" stop-opacity="1" stop-color="#fd6"/><stop offset=".91" id="stop372" stop-opacity="1" stop-color="#ffe279"/><stop offset=".976" id="stop374" stop-opacity="1" stop-color="#ffe37f"/><stop offset="1" id="stop376" stop-opacity="1" stop-color="#ffe37f"/></radialGradient><clipPath clipPathUnits="userSpaceOnUse" id="clipPath384"><path d="M0 512h512V0H0v512z" id="path386"/></clipPath><clipPath clipPathUnits="userSpaceOnUse" id="clipPath392"><path d="M151.332 317.685h211.825V208.591H151.332v109.094z" id="path394"/></clipPath><clipPath clipPathUnits="userSpaceOnUse" id="clipPath396"><path d="M363.157 244.835S327.858 208.591 256 208.591c-72.516 0-104.668 36.244-104.668 36.244 0 40.282 43.354 72.85 104.668 72.85 61.313 0 107.157-34.83 107.157-72.85" id="path398"/></clipPath><linearGradient x1="0" y1="0" x2="1" y2="0" gradientUnits="userSpaceOnUse" gradientTransform="rotate(90 25.694 231.634) scale(128.47156)" spreadMethod="pad" id="linearGradient404"><stop offset="0" id="stop406" stop-opacity="0" stop-color="#fff"/><stop offset="1" id="stop408" stop-opacity="1" stop-color="#fff"/></linearGradient><mask maskUnits="userSpaceOnUse" x="0" y="0" width="1" height="1" id="mask410"><g id="g412"><g id="g414"><g id="g416"><g id="g418"><path d="M-32768 32767h65535v-65535h-65535v65535z" id="path420" fill="url(#linearGradient404)" stroke="none"/></g></g></g></g></mask><linearGradient x1="0" y1="0" x2="1" y2="0" gradientUnits="userSpaceOnUse" gradientTransform="rotate(90 25.694 231.634) scale(128.47156)" spreadMethod="pad" id="linearGradient422"><stop offset="0" id="stop424" stop-opacity="1" stop-color="#000"/><stop offset="1" id="stop426" stop-opacity="1" stop-color="#000"/></linearGradient><clipPath clipPathUnits="userSpaceOnUse" id="clipPath450"><path d="M219.53 236.349h72.939v-76.64H219.53v76.64z" id="path452"/></clipPath><linearGradient x1="0" y1="0" x2="1" y2="0" gradientUnits="userSpaceOnUse" gradientTransform="matrix(0 43.45414 41.35733 0 256 159.709)" spreadMethod="pad" id="linearGradient458"><stop offset="0" id="stop460" stop-opacity="1" stop-color="#95979a"/><stop offset="1" id="stop462" stop-opacity="1" stop-color="#000"/></linearGradient><radialGradient fx="0" fy="0" cx="0" cy="0" r="1" gradientUnits="userSpaceOnUse" gradientTransform="matrix(4.72117 0 0 4.69277 23.985 28.112)" spreadMethod="pad" id="radialGradient490"><stop offset="0" id="stop492" stop-opacity="1" stop-color="#fff"/><stop offset=".031" id="stop494" stop-opacity="1" stop-color="#fff"/><stop offset=".105" id="stop496" stop-opacity="1" stop-color="#e3e3e3"/><stop offset=".295" id="stop498" stop-opacity="1" stop-color="#9f9f9f"/><stop offset=".476" id="stop500" stop-opacity="1" stop-color="#666"/><stop offset=".642" id="stop502" stop-opacity="1" stop-color="#3a3a3a"/><stop offset=".79" id="stop504" stop-opacity="1" stop-color="#1a1a1a"/><stop offset=".914" id="stop506" stop-opacity="1" stop-color="#070707"/><stop offset="1" id="stop508" stop-opacity="1" stop-color="#000"/></radialGradient><clipPath clipPathUnits="userSpaceOnUse" id="clipPath516"><path d="M0 512h512V0H0v512z" id="path518"/></clipPath><radialGradient fx="0" fy="0" cx="0" cy="0" r="1" gradientUnits="userSpaceOnUse" gradientTransform="matrix(12.55448 0 0 -12.47898 24.037 29.473)" spreadMethod="pad" id="radialGradient540"><stop offset="0" id="stop542" stop-opacity="1" stop-color="#000"/><stop offset=".832" id="stop544" stop-opacity="1" stop-color="#000"/><stop offset=".929" id="stop546" stop-opacity="1" stop-color="#636465"/><stop offset="1" id="stop548" stop-opacity="1" stop-color="#000"/></radialGradient><clipPath clipPathUnits="userSpaceOnUse" id="clipPath556"><path d="M0 512h512V0H0v512z" id="path558"/></clipPath><clipPath clipPathUnits="userSpaceOnUse" id="clipPath564"><path d="M206.586 439.614h98.827v-98.827h-98.827v98.827z" id="path566"/></clipPath><radialGradient fx="0" fy="0" cx="0" cy="0" r="1" gradientUnits="userSpaceOnUse" gradientTransform="matrix(6.11233 0 0 6.07557 23.97 9.466)" spreadMethod="pad" id="radialGradient588"><stop offset="0" id="stop590" stop-opacity="1" stop-color="#fff"/><stop offset=".031" id="stop592" stop-opacity="1" stop-color="#fff"/><stop offset=".105" id="stop594" stop-opacity="1" stop-color="#e3e3e3"/><stop offset=".295" id="stop596" stop-opacity="1" stop-color="#9f9f9f"/><stop offset=".476" id="stop598" stop-opacity="1" stop-color="#666"/><stop offset=".642" id="stop600" stop-opacity="1" stop-color="#3a3a3a"/><stop offset=".79" id="stop602" stop-opacity="1" stop-color="#1a1a1a"/><stop offset=".914" id="stop604" stop-opacity="1" stop-color="#070707"/><stop offset="1" id="stop606" stop-opacity="1" stop-color="#000"/></radialGradient><radialGradient fx="0" fy="0" cx="0" cy="0" r="1" gradientUnits="userSpaceOnUse" gradientTransform="matrix(4.81882 0 0 4.78984 24.037 11.228)" spreadMethod="pad" id="radialGradient622"><stop offset="0" id="stop624" stop-opacity="1" stop-color="#000"/><stop offset=".832" id="stop626" stop-opacity="1" stop-color="#000"/><stop offset=".929" id="stop628" stop-opacity="1" stop-color="#636465"/><stop offset="1" id="stop630" stop-opacity="1" stop-color="#000"/></radialGradient></defs><style id="style4485" type="text/css"/><style type="text/css" id="style4485-3"/><path id="path4516" d="M2.75 26.83v1.67c0 9.574 5.583 17.281 17.146 17.281h6.93c15.132 0 17.836-11.322 17.836-17.282v-1.668c0 5.96-2.704 17.282-17.836 17.282h-6.93C8.333 44.113 2.75 36.405 2.75 26.83z" opacity="1" fill="url(#linearGradient4540)" fill-opacity="1" stroke="none" stroke-width="1.1" stroke-linecap="square" stroke-linejoin="bevel" stroke-miterlimit="4" stroke-dasharray="none" stroke-dashoffset="0" stroke-opacity=".078"/><path id="path4518" d="M19.625 3.352h8.63c14.127 0 17.07 11.247 17.07 17.283v7.123c0 5.96-2.748 17.282-18.119 17.282h-7.04C8.422 45.04 2.75 37.332 2.75 27.758v-7.123c0-9.575 5.556-17.283 16.875-17.283z" opacity="1" fill="#e2e2e2" fill-opacity="1" stroke="#000" stroke-width=".337" stroke-linecap="square" stroke-linejoin="bevel" stroke-miterlimit="4" stroke-dasharray="none" stroke-dashoffset="0" stroke-opacity=".078"/><path id="path244" d="M12.692 8.066a1.98 1.98 0 0 1 1.986 1.973 1.98 1.98 0 0 1-1.986 1.974 1.98 1.98 0 0 1-1.985-1.974 1.98 1.98 0 0 1 1.985-1.973" fill="#000" fill-opacity="1" fill-rule="nonzero" stroke="none" stroke-width=".097"/><path id="path260" d="M12.654 37.356a1.98 1.98 0 0 1 1.986 1.974 1.98 1.98 0 0 1-1.986 1.974 1.98 1.98 0 0 1-1.985-1.974 1.98 1.98 0 0 1 1.985-1.974" fill="#000" fill-opacity="1" fill-rule="nonzero" stroke="none" stroke-width=".097"/><path d="M12.692 7.716a1.98 1.98 0 0 1 1.986 1.974 1.98 1.98 0 0 1-1.986 1.973 1.98 1.98 0 0 1-1.986-1.973 1.98 1.98 0 0 1 1.986-1.974" id="path264" fill="#d6d6d6" fill-opacity="1" fill-rule="nonzero" stroke="none" stroke-width=".097"/><path d="M12.076 10.752l-.617-1.062.617-1.062h1.234l.617 1.062-.617 1.062z" id="path268" fill="#4f4f4f" fill-opacity="1" fill-rule="nonzero" stroke="none" stroke-width=".097"/><path d="M12.654 37.006a1.98 1.98 0 0 1 1.986 1.974 1.98 1.98 0 0 1-1.986 1.973 1.98 1.98 0 0 1-1.986-1.973 1.98 1.98 0 0 1 1.986-1.974" id="path272" fill="#d6d6d6" fill-opacity="1" fill-rule="nonzero" stroke="none" stroke-width=".097"/><path d="M12.037 40.042l-.617-1.062.617-1.062h1.234l.617 1.062-.617 1.062z" id="path276" fill="#4f4f4f" fill-opacity="1" fill-rule="nonzero" stroke="none" stroke-width=".097"/><path id="path292" d="M35.42 8.066a1.98 1.98 0 0 1 1.985 1.973 1.98 1.98 0 0 1-1.985 1.974 1.98 1.98 0 0 1-1.986-1.974 1.98 1.98 0 0 1 1.986-1.973" fill="#000" fill-opacity="1" fill-rule="nonzero" stroke="none" stroke-width=".097"/><path id="path308" d="M35.382 37.356a1.98 1.98 0 0 1 1.985 1.974 1.98 1.98 0 0 1-1.985 1.974 1.98 1.98 0 0 1-1.986-1.974 1.98 1.98 0 0 1 1.986-1.974" fill="#000" fill-opacity="1" fill-rule="nonzero" stroke="none" stroke-width=".097"/><path d="M35.419 7.716a1.98 1.98 0 0 1 1.986 1.974 1.98 1.98 0 0 1-1.986 1.973 1.98 1.98 0 0 1-1.986-1.973 1.98 1.98 0 0 1 1.986-1.974" id="path312" fill="#d6d6d6" fill-opacity="1" fill-rule="nonzero" stroke="none" stroke-width=".097"/><path d="M34.802 10.752l-.617-1.062.617-1.062h1.234l.617 1.062-.617 1.062z" id="path316" fill="#4f4f4f" fill-opacity="1" fill-rule="nonzero" stroke="none" stroke-width=".097"/><path d="M35.381 37.006a1.98 1.98 0 0 1 1.986 1.974 1.98 1.98 0 0 1-1.986 1.973 1.98 1.98 0 0 1-1.986-1.973 1.98 1.98 0 0 1 1.986-1.974" id="path320" fill="#d6d6d6" fill-opacity="1" fill-rule="nonzero" stroke="none" stroke-width=".097"/><path d="M34.764 40.042l-.617-1.062.617-1.062h1.234l.617 1.062-.617 1.062z" id="path324" fill="#4f4f4f" fill-opacity="1" fill-rule="nonzero" stroke="none" stroke-width=".097"/><path id="path378" d="M11.494 29.473c0 6.886 5.616 12.468 12.543 12.468 6.928 0 12.543-5.582 12.543-12.468s-5.615-12.468-12.543-12.468c-6.927 0-12.543 5.582-12.543 12.468" fill="url(#radialGradient354)" stroke="none" stroke-width=".097"/><path id="path510" d="M20.48 29.473c0 1.952 1.593 3.535 3.557 3.535s3.557-1.583 3.557-3.535c0-1.953-1.593-3.535-3.557-3.535s-3.556 1.582-3.556 3.535" fill="url(#radialGradient490)" stroke="none" stroke-width=".097"/><path d="M24.037 26.102c-1.87 0-3.39 1.512-3.39 3.37 0 1.86 1.52 3.372 3.39 3.372s3.391-1.512 3.391-3.371-1.521-3.37-3.39-3.37m0 7.07c-2.053 0-3.723-1.66-3.723-3.7s1.67-3.7 3.722-3.7 3.722 1.66 3.722 3.7-1.67 3.7-3.722 3.7" id="path522" fill="#000" fill-opacity="1" fill-rule="nonzero" stroke="none" stroke-width=".097"/><path d="M24.037 24.27c-2.886 0-5.234 2.334-5.234 5.203s2.348 5.202 5.234 5.202 5.234-2.333 5.234-5.202c0-2.869-2.348-5.202-5.234-5.202m0 10.668c-3.032 0-5.499-2.452-5.499-5.466 0-3.014 2.467-5.466 5.5-5.466 3.031 0 5.498 2.452 5.498 5.466 0 3.014-2.467 5.466-5.499 5.466" id="path526" fill="#000" fill-opacity="1" fill-rule="nonzero" stroke="none" stroke-width=".097"/><path id="path550" d="M11.483 29.473c0 6.892 5.62 12.479 12.554 12.479s12.555-5.587 12.555-12.48c0-6.891-5.621-12.478-12.555-12.478-6.934 0-12.554 5.587-12.554 12.479m2.603 0c0-5.463 4.455-9.892 9.951-9.892s9.951 4.429 9.951 9.892c0 5.463-4.455 9.891-9.95 9.891-5.497 0-9.952-4.428-9.952-9.891" fill="url(#radialGradient540)" stroke="none" stroke-width=".097"/><path id="path574" d="M24.037 15.77c-2.268 0-4.113-1.834-4.113-4.088s1.845-4.087 4.113-4.087c2.268 0 4.113 1.833 4.113 4.087 0 2.254-1.845 4.088-4.113 4.088m0-8.877c-2.657 0-4.819 2.148-4.819 4.79 0 2.64 2.162 4.79 4.82 4.79 2.656 0 4.818-2.15 4.818-4.79 0-2.642-2.162-4.79-4.819-4.79" fill="#000" fill-opacity="1" fill-rule="nonzero" stroke="none" stroke-width=".097"/><path id="path608" d="M19.433 11.228c0 2.528 2.061 4.577 4.604 4.577s4.605-2.049 4.605-4.577c0-2.527-2.062-4.577-4.605-4.577-2.543 0-4.604 2.05-4.604 4.577" fill="url(#radialGradient588)" stroke="none" stroke-width=".097"/><path id="path632" d="M19.218 11.228c0 2.641 2.162 4.79 4.82 4.79 2.656 0 4.818-2.149 4.818-4.79 0-2.64-2.162-4.79-4.819-4.79s-4.819 2.15-4.819 4.79m.706 0c0-2.254 1.845-4.088 4.113-4.088 2.268 0 4.113 1.834 4.113 4.088s-1.845 4.088-4.113 4.088c-2.268 0-4.113-1.834-4.113-4.088" fill="url(#radialGradient622)" stroke="none" stroke-width=".097"/></svg>