<svg xmlns:osb="http://www.openswatchbook.org/uri/2009/osb" xmlns="http://www.w3.org/2000/svg" xmlns:xlink="http://www.w3.org/1999/xlink" width="48" height="48" version="1.1" id="svg38"><defs id="defs22"><linearGradient id="linearGradient4488"><stop id="stop4490" offset="0" stop-color="#000" stop-opacity=".047"/><stop id="stop4492" offset="1" stop-color="#000" stop-opacity="0"/></linearGradient><style id="style4511"/><style id="style4511-26"/><style id="style4511-9"/><style id="style4552"/><linearGradient id="e-1" y1="41.22" x1="24.392" y2="25.343" x2="20.643" gradientUnits="userSpaceOnUse"><stop stop-color="#334545" id="stop22-8"/><stop offset="1" stop-color="#536161" id="stop24-7"/></linearGradient><style id="style4511-2"/><linearGradient xlink:href="#linearGradient4488" id="linearGradient4540" gradientUnits="userSpaceOnUse" gradientTransform="matrix(.3038 0 0 .30792 -62.93 2.559)" x1="288.112" y1="141.785" x2="287.575" y2="79.008"/><linearGradient osb:paint="solid" id="linearGradient5293"><stop id="stop5295" offset="0" stop-color="#9a89c0" stop-opacity="1"/></linearGradient><linearGradient xlink:href="#e-1" id="linearGradient1424" x1="2.538" y1="24.444" x2="45.523" y2="24.444" gradientUnits="userSpaceOnUse"/></defs><style id="style4485" type="text/css"/><g id="g1432"><path d="M2.708 27.114v1.691c0 9.704 5.583 17.517 17.145 17.517h6.93c15.133 0 17.837-11.476 17.837-17.517v-1.69c0 6.04-2.704 17.516-17.836 17.516h-6.93c-11.563 0-17.146-7.813-17.146-17.517z" id="path4516" opacity="1" fill="url(#linearGradient4540)" fill-opacity="1" stroke="none" stroke-width="1.107" stroke-linecap="square" stroke-linejoin="bevel" stroke-miterlimit="4" stroke-dasharray="none" stroke-dashoffset="0" stroke-opacity=".078"/><path d="M19.611 3.318h8.644c14.151 0 17.098 11.399 17.098 17.516v7.22c0 6.04-2.751 17.516-18.148 17.516h-7.051c-11.765 0-17.446-7.812-17.446-17.516v-7.22c0-9.704 5.566-17.516 16.903-17.516z" id="path4518" opacity="1" fill="url(#linearGradient1424)" fill-opacity="1" stroke="#000" stroke-width=".339" stroke-linecap="square" stroke-linejoin="bevel" stroke-miterlimit="4" stroke-dasharray="none" stroke-dashoffset="0" stroke-opacity=".078"/><g id="g906" transform="matrix(.86213 0 0 .87 -4.91 -203.974)"><g id="g863" transform="translate(-7.576 229.985) scale(.60352)" color="#000" visibility="visible" fill="#fff" fill-opacity="1" fill-rule="nonzero" stroke="none"><path id="path3823" d="M68.076 21.958c-17.673 0-32 14.326-32 32 0 17.673 14.327 32 32 32 17.673 0 32-14.327 32-32 0-17.674-14.327-32-32-32zm-1 4h2v3h3v2h-3v3h-2v-3h-3v-2h3zm1 12c8.837 0 16 7.163 16 16 0 8.836-7.163 16-16 16-8.836 0-16-7.164-16-16 0-8.837 7.164-16 16-16zm-24 12.939v3l2.5-1.5 2.5-1.5v6l-2.5-1.5-2.5-1.5v3l-2.5-1.5-2.5-1.5v3.06h-1v-6h1v2.94l2.5-1.5zm43 0l2.5 1.5 2.5 1.5v-3l2.5 1.5 2.5 1.5v-2.94h1v6h-1v-3.06l-2.5 1.5-2.5 1.5v-3l-2.5 1.5-2.5 1.5v-3zm-23 26.06h8v2h-8z" style="marker:none" display="inline" overflow="visible" stroke-width="2.844"/><path style="marker:none" id="path3928" d="M60.076 49.958v8l3.5-2 3.5-2-3.5-2zm10 0v8h2v-8zm4 0v8h2v-8z" display="inline" overflow="visible" stroke-width="2"/></g></g></g></svg>