<svg xmlns="http://www.w3.org/2000/svg" xmlns:xlink="http://www.w3.org/1999/xlink" width="48" height="48" version="1.1" id="svg38"><defs id="defs22"><linearGradient id="linearGradient4488"><stop id="stop4490" offset="0" stop-color="#000" stop-opacity=".047"/><stop id="stop4492" offset="1" stop-color="#000" stop-opacity="0"/></linearGradient><style id="style4511"/><style id="style4511-26"/><style id="style4511-9"/><style id="style4552"/><style id="style4511-2"/><linearGradient xlink:href="#linearGradient4488" id="linearGradient4548" gradientUnits="userSpaceOnUse" gradientTransform="translate(-62.55 1.994) scale(.3038)" x1="288.112" y1="141.785" x2="287.575" y2="79.008"/><linearGradient gradientTransform="translate(-12.497 -21.373) scale(.54348)" y2="242" x2="284.9" y1="239.73" x1=".462" gradientUnits="userSpaceOnUse" id="SVGID_3_"><stop id="stop966" offset="0" stop-color="#00a6e4"/><stop id="stop968" offset=".13" stop-color="#00ade7"/><stop id="stop970" offset=".345" stop-color="#00b8eb"/><stop id="stop972" offset=".562" stop-color="#3fc1ee"/><stop id="stop974" offset=".78" stop-color="#53c8f0"/><stop id="stop976" offset="1" stop-color="#58caf1"/></linearGradient></defs><style id="style4485" type="text/css"/><path id="path4532" d="M3.088 26.22v1.67c0 9.573 5.583 17.281 17.146 17.281h6.93c15.133 0 17.837-11.322 17.837-17.282v-1.668c0 5.96-2.704 17.282-17.837 17.282h-6.93c-11.563 0-17.146-7.708-17.146-17.282z" opacity="1" fill="url(#linearGradient4548)" fill-opacity="1" stroke="none" stroke-width="1.1" stroke-linecap="square" stroke-linejoin="bevel" stroke-miterlimit="4" stroke-dasharray="none" stroke-dashoffset="0" stroke-opacity=".078"/><path id="path4534" d="M19.701 2.742h8.495c13.908 0 16.805 11.247 16.805 17.282v7.124c0 5.96-2.704 17.282-17.837 17.282h-6.93c-11.562 0-17.146-7.708-17.146-17.282v-7.124c0-9.574 5.47-17.282 16.613-17.282z" opacity="1" fill="#e6e6e6" fill-opacity="1" stroke="#000" stroke-width=".334" stroke-linecap="square" stroke-linejoin="bevel" stroke-miterlimit="4" stroke-dasharray="none" stroke-dashoffset="0" stroke-opacity=".078"/><g id="g981" transform="matrix(.09113 0 0 .08071 .23 4.246)"><linearGradient y2="270" x2="486" y1="270" x1="246.3" gradientUnits="userSpaceOnUse" id="linearGradient1568"><stop id="stop1560" offset="0" stop-color="#fff"/><stop id="stop1562" offset=".187" stop-color="#f7f7f7"/><stop id="stop1564" offset=".591" stop-color="#ebebeb"/><stop id="stop1566" offset="1" stop-color="#e7e7e7"/></linearGradient><path id="polygon964" fill="#056b9a" d="M251.3 355l-5-28h38.5z"/><linearGradient y2="242" x2="284.9" y1="242" x1="26" gradientUnits="userSpaceOnUse" id="linearGradient1584"><stop id="stop1572" offset="0" stop-color="#00a6e4"/><stop id="stop1574" offset=".13" stop-color="#00ade7"/><stop id="stop1576" offset=".345" stop-color="#00b8eb"/><stop id="stop1578" offset=".562" stop-color="#3fc1ee"/><stop id="stop1580" offset=".78" stop-color="#53c8f0"/><stop id="stop1582" offset="1" stop-color="#58caf1"/></linearGradient><path transform="matrix(1.84 0 0 1.84 22.994 39.326)" id="path979" d="M6.08 63.426c-.505 2.745-.469 3.886-.866 8.753-.568 6.958-.621 20.431-.6 25.046.094 19.734-1.582 40.267 1.062 58.85l136.664.269v-.272l-16.25-92.119z" fill="url(#SVGID_3_)" stroke-width=".543"/></g><path id="path983" d="M33.579 20.817h4.525v5.289h-.83v-.668h-3.695v3.748h-.845v-3.735h-3.64v.719h-.816v-5.34h4.456v-2.054l1.094.064c-.014.077-.083.129-.25.154zm-4.498 3.877h3.64v-3.132h-3.64zm4.498 0h3.695v-3.132h-3.695z" fill="#41b8ea" stroke-width=".133"/><path id="path985" d="M19.554 27.97h-.647v-5.865c0-.555-.174-.82-.522-.82-.212 0-.399.164-.56.48l-2.303 6.206h-.684v-5.046a1.1 1.1 0 0 1-.548.126c-.323 0-.61-.113-.846-.353a1.16 1.16 0 0 1-.348-.858c0-.328.112-.618.348-.858.237-.24.51-.353.846-.353.324 0 .61.114.847.353.236.24.348.518.348.858v3.608c-.025.567-.05.971-.087 1.21.075-.239.187-.58.324-1.02l1.468-3.962c.249-.681.672-1.022 1.244-1.022.747 0 1.12.492 1.12 1.464zM14.9 21.84a.605.605 0 0 0-.174-.429.56.56 0 0 0-.423-.176.589.589 0 0 0-.423.176.576.576 0 0 0-.174.43c0 .163.062.315.174.428a.56.56 0 0 0 .423.177.589.589 0 0 0 .423-.177.54.54 0 0 0 .174-.429z" fill="#fff" stroke-width=".125"/></svg>