<svg xmlns:osb="http://www.openswatchbook.org/uri/2009/osb" xmlns="http://www.w3.org/2000/svg" width="48" height="48" version="1.1" id="svg38"><defs id="defs22"><style id="style4511"/><style id="style4511-26"/><style id="style4511-9"/><style id="style4552"/><style id="style4511-2"/><linearGradient osb:paint="solid" id="linearGradient5293"><stop id="stop5295" offset="0" stop-color="#9a89c0" stop-opacity="1"/></linearGradient></defs><style id="style4485" type="text/css"/><g id="g1495" fill-opacity="1"><path d="M19.524 2.743h8.578c14.042 0 16.966 11.246 16.966 17.282v7.122c0 5.96-2.73 17.282-18.009 17.282h-6.997c-11.674 0-17.311-7.707-17.311-17.282v-7.122c0-9.575 5.523-17.282 16.773-17.282z" id="path4518" opacity="1" fill="#f7f7f7" stroke="#000" stroke-width=".336" stroke-linecap="square" stroke-linejoin="bevel" stroke-miterlimit="4" stroke-dasharray="none" stroke-dashoffset="0" stroke-opacity=".078"/><path style="line-height:1000%" d="M16.348 9.861c-.798 0-1.484.053-2.06.16-.558.106-.973.22-1.244.342l.215 1.3c.208-.077.535-.175.982-.297.447-.121 1.125-.182 2.035-.182.639 0 1.149.099 1.532.296.4.183.703.434.91.753.223.304.367.653.43 1.049.065.38.096.774.096 1.185v.73a1.592 1.592 0 0 0-.359-.091 4.11 4.11 0 0 0-.598-.114 5.11 5.11 0 0 0-.718-.092 5.594 5.594 0 0 0-.694-.045 9.94 9.94 0 0 0-2.083.205c-.639.137-1.19.357-1.652.661a3.074 3.074 0 0 0-1.078 1.117c-.255.456-.383 1.004-.383 1.642 0 .669.112 1.24.335 1.71a3.4 3.4 0 0 0 .958 1.14c.415.29.894.502 1.437.639a7.637 7.637 0 0 0 1.82.205c.51 0 1.005-.023 1.483-.069a15.1 15.1 0 0 0 1.341-.136l1.053-.16c.304-.06.535-.114.695-.16v-7.433a6 6 0 0 0-.24-1.733 3.439 3.439 0 0 0-.766-1.368c-.35-.395-.814-.699-1.388-.912-.56-.228-1.245-.342-2.06-.342zm8.87 5.944v16.133h1.816l.566-.696c1.133.629 2.265.92 3.42.92 3.398 0 5.403-2.404 5.403-5.684 0-3.28-1.392-5.595-4.883-5.595a7.622 7.622 0 0 0-3.421.787v-5.865zm-8.391.326c.67 0 1.197.046 1.58.137.383.076.662.152.837.228v4.15c-.319.061-.71.114-1.173.16-.446.03-.973.045-1.58.045-.494 0-.941-.037-1.34-.113a3.278 3.278 0 0 1-1.006-.411 1.958 1.958 0 0 1-.646-.73c-.144-.303-.216-.676-.216-1.117 0-.502.112-.905.335-1.209.224-.304.511-.539.862-.706a3.237 3.237 0 0 1 1.15-.342 8.26 8.26 0 0 1 1.197-.091zm14.005 6.999c2.029 0 2.69 1.393 2.69 3.505s-1.038 3.348-2.973 3.348c-.944 0-1.746-.224-2.43-.741v-5.505c.566-.225 1.675-.607 2.713-.607zM16.88 26.2c-1.205 0-2.315.18-3.328.54-1.014.359-1.888.876-2.623 1.551a7.05 7.05 0 0 0-1.71 2.48c-.41.978-.615 2.082-.615 3.312 0 .77.126 1.47.377 2.1.252.631.623 1.17 1.113 1.618.49.448 1.096.796 1.818 1.042s1.557.369 2.504.369c.444 0 .891-.025 1.342-.076.45-.044.887-.104 1.311-.18a17.612 17.612 0 0 0 2.246-.587l.606-2.98h-.646l-.716 1.902c-.205.151-.45.296-.735.435a7.83 7.83 0 0 1-.944.36 7.63 7.63 0 0 1-2.295.35c-.709 0-1.315-.104-1.818-.313a3.33 3.33 0 0 1-1.242-.86 3.515 3.515 0 0 1-.716-1.326 6.052 6.052 0 0 1-.218-1.665c0-1.11.156-2.117.467-3.019.311-.902.742-1.672 1.291-2.309a5.672 5.672 0 0 1 1.978-1.467 5.946 5.946 0 0 1 2.494-.52 7.26 7.26 0 0 1 1.828.227c.583.145 1.08.353 1.49.625v1.646h.646l.447-2.773a25.695 25.695 0 0 0-1.937-.33 17.13 17.13 0 0 0-2.415-.152z" id="path953-5" font-style="normal" font-weight="400" font-size="118.519" font-family="sans-serif" letter-spacing="0" word-spacing="0" display="inline" fill="#fff" stroke="none" stroke-width=".564" stroke-linecap="butt" stroke-linejoin="miter" stroke-opacity="1"/><path id="text899" d="M17.576 10.032c-.82 0-1.525.048-2.115.146-.574.098-1 .203-1.28.314l.222 1.194c.213-.07.55-.16 1.008-.272.46-.112 1.156-.168 2.091-.168.656 0 1.18.091 1.574.273.41.167.721.398.935.691.23.28.377.6.442.964.066.35.098.712.098 1.089v.67a1.792 1.792 0 0 0-.369-.083 4.67 4.67 0 0 0-.614-.105 5.844 5.844 0 0 0-.738-.084 6.327 6.327 0 0 0-.713-.042c-.77 0-1.484.063-2.14.189-.656.125-1.222.328-1.697.607a2.994 2.994 0 0 0-1.107 1.027c-.262.419-.393.921-.393 1.508 0 .614.114 1.138.344 1.571.246.42.574.768.984 1.048.426.265.918.46 1.476.586a8.733 8.733 0 0 0 1.869.189c.524 0 1.033-.021 1.525-.063.508-.028.967-.07 1.377-.126l1.082-.147c.311-.055.55-.104.713-.146v-6.83a4.98 4.98 0 0 0-.246-1.592 3.088 3.088 0 0 0-.787-1.256c-.36-.363-.836-.643-1.426-.838-.574-.21-1.28-.314-2.115-.314zm9.111 5.46v14.822h1.866l.582-.64c1.164.578 2.327.847 3.514.847 3.49 0 5.55-2.21 5.55-5.223 0-3.014-1.43-5.14-5.017-5.14-1.381 0-2.52.289-3.514.722v-5.388zm-8.62.3c.69 0 1.23.042 1.624.126.393.07.68.14.86.21v3.812c-.328.056-.73.105-1.205.147-.459.028-1 .042-1.623.042-.508 0-.967-.035-1.377-.105a3.6 3.6 0 0 1-1.033-.377 1.886 1.886 0 0 1-.664-.67c-.148-.28-.221-.622-.221-1.027 0-.46.114-.831.344-1.11.23-.28.524-.496.885-.65.36-.167.755-.272 1.18-.314a9.469 9.469 0 0 1 1.23-.084zm14.388 6.43c2.085 0 2.763 1.28 2.763 3.22 0 1.94-1.066 3.076-3.053 3.076-.97 0-1.794-.206-2.497-.68V22.78c.582-.207 1.72-.558 2.787-.558zm-14.332 2.82c-1.239 0-2.379.166-3.42.496-1.04.33-1.939.806-2.694 1.426a6.514 6.514 0 0 0-1.756 2.278c-.422.898-.633 1.912-.633 3.043 0 .707.13 1.35.388 1.93.259.58.64 1.075 1.143 1.486.504.412 1.126.73 1.868.957.742.226 1.6.339 2.572.339.456 0 .916-.023 1.378-.07.463-.04.912-.096 1.348-.165a19.936 19.936 0 0 0 2.306-.54l.623-2.738h-.663l-.735 1.748a5.064 5.064 0 0 1-.756.4 8.386 8.386 0 0 1-.97.33 8.626 8.626 0 0 1-1.122.235 8.635 8.635 0 0 1-1.235.087c-.728 0-1.35-.096-1.868-.287-.517-.191-.942-.455-1.276-.791a3.142 3.142 0 0 1-.735-1.218 5.01 5.01 0 0 1-.225-1.53c0-1.02.16-1.944.48-2.773a6.256 6.256 0 0 1 1.327-2.121 5.828 5.828 0 0 1 2.031-1.348 6.729 6.729 0 0 1 2.563-.478c.653 0 1.279.07 1.878.209.599.133 1.109.324 1.53.573v1.513h.664l.46-2.547a29.265 29.265 0 0 0-1.99-.305 19.648 19.648 0 0 0-2.481-.139z" style="line-height:1000%" font-style="normal" font-weight="400" font-size="118.519" font-family="sans-serif" letter-spacing="0" word-spacing="0" display="inline" fill="#5d5d5d" stroke="none" stroke-width=".548" stroke-linecap="butt" stroke-linejoin="miter" stroke-opacity="1"/></g></svg>