<svg xmlns="http://www.w3.org/2000/svg" xmlns:xlink="http://www.w3.org/1999/xlink" width="48" height="48" version="1.1" id="svg38"><defs id="defs22"><linearGradient id="linearGradient4488"><stop id="stop4490" offset="0" stop-color="#000" stop-opacity=".047"/><stop id="stop4492" offset="1" stop-color="#000" stop-opacity="0"/></linearGradient><style id="style4511"/><style id="style4511-26"/><style id="style4511-9"/><linearGradient id="linearGradient4454"><stop id="stop7-36" offset="0" stop-color="#d21e1e" stop-opacity="1"/><stop id="stop9-75" offset="1" stop-color="#e05e4c" stop-opacity="1"/></linearGradient><style id="style4552"/><style id="style4511-2"/><linearGradient xlink:href="#linearGradient4488" id="linearGradient4548" gradientUnits="userSpaceOnUse" gradientTransform="matrix(.30791 0 0 .30817 -63.719 1.983)" x1="288.112" y1="141.785" x2="287.575" y2="79.008"/><clipPath id="clipPath-880944884"/><clipPath id="clipPath-887482936"/><linearGradient gradientTransform="matrix(.01679 0 0 .02106 17.373 14.298)" y2="-176.38" x2="0" y1="844.09" gradientUnits="userSpaceOnUse" id="linear0"><stop id="stop420" stop-opacity="1" stop-color="#ff6900"/><stop id="stop422" stop-opacity="1" stop-color="#ffec00" offset="1"/></linearGradient><linearGradient xlink:href="#linearGradient4454" id="linearGradient1404" x1="2.921" y1="23.586" x2="45.168" y2="23.586" gradientUnits="userSpaceOnUse" gradientTransform="matrix(0 -1.01354 1.01438 0 .123 48.256)"/></defs><style id="style4485" type="text/css"/><path stroke-miterlimit="4" id="path4534" d="M2.905 28.288v-8.61c0-14.096 11.409-17.032 17.53-17.032h7.226c6.046 0 17.53 2.74 17.53 18.078v7.024c0 11.719-7.818 17.378-17.53 17.378h-7.225c-9.712 0-17.53-5.544-17.53-16.838z" opacity="1" fill="url(#linearGradient1404)" fill-opacity="1" stroke="#000" stroke-width=".339" stroke-linecap="square" stroke-linejoin="bevel" stroke-dasharray="none" stroke-dashoffset="0" stroke-opacity=".078"/><path stroke-miterlimit="4" id="path4532" d="M2.808 26.558v1.693c0 9.712 5.66 17.53 17.378 17.53h7.025c15.337 0 18.077-11.485 18.077-17.53v-1.693c0 6.045-2.74 17.53-18.077 17.53h-7.025c-11.719 0-17.378-7.818-17.378-17.53z" opacity="1" fill="url(#linearGradient4548)" fill-opacity="1" stroke="none" stroke-width="1.115" stroke-linecap="square" stroke-linejoin="bevel" stroke-dasharray="none" stroke-dashoffset="0" stroke-opacity=".078"/><path d="M36.613 14.821l-12.425-3.979a.424.385 0 0 0-.282 0l-12.425 3.98a.424.385 0 0 0-.283.362c0 4.027 1.173 8.682 3.22 12.772 1.659 3.318 4.643 7.743 9.435 9.985a.424.385 0 0 0 .389 0c4.792-2.242 7.776-6.668 9.436-9.985 2.046-4.09 3.22-8.745 3.22-12.772a.424.385 0 0 0-.284-.363z" id="path4448" fill="#e6e6e6" stroke-width=".081"/><path d="M36.613 14.821L24.046 10.82v27.164a.424.385 0 0 0 .195-.043c4.792-2.242 7.776-6.667 9.436-9.985 2.046-4.09 3.22-8.745 3.22-12.771a.424.385 0 0 0-.284-.363z" id="path4506" stroke-width=".081" fill="#afafaf" fill-opacity="1"/><path id="path459" d="M21.947 14.614c-.272.517-.491 2.29.293 3.166.926 1.05 1.124 2.31 1.124 4.22 0 2.687-1.596 4.838-.473 7.388-3.136-3.673.024-9.184-2.361-11.416.944 3.357-2.362 5.372-2.354 8.63-.008 3.457 1.881 5.472 4.149 5.465-1.616-.935-2.35-3.754-2.268-5.365 1.137 3.662 2.834 5.373 5.668 5.373-1.092-2.028-1.27-2.285-1.334-3.576.006-1.19.344-1.456.934-2.946 1.486-3.313.806-6.657-1.216-8.218-.411-.292-.522-.373-1.27-.79-.432-.286-.862-.908-.892-1.93m5.067 5.61c1.498 2.726-.209 4.94-.991 6.608-.642 1.312-.024 3.481.647 5.242.06-1.488.757-2.51 1.321-3.043 1.73-1.85 1.784-4.268.868-6.42-.576-1.18-1.085-1.563-1.845-2.387m0 0" fill="url(#linear0)" fill-rule="nonzero" stroke="none" stroke-width=".563"/></svg>