<svg xmlns="http://www.w3.org/2000/svg" xmlns:xlink="http://www.w3.org/1999/xlink" width="48" height="48" version="1.1" id="svg38"><defs id="defs22"><linearGradient id="linearGradient4488"><stop id="stop4490" offset="0" stop-color="#000" stop-opacity=".047"/><stop id="stop4492" offset="1" stop-color="#000" stop-opacity="0"/></linearGradient><style id="style4511"/><style id="style4511-26"/><style id="style4511-9"/><style id="style4552"/><style id="style4511-2"/><style id="style4552-7"/><style id="style4552-6"/><style id="style4552-73"/><style id="style4552-2"/><linearGradient xlink:href="#linearGradient4488" id="linearGradient5177" gradientUnits="userSpaceOnUse" gradientTransform="translate(-63.111 1.604) scale(.3038)" x1="288.112" y1="141.785" x2="287.575" y2="79.008"/></defs><style id="style4485" type="text/css"/><style type="text/css" id="style4485-4"/><style type="text/css" id="style4485-5"/><style type="text/css" id="style4485-3"/><style type="text/css" id="style4485-5-1"/><g id="g1695"><g transform="translate(.575 .72)" id="g1674"><g transform="translate(-49.038 -74.246) scale(1.35452)" id="g4309-3-3" fill="none" fill-rule="evenodd" stroke="#ce6f2d" stroke-width="1.317" stroke-miterlimit="4" stroke-dasharray="none" stroke-opacity="1"><path id="path5175" d="M52.635 62.586c-1.268.039-1.779 1.654-.763 2.415l1.525 1.174h-7.416c-1.83-.041-1.83 2.726 0 2.684h3.364l-5.495 3.992c-1.527 1.038.117 3.302 1.577 2.171l2.807-2.04a7.115 7.115 0 0 0-.017.351 7.157 7.157 0 1 0 11.204-5.905 1.343 1.343 0 0 0-.097-.08l-5.815-4.473a1.342 1.342 0 0 0-.874-.29zm2.74 6.273a4.473 4.473 0 1 1 0 8.947 4.473 4.473 0 0 1 0-8.947z" opacity="1" fill="#fff" fill-opacity="1" stroke="#f59d6c" stroke-width="1.317" stroke-linecap="butt" stroke-linejoin="miter" stroke-miterlimit="4" stroke-dasharray="none" stroke-opacity="1" paint-order="markers fill stroke"/></g><path d="M2.528 25.831V27.5c0 9.574 5.583 17.282 17.145 17.282h6.93c15.133 0 17.837-11.323 17.837-17.282v-1.67c0 5.96-2.704 17.282-17.836 17.282h-6.93c-11.563 0-17.146-7.707-17.146-17.282z" id="path5163" opacity="1" fill="url(#linearGradient5177)" fill-opacity="1" stroke="none" stroke-width="1.1" stroke-linecap="square" stroke-linejoin="bevel" stroke-miterlimit="4" stroke-dasharray="none" stroke-dashoffset="0" stroke-opacity=".078"/><path d="M19.14 2.353h8.496c13.907 0 16.804 11.247 16.804 17.282v7.123c0 5.96-2.704 17.282-17.836 17.282h-6.93c-11.563 0-17.146-7.707-17.146-17.282v-7.123c0-9.574 5.47-17.282 16.613-17.282z" id="path5165" opacity="1" fill="#fafafa" fill-opacity="1" stroke="#000" stroke-width=".334" stroke-linecap="square" stroke-linejoin="bevel" stroke-miterlimit="4" stroke-dasharray="none" stroke-dashoffset="0" stroke-opacity=".078"/><path d="M4.133 11.396c-1.071 2.447-1.606 5.251-1.606 8.239v7.123c0 2.986.544 5.792 1.643 8.238h38.54c1.33-2.91 1.73-5.964 1.73-8.238v-7.123c0-2.295-.424-5.341-1.708-8.239z" id="rect4870" opacity="1" fill="#cdcdcd" fill-opacity="1" stroke="none" stroke-width=".373" stroke-linecap="square" stroke-linejoin="bevel" stroke-miterlimit="4" stroke-dasharray="none" stroke-dashoffset="0" stroke-opacity=".147"/><circle id="path4868" cx="23.484" cy="23.197" r="13.118" opacity="1" fill="#fff" fill-opacity="1" stroke="#000" stroke-width=".1" stroke-linecap="square" stroke-linejoin="bevel" stroke-miterlimit="4" stroke-dasharray="none" stroke-dashoffset="0" stroke-opacity=".147"/><circle transform="translate(.473 -.21)" r="9.534" cy="23.407" cx="23.011" id="path4875-3" opacity="1" fill="#3280c2" fill-opacity="1" stroke="none" stroke-width=".1" stroke-linecap="square" stroke-linejoin="bevel" stroke-miterlimit="4" stroke-dasharray="none" stroke-dashoffset="0" stroke-opacity=".147"/><circle transform="translate(.473 -.21)" r="4.5" cy="23.407" cx="23.011" id="path4877-6" opacity="1" fill="#1a4264" fill-opacity="1" stroke="none" stroke-width=".1" stroke-linecap="square" stroke-linejoin="bevel" stroke-miterlimit="4" stroke-dasharray="none" stroke-dashoffset="0" stroke-opacity=".147"/><path d="M23.484 13.662a9.534 9.534 0 0 0-9.324 7.56 13.805 7.729 0 0 0 9.319 2.04 13.805 7.729 0 0 0 9.32-2.037 9.534 9.534 0 0 0-9.315-7.563z" id="circle4912" opacity="1" fill="#fff" fill-opacity=".1" stroke="none" stroke-width=".1" stroke-linecap="square" stroke-linejoin="bevel" stroke-miterlimit="4" stroke-dasharray="none" stroke-dashoffset="0" stroke-opacity=".147"/><circle transform="translate(.473 -.21)" r="1.133" cy="9.074" cx="11.86" id="circle4925" opacity="1" fill="#f4664a" fill-opacity="1" stroke="#252525" stroke-width=".4" stroke-linecap="square" stroke-linejoin="bevel" stroke-miterlimit="4" stroke-dasharray="none" stroke-dashoffset="0" stroke-opacity=".069"/><circle transform="translate(.473 -.21)" id="path4921" cx="11.86" cy="9.074" r="1.133" opacity="1" fill="#b3dd00" fill-opacity="1" stroke="none" stroke-width=".1" stroke-linecap="square" stroke-linejoin="bevel" stroke-miterlimit="4" stroke-dasharray="none" stroke-dashoffset="0" stroke-opacity=".147"/><g id="g14" transform="matrix(.98531 0 0 .97619 -.651 1.262)" fill="#5c6698" fill-opacity="1"><ellipse id="ellipse12" ry="2.456" rx="5.102" cy="5.456" cx="24.296" fill="#75a1d0"/></g><g id="g1643" transform="matrix(1 0 0 1.02439 .473 -.702)" fill="#5c6698" fill-opacity="1" stroke-width=".532"><ellipse ry="3.128" rx="3.255" id="circle18" cy="23.288" cx="23.001" fill="#08f" fill-opacity="1"/><ellipse ry="1.955" rx="2.035" id="circle20-3" cy="23.288" cx="23.001" fill="#052314"/><ellipse ry=".57" rx=".593" id="circle24-5" cy="22.375" cx="22.492" opacity=".8" fill="#fff"/></g><circle r="13.118" cy="23.197" cx="23.484" id="circle4923" opacity="1" fill="none" fill-opacity="1" stroke="#000" stroke-width=".4" stroke-linecap="square" stroke-linejoin="bevel" stroke-miterlimit="4" stroke-dasharray="none" stroke-dashoffset="0" stroke-opacity=".031"/></g></g></svg>