<svg xmlns="http://www.w3.org/2000/svg" xmlns:xlink="http://www.w3.org/1999/xlink" width="48" height="48" version="1.1" id="svg38"><defs id="defs22"><linearGradient id="linearGradient4488"><stop id="stop4490" offset="0" stop-color="#000" stop-opacity=".047"/><stop id="stop4492" offset="1" stop-color="#000" stop-opacity="0"/></linearGradient><style id="style4511"/><style id="style4511-26"/><style id="style4511-9"/><style id="style4552"/><style id="style4511-2"/><linearGradient gradientTransform="translate(-63.205 2.216) scale(.3038)" xlink:href="#linearGradient4488" id="linearGradient4160" x1="288.112" y1="141.785" x2="287.575" y2="79.008" gradientUnits="userSpaceOnUse"/></defs><style id="style4485" type="text/css"/><path d="M2.433 26.443v1.668c0 9.575 5.583 17.282 17.146 17.282h6.93c15.133 0 17.837-11.322 17.837-17.282v-1.668c0 5.96-2.704 17.282-17.837 17.282h-6.93c-11.563 0-17.146-7.708-17.146-17.282z" id="path4147" opacity="1" fill="url(#linearGradient4160)" fill-opacity="1" stroke="none" stroke-width="1.1" stroke-linecap="square" stroke-linejoin="bevel" stroke-miterlimit="4" stroke-dasharray="none" stroke-dashoffset="0" stroke-opacity=".078"/><path d="M19.046 2.965h8.495c13.908 0 16.805 11.246 16.805 17.282v7.123c0 5.96-2.704 17.282-17.837 17.282h-6.93c-11.562 0-17.146-7.708-17.146-17.282v-7.123c0-9.575 5.47-17.282 16.613-17.282z" id="rect4144" opacity="1" fill="#e0287b" fill-opacity="1" stroke="#000" stroke-width=".334" stroke-linecap="square" stroke-linejoin="bevel" stroke-miterlimit="4" stroke-dasharray="none" stroke-dashoffset="0" stroke-opacity=".078"/><path d="M13.518 37.971a.536.536 0 0 1-.145-.368c.001-.5.352-1.826 1.433-5.417.709-2.352.818-2.747 1.266-4.55.947-3.807 1.612-8 1.604-10.098a7.942 7.942 0 0 0-.101-1.14 8.997 8.997 0 0 1-.1-.625c-.002-.096.516-.321 1.067-.464.484-.125 1.409-.143 1.722-.033.306.106.38.433.323 1.428-.103 1.829-.323 3.662-.844 7.062-.11.72-.11.745.021.985.246.448.318.458 3.519.457 3.068 0 3.235-.017 3.478-.358.205-.288.371-.932 1.037-4.01.695-3.211 1.213-5.488 1.47-6.46.147-.554.208-.68.42-.871.429-.384.83-.424 1.729-.173.299.083.706.247.8.322.008.006-.075.29-.185.63-.79 2.457-2.622 11.717-3.731 18.855-.11.706-.062 1.115.219 1.86.164.437.167.463.05.548-.308.226-1.824.565-2.52.565-.861 0-1-.182-1.043-1.367-.034-.948.067-1.493.876-4.75.3-1.203.544-2.301.544-2.44a.661.661 0 0 0-.165-.444c-.196-.228.114-.22-3.886-.103-2.962.086-3.145.11-3.354.435-.17.264-.429 1.162-.834 2.894-.21.902-.564 2.354-.785 3.226-.4 1.578-.634 2.701-.717 3.46-.044.395-.046.398-.363.536-.485.21-1.556.468-2.138.513-.47.037-.535.027-.667-.105z" id="path12446" fill="#fff" fill-opacity="1" stroke="none" stroke-width=".068" stroke-opacity="1"/></svg>