<svg xmlns:osb="http://www.openswatchbook.org/uri/2009/osb" xmlns="http://www.w3.org/2000/svg" xmlns:xlink="http://www.w3.org/1999/xlink" width="48" height="48" version="1.1" id="svg38"><defs id="defs22"><linearGradient id="linearGradient4488"><stop id="stop4490" offset="0" stop-color="#000" stop-opacity=".047"/><stop id="stop4492" offset="1" stop-color="#000" stop-opacity="0"/></linearGradient><style id="style4511"/><style id="style4511-26"/><style id="style4511-9"/><style id="style4552"/><style id="style4511-2"/><linearGradient xlink:href="#linearGradient4488" id="linearGradient4540" gradientUnits="userSpaceOnUse" gradientTransform="translate(-62.457 2.425) scale(.3038)" x1="288.112" y1="141.785" x2="287.575" y2="79.008"/><linearGradient osb:paint="solid" id="linearGradient5293"><stop id="stop5295" offset="0" stop-color="#9a89c0" stop-opacity="1"/></linearGradient></defs><style id="style4485" type="text/css"/><path id="path4516" d="M3.181 26.652v1.669c0 9.574 5.584 17.282 17.146 17.282h6.93c15.133 0 17.837-11.323 17.837-17.282v-1.669c0 5.96-2.704 17.282-17.837 17.282h-6.93c-11.562 0-17.146-7.708-17.146-17.282z" opacity="1" fill="url(#linearGradient4540)" fill-opacity="1" stroke="none" stroke-width="1.1" stroke-linecap="square" stroke-linejoin="bevel" stroke-miterlimit="4" stroke-dasharray="none" stroke-dashoffset="0" stroke-opacity=".078"/><path id="path4518" d="M19.794 3.174h8.496c13.907 0 16.804 11.247 16.804 17.282v7.123c0 5.96-2.704 17.282-17.837 17.282h-6.93c-11.562 0-17.146-7.708-17.146-17.282v-7.123c0-9.574 5.47-17.282 16.613-17.282z" opacity="1" fill="#a36eb2" fill-opacity="1" stroke="#000" stroke-width=".334" stroke-linecap="square" stroke-linejoin="bevel" stroke-miterlimit="4" stroke-dasharray="none" stroke-dashoffset="0" stroke-opacity=".078"/><g id="g1349" transform="matrix(.78361 0 0 .7563 46.684 5.945)"><path d="M-36.615 43.243c-.261-.397-.737-1.265-1.057-1.928-.685-1.422-.955-1.467-2.435-.402-1.856 1.336-2.566.97-2-1.03.187-.66.226-1.31.087-1.446-.139-.135-.997.03-1.908.368-2.085.772-2.711.501-1.989-.861.282-.532.43-1.046.33-1.143-.099-.098-.779.029-1.51.28-2.523.869-2.864.42-1.256-1.654.539-.695.984-1.533.989-1.863.005-.33.454-1.095.998-1.7 1.243-1.38 2.637-4.035 2.626-5-3.179-4.755-1.747-6.981.333-11.059.545-1.171 1.272-3.493 1.94-4.108 2.827-3.756 8.325-3.649 11.293-.05.897.573 2.446 3.83 2.743 5.005 3.666 4.513-.807 7.983-.308 10.397.266 1.246 1.523 3.413 2.808 4.84.532.591.967 1.404.967 1.805 0 .402.37 1.205.824 1.784 1.371 1.755.99 2.316-1.089 1.601-1.602-.551-1.837-.388-1.193.828.446.84.44.948-.052 1.133-.3.112-1.26-.02-2.135-.292-.874-.273-1.663-.424-1.753-.336-.09.088-.077.867.028 1.732.166 1.368.114 1.573-.4 1.573-.326 0-1.078-.362-1.672-.804-.594-.442-1.236-.803-1.426-.803-.191 0-.796.868-1.345 1.928-1.066 2.06-1.676 2.362-2.438 1.205z" id="path1214" fill="#248afd"/><path d="M-35.87 8.914a6.9 6.9 0 0 0-5.594 2.785c-.668.614-1.395 2.936-1.94 4.107-1.312 2.572-2.364 4.408-2.166 6.606.14-1.784 1.058-3.432 2.166-5.606.545-1.171 1.272-3.493 1.94-4.107 2.828-3.757 8.325-3.65 11.293-.053.897.574 2.447 3.832 2.744 5.006.913 1.125 1.32 2.185 1.426 3.18.105-1.277-.199-2.669-1.426-4.18-.297-1.174-1.847-4.432-2.744-5.006-1.484-1.799-3.6-2.725-5.7-2.732zm8.152 18.197c-.065.329-.08.64-.018.938.266 1.246 1.524 3.414 2.809 4.841.532.591.967 1.403.967 1.805 0 .402.369 1.204.822 1.783.257.329.432.604.566.848.441-.17.263-.787-.566-1.848-.453-.58-.822-1.381-.822-1.783 0-.402-.435-1.214-.967-1.805-1.266-1.406-2.5-3.525-2.791-4.779zm-16.176.506c-.386 1.217-1.469 3.137-2.469 4.248-.544.604-.993 1.369-.998 1.7-.005.33-.451 1.168-.99 1.863-.979 1.262-1.23 1.919-.713 2.046.164-.29.387-.626.713-1.046.539-.695.985-1.534.99-1.864.005-.33.454-1.095.998-1.699 1.244-1.381 2.636-4.035 2.625-5-.057-.085-.102-.164-.156-.248z" id="path1216" opacity=".2" fill="#fff"/><g id="g1329"><g id="g1224" transform="matrix(.91856 0 0 .86917 -74.04 -85.943)"><path id="path1218" d="M34.52 106.365s1.066 6.003 7.131 7.371c0 0 .507-4.185-1.191-5.63-1.7-1.445-5.94-1.741-5.94-1.741z" fill="#d19e01"/><path id="path1220" d="M48.672 106.241s-.955 5.927-7.02 7.495c0 0-.563-4.175 1.11-5.65 1.674-1.474 5.91-1.845 5.91-1.845z" fill="#d19e01"/><path id="path1222" d="M41.671 103.382s-6.067 5.314-.02 10.354c5.765-5.244.02-10.354.02-10.354z" fill="#fecd38"/></g><g id="g1230" transform="translate(-57.717 1.683) scale(.6923)"><circle id="circle1226" r="6.5" cy="28.5" cx="21.5" fill="#fecd38"/><path id="path1228" d="M21.5 24.5a4 4 0 0 0-4 4 4 4 0 0 0 4 4 4 4 0 0 0 4-4 4 4 0 0 0-4-4zm0 2.666a1.333 1.333 0 0 1 1.333 1.334 1.333 1.333 0 0 1-1.333 1.333 1.333 1.333 0 0 1-1.333-1.333 1.333 1.333 0 0 1 1.333-1.334z" fill="#535353"/></g><g id="g1236" transform="translate(-57.563 1.683) scale(.6923)"><circle id="circle1232" r="6.5" cy="28.5" cx="41.5" fill="#fecd38"/><path id="path1234" d="M41.5 24.5a4 4 0 0 0-4 4 4 4 0 0 0 4 4 4 4 0 0 0 4-4 4 4 0 0 0-4-4zm0 2.666a1.333 1.333 0 0 1 1.333 1.334 1.333 1.333 0 0 1-1.333 1.333 1.333 1.333 0 0 1-1.333-1.333 1.333 1.333 0 0 1 1.333-1.334z" fill="#535353"/></g><g id="g1242" transform="matrix(.98119 0 0 .98668 -59.38 .162)"><path id="path1238" d="M17.375 24.921s2.37-2.369 6.493-2.369c4.124 0 6.757 2.896 6.757 2.896s-.088 1.667-1.053 2.193c-.965.527-3.598-2.456-6.055-2.456-2.456 0-5.001 2.105-5.001 2.105z" fill="#fecd38"/><path id="path1240" d="M23.916 24c-1.818-.008-3.56.41-4.886 1.236l-1.459.908 1.307 2.583c.838 1.656 1.93 3.193 3.04 4.285.954.936 1.98 1.702 2.28 1.702.9 0 4.097-3.587 5.343-5.996.64-1.236 1.02-2.161.845-2.055-.174.106-.45-.152-.613-.572-.183-.474-.808-.966-1.64-1.293A11.77 11.77 0 0 0 23.915 24z" fill="#535353"/></g><g style="line-height:1.25" transform="matrix(1.22377 0 0 1.06854 -91.144 -111.204)" id="g1248" font-weight="700" font-size="22.165" font-family="DejaVu Serif" letter-spacing="0" word-spacing="0" fill="#e6e6e6"><path d="M63.746 117.95h-2.858l-.757 2.965h2.857zm-1.223-6.472l-1.04 4.167h2.858l1.05-4.167h2.391l-1.05 4.167h1.754v2.305H66.16l-.747 2.965h3.074v2.327H64.85l-1.039 4.145H61.42l1.039-4.145H59.6l-1.039 4.145h-2.413l1.039-4.145h-1.775v-2.327h2.305l.758-2.965h-3.063v-2.305h3.658l1.04-4.167z" id="path1246" fill="#e6e6e6"/></g></g></g></svg>