<svg xmlns:osb="http://www.openswatchbook.org/uri/2009/osb" xmlns="http://www.w3.org/2000/svg" xmlns:xlink="http://www.w3.org/1999/xlink" width="48" height="48" version="1.1" id="svg38"><defs id="defs22"><linearGradient id="linearGradient4488"><stop id="stop4490" offset="0" stop-color="#000" stop-opacity=".047"/><stop id="stop4492" offset="1" stop-color="#000" stop-opacity="0"/></linearGradient><style id="style4511"/><style id="style4511-26"/><style id="style4511-9"/><style id="style4552"/><style id="style4511-2"/><linearGradient xlink:href="#linearGradient4488" id="linearGradient4540" gradientUnits="userSpaceOnUse" gradientTransform="translate(-62.457 2.425) scale(.3038)" x1="288.112" y1="141.785" x2="287.575" y2="79.008"/><linearGradient osb:paint="solid" id="linearGradient5293"><stop id="stop5295" offset="0" stop-color="#9a89c0" stop-opacity="1"/></linearGradient></defs><style id="style4485" type="text/css"/><g id="g5055"><path d="M3.181 26.652v1.669c0 9.574 5.584 17.282 17.146 17.282h6.93c15.133 0 17.837-11.323 17.837-17.282v-1.669c0 5.96-2.704 17.282-17.837 17.282h-6.93c-11.562 0-17.146-7.708-17.146-17.282z" id="path4516" opacity="1" fill="url(#linearGradient4540)" fill-opacity="1" stroke="none" stroke-width="1.1" stroke-linecap="square" stroke-linejoin="bevel" stroke-miterlimit="4" stroke-dasharray="none" stroke-dashoffset="0" stroke-opacity=".078"/><path d="M19.794 3.174h8.496c13.907 0 16.804 11.247 16.804 17.282v7.123c0 5.96-2.704 17.282-17.837 17.282h-6.93c-11.562 0-17.146-7.708-17.146-17.282v-7.123c0-9.574 5.47-17.282 16.613-17.282z" id="path4518" opacity="1" fill="#e6e6e6" fill-opacity="1" stroke="#000" stroke-width=".334" stroke-linecap="square" stroke-linejoin="bevel" stroke-miterlimit="4" stroke-dasharray="none" stroke-dashoffset="0" stroke-opacity=".078"/><g transform="matrix(.68567 0 0 .68212 6.871 7.882)" id="g4952"><g id="g4950"><g id="g4934"><path id="polygon4896" fill="#3175d0" d="M17 1.293v12.73l14.726-4.068z"/><path id="polygon4898" fill="#59a7ff" d="M19.385 4.824v12.73l14.726-4.068z"/><path id="polygon4900" fill="#3175d0" d="M4.973 9.069l9.34 13.292 12.79-12.88z"/><path id="polygon4902" fill="#59a7ff" d="M6.751 11.591l9.34 13.292 12.79-12.88z"/><path id="polygon4904" fill="#3175d0" d="M1.847 21.019l12.79 9.457 8.062-17.699z"/><path id="polygon4906" fill="#59a7ff" d="M4.369 22.87l12.79 9.457 8.062-17.699z"/><circle id="circle4908" r="5.026" cy="40.096" cx="32.246" fill="#59a7ff"/><circle id="circle4910" r="5.026" cy="40.096" cx="32.246" fill="#e06fd1"/><circle id="circle4912" r="4.269" cy="38.973" cx="32.473" fill="#f49ee9"/><path id="polygon4914" fill="#3175d0" d="M3.787 33.938l15.539 1.176-.942-19.725z"/><path id="polygon4916" fill="#59a7ff" d="M6.813 34.161l15.54 1.175-.942-19.724z"/><circle id="circle4918" r="5.026" cy="39.591" cx="24.176" fill="#e06fd1"/><circle id="circle4920" r="4.101" cy="38.583" cx="24.176" fill="#f49ee9"/><circle id="circle4922" r="5.026" cy="27.99" cx="40.821" fill="#e06fd1"/><circle id="circle4924" r="4.046" cy="27.01" cx="41.355" fill="#f49ee9"/><circle id="circle4926" r="15.841" cy="24.236" cx="27.201" fill="#e06fd1"/><path id="path4928" d="M27.201 8.395c-2.256 0-4.4.475-6.343 1.325-3.959 2.703-6.558 7.25-6.558 12.405 0 8.291 6.721 15.012 15.012 15.012 5.155 0 9.702-2.599 12.405-6.558a15.785 15.785 0 0 0 1.325-6.343c0-8.748-7.092-15.841-15.841-15.841z" fill="#f49ee9"/><circle id="circle4930" r="4.598" cy="35.479" cx="16.533" fill="#e06fd1"/><circle id="circle4932" r="3.888" cy="34.77" cx="17.243" fill="#f49ee9"/></g><g id="g4946"><g id="g4942"><ellipse id="ellipse4936" ry="6.102" rx="4.585" cy="21.39" cx="31.939" transform="rotate(-13.892 31.936 21.388)" fill="#fff"/><ellipse id="ellipse4938" ry="4.966" rx="3.731" cy="20.697" cx="36.849" transform="rotate(-13.892 36.846 20.695)" fill="#fff"/><ellipse id="ellipse4940" ry="2.079" rx="1.547" cy="21.24" cx="38.011" fill="#231815"/></g><ellipse id="ellipse4944" ry="2.371" rx="1.763" cy="21.744" cx="32.967" fill="#231815"/></g><path id="path4948" d="M38.594 27.75s.172.141-.101.647c-.488.906-2.028 2.275-5.044 1.969 0 0-.336-.046-.476-.134-.407-.257-.546-1.001.476-.964 1.333.048 2.504.232 4.135-.911 0 0 .868-.793 1.01-.607z" fill="#a61477"/></g></g></g></svg>