<svg xmlns="http://www.w3.org/2000/svg" xmlns:xlink="http://www.w3.org/1999/xlink" width="48" height="48" version="1.1" id="svg38"><defs id="defs22"><linearGradient id="linearGradient4488"><stop id="stop4490" offset="0" stop-color="#000" stop-opacity=".047"/><stop id="stop4492" offset="1" stop-color="#000" stop-opacity="0"/></linearGradient><style id="style4511"/><style id="style4511-26"/><style id="style4511-9"/><style id="style4552"/><style id="style4511-2"/><linearGradient xlink:href="#linearGradient4488" id="linearGradient4471" gradientUnits="userSpaceOnUse" gradientTransform="translate(-62.47 2.216) scale(.3038)" x1="288.112" y1="141.785" x2="287.575" y2="79.008"/><linearGradient id="b-2-9-8-8" y1="540.92" y2="522.55" x2="0" gradientUnits="userSpaceOnUse" gradientTransform="matrix(1 0 0 1.14286 0 -77.4)"><stop stop-color="#629df7" id="stop7-91-9-9" stop-opacity="1"/><stop offset="1" stop-color="#27c7dc" id="stop9-2-3-2" stop-opacity="1"/></linearGradient><linearGradient xlink:href="#b-2-9-8-8" id="linearGradient4483" x1="3.001" y1="23.808" x2="60.705" y2="23.3" gradientUnits="userSpaceOnUse"/></defs><style id="style4485" type="text/css"/><path d="M3.168 26.443v1.668c0 9.575 5.583 17.282 17.146 17.282h6.93c15.132 0 17.836-11.322 17.836-17.282v-1.668c0 5.96-2.704 17.282-17.836 17.282h-6.93c-11.563 0-17.146-7.708-17.146-17.282z" id="path4467" opacity="1" fill="url(#linearGradient4471)" fill-opacity="1" stroke="none" stroke-width="1.1" stroke-linecap="square" stroke-linejoin="bevel" stroke-miterlimit="4" stroke-dasharray="none" stroke-dashoffset="0" stroke-opacity=".078"/><path d="M19.781 2.965h8.495c13.908 0 16.805 11.246 16.805 17.282v7.123c0 5.96-2.705 17.282-17.837 17.282h-6.93c-11.563 0-17.146-7.708-17.146-17.282v-7.123c0-9.575 5.47-17.282 16.613-17.282z" id="path4469" opacity="1" fill="url(#linearGradient4483)" fill-opacity="1" stroke="#000" stroke-width=".334" stroke-linecap="square" stroke-linejoin="bevel" stroke-miterlimit="4" stroke-dasharray="none" stroke-dashoffset="0" stroke-opacity=".078"/><path d="M13.367 13.034v9.121h9.086v-9.121h-9.086zm12.427 0v9.121h9.088v-9.121h-9.088zm-11.626.802h7.482v7.517h-7.482v-7.517zm12.428 0h7.484v7.517h-7.483v-7.517zm-13.23 11.66v9.086h9.087v-9.087h-9.086zm12.428 0v9.086h9.088v-9.087h-9.088zm-11.626.801h7.482v7.483h-7.482v-7.483zm12.428 0h7.484v7.483h-7.483v-7.483z" id="path13189" fill="#fff" fill-opacity="1" stroke="none" stroke-width=".027" stroke-miterlimit="4" stroke-dasharray="none" stroke-opacity="1"/></svg>