<svg xmlns:osb="http://www.openswatchbook.org/uri/2009/osb" xmlns="http://www.w3.org/2000/svg" xmlns:xlink="http://www.w3.org/1999/xlink" width="48" height="48" version="1.1" id="svg38"><defs id="defs22"><linearGradient id="linearGradient4488"><stop id="stop4490" offset="0" stop-color="#000" stop-opacity=".047"/><stop id="stop4492" offset="1" stop-color="#000" stop-opacity="0"/></linearGradient><style id="style4511"/><style id="style4511-26"/><style id="style4511-9"/><style id="style4552"/><linearGradient id="e-1" y1="41.22" x1="24.392" y2="25.343" x2="20.643" gradientUnits="userSpaceOnUse"><stop stop-color="#334545" id="stop22-8"/><stop offset="1" stop-color="#536161" id="stop24-7"/></linearGradient><style id="style4511-2"/><linearGradient xlink:href="#linearGradient4488" id="linearGradient4540" gradientUnits="userSpaceOnUse" gradientTransform="matrix(.30902 0 0 .3038 -64.017 1.994)" x1="288.112" y1="141.785" x2="287.575" y2="79.008"/><linearGradient osb:paint="solid" id="linearGradient5293"><stop id="stop5295" offset="0" stop-color="#9a89c0" stop-opacity="1"/></linearGradient><linearGradient xlink:href="#e-1" id="linearGradient1335" x1="2.581" y1="23.586" x2="45.552" y2="23.586" gradientUnits="userSpaceOnUse"/><clipPath id="clipPath-056190691"/><clipPath id="clipPath-064228773"/></defs><style id="style4485" type="text/css"/><path id="path4518" d="M19.649 2.742h8.64c14.148 0 17.094 11.247 17.094 17.282v7.124c0 5.96-2.75 17.282-18.143 17.282h-7.05c-11.76 0-17.44-7.708-17.44-17.282v-7.124c0-9.574 5.564-17.282 16.899-17.282z" opacity="1" fill="#5c5c5c" fill-opacity="1" stroke="#000" stroke-width=".337" stroke-linecap="square" stroke-linejoin="bevel" stroke-miterlimit="4" stroke-dasharray="none" stroke-dashoffset="0" stroke-opacity=".078"/><path id="path4516" d="M2.75 26.22v1.67c0 9.573 5.68 17.281 17.44 17.281h7.05c15.392 0 18.143-11.322 18.143-17.282v-1.668c0 5.96-2.75 17.282-18.143 17.282h-7.05c-11.76 0-17.44-7.708-17.44-17.282z" opacity="1" fill="url(#linearGradient4540)" fill-opacity="1" stroke="none" stroke-width="1.109" stroke-linecap="square" stroke-linejoin="bevel" stroke-miterlimit="4" stroke-dasharray="none" stroke-dashoffset="0" stroke-opacity=".078"/><path id="path1323" d="M29.907 16.484c5.242 0 9.492 4.149 9.492 9.269 0 3.089-1.558 5.808-3.93 7.49.087.352.194.727.366 1.117.593 1.322 1.186 1.322 1.186 1.322s-1.775 0-2.966-.66c-.255-.141-.472-.372-.668-.643a9.743 9.855 0 0 1-3.486.642c-5.241 0-9.491-4.149-9.491-9.268 0-5.125 4.25-9.274 9.491-9.274m.005.005" fill="#f9f9f9" fill-opacity="1" fill-rule="nonzero" stroke="none" stroke-width="1.193"/><path id="path1325" d="M21.602 9.283c-7.211 0-13.046 5.71-13.046 12.747 0 4.242 2.132 7.978 5.4 10.3a8.137 8.23 0 0 1-.51 1.532c-.817 1.82-1.632 1.82-1.632 1.82s2.447 0 4.079-.91c.348-.188.649-.507.917-.876 1.483.572 3.1.876 4.793.876 7.212 0 13.051-5.706 13.051-12.742 0-7.036-5.844-12.747-13.05-12.747m0 0" fill="#36a4c8" fill-opacity="1" fill-rule="nonzero" stroke="none" stroke-width="1.193"/></svg>