<svg xmlns="http://www.w3.org/2000/svg" xmlns:xlink="http://www.w3.org/1999/xlink" width="48" height="48" version="1.1" id="svg38"><defs id="defs22"><style id="style4511"/><style id="style4511-26"/><style id="style4511-9"/><linearGradient id="linearGradient10454-6"><stop id="stop4727" offset="0" stop-color="#f38230" stop-opacity="1"/><stop id="stop4729" offset="1" stop-color="#fec335" stop-opacity="1"/></linearGradient><style id="style4552"/><linearGradient id="e-1" y1="41.22" x1="24.392" y2="25.343" x2="20.643" gradientUnits="userSpaceOnUse"><stop stop-color="#334545" id="stop22-8"/><stop offset="1" stop-color="#536161" id="stop24-7"/></linearGradient><style id="style4511-2"/><linearGradient xlink:href="#linearGradient10454-6" id="linearGradient1474" x1="2.974" y1="23.586" x2="45.221" y2="23.586" gradientUnits="userSpaceOnUse" gradientTransform="translate(0 .431)"/><linearGradient xlink:href="#e-1" id="linearGradient1328" x1="12" y1="23" x2="36" y2="23" gradientUnits="userSpaceOnUse"/></defs><style id="style4485" type="text/css"/><path id="path1807" d="M-81.234-19.315c10.966 0 12.534 1.564 12.534 12.525v8.778c0 10.96-1.568 12.525-12.534 12.525h-11.16c-10.966 0-12.533-1.564-12.533-12.525V-6.79c0-10.96 1.567-12.525 12.533-12.525z" display="inline" opacity="1" fill="#fff" fill-opacity="1" stroke="none" stroke-width=".302" stroke-linecap="round" stroke-linejoin="round" stroke-miterlimit="4" stroke-dasharray="none" stroke-dashoffset="0" stroke-opacity="1"/><g id="g1333" fill-opacity="1"><path id="path4530" d="M19.754 3.174h8.495c13.908 0 16.805 11.247 16.805 17.282v7.123c0 5.96-2.704 17.282-17.837 17.282h-6.93c-11.562 0-17.146-7.708-17.146-17.282v-7.123c0-9.574 5.47-17.282 16.613-17.282z" opacity="1" fill="url(#linearGradient1474)" stroke="#000" stroke-width=".334" stroke-linecap="square" stroke-linejoin="bevel" stroke-miterlimit="4" stroke-dasharray="none" stroke-dashoffset="0" stroke-opacity=".078"/><path d="M20.48 6.568h7.176c11.748 0 14.195 9.42 14.195 14.475v5.966c0 4.992-2.284 14.475-15.067 14.475H20.93c-9.768 0-14.484-6.456-14.484-14.475v-5.966c0-8.02 4.62-14.475 14.033-14.475z" id="path4461" opacity="1" fill="#ececec" stroke="none" stroke-width=".29" stroke-linecap="square" stroke-linejoin="bevel" stroke-miterlimit="4" stroke-dasharray="none" stroke-dashoffset="0" stroke-opacity=".078"/><path transform="translate(.148 1.026)" id="polygon1287" fill="url(#linearGradient1328)" d="M28 14v2.692L24 13 12 24h4v9h16v-9h4l-5-4.538V14z"/></g></svg>