<svg xmlns="http://www.w3.org/2000/svg" xmlns:xlink="http://www.w3.org/1999/xlink" width="48" height="48" version="1.1" id="svg38"><defs id="defs22"><linearGradient id="linearGradient4488"><stop id="stop4490" offset="0" stop-color="#000" stop-opacity=".047"/><stop id="stop4492" offset="1" stop-color="#000" stop-opacity="0"/></linearGradient><style id="style4511"/><style id="style4511-26"/><style id="style4511-9"/><style id="style4552"/><style id="style4511-2"/><linearGradient gradientTransform="translate(-63.205 2.216) scale(.3038)" xlink:href="#linearGradient4488" id="linearGradient4160" x1="288.112" y1="141.785" x2="287.575" y2="79.008" gradientUnits="userSpaceOnUse"/></defs><style id="style4485" type="text/css"/><path d="M2.433 26.443v1.668c0 9.575 5.583 17.282 17.146 17.282h6.93c15.133 0 17.837-11.322 17.837-17.282v-1.668c0 5.96-2.704 17.282-17.837 17.282h-6.93c-11.563 0-17.146-7.708-17.146-17.282z" id="path4147" opacity="1" fill="url(#linearGradient4160)" fill-opacity="1" stroke="none" stroke-width="1.1" stroke-linecap="square" stroke-linejoin="bevel" stroke-miterlimit="4" stroke-dasharray="none" stroke-dashoffset="0" stroke-opacity=".078"/><path d="M19.046 2.965h8.495c13.908 0 16.805 11.246 16.805 17.282v7.123c0 5.96-2.704 17.282-17.837 17.282h-6.93c-11.562 0-17.146-7.708-17.146-17.282v-7.123c0-9.575 5.47-17.282 16.613-17.282z" id="rect4144" opacity="1" fill="#706cf5" fill-opacity="1" stroke="#000" stroke-width=".334" stroke-linecap="square" stroke-linejoin="bevel" stroke-miterlimit="4" stroke-dasharray="none" stroke-dashoffset="0" stroke-opacity=".078"/><g id="g11196" transform="translate(-294.826 -508.254) scale(3.77953)" fill="#fff" fill-opacity="1" fill-rule="nonzero" stroke="none" stroke-linecap="round" stroke-linejoin="round" stroke-miterlimit="4" stroke-dasharray="none" stroke-dashoffset="0" stroke-opacity="1"><path d="M84.296 137.478a2.77 2.77 0 0 0-.251.193l-.001.001-.303.313-.324.538-.197.59-.074.65c-.01.326.024.65.095.952v.004c.068.287.08.423.21.652 1.456-.255 2.422.87 2.096 2.086-.172.642-.7.95-1.208 1.066-.715.125-1.318-.261-1.463-.803-.029-.179.015-.419.117-.48-.059.021-.13.045-.216.126-.145.137-.149.185-.338.238.093-.261-.416-.474-.324-1.034l-.021.094c-.224 1.238 1.044 2.631 2.45 2.254.954-.237 1.522-.937 1.71-1.727a2.834 2.834 0 0 0-.024-1.322 2.608 2.608 0 0 0-.49-.972 3.352 3.352 0 0 0-.246-.276l-.002-.002-.007-.006a6.268 6.268 0 0 0-.573-.496l-.557-.481-.03-.034-.174-.228a1.34 1.34 0 0 1-.04-.068l-.132-.38-.047-.524.064-.442.01-.028z" id="path1795" opacity="1" stroke-width=".03"/><path d="M84.718 138.109a1.827 1.827 0 0 0-.126.244l-.112.217-.161.509a.46.46 0 0 0-.02.06l.253.415.129.134c.015.017.03.034.048.05l-.045-.291-.004-.026-.011-1.04z" id="path1793" opacity="1" stroke-width=".03"/><path d="M82.232 140.863l.017.566-.12.239-.015.422.116.212.025.05c.046-.206.133-.404.257-.576l.038-.24-.11-.42z" id="path1791" opacity="1" stroke-width=".03"/><path d="M83.91 141.594a1.466 1.466 0 0 0-1.448 1.691c.017.026.034.051.048.078.012.025.018.053.026.08.005-.003.016-.006.02-.009.032-.026.072-.072.149-.145a.562.562 0 0 1 .253-.15c.135-.027.171-.002.289.016-.096.04-.125.083-.199.177a.32.32 0 0 0-.06.127.7.7 0 0 0-.008.24c.133.479.675.835 1.34.719.14-.032.28-.082.414-.147a1.466 1.466 0 0 0-.824-2.677z" id="path1767" opacity="1" stroke-width=".028"/><path d="M84.794 136.568l-.026.288-.076.114-.032.214.045.114c.011.034.025.064.037.092l.024.061.054-.19.024-.085.07-.247-.03-.22z" id="path1797" opacity="1" stroke-width=".03"/></g></svg>