<svg xmlns="http://www.w3.org/2000/svg" xmlns:xlink="http://www.w3.org/1999/xlink" width="48" height="48" version="1.1" id="svg38"><defs id="defs22"><linearGradient id="linearGradient4488"><stop id="stop4490" offset="0" stop-color="#000" stop-opacity=".047"/><stop id="stop4492" offset="1" stop-color="#000" stop-opacity="0"/></linearGradient><style id="style4511"/><style id="style4511-26"/><style id="style4511-9"/><linearGradient gradientUnits="userSpaceOnUse" x2="19.574" y2="22.495" x1="3.783" y1="23.644" id="g-5"><stop id="stop24-2" stop-color="#2980b9"/><stop id="stop26" stop-color="#34495e" offset="1"/></linearGradient><style id="style4552"/><style id="style4511-2"/><linearGradient gradientTransform="translate(-63.205 2.216) scale(.3038)" xlink:href="#linearGradient4488" id="linearGradient4160" x1="288.112" y1="141.785" x2="287.575" y2="79.008" gradientUnits="userSpaceOnUse"/><linearGradient xlink:href="#g-5" id="linearGradient1315" x1="2.266" y1="23.808" x2="44.513" y2="23.808" gradientUnits="userSpaceOnUse"/></defs><style id="style4485" type="text/css"/><path d="M2.433 26.443v1.668c0 9.575 5.583 17.282 17.146 17.282h6.93c15.133 0 17.837-11.322 17.837-17.282v-1.668c0 5.96-2.704 17.282-17.837 17.282h-6.93c-11.563 0-17.146-7.708-17.146-17.282z" id="path4147" opacity="1" fill="url(#linearGradient4160)" fill-opacity="1" stroke="none" stroke-width="1.1" stroke-linecap="square" stroke-linejoin="bevel" stroke-miterlimit="4" stroke-dasharray="none" stroke-dashoffset="0" stroke-opacity=".078"/><path d="M19.046 2.965h8.495c13.908 0 16.805 11.246 16.805 17.282v7.123c0 5.96-2.704 17.282-17.837 17.282h-6.93c-11.562 0-17.146-7.708-17.146-17.282v-7.123c0-9.575 5.47-17.282 16.613-17.282z" id="rect4144" opacity="1" fill="url(#linearGradient1315)" fill-opacity="1" stroke="#000" stroke-width=".334" stroke-linecap="square" stroke-linejoin="bevel" stroke-miterlimit="4" stroke-dasharray="none" stroke-dashoffset="0" stroke-opacity=".078"/><g id="g1307" transform="matrix(.68517 0 0 .67765 81.926 24.674)"><path id="path1152" d="M-67.507-20.956s-10.3.2-5.8 15.6c0 0 8.5 21.9-10.8 23.6 0 0-12.3.8-14.4-7 0 0-12.6-16.2 2.8-19.7 0 0-5.6 3.4-1.1 8.7 0 0-2.9-7 4.6-8.1 0 0 9.1-1.8 4.4-9.6 0 0 6.6 3.1 6.2 11.6 0 0 1.3-2.4.6-6.4 0-.2-2.1-13.8 13.5-8.7z" fill="#f87411"/><path id="path1154" d="M-85.707 16.744c-3.1 0-10.3-.6-11.8-5.8l-.1-.2-.1-.2c-.1-.1-6.2-8.1-4.3-13.5.5-1.4 1.5-2.5 3-3.3-.2.4-.4.9-.5 1.5-.3 1.9.4 3.7 2 5.6l1.7-1s-1.1-2.7 0-4.7c.6-1.1 1.9-1.8 3.8-2.1.2 0 4.6-.9 6.1-4.2.5-1.1.6-2.2.4-3.4 1.6 1.6 3.2 4.4 2.9 8.6 0 0 0 1.7.3 2.4.9-.7 1.5-1.9 1.5-1.9.1-.1 1.5-2.8.7-7.1 0 0-.6-4.1 1.5-6.6 1.2-1.3 2.8-1.9 5-1.9.8 0 1.6.1 2.5.2-.8.5-1.7 1.2-2.5 2.2-2.2 3-2.4 7.6-.6 13.6.1.2 4.4 10.5.1 16.7-1.8 2.6-5 5.4-9.5 5.4l-.3-.3h-1.8z" fill="#ffba23"/><circle id="circle1156" r="12" cy="7.544" cx="-88.707" fill="#3c3d3c"/><circle id="circle1158" r="10" cy="7.544" cx="-88.707" fill="#040505"/><circle id="circle1160" r="8" cy="7.544" cx="-88.707" fill="#596366"/><circle id="circle1162" r="7" cy="7.544" cx="-88.707" fill="#040505"/><circle id="circle1164" r="6" cy="7.544" cx="-88.707" fill="#ea241a"/><circle id="circle1166" r="6" cy="7.544" cx="-88.707" fill="#1f44ad"/><circle id="circle1168" r="5" cy="7.544" cx="-88.707" fill="#2e1d56"/><circle id="circle1170" r="4" cy="7.544" cx="-88.707" fill="#b0800f"/><circle id="circle1172" r="3" cy="7.544" cx="-88.707" fill="#100f02"/><circle id="circle1174" r="4.1" cy="8.944" cx="-87.307" opacity=".5" fill="#e61673"/><g transform="translate(-112.407 -26.056)" id="g1180" opacity=".5" fill="#fff"><path id="path1176" d="M21.2 32.9l-2.2-1c-.2.5-.3 1.2-.3 1.8v.3h2.5v-.3c-.1-.3-.1-.5 0-.8z"/><path id="path1178" d="M23.7 28.6c-1.9 0-3.6 1.1-4.5 2.7l2.2 1.1c.4-.8 1.3-1.4 2.3-1.4h.3v-2.4h-.3z"/></g><ellipse id="ellipse1182" ry=".9" rx=".6" cy="58.431" cx="-68.001" transform="rotate(36.222)" fill="#fff" stroke-width="1"/><ellipse id="ellipse1184" ry=".5" rx=".3" cy="58.433" cx="-65.659" transform="rotate(36.222)" fill="#fff" stroke-width="1"/><ellipse id="ellipse1186" ry="1.2" rx=".8" cy="58.347" cx="-62.174" transform="rotate(36.222)" opacity=".7" fill="#fff" stroke-width="1"/></g></svg>