<svg xmlns="http://www.w3.org/2000/svg" xmlns:xlink="http://www.w3.org/1999/xlink" width="48" height="48" version="1.1" id="svg38"><defs id="defs22"><linearGradient id="linearGradient4488"><stop id="stop4490" offset="0" stop-color="#000" stop-opacity=".047"/><stop id="stop4492" offset="1" stop-color="#000" stop-opacity="0"/></linearGradient><style id="style4511"/><style id="style4511-26"/><style id="style4511-9"/><style id="style4552"/><style id="style4511-2"/><linearGradient gradientTransform="translate(-63.205 2.216) scale(.3038)" xlink:href="#linearGradient4488" id="linearGradient4160" x1="288.112" y1="141.785" x2="287.575" y2="79.008" gradientUnits="userSpaceOnUse"/></defs><style id="style4485" type="text/css"/><path d="M2.433 26.443v1.668c0 9.575 5.583 17.282 17.146 17.282h6.93c15.133 0 17.837-11.322 17.837-17.282v-1.668c0 5.96-2.704 17.282-17.837 17.282h-6.93c-11.563 0-17.146-7.708-17.146-17.282z" id="path4147" opacity="1" fill="url(#linearGradient4160)" fill-opacity="1" stroke="none" stroke-width="1.1" stroke-linecap="square" stroke-linejoin="bevel" stroke-miterlimit="4" stroke-dasharray="none" stroke-dashoffset="0" stroke-opacity=".078"/><path d="M19.046 2.965h8.495c13.908 0 16.805 11.246 16.805 17.282v7.123c0 5.96-2.704 17.282-17.837 17.282h-6.93c-11.562 0-17.146-7.708-17.146-17.282v-7.123c0-9.575 5.47-17.282 16.613-17.282z" id="rect4144" opacity="1" fill="#e6e6e6" fill-opacity="1" stroke="#000" stroke-width=".334" stroke-linecap="square" stroke-linejoin="bevel" stroke-miterlimit="4" stroke-dasharray="none" stroke-dashoffset="0" stroke-opacity=".078"/><path d="M20.1 3.814c-.934-.01-1.216 0-1.246.047-.021.033-1.527 4.531-3.346 9.994-2.93 8.8-4.433 13.264-5.316 15.777-.149.424-.272.789-.272.81 0 .023.6.035 1.334.028l1.334-.014.266-.748c1.764-4.98 4.205-11.74 4.328-11.984.246-.489.236-.486 1.817-.486 1.459 0 1.552.016 1.755.302.243.34.27.248-1.23 4.46-1.176 3.302-2.902 8.12-3.008 8.396-.03.08.05.084 1.29.084h1.321l.258-.736c.143-.406.738-2.064 1.323-3.686 2.89-8.021 2.658-7.345 2.685-7.84.034-.603-.032-.822-.353-1.168a2.955 2.955 0 0 0-.528-.435c-.68-.41-1.807-.694-3.095-.782-.946-.064-1.07-.094-1.278-.308-.134-.14-.168-.214-.185-.426-.019-.225.032-.418.39-1.512.451-1.376.815-2.568 2.106-6.884l.86-2.877-1.21-.012zm9.42 12.566l-1.06.012-.333.918c-.993 2.742-2.482 6.654-6.197 16.289-2.346 6.083-3.82 9.974-3.851 10.16-.013.073.035.09.324.113.186.016.797.03 1.36.036.932.007 1.025 0 1.056-.077a1816.226 1816.226 0 0 0 3.838-10.645c.684-1.912.713-1.965 1.101-2.073.117-.033.99-.053 2.383-.053 1.21 0 2.382-.021 2.606-.047.764-.088 1.562-.445 1.855-.83.11-.145 1.67-4.466 3.225-8.934 1.046-3.006 1.024-2.939 1.03-3.359.006-.313-.013-.423-.099-.584-.148-.279-.55-.622-.875-.75-.267-.105-.349-.11-2.789-.148-1.382-.022-2.99-.034-3.574-.028zm3.092.819c1.198.013 1.282.021 1.408.115.211.158.316.331.34.558.019.183-.141.674-1.17 3.594-.656 1.861-1.581 4.501-2.057 5.867-.475 1.367-.902 2.551-.949 2.631a.79.79 0 0 1-.275.242c-.169.088-.29.1-1.112.11-1.27.014-1.806-.026-1.97-.149-.18-.133-.328-.415-.328-.617 0-.238 4.167-11.904 4.304-12.05.058-.062.202-.158.32-.213.205-.097.28-.102 1.489-.088z" id="path12344" fill="#2482e9" fill-opacity="1" stroke="none" stroke-width=".072" stroke-linejoin="round" stroke-miterlimit="4" stroke-dasharray="none" stroke-opacity="1"/></svg>