<svg xmlns:osb="http://www.openswatchbook.org/uri/2009/osb" xmlns="http://www.w3.org/2000/svg" xmlns:xlink="http://www.w3.org/1999/xlink" width="48" height="48" version="1.1" id="svg38"><defs id="defs22"><linearGradient id="linearGradient4488"><stop id="stop4490" offset="0" stop-color="#000" stop-opacity=".047"/><stop id="stop4492" offset="1" stop-color="#000" stop-opacity="0"/></linearGradient><style id="style4511"/><style id="style4511-26"/><style id="style4511-9"/><style id="style4552"/><style id="style4511-2"/><linearGradient xlink:href="#linearGradient4488" id="linearGradient4540" gradientUnits="userSpaceOnUse" gradientTransform="matrix(.30902 0 0 .3038 -64.017 1.994)" x1="288.112" y1="141.785" x2="287.575" y2="79.008"/><linearGradient osb:paint="solid" id="linearGradient5293"><stop id="stop5295" offset="0" stop-color="#9a89c0" stop-opacity="1"/></linearGradient></defs><style id="style4485" type="text/css"/><path id="path4516" d="M2.75 26.22v1.67c0 9.573 5.68 17.281 17.44 17.281h7.05c15.392 0 18.143-11.322 18.143-17.282v-1.668c0 5.96-2.75 17.282-18.143 17.282h-7.05c-11.76 0-17.44-7.708-17.44-17.282z" opacity="1" fill="url(#linearGradient4540)" fill-opacity="1" stroke="none" stroke-width="1.109" stroke-linecap="square" stroke-linejoin="bevel" stroke-miterlimit="4" stroke-dasharray="none" stroke-dashoffset="0" stroke-opacity=".078"/><path id="path4518" d="M19.649 3.556h8.64c14.148 0 17.094 11.247 17.094 17.282v7.123c0 5.96-2.75 17.282-18.143 17.282h-7.05c-11.76 0-17.44-7.708-17.44-17.282v-7.123c0-9.574 5.564-17.282 16.899-17.282z" opacity="1" fill="#5863fa" fill-opacity="1" stroke="#000" stroke-width=".337" stroke-linecap="square" stroke-linejoin="bevel" stroke-miterlimit="4" stroke-dasharray="none" stroke-dashoffset="0" stroke-opacity=".078"/><path d="M20.15 10.618l-5.938 8.225 1.677 3.418h3.902c-.098.484-.22 1.039-.375 1.635-.46 1.784-1.296 3.841-1.91 4.557l-.024.027-.023.028c-1.478 1.835-3.884 3.723-7.283 5.712l2.2 3.96c3.638-2.129 6.465-4.255 8.475-6.738 1.608-1.884 2.328-4.317 2.86-6.379.288-1.115.481-2.102.605-2.802h9.375c-.169 4.38-.203 5.439-1.113 7.703-.536 1.335-1.214 2.173-2.578 2.827-1.364.653-3.546 1.05-6.86.831l-.27 4.275c3.738.247 6.618-.129 8.898-1.222 2.28-1.093 3.828-2.978 4.672-5.076 1.687-4.197 1.234-6.29 1.517-11.358l-.09-2.268H20.035l3.47-4.802z" id="path1798" fill="#fff" fill-rule="evenodd" stroke-width="3.759"/></svg>