<svg xmlns:osb="http://www.openswatchbook.org/uri/2009/osb" xmlns="http://www.w3.org/2000/svg" xmlns:xlink="http://www.w3.org/1999/xlink" width="48" height="48" version="1.1" id="svg38"><defs id="defs22"><linearGradient id="linearGradient4488"><stop id="stop4490" offset="0" stop-color="#000" stop-opacity=".047"/><stop id="stop4492" offset="1" stop-color="#000" stop-opacity="0"/></linearGradient><style id="style4511"/><style id="style4511-26"/><style id="style4511-9"/><style id="style4552"/><style id="style4511-2"/><linearGradient xlink:href="#linearGradient4488" id="linearGradient4540" gradientUnits="userSpaceOnUse" gradientTransform="matrix(.30902 0 0 .3038 -64.017 1.994)" x1="288.112" y1="141.785" x2="287.575" y2="79.008"/><linearGradient osb:paint="solid" id="linearGradient5293"><stop id="stop5295" offset="0" stop-color="#9a89c0" stop-opacity="1"/></linearGradient></defs><style id="style4485" type="text/css"/><path id="path4516" d="M2.75 26.22v1.67c0 9.573 5.68 17.281 17.44 17.281h7.05c15.392 0 18.143-11.322 18.143-17.282v-1.668c0 5.96-2.75 17.282-18.143 17.282h-7.05c-11.76 0-17.44-7.708-17.44-17.282z" opacity="1" fill="url(#linearGradient4540)" fill-opacity="1" stroke="none" stroke-width="1.109" stroke-linecap="square" stroke-linejoin="bevel" stroke-miterlimit="4" stroke-dasharray="none" stroke-dashoffset="0" stroke-opacity=".078"/><path id="path4518" d="M19.649 2.742h8.64c14.148 0 17.094 11.247 17.094 17.282v7.124c0 5.96-2.75 17.282-18.143 17.282h-7.05c-11.76 0-17.44-7.708-17.44-17.282v-7.124c0-9.574 5.564-17.282 16.899-17.282z" opacity="1" fill="#5863fa" fill-opacity="1" stroke="#000" stroke-width=".337" stroke-linecap="square" stroke-linejoin="bevel" stroke-miterlimit="4" stroke-dasharray="none" stroke-dashoffset="0" stroke-opacity=".078"/><path d="M31.617 11.163a32.146 32.146 0 0 1-2.404 4.817h-8.067v1.82h2.977v4.59c0 .645-.039 1.21-.115 1.784h-3.779v1.82h3.55c-.458 3.801-2.023 6.538-4.695 8.402L20.3 36.01c3.13-2.151 4.962-5.425 5.497-10.015h5.133v9.908h1.86v-9.908h4.845v-1.82h-4.846V17.8h3.877v-1.82h-5.049a42.657 42.657 0 0 0 2.52-4.172zm-16.273.265v4.552h-3.93v1.82h3.93v5.41c-1.45.574-3.167 1.146-4.846 1.72l.8 2.261c1.375-.502 2.824-1.004 4.046-1.506v6.777c0 .86-.149 1.29-.53 1.29-1.07 0-2.1-.143-3.093-.43l.265 2.259c.916.215 1.812.321 2.88.321.917 0 1.565-.215 1.947-.645.381-.43.47-1.183.47-2.258v-8.39l3.035-1.72-.344-1.937v-.002c-.993.43-1.7.897-2.692 1.4V17.8h2.921v-1.82h-2.92v-4.552zm9.695.057l-2.29.645a11.1 11.1 0 0 1 1.946 3.443l2.404-.752a10.283 10.283 0 0 0-2.06-3.336zm.987 6.316h4.904v6.373h-5.02c.076-.502.116-.958.116-1.46z" id="path1274" fill="#fff" stroke-width=".939"/></svg>