<svg xmlns:osb="http://www.openswatchbook.org/uri/2009/osb" xmlns="http://www.w3.org/2000/svg" xmlns:xlink="http://www.w3.org/1999/xlink" width="48" height="48" version="1.1" id="svg38"><defs id="defs22"><linearGradient id="linearGradient4488"><stop id="stop4490" offset="0" stop-color="#000" stop-opacity=".047"/><stop id="stop4492" offset="1" stop-color="#000" stop-opacity="0"/></linearGradient><style id="style4511"/><style id="style4511-26"/><style id="style4511-9"/><style id="style4552"/><style id="style4511-2"/><linearGradient xlink:href="#linearGradient4488" id="linearGradient4540" gradientUnits="userSpaceOnUse" gradientTransform="matrix(.30902 0 0 .3038 -64.017 1.994)" x1="288.112" y1="141.785" x2="287.575" y2="79.008"/><linearGradient osb:paint="solid" id="linearGradient5293"><stop id="stop5295" offset="0" stop-color="#9a89c0" stop-opacity="1"/></linearGradient></defs><style id="style4485" type="text/css"/><path id="path4516" d="M2.75 26.22v1.67c0 9.573 5.68 17.281 17.44 17.281h7.05c15.392 0 18.143-11.322 18.143-17.282v-1.668c0 5.96-2.75 17.282-18.143 17.282h-7.05c-11.76 0-17.44-7.708-17.44-17.282z" opacity="1" fill="url(#linearGradient4540)" fill-opacity="1" stroke="none" stroke-width="1.109" stroke-linecap="square" stroke-linejoin="bevel" stroke-miterlimit="4" stroke-dasharray="none" stroke-dashoffset="0" stroke-opacity=".078"/><path id="path4518" d="M19.649 2.742h8.64c14.148 0 17.094 11.247 17.094 17.282v7.124c0 5.96-2.75 17.282-18.143 17.282h-7.05c-11.76 0-17.44-7.708-17.44-17.282v-7.124c0-9.574 5.564-17.282 16.899-17.282z" opacity="1" fill="#5863fa" fill-opacity="1" stroke="#000" stroke-width=".337" stroke-linecap="square" stroke-linejoin="bevel" stroke-miterlimit="4" stroke-dasharray="none" stroke-dashoffset="0" stroke-opacity=".078"/><path id="path3659" d="M25.908 11.086c-.688 0-1.284.254-1.777.743a2.39 2.39 0 0 0-.731 1.766c0 .69.239 1.277.731 1.766.493.48 1.09.725 1.777.725.689 0 1.276-.245 1.76-.725a2.39 2.39 0 0 0 .732-1.766c0-.689-.24-1.276-.732-1.766a2.394 2.394 0 0 0-1.76-.743zm-2.145 7c-.652 0-1.335.149-2.065.425-.73.265-1.508.589-2.308.969l-.324 1.559c.237-.104.525-.216.85-.331.336-.115.656-.189.972-.189.642 0 1.069.148 1.296.402.227.253.344.701.344 1.346 0 .357-.043.744-.121 1.181-.07.426-.155.887-.264 1.37L20.93 29.85a16.55 16.55 0 0 0-.223 1.44c-.05.415-.08.826-.08 1.23 0 1.036.32 1.894.97 2.574.662.668 1.59.992 2.774.992.77 0 1.442-.112 2.024-.354.583-.23 1.371-.567 2.349-1.016l.323-1.56a5.337 5.337 0 0 1-.81.332 3.475 3.475 0 0 1-1.011.165c-.632 0-1.08-.113-1.336-.354-.257-.242-.385-.702-.385-1.37 0-.265.042-.663.121-1.182.08-.518.165-.967.264-1.37l1.214-5.031c.119-.46.204-.96.243-1.512.05-.553.06-.939.06-1.157 0-1.06-.309-1.919-.95-2.575-.632-.668-1.539-1.016-2.713-1.016z" fill="#fff" fill-rule="evenodd" stroke="none" stroke-width="1"/></svg>