<svg xmlns="http://www.w3.org/2000/svg" xmlns:xlink="http://www.w3.org/1999/xlink" width="48" height="48" version="1.1" id="svg38"><defs id="defs22"><linearGradient id="linearGradient4488"><stop id="stop4490" offset="0" stop-color="#000" stop-opacity=".047"/><stop id="stop4492" offset="1" stop-color="#000" stop-opacity="0"/></linearGradient><style id="style4511"/><style id="style4511-26"/><style id="style4511-9"/><style id="style4552"/><style id="style4511-2"/><linearGradient gradientTransform="translate(-63.205 2.216) scale(.3038)" xlink:href="#linearGradient4488" id="linearGradient4160" x1="288.112" y1="141.785" x2="287.575" y2="79.008" gradientUnits="userSpaceOnUse"/></defs><style id="style4485" type="text/css"/><g id="g1303"><g transform="matrix(1.0109 0 0 .99414 .485 .266)" id="g1296"><path d="M2.433 26.443v1.668c0 9.575 5.583 17.282 17.146 17.282h6.93c15.133 0 17.837-11.322 17.837-17.282v-1.668c0 5.96-2.704 17.282-17.837 17.282h-6.93c-11.563 0-17.146-7.708-17.146-17.282z" id="path4147" opacity="1" fill="url(#linearGradient4160)" fill-opacity="1" stroke="none" stroke-width="1.1" stroke-linecap="square" stroke-linejoin="bevel" stroke-miterlimit="4" stroke-dasharray="none" stroke-dashoffset="0" stroke-opacity=".078"/><path d="M19.046 2.965h8.495c13.908 0 16.805 11.246 16.805 17.282v7.123c0 5.96-2.704 17.282-17.837 17.282h-6.93c-11.562 0-17.146-7.708-17.146-17.282v-7.123c0-9.575 5.47-17.282 16.613-17.282z" id="rect4144" opacity="1" fill="#256a99" fill-opacity="1" stroke="#000" stroke-width=".334" stroke-linecap="square" stroke-linejoin="bevel" stroke-miterlimit="4" stroke-dasharray="none" stroke-dashoffset="0" stroke-opacity=".078"/><path d="M30.549 16.53c-1.788.106-3.664.684-5.488 1.789-2.574-1.105-11.646-2.084-12.456 7.236-1.843-.31-6.62 1.322-6.912 5.395L2.93 32.521c.544 1.882 1.522 4.548 2.433 5.676 1.178 1.46 3.05 3.212 4.58 4.174 1.732 1.088 3.356 1.516 5.462 2.02 2.232.324 4.706.391 7.062.391 1.226 0 2.162-.053 3.371-.05 1.199.003 2.78-.1 3.698-.19.72-.071 2.763-.489 3.362-.656.622-.174 2.223-.798 2.93-1.14.762-.368 2.026-1.105 2.85-1.841.824-.737 1.586-1.506 2.24-2.369.623-.823 1.294-1.999 1.716-2.908.394-.848.714-1.942 1.134-2.944-1.686-.543-2.982-2.913-3.245-2.966 1.724-8.058-3.582-13.576-9.968-13.192z" id="path1228" fill="#fff" fill-opacity=".902" fill-rule="nonzero" stroke="none" stroke-width=".901"/><path d="M18.976 2.873h8.495c13.906 0 16.803 11.333 16.803 17.415v7.177c0 6.005-2.704 17.415-17.836 17.415H19.51c-11.562 0-17.145-7.767-17.145-17.415v-7.177c0-9.648 5.47-17.415 16.612-17.415z" id="rect4144-3" opacity="1" fill="#ccc" fill-opacity=".233" stroke="#000" stroke-width=".335" stroke-linecap="square" stroke-linejoin="bevel" stroke-miterlimit="4" stroke-dasharray="none" stroke-dashoffset="0" stroke-opacity=".078"/></g></g></svg>