<svg xmlns:osb="http://www.openswatchbook.org/uri/2009/osb" xmlns="http://www.w3.org/2000/svg" xmlns:xlink="http://www.w3.org/1999/xlink" width="48" height="48" version="1.1" id="svg38"><defs id="defs22"><linearGradient id="linearGradient4488"><stop id="stop4490" offset="0" stop-color="#000" stop-opacity=".047"/><stop id="stop4492" offset="1" stop-color="#000" stop-opacity="0"/></linearGradient><style id="style4511"/><style id="style4511-26"/><style id="style4511-9"/><style id="style4552"/><linearGradient id="e-1" y1="41.22" x1="24.392" y2="25.343" x2="20.643" gradientUnits="userSpaceOnUse"><stop stop-color="#334545" id="stop22-8"/><stop offset="1" stop-color="#536161" id="stop24-7"/></linearGradient><style id="style4511-2"/><linearGradient xlink:href="#linearGradient4488" id="linearGradient4540" gradientUnits="userSpaceOnUse" gradientTransform="matrix(.30902 0 0 .3038 -64.017 1.994)" x1="288.112" y1="141.785" x2="287.575" y2="79.008"/><linearGradient osb:paint="solid" id="linearGradient5293"><stop id="stop5295" offset="0" stop-color="#9a89c0" stop-opacity="1"/></linearGradient><linearGradient xlink:href="#e-1" id="linearGradient1335" x1="2.581" y1="23.586" x2="45.552" y2="23.586" gradientUnits="userSpaceOnUse"/></defs><style id="style4485" type="text/css"/><path id="path4516" d="M2.75 26.22v1.67c0 9.573 5.68 17.281 17.44 17.281h7.05c15.392 0 18.143-11.322 18.143-17.282v-1.668c0 5.96-2.75 17.282-18.143 17.282h-7.05c-11.76 0-17.44-7.708-17.44-17.282z" opacity="1" fill="url(#linearGradient4540)" fill-opacity="1" stroke="none" stroke-width="1.109" stroke-linecap="square" stroke-linejoin="bevel" stroke-miterlimit="4" stroke-dasharray="none" stroke-dashoffset="0" stroke-opacity=".078"/><path id="path4518" d="M19.649 2.742h8.64c14.148 0 17.094 11.247 17.094 17.282v7.124c0 5.96-2.75 17.282-18.143 17.282h-7.05c-11.76 0-17.44-7.708-17.44-17.282v-7.124c0-9.574 5.564-17.282 16.899-17.282z" opacity="1" fill="url(#linearGradient1335)" fill-opacity="1" stroke="#000" stroke-width=".337" stroke-linecap="square" stroke-linejoin="bevel" stroke-miterlimit="4" stroke-dasharray="none" stroke-dashoffset="0" stroke-opacity=".078"/><g id="g1319" transform="matrix(.88046 0 0 .88208 54.01 6.247)" stroke-width=".885"><path id="path1270" d="M-39.157 37.108c-.7-.082-1.21-.232-1.764-.519-1.195-.618-2.005-1.7-2.298-3.068-.099-.461-.099-1.52 0-1.996.262-1.264.814-2.203 2.694-4.583 1.14-1.444 3.2-3.916 3.264-3.916.02 0 .17.094.337.208a4.994 4.994 0 0 0 2.038.8c.077.012.148.036.159.053.01.017.078.808.15 1.757.264 3.43.366 5.482.315 6.34a6.45 6.45 0 0 1-.61 2.365c-.485.989-1.295 1.79-2.23 2.205-.638.285-1.454.425-2.056.355zm9.392-1.894c-1.577-.291-2.746-1.636-3.286-3.78-.252-.996-1.043-5.847-1.15-7.053l-.026-.284.165-.019c.918-.106 1.28-.2 1.864-.48.211-.103.508-.273.66-.379.151-.106.284-.193.295-.193.023 0 1.535 1.67 2.307 2.548 1.198 1.362 2.162 2.53 2.493 3.023.959 1.427 1.3 3.041.904 4.29a2.993 2.993 0 0 1-.985 1.448c-.884.72-2.19 1.074-3.241.88zm7.55-6.127c-1.21-.122-2.387-.635-3.418-1.491-.594-.493-2.33-2.066-3.155-2.856-.694-.666-2.048-2.034-2.048-2.07 0-.018.082-.129.182-.247.516-.606.839-1.253 1.057-2.123l.04-.159 1.887.017c5.378.048 5.859.075 6.92.383 1.295.376 2.335 1.164 2.893 2.193.642 1.181.627 2.638-.04 3.988a3.531 3.531 0 0 1-.71 1.014 4.174 4.174 0 0 1-2.258 1.256c-.37.075-1.06.124-1.35.095zm-7.28-9.93a6.38 6.38 0 0 0-.08-.807 5.119 5.119 0 0 0-.704-1.724c-.082-.122-.14-.246-.13-.274.042-.11 2.959-2.527 4.175-3.46.834-.639 1.318-.957 1.916-1.257 1.841-.927 3.546-.873 4.813.153.582.472 1.073 1.261 1.279 2.056.136.524.145 1.35.02 1.856-.385 1.563-1.57 2.637-3.378 3.064-.623.147-2.9.459-4.744.649-.867.09-2.892.268-3.04.268h-.105l-.021-.523zm-17.25.218c-1.359-.14-2.475-.621-3.23-1.391-1.233-1.261-1.445-3.22-.54-5.003.613-1.208 1.592-1.975 2.887-2.26.476-.105 1.497-.096 2.015.017a6.85 6.85 0 0 1 2.222.943c.817.538 3.454 2.624 4.846 3.835l.688.598-.065.1a9.72 9.72 0 0 1-.22.315c-.364.499-.682 1.301-.796 2.005l-.062.38-.172.023c-.652.086-3.438.325-4.662.401-.909.057-2.522.077-2.912.037zm15.776-3.578c-.58-.613-1.643-1.133-2.608-1.276a4.596 4.596 0 0 1-.409-.07 22.406 22.406 0 0 1-.083-1.013c-.227-3.222-.297-5.141-.231-6.37.064-1.212.172-1.76.479-2.435.313-.69 1.008-1.515 1.633-1.939a5.366 5.366 0 0 1 4.575-.71c2.426.733 3.868 3.421 3.22 6.004-.306 1.225-1.095 2.434-2.95 4.525-.697.786-3.332 3.44-3.415 3.44-.034 0-.13-.07-.211-.156zm-8.261-1.754c-3.033-3.065-3.922-4.191-4.36-5.517-.201-.607-.256-1.007-.232-1.698.023-.692.095-1.014.347-1.553.478-1.026 1.29-1.716 2.477-2.11.836-.276 1.642-.31 2.442-.1.435.113 1.07.443 1.446.75.683.56 1.237 1.45 1.462 2.35.16.644.396 2.215.696 4.656.284 2.304.427 3.591.4 3.62-.013.015-.15.046-.305.067a4.777 4.777 0 0 0-2.349 1.014c-.138.112-.276.204-.306.204-.03 0-.803-.758-1.718-1.683z" fill="#37b648"/><path id="path1274" d="M-29.384 1.762a5.406 5.406 0 0 0-2.803.932c-.625.423-1.322 1.248-1.635 1.938-.307.676-.413 1.223-.478 2.435-.022.41-.023.934-.014 1.518.004-.216.005-.45.014-.634.065-1.211.171-1.759.478-2.435.313-.69 1.01-1.514 1.635-1.938a5.364 5.364 0 0 1 4.574-.71c1.893.573 3.181 2.338 3.35 4.313.201-2.314-1.177-4.54-3.35-5.197a5.334 5.334 0 0 0-1.771-.222zm-10.38 1.17a4.516 4.516 0 0 0-1.235.234c-1.188.393-1.997 1.083-2.476 2.108-.25.54-.324.863-.347 1.555-.009.26.007.458.024.663.034-.524.105-.865.323-1.333.48-1.026 1.288-1.716 2.476-2.11.837-.276 1.644-.31 2.443-.101.436.114 1.071.444 1.446.751.684.56 1.236 1.45 1.461 2.35.161.643.397 2.214.699 4.655.215 1.755.264 2.29.304 2.758.025-.007.091-.016.095-.02.026-.03-.116-1.318-.4-3.622-.3-2.442-.537-4.012-.698-4.655-.225-.9-.777-1.79-1.46-2.35-.376-.308-1.011-.638-1.447-.751a4.088 4.088 0 0 0-1.208-.132zm-6.872 7.715c-.38-.003-.753.022-.992.075-1.294.284-2.274 1.05-2.888 2.258-.456.9-.627 1.844-.528 2.72.054-.61.222-1.232.528-1.836.614-1.208 1.594-1.973 2.888-2.258.477-.105 1.498-.098 2.015.015a6.844 6.844 0 0 1 2.222.943c.817.537 3.453 2.625 4.846 3.836l.313.273c.03-.047.058-.103.089-.145.085-.118.185-.26.221-.314l.002-.004c-.234-.219-.56-.532-1.151-1.128-1.45-1.226-3.584-2.919-4.32-3.402a6.844 6.844 0 0 0-2.222-.943 5.446 5.446 0 0 0-1.023-.09zm24.94.332c-.816-.026-1.702.191-2.622.654-.598.301-1.083.62-1.917 1.26-.73.558-1.89 1.512-2.855 2.32-.636.644-.986.98-1.271 1.242.022.054.03.094.081.169.069.103.133.216.196.332.508-.476 2.753-2.34 3.85-3.18.833-.64 1.318-.958 1.916-1.258 1.841-.927 3.546-.873 4.812.153.583.472 1.074 1.262 1.28 2.057.042.163.068.358.085.562.047-.475.018-1.047-.085-1.446-.206-.795-.697-1.585-1.28-2.057a3.594 3.594 0 0 0-2.19-.808zm-7.861 9.162l-.04.159c-.219.87-.54 1.516-1.057 2.122-.1.118-.181.23-.181.249 0 .007.297.296.375.38.401-.535.674-1.117.863-1.867l.04-.16 1.886.019c5.38.047 5.86.075 6.92.382 1.296.376 2.335 1.163 2.894 2.193.24.44.389.924.445 1.422a3.99 3.99 0 0 0-.445-2.307c-.56-1.029-1.598-1.816-2.893-2.192-.873-.253-1.51-.316-4.643-.357-.32.036-.63.08-.936.112-.867.09-2.891.268-3.04.268h-.104l-.017-.423zm-7.703 2.886c-.064 0-2.124 2.47-3.264 3.914-1.88 2.382-2.432 3.319-2.694 4.583-.07.333-.086.946-.059 1.445.012-.216.03-.418.059-.561.262-1.264.814-2.201 2.694-4.582 1.14-1.444 3.2-3.915 3.264-3.915.019 0 .17.093.335.207a5.01 5.01 0 0 0 2.04.8c.076.013.147.037.158.053.01.017.079.807.152 1.756.188 2.45.289 4.169.315 5.28.034-.93-.065-2.907-.315-6.164-.073-.95-.142-1.74-.152-1.756-.01-.017-.082-.04-.158-.054a4.993 4.993 0 0 1-2.04-.8 2.292 2.292 0 0 0-.335-.206zm6.018 0c-.01 0-.145.086-.296.19a5.688 5.688 0 0 1-.66.38c-.583.281-.946.375-1.864.481l-.165.02.026.283c.01.12.053.402.076.589l.063-.008c.918-.106 1.28-.2 1.864-.481.212-.102.508-.273.66-.379.151-.105.285-.19.296-.19.022 0 1.534 1.669 2.306 2.547 1.198 1.36 2.162 2.53 2.493 3.022.59.877.942 1.824 1.037 2.715.116-1.123-.246-2.423-1.037-3.6-.33-.492-1.295-1.66-2.493-3.022-.353-.401-.605-.668-1.055-1.166-.319-.325-.844-.838-.844-.853 0-.003.026-.035.03-.043-.096-.104-.433-.485-.437-.485z" opacity=".2" fill="#fff"/><path id="path1276" d="M-45.242 28.381c-1.477-.17-2.904-1.514-3.33-3.134-.112-.431-.138-1.157-.054-1.577.139-.695.468-1.285 1.013-1.815.867-.842 1.937-1.28 4.286-1.752 1.415-.285 4.21-.705 4.287-.645.023.018.053.162.067.32.078.867.483 1.842 1.048 2.521.128.154.249.303.268.33.025.034-.009.103-.112.232-.221.274-2.744 2.828-3.286 3.326a48.04 48.04 0 0 1-1.67 1.464 4.283 4.283 0 0 1-1.092.581c-.292.098-.888.203-1.069.188-.031-.003-.191-.02-.356-.04z" fill="#f15b43"/><path id="path1278" d="M-39.04 19.459c-.077-.061-2.873.359-4.287.644-2.35.473-3.419.91-4.285 1.752-.545.53-.875 1.119-1.013 1.814-.057.285-.047.69-.01 1.069.006-.057 0-.135.01-.185.138-.695.468-1.283 1.013-1.814.866-.841 1.935-1.279 4.285-1.752 1.414-.285 4.21-.705 4.287-.644.023.018.053.161.067.32.074.83.454 1.754.982 2.428.04-.043.206-.21.222-.23.103-.129.137-.2.112-.233-.02-.027-.14-.174-.268-.329-.565-.679-.97-1.653-1.048-2.52-.014-.16-.044-.302-.067-.32z" opacity=".2" fill="#fff"/><path id="path1280" d="M-37.99 23.09c-.495.54-2.563 2.635-3.065 3.097a48.112 48.112 0 0 1-1.671 1.465 4.277 4.277 0 0 1-1.091.58c-.291.098-.887.203-1.068.188-.031-.002-.192-.02-.357-.04-1.477-.17-2.904-1.512-3.33-3.132-.036-.14-.046-.33-.063-.51-.052.427-.036 1.013.064 1.394.425 1.62 1.851 2.962 3.33 3.133l.356.04c.181.014.777-.09 1.068-.189a4.278 4.278 0 0 0 1.09-.58 48.243 48.243 0 0 0 1.672-1.465c.541-.498 3.065-3.052 3.286-3.326.103-.129.137-.199.112-.233a15.25 15.25 0 0 0-.268-.328c-.024-.029-.043-.064-.066-.093z" opacity=".2"/><ellipse ry="5.305" rx="5.319" id="circle1282" cy="20.325" cx="-34.229" opacity=".2"/><ellipse ry="5.305" rx="5.319" id="circle1284" cy="19.441" cx="-34.229" fill="#ffca2b"/></g></svg>