<svg xmlns:osb="http://www.openswatchbook.org/uri/2009/osb" xmlns="http://www.w3.org/2000/svg" xmlns:xlink="http://www.w3.org/1999/xlink" width="48" height="48" version="1.1" id="svg38"><defs id="defs22"><linearGradient id="linearGradient4488"><stop id="stop4490" offset="0" stop-color="#000" stop-opacity=".047"/><stop id="stop4492" offset="1" stop-color="#000" stop-opacity="0"/></linearGradient><style id="style4511"/><style id="style4511-26"/><style id="style4511-9"/><style id="style4552"/><style id="style4511-2"/><linearGradient xlink:href="#linearGradient4488" id="linearGradient4540" gradientUnits="userSpaceOnUse" gradientTransform="matrix(.30902 0 0 .3038 -64.017 1.994)" x1="288.112" y1="141.785" x2="287.575" y2="79.008"/><linearGradient osb:paint="solid" id="linearGradient5293"><stop id="stop5295" offset="0" stop-color="#9a89c0" stop-opacity="1"/></linearGradient><linearGradient xlink:href="#linearGradient3764-36753" id="linearGradient1535" x1="2.583" y1="23.586" x2="44.83" y2="23.586" gradientUnits="userSpaceOnUse" gradientTransform="matrix(1.0172 0 0 1 -.047 0)"/><linearGradient gradientTransform="rotate(-90 24 24)" gradientUnits="userSpaceOnUse" x2="47" x1="1" id="linearGradient3764-36753"><stop id="stop469" stop-opacity="1" stop-color="#ca251c"/><stop id="stop471" stop-opacity="1" stop-color="#db281f" offset="1"/></linearGradient><clipPath id="clipPath-388705384"/></defs><style id="style4485" type="text/css"/><path id="path4518" d="M19.649 2.742h8.64c14.148 0 17.094 11.247 17.094 17.282v7.124c0 5.96-2.75 17.282-18.143 17.282h-7.05c-11.76 0-17.44-7.708-17.44-17.282v-7.124c0-9.574 5.564-17.282 16.899-17.282z" opacity="1" fill="url(#linearGradient1535)" fill-opacity="1" stroke="#000" stroke-width=".337" stroke-linecap="square" stroke-linejoin="bevel" stroke-miterlimit="4" stroke-dasharray="none" stroke-dashoffset="0" stroke-opacity=".078"/><path id="path4516" d="M2.75 26.22v1.67c0 9.573 5.68 17.281 17.44 17.281h7.05c15.392 0 18.143-11.322 18.143-17.282v-1.668c0 5.96-2.75 17.282-18.143 17.282h-7.05c-11.76 0-17.44-7.708-17.44-17.282z" opacity="1" fill="url(#linearGradient4540)" fill-opacity="1" stroke="none" stroke-width="1.109" stroke-linecap="square" stroke-linejoin="bevel" stroke-miterlimit="4" stroke-dasharray="none" stroke-dashoffset="0" stroke-opacity=".078"/><path id="path520" d="M22.915 23.461c0-.364-.068-.76-.291-1.063-.44-.612-1.385-.801-2.044-.421-.33.195-.52.535-.62.883-.207.692-.114 1.481.033 2.173.046.227.093.45.157.664.024.077.033.198.088.26.093.116.321.145.46.124.419-.068.317-.728.3-1.012-.034-.651-.237-1.29-.038-1.946.08-.276.246-.587.536-.709a.474.474 0 0 1 .63.272c.168.4.13.857.236 1.274.034.138.071.28.14.412.017.036.046.113.101.113.135-.012.33-.231.43-.312.326-.259.663-.539 1.043-.732.177-.09.47-.235.65-.081a.594.57 0 0 1 .119.134c.215.324 0 .575-.135.874-.182.397-.368.785-.625 1.137-.224.304-.532.571-.71.903-.113.214-.18.445-.13.688.038.194.195.311.401.267.157-.036.262-.162.35-.283.157-.206.304-.425.46-.635.3-.405.659-.79.917-1.227a3.721 3.567 0 0 0 .452-1.723c0-.49-.186-1.242-.786-1.344a1.058 1.014 0 0 0-.35.008 1.542 1.478 0 0 0-.405.13 2.817 2.7 0 0 0-.882.656c-.157.165-.295.376-.486.513" fill="#fc0" fill-opacity="1" fill-rule="nonzero" stroke="none" stroke-width="1.058"/><path id="path522" d="M22.353 11.314c-.469.061-.945.057-1.419.125-.908.134-1.773.405-2.622.729-.308.12-.616.25-.916.392-.11.053-.28.093-.368.174-.046.045-.042.146-.05.202-.014.166-.034.324-.052.49-.07.624-.113 1.274-.024 1.898.033.202.11.567.358.607.401.061.71-.409.904-.671.47-.603.98-1.17 1.735-1.441.882-.324 1.896-.397 2.828-.457 2.627-.174 5.489.287 7.422 2.137.275.263.528.546.752.85.87 1.201 1.326 2.566 1.545 3.997.106.676.173 1.356.018 2.028-.28 1.161-1.006 2.173-1.845 3.035a14.59 13.984 0 0 1-1.892 1.607c-.372.271-.793.501-1.145.798a4.618 4.427 0 0 0-1.009 1.222c-.689 1.234-.874 2.699-.671 4.059.042.283.08.562.152.845.022.08.022.223.071.291.11.126.389.195.55.198.168.013.283-.109.325-.259.068-.238.022-.514-.022-.756-.08-.506-.156-1.015-.135-1.53a4.053 3.885 0 0 1 1.11-2.513c.693-.697 1.634-1.098 2.423-1.68 1.597-1.178 3.024-2.768 3.573-4.653a5.674 5.439 0 0 0 .168-2.093c-.113-.882-.447-1.76-.764-2.59-.963-2.525-2.618-4.925-5.244-6.078-1.043-.456-2.133-.668-3.264-.821a21.091 21.091 0 0 0-1.592-.134c-.295-.012-.62-.044-.913-.008" fill="#fc0" fill-opacity="1" fill-rule="nonzero" stroke="none" stroke-width="1.058"/><path id="path524" d="M18.245 27.662c-.511.073-.658.465-.565.91.122.568.591 1 1.047 1.34a6.532 6.26 0 0 0 4.201 1.283c.583-.02 1.216-.117 1.748-.352.288-.126.587-.584.195-.777a.546.523 0 0 0-.182-.053c-.169-.028-.359.044-.519.089-.287.077-.57.157-.866.202a3.51 3.364 0 0 1-2.542-.554c-.582-.401-1.059-.93-1.503-1.465-.275-.327-.523-.688-1.014-.624" fill="#fc0" fill-opacity="1" fill-rule="nonzero" stroke="none" stroke-width="1.058"/><path id="path526" d="M17.583 30.44c-.131.016-.284.008-.393.089-.232.165.025.494.148.639.355.433.82.793 1.288 1.108a8.462 8.11 0 0 0 4.355 1.493c.452.032.917 0 1.369-.072.164-.024.367-.037.523-.106.43-.19.304-.972-.08-1.145-.164-.076-.435.024-.612.045a7.27 6.968 0 0 1-1.254.053c-1.098-.024-2.263-.348-3.22-.858a6.064 5.812 0 0 1-1.044-.72c-.194-.166-.396-.437-.65-.518-.118-.04-.308-.02-.43-.008" fill="#fc0" fill-opacity="1" fill-rule="nonzero" stroke="none" stroke-width="1.058"/><path id="path528" d="M17.84 32.777a.692.663 0 0 0-.442.242c-.085.093-.165.174-.215.291-.266.627.443 1.223.937 1.522.54.332 1.14.58 1.743.785 1.368.465 2.977.765 4.395.348a2.735 2.621 0 0 0 1.144-.655c.173-.174.295-.438-.021-.546-.19-.066-.418.101-.587.165a4.866 4.664 0 0 1-1.254.325c-.57.065-1.08-.053-1.63-.187a12.469 11.95 0 0 1-1.397-.384 4.953 4.748 0 0 1-1.11-.53c-.102-.073-.22-.13-.304-.223-.275-.291-.477-.631-.764-.91-.127-.122-.304-.264-.498-.243" fill="#fc0" fill-opacity="1" fill-rule="nonzero" stroke="none" stroke-width="1.058"/></svg>