<svg xmlns="http://www.w3.org/2000/svg" xmlns:xlink="http://www.w3.org/1999/xlink" width="48" height="48" version="1.1" id="svg38"><defs id="defs22"><linearGradient id="linearGradient4488"><stop id="stop4490" offset="0" stop-color="#000" stop-opacity=".047"/><stop id="stop4492" offset="1" stop-color="#000" stop-opacity="0"/></linearGradient><style id="style4511"/><style id="style4511-26"/><style id="style4511-9"/><style id="style4552"/><style id="style4511-2"/><linearGradient xlink:href="#linearGradient4488" id="linearGradient4546" gradientUnits="userSpaceOnUse" gradientTransform="translate(-62.497 1.994) scale(.3038)" x1="288.112" y1="141.785" x2="287.575" y2="79.008"/></defs><style id="style4485" type="text/css"/><path d="M3.141 26.22v1.67c0 9.573 5.583 17.281 17.146 17.281h6.93c15.133 0 17.837-11.322 17.837-17.282v-1.668c0 5.96-2.704 17.282-17.837 17.282h-6.93c-11.563 0-17.146-7.708-17.146-17.282z" id="path4528" opacity="1" fill="url(#linearGradient4546)" fill-opacity="1" stroke="none" stroke-width="1.1" stroke-linecap="square" stroke-linejoin="bevel" stroke-miterlimit="4" stroke-dasharray="none" stroke-dashoffset="0" stroke-opacity=".078"/><path d="M19.754 2.742h8.495c13.908 0 16.805 11.247 16.805 17.282v7.124c0 5.96-2.704 17.282-17.837 17.282h-6.93c-11.562 0-17.146-7.708-17.146-17.282v-7.124c0-9.574 5.47-17.282 16.613-17.282z" id="path4530" opacity="1" fill="#0b9574" fill-opacity="1" stroke="#000" stroke-width=".334" stroke-linecap="square" stroke-linejoin="bevel" stroke-miterlimit="4" stroke-dasharray="none" stroke-dashoffset="0" stroke-opacity=".078"/><g id="g13236" transform="translate(1.382 -1.215)" color="#000" clip-rule="nonzero" visibility="visible" color-interpolation="sRGB" color-interpolation-filters="linearRGB" fill="#fff" fill-opacity="1" fill-rule="nonzero" stroke="none" stroke-width=".633" stroke-linecap="butt" stroke-linejoin="miter" stroke-miterlimit="4" stroke-dasharray="none" stroke-dashoffset="0" stroke-opacity="1" color-rendering="auto" image-rendering="auto" shape-rendering="auto" text-rendering="auto"><path id="path12366-5" d="M22.674 10.489a2.369 2.369 0 0 0-2.37 2.369 2.369 2.369 0 0 0 2.37 2.369 2.369 2.369 0 0 0 2.369-2.37 2.369 2.369 0 0 0-2.37-2.368zm-.059 1.58a.79.79 0 0 1 .002 0 .79.79 0 0 1 .057 0 .79.79 0 0 1 .789.789.79.79 0 0 1-.79.79.79.79 0 0 1-.79-.79.79.79 0 0 1 .732-.79zm3.49 1.002a3.364 3.364 0 0 1-.502 1.712l4.948 2.86a3.35 3.35 0 0 1 .931-1.465l-5.377-3.107zm-6.72.052l-5.405 3.121a3.35 3.35 0 0 1 .864 1.426l5.029-2.906a3.364 3.364 0 0 1-.488-1.64zm-6.774 8.721a3.35 3.35 0 0 1-.973.145 3.35 3.35 0 0 1-.591-.053v6.058a3.35 3.35 0 0 1 .591-.054 3.35 3.35 0 0 1 .973.144v-6.24zm20.219.016v6.209a3.35 3.35 0 0 1 .92-.13 3.35 3.35 0 0 1 .783.098v-6.144a3.35 3.35 0 0 1-.783.096 3.35 3.35 0 0 1-.92-.13zm-21.17 6.986a2.369 2.369 0 0 0-2.37 2.37 2.369 2.369 0 0 0 2.37 2.368 2.369 2.369 0 0 0 2.37-2.369 2.369 2.369 0 0 0-2.37-2.369zm22.111 0a2.369 2.369 0 0 0-2.369 2.37 2.369 2.369 0 0 0 2.37 2.368 2.369 2.369 0 0 0 2.368-2.369 2.369 2.369 0 0 0-2.369-2.369zm-22.166 1.578a.79.79 0 0 1 .055 0 .79.79 0 0 1 .789.791.79.79 0 0 1-.789.79.79.79 0 0 1-.79-.79.79.79 0 0 1 .735-.79zm22.11 0a.79.79 0 0 1 .056 0 .79.79 0 0 1 .79.791.79.79 0 0 1-.79.79.79.79 0 0 1-.79-.79.79.79 0 0 1 .734-.79zm-18.793 1.543a3.35 3.35 0 0 1-.65 1.39l5.132 2.966a3.35 3.35 0 0 1 .514-1.47l-4.996-2.886zm15.554.027l-4.921 2.844a3.35 3.35 0 0 1 .523 1.543l5.102-2.945a3.35 3.35 0 0 1-.704-1.442z" style="isolation:auto;mix-blend-mode:normal;solid-color:#000;solid-opacity:1;marker:none" display="inline" overflow="visible" opacity=".5"/><path id="path12374-6" d="M11.66 16.196a2.369 2.369 0 0 0-2.37 2.367 2.369 2.369 0 0 0 2.37 2.369 2.369 2.369 0 0 0 2.37-2.37 2.369 2.369 0 0 0-2.37-2.366zm22.111 0a2.369 2.369 0 0 0-2.369 2.367 2.369 2.369 0 0 0 2.37 2.369 2.369 2.369 0 0 0 2.368-2.37 2.369 2.369 0 0 0-2.369-2.366zm-22.168 1.578a.79.79 0 0 1 .002 0 .79.79 0 0 1 .055 0 .79.79 0 0 1 .79.789.79.79 0 0 1-.79.79.79.79 0 0 1-.789-.79.79.79 0 0 1 .732-.79zm22.11 0a.79.79 0 0 1 .002 0 .79.79 0 0 1 .056 0 .79.79 0 0 1 .79.789.79.79 0 0 1-.79.79.79.79 0 0 1-.79-.79.79.79 0 0 1 .732-.79zm-19.508 3.021a3.35 3.35 0 0 1-1.283.934l7.326 12.691a3.35 3.35 0 0 1 1.305-.894l-7.348-12.73zm17.033.059l-7.316 12.674a3.35 3.35 0 0 1 1.308.894l7.31-12.664a3.35 3.35 0 0 1-1.302-.904zm-8.564 13.523a2.369 2.369 0 0 0-2.37 2.367 2.369 2.369 0 0 0 2.37 2.37 2.369 2.369 0 0 0 2.369-2.37 2.369 2.369 0 0 0-2.37-2.367zm-.059 1.578a.79.79 0 0 1 .002 0 .79.79 0 0 1 .057 0 .79.79 0 0 1 .789.79.79.79 0 0 1-.79.79.79.79 0 0 1-.79-.79.79.79 0 0 1 .732-.79z" style="isolation:auto;mix-blend-mode:normal;solid-color:#000;solid-opacity:1;marker:none" display="inline" overflow="visible" opacity="1"/></g></svg>