<svg xmlns="http://www.w3.org/2000/svg" xmlns:xlink="http://www.w3.org/1999/xlink" width="48" height="48" version="1.1" id="svg38"><defs id="defs22"><linearGradient id="linearGradient3764" x1="1" x2="47" gradientUnits="userSpaceOnUse" gradientTransform="rotate(-90 -13.923 65.898)"><stop stop-color="#e4e4e4" stop-opacity="1" id="stop1281"/><stop offset="1" stop-color="#eee" stop-opacity="1" id="stop1283"/></linearGradient><linearGradient id="linearGradient4488"><stop id="stop4490" offset="0" stop-color="#000" stop-opacity=".047"/><stop id="stop4492" offset="1" stop-color="#000" stop-opacity="0"/></linearGradient><style id="style4511"/><style id="style4511-26"/><style id="style4511-9"/><style id="style4552"/><style id="style4511-2"/><linearGradient xlink:href="#linearGradient4488" id="linearGradient4544" gradientUnits="userSpaceOnUse" gradientTransform="translate(-62.887 1.994) scale(.3038)" x1="288.112" y1="141.785" x2="287.575" y2="79.008"/><clipPath id="clipPath-205582253"/><linearGradient xlink:href="#linearGradient3764" id="linearGradient1292" x1="2.585" y1="23.586" x2="44.832" y2="23.586" gradientUnits="userSpaceOnUse"/></defs><style id="style4485" type="text/css"/><path id="path4524" d="M2.752 26.22v1.67c0 9.573 5.583 17.281 17.146 17.281h6.93c15.133 0 17.837-11.322 17.837-17.282v-1.668c0 5.96-2.704 17.282-17.837 17.282h-6.93c-11.563 0-17.146-7.708-17.146-17.282z" opacity="1" fill="url(#linearGradient4544)" fill-opacity="1" stroke="none" stroke-width="1.1" stroke-linecap="square" stroke-linejoin="bevel" stroke-miterlimit="4" stroke-dasharray="none" stroke-dashoffset="0" stroke-opacity=".078"/><path id="path4526" d="M19.365 2.742h8.495c13.908 0 16.805 11.247 16.805 17.282v7.124c0 5.96-2.705 17.282-17.837 17.282h-6.93c-11.563 0-17.146-7.708-17.146-17.282v-7.124c0-9.574 5.47-17.282 16.613-17.282z" opacity="1" fill="url(#linearGradient1292)" fill-opacity="1" stroke="#000" stroke-width=".334" stroke-linecap="square" stroke-linejoin="bevel" stroke-miterlimit="4" stroke-dasharray="none" stroke-dashoffset="0" stroke-opacity=".078"/><g id="g1207" transform="translate(-.722 -.271)"><g clip-path="url(#clipPath-205582253)" id="g1205"><g id="g1203" fill-opacity="1" fill-rule="nonzero" stroke="none"><path d="M22.285 20.457l2.656-.141 1.406-2.113.965 2.41 2.559.914-1.973 1.574-.043 2.555-2.094-1.34-2.801.902.785-2.477m-1.461-2.285" id="path1195" fill="#ff7036"/><path d="M21.887 28.14l2.496-.918.715-2.438 1.633 2.01 2.715.117-1.414 2.086.715 2.453-2.395-.656-2.406 1.691.016-2.598m-2.074-1.746" id="path1197" fill="#ffe236"/><path d="M15.426 24.91l2.652.199 1.66-1.922.652 2.512 2.422 1.234-2.156 1.309-.367 2.527-1.902-1.59-2.895.539 1.09-2.355m-1.156-2.453" id="path1199" fill="#ff2fbf"/><path d="M26.359 12.09c-2.48.32-5.145 1.527-7.313 5.098-4.957 8.16-4.605 11-5.395 11.918-.793.914-2.93 1.41-2.621 2.449.309 1.035.621.902.621.902s3.121 4.52 12.172 3.348c9.05-1.172 10.305-3.082 10.223-4.03-.082-.949-1.992-1.641-1.992-1.641s-1.414-4.984-1.051-7.03c.363-2.047 1.742-5.03 3.105-5.672 1.359-.648 2.039 2.168 2.742 1.473.699-.695-1.18-6.06-3.258-6.102-1.164-.023-4.059-1.121-7.234-.707m.008 6.848l.691 2.043 2.098.594-1.773 1.262.078 2.145-1.773-1.262-2.09.73.672-2.02-1.348-1.695 2.203-.02m-5.84 4.227l.074 1.48 1.324.793-1.43.516-.359 1.465-.973-1.141-1.523.098.816-1.234-.582-1.387 1.477.383m7.082-.664l1.418 1.898 2.395-.094-1.391 1.922.816 2.188-2.297-.711-1.887 1.457-.016-2.359-1.988-1.297 2.277-.746m.672-2.258" id="path1201" fill="#2d2d2d"/></g></g></g></svg>