<svg xmlns:osb="http://www.openswatchbook.org/uri/2009/osb" xmlns="http://www.w3.org/2000/svg" xmlns:xlink="http://www.w3.org/1999/xlink" width="48" height="48" version="1.1" id="svg38"><defs id="defs22"><linearGradient id="linearGradient4488"><stop id="stop4490" offset="0" stop-color="#000" stop-opacity=".047"/><stop id="stop4492" offset="1" stop-color="#000" stop-opacity="0"/></linearGradient><style id="style4511"/><style id="style4511-26"/><style id="style4511-9"/><style id="style4552"/><style id="style4511-2"/><linearGradient xlink:href="#linearGradient4488" id="linearGradient4540" gradientUnits="userSpaceOnUse" gradientTransform="matrix(.30902 0 0 .3038 -64.017 1.994)" x1="288.112" y1="141.785" x2="287.575" y2="79.008"/><linearGradient osb:paint="solid" id="linearGradient5293"><stop id="stop5295" offset="0" stop-color="#9a89c0" stop-opacity="1"/></linearGradient><style id="style2" type="text/css"><![CDATA[.fil5{fill:none}.fil1{fill:#196FBA}.fil0{fill:#25B2EE}.fil4{fill:#793C7C}.fil3{fill:#8C508C}.fil2{fill:white}]]></style></defs><style id="style4485" type="text/css"/><path id="path4516" d="M2.75 26.22v1.67c0 9.573 5.68 17.281 17.44 17.281h7.05c15.392 0 18.143-11.322 18.143-17.282v-1.668c0 5.96-2.75 17.282-18.143 17.282h-7.05c-11.76 0-17.44-7.708-17.44-17.282z" opacity="1" fill="url(#linearGradient4540)" fill-opacity="1" stroke="none" stroke-width="1.109" stroke-linecap="square" stroke-linejoin="bevel" stroke-miterlimit="4" stroke-dasharray="none" stroke-dashoffset="0" stroke-opacity=".078"/><path id="path4518" d="M19.649 2.742h8.64c14.148 0 17.094 11.247 17.094 17.282v7.124c0 5.96-2.75 17.282-18.143 17.282h-7.05c-11.76 0-17.44-7.708-17.44-17.282v-7.124c0-9.574 5.564-17.282 16.899-17.282z" opacity="1" fill="#ff8c3f" fill-opacity="1" stroke="#000" stroke-width=".337" stroke-linecap="square" stroke-linejoin="bevel" stroke-miterlimit="4" stroke-dasharray="none" stroke-dashoffset="0" stroke-opacity=".078"/><path d="M25.068 35.261c-.44-.689-.8-1.35-.8-1.47 0-.12.793-.34 1.761-.486 3.135-.475 5.723-2.116 6.404-4.059 1.027-2.93-.763-5.893-3.97-6.573-.547-.116-.651.001-1.411 1.578-1.065 2.21-2.35 4.177-3.73 5.71-.992 1.1-1.092 1.307-.957 1.968.462 2.263.53 2.082-1.026 2.747l-1.412.605-.132-.633c-.227-1.092-.374-1.185-1.155-.727-1.884 1.105-4.294 1.173-5.355.152-1.848-1.781-.968-6.187 1.826-9.144.69-.729 1.82-1.7 2.513-2.16l1.26-.833.159-1.763c.087-.97.088-1.837.001-1.927-.086-.09-1.3-.126-2.699-.08l-2.541.082-.003-1.008c-.002-.555-.063-1.24-.136-1.523-.13-.508-.104-.514 2.724-.578l2.856-.065.325-2.162.324-2.162.657.136c.36.075 1.025.137 1.476.137h.82l-.182 1.772c-.1.975-.13 1.826-.067 1.892.154.16 3.056-.29 5.663-.88 2.42-.548 2.455-.53 2.46 1.293l.004 1.183-3.173.61c-1.745.334-3.673.688-4.286.785l-1.113.176-.068 1.358c-.067 1.353-.065 1.358.502 1.21a17.86 17.86 0 0 1 1.626-.292c1.307-.177 1.564-.38 1.744-1.376.159-.882.19-.89 1.952-.522l1.266.264-.138.763c-.133.736-.108.768.72.927 2.536.486 5.091 2.736 5.739 5.052.982 3.514-.31 7.145-3.225 9.058-1.102.723-3.246 1.62-4.343 1.818-.482.086-1.143.212-1.468.279-.52.106-.69-.033-1.392-1.132zm-8.388-3.63c.417-.124 1.156-.512 1.641-.862l.883-.636-.153-2.316c-.085-1.274-.207-2.37-.272-2.437-.196-.199-2.412 2.404-2.834 3.328-.65 1.425-.759 3.15-.198 3.15.096 0 .516-.103.933-.227zm6.128-5.62c.238-.414.713-1.312 1.056-1.997l.624-1.245-.722.125a7.996 7.996 0 0 0-1.335.372c-.587.236-.612.312-.612 1.872 0 1.843.285 2.095.989.872z" id="path1479" clip-rule="evenodd" fill="#fff" fill-opacity="1" fill-rule="evenodd" stroke-width=".227" image-rendering="optimizeQuality" shape-rendering="geometricPrecision" text-rendering="geometricPrecision"/></svg>