<svg xmlns:osb="http://www.openswatchbook.org/uri/2009/osb" xmlns="http://www.w3.org/2000/svg" xmlns:xlink="http://www.w3.org/1999/xlink" width="48" height="48" version="1.1" id="svg38"><defs id="defs22"><linearGradient id="linearGradient4488"><stop id="stop4490" offset="0" stop-color="#000" stop-opacity=".047"/><stop id="stop4492" offset="1" stop-color="#000" stop-opacity="0"/></linearGradient><style id="style4511"/><style id="style4511-26"/><style id="style4511-9"/><style id="style4552"/><linearGradient id="b-5" y1="532.8" y2="506.8" x2="0" gradientUnits="userSpaceOnUse"><stop stop-color="#989a9b" id="stop7-629"/><stop offset="1" stop-color="#f6f6f7" id="stop9-12"/></linearGradient><linearGradient id="d-0" y1="22.346" x1="29.855" y2="28.506" x2="54.32" gradientUnits="userSpaceOnUse"><stop stop-color="#ffc169" id="stop17-62"/><stop offset="1" stop-color="#ffa92d" id="stop19-6"/></linearGradient><style id="style4511-2"/><linearGradient xlink:href="#linearGradient4488" id="linearGradient4540" gradientUnits="userSpaceOnUse" gradientTransform="matrix(.30902 0 0 .3038 -64.017 1.994)" x1="288.112" y1="141.785" x2="287.575" y2="79.008"/><linearGradient osb:paint="solid" id="linearGradient5293"><stop id="stop5295" offset="0" stop-color="#9a89c0" stop-opacity="1"/></linearGradient><style id="style2" type="text/css"><![CDATA[.fil5{fill:none}.fil1{fill:#196FBA}.fil0{fill:#25B2EE}.fil4{fill:#793C7C}.fil3{fill:#8C508C}.fil2{fill:white}]]></style><linearGradient xlink:href="#b-5" id="linearGradient1980" x1="29.347" y1="9.57" x2="32.713" y2="9.57" gradientUnits="userSpaceOnUse"/><linearGradient xlink:href="#b-5" id="linearGradient1982" x1="24.705" y1="9.57" x2="28.07" y2="9.57" gradientUnits="userSpaceOnUse"/><linearGradient xlink:href="#b-5" id="linearGradient1984" x1="20.062" y1="9.57" x2="23.428" y2="9.57" gradientUnits="userSpaceOnUse"/><linearGradient xlink:href="#b-5" id="linearGradient1986" x1="15.42" y1="9.57" x2="18.786" y2="9.57" gradientUnits="userSpaceOnUse"/><linearGradient xlink:href="#b-5" id="linearGradient1994" x1="7.712" y1="16.702" x2="12.066" y2="16.702" gradientUnits="userSpaceOnUse"/><linearGradient xlink:href="#b-5" id="linearGradient1996" x1="7.712" y1="21.291" x2="12.066" y2="21.291" gradientUnits="userSpaceOnUse"/><linearGradient xlink:href="#b-5" id="linearGradient1998" x1="7.712" y1="25.881" x2="12.066" y2="25.881" gradientUnits="userSpaceOnUse"/><linearGradient xlink:href="#b-5" id="linearGradient2000" x1="7.712" y1="30.47" x2="12.066" y2="30.47" gradientUnits="userSpaceOnUse"/><linearGradient xlink:href="#b-5" id="linearGradient2008" x1="36.067" y1="30.47" x2="40.421" y2="30.47" gradientUnits="userSpaceOnUse"/><linearGradient xlink:href="#b-5" id="linearGradient2010" x1="36.067" y1="25.881" x2="40.421" y2="25.881" gradientUnits="userSpaceOnUse"/><linearGradient xlink:href="#b-5" id="linearGradient2012" x1="36.067" y1="21.291" x2="40.421" y2="21.291" gradientUnits="userSpaceOnUse"/><linearGradient xlink:href="#b-5" id="linearGradient2014" x1="36.067" y1="16.702" x2="40.421" y2="16.702" gradientUnits="userSpaceOnUse"/><linearGradient xlink:href="#b-5" id="linearGradient2022" x1="15.42" y1="37.602" x2="18.786" y2="37.602" gradientUnits="userSpaceOnUse"/><linearGradient xlink:href="#b-5" id="linearGradient2024" x1="20.062" y1="37.602" x2="23.428" y2="37.602" gradientUnits="userSpaceOnUse"/><linearGradient xlink:href="#b-5" id="linearGradient2026" x1="24.705" y1="37.602" x2="28.07" y2="37.602" gradientUnits="userSpaceOnUse"/><linearGradient xlink:href="#b-5" id="linearGradient2028" x1="29.347" y1="37.602" x2="32.712" y2="37.602" gradientUnits="userSpaceOnUse"/><linearGradient xlink:href="#d-0" id="linearGradient2048" x1="-41.42" y1="13.052" x2="-34.516" y2="13.052" gradientUnits="userSpaceOnUse" gradientTransform="translate(55.854 4.66)"/></defs><style id="style4485" type="text/css">.st0{fill:#005c75}</style><path id="path4516" d="M2.75 26.22v1.67c0 9.573 5.68 17.281 17.44 17.281h7.05c15.392 0 18.143-11.322 18.143-17.282v-1.668c0 5.96-2.75 17.282-18.143 17.282h-7.05c-11.76 0-17.44-7.708-17.44-17.282z" opacity="1" fill="url(#linearGradient4540)" fill-opacity="1" stroke="none" stroke-width="1.109" stroke-linecap="square" stroke-linejoin="bevel" stroke-miterlimit="4" stroke-dasharray="none" stroke-dashoffset="0" stroke-opacity=".078"/><path id="path4518" d="M19.649 2.742h8.64c14.148 0 17.094 11.247 17.094 17.282v7.124c0 5.96-2.75 17.282-18.143 17.282h-7.05c-11.76 0-17.44-7.708-17.44-17.282v-7.124c0-9.574 5.564-17.282 16.899-17.282z" opacity="1" fill="#237188" fill-opacity="1" stroke="#000" stroke-width=".337" stroke-linecap="square" stroke-linejoin="bevel" stroke-miterlimit="4" stroke-dasharray="none" stroke-dashoffset="0" stroke-opacity=".078"/><path class="st0" d="M24.909 22.785a.565.565 0 0 0-.165-.424c-.11-.106-.26-.159-.455-.159H23.5v1.163h.788c.194 0 .345-.053.455-.16a.548.548 0 0 0 .165-.42z" id="path1026" fill="#374149" stroke-width=".064"/><path class="st0" d="M15.42 11.711v.01h3.366v-1.578h-.763a.257.257 0 0 1-.258-.255V7.417H16.44v2.471c0 .14-.116.255-.258.255h-.762v1.568z" id="path1030" fill="url(#linearGradient1986)" fill-opacity="1" stroke-width=".064"/><path class="st0" d="M23.242 11.722h.186v-1.579h-.761a.256.256 0 0 1-.258-.255V7.417h-1.325v2.471c0 .14-.115.255-.258.255h-.764v1.578h3.18z" id="path1032" fill="url(#linearGradient1984)" fill-opacity="1" stroke-width=".064"/><path class="st0" d="M24.705 11.711v.01h3.365v-1.578h-.762a.257.257 0 0 1-.258-.255V7.417h-1.325v2.471c0 .14-.116.255-.258.255h-.762v1.568z" id="path1034-9" fill="url(#linearGradient1982)" fill-opacity="1" stroke-width=".064"/><path class="st0" d="M32.526 11.722h.187v-1.579h-.765a.257.257 0 0 1-.258-.255V7.417h-1.32v2.471c0 .14-.116.255-.258.255h-.764v1.578h3.179z" id="path1036" fill="url(#linearGradient1980)" fill-opacity="1" stroke-width=".064"/><path class="st0" d="M29.533 35.45h-.186v1.579h.763c.142 0 .258.114.258.255v2.471h1.325v-2.471c0-.141.115-.255.258-.255h.761V35.45h-3.179z" id="path1038" fill="url(#linearGradient2028)" fill-opacity="1" stroke-width=".064"/><path class="st0" d="M24.89 35.45h-.185v1.578h.761c.142 0 .258.115.258.256v2.471h1.325v-2.471c0-.141.115-.255.258-.255h.763V35.45h-3.179z" id="path1040" fill="url(#linearGradient2026)" fill-opacity="1" stroke-width=".064"/><path class="st0" d="M20.249 35.45h-.187v1.579h.763c.143 0 .258.114.258.255v2.471h1.325v-2.471c0-.141.116-.255.258-.255h.762V35.45H20.25z" id="path1042" fill="url(#linearGradient2024)" fill-opacity="1" stroke-width=".064"/><path class="st0" d="M15.606 35.45h-.186v1.578h.765c.142 0 .258.115.258.256v2.47h1.321v-2.469c0-.141.116-.255.258-.255h.763v-1.58h-3.178z" id="path1044" fill="url(#linearGradient2022)" fill-opacity="1" stroke-width=".064"/><path class="st0" d="M40.235 16.046h-2.313a.256.256 0 0 1-.258-.255v-.753h-1.597v3.328h1.597v-.754c0-.142.115-.256.258-.256h2.498v-1.31h-.185z" id="path1046" fill="url(#linearGradient2014)" fill-opacity="1" stroke-width=".064"/><path class="st0" d="M37.922 20.638a.257.257 0 0 1-.258-.256v-.754h-1.596v3.327h1.596v-.752c0-.141.115-.255.258-.255h2.499v-1.311h-2.499z" id="path1048" fill="url(#linearGradient2012)" fill-opacity="1" stroke-width=".064"/><path class="st0" d="M37.922 25.225a.257.257 0 0 1-.258-.255v-.753h-1.597v3.328h1.597v-.755c0-.14.115-.255.258-.255h2.498v-1.31h-2.498z" id="path1050" fill="url(#linearGradient2010)" fill-opacity="1" stroke-width=".064"/><path class="st0" d="M37.922 29.817a.256.256 0 0 1-.258-.255v-.756h-1.597v3.328h1.597v-.756c0-.14.115-.255.258-.255h2.499v-1.306h-2.499z" id="path1052" fill="url(#linearGradient2008)" fill-opacity="1" stroke-width=".064"/><path class="st0" d="M10.655 28.806h-.186v.754a.257.257 0 0 1-.258.256H7.712v1.31h2.499c.142 0 .258.114.258.255v.752h1.597v-3.327h-.186z" id="path1054" fill="url(#linearGradient2000)" fill-opacity="1" stroke-width=".064"/><path class="st0" d="M10.655 24.217h-.186v.752a.256.256 0 0 1-.258.255H7.712v1.31h2.499c.142 0 .258.114.258.255v.755h1.597v-3.327h-.186z" id="path1056" fill="url(#linearGradient1998)" fill-opacity="1" stroke-width=".064"/><path class="st0" d="M10.655 19.627h-.186v.755c0 .14-.115.254-.258.254H7.712v1.311h2.499c.142 0 .258.114.258.254v.754h1.597v-3.328h-1.411z" id="path1058" fill="url(#linearGradient1996)" fill-opacity="1" stroke-width=".064"/><path class="st0" d="M10.655 15.038h-.186v.756c0 .14-.115.255-.258.255H7.712v1.306h2.499c.142 0 .258.114.258.255v.756h1.597v-3.328h-1.411z" id="path1060" fill="url(#linearGradient1994)" fill-opacity="1" stroke-width=".064"/><path id="rect2032" fill="url(#linearGradient2048)" fill-opacity="1" stroke="none" stroke-opacity=".078" d="M14.434 14.548h6.903v6.328h-6.903z"/><path id="rect2050" fill="#fff" fill-opacity="1" stroke="none" stroke-width="1.059" stroke-opacity=".078" d="M17.833 20.243h12.656v6.831H17.833z"/><path class="st0" d="M31.435 13.048H16.698c-1.85 0-3.35 1.483-3.35 3.312v14.452c0 1.829 1.5 3.311 3.35 3.311h14.737c1.85 0 3.35-1.482 3.35-3.311V16.36c0-1.829-1.5-3.312-3.35-3.312zm-9.767 9.817h-1.18l-.027-.106a.843.843 0 0 0-.21-.392c-.093-.092-.227-.137-.409-.137a.672.672 0 0 0-.27.05.549.549 0 0 0-.273.26.816.816 0 0 0-.056.192 2.72 2.72 0 0 0-.035.331 8.584 8.584 0 0 0-.013.523c0 .21.004.384.013.522.007.134.02.245.035.332a.818.818 0 0 0 .057.193.543.543 0 0 0 .273.258.67.67 0 0 0 .27.05c.182 0 .317-.045.411-.138a.822.822 0 0 0 .213-.39l.027-.106h1.012l.162.002-.029.162c-.09.5-.3.885-.626 1.143-.323.256-.717.385-1.171.385-.28 0-.53-.044-.741-.133a1.849 1.849 0 0 1-.57-.377 1.498 1.498 0 0 1-.439-.825 3.281 3.281 0 0 1-.053-.495 16.168 16.168 0 0 1 0-1.166c.007-.18.025-.348.054-.495a1.506 1.506 0 0 1 .435-.823c.172-.164.364-.291.573-.379.21-.088.46-.133.741-.133.454 0 .848.13 1.171.385.325.258.536.643.626 1.143l.027.148zm-6.155-2.636h-.007a.455.455 0 0 1-.555-.44v-3.092c0-1.047.867-1.904 1.926-1.904h2.505c.39 0 .6.453.345.745l-3.976 4.546a.45.45 0 0 1-.238.145zm8.133 4.013h-.01v1.603H22.53v-4.517h1.799c.238 0 .456.04.65.112.194.077.358.186.492.318.131.133.235.292.305.467a1.513 1.513 0 0 1 0 1.12 1.379 1.379 0 0 1-.797.784 1.765 1.765 0 0 1-.65.113h-.683zm4.205.47c.108.11.254.165.447.165s.34-.054.45-.166c.111-.113.165-.271.165-.484V21.33h1.102v2.927a1.557 1.557 0 0 1-.506 1.181c-.155.14-.338.25-.545.328a1.887 1.887 0 0 1-.666.116 1.91 1.91 0 0 1-.666-.116 1.681 1.681 0 0 1-.545-.328 1.53 1.53 0 0 1-.37-.512 1.62 1.62 0 0 1-.136-.67V21.33h1.108v2.897c0 .213.053.372.162.484z" id="path1028" fill="#664149" stroke-width=".064" fill-opacity="1"/></svg>