<?xml version="1.0" encoding="UTF-8" standalone="no"?>
<svg
   xmlns:dc="http://purl.org/dc/elements/1.1/"
   xmlns:cc="http://creativecommons.org/ns#"
   xmlns:rdf="http://www.w3.org/1999/02/22-rdf-syntax-ns#"
   xmlns:svg="http://www.w3.org/2000/svg"
   xmlns="http://www.w3.org/2000/svg"
   xmlns:xlink="http://www.w3.org/1999/xlink"
   xmlns:sodipodi="http://sodipodi.sourceforge.net/DTD/sodipodi-0.dtd"
   xmlns:inkscape="http://www.inkscape.org/namespaces/inkscape"
   width="48"
   height="48"
   version="1.1"
   id="svg38"
   sodipodi:docname="inkscape.svg"
   inkscape:version="0.92.4 5da689c313, 2019-01-14">
  <metadata
     id="metadata20">
    <rdf:RDF>
      <cc:Work
         rdf:about="">
        <dc:format>image/svg+xml</dc:format>
        <dc:type
           rdf:resource="http://purl.org/dc/dcmitype/StillImage" />
      </cc:Work>
    </rdf:RDF>
  </metadata>
  <sodipodi:namedview
     pagecolor="#ffffff"
     bordercolor="#666666"
     borderopacity="1"
     objecttolerance="10"
     gridtolerance="10"
     guidetolerance="10"
     inkscape:pageopacity="0"
     inkscape:pageshadow="2"
     inkscape:window-width="1366"
     inkscape:window-height="700"
     id="namedview18"
     showgrid="false"
     inkscape:zoom="4.9166667"
     inkscape:cx="22.819642"
     inkscape:cy="6.9174335"
     inkscape:window-x="0"
     inkscape:window-y="0"
     inkscape:window-maximized="1"
     inkscape:current-layer="svg38" />
  <defs
     id="defs22">
    <linearGradient
       inkscape:collect="always"
       id="linearGradient831">
      <stop
         style="stop-color:#ddd9d9;stop-opacity:1"
         offset="0"
         id="stop827" />
      <stop
         style="stop-color:#ffffff;stop-opacity:1"
         offset="1"
         id="stop829" />
    </linearGradient>
    <linearGradient
       id="linearGradient4488">
      <stop
         id="stop4490"
         offset="0"
         stop-color="#000"
         stop-opacity=".047" />
      <stop
         id="stop4492"
         offset="1"
         stop-color="#000"
         stop-opacity="0" />
    </linearGradient>
    <style
       id="style4511" />
    <style
       id="style4511-26" />
    <style
       id="style4511-9" />
    <style
       id="style4552" />
    <style
       id="style4511-2" />
    <linearGradient
       gradientTransform="translate(-63.205 2.216) scale(.3038)"
       xlink:href="#linearGradient4488"
       id="linearGradient4160"
       x1="288.112"
       y1="141.785"
       x2="287.575"
       y2="79.008"
       gradientUnits="userSpaceOnUse" />
    <linearGradient
       inkscape:collect="always"
       xlink:href="#linearGradient831"
       id="linearGradient833"
       x1="23.997654"
       y1="43.933521"
       x2="23.832001"
       y2="7.1098528"
       gradientUnits="userSpaceOnUse" />
  </defs>
  <style
     id="style4485"
     type="text/css" />
  <g
     id="g339"
     transform="matrix(1.00949,0,0,0.99997,-0.022,0)"
     stroke-miterlimit="4"
     style="fill-opacity:1;stroke-miterlimit:4;stroke-dasharray:none">
    <path
       id="path4147"
       d="m 2.433,26.443 v 1.668 c 0,9.575 5.583,17.282 17.146,17.282 h 6.93 c 15.133,0 17.837,-11.322 17.837,-17.282 v -1.668 c 0,5.96 -2.704,17.282 -17.837,17.282 h -6.93 C 8.016,43.725 2.433,36.017 2.433,26.443 Z"
       inkscape:connector-curvature="0"
       style="opacity:1;fill:url(#linearGradient4160);stroke:none;stroke-width:1.10000002;stroke-linecap:square;stroke-linejoin:bevel;stroke-dashoffset:0;stroke-opacity:0.078" />
    <path
       id="rect4144"
       d="m 19.345,2.965 h 8.647 C 42.15,2.965 45.1,14.21 45.1,20.247 v 7.123 c 0,5.96 -2.753,17.282 -18.157,17.282 H 19.888 C 8.118,44.652 2.434,36.944 2.434,27.37 v -7.123 c 0,-9.575 5.569,-17.282 16.912,-17.282 z"
       inkscape:connector-curvature="0"
       style="opacity:1;fill:url(#linearGradient833);fill-opacity:1;stroke:#000000;stroke-width:0.33700001;stroke-linecap:square;stroke-linejoin:bevel;stroke-dashoffset:0;stroke-opacity:0.078" />
    <path
       d="m 23.832,9.755 c -0.742,-0.07 -1.502,0.148 -2.02,0.71 -3.796,3.52 -7.383,7.256 -10.945,11.006 -0.878,0.738 -1.717,2.38 -0.63,3.252 1.352,0.49 2.837,0.321 4.23,0.637 0.835,0.221 3.064,1.708 1.439,2.55 -0.881,0.394 -3.596,0.703 -2.253,2.08 1.36,0.513 2.803,0.713 4.276,0.713 1.818,0 3.05,1.352 1.303,2.345 -1.196,0.603 -0.34,1.63 0.683,1.706 1.501,0.08 1.815,1.677 2.961,2.259 1.044,0.323 2.2,0.036 3.144,-0.45 1.725,-0.48 -0.244,-1.676 0.324,-2.574 1.23,-0.918 2.893,-0.856 4.241,-1.535 1.629,-0.559 0.17,-2.118 -0.22,-2.784 -0.841,-1.442 -0.67,-2.234 0.88,-2.645 1.672,-0.443 3.59,-0.614 5.166,-1.489 1.277,-0.57 1.303,-2.192 0.578,-3.186 -3.641,-3.96 -7.419,-7.8 -11.242,-11.586 -0.45,-0.585 -1.173,-0.94 -1.915,-1.01 z m -0.347,2.703 c 0.477,0.008 0.943,0.18 1.33,0.453 l 6.107,6.915 c 0.217,0.476 -0.17,1.296 -0.767,1.319 -1.263,-0.471 -2.414,-1.197 -3.618,-1.798 -0.611,-0.255 -1.209,-0.715 -1.868,-0.762 -0.876,0.627 -1.367,1.617 -2.104,2.38 -0.462,0.84 -1.061,-0.026 -1.384,-0.497 -0.432,-0.503 -0.8,-1.422 -1.31,-1.597 -0.333,0.813 -0.483,1.685 -0.739,2.523 -0.25,0.59 -0.253,1.675 -0.956,1.847 -0.928,-0.36 -1.754,-0.934 -2.57,-1.493 -0.45,-0.345 -1.41,-0.828 -0.67,-1.402 1.823,-2.22 3.826,-4.289 5.87,-6.31 0.753,-0.703 1.54,-1.626 2.679,-1.578 z m 12.591,16.3 c -0.978,-0.01 -2.58,0.927 -1.075,1.36 0.32,0.09 0.653,0.14 0.986,0.16 1.599,0 1.962,-1.356 0.458,-1.454 A 0.972,0.972 0 0 0 36.076,28.758 Z M 14.78,32.383 c -0.801,0.066 -1.663,0.448 -1.386,1.108 0.685,0.613 1.73,0.02 2.412,-0.324 0.518,-0.601 -0.224,-0.85 -1.026,-0.784 z"
       id="path5167-6-8-5-0-3-7-8-4"
       display="inline"
       inkscape:connector-curvature="0"
       style="display:inline;fill:#4d4d4d;fill-rule:evenodd;stroke:none;stroke-width:0.84200001;stroke-linejoin:miter;stroke-opacity:0.19200003" />
  </g>
</svg>
