<svg xmlns="http://www.w3.org/2000/svg" xmlns:xlink="http://www.w3.org/1999/xlink" width="48" height="48" version="1.1" id="svg38"><defs id="defs22"><linearGradient id="linearGradient4488"><stop id="stop4490" offset="0" stop-color="#000" stop-opacity=".047"/><stop id="stop4492" offset="1" stop-color="#000" stop-opacity="0"/></linearGradient><style id="style4511"/><style id="style4511-26"/><style id="style4511-9"/><style id="style4552"/><style id="style4511-2"/><linearGradient gradientTransform="translate(-63.205 2.216) scale(.3038)" xlink:href="#linearGradient4488" id="linearGradient4160" x1="288.112" y1="141.785" x2="287.575" y2="79.008" gradientUnits="userSpaceOnUse"/></defs><style id="style4485" type="text/css"/><path d="M2.433 26.443v1.668c0 9.575 5.583 17.282 17.146 17.282h6.93c15.133 0 17.837-11.322 17.837-17.282v-1.668c0 5.96-2.704 17.282-17.837 17.282h-6.93c-11.563 0-17.146-7.708-17.146-17.282z" id="path4147" opacity="1" fill="url(#linearGradient4160)" fill-opacity="1" stroke="none" stroke-width="1.1" stroke-linecap="square" stroke-linejoin="bevel" stroke-miterlimit="4" stroke-dasharray="none" stroke-dashoffset="0" stroke-opacity=".078"/><path d="M19.046 2.965h8.495c13.908 0 16.805 11.246 16.805 17.282v7.123c0 5.96-2.704 17.282-17.837 17.282h-6.93c-11.562 0-17.146-7.708-17.146-17.282v-7.123c0-9.575 5.47-17.282 16.613-17.282z" id="rect4144" opacity="1" fill="#706cf5" fill-opacity="1" stroke="#000" stroke-width=".334" stroke-linecap="square" stroke-linejoin="bevel" stroke-miterlimit="4" stroke-dasharray="none" stroke-dashoffset="0" stroke-opacity=".078"/><path d="M12.623 11.198l-.277.275-.277.274.782.795c.694.704.8.832.933 1.12.17.365.227.647.27 1.318.04.6.15 1.022.385 1.473.157.303.296.473.841 1.031.36.368.653.683.653.7 0 .019-.222.266-.493.55-.272.283-.598.653-.724.824-1.613 2.173-1.677 5.073-.165 7.36.26.394 1.301 1.54 1.645 1.81.112.09.208.182.214.206.014.06 1.852 1.902 4.233 4.241 2.035 2 2.238 2.173 3.011 2.564a6.341 6.341 0 0 0 1.877.63c.496.089 1.852.051 2.349-.064a6.94 6.94 0 0 0 2.291-.995c.745-.514 3.044-2.838 3.509-3.545a6.513 6.513 0 0 0 .949-2.309c.117-.587.106-1.875-.022-2.468a5.812 5.812 0 0 0-.5-1.477c-.434-.914-.505-.997-3.282-3.794-2.953-2.976-3.512-3.522-3.567-3.487-.023.013-.048-.021-.056-.077-.016-.113-1.3-1.385-1.737-1.718-1.59-1.214-3.814-1.587-5.754-.965-1.069.342-1.76.777-2.724 1.712l-.514.499-.56-.588c-.308-.323-.629-.69-.711-.813-.227-.342-.363-.803-.397-1.345-.086-1.367-.297-1.793-1.475-3.006l-.707-.73zm9.015 4.6c.69 0 .934.017 1.217.083a5.965 5.965 0 0 1 2.034.869c.379.255 1.11.909 1.43 1.278l.238.273-.188.561a14.718 14.718 0 0 1-2.74 4.835c-.176.205-.344.378-.372.384-.027.007-.223-.163-.437-.379-.37-.37-.387-.397-.344-.512.026-.067.047-.306.047-.531 0-.67-.009-.682-1.712-2.378l-1.45-1.444-.304-.093a1.855 1.855 0 0 0-.988-.043l-.202.052-.404-.409-.402-.41.434-.418c.9-.866 1.687-1.314 2.804-1.596.437-.11.548-.12 1.34-.121zm-5.417 2.98l.412.417.413.416-.053.177c-.03.1-.045.33-.036.526.028.577.057.617 1.582 2.155.744.75 1.443 1.432 1.555 1.514.212.156.61.286.881.286.087 0 .258-.027.382-.059l.227-.059.403.397c.221.218.404.41.404.425 0 .016-.209.203-.463.415a14.789 14.789 0 0 1-4.794 2.702 4.85 4.85 0 0 1-.513.16c-.106 0-1.381-1.344-1.616-1.704-.645-.989-.929-1.972-.93-3.212 0-1.589.539-2.89 1.693-4.087l.453-.469zm2.377.449a.84.84 0 0 1 .457.188c.372.274 2.75 2.693 2.824 2.874.104.248.086.578-.046.874-.099.22-.145.27-.343.37-.183.092-.291.116-.542.116-.28 0-.335-.015-.51-.14-.277-.199-2.61-2.541-2.762-2.775-.172-.262-.182-.673-.024-1.01.096-.205.133-.238.413-.367.207-.095.376-.139.533-.13zm8.92.073c.06-.06 5.113 5.01 5.46 5.477a5.832 5.832 0 0 1 1.157 3.23c.046.809-.126 1.74-.473 2.573-.205.491-.586 1.062-1.076 1.609-.547.61-2.2 2.229-2.538 2.488a5.822 5.822 0 0 1-2.85 1.131 5.702 5.702 0 0 1-2.95-.434 6.187 6.187 0 0 1-1.15-.656c-.296-.223-5.535-5.464-5.496-5.498a4.85 4.85 0 0 1 .476-.198c1.483-.564 2.88-1.355 4.223-2.392.69-.532 2.127-1.973 2.656-2.663 1.044-1.362 1.826-2.75 2.361-4.188.09-.243.18-.458.2-.479zm-9.031.195a.916.916 0 0 0-.345.086c-.228.116-.352.356-.352.68 0 .226.014.26.214.5.348.414 1.499 1.515 1.655 1.583a.664.664 0 0 0 .587-.016.692.692 0 0 0 .425-.499c.104-.388.046-.481-.89-1.417-.457-.457-.884-.851-.95-.876a.857.857 0 0 0-.344-.041z" id="path13215" fill="#fff" stroke="none" stroke-width=".01" stroke-miterlimit="4" stroke-dasharray="none" stroke-opacity="1"/></svg>