<svg xmlns="http://www.w3.org/2000/svg" xmlns:xlink="http://www.w3.org/1999/xlink" width="48" height="48" version="1.1" id="svg38"><defs id="defs22"><linearGradient id="linearGradient4488"><stop id="stop4490" offset="0" stop-color="#000" stop-opacity=".047"/><stop id="stop4492" offset="1" stop-color="#000" stop-opacity="0"/></linearGradient><style id="style4511"/><style id="style4511-26"/><style id="style4511-9"/><style id="style4552"/><style id="style4511-2"/><linearGradient gradientTransform="translate(-63.205 2.216) scale(.3038)" xlink:href="#linearGradient4488" id="linearGradient4160" x1="288.112" y1="141.785" x2="287.575" y2="79.008" gradientUnits="userSpaceOnUse"/></defs><style id="style4485" type="text/css"/><path d="M2.433 26.443v1.668c0 9.575 5.583 17.282 17.146 17.282h6.93c15.133 0 17.837-11.322 17.837-17.282v-1.668c0 5.96-2.704 17.282-17.837 17.282h-6.93c-11.563 0-17.146-7.708-17.146-17.282z" id="path4147" opacity="1" fill="url(#linearGradient4160)" fill-opacity="1" stroke="none" stroke-width="1.1" stroke-linecap="square" stroke-linejoin="bevel" stroke-miterlimit="4" stroke-dasharray="none" stroke-dashoffset="0" stroke-opacity=".078"/><path d="M19.046 2.965h8.495c13.908 0 16.805 11.246 16.805 17.282v7.123c0 5.96-2.704 17.282-17.837 17.282h-6.93c-11.562 0-17.146-7.708-17.146-17.282v-7.123c0-9.575 5.47-17.282 16.613-17.282z" id="rect4144" opacity="1" fill="#706cf5" fill-opacity="1" stroke="#000" stroke-width=".334" stroke-linecap="square" stroke-linejoin="bevel" stroke-miterlimit="4" stroke-dasharray="none" stroke-dashoffset="0" stroke-opacity=".078"/><path d="M32.599 13.506l-9.51.002c-5.23.002-9.91.022-10.403.045-.706.033-.955.063-1.181.143-.768.271-1.157.704-1.414 1.574-.08.272-.086.84-.1 9.244l-.016 8.953h1.067l.004-7.841c.002-4.313.02-8.389.039-9.057.034-1.162.04-1.224.154-1.45.154-.301.333-.39.92-.458.303-.035 3.777-.06 10.447-.076l9.992-.024v-1.055zm-17.061 5.317v1.885h1.691v-1.885h-1.691zm3.576 0v1.885h1.692v-1.885h-1.692zm3.527 0v1.885h1.692v-1.885H22.64zm3.577 0v1.885h1.691v-1.885h-1.691zm3.576 0v1.885h1.693v-1.885h-1.693zm5.945.629l-.006.88-.037 5.715-.03 4.834-.236.483c-.447.915-1.23 1.505-2.156 1.623-.265.034-2.926.068-7.49.094-3.894.022-7.162.04-7.262.043l-.181.006v.98l7.213-.03c7.651-.03 8.144-.043 8.656-.25.45-.181 1.023-.552 1.344-.868.518-.512.794-.991 1.04-1.807.125-.412.126-.445.163-2.545.02-1.17.038-3.709.04-5.643l.007-3.515H35.74zm-20.201 3.625v1.884h1.691v-1.884h-1.691zm3.576 0v1.884h1.692v-1.884h-1.692zm3.527 0v1.884h1.692v-1.884H22.64zm3.577 0v1.884h1.691v-1.884h-1.691zm3.576 0v1.884h1.693v-1.884h-1.693zM26.41 27.81l-3.178.014-3.177.011-.012.956-.014.953h6.381V27.81z" id="path12709-5" fill="#fff" fill-opacity="1" stroke="none" stroke-width=".029" stroke-miterlimit="4" stroke-dasharray="none" stroke-opacity="1"/></svg>