<svg xmlns="http://www.w3.org/2000/svg" xmlns:xlink="http://www.w3.org/1999/xlink" width="48" height="48" version="1.1" id="svg38"><defs id="defs22"><linearGradient id="linearGradient4723"><stop id="stop4725" offset="0" stop-color="#764fbc" stop-opacity="1"/><stop id="stop4728" offset="1" stop-color="#963ab7" stop-opacity="0"/></linearGradient><linearGradient id="linearGradient4712"><stop offset="0" id="stop4714" stop-color="#d62e80" stop-opacity="1"/><stop offset="1" id="stop4716" stop-color="#963ab7" stop-opacity="0"/></linearGradient><linearGradient id="linearGradient4702"><stop id="stop4704" offset="0" stop-color="#f9c96e" stop-opacity="1"/><stop id="stop4706" offset="1" stop-color="#963ab7" stop-opacity="0"/></linearGradient><linearGradient id="linearGradient4690"><stop offset="0" id="stop4692" stop-color="#da2f73" stop-opacity="1"/><stop offset="1" id="stop4694" stop-color="#963ab7" stop-opacity="1"/></linearGradient><linearGradient id="linearGradient4488"><stop id="stop4490" offset="0" stop-color="#000" stop-opacity=".047"/><stop id="stop4492" offset="1" stop-color="#000" stop-opacity="0"/></linearGradient><style id="style4511"/><style id="style4511-26"/><style id="style4511-9"/><style id="style4552"/><style id="style4511-2"/><linearGradient xlink:href="#linearGradient4488" id="linearGradient4471" gradientUnits="userSpaceOnUse" gradientTransform="translate(-62.47 2.216) scale(.3038)" x1="288.112" y1="141.785" x2="287.575" y2="79.008"/><style id="style4552-7"/><style id="style4552-6"/><linearGradient xlink:href="#linearGradient4690" id="linearGradient4696" x1="6.248" y1="36.796" x2="35.159" y2="8.385" gradientUnits="userSpaceOnUse"/><radialGradient xlink:href="#linearGradient4702" id="radialGradient4700" cx="14.659" cy="43.326" fx="14.659" fy="43.326" r="21.123" gradientTransform="matrix(2.2495 1.01852 -.76114 1.68106 13.699 -43.949)" gradientUnits="userSpaceOnUse"/><radialGradient xlink:href="#linearGradient4712" id="radialGradient4710" gradientUnits="userSpaceOnUse" gradientTransform="matrix(1.81134 .45654 -.41976 1.66542 6.828 -35.388)" cx="28.06" cy="30.15" fx="28.06" fy="30.15" r="21.123"/><radialGradient xlink:href="#linearGradient4723" id="radialGradient4720" gradientUnits="userSpaceOnUse" gradientTransform="matrix(.40071 .80582 -.44101 .2193 17.299 -3.046)" cx="5.027" cy="23.282" fx="5.027" fy="23.282" r="21.123"/></defs><style id="style4485" type="text/css"/><path d="M3.168 26.443v1.668c0 9.575 5.583 17.282 17.146 17.282h6.93c15.132 0 17.836-11.322 17.836-17.282v-1.668c0 5.96-2.704 17.282-17.836 17.282h-6.93c-11.563 0-17.146-7.708-17.146-17.282z" id="path4467" opacity="1" fill="url(#linearGradient4471)" fill-opacity="1" stroke="none" stroke-width="1.1" stroke-linecap="square" stroke-linejoin="bevel" stroke-miterlimit="4" stroke-dasharray="none" stroke-dashoffset="0" stroke-opacity=".078"/><path d="M19.781 2.965h8.495c13.908 0 16.805 11.246 16.805 17.282v7.123c0 5.96-2.705 17.282-17.837 17.282h-6.93c-11.563 0-17.146-7.708-17.146-17.282v-7.123c0-9.575 5.47-17.282 16.613-17.282z" id="path4469" opacity="1" fill="url(#linearGradient4696)" fill-opacity="1" stroke="#000" stroke-width=".334" stroke-linecap="square" stroke-linejoin="bevel" stroke-miterlimit="4" stroke-dasharray="none" stroke-dashoffset="0" stroke-opacity=".078"/><style type="text/css" id="style4485-4"/><style type="text/css" id="style4485-5"/><path id="path4718" d="M19.781 2.965h8.495c13.908 0 16.805 11.246 16.805 17.282v7.123c0 5.96-2.705 17.282-17.837 17.282h-6.93c-11.563 0-17.146-7.708-17.146-17.282v-7.123c0-9.575 5.47-17.282 16.613-17.282z" opacity="1" fill="url(#radialGradient4720)" fill-opacity="1" stroke="#000" stroke-width=".334" stroke-linecap="square" stroke-linejoin="bevel" stroke-miterlimit="4" stroke-dasharray="none" stroke-dashoffset="0" stroke-opacity=".078"/><path d="M19.781 2.965h8.495c13.908 0 16.805 11.246 16.805 17.282v7.123c0 5.96-2.705 17.282-17.837 17.282h-6.93c-11.563 0-17.146-7.708-17.146-17.282v-7.123c0-9.575 5.47-17.282 16.613-17.282z" id="path4708" opacity="1" fill="url(#radialGradient4710)" fill-opacity="1" stroke="#000" stroke-width=".334" stroke-linecap="square" stroke-linejoin="bevel" stroke-miterlimit="4" stroke-dasharray="none" stroke-dashoffset="0" stroke-opacity=".078"/><path id="path4698" d="M19.781 2.965h8.495c13.908 0 16.805 11.246 16.805 17.282v7.123c0 5.96-2.705 17.282-17.837 17.282h-6.93c-11.563 0-17.146-7.708-17.146-17.282v-7.123c0-9.575 5.47-17.282 16.613-17.282z" opacity="1" fill="url(#radialGradient4700)" fill-opacity="1" stroke="#000" stroke-width=".334" stroke-linecap="square" stroke-linejoin="bevel" stroke-miterlimit="4" stroke-dasharray="none" stroke-dashoffset="0" stroke-opacity=".078"/><g transform="translate(62.26 .216)" id="g4738" stroke-width="1.882" stroke-linecap="square" stroke-linejoin="miter" stroke-miterlimit="4" stroke-dasharray="none" stroke-dashoffset="0"><rect ry="5.91" rx="5.048" y="12.748" x="-49.35" height="21.689" width="22.427" id="rect4730" opacity="1" fill="#764fbc" fill-opacity="0" stroke="#fff" stroke-opacity="1"/><circle r="5.289" cy="23.851" cx="-38.129" id="path4732" opacity="1" fill="#764fbc" fill-opacity="0" stroke="#fff" stroke-opacity="1"/><ellipse ry="1.402" rx="1.445" cy="17.299" cx="-31.703" id="path4736" opacity="1" fill="#fff" fill-opacity="1" stroke="none" stroke-opacity=".747"/></g></svg>