<svg xmlns="http://www.w3.org/2000/svg" xmlns:xlink="http://www.w3.org/1999/xlink" width="48" height="48" version="1.1" id="svg38"><defs id="defs22"><style id="style4511"/><style id="style4511-26"/><style id="style4511-9"/><linearGradient id="linearGradient4223"><stop id="stop7-6-2" offset="0" stop-color="#c6cdd1" stop-opacity="1"/><stop id="stop9-7-3" offset="1" stop-color="#e0e5e7" stop-opacity="1"/></linearGradient><style id="style4552"/><style id="style4511-2"/><linearGradient xlink:href="#linearGradient4223" id="linearGradient1195" x1="2.367" y1="23.808" x2="45.224" y2="23.808" gradientUnits="userSpaceOnUse" gradientTransform="matrix(.99994 0 0 1.01475 .289 .245)"/><clipPath id="clipPath-439311876"/></defs><style id="style4485" type="text/css"/><path d="M19.677 3.253h8.618c14.108 0 17.047 11.413 17.047 17.537v7.229c0 6.047-2.744 17.537-18.094 17.537h-7.03c-11.73 0-17.394-7.822-17.394-17.537V20.79c0-9.715 5.549-17.537 16.853-17.537z" id="rect4144" opacity="1" fill="url(#linearGradient1195)" fill-opacity="1" stroke="#000" stroke-width=".339" stroke-linecap="square" stroke-linejoin="bevel" stroke-miterlimit="4" stroke-dasharray="none" stroke-dashoffset="0" stroke-opacity=".078"/><path id="path431" d="M15.031 27.365a3.625 3.625 0 0 1-1.434-.574c-.469-.316-.969-.914-1.211-1.438a3.546 3.546 0 0 1 .641-3.863c.363-.391.957-.758 1.504-.934.402-.129.695-.164 1.195-.145.496.016.84.094 1.258.277a3.674 3.674 0 0 1 1.723 1.633 3.539 3.539 0 0 1-.113 3.355 3.535 3.535 0 0 1-3.582 1.684m.02.004" fill="#f28720" fill-opacity="1" fill-rule="nonzero" stroke="none"/><path id="path433" d="M14.512 36.353a3.04 3.04 0 0 1-2.348-2.363 3.657 3.657 0 0 1-.035-.621c.004-.352.02-.469.078-.703.285-1.078 1.117-1.887 2.223-2.172.207-.055.371-.066 1.055-.09.809-.023 1.082-.055 1.555-.172a6.508 6.508 0 0 0 1.156-.422c1.832-.891 3.887-2.406 3.887-4.406.047-.418 0-4.996 0-7h-4c-2.152 0-2.824.023-3 0-2 0-3-1-2.91-3.273-.094-1.727.91-2.73 2.91-2.73l6.5.008 6.5-.008v14c0 6-5.441 8.965-10.371 9.836-.684.117-1.055.152-1.992.16-.848.012-.945.008-1.203-.047m15.566-2.941c-.043-.43-.043-17.547 0-18 0-2 1-3 2.957-3 2.043 0 3.043 1 3.043 3 0 .77-.02-.563-.008 8.734.012 6.01.023 8.996.008 9.266 0 1.996-1 3-2.957 3-2.043 0-3.043-1-3.043-3m0 0" fill="#195ba8" fill-opacity="1" fill-rule="nonzero" stroke="none"/></svg>