<svg xmlns="http://www.w3.org/2000/svg" xmlns:xlink="http://www.w3.org/1999/xlink" width="48" height="48" version="1.1" id="svg38"><defs id="defs22"><linearGradient id="linearGradient4488"><stop id="stop4490" offset="0" stop-color="#000" stop-opacity=".047"/><stop id="stop4492" offset="1" stop-color="#000" stop-opacity="0"/></linearGradient><style id="style4511"/><style id="style4511-26"/><style id="style4511-9"/><style id="style4552"/><style id="style4511-2"/><linearGradient gradientTransform="translate(-63.205 2.216) scale(.3038)" xlink:href="#linearGradient4488" id="linearGradient4160" x1="288.112" y1="141.785" x2="287.575" y2="79.008" gradientUnits="userSpaceOnUse"/></defs><style id="style4485" type="text/css"/><path d="M2.433 26.443v1.668c0 9.575 5.583 17.282 17.146 17.282h6.93c15.133 0 17.837-11.322 17.837-17.282v-1.668c0 5.96-2.704 17.282-17.837 17.282h-6.93c-11.563 0-17.146-7.708-17.146-17.282z" id="path4147" opacity="1" fill="url(#linearGradient4160)" fill-opacity="1" stroke="none" stroke-width="1.1" stroke-linecap="square" stroke-linejoin="bevel" stroke-miterlimit="4" stroke-dasharray="none" stroke-dashoffset="0" stroke-opacity=".078"/><path d="M19.046 2.965h8.495c13.908 0 16.805 11.246 16.805 17.282v7.123c0 5.96-2.704 17.282-17.837 17.282h-6.93c-11.562 0-17.146-7.708-17.146-17.282v-7.123c0-9.575 5.47-17.282 16.613-17.282z" id="rect4144" opacity="1" fill="#5184e1" fill-opacity="1" stroke="#000" stroke-width=".334" stroke-linecap="square" stroke-linejoin="bevel" stroke-miterlimit="4" stroke-dasharray="none" stroke-dashoffset="0" stroke-opacity=".078"/><path d="M23.657 11.645c-.462-.004-.917.008-1.203.039-1.974.211-3.711.804-5.314 1.808a12.28 12.28 0 0 0-3.418 3.221l-.24.334a11.84 11.84 0 0 1-.553.11c-2.421.446-3.813 1.309-4.295 2.66-.102.286-.107.317-.106.843.002.497.01.575.096.854.396 1.297 1.6 2.626 3.6 3.973 4.376 2.948 11.249 5.087 17.27 5.375a32.21 32.21 0 0 0 2.847-.038c2.406-.185 4.024-.719 5.004-1.65.618-.587.906-1.232.906-2.021 0-.786-.298-1.541-.936-2.38-.255-.336-.902-1.01-1.312-1.367-.283-.246-.289-.255-.29-.406 0-.23-.093-.991-.173-1.418-.503-2.683-1.81-5.024-3.809-6.826-1.891-1.705-4.254-2.76-6.834-3.053a13.137 13.137 0 0 0-1.24-.058zm.319 1.176a10.915 10.915 0 0 1 7.273 3.103 10.863 10.863 0 0 1 2.803 4.496 11.032 11.032 0 0 1-.276 7.52c-.21.518-.727 1.519-.812 1.572-.039.024-.278.07-.531.102-.437.055-2.307.097-2.836.064-1.687-.106-2.895-.25-4.41-.53-4.378-.807-8.793-2.414-11.78-4.288a13.33 13.33 0 0 1-.629-.416l-.168-.125v-.514a10.972 10.972 0 0 1 1.848-6.104 11.097 11.097 0 0 1 4.732-3.962 11.087 11.087 0 0 1 4.786-.918zm-11.344 5.644c.007.008-.085.243-.205.524a12.071 12.071 0 0 0-.951 3.832c-.022.286-.052.521-.065.521-.013 0-.213-.196-.445-.437-.683-.71-1.08-1.33-1.233-1.928-.062-.246-.068-.316-.037-.533.103-.726.725-1.285 1.856-1.674.438-.15 1.059-.326 1.08-.305zm23.08 6.318c.03-.054.546.523.816.913 1.11 1.597.621 2.654-1.574 3.406a13.86 13.86 0 0 1-.459.152c-.014 0 0-.031.242-.58.451-1.019.831-2.488.928-3.588.012-.14.034-.278.047-.303zm-22.4 2.975c-.012-.012-.277.1-.776.33l-.297.137.22.488c.48 1.055.986 1.88 1.704 2.777.368.46 1.315 1.406 1.78 1.776a12.307 12.307 0 0 0 6.939 2.687c.912.06 2.111-.023 3.04-.207 1.84-.364 3.443-1.078 5.03-2.242l.281-.205-.308-.424c-.17-.233-.327-.446-.352-.47-.036-.038-.115.006-.45.246-1.276.91-2.51 1.484-3.93 1.828a11.033 11.033 0 0 1-9.448-2.078c-.46-.365-1.379-1.284-1.74-1.74a11.352 11.352 0 0 1-1.43-2.346c-.139-.301-.257-.55-.263-.557z" id="path13311" fill="#fff" fill-opacity="1" stroke="none" stroke-width=".01" stroke-miterlimit="4" stroke-dasharray="none" stroke-opacity="1"/></svg>