<svg xmlns:osb="http://www.openswatchbook.org/uri/2009/osb" xmlns="http://www.w3.org/2000/svg" xmlns:xlink="http://www.w3.org/1999/xlink" width="48" height="48" version="1.1" id="svg38"><defs id="defs22"><linearGradient id="linearGradient4488"><stop id="stop4490" offset="0" stop-color="#000" stop-opacity=".047"/><stop id="stop4492" offset="1" stop-color="#000" stop-opacity="0"/></linearGradient><style id="style4511"/><style id="style4511-26"/><style id="style4511-9"/><style id="style4552"/><style id="style4511-2"/><linearGradient xlink:href="#linearGradient4488" id="linearGradient4540" gradientUnits="userSpaceOnUse" gradientTransform="matrix(.30673 0 0 .3038 -63.522 1.994)" x1="288.112" y1="141.785" x2="287.575" y2="79.008"/><linearGradient osb:paint="solid" id="linearGradient5293"><stop id="stop5295" offset="0" stop-color="#9a89c0" stop-opacity="1"/></linearGradient><linearGradient osb:paint="solid" id="linearGradient5251"><stop id="stop5253" offset="0" stop-color="#2f343f" stop-opacity="1"/></linearGradient><linearGradient id="linearGradient4239"><stop id="stop4241" offset="0" stop-color="#1268f4" stop-opacity="1"/><stop id="stop4243" offset="1" stop-color="#02bdfd" stop-opacity="1"/></linearGradient><linearGradient xlink:href="#linearGradient4239" id="linearGradient1907" x1="2.746" y1="23.739" x2="45.073" y2="23.739" gradientUnits="userSpaceOnUse" gradientTransform="rotate(-90 23.91 23.739)"/></defs><style id="style4485" type="text/css"/><path id="path4516" d="M2.75 26.22v1.669c0 9.574 5.638 17.282 17.312 17.282h6.998c15.278 0 18.008-11.323 18.008-17.282V26.22c0 5.96-2.73 17.282-18.008 17.282h-6.998c-11.674 0-17.311-7.708-17.311-17.282z" opacity="1" fill="url(#linearGradient4540)" fill-opacity="1" stroke="none" stroke-width="1.105" stroke-linecap="square" stroke-linejoin="bevel" stroke-miterlimit="4" stroke-dasharray="none" stroke-dashoffset="0" stroke-opacity=".078"/><path id="path4518" d="M19.525 2.743H28.1c14.042 0 16.967 11.329 16.967 17.408v7.175c0 6.003-2.73 17.408-18.009 17.408h-6.996c-11.674 0-17.311-7.764-17.311-17.408v-7.175c0-9.644 5.522-17.408 16.773-17.408z" opacity="1" fill="url(#linearGradient1907)" fill-opacity="1" stroke="#000" stroke-width=".337" stroke-linecap="square" stroke-linejoin="bevel" stroke-miterlimit="4" stroke-dasharray="none" stroke-dashoffset="0" stroke-opacity=".078"/><g id="g2018" transform="matrix(.06127 0 0 .06725 8.223 6.522)" fill="#e6e6e6" stroke-width="15.578"><g id="g1910"><path id="path1906" d="M243.206 388.211C-20.446 412.532-1.738 260.667 55.922 197.777V184.06C13.49 221.273-9.505 268.362 3.741 323.984c32.202 135.787 298.001 115.947 421.48 48.123v-38.79c-45.151 26.902-119.815 49.123-182.015 54.894z"/><path id="path1908" d="M509.731 183.131C485.732 65.967 258.24 58.539 111.597 147.804v9.861c146.476-75.307 354.247-74.849 373.163 33.082 6.347 35.702-13.763 72.9-49.692 94.316v28.006c43.22-15.854 87.552-67.13 74.663-129.938z"/></g><g id="g1916"><path id="path1912" d="M424.573 333.694v20.836C298.337 423.868 12.499 446.358.273 285.098c-.805 12.451.26 25.416 3.468 38.888 32.202 135.787 298.001 115.947 421.48 48.123v-38.79c-.212.124-.435.249-.648.375z"/><path id="path1914" d="M435.068 285.062v28.006c4.327-1.587 8.665-3.536 12.957-5.809v-11.923c0-3.923 1.952-7.592 5.214-9.771 32.643-21.802 50.516-57.092 44.482-91.032-7.066-40.319-40.488-65.639-87.221-77.617 39.89 13.148 67.866 37.348 74.26 73.831 6.347 35.702-13.763 72.9-49.692 94.315z"/></g><g id="g1930"><path id="path1918" d="M415.775 166.07h-23.996c-.699 0-1.265.566-1.265 1.265v116.88c0 13.513 6.375 25.307 25.116 27.655a1.266 1.266 0 0 0 1.411-1.26V167.335c0-.699-.567-1.265-1.266-1.265z"/><path id="path1920" d="M99.916 209.207H75.871c-.699 0-1.265.566-1.265 1.265l-.014 75.924c0 13.562 6.396 25.344 25.181 27.658a1.266 1.266 0 0 0 1.408-1.26V210.472c0-.699-.566-1.265-1.265-1.265z"/><path id="path1922" d="M74.606 170.93v22.615c0 .699.566 1.265 1.265 1.265h23.962c.699 0 1.265-.566 1.265-1.265V170.93c0-.699-.566-1.265-1.265-1.265H75.871a1.264 1.264 0 0 0-1.265 1.265z"/><path id="path1924" d="M260.047 312.985c-21.472 0-30.559-14.923-30.559-29.624V182.137c0-.699.566-1.265 1.265-1.265h23.767c.699 0 1.265.566 1.265 1.265v25.804c0 .699.566 1.265 1.265 1.265h17.272c.699 0 1.265.566 1.265 1.265v18.71c0 .699-.566 1.265-1.265 1.265H257.05c-.699 0-1.265.566-1.265 1.265v50.024c0 5.993 2.845 9.333 9.094 9.333h9.443c.699 0 1.265.566 1.265 1.265v19.385c0 .699-.566 1.265-1.265 1.265h-14.275"/><path id="path1926" d="M308.434 269.32c0 13.458 8.416 23.346 23.305 23.346 11.159 0 16.905-2.96 23.278-9.039a1.27 1.27 0 0 1 1.753-.012l14.415 13.731c.521.496.526 1.335.007 1.834-10.137 9.741-20.968 15.624-39.648 15.624-25.166 0-49.276-13.736-49.276-53.776 0-34.232 21.069-53.581 48.693-53.581 28.082 0 44.221 22.652 44.221 52.387v8.22c0 .699-.566 1.265-1.265 1.265l-65.483.001m2.528-29.235c-1.534 3.376-2.194 6.081-2.454 9.942a1.273 1.273 0 0 0 1.264 1.363h37.844c.729 0 1.319-.616 1.263-1.343-2.177-28.113-31.201-24.297-37.917-9.962z"/><path id="path1928" d="M172.602 230.447c7.711 0 10.916 3.812 10.916 10v71.426c0 .699.566 1.265 1.265 1.265h23.771c.699 0 1.265-.566 1.265-1.265v-71.579c0-14.761-7.864-31.059-30.96-31.059l-53.065-.027c-.699 0-1.266.566-1.266 1.265v101.4c0 .699.566 1.265 1.265 1.265h23.781c.699 0 1.265-.566 1.265-1.265v-80.161c0-.699.566-1.265 1.265-1.265z"/></g><g id="g1944"><path id="path1932" d="M403.907 284.215v-116.88c0-.699.566-1.265 1.265-1.265h-13.393c-.699 0-1.265.566-1.265 1.265v116.88c0 13.513 6.375 25.307 25.116 27.655a1.266 1.266 0 0 0 1.411-1.26v-2.234c-9.582-4.959-13.134-14.08-13.134-24.161z"/><path id="path1934" d="M87.985 286.396l.014-75.924c0-.698.566-1.265 1.265-1.265H75.871c-.699 0-1.265.566-1.265 1.265l-.014 75.924c0 13.562 6.397 25.344 25.181 27.658a1.266 1.266 0 0 0 1.409-1.26v-2.198c-9.628-4.942-13.197-14.074-13.197-24.2z"/><path id="path1936" d="M87.999 193.544v-22.615c0-.699.566-1.265 1.265-1.265H75.871c-.699 0-1.265.566-1.265 1.265v22.615c0 .699.566 1.265 1.265 1.265h13.393a1.265 1.265 0 0 1-1.265-1.265z"/><path id="path1938" d="M242.882 283.361V182.138c0-.699.566-1.265 1.265-1.265h-13.393c-.699 0-1.265.566-1.265 1.265v101.224c0 14.701 9.086 29.624 30.559 29.624h13.393c-21.473-.001-30.559-14.924-30.559-29.625z"/><path id="path1940" d="M295.662 261.029c0-31.296 17.613-50.141 41.742-53.146a48.527 48.527 0 0 0-6.442-.435c-27.624 0-48.692 19.349-48.692 53.581 0 40.04 24.11 53.776 49.276 53.776 2.478 0 4.81-.111 7.028-.313-22.717-2.216-42.912-16.819-42.912-53.463z"/><path id="path1942" d="M137.92 311.873v-101.4c0-.687.55-1.24 1.232-1.258l-13.359-.007c-.699 0-1.266.566-1.266 1.265v101.4c0 .699.566 1.265 1.265 1.265h13.393a1.266 1.266 0 0 1-1.265-1.265z"/></g></g></svg>