<svg xmlns:osb="http://www.openswatchbook.org/uri/2009/osb" xmlns="http://www.w3.org/2000/svg" xmlns:xlink="http://www.w3.org/1999/xlink" width="48" height="48" version="1.1" id="svg38"><defs id="defs22"><linearGradient id="linearGradient4488"><stop id="stop4490" offset="0" stop-color="#000" stop-opacity=".047"/><stop id="stop4492" offset="1" stop-color="#000" stop-opacity="0"/></linearGradient><style id="style4511"/><style id="style4511-26"/><style id="style4511-9"/><style id="style4552"/><style id="style4511-2"/><linearGradient xlink:href="#linearGradient4488" id="linearGradient4540" gradientUnits="userSpaceOnUse" gradientTransform="matrix(.30902 0 0 .3038 -64.017 1.994)" x1="288.112" y1="141.785" x2="287.575" y2="79.008"/><linearGradient osb:paint="solid" id="linearGradient5293"><stop id="stop5295" offset="0" stop-color="#9a89c0" stop-opacity="1"/></linearGradient><linearGradient xlink:href="#linearGradient4245" id="linearGradient1535" x1="2.583" y1="23.586" x2="44.83" y2="23.586" gradientUnits="userSpaceOnUse" gradientTransform="matrix(1.01711 0 0 1.01944 -.045 -.052)"/><linearGradient id="linearGradient4245"><stop offset="0" id="stop4241" stop-color="#520053" stop-opacity="1"/><stop offset="1" id="stop4243" stop-color="#9c039e" stop-opacity="1"/></linearGradient><linearGradient gradientUnits="userSpaceOnUse" y2="375" x2="256" y1="138" x1="256" id="linearGradient4413" xlink:href="#linearGradient4295"/><linearGradient id="linearGradient4295"><stop id="stop4260" offset="0" stop-color="#000" stop-opacity="0"/><stop offset=".505" id="stop4262" stop-color="#000" stop-opacity="1"/><stop id="stop4264" offset="1" stop-color="#000" stop-opacity="0"/></linearGradient><filter height="1.181" y="-.091" width="1.204" x="-.102" id="filter4415" color-interpolation-filters="sRGB"><feGaussianBlur id="feGaussianBlur4417" stdDeviation="9.064"/></filter><filter height="1.023" y="-.011" width="1.026" x="-.013" id="filter4460" color-interpolation-filters="sRGB"><feGaussianBlur id="feGaussianBlur4462" stdDeviation="1.133"/></filter><filter height="1.096" y="-.048" width="1.096" x="-.048" id="filter1555" color-interpolation-filters="sRGB"><feGaussianBlur id="feGaussianBlur1557" stdDeviation=".794"/></filter></defs><style id="style4485" type="text/css"/><g id="g1528" fill-opacity="1"><path d="M2.75 26.22v1.67c0 9.573 5.68 17.281 17.44 17.281h7.05c15.392 0 18.143-11.322 18.143-17.282v-1.668c0 5.96-2.75 17.282-18.143 17.282h-7.05c-11.76 0-17.44-7.708-17.44-17.282z" id="path4516" opacity="1" fill="url(#linearGradient4540)" stroke="none" stroke-width="1.109" stroke-linecap="square" stroke-linejoin="bevel" stroke-miterlimit="4" stroke-dasharray="none" stroke-dashoffset="0" stroke-opacity=".078"/><path d="M19.649 2.744h8.64c14.146 0 17.092 11.465 17.092 17.618v7.262c0 6.075-2.75 17.618-18.141 17.618h-7.05c-11.76 0-17.439-7.858-17.439-17.618v-7.262c0-9.76 5.564-17.618 16.898-17.618z" id="path4518" opacity="1" fill="url(#linearGradient1535)" stroke="#000" stroke-width=".34" stroke-linecap="square" stroke-linejoin="bevel" stroke-miterlimit="4" stroke-dasharray="none" stroke-dashoffset="0" stroke-opacity=".078"/><g transform="translate(57.153 -.407)" id="g1516" stroke="none"><circle r="19.844" cy="262.635" cx="33.867" id="circle1541" transform="matrix(.72684 0 0 .72602 -57.71 -166.776)" opacity=".3" fill="#000" stroke-width="3.035" stroke-linecap="round" stroke-linejoin="bevel" stroke-miterlimit="4" stroke-dasharray="none" stroke-opacity="1" filter="url(#filter1555)"/><ellipse id="path1539" cx="-33.086" cy="24.4" rx="14.423" ry="14.407" opacity="1" fill="#cecece" stroke-width="2.204" stroke-linecap="round" stroke-linejoin="bevel" stroke-miterlimit="4" stroke-dasharray="none" stroke-opacity="1"/><g id="g1983" transform="matrix(.72684 0 0 .72602 -58.969 -166.844)" color="#000" visibility="visible" fill-rule="nonzero"><path transform="translate(12.415 238.731) scale(.09333)" style="marker:none" d="M155.411 138v240s121.725-49.198 221.19-120.076c0-.022-.012-.04-.025-.064a.456.456 0 0 0-.045-.079.611.611 0 0 1-.05-.079.165.165 0 0 1-.026-.075C271.54 184.488 155.411 138 155.411 138z" id="path4405" display="inline" overflow="visible" opacity=".4" fill="url(#linearGradient4413)" stroke-width="6" filter="url(#filter4415)" enable-background="accumulate"/><path transform="translate(12.415 238.731) scale(.09333)" style="marker:none" d="M155.411 138v240s121.725-49.198 221.19-120.076c0-.022-.012-.04-.025-.064a.456.456 0 0 0-.045-.079.611.611 0 0 1-.05-.079.165.165 0 0 1-.026-.075C271.54 184.488 155.411 138 155.411 138z" id="path4454" display="inline" overflow="visible" opacity=".1" fill="#000" stroke-width="6" filter="url(#filter4460)" enable-background="accumulate"/><path id="path4360" d="M26.918 251.423v22.398s11.36-4.591 20.643-11.206l-.003-.006a.022.022 0 0 0-.004-.007l-.004-.007-.003-.007c-9.791-6.825-20.629-11.164-20.629-11.164z" style="marker:none" display="inline" overflow="visible" fill="#660367" stroke-width=".56" enable-background="accumulate"/><path id="path4472" d="M26.918 251.423v.187s10.764 4.308 20.522 11.09l.12-.085-.002-.006a.022.022 0 0 0-.004-.007l-.005-.007-.002-.007c-9.791-6.825-20.629-11.164-20.629-11.164z" style="marker:none" display="inline" overflow="visible" fill="#a359a3" stroke-width=".56" enable-background="accumulate"/></g></g></g></svg>