<svg xmlns="http://www.w3.org/2000/svg" xmlns:xlink="http://www.w3.org/1999/xlink" width="48" height="48" version="1.1" id="svg38"><defs id="defs22"><linearGradient id="linearGradient4488"><stop id="stop4490" offset="0" stop-color="#000" stop-opacity=".047"/><stop id="stop4492" offset="1" stop-color="#000" stop-opacity="0"/></linearGradient><style id="style4511"/><style id="style4511-26"/><style id="style4511-9"/><style id="style4552"/><style id="style4511-2"/><linearGradient gradientTransform="translate(-63.205 2.216) scale(.3038)" xlink:href="#linearGradient4488" id="linearGradient4160" x1="288.112" y1="141.785" x2="287.575" y2="79.008" gradientUnits="userSpaceOnUse"/><linearGradient id="linearGradient4245"><stop offset="0" id="stop4241" stop-color="#e8e8e8" stop-opacity="1"/><stop offset="1" id="stop4243" stop-color="#f5f5f5" stop-opacity="1"/></linearGradient><linearGradient xlink:href="#linearGradient4245" id="linearGradient1320" x1="2.266" y1="23.808" x2="44.513" y2="23.808" gradientUnits="userSpaceOnUse"/></defs><style id="style4485" type="text/css"/><g id="g1327" fill-opacity="1" stroke-linecap="square" stroke-miterlimit="4" stroke-dasharray="none" stroke-dashoffset="0"><path id="path4147" d="M2.433 26.443v1.668c0 9.575 5.583 17.282 17.146 17.282h6.93c15.133 0 17.837-11.322 17.837-17.282v-1.668c0 5.96-2.704 17.282-17.837 17.282h-6.93c-11.563 0-17.146-7.708-17.146-17.282z" opacity="1" fill="url(#linearGradient4160)" stroke="none" stroke-width="1.1" stroke-linejoin="bevel" stroke-opacity=".078"/><path id="rect4144" d="M19.046 2.965h8.495c13.908 0 16.805 11.246 16.805 17.282v7.123c0 5.96-2.704 17.282-17.837 17.282h-6.93c-11.562 0-17.146-7.708-17.146-17.282v-7.123c0-9.575 5.47-17.282 16.613-17.282z" opacity="1" fill="url(#linearGradient1320)" stroke="#000" stroke-width=".334" stroke-linejoin="bevel" stroke-opacity=".078"/><g transform="matrix(.26499 0 0 .27402 -17.463 -20.41)" id="g972" display="inline" stroke="none" stroke-width="2" stroke-linejoin="round" stroke-opacity="1"><path d="M152 104c-13.296 0-24 5.352-24 12v16h24v4h-44c-6.648 0-12 10.704-12 24v4c0 13.296 5.352 24 12 24h16v-12s0-16 16-16h32s8 0 8-8v-36c0-6.648-10.704-12-24-12zm-12 8a4 4 0 1 1 0 8 4 4 0 0 1 0-8z" id="rect942" opacity="1" fill="#347ab4"/><path id="path962" d="M156 220c13.296 0 24-5.352 24-12v-16h-24v-4h44c6.648 0 12-10.704 12-24v-4c0-13.296-5.352-24-12-24h-16v16c0 12-12 12-12 12h-32c-12 0-12 12-12 12v32c0 6.648 10.704 12 24 12zm12-12a4 4 0 1 1 0-8 4 4 0 0 1 0 8z" opacity="1" fill="#ffd43b"/></g></g><g id="g1355" transform="matrix(1.09 0 0 .99174 -.585 .224)" fill="#4d4d4d" fill-opacity="1" fill-rule="evenodd" stroke="none" stroke-width=".748"><path d="M13.273 31.105v-.791l2.828-.792V18.44l-2.828-.792v-.791h7.068v.791l-2.827.792v11.082l2.827.792v.791" id="path1257"/><path d="M25.289 25.564v5.541h-1.414V16.857h3.272c3 0 4.503 1.391 4.503 4.171 0 1.423-.406 2.536-1.218 3.334-.806.8-1.98 1.2-3.523 1.2m-.185-1.54c1.157 0 1.986-.235 2.483-.702.502-.47.753-1.2.753-2.193 0-1.815-.988-2.687-2.962-2.687h-1.71v5.541" id="path1259"/></g></svg>