<svg xmlns="http://www.w3.org/2000/svg" xmlns:xlink="http://www.w3.org/1999/xlink" width="48" height="48" version="1.1" id="svg38"><defs id="defs22"><linearGradient id="linearGradient4488"><stop id="stop4490" offset="0" stop-color="#000" stop-opacity=".047"/><stop id="stop4492" offset="1" stop-color="#000" stop-opacity="0"/></linearGradient><style id="style4511"/><style id="style4511-26"/><style id="style4511-9"/><style id="style4552"/><style id="style4511-2"/><linearGradient xlink:href="#linearGradient4488" id="linearGradient4546" gradientUnits="userSpaceOnUse" gradientTransform="translate(-62.497 1.994) scale(.3038)" x1="288.112" y1="141.785" x2="287.575" y2="79.008"/><linearGradient id="linearGradient4298"><stop id="stop4300" stop-color="#42a603"/><stop offset="1" id="stop4302" stop-color="#78da06"/></linearGradient><linearGradient xlink:href="#linearGradient4298" id="linearGradient4485" x1="25.266" y1="45.015" x2="22.641" y2="3.739" gradientUnits="userSpaceOnUse"/></defs><style id="style4485" type="text/css"/><path d="M3.141 26.22v1.67c0 9.573 5.583 17.281 17.146 17.281h6.93c15.133 0 17.837-11.322 17.837-17.282v-1.668c0 5.96-2.704 17.282-17.837 17.282h-6.93c-11.563 0-17.146-7.708-17.146-17.282z" id="path4528" opacity="1" fill="url(#linearGradient4546)" fill-opacity="1" stroke="none" stroke-width="1.1" stroke-linecap="square" stroke-linejoin="bevel" stroke-miterlimit="4" stroke-dasharray="none" stroke-dashoffset="0" stroke-opacity=".078"/><path d="M19.754 2.742h8.495c13.908 0 16.805 11.247 16.805 17.282v7.124c0 5.96-2.704 17.282-17.837 17.282h-6.93c-11.562 0-17.146-7.708-17.146-17.282v-7.124c0-9.574 5.47-17.282 16.613-17.282z" id="path4530" opacity="1" fill="url(#linearGradient4485)" fill-opacity="1" stroke="#000" stroke-width=".334" stroke-linecap="square" stroke-linejoin="bevel" stroke-miterlimit="4" stroke-dasharray="none" stroke-dashoffset="0" stroke-opacity=".078"/><path d="M24.093 10.441c-.374.003-.747.022-1.12.055-.27.021-.534.055-.798.092-.14.018-.28.038-.42.06a13.796 13.796 0 0 0-1.184.254c-5.535 1.442-9.588 6.179-9.588 11.801 0 .04.004.082.004.123a9.22 9.22 0 0 0-.004.074c.007 3.86 2.026 7.482 5.246 9.836l-.355 3.936 3.834-2.047c1.408.481 2.892.73 4.389.734 6.976-.007 12.726-5.203 13.082-11.822.01-.145.018-.29.023-.435l.01-.202c0-.027 0-.053-.002-.08l.002-.117c0-6.35-5.164-11.583-11.805-12.197-.363-.032-.727-.05-1.092-.053-.073-.001-.144-.012-.218-.012h-.004zm-1.664 5.862h1.212l-.884 4.248h3.642l.885-4.248h1.215l-.887 4.248h4.225l-.305 1.215H27.36l-.76 3.64h4.63l-.303 1.215h-4.579l-.884 4.248h-1.215l.887-4.248h-3.643l-.887 4.248h-1.213l.885-4.248h-3.92l.303-1.215h3.871l.758-3.64h-4.324l.302-1.215h4.274l.887-4.248zm.076 5.463l-.76 3.64h3.643l.757-3.64h-3.64z" id="path2-6-1-9" fill="#fff" fill-opacity="1" stroke="#000" stroke-width=".156" stroke-miterlimit="4" stroke-dasharray="none" stroke-opacity=".063"/></svg>