<svg xmlns="http://www.w3.org/2000/svg" width="48" height="48" version="1.1" id="svg38"><defs id="defs22"><style id="style4511"/><style id="style4511-26"/><style id="style4511-9"/><style id="style4552"/><style id="style4511-2"/><filter height="1.557" y="-.279" width="1.379" x="-.19" id="filter1016" color-interpolation-filters="sRGB"><feGaussianBlur id="feGaussianBlur1018" stdDeviation="3.661"/></filter><filter height="1.529" y="-.264" width="1.529" x="-.264" id="filter1020" color-interpolation-filters="sRGB"><feGaussianBlur id="feGaussianBlur1022" stdDeviation="3.661"/></filter><filter height="1.106" y="-.053" width="1.143" x="-.071" id="filter1024" color-interpolation-filters="sRGB"><feGaussianBlur id="feGaussianBlur1026" stdDeviation="3.661"/></filter><filter height="1.456" y="-.228" width="1.247" x="-.124" id="filter1028" color-interpolation-filters="sRGB"><feGaussianBlur id="feGaussianBlur1030" stdDeviation="3.661"/></filter><filter height="1.141" y="-.071" width="1.151" x="-.076" id="filter1032" color-interpolation-filters="sRGB"><feGaussianBlur id="feGaussianBlur1034" stdDeviation="3.661"/></filter></defs><style id="style4485" type="text/css"/><path d="M19.677 3.253h8.618c14.108 0 17.047 11.413 17.047 17.537v7.229c0 6.047-2.744 17.537-18.094 17.537h-7.03c-11.73 0-17.394-7.822-17.394-17.537V20.79c0-9.715 5.549-17.537 16.853-17.537z" id="rect4144" opacity="1" fill="#e6e6e6" fill-opacity="1" stroke="#000" stroke-width=".339" stroke-linecap="square" stroke-linejoin="bevel" stroke-miterlimit="4" stroke-dasharray="none" stroke-dashoffset="0" stroke-opacity=".078"/><g id="g1318" transform="matrix(1 0 0 1.02896 54.527 1.75)"><g transform="matrix(.163 0 0 .17074 -51.056 .739)" id="g921" stroke-width="5.192"><path id="path923" d="M142.484 104.285c-.029-.642-.091-1.305-.13-1.933-.357-4.71-.95-9.077-1.62-13.019-.13-.605-.227-1.21-.336-1.783-.045-.261-.096-.504-.142-.767-.065-.239-.11-.5-.16-.73a163.861 163.861 0 0 0-21.31-2.674 162.126 162.126 0 0 0-11.896-.274c-8.111.1-16.24.809-24.342 2.135-.842.121-1.702.277-2.547.425-.321.064-.642.105-.948.181a158.646 158.646 0 0 0-16.52 3.945 77.121 77.121 0 0 0-3.503 1.062c-.666.198-1.34.412-1.985.625a175.302 175.302 0 0 0-11.217 4.156 167.243 167.243 0 0 0-19.377 9.532 133.305 133.305 0 0 0 5.66 25.91 129.408 129.408 0 0 0 6.073 15.263l.037.052a124.698 124.698 0 0 0 10.497 18.118 122.56 122.56 0 0 0 4.263 5.779 124.58 124.58 0 0 0 48.11 37.407c.105-.103.222-.191.323-.294.237-.233.497-.473.735-.7 3.854-3.6 7.95-7.92 12.067-12.995.306-.395.626-.778.93-1.179.252-.298.479-.615.73-.913.542-.73 1.12-1.47 1.683-2.227a130.152 130.152 0 0 0 12.83-21.515c.282-.588.55-1.156.81-1.742a127.187 127.187 0 0 0 5.522-14.432c.18-.567.365-1.143.556-1.747.025-.11.05-.216.1-.324l-.002-.017a127.386 127.386 0 0 0 3.423-14.675c.054-.276.096-.566.152-.82.112-.657.21-1.291.297-1.935.75-4.834 1.186-9.473 1.385-13.941.02-.674.046-1.323.045-1.992.154-4.193.057-8.184-.19-11.966" opacity=".3" fill="#000" fill-opacity="1" filter="url(#filter1032)"/><path d="M142.484 104.285c-.029-.642-.091-1.305-.13-1.933-.357-4.71-.95-9.077-1.62-13.019-.13-.605-.227-1.21-.336-1.783-.045-.261-.096-.504-.142-.767-.065-.239-.11-.5-.16-.73a163.861 163.861 0 0 0-21.31-2.674 162.126 162.126 0 0 0-11.896-.274c-8.111.1-16.24.809-24.342 2.135-.842.121-1.702.277-2.547.425-.321.064-.642.105-.948.181a158.646 158.646 0 0 0-16.52 3.945 77.121 77.121 0 0 0-3.503 1.062c-.666.198-1.34.412-1.985.625a175.302 175.302 0 0 0-11.217 4.156 167.243 167.243 0 0 0-19.377 9.532 133.305 133.305 0 0 0 5.66 25.91 129.408 129.408 0 0 0 6.073 15.263l.037.052a124.698 124.698 0 0 0 10.497 18.118 122.56 122.56 0 0 0 4.263 5.779 124.58 124.58 0 0 0 48.11 37.407c.105-.103.222-.191.323-.294.237-.233.497-.473.735-.7 3.854-3.6 7.95-7.92 12.067-12.995.306-.395.626-.778.93-1.179.252-.298.479-.615.73-.913.542-.73 1.12-1.47 1.683-2.227a130.152 130.152 0 0 0 12.83-21.515c.282-.588.55-1.156.81-1.742a127.187 127.187 0 0 0 5.522-14.432c.18-.567.365-1.143.556-1.747.025-.11.05-.216.1-.324l-.002-.017a127.386 127.386 0 0 0 3.423-14.675c.054-.276.096-.566.152-.82.112-.657.21-1.291.297-1.935.75-4.834 1.186-9.473 1.385-13.941.02-.674.046-1.323.045-1.992.154-4.193.057-8.184-.19-11.966" id="path6" fill="#4282de"/><path id="path927" d="M133.5 41.587a92.1 92.1 0 0 0-15.332 1.72 91.15 91.15 0 0 0-14.894 4.299c4.5 2.956 8.665 9.077 12.315 13.288a69.436 69.436 0 0 1 5.419-1.25c20.582-4.085 39.722-1.822 55.926 8.795l15.381-6.864.422-.194a90.99 90.99 0 0 0-59.236-19.794zm65.37 25.164l-.195.097c-1.358.65-2.663 1.304-4.024 1.947-1.39.6-2.772 1.216-4.186 1.85a111.8 111.8 0 0 1-5.402 2.239c-1.109.435-2.26.892-3.391 1.363-1.51.599-3.087 1.114-4.624 1.687-1.566.504-3.128 1.112-4.738 1.606-6.394 2.103-13.07 3.887-19.908 5.484-1.41.31-2.853.57-4.283.844l.081.39c.116.527.154.65.065.323l.114.39.081.405c.008.063.049.29.13.763.12.64.213 1.152.276 1.444l.033.179.017.162c.46 2.706.786 9.234 1.136 12.327 2.017-.66 4.045-1.302 6.02-2.012 6.975-2.598 13.696-5.38 20.004-8.453 1.585-.712 3.137-1.593 4.673-2.32 1.529-.833 3.046-1.536 4.527-2.352 1.982-1.123 3.927-2.19 5.824-3.278.935-.532 1.829-1.073 2.726-1.606 1.356-.833 2.7-1.662 4.024-2.45 1.306-.809 2.569-1.697 3.829-2.499.442-.29.877-.572 1.298-.86l-4.105-7.67zm27.484 45.932l-1.525.795a229.732 229.732 0 0 0-3.942 2.093c-1.277.68-2.537 1.334-3.83 1.914l-7.966 3.683-15.965 7.383-3.975 1.833c-1.292.6-2.707 1.097-4.04 1.623-10.56 4.44-24.647 7.745-37.608 10.66-.5 4.36-1.755 7.463-2.856 11.519-.437 1.388-.941 2.695-1.411 4.04 14.153.54 40.116-.267 64.12-20.46.943 5.999-9.558 20.486-13.402 25.1-14.137 17.028-38.84 20.428-62.043 19.745-2.47 4.18-5.025 8.118-7.658 11.698l-.017.017-.016.017c-.64.858-1.216 1.593-1.671 2.207l-.163.21-.162.195a22.45 22.45 0 0 0-.47.568l-.244.325c-.025.029-.008.017-.033.049-.278.353-.572.73-.698.892l-.049.081-.064.082c-1.9 2.344-3.798 4.474-5.679 6.522 2.286.5 4.618.813 6.912 1.2 2.382.522 4.817.591 7.285.747 2.45.113 4.865.41 7.333.195l7.431-.325 7.106-1.038 1.769-.243c.354-.072.483-.056.99-.179l.893-.213 3.553-.876c1.17-.303 2.374-.548 3.553-.924l3.456-1.169 3.44-1.184 3.358-1.477 3.343-1.46c1.088-.55 2.125-1.124 3.212-1.703l3.229-1.72c1.048-.584 2.032-1.316 3.066-1.947 2.036-1.294 4.081-2.6 5.938-4.154 1.93-1.472 3.88-2.91 5.614-4.624 1.812-1.624 3.637-3.231 5.176-4.997l2.434-2.58.6-.681.649-.714c.37-.465.764-.952 1.136-1.411 1.432-1.9 3.022-3.73 4.283-5.744l2.012-2.985c.636-1.024 1.217-2.076 1.817-3.115 1.287-2.075 2.303-4.194 3.326-6.296 1.07-2.04 2.03-4.472 2.823-6.603l1.233-3.359c.362-1.117.67-2.274 1.022-3.423l.974-3.44.73-3.455c.53-2.251.833-4.729 1.152-7.058.342-2.382.377-4.636.584-7.09.086-2.315-.025-4.752-.065-7.074z" opacity=".3" fill="#000" fill-opacity="1" filter="url(#filter1024)"/><path d="M88.753 116.317c-6.882 0-12.46 5.58-12.46 12.46a12.46 12.46 0 0 0 8.372 11.764v13.108l-.065.097 16.614-.049-4.3-15.525a12.46 12.46 0 0 0 4.3-9.394c0-6.882-5.579-12.46-12.46-12.46z" id="path10" fill="#fff"/><path id="path929" d="M187.302 96.745c-9.706 4.937-24.331 11.487-36.49 15.058.183 3.505.305 7.098.163 10.968a80.466 80.466 0 0 1-.049 1.963v.114c-.05 1.124-.163 2.293-.243 3.439 16.003-3.531 34.57-9.75 46.321-14.133-5.567-4.419-8.893-10.736-9.702-17.41z" opacity=".3" fill="#000" fill-opacity="1" filter="url(#filter1016)"/><path d="M133.5 41.587a92.1 92.1 0 0 0-15.332 1.72 91.15 91.15 0 0 0-14.894 4.299c4.5 2.956 8.665 9.077 12.315 13.288a69.436 69.436 0 0 1 5.419-1.25c20.582-4.085 39.722-1.822 55.926 8.795l15.381-6.864.422-.194a90.99 90.99 0 0 0-59.236-19.794zm65.37 25.164l-.195.097c-1.358.65-2.663 1.304-4.024 1.947-1.39.6-2.772 1.216-4.186 1.85a111.8 111.8 0 0 1-5.402 2.239c-1.109.435-2.26.892-3.391 1.363-1.51.599-3.087 1.114-4.624 1.687-1.566.504-3.128 1.112-4.738 1.606-6.394 2.103-13.07 3.887-19.908 5.484-1.41.31-2.853.57-4.283.844l.081.39c.116.527.154.65.065.323l.114.39.081.405c.008.063.049.29.13.763.12.64.213 1.152.276 1.444l.033.179.017.162c.46 2.706.786 9.234 1.136 12.327 2.017-.66 4.045-1.302 6.02-2.012 6.975-2.598 13.696-5.38 20.004-8.453 1.585-.712 3.137-1.593 4.673-2.32 1.529-.833 3.046-1.536 4.527-2.352 1.982-1.123 3.927-2.19 5.824-3.278.935-.532 1.829-1.073 2.726-1.606 1.356-.833 2.7-1.662 4.024-2.45 1.306-.809 2.569-1.697 3.829-2.499.442-.29.877-.572 1.298-.86l-4.105-7.67zm27.484 45.932l-1.525.795a229.732 229.732 0 0 0-3.942 2.093c-1.277.68-2.537 1.334-3.83 1.914l-7.966 3.683-15.965 7.383-3.975 1.833c-1.292.6-2.707 1.097-4.04 1.623-10.56 4.44-24.647 7.745-37.608 10.66-.5 4.36-1.755 7.463-2.856 11.519-.437 1.388-.941 2.695-1.411 4.04 14.153.54 40.116-.267 64.12-20.46.943 5.999-9.558 20.486-13.402 25.1-14.137 17.028-38.84 20.428-62.043 19.745-2.47 4.18-5.025 8.118-7.658 11.698l-.017.017-.016.017c-.64.858-1.216 1.593-1.671 2.207l-.163.21-.162.195a22.45 22.45 0 0 0-.47.568l-.244.325c-.025.029-.008.017-.033.049-.278.353-.572.73-.698.892l-.049.081-.064.082c-1.9 2.344-3.798 4.474-5.679 6.522 2.286.5 4.618.813 6.912 1.2 2.382.522 4.817.591 7.285.747 2.45.113 4.865.41 7.333.195l7.431-.325 7.106-1.038 1.769-.243c.354-.072.483-.056.99-.179l.893-.213 3.553-.876c1.17-.303 2.374-.548 3.553-.924l3.456-1.169 3.44-1.184 3.358-1.477 3.343-1.46c1.088-.55 2.125-1.124 3.212-1.703l3.229-1.72c1.048-.584 2.032-1.316 3.066-1.947 2.036-1.294 4.081-2.6 5.938-4.154 1.93-1.472 3.88-2.91 5.614-4.624 1.812-1.624 3.637-3.231 5.176-4.997l2.434-2.58.6-.681.649-.714c.37-.465.764-.952 1.136-1.411 1.432-1.9 3.022-3.73 4.283-5.744l2.012-2.985c.636-1.024 1.217-2.076 1.817-3.115 1.287-2.075 2.303-4.194 3.326-6.296 1.07-2.04 2.03-4.472 2.823-6.603l1.233-3.359c.362-1.117.67-2.274 1.022-3.423l.974-3.44.73-3.455c.53-2.251.833-4.729 1.152-7.058.342-2.382.377-4.636.584-7.09.086-2.315-.025-4.752-.065-7.074z" id="path12-1" fill="#3f3f3f"/><path id="path931" d="M223.056 104.739c-4.206 6.288-11.95 8.826-18.813 6.658a15.476 15.476 0 0 1-4.219-2.009c-5.5-3.647-8.112-9.961-7.282-16.075a16.397 16.397 0 0 1 2.61-6.96c5.073-7.635 15.4-9.724 23.044-4.651 7.634 5.07 9.72 15.385 4.66 23.037" opacity=".3" fill="#000" fill-opacity="1" filter="url(#filter1020)"/><path d="M187.302 96.745c-9.706 4.937-24.331 11.487-36.49 15.058.183 3.505.305 7.098.163 10.968a80.466 80.466 0 0 1-.049 1.963v.114c-.05 1.124-.163 2.293-.243 3.439 16.003-3.531 34.57-9.75 46.321-14.133-5.567-4.419-8.893-10.736-9.702-17.41z" id="path14" fill="#4282de"/><path id="path933" d="M77.688 49.926a32.098 32.098 0 0 0-5.484.422c-17.082 2.781-29.147 18.787-30.713 38.128.387-.164.763-.359 1.152-.52h.049c3.626-1.48 7.286-2.84 11.05-4.104C56.31 72.282 63.829 63.3 74.055 61.624a21.382 21.382 0 0 1 7.496.13c.984.184 1.93.437 2.871.746 4.02 1.32 7.765 3.71 11 6.993a22.995 22.995 0 0 1 1.737 1.93c.963 1.13 1.836 2.394 2.644 3.716 2.332-.126 4.664-.328 6.993-.357 1.928-.025 3.884.104 5.825.146-1.43-3.105-3.026-6.077-4.997-8.68a54.597 54.597 0 0 0-1.915-2.401c-2.824-3.266-6.03-6.067-9.491-8.242a36.12 36.12 0 0 0-2.856-1.671c-4.886-2.535-10.219-3.96-15.673-4.008z" opacity=".3" fill="#000" fill-opacity="1" filter="url(#filter1028)"/><path d="M223.056 104.739c-4.206 6.288-11.95 8.826-18.813 6.658a15.476 15.476 0 0 1-4.219-2.009c-5.5-3.647-8.112-9.961-7.282-16.075a16.397 16.397 0 0 1 2.61-6.96c5.073-7.635 15.4-9.724 23.044-4.651 7.634 5.07 9.72 15.385 4.66 23.037" id="path16" fill="#4282de"/><path d="M77.688 49.926a32.098 32.098 0 0 0-5.484.422c-17.082 2.781-29.147 18.787-30.713 38.128.387-.164.763-.359 1.152-.52h.049c3.626-1.48 7.286-2.84 11.05-4.104C56.31 72.282 63.829 63.3 74.055 61.624a21.382 21.382 0 0 1 7.496.13c.984.184 1.93.437 2.871.746 4.02 1.32 7.765 3.71 11 6.993a22.995 22.995 0 0 1 1.737 1.93c.963 1.13 1.836 2.394 2.644 3.716 2.332-.126 4.664-.328 6.993-.357 1.928-.025 3.884.104 5.825.146-1.43-3.105-3.026-6.077-4.997-8.68a54.597 54.597 0 0 0-1.915-2.401c-2.824-3.266-6.03-6.067-9.491-8.242a36.12 36.12 0 0 0-2.856-1.671c-4.886-2.535-10.219-3.96-15.673-4.008z" id="path18" fill="#3f3f3f"/></g></g></svg>