<svg xmlns="http://www.w3.org/2000/svg" xmlns:xlink="http://www.w3.org/1999/xlink" width="48" height="48" version="1.1" id="svg38"><defs id="defs22"><linearGradient id="linearGradient4488"><stop id="stop4490" offset="0" stop-color="#000" stop-opacity=".047"/><stop id="stop4492" offset="1" stop-color="#000" stop-opacity="0"/></linearGradient><style id="style4511"/><style id="style4511-26"/><style id="style4511-9"/><style id="style4552"/><linearGradient gradientTransform="translate(61.546 14.229) scale(.65656)" gradientUnits="userSpaceOnUse" x2="24.839" y2="17.991" x1="27.04" y1="16.621" id="d-6"><stop id="stop4583-7" stop-color="#fcfcfc"/><stop id="stop4585-5" stop-color="#c7c7c7" offset="1"/></linearGradient><style id="style4511-2"/><linearGradient xlink:href="#linearGradient4488" id="linearGradient4471" gradientUnits="userSpaceOnUse" gradientTransform="translate(-62.47 2.216) scale(.3038)" x1="288.112" y1="141.785" x2="287.575" y2="79.008"/><circle id="SVGID_1_" r="15.999" cy="-31.965" cx="73.957"/><linearGradient xlink:href="#d-6" id="linearGradient1716" x1="3.001" y1="23.808" x2="45.248" y2="23.808" gradientUnits="userSpaceOnUse"/></defs><style id="style4485" type="text/css"/><g id="g9" transform="translate(-49.354 -2.761)"><g id="g11"><g id="g13"><g id="g15"><g id="g17" opacity=".15"><g id="g19"><clipPath id="SVGID_2_"><use id="use25" x="0" y="0" width="1" height="1" xlink:href="#SVGID_1_" overflow="visible"/></clipPath></g></g></g></g></g></g><path d="M3.168 26.443v1.668c0 9.575 5.583 17.282 17.146 17.282h6.93c15.132 0 17.836-11.322 17.836-17.282v-1.668c0 5.96-2.704 17.282-17.836 17.282h-6.93c-11.563 0-17.146-7.708-17.146-17.282z" id="path4467" opacity="1" fill="url(#linearGradient4471)" fill-opacity="1" stroke="none" stroke-width="1.1" stroke-linecap="square" stroke-linejoin="bevel" stroke-miterlimit="4" stroke-dasharray="none" stroke-dashoffset="0" stroke-opacity=".078"/><path d="M19.781 2.965h8.495c13.908 0 16.805 11.246 16.805 17.282v7.123c0 5.96-2.705 17.282-17.837 17.282h-6.93c-11.563 0-17.146-7.708-17.146-17.282v-7.123c0-9.575 5.47-17.282 16.613-17.282z" id="path4469" opacity="1" fill="url(#linearGradient1716)" fill-opacity="1" stroke="#000" stroke-width=".334" stroke-linecap="square" stroke-linejoin="bevel" stroke-miterlimit="4" stroke-dasharray="none" stroke-dashoffset="0" stroke-opacity=".078"/><g id="g1708" transform="matrix(.89213 0 0 .88135 2.306 2.574)"><g transform="translate(1.42 .076)" id="g1549"><linearGradient y2="6.615" x2="13.686" y1="41.258" x1="32.3" gradientUnits="userSpaceOnUse" id="SVGID_1_-3"><stop id="stop1525" offset="0" stop-color="#b0c9d9"/><stop id="stop1527" offset="1" stop-color="#d2e0ea"/></linearGradient><path id="path1530" d="M37.178 9.874c-7.81-7.81-20.474-7.81-28.284 0-7.81 7.81-7.81 20.474 0 28.284 7.81 7.81 20.474 7.81 28.284 0 7.81-7.81 7.81-20.473 0-28.284zM23.036 34.016c-5.523 0-10-4.477-10-10s4.477-10 10-10 10 4.477 10 10-4.478 10-10 10z" fill="url(#SVGID_1_-3)"/><linearGradient gradientTransform="rotate(38.131 -161.975 29.993)" y2="-88.961" x2="-.657" y1="-88.961" x1="-39.657" gradientUnits="userSpaceOnUse" id="SVGID_2_-6"><stop id="stop1532" offset="0" stop-color="#fff" stop-opacity="0"/><stop id="stop1534" offset=".15" stop-color="#fff" stop-opacity="0"/><stop id="stop1536" offset=".5" stop-color="#fff"/><stop id="stop1538" offset=".85" stop-color="#fff" stop-opacity="0"/><stop id="stop1540" offset="1" stop-color="#fff" stop-opacity="0"/></linearGradient><path id="path1543" d="M42.396 21.669C41.109 10.977 31.397 3.353 20.705 4.64 10.013 5.927 2.388 15.638 3.675 26.331 4.962 37.024 14.674 44.647 25.366 43.36c10.692-1.287 18.317-10.998 17.03-21.691zm-24.431 8.789a8.21 8.21 0 1 1 10.14-12.916 8.21 8.21 0 1 1-10.14 12.916z" opacity=".8" fill="url(#SVGID_2_-6)"/><circle id="circle1545" r="8" cy="24" cx="23.036" opacity=".15" fill="none" stroke="#000" stroke-width="4.8" stroke-linecap="round"/><path id="path1547" d="M33.642 13.41c-5.858-5.858-15.355-5.858-21.213 0-5.858 5.858-5.858 15.355 0 21.213 5.858 5.858 15.355 5.858 21.213 0 5.858-5.858 5.858-15.355 0-21.213zM23.036 29.016a5 5 0 1 1 .001-10.001 5 5 0 0 1-.001 10.001z" opacity=".3" fill="#fff"/></g><g transform="matrix(.67268 0 0 .70607 10.198 11.464)" id="g1565"><g id="g1561"><path id="path1551" d="M35.031 31.554l-8.214 7.19.454-10.734 12.07-21.313c.885-1.488 2.601-2.116 3.958-1.449 1.357.668 1.906 2.411 1.267 4.02z" fill="#ebbd1c"/><path id="path1553" d="M29.354 30.077l-2.37 8.328 5.157-6.851s.517-.837-.861-1.771c-1.379-.934-1.926.294-1.926.294z" fill="#efd581"/><path id="path1555" d="M35.031 31.554s-1.221-.698-2.891 0c-.285-2.648-1.694-2.271-2.875-1.415-.122-2.564-1.995-2.129-1.995-2.129L39.34 6.697c.885-1.488 2.601-2.116 3.958-1.449 1.357.668 1.906 2.411 1.267 4.02z" fill="#0060de"/><g id="g1559"><path id="path1557" d="M43.3 5.249a2.535 2.535 0 0 0-.827-.243c-.284-.033-13.207 25.134-13.207 25.134 1.02-.426 2.753-.01 2.875 1.415 0 0 12.071-25.572 11.884-25.77a2.563 2.563 0 0 0-.725-.536z" fill="#1c7eff"/></g></g><path id="path1563" d="M26.905 36.656l-.088 2.088 1.544-1.352c0 .001-.892.124-1.456-.736z" fill="#231815"/></g></g></svg>