<svg xmlns="http://www.w3.org/2000/svg" xmlns:xlink="http://www.w3.org/1999/xlink" width="48" height="48" version="1.1" id="svg38"><defs id="defs22"><style id="style4511"/><style id="style4511-26"/><style id="style4511-9"/><linearGradient id="linearGradient4191"><stop id="stop17-3-7" offset="0" stop-color="#dc2b41" stop-opacity="1"/><stop id="stop19-5-5" offset="1" stop-color="#c61423" stop-opacity="1"/></linearGradient><style id="style4552"/><style id="style4511-2"/><linearGradient xlink:href="#linearGradient4191" id="linearGradient1195" x1="2.367" y1="23.808" x2="45.224" y2="23.808" gradientUnits="userSpaceOnUse" gradientTransform="matrix(.99994 0 0 1.01475 .289 .245)"/><clipPath id="clipPath-388705384"/></defs><style id="style4485" type="text/css"/><path d="M19.677 3.253h8.618c14.108 0 17.047 11.413 17.047 17.537v7.229c0 6.047-2.744 17.537-18.094 17.537h-7.03c-11.73 0-17.394-7.822-17.394-17.537V20.79c0-9.715 5.549-17.537 16.853-17.537z" id="rect4144" opacity="1" fill="url(#linearGradient1195)" fill-opacity="1" stroke="#000" stroke-width=".339" stroke-linecap="square" stroke-linejoin="bevel" stroke-miterlimit="4" stroke-dasharray="none" stroke-dashoffset="0" stroke-opacity=".078"/><path id="path1242" d="M21.247 24.1c0-.413-.075-.862-.32-1.206-.48-.692-1.517-.907-2.24-.476-.36.22-.568.606-.679 1-.226.784-.124 1.678.037 2.462.05.257.102.51.172.753.027.086.036.224.097.293.101.133.351.166.504.142.458-.077.347-.825.328-1.147-.037-.738-.26-1.462-.041-2.205.087-.312.268-.664.587-.803.287-.123.578.027.69.308.184.454.143.972.259 1.443.036.156.078.317.152.467.02.042.051.128.112.128.148-.014.36-.261.471-.353.356-.293.726-.61 1.143-.83.194-.1.514-.266.713-.091a.651.646 0 0 1 .129.151c.235.368 0 .652-.148.99-.2.45-.403.89-.685 1.29-.245.343-.582.646-.777 1.022-.124.243-.199.504-.143.78.042.22.213.352.44.302.171-.041.286-.183.383-.32.172-.234.333-.482.505-.72.328-.459.72-.894 1.004-1.39a4.077 4.041 0 0 0 .495-1.953c0-.555-.204-1.407-.861-1.522a1.16 1.15 0 0 0-.384.01 1.69 1.675 0 0 0-.444.146 3.086 3.059 0 0 0-.966.743c-.172.188-.324.426-.532.582" fill="#fc0" fill-opacity="1" fill-rule="nonzero" stroke="none" stroke-width="1.179"/><path id="path1244" d="M20.631 10.337c-.514.07-1.036.065-1.555.142-.994.151-1.943.459-2.873.825-.337.137-.675.284-1.004.445-.12.06-.305.106-.402.197-.051.05-.047.166-.056.229-.014.188-.037.367-.056.555-.078.707-.124 1.444-.027 2.15.037.23.12.642.393.688.44.07.777-.463.99-.76.514-.683 1.073-1.325 1.9-1.633.967-.367 2.078-.45 3.1-.518 2.877-.197 6.013.326 8.132 2.422.3.298.578.618.823.962.953 1.362 1.453 2.907 1.693 4.53.116.765.19 1.536.02 2.296-.306 1.316-1.102 2.463-2.022 3.44a15.986 15.844 0 0 1-2.073 1.82c-.407.307-.869.568-1.254.904a5.06 5.015 0 0 0-1.106 1.384c-.754 1.398-.958 3.058-.735 4.599.046.32.087.637.167.958.023.091.023.252.078.33.12.142.425.22.602.224.184.014.31-.123.356-.294.075-.27.024-.582-.024-.856-.087-.573-.171-1.15-.148-1.734a4.44 4.401 0 0 1 1.216-2.847c.76-.79 1.791-1.243 2.655-1.903 1.75-1.334 3.313-3.136 3.914-5.272a6.217 6.162 0 0 0 .185-2.371c-.124-1-.49-1.994-.837-2.934-1.055-2.862-2.868-5.58-5.746-6.886-1.143-.518-2.336-.757-3.576-.931a22.368 22.368 0 0 0-1.745-.152c-.323-.014-.68-.05-1-.009" fill="#fc0" fill-opacity="1" fill-rule="nonzero" stroke="none" stroke-width="1.179"/><path id="path1246" d="M16.13 28.86c-.56.081-.721.526-.62 1.03.134.643.648 1.133 1.148 1.518a7.156 7.093 0 0 0 4.603 1.453c.638-.023 1.332-.132 1.915-.399.315-.142.643-.66.213-.88a.598.593 0 0 0-.199-.06c-.185-.031-.393.05-.568.101-.315.087-.624.179-.949.23a3.845 3.811 0 0 1-2.785-.629c-.638-.454-1.16-1.054-1.647-1.66-.301-.37-.573-.779-1.111-.706" fill="#fc0" fill-opacity="1" fill-rule="nonzero" stroke="none" stroke-width="1.179"/><path id="path1248" d="M15.404 32.006c-.143.019-.31.01-.43.1-.254.189.027.56.162.725.389.49.898.899 1.41 1.256a9.271 9.189 0 0 0 4.773 1.691 6.37 6.37 0 0 0 1.5-.082c.18-.027.402-.041.572-.12.472-.216.333-1.1-.087-1.297-.18-.087-.476.027-.67.05a7.965 7.894 0 0 1-1.374.06c-1.203-.026-2.48-.394-3.529-.971a6.643 6.584 0 0 1-1.143-.816c-.213-.188-.434-.495-.713-.587-.129-.046-.337-.023-.471-.01" fill="#fc0" fill-opacity="1" fill-rule="nonzero" stroke="none" stroke-width="1.179"/><path id="path1250" d="M15.687 34.654a.758.751 0 0 0-.485.274c-.093.106-.18.198-.236.33-.291.71.485 1.385 1.027 1.724.592.376 1.249.656 1.91.89 1.499.527 3.261.866 4.815.394a2.996 2.97 0 0 0 1.254-.743c.19-.197.323-.495-.024-.618-.208-.074-.458.115-.643.188a5.331 5.284 0 0 1-1.374.367c-.624.074-1.184-.06-1.785-.211a13.66 13.54 0 0 1-1.532-.436 5.427 5.38 0 0 1-1.216-.6c-.111-.083-.24-.147-.333-.253-.3-.33-.522-.715-.837-1.032-.138-.137-.333-.298-.546-.274" fill="#fc0" fill-opacity="1" fill-rule="nonzero" stroke="none" stroke-width="1.179"/></svg>