<svg xmlns:osb="http://www.openswatchbook.org/uri/2009/osb" xmlns="http://www.w3.org/2000/svg" xmlns:xlink="http://www.w3.org/1999/xlink" width="48" height="48" version="1.1" id="svg38"><defs id="defs22"><linearGradient id="linearGradient4488"><stop id="stop4490" offset="0" stop-color="#000" stop-opacity=".047"/><stop id="stop4492" offset="1" stop-color="#000" stop-opacity="0"/></linearGradient><style id="style4511"/><style id="style4511-26"/><style id="style4511-9"/><style id="style4552"/><style id="style4511-2"/><linearGradient xlink:href="#linearGradient4488" id="linearGradient4540" gradientUnits="userSpaceOnUse" gradientTransform="rotate(.202 -417.737 -16584.553) scale(.3038)" x1="288.112" y1="141.785" x2="287.575" y2="79.008"/><linearGradient osb:paint="solid" id="linearGradient5293"><stop id="stop5295" offset="0" stop-color="#9a89c0" stop-opacity="1"/></linearGradient><style id="style4511-87"/><style id="style4511-26-7"/><style id="style4511-9-1"/><style id="style4552-53"/><style id="style4511-2-9"/><style id="style4511-8"/><style id="style4511-26-4"/><style id="style4511-9-8"/><style id="style4552-5"/><style id="style4511-2-5"/></defs><style id="style4485" type="text/css"/><style type="text/css" id="style4485-7"/><style id="style4485-6" type="text/css"/><path id="path4516" d="M3.157 25.942l-.006 1.669c-.036 9.574 5.518 17.303 17.08 17.347l6.93.026c15.133.056 17.88-11.256 17.902-17.215l.006-1.669c-.022 5.96-2.769 17.272-17.901 17.215l-6.93-.026C8.675 43.245 3.12 35.517 3.157 25.942z" opacity="1" fill="url(#linearGradient4540)" fill-opacity="1" stroke="none" stroke-width="1.1" stroke-linecap="square" stroke-linejoin="bevel" stroke-miterlimit="4" stroke-dasharray="none" stroke-dashoffset="0" stroke-opacity=".078"/><path d="M19.859 2.527C8.716 2.485 3.216 10.17 3.18 19.745l-.016 4.293 41.912.158.016-4.293c.023-6.035-2.832-17.292-16.74-17.344z" id="path4518" opacity="1" fill="#3e6ab9" fill-opacity="1" stroke="#000" stroke-width=".334" stroke-linecap="square" stroke-linejoin="bevel" stroke-miterlimit="4" stroke-dasharray="none" stroke-dashoffset="0" stroke-opacity=".078"/><path d="M28.41 45.674c11.144.027 16.633-7.667 16.656-17.241l.01-4.293-41.912-.102-.01 4.293c-.015 6.035 2.855 17.288 16.763 17.322z" id="path4518-7" opacity="1" fill="#3e6ab9" fill-opacity=".839" stroke="#000" stroke-width=".334" stroke-linecap="square" stroke-linejoin="bevel" stroke-miterlimit="4" stroke-dasharray="none" stroke-dashoffset="0" stroke-opacity=".078"/><path id="path3792" d="M3.164 24.038H14.62l1.866-11.89.933 16.26.933-10.613 1.866 19.979 1.865-28.606 1.09 24.86.776-16.233 1.043 4.37 1.756-8.74.933 21.851.933-16.232 1.834 9.365.965-8.117.933 3.746V12.573l1.865 17.084 1.866-9.365.933 3.746h8.077" opacity="1" fill="none" fill-opacity="1" stroke="#00baff" stroke-width=".678" stroke-linecap="butt" stroke-linejoin="round" stroke-miterlimit="4" stroke-dasharray="none" stroke-opacity="1"/><path id="path1457" d="M22.655 39.818c-.658-.234-1.46-1.779-1.46-2.812 0-1.287.946-2.753 2.198-3.406.744-.387 2.65-.376 3.424.02.318.163 1.55 1.225 2.739 2.36 2.339 2.235 2.802 2.499 3.895 2.214.663-.173 1.405-.897 1.57-1.53.144-.559-.057-1.409-.448-1.89-.468-.577-.367-1.247.217-1.445.541-.183.983.137 1.473 1.067.987 1.873.218 4.149-1.726 5.11-.866.427-2.452.454-3.265.054-.313-.154-1.578-1.238-2.812-2.408-2.36-2.242-2.785-2.485-3.92-2.243-.731.155-1.535 1.047-1.643 1.821-.072.52 0 .8.355 1.386.256.425.422.91.392 1.152-.055.449-.53.713-.989.55zm6.808-6.54c-.608-.205-1.484-.96-4.766-4.11-2.211-2.122-4.17-4.092-4.354-4.378-.545-.853-.335-1.233 1.826-3.299 2.805-2.682 2.202-2.86 7.402 2.178 4.495 4.355 4.842 4.805 4.849 6.293.004.99-.599 2.252-1.325 2.771-1.123.805-2.33.986-3.632.546zm2.786-4.762c.07-.35-6.847-7.129-7.273-7.129a.449.449 0 0 0-.38.27c-.08.202.807 1.155 3.52 3.782 2.105 2.038 3.72 3.481 3.85 3.44.124-.04.251-.203.283-.363zM15.702 17.905c-3.956-3.84-4.581-4.61-4.59-5.663-.005-.565.54-1.2 1.13-1.313 1.183-.23 1.533.022 5.936 4.265 2.297 2.214 4.151 4.099 4.12 4.189-.176.514-.74.188-2.329-1.344l-1.678-1.62-.734.725-.734.725 1.713 1.664c1.197 1.163 1.683 1.742 1.613 1.92-.056.14-.197.254-.315.254-.117 0-1.976-1.71-4.132-3.802zm1.033-2.997c-.216-.223-.463-.406-.549-.406-.085 0-.438.307-.784.68l-.628.681.434.445.435.444.743-.72.743-.719zm-2.348-.938l.702-.693-.826-.748c-.704-.638-.925-.748-1.5-.748-.79 0-.94.225-.673 1.01.18.529 1.24 1.872 1.477 1.872.065 0 .434-.312.82-.693z" opacity=".9" fill="#fdfdfd" fill-opacity="1" stroke-width=".163"/></svg>