<svg xmlns="http://www.w3.org/2000/svg" xmlns:xlink="http://www.w3.org/1999/xlink" width="48" height="48" version="1.1" id="svg38"><defs id="defs22"><linearGradient id="linearGradient4488"><stop id="stop4490" offset="0" stop-color="#000" stop-opacity=".047"/><stop id="stop4492" offset="1" stop-color="#000" stop-opacity="0"/></linearGradient><style id="style4511"/><style id="style4511-26"/><style id="style4511-9"/><style id="style4552"/><style id="style4511-2"/><linearGradient xlink:href="#linearGradient4488" id="linearGradient4471" gradientUnits="userSpaceOnUse" gradientTransform="translate(-62.47 2.216) scale(.3038)" x1="288.112" y1="141.785" x2="287.575" y2="79.008"/><circle id="SVGID_1_" r="15.999" cy="-31.965" cx="73.957"/><linearGradient gradientTransform="rotate(-90 -3.113 51.17)" gradientUnits="userSpaceOnUse" x2="47" x1="1" id="linearGradient3764-36"><stop id="stop700" stop-opacity="1" stop-color="#e4e4e4"/><stop id="stop702" stop-opacity="1" stop-color="#eee" offset="1"/></linearGradient><linearGradient xlink:href="#linearGradient3764-36" id="linearGradient1670" x1="3.001" y1="23.808" x2="45.248" y2="23.808" gradientUnits="userSpaceOnUse"/><linearGradient xlink:href="#linearGradient2762" id="linearGradient5259" gradientUnits="userSpaceOnUse" gradientTransform="matrix(.8813 0 0 1.0409 19.369 -48.865)" y1="209.78" x2="0" y2="89.29"/><linearGradient id="linearGradient2762"><stop id="stop734" stop-color="#dfe0e2"/><stop id="stop736" offset="1" stop-color="#fafbff"/></linearGradient><linearGradient y2="89.29" x2="0" y1="209.78" gradientTransform="matrix(.80996 0 0 1.0409 105.378 -48.865)" gradientUnits="userSpaceOnUse" id="linearGradient3217" xlink:href="#linearGradient2762"/><linearGradient xlink:href="#linearGradient2762" id="linearGradient833" gradientUnits="userSpaceOnUse" gradientTransform="matrix(.8813 0 0 1.0409 19.369 -48.865)" y1="209.78" x2="0" y2="89.29"/><linearGradient xlink:href="#linearGradient2762" id="linearGradient835" gradientUnits="userSpaceOnUse" gradientTransform="matrix(.8813 0 0 1.0409 19.369 -48.865)" y1="209.78" x2="0" y2="89.29"/><linearGradient xlink:href="#linearGradient2762" id="linearGradient837" gradientUnits="userSpaceOnUse" gradientTransform="matrix(.8813 0 0 1.0409 19.369 -48.865)" y1="209.78" x2="0" y2="89.29"/><linearGradient xlink:href="#linearGradient2762" id="linearGradient839" gradientUnits="userSpaceOnUse" gradientTransform="matrix(.8813 0 0 1.0409 19.369 -48.865)" y1="209.78" x2="0" y2="89.29"/><linearGradient xlink:href="#linearGradient2762" id="linearGradient841" gradientUnits="userSpaceOnUse" gradientTransform="matrix(.8813 0 0 1.0409 19.369 -48.865)" y1="209.78" x2="0" y2="89.29"/><linearGradient xlink:href="#linearGradient2762" id="linearGradient843" gradientUnits="userSpaceOnUse" gradientTransform="matrix(.8813 0 0 1.0409 19.369 -48.865)" y1="209.78" x2="0" y2="89.29"/></defs><style id="style4485" type="text/css"/><g id="g9" transform="translate(-49.354 -2.761)"><g id="g11"><g id="g13"><g id="g15"><g id="g17" opacity=".15"><g id="g19"><clipPath id="SVGID_2_"><use id="use25" x="0" y="0" width="1" height="1" xlink:href="#SVGID_1_" overflow="visible"/></clipPath></g></g></g></g></g></g><path d="M3.168 26.443v1.668c0 9.575 5.583 17.282 17.146 17.282h6.93c15.132 0 17.836-11.322 17.836-17.282v-1.668c0 5.96-2.704 17.282-17.836 17.282h-6.93c-11.563 0-17.146-7.708-17.146-17.282z" id="path4467" opacity="1" fill="url(#linearGradient4471)" fill-opacity="1" stroke="none" stroke-width="1.1" stroke-linecap="square" stroke-linejoin="bevel" stroke-miterlimit="4" stroke-dasharray="none" stroke-dashoffset="0" stroke-opacity=".078"/><path d="M19.781 2.965h8.495c13.908 0 16.805 11.246 16.805 17.282v7.123c0 5.96-2.705 17.282-17.837 17.282h-6.93c-11.563 0-17.146-7.708-17.146-17.282v-7.123c0-9.575 5.47-17.282 16.613-17.282z" id="path4469" opacity="1" fill="url(#linearGradient1670)" fill-opacity="1" stroke="#000" stroke-width=".334" stroke-linecap="square" stroke-linejoin="bevel" stroke-miterlimit="4" stroke-dasharray="none" stroke-dashoffset="0" stroke-opacity=".078"/><g id="g901" transform="translate(-.375 -1.286)"><g transform="matrix(3.79806 0 0 3.5433 -1.227 1.093)" id="g788"><path d="M3.519 3.951a.404.404 0 0 0-.415.397v4.851c0 .221.183.397.415.397h6.509a.404.404 0 0 0 .415-.397V4.348a.403.403 0 0 0-.415-.397z" id="path760" fill="#373737" fill-opacity="1"/><g transform="matrix(.03514 0 0 .03332 .1 3.774)" id="g786"><g id="g784"><g transform="translate(-695.2)" id="g782"><g id="g780"><g id="g778"><path d="M862.81 47.657l.002 114.53c0 2.233 1.525 4.03 3.415 4.03h13.66c1.89 0 3.415-1.801 3.415-4.03v-38.31h-3.913c-.986 0-1.79-.707-1.79-1.872l.002-74.35z" id="path762" fill="url(#linearGradient833)"/><path d="M907.99 123.88h-3.977c-.99 0-1.805-.704-1.793-1.872v-74.35h-9.229l-.003 74.35c-.006 1.164-.805 1.872-1.793 1.872h-3.696v38.31c0 2.233 1.527 4.03 3.42 4.03h13.651c1.893 0 3.42-1.801 3.42-4.03z" id="path764" fill="url(#linearGradient835)"/><path d="M942.4 47.657v74.35c0 1.166-.804 1.872-1.793 1.872h-3.727v38.31c0 2.233 1.527 4.03 3.42 4.03h13.651c1.893 0 3.42-1.801 3.42-4.03V47.659z" id="path766" fill="url(#linearGradient837)"/><path d="M917.62 47.657v74.35c0 1.168-.802 1.872-1.79 1.872h-3.643l.004 38.31c.005 2.233 1.519 4.03 3.409 4.03h13.662c1.89 0 3.415-1.801 3.415-4.03v-38.31h-3.889c-.987 0-1.79-.706-1.79-1.872v-74.35z" id="path768" fill="url(#linearGradient839)"/><path d="M792.42 47.657c-1.772 0-3.688 1.768-3.688 4v110.34c0 2.232 1.916 4.229 3.688 4.229h13.601c1.772 0 3.202-1.996 3.202-4.229v-38.12h-3.284c-.931 0-1.678-.732-1.678-1.904v-74.32z" id="path770" fill="url(#linearGradient841)"/><path d="M833.91 123.88h-3.483c-.99 0-1.765-.704-1.765-1.872v-74.35h-9.864v74.32c0 1.172-.831 1.798-1.82 1.904h-3.559v38.31c0 2.233 1.527 4.03 3.42 4.03h13.651c1.893 0 3.42-1.801 3.42-4.03z" id="path772" fill="url(#linearGradient843)"/><path d="M843.42 47.657v74.35c0 1.168-.803 1.872-1.793 1.872h-3.42l-.088 38.31c-.005 2.233 1.527 4.03 3.42 4.03h13.651c1.893 0 3.42-1.801 3.42-4.03.006-21.373 0-114.53 0-114.53z" id="path774" fill="url(#linearGradient5259)"/><path d="M960.99 47.657v114.53c0 2.233 1.401 4.03 3.139 4.03h14.415c1.737 0 2.925-1.801 2.925-4.03V51.627c0-2.575-1.997-3.972-3.766-3.972z" id="path776" fill="url(#linearGradient3217)"/></g></g></g></g></g></g></g></svg>