<svg xmlns="http://www.w3.org/2000/svg" xmlns:xlink="http://www.w3.org/1999/xlink" width="48" height="48" version="1.1" id="svg38"><defs id="defs22"><linearGradient id="linearGradient4488"><stop id="stop4490" offset="0" stop-color="#000" stop-opacity=".047"/><stop id="stop4492" offset="1" stop-color="#000" stop-opacity="0"/></linearGradient><style id="style4511"/><style id="style4511-26"/><style id="style4511-9"/><style id="style4552"/><style id="style4511-2"/><linearGradient gradientTransform="translate(-63.205 2.216) scale(.3038)" xlink:href="#linearGradient4488" id="linearGradient4160" x1="288.112" y1="141.785" x2="287.575" y2="79.008" gradientUnits="userSpaceOnUse"/></defs><style id="style4485" type="text/css"/><path d="M2.433 26.443v1.668c0 9.575 5.583 17.282 17.146 17.282h6.93c15.133 0 17.837-11.322 17.837-17.282v-1.668c0 5.96-2.704 17.282-17.837 17.282h-6.93c-11.563 0-17.146-7.708-17.146-17.282z" id="path4147" opacity="1" fill="url(#linearGradient4160)" fill-opacity="1" stroke="none" stroke-width="1.1" stroke-linecap="square" stroke-linejoin="bevel" stroke-miterlimit="4" stroke-dasharray="none" stroke-dashoffset="0" stroke-opacity=".078"/><path d="M19.046 2.965h8.495c13.908 0 16.805 11.246 16.805 17.282v7.123c0 5.96-2.704 17.282-17.837 17.282h-6.93c-11.562 0-17.146-7.708-17.146-17.282v-7.123c0-9.575 5.47-17.282 16.613-17.282z" id="rect4144" opacity="1" fill="#e3e7ea" fill-opacity="1" stroke="#000" stroke-width=".334" stroke-linecap="square" stroke-linejoin="bevel" stroke-miterlimit="4" stroke-dasharray="none" stroke-dashoffset="0" stroke-opacity=".078"/><g transform="translate(-421.008 -281.599) scale(.09093)" id="g8499" fill="#fff" fill-opacity="1" stroke="none" stroke-width="4.969" stroke-miterlimit="4" stroke-dasharray="none" stroke-opacity="1"><path d="M4904.755 3350.769c17.896 20.604-4.702 39.145-4.702 39.145s45.44-23.459 24.572-52.834c-19.491-27.393-34.438-41.004 46.479-87.933 0 0-127.013 31.721-66.35 101.621" id="path5215" fill="#f8981d"/><path d="M4924.625 3173.369s38.55 38.562-36.563 97.861c-60.233 47.569-13.735 74.69-.025 105.679-35.16-31.723-60.961-59.648-43.651-85.638 25.407-38.15 95.793-56.648 80.239-117.903" id="path5223" fill="#f8981d"/><path id="path5211" d="M4838.81 3460.294s-14.177 8.245 10.09 11.035c29.4 3.353 44.427 2.872 76.826-3.26 0 0 8.518 5.342 20.414 9.968-72.63 31.128-164.376-1.803-107.33-17.743" fill="#5382a1"/><path id="path5213" d="M4829.936 3419.673s-15.902 11.772 8.384 14.284c31.406 3.24 56.208 3.504 99.125-4.76 0 0 5.936 6.018 15.27 9.31-87.814 25.677-185.623 2.024-122.78-18.834" fill="#5382a1"/><path id="path5217" d="M5000.814 3490.338s10.492 8.645-11.555 15.333c-41.923 12.7-174.488 16.536-211.314.507-13.238-5.76 11.587-13.752 19.396-15.429 8.144-1.765 12.798-1.436 12.798-1.436-14.722-10.372-95.157 20.363-40.857 29.165 148.084 24.016 269.943-10.813 231.532-28.14" fill="#5382a1"/><path id="path5219" d="M4845.629 3377.586s-67.431 16.017-23.88 21.833c18.39 2.461 55.048 1.904 89.194-.957 27.906-2.354 55.927-7.359 55.927-7.359s-9.84 4.214-16.96 9.075c-68.474 18.01-200.755 9.631-162.673-8.79 32.206-15.568 58.392-13.802 58.392-13.802" fill="#5382a1"/><path id="path5221" d="M4966.592 3445.2c69.608-36.17 37.424-70.93 14.96-66.247-5.506 1.145-7.961 2.138-7.961 2.138s2.044-3.201 5.948-4.587c44.44-15.625 78.619 46.08-14.346 70.52 0 0 1.077-.963 1.399-1.824" fill="#5382a1"/><path id="path5225" d="M4852.469 3543.215c66.815 4.277 169.417-2.373 171.847-33.988 0 0-4.671 11.986-55.22 21.504-57.027 10.731-127.363 9.478-169.08 2.6 0 0 8.54 7.069 52.453 9.885" fill="#5382a1"/></g></svg>