<svg xmlns="http://www.w3.org/2000/svg" xmlns:xlink="http://www.w3.org/1999/xlink" width="48" height="48" version="1.1" id="svg38"><defs id="defs22"><style id="style4511"/><style id="style4511-26"/><style id="style4511-9"/><linearGradient gradientUnits="userSpaceOnUse" x2="19.574" y2="22.495" x1="3.783" y1="23.644" id="g-5"><stop id="stop24-2" stop-color="#2980b9"/><stop id="stop26" stop-color="#34495e" offset="1"/></linearGradient><style id="style4552"/><style id="style4511-2"/><linearGradient xlink:href="#g-5" id="linearGradient1589" x1="2.654" y1="24.405" x2="45.511" y2="24.405" gradientUnits="userSpaceOnUse"/></defs><style id="style4485" type="text/css"/><g id="g1336"><g id="g1405"><path d="M19.677 3.253h8.618c14.108 0 17.047 11.413 17.047 17.537v7.229c0 6.047-2.744 17.537-18.094 17.537h-7.03c-11.73 0-17.394-7.822-17.394-17.537V20.79c0-9.715 5.549-17.537 16.853-17.537z" id="rect4144" opacity="1" fill="url(#linearGradient1589)" fill-opacity="1" stroke="#000" stroke-width=".339" stroke-linecap="square" stroke-linejoin="bevel" stroke-miterlimit="4" stroke-dasharray="none" stroke-dashoffset="0" stroke-opacity=".078"/><path id="path4276" d="M14.196 5.624a21.89 21.89 0 0 0-1.705.89h.223l.114.353-.322.291 1.373.037.21.482-1.545-.056-.076-.37-.9-.19c-.313.206-.62.42-.922.641h.539v.35l-.237.305H9.821v-.045a21.18 21.18 0 0 0-6.797 9.449l.12.055v1.768l.912 1.52.745.11.096-.52-.88-1.317-.17-1.282h.513l.217 1.32 1.269 1.8-.326.581.807 1.202 2.002.483v-.316l.8.11-.074.558.627.11.973.26 1.373 1.523 1.755.129.17 1.393-1.2.817-.055 1.245-.172.76 1.736 2.117.131.724s.63.167.707.167c.077 0 1.411.985 1.411.985v3.824l.477.13-.324 1.764.8 1.04-.146 1.75 1.058 1.81 1.367 1.177c.024.005.14.001.14.001l1.219.003.131-.428-1.002-.822.058-.41.178-.5.039-.511-.68-.021-.342-.417.564-.53.076-.396-.63-.176.039-.37.895-.133 1.364-.638.458-.818 1.43-1.781-.323-1.394.438-.742 1.315.039.886-.684.287-2.69.981-1.214.172-.781-.895-.28-.592-.943-2.022-.02-1.602-.596-.075-1.111-.536-.91-1.45-.02-.835-1.28-.745-.354-.038.388-1.353.079-.497-.672-1.41-.279-1.165 1.309-1.83-.302-.134-2.01-1.336-.222.536-.985-.154-.566-1.755 1.143-1.105-.13-.393-.842.24-.867.609-1.091 1.403-.69 2.707-.003-.007.805.973.44-.078-1.373.701-.689 1.415-.903.098-.637 1.411-1.43 1.5-.809-.132-.107 1.015-.93.373.094.172.21.386-.418.092-.04-.42-.058-.43-.14v-.4l.227-.18h.5l.23.097.198.39.244-.035v-.036l.069.024.704-.104.1-.335.4.098v.363l-.37.249.055.397 1.273.382.004.017.294-.026.019-.538-1.01-.447-.058-.258.838-.278.037-.782-.875-.519-.058-1.317-1.202.575h-.439l.116-1.003-1.634-.376-.677.498v1.518l-1.218.376-.487.99-.53.083v-1.268l-1.143-.152-.572-.362-.23-.82L16.93 8.56l1-.296.101.654.558-.027.042-.329.583-.082.011-.114-.25-.102-.058-.349.717-.058.431-.44.024-.031.007.002.132-.132 1.506-.186.666.552-1.746.905 2.223.51.287-.723h.973l.342-.63-.685-.168v-.798l-2.155-.93-1.488.167-.839.428.058 1.04-.879-.13-.134-.575.841-.744-1.526-.073-.438.128-.19.5.57.096-.112.556-.973.056-.15.37-1.412.04s-.039-.78-.095-.78l1.104-.019.84-.8-.457-.223-.61.577-1.011-.056-.54-.722zm23.622 3.07l-.693.265-.445.471.102.55.547.075.328.802.943-.37.155 1.07h-.283l-.775-.11-.857.14-.83 1.141-1.188.183-.172.99.502.113-.145.637-1.179-.23-1.08.23-.23.585.187 1.23.634.29 1.065-.007.719-.061.219-.558 1.123-1.42.741.145.728-.64.136.5 1.791 1.179-.219.284-.808-.04.31.428.498.105.58-.235-.011-.683.26-.126-.209-.215-1.196-.649-.313-.863h.994l.317.306.855.72.036.868.888.918.33-1.259.613-.327.114 1.03.6.64.28-.004a21.043 21.043 0 0 0-3.236-5.36l-1.444-.013-.098-.318.86-.426a21.497 21.497 0 0 0-2.044-1.98zm-26.652.22c.043 0 0 .485 0 .485l-1.13.07-.215-.25.8-.223s.502-.083.545-.083zm1.374 2.366l.543.127-.188.71-.587.18-.37-.74zm1.487 1.683h.901v.267h.198v.46h-1.372l-.513-.14.127-.32zm1.344.197l.471.417-.471.113v-.53zm1.038.64l.349.214-.28.225-.277-.225zm-2.639.072h.757l-.971 1.32-.4-.209.085-.556.53-.555zm1.217 0h.77v.444l-.342.215-.428.078v-.737zm.958.488h.058l.872.25v.431h-.73l-.2-.28v-.401zm-.36.4v.435l-.328.32h-.73l.116-.486.344-.029.071-.167.527-.072zM38.27 16.6l-2.574.194-.798.418h-1.022l-.502-.05-1.24.673v1.263l-2.538 1.782.21.762h.515l-.134.723-.362.13-.021 1.893 2.194 2.432h.953l.06-.147h1.715l.494-.446h.974l.531.521 1.453.146-.192 1.878 1.608 2.766-.846 1.577.057.743.666.65v1.785l.877 1.148 1.132 2.321c3.246-3.797 4.136-8.813 3.894-15.053-.006-2.049.178-4.14-.147-6.055l-1.862.008-1.115-.81-1.172.113v.697h-.372l-.4-.28-2.036-.502V16.6z" fill="#a2f46a" stroke-width="1.084"/></g><ellipse ry="11.827" rx="11.957" cy="30.145" cx="29.314" id="path4058" fill="#ff9521" fill-opacity="1"/><path d="M29.281 37.738l-5.6-7.593h3.755v-7.593l3.755.036v7.557h3.756z" id="path5972" fill="#fff" stroke-width="1.27"/></g></svg>