<svg xmlns="http://www.w3.org/2000/svg" xmlns:xlink="http://www.w3.org/1999/xlink" width="48" height="48" version="1.1" id="svg38"><defs id="defs22"><linearGradient id="linearGradient4488"><stop id="stop4490" offset="0" stop-color="#000" stop-opacity=".047"/><stop id="stop4492" offset="1" stop-color="#000" stop-opacity="0"/></linearGradient><style id="style4511"/><style id="style4511-26"/><style id="style4511-9"/><style id="style4552"/><style id="style4511-2"/><linearGradient gradientTransform="translate(-63.205 2.216) scale(.3038)" xlink:href="#linearGradient4488" id="linearGradient4160" x1="288.112" y1="141.785" x2="287.575" y2="79.008" gradientUnits="userSpaceOnUse"/></defs><style id="style4485" type="text/css"/><path d="M2.433 26.443v1.668c0 9.575 5.583 17.282 17.146 17.282h6.93c15.133 0 17.837-11.322 17.837-17.282v-1.668c0 5.96-2.704 17.282-17.837 17.282h-6.93c-11.563 0-17.146-7.708-17.146-17.282z" id="path4147" opacity="1" fill="url(#linearGradient4160)" fill-opacity="1" stroke="none" stroke-width="1.1" stroke-linecap="square" stroke-linejoin="bevel" stroke-miterlimit="4" stroke-dasharray="none" stroke-dashoffset="0" stroke-opacity=".078"/><path d="M19.046 2.965h8.495c13.908 0 16.805 11.246 16.805 17.282v7.123c0 5.96-2.704 17.282-17.837 17.282h-6.93c-11.562 0-17.146-7.708-17.146-17.282v-7.123c0-9.575 5.47-17.282 16.613-17.282z" id="rect4144" opacity="1" fill="#eb2f2f" fill-opacity="1" stroke="#000" stroke-width=".334" stroke-linecap="square" stroke-linejoin="bevel" stroke-miterlimit="4" stroke-dasharray="none" stroke-dashoffset="0" stroke-opacity=".078"/><path d="M21.752 37.738c-3.296-.334-6.178-1.638-8.48-3.838-2.158-2.062-3.45-4.388-4.106-7.389-.28-1.28-.298-3.895-.036-5.237.564-2.9 1.821-5.259 3.916-7.353 2.097-2.095 4.37-3.302 7.303-3.879 1.376-.27 3.516-.286 4.932-.035a14.093 14.093 0 0 1 10.145 7.582c.79 1.574 1.406 3.977 1.406 5.478 0 .382.027.832.06.998l.06.302h1.052c.578 0 1.051.024 1.051.053 0 .04-1.524 1.846-3 3.554-.037.044-.77-.74-1.627-1.74l-1.559-1.819 1.126-.027 1.125-.028-.066-1.036c-.216-3.38-1.452-6.1-3.79-8.336-4.114-3.937-10.356-4.478-15.116-1.308a12.126 12.126 0 0 0-4.777 13.973c1.464 4.38 5.168 7.469 9.802 8.173.505.076.972.14 1.039.14.088 0 .12.249.12.919 0 .678-.031.914-.12.902a26.28 26.28 0 0 0-.46-.05z" id="path7507" fill="#fff9f9" fill-opacity="1" stroke="none" stroke-width=".097" stroke-linejoin="miter" stroke-miterlimit="4" stroke-dasharray="none" stroke-opacity="1"/></svg>