<svg xmlns:osb="http://www.openswatchbook.org/uri/2009/osb" xmlns="http://www.w3.org/2000/svg" xmlns:xlink="http://www.w3.org/1999/xlink" width="48" height="48" version="1.1" id="svg38"><defs id="defs22"><linearGradient id="linearGradient4488"><stop id="stop4490" offset="0" stop-color="#000" stop-opacity=".047"/><stop id="stop4492" offset="1" stop-color="#000" stop-opacity="0"/></linearGradient><style id="style4511"/><style id="style4511-26"/><style id="style4511-9"/><style id="style4552"/><style id="style4511-2"/><linearGradient osb:paint="solid" id="linearGradient5293"><stop id="stop5295" offset="0" stop-color="#9a89c0" stop-opacity="1"/></linearGradient><style id="style4511-879202375"/><style id="style4511-26-30"/><style id="style4511-9-76"/><style id="style4552-5"/><style id="style4511-2-6"/><style id="style4511-87920237"/><style id="style4511-26-443"/><style id="style4511-9-5"/><style id="style4552-09"/><style id="style4511-2-0"/><linearGradient osb:paint="solid" id="linearGradient4390"><stop id="stop4388" offset="0" stop-color="#000" stop-opacity="1"/></linearGradient><linearGradient osb:paint="solid" id="linearGradient4300"><stop id="stop4298" offset="0" stop-color="#9f007b" stop-opacity="1"/></linearGradient><style id="style4511-879202"/><style id="style4511-26-47"/><style id="style4511-9-17"/><style id="style4552-4"/><style id="style4511-2-4"/><style id="style4511-879"/><style id="style4511-26-65"/><style id="style4511-9-2"/><style id="style4552-89"/><style id="style4511-2-1"/><style id="style4511-8"/><style id="style4511-26-4"/><style id="style4511-9-7"/><style id="style4552-3"/><style id="style4511-2-8"/><style id="style4552-7"/><style id="style4552-6"/><style id="style4552-73"/><style id="style4552-2"/><linearGradient osb:paint="solid" id="linearGradient5251"><stop id="stop5253" offset="0" stop-color="#2f343f" stop-opacity="1"/></linearGradient><style id="style4511-87"/><style id="style4511-26-6"/><style id="style4511-9-1"/><style id="style4552-8"/><style id="style4511-2-5"/><style id="style4511-8792"/><style id="style4511-26-3"/><style id="style4511-9-0"/><style id="style4552-86"/><style id="style4511-2-84"/><style id="style4511-8-6"/><style id="style4511-26-4-3"/><style id="style4511-9-7-8"/><style id="style4552-3-7"/><style id="style4511-2-8-9"/><style id="style4552-7-5"/><style id="style4552-6-87"/><style id="style4552-73-3"/><style id="style4552-2-1"/><style id="style4511-87-0"/><style id="style4511-26-6-5"/><style id="style4511-9-1-3"/><style id="style4552-8-8"/><style id="style4511-2-5-3"/><style id="style4511-879-4"/><style id="style4511-26-65-7"/><style id="style4511-9-2-0"/><style id="style4552-89-8"/><style id="style4511-2-1-9"/><style id="style4511-8-0"/><style id="style4511-26-4-0"/><style id="style4511-9-7-9"/><style id="style4552-3-4"/><style id="style4511-2-8-7"/><style id="style4552-7-4"/><style id="style4552-6-8"/><style id="style4552-73-7"/><style id="style4552-2-2"/><style id="style4511-87-2"/><style id="style4511-26-6-4"/><style id="style4511-9-1-7"/><style id="style4552-8-9"/><style id="style4511-2-5-0"/><style id="style4511-87920"/><style id="style4511-26-45"/><style id="style4511-9-9"/><style id="style4552-0"/><style id="style4511-2-9"/><style id="style4511-8792023"/><style id="style4511-26-44"/><style id="style4511-9-71"/><style id="style4552-43"/><style id="style4511-2-96"/><linearGradient xlink:href="#linearGradient4488" id="linearGradient5481" gradientUnits="userSpaceOnUse" gradientTransform="matrix(0 .30689 -.31235 0 46.41 -63.13)" x1="288.112" y1="141.785" x2="287.575" y2="79.008"/></defs><style id="style4485" type="text/css"/><path d="M15.727 4.737v39.17" id="path5493" fill="#4d4d4d" fill-opacity="1" stroke="#333" stroke-width="4.812" stroke-linecap="butt" stroke-linejoin="miter" stroke-miterlimit="4" stroke-dasharray="none" stroke-opacity="1"/><rect id="Mask" x="63.147" y="78.204" width="20.231" height="20.096" rx=".581" fill="#f1f1f1" fill-opacity="1" fill-rule="evenodd" stroke="none" stroke-width=".336"/><style type="text/css" id="style4485-333"/><style id="style4485-8" type="text/css"/><style type="text/css" id="style4485-039"/><style id="style4485-34" type="text/css"/><style type="text/css" id="style4485-0"/><style id="style4485-4" type="text/css"/><style id="style4485-5" type="text/css"/><style id="style4485-3" type="text/css"/><style id="style4485-5-1" type="text/css"/><style type="text/css" id="style4485-1"/><style id="style4485-33" type="text/css"/><style type="text/css" id="style4485-0-7"/><style id="style4485-4-9" type="text/css"/><style id="style4485-5-4" type="text/css"/><style id="style4485-3-9" type="text/css"/><style id="style4485-5-1-9" type="text/css"/><style type="text/css" id="style4485-1-5"/><style type="text/css" id="style4485-51"/><style id="style4485-0-9" type="text/css"/><style type="text/css" id="style4485-4-7"/><style type="text/css" id="style4485-5-13"/><style type="text/css" id="style4485-3-1"/><style type="text/css" id="style4485-5-1-2"/><style id="style4485-1-6" type="text/css"/><style id="style4485-03" type="text/css"/><style type="text/css" id="style4485-6"/><path id="path4516" d="M21.502 3.174h-1.715c-9.844 0-17.769 5.64-17.769 17.32v7.001c0 15.286 11.641 18.018 17.769 18.018h1.715c-6.127 0-17.768-2.732-17.768-18.018v-7c0-11.68 7.924-17.32 17.768-17.32z" opacity="1" fill="url(#linearGradient5481)" fill-opacity="1" stroke="none" stroke-width="1.121" stroke-linecap="square" stroke-linejoin="bevel" stroke-miterlimit="4" stroke-dasharray="none" stroke-dashoffset="0" stroke-opacity=".078"/><path id="path4518" d="M45.64 19.956v8.582c0 14.049-11.563 16.975-17.768 16.975H20.55c-6.127 0-17.768-2.732-17.768-18.018v-7c0-11.68 7.924-17.32 17.768-17.32h7.323c9.844 0 17.769 5.525 17.769 16.781z" opacity="1" fill="#ccc" fill-opacity="1" stroke="none" stroke-width=".341" stroke-linecap="square" stroke-linejoin="bevel" stroke-miterlimit="4" stroke-dasharray="none" stroke-dashoffset="0" stroke-opacity="1"/><g id="g5541" transform="matrix(.8402 0 0 .78602 4.046 5.086)"><path id="path5506" d="M24.108 4.002a4.58 4.58 0 0 0-2.391.606L8.283 12.334A4.545 4.545 0 0 0 6 16.274v15.253c0 1.625.87 3.126 2.283 3.938l13.434 7.727a4.577 4.577 0 0 0 2.444.606c.734-.026 1.181-.42 1.839-.798l13-8c1.413-.812 2-1.375 2-3V17c0-.551.9-1.815.712-2.315a4.552 4.552 0 0 0-1.996-2.351L26.282 4.608a4.579 4.579 0 0 0-2.175-.607z" fill="#fe4b71"/><path id="path5508" d="M24.107 4.002a4.566 4.548 0 0 0-2.39.606L8.283 12.334A4.566 4.548 0 0 0 6 16.274v1a4.566 4.548 0 0 1 2.283-3.94l13.434-7.726a4.566 4.548 0 0 1 2.39-.606 4.566 4.548 0 0 1 2.176.606l13.434 7.726A4.566 4.548 0 0 1 42 17.274v-1a4.566 4.548 0 0 0-2.283-3.94L26.283 4.608a4.566 4.548 0 0 0-2.176-.606z" opacity=".2" fill="#fff"/><path id="path5510" d="M6 31.726v1a4.566 4.548 0 0 0 2.283 3.938l13.434 7.726a4.566 4.548 0 0 0 4.566 0l13.434-7.727A4.566 4.548 0 0 0 42 32.725v-1a4.566 4.548 0 0 1-2.283 3.938L26.283 43.39a4.566 4.548 0 0 1-4.566 0L8.283 35.663A4.566 4.548 0 0 1 6 31.725z" opacity=".2"/><path id="path5512" d="M6.46 14.285A4.566 4.548 0 0 0 6 16.273v15.454a4.566 4.548 0 0 0 2.283 3.937l13.434 7.727a4.566 4.548 0 0 0 2.283.607V24.035z" fill="#ff8c2a"/><path id="path5514" d="M41.55 14.322l-17.552 9.756.002 19.92a4.566 4.548 0 0 0 2.281-.607l13.436-7.727A4.566 4.548 0 0 0 42 31.727V16.273a4.566 4.548 0 0 0-.45-1.95z" fill="#3f3f3f"/><path id="path5516" d="M41.55 14.322L24 24.076v1l17.55-9.754a4.566 4.548 0 0 1 .45 1.951v-1a4.566 4.548 0 0 0-.45-1.95z" opacity=".2"/><path id="path5518" d="M34 34.4l-7 3.73v1.739l7-3.87z" opacity=".2"/><path id="path5520" d="M34 33.4l-7 3.73v1.739l7-3.87z" fill="#fff"/><path id="path5522" d="M6.46 14.285A4.566 4.548 0 0 0 6 16.273v1a4.566 4.548 0 0 1 .46-1.988L24 25.035v-.999z" opacity=".2" fill="#fff"/></g></svg>