<svg xmlns:osb="http://www.openswatchbook.org/uri/2009/osb" xmlns="http://www.w3.org/2000/svg" xmlns:xlink="http://www.w3.org/1999/xlink" width="48" height="48" version="1.1" id="svg38"><defs id="defs22"><style id="style4511"/><style id="style4511-26"/><style id="style4511-9"/><style id="style4552"/><style id="style4511-2"/><linearGradient osb:paint="solid" id="linearGradient5293"><stop id="stop5295" offset="0" stop-color="#9a89c0" stop-opacity="1"/></linearGradient><linearGradient id="linearGradient4290"><stop id="stop4292" offset="0" stop-color="#e72662" stop-opacity="1"/><stop offset=".483" id="stop4272" stop-color="#ec3c50" stop-opacity="1"/><stop id="stop4294" offset="1" stop-color="#ff7b66" stop-opacity="1"/></linearGradient><linearGradient xlink:href="#linearGradient4290" id="linearGradient1699" x1="2.959" y1="24.202" x2="45.204" y2="24.202" gradientUnits="userSpaceOnUse"/></defs><style id="style4485" type="text/css"/><g id="g1715" fill-opacity="1"><path d="M19.738 3.544h8.495c13.908 0 16.804 11.146 16.804 17.128v7.06c0 5.906-2.704 17.127-17.836 17.127h-6.93c-11.563 0-17.146-7.639-17.146-17.128v-7.06c0-9.488 5.47-17.127 16.613-17.127z" id="path4518" opacity="1" fill="url(#linearGradient1699)" stroke="#000" stroke-width=".333" stroke-linecap="square" stroke-linejoin="bevel" stroke-miterlimit="4" stroke-dasharray="none" stroke-dashoffset="0" stroke-opacity=".078"/><g transform="matrix(.09423 0 0 .08234 -.046 12.442)" id="g4370" display="inline" opacity=".5" fill="#f2f2f2" stroke-width="128" color="#000" visibility="visible" fill-rule="nonzero" stroke="none" stroke-linecap="butt" stroke-linejoin="miter" stroke-miterlimit="4" stroke-dasharray="none" stroke-dashoffset="0" stroke-opacity="1"><path style="marker:none" d="M272 72v16h32V72zm0 24v16h32V96zm0 24v16h32v-16zm0 24v16h32v-16zm0 24v16h32v-16zm0 24v16h32v-16zm0 24v16h32v-16zm0 24v16h32v-16zm0 24v16h32v-16z" transform="translate(-32 -32)" id="rect4273" display="inline" overflow="visible" opacity="1"/><path id="path4292" d="M200 40v16h32V40zm0 24v16h32V64zm0 24v16h32V88zm0 24v16h32v-16zm0 24v16h32v-16zm0 24v16h32v-16zm0 24v16h32v-16zm0 24v16h32v-16zm0 24v16h32v-16z" style="marker:none" display="inline" overflow="visible" opacity="1"/><path style="marker:none" d="M160 40v16h32V40zm0 24v16h32V64zm0 24v16h32V88zm0 24v16h32v-16zm0 24v16h32v-16zm0 24v16h32v-16zm0 24v16h32v-16zm0 24v16h32v-16zm0 24v16h32v-16z" id="path4294" display="inline" overflow="visible" opacity="1"/><path id="path4296" d="M120 40v16h32V40zm0 24v16h32V64zm0 24v16h32V88zm0 24v16h32v-16zm0 24v16h32v-16zm0 24v16h32v-16zm0 24v16h32v-16zm0 24v16h32v-16zm0 24v16h32v-16z" style="marker:none" display="inline" overflow="visible" opacity="1"/><path style="marker:none" d="M80 40v16h32V40zm0 24v16h32V64zm0 24v16h32V88zm0 24v16h32v-16zm0 24v16h32v-16zm0 24v16h32v-16zm0 24v16h32v-16zm0 24v16h32v-16zm0 24v16h32v-16z" id="path4298" display="inline" overflow="visible" opacity="1"/><path id="path4301" d="M40 40v16h32V40zm0 24v16h32V64zm0 24v16h32V88zm0 24v16h32v-16zm0 24v16h32v-16zm0 24v16h32v-16zm0 24v16h32v-16zm0 24v16h32v-16zm0 24v16h32v-16z" style="marker:none" display="inline" overflow="visible" opacity="1"/><path id="path4303" d="M280 40v16h32V40zm0 24v16h32V64zm0 24v16h32V88zm0 24v16h32v-16zm0 24v16h32v-16zm0 24v16h32v-16zm0 24v16h32v-16zm0 24v16h32v-16zm0 24v16h32v-16z" style="marker:none" display="inline" overflow="visible" opacity="1"/><path style="marker:none" d="M320 40v16h32V40zm0 24v16h32V64zm0 24v16h32V88zm0 24v16h32v-16zm0 24v16h32v-16zm0 24v16h32v-16zm0 24v16h32v-16zm0 24v16h32v-16zm0 24v16h32v-16z" id="path4305" display="inline" overflow="visible" opacity="1"/><path id="path4307" d="M360 40v16h32V40zm0 24v16h32V64zm0 24v16h32V88zm0 24v16h32v-16zm0 24v16h32v-16zm0 24v16h32v-16zm0 24v16h32v-16zm0 24v16h32v-16zm0 24v16h32v-16z" style="marker:none" display="inline" overflow="visible" opacity="1"/><path style="marker:none" d="M400 40v16h32V40zm0 24v16h32V64zm0 24v16h32V88zm0 24v16h32v-16zm0 24v16h32v-16zm0 24v16h32v-16zm0 24v16h32v-16zm0 24v16h32v-16zm0 24v16h32v-16z" id="path4309" display="inline" overflow="visible" opacity="1"/><path id="path4311" d="M440 40v16h32V40zm0 24v16h32V64zm0 24v16h32V88zm0 24v16h32v-16zm0 24v16h32v-16zm0 24v16h32v-16zm0 24v16h32v-16zm0 24v16h32v-16zm0 24v16h32v-16z" style="marker:none" display="inline" overflow="visible" opacity="1"/></g><path id="path4393" d="M31.305 12.828c-.353-.003-.822.04-1.446.114l-10.006 1.246c-2.508.42-2.499.55-2.507 2.212v13.492c-.105-.057-.208-.115-.316-.172-.797-.419-1.646-.717-2.787-.717-1.428 0-2.28.43-2.796.995-.515.565-.686 1.278-.686 1.83 0 .664.289 1.373.916 1.913s1.59.919 2.977.919c1.565 0 2.666-.343 3.288-1.013.49-.528.761-1.232.858-2.101v-.003a6.39 6.39 0 0 0 .032-.325c.013-.172.01-.494.01-.494v-10.33c0-1.476 0-1.564 2.508-1.9l7.006-.91c2.513-.258 2.513-.077 2.513 1.03v9.48c-.101-.056-.202-.112-.307-.167-.797-.419-1.646-.717-2.786-.717-1.429 0-2.28.43-2.797.995-.515.565-.686 1.278-.686 1.83 0 .663.29 1.373.916 1.913.627.54 1.591.92 2.977.92 1.565 0 2.666-.344 3.289-1.014.49-.528.76-1.232.857-2.101v-.002a6.43 6.43 0 0 0 .032-.326c.013-.172.01-.494.01-.494V14.56c0-1.295-.01-1.723-1.069-1.732z" style="line-height:125%;-inkscape-font-specification:Ubuntu;text-align:center" font-style="normal" font-variant="normal" font-weight="400" font-stretch="normal" font-size="15" font-family="Ubuntu" letter-spacing="0" word-spacing="0" writing-mode="lr-tb" text-anchor="middle" display="inline" fill="#fef8f8" stroke="none" stroke-width=".278"/></g></svg>