<svg xmlns:osb="http://www.openswatchbook.org/uri/2009/osb" xmlns="http://www.w3.org/2000/svg" xmlns:xlink="http://www.w3.org/1999/xlink" width="48" height="48" version="1.1" id="svg38"><defs id="defs22"><style id="style4511"/><style id="style4511-26"/><style id="style4511-9"/><style id="style4552"/><style id="style4511-2"/><style id="style4552-7"/><style id="style4552-6"/><style id="style4552-66"/><style id="style4511-8"/><style id="style4511-26-4"/><style id="style4511-9-7"/><style id="style4552-3"/><style id="style4511-2-8"/><linearGradient id="linearGradient5293" osb:paint="solid"><stop offset="0" id="stop5295" stop-color="#9a89c0" stop-opacity="1"/></linearGradient><linearGradient id="linear0" gradientUnits="userSpaceOnUse" x1="0" x2="13.547" gradientTransform="rotate(-90 24 24) scale(3.5433)"><stop stop-color="#008ef3" stop-opacity="1" id="stop14-60"/><stop offset="1" stop-color="#00d4ff" stop-opacity="1" id="stop16-62"/></linearGradient><linearGradient xlink:href="#linear0" id="linearGradient1950" x1="2.97" y1="23.78" x2="45.216" y2="23.78" gradientUnits="userSpaceOnUse" gradientTransform="matrix(0 -1 .99128 0 .398 48.95)"/><style id="style4511-87"/><style id="style4511-26-7"/><style id="style4511-9-1"/><style id="style4552-8"/><style id="style4511-2-2"/></defs><style id="style4485" type="text/css"/><style type="text/css" id="style4485-4"/><style type="text/css" id="style4485-5"/><style type="text/css" id="style4485-49"/><style type="text/css" id="style4485-1"/><path id="path5876" d="M3.31 29.2v-8.495C3.31 6.797 14.457 3.9 20.44 3.9h7.062c5.908 0 17.131 2.705 17.131 17.837v6.93c0 11.563-7.64 17.146-17.131 17.146H20.44c-9.491 0-17.132-5.47-17.132-16.613z" opacity="1" fill="#8b59b5" fill-opacity="1" stroke="url(#linearGradient1950)" stroke-width=".333" stroke-linecap="square" stroke-linejoin="bevel" stroke-miterlimit="4" stroke-dasharray="none" stroke-dashoffset="0" stroke-opacity=".078"/><g id="g1872" transform="translate(0 .53)" stroke="none" stroke-width="1.81" stroke-linecap="round" stroke-linejoin="miter" stroke-miterlimit="4" stroke-dasharray="none" stroke-dashoffset="0" stroke-opacity="1"><path id="path5889" d="M12.555 4.688a14.192 14.192 0 0 0-3.962 2.473L9.63 8.256l-5.183 5.806h6.173l5.354-5.81c-.952-.976-2.166-2.25-3.42-3.564z" opacity="1" fill="#666" fill-opacity="1"/><path id="path5893" d="M17.494 3.48c-1.883.186-3.582.616-5.092 1.263l3.328 3.513-5.18 5.806h6.172l5.352-5.81a659.094 659.094 0 0 1-4.58-4.773z" opacity="1" fill="#e6e6e6" fill-opacity="1"/><path id="path5895" d="M19.642 3.37c-.814 0-1.589.055-2.342.137l4.502 4.75-5.181 5.805h6.173l5.352-5.81c-1.304-1.337-2.98-3.096-4.683-4.882z" opacity="1" fill="#666" fill-opacity="1"/><path id="path5897" d="M23.271 3.37l4.632 4.886-5.18 5.806h6.172l5.352-5.81c-1.289-1.322-2.944-3.059-4.63-4.827a23.27 23.27 0 0 0-1.535-.055z" opacity="1" fill="#e6e6e6" fill-opacity="1"/><path id="path5899" d="M29.423 3.408l4.595 4.848-5.181 5.806h6.172l5.347-5.804c-.052-.058-.103-.116-.156-.173-.092-.094-.225-.236-.322-.336-2.33-2.352-5.682-4.07-10.455-4.341z" opacity="1" fill="#666" fill-opacity="1"/><path id="path5901" d="M38.448 6.493l1.67 1.763-5.182 5.806h6.172l1.768-1.918c-.974-2.098-2.388-4.095-4.428-5.651z" opacity="1" fill="#e6e6e6" fill-opacity="1"/><path id="path5903" d="M42.806 12l-1.841 2.062h2.688A18.756 18.756 0 0 0 42.806 12z" opacity="1" fill="#666" fill-opacity="1"/><path id="path5905" d="M8.834 6.96c-2.177 1.836-3.77 4.248-4.662 7.102h.55l5.352-5.81c-.346-.354-.836-.871-1.24-1.292z" opacity="1" fill="#e6e6e6" fill-opacity="1"/><path id="rect5972" d="M4.188 14.02c-.073.222-.13.454-.196.68h39.855c-.068-.227-.133-.452-.21-.68z" opacity="1" fill="#0db0e4" fill-opacity=".188"/></g><style type="text/css" id="style4485-11"/><path style="marker:none" d="M18.225 20.594v17.53s8.763-3.593 15.923-8.77c0-.002 0-.003-.002-.005l-.003-.006a.029.029 0 0 1-.003-.006.012.012 0 0 1-.002-.005c-7.553-5.342-15.913-8.738-15.913-8.738z" id="path4360" color="#000" display="inline" overflow="visible" visibility="visible" fill="#fff" fill-opacity="1" fill-rule="nonzero" stroke="none" stroke-width=".435"/></svg>