<svg xmlns="http://www.w3.org/2000/svg" xmlns:xlink="http://www.w3.org/1999/xlink" width="48" height="48" version="1.1" id="svg38"><defs id="defs22"><linearGradient id="linearGradient4488"><stop id="stop4490" offset="0" stop-color="#000" stop-opacity=".047"/><stop id="stop4492" offset="1" stop-color="#000" stop-opacity="0"/></linearGradient><style id="style4511"/><style id="style4511-26"/><style id="style4511-9"/><style id="style4552"/><style id="style4511-2"/><linearGradient gradientTransform="translate(-63.205 2.216) scale(.3038)" xlink:href="#linearGradient4488" id="linearGradient4160" x1="288.112" y1="141.785" x2="287.575" y2="79.008" gradientUnits="userSpaceOnUse"/></defs><style id="style4485" type="text/css"/><path d="M2.433 26.443v1.668c0 9.575 5.583 17.282 17.146 17.282h6.93c15.133 0 17.837-11.322 17.837-17.282v-1.668c0 5.96-2.704 17.282-17.837 17.282h-6.93c-11.563 0-17.146-7.708-17.146-17.282z" id="path4147" opacity="1" fill="url(#linearGradient4160)" fill-opacity="1" stroke="none" stroke-width="1.1" stroke-linecap="square" stroke-linejoin="bevel" stroke-miterlimit="4" stroke-dasharray="none" stroke-dashoffset="0" stroke-opacity=".078"/><path d="M19.046 2.965h8.495c13.908 0 16.805 11.246 16.805 17.282v7.123c0 5.96-2.704 17.282-17.837 17.282h-6.93c-11.562 0-17.146-7.708-17.146-17.282v-7.123c0-9.575 5.47-17.282 16.613-17.282z" id="rect4144" opacity="1" fill="#598cff" fill-opacity="1" stroke="#000" stroke-width=".334" stroke-linecap="square" stroke-linejoin="bevel" stroke-miterlimit="4" stroke-dasharray="none" stroke-dashoffset="0" stroke-opacity=".078"/><path d="M23.53 11.591c-.54-.019-.721.004-1.045.125-1.197.449-1.9 1.41-1.941 2.662l-.02.576-.672.346c-1.62.836-2.86 2.035-3.625 3.506-.646 1.242-.82 1.97-.904 3.812-.096 2.098-.394 3.54-.994 4.809-.676 1.43-1.505 2.242-2.566 2.516l-.471.123v2.771h24.195v-2.783l-.445-.12c-1.137-.307-2.08-1.327-2.719-2.94-.503-1.272-.707-2.356-.803-4.294-.09-1.823-.26-2.62-.8-3.705-.795-1.598-2.28-3.035-3.916-3.793l-.516-.238.027-.38c.079-1.097-.578-2.203-1.615-2.716-.468-.231-.577-.256-1.17-.277zm-.115 1.176c.584 0 1.17.308 1.492.924.257.491.256.971-.002 1.58l-.19.443.811.285c2.941 1.03 4.766 3.513 4.766 6.485 0 1.406.258 3.05.68 4.334.653 1.991 1.66 3.33 3.013 4.01l.348.173-.022.32-.02.319-10.884.017-10.885.018v-.676l.494-.258c.973-.507 1.93-1.66 2.528-3.048.596-1.382.9-2.94 1.008-5.143.071-1.48.19-2.046.62-2.947.838-1.754 2.412-3.06 4.481-3.719l.485-.154-.194-.451c-.26-.61-.262-1.082-.008-1.584a1.647 1.647 0 0 1 1.479-.928zm-.154 20.685c-2.194 0-2.743.018-2.743.088 0 .219.223.909.38 1.176.321.55.93 1.031 1.568 1.242.167.056.511.082.888.07.52-.015.686-.05 1.06-.226.245-.115.593-.353.774-.53.373-.363.73-1.057.782-1.519l.035-.3H23.26z" id="path12626" fill="#fff" fill-opacity="1" stroke="none" stroke-width="1.274" stroke-miterlimit="4" stroke-dasharray="none" stroke-opacity="1"/></svg>