<svg xmlns="http://www.w3.org/2000/svg" xmlns:xlink="http://www.w3.org/1999/xlink" width="48" height="48" version="1.1" id="svg38"><defs id="defs22"><linearGradient id="linearGradient4488"><stop id="stop4490" offset="0" stop-color="#000" stop-opacity=".047"/><stop id="stop4492" offset="1" stop-color="#000" stop-opacity="0"/></linearGradient><style id="style4511"/><style id="style4511-26"/><style id="style4511-9"/><style id="style4552"/><style id="style4511-2"/><linearGradient gradientTransform="translate(-63.205 2.216) scale(.3038)" xlink:href="#linearGradient4488" id="linearGradient4160" x1="288.112" y1="141.785" x2="287.575" y2="79.008" gradientUnits="userSpaceOnUse"/></defs><style id="style4485" type="text/css"/><path d="M2.433 26.443v1.668c0 9.575 5.583 17.282 17.146 17.282h6.93c15.133 0 17.837-11.322 17.837-17.282v-1.668c0 5.96-2.704 17.282-17.837 17.282h-6.93c-11.563 0-17.146-7.708-17.146-17.282z" id="path4147" opacity="1" fill="url(#linearGradient4160)" fill-opacity="1" stroke="none" stroke-width="1.1" stroke-linecap="square" stroke-linejoin="bevel" stroke-miterlimit="4" stroke-dasharray="none" stroke-dashoffset="0" stroke-opacity=".078"/><path d="M19.046 2.965h8.495c13.908 0 16.805 11.246 16.805 17.282v7.123c0 5.96-2.704 17.282-17.837 17.282h-6.93c-11.562 0-17.146-7.708-17.146-17.282v-7.123c0-9.575 5.47-17.282 16.613-17.282z" id="rect4144" opacity="1" fill="#ffbd0b" fill-opacity="1" stroke="#000" stroke-width=".334" stroke-linecap="square" stroke-linejoin="bevel" stroke-miterlimit="4" stroke-dasharray="none" stroke-dashoffset="0" stroke-opacity=".078"/><path d="M24.55 12.175c-8.282-.002-8.731.003-8.988.087-.422.14-.703.372-.881.729l-.153.307v.894c0 .493-.015 1.133-.033 1.422l-.031.523H12.36v1.036h3.186l.033-1.043c.018-.574.033-1.457.033-1.963v-.92l8.698-.035 8.699-.036.166.16.166.163v6.181c0 3.913-.02 6.247-.051 6.356-.046.165-.572.83-1.346 1.7a774.24 774.24 0 0 1-1.802 2.01l-.125.141.369.336c.202.185.383.326.404.313.064-.04 1.842-2.019 2.455-2.733.661-.77.938-1.161 1.08-1.521.1-.251.101-.321.088-6.541l-.014-6.287-.138-.293c-.19-.404-.418-.67-.729-.84l-.265-.145-8.717-.002zm-4.658 5.923v1.203h.005l2.76 4.78-2.765 4.789v1.254h9.62v-2.406H28.31v1.203h-7.057l2.793-4.84-2.76-4.781h5.82v.601h1.204v-1.803h-8.418zm-5.61 1.635l-.011 1.145-.014 1.146-.924.012-.924.014v1.08h2.858v-3.397h-.985zm-.1 5.81v2.66H12.36v1.082h2.858v-3.741h-1.035zm-.097 6.077v.264c0 .41.14.984.342 1.416.428.912 1.207 1.598 2.21 1.941l.378.129 5.861.023 8.557.037 2.695.012V34.36l-7.793-.005c-4.286-.002-8.15-.018-8.588-.037-.792-.035-.797-.036-1.178-.224-.819-.405-1.45-1.345-1.45-2.157 0-.214.002-.215-.628-.277l-.406-.04z" id="path31847" fill="#fefefe" fill-opacity="1" stroke="none" stroke-width=".019" stroke-miterlimit="4" stroke-dasharray="none" stroke-opacity="1"/></svg>