<svg xmlns="http://www.w3.org/2000/svg" xmlns:xlink="http://www.w3.org/1999/xlink" width="48" height="48" version="1.1" id="svg38"><defs id="defs22"><linearGradient id="linearGradient4488"><stop id="stop4490" offset="0" stop-color="#000" stop-opacity=".047"/><stop id="stop4492" offset="1" stop-color="#000" stop-opacity="0"/></linearGradient><style id="style4511"/><style id="style4511-26"/><style id="style4511-9"/><style id="style4552"/><style id="style4511-2"/><linearGradient xlink:href="#linearGradient4488" id="linearGradient4548" gradientUnits="userSpaceOnUse" gradientTransform="translate(-62.55 1.994) scale(.3038)" x1="288.112" y1="141.785" x2="287.575" y2="79.008"/></defs><style id="style4485" type="text/css"/><path id="path4532" d="M3.088 26.22v1.67c0 9.573 5.583 17.281 17.146 17.281h6.93c15.133 0 17.837-11.322 17.837-17.282v-1.668c0 5.96-2.704 17.282-17.837 17.282h-6.93c-11.563 0-17.146-7.708-17.146-17.282z" opacity="1" fill="url(#linearGradient4548)" fill-opacity="1" stroke="none" stroke-width="1.1" stroke-linecap="square" stroke-linejoin="bevel" stroke-miterlimit="4" stroke-dasharray="none" stroke-dashoffset="0" stroke-opacity=".078"/><path id="path4534" d="M19.701 2.742h8.495c13.908 0 16.805 11.247 16.805 17.282v7.124c0 5.96-2.704 17.282-17.837 17.282h-6.93c-11.562 0-17.146-7.708-17.146-17.282v-7.124c0-9.574 5.47-17.282 16.613-17.282z" opacity="1" fill="#384958" fill-opacity=".961" stroke="#000" stroke-width=".334" stroke-linecap="square" stroke-linejoin="bevel" stroke-miterlimit="4" stroke-dasharray="none" stroke-dashoffset="0" stroke-opacity=".078"/><path d="M16.77 17.11v6.96h.966v-6.96h-.967zm18.42 1.015l1.087 1.74 1.088 1.74-1.088 1.743-1.09 1.74.393-.014.392-.013.682-1.09c.374-.6.774-1.238.889-1.42l.207-.33.894 1.431.897 1.434h.761l-1.087-1.738-1.086-1.737.855-1.369 1.09-1.742.234-.375h-.767l-.887 1.424c-.487.783-.895 1.424-.908 1.424-.014 0-.424-.641-.91-1.424l-.885-1.424h-.761zM7.78 20.107v6.959h.966l.013-2.757.012-2.76 1.863 2.746 1.864 2.748.613.014.613.013v-6.962h-.965l-.013 2.84-.012 2.837-1.896-2.838-1.899-2.84H7.781zm18.987 1.014l.02 2.092c.018 1.976.026 2.11.127 2.467.145.514.303.859.562 1.222.385.54 1.022.97 1.639 1.112.394.09 1.128.055 1.48-.069 1.014-.356 1.653-1.082 1.985-2.26.102-.363.108-.488.127-2.472l.02-2.092h-.97l-.015 2.067c-.016 2.013-.02 2.074-.13 2.404-.254.765-.526 1.15-.962 1.363-.255.125-.317.134-.879.135-.691 0-.86-.043-1.2-.31-.259-.206-.506-.631-.69-1.188-.11-.329-.113-.396-.13-2.404l-.015-2.067h-.969zm-5.986 2.031v6.911h3.962v-.918h-2.995v-5.993h-.967z" id="path14733" fill="#fff" fill-opacity="1" stroke="none" stroke-width=".048" stroke-opacity="1"/></svg>