<svg xmlns="http://www.w3.org/2000/svg" xmlns:xlink="http://www.w3.org/1999/xlink" width="48" height="48" version="1.1" id="svg38"><defs id="defs22"><linearGradient id="linearGradient4488"><stop id="stop4490" offset="0" stop-color="#000" stop-opacity=".047"/><stop id="stop4492" offset="1" stop-color="#000" stop-opacity="0"/></linearGradient><style id="style4511"/><style id="style4511-26"/><style id="style4511-9"/><style id="style4552"/><style id="style4511-2"/><linearGradient gradientTransform="translate(-63.205 2.216) scale(.3038)" xlink:href="#linearGradient4488" id="linearGradient4160" x1="288.112" y1="141.785" x2="287.575" y2="79.008" gradientUnits="userSpaceOnUse"/></defs><style id="style4485" type="text/css"/><path d="M2.433 26.443v1.668c0 9.575 5.583 17.282 17.146 17.282h6.93c15.133 0 17.837-11.322 17.837-17.282v-1.668c0 5.96-2.704 17.282-17.837 17.282h-6.93c-11.563 0-17.146-7.708-17.146-17.282z" id="path4147" opacity="1" fill="url(#linearGradient4160)" fill-opacity="1" stroke="none" stroke-width="1.1" stroke-linecap="square" stroke-linejoin="bevel" stroke-miterlimit="4" stroke-dasharray="none" stroke-dashoffset="0" stroke-opacity=".078"/><path d="M19.046 2.965h8.495c13.908 0 16.805 11.246 16.805 17.282v7.123c0 5.96-2.704 17.282-17.837 17.282h-6.93c-11.562 0-17.146-7.708-17.146-17.282v-7.123c0-9.575 5.47-17.282 16.613-17.282z" id="rect4144" opacity="1" fill="#ffbd0b" fill-opacity="1" stroke="#000" stroke-width=".334" stroke-linecap="square" stroke-linejoin="bevel" stroke-miterlimit="4" stroke-dasharray="none" stroke-dashoffset="0" stroke-opacity=".078"/><g id="g21266" transform="translate(-1.74 .06)" fill="#fff" stroke="none" stroke-miterlimit="4" stroke-dasharray="none" stroke-opacity="1"><path id="path21229" d="M19.588 13.83c-2.78-.115-5.52.928-7.559 2.97-1.39 1.392-2.335 3.14-2.771 5.123-.177.804-.214 2.669-.07 3.59.148.952.503 2.063.94 2.938a10.169 10.169 0 0 0 7.68 5.537c.83.119 2.34.087 3.196-.069 2.721-.493 5.175-2.136 6.691-4.478.712-1.1.8-1.39.5-1.66-.092-.083-1.89-.981-3.996-1.996-2.106-1.015-3.83-1.864-3.832-1.887-.001-.023 1.66-1.05 3.693-2.283 2.033-1.233 3.743-2.312 3.801-2.4a.444.444 0 0 0 .065-.327c-.09-.357-.792-1.277-1.576-2.064-1.227-1.231-2.398-1.96-3.995-2.489a10.133 10.133 0 0 0-2.767-.505zm-.635 1.062a9.045 9.045 0 0 1 6.918 2.93c.408.443.81.954.773.984-.013.012-1.762 1.074-3.886 2.36-2.124 1.285-3.917 2.401-3.983 2.478-.153.179-.151.41.002.6.067.082 1.94 1.03 4.184 2.119 2.235 1.084 4.074 2.004 4.088 2.045.048.146-.854 1.355-1.467 1.967a9.104 9.104 0 0 1-4.9 2.515c-.75.13-2.257.128-3.045-.004-1.77-.296-3.51-1.204-4.828-2.52-1.031-1.026-1.71-2.098-2.168-3.423-.38-1.097-.487-1.758-.487-3.004 0-1.589.258-2.693.961-4.102 1.047-2.098 3.016-3.784 5.252-4.502a9.266 9.266 0 0 1 2.586-.443z" fill-opacity="1" stroke-width=".077"/><path id="path4910-6" d="M29.723 22.014a2.337 2.337 0 0 0-2.336 2.338 2.337 2.337 0 0 0 2.336 2.336 2.337 2.337 0 0 0 2.338-2.336 2.337 2.337 0 0 0-2.338-2.338zm8.084 0a2.337 2.337 0 0 0-2.336 2.338 2.337 2.337 0 0 0 2.336 2.336 2.337 2.337 0 0 0 2.338-2.336 2.337 2.337 0 0 0-2.338-2.338z" opacity="1" fill-opacity=".5" stroke-width="4.005" stroke-linecap="butt" stroke-linejoin="miter" stroke-dashoffset="4"/></g></svg>