<svg xmlns="http://www.w3.org/2000/svg" xmlns:xlink="http://www.w3.org/1999/xlink" width="48" height="48" version="1.1" id="svg38"><defs id="defs22"><linearGradient id="linearGradient4488"><stop id="stop4490" offset="0" stop-color="#000" stop-opacity=".047"/><stop id="stop4492" offset="1" stop-color="#000" stop-opacity="0"/></linearGradient><style id="style4511"/><style id="style4511-26"/><style id="style4511-9"/><style id="style4552"/><style id="style4511-2"/><linearGradient gradientTransform="translate(-63.205 2.216) scale(.3038)" xlink:href="#linearGradient4488" id="linearGradient4160" x1="288.112" y1="141.785" x2="287.575" y2="79.008" gradientUnits="userSpaceOnUse"/><linearGradient xlink:href="#linearGradient4465-6" id="linearGradient4241" gradientUnits="userSpaceOnUse" x1="21.796" y1="34.488" x2="5.928" y2="21.905" gradientTransform="matrix(.97222 0 0 .975 .667 .6)"/><linearGradient id="linearGradient4465-6"><stop offset="0" id="stop5152" stop-color="#172525" stop-opacity="1"/><stop offset="1" id="stop5154" stop-color="#334545" stop-opacity="1"/></linearGradient><linearGradient xlink:href="#linearGradient4432-3" id="linearGradient4225" x1="39.597" y1="59.821" x2="13.173" y2="25.25" gradientUnits="userSpaceOnUse"/><linearGradient id="linearGradient4432-3"><stop id="stop12772" offset="0" stop-color="#eff1f1" stop-opacity="1"/><stop id="stop12774" offset="1" stop-color="#6f8181" stop-opacity="1"/></linearGradient><linearGradient gradientUnits="userSpaceOnUse" y2="43.481" x2="19.142" y1="32.974" x1="13.076" id="linearGradient4481-5" xlink:href="#linearGradient4488"/><linearGradient gradientUnits="userSpaceOnUse" y2="26.122" x2="14.783" y1="20" x1="8.662" id="linearGradient4470-3" xlink:href="#linearGradient4488"/><linearGradient xlink:href="#linearGradient4432-3" id="linearGradient4217-6" x1="42.961" y1="42.16" x2=".204" y2="9.136" gradientUnits="userSpaceOnUse"/><linearGradient xlink:href="#linearGradient4432-3" id="linearGradient4233-7" x1="55.699" y1="41.991" x2="29.695" y2="20.091" gradientUnits="userSpaceOnUse"/></defs><style id="style4485" type="text/css"/><path d="M2.433 26.443v1.668c0 9.575 5.583 17.282 17.146 17.282h6.93c15.133 0 17.837-11.322 17.837-17.282v-1.668c0 5.96-2.704 17.282-17.837 17.282h-6.93c-11.563 0-17.146-7.708-17.146-17.282z" id="path4147" opacity="1" fill="url(#linearGradient4160)" fill-opacity="1" stroke="none" stroke-width="1.1" stroke-linecap="square" stroke-linejoin="bevel" stroke-miterlimit="4" stroke-dasharray="none" stroke-dashoffset="0" stroke-opacity=".078"/><path d="M19.046 2.965h8.495c13.908 0 16.805 11.246 16.805 17.282v7.123c0 5.96-2.704 17.282-17.837 17.282h-6.93c-11.562 0-17.146-7.708-17.146-17.282v-7.123c0-9.575 5.47-17.282 16.613-17.282z" id="rect4144" opacity="1" fill="#e3e7ea" fill-opacity="1" stroke="#000" stroke-width=".334" stroke-linecap="square" stroke-linejoin="bevel" stroke-miterlimit="4" stroke-dasharray="none" stroke-dashoffset="0" stroke-opacity=".078"/><g id="g12824" transform="matrix(.74536 0 0 .76344 5.5 5.486)" fill-opacity="1" stroke-width="2" stroke-linejoin="round"><path id="path12788" d="M24 4.5L6.5 14.25v19.5L24 43.5l17.5-9.75v-19.5z" opacity="1" fill="url(#linearGradient4241)" stroke="none" stroke-linecap="round" stroke-miterlimit="4" stroke-dasharray="none" stroke-opacity="1"/><path id="path12790" d="M6 14v20l18 10V24z" opacity="1" fill="url(#linearGradient4225)" stroke="none" stroke-linecap="round" stroke-miterlimit="4" stroke-dasharray="none" stroke-opacity="1"/><path id="path12792" d="M18.322 23.238l-.26 6.117-3.208.297-1.907 1.686 3.698 3.697-2.856-.635-.351.461-.526.871 4.742 4.743L24 44V28.916z" opacity=".4" fill="url(#linearGradient4481-5)" stroke="none" stroke-linecap="round" stroke-miterlimit="4" stroke-dasharray="none" stroke-opacity="1"/><path id="path12794" d="M12.736 20.975l-4.756.855L24 37.85v-6.84z" opacity=".4" fill="url(#linearGradient4470-3)" stroke="none" stroke-linecap="round" stroke-miterlimit="4" stroke-dasharray="none" stroke-opacity="1"/><path id="path12796" d="M9.56 7.623L33.957 21.71 9.56 35.797l-24.4-14.087z" transform="matrix(.73773 0 0 .70988 16.948 -1.411)" opacity="1" fill="url(#linearGradient4217-6)" stroke="none" stroke-linecap="round" stroke-miterlimit="4" stroke-dasharray="none" stroke-opacity="1"/><path id="path12798" d="M42 14v20L24 44V24z" opacity="1" fill="url(#linearGradient4233-7)" stroke="none" stroke-linecap="round" stroke-miterlimit="4" stroke-dasharray="none" stroke-opacity="1"/><path id="path12800" d="M6 33v1l18 10 18-10v-1L24 43z" opacity=".15" fill="#000" stroke="none" stroke-linecap="round" stroke-miterlimit="4" stroke-dasharray="none" stroke-opacity="1"/><path id="path12802" d="M14.95 20.728c-1.925-1.11-3.724-1.648-4.994-1.445-1.27.207-1.95 1.148-1.956 2.573l3.96 2.287c.004-.774.32-1.094.788-1.17.467-.076 1.145.082 2.19.685 1.045.603 1.72 1.227 2.185 1.84.464.615.776 1.298.773 2.072-.003.672-.183.855-.423.97-.24.115-.632.129-1.215.095-.583-.034-1.358-.133-2.076.072-.717.205-1.254.832-1.26 1.87l-.002.733 3.96 2.287.003-.733c.002-.428.085-.452.3-.514.213-.06.68-.04 1.336-.001.656.038 1.504.079 2.196-.255.693-.334 1.136-1.077 1.141-2.238.007-1.425-.662-3.146-1.923-4.813-1.262-1.668-3.056-3.203-4.98-4.313m-2.034 12.052l-.013 2.931L16.866 38l.013-2.931-3.96-2.287" fill="#fff"/></g></svg>