<svg xmlns="http://www.w3.org/2000/svg" xmlns:xlink="http://www.w3.org/1999/xlink" width="48" height="48" version="1.1" id="svg38"><defs id="defs22"><linearGradient id="linearGradient4488"><stop id="stop4490" offset="0" stop-color="#000" stop-opacity=".047"/><stop id="stop4492" offset="1" stop-color="#000" stop-opacity="0"/></linearGradient><style id="style4511"/><style id="style4511-26"/><style id="style4511-9"/><style id="style4552"/><style id="style4511-2"/><linearGradient gradientTransform="translate(-63.205 2.216) scale(.3038)" xlink:href="#linearGradient4488" id="linearGradient4160" x1="288.112" y1="141.785" x2="287.575" y2="79.008" gradientUnits="userSpaceOnUse"/></defs><style id="style4485" type="text/css"/><path d="M2.433 26.443v1.668c0 9.575 5.583 17.282 17.146 17.282h6.93c15.133 0 17.837-11.322 17.837-17.282v-1.668c0 5.96-2.704 17.282-17.837 17.282h-6.93c-11.563 0-17.146-7.708-17.146-17.282z" id="path4147" opacity="1" fill="url(#linearGradient4160)" fill-opacity="1" stroke="none" stroke-width="1.1" stroke-linecap="square" stroke-linejoin="bevel" stroke-miterlimit="4" stroke-dasharray="none" stroke-dashoffset="0" stroke-opacity=".078"/><path d="M19.046 2.965h8.495c13.908 0 16.805 11.246 16.805 17.282v7.123c0 5.96-2.704 17.282-17.837 17.282h-6.93c-11.562 0-17.146-7.708-17.146-17.282v-7.123c0-9.575 5.47-17.282 16.613-17.282z" id="rect4144" opacity="1" fill="#4074e6" fill-opacity="1" stroke="#000" stroke-width=".334" stroke-linecap="square" stroke-linejoin="bevel" stroke-miterlimit="4" stroke-dasharray="none" stroke-dashoffset="0" stroke-opacity=".078"/><path d="M24.904 11.658l-.166.02c-.092.01-.686.068-1.32.128-.634.061-1.16.12-1.17.13-.01.01-.015 3.638-.01 8.064l.008 8.047 1.299-.198 1.306-.197c.005 0 .013-1.556.018-3.457l.01-3.455.712-.22c.393-.122.73-.214.752-.206.022.009 1.254 1.79 2.737 3.961l2.695 3.946.465-.147 1.412-.45c.68-.214.944-.311.932-.343a465.66 465.66 0 0 0-2.598-3.592l-2.58-3.549-.273-.496.273-.496 2.576-3.31a313.553 313.553 0 0 0 2.566-3.32 58.57 58.57 0 0 0-1.406-.333c-1.075-.246-1.405-.31-1.435-.279-.022.022-1.234 1.641-2.694 3.596s-2.67 3.557-2.693 3.562c-.022.005-.357-.096-.742-.224l-.7-.235.012-3.472zm-8.885 4.414l-.512.512c-.28.28-.51.515-.51.521 0 .007.393.662.872 1.453l.87 1.438v.107a8.243 8.243 0 0 0-1.235 2.883l-.133.121-1.584.33c-.871.181-1.586.328-1.588.328-.003 0-.004.333-.004.737v.734l.037.01c.021.005.72.173 1.55.375l1.515.367.107.108a8.182 8.182 0 0 0 1.238 3.132c-.005.071-.008.2-.013.211-.014.025-.409.628-.877 1.342-.469.714-.86 1.312-.871 1.33-.015.024.123.178.484.54.277.277.513.503.525.503.012 0 .651-.38 1.418-.846l1.395-.845h.07a8.209 8.209 0 0 0 3.188 1.37l.306 1.493c.173.835.324 1.546.336 1.58.017.047.19.06.735.049l.712-.014.387-1.582.362-1.467a8.257 8.257 0 0 0 3.466-1.398l1.272.842 1.379.912.466-.461.467-.461-.22-.416c-.602-1.129-1.017-1.777-1.44-2.299.237-.324.452-.666.643-1.03l-.62-.325a7.542 7.542 0 0 1-7.92 3.931 7.542 7.542 0 0 1-2.187-14.16l-.318-.625c-.32.163-.62.35-.91.549l-.047-.033c-.046-.032-.697-.46-1.447-.951z" id="path15913" fill="#fff" fill-opacity="1" stroke="none" stroke-width=".077" stroke-linecap="round" stroke-linejoin="bevel" stroke-miterlimit="4" stroke-dasharray="none" stroke-opacity="1"/></svg>