<svg xmlns="http://www.w3.org/2000/svg" xmlns:xlink="http://www.w3.org/1999/xlink" width="48" height="48" version="1.1" id="svg38"><defs id="defs22"><linearGradient id="linearGradient4488"><stop id="stop4490" offset="0" stop-color="#000" stop-opacity=".047"/><stop id="stop4492" offset="1" stop-color="#000" stop-opacity="0"/></linearGradient><style id="style4511"/><style id="style4511-26"/><style id="style4511-9"/><style id="style4552"/><style id="style4511-2"/><linearGradient xlink:href="#linearGradient4488" id="linearGradient4548" gradientUnits="userSpaceOnUse" gradientTransform="translate(-62.55 1.994) scale(.3038)" x1="288.112" y1="141.785" x2="287.575" y2="79.008"/></defs><style id="style4485" type="text/css"/><path id="path4532" d="M3.088 26.22v1.67c0 9.573 5.583 17.281 17.146 17.281h6.93c15.133 0 17.837-11.322 17.837-17.282v-1.668c0 5.96-2.704 17.282-17.837 17.282h-6.93c-11.563 0-17.146-7.708-17.146-17.282z" opacity="1" fill="url(#linearGradient4548)" fill-opacity="1" stroke="none" stroke-width="1.1" stroke-linecap="square" stroke-linejoin="bevel" stroke-miterlimit="4" stroke-dasharray="none" stroke-dashoffset="0" stroke-opacity=".078"/><path id="path4534" d="M19.701 2.742h8.495c13.908 0 16.805 11.247 16.805 17.282v7.124c0 5.96-2.704 17.282-17.837 17.282h-6.93c-11.562 0-17.146-7.708-17.146-17.282v-7.124c0-9.574 5.47-17.282 16.613-17.282z" opacity="1" fill="#384958" fill-opacity=".961" stroke="#000" stroke-width=".334" stroke-linecap="square" stroke-linejoin="bevel" stroke-miterlimit="4" stroke-dasharray="none" stroke-dashoffset="0" stroke-opacity=".078"/><path id="path4505-6" d="M23.19 12.34l-2.486 5.255v4.345a21.2 21.2 0 0 1-1.129 1.265c-1.307 1.358-2.772 2.545-3.753 2.884l-1.651-1.712-5.063 2.58v12.52h18.087V16.184c-1.09-2.453-2.287-3.368-4.005-3.846zm-6.893 16.795h.002a32.79 32.79 0 0 1-.002 0zm-1.703 1.031h.003a36.278 36.278 0 0 1-.003 0z" style="marker:none" color="#000" display="inline" overflow="visible" visibility="visible" opacity=".05" fill="red" fill-opacity="0" fill-rule="nonzero" stroke="none" stroke-width="2.879"/><path id="path8" d="M23.536 10.666l.04 26.917h1.993V10.666z" fill="#f36043" fill-opacity="1" stroke-width=".523"/><path id="path12" d="M19.471 14.973v1.615h2.033v-1.615zm-2.033 3.23v1.615h4.066v-1.615zm-4.065 3.23v1.615h8.13v-1.615zm-2.033 3.23v1.615h10.164v-1.615zm2.033 3.23v1.615h8.13v-1.615zm4.065 3.23v1.615h4.066v-1.615z" fill="#5cddf5" fill-opacity="1" fill-rule="evenodd" stroke-width=".523"/><path id="path16" d="M28.618 9.59h-8.131l2.033 3.23 2.033 3.23 2.032-3.23z" fill="#c32356" fill-opacity="1" stroke-width=".523"/><path id="path20" d="M28.392 17.88c-.374.022-.777.37-.776.757l-.014 11.406c0 .515.715.963 1.125.657l7.713-5.722c.412-.303.411-1.012 0-1.315l-7.699-5.683a.527.527 0 0 0-.349-.1z" fill="#28a3b2" fill-opacity="1" stroke-width=".523"/></svg>