<svg xmlns="http://www.w3.org/2000/svg" xmlns:xlink="http://www.w3.org/1999/xlink" width="48" height="48" version="1.1" id="svg38"><defs id="defs22"><linearGradient id="linearGradient4488"><stop id="stop4490" offset="0" stop-color="#000" stop-opacity=".047"/><stop id="stop4492" offset="1" stop-color="#000" stop-opacity="0"/></linearGradient><style id="style4511"/><style id="style4511-26"/><style id="style4511-9"/><style id="style4552"/><style id="style4511-2"/><linearGradient xlink:href="#linearGradient4488" id="linearGradient4471" gradientUnits="userSpaceOnUse" gradientTransform="translate(-62.47 2.216) scale(.3038)" x1="288.112" y1="141.785" x2="287.575" y2="79.008"/><circle id="SVGID_1_" r="15.999" cy="-31.965" cx="73.957"/><radialGradient gradientUnits="userSpaceOnUse" r="8" cy="23" cx="25" id="radialGradient4218"><stop id="stop1513" stop-color="#3ea614" stop-opacity="1"/><stop id="stop1515" offset="1" stop-color="#82cd19" stop-opacity="1"/></radialGradient></defs><style id="style4485" type="text/css"/><g id="g9" transform="translate(-49.354 -2.761)"><g id="g11"><g id="g13"><g id="g15"><g id="g17" opacity=".15"><g id="g19"><clipPath id="SVGID_2_"><use id="use25" x="0" y="0" width="1" height="1" xlink:href="#SVGID_1_" overflow="visible"/></clipPath></g></g></g></g></g></g><path d="M3.168 26.443v1.668c0 9.575 5.583 17.282 17.146 17.282h6.93c15.132 0 17.836-11.322 17.836-17.282v-1.668c0 5.96-2.704 17.282-17.836 17.282h-6.93c-11.563 0-17.146-7.708-17.146-17.282z" id="path4467" opacity="1" fill="url(#linearGradient4471)" fill-opacity="1" stroke="none" stroke-width="1.1" stroke-linecap="square" stroke-linejoin="bevel" stroke-miterlimit="4" stroke-dasharray="none" stroke-dashoffset="0" stroke-opacity=".078"/><path d="M19.781 2.965h8.495c13.908 0 16.805 11.246 16.805 17.282v7.123c0 5.96-2.705 17.282-17.837 17.282h-6.93c-11.563 0-17.146-7.708-17.146-17.282v-7.123c0-9.575 5.47-17.282 16.613-17.282z" id="path4469" opacity="1" fill="#666" fill-opacity="1" stroke="#000" stroke-width=".334" stroke-linecap="square" stroke-linejoin="bevel" stroke-miterlimit="4" stroke-dasharray="none" stroke-dashoffset="0" stroke-opacity=".078"/><g transform="matrix(1.08051 0 0 1.06903 -2.352 -2.384)" id="g1546" fill-rule="nonzero" stroke="none"><path d="M16 12.986c-.031 0-.07.008-.094.031l-.875.875c-.047.047-.047.14 0 .188l1.219 1.219-.344.344a.22.22 0 0 0-.031.281l2.156 3.564a8.96 8.96 0 0 0-.844 1.969l-4 .844c-.109.023-.189.109-.189.219v2.605c0 .102.083.188.189.219l3.875.938c.199.805.508 1.574.906 2.281l-2.25 3.406c-.063.09-.049.227.029.313l1.814 1.813c.078.078.218.086.313.031l3.5-2.125c.66.383 1.371.695 2.125.906l.813 3.906c.023.109.109.188.219.188h2.596c.109 0 .195-.081.219-.188l.969-3.875a9.12 9.12 0 0 0 2.25-.906l3.406 2.188a.219.219 0 0 0 .281-.031l.469-.469 1.188 1.189c.047.047.148.047.191 0l.875-.875a.11.11 0 0 0 0-.156l-1.191-1.189.281-.313c.078-.078.121-.191.066-.281l-2.156-3.5c.234-.422.453-.883.625-1.344a.15.15 0 0 0 0-.094c-.016-.031-.063-.055-.094-.063l-1.037-.266A8 8 0 0 0 34 23.986a8 8 0 0 0-8-8 8 8 0 0 0-2.793.508l-.201-.932c-.008-.035-.035-.046-.066-.063-.027-.023-.059-.02-.094 0a8.124 8.124 0 0 0-1.314.594c-.004-.004.008-.031 0-.031l-3.5-2.281a.254.254 0 0 0-.313.031l-.406.438-1.25-1.219C16.04 13.008 16.033 13 16 13z" id="path1536" fill="#000" fill-opacity=".098"/><path d="M15 12c-.031 0-.07.008-.094.031l-.875.875a.143.143 0 0 0 0 .188l1.219 1.219-.344.344a.22.22 0 0 0-.031.281l2.156 3.563a8.96 8.96 0 0 0-.844 1.969l-4 .844c-.109.023-.188.109-.188.219v2.605c0 .102.082.188.188.219l3.875.938c.199.805.508 1.574.906 2.281l-2.25 3.406c-.063.09-.047.227.031.313l1.813 1.813c.078.078.219.086.313.031l3.5-2.125c.66.383 1.371.695 2.125.906l.813 3.906c.023.109.109.188.219.188h2.594c.109 0 .195-.082.219-.188l.969-3.875a9.12 9.12 0 0 0 2.25-.906l3.406 2.188a.219.219 0 0 0 .281-.031l.469-.469 1.188 1.188c.047.047.148.047.191 0l.875-.875a.11.11 0 0 0 0-.156l-1.191-1.188.281-.313c.078-.078.121-.191.066-.281l-2.156-3.5c.234-.422.453-.883.625-1.344a.15.15 0 0 0 0-.094c-.016-.031-.063-.055-.094-.063l-1.098-.281c-.004-.004-.023 0-.027 0a7.95 7.95 0 0 0 .5-2.719c0-4.316-3.516-7.844-7.848-7.844-.969 0-1.918.172-2.777.5.004-.023.004-.023 0-.031l-.25-1.156c-.008-.035-.035-.047-.066-.063-.027-.023-.059-.02-.094 0a8.113 8.113 0 0 0-1.313.594c-.004-.004.008-.031 0-.031l-3.5-2.281a.254.254 0 0 0-.313.031l-.406.438-1.25-1.219c-.023-.023-.031-.031-.063-.031" id="path1538" fill="#e6e6e6" fill-opacity="1"/><circle r="8" cy="23" cx="25" id="circle1540" opacity="1" fill="url(#radialGradient4218)" fill-opacity="1"/><circle transform="rotate(-90)" r="5" cy="24.999" cx="-23" id="circle1542" opacity="1" fill="#e6e6e6" fill-opacity="1"/><path d="M26.293 27.83l-6.124-6.124 8.365-2.242" id="path1544" opacity="1" fill="#4d4d4d" fill-opacity="1"/></g></svg>