<svg xmlns="http://www.w3.org/2000/svg" xmlns:xlink="http://www.w3.org/1999/xlink" width="48" height="48" version="1.1" id="svg38"><defs id="defs22"><linearGradient id="linearGradient4488"><stop id="stop4490" offset="0" stop-color="#000" stop-opacity=".047"/><stop id="stop4492" offset="1" stop-color="#000" stop-opacity="0"/></linearGradient><style id="style4511"/><style id="style4511-26"/><style id="style4511-9"/><style id="style4552"/><style id="style4511-2"/><linearGradient gradientTransform="translate(-63.205 2.216) scale(.3038)" xlink:href="#linearGradient4488" id="linearGradient4160" x1="288.112" y1="141.785" x2="287.575" y2="79.008" gradientUnits="userSpaceOnUse"/></defs><style id="style4485" type="text/css"/><path d="M2.433 26.443v1.668c0 9.575 5.583 17.282 17.146 17.282h6.93c15.133 0 17.837-11.322 17.837-17.282v-1.668c0 5.96-2.704 17.282-17.837 17.282h-6.93c-11.563 0-17.146-7.708-17.146-17.282z" id="path4147" opacity="1" fill="url(#linearGradient4160)" fill-opacity="1" stroke="none" stroke-width="1.1" stroke-linecap="square" stroke-linejoin="bevel" stroke-miterlimit="4" stroke-dasharray="none" stroke-dashoffset="0" stroke-opacity=".078"/><path d="M19.046 2.965h8.495c13.908 0 16.805 11.246 16.805 17.282v7.123c0 5.96-2.704 17.282-17.837 17.282h-6.93c-11.562 0-17.146-7.708-17.146-17.282v-7.123c0-9.575 5.47-17.282 16.613-17.282z" id="rect4144" opacity="1" fill="#4074e6" fill-opacity="1" stroke="#000" stroke-width=".334" stroke-linecap="square" stroke-linejoin="bevel" stroke-miterlimit="4" stroke-dasharray="none" stroke-dashoffset="0" stroke-opacity=".078"/><g id="g4474" transform="translate(-.203 .814)" color="#000" fill="#fff" stroke-linejoin="round" stroke-miterlimit="4" stroke-dasharray="none"><path id="path14200" d="M22.763 37.558c-1.025-.268-1.847-1.041-2.203-2.073-.094-.272-.11-.418-.11-.972 0-.623.007-.675.167-1.125l.169-.472-3.32-3.32-3.319-3.319-.323.133a4.56 4.56 0 0 1-.808.212c-.448.074-.52.074-.946.002-1.19-.203-2.099-.986-2.508-2.16-.112-.32-.128-.44-.126-.947.003-.492.022-.638.13-.966.289-.877 1.032-1.641 1.962-2.018.24-.097.352-.109 1.02-.108.724 0 .76.005 1.118.15.332.134.801.418 1.166.707l.135.106 3.243-3.243 3.243-3.244-.255-.306c-.886-1.065-1.017-2.541-.33-3.706.35-.593 1.061-1.155 1.732-1.37.443-.142 1.188-.174 1.65-.071a3.203 3.203 0 0 1 2.389 2.386c.04.18.085.364.099.41.024.08.255.085 3.977.085h3.952l.032 1.558c.018.858.032 2.658.032 4v2.441l.399.09c1.258.28 2.164 1.131 2.476 2.326.1.38.1 1.213 0 1.59-.21.8-.824 1.571-1.554 1.951-.509.265-.925.36-1.562.356-.572-.004-.649-.021-1.344-.305l-.498-.203-3.245 3.244-3.244 3.245.177.401c.283.64.328.808.356 1.32.032.596-.052 1.033-.295 1.532-.423.866-1.134 1.453-2.045 1.686a3.51 3.51 0 0 1-1.59-.003zm-1.608-5.16c.07-.046.265-.19.435-.32.596-.452 1.117-.654 1.783-.691.76-.042 1.415.151 2.07.611.457.32.527.3 1.207-.332.991-.924 5.403-5.386 5.523-5.587.145-.241.132-.314-.11-.642-.24-.324-.493-.866-.565-1.21-.078-.375-.066-1.177.023-1.524.133-.514.386-.933.84-1.39.338-.341.487-.452.824-.613.225-.108.59-.235.81-.284l.398-.088V12.73l-1.486-.031a225.31 225.31 0 0 0-3.818-.032h-2.33l-.03.133c-.21.952-.43 1.389-.963 1.925-.614.618-1.37.937-2.224.937-.442 0-.86-.102-1.417-.346l-.453-.199-3.253 3.253-3.253 3.253.169.367c.244.533.354 1.005.353 1.523-.001.865-.249 1.486-.87 2.183l-.385.431 2.597 2.603c2.5 2.504 3.81 3.753 3.939 3.752a.5.5 0 0 0 .186-.084z" stroke="none" stroke-width=".029" stroke-opacity="1"/><path id="circle13297-3" d="M21.99 22.652a2.782 2.782 0 0 0-2.782 2.783 2.782 2.782 0 0 0 2.782 2.782 2.782 2.782 0 0 0 2.782-2.782 2.782 2.782 0 0 0-2.782-2.783zm-8.744 8.745a2.782 2.782 0 0 0-2.783 2.782 2.782 2.782 0 0 0 2.783 2.783 2.782 2.782 0 0 0 2.782-2.783 2.782 2.782 0 0 0-2.782-2.782z" fill-opacity=".3" stroke-width=".1" stroke-linecap="round"/></g></svg>