<svg xmlns="http://www.w3.org/2000/svg" xmlns:xlink="http://www.w3.org/1999/xlink" width="48" height="48" version="1.1" id="svg38"><defs id="defs22"><linearGradient id="linearGradient4488"><stop id="stop4490" offset="0" stop-color="#000" stop-opacity=".047"/><stop id="stop4492" offset="1" stop-color="#000" stop-opacity="0"/></linearGradient><style id="style4511"/><style id="style4511-26"/><style id="style4511-9"/><style id="style4552"/><style id="style4511-2"/><linearGradient gradientTransform="translate(-63.205 2.216) scale(.3038)" xlink:href="#linearGradient4488" id="linearGradient4160" x1="288.112" y1="141.785" x2="287.575" y2="79.008" gradientUnits="userSpaceOnUse"/><linearGradient gradientTransform="rotate(-90 -7.852 56.053)" gradientUnits="userSpaceOnUse" x2="47" x1="1" id="linearGradient3764-3"><stop id="stop1151" stop-opacity="1" stop-color="#e0a300"/><stop id="stop1153" stop-opacity="1" stop-color="#f4b400" offset="1"/></linearGradient><clipPath id="clipPath-185362449"/><linearGradient xlink:href="#linearGradient3764-3" id="linearGradient1268" x1="2.266" y1="23.808" x2="44.513" y2="23.808" gradientUnits="userSpaceOnUse"/></defs><style id="style4485" type="text/css"/><path d="M19.046 2.965h8.495c13.908 0 16.805 11.246 16.805 17.282v7.123c0 5.96-2.704 17.282-17.837 17.282h-6.93c-11.562 0-17.146-7.708-17.146-17.282v-7.123c0-9.575 5.47-17.282 16.613-17.282z" id="rect4144" opacity="1" fill="url(#linearGradient1268)" fill-opacity="1" stroke="#000" stroke-width=".334" stroke-linecap="square" stroke-linejoin="bevel" stroke-miterlimit="4" stroke-dasharray="none" stroke-dashoffset="0" stroke-opacity=".078"/><path d="M2.433 26.443v1.668c0 9.575 5.583 17.282 17.146 17.282h6.93c15.133 0 17.837-11.322 17.837-17.282v-1.668c0 5.96-2.704 17.282-17.837 17.282h-6.93c-11.563 0-17.146-7.708-17.146-17.282z" id="path4147" opacity="1" fill="url(#linearGradient4160)" fill-opacity="1" stroke="none" stroke-width="1.1" stroke-linecap="square" stroke-linejoin="bevel" stroke-miterlimit="4" stroke-dasharray="none" stroke-dashoffset="0" stroke-opacity=".078"/><path id="path1194" d="M23.406 10.996C20.3 11 17.26 12.38 15.39 14.936c-2.91 3.99-1.855 9.396 2.299 12.214v8.403h1.423v1.068h8.575v-1.068h1.408V27.15a9.308 9.27 0 0 0 2.299-2.198c2.97-4.086 1.813-9.65-2.605-12.419a10.118 10.077 0 0 0-5.391-1.538m-.013 1.626a8.32 8.32 0 0 1 4.417 1.26c3.622 2.268 4.573 6.797 2.127 10.154a7.716 7.684 0 0 1-2.12 1.973l-.142 2.072h-8.575l-.126-2.072c-3.63-2.269-4.577-6.797-2.122-10.155 1.529-2.097 4.011-3.234 6.54-3.224m-4.287 16.523h8.575v2.13h-8.575m0 1.068h8.575v1.831h-8.575m0-1.83" fill="#f9f9f9" fill-opacity="1" fill-rule="nonzero" stroke="none" stroke-width="1.07"/></svg>