<svg xmlns="http://www.w3.org/2000/svg" xmlns:xlink="http://www.w3.org/1999/xlink" width="48" height="48" version="1.1" id="svg38"><defs id="defs22"><linearGradient id="linearGradient1155"><stop offset="0" id="stop1151" stop-color="#04e7ff" stop-opacity="1"/><stop offset="1" id="stop1153" stop-color="#0aa5f3" stop-opacity=".988"/></linearGradient><linearGradient id="linearGradient4488"><stop id="stop4490" offset="0" stop-color="#000" stop-opacity=".047"/><stop id="stop4492" offset="1" stop-color="#000" stop-opacity="0"/></linearGradient><style id="style4511"/><style id="style4511-26"/><style id="style4511-9"/><style id="style4552"/><style id="style4511-2"/><linearGradient xlink:href="#linearGradient4488" id="linearGradient4548" gradientUnits="userSpaceOnUse" gradientTransform="translate(-62.55 1.994) scale(.3038)" x1="288.112" y1="141.785" x2="287.575" y2="79.008"/><linearGradient xlink:href="#linearGradient1155" id="linearGradient1157" x1="6.074" y1="8.942" x2="40.693" y2="39.45" gradientUnits="userSpaceOnUse"/></defs><style id="style4485" type="text/css"/><path id="path4532" d="M3.088 26.22v1.67c0 9.573 5.583 17.281 17.146 17.281h6.93c15.133 0 17.837-11.322 17.837-17.282v-1.668c0 5.96-2.704 17.282-17.837 17.282h-6.93c-11.563 0-17.146-7.708-17.146-17.282z" opacity="1" fill="url(#linearGradient4548)" fill-opacity="1" stroke="none" stroke-width="1.1" stroke-linecap="square" stroke-linejoin="bevel" stroke-miterlimit="4" stroke-dasharray="none" stroke-dashoffset="0" stroke-opacity=".078"/><path id="path4534" d="M19.701 2.742h8.495c13.908 0 16.805 11.247 16.805 17.282v7.124c0 5.96-2.704 17.282-17.837 17.282h-6.93c-11.562 0-17.146-7.708-17.146-17.282v-7.124c0-9.574 5.47-17.282 16.613-17.282z" opacity="1" fill="url(#linearGradient1157)" fill-opacity="1" stroke="#000" stroke-width=".334" stroke-linecap="square" stroke-linejoin="bevel" stroke-miterlimit="4" stroke-dasharray="none" stroke-dashoffset="0" stroke-opacity=".078"/><path id="path1161" d="M14.238 31.543l3.062 2.33c.86.656 2.09.49 2.746-.374l7.203-9.46a5.613 5.613 0 0 0 2.444.201 5.664 5.664 0 0 0 3.768-2.195 5.703 5.703 0 0 0-.799-7.753 5.692 5.692 0 0 0-3.727-1.393 5.664 5.664 0 0 0-4.538 2.248 5.651 5.651 0 0 0-1.112 4.214 5.71 5.71 0 0 0 .842 2.304l-2.736 3.592-1.541-1.174a1.955 1.955 0 0 0-2.746.371 1.96 1.96 0 0 0 .37 2.747l1.542 1.174-.906 1.192-1.503-1.142a1.955 1.955 0 0 0-2.746.371c-.65.862-.484 2.09.377 2.747zM28.69 16.837a1.782 1.782 0 0 1 2 1.52l.002.024a1.779 1.779 0 0 1-1.769 1.992c-.88 0-1.636-.662-1.755-1.537a1.773 1.773 0 0 1 1.5-1.997c.01 0 .016 0 .022-.002z" fill="#fffffb" fill-opacity="1" stroke="none" stroke-width="2" stroke-miterlimit="4" stroke-dasharray="none" stroke-opacity=".981"/></svg>