<svg xmlns="http://www.w3.org/2000/svg" xmlns:xlink="http://www.w3.org/1999/xlink" width="48" height="48" version="1.1" id="svg38"><defs id="defs22"><linearGradient id="linearGradient4488"><stop id="stop4490" offset="0" stop-color="#000" stop-opacity=".047"/><stop id="stop4492" offset="1" stop-color="#000" stop-opacity="0"/></linearGradient><style id="style4511"/><style id="style4511-26"/><style id="style4511-9"/><style id="style4552"/><style id="style4511-2"/><linearGradient xlink:href="#linearGradient4488" id="linearGradient4544" gradientUnits="userSpaceOnUse" gradientTransform="translate(-62.887 1.994) scale(.3038)" x1="288.112" y1="141.785" x2="287.575" y2="79.008"/><filter height="1.128" y="-.064" width="1.077" x="-.038" id="filter1493" color-interpolation-filters="sRGB"><feGaussianBlur id="feGaussianBlur1495" stdDeviation=".712"/></filter></defs><style id="style4485" type="text/css"/><g id="g1245" transform="matrix(1.02076 0 0 1.01172 -.055 .095)"><path d="M2.752 26.22v1.67c0 9.573 5.583 17.281 17.146 17.281h6.93c15.133 0 17.837-11.322 17.837-17.282v-1.668c0 5.96-2.704 17.282-17.837 17.282h-6.93c-11.563 0-17.146-7.708-17.146-17.282z" id="path4524" opacity="1" fill="url(#linearGradient4544)" fill-opacity="1" stroke="none" stroke-width="1.1" stroke-linecap="square" stroke-linejoin="bevel" stroke-miterlimit="4" stroke-dasharray="none" stroke-dashoffset="0" stroke-opacity=".078"/><path d="M19.365 2.742h8.495c13.908 0 16.805 11.247 16.805 17.282v7.124c0 5.96-2.705 17.282-17.837 17.282h-6.93c-11.563 0-17.146-7.708-17.146-17.282v-7.124c0-9.574 5.47-17.282 16.613-17.282z" id="path4526" opacity="1" fill="#4d4d4d" fill-opacity=".961" stroke="#000" stroke-width=".334" stroke-linecap="square" stroke-linejoin="bevel" stroke-miterlimit="4" stroke-dasharray="none" stroke-dashoffset="0" stroke-opacity=".078"/><path id="path1500" d="M34.837 3.915c-.33-.147-.623-.347-1-.39-.498-.161-1.113-.278-1.691-.403a17.076 17.076 0 0 0-3.997-.383l-3.01-.016-3.008-.047-2.489.002-1.491.064-2.066.142c-1.087.074-2.021.465-2.683.717-.053.17-.088.347-.088.536v11.039c0 1.02.801 1.84 1.797 1.84h17.957c.995 0 1.797-.82 1.797-1.84V4.137c0-.07.003-.072-.005-.14zM26.4 5.978h4.809c.533 0 .963.41.963.919v6.441c0 .51-.43.919-.963.919h-4.81c-.533 0-.963-.41-.963-.919V6.897c0-.51.43-.919.964-.919z" fill="#b7b7b7" stroke-width=".682"/><g transform="translate(.94)" id="g1236"><path id="path1479" d="M13.23 260.223c-1.543 0-2.784 1.325-2.784 2.97v17.07h44.533v-17.07c0-1.645-1.243-2.97-2.784-2.97zm-1.971 25.849zm42.907 0z" transform="matrix(.6049 0 0 .61969 2.98 -139.67)" opacity=".3" fill="#000" fill-opacity="1" stroke-width="1.113" filter="url(#filter1493)"/><path d="M10.983 20.602c-.933 0-1.684.821-1.684 1.84v10.579h26.939V22.443c0-1.02-.752-1.84-1.684-1.84zM9.791 36.62zm25.955 0z" id="path10" fill="#fff" stroke-width=".682"/><path d="M36.238 33.02v2.3c0 1.019-.752 1.84-1.684 1.84H10.983c-.933 0-1.684-.821-1.684-1.84v-2.3z" id="path14" fill="#ff2a2a" fill-opacity="1" stroke-width=".682"/></g></g></svg>