<svg xmlns="http://www.w3.org/2000/svg" xmlns:xlink="http://www.w3.org/1999/xlink" width="48" height="48" version="1.1" id="svg38"><defs id="defs22"><linearGradient id="linearGradient4488"><stop id="stop4490" offset="0" stop-color="#000" stop-opacity=".047"/><stop id="stop4492" offset="1" stop-color="#000" stop-opacity="0"/></linearGradient><style id="style4511"/><style id="style4511-26"/><style id="style4511-9"/><style id="style4552"/><style id="style4511-2"/><linearGradient gradientTransform="translate(-63.205 2.216) scale(.3038)" xlink:href="#linearGradient4488" id="linearGradient4160" x1="288.112" y1="141.785" x2="287.575" y2="79.008" gradientUnits="userSpaceOnUse"/></defs><style id="style4485" type="text/css"/><path d="M2.433 26.443v1.668c0 9.575 5.583 17.282 17.146 17.282h6.93c15.133 0 17.837-11.322 17.837-17.282v-1.668c0 5.96-2.704 17.282-17.837 17.282h-6.93c-11.563 0-17.146-7.708-17.146-17.282z" id="path4147" opacity="1" fill="url(#linearGradient4160)" fill-opacity="1" stroke="none" stroke-width="1.1" stroke-linecap="square" stroke-linejoin="bevel" stroke-miterlimit="4" stroke-dasharray="none" stroke-dashoffset="0" stroke-opacity=".078"/><path d="M19.046 2.965h8.495c13.908 0 16.805 11.246 16.805 17.282v7.123c0 5.96-2.704 17.282-17.837 17.282h-6.93c-11.562 0-17.146-7.708-17.146-17.282v-7.123c0-9.575 5.47-17.282 16.613-17.282z" id="rect4144" opacity="1" fill="#e3e7ea" fill-opacity="1" stroke="#000" stroke-width=".334" stroke-linecap="square" stroke-linejoin="bevel" stroke-miterlimit="4" stroke-dasharray="none" stroke-dashoffset="0" stroke-opacity=".078"/><path style="line-height:125%;-inkscape-font-specification:'Dancing Script'" d="M24.654 10.712c-.391 0-.886.288-1.484.865-.948.887-2.247 2.392-3.896 4.516a113.687 113.687 0 0 0-4.825 6.742c-.948-.144-1.69-.217-2.226-.217-1.753 0-2.825.537-3.217 1.61h1.082c.97 0 2.082.05 3.34.154-3.134 4.907-4.701 8.133-4.701 9.68 0 .68.351 1.217 1.052 1.609a124.877 124.877 0 0 1 5.381-11.135c1.732.206 3.259.413 4.578.62-.35 1.752-.527 3.287-.527 4.607 0 2.763.804 4.144 2.412 4.144 1.01 0 1.991-.516 2.94-1.547.247-.263.483-.549.709-.855-.008.12-.03.244-.03.361 0 .825.216 1.454.649 1.887.412.453.958.68 1.638.68.722 0 1.445-.288 2.166-.866.743-.577 1.578-1.485 2.506-2.722-.062.35-.093.65-.093.898 0 .598.185 1.101.556 1.514.392.433.948.65 1.67.65 1.114 0 2.248-.526 3.402-1.578 1.176-1.052 2.084-2.401 2.723-4.05l-.31-.31c-.887 1.547-1.783 2.752-2.69 3.618-.907.845-1.66 1.27-2.258 1.27-.35 0-.619-.135-.804-.403a1.9 1.9 0 0 1-.248-.959c0-.557.298-1.371.896-2.443.598-1.072.899-1.69.899-1.856 0-.37-.414-.629-1.239-.773l-1.113 1.607c-.268.392-.69.96-1.268 1.701-.556.722-1.04 1.3-1.453 1.733a9.294 9.294 0 0 1-1.361 1.176c-.495.35-.928.525-1.299.525-.557 0-.836-.403-.836-1.207 0-1.01.32-2.196.96-3.557a13.322 13.322 0 0 1 2.505-3.617c1.03-1.051 1.999-1.578 2.906-1.578 1.01 0 1.516.578 1.516 1.732 0 .35-.051.711-.154 1.082 1.01 0 1.515-.443 1.515-1.33 0-.68-.268-1.237-.804-1.67-.537-.433-1.206-.65-2.01-.65-1.279 0-2.598.537-3.96 1.61a13.503 13.503 0 0 0-3.34 3.833 10.962 10.962 0 0 0-.935 2.088c-1.11 1.76-2.1 2.645-2.96 2.645-.763 0-1.145-.825-1.145-2.475 0-2.536.629-6.092 1.887-10.67 1.278-4.598 2.259-7.165 2.94-7.7-.66-.66-1.209-.99-1.642-.99zm-.988 1.947c-1.608 3.547-2.847 7.35-3.713 11.412-.185-.062-.761-.205-1.73-.431l-2.258-.526c3.258-5.814 5.825-9.3 7.701-10.455z" id="path5701-2" font-style="normal" font-variant="normal" font-weight="400" font-stretch="normal" font-size="28.53" font-family="Dancing Script" letter-spacing="0" word-spacing="0" fill="#597794" fill-opacity="1" stroke="none" stroke-width="1" stroke-linecap="butt" stroke-linejoin="miter" stroke-opacity="1"/></svg>