<svg xmlns="http://www.w3.org/2000/svg" xmlns:xlink="http://www.w3.org/1999/xlink" width="48" height="48" version="1.1" id="svg38"><defs id="defs22"><linearGradient id="linearGradient4470"><stop offset="0" id="stop4472" stop-color="#328bf0" stop-opacity="1"/><stop offset="1" id="stop4474" stop-color="#23abc0" stop-opacity="1"/></linearGradient><linearGradient id="linearGradient4488"><stop id="stop4490" offset="0" stop-color="#000" stop-opacity=".047"/><stop id="stop4492" offset="1" stop-color="#000" stop-opacity="0"/></linearGradient><style id="style4511"/><style id="style4511-26"/><style id="style4511-9"/><style id="style4552"/><style id="style4511-2"/><linearGradient xlink:href="#linearGradient4488" id="linearGradient4483" gradientUnits="userSpaceOnUse" gradientTransform="translate(-62.91 2.216) scale(.3038)" x1="288.112" y1="141.785" x2="287.575" y2="79.008"/><linearGradient xlink:href="#linearGradient4470" id="linearGradient4476" x1="2.561" y1="23.808" x2="44.808" y2="23.808" gradientUnits="userSpaceOnUse"/></defs><style id="style4485" type="text/css"/><path d="M2.729 26.443v1.668c0 9.575 5.583 17.282 17.145 17.282h6.93c15.133 0 17.837-11.322 17.837-17.282v-1.668c0 5.96-2.704 17.282-17.836 17.282h-6.93c-11.563 0-17.146-7.708-17.146-17.282z" id="path4479" opacity="1" fill="url(#linearGradient4483)" fill-opacity="1" stroke="none" stroke-width="1.1" stroke-linecap="square" stroke-linejoin="bevel" stroke-miterlimit="4" stroke-dasharray="none" stroke-dashoffset="0" stroke-opacity=".078"/><path d="M19.342 2.965h8.495c13.907 0 16.804 11.246 16.804 17.282v7.123c0 5.96-2.704 17.282-17.836 17.282h-6.93c-11.563 0-17.146-7.708-17.146-17.282v-7.123c0-9.575 5.47-17.282 16.613-17.282z" id="path4481" opacity="1" fill="url(#linearGradient4476)" fill-opacity="1" stroke="#000" stroke-width=".334" stroke-linecap="square" stroke-linejoin="bevel" stroke-miterlimit="4" stroke-dasharray="none" stroke-dashoffset="0" stroke-opacity=".078"/><path d="M20.739 13.322v8.293H17.4l3.096 3.099c1.703 1.703 3.116 3.096 3.138 3.096.023 0 1.435-1.393 3.138-3.096l3.097-3.099h-3.338v-8.293h-2.897zm-5.752 13.201l4.103 4.104 4.102 4.103H13.82v.802h19.63v-.802h-9.37l4.101-4.103 4.104-4.104h-1.288l-3.68 3.68-3.68 3.681-3.681-3.68-3.68-3.68h-.645z" id="path13211" fill="#fff" fill-opacity="1" stroke="none" stroke-width=".241" stroke-miterlimit="4" stroke-dasharray="none" stroke-opacity="1"/></svg>