<svg xmlns="http://www.w3.org/2000/svg" xmlns:xlink="http://www.w3.org/1999/xlink" width="48" height="48" version="1.1" id="svg38"><defs id="defs22"><linearGradient id="linearGradient4488"><stop id="stop4490" offset="0" stop-color="#000" stop-opacity=".047"/><stop id="stop4492" offset="1" stop-color="#000" stop-opacity="0"/></linearGradient><style id="style4511"/><style id="style4511-26"/><style id="style4511-9"/><style id="style4552"/><style id="style4511-2"/><linearGradient xlink:href="#linearGradient4488" id="linearGradient4548" gradientUnits="userSpaceOnUse" gradientTransform="translate(-62.55 1.994) scale(.3038)" x1="288.112" y1="141.785" x2="287.575" y2="79.008"/></defs><style id="style4485" type="text/css"/><path id="path4532" d="M3.088 26.22v1.67c0 9.573 5.583 17.281 17.146 17.281h6.93c15.133 0 17.837-11.322 17.837-17.282v-1.668c0 5.96-2.704 17.282-17.837 17.282h-6.93c-11.563 0-17.146-7.708-17.146-17.282z" opacity="1" fill="url(#linearGradient4548)" fill-opacity="1" stroke="none" stroke-width="1.1" stroke-linecap="square" stroke-linejoin="bevel" stroke-miterlimit="4" stroke-dasharray="none" stroke-dashoffset="0" stroke-opacity=".078"/><path id="path4534" d="M19.701 2.742h8.495c13.908 0 16.805 11.247 16.805 17.282v7.124c0 5.96-2.704 17.282-17.837 17.282h-6.93c-11.562 0-17.146-7.708-17.146-17.282v-7.124c0-9.574 5.47-17.282 16.613-17.282z" opacity="1" fill="#4e647a" fill-opacity=".961" stroke="#000" stroke-width=".334" stroke-linecap="square" stroke-linejoin="bevel" stroke-miterlimit="4" stroke-dasharray="none" stroke-dashoffset="0" stroke-opacity=".078"/><path d="M24.383 13.054c-8.283-.002-8.73.003-8.988.088-.421.139-.703.371-.882.728l-.153.307v.895c0 .493-.014 1.133-.032 1.421l-.031.524h-2.104v1.035h3.186l.032-1.043c.018-.573.034-1.456.034-1.962v-.92l8.697-.036 8.699-.036.167.162.165.16v6.184c0 3.913-.02 6.246-.05 6.355-.046.165-.572.83-1.345 1.7-.356.399-1.57 1.754-1.803 2.011l-.126.14.369.336c.202.185.385.325.406.312.063-.04 1.84-2.019 2.453-2.732.661-.77.94-1.16 1.081-1.52.099-.252.1-.322.088-6.542l-.014-6.287-.138-.293c-.189-.404-.42-.67-.73-.84l-.265-.145zm-10.268 7.559l-.011 1.144-.014 1.147-.924.011-.923.014v1.081h2.856v-3.398h-.492zm-.1 5.811v2.659h-1.822v1.082h2.858v-3.741h-.518zm-.097 6.076v.263c0 .41.138.985.34 1.417.429.912 1.208 1.597 2.212 1.94l.378.13 5.86.023 8.556.038 2.697.012v-1.085l-7.793-.004c-4.287-.002-8.15-.018-8.588-.038-.792-.034-.797-.036-1.178-.224-.819-.405-1.45-1.344-1.45-2.156 0-.214.002-.214-.628-.276l-.406-.04z" id="path31847" fill="#fff" stroke="none" stroke-width=".019" stroke-miterlimit="4" stroke-dasharray="none" stroke-opacity="1"/><path id="path32-2" d="M30.621 19.282l-5.98.003-3.32 5.75-1.163-2.015-1.464.073v.747h1.067l1.595 2.761.397-.818 3.322-5.753 5.547.003zm-3.738 2.243c-1.242 0-2.243 1-2.243 2.243a2.238 2.238 0 0 0 3.738 1.663v.58h.748v-4.486h-.748v.58a2.228 2.228 0 0 0-1.495-.58m0 .748c.829 0 1.495.667 1.495 1.495 0 .828-.666 1.495-1.495 1.495a1.492 1.492 0 0 1-1.495-1.495c0-.828.667-1.495 1.495-1.495m-8.183 4.55a4.46 4.46 0 0 0-.007.374c0 .207.003.374.007.374l11.914-.072c.004 0 .007-.167.007-.374a4.46 4.46 0 0 0-.007-.374zm4.445 1.43v.748h2.99v-.747z" color="#000" opacity="1" fill="#fff" fill-opacity="1" stroke="none"/></svg>