<svg xmlns="http://www.w3.org/2000/svg" xmlns:xlink="http://www.w3.org/1999/xlink" width="48" height="48" version="1.1" id="svg38"><defs id="defs22"><linearGradient id="linearGradient4824"><stop offset="0" id="stop4820" stop-color="#313a45" stop-opacity="1"/><stop offset="1" id="stop4822" stop-color="#5a6169" stop-opacity="1"/></linearGradient><linearGradient id="linearGradient4488"><stop id="stop4490" offset="0" stop-color="#000" stop-opacity=".047"/><stop id="stop4492" offset="1" stop-color="#000" stop-opacity="0"/></linearGradient><style id="style4511"/><style id="style4511-26"/><style id="style4511-9"/><style id="style4552"/><style id="style4511-2"/><linearGradient xlink:href="#linearGradient4488" id="linearGradient4546" gradientUnits="userSpaceOnUse" gradientTransform="translate(-62.497 1.994) scale(.3038)" x1="288.112" y1="141.785" x2="287.575" y2="79.008"/><linearGradient xlink:href="#linearGradient4824" id="linearGradient4826" x1="46.03" y1="54.084" x2="16.746" y2="5.688" gradientUnits="userSpaceOnUse"/></defs><style id="style4485" type="text/css"/><path d="M3.141 26.22v1.67c0 9.573 5.583 17.281 17.146 17.281h6.93c15.133 0 17.837-11.322 17.837-17.282v-1.668c0 5.96-2.704 17.282-17.837 17.282h-6.93c-11.563 0-17.146-7.708-17.146-17.282z" id="path4528" opacity="1" fill="url(#linearGradient4546)" fill-opacity="1" stroke="none" stroke-width="1.1" stroke-linecap="square" stroke-linejoin="bevel" stroke-miterlimit="4" stroke-dasharray="none" stroke-dashoffset="0" stroke-opacity=".078"/><path d="M19.754 2.742h8.495c13.908 0 16.805 11.247 16.805 17.282v7.124c0 5.96-2.704 17.282-17.837 17.282h-6.93c-11.562 0-17.146-7.708-17.146-17.282v-7.124c0-9.574 5.47-17.282 16.613-17.282z" id="path4530" opacity="1" fill="url(#linearGradient4826)" fill-opacity="1" stroke="#000" stroke-width=".334" stroke-linecap="square" stroke-linejoin="bevel" stroke-miterlimit="4" stroke-dasharray="none" stroke-dashoffset="0" stroke-opacity=".078"/><g transform="translate(.558 -1.91)" id="g1558" stroke="none" stroke-width="1.8" stroke-linecap="round" stroke-linejoin="miter" stroke-miterlimit="4" stroke-dasharray="none" stroke-dashoffset="0" stroke-opacity="1"><path id="path5889" d="M12.101 5.78a14.34 14.34 0 0 0-3.988 2.43l1.045 1.075-5.217 5.706h6.213l5.389-5.71c-.958-.959-2.18-2.21-3.442-3.501z" opacity="1" fill="#040505" fill-opacity="1"/><path id="path5893" d="M17.072 4.592c-1.895.184-3.605.606-5.125 1.242l3.35 3.451-5.215 5.705h6.213l5.387-5.709a654.746 654.746 0 0 1-4.61-4.69z" opacity="1" fill="#fff" fill-opacity="1"/><path id="path5895" d="M19.234 4.485c-.82 0-1.6.053-2.357.134l4.53 4.666-5.214 5.706h6.213l5.387-5.71c-1.313-1.313-3-3.042-4.713-4.796z" opacity="1" fill="#040505" fill-opacity="1"/><path id="path5897" d="M22.887 4.484l4.662 4.801-5.215 5.705h6.213l5.387-5.709a634.242 634.242 0 0 1-4.66-4.742 23.988 23.988 0 0 0-1.545-.055z" opacity="1" fill="#fff" fill-opacity="1"/><path id="path5899" d="M29.078 4.522l4.625 4.763-5.215 5.706h6.213l5.38-5.704c-.051-.056-.102-.114-.155-.17-.093-.092-.228-.232-.325-.33-2.344-2.31-5.719-4-10.523-4.265z" opacity="1" fill="#040505" fill-opacity="1"/><path id="path5901" d="M38.162 7.553l1.681 1.732-5.216 5.706h6.213l1.779-1.885c-.98-2.062-2.404-4.024-4.457-5.553z" opacity="1" fill="#fff" fill-opacity="1"/><path id="path5903" d="M42.549 12.963l-1.854 2.028H43.4a18.183 18.183 0 0 0-.851-2.028z" opacity="1" fill="#040505" fill-opacity="1"/><path id="path5905" d="M8.355 8.012c-2.19 1.804-3.76 4.196-4.691 6.979h.553l5.386-5.71c-.347-.347-.84-.856-1.248-1.269z" opacity="1" fill="#fff" fill-opacity="1"/><path id="rect5972" d="M3.68 14.95c-.074.217-.132.445-.198.667h40.114c-.069-.223-.134-.444-.211-.668z" opacity="1" fill="#000" fill-opacity=".188"/></g></svg>