<svg xmlns="http://www.w3.org/2000/svg" xmlns:xlink="http://www.w3.org/1999/xlink" width="48" height="48" version="1.1" id="svg38"><defs id="defs22"><linearGradient id="linearGradient4488"><stop id="stop4490" offset="0" stop-color="#000" stop-opacity=".047"/><stop id="stop4492" offset="1" stop-color="#000" stop-opacity="0"/></linearGradient><style id="style4511"/><style id="style4511-26"/><style id="style4511-9"/><style id="style4552"/><style id="style4511-2"/><linearGradient xlink:href="#linearGradient4488" id="linearGradient4471" gradientUnits="userSpaceOnUse" gradientTransform="translate(-62.47 2.216) scale(.3038)" x1="288.112" y1="141.785" x2="287.575" y2="79.008"/></defs><style id="style4485" type="text/css"/><path d="M3.168 26.443v1.668c0 9.575 5.583 17.282 17.146 17.282h6.93c15.132 0 17.836-11.322 17.836-17.282v-1.668c0 5.96-2.704 17.282-17.836 17.282h-6.93c-11.563 0-17.146-7.708-17.146-17.282z" id="path4467" opacity="1" fill="url(#linearGradient4471)" fill-opacity="1" stroke="none" stroke-width="1.1" stroke-linecap="square" stroke-linejoin="bevel" stroke-miterlimit="4" stroke-dasharray="none" stroke-dashoffset="0" stroke-opacity=".078"/><path d="M19.781 2.965h8.495c13.908 0 16.805 11.246 16.805 17.282v7.123c0 5.96-2.705 17.282-17.837 17.282h-6.93c-11.563 0-17.146-7.708-17.146-17.282v-7.123c0-9.575 5.47-17.282 16.613-17.282z" id="path4469" opacity="1" fill="#ff5439" fill-opacity="1" stroke="#000" stroke-width=".334" stroke-linecap="square" stroke-linejoin="bevel" stroke-miterlimit="4" stroke-dasharray="none" stroke-dashoffset="0" stroke-opacity=".078"/><path id="path11008-7" d="M13.22 15.083v1.09h21.813v-1.09zm-.004 3.272v10.906h1.09c3.272 0 4.363-2.179 4.363-5.435 0-3.283-1.09-5.475-4.363-5.475zm7.634 0v.002h-.002l.002.007V29.26h1.09v-8.168l3.266 8.17h1.09v-.002h.003V18.355h-1.09v8.184l-3.223-8.065-.045-.119zm14.176 0c-3.272 0-6.54 1.09-6.54 5.42 0 4.395 2.178 5.485 5.45 5.485h1.09v-5.453H32.85v1.09h1.086v3.273c-3.271 0-4.358-1.091-4.358-4.33 0-3.304 2.177-4.394 5.45-4.394zm-20.72 1.09c3.272 0 3.272 3.273 3.272 4.363 0 1.09 0 4.363-3.272 4.363zM13.22 31.444v1.09h21.813v-1.09z" fill="#fff" stroke-linejoin="bevel"/></svg>