<svg xmlns:osb="http://www.openswatchbook.org/uri/2009/osb" xmlns="http://www.w3.org/2000/svg" xmlns:xlink="http://www.w3.org/1999/xlink" width="48" height="48" version="1.1" id="svg38"><defs id="defs22"><linearGradient id="linearGradient4488"><stop id="stop4490" offset="0" stop-color="#000" stop-opacity=".047"/><stop id="stop4492" offset="1" stop-color="#000" stop-opacity="0"/></linearGradient><style id="style4511"/><style id="style4511-26"/><style id="style4511-9"/><style id="style4552"/><style id="style4511-2"/><linearGradient xlink:href="#linearGradient4488" id="linearGradient4540" gradientUnits="userSpaceOnUse" gradientTransform="matrix(.30902 0 0 .3038 -64.017 1.994)" x1="288.112" y1="141.785" x2="287.575" y2="79.008"/><linearGradient osb:paint="solid" id="linearGradient5293"><stop id="stop5295" offset="0" stop-color="#9a89c0" stop-opacity="1"/></linearGradient><linearGradient id="linearGradient4245"><stop offset="0" id="stop4241" stop-color="#520053" stop-opacity="1"/><stop offset="1" id="stop4243" stop-color="#9c039e" stop-opacity="1"/></linearGradient><path d="M410.57 528.8l-1.996-10h12z" id="e-0" stroke-linejoin="bevel" fill="#feb70d"/><radialGradient xlink:href="#linearGradient4245" id="radialGradient1525" cx="24.066" cy="23.993" fx="24.066" fy="23.993" r="21.485" gradientTransform="matrix(1 0 0 .99692 0 .074)" gradientUnits="userSpaceOnUse"/></defs><style id="style4485" type="text/css"/><path id="path4516" d="M2.75 26.22v1.67c0 9.573 5.68 17.281 17.44 17.281h7.05c15.392 0 18.143-11.322 18.143-17.282v-1.668c0 5.96-2.75 17.282-18.143 17.282h-7.05c-11.76 0-17.44-7.708-17.44-17.282z" opacity="1" fill="url(#linearGradient4540)" fill-opacity="1" stroke="none" stroke-width="1.109" stroke-linecap="square" stroke-linejoin="bevel" stroke-miterlimit="4" stroke-dasharray="none" stroke-dashoffset="0" stroke-opacity=".078"/><path id="path4518" d="M19.649 2.744h8.64c14.146 0 17.092 11.465 17.092 17.618v7.262c0 6.075-2.75 17.618-18.141 17.618h-7.05c-11.76 0-17.439-7.858-17.439-17.618v-7.262c0-9.76 5.564-17.618 16.898-17.618z" opacity="1" fill="url(#radialGradient1525)" fill-opacity="1" stroke="#000" stroke-width=".34" stroke-linecap="square" stroke-linejoin="bevel" stroke-miterlimit="4" stroke-dasharray="none" stroke-dashoffset="0" stroke-opacity=".078"/><g id="g1523" transform="matrix(1.11815 0 0 1.151 -1.183 -3.942)"><g transform="translate(-365.99 -504.53)" id="g1424"><g transform="translate(-34 9.999)" id="g1420"><path d="M410.57 528.8l4.14-5.64 5.86-4.36 2 10z" id="path1416" fill="#6af804" fill-rule="evenodd"/><use height="100%" width="100%" y="0" x="0" xlink:href="#e-0" id="use1418"/></g><path d="M376.58 538.8l-2-10h12l1.994 10z" id="path1422" fill="#fff" fill-opacity=".353" stroke-linejoin="bevel"/></g><g transform="translate(-392.99 -499.531)" id="g1430"><path d="M410.57 528.8l3.751-6.06 6.249-3.936 2 10z" id="path1426" fill="#6af804" fill-rule="evenodd"/><use height="100%" width="100%" y="0" x="0" xlink:href="#e-0" id="use1428"/></g><path id="path1434" d="M24.58 24.27l4.626-5.577 5.373-4.423 2 10z" fill="#6af804" fill-rule="evenodd"/><use transform="translate(-385.99 -504.53)" height="100%" width="100%" y="0" x="0" xlink:href="#e-0" id="use1438"/><path d="M24.58 24.27l-1.997-10h12l1.994 10z" id="path1440" fill-opacity=".353" stroke-linejoin="bevel"/></g></svg>