<svg xmlns:osb="http://www.openswatchbook.org/uri/2009/osb" xmlns="http://www.w3.org/2000/svg" xmlns:xlink="http://www.w3.org/1999/xlink" width="48" height="48" version="1.1" id="svg38"><defs id="defs22"><linearGradient id="linearGradient4488"><stop id="stop4490" offset="0" stop-color="#000" stop-opacity=".047"/><stop id="stop4492" offset="1" stop-color="#000" stop-opacity="0"/></linearGradient><style id="style4511"/><style id="style4511-26"/><style id="style4511-9"/><style id="style4552"/><style id="style4511-2"/><linearGradient xlink:href="#linearGradient4488" id="linearGradient4540" gradientUnits="userSpaceOnUse" gradientTransform="matrix(.30902 0 0 .3038 -64.017 1.994)" x1="288.112" y1="141.785" x2="287.575" y2="79.008"/><linearGradient osb:paint="solid" id="linearGradient5293"><stop id="stop5295" offset="0" stop-color="#9a89c0" stop-opacity="1"/></linearGradient><linearGradient xlink:href="#linearGradient4245" id="linearGradient1535" x1="2.583" y1="23.586" x2="44.83" y2="23.586" gradientUnits="userSpaceOnUse" gradientTransform="matrix(1.01711 0 0 1.01944 -.045 -.052)"/><linearGradient id="linearGradient4245"><stop offset="0" id="stop4241" stop-color="#520053" stop-opacity="1"/><stop offset="1" id="stop4243" stop-color="#9c039e" stop-opacity="1"/></linearGradient><linearGradient gradientTransform="translate(-71.5 -28.75)" x2="0" gradientUnits="userSpaceOnUse" y2="521.8" y1="541.8" id="e-63"><stop id="stop17-20" stop-color="#ad7200"/><stop id="stop19-615" stop-color="#ad7200" offset=".252"/><stop id="stop21-5" stop-color="#b38d42" offset=".35"/><stop id="stop23-4" stop-color="#a3cc6c" offset=".45"/><stop id="stop25-7" stop-color="#00d1fa" offset=".55"/><stop id="stop27-6" stop-color="#1999ff" offset=".754"/><stop id="stop29-5" stop-color="#1799ff" offset="1"/></linearGradient></defs><style id="style4485" type="text/css"/><path id="path4516" d="M2.75 26.22v1.67c0 9.573 5.68 17.281 17.44 17.281h7.05c15.392 0 18.143-11.322 18.143-17.282v-1.668c0 5.96-2.75 17.282-18.143 17.282h-7.05c-11.76 0-17.44-7.708-17.44-17.282z" opacity="1" fill="url(#linearGradient4540)" fill-opacity="1" stroke="none" stroke-width="1.109" stroke-linecap="square" stroke-linejoin="bevel" stroke-miterlimit="4" stroke-dasharray="none" stroke-dashoffset="0" stroke-opacity=".078"/><path id="path4518" d="M19.649 2.744h8.64c14.146 0 17.092 11.465 17.092 17.618v7.262c0 6.075-2.75 17.618-18.141 17.618h-7.05c-11.76 0-17.439-7.858-17.439-17.618v-7.262c0-9.76 5.564-17.618 16.898-17.618z" opacity="1" fill="url(#linearGradient1535)" fill-opacity="1" stroke="#000" stroke-width=".34" stroke-linecap="square" stroke-linejoin="bevel" stroke-miterlimit="4" stroke-dasharray="none" stroke-dashoffset="0" stroke-opacity=".078"/><g transform="matrix(1.25904 0 0 1.34526 -400.332 -652.74)" id="g46" stroke-width="6.354" stroke-linejoin="bevel"><path d="M324.08 493.05v19.996l8-3.996v-12c-2.334-1.333-5.667-2.668-8-4m26 0l-8 4v12h.008l7.992 4zm-17 4v12h8v-12z" id="path42" fill="url(#e-63)" stroke-width="6.354"/><circle cx="347.08" cy="498.05" r="1" id="circle44" fill="#ffbd36" fill-rule="evenodd" stroke-width="1.271"/></g></svg>