<svg xmlns:osb="http://www.openswatchbook.org/uri/2009/osb" xmlns="http://www.w3.org/2000/svg" xmlns:xlink="http://www.w3.org/1999/xlink" width="48" height="48" version="1.1" id="svg38"><defs id="defs22"><linearGradient id="linearGradient4266"><stop offset="0" id="stop1684" stop-color="#e22828" stop-opacity="1"/><stop offset="1" id="stop1686" stop-color="#e05e4c" stop-opacity="1"/></linearGradient><linearGradient id="linearGradient4488"><stop id="stop4490" offset="0" stop-color="#000" stop-opacity=".047"/><stop id="stop4492" offset="1" stop-color="#000" stop-opacity="0"/></linearGradient><style id="style4511"/><style id="style4511-26"/><style id="style4511-9"/><style id="style4552"/><style id="style4511-2"/><linearGradient xlink:href="#linearGradient4488" id="linearGradient4540" gradientUnits="userSpaceOnUse" gradientTransform="matrix(.30902 0 0 .3038 -64.017 2.569)" x1="288.112" y1="141.785" x2="287.575" y2="79.008"/><linearGradient osb:paint="solid" id="linearGradient5293"><stop id="stop5295" offset="0" stop-color="#9a89c0" stop-opacity="1"/></linearGradient><linearGradient gradientUnits="userSpaceOnUse" y2="160.631" x2="334.866" y1="140.23" x1="334.866" id="linearGradient930" xlink:href="#linearGradient928"/><linearGradient id="linearGradient928"><stop id="stop924" offset="0" stop-color="gray" stop-opacity="1"/><stop id="stop926" offset="1" stop-color="#999" stop-opacity="1"/></linearGradient><linearGradient id="linearGradient4167-3"><stop id="stop1566" offset="0" stop-color="#fff" stop-opacity="0"/><stop id="stop1568" offset="1" stop-color="#fff" stop-opacity="1"/></linearGradient><linearGradient id="linearGradient4324"><stop id="stop1571" offset="0" stop-color="#eff1f1" stop-opacity="1"/><stop id="stop1573" offset="1" stop-color="#ececec" stop-opacity="1"/></linearGradient><linearGradient id="linearGradient4306"><stop id="stop1576" offset="0" stop-color="#000" stop-opacity="0"/><stop id="stop1578" offset="1" stop-color="#000" stop-opacity="1"/></linearGradient><linearGradient gradientUnits="userSpaceOnUse" y2="12" x2="-7" y1="12" x1="-17" id="linearGradient4312" xlink:href="#linearGradient4306" gradientTransform="translate(-66.25 -8)"/><radialGradient gradientUnits="userSpaceOnUse" r="4" fy="12" fx="-12" cy="12" cx="-12" id="radialGradient4340" xlink:href="#linearGradient4324" gradientTransform="translate(-66.25 -8)"/><linearGradient gradientTransform="translate(90.25 -8)" y2="12" x2="-7" y1="12" x1="-17" gradientUnits="userSpaceOnUse" id="linearGradient4165" xlink:href="#linearGradient4167-3"/><linearGradient gradientTransform="translate(-78.25 4)" y2="12" x2="-7" y1="12" x1="-17" gradientUnits="userSpaceOnUse" id="linearGradient4186" xlink:href="#linearGradient4306"/><radialGradient gradientTransform="translate(-78.25 4)" r="4" fy="12" fx="-12" cy="12" cx="-12" gradientUnits="userSpaceOnUse" id="radialGradient4188" xlink:href="#linearGradient4324"/><linearGradient y2="12" x2="-7" y1="12" x1="-17" gradientTransform="translate(102.25 4)" gradientUnits="userSpaceOnUse" id="linearGradient4190-6" xlink:href="#linearGradient4167-3"/><linearGradient gradientTransform="translate(-90.25 16)" y2="12" x2="-7" y1="12" x1="-17" gradientUnits="userSpaceOnUse" id="linearGradient4200" xlink:href="#linearGradient4306"/><radialGradient gradientTransform="translate(-90.25 16)" r="4" fy="12" fx="-12" cy="12" cx="-12" gradientUnits="userSpaceOnUse" id="radialGradient4202" xlink:href="#linearGradient4324"/><linearGradient y2="12" x2="-7" y1="12" x1="-17" gradientTransform="translate(114.25 16)" gradientUnits="userSpaceOnUse" id="linearGradient4204-7" xlink:href="#linearGradient4167-3"/><linearGradient xlink:href="#linearGradient4266" id="linearGradient1695" x1="2.581" y1="24.161" x2="45.552" y2="24.161" gradientUnits="userSpaceOnUse"/></defs><style id="style4485" type="text/css"/><path id="path4516" d="M2.75 26.796v1.668c0 9.575 5.68 17.283 17.44 17.283h7.05c15.392 0 18.143-11.323 18.143-17.283v-1.668c0 5.96-2.75 17.282-18.143 17.282h-7.05c-11.76 0-17.44-7.708-17.44-17.282z" opacity="1" fill="url(#linearGradient4540)" fill-opacity="1" stroke="none" stroke-width="1.109" stroke-linecap="square" stroke-linejoin="bevel" stroke-miterlimit="4" stroke-dasharray="none" stroke-dashoffset="0" stroke-opacity=".078"/><path id="path4518" d="M19.649 3.318h8.64c14.148 0 17.094 11.246 17.094 17.282v7.123c0 5.96-2.75 17.282-18.143 17.282h-7.05c-11.76 0-17.44-7.708-17.44-17.282V20.6c0-9.575 5.564-17.282 16.899-17.282z" opacity="1" fill="url(#linearGradient1695)" fill-opacity="1" stroke="#000" stroke-width=".337" stroke-linecap="square" stroke-linejoin="bevel" stroke-miterlimit="4" stroke-dasharray="none" stroke-dashoffset="0" stroke-opacity=".078"/><g id="g1682" transform="matrix(.82336 0 0 .83112 10.893 -50.848)" fill-opacity="1"><rect id="rect1602" rx="4" ry="4" transform="rotate(-90)" y="0" x="-82.25" height="8" width="8" opacity=".1" fill="none" stroke="url(#linearGradient4312)" stroke-width="2" stroke-miterlimit="4" stroke-dasharray="none" stroke-opacity="1"/><rect id="rect1604" width="8" height="8" x="-82.25" y="0" transform="rotate(-90)" ry="4" rx="4" fill="url(#radialGradient4340)" stroke="none"/><rect id="rect1606" width="8" height="8" x="74.25" y="0" transform="matrix(0 1 1 0 0 0)" ry="4" rx="4" opacity=".1" fill="none" stroke="url(#linearGradient4165)" stroke-width="2" stroke-miterlimit="4" stroke-dasharray="none" stroke-opacity="1"/><rect id="rect1608" width="8" height="8" x="-94.25" y="12" transform="rotate(-90)" ry="4" rx="4" opacity=".1" fill="none" stroke="url(#linearGradient4186)" stroke-width="2" stroke-miterlimit="4" stroke-dasharray="none" stroke-opacity="1"/><rect id="rect1610" rx="4" ry="4" transform="rotate(-90)" y="12" x="-94.25" height="8" width="8" fill="url(#radialGradient4188)" stroke="none"/><rect id="rect1612" rx="4" ry="4" transform="matrix(0 1 1 0 0 0)" y="12" x="86.25" height="8" width="8" opacity=".1" fill="none" stroke="url(#linearGradient4190-6)" stroke-width="2" stroke-miterlimit="4" stroke-dasharray="none" stroke-opacity="1"/><rect id="rect1614" rx="4" ry="4" transform="rotate(-90)" y="24" x="-106.25" height="8" width="8" opacity=".1" fill="none" stroke="url(#linearGradient4200)" stroke-width="2" stroke-miterlimit="4" stroke-dasharray="none" stroke-opacity="1"/><rect id="rect1616" width="8" height="8" x="-106.25" y="24" transform="rotate(-90)" ry="4" rx="4" fill="url(#radialGradient4202)" stroke="none"/><rect id="rect1618" width="8" height="8" x="98.25" y="24" transform="matrix(0 1 1 0 0 0)" ry="4" rx="4" opacity=".1" fill="none" stroke="url(#linearGradient4204-7)" stroke-width="2" stroke-miterlimit="4" stroke-dasharray="none" stroke-opacity="1"/></g></svg>