<svg xmlns="http://www.w3.org/2000/svg" xmlns:xlink="http://www.w3.org/1999/xlink" width="48" height="48" version="1.1" id="svg38"><defs id="defs22"><linearGradient id="linearGradient4488"><stop id="stop4490" offset="0" stop-color="#000" stop-opacity=".047"/><stop id="stop4492" offset="1" stop-color="#000" stop-opacity="0"/></linearGradient><style id="style4511"/><style id="style4511-26"/><style id="style4511-9"/><style id="style4552"/><style id="style4511-2"/><linearGradient xlink:href="#linearGradient4488" id="linearGradient4471" gradientUnits="userSpaceOnUse" gradientTransform="translate(-62.47 2.216) scale(.3038)" x1="288.112" y1="141.785" x2="287.575" y2="79.008"/><circle id="SVGID_1_" r="15.999" cy="-31.965" cx="73.957"/><linearGradient gradientTransform="rotate(-90 -3.113 51.17)" gradientUnits="userSpaceOnUse" x2="47" x1="1" id="linearGradient3764-36"><stop id="stop700" stop-opacity="1" stop-color="#e4e4e4"/><stop id="stop702" stop-opacity="1" stop-color="#eee" offset="1"/></linearGradient><linearGradient xlink:href="#linearGradient3764-36" id="linearGradient1670" x1="3.001" y1="23.808" x2="45.248" y2="23.808" gradientUnits="userSpaceOnUse"/><clipPath id="clipPath-599163137"/><clipPath id="SVGID_2_"><use id="use25" x="0" y="0" width="1" height="1" xlink:href="#SVGID_1_" overflow="visible"/></clipPath></defs><style id="style4485" type="text/css"/><path stroke-miterlimit="4" d="M19.781 2.965h8.495c13.908 0 16.805 11.246 16.805 17.282v7.123c0 5.96-2.705 17.282-17.837 17.282h-6.93c-11.563 0-17.146-7.708-17.146-17.282v-7.123c0-9.575 5.47-17.282 16.613-17.282z" id="path4469" opacity="1" fill="url(#linearGradient1670)" fill-opacity="1" stroke="#000" stroke-width=".334" stroke-linecap="square" stroke-linejoin="bevel" stroke-dasharray="none" stroke-dashoffset="0" stroke-opacity=".078"/><path stroke-miterlimit="4" d="M3.168 26.443v1.668c0 9.575 5.583 17.282 17.146 17.282h6.93c15.132 0 17.836-11.322 17.836-17.282v-1.668c0 5.96-2.704 17.282-17.836 17.282h-6.93c-11.563 0-17.146-7.708-17.146-17.282z" id="path4467" opacity="1" fill="url(#linearGradient4471)" fill-opacity="1" stroke="none" stroke-width="1.1" stroke-linecap="square" stroke-linejoin="bevel" stroke-dasharray="none" stroke-dashoffset="0" stroke-opacity=".078"/><path id="path1585" d="M20.894 18s-.39-.912-.526-1.216c-.887-2.025-.87-2.127-1.77-2.265-.254-.037-.386-.078-.386-.218v-.638l.074-.065c1.63-.005 5.248-.005 5.248-.005l.14.056v.638c0 .148-.09.217-.276.217l-.381.066c-.961.082-.806.536-.164 1.993l6.066 14.19.21.065 5.383-14.616c.185-.587.156-1.009-.082-1.258-.242-.236-.41-.38-1.034-.412l-.51-.028a.299.336 0 0 1-.176-.07.186.21 0 0 1-.086-.175v-.61l.078-.065h6.082l.066.065v.61c0 .163-.082.245-.246.245-.797.042-1.392.24-1.77.592-.386.357-.682.847-.9 1.48 0 0-4.948 12.965-6.644 17.274-.649 1.41-1.286 1.281-1.848-.046-1.183-2.787-4.522-11.254-4.522-11.254l-2.029-4.56m.004.01" fill="#2d2d2d" fill-opacity="1" fill-rule="nonzero" stroke="none" stroke-width="1.116"/><path id="path1587" d="M30.606 13.585s-3.425-.01-4.948 0l-.074.065v.606a.19.213 0 0 0 .082.18.305.343 0 0 0 .177.074l.246.032c.62.028.907.218.993.338.149.203.222.43-.14 1.327L20.557 30.78l-.169-.05s-4.575-11.033-5.9-14.723c-.136-.384-.202-.67-.202-.842 0-.37.296-.578.888-.606l.69-.037c.18 0 .275-.078.275-.245v-.61l-.066-.06s-5.479-.01-6.612 0l-.062.06v.638c0 .116.127.184.381.217.699.047 1.155.172 1.377.384.221.213.452.754.76 1.6 1.667 4.568 5.199 12.725 6.92 17.372.493 1.266 1.117 1.46 1.872-.037 1.31-2.784 4.863-11.268 4.863-11.268l2.796-5.978c.325-.633.64-1.198.801-1.46.291-.477.457-.569 1.252-.611.164 0 .246-.088.246-.255v-.606l-.062-.065m0-.014" fill="#2d2d2d" fill-opacity="1" fill-rule="nonzero" stroke="none" stroke-width="1.116"/></svg>