<svg xmlns:osb="http://www.openswatchbook.org/uri/2009/osb" xmlns="http://www.w3.org/2000/svg" xmlns:xlink="http://www.w3.org/1999/xlink" width="48" height="48" version="1.1" id="svg38"><defs id="defs22"><style id="style4511"/><style id="style4511-26"/><style id="style4511-9"/><style id="style4552"/><style id="style4511-2"/><linearGradient osb:paint="solid" id="linearGradient5293"><stop id="stop5295" offset="0" stop-color="#9a89c0" stop-opacity="1"/></linearGradient><linearGradient id="linearGradient4290"><stop id="stop4292" offset="0" stop-color="#e72662" stop-opacity="1"/><stop offset=".483" id="stop4272" stop-color="#ec3c50" stop-opacity="1"/><stop id="stop4294" offset="1" stop-color="#ff7b66" stop-opacity="1"/></linearGradient><linearGradient xlink:href="#linearGradient4290" id="linearGradient1699" x1="2.959" y1="24.202" x2="45.204" y2="24.202" gradientUnits="userSpaceOnUse"/><radialGradient gradientTransform="matrix(0 -1.07487 .91326 0 11.595 287.436)" gradientUnits="userSpaceOnUse" xlink:href="#linearGradient3779" id="radialGradient3801" fy="24" fx="19" r="8" cy="24" cx="19"/><linearGradient id="linearGradient3779"><stop offset="0" id="stop3781" stop-color="#fff" stop-opacity="1"/><stop offset=".814" id="stop3785" stop-color="#e5e5e5" stop-opacity="1"/><stop offset="1" id="stop3783" stop-color="#c8c8c8" stop-opacity="1"/></linearGradient><radialGradient gradientTransform="matrix(0 -1.07487 .91326 0 27.47 303.311)" gradientUnits="userSpaceOnUse" xlink:href="#linearGradient3779" id="radialGradient3797" fy="24" fx="19" r="8" cy="24" cx="19"/><radialGradient gradientTransform="matrix(0 -1.07487 .91326 0 -4.28 303.311)" gradientUnits="userSpaceOnUse" xlink:href="#linearGradient3779" id="radialGradient3795" fy="24" fx="19" r="8" cy="24" cx="19"/><radialGradient gradientTransform="matrix(0 -1.07487 .91326 0 27.47 271.561)" gradientUnits="userSpaceOnUse" xlink:href="#linearGradient3779" id="radialGradient3789" fy="24" fx="19" r="8" cy="24" cx="19"/><radialGradient gradientTransform="matrix(0 -1.07487 .91326 0 -4.28 271.561)" gradientUnits="userSpaceOnUse" xlink:href="#linearGradient3779" id="radialGradient3777" fy="24" fx="19" r="8" cy="24" cx="19"/><filter height="1.096" y="-.048" width="1.096" x="-.048" id="filter930" color-interpolation-filters="sRGB"><feGaussianBlur id="feGaussianBlur932" stdDeviation=".847"/></filter><clipPath clipPathUnits="userSpaceOnUse" id="clipPath1671"/><linearGradient xlink:href="#linearGradient4290" id="linearGradient1128" gradientUnits="userSpaceOnUse" x1="2.959" y1="24.202" x2="45.204" y2="24.202"/><radialGradient xlink:href="#linearGradient3779" id="radialGradient1130" gradientUnits="userSpaceOnUse" gradientTransform="matrix(0 -.65122 .56056 0 .883 28.96)" cx="19" cy="24" fx="19" fy="24" r="8"/><radialGradient xlink:href="#linearGradient3779" id="radialGradient1132" gradientUnits="userSpaceOnUse" gradientTransform="matrix(0 -.65122 .56056 0 20.371 28.96)" cx="19" cy="24" fx="19" fy="24" r="8"/><radialGradient xlink:href="#linearGradient3779" id="radialGradient1134" gradientUnits="userSpaceOnUse" gradientTransform="matrix(0 -.65122 .56056 0 .883 48.197)" cx="19" cy="24" fx="19" fy="24" r="8"/><radialGradient xlink:href="#linearGradient3779" id="radialGradient1136" gradientUnits="userSpaceOnUse" gradientTransform="matrix(0 -.65122 .56056 0 20.371 48.197)" cx="19" cy="24" fx="19" fy="24" r="8"/><radialGradient xlink:href="#linearGradient3779" id="radialGradient1138" gradientUnits="userSpaceOnUse" gradientTransform="matrix(0 -.65122 .56056 0 10.627 38.579)" cx="19" cy="24" fx="19" fy="24" r="8"/><linearGradient xlink:href="#linearGradient4290" id="linearGradient1170" gradientUnits="userSpaceOnUse" x1="2.959" y1="24.202" x2="45.204" y2="24.202"/><radialGradient xlink:href="#linearGradient3779" id="radialGradient1172" gradientUnits="userSpaceOnUse" gradientTransform="matrix(0 -1.07487 .91326 0 -4.28 271.561)" cx="19" cy="24" fx="19" fy="24" r="8"/><radialGradient xlink:href="#linearGradient3779" id="radialGradient1174" gradientUnits="userSpaceOnUse" gradientTransform="matrix(0 -1.07487 .91326 0 27.47 271.561)" cx="19" cy="24" fx="19" fy="24" r="8"/><radialGradient xlink:href="#linearGradient3779" id="radialGradient1176" gradientUnits="userSpaceOnUse" gradientTransform="matrix(0 -1.07487 .91326 0 -4.28 303.311)" cx="19" cy="24" fx="19" fy="24" r="8"/><radialGradient xlink:href="#linearGradient3779" id="radialGradient1178" gradientUnits="userSpaceOnUse" gradientTransform="matrix(0 -1.07487 .91326 0 27.47 303.311)" cx="19" cy="24" fx="19" fy="24" r="8"/><radialGradient xlink:href="#linearGradient3779" id="radialGradient1180" gradientUnits="userSpaceOnUse" gradientTransform="matrix(0 -1.07487 .91326 0 11.595 287.436)" cx="19" cy="24" fx="19" fy="24" r="8"/></defs><style id="style4485" type="text/css"/><path stroke-miterlimit="4" d="M19.738 3.544h8.495c13.908 0 16.804 11.146 16.804 17.128v7.06c0 5.906-2.704 17.127-17.836 17.127h-6.93c-11.563 0-17.146-7.639-17.146-17.128v-7.06c0-9.488 5.47-17.127 16.613-17.127z" id="path4518" opacity="1" fill="url(#linearGradient1128)" fill-opacity="1" stroke="#000" stroke-width=".333" stroke-linecap="square" stroke-linejoin="bevel" stroke-dasharray="none" stroke-dashoffset="0" stroke-opacity=".078"/><path overflow="visible" display="inline" style="marker:none" id="path3791" d="M14.337 30.614a3.248 3.206 0 1 1 0 6.412 3.248 3.206 0 1 1 0-6.412z" color="#000" visibility="visible" fill="url(#radialGradient1134)" fill-opacity="1" fill-rule="nonzero" stroke="none" stroke-width=".605" enable-background="accumulate"/><path overflow="visible" display="inline" style="marker:none" id="path3746" d="M14.337 11.378a3.248 3.206 0 1 1 0 6.412 3.248 3.206 0 1 1 0-6.412z" color="#000" visibility="visible" fill="url(#radialGradient1130)" fill-opacity="1" fill-rule="nonzero" stroke="none" stroke-width=".605" enable-background="accumulate"/><path overflow="visible" display="inline" style="marker:none" id="path3787" d="M33.825 11.378a3.248 3.206 0 1 1 0 6.412 3.248 3.206 0 1 1 0-6.412z" color="#000" visibility="visible" fill="url(#radialGradient1132)" fill-opacity="1" fill-rule="nonzero" stroke="none" stroke-width=".605" enable-background="accumulate"/><path overflow="visible" display="inline" style="marker:none" id="path3793" d="M33.825 30.614a3.248 3.206 0 1 1 0 6.412 3.248 3.206 0 1 1 0-6.412z" color="#000" visibility="visible" fill="url(#radialGradient1136)" fill-opacity="1" fill-rule="nonzero" stroke="none" stroke-width=".605" enable-background="accumulate"/><path overflow="visible" display="inline" style="marker:none" id="path3799" d="M24.08 20.996a3.248 3.206 0 1 1 0 6.412 3.248 3.206 0 1 1 0-6.412z" color="#000" visibility="visible" fill="url(#radialGradient1138)" fill-opacity="1" fill-rule="nonzero" stroke="none" stroke-width=".605" enable-background="accumulate"/></svg>