<svg xmlns="http://www.w3.org/2000/svg" xmlns:xlink="http://www.w3.org/1999/xlink" width="48" height="48" version="1.1" id="svg38"><defs id="defs22"><linearGradient id="linearGradient4488"><stop id="stop4490" offset="0" stop-color="#000" stop-opacity=".047"/><stop id="stop4492" offset="1" stop-color="#000" stop-opacity="0"/></linearGradient><style id="style4511"/><style id="style4511-26"/><style id="style4511-9"/><linearGradient gradientUnits="userSpaceOnUse" x2="19.574" y2="22.495" x1="3.783" y1="23.644" id="g-5"><stop id="stop24-2" stop-color="#2980b9"/><stop id="stop26" stop-color="#34495e" offset="1"/></linearGradient><style id="style4552"/><linearGradient id="d-0" y1="22.346" x1="29.855" y2="28.506" x2="54.32" gradientUnits="userSpaceOnUse"><stop stop-color="#ffc169" id="stop17-62"/><stop offset="1" stop-color="#ffa92d" id="stop19-6"/></linearGradient><style id="style4511-2"/><linearGradient gradientTransform="translate(-63.205 2.216) scale(.3038)" xlink:href="#linearGradient4488" id="linearGradient4160" x1="288.112" y1="141.785" x2="287.575" y2="79.008" gradientUnits="userSpaceOnUse"/><linearGradient xlink:href="#d-0" id="linearGradient1147" x1="2.266" y1="23.808" x2="44.513" y2="23.808" gradientUnits="userSpaceOnUse"/><linearGradient xlink:href="#g-5" id="linearGradient1155" x1="15.585" y1="23.757" x2="31.194" y2="23.757" gradientUnits="userSpaceOnUse" gradientTransform="translate(.431 .431)"/></defs><style id="style4485" type="text/css"/><path d="M2.433 26.443v1.668c0 9.575 5.583 17.282 17.146 17.282h6.93c15.133 0 17.837-11.322 17.837-17.282v-1.668c0 5.96-2.704 17.282-17.837 17.282h-6.93c-11.563 0-17.146-7.708-17.146-17.282z" id="path4147" opacity="1" fill="url(#linearGradient4160)" fill-opacity="1" stroke="none" stroke-width="1.1" stroke-linecap="square" stroke-linejoin="bevel" stroke-miterlimit="4" stroke-dasharray="none" stroke-dashoffset="0" stroke-opacity=".078"/><path d="M19.046 2.965h8.495c13.908 0 16.805 11.246 16.805 17.282v7.123c0 5.96-2.704 17.282-17.837 17.282h-6.93c-11.562 0-17.146-7.708-17.146-17.282v-7.123c0-9.575 5.47-17.282 16.613-17.282z" id="rect4144" opacity="1" fill="url(#linearGradient1147)" fill-opacity="1" stroke="#000" stroke-width=".334" stroke-linecap="square" stroke-linejoin="bevel" stroke-miterlimit="4" stroke-dasharray="none" stroke-dashoffset="0" stroke-opacity=".078"/><path d="M20.5 10.418c-.234.184-.292.46-.292.783 0 .598.233 1.335.35 1.611 0 0 .174 3.224.232 3.592-.524.047-1.455.093-1.804.185h-.466c-.99.046-1.921.092-2.329.414l-.174.138.174.185c.291.276.408 1.059.524 1.888.291 1.704.64 3.822 2.387 4.651l.35.138v-.322s.058-.138.058-.323c0-.138-.059-.368-.117-.69.466.046 1.456.138 1.805.138.058.368 1.572 15.382 1.572 15.382h.582s.64-14.83.64-15.29c.407 0 2.212.047 2.736.093-.116.276-.582 1.428-.582 1.428l.815-.6c.233-.137 5.297-3.775 4.599-6.17-.233-.783-1.048-1.336-2.387-1.612h-.117c-.756 0-3.085.046-4.831.138a41.07 41.07 0 0 0 .058-2.164v-.415c0-.23.291-.552.524-.783.233-.276.524-.506.524-.783 0-.092-.058-.184-.116-.276-.35-.414-2.911-1.474-4.017-1.566-.35.046-.582.092-.699.23zm.058 7.552h.29c0 .415.175 3.316.233 3.73-.465-.046-1.571-.138-1.92-.138-.175-.598-.233-1.243-.292-1.888-.058-.552-.116-1.105-.233-1.612.524 0 1.922-.092 1.922-.092zm3.55 1.428s.059-1.105.059-1.474a23.7 23.7 0 0 0 2.677.138h1.048c0 .185-.058.415-.058.415-.116 1.013-.291 2.21-.815 3.408-.35 0-2.503-.092-2.969-.138 0-.323.058-2.35.058-2.35z" id="path8-2-9" fill="url(#linearGradient1155)" fill-opacity="1"/></svg>