<svg xmlns:osb="http://www.openswatchbook.org/uri/2009/osb" xmlns="http://www.w3.org/2000/svg" xmlns:xlink="http://www.w3.org/1999/xlink" width="48" height="48" version="1.1" id="svg38"><defs id="defs22"><linearGradient id="linearGradient4488"><stop id="stop4490" offset="0" stop-color="#000" stop-opacity=".047"/><stop id="stop4492" offset="1" stop-color="#000" stop-opacity="0"/></linearGradient><linearGradient id="linearGradient4154"><stop offset="0" id="stop2" stop-color="#000" stop-opacity="1"/><stop offset="1" id="stop4" stop-color="#000" stop-opacity="0"/></linearGradient><style id="style4511"/><style id="style4511-26"/><style id="style4511-9"/><style id="style4552"/><style id="style4511-2"/><linearGradient xlink:href="#linearGradient4488" id="linearGradient4540" gradientUnits="userSpaceOnUse" gradientTransform="translate(-62.889 1.994) scale(.3038)" x1="288.112" y1="141.785" x2="287.575" y2="79.008"/><linearGradient osb:paint="solid" id="linearGradient5293"><stop id="stop5295" offset="0" stop-color="#9a89c0" stop-opacity="1"/></linearGradient><linearGradient gradientUnits="userSpaceOnUse" gradientTransform="matrix(2.6002 0 0 .04343 60.894 36.867)" id="linearGradient-7" y2="25.675" x2="4.536" y1="17.964" x1="4.536"><stop id="stop18-1" offset="0%" stop-color="#F7F7F7"/><stop id="stop20-2" offset="100%" stop-color="#F7F7F7"/></linearGradient><linearGradient gradientUnits="userSpaceOnUse" x2="0" y2="4" y1="37" id="linearGradient4503" xlink:href="#linearGradient4816"/><linearGradient gradientUnits="userSpaceOnUse" x2="23.531" y2="25.406" x1="20.438" y1="22.313" id="linearGradient4503-6" xlink:href="#linearGradient4154"/><linearGradient id="linearGradient4816"><stop id="stop1301" stop-color="#da4453"/><stop id="stop1303" offset="1" stop-color="#ff7336"/></linearGradient></defs><style id="style4485" type="text/css"/><path id="path4516" d="M2.75 26.22v1.67c0 9.573 5.583 17.281 17.146 17.281h6.93c15.132 0 17.836-11.322 17.836-17.282v-1.668c0 5.96-2.704 17.282-17.836 17.282h-6.93C8.333 43.503 2.75 35.795 2.75 26.22z" opacity="1" fill="url(#linearGradient4540)" fill-opacity="1" stroke="none" stroke-width="1.1" stroke-linecap="square" stroke-linejoin="bevel" stroke-miterlimit="4" stroke-dasharray="none" stroke-dashoffset="0" stroke-opacity=".078"/><path id="path4518" d="M19.363 2.742h8.495c13.908 0 16.804 11.247 16.804 17.282v7.124c0 5.96-2.704 17.282-17.836 17.282h-6.93C8.333 44.43 2.75 36.722 2.75 27.148v-7.124c0-9.574 5.47-17.282 16.613-17.282z" opacity="1" fill="#3b85b5" fill-opacity="1" stroke="#000" stroke-width=".334" stroke-linecap="square" stroke-linejoin="bevel" stroke-miterlimit="4" stroke-dasharray="none" stroke-dashoffset="0" stroke-opacity=".078"/><rect id="Mask" x="63.147" y="78.204" width="20.231" height="20.096" rx=".581" fill="#f1f1f1" fill-opacity="1" fill-rule="evenodd" stroke="none" stroke-width=".336"/><path d="M82.713 37.983a.675.675 0 0 0-.584-.335H63.246a.675.675 0 0 0-.584.335z" id="use70" fill="url(#linearGradient-7)" fill-rule="evenodd" stroke="none" stroke-width=".336"/><path id="path4518-0" d="M19.71 4.32h7.826c12.814 0 15.483 10.438 15.483 16.04v6.61c0 5.532-2.492 16.04-16.434 16.04H20.2c-10.653 0-15.797-7.153-15.797-16.04v-6.61c0-8.887 5.04-16.04 15.306-16.04z" opacity="1" fill="#e6e6e6" fill-opacity="1" stroke="#000" stroke-width=".309" stroke-linecap="square" stroke-linejoin="bevel" stroke-miterlimit="4" stroke-dasharray="none" stroke-dashoffset="0" stroke-opacity=".078"/><path id="path2993-3" d="M15.413 11.977c0 1.619-1.336 2.932-2.983 2.932s-2.982-1.313-2.982-2.932c0-1.62 1.335-2.932 2.982-2.932a2.99 2.99 0 0 1 2.109.859 2.88 2.88 0 0 1 .874 2.073z" fill="#fff" fill-rule="evenodd" stroke="#000" stroke-width=".054" stroke-linecap="butt" stroke-linejoin="miter" stroke-miterlimit="4" stroke-opacity=".308"/><path id="path31-62" d="M12.43 9.072c1.634 0 2.958 1.302 2.958 2.91 0 1.606-1.324 2.909-2.958 2.909-1.635 0-2.96-1.303-2.96-2.91 0-1.607 1.325-2.91 2.96-2.91z" fill="#fff" fill-opacity="1" stroke="#000" stroke-width=".128" stroke-opacity=".308"/><path id="path51-91" d="M9.736 11.97v-.002c0-1.46 1.201-2.644 2.682-2.644h.001c1.48 0 2.682 1.184 2.682 2.644v.001c0 1.461-1.201 2.646-2.682 2.646-1.482 0-2.683-1.185-2.683-2.646m0 0" fill="#ffa600" fill-opacity="1" fill-rule="evenodd" stroke="none" stroke-width=".178"/><path id="path2993-3-3" d="M15.463 19.585c0 1.593-1.376 2.885-3.074 2.885-1.697 0-3.074-1.292-3.074-2.885 0-1.593 1.377-2.885 3.074-2.885.425 0 .83.08 1.197.227.368.146.699.357.977.618s.503.572.659.917c.155.345.241.725.241 1.123z" fill="#fff" fill-rule="evenodd" stroke="#000" stroke-width=".054" stroke-linecap="butt" stroke-linejoin="miter" stroke-miterlimit="4" stroke-opacity=".308"/><path id="path31-62-6" d="M12.389 16.727c1.684 0 3.05 1.281 3.05 2.862 0 1.582-1.366 2.863-3.05 2.863-1.684 0-3.05-1.281-3.05-2.863 0-1.58 1.366-2.862 3.05-2.862z" fill="#fff" fill-opacity="1" stroke="#000" stroke-width=".128" stroke-opacity=".308"/><path id="path51-91-7" d="M9.613 19.578v-.001c0-1.437 1.237-2.603 2.764-2.603h.001c1.526 0 2.764 1.166 2.764 2.603 0 1.438-1.238 2.604-2.764 2.604-1.528 0-2.765-1.166-2.765-2.603m0 0" fill="#19b5f9" fill-opacity="1" fill-rule="evenodd" stroke="none" stroke-width=".179"/><path id="path2993-3-5" d="M15.49 27.402c0 1.594-1.376 2.885-3.074 2.885s-3.074-1.291-3.074-2.885c0-1.593 1.376-2.885 3.074-2.885.424 0 .829.081 1.197.227.367.146.699.357.977.618s.503.572.659.917c.155.345.241.725.241 1.123z" fill="#fff" fill-rule="evenodd" stroke="#000" stroke-width=".054" stroke-linecap="butt" stroke-linejoin="miter" stroke-miterlimit="4" stroke-opacity=".308"/><path id="path31-62-3" d="M12.416 24.544c1.684 0 3.05 1.281 3.05 2.863 0 1.58-1.366 2.862-3.05 2.862-1.685 0-3.05-1.281-3.05-2.862 0-1.582 1.365-2.863 3.05-2.863z" fill="#fff" fill-opacity="1" stroke="#000" stroke-width=".128" stroke-opacity=".308"/><path id="path51-91-5" d="M9.64 27.395v-.001c0-1.437 1.237-2.602 2.764-2.602 1.527 0 2.765 1.165 2.765 2.602 0 1.438-1.238 2.604-2.764 2.604-1.528 0-2.765-1.166-2.765-2.603m0 0" fill="#5ccc7c" fill-opacity="1" fill-rule="evenodd" stroke="none" stroke-width=".179"/><path id="path2993-3-1" d="M15.537 35.237c0 1.593-1.377 2.885-3.074 2.885-1.698 0-3.074-1.292-3.074-2.885 0-1.593 1.376-2.885 3.074-2.885.424 0 .828.08 1.196.227.368.146.7.357.977.618.278.261.503.572.659.917.156.345.242.725.242 1.123z" fill="#fff" fill-rule="evenodd" stroke="#000" stroke-width=".054" stroke-linecap="butt" stroke-linejoin="miter" stroke-miterlimit="4" stroke-opacity=".308"/><path id="path31-62-2" d="M12.462 32.379c1.684 0 3.05 1.281 3.05 2.862 0 1.581-1.366 2.863-3.05 2.863-1.684 0-3.05-1.282-3.05-2.863 0-1.58 1.366-2.862 3.05-2.862z" fill="#fff" fill-opacity="1" stroke="#000" stroke-width=".128" stroke-opacity=".308"/><path id="path51-91-70" d="M9.686 35.23v-.001c0-1.437 1.238-2.603 2.765-2.603 1.527 0 2.764 1.166 2.764 2.603 0 1.438-1.237 2.603-2.764 2.603-1.527 0-2.765-1.165-2.765-2.603m0 0" fill="#a394eb" fill-opacity="1" fill-rule="evenodd" stroke="none" stroke-width=".179"/><rect id="rect51" rx="0" y="11.912" x="19.848" height=".926" width="18.102" fill="#b3b3b3" fill-opacity="1" stroke="none" stroke-width=".916"/><rect id="rect51-3" rx="0" y="19.115" x="20.01" height=".926" width="18.102" fill="#b3b3b3" fill-opacity="1" stroke="none" stroke-width=".916"/><rect id="rect51-6" rx="0" y="27.318" x="20.01" height=".926" width="18.102" fill="#b3b3b3" fill-opacity="1" stroke="none" stroke-width=".916"/><rect id="rect51-7" rx="0" y="34.331" x="20.01" height=".926" width="18.102" fill="#b3b3b3" fill-opacity="1" stroke="none" stroke-width=".916"/><g transform="matrix(.65822 0 0 .64427 14.574 6.909)" id="g1380" fill-rule="evenodd"><path d="M33.998 4l-2.33 1.143c-2.332 1.144-4.794 3.75-4.794 3.75l.366 2.945c-.138.2-.283.414-.43.629l-1.035-1.857-1.686 2.098 1.19 2.043-.023.033-1.49-1.694s-.972 1.144-3.951 5.402c-2.98 4.26-5.441 9.217-5.441 9.217l.114 3.369c-.16.237-.33.494-.486.724l-.47-2.758-1.036 1.716-.26 1.655-.582.7s-.962 3.598-.777 4.249c.184.65 2.624-.629 2.624-.629l.128-.857 1.975-.634-2.198-.439.172-.286c.263.08.573.172 1.153.278 1.393.254 2.33-.253 2.33-.253l1.005-1.272s-.777.54-1.651.699c-.862.157-2.326-.205-2.37-.216l.237-.394c.37-.094 3.703-.963 5.662-2.345 2.072-1.462 6.185-5.975 6.185-5.975S25.137 25.03 23 25c-2.014-.03-3.794-.016-4 0 .093-.149 0-1 0-1l8.586-1.344s.552-1.05 1.394-2.734C29.822 18.238 32 14 32 14s-1.462-.042-2.768-.221a25.128 25.128 0 0 1-2.536-.5l.046-.07c.181-.084 1.346-.62 2.216-.891.938-.292 3.8-.697 3.8-.697s.024-.404.23-1.236c.206-.831.618-2.742.618-2.742l-4.98 2.807c.21-.289.407-.545.612-.818l4.551-2.663s.046-.584.138-1.348c.091-.764.071-1.621.071-1.621z" id="path1374" fill="url(#linearGradient4503)"/><path d="M34 4s-4.62 4.94-9.222 11.275c-4.602 6.333-9.268 13.499-13.934 21.68C6.792 44.058 8.258 44 8.258 44s.46-1.184 3.678-6.761c3.076-5.332 6.967-12.216 13.474-21.705C28.51 11.012 34 4 34 4z" id="path1376" fill="#31363b"/><path d="M33.998 4l-.707.883-2.577 3.298-3.972 5.028c.182-.084 1.345-.62 2.215-.89.939-.293 3.8-.698 3.8-.698s.025-.405.231-1.236c.206-.832.617-2.742.617-2.742l-4.3 2.408c.21-.288.409-.544.613-.816l3.871-2.266s.045-.584.137-1.348c.091-.764.072-1.621.072-1.621zm-7.256 9.209L19 24l8.586-1.344s.552-1.05 1.394-2.734C29.822 18.237 32 14 32 14s-1.462-.04-2.768-.22a25.182 25.182 0 0 1-2.537-.5l.047-.071zM19 24l-7.965 13.52c.58.203 2.465-.786 2.465-.786l.129-.855 1.976-.635-2.199-.44.172-.284a9.03 9.03 0 0 0 1.154.277c1.393.254 2.329-.252 2.329-.252l1.005-1.274s-.778.54-1.652.7c-.861.156-2.325-.206-2.37-.217l.237-.393c.37-.094 3.703-.963 5.662-2.345 2.073-1.462 6.186-5.975 6.186-5.975S25.137 25.031 23 25c-2.014-.03-3.794-.016-4 0 .093-.149 0-1 0-1z" id="path1378" opacity=".2" fill="url(#linearGradient4503-6)"/></g></svg>