<svg xmlns="http://www.w3.org/2000/svg" xmlns:xlink="http://www.w3.org/1999/xlink" width="48" height="48" version="1.1" id="svg38"><defs id="defs22"><linearGradient id="linearGradient4488"><stop id="stop4490" offset="0" stop-color="#000" stop-opacity=".047"/><stop id="stop4492" offset="1" stop-color="#000" stop-opacity="0"/></linearGradient><style id="style4511"/><style id="style4511-26"/><style id="style4511-9"/><style id="style4552"/><style id="style4511-2"/><linearGradient gradientTransform="translate(-63.205 2.216) scale(.3038)" xlink:href="#linearGradient4488" id="linearGradient4160" x1="288.112" y1="141.785" x2="287.575" y2="79.008" gradientUnits="userSpaceOnUse"/><linearGradient gradientUnits="userSpaceOnUse" y2="44" x2="23" y1="4" x1="23" id="linearGradient4504" xlink:href="#linearGradient4231" gradientTransform="translate(5.827 6.246) scale(.73176)"/><linearGradient id="linearGradient4231"><stop offset="0" id="stop12-9-6" stop-color="#424649" stop-opacity="1"/><stop offset="1" id="stop14-1" stop-color="#2a2c2f" stop-opacity="1"/></linearGradient></defs><style id="style4485" type="text/css"/><path d="M2.433 26.443v1.668c0 9.575 5.583 17.282 17.146 17.282h6.93c15.133 0 17.837-11.322 17.837-17.282v-1.668c0 5.96-2.704 17.282-17.837 17.282h-6.93c-11.563 0-17.146-7.708-17.146-17.282z" id="path4147" opacity="1" fill="url(#linearGradient4160)" fill-opacity="1" stroke="none" stroke-width="1.1" stroke-linecap="square" stroke-linejoin="bevel" stroke-miterlimit="4" stroke-dasharray="none" stroke-dashoffset="0" stroke-opacity=".078"/><path d="M19.046 2.965h8.495c13.908 0 16.805 11.246 16.805 17.282v7.123c0 5.96-2.704 17.282-17.837 17.282h-6.93c-11.562 0-17.146-7.708-17.146-17.282v-7.123c0-9.575 5.47-17.282 16.613-17.282z" id="rect4144" opacity="1" fill="#e3e7ea" fill-opacity="1" stroke="#000" stroke-width=".334" stroke-linecap="square" stroke-linejoin="bevel" stroke-miterlimit="4" stroke-dasharray="none" stroke-dashoffset="0" stroke-opacity=".078"/><path id="rect4485" d="M22.658 9.173v4.418a10.245 10.245 0 0 0-5.967 2.484l-3.133-3.133-1.035 1.035 3.129 3.128a10.245 10.245 0 0 0-2.47 5.971H8.754v1.464h4.418a10.245 10.245 0 0 0 2.484 5.967l-3.133 3.133 1.035 1.035 3.128-3.129a10.245 10.245 0 0 0 5.972 2.47v4.427h1.463v-4.417a10.245 10.245 0 0 0 5.967-2.484l3.133 3.133 1.035-1.035-3.129-3.129a10.245 10.245 0 0 0 2.47-5.971h4.428v-1.464h-4.418a10.245 10.245 0 0 0-2.484-5.967l3.133-3.132-1.035-1.035-3.128 3.128a10.245 10.245 0 0 0-5.972-2.47V9.174h-1.463z" opacity="1" fill="url(#linearGradient4504)" fill-opacity="1" stroke="none" stroke-width=".855" stroke-linecap="round" stroke-linejoin="round" stroke-miterlimit="4" stroke-dasharray="none" stroke-dashoffset="0" stroke-opacity="1"/></svg>