<svg xmlns:osb="http://www.openswatchbook.org/uri/2009/osb" xmlns="http://www.w3.org/2000/svg" xmlns:xlink="http://www.w3.org/1999/xlink" width="48" height="48" version="1.1" id="svg38"><defs id="defs22"><linearGradient id="linearGradient4488"><stop id="stop4490" offset="0" stop-color="#000" stop-opacity=".047"/><stop id="stop4492" offset="1" stop-color="#000" stop-opacity="0"/></linearGradient><linearGradient id="linearGradient4154"><stop offset="0" id="stop2" stop-color="#000" stop-opacity="1"/><stop offset="1" id="stop4" stop-color="#000" stop-opacity="0"/></linearGradient><style id="style4511"/><style id="style4511-26"/><style id="style4511-9"/><style id="style4552"/><style id="style4511-2"/><linearGradient xlink:href="#linearGradient4488" id="linearGradient4540" gradientUnits="userSpaceOnUse" gradientTransform="matrix(.30797 0 0 .308 -63.79 1.983)" x1="288.112" y1="141.785" x2="287.575" y2="79.008"/><linearGradient osb:paint="solid" id="linearGradient5293"><stop id="stop5295" offset="0" stop-color="#9a89c0" stop-opacity="1"/></linearGradient><style id="style4511-8"/><style id="style4511-26-4"/><style id="style4511-9-8"/><style id="style4552-9"/><style id="style4511-2-4"/><linearGradient id="linearGradient2390"><stop id="stop2386" offset="0" stop-color="#e70b22" stop-opacity="1"/><stop id="stop2388" offset="1" stop-color="#f85858" stop-opacity="1"/></linearGradient><linearGradient id="linearGradient4382"><stop offset="0" id="stop4384" stop-color="#fff"/><stop offset="1" id="stop4386" stop-color="#fff" stop-opacity="0"/></linearGradient><linearGradient id="linearGradient4259"><stop offset="0" id="stop4261" stop-color="#d9d6d0"/><stop offset=".736" id="stop4267" stop-color="#bdb8ad"/><stop offset="1" id="stop4263" stop-color="#938a79"/></linearGradient><linearGradient id="linearGradient4043"><stop offset="0" id="stop4045" stop-color="#a4967d"/><stop offset="1" id="stop4047" stop-color="#cdc6ba"/></linearGradient><linearGradient id="linearGradient3822"><stop offset="0" id="stop3824" stop-color="#d7d3cd"/><stop offset="1" id="stop3826" stop-color="#f4f3f1"/></linearGradient><linearGradient id="linearGradient3797"><stop offset="0" id="stop3799" stop-color="#e5e2dd"/><stop offset="1" id="stop3801" stop-color="#f2f1ee"/></linearGradient><linearGradient id="linearGradient3838-0"><stop offset="0" id="stop3840-4" stop-color="#d6d4cf"/><stop offset="1" id="stop3842-9" stop-color="#fbfaf9"/></linearGradient><linearGradient x1="192" y1="148" x2="192" gradientUnits="userSpaceOnUse" xlink:href="#linearGradient3797" y2="100" id="linearGradient4182-3"/><clipPath clipPathUnits="userSpaceOnUse" id="clipPath4200"><path id="rect4202" color="#000" fill="#f0f" d="M128 116h104v16H128z"/></clipPath><linearGradient x1="145.94" y1="124" x2="176" gradientUnits="userSpaceOnUse" xlink:href="#linearGradient4259" y2="124" id="linearGradient4265"/><clipPath clipPathUnits="userSpaceOnUse" id="clipPath4277"><path d="M167.47 132c-7.264.184-12.351.786-15.469 2.656-2.11 1.267-3.515 3.045-4.531 6.094-1.017 3.05-1.531 7.357-1.531 13.25s.514 10.201 1.53 13.25c1.017 3.05 2.421 4.827 4.532 6.094 3.166 1.9 8.333 2.485 15.781 2.656h2.22c3.324 0 6-2.676 6-6v-32c0-3.324-2.676-6-6-6h-2.531z" id="path4279" color="#000" opacity=".5" fill="#f0f"/></clipPath><filter id="filter4289"><feGaussianBlur stdDeviation="1.26" id="feGaussianBlur4291"/></filter><linearGradient x1="176" y1="162" x2="160" gradientUnits="userSpaceOnUse" xlink:href="#linearGradient4154" y2="162" id="linearGradient4299-6"/><linearGradient x1="192" y1="148" x2="192" gradientUnits="userSpaceOnUse" xlink:href="#linearGradient3838-0" y2="100" id="linearGradient4314"/><linearGradient x1="176.68" y1="102.4" x2="176.68" gradientUnits="userSpaceOnUse" xlink:href="#linearGradient4382" y2="144.81" id="linearGradient4388"/><linearGradient x1="176.68" y1="102.4" gradientTransform="matrix(-1 0 0 1 360 0)" x2="176.68" gradientUnits="userSpaceOnUse" xlink:href="#linearGradient4382" y2="144.81" id="linearGradient4392-7"/><radialGradient r="2.69" gradientTransform="matrix(1 0 0 7.4015 0 -781.59)" cx="177.85" cy="122.09" gradientUnits="userSpaceOnUse" id="radialGradient4519"><stop offset="0" id="stop4507" stop-color="#fff"/><stop offset="1" id="stop4509" stop-color="#fff" stop-opacity="0"/></radialGradient><filter x="-.08" y="-.12" width="1.16" height="1.24" id="filter4525"><feGaussianBlur stdDeviation="2.4" id="feGaussianBlur4527"/></filter><filter x="-.16" y="-.24" width="1.32" height="1.48" id="filter4533"><feGaussianBlur stdDeviation="4.8" id="feGaussianBlur4535"/></filter><linearGradient x1="192" y1="124.34" x2="192" gradientUnits="userSpaceOnUse" spreadMethod="reflect" y2="99.823" id="linearGradient4989"><stop offset="0" id="stop4985" stop-color="#f18137"/><stop offset=".5" id="stop4991" stop-color="#f18137" stop-opacity=".15"/><stop offset="1" id="stop4987" stop-color="#f1a737" stop-opacity="0"/></linearGradient><filter height="2.793" x="-.051" y="-.897" width="1.101" id="filter5228-9-4" color-interpolation-filters="sRGB"><feGaussianBlur stdDeviation="2.155" id="feGaussianBlur5230-6-6"/></filter><clipPath clipPathUnits="userSpaceOnUse" id="clipPath4022-0"><path d="M96 92c-16 0-24 0-24 8s8 8 24 8h320c16 0 24 0 24-8s-8-8-24-8z" id="path4024-4" color="#000" fill="#f0f"/></clipPath><filter id="filter4030-8"><feGaussianBlur stdDeviation="1.04" id="feGaussianBlur4032-0"/></filter><linearGradient y2="122.95" x2="176.65" y1="75.433" x1="176.65" gradientTransform="matrix(.06078 0 0 .05025 8.854 14.59)" gradientUnits="userSpaceOnUse" id="linearGradient7955" xlink:href="#linearGradient3822"/><linearGradient y2="111.97" x2="176.52" y1="87.922" x1="176.52" gradientTransform="matrix(.06077 0 0 .05006 8.857 14.61)" gradientUnits="userSpaceOnUse" id="linearGradient7957" xlink:href="#linearGradient4043"/><linearGradient y2="111.97" x2="176.52" y1="87.922" x1="176.52" gradientTransform="matrix(.03376 0 0 .05006 10.8 14.61)" gradientUnits="userSpaceOnUse" id="linearGradient7961" xlink:href="#linearGradient2390"/><radialGradient r="2.69" cy="122.09" cx="177.85" gradientTransform="matrix(1 0 0 7.4015 0 -781.59)" gradientUnits="userSpaceOnUse" id="radialGradient8115" xlink:href="#radialGradient4519"/><linearGradient spreadMethod="reflect" y2="99.823" x2="192" y1="124.34" x1="192" gradientUnits="userSpaceOnUse" id="linearGradient8117" xlink:href="#linearGradient4989"/><linearGradient xlink:href="#linearGradient4259" id="linearGradient1823" gradientUnits="userSpaceOnUse" x1="145.94" y1="124" x2="176" y2="124"/><linearGradient xlink:href="#linearGradient4154" id="linearGradient1825" gradientUnits="userSpaceOnUse" x1="176" y1="162" x2="160" y2="162"/><linearGradient xlink:href="#linearGradient3797" id="linearGradient1931" x1="2.58" y1="23.874" x2="45.407" y2="23.874" gradientUnits="userSpaceOnUse"/></defs><style id="style4485" type="text/css"/><rect id="Mask" x="63.147" y="78.204" width="20.231" height="20.096" rx=".581" fill="#f1f1f1" fill-opacity="1" fill-rule="evenodd" stroke="none" stroke-width=".336"/><style type="text/css" id="style4485-8"/><g id="g1958"><path d="M2.75 26.545v1.691c0 9.707 5.66 17.521 17.38 17.521h7.026c15.34 0 18.081-11.479 18.081-17.52v-1.692c0 6.042-2.74 17.52-18.08 17.52H20.13c-11.721 0-17.381-7.814-17.381-17.52z" id="path4516" opacity="1" fill="url(#linearGradient4540)" fill-opacity="1" stroke="none" stroke-width="1.115" stroke-linecap="square" stroke-linejoin="bevel" stroke-miterlimit="4" stroke-dasharray="none" stroke-dashoffset="0" stroke-opacity=".078"/><path d="M19.59 2.742h8.612c14.099 0 17.035 11.403 17.035 17.521v7.222c0 6.042-2.74 17.52-18.08 17.52H20.13c-11.721 0-17.381-7.814-17.381-17.52v-7.222c0-9.706 5.545-17.52 16.84-17.52z" id="path4518" opacity="1" fill="url(#linearGradient1931)" fill-opacity="1" stroke="#000" stroke-width=".339" stroke-linecap="square" stroke-linejoin="bevel" stroke-miterlimit="4" stroke-dasharray="none" stroke-dashoffset="0" stroke-opacity=".078"/><path d="M15.419 18.409h17.99c2.189 0 2.675 0 2.675 1.206s-.486 1.206-2.674 1.206H15.419c-2.188 0-2.675 0-2.675-1.206s.487-1.206 2.675-1.206z" id="path7923" color="#000" fill="url(#linearGradient7955)" stroke-width=".068"/><path d="M12.744 19.577v.038c0 1.206.487 1.206 2.675 1.206h17.99c2.189 0 2.675 0 2.675-1.206v-.038c-.01 1.168-.51 1.169-2.674 1.169H15.419c-2.165 0-2.664 0-2.675-1.169z" id="path7925" color="#000" opacity=".6" fill="#fff" stroke-width=".068"/><path d="M15.419 18.409c-2.188 0-2.675 0-2.675 1.206v.038c.01-1.168.51-1.169 2.675-1.169h17.99c2.166 0 2.665 0 2.675 1.169v-.038c0-1.206-.486-1.206-2.674-1.206z" id="path7927" color="#000" opacity=".05" stroke-width=".068"/><path d="M14.69 19.012c-.973 0-1.46 0-1.46.603s.487.603 1.46.603h19.45c.972 0 1.458 0 1.458-.603s-.486-.603-1.459-.603z" id="path7929" color="#000" opacity=".6" fill="url(#linearGradient7957)" stroke-width=".068"/><path transform="matrix(.06078 0 0 .07538 8.854 12.077)" clip-path="url(#clipPath4022-0)" d="M108 84c-36 0-44 0-44 16s8 16 44 16h296c36 0 44 0 44-16s-8-16-44-16zm-17.625 9c1.75-.016 3.625 0 5.625 0h320c16 0 24-.5 24 7.5s-8 7.5-24 7.5H96c-16 0-24 .5-24-7.5 0-7 6.125-7.39 18.375-7.5z" id="path7947" color="#000" opacity=".4" filter="url(#filter4030-8)"/><path d="M13.851 19.012c-.414.008-.62.075-.62.603 0 .603.27.603.81.603h4.882v-1.206H13.85z" id="path7949" color="#000" fill="url(#linearGradient7961)" stroke-width=".05"/><path transform="matrix(.05217 0 0 .07538 9.527 10.308)" d="M180.09 123.42a50.987 2.884 0 1 1-101.97 0 50.987 2.884 0 1 1 101.97 0z" id="path7951" color="#000" opacity=".3" fill="red" filter="url(#filter5228-9-4)"/><g transform="matrix(.15248 0 0 .15941 -3.11 -.188)" id="use7953" color="#000"><path d="M176 101h8c24 0 32 0 32 24s-8 24-32 24h-8c-24 0-32 0-32-24s8-24 32-24z" id="path8067" opacity=".4" filter="url(#filter4525)"/><path clip-path="url(#clipPath4200)" d="M176 100h8c24 0 32 0 32 24s-8 24-32 24h-8c-24 0-32 0-32-24s8-24 32-24z" id="path8069" opacity=".5" stroke="#000" stroke-width="4" filter="url(#filter4533)"/><path d="M176 100h8c24 0 32 0 32 24s-8 24-32 24h-8c-24 0-32 0-32-24s8-24 32-24z" id="path8073" fill="url(#linearGradient4182-3)"/><g id="g8079" opacity=".5"><path d="M167.47 102c-7.27.18-12.35.79-15.47 2.66-2.11 1.26-3.51 3.04-4.53 6.09-1.02 3.05-1.53 7.36-1.53 13.25s.51 10.2 1.53 13.25c1.02 3.05 2.42 4.83 4.53 6.09 3.17 1.9 8.33 2.49 15.78 2.66H170c3.32 0 6-2.68 6-6v-32c0-3.32-2.68-6-6-6z" id="path8075" opacity=".5" fill="url(#linearGradient1823)"/><path transform="translate(0 -30)" clip-path="url(#clipPath4277)" d="M164.65 132c-9.665.184-16.434.786-20.582 2.656-2.808 1.267-4.677 3.045-6.03 6.094-1.36 3.05-2.04 7.36-2.04 13.25 0 5.893.686 10.201 2.038 13.25 1.353 3.05 3.221 4.827 6.03 6.094 4.212 1.9 11.087 2.485 20.997 2.656h2.953c4.43 0 7.99-2.68 7.99-6v-32c0-3.324-3.561-6-7.984-6h-3.368z" id="path8077" opacity=".2" fill="none" stroke="url(#linearGradient1825)" filter="url(#filter4289)"/></g><path d="M176 100c-24 0-32 0-32 24s8 24 32 24h8c24 0 32 0 32-24s-8-24-32-24zm-4.31.97c1.37-.01 2.81 0 4.31 0h8c12 0 19.89.11 24.5 2.87 2.3 1.39 3.87 3.39 4.94 6.6 1.07 3.21 1.59 7.61 1.59 13.56s-.52 10.35-1.59 13.56c-1.07 3.21-2.64 5.21-4.94 6.6-4.61 2.76-12.5 2.87-24.5 2.87h-8c-12 0-19.89-.11-24.5-2.87-2.3-1.39-3.87-3.39-4.94-6.6-1.07-3.21-1.59-7.61-1.59-13.56s.52-10.35 1.59-13.56c1.07-3.21 2.64-5.21 4.94-6.6 4.03-2.41 10.57-2.81 20.19-2.87z" id="path8081" fill="url(#linearGradient4314)"/><g transform="matrix(-1 0 0 1 359.94 0)" id="g8087" opacity=".8"><path d="M167.47 102c-7.264.184-12.351.786-15.469 2.656-2.11 1.266-3.515 3.044-4.531 6.094-1.017 3.05-1.531 7.357-1.531 13.25s.514 10.201 1.53 13.25c1.017 3.05 2.421 4.827 4.532 6.094 3.166 1.9 8.333 2.485 15.781 2.656h2.22c3.324 0 6-2.676 6-6v-32c0-3.324-2.676-6-6-6h-2.531z" id="path8083" opacity=".5" fill="url(#linearGradient4265)"/><path transform="translate(0 -30)" clip-path="url(#clipPath4277)" d="M164.65 132c-9.665.184-16.434.786-20.582 2.656-2.808 1.267-4.677 3.045-6.03 6.094-1.36 3.05-2.04 7.36-2.04 13.25 0 5.893.686 10.201 2.038 13.25 1.353 3.05 3.221 4.827 6.03 6.094 4.212 1.9 11.087 2.485 20.997 2.656h2.953c4.43 0 7.99-2.68 7.99-6v-32c0-3.324-3.561-6-7.984-6h-3.368z" id="path8085" opacity=".2" fill="none" stroke="url(#linearGradient4299-6)" filter="url(#filter4289)"/></g><path d="M170 102c3.32 0 6 2.68 6 6v32c0 3.32-2.68 6-6 6h1c3.32 0 6-2.68 6-6v-32c0-3.32-2.68-6-6-6z" id="path8089" opacity=".8" fill="url(#linearGradient4388)"/><path d="M190 102c-3.324 0-6 2.676-6 6v32c0 3.324 2.676 6 6 6h-1c-3.324 0-6-2.676-6-6v-32c0-3.324 2.676-6 6-6z" id="path8091" opacity=".8" fill="url(#linearGradient4392-7)"/><path transform="matrix(0 .69363 -1 0 298.28 -22.358)" d="M180.05 122.09a2.19 19.413 0 1 1-4.38 0 2.19 19.413 0 1 1 4.38 0z" id="path8093" fill="url(#radialGradient8115)"/><path d="M167.75 100.06C150.14 100.39 144 103 144 124c0 21.73 6.7 23.74 25.75 23.94C152.14 147.61 146 145 146 124s6.14-23.61 23.75-23.94c-.64.01-1.39-.01-2 0z" id="path8095" opacity=".3" fill="url(#linearGradient8117)"/></g><path style="line-height:normal;-inkscape-font-specification:Sans;text-indent:0;text-align:start;text-decoration-line:none;text-transform:none;marker:none" d="M9.038 26.423v6.209h1.268v-6.209h-1.1zm3.733 0v5.232h1.268v-5.232h-1.1zm3.734 0v4.257h1.268v-4.257h-1.1zm3.733 0v3.28h1.268v-3.28h-1.1zm3.734 0v6.209h1.27v-6.209H24.14zm3.733 0v3.28h1.271v-3.28h-1.103zm3.734 0v4.257h1.27v-4.257h-1.102zm2.801 0v5.232h1.268v-5.232h-1.1zm3.734 0v6.209h1.268v-6.209h-1.1z" id="path6077" color="#000" font-style="normal" font-variant="normal" font-weight="400" font-stretch="normal" font-size="medium" font-family="Sans" text-decoration="none" letter-spacing="normal" word-spacing="normal" writing-mode="lr-tb" direction="ltr" baseline-shift="baseline" text-anchor="start" display="inline" overflow="visible" visibility="visible" fill="#444" fill-opacity="1" fill-rule="nonzero" stroke="none" stroke-width=".344" enable-background="accumulate"/></g></svg>