<svg xmlns="http://www.w3.org/2000/svg" xmlns:xlink="http://www.w3.org/1999/xlink" width="48" height="48" version="1.1" id="svg38"><defs id="defs22"><linearGradient id="linearGradient4488"><stop id="stop4490" offset="0" stop-color="#000" stop-opacity=".047"/><stop id="stop4492" offset="1" stop-color="#000" stop-opacity="0"/></linearGradient><style id="style4511"/><style id="style4511-26"/><style id="style4511-9"/><style id="style4552"/><style id="style4511-2"/><linearGradient xlink:href="#linearGradient4488" id="linearGradient4546" gradientUnits="userSpaceOnUse" gradientTransform="translate(-62.497 1.994) scale(.3038)" x1="288.112" y1="141.785" x2="287.575" y2="79.008"/></defs><style id="style4485" type="text/css"/><path d="M3.141 26.22v1.67c0 9.573 5.583 17.281 17.146 17.281h6.93c15.133 0 17.837-11.322 17.837-17.282v-1.668c0 5.96-2.704 17.282-17.837 17.282h-6.93c-11.563 0-17.146-7.708-17.146-17.282z" id="path4528" opacity="1" fill="url(#linearGradient4546)" fill-opacity="1" stroke="none" stroke-width="1.1" stroke-linecap="square" stroke-linejoin="bevel" stroke-miterlimit="4" stroke-dasharray="none" stroke-dashoffset="0" stroke-opacity=".078"/><path d="M19.754 2.742h8.495c13.908 0 16.805 11.247 16.805 17.282v7.124c0 5.96-2.704 17.282-17.837 17.282h-6.93c-11.562 0-17.146-7.708-17.146-17.282v-7.124c0-9.574 5.47-17.282 16.613-17.282z" id="path4530" opacity="1" fill="#34d22c" fill-opacity="1" stroke="#000" stroke-width=".334" stroke-linecap="square" stroke-linejoin="bevel" stroke-miterlimit="4" stroke-dasharray="none" stroke-dashoffset="0" stroke-opacity=".078"/><path id="path12038-8" d="M24.08 12.427l-6.978 5.59V29.16l6.977 5.59h1.416V12.42h-1.399zm.016 1.723v18.823l-5.595-4.483v-9.861zm8.434.221l-1.078.883a15.386 15.386 0 0 1 2.437 8.307 15.384 15.384 0 0 1-2.448 8.297l1.095.9a16.782 16.782 0 0 0 2.751-9.196 16.789 16.789 0 0 0-2.757-9.19m-3.273 2.68l-1.092.894a11.202 11.202 0 0 1 1.527 5.623 11.198 11.198 0 0 1-1.524 5.623l1.092.897a12.612 12.612 0 0 0 1.831-6.516 12.577 12.577 0 0 0-1.834-6.51m-16.35 2.365v8.392h2.798v-8.392z" fill="#fff" fill-opacity="1" stroke-width="2.8" stroke-opacity=".55"/></svg>