<svg xmlns="http://www.w3.org/2000/svg" xmlns:xlink="http://www.w3.org/1999/xlink" width="48" height="48" version="1.1" id="svg38"><defs id="defs22"><linearGradient id="linearGradient4488"><stop id="stop4490" offset="0" stop-color="#000" stop-opacity=".047"/><stop id="stop4492" offset="1" stop-color="#000" stop-opacity="0"/></linearGradient><style id="style4511"/><style id="style4511-26"/><style id="style4511-9"/><style id="style4552"/><style id="style4511-2"/><linearGradient xlink:href="#linearGradient4488" id="linearGradient4481" gradientUnits="userSpaceOnUse" gradientTransform="translate(-62.917 2.295) scale(.3038)" x1="288.112" y1="141.785" x2="287.575" y2="79.008"/><style id="style4552-1"/><style id="style4552-3"/><style id="style4511-20"/><style id="style4552-2"/><style id="style4511-2-6"/><linearGradient x2="384.57" gradientUnits="userSpaceOnUse" x1="434.57" y2="503.8" y1="543.8" id="a-3675356"><stop id="stop4606" stop-color="#343b40"/><stop id="stop4608" stop-color="#555e63" offset="1"/></linearGradient><linearGradient gradientTransform="translate(384.57 499.8)" x2="0" gradientUnits="userSpaceOnUse" y2="4" y1="44" id="b-291"><stop id="stop4611" stop-color="#bd8d48"/><stop id="stop4613" stop-color="#e8b971" offset="1"/></linearGradient><linearGradient xlink:href="#a-3675356" id="linearGradient4702" x1="-29.04" y1="20.419" x2="-64.893" y2="21.475" gradientUnits="userSpaceOnUse" gradientTransform="translate(71.776 .302)"/><linearGradient xlink:href="#b-291" id="linearGradient4755" x1="-37.127" y1="41.179" x2="-58.641" y2="6.953" gradientUnits="userSpaceOnUse" gradientTransform="translate(71.776 .302)"/></defs><style id="style4485" type="text/css"/><path d="M2.722 26.522v1.669c0 9.574 5.583 17.282 17.146 17.282h6.93c15.132 0 17.836-11.323 17.836-17.282v-1.669c0 5.96-2.704 17.282-17.836 17.282h-6.93c-11.563 0-17.146-7.708-17.146-17.282z" id="path4467" opacity="1" fill="url(#linearGradient4481)" fill-opacity="1" stroke="none" stroke-width="1.1" stroke-linecap="square" stroke-linejoin="bevel" stroke-miterlimit="4" stroke-dasharray="none" stroke-dashoffset="0" stroke-opacity=".078"/><path d="M19.335 3.044h8.495c13.908 0 16.804 11.247 16.804 17.282v7.123c0 5.96-2.704 17.282-17.836 17.282h-6.93c-11.563 0-17.146-7.708-17.146-17.282v-7.123c0-9.574 5.47-17.282 16.613-17.282z" id="path4469" opacity="1" fill="url(#linearGradient4755)" fill-opacity="1" stroke="#000" stroke-width=".334" stroke-linecap="square" stroke-linejoin="bevel" stroke-miterlimit="4" stroke-dasharray="none" stroke-dashoffset="0" stroke-opacity=".078"/><path id="path4471" d="M19.784 5.197H27.4c12.471 0 15.069 10.085 15.069 15.497v6.387c0 5.344-2.425 15.497-15.994 15.497H20.26c-10.368 0-15.374-6.911-15.374-15.497v-6.387c0-8.585 4.905-15.497 14.897-15.497z" opacity="1" fill="url(#linearGradient4702)" fill-opacity="1" stroke="#000" stroke-width=".3" stroke-linecap="square" stroke-linejoin="bevel" stroke-miterlimit="4" stroke-dasharray="none" stroke-dashoffset="0" stroke-opacity=".078"/><style type="text/css" id="style4485-31"/><style id="style4485-35" type="text/css"/><style id="style4485-3" type="text/css"/><path id="path4638-6" d="M4.923 24.232c12.354 0 14.694 14.218 20.144 14.262 5.45.04 5.038-14.262 17.387-14.262" fill="none" stroke="#787e82" stroke-width=".934"/><path id="path4640-2" d="M4.942 23.301c12.354 0 14.675-9.756 20.125-9.796 5.45-.04 5.019 9.796 17.368 9.796" fill="none" stroke="#5090c3" stroke-width=".934"/><path id="path4644-1" d="M4.942 23.301c12.354 0 14.675-14.218 20.125-14.262 5.45-.04 5.019 14.262 17.368 14.262" fill="none" stroke="#d6d6d6" stroke-width=".934"/><rect id="rect4654-8" height=".943" y="23.766" x="4.93" width="37.448" rx="0" ry="0" color="#000" color-interpolation="sRGB" color-interpolation-filters="linearRGB" fill="#d6d6d6" color-rendering="auto" image-rendering="auto" shape-rendering="auto" text-rendering="auto"/><path id="rect4656-7" color="#000" color-interpolation="sRGB" color-interpolation-filters="linearRGB" fill="#d6d6d6" color-rendering="auto" image-rendering="auto" shape-rendering="auto" text-rendering="auto" d="M11.288 22.817h.95v2.849h-.95z"/><path id="rect4658-9" color="#000" color-interpolation="sRGB" color-interpolation-filters="linearRGB" fill="#d6d6d6" color-rendering="auto" image-rendering="auto" shape-rendering="auto" text-rendering="auto" d="M24.582 22.817h.95v2.849h-.95z"/></svg>