<svg xmlns="http://www.w3.org/2000/svg" xmlns:xlink="http://www.w3.org/1999/xlink" width="48" height="48" version="1.1" id="svg38"><defs id="defs22"><linearGradient id="linearGradient4488"><stop id="stop4490" offset="0" stop-color="#000" stop-opacity=".047"/><stop id="stop4492" offset="1" stop-color="#000" stop-opacity="0"/></linearGradient><style id="style4511"/><style id="style4511-26"/><style id="style4511-9"/><style id="style4552"/><style id="style4511-2"/><linearGradient xlink:href="#linearGradient4488" id="linearGradient4548" gradientUnits="userSpaceOnUse" gradientTransform="translate(-62.55 1.994) scale(.3038)" x1="288.112" y1="141.785" x2="287.575" y2="79.008"/></defs><style id="style4485" type="text/css"/><path id="path4532" d="M3.088 26.22v1.67c0 9.573 5.583 17.281 17.146 17.281h6.93c15.133 0 17.837-11.322 17.837-17.282v-1.668c0 5.96-2.704 17.282-17.837 17.282h-6.93c-11.563 0-17.146-7.708-17.146-17.282z" opacity="1" fill="url(#linearGradient4548)" fill-opacity="1" stroke="none" stroke-width="1.1" stroke-linecap="square" stroke-linejoin="bevel" stroke-miterlimit="4" stroke-dasharray="none" stroke-dashoffset="0" stroke-opacity=".078"/><path id="path4534" d="M19.701 2.742h8.495c13.908 0 16.805 11.247 16.805 17.282v7.124c0 5.96-2.704 17.282-17.837 17.282h-6.93c-11.562 0-17.146-7.708-17.146-17.282v-7.124c0-9.574 5.47-17.282 16.613-17.282z" opacity="1" fill="#3163d1" fill-opacity="1" stroke="#000" stroke-width=".334" stroke-linecap="square" stroke-linejoin="bevel" stroke-miterlimit="4" stroke-dasharray="none" stroke-dashoffset="0" stroke-opacity=".078"/><path d="M17.056 12.645c-3.677-.02-4.111 0-4.588.224-.619.29-1.02.72-1.28 1.37l-.12.296-.014 9.65-.016 9.649h1.248l.006-6.461c.003-3.554.019-7.852.036-9.55.03-3.039.033-3.094.138-3.288.134-.249.287-.39.54-.504.182-.082.444-.09 3.46-.103 1.963-.01 3.406.004 3.618.033.59.082.925.281 1.53.913 1.454 1.519 1.578 1.63 2.14 1.908l.523.26.69.041c.38.023 3.243.043 6.36.044l5.67.004V15.91l-2.465-.031a574.561 574.561 0 0 0-6.136-.034h-3.672l-.376-.18c-.327-.155-.451-.257-.923-.75-1.399-1.465-1.616-1.66-2.061-1.878-.793-.387-.622-.371-4.308-.392zm11.07 6.485a1.264 1.259 0 0 0-1.264 1.259 1.264 1.259 0 0 0 1.263 1.258 1.264 1.259 0 0 0 1.264-1.258 1.264 1.259 0 0 0-1.264-1.259zm-2.212 1.888a.316.315 0 0 0-.315.315.316.315 0 0 0 .315.314.316.315 0 0 0 .316-.314.316.315 0 0 0-.316-.315zm9.892.066l-.006.557-.04 4.855-.035 4.3-.132.395c-.175.524-.447.97-.77 1.265-.319.29-.967.617-1.374.69-.263.049-3.82.079-16.463.14l-1.029.005v1.242l8.721-.018 8.721-.016.383-.108c.919-.256 1.39-.52 2.003-1.124.479-.472.737-.868.951-1.454.288-.79.277-.556.297-5.848l.018-4.881h-1.245zm-11.82 1.194a.316.315 0 0 0-.284.313.316.315 0 0 0 .317.316.316.315 0 0 0 .314-.316.316.315 0 0 0-.314-.313.316.315 0 0 0-.033 0zm-1.864 1.258a.316.315 0 0 0-.315.314.316.315 0 0 0 .315.315.316.315 0 0 0 .316-.315.316.315 0 0 0-.316-.314zm-2.844.63a1.264 1.259 0 0 0-1.263 1.257 1.264 1.259 0 0 0 1.263 1.259 1.264 1.259 0 0 0 1.265-1.259 1.264 1.259 0 0 0-1.265-1.258zm2.844 2.516a.316.315 0 0 0-.315.315.316.315 0 0 0 .315.316.316.315 0 0 0 .316-.316.316.315 0 0 0-.316-.315zm1.897 1.26a.316.315 0 0 0-.317.314.316.315 0 0 0 .317.315.316.315 0 0 0 .314-.315.316.315 0 0 0-.314-.314zm1.895 1.258a.316.315 0 0 0-.315.316.316.315 0 0 0 .315.313.316.315 0 0 0 .316-.313.316.315 0 0 0-.316-.316zm2.211 0a1.264 1.259 0 0 0-1.263 1.258 1.264 1.259 0 0 0 1.263 1.26 1.264 1.259 0 0 0 1.264-1.26 1.264 1.259 0 0 0-1.264-1.258z" id="path4887-1" color="#000" fill="#fff" fill-rule="evenodd" stroke-width=".1"/></svg>