<svg xmlns="http://www.w3.org/2000/svg" xmlns:xlink="http://www.w3.org/1999/xlink" width="48" height="48" version="1.1" id="svg38"><defs id="defs22"><linearGradient id="linearGradient4488"><stop id="stop4490" offset="0" stop-color="#000" stop-opacity=".047"/><stop id="stop4492" offset="1" stop-color="#000" stop-opacity="0"/></linearGradient><style id="style4511"/><style id="style4511-26"/><style id="style4511-9"/><style id="style4552"/><style id="style4511-2"/><linearGradient xlink:href="#linearGradient4488" id="linearGradient4546" gradientUnits="userSpaceOnUse" gradientTransform="matrix(.3038 0 0 .30895 -62.497 1.981)" x1="288.112" y1="141.785" x2="287.575" y2="79.008"/></defs><style id="style4485" type="text/css"/><g id="g1167"><g transform="matrix(1.01707 0 0 1.01662 -.483 -.045)" id="g1161" fill-opacity="1"><path d="M3.141 26.618v1.697c0 9.737 5.583 17.575 17.146 17.575h6.93c15.133 0 17.837-11.514 17.837-17.575v-1.697c0 6.061-2.704 17.576-17.837 17.576h-6.93c-11.563 0-17.146-7.839-17.146-17.576z" id="path4528" opacity="1" fill="url(#linearGradient4546)" stroke="none" stroke-width="1.109" stroke-linecap="square" stroke-linejoin="bevel" stroke-miterlimit="4" stroke-dasharray="none" stroke-dashoffset="0" stroke-opacity=".078"/><path d="M19.754 2.742h8.495c13.908 0 16.805 11.438 16.805 17.575v7.244c0 6.06-2.704 17.575-17.837 17.575h-6.93c-11.562 0-17.146-7.838-17.146-17.575v-7.244c0-9.736 5.47-17.575 16.613-17.575z" id="path4530" opacity="1" fill="#3b3b3b" stroke="#000" stroke-width=".337" stroke-linecap="square" stroke-linejoin="bevel" stroke-miterlimit="4" stroke-dasharray="none" stroke-dashoffset="0" stroke-opacity=".078"/><path d="M24.098 8.127l-6.091 6.081v12.164l12.181-12.164zm9.745 9.73l-6.091 6.082 6.09 6.082 6.091-6.082zm-20.709 1.217l-4.872 4.865 4.872 4.866zm10.964 8.514l-6.091 6.082 6.09 6.082 6.091-6.082z" id="path3042" fill="#40c8d3" stroke="none" stroke-width="1.217"/></g></g></svg>