<svg xmlns="http://www.w3.org/2000/svg" width="48" height="48" version="1.1" id="svg38"><defs id="defs22"><style id="style4511"/><style id="style4511-26"/><style id="style4511-9"/><style id="style4552"/><style id="style4511-2"/><linearGradient x1="-87" y1="616" gradientTransform="matrix(.71746 0 0 .71428 88.917 568.36)" x2="-87" gradientUnits="userSpaceOnUse" y2="672" id="linearGradient6191-2"><stop offset="0" stop-color="#d4ba94" id="stop6187"/><stop offset="1" stop-color="#997657" id="stop6189"/></linearGradient><linearGradient x1="410" y1="1080.4" gradientTransform="matrix(.71428 0 0 .71746 720.36 -803.98)" x2="421" gradientUnits="userSpaceOnUse" y2="1080.4" id="linearGradient6598-4"><stop offset="0" stop-color="#e4720c" id="stop6594"/><stop offset="1" stop-color="#f1d23b" id="stop6596"/></linearGradient><linearGradient x1="415" y1="1068.4" gradientTransform="matrix(.71746 0 0 .71428 -269.81 245.25)" x2="415" gradientUnits="userSpaceOnUse" y2="1079.4" id="linearGradient6590-0"><stop offset="0" stop-color="#884d2c" id="stop6586"/><stop offset="1" stop-color="#ffa92d" id="stop6588"/></linearGradient><linearGradient x1="424" y1="1074.4" gradientTransform="matrix(.71746 0 0 .71428 -269.33 245.54)" x2="424" gradientUnits="userSpaceOnUse" y2="1086.4" id="linearGradient6478-2"><stop offset="0" stop-color="#884d2c" id="stop6474"/><stop offset="1" stop-color="#b7bf31" id="stop6476"/></linearGradient><linearGradient x1="409" y1="629" gradientTransform="matrix(.71746 0 0 .71428 -269.85 568.94)" x2="409" gradientUnits="userSpaceOnUse" y2="642" id="linearGradient6631-4"><stop offset="0" stop-color="#ffa92d" id="stop6627"/><stop offset="1" stop-color="#ffe5e1" id="stop6629"/></linearGradient><linearGradient x1="424" y1="1092.4" gradientTransform="matrix(.71746 0 0 .71428 -269.33 246.11)" x2="424" gradientUnits="userSpaceOnUse" y2="1101.4" id="linearGradient6657-7"><stop offset="0" stop-color="#7ceca4" id="stop6653"/><stop offset="1" stop-color="#e1f2ff" id="stop6655"/></linearGradient><linearGradient x1="433.3" y1="632" gradientTransform="matrix(.71746 0 0 .71428 -269.07 568.94)" x2="433.3" gradientUnits="userSpaceOnUse" y2="643.95" id="linearGradient6674-8"><stop offset="0" stop-color="#377d50" id="stop6670"/><stop offset="1" stop-color="#3b85b5" id="stop6672"/></linearGradient><linearGradient x1="425" y1="632" gradientTransform="matrix(.71746 0 0 .71428 -269.33 568.94)" x2="425" gradientUnits="userSpaceOnUse" y2="640" id="linearGradient6648-0"><stop offset="0" stop-color="#b7bf31" id="stop6644"/><stop offset="1" stop-color="#54d883" id="stop6646"/></linearGradient><linearGradient x1="432" y1="647" gradientTransform="matrix(.71746 0 0 .71428 -269.07 569.51)" x2="432" gradientUnits="userSpaceOnUse" y2="662" id="linearGradient6606-3"><stop offset="0" stop-color="#375a7d" id="stop6602"/><stop offset="1" stop-color="#7cbcec" id="stop6604"/></linearGradient><linearGradient x1="401" y1="1075.4" gradientTransform="matrix(.71746 0 0 .71428 -269.81 245.25)" x2="401" gradientUnits="userSpaceOnUse" y2="1086.4" id="linearGradient6614-4"><stop offset="0" stop-color="#ac0808" id="stop6610"/><stop offset="1" stop-color="#e4720c" id="stop6612"/></linearGradient><linearGradient x1="407" y1="636" gradientTransform="matrix(.71746 0 0 .71428 -269.81 568.36)" x2="407" gradientUnits="userSpaceOnUse" y2="622" id="linearGradient6666-8"><stop offset="0" stop-color="#ffa92d" id="stop6662"/><stop offset="1" stop-color="#e05e4c" id="stop6664"/></linearGradient><linearGradient x1="393" y1="623" gradientTransform="matrix(.71746 0 0 .71428 -269.81 568.36)" x2="393" gradientUnits="userSpaceOnUse" y2="632" id="linearGradient6640-8"><stop offset="0" stop-color="#913bb5" id="stop6636"/><stop offset="1" stop-color="#bf4231" id="stop6638"/></linearGradient></defs><style id="style4485" type="text/css"/><path d="M19.677 3.253h8.618c14.108 0 17.047 11.413 17.047 17.537v7.229c0 6.047-2.744 17.537-18.094 17.537h-7.03c-11.73 0-17.394-7.822-17.394-17.537V20.79c0-9.715 5.549-17.537 16.853-17.537z" id="rect4144" opacity="1" fill="#e6e6e6" fill-opacity="1" stroke="#000" stroke-width=".339" stroke-linecap="square" stroke-linejoin="bevel" stroke-miterlimit="4" stroke-dasharray="none" stroke-dashoffset="0" stroke-opacity=".078"/><g transform="matrix(.86807 0 0 .84237 2.815 -841.892)" id="layer1"><g id="g1271" color="#000" color-rendering="auto" image-rendering="auto" shape-rendering="auto"><path d="M22.911 1008.4a20.143 20.143 0 0 0-15.131 6.867c-7.828 7.792 12.979 12.886 8.26 17.585-1.738 1.73-2.452 3.943-2.456 6.262.002.111.007.222.013.334-.005.126-.013.252-.013.38l.034.021c.385 4.827 4.43 8.549 9.293 8.55.264 0 .529-.014.792-.038 10.769-.423 19.284-9.231 19.297-19.961 0-11.046-8.994-20-20.09-20zm0 26.428a4.305 4.286 0 0 1 4.305 4.286 4.305 4.286 0 0 1-4.305 4.285 4.305 4.286 0 0 1-4.305-4.285 4.305 4.286 0 0 1 4.305-4.286z" style="isolation:auto;mix-blend-mode:normal;solid-color:#000" id="path5535-7" fill="url(#linearGradient6191-2)"/><path d="M14 1010.5a20.065 20.065 0 0 0-5.412 3.906l6.252.84z" style="isolation:auto;mix-blend-mode:normal;solid-color:#000" id="rect5559-76-6" fill="#432b4d"/><path d="M20 1008.6c-2.097.308-4.12.944-6 1.873v3.906l6.972 1.238z" style="isolation:auto;mix-blend-mode:normal;solid-color:#000" id="rect5559-7-5-7" fill="#4d2f2b"/><path d="M22.912 1008.4c-.981.001-1.954.08-2.912.22v5.78l7.237 1.06-1.237-6.824a20.317 20.317 0 0 0-3.088-.236z" style="isolation:auto;mix-blend-mode:normal;solid-color:#000" id="rect5559-7-5-3-5" fill="#813c33"/><path d="M26 1008.6v5.764l7.37 1.237-1.37-5.056a19.974 19.974 0 0 0-6-1.945z" style="isolation:auto;mix-blend-mode:normal;solid-color:#000" id="rect5559-7-5-3-2-8" fill="url(#linearGradient6590-0)"/><path d="M32 1010.5v3.818l3.463 1.194 1.783-1.194A20.118 20.118 0 0 0 32 1010.5z" style="isolation:auto;mix-blend-mode:normal;solid-color:#000" id="rect5559-7-5-3-2-7-8" fill="#7c8133"/><path d="M6.03 1018.5c-.471 5.112 9.931 8.985 10.667 12.492.701-3.534-10.147-7.388-10.667-12.492z" style="isolation:auto;mix-blend-mode:normal;solid-color:#000" id="path7871" fill="#6c5548"/><path d="M8.563 1014.4c-.268.273-.53.552-.784.842-3.002 2.99-1.781 5.579.586 7.904-1.03-1.18.24-1.157.914-.486.718.714.718 1.429 1.436.715.717-.715-2.152-2.142-2.152-3.57z" style="isolation:auto;mix-blend-mode:normal;solid-color:#000" id="rect5559-8-1" fill="#2b3c4d"/><path d="M8.562 1014.4v.429c0 .714-1.435 1.429-1.435 2.143 0 .714 1.435 1.428 1.435 2.857l.105-.733c.688-1.93 4.303 1.759 5.333.733l.619-1.389.381-4.04z" style="isolation:auto;mix-blend-mode:normal;solid-color:#000" id="rect5559-2" fill="url(#linearGradient6640-8)"/></g><path d="M19.283 1020.4c.717-.714-.676-2.714-1.394-2-.717.715 0 2.143-1.434 2.143-1.435 0-.622-1.786 0-2.143.612-.352.528-1.251.021-1.508-.507-.257-1.437.13-1.437 1.338 0 1.032-1.039 1.599-1.039 1.599v-5.429h6l1.15 7.37z" id="path6449-5" fill="url(#linearGradient6614-4)" fill-rule="evenodd"/><g id="g1289" color="#000" color-rendering="auto" image-rendering="auto" shape-rendering="auto"><path d="M19.283 1020.4s-2.152 1.25-2.152 5.714H20v-2.857c0-2.143 2.152-2.857 2.152-2.857h-2.87z" style="isolation:auto;mix-blend-mode:normal;solid-color:#000" id="rect5559-7-1-2" fill="#ffafa5"/><path d="M20 1020.4v2.857c0 .714-1.435.714-2.152 1.429-.36.357-.718.714-.718 1.428 0 .631.718 1.429 1.435 1.429 1.435 0 1.435-1.143 3.435-1.143h4v-6z" style="isolation:auto;mix-blend-mode:normal;solid-color:#000" id="rect5559-5-2-8" fill="url(#linearGradient6631-4)"/><path d="M36.608 1030.5l1.392 3.325v.696c0 2.143-2.152 5.715-2.869 6.43-.661.658 1.113 1.918 1.957 1.552.255-.253.5-.516.74-.783.536-.735 1.072-1.666 1.608-2.2.087-.086.207-.169.312-.255a19.856 19.856 0 0 0 2.842-6.887z" style="isolation:auto;mix-blend-mode:normal;solid-color:#000" id="rect5559-7-6-9-0-9-7-6-5" fill="url(#linearGradient6606-3)"/><path d="M38 1026.4l-1.282 2.867L38 1032.4h4.59a19.969 19.969 0 0 0 .31-6z" style="isolation:auto;mix-blend-mode:normal;solid-color:#000" id="rect5559-7-6-9-3-6-5-2" fill="#2b3c4d"/><path d="M38 1020.4l-2.033 5.646 2.033 2.497c0 1.428.928 1.22 1.436.714.717-.714 1.434-2.857 2.869-2.857h.595a19.786 19.786 0 0 0-1.582-6z" style="isolation:auto;mix-blend-mode:normal;solid-color:#000" id="rect5559-7-6-9-3-6-1" fill="url(#linearGradient6674-8)"/><path d="M42.99 1028c-.202 10.565-8.64 19.182-19.287 19.6a8.722 8.722 0 0 1-.792.039c-4.863 0-8.908-3.724-9.293-8.55l-.034-.022c.003.112.007.223.013.334-.004.126-.013.252-.013.38l.034.022c.385 4.826 4.43 8.548 9.293 8.55.265 0 .529-.015.792-.039 10.769-.423 19.284-9.23 19.297-19.96 0-.12-.008-.236-.01-.354z" style="isolation:auto;mix-blend-mode:normal;solid-color:#000" id="path7869" fill="#6c5548"/><path d="M22.911 1034.1a4.305 4.286 0 0 0-4.305 4.286 4.305 4.286 0 0 0 .019.355 4.305 4.286 0 0 1 4.286-3.927 4.305 4.286 0 0 1 4.287 3.93 4.305 4.286 0 0 0 .018-.358 4.305 4.286 0 0 0-4.305-4.286z" style="isolation:auto;mix-blend-mode:normal;solid-color:#000" id="path5535-1-1" fill="#6c5548"/><ellipse cx="40.004" cy="1034.4" ry="1" rx="1.004" style="isolation:auto;mix-blend-mode:normal;solid-color:#000" id="path6455-4" fill="#7cbcec"/><path d="M20 1014.4v6h3.587c1.435 0 1.435.714 1.435 1.429 0 .714-.717 1.857-.717 2.571 0 .714.978 2 1.695 2l1.635-6-1.635-6z" style="isolation:auto;mix-blend-mode:normal;solid-color:#000" id="rect5559-5-6" fill="url(#linearGradient6666-8)"/><path transform="rotate(90)" d="M1014.4-32l7.547-1.503L1020.4-26h-6z" style="isolation:auto;mix-blend-mode:normal;solid-color:#000" id="rect5559-7-6-4" fill="url(#linearGradient6598-4)"/><path d="M32 1014.4v6l6.84.84-.84-6.014c-.247-.28-.492-.56-.754-.826z" style="isolation:auto;mix-blend-mode:normal;solid-color:#000" id="rect5559-7-6-9-1" fill="url(#linearGradient6478-2)"/><path d="M38 1015.2v5.174h3.318A19.983 19.983 0 0 0 38 1015.2z" style="isolation:auto;mix-blend-mode:normal;solid-color:#000" id="rect5559-7-6-9-3-0" fill="#2b4d37"/><path d="M26 1020.4h6l1.016 6.972L26 1026.4z" style="isolation:auto;mix-blend-mode:normal;solid-color:#000" id="rect5559-7-6-7-9" fill="#f7e385"/><path d="M32 1020.4v6h6v-2c0-1.429 2.61-.078 2.61-1.143 0-.714-1.177-.806-1.435-1.428-.183-.44.715-1.429 0-1.429z" style="isolation:auto;mix-blend-mode:normal;solid-color:#000" id="rect5559-7-6-9-0-0" fill="url(#linearGradient6648-0)"/><ellipse cx="33.673" cy="1017.6" ry=".714" rx=".717" style="isolation:auto;mix-blend-mode:normal;solid-color:#000" id="path6451-0" fill="#ffa92d"/></g><path d="M30.305 1022.8c-.717 0-1.435.714-.717 1.429.717.714.717 2.142-.718 2.142H26s2.153.715 2.153 2.143c0 1.429-1.76 1.647-1.752 3.473.006 1.765 1.7 1.238 2.263 2.446.364.78-.512 1.355.285 2.148.27.173 1.937.265 2.542-.337 1.36-1.354.51-2.015.51-3.444l2.076-3.17-2.077-3.26v-.714c0-.714-.977-2.857-1.695-2.857z" id="path6405-0" fill="#ecfde3" fill-rule="evenodd"/><g id="g1295" color="#000" color-rendering="auto" image-rendering="auto" shape-rendering="auto"><path d="M32 1026.4v6.428c0-.714 6-.714 6 1.43v-7.858z" style="isolation:auto;mix-blend-mode:normal;solid-color:#000" id="rect5559-7-6-9-0-9-3" fill="url(#linearGradient6657-7)"/><ellipse cx="30.086" cy="1030.1" ry="1.071" rx=".717" style="isolation:auto;mix-blend-mode:normal;solid-color:#000" id="path6441-8" fill="#986f34"/><ellipse cx="28.292" cy="1016.2" ry=".714" rx="1.076" style="isolation:auto;mix-blend-mode:normal;solid-color:#000" id="path6453-6" fill="#d7e04c"/></g></g></svg>