<svg xmlns="http://www.w3.org/2000/svg" style="isolation:isolate" width="48" height="48"><defs><linearGradient gradientUnits="userSpaceOnUse" gradientTransform="scale(.67837 1.47411)" y2="17.042" x2="32.036" y1="17.154" x1="3.132" id="b"><stop stop-opacity=".047" offset="0%"/><stop stop-opacity="0" offset="100%"/></linearGradient><linearGradient gradientUnits="userSpaceOnUse" gradientTransform="scale(1.00613 .9939)" y2="45.792" x2="24.063" y1="3.193" x1="24.063" id="a"><stop stop-color="#6eafb2" offset="0%"/><stop stop-color="#65b2d2" offset="56.087%"/><stop stop-color="#5285d2" offset="98.261%"/></linearGradient></defs><path d="M45.641 19.956v8.582c0 14.049-11.564 16.975-17.769 16.975h-7.323c-6.127 0-17.768-2.732-17.768-18.018v-7c0-11.68 7.924-17.321 17.768-17.321h7.323c9.844 0 17.769 5.526 17.769 16.782z" fill="url(#a)"/><path stroke-miterlimit="10" d="M63.728 78.204h19.07c.32 0 .58.261.58.581V97.72a.58.58 0 0 1-.58.581h-19.07a.58.58 0 0 1-.581-.581V78.785c0-.32.26-.581.581-.581z" fill="#f1f1f1"/><path d="M21.502 3.174h-1.715c-9.844 0-17.769 5.64-17.769 17.32v7.001c0 15.286 11.641 18.018 17.769 18.018h1.715c-6.127 0-17.768-2.732-17.768-18.018v-7.001c0-11.68 7.924-17.32 17.768-17.32z" fill="url(#b)"/><path d="M40.426 30.95c0 5.125-4.163 9.28-9.298 9.28s-9.298-4.155-9.298-9.28c0-5.125 4.163-9.28 9.298-9.28a9.3 9.3 0 0 1 3.62.729 9.315 9.315 0 0 1 4.948 4.939c.47 1.11.73 2.331.73 3.612z" vector-effect="non-scaling-stroke" fill="#e6e6e6" fill-rule="evenodd" stroke="#000" stroke-width=".169" stroke-opacity=".308"/><path d="M39.313 30.882c0 4.567-3.672 8.269-8.201 8.269s-8.201-3.702-8.201-8.269c0-4.566 3.672-8.268 8.201-8.268s8.201 3.702 8.201 8.268z" fill="#e6e6e6"/><path d="M23.185 30.952c0 4.348 3.547 7.873 7.922 7.873s7.922-3.525 7.922-7.873c0-4.348-3.547-7.872-7.922-7.872s-7.922 3.524-7.922 7.872z" fill="#217295" fill-rule="evenodd"/></svg>