<svg xmlns:osb="http://www.openswatchbook.org/uri/2009/osb" xmlns="http://www.w3.org/2000/svg" xmlns:xlink="http://www.w3.org/1999/xlink" width="48" height="48" version="1.1" id="svg38"><defs id="defs22"><linearGradient id="linearGradient4488"><stop id="stop4490" offset="0" stop-color="#000" stop-opacity=".047"/><stop id="stop4492" offset="1" stop-color="#000" stop-opacity="0"/></linearGradient><style id="style4511"/><style id="style4511-26"/><style id="style4511-9"/><style id="style4552"/><style id="style4511-2"/><linearGradient xlink:href="#linearGradient4488" id="linearGradient4540" gradientUnits="userSpaceOnUse" gradientTransform="matrix(.30902 0 0 .3038 -64.017 2.569)" x1="288.112" y1="141.785" x2="287.575" y2="79.008"/><linearGradient osb:paint="solid" id="linearGradient5293"><stop id="stop5295" offset="0" stop-color="#9a89c0" stop-opacity="1"/></linearGradient><linearGradient gradientUnits="userSpaceOnUse" y2="160.631" x2="334.866" y1="140.23" x1="334.866" id="linearGradient930" xlink:href="#linearGradient928"/><linearGradient id="linearGradient928"><stop id="stop924" offset="0" stop-color="gray" stop-opacity="1"/><stop id="stop926" offset="1" stop-color="#999" stop-opacity="1"/></linearGradient><linearGradient xlink:href="#b-9-7" id="linearGradient1745" x1="3.054" y1="24.161" x2="45.079" y2="24.161" gradientUnits="userSpaceOnUse" gradientTransform="rotate(90 24.066 24.161)"/><linearGradient gradientTransform="matrix(-1 0 0 1 -21.003 10.5)" x2="0" gradientUnits="userSpaceOnUse" y2="4" y1="44" id="b-9-7"><stop id="stop1565" stop-color="#2f74c8"/><stop id="stop1567" stop-color="#4699d7" offset="1"/></linearGradient><linearGradient gradientTransform="translate(-355.573 -483.55)" gradientUnits="userSpaceOnUse" x2="0" y2="492.8" y1="522.8" id="c-12"><stop id="stop1570" stop-color="#7cbaf8"/><stop id="stop1572" stop-color="#f4fcff" offset="1"/></linearGradient></defs><style id="style4485" type="text/css"/><path id="path4516" d="M2.75 26.796v1.668c0 9.575 5.68 17.283 17.44 17.283h7.05c15.392 0 18.143-11.323 18.143-17.283v-1.668c0 5.96-2.75 17.282-18.143 17.282h-7.05c-11.76 0-17.44-7.708-17.44-17.282z" opacity="1" fill="url(#linearGradient4540)" fill-opacity="1" stroke="none" stroke-width="1.109" stroke-linecap="square" stroke-linejoin="bevel" stroke-miterlimit="4" stroke-dasharray="none" stroke-dashoffset="0" stroke-opacity=".078"/><path id="path4518" d="M19.649 3.318h8.64c14.148 0 17.094 11.246 17.094 17.282v7.123c0 5.96-2.75 17.282-18.143 17.282h-7.05c-11.76 0-17.44-7.708-17.44-17.282V20.6c0-9.575 5.564-17.282 16.899-17.282z" opacity="1" fill="url(#linearGradient1745)" fill-opacity="1" stroke="#000" stroke-width=".337" stroke-linecap="square" stroke-linejoin="bevel" stroke-miterlimit="4" stroke-dasharray="none" stroke-dashoffset="0" stroke-opacity=".078"/><g id="g1614" transform="matrix(0 1.1842 -1.23628 0 54.75 -2.225)"><path d="M27.027 14.77l-1.093.897s3.066 4.094 3.062 9.09c-.004 5-2.838 9.02-2.838 9.02l.897 1.093s4.934-3.107 4.939-10.11c.005-7-4.967-9.993-4.967-9.993m-11.03 2.481h-2.999l-.003 3h3zm8.997 6.01l-6-.005v3l5.999.005zm-9 5.993h-3v2.999h.999c-.001 1-.999 1-.999 1l-.002.999 1 .002c2 .001 2-1.999 2-1.999z" id="path1581" fill="url(#c-12)" stroke-width="2" stroke-linejoin="round"/></g></svg>