<svg xmlns:osb="http://www.openswatchbook.org/uri/2009/osb" xmlns="http://www.w3.org/2000/svg" xmlns:xlink="http://www.w3.org/1999/xlink" width="48" height="48" version="1.1" id="svg38"><defs id="defs22"><linearGradient id="linearGradient4488"><stop id="stop4490" offset="0" stop-color="#000" stop-opacity=".047"/><stop id="stop4492" offset="1" stop-color="#000" stop-opacity="0"/></linearGradient><style id="style4511"/><style id="style4511-26"/><style id="style4511-9"/><style id="style4552"/><style id="style4511-2"/><linearGradient xlink:href="#linearGradient4488" id="linearGradient4540" gradientUnits="userSpaceOnUse" gradientTransform="matrix(.30902 0 0 .31096 -64.017 1.976)" x1="288.112" y1="141.785" x2="287.575" y2="79.008"/><linearGradient osb:paint="solid" id="linearGradient5293"><stop id="stop5295" offset="0" stop-color="#9a89c0" stop-opacity="1"/></linearGradient><filter height="2.44" y="-.72" width="2.44" x="-.72" id="filter1237" color-interpolation-filters="sRGB"><feGaussianBlur id="feGaussianBlur1239" stdDeviation="18.08"/></filter><filter height="1.12" y="-.06" width="1.12" x="-.06" id="filter1261" color-interpolation-filters="sRGB"><feGaussianBlur id="feGaussianBlur1263" stdDeviation="3.013"/></filter><style id="style4511-8"/><style id="style4511-26-7"/><style id="style4511-9-7"/><style id="style4552-5"/><style id="style4511-2-5"/><style id="style4511-87"/><style id="style4511-26-76"/><style id="style4511-9-2"/><style id="style4552-8"/><style id="style4511-2-0"/><style id="style4552-7"/><style id="style4552-6"/><style id="style4552-73"/><style id="style4552-2"/></defs><style id="style4485" type="text/css"/><style type="text/css" id="style4485-8"/><path id="path4516" d="M2.75 26.774v1.708c0 9.8 5.68 17.69 17.44 17.69h7.05c15.392 0 18.143-11.59 18.143-17.69v-1.708c0 6.1-2.75 17.69-18.143 17.69h-7.05c-11.76 0-17.44-7.89-17.44-17.69z" opacity="1" fill="url(#linearGradient4540)" fill-opacity="1" stroke="none" stroke-width="1.122" stroke-linecap="square" stroke-linejoin="bevel" stroke-miterlimit="4" stroke-dasharray="none" stroke-dashoffset="0" stroke-opacity=".078"/><path id="path4518" d="M19.649 2.743h8.64c14.148 0 17.094 11.511 17.094 17.689v7.29c0 6.1-2.75 17.69-18.143 17.69h-7.05c-11.76 0-17.44-7.89-17.44-17.69v-7.29c0-9.8 5.564-17.69 16.899-17.69z" opacity="1" fill="#f55" fill-opacity="1" stroke="#000" stroke-width=".341" stroke-linecap="square" stroke-linejoin="bevel" stroke-miterlimit="4" stroke-dasharray="none" stroke-dashoffset="0" stroke-opacity=".078"/><path style="marker:none" d="M2.7 28.844c0 1.551.276 2.536.556 3.786.138.665.278 1.126.445 1.67.177.557.492 1.366.69 1.83.198.461.555 1.129.773 1.497.225.382.589.951.838 1.295.222.307.512.713.725.993.236.276.497.52.724.78.228.26.479.493.753.704.274.211.506.467.798.714.269.224.452.402.82.615.345.224.552.349.943.569.402.225.897.454 1.389.682.448.207 1.355.514 1.959.687 1.31.316 3.251.656 4.31.696l2.737.101 2.832.006 2.831.006 2.55-.09c1.418-.05 3.409-.457 4.703-.788a10.505 10.505 0 0 0 1.618-.607c.507-.223 1.044-.5 1.56-.73.452-.262.632-.388 1.074-.676.417-.26.46-.29.749-.506.3-.203.501-.38.768-.611.266-.235.5-.453.729-.712.226-.26.526-.525.764-.812.267-.324.513-.643.732-.973.269-.38.626-.948.863-1.322.284-.448.646-1.205.86-1.702.227-.531.538-1.04.594-1.608.137-.572.502-1.905.651-2.565.183-.744.328-2.45.33-3.537l.077-2.917-3.953.581.087 1.112-.17 3.688-2.89.072-.064-3.293s-1.816-.107-2.312-.11c-.495-.005.394 3.388.394 3.388l-1.239-.009.184-3.197-2.395-.112.352-3.76-.986-.854-.742-.1-1.24.18-.124 7.147-2.146-.204s.234 2.26.396 2.825c.162.566-1.072-.102-1.072-.102l.36-5.077-2.304-1.616-.234-1.135-.345 1.225-1.991 1.678.556 3.767-2.47-1.43.014-2.351-1.156-.103-.007 1.223-1.651-.012-.151-2.447-6.771-.145.22 4.705-1.075.368-.236-2.07-1.484-.482c-.273-.303-.8 1.444-1.072-.196l-1.904.11-1.509-1.28z" id="path5519" color="#000" display="inline" overflow="visible" visibility="visible" fill="#1f0808" fill-opacity="1" stroke="none" stroke-width="1.041" enable-background="accumulate"/><style type="text/css" id="style4485-86"/><style id="style4485-4" type="text/css"/><style id="style4485-5" type="text/css"/><style id="style4485-3" type="text/css"/><style id="style4485-5-1" type="text/css"/><circle r="13.118" cy="-8.258" cx="-39.512" id="circle4923" opacity="1" fill="none" fill-opacity="1" stroke="#000" stroke-width=".4" stroke-linecap="square" stroke-linejoin="bevel" stroke-miterlimit="4" stroke-dasharray="none" stroke-dashoffset="0" stroke-opacity=".031"/><g id="g2651" transform="translate(4.243 2.386)" color="#000" visibility="visible" fill-opacity="1" fill-rule="nonzero" stroke="none"><g id="g2645"><circle style="marker:none" id="path6891" cx="552.261" cy="109.765" r="60.268" transform="matrix(.08806 0 0 .08725 -16.524 -.283)" display="inline" overflow="visible" opacity=".1" fill="#e5e5e5" stroke-width="11.385" filter="url(#filter1261)" enable-background="accumulate"/><ellipse style="marker:none" id="path6891-1" cx="32.11" cy="9.294" rx="2.654" ry="2.629" display="inline" overflow="visible" fill="#f7f7f7" stroke-width=".499" enable-background="accumulate"/></g><circle transform="matrix(.0933 0 0 .09867 -19.045 -.786)" style="marker:none" id="circle1155" cx="552.261" cy="109.765" r="30.134" display="inline" overflow="visible" fill="#f7f7f7" stroke-width="5.693" filter="url(#filter1237)" enable-background="accumulate"/></g><g id="g2661" transform="matrix(.99132 0 0 .99126 .209 -1.247)" stroke-width=".055" stroke-linecap="square" stroke-linejoin="bevel" stroke-miterlimit="4" stroke-dasharray="none" stroke-dashoffset="0" stroke-opacity=".147"><path id="path4868" d="M24.066 11.534a7.172 7.128 0 0 0-7.171 7.128 7.172 7.128 0 0 0 7.171 7.128 7.172 7.128 0 0 0 7.172-7.128 7.172 7.128 0 0 0-7.172-7.128zm0 1.947a5.213 5.18 0 0 1 5.213 5.18 5.213 5.18 0 0 1-5.213 5.181 5.213 5.18 0 0 1-5.213-5.18 5.213 5.18 0 0 1 5.213-5.181z" opacity="1" fill="#fff" fill-opacity=".839" stroke="#000"/><ellipse ry="5.181" rx="5.213" cy="18.662" cx="24.066" id="path4875-3" opacity="1" fill="#5c6698" fill-opacity=".739" stroke="none"/><ellipse ry="2.445" rx="2.46" cy="18.662" cx="24.066" id="path4877-6" opacity="1" fill="#4b5279" fill-opacity="1" stroke="none"/><path d="M24.066 13.48a5.213 5.18 0 0 0-5.098 4.109 7.548 4.2 0 0 0 5.095 1.108 7.548 4.2 0 0 0 5.096-1.107 5.213 5.18 0 0 0-5.093-4.11z" id="circle4912" opacity="1" fill="#fff" fill-opacity=".1" stroke="none"/></g></svg>