<svg xmlns="http://www.w3.org/2000/svg" xmlns:xlink="http://www.w3.org/1999/xlink" width="48" height="48" version="1.1" id="svg38"><defs id="defs22"><linearGradient id="linearGradient4488"><stop id="stop4490" offset="0" stop-color="#000" stop-opacity=".047"/><stop id="stop4492" offset="1" stop-color="#000" stop-opacity="0"/></linearGradient><style id="style4511"/><style id="style4511-26"/><style id="style4511-9"/><style id="style4552"/><style id="style4511-2"/><linearGradient gradientTransform="translate(-63.205 2.216) scale(.3038)" xlink:href="#linearGradient4488" id="linearGradient4160" x1="288.112" y1="141.785" x2="287.575" y2="79.008" gradientUnits="userSpaceOnUse"/><linearGradient gradientTransform="translate(4.947 3.256) scale(.87756)" gradientUnits="userSpaceOnUse" x2="22" y2="12" x1="42" y1="35" id="b-709-9"><stop id="stop12231-2" stop-color="#197cf1"/><stop id="stop12233-0" stop-color="#20bcfa" offset="1"/></linearGradient><linearGradient gradientTransform="translate(1.437 3.256) scale(.87756)" gradientUnits="userSpaceOnUse" x2="5" y2="13" x1="23" y1="35" id="a-36753562912-2"><stop id="stop12226-3" stop-color="#c61423"/><stop id="stop12228-7" stop-color="#dc2b41" offset="1"/></linearGradient></defs><style id="style4485" type="text/css"/><path d="M2.433 26.443v1.668c0 9.575 5.583 17.282 17.146 17.282h6.93c15.133 0 17.837-11.322 17.837-17.282v-1.668c0 5.96-2.704 17.282-17.837 17.282h-6.93c-11.563 0-17.146-7.708-17.146-17.282z" id="path4147" opacity="1" fill="url(#linearGradient4160)" fill-opacity="1" stroke="none" stroke-width="1.1" stroke-linecap="square" stroke-linejoin="bevel" stroke-miterlimit="4" stroke-dasharray="none" stroke-dashoffset="0" stroke-opacity=".078"/><path d="M19.046 2.965h8.495c13.908 0 16.805 11.246 16.805 17.282v7.123c0 5.96-2.704 17.282-17.837 17.282h-6.93c-11.562 0-17.146-7.708-17.146-17.282v-7.123c0-9.575 5.47-17.282 16.613-17.282z" id="rect4144" opacity="1" fill="#e3e7ea" fill-opacity="1" stroke="#000" stroke-width=".334" stroke-linecap="square" stroke-linejoin="bevel" stroke-miterlimit="4" stroke-dasharray="none" stroke-dashoffset="0" stroke-opacity=".078"/><g id="g13135" transform="translate(2.69 2.58) scale(.86415)"><path d="M29.519 17.297v14.041h6.143a4.388 4.388 0 0 0 4.387-4.388 4.388 4.388 0 0 0-2.514-3.962 3.51 3.51 0 0 0 .76-2.18 3.51 3.51 0 0 0-3.511-3.51h-3.51zm1.755 1.755h3.51a1.755 1.755 0 0 1 1.755 1.755 1.755 1.755 0 0 1-1.755 1.756h-3.51zm0 5.266h4.388a2.633 2.633 0 0 1 2.632 2.632 2.633 2.633 0 0 1-2.632 2.633h-4.388V26.95zm0 2.632a4.388 4.388 0 0 0 .003.067v-.17a4.388 4.388 0 0 0-.003.104" id="path12258-5" fill="url(#b-709-9)"/><path d="M12.985 17.297l-5.36 14.041h2.003l1.246-3.51h6.395l1.246 3.51h1.974l-5.351-14.04zm1.072 1.872l2.555 6.904h-5.101z" id="path12260-9" fill="url(#a-36753562912-2)"/><path d="M19.865 11.154v1.755h3.51v22.817h-3.51v1.755h8.776v-1.755h-3.51V12.909h3.51v-1.755z" id="path12266-2" fill="#424242" fill-opacity=".535"/></g></svg>