<svg xmlns="http://www.w3.org/2000/svg" xmlns:xlink="http://www.w3.org/1999/xlink" width="48" height="48" version="1.1" id="svg38"><defs id="defs22"><linearGradient id="linearGradient3764-36" x1="1" x2="47" gradientUnits="userSpaceOnUse" gradientTransform="rotate(-90 -6.414 52.89)"><stop stop-color="#e0e6e8" stop-opacity="1" id="stop1730"/><stop offset="1" stop-color="#ecf0f1" stop-opacity="1" id="stop1732"/></linearGradient><style id="style4511"/><style id="style4511-26"/><style id="style4511-9"/><style id="style4552"/><style id="style4511-2"/><style id="style4511-0"/><style id="style4511-26-7"/><style id="style4511-9-7"/><style id="style4552-5"/><style id="style4511-2-5"/><clipPath id="clipPath-199438711"/><linearGradient xlink:href="#linearGradient3764-36" id="linearGradient1741" x1="2.266" y1="23.808" x2="44.513" y2="23.808" gradientUnits="userSpaceOnUse"/></defs><style id="style4485" type="text/css"/><style type="text/css" id="style4485-8"/><path d="M19.046 2.965h8.495c13.908 0 16.805 11.246 16.805 17.282v7.123c0 5.96-2.704 17.282-17.837 17.282h-6.93c-11.562 0-17.146-7.708-17.146-17.282v-7.123c0-9.575 5.47-17.282 16.613-17.282z" id="rect4144" opacity="1" fill="url(#linearGradient1741)" fill-opacity="1" stroke="#000" stroke-width=".334" stroke-linecap="square" stroke-linejoin="bevel" stroke-miterlimit="4" stroke-dasharray="none" stroke-dashoffset="0" stroke-opacity=".078"/><path id="path1600" d="M16.78 31.3a3.306 3.212 0 0 0 0 6.423 3.306 3.212 0 0 0 0-6.422m0 1.605a1.653 1.606 0 1 1-.002 3.213 1.653 1.606 0 0 1 .001-3.213m0 0" fill="#3497db" fill-opacity="1" fill-rule="nonzero" stroke="none" stroke-width="1.086"/><path id="path1602" d="M34.407 15.245a3.306 3.212 0 0 0 0 6.422 3.306 3.212 0 0 0 0-6.422m0 1.605a1.653 1.606 0 1 1-.002 3.213 1.653 1.606 0 0 1 .001-3.213m0 0" fill="#fd7c60" fill-opacity="1" fill-rule="nonzero" stroke="none" stroke-width="1.086"/><path id="path1604" d="M31.101 28.09a3.306 3.212 0 0 0 0 6.422 3.306 3.212 0 0 0 0-6.422m0 1.605a1.653 1.606 0 1 1 0 3.212 1.653 1.606 0 0 1 0-3.212m0 0" fill="#f8c82d" fill-opacity="1" fill-rule="nonzero" stroke="none" stroke-width="1.086"/><path id="path1606" d="M15.678 32.371v-8.563h2.203v8.563m-2.203 0" fill="#3497db" fill-opacity="1" fill-rule="nonzero" stroke="none" stroke-width="1.086"/><path id="path1608" d="M23.39 17.386h8.813v2.14H23.39m0-2.14" fill="#fd7c60" fill-opacity="1" fill-rule="nonzero" stroke="none" stroke-width="1.086"/><path id="path1610" d="M28.898 30.766l1.653-1.606-8.263-8.028-1.653 1.606zm0 0" fill="#f8c82d" fill-opacity="1" fill-rule="nonzero" stroke="none" stroke-width="1.086"/><path id="path1612" d="M16.78 9.893c-4.261 0-7.713 3.353-7.713 7.493 0 4.139 3.452 7.492 7.712 7.492s7.712-3.353 7.712-7.492c0-4.14-3.451-7.493-7.712-7.493m0 2.14a5.508 5.352 0 0 1 5.509 5.353 5.508 5.352 0 0 1-5.509 5.352 5.508 5.352 0 0 1-5.508-5.352 5.508 5.352 0 0 1 5.508-5.352m0 0" fill="#25cf7f" fill-opacity="1" fill-rule="nonzero" stroke="none" stroke-width="1.086"/></svg>