<svg xmlns:osb="http://www.openswatchbook.org/uri/2009/osb" xmlns="http://www.w3.org/2000/svg" xmlns:xlink="http://www.w3.org/1999/xlink" width="48" height="48" version="1.1" id="svg38"><defs id="defs22"><style id="style4511"/><style id="style4511-26"/><style id="style4511-9"/><style id="style4552"/><style id="style4511-2"/><linearGradient osb:paint="solid" id="linearGradient5293"><stop id="stop5295" offset="0" stop-color="#9a89c0" stop-opacity="1"/></linearGradient><linearGradient id="linearGradient1982"><stop id="stop1978" offset="0" stop-color="#6ffff9" stop-opacity=".028"/><stop id="stop1980" offset="1" stop-color="#6ffff9" stop-opacity="1"/></linearGradient><linearGradient id="linearGradient3051"><stop id="stop3047" offset="0" stop-color="#5d99e4" stop-opacity="1"/><stop id="stop3049" offset="1" stop-color="#5d9ce6" stop-opacity=".014"/></linearGradient><linearGradient y2="174.361" x2="74.574" y1="219.226" x1="244.334" gradientUnits="userSpaceOnUse" id="linearGradient3059-3" xlink:href="#linearGradient3051" gradientTransform="matrix(.05505 0 0 .05128 -29.92 21.19)"/><linearGradient xlink:href="#linearGradient1982" id="linearGradient1475" x1="-54.489" y1="41.241" x2="-12.242" y2="41.241" gradientUnits="userSpaceOnUse" gradientTransform="matrix(-.00208 .99647 -1.00298 -.001 4.606 48.912)"/><style id="style4511-8"/><style id="style4511-26-4"/><style id="style4511-9-8"/><style id="style4552-5"/><style id="style4511-2-5"/><linearGradient x1="53.969" y1="10.495" x2="24.288" y2="35.438" id="linearGradient-6" gradientTransform="scale(.75624 1.32233)" gradientUnits="userSpaceOnUse"><stop stop-color="#DD61FA" offset="0%" id="stop33"/><stop stop-color="#FFDC5A" offset="100%" id="stop35"/></linearGradient><linearGradient gradientUnits="userSpaceOnUse" y2="23.586" x2="44.83" y1="23.586" x1="2.583" id="linearGradient1334" xlink:href="#linearGradient-6" gradientTransform="translate(-60.38 -8.089)"/></defs><style id="style4485" type="text/css"/><style type="text/css" id="style4485-5"/><g id="g2144" transform="translate(-1.48 .72)"><g transform="translate(62 8)" id="g2133" fill-opacity="1" stroke="#000" stroke-width=".334" stroke-linecap="square" stroke-linejoin="bevel" stroke-miterlimit="4" stroke-dasharray="none" stroke-dashoffset="0" stroke-opacity=".078"><path id="path4518-0" d="M-41.017-5.347h8.495c13.908 0 16.805 11.247 16.805 17.282v7.124c0 5.96-2.705 17.282-17.837 17.282h-6.93c-11.563 0-17.146-7.708-17.146-17.282v-7.124c0-9.574 5.47-17.282 16.613-17.282z" opacity="1" fill="url(#linearGradient1334)"/><path id="path4518-3" d="M-15.774 11.316l-.017 8.465c-.03 13.859-11.316 16.734-17.369 16.728l-7.144-.007c-5.978-.006-17.328-2.712-17.297-17.791l.014-6.906C-57.563.284-49.82-5.272-40.217-5.263l7.144.007c9.603.01 17.322 5.468 17.3 16.572z" opacity="1" fill="url(#linearGradient1475)"/></g><g transform="matrix(1.35036 0 0 1.74838 55.64 -21.74)" id="g1552"><path d="M-26.538 29.1c-.004.05-.008.1-.01.15 0 2.774 3.048 5.022 6.809 5.022 1.251-.002 2.412-.205 3.479-.688l.73-1.054-.805-1.118-.63-.651-.332-.444c-1.088.886-2.86 1.032-4.361 1.032-1.964 0-3.796-.845-4.88-2.248z" id="path3031-5" opacity="1" fill="url(#linearGradient3059-3)" fill-opacity="1" stroke="none" stroke-width=".614" stroke-miterlimit="4" stroke-dasharray="none" stroke-opacity="1"/><path id="path3156" d="M-19.913 28.724l2.616 1.755.98-1.19s-.038 0-.137-.103c-.1-.104-2.517-2.183-2.517-2.183l-.98.104-.396.59.004.796z" opacity=".5" fill="#000" fill-opacity="1" stroke="none" stroke-width=".084" stroke-linecap="butt" stroke-linejoin="miter" stroke-opacity="1"/><path id="path3154" d="M-20.541 28.673c-.412-.09-1.12-.372-1.353-.537a.942.942 0 0 0-.222-.13c-.021 0-.163-.09-.315-.2a22.9 22.9 0 0 0-.507-.355c-.285-.194-2.444-2.258-3.144-3.008-.209-.224-2.337-2.286-3.264-3.163-1.08-1.022-1.243-1.24-1.137-1.525.08-.213.341-.345.594-.301.102.018.35.132.55.253a360.441 360.441 0 0 0 6.025 3.504c.563.326 1.522.853 1.551.853.042 0 .763.474 1.036.681 0 0 .253.158.764.63.265.301.542.584.723.854.056.074.46.572.5.766a.443.443 0 0 0 .044.13c.022.243-.095-.055-.205-.017-.394.053-.75.371-.96.65-.182.256-.223.36-.223.57 0 .205.028.286.13.352.124.082.077.091-.075.066a3.4 3.4 0 0 1-.512-.073z" opacity=".5" fill="#000" stroke-width=".055"/><path d="M-19.913 28.561l2.616 1.756.98-1.19s-.038 0-.137-.104c-.1-.104-2.517-2.183-2.517-2.183l-.98.104-.396.59.004.797z" id="path3122-3" fill="#adadad" fill-opacity="1" stroke="none" stroke-width=".084" stroke-linecap="butt" stroke-linejoin="miter" stroke-opacity="1"/><path d="M-16.195 33.368c.222-.456.103-.835-.51-1.63-.54-.699-.708-1.054-.713-1.499-.005-.407.128-.689.449-.95.736-.603 1.69-.318 2.207.66.495.934.275 2.048-.575 2.911-.307.313-.845.734-.936.734-.018 0 .017-.102.078-.226zm-4.346-4.858c-.412-.09-1.12-.372-1.353-.537a.942.942 0 0 0-.222-.13c-.021 0-.163-.09-.315-.2a22.9 22.9 0 0 0-.507-.355c-.285-.193-2.444-2.258-3.144-3.008-.209-.223-2.337-2.286-3.264-3.162-1.08-1.022-1.243-1.241-1.137-1.526.08-.213.341-.345.594-.301.102.018.35.132.55.253a360.441 360.441 0 0 0 6.025 3.504c.563.326 1.522.853 1.551.853.042 0 .763.474 1.036.682 0 0 .253.157.764.63.265.3.542.583.723.853.056.074.46.572.5.766a.443.443 0 0 0 .044.131c.022.242-.095-.056-.205-.018-.394.053-.75.372-.96.65-.182.256-.223.36-.223.57 0 .205.028.286.13.352.124.082.077.091-.075.067a3.402 3.402 0 0 1-.512-.074z" id="path3090-5" fill="#000" stroke-width=".055"/></g></g></svg>