<svg xmlns:osb="http://www.openswatchbook.org/uri/2009/osb" xmlns="http://www.w3.org/2000/svg" xmlns:xlink="http://www.w3.org/1999/xlink" width="48" height="48" version="1.1" id="svg38"><defs id="defs22"><style id="style4511"/><style id="style4511-26"/><style id="style4511-9"/><style id="style4552"/><style id="style4511-2"/><linearGradient osb:paint="solid" id="linearGradient5293"><stop id="stop5295" offset="0" stop-color="#9a89c0" stop-opacity="1"/></linearGradient><linearGradient osb:paint="solid" id="linearGradient5251"><stop id="stop5253" offset="0" stop-color="#2f343f" stop-opacity="1"/></linearGradient><style id="style4511-8"/><style id="style4511-26-4"/><style id="style4511-9-8"/><style id="style4552-5"/><style id="style4511-2-5"/><style id="style4511-87"/><style id="style4511-26-7"/><style id="style4511-9-1"/><style id="style4552-53"/><style id="style4511-2-2"/><style id="style4511-8-9"/><style id="style4511-26-4-8"/><style id="style4511-9-8-1"/><style id="style4552-9"/><style id="style4511-2-4"/><linearGradient id="linearGradient4918"><stop id="stop2007" stop-color="#3daefd"/><stop id="stop2009" offset="1" stop-color="#24a058"/></linearGradient><linearGradient id="linearGradient4909-6"><stop id="stop2012" stop-color="#2c3e50"/><stop id="stop2014" offset="1" stop-color="#0d352d"/></linearGradient><linearGradient gradientUnits="userSpaceOnUse" x2="35.667" y2="38.819" x1="9.268" y1="12.42" id="linearGradient4924" xlink:href="#linearGradient4918" gradientTransform="translate(-50.237 .608)"/><linearGradient xlink:href="#linearGradient4909-6" id="linearGradient2158" x1="4.426" y1="23.662" x2="43.745" y2="23.662" gradientUnits="userSpaceOnUse" gradientTransform="matrix(.97936 0 0 .96639 .395 .846)"/></defs><style id="style4485" type="text/css"/><style type="text/css" id="style4485-4"/><style type="text/css" id="style4485-48"/><style id="style4485-8" type="text/css"/><path id="path4518-4" d="M19.552 2.671h8.583c14.052 0 16.98 11.36 16.98 17.455v7.194c0 6.019-2.733 17.454-18.023 17.454H20.09c-11.683 0-17.324-7.784-17.324-17.454v-7.194c0-9.67 5.527-17.455 16.786-17.455z" opacity="1" fill="#ccc" fill-opacity="1" stroke="#000" stroke-width=".338" stroke-linecap="square" stroke-linejoin="bevel" stroke-miterlimit="4" stroke-dasharray="none" stroke-dashoffset="0" stroke-opacity=".078"/><path id="path4518-0" d="M20.025 4.83h7.743c12.676 0 15.317 10.189 15.317 15.656v6.453c0 5.4-2.465 15.657-16.258 15.657h-6.316c-10.539 0-15.628-6.983-15.628-15.657v-6.453c0-8.674 4.986-15.656 15.142-15.656z" opacity="1" fill="url(#linearGradient2158)" fill-opacity="1" stroke="#000" stroke-width=".304" stroke-linecap="square" stroke-linejoin="bevel" stroke-miterlimit="4" stroke-dasharray="none" stroke-dashoffset="0" stroke-opacity=".078"/><g id="g2174" transform="matrix(1.03356 0 0 1.00674 50.283 -1.061)"><path id="path2048" d="M-26.237 8.608c-.508 0-1.006.038-1.5.09v3.016c.493-.06.99-.106 1.5-.106.509 0 1.007.036 1.5.092V8.682a16.3 16.3 0 0 0-1.5-.074zm2.67.238l-.78 2.913c1.01.146 1.982.402 2.901.765l.78-2.906a15.906 15.906 0 0 0-2.9-.772zm3.994 1.22l-1.503 2.603c.928.4 1.792.914 2.593 1.51l1.51-2.618a15.9 15.9 0 0 0-2.6-1.496zm-8.81.726a14 14 0 0 0-2.902.775l.257.96a13 13 0 0 1 2.905-.768zm-3.51 1.021a14 14 0 0 0-2.594 1.504l.502.87a13 13 0 0 1 2.598-1.499zm15.87.461l-2.141 2.14a12.987 12.987 0 0 1 2.12 2.122l2.141-2.14a16.004 16.004 0 0 0-2.12-2.122zm-18.987 1.44a14 14 0 0 0-2.127 2.115l.719.719a13 13 0 0 1 2.111-2.131zm21.82 1.63l-2.617 1.51c.595.8 1.11 1.664 1.51 2.592l2.603-1.502a15.9 15.9 0 0 0-1.496-2.6zm-24.338 1.014a14 14 0 0 0-1.498 2.598l.86.498a13 13 0 0 1 1.51-2.594zm26.282 2.68l-2.907.78c.363.919.62 1.892.766 2.902l2.912-.782a15.906 15.906 0 0 0-.771-2.9zm-28.047.52a14 14 0 0 0-.768 2.9l.979.262a13 13 0 0 1 .771-2.9zm8.556 1.05a.499.499 0 1 0 0 1h1a.499.499 0 1 0 0-1zm8 0a.499.499 0 1 0 0 1h1a.499.499 0 1 0 0-1zm5 0a.499.499 0 1 0 0 1h1a.499.499 0 1 0 0-1zm-16 1c-.277 0-.5.223-.5.5v1a.499.499 0 1 0 1 0v-1c0-.277-.223-.5-.5-.5zm5 0c-.277 0-.5.223-.5.5v1a.499.499 0 1 0 1 0v-1c0-.277-.223-.5-.5-.5zm2.5 0a1 1 0 0 0-1 1 1 1 0 0 0 1 1 1 1 0 0 0 1-1 1 1 0 0 0-1-1zm5.5 0c-.277 0-.5.223-.5.5v1a.499.499 0 1 0 1 0v-1c0-.277-.223-.5-.5-.5zm5 0c-.277 0-.5.223-.5.5v1a.499.499 0 1 0 1 0v-1c0-.277-.223-.5-.5-.5zm-24.402 1.5a14 14 0 0 0-.098 1.5c.002.501.03 1.002.086 1.5h1.018a13 13 0 0 1-.104-1.5 12.99 12.99 0 0 1 .096-1.5zm26.81 0c.057.493.092.992.092 1.5 0 .509-.035 1.007-.091 1.5h3.017c.046-.494.074-.993.074-1.5 0-.506-.028-1.006-.074-1.5zm-17.408.5a.499.499 0 1 0 0 1h1a.499.499 0 1 0 0-1zm8 0a.499.499 0 1 0 0 1h1a.499.499 0 1 0 0-1zm-11 1c-.277 0-.5.223-.5.5v1a.499.499 0 1 0 1 0v-1c0-.277-.223-.5-.5-.5zm5 0c-.277 0-.5.223-.5.5v1a.499.499 0 1 0 1 0v-1c0-.277-.223-.5-.5-.5zm2.5 0a1 1 0 0 0-1 1 1 1 0 0 0 1 1 1 1 0 0 0 1-1 1 1 0 0 0-1-1zm5.5 0c-.277 0-.5.223-.5.5v1a.499.499 0 1 0 1 0v-1c0-.277-.223-.5-.5-.5zm5 0c-.277 0-.5.223-.5.5v1a.499.499 0 1 0 1 0v-1c0-.277-.223-.5-.5-.5zm-23.35 1.889l-.966.26a14 14 0 0 0 .775 2.9l.96-.258a13 13 0 0 1-.768-2.902zm25.7 0a12.947 12.947 0 0 1-.766 2.902l2.907.78c.343-.93.604-1.898.771-2.9zm-17.35.111a.499.499 0 1 0 0 1h1a.499.499 0 1 0 0-1zm8 0a.499.499 0 1 0 0 1h1a.499.499 0 1 0 0-1zm-15.42 3.15l-.875.506a14 14 0 0 0 1.504 2.594l.87-.502a13 13 0 0 1-1.499-2.597zm23.86.01c-.4.93-.915 1.793-1.51 2.594l2.617 1.51a15.9 15.9 0 0 0 1.496-2.6zm-22.131 2.91l-.703.704a14 14 0 0 0 2.115 2.127l.719-.72a13 13 0 0 1-2.131-2.11zm20.385.003a12.987 12.987 0 0 1-2.121 2.12l2.14 2.141a16.033 16.033 0 0 0 2.121-2.12zm-17.946 2.355l-1.507 2.61a15.999 15.999 0 0 0 2.591 1.511l1.512-2.617a12.984 12.984 0 0 1-2.596-1.504zm15.506.002c-.8.595-1.663 1.11-2.591 1.51l1.501 2.603a15.9 15.9 0 0 0 2.6-1.496zm-12.543 1.648l-.783 2.918c.928.345 1.897.61 2.899.778l.783-2.92a12.898 12.898 0 0 1-2.899-.776zm9.58.006c-.92.364-1.893.62-2.904.766l.781 2.912a15.906 15.906 0 0 0 2.903-.771zm-6.29.82v3.022c.493.046.993.074 1.5.074.506 0 1.005-.028 1.5-.074v-3.018c-.494.057-.992.092-1.5.092-.51 0-1.008-.039-1.5-.096z" fill="url(#linearGradient4924)" stroke-width="2.8" stroke-opacity=".55"/><rect id="rect2050" height="1" rx=".5" y="20.61" x="-36.238" width="2" fill="#192629" stroke-width="2" stroke-linecap="round" stroke-linejoin="round"/><rect id="rect2052" ry=".5" height="2" rx=".5" y="21.61" x="-37.238" width="1" fill="#192629" stroke-width="2" stroke-linecap="round" stroke-linejoin="round"/><rect id="rect2054" ry=".5" height="2" rx=".5" y="24.61" x="-37.238" width="1" fill="#192629" stroke-width="2" stroke-linecap="round" stroke-linejoin="round"/><rect id="rect2056" height="1" rx=".5" y="23.61" x="-36.238" width="2" fill="#192629" stroke-width="2" stroke-linecap="round" stroke-linejoin="round"/><rect id="rect2058" height="1" rx=".5" y="26.61" x="-36.238" width="2" fill="#192629" stroke-width="2" stroke-linecap="round" stroke-linejoin="round"/><rect id="rect2060" ry=".5" height="2" rx=".5" y="21.61" x="-32.238" width="1" fill="#192629" stroke-width="2" stroke-linecap="round" stroke-linejoin="round"/><rect id="rect2062" ry=".5" height="2" rx=".5" y="24.61" x="-32.238" width="1" fill="#192629" stroke-width="2" stroke-linecap="round" stroke-linejoin="round"/><rect id="rect2064" ry=".5" height="2" rx=".5" y="21.61" x="-24.238" width="1" fill="#192629" stroke-width="2" stroke-linecap="round" stroke-linejoin="round"/><rect id="rect2066" ry=".5" height="2" rx=".5" y="24.61" x="-24.238" width="1" fill="#192629" stroke-width="2" stroke-linecap="round" stroke-linejoin="round"/><rect id="rect2068" ry=".5" height="2" rx=".5" y="21.61" x="-19.238" width="1" fill="#192629" stroke-width="2" stroke-linecap="round" stroke-linejoin="round"/><rect id="rect2070" ry=".5" height="2" rx=".5" y="24.61" x="-19.238" width="1" fill="#192629" stroke-width="2" stroke-linecap="round" stroke-linejoin="round"/><rect id="rect2072" height="1" rx=".5" y="23.61" x="-18.238" width="2" fill="#192629" stroke-width="2" stroke-linecap="round" stroke-linejoin="round"/><rect id="rect2074" height="1" rx=".5" y="26.61" x="-18.238" width="2" fill="#192629" stroke-width="2" stroke-linecap="round" stroke-linejoin="round"/></g></svg>