<svg xmlns="http://www.w3.org/2000/svg" xmlns:xlink="http://www.w3.org/1999/xlink" width="48" height="48" version="1.1" id="svg38"><defs id="defs22"><linearGradient id="linearGradient4488"><stop id="stop4490" offset="0" stop-color="#000" stop-opacity=".047"/><stop id="stop4492" offset="1" stop-color="#000" stop-opacity="0"/></linearGradient><style id="style4511"/><style id="style4511-26"/><style id="style4511-9"/><style id="style4552"/><style id="style4511-2"/><linearGradient gradientTransform="matrix(.3071 0 0 .30202 -63.408 2.469)" xlink:href="#linearGradient4488" id="linearGradient4160" x1="288.112" y1="141.785" x2="287.575" y2="79.008" gradientUnits="userSpaceOnUse"/><linearGradient gradientTransform="matrix(.96223 0 0 1.49537 1.148 -27.972)" gradientUnits="userSpaceOnUse" y2="37" x2="24" y1="27" x1="24" id="linearGradient4877" xlink:href="#linearGradient4245"/><linearGradient id="linearGradient4245"><stop id="stop2-629" offset="0" stop-color="#000" stop-opacity=".078"/><stop id="stop4-1" offset="1" stop-color="#000" stop-opacity="0"/></linearGradient></defs><style id="style4485" type="text/css"/><g id="g1559" fill-opacity="1" stroke-dasharray="none" stroke-dashoffset="0"><path id="path4147" d="M2.945 26.554v1.658c0 9.519 5.644 17.181 17.333 17.181h7.006c15.297 0 18.03-11.256 18.03-17.18v-1.66c0 5.925-2.733 17.182-18.03 17.182h-7.006c-11.689 0-17.333-7.663-17.333-17.181z" opacity="1" fill="url(#linearGradient4160)" stroke="none" stroke-width="1.103" stroke-linecap="square" stroke-linejoin="bevel" stroke-miterlimit="4" stroke-opacity=".078"/><path id="rect4144" d="M19.74 3.213h8.587c14.059 0 16.987 11.181 16.987 17.18v7.082c0 5.925-2.733 17.181-18.03 17.181h-7.006c-11.689 0-17.333-7.662-17.333-17.18v-7.082c0-9.518 5.53-17.181 16.794-17.181z" opacity="1" fill="#e4d234" stroke="#000" stroke-width=".335" stroke-linecap="square" stroke-linejoin="bevel" stroke-miterlimit="4" stroke-opacity=".078"/><path d="M5.556 14.918c.03.577.063 1.145.108 1.666.055.637.123 1.233.204 1.79.082.558.177 1.077.289 1.56.111.483.24.93.385 1.345.146.414.31.794.493 1.144.184.35.387.669.613.96a5.593 5.593 0 0 0 1.632 1.425 7.1 7.1 0 0 0 1.043.497c.375.143.778.267 1.21.372.433.105.895.192 1.389.263.494.071 1.02.126 1.579.169.266.02.618.013.9.028H32.58c.282-.015.634-.008.9-.028.56-.043 1.085-.098 1.58-.17.493-.07.955-.157 1.388-.262a9.877 9.877 0 0 0 1.21-.372 7.1 7.1 0 0 0 1.043-.497 5.593 5.593 0 0 0 1.632-1.426c.226-.29.43-.61.613-.959.184-.35.347-.73.493-1.144.146-.414.274-.862.385-1.345a19.42 19.42 0 0 0 .289-1.56c.081-.557.149-1.153.204-1.79.055-.637.098-1.314.131-2.035.03-.636.032-1.403.04-2.146H5.502c.014.673.009 1.473.032 2.093.006.15.016.275.022.422z" id="path1043" opacity=".99" fill="url(#linearGradient4877)" fill-rule="evenodd" stroke="none" stroke-width="1.2" stroke-linecap="butt" stroke-linejoin="miter" stroke-miterlimit="0" stroke-opacity="1"/><g transform="matrix(.96428 0 0 1 .3 -.587)" id="g1544" fill="#4d4d4d" fill-rule="evenodd" stroke="none" stroke-linecap="butt" stroke-linejoin="miter" stroke-miterlimit="0" stroke-opacity="1"><path id="path1012" d="M8.174 22.884V15.13h-1.99v7.755z" opacity=".99" stroke-width=".982"/><path id="path1010" d="M13.148 22.884V15.13h-1.99v7.755z" opacity=".99" stroke-width=".982"/><path id="path1008" d="M23.096 22.884V15.13h-1.99v7.755z" opacity=".99" stroke-width=".982"/><path id="path1006" d="M28.07 22.884V15.13h-1.99v7.755z" opacity=".99" stroke-width=".982"/><path id="path1004" d="M38.018 22.884V15.13h-1.99v7.755z" opacity=".99" stroke-width=".982"/><path id="path1002" d="M42.992 22.884V15.13h-1.99v7.755z" opacity=".99" stroke-width=".982"/><path id="path1000" d="M18.122 25.793V15.129h-1.99v10.664z" opacity=".99" stroke-width=".982"/><path id="path998" d="M33.044 25.793V15.129h-1.99v10.664z" opacity=".99" stroke-width=".982"/><path id="path22" d="M43.961 13.19c-.042-.101-.075-.217-.12-.313a6.202 6.202 0 0 0-.541-.929 5.35 5.35 0 0 0-.602-.697H6.727a5.35 5.35 0 0 0-.602.697 6.22 6.22 0 0 0-.54.93c-.046.095-.079.21-.121.312z" opacity=".99" stroke-width=".992"/></g></g></svg>