<svg xmlns:osb="http://www.openswatchbook.org/uri/2009/osb" xmlns="http://www.w3.org/2000/svg" xmlns:xlink="http://www.w3.org/1999/xlink" width="48" height="48" version="1.1" id="svg38"><defs id="defs22"><linearGradient id="linearGradient4488"><stop id="stop4490" offset="0" stop-color="#000" stop-opacity=".047"/><stop id="stop4492" offset="1" stop-color="#000" stop-opacity="0"/></linearGradient><style id="style4511"/><style id="style4511-26"/><style id="style4511-9"/><style id="style4552"/><style id="style4511-2"/><linearGradient xlink:href="#linearGradient4488" id="linearGradient4540" gradientUnits="userSpaceOnUse" gradientTransform="translate(-62.889 1.994) scale(.3038)" x1="288.112" y1="141.785" x2="287.575" y2="79.008"/><linearGradient osb:paint="solid" id="linearGradient5293"><stop id="stop5295" offset="0" stop-color="#9a89c0" stop-opacity="1"/></linearGradient><linearGradient gradientUnits="userSpaceOnUse" gradientTransform="matrix(2.6002 0 0 .04343 60.894 36.867)" id="linearGradient-7" y2="25.675" x2="4.536" y1="17.964" x1="4.536"><stop id="stop18-1" offset="0%" stop-color="#F7F7F7"/><stop id="stop20-2" offset="100%" stop-color="#F7F7F7"/></linearGradient><style id="style4511-879"/><style id="style4511-26-76"/><style id="style4511-9-2"/><style id="style4552-8"/><style id="style4511-2-0"/><style id="style4511-87"/><style id="style4511-26-7"/><style id="style4511-9-1"/><style id="style4552-53"/><style id="style4511-2-9"/><style id="style4511-8"/><style id="style4511-26-4"/><linearGradient gradientTransform="matrix(1 0 0 1.14286 0 -77.4)" gradientUnits="userSpaceOnUse" x2="0" y2="522.55" y1="540.92" id="b-27-0"><stop id="stop7-0-6" stop-color="#197cf1"/><stop id="stop9-93-8" stop-color="#05a0eb" offset="1"/></linearGradient><style id="style4511-9-8"/><style id="style4552-5"/><style id="style4511-2-5"/><clipPath id="clipPath-121880098-9"/><linearGradient xlink:href="#b-27-0" id="linearGradient2639" x1="4.248" y1="23.665" x2="43.255" y2="23.665" gradientUnits="userSpaceOnUse"/></defs><style id="style4485" type="text/css"/><path id="path4518" d="M19.363 2.742h8.495c13.908 0 16.804 11.247 16.804 17.282v7.124c0 5.96-2.704 17.282-17.836 17.282h-6.93C8.333 44.43 2.75 36.722 2.75 27.148v-7.124c0-9.574 5.47-17.282 16.613-17.282z" opacity="1" fill="#ececec" fill-opacity="1" stroke="#000" stroke-width=".334" stroke-linecap="square" stroke-linejoin="bevel" stroke-miterlimit="4" stroke-dasharray="none" stroke-dashoffset="0" stroke-opacity=".078"/><path id="path4518-0" d="M19.742 4.32h7.843c12.841 0 15.516 10.438 15.516 16.04v6.61c0 5.532-2.497 16.04-16.469 16.04h-6.398c-10.676 0-15.831-7.153-15.831-16.04v-6.61c0-8.887 5.05-16.04 15.339-16.04z" opacity="1" fill="url(#linearGradient2639)" fill-opacity="1" stroke="#000" stroke-width=".309" stroke-linecap="square" stroke-linejoin="bevel" stroke-miterlimit="4" stroke-dasharray="none" stroke-dashoffset="0" stroke-opacity=".078"/><path d="M82.713 37.983a.675.675 0 0 0-.584-.335H63.246a.675.675 0 0 0-.584.335z" id="use70" fill="url(#linearGradient-7)" fill-rule="evenodd" stroke="none" stroke-width=".336"/><path id="path4516" d="M2.75 26.22v1.67c0 9.573 5.583 17.281 17.146 17.281h6.93c15.132 0 17.836-11.322 17.836-17.282v-1.668c0 5.96-2.704 17.282-17.836 17.282h-6.93C8.333 43.503 2.75 35.795 2.75 26.22z" opacity="1" fill="url(#linearGradient4540)" fill-opacity="1" stroke="none" stroke-width="1.1" stroke-linecap="square" stroke-linejoin="bevel" stroke-miterlimit="4" stroke-dasharray="none" stroke-dashoffset="0" stroke-opacity=".078"/><path id="rect1215" fill="#ececec" fill-opacity="1" stroke-width=".566" d="M4.642 13.326h37.915v1.777H4.642z"/><path d="M27.752 19.831h-8a1 1 0 0 1 0-2h8a1 1 0 0 1 0 2z" id="path1217" fill="#f7f8f8"/><path d="M27.752 10.831h-8a1 1 0 0 1 0-2h8a1 1 0 0 1 0 2z" id="path1219" fill="#f7f8f8"/><style type="text/css" id="style4485-0"/><style id="style4485-7" type="text/css"/><style type="text/css" id="style4485-6"/><path id="path1678" d="M24.588 22.871l-2.82.354v10.282l2.82-.354v-4.541c1.204 1.714 2.148 3.238 3.76 4.895l2.82-.886c-1.54-1.683-2.747-2.987-3.797-4.602 1.093-1.518 2.46-2.898 3.797-4.262l-2.82-.886c-1.392 1.478-2.653 2.897-3.76 4.432m-6.464-2.296a.224.211 0 0 0-.123.062c-.327.291-.637.583-.961.875-.143.13.002.284.065.392l.66.861.494.628c.07.091.091.1.055.164-.044.067-.081.12-.123.187-.642 1.017-.192 1.096-1.568 1.427l-1.053.164c-.156.049-.359.044-.37.248 0 .412-.013.822-.013 1.231-.008.19.216.206.349.238l1.12.184.841.144c.115.014.14-.01.167.071.343 1.366.792 1.052.044 2.246l-.604.792c-.08.138-.23.273-.078.412.318.297.622.597.942.893.14.13.322-.003.436-.062l.93-.608.693-.441c.097-.074.11-.091.18-.052 1.392.802 1.44.223 1.846 1.572l.2.965c.053.145.058.331.27.339h1.353c.203 0 .221-.219.247-.339l.19-1.027.135-.76c.008-.073.006-.11.021-.135 1.63-.316 1.225-.763 2.552-.051l.86.554c.16.073.31.2.46.064.32-.285.638-.572.958-.853.143-.138.003-.295-.065-.4h-.013l-.627-.812-.413.132c-.107.066-.247.042-.373-.113l-.904-1.098c-.846 1.074-2.214 1.768-3.767 1.768-2.551 0-4.634-1.91-4.634-4.254 0-1.665 1.05-3.107 2.575-3.804v-.979c-.052.025-.112.038-.156.052-.596.228-.635.33-1.61-.184l-.861-.563c-.12-.05-.226-.143-.336-.119m2.957 2.187c-1.295.672-2.174 1.96-2.174 3.423 0 2.16 1.919 3.926 4.28 3.926 1.46 0 2.74-.68 3.512-1.712l-.042-.083c-.905.922-1.928 1.52-3.482 1.553-1.938.032-3.899-1.553-3.91-3.639-.014-1.346.661-2.25 1.813-2.895" fill="#e9e9e9" fill-opacity="1" fill-rule="evenodd" stroke="none" stroke-width=".608"/></svg>