<svg xmlns="http://www.w3.org/2000/svg" xmlns:xlink="http://www.w3.org/1999/xlink" width="48" height="48" version="1.1" id="svg38"><defs id="defs22"><style id="style4511"/><style id="style4511-26"/><style id="style4511-9"/><style id="style4552"/><style id="style4511-2"/><linearGradient gradientUnits="userSpaceOnUse" x2="0" y2="16" y1="20" id="c-93"><stop id="stop1204" stop-color="#06a370"/><stop id="stop1206" stop-color="#22d1b0" offset="1"/></linearGradient><linearGradient gradientUnits="userSpaceOnUse" x2="0" y2="4" y1="21" id="d-60" xlink:href="#c-93" gradientTransform="translate(-58.373 -3.864)"/><linearGradient gradientUnits="userSpaceOnUse" x2="0" y2="4" y1="15" id="e-62" xlink:href="#c-93" gradientTransform="translate(-58.373 -3.864)"/><linearGradient gradientUnits="userSpaceOnUse" x2="0" y2="7" y1="16" id="f-6" xlink:href="#c-93" gradientTransform="translate(-58.373 -3.864)"/><linearGradient gradientUnits="userSpaceOnUse" x2="0" y2="10" y1="17" id="g-1" xlink:href="#c-93" gradientTransform="translate(-58.373 -3.864)"/><linearGradient gradientUnits="userSpaceOnUse" x2="0" y2="8" y1="17" id="h-8"><stop id="stop1213" stop-color="#c61423"/><stop id="stop1215" stop-color="#dc2b41" offset="1"/></linearGradient><linearGradient gradientUnits="userSpaceOnUse" x2="0" y2="12" y1="17" id="i-7" xlink:href="#h-8" gradientTransform="translate(-58.373 -3.864)"/><linearGradient gradientUnits="userSpaceOnUse" x2="0" y2="12" y1="21" id="j-9" xlink:href="#h-8" gradientTransform="translate(-58.373 -3.864)"/><linearGradient gradientUnits="userSpaceOnUse" x2="0" y2="10" y1="25" id="k" gradientTransform="translate(-58.373 -3.864)"><stop id="stop1220" stop-color="#f39c12"/><stop id="stop1222" stop-color="#f5ab35" offset="1"/></linearGradient><linearGradient xlink:href="#c-93" id="linearGradient1412" gradientUnits="userSpaceOnUse" y1="20" x2="0" y2="16" gradientTransform="translate(-58.373 -3.864)"/><linearGradient xlink:href="#h-8" id="linearGradient1414" gradientUnits="userSpaceOnUse" y1="17" x2="0" y2="8" gradientTransform="translate(-58.373 -3.864)"/></defs><style id="style4485" type="text/css"/><path d="M19.677 3.253h8.618c14.108 0 17.047 11.413 17.047 17.537v7.229c0 6.047-2.744 17.537-18.094 17.537h-7.03c-11.73 0-17.394-7.822-17.394-17.537V20.79c0-9.715 5.549-17.537 16.853-17.537z" id="rect4144" opacity="1" fill="#e6e6e6" fill-opacity="1" stroke="#000" stroke-width=".339" stroke-linecap="square" stroke-linejoin="bevel" stroke-miterlimit="4" stroke-dasharray="none" stroke-dashoffset="0" stroke-opacity=".078"/><g id="g1524" transform="translate(58.456 13.769)"><path id="rect1229" fill="url(#linearGradient1412)" stroke-width="2" stroke-linecap="round" stroke-linejoin="bevel" d="M-50.373 12.136h4v9h-4z"/><path id="rect1231" fill="url(#d-60)" stroke-width="2" stroke-linecap="round" stroke-linejoin="bevel" d="M-46.373.136h4v21h-4z"/><path id="rect1233" fill="url(#j-9)" stroke-width="2" stroke-linecap="round" stroke-linejoin="bevel" d="M-42.373 8.136h4v13h-4z"/><path id="rect1235" fill="url(#g-1)" stroke-width="2" stroke-linecap="round" stroke-linejoin="bevel" d="M-38.373 6.136h4v15h-4z"/><path id="rect1237" fill="url(#f-6)" stroke-width="2" stroke-linecap="round" stroke-linejoin="bevel" d="M-34.373 3.136h4v18h-4z"/><path id="rect1239" fill="url(#i-7)" stroke-width="2" stroke-linecap="round" stroke-linejoin="bevel" d="M-30.373 8.136h4v13h-4z"/><path id="rect1241" fill="url(#e-62)" stroke-width="2" stroke-linecap="round" stroke-linejoin="bevel" d="M-26.373.136h4v21h-4z"/><path id="rect1243" fill="url(#linearGradient1414)" stroke-width="2" stroke-linecap="round" stroke-linejoin="bevel" d="M-22.373 4.136h4v17h-4z"/><path id="path1327" d="M-50.373 21.136v-3c2 0 2-3 4-3s1.5 4 4 4 2-4 4-4 2-4 4-4 2 4 4 4 2-2 4-2 2-5 4-5 2 7 4 7v6z" fill="url(#k)" fill-rule="evenodd"/><path id="rect1329" fill="#2e3132" fill-opacity=".294" d="M-50.373 20.136h32v1h-32z"/></g></svg>