<svg xmlns="http://www.w3.org/2000/svg" width="48" height="48" version="1.1" id="svg38"><defs id="defs22"><style id="style4511"/><style id="style4511-26"/><style id="style4511-9"/><style id="style4552"/><style id="style4511-2"/><filter height="1.024" y="-.012" width="1.024" x="-.012" id="filter12934" color-interpolation-filters="sRGB"><feGaussianBlur id="feGaussianBlur12936" stdDeviation=".64"/></filter><filter height="1.12" y="-.06" width="1.12" x="-.06" id="filter12940" color-interpolation-filters="sRGB"><feGaussianBlur id="feGaussianBlur12942" stdDeviation="3.2"/></filter></defs><style id="style4485" type="text/css"/><path d="M3.408 28.325v-8.588C3.408 5.678 14.59 2.75 20.588 2.75h7.082c5.925 0 17.181 2.734 17.181 18.03v7.006c0 11.689-7.662 17.333-17.18 17.333h-7.082c-9.518 0-17.18-5.53-17.18-16.794z" id="rect4144" opacity="1" fill="#e7e7df" fill-opacity="1" stroke="#000" stroke-width=".335" stroke-linecap="square" stroke-linejoin="bevel" stroke-miterlimit="4" stroke-dasharray="none" stroke-dashoffset="0" stroke-opacity=".078"/><path style="marker:none" d="M18.282 7.406v10.431H7.756v.72h10.526v10.79H7.756v.72h10.526v10.43h.726v-10.43h10.889v10.43h.725v-10.43h10.526v-.72H30.622v-10.79h10.526v-.72H30.622V7.407h-.725v10.43h-10.89V7.407zm.726 11.15h10.889v10.79h-10.89z" id="path4635" color="#000" display="inline" overflow="visible" visibility="visible" opacity="1" fill="#847d6c" fill-opacity="1" fill-rule="nonzero" stroke="none" stroke-width=".542" enable-background="accumulate"/><path style="marker:none" d="M11.386 8.485v2.518H8.845v.36h2.54v2.877h-2.54v.36h2.54v2.518h.364V14.6h2.903v2.518h.363V14.6h2.54v-.36H11.75v-2.877h5.807v-.36h-2.54V8.485h-.364v2.518H11.75V8.485zm11.251 0v2.518h-2.54v.36h2.54v2.877h-2.54v.36h2.54v2.518H23V14.6h2.904v2.518h.363V14.6h2.54v-.36h-2.54v-2.877h2.54v-.36h-2.54V8.485h-.363v2.518H23V8.485zm11.252 0v2.518h-2.54v.36h2.903v2.877h-2.904v.36h2.541v2.518h.363V14.6h2.904v2.518h.363V14.6h2.54v-.36h-2.54v-2.877h2.54v-.36h-2.54V8.485h-.363v2.518h-2.904V8.485zm-19.237 2.878h.363v2.877h-.363zm8.348 0h2.904v2.877H23zm10.89 0h3.266v2.877h-3.267zm-22.504 8.272v2.518H8.845v.36h2.54v2.877h-2.54v.36h2.54v2.518h.364V25.75h2.903v2.518h.363V25.75h2.54v-.36h-2.54v-2.877h2.54v-.36h-2.54v-2.518h-.363v2.518H11.75v-2.518zm11.251 0v2.518h-2.54v.36h2.54v2.877h-2.54v.36h2.54v2.518H23V25.75h2.904v2.518h.363V25.75h2.54v-.36h-2.54v-2.877h2.54v-.36h-2.54v-2.518h-.363v2.518H23v-2.518zm11.252 0v2.518h-2.54v.36h2.54v2.877h-2.54v.36h2.54v2.518h.363V25.75h2.904v2.518h.363V25.75h2.54v-.36h-2.54v-2.877h2.54v-.36h-2.54v-2.518h-.363v2.518h-2.904v-2.518zm-22.14 2.878h2.903v2.877H11.75zm11.251 0h2.904v2.877H23zm11.252 0h2.904v2.877h-2.904zm-22.866 8.273v2.517H8.845v.36h2.54v3.057h-2.54v.36h2.54v2.338h.364V37.08h2.903v2.338h.363V37.08h2.54v-.36h-2.54v-3.057h2.54v-.36h-2.54v-2.517h-.363v2.517H11.75v-2.517zm11.251 0v2.517h-2.54v.36h2.54v3.057h-2.54v.36h2.54v2.338H23V37.08h2.904v2.338h.363V37.08h2.54v-.36h-2.54v-3.057h2.54v-.36h-2.54v-2.517h-.363v2.517H23v-2.517zm11.252 0v2.517h-2.54v.36h2.54v3.057h-2.54v.36h2.54v2.338h.363V37.08h2.904v2.338h.363V37.08h2.54v-.36h-2.54v-3.057h2.54v-.36h-2.54v-2.517h-.363v2.517h-2.904v-2.517zm-22.14 2.877h2.903v3.057H11.75zm11.251 0h2.904v3.057H23zm11.252 0h2.904v3.057h-2.904z" id="path5495" color="#000" display="inline" overflow="visible" visibility="visible" opacity="1" fill="#cfcdc4" fill-opacity="1" fill-rule="nonzero" stroke="none" stroke-width=".383" enable-background="accumulate"/><path d="M88-15h96c12 0 16 0 16 16v96c0 16-4 16-16 16H88c-12 0-16 0-16-16V1c0-16 4-16 16-16z" id="path12938" transform="matrix(.09074 0 0 .08992 .86 19.995)" display="inline" opacity=".2" fill="#000" fill-opacity="1" stroke="none" stroke-width="16" stroke-miterlimit="4" stroke-dasharray="none" stroke-opacity="1" filter="url(#filter12940)" enable-background="new"/><path id="path12932" d="M88-19h96c12 0 16 0 16 16v96c0 16-4 16-16 16H88c-12 0-16 0-16-16V-3c0-16 4-16 16-16z" transform="matrix(.09074 0 0 .08992 .86 19.995)" display="inline" opacity=".1" fill="#000" fill-opacity="1" stroke="none" stroke-width="16" stroke-miterlimit="4" stroke-dasharray="none" stroke-opacity="1" filter="url(#filter12934)" enable-background="new"/><path d="M8.845 18.197h8.71c1.09 0 1.453 0 1.453 1.438v8.633c0 1.438-.363 1.438-1.452 1.438H8.845c-1.09 0-1.452 0-1.452-1.438v-8.633c0-1.438.363-1.438 1.452-1.438z" id="rect12893" display="inline" opacity="1" fill="#f2f2f2" fill-opacity="1" stroke="none" stroke-width="1.445" stroke-miterlimit="4" stroke-dasharray="none" stroke-opacity="1" enable-background="new"/><path id="path12895" d="M11.386 19.635v2.518H8.845v.36h2.54v2.877h-2.54v.36h2.54v2.518h.364V25.75h2.903v2.518h.363V25.75h2.54v-.36h-2.54v-2.877h2.54v-.36h-2.54v-2.518h-.363v2.518H11.75v-2.518zm.363 2.878h2.903v2.877H11.75z" style="marker:none" color="#000" display="inline" overflow="visible" visibility="visible" opacity=".5" fill="#000" fill-opacity="1" fill-rule="nonzero" stroke="none" stroke-width=".383" enable-background="accumulate"/><path d="M8.845 18.197c-1.09 0-1.452 0-1.452 1.438v.09c0-1.438.363-1.438 1.452-1.438h8.71c1.09 0 1.453 0 1.453 1.438v-.09c0-1.438-.363-1.438-1.452-1.438z" id="path12927" display="inline" opacity="1" fill="#fff" fill-opacity="1" stroke="none" stroke-width="1.445" stroke-miterlimit="4" stroke-dasharray="none" stroke-opacity="1" enable-background="new"/><path id="path953-2" d="M18.282 7.406v10.431H7.756v.72h10.526v10.79H7.756v.72h10.526v10.43h.726v-10.43h10.889v10.43h.725v-10.43h10.526v-.72H30.622v-10.79h10.526v-.72H30.622V7.407h-.725v10.43h-10.89V7.407zm.726 11.15h10.889v10.79h-10.89z" style="marker:none" color="#000" display="inline" overflow="visible" visibility="visible" opacity="1" fill="#84786c" fill-opacity="1" fill-rule="nonzero" stroke="none" stroke-width=".542" enable-background="accumulate"/></svg>