<svg xmlns="http://www.w3.org/2000/svg" xmlns:xlink="http://www.w3.org/1999/xlink" width="48" height="48" version="1.1" id="svg38"><defs id="defs22"><linearGradient id="linearGradient4477"><stop offset="0" id="stop4479" stop-color="#3489f3" stop-opacity="1"/><stop offset="1" id="stop4481" stop-color="#24b3c6" stop-opacity="1"/></linearGradient><linearGradient id="linearGradient4488"><stop id="stop4490" offset="0" stop-color="#000" stop-opacity=".047"/><stop id="stop4492" offset="1" stop-color="#000" stop-opacity="0"/></linearGradient><style id="style4511"/><style id="style4511-26"/><style id="style4511-9"/><style id="style4552"/><style id="style4511-2"/><linearGradient xlink:href="#linearGradient4488" id="linearGradient4546" gradientUnits="userSpaceOnUse" gradientTransform="translate(-62.497 1.994) scale(.3038)" x1="288.112" y1="141.785" x2="287.575" y2="79.008"/><linearGradient xlink:href="#linearGradient4477" id="linearGradient4483" x1="2.974" y1="23.586" x2="45.221" y2="23.586" gradientUnits="userSpaceOnUse"/></defs><style id="style4485" type="text/css"/><path d="M3.141 26.22v1.67c0 9.573 5.583 17.281 17.146 17.281h6.93c15.133 0 17.837-11.322 17.837-17.282v-1.668c0 5.96-2.704 17.282-17.837 17.282h-6.93c-11.563 0-17.146-7.708-17.146-17.282z" id="path4528" opacity="1" fill="url(#linearGradient4546)" fill-opacity="1" stroke="none" stroke-width="1.1" stroke-linecap="square" stroke-linejoin="bevel" stroke-miterlimit="4" stroke-dasharray="none" stroke-dashoffset="0" stroke-opacity=".078"/><path d="M19.754 2.742h8.495c13.908 0 16.805 11.247 16.805 17.282v7.124c0 5.96-2.704 17.282-17.837 17.282h-6.93c-11.562 0-17.146-7.708-17.146-17.282v-7.124c0-9.574 5.47-17.282 16.613-17.282z" id="path4530" opacity="1" fill="url(#linearGradient4483)" fill-opacity="1" stroke="#000" stroke-width=".334" stroke-linecap="square" stroke-linejoin="bevel" stroke-miterlimit="4" stroke-dasharray="none" stroke-dashoffset="0" stroke-opacity=".078"/><path id="path13249-9" d="M23.9 9.742c-.35.005-.734.019-.985.04-1.135.1-1.942.265-3.105.636a13.672 13.672 0 0 0-4.332 2.334 14.234 14.234 0 0 0-2.838 3.05 13.819 13.819 0 0 0-2.242 5.653c-.585 3.694.358 7.448 2.63 10.482 2.31 3.084 5.842 5.077 9.712 5.48.28.03 2.389.012 2.834-.023.787-.062 1.9-.304 2.88-.629a13.915 13.915 0 0 0 8.805-8.783c.335-1 .526-1.893.652-3.057a18.04 18.04 0 0 0 .038-2.199c-.145-2.127-.751-4.122-1.832-6.03-1.076-1.896-2.707-3.613-4.526-4.765-.981-.621-2.392-1.284-3.277-1.54-.25-.073-.327-.077-.383-.014-.036.039-.284.878-.309 1.042-.007.047.041.069.5.227.535.184.715.254 1.118.434a12.709 12.709 0 0 1 5.808 5.246c.203.353.618 1.21.756 1.56.435 1.105.752 2.368.842 3.358.02.225.03.734.031 1.425 0 1.134-.007 1.257-.135 2.006a12.78 12.78 0 0 1-1.617 4.399c-.49.818-.95 1.432-1.578 2.105-2.016 2.164-4.61 3.51-7.592 3.936-.707.1-2.275.113-3.07.023a12.811 12.811 0 0 1-4.977-1.664 12.953 12.953 0 0 1-4.132-3.93c-.854-1.291-1.412-2.608-1.788-4.216-.23-.983-.242-1.126-.242-2.707 0-1.539.02-1.776.23-2.696.56-2.44 1.616-4.403 3.292-6.117a12.356 12.356 0 0 1 5.02-3.15 14.336 14.336 0 0 1 1.628-.434c.448-.085 1.813-.241 1.844-.21.008.008.002.773-.014 1.7-.04 2.454-.129 14.637-.115 15.97.006.624.02 1.167.03 1.206.022.09.185.253.312.315a.59.59 0 0 0 .265.048c.242.001.369-.07.75-.416 1.351-1.227 7.45-7.361 8.135-8.181.067-.08.117-.165.117-.197 0-.064-.165-.227-.517-.508-.288-.23-.31-.24-.397-.196-.038.02-.448.425-.912.9a515.122 515.122 0 0 1-5.138 5.192l-1.385 1.375-.006-.615c-.007-.56.099-15.141.123-17.03l.012-.8-.137-.02a7.357 7.357 0 0 0-.783-.015zM16.376 21.16l-.38.38c-.21.21-.417.421-.458.471l-.072.092.117.139c.065.075 1.194 1.218 2.51 2.539l2.393 2.402.017-.94.018-.939-2.072-2.072-2.073-2.072z" fill="#fff" fill-opacity="1" stroke="none" stroke-width=".006" stroke-miterlimit="4" stroke-dasharray="none" stroke-opacity="1"/></svg>