<svg xmlns:osb="http://www.openswatchbook.org/uri/2009/osb" xmlns="http://www.w3.org/2000/svg" xmlns:xlink="http://www.w3.org/1999/xlink" width="48" height="48" version="1.1" id="svg38"><defs id="defs22"><linearGradient id="linearGradient4488"><stop id="stop4490" offset="0" stop-color="#000" stop-opacity=".047"/><stop id="stop4492" offset="1" stop-color="#000" stop-opacity="0"/></linearGradient><style id="style4511"/><style id="style4511-26"/><style id="style4511-9"/><style id="style4552"/><style id="style4511-2"/><linearGradient xlink:href="#linearGradient4488" id="linearGradient4540" gradientUnits="userSpaceOnUse" gradientTransform="translate(-62.889 1.994) scale(.3038)" x1="288.112" y1="141.785" x2="287.575" y2="79.008"/><linearGradient osb:paint="solid" id="linearGradient5293"><stop id="stop5295" offset="0" stop-color="#9a89c0" stop-opacity="1"/></linearGradient></defs><style id="style4485" type="text/css"/><path id="path4516" d="M2.75 26.22v1.67c0 9.573 5.583 17.281 17.146 17.281h6.93c15.132 0 17.836-11.322 17.836-17.282v-1.668c0 5.96-2.704 17.282-17.836 17.282h-6.93C8.333 43.503 2.75 35.795 2.75 26.22z" opacity="1" fill="url(#linearGradient4540)" fill-opacity="1" stroke="none" stroke-width="1.1" stroke-linecap="square" stroke-linejoin="bevel" stroke-miterlimit="4" stroke-dasharray="none" stroke-dashoffset="0" stroke-opacity=".078"/><path id="path4518" d="M19.524 2.742H28.1c14.042 0 16.967 11.247 16.967 17.282v7.124c0 5.96-2.73 17.282-18.01 17.282h-6.996C8.387 44.43 2.75 36.722 2.75 27.148v-7.124c0-9.574 5.523-17.282 16.774-17.282z" opacity="1" fill="#37ae50" fill-opacity="1" stroke="#000" stroke-width=".336" stroke-linecap="square" stroke-linejoin="bevel" stroke-miterlimit="4" stroke-dasharray="none" stroke-dashoffset="0" stroke-opacity=".078"/><g id="g1491" transform="matrix(1.02958 0 0 1.03451 -.802 -1.242)" fill="#fff"><path d="M25.793 22.043l-6.711-6.711a.999.999 0 0 1 0-1.414l4.211-4.211a.999.999 0 0 1 1.414 0l6.711 6.711a.999.999 0 0 1 0 1.414l-4.211 4.211a1 1 0 0 1-1.414 0z" id="path1483"/><path d="M23.293 38.293l-6.711-6.711a.999.999 0 0 1 0-1.414l4.211-4.211a.999.999 0 0 1 1.414 0l6.711 6.711a.999.999 0 0 1 0 1.414l-4.211 4.211a1 1 0 0 1-1.414 0z" id="path1485"/><path d="M9.707 23.293l6.711-6.711a.999.999 0 0 1 1.414 0l4.211 4.211a.999.999 0 0 1 0 1.414l-6.711 6.711a.999.999 0 0 1-1.414 0l-4.211-4.211a1 1 0 0 1 0-1.414z" id="path1487"/><path d="M25.957 25.793l6.711-6.711a.999.999 0 0 1 1.414 0l4.211 4.211a.999.999 0 0 1 0 1.414l-6.711 6.711a.999.999 0 0 1-1.414 0l-4.211-4.211a1 1 0 0 1 0-1.414z" id="path1489"/></g></svg>