<svg xmlns:osb="http://www.openswatchbook.org/uri/2009/osb" xmlns="http://www.w3.org/2000/svg" xmlns:xlink="http://www.w3.org/1999/xlink" width="48" height="48" version="1.1" id="svg38"><defs id="defs22"><linearGradient id="linearGradient4488"><stop id="stop4490" offset="0" stop-color="#000" stop-opacity=".047"/><stop id="stop4492" offset="1" stop-color="#000" stop-opacity="0"/></linearGradient><style id="style4511"/><style id="style4511-26"/><style id="style4511-9"/><style id="style4552"/><style id="style4511-2"/><linearGradient xlink:href="#linearGradient4488" id="linearGradient4540" gradientUnits="userSpaceOnUse" gradientTransform="matrix(.30902 0 0 .3038 -64.017 1.994)" x1="288.112" y1="141.785" x2="287.575" y2="79.008"/><linearGradient osb:paint="solid" id="linearGradient5293"><stop id="stop5295" offset="0" stop-color="#9a89c0" stop-opacity="1"/></linearGradient></defs><style id="style4485" type="text/css"/><g id="g1538" fill-opacity="1" stroke-linejoin="bevel" stroke-miterlimit="4" stroke-dasharray="none"><path d="M2.75 26.22v1.67c0 9.573 5.68 17.281 17.44 17.281h7.05c15.392 0 18.143-11.322 18.143-17.282v-1.668c0 5.96-2.75 17.282-18.143 17.282h-7.05c-11.76 0-17.44-7.708-17.44-17.282z" id="path4516" opacity="1" fill="url(#linearGradient4540)" stroke="none" stroke-width="1.109" stroke-linecap="square" stroke-dashoffset="0" stroke-opacity=".078"/><path d="M19.649 2.744h8.64c14.146 0 17.092 11.465 17.092 17.618v7.262c0 6.075-2.75 17.618-18.141 17.618h-7.05c-11.76 0-17.439-7.858-17.439-17.618v-7.262c0-9.76 5.564-17.618 16.898-17.618z" id="path4518" opacity="1" fill="#ececec" stroke="#000" stroke-width=".34" stroke-linecap="square" stroke-dashoffset="0" stroke-opacity=".078"/><g transform="translate(0 -.962)" id="g1531" stroke="none" stroke-linecap="round" stroke-opacity="1"><path d="M24.066 9.617A15.044 15.388 0 0 0 9.022 25.006 15.044 15.388 0 0 0 16.56 38.32l.985-6.932a9.027 9.237 0 0 1-2.505-6.382 9.027 9.237 0 0 1 9.026-9.237 9.027 9.237 0 0 1 9.027 9.237 9.027 9.237 0 0 1-2.369 6.22l.993 7.01a15.044 15.388 0 0 0 7.394-13.23A15.044 15.388 0 0 0 24.066 9.617z" id="path1515" opacity="1" fill="#ff9003" stroke-width="1.883"/><path d="M24.066 21.025c-2.47 0-4.472 2.049-4.472 4.576 0 1.826 1.061 3.477 2.699 4.2l-1.947 10.49 7.575-.051-2.087-10.44c1.64-.722 2.703-2.372 2.705-4.199 0-2.527-2.002-4.576-4.473-4.576z" id="path1527" opacity="1" fill="#0a3667" stroke-width="1.963"/></g></g></svg>