<svg xmlns:osb="http://www.openswatchbook.org/uri/2009/osb" xmlns="http://www.w3.org/2000/svg" xmlns:xlink="http://www.w3.org/1999/xlink" width="48" height="48" version="1.1" id="svg38"><defs id="defs22"><linearGradient id="linearGradient4488"><stop id="stop4490" offset="0" stop-color="#000" stop-opacity=".047"/><stop id="stop4492" offset="1" stop-color="#000" stop-opacity="0"/></linearGradient><style id="style4511"/><style id="style4511-26"/><style id="style4511-9"/><style id="style4552"/><style id="style4511-2"/><linearGradient xlink:href="#linearGradient4488" id="linearGradient4540" gradientUnits="userSpaceOnUse" gradientTransform="matrix(-.00052 .30406 -.2948 -.00054 45.95 -62.006)" x1="288.112" y1="141.785" x2="287.575" y2="79.008"/><linearGradient osb:paint="solid" id="linearGradient5293"><stop id="stop5295" offset="0" stop-color="#9a89c0" stop-opacity="1"/></linearGradient><style id="style4511-87"/><style id="style4511-26-7"/><style id="style4511-9-1"/><style id="style4552-53"/><style id="style4511-2-9"/><style id="style4511-8"/><style id="style4511-26-4"/><style id="style4511-9-8"/><style id="style4552-5"/><style id="style4511-2-5"/><style id="style4511-879"/><style id="style4511-26-76"/><style id="style4511-9-2"/><style id="style4552-8"/><style id="style4511-2-0"/></defs><style id="style4485" type="text/css"/><style type="text/css" id="style4485-7"/><style id="style4485-6" type="text/css"/><style type="text/css" id="style4485-3"/><path id="path4516" d="M22.328 3.645l-1.619-.003c-9.29-.017-16.78 5.557-16.8 17.13l-.012 6.936C3.871 42.853 14.854 45.58 20.637 45.59l1.62.003c-5.784-.01-16.767-2.737-16.74-17.882l.011-6.936c.02-11.573 7.51-17.147 16.8-17.13z" opacity="1" fill="url(#linearGradient4540)" fill-opacity="1" stroke="none" stroke-width="1.084" stroke-linecap="square" stroke-linejoin="bevel" stroke-miterlimit="4" stroke-dasharray="none" stroke-dashoffset="0" stroke-opacity=".078"/><path d="M45.083 20.314c.02-11.152-7.45-16.641-16.741-16.658l-4.166-.008-.072 41.948 4.166.008c5.857.01 16.775-2.869 16.799-16.789z" id="path4518" opacity="1" fill="#9b6e3e" fill-opacity="1" stroke="#000" stroke-width=".329" stroke-linecap="square" stroke-linejoin="bevel" stroke-miterlimit="4" stroke-dasharray="none" stroke-dashoffset="0" stroke-opacity=".078"/><path d="M3.23 28.96c-.005 11.152 7.472 16.63 16.763 16.634l4.166.002.017-41.947-4.166-.002C14.153 3.644 3.24 6.539 3.233 20.458z" id="path4518-7" opacity="1" fill="#9b6e3e" fill-opacity="1" stroke="#000" stroke-width=".329" stroke-linecap="square" stroke-linejoin="bevel" stroke-miterlimit="4" stroke-dasharray="none" stroke-dashoffset="0" stroke-opacity=".078"/><path id="path4518-0" d="M5.029 28.725v-7.79c0-12.755 10.356-15.41 15.913-15.41h6.56c5.487 0 15.913 2.479 15.913 16.356v6.355c0 10.604-7.098 15.724-15.914 15.724h-6.559c-8.816 0-15.913-5.017-15.913-15.235z" opacity=".77" fill="#c49a6c" fill-opacity="1" stroke="#000" stroke-width=".307" stroke-linecap="square" stroke-linejoin="bevel" stroke-miterlimit="4" stroke-dasharray="none" stroke-dashoffset="0" stroke-opacity=".078"/><g id="g2266" transform="matrix(1.0375 0 0 1.125 -1.258 -2.546)"><path id="path2262" d="M35.559 18.37h8v12h-8c-1.108 0-2-.892-2-2v-8c0-1.108.892-2 2-2z" fill="#9b6e3e"/><g id="g2268" transform="translate(3.559 1.37)"><path id="path2264" d="M36 23a2 2 0 0 1-2 2 2 2 0 0 1-2-2 2 2 0 0 1 2-2 2 2 0 0 1 2 2z" fill="#c8c8c8"/><path id="path2266" d="M35.5 22.25A1.5 1.25 0 0 1 34 23.5a1.5 1.25 0 0 1-1.5-1.25A1.5 1.25 0 0 1 34 21a1.5 1.25 0 0 1 1.5 1.25z" fill="#fff"/></g></g><path d="M36.256 18.964v.281l-.026-.28-.097.012.054.558.07-.009h1.037v-.562h-1.038zm1.557 0v.562h1.037v-.562zm1.556 0v.562h1.037v-.562zm1.556 0v.562h1.038v-.562zm1.556 0v.562h.675v-.562zm-6.903.145l-.047.015-.026.009-.023.013-.281.174-.023.013-.02.017-.245.229-.018.018-.017.022-.202.276-.014.022-.013.025-.006.013.296.167.144.123.19-.26.201-.188.24-.146.022-.008-.003-.005.004-.002-.01-.018-.15-.51zm-1.157 1.41l-.039.143-.008.024-.002.029-.033.378-.002.013v.61h.519v-.597l.03-.327.03-.112-.496-.16zm-.084 1.76v1.125h.52V22.28zm0 1.688v1.125h.52v-1.125zm0 1.687v1.125h.52v-1.125zm0 1.688v1.125h.52v-1.125zm.55 1.604l-.497.16.087.326.008.026.013.022.151.319.013.024.014.022.202.276.017.022.018.018.05.046.339-.426-.028-.026-.175-.238-.131-.274-.081-.297zm.796 1.125l-.253.49.052.033.023.013.026.009.31.11.026.009.027.002.336.037.014.003h.324v-.563h-.312l-.285-.035-.262-.092-.026-.016zm1.404.143v.562h1.038v-.562zm1.556 0v.562h1.038v-.562zm1.557 0v.562h1.037v-.562zm1.556 0v.562h1.037v-.562z" id="path2270" fill="#fff" stroke-width="1.08"/><path d="M21.717 14.018l-3.55.324v13.869l3.512-.504v-5.913l4.726 6.56 3.7-1.114-4.838-6.309 4.877-5.949-3.777-.82-4.687 5.95.037-6.094zM13.67 17.4c-.04.008-.084.014-.114.044l-1.395 1.323a.163.163 0 0 0-.023.209l1.63 2.554a6.45 6.45 0 0 0-.69 1.481l-2.995.59a.179.179 0 0 0-.143.172v1.87c0 .08.063.148.144.166l2.905.67c.155.607.395 1.189.713 1.718l-1.684 2.432a.166.166 0 0 0 .023.216l1.395 1.323a.185.185 0 0 0 .22.021l2.64-1.517a7.2 7.2 0 0 0 1.668.661l.615 2.806c.017.08.088.137.174.137h1.972a.177.177 0 0 0 .175-.13l.728-2.82a7.163 7.163 0 0 0 1.714-.684l2.602 1.619a.19.19 0 0 0 .227-.021l1.388-1.324a.164.164 0 0 0 .03-.209l-.947-1.481-.311.093a.116.116 0 0 1-.122-.043s-.598-.836-1.38-1.92c-.935 1.734-2.84 2.92-5.036 2.92-3.12 0-5.65-2.4-5.65-5.36 0-2.176 1.372-4.045 3.337-4.884V18.65a7.162 7.162 0 0 0-1.032.432v-.008l-2.662-1.655a.17.17 0 0 0-.113-.02z" id="path2272-3" opacity="1" fill="#f2f2f2" fill-opacity="1" stroke-width="1.445"/></svg>