<svg xmlns="http://www.w3.org/2000/svg" xmlns:xlink="http://www.w3.org/1999/xlink" width="48" height="48" version="1.1" id="svg38"><defs id="defs22"><style id="style4511"/><style id="style4511-26"/><style id="style4511-9"/><style id="style4552"/><style id="style4511-2"/><linearGradient gradientTransform="translate(7 4)" gradientUnits="userSpaceOnUse" x2="21" y2="32" x1="8" y1="4" id="g-3"><stop id="stop32" stop-color="#bdc3c7"/><stop id="stop34" stop-color="#7f8c8d" offset="1"/></linearGradient><linearGradient gradientTransform="translate(-4.5 4)" gradientUnits="userSpaceOnUse" x2="0" y2="32" y1="36" id="b-6"><stop id="stop7-75" stop-color="#f39c12"/><stop id="stop9-35" stop-color="#f5ab35" offset="1"/></linearGradient><linearGradient gradientTransform="matrix(5 0 0 6.25 57.465 -10.718)" gradientUnits="userSpaceOnUse" x2="19" y2="33" x1="27" y1="44" id="a-6"><stop id="stop2-2" stop-color="#18222a"/><stop id="stop4-912" stop-color="#566069" offset="1"/></linearGradient><linearGradient xlink:href="#g-3" id="linearGradient530" gradientUnits="userSpaceOnUse" gradientTransform="translate(7 4)" x1="8" y1="4" x2="21" y2="32"/><linearGradient xlink:href="#b-6" id="linearGradient532" gradientUnits="userSpaceOnUse" gradientTransform="translate(-4.5 4)" y1="36" x2="0" y2="32"/><linearGradient xlink:href="#a-6" id="linearGradient534" gradientUnits="userSpaceOnUse" gradientTransform="matrix(5 0 0 6.25 57.465 -10.718)" x1="27" y1="44" x2="19" y2="33"/></defs><style id="style4485" type="text/css"/><path d="M19.046 2.965h8.495c13.908 0 16.805 11.246 16.805 17.282v7.123c0 5.96-2.704 17.282-17.837 17.282h-6.93c-11.562 0-17.146-7.708-17.146-17.282v-7.123c0-9.575 5.47-17.282 16.613-17.282z" id="rect4144" opacity="1" fill="#e6e6e6" fill-opacity="1" stroke="#000" stroke-width=".334" stroke-linecap="square" stroke-linejoin="bevel" stroke-miterlimit="4" stroke-dasharray="none" stroke-dashoffset="0" stroke-opacity=".078"/><path id="path14979" d="M7.78 14.968v-1.373h26.59v1.373z" style="marker:none" color="#000" display="inline" overflow="visible" visibility="visible" opacity="1" fill="#d18220" fill-opacity=".997" fill-rule="nonzero" stroke="none" stroke-width=".533"/><path id="path4235" d="M23.955 17.714v-1.373h14.582v1.373z" style="marker:none" color="#000" display="inline" overflow="visible" visibility="visible" opacity="1" fill="#d18220" fill-opacity=".997" fill-rule="nonzero" stroke="none" stroke-width=".533"/><path style="marker:none" d="M7.78 16.341v10.984h13.234V16.34z" id="rect4315" color="#000" display="inline" overflow="visible" visibility="visible" opacity="1" fill="#d18220" fill-opacity=".997" fill-rule="nonzero" stroke="none" stroke-width=".533"/><path style="marker:none" d="M23.955 20.46v-1.373h7.352v1.373z" id="path4631" color="#000" display="inline" overflow="visible" visibility="visible" opacity="1" fill="#d18220" fill-opacity=".997" fill-rule="nonzero" stroke="none" stroke-width=".533"/><path id="path4633" d="M23.955 23.193v-1.36h14.582v1.36z" style="marker:none" color="#000" display="inline" overflow="visible" visibility="visible" opacity="1" fill="#d18220" fill-opacity=".997" fill-rule="nonzero" stroke="none" stroke-width=".533"/><path style="marker:none" d="M7.78 32.817v-1.373h30.88v1.373z" id="path4635" color="#000" display="inline" overflow="visible" visibility="visible" opacity="1" fill="#d18220" fill-opacity=".997" fill-rule="nonzero" stroke="none" stroke-width=".533"/><path id="path4250" d="M17.6 19.087c-.837 0-1.516.634-1.516 1.416 0 .782.679 1.416 1.516 1.416.838 0 1.516-.634 1.516-1.416 0-.782-.678-1.416-1.516-1.416zm-4.567 1.276l-3.047 4.902h6.928l-2.025-3.623-.57 1.021z" style="marker:none" color="#000" display="inline" overflow="visible" visibility="visible" opacity="1" fill="#d18220" fill-opacity=".997" fill-rule="nonzero" stroke="none" stroke-width=".4"/><path style="marker:none" d="M23.955 25.94v-1.361h14.582v1.36z" id="path4725" color="#000" display="inline" overflow="visible" visibility="visible" opacity="1" fill="#d18220" fill-opacity=".997" fill-rule="nonzero" stroke="none" stroke-width=".533"/><path id="path4727" d="M7.78 30.07v-1.36h30.88v1.36z" style="marker:none" color="#000" display="inline" overflow="visible" visibility="visible" opacity="1" fill="#d18220" fill-opacity=".997" fill-rule="nonzero" stroke="none" stroke-width=".533"/><path style="marker:none" d="M7.78 35.563V34.19h19.116v1.373z" id="path14983" color="#000" display="inline" overflow="visible" visibility="visible" opacity="1" fill="#d18220" fill-opacity=".997" fill-rule="nonzero" stroke="none" stroke-width=".533"/><path style="marker:none" d="M7.78 12.222V10.85h30.88v1.373z" id="path14977" color="#000" display="inline" overflow="visible" visibility="visible" opacity="1" fill="#d18220" fill-opacity=".997" fill-rule="nonzero" stroke="none" stroke-width=".533"/><g id="g69" transform="matrix(.8867 0 0 .68926 7.628 14.199)" stroke-linejoin="bevel"><path d="M18 8a2 2 0 0 0-2 2 2 2 0 0 0 .855 1.637C15.39 16.06 12.71 23.29 10 26c0 0 4 6 4 10h10c0-4 4-10 4-10-2.71-2.71-5.387-9.93-6.85-14.361A2 2 0 0 0 22 10a2 2 0 0 0-2-2v18.27a2 2 0 1 1-2 .001V12z" id="path61" fill="url(#linearGradient530)" stroke-width="2"/><g id="g67" stroke-width="6.2"><path d="M14 36h10c.831 0 1.5.669 1.5 1.5S24.831 39 24 39H14c-.831 0-1.5-.669-1.5-1.5S13.169 36 14 36" id="path63" fill="url(#linearGradient532)"/><path d="M192.723 239.281c2.858-.194 5.685-.398 8.273-.687.523-.059.957-.153 1.469-.215V214.28h-50v25z" id="rect65" transform="matrix(.2 0 0 .2 -16.493 -3.856)" fill="url(#linearGradient534)" stroke-width="31" stroke-linecap="round"/></g></g></svg>