<svg xmlns:osb="http://www.openswatchbook.org/uri/2009/osb" xmlns="http://www.w3.org/2000/svg" xmlns:xlink="http://www.w3.org/1999/xlink" width="48" height="48" version="1.1" id="svg38"><defs id="defs22"><linearGradient id="linearGradient4488"><stop id="stop4490" offset="0" stop-color="#000" stop-opacity=".047"/><stop id="stop4492" offset="1" stop-color="#000" stop-opacity="0"/></linearGradient><style id="style4511"/><style id="style4511-26"/><style id="style4511-9"/><style id="style4552"/><style id="style4511-2"/><linearGradient xlink:href="#linearGradient4488" id="linearGradient4540" gradientUnits="userSpaceOnUse" gradientTransform="matrix(.30673 0 0 .3038 -63.522 1.994)" x1="288.112" y1="141.785" x2="287.575" y2="79.008"/><linearGradient osb:paint="solid" id="linearGradient5293"><stop id="stop5295" offset="0" stop-color="#9a89c0" stop-opacity="1"/></linearGradient><linearGradient osb:paint="solid" id="linearGradient5251"><stop id="stop5253" offset="0" stop-color="#2f343f" stop-opacity="1"/></linearGradient><linearGradient id="linearGradient4239"><stop id="stop4241" offset="0" stop-color="#1268f4" stop-opacity="1"/><stop id="stop4243" offset="1" stop-color="#02bdfd" stop-opacity="1"/></linearGradient><linearGradient xlink:href="#linearGradient4239" id="linearGradient1907" x1="2.746" y1="23.739" x2="45.073" y2="23.739" gradientUnits="userSpaceOnUse" gradientTransform="rotate(90 23.91 23.739)"/><radialGradient gradientUnits="userSpaceOnUse" gradientTransform="matrix(1 0 0 1.2375 -62.506 -12.234)" r="8" cy="27.9" cx="24" id="radialGradient4274"><stop id="stop1907" stop-color="#f9ed6f" stop-opacity="1"/><stop id="stop1909" offset="1" stop-color="#f8e950" stop-opacity="1"/></radialGradient></defs><style id="style4485" type="text/css"/><path id="path4516" d="M2.75 26.22v1.669c0 9.574 5.638 17.282 17.312 17.282h6.998c15.278 0 18.008-11.323 18.008-17.282V26.22c0 5.96-2.73 17.282-18.008 17.282h-6.998c-11.674 0-17.311-7.708-17.311-17.282z" opacity="1" fill="url(#linearGradient4540)" fill-opacity="1" stroke="none" stroke-width="1.105" stroke-linecap="square" stroke-linejoin="bevel" stroke-miterlimit="4" stroke-dasharray="none" stroke-dashoffset="0" stroke-opacity=".078"/><path id="path4518" d="M28.295 44.734h-8.577c-14.042 0-16.966-11.329-16.966-17.408v-7.175c0-6.003 2.73-17.408 18.008-17.408h6.997c11.673 0 17.31 7.764 17.31 17.408v7.175c0 9.644-5.522 17.408-16.772 17.408z" opacity="1" fill="url(#linearGradient1907)" fill-opacity="1" stroke="#000" stroke-width=".337" stroke-linecap="square" stroke-linejoin="bevel" stroke-miterlimit="4" stroke-dasharray="none" stroke-dashoffset="0" stroke-opacity=".078"/><g id="g1979" transform="matrix(1.07734 0 0 1 65.394 5.346)" stroke-width=".963" fill-opacity="1" stroke="none"><path id="path1932" d="M-38.506 4.393a2 2 0 0 0-2 2 2 2 0 0 0 2 2 2 2 0 0 0 2-2 2 2 0 0 0-2-2zm0 1a1 1 0 0 1 1 1 1 1 0 0 1-1 1 1 1 0 0 1-1-1 1 1 0 0 1 1-1z" opacity="1" fill="#1a303e"/><path id="path1934" d="M-46.506 14.893c6-3.5 10-3.5 16 0 0 3.5-.944 17.324-8 17.3-7.06-.024-8-13.8-8-17.3" opacity="1" fill="url(#radialGradient4274)"/><path id="path1936" d="M-42.506 8.393l4-2 4 2v2l3 1 1 3.5-6-1.5v18.5l-2 .5-2-.5v-18.5l-6 1.5 1-3.5 3-1z" opacity="1" fill="#1a303e"/></g></svg>