<svg xmlns="http://www.w3.org/2000/svg" xmlns:xlink="http://www.w3.org/1999/xlink" width="48" height="48" version="1.1" id="svg38"><defs id="defs22"><linearGradient id="linearGradient4488"><stop id="stop4490" offset="0" stop-color="#000" stop-opacity=".047"/><stop id="stop4492" offset="1" stop-color="#000" stop-opacity="0"/></linearGradient><style id="style4511"/><style id="style4511-26"/><style id="style4511-9"/><style id="style4552"/><style id="style4511-2"/><linearGradient xlink:href="#linearGradient4488" id="linearGradient4548" gradientUnits="userSpaceOnUse" gradientTransform="matrix(.30791 0 0 .30817 -63.719 1.983)" x1="288.112" y1="141.785" x2="287.575" y2="79.008"/><linearGradient gradientTransform="rotate(-90 -2.1 48.862)" gradientUnits="userSpaceOnUse" x2="47" x1="1" id="linearGradient3764-36-7" y1="0" y2="0" spreadMethod="pad"><stop id="stop1188" stop-opacity="1" stop-color="#e2262b"/><stop id="stop1190" stop-opacity="1" stop-color="#e4383e" offset="1"/></linearGradient><clipPath id="clipPath-920380656"/><linearGradient xlink:href="#linearGradient3764-36-7" id="linearGradient1310" x1="2.639" y1="23.886" x2="45.458" y2="23.886" gradientUnits="userSpaceOnUse"/></defs><style id="style4485" type="text/css"/><path stroke-miterlimit="4" id="path4534" d="M19.647 2.742h8.61c14.096 0 17.032 11.409 17.032 17.53V27.5c0 6.045-2.741 17.53-18.079 17.53h-7.023c-11.72 0-17.379-7.818-17.379-17.53v-7.226c0-9.712 5.545-17.53 16.839-17.53z" opacity="1" fill="url(#linearGradient1310)" fill-opacity="1" stroke="#000" stroke-width=".339" stroke-linecap="square" stroke-linejoin="bevel" stroke-dasharray="none" stroke-dashoffset="0" stroke-opacity=".078"/><path stroke-miterlimit="4" id="path4532" d="M2.808 26.558v1.693c0 9.712 5.66 17.53 17.378 17.53h7.025c15.337 0 18.077-11.485 18.077-17.53v-1.693c0 6.045-2.74 17.53-18.077 17.53h-7.025c-11.719 0-17.378-7.818-17.378-17.53z" opacity="1" fill="url(#linearGradient4548)" fill-opacity="1" stroke="none" stroke-width="1.115" stroke-linecap="square" stroke-linejoin="bevel" stroke-dasharray="none" stroke-dashoffset="0" stroke-opacity=".078"/><path id="path1231" d="M17.638 31.806c-.52-.07-1.445-.371-2.062-.668-4.02-1.926-5.664-6.777-3.684-10.863 2.262-4.672 8.434-5.863 12.148-2.344 1.074 1.016 1.551 1.883 3.168 5.727 1.688 4.02 2 4.652 2.547 5.188.586.57 1.129.762 2.168.762 1.707 0 2.926-1.055 2.926-2.527 0-1.246-.438-1.645-2.672-2.438-3.402-1.227-4.504-2.336-4.508-4.563 0-1.188.301-1.98 1.066-2.801 1.098-1.172 2.992-1.559 4.668-.977.715.254 2.211 1.578 2.211 1.957 0 .184-.867.746-1.348.879-.254.066-.473-.02-.766-.301-.594-.57-.996-.746-1.707-.746-1.227 0-1.988.738-1.988 1.93 0 1.188.484 1.59 2.902 2.406 3.332 1.125 4.316 2.141 4.336 4.492.02 2.031-.895 3.496-2.715 4.363-.828.391-1.109.441-2.461.441-1.93-.004-2.797-.359-3.879-1.578-.727-.82-1.465-2.359-3.828-7.977-.98-2.328-2.238-3.469-4.336-3.918-1.063-.227-2.543-.016-3.508.492-.941.492-1.992 1.602-2.488 2.617-.41.824-.449 1.055-.449 2.488 0 1.367.055 1.691.398 2.441.52 1.145 1.543 2.203 2.668 2.773.813.41 1.066.461 2.363.461 1.246 0 1.566-.059 2.309-.414.848-.414 1.988-1.43 2.453-2.191l.242-.395.477 1.09c.266.602.48 1.168.48 1.27 0 .301-1.078 1.285-2.066 1.898-1.5.926-3.223 1.273-5.063 1.023m-.004-.004" fill="#fff" fill-opacity="1" fill-rule="nonzero" stroke="none"/></svg>