<svg xmlns="http://www.w3.org/2000/svg" xmlns:xlink="http://www.w3.org/1999/xlink" width="48" height="48" version="1.1" id="svg38"><defs id="defs22"><linearGradient id="linearGradient4488"><stop id="stop4490" offset="0" stop-color="#000" stop-opacity=".047"/><stop id="stop4492" offset="1" stop-color="#000" stop-opacity="0"/></linearGradient><style id="style4511"/><style id="style4511-26"/><style id="style4511-9"/><style id="style4552"/><linearGradient id="c-70" y1="542.8" y2="533.8" gradientUnits="userSpaceOnUse" x2="0" gradientTransform="translate(0 -28)"><stop stop-color="#bcb4a1" id="stop12-9"/><stop offset="1" stop-color="#c5bfad" id="stop14-360"/></linearGradient><style id="style4511-2"/><linearGradient gradientTransform="translate(-63.205 2.216) scale(.3038)" xlink:href="#linearGradient4488" id="linearGradient4160" x1="288.112" y1="141.785" x2="287.575" y2="79.008" gradientUnits="userSpaceOnUse"/><linearGradient xlink:href="#c-70" id="linearGradient1147" x1="2.266" y1="23.808" x2="44.513" y2="23.808" gradientUnits="userSpaceOnUse"/></defs><style id="style4485" type="text/css"/><path d="M2.433 26.443v1.668c0 9.575 5.583 17.282 17.146 17.282h6.93c15.133 0 17.837-11.322 17.837-17.282v-1.668c0 5.96-2.704 17.282-17.837 17.282h-6.93c-11.563 0-17.146-7.708-17.146-17.282z" id="path4147" opacity="1" fill="url(#linearGradient4160)" fill-opacity="1" stroke="none" stroke-width="1.1" stroke-linecap="square" stroke-linejoin="bevel" stroke-miterlimit="4" stroke-dasharray="none" stroke-dashoffset="0" stroke-opacity=".078"/><path d="M19.046 2.965h8.495c13.908 0 16.805 11.246 16.805 17.282v7.123c0 5.96-2.704 17.282-17.837 17.282h-6.93c-11.562 0-17.146-7.708-17.146-17.282v-7.123c0-9.575 5.47-17.282 16.613-17.282z" id="rect4144" opacity="1" fill="url(#linearGradient1147)" fill-opacity="1" stroke="#000" stroke-width=".334" stroke-linecap="square" stroke-linejoin="bevel" stroke-miterlimit="4" stroke-dasharray="none" stroke-dashoffset="0" stroke-opacity=".078"/><path style="line-height:125%;-inkscape-font-specification:'Tangerine Bold'" d="M33.073 9.325c-1.119 0-2.193.296-3.223.887-1.007.568-1.958 1.399-2.853 2.49-.873 1.069-1.667 2.388-2.383 3.957-.716 1.546-1.33 3.296-1.846 5.252-.358 1.387-.716 2.559-1.074 3.514-.358.955-.727 1.75-1.107 2.386-.828-.318-1.646-.879-2.451-1.084a8.617 8.617 0 0 0-2.416-.34 4.96 4.96 0 0 0-1.78.307 5.451 5.451 0 0 0-1.341.75c-.38.296-.683.614-.907.955-.201.341-.302.959-.302 1.254 0 .478.224.877.671 1.196.448.318 1.119.476 2.014.476 2.372 0 4.374-.626 6.008-1.877 1.03.455 2.082.888 3.156 1.297 1.097.387 2.305.58 3.625.58 1.5 0 2.697-.318 3.592-.955.895-.66 1.41-1.503 1.947-2.73.023-.138-.01-.229-.1-.274-.067-.068-.146-.068-.236 0-.38.773-.66 1.265-1.242 1.674-.582.41-1.432.613-2.55.613-1.343 0-2.575-.147-3.694-.443a39.63 39.63 0 0 1-3.154-1.057c1.387-1.66 2.472-4.013 3.255-7.06.47-1.91.928-3.502 1.375-4.776.448-1.273.93-2.284 1.444-3.035.515-.773 1.075-1.208 1.68-1.504.626-.318 1.364-.476 2.214-.476.627 0 1.14.114 1.543.342.426.204.74.477.942.818.201.341.311.616.334 1.025.022.41-.032 1.218-.166 1.627-.023.115.01.193.1.238a.289.289 0 0 0 .302-.033c.224-.386.435-1.276.637-1.867.201-.614.303-1.149.303-1.603 0-.705-.214-1.296-.64-1.774-.424-.5-.983-.75-1.677-.75zm-18.83 18.188c.962 0 1.868.135 2.719.408.85.273 1.69.892 2.517 1.256-.514.5-1.097.841-1.746 1.023-.626.159-1.343.238-2.148.238-.918 0-1.634-.147-2.149-.443-.492-.295-.738-.97-.738-1.426 0-.705.516-1.056 1.545-1.056zm3.147 6.812a2 2 0 0 0-2 2 2 2 0 0 0 2 2 2 2 0 0 0 2-2 2 2 0 0 0-2-2zm12 0a2 2 0 0 0-2 2 2 2 0 0 0 2 2 2 2 0 0 0 2-2 2 2 0 0 0-2-2zm-6 2a2 2 0 0 0-2 2 2 2 0 0 0 2 2 2 2 0 0 0 2-2 2 2 0 0 0-2-2z" id="path4162-9" font-style="normal" font-variant="normal" font-weight="700" font-stretch="normal" font-size="medium" font-family="Tangerine" letter-spacing="0" word-spacing="0" fill="#2b0000" fill-opacity="1" stroke="none" stroke-width="1" stroke-linecap="butt" stroke-linejoin="miter" stroke-opacity="1"/></svg>