<svg xmlns="http://www.w3.org/2000/svg" xmlns:xlink="http://www.w3.org/1999/xlink" width="48" height="48" version="1.1" id="svg38"><defs id="defs22"><linearGradient id="linearGradient4499"><stop offset="0" id="stop4501" stop-color="#2b86be" stop-opacity="1"/><stop offset="1" id="stop4503" stop-color="#31b8a2" stop-opacity="1"/></linearGradient><linearGradient id="linearGradient4488"><stop id="stop4490" offset="0" stop-color="#000" stop-opacity=".047"/><stop id="stop4492" offset="1" stop-color="#000" stop-opacity="0"/></linearGradient><style id="style4511"/><style id="style4511-26"/><style id="style4511-9"/><style id="style4552"/><style id="style4511-2"/><linearGradient xlink:href="#linearGradient4488" id="linearGradient4544" gradientUnits="userSpaceOnUse" gradientTransform="translate(-62.887 1.994) scale(.3038)" x1="288.112" y1="141.785" x2="287.575" y2="79.008"/><linearGradient xlink:href="#linearGradient4499" id="linearGradient4505" x1="14.788" y1="42.705" x2="22.866" y2="2.84" gradientUnits="userSpaceOnUse"/></defs><style id="style4485" type="text/css"/><path id="path4524" d="M2.752 26.22v1.67c0 9.573 5.583 17.281 17.146 17.281h6.93c15.133 0 17.837-11.322 17.837-17.282v-1.668c0 5.96-2.704 17.282-17.837 17.282h-6.93c-11.563 0-17.146-7.708-17.146-17.282z" opacity="1" fill="url(#linearGradient4544)" fill-opacity="1" stroke="none" stroke-width="1.1" stroke-linecap="square" stroke-linejoin="bevel" stroke-miterlimit="4" stroke-dasharray="none" stroke-dashoffset="0" stroke-opacity=".078"/><path id="path4526" d="M19.365 2.742h8.495c13.908 0 16.805 11.247 16.805 17.282v7.124c0 5.96-2.705 17.282-17.837 17.282h-6.93c-11.563 0-17.146-7.708-17.146-17.282v-7.124c0-9.574 5.47-17.282 16.613-17.282z" opacity="1" fill="url(#linearGradient4505)" fill-opacity="1" stroke="#000" stroke-width=".334" stroke-linecap="square" stroke-linejoin="bevel" stroke-miterlimit="4" stroke-dasharray="none" stroke-dashoffset="0" stroke-opacity=".078"/><path d="M16.418 14.469a1.692 1.692 0 0 0-1.693 1.692 1.692 1.692 0 0 0 1.693 1.69 1.692 1.692 0 0 0 1.69-1.69 1.692 1.692 0 0 0-1.69-1.692zm7.426 0a1.692 1.692 0 0 0-1.692 1.692 1.692 1.692 0 0 0 1.692 1.69 1.692 1.692 0 0 0 1.69-1.69 1.692 1.692 0 0 0-1.69-1.692zm7.155 0a1.692 1.692 0 0 0-1.693 1.692 1.692 1.692 0 0 0 1.693 1.69 1.692 1.692 0 0 0 1.692-1.69A1.692 1.692 0 0 0 31 14.47zm-14.581 7.246a1.692 1.692 0 0 0-1.693 1.693 1.692 1.692 0 0 0 1.693 1.689 1.692 1.692 0 0 0 1.69-1.69 1.692 1.692 0 0 0-1.69-1.692zm7.426 0a1.692 1.692 0 0 0-1.692 1.693 1.692 1.692 0 0 0 1.692 1.689 1.692 1.692 0 0 0 1.69-1.69 1.692 1.692 0 0 0-1.69-1.692zm7.155 0a1.692 1.692 0 0 0-1.693 1.693 1.692 1.692 0 0 0 1.693 1.689 1.692 1.692 0 0 0 1.692-1.69A1.692 1.692 0 0 0 31 21.716zM16.418 29.32a1.692 1.692 0 0 0-1.693 1.69 1.692 1.692 0 0 0 1.693 1.692 1.692 1.692 0 0 0 1.69-1.692 1.692 1.692 0 0 0-1.69-1.69zm7.426 0a1.692 1.692 0 0 0-1.692 1.69 1.692 1.692 0 0 0 1.692 1.692 1.692 1.692 0 0 0 1.69-1.692 1.692 1.692 0 0 0-1.69-1.69zm7.155 0a1.692 1.692 0 0 0-1.693 1.69 1.692 1.692 0 0 0 1.693 1.692 1.692 1.692 0 0 0 1.692-1.692A1.692 1.692 0 0 0 31 29.32z" id="path4137" opacity="1" fill="#fff" fill-opacity="1" stroke="none" stroke-width=".5" stroke-linecap="square" stroke-linejoin="miter" stroke-miterlimit="4" stroke-dasharray="none" stroke-dashoffset="0" stroke-opacity="1"/></svg>