<svg xmlns="http://www.w3.org/2000/svg" xmlns:xlink="http://www.w3.org/1999/xlink" width="48" height="48" version="1.1" id="svg38"><defs id="defs22"><linearGradient id="linearGradient4488"><stop id="stop4490" offset="0" stop-color="#000" stop-opacity=".047"/><stop id="stop4492" offset="1" stop-color="#000" stop-opacity="0"/></linearGradient><style id="style4511"/><style id="style4511-26"/><style id="style4511-9"/><linearGradient id="linearGradient4454"><stop id="stop7-36" offset="0" stop-color="#d21e1e" stop-opacity="1"/><stop id="stop9-75" offset="1" stop-color="#e05e4c" stop-opacity="1"/></linearGradient><style id="style4552"/><style id="style4511-2"/><linearGradient gradientTransform="translate(-63.205 2.216) scale(.3038)" xlink:href="#linearGradient4488" id="linearGradient4160" x1="288.112" y1="141.785" x2="287.575" y2="79.008" gradientUnits="userSpaceOnUse"/><linearGradient xlink:href="#linearGradient4454" id="linearGradient1154" x1="12.442" y1="24.768" x2="34.646" y2="24.768" gradientUnits="userSpaceOnUse" gradientTransform="matrix(1.16841 0 0 1.03454 -4.12 -1.815)"/></defs><style id="style4485" type="text/css"/><path d="M2.433 26.443v1.668c0 9.575 5.583 17.282 17.146 17.282h6.93c15.133 0 17.837-11.322 17.837-17.282v-1.668c0 5.96-2.704 17.282-17.837 17.282h-6.93c-11.563 0-17.146-7.708-17.146-17.282z" id="path4147" opacity="1" fill="url(#linearGradient4160)" fill-opacity="1" stroke="none" stroke-width="1.1" stroke-linecap="square" stroke-linejoin="bevel" stroke-miterlimit="4" stroke-dasharray="none" stroke-dashoffset="0" stroke-opacity=".078"/><path d="M19.046 2.965h8.495c13.908 0 16.805 11.246 16.805 17.282v7.123c0 5.96-2.704 17.282-17.837 17.282h-6.93c-11.562 0-17.146-7.708-17.146-17.282v-7.123c0-9.575 5.47-17.282 16.613-17.282z" id="rect4144" opacity="1" fill="#e3e7ea" fill-opacity="1" stroke="#000" stroke-width=".334" stroke-linecap="square" stroke-linejoin="bevel" stroke-miterlimit="4" stroke-dasharray="none" stroke-dashoffset="0" stroke-opacity=".078"/><path id="path5902-5" d="M23.545 10.885c-1.557 0-2.731.567-2.732 1.317v.953a.208.208 0 0 0-.071.016l-1.765.76a.637.637 0 0 0-.19.128 5.03 5.03 0 0 0-1.615-.245c-1.557 0-2.73.565-2.73 1.315v.812a.72.72 0 0 0-.289.06l-3.37 1.528a.57.57 0 0 0-.253.225c-.016.02-.026.04-.039.063a.5.5 0 0 0-.024.077c-.019.05-.049.097-.049.151v12.386c0 .194.126.374.33.47l12.257 5.759c.008.003.018.003.027.006a.74.74 0 0 0 .263.058s.017.007.026.007c.081 0 .156-.029.231-.053.028-.009.06-.005.086-.018l.004-.002c.002 0 .003 0 .005-.002.003 0 .003-.003.004-.003l12.368-5.796c.204-.095.329-.275.329-.47l.013-12.318c0-.19-.12-.369-.319-.464-.021-.011-.047-.008-.07-.016-.028-.02-.05-.043-.083-.058l-3.373-1.528c-.014-.007-.03-.006-.044-.012v-.87c0-.75-1.174-1.316-2.73-1.316-.662 0-1.246.106-1.708.28-.032-.02-.059-.046-.096-.063l-1.605-.692a.196.196 0 0 1-.057-.014v-1.114c0-.75-1.174-1.316-2.73-1.316m-1.766 2.328c.471.189 1.076.303 1.765.303.689 0 1.293-.115 1.764-.303v1.492c0 .156-.666.51-1.764.51-1.097 0-1.765-.354-1.765-.51v-1.492m-.968 1.139v.353c0 .75 1.175 1.316 2.733 1.316s2.73-.565 2.73-1.316v-.19l.784.339a.726.726 0 0 0-.052.267v2.504c0 .75 1.175 1.315 2.733 1.315 1.557 0 2.731-.565 2.73-1.315v-.42l1.913.87-11.06 5.168-10.965-5.201 2.086-.947v.539c0 .75 1.174 1.316 2.73 1.316 1.557 0 2.731-.566 2.731-1.316V15.13c0-.12-.04-.235-.097-.344l1.008-.433m7.163 1.78c.47.189 1.076.304 1.765.304.689 0 1.293-.116 1.763-.304v1.492c0 .148-.617.508-1.763.508-1.097 0-1.765-.352-1.765-.508v-1.492m-12.57.009c.471.188 1.076.304 1.766.304.687 0 1.292-.115 1.763-.303v1.491c0 .148-.618.51-1.763.51-1.146 0-1.765-.362-1.765-.51v-1.492m8.097.548c-1.556 0-2.732.566-2.732 1.317v2.503c0 .75 1.176 1.317 2.732 1.317 1.557 0 2.729-.567 2.729-1.317v-2.503c0-.75-1.172-1.317-2.729-1.317m-1.765 2.328c.471.188 1.076.304 1.765.304.688 0 1.292-.115 1.762-.303v1.491c0 .148-.616.51-1.762.51-1.097 0-1.765-.354-1.765-.51v-1.492" opacity=".887" fill="url(#linearGradient1154)" fill-opacity="1" stroke-width="1.083"/></svg>