<svg xmlns="http://www.w3.org/2000/svg" xmlns:xlink="http://www.w3.org/1999/xlink" width="48" height="48" version="1.1" id="svg38"><defs id="defs22"><linearGradient id="linearGradient1150"><stop offset="0" id="stop1146" stop-color="#72808f" stop-opacity="1"/><stop offset="1" id="stop1148" stop-color="#72808f" stop-opacity="0"/></linearGradient><linearGradient id="linearGradient4488"><stop id="stop4490" offset="0" stop-color="#000" stop-opacity=".047"/><stop id="stop4492" offset="1" stop-color="#000" stop-opacity="0"/></linearGradient><style id="style4511"/><style id="style4511-26"/><style id="style4511-9"/><style id="style4552"/><style id="style4511-2"/><linearGradient xlink:href="#linearGradient4488" id="linearGradient4546" gradientUnits="userSpaceOnUse" gradientTransform="translate(-62.497 1.994) scale(.3038)" x1="288.112" y1="141.785" x2="287.575" y2="79.008"/><linearGradient gradientTransform="translate(-.24 -1.97)" id="c-3" y1="16" x1="16" y2="32" x2="32" gradientUnits="userSpaceOnUse"><stop stop-color="#383e51" id="stop17-67"/><stop offset="1" stop-color="#655c6f" stop-opacity="0" id="stop19-53"/></linearGradient><linearGradient xlink:href="#linearGradient1150" id="linearGradient1152" x1="5.327" y1="23.586" x2="42.868" y2="23.586" gradientUnits="userSpaceOnUse"/></defs><style id="style4485" type="text/css"/><path d="M3.141 26.22v1.67c0 9.573 5.583 17.281 17.146 17.281h6.93c15.133 0 17.837-11.322 17.837-17.282v-1.668c0 5.96-2.704 17.282-17.837 17.282h-6.93c-11.563 0-17.146-7.708-17.146-17.282z" id="path4528" opacity="1" fill="url(#linearGradient4546)" fill-opacity="1" stroke="none" stroke-width="1.1" stroke-linecap="square" stroke-linejoin="bevel" stroke-miterlimit="4" stroke-dasharray="none" stroke-dashoffset="0" stroke-opacity=".078"/><path d="M19.754 2.742h8.495c13.908 0 16.805 11.247 16.805 17.282v7.124c0 5.96-2.704 17.282-17.837 17.282h-6.93c-11.562 0-17.146-7.708-17.146-17.282v-7.124c0-9.574 5.47-17.282 16.613-17.282z" id="path4530" opacity="1" fill="#59646f" fill-opacity="1" stroke="#000" stroke-width=".334" stroke-linecap="square" stroke-linejoin="bevel" stroke-miterlimit="4" stroke-dasharray="none" stroke-dashoffset="0" stroke-opacity=".078"/><path id="path4461" d="M20.207 4.916h7.61c12.457 0 15.051 10.074 15.051 15.48v6.38c0 5.338-2.422 15.48-15.976 15.48h-6.207c-10.357 0-15.358-6.904-15.358-15.48v-6.38c0-8.576 4.9-15.48 14.88-15.48z" opacity="1" fill="url(#linearGradient1152)" fill-opacity="1" stroke="none" stroke-width=".309" stroke-linecap="square" stroke-linejoin="bevel" stroke-miterlimit="4" stroke-dasharray="none" stroke-dashoffset="0" stroke-opacity=".078"/><path d="M31.76 17.03l-1 2v-1h-7l-4 7h-1l-1-2h-2l5 5h-5l14 14h9.99c.006 0 .01-3.568.01-8v-9z" id="path29" opacity=".2" fill="url(#c-3)" fill-rule="evenodd"/><path d="M31.76 17.04l-8 .004-4.44 7.69-1.556-2.694h-2v1h1.428l2.133 3.693 5.02-8.693h6.42v1h1zm-5 3c-1.662 0-3 1.338-3 3a2.993 2.993 0 0 0 5 2.225v.775h1v-6h-1v.775a2.98 2.98 0 0 0-2-.775m0 1c1.108 0 2 .892 2 2s-.892 2-2 2-2-.892-2-2 .892-2 2-2m-10.99 5.99c-.006 0-.01.223-.01.5s.004.5.01.5h15.98c.006 0 .01-.223.01-.5s-.004-.5-.01-.5zm7 2c-.006 0-.01.223-.01.5s.004.5.01.5h1.98c.006 0 .01-.223.01-.5s-.004-.5-.01-.5z" id="path31" fill="#fff"/></svg>