<svg xmlns="http://www.w3.org/2000/svg" xmlns:xlink="http://www.w3.org/1999/xlink" width="48" height="48" version="1.1" id="svg38"><defs id="defs22"><linearGradient id="linearGradient1146"><stop offset="0" id="stop1142" stop-color="#9956b5" stop-opacity="1"/><stop offset="1" id="stop1144" stop-color="#9956b5" stop-opacity="0"/></linearGradient><linearGradient id="linearGradient4488"><stop id="stop4490" offset="0" stop-color="#000" stop-opacity=".047"/><stop id="stop4492" offset="1" stop-color="#000" stop-opacity="0"/></linearGradient><style id="style4511"/><style id="style4511-26"/><style id="style4511-9"/><style id="style4552"/><style id="style4511-2"/><linearGradient xlink:href="#linearGradient4488" id="linearGradient4546" gradientUnits="userSpaceOnUse" gradientTransform="translate(-62.497 1.994) scale(.3038)" x1="288.112" y1="141.785" x2="287.575" y2="79.008"/><linearGradient xlink:href="#linearGradient1146" id="linearGradient1148" x1="5.327" y1="23.586" x2="42.868" y2="23.586" gradientUnits="userSpaceOnUse"/></defs><style id="style4485" type="text/css"/><path d="M3.141 26.22v1.67c0 9.573 5.583 17.281 17.146 17.281h6.93c15.133 0 17.837-11.322 17.837-17.282v-1.668c0 5.96-2.704 17.282-17.837 17.282h-6.93c-11.563 0-17.146-7.708-17.146-17.282z" id="path4528" opacity="1" fill="url(#linearGradient4546)" fill-opacity="1" stroke="none" stroke-width="1.1" stroke-linecap="square" stroke-linejoin="bevel" stroke-miterlimit="4" stroke-dasharray="none" stroke-dashoffset="0" stroke-opacity=".078"/><path d="M19.754 2.742h8.495c13.908 0 16.805 11.247 16.805 17.282v7.124c0 5.96-2.704 17.282-17.837 17.282h-6.93c-11.562 0-17.146-7.708-17.146-17.282v-7.124c0-9.574 5.47-17.282 16.613-17.282z" id="path4530" opacity="1" fill="#794392" fill-opacity="1" stroke="#000" stroke-width=".334" stroke-linecap="square" stroke-linejoin="bevel" stroke-miterlimit="4" stroke-dasharray="none" stroke-dashoffset="0" stroke-opacity=".078"/><path id="path4461" d="M20.207 4.916h7.61c12.457 0 15.051 10.074 15.051 15.48v6.38c0 5.338-2.422 15.48-15.976 15.48h-6.207c-10.357 0-15.358-6.904-15.358-15.48v-6.38c0-8.576 4.9-15.48 14.88-15.48z" opacity="1" fill="url(#linearGradient1148)" fill-opacity="1" stroke="none" stroke-width=".309" stroke-linecap="square" stroke-linejoin="bevel" stroke-miterlimit="4" stroke-dasharray="none" stroke-dashoffset="0" stroke-opacity=".078"/><path d="M24.592 16.051c-2.085 0-3.972.306-5.397.83-.712.263-1.312.576-1.771.975-.459.4-.797.929-.797 1.54 0 .61.338 1.137.797 1.536.459.4 1.06.715 1.771.977 1.425.524 3.312.828 5.397.828 2.085 0 3.974-.304 5.398-.828.713-.262 1.311-.578 1.77-.977.459-.399.799-.926.799-1.537 0-.61-.34-1.14-.8-1.539-.458-.399-1.056-.712-1.769-.974-1.424-.525-3.313-.83-5.398-.83zm0 1.3c1.955 0 3.726.299 4.95.75.61.224 1.083.49 1.364.736.282.245.352.425.352.558 0 .133-.07.314-.352.559-.281.245-.753.509-1.365.734-1.223.45-2.994.75-4.949.75-1.956 0-3.724-.3-4.947-.75-.612-.225-1.086-.489-1.367-.734-.282-.245-.352-.426-.352-.559 0-.133.07-.313.352-.558.281-.246.755-.512 1.367-.737 1.223-.45 2.991-.75 4.947-.75zm7.871 6.18l-1.246.368c.081.275.011.517-.453.904-.465.388-1.306.79-2.43 1.073-2.248.565-5.211.566-7.465.004-1.126-.282-1.97-.683-2.44-1.07-.468-.388-.54-.632-.462-.905l-1.248-.361c-.241.836.18 1.687.88 2.267.702.58 1.703 1.018 2.956 1.33 2.505.625 5.595.625 8.096-.004 1.25-.314 2.245-.754 2.943-1.336.698-.581 1.116-1.435.87-2.27zm0 4.735l-1.246.37c.081.274.011.517-.453.904-.465.387-1.306.79-2.43 1.072-2.248.565-5.211.566-7.465.004-1.126-.281-1.97-.683-2.44-1.07-.468-.388-.54-.631-.462-.905l-1.248-.361c-.241.836.18 1.688.88 2.268.702.58 1.703 1.017 2.956 1.33 2.505.625 5.595.622 8.096-.006 1.25-.314 2.245-.752 2.943-1.334.698-.582 1.116-1.438.87-2.272z" id="ellipse4194" class="ColorScheme-Text" opacity="1" fill="#fff" fill-opacity="1" stroke="none" stroke-opacity="1"/></svg>