<svg xmlns="http://www.w3.org/2000/svg" xmlns:xlink="http://www.w3.org/1999/xlink" width="48" height="48" version="1.1" id="svg38"><defs id="defs22"><linearGradient id="linearGradient1149"><stop offset="0" id="stop1145" stop-color="#f6b247" stop-opacity="1"/><stop offset="1" id="stop1147" stop-color="#f6b247" stop-opacity="0"/></linearGradient><linearGradient id="linearGradient4488"><stop id="stop4490" offset="0" stop-color="#000" stop-opacity=".047"/><stop id="stop4492" offset="1" stop-color="#000" stop-opacity="0"/></linearGradient><style id="style4511"/><style id="style4511-26"/><style id="style4511-9"/><style id="style4552"/><style id="style4511-2"/><linearGradient xlink:href="#linearGradient4488" id="linearGradient4546" gradientUnits="userSpaceOnUse" gradientTransform="translate(-62.497 1.994) scale(.3038)" x1="288.112" y1="141.785" x2="287.575" y2="79.008"/><linearGradient xlink:href="#linearGradient1149" id="linearGradient1151" x1="5.327" y1="23.586" x2="42.868" y2="23.586" gradientUnits="userSpaceOnUse"/></defs><style id="style4485" type="text/css"/><path d="M3.141 26.22v1.67c0 9.573 5.583 17.281 17.146 17.281h6.93c15.133 0 17.837-11.322 17.837-17.282v-1.668c0 5.96-2.704 17.282-17.837 17.282h-6.93c-11.563 0-17.146-7.708-17.146-17.282z" id="path4528" opacity="1" fill="url(#linearGradient4546)" fill-opacity="1" stroke="none" stroke-width="1.1" stroke-linecap="square" stroke-linejoin="bevel" stroke-miterlimit="4" stroke-dasharray="none" stroke-dashoffset="0" stroke-opacity=".078"/><path d="M19.754 2.742h8.495c13.908 0 16.805 11.247 16.805 17.282v7.124c0 5.96-2.704 17.282-17.837 17.282h-6.93c-11.562 0-17.146-7.708-17.146-17.282v-7.124c0-9.574 5.47-17.282 16.613-17.282z" id="path4530" opacity="1" fill="#ee9508" fill-opacity="1" stroke="#000" stroke-width=".334" stroke-linecap="square" stroke-linejoin="bevel" stroke-miterlimit="4" stroke-dasharray="none" stroke-dashoffset="0" stroke-opacity=".078"/><path id="path4461" d="M20.207 4.916h7.61c12.457 0 15.051 10.074 15.051 15.48v6.38c0 5.338-2.422 15.48-15.976 15.48h-6.207c-10.357 0-15.358-6.904-15.358-15.48v-6.38c0-8.576 4.9-15.48 14.88-15.48z" opacity="1" fill="url(#linearGradient1151)" fill-opacity="1" stroke="none" stroke-width=".309" stroke-linecap="square" stroke-linejoin="bevel" stroke-miterlimit="4" stroke-dasharray="none" stroke-dashoffset="0" stroke-opacity=".078"/><path d="M19.616 15.88a3.492 3.492 0 0 0-3.5 3.5c0 1.938 1.561 3.5 3.5 3.5 1.94 0 3.5-1.562 3.5-3.5 0-1.94-1.56-3.5-3.5-3.5m5.5 0v7h7v-7zm-8 9v7h5v-7zm11 0l-4 7h8z" id="path31" fill="#fff" stroke-width="2.8" stroke-opacity=".55"/></svg>