<svg xmlns="http://www.w3.org/2000/svg" xmlns:xlink="http://www.w3.org/1999/xlink" width="48" height="48" version="1.1" id="svg38"><defs id="defs22"><linearGradient id="linearGradient1385"><stop offset="0" id="stop1381" stop-color="#ccc" stop-opacity="1"/><stop offset="1" id="stop1383" stop-color="#ccc" stop-opacity="0"/></linearGradient><linearGradient id="linearGradient4488"><stop id="stop4490" offset="0" stop-color="#000" stop-opacity=".047"/><stop id="stop4492" offset="1" stop-color="#000" stop-opacity="0"/></linearGradient><style id="style4511"/><style id="style4511-26"/><style id="style4511-9"/><linearGradient id="b-7" y1="44" x1="44" y2="4" x2="24" gradientUnits="userSpaceOnUse"><stop stop-color="#c61423" id="stop7-3"/><stop offset="1" stop-color="#dc2b41" id="stop9-56"/></linearGradient><linearGradient id="linearGradient4258"><stop id="stop2-36" offset="0" stop-color="#000019" stop-opacity="1"/><stop id="stop4-7" offset="1" stop-color="#000019" stop-opacity=".291"/></linearGradient><style id="style4552"/><style id="style4511-2"/><linearGradient xlink:href="#linearGradient4488" id="linearGradient4548" gradientUnits="userSpaceOnUse" gradientTransform="matrix(.30791 0 0 .30817 -63.719 1.983)" x1="288.112" y1="141.785" x2="287.575" y2="79.008"/><linearGradient spreadMethod="reflect" gradientUnits="userSpaceOnUse" y2="83.578" x2="56" y1="288" x1="56" id="linearGradient4216" xlink:href="#linearGradient4210" gradientTransform="matrix(-.05035 0 0 .0696 34.56 3.254)"/><linearGradient id="linearGradient4210"><stop id="stop4212" offset="0" stop-color="#fff" stop-opacity=".972"/><stop offset=".646" id="stop4218" stop-color="#fff" stop-opacity=".916"/><stop id="stop4214" offset="1" stop-color="#fff" stop-opacity="0"/></linearGradient><linearGradient xlink:href="#linearGradient1385" id="linearGradient1387" x1="-11.5" y1="24.688" x2="-2.875" y2="24.688" gradientUnits="userSpaceOnUse" gradientTransform="matrix(.53623 0 0 .87818 13.128 1.968)"/><linearGradient xlink:href="#linearGradient4258" id="linearGradient464" gradientUnits="userSpaceOnUse" x1="2.639" y1="23.886" x2="45.458" y2="23.886"/><linearGradient xlink:href="#b-7" id="linearGradient1295" x1="12.507" y1="18.039" x2="45.322" y2="18.039" gradientUnits="userSpaceOnUse"/></defs><style id="style4485" type="text/css"/><path id="path4532" d="M2.808 26.558v1.693c0 9.712 5.66 17.53 17.378 17.53h7.025c15.337 0 18.077-11.485 18.077-17.53v-1.693c0 6.045-2.74 17.53-18.077 17.53h-7.025c-11.719 0-17.378-7.818-17.378-17.53z" opacity="1" fill="url(#linearGradient4548)" fill-opacity="1" stroke="none" stroke-width="1.115" stroke-linecap="square" stroke-linejoin="bevel" stroke-miterlimit="4" stroke-dasharray="none" stroke-dashoffset="0" stroke-opacity=".078"/><path d="M19.647 2.742h8.61c14.096 0 17.032 11.409 17.032 17.53V27.5c0 6.045-2.741 17.53-18.079 17.53h-7.023c-11.72 0-17.379-7.818-17.379-17.53v-7.226c0-9.712 5.545-17.53 16.839-17.53z" id="path4534" opacity="1" fill="url(#linearGradient464)" fill-opacity="1" stroke="#000" stroke-width=".339" stroke-linecap="square" stroke-linejoin="bevel" stroke-miterlimit="4" stroke-dasharray="none" stroke-dashoffset="0" stroke-opacity=".078"/><path style="marker:none" d="M31.377 8.544c.131.161.252.337.364.527v1.143h-2.014v-1.67zm-20.984 0v1.67H8.379V9.071a4.18 4.18 0 0 1 .363-.527zm21.348 2.784v1.67h-2.014v-1.67zm-21.348 0v1.67H8.379v-1.67zm21.348 2.784v1.67h-2.014v-1.67zm-21.348 0v1.67H8.379v-1.67zm21.348 2.784v1.67h-2.014v-1.67zm-21.348 0v1.67H8.379v-1.67zM31.74 19.68v1.67h-2.014v-1.67zm-21.348 0v1.67H8.379v-1.67zm21.348 2.784v1.67h-2.014v-1.67zm-21.348 0v1.67H8.379v-1.67zm21.348 2.784v1.67h-2.014v-1.67zm-21.348 0v1.67H8.379v-1.67zm21.348 2.784v1.67h-2.014v-1.67zm-21.348 0v1.67H8.379v-1.67zm21.348 2.784v1.67h-2.014v-1.67zm-21.348 0v1.67H8.379v-1.67zM31.74 33.6v1.67h-2.014V33.6zm-21.348 0v1.67H8.379V33.6zm21.348 2.784v1.143a4.34 4.34 0 0 1-.364.527h-1.65v-1.67zm-21.348 0v1.67h-1.65a4.179 4.179 0 0 1-.364-.527v-1.143z" id="path4282" color="#000" display="inline" overflow="visible" visibility="visible" opacity=".6" fill="url(#linearGradient4216)" fill-opacity="1" fill-rule="nonzero" stroke="none" stroke-width=".118" stroke-linecap="butt" stroke-linejoin="miter" stroke-miterlimit="4" stroke-dasharray="none" stroke-dashoffset="0" stroke-opacity="1"/><path id="path4505-6" d="M24.908 14.508l-2.098 4.846v4.006a19.57 19.57 0 0 1-.952 1.166c-1.103 1.252-2.34 2.346-3.167 2.659l-1.393-1.579-4.272 2.38v11.541h15.26V18.054c-.918-2.261-1.929-3.105-3.378-3.546zm-5.816 15.485h.002a27.445 27.445 0 0 1-.002 0zm-1.436.95h.001a29.936 29.936 0 0 1-.002 0z" style="marker:none" color="#000" display="inline" overflow="visible" visibility="visible" opacity=".05" fill="red" fill-opacity="0" fill-rule="nonzero" stroke="none" stroke-width="2.54"/><path id="path1695" d="M38.408 31.456l-.347 2.608-1.703-1.365-.08 3.033-2.235-1.79-.32 3.367-2.422-2.366-.692 2.76-1.917-2.517-1.143 2.153-.985-2.578-.845 1.938c.105.127.213.236.32.355.266.234.578.436.578.436s3.46 1.82 7.984.061c2.295-.892 4.562-3.174 6.26-5.218-.065-.029-.12-.062-.191-.088z" fill-rule="evenodd" stroke-width=".637"/><ellipse id="ellipse1697" ry="2.616" rx="2.296" cy="19.737" cx="37.688" opacity=".2" stroke-width=".637"/><ellipse id="ellipse1699" ry=".643" rx=".565" cy="18.536" cx="36.634" opacity=".2" stroke-width=".637"/><path id="path1701" d="M43.377 28.873c0-.09.006-.154.006-.246v-3.89a40.282 40.282 0 0 1-9.498 4.121c-.121.041-.257.095-.374.133-3.84 1.244-6.55 5.722-6.55 5.722l-.213 2.154c.345.17 3.571 1.67 7.853.006 4.057-1.577 7.976-6.833 8.776-8z" fill="#3f3f3f" fill-rule="evenodd" stroke-width=".637"/><path id="path1707" d="M39.397 26.74l-.046.007c-8.317 1.73-14.198 2.475-14.198 2.475s-2.672.977-5.055.403l2.383 3.93.753-2.445 1.656 2.703 1.166-2.789 2.635 2.96.942-3.388 2.484 2.702 1.205-3.688 1.882 2.315 1.166-3.387 2.07 1.629.904-3.245z" fill="#fff" fill-rule="evenodd" stroke-width=".637"/><path id="path1709" d="M38.408 30.778l-.347 2.608-1.703-1.365-.08 3.032-2.235-1.79-.32 3.367-2.422-2.365-.692 2.76-1.917-2.518-1.143 2.154-.985-2.578-.845 1.938c.105.127-.27.783-.163.903.266.234.095.827.095.827s4.908 2.055 9.433.296c2.295-.893 4.562-4.27 6.26-6.314-.065-.029-.603-.14-.674-.167z" fill="#fff" fill-rule="evenodd" stroke-width=".637"/><path id="path2353" d="M42.344 38.06c.043-.071.09-.122.097-.142.2-.303.322-.45.503-.805.189-.336.335-.643.566-1.078.2-.45.347-.769.537-1.225.169-.478.335-.96.587-1.808.206-.655.353-1.765.514-3.053.162-1.289.14-2.684.14-3.39-.59.76-9.244 11.457-15.983 11.69-1.499.029-2.821-.78-3.587-2.227 0 0-.602.106-.49 1.05.578 3.345 5.551 3.873 6.768 3.891 2.516-.008 5.901-.75 10.348-2.904z" fill="#e7314c" fill-opacity="1" stroke-width=".637"/><path id="path2351" d="M45.281 25.146l.04-5.18c.016-1.997-.315-3.285-.53-4.363-.108-.583-.363-1.251-.492-1.788-.05-.515-.45-1.269-.583-1.645-.204-.494-.347-.773-.532-1.17a23.971 23.971 0 0 1-.642-1.141c-.272-.451-.456-.626-.625-.91a5.19 5.19 0 0 0-.564-.776c-.208-.235-.412-.47-.646-.7-.199-.228-.432-.46-.626-.671a12.812 12.812 0 0 1-.588-.472c-.213-.149-.317-.23-.513-.374-4.177 1.568-16.256 6.293-20.977 9.157-5.796 3.517-5.887 4.802-5.209 6.69.677 1.887 2.724 2.904 3.778 5.735 1.054 2.83 8.582 2.568 8.582 2.568s10.918.56 20.127-4.96z" fill="url(#linearGradient1295)" fill-opacity="1" stroke-width=".637"/><ellipse id="circle1713" cy="19.248" cx="37.615" rx="2.393" ry="2.714" fill="#3f3f3f" stroke-width=".637"/><ellipse id="circle1715" cy="18.23" cx="36.717" rx=".897" ry="1.018" fill="#f8fcf9" stroke-width=".637"/><g id="g1394" transform="matrix(1 0 0 .92133 0 1.923)"><path id="rect1379" fill="url(#linearGradient1387)" fill-opacity="1" stroke="none" stroke-width=".686" stroke-opacity="1" d="M6.961 8.554h4.625v30.188H6.961z"/></g></svg>