<svg xmlns:osb="http://www.openswatchbook.org/uri/2009/osb" xmlns="http://www.w3.org/2000/svg" xmlns:xlink="http://www.w3.org/1999/xlink" width="48" height="48" version="1.1" id="svg38"><defs id="defs22"><linearGradient id="linearGradient4488"><stop id="stop4490" offset="0" stop-color="#000" stop-opacity=".047"/><stop id="stop4492" offset="1" stop-color="#000" stop-opacity="0"/></linearGradient><style id="style4511"/><style id="style4511-26"/><style id="style4511-9"/><style id="style4552"/><style id="style4511-2"/><linearGradient xlink:href="#linearGradient4488" id="linearGradient4540" gradientUnits="userSpaceOnUse" gradientTransform="matrix(.30902 0 0 .3038 -64.017 2.569)" x1="288.112" y1="141.785" x2="287.575" y2="79.008"/><linearGradient osb:paint="solid" id="linearGradient5293"><stop id="stop5295" offset="0" stop-color="#9a89c0" stop-opacity="1"/></linearGradient><linearGradient gradientUnits="userSpaceOnUse" y2="160.631" x2="334.866" y1="140.23" x1="334.866" id="linearGradient930" xlink:href="#linearGradient928"/><linearGradient id="linearGradient928"><stop id="stop924" offset="0" stop-color="gray" stop-opacity="1"/><stop id="stop926" offset="1" stop-color="#999" stop-opacity="1"/></linearGradient></defs><style id="style4485" type="text/css"/><path id="path4516" d="M2.75 26.796v1.668c0 9.575 5.68 17.283 17.44 17.283h7.05c15.392 0 18.143-11.323 18.143-17.283v-1.668c0 5.96-2.75 17.282-18.143 17.282h-7.05c-11.76 0-17.44-7.708-17.44-17.282z" opacity="1" fill="url(#linearGradient4540)" fill-opacity="1" stroke="none" stroke-width="1.109" stroke-linecap="square" stroke-linejoin="bevel" stroke-miterlimit="4" stroke-dasharray="none" stroke-dashoffset="0" stroke-opacity=".078"/><path id="path4518" d="M19.649 3.318h8.64c14.148 0 17.094 11.246 17.094 17.282v7.123c0 5.96-2.75 17.282-18.143 17.282h-7.05c-11.76 0-17.44-7.708-17.44-17.282V20.6c0-9.575 5.564-17.282 16.899-17.282z" opacity="1" fill="#add607" fill-opacity="1" stroke="#000" stroke-width=".337" stroke-linecap="square" stroke-linejoin="bevel" stroke-miterlimit="4" stroke-dasharray="none" stroke-dashoffset="0" stroke-opacity=".078"/><path d="M24.066 7.777A15.959 16.384 0 0 0 8.108 24.161a15.959 16.384 0 0 0 15.958 16.384 15.959 16.384 0 0 0 15.959-16.384A15.959 16.384 0 0 0 24.066 7.777zm.547 2.953c.228-.009.477-.009.738 0 1.568.05 3.58.434 4.268 1.507.57.886-.18 1.794-.597 2.514-1.033 1.783-1.943 3.717-2.944 5.538-.272.495-1.28 2.194-1.933 1.346-1.39-1.804-1.798-5.583-2.004-7.803-.066-.708-.295-1.81.032-2.47.282-.57 1.288-.52 1.823-.585.18-.022.388-.04.617-.048zm-5.707 1.153c.29.018.568.112.821.307.909.7 1.174 2.175 1.467 3.21.38 1.342.9 2.565 1.152 3.956.11.613.83 2.124.018 2.498-.587.27-1.486-.402-2-.633-1.806-.814-3.669-2.07-5.225-3.32-2.463-1.98-.562-3.605 1.303-4.992.633-.471 1.595-1.08 2.463-1.026zm13.31 1.698c1.49-.15 2.431 1.505 3.212 2.526.586.766 1.63 2.56 1.067 3.539-.372.647-1.223.771-1.846 1.01-1.62.622-3.268 1.269-4.969 1.663-.664.154-3.36 1.144-3.816.522-.223-.305.122-.879.258-1.159.526-1.084 1.31-1.917 1.926-2.925.85-1.392 1.889-2.59 2.853-3.884.374-.502.611-1.221 1.315-1.292zm-19.26 5.736c2.149-.088 4.813 1.603 6.573 2.547.64.344 1.512.563 2.028 1.108.849.899-.596 1.5-1.269 1.634-2.167.433-4.358.685-6.527 1.088-.704.13-2.09.443-2.654-.184-1.408-1.563-.748-5.798 1.425-6.15.139-.023.28-.037.424-.043zm23.176 3.1c.197.008.383.046.551.126 1.928.917 1.054 5.696-.81 6.23-1.273.364-2.793-.428-3.922-.957-1.461-.684-2.993-1.121-4.389-1.96-.42-.253-1.395-.848-1.055-1.459.383-.688 1.606-.743 2.256-.888 1.841-.41 3.706-.584 5.58-.826.522-.068 1.2-.293 1.79-.267zm-15.417 2.918c.411-.02.771.025 1.029.177.972.573-.302 2.075-.624 2.673-1.029 1.913-2.378 3.917-3.681 5.642-.503.667-1.183 1.438-2.1.947-1.454-.78-2.63-2.84-3.245-4.329-.235-.57-.585-1.38-.169-1.943.973-1.318 3.68-1.718 5.104-2.185.76-.25 2.453-.919 3.686-.982zm5.397.85c.587.072 1.347.617 1.693.82 1.765 1.043 3.686 2.117 5.176 3.524.324.307.88.433 1.133.797.355.51.091 1.603-.221 2.078-.792 1.204-4.415 3.907-5.637 2.29-1.463-1.937-1.908-4.636-2.449-6.979-.125-.54-.743-1.966-.202-2.413.135-.111.312-.14.507-.116zm-2.495.535a.42.42 0 0 1 .17.005c.428.103.607.769.77 1.118.554 1.192.824 2.385 1.071 3.684.255 1.336 1.244 4.062.519 5.325-.659 1.147-3.769.697-4.805.445-.843-.205-2.218-.366-2.702-1.204-.376-.65.117-1.296.397-1.863.693-1.405 1.462-2.75 2.167-4.152.31-.615 1.529-3.212 2.413-3.358z" id="path4405" fill="#fbfdce" fill-opacity="1" stroke="none" stroke-width=".599"/><g id="g938" transform="matrix(.31917 0 0 .32768 2.337 3.004)" fill="#fff" fill-opacity="1" stroke="none" stroke-linecap="round" stroke-linejoin="round" stroke-miterlimit="4" stroke-dasharray="none" stroke-opacity="1"><path d="M68.08 14.567c27.614 0 50 22.386 50 50s-22.386 50-50 50-50-22.386-50-50 22.386-50 50-50z" id="path1087" display="inline" opacity=".1" stroke-width="3.53"/><path id="path4943" d="M68.012 28.837c19.724 0 35.714 15.99 35.714 35.714 0 19.724-15.99 35.714-35.714 35.714-19.724 0-35.714-15.99-35.714-35.714 0-19.725 15.99-35.714 35.714-35.714z" display="inline" opacity=".1" stroke-width="2.521"/><circle r="20.759" cy="64.551" cx="68.012" id="circle4945" display="inline" opacity=".1" stroke-width="2.521"/></g></svg>