<svg xmlns:osb="http://www.openswatchbook.org/uri/2009/osb" xmlns="http://www.w3.org/2000/svg" xmlns:xlink="http://www.w3.org/1999/xlink" width="48" height="48" version="1.1" id="svg38"><defs id="defs22"><linearGradient id="linearGradient1423"><stop offset="0" id="stop1419" stop-color="#e6e6e6" stop-opacity="1"/><stop offset="1" id="stop1421" stop-color="#e6e6e6" stop-opacity="0"/></linearGradient><style id="style4511"/><style id="style4511-26"/><style id="style4511-9"/><style id="style4552"/><style id="style4511-2"/><linearGradient osb:paint="solid" id="linearGradient5293"><stop id="stop5295" offset="0" stop-color="#9a89c0" stop-opacity="1"/></linearGradient><linearGradient xlink:href="#linearGradient1423" id="linearGradient1425" x1="2.583" y1="23.586" x2="44.83" y2="23.586" gradientUnits="userSpaceOnUse"/></defs><style id="style4485" type="text/css"/><path id="path4518" d="M19.363 2.742h8.495c13.908 0 16.804 11.247 16.804 17.282v7.124c0 5.96-2.704 17.282-17.836 17.282h-6.93C8.333 44.43 2.75 36.722 2.75 27.148v-7.124c0-9.574 5.47-17.282 16.613-17.282z" opacity="1" fill="url(#linearGradient1425)" fill-opacity="1" stroke="#000" stroke-width=".334" stroke-linecap="square" stroke-linejoin="bevel" stroke-miterlimit="4" stroke-dasharray="none" stroke-dashoffset="0" stroke-opacity=".078"/><g id="g1417" transform="matrix(.67162 0 0 .67027 53.936 6.828)"><path transform="translate(-69.015 3.043)" id="polygon1214" fill="#20bd4d" d="M37.364 34.456v7.635l.002-.001z"/><path transform="translate(-69.015 3.043)" id="polygon1216" fill="#00913a" d="M44.045 30.622V15.398L24.019 3.922 3.955 15.364v22.909l6.681 3.848v-.007l6.682-3.845V30.67l-6.682-3.829v-7.566L24 11.617l.004-.002 13.36 7.655v7.552L30.686 30.6l.021 7.653 6.657 3.837v.001l6.681-3.818z"/><g transform="translate(-69.011 1.94)" id="g1230"><path id="polygon1218" fill="#00913a" d="M45 14.845v23.982l-7.638 4.365-7.609-4.386-.024-8.761 6.68-3.78v-6.442l-12.407-7.109-12.411 7.113v6.461l6.682 3.829v8.704l-7.637 4.24L3 38.825V14.809L24.021 2.823z"/><g id="g1228"><path id="polygon1220" fill="#6fff9f" d="M44.045 38.273V15.364h-.059L24.019 3.922l-.007-.013-.008.005-.007-.005-.008.013L4.022 15.364h-.067v22.909l6.681 3.848v-.007l6.682-3.845V30.67l-6.682-3.829v-7.566l13.368-7.66 13.36 7.655v22.821z"/><path id="polygon1222" fill="#2fd36d" d="M37.361 26.822L30.684 30.6l.021 7.653 6.656 3.837z"/><path id="polygon1224" fill="#2fd36d" d="M24.004 3.914L24 3.911v7.706l.004-.002 13.36 7.655v15.186l6.681-3.834V15.364h-.059L24.019 3.922l-.007-.013z"/><path id="polygon1226" fill="#2fd36d" d="M10.636 34.448l-6.679-3.826.02 7.653 6.659 3.839z"/></g></g><path id="line1232" stroke-miterlimit="10" fill="none" stroke="#00913a" stroke-width=".096" d="M-65.06 18.407v22.909"/><path id="line1234" stroke-miterlimit="10" fill="none" stroke="#00913a" stroke-width=".096" stroke-linejoin="round" d="M-58.376 14.615l13.365-7.658"/><path id="line1236" stroke-miterlimit="10" fill="none" stroke="#00913a" stroke-width=".096" stroke-linejoin="round" d="M-45.011 14.658l-13.368 7.66"/><path id="line1238" stroke-miterlimit="10" fill="none" stroke="#00913a" stroke-width=".096" d="M-58.379 29.884l6.682 3.829"/><path id="line1240" stroke-miterlimit="10" fill="none" stroke="#00913a" stroke-width=".096" d="M-65.06 41.316l6.681 3.848"/><path id="line1242" stroke-miterlimit="10" fill="none" stroke="#00913a" stroke-width=".096" d="M-24.992 18.407v22.909"/><path id="line1244" stroke-miterlimit="10" fill="none" stroke="#00913a" stroke-width=".096" stroke-linejoin="round" d="M-31.677 14.615l-13.365-7.658"/><path id="line1246" stroke-miterlimit="10" fill="none" stroke="#00913a" stroke-width=".096" stroke-linejoin="round" d="M-45.042 14.658l13.368 7.66"/><path id="line1248" stroke-miterlimit="10" fill="none" stroke="#00913a" stroke-width=".096" d="M-31.674 29.884l-6.682 3.829"/><g transform="translate(-69.015 3.043)" id="g1262" stroke-miterlimit="10" fill="none" stroke="#00913a" stroke-width=".096"><path id="line1250" d="M3.977 38.275l13.341-7.605"/><path id="polyline1252" stroke-linejoin="round" d="M17.318 38.269L3.928 30.63l6.694-3.785-6.667-3.842 6.678-3.727-6.68-3.911 6.686-3.793 6.682 3.872-.014-7.693 6.697 3.864-.007-7.706"/><path id="polyline1254" d="M17.318 30.637v7.636l-6.682 3.841.003-30.542"/><path id="line1256" d="M44 38.275L30.659 30.67"/><path id="polyline1258" stroke-linejoin="round" d="M30.659 38.269l13.39-7.639-6.693-3.785 6.667-3.842-6.678-3.727 6.68-3.911-6.687-3.793-6.682 3.872.014-7.693-6.697 3.864.008-7.706"/><path id="polyline1260" d="M30.659 30.637v7.636l6.682 3.841-.003-30.542"/></g><path id="line1264" stroke-miterlimit="10" fill="none" stroke="#00913a" stroke-width=".096" d="M-24.992 41.316l-6.682 3.848"/></g></svg>