<svg xmlns:osb="http://www.openswatchbook.org/uri/2009/osb" xmlns="http://www.w3.org/2000/svg" xmlns:xlink="http://www.w3.org/1999/xlink" width="48" height="48" version="1.1" id="svg38"><defs id="defs22"><linearGradient id="linearGradient3764-367535" x1="1" x2="47" gradientUnits="userSpaceOnUse" gradientTransform="rotate(-90 -2.94 49.22)"><stop stop-color="#e96633" stop-opacity="1" id="stop1866"/><stop offset="1" stop-color="#eb7545" stop-opacity="1" id="stop1868"/></linearGradient><linearGradient id="linearGradient4488"><stop id="stop4490" offset="0" stop-color="#000" stop-opacity=".047"/><stop id="stop4492" offset="1" stop-color="#000" stop-opacity="0"/></linearGradient><style id="style4511"/><style id="style4511-26"/><style id="style4511-9"/><style id="style4552"/><style id="style4511-2"/><linearGradient xlink:href="#linearGradient4488" id="linearGradient4540" gradientUnits="userSpaceOnUse" gradientTransform="matrix(.30673 0 0 .3038 -63.522 1.994)" x1="288.112" y1="141.785" x2="287.575" y2="79.008"/><linearGradient osb:paint="solid" id="linearGradient5293"><stop id="stop5295" offset="0" stop-color="#9a89c0" stop-opacity="1"/></linearGradient><linearGradient osb:paint="solid" id="linearGradient5251"><stop id="stop5253" offset="0" stop-color="#2f343f" stop-opacity="1"/></linearGradient><clipPath id="clipPath-587060044"/><linearGradient xlink:href="#linearGradient3764-367535" id="linearGradient1877" x1="2.583" y1="23.739" x2="45.236" y2="23.739" gradientUnits="userSpaceOnUse"/></defs><style id="style4485" type="text/css"/><path id="path4518" d="M28.295 44.734h-8.577c-14.042 0-16.966-11.329-16.966-17.408v-7.175c0-6.003 2.73-17.408 18.008-17.408h6.997c11.673 0 17.31 7.764 17.31 17.408v7.175c0 9.644-5.522 17.408-16.772 17.408z" opacity="1" fill="url(#linearGradient1877)" fill-opacity="1" stroke="#000" stroke-width=".337" stroke-linecap="square" stroke-linejoin="bevel" stroke-miterlimit="4" stroke-dasharray="none" stroke-dashoffset="0" stroke-opacity=".078"/><path id="path4516" d="M2.75 26.22v1.669c0 9.574 5.638 17.282 17.312 17.282h6.998c15.278 0 18.008-11.323 18.008-17.282V26.22c0 5.96-2.73 17.282-18.008 17.282h-6.998c-11.674 0-17.311-7.708-17.311-17.282z" opacity="1" fill="url(#linearGradient4540)" fill-opacity="1" stroke="none" stroke-width="1.105" stroke-linecap="square" stroke-linejoin="bevel" stroke-miterlimit="4" stroke-dasharray="none" stroke-dashoffset="0" stroke-opacity=".078"/><path id="path1792" d="M23.967 7.66c-4.473 0-8.552 1.934-11.403 4.864A15.923 16.067 0 0 0 7.98 23.797a15.903 16.046 0 0 0 4.585 11.272c2.856 2.935 6.934 4.748 11.403 4.748 4.478 0 8.445-1.821 11.292-4.748a15.895 16.038 0 0 0 4.582-11.272 16.16 16.16 0 0 0-4.582-11.273C32.412 9.601 28.44 7.66 23.967 7.66m0 5.933c2.578 0 4.914 1.127 6.707 2.965a10.206 10.298 0 0 1 2.938 7.24 10.247 10.34 0 0 1-2.938 7.24c-1.785 1.829-4.117 2.846-6.707 2.846s-4.93-1.021-6.702-2.847a10.207 10.299 0 0 1-2.943-7.24 10.202 10.293 0 0 1 2.943-7.24c1.78-1.829 4.13-2.964 6.702-2.964m0 0" fill="#f9f9f9" fill-opacity="1" fill-rule="nonzero" stroke="none" stroke-width="1.067"/><path id="path1794" d="M34.538 28.561a5.843 5.896 0 1 1-11.687 0 5.843 5.896 0 0 1 11.687 0m0 0" fill="#f9f9f9" fill-opacity="1" fill-rule="nonzero" stroke="none" stroke-width="1.067"/></svg>