<svg xmlns:osb="http://www.openswatchbook.org/uri/2009/osb" xmlns="http://www.w3.org/2000/svg" xmlns:xlink="http://www.w3.org/1999/xlink" width="48" height="48" version="1.1" id="svg38"><defs id="defs22"><linearGradient id="linearGradient4488"><stop id="stop4490" offset="0" stop-color="#000" stop-opacity=".047"/><stop id="stop4492" offset="1" stop-color="#000" stop-opacity="0"/></linearGradient><style id="style4511"/><style id="style4511-26"/><style id="style4511-9"/><style id="style4552"/><style id="style4511-2"/><linearGradient xlink:href="#linearGradient4488" id="linearGradient4540" gradientUnits="userSpaceOnUse" gradientTransform="matrix(.30898 0 0 .30379 -63.98 -9.684)" x1="288.112" y1="141.785" x2="287.575" y2="79.008"/><linearGradient osb:paint="solid" id="linearGradient5293"><stop id="stop5295" offset="0" stop-color="#9a89c0" stop-opacity="1"/></linearGradient></defs><style id="style4485" type="text/css"/><g id="g510" fill-opacity="1"><path d="M2.777 14.541v1.669c0 9.574 5.679 17.281 17.438 17.281h7.049c15.39 0 18.14-11.322 18.14-17.281v-1.67c0 5.96-2.75 17.282-18.14 17.282h-7.049c-11.76 0-17.438-7.708-17.438-17.282z" id="path4516" opacity="1" fill="url(#linearGradient4540)" stroke="none" stroke-width="1.109" stroke-linecap="square" stroke-linejoin="bevel" stroke-miterlimit="4" stroke-dasharray="none" stroke-dashoffset="0" stroke-opacity=".078"/><path d="M19.674 3.174h8.64c14.144 0 17.09 11.246 17.09 17.28v7.124c0 5.96-2.75 17.281-18.14 17.281h-7.048c-11.76 0-17.439-7.707-17.439-17.281v-7.123c0-9.574 5.564-17.281 16.897-17.281z" id="path4518" opacity="1" fill="#f2f2f2" stroke="#000" stroke-width=".337" stroke-linecap="square" stroke-linejoin="bevel" stroke-miterlimit="4" stroke-dasharray="none" stroke-dashoffset="0" stroke-opacity=".078"/><path id="path4518-3" d="M19.658 3.199a22.5 22.5 0 0 0-2.759.183c-.662 2.588-.94 5.352-.878 7.908a14.042 14.042 0 0 1 8.271-2.553 37.268 37.268 0 0 1 2.548-5.538zm19.997 3.61c-3.325.671-6.819 1.988-9.177 3.506 2.631 1.365 4.808 3.534 6.242 6.222 2.507-.429 5.455-.643 8.281-.278-.674-3.254-2.225-6.852-5.346-9.45zM7.032 8.142c-2.658 2.887-4.068 6.824-4.27 11.216 1.962 2.006 4.788 4.429 6.796 5.58a16.01 16.01 0 0 1-.033-.947 15.838 15.838 0 0 1 2.09-8.01c-1.79-2.317-3.518-5.153-4.583-7.84zm31.522 14.827a15.836 15.836 0 0 1-2.03 8.827c1.488 1.924 3.28 4.948 4.635 7.84 3.095-3.391 4.094-7.77 4.261-11.032-1.94-2.278-4.4-4.228-6.866-5.635zm-27.184 8.42c-1.818.303-5.12 1.283-7.9 1.815.892 3.218 2.604 5.994 5.157 8.03 3.41-.892 6.927-2.265 8.993-3.588-2.64-1.372-4.818-3.554-6.25-6.256zm20.756 5.278a14.043 14.043 0 0 1-8.07 2.584c-.071-.005-.142-.013-.213-.02-.388 1.06-1.078 3.444-1.772 5.603h5.195a27 27 0 0 0 4.01-.285c.472-2.899.888-6.244.85-7.882z" opacity="1" fill="#fa4b8c" stroke="#000" stroke-width=".337" stroke-linecap="square" stroke-linejoin="bevel" stroke-miterlimit="4" stroke-dasharray="none" stroke-dashoffset="0" stroke-opacity=".078"/><g transform="translate(-.127 .387)" id="g502"><ellipse id="path504" cx="24.218" cy="23.629" rx="15.769" ry="15.263" fill="#f2f2f2" stroke="none" stroke-width="1.288" stroke-opacity="1"/><path d="M19.93 16.747a.8.8 0 0 0-.822.804V30.67a.804.804 0 0 0 1.205.696l5.678-3.28 5.678-3.28a.804.804 0 0 0 0-1.392l-5.678-3.28-5.678-3.279a.798.798 0 0 0-.382-.109z" id="path10" fill="#fa4b8c" stroke-width=".923"/></g></g></svg>