<svg xmlns="http://www.w3.org/2000/svg" xmlns:xlink="http://www.w3.org/1999/xlink" width="48" height="48" version="1.1" id="svg38"><defs id="defs22"><linearGradient id="linearGradient4488"><stop id="stop4490" offset="0" stop-color="#000" stop-opacity=".047"/><stop id="stop4492" offset="1" stop-color="#000" stop-opacity="0"/></linearGradient><style id="style4511"/><style id="style4511-26"/><style id="style4511-9"/><style id="style4552"/><style id="style4511-2"/><linearGradient gradientTransform="matrix(.3082 0 0 .3038 -64.056 2.216)" xlink:href="#linearGradient4488" id="linearGradient4160" x1="288.112" y1="141.785" x2="287.575" y2="79.008" gradientUnits="userSpaceOnUse"/></defs><style id="style4485" type="text/css"/><g id="g505"><path id="path4147" d="M2.535 26.443v1.668c0 9.575 5.664 17.282 17.394 17.282h7.031c15.352 0 18.095-11.322 18.095-17.282v-1.668c0 5.96-2.743 17.282-18.095 17.282h-7.03c-11.73 0-17.395-7.708-17.395-17.282z" opacity="1" fill="url(#linearGradient4160)" fill-opacity="1" stroke="none" stroke-width="1.108" stroke-linecap="square" stroke-linejoin="bevel" stroke-miterlimit="4" stroke-dasharray="none" stroke-dashoffset="0" stroke-opacity=".078"/><path id="rect4144" d="M19.39 2.966h8.617c14.109 0 17.047 11.383 17.047 17.492v7.21c0 6.031-2.743 17.491-18.094 17.491h-7.03c-11.73 0-17.394-7.801-17.394-17.492v-7.21c0-9.69 5.55-17.491 16.853-17.491z" opacity="1" fill="#e6e6e6" fill-opacity="1" stroke="#000" stroke-width=".339" stroke-linecap="square" stroke-linejoin="bevel" stroke-miterlimit="4" stroke-dasharray="none" stroke-dashoffset="0" stroke-opacity=".078"/><g transform="matrix(.7087 0 0 .71882 .459 -165.427)" id="g920"><g transform="translate(-7.808 8.371)" id="g984" stroke="gray" stroke-width="0" stroke-linecap="round" stroke-linejoin="round"><path d="M41.857 235.163a.814.814 0 0 0-.816.816v8.16c0 .452.364.816.816.816h8.16a.814.814 0 0 0 .816-.816v-8.16a.814.814 0 0 0-.816-.816z" id="path24" fill="#ff4e40"/><path id="path933" d="M51.746 235.163a.814.814 0 0 0-.815.816v8.16c0 .452.363.816.815.816h8.16a.814.814 0 0 0 .816-.816v-8.16a.814.814 0 0 0-.816-.816z" fill="#ff4e40"/><g id="g942" transform="matrix(0 -1.23355 -1.23355 0 360.18 310.393)" fill="#ff4e40"><path d="M37.042 250.036a.66.66 0 0 0 .661.662h6.615a.66.66 0 0 0 .661-.662v-6.614a.66.66 0 0 0-.661-.662h-6.615a.66.66 0 0 0-.661.662z" id="path935"/><path id="path938" d="M45.059 250.036a.66.66 0 0 0 .661.662h6.615a.66.66 0 0 0 .661-.662v-6.614a.66.66 0 0 0-.661-.662H45.72a.66.66 0 0 0-.661.662z"/></g><g id="g959" transform="matrix(0 1.23355 1.23355 0 -278.26 209.216)" fill="#f7ca41" fill-opacity="1"><path d="M37.703 242.76a.66.66 0 0 0-.661.662v6.614a.66.66 0 0 0 .661.662h6.615a.66.66 0 0 0 .661-.662v-6.614a.66.66 0 0 0-.661-.662z" id="path944"/><path id="path946" d="M45.72 242.76a.66.66 0 0 0-.661.662v6.614a.66.66 0 0 0 .661.662h6.615a.66.66 0 0 0 .661-.662v-6.614a.66.66 0 0 0-.661-.662z"/><g id="g952" transform="matrix(0 -1 -1 0 295.756 303.747)"><path d="M37.042 250.036a.66.66 0 0 0 .661.662h6.615a.66.66 0 0 0 .661-.662v-6.614a.66.66 0 0 0-.661-.662h-6.615a.66.66 0 0 0-.661.662z" id="path948"/><path id="path950" d="M45.059 250.036a.66.66 0 0 0 .661.662h6.615a.66.66 0 0 0 .661-.662v-6.614a.66.66 0 0 0-.661-.662H45.72a.66.66 0 0 0-.661.662z"/></g></g><path id="path961" d="M21.85 245.02a.814.814 0 0 0-.816.816v8.16c0 .451.364.815.816.815h8.16a.814.814 0 0 0 .816-.816v-8.159a.814.814 0 0 0-.816-.816z" fill="#4081ff" fill-opacity="1"/><path d="M31.74 245.02a.814.814 0 0 0-.816.816v8.16c0 .451.364.815.816.815h8.159a.814.814 0 0 0 .816-.816v-8.159a.814.814 0 0 0-.816-.816z" id="path963" fill="#4081ff" fill-opacity="1"/><path d="M31.968 254.91a.814.814 0 0 0-.816.815v8.16c0 .452.364.816.816.816h8.16a.814.814 0 0 0 .815-.816v-8.16a.814.814 0 0 0-.816-.816z" id="path965" fill="#4081ff" fill-opacity="1"/><path id="path967" d="M41.857 254.91a.814.814 0 0 0-.816.815v8.16c0 .452.364.816.816.816h8.16a.814.814 0 0 0 .816-.816v-8.16a.814.814 0 0 0-.816-.816z" fill="#4081ff" fill-opacity="1"/></g></g></g></svg>