<svg xmlns="http://www.w3.org/2000/svg" xmlns:xlink="http://www.w3.org/1999/xlink" width="48" height="48" version="1.1" id="svg38"><defs id="defs22"><linearGradient id="linearGradient4488"><stop id="stop4490" offset="0" stop-color="#000" stop-opacity=".047"/><stop id="stop4492" offset="1" stop-color="#000" stop-opacity="0"/></linearGradient><style id="style4511"/><style id="style4511-26"/><linearGradient x2="11.786" gradientUnits="userSpaceOnUse" y2="11.998" x1="34.5" y1="32.998" id="a-70"><stop id="stop2-3675" stop-color="#dd1627"/><stop id="stop4-35" stop-color="#df3e52" offset="1"/></linearGradient><style id="style4511-9"/><linearGradient gradientUnits="userSpaceOnUse" x2="23.912" y2="24.326" x1="9.642" y1="8.627" id="f-02"><stop id="stop27-1" stop-color="#491309"/><stop id="stop29" stop-color="#b6642d" offset="1"/></linearGradient><style id="style4552"/><linearGradient id="c-70" y1="542.8" y2="533.8" gradientUnits="userSpaceOnUse" x2="0" gradientTransform="translate(0 -28)"><stop stop-color="#bcb4a1" id="stop12-9"/><stop offset="1" stop-color="#c5bfad" id="stop14-360"/></linearGradient><style id="style4511-2"/><linearGradient gradientTransform="translate(-63.205 2.216) scale(.3038)" xlink:href="#linearGradient4488" id="linearGradient4160" x1="288.112" y1="141.785" x2="287.575" y2="79.008" gradientUnits="userSpaceOnUse"/><radialGradient xlink:href="#f-02" id="radialGradient1257" cx="22.939" cy="24.108" fx="22.939" fy="24.108" r="13.614" gradientTransform="matrix(1 0 0 1.09249 0 -2.23)" gradientUnits="userSpaceOnUse"/><linearGradient xlink:href="#a-70" id="linearGradient1265" x1="20.67" y1="35.167" x2="25.208" y2="35.167" gradientUnits="userSpaceOnUse"/><linearGradient xlink:href="#c-70" id="linearGradient1273" x1="2.266" y1="23.808" x2="44.513" y2="23.808" gradientUnits="userSpaceOnUse"/></defs><style id="style4485" type="text/css"/><path d="M2.433 26.443v1.668c0 9.575 5.583 17.282 17.146 17.282h6.93c15.133 0 17.837-11.322 17.837-17.282v-1.668c0 5.96-2.704 17.282-17.837 17.282h-6.93c-11.563 0-17.146-7.708-17.146-17.282z" id="path4147" opacity="1" fill="url(#linearGradient4160)" fill-opacity="1" stroke="none" stroke-width="1.1" stroke-linecap="square" stroke-linejoin="bevel" stroke-miterlimit="4" stroke-dasharray="none" stroke-dashoffset="0" stroke-opacity=".078"/><path d="M19.046 2.965h8.495c13.908 0 16.805 11.246 16.805 17.282v7.123c0 5.96-2.704 17.282-17.837 17.282h-6.93c-11.562 0-17.146-7.708-17.146-17.282v-7.123c0-9.575 5.47-17.282 16.613-17.282z" id="rect4144" opacity="1" fill="url(#linearGradient1273)" fill-opacity="1" stroke="#000" stroke-width=".334" stroke-linecap="square" stroke-linejoin="bevel" stroke-miterlimit="4" stroke-dasharray="none" stroke-dashoffset="0" stroke-opacity=".078"/><g id="g1290" transform="matrix(1.01056 0 0 .91986 .19 2.034)" stroke-width=".759"><ellipse ry="4.576" rx="4.538" id="circle1173" cy="35.167" cx="22.939" fill="#8f6943"/><rect id="rect1175" ry=".381" rx=".378" y="35.93" x="22.939" height="3.051" width="1.513" opacity=".2"/><rect id="rect1179" ry=".381" rx=".378" y="35.167" x="22.939" height="3.051" width="1.513" fill="#fff"/><rect id="rect1181" ry=".381" rx=".378" y="35.93" x="21.426" height="3.051" width="1.513" opacity=".2"/><rect id="rect1183" ry=".381" rx=".378" y="35.167" x="21.426" height="3.051" width="1.513" fill="#fff"/><path id="path1185" d="M10.349 9.24a1.173 1.173 0 0 0-.309.01.688.688 0 0 0-.313.138c-.71.567-.488 2.82.74 7.506.689 2.627 1.257 4.027 2.235 5.509.642.973.953 1.342 2.014 2.399.95 1.055 2.148 2.532 2.172 3.774-.272 2.451-2.16 3.734-2.268 5.821 0 2.527 1.275 4.575 3.781 4.575 1.572.159 3.13-2.001 4.538-2.287 1.7.346 3.073 2.295 4.538 2.287 2.506 0 3.782-2.048 3.782-4.575-.109-2.087-1.997-3.37-2.27-5.821.025-1.242 1.224-2.719 2.174-3.774 1.06-1.057 1.37-1.426 2.013-2.4.978-1.481 1.546-2.88 2.235-5.508 1.228-4.686 1.45-6.939.74-7.506a.688.688 0 0 0-.313-.137 1.173 1.173 0 0 0-.309-.01c-.341.028-.78.176-1.33.446-1.088.536-2.153 1.327-3.353 2.492-1.8 1.748-2.443 2.748-4.563 7.098-.633 1.296-1.41 2.884-2.359 4.26-.276.192-.985.195-.985.195s-.71-.003-.985-.195c-.95-1.376-1.726-2.964-2.36-4.26-2.119-4.35-2.762-5.35-4.562-7.098-1.2-1.165-2.265-1.956-3.354-2.492-.549-.27-.988-.418-1.329-.447z" fill="url(#radialGradient1257)" fill-opacity="1"/><path id="path1187" d="M19.234 32.879c-.958 0-2.343-.784-2.343-1.751 0-.967-.091-1.75.868-1.75 2.464.295 2.604 3.5 1.475 3.5z" opacity=".2"/><path id="path1189" d="M19.234 32.116c-.958 0-2.343-.784-2.343-1.75 0-.968-.091-1.751.868-1.751 2.464.295 2.604 3.501 1.475 3.501z" fill="#fff"/><path id="path1191" d="M26.643 32.879c.96 0 2.344-.784 2.344-1.751 0-.967.09-1.75-.868-1.75-2.465.295-2.604 3.5-1.476 3.5z" opacity=".2"/><path id="path1193" d="M26.643 32.116c.96 0 2.344-.784 2.344-1.75 0-.968.09-1.751-.868-1.751-2.465.295-2.604 3.501-1.476 3.501z" fill="#fff"/><path id="path1195" d="M22.939 36.692c-1.461-.1-2.715-1.559-2.116-2.277.64-.567 1.443-.78 2.116-.773.672-.007 1.475.206 2.115.773.6.718-.654 2.177-2.115 2.277z" fill="url(#linearGradient1265)" fill-opacity="1"/><path id="path1197" d="M10.87 10.996c.003.164-.018.224.005.451.104 1.062.45 2.752 1.055 5.059.67 2.557 1.148 3.716 2.032 5.056h-.001c.615.933.778 1.123 1.818 2.16l.03.028.026.031c.445.495.991 1.065 1.468 1.734a7.563 7.563 0 0 1 2.83-2.003c-.763-1.244-1.387-2.516-1.896-3.559v-.001c-2.106-4.325-2.532-5-4.254-6.673-1.124-1.091-2.058-1.773-2.968-2.22-.125-.062-.044-.026-.145-.063zm24.137.007c-.067.03-.068.018-.145.055-.91.448-1.843 1.13-2.967 2.221-1.722 1.673-2.148 2.348-4.254 6.673v.001c-.51 1.044-1.135 2.316-1.899 3.56a7.563 7.563 0 0 1 2.832 2.004c.477-.67 1.023-1.24 1.469-1.736l.026-.03.03-.03c1.04-1.036 1.203-1.227 1.818-2.16h-.001c.884-1.34 1.362-2.498 2.032-5.055.605-2.307.95-3.997 1.055-5.059.022-.223.002-.281.004-.444z" opacity=".3"/><ellipse ry=".763" rx=".756" id="circle1199" cy="31.353" cx="19.157" fill="#323232"/><ellipse ry=".763" rx=".756" id="circle1201" cy="31.353" cx="26.72" fill="#323232"/><path id="path1203" d="M10.349 9.241a1.173 1.173 0 0 0-.309.01.688.688 0 0 0-.313.138c-.313.25-.434.852-.378 1.823.038-.524.158-.885.378-1.06a.688.688 0 0 1 .313-.138c.092-.017.195-.02.309-.01.341.029.78.177 1.33.447 1.088.535 2.153 1.326 3.353 2.49 1.8 1.748 2.443 2.749 4.563 7.098.633 1.296 1.409 2.884 2.359 4.26.276.192.985.196.985.196s.71-.004.985-.195c.95-1.377 1.726-2.965 2.36-4.26 2.118-4.35 2.762-5.35 4.562-7.099 1.2-1.164 2.264-1.955 3.353-2.49.55-.27.989-.418 1.33-.447.113-.01.216-.007.308.01a.688.688 0 0 1 .314.137c.22.176.339.534.378 1.055.055-.968-.066-1.568-.378-1.817a.688.688 0 0 0-.314-.138 1.173 1.173 0 0 0-.308-.01c-.341.029-.78.177-1.33.447-1.089.535-2.153 1.326-3.353 2.49-1.8 1.748-2.444 2.75-4.563 7.099-.633 1.296-1.41 2.883-2.359 4.26-.276.192-.985.195-.985.195s-.71-.003-.985-.195c-.95-1.377-1.726-2.964-2.36-4.26-2.119-4.35-2.762-5.35-4.562-7.098-1.2-1.165-2.265-1.956-3.354-2.491-.549-.27-.988-.418-1.329-.447zm6.485 19.683c-.402 2.228-2.112 3.488-2.215 5.473 0 .161.021.315.031.472.257-1.919 1.979-3.196 2.238-5.531a2.306 2.306 0 0 0-.054-.414zm12.21 0a2.32 2.32 0 0 0-.055.414c.26 2.335 1.981 3.612 2.238 5.53.01-.156.031-.31.031-.471-.103-1.985-1.812-3.245-2.214-5.473z" opacity=".2" fill="#fff"/></g></svg>