<svg xmlns:osb="http://www.openswatchbook.org/uri/2009/osb" xmlns="http://www.w3.org/2000/svg" xmlns:xlink="http://www.w3.org/1999/xlink" width="48" height="48" version="1.1" id="svg38"><defs id="defs22"><style id="style4511"/><style id="style4511-26"/><style id="style4511-9"/><linearGradient id="linearGradient10454-6"><stop id="stop4727" offset="0" stop-color="#f38230" stop-opacity="1"/><stop id="stop4729" offset="1" stop-color="#fec335" stop-opacity="1"/></linearGradient><style id="style4552"/><style id="style4511-2"/><linearGradient osb:paint="solid" id="linearGradient5293"><stop id="stop5295" offset="0" stop-color="#9a89c0" stop-opacity="1"/></linearGradient><linearGradient xlink:href="#linearGradient10454-6" id="linearGradient1280" x1="2.583" y1="23.586" x2="44.83" y2="23.586" gradientUnits="userSpaceOnUse" gradientTransform="matrix(1.00677 0 0 1.00364 -.017 .555)"/></defs><style id="style4485" type="text/css"/><g id="g1310"><path d="M19.477 3.308h8.553c14.002 0 16.918 11.287 16.918 17.345v7.149c0 5.981-2.722 17.345-17.957 17.345h-6.977c-11.64 0-17.262-7.736-17.262-17.345v-7.15c0-9.609 5.507-17.344 16.725-17.344z" id="path4518" opacity="1" fill="url(#linearGradient1280)" fill-opacity="1" stroke="#000" stroke-width=".336" stroke-linecap="square" stroke-linejoin="bevel" stroke-miterlimit="4" stroke-dasharray="none" stroke-dashoffset="0" stroke-opacity=".078"/><g transform="matrix(.75166 0 0 .71496 5.81 7.068)" id="g1333"><g id="g1331"><ellipse id="ellipse1281" ry="16.7" rx="18.2" cy="25.9" cx="24.5" fill="#fbc000"/><path id="path1283" d="M13.5 36.3c-7-7.6-2.1-16-2.1-16 5.2-10 19.1-11.4 19.1-11.4 4.8-.6 10 3.9 10 3.9 2.2 1.3 3.2.9 3.7.2-.3-1-.3-2-.3-2 0-.5-.1-1.2-.2-1.7-.2-2.8-2.9-5.1-6.3-5.1-.4 0-.9 0-1.3.1-1-.1-2-.6-2-.6-1.8-.8-1.8.6-1.8.6 0 .3-.1.7-.1 1.1C29.5 3.9 26.3 3 23 3 12 3.1 3 12.5 3 24c0 11.6 9 21 19.9 21 7.9 0 14.6-4.8 17.9-11.8-.7.7-1.6 1.4-2.6 2-11.7 11-24.7 1.1-24.7 1.1z" fill="#a6857d"/><path id="path1285" d="M44.7 14.4c-.1-.2-.2-.5-.3-.7-.1-.2-.1-.4-.2-.6-.5.7-1.6 1.1-3.7-.2 0 0-5.2-4.4-10-3.9 0 0-14 1.4-19.1 11.4 0 0-4.9 8.3 2.1 16 0 0 12.2 10.9 24.8-1.1-2.7 1.6-6.2 2.7-10.1 2.7-8.5 0-15.3-4.8-15.3-10.8 0-6 6.9-10.8 15.3-10.8 3.2 0 6.2.7 8.6 1.9 3.8 1.6 5.3.9 5.3.9.6-.1 1.2-.4 1.7-.8.7-.6 1.2-1.5 1.2-2.5 0-.6-.1-1.1-.3-1.5z" fill="#b6a6a1"/><path id="path1287" d="M42.9 13.7c-.4.3-.5.7-1.2.7 0 0-.9.4.2 1.6 0 0 .9 1.1 1.7.9 0 0 1.2-.4 1.1-1.5-.1-1.1-1.1-2-1.8-1.7z" fill="#141414"/><g id="g1313"><path id="path1289" d="M13 33.1c0 .9.5 1.6 1.4 1.9l11.2 3.4c2.6.8 4.3.7 6.2-.8l8.9-8.1c.6-.5.9-1.3.9-2.1v-3.5l-15.4 2.9-13.2 3z" fill="#141414"/><path id="path1291" d="M13.5 30.6l13 3.7c1.8.5 3.7.1 5.1-1.1l9.7-8.4c.5-.4.2-1.2-.4-1.3l-14.6-1.8c-.2 0-.3 0-.5.1l-12.5 7.5c-.5.3-.4 1.1.2 1.3z" fill="#333134"/><ellipse id="ellipse1293" ry="3.1" rx="5.3" cy="26.9" cx="27.5" transform="rotate(-8.885 27.514 26.85)" fill="#010001"/><ellipse id="ellipse1295" ry="2.8" rx="5" cy="26.6" cx="27.5" transform="rotate(-8.885 27.47 26.575)" fill="#595959"/><ellipse id="ellipse1297" ry="2.5" rx="4.5" cy="26.3" cx="27.4" transform="rotate(-8.885 27.358 26.27)" fill="#010001"/><ellipse id="ellipse1299" ry="2.1" rx="4" cy="25.9" cx="27.3" transform="rotate(-8.885 27.276 25.926)" fill="#595959"/><ellipse id="ellipse1301" ry="1.8" rx="3.4" cy="25.6" cx="27.2" transform="rotate(-8.885 27.23 25.629)" fill="#010001"/><ellipse id="ellipse1303" ry="1.5" rx="2.7" cy="25.3" cx="27.2" transform="rotate(-8.885 27.183 25.33)" fill="#595959"/><path id="path1305" d="M26.3 5.2c-.1-.5-1.4-.8-2.9-.6-1.5.2-2.7.8-2.6 1.4l4.3 19.1c.1.4.3.7.7.8.7.2 1.7.3 2.6-.3.3-.2.5-.6.4-1z" fill="#181818"/><ellipse id="ellipse1307" ry="1.2" rx="2.8" cy="5.6" cx="23.6" transform="rotate(-7.88 23.55 5.583)"/><ellipse id="ellipse1309" ry="1.4" rx="2.4" cy="25.2" cx="36.7" transform="rotate(-6.927 36.718 25.186)" fill="#ea5514"/><ellipse id="ellipse1311" ry="1.1" rx="2" cy="24.9" cx="36.7" transform="rotate(-6.927 36.726 24.928)" fill="#f39800"/></g><ellipse id="ellipse1315" ry="1" rx=".8" cy="12.4" cx="43.9" fill="#141414"/><circle id="ellipse1317" cy="11.1" cx="38.3" r="1.4" fill="#141414"/><circle id="circle1319" r=".4" cy="10.7" cx="37.8" fill="#fff"/><circle id="circle1321" r=".3" cy="12.2" cx="43.8" fill="#fff"/><path id="path1323" d="M35.4 4.9s-1-.2-1.7-.5c0 0-1-.5-1.1.8 0 0 0 1.1-.2 1.2 0 .1 1.5.2 3-1.5z" fill="#141414"/><path id="path1325" d="M12.9 27.2H9.7c0 2 .8 6 3.8 9.2 0 0 12.2 10.8 24.8-1.2-2.7 1.6-6.2 2.7-10.1 2.7-8.5 0-15.3-4.8-15.3-10.7z" fill="#b6a6a1"/><path id="path1327" d="M27.9 16.3s1.4 1.4 2.1 2.4c0 0 1.3 1.6 2.7.7 0 0 1.3-.8-.4-2.8-1.9-.5-4.4-.3-4.4-.3z"/><path id="path1329" d="M17.3 13.8s-3.9.5-5.1 5.2c0 0 3.2-.2 4.9 1.4 0 0 1.7 2.2 3.5 1.1 0 0 1.1-.7-.5-3.1 0 0-.7-1-2-1.3-.1 0-2.8-.6-.8-3.3z" fill="#3f302b"/></g></g></g></svg>