<svg xmlns="http://www.w3.org/2000/svg" xmlns:xlink="http://www.w3.org/1999/xlink" width="48" height="48" version="1.1" id="svg38"><defs id="defs22"><linearGradient id="linearGradient4488"><stop id="stop4490" offset="0" stop-color="#000" stop-opacity=".047"/><stop id="stop4492" offset="1" stop-color="#000" stop-opacity="0"/></linearGradient><style id="style4511"/><style id="style4511-26"/><style id="style4511-9"/><style id="style4552"/><style id="style4511-2"/><linearGradient gradientTransform="translate(-63.205 2.216) scale(.3038)" xlink:href="#linearGradient4488" id="linearGradient4160" x1="288.112" y1="141.785" x2="287.575" y2="79.008" gradientUnits="userSpaceOnUse"/><linearGradient xlink:href="#linearGradient4609-6" id="linearGradient4611-2-3" x1="23.602" y1="37.808" x2="23.602" y2="10.192" gradientUnits="userSpaceOnUse" gradientTransform="matrix(1.192 0 0 .80304 -5.407 5.247)"/><linearGradient id="linearGradient4609-6"><stop offset="0" id="stop4605" stop-color="#ac4cc7" stop-opacity="1"/><stop offset="1" id="stop4607" stop-color="#6ea8d1" stop-opacity="1"/></linearGradient></defs><style id="style4485" type="text/css"/><path d="M2.433 26.443v1.668c0 9.575 5.583 17.282 17.146 17.282h6.93c15.133 0 17.837-11.322 17.837-17.282v-1.668c0 5.96-2.704 17.282-17.837 17.282h-6.93c-11.563 0-17.146-7.708-17.146-17.282z" id="path4147" opacity="1" fill="url(#linearGradient4160)" fill-opacity="1" stroke="none" stroke-width="1.1" stroke-linecap="square" stroke-linejoin="bevel" stroke-miterlimit="4" stroke-dasharray="none" stroke-dashoffset="0" stroke-opacity=".078"/><path d="M19.046 2.965h8.495c13.908 0 16.805 11.246 16.805 17.282v7.123c0 5.96-2.704 17.282-17.837 17.282h-6.93c-11.562 0-17.146-7.708-17.146-17.282v-7.123c0-9.575 5.47-17.282 16.613-17.282z" id="rect4144" opacity="1" fill="#e3e7ea" fill-opacity="1" stroke="#000" stroke-width=".334" stroke-linecap="square" stroke-linejoin="bevel" stroke-miterlimit="4" stroke-dasharray="none" stroke-dashoffset="0" stroke-opacity=".078"/><path d="M16.049 13.277v22.486h1.192V13.277zm16.688 0v22.486h1.192V13.277zm-2.384 1.607v19.273h1.192V14.884zm-11.92.803v17.667h1.192V15.687zm-4.768.803v16.06h1.192V16.49zm-4.768 6.238v5.275h1.192v-5.275zm16.688-5.435v14.454h1.192V17.293zm-2.384.803v12.848h1.192V18.096zm4.768 0v12.848h1.192V18.096zm-16.688.803V30.14h1.192V18.9zm9.536.803v9.636h1.192v-9.636zm14.304 0v9.636h1.192v-9.636zm2.384 2.796v5.012h1.192v-5.012z" id="rect4544-9-3" opacity=".91" fill="url(#linearGradient4611-2-3)" fill-opacity="1" stroke="none" stroke-width="3.265" stroke-linecap="round" stroke-linejoin="round" stroke-miterlimit="4" stroke-dasharray="none" stroke-dashoffset="0" stroke-opacity="1"/></svg>