<svg xmlns="http://www.w3.org/2000/svg" xmlns:xlink="http://www.w3.org/1999/xlink" width="48" height="48" version="1.1" id="svg38"><defs id="defs22"><linearGradient id="linearGradient4488"><stop id="stop4490" offset="0" stop-color="#000" stop-opacity=".047"/><stop id="stop4492" offset="1" stop-color="#000" stop-opacity="0"/></linearGradient><style id="style4511"/><linearGradient gradientUnits="userSpaceOnUse" x2="13" y2="4" x1="43" y1="40" id="a"><stop id="stop2-36753" stop-color="#f27935"/><stop id="stop4-562" stop-color="#f2784b" offset="1"/></linearGradient><style id="style4511-26"/><style id="style4511-9"/><style id="style4552"/><style id="style4511-2"/><linearGradient gradientTransform="translate(-63.205 2.216) scale(.3038)" xlink:href="#linearGradient4488" id="linearGradient4160" x1="288.112" y1="141.785" x2="287.575" y2="79.008" gradientUnits="userSpaceOnUse"/><style id="style4511-8"/><style id="style4511-26-4"/><style id="style4511-9-8"/><style id="style4552-5"/><style id="style4511-2-5"/><style id="style4511-87"/><style id="style4511-26-7"/><style id="style4511-9-1"/><style id="style4552-53"/><style id="style4511-2-9"/><clipPath id="b-3675"><use id="use948" overflow="visible" xlink:href="#a"/></clipPath><clipPath id="clipPath-764719925"/></defs><style id="style4485" type="text/css"/><path d="M2.433 26.443v1.668c0 9.575 5.583 17.282 17.146 17.282h6.93c15.133 0 17.837-11.322 17.837-17.282v-1.668c0 5.96-2.704 17.282-17.837 17.282h-6.93c-11.563 0-17.146-7.708-17.146-17.282z" id="path4147" opacity="1" fill="url(#linearGradient4160)" fill-opacity="1" stroke="none" stroke-width="1.1" stroke-linecap="square" stroke-linejoin="bevel" stroke-miterlimit="4" stroke-dasharray="none" stroke-dashoffset="0" stroke-opacity=".078"/><path d="M19.046 2.965h8.495c13.908 0 16.805 11.246 16.805 17.282v7.123c0 5.96-2.704 17.282-17.837 17.282h-6.93c-11.562 0-17.146-7.708-17.146-17.282v-7.123c0-9.575 5.47-17.282 16.613-17.282z" id="rect4144" opacity="1" fill="#e6e6e6" fill-opacity="1" stroke="#000" stroke-width=".334" stroke-linecap="square" stroke-linejoin="bevel" stroke-miterlimit="4" stroke-dasharray="none" stroke-dashoffset="0" stroke-opacity=".078"/><style type="text/css" id="style4485-4"/><style type="text/css" id="style4485-6"/><path clip-path="url(#b-3675)" d="M0 37V11l17 13z" id="path951-3" transform="matrix(.18317 0 0 .17624 -48.69 1.388)" fill="#fbbc05"/><path clip-path="url(#b-3675)" d="M0 11l17 13 7-6.1L48 14V0H0z" id="path953" transform="matrix(.18317 0 0 .17624 -48.69 1.388)" fill="#ea4335"/><path clip-path="url(#b-3675)" d="M0 37l30-23 7.9 1L48 0v48H0z" id="path955" transform="matrix(.18317 0 0 .17624 -48.69 1.388)" fill="#34a853"/><path clip-path="url(#b-3675)" d="M48 48L17 24l-4-3 35-10z" id="path957" transform="matrix(.18317 0 0 .17624 -48.69 1.388)" fill="#4285f4"/><g id="g1470" transform="matrix(1.15223 0 0 1.28635 -4.266 -7.064)"><g clip-path="url(#clipPath-764719925)" id="g1468"><g id="g1466" fill-opacity="1" fill-rule="evenodd" stroke="none"><path d="M15.11 29.383l-4.105-9.918 3.305-1.617.082-.109 2.664 6.742 3.199-1.699 1.438 3.203m-6.582 3.398" id="path1460" fill="#3d9cff"/><path d="M17.957 19.383l4.133.582 1.227 2.676 1.543-2.313 4.16.555-3.813 5.684-.934 5.434-3.863-.641.664-4.875m-3.117-7.102" id="path1462" fill="#f9c13c"/><path d="M27.07 16l3.609.723.777 2.441 1.586-1.883 3.957.871-3.543 4.129 2 6.148-4.258-.434-.758-3.336-1.926 2.742-3.316-1.074 3.328-4.914m-1.469-5.414" id="path1464" fill="#de5328"/></g></g></g></svg>