<svg xmlns="http://www.w3.org/2000/svg" xmlns:xlink="http://www.w3.org/1999/xlink" width="48" height="48" version="1.1" id="svg38"><defs id="defs22"><linearGradient id="linearGradient4488"><stop id="stop4490" offset="0" stop-color="#000" stop-opacity=".047"/><stop id="stop4492" offset="1" stop-color="#000" stop-opacity="0"/></linearGradient><style id="style4511"/><style id="style4511-26"/><style id="style4511-9"/><style id="style4552"/><style id="style4511-2"/><linearGradient xlink:href="#linearGradient4488" id="linearGradient4546" gradientUnits="userSpaceOnUse" gradientTransform="translate(-62.497 1.994) scale(.3038)" x1="288.112" y1="141.785" x2="287.575" y2="79.008"/><linearGradient gradientTransform="rotate(-90 -11.89 57.559)" gradientUnits="userSpaceOnUse" x2="47" x1="1" id="linearGradient3764"><stop id="stop1190" stop-opacity="1" stop-color="#f0e9c8"/><stop id="stop1192" stop-opacity="1" stop-color="#f4efd8" offset="1"/></linearGradient><clipPath id="clipPath-121758028"/><linearGradient xlink:href="#linearGradient3764" id="linearGradient1311" x1="2.974" y1="23.586" x2="45.221" y2="23.586" gradientUnits="userSpaceOnUse"/></defs><style id="style4485" type="text/css"/><path d="M19.754 2.742h8.495c13.908 0 16.805 11.247 16.805 17.282v7.124c0 5.96-2.704 17.282-17.837 17.282h-6.93c-11.562 0-17.146-7.708-17.146-17.282v-7.124c0-9.574 5.47-17.282 16.613-17.282z" id="path4530" opacity="1" fill="url(#linearGradient1311)" fill-opacity="1" stroke="#000" stroke-width=".334" stroke-linecap="square" stroke-linejoin="bevel" stroke-miterlimit="4" stroke-dasharray="none" stroke-dashoffset="0" stroke-opacity=".078"/><path d="M3.141 26.22v1.67c0 9.573 5.583 17.281 17.146 17.281h6.93c15.133 0 17.837-11.322 17.837-17.282v-1.668c0 5.96-2.704 17.282-17.837 17.282h-6.93c-11.563 0-17.146-7.708-17.146-17.282z" id="path4528" opacity="1" fill="url(#linearGradient4546)" fill-opacity="1" stroke="none" stroke-width="1.1" stroke-linecap="square" stroke-linejoin="bevel" stroke-miterlimit="4" stroke-dasharray="none" stroke-dashoffset="0" stroke-opacity=".078"/><path id="path1233" d="M15.428 14.838c.473.48.953.988 1.445 1.523.285.32.598.465.938.449.246-.023.418-.18.512-.48.113-.316.078-.824-.113-1.52-.113-.379-.465-.719-1.051-1.016-1.48-.594-2.344-.805-2.59-.625-.113.082-.148.27-.113.566.078.258.398.625.969 1.102m-2.785 5.668c.91 1.098 1.734 1.852 2.477 2.27.301.059.566-.059.773-.355.133-.258.18-.59.145-.984-.227-.957-1.195-1.68-2.902-2.18-.016-.023-.035-.031-.055-.031-.359-.082-.633-.09-.82-.031-.133.023-.184.172-.145.449.02.258.199.551.539.863m.051 11.582c-.246.078-.328.297-.258.656.418 1.574.949 2.496 1.594 2.777.133.137.301.18.512.117.133-.059.207-.352.227-.863.02-.777.816-3.801 2.387-9.07.113-.32.16-.547.145-.688-.02-.199-.125-.227-.313-.086-.23.18-1.309 2.125-3.242 5.848-.188.438-.539.875-1.051 1.313m13.02-1.074c.016.023.047.047.082.086 2.445 3.285 4.02 5.04 4.715 5.254.969.355 2.625.297 4.977-.18.359-.023.559-.09.594-.211.02-.137-.102-.266-.371-.387-3.41-1.156-5.699-2.172-6.879-3.043-.852-.563-1.559-1.105-2.129-1.645 1.609-.199 3.578-.32 5.91-.355 1.152.059 1.809-.031 1.957-.27.078-.199-.035-.438-.34-.719-.969-.715-1.789-.996-2.473-.832-1.441.355-3.402.746-5.883 1.164a26.46 26.46 0 0 0 .281-1.879 70.624 70.624 0 0 1 3.441-.594c.477-.082.625-.258.457-.539-.191-.316-.547-.523-1.082-.625-.684-.078-1.59.082-2.727.48.02-.566.047-1.105.086-1.609 1.363-.242 2.973-.449 4.828-.625.191-.023.301-.113.344-.27 0-.148-.238-.387-.711-.727.398-.832.836-1.379 1.309-1.641.344-.32.379-.66.113-1.016-.281-.258-.891-.656-1.82-1.195-.301-.141-.66-.148-1.078-.027-.93.379-1.852.695-2.758.953a1.88 1.88 0 0 1 .145-.477c.074-.238.035-.418-.117-.535-.281-.242-.641-.449-1.078-.625.641-.141 1.629-.27 2.953-.391.191-.023.297-.117.313-.297.02-.141-.246-.391-.793-.746-.02-.023-.055-.031-.113-.031.168-.793.348-1.563.539-2.297a63.65 63.65 0 0 1 3.27-.477c.191.02.371-.09.539-.328.02-.199-.18-.41-.594-.625-.57-.438-1.543-.418-2.926.059.016-.082.047-.168.082-.27 0-.078.164-.516.484-1.313.074-.18-.039-.426-.344-.746-.57-.418-1.051-.691-1.449-.832-.246-.082-.453-.059-.625.059-.133.117-.148.32-.055.594.191.379.285.707.285.984a112.5 112.5 0 0 1-.086 1.973c-.168 0-1.195.219-3.07.656 0-1.313-.035-2.01-.113-2.086-.02-.023-.035-.031-.055-.031-.246-.199-.605-.367-1.082-.508a1.432 1.432 0 0 0-1.02.148c-.172.141-.133.328.113.566.301.477.57 1.172.793 2.086-.906.059-1.867.184-2.871.359-.512.059-.57.258-.168.594.527.477 1.176.625 1.934.449.398-.117.84-.211 1.336-.27.301 2.031.527 3.195.684 3.492.129.18.254.199.371.059.055-.078.113-.219.168-.418.512.535.805 1.086.883 1.641-1.156.199-2.332.387-3.527.566-.074-.18-.547-.309-1.422-.391-.227-.059-.359-.031-.398.086-.113.121-.082.32.086.598.477.836.891 1.949 1.25 3.34.078.422.246.758.512 1.016.34.379.547.426.625.148.02-.141.035-.32.055-.539.113.023.273.008.457-.027.648-.18 1.445-.34 2.414-.48a47.93 47.93 0 0 1-.086 1.734 65.806 65.806 0 0 0-3.465.832c-.344.082-.301.281.113.598.227.18 1.316.098 3.27-.238-.02.137-.039.309-.059.504a5.28 5.28 0 0 1-.227 1.371c-2.066.32-4.27.648-6.621.988-.395.059-.441.25-.141.563.246.258.539.438.883.539.395.082.738.082 1.02 0a26.998 26.998 0 0 1 4.434-.926 9.21 9.21 0 0 1-3.641 3.434c-.641.32-1.438.688-2.383 1.102-.23.082-.379.152-.457.211-.078.078.02.156.281.238 1.762.117 3.773-.625 6.03-2.238.281-.238.539-.496.766-.777.457-.617.789-1.363.996-2.238m-.68-6.582c-1.078.188-2.082.355-3.01.516-.23-1.105-.371-1.902-.426-2.43a2.4 2.4 0 0 0 .508-.145 285.7 285.7 0 0 1 2.871-.598c.02.918.039 1.801.055 2.656m1.367-1.699c0-.418.031-.84.086-1.258a65.087 65.087 0 0 0 2.047-.445c.531-.141.922-.086 1.168.145.113.117.141.316.082.566a16.452 16.452 0 0 1-.453 1.703c-1.043.238-2.02.465-2.93.688v-1.406m-2.27-4.504c-.02-.297-.035-.566-.055-.832-.02-.496-.039-.965-.055-1.398a40.177 40.177 0 0 1 2.984-.566c-.078.676-.152 1.383-.23 2.117-.984.301-1.867.527-2.641.688m-.004 0" fill="#b22121" fill-opacity="1" fill-rule="nonzero" stroke="none"/></svg>