<svg xmlns:osb="http://www.openswatchbook.org/uri/2009/osb" xmlns="http://www.w3.org/2000/svg" xmlns:xlink="http://www.w3.org/1999/xlink" width="48" height="48" version="1.1" id="svg38"><defs id="defs22"><linearGradient id="linearGradient4488"><stop id="stop4490" offset="0" stop-color="#000" stop-opacity=".047"/><stop id="stop4492" offset="1" stop-color="#000" stop-opacity="0"/></linearGradient><style id="style4511"/><style id="style4511-26"/><style id="style4511-9"/><style id="style4552"/><style id="style4511-2"/><linearGradient xlink:href="#linearGradient4488" id="linearGradient4546" gradientUnits="userSpaceOnUse" gradientTransform="translate(-62.497 1.994) scale(.3038)" x1="288.112" y1="141.785" x2="287.575" y2="79.008"/><style id="style4511-8"/><style id="style4511-26-4"/><style id="style4511-9-7"/><style id="style4552-3"/><style id="style4511-2-8"/><style id="style4552-7"/><style id="style4552-6"/><style id="style4552-73"/><style id="style4552-2"/><linearGradient osb:paint="solid" id="linearGradient5251"><stop id="stop5253" offset="0" stop-color="#2f343f" stop-opacity="1"/></linearGradient></defs><style id="style4485" type="text/css"/><style type="text/css" id="style4485-0"/><style id="style4485-4" type="text/css"/><style id="style4485-5" type="text/css"/><style id="style4485-3" type="text/css"/><style id="style4485-5-1" type="text/css"/><g id="g992"><g id="g1882"><path d="M3.141 26.22v1.67c0 9.573 5.583 17.281 17.146 17.281h6.93c15.133 0 17.837-11.322 17.837-17.282v-1.668c0 5.96-2.704 17.282-17.837 17.282h-6.93c-11.563 0-17.146-7.708-17.146-17.282z" id="path4528" opacity="1" fill="url(#linearGradient4546)" fill-opacity="1" stroke="none" stroke-width="1.1" stroke-linecap="square" stroke-linejoin="bevel" stroke-miterlimit="4" stroke-dasharray="none" stroke-dashoffset="0" stroke-opacity=".078"/><path d="M19.754 2.742h8.495c13.908 0 16.805 11.247 16.805 17.282v7.124c0 5.96-2.704 17.282-17.837 17.282h-6.93c-11.562 0-17.146-7.708-17.146-17.282v-7.124c0-9.574 5.47-17.282 16.613-17.282z" id="path4530" opacity="1" fill="#ececec" fill-opacity="1" stroke="#000" stroke-width=".334" stroke-linecap="square" stroke-linejoin="bevel" stroke-miterlimit="4" stroke-dasharray="none" stroke-dashoffset="0" stroke-opacity=".078"/><g id="g1846" fill="#bc1938" fill-opacity="1" stroke="none" stroke-width="1.8" stroke-linecap="round" stroke-linejoin="miter" stroke-miterlimit="4" stroke-dasharray="none" stroke-dashoffset="0" stroke-opacity="1"><path id="path5889" d="M12.66 3.87A14.34 14.34 0 0 0 8.67 6.3l1.045 1.076L4.5 13.081h6.213L16.1 7.372c-.958-.959-2.18-2.21-3.441-3.502z" opacity="1"/><path id="path5893" d="M17.63 2.683c-1.894.184-3.605.606-5.124 1.242l3.35 3.451-5.215 5.705h6.212l5.387-5.709a654.746 654.746 0 0 1-4.61-4.69z" opacity="1"/><path id="path5895" d="M19.793 2.576c-.82 0-1.6.053-2.358.134l4.531 4.666-5.214 5.705h6.212l5.387-5.709C27.04 6.06 25.352 4.33 23.638 2.576z" opacity="1"/><path id="path5897" d="M23.445 2.575l4.662 4.801-5.215 5.705h6.213l5.387-5.709c-1.297-1.299-2.963-3.005-4.66-4.742a23.988 23.988 0 0 0-1.545-.055z" opacity="1"/><path id="path5899" d="M29.636 2.613l4.625 4.763-5.215 5.705h6.213l5.381-5.703c-.052-.056-.103-.114-.156-.17-.093-.093-.227-.232-.324-.33-2.345-2.31-5.72-4-10.524-4.265z" opacity="1"/><path id="path5901" d="M38.72 5.644l1.682 1.732-5.217 5.705h6.213l1.78-1.884c-.981-2.062-2.405-4.024-4.458-5.553z" opacity="1"/><path id="path5903" d="M43.107 11.054l-1.853 2.027h2.705a18.183 18.183 0 0 0-.852-2.027z" opacity="1"/><path id="path5905" d="M8.914 6.103c-2.19 1.804-3.761 4.195-4.692 6.978h.553l5.387-5.709c-.348-.347-.84-.856-1.248-1.27z" opacity="1"/></g><path style="marker:none" d="M4.713 14.356a.34.34 0 0 1-.345-.335.34.34 0 0 1 .345-.334c.19 0 .344.15.344.334a.34.34 0 0 1-.344.335zm1.379 0a.34.34 0 0 1-.345-.335.34.34 0 0 1 .345-.334c.19 0 .344.15.344.334a.34.34 0 0 1-.344.335zm1.379 0a.34.34 0 0 1-.345-.335.34.34 0 0 1 .345-.334c.19 0 .345.15.345.334a.34.34 0 0 1-.345.335zm1.379 0a.34.34 0 0 1-.345-.335.34.34 0 0 1 .345-.334c.19 0 .345.15.345.334a.34.34 0 0 1-.345.335zm1.379 0a.34.34 0 0 1-.345-.335.34.34 0 0 1 .345-.334c.19 0 .345.15.345.334a.34.34 0 0 1-.345.335zm1.379 0a.34.34 0 0 1-.345-.335.34.34 0 0 1 .345-.334c.19 0 .345.15.345.334a.34.34 0 0 1-.345.335zm1.38 0a.34.34 0 0 1-.346-.335.34.34 0 0 1 .345-.334c.19 0 .345.15.345.334a.34.34 0 0 1-.345.335zm1.378 0a.34.34 0 0 1-.345-.335.34.34 0 0 1 .345-.334c.19 0 .345.15.345.334a.34.34 0 0 1-.345.335zm1.38 0a.34.34 0 0 1-.346-.335.34.34 0 0 1 .345-.334c.19 0 .345.15.345.334a.34.34 0 0 1-.345.335zm1.378 0a.34.34 0 0 1-.344-.335.34.34 0 0 1 .344-.334c.19 0 .345.15.345.334a.34.34 0 0 1-.345.335zm1.38 0a.34.34 0 0 1-.345-.335.34.34 0 0 1 .344-.334c.19 0 .345.15.345.334a.34.34 0 0 1-.345.335zm1.378 0a.34.34 0 0 1-.344-.335.34.34 0 0 1 .344-.334c.19 0 .345.15.345.334a.34.34 0 0 1-.345.335zm1.38 0a.34.34 0 0 1-.345-.335.34.34 0 0 1 .345-.334c.19 0 .344.15.344.334a.34.34 0 0 1-.344.335zm1.379 0a.34.34 0 0 1-.345-.335.34.34 0 0 1 .345-.334c.19 0 .344.15.344.334a.34.34 0 0 1-.344.335zm1.379 0a.34.34 0 0 1-.345-.335.34.34 0 0 1 .345-.334c.19 0 .345.15.345.334a.34.34 0 0 1-.345.335zm1.379 0a.34.34 0 0 1-.345-.335.34.34 0 0 1 .345-.334c.19 0 .345.15.345.334a.34.34 0 0 1-.345.335zm1.379 0a.34.34 0 0 1-.345-.335.34.34 0 0 1 .345-.334c.19 0 .345.15.345.334a.34.34 0 0 1-.345.335zm1.379 0a.34.34 0 0 1-.345-.335.34.34 0 0 1 .345-.334c.19 0 .345.15.345.334a.34.34 0 0 1-.345.335zm1.38 0a.34.34 0 0 1-.346-.335.34.34 0 0 1 .345-.334c.19 0 .345.15.345.334a.34.34 0 0 1-.345.335zm1.378 0a.34.34 0 0 1-.345-.335.34.34 0 0 1 .345-.334c.19 0 .345.15.345.334a.34.34 0 0 1-.345.335zm1.38 0a.34.34 0 0 1-.346-.335.34.34 0 0 1 .345-.334c.19 0 .345.15.345.334a.34.34 0 0 1-.345.335zm1.378 0a.34.34 0 0 1-.344-.335.34.34 0 0 1 .344-.334c.19 0 .345.15.345.334a.34.34 0 0 1-.345.335zm1.38 0a.34.34 0 0 1-.345-.335.34.34 0 0 1 .344-.334c.19 0 .345.15.345.334a.34.34 0 0 1-.345.335zm1.378 0a.34.34 0 0 1-.344-.335.34.34 0 0 1 .344-.334c.19 0 .345.15.345.334a.34.34 0 0 1-.345.335zm1.38 0a.34.34 0 0 1-.345-.335.34.34 0 0 1 .345-.334c.19 0 .344.15.344.334a.34.34 0 0 1-.344.335zm1.379 0a.34.34 0 0 1-.345-.335.34.34 0 0 1 .345-.334c.19 0 .344.15.344.334a.34.34 0 0 1-.344.335zm1.379 0a.34.34 0 0 1-.345-.335.34.34 0 0 1 .345-.334c.19 0 .344.15.344.334a.34.34 0 0 1-.344.335zm1.379 0a.34.34 0 0 1-.345-.335.34.34 0 0 1 .345-.334c.19 0 .345.15.345.334a.34.34 0 0 1-.345.335zm1.379 0a.34.34 0 0 1-.345-.335.34.34 0 0 1 .345-.334c.19 0 .345.15.345.334a.34.34 0 0 1-.345.335z" id="path4568" color="#000" display="inline" overflow="visible" visibility="visible" opacity=".4" fill="#4d4d4d" fill-opacity="1" stroke="none" stroke-width="1.018"/><path d="M13.761 17.124l-3.693 10.52H9.16v.81h2.62v-.81h-.839l.875-2.429h4.343l.874 2.43H15.9v.809h3.759v-.81h-1.037l-3.694-10.52zm.227 1.821L15.9 24.41h-3.79z" font-size="13.717" font-weight="400" letter-spacing="0" overflow="visible" style="line-height:125%;-inkscape-font-specification:'DejaVu Serif';marker:none" word-spacing="0" id="path3233" color="#bebebe" font-family="DejaVu Serif" display="inline" fill="#666" stroke-width=".195"/><path style="marker:none" d="M21.139 17.934v.809h17.968v-.81zm0 3.237v.809h17.968v-.81zm0 3.222v.809h17.968v-.81zm0 3.237v.809h17.968v-.81zM9.161 30.867v.809l29.946.015v-.81zm0 3.237v.809h29.946v-.81zm0 3.237v.809h22.46v-.81z" id="path1032" color="#000" display="inline" overflow="visible" visibility="visible" opacity="1" fill="#999" fill-opacity=".996" fill-rule="nonzero" stroke="none" stroke-width=".584"/></g><g transform="matrix(1.3602 0 0 1.32583 -14.017 -12.455)" id="g971"><g id="g1896" transform="matrix(.75689 0 0 .79177 13.466 -11.567)" fill-opacity="1"><path id="rect1087" fill="#ececec" stroke="none" stroke-width="1.065" stroke-opacity="1" d="M17.169 54.595h16.073v7.718H17.169z"/><path id="path33" d="M16.357 53.565v9.324h17.451v-9.324zm2.18 1.313a.727.666 0 0 1 .145.011c.092.003.662.025 1.368.016.234-.005.473-.018.68-.018.182 0 .328-.003.5.014.173.018.434.066.65.265a.922.922 0 0 1 .288.595c.02.158.016.292.016.458v1.333c0 .166.003.3-.016.458a.922.922 0 0 1-.288.595c-.216.199-.477.247-.65.264-.172.018-.318.015-.5.015h-1.454v1.998a.727.666 0 1 1-1.454 0v-2.556a.727.666 0 0 1 0-.218v-2.44a.727.666 0 0 1 .15-.53.727.666 0 0 1 .047-.05.727.666 0 0 1 .04-.036.727.666 0 0 1 .042-.031.727.666 0 0 1 .437-.143zm5.08 0a.727.666 0 0 1 .153.013c.26-.02.859-.04 1.608.258.938.374 1.89 1.368 1.896 3.07.006 1.654-.949 2.64-1.876 3.027a3.808 3.808 0 0 1-1.65.301.727.666 0 0 1-.809-.447.727.666 0 0 1-.02-.065.727.666 0 0 1-.012-.065.727.666 0 0 1-.004-.045.727.666 0 0 1-.002-.035.727.666 0 0 1 0-.008v-5.33a.727.666 0 0 1 .001-.03.727.666 0 0 1 .715-.644zm5.101 0a.727.666 0 0 1 .13.01h2.79a.727.666 0 1 1 0 1.331h-2.182v1.332h2.181a.728.666 0 1 1 0 1.333h-2.181v1.998a.727.666 0 1 1-1.454 0v-2.556a.727.666 0 0 1 0-.223v-2.44a.727.666 0 0 1 .197-.576.727.666 0 0 1 .02-.017.727.666 0 0 1 .5-.192zm-7.988 1.341c-.13 0-.386.013-.654.018h-.005c-.415.005-.507-.003-.795-.01v1.324h1.454v-1.332zm3.625.087v3.804c.185-.025.227.013.44-.076.53-.22 1.03-.566 1.025-1.81-.004-1.312-.507-1.65-1.021-1.854-.214-.086-.26-.045-.444-.064z" fill="#bc1938" stroke-width="1.392" stroke-linejoin="bevel"/></g></g></g></svg>