<svg xmlns="http://www.w3.org/2000/svg" xmlns:xlink="http://www.w3.org/1999/xlink" width="48" height="48" version="1.1" id="svg38"><defs id="defs22"><style id="style4511"/><style id="style4511-26"/><style id="style4511-9"/><style id="style4552"/><style id="style4511-2"/><linearGradient id="linearGradient4245"><stop offset="0" id="stop4241" stop-color="#e8e8e8" stop-opacity="1"/><stop offset="1" id="stop4243" stop-color="#f5f5f5" stop-opacity="1"/></linearGradient><linearGradient xlink:href="#linearGradient4245" id="linearGradient1598" x1="3.112" y1="24.139" x2="45.136" y2="24.139" gradientUnits="userSpaceOnUse"/><clipPath id="clipPath-141154033"/></defs><style id="style4485" type="text/css"/><path d="M3.28 28.55v-8.629c0-14.127 11.247-17.07 17.283-17.07h7.123c5.96 0 17.282 2.748 17.282 18.119v7.04c0 11.744-7.708 17.416-17.282 17.416h-7.123c-9.575 0-17.282-5.557-17.282-16.876z" id="path4469" opacity="1" fill="url(#linearGradient1598)" fill-opacity="1" stroke="#000" stroke-width=".337" stroke-linecap="square" stroke-linejoin="bevel" stroke-miterlimit="4" stroke-dasharray="none" stroke-dashoffset="0" stroke-opacity=".078"/><path id="path672" d="M24.464 10.597l-3.07 4.718 2.756 3.826 3.07-3.763-2.756-4.78" fill="#eb959c" fill-opacity="1" fill-rule="evenodd" stroke="none" stroke-width="1.076"/><path id="path674" stroke-miterlimit="4" d="M24.463 10.597l-3.07 4.718 2.757 3.826 3.07-3.763m-2.757-4.78" fill="none" stroke="#952026" stroke-width=".538" stroke-linecap="square" stroke-linejoin="round" stroke-opacity="1"/><path id="path676" d="M27.22 15.38l-3.07 3.765 5.26-2.09 3.384-3.764-5.573 2.09" fill="#e63636" fill-opacity="1" fill-rule="evenodd" stroke="none" stroke-width="1.076"/><path id="path678" stroke-miterlimit="4" d="M27.219 15.383l-3.07 3.763 5.258-2.09 3.385-3.763m-5.573 2.09" fill="none" stroke="#952026" stroke-width=".538" stroke-linecap="square" stroke-linejoin="round" stroke-opacity="1"/><path id="path680" d="M29.413 17.055l-.064 5.618 2.943-3.764.5-5.617-3.38 3.763" fill="#f48661" fill-opacity="1" fill-rule="evenodd" stroke="none" stroke-width="1.076"/><path id="path682" stroke-miterlimit="4" d="M29.412 17.056l-.064 5.618 2.943-3.755.5-5.62m-3.38 3.762" fill="none" stroke="#952026" stroke-width=".538" stroke-linecap="square" stroke-linejoin="round" stroke-opacity="1"/><path id="path684" d="M32.289 18.905l-2.943 3.763 4.571 1.612 3.885-4.36-5.513-1.015" fill="#f4a395" fill-opacity="1" fill-rule="evenodd" stroke="none" stroke-width="1.076"/><path id="path686" stroke-miterlimit="4" d="M32.289 18.9l-2.942 3.763 4.57 1.613 3.885-4.36M32.29 18.9" fill="none" stroke="#952026" stroke-width=".538" stroke-linecap="square" stroke-linejoin="round" stroke-opacity="1"/><path id="path688" d="M33.912 24.288l-4.572-1.612 3.321 4.122 5.26 2.027-4.008-4.539" fill="#f37069" fill-opacity="1" fill-rule="evenodd" stroke="none" stroke-width="1.076"/><path id="path690" stroke-miterlimit="4" d="M33.917 24.283l-4.57-1.611 3.32 4.121 5.259 2.028m-4.006-4.539" fill="none" stroke="#952026" stroke-width=".538" stroke-linecap="square" stroke-linejoin="round" stroke-opacity="1"/><path id="path692" d="M32.67 26.79l-5.264 1.374 4.822 1.311 5.7-.657-5.26-2.032" fill="#781919" fill-opacity="1" fill-rule="evenodd" stroke="none" stroke-width="1.076"/><path id="path694" stroke-miterlimit="4" d="M32.669 26.788l-5.264 1.374 4.822 1.308 5.7-.658-5.268-2.027m0 .004" fill="none" stroke="#952026" stroke-width=".538" stroke-linecap="square" stroke-linejoin="round" stroke-opacity="1"/><path id="path696" stroke-miterlimit="4" d="M32.23 29.474l-4.821-1.315-.315 4.36 5.263 2.689-.127-5.738" fill="#cf2833" fill-opacity="1" fill-rule="evenodd" stroke="#952026" stroke-width=".538" stroke-linecap="square" stroke-linejoin="round" stroke-opacity="1"/><path id="path698" d="M24.217 32.586l-.064 5.196 2.943-5.255.314-4.36-3.193 4.419" fill="#f15459" fill-opacity="1" fill-rule="evenodd" stroke="none" stroke-width="1.076"/><path id="path700" stroke-miterlimit="4" d="M24.211 32.587l-.072 5.196 2.944-5.255.315-4.36m-3.191 4.419" fill="none" stroke="#952026" stroke-width=".538" stroke-linecap="square" stroke-linejoin="round" stroke-opacity="1"/><path id="path702" d="M21.39 15.319l-5.514-2.21 3.198 4.064 5.072 1.97-2.757-3.823" fill="#f47f6a" fill-opacity="1" fill-rule="evenodd" stroke="none" stroke-width="1.076"/><path id="path704" stroke-miterlimit="4" d="M21.388 15.319l-5.513-2.21 3.197 4.064 5.073 1.97m-2.757-3.823" fill="none" stroke="#952026" stroke-width=".538" stroke-linecap="square" stroke-linejoin="round" stroke-opacity="1"/><path id="path706" d="M19.078 17.172l-3.198-4.06.628 5.853 2.757 3.344-.187-5.137" fill="#4c1217" fill-opacity="1" fill-rule="evenodd" stroke="none" stroke-width="1.076"/><path id="path708" stroke-miterlimit="4" d="M19.077 17.174l-3.198-4.06.628 5.854 2.758 3.343m-.188-5.137" fill="none" stroke="#952026" stroke-width=".538" stroke-linecap="square" stroke-linejoin="round" stroke-opacity="1"/><path id="path710" d="M16.508 18.969l-5.573.954 4.071 4.001 4.259-1.612-2.757-3.343" fill="#dc4d5b" fill-opacity="1" fill-rule="evenodd" stroke="none" stroke-width="1.076"/><path id="path712" stroke-miterlimit="4" d="M16.503 18.964l-5.573.954L15 23.92l4.258-1.612m-2.756-3.344" fill="none" stroke="#952026" stroke-width=".538" stroke-linecap="square" stroke-linejoin="round" stroke-opacity="1"/><path id="path714" d="M15.006 23.92l-4.763 4.307 5.514-1.67 3.507-4.241-4.259 1.62" fill="#eb2536" fill-opacity="1" fill-rule="evenodd" stroke="none" stroke-width="1.076"/><path id="path716" stroke-miterlimit="4" d="M15.004 23.92l-4.763 4.307 5.513-1.67 3.504-4.242L15 23.926m0-.004" fill="none" stroke="#952026" stroke-width=".538" stroke-linecap="square" stroke-linejoin="round" stroke-opacity="1"/><path id="path718" d="M15.757 26.547l-5.514 1.674 6.328.954 4.572-.896-5.386-1.732" fill="#5f1726" fill-opacity="1" fill-rule="evenodd" stroke="none" stroke-width="1.076"/><path id="path720" stroke-miterlimit="4" d="M15.757 26.554l-5.514 1.673 6.328.954 4.572-.895m-5.385-1.732" fill="none" stroke="#952026" stroke-width=".538" stroke-linecap="square" stroke-linejoin="round" stroke-opacity="1"/><path id="path722" d="M21.143 28.28l-4.572.896-1.001 6.096 5.636-2.811-.064-4.18" fill="#841920" fill-opacity="1" fill-rule="evenodd" stroke="none" stroke-width="1.076"/><path id="path724" stroke-miterlimit="4" d="M21.144 28.28l-4.573.896-1.001 6.096 5.636-2.811m-.064-4.18" fill="none" stroke="#952026" stroke-width=".538" stroke-linecap="square" stroke-linejoin="round" stroke-opacity="1"/><path id="path726" stroke-miterlimit="4" d="M21.144 28.28l.063 4.18 2.943 5.318.065-5.197-3.071-4.306" fill="#511119" fill-opacity="1" fill-rule="evenodd" stroke="#952026" stroke-width=".538" stroke-linecap="square" stroke-linejoin="round" stroke-opacity="1"/><path id="path728" d="M24.217 24.224l5.132-1.553.064-5.618-5.26 2.09.065 5.08" fill="#b0283c" fill-opacity="1" fill-rule="evenodd" stroke="none" stroke-width="1.076"/><path id="path730" stroke-miterlimit="4" d="M24.211 24.22l5.132-1.554.065-5.617-5.26 2.09m.065 5.08" fill="none" stroke="#952026" stroke-width=".538" stroke-linecap="square" stroke-linejoin="round" stroke-opacity="1"/><path id="path732" d="M29.346 22.663l-5.133 1.553 3.193 3.943 5.26-1.374-3.322-4.122" fill="#e55b5b" fill-opacity="1" fill-rule="evenodd" stroke="none" stroke-width="1.076"/><path id="path734" stroke-miterlimit="4" d="M29.347 22.663l-5.133 1.553 3.193 3.943 5.26-1.375m-3.321-4.12" fill="none" stroke="#952026" stroke-width=".538" stroke-linecap="square" stroke-linejoin="round" stroke-opacity="1"/><path id="path736" d="M24.217 24.224l-3.07 4.06 3.07 4.306 3.193-4.418-3.193-3.943" fill="#f49d9d" fill-opacity="1" fill-rule="evenodd" stroke="none" stroke-width="1.076"/><path id="path738" stroke-miterlimit="4" d="M24.211 24.22l-3.07 4.06 3.07 4.306 3.19-4.419-3.19-3.943m0-.004" fill="none" stroke="#952026" stroke-width=".538" stroke-linecap="square" stroke-linejoin="round" stroke-opacity="1"/><path id="path740" d="M15.757 26.547l5.386 1.732 3.07-4.06-4.95-1.915-3.506 4.242" fill="#f48e87" fill-opacity="1" fill-rule="evenodd" stroke="none" stroke-width="1.076"/><path id="path742" stroke-miterlimit="4" d="M15.757 26.554l5.386 1.732 3.07-4.061-4.95-1.915m-3.506 4.243" fill="none" stroke="#952026" stroke-width=".538" stroke-linecap="square" stroke-linejoin="round" stroke-opacity="1"/><path id="path744" d="M24.217 24.224l-.064-5.08-5.077-1.978.19 5.138 4.95 1.915" fill="#e52f45" fill-opacity="1" fill-rule="evenodd" stroke="none" stroke-width="1.076"/><path id="path746" stroke-miterlimit="4" d="M24.211 24.22l-.072-5.08-5.076-1.978.19 5.138m4.958 1.915" fill="none" stroke="#952026" stroke-width=".538" stroke-linecap="square" stroke-linejoin="round" stroke-opacity="1"/><path id="path748" d="M29.59 22.568l.065-5.825-5.45 2.165-5.272-2.049.111 2.881.374-.008-.085-2.328 4.877 1.894 5.068-2.016-.06 5.405 3.19 3.96-5.06 1.31-3.074 4.256-2.952-4.135-5.19-1.666 3.383-4.097-.097-2.67h-.378l.093 2.553-3.63 4.389.254.083 5.326 1.71 3.186 4.472 3.312-4.584 5.461-1.429-3.452-4.285" fill="#701f18" fill-opacity="1" fill-rule="evenodd" stroke="none" stroke-width="1.076"/><path id="path750" d="M27.495 28.027l-3.045-3.755.747-.23 4.152-1.253.16-.17-.237-.046-4.903 1.486-.069-4.85-.11-.197-.115.197v.245l.06 4.588-1.48-.57-3.232-1.25-.238.038.158.175 4.728 1.828-.972 1.282-1.968 2.595-.022.229.216-.092 2.922-3.876 1.836 2.26 1.213 1.495.216.096-.025-.225" fill="#b91920" fill-opacity="1" fill-rule="evenodd" stroke="none" stroke-width="1.076"/><path d="M24.54 10.394l2.756 4.78" id="path1119" fill="none" stroke="#952026" stroke-width=".4" stroke-linecap="butt" stroke-linejoin="miter" stroke-miterlimit="4" stroke-dasharray="none" stroke-opacity="1"/><path d="M32.794 13.29l-5.571 2.08" id="path1121" fill="none" stroke="#952026" stroke-width=".4" stroke-linecap="butt" stroke-linejoin="miter" stroke-miterlimit="4" stroke-dasharray="none" stroke-opacity="1"/><path d="M32.289 18.9l5.513 1.02" id="path1123" fill="none" stroke="#952026" stroke-width=".6" stroke-linecap="butt" stroke-linejoin="miter" stroke-opacity="1" stroke-miterlimit="4" stroke-dasharray="none"/></svg>