<svg xmlns="http://www.w3.org/2000/svg" xmlns:xlink="http://www.w3.org/1999/xlink" width="48" height="48" version="1.1" id="svg38"><defs id="defs22"><linearGradient id="linearGradient4488"><stop id="stop4490" offset="0" stop-color="#000" stop-opacity=".047"/><stop id="stop4492" offset="1" stop-color="#000" stop-opacity="0"/></linearGradient><style id="style4511"/><style id="style4511-26"/><style id="style4511-9"/><style id="style4552"/><linearGradient id="e-1" y1="41.22" x1="24.392" y2="25.343" x2="20.643" gradientUnits="userSpaceOnUse"><stop stop-color="#334545" id="stop22-8"/><stop offset="1" stop-color="#536161" id="stop24-7"/></linearGradient><style id="style4511-2"/><linearGradient xlink:href="#linearGradient4488" id="linearGradient4546" gradientUnits="userSpaceOnUse" gradientTransform="translate(-62.497 1.994) scale(.3038)" x1="288.112" y1="141.785" x2="287.575" y2="79.008"/><linearGradient x1="0" y1="0" x2="1" y2="0" gradientUnits="userSpaceOnUse" gradientTransform="matrix(0 -74.11765 80.7574 0 205.597 44.683)" spreadMethod="pad" id="linearGradient218-2-1"><stop offset="0" id="stop220-0" stop-opacity="1" stop-color="#bf2026"/><stop offset="1" id="stop222-6" stop-opacity="1" stop-color="#e42f28"/></linearGradient><linearGradient xlink:href="#e-1" id="linearGradient1497" x1="2.936" y1="24.297" x2="45.259" y2="24.297" gradientUnits="userSpaceOnUse" gradientTransform="rotate(-90 24.098 24.297)"/><clipPath id="clipPath-525887304"/></defs><style id="style4485" type="text/css"/><path d="M3.141 26.22v1.67c0 9.573 5.583 17.281 17.146 17.281h6.93c15.133 0 17.837-11.322 17.837-17.282v-1.668c0 5.96-2.704 17.282-17.837 17.282h-6.93c-11.563 0-17.146-7.708-17.146-17.282z" id="path4528" opacity="1" fill="url(#linearGradient4546)" fill-opacity="1" stroke="none" stroke-width="1.1" stroke-linecap="square" stroke-linejoin="bevel" stroke-miterlimit="4" stroke-dasharray="none" stroke-dashoffset="0" stroke-opacity=".078"/><path d="M19.755 3.304h8.494c13.907 0 16.803 11.327 16.803 17.406v7.174c0 6.003-2.704 17.407-17.835 17.407h-6.93c-11.561 0-17.144-7.763-17.144-17.407V20.71c0-9.643 5.47-17.406 16.612-17.406z" id="path4530" opacity="1" fill="url(#linearGradient1497)" fill-opacity="1" stroke="#000" stroke-width=".335" stroke-linecap="square" stroke-linejoin="bevel" stroke-miterlimit="4" stroke-dasharray="none" stroke-dashoffset="0" stroke-opacity=".078"/><path id="path224" d="M174.474-20.94c-12.34 11.326-12.34 45.802 0 57.128 12.341 11.326 49.906 11.326 62.246 0 12.341-11.326 12.341-45.802 0-57.128-6.17-5.663-18.646-8.495-31.123-8.495-12.476 0-24.952 2.832-31.123 8.495" fill="url(#linearGradient218-2-1)" stroke="none" stroke-width="1.25"/><g id="g1364" transform="translate(-1.39 -1.279)"><g transform="matrix(1.09793 0 0 1.0814 -1.044 -.982)" id="g1353" stroke-width=".918"><g id="g33" transform="translate(-.338 .058)"><g id="g35" clip-path="url(#clipPath-525887304)" stroke-width=".918"><g transform="translate(1 1)" id="g37" stroke-width=".918"><g id="g39" opacity=".1" stroke-width=".918"><g id="g41" stroke-width=".918"><path d="M29.23 12.06c-.426.34-1.68 2.719-2.934 5.555a69.295 69.295 0 0 1-1.59 3.363c-1.078 2.059-3.711 5.805-4.93 7l-1.137 1.125.848.926c.52.57 1.207 1.754 1.777 3.078 1.082 2.523 1.27 2.887 1.477 2.887.098 0 .652-.313 1.27-.707 1.379-.895 2.668-2.098 4.422-4.145 2.738-3.191 4.793-3.867 7.324-2.402.684.398 1.246.648 1.246.555 0-.098-.348-1.059-.766-2.141a526.72 526.72 0 0 1-2.527-6.789c-.691-1.164-2.949-9.117-4.48-8.297m-5.457 6.527c-.012 0-.027 0-.043.008-2.316 1.039-3.152 1.512-3.836 2.172-.449.441-.816.91-.816 1.047 0 .426 1.824 1.563 2.125 1.324.145-.117.715-.953 1.266-1.863.973-1.621 1.477-2.664 1.305-2.688m-6.484 4.59c-.395 0-5.992 2.168-6.258 2.426-.078.074.004.211.184.313.18.105 1.203.805 2.289 1.559 1.082.754 2.023 1.367 2.09 1.371.066 0 .563-.266 1.094-.594 1.117-.688 3.273-2.816 3.262-3.223-.008-.363-2.156-1.855-2.664-1.855m.004.004" id="path43" fill="#000" fill-opacity="1" fill-rule="nonzero" stroke="none" stroke-width=".918"/></g></g></g></g></g><path d="M29.188 12.071a.476.476 0 0 0-.295.055v-.008c-.426.34-1.68 2.719-2.934 5.555a69.13 69.13 0 0 1-1.591 3.363c-1.078 2.06-3.711 5.805-4.93 7L18.3 29.161l.848.926c.52.57 1.207 1.754 1.777 3.078 1.082 2.523 1.27 2.887 1.477 2.887.098 0 .653-.313 1.271-.707 1.38-.895 2.668-2.098 4.422-4.145 2.738-3.19 4.793-3.867 7.324-2.402.684.398 1.246.648 1.246.555 0-.098-.35-1.06-.767-2.141a532.453 532.453 0 0 1-2.526-6.79c-.647-1.09-2.673-8.148-4.185-8.35z" id="path3434" fill="#f67e17" fill-opacity="1" fill-rule="nonzero" stroke="none"/><path d="M23.436 18.653c-.012 0-.027 0-.043.008-2.316 1.04-3.152 1.512-3.836 2.172-.449.441-.816.91-.816 1.047 0 .426 1.824 1.563 2.125 1.324.145-.117.714-.953 1.265-1.863.973-1.621 1.477-2.664 1.305-2.688zM16.95 23.24l.002.004c-.395 0-5.992 2.168-6.258 2.426-.078.074.005.21.185.312.18.105 1.203.805 2.29 1.559 1.081.754 2.022 1.367 2.09 1.371.065 0 .562-.266 1.093-.594 1.117-.688 3.273-2.815 3.262-3.222-.008-.363-2.156-1.856-2.664-1.856z" id="path51" fill="#62cbcb" fill-opacity="1" fill-rule="nonzero" stroke="none"/></g></g></svg>