<svg xmlns="http://www.w3.org/2000/svg" xmlns:xlink="http://www.w3.org/1999/xlink" width="48" height="48" version="1.1" id="svg38"><defs id="defs22"><linearGradient id="linearGradient4488"><stop id="stop4490" offset="0" stop-color="#000" stop-opacity=".047"/><stop id="stop4492" offset="1" stop-color="#000" stop-opacity="0"/></linearGradient><style id="style4511"/><style id="style4511-26"/><style id="style4511-9"/><linearGradient gradientUnits="userSpaceOnUse" x2="19.574" y2="22.495" x1="3.783" y1="23.644" id="g-5"><stop id="stop24-2" stop-color="#2980b9"/><stop id="stop26" stop-color="#34495e" offset="1"/></linearGradient><style id="style4552"/><style id="style4511-2"/><linearGradient xlink:href="#linearGradient4488" id="linearGradient4548" gradientUnits="userSpaceOnUse" gradientTransform="translate(-62.55 1.994) scale(.3038)" x1="288.112" y1="141.785" x2="287.575" y2="79.008"/><linearGradient xlink:href="#g-5" id="linearGradient1285" x1="2.921" y1="23.586" x2="45.168" y2="23.586" gradientUnits="userSpaceOnUse" gradientTransform="rotate(90 24.045 23.586)"/></defs><style id="style4485" type="text/css"/><path id="path4532" d="M3.088 26.22v1.67c0 9.573 5.583 17.281 17.146 17.281h6.93c15.133 0 17.837-11.322 17.837-17.282v-1.668c0 5.96-2.704 17.282-17.837 17.282h-6.93c-11.563 0-17.146-7.708-17.146-17.282z" opacity="1" fill="url(#linearGradient4548)" fill-opacity="1" stroke="none" stroke-width="1.1" stroke-linecap="square" stroke-linejoin="bevel" stroke-miterlimit="4" stroke-dasharray="none" stroke-dashoffset="0" stroke-opacity=".078"/><path id="path4534" d="M44.888 19.243v8.495c0 13.908-11.247 16.804-17.282 16.804h-7.123c-5.96 0-17.282-2.704-17.282-17.836v-6.93C3.2 8.213 10.909 2.63 20.483 2.63h7.123c9.574 0 17.282 5.47 17.282 16.613z" opacity="1" fill="url(#linearGradient1285)" fill-opacity="1" stroke="#000" stroke-width=".334" stroke-linecap="square" stroke-linejoin="bevel" stroke-miterlimit="4" stroke-dasharray="none" stroke-dashoffset="0" stroke-opacity=".078"/><path d="M23.719 9.289A14.407 14.305 0 0 0 9.638 23.578a14.407 14.305 0 0 0 14.407 14.305A14.407 14.305 0 0 0 38.45 23.578a14.407 14.305 0 0 0-6.202-11.715V15.4a10.29 10.218 0 0 1 2.086 6.134 10.29 10.218 0 0 1-10.29 10.218 10.29 10.218 0 0 1-10.291-10.218 10.29 10.218 0 0 1 8.044-9.958c.588-.697 1.317-1.568 1.624-1.94.102-.125.198-.231.297-.347zm3.702 2.047c-.076.034-.44.434-.812.886a244.71 244.71 0 0 1-1.805 2.152c-.62.732-1.8 2.134-2.617 3.113-1.605 1.924-1.861 2.312-2.126 3.225-.165.57-.18 1.493-.032 2.028.404 1.467 1.757 2.567 3.501 2.85.08.013.353.028.607.032 1.057.015 1.956-.34 2.717-1.074.402-.387.513-.54.76-1.034.16-.318.332-.743.386-.942.14-.51.205-1.562.133-3.971v-7.017c-.038-.19-.54-.323-.712-.248z" id="path1257" fill="#fff" stroke-width="1.025"/></svg>