<svg xmlns="http://www.w3.org/2000/svg" xmlns:xlink="http://www.w3.org/1999/xlink" width="48" height="48" version="1.1" id="svg38"><defs id="defs22"><style id="style4511"/><style id="style4511-26"/><style id="style4511-9"/><linearGradient gradientUnits="userSpaceOnUse" x2="44" y2="24" x1="26.425" y1="37.11" id="a-7"><stop id="stop2-0" stop-color="#2980b9"/><stop id="stop4-9" stop-color="#1d99f3" offset="1"/></linearGradient><style id="style4552"/><style id="style4511-2"/><linearGradient xlink:href="#a-7" id="linearGradient5542" x1="2.985" y1="23.808" x2="45.232" y2="23.808" gradientUnits="userSpaceOnUse" gradientTransform="rotate(-90 24.109 23.808)"/></defs><style id="style4485" type="text/css"/><g id="g1485"><path id="rect4144" d="M3.265 28.151v-8.495c0-13.907 11.247-16.804 17.282-16.804h7.123c5.96 0 17.282 2.704 17.282 17.836v6.93c0 11.563-7.708 17.146-17.282 17.146h-7.123c-9.574 0-17.282-5.47-17.282-16.613z" opacity="1" fill="url(#linearGradient5542)" fill-opacity="1" stroke="#000" stroke-width=".334" stroke-linecap="square" stroke-linejoin="bevel" stroke-miterlimit="4" stroke-dasharray="none" stroke-dashoffset="0" stroke-opacity=".078"/><path id="path1438" d="M18.36 16.496h12v10h6v-10a6 6 0 0 0-6-6h-18v16h6z" fill="#fff"/><path id="path1440" d="M24.647 25.023c.91 0 1.816.14 2.714.402v-5.929h-6v6.125a9.565 9.565 0 0 1 3.286-.598z" fill="#fff"/><path id="path1442" d="M6.299 38.486l-.721-1.105-.63-1.16-.491-1.145-.414-1.19s5.14-2.484 8.099-1.39l-.88-1.125s2.11-3.063 6.074-1.828c0 0-.593 1.234-.54 2.11 0 0 5.988-8.97 14.13-1.939l-.46 1.563s5.756-4.219 7.873 3.406l1.885-1.063s3.026-1.234 4.026-.266l-.408 1.381-.588 1.358-.658 1.292-.885 1.252z" fill="#a4d2fb"/></g></svg>