<svg xmlns="http://www.w3.org/2000/svg" xmlns:xlink="http://www.w3.org/1999/xlink" width="48" height="48" version="1.1" id="svg38"><defs id="defs22"><style id="style4511"/><style id="style4511-26"/><style id="style4511-9"/><linearGradient id="b-7" y1="44" x1="44" y2="4" x2="24" gradientUnits="userSpaceOnUse"><stop stop-color="#c61423" id="stop7-3"/><stop offset="1" stop-color="#dc2b41" id="stop9-56"/></linearGradient><style id="style4552"/><style id="style4511-2"/><linearGradient xlink:href="#b-7" id="linearGradient1294" x1="2.654" y1="24.405" x2="45.511" y2="24.405" gradientUnits="userSpaceOnUse" gradientTransform="translate(.102)"/></defs><style id="style4485" type="text/css"/><path d="M19.779 3.253h8.617c14.109 0 17.047 11.413 17.047 17.537v7.229c0 6.047-2.743 17.537-18.094 17.537h-7.03c-11.73 0-17.393-7.822-17.393-17.537V20.79c0-9.715 5.549-17.537 16.853-17.537z" id="rect4144" opacity="1" fill="url(#linearGradient1294)" fill-opacity="1" stroke="#000" stroke-width=".339" stroke-linecap="square" stroke-linejoin="bevel" stroke-miterlimit="4" stroke-dasharray="none" stroke-dashoffset="0" stroke-opacity=".078"/><path id="path4537" d="M9.072 24.405V13.927h6.302l4.326 4.67c2.38 2.567 4.396 4.669 4.481 4.669.086 0 2.105-2.1 4.487-4.667L33 13.93l3.149-.002 3.148-.002v20.955h-6.411V22.929l-3.724 3.699-3.723 3.699H22.93l-3.723-3.7-3.724-3.698v11.953H9.072z" fill="#fefefe" fill-opacity="1" stroke-width=".228"/></svg>