<svg xmlns="http://www.w3.org/2000/svg" xmlns:xlink="http://www.w3.org/1999/xlink" width="48" height="48" version="1.1" id="svg38"><defs id="defs22"><linearGradient id="linearGradient4488"><stop id="stop4490" offset="0" stop-color="#000" stop-opacity=".047"/><stop id="stop4492" offset="1" stop-color="#000" stop-opacity="0"/></linearGradient><style id="style4511"/><style id="style4511-26"/><style id="style4511-9"/><style id="style4552"/><linearGradient id="d-0" y1="22.346" x1="29.855" y2="28.506" x2="54.32" gradientUnits="userSpaceOnUse"><stop stop-color="#ffc169" id="stop17-62"/><stop offset="1" stop-color="#ffa92d" id="stop19-6"/></linearGradient><style id="style4511-2"/><linearGradient xlink:href="#linearGradient4488" id="linearGradient4544" gradientUnits="userSpaceOnUse" gradientTransform="translate(-62.887 1.994) scale(.3038)" x1="288.112" y1="141.785" x2="287.575" y2="79.008"/><radialGradient gradientUnits="userSpaceOnUse" gradientTransform="matrix(1 0 0 .99464 1.295 -.095)" r="20.956" fy="23.809" fx="22.413" cy="23.809" cx="22.413" id="radialGradient4838-4" xlink:href="#d-0"/></defs><style id="style4485" type="text/css"/><path id="path4524" d="M2.752 26.22v1.67c0 9.573 5.583 17.281 17.146 17.281h6.93c15.133 0 17.837-11.322 17.837-17.282v-1.668c0 5.96-2.704 17.282-17.837 17.282h-6.93c-11.563 0-17.146-7.708-17.146-17.282z" opacity="1" fill="url(#linearGradient4544)" fill-opacity="1" stroke="none" stroke-width="1.1" stroke-linecap="square" stroke-linejoin="bevel" stroke-miterlimit="4" stroke-dasharray="none" stroke-dashoffset="0" stroke-opacity=".078"/><path id="path4526" d="M19.365 2.742h8.495c13.908 0 16.805 11.247 16.805 17.282v7.124c0 5.96-2.705 17.282-17.837 17.282h-6.93c-11.563 0-17.146-7.708-17.146-17.282v-7.124c0-9.574 5.47-17.282 16.613-17.282z" opacity="1" fill="#5081b9" fill-opacity=".89" stroke="#000" stroke-width=".334" stroke-linecap="square" stroke-linejoin="bevel" stroke-miterlimit="4" stroke-dasharray="none" stroke-dashoffset="0" stroke-opacity=".078"/><path id="path6190-0" d="M19.365 2.742c-11.143 0-16.613 7.707-16.613 17.282v7.123c0 1.922.236 3.763.69 5.488.951.9 1.98 1.744 3.113 2.498 3.532 2.35 7.757 3.61 11.984 3.549 4.228-.062 8.91-1.502 12.266-5.692 1.783-2.227 2.04-4.923 1.466-7.246-.574-2.322-2.383-4.31-4.021-5.252l-.022-.011-.02-.01a3.98 3.98 0 0 0-3.616.11c-.97.525-1.649 1.315-1.86 2.112l-.172.65a3.707 3.707 0 0 1-.464-.044c-.735-.13-1.294-.44-1.479-.994-.226-1.77.227-3.24 1.14-4.33.925-1.103 2.326-1.827 4.005-2.01 2.849-.311 5.825.936 7.742 2.975 1.917 2.038 3.208 4.866 3.44 7.574.658 7.701-6.148 15.522-13.233 17.732v.184h3.117c15.132 0 17.836-11.324 17.836-17.283v-7.123c0-1.837-.274-4.156-1.04-6.495a23.35 23.35 0 0 0-2.76-2.166C37.33 9.013 33.106 7.747 28.88 7.81c-4.228.062-8.802 1.507-12.157 5.697-1.783 2.227-2.04 4.924-1.466 7.246.574 2.323 2.272 4.311 3.91 5.252l.02.01.02.012a3.98 3.98 0 0 0 3.618-.11c.97-.525 1.646-1.315 1.857-2.113l.188-.705c.16 0 .324.005.48.025.376.05.834.154 1.088.31.245.151.396.338.485.604.455 3.561-1.944 6.573-5.268 6.936-2.85.31-5.381-.936-7.299-2.975-1.917-2.038-3.645-5.308-3.877-8.015-.617-7.211 5.31-14.524 11.883-17.24z" style="marker:none" color="#000" display="inline" overflow="visible" visibility="visible" opacity=".96" fill="url(#radialGradient4838-4)" fill-opacity="1" fill-rule="evenodd" stroke="none" stroke-width=".953" stroke-linecap="butt" stroke-linejoin="miter" stroke-miterlimit="4" stroke-dasharray="none" stroke-dashoffset="0" stroke-opacity="1"/></svg>