<svg xmlns:osb="http://www.openswatchbook.org/uri/2009/osb" xmlns="http://www.w3.org/2000/svg" xmlns:xlink="http://www.w3.org/1999/xlink" width="48" height="48" version="1.1" id="svg38"><defs id="defs22"><linearGradient id="linearGradient4300" osb:paint="solid"><stop offset="0" id="stop4298" stop-color="#9f007b" stop-opacity="1"/></linearGradient><linearGradient id="linearGradient4488"><stop id="stop4490" offset="0" stop-color="#000" stop-opacity=".047"/><stop id="stop4492" offset="1" stop-color="#000" stop-opacity="0"/></linearGradient><style id="style4511"/><style id="style4511-26"/><style id="style4511-9"/><style id="style4552"/><style id="style4511-2"/><linearGradient xlink:href="#linearGradient4488" id="linearGradient4540" gradientUnits="userSpaceOnUse" gradientTransform="matrix(.3038 0 0 .30593 -62.889 2.276)" x1="288.112" y1="141.785" x2="287.575" y2="79.008"/><linearGradient osb:paint="solid" id="linearGradient5293"><stop id="stop5295" offset="0" stop-color="#9a89c0" stop-opacity="1"/></linearGradient><style id="style4511-879"/><style id="style4511-26-65"/><style id="style4511-9-2"/><style id="style4552-89"/><style id="style4511-2-1"/><style id="style4511-8"/><style id="style4511-26-4"/><style id="style4511-9-7"/><style id="style4552-3"/><style id="style4511-2-8"/><style id="style4552-7"/><style id="style4552-6"/><style id="style4552-73"/><style id="style4552-2"/><linearGradient id="linearGradient5251" osb:paint="solid"><stop offset="0" id="stop5253" stop-color="#2f343f" stop-opacity="1"/></linearGradient><style id="style4511-87"/><style id="style4511-26-6"/><style id="style4511-9-1"/><style id="style4552-8"/><style id="style4511-2-5"/><linearGradient xlink:href="#linearGradient4488" id="linearGradient4546" gradientUnits="userSpaceOnUse" gradientTransform="translate(-63.442 3.036) scale(.3038)" x1="288.112" y1="141.785" x2="287.575" y2="79.008"/></defs><style id="style4485" type="text/css"/><style type="text/css" id="style4485-34"/><style id="style4485-0" type="text/css"/><style type="text/css" id="style4485-4"/><style type="text/css" id="style4485-5"/><style type="text/css" id="style4485-3"/><style type="text/css" id="style4485-5-1"/><style id="style4485-1" type="text/css"/><path id="path4516" d="M2.75 26.673v1.68c0 9.641 5.583 17.403 17.146 17.403h6.93c15.132 0 17.836-11.402 17.836-17.403v-1.68c0 6.001-2.704 17.403-17.836 17.403h-6.93c-11.563 0-17.146-7.762-17.146-17.403z" opacity="1" fill="url(#linearGradient4540)" fill-opacity="1" stroke="none" stroke-width="1.104" stroke-linecap="square" stroke-linejoin="bevel" stroke-miterlimit="4" stroke-dasharray="none" stroke-dashoffset="0" stroke-opacity=".078"/><path id="path4518" d="M19.363 3.132h8.495c13.908 0 16.804 11.325 16.804 17.403v7.173c0 6.001-2.704 17.403-17.836 17.403h-6.93C8.333 45.111 2.75 37.35 2.75 27.708v-7.173c0-9.642 5.47-17.403 16.613-17.403z" opacity="1" fill="#5f81d4" fill-opacity="1" stroke="#000" stroke-width=".335" stroke-linecap="square" stroke-linejoin="bevel" stroke-miterlimit="4" stroke-dasharray="none" stroke-dashoffset="0" stroke-opacity=".078"/><path d="M2.196 27.263v1.668c0 9.574 5.583 17.282 17.146 17.282h6.93c15.133 0 17.837-11.322 17.837-17.282v-1.668c0 5.96-2.704 17.282-17.837 17.282h-6.93c-11.563 0-17.146-7.708-17.146-17.282z" id="path4528" opacity="1" fill="url(#linearGradient4546)" fill-opacity="1" stroke="none" stroke-width="1.1" stroke-linecap="square" stroke-linejoin="bevel" stroke-miterlimit="4" stroke-dasharray="none" stroke-dashoffset="0" stroke-opacity=".078"/><g id="g2746" transform="matrix(.85905 0 0 .86111 3.983 3.7)" fill-rule="evenodd" stroke="none" stroke-width="1"><path id="path1906" d="M27.079 23.4c-3.992 0-7.228-3.29-7.228-7.35s3.236-7.35 7.228-7.35c3.992 0 7.228 3.29 7.228 7.35s-3.236 7.35-7.228 7.35zm-13.217 7.77c-3.992 0-7.229-3.29-7.229-7.35s3.237-7.35 7.229-7.35 7.228 3.29 7.228 7.35-3.236 7.35-7.228 7.35zm13.217 7.56c-3.992 0-7.228-3.29-7.228-7.35s3.236-7.35 7.228-7.35c3.992 0 7.228 3.29 7.228 7.35s-3.236 7.35-7.228 7.35z" fill="#f2f2f2"/><path id="Triangle" d="M38.876 24.535L15.32 38.413a.83.83 0 0 1-1.252-.715V9.943a.83.83 0 0 1 1.252-.716l23.556 13.878a.83.83 0 0 1 0 1.43z" fill="#ffbf00"/></g></svg>