<svg xmlns:osb="http://www.openswatchbook.org/uri/2009/osb" xmlns="http://www.w3.org/2000/svg" xmlns:xlink="http://www.w3.org/1999/xlink" width="48" height="48" version="1.1" id="svg38"><defs id="defs22"><linearGradient id="linearGradient4488"><stop id="stop4490" offset="0" stop-color="#000" stop-opacity=".047"/><stop id="stop4492" offset="1" stop-color="#000" stop-opacity="0"/></linearGradient><style id="style4511"/><style id="style4511-26"/><style id="style4511-9"/><linearGradient gradientTransform="rotate(45 820.042 -190.615)" x2="378.58" gradientUnits="userSpaceOnUse" y2="523.86" x1="430.51" y1="522.99" id="b-3-7"><stop id="stop7-67" stop-color="#fcfcfc"/><stop id="stop9-53" stop-color="#e9eaeb" offset="1"/></linearGradient><style id="style4552"/><style id="style4511-2"/><linearGradient xlink:href="#linearGradient4488" id="linearGradient4540" gradientUnits="userSpaceOnUse" gradientTransform="translate(-62.889 1.994) scale(.3038)" x1="288.112" y1="141.785" x2="287.575" y2="79.008"/><linearGradient osb:paint="solid" id="linearGradient5293"><stop id="stop5295" offset="0" stop-color="#9a89c0" stop-opacity="1"/></linearGradient><linearGradient xlink:href="#b-3-7" id="linearGradient1992" x1="2.897" y1="23.778" x2="44.92" y2="23.778" gradientUnits="userSpaceOnUse"/></defs><style id="style4485" type="text/css"/><path id="path4516" d="M2.75 26.22v1.67c0 9.573 5.583 17.281 17.146 17.281h6.93c15.132 0 17.836-11.322 17.836-17.282v-1.668c0 5.96-2.704 17.282-17.836 17.282h-6.93C8.333 43.503 2.75 35.795 2.75 26.22z" opacity="1" fill="url(#linearGradient4540)" fill-opacity="1" stroke="none" stroke-width="1.1" stroke-linecap="square" stroke-linejoin="bevel" stroke-miterlimit="4" stroke-dasharray="none" stroke-dashoffset="0" stroke-opacity=".078"/><path id="path4518" d="M3.065 28.165v-8.58c0-14.045 11.247-16.97 17.282-16.97h7.123c5.96 0 17.282 2.73 17.282 18.013v6.999c0 11.677-7.707 17.316-17.282 17.316h-7.123c-9.574 0-17.282-5.525-17.282-16.778z" opacity="1" fill="url(#linearGradient1992)" fill-opacity="1" stroke="#000" stroke-width=".336" stroke-linecap="square" stroke-linejoin="bevel" stroke-miterlimit="4" stroke-dasharray="none" stroke-dashoffset="0" stroke-opacity=".078"/><path d="M31.65 37.336c-.279-.06-.353-.116-.699-.526-.16-.189-.297-.434-.325-.58-.028-.138-.073-.28-.101-.315-.108-.132-.323-1.673-.39-2.797-.03-.51-.018-.607.091-.717.193-.196.846-.131 1.294.128 1.018.588 1.922 1.378 2.37 2.07.362.563.372.59.372 1.058 0 .264-.027.53-.061.59-.034.06-.102.189-.152.286-.125.244-.54.675-.649.675-.05 0-.129.043-.176.095-.066.072-.234.093-.718.088-.347-.003-.732-.028-.856-.055zm-13.92-3.47c-.028-.07-.04-.256-.03-.438.02-.309.028-.327.313-.671.447-.541.591-.611.472-.23a3.64 3.64 0 0 0-.092.626c-.025.356-.051.46-.157.631-.105.17-.153.205-.291.205-.126 0-.178-.03-.215-.122zm9.704.081c-.238-.093-.445-.311-.596-.627-.147-.309-.164-.42-.164-1.088 0-.41.025-.76.056-.781.084-.054.154-1.161.103-1.621-.038-.336-.083-.444-.297-.698-.306-.362-.547-.4-.82-.127-.17.17-.31.168-.31-.005 0-.048-.1-.18-.224-.294-.202-.185-.265-.205-.637-.205-.402 0-.422.008-.711.293l-.298.294-.018.683c-.027.997-.162 1.245-.678 1.245-.28 0-.34-.022-.409-.158-.053-.104-.065-.253-.035-.439.038-.233.134-.378.559-.84.513-.558.514-.56.514-.915 0-.277-.032-.39-.14-.512-.172-.19-.617-.446-.777-.446-.065 0-.135-.03-.156-.066-.022-.036-.175-.066-.34-.066-.251 0-.332.033-.48.193-.168.184-.176.22-.154.712l.023.518-.31.02c-.285.02-.33.001-.555-.228-.134-.137-.244-.29-.244-.34 0-.05-.161-.267-.358-.483-.35-.382-.367-.392-.694-.392-.305 0-.35.02-.49.215a1.374 1.374 0 0 0-.2.497c-.053.337-.217.48-.554.48-.246 0-.493-.178-.493-.356 0-.156.266-.45.497-.551.121-.054.387-.271.59-.484.355-.37.37-.4.37-.723 0-.408-.057-.524-.504-1.014-.475-.521-.587-.516-1.122.054a6.16 6.16 0 0 0-.62.777 3.554 3.554 0 0 1-.412.542c-.19.187-.236.2-.792.222l-.592.022-.257-.242c-.201-.19-.266-.306-.299-.535-.068-.478.011-.732.345-1.092l.301-.327h.598c.359.001.7.04.852.097.139.053.411.097.605.098.325.003.368-.015.576-.245.314-.347.435-.661.435-1.13 0-.533-.063-.68-.492-1.15-.331-.362-.363-.423-.358-.681.005-.232.054-.344.27-.61.225-.28.263-.37.263-.63 0-.283-.023-.326-.344-.632-.334-.319-.546-.413-.928-.413-.098 0-.196-.03-.218-.066-.021-.036-.112-.066-.201-.066-.197 0-1.156-.476-1.04-.516.044-.016.112.005.15.045a.33.33 0 0 0 .204.074c.073 0 .167.035.208.078.052.054.448.08 1.297.083 1.195.004 1.235 0 1.79-.194.548-.192.592-.223 1.228-.86.84-.844.991-1.142.991-1.954 0-.673-.081-.833-.792-1.555-.591-.601-.76-.878-.76-1.243 0-.364.08-.445.448-.445.272 0 .315.023.52.284.237.302.361.66.362 1.044 0 .42.25 1.272.429 1.468.176.194.44.24.574.101.061-.064.104-.064.202 0 .257.168.525.1.809-.2.146-.157.283-.376.305-.49.048-.251-.094-.59-.357-.853-.144-.144-.187-.246-.187-.442 0-.17.033-.268.1-.295.159-.063.287.13.387.584.122.555.324.784.69.784.23 0 .298-.035.473-.244l.206-.244-.035-.784c-.019-.431-.063-.82-.097-.865-.034-.044-.083-.242-.108-.44a2.023 2.023 0 0 0-.158-.567 1.876 1.876 0 0 1-.156-.417c-.024-.116-.07-.227-.103-.248-.08-.051-.074-.868.007-1.027.054-.104.135-.128.442-.128.317 0 .387.022.447.139.084.164.02.904-.09 1.046-.048.062-.07.472-.068 1.225l.003 1.131.383.728.376-.02c.662-.034.764.012 1.31.596.498.532.498.532.762.488.553-.092.628-.428.257-1.145-.194-.375-.233-.517-.237-.869l-.006-.42.303-.288c.229-.216.375-.298.592-.332.402-.063.976.017 1.165.162.14.107.16.177.177.604.02.52-.007.582-.621 1.416-.2.272-.251.611-.114.755.126.132.472.09.79-.096.217-.126.4-.177.653-.182l.35-.007.021.26a.933.933 0 0 1-.055.408c-.042.083-.06.257-.04.401l.105.742c.119.844.255 1.006.886 1.053l.438.033-.344.329c-.396.378-.43.537-.167.8.156.155.23.178.589.178.366 0 .994-.162 1.114-.287.023-.024.087-.044.142-.045a.805.805 0 0 0 .282-.099c.25-.136 1.071-.134 1.272.004.374.256.368.825-.013 1.152-.223.192-.26.201-.818.201-.32 0-.601-.03-.623-.066-.021-.036-.089-.066-.15-.066-.06 0-.26-.078-.444-.173-.274-.143-.429-.176-.862-.183-.479-.007-.545.007-.693.152-.257.252-.224.534.094.809.688.595 1.283 1.236 1.406 1.513.105.236.133.431.134.939.002.906-.16 1.204-1.037 1.9-.172.136-.289.16-.89.19-.79.04-.865.008-.926-.391-.021-.142-.064-.274-.094-.293-.03-.02-.055-.095-.055-.168 0-.353-.474-1.032-.867-1.242-.077-.04-.294-.074-.484-.074-.309 0-.372.026-.617.253-.254.235-.274.28-.3.65-.026.373-.014.416.172.638.204.242.763.577.964.577.06 0 .126.026.144.058.02.031.156.077.305.101.594.097 1.308.487 1.808.989.21.21.27.318.27.49 0 .241-.22.643-.56 1.022a.83.83 0 0 0-.25.575c-.016.182 0 .422.038.534.08.241.015.262-.236.076a7.943 7.943 0 0 0-.67-.397c-.468-.253-.534-.27-1.03-.27-.659 0-.86.085-1.24.527-.26.301-.3.385-.3.634 0 .158.03.305.064.328.035.022.064.1.064.174 0 .082.326.483.846 1.039.465.497.893 1 .95 1.117.066.133.105.372.105.644 0 .42-.008.441-.274.731-.156.17-.333.3-.409.3-.073 0-.151.03-.173.066-.04.07-.565.082-.729.018zm6.343-1.703c-.363-.106-1.001-.82-1.377-1.542a6.048 6.048 0 0 0-.408-.63c-.268-.364-.268-.366-.093-.313.096.03.21.09.253.132.042.044.491.104.998.134.506.03 1.017.097 1.136.15.12.052.34.257.493.457.24.315.28.413.305.75.032.43-.042.597-.358.8-.165.107-.68.14-.95.062zM10.82 18.637a.926.926 0 0 1-.336-.138 1.307 1.307 0 0 0-.296-.155c-.213-.067-.548-.39-.668-.645-.076-.16-.107-.38-.107-.754 0-.444.022-.564.142-.76.175-.285.735-.791.876-.791.058 0 .122-.028.142-.062.022-.035.316-.062.674-.062.57 0 .665.017.927.163.598.332 1.052.94 1.51 2.018.053.125.096.252.096.283 0 .03.152.243.337.471.274.338.315.416.217.416-.065 0-.139-.032-.163-.072-.056-.091-1.843-.03-1.938.067-.063.065-1.027.079-1.413.02zm21.785-.821c0-.026.156-.194.345-.374.467-.441 1.006-1.17 1.494-2.022.435-.758.953-1.341 1.368-1.54a5.81 5.81 0 0 0 .371-.194c.165-.1.896-.153 1.268-.092.323.052.793.436.793.647 0 .064.036.154.08.2.051.057.079.303.079.715 0 .54-.024.684-.168 1.01-.196.445-.487.74-1.027 1.042l-.39.219-1.5-.018c-.962-.011-1.516.007-1.541.051-.022.038-.096.07-.164.07s-.323.075-.567.166c-.243.092-.442.146-.441.12zm.204-3.61c-.299-.306-.27-.68.086-1.125.256-.32.318-.355.643-.363.313-.007.381.023.538.24.242.336.248.861.012 1.085-.458.434-.954.498-1.28.163zm-18.368-3.32c-.232-.495.281-.961.641-.583.1.104.129.193.129.384 0 .295-.044.329-.432.329-.224 0-.29-.025-.338-.13z" id="path6" fill="#000" fill-rule="nonzero" stroke="none" stroke-width=".839"/></svg>