<svg xmlns="http://www.w3.org/2000/svg" xmlns:xlink="http://www.w3.org/1999/xlink" width="48" height="48" version="1.1" id="svg38"><defs id="defs22"><linearGradient id="linearGradient4488"><stop id="stop4490" offset="0" stop-color="#000" stop-opacity=".047"/><stop id="stop4492" offset="1" stop-color="#000" stop-opacity="0"/></linearGradient><style id="style4511"/><style id="style4511-26"/><style id="style4511-9"/><style id="style4552"/><style id="style4511-2"/><linearGradient gradientTransform="translate(-63.205 2.216) scale(.3038)" xlink:href="#linearGradient4488" id="linearGradient4160" x1="288.112" y1="141.785" x2="287.575" y2="79.008" gradientUnits="userSpaceOnUse"/></defs><style id="style4485" type="text/css"/><path d="M2.433 26.443v1.668c0 9.575 5.583 17.282 17.146 17.282h6.93c15.133 0 17.837-11.322 17.837-17.282v-1.668c0 5.96-2.704 17.282-17.837 17.282h-6.93c-11.563 0-17.146-7.708-17.146-17.282z" id="path4147" opacity="1" fill="url(#linearGradient4160)" fill-opacity="1" stroke="none" stroke-width="1.1" stroke-linecap="square" stroke-linejoin="bevel" stroke-miterlimit="4" stroke-dasharray="none" stroke-dashoffset="0" stroke-opacity=".078"/><path d="M19.046 2.965h8.495c13.908 0 16.805 11.246 16.805 17.282v7.123c0 5.96-2.704 17.282-17.837 17.282h-6.93c-11.562 0-17.146-7.708-17.146-17.282v-7.123c0-9.575 5.47-17.282 16.613-17.282z" id="rect4144" opacity="1" fill="#e02828" fill-opacity="1" stroke="#000" stroke-width=".334" stroke-linecap="square" stroke-linejoin="bevel" stroke-miterlimit="4" stroke-dasharray="none" stroke-dashoffset="0" stroke-opacity=".078"/><path d="M31.223 13.19a3.14 3.14 0 0 0-.435.04c-1.045.184-2.029.892-2.564 1.846-.115.204-.405.864-.645 1.467-.486 1.22-.738 1.746-1.05 2.181-.94 1.31-2.024 1.997-3.147 1.997-.862 0-1.669-.389-2.448-1.182-.772-.785-1.104-1.364-1.757-3.064-.634-1.65-1.154-2.36-2.091-2.854-.65-.343-.959-.413-1.82-.413-.594 0-.825.02-1.084.09-1.49.412-2.815 1.548-3.477 2.985-.814 1.768-.46 3.794.855 4.905.17.144.66.475 1.088.734.919.555 1.245.794 1.629 1.191.326.338.546.685.692 1.093.133.373.168 1.133.069 1.51a1.662 1.662 0 0 0-.06.275c.006.006.09-.096.186-.227.4-.545 1.254-1.092 2.038-1.304.285-.077.526-.103.99-.107.715-.006 1.027.062 1.605.351 1.03.516 1.671 1.52 1.674 2.622.002.65-.246 1.228-.924 2.16-.25.343-.515.747-.59.898-.737 1.483.392 3.348 2.247 3.713.472.093 2.206.062 2.595-.046a3.236 3.236 0 0 0 1.44-.84c.596-.608.834-1.22.789-2.03-.03-.541-.163-.827-.76-1.65-.73-1-.941-1.497-.945-2.207-.004-.795.258-1.425.841-2.018.596-.606 1.279-.91 2.172-.968 1.24-.08 2.554.495 3.287 1.44.205.263.205.263.111-.135-.138-.579-.067-1.137.221-1.748.15-.319.27-.484.574-.795.4-.41.765-.68 1.564-1.153 1.13-.67 1.606-1.113 1.98-1.85.334-.658.42-1.038.419-1.872-.001-.554-.023-.772-.102-1.069-.476-1.79-1.957-3.329-3.69-3.832-.333-.097-.977-.149-1.477-.134zm-7.963 8.745c.172-.009.347 0 .524.033 1.3.24 2.189 1.566 1.919 2.864-.18.867-.782 1.572-1.566 1.836a2.56 2.56 0 0 1-1.152.099c-.423-.075-.933-.355-1.254-.689-.483-.502-.685-1.013-.685-1.737 0-1.302 1.012-2.34 2.214-2.406zm8.922 4.863c0 .01.032.14.07.293.101.393.092 1.029-.022 1.484-.052.208-.2.66-.326 1.003-.277.754-.335 1.02-.334 1.506.003 1.49 1.111 2.74 2.618 2.951a3.058 3.058 0 0 0 1.745-.3c1.46-.718 2.085-2.432 1.41-3.877a2.585 2.585 0 0 0-1.46-1.32 11.85 11.85 0 0 0-.926-.23c-.855-.185-1.05-.25-1.57-.52-.324-.17-.511-.311-.812-.614a5.616 5.616 0 0 0-.393-.376zm-17.621.066c-.025-.015-.123.072-.364.31-.641.635-1.11.86-2.365 1.132-1.139.247-1.47.397-1.928.87-.688.714-.925 1.847-.589 2.83.35 1.024 1.277 1.816 2.357 2.014.324.06.977.025 1.33-.07a3.04 3.04 0 0 0 2.125-2.136c.104-.398.107-1.082.006-1.467-.042-.16-.165-.528-.273-.817-.29-.78-.374-1.105-.404-1.558-.024-.363-.004-.559.107-1.062.006-.025.006-.041-.002-.046z" id="path12781" fill="#fff" fill-opacity="1" stroke="none" stroke-width=".038" stroke-miterlimit="4" stroke-dasharray="none" stroke-opacity="1"/></svg>