<svg xmlns="http://www.w3.org/2000/svg" style="isolation:isolate" width="48" height="48"><defs><clipPath id="a"><path d="M0 0h48v48H0z"/></clipPath></defs><g clip-path="url(#a)"><linearGradient id="b" x1="51.839%" y1="-1.183%" x2="52.227%" y2="99.454%"><stop offset="0%" stop-opacity="0"/><stop offset="100%" stop-opacity=".047"/></linearGradient><path d="M2.965 26.443v1.668c0 9.575 5.583 17.282 17.146 17.282h6.93c15.132 0 17.836-11.322 17.836-17.282v-1.668c0 5.959-2.704 17.282-17.836 17.282h-6.93c-11.563 0-17.146-7.708-17.146-17.282z" fill="url(#b)"/><path d="M19.578 2.965h8.495c13.908 0 16.804 11.246 16.804 17.282v7.123c0 5.959-2.704 17.282-17.836 17.282h-6.93c-11.563 0-17.146-7.708-17.146-17.282v-7.123c0-9.575 5.47-17.282 16.613-17.282z" fill="#F4A72E" vector-effect="non-scaling-stroke" stroke-width=".334" stroke="#000" stroke-opacity=".078" stroke-linejoin="bevel" stroke-linecap="square"/><path d="M79.174 39.447c.002-.088.104-.526.227-.973l.225-.812q-.453 1.943-.452 1.785zm-60.916-1.631l-3.226-2.55V21.817c0-7.397.048-13.45.107-13.45a.3.3 0 0 1 .191.096c.047.053 1.451.56 3.12 1.127l3.035 1.031.023 9.072.024 9.071-2.911 2.933c-1.602 1.614-2.991 2.989-3.087 3.056-.096.067-.136.165-.089.218.047.054 1.339-.646 2.871-1.555l7.609-4.516c2.652-1.575 4.823-2.901 4.823-2.948 0-.046-.957-.568-2.127-1.159-1.967-.993-2.141-1.112-2.313-1.579a42.704 42.704 0 0 0-.497-1.249c-1.17-2.809-2.057-5.028-2.025-5.068.04-.048 2.502.781 9.805 3.302l4.312 1.488v7.84l-2.46 1.628a2245.46 2245.46 0 0 0-7.762 5.182c-4.824 3.234-6.047 4.034-6.158 4.03-.021-.001-1.49-1.149-3.265-2.551z" fill="#2A2A2A"/></g></svg>