<svg xmlns="http://www.w3.org/2000/svg" style="isolation:isolate" width="48" height="48"><defs><clipPath id="a"><path d="M0 0h48v48H0z"/></clipPath></defs><g clip-path="url(#a)"><linearGradient id="b" x1="51.838%" y1="-1.183%" x2="52.227%" y2="99.454%"><stop offset="0%" stop-opacity="0"/><stop offset="100%" stop-opacity=".047"/></linearGradient><path d="M3.168 26.815v1.695c0 9.725 5.583 17.555 17.146 17.555h6.93c15.132 0 17.836-11.502 17.836-17.555v-1.695c0 6.054-2.704 17.555-17.836 17.555h-6.93c-11.563 0-17.146-7.83-17.146-17.555z" fill="url(#b)"/><linearGradient id="c" x1="50%" y1="100.399%" x2="50%" y2="-.399%"><stop offset="0%" stop-color="#197cf1"/><stop offset="100%" stop-color="#20bcfa"/></linearGradient><path d="M3.281 28.55v-8.629c0-14.127 11.246-17.069 17.282-17.069h7.123c5.959 0 17.282 2.747 17.282 18.118v7.039c0 11.745-7.708 17.417-17.282 17.417h-7.123c-9.575 0-17.282-5.557-17.282-16.876z" fill="url(#c)" vector-effect="non-scaling-stroke" stroke-width=".337" stroke="#000" stroke-opacity=".078" stroke-linejoin="bevel" stroke-linecap="square"/><path d="M18.916 26.863c0 .699.105 1.335.319 1.907.228.563.525 1.067.903 1.508.379.44.821.817 1.341 1.135.502.318 1.05.581 1.634.785a9.99 9.99 0 0 0 1.802.463 12.372 12.372 0 0 0 4.028-.031c.684-.127 1.35-.295 2.007-.509a17.833 17.833 0 0 0 1.925-.758 35.464 35.464 0 0 0 1.953-.963v6.157c-.744.364-1.474.668-2.204.931-.729.254-1.459.477-2.203.654a17.14 17.14 0 0 1-2.267.4c-.771.081-1.561.127-2.382.127a13.24 13.24 0 0 1-3.17-.377 12.475 12.475 0 0 1-2.865-1.081 12.016 12.016 0 0 1-2.455-1.716 10.869 10.869 0 0 1-1.916-2.27 10.987 10.987 0 0 1-1.24-2.752 11.26 11.26 0 0 1-.434-3.16c0-1.194.164-2.33.493-3.415a10.842 10.842 0 0 1 3.681-5.408c.89-.703 1.889-1.28 3.002-1.725a6.298 6.298 0 0 0-1.414 2.148 9.223 9.223 0 0 0-.652 2.488h10.392c0-1.045-.105-1.953-.319-2.734-.215-.781-.557-1.43-1.036-1.943-.475-.518-1.086-.908-1.839-1.162-.752-.259-1.66-.391-2.723-.391-1.255 0-2.509.182-3.764.559a15.88 15.88 0 0 0-3.576 1.543 17.335 17.335 0 0 0-3.121 2.352 14.712 14.712 0 0 0-2.395 2.943c.137-1.226.411-2.407.789-3.528a15 15 0 0 1 1.483-3.133A14.027 14.027 0 0 1 14.81 13.3a12.56 12.56 0 0 1 2.691-1.997c.99-.545 2.04-.986 3.18-1.281a16.367 16.367 0 0 1 3.631-.413c.749 0 1.492.068 2.236.2.743.136 1.469.318 2.176.554a12.76 12.76 0 0 1 6.546 4.972 13.269 13.269 0 0 1 1.716 3.709 15.01 15.01 0 0 1 .593 4.209v3.61H18.916z" fill="#FFF"/></g></svg>