<svg xmlns:osb="http://www.openswatchbook.org/uri/2009/osb" xmlns="http://www.w3.org/2000/svg" xmlns:xlink="http://www.w3.org/1999/xlink" width="48" height="48" version="1.1" id="svg38"><defs id="defs22"><linearGradient id="linearGradient4488"><stop id="stop4490" offset="0" stop-color="#000" stop-opacity=".047"/><stop id="stop4492" offset="1" stop-color="#000" stop-opacity="0"/></linearGradient><style id="style4511"/><style id="style4511-26"/><style id="style4511-9"/><linearGradient id="linearGradient4422-8"><stop id="stop19-3" offset="0" stop-color="#377d50" stop-opacity="1"/><stop id="stop21" offset="1" stop-color="#54d883" stop-opacity="1"/></linearGradient><style id="style4552"/><style id="style4511-2"/><linearGradient xlink:href="#linearGradient4488" id="linearGradient4540" gradientUnits="userSpaceOnUse" gradientTransform="translate(-62.889 1.994) scale(.3038)" x1="288.112" y1="141.785" x2="287.575" y2="79.008"/><linearGradient osb:paint="solid" id="linearGradient5293"><stop id="stop5295" offset="0" stop-color="#9a89c0" stop-opacity="1"/></linearGradient><linearGradient xlink:href="#linearGradient4422-8" id="linearGradient1401" x1="2.582" y1="23.586" x2="45.236" y2="23.586" gradientUnits="userSpaceOnUse"/></defs><style id="style4485" type="text/css"/><path id="path4516" d="M2.75 26.22v1.67c0 9.573 5.583 17.281 17.146 17.281h6.93c15.132 0 17.836-11.322 17.836-17.282v-1.668c0 5.96-2.704 17.282-17.836 17.282h-6.93C8.333 43.503 2.75 35.795 2.75 26.22z" opacity="1" fill="url(#linearGradient4540)" fill-opacity="1" stroke="none" stroke-width="1.1" stroke-linecap="square" stroke-linejoin="bevel" stroke-miterlimit="4" stroke-dasharray="none" stroke-dashoffset="0" stroke-opacity=".078"/><path id="path4518" d="M19.524 2.742H28.1c14.042 0 16.967 11.247 16.967 17.282v7.124c0 5.96-2.73 17.282-18.01 17.282h-6.996C8.387 44.43 2.75 36.722 2.75 27.148v-7.124c0-9.574 5.523-17.282 16.774-17.282z" opacity="1" fill="url(#linearGradient1401)" fill-opacity="1" stroke="#000" stroke-width=".336" stroke-linecap="square" stroke-linejoin="bevel" stroke-miterlimit="4" stroke-dasharray="none" stroke-dashoffset="0" stroke-opacity=".078"/><path d="M9.451 38.456l12.374-15.91L23.5 24.22l1.86 1.861z" id="path1353" fill="#f2f2f2"/><path d="M37.735 10.171l-15.91 12.374 3.536 3.536z" id="path1355" fill="#f34235"/><ellipse id="path1729" cx="23.599" cy="24.327" rx="3.824" ry="3.82" opacity=".699" fill="#e6e6e6" fill-opacity="1" stroke="none" stroke-width=".19" stroke-miterlimit="4" stroke-dasharray="none" stroke-opacity="1"/></svg>