<svg xmlns:osb="http://www.openswatchbook.org/uri/2009/osb" xmlns="http://www.w3.org/2000/svg" xmlns:xlink="http://www.w3.org/1999/xlink" width="48" height="48" version="1.1" id="svg38"><defs id="defs22"><linearGradient id="linearGradient4488"><stop id="stop4490" offset="0" stop-color="#000" stop-opacity=".047"/><stop id="stop4492" offset="1" stop-color="#000" stop-opacity="0"/></linearGradient><style id="style4511"/><style id="style4511-26"/><style id="style4511-9"/><style id="style4552"/><style id="style4511-2"/><linearGradient xlink:href="#linearGradient4488" id="linearGradient4540" gradientUnits="userSpaceOnUse" gradientTransform="matrix(.3038 0 0 .30593 -62.889 2.276)" x1="288.112" y1="141.785" x2="287.575" y2="79.008"/><linearGradient osb:paint="solid" id="linearGradient5293"><stop id="stop5295" offset="0" stop-color="#9a89c0" stop-opacity="1"/></linearGradient><clipPath id="clipPath-591375581"/><clipPath id="clipPath-596709536"/></defs><style id="style4485" type="text/css"/><path id="path4518" d="M19.363 3.03h8.495c13.908 0 16.804 11.326 16.804 17.403v7.173c0 6.002-2.704 17.404-17.836 17.404h-6.93C8.333 45.01 2.75 37.248 2.75 27.606v-7.173c0-9.641 5.47-17.403 16.613-17.403z" opacity="1" fill="#e6e6e6" fill-opacity="1" stroke="#000" stroke-width=".335" stroke-linecap="square" stroke-linejoin="bevel" stroke-miterlimit="4" stroke-dasharray="none" stroke-dashoffset="0" stroke-opacity=".078"/><path id="path4516" d="M2.75 26.673v1.68c0 9.641 5.583 17.403 17.146 17.403h6.93c15.132 0 17.836-11.402 17.836-17.403v-1.68c0 6.001-2.704 17.403-17.836 17.403h-6.93c-11.563 0-17.146-7.762-17.146-17.403z" opacity="1" fill="url(#linearGradient4540)" fill-opacity="1" stroke="none" stroke-width="1.104" stroke-linecap="square" stroke-linejoin="bevel" stroke-miterlimit="4" stroke-dasharray="none" stroke-dashoffset="0" stroke-opacity=".078"/><path stroke-miterlimit="4" id="path4518-0" d="M19.85 4.476h7.824c12.81 0 15.479 10.513 15.479 16.154v6.658c0 5.57-2.49 16.154-16.43 16.154h-6.382c-10.65 0-15.793-7.205-15.793-16.154V20.63c0-8.95 5.038-16.154 15.302-16.154z" opacity="1" fill="#804a00" fill-opacity="1" stroke="#000" stroke-width=".31" stroke-linecap="square" stroke-linejoin="bevel" stroke-dasharray="none" stroke-dashoffset="0" stroke-opacity=".078"/><path id="path33" d="M22.942 38.844l1.79 1.009 1.772-1.009v-6.057l-1.774-1.006-1.788 1.006m0 6.057" fill="#000" fill-opacity="1" fill-rule="nonzero" stroke="#8e5902" stroke-width=".723" stroke-linecap="round" stroke-linejoin="miter" stroke-miterlimit="4" stroke-opacity="1"/><path id="path35" d="M24.724 39.486v-7.342m0 7.342" fill="#000" stroke="#8e5902" stroke-width=".723" stroke-linecap="butt" stroke-linejoin="miter" stroke-miterlimit="4" stroke-opacity="1"/><path id="path37" d="M18.662 32.156l6.06 3.304 6.061-3.304v-6.608l-6.059-3.231-6.06 3.23m0 6.608" fill="#000" fill-opacity="1" fill-rule="nonzero" stroke="#2f6003" stroke-width=".723" stroke-linecap="round" stroke-linejoin="miter" stroke-miterlimit="4" stroke-opacity="1"/><path id="path39-7" d="M24.723 35.45v-6.973l6.149-2.94-6.148 2.94-6.015-2.94 6.015 2.94m0 6.972" fill="#000" fill-opacity="1" fill-rule="nonzero" stroke="#2f6003" stroke-width=".723" stroke-linecap="butt" stroke-linejoin="miter" stroke-miterlimit="4" stroke-opacity="1"/><path id="path51" d="M22.229 38.11l1.79 1.009 1.772-1.009v-6.057l-1.774-1.006-1.788 1.006m0 6.057" fill="#c17d11" fill-opacity="1" fill-rule="nonzero" stroke="#8e5902" stroke-width=".723" stroke-linecap="round" stroke-linejoin="miter" stroke-miterlimit="4" stroke-opacity="1"/><path id="path53" d="M24.011 38.752V31.41m0 7.342" fill="none" stroke="#8e5902" stroke-width=".723" stroke-linecap="butt" stroke-linejoin="miter" stroke-miterlimit="4" stroke-opacity="1"/><path id="path55" d="M17.95 31.421l6.06 3.304 6.06-3.304v-6.607l-6.059-3.231-6.06 3.23m0 6.608" fill="#4c9a03" fill-opacity="1" fill-rule="nonzero" stroke="#2f6003" stroke-width=".723" stroke-linecap="round" stroke-linejoin="miter" stroke-miterlimit="4" stroke-opacity="1"/><path id="path57" d="M24.01 34.715v-6.972l6.149-2.94-6.148 2.94-6.015-2.94 6.015 2.94m0 6.972" fill="#2f6003" fill-opacity="1" fill-rule="nonzero" stroke="#2f6003" stroke-width=".723" stroke-linecap="butt" stroke-linejoin="miter" stroke-miterlimit="4" stroke-opacity="1"/><path id="rect1626" fill="#009f00" fill-opacity="1" stroke="none" stroke-width="1.217" stroke-opacity="1" d="M13.953 5.555h5.034v4.746h-5.034z"/><path id="rect1626-8" fill="#00a900" fill-opacity="1" stroke="none" stroke-width="1.217" stroke-opacity="1" d="M21.357 9.96h5.034v4.746h-5.034z"/><path id="rect1626-9" fill="#288000" fill-opacity="1" stroke="none" stroke-width="1.217" stroke-opacity="1" d="M16.323 9.96h5.034v4.746h-5.034z"/><path id="rect1626-7" fill="#448000" fill-opacity="1" stroke="none" stroke-width="1.217" stroke-opacity="1" d="M18.987 5.555h5.034v4.746h-5.034z"/><path id="rect1626-3" fill="#0a0" fill-opacity="1" stroke="none" stroke-width="1.217" stroke-opacity="1" d="M24.02 5.555h5.034v4.746H24.02z"/><path id="rect1626-6" fill="#00a600" fill-opacity="1" stroke="none" stroke-width="1.217" stroke-opacity="1" d="M11.29 9.96h5.034v4.746H11.29z"/><path id="rect1626-1" fill="#008087" fill-opacity="1" stroke="none" stroke-width="1.217" stroke-opacity="1" d="M26.391 9.96h5.034v4.746h-5.034z"/><path id="rect1626-2" fill="green" fill-opacity="1" stroke="none" stroke-width="1.182" stroke-opacity="1" d="M29.054 5.555H33.8v4.746h-4.746z"/><path id="rect1626-93" fill="#00809a" fill-opacity="1" stroke="none" stroke-width="1.217" stroke-opacity="1" d="M21.345 12.045h5.034v4.746h-5.034z"/><path id="rect1626-19" fill="#008f00" fill-opacity="1" stroke="none" stroke-width="1.217" stroke-opacity="1" d="M11.074 6.94h5.034v4.746h-5.034z"/><path id="rect1626-4" fill="#006a00" fill-opacity="1" stroke="none" stroke-width="1.217" stroke-opacity="1" d="M31.424 9.96h5.034v4.746h-5.034z"/><path id="rect1626-78" fill="green" fill-opacity="1" stroke="none" stroke-width="1.217" stroke-opacity="1" d="M34.66 10.104h5.034v4.746H34.66z"/><path id="rect1626-45" fill="#005800" fill-opacity="1" stroke="none" stroke-width="1.217" stroke-opacity="1" d="M31.754 7.108h5.034v4.746h-5.034z"/><path id="rect1626-0" fill="#008090" fill-opacity="1" stroke="none" stroke-width="1.217" stroke-opacity="1" d="M16.297 13.39h5.034v4.746h-5.034z"/><path id="rect1626-10" fill="#008500" fill-opacity="1" stroke="none" stroke-width="1.217" stroke-opacity="1" d="M26.466 13.288H31.5v4.746h-5.034z"/><path id="rect1626-36-3" fill="#c6e7b9" fill-opacity="1" stroke="none" stroke-width="1.217" stroke-opacity="1" d="M11.29 14.706h5.034v4.746H11.29z"/><path id="rect1626-36" fill="#009500" fill-opacity="1" stroke="none" stroke-width="1.217" stroke-opacity="1" d="M11.263 13.39h5.034v4.746h-5.034z"/><path id="rect1626-36-3-6" fill="#c6e7b9" fill-opacity="1" stroke="none" stroke-width="1.217" stroke-opacity="1" d="M30.5 13.39h5.034v4.746H30.5z"/><path id="rect1626-63" fill="#008e00" fill-opacity="1" stroke="none" stroke-width="1.217" stroke-opacity="1" d="M33.398 14.203h5.034v4.746h-5.034z"/><path id="rect1626-36-3-7" fill="#c6e7b9" fill-opacity="1" stroke="none" stroke-width="1.217" stroke-opacity="1" d="M21.357 14.706h5.034v4.746h-5.034z"/></svg>