<svg xmlns:osb="http://www.openswatchbook.org/uri/2009/osb" xmlns="http://www.w3.org/2000/svg" xmlns:xlink="http://www.w3.org/1999/xlink" width="48" height="48" version="1.1" id="svg38"><defs id="defs22"><linearGradient id="linearGradient4488"><stop id="stop4490" offset="0" stop-color="#000" stop-opacity=".047"/><stop id="stop4492" offset="1" stop-color="#000" stop-opacity="0"/></linearGradient><style id="style4511"/><style id="style4511-26"/><style id="style4511-9"/><style id="style4552"/><style id="style4511-2"/><linearGradient xlink:href="#linearGradient4488" id="linearGradient4546" gradientUnits="userSpaceOnUse" gradientTransform="translate(-62.497 1.994) scale(.3038)" x1="288.112" y1="141.785" x2="287.575" y2="79.008"/><style id="style4511-8"/><style id="style4511-26-4"/><style id="style4511-9-7"/><style id="style4552-3"/><style id="style4511-2-8"/><style id="style4552-7"/><style id="style4552-6"/><style id="style4552-73"/><style id="style4552-2"/><linearGradient osb:paint="solid" id="linearGradient5251"><stop id="stop5253" offset="0" stop-color="#2f343f" stop-opacity="1"/></linearGradient><linearGradient gradientTransform="rotate(-90 24 24)" gradientUnits="userSpaceOnUse" x2="47" x1="1" id="linearGradient3764-3-5"><stop offset="0" id="stop7-675" stop-color="#2f343f" stop-opacity="1"/><stop id="stop9-35" offset="1" stop-color="#21c7a6" stop-opacity="1"/></linearGradient><style id="style4511-87"/><style id="style4511-26-7"/><style id="style4511-9-1"/><style id="style4552-8"/><style id="style4511-2-5"/><radialGradient xlink:href="#linearGradient3764-3-5" id="radialGradient2636" cx="24.098" cy="28.39" fx="24.098" fy="28.39" r="14.106" gradientTransform="matrix(.93373 0 0 .84473 1.597 4.12)" gradientUnits="userSpaceOnUse"/></defs><style id="style4485" type="text/css"/><style type="text/css" id="style4485-0"/><style id="style4485-4" type="text/css"/><style id="style4485-5" type="text/css"/><style id="style4485-3" type="text/css"/><style id="style4485-5-1" type="text/css"/><path d="M3.141 26.22v1.67c0 9.573 5.583 17.281 17.146 17.281h6.93c15.133 0 17.837-11.322 17.837-17.282v-1.668c0 5.96-2.704 17.282-17.837 17.282h-6.93c-11.563 0-17.146-7.708-17.146-17.282z" id="path4528" opacity="1" fill="url(#linearGradient4546)" fill-opacity="1" stroke="none" stroke-width="1.1" stroke-linecap="square" stroke-linejoin="bevel" stroke-miterlimit="4" stroke-dasharray="none" stroke-dashoffset="0" stroke-opacity=".078"/><path d="M19.754 2.742h8.495c13.908 0 16.805 11.247 16.805 17.282v7.124c0 5.96-2.704 17.282-17.837 17.282h-6.93c-11.562 0-17.146-7.708-17.146-17.282v-7.124c0-9.574 5.47-17.282 16.613-17.282z" id="path4530" opacity="1" fill="#ececec" fill-opacity="1" stroke="#000" stroke-width=".334" stroke-linecap="square" stroke-linejoin="bevel" stroke-miterlimit="4" stroke-dasharray="none" stroke-dashoffset="0" stroke-opacity=".078"/><g id="g2052" fill="#2f8c80" fill-opacity="1" stroke="none" stroke-width="1.8" stroke-linecap="round" stroke-linejoin="miter" stroke-miterlimit="4" stroke-dasharray="none" stroke-dashoffset="0" stroke-opacity="1"><path id="path5889" d="M12.66 3.87A14.34 14.34 0 0 0 8.67 6.3l1.045 1.076L4.5 13.081h6.213L16.1 7.372c-.958-.959-2.18-2.21-3.441-3.502z" opacity="1"/><path id="path5893" d="M17.63 2.683c-1.894.184-3.605.606-5.124 1.242l3.35 3.451-5.215 5.705h6.212l5.387-5.709a654.746 654.746 0 0 1-4.61-4.69z" opacity="1"/><path id="path5895" d="M19.793 2.576c-.82 0-1.6.053-2.358.134l4.531 4.666-5.214 5.705h6.212l5.387-5.709C27.04 6.06 25.352 4.33 23.638 2.576z" opacity="1"/><path id="path5897" d="M23.445 2.575l4.662 4.801-5.215 5.705h6.213l5.387-5.709c-1.297-1.299-2.963-3.005-4.66-4.742a23.988 23.988 0 0 0-1.545-.055z" opacity="1"/><path id="path5899" d="M29.636 2.613l4.625 4.763-5.215 5.705h6.213l5.381-5.703c-.052-.056-.103-.114-.156-.17-.093-.093-.227-.232-.324-.33-2.345-2.31-5.72-4-10.524-4.265z" opacity="1"/><path id="path5901" d="M38.72 5.644l1.682 1.732-5.217 5.705h6.213l1.78-1.884c-.981-2.062-2.405-4.024-4.458-5.553z" opacity="1"/><path id="path5903" d="M43.107 11.054l-1.853 2.027h2.705a18.183 18.183 0 0 0-.852-2.027z" opacity="1"/><path id="path5905" d="M8.914 6.103c-2.19 1.804-3.761 4.195-4.692 6.978h.553l5.387-5.709c-.348-.347-.84-.856-1.248-1.27z" opacity="1"/></g><style type="text/css" id="style4485-07"/><path id="path4537" d="M10.927 28.103V16.187h5.492l3.77 5.31c2.074 2.92 3.831 5.31 3.906 5.31.074 0 1.834-2.388 3.91-5.307l3.776-5.308 2.744-.002 2.744-.003v23.831H31.68V26.425l-3.245 4.206-3.245 4.207h-2.186L19.76 30.63l-3.245-4.206v13.593h-5.587z" fill="url(#radialGradient2636)" fill-opacity="1" stroke-width=".227"/></svg>