<svg xmlns="http://www.w3.org/2000/svg" width="48" height="48" version="1.1" id="svg38"><defs id="defs22"><style id="style4511"/><style id="style4511-26"/><style id="style4511-9"/><style id="style4552"/><style id="style4511-2"/><filter height="1.96" y="-.48" width="1.24" x="-.12" id="filter1013" color-interpolation-filters="sRGB"><feGaussianBlur id="feGaussianBlur1015" stdDeviation=".444"/></filter><filter height="1.96" y="-.48" width="1.24" x="-.12" id="filter1017" color-interpolation-filters="sRGB"><feGaussianBlur id="feGaussianBlur1019" stdDeviation=".444"/></filter><filter height="1.24" y="-.12" width="1.24" x="-.12" id="filter1025" color-interpolation-filters="sRGB"><feGaussianBlur id="feGaussianBlur1027" stdDeviation=".444"/></filter><filter height="1.24" y="-.12" width="1.24" x="-.12" id="filter1029" color-interpolation-filters="sRGB"><feGaussianBlur id="feGaussianBlur1031" stdDeviation=".444"/></filter><filter height="1.101" y="-.051" width="1.091" x="-.046" id="filter1051" color-interpolation-filters="sRGB"><feGaussianBlur id="feGaussianBlur1053" stdDeviation=".845"/></filter></defs><style id="style4485" type="text/css"/><g id="g1438"><path id="rect4144" d="M19.488 3.108h8.72c14.278 0 17.252 11.247 17.252 17.282v7.124c0 5.96-2.776 17.282-18.31 17.282h-7.115c-11.87 0-17.602-7.708-17.602-17.282V20.39c0-9.574 5.616-17.282 17.055-17.282z" opacity="1" fill="#d21e3c" fill-opacity="1" stroke="#000" stroke-width=".339" stroke-linecap="square" stroke-linejoin="bevel" stroke-miterlimit="4" stroke-dasharray="none" stroke-dashoffset="0" stroke-opacity=".078"/><path id="path173" d="M33.987 23.952c0-11.368-4.337-12.315-13.012-12.315s-13.012.947-13.012 12.315S12.3 36.267 20.975 36.267s13.012-.947 13.012-12.315z" fill="#323232" stroke-width=".667"/><path transform="matrix(.58547 0 0 .61569 4.245 -137.73)" d="M53.023 271.495v2.222h8.89v-2.222z" id="path943" opacity=".3" fill="#000" fill-opacity="1" stroke-width="1.111" filter="url(#filter1013)"/><path id="path175" d="M35.288 29.425v1.369h5.205v-1.369z" fill="#323232" stroke-width=".667"/><path transform="matrix(.58547 0 0 .61569 4.245 -137.73)" d="M53.023 275.94v2.222h8.89v-2.222z" id="path945" opacity=".3" fill="#000" fill-opacity="1" stroke-width="1.111" filter="url(#filter1017)"/><path id="path177" d="M35.288 32.162v1.369h5.205v-1.369z" fill="#323232" stroke-width=".667"/><circle transform="matrix(.58547 0 0 .61569 4.245 -137.73)" cx="57.468" cy="251.492" r="4.445" id="circle949" opacity=".3" fill="#000" fill-opacity="1" stroke-width="1.111" filter="url(#filter1025)"/><ellipse ry="2.737" rx="2.602" id="circle187" cy="17.11" cx="37.89" fill="#c7c7c7" stroke-width=".667"/><circle transform="matrix(.58547 0 0 .61569 4.245 -137.73)" cx="57.468" cy="262.605" r="4.445" id="circle951" opacity=".3" fill="#000" fill-opacity="1" stroke-width="1.111" filter="url(#filter1029)"/><ellipse ry="2.737" rx="2.602" id="circle189" cy="23.952" cx="37.89" fill="#c7c7c7" stroke-width=".667"/><path transform="matrix(.58547 0 0 .61569 4.245 -137.73)" d="M50.8 262.605c0-18.464-7.407-20.003-22.225-20.003-14.817 0-22.225 1.539-22.225 20.003s7.408 20.002 22.225 20.002c14.818 0 22.225-1.538 22.225-20.002z" id="path1033" opacity=".3" fill="#3d0000" fill-opacity="1" stroke-width="1.111" filter="url(#filter1051)"/><path id="path193" d="M27.48 23.952l-5.204 3.42-5.205 3.421V17.11l5.205 3.421z" fill="#c7c7c7" stroke-width=".667"/></g></svg>