<svg xmlns:osb="http://www.openswatchbook.org/uri/2009/osb" xmlns="http://www.w3.org/2000/svg" xmlns:xlink="http://www.w3.org/1999/xlink" width="48" height="48" version="1.1" id="svg38"><defs id="defs22"><linearGradient id="linearGradient3700-5-1"><stop id="stop2013" offset="0" stop-color="#3781c6" stop-opacity="1"/><stop id="stop2015" offset="1" stop-color="#88b2db" stop-opacity="1"/></linearGradient><style id="style4511"/><style id="style4511-26"/><style id="style4511-9"/><style id="style4552"/><style id="style4511-2"/><linearGradient osb:paint="solid" id="linearGradient5293"><stop id="stop5295" offset="0" stop-color="#9a89c0" stop-opacity="1"/></linearGradient><style id="style4511-8"/><style id="style4511-26-4"/><style id="style4511-9-8"/><style id="style4552-9"/><style id="style4511-2-4"/><linearGradient gradientTransform="scale(1.00587 .99417)" gradientUnits="userSpaceOnUse" id="ButtonShadow" y2="7.017" x2="45.448" y1="92.54" x1="45.448"><stop offset="0" id="stop3750" stop-color="#000" stop-opacity="1"/><stop offset="1" id="stop3752" stop-color="#000" stop-opacity=".588"/></linearGradient><filter id="filter3174" color-interpolation-filters="sRGB"><feGaussianBlur stdDeviation="1.71" id="feGaussianBlur3176"/></filter><linearGradient x1="47.61" y1="121.37" gradientTransform="matrix(.09648 0 0 .09304 15.746 23.665)" x2="47.61" gradientUnits="userSpaceOnUse" y2="6.634" id="z"><stop id="stop77" offset="0" stop-color="#ba0000"/><stop id="stop79" offset="1" stop-color="#ff331e"/></linearGradient><linearGradient y2="6.634" x2="47.61" y1="121.37" x1="47.61" gradientTransform="matrix(.13686 0 0 .13744 24.222 25.433)" gradientUnits="userSpaceOnUse" id="linearGradient3145" xlink:href="#z"/><linearGradient xlink:href="#linearGradient3700-5-1" id="linearGradient2029" x1="2.58" y1="23.874" x2="45.407" y2="23.874" gradientUnits="userSpaceOnUse" gradientTransform="matrix(1.00238 0 0 1 -.006 .407)"/></defs><style id="style4485" type="text/css"/><style type="text/css" id="style4485-8"/><path id="path281" d="M34.285-102.959c-11.017 0-20 8.984-20 20 0 11.018 8.983 20 20 20s20-8.982 20-20c0-11.016-8.983-20-20-20zm.438 11.344c4.485.232 7.987 3.734 8.219 8.22l-8.22-8.22zm-9.188 8.594l8.812 8.813h-.063a8.716 8.716 0 0 1-8.75-8.75v-.063z" opacity=".05" stroke-width="3.298"/><g id="g1724"><path d="M19.631 3.15h8.632c14.132 0 17.076 11.401 17.076 17.52v7.222c0 6.041-2.748 17.52-18.124 17.52h-7.042c-11.75 0-17.423-7.814-17.423-17.52V20.67c0-9.707 5.559-17.52 16.881-17.52z" id="path4518" opacity="1" fill="url(#linearGradient2029)" fill-opacity="1" stroke="#000" stroke-width=".339" stroke-linecap="square" stroke-linejoin="bevel" stroke-miterlimit="4" stroke-dasharray="none" stroke-dashoffset="0" stroke-opacity=".078"/><path id="path1713" d="M40.674 7.754c-.754-.76-1.685-1.425-2.747-2.007-.595.891-2.215 1.604-2.68 2.476-1.741 3.255-5.595 2.795-6.023 5.065-.056.31-.075.731-.391.684-.847-.112 2.867-2.626-1.918-3-.8-.066-2.569 1.303-2.848 2.063-.14.384-.894 2.1-.81 2.504.112.525 2.41.553 2.066 1.144a1.033 1.033 0 0 1-.307.328c-.474.32-1.052.31-1.573.479-1.257.403-1.973 1.725-2.625 2.832a.93.93 0 0 0-.112.685c.168.722 1.238.985 1.648.487 2.513-3.132 1.918.075 3.388-.318.69-.188.67.44 1.369.684.335.122.959-.44 1.117-.122.39.788 1.21.629.512.863-.55.178-1.164-.075-1.722.075-1.89.507-3.482-.956-4.925-.431-1.452.534-3.1 2.598-3.35 4.127-.066.403.65 1.744.81 2.129.306.769 1.824.431 2.606.684.781.263.93.225 1.582.741 1.098.863 1.322 2.42 1.36 3.817.036 1.398.008 2.908.8 4.062.12.168.26.337.437.44.456.263 1.043.085 1.499-.206 1.2-.76 2.327-3.348 3.565-4.352 1.108-.89-.316-1.885.55-3.02.67-.881 1.638-1.641 1.796-2.739a4.802 4.802 0 0 1-1.173-.497c-.149.057-.28.094-.363.057-.568-.235-.884-.77-1.09-1.332-.66-.835-1.079-1.867-1.126-2.936.624 0 .69 1.416.848 2.017.074.281.158.6.279.919.4.506.903.947 1.452 1.275.27-.112.586-.3.754-.319.81-.056 1.247-1.003 1.871-1.481a.93.93 0 0 0 .14-.132c.232-.31-.847-.319-1.08-.516-.829-.694-.94-1.181-1.862-1.753 1.34-.629.596.581 1.964 1.153.326.131 2.067-.103 2.756.535.68.628.958.656 1.051 1.379.13.928.848 1.594 1.369 2.372.624-.45.81-1.247 1.117-1.96.307-.722.596-1.679 1.378-1.754.651-.065.968 1.248 1.098 1.895.13.647.93-.253.93 1.313 0 .516.299.788.625 1.191.214.263.102.685.418.779.02.009.155.036.173.036.056-.357.022-.695.068-1.06-.605-.385-1.33-.365-1.106-1.546l.726-.122c-.103.3.149.544.456.619.126-3.885.156-9.59-.705-12.432-.984-3.25-2.242-6.055-4.042-7.874z" fill="#f9f9f9" fill-opacity=".633" stroke-width=".093"/><path id="path1720" d="M12.226 6.3c-.018.329.186.629.354.92a5.614 5.614 0 0 1 .586 4.201c-.111.422-.27.845-.279 1.285 0 .526.233 1.023.456 1.501.056.122.121.253.224.338.335.272.828-.047 1.117-.376.828-.937 1.554-2.12 2.755-2.466.242-.066.503-.103.689-.282.13-.13.195-.31.251-.487.391-1.266.41-2.645.931-3.864.223-.526.037-1.614.605-1.586 2.262.094.112-1.05-.419-1.669-.177-.197-.316-.431-.465-.666-2.226.164-4.378.435-6.221 1.12-.075.253-.025.86-.146 1.094-.168.31-.42.59-.438.937z" fill="#f9f9f9" fill-opacity=".633" stroke-width=".093"/><path id="path1727" d="M12.226 36.229c.326-.497 1.918-.741 2.104-1.304.149-.46.205-.956.251-1.435.065-.6.624-.544.69-1.135.027-.272-.653-.956-.81-1.19-.14-.198-1.267-.357-1.49-.442-1.396-.525-1.61-1.5-2.746-2.476-.252-.215-.494-.44-.8-.562-.261-.104-.54-.113-.82-.122-.838-.038-1.992.562-2.83.525-.428-.019-.707-.544-.735-.103-1.815-1.07-.922-1.904-1.564-2.57-.075-.075-.466.3-.689.45.019.553.047 1.097.093 1.641.27.216.559.422.866.591.521.291 1.098.479 1.582.835s.01.46-.111 1.041c-.093.44-.345.647-.494 1.06-.232.638.792 1.988 1.21 2.532.42.535.978.948 1.434 1.445.158.168.316.365.382.59.055.197.037.404.028.61-.121 1.51-.233 3.01-.354 4.52.084.095.167.188.26.273.336.337.699.647 1.09.947.083-.469.176-.938.484-1.229 1.452-1.34 1.87-2.823 2.97-4.492z" fill="#f9f9f9" fill-opacity=".633" stroke-width=".093"/><path id="path1734" d="M2.768 25.03c.13-.337.28-.684.559-.919.28-.244.735-.319 1.015-.065.279.262.363.816.744.806.559-.431.429-1.313.717-1.96.158-.356.447-.638.735-.9.792-.723.94-1.895 1.853-2.439 1.042-.628 3.007-.816 3.09-2.035.038-.544-.186-1.079-.4-1.576-.437-1.003-.763-.638-1.2-1.641-.662.056-1.416-1.154-2.04-.91-.204.084-.418.178-.567.356-.13.16.26 1.726.177 1.923-.317.807-.745 1.876-2.495-.356-.335-.432-.89-1.263-1.066-1.77-1.162 3.203-1.34 6.837-1.122 11.486z" fill="#f9f9f9" fill-opacity=".633" stroke-width=".093"/><path d="M32.982 26.313c-4.35 0-7.884 3.549-7.884 7.916 0 4.368 3.535 7.917 7.884 7.917s7.883-3.549 7.883-7.917c0-4.367-3.534-7.916-7.883-7.916zm0 3.188c2.601 0 4.708 2.116 4.708 4.728a4.69 4.69 0 0 1-.329 1.664l-6.035-6.062a4.625 4.625 0 0 1 1.656-.33zm-4.325 2.942l6.104 6.13c-.551.228-1.146.385-1.78.385-2.6 0-4.707-2.116-4.707-4.729 0-.639.153-1.23.383-1.786z" id="path289" fill="url(#linearGradient3145)" stroke-width="1.448"/></g></svg>