<svg xmlns:osb="http://www.openswatchbook.org/uri/2009/osb" xmlns="http://www.w3.org/2000/svg" xmlns:xlink="http://www.w3.org/1999/xlink" width="48" height="48" version="1.1" id="svg38"><defs id="defs22"><linearGradient id="linearGradient4488"><stop id="stop4490" offset="0" stop-color="#000" stop-opacity=".047"/><stop id="stop4492" offset="1" stop-color="#000" stop-opacity="0"/></linearGradient><style id="style4511"/><style id="style4511-26"/><linearGradient id="b-27" y1="540.92" y2="522.55" x2="0" gradientUnits="userSpaceOnUse" gradientTransform="matrix(1 0 0 1.14286 0 -77.4)"><stop stop-color="#197cf1" id="stop7-0"/><stop offset="1" stop-color="#05a0eb" id="stop9-93"/></linearGradient><style id="style4511-9"/><style id="style4552"/><style id="style4511-2"/><linearGradient xlink:href="#linearGradient4488" id="linearGradient4540" gradientUnits="userSpaceOnUse" gradientTransform="translate(-62.889 1.994) scale(.3038)" x1="288.112" y1="141.785" x2="287.575" y2="79.008"/><linearGradient osb:paint="solid" id="linearGradient5293"><stop id="stop5295" offset="0" stop-color="#9a89c0" stop-opacity="1"/></linearGradient><linearGradient xlink:href="#b-27" id="linearGradient2525" x1="2.695" y1="23.586" x2="44.717" y2="23.586" gradientUnits="userSpaceOnUse"/></defs><style id="style4485" type="text/css"/><path id="path4516" d="M2.75 26.22v1.67c0 9.573 5.583 17.281 17.146 17.281h6.93c15.132 0 17.836-11.322 17.836-17.282v-1.668c0 5.96-2.704 17.282-17.836 17.282h-6.93C8.333 43.503 2.75 35.795 2.75 26.22z" opacity="1" fill="url(#linearGradient4540)" fill-opacity="1" stroke="none" stroke-width="1.1" stroke-linecap="square" stroke-linejoin="bevel" stroke-miterlimit="4" stroke-dasharray="none" stroke-dashoffset="0" stroke-opacity=".078"/><path id="path4518" d="M2.862 27.93v-8.496C2.862 5.526 14.11 2.63 20.145 2.63h7.123c5.96 0 17.282 2.704 17.282 17.836v6.93c0 11.563-7.708 17.146-17.282 17.146h-7.123c-9.575 0-17.283-5.47-17.283-16.613z" opacity="1" fill="url(#linearGradient2525)" fill-opacity="1" stroke="#000" stroke-width=".334" stroke-linecap="square" stroke-linejoin="bevel" stroke-miterlimit="4" stroke-dasharray="none" stroke-dashoffset="0" stroke-opacity=".078"/><path id="path1249" d="M28.265 35.23h-9.118V22.292h-4.56l9.12-10.35 9.118 10.35h-4.56" fill="#e6e6e6" fill-opacity="1" fill-rule="nonzero" stroke="none" stroke-width="1.214"/></svg>