<svg xmlns:osb="http://www.openswatchbook.org/uri/2009/osb" xmlns="http://www.w3.org/2000/svg" xmlns:xlink="http://www.w3.org/1999/xlink" width="48" height="48" version="1.1" id="svg38"><defs id="defs22"><linearGradient id="linearGradient4488"><stop id="stop4490" offset="0" stop-color="#000" stop-opacity=".047"/><stop id="stop4492" offset="1" stop-color="#000" stop-opacity="0"/></linearGradient><style id="style4511"/><style id="style4511-26"/><style id="style4511-9"/><style id="style4552"/><style id="style4511-2"/><linearGradient xlink:href="#linearGradient4488" id="linearGradient4540" gradientUnits="userSpaceOnUse" gradientTransform="translate(-62.889 1.994) scale(.3038)" x1="288.112" y1="141.785" x2="287.575" y2="79.008"/><linearGradient osb:paint="solid" id="linearGradient5293"><stop id="stop5295" offset="0" stop-color="#9a89c0" stop-opacity="1"/></linearGradient><linearGradient gradientUnits="userSpaceOnUse" gradientTransform="scale(.91645 1.09117)" x1=".159" y1="11.878" x2="23.847" y2="11.878" id="linearGradient-2"><stop stop-color="#FFF" offset="0%" id="stop867"/><stop stop-color="#FFF" offset="49.915%" id="stop869"/><stop stop-color="#F4FBFF" offset="49.942%" id="stop871"/><stop stop-color="#FFF" offset="100%" id="stop873"/></linearGradient><path d="M10.568 25.636L.213 7.828a.5.5 0 0 1 .593-.725L10.84 10.51a.5.5 0 0 0 .322 0l10.033-3.406a.5.5 0 0 1 .593.725L11.432 25.636a.5.5 0 0 1-.864 0zM5.9.062l4.942 1.634a.5.5 0 0 0 .314 0L16.099.062a.48.48 0 0 1 .63.454v.302a.5.5 0 0 1-.343.475l-5.229 1.73a.5.5 0 0 1-.314 0l-5.229-1.73a.5.5 0 0 1-.343-.475V.516a.48.48 0 0 1 .63-.454zm0 3.789l4.942 1.635a.5.5 0 0 0 .314 0l4.942-1.635a.48.48 0 0 1 .63.455v.302a.5.5 0 0 1-.343.474l-5.229 1.73a.5.5 0 0 1-.314 0l-5.229-1.73a.5.5 0 0 1-.343-.474v-.302a.48.48 0 0 1 .63-.455z" id="path-3"/></defs><style id="style4485" type="text/css"/><path id="path4516" d="M2.75 26.22v1.67c0 9.573 5.583 17.281 17.146 17.281h6.93c15.132 0 17.836-11.322 17.836-17.282v-1.668c0 5.96-2.704 17.282-17.836 17.282h-6.93C8.333 43.503 2.75 35.795 2.75 26.22z" opacity="1" fill="url(#linearGradient4540)" fill-opacity="1" stroke="none" stroke-width="1.1" stroke-linecap="square" stroke-linejoin="bevel" stroke-miterlimit="4" stroke-dasharray="none" stroke-dashoffset="0" stroke-opacity=".078"/><path id="path4518" d="M19.363 2.742h8.495c13.908 0 16.804 11.247 16.804 17.282v7.124c0 5.96-2.704 17.282-17.836 17.282h-6.93C8.333 44.43 2.75 36.722 2.75 27.148v-7.124c0-9.574 5.47-17.282 16.613-17.282z" opacity="1" fill="#198ff1" fill-opacity="1" stroke="#000" stroke-width=".334" stroke-linecap="square" stroke-linejoin="bevel" stroke-miterlimit="4" stroke-dasharray="none" stroke-dashoffset="0" stroke-opacity=".078"/><g transform="matrix(1 0 0 .96652 12.434 11.912)" id="Group-7" fill="none" fill-rule="evenodd" stroke="none" stroke-width="1"><g id="Mask"><use id="use881" xlink:href="#path-3" x="0" y="0" width="100%" height="100%" fill="url(#linearGradient-2)" fill-rule="evenodd"/><path id="path883" d="M11 25.385L21.354 7.577l-10.032 3.406a1 1 0 0 1-.643 0L.646 7.577zM5.771.545v.273L11 2.548l5.229-1.73V.545l-4.915 1.626a1 1 0 0 1-.628 0zm0 3.79v.273L11 6.338l5.229-1.73v-.273L11.314 5.96a1 1 0 0 1-.628 0z" stroke="#fff" stroke-width="1"/></g></g></svg>