<svg xmlns="http://www.w3.org/2000/svg" xmlns:xlink="http://www.w3.org/1999/xlink" width="48" height="48" version="1.1" id="svg38"><defs id="defs22"><style id="style4511"/><style id="style4511-26"/><style id="style4511-9"/><style id="style4552"/><style id="style4511-2"/><linearGradient gradientTransform="rotate(-90 -1.16 48.966)" gradientUnits="userSpaceOnUse" x2="47" x1="1" id="linearGradient3764"><stop id="stop1434" stop-color="#e4e4e4" stop-opacity="1"/><stop id="stop1436" offset="1" stop-color="#eee" stop-opacity="1"/></linearGradient><linearGradient gradientUnits="userSpaceOnUse" y2="18" x2="0" y1="33" id="linearGradient4216"><stop id="stop1439" stop-color="#fff" stop-opacity="1"/><stop id="stop1441" offset="1" stop-color="#fff" stop-opacity="0"/></linearGradient><linearGradient xlink:href="#linearGradient3764" id="linearGradient1575" x1="2.985" y1="23.91" x2="45.232" y2="23.91" gradientUnits="userSpaceOnUse"/></defs><style id="style4485" type="text/css"/><g id="g1596" fill-opacity="1"><path id="rect4144" d="M19.765 3.066h8.496c13.907 0 16.804 11.247 16.804 17.282v7.123c0 5.96-2.704 17.283-17.837 17.283h-6.93c-11.562 0-17.146-7.708-17.146-17.283v-7.123c0-9.574 5.47-17.282 16.613-17.282z" opacity="1" fill="url(#linearGradient1575)" stroke="#000" stroke-width=".334" stroke-linecap="square" stroke-linejoin="bevel" stroke-miterlimit="4" stroke-dasharray="none" stroke-dashoffset="0" stroke-opacity=".078"/><g transform="matrix(1.05393 0 0 1 -1.186 -.09)" id="g1498" stroke="none"><g id="g1486"><g id="g1478" transform="translate(8 -7)"><path id="path1464" d="M3 21h3v21H3c-.554 0-1-.446-1-1V22c0-.554.446-1 1-1z" fill="#f07070"/><rect id="rect1466" rx="0" y="21" x="6" height="21" width="4" fill="#f7ae6c"/><rect id="rect1468" rx="0" width="4" height="21" x="10" y="21" fill="#f7f183"/><rect id="rect1470" rx="0" y="21" x="14" height="21" width="4" fill="#83d585"/><rect id="rect1472" rx="0" width="4" height="21" x="18" y="21" fill="#68cebf"/><rect id="rect1474" rx="0" y="21" x="22" height="21" width="4" fill="#92a8db"/><path id="path1476" d="M29 21h-3v21h3c.554 0 1-.446 1-1V22c0-.554-.446-1-1-1z" fill="#cf8eb4"/></g><path id="path1480" d="M11 15v18h2V15zm4 0v18h2V15zm4 0v18h2V15zm4 0v18h2V15zm4 0v18h2V15zm4 0v18h2V15zm4 0v18h2V15z" opacity=".1" fill="url(#linearGradient4216)"/><path id="path1482" d="M10 34c0 .554.446 1 1 1h26c.554 0 1-.446 1-1z" opacity=".1" fill="#000"/><path id="path1484" d="M14 14c-.554 0-1 .446-1 1v11c0 .554.446 1 1 1h1c.554 0 1-.446 1-1V15c0-.554-.446-1-1-1zm4 0c-.554 0-1 .446-1 1v11c0 .554.446 1 1 1h1c.554 0 1-.446 1-1V15c0-.554-.446-1-1-1zm8 0c-.554 0-1 .446-1 1v11c0 .554.446 1 1 1h1c.554 0 1-.446 1-1V15c0-.554-.446-1-1-1zm4 0c-.554 0-1 .446-1 1v11c0 .554.446 1 1 1h1c.554 0 1-.446 1-1V15c0-.554-.446-1-1-1zm4 0c-.554 0-1 .446-1 1v11c0 .554.446 1 1 1h1c.554 0 1-.446 1-1V15c0-.554-.446-1-1-1z" color="#000" display="inline" visibility="visible" opacity=".1" fill="#000" fill-rule="nonzero"/></g><rect id="rect1488" rx="1" y="13" x="12" height="13" width="3" color="#000" display="inline" visibility="visible" fill="#424242" fill-rule="nonzero"/><rect id="rect1490" rx="1" width="3" height="13" x="16" y="13" color="#000" display="inline" visibility="visible" fill="#424242" fill-rule="nonzero"/><rect id="rect1492" rx="1" y="13" x="24" height="13" width="3" color="#000" display="inline" visibility="visible" fill="#424242" fill-rule="nonzero"/><rect id="rect1494" rx="1" width="3" height="13" x="28" y="13" color="#000" display="inline" visibility="visible" fill="#424242" fill-rule="nonzero"/><rect id="rect1496" rx="1" y="13" x="32" height="13" width="3" color="#000" display="inline" visibility="visible" fill="#424242" fill-rule="nonzero"/></g></g></svg>