<svg xmlns:osb="http://www.openswatchbook.org/uri/2009/osb" xmlns="http://www.w3.org/2000/svg" xmlns:xlink="http://www.w3.org/1999/xlink" width="48" height="48" version="1.1" id="svg38"><defs id="defs22"><linearGradient id="linearGradient4488"><stop id="stop4490" offset="0" stop-color="#000" stop-opacity=".047"/><stop id="stop4492" offset="1" stop-color="#000" stop-opacity="0"/></linearGradient><style id="style4511"/><style id="style4511-26"/><style id="style4511-9"/><style id="style4552"/><style id="style4511-2"/><linearGradient xlink:href="#linearGradient4488" id="linearGradient4540" gradientUnits="userSpaceOnUse" gradientTransform="matrix(.30902 0 0 .3038 -64.017 1.994)" x1="288.112" y1="141.785" x2="287.575" y2="79.008"/><linearGradient osb:paint="solid" id="linearGradient5293"><stop id="stop5295" offset="0" stop-color="#9a89c0" stop-opacity="1"/></linearGradient></defs><style id="style4485" type="text/css"/><g id="g1948"><path d="M2.75 26.22v1.67c0 9.573 5.68 17.281 17.44 17.281h7.05c15.392 0 18.143-11.322 18.143-17.282v-1.668c0 5.96-2.75 17.282-18.143 17.282h-7.05c-11.76 0-17.44-7.708-17.44-17.282z" id="path4516" opacity="1" fill="url(#linearGradient4540)" fill-opacity="1" stroke="none" stroke-width="1.109" stroke-linecap="square" stroke-linejoin="bevel" stroke-miterlimit="4" stroke-dasharray="none" stroke-dashoffset="0" stroke-opacity=".078"/><path d="M44.91 19.168v8.641c0 14.147-11.247 17.094-17.282 17.094h-7.123c-5.96 0-17.282-2.751-17.282-18.144V19.71c0-11.761 7.708-17.44 17.282-17.44h7.123c9.574 0 17.282 5.564 17.282 16.898z" id="path4518" opacity="1" fill="#b83737" fill-opacity="1" stroke="#000" stroke-width=".337" stroke-linecap="square" stroke-linejoin="bevel" stroke-miterlimit="4" stroke-dasharray="none" stroke-dashoffset="0" stroke-opacity=".078"/><g transform="matrix(.98278 0 0 .97236 .703 1.15)" id="g1925"><g id="g1906" transform="matrix(1.04018 0 0 1.00916 -.722 -.047)" fill-opacity="1"><path id="path309" d="M31.93 14.282v9.11h8.03v-9.11z" fill="#b6312c" stroke-width=".05"/><path id="path307" d="M15.874 23.391v9.11h8.028v-9.11z" fill="#b6312c" stroke-width=".05"/><path id="path305" d="M7.845 23.391h8.029v-9.109H7.845z" fill="#b6312c" stroke-width=".05"/><path id="path262" d="M23.902 23.391v-9.109h-8.028v9.11z" fill="#822d37" stroke-width=".05"/><path id="path260" d="M31.93 32.5v-9.109h-8.028v9.11z" fill="#822d37" stroke-width=".05"/><path id="path252" d="M37.06 41.264c.344-.114.667-.241.963-.388a5.69 5.69 0 0 0 .86-.52 5.01 5.01 0 0 0 .72-.647c.132-.142.24-.31.356-.47V32.5h-8.028v8.763z" fill="#822d37" stroke-width=".049"/><path id="path2" d="M7.845 39.56c.04.046.072.104.114.15.218.237.458.452.72.646.263.194.55.366.86.52.297.147.62.274.963.388h5.372v-8.763H7.845z" fill="#822d37" stroke-width=".049"/><path id="path245" d="M23.902 41.264v-8.763h-8.028v8.763z" fill="#9f3135" stroke-width=".049"/><path id="path243" d="M39.96 32.5v-9.109h-8.03v9.11z" fill="#9f3135" stroke-width=".05"/><path id="path316" d="M23.902 14.282v9.11h8.029v-9.11z" fill="#d45e4f" stroke-width=".05"/><path id="path314" d="M7.845 23.391v9.11h8.029v-9.11z" fill="#d45e4f" stroke-width=".05"/><path id="path277" d="M31.93 41.264v-8.763h-8.028v8.763z" fill="#6c2b5e" stroke-width=".049"/><path d="M31.93 14.282v-9.11h-8.028v9.11z" id="path16" fill="#c13b37" stroke-width=".05"/><path d="M15.874 14.282h8.028v-9.11h-8.028z" id="path17" fill="#e99361" stroke-width=".05"/><path id="path19-5" d="M39.96 7.286c-.117-.166-.225-.34-.356-.49a5.083 5.083 0 0 0-.721-.672 5.654 5.654 0 0 0-.86-.54 7.325 7.325 0 0 0-.982-.412h-5.11v9.11h8.028z" fill="#cf4544" stroke-width=".05"/><path id="path37" d="M10.522 5.172c-.352.12-.68.256-.983.411-.31.16-.597.34-.86.541a5.083 5.083 0 0 0-.72.673c-.042.047-.073.107-.114.156v7.329h8.029v-9.11z" fill="#d3554e" stroke-width=".05"/></g></g><path id="path2421" d="M29.114 11.133c-2.43-.007-4.9.731-6.848 1.825-7.64 4.291-12.972 15.064-12.972 15.064 11.292 12.652 20.241 7.461 20.241 7.461 8.65-4.347 7.568-19.79 7.568-19.79-1.805-3.306-4.865-4.55-7.989-4.56zm-11.086 7.368c2.96 0 9.58.007 11.287.007.829 0 1.018.09 1.683.327 1.16.623 1.598 1.982 1.646 3.212.035 2.035.007 4.072.016 6.107h-3.303v-5.459c0-1.146-.496-1.654-1.18-1.654-.683 0-1.18.508-1.18 1.64-.037 1.824.01 3.649 0 5.473h-3.304v-5.497c0-1.108-.473-1.616-1.18-1.616-.709 0-1.18.558-1.18 1.547-.054 1.854.012 3.711 0 5.566h-3.305z" fill="#fff" fill-opacity="1" fill-rule="evenodd" stroke="none" stroke-width=".49" stroke-linecap="butt" stroke-linejoin="miter" stroke-opacity="1"/></g></svg>