<svg xmlns="http://www.w3.org/2000/svg" xmlns:xlink="http://www.w3.org/1999/xlink" width="48" height="48" version="1.1" id="svg38"><defs id="defs22"><linearGradient id="linearGradient4488"><stop id="stop4490" offset="0" stop-color="#000" stop-opacity=".047"/><stop id="stop4492" offset="1" stop-color="#000" stop-opacity="0"/></linearGradient><style id="style4511"/><style id="style4511-26"/><style id="style4511-9"/><style id="style4552"/><style id="style4511-2"/><linearGradient xlink:href="#linearGradient4488" id="linearGradient4471" gradientUnits="userSpaceOnUse" gradientTransform="translate(-62.47 2.216) scale(.3038)" x1="288.112" y1="141.785" x2="287.575" y2="79.008"/><circle id="SVGID_1_" r="15.999" cy="-31.965" cx="73.957"/><linearGradient gradientTransform="rotate(-90 -5.335 55.406)" gradientUnits="userSpaceOnUse" x2="47" x1="1" id="linearGradient3764"><stop id="stop1484" stop-opacity="1" stop-color="#00acec"/><stop id="stop1486" stop-opacity="1" stop-color="#01b9ff" offset="1"/></linearGradient><clipPath id="clipPath-063058883"/><linearGradient xlink:href="#linearGradient3764" id="linearGradient1601" x1="3.001" y1="23.808" x2="45.248" y2="23.808" gradientUnits="userSpaceOnUse"/><clipPath id="SVGID_2_"><use id="use25" x="0" y="0" width="1" height="1" xlink:href="#SVGID_1_" overflow="visible"/></clipPath></defs><style id="style4485" type="text/css"/><path d="M19.781 2.965h8.495c13.908 0 16.805 11.246 16.805 17.282v7.123c0 5.96-2.705 17.282-17.837 17.282h-6.93c-11.563 0-17.146-7.708-17.146-17.282v-7.123c0-9.575 5.47-17.282 16.613-17.282z" id="path4469" opacity="1" fill="url(#linearGradient1601)" fill-opacity="1" stroke="#000" stroke-width=".334" stroke-linecap="square" stroke-linejoin="bevel" stroke-miterlimit="4" stroke-dasharray="none" stroke-dashoffset="0" stroke-opacity=".078"/><path d="M3.168 26.443v1.668c0 9.575 5.583 17.282 17.146 17.282h6.93c15.132 0 17.836-11.322 17.836-17.282v-1.668c0 5.96-2.704 17.282-17.836 17.282h-6.93c-11.563 0-17.146-7.708-17.146-17.282z" id="path4467" opacity="1" fill="url(#linearGradient4471)" fill-opacity="1" stroke="none" stroke-width="1.1" stroke-linecap="square" stroke-linejoin="bevel" stroke-miterlimit="4" stroke-dasharray="none" stroke-dashoffset="0" stroke-opacity=".078"/><path id="path1527" d="M27.412 13.065c-2.348.875-3.832 3.129-3.664 5.594l.055.953-.938-.117c-3.418-.445-6.406-1.961-8.941-4.504l-1.242-1.266-.316.934c-.68 2.078-.246 4.273 1.164 5.75.75.813.582.93-.715.445-.449-.156-.848-.273-.883-.215-.133.137.316 1.906.676 2.602.488.973 1.484 1.926 2.574 2.488l.918.445-1.086.02c-1.055 0-1.09.02-.98.426.379 1.266 1.863 2.605 3.523 3.188l1.164.41-1.023.617a10.365 10.365 0 0 1-5.03 1.438c-.848.02-1.543.098-1.543.156 0 .195 2.293 1.281 3.625 1.707 4 1.266 8.754.719 12.324-1.434 2.535-1.535 5.074-4.586 6.258-7.535.637-1.574 1.277-4.449 1.277-5.828 0-.891.055-1.01 1.109-2.078.617-.621 1.199-1.301 1.313-1.492.188-.371.168-.371-.789-.039-1.598.578-1.824.504-1.031-.371.582-.621 1.273-1.746 1.273-2.078 0-.059-.281.039-.598.215-.34.191-1.09.484-1.652.66l-1.016.328-.922-.641c-.516-.348-1.227-.738-1.605-.855-.957-.27-2.422-.23-3.285.078m0 0" fill="#f9f9f9" fill-opacity="1" fill-rule="nonzero" stroke="none"/></svg>