<svg xmlns="http://www.w3.org/2000/svg" xmlns:xlink="http://www.w3.org/1999/xlink" width="48" height="48" version="1.1" id="svg38"><defs id="defs22"><linearGradient id="linearGradient4488"><stop id="stop4490" offset="0" stop-color="#000" stop-opacity=".047"/><stop id="stop4492" offset="1" stop-color="#000" stop-opacity="0"/></linearGradient><style id="style4511"/><style id="style4511-26"/><style id="style4511-9"/><style id="style4552"/><style id="style4511-2"/><linearGradient gradientTransform="translate(-63.205 2.216) scale(.3038)" xlink:href="#linearGradient4488" id="linearGradient4160" x1="288.112" y1="141.785" x2="287.575" y2="79.008" gradientUnits="userSpaceOnUse"/><linearGradient y2="506.8" x2="409.57" gradientTransform="matrix(.16892 0 0 .17117 -45.627 -113.46)" y1="540.8" gradientUnits="userSpaceOnUse" x1="409.57" id="linearGradient4282"><stop offset="0" stop-color="#2a2c2f" id="stop4161"/><stop offset="1" stop-color="#424649" id="stop4163"/></linearGradient><style id="style4511-8"/><style id="style4511-26-4"/><style id="style4511-9-8"/><style id="style4552-5"/><style id="style4511-2-5"/><style id="style4511-87"/><style id="style4511-26-7"/><style id="style4511-9-1"/><style id="style4552-53"/><style id="style4511-2-9"/></defs><style id="style4485" type="text/css"/><path d="M2.433 26.443v1.668c0 9.575 5.583 17.282 17.146 17.282h6.93c15.133 0 17.837-11.322 17.837-17.282v-1.668c0 5.96-2.704 17.282-17.837 17.282h-6.93c-11.563 0-17.146-7.708-17.146-17.282z" id="path4147" opacity="1" fill="url(#linearGradient4160)" fill-opacity="1" stroke="none" stroke-width="1.1" stroke-linecap="square" stroke-linejoin="bevel" stroke-miterlimit="4" stroke-dasharray="none" stroke-dashoffset="0" stroke-opacity=".078"/><path d="M19.046 2.965h8.495c13.908 0 16.805 11.246 16.805 17.282v7.123c0 5.96-2.704 17.282-17.837 17.282h-6.93c-11.562 0-17.146-7.708-17.146-17.282v-7.123c0-9.575 5.47-17.282 16.613-17.282z" id="rect4144" opacity="1" fill="#4d4d4d" fill-opacity="1" stroke="#000" stroke-width=".334" stroke-linecap="square" stroke-linejoin="bevel" stroke-miterlimit="4" stroke-dasharray="none" stroke-dashoffset="0" stroke-opacity=".078"/><path id="rect4203-6" d="M7.337 7.2c-5.143 3.889-4.7 11.533-4.855 14.707H17.55c0-1.511.912-2.804 2.218-3.39L9.72 5.295z" opacity=".1" fill="#fff" stroke-width=".826"/><path id="path5733" d="M38.424 41.08c4.09-4.098 5.922-8.15 5.922-14.637H29.277c0 1.51-.913 2.803-2.218 3.389l9.319 12.634z" opacity=".1" fill="#fff" stroke-width=".826"/><rect id="rect4270" ry="10.184" height="20.369" width="20.1" y="13.624" x="13.339" fill="#fe9473" fill-opacity="1" stroke-width="1.274"/><rect id="rect4280" transform="scale(1 -1)" ry="2.91" height="5.82" width="5.743" y="-26.718" x="20.518" fill="url(#linearGradient4282)" stroke-width="1.274"/><path id="rect4284" d="M23.39 15.079c-4.773 0-8.615 3.893-8.615 8.73 0 4.835 3.842 8.729 8.615 8.729 4.772 0 8.614-3.894 8.614-8.73s-3.842-8.73-8.614-8.73zm0 1.455c3.977 0 7.178 3.244 7.178 7.274 0 4.03-3.201 7.275-7.178 7.275s-7.18-3.245-7.18-7.275 3.203-7.274 7.18-7.274z" fill="#fff" fill-opacity=".275" stroke-width="1.274"/><style type="text/css" id="style4485-4"/><style type="text/css" id="style4485-6"/></svg>