<svg xmlns:osb="http://www.openswatchbook.org/uri/2009/osb" xmlns="http://www.w3.org/2000/svg" xmlns:xlink="http://www.w3.org/1999/xlink" width="48" height="48" version="1.1" id="svg38"><defs id="defs22"><style id="style4511"/><style id="style4511-26"/><style id="style4511-9"/><linearGradient gradientUnits="userSpaceOnUse" x2="19.574" y2="22.495" x1="3.783" y1="23.644" id="g-5"><stop id="stop24-2" stop-color="#2980b9"/><stop id="stop26" stop-color="#34495e" offset="1"/></linearGradient><style id="style4552"/><style id="style4511-2"/><linearGradient osb:paint="solid" id="linearGradient5293"><stop id="stop5295" offset="0" stop-color="#9a89c0" stop-opacity="1"/></linearGradient><clipPath id="clipPath-911982837"/><radialGradient xlink:href="#g-5" id="radialGradient1426" cx="23.808" cy="24.305" fx="23.808" fy="24.305" r="21.011" gradientTransform="matrix(1 0 0 1.01502 0 -.365)" gradientUnits="userSpaceOnUse"/></defs><style id="style4485" type="text/css"/><path id="path4518" d="M2.965 28.69v-8.577c0-14.042 11.246-16.967 17.281-16.967h7.123c5.96 0 17.282 2.73 17.282 18.01v6.996c0 11.674-7.708 17.312-17.282 17.312h-7.123c-9.574 0-17.281-5.523-17.281-16.774z" opacity="1" fill="url(#radialGradient1426)" fill-opacity="1" stroke="#000" stroke-width=".336" stroke-linecap="square" stroke-linejoin="bevel" stroke-miterlimit="4" stroke-dasharray="none" stroke-dashoffset="0" stroke-opacity=".078"/><path id="path1323" d="M13.09 35.35c-1.417-3.502-3.3-6.584-3.34-12.297-.044-5.904 4.931-9.728 8.864-9.728 4.757 0 8.949 4.093 9.166 7.477.201 3.06-.868 7.507-6.386 7.479-2.633-.022-5.372-2.35-5.386-5.826-.021-3.741 4.589-4.11 5.756-3.16.449.374.435 1.105.035.972-2.48-.822-4.017.803-3.898 2.412.153 2.196 1.431 3.498 3.716 3.603 3.3.163 4.221-3.102 4.137-4.43-.106-1.612-1.483-4.927-5.777-5.53-2.027-.289-3.71.329-4.934 1.539-1.23 1.218-1.92 2.47-2.018 4.525-.106 2.124.348 3.37 1.599 6.16.446.998 1.692 3.005 2.655 5.018l-4.186 1.778m0 .008" fill="#fff" fill-opacity="1" fill-rule="nonzero" stroke="#6e8db2" stroke-width="1.342" stroke-linecap="butt" stroke-linejoin="miter" stroke-miterlimit="4" stroke-opacity="1"/><path id="path1325" d="M34.822 13.336c1.42 3.498 3.305 6.58 3.345 12.298.044 5.903-4.93 9.722-8.864 9.722-4.76 0-8.948-4.093-9.166-7.48-.201-3.06.868-7.506 6.387-7.476 2.635.02 5.374 2.351 5.388 5.824.019 3.743-4.597 4.114-5.758 3.16-.45-.372-.436-1.106-.041-.973 2.486.823 4.017-.8 3.906-2.412-.155-2.193-1.431-3.494-3.718-3.602-3.3-.16-4.222 3.104-4.137 4.433.103 1.612 1.482 4.926 5.777 5.53 2.026.288 3.71-.33 4.934-1.543 1.223-1.215 1.92-2.467 2.018-4.521.103-2.124-.351-3.37-1.6-6.162-.446-1-1.691-3.004-2.66-5.017l4.192-1.78m-.006 0" fill="#a9c1e3" fill-opacity="1" fill-rule="nonzero" stroke="#6e8db2" stroke-width="1.144" stroke-linecap="butt" stroke-linejoin="miter" stroke-miterlimit="4" stroke-opacity="1"/></svg>