<svg xmlns:osb="http://www.openswatchbook.org/uri/2009/osb" xmlns="http://www.w3.org/2000/svg" width="48" height="48" version="1.1" id="svg38"><defs id="defs22"><style id="style4511"/><style id="style4511-26"/><style id="style4511-9"/><style id="style4552"/><style id="style4511-2"/><linearGradient osb:paint="solid" id="linearGradient5293"><stop id="stop5295" offset="0" stop-color="#9a89c0" stop-opacity="1"/></linearGradient></defs><style id="style4485" type="text/css"/><g id="g516" fill-opacity="1"><path d="M19.525 2.743H28.1c14.042 0 16.967 11.324 16.967 17.4v7.173c0 6-2.73 17.4-18.009 17.4h-6.996c-11.674 0-17.312-7.76-17.312-17.4v-7.172c0-9.64 5.523-17.4 16.774-17.4z" id="path4518" opacity="1" fill="#666" stroke="#000" stroke-width=".337" stroke-linecap="square" stroke-linejoin="bevel" stroke-miterlimit="4" stroke-dasharray="none" stroke-dashoffset="0" stroke-opacity=".078"/><path id="path2228" d="M14.177 37.033c-.203-.209-.204-.213-.204-1.992 0-1.675.01-1.797.172-2.008.26-.34.668-.275.88.141.073.145.088.144.292-.02.522-.424 1.48-.408 1.88.03l.19.206.37-.268c.311-.226.443-.268.84-.265.565.003.954.192 1.18.574.145.245.162.436.162 1.871 0 1.486-.011 1.611-.165 1.77a.506.506 0 0 1-.735.012c-.135-.14-.16-.339-.192-1.576-.033-1.219-.06-1.44-.19-1.588-.171-.195-.356-.217-.652-.079-.334.157-.409.458-.461 1.853-.044 1.162-.067 1.32-.21 1.428a.551.551 0 0 1-.68-.003c-.16-.116-.175-.23-.215-1.557-.024-.787-.071-1.499-.104-1.581-.072-.18-.379-.273-.662-.2-.408.106-.494.396-.54 1.808-.035 1.118-.063 1.32-.199 1.475-.21.238-.508.226-.757-.03zm7.852.084c-.87-.28-1.344-1.016-1.343-2.087 0-.501.045-.743.201-1.087.719-1.588 3.244-1.443 3.814.22.164.48.163 1.237-.004 1.74-.343 1.036-1.534 1.578-2.667 1.214zm1.233-.923c.365-.235.555-.995.403-1.615-.129-.528-.456-.842-.885-.848-.452-.007-.672.137-.857.555-.321.728-.098 1.735.437 1.976a.993.993 0 0 0 .902-.068zm2.478.878c-.156-.16-.166-.284-.166-2.087v-1.917l.207-.14c.284-.191.614-.095.727.213l.088.24.343-.248c.76-.552 1.794-.343 2.178.44.17.349.186.497.186 1.8 0 1.308-.013 1.438-.172 1.645-.206.27-.508.292-.74.054-.147-.152-.165-.287-.169-1.258-.004-1.258-.085-1.8-.294-1.956-.204-.154-.62-.14-.853.027-.339.245-.424.614-.424 1.848 0 1.08-.01 1.148-.191 1.324-.24.231-.504.237-.72.015zm5.737.092c-.4-.105-.902-.477-1.137-.843-.425-.661-.444-1.864-.039-2.538.674-1.122 2.446-1.294 3.322-.322.42.465.526.783.526 1.564 0 .782-.107 1.1-.526 1.564-.464.515-1.41.768-2.146.575zm1.17-1.018c.27-.245.398-.612.396-1.125-.004-.822-.358-1.292-.973-1.292-.38 0-.707.244-.836.622-.146.43-.129 1.1.037 1.442.266.547.965.727 1.376.353zm-17.265-4.852c0-.132 4.288-5.435 4.378-5.415.052.012 1.967.85 4.256 1.86 3.91 1.73 4.17 1.831 4.275 1.686.16-.221.71-1.406 1.002-2.157l.247-.637-.417-.234c-.59-.332-1.455-1.071-1.997-1.707-.494-.58-1.386-1.977-1.386-2.173 0-.065.283.23.63.654.973 1.194 3.214 3.06 3.355 2.795.167-.315.275-1.246.27-2.325-.007-1.317-.174-2.342-.615-3.757l-.247-.793-1.22-.394-1.495-.484c-.527-.17-.197-.161.575.015.922.212 1.86.392 2.44.467.511.066.624-.037.678-.623.07-.746-.398-2.807-.87-3.833-.188-.41-.273-.498-.65-.676-1.257-.591-5.188-1.146-6.857-.966-.721.077-1.463.258-1.694.412-.065.044.4.167 1.202.319.72.136 1.243.26 1.165.276-.079.015-1.21-.112-2.512-.284-2.287-.302-2.374-.308-2.534-.16-.332.31-.81 1.156-.908 1.608-.095.438-.089.489.123.934.361.76 1.033 1.313 2.562 2.109.722.376 1.296.702 1.275.724-.022.022-.639-.215-1.371-.527l-1.332-.567-1.954.563c-1.075.31-1.99.563-2.034.563-.05 0-.08-1.336-.08-3.597 0-3.464.006-3.61.171-3.962.101-.214.298-.445.477-.56l.305-.195 8.95-.025c4.921-.014 9.148-.002 9.39.028.55.067 1.044.48 1.175.98.056.216.078 3.495.063 9.734l-.022 9.408-.19.314a1.458 1.458 0 0 1-.544.49c-.352.175-.423.176-9.195.176-4.862 0-8.84-.029-8.84-.064z" fill="#fff" stroke-width=".832"/></g></svg>