<svg xmlns:osb="http://www.openswatchbook.org/uri/2009/osb" xmlns="http://www.w3.org/2000/svg" xmlns:xlink="http://www.w3.org/1999/xlink" width="48" height="48" version="1.1" id="svg38"><defs id="defs22"><linearGradient id="linearGradient4488"><stop id="stop4490" offset="0" stop-color="#000" stop-opacity=".047"/><stop id="stop4492" offset="1" stop-color="#000" stop-opacity="0"/></linearGradient><style id="style4511"/><style id="style4511-26"/><style id="style4511-9"/><style id="style4552"/><style id="style4511-2"/><linearGradient xlink:href="#linearGradient4488" id="linearGradient4540" gradientUnits="userSpaceOnUse" gradientTransform="translate(-62.889 1.994) scale(.3038)" x1="288.112" y1="141.785" x2="287.575" y2="79.008"/><linearGradient osb:paint="solid" id="linearGradient5293"><stop id="stop5295" offset="0" stop-color="#9a89c0" stop-opacity="1"/></linearGradient></defs><style id="style4485" type="text/css"/><rect id="Mask" x="63.147" y="78.204" width="20.231" height="20.096" rx=".581" fill="#f1f1f1" fill-opacity="1" fill-rule="evenodd" stroke="none" stroke-width=".336"/><path id="path4516" d="M2.75 26.22v1.67c0 9.573 5.583 17.281 17.146 17.281h6.93c15.132 0 17.836-11.322 17.836-17.282v-1.668c0 5.96-2.704 17.282-17.836 17.282h-6.93C8.333 43.503 2.75 35.795 2.75 26.22z" opacity="1" fill="url(#linearGradient4540)" fill-opacity="1" stroke="none" stroke-width="1.1" stroke-linecap="square" stroke-linejoin="bevel" stroke-miterlimit="4" stroke-dasharray="none" stroke-dashoffset="0" stroke-opacity=".078"/><path id="path4518" d="M19.363 2.742h8.495c13.908 0 16.804 11.247 16.804 17.282v7.124c0 5.96-2.704 17.282-17.836 17.282h-6.93C8.333 44.43 2.75 36.722 2.75 27.148v-7.124c0-9.574 5.47-17.282 16.613-17.282z" opacity="1" fill="#00ceff" fill-opacity="1" stroke="#000" stroke-width=".334" stroke-linecap="square" stroke-linejoin="bevel" stroke-miterlimit="4" stroke-dasharray="none" stroke-dashoffset="0" stroke-opacity=".078"/><path id="path4518-0" d="M19.685 3.84h7.963c13.038 0 15.753 10.563 15.753 16.231v6.69c0 5.597-2.535 16.23-16.72 16.23h-6.496c-10.839 0-16.073-7.238-16.073-16.23v-6.69c0-8.991 5.128-16.23 15.573-16.23z" opacity="1" fill="#333" fill-opacity="1" stroke="#000" stroke-width=".314" stroke-linecap="square" stroke-linejoin="bevel" stroke-miterlimit="4" stroke-dasharray="none" stroke-dashoffset="0" stroke-opacity=".078"/><path d="M34.477 26.155a.596.596 0 0 0-.83.136c-.478.66-.973 1.344-1.61 1.796-.494.35-1.258.64-1.922.39-1.074-.4-1.346-1.931-1.254-3.118.135-1.702.7-3.544 1.729-5.631a28.72 28.72 0 0 1 2.332-3.912.588.588 0 0 0-.117-.802.598.598 0 0 0-.812.067c-1.67 1.837-3.078 3.915-4.44 5.924-1.576 2.328-3.207 4.736-5.226 6.716-.377.37-.822.775-1.321.9a.947.947 0 0 1-.758-.156c-.235-.182-.354-.505-.354-.957 0-2.399.878-4.52 2.017-6.639.079-.128.149-.245.228-.376.022-.036.028-.073.04-.111.311-.561.634-1.122.963-1.689l.22-.379c1.09-1.883 2.326-4.016 2.225-6.347-.05-1.15-.555-2.562-1.821-3.079-.444-.184-.966-.242-1.587-.18-1.668.166-3.341 1.087-4.707 2.594-1.188 1.31-2.012 2.854-2.808 4.349a.589.589 0 0 0 .25.798.6.6 0 0 0 .803-.246c.763-1.43 1.55-2.91 2.64-4.11 1.167-1.29 2.568-2.074 3.942-2.21.421-.045.754-.011 1.016.096.75.306 1.053 1.29 1.085 2.039.087 1.99-1.008 3.88-2.09 5.749l-.196.337c-.41.707-.824 1.422-1.214 2.147-7.204 11.726-8.38 16.41-8.426 16.606a.59.59 0 0 0 .578.726c.27 0 .513-.182.579-.452.01-.04.837-3.285 5.162-10.971-.055.441-.086.89-.086 1.348 0 1.04.44 1.6.812 1.887.406.316.876.428 1.287.428.178 0 .345-.02.49-.056.753-.187 1.344-.69 1.87-1.206 2.044-2.004 3.675-4.383 5.242-6.698-.404 1.194-.646 2.32-.73 3.404-.131 1.672.33 3.684 2.017 4.316.94.35 2.07.148 3.035-.535.796-.566 1.373-1.364 1.884-2.068a.59.59 0 0 0-.137-.825z" id="path8" fill="#00ceff" stroke-width="1.185" fill-opacity="1"/></svg>