<svg xmlns:osb="http://www.openswatchbook.org/uri/2009/osb" xmlns="http://www.w3.org/2000/svg" xmlns:xlink="http://www.w3.org/1999/xlink" width="48" height="48" version="1.1" id="svg38"><defs id="defs22"><linearGradient id="linearGradient4488"><stop id="stop4490" offset="0" stop-color="#000" stop-opacity=".047"/><stop id="stop4492" offset="1" stop-color="#000" stop-opacity="0"/></linearGradient><style id="style4511"/><style id="style4511-26"/><style id="style4511-9"/><style id="style4552"/><style id="style4511-2"/><linearGradient xlink:href="#linearGradient4488" id="linearGradient4540" gradientUnits="userSpaceOnUse" gradientTransform="matrix(.30673 0 0 .3038 -63.522 1.994)" x1="288.112" y1="141.785" x2="287.575" y2="79.008"/><linearGradient osb:paint="solid" id="linearGradient5293"><stop id="stop5295" offset="0" stop-color="#9a89c0" stop-opacity="1"/></linearGradient><linearGradient osb:paint="solid" id="linearGradient5251"><stop id="stop5253" offset="0" stop-color="#2f343f" stop-opacity="1"/></linearGradient><style id="style4511-8"/><style id="style4511-26-4"/><style id="style4511-9-8"/><style id="style4552-5"/><style id="style4511-2-5"/><style id="style4511-8792"/><style id="style4511-26-3"/><style id="style4511-9-6"/><style id="style4552-4"/><style id="style4511-2-06"/><linearGradient y2="79.008" x2="287.575" y1="141.785" x1="288.112" gradientTransform="matrix(-.00048 .28173 -.27186 -.0005 44.21 -55.688)" gradientUnits="userSpaceOnUse" id="linearGradient4540-4" xlink:href="#linearGradient4488"/><style id="style4511-87"/><style id="style4511-26-7"/><style id="style4511-9-1"/><style id="style4552-53"/><style id="style4511-2-9"/><style id="style4511-8-1"/><style id="style4511-26-4-8"/><style id="style4511-9-8-8"/><style id="style4552-5-3"/><style id="style4511-2-5-1"/><style id="style4511-879"/><style id="style4511-26-76"/><style id="style4511-9-2"/><style id="style4552-8"/><style id="style4511-2-0"/><linearGradient gradientTransform="matrix(0 1.2421 -1.25407 0 -2.684 -13.615)" gradientUnits="userSpaceOnUse" id="linearGradient-1-0" y2="23.9" x2="43.808" y1="23.9" x1="14.322"><stop id="stop6-62" offset="0%" stop-color="#3F474C"/><stop id="stop8-6" offset="100%" stop-color="#151E25"/></linearGradient><linearGradient gradientTransform="matrix(1.03993 0 0 1.01395 -1.06 -.148)" gradientUnits="userSpaceOnUse" y2="24.554" x2="40.791" y1="24.554" x1="7.706" id="linearGradient2021" xlink:href="#linearGradient-1-0"/></defs><style id="style4485" type="text/css"/><style type="text/css" id="style4485-4"/><path id="path4516" d="M2.75 26.22v1.669c0 9.574 5.638 17.282 17.312 17.282h6.998c15.278 0 18.008-11.323 18.008-17.282V26.22c0 5.96-2.73 17.282-18.008 17.282h-6.998c-11.674 0-17.311-7.708-17.311-17.282z" opacity="1" fill="url(#linearGradient4540)" fill-opacity="1" stroke="none" stroke-width="1.105" stroke-linecap="square" stroke-linejoin="bevel" stroke-miterlimit="4" stroke-dasharray="none" stroke-dashoffset="0" stroke-opacity=".078"/><style type="text/css" id="style4485-8"/><style id="style4485-7" type="text/css"/><style type="text/css" id="style4485-6"/><style id="style4485-3" type="text/css"/><g id="g4123" transform="matrix(1.00847 0 0 1.00256 56.976 25.482)"><g transform="translate(-56.983 -26.426)" id="g1206" fill-opacity="1"><g id="g2012" transform="matrix(1.0844 0 0 1.07926 -1.991 -1.904)" stroke-linecap="square" stroke-linejoin="bevel" stroke-miterlimit="4" stroke-dasharray="none" stroke-dashoffset="0" stroke-opacity=".078"><path d="M22.426 5.142l-1.493-.003C12.366 5.123 5.46 10.289 5.441 21.01l-.011 6.427c-.024 14.033 10.104 16.56 15.437 16.569l1.493.003c-5.333-.01-15.46-2.536-15.437-16.569l.011-6.427c.018-10.722 6.925-15.887 15.492-15.871z" id="path4516-7" opacity="1" fill="url(#linearGradient4540-4)" stroke="none" stroke-width="1.002"/><path id="path4518-01" d="M43.41 20.587c.018-10.334-6.87-15.42-15.438-15.435l-3.842-.007-.066 38.867 3.842.007c5.4.01 15.469-2.658 15.49-15.555z" opacity="1" fill="#92dc00" stroke="#000" stroke-width=".304"/><path id="path4518-7" d="M4.815 28.597c-.005 10.334 6.89 15.41 15.458 15.413l3.841.002.016-38.867-3.841-.002C14.888 5.141 4.823 7.823 4.818 20.72z" opacity="1" fill="#e6e6e6" stroke="#000" stroke-width=".304"/></g><path id="path4518-0" d="M7.091 28.269v-6.885c0-11.272 9.208-13.62 14.15-13.62h5.831c4.88 0 14.15 2.192 14.15 14.456v5.617c0 9.37-6.31 13.896-14.15 13.896H21.24c-7.838 0-14.149-4.434-14.149-13.464z" opacity="1" fill="url(#linearGradient2021)" stroke="#000" stroke-width=".272" stroke-linecap="square" stroke-linejoin="bevel" stroke-miterlimit="4" stroke-dasharray="none" stroke-dashoffset="0" stroke-opacity=".078"/><g id="g2018" transform="translate(-.923 .174)" stroke="none"><ellipse ry="4.125" rx="5.5" cy="28" cx="21.5" id="path2014" fill="#ececec" stroke-width=".897" stroke-opacity="1"/><path d="M30.567 14.99c-.754-.113-1.557-.039-2.44.351l-1.848 9.705c-1.174-1.671-3.325-2.3-5.887-1.818-3.31.626-5.593 3.314-5.13 5.997.464 2.683 3.5 4.345 6.811 3.72 2.608-.494 4.632-2.226 5.129-4.27l1.868-9.8c.085-.05 1.02-.26 3.117.587 2.339.441 4.36-1.69 4.36-1.69-1.914-.388-3.716-2.436-5.98-2.778m-9.125 10.004c1.892.367 2.78 2.344 2.502 3.823-.463 2.426-2.955 2.794-3.735 2.647l.309-1.618c2.666.222 2.51-3.607-.163-3.382l-.925 4.853-1.559-.294.992-5.207c.084-.442 1.02-1.117 2.58-.823m0 0" id="path56" opacity="1" fill="#92dc00" fill-rule="nonzero" stroke-width=".808"/></g></g></g></svg>