<svg xmlns="http://www.w3.org/2000/svg" xmlns:xlink="http://www.w3.org/1999/xlink" width="48" height="48" version="1.1" id="svg38"><defs id="defs22"><linearGradient id="linearGradient4488"><stop id="stop4490" offset="0" stop-color="#000" stop-opacity=".047"/><stop id="stop4492" offset="1" stop-color="#000" stop-opacity="0"/></linearGradient><style id="style4511"/><style id="style4511-26"/><style id="style4511-9"/><style id="style4552"/><style id="style4511-2"/><linearGradient gradientTransform="translate(-63.205 2.216) scale(.3038)" xlink:href="#linearGradient4488" id="linearGradient4160" x1="288.112" y1="141.785" x2="287.575" y2="79.008" gradientUnits="userSpaceOnUse"/><linearGradient gradientUnits="userSpaceOnUse" y2="47" y1="1" x2="0" id="bg"><stop id="stop826" offset="0" stop-color="#9ccd57"/><stop id="stop828" offset="1" stop-color="#93c848"/></linearGradient><linearGradient xlink:href="#bg" id="linearGradient895" x1="2.266" y1="23.808" x2="44.513" y2="23.808" gradientUnits="userSpaceOnUse"/></defs><style id="style4485" type="text/css"/><path d="M2.433 26.443v1.668c0 9.575 5.583 17.282 17.146 17.282h6.93c15.133 0 17.837-11.322 17.837-17.282v-1.668c0 5.96-2.704 17.282-17.837 17.282h-6.93c-11.563 0-17.146-7.708-17.146-17.282z" id="path4147" opacity="1" fill="url(#linearGradient4160)" fill-opacity="1" stroke="none" stroke-width="1.1" stroke-linecap="square" stroke-linejoin="bevel" stroke-miterlimit="4" stroke-dasharray="none" stroke-dashoffset="0" stroke-opacity=".078"/><path d="M19.046 2.965h8.495c13.908 0 16.805 11.246 16.805 17.282v7.123c0 5.96-2.704 17.282-17.837 17.282h-6.93c-11.562 0-17.146-7.708-17.146-17.282v-7.123c0-9.575 5.47-17.282 16.613-17.282z" id="rect4144" opacity="1" fill="#9ccd57" fill-opacity="1" stroke="#000" stroke-width=".334" stroke-linecap="square" stroke-linejoin="bevel" stroke-miterlimit="4" stroke-dasharray="none" stroke-dashoffset="0" stroke-opacity=".078"/><g id="g887" transform="matrix(1.1892 0 0 1.1892 -70.76 -1.558)"><g id="g861" transform="translate(54.819 -2.913) scale(1.02615)"><path id="path845" d="M11.801 13.801v20.398h24.398V13.801z" fill="#2c86d5"/><path id="path847" d="M17 26l-5.2 5 .001 3.199 11.217.001v-2.223" fill="#f4f4f4"/><path id="path849" d="M17.02 25.977L18 30l-2 2.5 1.02 1.7H23V32" fill="#dedede"/><path id="path851" d="M30 22l-9 12.2h15.2l-.08-5.7" fill="#f4f4f4"/><path id="path853" d="M30.02 21.977L31.5 27 30 31.5l2 2.7h4.2v-5.7" fill="#dedede"/><path id="path855" d="M11.801 13.801v10.1a7.78 7.78 0 0 0 1.199.1c4.418.003 8-3.582 8-8 0-.744-.105-1.484-.311-2.199z" fill="#fff" fill-opacity=".2"/><path id="path857" d="M11.801 13.801v5.758a3.499 3.499 0 0 0 3.926-5.758z" fill="#fbc06e"/><path id="path859" d="M13 13c-1.108 0-2 .892-2 2v18c0 1.108.892 2 2 2h22c1.108 0 2-.892 2-2V15c0-1.108-.892-2-2-2zm0 1h22c.554 0 1 .446 1 1v18c0 .554-.446 1-1 1H13c-.554 0-1-.446-1-1V15c0-.554.446-1 1-1z" fill="#f9f9f9"/></g></g></svg>