<svg xmlns:osb="http://www.openswatchbook.org/uri/2009/osb" xmlns="http://www.w3.org/2000/svg" xmlns:xlink="http://www.w3.org/1999/xlink" width="48" height="48" version="1.1" id="svg38"><defs id="defs22"><linearGradient id="linearGradient4488"><stop id="stop4490" offset="0" stop-color="#000" stop-opacity=".047"/><stop id="stop4492" offset="1" stop-color="#000" stop-opacity="0"/></linearGradient><style id="style4511"/><style id="style4511-26"/><style id="style4511-9"/><style id="style4552"/><style id="style4511-2"/><linearGradient xlink:href="#linearGradient4488" id="linearGradient4540" gradientUnits="userSpaceOnUse" gradientTransform="matrix(.30902 0 0 .3038 -64.017 1.994)" x1="288.112" y1="141.785" x2="287.575" y2="79.008"/><linearGradient osb:paint="solid" id="linearGradient5293"><stop id="stop5295" offset="0" stop-color="#9a89c0" stop-opacity="1"/></linearGradient><radialGradient r="8" gradientTransform="matrix(1.15363 0 0 .98512 22.285 -229.334)" cx="21.333" cy="-36.857" gradientUnits="userSpaceOnUse" id="radialGradient9547"><stop offset="0" id="stop9129" stop-color="#f0f0f0"/><stop offset="1" id="stop9131" stop-color="#a9a9a9"/></radialGradient><linearGradient x1="20.405" y1="6.988" gradientTransform="matrix(.9408 0 0 .93891 27.014 -275.646)" x2="20.405" gradientUnits="userSpaceOnUse" xlink:href="#linearGradient3494" y2="9.119" id="linearGradient7475"/><linearGradient id="linearGradient3494"><stop offset="0" id="stop3496" stop-color="#282828" stop-opacity=".824"/><stop offset="1" id="stop3498" stop-color="#282828" stop-opacity="0"/></linearGradient><linearGradient x1="20.405" y1="6.988" gradientTransform="matrix(.9408 0 0 .93891 31.274 -275.646)" x2="20.405" gradientUnits="userSpaceOnUse" xlink:href="#linearGradient3494" y2="9.119" id="linearGradient7469"/><filter height="1.296" y="-.148" width="1.051" x="-.026" id="filter1093" color-interpolation-filters="sRGB"><feGaussianBlur id="feGaussianBlur1095" stdDeviation=".562"/></filter><linearGradient id="linearGradient4221-3"><stop id="stop4223" offset="0" stop-color="#f37e40" stop-opacity="1"/><stop id="stop4225" offset="1" stop-color="#fac82e" stop-opacity="1"/></linearGradient><filter height="1.077" y="-.039" width="1.126" x="-.063" id="filter975" color-interpolation-filters="sRGB"><feGaussianBlur id="feGaussianBlur977" stdDeviation=".393"/></filter><filter height="1.299" y="-.149" width="1.299" x="-.149" id="filter1144" color-interpolation-filters="sRGB"><feGaussianBlur id="feGaussianBlur1146" stdDeviation=".772"/></filter><filter height="1.299" y="-.149" width="1.299" x="-.149" id="filter1148" color-interpolation-filters="sRGB"><feGaussianBlur id="feGaussianBlur1150" stdDeviation=".772"/></filter><filter height="1.299" y="-.149" width="1.299" x="-.149" id="filter1152" color-interpolation-filters="sRGB"><feGaussianBlur id="feGaussianBlur1154" stdDeviation=".772"/></filter><filter height="1.299" y="-.149" width="1.299" x="-.149" id="filter1156" color-interpolation-filters="sRGB"><feGaussianBlur id="feGaussianBlur1158" stdDeviation=".772"/></filter><filter height="1.299" y="-.149" width="1.299" x="-.149" id="filter1160" color-interpolation-filters="sRGB"><feGaussianBlur id="feGaussianBlur1162" stdDeviation=".772"/></filter><filter height="1.347" y="-.174" width="1.362" x="-.181" id="filter1164" color-interpolation-filters="sRGB"><feGaussianBlur id="feGaussianBlur1166" stdDeviation=".772"/></filter><filter height="1.387" y="-.194" width="1.449" x="-.225" id="filter1168" color-interpolation-filters="sRGB"><feGaussianBlur id="feGaussianBlur1170" stdDeviation=".772"/></filter><filter height="1.44" y="-.22" width="1.47" x="-.235" id="filter1172" color-interpolation-filters="sRGB"><feGaussianBlur id="feGaussianBlur1174" stdDeviation=".772"/></filter><filter height="1.392" y="-.196" width="1.52" x="-.26" id="filter1176" color-interpolation-filters="sRGB"><feGaussianBlur id="feGaussianBlur1178" stdDeviation=".772"/></filter><filter height="1.44" y="-.22" width="1.934" x="-.467" id="filter1180" color-interpolation-filters="sRGB"><feGaussianBlur id="feGaussianBlur1182" stdDeviation=".772"/></filter><linearGradient xlink:href="#linearGradient4221-3" id="linearGradient1760" x1="2.581" y1="23.586" x2="45.552" y2="23.586" gradientUnits="userSpaceOnUse"/></defs><style id="style4485" type="text/css"/><path id="path4516" d="M2.75 26.22v1.67c0 9.573 5.68 17.281 17.44 17.281h7.05c15.392 0 18.143-11.322 18.143-17.282v-1.668c0 5.96-2.75 17.282-18.143 17.282h-7.05c-11.76 0-17.44-7.708-17.44-17.282z" opacity="1" fill="url(#linearGradient4540)" fill-opacity="1" stroke="none" stroke-width="1.109" stroke-linecap="square" stroke-linejoin="bevel" stroke-miterlimit="4" stroke-dasharray="none" stroke-dashoffset="0" stroke-opacity=".078"/><path id="path4518" d="M19.649 2.742h8.64c14.148 0 17.094 11.247 17.094 17.282v7.124c0 5.96-2.75 17.282-18.143 17.282h-7.05c-11.76 0-17.44-7.708-17.44-17.282v-7.124c0-9.574 5.564-17.282 16.899-17.282z" opacity="1" fill="url(#linearGradient1760)" fill-opacity="1" stroke="#000" stroke-width=".337" stroke-linecap="square" stroke-linejoin="bevel" stroke-miterlimit="4" stroke-dasharray="none" stroke-dashoffset="0" stroke-opacity=".078"/><g id="g942" transform="matrix(1.0108 0 0 .95623 52.914 .292)"><g transform="matrix(.58582 0 0 .61757 -46.242 -138.17)" id="g1063" stroke="none"><path d="M42.015 240.21h12.601c.64 0 1.154.517 1.154 1.16v22.037c0 .644-.515 1.162-1.154 1.162h-12.6c-.64 0-1.155-.518-1.155-1.162V241.37c0-.643.515-1.16 1.154-1.16z" id="path961" opacity=".4" fill="#000" fill-opacity="1" stroke-width=".426" stroke-linecap="square" stroke-opacity="1" filter="url(#filter975)"/><path transform="scale(1 -1)" id="rect3448" d="M43.392-271.017h9.847c.222 0 .401.18.401.405v9.937a.402.402 0 0 1-.4.405h-9.848c-.222 0-.4-.18-.4-.405v-9.937c0-.224.178-.405.4-.405z" fill="url(#radialGradient9547)" stroke-width=".524"/><path d="M16.777 257.976a6.209 6.209 0 0 1-3.75 7.94 6.209 6.209 0 0 1-7.94-3.749 6.209 6.209 0 0 1 3.75-7.94 6.209 6.209 0 0 1 7.94 3.749z" id="path953" opacity=".4" fill="#000" fill-opacity="1" fill-rule="evenodd" stroke-width=".621" filter="url(#filter1144)"/><path transform="scale(1 -1)" id="rect3450" d="M45.093-268.896h2.186v2.207h-2.186z" opacity=".882" fill="url(#linearGradient7475)" stroke-width=".524"/><path d="M26.42 254.517a6.209 6.209 0 0 1-3.749 7.94 6.209 6.209 0 0 1-7.94-3.748 6.209 6.209 0 0 1 3.749-7.94 6.209 6.209 0 0 1 7.94 3.748z" id="path955" opacity=".4" fill="#000" fill-opacity="1" fill-rule="evenodd" stroke-width=".621" filter="url(#filter1148)"/><path transform="scale(1 -1)" id="rect2874" d="M49.352-268.896h2.187v2.207h-2.187z" opacity=".882" fill="url(#linearGradient7469)" stroke-width=".524"/><path d="M36.063 251.06a6.209 6.209 0 0 1-3.748 7.94 6.209 6.209 0 0 1-7.94-3.75 6.209 6.209 0 0 1 3.748-7.94 6.209 6.209 0 0 1 7.94 3.75z" id="path957" opacity=".4" fill="#000" fill-opacity="1" fill-rule="evenodd" stroke-width=".621" filter="url(#filter1152)"/><path id="rect5391" d="M42.015 240.21h12.601c.64 0 1.154.517 1.154 1.16v22.037c0 .644-.515 1.162-1.154 1.162h-12.6c-.64 0-1.155-.518-1.155-1.162V241.37c0-.643.515-1.16 1.154-1.16z" fill="#ff7f00" fill-opacity="1" stroke-width=".426" stroke-linecap="square" stroke-opacity="1"/><path d="M45.706 247.601a6.209 6.209 0 0 1-3.748 7.94 6.209 6.209 0 0 1-7.94-3.748 6.209 6.209 0 0 1 3.748-7.94 6.209 6.209 0 0 1 7.94 3.748z" id="path959" opacity=".4" fill="#000" fill-opacity="1" fill-rule="evenodd" stroke-width=".621" filter="url(#filter1156)"/><path id="path2987" d="M16.777 257.976a6.209 6.209 0 0 1-3.75 7.94 6.209 6.209 0 0 1-7.94-3.749 6.209 6.209 0 0 1 3.75-7.94 6.209 6.209 0 0 1 7.94 3.749z" fill="#ad0c6d" fill-opacity="1" fill-rule="evenodd" stroke-width=".621"/><path d="M55.35 244.143a6.209 6.209 0 0 1-3.749 7.94 6.209 6.209 0 0 1-7.94-3.748 6.209 6.209 0 0 1 3.749-7.94 6.209 6.209 0 0 1 7.94 3.748z" id="path962" opacity=".4" fill="#000" fill-opacity="1" fill-rule="evenodd" stroke-width=".621" filter="url(#filter1160)"/><path id="path3765" d="M26.42 254.517a6.209 6.209 0 0 1-3.749 7.94 6.209 6.209 0 0 1-7.94-3.748 6.209 6.209 0 0 1 3.749-7.94 6.209 6.209 0 0 1 7.94 3.748z" fill="#009fff" fill-opacity="1" fill-rule="evenodd" stroke-width=".621"/><g aria-label="M" transform="rotate(-19.728 1.67 -69.464)" style="line-height:0%" id="g966" font-style="normal" font-weight="400" font-size="6.286" font-family="sans-serif" letter-spacing="0" word-spacing="0" opacity=".4" fill="#000" fill-opacity="1" stroke-width=".524" filter="url(#filter1164)"><path d="M-104.752 239.588h1.722l2.178 5.81 2.19-5.81h1.721v8.537h-1.126v-7.496l-2.202 5.855h-1.16l-2.202-5.855v7.496h-1.12z" style="line-height:1.25;-inkscape-font-specification:Sans" id="path964" font-weight="400" font-size="11.711" font-family="sans-serif" fill="#000" fill-opacity="1" stroke-width=".524"/></g><path id="path3767" d="M36.063 251.06a6.209 6.209 0 0 1-3.748 7.94 6.209 6.209 0 0 1-7.94-3.75 6.209 6.209 0 0 1 3.748-7.94 6.209 6.209 0 0 1 7.94 3.75z" fill="#ff001d" fill-opacity="1" fill-rule="evenodd" stroke-width=".621"/><g aria-label="U" transform="rotate(-19.728 1.473 -69.297)" style="line-height:0%" id="g970" font-style="normal" font-weight="400" font-size="6.286" font-family="sans-serif" letter-spacing="0" word-spacing="0" opacity=".4" fill="#000" fill-opacity="1" stroke-width=".524" filter="url(#filter1168)"><path d="M-93.832 239.588h1.161v5.187q0 1.372.498 1.978.497.6 1.612.6 1.11 0 1.607-.6.497-.606.497-1.978v-5.187h1.161v5.33q0 1.67-.829 2.521-.823.852-2.436.852-1.618 0-2.447-.852-.824-.852-.824-2.522z" style="line-height:1.25;-inkscape-font-specification:Sans" id="path968" font-weight="400" font-size="11.711" font-family="sans-serif" fill="#000" fill-opacity="1" stroke-width=".524"/></g><path id="path3775" d="M45.706 247.601a6.209 6.209 0 0 1-3.748 7.94 6.209 6.209 0 0 1-7.94-3.748 6.209 6.209 0 0 1 3.748-7.94 6.209 6.209 0 0 1 7.94 3.748z" fill="#9be01f" fill-opacity="1" fill-rule="evenodd" stroke-width=".621"/><g aria-label="L" transform="rotate(-19.728 1.812 -68.639)" style="line-height:0%" id="g974" font-style="normal" font-weight="400" font-size="6.286" font-family="sans-serif" letter-spacing="0" word-spacing="0" opacity=".4" fill="#000" fill-opacity="1" stroke-width=".524" filter="url(#filter1172)"><path d="M-82.71 239.588h1.155v7.565h4.157v.972h-5.312z" style="line-height:1.25;-inkscape-font-specification:Sans" id="path972" font-weight="400" font-size="11.711" font-family="sans-serif" fill="#000" fill-opacity="1" stroke-width=".524"/></g><path id="path3777" d="M55.35 244.143a6.209 6.209 0 0 1-3.749 7.94 6.209 6.209 0 0 1-7.94-3.748 6.209 6.209 0 0 1 3.749-7.94 6.209 6.209 0 0 1 7.94 3.748z" fill="#fff" fill-opacity="1" fill-rule="evenodd" stroke-width=".621"/><g aria-label="T" transform="rotate(-19.728 1.888 -68.315)" style="line-height:0%" id="g978" font-style="normal" font-weight="400" font-size="6.286" font-family="sans-serif" letter-spacing="0" word-spacing="0" opacity=".4" fill="#000" fill-opacity="1" stroke-width=".524" filter="url(#filter1176)"><path d="M-73.339 239.588h7.222v.972h-3.03v7.565h-1.161v-7.565h-3.03z" style="line-height:1.25;-inkscape-font-specification:Sans" id="path976" font-weight="400" font-size="11.711" font-family="sans-serif" fill="#000" fill-opacity="1" stroke-width=".524"/></g><g id="text3779" style="line-height:0%" transform="rotate(-19.728 1.67 -69.464)" aria-label="M" font-style="normal" font-weight="400" font-size="6.286" font-family="sans-serif" letter-spacing="0" word-spacing="0" fill="#fff" fill-opacity="1" stroke-width=".524"><path id="path1136" style="line-height:1.25;-inkscape-font-specification:Sans" d="M-104.752 239.588h1.722l2.178 5.81 2.19-5.81h1.721v8.537h-1.126v-7.496l-2.202 5.855h-1.16l-2.202-5.855v7.496h-1.12z" font-weight="400" font-size="11.711" font-family="sans-serif" stroke-width=".524"/></g><g aria-label="I" transform="rotate(-19.728 1.744 -69.035)" style="line-height:0%" id="g982" font-style="normal" font-weight="400" font-size="6.286" font-family="sans-serif" letter-spacing="0" word-spacing="0" opacity=".4" fill="#000" fill-opacity="1" stroke-width=".524" filter="url(#filter1180)"><path d="M-60.296 239.588h1.155v8.537h-1.155z" style="line-height:1.25;-inkscape-font-specification:Sans" id="path980" font-weight="400" font-size="11.711" font-family="sans-serif" fill="#000" fill-opacity="1" stroke-width=".524"/></g><g id="text3783" style="line-height:0%" transform="rotate(-19.728 1.473 -69.297)" aria-label="U" font-style="normal" font-weight="400" font-size="6.286" font-family="sans-serif" letter-spacing="0" word-spacing="0" fill="#fff" fill-opacity="1" stroke-width=".524"><path id="path1133" style="line-height:1.25;-inkscape-font-specification:Sans" d="M-93.832 239.588h1.161v5.187q0 1.372.498 1.978.497.6 1.612.6 1.11 0 1.607-.6.497-.606.497-1.978v-5.187h1.161v5.33q0 1.67-.829 2.521-.823.852-2.436.852-1.618 0-2.447-.852-.824-.852-.824-2.522z" font-weight="400" font-size="11.711" font-family="sans-serif" stroke-width=".524"/></g><g id="text3787" style="line-height:0%" transform="rotate(-19.728 1.812 -68.639)" aria-label="L" font-style="normal" font-weight="400" font-size="6.286" font-family="sans-serif" letter-spacing="0" word-spacing="0" fill="#fff" fill-opacity="1" stroke-width=".524"><path id="path1130" style="line-height:1.25;-inkscape-font-specification:Sans" d="M-82.71 239.588h1.155v7.565h4.157v.972h-5.312z" font-weight="400" font-size="11.711" font-family="sans-serif" stroke-width=".524"/></g><g id="text3795" style="line-height:0%" transform="rotate(-19.728 1.888 -68.315)" aria-label="T" font-style="normal" font-weight="400" font-size="6.286" font-family="sans-serif" letter-spacing="0" word-spacing="0" fill="#fff" fill-opacity="1" stroke-width=".524"><path id="path1127" style="line-height:1.25;-inkscape-font-specification:Sans" d="M-73.339 239.588h7.222v.972h-3.03v7.565h-1.161v-7.565h-3.03z" font-weight="400" font-size="11.711" font-family="sans-serif" stroke-width=".524"/></g><g id="text3799" style="line-height:0%" transform="rotate(-19.728 1.744 -69.035)" aria-label="I" font-style="normal" font-weight="400" font-size="6.286" font-family="sans-serif" letter-spacing="0" word-spacing="0" fill="#fff" fill-opacity="1" stroke-width=".524"><path id="path1124" style="line-height:1.25;-inkscape-font-specification:Sans" d="M-60.296 239.588h1.155v8.537h-1.155z" font-weight="400" font-size="11.711" font-family="sans-serif" fill="#000" fill-opacity="1" stroke-width=".524"/></g><g id="text1067" style="line-height:0%" transform="scale(.87105 1.14804)" aria-label="SYSTEM" font-style="normal" font-weight="700" font-size="12.049" font-family="sans-serif" letter-spacing="0" word-spacing="0" opacity=".4" fill="#fff" fill-opacity="1" stroke-width=".524" filter="url(#filter1093)"><path id="path1111" style="line-height:1.25;-inkscape-font-specification:'Sans Bold'" d="M16.637 240.986v1.86q-.724-.324-1.412-.49-.689-.164-1.3-.164-.812 0-1.2.224-.389.223-.389.694 0 .353.259.553.265.194.953.335l.965.195q1.465.294 2.083.894.617.6.617 1.706 0 1.453-.865 2.165-.859.706-2.63.706-.835 0-1.676-.159-.842-.159-1.683-.47v-1.912q.841.447 1.624.676.788.224 1.518.224.741 0 1.135-.247.395-.248.395-.706 0-.412-.271-.636-.265-.223-1.065-.4l-.877-.194q-1.317-.282-1.93-.9-.605-.618-.605-1.665 0-1.312.847-2.018.847-.706 2.436-.706.723 0 1.488.112.765.105 1.583.323z"/><path id="path1113" style="line-height:1.25;-inkscape-font-specification:'Sans Bold'" d="M17.984 240.71h2.477l2 3.13 2-3.13h2.484l-3.348 5.083v3.7h-2.265v-3.7z"/><path id="path1115" style="line-height:1.25;-inkscape-font-specification:'Sans Bold'" d="M34.052 240.986v1.86q-.724-.324-1.412-.49-.689-.164-1.3-.164-.812 0-1.2.224-.39.223-.39.694 0 .353.26.553.265.194.953.335l.965.195q1.465.294 2.083.894.617.6.617 1.706 0 1.453-.865 2.165-.859.706-2.63.706-.835 0-1.676-.159-.842-.159-1.683-.47v-1.912q.841.447 1.624.676.788.224 1.518.224.741 0 1.135-.247.395-.248.395-.706 0-.412-.271-.636-.265-.223-1.065-.4l-.877-.194q-1.318-.282-1.93-.9-.605-.618-.605-1.665 0-1.312.847-2.018.847-.706 2.436-.706.723 0 1.488.112.765.105 1.583.323z"/><path id="path1117" style="line-height:1.25;-inkscape-font-specification:'Sans Bold'" d="M35.576 240.71h8.095v1.712H40.76v7.072h-2.265v-7.072h-2.918z"/><path id="path1119" style="line-height:1.25;-inkscape-font-specification:'Sans Bold'" d="M44.836 240.71h6.113v1.712H47.1v1.635h3.618v1.712H47.1v2.012h3.977v1.713h-6.242z"/><path id="path1121" style="line-height:1.25;-inkscape-font-specification:'Sans Bold'" d="M53.073 240.71h2.883l2 4.7 2.012-4.7h2.877v8.784h-2.141v-6.425l-2.024 4.736h-1.436l-2.024-4.736v6.425h-2.147z"/></g><g id="text4578" style="line-height:0%" transform="scale(.87105 1.14804)" aria-label="SYSTEM" font-style="normal" font-weight="700" font-size="12.049" font-family="sans-serif" letter-spacing="0" word-spacing="0" fill="#353535" fill-opacity="1" stroke-width=".524"><path id="path1097" style="line-height:1.25;-inkscape-font-specification:'Sans Bold'" d="M16.637 240.986v1.86q-.724-.324-1.412-.49-.689-.164-1.3-.164-.812 0-1.2.224-.389.223-.389.694 0 .353.259.553.265.194.953.335l.965.195q1.465.294 2.083.894.617.6.617 1.706 0 1.453-.865 2.165-.859.706-2.63.706-.835 0-1.676-.159-.842-.159-1.683-.47v-1.912q.841.447 1.624.676.788.224 1.518.224.741 0 1.135-.247.395-.248.395-.706 0-.412-.271-.636-.265-.223-1.065-.4l-.877-.194q-1.317-.282-1.93-.9-.605-.618-.605-1.665 0-1.312.847-2.018.847-.706 2.436-.706.723 0 1.488.112.765.105 1.583.323z"/><path id="path1100" style="line-height:1.25;-inkscape-font-specification:'Sans Bold'" d="M17.984 240.71h2.477l2 3.13 2-3.13h2.484l-3.348 5.083v3.7h-2.265v-3.7z"/><path id="path1102" style="line-height:1.25;-inkscape-font-specification:'Sans Bold'" d="M34.052 240.986v1.86q-.724-.324-1.412-.49-.689-.164-1.3-.164-.812 0-1.2.224-.39.223-.39.694 0 .353.26.553.265.194.953.335l.965.195q1.465.294 2.083.894.617.6.617 1.706 0 1.453-.865 2.165-.859.706-2.63.706-.835 0-1.676-.159-.842-.159-1.683-.47v-1.912q.841.447 1.624.676.788.224 1.518.224.741 0 1.135-.247.395-.248.395-.706 0-.412-.271-.636-.265-.223-1.065-.4l-.877-.194q-1.318-.282-1.93-.9-.605-.618-.605-1.665 0-1.312.847-2.018.847-.706 2.436-.706.723 0 1.488.112.765.105 1.583.323z"/><path id="path1104" style="line-height:1.25;-inkscape-font-specification:'Sans Bold'" d="M35.576 240.71h8.095v1.712H40.76v7.072h-2.265v-7.072h-2.918z"/><path id="path1106" style="line-height:1.25;-inkscape-font-specification:'Sans Bold'" d="M44.836 240.71h6.113v1.712H47.1v1.635h3.618v1.712H47.1v2.012h3.977v1.713h-6.242z"/><path id="path1108" style="line-height:1.25;-inkscape-font-specification:'Sans Bold'" d="M53.073 240.71h2.883l2 4.7 2.012-4.7h2.877v8.784h-2.141v-6.425l-2.024 4.736h-1.436l-2.024-4.736v6.425h-2.147z"/></g></g></g></svg>