<svg xmlns:osb="http://www.openswatchbook.org/uri/2009/osb" xmlns="http://www.w3.org/2000/svg" xmlns:xlink="http://www.w3.org/1999/xlink" width="48" height="48" version="1.1" id="svg38"><defs id="defs22"><linearGradient id="linearGradient4488"><stop id="stop4490" offset="0" stop-color="#000" stop-opacity=".047"/><stop id="stop4492" offset="1" stop-color="#000" stop-opacity="0"/></linearGradient><style id="style4511"/><style id="style4511-26"/><style id="style4511-9"/><style id="style4552"/><style id="style4511-2"/><linearGradient xlink:href="#linearGradient4488" id="linearGradient4540" gradientUnits="userSpaceOnUse" gradientTransform="matrix(.30902 0 0 .3038 -64.017 1.994)" x1="288.112" y1="141.785" x2="287.575" y2="79.008"/><linearGradient osb:paint="solid" id="linearGradient5293"><stop id="stop5295" offset="0" stop-color="#9a89c0" stop-opacity="1"/></linearGradient><linearGradient xlink:href="#radialGradient3322-6" id="linearGradient1796" x1="2.581" y1="23.586" x2="45.552" y2="23.586" gradientUnits="userSpaceOnUse"/><radialGradient r="23" gradientTransform="matrix(0 -2.8515 3.7557 0 674.001 398.263)" cx="26.617" cy="-2.065" gradientUnits="userSpaceOnUse" id="radialGradient3322-6"><stop offset="0" id="stop2749-2-7" stop-color="#d280b9" stop-opacity="1"/><stop id="stop4269-9" offset=".529" stop-color="#b549b5" stop-opacity="1"/><stop offset="1" id="stop2755-1-1" stop-color="#8940a8" stop-opacity="1"/></radialGradient></defs><style id="style4485" type="text/css"/><path id="path4516" d="M2.75 26.22v1.67c0 9.573 5.68 17.281 17.44 17.281h7.05c15.392 0 18.143-11.322 18.143-17.282v-1.668c0 5.96-2.75 17.282-18.143 17.282h-7.05c-11.76 0-17.44-7.708-17.44-17.282z" opacity="1" fill="url(#linearGradient4540)" fill-opacity="1" stroke="none" stroke-width="1.109" stroke-linecap="square" stroke-linejoin="bevel" stroke-miterlimit="4" stroke-dasharray="none" stroke-dashoffset="0" stroke-opacity=".078"/><path id="path4518" d="M19.649 2.742h8.64c14.148 0 17.094 11.247 17.094 17.282v7.124c0 5.96-2.75 17.282-18.143 17.282h-7.05c-11.76 0-17.44-7.708-17.44-17.282v-7.124c0-9.574 5.564-17.282 16.899-17.282z" opacity="1" fill="url(#linearGradient1796)" fill-opacity="1" stroke="#000" stroke-width=".337" stroke-linecap="square" stroke-linejoin="bevel" stroke-miterlimit="4" stroke-dasharray="none" stroke-dashoffset="0" stroke-opacity=".078"/><path id="path4505-6" d="M20.76 14.123l-2.448 4.865v4.022c-.344.393-.72.789-1.111 1.17-1.288 1.257-2.732 2.356-3.698 2.67l-1.626-1.585-4.987 2.389V39.24h17.816V17.683c-1.073-2.27-2.253-3.118-3.945-3.56zM13.972 29.67h.002a32.615 32.615 0 0 1-.002 0zm-1.677.955h.003a36.49 36.49 0 0 1-.003 0z" style="marker:none" color="#000" display="inline" overflow="visible" visibility="visible" opacity=".05" fill="#fff" fill-opacity="0" fill-rule="nonzero" stroke="none" stroke-width="5.499"/><path style="marker:none" d="M16.98 15.728v16.293s8.471-3.34 15.393-8.151c0-.002 0-.003-.002-.005a.005.005 0 0 0-.003-.005.026.026 0 0 1-.003-.006.01.01 0 0 1-.002-.005c-7.301-4.965-15.383-8.12-15.383-8.12z" id="path4360" color="#000" display="inline" overflow="visible" visibility="visible" fill="#fff" fill-opacity="1" fill-rule="nonzero" stroke="none" stroke-width=".412"/></svg>