<svg xmlns="http://www.w3.org/2000/svg" xmlns:xlink="http://www.w3.org/1999/xlink" width="48" height="48" version="1.1" id="svg38"><defs id="defs22"><linearGradient id="linearGradient4488"><stop id="stop4490" offset="0" stop-color="#000" stop-opacity=".047"/><stop id="stop4492" offset="1" stop-color="#000" stop-opacity="0"/></linearGradient><style id="style4511"/><style id="style4511-26"/><style id="style4511-9"/><style id="style4552"/><style id="style4511-2"/><linearGradient gradientTransform="matrix(.30668 0 0 .3038 -63.827 2.216)" xlink:href="#linearGradient4488" id="linearGradient4160" x1="288.112" y1="141.785" x2="287.575" y2="79.008" gradientUnits="userSpaceOnUse"/><linearGradient gradientTransform="rotate(-90 1.331 52.78)" gradientUnits="userSpaceOnUse" x2="47" x1="1" id="linearGradient3764-3"><stop id="stop1145" stop-opacity="1" stop-color="#d3c1c5"/><stop id="stop1147" stop-opacity="1" stop-color="#dbcdd0" offset="1"/></linearGradient><clipPath id="clipPath-899682928"/><linearGradient xlink:href="#linearGradient3764-3" id="linearGradient1315" x1="2.265" y1="23.808" x2="45.674" y2="23.808" gradientUnits="userSpaceOnUse"/></defs><style id="style4485" type="text/css"/><path d="M19.506 2.965h8.73c14.292 0 17.268 11.247 17.268 17.282v7.123c0 5.96-2.778 17.281-18.329 17.281h-7.121c-11.882 0-17.62-7.707-17.62-17.281v-7.123c0-9.574 5.622-17.282 17.072-17.282z" id="rect4144" opacity="1" fill="url(#linearGradient1315)" fill-opacity="1" stroke="#000" stroke-width=".339" stroke-linecap="square" stroke-linejoin="bevel" stroke-miterlimit="4" stroke-dasharray="none" stroke-dashoffset="0" stroke-opacity=".078"/><path d="M2.434 26.443v1.668c0 9.574 5.636 17.282 17.309 17.282h6.996c15.276 0 18.005-11.322 18.005-17.282v-1.668c0 5.96-2.73 17.281-18.005 17.281h-6.996c-11.673 0-17.309-7.707-17.309-17.281z" id="path4147" opacity="1" fill="url(#linearGradient4160)" fill-opacity="1" stroke="none" stroke-width="1.105" stroke-linecap="square" stroke-linejoin="bevel" stroke-miterlimit="4" stroke-dasharray="none" stroke-dashoffset="0" stroke-opacity=".078"/><path id="path1200" d="M19.495 10.82c-2.458-.047-4.952.477-5.571 2.473-.14.484-.357 1.484-.366 1.949v5.43h2.31c.018-1.82-.024-3.602 0-5.43.08-1.156 1.955-2.449 3.47-2.441.018 1.852-.032 3.73 0 5.574.13 1.5 1.152 2.426 3.311 2.426 1.148-.02 2.309 0 3.452 0 1.744-.266 2.49-1.523 2.49-3v-5c1.585-.094 3.401 1.207 3.47 2.41.026 1.824-.01 3.578 0 5.387.83 0 1.481.074 2.313.074v-5.465c-.081-.59-.316-1.348-.71-1.922-1.02-1.691-3.406-2.605-5.657-2.465-.655-.066-1.555.293-1.735.805.014 2.176.023 4.406 0 6.582-.073.91-.827 1.594-2.309 1.594-1.42 0-1.432-.145-1.96-.688-.353-.609-.313-1.543-.353-2.316 0-1.766-.019-3.426 0-5.184-.697-.668-1.302-.754-2.16-.801m0 .008" fill="#2d2d2d" fill-opacity="1" fill-rule="evenodd" stroke="none" stroke-width="1.076"/><path id="path1202" d="M33.93 32.94c-.073 0-.335-.043-.394-.012 0 0-.646.672-1.003.887-.312.191-.601.734-1.048.93-.17.074-.258.07-.573.07h-3.959l.032 1h3.434c.076 0 .316.02.474-.012.415-.078.7-.207 1.18-.438.507-.266 2.105-1.832 2.105-1.832a.323.279 0 0 0 .104-.402l-.05-.059a.37.32 0 0 0-.298-.133m-.004 0" fill="#2d2d2d" fill-opacity="1" fill-rule="evenodd" stroke="none" stroke-width="1.076"/><path id="path1204" d="M33.05 20.337V34.13c3.334-.297 5.959-3.27 5.959-6.895 0-3.625-2.626-6.598-5.96-6.895m0-.004" fill="#2d2d2d" fill-opacity="1" fill-rule="evenodd" stroke="none" stroke-width="1.076"/><path id="path1206" d="M14.891 20.408v13.793c-3.34-.297-5.96-3.27-5.96-6.895 0-3.625 2.63-6.598 5.96-6.895m0-.004" fill="#2d2d2d" fill-opacity="1" fill-rule="evenodd" stroke="none" stroke-width="1.076"/><path id="path1208" d="M27.441 35.31c0 .828-1.296 1.5-2.891 1.5-1.6 0-2.892-.672-2.892-1.5s1.292-1.5 2.892-1.5c1.595 0 2.891.672 2.891 1.5m0 0" fill="#2d2d2d" fill-opacity="1" fill-rule="evenodd" stroke="none" stroke-width="1.076"/><path id="path1210" d="M32.488 20.115h.894c.23 0 .42.129.42.285v13.43c0 .16-.19.285-.42.285h-.894c-.23 0-.42-.125-.42-.285V20.4c0-.156.19-.285.42-.285m0 0" fill="#2d2d2d" fill-opacity="1" fill-rule="evenodd" stroke="none" stroke-width="1.076"/><path id="path1212" d="M14.514 20.095h.98c.209 0 .376.129.376.289v13.523c0 .156-.168.285-.375.285h-.981c-.208 0-.375-.129-.375-.285V20.384c0-.16.168-.289.375-.289m0 0" fill="#2d2d2d" fill-opacity="1" fill-rule="evenodd" stroke="none" stroke-width="1.076"/></svg>