<svg xmlns:osb="http://www.openswatchbook.org/uri/2009/osb" xmlns="http://www.w3.org/2000/svg" xmlns:xlink="http://www.w3.org/1999/xlink" width="48" height="48" version="1.1" id="svg38"><defs id="defs22"><linearGradient id="linearGradient4488"><stop id="stop4490" offset="0" stop-color="#000" stop-opacity=".047"/><stop id="stop4492" offset="1" stop-color="#000" stop-opacity="0"/></linearGradient><style id="style4511"/><style id="style4511-26"/><style id="style4511-9"/><style id="style4552"/><linearGradient id="e-1" y1="41.22" x1="24.392" y2="25.343" x2="20.643" gradientUnits="userSpaceOnUse"><stop stop-color="#334545" id="stop22-8"/><stop offset="1" stop-color="#536161" id="stop24-7"/></linearGradient><style id="style4511-2"/><linearGradient xlink:href="#linearGradient4488" id="linearGradient4540" gradientUnits="userSpaceOnUse" gradientTransform="matrix(.30673 0 0 .3038 -63.522 1.994)" x1="288.112" y1="141.785" x2="287.575" y2="79.008"/><linearGradient osb:paint="solid" id="linearGradient5293"><stop id="stop5295" offset="0" stop-color="#9a89c0" stop-opacity="1"/></linearGradient><linearGradient osb:paint="solid" id="linearGradient5251"><stop id="stop5253" offset="0" stop-color="#2f343f" stop-opacity="1"/></linearGradient><linearGradient xlink:href="#e-1" id="linearGradient2002" x1="2.746" y1="23.739" x2="45.073" y2="23.739" gradientUnits="userSpaceOnUse"/></defs><style id="style4485" type="text/css"/><path id="path4516" d="M2.75 26.22v1.669c0 9.574 5.638 17.282 17.312 17.282h6.998c15.278 0 18.008-11.323 18.008-17.282V26.22c0 5.96-2.73 17.282-18.008 17.282h-6.998c-11.674 0-17.311-7.708-17.311-17.282z" opacity="1" fill="url(#linearGradient4540)" fill-opacity="1" stroke="none" stroke-width="1.105" stroke-linecap="square" stroke-linejoin="bevel" stroke-miterlimit="4" stroke-dasharray="none" stroke-dashoffset="0" stroke-opacity=".078"/><path id="path4518" d="M44.905 19.354v8.576c0 14.042-11.329 16.967-17.408 16.967h-7.175c-6.003 0-17.407-2.73-17.407-18.009v-6.996c0-11.674 7.763-17.311 17.407-17.311h7.175c9.644 0 17.408 5.522 17.408 16.773z" opacity="1" fill="url(#linearGradient2002)" fill-opacity="1" stroke="#000" stroke-width=".337" stroke-linecap="square" stroke-linejoin="bevel" stroke-miterlimit="4" stroke-dasharray="none" stroke-dashoffset="0" stroke-opacity=".078"/><g id="g1994" transform="matrix(.93633 0 0 .92473 .474 1.882)" fill-opacity="1"><path id="path1922" d="M12.03 10.635v26h6v-14l4 7h6l4-7v14h6v-26h-6l-7 11-7-11h-2z" fill="#f9f9f9"/><path id="path1924" d="M13.03 11.635v24h4V19.197l6 9.438h4l6-9.438v16.438h4v-24h-4l-8 12-8-12h-1z" fill="#d50000"/><path id="path1926" d="M28.03 24.635v3h-3v6h3v3h6v-3h3v-6h-3v-3z" opacity=".1" fill="#000" fill-rule="nonzero" stroke="none"/><path id="rect1932" fill="#f9f9f9" fill-rule="nonzero" stroke="none" d="M27.03 23.635h6v12h-6z"/><path id="rect1934" transform="rotate(90)" fill="#f9f9f9" fill-rule="nonzero" stroke="none" d="M26.635-36.03h6v12h-6z"/><path id="rect1936" transform="rotate(90)" fill="#84d54c" fill-rule="nonzero" stroke="none" d="M27.635-35.03h4v10h-4z"/><path id="rect1938" fill="#84d54c" fill-rule="nonzero" stroke="none" d="M28.03 24.635h4v10h-4z"/></g></svg>