<svg xmlns:osb="http://www.openswatchbook.org/uri/2009/osb" xmlns="http://www.w3.org/2000/svg" xmlns:xlink="http://www.w3.org/1999/xlink" width="48" height="48" version="1.1" id="svg38"><defs id="defs22"><linearGradient id="linearGradient4488"><stop id="stop4490" offset="0" stop-color="#000" stop-opacity=".047"/><stop id="stop4492" offset="1" stop-color="#000" stop-opacity="0"/></linearGradient><style id="style4511"/><style id="style4511-26"/><style id="style4511-9"/><style id="style4552"/><style id="style4511-2"/><linearGradient xlink:href="#linearGradient4488" id="linearGradient4540" gradientUnits="userSpaceOnUse" gradientTransform="matrix(.30902 0 0 .3038 -64.017 1.994)" x1="288.112" y1="141.785" x2="287.575" y2="79.008"/><linearGradient osb:paint="solid" id="linearGradient5293"><stop id="stop5295" offset="0" stop-color="#9a89c0" stop-opacity="1"/></linearGradient><filter height="1.113" y="-.057" width="1.083" x="-.042" id="filter994" color-interpolation-filters="sRGB"><feGaussianBlur id="feGaussianBlur996" stdDeviation=".689"/></filter></defs><style id="style4485" type="text/css"/><path id="path4516" d="M2.75 26.22v1.67c0 9.573 5.68 17.281 17.44 17.281h7.05c15.392 0 18.143-11.322 18.143-17.282v-1.668c0 5.96-2.75 17.282-18.143 17.282h-7.05c-11.76 0-17.44-7.708-17.44-17.282z" opacity="1" fill="url(#linearGradient4540)" fill-opacity="1" stroke="none" stroke-width="1.109" stroke-linecap="square" stroke-linejoin="bevel" stroke-miterlimit="4" stroke-dasharray="none" stroke-dashoffset="0" stroke-opacity=".078"/><path id="path4518" d="M19.649 2.744h8.64c14.146 0 17.092 11.465 17.092 17.618v7.262c0 6.075-2.75 17.618-18.141 17.618h-7.05c-11.76 0-17.439-7.858-17.439-17.618v-7.262c0-9.76 5.564-17.618 16.898-17.618z" opacity="1" fill="#f8e1ae" fill-opacity="1" stroke="#000" stroke-width=".34" stroke-linecap="square" stroke-linejoin="bevel" stroke-miterlimit="4" stroke-dasharray="none" stroke-dashoffset="0" stroke-opacity=".078"/><g id="g891" transform="matrix(.19463 0 0 .22706 -3.367 -2.436)" fill-rule="evenodd"><path d="M46.395 248.016c-3.644 0-5.697 1.893-6.564 3.732-.864 1.84-.745 3.638-.745 3.638l2.088-.121s-.062-1.335.547-2.628c.608-1.295 1.688-2.533 4.674-2.533 2.987 0 4.067 1.238 4.674 2.533.61 1.293.547 2.628.547 2.628l2.089.12s.119-1.797-.746-3.637c-.866-1.84-2.92-3.732-6.564-3.732zm0 6.265a1.044 1.044 0 0 0-1.044 1.044 1.044 1.044 0 0 0 1.044 1.044 1.044 1.044 0 0 0 1.045-1.044 1.044 1.044 0 0 0-1.045-1.044zm-25.057 2.088c-3.643 0-5.697 1.895-6.563 3.732-.866 1.84-.746 3.638-.746 3.638v13.515h2.088v-13.636s-.063-1.334.547-2.627c.609-1.295 1.688-2.533 4.674-2.533 2.985 0 4.064 1.238 4.674 2.533.61 1.293.547 2.627.547 2.627v13.636h2.089v-13.636s-.063-1.334.547-2.627c.608-1.295 1.687-2.533 4.674-2.533 2.984 0 4.064 1.238 4.674 2.533.61 1.293.547 2.627.547 2.627v.028l-.004 4.21v2.028s-.12 1.798.745 3.638c.867 1.838 2.92 3.732 6.564 3.732 3.645 0 5.697-1.894 6.564-3.732.865-1.84.746-3.638.746-3.638V256.37h-2.089v13.635s.063 1.335-.547 2.628c-.608 1.294-1.687 2.533-4.674 2.533-2.986 0-4.066-1.239-4.674-2.533-.61-1.293-.547-2.628-.547-2.628v-2.149l.004-4.116s.12-1.798-.745-3.638c-.867-1.838-2.92-3.732-6.564-3.732-3.285 0-5.271 1.539-6.266 3.189-.994-1.65-2.98-3.19-6.265-3.19z" id="path980" transform="translate(12.954 -876.236) scale(3.77953)" opacity=".3" fill="#000" fill-opacity="1" stroke-width="1.044" filter="url(#filter994)"/><path id="path8-9" d="M188.307 61.146c-13.774 0-21.534 7.155-24.81 14.105C160.23 82.205 160.68 89 160.68 89l7.893-.458s-.237-5.044 2.068-9.93c2.297-4.893 6.378-9.574 17.666-9.574 11.287 0 15.368 4.68 17.665 9.574 2.305 4.886 2.068 9.93 2.068 9.93l7.893.458s.45-6.796-2.818-13.75c-3.275-6.95-11.035-14.105-24.808-14.105zm0 23.68a3.947 3.947 0 0 0-3.947 3.946 3.947 3.947 0 0 0 3.947 3.947 3.947 3.947 0 0 0 3.946-3.947 3.947 3.947 0 0 0-3.946-3.946zm-94.705 7.893c-13.77 0-21.532 7.16-24.805 14.105-3.275 6.954-2.821 13.75-2.821 13.75v51.078h7.893v-51.535s-.238-5.044 2.066-9.93c2.302-4.894 6.383-9.575 17.667-9.575 11.28 0 15.36 4.681 17.666 9.575 2.304 4.886 2.068 9.93 2.068 9.93v51.535h7.893v-51.535s-.237-5.044 2.068-9.93c2.297-4.894 6.378-9.575 17.665-9.575 11.28 0 15.36 4.681 17.666 9.575 2.304 4.886 2.068 9.93 2.068 9.93v.104l-.017 15.913v7.664s-.45 6.797 2.818 13.75c3.276 6.947 11.035 14.106 24.809 14.106 13.774 0 21.533-7.16 24.809-14.105 3.268-6.954 2.818-13.75 2.818-13.75V92.72h-7.894v51.535s.237 5.044-2.068 9.93c-2.297 4.894-6.378 9.575-17.665 9.575-11.287 0-15.368-4.681-17.665-9.575-2.305-4.886-2.068-9.93-2.068-9.93v-8.122l.016-15.558s.45-6.796-2.818-13.75c-3.276-6.946-11.035-14.105-24.809-14.105-12.416 0-19.923 5.817-23.68 12.053-3.757-6.236-11.264-12.053-23.68-12.053z" fill="#2a567b" stroke-width="3.947"/></g></svg>