<svg xmlns:osb="http://www.openswatchbook.org/uri/2009/osb" xmlns="http://www.w3.org/2000/svg" xmlns:xlink="http://www.w3.org/1999/xlink" width="48" height="48" version="1.1" id="svg38"><defs id="defs22"><linearGradient gradientTransform="translate(-54.827 2.553)" id="linearGradient1726" x1="23.299" y1="47.874" x2="24.13" y2=".989" gradientUnits="userSpaceOnUse"><stop stop-color="#0a80fd" id="stop1722"/><stop offset="1" stop-color="#56c5fa" id="stop1724"/></linearGradient><linearGradient id="linearGradient4488"><stop id="stop4490" offset="0" stop-color="#000" stop-opacity=".047"/><stop id="stop4492" offset="1" stop-color="#000" stop-opacity="0"/></linearGradient><style id="style4511"/><style id="style4511-26"/><style id="style4511-9"/><style id="style4552"/><style id="style4511-2"/><linearGradient xlink:href="#linearGradient4488" id="linearGradient4540" gradientUnits="userSpaceOnUse" gradientTransform="matrix(-.00048 .28328 -.27433 -.0005 44.362 -56.267)" x1="288.112" y1="141.785" x2="287.575" y2="79.008"/><linearGradient osb:paint="solid" id="linearGradient5293"><stop id="stop5295" offset="0" stop-color="#9a89c0" stop-opacity="1"/></linearGradient><style id="style4511-87"/><style id="style4511-26-7"/><style id="style4511-9-1"/><style id="style4552-53"/><style id="style4511-2-9"/><style id="style4511-8"/><style id="style4511-26-4"/><style id="style4511-9-8"/><style id="style4552-5"/><style id="style4511-2-5"/><linearGradient xlink:href="#linearGradient1726" id="linearGradient1734" x1="6.48" y1="24.512" x2="42.063" y2="24.512" gradientUnits="userSpaceOnUse" gradientTransform="matrix(.90758 0 0 .92333 1.88 1.836)"/></defs><style id="style4485" type="text/css"/><style type="text/css" id="style4485-7"/><style id="style4485-6" type="text/css"/><path id="path4518-0-5" d="M3.244 28.695v-8.406c0-13.76 11.26-16.627 17.303-16.627h7.131c5.967 0 17.303 2.676 17.303 17.649v6.857c0 11.44-7.717 16.964-17.303 16.964h-7.131c-9.586 0-17.303-5.412-17.303-16.437z" opacity="1" fill="#289bfc" fill-opacity="1" stroke="#000" stroke-width=".333" stroke-linecap="square" stroke-linejoin="bevel" stroke-miterlimit="4" stroke-dasharray="none" stroke-dashoffset="0" stroke-opacity=".078"/><path id="path4516" d="M22.38 4.899l-1.507-.003C12.228 4.88 5.258 10.074 5.24 20.856l-.011 6.462c-.024 14.11 10.196 16.65 15.577 16.66l1.507.003c-5.381-.01-15.602-2.55-15.577-16.66l.01-6.463c.02-10.782 6.988-15.975 15.634-15.96z" opacity="1" fill="url(#linearGradient4540)" fill-opacity="1" stroke="none" stroke-width="1.009" stroke-linecap="square" stroke-linejoin="bevel" stroke-miterlimit="4" stroke-dasharray="none" stroke-dashoffset="0" stroke-opacity=".078"/><path d="M43.554 20.429c.018-10.39-6.932-15.504-15.578-15.52l-3.877-.007-.067 39.081 3.877.008c5.45.01 15.61-2.673 15.632-15.642z" id="path4518" opacity="1" fill="#256a99" fill-opacity="1" stroke="#000" stroke-width=".307" stroke-linecap="square" stroke-linejoin="bevel" stroke-miterlimit="4" stroke-dasharray="none" stroke-dashoffset="0" stroke-opacity=".078"/><path d="M4.608 28.484c-.004 10.39 6.953 15.494 15.599 15.498l3.876.002.016-39.082-3.876-.002C14.773 4.898 4.617 7.595 4.61 20.563z" id="path4518-7" opacity="1" fill="#ececec" fill-opacity="1" stroke="#000" stroke-width=".307" stroke-linecap="square" stroke-linejoin="bevel" stroke-miterlimit="4" stroke-dasharray="none" stroke-dashoffset="0" stroke-opacity=".078"/><path id="path4518-0" d="M7.889 27.884v-6.68c0-10.937 8.643-13.215 13.281-13.215h5.474c4.58 0 13.282 2.126 13.282 14.026v5.45c0 9.092-5.924 13.483-13.282 13.483H21.17c-7.358 0-13.281-4.301-13.281-13.064z" opacity="1" fill="url(#linearGradient1734)" fill-opacity="1" stroke="#000" stroke-width=".26" stroke-linecap="square" stroke-linejoin="bevel" stroke-miterlimit="4" stroke-dasharray="none" stroke-dashoffset="0" stroke-opacity=".078"/><path d="M31.374 22.568a.291.291 0 0 1-.357.012l-3.558-2.565-1.687 9.555a.26.26 0 0 1-.04.1c-.337 1.369-2.182 2.39-4.352 2.39-2.432 0-4.41-1.275-4.41-2.84 0-1.569 1.977-2.84 4.41-2.84.998 0 1.948.21 2.72.599l2.23-11.982a.275.275 0 0 1 .227-.217.29.29 0 0 1 .292.127l4.58 7.333a.257.257 0 0 1-.055.336" id="path1686" fill="#fff" fill-opacity=".846" stroke-width=".772"/></svg>