<svg xmlns:osb="http://www.openswatchbook.org/uri/2009/osb" xmlns="http://www.w3.org/2000/svg" xmlns:xlink="http://www.w3.org/1999/xlink" width="48" height="48" version="1.1" id="svg38"><defs id="defs22"><linearGradient id="linearGradient-1" y2="2" x2="24" y1="42.66" x1="24" gradientUnits="userSpaceOnUse" gradientTransform="translate(-64.678 .314)"><stop id="stop1544" offset="0%" stop-color="#5141FF"/><stop id="stop1546" offset="100%" stop-color="#00C0FF"/></linearGradient><linearGradient id="linearGradient4488"><stop id="stop4490" offset="0" stop-color="#000" stop-opacity=".047"/><stop id="stop4492" offset="1" stop-color="#000" stop-opacity="0"/></linearGradient><style id="style4511"/><style id="style4511-26"/><style id="style4511-9"/><style id="style4552"/><style id="style4511-2"/><linearGradient xlink:href="#linearGradient4488" id="linearGradient4540" gradientUnits="userSpaceOnUse" gradientTransform="matrix(-.30019 -.00052 .00053 -.2924 109.652 46.154)" x1="288.112" y1="141.785" x2="287.575" y2="79.008"/><linearGradient osb:paint="solid" id="linearGradient5293"><stop id="stop5295" offset="0" stop-color="#9a89c0" stop-opacity="1"/></linearGradient><linearGradient gradientTransform="translate(-64.678 .314)" gradientUnits="userSpaceOnUse" x1="24" y1="42.66" x2="24" y2="2" id="linearGradient-1-3"><stop stop-color="#5141FF" offset="0%" id="stop862"/><stop stop-color="#00C0FF" offset="100%" id="stop864"/></linearGradient><style id="style4511-87"/><style id="style4511-26-7"/><style id="style4511-9-1"/><style id="style4552-53"/><style id="style4511-2-9"/><style id="style4511-8"/><style id="style4511-26-4"/><style id="style4511-9-8"/><style id="style4552-5"/><style id="style4511-2-5"/><linearGradient xlink:href="#linearGradient-1" id="linearGradient1534" x1="3.255" y1="14.17" x2="44.997" y2="14.17" gradientUnits="userSpaceOnUse"/><linearGradient xlink:href="#linearGradient-1-3" id="linearGradient1542" x1="3.248" y1="34.89" x2="44.995" y2="34.89" gradientUnits="userSpaceOnUse"/><linearGradient xlink:href="#linearGradient4475" id="linearGradient4260" gradientUnits="userSpaceOnUse" x1="400.954" y1="545.223" x2="400.954" y2="517.223"/><linearGradient id="linearGradient4475"><stop offset="0" id="stop4477" stop-color="#333538" stop-opacity="1"/><stop offset="1" id="stop4479" stop-color="#566069" stop-opacity="1"/></linearGradient><linearGradient gradientTransform="translate(-78.593 -134.81) scale(1.25088)" gradientUnits="userSpaceOnUse" y2="528.419" x2="406.668" y1="537.914" x1="406.668" id="linearGradient4356" xlink:href="#linearGradient4395"/><linearGradient id="linearGradient4395"><stop id="stop4397" offset="0" stop-color="#00cafe" stop-opacity="1"/><stop id="stop4399" offset="1" stop-color="#1460f3" stop-opacity="1"/></linearGradient><linearGradient xlink:href="#linearGradient4475" id="linearGradient740" gradientUnits="userSpaceOnUse" x1="400.954" y1="545.223" x2="400.954" y2="517.223"/></defs><style id="style4485" type="text/css"/><style type="text/css" id="style4485-7"/><style id="style4485-6" type="text/css"/><path id="path4516" d="M44.836 22.725l.003-1.606c.016-9.215-5.487-16.643-16.912-16.663l-6.848-.012C6.126 4.42 3.435 15.312 3.424 21.048l-.003 1.605c.01-5.735 2.702-16.628 17.655-16.603l6.848.012c11.425.02 16.929 7.448 16.912 16.663z" opacity="1" fill="url(#linearGradient4540)" fill-opacity="1" stroke="none" stroke-width="1.073" stroke-linecap="square" stroke-linejoin="bevel" stroke-miterlimit="4" stroke-dasharray="none" stroke-dashoffset="0" stroke-opacity=".078"/><path d="M28.379 45.294c11.01.019 16.43-7.39 16.446-16.605l.007-4.132-41.414-.07-.007 4.131c-.01 5.809 2.832 16.638 16.575 16.661z" id="path4518" opacity="1" fill="url(#linearGradient1542)" fill-opacity="1" stroke="#000" stroke-width=".326" stroke-linecap="square" stroke-linejoin="bevel" stroke-miterlimit="4" stroke-dasharray="none" stroke-dashoffset="0" stroke-opacity=".078"/><path d="M19.843 3.783c-11.01-.005-16.42 7.41-16.423 16.625l-.002 4.132 41.414.017.002-4.131c.003-5.81-2.855-16.634-16.598-16.64z" id="path4518-7" opacity="1" fill="url(#linearGradient1534)" fill-opacity="1" stroke="#000" stroke-width=".326" stroke-linecap="square" stroke-linejoin="bevel" stroke-miterlimit="4" stroke-dasharray="none" stroke-dashoffset="0" stroke-opacity=".078"/><path id="path4518-0" d="M20.136 5.362h7.792c12.756 0 15.413 10.353 15.413 15.91v6.557c0 5.486-2.48 15.909-16.36 15.909h-6.356C10.02 43.738 4.9 36.642 4.9 27.828v-6.557c0-8.813 5.017-15.91 15.237-15.91z" opacity="1" fill="#ececec" fill-opacity="1" stroke="#000" stroke-width=".307" stroke-linecap="square" stroke-linejoin="bevel" stroke-miterlimit="4" stroke-dasharray="none" stroke-dashoffset="0" stroke-opacity=".078"/><g id="layer1-43" transform="matrix(1.4363 0 0 1.38989 -592.224 -714.96)" fill="url(#linearGradient4260)" fill-opacity="1" stroke="none"><g id="g4358" transform="translate(-2.433 1.149)" fill="url(#linearGradient740)"><path id="Music-0" d="M428.924 524.462c-.56.157-1.011.782-1.011 1.389v9.625a2.755 2.755 0 0 0-2.054-.231c-1.364.37-2.219 1.57-1.927 2.679.293 1.108 1.637 1.727 3.002 1.356 1.088-.296 1.838-1.134 1.958-2.018l.032-9.096 7.076-1.984v7.177a2.756 2.756 0 0 0-2.053-.231c-1.365.37-2.22 1.57-1.927 2.679.292 1.108 1.636 1.727 3 1.356 1.09-.296 1.84-1.134 1.96-2.018l.031-11.841c0-.455-.268-.796-.632-.86l-7.455 2.018z" opacity=".9" fill="url(#linearGradient4356)" fill-opacity="1"/></g></g></svg>