<svg xmlns:osb="http://www.openswatchbook.org/uri/2009/osb" xmlns="http://www.w3.org/2000/svg" xmlns:xlink="http://www.w3.org/1999/xlink" width="48" height="48" version="1.1" id="svg38"><defs id="defs22"><linearGradient id="linearGradient4488"><stop id="stop4490" offset="0" stop-color="#000" stop-opacity=".047"/><stop id="stop4492" offset="1" stop-color="#000" stop-opacity="0"/></linearGradient><style id="style4511"/><style id="style4511-26"/><style id="style4511-9"/><linearGradient gradientTransform="rotate(45 820.042 -190.615)" x2="378.58" gradientUnits="userSpaceOnUse" y2="523.86" x1="430.51" y1="522.99" id="b-3-7"><stop id="stop7-67" stop-color="#fcfcfc"/><stop id="stop9-53" stop-color="#e9eaeb" offset="1"/></linearGradient><style id="style4552"/><style id="style4511-2"/><linearGradient xlink:href="#linearGradient4488" id="linearGradient4540" gradientUnits="userSpaceOnUse" gradientTransform="translate(-62.889 1.994) scale(.3038)" x1="288.112" y1="141.785" x2="287.575" y2="79.008"/><linearGradient osb:paint="solid" id="linearGradient5293"><stop id="stop5295" offset="0" stop-color="#9a89c0" stop-opacity="1"/></linearGradient><linearGradient xlink:href="#b-3-7" id="linearGradient1992" x1="2.897" y1="23.778" x2="44.92" y2="23.778" gradientUnits="userSpaceOnUse"/></defs><style id="style4485" type="text/css"/><path id="path4516" d="M2.75 26.22v1.67c0 9.573 5.583 17.281 17.146 17.281h6.93c15.132 0 17.836-11.322 17.836-17.282v-1.668c0 5.96-2.704 17.282-17.836 17.282h-6.93C8.333 43.503 2.75 35.795 2.75 26.22z" opacity="1" fill="url(#linearGradient4540)" fill-opacity="1" stroke="none" stroke-width="1.1" stroke-linecap="square" stroke-linejoin="bevel" stroke-miterlimit="4" stroke-dasharray="none" stroke-dashoffset="0" stroke-opacity=".078"/><path id="path4518" d="M3.065 28.165v-8.58c0-14.045 11.247-16.97 17.282-16.97h7.123c5.96 0 17.282 2.73 17.282 18.013v6.999c0 11.677-7.707 17.316-17.282 17.316h-7.123c-9.574 0-17.282-5.525-17.282-16.778z" opacity="1" fill="url(#linearGradient1992)" fill-opacity="1" stroke="#000" stroke-width=".336" stroke-linecap="square" stroke-linejoin="bevel" stroke-miterlimit="4" stroke-dasharray="none" stroke-dashoffset="0" stroke-opacity=".078"/><g id="g1857" transform="matrix(1.05287 0 0 1.02885 -1.786 .726)" fill="#007db1" fill-opacity="1" fill-rule="nonzero" stroke="none" stroke-width="1.083"><path d="M36.453 29.606c-1.418-.034-2.513.11-3.432.503-.266.111-.69.111-.728.453.144.144.16.377.284.576.211.36.584.846.923 1.1.368.288.741.576 1.13.826.69.435 1.468.686 2.142 1.117.389.253.779.58 1.167.846.195.144.318.381.567.47v-.055c-.122-.16-.16-.394-.284-.576-.177-.182-.355-.342-.528-.52a8.65 8.65 0 0 0-1.837-1.82c-.566-.397-1.807-.939-2.035-1.603 0 0-.022-.017-.038-.038.389-.025.85-.178 1.223-.288.601-.16 1.155-.127 1.769-.288.288-.072.567-.16.846-.25v-.164c-.317-.322-.546-.749-.884-1.058-.901-.791-1.887-1.566-2.912-2.214-.55-.36-1.257-.597-1.84-.901-.212-.114-.567-.165-.69-.342-.318-.398-.496-.92-.724-1.384a43.676 43.676 0 0 1-1.452-3.136c-.317-.699-.517-1.405-.901-2.053-1.829-3.06-3.81-4.918-6.847-6.738-.652-.381-1.43-.541-2.264-.74-.44-.018-.884-.056-1.329-.072-.284-.123-.563-.47-.813-.63-1.011-.649-3.61-2.054-4.354-.2-.478 1.172.71 2.327 1.116 2.92.296.415.69.88.902 1.35.118.3.157.63.284.956.283.788.546 1.672.918 2.413.2.381.406.774.656 1.117.14.199.384.288.44.613-.25.36-.263.893-.407 1.345-.639 2.04-.389 4.558.513 6.056.283.445.956 1.435 1.858 1.059.795-.326.617-1.35.85-2.251.05-.216.017-.36.122-.504v.033c.246.504.495.99.724 1.499.55.88 1.507 1.798 2.302 2.412.424.33.753.884 1.287 1.08v-.056h-.038c-.106-.157-.253-.233-.406-.36a9.697 9.697 0 0 1-.919-1.079c-.745-1.007-1.396-2.124-1.98-3.282a23.496 23.496 0 0 1-.762-1.727c-.106-.216-.106-.542-.283-.648-.263.393-.653.737-.847 1.223-.339.775-.372 1.731-.495 2.722-.068.017-.038 0-.068.033-.566-.144-.761-.736-.973-1.243-.528-1.279-.613-3.33-.157-4.808.123-.377.652-1.566.44-1.926-.106-.342-.461-.541-.652-.812a7.279 7.279 0 0 1-.635-1.152c-.431-1.02-.64-2.128-1.096-3.14-.216-.47-.584-.956-.884-1.383-.34-.486-.71-.83-.973-1.41-.089-.198-.211-.516-.072-.736.034-.144.107-.2.25-.237.228-.2.884.055 1.112.16.652.271 1.202.52 1.752.902.246.177.512.52.83.613h.372c.567.127 1.202.038 1.736.2.935.308 1.785.756 2.543 1.243 2.32 1.494 4.228 3.618 5.519 6.162.215.415.3.79.495 1.227.373.881.834 1.783 1.206 2.645.368.846.723 1.71 1.252 2.416.266.377 1.33.566 1.807.774.35.157.901.305 1.219.504.6.377 1.201.813 1.769 1.228.284.215 1.168.664 1.218 1.023m.005 0" id="path1773"/><path d="M18.408 13.952c-.3 0-.512.038-.723.093v.034h.033c.144.288.39.486.567.741.144.288.266.575.406.863.017-.017.038-.033.038-.033.246-.182.368-.47.368-.901-.106-.127-.122-.254-.21-.382-.107-.178-.336-.27-.479-.415m0 0" id="path1775"/></g></svg>