<svg xmlns="http://www.w3.org/2000/svg" xmlns:xlink="http://www.w3.org/1999/xlink" width="48" height="48" version="1.1" id="svg38"><defs id="defs22"><style id="style4511"/><style id="style4511-26"/><style id="style4511-9"/><style id="style4552"/><linearGradient id="d-0" y1="22.346" x1="29.855" y2="28.506" x2="54.32" gradientUnits="userSpaceOnUse"><stop stop-color="#ffc169" id="stop17-62"/><stop offset="1" stop-color="#ffa92d" id="stop19-6"/></linearGradient><style id="style4511-2"/><radialGradient xlink:href="#d-0" id="radialGradient1211" cx="61.378" cy="24.578" fx="61.378" fy="24.578" r="11.613" gradientTransform="matrix(1 0 0 .89892 13.081 4.96)" gradientUnits="userSpaceOnUse"/></defs><style id="style4485" type="text/css"/><path d="M19.74 3.213h8.587c14.059 0 16.987 11.181 16.987 17.18v7.082c0 5.925-2.733 17.181-18.03 17.181h-7.006c-11.689 0-17.333-7.662-17.333-17.18v-7.082c0-9.518 5.53-17.181 16.794-17.181z" id="rect4144" opacity="1" fill="#258fcb" fill-opacity="1" stroke="#000" stroke-width=".335" stroke-linecap="square" stroke-linejoin="bevel" stroke-miterlimit="4" stroke-dasharray="none" stroke-dashoffset="0" stroke-opacity=".078"/><g id="g1219" transform="matrix(.9189 0 0 .9428 -45.638 -1.214)" stroke-width=".588"><path id="path1200" d="M82.776 19.53c1.09-.706 2.133-1.617 3.372-1.91.719-.146 1.386-.173 1.876.222.3.406.778.836.931 1.44.131.518.017 1.25-.569 1.242-.44-.132-1.386-.431-1.944-.326-1.47.278-1.855 1.207-1.855 1.207z" fill="#77451f"/><path id="path1202" d="M87.172 17.528c-.318-.025-.665.019-1.024.092-1.239.292-2.283 1.204-3.372 1.91l.322.334c.976-.666 1.934-1.426 3.05-1.69.719-.146 1.386-.172 1.876.223.3.406.778.836.931 1.44.01.043.01.09.016.134a1.568 1.568 0 0 0-.016-.688c-.153-.605-.632-1.034-.931-1.441a1.5 1.5 0 0 0-.852-.314z" opacity=".1" fill="#fff"/><path id="path1204" d="M80.795 35.332c-5.21 3.13-13.75 2.837-16.928-.736-2.73-3.069.301-11.734 5.713-15.655 5.412-3.92 10.631-2.565 14.325 1.653 3.695 4.219 2.673 11.265-3.11 14.738z" fill="url(#radialGradient1211)" fill-opacity="1"/><path id="path1206" d="M76.462 16.623c-2.183-.102-4.514.603-6.882 2.319-4.134 2.995-6.87 8.752-6.718 12.674.108-3.894 2.775-9.262 6.718-12.12 5.412-3.92 10.63-2.566 14.325 1.653 1.354 1.546 2.07 3.473 2.154 5.464.036-2.185-.675-4.33-2.154-6.019-2.078-2.373-4.637-3.84-7.443-3.97z" opacity=".2" fill="#fff"/><path id="path1210" d="M75 15.857a11.187 11.187 0 0 0-2.888.356c-1.382.487-2.517.936-1.225 1.543a24.074 24.074 0 0 1 6.757 4.664c3.179 3.135 5.152 6.893 6.057 10.599.256 1.281 1.5.147 2.01-.323 2.793-2.584 2.653-8.924-1.615-13.133-2.505-2.47-5.937-3.695-9.095-3.706z" fill="#a9622c"/><path id="path1212" d="M75 15.857a11.185 11.185 0 0 0-2.887.355c-1.188.419-2.19.81-1.629 1.297.287-.254.924-.494 1.629-.742.91-.24 1.885-.359 2.888-.355 3.158.01 6.59 1.235 9.095 3.705 2.319 2.287 3.41 5.2 3.484 7.802.078-2.734-.999-5.905-3.484-8.356-2.505-2.47-5.937-3.695-9.095-3.706z" opacity=".1" fill="#fff"/></g></svg>