<svg xmlns="http://www.w3.org/2000/svg" xmlns:xlink="http://www.w3.org/1999/xlink" width="48" height="48" version="1.1" id="svg38"><defs id="defs22"><linearGradient id="linearGradient4488"><stop id="stop4490" offset="0" stop-color="#000" stop-opacity=".047"/><stop id="stop4492" offset="1" stop-color="#000" stop-opacity="0"/></linearGradient><style id="style4511"/><linearGradient gradientUnits="userSpaceOnUse" x2="13" y2="4" x1="43" y1="40" id="a"><stop id="stop2-36753" stop-color="#f27935"/><stop id="stop4-562" stop-color="#f2784b" offset="1"/></linearGradient><style id="style4511-26"/><style id="style4511-9"/><style id="style4552"/><style id="style4511-2"/><linearGradient gradientTransform="translate(-63.205 2.216) scale(.3038)" xlink:href="#linearGradient4488" id="linearGradient4160" x1="288.112" y1="141.785" x2="287.575" y2="79.008" gradientUnits="userSpaceOnUse"/><style id="style4511-8"/><style id="style4511-26-4"/><style id="style4511-9-8"/><style id="style4552-5"/><style id="style4511-2-5"/><style id="style4511-87"/><style id="style4511-26-7"/><style id="style4511-9-1"/><style id="style4552-53"/><style id="style4511-2-9"/><clipPath id="b-3675"><use id="use948" overflow="visible" xlink:href="#a"/></clipPath><linearGradient id="linearGradient-1" y2="36.339" x2="25.333" y1="13.057" x1="48.606" gradientTransform="scale(.75 1.33333)" gradientUnits="userSpaceOnUse"><stop id="stop629" offset="0%" stop-color="#B81F1F"/><stop id="stop631" offset="100%" stop-color="#CB3B1F"/></linearGradient><linearGradient id="linearGradient-2" y2="19.918" x2="25.333" y1="19.918" x1="4.639" gradientTransform="scale(.75 1.33333)" gradientUnits="userSpaceOnUse"><stop id="stop634" offset="0%" stop-color="#FF512F"/><stop id="stop636" offset="100%" stop-color="#CC3430"/></linearGradient><linearGradient id="linearGradient-3" y2="31.712" x2="7.135" y1="9.741" x1="18.218" gradientTransform="scale(1.28468 .7784)" gradientUnits="userSpaceOnUse"><stop id="stop639" offset="0%" stop-color="#CC0400"/><stop id="stop641" offset="100%" stop-color="#FE512F"/></linearGradient><linearGradient id="linearGradient-4" y2="32.242" x2="29.872" y1="19.717" x1="40.988" gradientTransform="matrix(.80478 0 0 1.24258 -49.69 -9.09)" gradientUnits="userSpaceOnUse"><stop id="stop644" offset="0%" stop-color="#FFF"/><stop id="stop646" offset="100%" stop-color="#FFF"/></linearGradient></defs><style id="style4485" type="text/css"/><path d="M2.433 26.443v1.668c0 9.575 5.583 17.282 17.146 17.282h6.93c15.133 0 17.837-11.322 17.837-17.282v-1.668c0 5.96-2.704 17.282-17.837 17.282h-6.93c-11.563 0-17.146-7.708-17.146-17.282z" id="path4147" opacity="1" fill="url(#linearGradient4160)" fill-opacity="1" stroke="none" stroke-width="1.1" stroke-linecap="square" stroke-linejoin="bevel" stroke-miterlimit="4" stroke-dasharray="none" stroke-dashoffset="0" stroke-opacity=".078"/><path d="M19.046 2.965h8.495c13.908 0 16.805 11.246 16.805 17.282v7.123c0 5.96-2.704 17.282-17.837 17.282h-6.93c-11.562 0-17.146-7.708-17.146-17.282v-7.123c0-9.575 5.47-17.282 16.613-17.282z" id="rect4144" opacity="1" fill="#e6e6e6" fill-opacity="1" stroke="#000" stroke-width=".334" stroke-linecap="square" stroke-linejoin="bevel" stroke-miterlimit="4" stroke-dasharray="none" stroke-dashoffset="0" stroke-opacity=".078"/><style type="text/css" id="style4485-4"/><style type="text/css" id="style4485-6"/><path clip-path="url(#b-3675)" d="M0 37V11l17 13z" id="path951-3" transform="matrix(.18317 0 0 .17624 -48.69 1.388)" fill="#fbbc05"/><path clip-path="url(#b-3675)" d="M0 11l17 13 7-6.1L48 14V0H0z" id="path953" transform="matrix(.18317 0 0 .17624 -48.69 1.388)" fill="#ea4335"/><path clip-path="url(#b-3675)" d="M0 37l30-23 7.9 1L48 0v48H0z" id="path955" transform="matrix(.18317 0 0 .17624 -48.69 1.388)" fill="#34a853"/><path clip-path="url(#b-3675)" d="M48 48L17 24l-4-3 35-10z" id="path957" transform="matrix(.18317 0 0 .17624 -48.69 1.388)" fill="#4285f4"/><g id="g711" transform="matrix(.8542 0 0 .80233 49.4 9.264)" fill-rule="evenodd" stroke="none" stroke-width="1"><path transform="translate(-49.69 -9.09)" id="Rectangle" fill="url(#linearGradient-1)" d="M37 17v21L19 49V27.382z"/><path transform="matrix(1 0 0 -1 -49.69 56.91)" id="Rectangle-Copy" fill="url(#linearGradient-2)" d="M19 17v21.618L1 49V28z"/><path transform="rotate(31 10.585 -77.2)" id="Rectangle-2" fill="url(#linearGradient-3)" d="M34.473 7.738l-10.09 18.173-20.775.373 9.767-18.702z"/><path id="n" d="M-25.65 30.973l3.431-1.908v-7.372c.679-1.018 1.144-1.625 1.92-2.057.871-.485 1.279-.265 1.279 1.249v6.402l3.45-1.919V18.54c0-2.755-1.027-3.91-3.431-2.574-1.493.83-2.617 2.212-3.528 3.611l-.078.043-.232-1.248-2.811 1.563z" fill="url(#linearGradient-4)"/></g></svg>