<svg xmlns="http://www.w3.org/2000/svg" height="48" width="48"><linearGradient id="e" gradientUnits="userSpaceOnUse" x1="49.166" x2="49.166" y1="82.516" y2="70.523"><stop offset="0" stop-opacity=".698"/><stop offset="1" stop-color="#f20000" stop-opacity="0"/></linearGradient><linearGradient id="f" gradientUnits="userSpaceOnUse" x1="47.425" x2="47.425" y1="66.305" y2="76.071"><stop offset="0" stop-color="#fff" stop-opacity=".698"/><stop offset="1" stop-color="#f20000" stop-opacity="0"/></linearGradient><filter id="d" color-interpolation-filters="sRGB" height="1.281" width="1.076" x="-.038" y="-.14"><feGaussianBlur stdDeviation=".95"/></filter><linearGradient id="b" gradientTransform="matrix(0 -.43628 .43883 0 2.64 45.705)" gradientUnits="userSpaceOnUse" x1="6" x2="90" y1="90" y2="6"><stop offset="0"/><stop offset=".5" stop-color="#fff"/><stop offset="1"/></linearGradient><radialGradient id="a" cx="48" cy="48" gradientTransform="matrix(0 -.43628 .43883 0 2.64 45.705)" gradientUnits="userSpaceOnUse" r="42.25" spreadMethod="pad"><stop offset="0" stop-color="#2f3943"/><stop offset="1" stop-color="#808c9b"/></radialGradient><linearGradient id="c" gradientTransform="matrix(0 -.97713 1.0146 0 -.123 48.23)" gradientUnits="userSpaceOnUse" x1="6.323" x2="41.898" y1="23.495" y2="23.495"><stop offset="0" stop-color="#ff6c6c"/><stop offset="1" stop-color="#c00"/></linearGradient><path d="M44.965 19.574v8.557c0 14.009-11.384 16.926-17.492 16.926h-7.21c-6.032 0-17.493-2.723-17.493-17.965v-6.98C2.77 8.464 10.572 2.84 20.263 2.84h7.21c9.69 0 17.492 5.51 17.492 16.733z" fill="#e6e6e6"/><path d="M5.273 24.764c0 10.12 8.252 18.324 18.43 18.324s18.432-8.204 18.432-18.324c0-10.12-8.252-18.324-18.431-18.324s-18.43 8.204-18.43 18.324zm13.165 0c0-2.892 2.358-5.236 5.266-5.236s5.266 2.344 5.266 5.236-2.358 5.235-5.266 5.235-5.266-2.344-5.266-5.235z" fill="url(#a)" fill-rule="evenodd" stroke="url(#b)" stroke-width=".219"/><path d="M23.716 42.05a17.663 17.38 0 1 1 0-34.76 17.663 17.38 0 1 1 0 34.76z" fill="url(#c)" fill-rule="evenodd"/><path d="M15.488 42.044c-3.222-.352-2.29.263-4.605-.611-.213-.807-3.245-1.338-1.657-8.777.006-.795.177-1.574.596-2.248.513-.825 1.373-1.46 2.235-2.068.686-.484 1.406-.986 1.683-1.697.17-.437.16-.925.105-1.408-.054-.483-.15-.97-.145-1.446.01-.985.46-1.906 1.263-2.575-.16.819.21 1.756.974 2.473.208.195.444.375.716.51.271.137.58.227.879.234.237.004.462-.044.655-.127.194-.083.356-.2.492-.333.271-.266.435-.593.619-.907.294-.503.65-.994.73-1.567.066-.462-.053-.952-.2-1.43-.148-.48-.326-.96-.382-1.44a2.63 2.63 0 0 1 .508-1.894c.071.623.526 1.264 1.2 1.693.273.174.583.314.908.385.325.07.666.067.94-.035a.914.914 0 0 0 .545-.509 1.021 1.021 0 0 0-.012-.721c-.119-.334-.372-.647-.652-.937-.28-.29-.592-.563-.856-.86-.624-.704-.965-1.545-.863-2.31.064-.473.293-.91.66-1.255.367-.346.87-.6 1.444-.729-.2.323-.282.7-.234 1.085.048.385.225.776.51 1.126.542.67 1.424 1.144 2.291 1.56.56.27 1.131.528 1.655.844.524.316 1.005.697 1.308 1.146.237.35.357.73.379 1.098a2.44 2.44 0 0 1-.187 1.06c-.352.874-1.1 1.574-1.656 2.361-.211.3-.397.617-.468.968-.072.35-.023.74.212 1.088.194.287.512.537.882.69.37.153.789.21 1.16.155.344-.051.64-.194.873-.38s.407-.411.556-.647a4.355 4.355 0 0 0 .677-2.342c.574.178 1.084.54 1.37.97.219.33.305.692.311 1.038.006.346-.066.68-.148 1.009-.18.724-.409 1.452-.284 2.222.07.43.25.862.53 1.264.143.207.316.408.543.569.227.16.515.278.798.29.152.007.3-.017.428-.064a1.02 1.02 0 0 0 .332-.197c.184-.163.289-.375.361-.593.186-.555.177-1.17-.024-1.773 1.029.237 1.996.788 2.628 1.498.41.46.678.976.913 1.488.236.512.446 1.03.76 1.526.592.93 1.542 1.763 1.955 2.73.243.57.284 1.156.22 1.714-.146 1.281-1.69 4.45-2.601 5.435-1.785 1.927-1.403 1.4-3.232 2.109-1.828.709-2.737-.515-4.907-.142-1.371.236-2.096.759-3.752.705-1.512.378-3.297.98-4.746.544-2.125.262-3.025.2-4.03-.66" fill="#e6e6e6"/><path d="M31.39 66.125c-1.22 0-2.244.238-3.093.688-.85.439-1.701 1.152-2.531 2.187v-2.531h-5.532V82.03h5.938v-7.469c0-1.416.238-2.39.687-2.937.45-.547 1.028-.812 1.75-.813.655 0 1.17.184 1.532.594.36.4.53 1.086.53 2.063v8.562h6v-4.28c.146.345.308.683.5 1 .782 1.26 1.757 2.195 2.938 2.781 1.182.576 2.815.844 4.875.844 2.373 0 4.2-.326 5.47-1 1.118-.602 2.075-1.985 2.905-3.375v4.031h6v-5.219c0-2.49.291-4.185.907-5.093.43-.645 1.062-.969 1.843-.969.099 0 .509.015.782.031-.483 1.05-.75 2.228-.75 3.531 0 2.55.949 4.616 2.843 6.188 1.543 1.27 3.563 1.875 6.063 1.875 2.803 0 5.012-.758 6.594-2.281 1.591-1.533 2.375-3.483 2.375-5.875 0-2.13-.627-3.92-1.907-5.375-1.591-1.807-3.947-2.719-7.062-2.719-2.171 0-3.98.52-5.438 1.5v-.688c-1.045-.546-1.996-.812-2.875-.812-.84 0-1.548.205-2.125.625-.566.41-1.119 1.178-1.656 2.281V66.47H53.36v4.406a7.126 7.126 0 0 0-.343-.813 6.827 6.827 0 0 0-2.938-2.937c-1.289-.674-3.055-1-5.281-1-2.744 0-4.906.746-6.469 2.25a7.417 7.417 0 0 0-1.719 2.594c-.153-1.452-.6-2.6-1.343-3.375-.928-.987-2.225-1.469-3.875-1.469zm13.657 3.531c.82 0 1.47.252 1.969.75.507.498.82 1.317.937 2.469h-5.875c.098-.928.326-1.625.688-2.094.566-.752 1.334-1.125 2.28-1.125zm26.094.563c.82 0 1.505.336 2.062 1 .557.654.844 1.652.844 3 0 1.445-.287 2.502-.844 3.156-.547.654-1.266 1-2.125 1-.85 0-1.558-.336-2.125-1-.557-.664-.812-1.707-.812-3.094 0-1.367.277-2.367.843-3.031.567-.674 1.287-1.031 2.157-1.031zM42.078 75.75H53.36v1.688l-5.53.03c-.372.47-.741.784-1.063.97a3.336 3.336 0 0 1-1.657.437c-.927 0-1.673-.326-2.25-1-.41-.469-.673-1.168-.78-2.125z" filter="url(#d)" transform="matrix(.43587 0 0 .51007 2.731 -1.735)"/><path d="M16.414 31.993c-.533 0-.979.122-1.349.351-.37.224-.741.588-1.103 1.116v-1.291H11.55v7.938h2.588v-3.81c0-.722.104-1.22.3-1.498.195-.28.447-.415.762-.415.285 0 .51.094.668.303.157.204.231.554.231 1.052v4.368h2.616v-2.184c.063.176.133.348.217.51.341.643.766 1.12 1.28 1.419.516.294 1.228.43 2.126.43 1.034 0 1.83-.166 2.383-.51.488-.307.905-1.013 1.267-1.722v2.057h2.615v-2.662c0-1.27.127-2.135.395-2.598.188-.33.463-.495.804-.495.043 0 .221.008.34.016a4.89 4.89 0 0 0-.326 1.802c0 1.3.413 2.354 1.239 3.156.673.647 1.553.956 2.642.956 1.222 0 2.185-.387 2.875-1.164.693-.782 1.035-1.776 1.035-2.996 0-1.086-.274-2-.831-2.742-.694-.921-1.72-1.387-3.079-1.387-.946 0-1.734.266-2.37.765v-.35c-.455-.28-.87-.415-1.253-.415-.366 0-.675.105-.926.32-.247.208-.488.6-.722 1.163v-1.307H25.99v2.247a3.994 3.994 0 0 0-.15-.414c-.293-.653-.718-1.155-1.28-1.499-.562-.343-1.332-.51-2.302-.51-1.196 0-2.139.38-2.82 1.148-.334.379-.58.83-.749 1.323-.067-.74-.261-1.326-.585-1.721-.405-.504-.97-.75-1.69-.75zm5.952 1.802c.357 0 .64.128.858.382.221.254.358.672.409 1.26h-2.561c.043-.474.142-.83.3-1.069.246-.383.581-.573.994-.573zm11.373.286c.358 0 .657.172.9.51.242.334.367.843.367 1.53 0 .738-.125 1.277-.368 1.61-.238.334-.551.51-.926.51-.37 0-.68-.17-.926-.51-.243-.338-.354-.87-.354-1.577 0-.698.12-1.208.368-1.547.246-.343.56-.526.94-.526zm-12.667 2.822h4.917v.86l-2.41.016c-.163.24-.323.4-.464.495-.23.149-.466.223-.722.223-.404 0-.73-.167-.98-.51-.18-.24-.294-.596-.341-1.084z" fill="#f20000"/><path d="M31.39 66.125c-1.22 0-2.244.238-3.093.688-.85.439-1.701 1.152-2.531 2.187v-2.531h-5.532V82.03h5.938v-7.469c0-1.416.238-2.39.687-2.937.45-.547 1.028-.812 1.75-.813.655 0 1.17.184 1.532.594.36.4.53 1.086.53 2.063v8.562h6v-4.28c.146.345.308.683.5 1 .782 1.26 1.757 2.195 2.938 2.781 1.182.576 2.815.844 4.875.844 2.373 0 4.2-.326 5.47-1 1.118-.602 2.075-1.985 2.905-3.375v4.031h6v-5.219c0-2.49.291-4.185.907-5.093.43-.645 1.062-.969 1.843-.969.099 0 .509.015.782.031-.483 1.05-.75 2.228-.75 3.531 0 2.55.949 4.616 2.843 6.188 1.543 1.27 3.563 1.875 6.063 1.875 2.803 0 5.012-.758 6.594-2.281 1.591-1.533 2.375-3.483 2.375-5.875 0-2.13-.627-3.92-1.907-5.375-1.591-1.807-3.947-2.719-7.062-2.719-2.171 0-3.98.52-5.438 1.5v-.688c-1.045-.546-1.996-.812-2.875-.812-.84 0-1.548.205-2.125.625-.566.41-1.119 1.178-1.656 2.281V66.47H53.36v4.406a7.126 7.126 0 0 0-.343-.813 6.827 6.827 0 0 0-2.938-2.937c-1.289-.674-3.055-1-5.281-1-2.744 0-4.906.746-6.469 2.25a7.417 7.417 0 0 0-1.719 2.594c-.153-1.452-.6-2.6-1.343-3.375-.928-.987-2.225-1.469-3.875-1.469zm13.657 3.531c.82 0 1.47.252 1.969.75.507.498.82 1.317.937 2.469h-5.875c.098-.928.326-1.625.688-2.094.566-.752 1.334-1.125 2.28-1.125zm26.094.563c.82 0 1.505.336 2.062 1 .557.654.844 1.652.844 3 0 1.445-.287 2.502-.844 3.156-.547.654-1.266 1-2.125 1-.85 0-1.558-.336-2.125-1-.557-.664-.812-1.707-.812-3.094 0-1.367.277-2.367.843-3.031.567-.674 1.287-1.031 2.157-1.031zM42.078 75.75H53.36v1.688l-5.53.03c-.372.47-.741.784-1.063.97a3.336 3.336 0 0 1-1.657.437c-.927 0-1.673-.326-2.25-1-.41-.469-.673-1.168-.78-2.125z" fill="url(#e)" transform="matrix(.43587 0 0 .51007 2.731 -1.735)"/><path d="M31.39 66.125c-1.22 0-2.244.238-3.093.688-.85.439-1.701 1.152-2.531 2.187v-2.531h-5.532V82.03h5.938v-7.469c0-1.416.238-2.39.687-2.937.45-.547 1.028-.812 1.75-.813.655 0 1.17.184 1.532.594.36.4.53 1.086.53 2.063v8.562h6v-4.28c.146.345.308.683.5 1 .782 1.26 1.757 2.195 2.938 2.781 1.182.576 2.815.844 4.875.844 2.373 0 4.2-.326 5.47-1 1.118-.602 2.075-1.985 2.905-3.375v4.031h6v-5.219c0-2.49.291-4.185.907-5.093.43-.645 1.062-.969 1.843-.969.099 0 .509.015.782.031-.483 1.05-.75 2.228-.75 3.531 0 2.55.949 4.616 2.843 6.188 1.543 1.27 3.563 1.875 6.063 1.875 2.803 0 5.012-.758 6.594-2.281 1.591-1.533 2.375-3.483 2.375-5.875 0-2.13-.627-3.92-1.907-5.375-1.591-1.807-3.947-2.719-7.062-2.719-2.171 0-3.98.52-5.438 1.5v-.688c-1.045-.546-1.996-.812-2.875-.812-.84 0-1.548.205-2.125.625-.566.41-1.119 1.178-1.656 2.281V66.47H53.36v4.406a7.126 7.126 0 0 0-.343-.813 6.827 6.827 0 0 0-2.938-2.937c-1.289-.674-3.055-1-5.281-1-2.744 0-4.906.746-6.469 2.25a7.417 7.417 0 0 0-1.719 2.594c-.153-1.452-.6-2.6-1.343-3.375-.928-.987-2.225-1.469-3.875-1.469zm13.657 3.531c.82 0 1.47.252 1.969.75.507.498.82 1.317.937 2.469h-5.875c.098-.928.326-1.625.688-2.094.566-.752 1.334-1.125 2.28-1.125zm26.094.563c.82 0 1.505.336 2.062 1 .557.654.844 1.652.844 3 0 1.445-.287 2.502-.844 3.156-.547.654-1.266 1-2.125 1-.85 0-1.558-.336-2.125-1-.557-.664-.812-1.707-.812-3.094 0-1.367.277-2.367.843-3.031.567-.674 1.287-1.031 2.157-1.031zM42.078 75.75H53.36v1.688l-5.53.03c-.372.47-.741.784-1.063.97a3.336 3.336 0 0 1-1.657.437c-.927 0-1.673-.326-2.25-1-.41-.469-.673-1.168-.78-2.125z" fill="url(#f)" transform="matrix(.43587 0 0 .51007 2.731 -1.735)"/></svg>