<svg xmlns:osb="http://www.openswatchbook.org/uri/2009/osb" xmlns="http://www.w3.org/2000/svg" xmlns:xlink="http://www.w3.org/1999/xlink" width="48" height="48" version="1.1" id="svg38"><defs id="defs22"><style id="style4511"/><style id="style4511-26"/><style id="style4511-9"/><style id="style4552"/><style id="style4511-2"/><linearGradient osb:paint="solid" id="linearGradient5293"><stop id="stop5295" offset="0" stop-color="#9a89c0" stop-opacity="1"/></linearGradient><linearGradient gradientTransform="rotate(-90 -4.976 52.17)" gradientUnits="userSpaceOnUse" x2="47" x1="1" id="linearGradient3764-367"><stop id="stop385" stop-opacity="1" stop-color="#d6740a"/><stop id="stop387" stop-opacity="1" stop-color="#e87e0b" offset="1"/></linearGradient><clipPath id="clipPath-339667696"/><linearGradient xlink:href="#linearGradient3764-367" id="linearGradient1307" x1="2.583" y1="23.586" x2="44.83" y2="23.586" gradientUnits="userSpaceOnUse"/></defs><style id="style4485" type="text/css"/><path stroke-miterlimit="4" id="path4518" d="M19.363 2.742h8.495c13.908 0 16.804 11.247 16.804 17.282v7.124c0 5.96-2.704 17.282-17.836 17.282h-6.93C8.333 44.43 2.75 36.722 2.75 27.148v-7.124c0-9.574 5.47-17.282 16.613-17.282z" opacity="1" fill="url(#linearGradient1307)" fill-opacity="1" stroke="#000" stroke-width=".334" stroke-linecap="square" stroke-linejoin="bevel" stroke-dasharray="none" stroke-dashoffset="0" stroke-opacity=".078"/><path id="path428" d="M20.417 28.07c-1.06-.083-1.915-.436-2.613-1.064a3.88 4.207 0 0 1-.847-1.126c-.049-.092-.109-.18-.117-.193v2.194h-2.977l-.008-2.533c-.009-2.626-.009-2.753-.077-3.07-.122-.577-.56-.796-1.022-.796-.536-.018-.94.237-1.18.822-.102.311-.094.136-.102 2.977l-.005 2.604H8.48c-.044-2.392.045-4.784-.036-7.168a4.324 4.688 0 0 0-.243-1.16l-.077-.256 2.908.014.073.175c.045.106.085.242.102.33a.532.576 0 0 0 .04.159c.009 0 .106-.079.224-.163a3.097 3.097 0 0 1 1.484-.651c.309-.053 1.083-.049 1.407.009.715.132 1.298.422 1.745.875.325.334.56.848.665 1.45l.037.216.076-.167c.147-.33.325-.611.564-.897.715-.867 1.7-1.372 2.969-1.53a9.212 9.988 0 0 1 1.375.004c.644.088 1.18.264 1.663.559.381.233.666.48.966.835.28.335.523.752.685 1.149l.057.136v-.4c0-.844-.036-1.31-.146-1.799l-.069-.312 2.94.026.037.145c.061.22.106.506.117.748l.013.224.106-.167c.349-.554.778-.897 1.318-1.056.26-.078.496-.101.852-.092.3.004.495.04.84.136l.09.023v1.02c.003 0 .08-.049.146-.102 1.115-.936 2.713-1.319 4.226-1.015.835.167 1.622.545 2.218 1.068 1.035.907 1.545 2.274 1.416 3.804a3.776 4.094 0 0 1-1.2 2.674c-.917.915-2.228 1.403-3.659 1.359-.932-.03-1.723-.256-2.453-.704a4.106 4.451 0 0 1-1.48-1.53c-.67-1.174-.759-2.752-.228-4.067.04-.106.077-.194.077-.198a1.62 1.756 0 0 0-.921-.04 1.245 1.245 0 0 0-.467.282c-.389.343-.62.844-.714 1.574-.053.382-.061.752-.061 2.611v1.87h-2.985v-2.09l-.09.172a3.171 3.438 0 0 1-.487.722c-.71.826-1.715 1.28-3.062 1.384a9.08 9.08 0 0 1-1.107 0m2.194-2.88l2.552.052v-.971h-5.78l.013.127c.008.071.028.207.048.304.143.65.568 1.056 1.245 1.183.763.084 1.4.04 1.923-.694m12.765.5c.49-.355.79-1.028.847-1.9.04-.634-.094-1.301-.366-1.763a1.901 2.061 0 0 0-.385-.466c-.398-.32-.885-.36-1.347-.246-.714.255-1.147 1.038-1.184 2.124-.024.796.162 1.478.54 1.935.238.286.45.427.783.51.376.071.766.018 1.11-.193m-13.002-3.311c.023-.03-.069-.409-.143-.577a1.205 1.205 0 0 0-.458-.48c-.543-.307-1.363-.246-1.82.132a1.564 1.695 0 0 0-.512.867l-.02.084 1.468-.01a68.4 74.16 0 0 0 1.485-.017m0 0" fill="#f9f9f9" fill-opacity="1" fill-rule="nonzero" stroke="none" stroke-width="1.081"/></svg>