<svg xmlns="http://www.w3.org/2000/svg" xmlns:xlink="http://www.w3.org/1999/xlink" width="48" height="48" version="1.1" id="svg38"><defs id="defs22"><linearGradient id="linearGradient4488"><stop id="stop4490" offset="0" stop-color="#000" stop-opacity=".047"/><stop id="stop4492" offset="1" stop-color="#000" stop-opacity="0"/></linearGradient><style id="style4511"/><linearGradient gradientUnits="userSpaceOnUse" x2="13" y2="4" x1="43" y1="40" id="a"><stop id="stop2-36753" stop-color="#f27935"/><stop id="stop4-562" stop-color="#f2784b" offset="1"/></linearGradient><style id="style4511-26"/><style id="style4511-9"/><style id="style4552"/><style id="style4511-2"/><linearGradient gradientTransform="translate(-63.205 2.216) scale(.3038)" xlink:href="#linearGradient4488" id="linearGradient4160" x1="288.112" y1="141.785" x2="287.575" y2="79.008" gradientUnits="userSpaceOnUse"/><style id="style4511-8"/><style id="style4511-26-4"/><style id="style4511-9-8"/><style id="style4552-5"/><style id="style4511-2-5"/><style id="style4511-87"/><style id="style4511-26-7"/><style id="style4511-9-1"/><style id="style4552-53"/><style id="style4511-2-9"/><linearGradient id="linearGradient3764-3-2" x1="1" x2="47" gradientUnits="userSpaceOnUse" gradientTransform="rotate(-90 24 24)"><stop id="stop7-675-1" stop-color="#e4e4e4" stop-opacity="1"/><stop offset="1" id="stop9-35-0" stop-color="#eee" stop-opacity="1"/></linearGradient><clipPath id="b-3675"><use id="use948" overflow="visible" xlink:href="#a"/></clipPath><linearGradient xlink:href="#linearGradient3764-3-2" id="linearGradient1524" x1="2.266" y1="23.808" x2="44.513" y2="23.808" gradientUnits="userSpaceOnUse"/></defs><style id="style4485" type="text/css"/><path d="M2.433 26.443v1.668c0 9.575 5.583 17.282 17.146 17.282h6.93c15.133 0 17.837-11.322 17.837-17.282v-1.668c0 5.96-2.704 17.282-17.837 17.282h-6.93c-11.563 0-17.146-7.708-17.146-17.282z" id="path4147" opacity="1" fill="url(#linearGradient4160)" fill-opacity="1" stroke="none" stroke-width="1.1" stroke-linecap="square" stroke-linejoin="bevel" stroke-miterlimit="4" stroke-dasharray="none" stroke-dashoffset="0" stroke-opacity=".078"/><path d="M19.046 2.965h8.495c13.908 0 16.805 11.246 16.805 17.282v7.123c0 5.96-2.704 17.282-17.837 17.282h-6.93c-11.562 0-17.146-7.708-17.146-17.282v-7.123c0-9.575 5.47-17.282 16.613-17.282z" id="rect4144" opacity="1" fill="url(#linearGradient1524)" fill-opacity="1" stroke="#000" stroke-width=".334" stroke-linecap="square" stroke-linejoin="bevel" stroke-miterlimit="4" stroke-dasharray="none" stroke-dashoffset="0" stroke-opacity=".078"/><style type="text/css" id="style4485-4"/><style type="text/css" id="style4485-6"/><path clip-path="url(#b-3675)" d="M0 37V11l17 13z" id="path951-3" transform="matrix(.18317 0 0 .17624 -48.69 1.388)" fill="#fbbc05"/><path clip-path="url(#b-3675)" d="M0 11l17 13 7-6.1L48 14V0H0z" id="path953" transform="matrix(.18317 0 0 .17624 -48.69 1.388)" fill="#ea4335"/><path clip-path="url(#b-3675)" d="M0 37l30-23 7.9 1L48 0v48H0z" id="path955" transform="matrix(.18317 0 0 .17624 -48.69 1.388)" fill="#34a853"/><path clip-path="url(#b-3675)" d="M48 48L17 24l-4-3 35-10z" id="path957" transform="matrix(.18317 0 0 .17624 -48.69 1.388)" fill="#4285f4"/><g id="g1459" transform="matrix(.8079 0 0 .76563 55.504 13.09)"><path id="path1416" d="M-39.642-5.999a4.566 4.548 0 0 0-2.391.607l-13.434 7.726a4.566 4.548 0 0 0-2.283 3.94v15.452a4.566 4.548 0 0 0 2.283 3.939l13.434 7.726a4.566 4.548 0 0 0 4.565 0l13.434-7.726a4.566 4.548 0 0 0 2.283-3.94V6.274a4.566 4.548 0 0 0-2.283-3.94l-13.434-7.725A4.566 4.548 0 0 0-39.643-6z" fill="#4589dd"/><path id="path1422" d="M-57.29 4.285a4.566 4.548 0 0 0-.46 1.988v15.453a4.566 4.548 0 0 0 2.283 3.938l13.434 7.726a4.566 4.548 0 0 0 2.283.608V14.035z" fill="#2e69b5"/><path id="path1424" d="M-22.2 4.322l-17.552 9.756.002 19.92a4.566 4.548 0 0 0 2.281-.608l13.436-7.726a4.566 4.548 0 0 0 2.283-3.938V6.273a4.566 4.548 0 0 0-.45-1.95z" fill="#5398ed"/><path id="path1426" d="M-57.29 4.285a4.566 4.548 0 0 0-.46 1.988v1a4.566 4.548 0 0 1 .46-1.988l17.54 9.75v-1z" opacity=".1"/><path id="path1428" d="M-22.2 4.322l-17.552 9.756v1l17.553-9.756a4.566 4.548 0 0 1 .449 1.951v-1a4.566 4.548 0 0 0-.45-1.95z" opacity=".1" fill="#fff"/></g></svg>