<svg xmlns="http://www.w3.org/2000/svg" style="isolation:isolate" width="48" height="48"><defs><linearGradient gradientUnits="userSpaceOnUse" gradientTransform="scale(1.4872 .6724)" y2="67.355" x2="16.355" y1="38.993" x1="16.245" id="a"><stop stop-opacity="0" offset="0%"/><stop stop-opacity=".047" offset="100%"/></linearGradient><radialGradient gradientUnits="userSpaceOnUse" gradientTransform="scale(1.00943 .99066)" r="21.575" cy="24.396" cx="23.817" fy="24.396" fx="23.817" id="b"><stop stop-color="#4d4d4d" offset="0%"/><stop stop-color="#373737" offset="100%"/></radialGradient></defs><path d="M2.433 26.443v1.668c0 9.575 5.583 17.282 17.146 17.282h6.93c15.133 0 17.837-11.322 17.837-17.282v-1.668c0 5.959-2.704 17.282-17.837 17.282h-6.93c-11.563 0-17.146-7.708-17.146-17.282z" fill="url(#a)"/><path d="M19.564 2.966h8.758c14.34 0 17.327 11.44 17.327 17.579v7.246c0 6.061-2.789 17.579-18.391 17.579h-7.145c-11.922 0-17.678-7.841-17.678-17.579v-7.246c0-9.739 5.64-17.579 17.129-17.579z" vector-effect="non-scaling-stroke" fill="url(#b)" stroke="#000" stroke-width=".342" stroke-linecap="square" stroke-linejoin="bevel" stroke-opacity=".078"/><path d="M25.684 38.6v-.898l-.001.862z" fill="none"/><path d="M11.216 29.289c2.197.712 4.453.926 6.756.878 5.036-.105 9.375-1.93 13.034-5.339 2.696-2.512 4.345-5.657 5.063-9.279.087-.436.263-.613.706-.6.714.021 2.144-.008 2.144-.008l.813.001-.606-.496s-2.362-2.07-3.535-3.113c-1.113-.989-2.287-1.909-3.335-2.971-2.324 2.021-4.769 4.041-7.089 6.068l-.601.521s.651-.011.822-.009c.854.01 1.708.007 2.562.015.734.008.787.063.604.748a28.09 28.09 0 0 1-.629 2.116c-2.295 6.486-8.835 11.561-16.527 10.636-.323-.038-.823-.206-.908.274-.074.422.424.46.726.558z" fill="#ec2025"/><path d="M37.024 38.966c.01-.079.027-.158.027-.237v-.102c-.001-7.409-.043-14.785-.048-22.194 0-.12-.024-.362-.158-.392-.11.339-.144.488-.229.792-.605 2.322-1.658 4.428-3.076 6.351-.265.359-.367.718-.366 1.155.011 3.802.004 7.603.008 11.404.001.961.014 1.923.024 2.884l.004.339zm-5.602 0v-.339c.001-4.087.002-8.173-.002-12.26 0-.186.019-.41-.105-.485-.164-.101-.343.1-.474.214a21.437 21.437 0 0 1-2.898 2.087c-.249.152-.397.321-.451.568v10.215zm-5.738 0V38.6l-.001-.036.001-.862v-7.906c-.031-.292-.197-.376-.524-.246-.886.354-1.788.663-2.719.872-.33.074-.495.223-.561.472v8.072zm-11.428 0l.002-.339c.008-2.43.014-4.86.032-7.29.002-.376-.172-.54-.513-.595a18.562 18.562 0 0 1-2.77-.668c-.423-.136-.591-.006-.589.429.011 2.708.016 5.416.023 8.124l.001.339zm5.722 0v-.339c.002-2.374.002-4.748.009-7.123.001-.439-.194-.591-.625-.564-.891.055-1.783.092-2.675.104-.415.006-.555.183-.552.58.015 2.334.02 4.668.028 7.003l.001.339z" fill="#ec2025"/></svg>