<svg xmlns:osb="http://www.openswatchbook.org/uri/2009/osb" xmlns="http://www.w3.org/2000/svg" xmlns:xlink="http://www.w3.org/1999/xlink" width="48" height="48" version="1.1" id="svg38"><defs id="defs22"><linearGradient id="linearGradient4488"><stop id="stop4490" offset="0" stop-color="#000" stop-opacity=".047"/><stop id="stop4492" offset="1" stop-color="#000" stop-opacity="0"/></linearGradient><style id="style4511"/><style id="style4511-26"/><style id="style4511-9"/><linearGradient id="b-7" y1="44" x1="44" y2="4" x2="24" gradientUnits="userSpaceOnUse"><stop stop-color="#c61423" id="stop7-3"/><stop offset="1" stop-color="#dc2b41" id="stop9-56"/></linearGradient><style id="style4552"/><style id="style4511-2"/><linearGradient xlink:href="#linearGradient4488" id="linearGradient4540" gradientUnits="userSpaceOnUse" gradientTransform="matrix(.30902 0 0 .3038 -64.017 2.569)" x1="288.112" y1="141.785" x2="287.575" y2="79.008"/><linearGradient osb:paint="solid" id="linearGradient5293"><stop id="stop5295" offset="0" stop-color="#9a89c0" stop-opacity="1"/></linearGradient><linearGradient gradientUnits="userSpaceOnUse" y2="160.631" x2="334.866" y1="140.23" x1="334.866" id="linearGradient930" xlink:href="#linearGradient928"/><linearGradient id="linearGradient928"><stop id="stop924" offset="0" stop-color="gray" stop-opacity="1"/><stop id="stop926" offset="1" stop-color="#999" stop-opacity="1"/></linearGradient><filter height="1.284" y="-.142" width="1.076" x="-.038" id="filter1736" color-interpolation-filters="sRGB"><feGaussianBlur id="feGaussianBlur1738" stdDeviation="68.492"/></filter><radialGradient xlink:href="#b-7" id="radialGradient1617" cx="24.066" cy="24.161" fx="24.066" fy="24.161" r="21.012" gradientTransform="matrix(1 0 0 1.0225 0 -.544)" gradientUnits="userSpaceOnUse"/></defs><style id="style4485" type="text/css"/><path id="path4516" d="M2.75 26.796v1.668c0 9.575 5.68 17.283 17.44 17.283h7.05c15.392 0 18.143-11.323 18.143-17.283v-1.668c0 5.96-2.75 17.282-18.143 17.282h-7.05c-11.76 0-17.44-7.708-17.44-17.282z" opacity="1" fill="url(#linearGradient4540)" fill-opacity="1" stroke="none" stroke-width="1.109" stroke-linecap="square" stroke-linejoin="bevel" stroke-miterlimit="4" stroke-dasharray="none" stroke-dashoffset="0" stroke-opacity=".078"/><path id="path4518" d="M3.223 28.58v-8.642c0-14.147 11.247-17.093 17.282-17.093h7.123c5.96 0 17.282 2.75 17.282 18.143v7.05c0 11.76-7.708 17.44-17.282 17.44h-7.123c-9.574 0-17.282-5.564-17.282-16.899z" opacity="1" fill="url(#radialGradient1617)" fill-opacity="1" stroke="#000" stroke-width=".337" stroke-linecap="square" stroke-linejoin="bevel" stroke-miterlimit="4" stroke-dasharray="none" stroke-dashoffset="0" stroke-opacity=".078"/><g id="g1000" transform="matrix(.0078 0 0 -.00965 7.23 29.758)" fill-opacity="1" fill-rule="nonzero" stroke="none"><g id="g1702" opacity=".5" fill="#000" filter="url(#filter1736)"><path d="M592.336 1159.32H410.469c-.352-247.297-.703-407.472-1.051-654.765-78.145 241.328-156.371 401.093-234.789 654.765H0V0c58.945 8.39 122.07 16.43 181.086 24.129.164 242.309.336 391.266.5 633.582C262.797 419.203 312.727 278.52 393.695 51.859c63.477 7.25 133.215 16.172 196.754 22.622.629 361.609 1.254 723.23 1.887 1084.839" id="path1688"/><path d="M1271.63 1159.32H767.82c-.675-356.523-1.355-713.047-2.035-1069.57a15317.566 15317.566 0 0 0 506.085 37.59c.09 52.125.19 127.058.28 179.176-109.79-6.746-214.82-13.778-324.224-21.133.187 95.851.379 175.121.566 270.976 79.958 1.379 164.408.168 246.088 1.567.09 52.39.19 127.594.29 179.988-80.94-1.437-166.42-1.601-246.061-3.113.191 95.855.375 148.433.566 244.293 50.102.605 99.205.683 148.215.683 8.61 0 17.21 0 25.82-.007h25.69c40.88 0 81.93.046 123.67.41.1 52.13-1.23 127.02-1.14 179.14" id="path1690"/><path d="M1950.71 1158.52c-184.92 0-376.07-.01-560.99-.02-.09-51.79-.17-126.39-.26-178.176 8.05.059 16.1.078 24.14.078 24.37 0 48.74-.23 73.12-.476 24.35-.235 48.7-.481 73.06-.481 6.25 0 12.49.02 18.74.051-.38-287.422-.76-549.949-1.13-837.375 59.36 2.207 122.87 4.07 182.24 5.578.27 285.852.54 546.809.8 832.645 62.71.246 127.5.429 190.21.558l.07 177.618" id="path1692"/><path d="M2574.62 1159.32h-505.88l-.15-1006.742c19.55.082 39.33.113 59.19.113 40.45 0 81.21-.152 121.05-.461-.05 142.411-.09 272.383-.13 414.805 9.93-.039 19.96-.058 30.06-.058 23.52 0 47.42.097 71.42.195s48.1.195 71.99.195c24.62 0 49.01-.097 72.86-.429-.04 51.054-.09 127-.14 178.054-22.52.227-45.53.305-68.77.305-24.9 0-50.05-.086-75.1-.176-25.02-.09-49.95-.176-74.44-.176-9.37 0-18.69.008-27.93.039-.03 91.551-.05 143.223-.08 234.786 19.78-.032 39.51-.04 59.17-.04 19.96 0 39.86.008 59.75.02 20.06.008 40.11.02 60.17.02 48.87 0 97.78-.051 147.12-.274-.05 51.174-.11 128.654-.16 179.824" id="path1694"/><path d="M2692.7 1158.51c.44-338.819-1.19-677.639-.75-1016.471 161.74-6.019 331.7-12.551 493.24-23.719-.1 52.121-.2 127.075-.3 179.192-102.24 6.015-208.68 13.222-311 17.48-.46 290.168 1.14 553.352.68 843.508-59.25.01-122.63.01-181.87.01" id="path1696"/><path d="M3334.44 1158.48c.7-350.39 1.38-700.781 2.07-1051.179 59.26-4.582 120.57-9.492 179.78-14.762.21 355.07.7 710.617.02 1065.931-59.24.01-122.63.01-181.87.01" id="path1698"/><path d="M3672.22 1158.46c72.73-177.167 139.26-354.843 213.12-542.987-76.76-180.723-154.89-360.254-231.57-533.614 63.52-6.27 129.23-15.437 192.69-22.507 45.53 111.648 86.95 197.593 132.52 312.261 45.5-122.148 86.86-216.511 132.24-342.594C4174.58 20.801 4256.72 9.012 4320 0c-76.71 205.063-160.61 418.578-237.74 612.379 76.81 182 155.19 355.738 234.98 546.021-65.51 0-133.09.01-198.6.02-49.24-117.61-83.11-193.182-130.31-305.135-43.97 116.485-73.47 191.865-117.51 305.155-65.51.01-133.1.01-198.6.02" id="path1700"/></g><g id="g1093" fill="#fff"><path id="path1095" d="M592.336 1159.32H410.469c-.352-247.297-.703-407.472-1.051-654.765-78.145 241.328-156.371 401.093-234.789 654.765H0V0c58.945 8.39 122.07 16.43 181.086 24.129.164 242.309.336 391.266.5 633.582C262.797 419.203 312.727 278.52 393.695 51.859c63.477 7.25 133.215 16.172 196.754 22.622.629 361.609 1.254 723.23 1.887 1084.839"/><path id="path1097" d="M1271.63 1159.32H767.82c-.675-356.523-1.355-713.047-2.035-1069.57a15317.566 15317.566 0 0 0 506.085 37.59c.09 52.125.19 127.058.28 179.176-109.79-6.746-214.82-13.778-324.224-21.133.187 95.851.379 175.121.566 270.976 79.958 1.379 164.408.168 246.088 1.567.09 52.39.19 127.594.29 179.988-80.94-1.437-166.42-1.601-246.061-3.113.191 95.855.375 148.433.566 244.293 50.102.605 99.205.683 148.215.683 8.61 0 17.21 0 25.82-.007h25.69c40.88 0 81.93.046 123.67.41.1 52.13-1.23 127.02-1.14 179.14"/><path id="path1099-7" d="M1950.71 1158.52c-184.92 0-376.07-.01-560.99-.02-.09-51.79-.17-126.39-.26-178.176 8.05.059 16.1.078 24.14.078 24.37 0 48.74-.23 73.12-.476 24.35-.235 48.7-.481 73.06-.481 6.25 0 12.49.02 18.74.051-.38-287.422-.76-549.949-1.13-837.375 59.36 2.207 122.87 4.07 182.24 5.578.27 285.852.54 546.809.8 832.645 62.71.246 127.5.429 190.21.558l.07 177.618"/><path id="path1101" d="M2574.62 1159.32h-505.88l-.15-1006.742c19.55.082 39.33.113 59.19.113 40.45 0 81.21-.152 121.05-.461-.05 142.411-.09 272.383-.13 414.805 9.93-.039 19.96-.058 30.06-.058 23.52 0 47.42.097 71.42.195s48.1.195 71.99.195c24.62 0 49.01-.097 72.86-.429-.04 51.054-.09 127-.14 178.054-22.52.227-45.53.305-68.77.305-24.9 0-50.05-.086-75.1-.176-25.02-.09-49.95-.176-74.44-.176-9.37 0-18.69.008-27.93.039-.03 91.551-.05 143.223-.08 234.786 19.78-.032 39.51-.04 59.17-.04 19.96 0 39.86.008 59.75.02 20.06.008 40.11.02 60.17.02 48.87 0 97.78-.051 147.12-.274-.05 51.174-.11 128.654-.16 179.824"/><path id="path1103" d="M2692.7 1158.51c.44-338.819-1.19-677.639-.75-1016.471 161.74-6.019 331.7-12.551 493.24-23.719-.1 52.121-.2 127.075-.3 179.192-102.24 6.015-208.68 13.222-311 17.48-.46 290.168 1.14 553.352.68 843.508-59.25.01-122.63.01-181.87.01"/><path id="path1105" d="M3334.44 1158.48c.7-350.39 1.38-700.781 2.07-1051.179 59.26-4.582 120.57-9.492 179.78-14.762.21 355.07.7 710.617.02 1065.931-59.24.01-122.63.01-181.87.01"/><path id="path1107-0" d="M3672.22 1158.46c72.73-177.167 139.26-354.843 213.12-542.987-76.76-180.723-154.89-360.254-231.57-533.614 63.52-6.27 129.23-15.437 192.69-22.507 45.53 111.648 86.95 197.593 132.52 312.261 45.5-122.148 86.86-216.511 132.24-342.594C4174.58 20.801 4256.72 9.012 4320 0c-76.71 205.063-160.61 418.578-237.74 612.379 76.81 182 155.19 355.738 234.98 546.021-65.51 0-133.09.01-198.6.02-49.24-117.61-83.11-193.182-130.31-305.135-43.97 116.485-73.47 191.865-117.51 305.155-65.51.01-133.1.01-198.6.02"/></g></g></svg>