<svg xmlns:osb="http://www.openswatchbook.org/uri/2009/osb" xmlns="http://www.w3.org/2000/svg" xmlns:xlink="http://www.w3.org/1999/xlink" width="48" height="48" version="1.1" id="svg38"><defs id="defs22"><linearGradient id="linearGradient4488"><stop id="stop4490" offset="0" stop-color="#000" stop-opacity=".047"/><stop id="stop4492" offset="1" stop-color="#000" stop-opacity="0"/></linearGradient><style id="style4511"/><style id="style4511-26"/><style id="style4511-9"/><style id="style4552"/><style id="style4511-2"/><linearGradient xlink:href="#linearGradient4488" id="linearGradient4540" gradientUnits="userSpaceOnUse" gradientTransform="translate(-62.889 1.994) scale(.3038)" x1="288.112" y1="141.785" x2="287.575" y2="79.008"/><linearGradient osb:paint="solid" id="linearGradient5293"><stop id="stop5295" offset="0" stop-color="#9a89c0" stop-opacity="1"/></linearGradient></defs><style id="style4485" type="text/css"/><path id="path4516" d="M2.75 26.22v1.67c0 9.573 5.583 17.281 17.146 17.281h6.93c15.132 0 17.836-11.322 17.836-17.282v-1.668c0 5.96-2.704 17.282-17.836 17.282h-6.93C8.333 43.503 2.75 35.795 2.75 26.22z" opacity="1" fill="url(#linearGradient4540)" fill-opacity="1" stroke="none" stroke-width="1.1" stroke-linecap="square" stroke-linejoin="bevel" stroke-miterlimit="4" stroke-dasharray="none" stroke-dashoffset="0" stroke-opacity=".078"/><path id="path4518" d="M19.65 3.605h8.496c13.907 0 16.804 11.247 16.804 17.282v7.123c0 5.96-2.704 17.283-17.836 17.283h-6.93c-11.563 0-17.146-7.708-17.146-17.283v-7.123c0-9.574 5.47-17.282 16.613-17.282z" opacity="1" fill="#4a4ba7" fill-opacity="1" stroke="#000" stroke-width=".334" stroke-linecap="square" stroke-linejoin="bevel" stroke-miterlimit="4" stroke-dasharray="none" stroke-dashoffset="0" stroke-opacity=".078"/><g id="g1284" transform="matrix(1.05792 0 0 1 -.571 0)" fill-opacity="1" fill-rule="nonzero" stroke="none" stroke-width="1.102"><path d="M25.231 29.955l10.975 6.635-13.17-26.542m2.195 19.907" id="path525" fill="#eb4835"/><path d="M9.867 36.59h26.339l-17.56-11.06m-8.78 11.06" id="path527" fill="#eb9035"/><path d="M23.036 10.048l1.098 9.314L9.867 36.59m13.17-26.542" id="path529" fill="#eb7135"/></g></svg>