<svg xmlns:osb="http://www.openswatchbook.org/uri/2009/osb" xmlns="http://www.w3.org/2000/svg" xmlns:xlink="http://www.w3.org/1999/xlink" width="48" height="48" version="1.1" id="svg38"><defs id="defs22"><linearGradient id="linearGradient4488"><stop id="stop4490" offset="0" stop-color="#000" stop-opacity=".047"/><stop id="stop4492" offset="1" stop-color="#000" stop-opacity="0"/></linearGradient><style id="style4511"/><style id="style4511-26"/><style id="style4511-9"/><style id="style4552"/><style id="style4511-2"/><linearGradient xlink:href="#linearGradient4488" id="linearGradient4540" gradientUnits="userSpaceOnUse" gradientTransform="matrix(.30902 0 0 .3038 -64.017 2.569)" x1="288.112" y1="141.785" x2="287.575" y2="79.008"/><linearGradient osb:paint="solid" id="linearGradient5293"><stop id="stop5295" offset="0" stop-color="#9a89c0" stop-opacity="1"/></linearGradient><linearGradient gradientUnits="userSpaceOnUse" y2="160.631" x2="334.866" y1="140.23" x1="334.866" id="linearGradient930" xlink:href="#linearGradient928"/><linearGradient id="linearGradient928"><stop id="stop924" offset="0" stop-color="gray" stop-opacity="1"/><stop id="stop926" offset="1" stop-color="#999" stop-opacity="1"/></linearGradient></defs><style id="style4485" type="text/css"/><path id="path4516" d="M2.75 26.796v1.668c0 9.575 5.68 17.283 17.44 17.283h7.05c15.392 0 18.143-11.323 18.143-17.283v-1.668c0 5.96-2.75 17.282-18.143 17.282h-7.05c-11.76 0-17.44-7.708-17.44-17.282z" opacity="1" fill="url(#linearGradient4540)" fill-opacity="1" stroke="none" stroke-width="1.109" stroke-linecap="square" stroke-linejoin="bevel" stroke-miterlimit="4" stroke-dasharray="none" stroke-dashoffset="0" stroke-opacity=".078"/><path id="path4518" d="M19.649 3.318h8.64c14.148 0 17.094 11.246 17.094 17.282v7.123c0 5.96-2.75 17.282-18.143 17.282h-7.05c-11.76 0-17.44-7.708-17.44-17.282V20.6c0-9.575 5.564-17.282 16.899-17.282z" opacity="1" fill="#666" fill-opacity="1" stroke="#000" stroke-width=".337" stroke-linecap="square" stroke-linejoin="bevel" stroke-miterlimit="4" stroke-dasharray="none" stroke-dashoffset="0" stroke-opacity=".078"/><path d="M26.44 37.235c-.097-.098-.579-.88-1.07-1.74-.668-1.17-.882-1.64-.857-1.876.043-.393.25-.437 1.006-.215l.569.167.37-.381c.874-.903 1.732-2.977 2.367-5.727.337-1.46 1.35-8.169 1.262-8.361-.04-.088-6.783 1.32-6.908 1.441-.05.05-.576 1.404-1.168 3.01-.592 1.607-1.265 3.277-1.494 3.712-.792 1.502-3.7 4.378-5.635 5.572-1.526.942-2.939 1.407-3.033.998-.021-.093.243-.422.623-.775 1.262-1.174 3.611-4.435 4.442-6.166.229-.476.588-1.39.798-2.03.358-1.087 1.051-3.64 1.051-3.87 0-.058-.185-.131-.413-.164-2.132-.309-4.245-.83-5.584-1.379-.86-.352-1.136-.62-.954-.928.198-.332 2.695-1.074 6.1-1.814 1.044-.227 1.916-.426 1.938-.442.023-.016.163-.532.313-1.147.33-1.358.271-1.717-.466-2.867-1.014-1.578-.678-1.678 2.53-.751 1.505.434 2.12.76 2.567 1.355.466.622.53 1.092.296 2.146l-.07.31 1.196-.237c.657-.13 1.841-.373 2.63-.54l1.436-.305 1.792.412c2.168.499 3.195.806 3.848 1.15.48.252.49.268.422.65-.038.216-.816 2.94-1.728 6.053-1.738 5.934-2.2 7.207-3.343 9.207A27.214 27.214 0 0 1 28.8 35.31c-.664.804-1.96 2.1-2.1 2.1-.045 0-.161-.079-.26-.176z" id="path817" fill="orange" fill-opacity="1" stroke-width=".104"/></svg>