<svg xmlns:osb="http://www.openswatchbook.org/uri/2009/osb" xmlns="http://www.w3.org/2000/svg" xmlns:xlink="http://www.w3.org/1999/xlink" width="48" height="48" version="1.1" id="svg38"><defs id="defs22"><linearGradient id="linearGradient4488"><stop id="stop4490" offset="0" stop-color="#000" stop-opacity=".047"/><stop id="stop4492" offset="1" stop-color="#000" stop-opacity="0"/></linearGradient><style id="style4511"/><style id="style4511-26"/><style id="style4511-9"/><style id="style4552"/><style id="style4511-2"/><linearGradient xlink:href="#linearGradient4488" id="linearGradient4540" gradientUnits="userSpaceOnUse" gradientTransform="translate(-62.889 1.994) scale(.3038)" x1="288.112" y1="141.785" x2="287.575" y2="79.008"/><linearGradient osb:paint="solid" id="linearGradient5293"><stop id="stop5295" offset="0" stop-color="#9a89c0" stop-opacity="1"/></linearGradient></defs><style id="style4485" type="text/css"/><path id="path4516" d="M2.75 26.22v1.67c0 9.573 5.583 17.281 17.146 17.281h6.93c15.132 0 17.836-11.322 17.836-17.282v-1.668c0 5.96-2.704 17.282-17.836 17.282h-6.93C8.333 43.503 2.75 35.795 2.75 26.22z" opacity="1" fill="url(#linearGradient4540)" fill-opacity="1" stroke="none" stroke-width="1.1" stroke-linecap="square" stroke-linejoin="bevel" stroke-miterlimit="4" stroke-dasharray="none" stroke-dashoffset="0" stroke-opacity=".078"/><path id="path4518" d="M3.157 28.458v-8.495c0-13.908 11.246-16.805 17.282-16.805h7.123c5.96 0 17.282 2.705 17.282 17.837v6.93c0 11.563-7.708 17.146-17.282 17.146h-7.123c-9.575 0-17.282-5.47-17.282-16.613z" opacity="1" fill="#f60" fill-opacity="1" stroke="#000" stroke-width=".334" stroke-linecap="square" stroke-linejoin="bevel" stroke-miterlimit="4" stroke-dasharray="none" stroke-dashoffset="0" stroke-opacity=".078"/><path d="M11.976 43.412c.163.01.587.285.958.388.769.316 1.04.456 2.5.76l.14-10.276c.02-3.437-.221-8.278.76-10.58 1.64-2.665 5.111-4.1 8.81-3.639 3.682.458 6.477 2.79 6.94 5.79.103.662.129 4.623.062 9.497l-.074 9.286c1.185-.01 2.449-.701 3.13-.9.167-.04.529-.253.684-.307l-.082-9.008c-.085-9.86-.078-9.777-1.18-11.708-1.087-1.909-3.152-3.675-5.35-4.577-2.53-1.037-6.165-1.296-8.848-.631-3.401.843-6.042 2.729-7.522 5.369-.923 1.648-.945 1.936-.946 11.602z" id="path4571" fill="#fefefe" fill-opacity="1" stroke-width="1.025"/></svg>