<svg xmlns="http://www.w3.org/2000/svg" xmlns:xlink="http://www.w3.org/1999/xlink" width="48" height="48" version="1.1" id="svg38"><defs id="defs22"><linearGradient id="linearGradient4488"><stop id="stop4490" offset="0" stop-color="#000" stop-opacity=".047"/><stop id="stop4492" offset="1" stop-color="#000" stop-opacity="0"/></linearGradient><style id="style4511"/><style id="style4511-26"/><style id="style4511-9"/><linearGradient id="linearGradient4191"><stop id="stop17-3-7" offset="0" stop-color="#dc2b41" stop-opacity="1"/><stop id="stop19-5-5" offset="1" stop-color="#c61423" stop-opacity="1"/></linearGradient><style id="style4552"/><style id="style4511-2"/><linearGradient gradientTransform="translate(-63.205 2.216) scale(.3038)" xlink:href="#linearGradient4488" id="linearGradient4160" x1="288.112" y1="141.785" x2="287.575" y2="79.008" gradientUnits="userSpaceOnUse"/><linearGradient xlink:href="#linearGradient4191" id="linearGradient1147" x1="2.266" y1="23.808" x2="44.513" y2="23.808" gradientUnits="userSpaceOnUse"/></defs><style id="style4485" type="text/css"/><g id="g412" fill-opacity="1" stroke-miterlimit="4" stroke-dasharray="none"><path id="path4147" d="M2.433 26.443v1.668c0 9.575 5.583 17.282 17.146 17.282h6.93c15.133 0 17.837-11.322 17.837-17.282v-1.668c0 5.96-2.704 17.282-17.837 17.282h-6.93c-11.563 0-17.146-7.708-17.146-17.282z" opacity="1" fill="url(#linearGradient4160)" stroke="none" stroke-width="1.1" stroke-linecap="square" stroke-linejoin="bevel" stroke-dashoffset="0" stroke-opacity=".078"/><path id="rect4144" d="M19.046 2.965h8.495c13.908 0 16.805 11.246 16.805 17.282v7.123c0 5.96-2.704 17.282-17.837 17.282h-6.93c-11.562 0-17.146-7.708-17.146-17.282v-7.123c0-9.575 5.47-17.282 16.613-17.282z" opacity="1" fill="url(#linearGradient1147)" stroke="#000" stroke-width=".334" stroke-linecap="square" stroke-linejoin="bevel" stroke-dashoffset="0" stroke-opacity=".078"/><g transform="translate(-43.994 -.18)" id="g404" fill="#e6e6e6" fill-rule="nonzero" stroke="none" stroke-width="2.5" stroke-linejoin="round" stroke-opacity="1"><path id="rect4160" opacity="1" d="M53.383 13.489h4v15h-4z"/><path id="rect4162" opacity="1" d="M53.383 30.489h4v4h-4z"/><path d="M61.383 14.49v20h4v-16h4v16h4v-16h4v16h4v-20h-16z" id="rect4164" opacity="1"/></g></g></svg>