<svg xmlns="http://www.w3.org/2000/svg" xmlns:xlink="http://www.w3.org/1999/xlink" width="48" height="48" version="1.1" id="svg38"><defs id="defs22"><linearGradient id="linearGradient4488"><stop id="stop4490" offset="0" stop-color="#000" stop-opacity=".047"/><stop id="stop4492" offset="1" stop-color="#000" stop-opacity="0"/></linearGradient><style id="style4511"/><style id="style4511-26"/><style id="style4511-9"/><style id="style4552"/><style id="style4511-2"/><linearGradient gradientTransform="matrix(.30894 0 0 .30744 -64.214 2.207)" xlink:href="#linearGradient4488" id="linearGradient4160" x1="288.112" y1="141.785" x2="287.575" y2="79.008" gradientUnits="userSpaceOnUse"/></defs><style id="style4485" type="text/css"/><path d="M2.535 26.724v1.689c0 9.689 5.678 17.489 17.436 17.489h7.048c15.388 0 18.138-11.458 18.138-17.49v-1.688c0 6.031-2.75 17.49-18.138 17.49H19.97c-11.758 0-17.436-7.801-17.436-17.49z" id="path4147" opacity="1" fill="url(#linearGradient4160)" fill-opacity="1" stroke="none" stroke-width="1.116" stroke-linecap="square" stroke-linejoin="bevel" stroke-miterlimit="4" stroke-dasharray="none" stroke-dashoffset="0" stroke-opacity=".078"/><path d="M19.43 2.965h8.638c14.143 0 17.089 11.381 17.089 17.489v7.208c0 6.031-2.75 17.49-18.139 17.49h-7.047c-11.758 0-17.436-7.8-17.436-17.49v-7.208c0-9.69 5.563-17.49 16.894-17.49z" id="rect4144" opacity="1" fill="#ececec" fill-opacity="1" stroke="#000" stroke-width=".339" stroke-linecap="square" stroke-linejoin="bevel" stroke-miterlimit="4" stroke-dasharray="none" stroke-dashoffset="0" stroke-opacity=".078"/><g id="g1641" transform="matrix(.65984 0 0 .61243 2.177 -135.332)" fill="#2a2a2a"><path id="path1052" d="M5.052 246.36v2.513h55.263v-2.512zm0 7.537v2.512h55.263v-2.512zm0 7.536v2.511h55.263v-2.511zm0 7.535v2.512h55.263v-2.512zm0 7.536v2.512h55.263v-2.512z" opacity=".5" fill-rule="evenodd" stroke-width="1.256"/><g id="g1060" transform="matrix(2.1233 0 0 1.94723 -7.268 236.313)"><g id="g1058"><path id="path1056" d="M16.681 13.4c-.7-.8-1.7-1.3-2.9-1.2-.1-.2-.5-2.2-.5-2.2s1.4-2.1 1.7-2.5c1.5-2.4 1.6-4.3.7-6.2-.3-.7-1.1-1.3-1.9-1.3-.6 0-1.1.5-1.4 1.1-1 1.7-1 4.9-.5 7.1 0 0-.5.5-1 1.1-1 1.1-2.1 2.3-2.5 3.9-.5 1.8-.1 3.5 1 4.8 1.2 1.5 3 2.2 5.2 2 .4 1.9.7 3.1.1 4.2-.2.4-.6.8-1.3.8-.2 0-.3 0-.5-.1.6-.3 1.1-.9 1.1-1.6 0-1-.8-1.8-1.8-1.8-1.7.1-1.8 1.8-1.8 1.8 0 .6.2 1.2.6 1.6.5.5 1.3.9 2.2.9 1.1 0 2.2-.4 2.6-2 .4-1.3-.3-3.4-.4-4.1 1.1-.5 2.1-2 2.2-3 .2-1.1-.2-2.4-.9-3.3zm-3.2-11.1c.1-.2.3-.3.5-.3.1 0 .3.1.4.2.4.2.5.6.5 1.2-.1 1.5-1.4 3.3-2.1 3.9-.3-1.4-.1-4 .7-5zm-2.9 15.7c-.7-.7-1-1.7-.9-2.7.2-1.6 1.3-2.9 2.2-3.9.2-.2.4-.4.5-.6.1.5.4 1.3.5 1.7-1.2.5-1.9 2.1-1.8 3.4 0 .6.2 1 .5 1.4.1.1.2.2.3.2.1 0 .3-.1.3-.2.1-.1.1-.3 0-.4-.1-.1-.1-.2-.1-.4-.1-.9.5-1.6 1.2-1.9.1.6.8 3.7.9 4.4-1.3.4-2.7 0-3.6-1zm4.5.6c-.2-.7-.3-1.5-.5-2.4-.1-.6-.2-1.3-.4-1.9 1.3 0 1.7 1.1 1.8 1.5.3 1.1 0 2.2-.9 2.8z"/></g></g></g></svg>