<svg xmlns:osb="http://www.openswatchbook.org/uri/2009/osb" xmlns="http://www.w3.org/2000/svg" xmlns:xlink="http://www.w3.org/1999/xlink" width="48" height="48" version="1.1" id="svg38"><defs id="defs22"><linearGradient id="linearGradient4488"><stop id="stop4490" offset="0" stop-color="#000" stop-opacity=".047"/><stop id="stop4492" offset="1" stop-color="#000" stop-opacity="0"/></linearGradient><style id="style4511"/><style id="style4511-26"/><style id="style4511-9"/><style id="style4552"/><style id="style4511-2"/><linearGradient xlink:href="#linearGradient4488" id="linearGradient4546" gradientUnits="userSpaceOnUse" gradientTransform="matrix(.00045 -.31068 .30858 .00045 2.081 112.876)" x1="288.112" y1="141.785" x2="287.575" y2="79.008"/><style id="style4511-8"/><style id="style4511-26-4"/><style id="style4511-9-7"/><style id="style4552-3"/><style id="style4511-2-8"/><style id="style4552-7"/><style id="style4552-6"/><style id="style4552-73"/><style id="style4552-2"/><linearGradient osb:paint="solid" id="linearGradient5251"><stop id="stop5253" offset="0" stop-color="#2f343f" stop-opacity="1"/></linearGradient><clipPath id="clipPath1205-3" clipPathUnits="userSpaceOnUse"><path d="M115.031 44C42.383 44 32 54.357 32 126.938v58.124c0 13.772.379 25.294 1.482 34.938h237.036c1.103-9.644 1.482-21.166 1.482-34.938v-58.125C272 54.358 261.617 44 188.969 44z" id="path1207-6-7" opacity="1" fill="#f1f0e9" fill-opacity="1" stroke="none" stroke-width="2" stroke-linecap="round" stroke-linejoin="round" stroke-miterlimit="4" stroke-dasharray="none" stroke-dashoffset="0" stroke-opacity="1"/></clipPath></defs><style id="style4485" type="text/css"/><style type="text/css" id="style4485-0"/><style id="style4485-4" type="text/css"/><style id="style4485-5" type="text/css"/><style id="style4485-3" type="text/css"/><style id="style4485-5-1" type="text/css"/><g id="g1835" transform="matrix(1.00665 0 0 1 -.306 0)"><path id="path4528" d="M26.786 45.787l1.694.002c9.725.014 17.562-5.684 17.58-17.508l.01-7.088C46.092 5.718 34.596 2.936 28.542 2.927l-1.694-.003c6.053.01 17.55 2.791 17.527 18.267l-.01 7.087c-.017 11.825-7.855 17.523-17.58 17.509z" opacity="1" fill="url(#linearGradient4546)" fill-opacity="1" stroke="none" stroke-width="1.121" stroke-linecap="square" stroke-linejoin="bevel" stroke-miterlimit="4" stroke-dasharray="none" stroke-dashoffset="0" stroke-opacity=".078"/><path id="path4530" d="M2.963 28.762l.013-8.687c.02-14.223 11.448-17.169 17.578-17.16l7.235.01c6.053.01 17.55 2.792 17.528 18.267l-.01 7.087c-.018 11.825-7.855 17.523-17.58 17.509l-7.235-.01c-9.725-.015-17.545-5.62-17.529-17.016z" opacity="1" fill="#6d6d6d" fill-opacity="1" stroke="#000" stroke-width=".341" stroke-linecap="square" stroke-linejoin="bevel" stroke-miterlimit="4" stroke-dasharray="none" stroke-dashoffset="0" stroke-opacity=".078"/><g transform="matrix(.99447 0 0 .99644 .015 .127)" id="g1815" fill="#333" fill-opacity="1" stroke="none"><path d="M4.098 36.02A14.685 14.685 0 0 0 6.56 40.1l1.095-1.067 5.787 5.344.01-6.354-5.792-5.52c-.975.98-2.249 2.227-3.562 3.515z" id="path5889" opacity="1" stroke-width="1.835" stroke-linecap="round" stroke-linejoin="miter" stroke-miterlimit="4" stroke-dasharray="none" stroke-dashoffset="0" stroke-opacity="1"/><path d="M2.9 30.934c.183 1.938.61 3.688 1.253 5.243l3.51-3.42 5.788 5.34.009-6.353-5.79-5.517c-1.308 1.31-3.021 2.99-4.77 4.707z" id="path5893" opacity="1" stroke-width="1.835" stroke-linecap="round" stroke-linejoin="miter" stroke-miterlimit="4" stroke-dasharray="none" stroke-dashoffset="0" stroke-opacity="1"/><path d="M2.794 28.723a22.5 22.5 0 0 0 .133 2.41l4.746-4.626 5.787 5.341.01-6.353-5.792-5.518C6.342 21.317 4.584 23.04 2.8 24.79z" id="path5895" opacity="1" stroke-width="1.835" stroke-linecap="round" stroke-linejoin="miter" stroke-miterlimit="4" stroke-dasharray="none" stroke-dashoffset="0" stroke-opacity="1"/><path d="M2.799 24.987l4.883-4.76 5.787 5.341.009-6.353-5.79-5.518c-1.322 1.325-3.058 3.026-4.824 4.76a24.698 24.698 0 0 0-.058 1.579z" id="path5897" opacity="1" stroke-width="1.835" stroke-linecap="round" stroke-linejoin="miter" stroke-miterlimit="4" stroke-dasharray="none" stroke-dashoffset="0" stroke-opacity="1"/><path d="M2.846 18.656l4.845-4.723 5.787 5.342.01-6.354L7.702 7.41c-.058.053-.116.105-.173.16l-.336.33c-2.35 2.395-4.071 5.843-4.348 10.756z" id="path5899" opacity="1" stroke-width="1.835" stroke-linecap="round" stroke-linejoin="miter" stroke-miterlimit="4" stroke-dasharray="none" stroke-dashoffset="0" stroke-opacity="1"/><path d="M5.938 9.37L7.7 7.655l5.787 5.343.01-6.354-1.912-1.822c-2.096 1-4.09 2.453-5.647 4.55z" id="path5901" opacity="1" stroke-width="1.835" stroke-linecap="round" stroke-linejoin="miter" stroke-miterlimit="4" stroke-dasharray="none" stroke-dashoffset="0" stroke-opacity="1"/><path d="M11.44 4.893l2.056 1.898.004-2.766c-.692.239-1.38.535-2.06.868z" id="path5903" opacity="1" stroke-width="1.835" stroke-linecap="round" stroke-linejoin="miter" stroke-miterlimit="4" stroke-dasharray="none" stroke-dashoffset="0" stroke-opacity="1"/><path d="M6.36 39.853c1.83 2.243 4.256 3.852 7.082 4.808v-.565l-5.79-5.517c-.354.355-.871.858-1.292 1.274z" id="path5905" opacity="1" stroke-width="1.835" stroke-linecap="round" stroke-linejoin="miter" stroke-miterlimit="4" stroke-dasharray="none" stroke-dashoffset="0" stroke-opacity="1"/><path style="marker:none" d="M12.705 43.588a.339.339 0 1 1-.678-.002.339.339 0 0 1 .678.002zm.002-1.354a.339.339 0 1 1-.678-.002.339.339 0 0 1 .678.002zm.002-1.353a.339.339 0 1 1-.678-.002.339.339 0 0 1 .678.002zm.002-1.354a.339.339 0 1 1-.678-.002.339.339 0 0 1 .678.002zm.002-1.353a.339.339 0 1 1-.678-.003.339.339 0 0 1 .678.003zm.002-1.354a.339.339 0 1 1-.678-.002.339.339 0 0 1 .678.002zm.002-1.354a.339.339 0 1 1-.678-.002.339.339 0 0 1 .678.002zm.002-1.353a.339.339 0 1 1-.678-.002.339.339 0 0 1 .678.002zm.002-1.354a.339.339 0 1 1-.678-.002.339.339 0 0 1 .678.002zm.002-1.353a.339.339 0 1 1-.678-.002.339.339 0 0 1 .678.002zm.002-1.354a.339.339 0 1 1-.678-.002.339.339 0 0 1 .678.002zm.002-1.353a.339.339 0 1 1-.678-.003.339.339 0 0 1 .678.003zm.002-1.354a.339.339 0 1 1-.678-.002.339.339 0 0 1 .678.002zm.002-1.353a.339.339 0 1 1-.678-.003.339.339 0 0 1 .678.003zm.002-1.354a.339.339 0 1 1-.678-.002.339.339 0 0 1 .678.002zm.002-1.354a.339.339 0 1 1-.678-.002.339.339 0 0 1 .678.002zm.002-1.353a.339.339 0 1 1-.678-.002.339.339 0 0 1 .678.002zm.002-1.354a.339.339 0 1 1-.678-.002.339.339 0 0 1 .678.002zm.002-1.353a.339.339 0 1 1-.678-.002.339.339 0 0 1 .678.002zm.002-1.354a.339.339 0 1 1-.678-.002.339.339 0 0 1 .678.002zm.002-1.353a.339.339 0 1 1-.678-.003.339.339 0 0 1 .678.003zm.002-1.354a.339.339 0 1 1-.678-.002.339.339 0 0 1 .678.002zm.002-1.354a.339.339 0 1 1-.678-.002.339.339 0 0 1 .678.002zm.002-1.353a.339.339 0 1 1-.678-.002.339.339 0 0 1 .678.002zm.002-1.354a.339.339 0 1 1-.678-.002.339.339 0 0 1 .678.002zm.002-1.353a.339.339 0 1 1-.338-.339c.187 0 .34.152.339.339zm.002-1.354a.339.339 0 1 1-.338-.339c.187 0 .34.152.339.34zm.002-1.353a.339.339 0 1 1-.678-.002.339.339 0 0 1 .678.002zm.002-1.354a.339.339 0 1 1-.678-.002.339.339 0 0 1 .678.002z" id="path4568" color="#000" display="inline" overflow="visible" visibility="visible" opacity=".4" stroke-width="1.017"/></g><g transform="matrix(1.11304 0 0 1.1108 -2.79 -1.918)" id="g1804"><path id="rect1716" fill="#4caf50" stroke-width=".839" d="M15.694 17.314h26.09v12.849h-26.09z"/><g id="g1726" transform="matrix(1.32439 0 0 1.4597 1.76 -11.876)" fill="#fff"><path d="M16.6 26.262h-.938v-3.375c0-.375-.094-.672-.281-.891a.942.942 0 0 0-.75-.328c-.406 0-.789.211-1.148.633-.359.422-.539.945-.539 1.57v2.391h-.938v-5.25h.938v.984c.25-.344.523-.609.82-.797.297-.188.68-.281 1.148-.281.563 0 .984.157 1.266.469.282.313.422.703.422 1.172z" id="path1720"/><path d="M22.934 27.997h-.938v-2.438a1.95 1.95 0 0 1-.656.633c-.25.141-.547.211-.891.211-.625 0-1.156-.234-1.594-.703-.438-.469-.655-1.156-.655-2.063 0-.906.219-1.586.656-2.039.438-.453.969-.68 1.594-.68.344 0 .641.063.891.188s.469.328.656.609v-.703h.938v6.985zm-.937-4.36c0-.593-.133-1.055-.398-1.383-.265-.328-.586-.492-.961-.492-.469 0-.82.164-1.055.492-.235.328-.352.79-.352 1.383 0 .594.117 1.063.352 1.406.235.343.586.516 1.055.516.375 0 .695-.172.961-.516.266-.344.398-.812.398-1.406z" id="path1722"/><path d="M28.934 27.997h-.938v-2.438a1.95 1.95 0 0 1-.656.633c-.25.141-.547.211-.891.211-.625 0-1.156-.234-1.594-.703-.438-.469-.655-1.156-.655-2.063 0-.906.219-1.586.656-2.039.438-.453.969-.68 1.594-.68.344 0 .641.063.891.188s.469.328.656.609v-.703h.938v6.985zm-.937-4.36c0-.593-.133-1.055-.398-1.383-.265-.328-.586-.492-.961-.492-.469 0-.82.164-1.055.492-.235.328-.352.79-.352 1.383 0 .594.117 1.063.352 1.406.235.343.586.516 1.055.516.375 0 .695-.172.961-.516.266-.344.398-.812.398-1.406z" id="path1724"/></g></g></g></svg>