<svg xmlns:osb="http://www.openswatchbook.org/uri/2009/osb" xmlns="http://www.w3.org/2000/svg" xmlns:xlink="http://www.w3.org/1999/xlink" width="48" height="48" version="1.1" id="svg38"><defs id="defs22"><linearGradient id="linearGradient4488"><stop id="stop4490" offset="0" stop-color="#000" stop-opacity=".047"/><stop id="stop4492" offset="1" stop-color="#000" stop-opacity="0"/></linearGradient><style id="style4511"/><style id="style4511-26"/><style id="style4511-9"/><style id="style4552"/><style id="style4511-2"/><linearGradient xlink:href="#linearGradient4488" id="linearGradient4540" gradientUnits="userSpaceOnUse" gradientTransform="translate(-62.457 2.425) scale(.3038)" x1="288.112" y1="141.785" x2="287.575" y2="79.008"/><linearGradient osb:paint="solid" id="linearGradient5293"><stop id="stop5295" offset="0" stop-color="#9a89c0" stop-opacity="1"/></linearGradient><linearGradient xlink:href="#linearGradient-1-3-6" id="linearGradient1281" x1="2.583" y1="23.586" x2="44.83" y2="23.586" gradientUnits="userSpaceOnUse" gradientTransform="translate(.431 .431)"/><linearGradient id="linearGradient-1-3-6" y2="41.272" x2="2.742" y1="1.411" x1="39.976" gradientUnits="userSpaceOnUse" gradientTransform="translate(-61.55 5.078)"><stop id="stop397" offset="0%" stop-color="#AD44D9"/><stop id="stop399" offset="100%" stop-color="#4BAFF8"/></linearGradient><path id="path-2" d="M13.417 34.332L4.735 22.099H22.1l-8.682 12.233zm17.363 0L22.1 22.099h17.363L30.78 34.332zM22.1 22.099L13.417 9.865H30.78L22.1 22.1z"/><filter id="filter-3" filterUnits="objectBoundingBox" height="112.3%" width="108.6%" y="-6.1%" x="-4.3%"><feOffset id="feOffset403" result="shadowOffsetOuter1" in="SourceAlpha" dy="0" dx="0"/><feGaussianBlur id="feGaussianBlur405" result="shadowBlurOuter1" in="shadowOffsetOuter1" stdDeviation=".5"/><feColorMatrix id="feColorMatrix407" in="shadowBlurOuter1" type="matrix" values="0 0 0 0 0.22745098 0 0 0 0 0.0745098039 0 0 0 0 0.352941176 0 0 0 0.6 0"/></filter></defs><style id="style4485" type="text/css"/><path id="path4516" d="M3.181 26.652v1.669c0 9.574 5.584 17.282 17.146 17.282h6.93c15.133 0 17.837-11.323 17.837-17.282v-1.669c0 5.96-2.704 17.282-17.837 17.282h-6.93c-11.562 0-17.146-7.708-17.146-17.282z" opacity="1" fill="url(#linearGradient4540)" fill-opacity="1" stroke="none" stroke-width="1.1" stroke-linecap="square" stroke-linejoin="bevel" stroke-miterlimit="4" stroke-dasharray="none" stroke-dashoffset="0" stroke-opacity=".078"/><path id="path4518" d="M19.794 3.174h8.496c13.907 0 16.804 11.247 16.804 17.282v7.123c0 5.96-2.704 17.282-17.837 17.282h-6.93c-11.562 0-17.146-7.708-17.146-17.282v-7.123c0-9.574 5.47-17.282 16.613-17.282z" opacity="1" fill="url(#linearGradient1281)" fill-opacity="1" stroke="#000" stroke-width=".334" stroke-linecap="square" stroke-linejoin="bevel" stroke-miterlimit="4" stroke-dasharray="none" stroke-dashoffset="0" stroke-opacity=".078"/><g id="Combined-Shape" transform="matrix(.85908 0 0 .9529 5.153 2.948)" fill="none" fill-rule="evenodd" stroke="none" stroke-width="1"><use height="100%" width="100%" y="0" x="0" xlink:href="#path-2" id="use415" fill="#000" fill-opacity="1" filter="url(#filter-3)"/><use height="100%" width="100%" y="0" x="0" xlink:href="#path-2" id="use417" fill="#fff" fill-rule="evenodd"/></g></svg>