<svg xmlns="http://www.w3.org/2000/svg" xmlns:xlink="http://www.w3.org/1999/xlink" width="48" height="48" version="1.1" id="svg38"><defs id="defs22"><style id="style4511"/><style id="style4511-26"/><style id="style4511-9"/><style id="style4552"/><linearGradient id="d-0" y1="22.346" x1="29.855" y2="28.506" x2="54.32" gradientUnits="userSpaceOnUse"><stop stop-color="#ffc169" id="stop17-62"/><stop offset="1" stop-color="#ffa92d" id="stop19-6"/></linearGradient><style id="style4511-2"/><radialGradient xlink:href="#d-0" id="radialGradient1213" cx="23.058" cy="24.217" fx="23.058" fy="24.217" r="11.613" gradientTransform="matrix(1 0 0 .89892 -44.75 14.823)" gradientUnits="userSpaceOnUse"/></defs><style id="style4485" type="text/css"/><path d="M19.74 3.213h8.587c14.059 0 16.987 11.181 16.987 17.18v7.082c0 5.925-2.733 17.181-18.03 17.181h-7.006c-11.689 0-17.333-7.662-17.333-17.18v-7.082c0-9.518 5.53-17.181 16.794-17.181z" id="rect4144" opacity="1" fill="#258fcb" fill-opacity="1" stroke="#000" stroke-width=".335" stroke-linecap="square" stroke-linejoin="bevel" stroke-miterlimit="4" stroke-dasharray="none" stroke-dashoffset="0" stroke-opacity=".078"/><path d="M31.367 16.698c-1.807.106-3.703.68-5.548 1.78-2.602-1.1-11.773-2.072-12.591 7.194-1.863-.309-6.692 1.314-6.988 5.363l-2.792 1.562c.55 1.87 1.54 4.52 2.46 5.642 1.19 1.451 3.082 3.193 4.63 4.15 1.75 1.08 3.392 1.507 5.521 2.008 2.257.322 4.758.39 7.139.39 1.24 0 2.186-.054 3.408-.051 1.212.003 2.81-.1 3.739-.19.727-.07 2.792-.485 3.397-.651.63-.173 2.248-.794 2.962-1.133.771-.366 2.048-1.099 2.881-1.831.833-.732 1.604-1.496 2.264-2.355.63-.818 1.31-1.987 1.736-2.89.398-.844.722-1.932 1.146-2.928-1.704-.54-3.014-2.896-3.28-2.948 1.743-8.011-3.621-13.497-10.077-13.115z" id="path1228" fill="#fff" fill-opacity=".902" fill-rule="nonzero" stroke="none" stroke-width=".903"/><path d="M19.668 3.122h8.587c14.058 0 16.986 11.267 16.986 17.313v7.135c0 5.97-2.733 17.313-18.03 17.313h-7.004c-11.688 0-17.331-7.722-17.331-17.313v-7.135c0-9.591 5.529-17.313 16.792-17.313z" id="rect4144-3" opacity="1" fill="#ccc" fill-opacity=".233" stroke="#000" stroke-width=".336" stroke-linecap="square" stroke-linejoin="bevel" stroke-miterlimit="4" stroke-dasharray="none" stroke-dashoffset="0" stroke-opacity=".078"/><g id="g1221" transform="matrix(.85664 0 0 .93645 40.975 -10.76)" stroke-width=".588"><path id="path1200" d="M-13.376 29.07c1.09-.707 2.133-1.617 3.372-1.91.719-.147 1.386-.173 1.875.222.3.406.779.836.932 1.44.131.518.017 1.25-.569 1.241-.44-.132-1.387-.43-1.945-.325-1.47.278-1.855 1.206-1.855 1.206z" fill="#77451f"/><path id="path1202" d="M-8.98 27.068c-.318-.025-.665.018-1.024.092-1.24.292-2.283 1.204-3.372 1.91l.322.334c.975-.666 1.934-1.426 3.05-1.69.718-.146 1.386-.172 1.875.223.3.406.779.836.932 1.44.01.042.01.09.016.134a1.568 1.568 0 0 0-.016-.688c-.153-.605-.632-1.035-.932-1.441a1.495 1.495 0 0 0-.851-.314z" opacity=".1" fill="#fff"/><path id="path1204" d="M-15.357 44.872c-5.21 3.13-13.75 2.837-16.928-.736-2.73-3.07.301-11.734 5.713-15.655 5.412-3.92 10.63-2.566 14.325 1.653 3.695 4.219 2.673 11.265-3.11 14.738z" fill="url(#radialGradient1213)" fill-opacity="1"/><path id="path1206" d="M-19.69 26.163c-2.183-.102-4.514.603-6.882 2.319-4.134 2.995-6.87 8.752-6.718 12.674.107-3.894 2.774-9.263 6.718-12.12 5.412-3.92 10.63-2.566 14.325 1.653 1.354 1.546 2.07 3.473 2.154 5.464.036-2.186-.675-4.33-2.154-6.02-2.078-2.372-4.638-3.839-7.444-3.97z" opacity=".2" fill="#fff"/><path id="path1210" d="M-21.152 25.397a11.187 11.187 0 0 0-2.888.355c-1.383.487-2.518.937-1.225 1.544a24.074 24.074 0 0 1 6.757 4.664c3.179 3.135 5.152 6.893 6.057 10.598.256 1.282 1.5.148 2.01-.322 2.792-2.584 2.652-8.924-1.616-13.134-2.504-2.47-5.936-3.694-9.095-3.705z" fill="#a9622c"/><path id="path1212" d="M-21.152 25.397a11.185 11.185 0 0 0-2.887.355c-1.189.419-2.19.81-1.629 1.297.287-.255.924-.494 1.629-.742.91-.24 1.884-.359 2.887-.355 3.16.01 6.591 1.235 9.096 3.705 2.318 2.287 3.41 5.2 3.483 7.801.078-2.734-.998-5.904-3.483-8.356-2.505-2.47-5.937-3.694-9.096-3.705z" opacity=".1" fill="#fff"/></g></svg>