<svg xmlns="http://www.w3.org/2000/svg" xmlns:xlink="http://www.w3.org/1999/xlink" width="48" height="48" version="1.1" id="svg38"><defs id="defs22"><linearGradient id="linearGradient4488"><stop id="stop4490" offset="0" stop-color="#000" stop-opacity=".047"/><stop id="stop4492" offset="1" stop-color="#000" stop-opacity="0"/></linearGradient><style id="style4511"/><style id="style4511-26"/><style id="style4511-9"/><style id="style4552"/><style id="style4511-2"/><linearGradient xlink:href="#linearGradient4488" id="linearGradient4546" gradientUnits="userSpaceOnUse" gradientTransform="translate(-62.497 1.994) scale(.3038)" x1="288.112" y1="141.785" x2="287.575" y2="79.008"/><style id="style4511-6"/><style id="style4511-26-3"/><style id="style4511-9-6"/><style id="style4552-8"/><style id="style4511-2-9"/></defs><style id="style4485" type="text/css"/><path d="M3.141 26.22v1.67c0 9.573 5.583 17.281 17.146 17.281h6.93c15.133 0 17.837-11.322 17.837-17.282v-1.668c0 5.96-2.704 17.282-17.837 17.282h-6.93c-11.563 0-17.146-7.708-17.146-17.282z" id="path4528" opacity="1" fill="url(#linearGradient4546)" fill-opacity="1" stroke="none" stroke-width="1.1" stroke-linecap="square" stroke-linejoin="bevel" stroke-miterlimit="4" stroke-dasharray="none" stroke-dashoffset="0" stroke-opacity=".078"/><path d="M19.754 2.742h8.495c13.908 0 16.805 11.247 16.805 17.282v7.124c0 5.96-2.704 17.282-17.837 17.282h-6.93c-11.562 0-17.146-7.708-17.146-17.282v-7.124c0-9.574 5.47-17.282 16.613-17.282z" id="path4530" opacity="1" fill="#4ec24e" fill-opacity="1" stroke="#000" stroke-width=".334" stroke-linecap="square" stroke-linejoin="bevel" stroke-miterlimit="4" stroke-dasharray="none" stroke-dashoffset="0" stroke-opacity=".078"/><style type="text/css" id="style4485-2"/><g id="g1370" transform="matrix(.9776 0 0 .9325 55.238 1.405)" fill-opacity="1" stroke="none"><g transform="translate(-55.851 -.086)" id="g1286" fill="#42535e"><path id="path1264" d="M24 18a6 6 0 1 0 0 12 6 6 0 0 0 0-12z" opacity="1"/><path id="rect1266" opacity="1" d="M23 14h2v5h-2z"/><circle id="circle1268" cx="24" cy="12" r="3" opacity="1"/><path id="rect1270" transform="rotate(72)" opacity="1" d="M28.96-25.487h2v5h-2z"/><circle id="circle1272" r="3" cy="-27.487" cx="29.96" transform="rotate(72)" opacity="1"/><path id="rect1274" transform="rotate(144)" opacity="1" d="M-6.094-43.728h2v5h-2z"/><circle id="circle1276" transform="rotate(144)" cx="-5.094" cy="-45.728" r="3" opacity="1"/><path id="rect1278" transform="scale(-1 1) rotate(72)" opacity="1" d="M14.13 20.16h2v5h-2z"/><circle id="ellipse1280" transform="scale(-1 1) rotate(72)" cx="15.13" cy="18.16" r="3" opacity="1"/><path id="rect1282" transform="scale(1 -1) rotate(-36)" opacity="1" d="M32.738-15.514h2v5h-2z"/><circle id="ellipse1284" cy="-17.514" cx="33.738" transform="scale(1 -1) rotate(-36)" r="3" opacity="1"/></g><path id="path1288" d="M-31.851 19.914c-.554 0-1 .446-1 1s.446 1 1 1 1-.446 1-1-.446-1-1-1zm0 3c-.554 0-1 .446-1 1v3c0 .554.446 1 1 1s1-.446 1-1v-3c0-.554-.446-1-1-1z" opacity="1" fill="#f9f9f9"/></g></svg>