<svg xmlns:osb="http://www.openswatchbook.org/uri/2009/osb" xmlns="http://www.w3.org/2000/svg" xmlns:xlink="http://www.w3.org/1999/xlink" width="48" height="48" version="1.1" id="svg38"><defs id="defs22"><linearGradient id="linearGradient4488"><stop id="stop4490" offset="0" stop-color="#000" stop-opacity=".047"/><stop id="stop4492" offset="1" stop-color="#000" stop-opacity="0"/></linearGradient><style id="style4511"/><style id="style4511-26"/><style id="style4511-9"/><style id="style4552"/><style id="style4511-2"/><linearGradient xlink:href="#linearGradient4488" id="linearGradient4540" gradientUnits="userSpaceOnUse" gradientTransform="matrix(.30673 0 0 .3038 -63.522 1.994)" x1="288.112" y1="141.785" x2="287.575" y2="79.008"/><linearGradient osb:paint="solid" id="linearGradient5293"><stop id="stop5295" offset="0" stop-color="#9a89c0" stop-opacity="1"/></linearGradient><linearGradient id="linearGradient7537"><stop id="stop7539" offset="0" stop-color="#f37e40" stop-opacity="1"/><stop id="stop7541" offset="1" stop-color="#f34f17" stop-opacity="1"/></linearGradient><linearGradient osb:paint="solid" id="linearGradient5251"><stop id="stop5253" offset="0" stop-color="#2f343f" stop-opacity="1"/></linearGradient><linearGradient id="linearGradient4239"><stop id="stop4241" offset="0" stop-color="#1268f4" stop-opacity="1"/><stop id="stop4243" offset="1" stop-color="#02bdfd" stop-opacity="1"/></linearGradient><linearGradient xlink:href="#linearGradient7537" id="linearGradient4470" x1="256" y1="375" x2="256" y2="135.281" gradientUnits="userSpaceOnUse" gradientTransform="matrix(.08536 0 0 .0882 3.367 .008)"/><linearGradient xlink:href="#linearGradient4239" id="linearGradient1651" x1="2.583" y1="23.739" x2="45.236" y2="23.739" gradientUnits="userSpaceOnUse"/><style id="style4511-8"/><style id="style4511-26-7"/><style id="style4511-9-7"/><style id="style4552-5"/><style id="style4511-2-5"/></defs><style id="style4485" type="text/css"/><path id="path4516" d="M2.75 26.22v1.669c0 9.574 5.638 17.282 17.312 17.282h6.998c15.278 0 18.008-11.323 18.008-17.282V26.22c0 5.96-2.73 17.282-18.008 17.282h-6.998c-11.674 0-17.311-7.708-17.311-17.282z" opacity="1" fill="url(#linearGradient4540)" fill-opacity="1" stroke="none" stroke-width="1.105" stroke-linecap="square" stroke-linejoin="bevel" stroke-miterlimit="4" stroke-dasharray="none" stroke-dashoffset="0" stroke-opacity=".078"/><path id="path4518" d="M19.525 2.743H28.1c14.042 0 16.967 11.329 16.967 17.408v7.175c0 6.003-2.73 17.408-18.009 17.408h-6.996c-11.674 0-17.311-7.764-17.311-17.408v-7.175c0-9.644 5.522-17.408 16.773-17.408z" opacity="1" fill="url(#linearGradient1651)" fill-opacity="1" stroke="#000" stroke-width=".337" stroke-linecap="square" stroke-linejoin="bevel" stroke-miterlimit="4" stroke-dasharray="none" stroke-dashoffset="0" stroke-opacity=".078"/><style type="text/css" id="style4485-8"/><path d="M29.518 29.75c-2.13-.685-6.274-1.054-7.22.871-.466-1.2-10.316-8.75-11.135.516-1.36-1.459-3.995-2.856-5.19.042l-2.69 1.518c.55 1.87 1.653 4.457 2.573 5.578 1.192 1.452 2.867 3.302 4.415 4.258 1.75 1.081 3.481 1.488 5.61 1.989 2.257.322 4.67.408 7.05.408 1.24 0 2.186-.053 3.409-.05 1.211.003 2.81-.1 3.738-.189.727-.07 2.792-.485 3.398-.652.629-.173 2.247-.794 2.961-1.133.772-.366 2.049-1.099 2.882-1.83.833-.733 1.603-1.497 2.264-2.355.63-.818 1.309-1.988 1.735-2.891.399-.844.722-1.931 1.147-2.927-1.654-1.176-3.366-1.44-5.15 0-2.968-3.84-3.226-3.394-8.1-2.113z" id="path1228" fill="#fff" fill-opacity=".811" fill-rule="nonzero" stroke="none" stroke-width=".903"/><path id="path4360" d="M16.633 12.003V33.17s10.391-4.339 18.882-10.59l-.002-.006-.004-.007-.004-.007c-.002-.002-.002-.004-.002-.006-8.957-6.45-18.87-10.55-18.87-10.55z" style="marker:none" color="#000" display="inline" overflow="visible" visibility="visible" fill="url(#linearGradient4470)" fill-opacity="1" fill-rule="nonzero" stroke="none" stroke-width=".521"/></svg>