<svg xmlns:osb="http://www.openswatchbook.org/uri/2009/osb" xmlns="http://www.w3.org/2000/svg" xmlns:xlink="http://www.w3.org/1999/xlink" width="48" height="48" version="1.1" id="svg38"><defs id="defs22"><linearGradient id="linearGradient4488"><stop id="stop4490" offset="0" stop-color="#000" stop-opacity=".047"/><stop id="stop4492" offset="1" stop-color="#000" stop-opacity="0"/></linearGradient><style id="style4511"/><style id="style4511-26"/><style id="style4511-9"/><style id="style4552"/><style id="style4511-2"/><linearGradient xlink:href="#linearGradient4488" id="linearGradient4540" gradientUnits="userSpaceOnUse" gradientTransform="matrix(-.00116 .30378 -.30727 -.00114 46.76 -62.407)" x1="288.112" y1="141.785" x2="287.575" y2="79.008"/><linearGradient osb:paint="solid" id="linearGradient5293"><stop id="stop5295" offset="0" stop-color="#9a89c0" stop-opacity="1"/></linearGradient><style id="style4511-87"/><style id="style4511-26-7"/><style id="style4511-9-1"/><style id="style4552-53"/><style id="style4511-2-9"/><style id="style4511-8"/><style id="style4511-26-4"/><style id="style4511-9-8"/><style id="style4552-5"/><style id="style4511-2-5"/></defs><style id="style4485" type="text/css"/><style type="text/css" id="style4485-7"/><style id="style4485-6" type="text/css"/><g id="g721" fill-opacity="1"><path id="path4518-7" d="M2.049 28.39c-.027 11.142 7.754 16.63 17.438 16.654l4.342.01.103-41.91-4.342-.01C13.485 3.119 2.104 5.989 2.07 19.896z" opacity="1" fill="#666" stroke="#000" stroke-width=".336" stroke-linecap="square" stroke-linejoin="bevel" stroke-miterlimit="4" stroke-dasharray="none" stroke-dashoffset="0" stroke-opacity=".078"/><path d="M22.006 3.137l-1.688-.007c-9.684-.036-17.5 5.518-17.545 17.08l-.026 6.93c-.058 15.132 11.384 17.878 17.412 17.9l1.687.007c-6.027-.022-17.47-2.769-17.412-17.9l.027-6.93C4.505 8.654 12.322 3.1 22.006 3.136z" id="path4516" opacity="1" fill="url(#linearGradient4540)" stroke="none" stroke-width="1.106" stroke-linecap="square" stroke-linejoin="bevel" stroke-miterlimit="4" stroke-dasharray="none" stroke-dashoffset="0" stroke-opacity=".078"/><path id="path4518" d="M46.108 19.838c.046-11.143-8.435-16.642-19-16.678l-4.737-.016-.173 41.91 4.736.016c6.66.023 19.081-2.832 19.139-16.739z" opacity="1" fill="#97e40c" stroke="#000" stroke-width=".351" stroke-linecap="square" stroke-linejoin="bevel" stroke-miterlimit="4" stroke-dasharray="none" stroke-dashoffset="0" stroke-opacity=".078"/><path id="rect1528" fill="#666" stroke="#666" stroke-width=".971" stroke-opacity="1" d="M22.653 16.026H41.02v17.158H22.653z"/><path id="path978" d="M22.358 7.632l.005 1.087v9.07c.183-.012.358-.013.542-.02 7.08-.225 11.7 5.492 11.7 5.492s-5.3 6.104-10.82 6.104c-.505 0-.977-.056-1.422-.13v1.648c.38.046.778.07 1.19.07 5.136 0 8.835-2.5 12.432-5.44.596.453 3.044 1.57 3.546 2.052-3.42 2.712-11.386 4.877-15.904 4.877-.436 0-.853-.012-1.264-.05v9.473l.004.216h8.112c1.474 0 2.79-.025 3.965-.09 1.175-.065 2.208-.171 3.117-.333.908-.162 1.692-.38 2.366-.67.338-.144.648-.307.933-.49a5.096 5.096 0 0 0 1.426-1.35c.193-.269.365-.561.518-.88.306-.639.536-1.38.707-2.24.172-.86.284-1.837.353-2.95.069-1.111.095-2.357.095-3.752v-8.94c0-1.394-.026-2.64-.095-3.752-.07-1.112-.181-2.09-.353-2.95-.17-.859-.4-1.6-.707-2.238a5.884 5.884 0 0 0-.518-.883 5.092 5.092 0 0 0-1.426-1.349 6.412 6.412 0 0 0-.932-.49c-.675-.29-1.459-.507-2.367-.67-.908-.161-1.942-.267-3.117-.332a72.549 72.549 0 0 0-3.965-.09zm.005 23.251c-6.285-.749-8.45-7.32-8.45-7.32s2.828-3.928 8.45-4.335V17.79c-6.227.474-11.614 5.47-11.614 5.47s3.049 8.366 11.614 9.132zm1.014-11.697a8.846 8.846 0 0 0-.472.001c-.186.007-.36.029-.542.041v1.75c.333-.034.676-.05 1.03-.05 3.261 0 5.203 2.413 5.203 2.413l-2.655 2.102c-1.191-1.882-1.596-2.71-3.578-2.937v5.35c.45.143.94.221 1.497.221 3.868 0 7.475-4.736 7.475-4.736s-3.134-4.04-7.958-4.155zm-1.014 8.67c-2.678-.852-3.546-3.821-3.546-3.821s1.558-1.755 3.546-1.529v-1.528c-3.788.388-6.072 2.785-6.072 2.785s1.322 4.669 6.072 5.47z" clip-path="none" fill="#97e40c" stroke-width=".331"/></g></svg>