<svg xmlns:osb="http://www.openswatchbook.org/uri/2009/osb" xmlns="http://www.w3.org/2000/svg" width="48" height="48" version="1.1" id="svg38"><defs id="defs22"><style id="style4511"/><style id="style4511-26"/><style id="style4511-9"/><style id="style4552"/><style id="style4511-2"/><linearGradient osb:paint="solid" id="linearGradient5293"><stop id="stop5295" offset="0" stop-color="#9a89c0" stop-opacity="1"/></linearGradient></defs><style id="style4485" type="text/css"/><path id="path4518" d="M19.363 2.844h8.495c13.908 0 16.804 11.247 16.804 17.282v7.123c0 5.96-2.704 17.282-17.836 17.282h-6.93C8.333 44.531 2.75 36.824 2.75 27.25v-7.123c0-9.574 5.47-17.282 16.613-17.282z" opacity="1" fill="#e6e6e6" fill-opacity="1" stroke="#000" stroke-width=".334" stroke-linecap="square" stroke-linejoin="bevel" stroke-miterlimit="4" stroke-dasharray="none" stroke-dashoffset="0" stroke-opacity=".078"/><g id="g447" transform="matrix(.77401 0 0 .73814 46.218 10.92)"><path id="path405" d="M-11.085 4.297l-10-7v40l10-7z" fill="#6ba63f"/><path id="path407" d="M-47.082 4.297l9.997-7v40l-10-7z" fill="#42afe6"/><path id="path409" d="M-37.085-2.703l24.058 34.359-8.058 5.64L-45.143 2.94z" fill="#96ca6b"/><path id="path411" d="M-21.085 20.147v17.15l8.06-5.641z" fill="#569e41"/><path id="path413" d="M-37.085-2.703l-8.058 5.642 8.058 11.507v-17.15z" fill="#70be63"/><path id="path415" d="M-37.085-2.703l-8.058 5.642-1.938 1.358v1l1.938-1.357 8.058-5.643 16 22.85v-1zm16 0v1l10 7v-1z" opacity=".2" fill="#fff"/></g></svg>