<svg xmlns:osb="http://www.openswatchbook.org/uri/2009/osb" xmlns="http://www.w3.org/2000/svg" xmlns:xlink="http://www.w3.org/1999/xlink" width="48" height="48" version="1.1" id="svg38"><defs id="defs22"><linearGradient id="linearGradient4488"><stop id="stop4490" offset="0" stop-color="#000" stop-opacity=".047"/><stop id="stop4492" offset="1" stop-color="#000" stop-opacity="0"/></linearGradient><style id="style4511"/><style id="style4511-26"/><style id="style4511-9"/><style id="style4552"/><style id="style4511-2"/><linearGradient xlink:href="#linearGradient4488" id="linearGradient4540" gradientUnits="userSpaceOnUse" gradientTransform="translate(-63.033 2.713) scale(.3038)" x1="288.112" y1="141.785" x2="287.575" y2="79.008"/><linearGradient osb:paint="solid" id="linearGradient5293"><stop id="stop5295" offset="0" stop-color="#9a89c0" stop-opacity="1"/></linearGradient><linearGradient gradientUnits="userSpaceOnUse" gradientTransform="matrix(2.6002 0 0 .04343 60.894 36.867)" id="linearGradient-7" y2="25.675" x2="4.536" y1="17.964" x1="4.536"><stop id="stop18-1" offset="0%" stop-color="#F7F7F7"/><stop id="stop20-2" offset="100%" stop-color="#F7F7F7"/></linearGradient><style id="style2" type="text/css"><![CDATA[.fil5{fill:none}.fil1{fill:#196FBA}.fil0{fill:#25B2EE}.fil4{fill:#793C7C}.fil3{fill:#8C508C}.fil2{fill:white}]]></style></defs><style id="style4485" type="text/css"/><rect id="Mask" x="63.147" y="78.204" width="20.231" height="20.096" rx=".581" fill="#f1f1f1" fill-opacity="1" fill-rule="evenodd" stroke="none" stroke-width=".336"/><path d="M82.713 37.983a.675.675 0 0 0-.584-.335H63.246a.675.675 0 0 0-.584.335z" id="use70" fill="url(#linearGradient-7)" fill-rule="evenodd" stroke="none" stroke-width=".336"/><g id="g449"><path d="M2.606 26.94v1.668c0 9.574 5.583 17.282 17.146 17.282h6.93c15.133 0 17.837-11.322 17.837-17.282V26.94c0 5.96-2.704 17.282-17.837 17.282h-6.93c-11.563 0-17.146-7.708-17.146-17.282z" id="path4516" opacity="1" fill="url(#linearGradient4540)" fill-opacity="1" stroke="none" stroke-width="1.1" stroke-linecap="square" stroke-linejoin="bevel" stroke-miterlimit="4" stroke-dasharray="none" stroke-dashoffset="0" stroke-opacity=".078"/><path d="M19.602 3.461h8.691c14.229 0 17.192 11.247 17.192 17.282v7.124c0 5.96-2.766 17.282-18.248 17.282h-7.09c-11.829 0-17.54-7.708-17.54-17.282v-7.124c0-9.574 5.595-17.282 16.995-17.282z" id="path4518" opacity="1" fill="#25b2ee" fill-opacity="1" stroke="#000" stroke-width=".338" stroke-linecap="square" stroke-linejoin="bevel" stroke-miterlimit="4" stroke-dasharray="none" stroke-dashoffset="0" stroke-opacity=".078"/><g transform="translate(.091 -.156)" id="g436"><g id="g426"><g transform="matrix(.16156 0 0 .1706 3.153 3.942)" id="g904" clip-rule="evenodd" fill-rule="evenodd" image-rendering="optimizeQuality" shape-rendering="geometricPrecision" text-rendering="geometricPrecision" fill="#fff" stroke-width=".926"><path d="M28.756 139.727l88.888 33.335v22.22L28.756 161.95zm0 0" id="path58"/><path d="M28.756 95.281l88.888 33.335v22.223l-88.888-33.335zm0 0" id="path60"/><path d="M28.756 50.839l88.888 33.33v22.224L28.756 73.058zm0 0" id="path62"/><path d="M139.867 134.172l88.889 33.334v22.22l-88.889-33.331zm0 0" id="path64"/><path d="M139.867 89.725l88.889 33.335v22.223l-88.889-33.335zm0 0" id="path66"/><path d="M139.867 45.283l88.889 33.33v22.224l-88.889-33.335zm0 0" id="path68"/></g></g></g></g></svg>