<svg xmlns="http://www.w3.org/2000/svg" xmlns:xlink="http://www.w3.org/1999/xlink" width="48" height="48" version="1.1" id="svg38"><defs id="defs22"><linearGradient id="linearGradient4488"><stop id="stop4490" offset="0" stop-color="#000" stop-opacity=".047"/><stop id="stop4492" offset="1" stop-color="#000" stop-opacity="0"/></linearGradient><style id="style4511"/><style id="style4511-26"/><style id="style4511-9"/><linearGradient id="linearGradient4227-5"><stop offset="0" id="stop8-7" stop-color="#2e3436" stop-opacity="1"/><stop offset="1" id="stop10-0" stop-color="#555753" stop-opacity="1"/></linearGradient><style id="style4552"/><style id="style4511-2"/><linearGradient xlink:href="#linearGradient4488" id="linearGradient4548" gradientUnits="userSpaceOnUse" gradientTransform="translate(-62.55 1.994) scale(.3038)" x1="288.112" y1="141.785" x2="287.575" y2="79.008"/><linearGradient xlink:href="#linearGradient4227-5" id="linearGradient1205" x1="2.82" y1="24.145" x2="45.066" y2="24.145" gradientUnits="userSpaceOnUse" gradientTransform="matrix(1 0 0 .98655 0 .611)"/></defs><style id="style4485" type="text/css"/><path id="path4532" d="M3.088 26.22v1.67c0 9.573 5.583 17.281 17.146 17.281h6.93c15.133 0 17.837-11.322 17.837-17.282v-1.668c0 5.96-2.704 17.282-17.837 17.282h-6.93c-11.563 0-17.146-7.708-17.146-17.282z" opacity="1" fill="url(#linearGradient4548)" fill-opacity="1" stroke="none" stroke-width="1.1" stroke-linecap="square" stroke-linejoin="bevel" stroke-miterlimit="4" stroke-dasharray="none" stroke-dashoffset="0" stroke-opacity=".078"/><path id="path4534" d="M19.6 3.419h8.494c13.907 0 16.803 11.338 16.803 17.422v7.181c0 6.008-2.704 17.423-17.835 17.423h-6.93c-11.56 0-17.144-7.77-17.144-17.423v-7.18c0-9.653 5.47-17.423 16.612-17.423z" opacity="1" fill="url(#linearGradient1205)" fill-opacity="1" stroke="#000" stroke-width=".336" stroke-linecap="square" stroke-linejoin="bevel" stroke-miterlimit="4" stroke-dasharray="none" stroke-dashoffset="0" stroke-opacity=".078"/><g id="g1209" transform="matrix(1.07786 0 0 1.01478 -1.289 -.502)" fill-opacity="1" fill-rule="evenodd" stroke="none"><path id="path361" d="M17.853 9.546c-2.869 1.514-5.27 4.345-5.339 7.715-.055 1.75.31 3.593 1.165 5.1 3 .051 6.09 1.764 7.141 4.682 1.541 3.857-.273 8.977-4.328 10.398-2.08.75-4.393.415-6.403-.392 2.748 1.73 6.407 2.392 9.36.76 1.546-.819 2.907-2.058 3.834-3.526-1.459-2.63-1.517-6.158.482-8.533 2.562-3.266 7.9-4.272 11.162-1.473 1.69 1.425 2.555 3.595 2.861 5.738.123-3.242-1.128-6.738-4.01-8.48-1.482-.946-3.232-1.464-4.969-1.584-1.549 2.58-4.575 4.395-7.632 3.854-4.107-.58-7.652-4.693-6.859-8.916.388-2.176 1.837-4.01 3.538-5.344z" opacity=".1" fill="#000"/><path id="path363" d="M17.853 9.546c-2.869 1.514-5.27 4.345-5.339 7.715-.055 1.75.31 3.593 1.165 5.1 3 .051 6.09 1.764 7.141 4.682 1.541 3.857-.273 8.977-4.328 10.398-2.08.75-4.393.415-6.403-.392 2.748 1.73 6.407 2.392 9.36.76 1.546-.819 2.907-2.058 3.834-3.526-1.459-2.63-1.517-6.158.482-8.533 2.562-3.266 7.9-4.272 11.162-1.473 1.69 1.425 2.555 3.595 2.861 5.738.123-3.242-1.128-6.738-4.01-8.48-1.482-.946-3.232-1.464-4.969-1.584-1.549 2.58-4.575 4.395-7.632 3.854-4.107-.58-7.652-4.693-6.859-8.916.388-2.176 1.837-4.01 3.538-5.344z" fill="#f9f9f9"/></g></svg>