<svg xmlns:osb="http://www.openswatchbook.org/uri/2009/osb" xmlns="http://www.w3.org/2000/svg" xmlns:xlink="http://www.w3.org/1999/xlink" width="48" height="48" version="1.1" id="svg38"><defs id="defs22"><linearGradient id="linearGradient4488"><stop id="stop4490" offset="0" stop-color="#000" stop-opacity=".047"/><stop id="stop4492" offset="1" stop-color="#000" stop-opacity="0"/></linearGradient><style id="style4511"/><style id="style4511-26"/><style id="style4511-9"/><style id="style4552"/><style id="style4511-2"/><linearGradient xlink:href="#linearGradient4488" id="linearGradient4540" gradientUnits="userSpaceOnUse" gradientTransform="rotate(.202 -417.737 -16584.553) scale(.3038)" x1="288.112" y1="141.785" x2="287.575" y2="79.008"/><linearGradient osb:paint="solid" id="linearGradient5293"><stop id="stop5295" offset="0" stop-color="#9a89c0" stop-opacity="1"/></linearGradient><style id="style4511-87"/><style id="style4511-26-7"/><style id="style4511-9-1"/><style id="style4552-53"/><style id="style4511-2-9"/><style id="style4511-8"/><style id="style4511-26-4"/><style id="style4511-9-8"/><style id="style4552-5"/><style id="style4511-2-5"/><filter height="1.095" y="-.048" width="1.097" x="-.048" id="filter991" color-interpolation-filters="sRGB"><feGaussianBlur id="feGaussianBlur993" stdDeviation=".799"/></filter></defs><style id="style4485" type="text/css"/><style type="text/css" id="style4485-7"/><style id="style4485-6" type="text/css"/><path id="path4516" d="M3.157 25.942l-.006 1.669c-.036 9.574 5.518 17.303 17.08 17.347l6.93.026c15.133.056 17.88-11.256 17.902-17.215l.006-1.669c-.022 5.96-2.769 17.272-17.901 17.215l-6.93-.026C8.675 43.245 3.12 35.517 3.157 25.942z" opacity="1" fill="url(#linearGradient4540)" fill-opacity="1" stroke="none" stroke-width="1.1" stroke-linecap="square" stroke-linejoin="bevel" stroke-miterlimit="4" stroke-dasharray="none" stroke-dashoffset="0" stroke-opacity=".078"/><path d="M19.859 2.527C8.716 2.485 3.216 10.17 3.18 19.745l-.016 4.293 41.912.158.016-4.293c.023-6.035-2.832-17.292-16.74-17.344z" id="path4518" opacity="1" fill="#ff5900" fill-opacity="1" stroke="#000" stroke-width=".334" stroke-linecap="square" stroke-linejoin="bevel" stroke-miterlimit="4" stroke-dasharray="none" stroke-dashoffset="0" stroke-opacity=".078"/><path d="M28.41 45.674c11.144.027 16.633-7.667 16.656-17.241l.01-4.293-41.912-.102-.01 4.293c-.015 6.035 2.855 17.288 16.763 17.322z" id="path4518-7" opacity="1" fill="#ff9c4e" fill-opacity="1" stroke="#000" stroke-width=".334" stroke-linecap="square" stroke-linejoin="bevel" stroke-miterlimit="4" stroke-dasharray="none" stroke-dashoffset="0" stroke-opacity=".078"/><path d="M32.687 282.726c.058-.008.1-.025.115-.044.03-.04.016-.15-.03-.24-.038-.074-.043-.126-.014-.144.01-.007.115-.018.23-.025.237-.014.355-.046.445-.12.133-.11.155-.277.061-.465a1.881 1.881 0 0 0-.375-.48c-.261-.252-.477-.392-.758-.492-.226-.081-.265-.116-.308-.278a.711.711 0 0 0-.086-.168c-.118-.173-.177-.446-.225-1.037-.052-.644-.062-1.063-.071-2.975l-.009-1.953.1-.2c.184-.367.351-.736.396-.871.075-.23.113-.469.162-1.022.09-1.017.19-1.335.984-3.15.669-1.53 1.098-2.587 1.362-3.352.244-.708.445-1.124.63-1.302.068-.065.165-.114.224-.114.098 0 .246.128.369.318.12.186.376.727.543 1.15.3.759.54 1.524.762 2.436.29 1.185.448 1.66.802 2.405.26.546.3.675.356 1.188.067.605.197 1.093.396 1.49.079.155.142.247.258.372.142.154.16.186.218.402.03.11.15.529.268.93a59.18 59.18 0 0 1 .802 2.974c.144.593.257 1.008.365 1.34.115.355.123.435.073.763-.041.275-.036.443.019.64.1.365.334.584.726.684.301.077.503.09 1.341.092.824 0 .93-.006 1.141-.076.123-.04.228-.125.263-.212a.9.9 0 0 0 .037-.193c.015-.157.03-.175.133-.149a.2.2 0 0 0 .208-.053c.167-.155.176-.623.015-.779-.125-.12-.323-.163-.892-.188-.586-.026-.79-.07-1.078-.23-.174-.098-.307-.215-.355-.316a1.618 1.618 0 0 1-.077-.277 3.27 3.27 0 0 0-.084-.33c-.061-.181-.297-.662-.569-1.161-.411-.757-.55-1.088-.711-1.708a68.751 68.751 0 0 0-.328-1.177 24.88 24.88 0 0 1-.26-.956c-.05-.245-.057-.483-.03-1.039.028-.586.028-1.014 0-1.185a5.316 5.316 0 0 0-.103-.419c-.122-.43-.14-.56-.14-1.005 0-.51.04-.915.224-2.195.189-1.313.234-1.784.246-2.54.005-.313.014-.574.02-.581.007-.007.408-.151.891-.321.484-.17.985-.348 1.114-.395 1.12-.412 1.652-.706 2.207-1.219 1.275-1.176 2.091-2.87 2.851-5.916.373-1.493.544-2.447.63-3.515.017-.205.038-.659.068-1.482.038-1.011.094-1.208.587-2.046.207-.352.414-.746.487-.93.03-.073.071-.224.093-.335.022-.11.047-.218.056-.238.018-.041.426-.247.763-.383.252-.102.752-.35.896-.444a3.54 3.54 0 0 0 .235-.172l.145-.115c.011-.01.1.023.226.08.114.051.271.113.35.137.132.04.165.044.46.045.359 0 .493-.024.721-.133.252-.12.328-.216.361-.45.031-.225-.002-.35-.143-.54-.036-.049-.02-.08.078-.15.134-.096.156-.163.156-.469 0-.327-.007-.342-.28-.625a3.79 3.79 0 0 1-.584-.766c-.266-.472-.358-.597-.489-.659-.148-.07-.53-.098-1.704-.12-1.231-.024-1.623-.052-1.986-.144-.3-.075-.478-.177-.82-.466-.228-.194-.256-.201-.714-.202-.407 0-.651.02-1.005.086-.27.05-.43.054-.545.014a4.62 4.62 0 0 1-.293-.126 3.71 3.71 0 0 0-.293-.123c-.328-.104-.619-.066-.867.111-.228.162-.382.377-.683.95-.105.199-.28.523-.392.721-.424.757-.558 1.165-.575 1.751-.014.453.024.638.26 1.294.129.354.128.352.128 1.38 0 .588-.007 1.01-.021 1.189a27.233 27.233 0 0 1-.264 2.338c-.104.61-.174.81-.343.98-.212.215-.514.285-1.232.285-.606 0-.88-.044-1.165-.186-.467-.235-1.053-.817-1.568-1.56a14.298 14.298 0 0 1-.722-1.183c-.907-1.607-1.391-2.22-2.363-2.983-.586-.46-.879-.898-1.12-1.671-.244-.786-.612-1.35-1.2-1.839-.708-.587-1.319-.788-2.402-.79-.44 0-.632.018-.918.091-.6.154-1.006.461-1.25.95-.094.186-.143.385-.323 1.286-.18.911-.28 1.262-.466 1.643-.13.265-.27.46-.497.686-.274.273-.463.367-.63.312-.138-.045-.21-.162-.72-1.183-.471-.938-.596-1.175-.787-1.494-.33-.55-.606-.8-.982-.888-.108-.025-.198-.03-.524-.03-.454.003-.506.012-.846.158-.892.382-1.585.95-1.801 1.474-.115.278-.557 1.664-.82 2.57-.15.516-.21.684-.338.937-.16.32-.244.427-.653.834a5.503 5.503 0 0 0-.53.578c-.386.52-.724 1.138-1.126 2.065-.612 1.408-.824 2.132-.891 3.036-.03.387-.012 1.261.042 2.172.054.906.052 1.286-.008 1.475a2.96 2.96 0 0 1-.276.561c-.132.204-.21.267-.822.67a4.988 4.988 0 0 0-.52.381c-.433.39-.719.879-.756 1.297-.012.137.014.229.07.243.108.027.73-.268 1.497-.71.403-.23.64-.384.939-.606.302-.224.4-.285.479-.298.047-.008.06-.003.077.03.102.19.512 1.865.844 3.449.298 1.42.361 1.911.361 2.836 0 .728-.046 1.24-.16 1.772-.1.467-.113.6-.102 1.141.01.496.029.772.153 2.204.12 1.379.142 1.951.111 2.824a91.517 91.517 0 0 1-.262 4.005c-.057.573-.098.775-.225 1.104-.124.322-.17.49-.18.672-.015.27.046.436.23.62.229.229.553.293 1.282.253.99-.054 1.146-.099 1.096-.314-.024-.108-.019-.17.017-.19a.59.59 0 0 1 .172-.017c.18 0 .33-.025.382-.064a.406.406 0 0 0 .084-.105c.034-.06.042-.097.042-.2a.37.37 0 0 0-.059-.234c-.07-.13-.253-.32-.452-.47-.605-.453-1.03-.96-1.097-1.309-.106-.555-.09-2.158.04-3.952.072-.983.099-1.45.118-2.062.02-.632.033-.703.193-1.072.084-.195.182-.537.25-.879.084-.41.1-.54.1-.814 0-.28-.034-.46-.132-.7-.083-.206-.098-.315-.075-.563a7.522 7.522 0 0 1 .36-1.753c.14-.41.263-.69.557-1.27.406-.802.556-1.152.614-1.433.099-.48.115-1.447.031-1.905a2.144 2.144 0 0 1-.028-.327c0-.148.006-.18.048-.273a.52.52 0 0 1 .299-.28c.16-.047.248-.025.351.09.126.14.22.37.424 1.043.21.694.52 1.647.855 2.63.749 2.194.926 2.893 1.13 4.448.16 1.223.284 1.7.663 2.547.12.27.567 1.154.854 1.693.59 1.102.891 1.895 1.165 3.058.17.726.28 1.068.44 1.383.076.147.108.188.267.345.2.197.205.208.144.344-.029.064-.038.123-.044.276-.01.258.017.354.124.448.1.088.353.212.5.246.142.033.54.057.942.058.313 0 .64.025.666.05.023.022 0 .07-.143.297-.174.274-.215.362-.215.459 0 .103.07.24.205.4.293.348.632.495 1.311.57.393.043 1.151.062 1.348.033zm-2.595-3.276c-.17-.089-.364-.251-.68-.568a4.333 4.333 0 0 1-.665-.797c-.42-.629-.73-1.472-1.177-3.193-.377-1.45-.562-2.36-.658-3.233-.042-.379-.04-1.629.001-2.17.038-.482.054-1.49.03-1.794a34.93 34.93 0 0 0-.044-.486c-.077-.781-.059-2.113.032-2.377.016-.047.031-.062.067-.066.072-.01.254.054.575.2.49.222.835.325 1.236.368.405.043.93-.037 1.27-.195a.478.478 0 0 1 .144-.05c.027.016.037.27.052 1.264.02 1.262.038 1.534.168 2.485.11.81.123.953.124 1.446.001.492-.013.628-.108 1.056a4.264 4.264 0 0 0-.118 1.106c0 .522.05.938.179 1.5a9.867 9.867 0 0 1 .124 4.016c-.091.556-.303 1.463-.356 1.526-.028.034-.077.025-.196-.038z" id="path817" transform="matrix(.65869 0 0 .63976 5.46 -142.387)" opacity=".3" fill="#000" stroke-width=".017" filter="url(#filter991)"/><ellipse id="path1076" cx="12.839" cy="11.999" rx="4.264" ry="4.141" display="inline" opacity="1" fill="#fb0" fill-opacity="1" stroke="none" stroke-width=".35" stroke-linecap="round" stroke-linejoin="round" stroke-miterlimit="4" stroke-dasharray="none" stroke-dashoffset="0" stroke-opacity="1" enable-background="new"/><path id="path977" d="M26.99 37.554c.038-.005.066-.015.076-.027.02-.024.01-.093-.02-.148-.025-.046-.028-.078-.01-.09a.998.998 0 0 1 .153-.014c.156-.009.233-.028.292-.074.088-.068.103-.17.04-.287a1.173 1.173 0 0 0-.246-.296 1.339 1.339 0 0 0-.5-.303c-.148-.05-.174-.072-.203-.172a.429.429 0 0 0-.056-.103c-.078-.107-.117-.275-.149-.64-.034-.397-.04-.655-.046-1.834l-.006-1.204.066-.123c.12-.226.231-.453.26-.537.05-.141.075-.289.107-.63.06-.627.125-.822.648-1.942.44-.943.724-1.595.897-2.066.16-.437.294-.693.416-.803a.267.267 0 0 1 .147-.07c.064 0 .162.079.243.196.08.115.248.448.358.709.197.468.355.94.502 1.502.19.73.295 1.024.528 1.482.172.337.197.416.234.733.045.373.13.673.261.918a.88.88 0 0 0 .17.23.418.418 0 0 1 .143.247c.02.069.1.327.177.574.223.708.365 1.203.529 1.833.095.366.169.621.24.826.076.219.08.269.048.47a.809.809 0 0 0 .012.396c.067.224.22.36.479.421.198.047.331.056.883.056.543 0 .613-.003.752-.046.08-.025.15-.078.173-.131a.527.527 0 0 0 .025-.119c.01-.097.02-.108.087-.092a.138.138 0 0 0 .137-.033c.11-.095.116-.384.01-.48-.082-.074-.213-.1-.588-.116-.386-.016-.52-.042-.71-.142a.565.565 0 0 1-.234-.194.948.948 0 0 1-.05-.171 1.904 1.904 0 0 0-.055-.204 6.536 6.536 0 0 0-.375-.715c-.271-.467-.362-.671-.469-1.053-.037-.134-.134-.46-.216-.726-.081-.266-.158-.53-.17-.589-.034-.151-.039-.298-.021-.64.018-.362.018-.625 0-.731a3.13 3.13 0 0 0-.068-.258 1.648 1.648 0 0 1-.092-.62c0-.314.027-.564.148-1.353.124-.81.154-1.1.162-1.565.003-.194.01-.355.013-.36.004-.004.268-.093.587-.197.318-.105.649-.214.733-.244.738-.254 1.088-.435 1.454-.75.84-.726 1.378-1.77 1.878-3.648.246-.92.358-1.508.415-2.167.011-.126.025-.406.045-.913.025-.624.062-.745.387-1.262a5.39 5.39 0 0 0 .32-.573c.02-.046.047-.139.062-.207a1.34 1.34 0 0 1 .036-.146c.012-.026.281-.153.503-.237.166-.063.496-.215.59-.273a2.33 2.33 0 0 0 .155-.106l.095-.071a.464.464 0 0 1 .15.049 2.7 2.7 0 0 0 .23.085c.087.025.109.027.303.027.236 0 .325-.015.475-.082.166-.074.216-.133.238-.278.02-.138-.001-.214-.095-.333-.023-.03-.012-.049.052-.092.088-.06.103-.1.103-.289 0-.201-.005-.21-.185-.385a2.359 2.359 0 0 1-.385-.472c-.174-.291-.235-.368-.321-.407-.098-.043-.35-.06-1.123-.074-.811-.014-1.069-.032-1.308-.088-.198-.047-.315-.11-.54-.288-.15-.119-.169-.124-.47-.124-.269 0-.43.012-.663.053-.177.03-.282.033-.358.009a3.223 3.223 0 0 1-.194-.078 2.547 2.547 0 0 0-.193-.076.65.65 0 0 0-.57.069c-.15.1-.252.232-.45.585-.07.123-.185.323-.258.445-.28.466-.368.718-.38 1.08-.009.278.016.392.172.797.084.218.084.217.084.85 0 .363-.005.624-.014.733-.05.595-.108 1.08-.173 1.442-.069.376-.115.5-.226.605-.14.132-.34.175-.812.175-.4 0-.58-.028-.767-.115-.308-.145-.694-.503-1.033-.962a8.734 8.734 0 0 1-.476-.73c-.597-.99-.916-1.367-1.556-1.838-.386-.284-.58-.553-.737-1.03a2.244 2.244 0 0 0-.792-1.134c-.466-.362-.868-.486-1.582-.487-.29 0-.416.011-.604.057-.396.094-.663.284-.824.585-.061.115-.094.237-.212.793-.12.562-.185.778-.307 1.012a1.471 1.471 0 0 1-.327.423c-.181.17-.306.227-.416.193-.09-.028-.137-.1-.474-.73-.31-.578-.392-.724-.518-.92-.218-.34-.4-.494-.647-.548-.071-.016-.13-.019-.345-.018-.3.001-.334.007-.558.097-.587.236-1.044.585-1.186.908a28.25 28.25 0 0 0-.54 1.585c-.1.318-.139.422-.222.578-.106.197-.161.263-.431.514a3.484 3.484 0 0 0-.348.356c-.255.32-.478.702-.743 1.273-.403.869-.543 1.314-.587 1.872-.019.239-.007.777.028 1.339.036.558.035.792-.005.909a1.87 1.87 0 0 1-.182.346c-.087.126-.138.165-.541.413a3.32 3.32 0 0 0-.342.235c-.286.24-.474.542-.499.8-.008.084.01.14.047.15.07.016.48-.166.986-.438a5.74 5.74 0 0 0 .618-.374c.199-.138.263-.176.315-.183.031-.005.04-.002.051.018.067.117.337 1.15.556 2.126.197.875.238 1.178.238 1.749 0 .448-.03.763-.106 1.092-.066.287-.074.37-.067.703.007.306.02.476.101 1.359.079.85.094 1.203.073 1.74a52.856 52.856 0 0 1-.172 2.47c-.038.353-.065.478-.148.68-.082.199-.112.303-.119.415-.01.167.03.268.151.382.151.141.364.18.845.156.651-.033.755-.061.722-.194-.016-.066-.013-.105.011-.117a.412.412 0 0 1 .113-.01c.12 0 .217-.016.252-.04.015-.01.04-.04.055-.065.023-.037.028-.059.028-.123a.217.217 0 0 0-.039-.144 1.122 1.122 0 0 0-.298-.29c-.399-.279-.679-.592-.722-.807-.07-.342-.06-1.33.026-2.436.047-.606.065-.894.078-1.271.013-.39.021-.434.127-.661.055-.12.12-.331.165-.542a1.94 1.94 0 0 0 .065-.502.968.968 0 0 0-.086-.432.576.576 0 0 1-.05-.346c.038-.39.117-.75.238-1.081a5.2 5.2 0 0 1 .366-.784c.267-.493.366-.71.404-.882.066-.297.076-.893.02-1.175a1.239 1.239 0 0 1-.018-.201.334.334 0 0 1 .229-.34c.105-.03.164-.016.231.054.083.086.145.228.28.643.138.428.342 1.015.563 1.62.493 1.354.61 1.785.744 2.744.106.754.187 1.047.437 1.57.079.166.373.711.562 1.043.388.68.587 1.169.767 1.886.113.447.185.658.29.852a.67.67 0 0 0 .176.213c.132.122.135.128.095.212a.398.398 0 0 0-.029.17c-.006.16.011.218.082.276.065.054.232.131.329.152.094.02.355.035.62.035.207 0 .422.016.439.031.015.014 0 .044-.094.183-.114.17-.141.224-.142.284 0 .063.047.148.136.246.192.214.416.305.863.351.26.027.758.039.888.021zm-1.71-2.02c-.111-.055-.24-.154-.448-.35a2.72 2.72 0 0 1-.437-.491c-.276-.388-.481-.908-.776-1.968-.248-.894-.37-1.456-.433-1.994a10.822 10.822 0 0 1 0-1.338c.026-.296.036-.918.02-1.105l-.029-.3c-.05-.482-.039-1.303.021-1.465.011-.03.02-.039.044-.041.048-.006.168.033.379.123.324.137.55.2.814.227a1.88 1.88 0 0 0 .838-.12.33.33 0 0 1 .094-.031c.017.01.024.167.034.779.013.779.025.946.11 1.533.074.498.082.586.082.89.001.304-.008.388-.07.652-.062.26-.078.4-.078.681 0 .322.032.579.117.925.21.859.235 1.608.082 2.476-.06.343-.2.902-.234.941-.019.021-.05.015-.13-.024z" fill="#fff" fill-opacity="1" stroke-width=".011"/></svg>