<svg xmlns="http://www.w3.org/2000/svg" xmlns:xlink="http://www.w3.org/1999/xlink" width="48" height="48" version="1.1" id="svg38"><defs id="defs22"><linearGradient id="linearGradient4488"><stop id="stop4490" offset="0" stop-color="#000" stop-opacity=".047"/><stop id="stop4492" offset="1" stop-color="#000" stop-opacity="0"/></linearGradient><style id="style4511"/><style id="style4511-26"/><style id="style4511-9"/><style id="style4552"/><style id="style4511-2"/><linearGradient gradientTransform="translate(-63.205 2.216) scale(.3038)" xlink:href="#linearGradient4488" id="linearGradient4160" x1="288.112" y1="141.785" x2="287.575" y2="79.008" gradientUnits="userSpaceOnUse"/><clipPath id="clipPath-883211809"/><radialGradient gradientTransform="matrix(.1835 -.20928 .61209 .69812 -257.166 -203.5)" r="148.95" cy="395.05" cx="182.98" gradientUnits="userSpaceOnUse" id="radial0"><stop id="stop1200" stop-opacity="1" stop-color="#008cbe"/><stop id="stop1202" stop-opacity="1" stop-color="#b2ffff" offset="1"/></radialGradient></defs><style id="style4485" type="text/css"/><path d="M19.046 2.965h8.495c13.908 0 16.805 11.246 16.805 17.282v7.123c0 5.96-2.704 17.282-17.837 17.282h-6.93c-11.562 0-17.146-7.708-17.146-17.282v-7.123c0-9.575 5.47-17.282 16.613-17.282z" id="rect4144" opacity="1" fill="#e3e7ea" fill-opacity="1" stroke="#000" stroke-width=".334" stroke-linecap="square" stroke-linejoin="bevel" stroke-miterlimit="4" stroke-dasharray="none" stroke-dashoffset="0" stroke-opacity=".078"/><path d="M2.433 26.443v1.668c0 9.575 5.583 17.282 17.146 17.282h6.93c15.133 0 17.837-11.322 17.837-17.282v-1.668c0 5.96-2.704 17.282-17.837 17.282h-6.93c-11.563 0-17.146-7.708-17.146-17.282z" id="path4147" opacity="1" fill="url(#linearGradient4160)" fill-opacity="1" stroke="none" stroke-width="1.1" stroke-linecap="square" stroke-linejoin="bevel" stroke-miterlimit="4" stroke-dasharray="none" stroke-dashoffset="0" stroke-opacity=".078"/><path id="path1245" d="M14.529 12.65c-4.165 4.742-3.155 13.585 2.246 19.752 5.404 6.162 13.158 7.309 17.319 2.563 4.16-4.742 3.154-13.59-2.251-19.747-5.405-6.167-13.158-7.312-17.319-2.567m3.776 1.972c3.27-3.732 9.28-2.92 13.427 1.811 4.147 4.73 4.86 11.59 1.586 15.318-3.266 3.732-9.284 2.92-13.427-1.807-4.148-4.73-4.856-11.586-1.59-15.317m.004 0" fill="url(#radial0)" fill-rule="nonzero" stroke="none" stroke-width="1.139"/><path id="path1247" d="M30.612 14.42h2.147c.324 0 .587.28.587.623v2.279a.587.623 0 0 1-.587.623h-2.147a.587.623 0 0 1-.587-.623v-2.279c0-.344.263-.623.587-.623m0 0" fill="#ff6212" fill-opacity="1" fill-rule="nonzero" stroke="none" stroke-width="1.139"/><path id="path1249" d="M11.492 19.115h4.999a1.371 1.455 0 0 1 1.373 1.453v5.309a1.371 1.455 0 0 1-1.373 1.453h-5a1.371 1.455 0 0 1-1.373-1.453v-5.309a1.371 1.455 0 0 1 1.374-1.453m0 0" fill="#ff6212" fill-opacity="1" fill-rule="nonzero" stroke="none" stroke-width="1.139"/><path id="path1251" d="M32.112 29.679h3.569c.54 0 .98.463.98 1.036v3.791a.979 1.039 0 0 1-.98 1.037h-3.57a.98 1.04 0 0 1-.98-1.037v-3.79c0-.574.44-1.037.98-1.037m0 0" fill="#ff6212" fill-opacity="1" fill-rule="nonzero" stroke="none" stroke-width="1.139"/></svg>