<svg xmlns="http://www.w3.org/2000/svg" xmlns:xlink="http://www.w3.org/1999/xlink" width="48" height="48" version="1.1" id="svg38"><defs id="defs22"><linearGradient id="linearGradient4488"><stop id="stop4490" offset="0" stop-color="#000" stop-opacity=".047"/><stop id="stop4492" offset="1" stop-color="#000" stop-opacity="0"/></linearGradient><style id="style4511"/><style id="style4511-26"/><style id="style4511-9"/><style id="style4552"/><style id="style4511-2"/><linearGradient xlink:href="#linearGradient4488" id="linearGradient4546" gradientUnits="userSpaceOnUse" gradientTransform="translate(-62.497 1.994) scale(.3038)" x1="288.112" y1="141.785" x2="287.575" y2="79.008"/></defs><style id="style4485" type="text/css"/><path d="M3.141 26.22v1.67c0 9.573 5.583 17.281 17.146 17.281h6.93c15.133 0 17.837-11.322 17.837-17.282v-1.668c0 5.96-2.704 17.282-17.837 17.282h-6.93c-11.563 0-17.146-7.708-17.146-17.282z" id="path4528" opacity="1" fill="url(#linearGradient4546)" fill-opacity="1" stroke="none" stroke-width="1.1" stroke-linecap="square" stroke-linejoin="bevel" stroke-miterlimit="4" stroke-dasharray="none" stroke-dashoffset="0" stroke-opacity=".078"/><path d="M19.754 2.742h8.495c13.908 0 16.805 11.247 16.805 17.282v7.124c0 5.96-2.704 17.282-17.837 17.282h-6.93c-11.562 0-17.146-7.708-17.146-17.282v-7.124c0-9.574 5.47-17.282 16.613-17.282z" id="path4530" opacity="1" fill="#da4f9f" fill-opacity="1" stroke="#000" stroke-width=".334" stroke-linecap="square" stroke-linejoin="bevel" stroke-miterlimit="4" stroke-dasharray="none" stroke-dashoffset="0" stroke-opacity=".078"/><g id="g1313" transform="matrix(0 -1.01911 1.03024 0 -.729 -.45)" fill="#fff" fill-rule="evenodd" stroke="none"><rect rx=".642" height="2.327" width="14.128" y="27.452" x="-31.005" id="Rectangle-119" stroke-width=".864"/><rect rx=".33" height="2.327" width="7.261" y="31.651" x="-26.947" id="rect1159" stroke-width=".62"/><rect rx=".735" height="2.327" width="16.18" y="36.037" x="-31.479" id="rect1161" stroke-width=".925"/><rect rx=".875" height="2.327" width="19.259" y="14.296" x="-33.531" id="Rectangle-119-6" stroke-width="1.009"/><rect rx=".689" height="2.327" width="15.154" y="18.681" x="-31.558" id="rect1159-7" stroke-width=".895"/><rect rx="1.026" height="2.327" width="22.575" y="23.067" x="-34.874" id="rect1161-5" stroke-width="1.093"/><rect rx=".414" height="2.327" width="9.111" y="9.831" x="-28.339" id="Rectangle-119-6-3" stroke-width=".694"/></g></svg>