<svg height="48" width="48" xmlns="http://www.w3.org/2000/svg" xmlns:xlink="http://www.w3.org/1999/xlink"><linearGradient id="a" gradientUnits="userSpaceOnUse" x1="24.32293075612" x2="24.16006343138" y1="45.29005345782" y2="26.21847261771"><stop offset="0" stop-opacity=".046875"/><stop offset="1" stop-opacity="0"/></linearGradient><path d="m2.4332147 26.442743v1.668528c0 9.574276 5.5832168 17.282199 17.1457273 17.282199h6.930445c15.132351 0 17.836399-11.322632 17.836399-17.282199v-1.668528c0 5.959567-2.704048 17.282198-17.836399 17.282198h-6.930445c-11.5625105 0-17.1457273-7.707923-17.1457273-17.282198z" fill="url(#a)"/><path d="m19.046357 2.9645209h8.495066c13.907739 0 16.804384 11.2468651 16.804384 17.2820841v7.123176c0 5.959564-2.704172 17.282082-17.836524 17.282082h-6.930103c-11.5625118 0-17.145935-7.707808-17.145935-17.282082v-7.123176c0-9.574274 5.4701791-17.2820841 16.613112-17.2820841z" style="fill:#2979e6;stroke:#000;stroke-width:.33418;stroke-linecap:square;stroke-linejoin:bevel;stroke-opacity:.078125"/><path d="m16.569203 11.586505v.695312.695313l-.570313.02148c-.313143.01235-.923408.02286-1.357421.02344-.434016.00057-.980853.0162-1.214844.0332-.401885.0292-.442687.03757-.71875.173828-.390255.192616-.747422.545512-.949219.9375l-.140625.275391-.02539 10.755859-.02539 10.755859h.517578.515625l.01172-10.585937c.0093-8.384337.02066-10.612598.05469-10.714844.05928-.178115.23298-.366082.41211-.445312.208669-.09231.77888-.1232 2.267578-.125l1.222656-.002v.410157.410156h.507812.509766l.01953-.111328c.01074-.06109.02998-.805712.04297-1.65625l.02344-1.546875h-.552735-.550781zm11.208984.06836-.0039.179688c-.0024.09868-.01372.40946-.02539.691406l-.02148.513672-3.162109.01953c-1.738668.01136-3.218573.02269-3.289063.02539l-.128906.0059v.494141.496093h3.316406 3.314453v.376954.375h.511719.513672v-1.589844-1.587891h-.513672-.511719zm4.580078 1.470703v.541016.542969l.640625.01758c.683878.01873.836069.04699.996094.181641.204149.17178.192521-.447098.181641 9.355468l-.01172 9.017578-.201172.402344c-.429739.857275-1.027477 1.391129-1.878906 1.677734l-.326172.109376-3.570313.02734c-1.964224.01503-5.489132.0281-7.833984.0293l-4.263672.002v.5.5l8.00586-.01758 8.003906-.01758.308594-.126953c1.40071-.576718 2.228224-1.40798 2.693359-2.705078l.08789-.244141.0098-9.1875.01172-9.189453-.07617-.195312c-.10255-.268497-.287926-.537319-.507812-.738282-.341163-.311803-.645208-.403134-1.466797-.433594-.281947-.01045-.578323-.0248-.658203-.0332l-.144532-.01563zm-16.576172 5.945313v.751953.751953h.751954.751953v-.751953-.751953h-.751953zm6.527344 0v.751953.751953h.769532.769531v-.751953-.751953h-.769531zm6.63086 0v.751953.751953h.769531.767578v-.751953-.751953h-.767578zm-13.158204 3.623047v.751953.751953h.751954.751953v-.751953-.751953h-.751953zm6.527344 0v.751953.751953h.769532.769531v-.751953-.751953h-.769531zm6.63086 0v.751953.751953h.769531.767578v-.751953-.751953h-.767578zm-13.158204 3.246094v.769531.767578h.751954.751953v-.767578-.769531h-.751953zm6.527344 0v.769531.767578h.769532.769531v-.767578-.769531h-.769531zm6.63086 0v.769531.767578h.769531.767578v-.767578-.769531h-.767578zm-13.158204 3.58789v.769531.769532h.751954.751953v-.769532-.769531h-.751953zm6.527344 0v.769531.769532h.769532.769531v-.769532-.769531h-.769531zm6.63086 0v.769531.769532h.769531.767578v-.769532-.769531h-.767578z" fill="#fff" stroke="#6cb6f5" stroke-width=".01367"/></svg>