<svg xmlns="http://www.w3.org/2000/svg" xmlns:xlink="http://www.w3.org/1999/xlink" width="48" height="48" version="1.1" id="svg38"><defs id="defs22"><linearGradient id="linearGradient4488"><stop id="stop4490" offset="0" stop-color="#000" stop-opacity=".047"/><stop id="stop4492" offset="1" stop-color="#000" stop-opacity="0"/></linearGradient><style id="style4511"/><style id="style4511-26"/><style id="style4511-9"/><style id="style4552"/><style id="style4511-2"/><linearGradient gradientTransform="translate(-63.205 2.216) scale(.3038)" xlink:href="#linearGradient4488" id="linearGradient4160" x1="288.112" y1="141.785" x2="287.575" y2="79.008" gradientUnits="userSpaceOnUse"/></defs><style id="style4485" type="text/css"/><path d="M2.433 26.443v1.668c0 9.575 5.583 17.282 17.146 17.282h6.93c15.133 0 17.837-11.322 17.837-17.282v-1.668c0 5.96-2.704 17.282-17.837 17.282h-6.93c-11.563 0-17.146-7.708-17.146-17.282z" id="path4147" opacity="1" fill="url(#linearGradient4160)" fill-opacity="1" stroke="none" stroke-width="1.1" stroke-linecap="square" stroke-linejoin="bevel" stroke-miterlimit="4" stroke-dasharray="none" stroke-dashoffset="0" stroke-opacity=".078"/><path d="M19.046 44.652h8.495c13.908 0 16.805-11.247 16.805-17.282v-7.123c0-5.96-2.704-17.282-17.837-17.282h-6.93c-11.562 0-17.146 7.707-17.146 17.282v7.123c0 9.574 5.47 17.282 16.613 17.282z" id="rect4144" opacity="1" fill="#ff9d17" fill-opacity="1" stroke="#000" stroke-width=".334" stroke-linecap="square" stroke-linejoin="bevel" stroke-miterlimit="4" stroke-dasharray="none" stroke-dashoffset="0" stroke-opacity=".078"/><path d="M24.152 11.096l-.133.013-.513.053c-2.861.293-5.263 2.017-6.643 4.769-.83 1.657-1.273 3.783-1.099 5.284l.056.47-.315.314c-.33.333-.535.635-.66.97-.282.752-.28 1.441.004 2.293.324.972.872 1.63 1.729 2.075.344.18.498.338.764.793.35.6.79 1.152 1.905 2.391l.25.28-.066.35c-.166.893-.481 1.535-1.056 2.145-1.321 1.4-3.756 2.229-6.214 2.116-.433-.02-.53-.014-.546.027-.051.134-.181.973-.16 1.029.023.06.095.06 1.065.041 1.895-.037 2.657-.167 3.956-.679 1.098-.432 1.86-.91 2.537-1.59.721-.725 1.131-1.383 1.374-2.21a3.96 3.96 0 0 1 .127-.39c.008-.009.24.085.515.209 1.241.556 2.327.774 3.402.687.789-.064 1.309-.208 1.973-.549 1.305-.669 2.308-1.81 3.224-3.673l.391-.797.365-.174c.828-.391 1.465-1.136 1.774-2.072.274-.832.251-1.81-.06-2.489-.113-.247-.393-.637-.538-.752a4.653 4.653 0 0 1-.236-.203l-.145-.13.041-.549c.136-1.875-.533-4.114-1.646-5.513-.253-.319-.995-1.073-1.033-1.05-.015.01-.169.205-.342.435l-.314.418.26.28c1.02 1.088 1.593 2.213 1.854 3.646.066.362.08.568.078 1.198-.001.872-.024.992-.285 1.551-.157.335-.162.356-.114.468.027.065.093.16.147.21.09.082.134.09.524.107.495.021.575.058.706.319.28.558.228 1.363-.13 2.11a1.737 1.737 0 0 1-.405.56c-.28.277-.464.39-1.016.618l-.362.149-.201.468c-.4.926-.979 1.965-1.352 2.426-.451.557-1.19 1.193-1.66 1.431-1.259.635-2.86.597-4.254-.101-.662-.333-1.147-.71-1.884-1.464-.878-.9-1.547-1.822-1.783-2.46l-.097-.263-.308-.14c-.63-.289-.823-.39-.992-.523-.353-.275-.712-.972-.816-1.588-.075-.442-.027-.771.178-1.24l.151-.344.307.025c.355.03.355.03.507.023.153-.007.36-.19.412-.364.038-.127.03-.155-.124-.441-.315-.587-.413-1.158-.35-2.036.174-2.43 1.3-4.792 2.944-6.172 1.12-.94 2.432-1.478 4.007-1.646l.41-.043-.021-.26-.044-.552-.02-.294zm4.925 22.699l-.267.265c-.147.146-.269.278-.269.292 0 .047.56.492.905.718.676.445 1.626.863 2.466 1.085a8.368 8.368 0 0 0 1.946.29c.373.016.856.03 1.073.033l.395.007-.027-.371c-.014-.204-.036-.383-.05-.396-.013-.012-.416-.04-.894-.064-1.256-.06-1.863-.153-2.644-.403a7.29 7.29 0 0 1-2.222-1.15l-.412-.306z" id="path14246" fill="#fff" fill-opacity="1" stroke="none" stroke-width=".45" stroke-miterlimit="4" stroke-dasharray="none" stroke-opacity="1"/></svg>