<svg xmlns="http://www.w3.org/2000/svg" xmlns:xlink="http://www.w3.org/1999/xlink" width="48" height="48" version="1.1" id="svg38"><defs id="defs22"><linearGradient id="linearGradient4488"><stop id="stop4490" offset="0" stop-color="#000" stop-opacity=".047"/><stop id="stop4492" offset="1" stop-color="#000" stop-opacity="0"/></linearGradient><style id="style4511"/><style id="style4511-26"/><style id="style4511-9"/><style id="style4552"/><style id="style4511-2"/><linearGradient gradientTransform="translate(-63.205 2.216) scale(.3038)" xlink:href="#linearGradient4488" id="linearGradient4160" x1="288.112" y1="141.785" x2="287.575" y2="79.008" gradientUnits="userSpaceOnUse"/></defs><style id="style4485" type="text/css"/><path d="M2.433 26.443v1.668c0 9.575 5.583 17.282 17.146 17.282h6.93c15.133 0 17.837-11.322 17.837-17.282v-1.668c0 5.96-2.704 17.282-17.837 17.282h-6.93c-11.563 0-17.146-7.708-17.146-17.282z" id="path4147" opacity="1" fill="url(#linearGradient4160)" fill-opacity="1" stroke="none" stroke-width="1.1" stroke-linecap="square" stroke-linejoin="bevel" stroke-miterlimit="4" stroke-dasharray="none" stroke-dashoffset="0" stroke-opacity=".078"/><path d="M19.046 2.965h8.495c13.908 0 16.805 11.246 16.805 17.282v7.123c0 5.96-2.704 17.282-17.837 17.282h-6.93c-11.562 0-17.146-7.708-17.146-17.282v-7.123c0-9.575 5.47-17.282 16.613-17.282z" id="rect4144" opacity="1" fill="#8273af" fill-opacity="1" stroke="#000" stroke-width=".334" stroke-linecap="square" stroke-linejoin="bevel" stroke-miterlimit="4" stroke-dasharray="none" stroke-dashoffset="0" stroke-opacity=".078"/><g id="g1217" transform="translate(.431 .503)"><g transform="matrix(.97124 0 0 .9667 .522 .025)" id="g1340" stroke-miterlimit="10" fill="none" stroke="#cdcdfc" stroke-width="1.402"><path id="line1205" d="M8.096 9.666h30.008"/><path id="line1207" d="M8.096 16.874h30.008"/><path id="line1209" d="M8.096 24.082h30.008"/><path id="line1211" d="M8.096 31.289h30.008"/><path id="line1213" d="M8.096 38.497h30.008"/></g><g transform="matrix(.78221 0 0 .79057 3.195 4.92)" id="g1333"><g id="g1227" transform="matrix(1.06981 0 0 1.16474 -5.541 -5.67)"><path d="M25.947 35.686l-3.762.138.624-3.247L41.992 14.74l1.428 1.398c.568.556.711 1.329.318 1.722z" id="path1219" fill="#f47c04"/><path d="M22.308 35.566l-.105-3.588 17.736-17.866c.388-.391 1.157-.26 1.719.292l.947.928z" id="path1221" fill="#fbb66b"/><path d="M18.509 39.52l3.733-7.588s1.294 1.031.23 2.096c-1.062 1.067.839-1.038 1.668-.217.832.823-1.429 2.822-.364 1.757 1.062-1.067 2.241.099 2.241.099z" id="path1223" fill="#e8d0b0"/><path d="M19.672 37.157l-1.178 2.13s-.324.583.253.25c.578-.333 2.109-1.221 2.109-1.221z" id="path1225" fill="#231815"/></g></g></g></svg>