<svg xmlns="http://www.w3.org/2000/svg" xmlns:xlink="http://www.w3.org/1999/xlink" width="48" height="48" version="1.1" id="svg38"><defs id="defs22"><linearGradient id="linearGradient4488"><stop id="stop4490" offset="0" stop-color="#000" stop-opacity=".047"/><stop id="stop4492" offset="1" stop-color="#000" stop-opacity="0"/></linearGradient><style id="style4511"/><style id="style4511-26"/><style id="style4511-9"/><style id="style4552"/><linearGradient id="e-1" y1="41.22" x1="24.392" y2="25.343" x2="20.643" gradientUnits="userSpaceOnUse"><stop stop-color="#334545" id="stop22-8"/><stop offset="1" stop-color="#536161" id="stop24-7"/></linearGradient><style id="style4511-2"/><linearGradient xlink:href="#linearGradient4488" id="linearGradient4546" gradientUnits="userSpaceOnUse" gradientTransform="translate(-62.497 1.994) scale(.3038)" x1="288.112" y1="141.785" x2="287.575" y2="79.008"/><linearGradient xlink:href="#e-1" id="linearGradient1152" x1="2.974" y1="23.586" x2="45.221" y2="23.586" gradientUnits="userSpaceOnUse"/><clipPath id="clipPath-465280370"/><clipPath id="clipPath-473423856"/></defs><style id="style4485" type="text/css"/><path d="M19.754 2.742h8.495c13.908 0 16.805 11.247 16.805 17.282v7.124c0 5.96-2.704 17.282-17.837 17.282h-6.93c-11.562 0-17.146-7.708-17.146-17.282v-7.124c0-9.574 5.47-17.282 16.613-17.282z" id="path4530" opacity="1" fill="url(#linearGradient1152)" fill-opacity="1" stroke="#000" stroke-width=".334" stroke-linecap="square" stroke-linejoin="bevel" stroke-miterlimit="4" stroke-dasharray="none" stroke-dashoffset="0" stroke-opacity=".078"/><path d="M3.141 26.22v1.67c0 9.573 5.583 17.281 17.146 17.281h6.93c15.133 0 17.837-11.322 17.837-17.282v-1.668c0 5.96-2.704 17.282-17.837 17.282h-6.93c-11.563 0-17.146-7.708-17.146-17.282z" id="path4528" opacity="1" fill="url(#linearGradient4546)" fill-opacity="1" stroke="none" stroke-width="1.1" stroke-linecap="square" stroke-linejoin="bevel" stroke-miterlimit="4" stroke-dasharray="none" stroke-dashoffset="0" stroke-opacity=".078"/><path id="path1199" d="M11.601 32.079h7v-1.406c-2-.594-2.406-1.363-3.902-3.035-1.496-1.672-2.242-3.785-2.242-6.332 0-2.828 1.039-5.238 3.113-7.23 2.086-1.996 4.813-2.996 8.164-2.996 3.254 0 5.91.945 7.977 2.84 2.066 1.883 3.098 4.289 3.098 7.23 0 2.391-.645 4.418-1.938 6.094-1.277 1.66-2.086 2.813-4.273 3.461v1.379h7v3h-9v-5c3-1 4.277-3.91 4.277-8.48 0-2.984-.727-5.27-2.176-6.867-1.438-1.594-3.129-2.391-5.066-2.391-2.066 0-3.777.848-5.137 2.543-1.344 1.684-2.02 3.844-2.02 6.473 0 1.902.301 3.645.91 5.207.605 1.566 1.543 2.52 3.211 3.523v5h-9" fill="#de8e00" fill-opacity="1" fill-rule="nonzero" stroke="none"/><path id="path1201" d="M15.601 15.079h16v3h-6v12h-4v-12h-6m0-3" fill="#0094de" fill-opacity="1" fill-rule="nonzero" stroke="none"/></svg>