<svg xmlns:osb="http://www.openswatchbook.org/uri/2009/osb" xmlns="http://www.w3.org/2000/svg" xmlns:xlink="http://www.w3.org/1999/xlink" width="48" height="48" version="1.1" id="svg38"><defs id="defs22"><linearGradient id="linearGradient4488"><stop id="stop4490" offset="0" stop-color="#000" stop-opacity=".047"/><stop id="stop4492" offset="1" stop-color="#000" stop-opacity="0"/></linearGradient><linearGradient id="linearGradient4154"><stop offset="0" id="stop2" stop-color="#000" stop-opacity="1"/><stop offset="1" id="stop4" stop-color="#000" stop-opacity="0"/></linearGradient><style id="style4511"/><style id="style4511-26"/><style id="style4511-9"/><style id="style4552"/><linearGradient id="e-1" y1="41.22" x1="24.392" y2="25.343" x2="20.643" gradientUnits="userSpaceOnUse"><stop stop-color="#334545" id="stop22-8"/><stop offset="1" stop-color="#536161" id="stop24-7"/></linearGradient><style id="style4511-2"/><linearGradient xlink:href="#linearGradient4488" id="linearGradient4540" gradientUnits="userSpaceOnUse" gradientTransform="matrix(.30902 0 0 .3038 -64.017 2.569)" x1="288.112" y1="141.785" x2="287.575" y2="79.008"/><linearGradient osb:paint="solid" id="linearGradient5293"><stop id="stop5295" offset="0" stop-color="#9a89c0" stop-opacity="1"/></linearGradient><linearGradient xlink:href="#e-1" id="linearGradient1422" x1="2.581" y1="24.161" x2="45.552" y2="24.161" gradientUnits="userSpaceOnUse" gradientTransform="rotate(-90 24.066 24.161)"/><linearGradient xlink:href="#linearGradient3680-6-6-6-3-7-1-8-8" id="linearGradient4565" gradientUnits="userSpaceOnUse" gradientTransform="matrix(.95905 0 0 .81111 -30.9 4.785)" x1="59.485" y1="35" x2="59.485" y2="-1"/><linearGradient id="linearGradient3680-6-6-6-3-7-1-8-8"><stop id="stop3682-4-6-1-3-7-7-4-0" offset="0" stop-color="#dcdcdc" stop-opacity="1"/><stop id="stop3684-8-5-8-0-2-6-8-4" offset="1" stop-color="#fff" stop-opacity="1"/></linearGradient><style id="style4511-8"/><linearGradient gradientTransform="translate(-384.57 504.56)" x2="0" gradientUnits="userSpaceOnUse" y2="503.8" y1="520.8" id="c-22"><stop id="stop12-936-8" stop-color="#197cf1"/><stop id="stop14-06-9" stop-color="#20bcfa" offset="1"/></linearGradient><style id="style4511-26-4"/><style id="style4511-9-8"/><style id="style4552-5"/><style id="style4511-2-5"/><linearGradient gradientTransform="matrix(.4157 0 0 -.4162 6.159 263.847)" gradientUnits="userSpaceOnUse" xlink:href="#linearGradient4154" id="linearGradient3149" y2="3.451" x2="76.523" y1="-9.023" x1="76.523"/><linearGradient xlink:href="#c-22" id="linearGradient2195" x1="19.767" y1="262.823" x2="45.761" y2="262.823" gradientUnits="userSpaceOnUse"/></defs><style id="style4485" type="text/css"/><g id="g1409" fill-opacity="1"><path d="M2.75 26.796v1.668c0 9.575 5.68 17.283 17.44 17.283h7.05c15.392 0 18.143-11.323 18.143-17.283v-1.668c0 5.96-2.75 17.282-18.143 17.282h-7.05c-11.76 0-17.44-7.708-17.44-17.282z" id="path4516" opacity="1" fill="url(#linearGradient4540)" stroke="none" stroke-width="1.109" stroke-linecap="square" stroke-linejoin="bevel" stroke-miterlimit="4" stroke-dasharray="none" stroke-dashoffset="0" stroke-opacity=".078"/><path d="M3.223 28.58v-8.642c0-14.147 11.247-17.093 17.282-17.093h7.123c5.96 0 17.282 2.75 17.282 18.143v7.05c0 11.76-7.708 17.44-17.282 17.44h-7.123c-9.574 0-17.282-5.564-17.282-16.899z" id="path4518" opacity="1" fill="url(#linearGradient1422)" stroke="#000" stroke-width=".337" stroke-linecap="square" stroke-linejoin="bevel" stroke-miterlimit="4" stroke-dasharray="none" stroke-dashoffset="0" stroke-opacity=".078"/><path d="M11.28 15.097a.67.846 0 0 0-.67.845v3.399a.67.846 0 0 0 .67.844h4.06a.67.846 0 0 0 .669-.844v-3.4a.67.846 0 0 0-.67-.844zm5.406 0a.67.846 0 0 0-.67.845v3.399a.67.846 0 0 0 .67.844h4.038a.67.846 0 0 0 .669-.844v-3.4a.67.846 0 0 0-.67-.844zm5.384 0a.67.846 0 0 0-.67.845v3.399a.67.846 0 0 0 .67.844h4.038a.67.846 0 0 0 .669-.844v-3.4a.67.846 0 0 0-.67-.844zm5.384 0a.67.846 0 0 0-.67.845v3.399a.67.846 0 0 0 .67.844h4.038a.67.846 0 0 0 .67-.844v-3.4a.67.846 0 0 0-.67-.844zm5.384 0a.67.846 0 0 0-.67.845v3.399a.67.846 0 0 0 .67.844h4.016a.67.846 0 0 0 .669-.844v-3.4a.67.846 0 0 0-.67-.844zm-21.559 5.098a.67.846 0 0 0-.669.845v3.399a.67.846 0 0 0 .67.845h4.06a.67.846 0 0 0 .669-.845V21.04a.67.846 0 0 0-.67-.845zm5.407 0a.67.846 0 0 0-.67.845v3.399a.67.846 0 0 0 .67.845h4.038a.67.846 0 0 0 .669-.845V21.04a.67.846 0 0 0-.67-.845zm5.384 0a.67.846 0 0 0-.67.845v3.399a.67.846 0 0 0 .67.845h4.038a.67.846 0 0 0 .669-.845V21.04a.67.846 0 0 0-.67-.845zm5.384 0a.67.846 0 0 0-.67.845v3.399a.67.846 0 0 0 .67.845h4.038a.67.846 0 0 0 .67-.845V21.04a.67.846 0 0 0-.67-.845zm5.384 0a.67.846 0 0 0-.67.845v3.399a.67.846 0 0 0 .67.845h4.016a.67.846 0 0 0 .669-.845V21.04a.67.846 0 0 0-.67-.845zm-21.559 5.099a.67.846 0 0 0-.669.844v3.4a.67.846 0 0 0 .67.844h4.06a.67.846 0 0 0 .669-.845v-3.399a.67.846 0 0 0-.67-.844zm5.407 0a.67.846 0 0 0-.67.844v3.4a.67.846 0 0 0 .67.844h4.038a.67.846 0 0 0 .669-.845v-3.399a.67.846 0 0 0-.67-.844zm5.384 0a.67.846 0 0 0-.67.844v3.4a.67.846 0 0 0 .67.844h4.038a.67.846 0 0 0 .669-.845v-3.399a.67.846 0 0 0-.67-.844zm5.384 0a.67.846 0 0 0-.67.844v3.4a.67.846 0 0 0 .67.844h4.038a.67.846 0 0 0 .67-.845v-3.399a.67.846 0 0 0-.67-.844zm5.384 0a.67.846 0 0 0-.67.844v3.4a.67.846 0 0 0 .67.844h4.016a.67.846 0 0 0 .669-.845v-3.399a.67.846 0 0 0-.67-.844zm-16.152 5.098a.67.846 0 0 0-.67.845v3.399a.67.846 0 0 0 .67.845h14.806a.67.846 0 0 0 .67-.845v-3.4a.67.846 0 0 0-.67-.844z" id="path4441" style="isolation:auto;mix-blend-mode:normal;solid-color:#000;solid-opacity:1;marker:none" color="#000" clip-rule="nonzero" display="inline" overflow="visible" visibility="visible" opacity=".07" color-interpolation="sRGB" color-interpolation-filters="linearRGB" fill="#000" fill-rule="nonzero" stroke="none" stroke-width=".756" stroke-linecap="butt" stroke-linejoin="miter" stroke-miterlimit="4" stroke-dasharray="none" stroke-dashoffset="0" stroke-opacity="1" color-rendering="auto" image-rendering="auto" shape-rendering="auto" text-rendering="auto"/><path style="marker:none" d="M11.302 15.092v3.399h4.038v-3.4zm5.384 0v3.399h4.038v-3.4zm5.384 0v3.399h4.038v-3.4zm5.384 0v3.399h4.038v-3.4zm5.384 0v3.399h4.016v-3.4zM11.302 20.19v3.4h4.038v-3.4zm5.384 0v3.4h4.038v-3.4zm5.384 0v3.4h4.038v-3.4zm5.384 0v3.4h4.038v-3.4zm5.384 0v3.4h4.016v-3.4zm-21.536 5.1v3.399h4.038v-3.4zm5.384 0v3.399h4.038v-3.4zm5.384 0v3.399h4.038v-3.4zm5.384 0v3.399h4.038v-3.4zm5.384 0v3.399h4.016v-3.4zm-16.152 5.098v3.4h14.806v-3.4z" id="path4239" color="#000" display="inline" overflow="visible" visibility="visible" fill="url(#linearGradient4565)" fill-rule="nonzero" stroke="none" stroke-width=".756"/></g><style type="text/css" id="style4485-7"/><g id="g964" transform="matrix(.62331 0 0 .61902 3.487 -139.327)" fill="url(#linearGradient2195)" fill-opacity="1" visibility="visible" stroke-miterlimit="4" stroke-dasharray="none" stroke-opacity="1"><path id="path4690-5" d="M30.907 250.058c-.334 0-.613 1.29-.776 3.135a10.212 10.212 0 0 0-2.468 1.037c-1.425-1.195-2.539-1.916-2.776-1.68l-2.627 2.628c-.237.237.484 1.35 1.679 2.776a10.212 10.212 0 0 0-1.028 2.468c-1.85.163-3.144.441-3.144.776v3.714c0 .334 1.29.612 3.135.776a10.212 10.212 0 0 0 1.033 2.473c-1.192 1.423-1.912 2.534-1.675 2.77l2.627 2.628c.237.236 1.346-.482 2.767-1.672a10.212 10.212 0 0 0 2.477 1.02c.163 1.85.441 3.145.776 3.145h3.713c.335 0 .613-1.29.776-3.135a10.212 10.212 0 0 0 2.468-1.037c1.426 1.194 2.54 1.916 2.776 1.679l2.628-2.628c.237-.237-.485-1.35-1.68-2.776a10.212 10.212 0 0 0 1.029-2.467c1.85-.164 3.144-.442 3.144-.776v-3.714c0-.334-1.29-.613-3.135-.776a10.212 10.212 0 0 0-1.034-2.473c1.192-1.423 1.912-2.534 1.676-2.77l-2.628-2.628c-.236-.236-1.346.482-2.767 1.672a10.212 10.212 0 0 0-2.477-1.021c-.163-1.85-.44-3.144-.776-3.144zm1.857 8.355a4.642 4.642 0 0 1 4.641 4.642 4.642 4.642 0 0 1-4.641 4.642 4.642 4.642 0 0 1-4.642-4.642 4.642 4.642 0 0 1 4.642-4.642z" style="isolation:auto;mix-blend-mode:normal;solid-color:#000;solid-opacity:1;marker:none" color="#000" clip-rule="nonzero" display="inline" overflow="visible" opacity=".1" color-interpolation="sRGB" color-interpolation-filters="linearRGB" fill-rule="nonzero" stroke="none" stroke-width=".789" stroke-linecap="butt" stroke-linejoin="miter" stroke-dashoffset="0" color-rendering="auto" image-rendering="auto" shape-rendering="auto" text-rendering="auto"/><path id="path4690" d="M30.907 249.594c-.334 0-.613 1.29-.776 3.135a10.212 10.212 0 0 0-2.468 1.037c-1.425-1.195-2.539-1.916-2.776-1.68l-2.627 2.628c-.237.237.484 1.35 1.679 2.776a10.212 10.212 0 0 0-1.028 2.468c-1.85.163-3.144.441-3.144.776v3.713c0 .335 1.29.613 3.135.776a10.212 10.212 0 0 0 1.033 2.474c-1.192 1.423-1.912 2.534-1.675 2.77l2.627 2.628c.237.236 1.346-.482 2.767-1.672a10.212 10.212 0 0 0 2.477 1.02c.163 1.85.441 3.145.776 3.145h3.713c.335 0 .613-1.29.776-3.135a10.212 10.212 0 0 0 2.468-1.037c1.426 1.194 2.54 1.915 2.776 1.679l2.628-2.628c.237-.237-.485-1.35-1.68-2.776a10.212 10.212 0 0 0 1.029-2.468c1.85-.163 3.144-.44 3.144-.776v-3.713c0-.334-1.29-.613-3.135-.776a10.212 10.212 0 0 0-1.034-2.473c1.192-1.423 1.912-2.534 1.676-2.77l-2.628-2.628c-.236-.237-1.346.482-2.767 1.672a10.212 10.212 0 0 0-2.477-1.021c-.163-1.85-.44-3.144-.776-3.144zm1.857 8.355a4.642 4.642 0 0 1 4.641 4.642 4.642 4.642 0 0 1-4.641 4.641 4.642 4.642 0 0 1-4.642-4.641 4.642 4.642 0 0 1 4.642-4.642z" style="isolation:auto;mix-blend-mode:normal;solid-color:#000;solid-opacity:1;marker:none" color="#000" clip-rule="nonzero" display="inline" overflow="visible" opacity="1" color-interpolation="sRGB" color-interpolation-filters="linearRGB" fill-rule="nonzero" stroke="none" stroke-width=".464" stroke-linecap="butt" stroke-linejoin="miter" stroke-dashoffset="0" color-rendering="auto" image-rendering="auto" shape-rendering="auto" text-rendering="auto"/><path style="isolation:auto;mix-blend-mode:normal;solid-color:#000;solid-opacity:1;marker:none" d="M30.945 249.826a.445.445 0 0 0-.064.098c-.061.12-.13.327-.194.593-.127.534-.238 1.311-.32 2.227a.24.24 0 0 1-.175.21 9.99 9.99 0 0 0-2.411 1.014.24.24 0 0 1-.274-.024c-.708-.593-1.338-1.067-1.807-1.357a2.99 2.99 0 0 0-.559-.285.438.438 0 0 0-.116-.025l-2.574 2.575a.43.43 0 0 0 .025.116c.042.128.14.325.284.56.29.468.764 1.098 1.357 1.806a.24.24 0 0 1 .024.273 9.994 9.994 0 0 0-1.005 2.411.24.24 0 0 1-.21.176c-.918.081-1.698.192-2.233.32a2.966 2.966 0 0 0-.595.193.447.447 0 0 0-.1.064v3.638a.456.456 0 0 0 .1.065c.12.06.326.13.592.194.534.127 1.311.238 2.227.319a.24.24 0 0 1 .21.176 9.99 9.99 0 0 0 1.01 2.416.24.24 0 0 1-.023.274c-.592.706-1.065 1.335-1.354 1.803-.144.234-.242.43-.284.558a.435.435 0 0 0-.025.115l2.574 2.575a.428.428 0 0 0 .115-.025c.128-.042.324-.14.558-.284.467-.288 1.095-.76 1.8-1.351a.239.239 0 0 1 .273-.024 9.992 9.992 0 0 0 2.42.998.24.24 0 0 1 .177.21c.08.918.192 1.698.319 2.233.063.267.132.474.193.595a.448.448 0 0 0 .064.1h3.638a.438.438 0 0 0 .065-.1c.06-.12.13-.326.194-.592.127-.534.238-1.311.319-2.227a.24.24 0 0 1 .176-.21 9.99 9.99 0 0 0 2.41-1.014.24.24 0 0 1 .274.024c.708.593 1.338 1.067 1.807 1.357.234.145.431.243.56.285.058.02.096.024.115.025l2.574-2.575a.441.441 0 0 0-.024-.116 2.98 2.98 0 0 0-.285-.56c-.29-.468-.764-1.098-1.357-1.806a.24.24 0 0 1-.024-.273 9.994 9.994 0 0 0 1.005-2.411.24.24 0 0 1 .21-.176c.919-.081 1.698-.192 2.233-.32.268-.063.474-.132.595-.193a.447.447 0 0 0 .1-.064v-3.638a.456.456 0 0 0-.1-.065c-.12-.06-.325-.13-.592-.194-.533-.127-1.311-.238-2.227-.319a.24.24 0 0 1-.21-.176 9.99 9.99 0 0 0-1.01-2.416.24.24 0 0 1 .024-.273c.592-.707 1.064-1.336 1.353-1.804.145-.234.242-.43.285-.558a.435.435 0 0 0 .024-.115l-2.574-2.575a.434.434 0 0 0-.115.024 3.022 3.022 0 0 0-.557.285c-.467.288-1.095.76-1.8 1.35a.24.24 0 0 1-.274.025 9.991 9.991 0 0 0-2.42-.998.24.24 0 0 1-.176-.21c-.081-.918-.192-1.698-.32-2.233a2.974 2.974 0 0 0-.192-.595.443.443 0 0 0-.065-.1z" id="path4278" color="#000" clip-rule="nonzero" display="inline" overflow="visible" opacity=".05" color-interpolation="sRGB" color-interpolation-filters="linearRGB" fill-rule="nonzero" stroke="#1b0000" stroke-width=".464" stroke-linecap="butt" stroke-linejoin="miter" stroke-dashoffset="0" color-rendering="auto" image-rendering="auto" shape-rendering="auto" text-rendering="auto"/><path style="marker:none" id="path4110" d="M32.763 267.462c2.871.092 5.33-2.776 4.802-5.604-.343-2.757-3.348-4.745-6.016-3.971-2.703.617-4.38 3.802-3.35 6.383.665 1.88 2.568 3.22 4.564 3.192z" display="inline" overflow="visible" opacity=".05" stroke="url(#linearGradient3149)" stroke-width=".464"/></g></svg>