<svg xmlns:osb="http://www.openswatchbook.org/uri/2009/osb" xmlns="http://www.w3.org/2000/svg" xmlns:xlink="http://www.w3.org/1999/xlink" width="48" height="48" version="1.1" id="svg38"><defs id="defs22"><linearGradient id="linearGradient4488"><stop id="stop4490" offset="0" stop-color="#000" stop-opacity=".047"/><stop id="stop4492" offset="1" stop-color="#000" stop-opacity="0"/></linearGradient><style id="style4511"/><style id="style4511-26"/><style id="style4511-9"/><style id="style4552"/><linearGradient id="e-1" y1="41.22" x1="24.392" y2="25.343" x2="20.643" gradientUnits="userSpaceOnUse"><stop stop-color="#334545" id="stop22-8"/><stop offset="1" stop-color="#536161" id="stop24-7"/></linearGradient><style id="style4511-2"/><linearGradient xlink:href="#linearGradient4488" id="linearGradient4540" gradientUnits="userSpaceOnUse" gradientTransform="matrix(.30902 0 0 .3038 -64.017 2.569)" x1="288.112" y1="141.785" x2="287.575" y2="79.008"/><linearGradient osb:paint="solid" id="linearGradient5293"><stop id="stop5295" offset="0" stop-color="#9a89c0" stop-opacity="1"/></linearGradient><linearGradient xlink:href="#e-1" id="linearGradient1422" x1="2.581" y1="24.161" x2="45.552" y2="24.161" gradientUnits="userSpaceOnUse" gradientTransform="rotate(-90 24.066 24.161)"/><linearGradient xlink:href="#linearGradient3680-6-6-6-3-7-1-8-8" id="linearGradient4565" gradientUnits="userSpaceOnUse" gradientTransform="matrix(.95905 0 0 .81111 -30.9 4.785)" x1="59.485" y1="35" x2="59.485" y2="-1"/><linearGradient id="linearGradient3680-6-6-6-3-7-1-8-8"><stop id="stop3682-4-6-1-3-7-7-4-0" offset="0" stop-color="#dcdcdc" stop-opacity="1"/><stop id="stop3684-8-5-8-0-2-6-8-4" offset="1" stop-color="#fff" stop-opacity="1"/></linearGradient></defs><style id="style4485" type="text/css"/><g id="g1409" fill-opacity="1"><path d="M2.75 26.796v1.668c0 9.575 5.68 17.283 17.44 17.283h7.05c15.392 0 18.143-11.323 18.143-17.283v-1.668c0 5.96-2.75 17.282-18.143 17.282h-7.05c-11.76 0-17.44-7.708-17.44-17.282z" id="path4516" opacity="1" fill="url(#linearGradient4540)" stroke="none" stroke-width="1.109" stroke-linecap="square" stroke-linejoin="bevel" stroke-miterlimit="4" stroke-dasharray="none" stroke-dashoffset="0" stroke-opacity=".078"/><path d="M3.223 28.58v-8.642c0-14.147 11.247-17.093 17.282-17.093h7.123c5.96 0 17.282 2.75 17.282 18.143v7.05c0 11.76-7.708 17.44-17.282 17.44h-7.123c-9.574 0-17.282-5.564-17.282-16.899z" id="path4518" opacity="1" fill="url(#linearGradient1422)" stroke="#000" stroke-width=".337" stroke-linecap="square" stroke-linejoin="bevel" stroke-miterlimit="4" stroke-dasharray="none" stroke-dashoffset="0" stroke-opacity=".078"/><path d="M11.28 15.097a.67.846 0 0 0-.67.845v3.399a.67.846 0 0 0 .67.844h4.06a.67.846 0 0 0 .669-.844v-3.4a.67.846 0 0 0-.67-.844zm5.406 0a.67.846 0 0 0-.67.845v3.399a.67.846 0 0 0 .67.844h4.038a.67.846 0 0 0 .669-.844v-3.4a.67.846 0 0 0-.67-.844zm5.384 0a.67.846 0 0 0-.67.845v3.399a.67.846 0 0 0 .67.844h4.038a.67.846 0 0 0 .669-.844v-3.4a.67.846 0 0 0-.67-.844zm5.384 0a.67.846 0 0 0-.67.845v3.399a.67.846 0 0 0 .67.844h4.038a.67.846 0 0 0 .67-.844v-3.4a.67.846 0 0 0-.67-.844zm5.384 0a.67.846 0 0 0-.67.845v3.399a.67.846 0 0 0 .67.844h4.016a.67.846 0 0 0 .669-.844v-3.4a.67.846 0 0 0-.67-.844zm-21.559 5.098a.67.846 0 0 0-.669.845v3.399a.67.846 0 0 0 .67.845h4.06a.67.846 0 0 0 .669-.845V21.04a.67.846 0 0 0-.67-.845zm5.407 0a.67.846 0 0 0-.67.845v3.399a.67.846 0 0 0 .67.845h4.038a.67.846 0 0 0 .669-.845V21.04a.67.846 0 0 0-.67-.845zm5.384 0a.67.846 0 0 0-.67.845v3.399a.67.846 0 0 0 .67.845h4.038a.67.846 0 0 0 .669-.845V21.04a.67.846 0 0 0-.67-.845zm5.384 0a.67.846 0 0 0-.67.845v3.399a.67.846 0 0 0 .67.845h4.038a.67.846 0 0 0 .67-.845V21.04a.67.846 0 0 0-.67-.845zm5.384 0a.67.846 0 0 0-.67.845v3.399a.67.846 0 0 0 .67.845h4.016a.67.846 0 0 0 .669-.845V21.04a.67.846 0 0 0-.67-.845zm-21.559 5.099a.67.846 0 0 0-.669.844v3.4a.67.846 0 0 0 .67.844h4.06a.67.846 0 0 0 .669-.845v-3.399a.67.846 0 0 0-.67-.844zm5.407 0a.67.846 0 0 0-.67.844v3.4a.67.846 0 0 0 .67.844h4.038a.67.846 0 0 0 .669-.845v-3.399a.67.846 0 0 0-.67-.844zm5.384 0a.67.846 0 0 0-.67.844v3.4a.67.846 0 0 0 .67.844h4.038a.67.846 0 0 0 .669-.845v-3.399a.67.846 0 0 0-.67-.844zm5.384 0a.67.846 0 0 0-.67.844v3.4a.67.846 0 0 0 .67.844h4.038a.67.846 0 0 0 .67-.845v-3.399a.67.846 0 0 0-.67-.844zm5.384 0a.67.846 0 0 0-.67.844v3.4a.67.846 0 0 0 .67.844h4.016a.67.846 0 0 0 .669-.845v-3.399a.67.846 0 0 0-.67-.844zm-16.152 5.098a.67.846 0 0 0-.67.845v3.399a.67.846 0 0 0 .67.845h14.806a.67.846 0 0 0 .67-.845v-3.4a.67.846 0 0 0-.67-.844z" id="path4441" style="isolation:auto;mix-blend-mode:normal;solid-color:#000;solid-opacity:1;marker:none" color="#000" clip-rule="nonzero" display="inline" overflow="visible" visibility="visible" opacity=".07" color-interpolation="sRGB" color-interpolation-filters="linearRGB" fill="#000" fill-rule="nonzero" stroke="none" stroke-width=".756" stroke-linecap="butt" stroke-linejoin="miter" stroke-miterlimit="4" stroke-dasharray="none" stroke-dashoffset="0" stroke-opacity="1" color-rendering="auto" image-rendering="auto" shape-rendering="auto" text-rendering="auto"/><path style="marker:none" d="M11.302 15.092v3.399h4.038v-3.4zm5.384 0v3.399h4.038v-3.4zm5.384 0v3.399h4.038v-3.4zm5.384 0v3.399h4.038v-3.4zm5.384 0v3.399h4.016v-3.4zM11.302 20.19v3.4h4.038v-3.4zm5.384 0v3.4h4.038v-3.4zm5.384 0v3.4h4.038v-3.4zm5.384 0v3.4h4.038v-3.4zm5.384 0v3.4h4.016v-3.4zm-21.536 5.1v3.399h4.038v-3.4zm5.384 0v3.399h4.038v-3.4zm5.384 0v3.399h4.038v-3.4zm5.384 0v3.399h4.038v-3.4zm5.384 0v3.399h4.016v-3.4zm-16.152 5.098v3.4h14.806v-3.4z" id="path4239" color="#000" display="inline" overflow="visible" visibility="visible" fill="url(#linearGradient4565)" fill-rule="nonzero" stroke="none" stroke-width=".756"/></g></svg>