<svg xmlns="http://www.w3.org/2000/svg" xmlns:xlink="http://www.w3.org/1999/xlink" width="48" height="48" version="1.1" id="svg38"><defs id="defs22"><linearGradient id="linearGradient4488"><stop id="stop4490" offset="0" stop-color="#000" stop-opacity=".047"/><stop id="stop4492" offset="1" stop-color="#000" stop-opacity="0"/></linearGradient><style id="style4511"/><style id="style4511-26"/><style id="style4511-9"/><style id="style4552"/><style id="style4511-2"/><linearGradient gradientTransform="matrix(.3082 0 0 .3038 -64.056 2.216)" xlink:href="#linearGradient4488" id="linearGradient4160" x1="288.112" y1="141.785" x2="287.575" y2="79.008" gradientUnits="userSpaceOnUse"/><clipPath id="clipPath-334796349"/></defs><style id="style4485" type="text/css"/><path d="M19.389 2.965h8.618c14.11 0 17.048 11.246 17.048 17.282v7.123c0 5.96-2.743 17.282-18.095 17.282h-7.03c-11.73 0-17.395-7.708-17.395-17.282v-7.123c0-9.575 5.55-17.282 16.854-17.282z" id="rect4144" opacity="1" fill="#336bb0" fill-opacity="1" stroke="#000" stroke-width=".337" stroke-linecap="square" stroke-linejoin="bevel" stroke-miterlimit="4" stroke-dasharray="none" stroke-dashoffset="0" stroke-opacity=".078"/><path d="M2.535 26.443v1.668c0 9.575 5.664 17.282 17.394 17.282h7.031c15.352 0 18.095-11.322 18.095-17.282v-1.668c0 5.96-2.743 17.282-18.095 17.282h-7.03c-11.73 0-17.395-7.708-17.395-17.282z" id="path4147" opacity="1" fill="url(#linearGradient4160)" fill-opacity="1" stroke="none" stroke-width="1.108" stroke-linecap="square" stroke-linejoin="bevel" stroke-miterlimit="4" stroke-dasharray="none" stroke-dashoffset="0" stroke-opacity=".078"/><path id="path404" d="M18.636 32.362c-1.674-.432-2.612-1.804-2.612-3.838 0-.65.042-.963.204-1.38.383-1.029 1.412-1.802 2.762-2.086.67-.14.874-.292.874-.646 0-.11.08-.44.18-.728.44-1.326 1.266-2.434 2.143-2.886.908-.473 1.383-.576 2.495-.572 1.575.004 2.366.363 3.461 1.548l.6.655.551-.194c2.629-.935 5.24.654 5.444 3.31l.067.728.509.19c1.487.548 2.17 1.688 2.045 3.367-.083 1.095-.583 1.976-1.362 2.408l-.378.206-8.265.012c-6.348.013-8.364-.008-8.718-.099m-.005.005" fill="#f9f9f9" fill-opacity="1" fill-rule="nonzero" stroke="none" stroke-width="1.06"/><path id="path406" d="M12.441 31.189c-.979-.24-2.02-1.128-2.508-2.15-.275-.572-.29-.658-.29-1.683 0-.972.024-1.128.241-1.61a3.714 3.67 0 0 1 2.467-2.038c.233-.062.458-.156.491-.218.033-.054.07-.371.088-.7.079-2.034 1.374-3.825 3.182-4.401.979-.309 2.211-.235 3.273.201.337.14.3.169 1.012-.794.425-.568 1.279-1.277 1.971-1.64.754-.386 1.54-.567 2.478-.567 2.616.008 4.878 1.691 5.71 4.258.271.823.254 1.053-.058 1.053-.138.005-.529.083-.874.17l-.625.168-.57-.585c-1.605-1.65-4.233-2.009-6.463-.881a5.365 5.302 0 0 0-2.143 1.943c-.383.6-.875 1.725-.875 2.005 0 .2-.158.296-.82.522-2.063.696-3.267 2.302-3.263 4.352 0 .75.188 1.663.446 2.186.1.198.15.382.12.416-.079.082-2.641.058-2.995-.033m.004.017" fill="#f9f9f9" fill-opacity="1" fill-rule="nonzero" stroke="none" stroke-width="1.06"/></svg>