<svg xmlns="http://www.w3.org/2000/svg" xmlns:xlink="http://www.w3.org/1999/xlink" width="48" height="48" version="1.1" id="svg38"><defs id="defs22"><linearGradient id="linearGradient3764-3675356" x1="1" x2="47" gradientUnits="userSpaceOnUse" gradientTransform="rotate(-90 -12.143 60.189)" y1="0" y2="0" spreadMethod="pad"><stop stop-color="#1c96ce" stop-opacity="1" id="stop2208"/><stop offset="1" stop-color="#1ea3e0" stop-opacity="1" id="stop2210"/></linearGradient><style id="style4511"/><style id="style4511-26"/><style id="style4511-9"/><style id="style4552"/><style id="style4511-2"/><style id="style4511-7"/><style id="style4511-26-4"/><style id="style4511-9-8"/><style id="style4552-5"/><style id="style4511-2-5"/><linearGradient xlink:href="#linearGradient3764-3675356" id="linearGradient2219" x1="2.792" y1="24.003" x2="45.648" y2="24.003" gradientUnits="userSpaceOnUse"/></defs><style id="style4485" type="text/css"/><style type="text/css" id="style4485-2"/><path d="M19.814 2.852h8.618c14.108 0 17.047 11.413 17.047 17.537v7.229c0 6.047-2.743 17.537-18.094 17.537h-7.03c-11.73 0-17.394-7.822-17.394-17.537v-7.229c0-9.715 5.55-17.537 16.853-17.537z" id="rect4144-8" opacity="1" fill="url(#linearGradient2219)" fill-opacity="1" stroke="#000" stroke-width=".339" stroke-linecap="square" stroke-linejoin="bevel" stroke-miterlimit="4" stroke-dasharray="none" stroke-dashoffset="0" stroke-opacity=".078"/><path id="path4276" d="M14.333 5.223c-.581.272-1.15.568-1.705.889h.224l.113.354-.321.291 1.372.037.21.482-1.544-.056-.077-.37-.9-.19c-.312.206-.62.42-.921.64h.538v.35l-.236.306H9.958v-.045A21.18 21.18 0 0 0 3.16 17.36l.12.055v1.768l.912 1.52.745.11.096-.52-.879-1.317-.17-1.282h.513l.217 1.32 1.268 1.8-.326.58.807 1.202 2.002.484v-.316l.8.11-.074.558.628.11.972.259 1.373 1.524 1.756.128.17 1.394-1.2.817-.056 1.245-.172.76 1.736 2.117.132.724s.63.167.707.167c.076 0 1.41.985 1.41.985v3.824l.477.13-.324 1.764.801 1.04-.147 1.75 1.058 1.81 1.367 1.177c.024.004.141 0 .141 0l1.218.004.132-.428-1.003-.823.058-.41.179-.5.038-.51-.679-.021-.343-.417.564-.53.077-.397-.63-.175.038-.37.896-.133 1.364-.638.457-.818 1.43-1.781-.323-1.394.438-.742 1.315.039.886-.684.288-2.69.98-1.214.172-.781-.895-.28-.592-.943-2.022-.02-1.602-.596-.075-1.111-.536-.91-1.449-.02-.836-1.28-.745-.354-.038.388-1.353.079-.497-.673-1.41-.278-1.165 1.308-1.829-.301-.135-2.01-1.336-.222.536-.985-.153-.567-1.756 1.144-1.104-.13-.394-.842.24-.867.61-1.091 1.402-.69 2.707-.003-.007.805.973.44-.077-1.373.7-.689 1.416-.903.098-.637 1.41-1.43 1.5-.809-.132-.107 1.015-.93.373.094.172.21.386-.419.092-.039-.42-.058-.43-.14v-.4l.227-.18h.5l.23.097.199.39.244-.035v-.036l.068.023.704-.103.1-.335.4.098v.363l-.37.248.055.397 1.273.383.004.017.294-.026.019-.538-1.01-.447-.058-.258.838-.278.037-.782-.875-.519-.057-1.317-1.202.575h-.44l.116-1.003-1.634-.376-.677.498v1.518l-1.218.376-.487.99-.53.083V10.66l-1.142-.152-.572-.362-.23-.82 2.045-1.167 1-.296.101.654.558-.027.043-.329.583-.083.01-.113-.25-.102-.058-.349.717-.058.432-.44.024-.031.006.002.132-.132 1.507-.187.665.552-1.746.906 2.224.51.286-.723h.973l.342-.63-.685-.168v-.798l-2.155-.93-1.487.167-.84.428.059 1.04-.88-.13-.134-.575.841-.744-1.526-.073-.438.128-.19.5.57.096-.112.556-.973.056-.15.37-1.411.04s-.04-.78-.096-.78l1.105-.019.84-.8-.458-.223-.61.577-1.011-.056-.54-.722zm23.623 3.07l-.693.265-.446.471.102.55.547.074.328.803.943-.37.156 1.07h-.284l-.774-.11-.858.14-.83 1.141-1.188.182-.172.99.503.113-.145.638-1.18-.23-1.08.23-.23.585.187 1.23.635.29 1.064-.007.72-.062.218-.557 1.123-1.421.741.146.728-.64.136.5L40 15.492l-.22.285-.808-.041.31.429.499.104.58-.235-.012-.682.26-.126-.208-.215-1.197-.649-.312-.863h.993l.317.306.856.72.035.868.888.918.33-1.259.613-.327.114 1.03.6.64.28-.004a21.043 21.043 0 0 0-3.235-5.36l-1.445-.013-.098-.318.86-.426a21.497 21.497 0 0 0-2.043-1.98zm-26.653.22c.043 0 0 .485 0 .485l-1.13.07-.215-.25.8-.223s.502-.083.545-.083zm1.374 2.366l.543.127-.187.71-.588.18-.37-.74zm1.488 1.683h.9v.267h.198v.46H13.89l-.513-.14.127-.32zm1.343.197l.472.417-.472.112v-.529zm1.038.64l.349.213-.28.226-.277-.226zm-2.639.072h.758l-.972 1.32-.4-.209.085-.556.53-.555zm1.217 0h.77v.444l-.341.215-.429.078v-.737zm.958.488h.058l.873.25v.431h-.73l-.2-.28v-.401zm-.36.4v.435l-.327.32h-.73l.115-.486.344-.029.071-.167.528-.072zm22.685 1.84l-2.575.194-.797.418h-1.022l-.503-.05-1.24.673v1.263l-2.538 1.782.21.761h.515l-.134.723-.361.13-.022 1.894 2.194 2.432h.954l.058-.147h1.716l.494-.446h.974l.532.52 1.452.147-.192 1.878 1.608 2.766-.846 1.577.058.743.665.65v1.785l.877 1.147 1.132 2.322c3.246-3.797 4.137-8.813 3.894-15.053-.006-2.049.178-4.14-.147-6.055l-1.862.008-1.114-.81-1.173.113v.697h-.372l-.4-.28-2.035-.502V16.2z" fill="#e6e6e6" fill-opacity="1" stroke-width="1.084"/><g id="g1629" transform="matrix(1.05102 0 0 1.25967 70.439 -8.353)" fill="#4d4d4d" fill-opacity="1" fill-rule="nonzero" stroke="none"><path d="M-31.8 18.695a8.54 8.54 0 0 0-4.38 1.133 8.577 8.577 0 0 0-8.178-.114.15.15 0 0 0-.06.117c0 .082.067.14.146.14h.027c.004 0 .008-.003.008-.003a8.772 8.772 0 0 1 2.359-.102c2.258.21 4.23.906 5.613 2.46.07.075.133.067.203-.003 1.742-1.996 4.406-2.79 7.27-2.52.16.016.32.03.477.059.055.008.14.02.19.023.095.012.146-.063.146-.141 0-.063-.023-.105-.078-.13-.055-.026-.11-.062-.164-.081a8.735 8.735 0 0 0-3.582-.852m.004.004" id="path1538"/><path d="M-37.042 25.535a14.82 14.82 0 0 0-8.555 2.71 14.8 14.8 0 0 0-6.03-1.276 14.75 14.75 0 0 0-8.242 2.5l-.02.016a.197.197 0 0 0-.082.168c0 .12.098.219.215.219.016 0 .03-.004.043-.004.012 0 .02-.004.023-.008a14.821 14.821 0 0 1 4.27-.621c3.934 0 7.449.926 10.09 3.39l.023.017c.039.035.086.047.145.047.066 0 .125-.02.164-.07 0 0 .086-.113.129-.18 2.69-3.641 7.12-5.438 12.04-5.438.352 0 .703.008 1.05.035.099.004.314.023.317.023a.218.218 0 0 0 .215-.22.203.203 0 0 0-.125-.187 14.87 14.87 0 0 0-5.656-1.125m-.008.004" id="path1540"/></g></svg>