<svg xmlns="http://www.w3.org/2000/svg" xmlns:xlink="http://www.w3.org/1999/xlink" width="48" height="48" version="1.1" id="svg38"><defs id="defs22"><linearGradient id="linearGradient3764-367" x1="1" x2="47" gradientUnits="userSpaceOnUse" gradientTransform="rotate(-90 -28.993 74.318)"><stop stop-color="#f79935" stop-opacity="1" id="stop1320"/><stop offset="1" stop-color="#f8a348" stop-opacity="1" id="stop1322"/></linearGradient><style id="style4511"/><style id="style4511-26"/><style id="style4511-9"/><style id="style4552"/><style id="style4511-2"/><clipPath id="clipPath-389662623"/><linearGradient xlink:href="#linearGradient3764-367" id="linearGradient1331" x1="2.265" y1="23.808" x2="45.674" y2="23.808" gradientUnits="userSpaceOnUse"/></defs><style id="style4485" type="text/css"/><path d="M19.506 2.965h8.73c14.292 0 17.268 11.247 17.268 17.282v7.123c0 5.96-2.778 17.281-18.329 17.281h-7.121c-11.882 0-17.62-7.707-17.62-17.281v-7.123c0-9.574 5.622-17.282 17.072-17.282z" id="rect4144" opacity="1" fill="url(#linearGradient1331)" fill-opacity="1" stroke="#000" stroke-width=".339" stroke-linecap="square" stroke-linejoin="bevel" stroke-miterlimit="4" stroke-dasharray="none" stroke-dashoffset="0" stroke-opacity=".078"/><path id="path1220" d="M10.918 13.658h8.031v6.091h-8.03m0-6.091" fill="#f9f9f9" fill-opacity="1" fill-rule="nonzero" stroke="none" stroke-width="1.01"/><path id="path1222" d="M10.918 22.795h8.031v6.092h-8.03m0-6.092" fill="#f9f9f9" fill-opacity="1" fill-rule="nonzero" stroke="none" stroke-width="1.01"/><path id="path1224" d="M10.918 31.928H37.02v2.03H10.918m0-2.03" fill="#f9f9f9" fill-opacity="1" fill-rule="nonzero" stroke="none" stroke-width="1.01"/><path id="path1226" d="M29.992 13.658v7.107h7.028c0-3.922-3.146-7.107-7.028-7.107m0 0" fill="#f9f9f9" fill-opacity="1" fill-rule="nonzero" stroke="none" stroke-width="1.01"/><path id="path1228" d="M28.976 14.673c-3.882 0-7.027 3.18-7.027 7.107 0 3.926 3.141 7.107 7.027 7.107 3.883 0 7.028-3.181 7.028-7.107h-7.028m0-7.107" fill="#f9f9f9" fill-opacity="1" fill-rule="nonzero" stroke="none" stroke-width="1.01"/></svg>