<svg xmlns="http://www.w3.org/2000/svg" width="48" height="48" version="1.1" id="svg38"><defs id="defs22"><style id="style4511"/><style id="style4511-26"/><style id="style4511-9"/><style id="style4552"/><style id="style4511-2"/><clipPath id="clipPath-225646190"/></defs><style id="style4485" type="text/css"/><path d="M19.506 2.965h8.73c14.292 0 17.268 11.247 17.268 17.282v7.123c0 5.96-2.778 17.281-18.329 17.281h-7.121c-11.882 0-17.62-7.707-17.62-17.281v-7.123c0-9.574 5.622-17.282 17.072-17.282z" id="rect4144" opacity="1" fill="#6ba8b6" fill-opacity="1" stroke="#000" stroke-width=".339" stroke-linecap="square" stroke-linejoin="bevel" stroke-miterlimit="4" stroke-dasharray="none" stroke-dashoffset="0" stroke-opacity=".078"/><path id="path385" d="M27.217 20.753l-3.012.934v.726l1.999.148c.42.575.906 1.85 1.54 3.807-.768 1.487-1.67 2.55-2.57 3.142l-.942-1.123c-.88.21-1.405.828-1.405 1.508 0 .744.705 1.381 1.557 1.381 1.25 0 2.418-1.276 3.846-3.806.616 2.72 1.272 3.907 2.968 3.907.679 0 1.625-.215 2.896-.592v-.828a5.096 5.096 0 0 1-1.205.148c-1.472 0-1.78-1.402-2.704-4.482.768-1.555 1.602-2.509 2.437-2.872l.857 1.128c.906-.258 1.405-.87 1.405-1.614 0-.786-.571-1.36-1.384-1.36-1.25 0-2.48 1.234-3.82 3.654-.683-2.593-1.08-3.802-2.31-3.802h-.153m0-.005" fill="#f9f9f9" fill-opacity="1" fill-rule="nonzero" stroke="none" stroke-width="1.111"/><path id="path387" d="M20.72 13.065c-.862 4.266-2.54 13.64-2.924 14.598-.455-2.045-2.013-6.053-2.259-6.598-.25.113-2.744 1.073-2.99 1.259.073.228.29 1.106.362 1.296l.91-.359 4.003 11.359 4.244-19.465h13.325v-2.158l-14.673.071m0-.004" fill="#f9f9f9" fill-opacity="1" fill-rule="nonzero" stroke="none" stroke-width="1.111"/></svg>