<svg xmlns="http://www.w3.org/2000/svg" xmlns:xlink="http://www.w3.org/1999/xlink" width="48" height="48" version="1.1" id="svg38"><defs id="defs22"><style id="style4511"/><style id="style4511-26"/><style id="style4511-9"/><style id="style4552"/><linearGradient id="e-1" y1="41.22" x1="24.392" y2="25.343" x2="20.643" gradientUnits="userSpaceOnUse"><stop stop-color="#334545" id="stop22-8"/><stop offset="1" stop-color="#536161" id="stop24-7"/></linearGradient><style id="style4511-2"/><clipPath id="clipPath-127046142"/><linearGradient xlink:href="#e-1" id="linearGradient1328" x1="2.265" y1="23.808" x2="45.674" y2="23.808" gradientUnits="userSpaceOnUse"/></defs><style id="style4485" type="text/css"/><path d="M19.506 2.965h8.73c14.292 0 17.268 11.247 17.268 17.282v7.123c0 5.96-2.778 17.281-18.329 17.281h-7.121c-11.882 0-17.62-7.707-17.62-17.281v-7.123c0-9.574 5.622-17.282 17.072-17.282z" id="rect4144" opacity="1" fill="url(#linearGradient1328)" fill-opacity="1" stroke="#000" stroke-width=".339" stroke-linecap="square" stroke-linejoin="bevel" stroke-miterlimit="4" stroke-dasharray="none" stroke-dashoffset="0" stroke-opacity=".078"/><path id="path1242" d="M17.97 10.796h12c.551 0 1 .449 1 1v12a1 1 0 0 1-1 1h-12c-.555 0-1-.445-1-1v-12a1 1 0 0 1 1-1m0 0" fill="#a3a3a3" fill-opacity="1" fill-rule="nonzero" stroke="none"/><path id="path1244" d="M12.97 18.796h22c.551 0 1 .449 1 1v10c0 .551-.449 1-1 1h-22c-.551 0-1-.449-1-1v-10c0-.551.449-1 1-1m0 0" fill="#d5d5d5" fill-opacity="1" fill-rule="nonzero" stroke="none"/><path id="path1246" d="M16.97 24.82h14v12h-14m0-12" fill="#f9f9f9" fill-opacity="1" fill-rule="nonzero" stroke="none"/></svg>