<svg xmlns="http://www.w3.org/2000/svg" xmlns:xlink="http://www.w3.org/1999/xlink" width="48" height="48" version="1.1" id="svg38"><defs id="defs22"><linearGradient id="linearGradient4488"><stop id="stop4490" offset="0" stop-color="#000" stop-opacity=".047"/><stop id="stop4492" offset="1" stop-color="#000" stop-opacity="0"/></linearGradient><style id="style4511"/><style id="style4511-26"/><style id="style4511-9"/><style id="style4552"/><style id="style4511-2"/><linearGradient gradientTransform="translate(-63.205 2.216) scale(.3038)" xlink:href="#linearGradient4488" id="linearGradient4160" x1="288.112" y1="141.785" x2="287.575" y2="79.008" gradientUnits="userSpaceOnUse"/><linearGradient id="linearGradient4514"><stop id="stop4510" offset="0" stop-color="#78d1d1" stop-opacity="1"/><stop id="stop4512" offset="1" stop-color="#138ebb" stop-opacity="1"/></linearGradient><clipPath id="clipPath-024338034"/><linearGradient xlink:href="#linearGradient4514" id="linearGradient1270" x1="2.266" y1="23.808" x2="44.513" y2="23.808" gradientUnits="userSpaceOnUse"/></defs><style id="style4485" type="text/css"/><g id="g1211" fill-opacity="1"><path id="path4147" d="M2.433 26.443v1.668c0 9.575 5.583 17.282 17.146 17.282h6.93c15.133 0 17.837-11.322 17.837-17.282v-1.668c0 5.96-2.704 17.282-17.837 17.282h-6.93c-11.563 0-17.146-7.708-17.146-17.282z" opacity="1" fill="url(#linearGradient4160)" stroke="none" stroke-width="1.1" stroke-linecap="square" stroke-linejoin="bevel" stroke-miterlimit="4" stroke-dasharray="none" stroke-dashoffset="0" stroke-opacity=".078"/><path id="rect4144" d="M19.046 2.965h8.495c13.908 0 16.805 11.246 16.805 17.282v7.123c0 5.96-2.704 17.282-17.837 17.282h-6.93c-11.562 0-17.146-7.708-17.146-17.282v-7.123c0-9.575 5.47-17.282 16.613-17.282z" opacity="1" fill="url(#linearGradient1270)" stroke="#000" stroke-width=".334" stroke-linecap="square" stroke-linejoin="bevel" stroke-miterlimit="4" stroke-dasharray="none" stroke-dashoffset="0" stroke-opacity=".078"/><g transform="matrix(.9563 0 0 .93494 1.486 1.468)" id="g1202" stroke="none"><path d="M8.483 29.072l4.667 6.39 11.654-8.6a3.93 3.93 0 0 1-5.512-.85 3.977 3.977 0 0 1 .845-5.54zm11.654-8.6a3.93 3.93 0 0 1 5.512.849 3.977 3.977 0 0 1-.845 5.54l11.655-8.6-4.667-6.39z" id="rect4724" fill="#fc5c74" stroke-width="4.669"/><ellipse id="path4726" cx="-10.297" cy="32.386" rx="2.634" ry="3.957" transform="matrix(.80462 -.5938 .5898 .80754 0 0)" fill="#d94c47" stroke-width=".879"/><ellipse id="path4728" cx="18.672" cy="32.386" rx="2.634" ry="3.957" transform="matrix(.80462 -.5938 .5898 .80754 0 0)" fill="#d94c47" stroke-width=".879"/><path d="M16.248 15.147c-4.681 3.454-5.69 10.07-2.253 14.775 3.437 4.705 10.018 5.72 14.699 2.265 4.68-3.455 5.69-10.07 2.253-14.776-3.437-4.705-10.018-5.72-14.699-2.264zm3.89 5.325a3.93 3.93 0 0 1 5.511.849 3.977 3.977 0 0 1-.845 5.54 3.93 3.93 0 0 1-5.512-.849 3.977 3.977 0 0 1 .845-5.54z" id="path4730" fill="#ffc100" stroke-width="4.669"/></g></g></svg>