<svg xmlns="http://www.w3.org/2000/svg" xmlns:xlink="http://www.w3.org/1999/xlink" width="48" height="48" version="1.1" id="svg38"><defs id="defs22"><linearGradient id="linearGradient4488"><stop id="stop4490" offset="0" stop-color="#000" stop-opacity=".047"/><stop id="stop4492" offset="1" stop-color="#000" stop-opacity="0"/></linearGradient><style id="style4511"/><style id="style4511-26"/><style id="style4511-9"/><style id="style4552"/><style id="style4511-2"/><linearGradient gradientTransform="translate(-63.205 2.216) scale(.3038)" xlink:href="#linearGradient4488" id="linearGradient4160" x1="288.112" y1="141.785" x2="287.575" y2="79.008" gradientUnits="userSpaceOnUse"/><linearGradient gradientTransform="translate(-18.754 -18.576) scale(.73532)" y2="19.877" x2="55.145" y1="81.49" x1="56.58" gradientUnits="userSpaceOnUse" id="1-4-3"><stop stop-color="#00a661" id="stop5596-6"/><stop stop-color="#37ce97" offset="1" id="stop5598-7"/></linearGradient></defs><style id="style4485" type="text/css"/><path d="M19.046 2.965h8.495c13.908 0 16.805 11.246 16.805 17.282v7.123c0 5.96-2.704 17.282-17.837 17.282h-6.93c-11.562 0-17.146-7.708-17.146-17.282v-7.123c0-9.575 5.47-17.282 16.613-17.282z" id="rect4144" opacity="1" fill="#e3e7ea" fill-opacity="1" stroke="#000" stroke-width=".334" stroke-linecap="square" stroke-linejoin="bevel" stroke-miterlimit="4" stroke-dasharray="none" stroke-dashoffset="0" stroke-opacity=".078"/><path d="M2.433 26.443v1.668c0 9.575 5.583 17.282 17.146 17.282h6.93c15.133 0 17.837-11.322 17.837-17.282v-1.668c0 5.96-2.704 17.282-17.837 17.282h-6.93c-11.563 0-17.146-7.708-17.146-17.282z" id="path4147" opacity="1" fill="url(#linearGradient4160)" fill-opacity="1" stroke="none" stroke-width="1.1" stroke-linecap="square" stroke-linejoin="bevel" stroke-miterlimit="4" stroke-dasharray="none" stroke-dashoffset="0" stroke-opacity=".078"/><path d="M23.189 10.874c-1.51 0-2.964.242-4.325.689v13.149a4.324 4.324 0 1 0 4.325-4.325v-4.324a8.649 8.649 0 1 1-8.65 8.649V13.914c-3.16 2.536-5.19 6.43-5.19 10.798 0 7.642 6.194 13.838 13.837 13.838s13.839-6.195 13.839-13.838c0-7.642-6.196-13.838-13.839-13.838" id="path5614-5" color="#000" fill="url(#1-4-3)" stroke="none" stroke-width=".941" stroke-linecap="round" stroke-linejoin="round" opacity=".799"/></svg>