<svg xmlns="http://www.w3.org/2000/svg" xmlns:xlink="http://www.w3.org/1999/xlink" width="48" height="48" version="1.1" id="svg38"><defs id="defs22"><linearGradient id="linearGradient3764-3675" x1="1" x2="47" gradientUnits="userSpaceOnUse" gradientTransform="rotate(-90 -3.449 47.898)"><stop stop-color="#3e72a8" stop-opacity="1" id="stop1297"/><stop offset="1" stop-color="#437cb7" stop-opacity="1" id="stop1299"/></linearGradient><style id="style4511"/><style id="style4511-26"/><style id="style4511-9"/><style id="style4552"/><style id="style4511-2"/><clipPath id="clipPath-037212577"/><linearGradient xlink:href="#linearGradient3764-3675" id="linearGradient1308" x1="2.265" y1="23.808" x2="45.674" y2="23.808" gradientUnits="userSpaceOnUse"/></defs><style id="style4485" type="text/css"/><path d="M19.506 2.965h8.73c14.292 0 17.268 11.247 17.268 17.282v7.123c0 5.96-2.778 17.281-18.329 17.281h-7.121c-11.882 0-17.62-7.707-17.62-17.281v-7.123c0-9.574 5.622-17.282 17.072-17.282z" id="rect4144" opacity="1" fill="url(#linearGradient1308)" fill-opacity="1" stroke="#000" stroke-width=".339" stroke-linecap="square" stroke-linejoin="bevel" stroke-miterlimit="4" stroke-dasharray="none" stroke-dashoffset="0" stroke-opacity=".078"/><path id="path1229" d="M13.426 17.32v5.915s4.492-3.151 4.492 2.543c0 5.695-4.492 3.439-4.492 3.439v5.402h6.08s-2.3-4.54 2.928-4.469c5.615.076 3.15 4.47 3.15 4.47h5.632v-5.69s4.413 1.879 4.447-2.733c.03-3.43-1.668-3.938-4.447-2.961v-5.914h-5.56s2.246-4.326-3.14-4.326c-5.385 0-3.01 4.326-3.01 4.326m-6.08 0" fill="#e6e6e6" fill-opacity="1" fill-rule="nonzero" stroke="none" stroke-width="1.097"/></svg>