<svg xmlns:osb="http://www.openswatchbook.org/uri/2009/osb" xmlns="http://www.w3.org/2000/svg" xmlns:xlink="http://www.w3.org/1999/xlink" width="48" height="48" version="1.1" id="svg38"><defs id="defs22"><linearGradient id="linearGradient4488"><stop id="stop4490" offset="0" stop-color="#000" stop-opacity=".047"/><stop id="stop4492" offset="1" stop-color="#000" stop-opacity="0"/></linearGradient><style id="style4511"/><style id="style4511-26"/><style id="style4511-9"/><linearGradient id="linearGradient4227-5"><stop offset="0" id="stop8-7" stop-color="#2e3436" stop-opacity="1"/><stop offset="1" id="stop10-0" stop-color="#555753" stop-opacity="1"/></linearGradient><style id="style4552"/><style id="style4511-2"/><linearGradient xlink:href="#linearGradient4488" id="linearGradient4540" gradientUnits="userSpaceOnUse" gradientTransform="matrix(.30902 0 0 .3038 -64.017 1.994)" x1="288.112" y1="141.785" x2="287.575" y2="79.008"/><linearGradient osb:paint="solid" id="linearGradient5293"><stop id="stop5295" offset="0" stop-color="#9a89c0" stop-opacity="1"/></linearGradient><linearGradient xlink:href="#linearGradient4227-5" id="linearGradient4470" x1="256" y1="375" x2="256" y2="135.281" gradientUnits="userSpaceOnUse" gradientTransform="matrix(.08462 0 0 .08626 3.903 2.888)"/></defs><style id="style4485" type="text/css"/><g id="g969"><g id="g967"><g id="g1781"><path d="M2.75 26.22v1.67c0 9.573 5.68 17.281 17.44 17.281h7.05c15.392 0 18.143-11.322 18.143-17.282v-1.668c0 5.96-2.75 17.282-18.143 17.282h-7.05c-11.76 0-17.44-7.708-17.44-17.282z" id="path4516" opacity="1" fill="url(#linearGradient4540)" fill-opacity="1" stroke="none" stroke-width="1.109" stroke-linecap="square" stroke-linejoin="bevel" stroke-miterlimit="4" stroke-dasharray="none" stroke-dashoffset="0" stroke-opacity=".078"/><path d="M2.818 28.41v-8.64c0-14.146 11.465-17.092 17.618-17.092h7.261c6.076 0 17.618 2.75 17.618 18.142v7.048c0 11.76-7.857 17.44-17.618 17.44h-7.261c-9.76 0-17.618-5.564-17.618-16.898z" id="path4518" opacity="1" fill="#3173b2" fill-opacity="1" stroke="#000" stroke-width=".34" stroke-linecap="square" stroke-linejoin="bevel" stroke-miterlimit="4" stroke-dasharray="none" stroke-dashoffset="0" stroke-opacity=".078"/><path id="path1645" d="M17.843 45.232c.106.032 2.38.174 2.523.173l7.948-.045c1.205-.007 3.107-.256 4.289-.453.585-.038 1.583-.48 2.072-.643.5-.168.747-.273 1.155-.434.419-.164.62-.265 1.036-.464.38-.172.673-.378 1.01-.569.316-.195.61-.403.894-.615.278-.213.59-.386.912-.673.324-.277.582-.49.879-.786.192-.313.681-.732.94-1.038.218-.26.734-.91 1.017-1.286.181-.274.732-1.26.988-1.745.226-.467.658-1.472.849-1.986.29-.79.511-1.882.612-2.526.135-.781.337-2.35.338-3.601l.011-10.168c.002-1.647-.377-3.058-.772-4.006a55.244 55.244 0 0 1-.606-1.913c-.207-.526-.25-.59-.432-.99-.268-.545-.732-1.306-1.004-1.732-.272-.432-.756-1.02-1.088-1.407a7.748 7.748 0 0 0-.86-.919c-.344-.322-.675-.67-.872-.83-.291-.267-.628-.46-.912-.672a6.141 6.141 0 0 0-.93-.569c-.336-.168-.59-.408-.959-.603-.38-.195-.75-.357-1.164-.532-.41-.176-.84-.36-1.329-.517-.478-.13-.92-.316-1.484-.448-1.034-.22-1.37-.286-2.226-.382l-1.123-.126C26.308 4.78 16.86 11.516 17.487 16.3c.888 6.78 13.366 5.633 13.745 10.938.486 6.801-9.988 14.553-15.425 17.646z" fill="#e4e4e4" stroke-width=".722"/></g><g id="g1970" transform="matrix(.94097 0 0 .97438 1.404 .374)" color="#000" visibility="visible" fill-opacity="1" fill-rule="nonzero" stroke="none" stroke-width=".513"><path style="marker:none" d="M17.053 14.619V35.32s10.3-4.244 18.716-10.358c0-.001 0-.003-.002-.005 0-.003-.002-.005-.004-.007l-.004-.007-.002-.006c-8.878-6.31-18.704-10.32-18.704-10.32z" id="path4360" display="inline" overflow="visible" fill="url(#linearGradient4470)"/><path style="marker:none" d="M17.053 14.619v.172s9.76 3.982 18.607 10.251l.11-.079c0-.002-.002-.003-.003-.005 0-.003-.002-.005-.004-.007l-.004-.007-.002-.007C26.88 18.63 17.053 14.62 17.053 14.62z" id="path4472" display="inline" overflow="visible" fill="#ffbc8d"/></g></g></g></svg>