<svg xmlns="http://www.w3.org/2000/svg" width="48" height="48" version="1.1" id="svg38"><defs id="defs22"><style id="style4511"/><style id="style4511-26"/><style id="style4511-9"/><style id="style4552"/><style id="style4511-2"/><clipPath id="clipPath-131538609"/></defs><style id="style4485" type="text/css"/><path d="M19.506 2.965h8.73c14.292 0 17.268 11.247 17.268 17.282v7.123c0 5.96-2.778 17.281-18.329 17.281h-7.121c-11.882 0-17.62-7.707-17.62-17.281v-7.123c0-9.574 5.622-17.282 17.072-17.282z" id="rect4144" opacity="1" fill="#d03a3a" fill-opacity="1" stroke="#000" stroke-width=".339" stroke-linecap="square" stroke-linejoin="bevel" stroke-miterlimit="4" stroke-dasharray="none" stroke-dashoffset="0" stroke-opacity=".078"/><path id="path1203" d="M23.968 12.211c-5.882 0-10.653 1.622-10.653 3.624v2.9c0 1.998 4.772 3.62 10.653 3.62 5.887 0 10.658-1.622 10.658-3.62v-2.9c0-2.002-4.771-3.624-10.658-3.624m0 0" fill="#f9f9f9" fill-opacity="1" fill-rule="nonzero" stroke="none" stroke-width="1.112"/><path id="path1205" d="M23.935 23.809c-4.77 0-8.792-1.065-10.149-2.538-.316.344-.474.71-.474 1.088v2.9c0 2.002 4.771 3.623 10.658 3.623 5.886 0 10.657-1.621 10.657-3.624v-2.9c0-.375-.188-.743-.504-1.087-1.357 1.473-5.416 2.538-10.188 2.538m0 0" fill="#f9f9f9" fill-opacity="1" fill-rule="nonzero" stroke="none" stroke-width="1.112"/><path id="path1207" d="M23.935 30.332c-4.77 0-8.792-1.065-10.149-2.537-.316.344-.474.71-.474 1.087v2.9c0 2.003 4.771 3.624 10.658 3.624 5.886 0 10.657-1.621 10.657-3.624v-2.9c0-.375-.188-.743-.504-1.087-1.357 1.472-5.416 2.537-10.188 2.537m0 0" fill="#f9f9f9" fill-opacity="1" fill-rule="nonzero" stroke="none" stroke-width="1.112"/></svg>