<svg xmlns="http://www.w3.org/2000/svg" xmlns:xlink="http://www.w3.org/1999/xlink" width="48" height="48" version="1.1" id="svg38"><defs id="defs22"><linearGradient id="linearGradient3764-367" x1="1" x2="47" gradientUnits="userSpaceOnUse" gradientTransform="rotate(-90 -11.663 59.145)"><stop stop-color="#4f95dd" stop-opacity="1" id="stop1319"/><stop offset="1" stop-color="#609fe0" stop-opacity="1" id="stop1321"/></linearGradient><style id="style4511"/><style id="style4511-26"/><style id="style4511-9"/><style id="style4552"/><style id="style4511-2"/><clipPath id="clipPath-666711261"/><linearGradient xlink:href="#linearGradient3764-367" id="linearGradient1330" x1="2.265" y1="23.808" x2="45.674" y2="23.808" gradientUnits="userSpaceOnUse"/></defs><style id="style4485" type="text/css"/><path d="M19.506 2.965h8.73c14.292 0 17.268 11.247 17.268 17.282v7.123c0 5.96-2.778 17.281-18.329 17.281h-7.121c-11.882 0-17.62-7.707-17.62-17.281v-7.123c0-9.574 5.622-17.282 17.072-17.282z" id="rect4144" opacity="1" fill="url(#linearGradient1330)" fill-opacity="1" stroke="#000" stroke-width=".339" stroke-linecap="square" stroke-linejoin="bevel" stroke-miterlimit="4" stroke-dasharray="none" stroke-dashoffset="0" stroke-opacity=".078"/><path id="path1221" d="M12.821 34.794h13.381v-2.441h-13.38m0 2.44" fill="#f9f9f9" fill-opacity="1" fill-rule="nonzero" stroke="none" stroke-width="1.167"/><path id="path1223" d="M12.821 29.911h22.297v-2.436H12.821m0 2.436" fill="#f9f9f9" fill-opacity="1" fill-rule="nonzero" stroke="none" stroke-width="1.167"/><path id="path1225" d="M12.821 25.029h22.297v-2.437H12.821m0 2.437" fill="#f9f9f9" fill-opacity="1" fill-rule="nonzero" stroke="none" stroke-width="1.167"/><path id="path1227" d="M12.821 20.146h22.297V17.71H12.821m0 2.436" fill="#f9f9f9" fill-opacity="1" fill-rule="nonzero" stroke="none" stroke-width="1.167"/><path id="path1229" d="M12.821 15.264h22.297v-2.442H12.821m0 2.442" fill="#f9f9f9" fill-opacity="1" fill-rule="nonzero" stroke="none" stroke-width="1.167"/></svg>