<svg xmlns="http://www.w3.org/2000/svg" xmlns:xlink="http://www.w3.org/1999/xlink" width="48" height="48" version="1.1" id="svg38"><defs id="defs22"><style id="style4511"/><style id="style4511-26"/><style id="style4511-9"/><style id="style4552"/><style id="style4511-2"/><linearGradient gradientTransform="rotate(-90 -9.971 60.656)" gradientUnits="userSpaceOnUse" x2="47" x1="1" id="linearGradient3764-3675"><stop id="stop1186" stop-opacity="1" stop-color="#a4cf31"/><stop id="stop1188" stop-opacity="1" stop-color="#abd341" offset="1"/></linearGradient><clipPath id="clipPath-676985511"/><linearGradient xlink:href="#linearGradient3764-3675" id="linearGradient1303" x1="2.265" y1="23.808" x2="45.674" y2="23.808" gradientUnits="userSpaceOnUse"/></defs><style id="style4485" type="text/css"/><path d="M19.506 2.965h8.73c14.292 0 17.268 11.247 17.268 17.282v7.123c0 5.96-2.778 17.281-18.329 17.281h-7.121c-11.882 0-17.62-7.707-17.62-17.281v-7.123c0-9.574 5.622-17.282 17.072-17.282z" id="rect4144" opacity="1" fill="url(#linearGradient1303)" fill-opacity="1" stroke="#000" stroke-width=".339" stroke-linecap="square" stroke-linejoin="bevel" stroke-miterlimit="4" stroke-dasharray="none" stroke-dashoffset="0" stroke-opacity=".078"/><path id="path1229-2" d="M35.188 12.588v22.441H12.955V12.588h22.233m-2.224 2.244H22.957v4.488h10.007m-12.23-4.488h-5.555v4.488h5.555m12.23 2.24H22.957v4.488h10.007m-12.23-4.488h-5.555v4.488h5.555m12.23 2.244H22.957v4.488h10.007m-12.23-4.488h-5.555v4.488h5.555m0-4.488" fill="#f9f9f9" fill-opacity="1" fill-rule="nonzero" stroke="none" stroke-width="1.117"/></svg>