<svg xmlns="http://www.w3.org/2000/svg" xmlns:xlink="http://www.w3.org/1999/xlink" width="48" height="48" version="1.1" id="svg38"><defs id="defs22"><style id="style4511"/><style id="style4511-26"/><style id="style4511-9"/><style id="style4552"/><style id="style4511-2"/><linearGradient gradientTransform="rotate(-90 -14.432 62.542)" gradientUnits="userSpaceOnUse" x2="47" x1="1" id="linearGradient3764-367535"><stop id="stop1207" stop-opacity="1" stop-color="#e4e4e4"/><stop id="stop1209" stop-opacity="1" stop-color="#eee" offset="1"/></linearGradient><clipPath id="clipPath-718178204"/><linearGradient xlink:href="#linearGradient3764-367535" id="linearGradient1332" x1="2.265" y1="23.808" x2="45.674" y2="23.808" gradientUnits="userSpaceOnUse"/></defs><style id="style4485" type="text/css"/><path d="M19.506 2.965h8.73c14.292 0 17.268 11.247 17.268 17.282v7.123c0 5.96-2.778 17.281-18.329 17.281h-7.121c-11.882 0-17.62-7.707-17.62-17.281v-7.123c0-9.574 5.622-17.282 17.072-17.282z" id="rect4144" opacity="1" fill="url(#linearGradient1332)" fill-opacity="1" stroke="#000" stroke-width=".339" stroke-linecap="square" stroke-linejoin="bevel" stroke-miterlimit="4" stroke-dasharray="none" stroke-dashoffset="0" stroke-opacity=".078"/><path id="path1252" d="M36.61 16.208a8.866 9.284 0 0 0-4.547 1.231 8.904 9.324 0 0 0-8.49-.124.156.163 0 0 0-.062.128.15.15 0 0 0 .15.153h.028a.014.014 0 0 0 .009-.004 9.107 9.536 0 0 1 2.449-.111c2.344.229 4.391.985 5.827 2.675.073.08.138.072.21-.004 1.81-2.17 4.575-3.032 7.548-2.74.166.018.332.034.495.064.057.009.147.022.199.025.097.013.15-.068.15-.153 0-.068-.024-.114-.08-.14-.058-.03-.114-.069-.171-.09a9.068 9.496 0 0 0-3.719-.926m.004.005" fill="#2d2d2d" fill-opacity="1" fill-rule="nonzero" stroke="none" stroke-width="1.062"/><path id="path1254" d="M31.167 23.643a15.385 16.11 0 0 0-8.881 2.947 15.365 16.09 0 0 0-6.26-1.388 15.313 16.035 0 0 0-8.557 2.718l-.02.017a.205.214 0 0 0-.085.183c0 .132.101.238.223.238.016 0 .032-.004.044-.004.013 0 .021-.004.024-.009a15.386 16.112 0 0 1 4.433-.675c4.084 0 7.733 1.007 10.475 3.686l.024.018c.04.038.09.05.15.05.069 0 .13-.02.17-.075 0 0 .09-.123.135-.196 2.793-3.958 7.392-5.912 12.499-5.912.365 0 .73.01 1.091.038.102.005.325.025.328.025a.226.237 0 0 0 .223-.238.21.22 0 0 0-.13-.204 15.437 16.165 0 0 0-5.871-1.223m-.008.004" fill="#2d2d2d" fill-opacity="1" fill-rule="nonzero" stroke="none" stroke-width="1.062"/></svg>