<svg xmlns="http://www.w3.org/2000/svg" xmlns:xlink="http://www.w3.org/1999/xlink" width="48" height="48" version="1.1" id="svg38"><defs id="defs22"><linearGradient id="linearGradient4488"><stop id="stop4490" offset="0" stop-color="#000" stop-opacity=".047"/><stop id="stop4492" offset="1" stop-color="#000" stop-opacity="0"/></linearGradient><style id="style4511"/><style id="style4511-26"/><style id="style4511-9"/><style id="style4552"/><style id="style4511-2"/><linearGradient xlink:href="#linearGradient4488" id="linearGradient4471" gradientUnits="userSpaceOnUse" gradientTransform="translate(-62.47 2.216) scale(.3038)" x1="288.112" y1="141.785" x2="287.575" y2="79.008"/><circle id="SVGID_1_" r="15.999" cy="-31.965" cx="73.957"/><linearGradient xlink:href="#linearGradient3862" id="linearGradient1670" x1="3.001" y1="23.808" x2="45.248" y2="23.808" gradientUnits="userSpaceOnUse"/><linearGradient gradientUnits="userSpaceOnUse" x2="47" x1="1" id="linearGradient3862"><stop id="stop1533" stop-color="#d1e2ee" stop-opacity="1"/><stop id="stop1535" offset="1" stop-color="#e0ecf4" stop-opacity="1"/></linearGradient></defs><style id="style4485" type="text/css"/><g id="g9" transform="translate(-49.354 -2.761)"><g id="g11"><g id="g13"><g id="g15"><g id="g17" opacity=".15"><g id="g19"><clipPath id="SVGID_2_"><use id="use25" x="0" y="0" width="1" height="1" xlink:href="#SVGID_1_" overflow="visible"/></clipPath></g></g></g></g></g></g><path d="M3.168 26.443v1.668c0 9.575 5.583 17.282 17.146 17.282h6.93c15.132 0 17.836-11.322 17.836-17.282v-1.668c0 5.96-2.704 17.282-17.836 17.282h-6.93c-11.563 0-17.146-7.708-17.146-17.282z" id="path4467" opacity="1" fill="url(#linearGradient4471)" fill-opacity="1" stroke="none" stroke-width="1.1" stroke-linecap="square" stroke-linejoin="bevel" stroke-miterlimit="4" stroke-dasharray="none" stroke-dashoffset="0" stroke-opacity=".078"/><path d="M19.781 2.965h8.495c13.908 0 16.805 11.246 16.805 17.282v7.123c0 5.96-2.705 17.282-17.837 17.282h-6.93c-11.563 0-17.146-7.708-17.146-17.282v-7.123c0-9.575 5.47-17.282 16.613-17.282z" id="path4469" opacity="1" fill="url(#linearGradient1670)" fill-opacity="1" stroke="#000" stroke-width=".334" stroke-linecap="square" stroke-linejoin="bevel" stroke-miterlimit="4" stroke-dasharray="none" stroke-dashoffset="0" stroke-opacity=".078"/><path d="M20.805 8.98a1.142 1.142 0 0 0-.4.037c-1.953.547-2.213 7.596-3.456 9.137-1.244 1.54-8.307 3.58-8.367 5.525-.06 1.945 6.892 4.352 8.04 5.96 1.148 1.605.958 8.698 2.873 9.355 1.916.654 6.487-4.943 8.44-5.49 1.952-.547 8.905 1.793 10.149.253 1.243-1.54-2.897-7.372-2.838-9.32.06-1.946 4.568-7.566 3.42-9.173-1.148-1.607-8.27.33-10.185-.325-1.797-.614-5.598-5.769-7.676-5.96zm8.149 9.824h2.328v6.934h-2.328zm-5.82 1.155c2.571 0 4.655 2.07 4.655 4.622 0 2.554-2.085 4.622-4.656 4.622-2.572 0-4.656-2.07-4.656-4.622 0-2.553 2.086-4.622 4.656-4.622zm0 2.312a2.32 2.32 0 0 0-2.33 2.311 2.32 2.32 0 0 0 2.33 2.312 2.32 2.32 0 0 0 2.328-2.312 2.32 2.32 0 0 0-2.329-2.311zm5.82 4.622h2.328v2.312h-2.328z" id="path1558" fill="#5387b8" fill-opacity="1" fill-rule="nonzero" stroke="none" stroke-width="1.16"/></svg>