<svg xmlns:osb="http://www.openswatchbook.org/uri/2009/osb" xmlns="http://www.w3.org/2000/svg" xmlns:xlink="http://www.w3.org/1999/xlink" width="48" height="48" version="1.1" id="svg38"><defs id="defs22"><linearGradient id="linearGradient4488"><stop id="stop4490" offset="0" stop-color="#000" stop-opacity=".047"/><stop id="stop4492" offset="1" stop-color="#000" stop-opacity="0"/></linearGradient><style id="style4511"/><style id="style4511-26"/><style id="style4511-9"/><style id="style4552"/><style id="style4511-2"/><linearGradient xlink:href="#linearGradient4488" id="linearGradient4540" gradientUnits="userSpaceOnUse" gradientTransform="matrix(.30673 0 0 .3038 -63.522 1.994)" x1="288.112" y1="141.785" x2="287.575" y2="79.008"/><linearGradient osb:paint="solid" id="linearGradient5293"><stop id="stop5295" offset="0" stop-color="#9a89c0" stop-opacity="1"/></linearGradient><linearGradient osb:paint="solid" id="linearGradient5251"><stop id="stop5253" offset="0" stop-color="#2f343f" stop-opacity="1"/></linearGradient><style id="style4511-8"/><style id="style4511-26-4"/><style id="style4511-9-8"/><style id="style4552-5"/><style id="style4511-2-5"/><style id="style4511-87"/><style id="style4511-26-7"/><style id="style4511-9-1"/><style id="style4552-53"/><style id="style4511-2-9"/><linearGradient y2="79.008" x2="287.575" y1="141.785" x1="288.112" gradientTransform="matrix(.30747 0 0 .30774 -63.376 1.914)" gradientUnits="userSpaceOnUse" id="linearGradient4540-3" xlink:href="#linearGradient4488"/><linearGradient id="linearGradient3764-3-8" x1="1" x2="47" gradientUnits="userSpaceOnUse" gradientTransform="rotate(-90 -6.993 55.55)"><stop stop-color="#e4e4e4" stop-opacity="1" id="stop2-67-6"/><stop offset="1" stop-color="#eee" stop-opacity="1" id="stop4-535-2"/></linearGradient><linearGradient gradientTransform="matrix(.99499 0 0 1.01296 .033 -.106)" gradientUnits="userSpaceOnUse" y2="23.586" x2="45.552" y1="23.586" x1="2.581" id="linearGradient1379" xlink:href="#linearGradient3764-3-8"/><path id="SVGID_4_" d="M245.46 129.523l-97.891-96.898c-5.556-5.502-16.222-11.873-23.7-14.16L84.351 6.382c-7.479-2.286-18.096.391-23.599 5.948L47.311 25.908a76163.04 76163.04 0 0 1-20.005 20.21l-13.44 13.579c-5.5 5.558-8.07 16.206-5.706 23.658l12.483 39.391c2.363 7.456 8.843 18.056 14.399 23.556l97.89 96.898c5.558 5.502 14.605 5.455 20.105-.101l36.26-36.63 20.005-20.209 36.259-36.629c5.502-5.56 5.455-14.606-.101-20.108zM67.375 78.783c-7.198 0-13.033-5.835-13.033-13.033 0-7.197 5.835-13.033 13.033-13.033 7.197 0 13.033 5.835 13.033 13.033-.001 7.198-5.836 13.033-13.033 13.033z"/><clipPath clip-path="url(#SVGID_5_)" id="SVGID_6_-20"><use height="100%" width="100%" y="0" x="0" id="use26-2" overflow="visible" xlink:href="#SVGID_4_"/></clipPath><linearGradient gradientTransform="matrix(.06004 .06412 -.06127 .06283 38.418 1.368)" y2="43.832" x2="67.374" y1="87.669" x1="67.374" gradientUnits="userSpaceOnUse" id="SVGID_10_-3"><stop id="stop104-7" offset="0" stop-color="#777"/><stop id="stop106-5" offset=".207" stop-color="#7c7c7c"/><stop id="stop108-9" offset=".439" stop-color="#898989"/><stop id="stop110-2" offset=".684" stop-color="#a0a0a0"/><stop id="stop112-28" offset=".937" stop-color="#bfbfbf"/><stop id="stop114-97" offset="1" stop-color="#c8c8c8"/></linearGradient><linearGradient id="SVGID_11_-3" gradientUnits="userSpaceOnUse" x1="67.374" y1="82.338" x2="67.374" y2="49.164" gradientTransform="matrix(.06004 .06412 -.06127 .06283 38.418 1.368)"><stop stop-color="#c8c8c8" offset="0" id="stop125-6"/><stop stop-color="#bfbfbf" offset=".063" id="stop127-1"/><stop stop-color="#a0a0a0" offset=".316" id="stop129-2"/><stop stop-color="#898989" offset=".561" id="stop131-9"/><stop stop-color="#7c7c7c" offset=".793" id="stop133-3"/><stop stop-color="#777" offset="1" id="stop135-19"/></linearGradient></defs><style id="style4485" type="text/css"/><style type="text/css" id="style4485-4"/><path stroke-miterlimit="4" id="path4518-3" d="M19.584 2.672h8.598c14.076 0 17.007 11.393 17.007 17.507v7.215c0 6.036-2.736 17.507-18.052 17.507h-7.014c-11.702 0-17.352-7.808-17.352-17.507v-7.215c0-9.7 5.535-17.507 16.813-17.507z" opacity="1" fill="url(#linearGradient1379)" fill-opacity="1" stroke="#000" stroke-width=".338" stroke-linecap="square" stroke-linejoin="bevel" stroke-dasharray="none" stroke-dashoffset="0" stroke-opacity=".078"/><path id="path4516" d="M2.75 26.22v1.669c0 9.574 5.638 17.282 17.312 17.282h6.998c15.278 0 18.008-11.323 18.008-17.282V26.22c0 5.96-2.73 17.282-18.008 17.282h-6.998c-11.674 0-17.311-7.708-17.311-17.282z" opacity="1" fill="url(#linearGradient4540)" fill-opacity="1" stroke="none" stroke-width="1.105" stroke-linecap="square" stroke-linejoin="bevel" stroke-miterlimit="4" stroke-dasharray="none" stroke-dashoffset="0" stroke-opacity=".078"/><style type="text/css" id="style4485-3"/><path stroke-miterlimit="4" id="path4516-7" d="M3.056 26.455v1.69c0 9.699 5.652 17.506 17.353 17.506h7.015c15.314 0 18.052-11.47 18.052-17.507v-1.69c0 6.037-2.737 17.508-18.052 17.508h-7.015c-11.701 0-17.353-7.809-17.353-17.507z" opacity="1" fill="url(#linearGradient4540-3)" fill-opacity="1" stroke="none" stroke-width="1.114" stroke-linecap="square" stroke-linejoin="bevel" stroke-dasharray="none" stroke-dashoffset="0" stroke-opacity=".078"/><ellipse cx="24.265" cy="23.786" id="circle585" rx="16.485" ry="16.746" fill="#5b6362" stroke-width=".978"/><path id="path587" d="M29.115 23.982l-2.522 4.236 12.51.099c.388-1.477.678-2.955.678-4.63 0-4.236-1.648-7.979-4.266-10.835l-3.686 6.303z" fill="#e69cd9" fill-opacity="1" stroke-width=".978"/><path id="path589" d="M26.593 28.218h-5.236l6.012 10.934c5.43-1.182 9.89-5.22 11.636-10.441 0-.099.098-.295.098-.394z" fill="#999adf" fill-opacity="1" stroke-width=".978"/><path id="path591" d="M9.43 18.86h16.872L20.581 8.42A15.6 15.6 0 0 0 9.429 18.86z" fill="#d92972" fill-opacity="1" stroke-width=".978"/><path id="path593" d="M9.43 19.057c-.485 1.084-.68 3.054-.68 4.729 0 4.038 1.553 7.781 3.977 10.54l9.018-15.269z" fill="#9cdbe1" fill-opacity="1" stroke-width=".978"/><path id="path595" d="M18.836 23.687l-6.208 10.54a15.47 15.749 0 0 0 11.636 5.32c1.067 0 2.037-.099 3.105-.295z" fill="#5bddef" fill-opacity="1" stroke-width=".978"/><path id="path597" d="M29.115 23.982l6.4-11.032a15.338 15.338 0 0 0-11.25-4.925c-1.163 0-2.52.197-3.588.492z" fill="#f552a0" fill-opacity="1" stroke-width=".978"/><ellipse id="ellipse599" ry="5.595" rx="8.565" cy="27.136" cx="10.437" transform="matrix(.87259 -.48846 .47682 .879 0 0)" opacity=".3" fill="#fff" stroke-width=".977"/><ellipse id="ellipse601" ry="2.151" rx="3.32" cy="27.284" cx="2.366" transform="matrix(.73534 -.6777 .6661 .74586 0 0)" fill="#fff" stroke-width=".977"/><path d="M39.234 9a1.196 1.203 0 0 1-.017 1.654 1.088 1.094 0 0 1-1.58-.016 1.196 1.203 0 0 1 .016-1.654A1.088 1.094 0 0 1 39.234 9m.544-.558a1.83 1.842 0 0 0-2.66-.029 2.015 2.027 0 0 0-.026 2.783 1.83 1.842 0 0 0 2.66.029 2.015 2.027 0 0 0 .026-2.783z" id="path117" fill="url(#SVGID_10_-3)" stroke-width=".088"/><path id="path123" d="M39.039 9.2c.327.35.321.91-.012 1.252a.82.82 0 0 1-1.197-.013.915.915 0 0 1 .012-1.252.82.82 0 0 1 1.197.013m.412-.422a1.38 1.38 0 0 0-2.012-.022 1.54 1.54 0 0 0-.02 2.106 1.38 1.38 0 0 0 2.011.021c.56-.574.57-1.519.02-2.105z" fill="#e9e6dd" stroke-width=".088"/><path d="M39.039 9.2c.327.35.321.91-.012 1.252a.82.82 0 0 1-1.197-.013.915.915 0 0 1 .012-1.252.82.82 0 0 1 1.197.013m.412-.422a1.38 1.38 0 0 0-2.012-.022 1.54 1.54 0 0 0-.02 2.106 1.38 1.38 0 0 0 2.011.021c.56-.574.57-1.519.02-2.105z" id="path138" fill="url(#SVGID_11_-3)" stroke-width=".088"/></svg>