<svg xmlns:osb="http://www.openswatchbook.org/uri/2009/osb" xmlns="http://www.w3.org/2000/svg" xmlns:xlink="http://www.w3.org/1999/xlink" width="48" height="48" version="1.1" id="svg38"><defs id="defs22"><linearGradient id="linearGradient4488"><stop id="stop4490" offset="0" stop-color="#000" stop-opacity=".047"/><stop id="stop4492" offset="1" stop-color="#000" stop-opacity="0"/></linearGradient><style id="style4511"/><style id="style4511-26"/><style id="style4511-9"/><style id="style4552"/><style id="style4511-2"/><linearGradient xlink:href="#linearGradient4488" id="linearGradient4540" gradientUnits="userSpaceOnUse" gradientTransform="matrix(.30673 0 0 .3038 -63.522 1.994)" x1="288.112" y1="141.785" x2="287.575" y2="79.008"/><linearGradient osb:paint="solid" id="linearGradient5293"><stop id="stop5295" offset="0" stop-color="#9a89c0" stop-opacity="1"/></linearGradient><linearGradient osb:paint="solid" id="linearGradient5251"><stop id="stop5253" offset="0" stop-color="#2f343f" stop-opacity="1"/></linearGradient><style id="style4511-8"/><style id="style4511-26-4"/><style id="style4511-9-8"/><style id="style4552-5"/><style id="style4511-2-5"/><style id="style4511-87"/><style id="style4511-26-7"/><style id="style4511-9-1"/><style id="style4552-53"/><style id="style4511-2-2"/><linearGradient y2="79.008" x2="287.575" y1="141.785" x1="288.112" gradientTransform="matrix(.30797 0 0 .308 -63.79 1.983)" gradientUnits="userSpaceOnUse" id="linearGradient4540-1" xlink:href="#linearGradient4488"/><style id="style4511-8-9"/><style id="style4511-26-4-8"/><style id="style4511-9-8-1"/><style id="style4552-9"/><style id="style4511-2-4"/></defs><style id="style4485" type="text/css"/><style type="text/css" id="style4485-4"/><path id="path4516" d="M2.75 26.22v1.669c0 9.574 5.638 17.282 17.312 17.282h6.998c15.278 0 18.008-11.323 18.008-17.282V26.22c0 5.96-2.73 17.282-18.008 17.282h-6.998c-11.674 0-17.311-7.708-17.311-17.282z" opacity="1" fill="url(#linearGradient4540)" fill-opacity="1" stroke="none" stroke-width="1.105" stroke-linecap="square" stroke-linejoin="bevel" stroke-miterlimit="4" stroke-dasharray="none" stroke-dashoffset="0" stroke-opacity=".078"/><style type="text/css" id="style4485-48"/><style id="style4485-8" type="text/css"/><g id="g2922" transform="matrix(.98675 0 0 .98956 155.022 6.08)"><g transform="matrix(1.0101 0 0 1.00671 -157.078 -6.206)" id="g697" fill-opacity="1"><path id="path4516-0" d="M2.75 26.545v1.691c0 9.707 5.66 17.521 17.38 17.521h7.026c15.34 0 18.081-11.479 18.081-17.52v-1.692c0 6.042-2.74 17.52-18.08 17.52H20.13c-11.721 0-17.381-7.814-17.381-17.52z" opacity="1" fill="url(#linearGradient4540-1)" stroke="none" stroke-width="1.115" stroke-linecap="square" stroke-linejoin="bevel" stroke-miterlimit="4" stroke-dasharray="none" stroke-dashoffset="0" stroke-opacity=".078"/><path id="path4518-4" d="M19.59 2.742h8.612c14.099 0 17.035 11.403 17.035 17.521v7.222c0 6.042-2.74 17.52-18.08 17.52H20.13c-11.721 0-17.381-7.814-17.381-17.52v-7.222c0-9.706 5.545-17.52 16.84-17.52z" opacity="1" fill="#da2f38" stroke="#000" stroke-width=".339" stroke-linecap="square" stroke-linejoin="bevel" stroke-miterlimit="4" stroke-dasharray="none" stroke-dashoffset="0" stroke-opacity=".078"/><path id="path4518-0" d="M20.084 4.198h7.932c12.986 0 15.691 10.584 15.691 16.263v6.703c0 5.609-2.525 16.263-16.654 16.263h-6.471c-10.796 0-16.01-7.253-16.01-16.263v-6.703c0-9.01 5.108-16.263 15.512-16.263z" opacity="1" fill="#f2f2f2" stroke="#000" stroke-width=".313" stroke-linecap="square" stroke-linejoin="bevel" stroke-miterlimit="4" stroke-dasharray="none" stroke-dashoffset="0" stroke-opacity=".078"/><path d="M24.14 12.492a5.43 4.852 0 0 0-5.116 3.235h3.305v1.617h-3.62v1.617h3.62v1.617h-3.62v1.618h3.62v1.617h-3.62a5.43 4.852 0 0 0 5.43 4.852 5.43 4.852 0 0 0 5.431-4.852h-3.62v-1.617h3.62v-1.618h-3.62v-1.617h3.62v-1.617h-3.62v-1.617h3.302a5.43 4.852 0 0 0-5.112-3.235zm-9.052 11.32a9.051 8.086 0 0 0 6.322 7.702l-2.701 3.62H29.57l-2.697-3.614a9.051 8.086 0 0 0 6.318-7.707h-1.81a7.241 6.47 0 0 1-7.241 6.469 7.241 6.47 0 0 1-7.241-6.47z" id="path4712-4-5" fill="#da2f38" stroke-width="2.322"/></g></g></svg>