<svg xmlns="http://www.w3.org/2000/svg" xmlns:xlink="http://www.w3.org/1999/xlink" width="48" height="48" version="1.1" id="svg38"><defs id="defs22"><linearGradient id="linearGradient4488"><stop id="stop4490" offset="0" stop-color="#000" stop-opacity=".047"/><stop id="stop4492" offset="1" stop-color="#000" stop-opacity="0"/></linearGradient><style id="style4511"/><style id="style4511-26"/><style id="style4511-9"/><style id="style4552"/><style id="style4511-2"/><linearGradient xlink:href="#linearGradient4488" id="linearGradient4546" gradientUnits="userSpaceOnUse" gradientTransform="translate(-62.497 1.994) scale(.3038)" x1="288.112" y1="141.785" x2="287.575" y2="79.008"/></defs><style id="style4485" type="text/css"/><path d="M3.141 26.22v1.67c0 9.573 5.583 17.281 17.146 17.281h6.93c15.133 0 17.837-11.322 17.837-17.282v-1.668c0 5.96-2.704 17.282-17.837 17.282h-6.93c-11.563 0-17.146-7.708-17.146-17.282z" id="path4528" opacity="1" fill="url(#linearGradient4546)" fill-opacity="1" stroke="none" stroke-width="1.1" stroke-linecap="square" stroke-linejoin="bevel" stroke-miterlimit="4" stroke-dasharray="none" stroke-dashoffset="0" stroke-opacity=".078"/><path d="M19.754 2.742h8.495c13.908 0 16.805 11.247 16.805 17.282v7.124c0 5.96-2.704 17.282-17.837 17.282h-6.93c-11.562 0-17.146-7.708-17.146-17.282v-7.124c0-9.574 5.47-17.282 16.613-17.282z" id="path4530" opacity="1" fill="#0b94cd" fill-opacity="1" stroke="#000" stroke-width=".334" stroke-linecap="square" stroke-linejoin="bevel" stroke-miterlimit="4" stroke-dasharray="none" stroke-dashoffset="0" stroke-opacity=".078"/><g id="g12547" transform="translate(-2.15 3.063)" fill="#fff" fill-rule="evenodd" stroke="none" stroke-width="1"><path d="M24.815 6.255c-7.238.715-12.872 6.815-12.872 14.232 0 7.903 6.392 14.304 14.295 14.304 4.734 0 8.918-2.31 11.521-5.851l-3.711-2.187a9.975 9.975 0 0 1-7.801 3.747c-5.529 0-10.014-4.485-10.014-10.013 0-5.042 3.733-9.204 8.582-9.898zm2.861 0v4.334c4.85.693 8.582 4.856 8.582 9.898 0 1.28-.25 2.503-.686 3.626l3.718 2.196a14.24 14.24 0 0 0 1.26-5.822c0-7.417-5.643-13.51-12.874-14.232z" id="path4709-6" fill-opacity=".38"/><path id="path4262-9-2-3-2" d="M26.247 17.41a3.113 3.113 0 1 0-.002 6.225 3.113 3.113 0 0 0 .002-6.226z" fill-opacity="1"/><path id="path4707-1" d="M40.512 19.684l-4.281.192c.012.203.027.405.027.611 0 1.28-.25 2.503-.686 3.626l3.718 2.196a14.24 14.24 0 0 0 1.26-5.822c0-.271-.023-.535-.038-.803zm-22.558 6.413l-3.515 2.464c2.573 3.761 6.893 6.23 11.799 6.23 4.734 0 8.918-2.31 11.521-5.851l-3.711-2.187a9.975 9.975 0 0 1-7.801 3.747c-3.45 0-6.492-1.746-8.293-4.403z" fill-opacity="1"/></g></svg>