<svg xmlns:osb="http://www.openswatchbook.org/uri/2009/osb" xmlns="http://www.w3.org/2000/svg" xmlns:xlink="http://www.w3.org/1999/xlink" width="48" height="48" version="1.1" id="svg38"><defs id="defs22"><linearGradient id="linearGradient4488"><stop id="stop4490" offset="0" stop-color="#000" stop-opacity=".047"/><stop id="stop4492" offset="1" stop-color="#000" stop-opacity="0"/></linearGradient><style id="style4511"/><style id="style4511-26"/><style id="style4511-9"/><style id="style4552"/><style id="style4511-2"/><linearGradient osb:paint="solid" id="linearGradient5293"><stop id="stop5295" offset="0" stop-color="#9a89c0" stop-opacity="1"/></linearGradient><linearGradient osb:paint="solid" id="linearGradient5251"><stop id="stop5253" offset="0" stop-color="#2f343f" stop-opacity="1"/></linearGradient><style id="style4511-8"/><style id="style4511-26-4"/><style id="style4511-9-8"/><style id="style4552-5"/><style id="style4511-2-5"/><linearGradient id="linearGradient2093"><stop id="stop2089" offset="0" stop-color="#f2f2f2" stop-opacity="1"/><stop id="stop2091" offset="1" stop-color="#f2f2f2" stop-opacity="0"/></linearGradient><style id="style4511-879"/><style id="style4511-26-765"/><style id="style4511-9-22"/><style id="style4552-4"/><style id="style4511-2-84"/><linearGradient y2="79.008" x2="287.575" y1="141.785" x1="288.112" gradientTransform="translate(110.692 45.753) scale(.3038)" gradientUnits="userSpaceOnUse" id="linearGradient4546" xlink:href="#linearGradient4488"/><style id="style4511-8-72"/><style id="style4511-26-4-9"/><style id="style4511-9-7"/><style id="style4552-3"/><style id="style4511-2-8"/><style id="style4552-7"/><linearGradient id="linearGradient4675"><stop offset="0" id="stop42" stop-color="#e4a56d" stop-opacity="1"/><stop offset="1" id="stop44" stop-color="#a7bd78" stop-opacity="1"/></linearGradient><style id="style4552-6"/><style id="style4552-73"/><style id="style4552-2"/><linearGradient gradientTransform="matrix(.28407 .02406 -.02586 .26434 -24.456 13.445)" id="5-5-2" x1="-226.75" x2="-170.39" gradientUnits="userSpaceOnUse"><stop stop-color="#de4000" id="stop4645-3-9"/><stop offset="1" stop-color="#fab600" id="stop4647-5-1"/></linearGradient><linearGradient xlink:href="#linearGradient1129" id="linearGradient1091" x1="128" y1="100" x2="185.544" y2="133.849" gradientUnits="userSpaceOnUse" gradientTransform="translate(-26.432 -38.432)"/><linearGradient id="linearGradient1129"><stop offset="0" id="stop1123" stop-color="#000" stop-opacity="0"/><stop id="stop1125" offset="1" stop-color="#000" stop-opacity="1"/></linearGradient><filter id="filter1101" x="-.105" width="1.21" y="-.14" height="1.28" color-interpolation-filters="sRGB"><feGaussianBlur stdDeviation="7" id="feGaussianBlur1103"/></filter><linearGradient gradientUnits="userSpaceOnUse" y2="15.098" x2="36.824" y1="15.098" x1="26.997" id="linearGradient2087" xlink:href="#5-5-2"/><linearGradient gradientTransform="translate(-2)" gradientUnits="userSpaceOnUse" y2="28.582" x2="22.684" y1="28.582" x1="5.749" id="linearGradient2095" xlink:href="#linearGradient2093"/><linearGradient gradientTransform="translate(-2)" gradientUnits="userSpaceOnUse" y2="30.186" x2="29.08" y1="30.186" x1="16.281" id="linearGradient2103" xlink:href="#linearGradient4675"/><style id="style4511-87"/><style id="style4511-26-76"/><style id="style4511-9-2"/><style id="style4552-8"/><style id="style4511-2-51"/><filter height="1.12" y="-.06" width="1.12" x="-.06" id="filter1261" color-interpolation-filters="sRGB"><feGaussianBlur id="feGaussianBlur1263" stdDeviation="3.013"/></filter><style id="style4511-8-7"/><style id="style4511-26-7"/><style id="style4511-9-7-9"/><style id="style4552-5-8"/><style id="style4511-2-5-1"/><linearGradient id="linearGradient4487"><stop id="stop4489" offset="0" stop-color="#feaf9d" stop-opacity="1"/><stop id="stop4491" offset="1" stop-color="#7f4a98" stop-opacity="1"/></linearGradient><linearGradient gradientUnits="userSpaceOnUse" y2="24.161" x2="45.221" y1="24.161" x1="2.974" id="linearGradient2245" xlink:href="#linearGradient4487"/></defs><style id="style4485" type="text/css"/><style type="text/css" id="style4485-4"/><style type="text/css" id="style4485-03"/><style id="style4485-0" type="text/css"/><style type="text/css" id="style4485-4-7"/><style type="text/css" id="style4485-5"/><style type="text/css" id="style4485-3"/><style type="text/css" id="style4485-5-1"/><style id="style4485-83" type="text/css"/><style type="text/css" id="style4485-8"/><g id="g3372" transform="matrix(1.00604 0 0 1.00194 -.404 -.668)"><path id="path4528" d="M45.054 21.526v-1.669c0-9.574-5.583-17.282-17.146-17.282h-6.93C5.845 2.575 3.14 13.898 3.14 19.857v1.669c0-5.96 2.704-17.282 17.837-17.282h6.93c11.563 0 17.146 7.708 17.146 17.282z" opacity="1" fill="url(#linearGradient4546)" fill-opacity="1" stroke="none" stroke-width="1.1" stroke-linecap="square" stroke-linejoin="bevel" stroke-miterlimit="4" stroke-dasharray="none" stroke-dashoffset="0" stroke-opacity=".078"/><path id="path4530" d="M28.44 45.004h-8.494C6.038 45.004 3.14 33.757 3.14 27.722V20.6c0-5.96 2.704-17.282 17.837-17.282h6.93c11.562 0 17.146 7.708 17.146 17.282v7.123c0 9.574-5.47 17.282-16.613 17.282z" opacity="1" fill="url(#linearGradient2245)" fill-opacity="1" stroke="#000" stroke-width=".334" stroke-linecap="square" stroke-linejoin="bevel" stroke-miterlimit="4" stroke-dasharray="none" stroke-dashoffset="0" stroke-opacity=".078"/><path style="marker:none" d="M26.956 15.72L14.164 35.076h9.594L36.55 15.719z" id="path4266" color="#000" display="inline" overflow="visible" visibility="visible" fill="#ffda3d" fill-opacity=".534" fill-rule="nonzero" stroke="none" stroke-width=".237" enable-background="accumulate"/><path transform="matrix(.17776 0 0 .18415 -3.083 4.588)" id="path1078" d="M93.203 81.94l-47.635 91.628h120l-36-69-12.322 23.62z" style="marker:none" color="#000" display="inline" overflow="visible" visibility="visible" opacity=".3" fill="url(#linearGradient1091)" fill-opacity="1" fill-rule="nonzero" stroke="none" stroke-width="6" filter="url(#filter1101)" enable-background="accumulate"/><path style="marker:none" d="M3.749 35.077l8.467-12.99 8.468 12.99z" id="path4244-2" color="#000" display="inline" overflow="visible" visibility="visible" fill="url(#linearGradient2095)" fill-opacity="1" fill-rule="nonzero" stroke="none" stroke-width=".952" enable-background="accumulate"/><path id="path4246-6" d="M14.281 35.077l6.4-9.782 6.4 9.782z" style="marker:none" color="#000" display="inline" overflow="visible" visibility="visible" fill="url(#linearGradient2103)" fill-opacity="1" fill-rule="nonzero" stroke="none" stroke-width=".952" enable-background="accumulate"/><ellipse ry="4.995" rx="4.914" cy="15.098" cx="31.911" id="path1076" display="inline" opacity="1" fill="url(#linearGradient2087)" fill-opacity="1" stroke="none" stroke-width=".413" stroke-linecap="round" stroke-linejoin="round" stroke-miterlimit="4" stroke-dasharray="none" stroke-dashoffset="0" stroke-opacity="1" enable-background="new"/><g id="g2079" fill="#8fbf3a" fill-opacity="1" stroke="none" stroke-width="1.8" stroke-linecap="round" stroke-linejoin="miter" stroke-miterlimit="4" stroke-dasharray="none" stroke-dashoffset="0" stroke-opacity="1"><path d="M35.535 43.876a14.34 14.34 0 0 0 3.989-2.43l-1.045-1.076 5.216-5.705h-6.212l-5.39 5.71c.959.958 2.18 2.21 3.442 3.501z" id="path5889" opacity="1"/><path d="M30.564 45.064c1.896-.184 3.606-.606 5.125-1.242l-3.35-3.452 5.216-5.705h-6.213l-5.387 5.71a654.752 654.752 0 0 1 4.61 4.689z" id="path5893" opacity="1"/><path d="M28.402 45.171c.82 0 1.6-.054 2.358-.135l-4.531-4.666 5.214-5.705h-6.212l-5.387 5.71c1.312 1.313 2.999 3.042 4.713 4.796z" id="path5895" opacity="1"/><path d="M24.75 45.171l-4.662-4.8 5.215-5.706H19.09l-5.387 5.71c1.297 1.298 2.963 3.005 4.66 4.742a23.99 23.99 0 0 0 1.545.054z" id="path5897" opacity="1"/><path d="M18.559 45.134l-4.625-4.764 5.215-5.705h-6.213l-5.381 5.703c.052.057.103.114.156.17.093.093.227.232.324.33 2.345 2.311 5.72 4 10.524 4.266z" id="path5899" opacity="1"/><path d="M9.475 42.103L7.793 40.37l5.217-5.705H6.797l-1.78 1.885c.981 2.062 2.405 4.023 4.458 5.553z" id="path5901" opacity="1"/><path d="M5.088 36.692l1.854-2.027H4.236c.235.681.526 1.358.852 2.027z" id="path5903" opacity="1"/><path d="M39.281 41.644c2.19-1.804 3.761-4.196 4.692-6.979h-.553l-5.387 5.71c.348.347.84.855 1.248 1.269z" id="path5905" opacity="1"/></g><path d="M20.788 16.174c-.35-.008-.683.13-.97.378a1.492 1.492 0 0 0-.751-.353c-.376-.052-.737.063-1.049.307a.125.125 0 0 0-.01.008.061.061 0 0 0-.012.039c0 .027.014.047.032.047h.006l.001-.002a1.3 1.3 0 0 1 .522-.034c.5.07.937.302 1.243.82.015.026.03.023.045 0 .385-.666.975-.93 1.609-.84.035.005.07.01.105.02a.447.447 0 0 0 .043.007c.02.004.032-.021.032-.047 0-.021-.005-.035-.018-.043-.012-.01-.024-.021-.036-.028a1.474 1.474 0 0 0-.793-.284m.001.002" id="path416" fill="#666" fill-opacity="1" fill-rule="nonzero" stroke="none" stroke-width=".272"/><path d="M18.587 17.848c-.417 0-.802.3-1.117.804-.241-.243-.507-.379-.788-.379-.399 0-.769.274-1.076.742l-.003.004a.097.097 0 0 0-.01.05c0 .036.012.065.027.065l.006-.001a.982.982 0 0 1 .56-.187c.515 0 .974.275 1.319 1.006l.003.005c.005.01.01.014.019.014.008 0 .016-.006.021-.021l.017-.053c.351-1.08.93-1.613 1.572-1.613.046 0 .092.002.138.01l.04.007c.016 0 .029-.029.029-.065 0-.025-.007-.046-.016-.056l-.003-.003c-.228-.211-.476-.33-.736-.33m-.001 0" id="path418" fill="#666" fill-opacity="1" fill-rule="nonzero" stroke="none" stroke-width=".197"/><path d="M16.266 16.912c-.35-.008-.683.13-.97.378a1.492 1.492 0 0 0-.751-.353c-.376-.052-.737.063-1.049.307a.125.125 0 0 0-.01.008.061.061 0 0 0-.012.039c0 .027.014.047.032.047h.006l.001-.002a1.3 1.3 0 0 1 .522-.034c.5.07.937.303 1.243.82.015.026.03.023.045 0 .385-.666.975-.93 1.609-.84.035.005.07.01.105.02a.447.447 0 0 0 .043.007c.02.004.032-.021.032-.047 0-.021-.005-.035-.018-.043-.012-.01-.024-.021-.036-.028a1.474 1.474 0 0 0-.793-.284m.001.002" id="path416-6" fill="#666" fill-opacity="1" fill-rule="nonzero" stroke="none" stroke-width=".272"/><circle transform="matrix(.1227 0 0 .11616 -35.702 1.939)" r="60.268" cy="109.765" cx="552.261" id="path6891" style="marker:none" color="#000" display="inline" overflow="visible" visibility="visible" opacity=".1" fill="#e5ff14" fill-opacity="1" fill-rule="nonzero" stroke="none" stroke-width="11.385" filter="url(#filter1261)" enable-background="accumulate"/></g></svg>