<svg xmlns:osb="http://www.openswatchbook.org/uri/2009/osb" xmlns="http://www.w3.org/2000/svg" xmlns:xlink="http://www.w3.org/1999/xlink" width="48" height="48" version="1.1" id="svg38"><defs id="defs22"><linearGradient id="linearGradient4488"><stop id="stop4490" offset="0" stop-color="#000" stop-opacity=".047"/><stop id="stop4492" offset="1" stop-color="#000" stop-opacity="0"/></linearGradient><style id="style4511"/><style id="style4511-26"/><style id="style4511-9"/><style id="style4552"/><style id="style4511-2"/><linearGradient osb:paint="solid" id="linearGradient5293"><stop id="stop5295" offset="0" stop-color="#9a89c0" stop-opacity="1"/></linearGradient><linearGradient osb:paint="solid" id="linearGradient5251"><stop id="stop5253" offset="0" stop-color="#2f343f" stop-opacity="1"/></linearGradient><style id="style4511-8"/><style id="style4511-26-4"/><style id="style4511-9-8"/><style id="style4552-5"/><style id="style4511-2-5"/><style id="style4511-879"/><style id="style4511-26-76"/><style id="style4511-9-2"/><style id="style4552-8"/><style id="style4511-2-2"/><linearGradient y2="79.008" x2="287.575" y1="141.785" x1="288.112" gradientTransform="rotate(90.216 54.465 -7.917) scale(.3038)" gradientUnits="userSpaceOnUse" id="linearGradient4540" xlink:href="#linearGradient4488"/><style id="style4511-87"/><style id="style4511-26-7"/><style id="style4511-9-1"/><style id="style4552-53"/><style id="style4511-2-9"/><style id="style4511-8-6"/><style id="style4511-26-4-2"/><style id="style4511-9-8-8"/><style id="style4552-5-6"/><style id="style4511-2-5-4"/></defs><style id="style4485" type="text/css"/><style type="text/css" id="style4485-4"/><style type="text/css" id="style4485-0"/><style id="style4485-7" type="text/css"/><style type="text/css" id="style4485-6"/><g id="g1976" transform="matrix(.98132 0 0 1.00191 .273 -.436)"><g id="g1553"><path id="path4516" d="M22.28 3.136l-1.67-.007C11.037 3.093 3.309 8.648 3.265 20.21l-.026 6.93c-.057 15.133 11.255 17.88 17.215 17.902l1.669.006c-5.96-.022-17.272-2.77-17.215-17.901l.026-6.93C4.976 8.653 12.705 3.1 22.279 3.135z" opacity="1" fill="url(#linearGradient4540)" fill-opacity="1" stroke="none" stroke-width="1.1" stroke-linecap="square" stroke-linejoin="bevel" stroke-miterlimit="4" stroke-dasharray="none" stroke-dashoffset="0" stroke-opacity=".078"/><path d="M45.695 19.837C45.737 8.694 38.05 3.195 28.476 3.16l-4.293-.016-.157 41.912 4.293.016c6.035.023 17.292-2.832 17.344-16.74z" id="path4518-5" opacity="1" fill="#1ba7e6" fill-opacity="1" stroke="#000" stroke-width=".334" stroke-linecap="square" stroke-linejoin="bevel" stroke-miterlimit="4" stroke-dasharray="none" stroke-dashoffset="0" stroke-opacity=".078"/><path d="M2.548 28.39c-.027 11.142 7.667 16.631 17.24 16.655l4.294.01.101-41.912-4.293-.01C13.855 3.118 2.602 5.988 2.568 19.895z" id="path4518-7" opacity="1" fill="#666" fill-opacity="1" stroke="#000" stroke-width=".334" stroke-linecap="square" stroke-linejoin="bevel" stroke-miterlimit="4" stroke-dasharray="none" stroke-dashoffset="0" stroke-opacity=".078"/><path d="M19.89 3.133C13.855 3.12 2.602 5.987 2.568 19.895l-.012 5.02h21.575l.052-21.772z" id="path4518-7-6" opacity="1" fill="#ccc" fill-opacity="1" stroke="#000" stroke-width=".334" stroke-linecap="square" stroke-linejoin="bevel" stroke-miterlimit="4" stroke-dasharray="none" stroke-dashoffset="0" stroke-opacity=".078"/><g id="g1280" transform="translate(53.492 2.136)"><g transform="translate(-53.963 -1.085)" id="g1350" fill="#f9f9f9" fill-opacity="1" fill-rule="nonzero" stroke="none" stroke-width="1.033"><path id="path36" d="M39.454 21.224l-.04 2.03-8.41-.166.039-2.029m8.41.165"/><path id="path38" d="M39.376 25.283l-.039 2.029-8.41-.165.038-2.03m8.41.166"/><g id="g1065" transform="matrix(.98576 .00856 -.00937 1.0597 -105.005 24.25)"><path d="M125.512 6.618l-.022 2-8.532-.09.02-2m8.534.09" id="path42"/><path d="M122.31 3.623l-.021 2-2.133-.023.02-2m2.134.023" id="path44"/><path d="M122.246 9.623l-.02 2-2.134-.023.021-2m2.133.023" id="path46"/><path d="M120.4-14.398l2.13.023-.085 7.999-2.129-.023m.085-8" id="path48"/><path d="M125.702-11.346l-.021 2-8.533-.09.021-2m8.533.09" id="path50"/></g></g></g><path d="M2.56 25.31h21.582" id="path701" fill="#666" fill-opacity="1" stroke="#666" stroke-width="1.806" stroke-linecap="butt" stroke-linejoin="miter" stroke-opacity="1"/></g></g></svg>