<svg xmlns:osb="http://www.openswatchbook.org/uri/2009/osb" xmlns="http://www.w3.org/2000/svg" xmlns:xlink="http://www.w3.org/1999/xlink" width="48" height="48" version="1.1" id="svg38"><defs id="defs22"><linearGradient id="linearGradient4488"><stop id="stop4490" offset="0" stop-color="#000" stop-opacity=".047"/><stop id="stop4492" offset="1" stop-color="#000" stop-opacity="0"/></linearGradient><style id="style4511"/><style id="style4511-26"/><style id="style4511-9"/><style id="style4552"/><style id="style4511-2"/><linearGradient xlink:href="#linearGradient4488" id="linearGradient4540" gradientUnits="userSpaceOnUse" gradientTransform="matrix(.30902 0 0 .3038 -64.017 1.994)" x1="288.112" y1="141.785" x2="287.575" y2="79.008"/><linearGradient osb:paint="solid" id="linearGradient5293"><stop id="stop5295" offset="0" stop-color="#9a89c0" stop-opacity="1"/></linearGradient><linearGradient gradientTransform="rotate(-90 -6.993 55.55)" gradientUnits="userSpaceOnUse" x2="47" x1="1" id="linearGradient3764-3"><stop id="stop2-67" stop-opacity="1" stop-color="#e4e4e4"/><stop id="stop4-535" stop-opacity="1" stop-color="#eee" offset="1"/></linearGradient><linearGradient gradientTransform="rotate(-90 -9.434 52.026)" gradientUnits="userSpaceOnUse" x2="47" x1="1" id="linearGradient3764-62"><stop id="stop613" stop-opacity="1" stop-color="#7fa935"/><stop id="stop615" stop-opacity="1" stop-color="#89b83a" offset="1"/></linearGradient><linearGradient xlink:href="#linearGradient3764-62" id="linearGradient1396" x1="2.581" y1="23.993" x2="45.755" y2="23.993" gradientUnits="userSpaceOnUse"/><linearGradient xlink:href="#linearGradient3764-3" id="linearGradient1406" x1="59.577" y1="33.293" x2="62.303" y2="33.293" gradientUnits="userSpaceOnUse" gradientTransform="translate(-31.729 1.22)"/><linearGradient xlink:href="#linearGradient3764-3" id="linearGradient1408" x1="58.813" y1="33.745" x2="59.93" y2="33.745" gradientUnits="userSpaceOnUse" gradientTransform="translate(-31.729 1.22)"/><linearGradient xlink:href="#linearGradient3764-3" id="linearGradient1410" x1="58.027" y1="26.409" x2="59.814" y2="26.409" gradientUnits="userSpaceOnUse" gradientTransform="translate(-31.729 1.22)"/><linearGradient xlink:href="#linearGradient3764-3" id="linearGradient1412" x1="57.15" y1="26.716" x2="58.879" y2="26.716" gradientUnits="userSpaceOnUse" gradientTransform="translate(-31.729 1.22)"/><linearGradient xlink:href="#linearGradient3764-3" id="linearGradient1414" x1="60.104" y1="13.355" x2="61.876" y2="13.355" gradientUnits="userSpaceOnUse" gradientTransform="translate(-31.729 1.22)"/><linearGradient xlink:href="#linearGradient3764-3" id="linearGradient1416" x1="58.189" y1="13.384" x2="60.557" y2="13.384" gradientUnits="userSpaceOnUse" gradientTransform="translate(-31.729 1.22)"/><linearGradient xlink:href="#linearGradient3764-3" id="linearGradient1418" x1="53.876" y1="13.243" x2="60.041" y2="13.243" gradientUnits="userSpaceOnUse" gradientTransform="translate(-31.729 1.22)"/><linearGradient xlink:href="#linearGradient3764-3" id="linearGradient1420" x1="50.297" y1="16.732" x2="58.043" y2="16.732" gradientUnits="userSpaceOnUse" gradientTransform="translate(-31.729 1.22)"/><linearGradient xlink:href="#linearGradient3764-3" id="linearGradient1422" x1="51.106" y1="22.253" x2="57.849" y2="22.253" gradientUnits="userSpaceOnUse" gradientTransform="translate(-31.729 1.22)"/><linearGradient xlink:href="#linearGradient3764-3" id="linearGradient1424" x1="54.643" y1="27.115" x2="57.741" y2="27.115" gradientUnits="userSpaceOnUse" gradientTransform="translate(-31.729 1.22)"/><linearGradient xlink:href="#linearGradient3764-3" id="linearGradient1426" x1="56.956" y1="31.959" x2="58.636" y2="31.959" gradientUnits="userSpaceOnUse" gradientTransform="translate(-31.729 1.22)"/><linearGradient xlink:href="#linearGradient3764-3" id="linearGradient1428" x1="58.032" y1="19.33" x2="60.555" y2="19.33" gradientUnits="userSpaceOnUse" gradientTransform="translate(-31.729 1.22)"/><linearGradient xlink:href="#linearGradient3764-3" id="linearGradient1430" x1="57.516" y1="22.13" x2="63.984" y2="22.13" gradientUnits="userSpaceOnUse" gradientTransform="translate(-31.729 1.22)"/></defs><style id="style4485" type="text/css"/><path id="path4516" d="M2.75 26.22v1.67c0 9.573 5.68 17.281 17.44 17.281h7.05c15.392 0 18.143-11.322 18.143-17.282v-1.668c0 5.96-2.75 17.282-18.143 17.282h-7.05c-11.76 0-17.44-7.708-17.44-17.282z" opacity="1" fill="url(#linearGradient4540)" fill-opacity="1" stroke="none" stroke-width="1.109" stroke-linecap="square" stroke-linejoin="bevel" stroke-miterlimit="4" stroke-dasharray="none" stroke-dashoffset="0" stroke-opacity=".078"/><path id="path4518" d="M19.73 2.744h8.681c14.213 0 17.173 11.466 17.173 17.618v7.262c0 6.075-2.763 17.617-18.228 17.617h-7.082c-11.816 0-17.522-7.857-17.522-17.617v-7.262c0-9.76 5.59-17.618 16.978-17.618z" opacity="1" fill="url(#linearGradient1396)" fill-opacity="1" stroke="#000" stroke-width=".341" stroke-linecap="square" stroke-linejoin="bevel" stroke-miterlimit="4" stroke-dasharray="none" stroke-dashoffset="0" stroke-opacity=".078"/><g id="g1473" transform="matrix(1.1356 -.62751 .55708 1.11706 -19.235 12.726)" fill-opacity="1" stroke="#d1d3d4" stroke-width=".099"><path id="path3" d="M31.27 15.686l.849-1.278s-4.702 2.114-5.621 3.835c-.92 1.72-.707 5.507-.389 6.883.318 1.377 1.697 6.933 2.121 7.179.106-.197.248 0 .248 0s-.39-.148-.884-2.41c-.495-2.261-1.344-4.818-1.344-6.539-.141-1.967-.176-3.835 1.026-5.162 1.45-1.426 2.97-2.213 3.995-2.508z" fill="url(#linearGradient1430)"/><path id="path5" d="M28.407 21.98s.46-.492.353-1.18c-.106-.689-.53-1.279-.777-1.525-.248-.246-1.369-.467-1.555.463-.186.93-.036 1.504.53 1.996.6.491 1.13.245 1.449.245z" fill="url(#linearGradient1428)"/><path id="path9" d="M25.437 37.86s.061-.59.331-1.032c.27-.443.983-3.245 1.033-4.032.05-.786.096-1.855 0-4.179-1.081 1.23-1.47 3.638-1.505 4.622-.036.983-.036 3.49.141 4.621z" fill="url(#linearGradient1426)"/><path id="path11" d="M22.998 32.895s.672-1.426.919-1.77c.248-.345 1.377-2.606 1.36-3.049-.017-.442.92-2.744.629-4.371-1.211 1.667-3.226 4.42-2.908 9.19z" fill="url(#linearGradient1424)"/><path id="path13" d="M19.427 27.486s.318-.688.743-.836c.424-.147 2.828-1.81 3.641-2.945.813-1.136 2.215-3.009 2.256-4.186-1.16.543-3.423 1.821-4.165 2.903-.743 1.082-2.369 2.507-2.475 5.064z" fill="url(#linearGradient1422)"/><path id="path15" d="M18.65 17.702s.424 0 .777.197c.354.196 2.404 1.095 2.9 1.162.494.067 3.153-.08 3.852 0-.812-.818-2.612-1.998-3.215-2.097-.602-.098-3.678-.491-4.315.738z" fill="url(#linearGradient1420)"/><path id="path17" d="M22.185 12.146s.418.443.562.836c.145.393 1.24 1.917 1.453 1.967.247.196 1.472 1.524 1.867 1.622.396.098.981.415 2.085.06-1.23-.404-1.088-.355-1.548-.847-.46-.491-1.237-1.327-1.662-1.72-.424-.394-1.359-2.104-1.978-1.918-.619.186-.78 0-.78 0z" fill="url(#linearGradient1418)"/><path id="path19-67" d="M26.498 12.982s.26.295.36.64c.1.343 1.615 2.78 1.918 2.59-.05-.624-.05-1.067-.192-1.41-.142-.345-.695-.984-1.02-1.23-.324-.246-1.066-.59-1.066-.59z" fill="url(#linearGradient1416)"/><path id="path21" d="M28.776 14.113s.232-1.574 1.151-1.131c.283 1.032.288 3.063-.575 3.24-.863.177-1.267-.585-.576-2.11z" fill="url(#linearGradient1414)"/><path id="path23" d="M25.537 29.315s-.301-2.094.383-2.655c.943-.175 1.101-.492 1.172 0 .07.491-.283 3.54-1.555 2.655z" fill="url(#linearGradient1412)"/><path id="path25" d="M27.877 28.853s.487-.885-.234-1.72c-.509-.64-1.082-1.426-1.29 0-.067 1.18.534 2.065 1.524 1.72z" fill="url(#linearGradient1410)"/><path id="path27" d="M27.564 38.5s.1-.836.348-1.426c.247-.59.212-2.262.177-2.557-.036-.295-.092-1.72.025-1.967.116-.245-.071-1.025-.071-1.025s-.803.829-.909 4.025c.07 2.556.33 1.72.43 2.95z" fill="url(#linearGradient1408)"/><path id="path29" d="M30.531 37.919s-.353-.64-.353-1.032c0-.394-.319-2.016-.425-2.213-.106-.197-.899-2.704-1.846-3.49.185 2.212.393 3.399.625 3.887.231.488.55 1.619 2 2.848z" fill="url(#linearGradient1406)"/></g></svg>