<svg xmlns:osb="http://www.openswatchbook.org/uri/2009/osb" xmlns="http://www.w3.org/2000/svg" xmlns:xlink="http://www.w3.org/1999/xlink" width="48" height="48" version="1.1" id="svg38"><defs id="defs22"><linearGradient id="linearGradient4488"><stop id="stop4490" offset="0" stop-color="#000" stop-opacity=".047"/><stop id="stop4492" offset="1" stop-color="#000" stop-opacity="0"/></linearGradient><style id="style4511"/><style id="style4511-26"/><style id="style4511-9"/><style id="style4552"/><style id="style4511-2"/><linearGradient xlink:href="#linearGradient4488" id="linearGradient4540" gradientUnits="userSpaceOnUse" gradientTransform="matrix(.30673 0 0 .3038 -63.522 1.994)" x1="288.112" y1="141.785" x2="287.575" y2="79.008"/><linearGradient osb:paint="solid" id="linearGradient5293"><stop id="stop5295" offset="0" stop-color="#9a89c0" stop-opacity="1"/></linearGradient><linearGradient osb:paint="solid" id="linearGradient5251"><stop id="stop5253" offset="0" stop-color="#2f343f" stop-opacity="1"/></linearGradient><style id="style4511-8"/><style id="style4511-26-4"/><style id="style4511-9-8"/><style id="style4552-5"/><style id="style4511-2-5"/><style id="style4511-87"/><style id="style4511-26-7"/><style id="style4511-9-1"/><style id="style4552-53"/><style id="style4511-2-9"/><linearGradient y2="79.008" x2="287.575" y1="141.785" x1="288.112" gradientTransform="translate(-62.497 1.994) scale(.3038)" gradientUnits="userSpaceOnUse" id="linearGradient4546" xlink:href="#linearGradient4488"/><linearGradient id="linearGradient-2-1" y2="36.509" x2="24.98" y1="11.529" x1="24.98" gradientTransform="matrix(.93634 0 0 1.00826 1.23 -1.436)" gradientUnits="userSpaceOnUse"><stop id="stop60" offset="0%" stop-color="#41A5DD"/><stop id="stop62-1" offset="100%" stop-color="#5EA8EB"/></linearGradient></defs><style id="style4485" type="text/css"/><style type="text/css" id="style4485-4"/><path id="path4516" d="M2.75 26.22v1.669c0 9.574 5.638 17.282 17.312 17.282h6.998c15.278 0 18.008-11.323 18.008-17.282V26.22c0 5.96-2.73 17.282-18.008 17.282h-6.998c-11.674 0-17.311-7.708-17.311-17.282z" opacity="1" fill="url(#linearGradient4540)" fill-opacity="1" stroke="none" stroke-width="1.105" stroke-linecap="square" stroke-linejoin="bevel" stroke-miterlimit="4" stroke-dasharray="none" stroke-dashoffset="0" stroke-opacity=".078"/><style type="text/css" id="style4485-1"/><g id="g2099" transform="matrix(1.00966 0 0 1.00509 -.42 .022)"><path id="path4528" d="M3.141 26.22v1.67c0 9.573 5.583 17.281 17.146 17.281h6.93c15.133 0 17.837-11.322 17.837-17.282v-1.668c0 5.96-2.704 17.282-17.837 17.282h-6.93c-11.563 0-17.146-7.708-17.146-17.282z" opacity="1" fill="url(#linearGradient4546)" fill-opacity="1" stroke="none" stroke-width="1.1" stroke-linecap="square" stroke-linejoin="bevel" stroke-miterlimit="4" stroke-dasharray="none" stroke-dashoffset="0" stroke-opacity=".078"/><path id="path4530" d="M19.754 2.742h8.495c13.908 0 16.805 11.247 16.805 17.282v7.124c0 5.96-2.704 17.282-17.837 17.282h-6.93c-11.562 0-17.146-7.708-17.146-17.282v-7.124c0-9.574 5.47-17.282 16.613-17.282z" opacity="1" fill="#2ea3d5" fill-opacity="1" stroke="#000" stroke-width=".334" stroke-linecap="square" stroke-linejoin="bevel" stroke-miterlimit="4" stroke-dasharray="none" stroke-dashoffset="0" stroke-opacity=".078"/><g transform="translate(.398 .765)" id="g1243" stroke="none"><path id="Combined-Shape" d="M10.107 9.188V7.753h1.087v1.435h29.36v.717h-29.36v2.153h29.36v.718h-29.36v2.152h29.36v.718h-29.36v2.152h29.36v.718h-29.36v2.153h29.36v.717h-29.36v2.153h29.36v.717h-29.36v2.153h29.36v.718h-29.36v2.152h29.36v.718h-29.36v2.152h29.36v.718h-29.36v2.153h29.36v.717h-29.36v2.153h-1.087v-2.153H6.844v-.717h3.263v-2.153H6.844v-.718h3.263v-2.152H6.844v-.718h3.263v-2.152H6.844v-.718h3.263v-2.153H6.844v-.717h3.263v-2.153H6.844v-.717h3.263v-2.153H6.844v-.718h3.263v-2.152H6.844v-.718h3.263v-2.152H6.844v-.718h3.263V9.905H6.844v-.717z" fill="#fff" fill-opacity=".342" fill-rule="evenodd" stroke-width=".883"/><path id="path70" d="M32.6 33.136l.304.563.114.093c.17-.098.324-.212.46-.34v-.496h-.406c-.142.07-.3.13-.472.18zm1.71-2.13c.037-.252.055-.528.055-.827v-.53h-.887v1.357zm-2.781-3.322h4.785v2.495c0 1.312-.282 2.403-.873 3.254-.616.887-1.548 1.454-2.743 1.7l-1.17.242zm-2.72 5.452l.294.553.125.103c.173-.097.326-.199.46-.31v-.526h-.406c-.143.07-.3.13-.473.18zm1.766-2.957v-.53h-.888v1.357h.833c.036-.252.055-.528.055-.827zm-2.837 2.189v.604h1.684v-.983l-.966-.13a.745.745 0 0 1-.028.137l.017-.025c.001-.001-.063.048-.193.119zm0-4.684h4.786v2.495c0 1.312-.283 2.403-.873 3.254-.616.887-1.548 1.454-2.743 1.7l-1.17.242zm-12.864-15.53v2.062c0 2.074.419 3.684 1.233 4.85.596.854 1.44 1.486 2.558 1.895v-.618c-.752-.564-1.235-1.342-1.417-2.298l-.223-1.168h1.64v-4.723zm5.23 6.788l.51.279v4.234l-1.168-.24c-2.179-.447-3.841-1.453-4.933-3.018-1.067-1.53-1.588-3.53-1.588-5.981v-4.028h7.69v8.654h-.677c.052.035.108.068.166.1zm2.44-6.788v2.062c0 2.074.42 3.684 1.234 4.85.596.854 1.44 1.486 2.558 1.895v-.596c-.356-.238-.638-.49-.844-.768-.31-.418-.496-.955-.582-1.608l-.147-1.112h1.573v-4.723zm5.226 6.785l.516.277v4.239l-1.17-.24c-2.178-.447-3.84-1.453-4.932-3.018-1.067-1.53-1.588-3.53-1.588-5.981v-4.028h7.69v8.654h-.688c.054.032.11.064.172.097z" fill="url(#linearGradient-2-1)" fill-rule="nonzero" stroke-width=".972"/><path id="path72" d="M35.34 30.371c0 1.136-.232 2.043-.697 2.72-.465.676-1.178 1.115-2.14 1.315v-1.228c.391-.217.628-.543.71-.977h-.71v-3.359h2.837zm-3.79 0c0 1.136-.233 2.043-.698 2.72-.464.676-1.177 1.115-2.14 1.315v-1.228c.245-.134.416-.267.514-.4.098-.135.163-.327.196-.577h-.71v-3.359h2.837zM13.9 14.235v-3.078h5.74v6.76h-1.435c.165.875.643 1.531 1.435 1.969v2.472c-1.947-.404-3.39-1.287-4.33-2.649s-1.41-3.187-1.41-5.474zm7.67 0v-3.078h5.741v6.76h-1.435c.066.505.198.892.396 1.161.198.27.544.538 1.039.808v2.472c-1.947-.404-3.39-1.287-4.33-2.649s-1.41-3.187-1.41-5.474z" fill="#fff" fill-rule="evenodd" stroke-width=".972"/></g></g></svg>