<svg xmlns:osb="http://www.openswatchbook.org/uri/2009/osb" xmlns="http://www.w3.org/2000/svg" xmlns:xlink="http://www.w3.org/1999/xlink" width="48" height="48" version="1.1" id="svg38"><defs id="defs22"><linearGradient id="linearGradient4488"><stop id="stop4490" offset="0" stop-color="#000" stop-opacity=".047"/><stop id="stop4492" offset="1" stop-color="#000" stop-opacity="0"/></linearGradient><style id="style4511"/><style id="style4511-26"/><style id="style4511-9"/><style id="style4552"/><style id="style4511-2"/><linearGradient xlink:href="#linearGradient4488" id="linearGradient4540" gradientUnits="userSpaceOnUse" gradientTransform="matrix(.30673 0 0 .3038 -63.522 1.994)" x1="288.112" y1="141.785" x2="287.575" y2="79.008"/><linearGradient osb:paint="solid" id="linearGradient5293"><stop id="stop5295" offset="0" stop-color="#9a89c0" stop-opacity="1"/></linearGradient><linearGradient osb:paint="solid" id="linearGradient5251"><stop id="stop5253" offset="0" stop-color="#2f343f" stop-opacity="1"/></linearGradient><style id="style4511-8"/><style id="style4511-26-4"/><style id="style4511-9-8"/><style id="style4552-5"/><style id="style4511-2-5"/><style id="style4511-879"/><style id="style4511-26-6"/><style id="style4511-9-0"/><style id="style4552-3"/><style id="style4511-2-2"/><linearGradient y2="79.008" x2="287.575" y1="141.785" x1="288.112" gradientTransform="matrix(.30902 0 0 .31096 -64.017 1.976)" gradientUnits="userSpaceOnUse" id="linearGradient4540-8" xlink:href="#linearGradient4488"/><filter id="filter1237" x="-.72" width="2.44" y="-.72" height="2.44" color-interpolation-filters="sRGB"><feGaussianBlur stdDeviation="18.08" id="feGaussianBlur1239"/></filter><filter id="filter1261" x="-.06" width="1.12" y="-.06" height="1.12" color-interpolation-filters="sRGB"><feGaussianBlur stdDeviation="3.013" id="feGaussianBlur1263"/></filter><style id="style4511-8-8"/><style id="style4511-26-7"/><style id="style4511-9-7"/><style id="style4552-5-2"/><style id="style4511-2-5-7"/><style id="style4511-87"/><style id="style4511-26-76"/><style id="style4511-9-2"/><style id="style4552-8"/><style id="style4511-2-0"/><style id="style4552-7"/><style id="style4552-6"/><style id="style4552-73"/><style id="style4552-2"/><linearGradient x1="117.992" y1="42.655" x2="117.992" y2="239.761" id="linearGradient-2-5" gradientTransform="matrix(.19043 -.02002 .017 .16181 -52.185 6.159)" gradientUnits="userSpaceOnUse"><stop stop-color="#FF7C44" offset="0%" id="stop16-3"/><stop stop-color="#FF4E5A" offset="100%" id="stop18-6"/></linearGradient><radialGradient gradientUnits="userSpaceOnUse" gradientTransform="matrix(1 0 0 1.00085 0 -.02)" r="21.487" fy="24.077" fx="24.066" cy="24.077" cx="24.066" id="radialGradient2062" xlink:href="#linearGradient-2-5"/><style id="style4511-4"/><style id="style4511-26-48"/><style id="style4511-9-88"/><style id="style4552-4"/><style id="style4511-2-56"/><style id="style4511-87-3"/><style id="style4511-26-7-7"/><style id="style4511-9-1"/><style id="style4552-53"/><style id="style4511-2-9"/><style id="style4511-8-7"/><style id="style4511-26-4-4"/><style id="style4511-9-8-4"/><style id="style4552-5-9"/><style id="style4511-2-5-5"/></defs><style id="style4485" type="text/css"/><style type="text/css" id="style4485-4"/><path id="path4516" d="M2.75 26.22v1.669c0 9.574 5.638 17.282 17.312 17.282h6.998c15.278 0 18.008-11.323 18.008-17.282V26.22c0 5.96-2.73 17.282-18.008 17.282h-6.998c-11.674 0-17.311-7.708-17.311-17.282z" opacity="1" fill="url(#linearGradient4540)" fill-opacity="1" stroke="none" stroke-width="1.105" stroke-linecap="square" stroke-linejoin="bevel" stroke-miterlimit="4" stroke-dasharray="none" stroke-dashoffset="0" stroke-opacity=".078"/><style type="text/css" id="style4485-0"/><style id="style4485-8" type="text/css"/><style id="style4485-86" type="text/css"/><style type="text/css" id="style4485-4-3"/><style type="text/css" id="style4485-5"/><style type="text/css" id="style4485-3"/><style type="text/css" id="style4485-5-1"/><style id="style4485-67" type="text/css"/><style type="text/css" id="style4485-7"/><style id="style4485-6" type="text/css"/><g id="g3566" transform="matrix(1.00445 0 0 1.00296 76.65 -2.027)"><g transform="matrix(.98834 0 0 .98849 -76.297 1.768)" id="g2322"><path id="path4516-7" d="M2.75 26.774v1.708c0 9.8 5.68 17.69 17.44 17.69h7.05c15.392 0 18.143-11.59 18.143-17.69v-1.708c0 6.1-2.75 17.69-18.143 17.69h-7.05c-11.76 0-17.44-7.89-17.44-17.69z" opacity="1" fill="url(#linearGradient4540-8)" fill-opacity="1" stroke="none" stroke-width="1.122" stroke-linecap="square" stroke-linejoin="bevel" stroke-miterlimit="4" stroke-dasharray="none" stroke-dashoffset="0" stroke-opacity=".078"/><path id="path4518-2" d="M19.649 2.743h8.64c14.148 0 17.094 11.511 17.094 17.689v7.29c0 6.1-2.75 17.69-18.143 17.69h-7.05c-11.76 0-17.44-7.89-17.44-17.69v-7.29c0-9.8 5.564-17.69 16.899-17.69z" opacity="1" fill="url(#radialGradient2062)" fill-opacity="1" stroke="#000" stroke-width=".341" stroke-linecap="square" stroke-linejoin="bevel" stroke-miterlimit="4" stroke-dasharray="none" stroke-dashoffset="0" stroke-opacity=".078"/><g id="g2651" transform="translate(4.243 2.386)" color="#000" visibility="visible" fill-opacity="1" fill-rule="nonzero" stroke="none"><g id="g2645"><circle style="marker:none" id="path6891" cx="552.261" cy="109.765" r="60.268" transform="matrix(.08806 0 0 .08725 -16.524 -.283)" display="inline" overflow="visible" opacity=".1" fill="#e5e5e5" stroke-width="11.385" filter="url(#filter1261)" enable-background="accumulate"/><ellipse style="marker:none" id="path6891-1" cx="32.11" cy="9.294" rx="2.654" ry="2.629" display="inline" overflow="visible" fill="#f7f7f7" stroke-width=".499" enable-background="accumulate"/></g><circle transform="matrix(.0933 0 0 .09867 -19.045 -.786)" style="marker:none" id="circle1155" cx="552.261" cy="109.765" r="30.134" display="inline" overflow="visible" fill="#f7f7f7" stroke-width="5.693" filter="url(#filter1237)" enable-background="accumulate"/></g><g id="g1514"><path d="M4.365 12.13c-.153.387-.264.7-.413 1.152-.162.495-.425.873-.557 1.421-.139.576-.674 1.588-.71 2.258-.075 1.34.033 3.915.04 4.485l.069 5.372.035 2.587.228 2.41c.045.475.339 1.45.533 2.09l38.92-10.874z" id="path2086" opacity=".3" fill="#fff" stroke-width=".098" enable-background="new"/><path transform="matrix(.09444 0 0 .10345 .343 1.062)" class="st4" id="polygon2088" opacity=".2" fill="#fff" enable-background="new" d="M26 267.1l414.3-53.8L26 159.6z"/></g><path d="M28.365 45.506c11.267.045 16.828-8.04 16.864-18.11l.016-4.515-42.377-.165-.017 4.515c-.023 6.347 2.864 18.187 16.926 18.242z" id="path4518-6" opacity="1" fill="#cc6a22" fill-opacity=".444" stroke="#000" stroke-width=".345" stroke-linecap="square" stroke-linejoin="bevel" stroke-miterlimit="4" stroke-dasharray="none" stroke-dashoffset="0" stroke-opacity=".078"/><g id="g2661" transform="matrix(1.3866 0 0 1.4106 -9.304 -2.247)" stroke-width=".055" stroke-linecap="square" stroke-linejoin="bevel" stroke-miterlimit="4" stroke-dasharray="none" stroke-dashoffset="0" stroke-opacity=".147"><path id="path4868" d="M24.066 11.534a7.172 7.128 0 0 0-7.171 7.128 7.172 7.128 0 0 0 7.171 7.128 7.172 7.128 0 0 0 7.172-7.128 7.172 7.128 0 0 0-7.172-7.128zm0 1.947a5.213 5.18 0 0 1 5.213 5.18 5.213 5.18 0 0 1-5.213 5.181 5.213 5.18 0 0 1-5.213-5.18 5.213 5.18 0 0 1 5.213-5.181z" opacity="1" fill="#fff" fill-opacity=".839" stroke="#000"/><ellipse ry="5.181" rx="5.213" cy="18.662" cx="24.066" id="path4875-3" opacity="1" fill="#5c6698" fill-opacity=".739" stroke="none"/><ellipse ry="2.445" rx="2.46" cy="18.662" cx="24.066" id="path4877-6" opacity="1" fill="#4b5279" fill-opacity="1" stroke="none"/><path d="M24.066 13.48a5.213 5.18 0 0 0-5.098 4.109 7.548 4.2 0 0 0 5.095 1.108 7.548 4.2 0 0 0 5.096-1.107 5.213 5.18 0 0 0-5.093-4.11z" id="circle4912" opacity="1" fill="#fff" fill-opacity=".1" stroke="none"/></g></g></g></svg>