<svg xmlns="http://www.w3.org/2000/svg" xmlns:xlink="http://www.w3.org/1999/xlink" width="48" height="48" version="1.1" id="svg38"><defs id="defs22"><linearGradient id="linearGradient4488"><stop id="stop4490" offset="0" stop-color="#000" stop-opacity=".047"/><stop id="stop4492" offset="1" stop-color="#000" stop-opacity="0"/></linearGradient><style id="style4511"/><style id="style4511-26"/><style id="style4511-9"/><style id="style4552"/><style id="style4511-2"/><linearGradient xlink:href="#linearGradient4488" id="linearGradient4548" gradientUnits="userSpaceOnUse" gradientTransform="translate(-62.55 1.994) scale(.3038)" x1="288.112" y1="141.785" x2="287.575" y2="79.008"/></defs><style id="style4485" type="text/css"/><g id="g1406"><path d="M3.088 26.22v1.67c0 9.573 5.583 17.281 17.146 17.281h6.93c15.133 0 17.837-11.322 17.837-17.282v-1.668c0 5.96-2.704 17.282-17.837 17.282h-6.93c-11.563 0-17.146-7.708-17.146-17.282z" id="path4532" opacity="1" fill="url(#linearGradient4548)" fill-opacity="1" stroke="none" stroke-width="1.1" stroke-linecap="square" stroke-linejoin="bevel" stroke-miterlimit="4" stroke-dasharray="none" stroke-dashoffset="0" stroke-opacity=".078"/><path d="M19.701 2.742h8.495c13.908 0 16.805 11.247 16.805 17.282v7.124c0 5.96-2.704 17.282-17.837 17.282h-6.93c-11.562 0-17.146-7.708-17.146-17.282v-7.124c0-9.574 5.47-17.282 16.613-17.282z" id="path4534" opacity="1" fill="#e1dfdf" fill-opacity="1" stroke="#000" stroke-width=".334" stroke-linecap="square" stroke-linejoin="bevel" stroke-miterlimit="4" stroke-dasharray="none" stroke-dashoffset="0" stroke-opacity=".078"/><g transform="translate(.338 -.509)" id="g1387"><g id="g1371"><g transform="matrix(.10457 0 0 .11349 -4.757 23.258)" id="layer2" display="inline"><g id="g35" transform="matrix(10.28047 0 0 10.29193 25.456 -239.63)"><g id="g37"><g id="g39" fill="#192d44" fill-opacity="1" fill-rule="nonzero" stroke="#f9f9f9" stroke-width="1" stroke-linecap="butt" stroke-linejoin="miter" stroke-miterlimit="4" stroke-opacity="1"><path id="path41" transform="matrix(.09736 0 0 .09532 -9.77 13.033)" d="M308.82 78.902c0 11.228-9.07 20.326-20.341 20.326-11.234 0-20.301-9.1-20.301-20.326 0-11.228 9.07-20.326 20.301-20.326 11.274 0 20.341 9.1 20.341 20.326m0 0"/><path id="path43" transform="matrix(.09736 0 0 .09532 -9.77 13.033)" d="M288.47 149.59c0 20.53-16.69 37.25-37.27 37.25-20.542 0-37.23-16.719-37.23-37.25 0-20.571 16.69-37.25 37.23-37.25 20.582 0 37.27 16.678 37.27 37.25m0 0"/><path id="path45" transform="matrix(.09736 0 0 .09532 -9.77 13.033)" d="M333.49 124.8c0 22.21-18.01 40.28-40.24 40.28-22.267 0-40.28-18.07-40.28-40.28 0-22.252 18.01-40.24 40.28-40.24 22.23 0 40.24 17.99 40.24 40.24m0 0"/><path id="path47" transform="matrix(.09736 0 0 .09532 -9.77 13.033)" d="M412.57 108.49c0 20.571-16.65 37.21-37.23 37.21-20.582 0-37.23-16.637-37.23-37.21 0-20.571 16.69-37.25 37.23-37.25 20.582 0 37.23 16.678 37.23 37.25m0 0"/><path id="path49" transform="matrix(.09736 0 0 .09532 -9.77 13.033)" d="M371.73 79.52c0 20.571-16.65 37.21-37.23 37.21-20.542 0-37.23-16.678-37.23-37.21 0-20.571 16.69-37.25 37.23-37.25 20.582 0 37.23 16.678 37.23 37.25m0 0"/><path id="path51" transform="matrix(.09736 0 0 .09532 -9.77 13.033)" d="M479.73 163.97c0 11.761-9.549 21.268-21.304 21.268-11.755 0-21.304-9.507-21.304-21.268 0-11.761 9.549-21.35 21.304-21.35 11.755 0 21.304 9.589 21.304 21.35m0 0"/><path id="path53" transform="matrix(.09736 0 0 .09532 -9.77 13.033)" d="M453.41 147.58c0 22.21-18.01 40.24-40.24 40.24-22.267 0-40.28-18.03-40.28-40.24 0-22.252 18.01-40.28 40.28-40.28 22.23 0 40.24 17.99 40.24 40.28m0 0"/><path id="path55" transform="matrix(.09736 0 0 .09532 -9.77 13.033)" d="M312.07 166.02c0 11.761-9.549 21.268-21.304 21.268-11.755 0-21.304-9.507-21.304-21.268 0-11.761 9.549-21.309 21.304-21.309 11.755 0 21.304 9.548 21.304 21.309m0 0"/><path id="path57" transform="matrix(.12937 0 0 .12666 7.44 34.132)" d="M166.57-64.48c0 21.341-17.301 38.643-38.649 38.643-21.317 0-38.619-17.301-38.619-38.643 0-21.341 17.301-38.612 38.619-38.612 21.347 0 38.649 17.271 38.649 38.612m0 0"/></g></g></g></g></g></g></g></svg>