<svg xmlns:osb="http://www.openswatchbook.org/uri/2009/osb" xmlns="http://www.w3.org/2000/svg" xmlns:xlink="http://www.w3.org/1999/xlink" width="48" height="48" version="1.1" id="svg38"><defs id="defs22"><linearGradient id="linearGradient4488"><stop id="stop4490" offset="0" stop-color="#000" stop-opacity=".047"/><stop id="stop4492" offset="1" stop-color="#000" stop-opacity="0"/></linearGradient><style id="style4511"/><style id="style4511-26"/><style id="style4511-9"/><style id="style4552"/><style id="style4511-2"/><linearGradient xlink:href="#linearGradient4488" id="linearGradient4540" gradientUnits="userSpaceOnUse" gradientTransform="matrix(.30902 0 0 .3038 -64.017 1.994)" x1="288.112" y1="141.785" x2="287.575" y2="79.008"/><linearGradient osb:paint="solid" id="linearGradient5293"><stop id="stop5295" offset="0" stop-color="#9a89c0" stop-opacity="1"/></linearGradient></defs><style id="style4485" type="text/css"/><path id="path4516" d="M2.75 26.22v1.67c0 9.573 5.68 17.281 17.44 17.281h7.05c15.392 0 18.143-11.322 18.143-17.282v-1.668c0 5.96-2.75 17.282-18.143 17.282h-7.05c-11.76 0-17.44-7.708-17.44-17.282z" opacity="1" fill="url(#linearGradient4540)" fill-opacity="1" stroke="none" stroke-width="1.109" stroke-linecap="square" stroke-linejoin="bevel" stroke-miterlimit="4" stroke-dasharray="none" stroke-dashoffset="0" stroke-opacity=".078"/><path id="path4518" d="M19.649 2.742h8.64c14.148 0 17.094 11.247 17.094 17.282v7.124c0 5.96-2.75 17.282-18.143 17.282h-7.05c-11.76 0-17.44-7.708-17.44-17.282v-7.124c0-9.574 5.564-17.282 16.899-17.282z" opacity="1" fill="#a02c80" fill-opacity="1" stroke="#000" stroke-width=".337" stroke-linecap="square" stroke-linejoin="bevel" stroke-miterlimit="4" stroke-dasharray="none" stroke-dashoffset="0" stroke-opacity=".078"/><path d="M25.959 11.808l-14.193 2.604V32.76l14.193 2.604zm.946 2.718v2.69h3.814v1.84h-3.814v1.812h3.785v1.812h-3.785v1.812h3.785v1.812h-3.785v1.812h3.785v1.812h-3.785v2.718h5.825a.8.8 0 0 0 .798-.792V19.962h2.04a.8.8 0 0 0 .798-.793v-3.85a.8.8 0 0 0-.798-.793zm-12.3 4.473h2.04l3.341 5.55c.152.247.285.52.414.764h.03a10.53 10.53 0 0 1-.06-1.274v-5.04h1.804v9.117h-1.922l-3.46-5.72a7.801 7.801 0 0 1-.413-.764h-.03c.03.322.06.81.06 1.473v5.011h-1.804zm19.87 1.869v5.436h1.093a.8.8 0 0 0 .798-.793v-3.85a.8.8 0 0 0-.798-.793zm0 6.342v5.436h1.093a.8.8 0 0 0 .798-.792v-3.851a.8.8 0 0 0-.798-.793z" id="path1275" fill="#ececec" fill-opacity="1" stroke-width=".926"/></svg>