<svg xmlns="http://www.w3.org/2000/svg" xmlns:xlink="http://www.w3.org/1999/xlink" width="48" height="48" version="1.1" id="svg38"><defs id="defs22"><style id="style4511"/><style id="style4511-26"/><style id="style4511-9"/><style id="style4552"/><style id="style4511-2"/><linearGradient gradientTransform="rotate(-90 -4.415 46.728)" gradientUnits="userSpaceOnUse" x2="47" x1="1" id="linearGradient3764"><stop id="stop356" stop-opacity="1" stop-color="#d3d3d3"/><stop id="stop358" stop-opacity="1" stop-color="#ddd" offset="1"/></linearGradient><linearGradient xlink:href="#linearGradient3764" id="linearGradient1294" x1="2.367" y1="23.808" x2="45.224" y2="23.808" gradientUnits="userSpaceOnUse"/></defs><style id="style4485" type="text/css"/><path d="M19.389 2.965h8.618c14.11 0 17.048 11.246 17.048 17.282v7.123c0 5.96-2.743 17.282-18.095 17.282h-7.03c-11.73 0-17.395-7.708-17.395-17.282v-7.123c0-9.575 5.55-17.282 16.854-17.282z" id="rect4144" opacity="1" fill="url(#linearGradient1294)" fill-opacity="1" stroke="#000" stroke-width=".337" stroke-linecap="square" stroke-linejoin="bevel" stroke-miterlimit="4" stroke-dasharray="none" stroke-dashoffset="0" stroke-opacity=".078"/><g id="g47" transform="matrix(.86204 0 0 1 3.55 .351)" fill-opacity="1" fill-rule="nonzero" stroke="none"><path d="M10.137 10.423H37.49c.618 0 1.112.48 1.112 1.075v17.438c0 .595-.498 1.063-1.112 1.063H10.137c-.618 0-1.12-.477-1.12-1.063V11.498c0-.595.502-1.075 1.12-1.075m0 0" id="path51" fill="#f9f9f9" stroke-width="1.113"/><path d="M38.613 12.603l-14.798 9.416 12.521 7.99h1.138c.623 0 1.139-.493 1.139-1.088m0-16.318" id="path53" fill="#ccc" stroke-width="1.113"/><path d="M10.156 10.438a1.12 1.12 0 0 0-1.068.815.672.672 0 0 0-.072.272v17.396c0 .098.03.179.072.272.133.46.55.816 1.068.816h27.318c.547 0 .996-.39 1.103-.884a.638.638 0 0 0 .036-.205V11.524a.638.638 0 0 0-.036-.204 1.136 1.136 0 0 0-1.103-.888H10.156m4.553 2.175H32.92l-9.106 5.81m-12.521-4.349l12.521 7.951 12.521-7.95v13.76H11.294m0-13.76" id="path55" fill="#4d4d4d" stroke-width="1.112"/></g><g id="g139" transform="matrix(-.00922 -.82323 .8675 -.00875 -.621 48.624)" fill-rule="nonzero" stroke="none"><path d="M29 12a9.017 9.017 0 0 0-6.375 2.656c-3.255 3.251-3.466 8.379-.688 11.906l-4.688 4.656-.313-.313-4.938 4.938 2.156 2.156 4.938-4.938-.344-.313 4.656-4.656c3.529 2.789 8.709 2.537 11.969-.719 3.508-3.508 3.508-9.212 0-12.719a9.03 9.03 0 0 0-6.375-2.656zm0 1.469c1.922 0 3.839.747 5.313 2.219a7.5 7.5 0 0 1 0 10.625 7.538 7.538 0 0 1-10.656 0 7.5 7.5 0 0 1 0-10.625 7.562 7.562 0 0 1 5.344-2.219z" id="path82" fill="#000" fill-opacity=".12"/><path d="M36.602 19.898c0 4.697-3.805 8.5-8.5 8.5-4.699 0-8.504-3.803-8.5-8.5-.004-4.693 3.801-8.5 8.5-8.5a8.5 8.5 0 0 1 8.5 8.5m0 0" id="path84" fill="#f5efef" fill-opacity="1"/><path d="M22.622 26.866l-1.504-1.504-4.934 4.934 1.504 1.504" id="path86" fill="#d24c37" fill-opacity="1"/><path d="M27.986 11a8.948 8.948 0 0 0-6.352 2.641c-3.512 3.508-3.512 9.222 0 12.729 3.508 3.508 9.224 3.508 12.735 0 3.508-3.508 3.508-9.222 0-12.729A9.033 9.033 0 0 0 27.986 11m0 1.48a7.48 7.48 0 0 1 5.313 2.199 7.494 7.494 0 0 1 0 10.62 7.506 7.506 0 0 1-10.63 0 7.494 7.494 0 0 1 0-10.62 7.477 7.477 0 0 1 5.316-2.199m0 0" id="path88" fill="#b19b9b" fill-opacity="1"/><path d="M18.079 32.066l-2.145-2.145L11 34.855 13.145 37" id="path90" fill="#222b30" fill-opacity="1"/></g><g id="g3873" transform="matrix(.63614 0 0 .72707 -34.785 10.961)" stroke="#000" stroke-width=".096"><rect id="rect1307" rx=".527" ry=".425" height="3.594" width="4.457" y="15.983" x="75.566" fill="#333" fill-opacity=".761"/><rect id="rect2202" rx=".527" ry=".425" height="3.594" width="4.457" y="15.983" x="80.655" fill="#666"/><rect id="rect2208" rx=".527" ry=".425" height="3.594" width="4.457" y="20.088" x="75.566" fill="#666"/><rect id="rect2210" rx=".527" ry=".425" height="3.594" width="4.457" y="20.088" x="80.655" fill="#666"/></g></svg>