<svg xmlns="http://www.w3.org/2000/svg" width="48" height="48" version="1.1" id="svg38"><defs id="defs22"><style id="style4511"/><style id="style4511-26"/><style id="style4511-9"/><style id="style4552"/><style id="style4511-2"/><clipPath id="clipPath-886807824"/><clipPath id="clipPath-897244418"/><linearGradient gradientUnits="userSpaceOnUse" y2="12" x2="0" y1="36" id="linearGradient4215-1" gradientTransform="translate(.11 -.192)"><stop id="stop1618" stop-color="#e0d510" stop-opacity="1"/><stop id="stop1620-2" offset="1" stop-color="#eb252f" stop-opacity="1"/></linearGradient></defs><style id="style4485" type="text/css"/><path d="M19.765 2.965h8.496c13.907 0 16.804 11.246 16.804 17.282v7.123c0 5.96-2.704 17.282-17.837 17.282h-6.93c-11.562 0-17.146-7.766-17.146-17.282v-7.123c0-9.575 5.47-17.282 16.613-17.282z" id="rect4144" opacity="1" fill="#4d4d4d" fill-opacity="1" stroke="#000" stroke-width=".334" stroke-linecap="square" stroke-linejoin="bevel" stroke-miterlimit="4" stroke-dasharray="none" stroke-dashoffset="0" stroke-opacity=".078"/><path d="M20.61 11.808l3.097 5-12.598 19h6l6-9h3.434c1.575 0 2.36 0 4.01-2l5.631-8.5c1.423-2.148 1.3-4.5-1.063-4.5m-6.215 6h1.073c.197 0 .254.29.03.625l-1.847 2.75c-.285.424-.66.625-.857.625h-1.099z" id="path1643" opacity="1" fill="url(#linearGradient4215-1)" fill-opacity="1" stroke="none"/></svg>