<svg xmlns:osb="http://www.openswatchbook.org/uri/2009/osb" xmlns="http://www.w3.org/2000/svg" xmlns:xlink="http://www.w3.org/1999/xlink" width="48" height="48" version="1.1" id="svg38"><defs id="defs22"><style id="style4511"/><style id="style4511-26"/><style id="style4511-9"/><linearGradient gradientUnits="userSpaceOnUse" x2="19.574" y2="22.495" x1="3.783" y1="23.644" id="g-5"><stop id="stop24-2" stop-color="#2980b9"/><stop id="stop26" stop-color="#34495e" offset="1"/></linearGradient><style id="style4552"/><style id="style4511-2"/><linearGradient osb:paint="solid" id="linearGradient5293"><stop id="stop5295" offset="0" stop-color="#9a89c0" stop-opacity="1"/></linearGradient><style id="style4511-8"/><style id="style4511-26-4"/><style id="style4511-9-8"/><style id="style4552-9"/><style id="style4511-2-4"/><linearGradient xlink:href="#g-5" id="linearGradient1931" x1="2.58" y1="23.874" x2="45.407" y2="23.874" gradientUnits="userSpaceOnUse"/><radialGradient id="SVGID_5_" cx="347.729" cy="227.752" r="164.207" gradientUnits="userSpaceOnUse" gradientTransform="matrix(.09287 0 0 .09379 .344 -.034)" xlink:href="#SVGID_6_"><stop offset="0" id="stop1708" stop-color="#3fe1ff"/><stop offset="1" id="stop1710" stop-color="#2ab4ff"/></radialGradient><radialGradient id="SVGID_6_" cx="174.471" cy="85.819" r="57.434" gradientUnits="userSpaceOnUse" gradientTransform="matrix(.09287 0 0 .09379 .344 -.034)"><stop offset="0" id="stop1715" stop-color="#3fe1ff"/><stop offset="1" id="stop1717" stop-color="#2ab4ff"/></radialGradient><radialGradient id="SVGID_7_" cx="81.532" cy="291.416" r="126.127" gradientUnits="userSpaceOnUse" gradientTransform="matrix(.09287 0 0 .09379 .344 -.034)"><stop offset="0" id="stop1722" stop-color="#3fe1ff"/><stop offset="1" id="stop1724" stop-color="#2ab4ff"/></radialGradient><radialGradient id="SVGID_8_" cx="81.532" cy="291.416" r="126.127" gradientUnits="userSpaceOnUse" gradientTransform="matrix(.09287 0 0 .09379 .344 -.034)"><stop offset="0" id="stop1729" stop-color="#3fe1ff"/><stop offset="1" id="stop1731" stop-color="#2ab4ff"/></radialGradient></defs><style id="style4485" type="text/css"/><style type="text/css" id="style4485-8"/><g id="g1957"><path d="M19.59 2.742h8.612c14.099 0 17.035 11.403 17.035 17.521v7.222c0 6.042-2.74 17.52-18.08 17.52H20.13c-11.721 0-17.381-7.814-17.381-17.52v-7.222c0-9.706 5.545-17.52 16.84-17.52z" id="path4518" opacity="1" fill="url(#linearGradient1931)" fill-opacity="1" stroke="#000" stroke-width=".339" stroke-linecap="square" stroke-linejoin="bevel" stroke-miterlimit="4" stroke-dasharray="none" stroke-dashoffset="0" stroke-opacity=".078"/><path id="path1713" d="M40.583 7.347c-.752-.76-1.68-1.425-2.74-2.007-.594.891-2.21 1.604-2.674 2.476-1.736 3.255-5.581 2.795-6.008 5.065-.056.31-.075.732-.39.685-.845-.113 2.86-2.626-1.913-3.002-.8-.065-2.564 1.304-2.842 2.064-.14.384-.892 2.1-.808 2.504.111.525 2.405.553 2.062 1.144a1.032 1.032 0 0 1-.307.329c-.474.318-1.05.309-1.57.478-1.253.403-1.968 1.726-2.618 2.832a.931.931 0 0 0-.112.685c.168.722 1.236.985 1.644.488 2.508-3.133 1.913.075 3.38-.32.688-.187.67.442 1.366.685.334.122.956-.44 1.114-.121.39.787 1.207.628.51.862-.547.179-1.16-.075-1.717.075-1.885.507-3.473-.956-4.913-.431-1.449.535-3.092 2.598-3.343 4.127-.065.403.65 1.744.808 2.129.306.769 1.82.431 2.6.684.78.263.929.226 1.579.741 1.096.863 1.319 2.42 1.356 3.818.037 1.397.009 2.907.798 4.06.121.17.26.338.437.442.455.262 1.04.084 1.495-.207 1.198-.76 2.322-3.348 3.557-4.352 1.105-.89-.316-1.885.548-3.02.668-.881 1.634-1.641 1.792-2.738a4.784 4.784 0 0 1-1.17-.497c-.149.056-.279.093-.362.056-.567-.235-.883-.77-1.087-1.332-.66-.835-1.077-1.866-1.124-2.936.623 0 .688 1.417.846 2.017.074.281.157.6.278.919.4.507.901.947 1.449 1.276.27-.113.585-.3.752-.32.808-.056 1.244-1.003 1.867-1.481a.929.929 0 0 0 .139-.131c.232-.31-.845-.32-1.077-.516-.827-.694-.938-1.182-1.858-1.754 1.338-.629.595.581 1.96 1.153.325.132 2.062-.103 2.749.535.678.628.956.657 1.05 1.379.13.928.844 1.594 1.364 2.373.622-.45.808-1.248 1.115-1.96.306-.723.594-1.68 1.374-1.754.65-.066.966 1.247 1.096 1.894.13.647.929-.253.929 1.313 0 .516.297.788.622 1.191.213.263.102.685.418.779.018.01.154.036.172.036.056-.356.022-.695.068-1.06-.604-.385-1.327-.364-1.104-1.546l.724-.122c-.102.3.149.544.455.619.126-3.885.156-9.59-.703-12.432-.981-3.25-2.236-6.055-4.033-7.874z" fill="url(#SVGID_5_)" stroke-width=".093" fill-opacity="1"/><path id="path1720" d="M12.203 5.894c-.018.328.186.628.353.919a5.625 5.625 0 0 1 .585 4.202c-.111.422-.27.844-.278 1.285 0 .525.232 1.022.455 1.5.055.122.12.253.223.338.334.272.826-.047 1.114-.375.826-.938 1.55-2.12 2.749-2.467.241-.066.501-.103.687-.281.13-.132.195-.31.25-.488.39-1.266.41-2.645.93-3.864.222-.525.037-1.613.603-1.585 2.257.093.111-1.05-.418-1.67-.176-.197-.316-.431-.464-.666-2.22.164-4.368.436-6.207 1.12-.074.253-.025.86-.145 1.094-.167.31-.418.59-.437.938z" fill="url(#SVGID_6_)" stroke-width=".093"/><path id="path1727" d="M12.203 35.822c.325-.497 1.913-.74 2.099-1.304.149-.46.204-.956.25-1.435.066-.6.623-.544.688-1.134.028-.272-.65-.957-.808-1.192-.14-.197-1.263-.356-1.486-.44-1.393-.526-1.606-1.501-2.74-2.476-.25-.216-.492-.441-.798-.563-.26-.103-.539-.113-.817-.122-.836-.038-1.988.563-2.823.525-.428-.019-.706-.544-.734-.103-1.81-1.07-.92-1.904-1.56-2.57-.074-.075-.465.3-.687.45.018.554.046 1.098.092 1.642.27.215.558.422.864.59.52.291 1.096.479 1.579.835.483.357.01.46-.112 1.041-.092.441-.343.647-.492 1.06-.232.638.79 1.988 1.207 2.532.418.535.976.948 1.43 1.445.158.169.316.366.381.59.056.198.038.404.028.61-.12 1.51-.232 3.011-.353 4.521.084.094.167.188.26.272.335.338.697.647 1.087.947.083-.469.176-.938.483-1.228 1.449-1.342 1.866-2.823 2.962-4.493z" fill="url(#SVGID_7_)" stroke-width=".093"/><path id="path1734" d="M2.768 24.624c.13-.338.279-.685.557-.92.279-.243.734-.318 1.012-.065.28.262.363.816.743.806.558-.431.428-1.313.715-1.96.158-.356.446-.638.734-.9.79-.722.938-1.895 1.848-2.439 1.04-.628 3-.816 3.083-2.035.037-.544-.185-1.079-.399-1.576-.436-1.003-.762-.637-1.198-1.641-.66.056-1.412-1.154-2.034-.91-.204.085-.418.178-.566.357-.13.16.26 1.725.176 1.922-.316.807-.743 1.876-2.489-.356-.334-.432-.887-1.263-1.063-1.77-1.159 3.203-1.337 6.838-1.119 11.487z" fill="url(#SVGID_8_)" stroke-width=".093"/></g></svg>