<svg xmlns="http://www.w3.org/2000/svg" xmlns:xlink="http://www.w3.org/1999/xlink" width="48" height="48" version="1.1" id="svg38"><defs id="defs22"><linearGradient id="linearGradient4488"><stop id="stop4490" offset="0" stop-color="#000" stop-opacity=".047"/><stop id="stop4492" offset="1" stop-color="#000" stop-opacity="0"/></linearGradient><style id="style4511"/><style id="style4511-26"/><style id="style4511-9"/><style id="style4552"/><style id="style4511-2"/><linearGradient xlink:href="#linearGradient4488" id="linearGradient4546" gradientUnits="userSpaceOnUse" gradientTransform="translate(-62.497 1.994) scale(.3038)" x1="288.112" y1="141.785" x2="287.575" y2="79.008"/><linearGradient gradientTransform="rotate(-90 -8.76 51.208)" gradientUnits="userSpaceOnUse" x2="47" x1="1" id="linearGradient3764"><stop id="stop336" stop-opacity="1" stop-color="#e4e4e4"/><stop id="stop338" stop-opacity="1" stop-color="#eee" offset="1"/></linearGradient><linearGradient xlink:href="#linearGradient3764" id="linearGradient1274" x1="2.974" y1="23.586" x2="45.221" y2="23.586" gradientUnits="userSpaceOnUse"/></defs><style id="style4485" type="text/css"/><g id="g1176" fill-opacity="1" stroke-linecap="square" stroke-linejoin="bevel" stroke-miterlimit="4" stroke-dasharray="none" stroke-dashoffset="0" stroke-opacity=".078"><path id="path4528" d="M3.141 26.22v1.67c0 9.573 5.583 17.281 17.146 17.281h6.93c15.133 0 17.837-11.322 17.837-17.282v-1.668c0 5.96-2.704 17.282-17.837 17.282h-6.93c-11.563 0-17.146-7.708-17.146-17.282z" opacity="1" fill="url(#linearGradient4546)" stroke="none" stroke-width="1.1"/><path id="path4530" d="M19.754 2.742h8.495c13.908 0 16.805 11.247 16.805 17.282v7.124c0 5.96-2.704 17.282-17.837 17.282h-6.93c-11.562 0-17.146-7.708-17.146-17.282v-7.124c0-9.574 5.47-17.282 16.613-17.282z" opacity="1" fill="url(#linearGradient1274)" stroke="#000" stroke-width=".334"/></g><g id="g1189" transform="translate(-68.136 -8.839)"><path d="M16.195 15.129a9.21 9.21 0 0 0-9.209 9.21 9.21 9.21 0 0 0 9.21 9.21 9.21 9.21 0 0 0 8.853-6.697h7.056v4.209h5.83v-4.21h2.542v-5.86H24.775a9.21 9.21 0 0 0-8.58-5.862zm0 5.861a3.35 3.35 0 0 1 3.35 3.35 3.35 3.35 0 0 1-3.35 3.347 3.35 3.35 0 0 1-3.347-3.347 3.35 3.35 0 0 1 3.347-3.35z" transform="translate(68.136 8.839)" id="path1166" fill="#4bae4f" stroke-width=".837"/></g></svg>