<svg xmlns="http://www.w3.org/2000/svg" style="isolation:isolate" width="48" height="48"><defs><linearGradient gradientUnits="userSpaceOnUse" gradientTransform="matrix(1.52295 0 0 .66917 -.051 .001)" y2="67.345" x2="16.631" y1="38.846" x1="16.521" id="a"><stop stop-opacity="0" offset="0%"/><stop stop-opacity=".047" offset="100%"/></linearGradient></defs><path d="M2.752 26.22v1.669c0 9.573 5.745 17.281 17.643 17.281h7.132c15.57 0 18.353-11.322 18.353-17.281v-1.67c0 5.96-2.782 17.282-18.353 17.282h-7.132c-11.898 0-17.643-7.708-17.643-17.281z" fill="url(#a)" stroke-width="1.01"/><g fill="#e6e6e6"><path d="M2.804 26.5v1.676c0 9.613 5.732 17.354 17.602 17.354h7.115c15.536 0 18.312-11.37 18.312-17.354V26.5c0 5.985-2.776 17.354-18.312 17.354h-7.115c-11.87 0-17.602-7.74-17.602-17.354z"/><path d="M19.537 2.923h8.557c14.01 0 16.928 11.294 16.928 17.355v7.153c0 5.985-2.724 17.355-17.968 17.355h-6.981c-11.647 0-17.271-7.74-17.271-17.355v-7.153c0-9.615 5.51-17.355 16.735-17.355z" vector-effect="non-scaling-stroke" stroke="#000" stroke-width=".336" stroke-linecap="square" stroke-linejoin="bevel" stroke-opacity=".078" transform="matrix(1.01916 0 0 .99996 -.051 .001)"/></g><path d="M39.154 21.455c0 5.426-4.368 9.825-9.757 9.825-5.39 0-9.757-4.4-9.757-9.825 0-5.426 4.368-9.824 9.757-9.824 5.389 0 9.757 4.398 9.757 9.824z" fill="#f96854"/><path d="M12.105 11.63h4.769v26.21h-4.769z" fill="#052d49" fill-rule="evenodd"/></svg>