<svg xmlns="http://www.w3.org/2000/svg" style="isolation:isolate" width="48" height="48"><defs><linearGradient gradientUnits="userSpaceOnUse" gradientTransform="scale(1.51021 .66216)" y2="68.397" x2="16.558" y1="39.596" x1="16.447" id="a"><stop stop-opacity="0" offset="0%"/><stop stop-opacity=".047" offset="100%"/></linearGradient></defs><path d="M19.564 2.965h8.76c14.342 0 17.329 11.246 17.329 17.282v7.123c0 5.959-2.789 17.282-18.393 17.282h-7.146c-11.923 0-17.681-7.708-17.681-17.282v-7.123c0-9.575 5.641-17.282 17.131-17.282z" vector-effect="non-scaling-stroke" fill="#e3e7ea" stroke="#000" stroke-width=".339" stroke-linecap="square" stroke-linejoin="bevel" stroke-opacity=".078"/><path d="M2.433 26.443v1.668c0 9.575 5.758 17.282 17.681 17.282h7.146c15.604 0 18.393-11.322 18.393-17.282v-1.668c0 5.959-2.789 17.282-18.393 17.282h-7.146c-11.923 0-17.681-7.708-17.681-17.282z" fill="url(#a)"/><path d="M18.645 37.661l.511-3.272-1.138-.026H12.58l3.779-24.143a.325.325 0 0 1 .106-.189.307.307 0 0 1 .201-.075h9.169c3.043 0 5.144.639 6.241 1.898.514.591.841 1.209 1 1.888.166.713.169 1.565.006 2.604l-.011.076v.666l.514.293c.433.232.777.497 1.041.8.44.505.724 1.147.844 1.909.125.783.083 1.714-.12 2.769-.234 1.214-.614 2.27-1.126 3.135a6.42 6.42 0 0 1-1.784 1.97c-.68.486-1.488.856-2.402 1.092-.886.233-1.896.35-3.003.35h-.714c-.51 0-1.006.185-1.395.517-.39.339-.648.801-.727 1.308l-.054.294-.903 5.767-.041.211c-.011.067-.029.101-.056.123a.151.151 0 0 1-.094.035z" fill="#253b80"/><path d="M34.072 16.499c-.028.176-.059.356-.094.542-1.209 6.255-5.346 8.415-10.629 8.415h-2.69c-.646 0-1.191.473-1.291 1.115l-1.378 8.801-.39 2.495a.692.692 0 0 0 .68.801h4.771a1.15 1.15 0 0 0 1.134-.975l.046-.244.899-5.744.057-.315a1.15 1.15 0 0 1 1.134-.977h.714c4.622 0 8.241-1.891 9.298-7.363.442-2.286.214-4.194-.955-5.537a4.588 4.588 0 0 0-1.306-1.014z" fill="#179bd7"/><path d="M32.807 15.991a9.517 9.517 0 0 0-1.176-.263 14.844 14.844 0 0 0-2.371-.175h-7.187a1.152 1.152 0 0 0-1.133.977l-1.528 9.757-.044.284c.1-.642.645-1.115 1.291-1.115h2.69c5.283 0 9.42-2.161 10.629-8.415.036-.186.066-.366.094-.542a6.485 6.485 0 0 0-1.265-.508z" fill="#222d65"/><path d="M20.94 16.53a1.148 1.148 0 0 1 1.133-.976h7.187c.851 0 1.646.057 2.371.175a9.517 9.517 0 0 1 1.176.263c.092.027.183.056.272.084.356.12.688.26.994.423.359-2.312-.003-3.885-1.244-5.31-1.367-1.569-3.835-2.241-6.994-2.241h-9.168c-.645 0-1.196.473-1.295 1.116l-3.819 24.39a.792.792 0 0 0 .777.918h5.66l1.422-9.085z" fill="#253b80"/></svg>