<svg xmlns="http://www.w3.org/2000/svg" xmlns:xlink="http://www.w3.org/1999/xlink" width="48" height="48" version="1.1" id="svg38"><defs id="defs22"><style id="style4511"/><style id="style4511-26"/><style id="style4511-9"/><style id="style4552"/><style id="style4511-2"/><linearGradient id="linearGradient2854"><stop id="stop2856" offset="0" stop-color="#003c96" stop-opacity="1"/><stop offset=".5" id="stop2265" stop-color="#088cdc" stop-opacity="1"/><stop id="stop2858" offset="1" stop-color="#00429b" stop-opacity="1"/></linearGradient><filter height="1.239" y="-.119" width="1.06" x="-.03" id="filter1512" color-interpolation-filters="sRGB"><feGaussianBlur id="feGaussianBlur1514" stdDeviation=".927"/></filter><linearGradient xlink:href="#linearGradient2854" id="linearGradient1909" x1="2.778" y1="23.935" x2="45.482" y2="23.935" gradientUnits="userSpaceOnUse" gradientTransform="rotate(-90 24.13 23.935)"/></defs><style id="style4485" type="text/css"/><path d="M3.408 28.325v-8.588C3.408 5.678 14.59 2.75 20.588 2.75h7.082c5.925 0 17.181 2.734 17.181 18.03v7.006c0 11.689-7.662 17.333-17.18 17.333h-7.082c-9.518 0-17.18-5.53-17.18-16.794z" id="rect4144" opacity="1" fill="url(#linearGradient1909)" fill-opacity="1" stroke="#000" stroke-width=".335" stroke-linecap="square" stroke-linejoin="bevel" stroke-miterlimit="4" stroke-dasharray="none" stroke-dashoffset="0" stroke-opacity=".078"/><g id="g1901" transform="matrix(.94155 0 0 .91404 52.125 -.23)" fill-opacity="1" stroke-miterlimit="4" stroke-dasharray="none" stroke-opacity="1"><g transform="matrix(.583 0 0 .59186 -94.349 -125.22)" id="g1666" opacity=".3" fill="#fff" stroke="#fff" stroke-width=".529"><g transform="translate(75.685 -6.181)" id="g1594"><g transform="translate(-3.469 -40.178) scale(1.15135)" id="g1627" fill-opacity="1" stroke="none" stroke-width=".529" stroke-linecap="round" stroke-linejoin="round" stroke-miterlimit="4" stroke-dasharray="none" stroke-opacity="1"><g transform="translate(0 1.058)" id="g1493" opacity=".5" fill="#191876"><path id="path1481" d="M8.454 260.75a1.059 1.059 0 1 0 1.495 1.5l8.364-8.342 4.673 4.684-8.364 8.343a1.058 1.058 0 0 0-.001 1.497l6.492 6.509a1.059 1.059 0 1 0 1.5-1.495l-5.746-5.76 8.363-8.342a1.058 1.058 0 0 0 .002-1.497l-6.168-6.184a1.058 1.058 0 0 0-1.497-.002z" style="line-height:normal;font-variant-ligatures:normal;font-variant-position:normal;font-variant-caps:normal;font-variant-numeric:normal;font-variant-alternates:normal;font-feature-settings:normal;text-indent:0;text-align:start;text-decoration-line:none;text-decoration-style:solid;text-decoration-color:#000;text-transform:none;text-orientation:mixed;white-space:normal;shape-padding:0;isolation:auto;mix-blend-mode:normal;solid-color:#000;solid-opacity:1" color="#000" font-style="normal" font-variant="normal" font-weight="400" font-stretch="normal" font-size="medium" font-family="sans-serif" text-decoration="none" letter-spacing="normal" word-spacing="normal" writing-mode="lr-tb" direction="ltr" dominant-baseline="auto" baseline-shift="baseline" text-anchor="start" clip-rule="nonzero" display="inline" overflow="visible" visibility="visible" opacity="1" color-interpolation="sRGB" color-interpolation-filters="linearRGB" vector-effect="none" fill-rule="nonzero" stroke-dashoffset="0" color-rendering="auto" image-rendering="auto" shape-rendering="auto" text-rendering="auto" enable-background="accumulate"/><path id="path1483" d="M22.286 246.954a1.058 1.058 0 0 0-.001 1.497l6.168 6.184a1.058 1.058 0 0 0 1.497.002l8.851-8.83 4.998 5.01-4.458 4.447a1.059 1.059 0 1 0 1.495 1.5l5.207-5.195a1.058 1.058 0 0 0 .002-1.497l-6.492-6.51a1.058 1.058 0 0 0-1.497-.001l-8.852 8.83-4.673-4.686 8.852-8.829a1.059 1.059 0 1 0-1.495-1.499z" style="line-height:normal;font-variant-ligatures:normal;font-variant-position:normal;font-variant-caps:normal;font-variant-numeric:normal;font-variant-alternates:normal;font-feature-settings:normal;text-indent:0;text-align:start;text-decoration-line:none;text-decoration-style:solid;text-decoration-color:#000;text-transform:none;text-orientation:mixed;white-space:normal;shape-padding:0;isolation:auto;mix-blend-mode:normal;solid-color:#000;solid-opacity:1" color="#000" font-style="normal" font-variant="normal" font-weight="400" font-stretch="normal" font-size="medium" font-family="sans-serif" text-decoration="none" letter-spacing="normal" word-spacing="normal" writing-mode="lr-tb" direction="ltr" dominant-baseline="auto" baseline-shift="baseline" text-anchor="start" clip-rule="nonzero" display="inline" overflow="visible" visibility="visible" opacity="1" color-interpolation="sRGB" color-interpolation-filters="linearRGB" vector-effect="none" fill-rule="nonzero" stroke-dashoffset="0" color-rendering="auto" image-rendering="auto" shape-rendering="auto" text-rendering="auto" enable-background="accumulate"/><path id="path1485" d="M25.022 268.248a1.059 1.059 0 1 0 1.495 1.499l9.015-8.992 4.673 4.685-9.015 8.992a1.058 1.058 0 0 0-.001 1.497l6.168 6.184a1.058 1.058 0 0 0 1.497.002l9.763-9.74a1.059 1.059 0 1 0-1.495-1.498l-9.014 8.991-4.673-4.685 9.014-8.991a1.058 1.058 0 0 0 .002-1.497l-6.168-6.184a1.058 1.058 0 0 0-1.497-.002z" style="line-height:normal;font-variant-ligatures:normal;font-variant-position:normal;font-variant-caps:normal;font-variant-numeric:normal;font-variant-alternates:normal;font-feature-settings:normal;text-indent:0;text-align:start;text-decoration-line:none;text-decoration-style:solid;text-decoration-color:#000;text-transform:none;text-orientation:mixed;white-space:normal;shape-padding:0;isolation:auto;mix-blend-mode:normal;solid-color:#000;solid-opacity:1" color="#000" font-style="normal" font-variant="normal" font-weight="400" font-stretch="normal" font-size="medium" font-family="sans-serif" text-decoration="none" letter-spacing="normal" word-spacing="normal" writing-mode="lr-tb" direction="ltr" dominant-baseline="auto" baseline-shift="baseline" text-anchor="start" clip-rule="nonzero" display="inline" overflow="visible" visibility="visible" opacity="1" color-interpolation="sRGB" color-interpolation-filters="linearRGB" vector-effect="none" fill-rule="nonzero" stroke-dashoffset="0" color-rendering="auto" image-rendering="auto" shape-rendering="auto" text-rendering="auto" enable-background="accumulate"/><path id="path1487" d="M24.663 275.733a2.508 2.508 0 0 0-.005 3.555l7.269 7.287a2.509 2.509 0 0 0 3.555.005l1.475-1.471v-1.058l-10.82-9.789zm16.97-16.927l10.819 10.847 5.507-5.494c.986-.983.988-2.57.004-3.555l-7.268-7.287a2.508 2.508 0 0 0-3.555-.004l-5.507 4.435z" opacity="1"/></g><path id="path1471" d="M8.454 260.75a1.059 1.059 0 1 0 1.495 1.5l8.364-8.342 4.673 4.684-8.364 8.343a1.058 1.058 0 0 0-.001 1.497l6.492 6.509a1.059 1.059 0 1 0 1.5-1.495l-5.746-5.76 8.363-8.342a1.058 1.058 0 0 0 .002-1.497l-6.168-6.184a1.058 1.058 0 0 0-1.497-.002z" style="line-height:normal;font-variant-ligatures:normal;font-variant-position:normal;font-variant-caps:normal;font-variant-numeric:normal;font-variant-alternates:normal;font-feature-settings:normal;text-indent:0;text-align:start;text-decoration-line:none;text-decoration-style:solid;text-decoration-color:#000;text-transform:none;text-orientation:mixed;white-space:normal;shape-padding:0;isolation:auto;mix-blend-mode:normal;solid-color:#000;solid-opacity:1" color="#000" font-style="normal" font-variant="normal" font-weight="400" font-stretch="normal" font-size="medium" font-family="sans-serif" text-decoration="none" letter-spacing="normal" word-spacing="normal" writing-mode="lr-tb" direction="ltr" dominant-baseline="auto" baseline-shift="baseline" text-anchor="start" clip-rule="nonzero" display="inline" overflow="visible" visibility="visible" opacity=".8" color-interpolation="sRGB" color-interpolation-filters="linearRGB" vector-effect="none" fill="#fff" fill-rule="nonzero" stroke-dashoffset="0" color-rendering="auto" image-rendering="auto" shape-rendering="auto" text-rendering="auto" enable-background="accumulate"/><path id="path1473" d="M22.286 246.954a1.058 1.058 0 0 0-.001 1.497l6.168 6.184a1.058 1.058 0 0 0 1.497.002l8.851-8.83 4.998 5.01-4.458 4.447a1.059 1.059 0 1 0 1.495 1.5l5.207-5.195a1.058 1.058 0 0 0 .002-1.497l-6.492-6.51a1.058 1.058 0 0 0-1.497-.001l-8.852 8.83-4.673-4.686 8.852-8.829a1.059 1.059 0 1 0-1.495-1.499z" style="line-height:normal;font-variant-ligatures:normal;font-variant-position:normal;font-variant-caps:normal;font-variant-numeric:normal;font-variant-alternates:normal;font-feature-settings:normal;text-indent:0;text-align:start;text-decoration-line:none;text-decoration-style:solid;text-decoration-color:#000;text-transform:none;text-orientation:mixed;white-space:normal;shape-padding:0;isolation:auto;mix-blend-mode:normal;solid-color:#000;solid-opacity:1" color="#000" font-style="normal" font-variant="normal" font-weight="400" font-stretch="normal" font-size="medium" font-family="sans-serif" text-decoration="none" letter-spacing="normal" word-spacing="normal" writing-mode="lr-tb" direction="ltr" dominant-baseline="auto" baseline-shift="baseline" text-anchor="start" clip-rule="nonzero" display="inline" overflow="visible" visibility="visible" opacity=".8" color-interpolation="sRGB" color-interpolation-filters="linearRGB" vector-effect="none" fill="#f8f8f8" fill-rule="nonzero" stroke-dashoffset="0" color-rendering="auto" image-rendering="auto" shape-rendering="auto" text-rendering="auto" enable-background="accumulate"/><path id="path1475" d="M25.022 268.248a1.059 1.059 0 1 0 1.495 1.499l9.015-8.992 4.673 4.685-9.015 8.992a1.058 1.058 0 0 0-.001 1.497l6.168 6.184a1.058 1.058 0 0 0 1.497.002l9.763-9.74a1.059 1.059 0 1 0-1.495-1.498l-9.014 8.991-4.673-4.685 9.014-8.991a1.058 1.058 0 0 0 .002-1.497l-6.168-6.184a1.058 1.058 0 0 0-1.497-.002z" style="line-height:normal;font-variant-ligatures:normal;font-variant-position:normal;font-variant-caps:normal;font-variant-numeric:normal;font-variant-alternates:normal;font-feature-settings:normal;text-indent:0;text-align:start;text-decoration-line:none;text-decoration-style:solid;text-decoration-color:#000;text-transform:none;text-orientation:mixed;white-space:normal;shape-padding:0;isolation:auto;mix-blend-mode:normal;solid-color:#000;solid-opacity:1" color="#000" font-style="normal" font-variant="normal" font-weight="400" font-stretch="normal" font-size="medium" font-family="sans-serif" text-decoration="none" letter-spacing="normal" word-spacing="normal" writing-mode="lr-tb" direction="ltr" dominant-baseline="auto" baseline-shift="baseline" text-anchor="start" clip-rule="nonzero" display="inline" overflow="visible" visibility="visible" opacity=".8" color-interpolation="sRGB" color-interpolation-filters="linearRGB" vector-effect="none" fill="#fff" fill-rule="nonzero" stroke-dashoffset="0" color-rendering="auto" image-rendering="auto" shape-rendering="auto" text-rendering="auto" enable-background="accumulate"/><path id="rect1477" d="M24.663 275.733a2.508 2.508 0 0 0-.005 3.555l7.269 7.287a2.509 2.509 0 0 0 3.555.005l1.475-1.471-10.82-10.847zm16.97-16.927l10.819 10.847 5.507-5.494c.986-.983.988-2.57.004-3.555l-7.268-7.287a2.508 2.508 0 0 0-3.555-.004z" opacity=".8" fill="#fff"/></g></g></g><g transform="matrix(.4432 0 0 .44992 -42.69 -89.841)" id="g962" color="#000" font-style="normal" font-variant="normal" font-weight="400" font-stretch="normal" font-size="medium" font-family="sans-serif" letter-spacing="normal" word-spacing="normal" writing-mode="lr-tb" direction="ltr" dominant-baseline="auto" text-anchor="start" clip-rule="nonzero" visibility="visible" color-interpolation="sRGB" color-interpolation-filters="linearRGB" fill="#70ffff" fill-rule="nonzero" stroke="none" stroke-dashoffset="0" color-rendering="auto" image-rendering="auto" shape-rendering="auto" text-rendering="auto"><g id="g882" opacity=".863" filter="url(#filter1512)"><path id="path2271" d="M50.105 250.31v15.971h15.972V250.31zm1.23 1.332h13.512v13.309H51.335z" style="line-height:normal;font-variant-ligatures:normal;font-variant-position:normal;font-variant-caps:normal;font-variant-numeric:normal;font-variant-alternates:normal;font-feature-settings:normal;text-indent:0;text-align:start;text-decoration-line:none;text-decoration-style:solid;text-decoration-color:#000;text-transform:none;text-orientation:mixed;white-space:normal;shape-padding:0;isolation:auto;mix-blend-mode:normal;solid-color:#000;solid-opacity:1" text-decoration="none" baseline-shift="baseline" display="inline" overflow="visible" opacity="1" vector-effect="none" stroke-width="1.279" stroke-linecap="butt" stroke-linejoin="miter" enable-background="accumulate"/><g transform="matrix(.90612 0 0 .92534 10.97 16.86)" id="g2289" stroke-width="1.323" stroke-linecap="butt" stroke-linejoin="miter"><path style="line-height:normal;font-variant-ligatures:normal;font-variant-position:normal;font-variant-caps:normal;font-variant-numeric:normal;font-variant-alternates:normal;font-feature-settings:normal;text-indent:0;text-align:start;text-decoration-line:none;text-decoration-style:solid;text-decoration-color:#000;text-transform:none;text-orientation:mixed;white-space:normal;shape-padding:0;isolation:auto;mix-blend-mode:normal;solid-color:#000;solid-opacity:1" d="M23.82 252.072l-.976.892 15.561 17.029.977-.893z" id="path2275" text-decoration="none" baseline-shift="baseline" display="inline" overflow="visible" opacity="1" vector-effect="none" enable-background="accumulate"/><path style="line-height:normal;font-variant-ligatures:normal;font-variant-position:normal;font-variant-caps:normal;font-variant-numeric:normal;font-variant-alternates:normal;font-feature-settings:normal;text-indent:0;text-align:start;text-decoration-line:none;text-decoration-style:solid;text-decoration-color:#000;text-transform:none;text-orientation:mixed;white-space:normal;shape-padding:0;isolation:auto;mix-blend-mode:normal;solid-color:#000;solid-opacity:1" d="M38.456 252.113l-15.658 16.94.972.898 15.657-16.94z" id="path2277" text-decoration="none" baseline-shift="baseline" display="inline" overflow="visible" opacity="1" vector-effect="none" enable-background="accumulate"/></g><path style="line-height:normal;font-variant-ligatures:normal;font-variant-position:normal;font-variant-caps:normal;font-variant-numeric:normal;font-variant-alternates:normal;font-feature-settings:normal;text-indent:0;text-align:start;text-decoration-line:none;text-decoration-style:solid;text-decoration-color:#000;text-transform:none;text-orientation:mixed;white-space:normal;shape-padding:0;isolation:auto;mix-blend-mode:normal;solid-color:#000;solid-opacity:1" d="M20.757 248.978c-4.648 0-8.342 4.221-8.342 9.312 0 5.091 3.694 9.313 8.342 9.313 4.647 0 8.342-4.222 8.342-9.313s-3.695-9.312-8.342-9.312zm0 1.422c3.781 0 6.922 3.48 6.922 7.89s-3.14 7.89-6.922 7.89c-3.782 0-6.92-3.48-6.92-7.89s3.138-7.89 6.92-7.89z" id="path2283" text-decoration="none" baseline-shift="baseline" display="inline" overflow="visible" opacity="1" vector-effect="none" stroke-width="1.421" stroke-linecap="square" stroke-linejoin="round" enable-background="accumulate"/><path style="line-height:normal;font-variant-ligatures:normal;font-variant-position:normal;font-variant-caps:normal;font-variant-numeric:normal;font-variant-alternates:normal;font-feature-settings:normal;text-indent:0;text-align:start;text-decoration-line:none;text-decoration-style:solid;text-decoration-color:#000;text-transform:none;text-orientation:mixed;white-space:normal;shape-padding:0;isolation:auto;mix-blend-mode:normal;solid-color:#000;solid-opacity:1" d="M.98 249.81l-.618 1.217-8.322 16.39H9.92zm0 3.06l6.683 13.16H-5.702z" id="path2285" text-decoration="none" baseline-shift="baseline" display="inline" overflow="visible" opacity="1" vector-effect="none" stroke-width="1.386" stroke-linecap="butt" stroke-linejoin="miter" enable-background="accumulate"/></g><g id="g1494"><path style="line-height:normal;font-variant-ligatures:normal;font-variant-position:normal;font-variant-caps:normal;font-variant-numeric:normal;font-variant-alternates:normal;font-feature-settings:normal;text-indent:0;text-align:start;text-decoration-line:none;text-decoration-style:solid;text-decoration-color:#000;text-transform:none;text-orientation:mixed;white-space:normal;shape-padding:0;isolation:auto;mix-blend-mode:normal;solid-color:#000;solid-opacity:1" d="M50.105 250.31v15.971h15.972V250.31zm1.23 1.332h13.512v13.309H51.335z" id="path1482" text-decoration="none" baseline-shift="baseline" display="inline" overflow="visible" opacity="1" vector-effect="none" stroke-width="1.279" stroke-linecap="butt" stroke-linejoin="miter" enable-background="accumulate"/><g id="g1488" transform="matrix(.90612 0 0 .92534 10.97 16.86)" stroke-width="1.323" stroke-linecap="butt" stroke-linejoin="miter"><path id="path1484" d="M23.82 252.072l-.976.892 15.561 17.029.977-.893z" style="line-height:normal;font-variant-ligatures:normal;font-variant-position:normal;font-variant-caps:normal;font-variant-numeric:normal;font-variant-alternates:normal;font-feature-settings:normal;text-indent:0;text-align:start;text-decoration-line:none;text-decoration-style:solid;text-decoration-color:#000;text-transform:none;text-orientation:mixed;white-space:normal;shape-padding:0;isolation:auto;mix-blend-mode:normal;solid-color:#000;solid-opacity:1" text-decoration="none" baseline-shift="baseline" display="inline" overflow="visible" opacity="1" vector-effect="none" enable-background="accumulate"/><path id="path1486" d="M38.456 252.113l-15.658 16.94.972.898 15.657-16.94z" style="line-height:normal;font-variant-ligatures:normal;font-variant-position:normal;font-variant-caps:normal;font-variant-numeric:normal;font-variant-alternates:normal;font-feature-settings:normal;text-indent:0;text-align:start;text-decoration-line:none;text-decoration-style:solid;text-decoration-color:#000;text-transform:none;text-orientation:mixed;white-space:normal;shape-padding:0;isolation:auto;mix-blend-mode:normal;solid-color:#000;solid-opacity:1" text-decoration="none" baseline-shift="baseline" display="inline" overflow="visible" opacity="1" vector-effect="none" enable-background="accumulate"/></g><path id="path1490" d="M20.757 248.978c-4.648 0-8.342 4.221-8.342 9.312 0 5.091 3.694 9.313 8.342 9.313 4.647 0 8.342-4.222 8.342-9.313s-3.695-9.312-8.342-9.312zm0 1.422c3.781 0 6.922 3.48 6.922 7.89s-3.14 7.89-6.922 7.89c-3.782 0-6.92-3.48-6.92-7.89s3.138-7.89 6.92-7.89z" style="line-height:normal;font-variant-ligatures:normal;font-variant-position:normal;font-variant-caps:normal;font-variant-numeric:normal;font-variant-alternates:normal;font-feature-settings:normal;text-indent:0;text-align:start;text-decoration-line:none;text-decoration-style:solid;text-decoration-color:#000;text-transform:none;text-orientation:mixed;white-space:normal;shape-padding:0;isolation:auto;mix-blend-mode:normal;solid-color:#000;solid-opacity:1" text-decoration="none" baseline-shift="baseline" display="inline" overflow="visible" opacity="1" vector-effect="none" stroke-width="1.421" stroke-linecap="square" stroke-linejoin="round" enable-background="accumulate"/><path id="path1492" d="M.98 249.81l-.618 1.217-8.322 16.39H9.92zm0 3.06l6.683 13.16H-5.702z" style="line-height:normal;font-variant-ligatures:normal;font-variant-position:normal;font-variant-caps:normal;font-variant-numeric:normal;font-variant-alternates:normal;font-feature-settings:normal;text-indent:0;text-align:start;text-decoration-line:none;text-decoration-style:solid;text-decoration-color:#000;text-transform:none;text-orientation:mixed;white-space:normal;shape-padding:0;isolation:auto;mix-blend-mode:normal;solid-color:#000;solid-opacity:1" text-decoration="none" baseline-shift="baseline" display="inline" overflow="visible" opacity="1" vector-effect="none" stroke-width="1.386" stroke-linecap="butt" stroke-linejoin="miter" enable-background="accumulate"/></g></g></g></svg>