<svg xmlns="http://www.w3.org/2000/svg" width="48" height="48" version="1.1" id="svg38"><defs id="defs22"><style id="style4511"/><style id="style4511-26"/><style id="style4511-9"/><style id="style4552"/><style id="style4511-2"/></defs><style id="style4485" type="text/css"/><g id="g526" fill-opacity="1"><path id="rect4144" d="M19.389 2.965h8.618c14.11 0 17.048 11.246 17.048 17.282v7.123c0 5.96-2.743 17.282-18.095 17.282h-7.03c-11.73 0-17.395-7.708-17.395-17.282v-7.123c0-9.575 5.55-17.282 16.854-17.282z" opacity="1" fill="#e6e6e6" stroke="#000" stroke-width=".337" stroke-linecap="square" stroke-linejoin="bevel" stroke-miterlimit="4" stroke-dasharray="none" stroke-dashoffset="0" stroke-opacity=".078"/><g transform="matrix(1.01743 0 0 1.01785 -1.309 -242.342)" id="g1527" clip-rule="evenodd" fill-rule="evenodd" stroke-width=".048"><path d="M25.976 253.577l-.022 20.698-5.546-1.803v-24.33l7.079 1.872c4.531 1.218 7.304 3.585 7.259 7.734-.045 4.825-2.277 6.764-6.628 5.501v-9.515c0-1.15-2.142-1.217-2.142-.157z" id="path7-3" fill="#de0029"/><path d="M17.86 268.458l-2.615.88c-1.69.586-3.133-.79-1.578-1.354l1.262-.45-4.756-1.511c-1.466.496-2.841 1.556-2.75 3.044.09 1.51 3.539 1.871 6.199 2.3 2.48.405 4.734.18 6.786-.542v-1.555zm8.14 5.817l4.847-1.69-4.892-1.556v3.133z" id="path9" fill="#f3c202"/><path d="M38.894 269.743l.09-.022c2.12-.744 3.021-1.782 2.796-2.751-.36-1.623-2.953-2.503-6.944-2.796-2.863-.203-5.68.428-8.431 1.375l-.451.158 4.937 1.533 2.886-.97c3.02-.563 4.238.43 1.33 1.354l-1.443.496zm-18.486-7.17l-2.187.744 2.187.677z" id="path11" fill="#326db3"/><path d="M30.846 272.584l8.048-2.84-5.23-1.624-7.71 2.638v.27zm-10.438-4.983l-2.548.857 2.548.812zm5.546 1.33v-3.224l4.937 1.533zm-11.024-1.397l5.478-1.962v-1.578l-2.187-.677L10.285 266c-.022 0-.067.023-.112.023z" id="path13" fill="#00aa9e"/></g></g></svg>