<svg xmlns:osb="http://www.openswatchbook.org/uri/2009/osb" xmlns="http://www.w3.org/2000/svg" xmlns:xlink="http://www.w3.org/1999/xlink" width="48" height="48" version="1.1" id="svg38"><defs id="defs22"><linearGradient id="linearGradient4488"><stop id="stop4490" offset="0" stop-color="#000" stop-opacity=".047"/><stop id="stop4492" offset="1" stop-color="#000" stop-opacity="0"/></linearGradient><style id="style4511"/><style id="style4511-26"/><style id="style4511-9"/><linearGradient gradientTransform="rotate(45 820.042 -190.615)" x2="378.58" gradientUnits="userSpaceOnUse" y2="523.86" x1="430.51" y1="522.99" id="b-3-7"><stop id="stop7-67" stop-color="#fcfcfc"/><stop id="stop9-53" stop-color="#e9eaeb" offset="1"/></linearGradient><style id="style4552"/><style id="style4511-2"/><linearGradient xlink:href="#linearGradient4488" id="linearGradient4540" gradientUnits="userSpaceOnUse" gradientTransform="translate(-62.889 1.994) scale(.3038)" x1="288.112" y1="141.785" x2="287.575" y2="79.008"/><linearGradient osb:paint="solid" id="linearGradient5293"><stop id="stop5295" offset="0" stop-color="#9a89c0" stop-opacity="1"/></linearGradient><linearGradient xlink:href="#b-3-7" id="linearGradient1992" x1="2.897" y1="23.778" x2="44.92" y2="23.778" gradientUnits="userSpaceOnUse"/><linearGradient id="linearGradient-1-36" y2="46.006" x2="23.999" y1="2" x1="23.999" gradientTransform="matrix(.73855 0 0 .73669 -49.674 1.486)" gradientUnits="userSpaceOnUse"><stop id="stop1780" offset="0%" stop-color="#00C25C"/><stop id="stop1782" offset="100%" stop-color="#00833E"/></linearGradient><linearGradient id="linearGradient-2-7" y2="28.771" x2="24.014" y1="16.721" x1="27.171" gradientTransform="matrix(.72027 0 0 .75538 -49.674 1.486)" gradientUnits="userSpaceOnUse"><stop id="stop1785" offset="0%" stop-color="#FFC214"/><stop id="stop1787" offset="100%" stop-color="#FF9B00"/></linearGradient></defs><style id="style4485" type="text/css"/><path id="path4516" d="M2.75 26.22v1.67c0 9.573 5.583 17.281 17.146 17.281h6.93c15.132 0 17.836-11.322 17.836-17.282v-1.668c0 5.96-2.704 17.282-17.836 17.282h-6.93C8.333 43.503 2.75 35.795 2.75 26.22z" opacity="1" fill="url(#linearGradient4540)" fill-opacity="1" stroke="none" stroke-width="1.1" stroke-linecap="square" stroke-linejoin="bevel" stroke-miterlimit="4" stroke-dasharray="none" stroke-dashoffset="0" stroke-opacity=".078"/><path id="path4518" d="M3.065 28.165v-8.58c0-14.045 11.247-16.97 17.282-16.97h7.123c5.96 0 17.282 2.73 17.282 18.013v6.999c0 11.677-7.707 17.316-17.282 17.316h-7.123c-9.574 0-17.282-5.525-17.282-16.778z" opacity="1" fill="url(#linearGradient1992)" fill-opacity="1" stroke="#000" stroke-width=".336" stroke-linecap="square" stroke-linejoin="bevel" stroke-miterlimit="4" stroke-dasharray="none" stroke-dashoffset="0" stroke-opacity=".078"/><g id="g1824" transform="matrix(1.04351 0 0 1.02727 57.249 4.087)" fill-rule="evenodd" stroke="none" stroke-width=".738"><path d="M-31.95 2.96c8.41 0 15.328 6.374 16.163 14.544-3.73 3.231-7.29 5.073-10.676 5.524 1.724-2.872 2.054-5.524-.343-9.468-1.984-3.265-6.17-6.152-13.268-8.426l.065-.043A16.203 16.203 0 0 1-31.95 2.96zm14.07 24.311c-4.204 7.266-13.197 10.055-20.707 6.691-.94-4.838-.76-8.833.542-11.984 1.631 2.925 3.769 4.536 8.39 4.437 3.828-.082 8.426-2.254 13.95-7.25l.005.078a16.103 16.103 0 0 1-2.18 8.028zm-28.14 0c-4.206-7.265-2.13-16.429 4.544-21.235 4.67 1.607 8.049 3.76 10.134 6.46-3.356-.053-5.823.989-8.048 5.031-1.842 3.347-2.256 8.406-.68 15.675l-.07-.034a16.153 16.153 0 0 1-5.88-5.897z" id="Combined-Shape" fill="url(#linearGradient-1-36)"/><path d="M-30.149 13.274c1.708 2.146 2.202 4.056 1.481 5.73-.72 1.673-.376 3 1.032 3.982-2.326.609-4.255.029-5.789-1.74-.869-1.168-2.082-1.457-3.641-.867-.445-1.245 1.961-3.827 4.3-4.078 1.558-.167 2.43-1.176 2.617-3.027zm-1.432 6.63c.612 0 1.108-.495 1.108-1.105a1.107 1.107 0 0 0-2.215 0c0 .61.495 1.105 1.107 1.105z" id="path1794-5" fill="url(#linearGradient-2-7)"/></g></svg>