<svg xmlns="http://www.w3.org/2000/svg" xmlns:xlink="http://www.w3.org/1999/xlink" width="48" height="48" version="1.1" id="svg38"><defs id="defs22"><linearGradient id="linearGradient3764-3-9-3" x1="1" x2="47" gradientUnits="userSpaceOnUse" gradientTransform="rotate(-90 -3.957 51.457)"><stop stop-color="#32506e" stop-opacity="1" id="stop1715"/><stop offset="1" stop-color="#38597c" stop-opacity="1" id="stop1717"/></linearGradient><linearGradient id="linearGradient4488"><stop id="stop4490" offset="0" stop-color="#000" stop-opacity=".047"/><stop id="stop4492" offset="1" stop-color="#000" stop-opacity="0"/></linearGradient><style id="style4511"/><style id="style4511-26"/><style id="style4511-9"/><style id="style4552"/><style id="style4511-2"/><linearGradient gradientTransform="translate(-63.205 2.216) scale(.3038)" xlink:href="#linearGradient4488" id="linearGradient4160" x1="288.112" y1="141.785" x2="287.575" y2="79.008" gradientUnits="userSpaceOnUse"/><path fill-opacity="1" fill-rule="nonzero" stroke="none" d="M20.906 12.531c-.191.035-.391.215-.594.563-.406.691-.582 2.613-.25 4.469.293 1.645 1.422 5.16 2.844 7.313-1.402 3.129-3.328 6.109-4.469 7.875-.918 1.422-3.129 3.078-3.313 2.75-.184-.328.414-1.055 1.188-2.219.77-1.164 2.75-2.375 2.75-2.375s-.836-.016-3 1.875c-2.168 1.895-1.516 2.836-1 3.125.371.211 1.242.84 3.531-2 1.719-.488 4.961-1.32 8.156-1.625 4.586-.438 6.156.016 6.563.344.402.328.406.719.406.719s.492-.512.156-1.031c-.289-.535-.711-.984-4.344-.875-3.637.109-3.91.258-7.25.875a14.255 14.255 0 0 0-3.25 1c.793-1.051 1.738-2.453 2.875-4.406a36.288 36.288 0 0 0 1.625-3.145c1.711 1.926 5.01 3.59 7.469 4.094 2.359.477 2.996-.398 3.063-.5-.09.074-.414.207-1.375.125-1.258-.109-6.03-1.598-8.75-4.656 2.617-6.285 2.156-10.688 2.156-10.688s-.902 4.145-2.188 8.145a24.453 24.453 0 0 1-.625 1.75c-2.258-3.137-2.453-7.184-2.625-9.344-.184-2.293.82-1.633.969-1.344.113.098.223.289.281.469-.055-.305-.133-.727-.406-1-.203-.199-.402-.316-.594-.281m0 0" id="SVGCleanerId_1"/><style id="style4511-8"/><style id="style4511-26-4"/><style id="style4511-9-8"/><style id="style4552-5"/><style id="style4511-2-5"/><linearGradient xlink:href="#linearGradient3764-3-9-3" id="linearGradient1726" x1="2.266" y1="23.808" x2="44.513" y2="23.808" gradientUnits="userSpaceOnUse"/></defs><style id="style4485" type="text/css"/><g id="g1274" fill-opacity="1"><path id="path4147" d="M2.433 26.443v1.668c0 9.575 5.583 17.282 17.146 17.282h6.93c15.133 0 17.837-11.322 17.837-17.282v-1.668c0 5.96-2.704 17.282-17.837 17.282h-6.93c-11.563 0-17.146-7.708-17.146-17.282z" opacity="1" fill="url(#linearGradient4160)" stroke="none" stroke-width="1.1" stroke-linecap="square" stroke-linejoin="bevel" stroke-miterlimit="4" stroke-dasharray="none" stroke-dashoffset="0" stroke-opacity=".078"/><path id="rect4144" d="M19.046 2.965h8.495c13.908 0 16.805 11.246 16.805 17.282v7.123c0 5.96-2.704 17.282-17.837 17.282h-6.93c-11.562 0-17.146-7.708-17.146-17.282v-7.123c0-9.575 5.47-17.282 16.613-17.282z" opacity="1" fill="url(#linearGradient1726)" stroke="#000" stroke-width=".334" stroke-linecap="square" stroke-linejoin="bevel" stroke-miterlimit="4" stroke-dasharray="none" stroke-dashoffset="0" stroke-opacity=".078"/><use transform="matrix(1.44028 0 0 1.21758 -11.619 -5.805)" height="100%" width="100%" y="0" x="0" xlink:href="#SVGCleanerId_1" id="use1205" fill="#ff842a"/><use transform="matrix(1.44028 0 0 1.21758 -11.619 -5.805)" height="100%" width="100%" y="0" x="0" xlink:href="#SVGCleanerId_1" id="use1215" fill="#ff7f2a"/></g><style type="text/css" id="style4485-1"/></svg>