<svg xmlns="http://www.w3.org/2000/svg" xmlns:xlink="http://www.w3.org/1999/xlink" width="48" height="48" version="1.1" id="svg38"><defs id="defs22"><linearGradient id="linearGradient4488"><stop id="stop4490" offset="0" stop-color="#000" stop-opacity=".047"/><stop id="stop4492" offset="1" stop-color="#000" stop-opacity="0"/></linearGradient><style id="style4511"/><style id="style4511-26"/><style id="style4511-9"/><style id="style4552"/><style id="style4511-2"/><linearGradient gradientTransform="matrix(.30894 0 0 .30458 -64.214 2.614)" xlink:href="#linearGradient4488" id="linearGradient4160" x1="288.112" y1="141.785" x2="287.575" y2="79.008" gradientUnits="userSpaceOnUse"/></defs><style id="style4485" type="text/css"/><g id="g1515" transform="matrix(1 0 0 .9884 0 .032)"><path id="path4147" d="M2.535 26.903v1.672c0 9.6 5.678 17.327 17.436 17.327h7.048c15.388 0 18.138-11.352 18.138-17.327v-1.672c0 5.974-2.75 17.326-18.138 17.326H19.97c-11.758 0-17.436-7.728-17.436-17.326z" opacity="1" fill="url(#linearGradient4160)" fill-opacity="1" stroke="none" stroke-width="1.111" stroke-linecap="square" stroke-linejoin="bevel" stroke-miterlimit="4" stroke-dasharray="none" stroke-dashoffset="0" stroke-opacity=".078"/><path id="rect4144-6" d="M19.574 2.797h8.637c14.142 0 17.087 11.582 17.087 17.797v7.335c0 6.137-2.75 17.797-18.136 17.797h-7.047c-11.756 0-17.434-7.937-17.434-17.797v-7.335c0-9.86 5.562-17.797 16.893-17.797z" opacity="1" fill="#ffd459" fill-opacity="1" stroke="#000" stroke-width=".342" stroke-linecap="square" stroke-linejoin="bevel" stroke-miterlimit="4" stroke-dasharray="none" stroke-dashoffset="0" stroke-opacity=".078"/><path id="rect4144" d="M40.908 7.89L7.368 40.9c2.885 2.988 7.11 4.826 12.747 4.826h7.047c15.387 0 18.137-11.66 18.137-17.797v-7.336c0-3.538-.96-8.813-4.39-12.702z" opacity="1" fill="#83b848" fill-opacity="1" stroke="#000" stroke-width=".342" stroke-linecap="square" stroke-linejoin="bevel" stroke-miterlimit="4" stroke-dasharray="none" stroke-dashoffset="0" stroke-opacity=".078"/><g transform="matrix(1.0312 0 0 1.00867 80.208 -8.512)" id="g1502" fill-rule="evenodd" stroke="none"><path id="path3770" d="M-38.11 16.261c-17.687.594-31.976 14.89-32.526 32.726 17.687-.593 31.975-14.89 32.526-32.726z" fill="#88a43b" fill-opacity="1" stroke-width=".092"/><ellipse id="path3777" transform="rotate(.595) skewX(.007)" cx="-54.036" cy="33.052" rx="6.417" ry="6.456" fill="#83b848" fill-opacity="1" stroke-width=".13"/><ellipse transform="rotate(.595) skewX(.007)" id="path3775" cx="-54.036" cy="33.052" rx="3.455" ry="3.476" fill="#ffd459" stroke-width=".07"/><ellipse transform="rotate(.595) skewX(.007)" id="path3779" cx="-63.132" cy="42.204" rx="4.583" ry="4.611" fill="#83b848" fill-opacity="1" stroke-width=".093"/><ellipse id="path3781" transform="rotate(.595) skewX(.007)" cx="-63.132" cy="42.204" rx="1.692" ry="1.703" fill="#ffd459" stroke-width=".034"/><ellipse id="path3789" transform="rotate(.595) skewX(.007)" cx="-45.011" cy="23.971" rx="4.583" ry="4.611" fill="#83b848" fill-opacity="1" stroke-width=".093"/><ellipse transform="rotate(.595) skewX(.007)" id="path3791" cx="-45.011" cy="23.971" rx="1.692" ry="1.703" fill="#ffd459" stroke-width=".034"/></g></g></svg>