<svg xmlns="http://www.w3.org/2000/svg" xmlns:xlink="http://www.w3.org/1999/xlink" width="48" height="48" version="1.1" id="svg38"><defs id="defs22"><linearGradient id="linearGradient4488"><stop id="stop4490" offset="0" stop-color="#000" stop-opacity=".047"/><stop id="stop4492" offset="1" stop-color="#000" stop-opacity="0"/></linearGradient><style id="style4511"/><style id="style4511-26"/><style id="style4511-9"/><style id="style4552"/><style id="style4511-2"/><linearGradient xlink:href="#linearGradient4488" id="linearGradient4546" gradientUnits="userSpaceOnUse" gradientTransform="translate(-62.497 1.994) scale(.3038)" x1="288.112" y1="141.785" x2="287.575" y2="79.008"/></defs><style id="style4485" type="text/css"/><path d="M3.141 26.22v1.67c0 9.573 5.583 17.281 17.146 17.281h6.93c15.133 0 17.837-11.322 17.837-17.282v-1.668c0 5.96-2.704 17.282-17.837 17.282h-6.93c-11.563 0-17.146-7.708-17.146-17.282z" id="path4528" opacity="1" fill="url(#linearGradient4546)" fill-opacity="1" stroke="none" stroke-width="1.1" stroke-linecap="square" stroke-linejoin="bevel" stroke-miterlimit="4" stroke-dasharray="none" stroke-dashoffset="0" stroke-opacity=".078"/><path d="M19.754 2.742h8.495c13.908 0 16.805 11.247 16.805 17.282v7.124c0 5.96-2.704 17.282-17.837 17.282h-6.93c-11.562 0-17.146-7.708-17.146-17.282v-7.124c0-9.574 5.47-17.282 16.613-17.282z" id="path4530" opacity="1" fill="#ff7828" fill-opacity="1" stroke="#000" stroke-width=".334" stroke-linecap="square" stroke-linejoin="bevel" stroke-miterlimit="4" stroke-dasharray="none" stroke-dashoffset="0" stroke-opacity=".078"/><path d="M19.754 9.047c-.433 0-.775.02-1.165.03-.51.011-1.054.015-1.522.037-.033.015-.072.029-.105.044l-.539.256-.127.656-2.559 13.254-.97 5.01-1.781 9.201c.139.128.275.258.432.368.23.16.478.303.75.43.27.127.563.239.879.336.316.097.656.181 1.02.252.365.071.755.13 1.171.178.417.048.86.086 1.332.114.182.011.424.007.614.016.227-1.14.372-1.85.795-4.044l.984-5.114.22-1.142 1.212-.001c1.666-.002 3.981-.116 5.041-.248 3.854-.483 6.608-1.79 8.898-4.223 1.245-1.322 2.114-2.737 2.815-4.58.355-.935.642-2.183.772-3.253a10.779 15.22 73.894 0 0-.025-.607 10.779 15.22 73.894 0 0-.193-1.062 10.779 15.22 73.894 0 0-.225-.73 10.779 15.22 73.894 0 0-.441-.988 10.779 15.22 73.894 0 0-.582-.931 10.779 15.22 73.894 0 0-.715-.866 10.779 15.22 73.894 0 0-.843-.79 10.779 15.22 73.894 0 0-.283-.208c-1.145-.8-2.834-1.508-3.788-1.359-.482-.01-.9-.036-1.432-.036zm2.512 3.849h2.262c2.23 0 3.529.087 4.213.284a3.213 3.213 0 0 1 1.379.878c.554.627.781 1.473.72 2.672-.064 1.225-.446 2.436-1.16 3.676-1.34 2.324-3.097 3.445-6.096 3.886-.435.064-1.235.103-2.119.104l-1.42.001 1.11-5.75z" id="path885" fill="#fffcfc" fill-opacity="1" stroke-width=".068"/></svg>