<svg xmlns:osb="http://www.openswatchbook.org/uri/2009/osb" xmlns="http://www.w3.org/2000/svg" xmlns:xlink="http://www.w3.org/1999/xlink" width="48" height="48" version="1.1" id="svg38"><defs id="defs22"><linearGradient id="linearGradient4488"><stop id="stop4490" offset="0" stop-color="#000" stop-opacity=".047"/><stop id="stop4492" offset="1" stop-color="#000" stop-opacity="0"/></linearGradient><style id="style4511"/><style id="style4511-26"/><style id="style4511-9"/><style id="style4552"/><style id="style4511-2"/><linearGradient osb:paint="solid" id="linearGradient5293"><stop id="stop5295" offset="0" stop-color="#9a89c0" stop-opacity="1"/></linearGradient><style id="style4511-879202375"/><style id="style4511-26-30"/><style id="style4511-9-76"/><style id="style4552-5"/><style id="style4511-2-6"/><style id="style4511-87920237"/><style id="style4511-26-443"/><style id="style4511-9-5"/><style id="style4552-09"/><style id="style4511-2-0"/><linearGradient osb:paint="solid" id="linearGradient4390"><stop id="stop4388" offset="0" stop-color="#000" stop-opacity="1"/></linearGradient><linearGradient osb:paint="solid" id="linearGradient4300"><stop id="stop4298" offset="0" stop-color="#9f007b" stop-opacity="1"/></linearGradient><style id="style4511-879202"/><style id="style4511-26-47"/><style id="style4511-9-17"/><style id="style4552-4"/><style id="style4511-2-4"/><style id="style4511-879"/><style id="style4511-26-65"/><style id="style4511-9-2"/><style id="style4552-89"/><style id="style4511-2-1"/><style id="style4511-8"/><style id="style4511-26-4"/><style id="style4511-9-7"/><style id="style4552-3"/><style id="style4511-2-8"/><style id="style4552-7"/><style id="style4552-6"/><style id="style4552-73"/><style id="style4552-2"/><linearGradient osb:paint="solid" id="linearGradient5251"><stop id="stop5253" offset="0" stop-color="#2f343f" stop-opacity="1"/></linearGradient><style id="style4511-87"/><style id="style4511-26-6"/><style id="style4511-9-1"/><style id="style4552-8"/><style id="style4511-2-5"/><style id="style4511-8792"/><style id="style4511-26-3"/><style id="style4511-9-0"/><style id="style4552-86"/><style id="style4511-2-84"/><style id="style4511-8-6"/><style id="style4511-26-4-3"/><style id="style4511-9-7-8"/><style id="style4552-3-7"/><style id="style4511-2-8-9"/><style id="style4552-7-5"/><style id="style4552-6-87"/><style id="style4552-73-3"/><style id="style4552-2-1"/><style id="style4511-87-0"/><style id="style4511-26-6-5"/><style id="style4511-9-1-3"/><style id="style4552-8-8"/><style id="style4511-2-5-3"/><style id="style4511-879-4"/><style id="style4511-26-65-7"/><style id="style4511-9-2-0"/><style id="style4552-89-8"/><style id="style4511-2-1-9"/><style id="style4511-8-0"/><style id="style4511-26-4-0"/><style id="style4511-9-7-9"/><style id="style4552-3-4"/><style id="style4511-2-8-7"/><style id="style4552-7-4"/><style id="style4552-6-8"/><style id="style4552-73-7"/><style id="style4552-2-2"/><style id="style4511-87-2"/><style id="style4511-26-6-4"/><style id="style4511-9-1-7"/><style id="style4552-8-9"/><style id="style4511-2-5-0"/><style id="style4511-87920"/><style id="style4511-26-45"/><style id="style4511-9-9"/><style id="style4552-0"/><style id="style4511-2-9"/><style id="style4511-8792023"/><style id="style4511-26-44"/><style id="style4511-9-71"/><style id="style4552-43"/><style id="style4511-2-96"/><linearGradient xlink:href="#linearGradient4488" id="linearGradient5481" gradientUnits="userSpaceOnUse" gradientTransform="matrix(0 .30689 -.31235 0 46.41 -63.13)" x1="288.112" y1="141.785" x2="287.575" y2="79.008"/></defs><style id="style4485" type="text/css"/><path d="M15.727 4.737v39.17" id="path5493" fill="#4d4d4d" fill-opacity="1" stroke="#333" stroke-width="4.812" stroke-linecap="butt" stroke-linejoin="miter" stroke-miterlimit="4" stroke-dasharray="none" stroke-opacity="1"/><rect id="Mask" x="63.147" y="78.204" width="20.231" height="20.096" rx=".581" fill="#f1f1f1" fill-opacity="1" fill-rule="evenodd" stroke="none" stroke-width=".336"/><style type="text/css" id="style4485-333"/><style id="style4485-8" type="text/css"/><style type="text/css" id="style4485-039"/><style id="style4485-34" type="text/css"/><style type="text/css" id="style4485-0"/><style id="style4485-4" type="text/css"/><style id="style4485-5" type="text/css"/><style id="style4485-3" type="text/css"/><style id="style4485-5-1" type="text/css"/><style type="text/css" id="style4485-1"/><style id="style4485-33" type="text/css"/><style type="text/css" id="style4485-0-7"/><style id="style4485-4-9" type="text/css"/><style id="style4485-5-4" type="text/css"/><style id="style4485-3-9" type="text/css"/><style id="style4485-5-1-9" type="text/css"/><style type="text/css" id="style4485-1-5"/><style type="text/css" id="style4485-51"/><style id="style4485-0-9" type="text/css"/><style type="text/css" id="style4485-4-7"/><style type="text/css" id="style4485-5-13"/><style type="text/css" id="style4485-3-1"/><style type="text/css" id="style4485-5-1-2"/><style id="style4485-1-6" type="text/css"/><style id="style4485-03" type="text/css"/><style type="text/css" id="style4485-6"/><path id="path4516" d="M21.502 3.174h-1.715c-9.844 0-17.769 5.64-17.769 17.32v7.001c0 15.286 11.641 18.018 17.769 18.018h1.715c-6.127 0-17.768-2.732-17.768-18.018v-7c0-11.68 7.924-17.32 17.768-17.32z" opacity="1" fill="url(#linearGradient5481)" fill-opacity="1" stroke="none" stroke-width="1.121" stroke-linecap="square" stroke-linejoin="bevel" stroke-miterlimit="4" stroke-dasharray="none" stroke-dashoffset="0" stroke-opacity=".078"/><path id="path4518" d="M45.64 19.956v8.582c0 14.049-11.563 16.975-17.768 16.975H20.55c-6.127 0-17.768-2.732-17.768-18.018v-7c0-11.68 7.924-17.32 17.768-17.32h7.323c9.844 0 17.769 5.525 17.769 16.781z" opacity="1" fill="#6e77e9" fill-opacity="1" stroke="none" stroke-width=".341" stroke-linecap="square" stroke-linejoin="bevel" stroke-miterlimit="4" stroke-dasharray="none" stroke-dashoffset="0" stroke-opacity="1"/><path d="M26.776 15.436l-1.25.911-3.182 1.253-.705.729-.545.41-.114.957.227.5.214 1.218.773 1.504.841 1.07-1.318 2.164-1.5 3.235-.91 1.458-1.276 1.845-.069.843-.972.729 1.181 1.07-.195 1.276.113 3.202.446 3.257.455 2.37h4.926l-.318-.092.41-.364-.069-1.025.432-.889-.364.046.56-1.14v-1.138l.431-.592v-.775l.887-1.607.068-1.025-.182-.843.31-.957.477-.775v-.478l.545-.068.477-.479.432-1.207.955-1.07 1.136-.433.705.615 1.75.524 1.386.729.66.842 1.136.114 3.59 1.572 1.841.66 1.5 1.14.319-.092v-.432l-.796-.615.796.205v-1.709h-.137l-.704-.296-.478-.25.705-.593.182-.432-.114-.297-.659.114-1.386.73-.182.364-.477-.114-1.728-.98-.068-.66-1.023-.524-1.727-.911-.432.296.068-.41-.954-.911-.841-.228-.773-.911-.25-.296.773.546-.114-.615.614.32-.182-.912.841.774-.364-.523.841.341-.727-1.002.546.182-.25-.98.431.365-.613-.888.613.182-.545-.729.727-.068-.795-.479.477-.227-.523-.069.705-.66-.66.068.069-.433.068-1.184-.364.82-.431-1.185.068.957-.25.068h-.591l-.66-.98h-.658l-.773-.66-.364.365-.909.314h-.881l-.25.592.25.962-.137.706-.59-.342-.478-.911-1.323-.228-.409-.433-.909-.41-.623-1.286.068-.774 2.523-1.936 1.182.546.182.41v.501l.318.41.59.183.41-.365.068-.41-.182-.364-.364-.182-.227-.297.523-.25-.114-.592v-.365l-.363-.364-.182-.547-.705-.16-.613-.136z" id="path5512" fill="#3f3f3f" fill-rule="evenodd"/></svg>