<svg xmlns="http://www.w3.org/2000/svg" xmlns:xlink="http://www.w3.org/1999/xlink" width="48" height="48" version="1.1" id="svg38"><defs id="defs22"><linearGradient id="linearGradient4488"><stop id="stop4490" offset="0" stop-color="#000" stop-opacity=".047"/><stop id="stop4492" offset="1" stop-color="#000" stop-opacity="0"/></linearGradient><style id="style4511"/><style id="style4511-26"/><style id="style4511-9"/><style id="style4552"/><style id="style4511-2"/><linearGradient gradientTransform="matrix(.3082 0 0 .3038 -64.056 2.216)" xlink:href="#linearGradient4488" id="linearGradient4160" x1="288.112" y1="141.785" x2="287.575" y2="79.008" gradientUnits="userSpaceOnUse"/><linearGradient xlink:href="#linearGradient-4" id="linearGradient1294" x1="2.367" y1="23.808" x2="45.224" y2="23.808" gradientUnits="userSpaceOnUse"/><linearGradient id="linearGradient-4" y2="36.499" x2="42.564" y1="12.771" x1="16.284" gradientTransform="scale(.92112 1.08563)" gradientUnits="userSpaceOnUse"><stop id="stop362" offset="0%" stop-color="#D22020"/><stop id="stop364" offset="100%" stop-color="#DB342F"/></linearGradient></defs><style id="style4485" type="text/css"/><path d="M2.535 26.443v1.668c0 9.575 5.664 17.282 17.394 17.282h7.031c15.352 0 18.095-11.322 18.095-17.282v-1.668c0 5.96-2.743 17.282-18.095 17.282h-7.03c-11.73 0-17.395-7.708-17.395-17.282z" id="path4147" opacity="1" fill="url(#linearGradient4160)" fill-opacity="1" stroke="none" stroke-width="1.108" stroke-linecap="square" stroke-linejoin="bevel" stroke-miterlimit="4" stroke-dasharray="none" stroke-dashoffset="0" stroke-opacity=".078"/><path d="M19.389 2.965h8.618c14.11 0 17.048 11.246 17.048 17.282v7.123c0 5.96-2.743 17.282-18.095 17.282h-7.03c-11.73 0-17.395-7.708-17.395-17.282v-7.123c0-9.575 5.55-17.282 16.854-17.282z" id="rect4144" opacity="1" fill="url(#linearGradient1294)" fill-opacity="1" stroke="#000" stroke-width=".337" stroke-linecap="square" stroke-linejoin="bevel" stroke-miterlimit="4" stroke-dasharray="none" stroke-dashoffset="0" stroke-opacity=".078"/><g id="中间图形" transform="translate(15.499 9.808)" fill="#fff" fill-rule="evenodd" stroke="none" stroke-width="1"><path d="M8.206-3.794c.625 3.979 1.15 6.822 1.58 8.53.428 1.707 1.068 3.697 1.92 5.97-.909-.637-1.61-1.101-2.105-1.394-.495-.293-.964-.493-1.407-.598-.784.294-1.35.546-1.698.754-.349.207-.945.65-1.79 1.326 1.263-3.64 1.939-5.66 2.027-6.059.087-.398.579-3.241 1.473-8.529z" id="Triangle" transform="rotate(90 8.206 3.5)"/><path d="M7.77 2.73c.453 2.715.833 4.718 1.14 6.01.298 1.257.784 2.804 1.361 4.766a.712.712 0 0 1 0 .224c-.641-.796-1.14-1.305-1.493-1.527a3.571 3.571 0 0 0-1.008-.453c-.562.224-.967.414-1.217.571-.25.157-.677.492-1.282 1.004.905-2.755 1.39-4.283 1.452-4.585.063-.302.412-2.305 1.047-6.01z" id="Triangle-Copy" transform="rotate(90 7.775 8.23)"/><path d="M8.507 6.41c.523 3.675.962 6.387 1.316 8.136.355 1.749.943 3.764 1.767 6.044l-.048-.033a96.801 96.801 0 0 1-1.871-1.323c-.41-.3-.797-.504-1.164-.613-.648.303-1.116.56-1.404.773A33.26 33.26 0 0 1 5.59 20.41c1.066-3.501 1.636-5.456 1.708-5.864.073-.409.476-3.12 1.21-8.136z" id="Triangle-Copy-2" transform="rotate(90 8.59 13.5)"/><path d="M4 28c-.618-3.358-1.031-5.234-1.386-6.65-.354-1.418-.884-3.094-1.589-5.029.752.577 1.333.987 1.742 1.23.409.243.797.409 1.163.497.649-.245 1.117-.454 1.405-.626.288-.173.782-.54 1.48-1.1-1.045 3.02-1.603 4.696-1.676 5.027C5.067 21.68 4.64 23.556 4 28z" id="Triangle-Copy-3"/><path d="M12.046 27.94c-.523-2.977-.961-5.174-1.316-6.59-.354-1.418-.884-3.094-1.589-5.029.752.577 1.333.987 1.742 1.23.409.243.797.409 1.163.497.649-.245 1.117-.454 1.405-.626.288-.173.782-.54 1.48-1.1-1.045 3.02-1.603 4.696-1.676 5.027-.072.331-.475 2.528-1.209 6.591z" id="Triangle-Copy-4"/></g></svg>