<svg xmlns:osb="http://www.openswatchbook.org/uri/2009/osb" xmlns="http://www.w3.org/2000/svg" xmlns:xlink="http://www.w3.org/1999/xlink" width="48" height="48" version="1.1" id="svg38"><defs id="defs22"><linearGradient id="linearGradient4488"><stop id="stop4490" offset="0" stop-color="#000" stop-opacity=".047"/><stop id="stop4492" offset="1" stop-color="#000" stop-opacity="0"/></linearGradient><style id="style4511"/><style id="style4511-26"/><style id="style4511-9"/><style id="style4552"/><style id="style4511-2"/><linearGradient xlink:href="#linearGradient4488" id="linearGradient4540" gradientUnits="userSpaceOnUse" gradientTransform="matrix(.30673 0 0 .3038 -63.378 2.282)" x1="288.112" y1="141.785" x2="287.575" y2="79.008"/><linearGradient osb:paint="solid" id="linearGradient5293"><stop id="stop5295" offset="0" stop-color="#9a89c0" stop-opacity="1"/></linearGradient><linearGradient id="linearGradient3764-6" x1="1" x2="47" gradientUnits="userSpaceOnUse" gradientTransform="rotate(-90 24 24)"><stop stop-color="#d1d1d1" stop-opacity="1" id="stop2-7-6"/><stop offset="1" stop-color="#dbdbdb" stop-opacity="1" id="stop4-5-2"/></linearGradient><linearGradient osb:paint="solid" id="linearGradient5251"><stop id="stop5253" offset="0" stop-color="#2f343f" stop-opacity="1"/></linearGradient><radialGradient xlink:href="#linearGradient3764-6" id="radialGradient1420" cx="23.91" cy="23.739" fx="23.91" fy="23.739" r="21.164" gradientTransform="matrix(1 0 0 1.0077 .144 .105)" gradientUnits="userSpaceOnUse"/></defs><style id="style4485" type="text/css"/><path id="path4516" d="M2.895 26.508v1.669c0 9.574 5.637 17.281 17.311 17.281h6.997c15.279 0 18.009-11.322 18.009-17.281v-1.669c0 5.96-2.73 17.282-18.009 17.282h-6.997c-11.674 0-17.311-7.708-17.311-17.282z" opacity="1" fill="url(#linearGradient4540)" fill-opacity="1" stroke="none" stroke-width="1.105" stroke-linecap="square" stroke-linejoin="bevel" stroke-miterlimit="4" stroke-dasharray="none" stroke-dashoffset="0" stroke-opacity=".078"/><path id="path4518" d="M45.048 19.641v8.577c0 14.042-11.328 16.966-17.407 16.966h-7.175c-6.003 0-17.408-2.73-17.408-18.008v-6.997c0-11.674 7.764-17.31 17.408-17.31h7.175c9.644 0 17.407 5.522 17.407 16.772z" opacity="1" fill="url(#radialGradient1420)" fill-opacity="1" stroke="#000" stroke-width=".337" stroke-linecap="square" stroke-linejoin="bevel" stroke-miterlimit="4" stroke-dasharray="none" stroke-dashoffset="0" stroke-opacity=".078"/><g id="g1343" transform="translate(-.288 .288)"><path d="M38.713 28.259c-3.923.72-4.192-.466-4.192-.466 4.14-5.472 5.868-12.422 4.375-14.125-4.073-4.635-11.124-2.444-11.246-2.383l-.037.004a15.927 15.927 0 0 0-2.614-.24c-1.771-.025-3.118.414-4.14 1.107 0 0-12.575-4.619-11.995 5.807.123 2.218 3.565 16.786 7.672 12.392 1.502-1.608 2.952-2.967 2.952-2.967a4.166 4.166 0 0 0 2.487.566l.067-.052c-.02.2-.01.396.032.628-1.06 1.054-.748 1.237-2.863 1.63-2.138.392-.885 1.092-.066 1.276.998.222 3.3.536 4.858-1.403l-.066.222c.415.297.706 1.922.66 3.403-.048 1.477-.08 2.487.244 3.28.326.793.65 2.576 3.429 2.044 2.327-.441 3.528-1.59 3.696-3.511.119-1.365.386-1.164.406-2.384l.212-.575c.25-1.852.037-2.449 1.47-2.165l.348.025c1.055.044 2.435-.152 3.24-.488 1.743-.72 2.78-1.922 1.06-1.607m.015-.014" id="path1345" fill="#6d818e" fill-opacity="1" fill-rule="nonzero" stroke="none" stroke-width="1.16"/><path d="M24.179 29.315c-.107 3.439.03 6.896.406 7.746.376.842 1.187 2.466 3.968 1.948 2.316-.442 3.17-1.312 3.533-3.197.27-1.395.79-5.268.859-6.066" stroke-miterlimit="4" id="path1347" fill="none" stroke="#f9f9f9" stroke-width=".579" stroke-linecap="round" stroke-linejoin="round" stroke-opacity="1"/><path d="M20.851 12.073s-12.59-4.584-12 5.841c.128 2.217 3.571 16.788 7.677 12.381a66.409 66.409 0 0 1 2.853-2.88" stroke-miterlimit="4" id="path1349" fill="none" stroke="#f9f9f9" stroke-width=".579" stroke-linecap="round" stroke-linejoin="round" stroke-opacity="1"/><path d="M27.648 11.235c-.449.123 6.993-2.422 11.222 2.391 1.5 1.7-.235 8.64-4.37 14.12" stroke-miterlimit="4" id="path1351" fill="none" stroke="#f9f9f9" stroke-width=".579" stroke-linecap="round" stroke-linejoin="round" stroke-opacity="1"/><path d="M34.5 27.75s.269 1.19 4.186.467c1.71-.309.688.893-1.06 1.616-1.426.593-4.643.731-4.685-.083-.141-2.114 1.691-1.47 1.559-2-.133-.47-.936-.936-1.474-2.094-.47-1.016-6.45-8.813 1.658-7.655.286-.055-2.115-6.88-9.706-6.987-7.592-.11-7.348 8.323-7.348 8.323" stroke-miterlimit="4" id="path1353" fill="none" stroke="#f9f9f9" stroke-width=".579" stroke-linecap="round" stroke-linejoin="bevel" stroke-opacity="1"/><path d="M22.056 28.474c-1.06 1.063-.744 1.233-2.863 1.624-2.14.391-.871 1.098-.05 1.276.995.222 3.297.542 4.852-1.407.474-.592-.004-1.533-.65-1.774-.32-.115-.734-.26-1.277.28m0 0" stroke-miterlimit="4" id="path1355" fill="none" stroke="#f9f9f9" stroke-width=".579" stroke-linecap="round" stroke-linejoin="round" stroke-opacity="1"/><path d="M21.987 28.454c-.106-.625.227-1.356.586-2.217.538-1.292 1.785-2.589.79-6.69-.743-3.06-5.72-.637-5.733-.218 0 .423.226 2.098-.086 4.074-.401 2.561 1.833 4.73 4.405 4.51" stroke-miterlimit="4" id="path1357" fill="none" stroke="#f9f9f9" stroke-width=".579" stroke-linecap="round" stroke-linejoin="round" stroke-opacity="1"/><path d="M20.8 19.258c-.034.142.277.517.692.569.41.051.752-.25.782-.388.025-.142-.287-.296-.697-.347-.41-.052-.756.023-.777.166m0 0" stroke-miterlimit="4" id="path1359" fill="#fff" fill-opacity="1" fill-rule="nonzero" stroke="#f9f9f9" stroke-width=".579" stroke-linecap="butt" stroke-linejoin="miter" stroke-opacity="1"/><path d="M33.227 18.97c.034.141-.282.517-.697.568-.414.04-.747-.257-.781-.387-.026-.142.286-.296.696-.348.41-.051.756.024.778.166m.004 0" stroke-miterlimit="4" id="path1361" fill="#fff" fill-opacity="1" fill-rule="nonzero" stroke="#f9f9f9" stroke-width=".292" stroke-linecap="butt" stroke-linejoin="miter" stroke-opacity="1"/><path d="M34.684 18.001c.055 1.11-.274 1.87-.32 3.05-.056 1.716.918 3.688-.552 5.656" stroke-miterlimit="4" id="path1363" fill="none" stroke="#f9f9f9" stroke-width=".579" stroke-linecap="round" stroke-linejoin="round" stroke-opacity="1"/></g></svg>