<svg xmlns:osb="http://www.openswatchbook.org/uri/2009/osb" xmlns="http://www.w3.org/2000/svg" xmlns:xlink="http://www.w3.org/1999/xlink" width="48" height="48" version="1.1" id="svg38"><defs id="defs22"><linearGradient id="linearGradient4488"><stop id="stop4490" offset="0" stop-color="#000" stop-opacity=".047"/><stop id="stop4492" offset="1" stop-color="#000" stop-opacity="0"/></linearGradient><style id="style4511"/><style id="style4511-26"/><style id="style4511-9"/><style id="style4552"/><style id="style4511-2"/><linearGradient xlink:href="#linearGradient4488" id="linearGradient4540" gradientUnits="userSpaceOnUse" gradientTransform="translate(-62.889 1.994) scale(.3038)" x1="288.112" y1="141.785" x2="287.575" y2="79.008"/><linearGradient osb:paint="solid" id="linearGradient5293"><stop id="stop5295" offset="0" stop-color="#9a89c0" stop-opacity="1"/></linearGradient><linearGradient spreadMethod="reflect" gradientUnits="userSpaceOnUse" y2="83.578" x2="56" y1="288" x1="56" id="linearGradient4216" xlink:href="#linearGradient4210" gradientTransform="matrix(0 -.19922 .19922 0 6.937 59.38)"/><linearGradient id="linearGradient4210"><stop id="stop4212" offset="0" stop-color="#fff" stop-opacity=".972"/><stop offset=".646" id="stop4218" stop-color="#fff" stop-opacity=".916"/><stop id="stop4214" offset="1" stop-color="#fff" stop-opacity="0"/></linearGradient></defs><style id="style4485" type="text/css"/><g id="g810"><path d="M2.75 26.22v1.67c0 9.573 5.583 17.281 17.146 17.281h6.93c15.132 0 17.836-11.322 17.836-17.282v-1.668c0 5.96-2.704 17.282-17.836 17.282h-6.93C8.333 43.503 2.75 35.795 2.75 26.22z" id="path4516" opacity="1" fill="url(#linearGradient4540)" fill-opacity="1" stroke="none" stroke-width="1.1" stroke-linecap="square" stroke-linejoin="bevel" stroke-miterlimit="4" stroke-dasharray="none" stroke-dashoffset="0" stroke-opacity=".078"/><path d="M19.666 2.742h8.65c14.16 0 17.11 11.247 17.11 17.282v7.124c0 5.96-2.754 17.282-18.162 17.282h-7.056C8.435 44.43 2.75 36.722 2.75 27.148v-7.124c0-9.574 5.57-17.282 16.916-17.282z" id="path4518" opacity="1" fill="#333" fill-opacity="1" stroke="#000" stroke-width=".337" stroke-linecap="square" stroke-linejoin="bevel" stroke-miterlimit="4" stroke-dasharray="none" stroke-dashoffset="0" stroke-opacity=".078"/><g transform="matrix(.36957 0 0 .34468 1.064 23.17)" id="g1020"><path style="marker:none" d="M22.077 46.784c.463.52.966.999 1.51 1.44h3.272v-7.97h-4.782zm0-83.03h4.782v-7.968h-3.272c-.544.44-1.047.919-1.51 1.439zm7.97 84.47h4.78v-7.97h-4.78zm0-84.47h4.78v-7.968h-4.78zm7.968 84.47h4.781v-7.97h-4.781zm0-84.47h4.781v-7.968h-4.781zm7.969 84.47h4.78v-7.97h-4.78zm0-84.47h4.78v-7.968h-4.78zm7.968 84.47h4.782v-7.97h-4.782zm0-84.47h4.782v-7.968h-4.782zm7.97 84.47h4.78v-7.97h-4.78zm0-84.47h4.78v-7.968h-4.78zm7.968 84.47h4.781v-7.97H69.89zm0-84.47h4.781v-7.968H69.89zm7.969 84.47h4.78v-7.97h-4.78zm0-84.47h4.78v-7.968h-4.78zm7.968 84.47h4.782v-7.97h-4.782zm0-84.47h4.782v-7.968h-4.782zm7.97 84.47h4.78v-7.97h-4.78zm0-84.47h4.78v-7.968h-4.78zm7.968 84.47h3.271c.545-.441 1.047-.92 1.51-1.44v-6.53h-4.781zm0-84.47h4.781v-6.53c-.463-.52-.965-.998-1.51-1.438h-3.271z" id="path4282" color="#000" display="inline" overflow="visible" visibility="visible" opacity=".4" fill="url(#linearGradient4216)" fill-opacity="1" fill-rule="nonzero" stroke="none" stroke-width=".398" stroke-linecap="butt" stroke-linejoin="miter" stroke-miterlimit="4" stroke-dasharray="none" stroke-dashoffset="0" stroke-opacity="1"/><path id="path4505-6" d="M57.401-25.782l-7.01 14.275V.297a59.81 59.81 0 0 1-3.181 3.436c-3.686 3.686-7.819 6.91-10.583 7.832l-4.657-4.65-14.275 7.01v34.003h51v-63.264c-3.072-6.663-6.449-9.148-11.294-10.446zm-19.436 45.62c.001 0 .005.002.006 0a92.372 92.372 0 0 0-.006 0zm-4.8 2.802h.006c-.546.299-1.101.594-1.656.884.555-.29 1.104-.585 1.65-.884z" style="marker:none" color="#000" display="inline" overflow="visible" visibility="visible" opacity=".05" fill="red" fill-opacity="0" fill-rule="nonzero" stroke="none" stroke-width="7.969"/><g transform="translate(1.11)" id="g918"><g transform="translate(-4.025 11.804)" id="g897" stroke-width="2.233"><path d="M60.57-3.192C55.283 5.35 43.576 8.275 34.423 3.341 25.268-1.59 22.13-12.51 27.416-21.052z" id="path14-6" opacity=".2" fill="#090909" fill-opacity="1"/><path d="M60.57-5.424C55.283 3.118 43.576 6.042 34.423 1.108c-9.155-4.93-12.292-15.85-7.007-24.393z" id="path16" fill="#e9ff4c" fill-opacity="1"/><path d="M42.954-14.913v.558c-.964 4.924.935 10.807 5.83 17.285.056-.013.114-.02.17-.035-2.39-4.56-2-9.645.327-14.402z" id="path18" fill="#2c2c2c"/><path d="M69.5-3.192C74.787 5.35 86.494 8.275 95.647 3.341c9.155-4.93 12.292-15.851 7.007-24.393z" id="path20" opacity=".2" fill="#090909" fill-opacity="1"/><path d="M69.5-5.424c5.287 8.542 16.994 11.466 26.147 6.532 9.155-4.93 12.292-15.85 7.007-24.393z" id="path22" fill="#e9ff4c" fill-opacity="1"/><path d="M87.116-14.913v.558c.964 4.923-.935 10.807-5.83 17.285-.056-.013-.114-.02-.17-.035 2.39-4.56 2-9.645-.327-14.402z" id="path24" fill="#2c2c2c"/></g></g></g></g></svg>