<svg xmlns="http://www.w3.org/2000/svg" xmlns:xlink="http://www.w3.org/1999/xlink" width="48" height="48" version="1.1" id="svg38"><defs id="defs22"><linearGradient id="linearGradient4477"><stop offset="0" id="stop4479" stop-color="#6a19f2" stop-opacity=".89"/><stop offset="1" id="stop4481" stop-color="#9961f6" stop-opacity=".89"/></linearGradient><linearGradient id="linearGradient4488"><stop id="stop4490" offset="0" stop-color="#000" stop-opacity=".047"/><stop id="stop4492" offset="1" stop-color="#000" stop-opacity="0"/></linearGradient><style id="style4511"/><style id="style4511-26"/><style id="style4511-9"/><style id="style4552"/><style id="style4511-2"/><linearGradient xlink:href="#linearGradient4488" id="linearGradient4546" gradientUnits="userSpaceOnUse" gradientTransform="translate(-62.497 1.994) scale(.3038)" x1="288.112" y1="141.785" x2="287.575" y2="79.008"/><linearGradient xlink:href="#linearGradient4477" id="linearGradient4483" x1="24.691" y1="42.139" x2="22.929" y2="2.732" gradientUnits="userSpaceOnUse"/></defs><style id="style4485" type="text/css"/><path d="M3.141 26.22v1.67c0 9.573 5.583 17.281 17.146 17.281h6.93c15.133 0 17.837-11.322 17.837-17.282v-1.668c0 5.96-2.704 17.282-17.837 17.282h-6.93c-11.563 0-17.146-7.708-17.146-17.282z" id="path4528" opacity="1" fill="url(#linearGradient4546)" fill-opacity="1" stroke="none" stroke-width="1.1" stroke-linecap="square" stroke-linejoin="bevel" stroke-miterlimit="4" stroke-dasharray="none" stroke-dashoffset="0" stroke-opacity=".078"/><path d="M19.754 2.742h8.495c13.908 0 16.805 11.247 16.805 17.282v7.124c0 5.96-2.704 17.282-17.837 17.282h-6.93c-11.562 0-17.146-7.708-17.146-17.282v-7.124c0-9.574 5.47-17.282 16.613-17.282z" id="path4530" opacity="1" fill="url(#linearGradient4483)" fill-opacity="1" stroke="#000" stroke-width=".334" stroke-linecap="square" stroke-linejoin="bevel" stroke-miterlimit="4" stroke-dasharray="none" stroke-dashoffset="0" stroke-opacity=".078"/><path d="M24.415 10.724a1.199 1.199 0 0 0-.385.04c-.475.129-1.063.523-1.613 1.085-.673.686-.852.974-2.111 3.382-.188.36-.395.715-.461.79l-.121.134-.82-.052c-1.667-.11-3.258-.104-4.016.017a3.66 3.66 0 0 0-1.076.381 2.364 2.364 0 0 0-.856.898c-.132.266-.134.283-.129.598.004.237.033.432.108.719.165.63.574 1.724.933 2.498.078.167.159.303.18.303.021 0 .261-.097.533-.217.392-.173.494-.233.49-.283-.002-.035-.141-.393-.31-.797-.462-1.108-.727-1.887-.727-2.143 0-.168.116-.372.28-.49.402-.292 1.43-.407 3.06-.342 1.718.069 2.646.08 2.81.035.119-.032.21-.098.395-.287.286-.292.562-.747 1.205-1.986.66-1.27.9-1.658 1.354-2.17.45-.509.942-.854 1.217-.854.3 0 .678.398 1.392 1.47.548.82 1.178 1.906 1.89 3.253l.321.606.496-.26c.273-.143.51-.271.526-.285.042-.04-.53-1.138-1.217-2.34-1.454-2.542-2.441-3.65-3.348-3.703zm6.672 5.298c-.181.01-.185.012-.209.13-.041.2-.108.992-.086 1.015.012.012.357.064.766.115 1.225.153 2.029.315 2.322.467.081.042.157.12.209.217.073.135.08.182.064.441-.036.632-.446 1.449-1.755 3.496-.77 1.204-.863 1.37-.889 1.592-.057.48.128.887 1.049 2.31 1.044 1.615 1.354 2.253 1.486 3.069.028.174.05.427.05.564.001.214-.01.262-.077.329-.077.076-.586.258-.93.332-.103.022-1.133.049-2.58.068-1.325.018-2.52.04-2.654.05l-.242.02-.022.125c-.011.07-.021.33-.021.578v.454l.28.005c.156.003.567.015.915.028 1.91.071 3.71-.006 4.728-.203 1.592-.309 2.044-1.005 1.727-2.662-.191-1.001-.477-1.584-1.772-3.61-.628-.984-.683-1.078-.683-1.187 0-.135.167-.43.877-1.547.888-1.4 1.167-1.905 1.457-2.633.35-.879.362-1.596.039-2.238-.306-.608-.863-.869-2.39-1.123-.86-.143-1.442-.214-1.659-.202zm-15.184 6.866l-.49.783c-1.451 2.332-2.139 3.673-2.424 4.734-.074.28-.092.421-.095.785-.004.397.004.463.074.616.141.307.528.637 1.049.896.952.474 2.17.626 4.058.508.484-.03 1.122-.055 1.42-.055h.543l.541 1.069c1.077 2.126 1.514 2.827 2.184 3.494.38.378.618.527 1.045.654.326.097.76.105 1.013.018.454-.157.807-.466 1.538-1.34.426-.51 1.042-1.314 1.148-1.496l.06-.104-.435-.32c-.24-.177-.454-.332-.477-.346-.026-.016-.134.1-.304.326-.431.573-1.15 1.46-1.41 1.74-.286.308-.49.425-.68.39-.217-.041-.46-.19-.693-.425-.51-.512-.873-1.099-1.93-3.146-.895-1.733-.832-1.69-2.34-1.69-.536 0-1.498.008-2.137.016-1.025.013-1.205.008-1.521-.049-.602-.107-1.142-.303-1.426-.52-.143-.108-.165-.239-.096-.572.167-.803.865-2.172 2.305-4.515.265-.43.482-.795.482-.81 0-.055-.973-.677-1.001-.641z" id="path11779-0-1" fill="#fff" fill-opacity="1" stroke="none" stroke-width=".007" stroke-miterlimit="4" stroke-dasharray="none" stroke-opacity="1"/></svg>