<svg xmlns="http://www.w3.org/2000/svg" xmlns:xlink="http://www.w3.org/1999/xlink" width="48" height="48" version="1.1" id="svg38"><defs id="defs22"><linearGradient id="linearGradient3764-3" x1="1" x2="47" gradientUnits="userSpaceOnUse" gradientTransform="rotate(-90 -6.773 60.871)" y1="0" y2="0" spreadMethod="pad"><stop stop-color="#527fb2" stop-opacity="1" id="stop1285"/><stop offset="1" stop-color="#5f88b8" stop-opacity="1" id="stop1287"/></linearGradient><linearGradient id="linearGradient4488"><stop id="stop4490" offset="0" stop-color="#000" stop-opacity=".047"/><stop id="stop4492" offset="1" stop-color="#000" stop-opacity="0"/></linearGradient><style id="style4511"/><style id="style4511-26"/><style id="style4511-9"/><style id="style4552"/><style id="style4511-2"/><linearGradient gradientTransform="translate(-63.205 2.216) scale(.3038)" xlink:href="#linearGradient4488" id="linearGradient4160" x1="288.112" y1="141.785" x2="287.575" y2="79.008" gradientUnits="userSpaceOnUse"/><clipPath id="clipPath-448465917"/><linearGradient xlink:href="#linearGradient3764-3" id="linearGradient1296" x1="2.266" y1="23.808" x2="44.513" y2="23.808" gradientUnits="userSpaceOnUse"/></defs><style id="style4485" type="text/css"/><path d="M19.046 2.965h8.495c13.908 0 16.805 11.246 16.805 17.282v7.123c0 5.96-2.704 17.282-17.837 17.282h-6.93c-11.562 0-17.146-7.708-17.146-17.282v-7.123c0-9.575 5.47-17.282 16.613-17.282z" id="rect4144" opacity="1" fill="url(#linearGradient1296)" fill-opacity="1" stroke="#000" stroke-width=".334" stroke-linecap="square" stroke-linejoin="bevel" stroke-miterlimit="4" stroke-dasharray="none" stroke-dashoffset="0" stroke-opacity=".078"/><path d="M2.433 26.443v1.668c0 9.575 5.583 17.282 17.146 17.282h6.93c15.133 0 17.837-11.322 17.837-17.282v-1.668c0 5.96-2.704 17.282-17.837 17.282h-6.93c-11.563 0-17.146-7.708-17.146-17.282z" id="path4147" opacity="1" fill="url(#linearGradient4160)" fill-opacity="1" stroke="none" stroke-width="1.1" stroke-linecap="square" stroke-linejoin="bevel" stroke-miterlimit="4" stroke-dasharray="none" stroke-dashoffset="0" stroke-opacity=".078"/><path id="path1205" d="M7.504 32.037l2.439-13.07h5.641c2.439.167 3.657 1.454 3.657 3.712 0 3.872-2.897 6.12-5.487 5.97H11.01l-.613 3.389H7.5m4.118-5.808l.764-4.837h1.981c1.07 0 1.83.482 1.83 1.452-.156 2.741-1.372 3.224-2.745 3.385m-1.83 0" fill="#fff" fill-opacity="1" fill-rule="evenodd" stroke="none" stroke-width="1.157"/><path id="path1207" d="M18.33 28.643l2.439-13.064h2.896l-.609 3.384h2.745c2.439.166 3.354 1.453 3.048 3.067l-1.067 6.613H24.73l1.071-5.97c.152-.804.152-1.291-.92-1.291H22.6l-1.373 7.256H18.33m0 .004" fill="#fff" fill-opacity="1" fill-rule="nonzero" stroke="none" stroke-width="1.157"/><path id="path1209" d="M27.538 32.037l2.443-13.07h5.642c2.438.167 3.656 1.454 3.656 3.712 0 3.872-2.896 6.12-5.49 5.97h-2.746l-.609 3.389m1.222-5.808l.763-4.837H34.4c1.067 0 1.826.482 1.826 1.452-.152 2.741-1.368 3.224-2.745 3.385m-1.825 0" fill="#fff" fill-opacity="1" fill-rule="evenodd" stroke="none" stroke-width="1.157"/></svg>