<svg xmlns:osb="http://www.openswatchbook.org/uri/2009/osb" xmlns="http://www.w3.org/2000/svg" width="48" height="48" version="1.1" id="svg38"><defs id="defs22"><style id="style4511"/><style id="style4511-26"/><style id="style4511-9"/><style id="style4552"/><style id="style4511-2"/><linearGradient osb:paint="solid" id="linearGradient5293"><stop id="stop5295" offset="0" stop-color="#9a89c0" stop-opacity="1"/></linearGradient><clipPath id="clipPath-987731198"/></defs><style id="style4485" type="text/css"/><path id="path4518" d="M19.467 3.174h8.548c13.995 0 16.91 11.247 16.91 17.282v7.123c0 5.96-2.722 17.282-17.948 17.282h-6.974C8.37 44.86 2.75 37.153 2.75 27.579v-7.123c0-9.574 5.505-17.282 16.717-17.282z" opacity="1" fill="#e6e6e6" fill-opacity="1" stroke="#000" stroke-width=".335" stroke-linecap="square" stroke-linejoin="bevel" stroke-miterlimit="4" stroke-dasharray="none" stroke-dashoffset="0" stroke-opacity=".078"/><path id="path1412" d="M13.72 24.825l-6.237 5.51c2.443 5.069 4.394 6.547 6.34 7.964l-.098-13.474m-.005 0" fill="#4587fb" fill-opacity="1" fill-rule="nonzero" stroke="none" stroke-width="1.133"/><path id="path1414" d="M16.99 31.726l22.19.088C35.376 38 30.295 42.977 16.896 39.953m.093-8.227" fill="#0aa960" fill-opacity="1" fill-rule="nonzero" stroke="none" stroke-width="1.133"/><path id="path1416" d="M40.135 29.546l-5.282.175-.098-18.82c4.689 4.427 7.814 9.816 5.38 18.645m0 0" fill="#ffcf4c" fill-opacity="1" fill-rule="nonzero" stroke="none" stroke-width="1.133"/><path id="path1418" d="M32.355 19.48l-.192-10.154c-5.738-3.076-9.747-2.185-13.74-1.4M32.356 19.48" fill="#e24c42" fill-opacity="1" fill-rule="nonzero" stroke="none" stroke-width="1.133"/><path id="path1420" d="M15.55 9.05l6.625 5.688L6.808 27.602c-.237-6.187-.974-12.367 8.741-18.556m0 .005" fill="#9c45a1" fill-opacity="1" fill-rule="nonzero" stroke="none" stroke-width="1.133"/></svg>