<svg xmlns:osb="http://www.openswatchbook.org/uri/2009/osb" xmlns="http://www.w3.org/2000/svg" xmlns:xlink="http://www.w3.org/1999/xlink" width="48" height="48" version="1.1" id="svg38"><defs id="defs22"><linearGradient id="linearGradient4488"><stop id="stop4490" offset="0" stop-color="#000" stop-opacity=".047"/><stop id="stop4492" offset="1" stop-color="#000" stop-opacity="0"/></linearGradient><style id="style4511"/><style id="style4511-26"/><style id="style4511-9"/><style id="style4552"/><style id="style4511-2"/><linearGradient xlink:href="#linearGradient4488" id="linearGradient4540" gradientUnits="userSpaceOnUse" gradientTransform="translate(-62.889 1.994) scale(.3038)" x1="288.112" y1="141.785" x2="287.575" y2="79.008"/><linearGradient osb:paint="solid" id="linearGradient5293"><stop id="stop5295" offset="0" stop-color="#9a89c0" stop-opacity="1"/></linearGradient><linearGradient xlink:href="#linearGradient6563" id="linearGradient4331" gradientUnits="userSpaceOnUse" x1="-1.684" y1="39.902" x2="5.537" y2="44.272" gradientTransform="matrix(2.97424 0 0 2.1872 23.163 181.455)"/><linearGradient id="linearGradient6563"><stop id="stop6565" offset="0" stop-color="#fff" stop-opacity="1"/><stop id="stop6567" offset="1" stop-color="#fff" stop-opacity="0"/></linearGradient></defs><style id="style4485" type="text/css"/><path id="path4516" d="M2.75 26.22v1.67c0 9.573 5.583 17.281 17.146 17.281h6.93c15.132 0 17.836-11.322 17.836-17.282v-1.668c0 5.96-2.704 17.282-17.836 17.282h-6.93C8.333 43.503 2.75 35.795 2.75 26.22z" opacity="1" fill="url(#linearGradient4540)" fill-opacity="1" stroke="none" stroke-width="1.1" stroke-linecap="square" stroke-linejoin="bevel" stroke-miterlimit="4" stroke-dasharray="none" stroke-dashoffset="0" stroke-opacity=".078"/><path id="path4518" d="M19.363 2.742h8.495c13.908 0 16.804 11.247 16.804 17.282v7.124c0 5.96-2.704 17.282-17.836 17.282h-6.93C8.333 44.43 2.75 36.722 2.75 27.148v-7.124c0-9.574 5.47-17.282 16.613-17.282z" opacity="1" fill="#9f558e" fill-opacity="1" stroke="#000" stroke-width=".334" stroke-linecap="square" stroke-linejoin="bevel" stroke-miterlimit="4" stroke-dasharray="none" stroke-dashoffset="0" stroke-opacity=".078"/><g id="g818" transform="matrix(.13565 0 0 .16714 55.66 7.48)"><g transform="translate(-364.627 -909.385) scale(3.77953)" id="g1954" fill-opacity="1" stroke="none"><g transform="translate(-10.048 198.612) scale(2.51984)" id="g3082"><path d="M13.257 24.626c0 1.601-1.43 2.69-2.393 2.69-1.321 0-2.393-1.299-2.393-2.9 0-1.392.735-2.901 2.056-2.901 1.32 0 2.73 1.846 2.73 3.111z" id="path5157" transform="matrix(1.46245 0 0 1.37888 -5.44 -10.806)" fill="#fff"/><ellipse ry="1.295" rx="1.241" cy="24.313" cx="10.17" id="path5162" transform="matrix(1.20863 0 0 1.15862 -1.844 -4.809)" fill="#5c3566"/><ellipse ry="1.295" rx="1.241" cy="24.313" cx="10.17" id="path5164" transform="matrix(.40288 0 0 .3862 6.35 13.97)" fill="#000"/></g><g transform="translate(-10.048 198.612) scale(2.51984)" id="g3077"><path d="M13.257 24.626c0 1.601-1.43 2.69-2.393 2.69-1.321 0-2.393-1.299-2.393-2.9 0-1.392.735-2.901 2.056-2.901 1.32 0 2.73 1.846 2.73 3.111z" id="path5169" transform="matrix(.72637 -.81327 -.68487 -.7668 34.417 50.34)" fill="#fff"/><ellipse ry="1.295" rx="1.241" cy="24.313" cx="10.17" id="path5171" transform="matrix(1.20863 0 0 1.15862 13.156 -4.809)" fill="#5c3566"/><ellipse ry="1.295" rx="1.241" cy="24.313" cx="10.17" id="path5173" transform="matrix(.40288 0 0 .3862 21.35 13.97)" fill="#000"/></g><rect y="268.815" x="30.137" width="15.119" ry="2.52" rx="2.937" id="rect5215" height="5.04" fill="#eeeeec" stroke-width=".156"/><path id="rect5187" d="M20.19 273.327c13.438 7.314 15.25-6.68 17.793-6.68 2.508 0 3.538 14.054 14.965 6.688-2.4 4.259-9.779 10.951-12.89 10.951-3.145 0-15.966-4.668-19.868-10.959z" fill="#f9751a" stroke-width=".156"/><path id="path6561" d="M20.19 273.327c13.438 7.314 15.25-6.68 17.793-6.68 2.508 0 3.538 14.054 14.965 6.688-2.4 4.259-9.779 10.951-12.89 10.951-3.145 0-15.966-4.668-19.868-10.959z" fill="url(#linearGradient4331)" stroke-width=".156"/></g></g></svg>