<svg xmlns="http://www.w3.org/2000/svg" xmlns:xlink="http://www.w3.org/1999/xlink" width="48" height="48" version="1.1" id="svg38"><defs id="defs22"><style id="style4511"/><style id="style4511-26"/><style id="style4511-9"/><style id="style4552"/><style id="style4511-2"/><linearGradient id="linearGradient3820"><stop id="stop3822" offset="0" stop-color="#ff6969" stop-opacity="1"/><stop id="stop3824" offset="1" stop-color="#ff2a2a" stop-opacity="1"/></linearGradient><linearGradient id="linearGradient3836"><stop id="stop3838" offset="0" stop-color="#74acff" stop-opacity="1"/><stop id="stop3840" offset="1" stop-color="#2a7fff" stop-opacity="1"/></linearGradient><linearGradient id="linearGradient3828"><stop id="stop3830" offset="0" stop-color="#26ac26" stop-opacity="1"/><stop id="stop3832" offset="1" stop-color="green" stop-opacity="1"/></linearGradient><linearGradient gradientTransform="matrix(.63169 0 0 .65486 4.314 -148.792)" gradientUnits="userSpaceOnUse" y2="243.215" x2="30.841" y1="235.156" x1="33.297" id="linearGradient2224" xlink:href="#linearGradient3828"/><linearGradient gradientTransform="matrix(.63169 0 0 .65486 4.314 -148.792)" gradientUnits="userSpaceOnUse" y2="240.935" x2="46.277" y1="235.363" x1="47.791" id="linearGradient2232" xlink:href="#linearGradient3836"/><linearGradient gradientTransform="matrix(.63169 0 0 .65486 4.314 -148.792)" gradientUnits="userSpaceOnUse" y2="240.063" x2="17.028" y1="234.789" x1="18.841" id="linearGradient2216" xlink:href="#linearGradient3820"/></defs><style id="style4485" type="text/css"/><path d="M3.408 28.325v-8.588C3.408 5.678 14.59 2.75 20.588 2.75h7.082c5.925 0 17.181 2.734 17.181 18.03v7.006c0 11.689-7.662 17.333-17.18 17.333h-7.082c-9.518 0-17.18-5.53-17.18-16.794z" id="rect4144" opacity="1" fill="#ececec" fill-opacity="1" stroke="#000" stroke-width=".335" stroke-linecap="square" stroke-linejoin="bevel" stroke-miterlimit="4" stroke-dasharray="none" stroke-dashoffset="0" stroke-opacity=".078"/><ellipse cy="11.22" cx="38.968" id="path3806-2" rx="1.779" ry="1.716" fill="#fff" fill-opacity="1" stroke="#616161" stroke-width=".299" stroke-miterlimit="4" stroke-dasharray="none" stroke-opacity="1"/><ellipse cy="11.22" cx="38.968" id="path4088-8" rx="1.486" ry="1.434" opacity=".3" fill="#f55" fill-opacity="1" stroke="#414141" stroke-width=".299" stroke-miterlimit="4" stroke-dasharray="none" stroke-opacity="1"/><ellipse id="path12618" cx="23.707" cy="29.344" rx="10.985" ry="10.838" fill="#555753" fill-opacity="1" stroke="#2e3436" stroke-width=".432" stroke-linecap="round" stroke-linejoin="miter" stroke-miterlimit="4" stroke-dasharray="none" stroke-dashoffset="0" stroke-opacity="1"/><ellipse id="path12620" cx="23.707" cy="29.344" rx="10.327" ry="10.181" opacity=".5" fill="none" stroke="#fff" stroke-width=".446" stroke-linecap="round" stroke-linejoin="miter" stroke-miterlimit="4" stroke-dasharray="none" stroke-dashoffset="0" stroke-opacity="1"/><text xml:space="preserve" style="line-height:0%;text-align:start" x="17.735" y="36.679" id="text14814" transform="scale(1.00569 .99435)" font-style="normal" font-variant="normal" font-weight="700" font-stretch="normal" font-size="11.921" font-family="Bitstream Vera Sans" writing-mode="lr-tb" text-anchor="start" fill="#fff" fill-opacity="1" stroke="none" stroke-width=".993"><tspan style="line-height:1.25" id="tspan14816" x="17.735" y="36.679" font-size="17.654" stroke-width=".993">5</tspan></text><path d="M23.89 18.074l.033 12.087 11.333.033s.374-4.854-3.306-8.522c-3.697-3.686-8.06-3.598-8.06-3.598z" id="path13354" opacity=".7" fill="#eeeeec" fill-opacity=".751" fill-rule="evenodd" stroke="none" stroke-width="1.019"/><path id="path2837" d="M23.676 39.145v2.095" fill="none" stroke="#2e3436" stroke-width=".648" stroke-linecap="round" stroke-linejoin="miter" stroke-miterlimit="4" stroke-dasharray="none" stroke-opacity="1"/><path d="M23.707 17.48v12.871H35.77" id="path13352" fill="none" stroke="#2e3436" stroke-width=".648" stroke-linecap="round" stroke-linejoin="miter" stroke-miterlimit="4" stroke-dasharray="none" stroke-opacity="1"/><path d="M11.958 30.351h2.127" id="path3111" fill="none" stroke="#2e3436" stroke-width=".648" stroke-linecap="round" stroke-linejoin="miter" stroke-miterlimit="4" stroke-dasharray="none" stroke-opacity="1"/><g id="g1185" transform="matrix(1.04443 0 0 .92844 -1.684 .977)" fill-opacity="1" stroke="none" stroke-width=".325"><path id="path1025-6" d="M18.284 2.166c-.958.014-2.64.7-3.41 1.011-.919.353-1.698.68-2.4 1.139l-2.417 9.33h5.094z" fill="url(#linearGradient2216)"/><path id="path1033-2" d="M36.555 4.078a9.604 9.604 0 0 0-.96-.52c-.98-.411-1.804-.807-2.99-1.092l-.884-.195-2.686 11.379h5.072z" fill="url(#linearGradient2232)"/><path id="path1030-9" d="M27.529 1.87l-4.966.033-2.935 11.736h4.995z" fill="url(#linearGradient2224)"/></g></svg>