<svg xmlns:osb="http://www.openswatchbook.org/uri/2009/osb" xmlns="http://www.w3.org/2000/svg" xmlns:xlink="http://www.w3.org/1999/xlink" width="48" height="48" version="1.1" id="svg38"><defs id="defs22"><style id="style4511"/><style id="style4511-26"/><style id="style4511-9"/><linearGradient id="linearGradient4903"><stop offset="0" id="stop3" stop-color="#eef1f2" stop-opacity="1"/><stop offset="1" id="stop5" stop-color="#f9fafb" stop-opacity="1"/></linearGradient><style id="style4552"/><style id="style4511-2"/><linearGradient osb:paint="solid" id="linearGradient5293"><stop id="stop5295" offset="0" stop-color="#9a89c0" stop-opacity="1"/></linearGradient><linearGradient xlink:href="#linearGradient4903" id="linearGradient1457" x1="2.583" y1="23.586" x2="45.404" y2="23.586" gradientUnits="userSpaceOnUse"/></defs><style id="style4485" type="text/css"/><path id="path4518" d="M19.591 2.743h8.611c14.098 0 17.034 11.247 17.034 17.282v7.122c0 5.96-2.74 17.282-18.08 17.282h-7.025c-11.72 0-17.38-7.708-17.38-17.282v-7.122c0-9.574 5.545-17.282 16.84-17.282z" opacity="1" fill="url(#linearGradient1457)" fill-opacity="1" stroke="#000" stroke-width=".336" stroke-linecap="square" stroke-linejoin="bevel" stroke-miterlimit="4" stroke-dasharray="none" stroke-dashoffset="0" stroke-opacity=".078"/><path id="path4" d="M17.897 26.532c.482-.005-3.348 3.086.273 2.169 0 0 9.36-.857 15.49-3.115 0 0 7.005-1.743 3.658-6.19 0 0-6.923-9.358-16.76-12.19 0 0-5.532-2.083-3.308 5.076l2.644 9.621s2.204 7.18 1.512-.685l-1.181-7.872s-.908-3.507 1.894-1.535c0 0 7.218 4.53 8.91 6.783 0 0 3.918 2.992-.608 3.989 0 0-6.095 2.55-12.524 3.95z" fill="#0080f2" fill-opacity="1" stroke-width=".636"/><path id="path1356" d="M15.868 25.018l5.584-.148c.76-6.009-2.439-17.573-2.439-17.573-.484-.691-2.136-.37-2.169.3 0 0-1.008 11.708-.97 17.417m0 0" fill="#0080f2" fill-opacity="1" fill-rule="nonzero" stroke="none" stroke-width="1.283"/><path id="path1358" d="M16.896 32.41l2.98-.152 1.536-6.688-.258-.414.814-.475c-1.369-.464-5.133-.58-6.548.218l.78.422-.25.443.939 6.636m-.005.003" fill="#f95" fill-opacity="1" fill-rule="nonzero" stroke="none" stroke-width="1.283"/><path id="path1360" d="M16.102 40.68c3.988-3.945 7.615-6.749 4.537-8.462-2.48-1.378-7.102 1.358-6.072 3.76.99 2.308 1.53 4.7 1.53 4.7m.006.002" fill="#d04536" fill-opacity="1" fill-rule="nonzero" stroke="none" stroke-width="1.283"/></svg>