<svg xmlns="http://www.w3.org/2000/svg" style="isolation:isolate" width="48" height="48"><defs><linearGradient gradientUnits="userSpaceOnUse" gradientTransform="scale(1.49595 .66847)" y2="67.419" x2="16.645" y1="38.889" x1="16.535" id="a"><stop stop-opacity="0" offset="0%"/><stop stop-opacity=".047" offset="100%"/></linearGradient></defs><path d="M2.751 26.22v1.669c0 9.574 5.65 17.282 17.349 17.282h7.013c15.312 0 18.048-11.323 18.048-17.282V26.22c0 5.96-2.736 17.282-18.048 17.282H20.1c-11.699 0-17.349-7.708-17.349-17.282z" fill="url(#a)"/><path d="M19.561 2.743h8.596c14.073 0 17.004 11.247 17.004 17.282v7.122c0 5.96-2.736 17.282-18.048 17.282h-7.012c-11.7 0-17.35-7.708-17.35-17.282v-7.122c0-9.574 5.535-17.282 16.81-17.282z" vector-effect="non-scaling-stroke" fill="#25b2ee" stroke="#000" stroke-width=".336" stroke-linecap="square" stroke-linejoin="bevel" stroke-opacity=".078"/><path d="M35.338 13.262c-2.379-2.062-5.706-3.254-9.576-3.254-10.086 0-16.944 7.728-16.944 7.728l1.934 3.048s1.069.088.503-1.705c.488-.917 1.446-2.153 3.315-3.577v20.292c-.806.225-1.869.651-1.143 1.37h5.551c.732-.729-.423-1.167-1.124-1.37v-4.788s3.805 1.484 7.911 1.484c3.605 0 6.885-1.064 9.326-2.989 2.44-1.911 4.013-4.768 4.003-8.035a10.75 10.75 0 0 0-3.756-8.204zm-2.944 14.634c-1.687 1.655-4.142 2.701-6.972 2.697-3.157 0-5.817-.607-7.571-1.464V13.903c1.924-1.358 5.05-2.196 7.571-2.19 3.064.003 5.471 1.151 7.099 2.897 1.625 1.756 2.511 4.087 2.52 6.797-.012 2.647-.96 4.821-2.647 6.489z" fill="#fff"/><path d="M29.335 35.121a4.686 4.686 0 1 0 9.372 0 4.686 4.686 0 0 0-9.372 0zM34 30a5 5 0 1 0 0 10 5 5 0 0 0 0-10zm0 9.454a4.455 4.455 0 1 1 .001-8.909A4.455 4.455 0 0 1 34 39.454zm-1.257-6.374v3.841L35.935 35z" fill="#fb7373"/></svg>