<svg xmlns="http://www.w3.org/2000/svg" xmlns:xlink="http://www.w3.org/1999/xlink" width="48" height="48" version="1.1" id="svg38"><defs id="defs22"><linearGradient id="linearGradient4488"><stop id="stop4490" offset="0" stop-color="#000" stop-opacity=".047"/><stop id="stop4492" offset="1" stop-color="#000" stop-opacity="0"/></linearGradient><style id="style4511"/><style id="style4511-26"/><style id="style4511-9"/><linearGradient gradientUnits="userSpaceOnUse" x2="44" y2="24" x1="26.425" y1="37.11" id="a-7"><stop id="stop2-0" stop-color="#2980b9"/><stop id="stop4-9" stop-color="#1d99f3" offset="1"/></linearGradient><style id="style4552"/><style id="style4511-2"/><linearGradient xlink:href="#linearGradient4488" id="linearGradient4477" gradientUnits="userSpaceOnUse" gradientTransform="translate(-62.724 2.216) scale(.3038)" x1="288.112" y1="141.785" x2="287.575" y2="79.008"/><clipPath id="clipPath-934514917"/><linearGradient xlink:href="#a-7" id="linearGradient1262" x1="2.86" y1="23.808" x2="44.882" y2="23.808" gradientUnits="userSpaceOnUse" gradientTransform="rotate(-90 23.87 23.808)"/></defs><style id="style4485" type="text/css"/><path stroke-miterlimit="4" id="path4473" d="M2.915 26.443v1.668c0 9.575 5.583 17.282 17.145 17.282h6.93c15.133 0 17.837-11.322 17.837-17.282v-1.668c0 5.96-2.704 17.282-17.836 17.282h-6.93c-11.563 0-17.146-7.708-17.146-17.282z" opacity="1" fill="url(#linearGradient4477)" fill-opacity="1" stroke="none" stroke-width="1.1" stroke-linecap="square" stroke-linejoin="bevel" stroke-dasharray="none" stroke-dashoffset="0" stroke-opacity=".078"/><path stroke-miterlimit="4" id="path4475" d="M28.214 44.652H19.72c-13.908 0-16.804-11.247-16.804-17.282v-7.123c0-5.96 2.704-17.282 17.836-17.282h6.93c11.563 0 17.146 7.707 17.146 17.282v7.123c0 9.574-5.47 17.282-16.613 17.282z" opacity="1" fill="url(#linearGradient1262)" fill-opacity="1" stroke="#000" stroke-width=".334" stroke-linecap="square" stroke-linejoin="bevel" stroke-dasharray="none" stroke-dashoffset="0" stroke-opacity=".078"/><path id="path384" d="M23.873 10.303c-1.8 0-3.252 1.343-3.252 2.999 0 1.25.99 2.28 2.168 2.73v2.576H17.77c-.215 0-.406.264-.406.475v1.124c0 .215.182.523.406.475h5.018v12.12c0 .389-.835.393-1.228.433-.58 0-.936-.138-1.486-.276a19.263 18.46 0 0 1-3.595-1.375c-.486-.247-.957-.487-1.388-.807-.182-.15-.398-.357-.382-.596.025-.187.127-.377.343-.41.195-.029.373.068.546.13.149.056.254-.11.229-.224a1.898 1.819 0 0 0-.3-.84c-.356-.54-.902-.937-1.466-1.278-.601-.353-1.244-.743-1.63-1.315-.076-.102-.16-.28-.33-.223-.238.068-.37.283-.483.466-.326.568-.487 1.19-.635 1.818a5.365 5.142 0 0 0-.098 1.534c.043.507.08 1.022.3 1.5.145.313.39.565.636.812.157-.154.322-.32.482-.466.207-.196.47-.321.78-.28.415.048.79.283 1.117.502.462.325.889.67 1.36.998.74.524 1.558.905 2.4 1.275.7.3 1.419.596 2.146.844.131.053.271.049.407.094 1.308.495 2.413 1.087 3.32 2.134v.061a.157.15 0 0 1 .038-.036.157.15 0 0 0 .037.036c.01-.032-.008-.068 0-.097.902-1.035 2.015-1.599 3.316-2.098.136-.045.28-.04.41-.094a27.184 26.05 0 0 0 2.147-.844c.838-.37 1.66-.756 2.4-1.275.467-.328.898-.673 1.36-.998.326-.22.702-.458 1.118-.503.304-.036.563.09.775.28.16.151.326.317.482.467.246-.243.495-.499.635-.811.224-.475.262-.99.305-1.501a4.898 4.898 0 0 0-.102-1.534c-.144-.629-.313-1.246-.635-1.818-.114-.183-.25-.398-.483-.466-.169-.058-.253.117-.33.223-.385.568-1.025.958-1.63 1.315-.567.34-1.11.738-1.47 1.278-.168.26-.279.54-.304.84-.021.113.08.283.242.227.16-.061.34-.158.542-.13.22.033.322.228.34.41.024.24-.196.452-.382.597-.432.317-.902.56-1.385.807a19.534 19.534 0 0 1-3.59 1.371c-.564.142-.915.28-1.487.28-.5.082-1.24-.166-1.24-.434v-12.12h5.017c.2 0 .406-.246.406-.474v-1.124a.542.52 0 0 0-.406-.475h-5.018v-2.576c1.195-.45 2.168-1.48 2.168-2.73 0-1.66-1.457-3.003-3.251-3.003m-.069 1.464c.873 0 1.592.633 1.592 1.441 0 .803-.715 1.465-1.592 1.465-.872 0-1.6-.662-1.6-1.465s.723-1.44 1.6-1.44m0 0" fill="#e6e6e6" fill-opacity="1" fill-rule="nonzero" stroke="none" stroke-width="1.061"/></svg>