<svg xmlns="http://www.w3.org/2000/svg" xmlns:xlink="http://www.w3.org/1999/xlink" width="48" height="48" version="1.1" id="svg38"><defs id="defs22"><linearGradient id="a-36753562" y1="543.8" y2="503.8" x2="0" gradientUnits="userSpaceOnUse"><stop stop-color="#a1adb3" id="stop1235"/><stop offset="1" stop-color="#bfc7cb" id="stop1237"/></linearGradient><style id="style4511"/><style id="style4511-26"/><style id="style4511-9"/><style id="style4552"/><style id="style4511-2"/><linearGradient gradientTransform="matrix(1.1598 0 0 -1.15254 -78.683 50.339)" gradientUnits="userSpaceOnUse" x2="0" y2="17" y1="31" id="c-9"><stop id="stop1194" stop-color="#1d1e1e"/><stop id="stop1196" stop-color="#44484c" offset="1"/></linearGradient><linearGradient xlink:href="#a-36753562" id="linearGradient1246" x1="2.654" y1="24.405" x2="45.511" y2="24.405" gradientUnits="userSpaceOnUse"/></defs><style id="style4485" type="text/css"/><path d="M19.677 3.253h8.618c14.108 0 17.047 11.413 17.047 17.537v7.229c0 6.047-2.744 17.537-18.094 17.537h-7.03c-11.73 0-17.394-7.822-17.394-17.537V20.79c0-9.715 5.549-17.537 16.853-17.537z" id="rect4144" opacity="1" fill="url(#linearGradient1246)" fill-opacity="1" stroke="#000" stroke-width=".339" stroke-linecap="square" stroke-linejoin="bevel" stroke-miterlimit="4" stroke-dasharray="none" stroke-dashoffset="0" stroke-opacity=".078"/><g id="g1250" transform="translate(74.93 1.727)" stroke-width="1.156"><ellipse ry="16.136" rx="16.237" id="ellipse1203" transform="scale(1 -1)" cy="-22.678" cx="-50.847" fill="#97a3a8" fill-opacity="1"/><path id="path1205" d="M-50.846 30.743a1.16 1.153 0 0 1-1.16-1.152 1.16 1.153 0 0 1 1.16-1.153 1.16 1.153 0 0 1 1.16 1.153 1.16 1.153 0 0 1-1.16 1.152m-4.904-2.025a1.16 1.153 0 0 1-.836-.338 1.16 1.153 0 0 1 0-1.63 1.16 1.153 0 0 1 1.64 0 1.16 1.153 0 0 1 0 1.63 1.16 1.153 0 0 1-.804.338m9.808 0a1.16 1.153 0 0 1-.804-.338 1.16 1.153 0 0 1 0-1.63 1.16 1.153 0 0 1 1.64 0 1.16 1.153 0 0 1 0 1.63 1.16 1.153 0 0 1-.836.338m-4.904-3.737a2.32 2.305 0 0 1-2.32-2.305 2.32 2.305 0 0 1 2.32-2.305 2.32 2.305 0 0 1 2.32 2.305 2.32 2.305 0 0 1-2.32 2.305m-6.959-1.153a1.16 1.153 0 0 1-1.16-1.152 1.16 1.153 0 0 1 1.16-1.153 1.16 1.153 0 0 1 1.16 1.153 1.16 1.153 0 0 1-1.16 1.152m13.918 0a1.16 1.153 0 0 1-1.16-1.152 1.16 1.153 0 0 1 1.16-1.153 1.16 1.153 0 0 1 1.16 1.153 1.16 1.153 0 0 1-1.16 1.152m-11.897-4.89a1.16 1.153 0 0 1-.802-.337 1.16 1.153 0 0 1 0-1.63 1.16 1.153 0 0 1 1.64 0 1.16 1.153 0 0 1 0 1.63 1.16 1.153 0 0 1-.838.338m9.876 0a1.16 1.153 0 0 1-.838-.338 1.16 1.153 0 0 1 0-1.63 1.16 1.153 0 0 1 1.64 0 1.16 1.153 0 0 1 0 1.63 1.16 1.153 0 0 1-.802.338m-4.938-2.026a1.16 1.153 0 0 1-1.16-1.153 1.16 1.153 0 0 1 1.16-1.152 1.16 1.153 0 0 1 1.16 1.152 1.16 1.153 0 0 1-1.16 1.153" fill="url(#c-9)"/></g></svg>