<svg xmlns:osb="http://www.openswatchbook.org/uri/2009/osb" xmlns="http://www.w3.org/2000/svg" width="48" height="48" version="1.1" id="svg38"><defs id="defs22"><style id="style4511"/><style id="style4511-26"/><style id="style4511-9"/><style id="style4552"/><style id="style4511-2"/><linearGradient osb:paint="solid" id="linearGradient5293"><stop id="stop5295" offset="0" stop-color="#9a89c0" stop-opacity="1"/></linearGradient><radialGradient r="4.384" cy="17.956" cx="13.884" gradientTransform="matrix(.71264 .47197 -.86585 1.30736 19.537 -12.072)" gradientUnits="userSpaceOnUse" id="radialGradient3901"><stop id="stop1262" stop-color="#fff" stop-opacity=".769"/><stop id="stop1264" offset="1" stop-color="#fff" stop-opacity=".675"/></radialGradient></defs><style id="style4485" type="text/css"/><path id="path4518" d="M19.652 2.887h8.643c14.148 0 17.095 11.246 17.095 17.281v7.123c0 5.96-2.751 17.281-18.145 17.281h-7.05c-11.763 0-17.443-7.707-17.443-17.28v-7.124c0-9.573 5.565-17.28 16.9-17.28z" opacity="1" fill="#e6e6e6" fill-opacity="1" stroke="#000" stroke-width=".337" stroke-linecap="square" stroke-linejoin="bevel" stroke-miterlimit="4" stroke-dasharray="none" stroke-dashoffset="0" stroke-opacity=".078"/><g id="g1382" transform="translate(55.203 3.556)" fill-opacity="1" fill-rule="nonzero" stroke="none"><path id="path1292" d="M-32.132 23.175v1.563l-3.906 5.25 1.469 1.188 2.438-3.281v4.28h2v-4.28l2.438 3.28 1.469-1.187-3.906-5.25v-1.563h-2z" fill="#999"/><path id="path1294" d="M-32.382 30.175h2.5v2.375a.624.624 0 0 1-.625.625h-1.25a.624.624 0 0 1-.625-.625v-2.375z" fill="#333" stroke-width="1"/><path id="path1296" d="M-28.608 30.465l2.048-1.434 1.362 1.945a.623.623 0 0 1-.153.87l-1.023.717a.623.623 0 0 1-.871-.154l-1.363-1.945z" fill="#333" stroke-width="1"/><path id="path1298" d="M-33.657 30.465l-2.048-1.434-1.363 1.945a.623.623 0 0 0 .153.87l1.024.717c.284.199.672.13.87-.154l1.364-1.945z" fill="#333" stroke-width="1"/><g transform="matrix(.9711 0 0 .97566 -52.39 -4.076)" id="g1306"><path d="M18.5 11c-1.904.019-4.203 1.45-5.813 3.875-2.146 3.233-2.27 6.988-.219 8.281l9.563 3.344c.096.471.706.983 1.563 1.281.84.292 1.622.262 2-.031l9.219 3.219c.53.141 1.259-.233 1.75-.938.516-.741.591-1.608.188-2L20.22 11.468c-.512-.325-1.084-.475-1.719-.469z" transform="matrix(1.0295 0 0 1.02494 -2.823 .257)" id="path1302" fill="#333"/><path d="M16.736 19.858c-1.838 2.757-4.599 4.141-6.174 3.09-1.576-1.05-1.369-4.137.469-6.894 1.838-2.757 4.605-4.141 6.181-3.09 1.576 1.05 1.363 4.137-.475 6.894z" id="path1304" fill="url(#radialGradient3901)"/></g></g></svg>