<svg xmlns:osb="http://www.openswatchbook.org/uri/2009/osb" xmlns="http://www.w3.org/2000/svg" xmlns:xlink="http://www.w3.org/1999/xlink" width="48" height="48" version="1.1" id="svg38"><defs id="defs22"><linearGradient id="linearGradient4488"><stop id="stop4490" offset="0" stop-color="#000" stop-opacity=".047"/><stop id="stop4492" offset="1" stop-color="#000" stop-opacity="0"/></linearGradient><style id="style4511"/><style id="style4511-26"/><style id="style4511-9"/><style id="style4552"/><style id="style4511-2"/><linearGradient xlink:href="#linearGradient4488" id="linearGradient4540" gradientUnits="userSpaceOnUse" gradientTransform="translate(-62.889 1.994) scale(.3038)" x1="288.112" y1="141.785" x2="287.575" y2="79.008"/><linearGradient osb:paint="solid" id="linearGradient5293"><stop id="stop5295" offset="0" stop-color="#9a89c0" stop-opacity="1"/></linearGradient><clipPath id="clipPath-654281350"/></defs><style id="style4485" type="text/css"/><path id="path4516" d="M2.75 26.22v1.67c0 9.573 5.583 17.281 17.146 17.281h6.93c15.132 0 17.836-11.322 17.836-17.282v-1.668c0 5.96-2.704 17.282-17.836 17.282h-6.93C8.333 43.503 2.75 35.795 2.75 26.22z" opacity="1" fill="url(#linearGradient4540)" fill-opacity="1" stroke="none" stroke-width="1.1" stroke-linecap="square" stroke-linejoin="bevel" stroke-miterlimit="4" stroke-dasharray="none" stroke-dashoffset="0" stroke-opacity=".078"/><path id="path4518" d="M19.666 2.742h8.65c14.16 0 17.11 11.247 17.11 17.282v7.124c0 5.96-2.754 17.282-18.162 17.282h-7.056C8.435 44.43 2.75 36.722 2.75 27.148v-7.124c0-9.574 5.57-17.282 16.916-17.282z" opacity="1" fill="#4d4d4d" fill-opacity="1" stroke="#000" stroke-width=".337" stroke-linecap="square" stroke-linejoin="bevel" stroke-miterlimit="4" stroke-dasharray="none" stroke-dashoffset="0" stroke-opacity=".078"/><path id="path1454" d="M27.808 11.285c-4.477-2.575-4.504 3.354-4.504 3.354l.785 8.945 8.168-3.798s5.145-2.988.668-5.564c-1.383-.794-2.398-.813-3.148-.455-.066-.821-.586-1.689-1.969-2.487m0 .004" fill="#7fcc28" fill-opacity="1" fill-rule="nonzero" stroke="none" stroke-width=".998"/><path id="path1456" d="M24.089 23.585l3.813 8.136s3 5.125 5.582.666c.797-1.378.813-2.389.457-3.136.828-.066 1.699-.584 2.5-1.961 2.582-4.46-3.371-4.487-3.371-4.487l-8.977.782m-.004 0" fill="#fbb909" fill-opacity="1" fill-rule="nonzero" stroke="none" stroke-width=".998"/><path id="path1458" d="M24.089 23.585l-8.172 3.798s-5.141 2.989-.668 5.56c1.383.794 2.402.81 3.148.456.066.824.586 1.692 1.969 2.49 4.477 2.572 4.504-3.358 4.504-3.358l-.781-8.942m0-.004" fill="#00abec" fill-opacity="1" fill-rule="nonzero" stroke="none" stroke-width=".998"/><path id="path1460" d="M24.089 23.585l-3.813-8.14s-3-5.12-5.586-.665c-.797 1.377-.813 2.392-.457 3.135-.824.066-1.695.584-2.496 1.962-2.586 4.46 3.367 4.486 3.367 4.486l8.98-.778m.004 0" fill="#f15119" fill-opacity="1" fill-rule="nonzero" stroke="none" stroke-width=".998"/></svg>