<svg xmlns:osb="http://www.openswatchbook.org/uri/2009/osb" xmlns="http://www.w3.org/2000/svg" xmlns:xlink="http://www.w3.org/1999/xlink" width="48" height="48" version="1.1" id="svg38"><defs id="defs22"><style id="style4511"/><style id="style4511-26"/><style id="style4511-9"/><style id="style4552"/><style id="style4511-2"/><linearGradient osb:paint="solid" id="linearGradient5293"><stop id="stop5295" offset="0" stop-color="#9a89c0" stop-opacity="1"/></linearGradient><linearGradient xlink:href="#linearGradient4208-3" id="linearGradient1307" x1="2.583" y1="23.586" x2="44.83" y2="23.586" gradientUnits="userSpaceOnUse"/><linearGradient gradientTransform="rotate(-90 -.855 44.084)" gradientUnits="userSpaceOnUse" x2="47" x1="1" id="linearGradient4208-3"><stop id="stop1208" stop-color="#07647e" stop-opacity="1"/><stop id="stop1210" offset="1" stop-color="#087290" stop-opacity="1"/></linearGradient></defs><style id="style4485" type="text/css"/><path id="path4518" d="M19.363 2.742h8.495c13.908 0 16.804 11.247 16.804 17.282v7.124c0 5.96-2.704 17.282-17.836 17.282h-6.93C8.333 44.43 2.75 36.722 2.75 27.148v-7.124c0-9.574 5.47-17.282 16.613-17.282z" opacity="1" fill="url(#linearGradient1307)" fill-opacity="1" stroke="#000" stroke-width=".334" stroke-linecap="square" stroke-linejoin="bevel" stroke-miterlimit="4" stroke-dasharray="none" stroke-dashoffset="0" stroke-opacity=".078"/><path d="M35.265 9.772c-6.742 0-15.525 9.736-20.195 19.733-1.349 2.888-2.49 6.01-2.923 7.895l.525-.023c1.959-5.712 4.214-6.174 5.286-6.354 3.831-.644 6.767-1.89 9.598-5.31-3.853 0-6.27-.653-6.27-1.063h6.938a37.024 37.024 0 0 0 2.697-3.188c-3.366 0-6.168-.432-6.168-1.063h6.935c.697-1.044 1.28-2.166 1.762-3.187-3.005 0-5.02-.687-5.02-1.063h5.522c.91-2.268 1.318-4.433 1.31-6.376z" id="path1231" opacity="1" fill="#ecb234" fill-opacity="1" stroke="none" stroke-width="1.057"/></svg>