<svg xmlns:osb="http://www.openswatchbook.org/uri/2009/osb" xmlns="http://www.w3.org/2000/svg" xmlns:xlink="http://www.w3.org/1999/xlink" width="48" height="48" version="1.1" id="svg38"><defs id="defs22"><linearGradient id="linearGradient4488"><stop id="stop4490" offset="0" stop-color="#000" stop-opacity=".047"/><stop id="stop4492" offset="1" stop-color="#000" stop-opacity="0"/></linearGradient><style id="style4511"/><style id="style4511-26"/><style id="style4511-9"/><style id="style4552"/><style id="style4511-2"/><linearGradient xlink:href="#linearGradient4488" id="linearGradient4540" gradientUnits="userSpaceOnUse" gradientTransform="translate(-62.889 1.994) scale(.3038)" x1="288.112" y1="141.785" x2="287.575" y2="79.008"/><linearGradient osb:paint="solid" id="linearGradient5293"><stop id="stop5295" offset="0" stop-color="#9a89c0" stop-opacity="1"/></linearGradient><filter height="1.102" y="-.051" width="1.091" x="-.045" id="filter906" color-interpolation-filters="sRGB"><feGaussianBlur id="feGaussianBlur908" stdDeviation="3.175"/></filter></defs><style id="style4485" type="text/css"/><g id="g1388"><path d="M2.75 26.22v1.67c0 9.573 5.583 17.281 17.146 17.281h6.93c15.132 0 17.836-11.322 17.836-17.282v-1.668c0 5.96-2.704 17.282-17.836 17.282h-6.93C8.333 43.503 2.75 35.795 2.75 26.22z" id="path4516" opacity="1" fill="url(#linearGradient4540)" fill-opacity="1" stroke="none" stroke-width="1.1" stroke-linecap="square" stroke-linejoin="bevel" stroke-miterlimit="4" stroke-dasharray="none" stroke-dashoffset="0" stroke-opacity=".078"/><path d="M19.363 2.742h8.495c13.908 0 16.804 11.247 16.804 17.282v7.124c0 5.96-2.704 17.282-17.836 17.282h-6.93C8.333 44.43 2.75 36.722 2.75 27.148v-7.124c0-9.574 5.47-17.282 16.613-17.282z" id="path4518" opacity="1" fill="#e6e6e6" fill-opacity="1" stroke="#000" stroke-width=".334" stroke-linecap="square" stroke-linejoin="bevel" stroke-miterlimit="4" stroke-dasharray="none" stroke-dashoffset="0" stroke-opacity=".078"/><g transform="matrix(.15974 0 0 .1565 12.35 17.656)" id="g1738"><g id="g880" opacity=".4" fill="#1c1515" fill-opacity="1" filter="url(#filter906)"><g id="g878" fill="#1c1515" fill-opacity="1"><path id="path876" d="M71.21 62.666c-.424-.394-.745-.684-1.058-.984-10.137-9.738-20.263-19.488-30.415-29.21-4.65-4.454-11.787-4.29-16.218.313-4.364 4.534-4.304 11.716.285 16.15a11664.056 11664.056 0 0 0 39.563 38.027c4.403 4.213 11.183 4.17 15.649.01 1.789-1.666 3.533-3.379 5.296-5.073 11.299-10.86 22.592-21.727 33.903-32.574 2.718-2.606 4.141-5.755 3.784-9.504-.454-4.767-2.968-8.198-7.481-9.841-4.499-1.639-8.59-.65-12.062 2.667-5.682 5.426-11.337 10.883-17.003 16.328L71.21 62.665zm-.028-76.471c22.766 0 45.532-.007 68.298.003 7.054.004 13.118 4.555 14.875 11.169.278 1.044.452 2.15.453 3.228.01 17.788.098 35.578-.063 53.365-.163 18.173-5.66 34.627-16.847 48.993-12.448 15.99-28.503 26.52-48.29 31.093C44.177 144.544.776 115.22-9.937 74.18c-1.427-5.471-2.4-11.023-2.448-16.674-.157-18.923-.275-37.845-.267-56.767.004-7.965 7.11-14.534 15.406-14.54 22.809-.015 45.62-.004 68.429-.004z" clip-rule="evenodd" fill="#1c1515" fill-opacity="1" fill-rule="evenodd" stroke-width="1.309"/></g></g><g id="_x37__stroke"><g id="Pocket"><path d="M71.21 62.666c-.424-.394-.745-.684-1.058-.984-10.137-9.738-20.263-19.488-30.415-29.21-4.65-4.454-11.787-4.29-16.218.313-4.364 4.534-4.304 11.716.285 16.15a11664.056 11664.056 0 0 0 39.563 38.027c4.403 4.213 11.183 4.17 15.649.01 1.789-1.666 3.533-3.379 5.296-5.073 11.299-10.86 22.592-21.727 33.903-32.574 2.718-2.606 4.141-5.755 3.784-9.504-.454-4.767-2.968-8.198-7.481-9.841-4.499-1.639-8.59-.65-12.062 2.667-5.682 5.426-11.337 10.883-17.003 16.328L71.21 62.665zm-.028-76.471c22.766 0 45.532-.007 68.298.003 7.054.004 13.118 4.555 14.875 11.169.278 1.044.452 2.15.453 3.228.01 17.788.098 35.578-.063 53.365-.163 18.173-5.66 34.627-16.847 48.993-12.448 15.99-28.503 26.52-48.29 31.093C44.177 144.544.776 115.22-9.937 74.18c-1.427-5.471-2.4-11.023-2.448-16.674-.157-18.923-.275-37.845-.267-56.767.004-7.965 7.11-14.534 15.406-14.54 22.809-.015 45.62-.004 68.429-.004z" id="Pocket_1_" clip-rule="evenodd" fill="#f43b53" fill-rule="evenodd" stroke-width="1.309"/></g></g></g><g transform="matrix(1.02015 0 0 2.19717 -2.255 -2.7)" id="g1372" fill-opacity="1" stroke="none" stroke-width=".615" stroke-miterlimit="4" stroke-dasharray="none" stroke-opacity="1"><path d="M16.262 2.712c-.292.03-.79.102-1.07.143-.305.048-1.217.23-1.655.324-.448.095-1.026.25-1.36.342-.402.111-.848.257-1.236.392-.383.125-.771.273-1.08.403-.345.147-.829.378-1.03.487-.268.144-.715.427-.907.567l8.388.02z" id="path859" opacity="1" fill="#82ecb8"/><path d="M25.282 2.461l-6.1.043a27.2 27.2 0 0 0-2.92.208l.05 2.677h8.985z" id="path864" opacity="1" fill="#4fbab5"/><path d="M34.095 2.675a22.102 22.102 0 0 0-2.749-.187l-6.064-.027.015 2.928h8.985z" id="path869" opacity="1" fill="#ed4154"/><path d="M42.791 5.326c-.259-.196-.59-.382-.868-.541-.286-.159-.685-.313-1.024-.464a21.91 21.91 0 0 0-1.079-.432c-.345-.13-.83-.288-1.244-.391-.431-.108-1.014-.256-1.501-.358-.499-.105-1.053-.182-1.658-.276-.339-.054-.931-.156-1.322-.19l.187 2.715z" id="path874" opacity="1" fill="#fab649"/></g></g></svg>