<svg xmlns="http://www.w3.org/2000/svg" xmlns:xlink="http://www.w3.org/1999/xlink" width="48" height="48" version="1.1" id="svg38"><defs id="defs22"><linearGradient id="linearGradient4488"><stop id="stop4490" offset="0" stop-color="#000" stop-opacity=".047"/><stop id="stop4492" offset="1" stop-color="#000" stop-opacity="0"/></linearGradient><style id="style4511"/><style id="style4511-26"/><style id="style4511-9"/><style id="style4552"/><style id="style4511-2"/><linearGradient gradientTransform="translate(-63.205 2.216) scale(.3038)" xlink:href="#linearGradient4488" id="linearGradient4160" x1="288.112" y1="141.785" x2="287.575" y2="79.008" gradientUnits="userSpaceOnUse"/><clipPath id="clipPath-084551297"/></defs><style id="style4485" type="text/css"/><path d="M2.433 26.443v1.668c0 9.575 5.583 17.282 17.146 17.282h6.93c15.133 0 17.837-11.322 17.837-17.282v-1.668c0 5.96-2.704 17.282-17.837 17.282h-6.93c-11.563 0-17.146-7.708-17.146-17.282z" id="path4147" opacity="1" fill="url(#linearGradient4160)" fill-opacity="1" stroke="none" stroke-width="1.1" stroke-linecap="square" stroke-linejoin="bevel" stroke-miterlimit="4" stroke-dasharray="none" stroke-dashoffset="0" stroke-opacity=".078"/><path d="M19.046 2.965h8.495c13.908 0 16.805 11.246 16.805 17.282v7.123c0 5.96-2.704 17.282-17.837 17.282h-6.93c-11.562 0-17.146-7.708-17.146-17.282v-7.123c0-9.575 5.47-17.282 16.613-17.282z" id="rect4144" opacity="1" fill="#8159f9" fill-opacity="1" stroke="#000" stroke-width=".334" stroke-linecap="square" stroke-linejoin="bevel" stroke-miterlimit="4" stroke-dasharray="none" stroke-dashoffset="0" stroke-opacity=".078"/><path id="path1190" d="M23.163 23.959h.457c.977 0 1.77.793 1.77 1.77v8.457c0 .98-.793 1.773-1.77 1.773h-.457c-.98 0-1.773-.793-1.773-1.773v-8.457c0-.977.793-1.77 1.773-1.77m0 0" fill="#f9f9f9" fill-opacity="1" fill-rule="nonzero" stroke="none"/><path id="path1192" d="M18.45 22.959c2.121-2.121 7.766-2.121 9.883 0l1.41-1.414c-2.824-2.824-9.883-2.824-12.707 0m1.414 1.414" fill="#f9f9f9" fill-opacity="1" fill-rule="nonzero" stroke="none"/><path id="path1194" d="M15.624 20.139l-1.41-1.414c4.234-4.238 14.12-4.238 18.355 0-.473.473 2.563-2.563-1.41 1.414-3.531-3.531-12-3.531-15.531 0m-.004 0" fill="#f9f9f9" fill-opacity="1" fill-rule="nonzero" stroke="none"/><path id="path1196" d="M12.8 17.311l-1.41-1.414c5.648-5.652 18.355-5.652 24 0l-1.41 1.414c-4.941-4.941-16.234-4.941-21.18 0m-.004 0" fill="#f9f9f9" fill-opacity="1" fill-rule="nonzero" stroke="none"/></svg>