<svg xmlns="http://www.w3.org/2000/svg" xmlns:xlink="http://www.w3.org/1999/xlink" width="48" height="48" version="1.1" id="svg38"><defs id="defs22"><linearGradient id="linearGradient4488"><stop id="stop4490" offset="0" stop-color="#000" stop-opacity=".047"/><stop id="stop4492" offset="1" stop-color="#000" stop-opacity="0"/></linearGradient><style id="style4511"/><style id="style4511-26"/><style id="style4511-9"/><style id="style4552"/><style id="style4511-2"/><linearGradient xlink:href="#linearGradient4488" id="linearGradient4546" gradientUnits="userSpaceOnUse" gradientTransform="matrix(.3038 0 0 .30792 -62.497 2.271)" x1="288.112" y1="141.785" x2="287.575" y2="79.008"/></defs><style id="style4485" type="text/css"/><path d="M3.141 26.827v1.69c0 9.705 5.583 17.517 17.146 17.517h6.93c15.133 0 17.837-11.476 17.837-17.516v-1.691c0 6.04-2.704 17.516-17.837 17.516h-6.93c-11.563 0-17.146-7.812-17.146-17.516z" id="path4528" opacity="1" fill="url(#linearGradient4546)" fill-opacity="1" stroke="none" stroke-width="1.107" stroke-linecap="square" stroke-linejoin="bevel" stroke-miterlimit="4" stroke-dasharray="none" stroke-dashoffset="0" stroke-opacity=".078"/><path d="M19.754 3.03h8.495c13.908 0 16.805 11.4 16.805 17.516v7.22c0 6.04-2.704 17.517-17.837 17.517h-6.93c-11.562 0-17.146-7.813-17.146-17.517v-7.22c0-9.704 5.47-17.516 16.613-17.516z" id="path4530" opacity="1" fill="#406f49" fill-opacity="1" stroke="#000" stroke-width=".336" stroke-linecap="square" stroke-linejoin="bevel" stroke-miterlimit="4" stroke-dasharray="none" stroke-dashoffset="0" stroke-opacity=".078"/><g id="g547" transform="matrix(1.00508 0 0 .97554 .226 1.177)"><g transform="matrix(.8918 0 0 .92601 -4.723 -220.005)" id="g1614"><rect ry="15.875" rx="15.875" transform="matrix(0 -1 -1 0 0 0)" height="31.75" width="31.75" y="-47.803" x="-278.896" id="rect977" fill="#c12d25" stroke-width=".567"/><path d="M31.928 247.146c-1.17 0-2.306.134-3.402.372v7.29l-5.156-5.157a15.852 15.852 0 0 0-4.812 4.812l5.158 5.156h-7.291a16.014 16.014 0 0 0-.372 3.402c0 1.17.134 2.305.372 3.402h7.29l-5.157 5.156a15.852 15.852 0 0 0 4.812 4.812l5.156-5.158v7.29c1.096.239 2.232.373 3.402.373s2.305-.134 3.402-.372v-7.291l5.155 5.158a15.852 15.852 0 0 0 4.813-4.812l-5.158-5.156h7.29c.239-1.097.373-2.232.373-3.402s-.134-2.305-.372-3.402H40.14l5.158-5.156a15.852 15.852 0 0 0-4.813-4.812l-5.155 5.158v-7.291a16.014 16.014 0 0 0-3.402-.372z" id="path979" fill="#fff" stroke-width=".567"/><rect ry="13.607" rx="13.607" transform="matrix(0 -1 -1 0 0 0)" height="27.214" width="27.214" y="-45.535" x="-276.628" id="rect981" fill="#ffcb05" stroke-width=".567"/><rect transform="matrix(0 -1 -1 0 0 0)" rx="11.339" ry="11.339" height="22.679" width="22.679" y="-43.267" x="-274.36" id="rect983" fill="#c12d25" stroke-width=".567"/><path d="M24.557 257.918v2.268h2.268v9.071h2.268v-9.07h2.268v-2.269zm7.938 0v11.34h2.268v-4.536h2.267v4.535h2.268v-11.339H37.03v4.536h-2.267v-4.536z" id="path985-3" opacity=".2" stroke-width=".567"/><g transform="translate(13.218 244.878) scale(1.13393)" id="g997" fill="#fffcf7"><path id="rect987" d="M12 11h2v10h-2z"/><path transform="rotate(90)" id="rect989" d="M11-16h2v6h-2z"/><path id="rect991" d="M17 11h2v10h-2z"/><path transform="rotate(90)" id="rect993" d="M15-23h2v6h-2z"/><path id="rect995" d="M21 11h2v10h-2z"/></g></g></g></svg>