<svg xmlns="http://www.w3.org/2000/svg" xmlns:xlink="http://www.w3.org/1999/xlink" width="48" height="48" version="1.1" id="svg38"><defs id="defs22"><style id="style4511"/><style id="style4511-26"/><style id="style4511-9"/><style id="style4552"/><style id="style4511-2"/><linearGradient id="linearGradient10682"><stop id="stop10684" offset="0" stop-color="gray" stop-opacity="1"/><stop id="stop10686" offset="1" stop-color="#606060" stop-opacity="1"/></linearGradient><clipPath id="clipPath-886807824"/><clipPath id="clipPath-897244418"/><radialGradient xlink:href="#linearGradient10682" id="radialGradient1688" cx="24.109" cy="23.808" fx="24.109" fy="23.808" r="21.123" gradientTransform="matrix(1 0 0 .99467 0 .127)" gradientUnits="userSpaceOnUse"/></defs><style id="style4485" type="text/css"/><path d="M19.765 2.965h8.496c13.907 0 16.804 11.246 16.804 17.282v7.123c0 5.96-2.704 17.282-17.837 17.282h-6.93c-11.562 0-17.146-7.766-17.146-17.282v-7.123c0-9.575 5.47-17.282 16.613-17.282z" id="rect4144" opacity="1" fill="url(#radialGradient1688)" fill-opacity="1" stroke="#000" stroke-width=".334" stroke-linecap="square" stroke-linejoin="bevel" stroke-miterlimit="4" stroke-dasharray="none" stroke-dashoffset="0" stroke-opacity=".078"/><path id="path1667" d="M23.094 12.002c-7.106 0-12.182 4.526-12.182 6.887 0 .53.482.983 1.015.984 2.03.001 2.714-.4 3.046-.984 1.095-1.928 2.03-3.528 5.075-3.936-1.015 9.838-5.075 18.693-5.075 19.678 0 .543.454.984 1.015.984 2.03 0 4.06-.984 6.09-7.871 7.106 0 15.227-4.26 15.227-10.823 0-2.924-4.06-4.919-9.136-4.919zm1.015 2.951c6.09 0 8.12.984 8.12 3.936 0 2.951-3.045 4.469-9.135 4.919 0 0 1.015-4.92 1.015-8.855z" fill="#ececec" stroke-width=".999"/></svg>