<svg xmlns="http://www.w3.org/2000/svg" xmlns:xlink="http://www.w3.org/1999/xlink" width="48" height="48" version="1.1" id="svg38"><defs id="defs22"><linearGradient id="linearGradient3764-3" x1="1" x2="47" gradientUnits="userSpaceOnUse" gradientTransform="rotate(-90 -3.957 51.457)"><stop stop-color="#32506e" stop-opacity="1" id="stop1268"/><stop offset="1" stop-color="#38597c" stop-opacity="1" id="stop1270"/></linearGradient><linearGradient id="linearGradient4488"><stop id="stop4490" offset="0" stop-color="#000" stop-opacity=".047"/><stop id="stop4492" offset="1" stop-color="#000" stop-opacity="0"/></linearGradient><style id="style4511"/><style id="style4511-26"/><style id="style4511-9"/><style id="style4552"/><style id="style4511-2"/><linearGradient gradientTransform="matrix(.3082 0 0 .3038 -64.056 2.216)" xlink:href="#linearGradient4488" id="linearGradient4160" x1="288.112" y1="141.785" x2="287.575" y2="79.008" gradientUnits="userSpaceOnUse"/><linearGradient xlink:href="#linearGradient3764-3" id="linearGradient1294" x1="2.367" y1="23.808" x2="45.224" y2="23.808" gradientUnits="userSpaceOnUse"/></defs><style id="style4485" type="text/css"/><path d="M2.535 26.443v1.668c0 9.575 5.664 17.282 17.394 17.282h7.031c15.352 0 18.095-11.322 18.095-17.282v-1.668c0 5.96-2.743 17.282-18.095 17.282h-7.03c-11.73 0-17.395-7.708-17.395-17.282z" id="path4147" opacity="1" fill="url(#linearGradient4160)" fill-opacity="1" stroke="none" stroke-width="1.108" stroke-linecap="square" stroke-linejoin="bevel" stroke-miterlimit="4" stroke-dasharray="none" stroke-dashoffset="0" stroke-opacity=".078"/><path d="M19.389 2.965h8.618c14.11 0 17.048 11.246 17.048 17.282v7.123c0 5.96-2.743 17.282-18.095 17.282h-7.03c-11.73 0-17.395-7.708-17.395-17.282v-7.123c0-9.575 5.55-17.282 16.854-17.282z" id="rect4144" opacity="1" fill="url(#linearGradient1294)" fill-opacity="1" stroke="#000" stroke-width=".337" stroke-linecap="square" stroke-linejoin="bevel" stroke-miterlimit="4" stroke-dasharray="none" stroke-dashoffset="0" stroke-opacity=".078"/><g transform="matrix(.13004 0 0 .12922 2.493 2.471)" id="g1222"><path d="M140.68 49.44v27.763l-87.92 50.898 23.14 17.948v105.07l27.871-14.749 92.43 53.682v-27.763l87.92-49.977-23.14-18.4V88.862l-27.763 13.393-92.54-52.814zm26.534 43.14l66.01 38.3v79.02l-63.44 36.529-66.05-39.62-.072-77.02 63.55-37.22z" id="path1208" fill="#000" fill-opacity=".098"/><path d="M223.97 200.98l-.001-107.97 27.764-13.394v105.05z" id="path1210" fill="#e94346" fill-opacity="1"/><path d="M159.55 237.74l92.18-53.08 23.14 18.402-87.92 49.973z" id="path1212" fill="#a961ad" fill-opacity="1"/><path d="M94.41 118.85l.112 108.27-27.874 14.735v-105.06z" id="path1214" fill="#67ca60" fill-opacity="1"/><path d="M158.86 82.81l-92.21 53.992-23.14-17.954 87.92-50.898" id="path1216" fill="#f4e134" fill-opacity="1"/><path d="M223.97 121.62l-92.54-53.675V40.182L223.97 93z" id="path1218" fill="#f19e45" fill-opacity="1"/><path d="M94.41 197.51l92.54 55.53v27.763l-92.43-53.675z" id="path1220" fill="#759ed1" fill-opacity="1"/></g></svg>