<svg xmlns:osb="http://www.openswatchbook.org/uri/2009/osb" xmlns="http://www.w3.org/2000/svg" xmlns:xlink="http://www.w3.org/1999/xlink" width="48" height="48" version="1.1" id="svg38"><defs id="defs22"><linearGradient gradientUnits="userSpaceOnUse" gradientTransform="matrix(1.12875 0 0 .99841 -42.763 6.835)" x1="23.038" y1="6.13" x2="10.984" y2="25.928" id="linearGradient-2"><stop stop-color="#FFF" offset="0%" id="stop1622"/><stop stop-color="#FFBA7B" offset="100%" id="stop1624"/></linearGradient><style id="style4511"/><style id="style4511-26"/><style id="style4511-9"/><style id="style4552"/><style id="style4511-2"/><linearGradient id="linearGradient-3" y2="100%" x2="50%" y1="0%" x1="50%"><stop id="stop394" offset="0%" stop-color="#000"/><stop id="stop396" offset="100%" stop-color="#B95506"/></linearGradient><linearGradient xlink:href="#linearGradient-3" id="linearGradient471" x1="16.339" y1="13.759" x2="16.339" y2="18.059" gradientUnits="userSpaceOnUse" gradientTransform="matrix(.98759 0 0 1.14113 1.237 6.86)"/><linearGradient xlink:href="#linearGradient-3" id="linearGradient473" x1="28.163" y1="13.616" x2="28.163" y2="17.772" gradientUnits="userSpaceOnUse" gradientTransform="matrix(.98759 0 0 1.14113 1.237 6.86)"/><linearGradient xlink:href="#linearGradient-1-3-62-8" id="linearGradient1365" x1="2.266" y1="23.808" x2="44.513" y2="23.808" gradientUnits="userSpaceOnUse" gradientTransform="matrix(1.00292 0 0 1.0225 .494 .12)"/><linearGradient id="linearGradient-1-3-62-8" y2="46" x2="24" y1="2" x1="24" gradientUnits="userSpaceOnUse" gradientTransform="translate(-48.814 -1)"><stop id="stop1288" offset="0%" stop-color="#D11B58"/><stop id="stop1290" offset="100%" stop-color="#811139"/></linearGradient><style id="style4511-8"/><style id="style4511-26-4"/><style id="style4511-9-8"/><style id="style4552-5"/><style id="style4511-2-5"/><linearGradient id="linearGradient5293" osb:paint="solid"><stop offset="0" id="stop5295" stop-color="#9a89c0" stop-opacity="1"/></linearGradient><linearGradient xlink:href="#linearGradient-2" id="linearGradient1649" gradientUnits="userSpaceOnUse" x1="10.952" y1="24.463" x2="36.952" y2="24.463" gradientTransform="translate(-.177 -.354)"/><linearGradient xlink:href="#linearGradient-2" id="linearGradient1651" gradientUnits="userSpaceOnUse" x1="10.952" y1="24.463" x2="36.952" y2="24.463" gradientTransform="translate(-.177 -.354)"/><linearGradient xlink:href="#linearGradient-2" id="linearGradient1653" gradientUnits="userSpaceOnUse" x1="10.952" y1="24.463" x2="36.952" y2="24.463" gradientTransform="translate(-.177 -.354)"/><linearGradient xlink:href="#linearGradient-2" id="linearGradient1655" gradientUnits="userSpaceOnUse" x1="10.952" y1="24.463" x2="36.952" y2="24.463" gradientTransform="translate(-.177 -.354)"/><linearGradient xlink:href="#linearGradient-2" id="linearGradient1657" gradientUnits="userSpaceOnUse" x1="10.952" y1="24.463" x2="36.952" y2="24.463" gradientTransform="translate(-.177 -.354)"/></defs><style id="style4485" type="text/css"/><path d="M19.596 3.15h8.52c13.948 0 16.853 11.5 16.853 17.671v7.284c0 6.094-2.712 17.67-17.888 17.67h-6.95c-11.597 0-17.197-7.88-17.197-17.67V20.82c0-9.79 5.486-17.67 16.662-17.67z" id="rect4144" opacity="1" fill="url(#linearGradient1365)" fill-opacity="1" stroke="#000" stroke-width=".338" stroke-linecap="square" stroke-linejoin="bevel" stroke-miterlimit="4" stroke-dasharray="none" stroke-dashoffset="0" stroke-opacity=".078"/><style type="text/css" id="style4485-2"/><path id="path622" d="M34.775 21.108a8 8 0 1 1-16-.001 8 8 0 0 1 16 0m0 0" fill="url(#linearGradient1651)" fill-opacity="1" fill-rule="nonzero" stroke="none"/><path id="path624" d="M36.775 29.112c0 2.758-2.238 5-5 5-2.758 0-5-2.242-5-5 0-2.762 2.242-5 5-5 2.762 0 5 2.242 5 5m0 0" fill="url(#linearGradient1653)" fill-opacity="1" fill-rule="nonzero" stroke="none"/><path id="path626" d="M22.775 30.112c0 2.758-2.238 5-5 5-2.758 0-5-2.242-5-5 0-2.762 2.242-5 5-5 2.762 0 5 2.242 5 5m0 0" fill="url(#linearGradient1655)" fill-opacity="1" fill-rule="nonzero" stroke="none"/><path id="path628" d="M19.779 24.112h9.996v9c-3 1.996-7 1.996-9.996 0m0-9" fill="url(#linearGradient1657)" fill-opacity="1" fill-rule="nonzero" stroke="none"/><g id="g1412" stroke="none"><path d="M20.775 23.112c0 2.758-2.238 5-5 5-2.758 0-5-2.242-5-5 0-2.762 2.242-5 5-5 2.762 0 5 2.242 5 5m0 0" id="path620" fill="url(#linearGradient1649)" fill-opacity="1" fill-rule="nonzero"/><g transform="translate(.088 -.53)" id="g792" fill-rule="evenodd" stroke-width="1.062"><path d="M20.347 29.477l-.002.094c0 1.548 1.205 2.804 2.69 2.804 1.485 0 2.69-1.256 2.69-2.804l-.002-.092a.788.788 0 0 0 .001-.048v-.982c0-.36-.253-.654-.566-.654h-4.246c-.313 0-.567.293-.567.654v.982c0 .015 0 .031.002.046z" id="path420" fill="#a71503"/><ellipse id="Oval-5" cx="17.373" cy="25.015" rx="2.123" ry="2.453" fill="url(#linearGradient471)"/><ellipse id="Oval-6" cx="18.081" cy="24.197" rx=".988" ry="1.141" fill="#fff"/><ellipse id="Oval-5-Copy" cx="29.05" cy="24.77" rx="2.052" ry="2.371" fill="url(#linearGradient473)"/><ellipse id="Oval-6-Copy" cx="29.682" cy="24.04" rx=".988" ry="1.141" fill="#fff"/></g></g></svg>