<svg xmlns:osb="http://www.openswatchbook.org/uri/2009/osb" xmlns="http://www.w3.org/2000/svg" xmlns:xlink="http://www.w3.org/1999/xlink" width="48" height="48" version="1.1" id="svg38"><defs id="defs22"><linearGradient id="linearGradient4488"><stop id="stop4490" offset="0" stop-color="#000" stop-opacity=".047"/><stop id="stop4492" offset="1" stop-color="#000" stop-opacity="0"/></linearGradient><style id="style4511"/><style id="style4511-26"/><style id="style4511-9"/><style id="style4552"/><style id="style4511-2"/><linearGradient xlink:href="#linearGradient4488" id="linearGradient4540" gradientUnits="userSpaceOnUse" gradientTransform="matrix(.30673 0 0 .3038 -63.522 1.994)" x1="288.112" y1="141.785" x2="287.575" y2="79.008"/><linearGradient osb:paint="solid" id="linearGradient5293"><stop id="stop5295" offset="0" stop-color="#9a89c0" stop-opacity="1"/></linearGradient><linearGradient id="linearGradient7537"><stop id="stop7539" offset="0" stop-color="#f37e40" stop-opacity="1"/><stop id="stop7541" offset="1" stop-color="#f34f17" stop-opacity="1"/></linearGradient><linearGradient osb:paint="solid" id="linearGradient5251"><stop id="stop5253" offset="0" stop-color="#2f343f" stop-opacity="1"/></linearGradient><linearGradient xlink:href="#linearGradient7537" id="linearGradient1455" x1="2.583" y1="23.739" x2="45.236" y2="23.739" gradientUnits="userSpaceOnUse" gradientTransform="rotate(90 23.91 23.739)"/></defs><style id="style4485" type="text/css"/><path id="path4516" d="M2.75 26.22v1.669c0 9.574 5.638 17.282 17.312 17.282h6.998c15.278 0 18.008-11.323 18.008-17.282V26.22c0 5.96-2.73 17.282-18.008 17.282h-6.998c-11.674 0-17.311-7.708-17.311-17.282z" opacity="1" fill="url(#linearGradient4540)" fill-opacity="1" stroke="none" stroke-width="1.105" stroke-linecap="square" stroke-linejoin="bevel" stroke-miterlimit="4" stroke-dasharray="none" stroke-dashoffset="0" stroke-opacity=".078"/><path id="path4518" d="M44.905 19.354v8.576c0 14.042-11.329 16.967-17.408 16.967h-7.175c-6.003 0-17.407-2.73-17.407-18.009v-6.996c0-11.674 7.763-17.311 17.407-17.311h7.175c9.644 0 17.408 5.522 17.408 16.773z" opacity="1" fill="url(#linearGradient1455)" fill-opacity="1" stroke="#000" stroke-width=".337" stroke-linecap="square" stroke-linejoin="bevel" stroke-miterlimit="4" stroke-dasharray="none" stroke-dashoffset="0" stroke-opacity=".078"/><g id="g1447" transform="matrix(.7271 0 0 .74147 29.687 29.804)"><path transform="translate(-28.008 -34.203)" id="Shape" fill="#f15a24" fill-rule="nonzero" stroke="none" stroke-width="1" d="M8 43H0l4.036-4.152 3.837 3.809z"/><path id="path1290" d="M.237-20.303c1.368 1.446.018 4.865.018 4.865S-1.08-10.605-8.72-4.337l-1.426-1.392 9.699-9.856.187-.252c.258-.418.472-4.494.497-4.466" fill="#999" fill-rule="nonzero" stroke="none" stroke-width="1"/><path id="path1292" d="M.237-20.303c1.368 1.446.018 4.865.018 4.865S-1.08-10.605-8.72-4.337l-1.426-1.392 9.699-9.856.187-.252c.258-.418.472-4.494.497-4.466z" fill="none" fill-rule="evenodd" stroke="#fff" stroke-width=".603" stroke-linecap="round" stroke-linejoin="round"/><path id="path1294" d="M-12.24-7.778L.216-20.338c.632.746.766 1.55.583 2.696-.124.794-1.502 2.38-1.502 2.38l-9.444 9.533" fill="#666" fill-rule="nonzero" stroke="none" stroke-width="1"/><path id="path1296" d="M-12.24-7.778L.216-20.338c.632.746.766 1.55.583 2.696-.124.794-1.502 2.38-1.502 2.38l-9.444 9.533" fill="none" fill-rule="evenodd" stroke="#fff" stroke-width=".5" stroke-linecap="round" stroke-linejoin="round"/><path id="path1298" d="M.237-20.294L-12.241-7.777l.025-.025-.004.002-3.096-3.033c6.456-7.985 10.63-9.474 10.63-9.474s2.717-1.054 4.656-.236c.149.08.213.125.267.25" fill="#ff931e" fill-rule="nonzero" stroke="none" stroke-width="1"/><path id="path1300" d="M.237-20.294L-12.241-7.777l.025-.025-.004.002-3.096-3.033c6.456-7.985 10.63-9.474 10.63-9.474s2.717-1.054 4.656-.236c.149.08.213.125.267.25z" fill="none" fill-rule="evenodd" stroke="#fff" stroke-width=".603" stroke-linecap="round" stroke-linejoin="round"/><path id="path1302" d="M-8.72-4.337C-11.697-1.9-15.507 1.93-20.685 4.6l1.152 4.896-4.882-4.781 12.174-12.494" fill="#999" fill-rule="nonzero" stroke="none" stroke-width="1"/><path id="path1304" d="M-8.72-4.337C-11.697-1.9-15.507 1.93-20.685 4.6l1.152 4.896-4.882-4.781 12.174-12.494" fill="none" fill-rule="evenodd" stroke="#fff" stroke-width=".603" stroke-linecap="round" stroke-linejoin="round"/><path transform="translate(-28.008 -34.203)" id="polygon1306" fill="#f15a24" fill-rule="nonzero" stroke="none" stroke-width="1" d="M15.8 26.407L8.813 27.91l3.896-4.554.067.054z"/><path id="polygon1308" fill="none" fill-rule="evenodd" stroke="#fff" stroke-width=".603" stroke-linecap="round" stroke-linejoin="round" d="M-12.208-7.797l-6.987 1.505 3.895-4.554.068.054h0z"/><path id="path1310" d="M-.954-23.926c-.297 2.662 1.631 5.06 4.309 5.356 2.675.296 5.088-1.623 5.387-4.284.297-2.662-1.634-5.061-4.31-5.357-2.678-.294-5.09 1.622-5.386 4.285" fill="#999" fill-rule="nonzero" stroke="none" stroke-width="1"/><path id="path1312" d="M-.954-23.926c-.297 2.662 1.631 5.06 4.309 5.356 2.675.296 5.088-1.623 5.387-4.284.297-2.662-1.634-5.061-4.31-5.357-2.678-.294-5.09 1.622-5.386 4.285z" fill="none" fill-rule="evenodd" stroke="#fff" stroke-width=".603" stroke-linecap="round" stroke-linejoin="round"/><path id="path1314" d="M8.041-20.71c.9-1.307.853-3.263.673-3.842-.222-.71-.718-1.864-1.583-2.463l-4.573 4.188s3.515 3.755 3.606 3.768c.038.004 1.056-.46 1.877-1.651" fill="#666" fill-rule="nonzero" stroke="none" stroke-width="1"/><path id="path1316" d="M8.041-20.71c.9-1.307.853-3.263.673-3.842-.222-.71-.718-1.864-1.583-2.463l-4.573 4.188s3.515 3.755 3.606 3.768c.038.004 1.056-.46 1.877-1.651zm-.923-3.282s.44 1.074-.118 1.91z" fill="none" fill-rule="evenodd" stroke="#fff" stroke-width=".603" stroke-linecap="round" stroke-linejoin="round"/><g transform="translate(-15.123 -8.016)" id="Group" fill="none" fill-rule="evenodd" stroke="none" stroke-width="1"><path id="polyline1318" fill="#666" fill-rule="nonzero" d="M5.085 2.29l-5.048.892L3.084.035"/><path id="polyline1320" stroke="#fff" stroke-width=".603" stroke-linecap="round" stroke-linejoin="round" d="M5.085 2.29l-5.048.892L3.084.035"/></g><path id="path1323" d="M-15.116-10.77l6.417 6.004" fill="none" fill-rule="evenodd" stroke="#fff" stroke-width=".603" stroke-linecap="round" stroke-linejoin="round"/></g></svg>