<svg xmlns="http://www.w3.org/2000/svg" xmlns:xlink="http://www.w3.org/1999/xlink" width="48" height="48" version="1.1" id="svg38"><defs id="defs22"><linearGradient id="linearGradient4488"><stop id="stop4490" offset="0" stop-color="#000" stop-opacity=".047"/><stop id="stop4492" offset="1" stop-color="#000" stop-opacity="0"/></linearGradient><style id="style4511"/><style id="style4511-26"/><style id="style4511-9"/><style id="style4552"/><style id="style4511-2"/><linearGradient xlink:href="#linearGradient4488" id="linearGradient4471" gradientUnits="userSpaceOnUse" gradientTransform="translate(-62.47 2.216) scale(.3038)" x1="288.112" y1="141.785" x2="287.575" y2="79.008"/><circle id="SVGID_1_" r="15.999" cy="-31.965" cx="73.957"/><linearGradient gradientTransform="rotate(-90 -3.113 51.17)" gradientUnits="userSpaceOnUse" x2="47" x1="1" id="linearGradient3764-36"><stop id="stop700" stop-opacity="1" stop-color="#e4e4e4"/><stop id="stop702" stop-opacity="1" stop-color="#eee" offset="1"/></linearGradient><clipPath id="clipPath-054510414"/><linearGradient xlink:href="#linearGradient3764-36" id="linearGradient1670" x1="3.001" y1="23.808" x2="45.248" y2="23.808" gradientUnits="userSpaceOnUse"/><clipPath id="SVGID_2_"><use id="use25" x="0" y="0" width="1" height="1" xlink:href="#SVGID_1_" overflow="visible"/></clipPath></defs><style id="style4485" type="text/css"/><path stroke-miterlimit="4" d="M3.168 26.443v1.668c0 9.575 5.583 17.282 17.146 17.282h6.93c15.132 0 17.836-11.322 17.836-17.282v-1.668c0 5.96-2.704 17.282-17.836 17.282h-6.93c-11.563 0-17.146-7.708-17.146-17.282z" id="path4467" opacity="1" fill="url(#linearGradient4471)" fill-opacity="1" stroke="none" stroke-width="1.1" stroke-linecap="square" stroke-linejoin="bevel" stroke-dasharray="none" stroke-dashoffset="0" stroke-opacity=".078"/><path stroke-miterlimit="4" d="M19.781 2.965h8.495c13.908 0 16.805 11.246 16.805 17.282v7.123c0 5.96-2.705 17.282-17.837 17.282h-6.93c-11.563 0-17.146-7.708-17.146-17.282v-7.123c0-9.575 5.47-17.282 16.613-17.282z" id="path4469" opacity="1" fill="url(#linearGradient1670)" fill-opacity="1" stroke="#000" stroke-width=".334" stroke-linecap="square" stroke-linejoin="bevel" stroke-dasharray="none" stroke-dashoffset="0" stroke-opacity=".078"/><path id="path755" d="M23.045 10.09l-10.53 5.927 5.09 2.865 5.44-3.055m0-5.739" fill="#3695ba" fill-opacity="1" fill-rule="nonzero" stroke="none" stroke-width="1.058"/><path id="path757" d="M25.228 10.09v5.734l5.436 3.067 5.093-2.865-10.525-5.937m-.004 0" fill="#8eb335" fill-opacity="1" fill-rule="nonzero" stroke="none" stroke-width="1.058"/><path id="path759" d="M11.407 17.872l-.004 11.86 5.088-2.861v-6.135m-5.084-2.865" fill="#363dbe" fill-opacity="1" fill-rule="nonzero" stroke="none" stroke-width="1.058"/><path id="path761" d="M36.845 17.88l-5.089 2.866v6.13l5.085 2.865m.004-11.86" fill="#cf8c3b" fill-opacity="1" fill-rule="nonzero" stroke="none" stroke-width="1.058"/><path id="path763" d="M17.58 28.722l-5.089 2.87 10.525 5.935v-5.734m-5.436-3.071" fill="#b93780" fill-opacity="1" fill-rule="nonzero" stroke="none" stroke-width="1.058"/><path id="path765" d="M30.655 28.73l-5.436 3.056v5.738l10.525-5.927-5.09-2.87m0 .004" fill="#9d2c34" fill-opacity="1" fill-rule="nonzero" stroke="none" stroke-width="1.058"/><path id="path767" d="M30.229 20.37v6.88l-6.107 3.44-6.103-3.443.004-6.881 6.107-3.438m6.099 3.442" fill="#f8c100" fill-opacity="1" fill-rule="nonzero" stroke="none" stroke-width="1.058"/></svg>