<svg xmlns="http://www.w3.org/2000/svg" xmlns:xlink="http://www.w3.org/1999/xlink" width="48" height="48" version="1.1" id="svg38"><defs id="defs22"><linearGradient id="linearGradient3764-3" x1="1" x2="47" gradientUnits="userSpaceOnUse" gradientTransform="rotate(-90 -2.483 48.559)"><stop id="stop1312" stop-color="#e1e1e1" stop-opacity="1"/><stop offset="1" id="stop1314" stop-color="#ebebeb" stop-opacity="1"/></linearGradient><linearGradient id="linearGradient4488"><stop id="stop4490" offset="0" stop-color="#000" stop-opacity=".047"/><stop id="stop4492" offset="1" stop-color="#000" stop-opacity="0"/></linearGradient><style id="style4511"/><style id="style4511-26"/><style id="style4511-9"/><style id="style4552"/><style id="style4511-2"/><linearGradient xlink:href="#linearGradient4488" id="linearGradient4471" gradientUnits="userSpaceOnUse" gradientTransform="matrix(.3038 0 0 .3086 -62.47 2.206)" x1="288.112" y1="141.785" x2="287.575" y2="79.008"/><linearGradient id="linearGradient3768-2"><stop id="stop1174" stop-color="#5587a3" stop-opacity="1"/><stop id="stop1176" offset="1" stop-color="#457d8f" stop-opacity="1"/></linearGradient><linearGradient id="linearGradient3800-7-2"><stop id="stop1179" stop-color="#5ca2b8" stop-opacity="1"/><stop id="stop1181" offset="1" stop-color="#5ca2b8" stop-opacity="1"/></linearGradient><linearGradient y2="-123.51" x2="32.587" y1="-202.21" x1="20.12" gradientUnits="userSpaceOnUse" id="linearGradient3194" xlink:href="#linearGradient3768-2"/><linearGradient x2="461.99" x1="20.12" gradientUnits="userSpaceOnUse" id="linearGradient3203" xlink:href="#linearGradient3768-2"/><linearGradient y2="-368.21" x2="378.81" y1="-224.9" x1="396.35" spreadMethod="pad" gradientTransform="translate(-3.633 -1.818)" gradientUnits="userSpaceOnUse" id="linearGradient3205" xlink:href="#linearGradient3800-7-2"/><linearGradient y2="-242.45" x2="433.41" y1="-143.3" x1="450.11" spreadMethod="pad" gradientTransform="translate(-3.633 -1.818)" gradientUnits="userSpaceOnUse" id="linearGradient3207" xlink:href="#linearGradient3800-7-2"/><linearGradient y2="-202.21" x2="442.5" y1="-113.46" x1="489.51" spreadMethod="pad" gradientTransform="translate(-3.633 -1.818)" gradientUnits="userSpaceOnUse" id="linearGradient3210" xlink:href="#linearGradient3800-7-2"/><linearGradient y2="-267.9" x2="425.42" y1="-139.8" x1="446.69" spreadMethod="pad" gradientTransform="translate(-3.633 -1.818)" gradientUnits="userSpaceOnUse" id="linearGradient3212" xlink:href="#linearGradient3800-7-2"/><linearGradient y2="-202.21" x2="442.5" y1="-51.711" x1="457.97" spreadMethod="pad" gradientUnits="userSpaceOnUse" id="linearGradient3214" xlink:href="#linearGradient3800-7-2"/><linearGradient xlink:href="#linearGradient3768-2" id="linearGradient1274" gradientUnits="userSpaceOnUse" x1="20.12" y1="-202.21" x2="32.587" y2="-123.51"/><linearGradient xlink:href="#linearGradient3768-2" id="linearGradient1276" gradientUnits="userSpaceOnUse" x1="20.12" y1="-202.21" x2="32.587" y2="-123.51"/><linearGradient xlink:href="#linearGradient3768-2" id="linearGradient1278" gradientUnits="userSpaceOnUse" x1="20.12" y1="-202.21" x2="32.587" y2="-123.51"/><linearGradient xlink:href="#linearGradient3764-3" id="linearGradient1323" x1="3.112" y1="24.139" x2="45.136" y2="24.139" gradientUnits="userSpaceOnUse"/></defs><style id="style4485" type="text/css"/><path d="M3.168 26.815v1.695c0 9.725 5.583 17.555 17.146 17.555h6.93c15.132 0 17.836-11.502 17.836-17.555v-1.695c0 6.054-2.704 17.555-17.836 17.555h-6.93c-11.563 0-17.146-7.83-17.146-17.555z" id="path4467" opacity="1" fill="url(#linearGradient4471)" fill-opacity="1" stroke="none" stroke-width="1.109" stroke-linecap="square" stroke-linejoin="bevel" stroke-miterlimit="4" stroke-dasharray="none" stroke-dashoffset="0" stroke-opacity=".078"/><path d="M3.28 28.55v-8.629c0-14.127 11.247-17.07 17.283-17.07h7.123c5.96 0 17.282 2.748 17.282 18.119v7.04c0 11.744-7.708 17.416-17.282 17.416h-7.123c-9.575 0-17.282-5.557-17.282-16.876z" id="path4469" opacity="1" fill="url(#linearGradient1323)" fill-opacity="1" stroke="#000" stroke-width=".337" stroke-linecap="square" stroke-linejoin="bevel" stroke-miterlimit="4" stroke-dasharray="none" stroke-dashoffset="0" stroke-opacity=".078"/><g id="g1309" transform="matrix(1.0313 0 0 1.04694 -.846 -1.742)" fill-opacity="1" stroke="none"><g id="g1219" transform="matrix(.05884 0 0 .05912 10.03 36.675)" fill="url(#linearGradient3203)"><path id="path1211" d="M267.25-422.11l26.594 116.7-56.627 90.997-90.22-57.53-26.594-116.7z" fill="url(#linearGradient1274)"/><path id="path1213" d="M20.12-229.84l116.7-26.594 90.997 56.627-57.53 90.22-116.7 26.594z" fill="url(#linearGradient1276)"/><path id="path1215" d="M213.01 17.687l-26.594-116.7 56.627-90.997 90.22 57.53 26.594 116.7z" fill="url(#linearGradient1278)"/><path id="path1217" d="M461.99-175l-116.7 26.594-90.997-56.627 57.53-90.22 116.7-26.594z" fill="url(#linearGradient3194)"/></g><g id="g1229" transform="matrix(.05884 0 0 .05912 10.243 36.782)" fill="url(#linearGradient3214)"><path id="path1221" d="M252.08-404.43l20.364 89.36-45.26 70.63-71.2-44.08-20.364-89.36z" fill="url(#linearGradient3205)"/><path id="path1223" d="M35.981-220.12l89.36-20.364 70.63 45.26-44.08 71.2-89.36 20.364z" fill="url(#linearGradient3207)"/><path id="path1225" d="M220.91-3.628l-20.364-89.36 45.26-70.63 71.2 44.08 20.364 89.36z" fill="url(#linearGradient3210)"/><path id="path1227" d="M438.86-188.36l-89.36 20.364-70.63-45.26 44.08-71.2 89.36-20.364z" fill="url(#linearGradient3212)"/></g></g></svg>