<svg xmlns="http://www.w3.org/2000/svg" xmlns:xlink="http://www.w3.org/1999/xlink" width="48" height="48" version="1.1" id="svg38"><defs id="defs22"><linearGradient id="linearGradient4488"><stop id="stop4490" offset="0" stop-color="#000" stop-opacity=".047"/><stop id="stop4492" offset="1" stop-color="#000" stop-opacity="0"/></linearGradient><style id="style4511"/><style id="style4511-26"/><style id="style4511-9"/><style id="style4552"/><style id="style4511-2"/><linearGradient xlink:href="#linearGradient4488" id="linearGradient4548" gradientUnits="userSpaceOnUse" gradientTransform="translate(-62.55 1.994) scale(.3038)" x1="288.112" y1="141.785" x2="287.575" y2="79.008"/></defs><style id="style4485" type="text/css"/><path id="path4532" d="M3.088 26.22v1.67c0 9.573 5.583 17.281 17.146 17.281h6.93c15.133 0 17.837-11.322 17.837-17.282v-1.668c0 5.96-2.704 17.282-17.837 17.282h-6.93c-11.563 0-17.146-7.708-17.146-17.282z" opacity="1" fill="url(#linearGradient4548)" fill-opacity="1" stroke="none" stroke-width="1.1" stroke-linecap="square" stroke-linejoin="bevel" stroke-miterlimit="4" stroke-dasharray="none" stroke-dashoffset="0" stroke-opacity=".078"/><path id="path4534" d="M19.701 2.742h8.495c13.908 0 16.805 11.247 16.805 17.282v7.124c0 5.96-2.704 17.282-17.837 17.282h-6.93c-11.562 0-17.146-7.708-17.146-17.282v-7.124c0-9.574 5.47-17.282 16.613-17.282z" opacity="1" fill="#623ccd" fill-opacity="1" stroke="#000" stroke-width=".334" stroke-linecap="square" stroke-linejoin="bevel" stroke-miterlimit="4" stroke-dasharray="none" stroke-dashoffset="0" stroke-opacity=".078"/><path d="M17.659 36.19c-1.193-.163-2.52-.923-3.179-1.82-.594-.81-1.063-1.912-1.107-2.604-.101-1.588.734-3.486 1.996-4.532.302-.251.778-.675 1.057-.942.445-.425.508-.533.508-.867 0-.21-.156-.836-.345-1.39-.412-1.205-.622-2.24-.621-3.052.003-2.258 1.041-4.496 2.957-6.372.91-.892 1.667-1.438 2.697-1.949 1.52-.753 2.519-.974 5.476-1.212.8-.064 1.486-.18 1.98-.338.654-.207.767-.22.837-.096.178.318 1.143 1.415 2.292 2.605 1.73 1.79 2.04 2.295 2.36 3.849.507 2.452-.226 5.036-2.03 7.157-1.185 1.394-2.612 2.35-4.678 3.132-1.595.606-1.767.777-2.79 2.8-1.735 3.431-3.21 5.014-5.101 5.48-.78.19-1.618.246-2.31.152zm1.858-2.625c1.143-.428 2.194-1.484 2.967-2.98.78-1.514 1.23-3.22 1.99-7.54.641-3.649.914-4.642 1.858-6.766 1.066-2.4 1.152-2.844.649-3.36-1.127-1.152-4.573-.705-6.798.884-2.2 1.57-3.365 4.041-3.226 6.847.098 1.965.728 3.208 2.633 5.188l1.137 1.182-.047.484c-.038.398-.112.55-.42.865-.519.532-.993.735-2.254.962-.6.108-1.255.28-1.455.382-.48.244-.71.733-.757 1.597-.032.596-.004.738.237 1.198.654 1.243 1.944 1.634 3.486 1.057zm8.635-7.025c.572-.365 1.702-1.583 2.114-2.276 1.53-2.581 1.363-6.012-.414-8.503-1.432-2.006-2.399-1.994-2.958.034-.539 1.958-1.09 6.075-1.105 8.265-.013 1.799.053 2.005.787 2.47.58.369 1.01.371 1.576.01z" id="path12526-1" fill="#fff" fill-opacity="1" stroke="none" stroke-width=".048" stroke-miterlimit="4" stroke-dasharray="none" stroke-opacity="1"/></svg>