<svg xmlns="http://www.w3.org/2000/svg" xmlns:xlink="http://www.w3.org/1999/xlink" width="48" height="48" version="1.1" id="svg38"><defs id="defs22"><linearGradient id="linearGradient4488"><stop id="stop4490" offset="0" stop-color="#000" stop-opacity=".047"/><stop id="stop4492" offset="1" stop-color="#000" stop-opacity="0"/></linearGradient><style id="style4511"/><style id="style4511-26"/><style id="style4511-9"/><style id="style4552"/><style id="style4511-2"/><linearGradient gradientTransform="translate(-63.205 2.216) scale(.3038)" xlink:href="#linearGradient4488" id="linearGradient4160" x1="288.112" y1="141.785" x2="287.575" y2="79.008" gradientUnits="userSpaceOnUse"/></defs><style id="style4485" type="text/css"/><path d="M2.433 26.443v1.668c0 9.575 5.583 17.282 17.146 17.282h6.93c15.133 0 17.837-11.322 17.837-17.282v-1.668c0 5.96-2.704 17.282-17.837 17.282h-6.93c-11.563 0-17.146-7.708-17.146-17.282z" id="path4147" opacity="1" fill="url(#linearGradient4160)" fill-opacity="1" stroke="none" stroke-width="1.1" stroke-linecap="square" stroke-linejoin="bevel" stroke-miterlimit="4" stroke-dasharray="none" stroke-dashoffset="0" stroke-opacity=".078"/><path d="M19.046 2.965h8.495c13.908 0 16.805 11.246 16.805 17.282v7.123c0 5.96-2.704 17.282-17.837 17.282h-6.93c-11.562 0-17.146-7.708-17.146-17.282v-7.123c0-9.575 5.47-17.282 16.613-17.282z" id="rect4144" opacity="1" fill="#706cf5" fill-opacity="1" stroke="#000" stroke-width=".334" stroke-linecap="square" stroke-linejoin="bevel" stroke-miterlimit="4" stroke-dasharray="none" stroke-dashoffset="0" stroke-opacity=".078"/><path d="M23.137 10.097c-1.49 0-1.756.012-2.024.086a2.56 2.56 0 0 0-1.77 1.66 7.54 7.54 0 0 0-.216.934c-.167.979-.369 1.403-.889 1.87-.714.643-1.639.794-2.797.462a8.945 8.945 0 0 0-.902-.207c-.664-.102-1.317.067-1.78.462-.234.201-1.895 2.613-2.097 3.045-.355.762-.258 1.686.254 2.422.109.157.496.591.861.963.691.704.84.918.998 1.451.13.44.108 1.142-.05 1.68-.275.932-.762 1.632-1.59 2.283l-.184.145.395.64c.217.352.414.639.435.639.084 0 .672-.48 1.014-.826a5.61 5.61 0 0 0 1.088-1.555c.674-1.425.718-2.883.127-4.121-.232-.485-.497-.818-1.211-1.521-.349-.344-.606-.64-.672-.776-.142-.293-.14-.637.004-.88.323-.55 1.623-2.407 1.722-2.462.19-.103.518-.066 1.237.135.655.184.7.189 1.426.188.864-.002 1.125-.056 1.812-.381 1.196-.567 1.996-1.623 2.25-2.975.248-1.315.336-1.514.762-1.709.21-.096.32-.105 1.562-.12 1.957-.026 2.265.043 2.526.58.068.14.202.56.299.933.373 1.437 1.007 2.362 2.1 3.062 1.25.802 2.963.87 4.378.172.673-.332.665-.285.182-.94a24.12 24.12 0 0 1-.448-.616c-.027-.048-.103-.023-.312.103-.386.232-.928.37-1.463.37-.83 0-1.425-.249-2.031-.847-.49-.482-.672-.828-.903-1.716-.212-.819-.328-1.125-.558-1.48-.348-.538-.836-.885-1.504-1.067-.273-.075-.538-.086-2.031-.086zm.218 9.078c-.448.004-.897.046-1.16.121-.498.143-1.116.433-1.492.701-.425.304-.99.916-1.277 1.383a4.631 4.631 0 0 0 .722 5.732c.732.705 1.498 1.095 2.555 1.297.067.013.435.015.82.006.589-.013.772-.036 1.137-.144 1.348-.4 2.412-1.32 2.983-2.578.516-1.139.528-2.521.033-3.711-.545-1.31-1.723-2.319-3.16-2.707-.262-.071-.712-.104-1.16-.1zm11.657.328l-.246.125c-.886.445-1.714 1.364-2.1 2.334-.235.591-.313 1.075-.285 1.807.026.692.102 1.041.351 1.634.24.57.535.97 1.245 1.688.732.741.842.928.793 1.346-.016.131-.064.31-.108.398-.237.472-1.375 2.394-1.514 2.557-.373.439-.729.46-1.697.101-.845-.313-1.116-.366-1.789-.361-1.135.01-2.13.443-2.93 1.277-.554.58-.855 1.157-1.107 2.13-.18.693-.32 1.023-.48 1.128-.078.05-.478.1-1.38.168-1.754.133-1.836.132-2.091-.017-.288-.17-.432-.456-.66-1.32a18.516 18.516 0 0 0-.26-.915c-.515-1.432-1.847-2.447-3.615-2.756-.638-.111-1.636-.07-2.266.092-.54.14-1.257.413-1.287.492-.012.03.135.35.328.71l.35.654.32-.131c1.48-.61 3.166-.363 4.144.61.385.381.532.695.784 1.661.251.967.488 1.462.898 1.873.343.344.844.61 1.277.682.147.024.292.046.325.049.182.017 3.303-.246 3.445-.291.622-.197 1.152-.724 1.41-1.403.053-.139.17-.535.262-.879.201-.757.383-1.113.767-1.501.506-.511 1.098-.753 1.834-.752.38 0 .503.023.922.173.791.284 1.2.397 1.553.432.846.083 1.692-.304 2.223-1.012.337-.45 1.596-2.656 1.744-3.056.166-.449.206-1.137.09-1.543-.152-.53-.386-.867-1.135-1.639-.778-.802-.988-1.129-1.143-1.789a3.073 3.073 0 0 1 .118-1.693 3.02 3.02 0 0 1 1.306-1.516l.23-.127-.314-.709-.312-.71zM23.18 20.866c.88-.056 1.823.318 2.418.985 1.054 1.182.936 3.101-.256 4.152-.318.28-.929.582-1.36.672-1.806.378-3.517-1.023-3.517-2.877 0-.822.265-1.457.86-2.059.443-.45.887-.695 1.484-.822.121-.026.245-.043.37-.05z" id="path11093" fill="#fff" fill-opacity="1" stroke="none" stroke-width="1" stroke-linecap="butt" stroke-linejoin="miter" stroke-opacity="1"/></svg>