<svg xmlns="http://www.w3.org/2000/svg" xmlns:xlink="http://www.w3.org/1999/xlink" width="48" height="48" version="1.1" id="svg38"><defs id="defs22"><linearGradient id="linearGradient4488"><stop id="stop4490" offset="0" stop-color="#000" stop-opacity=".047"/><stop id="stop4492" offset="1" stop-color="#000" stop-opacity="0"/></linearGradient><style id="style4511"/><style id="style4511-26"/><style id="style4511-9"/><style id="style4552"/><style id="style4511-2"/><linearGradient gradientTransform="translate(-63.205 2.216) scale(.3038)" xlink:href="#linearGradient4488" id="linearGradient4160" x1="288.112" y1="141.785" x2="287.575" y2="79.008" gradientUnits="userSpaceOnUse"/></defs><style id="style4485" type="text/css"/><path d="M2.433 26.443v1.668c0 9.575 5.583 17.282 17.146 17.282h6.93c15.133 0 17.837-11.322 17.837-17.282v-1.668c0 5.96-2.704 17.282-17.837 17.282h-6.93c-11.563 0-17.146-7.708-17.146-17.282z" id="path4147" opacity="1" fill="url(#linearGradient4160)" fill-opacity="1" stroke="none" stroke-width="1.1" stroke-linecap="square" stroke-linejoin="bevel" stroke-miterlimit="4" stroke-dasharray="none" stroke-dashoffset="0" stroke-opacity=".078"/><path d="M19.046 2.965h8.495c13.908 0 16.805 11.246 16.805 17.282v7.123c0 5.96-2.704 17.282-17.837 17.282h-6.93c-11.562 0-17.146-7.708-17.146-17.282v-7.123c0-9.575 5.47-17.282 16.613-17.282z" id="rect4144" opacity="1" fill="#306fd3" fill-opacity="1" stroke="#000" stroke-width=".334" stroke-linecap="square" stroke-linejoin="bevel" stroke-miterlimit="4" stroke-dasharray="none" stroke-dashoffset="0" stroke-opacity=".078"/><path d="M22.916 30.49v-5.52l-3.042 3.042-3.041 3.04-.496-.495-.495-.495 3.451-3.452 3.451-3.451-3.45-3.451-3.45-3.451.476-.48.476-.48 3.009 3.008c1.655 1.655 3.032 3.008 3.06 3.008.028 0 .05-2.183.05-4.852v-4.853h1.676l2.921 2.922 2.922 2.922-2.87 2.87-2.871 2.87 3.122 3.123 3.122 3.123-.265.295c-.146.162-1.57 1.64-3.166 3.285l-2.902 2.99h-1.688V30.49zm3.762 1.44l2.33-2.507-2.31-2.312c-1.272-1.271-2.335-2.312-2.364-2.312-.028 0-.051 2.169-.051 4.819s.014 4.819.032 4.819c.017 0 1.08-1.128 2.363-2.507zm-.242-12.462l2.05-2.05-2.05-2.051c-1.128-1.128-2.073-2.05-2.102-2.05-.028 0-.051 1.845-.051 4.1 0 2.256.023 4.101.051 4.101.029 0 .974-.922 2.102-2.05z" id="path13239" opacity="1" fill="#fff" fill-opacity="1" stroke="#fff" stroke-width=".976" stroke-linecap="round" stroke-linejoin="miter" stroke-miterlimit="4" stroke-dasharray="none" stroke-opacity="1"/></svg>