<svg xmlns="http://www.w3.org/2000/svg" xmlns:xlink="http://www.w3.org/1999/xlink" width="48" height="48" version="1.1" id="svg38"><defs id="defs22"><linearGradient id="linearGradient4488"><stop id="stop4490" offset="0" stop-color="#000" stop-opacity=".047"/><stop id="stop4492" offset="1" stop-color="#000" stop-opacity="0"/></linearGradient><style id="style4511"/><style id="style4511-26"/><style id="style4511-9"/><style id="style4552"/><style id="style4511-2"/><linearGradient gradientTransform="matrix(.3071 0 0 .30202 -63.408 2.469)" xlink:href="#linearGradient4488" id="linearGradient4160" x1="288.112" y1="141.785" x2="287.575" y2="79.008" gradientUnits="userSpaceOnUse"/><clipPath id="clipPath-717834183"/></defs><style id="style4485" type="text/css"/><path d="M2.945 26.554v1.658c0 9.519 5.644 17.181 17.333 17.181h7.006c15.297 0 18.03-11.256 18.03-17.18v-1.66c0 5.925-2.733 17.182-18.03 17.182h-7.006c-11.689 0-17.333-7.663-17.333-17.181z" id="path4147" opacity="1" fill="url(#linearGradient4160)" fill-opacity="1" stroke="none" stroke-width="1.103" stroke-linecap="square" stroke-linejoin="bevel" stroke-miterlimit="4" stroke-dasharray="none" stroke-dashoffset="0" stroke-opacity=".078"/><path d="M19.74 3.213h8.587c14.059 0 16.987 11.181 16.987 17.18v7.082c0 5.925-2.733 17.181-18.03 17.181h-7.006c-11.689 0-17.333-7.662-17.333-17.18v-7.082c0-9.518 5.53-17.181 16.794-17.181z" id="rect4144" opacity="1" fill="#0ebb76" fill-opacity="1" stroke="#000" stroke-width=".335" stroke-linecap="square" stroke-linejoin="bevel" stroke-miterlimit="4" stroke-dasharray="none" stroke-dashoffset="0" stroke-opacity=".078"/><path id="path1500" d="M24.13 11.935v10h-8v-3c0-3 4-7 8-7" fill="#eede4a" fill-opacity="1" fill-rule="nonzero" stroke="none"/><path id="path1502" d="M16.13 22.935v6c0 4 3 7 8 7s8-3 8-7v-6m-16 0" fill="#eaeced" fill-opacity="1" fill-rule="nonzero" stroke="none"/><path id="path1504" d="M16.13 21.935h16v1h-16m0-1" fill="#9cbbc9" fill-opacity="1" fill-rule="nonzero" stroke="none"/><path id="path1506" d="M24.13 11.935v10h8v-3c0-3-4-7-8-7m0 0" fill="#eec74a" fill-opacity="1" fill-rule="nonzero" stroke="none"/><path id="path1508" d="M24.13 18.935c.551 0 1 .672 1 1.5v4c0 .828-.449 1.5-1 1.5-.551 0-1-.672-1-1.5v-4c0-.828.449-1.5 1-1.5m0 0" fill="#315d78" fill-opacity="1" fill-rule="nonzero" stroke="none"/></svg>