<svg xmlns:osb="http://www.openswatchbook.org/uri/2009/osb" xmlns="http://www.w3.org/2000/svg" xmlns:xlink="http://www.w3.org/1999/xlink" width="48" height="48" version="1.1" id="svg38"><defs id="defs22"><linearGradient id="linearGradient4488"><stop id="stop4490" offset="0" stop-color="#000" stop-opacity=".047"/><stop id="stop4492" offset="1" stop-color="#000" stop-opacity="0"/></linearGradient><style id="style4511"/><style id="style4511-26"/><style id="style4511-9"/><style id="style4552"/><style id="style4511-2"/><linearGradient xlink:href="#linearGradient4488" id="linearGradient4540" gradientUnits="userSpaceOnUse" gradientTransform="matrix(.30902 0 0 .3038 -64.017 2.569)" x1="288.112" y1="141.785" x2="287.575" y2="79.008"/><linearGradient osb:paint="solid" id="linearGradient5293"><stop id="stop5295" offset="0" stop-color="#9a89c0" stop-opacity="1"/></linearGradient><linearGradient gradientUnits="userSpaceOnUse" y2="160.631" x2="334.866" y1="140.23" x1="334.866" id="linearGradient930" xlink:href="#linearGradient928"/><linearGradient id="linearGradient928"><stop id="stop924" offset="0" stop-color="gray" stop-opacity="1"/><stop id="stop926" offset="1" stop-color="#999" stop-opacity="1"/></linearGradient><linearGradient id="linearGradient908"><stop id="stop904" offset="0" stop-color="#eab305" stop-opacity="1"/><stop id="stop906" offset="1" stop-color="#ffda64" stop-opacity="1"/></linearGradient><linearGradient xlink:href="#linearGradient908" id="linearGradient1745" x1="3.054" y1="24.161" x2="45.079" y2="24.161" gradientUnits="userSpaceOnUse" gradientTransform="rotate(90 24.066 24.161)"/></defs><style id="style4485" type="text/css"/><path id="path4516" d="M2.75 26.796v1.668c0 9.575 5.68 17.283 17.44 17.283h7.05c15.392 0 18.143-11.323 18.143-17.283v-1.668c0 5.96-2.75 17.282-18.143 17.282h-7.05c-11.76 0-17.44-7.708-17.44-17.282z" opacity="1" fill="url(#linearGradient4540)" fill-opacity="1" stroke="none" stroke-width="1.109" stroke-linecap="square" stroke-linejoin="bevel" stroke-miterlimit="4" stroke-dasharray="none" stroke-dashoffset="0" stroke-opacity=".078"/><path id="path4518" d="M19.649 3.318h8.64c14.148 0 17.094 11.246 17.094 17.282v7.123c0 5.96-2.75 17.282-18.143 17.282h-7.05c-11.76 0-17.44-7.708-17.44-17.282V20.6c0-9.575 5.564-17.282 16.899-17.282z" opacity="1" fill="url(#linearGradient1745)" fill-opacity="1" stroke="#000" stroke-width=".337" stroke-linecap="square" stroke-linejoin="bevel" stroke-miterlimit="4" stroke-dasharray="none" stroke-dashoffset="0" stroke-opacity=".078"/><g id="g1597" transform="translate(84.29 -9.339)" fill="#333"><path id="path1566" d="M-65.25 19.5a3.5 3.5 0 1 0 0 7 3.5 3.5 0 0 0 0-7z"/><path id="path1568" d="M-68.017 27.5c-.565 0-.875.34-1.093.862l-3.5 7.2c-.774 1.745 1.889 2.855 2.584 1.077a49.39 49.39 0 0 1 1.304-3.139v12.6c0 .776.624 1.4 1.4 1.4h.006c.775 0 1.612-.624 1.6-1.4l-.005-6.6h.969l.005 6.6c0 .776.855 1.4 1.63 1.4.776 0 1.4-.624 1.4-1.4l-.005-12.6h-.052l1.564 3.138a1.4 1.4 0 0 0 2.002.703l2.54 1.486c-.018.09-.054.176-.054.273v7.7c0 .388.584.7.972.7s1.063-.317 1-.7v-3.3h1v3.3c0 .388.612.7 1 .7s1.034-.312 1.034-.7v-7l1.8 1.495c.66.687 1.676-.33.99-.99l-2.995-2.6a.7.7 0 0 0-.495-.204h-3.412l-2.678-1.371c0-.196-.04-.39-.12-.569l-3.502-7.197a1.401 1.401 0 0 0-1.29-.862z"/><path id="path1570" d="M-53.25 31.5a2.506 2.506 0 0 0-2.5 2.5c0 1.376 1.124 2.5 2.5 2.5s2.5-1.124 2.5-2.5-1.124-2.5-2.5-2.5z"/></g></svg>