<svg xmlns="http://www.w3.org/2000/svg" xmlns:xlink="http://www.w3.org/1999/xlink" width="48" height="48" version="1.1" id="svg38"><defs id="defs22"><linearGradient id="linearGradient3764-3" x1="1" x2="47" gradientUnits="userSpaceOnUse" gradientTransform="rotate(-90 -2.483 48.559)"><stop id="stop1312" stop-color="#e1e1e1" stop-opacity="1"/><stop offset="1" id="stop1314" stop-color="#ebebeb" stop-opacity="1"/></linearGradient><linearGradient id="linearGradient4488"><stop id="stop4490" offset="0" stop-color="#000" stop-opacity=".047"/><stop id="stop4492" offset="1" stop-color="#000" stop-opacity="0"/></linearGradient><style id="style4511"/><style id="style4511-26"/><style id="style4511-9"/><style id="style4552"/><linearGradient id="b-5" y1="532.8" y2="506.8" x2="0" gradientUnits="userSpaceOnUse"><stop stop-color="#989a9b" id="stop7-629"/><stop offset="1" stop-color="#f6f6f7" id="stop9-12"/></linearGradient><style id="style4511-2"/><linearGradient xlink:href="#linearGradient4488" id="linearGradient4471" gradientUnits="userSpaceOnUse" gradientTransform="matrix(.3038 0 0 .3086 -62.47 2.206)" x1="288.112" y1="141.785" x2="287.575" y2="79.008"/><linearGradient xlink:href="#linearGradient3764-3" id="linearGradient1323" x1="3.112" y1="24.139" x2="45.136" y2="24.139" gradientUnits="userSpaceOnUse"/><linearGradient xlink:href="#b-5" id="linearGradient1368" x1="12.121" y1="23.701" x2="35.249" y2="23.701" gradientUnits="userSpaceOnUse"/></defs><style id="style4485" type="text/css"/><path d="M3.168 26.815v1.695c0 9.725 5.583 17.555 17.146 17.555h6.93c15.132 0 17.836-11.502 17.836-17.555v-1.695c0 6.054-2.704 17.555-17.836 17.555h-6.93c-11.563 0-17.146-7.83-17.146-17.555z" id="path4467" opacity="1" fill="url(#linearGradient4471)" fill-opacity="1" stroke="none" stroke-width="1.109" stroke-linecap="square" stroke-linejoin="bevel" stroke-miterlimit="4" stroke-dasharray="none" stroke-dashoffset="0" stroke-opacity=".078"/><path d="M3.28 28.55v-8.629c0-14.127 11.247-17.07 17.283-17.07h7.123c5.96 0 17.282 2.748 17.282 18.119v7.04c0 11.744-7.708 17.416-17.282 17.416h-7.123c-9.575 0-17.282-5.557-17.282-16.876z" id="path4469" opacity="1" fill="url(#linearGradient1323)" fill-opacity="1" stroke="#000" stroke-width=".337" stroke-linecap="square" stroke-linejoin="bevel" stroke-miterlimit="4" stroke-dasharray="none" stroke-dashoffset="0" stroke-opacity=".078"/><g id="g1374" fill-opacity="1" fill-rule="nonzero" stroke="none"><path d="M13.121 12.141c-.332 0-1 .563-1 1v13c0 .465.328.996 1 1h2.031v1.531l.38 1.47 1.401 1.28 1.496 1.406 1.23.164h1.531l-.039-1.012c0 .45 0 .891.031 1 .121.445.652.996 1.094 1.125.098.027 2.754.035 6.438.031h6.281l.22-.125c.292-.156-1.376 1.512-1.22 1.22l.125-.22V22.292l-.125-.219c-.156-.297 1.512 1.375 1.22 1.22l-.22-.126h-3.938l-3.906-.03-.03-10c0-.392-.064-1-1-1m-8.224 15h3.254v1.5l-.03 1.753h-1.5l-1.724-.254m0-3" id="path1262" fill="url(#linearGradient1368)"/><path d="M15.383 23.68c-.203-.234-.37-.44-.37-.457-.005-.023.187-.113.421-.215.918-.375 1.824-.91 2.891-1.703.25-.188.457-.363.457-.398 0-.03-.063-.113-.14-.188-.27-.25-.958-1.098-1.239-1.535-.277-.426-.71-1.28-.71-1.402 0-.039.226-.059.71-.059h.707l.188.414c.227.5.688 1.207 1.074 1.648.156.176.301.328.324.336.047.02.555-.55.887-.992.516-.684.988-1.855.988-2.46v-.532h-6.449v-.996l1.73.008 2.27-.008v-1h1v1l4 .008v.988h-1.258l-.035.61c-.14 1.226-.895 2.62-2.102 3.874l-.238.246.23.188c.13.102.367.277.54.387.167.113.308.215.308.227 0 .016-.063.105-.137.2-.148.198-.293.573-.293.761 0 .07-.016.13-.03.13-.02 0-.31-.212-.649-.47-.34-.258-.664-.504-.719-.543-.117-.082-.023-.14-.922.543-.34.258-.89.637-1.223.844-.594.367-1.707.965-1.805.965-.023 0-.21-.19-.414-.422m.008.004" id="path1264" fill="#535352"/><path d="M20.93 22.65l-.129-.11.246-.25.25-.246-.074.207a1.461 1.461 0 0 0-.078.36c-.004.171-.039.18-.215.034m0 .004" id="path1266" fill="#53534c"/><path d="M22.121 36.141c-.438-.129-.875-.555-1-1-.03-.109.023-.715.023-1.164v-.82h-2.977l-1.516-1.512-1.512-1.512v-2.977h-1.098l2.602-2.602 2.602 2.602h-1.102v2.996h2.984v-8.02c0-.68.344-1 1-1h13c.63 0 1 .473 1 1v13c0 .484-.44 1-1 1m-8.254-5.996h3.5l.75 2h1l-3-8h-1l-3 8h1m1-2.996l1.531-4 1.47 4m-3 0" id="path1268" fill="#367ff3"/></g></svg>