<svg xmlns="http://www.w3.org/2000/svg" xmlns:xlink="http://www.w3.org/1999/xlink" width="48" height="48" version="1.1" id="svg38"><defs id="defs22"><linearGradient id="linearGradient4488"><stop id="stop4490" offset="0" stop-color="#000" stop-opacity=".047"/><stop id="stop4492" offset="1" stop-color="#000" stop-opacity="0"/></linearGradient><style id="style4511"/><style id="style4511-26"/><style id="style4511-9"/><style id="style4552"/><style id="style4511-2"/><linearGradient gradientTransform="matrix(.3082 0 0 .3038 -64.056 2.216)" xlink:href="#linearGradient4488" id="linearGradient4160" x1="288.112" y1="141.785" x2="287.575" y2="79.008" gradientUnits="userSpaceOnUse"/><linearGradient id="SVGID_1_" gradientUnits="userSpaceOnUse" x1="23.972" y1="3" x2="23.972" y2="45" gradientTransform="translate(-53.057 -2.22)"><stop offset="0" id="stop1163" stop-color="#ffac00"/><stop offset="1" id="stop1165" stop-color="#f78514"/></linearGradient><linearGradient xlink:href="#SVGID_1_" id="linearGradient1218" x1="2.367" y1="23.808" x2="45.224" y2="23.808" gradientUnits="userSpaceOnUse"/></defs><style id="style4485" type="text/css"/><g id="g533"><path id="path4147" d="M2.535 26.443v1.668c0 9.575 5.664 17.282 17.394 17.282h7.031c15.352 0 18.095-11.322 18.095-17.282v-1.668c0 5.96-2.743 17.282-18.095 17.282h-7.03c-11.73 0-17.395-7.708-17.395-17.282z" opacity="1" fill="url(#linearGradient4160)" fill-opacity="1" stroke="none" stroke-width="1.108" stroke-linecap="square" stroke-linejoin="bevel" stroke-miterlimit="4" stroke-dasharray="none" stroke-dashoffset="0" stroke-opacity=".078"/><path id="rect4144" d="M19.389 2.965h8.618c14.11 0 17.048 11.246 17.048 17.282v7.123c0 5.96-2.743 17.282-18.095 17.282h-7.03c-11.73 0-17.395-7.708-17.395-17.282v-7.123c0-9.575 5.55-17.282 16.854-17.282z" opacity="1" fill="url(#linearGradient1218)" fill-opacity="1" stroke="#000" stroke-width=".337" stroke-linecap="square" stroke-linejoin="bevel" stroke-miterlimit="4" stroke-dasharray="none" stroke-dashoffset="0" stroke-opacity=".078"/><ellipse ry="1.842" rx="1.873" cy="17.946" cx="29.455" id="path934" opacity="1" fill="red" fill-opacity="1" stroke="none" stroke-width=".208" stroke-linecap="square" stroke-linejoin="miter" stroke-miterlimit="4" stroke-dasharray="none" stroke-opacity="1"/><ellipse ry="1.906" rx="1.829" cy="21.016" cx="26.467" id="circle938" opacity="1" fill="#005fff" fill-opacity="1" stroke="none" stroke-width=".209" stroke-linecap="square" stroke-linejoin="miter" stroke-miterlimit="4" stroke-dasharray="none" stroke-opacity="1"/><ellipse ry="1.762" rx="1.757" id="circle940" cx="29.433" cy="23.928" opacity="1" fill="#ffbf00" fill-opacity="1" stroke="none" stroke-width=".197" stroke-linecap="square" stroke-linejoin="miter" stroke-miterlimit="4" stroke-dasharray="none" stroke-opacity="1"/><ellipse ry="1.798" rx="1.901" id="circle936" cx="32.532" cy="21.031" opacity="1" fill="#37ff00" fill-opacity="1" stroke="none" stroke-width=".207" stroke-linecap="square" stroke-linejoin="miter" stroke-miterlimit="4" stroke-dasharray="none" stroke-opacity="1"/><path id="rect942" opacity="1" fill="#666" fill-opacity="1" stroke="none" stroke-width=".173" stroke-linecap="square" stroke-linejoin="miter" stroke-miterlimit="4" stroke-dasharray="none" stroke-opacity="1" d="M13.581 16.575h9.591v9.046h-9.591z"/><path id="path1174" d="M35.875 18.467l-.008-.009h-.002c-.728-3-3.213-4.966-6.174-4.966-1.281 0-2.471.293-3.471.966h-4.64c-1-.673-2.191-.966-3.471-.966-2.962 0-5.446 1.966-6.174 4.966h-.002l-.008.007c-.057.227-2.024 9.482-2.024 10.77 0 2.341 1.828 4.231 4.082 4.231 1.21 0 2.287-.563 3.035-1.433l2.793-3.643c.379-.494.963-.933 1.582-.933h5.078c.627 0 1.217.445 1.595.95l2.718 3.623c.748.87 1.823 1.428 3.034 1.428 2.255 0 4.082-1.88 4.082-4.223-.001-1.318-1.97-10.542-2.025-10.768zM22.4 22.458h-2.5v2.5a.5.5 0 0 1-.5.5h-2a.5.5 0 0 1-.5-.5v-2.5h-2.5a.5.5 0 0 1-.5-.5v-2a.5.5 0 0 1 .5-.5h2.5v-2.5a.5.5 0 0 1 .5-.5h2a.5.5 0 0 1 .5.5v2.5h2.5a.5.5 0 0 1 .5.5v2a.5.5 0 0 1-.5.5zm5.5-1a1 1 0 0 1-1 1h-1a1 1 0 0 1-1-1v-1a1 1 0 0 1 1-1h1a1 1 0 0 1 1 1zm6 0a1 1 0 0 1-1 1h-1a1 1 0 0 1-1-1v-1a1 1 0 0 1 1-1h1a1 1 0 0 1 1 1zm-3-3a1 1 0 0 1-1 1h-1a1 1 0 0 1-1-1v-1a1 1 0 0 1 1-1h1a1 1 0 0 1 1 1zm.033 5.928a1 1 0 0 1-1 1h-1a1 1 0 0 1-1-1v-1a1 1 0 0 1 1-1h1a1 1 0 0 1 1 1z" fill="#fff"/></g></svg>