<svg xmlns:osb="http://www.openswatchbook.org/uri/2009/osb" xmlns="http://www.w3.org/2000/svg" xmlns:xlink="http://www.w3.org/1999/xlink" width="48" height="48" version="1.1" id="svg38"><defs id="defs22"><linearGradient id="linearGradient4488"><stop id="stop4490" offset="0" stop-color="#000" stop-opacity=".047"/><stop id="stop4492" offset="1" stop-color="#000" stop-opacity="0"/></linearGradient><style id="style4511"/><style id="style4511-26"/><style id="style4511-9"/><style id="style4552"/><style id="style4511-2"/><linearGradient xlink:href="#linearGradient4488" id="linearGradient4540" gradientUnits="userSpaceOnUse" gradientTransform="rotate(90 54.154 -8.502) scale(.3038)" x1="288.112" y1="141.785" x2="287.575" y2="79.008"/><linearGradient osb:paint="solid" id="linearGradient5293"><stop id="stop5295" offset="0" stop-color="#9a89c0" stop-opacity="1"/></linearGradient><linearGradient xlink:href="#linearGradient3764-36753" id="linearGradient1466" x1="3.049" y1="23.939" x2="45.07" y2="23.939" gradientUnits="userSpaceOnUse"/><linearGradient gradientTransform="rotate(-90 24 24)" gradientUnits="userSpaceOnUse" x2="47" x1="1" id="linearGradient3764-36753"><stop id="stop1303" stop-opacity="1" stop-color="#5e9c34"/><stop id="stop1305" stop-opacity="1" stop-color="#68ac39" offset="1"/></linearGradient><clipPath id="clipPath-769869366"/></defs><style id="style4485" type="text/css"/><path id="path4516" d="M21.425 2.983h-1.669c-9.574 0-17.282 5.583-17.282 17.146v6.93c0 15.132 11.323 17.837 17.282 17.837h1.669c-5.96 0-17.282-2.705-17.282-17.837v-6.93c0-11.563 7.708-17.146 17.282-17.146z" opacity="1" fill="url(#linearGradient4540)" fill-opacity="1" stroke="none" stroke-width="1.1" stroke-linecap="square" stroke-linejoin="bevel" stroke-miterlimit="4" stroke-dasharray="none" stroke-dashoffset="0" stroke-opacity=".078"/><path id="path4518" d="M44.903 19.596v8.495c0 13.908-11.247 16.805-17.282 16.805h-7.123c-5.96 0-17.282-2.705-17.282-17.837v-6.93c0-11.563 7.708-17.146 17.282-17.146h7.123c9.574 0 17.282 5.47 17.282 16.613z" opacity="1" fill="url(#linearGradient1466)" fill-opacity="1" stroke="#000" stroke-width=".334" stroke-linecap="square" stroke-linejoin="bevel" stroke-miterlimit="4" stroke-dasharray="none" stroke-dashoffset="0" stroke-opacity=".078"/><path id="path1348" d="M26.06 8.94h-4v15h4m0-15" fill="#f9f9f9" fill-opacity="1" fill-rule="nonzero" stroke="none"/><path id="path1350" d="M20.06 9.44c-6.359 1.766-11 7.617-11 14.469 0 8.23 6.715 15.03 15 15.03s15-6.801 15-15.03c0-6.852-4.641-12.703-11-14.469v3.875c4.184 1.645 7.25 5.75 7.25 10.594 0 6.313-5.04 11.375-11.25 11.375-6.203 0-11.25-5.063-11.25-11.375 0-4.895 3.01-9.05 7.25-10.656m0-3.813" fill="#f9f9f9" fill-opacity="1" fill-rule="nonzero" stroke="none"/></svg>