<svg height="48" width="48" xmlns="http://www.w3.org/2000/svg" xmlns:xlink="http://www.w3.org/1999/xlink"><linearGradient id="a" gradientUnits="userSpaceOnUse" x1="25.03094675612" x2="24.86807943138" y1="45.06785145782" y2="25.99627061771"><stop offset="0" stop-opacity=".046875"/><stop offset="1" stop-opacity="0"/></linearGradient><linearGradient id="b" gradientUnits="userSpaceOnUse" x1="25.266008" x2="22.641439" y1="45.014923" y2="3.739061"><stop offset="0" stop-color="#42a603"/><stop offset="1" stop-color="#78da06"/></linearGradient><path d="m3.1412274 26.220541v1.668528c0 9.574276 5.58322 17.282199 17.1457296 17.282199h6.93044c15.13236 0 17.83641-11.322632 17.83641-17.282199v-1.668528c0 5.959567-2.70405 17.282198-17.83641 17.282198h-6.93044c-11.5625096 0-17.1457296-7.707923-17.1457296-17.282198z" fill="url(#a)"/><path d="m19.754367 2.7423187h8.49507c13.90774 0 16.80439 11.2468653 16.80439 17.2820843v7.123176c0 5.959564-2.70417 17.282082-17.83653 17.282082h-6.9301c-11.5625096 0-17.1459396-7.707808-17.1459396-17.282082v-7.123176c0-9.574274 5.47018-17.2820843 16.6131096-17.2820843z" style="stroke:#000;stroke-width:.33418;stroke-linecap:square;stroke-linejoin:bevel;stroke-opacity:.078125;fill:url(#b)"/><path d="m23.447439 30.446416v-5.134474l-2.345816-.01347-2.345817-.01347 3.006031-6.83482 3.00603-6.834822.01321 4.931852.01321 4.931852h2.335445c1.847994 0 2.329904.01351 2.308896.06472-.258764.630881-5.949666 13.995579-5.966865 14.012777-.01337.01337-.02432-2.286195-.02432-5.110156z" fill="#fff"/></svg>