<svg xmlns="http://www.w3.org/2000/svg" version="1.1" id="图层_1" x="0" y="0" viewBox="0 0 48 48" xml:space="preserve"><defs id="defs31"><style id="style4511"/><style id="style4511-26"/><style id="style4511-9"/><style id="style4552"/><style id="style4511-2"/></defs><style type="text/css" id="style4485"/><g id="g1946" transform="translate(62.644 4.068)"><g id="g1896" fill="#3e3a39" fill-opacity="1" stroke="#e0e0e0" stroke-width="2.4" stroke-miterlimit="4" stroke-dasharray="none" stroke-opacity="1" stroke-linecap="square" stroke-linejoin="bevel" stroke-dashoffset="0"><path d="M-60.516 22.483v1.668c0 9.575 5.584 17.283 17.146 17.283h6.93c15.133 0 17.837-11.323 17.837-17.283v-1.668c0 5.96-2.704 17.282-17.836 17.282h-6.93c-11.563 0-17.147-7.708-17.147-17.282z" id="path4147" opacity="1"/><path d="M-43.902-.995h8.495c13.907 0 16.804 11.247 16.804 17.282v7.123c0 5.96-2.704 17.282-17.837 17.282h-6.93c-11.562 0-17.146-7.708-17.146-17.282v-7.123c0-9.575 5.47-17.282 16.614-17.282z" id="rect4144" opacity="1"/></g><g transform="translate(-63.661 -4.475)" id="g1936"><path id="path10" d="M24.624 24.788a.937.937 0 0 1-1.324 0l-.091-.091a.937.937 0 0 1 0-1.324l11.398-11.406a.937.937 0 0 1 1.324 0l.091.091a.937.937 0 0 1 0 1.324z" fill="#dcdddd"/><path id="path12" d="M24.552 23.114a.922.922 0 0 1 .368 1.253l-.073.135a.922.922 0 0 1-1.253.368l-8.588-4.662a.922.922 0 0 1-.368-1.253l.073-.135a.922.922 0 0 1 1.253-.368z" fill="#dcdddd"/><path d="M18.277 39.97a.462.462 0 0 1-.602.253l-.071-.029a.462.462 0 0 1-.253-.602l6.318-15.556a.462.462 0 0 1 .602-.253l.071.029a.462.462 0 0 1 .253.602z" id="path14" fill="#e83828"/><circle cx="21.966" cy="24.814" r="1.5" id="circle18" fill="#fff"/></g></g></svg>