<svg xmlns:osb="http://www.openswatchbook.org/uri/2009/osb" xmlns="http://www.w3.org/2000/svg" xmlns:xlink="http://www.w3.org/1999/xlink" width="48" height="48" version="1.1" id="svg38"><defs id="defs22"><linearGradient id="linearGradient4488"><stop id="stop4490" offset="0" stop-color="#000" stop-opacity=".047"/><stop id="stop4492" offset="1" stop-color="#000" stop-opacity="0"/></linearGradient><style id="style4511"/><style id="style4511-26"/><style id="style4511-9"/><style id="style4552"/><style id="style4511-2"/><linearGradient xlink:href="#linearGradient4488" id="linearGradient4540" gradientUnits="userSpaceOnUse" gradientTransform="matrix(.30902 0 0 .3038 -64.017 1.994)" x1="288.112" y1="141.785" x2="287.575" y2="79.008"/><linearGradient osb:paint="solid" id="linearGradient5293"><stop id="stop5295" offset="0" stop-color="#9a89c0" stop-opacity="1"/></linearGradient><style id="style4511-8"/><style id="style4511-26-4"/><style id="style4511-9-8"/><style id="style4552-5"/><style id="style4511-2-5"/><linearGradient gradientTransform="rotate(-90 24 24)" gradientUnits="userSpaceOnUse" x2="47" x1="1" id="linearGradient3764-6-2"><stop id="stop2-7-6-8" stop-opacity="1" stop-color="#d1d1d1"/><stop id="stop4-5-2-4" stop-opacity="1" stop-color="#dbdbdb" offset="1"/></linearGradient><linearGradient xlink:href="#linearGradient3764-6-2" id="linearGradient2137" x1="2.581" y1="24.4" x2="45.552" y2="24.4" gradientUnits="userSpaceOnUse"/></defs><style id="style4485" type="text/css"/><path id="path4516" d="M2.75 26.22v1.67c0 9.573 5.68 17.281 17.44 17.281h7.05c15.392 0 18.143-11.322 18.143-17.282v-1.668c0 5.96-2.75 17.282-18.143 17.282h-7.05c-11.76 0-17.44-7.708-17.44-17.282z" opacity="1" fill="url(#linearGradient4540)" fill-opacity="1" stroke="none" stroke-width="1.109" stroke-linecap="square" stroke-linejoin="bevel" stroke-miterlimit="4" stroke-dasharray="none" stroke-dashoffset="0" stroke-opacity=".078"/><path id="path4518" d="M19.649 3.556h8.64c14.148 0 17.094 11.247 17.094 17.282v7.123c0 5.96-2.75 17.282-18.143 17.282h-7.05c-11.76 0-17.44-7.708-17.44-17.282v-7.123c0-9.574 5.564-17.282 16.899-17.282z" opacity=".99" fill="url(#linearGradient2137)" fill-opacity="1" stroke="#000" stroke-width=".337" stroke-linecap="square" stroke-linejoin="bevel" stroke-miterlimit="4" stroke-dasharray="none" stroke-dashoffset="0" stroke-opacity=".078"/><style type="text/css" id="style4485-1"/><g id="g2165" transform="translate(0 -1.075)"><g transform="matrix(1.21103 0 0 1.36601 62.491 -15.205)" id="g1319" stroke-width=".777"><g transform="translate(-46.395 20.326)" id="g1315" fill="none" fill-rule="evenodd" stroke="none" stroke-width=".777"><path id="path4155" d="M26.889 12.381c-1.35 0-2.445 1.109-2.445 2.476 0 1.368 1.095 2.476 2.445 2.476 1.35 0 2.444-1.108 2.444-2.476 0-1.367-1.094-2.476-2.444-2.476z" fill="#fc0000"/><path id="path4153" d="M22 13.206c-.9 0-1.63.74-1.63 1.651 0 .912.73 1.65 1.63 1.65.9 0 1.63-.738 1.63-1.65 0-.912-.73-1.65-1.63-1.65z" fill="#fc0000"/><path id="path4123" d="M18.74 14.032a.82.82 0 0 0-.814.825.82.82 0 0 0 .815.826.82.82 0 0 0 .815-.826.82.82 0 0 0-.815-.825z" fill="#fc0000"/><path id="path4161" d="M24.03 6.522a2.494 2.494 0 0 0-.896 3.383 2.427 2.427 0 0 0 3.34.906 2.494 2.494 0 0 0 .894-3.382 2.427 2.427 0 0 0-3.339-.907z" fill="#f60"/><path id="path4159" d="M20.203 9.713a1.663 1.663 0 0 0-.597 2.255c.45.79 1.447 1.06 2.226.604a1.663 1.663 0 0 0 .597-2.255 1.618 1.618 0 0 0-2.226-.604z" fill="#f60"/><path id="path4125" d="M17.788 12.079a.831.831 0 0 0-.299 1.127.81.81 0 0 0 1.113.302.831.831 0 0 0 .299-1.127.81.81 0 0 0-1.113-.302z" fill="#f60"/><path id="path4167" d="M18.66 2.897a2.494 2.494 0 0 0 .896 3.382 2.427 2.427 0 0 0 3.339-.906A2.494 2.494 0 0 0 22 1.99a2.427 2.427 0 0 0-3.34.907z" fill="gold"/><path id="path4165" d="M16.922 7.598c-.45.79-.183 1.8.597 2.255a1.618 1.618 0 0 0 2.226-.604c.45-.79.183-1.799-.597-2.255a1.618 1.618 0 0 0-2.226.604z" fill="gold"/><path id="path4127" d="M15.998 10.87a.831.831 0 0 0 .298 1.128.81.81 0 0 0 1.113-.302.831.831 0 0 0-.298-1.128.81.81 0 0 0-1.113.302z" fill="gold"/><path id="path4173" d="M12.222 2.476c0 1.368 1.095 2.476 2.445 2.476 1.35 0 2.444-1.108 2.444-2.476C17.111 1.11 16.017 0 14.667 0c-1.35 0-2.445 1.109-2.445 2.476z" fill="#25cc00"/><path id="path4171" d="M13.037 7.429c0 .911.73 1.65 1.63 1.65.9 0 1.63-.739 1.63-1.65a1.64 1.64 0 0 0-1.63-1.651c-.9 0-1.63.739-1.63 1.65z" fill="#25cc00"/><path id="path4129" d="M13.852 10.73a.82.82 0 0 0 .815.826.82.82 0 0 0 .814-.826.82.82 0 0 0-.814-.825.82.82 0 0 0-.815.825z" fill="#25cc00"/><path id="path4179" d="M6.439 5.373a2.427 2.427 0 0 0 3.339.906 2.494 2.494 0 0 0 .895-3.382 2.427 2.427 0 0 0-3.34-.907 2.494 2.494 0 0 0-.894 3.383z" fill="#099"/><path id="path4177" d="M9.589 9.25a1.617 1.617 0 0 0 2.226.603 1.663 1.663 0 0 0 .596-2.255 1.618 1.618 0 0 0-2.226-.604A1.663 1.663 0 0 0 9.59 9.25z" fill="#099"/><path id="path4131" d="M11.924 11.696a.81.81 0 0 0 1.113.302.831.831 0 0 0 .298-1.128.81.81 0 0 0-1.113-.302.831.831 0 0 0-.298 1.128z" fill="#099"/><path id="path4185" d="M2.86 10.811a2.427 2.427 0 0 0 3.339-.906 2.494 2.494 0 0 0-.895-3.383 2.427 2.427 0 0 0-3.339.907 2.494 2.494 0 0 0 .895 3.382z" fill="#03c"/><path id="path4183" d="M7.501 12.572c.78.456 1.776.186 2.226-.604.45-.79.183-1.799-.596-2.255a1.618 1.618 0 0 0-2.226.604c-.45.79-.183 1.8.596 2.255z" fill="#03c"/><path id="path4133" d="M10.731 13.508a.81.81 0 0 0 1.113-.302.831.831 0 0 0-.298-1.127.81.81 0 0 0-1.113.302.831.831 0 0 0 .298 1.127z" fill="#03c"/><path id="path4191" d="M2.444 17.333c1.35 0 2.445-1.108 2.445-2.476 0-1.367-1.095-2.476-2.445-2.476C1.094 12.381 0 13.49 0 14.857c0 1.368 1.094 2.476 2.444 2.476z" fill="#609"/><path id="path4189" d="M7.333 16.508c.9 0 1.63-.74 1.63-1.65a1.64 1.64 0 0 0-1.63-1.652c-.9 0-1.63.74-1.63 1.651 0 .912.73 1.65 1.63 1.65z" fill="#609"/><path id="path4135" d="M10.593 15.683a.82.82 0 0 0 .814-.826.82.82 0 0 0-.814-.825.82.82 0 0 0-.815.825.82.82 0 0 0 .815.826z" fill="#609"/></g></g><ellipse ry="3.287" rx="3.308" cy="35.102" cx="23.688" id="path2139" fill="#000" fill-opacity=".633" stroke="none" stroke-width="1.327" stroke-miterlimit="4" stroke-dasharray="none" stroke-opacity="1"/></g></svg>