<svg xmlns="http://www.w3.org/2000/svg" xmlns:xlink="http://www.w3.org/1999/xlink" width="48" height="48" version="1.1" id="svg38"><defs id="defs22"><linearGradient id="linearGradient4488"><stop id="stop4490" offset="0" stop-color="#000" stop-opacity=".047"/><stop id="stop4492" offset="1" stop-color="#000" stop-opacity="0"/></linearGradient><style id="style4511"/><style id="style4511-26"/><style id="style4511-9"/><style id="style4552"/><style id="style4511-2"/><linearGradient gradientTransform="translate(-63.205 2.216) scale(.3038)" xlink:href="#linearGradient4488" id="linearGradient4160" x1="288.112" y1="141.785" x2="287.575" y2="79.008" gradientUnits="userSpaceOnUse"/></defs><style id="style4485" type="text/css"/><path d="M2.433 26.443v1.668c0 9.575 5.583 17.282 17.146 17.282h6.93c15.133 0 17.837-11.322 17.837-17.282v-1.668c0 5.96-2.704 17.282-17.837 17.282h-6.93c-11.563 0-17.146-7.708-17.146-17.282z" id="path4147" opacity="1" fill="url(#linearGradient4160)" fill-opacity="1" stroke="none" stroke-width="1.1" stroke-linecap="square" stroke-linejoin="bevel" stroke-miterlimit="4" stroke-dasharray="none" stroke-dashoffset="0" stroke-opacity=".078"/><path d="M19.046 2.965h8.495c13.908 0 16.805 11.246 16.805 17.282v7.123c0 5.96-2.704 17.282-17.837 17.282h-6.93c-11.562 0-17.146-7.708-17.146-17.282v-7.123c0-9.575 5.47-17.282 16.613-17.282z" id="rect4144" opacity="1" fill="#706cf5" fill-opacity="1" stroke="#000" stroke-width=".334" stroke-linecap="square" stroke-linejoin="bevel" stroke-miterlimit="4" stroke-dasharray="none" stroke-dashoffset="0" stroke-opacity=".078"/><path d="M30.904 13.597l-9.51.002c-5.23 0-9.91.021-10.402.044-.706.034-.956.063-1.182.143-.768.271-1.157.704-1.414 1.574-.08.272-.086.84-.1 9.244l-.015 8.954h1.066l.004-7.842c.002-4.313.02-8.389.04-9.057.033-1.162.039-1.224.154-1.45.153-.3.332-.39.92-.458.302-.035 3.776-.06 10.447-.076l9.992-.024v-1.054zm-17.06 5.316v1.885h1.69v-1.885h-.846zm3.576 0v1.885h1.69v-1.885h-.846zm3.527 0v1.885h1.691v-1.885h-.845zm3.576 0v1.885h1.691v-1.885h-.845zm3.576 0v1.885h1.694v-1.885h-.848zm5.946.629l-.006.88c-.004.486-.021 3.057-.037 5.716l-.03 4.834-.236.482c-.448.916-1.231 1.505-2.156 1.623-.265.034-2.927.068-7.49.094-3.895.022-7.163.04-7.262.043l-.182.006v.98l7.213-.03c7.652-.03 8.144-.042 8.656-.25a4.665 4.665 0 0 0 1.344-.868c.518-.512.795-.991 1.041-1.807.124-.412.125-.445.162-2.545.02-1.17.039-3.709.041-5.642l.006-3.516h-1.064zm-20.202 3.625v1.885h1.692v-1.885h-.846zm3.577 0v1.885h1.69v-1.885h-.846zm3.527 0v1.885h1.691v-1.885h-.845zm3.576 0v1.885h1.691v-1.885h-.845zm3.576 0v1.885h1.694v-1.885h-.848zM24.716 27.9l-3.177.014-3.178.012-.012.955-.013.953h6.38v-.967z" id="path12709-5-3" fill="#fff" fill-opacity="1" stroke="none" stroke-width=".029" stroke-miterlimit="4" stroke-dasharray="none" stroke-opacity="1"/><path d="M27.84 18.625v2.46h2.212v-2.46h-1.106z" id="path12709-5" fill="#ff8c00" fill-opacity="1" stroke="none" stroke-width=".038" stroke-miterlimit="4" stroke-dasharray="none" stroke-opacity="1"/><path d="M24.323 22.947v2.325h2.089v-2.325h-1.045z" id="path12709-5-6" fill="#ff8c00" fill-opacity="1" stroke="none" stroke-width=".036" stroke-miterlimit="4" stroke-dasharray="none" stroke-opacity="1"/></svg>