<svg xmlns:osb="http://www.openswatchbook.org/uri/2009/osb" xmlns="http://www.w3.org/2000/svg" xmlns:xlink="http://www.w3.org/1999/xlink" width="48" height="48" version="1.1" id="svg38"><defs id="defs22"><linearGradient id="linearGradient4488"><stop id="stop4490" offset="0" stop-color="#000" stop-opacity=".047"/><stop id="stop4492" offset="1" stop-color="#000" stop-opacity="0"/></linearGradient><style id="style4511"/><style id="style4511-26"/><style id="style4511-9"/><style id="style4552"/><style id="style4511-2"/><linearGradient xlink:href="#linearGradient4488" id="linearGradient4540" gradientUnits="userSpaceOnUse" gradientTransform="rotate(90 54.154 -8.502) scale(.3038)" x1="288.112" y1="141.785" x2="287.575" y2="79.008"/><linearGradient osb:paint="solid" id="linearGradient5293"><stop id="stop5295" offset="0" stop-color="#9a89c0" stop-opacity="1"/></linearGradient><linearGradient xlink:href="#linearGradient3764-36753-5" id="linearGradient1466" x1="3.049" y1="23.939" x2="45.07" y2="23.939" gradientUnits="userSpaceOnUse"/><linearGradient gradientUnits="userSpaceOnUse" y2="1" x2="0" y1="47" id="linearGradient3764-36753-5" gradientTransform="translate(-46.684 .43)"><stop id="stop1303" stop-opacity="1" stop-color="#e3252a"/><stop id="stop1305" stop-opacity="1" stop-color="#e5373b" offset="1"/></linearGradient><clipPath id="clipPath-920662187"/></defs><style id="style4485" type="text/css"/><path id="path4516" d="M21.425 2.983h-1.669c-9.574 0-17.282 5.583-17.282 17.146v6.93c0 15.132 11.323 17.837 17.282 17.837h1.669c-5.96 0-17.282-2.705-17.282-17.837v-6.93c0-11.563 7.708-17.146 17.282-17.146z" opacity="1" fill="url(#linearGradient4540)" fill-opacity="1" stroke="none" stroke-width="1.1" stroke-linecap="square" stroke-linejoin="bevel" stroke-miterlimit="4" stroke-dasharray="none" stroke-dashoffset="0" stroke-opacity=".078"/><path id="path4518" d="M44.903 19.596v8.495c0 13.908-11.247 16.805-17.282 16.805h-7.123c-5.96 0-17.282-2.705-17.282-17.837v-6.93c0-11.563 7.708-17.146 17.282-17.146h7.123c9.574 0 17.282 5.47 17.282 16.613z" opacity="1" fill="url(#linearGradient1466)" fill-opacity="1" stroke="#000" stroke-width=".334" stroke-linecap="square" stroke-linejoin="bevel" stroke-miterlimit="4" stroke-dasharray="none" stroke-dashoffset="0" stroke-opacity=".078"/><path id="path1346" d="M13.336 13.353c-.809 0-1.453.645-1.453 1.453V30.65c0 .809.645 1.746 1.453 1.703h4.547v5l6-5H34.43c.809 0 1.453-.895 1.453-1.703V14.806c0-.809-.645-1.453-1.453-1.453m-11.547 4h2v4l3-2 1 1.5-3 2 3 2-1 1.5-3-2v4h-2l-.008-4.03-2.992 2.031-1-1.5 3-2-3-2 1-1.5 3 2m0-4" fill="#f9f9f9" fill-opacity="1" fill-rule="nonzero" stroke="none"/></svg>