<svg xmlns="http://www.w3.org/2000/svg" xmlns:xlink="http://www.w3.org/1999/xlink" width="48" height="48" version="1.1" id="svg38"><defs id="defs22"><linearGradient id="linearGradient4488"><stop id="stop4490" offset="0" stop-color="#000" stop-opacity=".047"/><stop id="stop4492" offset="1" stop-color="#000" stop-opacity="0"/></linearGradient><style id="style4511"/><style id="style4511-26"/><style id="style4511-9"/><style id="style4552"/><linearGradient id="c-27" y1="5.342" x1="42.799" y2="31.357" x2="11.999" gradientUnits="userSpaceOnUse"><stop stop-color="#4ce0c6" id="stop12-09"/><stop offset="1" stop-color="#3b85b5" id="stop14-36"/></linearGradient><style id="style4511-2"/><linearGradient xlink:href="#linearGradient4488" id="linearGradient4548" gradientUnits="userSpaceOnUse" gradientTransform="translate(-62.55 1.994) scale(.3038)" x1="288.112" y1="141.785" x2="287.575" y2="79.008"/><clipPath id="clipPath-276413810"/><radialGradient xlink:href="#c-27" id="radialGradient1181" cx="24.045" cy="23.586" fx="24.045" fy="23.586" r="20.844" gradientTransform="matrix(1 0 0 1.0054 0 -.127)" gradientUnits="userSpaceOnUse"/><clipPath id="clipPath-276413810-3"/></defs><style id="style4485" type="text/css"/><path id="path4532" d="M3.088 26.22v1.67c0 9.573 5.583 17.281 17.146 17.281h6.93c15.133 0 17.837-11.322 17.837-17.282v-1.668c0 5.96-2.704 17.282-17.837 17.282h-6.93c-11.563 0-17.146-7.708-17.146-17.282z" opacity="1" fill="url(#linearGradient4548)" fill-opacity="1" stroke="none" stroke-width="1.1" stroke-linecap="square" stroke-linejoin="bevel" stroke-miterlimit="4" stroke-dasharray="none" stroke-dashoffset="0" stroke-opacity=".078"/><path id="path4534" d="M44.888 19.243v8.495c0 13.908-11.247 16.804-17.282 16.804h-7.123c-5.96 0-17.282-2.704-17.282-17.836v-6.93C3.2 8.213 10.909 2.63 20.483 2.63h7.123c9.574 0 17.282 5.47 17.282 16.613z" opacity="1" fill="url(#radialGradient1181)" fill-opacity="1" stroke="none" stroke-width=".334" stroke-linecap="square" stroke-linejoin="bevel" stroke-miterlimit="4" stroke-dasharray="none" stroke-dashoffset="0" stroke-opacity="1"/><path id="path1209" d="M10.868 24.172c-.334.03-.612.28-.612.551V36.45c0 .289.325.55.683.55h16.808c.355 0 .68-.261.68-.55V24.723c0-.29-.326-.55-.68-.55h-16.88m14.53.71c.251 0 .568.255.568.455 0 .203-.317.458-.568.458-.252 0-.568-.255-.568-.458 0-.2.316-.455.568-.455m-13.629 1.574h15.143v9.613H11.768m0-9.613" fill="#dedede" fill-opacity="1" fill-rule="nonzero" stroke="none" stroke-width="1.116"/><ellipse id="path1276-7" cx="25.401" cy="25.347" rx=".575" ry=".459" fill="#ff2a2a" fill-opacity="1" stroke="none" stroke-width=".617" stroke-opacity="1"/><ellipse id="path1276-7-5" cx="26.85" cy="25.366" rx=".575" ry=".459" fill="purple" fill-opacity="1" stroke="none" stroke-width=".617" stroke-opacity="1"/><ellipse id="path1276-7-3" cx="23.972" cy="25.331" rx=".575" ry=".459" fill="green" fill-opacity="1" stroke="none" stroke-width=".617" stroke-opacity="1"/><path id="path1209-2" d="M20.274 10.172c-.334.03-.613.28-.613.551v11.726c0 .289.326.55.683.55h16.808c.355 0 .68-.261.68-.55V10.723c0-.29-.325-.551-.68-.551h-16.88m14.53.71c.252 0 .568.256.568.456 0 .203-.316.458-.568.458-.251 0-.568-.256-.568-.458 0-.2.317-.455.568-.455m-13.628 1.573h15.142v9.614H21.174m0-9.614" fill="#dedede" fill-opacity="1" fill-rule="nonzero" stroke="none" stroke-width="1.116"/><ellipse id="path1276-7-9" cx="34.806" cy="11.347" rx=".575" ry=".459" fill="#ff2a2a" fill-opacity="1" stroke="none" stroke-width=".617" stroke-opacity="1"/><ellipse id="path1276-7-5-1" cx="36.256" cy="11.366" rx=".575" ry=".459" fill="purple" fill-opacity="1" stroke="none" stroke-width=".617" stroke-opacity="1"/><ellipse id="path1276-7-3-2" cx="33.377" cy="11.331" rx=".575" ry=".459" fill="green" fill-opacity="1" stroke="none" stroke-width=".617" stroke-opacity="1"/></svg>