<svg xmlns="http://www.w3.org/2000/svg" xmlns:xlink="http://www.w3.org/1999/xlink" width="48" height="48" version="1.1" id="svg38"><defs id="defs22"><linearGradient id="linearGradient4488"><stop id="stop4490" offset="0" stop-color="#000" stop-opacity=".047"/><stop id="stop4492" offset="1" stop-color="#000" stop-opacity="0"/></linearGradient><style id="style4511"/><style id="style4511-26"/><style id="style4511-9"/><linearGradient id="a-2" y1="4" x1="24" y2="44" x2="4" gradientUnits="userSpaceOnUse"><stop stop-color="#197cf1" id="stop2-367"/><stop offset="1" stop-color="#20bcfa" id="stop4-5"/></linearGradient><style id="style4552"/><style id="style4511-2"/><linearGradient gradientTransform="matrix(.3071 0 0 .30202 -63.408 2.469)" xlink:href="#linearGradient4488" id="linearGradient4160" x1="288.112" y1="141.785" x2="287.575" y2="79.008" gradientUnits="userSpaceOnUse"/><linearGradient xlink:href="#a-2" id="linearGradient1655" x1="2.778" y1="23.935" x2="45.482" y2="23.935" gradientUnits="userSpaceOnUse"/><clipPath id="clipPath-845942433"/></defs><style id="style4485" type="text/css"/><path d="M2.945 26.554v1.658c0 9.519 5.644 17.181 17.333 17.181h7.006c15.297 0 18.03-11.256 18.03-17.18v-1.66c0 5.925-2.733 17.182-18.03 17.182h-7.006c-11.689 0-17.333-7.663-17.333-17.181z" id="path4147" opacity="1" fill="url(#linearGradient4160)" fill-opacity="1" stroke="none" stroke-width="1.103" stroke-linecap="square" stroke-linejoin="bevel" stroke-miterlimit="4" stroke-dasharray="none" stroke-dashoffset="0" stroke-opacity=".078"/><path d="M19.74 3.213h8.587c14.059 0 16.987 11.181 16.987 17.18v7.082c0 5.925-2.733 17.181-18.03 17.181h-7.006c-11.689 0-17.333-7.662-17.333-17.18v-7.082c0-9.518 5.53-17.181 16.794-17.181z" id="rect4144" opacity="1" fill="url(#linearGradient1655)" fill-opacity="1" stroke="#000" stroke-width=".335" stroke-linecap="square" stroke-linejoin="bevel" stroke-miterlimit="4" stroke-dasharray="none" stroke-dashoffset="0" stroke-opacity=".078"/><path id="path1480" d="M14.057 13.663l12.088-.004v14.38H14.057m0-14.38" fill="#de493d" fill-opacity="1" fill-rule="nonzero" stroke="none" stroke-width="1.017"/><path id="SVGCleanerId_0" d="M26.145 13.663h-1.082l-11.006 8.992v5.393h12.088m0-14.381" fill="#000" fill-opacity=".2" fill-rule="nonzero" stroke="none" stroke-width="1.017"/><path id="path1483" d="M13.553 10.581c.834 0 1.51.815 1.51 1.821v23.064c0 1.007-.676 1.821-1.51 1.821s-1.511-.814-1.511-1.82V12.401c0-1.006.677-1.82 1.51-1.82m0 0" fill="#fbb23c" fill-opacity="1" fill-rule="nonzero" stroke="none" stroke-width="1.017"/><path id="path1485" d="M24.13 12.636l.07 14.376 12.019.004-6.17-8.217 6.17-6.163m-12.089 0" fill="#de493d" fill-opacity="1" fill-rule="nonzero" stroke="none" stroke-width="1.017"/></svg>