<svg xmlns="http://www.w3.org/2000/svg" xmlns:xlink="http://www.w3.org/1999/xlink" width="48" height="48" version="1.1" id="svg38"><defs id="defs22"><linearGradient id="linearGradient4488"><stop id="stop4490" offset="0" stop-color="#000" stop-opacity=".047"/><stop id="stop4492" offset="1" stop-color="#000" stop-opacity="0"/></linearGradient><style id="style4511"/><style id="style4511-26"/><style id="style4511-9"/><style id="style4552"/><linearGradient id="c-27" y1="5.342" x1="42.799" y2="31.357" x2="11.999" gradientUnits="userSpaceOnUse"><stop stop-color="#4ce0c6" id="stop12-09"/><stop offset="1" stop-color="#3b85b5" id="stop14-36"/></linearGradient><style id="style4511-2"/><linearGradient xlink:href="#linearGradient4488" id="linearGradient4548" gradientUnits="userSpaceOnUse" gradientTransform="translate(-62.55 1.994) scale(.3038)" x1="288.112" y1="141.785" x2="287.575" y2="79.008"/><clipPath id="clipPath-276413810"/><radialGradient xlink:href="#c-27" id="radialGradient1181" cx="24.045" cy="23.586" fx="24.045" fy="23.586" r="20.844" gradientTransform="matrix(1 0 0 1.0054 0 -.127)" gradientUnits="userSpaceOnUse"/></defs><style id="style4485" type="text/css"/><path id="path4532" d="M3.088 26.22v1.67c0 9.573 5.583 17.281 17.146 17.281h6.93c15.133 0 17.837-11.322 17.837-17.282v-1.668c0 5.96-2.704 17.282-17.837 17.282h-6.93c-11.563 0-17.146-7.708-17.146-17.282z" opacity="1" fill="url(#linearGradient4548)" fill-opacity="1" stroke="none" stroke-width="1.1" stroke-linecap="square" stroke-linejoin="bevel" stroke-miterlimit="4" stroke-dasharray="none" stroke-dashoffset="0" stroke-opacity=".078"/><path id="path4534" d="M44.888 19.243v8.495c0 13.908-11.247 16.804-17.282 16.804h-7.123c-5.96 0-17.282-2.704-17.282-17.836v-6.93C3.2 8.213 10.909 2.63 20.483 2.63h7.123c9.574 0 17.282 5.47 17.282 16.613z" opacity="1" fill="url(#radialGradient1181)" fill-opacity="1" stroke="none" stroke-width=".334" stroke-linecap="square" stroke-linejoin="bevel" stroke-miterlimit="4" stroke-dasharray="none" stroke-dashoffset="0" stroke-opacity="1"/><path id="path1209" d="M11.274 11.591a1.07 1.07 0 0 0-.924 1.03V34.55c0 .54.491 1.03 1.03 1.03h25.334c.535 0 1.024-.49 1.024-1.03V12.622c0-.541-.49-1.03-1.024-1.03H11.273M33.17 12.92c.38 0 .856.478.856.852 0 .38-.477.856-.856.856-.378 0-.855-.478-.855-.856 0-.375.477-.852.855-.852m-20.54 2.943h22.823v17.979H12.63m0-17.979" fill="#dedede" fill-opacity="1" fill-rule="nonzero" stroke="none" stroke-width="1.115"/><ellipse id="path1276-7" cx="33.177" cy="13.788" rx=".867" ry=".859" fill="#ff2a2a" fill-opacity="1" stroke="none" stroke-width=".617" stroke-opacity="1"/><ellipse id="path1276-7-5" cx="35.362" cy="13.824" rx=".867" ry=".859" fill="purple" fill-opacity="1" stroke="none" stroke-width=".617" stroke-opacity="1"/><ellipse id="path1276-7-3" cx="31.024" cy="13.759" rx=".867" ry=".859" fill="green" fill-opacity="1" stroke="none" stroke-width=".617" stroke-opacity="1"/></svg>