<svg xmlns:osb="http://www.openswatchbook.org/uri/2009/osb" xmlns="http://www.w3.org/2000/svg" xmlns:xlink="http://www.w3.org/1999/xlink" width="48" height="48" version="1.1" id="svg38"><defs id="defs22"><linearGradient id="linearGradient4488"><stop id="stop4490" offset="0" stop-color="#000" stop-opacity=".047"/><stop id="stop4492" offset="1" stop-color="#000" stop-opacity="0"/></linearGradient><style id="style4511"/><style id="style4511-26"/><style id="style4511-9"/><style id="style4552"/><linearGradient id="b-56" y1="547.8" y2="536.8" x2="0" gradientUnits="userSpaceOnUse" gradientTransform="matrix(1 0 0 .54545 0 244)"><stop stop-color="#c6cdd1" id="stop7-2"/><stop offset="1" stop-color="#e0e5e7" id="stop9-91"/></linearGradient><linearGradient id="e-1" y1="41.22" x1="24.392" y2="25.343" x2="20.643" gradientUnits="userSpaceOnUse"><stop stop-color="#334545" id="stop22-8"/><stop offset="1" stop-color="#536161" id="stop24-7"/></linearGradient><style id="style4511-2"/><linearGradient xlink:href="#linearGradient4488" id="linearGradient4540" gradientUnits="userSpaceOnUse" gradientTransform="matrix(.30902 0 0 .3038 -64.017 1.994)" x1="288.112" y1="141.785" x2="287.575" y2="79.008"/><linearGradient osb:paint="solid" id="linearGradient5293"><stop id="stop5295" offset="0" stop-color="#9a89c0" stop-opacity="1"/></linearGradient><linearGradient xlink:href="#e-1" id="linearGradient1530" x1="17.57" y1="23.11" x2="30.554" y2="23.11" gradientUnits="userSpaceOnUse"/><linearGradient xlink:href="#b-56" id="linearGradient1421" x1="2.581" y1="23.993" x2="45.552" y2="23.993" gradientUnits="userSpaceOnUse"/></defs><style id="style4485" type="text/css"/><path id="path4516" d="M2.75 26.22v1.67c0 9.573 5.68 17.281 17.44 17.281h7.05c15.392 0 18.143-11.322 18.143-17.282v-1.668c0 5.96-2.75 17.282-18.143 17.282h-7.05c-11.76 0-17.44-7.708-17.44-17.282z" opacity="1" fill="url(#linearGradient4540)" fill-opacity="1" stroke="none" stroke-width="1.109" stroke-linecap="square" stroke-linejoin="bevel" stroke-miterlimit="4" stroke-dasharray="none" stroke-dashoffset="0" stroke-opacity=".078"/><path id="path4518" d="M19.649 2.744h8.64c14.146 0 17.092 11.465 17.092 17.618v7.262c0 6.075-2.75 17.618-18.141 17.618h-7.05c-11.76 0-17.439-7.858-17.439-17.618v-7.262c0-9.76 5.564-17.618 16.898-17.618z" opacity="1" fill="url(#linearGradient1421)" fill-opacity="1" stroke="#000" stroke-width=".34" stroke-linecap="square" stroke-linejoin="bevel" stroke-miterlimit="4" stroke-dasharray="none" stroke-dashoffset="0" stroke-opacity=".078"/><path d="M23.984 15.11c-.385 1.443-.584 2.96-1.093 4.354l-.762 1.646c-.601-.083-1.136-.05-1.256.707-.226.274-.578 1.773-.688.91l-.838-3.617-.928 4-1.39-1.5c-.493.053-1.104.645-1.523.36l-1.724-1.86-1.855 2-.927-2c-.503.751-.918 1.608-1.473 2.295-.685.356-1.231.705-2.134.705H2.756c-.013.332-.023.665-.023 1 0 .335.01.668.023 1h5.545c.634.38 1.421.615 1.716 1.41l.986 1.591.927-2 1.855 2 1.855-2c.492.053 1.102.645 1.52.36l1.262-1.36.928 4 .927-4 .927 2c.601-.083 1.136-.05 1.256.707.833 1.47.984 3.212 1.422 4.84.124 1 .338-.525.51-.859.328-1.299.869-2.502 1.45-3.688.612.088 1.143.053 1.16-.75l.695-2.25 1.855 1.5 1.855-1.5 1.855 4.5 1.855-3.5 1.854 2 .928-3 1.855 2c.658-.642 1.244-1.474 1.947-2h3.672c.013-.332.023-.665.023-1 0-.335-.01-.668-.023-1h-3.764l-1.855-2-1.855 2-.928-3-1.854 2-1.855-3.5-1.855 4.5-1.855-1.5-1.855 1.5-1.855-4c-.618.09-1.146.053-1.104-.768z" id="path1441" fill="#e64308" fill-opacity="1" stroke-width=".963"/><path d="M31.403 25.11l1.006 2.44v-6.88l-1.006 2.44c-.85 0-.85 2 0 2" id="path1447" fill="#000" fill-opacity=".098" stroke-width=".963"/><rect id="rect1449" width="14.839" height="26" x="16.642" y="11.11" rx=".556" opacity="1" fill="#e6e6e6" fill-opacity="1" fill-rule="nonzero" stroke="none" stroke-width=".963"/><path id="rect1451" opacity="1" fill="url(#linearGradient1530)" fill-opacity="1" fill-rule="nonzero" stroke="none" stroke-width=".963" d="M17.57 12.11h12.984v22H17.57z"/><path id="path1453" d="M24.99 17.11l-1.856.146v8.307l1.855-.254v-3.626c.839 1.365 1.472 2.634 2.594 3.954l2.003-.62c-1.072-1.34-1.873-2.52-2.604-3.807.76-1.209 1.713-2.423 2.644-3.509l-2.075-.549c-.97 1.177-1.79 2.394-2.562 3.616m-4.447-1.957a.155.155 0 0 0-.085.05c-.228.231-.443.464-.67.696-.099.103.002.226.046.312l.46.685.344.5c.048.072.063.08.038.131l-.086.148c-.447.81-.133.873-1.091 1.136l-.734.131c-.108.04-.25.035-.257.197v.98c-.006.15.15.164.242.19l.78.145.586.115c.08.012.097-.008.116.056.239 1.088.551.838.03 1.79l-.42.63c-.056.11-.16.217-.054.328.221.236.433.474.656.711.097.103.224-.002.304-.049l.647-.484.483-.35c.067-.059.076-.073.125-.042.97.638 1.003.177 1.285 1.252l.14.77c.036.114.04.262.188.268h.941c.141 0 .154-.174.172-.269l.131-.818.094-.605c.006-.058.004-.088.014-.107 1.135-.252.853-.607 1.777-.04l.599.44c.11.058.215.16.32.051.222-.226.443-.455.667-.679.099-.109.002-.234-.046-.318l-.437-.646-.287.105c-.074.052-.172.033-.259-.09l-.63-.875c-.588.855-1.54 1.408-2.62 1.408-1.776 0-3.227-1.52-3.227-3.388 0-1.326.732-2.474 1.793-3.03v-.779c-.036.02-.078.03-.109.041-.414.181-.441.263-1.12-.146l-.6-.449c-.084-.039-.158-.113-.234-.094m2.06 1.742c-.902.535-1.515 1.56-1.515 2.726 0 1.72 1.336 3.126 2.98 3.126 1.016 0 1.907-.54 2.445-1.363l-.029-.066c-.63.734-1.342 1.211-2.424 1.236-1.35.025-2.715-1.236-2.722-2.898-.011-1.072.46-1.793 1.262-2.306v-.45" fill="#f2f2f2" fill-opacity="1" fill-rule="evenodd" stroke="none" stroke-width=".963"/><rect id="rect1455" width="3.71" height="1" x="22.207" y="35.11" rx=".464" opacity="1" fill="#333" fill-opacity="1" fill-rule="nonzero" stroke="none" stroke-width=".963"/></svg>