<svg xmlns="http://www.w3.org/2000/svg" xmlns:xlink="http://www.w3.org/1999/xlink" width="48" height="48" version="1.1" id="svg38"><defs id="defs22"><linearGradient id="linearGradient4488"><stop id="stop4490" offset="0" stop-color="#000" stop-opacity=".047"/><stop id="stop4492" offset="1" stop-color="#000" stop-opacity="0"/></linearGradient><style id="style4511"/><style id="style4511-26"/><style id="style4511-9"/><style id="style4552"/><style id="style4511-2"/><linearGradient gradientTransform="matrix(.3082 0 0 .3038 -64.056 2.216)" xlink:href="#linearGradient4488" id="linearGradient4160" x1="288.112" y1="141.785" x2="287.575" y2="79.008" gradientUnits="userSpaceOnUse"/></defs><style id="style4485" type="text/css"/><g id="g1215" fill-opacity="1" stroke-linecap="square" stroke-linejoin="bevel" stroke-miterlimit="4" stroke-dasharray="none" stroke-dashoffset="0" stroke-opacity=".078"><path id="path4147" d="M2.535 26.443v1.668c0 9.575 5.664 17.282 17.394 17.282h7.031c15.352 0 18.095-11.322 18.095-17.282v-1.668c0 5.96-2.743 17.282-18.095 17.282h-7.03c-11.73 0-17.395-7.708-17.395-17.282z" opacity="1" fill="url(#linearGradient4160)" stroke="none" stroke-width="1.108"/><path id="rect4144" d="M19.389 2.965h8.618c14.11 0 17.048 11.246 17.048 17.282v7.123c0 5.96-2.743 17.282-18.095 17.282h-7.03c-11.73 0-17.395-7.708-17.395-17.282v-7.123c0-9.575 5.55-17.282 16.854-17.282z" opacity="1" fill="#e5e6e8" stroke="#000" stroke-width=".337"/></g><g id="g1220" transform="translate(10.848 11.465) scale(.07163)"><g id="g1164"><path id="path1222" d="M-121.71 178.496a54.566 54.566 0 0 1-27.583 47.428 54.566 54.566 0 0 1-54.863-.523 54.566 54.566 0 0 1-26.675-47.944" transform="rotate(-90)" opacity="1" fill="#000" fill-opacity="1" stroke="none" stroke-width="20.058" stroke-linecap="round" stroke-linejoin="round" stroke-miterlimit="4" stroke-dasharray="none" stroke-opacity="1" paint-order="normal"/><path id="path1162" d="M176.8 110.1c-36.8 0-66.8 30-66.8 66.8s30 66.7 66.8 66.7 66.8-30 66.8-66.8-30-66.7-66.8-66.7zm0 118.5c-28.6 0-51.8-23.2-51.8-51.8 0-28.6 23.2-51.8 51.8-51.8 28.5 0 51.8 23.2 51.8 51.8 0 28.6-23.3 51.8-51.8 51.8zM184.3 65h-15V0h15zm-15 223.6h15v65h-15zm91.8-185.5l-10.6-10.6 46-46 10.6 10.6zM92.4 250.6l10.6 10.6-46 46-10.6-10.6zm261.2-81.3v15h-65v-15zM65 184.3H0v-15h65zm196.1 66.3l46 46-10.6 10.6-46-46zM57.1 46.5l46 46-10.6 10.6-46-46z"/></g></g></svg>