<svg xmlns="http://www.w3.org/2000/svg" style="isolation:isolate" width="48" height="48"><defs><radialGradient gradientUnits="userSpaceOnUse" gradientTransform="scale(1.00269 .99732)" r="21.067" cy="23.872" cx="24.044" fy="23.872" fx="24.044" id="a"><stop offset="0%" stop-color="#2980b9"/><stop offset="98.261%" stop-color="#243a4f"/></radialGradient></defs><path d="M19.765 2.965h8.496c13.907 0 16.804 11.246 16.804 17.282v7.123c0 5.959-2.704 17.282-17.837 17.282h-6.93c-11.562 0-17.146-7.708-17.146-17.282v-7.123c0-9.575 5.471-17.282 16.613-17.282z" vector-effect="non-scaling-stroke" fill="url(#a)" stroke="#000" stroke-width=".334" stroke-linecap="square" stroke-linejoin="bevel" stroke-opacity=".078"/><path d="M33.63 29.187a21.463 21.463 0 0 0 2.072-.753c3.167-1.35 4.874-3.139 4.807-5.04-.068-1.9-1.9-3.602-5.156-4.788a20.89 20.89 0 0 0-1.583-.504c.12-.55.217-1.087.288-1.61.456-3.379-.217-5.763-1.897-6.712-1.68-.948-4.09-.307-6.788 1.808-.416.327-.832.683-1.247 1.067a21.07 21.07 0 0 0-1.245-1.094c-2.69-2.172-5.1-2.867-6.782-1.954-1.683.912-2.363 3.282-1.917 6.672.092.691.227 1.411.405 2.151-.733.226-1.426.478-2.072.753-3.167 1.349-4.874 3.139-4.807 5.04.052 1.425 1.092 2.737 2.983 3.804.632.358 1.357.687 2.173.984a21.43 21.43 0 0 0 1.583.504 20.57 20.57 0 0 0-.288 1.609c-.456 3.38.217 5.764 1.897 6.713 1.68.949 4.09.306 6.788-1.809a20.43 20.43 0 0 0 1.247-1.065c.414.391.83.757 1.245 1.092.674.545 1.33.996 1.962 1.353 1.89 1.067 3.56 1.287 4.82.602 1.683-.912 2.363-3.282 1.917-6.672a20.935 20.935 0 0 0-.405-2.151zm1.365-9.602c2.78 1.014 4.405 2.411 4.455 3.835.05 1.425-1.471 2.903-4.175 4.054-.596.254-1.236.487-1.91.697a32.354 32.354 0 0 0-1.568-4.28 30.974 30.974 0 0 0 1.727-4.776c.512.143 1.003.3 1.47.47zM24.312 29.55a39.63 39.63 0 0 1-3.464-.062 39.033 39.033 0 0 1-3.268-5.75 38.171 38.171 0 0 1 3.136-5.463 39.366 39.366 0 0 1 3.189-.208 39.285 39.285 0 0 1 3.464.063 38.551 38.551 0 0 1 1.821 2.922 38.752 38.752 0 0 1 1.447 2.827 37.943 37.943 0 0 1-3.136 5.464c-1.035.109-2.102.18-3.189.207zm2.378.918a29.107 29.107 0 0 1-2.596 3.025c-.84-.868-1.67-1.85-2.468-2.92a41.285 41.285 0 0 0 5.064-.105zm-7.18-1.09a30.115 30.115 0 0 1-3.79-.615c.321-1.21.758-2.473 1.297-3.758a40.409 40.409 0 0 0 2.493 4.373zm-2.49-6.92a30.198 30.198 0 0 1-1.155-3.306 31.046 31.046 0 0 1 3.456-.701 39.776 39.776 0 0 0-2.3 4.008zm4.507-5.31a29.107 29.107 0 0 1 2.596-3.024c.842.868 1.67 1.85 2.468 2.92a40.69 40.69 0 0 0-2.724-.021c-.79.02-1.572.062-2.34.126zm7.18 1.09c1.335.135 2.609.341 3.79.616a29.02 29.02 0 0 1-1.297 3.758 40.117 40.117 0 0 0-2.494-4.373zm2.49 6.92a30.198 30.198 0 0 1 1.155 3.306 30.652 30.652 0 0 1-3.456.702 39.372 39.372 0 0 0 2.3-4.008zm-5.16-12.75c2.303-1.805 4.346-2.434 5.605-1.723 1.258.711 1.756 2.775 1.366 5.66-.065.486-.155.985-.265 1.496a32.298 32.298 0 0 0-4.798-.717 31.898 31.898 0 0 0-3.069-3.727 20.3 20.3 0 0 1 1.16-.989zm-10.805 3.746c-.382-2.895.123-4.947 1.384-5.631.916-.497 2.244-.277 3.785.592a13.43 13.43 0 0 1 1.814 1.252c.386.312.772.65 1.158 1.015a31.246 31.246 0 0 0-3.26 3.91 33.102 33.102 0 0 0-4.51.847 19.888 19.888 0 0 1-.371-1.985zm-2.009 11.878c-2.782-1.013-4.406-2.411-4.456-3.836-.05-1.424 1.471-2.901 4.176-4.054a20.436 20.436 0 0 1 1.91-.697c.391 1.383.92 2.823 1.567 4.28a31.067 31.067 0 0 0-1.727 4.776 20.15 20.15 0 0 1-1.47-.47zm8.957 7.177c-2.303 1.806-4.346 2.433-5.604 1.722-1.26-.71-1.757-2.773-1.366-5.66.065-.485.154-.984.264-1.494 1.482.344 3.1.585 4.798.716a31.825 31.825 0 0 0 3.069 3.726c-.387.356-.773.686-1.16.99zm9.421 1.885c-1.26.683-3.3.011-5.599-1.844-.385-.312-.772-.65-1.157-1.014a31.266 31.266 0 0 0 3.259-3.91 32.968 32.968 0 0 0 4.51-.848c.162.683.287 1.347.371 1.985.382 2.895-.123 4.947-1.384 5.63z" fill="#e3006e"/><g fill="#fff"><path d="M22.65 25.783c-1.272-.719-1.724-2.318-1.007-3.565.716-1.248 2.333-1.679 3.605-.96 1.271.718 1.723 2.317 1.007 3.565-.716 1.247-2.334 1.678-3.605.96zm2.078-3.62c-.763-.431-1.733-.173-2.163.575a1.566 1.566 0 0 0 .604 2.14c.764.43 1.734.172 2.164-.576a1.566 1.566 0 0 0-.605-2.14z"/><path d="M22.215 21.822l3.614-.022-.022 3.61-3.614.021z"/></g></svg>