<svg xmlns:osb="http://www.openswatchbook.org/uri/2009/osb" xmlns="http://www.w3.org/2000/svg" xmlns:xlink="http://www.w3.org/1999/xlink" width="48" height="48" version="1.1" id="svg38"><defs id="defs22"><linearGradient id="linearGradient4488"><stop id="stop4490" offset="0" stop-color="#000" stop-opacity=".047"/><stop id="stop4492" offset="1" stop-color="#000" stop-opacity="0"/></linearGradient><style id="style4511"/><style id="style4511-26"/><style id="style4511-9"/><style id="style4552"/><style id="style4511-2"/><linearGradient xlink:href="#linearGradient4488" id="linearGradient4540" gradientUnits="userSpaceOnUse" gradientTransform="matrix(.3074 0 0 .30379 -63.667 1.994)" x1="288.112" y1="141.785" x2="287.575" y2="79.008"/><linearGradient osb:paint="solid" id="linearGradient5293"><stop id="stop5295" offset="0" stop-color="#9a89c0" stop-opacity="1"/></linearGradient><style id="style2" type="text/css"><![CDATA[.fil5{fill:none}.fil1{fill:#196FBA}.fil0{fill:#25B2EE}.fil4{fill:#793C7C}.fil3{fill:#8C508C}.fil2{fill:white}]]></style><clipPath clipPathUnits="userSpaceOnUse" id="clipPath222"><path d="M277.816 265.933c42.803-37.139 69.793-80.88 69.793-80.88s-12.074 39.023-40.265 73.537c-54.05 66.174-136.189 94.337-136.189 94.337s62.645-48.8 106.661-86.994" id="path224"/></clipPath><linearGradient x1="0" y1="0" x2="1" y2="0" gradientUnits="userSpaceOnUse" gradientTransform="scale(64.36698 -64.36698) rotate(-37.912 -3.915 -7.509)" spreadMethod="pad" id="linearGradient234"><stop offset="0" id="stop236" stop-opacity="0" stop-color="#fff"/><stop offset=".922" id="stop238" stop-opacity="1" stop-color="#fff"/><stop offset="1" id="stop240" stop-opacity="1" stop-color="#fff"/></linearGradient><mask maskUnits="userSpaceOnUse" x="0" y="0" width="1" height="1" id="mask242"><g id="g244"><g id="g246"><g id="g248"><g id="g250"><path d="M-32768 32767h65535v-65535h-65535v65535z" id="path252" fill="url(#linearGradient234)" stroke="none"/></g></g></g></g></mask><linearGradient x1="0" y1="0" x2="1" y2="0" gradientUnits="userSpaceOnUse" gradientTransform="scale(64.36698 -64.36698) rotate(-37.912 -3.915 -7.509)" spreadMethod="pad" id="linearGradient258"><stop offset="0" id="stop260" stop-opacity="1" stop-color="#9cff00"/><stop offset=".922" id="stop262" stop-opacity="1" stop-color="#9cff00"/><stop offset="1" id="stop264" stop-opacity="1" stop-color="#9cff00"/></linearGradient><clipPath clipPathUnits="userSpaceOnUse" id="clipPath946"><use x="0" y="0" xlink:href="#g942" id="use948" width="100%" height="100%"/></clipPath><linearGradient xlink:href="#linearGradient258" id="linearGradient1943" gradientUnits="userSpaceOnUse" gradientTransform="scale(64.36698 -64.36698) rotate(-37.912 -3.915 -7.509)" x1="0" y1="0" x2="1" y2="0" spreadMethod="pad"/></defs><style id="style4485" type="text/css"/><path id="path4516" d="M2.751 26.22v1.669c0 9.574 5.65 17.282 17.35 17.282h7.012c15.312 0 18.048-11.323 18.048-17.282V26.22c0 5.96-2.736 17.282-18.048 17.282H20.1c-11.7 0-17.349-7.708-17.349-17.282z" opacity="1" fill="url(#linearGradient4540)" fill-opacity="1" stroke="none" stroke-width="1.106" stroke-linecap="square" stroke-linejoin="bevel" stroke-miterlimit="4" stroke-dasharray="none" stroke-dashoffset="0" stroke-opacity=".078"/><path id="path4518" d="M19.561 2.743h8.596c14.073 0 17.004 11.247 17.004 17.282v7.122c0 5.96-2.736 17.282-18.048 17.282H20.1c-11.7 0-17.35-7.708-17.35-17.282v-7.122c0-9.574 5.535-17.282 16.81-17.282z" opacity="1" fill="#233501" fill-opacity="1" stroke="#000" stroke-width=".336" stroke-linecap="square" stroke-linejoin="bevel" stroke-miterlimit="4" stroke-dasharray="none" stroke-dashoffset="0" stroke-opacity=".078"/><g id="g1127" transform="translate(1.125 .5)"><g id="g210" transform="matrix(.09216 0 0 -.09643 32.354 33.769)"><path d="M0 0c.424-2.247-5.145-4.251-5.505-1.994-3.423 21.488-16.473 28.274-15.503 30.345.969 2.071 5.635 12.163 5.594 9.877C-15.745 19.914-3.216 17.048 0 0" id="path212" fill="#c4ff52" fill-opacity="1" fill-rule="nonzero" stroke="none"/></g><g id="g214" transform="matrix(.09216 0 0 -.09643 29.553 21.285)"><path d="M0 0c18.787-39.675 14.787-103.789 14.787-103.789S-52.829-84.72-88.811-54.241c-27.546 23.334-47.921 49.771-60.037 78.137-12.558 29.402-43.529 55.892-43.529 55.892s37.297-1.833 45.491-3.209C-111.823 70.689-28.82 60.863 0 0" id="path216" fill="#c4ff52" fill-opacity="1" fill-rule="nonzero" stroke="none"/></g><g transform="matrix(.42207 0 0 .4394 54.29 15.905)" id="g1018"><g id="g999"><g id="g981"><g id="g964"><g clip-path="url(#clipPath946)" id="g944"><g id="g942"><g id="g928"><g id="g915"><g id="g903"><g id="g892"><g id="g882"><g transform="matrix(.21836 0 0 -.21946 -134.56 70.506)" id="g218"><g id="g220" clip-path="url(#clipPath222)"><g id="g226"><g id="g254" mask="url(#mask242)"><g id="g256"><path d="M277.816 265.933c42.803-37.139 69.793-80.88 69.793-80.88s-12.074 39.023-40.265 73.537c-54.05 66.174-136.189 94.337-136.189 94.337s62.645-48.8 106.661-86.994" id="path266" fill="url(#linearGradient1943)" stroke="none"/></g></g></g></g></g></g></g></g></g></g></g></g></g></g></g></g></g></svg>