<svg xmlns:osb="http://www.openswatchbook.org/uri/2009/osb" xmlns="http://www.w3.org/2000/svg" xmlns:xlink="http://www.w3.org/1999/xlink" width="48" height="48" version="1.1" id="svg38"><defs id="defs22"><linearGradient id="linearGradient4488"><stop id="stop4490" offset="0" stop-color="#000" stop-opacity=".047"/><stop id="stop4492" offset="1" stop-color="#000" stop-opacity="0"/></linearGradient><style id="style4511"/><style id="style4511-26"/><style id="style4511-9"/><style id="style4552"/><style id="style4511-2"/><linearGradient xlink:href="#linearGradient4488" id="linearGradient4540" gradientUnits="userSpaceOnUse" gradientTransform="rotate(90.216 54.465 -7.917) scale(.3038)" x1="288.112" y1="141.785" x2="287.575" y2="79.008"/><linearGradient osb:paint="solid" id="linearGradient5293"><stop id="stop5295" offset="0" stop-color="#9a89c0" stop-opacity="1"/></linearGradient><style id="style4511-87"/><style id="style4511-26-7"/><style id="style4511-9-1"/><style id="style4552-53"/><style id="style4511-2-9"/><style id="style4511-8"/><style id="style4511-26-4"/><style id="style4511-9-8"/><style id="style4552-5"/><style id="style4511-2-5"/><style id="style4511-8792"/><style id="style4511-26-3"/><style id="style4511-9-6"/><style id="style4552-4"/><style id="style4511-2-06"/><style id="style4511-87-2"/><style id="style4511-26-7-2"/><style id="style4511-9-1-8"/><style id="style4552-53-6"/><style id="style4511-2-9-9"/><style id="style4511-8-6"/><style id="style4511-26-4-2"/><style id="style4511-9-8-4"/><style id="style4552-5-9"/><style id="style4511-2-5-9"/><style id="style4511-879"/><style id="style4511-26-76"/><style id="style4511-9-2"/><style id="style4552-8"/><style id="style4511-2-0"/></defs><style id="style4485" type="text/css"/><style type="text/css" id="style4485-7"/><style id="style4485-6" type="text/css"/><style type="text/css" id="style4485-8"/><style id="style4485-7-2" type="text/css"/><style type="text/css" id="style4485-6-4"/><style id="style4485-3" type="text/css"/><g id="g3016"><path d="M22.28 3.136l-1.67-.007C11.037 3.093 3.309 8.648 3.265 20.21l-.026 6.93c-.057 15.133 11.255 17.88 17.215 17.902l1.669.006c-5.96-.022-17.272-2.77-17.215-17.901l.026-6.93C4.976 8.653 12.705 3.1 22.279 3.135z" id="path4516" opacity="1" fill="url(#linearGradient4540)" fill-opacity="1" stroke="none" stroke-width="1.1" stroke-linecap="square" stroke-linejoin="bevel" stroke-miterlimit="4" stroke-dasharray="none" stroke-dashoffset="0" stroke-opacity=".078"/><path id="path4518" d="M45.695 19.837C45.737 8.694 38.05 3.195 28.476 3.16l-4.293-.016-.157 41.912 4.293.016c6.035.023 17.292-2.832 17.344-16.74z" opacity="1" fill="#2086e7" fill-opacity="1" stroke="#000" stroke-width=".334" stroke-linecap="square" stroke-linejoin="bevel" stroke-miterlimit="4" stroke-dasharray="none" stroke-dashoffset="0" stroke-opacity=".078"/><path id="path4518-7" d="M2.548 28.39c-.027 11.142 7.667 16.631 17.24 16.655l4.294.01.101-41.912-4.293-.01C13.855 3.118 2.602 5.988 2.568 19.895z" opacity="1" fill="#2b898f" fill-opacity="1" stroke="#000" stroke-width=".334" stroke-linecap="square" stroke-linejoin="bevel" stroke-miterlimit="4" stroke-dasharray="none" stroke-dashoffset="0" stroke-opacity=".078"/><g transform="matrix(1.00064 0 0 1 -.015 0)" id="g748" fill="#76c22b" fill-opacity="1"><path d="M19.89 3.133C13.855 3.12 2.602 5.987 2.568 19.895l-.012 5.02h21.575l.052-21.772z" id="path4518-7-6" opacity="1" fill="#76c22b" fill-opacity="1" stroke="#000" stroke-width=".334" stroke-linecap="square" stroke-linejoin="bevel" stroke-miterlimit="4" stroke-dasharray="none" stroke-dashoffset="0" stroke-opacity=".078"/></g><path id="path4518-7-6-7" d="M28.371 45.056C34.41 45.05 45.66 42.343 45.644 29.4l-.006-4.672-21.587.072.024 20.262z" opacity="1" fill="#d8b815" fill-opacity="1" stroke="#000" stroke-width=".322" stroke-linecap="square" stroke-linejoin="bevel" stroke-miterlimit="4" stroke-dasharray="none" stroke-dashoffset="0" stroke-opacity=".078"/><path d="M7.147 27.635v-6.757c0-11.063 9.208-13.367 14.149-13.367h5.832c4.88 0 14.15 2.15 14.15 14.188v5.512c0 9.198-6.311 13.639-14.15 13.639h-5.832c-7.839 0-14.15-4.351-14.15-13.215z" id="path4518-0" opacity="1" fill="#4d4d4d" fill-opacity="1" stroke="#000" stroke-width=".27" stroke-linecap="square" stroke-linejoin="bevel" stroke-miterlimit="4" stroke-dasharray="none" stroke-dashoffset="0" stroke-opacity=".078"/><path d="M12.987 34.526h12.34" id="path1104" fill="none" stroke="#fff" stroke-width="2.975" stroke-linecap="round"/><text transform="scale(.94727 1.05566)" id="text2998" y="25.546" x="23.222" style="line-height:1.25;-inkscape-font-specification:'Noto Sans Telugu UI Bold'" xml:space="preserve" font-style="normal" font-variant="normal" font-weight="700" font-stretch="normal" font-size="17.242" font-family="Noto Sans Telugu UI" letter-spacing="0" word-spacing="0" fill="#f9f9f9" fill-opacity="1" stroke="none" stroke-width=".431"><tspan y="25.546" x="23.222" id="tspan2996" stroke-width=".431">C</tspan></text><text transform="scale(1.02301 .9775)" id="text3002" y="27.366" x="10.527" style="line-height:1.25;-inkscape-font-specification:'sans-serif Bold'" xml:space="preserve" font-style="normal" font-variant="normal" font-weight="700" font-stretch="normal" font-size="18.891" font-family="sans-serif" letter-spacing="0" word-spacing="0" fill="#fff" fill-opacity="1" stroke="none" stroke-width=".472"><tspan style="-inkscape-font-specification:'sans-serif Bold'" y="27.366" x="10.527" id="tspan3000" font-style="normal" font-variant="normal" font-weight="700" font-stretch="normal" font-family="sans-serif" stroke-width=".472">P</tspan></text></g></svg>