<svg xmlns="http://www.w3.org/2000/svg" xmlns:xlink="http://www.w3.org/1999/xlink" width="48" height="48" version="1.1" id="svg38"><defs id="defs22"><linearGradient id="linearGradient4488"><stop id="stop4490" offset="0" stop-color="#000" stop-opacity=".047"/><stop id="stop4492" offset="1" stop-color="#000" stop-opacity="0"/></linearGradient><style id="style4511"/><style id="style4511-26"/><style id="style4511-9"/><linearGradient id="linearGradient4422-8"><stop id="stop19-3" offset="0" stop-color="#377d50" stop-opacity="1"/><stop id="stop21" offset="1" stop-color="#54d883" stop-opacity="1"/></linearGradient><style id="style4552"/><style id="style4511-2"/><linearGradient xlink:href="#linearGradient4488" id="linearGradient4546" gradientUnits="userSpaceOnUse" gradientTransform="matrix(.3038 0 0 .30792 -62.497 2.271)" x1="288.112" y1="141.785" x2="287.575" y2="79.008"/><linearGradient xlink:href="#linearGradient4422-8" id="linearGradient4485" x1="25.266" y1="45.015" x2="22.641" y2="3.739" gradientUnits="userSpaceOnUse" gradientTransform="matrix(1 0 0 1.01356 0 .25)"/><radialGradient gradientUnits="userSpaceOnUse" gradientTransform="matrix(-.01163 1.19509 -1.27492 -.0124 46.24 -9.623)" r="8.129" fy="17.349" fx="20.853" cy="17.349" cx="20.853" id="radialGradient4309-6" xlink:href="#linearGradient4301"/><linearGradient id="linearGradient4301"><stop id="stop4303" offset="0" stop-color="#f10000" stop-opacity="1"/><stop id="stop4305" offset="1" stop-color="#b20000" stop-opacity="1"/></linearGradient></defs><style id="style4485" type="text/css"/><path d="M3.141 26.827v1.69c0 9.705 5.583 17.517 17.146 17.517h6.93c15.133 0 17.837-11.476 17.837-17.516v-1.691c0 6.04-2.704 17.516-17.837 17.516h-6.93c-11.563 0-17.146-7.812-17.146-17.516z" id="path4528" opacity="1" fill="url(#linearGradient4546)" fill-opacity="1" stroke="none" stroke-width="1.107" stroke-linecap="square" stroke-linejoin="bevel" stroke-miterlimit="4" stroke-dasharray="none" stroke-dashoffset="0" stroke-opacity=".078"/><path d="M19.754 3.03h8.495c13.908 0 16.805 11.4 16.805 17.516v7.22c0 6.04-2.704 17.517-17.837 17.517h-6.93c-11.562 0-17.146-7.813-17.146-17.517v-7.22c0-9.704 5.47-17.516 16.613-17.516z" id="path4530" opacity="1" fill="url(#linearGradient4485)" fill-opacity="1" stroke="#000" stroke-width=".336" stroke-linecap="square" stroke-linejoin="bevel" stroke-miterlimit="4" stroke-dasharray="none" stroke-dashoffset="0" stroke-opacity=".078"/><g transform="matrix(.85967 0 0 .89588 3.466 1.76)" id="g12477" display="inline" opacity=".883" color="#000" clip-rule="nonzero" visibility="visible" color-interpolation="sRGB" color-interpolation-filters="linearRGB" fill-rule="nonzero" stroke="none" stroke-width="2" stroke-linecap="butt" stroke-linejoin="bevel" stroke-miterlimit="4" stroke-dasharray="none" stroke-dashoffset="0" stroke-opacity="1" color-rendering="auto" image-rendering="auto" shape-rendering="auto" text-rendering="auto"><rect style="isolation:auto;mix-blend-mode:normal;solid-color:#000;solid-opacity:1;marker:none" id="rect4364-1" width="19.787" height="7.094" x="14" y="12" rx="0" ry="0" display="inline" overflow="visible" opacity="1" fill="#fff" fill-opacity=".335"/><path style="isolation:auto;mix-blend-mode:normal;solid-color:#000;solid-opacity:1;marker:none" d="M16.026 19.217a8.117 8.117 0 0 0 16.231 0L32 17l-16 .022z" id="path4316-4" display="inline" overflow="visible" opacity="1" fill="url(#radialGradient4309-6)" fill-opacity="1"/><path style="isolation:auto;mix-blend-mode:normal;solid-color:#000;solid-opacity:1;marker:none" d="M14 12v7c0 5.185 3.947 9.449 9 9.951V36h-5c-1.108 0-2 .892-2 2h16c0-1.108-.892-2-2-2h-5v-7.049c5.053-.502 9-4.766 9-9.951v-7h-2v7l.002.031a8.033 8.033 0 0 1-8.033 8.032C19.533 27.063 16 23.436 16 19l.002-.031H16V12z" id="rect4249-9" display="inline" overflow="visible" opacity="1" fill="#e8e8e8" fill-opacity="1"/><path id="path4283-0" d="M14 12v7c0 5.185 3.947 9.449 9 9.951V36h-5c-1.108 0-2 .892-2 2h16c0-1.108-.892-2-2-2h-5v-7.049c5.053-.502 9-4.766 9-9.951v-7h-2v7l.002.031a8.033 8.033 0 0 1-8.033 8.032C19.533 27.063 16 23.436 16 19l.002-.031H16V12z" style="isolation:auto;mix-blend-mode:normal;solid-color:#000;solid-opacity:1;marker:none" display="inline" overflow="visible" opacity="1" fill="#e8e8e8" fill-opacity="1"/></g></svg>