<svg xmlns="http://www.w3.org/2000/svg" xmlns:xlink="http://www.w3.org/1999/xlink" width="48" height="48" version="1.1" id="svg38"><defs id="defs22"><linearGradient id="linearGradient4488"><stop id="stop4490" offset="0" stop-color="#000" stop-opacity=".047"/><stop id="stop4492" offset="1" stop-color="#000" stop-opacity="0"/></linearGradient><style id="style4511"/><style id="style4511-26"/><style id="style4511-9"/><style id="style4552"/><style id="style4511-2"/><linearGradient gradientTransform="translate(-63.205 2.216) scale(.3038)" xlink:href="#linearGradient4488" id="linearGradient4160" x1="288.112" y1="141.785" x2="287.575" y2="79.008" gradientUnits="userSpaceOnUse"/><style id="style4511-8"/><style id="style4511-26-4"/><style id="style4511-9-8"/><style id="style4552-5"/><style id="style4511-2-5"/><circle cx="73.957" cy="-31.965" r="15.999" id="SVGID_1_"/></defs><style id="style4485" type="text/css"/><path d="M2.433 26.443v1.668c0 9.575 5.583 17.282 17.146 17.282h6.93c15.133 0 17.837-11.322 17.837-17.282v-1.668c0 5.96-2.704 17.282-17.837 17.282h-6.93c-11.563 0-17.146-7.708-17.146-17.282z" id="path4147" opacity="1" fill="url(#linearGradient4160)" fill-opacity="1" stroke="none" stroke-width="1.1" stroke-linecap="square" stroke-linejoin="bevel" stroke-miterlimit="4" stroke-dasharray="none" stroke-dashoffset="0" stroke-opacity=".078"/><path d="M19.046 2.965h8.495c13.908 0 16.805 11.246 16.805 17.282v7.123c0 5.96-2.704 17.282-17.837 17.282h-6.93c-11.562 0-17.146-7.708-17.146-17.282v-7.123c0-9.575 5.47-17.282 16.613-17.282z" id="rect4144" opacity="1" fill="#3267b2" fill-opacity="1" stroke="#000" stroke-width=".334" stroke-linecap="square" stroke-linejoin="bevel" stroke-miterlimit="4" stroke-dasharray="none" stroke-dashoffset="0" stroke-opacity=".078"/><path d="M23.39 8.328c-8.55 0-15.48 6.932-15.48 15.48 0 8.55 6.931 15.48 15.48 15.48s15.48-6.932 15.48-15.48c0-8.549-6.932-15.48-15.48-15.48m.86 6.02h1.72v5.23a6.02 5.16 0 0 1 3.44-.93 6.02 5.16 0 0 1 6.02 5.16 6.02 5.16 0 0 1-6.02 5.16 6.02 5.16 0 0 1-3.44-.934v1.794h-1.72zm-3.44 3.44h1.72v15.48h-1.72v-5.229a6.02 5.16 0 0 1-3.44.93 6.02 5.16 0 0 1-6.02-5.16 6.02 5.16 0 0 1 6.02-5.16 6.02 5.16 0 0 1 3.44.933zm-3.44 2.58a4.3 3.44 0 0 0-4.3 3.44 4.3 3.44 0 0 0 4.3 3.44 4.3 3.44 0 0 0 3.44-1.384v-4.113a4.3 3.44 0 0 0-3.44-1.383m12.04 0a4.3 3.44 0 0 0-3.44 1.384v4.114a4.3 3.44 0 0 0 3.44 1.382 4.3 3.44 0 0 0 4.3-3.44 4.3 3.44 0 0 0-4.3-3.44" id="path5119-9-0" color="#000" fill="#fff" fill-opacity=".835" fill-rule="evenodd" stroke-width="2"/><style type="text/css" id="style4485-4"/><g id="g9" transform="translate(-98.19 -1.128)"><g id="g11"><g id="g13"><g id="g15"><g id="g17" opacity=".15"><g id="g19"><clipPath id="SVGID_2_"><use id="use25" x="0" y="0" width="1" height="1" xlink:href="#SVGID_1_" overflow="visible"/></clipPath></g></g></g></g></g></g></svg>