<svg xmlns="http://www.w3.org/2000/svg" xmlns:xlink="http://www.w3.org/1999/xlink" width="48" height="48" version="1.1" id="svg38"><defs id="defs22"><linearGradient id="linearGradient4488"><stop id="stop4490" offset="0" stop-color="#000" stop-opacity=".047"/><stop id="stop4492" offset="1" stop-color="#000" stop-opacity="0"/></linearGradient><style id="style4511"/><style id="style4511-26"/><style id="style4511-9"/><style id="style4552"/><style id="style4511-2"/><linearGradient xlink:href="#linearGradient4488" id="linearGradient4471" gradientUnits="userSpaceOnUse" gradientTransform="translate(-62.47 2.216) scale(.3038)" x1="288.112" y1="141.785" x2="287.575" y2="79.008"/><circle id="SVGID_1_" r="15.999" cy="-31.965" cx="73.957"/><linearGradient gradientTransform="rotate(-90 -3.113 51.17)" gradientUnits="userSpaceOnUse" x2="47" x1="1" id="linearGradient3764-36"><stop id="stop700" stop-opacity="1" stop-color="#e4e4e4"/><stop id="stop702" stop-opacity="1" stop-color="#eee" offset="1"/></linearGradient><linearGradient xlink:href="#linearGradient3764-36" id="linearGradient1670" x1="3.001" y1="23.808" x2="45.248" y2="23.808" gradientUnits="userSpaceOnUse"/></defs><style id="style4485" type="text/css"/><g id="g9" transform="translate(-49.354 -2.761)"><g id="g11"><g id="g13"><g id="g15"><g id="g17" opacity=".15"><g id="g19"><clipPath id="SVGID_2_"><use id="use25" x="0" y="0" width="1" height="1" xlink:href="#SVGID_1_" overflow="visible"/></clipPath></g></g></g></g></g></g><g id="g1630" transform="matrix(1 0 0 1.01695 0 -.05)"><path id="path4467" d="M3.168 26.443v1.668c0 9.575 5.583 17.282 17.146 17.282h6.93c15.132 0 17.836-11.322 17.836-17.282v-1.668c0 5.96-2.704 17.282-17.836 17.282h-6.93c-11.563 0-17.146-7.708-17.146-17.282z" opacity="1" fill="url(#linearGradient4471)" fill-opacity="1" stroke="none" stroke-width="1.1" stroke-linecap="square" stroke-linejoin="bevel" stroke-miterlimit="4" stroke-dasharray="none" stroke-dashoffset="0" stroke-opacity=".078"/><path id="path4469" d="M19.781 2.965h8.495c13.908 0 16.805 11.246 16.805 17.282v7.123c0 5.96-2.705 17.282-17.837 17.282h-6.93c-11.563 0-17.146-7.708-17.146-17.282v-7.123c0-9.575 5.47-17.282 16.613-17.282z" opacity="1" fill="url(#linearGradient1670)" fill-opacity="1" stroke="#000" stroke-width=".334" stroke-linecap="square" stroke-linejoin="bevel" stroke-miterlimit="4" stroke-dasharray="none" stroke-dashoffset="0" stroke-opacity=".078"/><path id="path1540" d="M24.037 2.974v6.335h-6.354V3.964a20.6 20.6 0 0 0-.907.311V9.31h-6.354V8.009c-.314.27-.611.56-.908.848v.453H9.06c-.289.296-.58.592-.851.905h1.305v6.335h-5.05c-.111.299-.214.6-.312.905h5.361v6.335H3.159c0 .302.015.605.028.905h6.326v6.335h-5.05c.116.31.24.603.369.905h4.68v6.335h-.454c.437.449.886.892 1.362 1.301v-.396h6.354v4.13c.3.11.602.213.908.31v-4.44h6.354v5.431c.303 0 .607-.015.907-.028v-5.402h6.354v4.13c.31-.115.605-.24.908-.368v-3.761h5.9c.474-.43.93-.885 1.362-1.358v-5.882h3.772c.13-.302.253-.596.369-.905h-4.142v-6.335h5.418c.013-.3.028-.603.028-.905h-5.446v-6.335h4.453c-.098-.305-.2-.607-.312-.905h-4.142v-6.335h.397a20.896 20.896 0 0 0-1.305-1.358v.453h-6.354V4.646a20.883 20.883 0 0 0-.908-.368v5.035h-6.354V3.006c-.3-.013-.604-.028-.907-.028m-13.616 7.24h6.354v6.335h-6.354zm7.262 0h6.354v6.335H17.68zm7.261 0h6.354v6.335h-6.354zm7.262 0h6.354v6.335h-6.354zm-21.785 7.24h6.354v6.335h-6.354zm7.262 0h6.354v6.335H17.68zm7.261 0h6.354v6.335h-6.354zm7.262 0h6.354v6.335h-6.354zm-21.785 7.24h6.354v6.335h-6.354zm7.262 0h6.354v6.335H17.68zm7.261 0h6.354v6.335h-6.354zm7.262 0h6.354v6.335h-6.354zm-21.785 7.24h6.354v6.335h-6.354zm7.262 0h6.354v6.335H17.68zm7.261 0h6.354v6.335h-6.354zm7.262 0h6.354v6.335h-6.354z" fill="#a0dad0" fill-opacity=".941" stroke-width=".906"/></g><g id="g1641" transform="matrix(1 0 0 1.01695 55.713 -1.474)"><path id="path1544" d="M-31.59 12.496a13 13 0 0 0-13 13 13 13 0 0 0 13 13 13 13 0 0 0 13-13 13 13 0 0 0-13-13zm0 4a9 9 0 0 1 9 9 9 9 0 0 1-9 9 9 9 0 0 1-9-9 9 9 0 0 1 9-9z" fill="#3d538b" fill-opacity="1" stroke="none"/><g id="g1564" transform="rotate(-45 -13.244 57.752) scale(1.0016)"><g id="g1562" transform="matrix(.70681 -.70824 .70681 .70824 -19.906 6.835)" fill-opacity="1" stroke="none"><rect id="rect1550" transform="rotate(44.943) skewX(-.116)" ry=".699" rx=".715" y="17.843" x="13.518" height="11.988" width="1.84" fill="#e78816"/><rect id="rect1552" transform="rotate(44.943) skewX(-.116)" width="1.84" height="11.988" x="15.593" y="17.843" rx=".715" ry=".699" fill="#e78816"/><rect id="rect1554" transform="rotate(44.943) skewX(-.116)" ry=".699" rx=".715" y="17.843" x="17.669" height="11.988" width="1.84" fill="#e78816"/><path id="path1556" d="M4 19.345L1.322 26.26l-4.251-4.243z" fill="#eed28e"/><path id="path1558" d="M4 19.345L.92 20.532l1.89 1.887L4 19.345" fill="#2d2d2d"/><path id="path1560" d="M-7.44 35.01l-4.251-4.243c-1.213 2.157 2.157 5.544 4.251 4.243z" fill="#b85a5a"/></g></g></g></svg>