<svg xmlns:osb="http://www.openswatchbook.org/uri/2009/osb" xmlns="http://www.w3.org/2000/svg" xmlns:xlink="http://www.w3.org/1999/xlink" width="48" height="48" version="1.1" id="svg38"><defs id="defs22"><linearGradient id="linearGradient1752"><stop offset="0" id="stop1748" stop-color="#000" stop-opacity="1"/><stop offset="1" id="stop1750" stop-color="#000" stop-opacity="0"/></linearGradient><linearGradient id="linearGradient4488"><stop id="stop4490" offset="0" stop-color="#000" stop-opacity=".047"/><stop id="stop4492" offset="1" stop-color="#000" stop-opacity="0"/></linearGradient><style id="style4511"/><style id="style4511-26"/><linearGradient id="linearGradient2188"><stop offset="0" id="stop2190" stop-color="#c4a000" stop-opacity="1"/><stop id="stop3626" offset=".206" stop-color="#edd400" stop-opacity="1"/><stop id="stop2848" offset=".5" stop-color="#fce94f" stop-opacity="1"/><stop offset=".75" id="stop2850" stop-color="#edd400" stop-opacity="1"/><stop offset="1" id="stop2192" stop-color="#c4a000" stop-opacity="1"/></linearGradient><style id="style4511-9"/><linearGradient id="linearGradient4472"><stop id="stop13-1" offset="0" stop-color="#ffa92d" stop-opacity="1"/><stop id="stop15-2" offset="1" stop-color="#ffc169" stop-opacity="1"/></linearGradient><style id="style4552"/><style id="style4511-2"/><linearGradient xlink:href="#linearGradient4488" id="linearGradient4540" gradientUnits="userSpaceOnUse" gradientTransform="translate(-62.889 1.994) scale(.3038)" x1="288.112" y1="141.785" x2="287.575" y2="79.008"/><linearGradient osb:paint="solid" id="linearGradient5293"><stop id="stop5295" offset="0" stop-color="#9a89c0" stop-opacity="1"/></linearGradient><linearGradient xlink:href="#linearGradient1752" id="linearGradient1754" x1="2.897" y1="23.784" x2="44.92" y2="23.784" gradientUnits="userSpaceOnUse"/><radialGradient xlink:href="#linearGradient2188" id="radialGradient1416" cx="19.26" cy="23.824" fx="19.26" fy="23.824" r=".437" gradientTransform="matrix(1 0 0 15.5164 0 -345.842)" gradientUnits="userSpaceOnUse"/><radialGradient xlink:href="#linearGradient2188" id="radialGradient1418" cx="30.236" cy="19.759" fx="30.236" fy="19.759" r=".437" gradientTransform="matrix(1 0 0 16.55082 0 -307.27)" gradientUnits="userSpaceOnUse"/><radialGradient xlink:href="#linearGradient2188" id="radialGradient1420" cx="31.924" cy="32.406" fx="31.924" fy="32.406" r=".437" gradientTransform="matrix(1 0 0 4.1377 0 -101.681)" gradientUnits="userSpaceOnUse"/><radialGradient xlink:href="#linearGradient2188" id="radialGradient1422" cx="20.527" cy="26.534" fx="20.527" fy="26.534" r=".844" gradientTransform="matrix(1 0 0 .51721 0 12.81)" gradientUnits="userSpaceOnUse"/><radialGradient xlink:href="#linearGradient2188" id="radialGradient1424" cx="28.969" cy="26.534" fx="28.969" fy="26.534" r=".844" gradientTransform="matrix(1 0 0 .51721 0 12.81)" gradientUnits="userSpaceOnUse"/><radialGradient xlink:href="#linearGradient2188" id="radialGradient1426" cx="20.527" cy="17.501" fx="20.527" fy="17.501" r=".844" gradientTransform="matrix(1 0 0 .51721 0 8.449)" gradientUnits="userSpaceOnUse"/><radialGradient xlink:href="#linearGradient2188" id="radialGradient1428" cx="28.969" cy="17.501" fx="28.969" fy="17.501" r=".844" gradientTransform="matrix(1 0 0 .51721 0 8.45)" gradientUnits="userSpaceOnUse"/><radialGradient xlink:href="#linearGradient2188" id="radialGradient1430" cx="14.195" cy="30.148" fx="14.195" fy="30.148" r="5.488" gradientTransform="matrix(1 0 0 .07957 0 27.749)" gradientUnits="userSpaceOnUse"/><radialGradient xlink:href="#linearGradient2188" id="radialGradient1432" cx="24.813" cy="29.688" fx="24.813" fy="29.688" r="4.295" gradientUnits="userSpaceOnUse"/><radialGradient xlink:href="#linearGradient2188" id="radialGradient1434" cx="24.813" cy="19.688" fx="24.813" fy="19.688" r="4.295" gradientUnits="userSpaceOnUse"/><radialGradient xlink:href="#linearGradient2188" id="radialGradient1436" cx="34.457" cy="31.955" fx="34.457" fy="31.955" r="5.502" gradientTransform="matrix(1 0 0 .40773 0 18.926)" gradientUnits="userSpaceOnUse"/><radialGradient xlink:href="#linearGradient2188" id="radialGradient1438" cx="24" cy="25.5" fx="24" fy="25.5" r="19" gradientTransform="matrix(1 0 0 .6579 0 8.724)" gradientUnits="userSpaceOnUse"/><radialGradient xlink:href="#linearGradient4472" id="radialGradient1417" gradientUnits="userSpaceOnUse" cx="24.813" cy="19.688" fx="24.813" fy="19.688" r="4.295"/><radialGradient xlink:href="#linearGradient4472" id="radialGradient1419" gradientUnits="userSpaceOnUse" cx="24.813" cy="19.688" fx="24.813" fy="19.688" r="4.295"/><radialGradient xlink:href="#linearGradient4472" id="radialGradient1421" gradientUnits="userSpaceOnUse" cx="24.813" cy="19.688" fx="24.813" fy="19.688" r="4.295"/><radialGradient xlink:href="#linearGradient4472" id="radialGradient1423" gradientUnits="userSpaceOnUse" cx="24.813" cy="29.688" fx="24.813" fy="29.688" r="4.295"/><radialGradient xlink:href="#linearGradient4472" id="radialGradient1425" gradientUnits="userSpaceOnUse" cx="24.813" cy="29.688" fx="24.813" fy="29.688" r="4.295"/><radialGradient xlink:href="#linearGradient4472" id="radialGradient1427" gradientUnits="userSpaceOnUse" cx="24.813" cy="29.688" fx="24.813" fy="29.688" r="4.295"/></defs><style id="style4485" type="text/css"/><path id="path4516" d="M2.75 26.22v1.67c0 9.573 5.583 17.281 17.146 17.281h6.93c15.132 0 17.836-11.322 17.836-17.282v-1.668c0 5.96-2.704 17.282-17.836 17.282h-6.93C8.333 43.503 2.75 35.795 2.75 26.22z" opacity="1" fill="url(#linearGradient4540)" fill-opacity="1" stroke="none" stroke-width="1.1" stroke-linecap="square" stroke-linejoin="bevel" stroke-miterlimit="4" stroke-dasharray="none" stroke-dashoffset="0" stroke-opacity=".078"/><path id="path4518" d="M3.065 28.169v-8.577c0-14.042 11.247-16.967 17.282-16.967h7.123c5.96 0 17.282 2.73 17.282 18.009v6.997c0 11.674-7.707 17.312-17.282 17.312h-7.123c-9.574 0-17.282-5.523-17.282-16.774z" opacity="1" fill="#229873" fill-opacity="1" stroke="url(#linearGradient1754)" stroke-width=".336" stroke-linecap="square" stroke-linejoin="bevel" stroke-miterlimit="4" stroke-dasharray="none" stroke-dashoffset="0" stroke-opacity=".078"/><path stroke-miterlimit="10" id="polygon1383" transform="matrix(.84425 0 0 .90338 3.642 -.115)" fill="none" fill-opacity="1" stroke="url(#radialGradient1438)" stroke-opacity="1" d="M42.5 18.97V37.5h-37v-24h30.536z"/><path stroke-miterlimit="10" id="rect1385" fill="none" fill-opacity="1" stroke="url(#radialGradient1436)" stroke-width=".873" stroke-opacity="1" d="M29.391 30.148h10.131v3.614H29.391z"/><g id="g1393" transform="matrix(.84425 0 0 .90338 3.642 -.115)" fill="none" fill-opacity="1" stroke="url(#radialGradient1434)" stroke-opacity="1" stroke-miterlimit="10"><circle cx="24.813" cy="19.688" r="3.795" id="circle1387" stroke="url(#radialGradient1417)"/><path id="line1389" stroke="url(#radialGradient1419)" d="M22.206 22.46l5.401-5.49"/><path id="line1391" stroke="url(#radialGradient1421)" d="M22.206 16.97l5.401 5.49"/></g><g id="g1401" transform="matrix(.84425 0 0 .90338 3.642 -.115)" fill="none" fill-opacity="1" stroke="url(#radialGradient1432)" stroke-opacity="1" stroke-miterlimit="10"><circle cx="24.813" cy="29.688" r="3.795" id="circle1395" stroke="url(#radialGradient1423)"/><path id="line1397" stroke="url(#radialGradient1425)" d="M22.206 32.46l5.401-5.49"/><path id="line1399" stroke="url(#radialGradient1427)" d="M22.206 26.97l5.401 5.49"/></g><path stroke-miterlimit="10" id="line1403" fill="none" fill-opacity="1" stroke="url(#radialGradient1430)" stroke-width=".873" stroke-opacity="1" d="M19.682 30.148H8.707"/><path stroke-miterlimit="10" id="line1405" fill="none" fill-opacity="1" stroke="url(#radialGradient1428)" stroke-width=".873" stroke-opacity="1" d="M28.125 17.501h1.688"/><path stroke-miterlimit="10" id="line1407" fill="none" fill-opacity="1" stroke="url(#radialGradient1426)" stroke-width=".873" stroke-opacity="1" d="M19.682 17.501h1.689"/><path stroke-miterlimit="10" id="line1409" fill="none" fill-opacity="1" stroke="url(#radialGradient1424)" stroke-width=".873" stroke-opacity="1" d="M28.125 26.534h1.688"/><path stroke-miterlimit="10" id="line1411" fill="none" fill-opacity="1" stroke="url(#radialGradient1422)" stroke-width=".873" stroke-opacity="1" d="M19.682 26.534h1.689"/><path stroke-miterlimit="10" id="line1413" fill="none" fill-opacity="1" stroke="url(#radialGradient1420)" stroke-width=".873" stroke-opacity="1" d="M31.924 30.6v3.613"/><path stroke-miterlimit="10" id="line1439" fill="none" fill-opacity="1" stroke="url(#radialGradient1418)" stroke-width=".873" stroke-opacity="1" d="M30.236 26.986V12.532"/><path stroke-miterlimit="10" id="line1441" fill="none" fill-opacity="1" stroke="url(#radialGradient1416)" stroke-width=".873" stroke-opacity="1" d="M19.26 30.6V17.049"/><g id="g1599" transform="matrix(.75593 0 0 .54103 61.388 2.242)"><g transform="translate(-60.155 26.773)" id="g1435"><path id="path1415" d="M13 44h-3a1 1 0 0 1-1-1V11h5v32a1 1 0 0 1-1 1z" fill="#3e3a39"/><path id="rect1417" fill="#838383" d="M10 11h2v33h-2z"/><path id="rect1419" fill="#2964cf" d="M9 40h5v2H9z"/><path id="rect1421" fill="#2964cf" d="M9 12h5v5H9z"/><path id="path1423" d="M11.5 6.304a.501.501 0 0 1-.5-.5V2.5c0-.275.225-.5.5-.5s.5.225.5.5v3.304c0 .275-.225.5-.5.5z" fill="#838383"/><path id="rect1425" fill="#6eb1ff" d="M10 12h2v5h-2z"/><path id="rect1427" fill="#6eb1ff" d="M10 40h2v2h-2z"/><path id="rect1429" fill="#bbb" d="M10.381 5h2.22v2.421h-2.22z"/><path id="polygon1431" fill="#3e3a39" d="M14 11H9l1-5h3z"/><path id="polygon1433" fill="#838383" d="M10 11l1-5h1v5z"/></g></g></svg>