<svg xmlns="http://www.w3.org/2000/svg" xmlns:xlink="http://www.w3.org/1999/xlink" width="48" height="48" version="1.1" id="svg38"><defs id="defs22"><linearGradient id="linearGradient4488"><stop id="stop4490" offset="0" stop-color="#000" stop-opacity=".047"/><stop id="stop4492" offset="1" stop-color="#000" stop-opacity="0"/></linearGradient><style id="style4511"/><style id="style4511-26"/><style id="style4511-9"/><style id="style4552"/><style id="style4511-2"/><linearGradient xlink:href="#linearGradient4488" id="linearGradient4471" gradientUnits="userSpaceOnUse" gradientTransform="translate(-62.47 2.216) scale(.3038)" x1="288.112" y1="141.785" x2="287.575" y2="79.008"/></defs><style id="style4485" type="text/css"/><path d="M3.168 26.443v1.668c0 9.575 5.583 17.282 17.146 17.282h6.93c15.132 0 17.836-11.322 17.836-17.282v-1.668c0 5.96-2.704 17.282-17.836 17.282h-6.93c-11.563 0-17.146-7.708-17.146-17.282z" id="path4467" opacity="1" fill="url(#linearGradient4471)" fill-opacity="1" stroke="none" stroke-width="1.1" stroke-linecap="square" stroke-linejoin="bevel" stroke-miterlimit="4" stroke-dasharray="none" stroke-dashoffset="0" stroke-opacity=".078"/><path d="M19.781 2.965h8.495c13.908 0 16.805 11.246 16.805 17.282v7.123c0 5.96-2.705 17.282-17.837 17.282h-6.93c-11.563 0-17.146-7.708-17.146-17.282v-7.123c0-9.575 5.47-17.282 16.613-17.282z" id="path4469" opacity="1" fill="#00c152" fill-opacity="1" stroke="#000" stroke-width=".334" stroke-linecap="square" stroke-linejoin="bevel" stroke-miterlimit="4" stroke-dasharray="none" stroke-dashoffset="0" stroke-opacity=".078"/><path d="M24.465 10.061c-.34-.038-1.663.041-2.35.14a14.73 14.73 0 0 0-3.24.901c-4.018 1.673-7.036 5.152-8.09 9.328a13.645 13.645 0 0 0 1.078 9.631C14 34.243 18.03 37.015 22.724 37.53c.638.07 2.735.028 3.334-.066 3.047-.481 5.673-1.798 7.793-3.91 1.897-1.89 3.23-4.36 3.754-6.948.626-3.092.223-6.115-1.191-8.945a13.296 13.296 0 0 0-2.574-3.572c-1.095-1.103-2.214-1.902-3.649-2.606-.955-.469-2.14-.91-2.175-.808-.012.032-.074.259-.14.503l-.118.446.322.105a12.739 12.739 0 0 1 7.717 7.028c.426.98.746 2.087.922 3.191.105.664.145 2.374.072 3.098a12.79 12.79 0 0 1-2.022 5.746 11.226 11.226 0 0 1-1.529 1.902c-2.074 2.126-4.684 3.41-7.69 3.783-.696.087-2.285.071-3.019-.027-2.96-.398-5.515-1.683-7.57-3.81a12.548 12.548 0 0 1-3.16-5.665c-.31-1.215-.361-1.663-.362-3.119 0-1.463.057-1.965.362-3.166a12.459 12.459 0 0 1 3.373-5.902c1.836-1.815 4.109-2.995 6.687-3.473.353-.065 1.79-.225 1.813-.201.004.004-.027 4.26-.069 9.459-.075 9.319-.076 9.454.016 9.578.198.268.53.305.824.092.647-.469 8.566-8.43 8.516-8.56-.02-.052-.715-.63-.758-.63-.019 0-.581.57-1.25 1.268-1.405 1.467-6.33 6.4-6.357 6.367-.016-.019.003-2.725.119-16.63l.015-1.966-.265-.03zm-8.073 11.307l-.459.459c-.252.252-.459.479-.459.506 0 .027 1.137 1.185 2.526 2.574l2.525 2.527.012-.955.014-.953-2.078-2.078-2.08-2.08z" id="path13025-4" fill="#fff" fill-opacity="1" stroke="none" stroke-width=".034" stroke-linejoin="miter" stroke-miterlimit="4" stroke-dasharray="none" stroke-opacity="1"/></svg>