<svg xmlns:osb="http://www.openswatchbook.org/uri/2009/osb" xmlns="http://www.w3.org/2000/svg" xmlns:xlink="http://www.w3.org/1999/xlink" width="48" height="48" version="1.1" id="svg38"><defs id="defs22"><linearGradient id="linearGradient3797-5"><stop id="stop1871" offset="0" stop-color="#e6eaef" stop-opacity="1"/><stop id="stop1873" offset="1" stop-color="#e6eaef" stop-opacity="1"/></linearGradient><linearGradient id="linearGradient4488"><stop id="stop4490" offset="0" stop-color="#000" stop-opacity=".047"/><stop id="stop4492" offset="1" stop-color="#000" stop-opacity="0"/></linearGradient><style id="style4511"/><style id="style4511-26"/><style id="style4511-9"/><style id="style4552"/><style id="style4511-2"/><linearGradient xlink:href="#linearGradient4488" id="linearGradient4540" gradientUnits="userSpaceOnUse" gradientTransform="rotate(90.216 54.465 -7.917) scale(.3038)" x1="288.112" y1="141.785" x2="287.575" y2="79.008"/><linearGradient osb:paint="solid" id="linearGradient5293"><stop id="stop5295" offset="0" stop-color="#9a89c0" stop-opacity="1"/></linearGradient><style id="style4511-87"/><style id="style4511-26-7"/><style id="style4511-9-1"/><style id="style4552-53"/><style id="style4511-2-9"/><style id="style4511-8"/><style id="style4511-26-4"/><style id="style4511-9-8"/><style id="style4552-5"/><style id="style4511-2-5"/><linearGradient xlink:href="#linearGradient3797-5" id="linearGradient1882" x1="2.389" y1="14.024" x2="24.35" y2="14.024" gradientUnits="userSpaceOnUse"/><linearGradient xlink:href="#linearGradient3797-5" id="linearGradient1890" x1="23.889" y1="34.894" x2="45.805" y2="34.894" gradientUnits="userSpaceOnUse"/><linearGradient xlink:href="#linearGradient3797-5" id="linearGradient1900" gradientUnits="userSpaceOnUse" x1="2.389" y1="14.024" x2="24.35" y2="14.024"/></defs><style id="style4485" type="text/css"/><style type="text/css" id="style4485-7"/><style id="style4485-6" type="text/css"/><path id="path4516" d="M22.28 3.136l-1.67-.007C11.037 3.093 3.309 8.648 3.265 20.21l-.026 6.93c-.057 15.133 11.255 17.88 17.215 17.902l1.669.006c-5.96-.022-17.272-2.77-17.215-17.901l.026-6.93C4.976 8.653 12.705 3.1 22.279 3.135z" opacity="1" fill="url(#linearGradient4540)" fill-opacity="1" stroke="none" stroke-width="1.1" stroke-linecap="square" stroke-linejoin="bevel" stroke-miterlimit="4" stroke-dasharray="none" stroke-dashoffset="0" stroke-opacity=".078"/><path d="M45.695 19.837C45.737 8.694 38.05 3.195 28.476 3.16l-4.293-.016-.157 41.912 4.293.016c6.035.023 17.292-2.832 17.344-16.74z" id="path4518" opacity="1" fill="#b3b3b3" fill-opacity="1" stroke="#000" stroke-width=".334" stroke-linecap="square" stroke-linejoin="bevel" stroke-miterlimit="4" stroke-dasharray="none" stroke-dashoffset="0" stroke-opacity=".078"/><path d="M2.548 28.39c-.027 11.142 7.667 16.631 17.24 16.655l4.294.01.101-41.912-4.293-.01C13.855 3.118 2.602 5.988 2.568 19.895z" id="path4518-7" opacity="1" fill="#b3b3b3" fill-opacity="1" stroke="#000" stroke-width=".334" stroke-linecap="square" stroke-linejoin="bevel" stroke-miterlimit="4" stroke-dasharray="none" stroke-dashoffset="0" stroke-opacity=".078"/><g id="g748" transform="matrix(1.00064 0 0 1 -.015 0)" fill="url(#linearGradient1882)" fill-opacity="1"><path id="path4518-7-6" d="M19.89 3.133C13.855 3.12 2.602 5.987 2.568 19.895l-.012 5.02h21.575l.052-21.772z" opacity="1" fill="url(#linearGradient1900)" fill-opacity="1" stroke="#000" stroke-width=".334" stroke-linecap="square" stroke-linejoin="bevel" stroke-miterlimit="4" stroke-dasharray="none" stroke-dashoffset="0" stroke-opacity=".078"/></g><path d="M28.371 45.056C34.41 45.05 45.66 42.343 45.644 29.4l-.006-4.672-21.587.072.024 20.262z" id="path4518-7-6-7" opacity="1" fill="url(#linearGradient1890)" fill-opacity="1" stroke="#000" stroke-width=".322" stroke-linecap="square" stroke-linejoin="bevel" stroke-miterlimit="4" stroke-dasharray="none" stroke-dashoffset="0" stroke-opacity=".078"/><g id="g1860" transform="matrix(1.01608 0 0 1.01306 49.364 -31.977)"><g id="g1852"><g id="g932" transform="matrix(-.6052 0 0 -.62074 -4.404 218.704)" fill-opacity="1" stroke="none" stroke-width=".995" stroke-linecap="round" stroke-linejoin="miter" stroke-miterlimit="4" stroke-dasharray="none" stroke-opacity="1"><path id="path1880" d="M32.22 247.873a12.978 12.978 0 0 1-25.955 0 12.978 12.978 0 1 1 25.955 0z" fill="#5c5c5c"/><path id="path3701" d="M60.763 276.391a12.978 12.978 0 0 1-25.956 0 12.978 12.978 0 1 1 25.956 0z" fill="#5c5c5c"/><path id="path3693" d="M60.763 247.842a12.978 12.978 0 0 1-25.956 0 12.978 12.978 0 1 1 25.956 0z" fill="#ececec"/><path id="path3679" d="M32.213 276.393a12.978 12.978 0 0 1-25.955 0 12.978 12.978 0 1 1 25.955 0z" fill="#ececec"/></g></g></g></svg>