<svg xmlns="http://www.w3.org/2000/svg" xmlns:xlink="http://www.w3.org/1999/xlink" width="48" height="48" version="1.1" id="svg38"><defs id="defs22"><linearGradient id="linearGradient4488"><stop id="stop4490" offset="0" stop-color="#000" stop-opacity=".047"/><stop id="stop4492" offset="1" stop-color="#000" stop-opacity="0"/></linearGradient><style id="style4511"/><style id="style4511-26"/><style id="style4511-9"/><style id="style4552"/><style id="style4511-2"/><linearGradient gradientTransform="translate(-63.205 2.216) scale(.3038)" xlink:href="#linearGradient4488" id="linearGradient4160" x1="288.112" y1="141.785" x2="287.575" y2="79.008" gradientUnits="userSpaceOnUse"/></defs><style id="style4485" type="text/css"/><path d="M2.433 26.443v1.668c0 9.575 5.583 17.282 17.146 17.282h6.93c15.133 0 17.837-11.322 17.837-17.282v-1.668c0 5.96-2.704 17.282-17.837 17.282h-6.93c-11.563 0-17.146-7.708-17.146-17.282z" id="path4147" opacity="1" fill="url(#linearGradient4160)" fill-opacity="1" stroke="none" stroke-width="1.1" stroke-linecap="square" stroke-linejoin="bevel" stroke-miterlimit="4" stroke-dasharray="none" stroke-dashoffset="0" stroke-opacity=".078"/><path d="M19.046 2.965h8.495c13.908 0 16.805 11.246 16.805 17.282v7.123c0 5.96-2.704 17.282-17.837 17.282h-6.93c-11.562 0-17.146-7.708-17.146-17.282v-7.123c0-9.575 5.47-17.282 16.613-17.282z" id="rect4144" opacity="1" fill="#598cff" fill-opacity="1" stroke="#000" stroke-width=".334" stroke-linecap="square" stroke-linejoin="bevel" stroke-miterlimit="4" stroke-dasharray="none" stroke-dashoffset="0" stroke-opacity=".078"/><path d="M32.932 11.985c-.454.09-.376.02-3.11 2.748a253.812 253.812 0 0 0-2.562 2.574c0 .01.056.05.123.086.157.085 1.873 1.811 1.906 1.918.014.044.037.082.05.082.015 0 1.167-1.146 2.561-2.545 2.921-2.93 2.748-2.718 2.748-3.353 0-.354-.007-.394-.115-.614-.309-.628-1-1.015-1.601-.896zm-6.334 5.46a1.012 1.012 0 0 0-.442.003c-.439.08-.517.141-1.69 1.308l-1.087 1.082.193.06c.107.034.256.098.332.143.177.107 2.418 2.325 2.617 2.592.084.111.18.295.215.408l.067.207 1.074-1.074c1.294-1.292 1.307-1.31 1.307-1.918 0-.589-.022-.623-1.092-1.697-.952-.955-1.043-1.023-1.494-1.113zm-3.737 2.78a1.45 1.45 0 0 0-.693.135c-.236.11-.403.27-3.434 3.304-3.447 3.451-3.325 3.314-3.414 3.797-.05.273 0 .574.145.866l.107.216-2.027 2.032c-1.802 1.805-2.033 2.047-2.068 2.183-.138.525.438.925.9.625.088-.057 1.034-.98 2.101-2.05l1.942-1.944.422.42.424.422-2.03 2.033c-1.519 1.521-2.035 2.058-2.052 2.139-.013.059-.03.127-.038.15-.042.142.13.437.323.555.124.075.378.09.5.03.043-.023.986-.949 2.097-2.058l2.02-2.015.246.123c.233.117.265.123.623.123.647 0 .344.258 4.002-3.393 3.053-3.046 3.197-3.199 3.324-3.455.125-.25.134-.288.133-.592 0-.28-.016-.359-.105-.56-.095-.213-.219-.348-1.366-1.502-.693-.698-1.333-1.316-1.422-1.373a1.371 1.371 0 0 0-.66-.211z" id="path1180" fill="#fff" fill-opacity="1" stroke-width=".036"/></svg>