<svg xmlns="http://www.w3.org/2000/svg" xmlns:xlink="http://www.w3.org/1999/xlink" width="48" height="48" version="1.1" id="svg38"><defs id="defs22"><linearGradient id="linearGradient4488"><stop id="stop4490" offset="0" stop-color="#000" stop-opacity=".047"/><stop id="stop4492" offset="1" stop-color="#000" stop-opacity="0"/></linearGradient><style id="style4511"/><style id="style4511-26"/><style id="style4511-9"/><style id="style4552"/><style id="style4511-2"/><linearGradient xlink:href="#linearGradient4488" id="linearGradient4546" gradientUnits="userSpaceOnUse" gradientTransform="translate(-62.497 1.994) scale(.3038)" x1="288.112" y1="141.785" x2="287.575" y2="79.008"/></defs><style id="style4485" type="text/css"/><path d="M3.141 26.22v1.67c0 9.573 5.583 17.281 17.146 17.281h6.93c15.133 0 17.837-11.322 17.837-17.282v-1.668c0 5.96-2.704 17.282-17.837 17.282h-6.93c-11.563 0-17.146-7.708-17.146-17.282z" id="path4528" opacity="1" fill="url(#linearGradient4546)" fill-opacity="1" stroke="none" stroke-width="1.1" stroke-linecap="square" stroke-linejoin="bevel" stroke-miterlimit="4" stroke-dasharray="none" stroke-dashoffset="0" stroke-opacity=".078"/><path d="M19.754 2.742h8.495c13.908 0 16.805 11.247 16.805 17.282v7.124c0 5.96-2.704 17.282-17.837 17.282h-6.93c-11.562 0-17.146-7.708-17.146-17.282v-7.124c0-9.574 5.47-17.282 16.613-17.282z" id="path4530" opacity="1" fill="#10cd0b" fill-opacity="1" stroke="#000" stroke-width=".334" stroke-linecap="square" stroke-linejoin="bevel" stroke-miterlimit="4" stroke-dasharray="none" stroke-dashoffset="0" stroke-opacity=".078"/><path d="M9.503 13.678c.234 2.58 2.112 3.175 2.215 5.93.054 1.163-1.477 3.84-1.461 5.387.007.733.365 1.42.968 1.845 1.144.805 3.544 1.131 6.744 1.131h.192c-2.703 0-4.73.718-5.695 1.361-.51.34-.812.89-.819 1.477.118 3.924.663 8.476 5.16 8.598 3.487-.04 5.085-3.698 5.782-7.104a1.422 1.422 0 0 0 2.416 0c.697 3.406 2.294 7.064 5.78 7.104 4.498-.122 5.043-4.674 5.161-8.598a1.802 1.802 0 0 0-.818-1.477c-.966-.643-2.992-1.36-5.696-1.36h.192c3.2 0 5.6-.327 6.744-1.132a2.284 2.284 0 0 0 .969-1.845c.015-1.548-1.516-4.224-1.461-5.387.102-2.755 1.98-3.35 2.215-5.93-6.323 0-11.21 7.788-12.918 12.006-.538-1.276.767-1.34.767-2.715 0-.494-.172-.944-.453-1.307l2.598-5.484c-2.128-.03-2.882 2.742-3.117 4.998a2.131 2.131 0 0 0-2.338-.004c-.237-2.255-.989-5.024-3.116-4.994l2.596 5.48a2.125 2.125 0 0 0-.457 1.311c0 1.376 1.305 1.439.768 2.715-1.708-4.218-6.596-12.006-12.918-12.006zm3.523 2.145a.715.715 0 0 1 .05 0 .715.715 0 0 1 .716.713.715.715 0 0 1-.715.714.715.715 0 0 1-.715-.714.715.715 0 0 1 .664-.713zm21.49 0a.715.715 0 0 1 .715.713.715.715 0 0 1-.715.714.715.715 0 0 1-.715-.714.715.715 0 0 1 .715-.713zm-18.94 3.304A1.072 1.072 0 0 1 16.65 20.2a1.072 1.072 0 0 1-1.072 1.072 1.072 1.072 0 0 1-1.072-1.072 1.072 1.072 0 0 1 1.072-1.073zm16.44 0a1.072 1.072 0 0 1 1.07 1.073 1.072 1.072 0 0 1-1.07 1.072 1.072 1.072 0 0 1-1.072-1.072 1.072 1.072 0 0 1 1.072-1.073zM13.792 22.97a1.43 1.43 0 0 1 1.427 1.43 1.43 1.43 0 0 1-1.427 1.428 1.43 1.43 0 0 1-1.43-1.428 1.43 1.43 0 0 1 1.43-1.43zm20.01 0a1.43 1.43 0 0 1 1.43 1.43 1.43 1.43 0 0 1-1.43 1.428 1.43 1.43 0 0 1-1.428-1.428 1.43 1.43 0 0 1 1.427-1.43zm-18.94 7.861a1.072 1.072 0 0 1 1.072 1.073 1.072 1.072 0 0 1-1.072 1.072 1.072 1.072 0 0 1-1.07-1.072 1.072 1.072 0 0 1 1.07-1.073zm17.867 0a1.072 1.072 0 0 1 1.072 1.073 1.072 1.072 0 0 1-1.072 1.072 1.072 1.072 0 0 1-1.07-1.072 1.072 1.072 0 0 1 1.07-1.073zm-16.08 4.288a1.43 1.43 0 0 1 1.43 1.43 1.43 1.43 0 0 1-1.43 1.429 1.43 1.43 0 0 1-1.43-1.43 1.43 1.43 0 0 1 1.43-1.43zm14.295 0a1.43 1.43 0 0 1 1.43 1.43 1.43 1.43 0 0 1-1.43 1.429 1.43 1.43 0 0 1-1.43-1.43 1.43 1.43 0 0 1 1.43-1.43z" id="path33-9-3-4" fill="#fff" fill-opacity="1"/></svg>