<svg xmlns="http://www.w3.org/2000/svg" xmlns:xlink="http://www.w3.org/1999/xlink" width="48" height="48" version="1.1" id="svg38"><defs id="defs22"><radialGradient id="radialGradient3322" gradientUnits="userSpaceOnUse" cy="-2.065" cx="26.617" gradientTransform="matrix(0 -2.8515 3.7557 0 674.001 398.263)" r="23"><stop id="stop5272" offset="0" stop-color="#696969" stop-opacity="1"/><stop offset=".529" id="stop5274" stop-color="#454545" stop-opacity="1"/><stop id="stop5276" offset="1" stop-color="#393939" stop-opacity="1"/></radialGradient><linearGradient id="linearGradient4488"><stop id="stop4490" offset="0" stop-color="#000" stop-opacity=".047"/><stop id="stop4492" offset="1" stop-color="#000" stop-opacity="0"/></linearGradient><style id="style4511"/><style id="style4511-26"/><style id="style4511-9"/><style id="style4552"/><style id="style4511-2"/><linearGradient gradientTransform="matrix(.3082 0 0 .3038 -64.056 2.216)" xlink:href="#linearGradient4488" id="linearGradient4160" x1="288.112" y1="141.785" x2="287.575" y2="79.008" gradientUnits="userSpaceOnUse"/><linearGradient spreadMethod="reflect" gradientUnits="userSpaceOnUse" y2="83.578" x2="56" y1="288" x1="56" id="linearGradient4216" xlink:href="#linearGradient4210" gradientTransform="matrix(.5 0 0 .5 12 10)"/><linearGradient id="linearGradient4210"><stop id="stop4212" offset="0" stop-color="#fff" stop-opacity="1"/><stop offset=".646" id="stop4218" stop-color="#f9f9f9" stop-opacity="1"/><stop id="stop4214" offset="1" stop-color="#f9f9f9" stop-opacity="0"/></linearGradient><clipPath id="clipPath942" clipPathUnits="userSpaceOnUse"><path d="M188.969 44C261.617 44 272 54.357 272 126.938v58.124C272 257.644 261.617 268 188.969 268H115.03C42.383 268 32 257.643 32 185.062v-58.125C32 54.358 42.383 44 115.031 44z" id="path944" display="inline" opacity="1" fill="#46a926" fill-opacity="1" stroke="none" stroke-width="2" stroke-linecap="round" stroke-linejoin="round" stroke-miterlimit="4" stroke-dasharray="none" stroke-dashoffset="0" stroke-opacity="1" enable-background="new"/></clipPath><linearGradient gradientTransform="matrix(.08486 0 0 .08593 3.245 2.269)" gradientUnits="userSpaceOnUse" y2="135.281" x2="256" y1="375" x1="256" id="linearGradient4470" xlink:href="#linearGradient4464"/><linearGradient id="linearGradient4464"><stop offset="0" id="stop4468" stop-color="#57ffb6" stop-opacity="1"/><stop offset="1" id="stop4466" stop-color="#00e382" stop-opacity="1"/></linearGradient><filter height="1.023" y="-.011" width="1.026" x="-.013" id="filter4460" color-interpolation-filters="sRGB"><feGaussianBlur id="feGaussianBlur4462" stdDeviation="1.133"/></filter><linearGradient gradientUnits="userSpaceOnUse" y2="375" x2="256" y1="138" x1="256" id="linearGradient4413" xlink:href="#linearGradient4295"/><linearGradient id="linearGradient4295"><stop id="stop4260" offset="0" stop-color="#000" stop-opacity="0"/><stop offset=".505" id="stop4262" stop-color="#000" stop-opacity="1"/><stop id="stop4264" offset="1" stop-color="#000" stop-opacity="0"/></linearGradient><filter height="1.181" y="-.091" width="1.204" x="-.102" id="filter4415" color-interpolation-filters="sRGB"><feGaussianBlur id="feGaussianBlur4417" stdDeviation="9.064"/></filter><linearGradient xlink:href="#radialGradient3322" id="linearGradient5285" x1="2.367" y1="23.808" x2="45.224" y2="23.808" gradientUnits="userSpaceOnUse"/></defs><style id="style4485" type="text/css"/><g id="g5294"><path id="path4147" d="M2.535 26.443v1.668c0 9.575 5.664 17.282 17.394 17.282h7.031c15.352 0 18.095-11.322 18.095-17.282v-1.668c0 5.96-2.743 17.282-18.095 17.282h-7.03c-11.73 0-17.395-7.708-17.395-17.282z" opacity="1" fill="url(#linearGradient4160)" fill-opacity="1" stroke="none" stroke-width="1.108" stroke-linecap="square" stroke-linejoin="bevel" stroke-miterlimit="4" stroke-dasharray="none" stroke-dashoffset="0" stroke-opacity=".078"/><path id="rect4144" d="M19.389 2.965h8.618c14.11 0 17.048 11.246 17.048 17.282v7.123c0 5.96-2.743 17.282-18.095 17.282h-7.03c-11.73 0-17.395-7.708-17.395-17.282v-7.123c0-9.575 5.55-17.282 16.854-17.282z" opacity="1" fill="url(#linearGradient5285)" fill-opacity="1" stroke="#000" stroke-width=".337" stroke-linecap="square" stroke-linejoin="bevel" stroke-miterlimit="4" stroke-dasharray="none" stroke-dashoffset="0" stroke-opacity=".078"/><path style="marker:none" d="M21.467 12.752l-2.986 6.157V24c-.42.497-.877.999-1.355 1.482-1.57 1.59-3.33 2.98-4.508 3.378l-1.984-2.006-6.081 3.024v14.666h21.725V17.258c-1.309-2.874-2.747-3.946-4.81-4.506zm-8.28 19.677h.003a39.536 39.536 0 0 1-.002 0zm-2.044 1.208h.003a43.927 43.927 0 0 1-.003 0z" id="path4505-6" color="#000" display="inline" overflow="visible" visibility="visible" opacity=".05" fill="red" fill-opacity="0" fill-rule="nonzero" stroke="none" stroke-width="6.831" enable-background="accumulate"/><path transform="matrix(.08486 0 0 .08593 3.245 2.097)" style="marker:none" d="M155.411 138v240s121.725-49.198 221.19-120.076c0-.022-.012-.04-.025-.064a.456.456 0 0 0-.045-.079.611.611 0 0 1-.05-.079.165.165 0 0 1-.026-.075C271.54 184.488 155.411 138 155.411 138z" id="path4405" color="#000" display="inline" overflow="visible" visibility="visible" opacity=".4" fill="url(#linearGradient4413)" fill-opacity="1" fill-rule="nonzero" stroke="none" stroke-width="6" filter="url(#filter4415)" enable-background="accumulate"/><path transform="matrix(.08486 0 0 .08593 3.245 2.097)" style="marker:none" d="M155.411 138v240s121.725-49.198 221.19-120.076c0-.022-.012-.04-.025-.064a.456.456 0 0 0-.045-.079.611.611 0 0 1-.05-.079.165.165 0 0 1-.026-.075C271.54 184.488 155.411 138 155.411 138z" id="path4454" color="#000" display="inline" overflow="visible" visibility="visible" opacity=".1" fill="#000" fill-opacity="1" fill-rule="nonzero" stroke="none" stroke-width="6" filter="url(#filter4460)" enable-background="accumulate"/><path id="path4360" d="M16.434 13.955v20.622s10.33-4.227 18.77-10.318c0-.001 0-.003-.002-.005a.038.038 0 0 0-.004-.007l-.004-.007a.016.016 0 0 1-.002-.006c-8.903-6.285-18.758-10.28-18.758-10.28z" style="marker:none" color="#000" display="inline" overflow="visible" visibility="visible" fill="url(#linearGradient4470)" fill-opacity="1" fill-rule="nonzero" stroke="none" stroke-width=".512" enable-background="accumulate"/><path transform="matrix(.14614 0 0 .14981 1.27 1.433)" clip-path="url(#clipPath942)" id="path4282" d="M40 52v16h20V52zm204 0v16h20V52zM40 76v16h20V76zm204 0v16h20V76zM40 100v16h20v-16zm204 0v16h20v-16zM40 124v16h20v-16zm204 0v16h20v-16zM40 148v16h20v-16zm204 0v16h20v-16zM40 172v16h20v-16zm204 0v16h20v-16zM40 196v16h20v-16zm204 0v16h20v-16zM40 220v16h20v-16zm204 0v16h20v-16zM40 244v16h20v-16zm204 0v16h20v-16z" style="marker:none" color="#000" display="inline" overflow="visible" visibility="visible" opacity=".3" fill="url(#linearGradient4216)" fill-opacity="1" fill-rule="nonzero" stroke="none" stroke-width="2" stroke-linecap="butt" stroke-linejoin="miter" stroke-miterlimit="4" stroke-dasharray="none" stroke-dashoffset="0" stroke-opacity="1" enable-background="accumulate"/></g></svg>