<svg xmlns="http://www.w3.org/2000/svg" xmlns:xlink="http://www.w3.org/1999/xlink" width="48" height="48" version="1.1" id="svg38"><defs id="defs22"><linearGradient id="linearGradient4488"><stop id="stop4490" offset="0" stop-color="#000" stop-opacity=".047"/><stop id="stop4492" offset="1" stop-color="#000" stop-opacity="0"/></linearGradient><style id="style4511"/><style id="style4511-26"/><style id="style4511-9"/><style id="style4552"/><style id="style4511-2"/><linearGradient xlink:href="#linearGradient4488" id="linearGradient4548" gradientUnits="userSpaceOnUse" gradientTransform="translate(-62.55 1.994) scale(.3038)" x1="288.112" y1="141.785" x2="287.575" y2="79.008"/></defs><style id="style4485" type="text/css"/><path id="path4532" d="M3.088 26.22v1.67c0 9.573 5.583 17.281 17.146 17.281h6.93c15.133 0 17.837-11.322 17.837-17.282v-1.668c0 5.96-2.704 17.282-17.837 17.282h-6.93c-11.563 0-17.146-7.708-17.146-17.282z" opacity="1" fill="url(#linearGradient4548)" fill-opacity="1" stroke="none" stroke-width="1.1" stroke-linecap="square" stroke-linejoin="bevel" stroke-miterlimit="4" stroke-dasharray="none" stroke-dashoffset="0" stroke-opacity=".078"/><path id="path4534" d="M19.701 2.742h8.495c13.908 0 16.805 11.247 16.805 17.282v7.124c0 5.96-2.704 17.282-17.837 17.282h-6.93c-11.562 0-17.146-7.708-17.146-17.282v-7.124c0-9.574 5.47-17.282 16.613-17.282z" opacity="1" fill="#516f9e" fill-opacity="1" stroke="#000" stroke-width=".334" stroke-linecap="square" stroke-linejoin="bevel" stroke-miterlimit="4" stroke-dasharray="none" stroke-dashoffset="0" stroke-opacity=".078"/><g transform="translate(-.265 -1.31)" id="g28831" fill="#fff" stroke-miterlimit="4" stroke-dasharray="none"><path id="path31847" d="M24.895 13.262c-8.283-.002-8.73.003-8.988.087-.421.139-.703.372-.881.729l-.154.306v.896c0 .492-.014 1.132-.031 1.42l-.032.524h-2.104v1.035h3.186l.032-1.043c.018-.573.034-1.456.034-1.962v-.92l8.697-.035 8.699-.036.167.16.165.162v6.183c0 3.913-.019 6.246-.05 6.355-.046.165-.572.83-1.345 1.7-.356.4-1.57 1.754-1.803 2.012l-.126.139.369.336c.202.185.385.326.406.313.063-.04 1.84-2.02 2.453-2.733.661-.77.94-1.16 1.081-1.52.1-.251.1-.322.088-6.542l-.014-6.287-.138-.292c-.189-.405-.42-.67-.73-.84l-.265-.145zM14.628 20.82l-.012 1.145-.014 1.146-.924.012-.923.014v1.081h2.856V20.82h-.492zm-.1 5.811v2.66h-1.823v1.082h2.858V26.63h-.518zm-.097 6.076v.263c0 .41.137.985.34 1.417.428.912 1.207 1.598 2.21 1.94l.379.13 5.86.023 8.556.038 2.697.012v-1.084l-7.793-.004c-4.287-.003-8.15-.019-8.588-.038-.792-.035-.797-.037-1.178-.225-.819-.405-1.45-1.344-1.45-2.155 0-.215.002-.215-.627-.277l-.406-.04z" stroke="none" stroke-width=".019" stroke-opacity="1"/><path d="M20.54 29.473a3.52 3.52 0 0 1-2.967-2.957 4.18 4.18 0 0 1 .01-1.098 3.516 3.516 0 0 1 2.728-2.847c.173-.04.23-.043.667-.042.773.002 1.114.075 1.687.365.865.436 1.55 1.305 1.784 2.26.035.143.102.552.102.623 0 .004-.182.008-.405.008h-.404l-.012-.095a2.738 2.738 0 0 0-1.354-2.04 2.704 2.704 0 0 0-3.982 1.811c-.035.163-.041.238-.041.54 0 .303.006.379.042.54.108.483.315.896.622 1.243.411.464.972.777 1.582.882.18.032.41.033 4.466.033 3.547 0 4.3-.004 4.412-.025.845-.154 1.51-.8 1.685-1.638a2.092 2.092 0 0 0-1.099-2.27c-.37-.184-.595-.226-1.213-.226h-.438v-.104c0-.15-.033-.476-.065-.652a3.64 3.64 0 0 0-1.893-2.558 3.592 3.592 0 0 0-3.644.176l-.198.129-.262-.047c-.144-.026-.36-.06-.479-.076a4.143 4.143 0 0 1-.242-.037c-.035-.01.138-.186.369-.372a4.421 4.421 0 0 1 2.06-.937c.2-.035.292-.04.7-.041.526-.001.706.02 1.12.126a4.45 4.45 0 0 1 3.248 3.43l.033.166.163.012a2.885 2.885 0 0 1 2.646 2.386c.043.252.047.658.008.907a2.894 2.894 0 0 1-2.047 2.345c-.389.115-.124.11-4.884.107-3.626-.001-4.357-.006-4.505-.027z" id="path13272-5" fill-opacity="1" stroke-width=".8"/></g></svg>