<svg xmlns:osb="http://www.openswatchbook.org/uri/2009/osb" xmlns="http://www.w3.org/2000/svg" xmlns:xlink="http://www.w3.org/1999/xlink" width="48" height="48" version="1.1" id="svg38"><defs id="defs22"><linearGradient id="linearGradient4488"><stop id="stop4490" offset="0" stop-color="#000" stop-opacity=".047"/><stop id="stop4492" offset="1" stop-color="#000" stop-opacity="0"/></linearGradient><style id="style4511"/><style id="style4511-26"/><style id="style4511-9"/><style id="style4552"/><style id="style4511-2"/><linearGradient xlink:href="#linearGradient4488" id="linearGradient4540" gradientUnits="userSpaceOnUse" gradientTransform="translate(-62.889 1.994) scale(.3038)" x1="288.112" y1="141.785" x2="287.575" y2="79.008"/><linearGradient osb:paint="solid" id="linearGradient5293"><stop id="stop5295" offset="0" stop-color="#9a89c0" stop-opacity="1"/></linearGradient></defs><style id="style4485" type="text/css"/><path id="path4516" d="M2.75 26.22v1.67c0 9.573 5.583 17.281 17.146 17.281h6.93c15.132 0 17.836-11.322 17.836-17.282v-1.668c0 5.96-2.704 17.282-17.836 17.282h-6.93C8.333 43.503 2.75 35.795 2.75 26.22z" opacity="1" fill="url(#linearGradient4540)" fill-opacity="1" stroke="none" stroke-width="1.1" stroke-linecap="square" stroke-linejoin="bevel" stroke-miterlimit="4" stroke-dasharray="none" stroke-dashoffset="0" stroke-opacity=".078"/><path id="path4518" d="M3.065 28.165v-8.58c0-14.045 11.247-16.97 17.282-16.97h7.123c5.96 0 17.282 2.73 17.282 18.013v6.999c0 11.677-7.707 17.316-17.282 17.316h-7.123c-9.574 0-17.282-5.525-17.282-16.778z" opacity="1" fill="#fff8c1" fill-opacity="1" stroke="#000" stroke-width=".336" stroke-linecap="square" stroke-linejoin="bevel" stroke-miterlimit="4" stroke-dasharray="none" stroke-dashoffset="0" stroke-opacity=".078"/><g id="g1749" transform="matrix(.7797 0 0 .77616 7.083 6.156)" fill="none" fill-rule="evenodd" stroke="none" stroke-width="1"><path id="path5990-1_12_" d="M42.022 20.644c0 11.279-9.144 20.423-20.423 20.423-11.279 0-20.423-9.144-20.423-20.423C1.176 9.365 10.32.221 21.599.221c11.279 0 20.423 9.144 20.423 20.423z" fill="#fff8c1"/><g transform="translate(2 1)" id="path6108-3_9_" fill="#dd4814"><path id="Shape" d="M19.598 39.228C8.8 39.228.015 30.443.015 19.645.015 8.847 8.8.062 19.598.062c10.799 0 19.584 8.785 19.584 19.583 0 10.798-8.785 19.583-19.584 19.583zm0-37.167c-9.695 0-17.583 7.888-17.583 17.583 0 9.695 7.888 17.583 17.583 17.583 9.696 0 17.584-7.888 17.584-17.583 0-9.695-7.888-17.583-17.584-17.583z"/></g><path id="path6236-1_12_" d="M.085 35.079c.202-3.607 3.504-5.309 5.862-5.335 2.106-.024 4.295 1.365 4.842 2.531 1.754-.475 3.314-.641 4.665.108 2.131-.778 3.738-.491 4.978.286 3.114-1.029 4.949-.212 4.949-.212l.091-1.725 4.124-.608-.035 2.22 2.05.017c1.827-.962 3.687-.588 5.033.252 2.848-.932 4.456-.684 6.444.319l-.825 3.883c-.609-.233-.787-.625-1.879-.428l-.035 5.425-3.72-.035c-.054-.269-.037-.396-.091-.665-2.311 1.129-3.547.752-4.837.322-2.06.734-3.314.609-5.052.107-1.917.448-3.834.52-5.912.054-3.12.813-4.94.49-7.251-.955-.005.59-.01.436-.039.923-.676-.004-1.726-.036-2.519-.04l-.563 2.698s-5.921-.327-5.856-2.587C.928 41.254-.066 37.78.085 35.079z" fill="#dd4814"/><g id="g1746" transform="translate(1 30)" fill="#fff8c1"><path id="path1732" d="M8.855 13.144c-.509-.041-1.081-.206-1.591-.334-1.149-.288-2.164-.638-2.19-1.731-1.34.009-2.441-.462-3.305-1.413C.905 8.716.473 7.521.473 6.08c0-1.607.437-2.881 1.312-3.823C2.66 1.316 3.856.845 5.373.845c1.366 0 2.473.462 3.325 1.387.852.925 1.277 2.129 1.277 3.612 0 1.316-.3 2.422-.899 3.317s-1.45 1.473-2.553 1.732c-.092.733.604.709 1.33.91.475.132.986.24 1.28.276zM1.83 5.978c0 1.198.31 2.158.928 2.88.618.723 1.425 1.084 2.42 1.084 1.069 0 1.908-.346 2.518-1.039.609-.693.914-1.661.914-2.906 0-1.278-.298-2.264-.895-2.959-.597-.695-1.415-1.043-2.453-1.043-1.021 0-1.849.367-2.482 1.1-.632.734-.95 1.694-.95 2.883z"/><path id="path1734" d="M14.253 5.083c-.211-.149-.502-.223-.873-.223-.49 0-.896.227-1.215.681-.318.454-.478 1.051-.478 1.792v3.58H10.42v-7.07h1.267v1.438h.026c.362-1.04.986-1.559 1.874-1.559.288 0 .511.032.666.096z"/><path id="path1736" d="M19.787 7.698h-5.002c.021.754.23 1.337.627 1.748.397.412.95.617 1.661.617.801 0 1.536-.253 2.204-.76v1.118c-.629.439-1.463.659-2.5.659-1.034 0-1.842-.324-2.421-.972-.579-.647-.869-1.547-.869-2.697 0-1.082.317-1.975.953-2.678.636-.703 1.426-1.055 2.369-1.055.935 0 1.666.298 2.191.892.525.595.788 1.427.788 2.497v.631zm-1.266-1.003c-.005-.639-.158-1.134-.459-1.484-.302-.349-.725-.523-1.273-.523-.504 0-.94.185-1.309.555-.369.371-.6.855-.695 1.452z"/><path id="path1738-3" d="M20.318 4.336c.711-.439 1.531-.659 2.463-.659 1.723 0 2.585.896 2.585 2.685v4.551h-1.254V9.82h-.032c-.496.84-1.227 1.259-2.191 1.259-.695 0-1.246-.186-1.655-.556-.409-.37-.614-.872-.614-1.502 0-1.321.791-2.09 2.372-2.308l2.12-.294c0-1.154-.483-1.731-1.448-1.731-.857 0-1.64.285-2.346.856zm2.12 3.254c-.585.076-.99.222-1.211.434-.222.213-.333.512-.333.895 0 .337.12.611.362.825.241.213.56.319.957.319.551 0 1.006-.192 1.363-.576.358-.383.537-.865.537-1.444v-.678z"/><path id="path1740" d="M29.575 10.843c-.276.149-.648.224-1.118.224-1.28 0-1.919-.701-1.919-2.104V4.879H25.31V3.843h1.228V2.142l1.26-.396v2.096h1.777v1.036h-1.777v3.861c0 .464.079.797.239.997.16.2.425.301.795.301.284 0 .532-.079.743-.237z"/><path id="path1742" d="M29.162 7.455c0-1.168.33-2.089.989-2.765.66-.675 1.553-1.014 2.682-1.014 1.073 0 1.914.325 2.524.975.609.65.914 1.549.914 2.695 0 1.116-.325 2.018-.976 2.704-.65.686-1.523 1.029-2.618 1.029-1.068 0-1.921-.333-2.559-.997-.637-.664-.956-1.541-.956-2.627zm1.293-.039c0 .814.208 1.456.624 1.924.416.469.975.703 1.677.703.724 0 1.275-.228 1.654-.687.379-.459.569-1.115.569-1.972 0-.861-.19-1.522-.569-1.981-.379-.46-.931-.691-1.654-.691-.711 0-1.273.241-1.684.723-.411.482-.617 1.142-.617 1.981z"/><path id="path1744" d="M40.564 5.083c-.211-.149-.502-.223-.873-.223-.49 0-.896.227-1.215.681-.318.454-.478 1.051-.478 1.792v3.58h-1.267v-7.07h1.267v1.438h.026c.362-1.04.986-1.559 1.874-1.559.288 0 .511.032.666.096z"/></g><path id="path6309-3_12_" d="M13.383 26.286l-.524-3.101 3.191-.54 3.191-.54.524 3.101.524 3.101-3.191.539-3.191.54zm5.484-.927l-.372-2.202-2.247.38-2.248.38.372 2.202.372 2.202 2.247-.38 2.247-.38zm-3.686.623l-.22-1.303 1.393-.236 1.393-.236.22 1.303.22 1.303-1.393.236-1.393.236zm5.856 1.275l-.152-.899.449-.076.449-.076-.068-.404-.068-.405-.449.076-.449.076-.076-.449-.076-.449.449-.076.449-.076-.076-.449-.076-.449.449-.076.449-.076-.076-.449-.076-.449-.899.152-.899.152-.152-.899-.152-.899.449-.076.449-.076.076.449.076.449.449-.076.449-.076-.152-.899-.152-.899-1.348.228-1.348.228.076.449.076.449-.899.152-.899.152-.076-.449-.076-.449-.494.084-.494.084.076.449.076.449-.899.152-.899.152-.076-.449-.076-.449-.899.152-.899.152-.076-.449-.076-.449.494-.084.494-.084-.076-.449-.076-.449.404-.068.404-.068-.076-.449-.076-.449-.899.152-.899.152-.076-.449-.076-.449.899-.152.899-.152.076.449.076.449.449-.076.449-.076-.076-.449-.076-.449.449-.076.449-.076.076.449.076.449-.449.076-.449.076.076.449.076.449-.449.076-.449.076.152.899.152.899.449-.076.449-.076-.076-.449-.076-.449.944-.16.944-.16-.152-.899-.152-.899.449-.076.449-.076-.076-.449-.076-.449.899-.152.899-.152-.312-1.843-.312-1.843.449-.076.449-.076-.076-.449-.076-.449-.449.076-.449.076-.144-.854-.144-.854.449-.076.449-.076-.084-.494-.084-.494.449-.076.449-.076.304 1.798.304 1.798-.449.076-.449.076.236 1.393.236 1.393.449-.076.449-.076-.076-.449-.076-.449.449-.076.449-.076-.076-.449-.076-.449.449-.076.449-.076-.084-.494-.084-.494-.449.076-.449.076-.076-.449-.076-.449.449-.076.449-.076-.076-.449-.076-.449-.449.076-.449.076-.152-.899-.152-.899.899-.152.899-.152.084.494.084.494-.449.076-.449.076.068.404.068.404.449-.076.449-.076.076.449.076.449-.449.076-.449.076.076.449.076.449.449-.076.449-.076.312 1.843.312 1.843-.899.152-.899.152.076.449.076.449-.449.076-.449.076.076.449.076.449.449-.076.449-.076.076.449.076.449.449-.076.449-.076-.076-.449-.076-.449.899-.152.899-.152-.152-.899-.152-.899 1.348-.228 1.348-.228.076.449.076.449.449-.076.449-.076-.076-.449-.076-.449.854-.144.854-.144.076.449.076.449.449-.076.449-.076.304 1.798.304 1.798-.449.076-.449.076.152.899.152.899.449-.076.449-.076.296 1.753.296 1.753-.449.076-.449.076-.068-.404-.068-.404-.449.076-.449.076.068.404.068.404-.854.144-.854.144.152.899.152.899-.899.152-.899.152-.076-.449-.076-.449-.899.152-.899.152.076.449.076.449-.899.152-.899.152-.076-.449-.076-.449.899-.152.899-.152-.076-.449-.076-.449-.449.076-.449.076-.068-.404-.068-.405-.449.076-.449.076.068.404.068.404-.449.076-.449.076.076.449.076.449-.449.076-.449.076.076.449.076.449-.449.076-.449.076zm5.996-2.816l-.144-.854-.449.076-.449.076-.076-.449-.076-.449.899-.152.899-.152-.076-.449-.076-.449-.449.076-.449.076-.076-.449-.076-.449.899-.152.899-.152.304 1.798.304 1.798.854-.144.854-.144-.076-.449-.076-.449.449-.076.449-.076-.152-.899-.152-.899-.854.144-.854.144-.076-.449-.076-.449.404-.068.404-.068-.076-.449-.076-.449.449-.076.449-.076-.304-1.798-.304-1.798-.854.144-.854.144.076.449.076.449-.449.076-.449.076-.076-.449-.076-.449-.449.076-.449.076.076.449.076.449-.899.152-.899.152.076.449.076.449-.899.152-.899.152.076.449.076.449-.449.076-.449.076-.076-.449-.076-.449-.449.076-.449.076-.076-.449-.076-.449-.449.076-.449.076-.152-.899-.152-.899-.449.076-.449.076.076.449.076.449-.899.152-.899.152.076.449.076.449.899-.152.899-.152.076.449.076.449.899-.152.899-.152.076.449.076.449.449-.076.449-.076.076.449.076.449.449-.076.449-.076.076.449.076.449-.899.152-.899.152.076.449.076.449 1.348-.228 1.348-.228-.076-.449-.076-.449.449-.076.449-.076.152.899.152.899-.899.152-.899.152.152.899.152.899.449-.076.449-.076.068.404.068.405.899-.152.899-.152zm-3.525-4.443l-.076-.449.449-.076.449-.076.076.449.076.449-.449.076-.449.076zm1.797-.304l-.076-.449.449-.076.449-.076-.076-.449-.076-.449 1.348-.228 1.348-.228.076.449.076.449-.449.076-.449.076.076.449.076.449-.449.076-.449.076-.076-.449-.076-.449-.449.076-.449.076.076.449.076.449-.449.076-.449.076zm-2.835 5.102l-.076-.449-.449.076-.449.076.076.449.076.449.449-.076.449-.076zm-3.609-4.937l-.076-.449-.899.152-.899.152.076.449.076.449.899-.152.899-.152zm3.735-5.255l-.076-.449-.449.076-.449.076.076.449.076.449.449-.076.449-.076zm8.315 11.446l-.076-.449.449-.076.449-.076.076.449.076.449-.449.076-.449.076zM11.256 13.702l-.539-3.191 3.191-.539 3.191-.54.539 3.191.539 3.191-3.191.54-3.191.539zm5.491-.882l-.38-2.247-2.247.38-2.247.38.38 2.247.38 2.247 2.247-.38 2.247-.38zm-3.693.578l-.236-1.393 1.393-.236 1.393-.236.236 1.393.236 1.393-1.393.236-1.393.236zm10.876-1.839l-.539-3.191 3.101-.524 3.101-.524.539 3.191.539 3.191-3.101.524-3.101.524zm5.311-.852l-.38-2.247-2.202.372-2.202.372.38 2.247.38 2.247 2.202-.372 2.202-.372zm-3.513.548l-.236-1.393 1.303-.22 1.303-.22.236 1.393.236 1.393-1.303.22-1.303.22z" fill="#dd4814"/></g></svg>