<svg xmlns="http://www.w3.org/2000/svg" xmlns:xlink="http://www.w3.org/1999/xlink" width="48" height="48" version="1.1" id="svg38"><defs id="defs22"><linearGradient id="linearGradient4488"><stop id="stop4490" offset="0" stop-color="#000" stop-opacity=".047"/><stop id="stop4492" offset="1" stop-color="#000" stop-opacity="0"/></linearGradient><style id="style4511"/><style id="style4511-26"/><style id="style4511-9"/><style id="style4552"/><style id="style4511-2"/><linearGradient xlink:href="#linearGradient4488" id="linearGradient4546" gradientUnits="userSpaceOnUse" gradientTransform="translate(-62.497 1.994) scale(.3038)" x1="288.112" y1="141.785" x2="287.575" y2="79.008"/><style id="style4511-6"/><style id="style4511-26-3"/><style id="style4511-9-6"/><style id="style4552-8"/><style id="style4511-2-9"/><style id="style4511-62"/><style id="style4511-26-4"/><style id="style4511-9-8"/><style id="style4552-5"/><style id="style4511-2-8"/></defs><style id="style4485" type="text/css"/><path d="M3.141 26.22v1.67c0 9.573 5.583 17.281 17.146 17.281h6.93c15.133 0 17.837-11.322 17.837-17.282v-1.668c0 5.96-2.704 17.282-17.837 17.282h-6.93c-11.563 0-17.146-7.708-17.146-17.282z" id="path4528" opacity="1" fill="url(#linearGradient4546)" fill-opacity="1" stroke="none" stroke-width="1.1" stroke-linecap="square" stroke-linejoin="bevel" stroke-miterlimit="4" stroke-dasharray="none" stroke-dashoffset="0" stroke-opacity=".078"/><path d="M19.754 2.742h8.495c13.908 0 16.805 11.247 16.805 17.282v7.124c0 5.96-2.704 17.282-17.837 17.282h-6.93c-11.562 0-17.146-7.708-17.146-17.282v-7.124c0-9.574 5.47-17.282 16.613-17.282z" id="path4530" opacity="1" fill="#4eb54e" fill-opacity="1" stroke="#000" stroke-width=".334" stroke-linecap="square" stroke-linejoin="bevel" stroke-miterlimit="4" stroke-dasharray="none" stroke-dashoffset="0" stroke-opacity=".078"/><g transform="translate(-.647 2.002) scale(.97003)" id="g11694"><path d="M18.85 10.432c-4.002 0-7 2.001-7 11.5 0 7.837 2.134 10.565 5.05 11.281.521 6.037 6.95 4.219 6.95 4.219v-2s-2.592.861-2.953-2.24c2.868-.753 4.955-3.51 4.955-11.26 0-9.499-2.999-11.5-7-11.5zm0 2c1.996 0 2.998 1.652 2.998 9.5 0 7.846-1.002 9.5-2.998 9.5-1.996 0-3-1.653-3-9.5 0-7.847 1.004-9.5 3-9.5zm12 0l-1.004 4h-1.002v1.998h1.002v11c0 6 6 2.5 6 2.5v-2s-1.998 1.5-1.998-.5v-11h1.998v-1.998h-1.998v-4z" id="path33-0-4-6" fill="#fff" stroke="none" stroke-width=".101" stroke-linejoin="bevel" stroke-miterlimit="4" stroke-dasharray="none" stroke-opacity="1"/></g><style type="text/css" id="style4485-2"/><style id="style4485-9" type="text/css"/></svg>