<svg xmlns="http://www.w3.org/2000/svg" xmlns:xlink="http://www.w3.org/1999/xlink" width="48" height="48" version="1.1" id="svg38"><defs id="defs22"><linearGradient id="linearGradient4488"><stop id="stop4490" offset="0" stop-color="#000" stop-opacity=".047"/><stop id="stop4492" offset="1" stop-color="#000" stop-opacity="0"/></linearGradient><style id="style4511"/><style id="style4511-26"/><style id="style4511-9"/><style id="style4552"/><style id="style4511-2"/><linearGradient xlink:href="#linearGradient4488" id="linearGradient4546" gradientUnits="userSpaceOnUse" gradientTransform="translate(-62.497 1.994) scale(.3038)" x1="288.112" y1="141.785" x2="287.575" y2="79.008"/></defs><style id="style4485" type="text/css"/><path d="M3.141 26.22v1.67c0 9.573 5.583 17.281 17.146 17.281h6.93c15.133 0 17.837-11.322 17.837-17.282v-1.668c0 5.96-2.704 17.282-17.837 17.282h-6.93c-11.563 0-17.146-7.708-17.146-17.282z" id="path4528" opacity="1" fill="url(#linearGradient4546)" fill-opacity="1" stroke="none" stroke-width="1.1" stroke-linecap="square" stroke-linejoin="bevel" stroke-miterlimit="4" stroke-dasharray="none" stroke-dashoffset="0" stroke-opacity=".078"/><path d="M19.754 2.742h8.495c13.908 0 16.805 11.247 16.805 17.282v7.124c0 5.96-2.704 17.282-17.837 17.282h-6.93c-11.562 0-17.146-7.708-17.146-17.282v-7.124c0-9.574 5.47-17.282 16.613-17.282z" id="path4530" opacity="1" fill="#4eb54e" fill-opacity="1" stroke="#000" stroke-width=".334" stroke-linecap="square" stroke-linejoin="bevel" stroke-miterlimit="4" stroke-dasharray="none" stroke-dashoffset="0" stroke-opacity=".078"/><g transform="translate(-.647 2.002) scale(.97003)" id="g11694"><path d="M18.85 10.432c-4.002 0-7 2.001-7 11.5 0 7.837 2.134 10.565 5.05 11.281.521 6.037 6.95 4.219 6.95 4.219v-2s-2.592.861-2.953-2.24c2.868-.753 4.955-3.51 4.955-11.26 0-9.499-2.999-11.5-7-11.5zm0 2c1.996 0 2.998 1.652 2.998 9.5 0 7.846-1.002 9.5-2.998 9.5-1.996 0-3-1.653-3-9.5 0-7.847 1.004-9.5 3-9.5zm12 0l-1.004 4h-1.002v1.998h1.002v11c0 6 6 2.5 6 2.5v-2s-1.998 1.5-1.998-.5v-11h1.998v-1.998h-1.998v-4z" id="path33-0-4-6" fill="#fff" stroke="none" stroke-width=".101" stroke-linejoin="bevel" stroke-miterlimit="4" stroke-dasharray="none" stroke-opacity="1"/></g><circle id="path4655" cx="38.04" cy="34.481" r="2.39" opacity="1" fill="#f5fdff" fill-opacity=".779" stroke="none" stroke-width=".8" stroke-linecap="round" stroke-linejoin="miter" stroke-miterlimit="4" stroke-dasharray="none" stroke-opacity="1"/><path d="M33.24 41.496c-.22-.323-.884-1.64-1.162-2.3-.336-.8-.677-2.268-.658-2.828.03-.788.278-1.53.73-2.184.574-.827.952-1.169 3.218-2.89 2.752-2.093 3.83-3.072 5.184-4.714a24.262 24.262 0 0 0 1.854-2.68c.248-.432.248-.46.044 1.054-.084.62-.135 1.16-.112 1.195.023.037.262-.274.532-.696l.492-.763-.28 2.359a364.447 364.447 0 0 0-.42 3.715c-.373 3.623-.793 5.222-1.75 6.698-.687 1.06-1.525 1.8-2.976 2.64-1.06.614-2.62 1.186-3.983 1.458-.574.112-.592.112-.71-.063m2.369-.565c2.727-.883 3.83-2.436 4.554-4.76.189-.6-4.03-.415-3.947-1.139.051-.313 5.399-2.486 5.417-2.708.01-.138-4.237 4.875-4.165 3.802.138-2.087-3.123-.07-3.025-.801.035-.246 7.841-10.76 7.835-10.774-.002-.014-.261.353-.578.81-.968 1.413-.196 3.878-1.529 5.063-.385.338-.536 2.71-1.479 3.427-2.606 1.978-5.597 3.313-6.103 4.245-.57 1.038-1.066-1.81-.675-.313.322 1.232 1.46 2.703 1.753 3.022.053.06-2.177-2.14-1.783-2.87.8-1.473.479-3.56.518-3.616.019-.023 5.105-.76 5.289-1.08.187-.318.406-.698.487-.837l1.428-2.448c.708-1.205 1.302-2.202 1.326-2.204.023-.005-.042.15-.147.341-.105.195-.567 1.092-1.025 1.996-1.457 2.873 2.604 6.058.103 8.207l-1.523 1.308-1.349.85c-.291.185-1.72.59-1.381.483m0 0" id="use1177" fill="#8b33eb" fill-opacity="1" fill-rule="nonzero" stroke="none" stroke-width=".598"/></svg>