<svg xmlns="http://www.w3.org/2000/svg" xmlns:xlink="http://www.w3.org/1999/xlink" width="48" height="48" version="1.1" id="svg38"><defs id="defs22"><linearGradient id="linearGradient3764-3" x1="1" x2="47" gradientUnits="userSpaceOnUse" gradientTransform="rotate(-90 -2.483 48.559)"><stop id="stop1312" stop-color="#e1e1e1" stop-opacity="1"/><stop offset="1" id="stop1314" stop-color="#ebebeb" stop-opacity="1"/></linearGradient><linearGradient id="linearGradient4488"><stop id="stop4490" offset="0" stop-color="#000" stop-opacity=".047"/><stop id="stop4492" offset="1" stop-color="#000" stop-opacity="0"/></linearGradient><style id="style4511"/><style id="style4511-26"/><style id="style4511-9"/><style id="style4552"/><style id="style4511-2"/><linearGradient xlink:href="#linearGradient4488" id="linearGradient4471" gradientUnits="userSpaceOnUse" gradientTransform="matrix(.3038 0 0 .3086 -62.47 2.206)" x1="288.112" y1="141.785" x2="287.575" y2="79.008"/><linearGradient xlink:href="#linearGradient3764-3" id="linearGradient1323" x1="3.112" y1="24.139" x2="45.136" y2="24.139" gradientUnits="userSpaceOnUse"/><clipPath id="clipPath-022384706"/></defs><style id="style4485" type="text/css"/><path d="M3.168 26.815v1.695c0 9.725 5.583 17.555 17.146 17.555h6.93c15.132 0 17.836-11.502 17.836-17.555v-1.695c0 6.054-2.704 17.555-17.836 17.555h-6.93c-11.563 0-17.146-7.83-17.146-17.555z" id="path4467" opacity="1" fill="url(#linearGradient4471)" fill-opacity="1" stroke="none" stroke-width="1.109" stroke-linecap="square" stroke-linejoin="bevel" stroke-miterlimit="4" stroke-dasharray="none" stroke-dashoffset="0" stroke-opacity=".078"/><path d="M3.28 28.55v-8.629c0-14.127 11.247-17.07 17.283-17.07h7.123c5.96 0 17.282 2.748 17.282 18.119v7.04c0 11.744-7.708 17.416-17.282 17.416h-7.123c-9.575 0-17.282-5.557-17.282-16.876z" id="path4469" opacity="1" fill="url(#linearGradient1323)" fill-opacity="1" stroke="#000" stroke-width=".337" stroke-linecap="square" stroke-linejoin="bevel" stroke-miterlimit="4" stroke-dasharray="none" stroke-dashoffset="0" stroke-opacity=".078"/><path id="path1249" d="M11.282 24.138h6.987c.366 0 .662.37.662.829v8.841c0 .46-.296.829-.662.829h-6.987c-.366 0-.662-.37-.662-.829v-8.841c0-.46.296-.83.662-.83m0 0" fill="#f14c4c" fill-opacity="1" fill-rule="nonzero" stroke="none" stroke-width="1.045"/><path id="path1251" d="M20.63 17.836h6.988c.365 0 .661.594.661 1.334v14.143c0 .734-.296 1.33-.661 1.33H20.63c-.366 0-.662-.595-.662-1.33V19.17c0-.739.296-1.334.662-1.334m0 0" fill="#26b21e" fill-opacity="1" fill-rule="nonzero" stroke="none" stroke-width="1.045"/><path id="path1253" d="M29.979 13.635h6.987c.366 0 .662.742.662 1.661v17.68c0 .918-.296 1.661-.662 1.661h-6.987c-.366 0-.662-.743-.662-1.662V15.296c0-.919.296-1.661.662-1.661m0 0" fill="#209cc8" fill-opacity="1" fill-rule="nonzero" stroke="none" stroke-width="1.045"/></svg>