<svg xmlns:osb="http://www.openswatchbook.org/uri/2009/osb" xmlns="http://www.w3.org/2000/svg" xmlns:xlink="http://www.w3.org/1999/xlink" width="48" height="48" version="1.1" id="svg38"><defs id="defs22"><linearGradient id="linearGradient4488"><stop id="stop4490" offset="0" stop-color="#000" stop-opacity=".047"/><stop id="stop4492" offset="1" stop-color="#000" stop-opacity="0"/></linearGradient><style id="style4511"/><style id="style4511-26"/><style id="style4511-9"/><style id="style4552"/><style id="style4511-2"/><linearGradient xlink:href="#linearGradient4488" id="linearGradient4540" gradientUnits="userSpaceOnUse" gradientTransform="matrix(.30898 0 0 .30891 -64.296 1.842)" x1="288.112" y1="141.785" x2="287.575" y2="79.008"/><linearGradient osb:paint="solid" id="linearGradient5293"><stop id="stop5295" offset="0" stop-color="#9a89c0" stop-opacity="1"/></linearGradient><linearGradient id="linearGradient3764-6" x1="1" x2="47" gradientUnits="userSpaceOnUse" gradientTransform="rotate(-90 24 24)"><stop stop-color="#d1d1d1" stop-opacity="1" id="stop2-7-6"/><stop offset="1" stop-color="#dbdbdb" stop-opacity="1" id="stop4-5-2"/></linearGradient><linearGradient xlink:href="#linearGradient3764-3675-5" id="linearGradient1425" x1="2.897" y1="23.784" x2="44.92" y2="23.784" gradientUnits="userSpaceOnUse" gradientTransform="matrix(1.01705 0 0 1.01683 -.335 -.185)"/><linearGradient gradientTransform="rotate(-90 -2.746 51.955)" gradientUnits="userSpaceOnUse" x2="47" x1="1" id="linearGradient3764-3675-5"><stop id="stop1358" stop-opacity="1" stop-color="#2481a8"/><stop id="stop1360-3" stop-opacity="1" stop-color="#288eb8" offset="1"/></linearGradient><linearGradient xlink:href="#linearGradient3764-6" id="linearGradient1423" x1="-60.584" y1="32.359" x2="-28.584" y2="32.359" gradientUnits="userSpaceOnUse" gradientTransform="matrix(.89974 0 0 .80528 64.053 2.205)"/></defs><style id="style4485" type="text/css"/><path id="path4516" d="M2.462 26.477v1.696c0 9.736 5.679 17.574 17.438 17.574h7.049c15.39 0 18.14-11.514 18.14-17.574v-1.696c0 6.06-2.75 17.573-18.14 17.573H19.9c-11.76 0-17.438-7.838-17.438-17.573z" opacity="1" fill="url(#linearGradient4540)" fill-opacity="1" stroke="none" stroke-width="1.119" stroke-linecap="square" stroke-linejoin="bevel" stroke-miterlimit="4" stroke-dasharray="none" stroke-dashoffset="0" stroke-opacity=".078"/><path id="path4518" d="M2.783 28.458v-8.722C2.783 5.458 14.22 2.484 20.36 2.484h7.244c6.061 0 17.577 2.776 17.577 18.312v7.115c0 11.87-7.84 17.603-17.577 17.603H20.36c-9.738 0-17.577-5.616-17.577-17.056z" opacity="1" fill="url(#linearGradient1425)" fill-opacity="1" stroke="#000" stroke-width=".341" stroke-linecap="square" stroke-linejoin="bevel" stroke-miterlimit="4" stroke-dasharray="none" stroke-dashoffset="0" stroke-opacity=".078"/><g id="g1379" transform="translate(-.144)"><path id="path1379" d="M16.482 30.921V17.634c0-3.624 2.7-6.845 7.198-6.845 4.499 0 7.198 3.221 7.198 6.845v13.287" fill="none" stroke="#8e8e8e" stroke-width="3.405"/><path id="path1381" d="M23.939 39.537L11.803 28.723a7.715 6.874 0 1 1 12.136-8.297 7.715 6.874 0 1 1 12.136 8.297z" fill="url(#linearGradient1423)" fill-opacity="1" stroke-width=".17"/><ellipse ry="2.416" rx="2.699" id="circle1383" transform="scale(1 -1)" cy="-25.847" cx="23.939" fill="#272727" stroke-width=".17"/><path id="path1385" d="M23.85 26.25l-2.61 6.845h5.398L23.94 26.25z" fill="#272727" stroke-width=".17"/></g></svg>