<svg xmlns="http://www.w3.org/2000/svg" xmlns:xlink="http://www.w3.org/1999/xlink" width="48" height="48" version="1.1" id="svg38"><defs id="defs22"><linearGradient id="linearGradient4488"><stop id="stop4490" offset="0" stop-color="#000" stop-opacity=".047"/><stop id="stop4492" offset="1" stop-color="#000" stop-opacity="0"/></linearGradient><style id="style4511"/><linearGradient gradientUnits="userSpaceOnUse" x2="13" y2="4" x1="43" y1="40" id="a"><stop id="stop2-36753" stop-color="#f27935"/><stop id="stop4-562" stop-color="#f2784b" offset="1"/></linearGradient><style id="style4511-26"/><style id="style4511-9"/><style id="style4552"/><style id="style4511-2"/><linearGradient gradientTransform="translate(-63.205 2.216) scale(.3038)" xlink:href="#linearGradient4488" id="linearGradient4160" x1="288.112" y1="141.785" x2="287.575" y2="79.008" gradientUnits="userSpaceOnUse"/><clipPath id="b-3675"><use id="use948" overflow="visible" xlink:href="#a" x="0" y="0" width="100%" height="100%"/></clipPath></defs><style id="style4485" type="text/css"/><path d="M2.433 26.443v1.668c0 9.575 5.583 17.282 17.146 17.282h6.93c15.133 0 17.837-11.322 17.837-17.282v-1.668c0 5.96-2.704 17.282-17.837 17.282h-6.93c-11.563 0-17.146-7.708-17.146-17.282z" id="path4147" opacity="1" fill="url(#linearGradient4160)" fill-opacity="1" stroke="none" stroke-width="1.1" stroke-linecap="square" stroke-linejoin="bevel" stroke-miterlimit="4" stroke-dasharray="none" stroke-dashoffset="0" stroke-opacity=".078"/><path d="M19.046 2.965h8.495c13.908 0 16.805 11.246 16.805 17.282v7.123c0 5.96-2.704 17.282-17.837 17.282h-6.93c-11.562 0-17.146-7.708-17.146-17.282v-7.123c0-9.575 5.47-17.282 16.613-17.282z" id="rect4144" opacity="1" fill="#e6e6e6" fill-opacity="1" stroke="#000" stroke-width=".334" stroke-linecap="square" stroke-linejoin="bevel" stroke-miterlimit="4" stroke-dasharray="none" stroke-dashoffset="0" stroke-opacity=".078"/><path clip-path="url(#b-3675)" d="M0 37V11l17 13z" id="path951-3" transform="matrix(.16414 0 0 .1812 -56.492 -.302)" fill="#fbbc05"/><path clip-path="url(#b-3675)" d="M0 11l17 13 7-6.1L48 14V0H0z" id="path953" transform="matrix(.16414 0 0 .1812 -56.492 -.302)" fill="#ea4335"/><path clip-path="url(#b-3675)" d="M0 37l30-23 7.9 1L48 0v48H0z" id="path955" transform="matrix(.16414 0 0 .1812 -56.492 -.302)" fill="#34a853"/><path clip-path="url(#b-3675)" d="M48 48L17 24l-4-3 35-10z" id="path957" transform="matrix(.16414 0 0 .1812 -56.492 -.302)" fill="#4285f4"/><g id="g2686" transform="matrix(.84835 0 0 .87459 63.575 3.667)"><g transform="matrix(.8289 0 0 .80396 -74.949 -187.412)" id="g1952" fill="#000" stroke-width="1.674"><path id="rect4" d="M12.106 241.075h1.693v1.655h-1.693z"/><path id="rect6" d="M13.8 241.075h1.693v1.655H13.8z"/><path id="rect8" d="M15.493 241.075h1.693v1.655h-1.693z"/><path id="rect10" d="M17.186 241.075h1.693v1.655h-1.693z"/><path id="rect12" d="M18.88 241.075h1.693v1.655H18.88z"/><path id="rect14" d="M20.573 241.075h1.693v1.655h-1.693z"/><path id="rect16" d="M22.266 241.075h1.693v1.655h-1.693z"/><path id="rect18" d="M27.346 241.075h1.693v1.655h-1.693z"/><path id="rect20" d="M39.2 241.075h1.693v1.655H39.2z"/><path id="rect22" d="M42.586 241.075h1.693v1.655h-1.693z"/><path id="rect24" d="M44.28 241.075h1.693v1.655H44.28z"/><path id="rect26" d="M45.973 241.075h1.693v1.655h-1.693z"/><path id="rect28" d="M47.666 241.075h1.693v1.655h-1.693z"/><path id="rect30" d="M49.36 241.075h1.693v1.655H49.36z"/><path id="rect32" d="M51.053 241.075h1.693v1.655h-1.693z"/><path id="rect34" d="M52.746 241.075h1.693v1.655h-1.693z"/><path id="rect36" d="M12.106 242.729h1.693v1.655h-1.693z"/><path id="rect38" d="M22.266 242.729h1.693v1.655h-1.693z"/><path id="rect40" d="M25.653 242.729h1.693v1.655h-1.693z"/><path id="rect42" d="M27.346 242.729h1.693v1.655h-1.693z"/><path id="rect44" d="M30.733 242.729h1.693v1.655h-1.693z"/><path id="rect46" d="M32.426 242.729h1.693v1.655h-1.693z"/><path id="rect48" d="M37.506 242.729h1.693v1.655h-1.693z"/><path id="rect50" d="M42.586 242.729h1.693v1.655h-1.693z"/><path id="rect52" d="M52.746 242.729h1.693v1.655h-1.693z"/><path id="rect54" d="M12.106 244.384h1.693v1.655h-1.693z"/><path id="rect56" d="M15.493 244.384h1.693v1.655h-1.693z"/><path id="rect58" d="M17.186 244.384h1.693v1.655h-1.693z"/><path id="rect60" d="M18.88 244.384h1.693v1.655H18.88z"/><path id="rect62" d="M22.266 244.384h1.693v1.655h-1.693z"/><path id="rect64" d="M27.346 244.384h1.693v1.655h-1.693z"/><path id="rect66" d="M29.04 244.384h1.693v1.655H29.04z"/><path id="rect68" d="M30.733 244.384h1.693v1.655h-1.693z"/><path id="rect70" d="M35.813 244.384h1.693v1.655h-1.693z"/><path id="rect72" d="M42.586 244.384h1.693v1.655h-1.693z"/><path id="rect74" d="M45.973 244.384h1.693v1.655h-1.693z"/><path id="rect76" d="M47.666 244.384h1.693v1.655h-1.693z"/><path id="rect78" d="M49.36 244.384h1.693v1.655H49.36z"/><path id="rect80" d="M52.746 244.384h1.693v1.655h-1.693z"/><path id="rect82" d="M12.106 246.039h1.693v1.655h-1.693z"/><path id="rect84" d="M15.493 246.039h1.693v1.655h-1.693z"/><path id="rect86" d="M17.186 246.039h1.693v1.655h-1.693z"/><path id="rect88" d="M18.88 246.039h1.693v1.655H18.88z"/><path id="rect90" d="M22.266 246.039h1.693v1.655h-1.693z"/><path id="rect92" d="M25.653 246.039h1.693v1.655h-1.693z"/><path id="rect94" d="M27.346 246.039h1.693v1.655h-1.693z"/><path id="rect96" d="M30.733 246.039h1.693v1.655h-1.693z"/><path id="rect98" d="M34.12 246.039h1.693v1.655H34.12z"/><path id="rect100" d="M35.813 246.039h1.693v1.655h-1.693z"/><path id="rect102" d="M37.506 246.039h1.693v1.655h-1.693z"/><path id="rect104" d="M42.586 246.039h1.693v1.655h-1.693z"/><path id="rect106" d="M45.973 246.039h1.693v1.655h-1.693z"/><path id="rect108" d="M47.666 246.039h1.693v1.655h-1.693z"/><path id="rect110" d="M49.36 246.039h1.693v1.655H49.36z"/><path id="rect112" d="M52.746 246.039h1.693v1.655h-1.693z"/><path id="rect114" d="M12.106 247.693h1.693v1.655h-1.693z"/><path id="rect116" d="M15.493 247.693h1.693v1.655h-1.693z"/><path id="rect118" d="M17.186 247.693h1.693v1.655h-1.693z"/><path id="rect120" d="M18.88 247.693h1.693v1.655H18.88z"/><path id="rect122" d="M22.266 247.693h1.693v1.655h-1.693z"/><path id="rect124" d="M29.04 247.693h1.693v1.655H29.04z"/><path id="rect126" d="M32.426 247.693h1.693v1.655h-1.693z"/><path id="rect128" d="M35.813 247.693h1.693v1.655h-1.693z"/><path id="rect130" d="M39.2 247.693h1.693v1.655H39.2z"/><path id="rect132" d="M42.586 247.693h1.693v1.655h-1.693z"/><path id="rect134" d="M45.973 247.693h1.693v1.655h-1.693z"/><path id="rect136" d="M47.666 247.693h1.693v1.655h-1.693z"/><path id="rect138" d="M49.36 247.693h1.693v1.655H49.36z"/><path id="rect140" d="M52.746 247.693h1.693v1.655h-1.693z"/><path id="rect142" d="M12.106 249.348h1.693v1.655h-1.693z"/><path id="rect144" d="M22.266 249.348h1.693v1.655h-1.693z"/><path id="rect146" d="M25.653 249.348h1.693v1.655h-1.693z"/><path id="rect148" d="M29.04 249.348h1.693v1.655H29.04z"/><path id="rect150" d="M34.12 249.348h1.693v1.655H34.12z"/><path id="rect152" d="M37.506 249.348h1.693v1.655h-1.693z"/><path id="rect154" d="M39.2 249.348h1.693v1.655H39.2z"/><path id="rect156" d="M42.586 249.348h1.693v1.655h-1.693z"/><path id="rect158" d="M52.746 249.348h1.693v1.655h-1.693z"/><path id="rect160" d="M12.106 251.003h1.693v1.655h-1.693z"/><path id="rect162" d="M13.8 251.003h1.693v1.655H13.8z"/><path id="rect164" d="M15.493 251.003h1.693v1.655h-1.693z"/><path id="rect166" d="M17.186 251.003h1.693v1.655h-1.693z"/><path id="rect168" d="M18.88 251.003h1.693v1.655H18.88z"/><path id="rect170" d="M20.573 251.003h1.693v1.655h-1.693z"/><path id="rect172" d="M22.266 251.003h1.693v1.655h-1.693z"/><path id="rect174" d="M25.653 251.003h1.693v1.655h-1.693z"/><path id="rect176" d="M29.04 251.003h1.693v1.655H29.04z"/><path id="rect178" d="M32.426 251.003h1.693v1.655h-1.693z"/><path id="rect180" d="M35.813 251.003h1.693v1.655h-1.693z"/><path id="rect182" d="M39.2 251.003h1.693v1.655H39.2z"/><path id="rect184" d="M42.586 251.003h1.693v1.655h-1.693z"/><path id="rect186" d="M44.28 251.003h1.693v1.655H44.28z"/><path id="rect188" d="M45.973 251.003h1.693v1.655h-1.693z"/><path id="rect190" d="M47.666 251.003h1.693v1.655h-1.693z"/><path id="rect192" d="M49.36 251.003h1.693v1.655H49.36z"/><path id="rect194" d="M51.053 251.003h1.693v1.655h-1.693z"/><path id="rect196" d="M52.746 251.003h1.693v1.655h-1.693z"/><path id="rect198" d="M32.426 252.657h1.693v1.655h-1.693z"/><path id="rect200" d="M39.2 252.657h1.693v1.655H39.2z"/><path id="rect202" d="M12.106 254.312h1.693v1.655h-1.693z"/><path id="rect204" d="M13.8 254.312h1.693v1.655H13.8z"/><path id="rect206" d="M15.493 254.312h1.693v1.655h-1.693z"/><path id="rect208" d="M17.186 254.312h1.693v1.655h-1.693z"/><path id="rect210" d="M18.88 254.312h1.693v1.655H18.88z"/><path id="rect212" d="M22.266 254.312h1.693v1.655h-1.693z"/><path id="rect214" d="M23.96 254.312h1.693v1.655H23.96z"/><path id="rect216" d="M25.653 254.312h1.693v1.655h-1.693z"/><path id="rect218" d="M27.346 254.312h1.693v1.655h-1.693z"/><path id="rect220" d="M29.04 254.312h1.693v1.655H29.04z"/><path id="rect222" d="M32.426 254.312h1.693v1.655h-1.693z"/><path id="rect224" d="M35.813 254.312h1.693v1.655h-1.693z"/><path id="rect226" d="M40.893 254.312h1.693v1.655h-1.693z"/><path id="rect228" d="M44.28 254.312h1.693v1.655H44.28z"/><path id="rect230" d="M47.666 254.312h1.693v1.655h-1.693z"/><path id="rect232" d="M51.053 254.312h1.693v1.655h-1.693z"/><path id="rect234" d="M12.106 255.966h1.693v1.655h-1.693z"/><path id="rect236" d="M13.8 255.966h1.693v1.655H13.8z"/><path id="rect238" d="M15.493 255.966h1.693v1.655h-1.693z"/><path id="rect240" d="M18.88 255.966h1.693v1.655H18.88z"/><path id="rect242" d="M25.653 255.966h1.693v1.655h-1.693z"/><path id="rect244" d="M27.346 255.966h1.693v1.655h-1.693z"/><path id="rect246" d="M34.12 255.966h1.693v1.655H34.12z"/><path id="rect248" d="M44.28 255.966h1.693v1.655H44.28z"/><path id="rect250" d="M51.053 255.966h1.693v1.655h-1.693z"/><path id="rect252" d="M12.106 257.621h1.693v1.655h-1.693z"/><path id="rect254" d="M17.186 257.621h1.693v1.655h-1.693z"/><path id="rect256" d="M18.88 257.621h1.693v1.655H18.88z"/><path id="rect258" d="M20.573 257.621h1.693v1.655h-1.693z"/><path id="rect260" d="M22.266 257.621h1.693v1.655h-1.693z"/><path id="rect262" d="M23.96 257.621h1.693v1.655H23.96z"/><path id="rect264" d="M25.653 257.621h1.693v1.655h-1.693z"/><path id="rect266" d="M27.346 257.621h1.693v1.655h-1.693z"/><path id="rect268" d="M30.733 257.621h1.693v1.655h-1.693z"/><path id="rect270" d="M32.426 257.621h1.693v1.655h-1.693z"/><path id="rect272" d="M35.813 257.621h1.693v1.655h-1.693z"/><path id="rect274" d="M37.506 257.621h1.693v1.655h-1.693z"/><path id="rect276" d="M39.2 257.621h1.693v1.655H39.2z"/><path id="rect278" d="M40.893 257.621h1.693v1.655h-1.693z"/><path id="rect280" d="M42.586 257.621h1.693v1.655h-1.693z"/><path id="rect282" d="M45.973 257.621h1.693v1.655h-1.693z"/><path id="rect284" d="M47.666 257.621h1.693v1.655h-1.693z"/><path id="rect286" d="M51.053 257.621h1.693v1.655h-1.693z"/><path id="rect288" d="M52.746 257.621h1.693v1.655h-1.693z"/><path id="rect290" d="M12.106 259.276h1.693v1.655h-1.693z"/><path id="rect292" d="M15.493 259.276h1.693v1.655h-1.693z"/><path id="rect294" d="M17.186 259.276h1.693v1.655h-1.693z"/><path id="rect296" d="M18.88 259.276h1.693v1.655H18.88z"/><path id="rect298" d="M23.96 259.276h1.693v1.655H23.96z"/><path id="rect300" d="M25.653 259.276h1.693v1.655h-1.693z"/><path id="rect302" d="M27.346 259.276h1.693v1.655h-1.693z"/><path id="rect304" d="M29.04 259.276h1.693v1.655H29.04z"/><path id="rect306" d="M30.733 259.276h1.693v1.655h-1.693z"/><path id="rect308" d="M35.813 259.276h1.693v1.655h-1.693z"/><path id="rect310" d="M37.506 259.276h1.693v1.655h-1.693z"/><path id="rect312" d="M39.2 259.276h1.693v1.655H39.2z"/><path id="rect314" d="M40.893 259.276h1.693v1.655h-1.693z"/><path id="rect316" d="M42.586 259.276h1.693v1.655h-1.693z"/><path id="rect318" d="M44.28 259.276h1.693v1.655H44.28z"/><path id="rect320" d="M45.973 259.276h1.693v1.655h-1.693z"/><path id="rect322" d="M52.746 259.276h1.693v1.655h-1.693z"/><path id="rect324" d="M12.106 260.93h1.693v1.655h-1.693z"/><path id="rect326" d="M15.493 260.93h1.693v1.655h-1.693z"/><path id="rect328" d="M17.186 260.93h1.693v1.655h-1.693z"/><path id="rect330" d="M20.573 260.93h1.693v1.655h-1.693z"/><path id="rect332" d="M22.266 260.93h1.693v1.655h-1.693z"/><path id="rect334" d="M27.346 260.93h1.693v1.655h-1.693z"/><path id="rect336" d="M30.733 260.93h1.693v1.655h-1.693z"/><path id="rect338" d="M34.12 260.93h1.693v1.655H34.12z"/><path id="rect340" d="M35.813 260.93h1.693v1.655h-1.693z"/><path id="rect342" d="M37.506 260.93h1.693v1.655h-1.693z"/><path id="rect344" d="M40.893 260.93h1.693v1.655h-1.693z"/><path id="rect346" d="M42.586 260.93h1.693v1.655h-1.693z"/><path id="rect348" d="M45.973 260.93h1.693v1.655h-1.693z"/><path id="rect350" d="M49.36 260.93h1.693v1.655H49.36z"/><path id="rect352" d="M51.053 260.93h1.693v1.655h-1.693z"/><path id="rect354" d="M52.746 260.93h1.693v1.655h-1.693z"/><path id="rect356" d="M12.106 262.585h1.693v1.655h-1.693z"/><path id="rect358" d="M15.493 262.585h1.693v1.655h-1.693z"/><path id="rect360" d="M18.88 262.585h1.693v1.655H18.88z"/><path id="rect362" d="M20.573 262.585h1.693v1.655h-1.693z"/><path id="rect364" d="M25.653 262.585h1.693v1.655h-1.693z"/><path id="rect366" d="M27.346 262.585h1.693v1.655h-1.693z"/><path id="rect368" d="M29.04 262.585h1.693v1.655H29.04z"/><path id="rect370" d="M32.426 262.585h1.693v1.655h-1.693z"/><path id="rect372" d="M34.12 262.585h1.693v1.655H34.12z"/><path id="rect374" d="M39.2 262.585h1.693v1.655H39.2z"/><path id="rect376" d="M47.666 262.585h1.693v1.655h-1.693z"/><path id="rect378" d="M51.053 262.585h1.693v1.655h-1.693z"/><path id="rect380" d="M12.106 264.24h1.693v1.655h-1.693z"/><path id="rect382" d="M15.493 264.24h1.693v1.655h-1.693z"/><path id="rect384" d="M22.266 264.24h1.693v1.655h-1.693z"/><path id="rect386" d="M23.96 264.24h1.693v1.655H23.96z"/><path id="rect388" d="M27.346 264.24h1.693v1.655h-1.693z"/><path id="rect390" d="M35.813 264.24h1.693v1.655h-1.693z"/><path id="rect392" d="M37.506 264.24h1.693v1.655h-1.693z"/><path id="rect394" d="M39.2 264.24h1.693v1.655H39.2z"/><path id="rect396" d="M42.586 264.24h1.693v1.655h-1.693z"/><path id="rect398" d="M47.666 264.24h1.693v1.655h-1.693z"/><path id="rect400" d="M51.053 264.24h1.693v1.655h-1.693z"/><path id="rect402" d="M52.746 264.24h1.693v1.655h-1.693z"/><path id="rect404" d="M12.106 265.894h1.693v1.655h-1.693z"/><path id="rect406" d="M18.88 265.894h1.693v1.655H18.88z"/><path id="rect408" d="M23.96 265.894h1.693v1.655H23.96z"/><path id="rect410" d="M25.653 265.894h1.693v1.655h-1.693z"/><path id="rect412" d="M29.04 265.894h1.693v1.655H29.04z"/><path id="rect414" d="M32.426 265.894h1.693v1.655h-1.693z"/><path id="rect416" d="M37.506 265.894h1.693v1.655h-1.693z"/><path id="rect418" d="M39.2 265.894h1.693v1.655H39.2z"/><path id="rect420" d="M40.893 265.894h1.693v1.655h-1.693z"/><path id="rect422" d="M42.586 265.894h1.693v1.655h-1.693z"/><path id="rect424" d="M44.28 265.894h1.693v1.655H44.28z"/><path id="rect426" d="M45.973 265.894h1.693v1.655h-1.693z"/><path id="rect428" d="M47.666 265.894h1.693v1.655h-1.693z"/><path id="rect430" d="M52.746 265.894h1.693v1.655h-1.693z"/><path id="rect432" d="M12.106 267.549h1.693v1.655h-1.693z"/><path id="rect434" d="M15.493 267.549h1.693v1.655h-1.693z"/><path id="rect436" d="M22.266 267.549h1.693v1.655h-1.693z"/><path id="rect438" d="M23.96 267.549h1.693v1.655H23.96z"/><path id="rect440" d="M27.346 267.549h1.693v1.655h-1.693z"/><path id="rect442" d="M29.04 267.549h1.693v1.655H29.04z"/><path id="rect444" d="M32.426 267.549h1.693v1.655h-1.693z"/><path id="rect446" d="M35.813 267.549h1.693v1.655h-1.693z"/><path id="rect448" d="M39.2 267.549h1.693v1.655H39.2z"/><path id="rect450" d="M40.893 267.549h1.693v1.655h-1.693z"/><path id="rect452" d="M42.586 267.549h1.693v1.655h-1.693z"/><path id="rect454" d="M44.28 267.549h1.693v1.655H44.28z"/><path id="rect456" d="M45.973 267.549h1.693v1.655h-1.693z"/><path id="rect458" d="M49.36 267.549h1.693v1.655H49.36z"/><path id="rect460" d="M25.653 269.203h1.693v1.655h-1.693z"/><path id="rect462" d="M29.04 269.203h1.693v1.655H29.04z"/><path id="rect464" d="M37.506 269.203h1.693v1.655h-1.693z"/><path id="rect466" d="M39.2 269.203h1.693v1.655H39.2z"/><path id="rect468" d="M45.973 269.203h1.693v1.655h-1.693z"/><path id="rect470" d="M47.666 269.203h1.693v1.655h-1.693z"/><path id="rect472" d="M49.36 269.203h1.693v1.655H49.36z"/><path id="rect474" d="M12.106 270.858h1.693v1.655h-1.693z"/><path id="rect476" d="M13.8 270.858h1.693v1.655H13.8z"/><path id="rect478" d="M15.493 270.858h1.693v1.655h-1.693z"/><path id="rect480" d="M17.186 270.858h1.693v1.655h-1.693z"/><path id="rect482" d="M18.88 270.858h1.693v1.655H18.88z"/><path id="rect484" d="M20.573 270.858h1.693v1.655h-1.693z"/><path id="rect486" d="M22.266 270.858h1.693v1.655h-1.693z"/><path id="rect488" d="M25.653 270.858h1.693v1.655h-1.693z"/><path id="rect490" d="M27.346 270.858h1.693v1.655h-1.693z"/><path id="rect492" d="M30.733 270.858h1.693v1.655h-1.693z"/><path id="rect494" d="M32.426 270.858h1.693v1.655h-1.693z"/><path id="rect496" d="M34.12 270.858h1.693v1.655H34.12z"/><path id="rect498" d="M35.813 270.858h1.693v1.655h-1.693z"/><path id="rect500" d="M39.2 270.858h1.693v1.655H39.2z"/><path id="rect502" d="M42.586 270.858h1.693v1.655h-1.693z"/><path id="rect504" d="M45.973 270.858h1.693v1.655h-1.693z"/><path id="rect506" d="M47.666 270.858h1.693v1.655h-1.693z"/><path id="rect508" d="M49.36 270.858h1.693v1.655H49.36z"/><path id="rect510" d="M51.053 270.858h1.693v1.655h-1.693z"/><path id="rect512" d="M52.746 270.858h1.693v1.655h-1.693z"/><path id="rect514" d="M12.106 272.513h1.693v1.655h-1.693z"/><path id="rect516" d="M22.266 272.513h1.693v1.655h-1.693z"/><path id="rect518" d="M29.04 272.513h1.693v1.655H29.04z"/><path id="rect520" d="M30.733 272.513h1.693v1.655h-1.693z"/><path id="rect522" d="M35.813 272.513h1.693v1.655h-1.693z"/><path id="rect524" d="M39.2 272.513h1.693v1.655H39.2z"/><path id="rect526" d="M45.973 272.513h1.693v1.655h-1.693z"/><path id="rect528" d="M47.666 272.513h1.693v1.655h-1.693z"/><path id="rect530" d="M12.106 274.167h1.693v1.655h-1.693z"/><path id="rect532" d="M15.493 274.167h1.693v1.655h-1.693z"/><path id="rect534" d="M17.186 274.167h1.693v1.655h-1.693z"/><path id="rect536" d="M18.88 274.167h1.693v1.655H18.88z"/><path id="rect538" d="M22.266 274.167h1.693v1.655h-1.693z"/><path id="rect540" d="M25.653 274.167h1.693v1.655h-1.693z"/><path id="rect542" d="M27.346 274.167h1.693v1.655h-1.693z"/><path id="rect544" d="M29.04 274.167h1.693v1.655H29.04z"/><path id="rect546" d="M30.733 274.167h1.693v1.655h-1.693z"/><path id="rect548" d="M37.506 274.167h1.693v1.655h-1.693z"/><path id="rect550" d="M39.2 274.167h1.693v1.655H39.2z"/><path id="rect552" d="M40.893 274.167h1.693v1.655h-1.693z"/><path id="rect554" d="M42.586 274.167h1.693v1.655h-1.693z"/><path id="rect556" d="M44.28 274.167h1.693v1.655H44.28z"/><path id="rect558" d="M45.973 274.167h1.693v1.655h-1.693z"/><path id="rect560" d="M47.666 274.167h1.693v1.655h-1.693z"/><path id="rect562" d="M49.36 274.167h1.693v1.655H49.36z"/><path id="rect564" d="M51.053 274.167h1.693v1.655h-1.693z"/><path id="rect566" d="M52.746 274.167h1.693v1.655h-1.693z"/><path id="rect568" d="M12.106 275.822h1.693v1.655h-1.693z"/><path id="rect570" d="M15.493 275.822h1.693v1.655h-1.693z"/><path id="rect572" d="M17.186 275.822h1.693v1.655h-1.693z"/><path id="rect574" d="M18.88 275.822h1.693v1.655H18.88z"/><path id="rect576" d="M22.266 275.822h1.693v1.655h-1.693z"/><path id="rect578" d="M25.653 275.822h1.693v1.655h-1.693z"/><path id="rect580" d="M27.346 275.822h1.693v1.655h-1.693z"/><path id="rect582" d="M29.04 275.822h1.693v1.655H29.04z"/><path id="rect584" d="M32.426 275.822h1.693v1.655h-1.693z"/><path id="rect586" d="M34.12 275.822h1.693v1.655H34.12z"/><path id="rect588" d="M37.506 275.822h1.693v1.655h-1.693z"/><path id="rect590" d="M39.2 275.822h1.693v1.655H39.2z"/><path id="rect592" d="M40.893 275.822h1.693v1.655h-1.693z"/><path id="rect594" d="M42.586 275.822h1.693v1.655h-1.693z"/><path id="rect596" d="M45.973 275.822h1.693v1.655h-1.693z"/><path id="rect598" d="M49.36 275.822h1.693v1.655H49.36z"/><path id="rect600" d="M51.053 275.822h1.693v1.655h-1.693z"/><path id="rect602" d="M52.746 275.822h1.693v1.655h-1.693z"/><path id="rect604" d="M12.106 277.477h1.693v1.655h-1.693z"/><path id="rect606" d="M15.493 277.477h1.693v1.655h-1.693z"/><path id="rect608" d="M17.186 277.477h1.693v1.655h-1.693z"/><path id="rect610" d="M18.88 277.477h1.693v1.655H18.88z"/><path id="rect612" d="M22.266 277.477h1.693v1.655h-1.693z"/><path id="rect614" d="M25.653 277.477h1.693v1.655h-1.693z"/><path id="rect616" d="M34.12 277.477h1.693v1.655H34.12z"/><path id="rect618" d="M35.813 277.477h1.693v1.655h-1.693z"/><path id="rect620" d="M39.2 277.477h1.693v1.655H39.2z"/><path id="rect622" d="M44.28 277.477h1.693v1.655H44.28z"/><path id="rect624" d="M49.36 277.477h1.693v1.655H49.36z"/><path id="rect626" d="M52.746 277.477h1.693v1.655h-1.693z"/><path id="rect628" d="M12.106 279.131h1.693v1.655h-1.693z"/><path id="rect630" d="M22.266 279.131h1.693v1.655h-1.693z"/><path id="rect632" d="M25.653 279.131h1.693v1.655h-1.693z"/><path id="rect634" d="M27.346 279.131h1.693v1.655h-1.693z"/><path id="rect636" d="M29.04 279.131h1.693v1.655H29.04z"/><path id="rect638" d="M32.426 279.131h1.693v1.655h-1.693z"/><path id="rect640" d="M34.12 279.131h1.693v1.655H34.12z"/><path id="rect642" d="M37.506 279.131h1.693v1.655h-1.693z"/><path id="rect644" d="M39.2 279.131h1.693v1.655H39.2z"/><path id="rect646" d="M40.893 279.131h1.693v1.655h-1.693z"/><path id="rect648" d="M42.586 279.131h1.693v1.655h-1.693z"/><path id="rect650" d="M44.28 279.131h1.693v1.655H44.28z"/><path id="rect652" d="M45.973 279.131h1.693v1.655h-1.693z"/><path id="rect654" d="M47.666 279.131h1.693v1.655h-1.693z"/><path id="rect656" d="M52.746 279.131h1.693v1.655h-1.693z"/><path id="rect658" d="M12.106 280.786h1.693v1.655h-1.693z"/><path id="rect660" d="M13.8 280.786h1.693v1.655H13.8z"/><path id="rect662" d="M15.493 280.786h1.693v1.655h-1.693z"/><path id="rect664" d="M17.186 280.786h1.693v1.655h-1.693z"/><path id="rect666" d="M18.88 280.786h1.693v1.655H18.88z"/><path id="rect668" d="M20.573 280.786h1.693v1.655h-1.693z"/><path id="rect670" d="M22.266 280.786h1.693v1.655h-1.693z"/><path id="rect672" d="M25.653 280.786h1.693v1.655h-1.693z"/><path id="rect674" d="M27.346 280.786h1.693v1.655h-1.693z"/><path id="rect676" d="M32.426 280.786h1.693v1.655h-1.693z"/><path id="rect678" d="M35.813 280.786h1.693v1.655h-1.693z"/><path id="rect680" d="M37.506 280.786h1.693v1.655h-1.693z"/><path id="rect682" d="M42.586 280.786h1.693v1.655h-1.693z"/><path id="rect684" d="M44.28 280.786h1.693v1.655H44.28z"/><path id="rect686" d="M45.973 280.786h1.693v1.655h-1.693z"/><path id="rect688" d="M47.666 280.786h1.693v1.655h-1.693z"/><path id="rect690" d="M49.36 280.786h1.693v1.655H49.36z"/><path id="rect692" d="M51.053 280.786h1.693v1.655h-1.693z"/><path id="rect694" d="M52.746 280.786h1.693v1.655h-1.693z"/></g></g></svg>