<svg xmlns:osb="http://www.openswatchbook.org/uri/2009/osb" xmlns="http://www.w3.org/2000/svg" width="48" height="48" version="1.1" id="svg38"><defs id="defs22"><style id="style4511"/><style id="style4511-26"/><style id="style4511-9"/><style id="style4552"/><style id="style4511-2"/><linearGradient osb:paint="solid" id="linearGradient5293"><stop id="stop5295" offset="0" stop-color="#9a89c0" stop-opacity="1"/></linearGradient><style id="style2" type="text/css"><![CDATA[.fil5{fill:none}.fil1{fill:#196FBA}.fil0{fill:#25B2EE}.fil4{fill:#793C7C}.fil3{fill:#8C508C}.fil2{fill:white}]]></style></defs><style id="style4485" type="text/css"/><g id="g1322" transform="translate(.203 .743)"><path d="M19.363 2.742h8.495c13.908 0 16.804 11.247 16.804 17.282v7.124c0 5.96-2.704 17.282-17.836 17.282h-6.93C8.333 44.43 2.75 36.722 2.75 27.148v-7.124c0-9.574 5.47-17.282 16.613-17.282z" id="path4518" opacity="1" fill="#0083a9" fill-opacity="1" stroke="#000" stroke-width=".334" stroke-linecap="square" stroke-linejoin="bevel" stroke-miterlimit="4" stroke-dasharray="none" stroke-dashoffset="0" stroke-opacity=".078"/><path id="path1298" d="M24.305 9.044A15.445 15.157 0 0 0 8.86 24.201 15.445 15.157 0 0 0 24.305 39.36a15.445 15.157 0 0 0 6.189-1.289 8.316 8.162 0 0 1-1.436.123 8.316 8.162 0 0 1-8.317-8.162 8.316 8.162 0 0 1 8.317-8.161 8.316 8.162 0 0 1 8.316 8.161 8.316 8.162 0 0 1-.643 3.142 15.445 15.157 0 0 0 3.02-8.972A15.445 15.157 0 0 0 24.304 9.044z" fill="#fff" stroke-width="1.177"/></g></svg>