<svg xmlns="http://www.w3.org/2000/svg" xmlns:xlink="http://www.w3.org/1999/xlink" width="48" height="48" version="1.1" id="svg38"><defs id="defs22"><linearGradient id="linearGradient4488"><stop id="stop4490" offset="0" stop-color="#000" stop-opacity=".047"/><stop id="stop4492" offset="1" stop-color="#000" stop-opacity="0"/></linearGradient><style id="style4511"/><style id="style4511-26"/><style id="style4511-9"/><style id="style4552"/><style id="style4511-2"/><linearGradient gradientTransform="translate(-63.205 2.216) scale(.3038)" xlink:href="#linearGradient4488" id="linearGradient4160" x1="288.112" y1="141.785" x2="287.575" y2="79.008" gradientUnits="userSpaceOnUse"/></defs><style id="style4485" type="text/css"/><path d="M2.433 26.443v1.668c0 9.575 5.583 17.282 17.146 17.282h6.93c15.133 0 17.837-11.322 17.837-17.282v-1.668c0 5.96-2.704 17.282-17.837 17.282h-6.93c-11.563 0-17.146-7.708-17.146-17.282z" id="path4147" opacity="1" fill="url(#linearGradient4160)" fill-opacity="1" stroke="none" stroke-width="1.1" stroke-linecap="square" stroke-linejoin="bevel" stroke-miterlimit="4" stroke-dasharray="none" stroke-dashoffset="0" stroke-opacity=".078"/><path d="M19.046 2.965h8.495c13.908 0 16.805 11.246 16.805 17.282v7.123c0 5.96-2.704 17.282-17.837 17.282h-6.93c-11.562 0-17.146-7.708-17.146-17.282v-7.123c0-9.575 5.47-17.282 16.613-17.282z" id="rect4144" opacity="1" fill="#248be9" fill-opacity="1" stroke="#000" stroke-width=".334" stroke-linecap="square" stroke-linejoin="bevel" stroke-miterlimit="4" stroke-dasharray="none" stroke-dashoffset="0" stroke-opacity=".078"/><path d="M21.713 10.55c-.524.006-1.04.037-1.547.093-4.16.455-7.66 2.227-9.748 4.94-2.03 2.634-2.597 6.2-1.52 9.55 1.512 4.703 6.18 8.847 11.819 10.492 1.42.415 1.728.42.734.01-4.197-1.73-7.254-4.785-8.451-8.447-.393-1.203-.529-2.251-.463-3.59.196-4.023 2.954-7.347 7.305-8.805 2.658-.89 6.111-.91 9.087-.05 6.525 1.884 10.933 7.182 10.614 12.76-.04.702-.028.888.04.677.393-1.193.497-3.455.227-4.877-.693-3.657-3.427-7.338-7.174-9.662-3.27-2.029-7.26-3.143-10.923-3.092zm5.779 11.857v15.585h2.029v-6.574h1.53c2.885 0 3.098.176 5.103 4.182l1.197 2.392h1.063c.584 0 1.064-.026 1.064-.056 0-.03-.586-1.214-1.303-2.633-1.428-2.83-2.034-3.743-2.832-4.268l-.507-.334.556-.253c.699-.32 1.085-.643 1.461-1.229.575-.895.753-2.383.444-3.695-.266-1.126-.886-1.914-1.916-2.436-.992-.502-1.559-.575-4.87-.63l-3.02-.051zm2.03 1.761h1.77c2.181 0 2.608.1 3.268.76.323.323.494.597.606.975.469 1.58-.148 3.083-1.473 3.591-.469.18-.806.217-2.36.258l-1.812.05v-5.634z" id="path12822" opacity="1" fill="#fff" fill-opacity="1" stroke-width="1.899" stroke-miterlimit="4" stroke-dasharray="none"/></svg>