<svg xmlns:osb="http://www.openswatchbook.org/uri/2009/osb" xmlns="http://www.w3.org/2000/svg" xmlns:xlink="http://www.w3.org/1999/xlink" width="48" height="48" version="1.1" id="svg38"><defs id="defs22"><linearGradient id="linearGradient4488"><stop id="stop4490" offset="0" stop-color="#000" stop-opacity=".047"/><stop id="stop4492" offset="1" stop-color="#000" stop-opacity="0"/></linearGradient><style id="style4511"/><style id="style4511-26"/><style id="style4511-9"/><style id="style4552"/><style id="style4511-2"/><linearGradient xlink:href="#linearGradient4488" id="linearGradient4540" gradientUnits="userSpaceOnUse" gradientTransform="matrix(.3082 0 0 .30379 -63.838 2.097)" x1="288.112" y1="141.785" x2="287.575" y2="79.008"/><linearGradient osb:paint="solid" id="linearGradient5293"><stop id="stop5295" offset="0" stop-color="#9a89c0" stop-opacity="1"/></linearGradient><clipPath id="clipPath-292987263"/><clipPath id="clipPath-303915126"/></defs><style id="style4485" type="text/css"/><path stroke-miterlimit="4" id="path4516" d="M2.752 26.322v1.67c0 9.573 5.664 17.28 17.394 17.28h7.03c15.352 0 18.095-11.321 18.095-17.281v-1.668c0 5.96-2.743 17.281-18.095 17.281h-7.03c-11.73 0-17.394-7.707-17.394-17.282z" opacity="1" fill="url(#linearGradient4540)" fill-opacity="1" stroke="none" stroke-width="1.108" stroke-linecap="square" stroke-linejoin="bevel" stroke-dasharray="none" stroke-dashoffset="0" stroke-opacity=".078"/><path stroke-miterlimit="4" id="path4518" d="M19.605 2.845h8.618c14.11 0 17.048 11.246 17.048 17.281v7.124c0 5.96-2.743 17.281-18.095 17.281h-7.03c-11.73 0-17.394-7.707-17.394-17.281v-7.124c0-9.573 5.549-17.281 16.853-17.281z" opacity="1" fill="#b80000" fill-opacity="1" stroke="#000" stroke-width=".336" stroke-linecap="square" stroke-linejoin="bevel" stroke-dasharray="none" stroke-dashoffset="0" stroke-opacity=".078"/><path id="path481" d="M11.217 11.603l7.101 7-7.101 6.999v10H21.36l7.102-7 7.101 7v-24m-17.246 7h10.145v9.996l-10.145.004m0-10" fill="#fff" fill-opacity="1" fill-rule="nonzero" stroke="none" stroke-width="1.007"/></svg>