<svg xmlns:osb="http://www.openswatchbook.org/uri/2009/osb" xmlns="http://www.w3.org/2000/svg" xmlns:xlink="http://www.w3.org/1999/xlink" width="48" height="48" version="1.1" id="svg38"><defs id="defs22"><linearGradient id="linearGradient4488"><stop id="stop4490" offset="0" stop-color="#000" stop-opacity=".047"/><stop id="stop4492" offset="1" stop-color="#000" stop-opacity="0"/></linearGradient><style id="style4511"/><style id="style4511-26"/><style id="style4511-9"/><style id="style4552"/><style id="style4511-2"/><linearGradient xlink:href="#linearGradient4488" id="linearGradient4540" gradientUnits="userSpaceOnUse" gradientTransform="matrix(-.00052 .30406 -.2948 -.00054 45.95 -62.006)" x1="288.112" y1="141.785" x2="287.575" y2="79.008"/><linearGradient osb:paint="solid" id="linearGradient5293"><stop id="stop5295" offset="0" stop-color="#9a89c0" stop-opacity="1"/></linearGradient><style id="style4511-87"/><style id="style4511-26-7"/><style id="style4511-9-1"/><style id="style4552-53"/><style id="style4511-2-9"/><style id="style4511-8"/><style id="style4511-26-4"/><style id="style4511-9-8"/><style id="style4552-5"/><style id="style4511-2-5"/><linearGradient gradientUnits="userSpaceOnUse" y2="120.69" x2="-308.032" y1="93.99" x1="-316.3" id="4-6" gradientTransform="matrix(.30119 .00584 -.00583 .30163 118.479 -1.606)"><stop id="stop4650-2" stop-color="#c00e62" stop-opacity=".916"/><stop offset=".33" stop-color="#d63540" id="stop957" stop-opacity=".957"/><stop id="stop4652-9" stop-opacity="1" stop-color="#7a5240" offset="1"/></linearGradient><style id="style4511-879"/><style id="style4511-26-76"/><style id="style4511-9-2"/><style id="style4552-8"/><style id="style4511-2-0"/><linearGradient xlink:href="#4-6" id="linearGradient2570" x1="17.382" y1="33.783" x2="21.382" y2="33.783" gradientUnits="userSpaceOnUse"/><linearGradient xlink:href="#4-6" id="linearGradient2578" x1="33" y1="33.989" x2="37" y2="33.989" gradientUnits="userSpaceOnUse"/></defs><style id="style4485" type="text/css"/><style type="text/css" id="style4485-7"/><style id="style4485-6" type="text/css"/><style type="text/css" id="style4485-3"/><path id="path4516" d="M22.328 3.645l-1.619-.003c-9.29-.017-16.78 5.557-16.8 17.13l-.012 6.936C3.871 42.853 14.854 45.58 20.637 45.59l1.62.003c-5.784-.01-16.767-2.737-16.74-17.882l.011-6.936c.02-11.573 7.51-17.147 16.8-17.13z" opacity="1" fill="url(#linearGradient4540)" fill-opacity="1" stroke="none" stroke-width="1.084" stroke-linecap="square" stroke-linejoin="bevel" stroke-miterlimit="4" stroke-dasharray="none" stroke-dashoffset="0" stroke-opacity=".078"/><path d="M45.083 20.314c.02-11.152-7.45-16.641-16.741-16.658l-4.166-.008-.072 41.948 4.166.008c5.857.01 16.775-2.869 16.799-16.789z" id="path4518" opacity="1" fill="#4c706b" fill-opacity="1" stroke="#000" stroke-width=".329" stroke-linecap="square" stroke-linejoin="bevel" stroke-miterlimit="4" stroke-dasharray="none" stroke-dashoffset="0" stroke-opacity=".078"/><path d="M3.23 28.96c-.005 11.152 7.472 16.63 16.763 16.634l4.166.002.017-41.947-4.166-.002C14.153 3.644 3.24 6.539 3.233 20.458z" id="path4518-7" opacity="1" fill="#4c706b" fill-opacity="1" stroke="#000" stroke-width=".329" stroke-linecap="square" stroke-linejoin="bevel" stroke-miterlimit="4" stroke-dasharray="none" stroke-dashoffset="0" stroke-opacity=".078"/><path id="path4518-0" d="M7.091 28.269v-6.885c0-11.272 9.208-13.62 14.15-13.62h5.831c4.88 0 14.15 2.192 14.15 14.456v5.617c0 9.37-6.31 13.896-14.15 13.896H21.24c-7.838 0-14.149-4.434-14.149-13.464z" opacity="1" fill="#f8cf7a" fill-opacity="1" stroke="#000" stroke-width=".272" stroke-linecap="square" stroke-linejoin="bevel" stroke-miterlimit="4" stroke-dasharray="none" stroke-dashoffset="0" stroke-opacity=".078"/><g id="g285" transform="matrix(.84151 0 0 .92721 4.5 4.162)"><g id="g47"><circle cx="10" cy="10" r="1" id="circle45" fill="#695225"/></g><g id="g51"><circle cx="10" cy="13" r="1" id="circle49" fill="#695225"/></g><g id="g55"><circle cx="10" cy="16" r="1" id="circle53" fill="#695225"/></g><g id="g59"><circle cx="10" cy="19" r="1" id="circle57" fill="#695225"/></g><g id="g63"><circle cx="10" cy="22" r="1" id="circle61" fill="#695225"/></g><g id="g67"><circle cx="10" cy="25" r="1" id="circle65" fill="#695225"/></g><g id="g71"><circle cx="13" cy="10" r="1" id="circle69" fill="#695225"/></g><g id="g75"><circle cx="13" cy="13" r="1" id="circle73" fill="#695225"/></g><g id="g79"><circle cx="13" cy="16" r="1" id="circle77" fill="#695225"/></g><g id="g83"><circle cx="13" cy="19" r="1" id="circle81" fill="#695225"/></g><g id="g87"><circle cx="13" cy="22" r="1" id="circle85" fill="#695225"/></g><g id="g91"><circle cx="13" cy="25" r="1" id="circle89" fill="#695225"/></g><g id="g95"><circle cx="16" cy="10" r="1" id="circle93" fill="#695225"/></g><g id="g99"><circle cx="16" cy="13" r="1" id="circle97" fill="#695225"/></g><g id="g103"><circle cx="16" cy="16" r="1" id="circle101" fill="#695225"/></g><g id="g107"><circle cx="16" cy="19" r="1" id="circle105" fill="#695225"/></g><g id="g111"><circle cx="16" cy="22" r="1" id="circle109" fill="#695225"/></g><g id="g115"><circle cx="16" cy="25" r="1" id="circle113" fill="#695225"/></g><g id="g119"><circle cx="19" cy="10" r="1" id="circle117" fill="#695225"/></g><g id="g123"><circle cx="19" cy="13" r="1" id="circle121" fill="#695225"/></g><g id="g127"><circle cx="19" cy="16" r="1" id="circle125" fill="#695225"/></g><g id="g131"><circle cx="19" cy="19" r="1" id="circle129" fill="#695225"/></g><g id="g135"><circle cx="19" cy="22" r="1" id="circle133" fill="#695225"/></g><g id="g139"><circle cx="19" cy="25" r="1" id="circle137" fill="#695225"/></g><g id="g143"><circle cx="22" cy="10" r="1" id="circle141" fill="#695225"/></g><g id="g147"><circle cx="22" cy="13" r="1" id="circle145" fill="#695225"/></g><g id="g151"><circle cx="22" cy="16" r="1" id="circle149" fill="#695225"/></g><g id="g155"><circle cx="22" cy="19" r="1" id="circle153" fill="#695225"/></g><g id="g159"><circle cx="22" cy="22" r="1" id="circle157" fill="#695225"/></g><g id="g163"><circle cx="22" cy="25" r="1" id="circle161" fill="#695225"/></g><g id="g167"><circle cx="25" cy="10" r="1" id="circle165" fill="#695225"/></g><g id="g171"><circle cx="25" cy="13" r="1" id="circle169" fill="#695225"/></g><g id="g175"><circle cx="25" cy="16" r="1" id="circle173" fill="#695225"/></g><g id="g179"><circle cx="25" cy="19" r="1" id="circle177" fill="#695225"/></g><g id="g183"><circle cx="25" cy="22" r="1" id="circle181" fill="#695225"/></g><g id="g187"><circle cx="25" cy="25" r="1" id="circle185" fill="#695225"/></g><g id="g191"><circle cx="28" cy="10" r="1" id="circle189" fill="#695225"/></g><g id="g195"><circle cx="28" cy="13" r="1" id="circle193" fill="#695225"/></g><g id="g199"><circle cx="28" cy="16" r="1" id="circle197" fill="#695225"/></g><g id="g203"><circle cx="28" cy="19" r="1" id="circle201" fill="#695225"/></g><g id="g207"><circle cx="28" cy="22" r="1" id="circle205" fill="#695225"/></g><g id="g211"><circle cx="28" cy="25" r="1" id="circle209" fill="#695225"/></g><g id="g215"><circle cx="31" cy="10" r="1" id="circle213" fill="#695225"/></g><g id="g219"><circle cx="31" cy="13" r="1" id="circle217" fill="#695225"/></g><g id="g223"><circle cx="31" cy="16" r="1" id="circle221" fill="#695225"/></g><g id="g227"><circle cx="31" cy="19" r="1" id="circle225" fill="#695225"/></g><g id="g231"><circle cx="31" cy="22" r="1" id="circle229" fill="#695225"/></g><g id="g235"><circle cx="31" cy="25" r="1" id="circle233" fill="#695225"/></g><g id="g239"><circle cx="34" cy="10" r="1" id="circle237" fill="#695225"/></g><g id="g243"><circle cx="34" cy="13" r="1" id="circle241" fill="#695225"/></g><g id="g247"><circle cx="34" cy="16" r="1" id="circle245" fill="#695225"/></g><g id="g251"><circle cx="34" cy="19" r="1" id="circle249" fill="#695225"/></g><g id="g255"><circle cx="34" cy="22" r="1" id="circle253" fill="#695225"/></g><g id="g259"><circle cx="34" cy="25" r="1" id="circle257" fill="#695225"/></g><g id="g263"><circle cx="37" cy="10" r="1" id="circle261" fill="#695225"/></g><g id="g267"><circle cx="37" cy="13" r="1" id="circle265" fill="#695225"/></g><g id="g271"><circle cx="37" cy="16" r="1" id="circle269" fill="#695225"/></g><g id="g275"><circle cx="37" cy="19" r="1" id="circle273" fill="#695225"/></g><g id="g279"><circle cx="37" cy="22" r="1" id="circle277" fill="#695225"/></g><g id="g283"><circle cx="37" cy="25" r="1" id="circle281" fill="#695225"/></g></g><g id="g289" transform="translate(-6.118 -.206)"><circle cx="35" cy="33.99" r="4" id="circle287" fill="#fffffe"/></g><g id="g293" transform="translate(-6.118 -.206)" fill-opacity="1" fill="url(#linearGradient2578)"><circle cx="35" cy="33.989" r="2" id="circle291" fill="url(#linearGradient2578)" fill-opacity="1"/></g><g id="g297" transform="translate(-6.118 -.206)"><circle cx="25.5" cy="33.99" r="4" id="circle295" fill="#fffffe"/></g><circle id="circle299" r="2" cy="33.783" cx="19.382" fill="url(#linearGradient2570)" fill-opacity="1"/></svg>