<svg xmlns="http://www.w3.org/2000/svg" xmlns:xlink="http://www.w3.org/1999/xlink" width="48" height="48" version="1.1" id="svg38"><defs id="defs22"><linearGradient id="linearGradient4477"><stop offset="0" id="stop4479" stop-color="#268cad" stop-opacity="1"/><stop offset="1" id="stop4481" stop-color="#265893" stop-opacity=".816"/></linearGradient><linearGradient id="linearGradient4488"><stop id="stop4490" offset="0" stop-color="#000" stop-opacity=".047"/><stop id="stop4492" offset="1" stop-color="#000" stop-opacity="0"/></linearGradient><style id="style4511"/><style id="style4511-26"/><style id="style4511-9"/><style id="style4552"/><style id="style4511-2"/><linearGradient xlink:href="#linearGradient4488" id="linearGradient4544" gradientUnits="userSpaceOnUse" gradientTransform="translate(-62.887 1.994) scale(.3038)" x1="288.112" y1="141.785" x2="287.575" y2="79.008"/><linearGradient xlink:href="#linearGradient4477" id="linearGradient4483" x1="2.585" y1="23.586" x2="44.832" y2="23.586" gradientUnits="userSpaceOnUse"/></defs><style id="style4485" type="text/css"/><path id="path4524" d="M2.752 26.22v1.67c0 9.573 5.583 17.281 17.146 17.281h6.93c15.133 0 17.837-11.322 17.837-17.282v-1.668c0 5.96-2.704 17.282-17.837 17.282h-6.93c-11.563 0-17.146-7.708-17.146-17.282z" opacity="1" fill="url(#linearGradient4544)" fill-opacity="1" stroke="none" stroke-width="1.1" stroke-linecap="square" stroke-linejoin="bevel" stroke-miterlimit="4" stroke-dasharray="none" stroke-dashoffset="0" stroke-opacity=".078"/><path id="path4526" d="M19.365 2.742h8.495c13.908 0 16.805 11.247 16.805 17.282v7.124c0 5.96-2.705 17.282-17.837 17.282h-6.93c-11.563 0-17.146-7.708-17.146-17.282v-7.124c0-9.574 5.47-17.282 16.613-17.282z" opacity="1" fill="url(#linearGradient4483)" fill-opacity="1" stroke="#000" stroke-width=".334" stroke-linecap="square" stroke-linejoin="bevel" stroke-miterlimit="4" stroke-dasharray="none" stroke-dashoffset="0" stroke-opacity=".078"/><path id="path6-3-3" d="M22.236 10.727c-2.246 1.176-3.228 3.302-4.244 5.305-.646-.873-.812-2.098-1.063-3.184-1.985 2.615-2.859 6.96-3.658 9.573-1.132 3.715-2.572 5.993-4.63 7.322-1.224.79-2.322 1.193-4.692 1.73-.149.045-.241.059-.399.1 1.64 7.179 7.098 12.398 16.608 12.398h3.789c.504-1.702.513-3.643.21-4.927-.25-.996-.904-2.784-.86-2.854.043-.07 1.108.037 2.015.037 1.072 0 1.858.04 2.426-.133.48-.145 1.054-.382 1.395-.365 1.514.077 3.429-.61 3.935-1.957.157-.419.43-.957.604-1.197.285-.394.295-.507.113-1.125-.259-.874-.786-1.6-1.902-2.62-.846-.77-1.118-.85-1.16-1.677-.031-.607.132-1.032-.198-1.342-.372-.352-1.472-.126-1.533-.133-.392-.456-.765-.932-.043-1.59.545-.498.644-.685.644-1.23 0-.537-.097-.728-.57-1.143-.312-.273-.648-.496-.748-.496-.099 0-.6-.402-1.113-.89-.995-.947-1.765-1.115-2.54-1.115-.626 0-1.325-.155-1.325-1.061.834-3.019 4.053-4.608 5.304-5.305-3.168-.449-5.326.216-7.427 2.123-.1-1.108.944-3.528 1.062-4.244z" fill="#fff" fill-opacity=".94"/></svg>