<svg xmlns:osb="http://www.openswatchbook.org/uri/2009/osb" xmlns="http://www.w3.org/2000/svg" width="48" height="48" version="1.1" id="svg38"><defs id="defs22"><style id="style4511"/><style id="style4511-26"/><style id="style4511-9"/><style id="style4552"/><style id="style4511-2"/><linearGradient osb:paint="solid" id="linearGradient5293"><stop id="stop5295" offset="0" stop-color="#9a89c0" stop-opacity="1"/></linearGradient></defs><style id="style4485" type="text/css"/><path id="path4518" d="M3.066 28.69v-8.577c0-14.042 11.247-16.967 17.282-16.967h7.123c5.96 0 17.282 2.73 17.282 18.01v6.996c0 11.674-7.708 17.312-17.282 17.312h-7.123c-9.574 0-17.282-5.523-17.282-16.774z" opacity="1" fill="#e6e6e6" fill-opacity="1" stroke="#000" stroke-width=".336" stroke-linecap="square" stroke-linejoin="bevel" stroke-miterlimit="4" stroke-dasharray="none" stroke-dashoffset="0" stroke-opacity=".078"/><g id="g1327" transform="translate(61.05 7.157) scale(.8814)"><path id="path1260" d="M-56.29 5.322A19.966 19.966 0 0 1-42.148-.554v20.018z" fill="#e647ff"/><path id="path1262" d="M-28.006 5.322A19.966 19.966 0 0 0-42.148-.554v20.018z" fill="#ff3636"/><path id="path1264" d="M-56.272 5.32a19.967 19.967 0 0 0-5.876 14.142h20.018z" fill="#5964ff"/><path id="path1266" d="M-56.272 33.605a19.966 19.966 0 0 1-5.876-14.142h20.018z" fill="#53bdff"/><path id="path1268" d="M-28.006 5.32a19.967 19.967 0 0 1 5.876 14.142h-20.018z" fill="#ff7221"/><path id="path1270" d="M-28.006 33.605a19.967 19.967 0 0 0 5.876-14.142h-20.018z" fill="#ffac29"/><path id="path1272" d="M-56.29 33.589a19.965 19.965 0 0 0 14.142 5.876V19.447z" fill="#80ffe5"/><path id="path1274" d="M-28.006 33.589a19.965 19.965 0 0 1-14.142 5.876V19.447z" fill="#73ff44"/><circle id="circle1282" r="10" cy="19.465" cx="-42.148" fill="#fff"/></g></svg>