<svg xmlns:osb="http://www.openswatchbook.org/uri/2009/osb" xmlns="http://www.w3.org/2000/svg" width="48" height="48" version="1.1" id="svg38"><defs id="defs22"><style id="style4511"/><style id="style4511-26"/><style id="style4511-9"/><style id="style4552"/><style id="style4511-2"/><linearGradient osb:paint="solid" id="linearGradient5293"><stop id="stop5295" offset="0" stop-color="#9a89c0" stop-opacity="1"/></linearGradient><filter height="1.112" y="-.056" width="1.084" x="-.042" id="filter956" color-interpolation-filters="sRGB"><feGaussianBlur id="feGaussianBlur958" stdDeviation="2.975"/></filter><filter height="1.213" y="-.107" width="1.277" x="-.139" id="filter900" color-interpolation-filters="sRGB"><feGaussianBlur id="feGaussianBlur902" stdDeviation=".724"/></filter><filter height="1.218" y="-.109" width="1.221" x="-.11" id="filter904" color-interpolation-filters="sRGB"><feGaussianBlur id="feGaussianBlur906" stdDeviation=".724"/></filter><filter height="1.155" y="-.078" width="1.258" x="-.129" id="filter908" color-interpolation-filters="sRGB"><feGaussianBlur id="feGaussianBlur910" stdDeviation=".724"/></filter></defs><style id="style4485" type="text/css"/><path id="path4518" d="M3.066 28.69v-8.577c0-14.042 11.247-16.967 17.282-16.967h7.123c5.96 0 17.282 2.73 17.282 18.01v6.996c0 11.674-7.708 17.312-17.282 17.312h-7.123c-9.574 0-17.282-5.523-17.282-16.774z" opacity="1" fill="#e6e6e6" fill-opacity="1" stroke="#000" stroke-width=".336" stroke-linecap="square" stroke-linejoin="bevel" stroke-miterlimit="4" stroke-dasharray="none" stroke-dashoffset="0" stroke-opacity=".078"/><g id="g1389" transform="matrix(.19303 0 0 .19489 1.299 2.275)"><g id="g934" opacity=".3" fill="#000" fill-opacity="1" filter="url(#filter956)" stroke-width="3.542"><path id="path930" d="M117.135 43.175a85 60.208 0 0 0-85 60.209 85 60.208 0 0 0 85 60.208 85 60.208 0 0 0 85-60.208 85 60.208 0 0 0-85-60.209zm14.167 21.25a63.75 38.958 0 0 1 63.75 38.959 63.75 38.958 0 0 1-63.75 38.958 63.75 38.958 0 0 1-63.75-38.958 63.75 38.958 0 0 1 63.75-38.959z" opacity=".2"/><path id="path932" d="M167.427 131.541s2.742-.786 5.477.61c.949.481 2.59 1.454 3.775 2.724a10.313 10.313 0 0 1 1.726 2.507l16.645 33.293h-35.416s-7.914-23.135-15.321-33.037c-1.474-1.206-2.705-2.497-4.158-2.38H131.3l.003 35.397h-28.334V71.508h53.68c5.819 0 30.458 3.542 31.318 28.334-.86 24.792-20.541 31.876-20.541 31.876zm-36.123-38.965v21.257h21.248s7.083.255 7.083-10.626c0-11.428-7.083-10.619-7.083-10.619z" fill-rule="evenodd"/></g><g id="g848"><path d="M117.135 43.175a85 60.208 0 0 0-85 60.209 85 60.208 0 0 0 85 60.208 85 60.208 0 0 0 85-60.208 85 60.208 0 0 0-85-60.209zm14.167 21.25a63.75 38.958 0 0 1 63.75 38.959 63.75 38.958 0 0 1-63.75 38.958 63.75 38.958 0 0 1-63.75-38.958 63.75 38.958 0 0 1 63.75-38.959z" id="path4" opacity=".2" stroke-width="3.542"/><path d="M167.427 131.541s2.742-.786 5.477.61c.949.481 2.59 1.454 3.775 2.724a10.313 10.313 0 0 1 1.726 2.507l16.645 33.293h-35.416s-7.914-23.135-15.321-33.037c-1.474-1.206-2.705-2.497-4.158-2.38H131.3l.003 35.397h-28.334V71.508h53.68c5.819 0 30.458 3.542 31.318 28.334-.86 24.792-20.541 31.876-20.541 31.876zm-36.123-38.965v21.257h21.248s7.083.255 7.083-10.626c0-11.428-7.083-10.619-7.083-10.619z" id="path6" fill="#e30619" fill-opacity="1" fill-rule="evenodd" stroke-width="3.542"/><g transform="translate(161.065 -49.286)" id="text849" style="line-height:1.25" aria-label="cmd" font-style="normal" font-weight="400" font-size="40" font-family="Overpass Mono" letter-spacing="0" word-spacing="0" fill="#000" fill-opacity="1" stroke="none" font-variant="normal" font-stretch="normal" stroke-width=".762"><path id="path851" style="-inkscape-font-specification:'Overpass Mono'" d="M-60.619 237.597c2.986 0 5.148-1.431 5.94-3.899l-2.376-.853c-.518 1.462-1.736 2.346-3.472 2.346-2.711 0-4.021-2.132-4.021-5.727 0-3.533 1.249-5.787 4.082-5.787 1.736 0 2.71.914 3.229 2.101l2.406-.883c-.914-2.376-2.924-3.594-5.605-3.594-4.203 0-6.762 3.046-6.762 8.163 0 5.148 2.528 8.133 6.58 8.133z" fill="#545454"/><path id="path853" style="-inkscape-font-specification:'Overpass Mono'" d="M-38.162 221.3c-1.645 0-2.772 1.097-3.473 2.377-.365-1.158-1.37-2.376-3.046-2.376-1.462 0-2.436.853-3.015 2.376v-2.01h-2.376v15.565h2.528v-9.382c0-2.315.792-4.112 2.346-4.112 1.492 0 1.736 1.675 1.736 3.685v9.809h2.528v-9.382c0-2.315.67-4.112 2.224-4.112 1.523 0 1.827 1.279 1.827 3.96v9.534h2.529v-10.54c0-3.807-1.219-5.391-3.808-5.391z" fill="#545454"/><path id="path855" style="-inkscape-font-specification:'Overpass Mono'" d="M-23.96 237.597c2.04 0 3.35-.761 4.173-1.645v1.28h2.589v-21.993l-2.59 1.249v6.275c-.883-.762-2.192-1.462-4.203-1.462-4.051 0-6.67 3.046-6.67 8.133 0 5.026 2.558 8.163 6.7 8.163zm.335-2.406c-2.742 0-4.387-2.498-4.387-5.757 0-3.686 1.554-5.757 4.356-5.757 2.072 0 3.26 1.096 3.869 2.01v7.372c-.792 1.37-2.132 2.132-3.838 2.132z" fill="#545454"/><path d="M-60.619 237.597c2.986 0 5.148-1.431 5.94-3.899l-2.376-.853c-.518 1.462-1.736 2.346-3.472 2.346-2.711 0-4.021-2.132-4.021-5.727 0-3.533 1.249-5.787 4.082-5.787 1.736 0 2.71.914 3.229 2.101l2.406-.883c-.914-2.376-2.924-3.594-5.605-3.594-4.203 0-6.762 3.046-6.762 8.163 0 5.148 2.528 8.133 6.58 8.133z" style="-inkscape-font-specification:'Overpass Mono'" id="path858" opacity=".3" fill="#000" filter="url(#filter900)"/><path d="M-38.162 221.3c-1.645 0-2.772 1.097-3.473 2.377-.365-1.158-1.37-2.376-3.046-2.376-1.462 0-2.436.853-3.015 2.376v-2.01h-2.376v15.565h2.528v-9.382c0-2.315.792-4.112 2.346-4.112 1.492 0 1.736 1.675 1.736 3.685v9.809h2.528v-9.382c0-2.315.67-4.112 2.224-4.112 1.523 0 1.827 1.279 1.827 3.96v9.534h2.529v-10.54c0-3.807-1.219-5.391-3.808-5.391z" style="-inkscape-font-specification:'Overpass Mono'" id="path860" opacity=".3" fill="#000" filter="url(#filter904)"/><path d="M-23.96 237.597c2.04 0 3.35-.761 4.173-1.645v1.28h2.589v-21.993l-2.59 1.249v6.275c-.883-.762-2.192-1.462-4.203-1.462-4.051 0-6.67 3.046-6.67 8.133 0 5.026 2.558 8.163 6.7 8.163zm.335-2.406c-2.742 0-4.387-2.498-4.387-5.757 0-3.686 1.554-5.757 4.356-5.757 2.072 0 3.26 1.096 3.869 2.01v7.372c-.792 1.37-2.132 2.132-3.838 2.132z" style="-inkscape-font-specification:'Overpass Mono'" id="path862" opacity=".3" fill="#000" filter="url(#filter908)"/></g></g></g></svg>