<svg xmlns:osb="http://www.openswatchbook.org/uri/2009/osb" xmlns="http://www.w3.org/2000/svg" xmlns:xlink="http://www.w3.org/1999/xlink" width="48" height="48" version="1.1" id="svg38"><defs id="defs22"><linearGradient id="linearGradient3797-5"><stop id="stop1871" offset="0" stop-color="#e6eaef" stop-opacity="1"/><stop id="stop1873" offset="1" stop-color="#e6eaef" stop-opacity="1"/></linearGradient><linearGradient id="linearGradient4488"><stop id="stop4490" offset="0" stop-color="#000" stop-opacity=".047"/><stop id="stop4492" offset="1" stop-color="#000" stop-opacity="0"/></linearGradient><style id="style4511"/><style id="style4511-26"/><style id="style4511-9"/><style id="style4552"/><style id="style4511-2"/><linearGradient xlink:href="#linearGradient4488" id="linearGradient4540" gradientUnits="userSpaceOnUse" gradientTransform="rotate(90.216 54.465 -7.917) scale(.3038)" x1="288.112" y1="141.785" x2="287.575" y2="79.008"/><linearGradient osb:paint="solid" id="linearGradient5293"><stop id="stop5295" offset="0" stop-color="#9a89c0" stop-opacity="1"/></linearGradient><style id="style4511-87"/><style id="style4511-26-7"/><style id="style4511-9-1"/><style id="style4552-53"/><style id="style4511-2-9"/><style id="style4511-8"/><style id="style4511-26-4"/><style id="style4511-9-8"/><style id="style4552-5"/><style id="style4511-2-5"/><linearGradient xlink:href="#linearGradient3797-5" id="linearGradient1882" x1="2.389" y1="14.024" x2="24.35" y2="14.024" gradientUnits="userSpaceOnUse"/><linearGradient xlink:href="#linearGradient3797-5" id="linearGradient1890" x1="23.889" y1="34.894" x2="45.805" y2="34.894" gradientUnits="userSpaceOnUse"/><linearGradient xlink:href="#linearGradient3797-5" id="linearGradient1900" gradientUnits="userSpaceOnUse" x1="2.389" y1="14.024" x2="24.35" y2="14.024"/></defs><style id="style4485" type="text/css"/><style type="text/css" id="style4485-7"/><style id="style4485-6" type="text/css"/><path id="path4516" d="M22.28 3.136l-1.67-.007C11.037 3.093 3.309 8.648 3.265 20.21l-.026 6.93c-.057 15.133 11.255 17.88 17.215 17.902l1.669.006c-5.96-.022-17.272-2.77-17.215-17.901l.026-6.93C4.976 8.653 12.705 3.1 22.279 3.135z" opacity="1" fill="url(#linearGradient4540)" fill-opacity="1" stroke="none" stroke-width="1.1" stroke-linecap="square" stroke-linejoin="bevel" stroke-miterlimit="4" stroke-dasharray="none" stroke-dashoffset="0" stroke-opacity=".078"/><path d="M45.695 19.837C45.737 8.694 38.05 3.195 28.476 3.16l-4.293-.016-.157 41.912 4.293.016c6.035.023 17.292-2.832 17.344-16.74z" id="path4518" opacity="1" fill="#ff0b00" fill-opacity=".537" stroke="#000" stroke-width=".334" stroke-linecap="square" stroke-linejoin="bevel" stroke-miterlimit="4" stroke-dasharray="none" stroke-dashoffset="0" stroke-opacity=".078"/><path d="M2.548 28.39c-.027 11.142 7.667 16.631 17.24 16.655l4.294.01.101-41.912-4.293-.01C13.855 3.118 2.602 5.988 2.568 19.895z" id="path4518-7" opacity="1" fill="#ff0b00" fill-opacity=".539" stroke="#000" stroke-width=".334" stroke-linecap="square" stroke-linejoin="bevel" stroke-miterlimit="4" stroke-dasharray="none" stroke-dashoffset="0" stroke-opacity=".078"/><g id="g748" transform="matrix(1.00064 0 0 1 -.015 0)" fill="url(#linearGradient1882)" fill-opacity="1"><path id="path4518-7-6" d="M19.89 3.133C13.855 3.12 2.602 5.987 2.568 19.895l-.012 5.02h21.575l.052-21.772z" opacity="1" fill="url(#linearGradient1900)" fill-opacity="1" stroke="#000" stroke-width=".334" stroke-linecap="square" stroke-linejoin="bevel" stroke-miterlimit="4" stroke-dasharray="none" stroke-dashoffset="0" stroke-opacity=".078"/></g><path d="M28.371 45.056C34.41 45.05 45.66 42.343 45.644 29.4l-.006-4.672-21.587.072.024 20.262z" id="path4518-7-6-7" opacity="1" fill="url(#linearGradient1890)" fill-opacity="1" stroke="#000" stroke-width=".322" stroke-linecap="square" stroke-linejoin="bevel" stroke-miterlimit="4" stroke-dasharray="none" stroke-dashoffset="0" stroke-opacity=".078"/><g id="g1616" transform="matrix(.72658 0 0 .6531 -.378 -147.337)"><path id="path977" d="M40.098 286.277a6.228 6.228 0 0 0 .023-.474 6.228 6.228 0 0 0-.033-.622 6.228 6.228 0 0 0-.094-.615 6.228 6.228 0 0 0-.155-.603 6.228 6.228 0 0 0-.214-.585 6.228 6.228 0 0 0-.272-.56 6.228 6.228 0 0 0-.326-.53 6.228 6.228 0 0 0-.378-.495 6.228 6.228 0 0 0-.425-.455 6.228 6.228 0 0 0-.328-.295 6.228 6.228 0 0 0-.496-.376 6.228 6.228 0 0 0-.531-.324 6.228 6.228 0 0 0-.561-.27 6.228 6.228 0 0 0-.585-.212 6.228 6.228 0 0 0-.604-.153 6.228 6.228 0 0 0-.615-.092 6.228 6.228 0 0 0-.622-.03 6.228 6.228 0 0 0-.622.032 6.228 6.228 0 0 0-.028.004 6.228 6.228 0 0 0 1.874 4.938 6.228 6.228 0 0 0 4.992 1.716z" opacity="1" fill="#ff1700" fill-opacity="1" stroke="none" stroke-width=".528" stroke-linecap="square" stroke-linejoin="miter" stroke-miterlimit="4" stroke-dasharray="none" stroke-opacity="1"/><path d="M25.913 286.277a6.228 6.228 0 0 1-.022-.474 6.228 6.228 0 0 1 .032-.622 6.228 6.228 0 0 1 .094-.615 6.228 6.228 0 0 1 .155-.603 6.228 6.228 0 0 1 .215-.585 6.228 6.228 0 0 1 .271-.56 6.228 6.228 0 0 1 .327-.53 6.228 6.228 0 0 1 .377-.495 6.228 6.228 0 0 1 .426-.455 6.228 6.228 0 0 1 .327-.295 6.228 6.228 0 0 1 .496-.376 6.228 6.228 0 0 1 .532-.324 6.228 6.228 0 0 1 .56-.27 6.228 6.228 0 0 1 .586-.212 6.228 6.228 0 0 1 .603-.153 6.228 6.228 0 0 1 .616-.092 6.228 6.228 0 0 1 .622-.03 6.228 6.228 0 0 1 .622.032 6.228 6.228 0 0 1 .028.004 6.228 6.228 0 0 1-1.874 4.938 6.228 6.228 0 0 1-4.993 1.716z" id="path979" opacity="1" fill="#ff1700" fill-opacity="1" stroke="none" stroke-width=".528" stroke-linecap="square" stroke-linejoin="miter" stroke-miterlimit="4" stroke-dasharray="none" stroke-opacity="1"/><ellipse ry="11.503" rx="12.878" cy="268.426" cx="33.594" id="path1590" opacity="1" fill="#ffeda8" fill-opacity="1" stroke="#282525" stroke-width=".796" stroke-linecap="square" stroke-linejoin="miter" stroke-miterlimit="4" stroke-dasharray="none" stroke-opacity="1"/><ellipse transform="matrix(.8859 .46386 -.64318 .76571 0 0)" ry=".66" rx="1.276" cy="225.638" cx="199.327" id="path1592" opacity="1" fill="#000" fill-opacity=".559" stroke="none" stroke-width=".828" stroke-linecap="square" stroke-linejoin="miter" stroke-miterlimit="4" stroke-dasharray="none" stroke-opacity="1"/><ellipse id="ellipse1594" cx="-146.954" cy="-257.429" rx="1.276" ry=".66" transform="matrix(.8859 -.46386 -.64318 -.76571 0 0)" opacity="1" fill="#000" fill-opacity=".559" stroke="none" stroke-width=".828" stroke-linecap="square" stroke-linejoin="miter" stroke-miterlimit="4" stroke-dasharray="none" stroke-opacity="1"/><circle r="2.547" cy="267.644" cx="42.014" id="path1596" opacity=".5" fill="#ff8143" fill-opacity="1" stroke="none" stroke-width=".842" stroke-linecap="square" stroke-linejoin="miter" stroke-miterlimit="4" stroke-dasharray="none" stroke-opacity="1"/><circle id="circle1600" cx="25.139" cy="267.644" r="2.547" opacity=".5" fill="#ff3a00" fill-opacity=".559" stroke="none" stroke-width=".842" stroke-linecap="square" stroke-linejoin="miter" stroke-miterlimit="4" stroke-dasharray="none" stroke-opacity="1"/><path id="path981" d="M23.307 261.134s3.412.874 5.156 1.08c3.382.4 6.822.614 10.213.295 1.669-.157 4.91-1.08 4.91-1.08s-1.423-9.723-1.08-9.723c.344 0 1.76-.4 2.456-.933.753-.577 1.409-1.395 1.669-2.308.252-.884-.196-2.75-.196-2.75s-.438-1.738-1.032-2.357c-.542-.565-1.453-.915-2.111-1.03-1.61-.284-4.42.932-4.42.932s-.477-1.434-.883-2.062c-.434-.672-.93-1.367-1.62-1.768-.45-.26-1.003-.327-1.523-.344a4.274 4.274 0 0 0-1.522.246c-.602.21-1.189.514-1.67.933-.51.445-.86 1.05-1.227 1.62-.373.58-.982 1.817-.982 1.817s-1.756-.98-2.8-1.178c-.822-.157-1.704-.446-2.503-.197-.867.27-1.625.953-2.112 1.719-.29.456-.331 1.035-.393 1.571-.113.992-.296 2.059.05 2.996.293.796.956 1.435 1.62 1.964.515.41 1.768.884 1.768.884z" fill="#f4f4f4" fill-opacity="1" stroke="#080808" stroke-width=".796" stroke-linecap="butt" stroke-linejoin="miter" stroke-miterlimit="4" stroke-dasharray="none" stroke-opacity="1"/><ellipse transform="matrix(.99907 .04322 -.0911 .99584 0 0)" ry="3.199" rx=".716" cy="254.228" cx="52.46" id="path994" opacity="1" fill="#080808" fill-opacity="1" stroke="none" stroke-width=".73" stroke-linecap="square" stroke-linejoin="miter" stroke-miterlimit="4" stroke-dasharray="none" stroke-opacity="1"/><ellipse id="ellipse996" cx="-14.75" cy="257.145" rx=".716" ry="3.199" transform="matrix(-.99907 .04322 .0911 .99584 0 0)" opacity="1" fill="#080808" fill-opacity="1" stroke="none" stroke-width=".73" stroke-linecap="square" stroke-linejoin="miter" stroke-miterlimit="4" stroke-dasharray="none" stroke-opacity="1"/><ellipse transform="matrix(-.99815 -.06072 -.01275 .99992 0 0)" ry="3.199" rx=".716" cy="253.211" cx="-37.004" id="ellipse998" opacity="1" fill="#080808" fill-opacity="1" stroke="none" stroke-width=".73" stroke-linecap="square" stroke-linejoin="miter" stroke-miterlimit="4" stroke-dasharray="none" stroke-opacity="1"/><path id="path1587" d="M26.763 271.802c-1.056-.176-2.554-.838-3.116-1.376-.574-.55-.584-1.276-.025-1.94.226-.269.474-.49.55-.49.075 0-.039.19-.254.422-.87.939-.207 1.628 2.049 2.133l.88.197.689-.59c.712-.61 2.576-1.594 3.372-1.78.422-.098.442-.082.279.223-.258.483-.215 1.244.087 1.547.403.403.941.555 1.965.555 2.034 0 2.983-.924 2.302-2.241l-.245-.475.444.105c1.138.268 2.72 1.08 3.89 1.997.32.25.724.455.899.455.557 0 2.362-.624 2.798-.966.564-.444.564-1.126 0-1.57-.23-.181-.352-.33-.27-.33.417 0 1.167.993 1.167 1.543 0 .536-.867 1.417-1.852 1.883-1.832.867-5.044 1.117-7.73.602-1.33-.255-1.488-.254-2.72 0-1.389.288-3.745.332-5.16.096z" fill="#000" stroke-width=".159"/></g></svg>