<svg xmlns:osb="http://www.openswatchbook.org/uri/2009/osb" xmlns="http://www.w3.org/2000/svg" xmlns:xlink="http://www.w3.org/1999/xlink" width="48" height="48" version="1.1" id="svg38"><defs id="defs22"><linearGradient id="linearGradient1377"><stop offset="0" id="stop1373" stop-color="#ccc" stop-opacity="1"/><stop offset="1" id="stop1375" stop-color="#ccc" stop-opacity="0"/></linearGradient><style id="style4511"/><style id="style4511-26"/><style id="style4511-9"/><style id="style4552"/><linearGradient id="a-3" y1="543.8" y2="512.8" x2="0" gradientUnits="userSpaceOnUse"><stop stop-color="#cea476" id="stop2-6"/><stop offset="1" stop-color="#dab58b" id="stop4-75"/></linearGradient><style id="style4511-2"/><linearGradient osb:paint="solid" id="linearGradient5293"><stop id="stop5295" offset="0" stop-color="#9a89c0" stop-opacity="1"/></linearGradient><linearGradient xlink:href="#a-3" id="linearGradient1371" x1="2.583" y1="24.305" x2="45.236" y2="24.305" gradientUnits="userSpaceOnUse"/><linearGradient xlink:href="#linearGradient1377" id="linearGradient1379" x1="11.433" y1="17.798" x2="20.028" y2="17.798" gradientUnits="userSpaceOnUse" gradientTransform="matrix(.97282 0 0 .96236 1.03 1.472)"/></defs><style id="style4485" type="text/css"/><g id="g1394"><path d="M19.525 3.175H28.1c14.042 0 16.966 11.402 16.966 17.52v7.22c0 6.042-2.73 17.52-18.008 17.52h-6.996c-11.674 0-17.31-7.814-17.31-17.52v-7.22c0-9.706 5.522-17.52 16.772-17.52z" id="path4518" opacity="1" fill="url(#linearGradient1371)" fill-opacity="1" stroke="#000" stroke-width=".338" stroke-linecap="square" stroke-linejoin="bevel" stroke-miterlimit="4" stroke-dasharray="none" stroke-dashoffset="0" stroke-opacity=".078"/><path d="M12.152 28.405v8.674c0 .96.746 1.735 1.672 1.735h1.673c.926 0 1.672-.774 1.672-1.735v-8.674z" id="path6" opacity=".2" stroke-width=".852"/><path d="M12.152 10.578s8.362 4.93 8.362 17.827h-8.362z" id="path8" opacity=".2" stroke-width=".863"/><path d="M12.152 27.514v8.913c0 .988.746 1.783 1.672 1.783h1.673c.926 0 1.672-.795 1.672-1.783v-8.913z" id="path10" fill="#855629" stroke-width=".863"/><path d="M12.152 9.686s8.362 4.93 8.362 17.828h-8.362z" id="path12-3" fill="url(#linearGradient1379)" fill-opacity="1" stroke-width=".863"/><ellipse cx="14.66" cy="31.079" id="circle14" rx=".836" ry=".891" opacity=".2" stroke-width=".863"/><ellipse cx="14.66" cy="30.188" id="circle16" rx=".836" ry=".891" fill="#ccc" stroke-width=".863"/><ellipse cx="14.66" cy="36.427" id="circle18" rx=".836" ry=".891" opacity=".2" stroke-width=".863"/><ellipse cx="14.66" cy="35.536" id="circle20" rx=".836" ry=".891" fill="#ccc" stroke-width=".863"/><ellipse cx="30.819" cy="27.378" id="circle22" rx="7.075" ry="6.476" opacity=".2" stroke-width=".752"/><ellipse cx="30.54" cy="27.325" id="circle24" rx="7.075" ry="6.476" fill="#e74c3c" stroke-width=".752"/><path d="M28.967 20.849v.89a7.075 6.476 0 0 0-4.728 3.375c.53-.085 1.628-.338 3.287-1.166.658-.33 1.225-.62 1.441-.94-1.88 2.158.16 2.475 1.18 3.597 0 0 2.39-1.439.393-3.598 2.358 1.051 4.716.72 4.716.72s.013-.212-.003-.503a7.075 6.476 0 0 0-4.713-1.656v-.72z" id="path26" opacity=".1" fill-rule="evenodd" stroke-width=".752"/><path d="M28.967 20.129v.89a7.075 6.476 0 0 0-4.728 3.376c.53-.085 1.628-.339 3.287-1.167.658-.329 1.225-.62 1.441-.94-1.88 2.159.16 2.475 1.18 3.598 0 0 2.39-1.44.393-3.598 2.358 1.05 4.716.72 4.716.72s.013-.212-.003-.504a7.075 6.476 0 0 0-4.713-1.655v-.72z" id="path28" fill="#a6ef4d" fill-rule="evenodd" stroke-width=".752"/></g></svg>