<svg xmlns:osb="http://www.openswatchbook.org/uri/2009/osb" xmlns="http://www.w3.org/2000/svg" xmlns:xlink="http://www.w3.org/1999/xlink" width="48" height="48" version="1.1" id="svg38"><defs id="defs22"><linearGradient id="linearGradient4488"><stop id="stop4490" offset="0" stop-color="#000" stop-opacity=".047"/><stop id="stop4492" offset="1" stop-color="#000" stop-opacity="0"/></linearGradient><style id="style4511"/><style id="style4511-26"/><style id="style4511-9"/><style id="style4552"/><style id="style4511-2"/><linearGradient xlink:href="#linearGradient4488" id="linearGradient4540" gradientUnits="userSpaceOnUse" gradientTransform="rotate(.202 -417.737 -16584.553) scale(.3038)" x1="288.112" y1="141.785" x2="287.575" y2="79.008"/><linearGradient osb:paint="solid" id="linearGradient5293"><stop id="stop5295" offset="0" stop-color="#9a89c0" stop-opacity="1"/></linearGradient><style id="style4511-87"/><style id="style4511-26-7"/><style id="style4511-9-1"/><style id="style4552-53"/><style id="style4511-2-9"/><style id="style4511-8"/><style id="style4511-26-4"/><style id="style4511-9-8"/><style id="style4552-5"/><style id="style4511-2-5"/></defs><style id="style4485" type="text/css"/><style type="text/css" id="style4485-7"/><style id="style4485-6" type="text/css"/><g id="g1788" transform="matrix(1 0 0 .98367 0 .746)" fill-opacity="1" stroke-linecap="square" stroke-linejoin="bevel" stroke-miterlimit="4" stroke-dasharray="none" stroke-dashoffset="0" stroke-opacity=".078"><path d="M3.157 25.942l-.006 1.669c-.036 9.574 5.518 17.303 17.08 17.347l6.93.026c15.133.056 17.88-11.256 17.902-17.215l.006-1.669c-.022 5.96-2.769 17.272-17.901 17.215l-6.93-.026C8.675 43.245 3.12 35.517 3.157 25.942z" id="path4516" opacity="1" fill="url(#linearGradient4540)" stroke="none" stroke-width="1.1"/><path id="path4518" d="M19.859 2.527C8.716 2.485 3.216 10.17 3.18 19.745l-.016 4.293 41.912.158.016-4.293c.023-6.035-2.832-17.292-16.74-17.344z" opacity="1" fill="#ff5900" stroke="#000" stroke-width=".334"/><path id="path4518-7" d="M28.41 45.674c11.144.027 16.633-7.667 16.656-17.241l.01-4.293-41.912-.102-.01 4.293c-.015 6.035 2.855 17.288 16.763 17.322z" opacity="1" fill="#ff5900" stroke="#000" stroke-width=".334"/></g><path d="M25.137 11.569a1.075 1.044 0 0 0-1.008.918l-.957 7.472a11.823 8.354 0 0 0-7.204 2.284 3.224 3.133 0 0 0-2.593-1.274 3.224 3.133 0 0 0-3.224 3.132 3.224 3.133 0 0 0 2.282 2.992 11.823 8.354 0 0 0-.133 1.185 11.823 8.354 0 0 0 11.823 8.354 11.823 8.354 0 0 0 11.823-8.354 11.823 8.354 0 0 0-.132-1.183 3.224 3.133 0 0 0 2.281-2.994 3.224 3.133 0 0 0-3.224-3.132 3.224 3.133 0 0 0-2.588 1.27 11.823 8.354 0 0 0-6.949-2.26l.794-6.183 4.6.638a2.15 2.088 0 0 0 1.993 1.314 2.15 2.088 0 0 0 2.15-2.089 2.15 2.088 0 0 0-2.15-2.088 2.15 2.088 0 0 0-1.687.8l-5.683-.786a1.075 1.044 0 0 0-.214-.016zm-5.313 12.532a2.15 2.088 0 0 1 2.15 2.089 2.15 2.088 0 0 1-2.15 2.088 2.15 2.088 0 0 1-2.15-2.088 2.15 2.088 0 0 1 2.15-2.089zm8.598 0a2.15 2.088 0 0 1 2.15 2.089 2.15 2.088 0 0 1-2.15 2.088 2.15 2.088 0 0 1-2.15-2.088 2.15 2.088 0 0 1 2.15-2.089zm1.052 6.235a1.079 1.048 0 0 1 .987 1.544s-.455.8-1.445 1.442c-.99.64-2.566 1.217-4.895 1.217-2.329 0-3.906-.576-4.895-1.217-.99-.641-1.436-1.442-1.436-1.442a1.075 1.044 0 0 1 .865-1.526 1.075 1.044 0 0 1 .109-.004 1.075 1.044 0 0 1 .947.59s.082.245.705.648 1.735.87 3.705.87 3.082-.467 3.705-.87c.623-.403.708-.648.708-.648a1.079 1.048 0 0 1 .94-.604z" id="path1762" fill="#fff" stroke-width="1.059"/></svg>