<svg xmlns="http://www.w3.org/2000/svg" xmlns:xlink="http://www.w3.org/1999/xlink" width="48" height="48" version="1.1" id="svg38"><defs id="defs22"><linearGradient id="linearGradient4488"><stop id="stop4490" offset="0" stop-color="#000" stop-opacity=".047"/><stop id="stop4492" offset="1" stop-color="#000" stop-opacity="0"/></linearGradient><style id="style4511"/><style id="style4511-26"/><style id="style4511-9"/><style id="style4552"/><style id="style4511-2"/><linearGradient gradientTransform="matrix(.3082 0 0 .3038 -64.056 2.216)" xlink:href="#linearGradient4488" id="linearGradient4160" x1="288.112" y1="141.785" x2="287.575" y2="79.008" gradientUnits="userSpaceOnUse"/></defs><style id="style4485" type="text/css"/><path d="M2.535 26.443v1.668c0 9.575 5.664 17.282 17.394 17.282h7.031c15.352 0 18.095-11.322 18.095-17.282v-1.668c0 5.96-2.743 17.282-18.095 17.282h-7.03c-11.73 0-17.395-7.708-17.395-17.282z" id="path4147" opacity="1" fill="url(#linearGradient4160)" fill-opacity="1" stroke="none" stroke-width="1.108" stroke-linecap="square" stroke-linejoin="bevel" stroke-miterlimit="4" stroke-dasharray="none" stroke-dashoffset="0" stroke-opacity=".078"/><path d="M19.389 2.965h8.618c14.11 0 17.048 11.246 17.048 17.282v7.123c0 5.96-2.743 17.282-18.095 17.282h-7.03c-11.73 0-17.395-7.708-17.395-17.282v-7.123c0-9.575 5.55-17.282 16.854-17.282z" id="rect4144" opacity="1" fill="#ccc" fill-opacity="1" stroke="#000" stroke-width=".337" stroke-linecap="square" stroke-linejoin="bevel" stroke-miterlimit="4" stroke-dasharray="none" stroke-dashoffset="0" stroke-opacity=".078"/><g id="g1403" transform="translate(-.503 -.923)"><path id="path1412" d="M23.795 8.377A15.503 15.431 0 0 0 8.292 23.808 15.503 15.431 0 0 0 23.795 39.24a15.503 15.431 0 0 0 15.503-15.432A15.503 15.431 0 0 0 23.795 8.377zm-4.134 5.144h8.268a4.116 4.116 0 0 1 4.135 4.115v2.057a4.116 4.116 0 0 1-4.135 4.115h-1.033v9.26a2.058 2.058 0 0 1-2.067 2.057h-2.067a2.058 2.058 0 0 1-2.068-2.058v-9.259h-1.033a4.116 4.116 0 0 1-4.134-4.115v-2.057a4.116 4.116 0 0 1 4.134-4.115z" fill="red" stroke-width="1.031"/><circle id="circle1405" r="15" cy="26.085" cx="25.304"/></g></svg>