<svg xmlns:osb="http://www.openswatchbook.org/uri/2009/osb" xmlns="http://www.w3.org/2000/svg" xmlns:xlink="http://www.w3.org/1999/xlink" width="48" height="48" version="1.1" id="svg38"><defs id="defs22"><linearGradient id="linearGradient4488"><stop id="stop4490" offset="0" stop-color="#000" stop-opacity=".047"/><stop id="stop4492" offset="1" stop-color="#000" stop-opacity="0"/></linearGradient><style id="style4511"/><style id="style4511-26"/><style id="style4511-9"/><style id="style4552"/><style id="style4511-2"/><linearGradient xlink:href="#linearGradient4488" id="linearGradient4540" gradientUnits="userSpaceOnUse" gradientTransform="matrix(.31114 0 0 .3111 -64.475 1.976)" x1="288.112" y1="141.785" x2="287.575" y2="79.008"/><linearGradient osb:paint="solid" id="linearGradient5293"><stop id="stop5295" offset="0" stop-color="#9a89c0" stop-opacity="1"/></linearGradient><linearGradient gradientUnits="userSpaceOnUse" gradientTransform="matrix(2.6002 0 0 .04343 60.894 36.867)" id="linearGradient-7" y2="25.675" x2="4.536" y1="17.964" x1="4.536"><stop id="stop18-1" offset="0%" stop-color="#F7F7F7"/><stop id="stop20-2" offset="100%" stop-color="#F7F7F7"/></linearGradient><linearGradient id="linearGradient4432"><stop offset="0" id="stop4434" stop-color="#e6e6e6" stop-opacity="1"/><stop offset="1" id="stop4436" stop-color="#fff" stop-opacity="1"/></linearGradient><linearGradient id="linearGradient4232"><stop offset="0" id="stop4234-0" stop-color="#3889e9" stop-opacity="1"/><stop offset="1" id="stop4236" stop-color="#5ea5fb" stop-opacity="1"/></linearGradient><linearGradient gradientUnits="userSpaceOnUse" y2="517.798" x2="399.571" y1="545.798" x1="399.571" id="linearGradient3426" xlink:href="#linearGradient4232" gradientTransform="translate(-699.351 -871.525) scale(1.67937)"/><linearGradient id="linearGradient4202"><stop id="stop4204" offset="0" stop-color="#c61423" stop-opacity="1"/><stop id="stop4206" offset="1" stop-color="#ff4c63" stop-opacity="1"/></linearGradient><linearGradient gradientUnits="userSpaceOnUse" y2="500.789" x2="408.435" y1="546.798" x1="408.571" id="linearGradient3266" xlink:href="#linearGradient4432"/><linearGradient gradientTransform="scale(1.06667)" y2="500.789" x2="408.435" y1="546.798" x1="408.571" gradientUnits="userSpaceOnUse" id="linearGradient3268" xlink:href="#linearGradient4432"/><linearGradient xlink:href="#linearGradient4432" id="linearGradient515" gradientUnits="userSpaceOnUse" gradientTransform="scale(1.06667)" x1="408.571" y1="546.798" x2="408.435" y2="500.789"/><linearGradient xlink:href="#linearGradient4432" id="linearGradient517" gradientUnits="userSpaceOnUse" gradientTransform="scale(1.06667)" x1="408.571" y1="546.798" x2="408.435" y2="500.789"/><linearGradient xlink:href="#linearGradient4432" id="linearGradient519" gradientUnits="userSpaceOnUse" gradientTransform="scale(1.06667)" x1="408.571" y1="546.798" x2="408.435" y2="500.789"/><linearGradient xlink:href="#linearGradient4432" id="linearGradient521" gradientUnits="userSpaceOnUse" gradientTransform="scale(1.06667)" x1="408.571" y1="546.798" x2="408.435" y2="500.789"/><linearGradient xlink:href="#linearGradient4432" id="linearGradient523" gradientUnits="userSpaceOnUse" gradientTransform="scale(1.06667)" x1="408.571" y1="546.798" x2="408.435" y2="500.789"/><linearGradient xlink:href="#linearGradient4432" id="linearGradient525" gradientUnits="userSpaceOnUse" gradientTransform="scale(1.06667)" x1="408.571" y1="546.798" x2="408.435" y2="500.789"/><linearGradient xlink:href="#linearGradient4432" id="linearGradient527" gradientUnits="userSpaceOnUse" gradientTransform="scale(1.06667)" x1="408.571" y1="546.798" x2="408.435" y2="500.789"/><linearGradient xlink:href="#linearGradient4202" id="linearGradient1369" x1="4.248" y1="23.665" x2="43.255" y2="23.665" gradientUnits="userSpaceOnUse" gradientTransform="matrix(0 -1.02416 1.02402 0 .026 48.493)"/></defs><style id="style4485" type="text/css"/><rect id="Mask" x="63.147" y="78.204" width="20.231" height="20.096" rx=".581" fill="#f1f1f1" fill-opacity="1" fill-rule="evenodd" stroke="none" stroke-width=".336"/><path d="M82.713 37.983a.675.675 0 0 0-.584-.335H63.246a.675.675 0 0 0-.584.335z" id="use70" fill="url(#linearGradient-7)" fill-rule="evenodd" stroke="none" stroke-width=".336"/><circle id="circle4174" cx="-26.645" cy="21.558" r="23.511" opacity="1" fill="#5ea5fb" fill-opacity="0" stroke="none" stroke-width="1.329" stroke-miterlimit="4" stroke-dasharray="none" stroke-dashoffset="0" stroke-opacity="1"/><path id="path4516" d="M2.75 26.785v1.708c0 9.804 5.718 17.698 17.56 17.698h7.098c15.498 0 18.267-11.595 18.267-17.698v-1.708c0 6.102-2.77 17.697-18.267 17.697H20.31c-11.842 0-17.56-7.893-17.56-17.697z" opacity="1" fill="url(#linearGradient4540)" fill-opacity="1" stroke="none" stroke-width="1.127" stroke-linecap="square" stroke-linejoin="bevel" stroke-miterlimit="4" stroke-dasharray="none" stroke-dashoffset="0" stroke-opacity=".078"/><path id="path4518" d="M19.764 2.742h8.7c14.245 0 17.211 11.517 17.211 17.698v7.294c0 6.103-2.77 17.697-18.267 17.697H20.31c-11.842 0-17.56-7.893-17.56-17.697V20.44c0-9.805 5.602-17.698 17.014-17.698z" opacity="1" fill="#f2f2f2" fill-opacity="1" stroke="#000" stroke-width=".342" stroke-linecap="square" stroke-linejoin="bevel" stroke-miterlimit="4" stroke-dasharray="none" stroke-dashoffset="0" stroke-opacity=".078"/><path id="path4518-0" d="M4.449 28.274v-8.032c0-13.152 10.69-15.89 16.425-15.89h6.77c5.665 0 16.426 2.556 16.426 16.866v6.553c0 10.933-7.326 16.213-16.426 16.213h-6.77c-9.1 0-16.425-5.173-16.425-15.71z" opacity="1" fill="url(#linearGradient1369)" fill-opacity="1" stroke="#000" stroke-width=".317" stroke-linecap="square" stroke-linejoin="bevel" stroke-miterlimit="4" stroke-dasharray="none" stroke-dashoffset="0" stroke-opacity=".078"/><g id="g3250" transform="matrix(.98149 0 0 .98136 -403.646 -523.166)" fill="url(#linearGradient3266)" fill-opacity="1" stroke-width="1.067"><path d="M435.81 547.46c.626 0 1.133-.507 1.133-1.132v-2.634a1.132 1.132 0 1 0-2.265 0v2.634c0 .625.506 1.132 1.132 1.132z" id="path14-6" fill="url(#linearGradient515)"/><path d="M428.379 549.11a1.133 1.133 0 0 0 1.833-1.33l-1.548-2.132a1.133 1.133 0 0 0-1.833 1.33z" id="path16" fill="url(#linearGradient517)"/><path d="M425.621 552.909l-2.506-.815a1.132 1.132 0 1 0-.701 2.154l2.506.815a1.133 1.133 0 0 0 .701-2.154z" id="path20" fill="url(#linearGradient519)"/><path d="M424.921 559.758l-2.507.813a1.131 1.131 0 1 0 .7 2.154l2.506-.813a1.132 1.132 0 1 0-.699-2.154z" id="path24" fill="url(#linearGradient521)"/><path d="M446.35 555.119c.116 0 .233-.019.35-.056l2.505-.814a1.133 1.133 0 0 0-.7-2.154l-2.505.814a1.132 1.132 0 0 0 .35 2.21z" id="path26" fill="url(#linearGradient523)"/><path d="M442.956 545.648l-1.548 2.132a1.132 1.132 0 0 0 1.833 1.33l1.548-2.132a1.133 1.133 0 0 0-1.833-1.33z" id="path30" fill="url(#linearGradient525)"/><path d="M436.01 550.185a7.467 7.467 0 0 0-7.467 7.466c0 2.539 1.27 4.768 3.2 6.123v2.41a1.067 1.067 0 0 0 1.067 1.067h6.4a1.067 1.067 0 0 0 1.066-1.066v-2.411c1.93-1.355 3.2-3.584 3.2-6.123a7.467 7.467 0 0 0-7.466-7.466m-3.2 20.266a1.067 1.067 0 0 0 1.066 1.067h4.267a1.067 1.067 0 0 0 1.067-1.067v-1.066h-6.4z" id="path4216" fill="url(#linearGradient527)"/><path d="M449.205 560.572l-2.506-.814a1.133 1.133 0 0 0-.7 2.154l2.507.814a1.13 1.13 0 0 0 1.426-.727 1.133 1.133 0 0 0-.727-1.427z" id="path22" fill="url(#linearGradient3268)"/></g></svg>