<svg xmlns:osb="http://www.openswatchbook.org/uri/2009/osb" xmlns="http://www.w3.org/2000/svg" xmlns:xlink="http://www.w3.org/1999/xlink" width="48" height="48" version="1.1" id="svg38"><defs id="defs22"><linearGradient id="linearGradient4488"><stop id="stop4490" offset="0" stop-color="#000" stop-opacity=".047"/><stop id="stop4492" offset="1" stop-color="#000" stop-opacity="0"/></linearGradient><style id="style4511"/><style id="style4511-26"/><style id="style4511-9"/><style id="style4552"/><style id="style4511-2"/><linearGradient xlink:href="#linearGradient4488" id="linearGradient4546" gradientUnits="userSpaceOnUse" gradientTransform="matrix(.00045 -.31068 .30858 .00045 2.081 112.876)" x1="288.112" y1="141.785" x2="287.575" y2="79.008"/><style id="style4511-8"/><style id="style4511-26-4"/><style id="style4511-9-7"/><style id="style4552-3"/><style id="style4511-2-8"/><style id="style4552-7"/><style id="style4552-6"/><style id="style4552-73"/><style id="style4552-2"/><linearGradient osb:paint="solid" id="linearGradient5251"><stop id="stop5253" offset="0" stop-color="#2f343f" stop-opacity="1"/></linearGradient><clipPath id="clipPath1205-3" clipPathUnits="userSpaceOnUse"><path d="M115.031 44C42.383 44 32 54.357 32 126.938v58.124c0 13.772.379 25.294 1.482 34.938h237.036c1.103-9.644 1.482-21.166 1.482-34.938v-58.125C272 54.358 261.617 44 188.969 44z" id="path1207-6-7" opacity="1" fill="#f1f0e9" fill-opacity="1" stroke="none" stroke-width="2" stroke-linecap="round" stroke-linejoin="round" stroke-miterlimit="4" stroke-dasharray="none" stroke-dashoffset="0" stroke-opacity="1"/></clipPath><style id="style4511-87"/><style id="style4511-26-7"/><style id="style4511-9-1"/><style id="style4552-8"/><style id="style4511-2-5"/><style id="style4511-8-0"/><style id="style4511-26-4-0"/><style id="style4511-9-7-9"/><style id="style4552-3-4"/><style id="style4511-2-8-7"/><style id="style4552-7-4"/><style id="style4552-6-8"/><style id="style4552-73-7"/><style id="style4552-2-2"/><clipPath clipPathUnits="userSpaceOnUse" id="clipPath1205-3-3"><path id="path1207-6-7-9" d="M115.031 44C42.383 44 32 54.357 32 126.938v58.124c0 13.772.379 25.294 1.482 34.938h237.036c1.103-9.644 1.482-21.166 1.482-34.938v-58.125C272 54.358 261.617 44 188.969 44z" opacity="1" fill="#f1f0e9" fill-opacity="1" stroke="none" stroke-width="2" stroke-linecap="round" stroke-linejoin="round" stroke-miterlimit="4" stroke-dasharray="none" stroke-dashoffset="0" stroke-opacity="1"/></clipPath><style id="style4511-879"/><style id="style4511-26-76"/><style id="style4511-9-2"/><style id="style4552-89"/><style id="style4511-2-1"/></defs><style id="style4485" type="text/css"/><style type="text/css" id="style4485-0"/><style id="style4485-4" type="text/css"/><style id="style4485-5" type="text/css"/><style id="style4485-3" type="text/css"/><style id="style4485-5-1" type="text/css"/><style type="text/css" id="style4485-58"/><style id="style4485-0-9" type="text/css"/><style type="text/css" id="style4485-4-0"/><style type="text/css" id="style4485-5-2"/><style type="text/css" id="style4485-3-4"/><style type="text/css" id="style4485-5-1-7"/><style type="text/css" id="style4485-1"/><path d="M26.786 45.787l1.694.002c9.725.014 17.562-5.684 17.58-17.508l.01-7.088C46.092 5.718 34.596 2.936 28.542 2.927l-1.694-.003c6.053.01 17.55 2.791 17.527 18.267l-.01 7.087c-.017 11.825-7.855 17.523-17.58 17.509z" id="path4528" opacity="1" fill="url(#linearGradient4546)" fill-opacity="1" stroke="none" stroke-width="1.121" stroke-linecap="square" stroke-linejoin="bevel" stroke-miterlimit="4" stroke-dasharray="none" stroke-dashoffset="0" stroke-opacity=".078"/><path d="M2.963 28.762l.013-8.687c.02-14.223 11.448-17.169 17.578-17.16l7.235.01c6.053.01 17.55 2.792 17.528 18.267l-.01 7.087c-.018 11.825-7.855 17.523-17.58 17.509l-7.235-.01c-9.725-.015-17.545-5.62-17.529-17.016z" id="path4530" opacity="1" fill="#008295" fill-opacity="1" stroke="#000" stroke-width=".341" stroke-linecap="square" stroke-linejoin="bevel" stroke-miterlimit="4" stroke-dasharray="none" stroke-dashoffset="0" stroke-opacity=".078"/><path d="M4.098 36.02A14.685 14.685 0 0 0 6.56 40.1l1.095-1.067 5.787 5.344.01-6.354-5.792-5.52c-.975.98-2.249 2.227-3.562 3.515z" id="path5889" opacity="1" fill="#4b3763" fill-opacity="1" stroke="none" stroke-width="1.835" stroke-linecap="round" stroke-linejoin="miter" stroke-miterlimit="4" stroke-dasharray="none" stroke-dashoffset="0" stroke-opacity="1"/><path d="M2.9 30.934c.183 1.938.61 3.688 1.253 5.243l3.51-3.42 5.788 5.34.009-6.353-5.79-5.517c-1.308 1.31-3.021 2.99-4.77 4.707z" id="path5893" opacity="1" fill="#4b3763" fill-opacity="1" stroke="none" stroke-width="1.835" stroke-linecap="round" stroke-linejoin="miter" stroke-miterlimit="4" stroke-dasharray="none" stroke-dashoffset="0" stroke-opacity="1"/><path d="M2.794 28.723a22.5 22.5 0 0 0 .133 2.41l4.746-4.626 5.787 5.341.01-6.353-5.792-5.518C6.342 21.317 4.584 23.04 2.8 24.79z" id="path5895" opacity="1" fill="#4b3763" fill-opacity="1" stroke="none" stroke-width="1.835" stroke-linecap="round" stroke-linejoin="miter" stroke-miterlimit="4" stroke-dasharray="none" stroke-dashoffset="0" stroke-opacity="1"/><path d="M2.799 24.987l4.883-4.76 5.787 5.341.009-6.353-5.79-5.518c-1.322 1.325-3.058 3.026-4.824 4.76a24.698 24.698 0 0 0-.058 1.579z" id="path5897" opacity="1" fill="#4b3763" fill-opacity="1" stroke="none" stroke-width="1.835" stroke-linecap="round" stroke-linejoin="miter" stroke-miterlimit="4" stroke-dasharray="none" stroke-dashoffset="0" stroke-opacity="1"/><path d="M2.846 18.656l4.845-4.723 5.787 5.342.01-6.354L7.702 7.41c-.058.053-.116.105-.173.16l-.336.33c-2.35 2.395-4.071 5.843-4.348 10.756z" id="path5899" opacity="1" fill="#4b3763" fill-opacity="1" stroke="none" stroke-width="1.835" stroke-linecap="round" stroke-linejoin="miter" stroke-miterlimit="4" stroke-dasharray="none" stroke-dashoffset="0" stroke-opacity="1"/><path d="M5.938 9.37L7.7 7.655l5.787 5.343.01-6.354-1.912-1.822c-2.096 1-4.09 2.453-5.647 4.55z" id="path5901" opacity="1" fill="#4b3763" fill-opacity="1" stroke="none" stroke-width="1.835" stroke-linecap="round" stroke-linejoin="miter" stroke-miterlimit="4" stroke-dasharray="none" stroke-dashoffset="0" stroke-opacity="1"/><path d="M11.44 4.893l2.056 1.898-.027-2.658c-.593.19-1.349.427-2.03.76z" id="path5903" opacity="1" fill="#4b3763" fill-opacity="1" stroke="none" stroke-width="1.835" stroke-linecap="round" stroke-linejoin="miter" stroke-miterlimit="4" stroke-dasharray="none" stroke-dashoffset="0" stroke-opacity="1"/><path d="M6.36 39.853c1.83 2.243 4.256 3.852 7.082 4.808v-.565l-5.79-5.517c-.354.355-.871.858-1.292 1.274z" id="path5905" opacity="1" fill="#4b3763" fill-opacity="1" stroke="none" stroke-width="1.835" stroke-linecap="round" stroke-linejoin="miter" stroke-miterlimit="4" stroke-dasharray="none" stroke-dashoffset="0" stroke-opacity="1"/><path style="marker:none" d="M12.705 43.588a.339.339 0 1 1-.678-.002.339.339 0 0 1 .678.002zm.002-1.354a.339.339 0 1 1-.678-.002.339.339 0 0 1 .678.002zm.002-1.353a.339.339 0 1 1-.678-.002.339.339 0 0 1 .678.002zm.002-1.354a.339.339 0 1 1-.678-.002.339.339 0 0 1 .678.002zm.002-1.353a.339.339 0 1 1-.678-.003.339.339 0 0 1 .678.003zm.002-1.354a.339.339 0 1 1-.678-.002.339.339 0 0 1 .678.002zm.002-1.354a.339.339 0 1 1-.678-.002.339.339 0 0 1 .678.002zm.002-1.353a.339.339 0 1 1-.678-.002.339.339 0 0 1 .678.002zm.002-1.354a.339.339 0 1 1-.678-.002.339.339 0 0 1 .678.002zm.002-1.353a.339.339 0 1 1-.678-.002.339.339 0 0 1 .678.002zm.002-1.354a.339.339 0 1 1-.678-.002.339.339 0 0 1 .678.002zm.002-1.353a.339.339 0 1 1-.678-.003.339.339 0 0 1 .678.003zm.002-1.354a.339.339 0 1 1-.678-.002.339.339 0 0 1 .678.002zm.002-1.353a.339.339 0 1 1-.678-.003.339.339 0 0 1 .678.003zm.002-1.354a.339.339 0 1 1-.678-.002.339.339 0 0 1 .678.002zm.002-1.354a.339.339 0 1 1-.678-.002.339.339 0 0 1 .678.002zm.002-1.353a.339.339 0 1 1-.678-.002.339.339 0 0 1 .678.002zm.002-1.354a.339.339 0 1 1-.678-.002.339.339 0 0 1 .678.002zm.002-1.353a.339.339 0 1 1-.678-.002.339.339 0 0 1 .678.002zm.002-1.354a.339.339 0 1 1-.678-.002.339.339 0 0 1 .678.002zm.002-1.353a.339.339 0 1 1-.678-.003.339.339 0 0 1 .678.003zm.002-1.354a.339.339 0 1 1-.678-.002.339.339 0 0 1 .678.002zm.002-1.354a.339.339 0 1 1-.678-.002.339.339 0 0 1 .678.002zm.002-1.353a.339.339 0 1 1-.678-.002.339.339 0 0 1 .678.002zm.002-1.354a.339.339 0 1 1-.678-.002.339.339 0 0 1 .678.002zm.002-1.353a.339.339 0 1 1-.338-.339c.187 0 .34.152.339.339zm.002-1.354a.339.339 0 1 1-.338-.339c.187 0 .34.152.339.34zm.002-1.353a.339.339 0 1 1-.678-.002.339.339 0 0 1 .678.002zm.002-1.354a.339.339 0 1 1-.678-.002.339.339 0 0 1 .678.002z" id="path4568" color="#000" display="inline" overflow="visible" visibility="visible" opacity=".4" fill="#4b3763" fill-opacity="1" stroke="none" stroke-width="1.017"/><path d="M27.552 12.96c-6.029.668-10.73 5.731-10.73 11.868 0 6.588 5.418 11.945 12.083 11.945 6.667 0 12.087-5.357 12.087-11.945 0-6.048-4.572-11.047-10.477-11.83 0 0-1.65-.215-2.963-.038zm.55 1.615v4.02a22.133 22.133 0 0 1-3.278-.351c.154-.355.314-.697.49-1.008.807-1.436 1.781-2.332 2.787-2.661zm1.726.066c.09.015.183.026.273.042.909.393 1.782 1.247 2.516 2.553.172.306.33.64.48.988a22.02 22.02 0 0 1-3.27.368zm-5.308.68c-.254.342-.497.699-.715 1.087-.251.446-.475.929-.681 1.433a13.739 13.739 0 0 1-1.546-.545 10.561 10.561 0 0 1 2.942-1.975zm9.18.4c1.019.313 1.799.951 2.533 1.575-.442.188-.922.361-1.439.515a12.93 12.93 0 0 0-.667-1.403 10.273 10.273 0 0 0-.427-.687zM20.484 18.52c.018.064-.03-.086-.007-.02.623.287 1.363.746 2.093.962a18.816 18.816 0 0 0-.675 4.347h-3.51c.193-1.98.95-3.79 2.1-5.289zm16.855.015a10.318 10.318 0 0 1 2.088 5.274h-3.391c-.064-1.56-.3-3.036-.683-4.378.69-.209 1.376-.606 1.968-.88.026-.06-.004.043.018-.016zm-3.662 1.318c.344 1.195.566 2.532.63 3.955h-4.48v-3.509c1.357-.049 2.652-.2 3.85-.446zm-9.43.025c1.2.24 2.498.382 3.854.425v3.506h-4.479c.065-1.414.285-2.743.624-3.931zm-5.88 5.637h3.528a18.74 18.74 0 0 0 .704 4.459c-.776.1-2.111.875-2.18.913-1.357-1.637-1.905-3.125-2.052-5.373zm5.255 0h4.48v3.626a23.586 23.586 0 0 0-3.825.418 17.182 17.182 0 0 1-.655-4.044zm6.205 0h4.48a17.171 17.171 0 0 1-.66 4.069 23.474 23.474 0 0 0-3.82-.44zm6.209 0h3.408c-.136 2.066-.754 3.844-1.926 5.409-.548-.342-1.549-.7-2.195-.92.4-1.37.647-2.886.713-4.489zM28.1 30.846v3.9c-1.005-.33-1.98-1.222-2.788-2.66a10.256 10.256 0 0 1-.441-.897 22.167 22.167 0 0 1 3.23-.343zm1.726.003c1.136.045 2.222.168 3.225.359-.137.308-.28.605-.435.88-.807 1.436-1.783 2.328-2.79 2.657zm-6.658.738c.195.465.403.914.635 1.328.33.587.706 1.12 1.116 1.593a10.575 10.575 0 0 1-3.504-2.294 13.618 13.618 0 0 1 1.753-.626zm11.58.03a13.45 13.45 0 0 1 1.646.597 10.58 10.58 0 0 1-3.316 2.221 9.793 9.793 0 0 0 1.047-1.52c.228-.405.432-.844.624-1.298z" id="path2392" fill="#ccc" fill-rule="evenodd" stroke-width="1.201"/></svg>