<svg xmlns="http://www.w3.org/2000/svg" xmlns:xlink="http://www.w3.org/1999/xlink" width="48" height="48" version="1.1" id="svg38"><defs id="defs22"><linearGradient id="linearGradient4488"><stop id="stop4490" offset="0" stop-color="#000" stop-opacity=".047"/><stop id="stop4492" offset="1" stop-color="#000" stop-opacity="0"/></linearGradient><style id="style4511"/><style id="style4511-26"/><style id="style4511-9"/><style id="style4552"/><style id="style4511-2"/><linearGradient gradientTransform="translate(-63.205 2.216) scale(.3038)" xlink:href="#linearGradient4488" id="linearGradient4160" x1="288.112" y1="141.785" x2="287.575" y2="79.008" gradientUnits="userSpaceOnUse"/><linearGradient gradientTransform="matrix(.7221 0 0 .7238 -32.505 -120.012)" gradientUnits="userSpaceOnUse" y2="290.959" x2="59.437" y1="236.062" x1="5.825" id="linearGradient929" xlink:href="#linearGradient3650-7-9-3"/><linearGradient id="linearGradient3650-7-9-3"><stop id="stop4366-6" offset="0" stop-color="#4a93dd" stop-opacity="1"/><stop offset=".501" id="stop913" stop-color="#4a93dd" stop-opacity="1"/><stop id="stop915" offset=".501" stop-color="#20aa73" stop-opacity="1"/><stop offset="1" id="stop4368-7" stop-color="#20aa73" stop-opacity="1"/></linearGradient></defs><style id="style4485" type="text/css"/><path d="M2.433 26.443v1.668c0 9.575 5.583 17.282 17.146 17.282h6.93c15.133 0 17.837-11.322 17.837-17.282v-1.668c0 5.96-2.704 17.282-17.837 17.282h-6.93c-11.563 0-17.146-7.708-17.146-17.282z" id="path4147" opacity="1" fill="url(#linearGradient4160)" fill-opacity="1" stroke="none" stroke-width="1.1" stroke-linecap="square" stroke-linejoin="bevel" stroke-miterlimit="4" stroke-dasharray="none" stroke-dashoffset="0" stroke-opacity=".078"/><path d="M19.046 2.965h8.495c13.908 0 16.805 11.246 16.805 17.282v7.123c0 5.96-2.704 17.282-17.837 17.282h-6.93c-11.562 0-17.146-7.708-17.146-17.282v-7.123c0-9.575 5.47-17.282 16.613-17.282z" id="rect4144" opacity="1" fill="#e6e6e6" fill-opacity="1" stroke="#000" stroke-width=".334" stroke-linecap="square" stroke-linejoin="bevel" stroke-miterlimit="4" stroke-dasharray="none" stroke-dashoffset="0" stroke-opacity=".078"/><g id="g1494" transform="matrix(.98417 0 0 .94905 31.313 -42.705)"><path d="M-12.393 52.224c-8.279 1.97-14.214 9.707-13.804 18.381.08 1.699.754 4.647 1.415 6.197.913 2.142 3.284 5.56 3.628 5.234.17-.161 2.221-2.322 2.286-2.408.024-.032-.283-.49-.683-1.017-1.332-1.756-2.252-3.666-2.692-5.59-1.959-8.568 4.07-16.853 12.838-17.64 3.16-.285 7.037.791 9.525 2.642l.828.616 1.221-1.302c1.086-1.158 1.196-1.323.989-1.492-3.932-3.219-8.878-4.623-13.866-3.937-.571.079-1.134.184-1.685.316zm-5.544 10.743c-.118.012-.044.484.3 1.979l.47 2.038 2.368.89c1.303.49 2.372.903 2.376.919.004.016-.779.855-1.74 1.865l-1.746 1.835.463 2.04c.363 1.595.496 2.009.612 1.898.595-.572 8.468-8.974 8.456-9.025-.011-.051-10.74-4.177-11.533-4.436a.07.07 0 0 0-.026-.003zm23.029-4.855a.076.076 0 0 0-.039.02c-.169.16-2.22 2.321-2.285 2.408-.025.032.283.49.683 1.017 1.332 1.755 2.252 3.665 2.692 5.589C8.1 75.714 2.073 84-6.695 84.788c-3.16.283-7.037-.793-9.524-2.643l-.829-.616-1.222 1.301c-1.086 1.158-1.195 1.324-.988 1.493 3.931 3.219 8.878 4.623 13.865 3.937 9.145-1.258 15.927-9.445 15.49-18.698-.081-1.698-.754-4.647-1.415-6.196-.885-2.075-3.137-5.348-3.59-5.254zm-6.336 5.611a.056.056 0 0 0-.022.014c-.596.572-8.469 8.973-8.457 9.024.012.052 10.74 4.178 11.534 4.436.153.05.093-.38-.274-1.975l-.469-2.039-2.37-.89c-1.302-.489-2.371-.902-2.375-.918-.004-.016.78-.856 1.74-1.865l1.746-1.835-.464-2.04c-.34-1.495-.478-1.952-.59-1.912z" id="path817" fill="url(#linearGradient929)" fill-opacity="1" stroke-width=".141"/></g></svg>