<svg xmlns="http://www.w3.org/2000/svg" xmlns:xlink="http://www.w3.org/1999/xlink" width="48" height="48" version="1.1" id="svg38"><defs id="defs22"><linearGradient id="linearGradient4488"><stop id="stop4490" offset="0" stop-color="#000" stop-opacity=".047"/><stop id="stop4492" offset="1" stop-color="#000" stop-opacity="0"/></linearGradient><style id="style4511"/><style id="style4511-26"/><style id="style4511-9"/><style id="style4552"/><style id="style4511-2"/><linearGradient gradientTransform="translate(-63.205 2.216) scale(.3038)" xlink:href="#linearGradient4488" id="linearGradient4160" x1="288.112" y1="141.785" x2="287.575" y2="79.008" gradientUnits="userSpaceOnUse"/></defs><style id="style4485" type="text/css"/><path d="M2.433 26.443v1.668c0 9.575 5.583 17.282 17.146 17.282h6.93c15.133 0 17.837-11.322 17.837-17.282v-1.668c0 5.96-2.704 17.282-17.837 17.282h-6.93c-11.563 0-17.146-7.708-17.146-17.282z" id="path4147" opacity="1" fill="url(#linearGradient4160)" fill-opacity="1" stroke="none" stroke-width="1.1" stroke-linecap="square" stroke-linejoin="bevel" stroke-miterlimit="4" stroke-dasharray="none" stroke-dashoffset="0" stroke-opacity=".078"/><path d="M19.046 2.965h8.495c13.908 0 16.805 11.246 16.805 17.282v7.123c0 5.96-2.704 17.282-17.837 17.282h-6.93c-11.562 0-17.146-7.708-17.146-17.282v-7.123c0-9.575 5.47-17.282 16.613-17.282z" id="rect4144" opacity="1" fill="#16f" fill-opacity="1" stroke="#000" stroke-width=".334" stroke-linecap="square" stroke-linejoin="bevel" stroke-miterlimit="4" stroke-dasharray="none" stroke-dashoffset="0" stroke-opacity=".078"/><path d="M17.835 10.261l-.018.117c-.01.064-.02 1.815-.021 3.89 0 2.077-.011 3.794-.025 3.815-.02.03-.875.042-3.976.059l-3.953.021v11.228l3.951.02c2.173.01 3.953.023 3.957.028.013.016.046 4.463.046 6.183v1.733h11.249v-7.953h7.892v-11.25h-7.892v-7.891h-11.21zm.645.684h9.82v7.891h7.953v9.882h-7.954v7.892h-9.82v-7.892h-7.953v-9.882h7.954v-7.891zm3.604 2.3v3.125c0 2.964.004 3.125.055 3.105.193-.074.667-.147 1.07-.163.49-.019.886.017 1.262.114l.224.056v-6.238h-2.611zm.979 7.127a3.38 3.38 0 0 0-1.368.43 3.482 3.482 0 0 0-1.617 2.12 3.59 3.59 0 0 0 .055 1.91 3.458 3.458 0 0 0 2.923 2.36 3.41 3.41 0 0 0 2.761-.988 3.367 3.367 0 0 0 .994-2.085c.17-1.566-.804-3.078-2.315-3.592a3.44 3.44 0 0 0-1.433-.155zm7.769 2.1c-1.883 0-3.124.012-3.124.03 0 .015.029.145.062.287a4.663 4.663 0 0 1 0 1.976 4.091 4.091 0 0 0-.062.288c0 .017 1.241.028 3.124.028h3.121v-2.608h-3.121z" id="path6785" opacity="1" fill="#fff" fill-opacity="1" stroke="none" stroke-width=".038" stroke-miterlimit="4" stroke-dasharray="none" stroke-opacity="1"/></svg>