<svg xmlns:osb="http://www.openswatchbook.org/uri/2009/osb" xmlns="http://www.w3.org/2000/svg" xmlns:xlink="http://www.w3.org/1999/xlink" width="48" height="48" version="1.1" id="svg38"><defs id="defs22"><linearGradient id="linearGradient4488"><stop id="stop4490" offset="0" stop-color="#000" stop-opacity=".047"/><stop id="stop4492" offset="1" stop-color="#000" stop-opacity="0"/></linearGradient><style id="style4511"/><style id="style4511-26"/><style id="style4511-9"/><style id="style4552"/><style id="style4511-2"/><linearGradient xlink:href="#linearGradient4488" id="linearGradient4540" gradientUnits="userSpaceOnUse" gradientTransform="translate(-62.889 2.604) scale(.3038)" x1="288.112" y1="141.785" x2="287.575" y2="79.008"/><linearGradient osb:paint="solid" id="linearGradient5293"><stop id="stop5295" offset="0" stop-color="#9a89c0" stop-opacity="1"/></linearGradient><radialGradient gradientUnits="userSpaceOnUse" gradientTransform="matrix(.06209 -.23171 .13289 .0356 108.002 203.786)" r="160" fy="220.054" fx="247.495" cy="220.054" cx="247.495" id="radialGradient965-6" xlink:href="#linearGradient8236"/><linearGradient id="linearGradient8236"><stop offset="0" id="stop8232" stop-color="#fee581" stop-opacity="1"/><stop offset="1" id="stop8234" stop-color="#eab305" stop-opacity="1"/></linearGradient><radialGradient r="56" fy="65.436" fx="265.282" cy="65.436" cx="265.282" gradientTransform="matrix(.17784 .04765 -.04766 .17786 113.896 106.852)" gradientUnits="userSpaceOnUse" id="radialGradient1117-2" xlink:href="#linearGradient1171"/><linearGradient id="linearGradient1171"><stop id="stop1165" offset="0" stop-color="#4d4d4d" stop-opacity="1"/><stop offset=".572" id="stop1167" stop-color="#333" stop-opacity="1"/><stop id="stop1169" offset="1" stop-color="#1a1a1a" stop-opacity="1"/></linearGradient><style id="style4511-8"/><style id="style4511-26-4"/><style id="style4511-9-8"/><style id="style4552-5"/><style id="style4511-2-5"/></defs><style id="style4485" type="text/css"/><style type="text/css" id="style4485-3"/><g id="g1560"><path d="M2.75 26.83v1.67c0 9.574 5.583 17.281 17.146 17.281h6.93c15.132 0 17.836-11.322 17.836-17.282v-1.668c0 5.96-2.704 17.282-17.836 17.282h-6.93C8.333 44.113 2.75 36.405 2.75 26.83z" id="path4516" opacity="1" fill="url(#linearGradient4540)" fill-opacity="1" stroke="none" stroke-width="1.1" stroke-linecap="square" stroke-linejoin="bevel" stroke-miterlimit="4" stroke-dasharray="none" stroke-dashoffset="0" stroke-opacity=".078"/><path d="M19.625 3.352h8.63c14.127 0 17.07 11.247 17.07 17.283v7.123c0 5.96-2.748 17.282-18.119 17.282h-7.04C8.422 45.04 2.75 37.332 2.75 27.758v-7.123c0-9.575 5.556-17.283 16.875-17.283z" id="path4518" opacity="1" fill="#ececec" fill-opacity="1" stroke="#000" stroke-width=".337" stroke-linecap="square" stroke-linejoin="bevel" stroke-miterlimit="4" stroke-dasharray="none" stroke-dashoffset="0" stroke-opacity=".078"/><g transform="matrix(.99701 0 0 .94556 .543 2.294)" id="g553"><g id="g1036" transform="matrix(.53185 0 0 .55459 -75.638 -25.787)" display="inline" stroke-width=".002" fill-opacity="1" stroke="none" stroke-linecap="butt" stroke-linejoin="miter" stroke-miterlimit="4" stroke-dasharray="none" stroke-dashoffset="0" stroke-opacity="1" marker-start="none" marker-mid="none" marker-end="none" paint-order="normal"><rect ry="32" rx="32" y="56.652" x="154.525" height="64" width="64" id="rect905" style="marker:none" display="inline" opacity="1" vector-effect="none" fill="#4d4d4d"/><ellipse style="marker:none" id="path955-5-36" cx="186.525" cy="88.653" rx="28" ry="28.001" display="inline" opacity="1" vector-effect="none" fill="#191622"/><ellipse ry="24.001" rx="24" cy="88.653" cx="186.525" id="ellipse1050-0" style="marker:none" display="inline" opacity="1" vector-effect="none" fill="#4d4d4d"/><ellipse style="marker:none" id="path955-5-3-6" cx="157.189" cy="133.997" rx="22.011" ry="22.012" transform="rotate(-15)" display="inline" opacity="1" vector-effect="none" fill="url(#radialGradient965-6)"/><ellipse style="marker:none" id="path955-5-3-5-6" cx="186.514" cy="88.747" rx="10.011" ry="10.012" display="inline" opacity="1" vector-effect="none" fill="#000"/><ellipse style="marker:none" id="ellipse27591-1" cx="157.189" cy="133.996" rx="8.011" ry="8.011" transform="rotate(-15)" display="inline" opacity="1" vector-effect="none" fill="url(#radialGradient1117-2)"/></g></g><path id="path1041" d="M9.602 10.017a.76.733 0 0 0-.76.733.76.733 0 0 0 .76.734.76.733 0 0 0 .76-.734.76.733 0 0 0-.76-.733zm28.87 0a.76.733 0 0 0-.76.733.76.733 0 0 0 .76.734.76.733 0 0 0 .76-.734.76.733 0 0 0-.76-.733zM9.602 37.882a.76.733 0 0 0-.76.733.76.733 0 0 0 .76.733.76.733 0 0 0 .76-.733.76.733 0 0 0-.76-.733zm28.87 0a.76.733 0 0 0-.76.733.76.733 0 0 0 .76.733.76.733 0 0 0 .76-.733.76.733 0 0 0-.76-.733z" display="inline" opacity=".1" fill="#000" fill-opacity="1" stroke="none" stroke-width="2.986" stroke-linecap="round" stroke-linejoin="round" stroke-miterlimit="4" stroke-dasharray="none" stroke-dashoffset="0" stroke-opacity="1"/></g></svg>