<svg xmlns:osb="http://www.openswatchbook.org/uri/2009/osb" xmlns="http://www.w3.org/2000/svg" xmlns:xlink="http://www.w3.org/1999/xlink" width="48" height="48" version="1.1" id="svg38"><defs id="defs22"><style id="style4511"/><style id="style4511-26"/><style id="style4511-9"/><style id="style4552"/><style id="style4511-2"/><linearGradient osb:paint="solid" id="linearGradient5293"><stop id="stop5295" offset="0" stop-color="#9a89c0" stop-opacity="1"/></linearGradient><linearGradient gradientUnits="userSpaceOnUse" id="linearGradient-1-3-7" y2="45" x2="24" y1="1" x1="24" gradientTransform="matrix(1.03814 0 0 1.03895 -66.203 1.415)"><stop id="stop6" offset="0%" stop-color="#9905B7"/><stop id="stop8-6" offset="100%" stop-color="#450056"/></linearGradient><linearGradient xlink:href="#linearGradient-1-3-7" id="linearGradient1396" x1="2.583" y1="23.586" x2="44.83" y2="23.586" gradientUnits="userSpaceOnUse"/></defs><style id="style4485" type="text/css"/><g id="g1410" transform="translate(.288 .72)"><path d="M19.363 2.742h8.495c13.908 0 16.804 11.247 16.804 17.282v7.124c0 5.96-2.704 17.282-17.836 17.282h-6.93C8.333 44.43 2.75 36.722 2.75 27.148v-7.124c0-9.574 5.47-17.282 16.613-17.282z" id="path4518" opacity="1" fill="url(#linearGradient1396)" fill-opacity="1" stroke="#000" stroke-width=".334" stroke-linecap="square" stroke-linejoin="bevel" stroke-miterlimit="4" stroke-dasharray="none" stroke-dashoffset="0" stroke-opacity=".078"/><g transform="matrix(.93336 0 0 .96536 1.414 .854)" id="g578" fill-rule="evenodd" stroke="none" stroke-width="1"><g id="Group-5" transform="matrix(.9464 0 0 1.02126 17.035 17.676)" fill="#fff"><path id="Rectangle-3" d="M0 11V.5h2.5V11z"/><path d="M21.5 2.516V11.5H19V2.516h-3.5V0h9.473v2.516z" id="Combined-Shape"/><path d="M9.5 11.43C6.462 11.43 4 8.983 4 5.965S6.462.5 9.5.5 15 2.947 15 5.965s-2.462 5.465-5.5 5.465zm0-2.376c1.453 0 2.63-1.383 2.63-3.089S10.953 2.876 9.5 2.876c-1.453 0-2.63 1.383-2.63 3.089S8.047 9.054 9.5 9.054z" id="path17"/></g><g id="Group-4" transform="matrix(.9464 0 0 1.02126 7.097 17.676)" fill="none"><path d="M0 2.607v7.301c0 .815.677 1.477 1.512 1.477.836 0 1.513-.662 1.513-1.477V7.086c.11.018.22.032.332.04L3.265 7a1.819 1.819 0 0 1 .465-2.572 1.92 1.92 0 0 1 2.633.454l1.175 1.64a3.543 3.543 0 0 0 1.6-2.952C9.137 1.598 7.5 0 5.481 0H2.48c.545.308.797.923.797 1.446 0 .969-.804 1.754-1.796 1.754C.945 3.2.252 2.738 0 2.36z" id="path20" fill="#67bb96"/><ellipse id="Oval-3" cx="1.497" cy="1.462" rx="1.418" ry="1.385" fill="#af69a8"/><rect id="Rectangle-4-Copy" transform="rotate(-35 6.223 7.923)" x="4.726" y="4" width="2.993" height="7.846" rx="1.497" fill="#af69a8"/></g></g></g></svg>