<svg xmlns:osb="http://www.openswatchbook.org/uri/2009/osb" xmlns="http://www.w3.org/2000/svg" xmlns:xlink="http://www.w3.org/1999/xlink" width="48" height="48" version="1.1" id="svg38"><defs id="defs22"><style id="style4511"/><style id="style4511-26"/><style id="style4511-9"/><style id="style4552"/><linearGradient id="b-2-9" y1="540.92" y2="522.55" x2="0" gradientUnits="userSpaceOnUse" gradientTransform="matrix(1 0 0 1.14286 0 -77.4)"><stop stop-color="#197cf1" id="stop7-91"/><stop offset="1" stop-color="#05a0eb" id="stop9-2"/></linearGradient><style id="style4511-2"/><linearGradient osb:paint="solid" id="linearGradient5293"><stop id="stop5295" offset="0" stop-color="#9a89c0" stop-opacity="1"/></linearGradient><filter height="1.112" y="-.056" width="1.084" x="-.042" id="filter956" color-interpolation-filters="sRGB"><feGaussianBlur id="feGaussianBlur958" stdDeviation="2.975"/></filter><linearGradient xlink:href="#b-2-9" id="linearGradient1302" x1="21.175" y1="25.874" x2="38.95" y2="25.874" gradientUnits="userSpaceOnUse"/></defs><style id="style4485" type="text/css"/><path id="path4518" d="M3.066 28.69v-8.577c0-14.042 11.247-16.967 17.282-16.967h7.123c5.96 0 17.282 2.73 17.282 18.01v6.996c0 11.674-7.708 17.312-17.282 17.312h-7.123c-9.574 0-17.282-5.523-17.282-16.774z" opacity="1" fill="#e6e6e6" fill-opacity="1" stroke="#000" stroke-width=".336" stroke-linecap="square" stroke-linejoin="bevel" stroke-miterlimit="4" stroke-dasharray="none" stroke-dashoffset="0" stroke-opacity=".078"/><g transform="matrix(.19303 0 0 .19489 1.299 2.275)" id="g934" opacity=".3" fill="#000" fill-opacity="1" filter="url(#filter956)" stroke-width="3.542"><path d="M117.135 43.175a85 60.208 0 0 0-85 60.209 85 60.208 0 0 0 85 60.208 85 60.208 0 0 0 85-60.208 85 60.208 0 0 0-85-60.209zm14.167 21.25a63.75 38.958 0 0 1 63.75 38.959 63.75 38.958 0 0 1-63.75 38.958 63.75 38.958 0 0 1-63.75-38.958 63.75 38.958 0 0 1 63.75-38.959z" id="path930" opacity=".2"/><path d="M167.427 131.541s2.742-.786 5.477.61c.949.481 2.59 1.454 3.775 2.724a10.313 10.313 0 0 1 1.726 2.507l16.645 33.293h-35.416s-7.914-23.135-15.321-33.037c-1.474-1.206-2.705-2.497-4.158-2.38H131.3l.003 35.397h-28.334V71.508h53.68c5.819 0 30.458 3.542 31.318 28.334-.86 24.792-20.541 31.876-20.541 31.876zm-36.123-38.965v21.257h21.248s7.083.255 7.083-10.626c0-11.428-7.083-10.619-7.083-10.619z" id="path932" fill-rule="evenodd"/></g><path d="M23.91 10.69A16.408 11.734 0 0 0 7.502 22.422 16.408 11.734 0 0 0 23.91 34.157a16.408 11.734 0 0 0 16.407-11.734A16.408 11.734 0 0 0 23.91 10.689zm2.734 4.14a12.306 7.592 0 0 1 12.306 7.593 12.306 7.592 0 0 1-12.306 7.592 12.306 7.592 0 0 1-12.306-7.592 12.306 7.592 0 0 1 12.306-7.593z" id="path4" opacity=".2" stroke-width=".687"/><path d="M33.617 27.91s.53-.153 1.058.12c.183.093.5.283.729.53.223.243.333.489.333.489l3.213 6.488h-6.837s-1.527-4.508-2.957-6.438c-.285-.235-.522-.487-.803-.464h-1.71l.001 6.898h-5.47V16.211h10.363c1.123 0 5.88.69 6.045 5.522-.166 4.831-3.965 6.212-3.965 6.212zm-6.972-7.593v4.142h4.101s1.367.05 1.367-2.07c0-2.228-1.367-2.07-1.367-2.07z" id="path6" fill="url(#linearGradient1302)" fill-opacity="1" fill-rule="evenodd" stroke-width=".687"/></svg>