<svg xmlns="http://www.w3.org/2000/svg" xmlns:xlink="http://www.w3.org/1999/xlink" width="48" height="48" version="1.1" id="svg38"><defs id="defs22"><linearGradient id="linearGradient4488"><stop id="stop4490" offset="0" stop-color="#000" stop-opacity=".047"/><stop id="stop4492" offset="1" stop-color="#000" stop-opacity="0"/></linearGradient><style id="style4511"/><style id="style4511-26"/><style id="style4511-9"/><linearGradient gradientUnits="userSpaceOnUse" x2="19.574" y2="22.495" x1="3.783" y1="23.644" id="g-5"><stop id="stop24-2" stop-color="#2980b9"/><stop id="stop26" stop-color="#34495e" offset="1"/></linearGradient><style id="style4552"/><linearGradient gradientTransform="translate(61.546 14.229) scale(.65656)" gradientUnits="userSpaceOnUse" x2="24.839" y2="17.991" x1="27.04" y1="16.621" id="d-6"><stop id="stop4583-7" stop-color="#fcfcfc"/><stop id="stop4585-5" stop-color="#c7c7c7" offset="1"/></linearGradient><style id="style4511-2"/><linearGradient xlink:href="#linearGradient4488" id="linearGradient4544" gradientUnits="userSpaceOnUse" gradientTransform="translate(-62.887 1.994) scale(.3038)" x1="288.112" y1="141.785" x2="287.575" y2="79.008"/><linearGradient gradientUnits="userSpaceOnUse" y2="160.631" x2="334.866" y1="140.23" x1="334.866" id="linearGradient930" xlink:href="#linearGradient928"/><linearGradient id="linearGradient928"><stop id="stop924" offset="0" stop-color="gray" stop-opacity="1"/><stop id="stop926" offset="1" stop-color="#999" stop-opacity="1"/></linearGradient><linearGradient xlink:href="#d-6" id="linearGradient1299" x1="2.585" y1="23.586" x2="44.832" y2="23.586" gradientUnits="userSpaceOnUse" gradientTransform="translate(0 -.125)"/><linearGradient xlink:href="#g-5" id="linearGradient1307" x1="12.699" y1="24.17" x2="42.357" y2="24.17" gradientUnits="userSpaceOnUse"/></defs><style id="style4485" type="text/css"/><path id="path4524" d="M2.752 26.22v1.67c0 9.573 5.583 17.281 17.146 17.281h6.93c15.133 0 17.837-11.322 17.837-17.282v-1.668c0 5.96-2.704 17.282-17.837 17.282h-6.93c-11.563 0-17.146-7.708-17.146-17.282z" opacity="1" fill="url(#linearGradient4544)" fill-opacity="1" stroke="none" stroke-width="1.1" stroke-linecap="square" stroke-linejoin="bevel" stroke-miterlimit="4" stroke-dasharray="none" stroke-dashoffset="0" stroke-opacity=".078"/><path id="path4526" d="M19.365 2.617h8.495c13.908 0 16.805 11.247 16.805 17.282v7.124c0 5.96-2.705 17.282-17.837 17.282h-6.93c-11.563 0-17.146-7.708-17.146-17.282v-7.124c0-9.574 5.47-17.282 16.613-17.282z" opacity="1" fill="url(#linearGradient1299)" fill-opacity="1" stroke="#000" stroke-width=".334" stroke-linecap="square" stroke-linejoin="bevel" stroke-miterlimit="4" stroke-dasharray="none" stroke-dashoffset="0" stroke-opacity=".078"/><g id="g1311" transform="matrix(1.03429 0 0 1 -.334 -.61)"><path id="path192" d="M43.52 21.596l-.045-1.976c-.03-1.333-.213-2.308-.418-3.308-.031-.53-.265-1.143-.377-1.557-.135-.461-.248-.931-.412-1.299-.133-.438-.306-.812-.446-1.152-.15-.356-.316-.678-.453-.983a5.663 5.663 0 0 0-.471-.837c-.173-.258-.338-.551-.509-.797-.18-.291-.34-.575-.58-.826a7.451 7.451 0 0 0-.681-.812c-.19-.215-.788-.817-1.053-1.047-.265-.231-.46-.383-.786-.649a6.845 6.845 0 0 0-.892-.643c-.324-.193-.707-.387-1.02-.547-.267-.136-.513-.338-.798-.404.32-.134-1.054 3.93-.166 4.55 1.839 1.307 3.368 3.81 4.371 5.795.556 1.101.538.634-1.773-.196-1.782-.64-3.893-1.293-4.032-1.14-.057.064-.21.91-.337 1.307-.243.752-.706 1.545-.813 1.438-.034-.034.033-.511.148-1.06.252-1.197.266-2.364.062-3.32-.22-1.036-.353-1.1-1.536-.744-.546.164-1.725.46-2.618.658-2.674.592-4.966 1.852-6.624 2.856-.976.591-1.187.616-1.065.127.155-.624-.278-.423-1.397.649-1.056 1.01-1.379 1.195-1.379.792 0-.471-.28-.164-.822.9a24.96 24.96 0 0 0-.97 2.196c-.326.874-.616 1.32-1.525 2.344-1.765 1.987-1.833 2.408-.39 2.408 1.07 0 1.099.276.052.503l-.704.152.013.873c.017 1.19.383 1.918 1.145 2.275.364.17.69.463.852.768.263.491.974 1.191 1.211 1.191.069 0 .087-.315.042-.698-.091-.777.222-1.654.678-1.9.21-.113.33-.047.633.352.374.494 1.044 1.025 1.155.914.032-.032-.102-.472-.298-.976-.538-1.383-.49-1.593.25-2.242.84-.737 1.731-1.122 2.33-1.009.919.174 2.232 1.664 2.432 2.467.12.481-.17 1.142-.697 1.589-.545.462-1.004 1.07-1.358 1.07-.149 0-.573-.268-.941-.594-.369-.327-.705-.558-.746-.517-.042.042-.006.325.078.629s.153.636.153.735c.002.318-.8.193-1.643-.254-.448-.237-.84-.431-.872-.431-.262 0 .71 3.362 1.164 3.97.337.452.679.696 1.11.724.574.038 1.307-.303 2.402-1.044 1.82-1.229 3.396-2.611 5.217-2.91 1-.163 1.513.038 2.24.886.999 1.164 3.464 7.017 3.23 7.63-2.394 1.552-3.177 6.158-4.492 6.491l2.009-.223c.795-.089 2.974-.684 3.86-1.17.635-.196 1.214-.523 1.658-.797a10.43 10.43 0 0 0 1.36-.874c.362-.269.598-.439.832-.649.241-.217.693-.622.947-.901a7.44 7.44 0 0 0 .767-.902c.218-.287.43-.538.6-.792.173-.26.356-.531.521-.805a5.9 5.9 0 0 0 .454-.862c.104-.203.273-.525.416-.842.147-.328.264-.601.409-.969.092-.242.397-.872.449-1.341.052-.47.281-.663.312-1.194.004-.065.153-.708.157-.774-1.4-.64-3.645-1.33-4.728-1.719-.65-.233-1.062-.454-.988-.529.179-.18 2.615.186 4.929.662.014-.616.044-1.167.044-1.858v-.127a38.434 38.434 0 0 0-4.514-1.404c-2.483-.6-2.38-.566-2.106-.72.355-.2 3.595.049 6.62.432v-2.39c-2.239-.5-4.787-.818-7.165-.954-1.459-.084-2.002-.378-1.644-.53 2.288-.426 2.761-.922 7.11-.922.575.033 2.288.167 2.847.224z" fill="url(#linearGradient1307)" fill-opacity="1" stroke-width=".669"/><path id="path159" d="M22.004 17.325c.08.002.141.025.177.064.358.397-.786 1.968-1.62 2.225-1.451.447-1.784.145-1.024-.927.44-.619 1.912-1.393 2.467-1.362z" fill="#fff" stroke-width=".803"/></g></svg>