<svg xmlns="http://www.w3.org/2000/svg" xmlns:xlink="http://www.w3.org/1999/xlink" width="48" height="48" version="1.1" id="svg38"><defs id="defs22"><linearGradient id="linearGradient4488"><stop id="stop4490" offset="0" stop-color="#000" stop-opacity=".047"/><stop id="stop4492" offset="1" stop-color="#000" stop-opacity="0"/></linearGradient><style id="style4511"/><style id="style4511-26"/><style id="style4511-9"/><style id="style4552"/><style id="style4511-2"/><linearGradient gradientTransform="translate(-63.205 2.216) scale(.3038)" xlink:href="#linearGradient4488" id="linearGradient4160" x1="288.112" y1="141.785" x2="287.575" y2="79.008" gradientUnits="userSpaceOnUse"/><linearGradient gradientTransform="translate(-5.219 3.495)" gradientUnits="userSpaceOnUse" x2="0" y2="14" y1="34" id="b-7093-6"><stop id="stop7-60-1" stop-color="#b40000"/><stop id="stop9-626-2" stop-color="#b40000" offset="1"/></linearGradient><linearGradient gradientTransform="translate(-5.219 3.495)" x2="0" gradientUnits="userSpaceOnUse" y2="14" y1="34" id="d-37-9"><stop id="stop17-59-7" stop-color="#ec0000"/><stop id="stop19-228-3" stop-color="#ff2020" offset="1"/></linearGradient></defs><style id="style4485" type="text/css"/><path d="M2.433 26.443v1.668c0 9.575 5.583 17.282 17.146 17.282h6.93c15.133 0 17.837-11.322 17.837-17.282v-1.668c0 5.96-2.704 17.282-17.837 17.282h-6.93c-11.563 0-17.146-7.708-17.146-17.282z" id="path4147" opacity="1" fill="url(#linearGradient4160)" fill-opacity="1" stroke="none" stroke-width="1.1" stroke-linecap="square" stroke-linejoin="bevel" stroke-miterlimit="4" stroke-dasharray="none" stroke-dashoffset="0" stroke-opacity=".078"/><path d="M19.046 2.965h8.495c13.908 0 16.805 11.246 16.805 17.282v7.123c0 5.96-2.704 17.282-17.837 17.282h-6.93c-11.562 0-17.146-7.708-17.146-17.282v-7.123c0-9.575 5.47-17.282 16.613-17.282z" id="rect4144" opacity="1" fill="#e3e7ea" fill-opacity="1" stroke="#000" stroke-width=".334" stroke-linecap="square" stroke-linejoin="bevel" stroke-miterlimit="4" stroke-dasharray="none" stroke-dashoffset="0" stroke-opacity=".078"/><g id="g22187" transform="translate(-.396 -3.687)" opacity=".86"><path id="path28-9" d="M22.371 27.495l10 10 1.414-1.414-8.584-8.586 8.584-8.586-1.414-1.414z" fill="url(#b-7093-6)"/><path id="path32-3" d="M15.201 17.495l-1.414 1.414 8.584 8.586-8.584 8.586 1.414 1.414 10-10z" fill="url(#d-37-9)"/></g></svg>