<svg xmlns="http://www.w3.org/2000/svg" xmlns:xlink="http://www.w3.org/1999/xlink" width="48" height="48" version="1.1" id="svg38"><defs id="defs22"><linearGradient id="linearGradient4488"><stop id="stop4490" offset="0" stop-color="#000" stop-opacity=".047"/><stop id="stop4492" offset="1" stop-color="#000" stop-opacity="0"/></linearGradient><linearGradient id="linearGradient4154"><stop offset="0" id="stop2" stop-color="#000" stop-opacity="1"/><stop offset="1" id="stop4" stop-color="#000" stop-opacity="0"/></linearGradient><style id="style4511"/><style id="style4511-26"/><style id="style4511-9"/><style id="style4552"/><style id="style4511-2"/><linearGradient gradientTransform="translate(-63.205 2.216) scale(.3038)" xlink:href="#linearGradient4488" id="linearGradient4160" x1="288.112" y1="141.785" x2="287.575" y2="79.008" gradientUnits="userSpaceOnUse"/><linearGradient gradientUnits="userSpaceOnUse" y2="210.694" x2="21.425" y1="210.694" x1="252.122" id="linearGradient918" xlink:href="#linearGradient4154"/><filter height="1.143" y="-.072" width="1.103" x="-.052" id="filter920" color-interpolation-filters="sRGB"><feGaussianBlur id="feGaussianBlur922" stdDeviation="3.138"/></filter><filter height="1.094" y="-.047" width="1.098" x="-.049" id="filter880" color-interpolation-filters="sRGB"><feGaussianBlur id="feGaussianBlur882" stdDeviation=".252"/></filter></defs><style id="style4485" type="text/css"/><path d="M2.433 26.443v1.668c0 9.575 5.583 17.282 17.146 17.282h6.93c15.133 0 17.837-11.322 17.837-17.282v-1.668c0 5.96-2.704 17.282-17.837 17.282h-6.93c-11.563 0-17.146-7.708-17.146-17.282z" id="path4147" opacity="1" fill="url(#linearGradient4160)" fill-opacity="1" stroke="none" stroke-width="1.1" stroke-linecap="square" stroke-linejoin="bevel" stroke-miterlimit="4" stroke-dasharray="none" stroke-dashoffset="0" stroke-opacity=".078"/><path d="M19.046 2.965h8.495c13.908 0 16.805 11.246 16.805 17.282v7.123c0 5.96-2.704 17.282-17.837 17.282h-6.93c-11.562 0-17.146-7.708-17.146-17.282v-7.123c0-9.575 5.47-17.282 16.613-17.282z" id="rect4144" opacity="1" fill="#62237c" fill-opacity="1" stroke="#000" stroke-width=".334" stroke-linecap="square" stroke-linejoin="bevel" stroke-miterlimit="4" stroke-dasharray="none" stroke-dashoffset="0" stroke-opacity=".078"/><g id="g1246" transform="translate(-62.992)" font-style="normal" letter-spacing="0" word-spacing="0" fill-opacity="1" stroke="none"><path id="path910" d="M175.223 228.031v15.105h76.7v-15.105z" style="line-height:125%;-inkscape-font-specification:'Ubuntu Medium';text-align:center" transform="matrix(.0886 0 0 .10007 66.971 .785)" font-variant="normal" font-weight="500" font-stretch="normal" font-size="299.107" font-family="Ubuntu" writing-mode="lr-tb" text-anchor="middle" display="inline" opacity=".5" fill="url(#linearGradient918)" stroke-width="1.92" filter="url(#filter920)" enable-background="new"/><path id="path4212" d="M82.497 23.405v1.535h6.814v-1.535z" style="line-height:125%;-inkscape-font-specification:'Ubuntu Medium';text-align:center" font-variant="normal" font-weight="500" font-stretch="normal" font-size="299.107" font-family="Ubuntu" writing-mode="lr-tb" text-anchor="middle" display="inline" fill="#f2f2f2" stroke-width=".181" enable-background="new"/><path id="path4327" d="M82.497 23.405v.2h6.814v-.2z" style="line-height:125%;-inkscape-font-specification:'Ubuntu Medium';text-align:center" font-variant="normal" font-weight="500" font-stretch="normal" font-size="299.107" font-family="Ubuntu" writing-mode="lr-tb" text-anchor="middle" display="inline" fill="#fff" stroke-width=".181" enable-background="new"/><g transform="matrix(.6316 0 0 .71135 67.921 -160.35)" id="text49" style="line-height:1.25" aria-label="#" font-weight="400" font-size="18" font-family="sans-serif" fill="#000" stroke-width=".529" stroke-miterlimit="4" stroke-dasharray="none" stroke-opacity="1"><path d="M19.161 249.229h-2.558l-.738 2.935h2.575zm-1.318-5.001l-.914 3.647h2.566l.923-3.647h1.406l-.905 3.647h2.742v1.354h-3.085l-.72 2.935h2.794v1.345h-3.137l-.914 3.639h-1.407l.906-3.639h-2.576l-.905 3.639h-1.415l.914-3.639h-2.768v-1.345h3.093l.739-2.935h-2.83v-1.354h3.172l.897-3.647z" id="path862" opacity=".3" fill="#000" stroke="#000" filter="url(#filter880)"/><path id="path51" d="M19.161 249.229h-2.558l-.738 2.935h2.575zm-1.318-5.001l-.914 3.647h2.566l.923-3.647h1.406l-.905 3.647h2.742v1.354h-3.085l-.72 2.935h2.794v1.345h-3.137l-.914 3.639h-1.407l.906-3.639h-2.576l-.905 3.639h-1.415l.914-3.639h-2.768v-1.345h3.093l.739-2.935h-2.83v-1.354h3.172l.897-3.647z" fill="#f2f2f2" stroke="#f2f2f2"/></g></g></svg>