<svg xmlns:osb="http://www.openswatchbook.org/uri/2009/osb" xmlns="http://www.w3.org/2000/svg" xmlns:xlink="http://www.w3.org/1999/xlink" width="48" height="48" version="1.1" id="svg38"><defs id="defs22"><style id="style4511"/><style id="style4511-26"/><style id="style4511-9"/><style id="style4552"/><style id="style4511-2"/><style id="style4511-8"/><style id="style4511-26-4"/><style id="style4511-9-7"/><style id="style4552-3"/><style id="style4511-2-8"/><style id="style4552-7"/><style id="style4552-6"/><style id="style4552-73"/><style id="style4552-2"/><style id="style4511-7"/><style id="style4511-26-1"/><style id="style4511-9-4"/><style id="style4552-8"/><style id="style4511-2-5"/><style id="style4511-87"/><style id="style4511-26-7"/><style id="style4511-9-1"/><style id="style4552-83"/><style id="style4511-2-1"/><style id="style4511-8-0"/><style id="style4511-26-4-2"/><style id="style4511-9-7-7"/><style id="style4552-3-4"/><style id="style4511-2-8-0"/><style id="style4552-7-6"/><style id="style4552-6-1"/><style id="style4552-73-0"/><style id="style4552-2-4"/><style id="style4511-7-6"/><style id="style4511-26-1-6"/><style id="style4511-9-4-9"/><style id="style4552-8-4"/><style id="style4511-2-5-3"/><filter height="1.241" y="-.121" width="1.08" x="-.04" id="filter1469" color-interpolation-filters="sRGB"><feGaussianBlur id="feGaussianBlur1471" stdDeviation="2.321"/></filter><linearGradient y2="156" x2="227" y1="156" x1="77" gradientTransform="matrix(0 .18326 -.18457 0 52.819 -3.596)" gradientUnits="userSpaceOnUse" id="linearGradient1205" xlink:href="#linearGradient1392"/><linearGradient id="linearGradient1392"><stop id="stop1388" offset="0" stop-color="#e6e6e6" stop-opacity="1"/><stop id="stop1390" offset="1" stop-color="#f2f2f2" stop-opacity="1"/></linearGradient><filter height="1.12" y="-.06" width="1.12" x="-.06" id="filter1422" color-interpolation-filters="sRGB"><feGaussianBlur id="feGaussianBlur1424" stdDeviation="3.75"/></filter><style id="style4511-879"/><style id="style4511-26-45"/><style id="style4511-9-5"/><style id="style4552-60"/><style id="style4511-2-84"/><style id="style4511-91"/><style id="style4511-26-49"/><style id="style4511-9-0"/><style id="style4552-4"/><style id="style4511-2-0"/><linearGradient id="linearGradient5293" osb:paint="solid"><stop offset="0" id="stop5295" stop-color="#9a89c0" stop-opacity="1"/></linearGradient><style id="style4511-0"/><style id="style4511-26-6"/><style id="style4511-9-50"/><style id="style4552-48"/><style id="style4511-2-85"/></defs><style id="style4485" type="text/css"/><style type="text/css" id="style4485-0"/><style id="style4485-4" type="text/css"/><style id="style4485-5" type="text/css"/><style id="style4485-3" type="text/css"/><style id="style4485-5-1" type="text/css"/><style id="style4485-1" type="text/css"/><style type="text/css" id="style4485-34"/><style id="style4485-0-0" type="text/css"/><style type="text/css" id="style4485-4-6"/><style type="text/css" id="style4485-5-0"/><style type="text/css" id="style4485-3-8"/><style type="text/css" id="style4485-5-1-3"/><style type="text/css" id="style4485-1-3"/><path id="path4534" d="M19.576 3.465h8.496c13.908 0 16.804 11.188 16.804 17.191v7.086c0 5.928-2.704 17.191-17.837 17.191h-6.93c-11.563 0-17.146-7.667-17.146-17.191v-7.086c0-9.523 5.47-17.19 16.613-17.19z" opacity="1" fill="#ccc" fill-opacity="1" stroke="#000" stroke-width=".333" stroke-linecap="square" stroke-linejoin="bevel" stroke-miterlimit="4" stroke-dasharray="none" stroke-dashoffset="0" stroke-opacity=".078"/><path id="path4534-3" d="M19.576 3.465h8.496c13.908 0 16.804 11.188 16.804 17.191v7.086c0 5.928-2.704 17.191-17.837 17.191h-6.93c-11.563 0-17.146-7.667-17.146-17.191v-7.086c0-9.523 5.47-17.19 16.613-17.19z" opacity="1" fill="#999" fill-opacity=".073" stroke="#000" stroke-width=".333" stroke-linecap="square" stroke-linejoin="bevel" stroke-miterlimit="4" stroke-dasharray="none" stroke-dashoffset="0" stroke-opacity=".078"/><ellipse style="marker:none" id="path4238" cx="24.025" cy="-24.26" transform="scale(1 -1)" rx="16.242" ry="16.127" color="#000" display="inline" overflow="visible" visibility="visible" opacity="1" fill="gray" fill-opacity="1" fill-rule="nonzero" stroke="none" stroke-width="3.856" stroke-linecap="butt" stroke-linejoin="miter" stroke-miterlimit="4" stroke-dasharray="11.56725092,11.56725091999999933" stroke-dashoffset="0" stroke-opacity="1" enable-background="accumulate"/><path style="marker:none" d="M7.783 24.26A16.242 16.127 0 0 1 24.025 8.133 16.242 16.127 0 0 1 40.268 24.26z" id="circle1007" color="#000" display="inline" overflow="visible" visibility="visible" opacity=".05" fill="#000" fill-opacity="1" fill-rule="nonzero" stroke="none" stroke-width="3.856" stroke-linecap="butt" stroke-linejoin="miter" stroke-miterlimit="4" stroke-dasharray="11.56725092,11.56725092" stroke-dashoffset="0" stroke-opacity="1" enable-background="accumulate"/><path id="path1414" d="M125.568 192.568c-41.421 0-75-33.579-75-75 0-41.422 33.579-75 75-75 41.422 0 75 33.578 75 75 0 41.421-33.578 75-75 75z" transform="matrix(.18457 0 0 .18326 .849 3.08)" display="inline" opacity=".2" fill="#000" fill-opacity="1" stroke="none" stroke-width="87.67" stroke-linecap="round" stroke-linejoin="round" stroke-miterlimit="4" stroke-dasharray="none" stroke-dashoffset="0" stroke-opacity="1" filter="url(#filter1422)" enable-background="new"/><path d="M24.025 38.005c-7.645 0-13.843-6.154-13.843-13.745 0-7.59 6.198-13.745 13.843-13.745S37.868 16.67 37.868 24.26c0 7.591-6.198 13.745-13.843 13.745z" id="path949-0" display="inline" opacity="1" fill="url(#linearGradient1205)" fill-opacity="1" stroke="none" stroke-width="16.124" stroke-linecap="round" stroke-linejoin="round" stroke-miterlimit="4" stroke-dasharray="none" stroke-dashoffset="0" stroke-opacity="1" enable-background="new"/><path d="M24.025 10.515c-7.645 0-13.843 6.154-13.843 13.745 0 .062.004.122.005.183.1-7.506 6.255-13.561 13.838-13.561 7.584 0 13.74 6.055 13.839 13.561 0-.06.004-.121.004-.183 0-7.59-6.197-13.745-13.843-13.745z" id="path1446" display="inline" opacity=".5" fill="#fff" fill-opacity="1" stroke="none" stroke-width="16.124" stroke-linecap="round" stroke-linejoin="round" stroke-miterlimit="4" stroke-dasharray="none" stroke-dashoffset="0" stroke-opacity="1" enable-background="new"/><path d="M9.998 9.599a.738.733 0 0 0-.739.733.738.733 0 0 0 .739.733.738.733 0 0 0 .738-.733.738.733 0 0 0-.738-.733zm28.055 0a.738.733 0 0 0-.739.733.738.733 0 0 0 .739.733.738.733 0 0 0 .738-.733.738.733 0 0 0-.738-.733zm0 27.856a.738.733 0 0 0-.739.733.738.733 0 0 0 .739.733.738.733 0 0 0 .738-.733.738.733 0 0 0-.738-.733z" id="circle1473" display="inline" opacity=".1" fill="#000" fill-opacity="1" stroke="none" stroke-width="16.124" stroke-linecap="round" stroke-linejoin="round" stroke-miterlimit="4" stroke-dasharray="none" stroke-dashoffset="0" stroke-opacity="1" enable-background="new"/><style type="text/css" id="style4485-2"/><style type="text/css" id="style4485-17"/><style type="text/css" id="style4485-6"/><path id="path1467" d="M177.073 159.4S59.08 203.44 52.677 205.157c-6.402 1.715-12.982-2.084-14.697-8.485-1.715-6.402 2.084-12.982 8.485-14.697 6.402-1.716 130.608-22.573 130.608-22.573z" transform="matrix(.18457 0 0 .18326 .849 3.08)" display="inline" opacity=".2" fill="#000" fill-opacity="1" stroke="none" stroke-width="87.67" stroke-linecap="round" stroke-linejoin="round" stroke-miterlimit="4" stroke-dasharray="none" stroke-dashoffset="0" stroke-opacity="1" filter="url(#filter1469)" enable-background="new"/><path d="M33.532 31.927s-21.779 8.07-22.96 8.385a2.217 2.217 0 0 1-2.713-1.555 2.198 2.198 0 0 1 1.566-2.694c1.181-.314 24.107-4.136 24.107-4.136z" id="path1038" display="inline" opacity="1" fill="#fff" fill-opacity="1" stroke="none" stroke-width="16.124" stroke-linecap="round" stroke-linejoin="round" stroke-miterlimit="4" stroke-dasharray="none" stroke-dashoffset="0" stroke-opacity="1" enable-background="new"/><ellipse id="path1041" cx="9.998" cy="38.188" rx=".738" ry=".733" display="inline" opacity="1" fill="gray" fill-opacity="1" stroke="none" stroke-width="16.124" stroke-linecap="round" stroke-linejoin="round" stroke-miterlimit="4" stroke-dasharray="none" stroke-dashoffset="0" stroke-opacity="1" enable-background="new"/><path d="M28.373 26.555s.513-.143 1.023.11c.177.088.484.265.705.496.217.226.322.455.322.455l3.109 6.052h-6.614s-1.477-4.205-2.86-6.005c-.276-.22-.506-.454-.777-.433h-1.654v6.435h-5.29V15.642h10.024c1.086 0 5.687.644 5.848 5.15-.16 4.507-3.836 5.795-3.836 5.795zm-6.745-7.084v3.865h3.968s1.323.046 1.323-1.932c0-2.077-1.323-1.93-1.323-1.93z" id="path6" fill="#e30019" fill-opacity="1" fill-rule="evenodd" stroke-width=".653"/></svg>