<svg xmlns:osb="http://www.openswatchbook.org/uri/2009/osb" xmlns="http://www.w3.org/2000/svg" xmlns:xlink="http://www.w3.org/1999/xlink" width="48" height="48" version="1.1" id="svg38"><defs id="defs22"><style id="style4511"/><style id="style4511-26"/><style id="style4511-9"/><linearGradient id="linearGradient4454"><stop id="stop7-36" offset="0" stop-color="#d21e1e" stop-opacity="1"/><stop id="stop9-75" offset="1" stop-color="#e05e4c" stop-opacity="1"/></linearGradient><style id="style4552"/><style id="style4511-2"/><linearGradient osb:paint="solid" id="linearGradient5293"><stop id="stop5295" offset="0" stop-color="#9a89c0" stop-opacity="1"/></linearGradient><linearGradient xlink:href="#linearGradient4245-7" id="linearGradient1396" x1="2.583" y1="23.586" x2="44.83" y2="23.586" gradientUnits="userSpaceOnUse" gradientTransform="translate(.288 .72)"/><linearGradient id="linearGradient4245-7"><stop offset="0" id="stop4241" stop-color="#e8e8e8" stop-opacity="1"/><stop offset="1" id="stop4243" stop-color="#f5f5f5" stop-opacity="1"/></linearGradient><filter height="1.107" y="-.054" width="1.087" x="-.043" id="filter876" color-interpolation-filters="sRGB"><feGaussianBlur id="feGaussianBlur878" stdDeviation="2.711"/></filter><linearGradient xlink:href="#linearGradient4454" id="linearGradient1418" x1="9.008" y1="25.281" x2="34.806" y2="25.281" gradientUnits="userSpaceOnUse"/></defs><style id="style4485" type="text/css"/><g id="g1428" fill-opacity="1" stroke-linejoin="bevel" stroke-miterlimit="4" stroke-dasharray="none" stroke-dashoffset="0"><path d="M19.65 3.461h8.496c13.907 0 16.804 11.247 16.804 17.282v7.124c0 5.96-2.704 17.282-17.836 17.282h-6.93c-11.563 0-17.146-7.708-17.146-17.282v-7.124c0-9.574 5.47-17.282 16.613-17.282z" id="path4518" opacity="1" fill="url(#linearGradient1396)" stroke="#000" stroke-width=".334" stroke-linecap="square" stroke-opacity=".078"/><g transform="translate(2.087 -.256)" id="g1422" color="#000" font-style="normal" font-variant="normal" font-weight="400" font-stretch="normal" font-size="medium" font-family="sans-serif" letter-spacing="normal" word-spacing="normal" writing-mode="lr-tb" direction="ltr" text-anchor="start" clip-rule="nonzero" visibility="visible" color-interpolation="sRGB" color-interpolation-filters="linearRGB" fill-rule="evenodd" stroke="none" stroke-linecap="butt" stroke-opacity="1" color-rendering="auto" image-rendering="auto" shape-rendering="auto" text-rendering="auto"><path id="path862" d="M163.238 65.947l1.268 1.691-6.172 23.781-2.347.394-14.966-23.781 1.078-2.085zm-49.337 0l1.04 2.137-17.609 25.101-2.345-.61-3.53-25.102 1.305-1.526zm62.676.475L203 100.772l-1.015 2.167h-36.993l-1.252-1.739 10.569-34.35zm-47.562 0l26.423 34.35-1.015 2.167h-52.846l-1.015-2.167 26.423-34.35zm-49.592 0l2.268.428 10.57 34.35-1.253 1.74H54.015L53 100.771zm122.562 41.802l.967 2.22-68.7 76.627-2.181-1.419 31.707-76.627 1.214-.801zm-47.562 0l1.22 1.83-26.424 66.057h-2.438l-26.423-66.058 1.219-1.83zm-63.415 0l1.214.801 31.707 76.627-2.181 1.42-68.7-76.628.967-2.22z" style="line-height:normal;text-indent:0;text-align:start;text-decoration-line:none;text-decoration-style:solid;text-decoration-color:#000;text-transform:none;white-space:normal;isolation:auto;mix-blend-mode:normal;solid-color:#000;solid-opacity:1" transform="matrix(.17199 0 0 .17538 -.108 3.094)" text-decoration="none" baseline-shift="baseline" display="inline" overflow="visible" opacity=".3" fill="#141414" stroke-width="5.285" filter="url(#filter876)" enable-background="accumulate"/><path style="line-height:normal;text-indent:0;text-align:start;text-decoration-line:none;text-decoration-style:solid;text-decoration-color:#000;text-transform:none;white-space:normal;isolation:auto;mix-blend-mode:normal;solid-color:#000;solid-opacity:1" d="M27.967 14.66l.218.296-1.061 4.17-.404.07-2.574-4.17.185-.367zm-8.485 0l.179.374-3.029 4.402-.403-.107-.607-4.402.224-.268zm10.78.083l4.544 6.024-.175.38h-6.362l-.216-.305 1.818-6.024zm-8.18 0l4.544 6.024-.175.38h-9.089l-.174-.38 4.544-6.024zm-8.53 0l.39.075 1.818 6.024-.216.305H9.182l-.174-.38zm21.079 7.33l.166.39-11.815 13.439-.375-.25 5.453-13.438.209-.14zm-8.18 0l.21.322-4.545 11.585h-.42l-4.544-11.585.21-.321zm-10.907 0l.21.141 5.453 13.439-.376.249L9.016 22.463l.166-.39z" id="path4784" text-decoration="none" baseline-shift="baseline" display="inline" overflow="visible" opacity="1" fill="url(#linearGradient1418)" stroke-width=".918" enable-background="accumulate"/></g></g></svg>