<svg xmlns:osb="http://www.openswatchbook.org/uri/2009/osb" xmlns="http://www.w3.org/2000/svg" xmlns:xlink="http://www.w3.org/1999/xlink" width="48" height="48" version="1.1" id="svg38"><defs id="defs22"><linearGradient id="linearGradient4488"><stop id="stop4490" offset="0" stop-color="#000" stop-opacity=".047"/><stop id="stop4492" offset="1" stop-color="#000" stop-opacity="0"/></linearGradient><style id="style4511"/><style id="style4511-26"/><style id="style4511-9"/><style id="style4552"/><style id="style4511-2"/><linearGradient xlink:href="#linearGradient4488" id="linearGradient4540" gradientUnits="userSpaceOnUse" gradientTransform="rotate(90.216 54.465 -7.917) scale(.3038)" x1="288.112" y1="141.785" x2="287.575" y2="79.008"/><linearGradient osb:paint="solid" id="linearGradient5293"><stop id="stop5295" offset="0" stop-color="#9a89c0" stop-opacity="1"/></linearGradient><style id="style4511-87"/><style id="style4511-26-7"/><style id="style4511-9-1"/><style id="style4552-53"/><style id="style4511-2-9"/><style id="style4511-8"/><style id="style4511-26-4"/><style id="style4511-9-8"/><style id="style4552-5"/><style id="style4511-2-5"/><style id="style4511-8792"/><style id="style4511-26-3"/><style id="style4511-9-6"/><style id="style4552-4"/><style id="style4511-2-06"/><style id="style4511-87-2"/><style id="style4511-26-7-2"/><style id="style4511-9-1-8"/><style id="style4552-53-6"/><style id="style4511-2-9-9"/><style id="style4511-8-6"/><style id="style4511-26-4-2"/><style id="style4511-9-8-4"/><style id="style4552-5-9"/><style id="style4511-2-5-9"/><style id="style4511-879"/><style id="style4511-26-76"/><style id="style4511-9-2"/><style id="style4552-8"/><style id="style4511-2-0"/></defs><style id="style4485" type="text/css"/><style type="text/css" id="style4485-7"/><style id="style4485-6" type="text/css"/><style type="text/css" id="style4485-8"/><style id="style4485-7-2" type="text/css"/><style type="text/css" id="style4485-6-4"/><style id="style4485-3" type="text/css"/><path id="path4516" d="M22.28 3.136l-1.67-.007C11.037 3.093 3.309 8.648 3.265 20.21l-.026 6.93c-.057 15.133 11.255 17.88 17.215 17.902l1.669.006c-5.96-.022-17.272-2.77-17.215-17.901l.026-6.93C4.976 8.653 12.705 3.1 22.279 3.135z" opacity="1" fill="url(#linearGradient4540)" fill-opacity="1" stroke="none" stroke-width="1.1" stroke-linecap="square" stroke-linejoin="bevel" stroke-miterlimit="4" stroke-dasharray="none" stroke-dashoffset="0" stroke-opacity=".078"/><path d="M45.695 19.837C45.737 8.694 38.05 3.195 28.476 3.16l-4.293-.016-.157 41.912 4.293.016c6.035.023 17.292-2.832 17.344-16.74z" id="path4518" opacity="1" fill="#ff8c2a" fill-opacity="1" stroke="#000" stroke-width=".334" stroke-linecap="square" stroke-linejoin="bevel" stroke-miterlimit="4" stroke-dasharray="none" stroke-dashoffset="0" stroke-opacity=".078"/><path d="M2.548 28.39c-.027 11.142 7.667 16.631 17.24 16.655l4.294.01.101-41.912-4.293-.01C13.855 3.118 2.602 5.988 2.568 19.895z" id="path4518-7" opacity="1" fill="#5f5bcf" fill-opacity="1" stroke="#000" stroke-width=".334" stroke-linecap="square" stroke-linejoin="bevel" stroke-miterlimit="4" stroke-dasharray="none" stroke-dashoffset="0" stroke-opacity=".078"/><g id="g748" transform="matrix(1.00064 0 0 1 -.015 0)" fill="#fe4b71" fill-opacity="1"><path id="path4518-7-6" d="M19.89 3.133C13.855 3.12 2.602 5.987 2.568 19.895l-.012 5.02h21.575l.052-21.772z" opacity="1" fill="#fe4b71" fill-opacity="1" stroke="#000" stroke-width=".334" stroke-linecap="square" stroke-linejoin="bevel" stroke-miterlimit="4" stroke-dasharray="none" stroke-dashoffset="0" stroke-opacity=".078"/></g><path d="M28.371 45.056C34.41 45.05 45.66 42.343 45.644 29.4l-.006-4.672-21.587.072.024 20.262z" id="path4518-7-6-7" opacity="1" fill="#fe4b71" fill-opacity="1" stroke="#000" stroke-width=".322" stroke-linecap="square" stroke-linejoin="bevel" stroke-miterlimit="4" stroke-dasharray="none" stroke-dashoffset="0" stroke-opacity=".078"/><path id="path4518-0" d="M7.147 27.77v-6.803C7.147 9.83 16.355 7.51 21.296 7.51h5.832c4.88 0 14.15 2.165 14.15 14.282v5.55c0 9.258-6.311 13.729-14.15 13.729h-5.832c-7.839 0-14.15-4.38-14.15-13.303z" opacity="1" fill="#4d4d4d" fill-opacity="1" stroke="#000" stroke-width=".271" stroke-linecap="square" stroke-linejoin="bevel" stroke-miterlimit="4" stroke-dasharray="none" stroke-dashoffset="0" stroke-opacity=".078"/><path id="rect2864" fill="#fff" stroke-width="1.103" d="M14.223 31.54h9.973v2.194h-9.973z"/><g id="g2870" transform="matrix(1.1081 0 0 1.09707 -1.29 -2.47)" fill="#fff"><path d="M12.98 24.961v-9.989h5.058c.91 0 1.63.218 2.159.653.659.537.989 1.514.989 2.421 0 1.75-1.311 3-3.998 3h-2.16v3.915zm2.048-5.6h2.452c.558 0 .966-.104 1.227-.312.26-.208.39-.557.39-1.047 0-.342-.089-.623-.265-.845-.251-.305-.65-.458-1.198-.458h-2.605v2.662z" id="path2866"/><path d="M32.638 14.972v9.989h-1.951v-6.845l-2.895 4.845-2.873-4.859-.027 6.859h-1.951v-9.989h2.548l2.308 3.889 2.32-3.889z" id="path2868"/></g><path id="polygon2876" transform="matrix(1.1081 0 0 1.09707 -1.567 -2.47)" fill="#fff" d="M18.5 20l3 5h-2.234l-3-5z"/></svg>