<svg xmlns:osb="http://www.openswatchbook.org/uri/2009/osb" xmlns="http://www.w3.org/2000/svg" xmlns:xlink="http://www.w3.org/1999/xlink" width="48" height="48" version="1.1" id="svg38"><defs id="defs22"><style id="style4511"/><style id="style4511-26"/><style id="style4511-9"/><style id="style4552"/><style id="style4511-2"/><linearGradient osb:paint="solid" id="linearGradient5293"><stop id="stop5295" offset="0" stop-color="#9a89c0" stop-opacity="1"/></linearGradient><linearGradient gradientTransform="rotate(-90 -2.177 51.305)" gradientUnits="userSpaceOnUse" x2="47" x1="1" id="linearGradient3764-36753"><stop id="stop454" stop-opacity="1" stop-color="#8e0025"/><stop id="stop456" stop-opacity="1" stop-color="#a2002a" offset="1"/></linearGradient><linearGradient xlink:href="#linearGradient3764-36753" id="linearGradient1382" x1="2.583" y1="23.84" x2="45.236" y2="23.84" gradientUnits="userSpaceOnUse" gradientTransform="translate(0 .102)"/></defs><style id="style4485" type="text/css"/><path id="path4518" d="M19.525 2.846H28.1c14.042 0 16.966 11.383 16.966 17.491v7.21c0 6.031-2.73 17.491-18.008 17.491h-6.996c-11.674 0-17.311-7.801-17.311-17.491v-7.21c0-9.69 5.523-17.491 16.773-17.491z" opacity="1" fill="url(#linearGradient1382)" fill-opacity="1" stroke="#000" stroke-width=".338" stroke-linecap="square" stroke-linejoin="bevel" stroke-miterlimit="4" stroke-dasharray="none" stroke-dashoffset="0" stroke-opacity=".078"/><path d="M11.494 4.465c.284.91.65 1.716.65 1.716l.324.74-.013.002.023.051c.082.196.147.396.2.597a4.497 4.497 0 0 1 .148 1.228 4.258 4.258 0 0 1-.056.607 4.368 4.368 0 0 1-.652 1.705 4.143 4.143 0 0 1-.385.494l.027-.006a5.186 5.186 0 0 0-.745 1.028 4.591 4.591 0 0 0-.259.554 4.32 4.32 0 0 0-.256 1.177 3.862 3.862 0 0 0 .113 1.214 4.115 4.115 0 0 0 .441 1.094 4.865 4.865 0 0 0 1.039 1.273c.28.25.593.477.926.678.333.2.687.375 1.062.522a8.253 8.253 0 0 0 2.425.534 8.353 8.353 0 0 0 1.937-.095c.217-.037.436-.085.652-.139.215-.054.428-.11.63-.18.204-.07.396-.152.586-.235a6.87 6.87 0 0 0 1.054-.58c.322-.217.613-.455.872-.712.26-.258.482-.534.673-.824a4.63 4.63 0 0 0 .46-.91 4.09 4.09 0 0 0 .234-.972 3.9 3.9 0 0 0-.017-.997 4.35 4.35 0 0 0-.105-.507 4.492 4.492 0 0 0-.48-1.087 5.27 5.27 0 0 0-1.349-1.473 6.39 6.39 0 0 0-1.214-.72 7.512 7.512 0 0 0-1.387-.487l.038-.012a6.563 6.563 0 0 1-.686-.221 7.022 7.022 0 0 1-1.272-.658 6.587 6.587 0 0 1-.567-.42 6.42 6.42 0 0 1-.511-.461 6.256 6.256 0 0 1-.444-.514 5.456 5.456 0 0 1-.375-.546 4.889 4.889 0 0 1-.226-.436l.014-.002-.415-.952s-.652-1.572-.801-1.996zm19.057 10.22a8.66 8.66 0 0 0-.79.014 8.27 8.27 0 0 0-.798.084 8.006 8.006 0 0 0-2.024.576 6.89 6.89 0 0 0-1.06.575 5.932 5.932 0 0 0-.878.71 5.07 5.07 0 0 0-.68.815 4.43 4.43 0 0 0-.454.902 3.89 3.89 0 0 0-.22.955 4.01 4.01 0 0 0 .14 1.479c.05.164.114.329.188.493a4.13 4.13 0 0 0 .558.926c.224.288.478.553.765.797.288.244.604.464.944.66a7.445 7.445 0 0 0 2.28.851 8.819 8.819 0 0 0 2.583.15 8.578 8.578 0 0 0 2.077-.463 6.825 6.825 0 0 0 1.913-1.042 5.2 5.2 0 0 0 .929-.934 4.397 4.397 0 0 0 .628-1.063l.013.028c.08-.179.172-.351.285-.523.111-.172.243-.343.385-.505a6.414 6.414 0 0 1 1.008-.911c.191-.139.39-.272.602-.395a7.9 7.9 0 0 1 .665-.341 8.24 8.24 0 0 1 .71-.29 8.51 8.51 0 0 1 .568-.174l.005.006c1.211-.187 2.722-.28 4.056-.28l-.339-1.896c-1.303 0-2.71 0-4.31.232l-.004-.01-.065.017a9.25 9.25 0 0 1-1.58.255 9.79 9.79 0 0 1-.804.03 10.03 10.03 0 0 1-.797-.038 9.295 9.295 0 0 1-.778-.096 8.987 8.987 0 0 1-.754-.168 7.514 7.514 0 0 1-.705-.22 6.266 6.266 0 0 1-.65-.29l.01.024a7.414 7.414 0 0 0-1.354-.562 7.846 7.846 0 0 0-1.489-.318 8.701 8.701 0 0 0-.779-.06zm-20.313 5.01a8.713 8.713 0 0 0-2.732.493 7.509 7.509 0 0 0-1.342.646 6.143 6.143 0 0 0-1.078.847 4.75 4.75 0 0 0-.777 1c-.105.178-.2.361-.277.547l-.013-.025c-.08.178-.175.35-.288.522a4.527 4.527 0 0 1-.38.505 5.584 5.584 0 0 1-.466.477c-.086.077-.145.114-.237.187L2.668 28c.076-.001.095-.008.17-.008a9.952 9.952 0 0 1 1.573.133 7.556 7.556 0 0 1 1.46.388c.227.085.445.179.653.284l-.014-.02c.21.113.436.216.662.31a8.168 8.168 0 0 0 1.424.443c.249.052.5.09.757.121.256.031.52.056.783.064.261.008.521.004.787-.012a8.284 8.284 0 0 0 1.588-.242 7.391 7.391 0 0 0 1.235-.42c.382-.167.74-.36 1.064-.575.324-.215.617-.457.877-.713a5.09 5.09 0 0 0 .676-.814c.189-.287.34-.59.453-.901a3.8 3.8 0 0 0 .22-.951 3.745 3.745 0 0 0-.328-1.976 4.103 4.103 0 0 0-.558-.923 5.423 5.423 0 0 0-.765-.799 6.385 6.385 0 0 0-.944-.661 7.358 7.358 0 0 0-1.085-.506 8.582 8.582 0 0 0-3.117-.526zm13.309 5.053a8.383 8.383 0 0 0-1.302.113 8.601 8.601 0 0 0-1.277.326 7.588 7.588 0 0 0-.586.23 6.87 6.87 0 0 0-1.053.58 5.986 5.986 0 0 0-.874.713 5.206 5.206 0 0 0-.676.826c-.19.29-.343.596-.46.91a3.946 3.946 0 0 0-.218 1.97 4.314 4.314 0 0 0 .586 1.59c.113.188.237.371.377.542a5.42 5.42 0 0 0 .972.933 6.47 6.47 0 0 0 1.211.717 7.853 7.853 0 0 0 1.39.493l-.038.006c.233.062.46.137.685.225.224.088.442.184.655.293a7.016 7.016 0 0 1 1.184.782c.18.148.356.303.517.466a6.157 6.157 0 0 1 .813 1.053c.084.143.155.289.223.437l-.013.004.423.956s1.129 2.976 1.25 6.173l2.623-.164c-.123-3.573-1.418-6.661-1.418-6.661l-.323-.737.013-.004-.02-.052a4.553 4.553 0 0 1-.198-.598 4.432 4.432 0 0 1-.123-.61 4.581 4.581 0 0 1-.025-.614c.004-.204.02-.408.054-.608a4.373 4.373 0 0 1 .356-1.17 4.13 4.13 0 0 1 .683-1.032l-.032.01a4.9 4.9 0 0 0 .745-1.032c.098-.18.19-.366.261-.556a4.11 4.11 0 0 0 .251-1.777 3.977 3.977 0 0 0-.107-.61 4.154 4.154 0 0 0-.44-1.093 4.79 4.79 0 0 0-.296-.46 5.28 5.28 0 0 0-.745-.816 6.26 6.26 0 0 0-.923-.676 7.063 7.063 0 0 0-1.062-.524 7.942 7.942 0 0 0-1.176-.357 8.385 8.385 0 0 0-1.887-.197z" id="path1280" fill="#fff" stroke-width="1.148"/></svg>