<svg xmlns="http://www.w3.org/2000/svg" xmlns:xlink="http://www.w3.org/1999/xlink" width="48" height="48" version="1.1" id="svg38"><defs id="defs22"><linearGradient id="linearGradient4488"><stop id="stop4490" offset="0" stop-color="#000" stop-opacity=".047"/><stop id="stop4492" offset="1" stop-color="#000" stop-opacity="0"/></linearGradient><style id="style4511"/><style id="style4511-26"/><style id="style4511-9"/><style id="style4552"/><style id="style4511-2"/><linearGradient gradientTransform="translate(-63.205 2.216) scale(.3038)" xlink:href="#linearGradient4488" id="linearGradient4160" x1="288.112" y1="141.785" x2="287.575" y2="79.008" gradientUnits="userSpaceOnUse"/><linearGradient gradientTransform="translate(-60.209 -1.23)" gradientUnits="userSpaceOnUse" y2="31.19" x2="106.988" y1="25.039" x1="70.598" id="linearGradient5661-2" xlink:href="#linearGradient5655"/><linearGradient id="linearGradient5655"><stop id="stop5657" offset="0" stop-color="#8031a1" stop-opacity="1"/><stop id="stop5659" offset="1" stop-color="#cfa1e3" stop-opacity="1"/></linearGradient></defs><style id="style4485" type="text/css"/><path d="M2.433 26.443v1.668c0 9.575 5.583 17.282 17.146 17.282h6.93c15.133 0 17.837-11.322 17.837-17.282v-1.668c0 5.96-2.704 17.282-17.837 17.282h-6.93c-11.563 0-17.146-7.708-17.146-17.282z" id="path4147" opacity="1" fill="url(#linearGradient4160)" fill-opacity="1" stroke="none" stroke-width="1.1" stroke-linecap="square" stroke-linejoin="bevel" stroke-miterlimit="4" stroke-dasharray="none" stroke-dashoffset="0" stroke-opacity=".078"/><path d="M19.046 2.965h8.495c13.908 0 16.805 11.246 16.805 17.282v7.123c0 5.96-2.704 17.282-17.837 17.282h-6.93c-11.562 0-17.146-7.708-17.146-17.282v-7.123c0-9.575 5.47-17.282 16.613-17.282z" id="rect4144" opacity="1" fill="#e3e7ea" fill-opacity="1" stroke="#000" stroke-width=".334" stroke-linecap="square" stroke-linejoin="bevel" stroke-miterlimit="4" stroke-dasharray="none" stroke-dashoffset="0" stroke-opacity=".078"/><path d="M19.143 10.808a.976.976 0 0 0-.98.974c0 .211.08.405.196.565l-2.45 2.795c-.097-.026-.187-.063-.293-.063a1.21 1.21 0 0 0-1.209 1.193c0 .025.031.038.033.063l-2.156 1.413a.977.977 0 0 0-.555-.189.976.976 0 0 0-.98.974c0 .328.174.608.424.785l-.391 7.285a.788.788 0 0 0-.392.69c0 .422.359.754.783.754.023 0 .044.002.066 0l5.357 5.433v.031c0 .422.326.785.75.785a.818.818 0 0 0 .425-.126l2.94 1.54c-.006.043-.033.08-.033.125 0 .538.438.973.98.973.508 0 .896-.389.948-.88l7.839-2.291c.178.246.488.408.816.408.542 0 .98-.436.98-.974a.966.966 0 0 0-.228-.596l3.397-7.442c.541 0 .98-.436.98-.974a.96.96 0 0 0-.784-.942l-1.078-3.548c.169-.14.294-.33.294-.565 0-.422-.36-.754-.784-.754-.036 0-.063.027-.098.032l-4.932-5.967c.007-.04.032-.083.032-.125 0-.422-.359-.754-.784-.754-.253 0-.447.127-.588.314l-7.61-.282a.972.972 0 0 0-.915-.66zm.915 1.319l7.48.283c.049.17.15.309.294.408l-.196.848c-.35.08-.628.315-.784.628l-8.362 1.005.555-2.575c.037.004.06.031.098.031a.984.984 0 0 0 .915-.628zm8.525.754l4.801 5.809c-.05.101-.098.193-.098.314 0 .21.09.396.23.534l-.393 1.099-4.18-5.276c.091-.167.163-.36.163-.565 0-.512-.326-.934-.784-1.099l.163-.785c.034-.01.067-.016.098-.031zm-9.93.157l-.522 2.292-1.6.188c-.01-.011-.023-.02-.033-.031l2.155-2.45zm8.232 2.606L24.467 25c-.075.018-.157.035-.228.063l-6.206-7.002 2.907-.314c.13.237.394.408.686.408.424 0 .751-.363.751-.785 0-.058-.02-.102-.033-.157l4.181-1.539.36-.031zm-1.797.188L22.181 16.9c-.141-.168-.318-.283-.555-.283-.425 0-.784.332-.784.754v.031l-2.875.346.23-1.13 6.891-.786zm3.103.157l4.54 5.778-.947 2.638-5.683 1.319a1.369 1.369 0 0 0-.327-.377l2.417-9.358zm-10.387.691l-.196.91-.718-.816.914-.094zm-3.103.314c.058.07.124.134.196.189l-.163.91-2.058.251c-.002-.01.002-.02 0-.031l2.025-1.319zm.85.44h.13l.457.502-.686.094.098-.596zm.881.816l.85.942-.392 1.727a.745.745 0 0 0-.72.754c0 .238.123.425.295.565l-2.58 3.894 1.502-7.756 1.045-.126zm-1.764.189l-1.633 8.446a.967.967 0 0 0-.653.503l-.457-.094a.78.78 0 0 0-.458-.723l.392-7.096a.942.942 0 0 0 .817-.817l1.992-.22zm2.875 1.099l5.814 6.5c-.011.04-.025.083-.033.125l-9.407 1.005a.938.938 0 0 0-.196-.157l3.005-4.616a.73.73 0 0 0 .196.032c.425 0 .784-.332.784-.754 0-.302-.202-.567-.457-.69l.294-1.445zm16.266.188c.02.006.044-.005.065 0l.882 3.015-1.372-1.79.425-1.225zm-.85 2.355l1.373 1.727-2.156.503.784-2.23zm1.47 2.7l-3.102 6.752.065-4.208a.718.718 0 0 0 .588-.69c0-.28-.189-.512-.425-.629l.229-.596 2.646-.628zm-3.004.723l-.164.408a.723.723 0 0 0-.718.722c0 .33.217.609.522.691l-.098 4.804c-.24.074-.432.26-.555.471l-4.279-.942c0-.421-.359-.753-.784-.753-.413 0-.766.316-.784.722l-1.045.251 1.307-3.956a1.506 1.506 0 0 0 1.437-1.225l5.16-1.193zm-7.937 1.633c.09.164.216.32.359.44l-1.503 4.584-3.135.785-5.063-4.742c.007-.019.026-.043.032-.062l9.31-1.005zm-11.335.816l.131.032c.006.038-.01.088 0 .125l-.13-.157zm.784.785c.093.029.192.063.294.063h.066l4.278 3.988a.716.716 0 0 0-.62.094l-4.018-4.145zm11.694 3.203a.75.75 0 0 0 .718.471c.319 0 .602-.166.719-.44l3.724.817-7.252 2.104.882-2.67 1.209-.282zm-2.385.597l-.784 2.355a.92.92 0 0 0-.13.031l-1.862-1.727 2.776-.66zm-3.92.942l.49.47-.685-.376v-.063l.196-.031z" id="path5592-6-1" opacity=".99" fill="url(#linearGradient5661-2)" fill-opacity="1" stroke="none"/></svg>