<svg xmlns:osb="http://www.openswatchbook.org/uri/2009/osb" xmlns="http://www.w3.org/2000/svg" xmlns:xlink="http://www.w3.org/1999/xlink" width="48" height="48" version="1.1" id="svg38"><defs id="defs22"><linearGradient id="linearGradient4488"><stop id="stop4490" offset="0" stop-color="#000" stop-opacity=".047"/><stop id="stop4492" offset="1" stop-color="#000" stop-opacity="0"/></linearGradient><style id="style4511"/><style id="style4511-26"/><style id="style4511-9"/><style id="style4552"/><style id="style4511-2"/><linearGradient xlink:href="#linearGradient4488" id="linearGradient4540" gradientUnits="userSpaceOnUse" gradientTransform="matrix(.30673 0 0 .3038 -63.522 1.994)" x1="288.112" y1="141.785" x2="287.575" y2="79.008"/><linearGradient osb:paint="solid" id="linearGradient5293"><stop id="stop5295" offset="0" stop-color="#9a89c0" stop-opacity="1"/></linearGradient><linearGradient osb:paint="solid" id="linearGradient5251"><stop id="stop5253" offset="0" stop-color="#2f343f" stop-opacity="1"/></linearGradient></defs><style id="style4485" type="text/css"/><path id="path4516" d="M2.75 26.22v1.669c0 9.574 5.638 17.282 17.312 17.282h6.998c15.278 0 18.008-11.323 18.008-17.282V26.22c0 5.96-2.73 17.282-18.008 17.282h-6.998c-11.674 0-17.311-7.708-17.311-17.282z" opacity="1" fill="url(#linearGradient4540)" fill-opacity="1" stroke="none" stroke-width="1.105" stroke-linecap="square" stroke-linejoin="bevel" stroke-miterlimit="4" stroke-dasharray="none" stroke-dashoffset="0" stroke-opacity=".078"/><path id="path4518" d="M44.905 19.354v8.576c0 14.042-11.329 16.967-17.408 16.967h-7.175c-6.003 0-17.407-2.73-17.407-18.009v-6.996c0-11.674 7.763-17.311 17.407-17.311h7.175c9.644 0 17.408 5.522 17.408 16.773z" opacity="1" fill="#eb5227" fill-opacity="1" stroke="#000" stroke-width=".337" stroke-linecap="square" stroke-linejoin="bevel" stroke-miterlimit="4" stroke-dasharray="none" stroke-dashoffset="0" stroke-opacity=".078"/><path d="M7.503 37.147c-2.215-3.163-2.469-3.542-2.469-3.685 0-.074.906-1.376 2.014-2.894L9.06 27.81v5.66c0 3.114-.038 5.66-.085 5.66-.046 0-.71-.891-1.473-1.982zm2.733-3.631v-2.669h10.57c12.566 0 11.303.287 11.214-2.544-.034-1.093-.139-1.912-.264-2.07-.178-.225-1.692-.279-10.553-.375-9.526-.104-10.37-.137-10.669-.421-.31-.296-.322-.564-.27-6.48.052-5.799.076-6.21.391-6.772.483-.86 1.124-1.295 2.135-1.446.487-.073 6.114-.138 12.504-.145l11.619-.013v5.093l-10.565.053c-9.879.05-10.583.073-10.863.367-.25.262-.3.623-.3 2.14 0 2.843-.988 2.566 9.212 2.577 4.715.005 9.082.069 9.705.141 1.264.148 1.863.512 2.391 1.455.315.562.336.915.336 5.825v5.228l-.38 1.063c-.28.418-.65.752-1.116.97l-1.1.513-11.999.09-11.998.089zM38.17 7.208l1.356 1.907c2.785 3.917 2.664 3.695 2.325 4.244-.377.61-2.102 3.018-3.019 4.213l-.699.91c-.007.18.037-11.274.037-11.274z" id="path817" fill="#fff" fill-opacity="1" stroke-width=".172"/></svg>