<svg xmlns:osb="http://www.openswatchbook.org/uri/2009/osb" xmlns="http://www.w3.org/2000/svg" xmlns:xlink="http://www.w3.org/1999/xlink" width="48" height="48" version="1.1" id="svg38"><defs id="defs22"><linearGradient id="linearGradient4488"><stop id="stop4490" offset="0" stop-color="#000" stop-opacity=".047"/><stop id="stop4492" offset="1" stop-color="#000" stop-opacity="0"/></linearGradient><style id="style4511"/><style id="style4511-26"/><style id="style4511-9"/><style id="style4552"/><style id="style4511-2"/><linearGradient xlink:href="#linearGradient4488" id="linearGradient4540" gradientUnits="userSpaceOnUse" gradientTransform="translate(-62.889 1.994) scale(.3038)" x1="288.112" y1="141.785" x2="287.575" y2="79.008"/><linearGradient osb:paint="solid" id="linearGradient5293"><stop id="stop5295" offset="0" stop-color="#9a89c0" stop-opacity="1"/></linearGradient></defs><style id="style4485" type="text/css"/><path id="path4516" d="M2.75 26.22v1.67c0 9.573 5.583 17.281 17.146 17.281h6.93c15.132 0 17.836-11.322 17.836-17.282v-1.668c0 5.96-2.704 17.282-17.836 17.282h-6.93C8.333 43.503 2.75 35.795 2.75 26.22z" opacity="1" fill="url(#linearGradient4540)" fill-opacity="1" stroke="none" stroke-width="1.1" stroke-linecap="square" stroke-linejoin="bevel" stroke-miterlimit="4" stroke-dasharray="none" stroke-dashoffset="0" stroke-opacity=".078"/><path id="path4518" d="M19.666 2.742h8.65c14.16 0 17.11 11.247 17.11 17.282v7.124c0 5.96-2.754 17.282-18.162 17.282h-7.056C8.435 44.43 2.75 36.722 2.75 27.148v-7.124c0-9.574 5.57-17.282 16.916-17.282z" opacity="1" fill="#4d4d4d" fill-opacity="1" stroke="#000" stroke-width=".337" stroke-linecap="square" stroke-linejoin="bevel" stroke-miterlimit="4" stroke-dasharray="none" stroke-dashoffset="0" stroke-opacity=".078"/><path d="M29.244 6.502c10.651 0 12.173 1.577 12.173 12.626v8.849c0 11.05-1.522 12.626-12.173 12.626h-10.84c-10.65 0-12.172-1.577-12.172-12.626v-8.849c0-11.05 1.522-12.626 12.173-12.626z" id="path1526" display="inline" opacity=".05" fill="#000" fill-opacity="0" stroke="#fff" stroke-width=".299" stroke-linecap="round" stroke-linejoin="round" stroke-miterlimit="4" stroke-dasharray="none" stroke-dashoffset="0" stroke-opacity="1"/><g id="g1903" transform="matrix(.6774 0 0 .71406 1.612 -163.271)" fill-opacity="1" stroke="none" stroke-linecap="round" stroke-linejoin="miter" stroke-miterlimit="4" stroke-dasharray="none" stroke-opacity="1"><circle r="4.097" cy="250.478" cx="17.202" id="path1528-5" opacity="1" fill="#fff" stroke-width=".342"/><rect id="rect1766" width="27.657" height="8.536" x="25.135" y="246.13" rx="4.097" ry="4.097" opacity="1" fill="#fff" stroke-width=".352"/><circle id="circle1889" cx="17.202" cy="261.405" r="4.097" opacity="1" fill="#fff" stroke-width=".342"/><rect ry="4.097" rx="4.097" y="257.057" x="25.135" height="8.536" width="27.657" id="rect1891" opacity="1" fill="#fff" stroke-width=".352"/><circle r="4.097" cy="272.331" cx="17.202" id="circle1893" opacity="1" fill="#f66a08" stroke-width=".342"/><rect id="rect1895" width="27.657" height="8.536" x="25.135" y="267.983" rx="4.097" ry="4.097" opacity="1" fill="#f66a08" stroke-width=".352"/></g></svg>