<svg xmlns="http://www.w3.org/2000/svg" xmlns:xlink="http://www.w3.org/1999/xlink" width="48" height="48" version="1.1" id="svg38"><defs id="defs22"><linearGradient id="linearGradient4488"><stop id="stop4490" offset="0" stop-color="#000" stop-opacity=".047"/><stop id="stop4492" offset="1" stop-color="#000" stop-opacity="0"/></linearGradient><style id="style4511"/><style id="style4511-26"/><style id="style4511-9"/><style id="style4552"/><style id="style4511-2"/><linearGradient xlink:href="#linearGradient4488" id="linearGradient4546" gradientUnits="userSpaceOnUse" gradientTransform="translate(-62.497 1.994) scale(.3038)" x1="288.112" y1="141.785" x2="287.575" y2="79.008"/></defs><style id="style4485" type="text/css"/><path d="M3.141 26.22v1.67c0 9.573 5.583 17.281 17.146 17.281h6.93c15.133 0 17.837-11.322 17.837-17.282v-1.668c0 5.96-2.704 17.282-17.837 17.282h-6.93c-11.563 0-17.146-7.708-17.146-17.282z" id="path4528" opacity="1" fill="url(#linearGradient4546)" fill-opacity="1" stroke="none" stroke-width="1.1" stroke-linecap="square" stroke-linejoin="bevel" stroke-miterlimit="4" stroke-dasharray="none" stroke-dashoffset="0" stroke-opacity=".078"/><path d="M19.754 2.742h8.495c13.908 0 16.805 11.247 16.805 17.282v7.124c0 5.96-2.704 17.282-17.837 17.282h-6.93c-11.562 0-17.146-7.708-17.146-17.282v-7.124c0-9.574 5.47-17.282 16.613-17.282z" id="path4530" opacity="1" fill="#d5b379" fill-opacity="1" stroke="#000" stroke-width=".334" stroke-linecap="square" stroke-linejoin="bevel" stroke-miterlimit="4" stroke-dasharray="none" stroke-dashoffset="0" stroke-opacity=".078"/><g id="g1209" transform="matrix(1 0 0 1.0411 52.144 2.46)"><path id="path1150" d="M-44.901 28.318h6c2.984 0 4-2 4-4 0-8.299-8 .275-8-8-.024-2.013.976-4 4-4h6" fill="none" stroke="#ff4141" stroke-width="4"/><path id="path1154" d="M-22.9 14.318h12m-6 14v-14" fill="none" stroke="#fff" stroke-width="4"/><path id="rect1158" fill="#353535" d="M-28.901 18.318h2v4h-2z"/><path id="rect1160" fill="#353535" d="M-28.901 12.318h2v4h-2z"/><path id="rect1162" fill="#353535" d="M-28.901 6.318h2v4h-2z"/><path id="rect1164" fill="#353535" d="M-28.901 30.318h2v4h-2z"/><path id="rect1166" fill="#353535" d="M-28.901 24.318h2v4h-2z"/></g></svg>