<svg xmlns:osb="http://www.openswatchbook.org/uri/2009/osb" xmlns="http://www.w3.org/2000/svg" xmlns:xlink="http://www.w3.org/1999/xlink" width="48" height="48" version="1.1" id="svg38"><defs id="defs22"><linearGradient id="linearGradient4488"><stop id="stop4490" offset="0" stop-color="#000" stop-opacity=".047"/><stop id="stop4492" offset="1" stop-color="#000" stop-opacity="0"/></linearGradient><style id="style4511"/><style id="style4511-26"/><style id="style4511-9"/><linearGradient id="linearGradient4454"><stop id="stop7-36" offset="0" stop-color="#d21e1e" stop-opacity="1"/><stop id="stop9-75" offset="1" stop-color="#e05e4c" stop-opacity="1"/></linearGradient><style id="style4552"/><style id="style4511-2"/><linearGradient xlink:href="#linearGradient4488" id="linearGradient4540" gradientUnits="userSpaceOnUse" gradientTransform="translate(-62.889 1.994) scale(.3038)" x1="288.112" y1="141.785" x2="287.575" y2="79.008"/><linearGradient osb:paint="solid" id="linearGradient5293"><stop id="stop5295" offset="0" stop-color="#9a89c0" stop-opacity="1"/></linearGradient><linearGradient xlink:href="#linearGradient4454" id="linearGradient4305" gradientUnits="userSpaceOnUse" gradientTransform="matrix(.91414 0 0 .67381 -6.497 -660.23)" spreadMethod="reflect" x1="32" y1="1017.87" x2="32" y2="1015.362"/></defs><style id="style4485" type="text/css"/><g id="g1403"><path d="M2.75 26.22v1.67c0 9.573 5.583 17.281 17.146 17.281h6.93c15.132 0 17.836-11.322 17.836-17.282v-1.668c0 5.96-2.704 17.282-17.836 17.282h-6.93C8.333 43.503 2.75 35.795 2.75 26.22z" id="path4516" opacity="1" fill="url(#linearGradient4540)" fill-opacity="1" stroke="none" stroke-width="1.1" stroke-linecap="square" stroke-linejoin="bevel" stroke-miterlimit="4" stroke-dasharray="none" stroke-dashoffset="0" stroke-opacity=".078"/><path d="M19.363 2.742h8.495c13.908 0 16.804 11.247 16.804 17.282v7.124c0 5.96-2.704 17.282-17.836 17.282h-6.93C8.333 44.43 2.75 36.722 2.75 27.148v-7.124c0-9.574 5.47-17.282 16.613-17.282z" id="path4518" opacity="1" fill="#ececec" fill-opacity="1" stroke="#000" stroke-width=".334" stroke-linecap="square" stroke-linejoin="bevel" stroke-miterlimit="4" stroke-dasharray="none" stroke-dashoffset="0" stroke-opacity=".078"/><path style="marker:none" d="M10.043 14.028V12.62h23.86v1.408z" id="path14979" color="#000" display="inline" overflow="visible" visibility="visible" opacity="1" fill="#b3b3b3" fill-opacity=".996" fill-rule="nonzero" stroke="none" stroke-width=".511"/><path style="marker:none" d="M24.557 16.845v-1.409H37.64v1.409z" id="path4235" color="#000" display="inline" overflow="visible" visibility="visible" opacity="1" fill="#999" fill-opacity=".997" fill-rule="nonzero" stroke="none" stroke-width=".511"/><path id="rect4315" d="M10.043 15.436v11.268h11.875V15.436z" style="marker:none" color="#000" display="inline" overflow="visible" visibility="visible" opacity="1" fill="#b3b3b3" fill-opacity="1" fill-rule="nonzero" stroke="none" stroke-width=".511"/><path id="path4631" d="M24.557 19.662v-1.409h6.597v1.409z" style="marker:none" color="#000" display="inline" overflow="visible" visibility="visible" opacity="1" fill="#999" fill-opacity=".997" fill-rule="nonzero" stroke="none" stroke-width=".511"/><path style="marker:none" d="M24.557 22.466V21.07H37.64v1.396z" id="path4633" color="#000" display="inline" overflow="visible" visibility="visible" opacity="1" fill="#999" fill-opacity=".996" fill-rule="nonzero" stroke="none" stroke-width=".511"/><path id="path4635" d="M10.043 32.337V30.93h27.708v1.408z" style="marker:none" color="#000" display="inline" overflow="visible" visibility="visible" opacity="1" fill="#b3b3b3" fill-opacity=".996" fill-rule="nonzero" stroke="none" stroke-width=".511"/><path style="marker:none" d="M18.854 18.253c-.751 0-1.36.65-1.36 1.453 0 .802.609 1.452 1.36 1.452.752 0 1.36-.65 1.36-1.452 0-.803-.608-1.453-1.36-1.453zm-4.098 1.31l-2.734 5.028h6.216l-1.816-3.717-.513 1.048z" id="path4250" color="#000" display="inline" overflow="visible" visibility="visible" opacity="1" fill="#e7e7df" fill-opacity="1" fill-rule="nonzero" stroke="none" stroke-width=".383"/><path id="path4725" d="M24.557 25.282v-1.395H37.64v1.395z" style="marker:none" color="#000" display="inline" overflow="visible" visibility="visible" opacity="1" fill="#b3b3b3" fill-opacity=".996" fill-rule="nonzero" stroke="none" stroke-width=".511"/><path style="marker:none" d="M10.043 29.52v-1.395h27.708v1.395z" id="path4727" color="#000" display="inline" overflow="visible" visibility="visible" opacity="1" fill="#b3b3b3" fill-opacity=".996" fill-rule="nonzero" stroke="none" stroke-width=".511"/><path id="path14983" d="M10.043 35.154v-1.408h17.153v1.408z" style="marker:none" color="#000" display="inline" overflow="visible" visibility="visible" opacity="1" fill="#b3b3b3" fill-opacity=".996" fill-rule="nonzero" stroke="none" stroke-width=".511"/><path id="path14977" d="M10.043 11.211V9.803h27.708v1.408z" style="marker:none" color="#000" display="inline" overflow="visible" visibility="visible" opacity="1" fill="#b3b3b3" fill-opacity=".996" fill-rule="nonzero" stroke="none" stroke-width=".511"/><path id="rect5537" opacity=".8" fill="url(#linearGradient4305)" fill-opacity="1" stroke="none" stroke-width=".414" d="M3.558 23.932H43.78v3.369H3.558z"/><path id="rect3099" opacity=".8" fill="#fff" fill-opacity="1" stroke="none" stroke-width=".414" d="M3.558 25.429H43.78v.374H3.558z"/></g></svg>