<svg xmlns="http://www.w3.org/2000/svg" xmlns:xlink="http://www.w3.org/1999/xlink" width="48" height="48" version="1.1" id="svg38"><defs id="defs22"><style id="style4511"/><style id="style4511-26"/><style id="style4511-9"/><style id="style4552"/><linearGradient id="a-3675" y1="543.8" y2="503.8" x2="0" gradientUnits="userSpaceOnUse" gradientTransform="matrix(1.125 0 0 1 -51.07 0)"><stop stop-color="#2a2c2f" id="stop2-3"/><stop offset="1" stop-color="#424649" id="stop4-56"/></linearGradient><style id="style4511-2"/><clipPath id="clipPath-886807824"/><clipPath id="clipPath-897244418"/><linearGradient xlink:href="#a-3675" id="linearGradient1606" x1="3.098" y1="23.808" x2="45.119" y2="23.808" gradientUnits="userSpaceOnUse" gradientTransform="rotate(90 24.109 23.808)"/></defs><style id="style4485" type="text/css"/><path d="M19.765 2.965h8.496c13.907 0 16.804 11.246 16.804 17.282v7.123c0 5.96-2.704 17.282-17.837 17.282h-6.93c-11.562 0-17.146-7.766-17.146-17.282v-7.123c0-9.575 5.47-17.282 16.613-17.282z" id="rect4144" opacity="1" fill="url(#linearGradient1606)" fill-opacity="1" stroke="#000" stroke-width=".334" stroke-linecap="square" stroke-linejoin="bevel" stroke-miterlimit="4" stroke-dasharray="none" stroke-dashoffset="0" stroke-opacity=".078"/><g id="g3119" transform="translate(-.374 .625)" fill-opacity="1" fill-rule="nonzero" stroke="none"><ellipse ry="4.78" rx="5.39" cy="18" cx="-41.186" transform="matrix(.46384 0 0 .52305 46.604 4.085)" id="path3038" fill="#ff2a2a"/><ellipse ry="4.78" rx="5.39" cy="18" cx="-41.186" id="path3044" transform="matrix(.46384 0 0 .52305 39.604 10.085)" fill="#ff2a2a"/><ellipse ry="4.78" rx="5.39" cy="18" cx="-41.186" transform="matrix(.46384 0 0 .52305 33.604 16.085)" id="path3046" fill="#d40000"/><ellipse ry="4.78" rx="5.39" cy="18" cx="-41.186" id="path3048" transform="matrix(.46384 0 0 .52305 42.604 16.085)" fill="#f55"/><ellipse ry="4.78" rx="5.39" cy="18" cx="-41.186" transform="matrix(.46384 0 0 .52305 49.604 10.085)" id="path3050" fill="#f55"/><ellipse ry="4.78" rx="5.39" cy="18" cx="-41.186" id="path3052" transform="matrix(.46384 0 0 .52305 51.604 16.085)" fill="#faa"/><ellipse ry="4.78" rx="5.39" cy="18" cx="-41.186" transform="matrix(.46384 0 0 .52305 53.604 22.085)" id="path3054" fill="#f9f9f9"/><ellipse ry="4.78" rx="5.39" cy="18" cx="-41.186" transform="matrix(.46384 0 0 .52305 44.604 22.085)" id="path3056" fill="#faa"/><ellipse ry="4.78" rx="5.39" cy="18" cx="-41.186" id="path3058" transform="matrix(.46384 0 0 .52305 36.604 22.085)" fill="#d40000"/></g></svg>