<svg xmlns="http://www.w3.org/2000/svg" height="48" width="48"><linearGradient id="a" gradientTransform="matrix(0 .30689 -.31235 0 46.41 -63.13)" gradientUnits="userSpaceOnUse" x1="288.112" x2="287.575" y1="141.785" y2="79.008"><stop offset="0" stop-opacity=".047"/><stop offset="1" stop-opacity="0"/></linearGradient><linearGradient id="b" gradientTransform="rotate(-90 -9.803 53.39)" gradientUnits="userSpaceOnUse" x1="2.781" x2="45.641" y1="24.344" y2="24.344"><stop offset="0" stop-color="#e4e4e4"/><stop offset="1" stop-color="#eee"/></linearGradient><path d="M15.727 4.737v39.17" fill="#4d4d4d" stroke="#333" stroke-width="4.812"/><rect fill="#f1f1f1" fill-rule="evenodd" height="20.096" rx=".581" width="20.231" x="63.147" y="78.204"/><path d="M21.502 3.174h-1.715c-9.844 0-17.769 5.64-17.769 17.32v7.001c0 15.286 11.641 18.018 17.769 18.018h1.715c-6.127 0-17.768-2.732-17.768-18.018v-7c0-11.68 7.924-17.32 17.768-17.32z" fill="url(#a)"/><path d="M45.64 19.956v8.582c0 14.049-11.563 16.975-17.768 16.975H20.55c-6.127 0-17.768-2.732-17.768-18.018v-7c0-11.68 7.924-17.32 17.768-17.32h7.323c9.844 0 17.769 5.525 17.769 16.781z" fill="url(#b)"/><g transform="matrix(.71706 0 0 .68513 7.001 7.558)"><path d="M24 8.999c-1.024.005-2.007.11-3.014.31-7.421 1.443-13.454 6.206-11.672 13.963.877 3.816 3.01 6.267 3.829 8.703 2.17 6.454 1.938 9.769 6.1 11.201 1.673.572 3.025.847 4.757.823 1.732.024 3.084-.25 4.758-.823 4.161-1.432 3.93-4.747 6.1-11.2.818-2.437 2.95-4.888 3.828-8.704 1.782-7.757-4.25-12.52-11.672-13.963-1.007-.2-1.99-.305-3.014-.31z" opacity=".2"/><path d="M24 8c-1.024.006-2.007.11-3.014.31-7.421 1.443-12.655 6.206-10.872 13.963.877 3.817 2.21 6.268 3.029 8.704 2.17 6.454 1.938 9.768 6.1 11.2 1.673.573 3.025.847 4.757.823 1.732.024 3.084-.25 4.758-.822 4.161-1.433 3.93-4.747 6.1-11.201.818-2.436 1.651-4.887 2.528-8.704 1.783-7.757-2.95-12.52-10.372-13.962A15.673 15.673 0 0 0 24 8z" fill="#d7cec7"/><path d="M26.975 8.305a17.096 18.25 0 0 1 .039.006c6.957 1.352 12.695 5.622 11.916 12.543-.054.461-.134.932-.244 1.414-.009.036-.02.067-.028.103-.88 3.71-2.93 6.128-3.763 8.512C29.447 29.116 25 23.563 25 16.523c-.01-2.69.8-5.773 1.975-8.218zm-5.95 0a17.096 18.25 0 0 0-.039.006C14.03 9.663 8.291 13.933 9.07 20.854c.054.461.134.932.244 1.414.009.036.02.067.028.103.88 3.71 2.93 6.128 3.763 8.512C18.553 29.116 23 23.563 23 16.523c.01-2.69-.8-5.773-1.975-8.218z" fill="#de8c4a"/><path d="M24 8c-1.024.006-2.007.11-3.014.31-6.695 1.302-12.238 5.314-11.955 11.78.301-5.881 5.612-9.548 11.955-10.781A15.673 15.673 0 0 1 24 8.998c1.024.006 2.007.11 3.014.31 6.343 1.234 11.654 4.9 11.955 10.782.283-6.466-5.26-10.478-11.955-11.78-1.007-.2-1.99-.304-3.014-.31z" fill="#fff" opacity=".2"/><path d="M23.266 33c-.7 0-1.266.676-1.266 1.512C22 35.356 23.303 37 24 37s2-1.644 2-2.488c0-.836-.566-1.512-1.266-1.512H24z" fill="#3f3f3f"/><circle cx="16.5" cy="24.5" opacity=".2" r="2.5"/><circle cx="16.5" cy="23.5" fill="#3f3f3f" r="2.5"/><circle cx="16" cy="23" fill="#fff" r="1"/><path d="M26 41a2 2 0 1 1-3.882-.678c.278-.77.975-.341 1.841-.341s1.644-.431 1.922.339c.077.212.119.441.119.68z" fill="#d86f6f"/><path d="M19 38.5s1.338 1.691 2.5 2c.72.191 2.5-1 2.5-1s1.78 1.191 2.5 1c1.162-.309 2.5-2 2.5-2" fill="none" stroke="#79431b" stroke-linecap="round" stroke-linejoin="round"/><path d="M17.863 11.753s3.989-4.009 1.067-5.15c-3.272-1.278-12.017-.47-15.067 1.86-1.164.866-.893 1.617-.651 2.643.837 3.548 3.008 12.6 3.434 12.885.53.356 11.217-12.238 11.217-12.238z" opacity=".2"/><path d="M17.863 10.754s3.989-4.008 1.067-5.15c-3.272-1.277-12.017-.47-15.067 1.86-1.164.866-.893 1.617-.651 2.643.837 3.549 3.008 12.6 3.434 12.886.53.355 11.217-12.239 11.217-12.239z" fill="#86522b"/><path d="M30.137 11.753s-3.989-4.009-1.067-5.15c3.272-1.278 12.017-.47 15.067 1.86 1.164.866.893 1.617.651 2.643-.837 3.548-3.008 12.6-3.434 12.885-.53.356-11.217-12.238-11.217-12.238z" opacity=".2"/><path d="M30.137 10.754s-3.989-4.008-1.067-5.15c3.272-1.277 12.017-.47 15.067 1.86 1.164.866.893 1.617.651 2.643-.837 3.549-3.008 12.6-3.434 12.886-.53.355-11.217-12.239-11.217-12.239z" fill="#86522b"/><circle cx="31.5" cy="24.5" opacity=".2" r="2.5"/><circle cx="31.5" cy="23.5" fill="#3f3f3f" r="2.5"/><g fill="#fff"><circle cx="31" cy="23" r="1"/><path d="M13.53 5.018c-3.63.129-7.76.99-9.667 2.447-.91.677-.94 1.287-.795 2.01.1-.335.33-.664.795-1.01 3.05-2.33 11.794-3.138 15.067-1.86.563.22.866.548.994.932.192-.797.017-1.537-.994-1.932-1.227-.479-3.223-.665-5.4-.587zm20.94 0c-2.177-.078-4.173.108-5.4.587-1.01.395-1.186 1.135-.994 1.932.128-.384.43-.711.994-.932 3.273-1.278 12.017-.47 15.067 1.86.466.346.695.675.795 1.01.144-.723.115-1.333-.795-2.01C42.23 6.008 38.1 5.147 34.47 5.018z" opacity=".1"/></g></g></svg>