<svg xmlns="http://www.w3.org/2000/svg" xmlns:xlink="http://www.w3.org/1999/xlink" width="48" height="48" version="1.1" id="svg38"><defs id="defs22"><linearGradient id="linearGradient4488"><stop id="stop4490" offset="0" stop-color="#000" stop-opacity=".047"/><stop id="stop4492" offset="1" stop-color="#000" stop-opacity="0"/></linearGradient><style id="style4511"/><style id="style4511-26"/><style id="style4511-9"/><style id="style4552"/><style id="style4511-2"/><linearGradient gradientTransform="translate(-63.205 2.216) scale(.3038)" xlink:href="#linearGradient4488" id="linearGradient4160" x1="288.112" y1="141.785" x2="287.575" y2="79.008" gradientUnits="userSpaceOnUse"/></defs><style id="style4485" type="text/css"/><path d="M2.433 26.443v1.668c0 9.575 5.583 17.282 17.146 17.282h6.93c15.133 0 17.837-11.322 17.837-17.282v-1.668c0 5.96-2.704 17.282-17.837 17.282h-6.93c-11.563 0-17.146-7.708-17.146-17.282z" id="path4147" opacity="1" fill="url(#linearGradient4160)" fill-opacity="1" stroke="none" stroke-width="1.1" stroke-linecap="square" stroke-linejoin="bevel" stroke-miterlimit="4" stroke-dasharray="none" stroke-dashoffset="0" stroke-opacity=".078"/><path d="M19.046 2.965h8.495c13.908 0 16.805 11.246 16.805 17.282v7.123c0 5.96-2.704 17.282-17.837 17.282h-6.93c-11.562 0-17.146-7.708-17.146-17.282v-7.123c0-9.575 5.47-17.282 16.613-17.282z" id="rect4144" opacity="1" fill="#16f" fill-opacity="1" stroke="#000" stroke-width=".334" stroke-linecap="square" stroke-linejoin="bevel" stroke-miterlimit="4" stroke-dasharray="none" stroke-dashoffset="0" stroke-opacity=".078"/><path d="M21.41 11.693c-.727 0-1.021.02-1.37.07-.041.007-.079.006-.13.015-.022.004-.038.01-.06.013-.096.016-.152.018-.277.041-.118.022-.233.061-.35.087a10.11 10.11 0 0 0-2.608.978c-.083.045-.167.085-.249.132-.203.117-.4.244-.596.376-.121.08-.237.16-.352.245-.12.088-.248.165-.366.258-.046.037-.11.108-.16.15-.01.01-.024.018-.035.027-.034.03-.108.107-.152.149-.336.305-.659.633-.98.998-.054.06-.144.151-.182.197-.017.02-.031.046-.048.067-.064.076-.156.168-.209.238-.135.178-.252.38-.377.572-.035.054-.072.105-.106.16a10.3 10.3 0 0 0-.485.885c-.037.074-.075.146-.11.22-.138.3-.259.604-.37.915-.03.083-.061.164-.089.248-.112.342-.2.683-.275 1.027-.008.037-.022.072-.03.108l-.005.037c-.018.09-.048.182-.063.272-.097.572-.112.865-.1 1.864l.01.918.084.515c.023.14.026.184.04.288.019.132.041.282.036.309a.1.1 0 0 1-.022.054c-.023.026-.142.12-.266.217-.494.368-.738.573-1.006.86-.07.077-.13.165-.197.246a5.663 5.663 0 0 0-.558.812c-.002.006-.006.01-.009.015a5.91 5.91 0 0 0-.674 1.837c-.052.288-.054.342-.054 1.483 0 .827.009 1.26.03 1.437.006.055.025.109.033.163.001.006 0 .036.002.041.017.105.048.207.072.31.063.277.148.549.255.817.025.061.046.123.073.184a5.76 5.76 0 0 0 .369.691c.09.147.181.292.285.431l.022.034c.022.03.067.072.093.104.122.153.236.312.374.454.157.161.331.304.507.446a5.662 5.662 0 0 0 .593.412c.14.087.282.17.43.244.322.161.657.288 1.001.385.053.015.103.034.156.048l.328.085.375.006c.357.016 1.043.025 3.511.033 2.45.01 4.133-.009 7.197-.013 3.8-.004 8.785.002 8.924-.014.069-.008.14-.03.208-.041.138-.016.244-.041.333-.067.216-.052.429-.121.643-.203l.02-.005.008-.004c.188-.073.37-.156.55-.25a5.565 5.565 0 0 0 1.034-.665c.282-.236.693-.667.905-.948.11-.145.203-.297.297-.45.348-.564.59-1.181.73-1.853l.012-.042.063-.287.006-.693c.006-.212.02-.2.02-.756v-1.264l-.063-.315a5.921 5.921 0 0 0-1.117-2.48 8.042 8.042 0 0 0-.894-.921 11.792 11.792 0 0 0-.5-.366 5.245 5.245 0 0 1-.331-.242c-.013-.017.07-.198.15-.372.03-.059.026-.06.06-.128.358-.702.521-1.16.645-1.803.087-.45.115-.84.1-1.407a5.673 5.673 0 0 0-.487-2.247c-.713-1.67-2.21-3.02-3.922-3.537-.6-.182-1.015-.246-1.704-.262a5.852 5.852 0 0 0-1.338.089l-.251.043c-.019 0-.166-.114-.296-.21l-.266-.212c-.254-.205-.513-.378-.771-.554-.03-.02-.068-.053-.1-.075l-.023-.013a10.546 10.546 0 0 0-.589-.358 9.944 9.944 0 0 0-1-.504c-.134-.058-.272-.107-.409-.158a9.744 9.744 0 0 0-1.457-.428c-.023-.004-.044-.012-.067-.016l-.007-.002c-.082-.017-.16-.043-.242-.058-.769-.134-.811-.137-1.83-.137zm0 .85c.676 0 .886.01 1.127.04l.116.015a9.504 9.504 0 0 1 2.245.587l.043.017a9.06 9.06 0 0 1 1.035.493l.037.022c.334.188.655.397.961.626.308.231.599.475.987.827.076.07.086.062.13.095l.06.043c.021.012.079.068.087.065.087-.027.396-.093.634-.143.114-.022.227-.039.335-.052.175-.02.41-.037.684-.037h.016c.212 0 .368.015.54.028.124.01.258.016.371.033.214.038.422.088.626.149.048.014.092.022.142.039.251.081.494.18.728.295l.043.023c.217.11.424.236.625.375l.085.058c.214.154.42.322.614.509l.001.002.004.004c.203.197.386.405.552.622.009.011.016.023.024.034.167.222.316.454.445.699l.002.001.001.004c.13.249.24.509.331.78.088.262.156.537.208.82.007.044.01.09.015.134.028.197.048.458.05.744v.039c.002.213-.014.379-.027.554-.01.13-.02.264-.04.386-.038.21-.089.417-.15.621-.016.053-.028.105-.046.16a5.628 5.628 0 0 1-.266.653c-.021.043-.039.092-.062.135-.037.074-.085.15-.128.223a8.518 8.518 0 0 1-.28.433c-.07.1-.122.18-.216.309a3.713 3.713 0 0 0-.245.359c0 .013.101.07.224.124a11.525 11.525 0 0 1 .67.325c.14.076.272.149.39.225l.015.01.015.01c.111.075.213.155.314.237.163.138.389.36.569.554.099.11.199.22.286.336l.033.045a4.6 4.6 0 0 1 .314.492c.01.016.02.03.028.047.198.367.347.766.454 1.204.02.082.027.17.04.248.02.11.043.214.053.358l.002.006c.015.242.019.544.018 1.061 0 .594-.009.92-.033 1.201-.02.217-.045.39-.091.569-.053.204-.12.394-.19.582-.02.05-.037.102-.058.152a4.668 4.668 0 0 1-.232.483c-.017.031-.032.063-.05.093a4.603 4.603 0 0 1-.32.478l-.042.06a5.007 5.007 0 0 1-.42.466l-.027.028-.01.011a4.993 4.993 0 0 1-.48.41h-.002a4.048 4.048 0 0 1-.42.27c-.08.047-.166.09-.253.134a4.762 4.762 0 0 1-.368.167c-.083.033-.17.06-.255.09-.162.055-.324.111-.507.16l-.227.059c-.106.027-1.632.03-9.02.026-1.86-.001-2.347-.005-3.876-.007-2.438-.004-5.456-.007-5.888-.012l-.943-.009-.17-.002h-.005l-.249-.076a6.933 6.933 0 0 1-.622-.217l-.026-.01a5.105 5.105 0 0 1-.491-.232l-.084-.045a4.482 4.482 0 0 1-.42-.271l-.085-.063a4.77 4.77 0 0 1-.324-.274c-.058-.053-.118-.106-.176-.165a4.968 4.968 0 0 1-.325-.355 4.633 4.633 0 0 1-.268-.359l-.019-.026a4.737 4.737 0 0 1-.284-.494 5.091 5.091 0 0 1-.17-.376l-.042-.11c-.12-.315-.2-.58-.246-.895-.011-.08-.016-.182-.024-.272a12.727 12.727 0 0 1-.037-1.08c0-.566.012-.945.041-1.252a4 4 0 0 1 .026-.227c.015-.102.029-.205.05-.298a4.451 4.451 0 0 1 .279-.825c.017-.04.03-.08.048-.119.044-.095.097-.184.147-.275.036-.066.07-.135.108-.199a4.67 4.67 0 0 1 .29-.424c.051-.066.11-.127.165-.191a6.71 6.71 0 0 1 .452-.448c.103-.093.202-.194.314-.277.05-.037.128-.08.184-.119.18-.122.36-.241.597-.37.152-.082.275-.158.273-.169l-.11-.49c-.115-.52-.171-.776-.2-1.043-.003-.024-.002-.07-.004-.093a11.562 11.562 0 0 1-.028-1.038c0-.524.002-.801.017-1.031.011-.147.04-.292.061-.431.017-.105.022-.188.05-.331a9.435 9.435 0 0 1 .697-2.158l.019-.036c.151-.322.32-.637.51-.942.023-.038.051-.074.075-.112.161-.252.334-.498.52-.737.19-.24.42-.502.676-.763l.026-.027c.075-.077.124-.116.197-.188a9.55 9.55 0 0 1 .647-.574c.182-.145.37-.279.559-.408.13-.087.259-.176.39-.256.206-.125.419-.238.632-.346.14-.07.277-.144.42-.208.23-.102.467-.188.705-.271.134-.047.266-.097.403-.138a9.95 9.95 0 0 1 .855-.212c.104-.022.206-.048.313-.067.182-.032.333-.053.477-.067.107-.009.259-.014.418-.02.173-.005.313-.013.612-.013zm-3.633 2.096a1.51 1.51 0 0 0-1.38.87c-.22.451-.215.9.016 1.368.21.424.63.748 1.089.838.114.022.589-.008.714-.045a1.585 1.585 0 0 0 1.046-1.033c.058-.173.062-.203.052-.506-.008-.28-.019-.344-.072-.481a1.6 1.6 0 0 0-.786-.853 1.315 1.315 0 0 0-.679-.158zm5.608 2.998c-1.08 0-2.036.196-2.995.617a7.49 7.49 0 0 0-4.442 6.074c-.052.482-.036 1.415.032 1.854a7.498 7.498 0 0 0 6.56 6.368c.374.044 1.29.044 1.678 0a7.463 7.463 0 0 0 5.15-2.943c1.005-1.342 1.496-2.816 1.497-4.49 0-.76-.088-1.403-.287-2.092a7.513 7.513 0 0 0-5.096-5.1 7.244 7.244 0 0 0-2.097-.288zm.004 1.282c.495 0 .782.029 1.243.121a6.204 6.204 0 0 1 4.874 5.062 6.172 6.172 0 0 1-1.734 5.392 5.924 5.924 0 0 1-1.588 1.149c-.755.381-1.5.59-2.346.654a6.17 6.17 0 0 1-4.83-1.803 5.543 5.543 0 0 1-.781-.956 6.192 6.192 0 0 1 .78-7.81 6.206 6.206 0 0 1 3.134-1.688 5.48 5.48 0 0 1 1.248-.12zm-.08 2.63a3.586 3.586 0 0 0-.65.064 3.598 3.598 0 0 0-2.769 2.767c-.074.333-.085.958-.024 1.318.088.512.29 1.008.588 1.448.183.27.63.718.901.902a3.767 3.767 0 0 0 1.586.611c.158.02.78.016.946-.007.436-.06.944-.239 1.312-.46a3.621 3.621 0 0 0 1.69-2.347c.047-.21.054-.3.054-.734s-.007-.523-.054-.732a3.492 3.492 0 0 0-.98-1.787 3.486 3.486 0 0 0-1.933-1.003 3.83 3.83 0 0 0-.667-.04z" id="path22001" opacity="1" fill="#fff" fill-opacity="1" stroke="none" stroke-width=".019" stroke-miterlimit="4" stroke-dasharray="none" stroke-opacity="1"/></svg>