<svg xmlns:osb="http://www.openswatchbook.org/uri/2009/osb" xmlns="http://www.w3.org/2000/svg" xmlns:xlink="http://www.w3.org/1999/xlink" width="48" height="48" version="1.1" id="svg38"><defs id="defs22"><style id="style4511"/><style id="style4511-26"/><style id="style4511-9"/><style id="style4552"/><style id="style4511-2"/><linearGradient osb:paint="solid" id="linearGradient5293"><stop id="stop5295" offset="0" stop-color="#9a89c0" stop-opacity="1"/></linearGradient><style id="style4511-879202375"/><style id="style4511-26-30"/><style id="style4511-9-76"/><style id="style4552-5"/><style id="style4511-2-6"/><style id="style4511-87920237"/><style id="style4511-26-443"/><style id="style4511-9-5"/><style id="style4552-09"/><style id="style4511-2-0"/><linearGradient osb:paint="solid" id="linearGradient4390"><stop id="stop4388" offset="0" stop-color="#000" stop-opacity="1"/></linearGradient><linearGradient osb:paint="solid" id="linearGradient4300"><stop id="stop4298" offset="0" stop-color="#9f007b" stop-opacity="1"/></linearGradient><style id="style4511-879202"/><style id="style4511-26-47"/><style id="style4511-9-17"/><style id="style4552-4"/><style id="style4511-2-4"/><style id="style4511-879"/><style id="style4511-26-65"/><style id="style4511-9-2"/><style id="style4552-89"/><style id="style4511-2-1"/><style id="style4511-8"/><style id="style4511-26-4"/><style id="style4511-9-7"/><style id="style4552-3"/><style id="style4511-2-8"/><style id="style4552-7"/><style id="style4552-6"/><style id="style4552-73"/><style id="style4552-2"/><linearGradient osb:paint="solid" id="linearGradient5251"><stop id="stop5253" offset="0" stop-color="#2f343f" stop-opacity="1"/></linearGradient><style id="style4511-87"/><style id="style4511-26-6"/><style id="style4511-9-1"/><style id="style4552-8"/><style id="style4511-2-5"/><style id="style4511-8792"/><style id="style4511-26-3"/><style id="style4511-9-0"/><style id="style4552-86"/><style id="style4511-2-84"/><style id="style4511-8-6"/><style id="style4511-26-4-3"/><style id="style4511-9-7-8"/><style id="style4552-3-7"/><style id="style4511-2-8-9"/><style id="style4552-7-5"/><style id="style4552-6-87"/><style id="style4552-73-3"/><style id="style4552-2-1"/><style id="style4511-87-0"/><style id="style4511-26-6-5"/><style id="style4511-9-1-3"/><style id="style4552-8-8"/><style id="style4511-2-5-3"/><style id="style4511-879-4"/><style id="style4511-26-65-7"/><style id="style4511-9-2-0"/><style id="style4552-89-8"/><style id="style4511-2-1-9"/><style id="style4511-8-0"/><style id="style4511-26-4-0"/><style id="style4511-9-7-9"/><style id="style4552-3-4"/><style id="style4511-2-8-7"/><style id="style4552-7-4"/><style id="style4552-6-8"/><style id="style4552-73-7"/><style id="style4552-2-2"/><style id="style4511-87-2"/><style id="style4511-26-6-4"/><style id="style4511-9-1-7"/><style id="style4552-8-9"/><style id="style4511-2-5-0"/><style id="style4511-87920"/><style id="style4511-26-45"/><style id="style4511-9-9"/><style id="style4552-0"/><style id="style4511-2-9"/><style id="style4511-8792023"/><style id="style4511-26-44"/><style id="style4511-9-71"/><style id="style4552-43"/><style id="style4511-2-96"/><linearGradient gradientTransform="matrix(3.7298 0 0 3.40157 -1.263 0)" y2="10.518" x2="6.769" y1="3.487" x1="6.778" gradientUnits="userSpaceOnUse" id="linear0-9"><stop id="stop5503" stop-opacity="1" stop-color="#e24571"/><stop id="stop5505" stop-opacity="1" stop-color="#7f263e" offset="1"/></linearGradient><linearGradient xlink:href="#linear0-9" id="linearGradient5635" x1="2.781" y1="24.344" x2="45.641" y2="24.344" gradientUnits="userSpaceOnUse" gradientTransform="rotate(90 24.21 24.344)"/><clipPath id="clipPath-290359964"/></defs><style id="style4485" type="text/css"/><path d="M15.727 4.737v39.17" id="path5493" fill="#4d4d4d" fill-opacity="1" stroke="#333" stroke-width="4.812" stroke-linecap="butt" stroke-linejoin="miter" stroke-miterlimit="4" stroke-dasharray="none" stroke-opacity="1"/><style type="text/css" id="style4485-333"/><style id="style4485-8" type="text/css"/><style type="text/css" id="style4485-039"/><style id="style4485-34" type="text/css"/><style type="text/css" id="style4485-0"/><style id="style4485-4" type="text/css"/><style id="style4485-5" type="text/css"/><style id="style4485-3" type="text/css"/><style id="style4485-5-1" type="text/css"/><style type="text/css" id="style4485-1"/><style id="style4485-33" type="text/css"/><style type="text/css" id="style4485-0-7"/><style id="style4485-4-9" type="text/css"/><style id="style4485-5-4" type="text/css"/><style id="style4485-3-9" type="text/css"/><style id="style4485-5-1-9" type="text/css"/><style type="text/css" id="style4485-1-5"/><style type="text/css" id="style4485-51"/><style id="style4485-0-9" type="text/css"/><style type="text/css" id="style4485-4-7"/><style type="text/css" id="style4485-5-13"/><style type="text/css" id="style4485-3-1"/><style type="text/css" id="style4485-5-1-2"/><style id="style4485-1-6" type="text/css"/><style id="style4485-03" type="text/css"/><style type="text/css" id="style4485-6"/><path id="path4518" d="M28.598 45.773h-8.581c-14.05 0-16.975-11.563-16.975-17.768v-7.323c0-6.127 2.731-17.768 18.017-17.768h7c11.68 0 17.32 7.924 17.32 17.768v7.323c0 9.844-5.525 17.768-16.781 17.768z" opacity="1" fill="url(#linearGradient5635)" fill-opacity="1" stroke="none" stroke-width=".341" stroke-linecap="square" stroke-linejoin="bevel" stroke-miterlimit="4" stroke-dasharray="none" stroke-dashoffset="0" stroke-opacity="1"/><path id="path5567" d="M22.68 38.277c-1.84-.21-3.66-.72-4.904-1.376-2.008-1.06-4.015-2.93-4.563-4.276-.342-.821-.306-1.578.092-2.386.33-.657.934-1.369 2.463-2.9.877-.879 1.04-1.11 1.04-1.49 0-.324-.171-.618-.697-1.237-.474-.551-1.017-1.333-1.285-1.856-.439-.85-.828-2.302-.916-3.388-.074-.947.237-2.681.671-3.747.688-1.691 2.14-3.19 4.02-4.128.846-.426 2.359-.863 3.665-1.053 2.366-.345 5.622.181 7.99 1.3 1.727.813 3.77 2.324 4.397 3.254.39.59.474.855.469 1.557 0 .678-.11 1.06-.469 1.667-.136.236-.986 1.364-1.757 2.344-.303.387-.522.826-.522 1.06 0 .345.18.691.727 1.365 1.048 1.304 1.451 1.973 1.806 3.022.618 1.81.696 3.514.258 5.298-.408 1.625-.987 2.669-2.122 3.818-1.622 1.645-3.573 2.558-6.514 3.055-1.088.181-2.766.232-3.827.11m-.022-.013" fill="#abde59" fill-opacity="1" fill-rule="nonzero" stroke="none" stroke-width="1.1"/><path id="path5569" d="M22.716 38.327c-2.231-.316-3.893-.796-5.133-1.482-1.982-1.095-3.932-2.95-4.466-4.255-.115-.273-.136-.437-.136-1.013 0-.649.014-.716.18-1.1.294-.655 1.188-1.725 2.748-3.27.731-.732.885-.96.876-1.333-.009-.35-.214-.72-.75-1.338-1.043-1.204-1.625-2.358-1.989-3.914-.189-.817-.184-2.526.004-3.384.426-1.92 1.123-3.144 2.46-4.342 1.564-1.393 2.95-2.008 5.5-2.437.973-.164 2.7-.173 3.695-.025 2.214.333 4.024.925 5.541 1.81 1.474.858 2.946 2.033 3.389 2.702.526.786.64 1.599.342 2.457-.206.603-.381.872-1.442 2.257-1.074 1.397-1.179 1.57-1.175 1.998 0 .417.127.649.79 1.448 1.24 1.503 1.648 2.311 2.055 4.07.517 2.264.048 5.042-1.14 6.708-1.2 1.68-2.805 2.917-4.69 3.612-.562.206-1.745.505-2.684.682-.736.143-.964.156-2.315.168-.823.009-1.577.004-1.67-.013m2.784-2.428c2.858-.303 5.207-1.51 6.434-3.312a6.25 6.001 0 0 0 .894-1.954c.202-.744.255-2.23.106-3.119-.246-1.44-.904-2.718-1.964-3.817-1.065-1.099-2.139-1.826-4.73-3.194-1.81-.952-2.494-1.457-2.67-1.987-.096-.282-.043-.791.102-.98.285-.38.85-.526 1.56-.413 1.325.214 3.034 1.01 4.534 2.117.29.21.57.404.632.421.241.084.377-.068 1.354-1.54 1.2-1.815 1.184-1.718.522-2.336-1.968-1.861-4.252-2.955-6.873-3.279-1.044-.126-2.744-.088-3.608.084-1.938.391-3.476 1.276-4.475 2.58-.548.707-.89 1.478-1.104 2.467-.118.598-.145 1.973-.023 2.495.408 1.843 1.377 3.264 3.196 4.684.772.603 1.368.985 3.086 2.008 2.06 1.22 2.688 1.708 2.98 2.318.115.248.14.37.123.67-.03.471-.211.728-.632.93-.28.13-.381.147-.912.142-.973-.008-1.842-.236-3.029-.795a9.987 9.589 0 0 1-2.332-1.503c-.688-.593-.75-.627-.951-.483-.154.11-1.263 1.43-2.09 2.495-.54.695-.562.816-.19 1.296.369.48 1.417 1.515 1.982 1.949a8.502 8.502 0 0 0 1.71 1.064c1.16.568 2.126.817 3.953 1.023.416.046 1.897.029 2.42-.022m-.005-.021" fill="#030303" fill-opacity="1" fill-rule="nonzero" stroke="none" stroke-width="1.1"/></svg>