<svg xmlns:osb="http://www.openswatchbook.org/uri/2009/osb" xmlns="http://www.w3.org/2000/svg" xmlns:xlink="http://www.w3.org/1999/xlink" width="48" height="48" version="1.1" id="svg38"><defs id="defs22"><linearGradient id="linearGradient4488"><stop id="stop4490" offset="0" stop-color="#000" stop-opacity=".047"/><stop id="stop4492" offset="1" stop-color="#000" stop-opacity="0"/></linearGradient><style id="style4511"/><style id="style4511-26"/><style id="style4511-9"/><linearGradient gradientUnits="userSpaceOnUse" x2="19.574" y2="22.495" x1="3.783" y1="23.644" id="g-5"><stop id="stop24-2" stop-color="#2980b9"/><stop id="stop26" stop-color="#34495e" offset="1"/></linearGradient><style id="style4552"/><style id="style4511-2"/><linearGradient xlink:href="#linearGradient4488" id="linearGradient4540" gradientUnits="userSpaceOnUse" gradientTransform="translate(-62.889 1.994) scale(.3038)" x1="288.112" y1="141.785" x2="287.575" y2="79.008"/><linearGradient osb:paint="solid" id="linearGradient5293"><stop id="stop5295" offset="0" stop-color="#9a89c0" stop-opacity="1"/></linearGradient><linearGradient xlink:href="#g-5" id="linearGradient1992" x1="2.897" y1="23.778" x2="44.92" y2="23.778" gradientUnits="userSpaceOnUse"/></defs><style id="style4485" type="text/css"/><g id="g2004"><path d="M2.75 26.22v1.67c0 9.573 5.583 17.281 17.146 17.281h6.93c15.132 0 17.836-11.322 17.836-17.282v-1.668c0 5.96-2.704 17.282-17.836 17.282h-6.93C8.333 43.503 2.75 35.795 2.75 26.22z" id="path4516" opacity="1" fill="url(#linearGradient4540)" fill-opacity="1" stroke="none" stroke-width="1.1" stroke-linecap="square" stroke-linejoin="bevel" stroke-miterlimit="4" stroke-dasharray="none" stroke-dashoffset="0" stroke-opacity=".078"/><path d="M3.065 28.165v-8.58c0-14.045 11.247-16.97 17.282-16.97h7.123c5.96 0 17.282 2.73 17.282 18.013v6.999c0 11.677-7.707 17.316-17.282 17.316h-7.123c-9.574 0-17.282-5.525-17.282-16.778z" id="path4518" opacity="1" fill="url(#linearGradient1992)" fill-opacity="1" stroke="#000" stroke-width=".336" stroke-linecap="square" stroke-linejoin="bevel" stroke-miterlimit="4" stroke-dasharray="none" stroke-dashoffset="0" stroke-opacity=".078"/><g id="g1984"><path d="M3.078 22.888v4.41c1.11-.1 2.674-.015 4.978.553 6.337 1.563 15.3.684 20.392-.935 5.091-1.619 10.265-2.247 13.244-2.414 1.17-.066 2.19.275 3.037.702V21.32c-3.472.975-9.71 2.747-14.69 2.974-9.269-.49-16.272-6.475-26.961-1.406z" id="path1137" fill="#7767c0" stroke-width=".807"/><path d="M30.172 25.978a10.502 10.502 0 0 0-3.544.141c1.077.025 2.284-.038 3.544-.141z" id="path1788" fill="#595afd" stroke-width=".807"/><path d="M44.694 29.455c.007-.507.035-.92.035-1.466v-4.077c-4.719.703-10.052 1.697-14.557 2.066 3.075.378 5.717 1.874 7.661 2.357 3.335.829 5.466 1.108 6.861 1.12z" id="path1784" fill="#595afd" stroke-width=".807"/><path d="M3.078 23.267v4.458c1.23.118 3.005.485 5.615 1.128 6.186 1.526 12.058-.914 17.027-2.494.305-.097.608-.175.908-.24h-.016c-8.15-2.089-11.68-2.533-23.534-2.852z" id="path1139" fill="#595afd" stroke-width=".807"/><path d="M5.297 22.012v3.904c.76-.386 1.656-.683 2.676-.623 2.815.168 10.236 6.003 15.048 7.622 4.812 1.619 10.753-3.82 16.742-5.384 2.19-.571 3.779-.5 4.9-.202v-3.665a7.16 7.16 0 0 0-1.878.384c-2.15.781-9.112 2.657-14.335 2.5-6.701-.475-11.939-6.218-18.448-6.173h-.003c-1.48.01-3.057.796-4.702 1.637z" id="path1141" opacity=".2" stroke-width=".785"/><path d="M3.078 21.192v3.904c.805-.387 1.752-.684 2.831-.623 2.98.168 10.83 6.002 15.922 7.621 5.09 1.619 11.377-3.82 17.714-5.383 2.318-.571 3.998-.5 5.184-.203v-3.665a7.961 7.961 0 0 0-1.987.384c-2.275.782-9.64 2.658-15.167 2.501-7.09-.476-12.631-6.218-19.519-6.174h-.003c-1.565.01-3.234.796-4.975 1.638z" id="path1143" fill="#8a72ff" stroke-width=".807"/></g><path id="path1147" d="M31.687 8.568c-1.599-.082-3.164.862-4.096 2.184l-.001.002c-1.111 1.598-1.697 3.81-2.183 5.641v.002c-.671 2.564-1.806 4.99-3.233 7.206-2.96 4.572-6.806 8.55-11.806 10.56a.263.263 0 0 0-.086.056l-.201.193c-.19.184-.043.511.216.481 3.506-.424 5.762-3.114 8.349-5.25 2.079-.21 4.469-.344 6.479-.897 0 0 .002 0 .003-.002 2.824-.818 5.888-2.109 7.816-4.562 1.922-2.429 2.244-5.808 1.542-8.736-.238-1.17-1.218-2.369-2.458-2.622-.034-.12-.066-.24-.099-.362.27-.303 1.139-.63 1.405-1.028.297-.442.505-1.323.353-1.929a.286.286 0 0 0-.04-.09c-.327-.486-1.421-.846-1.96-.847z" fill="#50c9ee" fill-opacity="1" stroke-width=".546"/></g></svg>