<svg xmlns="http://www.w3.org/2000/svg" xmlns:xlink="http://www.w3.org/1999/xlink" width="48" height="48" version="1.1" id="svg38"><defs id="defs22"><linearGradient id="linearGradient4488"><stop id="stop4490" offset="0" stop-color="#000" stop-opacity=".047"/><stop id="stop4492" offset="1" stop-color="#000" stop-opacity="0"/></linearGradient><style id="style4511"/><style id="style4511-26"/><style id="style4511-9"/><style id="style4552"/><linearGradient id="e-1" y1="41.22" x1="24.392" y2="25.343" x2="20.643" gradientUnits="userSpaceOnUse"><stop stop-color="#334545" id="stop22-8"/><stop offset="1" stop-color="#536161" id="stop24-7"/></linearGradient><style id="style4511-2"/><linearGradient gradientTransform="matrix(.3082 0 0 .3038 -64.056 2.216)" xlink:href="#linearGradient4488" id="linearGradient4160" x1="288.112" y1="141.785" x2="287.575" y2="79.008" gradientUnits="userSpaceOnUse"/><linearGradient xlink:href="#e-1" id="linearGradient1413" x1="2.367" y1="23.808" x2="45.224" y2="23.808" gradientUnits="userSpaceOnUse"/></defs><style id="style4485" type="text/css"/><path d="M2.535 26.443v1.668c0 9.575 5.664 17.282 17.394 17.282h7.031c15.352 0 18.095-11.322 18.095-17.282v-1.668c0 5.96-2.743 17.282-18.095 17.282h-7.03c-11.73 0-17.395-7.708-17.395-17.282z" id="path4147" opacity="1" fill="url(#linearGradient4160)" fill-opacity="1" stroke="none" stroke-width="1.108" stroke-linecap="square" stroke-linejoin="bevel" stroke-miterlimit="4" stroke-dasharray="none" stroke-dashoffset="0" stroke-opacity=".078"/><path d="M19.389 2.965h8.618c14.11 0 17.048 11.246 17.048 17.282v7.123c0 5.96-2.743 17.282-18.095 17.282h-7.03c-11.73 0-17.395-7.708-17.395-17.282v-7.123c0-9.575 5.55-17.282 16.854-17.282z" id="rect4144" opacity="1" fill="url(#linearGradient1413)" fill-opacity="1" stroke="#000" stroke-width=".337" stroke-linecap="square" stroke-linejoin="bevel" stroke-miterlimit="4" stroke-dasharray="none" stroke-dashoffset="0" stroke-opacity=".078"/><g id="g1385" transform="matrix(.0935 0 0 .09145 -.277 .44)"><g id="g1218"><g id="g1194" opacity=".4"><radialGradient gradientUnits="userSpaceOnUse" gradientTransform="matrix(2 0 0 -2 254.5 1284.5)" r="118.861" cy="514.25" cx=".762" id="SVGID_1_"><stop id="stop1185" offset="0" stop-color="#010101"/><stop id="stop1187" offset=".859" stop-color="#010101" stop-opacity=".141"/><stop id="stop1189" offset="1" stop-color="#010101" stop-opacity="0"/></radialGradient><path id="path1192" d="M449 449c-59.7 59.7-326.2 59.7-385.9 0C3.4 389.3 3.4 122.7 63 63c59.6-59.7 326.3-59.6 386 0 59.7 59.6 59.6 326.3 0 386z" fill="url(#SVGID_1_)"/></g><g id="g1205" opacity=".4"><radialGradient gradientUnits="userSpaceOnUse" gradientTransform="matrix(1.4138 -1.4146 -.979 -.9784 758.105 762.05)" r="133.155" cy="515.058" cx="1.528" id="SVGID_2_"><stop id="stop1196" offset="0" stop-color="#010101"/><stop id="stop1198" offset=".859" stop-color="#010101" stop-opacity=".141"/><stop id="stop1200" offset="1" stop-color="#010101" stop-opacity="0"/></radialGradient><path id="path1203" d="M449 449c-59.7 59.7-326.2 59.7-385.9 0C3.4 389.3 3.4 122.7 63 63c59.6-59.7 326.3-59.6 386 0 59.7 59.6 59.6 326.3 0 386z" fill="url(#SVGID_2_)"/></g><g id="g1216" opacity=".4"><radialGradient gradientUnits="userSpaceOnUse" gradientTransform="matrix(-1.4138 -1.4146 .979 -.9784 -243.105 762.05)" r="133.178" cy="513.473" cx="2.589" id="SVGID_3_"><stop id="stop1207" offset="0" stop-color="#010101"/><stop id="stop1209" offset=".859" stop-color="#010101" stop-opacity=".141"/><stop id="stop1211" offset="1" stop-color="#010101" stop-opacity="0"/></radialGradient><path id="path1214" d="M63 449c59.7 59.7 326.2 59.7 385.9 0 59.7-59.7 59.7-326.2 0-385.9C389.2 3.4 122.7 3.4 63 63 3.3 122.6 3.4 389.3 63 449z" fill="url(#SVGID_3_)"/></g></g><path id="path1227" d="M433.3 433.3c-70.3 70.3-284.3 70.3-354.6 0C8.4 363 8.4 149 78.7 78.7 149 8.4 363 8.4 433.3 78.7c70.3 70.3 70.3 284.3 0 354.6z" fill="url(#SVGID_4_)"/><g id="g1313"><path id="path1229" d="M336.4 402.2c8.8 8.8 20.5 13.6 32.9 13.6 12.4 0 24.1-4.8 32.9-13.6 8.8-8.8 13.6-20.5 13.6-32.9 0-12.4-4.8-24.1-13.6-32.9-8.8-8.8-20.5-13.6-32.9-13.6-12.4 0-24.1 4.8-32.9 13.6-8.8 8.8-13.6 20.5-13.6 32.9 0 12.4 4.8 24.1 13.6 32.9z" fill="none"/><path id="path1231" d="M167.3 319.2c-3.8-5.3-7.1-11-9.9-16.9-1.9 6-3.5 12.2-4.9 18.3 5-.2 9.9-.7 14.8-1.4z" fill="none"/><path id="path1233" d="M206.6 78.8c-17.1-17.1-39.8-26.5-63.9-26.5s-46.9 9.4-63.9 26.5c-35.2 35.2-35.2 92.6 0 127.9 17.1 17.1 39.8 26.5 63.9 26.5 2.3 0 4.6-.1 6.9-.3 3.4-15.6 10.1-30 19.5-42.4-8 4.4-17 6.8-26.3 6.8-14.6 0-28.2-5.7-38.5-16-21.3-21.3-21.3-55.8 0-77.1 10.3-10.3 24-16 38.5-16s28.2 5.7 38.5 16c17.5 17.5 20.6 44.2 9.2 64.9 12.3-9.3 26.7-16.1 42.4-19.5 1.8-25.4-6.9-51.4-26.3-70.8z" fill="none"/><path id="path1235" d="M209.7 354.6c-6-2.8-11.6-6.1-16.9-9.9-.7 4.9-1.1 9.9-1.4 14.8 6.1-1.4 12.3-3 18.3-4.9z" fill="none"/><path id="path1237" d="M364.8 147.2c-12.2.2-24.2 1.5-36 3.6-.3 7.5-1.1 14.8-2.3 22.1 4.5 3.8 8.7 8 12.5 12.5 7.3-1.2 14.7-2 22.1-2.3 2.2-11.6 3.4-23.7 3.7-35.9z" fill="none"/><path id="path1239" d="M302.3 157.4c6 2.8 11.6 6.1 16.9 9.9.7-4.9 1.1-9.9 1.4-14.8-6.1 1.4-12.3 3-18.3 4.9z" fill="none"/><path id="path1241" d="M175.6 109.8c-8.8-8.8-20.5-13.6-32.9-13.6-12.4 0-24.1 4.8-32.9 13.6-18.1 18.1-18.1 47.6 0 65.8 8.8 8.8 20.5 13.6 32.9 13.6 12.4 0 24.1-4.8 32.9-13.6 18.1-18.1 18.1-47.6 0-65.8z" fill="none"/><path id="path1243" d="M344.7 192.8c3.8 5.3 7.1 11 9.9 16.9 1.9-6 3.5-12.2 4.9-18.3-5 .2-9.9.7-14.8 1.4z" fill="none"/><path id="path1245" d="M147.2 364.8c12.2-.2 24.2-1.5 36-3.6.3-7.5 1.1-14.8 2.3-22.1-4.5-3.8-8.7-8-12.5-12.5-7.3 1.2-14.7 2-22.1 2.3-2.2 11.6-3.4 23.7-3.7 35.9z" fill="none"/><path id="path1247" d="M305.4 433.2c17.1 17.1 39.8 26.5 63.9 26.5s46.9-9.4 63.9-26.5c35.2-35.2 35.2-92.6 0-127.9-17.1-17.1-39.8-26.5-63.9-26.5-2.3 0-4.6.1-6.9.3-3.4 15.6-10.1 30-19.5 42.4 8-4.4 17-6.8 26.3-6.8 14.6 0 28.2 5.7 38.5 16s16 24 16 38.5c0 14.6-5.7 28.2-16 38.5s-24 16-38.5 16c-14.6 0-28.2-5.7-38.5-16s-16-24-16-38.5c0-9.4 2.4-18.4 6.8-26.3-12.3 9.3-26.7 16.1-42.3 19.4-1.9 25.5 6.8 51.5 26.2 70.9z" fill="none"/><path id="path1249" d="M190.4 169.1c11.4-20.7 8.4-47.3-9.2-64.9-10.3-10.3-24-16-38.5-16s-28.2 5.7-38.5 16c-21.3 21.3-21.3 55.8 0 77.1 10.3 10.3 24 16 38.5 16 9.4 0 18.4-2.4 26.3-6.8 6.1-8.1 13.3-15.3 21.4-21.4zm-47.7 20.1c-12.4 0-24.1-4.8-32.9-13.6-18.1-18.1-18.1-47.6 0-65.8 8.8-8.8 20.5-13.6 32.9-13.6 12.4 0 24.1 4.8 32.9 13.6 18.1 18.1 18.1 47.6 0 65.8-8.8 8.8-20.5 13.6-32.9 13.6z" fill="#fff"/><path id="path1251" d="M321.5 343c-4.4 8-6.8 17-6.8 26.3 0 14.6 5.7 28.2 16 38.5s24 16 38.5 16c14.6 0 28.2-5.7 38.5-16s16-24 16-38.5c0-14.6-5.7-28.2-16-38.5s-24-16-38.5-16c-9.4 0-18.4 2.4-26.3 6.8-6 8-13.3 15.3-21.4 21.4zm47.8-20.2c12.4 0 24.1 4.8 32.9 13.6 8.8 8.8 13.6 20.5 13.6 32.9 0 12.4-4.8 24.1-13.6 32.9-8.8 8.8-20.5 13.6-32.9 13.6-12.4 0-24.1-4.8-32.9-13.6-8.8-8.8-13.6-20.5-13.6-32.9 0-12.4 4.8-24.1 13.6-32.9 8.8-8.8 20.5-13.6 32.9-13.6z" fill="#fff"/><path id="path1253" d="M320.6 152.5c-.3 5-.7 9.9-1.4 14.8 2.5 1.8 4.9 3.7 7.2 5.6 1.2-7.3 2-14.7 2.3-22.1 11.8-2.2 23.8-3.4 36-3.6-.2 12.2-1.5 24.2-3.6 36-7.5.3-14.8 1.1-22.1 2.3 2 2.3 3.9 4.7 5.6 7.2 4.9-.7 9.9-1.1 14.8-1.4-1.4 6.2-3 12.3-4.9 18.3 1.7 3.7 3.3 7.5 4.6 11.4 3.5-9.8 6.4-19.8 8.6-30h1.5c43.1 0 83.8 15.2 116.1 43-.2-3.7-.4-7.3-.7-10.9-32.7-26-73-40.1-115.4-40.1 2.1-11.7 3.2-23.7 3.5-35.9 37.5.6 73.5 10.4 105.3 28.3-.7-3.5-1.5-7-2.3-10.4-31.5-16.5-66.5-25.4-103-26-.5-36.5-10.377-76.284-26.877-107.784a187.609 187.609 0 0 0-10.233-1.531c18 31.9 28.51 71.815 29.01 109.315-12.1.2-24.1 1.4-35.9 3.5 0-42.4-14.171-82.202-40.171-114.902a370.883 370.883 0 0 0-11.214-.019C305.115 59.88 320.7 99.5 320.7 142.5v1.5c-10.2 2.2-20.2 5-30 8.6 3.9 1.3 7.7 2.9 11.4 4.6 6.2-1.7 12.4-3.3 18.5-4.7z" fill="#fff"/><path id="path1255" d="M268.7 469.9c5.5 5.5 10.188 9.09 16.388 13.59 4.3.17 8.25.07 12.659-.117-8.9-5.5-15.947-11.573-23.447-19.173-27.8-27.8-40.8-64.9-39.1-101.4-2.7-.5-5.3-1.1-7.9-1.8-2.2 39.2 11.5 79.1 41.4 108.9z" fill="#fff"/><path id="path1257" d="M369.3 227c-2.8 0-5.5.1-8.2.2.7 2.6 1.3 5.2 1.8 7.9 2.1-.1 4.3-.2 6.4-.2 35.9 0 69.6 14 95 39.3 7.6 7.6 14.1 16 19.5 24.8.4-4.2.8-8.5 1.1-12.8-4.4-6.2-9.4-12.1-15-17.7C443 241.8 407.3 227 369.3 227z" fill="#fff"/><path id="path1259" d="M142.7 277c-35.9 0-69.6-14-95-39.3-7.6-7.6-12.262-15.744-17.662-24.544-.4 4.2-.131 9.91-.055 14.466 4.4 6.2 6.517 10.178 12.117 15.778C69 270.2 104.7 285 142.7 285c2.8 0 5.5-.1 8.2-.2-.7-2.6-1.3-5.2-1.8-7.9-2.1.1-4.2.1-6.4.1z" fill="#fff"/><path id="path1261" d="M142.7 233.1c-24.1 0-46.9-9.4-63.9-26.5-35.2-35.2-35.2-92.6 0-127.9 17.1-17.1 39.8-26.5 63.9-26.5s46.9 9.4 63.9 26.5c19.4 19.4 28.1 45.4 26.2 70.8 2.7-.6 5.4-1.1 8.1-1.4 1.5-27-8-54.5-28.6-75-18.6-18.6-43.3-28.8-69.6-28.8-1.8 0-14.412-.02-16.212.08C105.897 52.94 92.155 64.037 78.7 78.7c-14.3 14.4-26.468 33.371-34.968 57.271-.1 1.8.568 4.929.568 6.729 0 26.3 10.2 51 28.8 69.6 18.6 18.6 43.3 28.8 69.6 28.8 1.8 0 3.6-.1 5.4-.1.4-2.7.9-5.5 1.4-8.1-2.2.1-4.5.2-6.8.2z" fill="#fff"/><path id="path1263" d="M191.4 359.5c.3-5 .7-9.9 1.4-14.8-2.5-1.8-4.9-3.7-7.2-5.6-1.2 7.3-2 14.7-2.3 22.1-11.8 2.2-23.8 3.4-36 3.6.2-12.2 1.5-24.2 3.6-36 7.5-.3 14.8-1.1 22.1-2.3-2-2.3-3.9-4.7-5.6-7.2-4.9.7-9.9 1.1-14.8 1.4 1.4-6.2 3-12.3 4.9-18.3-1.7-3.7-3.3-7.5-4.6-11.4-3.5 9.8-6.4 19.8-8.6 30h-1.5c-43.1 0-80.55-14.596-112.85-42.396.2 3.7-.191 8.69.109 12.29C62.759 316.893 100.4 329 142.8 329c-2.1 11.7-3.2 23.7-3.5 35.9-37.5-.6-73.96-10.443-105.76-28.343.7 3.5 1.166 6.958 1.966 10.358C67.006 363.415 102.8 372.4 139.3 373c.5 36.5 9.618 73.735 26.118 105.235 3.4.8 7.55 1.48 11.05 2.18-18-31.9-28.568-69.915-29.068-107.415 12.1-.2 24.1-1.4 35.9-3.5 0 42.4 13.473 81.333 39.473 114.033 3.684.087 7.133-.012 10.608-.026-27.8-32.3-42.081-71.007-42.081-114.007V368c10.2-2.2 20.2-5 30-8.6-3.9-1.3-7.7-2.9-11.4-4.6-6.2 1.7-12.4 3.3-18.5 4.7z" fill="#fff"/><path id="path1265" d="M243.3 42.1c-5.5-5.5-11.275-10.201-17.475-14.701-4.3.086-8.834.06-13.117.203 8.9 5.5 17.492 12.598 24.992 20.198 27.8 27.8 40.8 64.9 39.1 101.4 2.7.5 5.3 1.1 7.9 1.8 2.3-39.2-11.5-79.1-41.4-108.9z" fill="#fff"/><path id="path1267" d="M369.3 278.9c24.1 0 46.9 9.4 63.9 26.5 35.2 35.2 35.2 92.6 0 127.9-17.1 17.1-39.8 26.5-63.9 26.5s-46.9-9.4-63.9-26.5c-19.4-19.4-28.1-45.4-26.2-70.8-2.7.6-5.4 1.1-8.1 1.4-1.5 27 8 54.5 28.6 75 18.6 18.6 43.3 28.8 69.6 28.8 1.8 0 9.7-.057 11.5-.157 23.9-8.5 38.1-19.943 52.5-34.343 14.3-14.3 26.201-29.389 34.701-53.189 1.5-27-8.501-59.811-29.101-80.411-18.6-18.6-43.3-28.8-69.6-28.8-1.8 0-3.6.1-5.4.1-.4 2.7-.9 5.5-1.4 8.1 2.2 0 4.5-.1 6.8-.1z" fill="#fff"/><path id="path1269" d="M276 158.8c.4-3.2.6-6.5.8-9.7-6.7-1.3-13.7-2-20.8-2-5.1 0-10.2.4-15.1 1-.7 12.6-3.8 25.1-9.3 36.7 13.9-10.3 28.8-19.1 44.4-26z" fill="#fff"/><path id="path1271" d="M326.5 173c-.9 5.3-1.9 10.6-3.3 15.8 5.2-1.3 10.5-2.4 15.8-3.3-3.8-4.5-8-8.7-12.5-12.5z" fill="#fff"/><path id="path1273" d="M290.9 152.8c-2-.7-4.1-1.3-6.2-1.9-.1 1.5-.2 2.9-.3 4.4 2.2-.9 4.3-1.7 6.5-2.5z" fill="#fff"/><path id="path1275" d="M274.4 274.4c-.9.9-1.7 1.7-2.6 2.5-18.2 19.2-29.6 42.5-34.3 66.8 22.1-10.4 42.5-24.6 60.5-42.2.6-.6 1.1-1.2 1.7-1.8.7-.7 1.5-1.5 2.3-2.2 17.4-17.9 31.4-38.2 41.8-60.1-25 4.8-48.1 16.6-66.9 34.4-.8.9-1.7 1.7-2.5 2.6z" fill="#fff"/><path id="path1277" d="M283.3 164.4c-2.7 17.5-8.6 34.5-17.8 50.2 15.1-10.1 31.4-18 48.7-23.3 2.2-7.8 3.9-15.8 5-24-5.3-3.8-11-7.1-16.9-9.9-6.4 2.1-12.8 4.4-19 7z" fill="#fff"/><path id="path1279" d="M361 227.2c-.6-2.1-1.2-4.1-1.9-6.2-.8 2.2-1.6 4.3-2.4 6.5 1.5-.1 2.9-.2 4.3-.3z" fill="#fff"/><path id="path1281" d="M320.7 197.8a184.1 184.1 0 0 1-23.2 48.6c15.4-9 32.4-15.1 50.2-17.8 2.6-6.2 4.9-12.5 6.9-18.9-2.8-6-6.1-11.6-9.9-16.9-8.2 1.1-16.2 2.8-24 5z" fill="#fff"/><path id="path1283" d="M184.8 231.7c-11.4 5.4-23.8 8.5-36.6 9.2-.7 4.9-1 9.9-1 15 0 7.1.7 14.1 2 20.9 3.2-.2 6.5-.4 9.7-.8 6.8-15.6 15.5-30.4 25.9-44.3z" fill="#fff"/><path id="path1285" d="M327.2 280.3c11.4-5.4 23.8-8.5 36.6-9.2.7-4.9 1-9.9 1-15 0-7.1-.7-14.1-2-20.9-3.2.2-6.5.4-9.7.8-6.8 15.6-15.5 30.4-25.9 44.3z" fill="#fff"/><path id="path1287" d="M185.5 339c.9-5.3 1.9-10.6 3.3-15.8-5.2 1.3-10.5 2.4-15.8 3.3 3.8 4.5 8 8.7 12.5 12.5z" fill="#fff"/><path id="path1289" d="M221.1 359.2c2 .7 4.1 1.3 6.2 1.9.1-1.5.2-2.9.3-4.4-2.2.9-4.3 1.7-6.5 2.5z" fill="#fff"/><path id="path1291" d="M237.6 237.6c.9-.9 1.7-1.7 2.6-2.5 18.2-19.2 29.6-42.5 34.3-66.8-22.1 10.4-42.5 24.6-60.5 42.2-.6.6-1.1 1.2-1.7 1.8-.8.8-1.5 1.5-2.3 2.2-17.4 17.9-31.4 38.2-41.8 60.1 25-4.8 48-16.6 66.8-34.4.9-.9 1.8-1.7 2.6-2.6z" fill="#fff"/><path id="path1293" d="M236 353.2c-.4 3.2-.6 6.5-.8 9.7 6.7 1.3 13.7 2 20.8 2 5.1 0 10.2-.4 15.1-1 .7-12.6 3.8-25.1 9.3-36.7-13.9 10.3-28.8 19.1-44.4 26z" fill="#fff"/><path id="path1295" d="M330.7 330.7c3.7-3.7 7.8-6.8 12.2-9.2 9.3-12.3 16.1-26.7 19.5-42.4-20.7 1.6-40 10.1-55.2 24.4l-1.8 1.8c-.6.6-1.2 1.2-1.8 1.7-14.8 15.6-22.9 35.2-24.4 55.2 15.6-3.4 30-10.1 42.3-19.4 2.5-4.3 5.6-8.4 9.2-12.1z" fill="#fff"/><path id="path1297" d="M181.3 181.3c-3.7 3.7-7.8 6.8-12.2 9.2-9.3 12.3-16.1 26.7-19.5 42.4 20.7-1.5 40-10.1 55.2-24.4.6-.6 1.2-1.3 1.8-1.9l1.8-1.8c14.8-15.6 22.9-35.2 24.4-55.2-15.6 3.4-30 10.2-42.4 19.5-2.4 4.3-5.4 8.5-9.1 12.2z" fill="#fff"/><path id="path1299" d="M268.7 268.7c.9-.9 1.8-1.7 2.7-2.6 18.2-18.9 31.7-41.2 40-65.4-24.2 8.3-46.4 21.8-65.4 40-.9.9-1.7 1.8-2.6 2.7-.9.9-1.8 1.7-2.7 2.6-18.2 18.9-31.7 41.2-40 65.4 24.2-8.3 46.4-21.8 65.4-40 .8-1 1.7-1.9 2.6-2.7z" fill="#fff"/><path id="path1301" d="M151 284.8c.6 2.1 1.2 4.1 1.9 6.2.8-2.2 1.6-4.3 2.4-6.5-1.5.1-2.9.2-4.3.3z" fill="#fff"/><path id="path1303" d="M191.3 314.2a184.1 184.1 0 0 1 23.2-48.6c-15.4 9-32.4 15.1-50.2 17.8-2.6 6.2-4.9 12.5-6.9 18.9 2.8 6 6.1 11.6 9.9 16.9 8.2-1.1 16.2-2.8 24-5z" fill="#fff"/><path id="path1305" d="M228.7 347.6c2.7-17.5 8.6-34.5 17.8-50.2-15.1 10.1-31.4 18-48.7 23.3-2.2 7.8-3.9 15.8-5 24 5.3 3.8 11 7.1 16.9 9.9 6.4-2.1 12.8-4.4 19-7z" fill="#fff"/><path id="path1307" d="M190.4 169.1c-8.1 6.1-15.3 13.3-21.4 21.4 4.4-2.4 8.5-5.5 12.2-9.2 3.8-3.7 6.8-7.9 9.2-12.2z"/><path id="path1309" d="M321.5 343c8.1-6.1 15.3-13.3 21.4-21.4-4.4 2.4-8.5 5.5-12.2 9.2-3.6 3.6-6.7 7.7-9.2 12.2z"/><path id="path1311" d="M356.7 227.5c.8-2.1 1.7-4.3 2.4-6.5-1.3-3.9-2.9-7.7-4.6-11.4-2 6.4-4.3 12.7-6.9 18.9-17.8 2.7-34.8 8.7-50.2 17.8 10.1-15 17.9-31.4 23.2-48.6 7.8-2.2 15.8-3.9 24-5-1.8-2.5-3.7-4.9-5.6-7.2-5.3.9-10.6 1.9-15.8 3.3 1.3-5.2 2.4-10.5 3.3-15.8-2.3-2-4.7-3.9-7.2-5.6-1.1 8.1-2.8 16.1-5 24-17.3 5.3-33.6 13.1-48.7 23.3 9.2-15.7 15.1-32.7 17.8-50.2 6.2-2.6 12.6-4.9 19-7-3.7-1.7-7.5-3.3-11.4-4.6-2.2.8-4.4 1.6-6.5 2.5.1-1.5.2-2.9.3-4.4-2.6-.7-5.2-1.3-7.9-1.8-.2 3.2-.4 6.5-.8 9.7-15.6 6.9-30.5 15.7-44.4 26 5.5-11.6 8.6-24.1 9.3-36.7-2.7.4-5.4.9-8.1 1.4-1.5 20-9.7 39.6-24.4 55.2l-1.8 1.8c-.6.6-1.2 1.2-1.8 1.9-15.2 14.3-34.5 22.8-55.2 24.4-.6 2.7-1.1 5.4-1.4 8.1 12.8-.7 25.2-3.8 36.6-9.2-10.4 13.8-19.1 28.7-26 44.3-3.2.4-6.4.6-9.7.8.5 2.7 1.1 5.3 1.8 7.9 1.4-.1 2.9-.2 4.3-.3-.8 2.1-1.7 4.3-2.4 6.5 1.3 3.9 2.9 7.7 4.6 11.4 2-6.4 4.3-12.7 6.9-18.9 17.8-2.7 34.8-8.7 50.2-17.8a184.1 184.1 0 0 0-23.2 48.6c-7.8 2.2-15.8 3.9-24 5 1.8 2.5 3.7 4.9 5.6 7.2 5.3-.9 10.6-1.9 15.8-3.3-1.3 5.2-2.4 10.5-3.3 15.8 2.3 2 4.7 3.9 7.2 5.6 1.1-8.1 2.8-16.1 5-24 17.3-5.3 33.6-13.1 48.7-23.3-9.2 15.7-15.1 32.7-17.8 50.2-6.2 2.6-12.6 4.9-19 7 3.7 1.7 7.5 3.3 11.4 4.6 2.2-.8 4.4-1.6 6.5-2.5-.1 1.5-.2 2.9-.3 4.4 2.6.7 5.2 1.3 7.9 1.8.2-3.2.4-6.5.8-9.7 15.6-6.9 30.5-15.7 44.4-26-5.5 11.6-8.6 24.1-9.3 36.7 2.7-.4 5.4-.9 8.1-1.4 1.5-20 9.7-39.6 24.4-55.2.6-.6 1.2-1.2 1.8-1.7l1.8-1.8c15.2-14.4 34.5-22.9 55.2-24.4.6-2.7 1.1-5.4 1.4-8.1-12.8.7-25.2 3.8-36.6 9.2 10.4-13.8 19.1-28.7 26-44.3 3.2-.4 6.4-.6 9.7-.8-.5-2.7-1.1-5.3-1.8-7.9-1.4-.1-2.8 0-4.3.1zm-188.5 47.1c10.4-21.9 24.4-42.2 41.8-60.1.8-.7 1.5-1.5 2.3-2.2.6-.6 1.2-1.2 1.7-1.8 18-17.6 38.4-31.7 60.5-42.2-4.7 24.3-16.1 47.6-34.3 66.8-.9.8-1.7 1.7-2.6 2.5-.9.9-1.7 1.7-2.5 2.6-18.8 17.8-41.9 29.6-66.9 34.4zm32.5 36.7c8.3-24.2 21.8-46.4 40-65.4.9-.9 1.8-1.7 2.7-2.6.9-.9 1.8-1.8 2.6-2.7 18.9-18.2 41.2-31.7 65.4-40-8.3 24.2-21.8 46.5-40 65.4-.9.8-1.8 1.7-2.7 2.6-.9.9-1.7 1.8-2.6 2.7-19 18.2-41.2 31.7-65.4 40zM302 297.5c-.8.7-1.5 1.4-2.3 2.2-.6.6-1.1 1.2-1.7 1.8-18 17.6-38.4 31.8-60.5 42.2 4.7-24.3 16.1-47.6 34.3-66.8.9-.8 1.7-1.7 2.6-2.5.9-.9 1.7-1.7 2.5-2.6 18.8-17.8 41.9-29.6 66.9-34.4-10.4 21.9-24.4 42.2-41.8 60.1z"/></g></g></svg>