<svg xmlns="http://www.w3.org/2000/svg" xmlns:xlink="http://www.w3.org/1999/xlink" width="48" height="48" version="1.1" id="svg38"><defs id="defs22"><linearGradient id="linearGradient4488"><stop id="stop4490" offset="0" stop-color="#000" stop-opacity=".047"/><stop id="stop4492" offset="1" stop-color="#000" stop-opacity="0"/></linearGradient><style id="style4511"/><style id="style4511-26"/><style id="style4511-9"/><style id="style4552"/><style id="style4511-2"/><linearGradient gradientTransform="matrix(.3082 0 0 .3038 -64.056 2.216)" xlink:href="#linearGradient4488" id="linearGradient4160" x1="288.112" y1="141.785" x2="287.575" y2="79.008" gradientUnits="userSpaceOnUse"/><style id="style2" type="text/css"><![CDATA[.fil5{fill:none}.fil1{fill:#196FBA}.fil0{fill:#25B2EE}.fil4{fill:#793C7C}.fil3{fill:#8C508C}.fil2{fill:white}]]></style><clipPath id="clipPath1221-5" clipPathUnits="userSpaceOnUse"><path d="M188.969 44C261.617 44 272 54.357 272 126.938v58.124C272 257.644 261.617 268 188.969 268H115.03C42.383 268 32 257.643 32 185.062v-58.125C32 54.358 42.383 44 115.031 44z" id="path1223-6" display="inline" opacity=".1" fill="#da1636" fill-opacity="1" stroke="none" stroke-width="2" stroke-linecap="round" stroke-linejoin="round" stroke-miterlimit="4" stroke-dasharray="none" stroke-dashoffset="0" stroke-opacity="1" enable-background="new"/></clipPath><filter height="2.62" y="-.81" width="2.62" x="-.81" id="filter1128" color-interpolation-filters="sRGB"><feGaussianBlur id="feGaussianBlur1130" stdDeviation="2.7"/></filter><filter height="2.62" y="-.81" width="2.62" x="-.81" id="filter1132" color-interpolation-filters="sRGB"><feGaussianBlur id="feGaussianBlur1134" stdDeviation="2.7"/></filter><filter height="2.62" y="-.81" width="2.62" x="-.81" id="filter1136" color-interpolation-filters="sRGB"><feGaussianBlur id="feGaussianBlur1138" stdDeviation="2.7"/></filter><filter height="2.62" y="-.81" width="2.62" x="-.81" id="filter1140" color-interpolation-filters="sRGB"><feGaussianBlur id="feGaussianBlur1142" stdDeviation="2.7"/></filter><clipPath id="clipPath936-2" clipPathUnits="userSpaceOnUse"><path d="M329.938 16C475.235 16 496 36.713 496 181.875v116.25C496 443.286 475.235 464 329.937 464H182.063C36.766 464 16 443.286 16 298.125v-116.25C16 36.713 36.765 16 182.063 16z" id="path938-91" opacity="1" fill="#438ae9" fill-opacity="1" stroke="none" stroke-width="2" stroke-linecap="round" stroke-linejoin="round" stroke-miterlimit="4" stroke-dasharray="none" stroke-dashoffset="0" stroke-opacity="1"/></clipPath><filter height="1.093" y="-.046" width="1.099" x="-.05" id="filter1625" color-interpolation-filters="sRGB"><feGaussianBlur id="feGaussianBlur1627" stdDeviation=".29"/></filter></defs><style id="style4485" type="text/css"/><path d="M2.535 26.443v1.668c0 9.575 5.664 17.282 17.394 17.282h7.031c15.352 0 18.095-11.322 18.095-17.282v-1.668c0 5.96-2.743 17.282-18.095 17.282h-7.03c-11.73 0-17.395-7.708-17.395-17.282z" id="path4147" stroke-miterlimit="4" opacity="1" fill="url(#linearGradient4160)" fill-opacity="1" stroke="none" stroke-width="1.108" stroke-linecap="square" stroke-linejoin="bevel" stroke-dasharray="none" stroke-dashoffset="0" stroke-opacity=".078"/><path d="M19.389 2.965h8.618c14.11 0 17.048 11.246 17.048 17.282v7.123c0 5.96-2.743 17.282-18.095 17.282h-7.03c-11.73 0-17.395-7.708-17.395-17.282v-7.123c0-9.575 5.55-17.282 16.854-17.282z" id="rect4144" stroke-miterlimit="4" opacity="1" fill="#6b5198" fill-opacity="1" stroke="#000" stroke-width=".337" stroke-linecap="square" stroke-linejoin="bevel" stroke-dasharray="none" stroke-dashoffset="0" stroke-opacity=".078"/><path style="marker:none" d="M13.81 42.377c.087.006.16.016.248.021.068.004.161.002.23.006l-.006-1.229 4.175-3.957v-1.32l1.927-1.978v-.99l.963-.99v-2.637l-1.285-1.32h-2.569l-1.284-1.319h-3.211l-1.285 1.32v3.297l2.578 2.32-.009 2.957-.963.99v4.287z" id="path4243" display="inline" overflow="visible" color="#000" visibility="visible" opacity=".24" fill="#fff" fill-opacity="1" fill-rule="nonzero" stroke="none" stroke-width="10.414" stroke-linecap="butt" stroke-linejoin="miter" stroke-miterlimit="4" stroke-dasharray="none" stroke-dashoffset="0" stroke-opacity="1" enable-background="accumulate"/><path style="marker:none" d="M19.42 16.77l-.963.99h.963l.321.33h.321l.321-.33z" id="path1110" display="inline" overflow="visible" color="#000" visibility="visible" opacity=".24" fill="#fff" fill-opacity="1" fill-rule="nonzero" stroke="none" stroke-width="10.414" stroke-linecap="butt" stroke-linejoin="miter" stroke-miterlimit="4" stroke-dasharray="none" stroke-dashoffset="0" stroke-opacity="1" enable-background="accumulate"/><path style="marker:none" d="M6.358 8.632c-.016.025-.038.043-.055.068a6.227 6.396 0 0 0-.512.947 8.828 8.828 0 0 0-.4 1.111c-.116.4-.215.829-.3 1.29a21.1 21.1 0 0 0-.212 1.479 31.313 32.16 0 0 0-.136 1.682 71.309 71.309 0 0 0-.094 4.024v3.474l1.284 1.319H7.86l3.211 3.298v-3.958l1.927-1.979h1.284l1.927-1.978h1.927l-.964-.99 1.927-2.308-1.927-1.98h-2.89v2.64h-1.284l-1.285-1.32v-1.32l1.927-1.978h1.606v-1.32l-1.927-1.978h-3.211v1.979H8.502z" id="path4245" display="inline" overflow="visible" color="#000" visibility="visible" opacity=".24" fill="#fff" fill-opacity="1" fill-rule="nonzero" stroke="none" stroke-width="10.414" stroke-linecap="butt" stroke-linejoin="miter" stroke-miterlimit="4" stroke-dasharray="none" stroke-dashoffset="0" stroke-opacity="1" enable-background="accumulate"/><path id="path4247" d="M31.623 21.388h-3.854l-2.248 2.308v3.298l1.606 1.65h2.248l.963.989v.989l.643.66v3.957l2.438 2.647 4.027-4.135-.043-3.789 3.211-3.298H39.33l-3.212-3.298v-1.319h-3.853z" style="marker:none" display="inline" overflow="visible" color="#000" visibility="visible" opacity=".24" fill="#fff" fill-opacity="1" fill-rule="nonzero" stroke="none" stroke-width="10.414" stroke-linecap="butt" stroke-linejoin="miter" stroke-miterlimit="4" stroke-dasharray="none" stroke-dashoffset="0" stroke-opacity="1" enable-background="accumulate"/><path style="marker:none" d="M43.183 22.707v-3.474c0-1.496-.026-2.831-.094-4.024a31.315 32.161 0 0 0-.137-1.682 19.481 20.008 0 0 0-.212-1.48c-.084-.46-.184-.89-.3-1.289-.116-.4-.248-.77-.4-1.111-.096-.218-.214-.407-.326-.603l-.458.47H39.33l-1.927 1.98-1.285-1.32h-3.853l-1.927 1.98v1.648h1.927v-.99h1.284v1.32l-.642.66-2.569.044-.963.945H28.09v1.32l-.963.988v1.98h1.927l1.284-1.32h1.285v.66l1.284 1.319h.642v-.66l-1.284-1.319h1.284l1.285 1.32h1.605l-.963-.99.963-.99h.964l.963.99h-.963l-.964.99.946.97.018 1.008h-1.285l3.854 3.958h.642l.642-.66 1.285-1.32-1.285-1.318z" id="path4249" display="inline" overflow="visible" color="#000" visibility="visible" opacity=".24" fill="#fff" fill-opacity="1" fill-rule="nonzero" stroke="none" stroke-width="10.414" stroke-linecap="butt" stroke-linejoin="miter" stroke-miterlimit="4" stroke-dasharray="none" stroke-dashoffset="0" stroke-opacity="1" enable-background="accumulate"/><path id="path4251" d="M28.412 15.121v-.99l.963-.988v1.978z" style="marker:none" display="inline" overflow="visible" color="#000" visibility="visible" opacity=".24" fill="#fff" fill-opacity="1" fill-rule="nonzero" stroke="none" stroke-width="10.414" stroke-linecap="butt" stroke-linejoin="miter" stroke-miterlimit="4" stroke-dasharray="none" stroke-dashoffset="0" stroke-opacity="1" enable-background="accumulate"/><path style="marker:none" d="M38.366 34.58v-2.068l1.285-1.23v3.298z" id="path4253" display="inline" overflow="visible" color="#000" visibility="visible" opacity=".24" fill="#fff" fill-opacity="1" fill-rule="nonzero" stroke="none" stroke-width="10.414" stroke-linecap="butt" stroke-linejoin="miter" stroke-miterlimit="4" stroke-dasharray="none" stroke-dashoffset="0" stroke-opacity="1" enable-background="accumulate"/><path style="marker:none" d="M25.2 5.557h-7.22c-.124 0-.211.008-.333.008L16.53 6.876l1.927 1.979v2.068l2.248 2.55h1.284v-1.32l1.927-1.979V8.855l1.284-1.32z" id="path1116" display="inline" overflow="visible" color="#000" visibility="visible" opacity=".24" fill="#fff" fill-opacity="1" fill-rule="nonzero" stroke="none" stroke-width="10.414" stroke-linecap="butt" stroke-linejoin="miter" stroke-miterlimit="4" stroke-dasharray="none" stroke-dashoffset="0" stroke-opacity="1" enable-background="accumulate"/><path style="marker:none" d="M14.282 5.648c-.067.004-.157.002-.224.006-.58.035-1.127.08-1.64.14-.513.058-.993.13-1.442.217a12.599 12.94 0 0 0-1.122.275l1.217 1.25h3.211z" id="path1113" display="inline" overflow="visible" color="#000" visibility="visible" opacity=".24" fill="#fff" fill-opacity="1" fill-rule="nonzero" stroke="none" stroke-width="10.414" stroke-linecap="butt" stroke-linejoin="miter" stroke-miterlimit="4" stroke-dasharray="none" stroke-dashoffset="0" stroke-opacity="1" enable-background="accumulate"/><path style="marker:none" d="M23.595 12.813h.963l.963.99h-1.926z" id="path13116" display="inline" overflow="visible" color="#000" visibility="visible" opacity=".24" fill="#fff" fill-opacity="1" fill-rule="nonzero" stroke="none" stroke-width="10.414" stroke-linecap="butt" stroke-linejoin="miter" stroke-miterlimit="4" stroke-dasharray="none" stroke-dashoffset="0" stroke-opacity="1" enable-background="accumulate"/><path id="path13118" d="M14.924 23.696h-.963l-.963.99h1.926z" style="marker:none" display="inline" overflow="visible" color="#000" visibility="visible" opacity=".24" fill="#fff" fill-opacity="1" fill-rule="nonzero" stroke="none" stroke-width="10.414" stroke-linecap="butt" stroke-linejoin="miter" stroke-miterlimit="4" stroke-dasharray="none" stroke-dashoffset="0" stroke-opacity="1" enable-background="accumulate"/><ellipse id="path1082" cx="14.19" cy="20.01" rx=".704" ry=".736" opacity="1" fill="#fff" fill-opacity="1" stroke="none" stroke-width=".72" stroke-linecap="square" stroke-linejoin="round" stroke-miterlimit="4" stroke-dasharray="none" stroke-dashoffset="0" stroke-opacity="1"/><ellipse cy="34.737" cx="17.71" id="circle1090" rx=".704" ry=".736" opacity="1" fill="#fff" fill-opacity="1" stroke="none" stroke-width=".72" stroke-linecap="square" stroke-linejoin="round" stroke-miterlimit="4" stroke-dasharray="none" stroke-dashoffset="0" stroke-opacity="1"/><ellipse id="circle1092" cx="28.272" cy="27.374" rx=".704" ry=".736" opacity="1" fill="#fff" fill-opacity="1" stroke="none" stroke-width=".72" stroke-linecap="square" stroke-linejoin="round" stroke-miterlimit="4" stroke-dasharray="none" stroke-dashoffset="0" stroke-opacity="1"/><ellipse cy="16.328" cx="31.792" id="circle1094" rx=".704" ry=".736" opacity="1" fill="#fff" fill-opacity="1" stroke="none" stroke-width=".72" stroke-linecap="square" stroke-linejoin="round" stroke-miterlimit="4" stroke-dasharray="none" stroke-dashoffset="0" stroke-opacity="1"/><path d="M2.573 26.27c11.813-8.866 26.05-10.31 42.244-10.678" id="path1096" opacity=".5" fill="none" fill-rule="evenodd" stroke="#fff" stroke-width=".36" stroke-linecap="butt" stroke-linejoin="miter" stroke-miterlimit="4" stroke-dasharray="none" stroke-opacity="1"/><path id="path1098" d="M2.844 12.103c3.621 2.717 7.2 5.306 11.263 7.916 9.192 5.902 19.48 10.747 30.71 11.002" opacity=".5" fill="none" fill-rule="evenodd" stroke="#fff" stroke-width=".36" stroke-linecap="butt" stroke-linejoin="miter" stroke-miterlimit="4" stroke-dasharray="none" stroke-opacity="1"/><path d="M28.36 26.821c3.47-7.779 5.588-14.193 4.705-23.317" id="path1100" opacity=".5" fill="none" fill-rule="evenodd" stroke="#fff" stroke-width=".36" stroke-linecap="butt" stroke-linejoin="miter" stroke-miterlimit="4" stroke-dasharray="none" stroke-opacity="1"/><path id="path1102" d="M25.776 44.616C13.7 35.164 12.73 21.994 14.81 3.504" opacity=".5" fill="none" fill-rule="evenodd" stroke="#fff" stroke-width=".36" stroke-linecap="butt" stroke-linejoin="miter" stroke-miterlimit="4" stroke-dasharray="none" stroke-opacity="1"/><circle r="4" cy="134" cx="98" id="circle1104" transform="matrix(.17602 0 0 .18409 -3.06 -4.658)" opacity="1" fill="#fff" fill-opacity="1" stroke="none" stroke-width="4" stroke-linecap="square" stroke-linejoin="round" stroke-miterlimit="4" stroke-dasharray="none" stroke-dashoffset="0" stroke-opacity="1" filter="url(#filter1128)"/><circle id="circle1106" cx="118" cy="214" r="4" transform="matrix(.17602 0 0 .18409 -3.06 -4.658)" opacity="1" fill="#fff" fill-opacity="1" stroke="none" stroke-width="4" stroke-linecap="square" stroke-linejoin="round" stroke-miterlimit="4" stroke-dasharray="none" stroke-dashoffset="0" stroke-opacity="1" filter="url(#filter1132)"/><circle r="4" cy="174" cx="178" id="circle1108" transform="matrix(.17602 0 0 .18409 -3.06 -4.658)" opacity="1" fill="#fff" fill-opacity="1" stroke="none" stroke-width="4" stroke-linecap="square" stroke-linejoin="round" stroke-miterlimit="4" stroke-dasharray="none" stroke-dashoffset="0" stroke-opacity="1" filter="url(#filter1136)"/><circle id="circle1110" cx="198" cy="114" r="4" transform="matrix(.17602 0 0 .18409 -3.06 -4.658)" opacity="1" fill="#fff" fill-opacity="1" stroke="none" stroke-width="4" stroke-linecap="square" stroke-linejoin="round" stroke-miterlimit="4" stroke-dasharray="none" stroke-dashoffset="0" stroke-opacity="1" filter="url(#filter1140)"/><path id="path1144" d="M28.173 27.34C20.507 37.37 4.779 37.635 2.849 36.372" opacity=".5" fill="none" fill-rule="evenodd" stroke="#fff" stroke-width=".36" stroke-linecap="butt" stroke-linejoin="miter" stroke-miterlimit="4" stroke-dasharray="none" stroke-opacity="1"/><path id="path1028" style="line-height:normal;font-variant-ligatures:normal;font-variant-position:normal;font-variant-caps:normal;font-variant-numeric:normal;font-variant-alternates:normal;font-feature-settings:normal;text-indent:0;text-align:start;text-decoration-line:none;text-decoration-style:solid;text-decoration-color:#000;text-transform:none;text-orientation:mixed;white-space:normal;shape-padding:0;isolation:auto;mix-blend-mode:normal" overflow="visible" font-weight="400" d="M487 182.5c0-1.375-1.125-2.5-2.5-2.5a2.508 2.508 0 0 0-2.5 2.5c0 1.375 1.125 2.5 2.5 2.5s2.5-1.125 2.5-2.5zm0 10c0-1.375-1.125-2.5-2.5-2.5a2.508 2.508 0 0 0-2.5 2.5c0 1.375 1.125 2.5 2.5 2.5s2.5-1.125 2.5-2.5zm-1-10c0 .834-.666 1.5-1.5 1.5s-1.5-.666-1.5-1.5.666-1.5 1.5-1.5 1.5.666 1.5 1.5zm0 10c0 .834-.666 1.5-1.5 1.5s-1.5-.666-1.5-1.5.666-1.5 1.5-1.5 1.5.666 1.5 1.5zm-4.266-7.89a3.495 3.495 0 0 1-.494-.872l-3.853 2.143A2.487 2.487 0 0 0 475.5 185a2.508 2.508 0 0 0-2.5 2.5c0 1.375 1.125 2.5 2.5 2.5.755 0 1.427-.347 1.887-.88l3.853 2.142c.122-.316.29-.606.494-.871l-3.86-2.145c.074-.237.126-.485.126-.746s-.052-.509-.127-.746zM477 187.5c0 .834-.666 1.5-1.5 1.5s-1.5-.666-1.5-1.5.666-1.5 1.5-1.5 1.5.666 1.5 1.5z" text-decoration="none" transform="matrix(1.14416 0 0 1.08002 -525.414 -176.921)" color="#000" font-family="sans-serif" fill="#140707" fill-opacity="1" filter="url(#filter1625)"/><path d="M31.792 20.183c0-1.485-1.287-2.7-2.86-2.7a2.87 2.709 0 0 0-2.86 2.7c0 1.485 1.286 2.7 2.86 2.7 1.573 0 2.86-1.215 2.86-2.7zm0 10.8c0-1.485-1.287-2.7-2.86-2.7a2.87 2.709 0 0 0-2.86 2.7c0 1.485 1.286 2.7 2.86 2.7 1.573 0 2.86-1.215 2.86-2.7zm-1.144-10.8c0 .9-.762 1.62-1.716 1.62-.955 0-1.717-.72-1.717-1.62 0-.901.762-1.62 1.717-1.62.954 0 1.716.719 1.716 1.62zm0 10.8c0 .9-.762 1.62-1.716 1.62-.955 0-1.717-.72-1.717-1.62 0-.9.762-1.62 1.717-1.62.954 0 1.716.72 1.716 1.62zm-4.881-8.522a3.999 3.775 0 0 1-.565-.941l-4.409 2.314a2.846 2.686 0 0 0-2.159-.951 2.87 2.709 0 0 0-2.86 2.7c0 1.485 1.287 2.7 2.86 2.7.864 0 1.633-.375 2.16-.95l4.408 2.313a3.71 3.71 0 0 1 .565-.94l-4.417-2.318c.085-.256.144-.523.144-.805 0-.282-.059-.55-.145-.806zm-5.417 3.122c0 .9-.762 1.62-1.716 1.62s-1.716-.72-1.716-1.62c0-.901.762-1.62 1.716-1.62s1.716.719 1.716 1.62z" font-weight="400" overflow="visible" style="line-height:normal;font-variant-ligatures:normal;font-variant-position:normal;font-variant-caps:normal;font-variant-numeric:normal;font-variant-alternates:normal;font-feature-settings:normal;text-indent:0;text-align:start;text-decoration-line:none;text-decoration-style:solid;text-decoration-color:#000;text-transform:none;text-orientation:mixed;white-space:normal;shape-padding:0;isolation:auto;mix-blend-mode:normal" id="path1601" text-decoration="none" color="#000" font-family="sans-serif" fill="#fff" fill-opacity="1" stroke-width="1.112"/></svg>