<svg xmlns="http://www.w3.org/2000/svg" xmlns:xlink="http://www.w3.org/1999/xlink" width="48" height="48" version="1.1" id="svg38"><defs id="defs22"><linearGradient id="linearGradient4488"><stop id="stop4490" offset="0" stop-color="#000" stop-opacity=".047"/><stop id="stop4492" offset="1" stop-color="#000" stop-opacity="0"/></linearGradient><style id="style4511"/><style id="style4511-26"/><style id="style4511-9"/><style id="style4552"/><style id="style4511-2"/><linearGradient gradientTransform="translate(-63.205 2.216) scale(.3038)" xlink:href="#linearGradient4488" id="linearGradient4160" x1="288.112" y1="141.785" x2="287.575" y2="79.008" gradientUnits="userSpaceOnUse"/></defs><style id="style4485" type="text/css"/><path d="M2.433 26.443v1.668c0 9.575 5.583 17.282 17.146 17.282h6.93c15.133 0 17.837-11.322 17.837-17.282v-1.668c0 5.96-2.704 17.282-17.837 17.282h-6.93c-11.563 0-17.146-7.708-17.146-17.282z" id="path4147" opacity="1" fill="url(#linearGradient4160)" fill-opacity="1" stroke="none" stroke-width="1.1" stroke-linecap="square" stroke-linejoin="bevel" stroke-miterlimit="4" stroke-dasharray="none" stroke-dashoffset="0" stroke-opacity=".078"/><path d="M19.046 2.965h8.495c13.908 0 16.805 11.246 16.805 17.282v7.123c0 5.96-2.704 17.282-17.837 17.282h-6.93c-11.562 0-17.146-7.708-17.146-17.282v-7.123c0-9.575 5.47-17.282 16.613-17.282z" id="rect4144" opacity="1" fill="#38a8e5" fill-opacity="1" stroke="#000" stroke-width=".334" stroke-linecap="square" stroke-linejoin="bevel" stroke-miterlimit="4" stroke-dasharray="none" stroke-dashoffset="0" stroke-opacity=".078"/><g id="g11" transform="translate(7.004 9.345) scale(.65047)"><path d="M19.141 29.341s-4.302-9.872-3.088-20.461c0 0-9.963 3.472-6.563 12.574 0 .001 2.261 5.185 9.651 7.887z" id="path13" fill="#e0f6ff"/><path d="M22.895 32.651S12.792 28.924 5.989 20.72c0 0-4.145 9.987 4.534 13.44 0 0 5.307 1.955 12.372-1.509z" id="path15" fill="#e0f6ff"/><path d="M28.378 30.707s-9.161 5.66-19.814 5.964c0 0 5.641 8.947 13.379 4.71 0 0 4.81-2.975 6.435-10.674z" id="path17" fill="#96d1ee" fill-opacity="1"/><path d="M31.133 25.805s-1.955 10.589-8.883 18.689c0 0 10.034 2.491 12.473-6.753 0-.001 1.025-5.563-3.59-11.936z" id="path19" fill="#96d1ee" fill-opacity="1"/><path d="M28.939 20.007s6.716 8.418 8.291 18.958c0 0 8.149-6.085 3.075-13.846.001 0-3.528-4.42-11.366-5.112z" id="path21" fill="#96d1ee" fill-opacity="1"/><path d="M22.535 19.489s10.67-1.448 20.528 2.605c0 0 .807-10.654-10.309-9.741-.001 0-5.605.762-10.219 7.136z" id="path23" fill="#96d1ee" fill-opacity="1"/><path d="M17.682 21.419c.014.453.595.646.908.318C21.8 18.371 34.447 5.654 45.037 2.635c.508-.145.43-.904-.088-1.005C40.38.739 25.925-.329 20.024 6.565c-.001 0-2.648 5.128-2.342 14.854z" id="path25" fill="#96d1ee" fill-opacity="1"/></g></svg>