<svg xmlns="http://www.w3.org/2000/svg" xmlns:xlink="http://www.w3.org/1999/xlink" width="48" height="48" version="1.1" id="svg38"><defs id="defs22"><linearGradient id="linearGradient4488"><stop id="stop4490" offset="0" stop-color="#000" stop-opacity=".047"/><stop id="stop4492" offset="1" stop-color="#000" stop-opacity="0"/></linearGradient><style id="style4511"/><style id="style4511-26"/><style id="style4511-9"/><style id="style4552"/><style id="style4511-2"/><linearGradient xlink:href="#linearGradient4488" id="linearGradient4471" gradientUnits="userSpaceOnUse" gradientTransform="translate(-62.47 2.216) scale(.3038)" x1="288.112" y1="141.785" x2="287.575" y2="79.008"/><circle id="SVGID_1_" r="15.999" cy="-31.965" cx="73.957"/><linearGradient id="linearGradient4245"><stop offset="0" id="stop4241" stop-color="#e8e8e8" stop-opacity="1"/><stop offset="1" id="stop4243" stop-color="#f5f5f5" stop-opacity="1"/></linearGradient><linearGradient xlink:href="#linearGradient4245" id="linearGradient1318" x1="3.001" y1="23.808" x2="45.248" y2="23.808" gradientUnits="userSpaceOnUse"/></defs><style id="style4485" type="text/css"/><g id="g9" transform="translate(-49.354 -2.761)"><g id="g11"><g id="g13"><g id="g15"><g id="g17" opacity=".15"><g id="g19"><clipPath id="SVGID_2_"><use id="use25" x="0" y="0" width="1" height="1" xlink:href="#SVGID_1_" overflow="visible"/></clipPath></g></g></g></g></g></g><g id="g1325"><path id="path4467" d="M3.168 26.443v1.668c0 9.575 5.583 17.282 17.146 17.282h6.93c15.132 0 17.836-11.322 17.836-17.282v-1.668c0 5.96-2.704 17.282-17.836 17.282h-6.93c-11.563 0-17.146-7.708-17.146-17.282z" opacity="1" fill="url(#linearGradient4471)" fill-opacity="1" stroke="none" stroke-width="1.1" stroke-linecap="square" stroke-linejoin="bevel" stroke-miterlimit="4" stroke-dasharray="none" stroke-dashoffset="0" stroke-opacity=".078"/><path id="path4469" d="M19.781 2.965h8.495c13.908 0 16.805 11.246 16.805 17.282v7.123c0 5.96-2.705 17.282-17.837 17.282h-6.93c-11.563 0-17.146-7.708-17.146-17.282v-7.123c0-9.575 5.47-17.282 16.613-17.282z" opacity="1" fill="url(#linearGradient1318)" fill-opacity="1" stroke="#000" stroke-width=".334" stroke-linecap="square" stroke-linejoin="bevel" stroke-miterlimit="4" stroke-dasharray="none" stroke-dashoffset="0" stroke-opacity=".078"/><g id="g18" transform="matrix(1.6993 0 0 1.78079 -3.065 -5.575)" fill="#2b8ae2"><path id="path14" d="M11.158 8C7.943 9.72 6.005 12.825 6 16.298c.007 4.783 3.803 8.966 8.842 9.68.362.036.471.02.737 0 2.442 0 4.421-1.857 4.421-4.148-.002-1.573-.946-2.977-2.383-3.677 0 0-1.587-.683-2.29-1.037a37.031 37.031 0 0 1-2.903-1.511c-.533-.306-1.072-.663-1.556-1.214-.484-.552-.884-1.378-.884-2.242 0-1.677.346-2.955 1.174-4.149z"/><path id="path16" d="M20.842 25c3.215-1.72 5.153-4.825 5.158-8.298-.007-4.783-3.802-8.966-8.842-9.68-.361-.037-.47-.02-.737 0-2.442 0-4.42 1.857-4.42 4.148.001 1.573.945 2.977 2.382 3.677 0 0 1.588.683 2.29 1.037 1.017.477 1.887.9 2.953 1.51.534.307 1.072.664 1.556 1.215s.884 1.378.884 2.242c0 1.677-.396 2.955-1.224 4.149z"/></g></g></svg>