<svg xmlns="http://www.w3.org/2000/svg" xmlns:xlink="http://www.w3.org/1999/xlink" width="48" height="48" version="1.1" id="svg38"><defs id="defs22"><linearGradient id="linearGradient4488"><stop id="stop4490" offset="0" stop-color="#000" stop-opacity=".047"/><stop id="stop4492" offset="1" stop-color="#000" stop-opacity="0"/></linearGradient><style id="style4511"/><style id="style4511-26"/><style id="style4511-9"/><style id="style4552"/><style id="style4511-2"/><linearGradient xlink:href="#linearGradient4488" id="linearGradient4548" gradientUnits="userSpaceOnUse" gradientTransform="translate(-62.55 1.994) scale(.3038)" x1="288.112" y1="141.785" x2="287.575" y2="79.008"/></defs><style id="style4485" type="text/css"/><path id="path4532" d="M3.088 26.22v1.67c0 9.573 5.583 17.281 17.146 17.281h6.93c15.133 0 17.837-11.322 17.837-17.282v-1.668c0 5.96-2.704 17.282-17.837 17.282h-6.93c-11.563 0-17.146-7.708-17.146-17.282z" opacity="1" fill="url(#linearGradient4548)" fill-opacity="1" stroke="none" stroke-width="1.1" stroke-linecap="square" stroke-linejoin="bevel" stroke-miterlimit="4" stroke-dasharray="none" stroke-dashoffset="0" stroke-opacity=".078"/><path id="path4534" d="M19.701 2.742h8.495c13.908 0 16.805 11.247 16.805 17.282v7.124c0 5.96-2.704 17.282-17.837 17.282h-6.93c-11.562 0-17.146-7.708-17.146-17.282v-7.124c0-9.574 5.47-17.282 16.613-17.282z" opacity="1" fill="#636a82" fill-opacity="1" stroke="#000" stroke-width=".334" stroke-linecap="square" stroke-linejoin="bevel" stroke-miterlimit="4" stroke-dasharray="none" stroke-dashoffset="0" stroke-opacity=".078"/><path d="M23.795 8.093c-2.31.04-4.631.597-6.795 1.697-4.087 2.078-7.092 5.95-8.088 10.418a16.104 16.104 0 0 0-.17 5.916 15.574 15.574 0 0 0 2.62 6.404c2.611 3.68 6.6 6.023 11.1 6.52.227.025 1.032.04 1.79.031 1.582-.017 2.2-.091 3.521-.418 2.511-.62 4.68-1.772 6.672-3.543 2.413-2.145 4.165-5.208 4.807-8.402.235-1.167.29-1.763.29-3.106 0-1.35-.057-1.96-.292-3.117a15.635 15.635 0 0 0-4.775-8.373 15.52 15.52 0 0 0-10.68-4.027zm.271 1.04c.6 0 1.194.026 1.61.075 3.33.394 6.3 1.836 8.652 4.203 1.87 1.883 3.116 4.094 3.773 6.696.18.711.203.946.098 1.09-.065.089-.158.095-1.906.118l-1.838.024-.148.143c-.122.116-.147.18-.147.353 0 .17.027.24.14.354l.141.14h1.842c2.032 0 2.14.014 2.213.276.02.074.035.544.033 1.043-.003.834-.01.917-.101 1.039l-.098.132-1.937.024-1.938.025-.148.14a.498.498 0 0 0-.032.69l.118.135 1.835.025c1.719.023 1.843.03 1.938.116.145.13.13.373-.065 1.142-.902 3.569-3.01 6.545-6.087 8.592-.732.487-2.111 1.192-2.891 1.479-1.117.41-2.37.7-3.566.828-1.574.167-3.499.034-5-.346-4.95-1.253-8.875-4.976-10.348-9.814-.256-.84-.414-1.589-.363-1.721.095-.251.08-.25 2.045-.276l1.832-.025.117-.135a.53.53 0 0 0 .039-.607c-.165-.236-.268-.248-2.24-.248-2.143 0-2 .035-2.059-.516-.045-.42.004-1.67.07-1.795.099-.184.29-.203 2.192-.203h1.832l.142-.14c.197-.198.197-.471 0-.692l-.142-.158-1.824-.014c-1.924-.014-1.92-.014-2.006-.242-.077-.201.243-1.473.654-2.596.225-.615.906-1.996 1.264-2.56.747-1.182 1.91-2.526 2.918-3.371 2.245-1.884 4.871-3.019 7.752-3.348a15.65 15.65 0 0 1 1.634-.074zm-.177 4.268c-.686.045-1.24.33-1.608.83-.298.405-.408.638-.812 1.702-.717 1.886-.752 1.915-2.147 1.716-1.235-.175-1.951-.114-2.578.221-.534.286-.939.832-1.125 1.516-.115.422-.114 1.364.002 1.978.267 1.408.842 2.738 1.883 4.366.275.429.906 1.455 1.406 2.279 1.401 2.31 2.029 3.25 2.81 4.209.714.876 1.397 1.43 1.932 1.564.33.083.826.023 1.153-.138 1.01-.5 2.107-1.89 4.181-5.297a163.903 163.903 0 0 1 1.905-3.069 12.837 12.837 0 0 0 1.402-3.117c.384-1.35.363-2.648-.055-3.422a2.313 2.313 0 0 0-.943-.898c-.655-.313-1.33-.368-2.46-.2-.779.117-.995.121-1.243.022-.3-.12-.468-.425-.987-1.808-.358-.956-.606-1.435-.93-1.784-.46-.497-1.049-.718-1.786-.67zm.17 8.059c.5 0 1.038.398 1.18.873.11.37.115 5.7.005 6.066a1.204 1.204 0 0 1-.603.721c-.72.365-1.59-.001-1.793-.754-.033-.12-.044-1.211-.036-3.097.014-2.888.015-2.917.12-3.112.21-.394.7-.697 1.127-.697z" id="path13228" opacity="1" fill="#fff" fill-opacity="1" stroke="none" stroke-width=".034" stroke-miterlimit="4" stroke-dasharray="none" stroke-opacity="1"/></svg>