<svg xmlns="http://www.w3.org/2000/svg" xmlns:xlink="http://www.w3.org/1999/xlink" width="48" height="48" version="1.1" id="svg38"><defs id="defs22"><linearGradient id="linearGradient4481"><stop offset="0" id="stop4483" stop-color="#ffca82" stop-opacity="1"/><stop offset="1" id="stop4485" stop-color="#ff9d17" stop-opacity="1"/></linearGradient><linearGradient id="linearGradient4488"><stop id="stop4490" offset="0" stop-color="#000" stop-opacity=".047"/><stop id="stop4492" offset="1" stop-color="#000" stop-opacity="0"/></linearGradient><style id="style4511"/><style id="style4511-26"/><style id="style4511-9"/><style id="style4552"/><style id="style4511-2"/><linearGradient xlink:href="#linearGradient4488" id="linearGradient4483" gradientUnits="userSpaceOnUse" gradientTransform="translate(-62.91 2.216) scale(.3038)" x1="288.112" y1="141.785" x2="287.575" y2="79.008"/><linearGradient xlink:href="#linearGradient4481" id="linearGradient4487" x1="4.719" y1="9.858" x2="43.514" y2="39.484" gradientUnits="userSpaceOnUse"/></defs><style id="style4485" type="text/css"/><path d="M2.729 26.443v1.668c0 9.575 5.583 17.282 17.145 17.282h6.93c15.133 0 17.837-11.322 17.837-17.282v-1.668c0 5.96-2.704 17.282-17.836 17.282h-6.93c-11.563 0-17.146-7.708-17.146-17.282z" id="path4479" opacity="1" fill="url(#linearGradient4483)" fill-opacity="1" stroke="none" stroke-width="1.1" stroke-linecap="square" stroke-linejoin="bevel" stroke-miterlimit="4" stroke-dasharray="none" stroke-dashoffset="0" stroke-opacity=".078"/><path d="M19.342 2.965h8.495c13.907 0 16.804 11.246 16.804 17.282v7.123c0 5.96-2.704 17.282-17.836 17.282h-6.93c-11.563 0-17.146-7.708-17.146-17.282v-7.123c0-9.575 5.47-17.282 16.613-17.282z" id="path4481" opacity="1" fill="url(#linearGradient4487)" fill-opacity="1" stroke="#000" stroke-width=".334" stroke-linecap="square" stroke-linejoin="bevel" stroke-miterlimit="4" stroke-dasharray="none" stroke-dashoffset="0" stroke-opacity=".078"/><path d="M23.435 8.315c-2.31.04-4.63.597-6.795 1.697-4.087 2.079-7.092 5.95-8.088 10.418a16.104 16.104 0 0 0-.17 5.916 15.574 15.574 0 0 0 2.62 6.405c2.611 3.68 6.6 6.022 11.101 6.52.226.024 1.032.038 1.79.03 1.582-.016 2.2-.091 3.52-.418 2.511-.62 4.68-1.772 6.673-3.543 2.412-2.145 4.164-5.208 4.806-8.402.235-1.167.291-1.763.291-3.105 0-1.35-.058-1.96-.293-3.118a15.635 15.635 0 0 0-4.775-8.373 15.52 15.52 0 0 0-10.68-4.027zm.272 1.041c.6 0 1.193.025 1.609.074 3.33.394 6.3 1.836 8.652 4.203 1.871 1.884 3.116 4.094 3.774 6.696.18.712.202.946.097 1.09-.065.089-.158.096-1.906.119l-1.838.023-.148.143c-.121.116-.147.18-.147.353 0 .17.028.24.141.354l.14.14h1.842c2.033 0 2.14.014 2.213.276.021.075.035.544.033 1.043-.003.834-.01.917-.101 1.039l-.098.133-1.937.023-1.938.025-.148.141a.498.498 0 0 0-.031.69l.117.134 1.836.026c1.718.022 1.842.029 1.937.115.145.131.13.373-.064 1.142-.903 3.569-3.01 6.545-6.088 8.592-.732.487-2.111 1.192-2.89 1.479-1.118.41-2.37.7-3.567.828-1.573.167-3.499.034-5-.346-4.95-1.253-8.875-4.976-10.348-9.814-.256-.84-.413-1.589-.363-1.72.095-.252.08-.25 2.045-.276l1.832-.026.117-.134a.53.53 0 0 0 .04-.608c-.166-.236-.27-.248-2.241-.248-2.143 0-2 .035-2.059-.516-.045-.42.004-1.67.07-1.795.099-.183.29-.203 2.192-.203h1.832l.143-.14c.197-.197.196-.471 0-.692l-.143-.158-1.824-.014c-1.924-.014-1.92-.014-2.006-.242-.077-.201.244-1.473.654-2.595.225-.616.907-1.996 1.264-2.561.748-1.182 1.91-2.526 2.918-3.371 2.245-1.884 4.872-3.019 7.752-3.348a15.65 15.65 0 0 1 1.635-.074zm-.178 4.268c-.686.044-1.24.33-1.608.83-.297.404-.408.637-.812 1.7-.717 1.887-.751 1.916-2.147 1.718-1.234-.176-1.951-.115-2.578.22-.533.286-.938.832-1.125 1.516-.115.422-.114 1.365.002 1.979.267 1.408.842 2.737 1.883 4.365.275.43.907 1.455 1.406 2.279 1.401 2.31 2.03 3.25 2.81 4.209.715.876 1.398 1.43 1.933 1.564.33.083.825.023 1.152-.138 1.01-.5 2.107-1.89 4.182-5.297A163.903 163.903 0 0 1 30.53 25.5a12.837 12.837 0 0 0 1.402-3.118c.384-1.35.363-2.648-.054-3.421a2.313 2.313 0 0 0-.944-.899c-.655-.313-1.33-.368-2.459-.2-.78.117-.996.122-1.244.022-.3-.12-.467-.425-.986-1.808-.359-.956-.607-1.435-.93-1.783-.46-.498-1.05-.718-1.787-.67zm.17 8.058c.5 0 1.038.399 1.18.873.11.37.115 5.7.005 6.067a1.204 1.204 0 0 1-.603.72c-.72.365-1.59 0-1.793-.754-.032-.119-.044-1.21-.035-3.097.013-2.888.015-2.917.119-3.112.211-.394.7-.697 1.127-.697z" id="path13228" opacity="1" fill="#fff" fill-opacity="1" stroke="none" stroke-width=".034" stroke-miterlimit="4" stroke-dasharray="none" stroke-opacity="1"/></svg>