<svg xmlns:osb="http://www.openswatchbook.org/uri/2009/osb" xmlns="http://www.w3.org/2000/svg" xmlns:xlink="http://www.w3.org/1999/xlink" width="48" height="48" version="1.1" id="svg38"><defs id="defs22"><linearGradient id="linearGradient4488"><stop id="stop4490" offset="0" stop-color="#000" stop-opacity=".047"/><stop id="stop4492" offset="1" stop-color="#000" stop-opacity="0"/></linearGradient><style id="style4511"/><style id="style4511-26"/><style id="style4511-9"/><style id="style4552"/><style id="style4511-2"/><linearGradient xlink:href="#linearGradient4488" id="linearGradient4540" gradientUnits="userSpaceOnUse" gradientTransform="translate(-62.889 1.994) scale(.3038)" x1="288.112" y1="141.785" x2="287.575" y2="79.008"/><linearGradient osb:paint="solid" id="linearGradient5293"><stop id="stop5295" offset="0" stop-color="#9a89c0" stop-opacity="1"/></linearGradient></defs><style id="style4485" type="text/css"/><g id="g1375" transform="matrix(1.0148 0 0 1.01458 -.039 .225)"><path d="M2.75 26.22v1.67c0 9.573 5.583 17.281 17.146 17.281h6.93c15.132 0 17.836-11.322 17.836-17.282v-1.668c0 5.96-2.704 17.282-17.836 17.282h-6.93C8.333 43.503 2.75 35.795 2.75 26.22z" id="path4516" opacity="1" fill="url(#linearGradient4540)" fill-opacity="1" stroke="none" stroke-width="1.1" stroke-linecap="square" stroke-linejoin="bevel" stroke-miterlimit="4" stroke-dasharray="none" stroke-dashoffset="0" stroke-opacity=".078"/><path d="M19.363 2.742h8.495c13.908 0 16.804 11.247 16.804 17.282v7.124c0 5.96-2.704 17.282-17.836 17.282h-6.93C8.333 44.43 2.75 36.722 2.75 27.148v-7.124c0-9.574 5.47-17.282 16.613-17.282z" id="path4518" opacity="1" fill="#ececec" fill-opacity="1" stroke="#000" stroke-width=".334" stroke-linecap="square" stroke-linejoin="bevel" stroke-miterlimit="4" stroke-dasharray="none" stroke-dashoffset="0" stroke-opacity=".078"/><g id="g677"><g id="g966" transform="matrix(.54213 0 0 .6377 46.616 -144.983)"><path d="M-198.81 22.504c-9.082 0-17.19.16-24.426.586-3.619.212-7.018.49-10.213.847-3.195.357-6.185.793-8.983 1.319-2.797.526-5.403 1.144-7.828 1.865-2.425.721-4.67 1.545-6.748 2.486a38.841 38.841 0 0 0-5.744 3.186 32.682 32.682 0 0 0-4.816 3.96 32.666 32.666 0 0 0-3.967 4.811 38.779 38.779 0 0 0-3.19 5.739c-.942 2.075-1.77 4.318-2.492 6.74-.722 2.422-1.34 5.024-1.867 7.818a121.27 121.27 0 0 0-1.32 8.973c-.358 3.192-.637 6.59-.85 10.205-.426 7.23-.588 15.33-.588 24.402v58.125c0 9.073.162 17.173.588 24.403.213 3.614.492 7.011.85 10.203a121.27 121.27 0 0 0 1.32 8.973c.527 2.794 1.145 5.396 1.867 7.818.722 2.422 1.55 4.665 2.492 6.74a38.779 38.779 0 0 0 3.19 5.738 32.666 32.666 0 0 0 3.967 4.811 32.682 32.682 0 0 0 4.816 3.96 38.841 38.841 0 0 0 5.744 3.186c2.078.942 4.323 1.768 6.748 2.489 2.425.72 5.031 1.337 7.828 1.863 2.798.526 5.788.962 8.983 1.318 3.195.357 6.594.636 10.213.848 7.236.425 15.344.588 24.425.588h73.938c9.081 0 17.19-.163 24.426-.588 3.618-.212 7.02-.49 10.215-.848 3.195-.356 6.185-.792 8.982-1.318 2.797-.526 5.401-1.142 7.826-1.863 2.425-.721 4.67-1.547 6.748-2.489a38.842 38.842 0 0 0 5.744-3.185 32.699 32.699 0 0 0 4.819-3.961 32.654 32.654 0 0 0 3.965-4.81 38.785 38.785 0 0 0 3.191-5.739c.943-2.075 1.768-4.318 2.49-6.74.722-2.422 1.342-5.024 1.87-7.818a122.34 122.34 0 0 0 1.32-8.973c.357-3.192.634-6.589.847-10.203.426-7.23.588-15.33.588-24.403v-58.125c0-9.072-.162-17.173-.588-24.402a195.68 195.68 0 0 0-.847-10.205 121.331 121.331 0 0 0-1.32-8.973c-.528-2.794-1.148-5.396-1.87-7.818-.722-2.422-1.547-4.665-2.49-6.74a38.785 38.785 0 0 0-3.191-5.739 32.654 32.654 0 0 0-3.965-4.81 32.7 32.7 0 0 0-4.819-3.961 38.842 38.842 0 0 0-5.744-3.186c-2.078-.94-4.323-1.765-6.748-2.486-2.425-.721-5.029-1.339-7.826-1.865a121.755 121.755 0 0 0-8.982-1.318 195.805 195.805 0 0 0-10.215-.848c-7.237-.425-15.345-.586-24.426-.586z" id="path976" transform="translate(1.535 227.879) scale(.26998)" opacity=".2" stroke-width="4.375"/><path id="rect6" fill="#f4f1ef" stroke="#f4f1ef" stroke-width="3.307" d="M-64.2 250.237l34.27-9.827 9.826 34.269-34.269 9.826z"/><path d="M-287.146 80.328c-22.347-.857-18.907 29.005-18.95 30.315-.051 1.578-.252 17.697.075 27.7l-.279 28.664c-.05 5.209 4.021 20.111 6.628 25.71 1.566 3.57 4.068 9.19 5.6 12.337 1.82 3.82 3.77 6.042 5.43 8.836 1.508 2.73 4.899 6.52 7.098 8.817 1.956 2.043 3.12 2.454 4.328 3.65 1.584 1.396 2.506 2.517 4.495 4.09 1.189 1.753 3.693.347 5.153 1.805a32.682 32.682 0 0 0 4.816 3.96c1.367.925 2.91 1.708 4.47 2.481 18.027-4.195 35.377-12.106 51.173-28.574l-36.403-126.937c-11.849-1.34-22.984-2.028-33.4-2.045v-.008c-1.482-.002-17.323.375-18.764.418z" id="path8" transform="translate(1.535 227.879) scale(.26998)" fill="#48c39e" stroke-width="4.375"/><path d="M-209.922 246.236c3.738.077 14.474 10.251 14.474 10.251l70.468-.545c3.372-.026 20.132-2.152 26.995-3.893 3.778-.893 7.131-1.677 9.924-2.694 2.608-.742 5.695-2.086 8.283-3.15 2.709-1.112 4.81-1.964 7.182-3.138 2.371-1.04 4.517-2.354 6.454-3.35 2.016-1.038 3.87-2.093 5.55-3.312 1.707-1.237 3.02-2.695 4.479-4.153a32.654 32.654 0 0 0 3.965-4.81c.686-1.013 1.239-2.195 1.841-3.313-3.24-18.72-10.752-36.372-29.863-51.125h-.002l-126.934 36.402c-3.136 12.828-3.85 25.048-2.816 36.83z" id="path10" transform="translate(1.535 227.879) scale(.26998)" fill="#d81768" stroke-width="4.375"/><path d="M-21.093 174.547c.086-3.916 2.026-7.781 2.029-12.134l.026-53.283c.003-4.92-2.255-17.392-4.115-24.108-.976-3.523-2.545-7.87-3.81-11.085-1.197-3.04-2.815-6.833-5.305-10.782-1.572-2.495-4.082-6.576-5.925-9.044-1.576-2.11-3.816-4.96-5.773-7.149-1.584-1.77-4.38-4.482-6.047-5.965a189.23 189.23 0 0 0-5.406-4.606c-1.727-1.412-3.57-2.66-5.326-3.848-1.756-1.186-3.666-2.176-5.744-3.117-2.078-.941-4.51-1.584-6.935-2.305-2.425-.721-5.029-1.339-7.826-1.865-2.173-.409-4.567-.719-6.979-1.024-11.416 4.601-21.247 11.467-28.343 22.243l36.402 126.937c13.47 2.78 47.081 2.405 59.077 1.135z" id="path991" transform="translate(1.535 227.879) scale(.26998)" fill="#ecb524" stroke-width="4.375"/><path d="M-110.916 22.838c-4.573-.125-9.523-8.266-14.712-8.291l-72.956-.353c-7.172-.035-16.763 1.016-23.585 2.339-3.536.686-8.565 1.807-11.68 2.753-3.035.923-6.346 1.95-8.956 2.975-2.601 1.022-6.058 2.333-8.309 3.385-2.318 1.084-4.11 2.09-6.134 3.1-2.078.94-3.961 2.52-5.717 3.707-1.757 1.187-3.144 2.843-4.603 4.3-.255.255-.446.576-.692.839 6.24 15.519 14.47 30.695 24.748 45.52l126.936-36.403c3.408-8.591 5.076-16.457 5.66-23.871z" id="path971" transform="translate(1.535 227.879) scale(.26998)" fill="#81d2e0" stroke-width="4.375"/><path d="M-274.481 228.938c1.061 1.488 4.098 3.546 5.632 4.675 2.18 1.594 3.54 2.502 5.296 3.689a63.426 63.426 0 0 0 5.771 3.435 115.724 115.724 0 0 0 7.736 3.69c2.425 1.085 4.9 2.011 7.508 3.021 2.53.98 5.867 2.278 8.715 3.156 3.035.947 8.356 2.178 12.135 2.845 7.29 1.514 15.837 2.558 17.727 2.675 3.629.288 7.358.553 11.028.34l-14.172-46.71z" id="path16" transform="translate(1.535 227.879) scale(.26998)" fill="#390f39" stroke-width="4.375"/><path d="M-259.051 29.762c-1.437.728-2.671 1.583-3.941 2.441-1.676.915-2.663 1.55-5.11 3.303-1.722 1.233-3.686 2.512-5.168 4.04-1.962 1.844-3.368 3.132-5.004 4.716-2.112 2.047-4.804 4.59-6.469 6.65-1.977 2.445-2.691 3.483-5.22 7.503-2.452 3.66-4.913 7.925-7.044 12.977-1.318 3.283-2.98 6.828-4.02 10.124-1.154 3.586-4.661 14.31-4.754 18.87l62.11-17.32z" id="path981" transform="translate(1.535 227.879) scale(.26998)" fill="#20a48e" stroke-width="4.375"/><path d="M-62.785 31.34c-.961-.717-1.358-.804-3.65-2.277-1.423-.914-2.963-1.63-5.975-3.19-2.193-1.136-4.399-2.072-7.025-3.045-2.584-.957-6.108-2.05-9.356-3.065-3.025-.945-7.053-1.725-10.562-2.504-6.405-1.422-16.697-2.645-25.167-2.663l7.946 32.113z" id="path986" transform="translate(1.535 227.879) scale(.26998)" fill="#77971f" stroke-width="4.375"/><path d="M-61.803 237.165c.331-.208.87-.463 1.192-.68 1.596-.983 3.798-2.407 5.525-3.82 1.726-1.185 4.07-2.92 5.632-4.447 2.44-1.855 5.093-4.883 6.526-6.541 1.99-1.974 3.442-4.096 5.42-7.018 1.466-2.166 4.566-7.168 6.121-9.67 1.568-2.522 3.634-8.077 5.083-11.037 1.452-2.965 3.381-9.27 4.371-12.79 2.086-7.422 2.577-10.426 2.753-19.498l.149-5.794-61.14 17.47z" id="path22" transform="translate(1.535 227.879) scale(.26998)" fill="#d5100d" stroke-width="4.375"/></g></g><path id="path26" d="M29.68 26.007c0 1.502-.488 2.653-1.464 3.454-.97.8-2.402 1.201-4.297 1.201-1.312 0-2.452-.22-3.421-.66-.962-.44-1.746-1.151-2.352-2.133l2.32-1.862c.997 1.13 2.22 1.532 3.517 1.637.82 0 1.457-.14 1.913-.423.463-.288.728-.412.728-.997 0-.332-.115-.61-.279-.834-.157-.223-.396-.414-.716-.573-.32-.166-.877-.354-1.668-.563-.77-.21-1.805-.419-2.489-.628a6.804 6.804 0 0 1-1.764-.833 3.75 3.75 0 0 1-1.165-1.278c-.285-.512-.428-1.158-.428-1.937 0-1.422.474-2.53 1.422-3.324.948-.8 2.614-1.201 4.382-1.201 2.558 0 4.368.888 5.43 2.663l-2.298 1.506c-.407-.635-.863-1.09-1.369-1.364s-1.108-.411-1.806-.411c-1.511.02-2.4.397-2.671 1.825 0 .484.228.933.684 1.193.456.253 1.56.51 2.692.769.627.166 1.247.346 1.86.541a5.662 5.662 0 0 1 1.636.79c.484.34.873.783 1.165 1.332.292.548.438 1.252.438 2.11" fill="#5a3856" stroke-width=".776"/></g></svg>