<svg xmlns:osb="http://www.openswatchbook.org/uri/2009/osb" xmlns="http://www.w3.org/2000/svg" xmlns:xlink="http://www.w3.org/1999/xlink" width="48" height="48" version="1.1" id="svg38"><defs id="defs22"><style id="style4511"/><style id="style4511-26"/><style id="style4511-9"/><style id="style4552"/><style id="style4511-2"/><linearGradient osb:paint="solid" id="linearGradient5293"><stop id="stop5295" offset="0" stop-color="#9a89c0" stop-opacity="1"/></linearGradient><linearGradient id="linearGradient3764-6" x1="1" x2="47" gradientUnits="userSpaceOnUse" gradientTransform="rotate(-90 24 24)"><stop stop-color="#d1d1d1" stop-opacity="1" id="stop2-7-6"/><stop offset="1" stop-color="#dbdbdb" stop-opacity="1" id="stop4-5-2"/></linearGradient><linearGradient xlink:href="#linearGradient3764-6" id="linearGradient1301" x1="2.583" y1="23.942" x2="45.236" y2="23.942" gradientUnits="userSpaceOnUse"/></defs><style id="style4485" type="text/css"/><path id="path4518" d="M19.525 2.846H28.1c14.042 0 16.966 11.383 16.966 17.491v7.21c0 6.031-2.73 17.491-18.008 17.491h-6.996c-11.674 0-17.311-7.801-17.311-17.491v-7.21c0-9.69 5.523-17.491 16.773-17.491z" opacity="1" fill="url(#linearGradient1301)" fill-opacity="1" stroke="#000" stroke-width=".338" stroke-linecap="square" stroke-linejoin="bevel" stroke-miterlimit="4" stroke-dasharray="none" stroke-dashoffset="0" stroke-opacity=".078"/><g id="g1293" transform="matrix(.83133 0 0 .76289 45.057 9.113)" stroke-width=".922"><path id="path1263" d="M-17.704 11.91l-21.073 20.511c2.738 3.184 6.852 5.204 11.47 5.204 8.283 0 14.95-6.49 14.95-14.55 0-4.496-2.076-8.5-5.347-11.165z" fill="#909004"/><path id="path1267" d="M-23.569 1.25c-8.282 0-14.95 6.49-14.95 14.55 0 4.496 2.077 8.5 5.348 11.165l21.073-20.511C-14.836 3.27-18.95 1.25-23.568 1.25z" fill="#c5c520"/></g></svg>