<svg xmlns="http://www.w3.org/2000/svg" xmlns:xlink="http://www.w3.org/1999/xlink" width="48" height="48" version="1.1" id="svg38"><defs id="defs22"><linearGradient id="linearGradient4488"><stop id="stop4490" offset="0" stop-color="#000" stop-opacity=".047"/><stop id="stop4492" offset="1" stop-color="#000" stop-opacity="0"/></linearGradient><style id="style4511"/><style id="style4511-26"/><style id="style4511-9"/><style id="style4552"/><style id="style4511-2"/><linearGradient gradientTransform="translate(-63.205 2.216) scale(.3038)" xlink:href="#linearGradient4488" id="linearGradient4160" x1="288.112" y1="141.785" x2="287.575" y2="79.008" gradientUnits="userSpaceOnUse"/><linearGradient gradientTransform="translate(-385.318 -496.09)" gradientUnits="userSpaceOnUse" x2="417.53" y2="533.46" x1="417.87" y1="516.47" id="c-709-6-3-8"><stop id="stop5592-2-6-7" stop-color="#1d99f3"/><stop id="stop5594-6-0-9" stop-color="#2972a7" offset="1"/></linearGradient><linearGradient gradientTransform="translate(-385.443 -497.877)" gradientUnits="userSpaceOnUse" x2="401.92" y2="532.44" x1="401.58" y1="513.81" id="b-12-1-7-2"><stop id="stop5587-8-0-6" stop-color="#9559b6"/><stop id="stop5589-7-9-1" stop-color="#8e44ad" offset="1"/></linearGradient></defs><style id="style4485" type="text/css"/><path d="M2.433 26.443v1.668c0 9.575 5.583 17.282 17.146 17.282h6.93c15.133 0 17.837-11.322 17.837-17.282v-1.668c0 5.96-2.704 17.282-17.837 17.282h-6.93c-11.563 0-17.146-7.708-17.146-17.282z" id="path4147" opacity="1" fill="url(#linearGradient4160)" fill-opacity="1" stroke="none" stroke-width="1.1" stroke-linecap="square" stroke-linejoin="bevel" stroke-miterlimit="4" stroke-dasharray="none" stroke-dashoffset="0" stroke-opacity=".078"/><path d="M19.046 2.965h8.495c13.908 0 16.805 11.246 16.805 17.282v7.123c0 5.96-2.704 17.282-17.837 17.282h-6.93c-11.562 0-17.146-7.708-17.146-17.282v-7.123c0-9.575 5.47-17.282 16.613-17.282z" id="rect4144" opacity="1" fill="#e3e7ea" fill-opacity="1" stroke="#000" stroke-width=".334" stroke-linecap="square" stroke-linejoin="bevel" stroke-miterlimit="4" stroke-dasharray="none" stroke-dashoffset="0" stroke-opacity=".078"/><g id="g6057" transform="translate(.098 -2.257)"><path d="M26.902 20.14l-.86 4.29 5.21 3.256-6.703 4.19-1.15 5.731 14.854-9.902z" id="path5615-9-2" fill="url(#c-709-6-3-8)"/><path d="M23.127 15.923l-15 10 11.514 7.676.869-4.332-5.383-3.363 6.926-4.328 1.125-5.617z" id="path5617-2-0" fill="url(#b-12-1-7-2)"/></g></svg>