<svg xmlns="http://www.w3.org/2000/svg" xmlns:xlink="http://www.w3.org/1999/xlink" width="48" height="48" version="1.1" id="svg38"><defs id="defs22"><linearGradient id="linearGradient4488"><stop id="stop4490" offset="0" stop-color="#000" stop-opacity=".047"/><stop id="stop4492" offset="1" stop-color="#000" stop-opacity="0"/></linearGradient><style id="style4511"/><style id="style4511-26"/><style id="style4511-9"/><linearGradient id="linearGradient4223"><stop id="stop7-6-2" offset="0" stop-color="#c6cdd1" stop-opacity="1"/><stop id="stop9-7-3" offset="1" stop-color="#e0e5e7" stop-opacity="1"/></linearGradient><style id="style4552"/><linearGradient id="b-2-9" y1="540.92" y2="522.55" x2="0" gradientUnits="userSpaceOnUse" gradientTransform="matrix(1 0 0 1.14286 0 -77.4)"><stop stop-color="#197cf1" id="stop7-91"/><stop offset="1" stop-color="#05a0eb" id="stop9-2"/></linearGradient><style id="style4511-2"/><linearGradient gradientTransform="translate(-62.63 2.36) scale(.3038)" xlink:href="#linearGradient4488" id="linearGradient4160" x1="288.112" y1="141.785" x2="287.575" y2="79.008" gradientUnits="userSpaceOnUse"/><linearGradient xlink:href="#linearGradient4223" id="linearGradient1151" x1="2.266" y1="23.808" x2="44.513" y2="23.808" gradientUnits="userSpaceOnUse" gradientTransform="translate(.575 .144)"/><linearGradient xlink:href="#b-2-9" id="linearGradient1181" x1="12.665" y1="23.808" x2="34.114" y2="23.808" gradientUnits="userSpaceOnUse" gradientTransform="matrix(1.10627 0 0 1.11956 -1.91 -2.703)"/></defs><style id="style4485" type="text/css"/><path d="M3.008 26.587v1.668c0 9.574 5.584 17.282 17.146 17.282h6.93c15.133 0 17.837-11.322 17.837-17.282v-1.668c0 5.96-2.704 17.282-17.836 17.282h-6.93c-11.563 0-17.147-7.708-17.147-17.282z" id="path4147" opacity="1" fill="url(#linearGradient4160)" fill-opacity="1" stroke="none" stroke-width="1.1" stroke-linecap="square" stroke-linejoin="bevel" stroke-miterlimit="4" stroke-dasharray="none" stroke-dashoffset="0" stroke-opacity=".078"/><path d="M19.622 3.108h8.495c13.907 0 16.804 11.247 16.804 17.282v7.124c0 5.96-2.704 17.282-17.836 17.282h-6.93c-11.563 0-17.146-7.708-17.146-17.282V20.39c0-9.574 5.47-17.282 16.613-17.282z" id="rect4144" opacity="1" fill="url(#linearGradient1151)" fill-opacity="1" stroke="#000" stroke-width=".334" stroke-linecap="square" stroke-linejoin="bevel" stroke-miterlimit="4" stroke-dasharray="none" stroke-dashoffset="0" stroke-opacity=".078"/><g id="g4056" transform="matrix(1.20001 0 0 1.18566 -4.704 -4.387)" fill-opacity="1" stroke="none" stroke-linecap="butt" stroke-linejoin="miter" stroke-opacity="1"><ellipse ry="12.007" rx="11.864" cy="23.952" cx="23.965" id="path6949" fill="url(#linearGradient1181)" fill-rule="evenodd" stroke-width="1.232"/><path id="path8457-1" d="M20.424 23.98c-.036-3.425-.052-6.24-.034-6.256.026-.024 9.527 5.796 10.142 6.213.19.129 0 .253-4.86 3.176a919.278 919.278 0 0 1-5.12 3.067c-.035.014-.092-2.776-.128-6.2z" fill="#fff" stroke-width="1.113"/></g></svg>