<svg xmlns:osb="http://www.openswatchbook.org/uri/2009/osb" xmlns="http://www.w3.org/2000/svg" xmlns:xlink="http://www.w3.org/1999/xlink" width="48" height="48" version="1.1" id="svg38"><defs id="defs22"><linearGradient x2="0" gradientUnits="userSpaceOnUse" y2="531.8" y1="540.8" id="linearGradient3059"><stop id="stop3055" stop-color="#22e1fd" stop-opacity="1"/><stop id="stop3057" stop-color="#0b53b6" offset="1" stop-opacity="1"/></linearGradient><style id="style4511"/><style id="style4511-26"/><style id="style4511-9"/><style id="style4552"/><style id="style4511-2"/><style id="style4511-8"/><style id="style4511-26-4"/><style id="style4511-9-7"/><style id="style4552-3"/><style id="style4511-2-8"/><style id="style4552-7"/><style id="style4552-6"/><style id="style4552-73"/><style id="style4552-2"/><linearGradient osb:paint="solid" id="linearGradient5251"><stop id="stop5253" offset="0" stop-color="#2f343f" stop-opacity="1"/></linearGradient><filter id="filter-1" filterUnits="objectBoundingBox" height="200%" width="200%" y="-50%" x="-50%"><feOffset id="feOffset1002" result="shadowOffsetOuter1" in="SourceAlpha" dy="1" dx="0"/><feGaussianBlur id="feGaussianBlur1004" result="shadowBlurOuter1" in="shadowOffsetOuter1" stdDeviation="1"/><feColorMatrix id="feColorMatrix1006" result="shadowMatrixOuter1" in="shadowBlurOuter1" type="matrix" values="0 0 0 0 0 0 0 0 0 0 0 0 0 0 0 0 0 0 0.2 0"/><feMerge id="feMerge1012"><feMergeNode id="feMergeNode1008" in="shadowMatrixOuter1"/><feMergeNode id="feMergeNode1010" in="SourceGraphic"/></feMerge></filter><style id="style4511-87"/><style id="style4511-26-6"/><style id="style4511-9-1"/><style id="style4552-8"/><style id="style4511-2-5"/><style id="style4511-879"/><style id="style4511-26-65"/><style id="style4511-9-2"/><style id="style4552-89"/><style id="style4511-2-1"/><style id="style4511-8-0"/><style id="style4511-26-4-0"/><style id="style4511-9-7-9"/><style id="style4552-3-4"/><style id="style4511-2-8-7"/><style id="style4552-7-4"/><style id="style4552-6-8"/><style id="style4552-73-7"/><style id="style4552-2-2"/><style id="style4511-87-2"/><style id="style4511-26-6-4"/><style id="style4511-9-1-7"/><style id="style4552-8-9"/><linearGradient id="b-2-9-4-7" y1="540.92" y2="522.55" x2="0" gradientUnits="userSpaceOnUse" gradientTransform="matrix(1 0 0 1.14286 0 -77.4)"><stop stop-color="#22e1fd" id="stop7-91-81-7" stop-opacity="1"/><stop offset="1" stop-color="#0b53b6" id="stop9-2-2-9" stop-opacity="1"/></linearGradient><style id="style4511-2-5-0"/><linearGradient xlink:href="#linearGradient3059" id="linearGradient3039" x1="2.799" y1="24.11" x2="45.043" y2="24.11" gradientUnits="userSpaceOnUse"/><linearGradient xlink:href="#b-2-9-4-7" id="linearGradient3047" x1="2.799" y1="24.11" x2="45.043" y2="24.11" gradientUnits="userSpaceOnUse"/><style id="style4511-8792"/><style id="style4511-26-3"/><style id="style4511-9-0"/><style id="style4552-86"/><style id="style4511-2-84"/></defs><style id="style4485" type="text/css"/><style type="text/css" id="style4485-0"/><style id="style4485-4" type="text/css"/><style id="style4485-5" type="text/css"/><style id="style4485-3" type="text/css"/><style id="style4485-5-1" type="text/css"/><g id="layer1" display="inline"><path id="path4530" d="M19.578 3.593h8.495c13.907 0 16.804 11.07 16.804 17.012v7.011c0 5.866-2.704 17.012-17.836 17.012h-6.93c-11.563 0-17.147-7.587-17.147-17.012v-7.011c0-9.425 5.47-17.012 16.614-17.012z" opacity="1" fill="url(#linearGradient3047)" fill-opacity="1" stroke="url(#linearGradient3039)" stroke-width=".332" stroke-linecap="square" stroke-linejoin="bevel" stroke-miterlimit="4" stroke-dasharray="none" stroke-dashoffset="0" stroke-opacity=".078"/><path d="M23.23 3.592l.002.002h-3.654c-.747 0-1.458.047-2.152.115l-.01-.01c-1.895.181-3.606.597-5.125 1.223l.01.01a14.375 14.375 0 0 0-3.598 2.136L8.7 7.064l-.06.053c-.06.049-.124.093-.182.143l.008.01a14.335 14.335 0 0 0-2.662 2.996 15.706 15.706 0 0 0-1.795 3.668h39.735a17.426 17.426 0 0 0-.785-1.85l.004-.004-.033-.06-.037-.08-.004.003c-.293-.591-.612-1.206-.985-1.771-.431-.654-.931-1.25-1.484-1.846l.006-.006c-.052-.055-.103-.113-.156-.168-.093-.091-.228-.228-.325-.324-.036-.035-.078-.067-.115-.101a13.555 13.555 0 0 0-.715-.633c-.09-.074-.183-.145-.275-.217-.112-.088-.218-.179-.334-.264l.064.067c-2.2-1.639-5.108-2.79-8.953-3.034h-.012c-.063-.003-.12-.014-.183-.017l.012.012a23.224 23.224 0 0 0-1.362-.05z" id="path3462" opacity="1" fill="#ededed" fill-opacity="1" stroke="none" stroke-width="1.786" stroke-linecap="round" stroke-linejoin="miter" stroke-miterlimit="4" stroke-dasharray="none" stroke-dashoffset="0" stroke-opacity="1"/><path transform="matrix(1 0 0 .98435 -.177 .894)" id="Oval-25" d="M13.517 10.59a1.5 1.5 0 1 0 0-3 1.5 1.5 0 0 0 0 3z" opacity=".447" fill="#537dab" fill-opacity="1" fill-rule="evenodd" stroke="none" stroke-width="1" filter="url(#filter-1)"/><circle transform="matrix(1 0 0 .98435 -.177 .894)" r="1.5" cy="9.09" cx="34.517" id="circle1028" opacity=".447" fill="#71679f" fill-opacity="1" fill-rule="evenodd" stroke="none" stroke-width="1" filter="url(#filter-1)"/><g id="g3381" transform="translate(-51.617 1.767)"><path d="M75.914 23.468l-.223.063c-.39.109-3.87 1.133-4.76 1.401l-.854.259 1.263.405c.694.223 2.001.638 2.906.924l1.647.519.353-.115c4.43-1.436 5.293-1.72 5.293-1.746 0-.011-1.267-.401-2.814-.866zm-8.507 3.47c-.019-.026-.024-.004-.013.062.02.113.082 9.276.067 9.878l-.008.357.184.055c.102.03 1.23.412 2.505.85l3.256 1.117c.516.177.949.322.961.323.043.004.07-3.028.059-6.668l-.011-3.678-1.063-.345c-.584-.19-2.151-.696-3.484-1.126-1.332-.43-2.436-.8-2.453-.824zm16.902.129c-.091.027-6.694 2.071-6.837 2.117l-.122.037.024 4.021c.013 2.212.024 4.553.024 5.202v1.18l.078-.026c.044-.014 1.61-.547 3.48-1.185l3.396-1.158.009-5.104c.008-4.85.006-5.102-.053-5.084z" id="path6563-8" fill="#eee" stroke="none" stroke-width=".011" stroke-miterlimit="4" stroke-dasharray="none" stroke-opacity="1" fill-opacity="1"/></g><path transform="matrix(1 0 0 -.98435 5.84 28.052)" id="Oval-27" d="M28.5 18.5c0-6.627-2.5-13-10.5-13s-10.5 6.373-10.5 13" display="inline" fill="none" fill-rule="evenodd" stroke="#efefef" stroke-width="1.5" stroke-linecap="round" stroke-linejoin="round" stroke-opacity="1" filter="url(#filter-1)"/></g><style type="text/css" id="style4485-1"/><style type="text/css" id="style4485-51"/><style id="style4485-0-9" type="text/css"/><style type="text/css" id="style4485-4-7"/><style type="text/css" id="style4485-5-13"/><style type="text/css" id="style4485-3-1"/><style type="text/css" id="style4485-5-1-2"/><style id="style4485-1-6" type="text/css"/><style type="text/css" id="style4485-7"/></svg>