<svg xmlns:osb="http://www.openswatchbook.org/uri/2009/osb" xmlns="http://www.w3.org/2000/svg" xmlns:xlink="http://www.w3.org/1999/xlink" width="48" height="48" version="1.1" id="svg38"><defs id="defs22"><style id="style4511"/><style id="style4511-26"/><style id="style4511-9"/><style id="style4552"/><style id="style4511-2"/><linearGradient osb:paint="solid" id="linearGradient5293"><stop id="stop5295" offset="0" stop-color="#9a89c0" stop-opacity="1"/></linearGradient><linearGradient gradientTransform="rotate(-90 24 24)" gradientUnits="userSpaceOnUse" x2="47" x1="1" id="linearGradient3764-36"><stop offset="0" id="stop7-75" stop-color="#eb3c00" stop-opacity="1"/><stop id="stop9-35" offset="1" stop-color="#dfd466" stop-opacity="1"/></linearGradient><style id="style4511-8"/><style id="style4511-26-4"/><style id="style4511-9-8"/><style id="style4552-5"/><style id="style4511-2-5"/><linearGradient xlink:href="#linearGradient3764-36" id="linearGradient1991" x1="14.783" y1="24.202" x2="33.379" y2="24.202" gradientUnits="userSpaceOnUse" gradientTransform="matrix(1.04002 0 0 .87501 -1.933 1.754)"/><linearGradient xlink:href="#linearGradient3764-36" id="linearGradient1999" x1="17.101" y1="28.358" x2="31.101" y2="28.358" gradientUnits="userSpaceOnUse" gradientTransform="matrix(1.34638 0 0 .94272 -9.425 2.07)"/></defs><style id="style4485" type="text/css"/><path d="M19.738 3.544h8.495c13.908 0 16.804 11.146 16.804 17.128v7.06c0 5.906-2.704 17.127-17.836 17.127h-6.93c-11.563 0-17.146-7.639-17.146-17.128v-7.06c0-9.488 5.47-17.127 16.613-17.127z" id="path4518" opacity="1" fill="#e6e6e6" fill-opacity="1" stroke="#000" stroke-width=".333" stroke-linecap="square" stroke-linejoin="bevel" stroke-miterlimit="4" stroke-dasharray="none" stroke-dashoffset="0" stroke-opacity=".078"/><style type="text/css" id="style4485-4"/><g id="g2003" transform="matrix(1.10341 0 0 1.06119 -1.421 -1.526)" fill-opacity="1"><path d="M20.35 14.03c-.766 0-1.382.305-1.382.685v10.954h-5.526l9.67 6.162 9.67-6.162h-5.525V14.715c0-.38-.616-.685-1.382-.685z" id="path504" fill="url(#linearGradient1991)" stroke-width=".973"/><path d="M23.503 34.267c-.215.255-.762.255-.976 0l-4.41-5.254-4.446-5.344c-.208-.251.063-.517.49-.517h17.726c.429 0 .698.266.49.517l-4.446 5.365z" id="path14399" fill="url(#linearGradient1999)" fill-rule="evenodd" stroke="none" stroke-width="1.127"/></g></svg>