<svg xmlns:osb="http://www.openswatchbook.org/uri/2009/osb" xmlns="http://www.w3.org/2000/svg" width="48" height="48" version="1.1" id="svg38"><defs id="defs22"><style id="style4511"/><style id="style4511-26"/><style id="style4511-9"/><style id="style4552"/><style id="style4511-2"/><linearGradient osb:paint="solid" id="linearGradient5293"><stop id="stop5295" offset="0" stop-color="#9a89c0" stop-opacity="1"/></linearGradient></defs><style id="style4485" type="text/css"/><path id="path4518" d="M19.525 2.846H28.1c14.042 0 16.966 11.383 16.966 17.491v7.21c0 6.031-2.73 17.491-18.008 17.491h-6.996c-11.674 0-17.311-7.801-17.311-17.491v-7.21c0-9.69 5.523-17.491 16.773-17.491z" opacity="1" fill="#be2e25" fill-opacity="1" stroke="#000" stroke-width=".338" stroke-linecap="square" stroke-linejoin="bevel" stroke-miterlimit="4" stroke-dasharray="none" stroke-dashoffset="0" stroke-opacity=".078"/><path d="M24.21 7.692l.02 14.856.02 14.858h4.846l.012-3.908c.009-3.094.02-3.903.062-3.89.03.01.82 1.195 1.756 2.632a186.611 186.611 0 0 0 1.965 2.973c.298.412.884.982 1.264 1.227.796.514 1.625.78 2.906.926.686.079 3.003.106 3.074.036.031-.03.043-.737.035-2.24l-.011-2.195-.858-.026c-.97-.03-1.179-.07-1.732-.334-.43-.204-.931-.647-1.3-1.151-.131-.18-.793-1.19-1.47-2.244-1.195-1.858-1.23-1.917-1.166-2.013.036-.055 1.526-2.082 3.31-4.505s3.254-4.43 3.266-4.461c.02-.048-.438-.058-2.873-.058H34.44l-2.611 3.544c-1.437 1.95-2.635 3.553-2.663 3.562-.056.019-.065-15.113-.019-17.532-.386-.028-.77-.056-1.163-.056H24.21zm-8.9 10.557c-.624.004-1.232.029-1.524.075-2.402.375-4.102 1.438-5.022 3.14a5.396 5.396 0 0 0-.584 1.694c-.075.422-.082.603-.062 1.29.016.56.046.914.105 1.188.403 1.871 1.555 3.058 3.563 3.677.648.2 1.053.276 2.787.514.963.132 1.697.251 1.851.303.664.223.975.626 1.032 1.333.07.87-.448 1.468-1.487 1.715-.416.1-1.178.154-1.714.126-1.763-.095-2.912-.453-3.909-1.217l-.117-.09-1.51 1.45c-.83.8-1.51 1.485-1.51 1.524 0 .098.697.675 1.23 1.02 1.348.87 2.78 1.278 5.048 1.441.476.034 2.231-.014 2.638-.073 3.051-.44 5.158-1.943 5.848-4.176.32-1.038.314-2.607-.016-3.77-.242-.853-.557-1.39-1.17-1.983-.639-.619-1.19-.938-2.156-1.248-.65-.21-1.198-.311-2.935-.545-1.854-.25-2.073-.312-2.496-.692-.48-.43-.563-1.004-.242-1.63.227-.444.692-.766 1.359-.942.348-.091 1.743-.101 2.299-.017.747.114 1.447.394 1.945.782.145.113.29.206.32.206.083 0 2.971-2.791 2.971-2.871 0-.093-.56-.549-1.101-.898-1.045-.674-2.287-1.086-3.836-1.27-.345-.042-.983-.06-1.605-.055z" id="path1266" fill="#fff" stroke-width=".98"/></svg>