<svg xmlns:osb="http://www.openswatchbook.org/uri/2009/osb" xmlns="http://www.w3.org/2000/svg" xmlns:xlink="http://www.w3.org/1999/xlink" width="48" height="48" version="1.1" id="svg38"><defs id="defs22"><linearGradient id="linearGradient4488"><stop id="stop4490" offset="0" stop-color="#000" stop-opacity=".047"/><stop id="stop4492" offset="1" stop-color="#000" stop-opacity="0"/></linearGradient><style id="style4511"/><style id="style4511-26"/><style id="style4511-9"/><style id="style4552"/><style id="style4511-2"/><linearGradient xlink:href="#linearGradient4488" id="linearGradient4540" gradientUnits="userSpaceOnUse" gradientTransform="matrix(.30797 0 0 .308 -63.79 1.983)" x1="288.112" y1="141.785" x2="287.575" y2="79.008"/><linearGradient osb:paint="solid" id="linearGradient5293"><stop id="stop5295" offset="0" stop-color="#9a89c0" stop-opacity="1"/></linearGradient><style id="style4511-8"/><style id="style4511-26-4"/><style id="style4511-9-8"/><style id="style4552-9"/><style id="style4511-2-4"/></defs><style id="style4485" type="text/css"/><rect id="Mask" x="63.147" y="78.204" width="20.231" height="20.096" rx=".581" fill="#f1f1f1" fill-opacity="1" fill-rule="evenodd" stroke="none" stroke-width=".336"/><style type="text/css" id="style4485-8"/><g id="g1609" fill-opacity="1"><path d="M2.75 26.545v1.691c0 9.707 5.66 17.521 17.38 17.521h7.026c15.34 0 18.081-11.479 18.081-17.52v-1.692c0 6.042-2.74 17.52-18.08 17.52H20.13c-11.721 0-17.381-7.814-17.381-17.52z" id="path4516" opacity="1" fill="url(#linearGradient4540)" stroke="none" stroke-width="1.115" stroke-linecap="square" stroke-linejoin="bevel" stroke-miterlimit="4" stroke-dasharray="none" stroke-dashoffset="0" stroke-opacity=".078"/><path d="M19.59 2.742h8.612c14.099 0 17.035 11.403 17.035 17.521v7.222c0 6.042-2.74 17.52-18.08 17.52H20.13c-11.721 0-17.381-7.814-17.381-17.52v-7.222c0-9.706 5.545-17.52 16.84-17.52z" id="path4518" opacity="1" fill="#4d4d4d" stroke="#000" stroke-width=".339" stroke-linecap="square" stroke-linejoin="bevel" stroke-miterlimit="4" stroke-dasharray="none" stroke-dashoffset="0" stroke-opacity=".078"/><path d="M19.936 4.965h7.857c12.863 0 15.542 10.254 15.542 15.756v6.494c0 5.433-2.501 15.756-16.496 15.756h-6.41c-10.694 0-15.858-7.027-15.858-15.756V20.72c0-8.729 5.06-15.756 15.365-15.756z" id="path4518-0" opacity="1" fill="#e33d3d" stroke="#000" stroke-width=".307" stroke-linecap="square" stroke-linejoin="bevel" stroke-miterlimit="4" stroke-dasharray="none" stroke-dashoffset="0" stroke-opacity=".078"/><g transform="translate(-.672 -1.921)" id="g796" fill="#f9f9f9" fill-rule="nonzero" stroke="none" stroke-width="1.207"><path id="path53" d="M24.812 14.524c2.82 0 5.112 2.039 5.112 4.559v6.833c0 2.52-2.291 4.558-5.112 4.558-2.825 0-5.112-2.043-5.112-4.558v-6.833c0-2.52 2.287-4.559 5.112-4.559m0 0"/><path id="path55" d="M15.866 24.78s0 8.356 7.668 8.334v1.924h-2.556v1.906h7.668v-1.906H26.09v-1.924c7.668.063 7.668-8.333 7.668-8.333H31.95s0 6.828-7.15 6.828c-7.148 0-7.148-6.828-7.148-6.828m-1.787 0"/></g></g></svg>