<svg xmlns:osb="http://www.openswatchbook.org/uri/2009/osb" xmlns="http://www.w3.org/2000/svg" xmlns:xlink="http://www.w3.org/1999/xlink" width="48" height="48" version="1.1" id="svg38"><defs id="defs22"><linearGradient id="linearGradient3212" osb:paint="solid"><stop offset="0" id="stop3210" stop-color="#4d4d4d" stop-opacity="1"/></linearGradient><radialGradient fx="0" fy="0" cx="0" cy="0" r="1" gradientUnits="userSpaceOnUse" gradientTransform="matrix(20.96191 0 0 -20.5458 -31.622 15.805)" spreadMethod="pad" id="radialGradient354"><stop offset="0" id="stop1729" stop-opacity="1" stop-color="#ff7a20"/><stop offset=".142" id="stop1731" stop-opacity="1" stop-color="#ff7e20"/><stop offset=".274" id="stop1733" stop-opacity="1" stop-color="#ff8922"/><stop offset=".402" id="stop1735" stop-opacity="1" stop-color="#ff9c24"/><stop offset=".527" id="stop1737" stop-opacity="1" stop-color="#ffb627"/><stop offset=".624" id="stop1739" stop-opacity="1" stop-color="#ffd02a"/><stop offset=".714" id="stop1741" stop-opacity="1" stop-color="#ffd749"/><stop offset=".819" id="stop1743" stop-opacity="1" stop-color="#fd6"/><stop offset=".91" id="stop1745" stop-opacity="1" stop-color="#ffe279"/><stop offset=".976" id="stop1747" stop-opacity="1" stop-color="#ffe37f"/><stop offset="1" id="stop1749" stop-opacity="1" stop-color="#ffe37f"/></radialGradient><style id="style4511"/><style id="style4511-26"/><style id="style4511-9"/><style id="style4552"/><style id="style4511-2"/><linearGradient osb:paint="solid" id="linearGradient5251"><stop id="stop5253" offset="0" stop-color="#2f343f" stop-opacity="1"/></linearGradient><radialGradient id="radialGradient490" spreadMethod="pad" gradientTransform="matrix(48.4123 0 0 -48.4123 255.468 220.71)" gradientUnits="userSpaceOnUse" r="1" cy="0" cx="0" fy="0" fx="0"><stop id="stop492" offset="0" stop-opacity="1" stop-color="#fff"/><stop id="stop494" offset=".031" stop-opacity="1" stop-color="#fff"/><stop id="stop496" offset=".105" stop-opacity="1" stop-color="#e3e3e3"/><stop id="stop498" offset=".295" stop-opacity="1" stop-color="#9f9f9f"/><stop id="stop500" offset=".476" stop-opacity="1" stop-color="#666"/><stop id="stop502" offset=".642" stop-opacity="1" stop-color="#3a3a3a"/><stop id="stop504" offset=".79" stop-opacity="1" stop-color="#1a1a1a"/><stop id="stop506" offset=".914" stop-opacity="1" stop-color="#070707"/><stop id="stop508" offset="1" stop-opacity="1" stop-color="#000"/></radialGradient><linearGradient xlink:href="#radialGradient354" id="linearGradient3230" x1="5.668" y1="23.49" x2="42.454" y2="23.49" gradientUnits="userSpaceOnUse" gradientTransform="rotate(90 -15.287 -10.277)"/></defs><style id="style4485" type="text/css"/><g id="g3294" transform="matrix(1.02089 0 0 1.02948 -.769 .1)"><path id="path4530" d="M19.754 2.742h8.495c13.908 0 16.805 11.247 16.805 17.282v7.124c0 5.96-2.704 17.282-17.837 17.282h-6.93c-7.018 0-11.833-3.027-14.534-7.213-1.805-2.797-2.612-6.306-2.612-10.07v-7.123c0-9.574 5.47-17.282 16.613-17.282z" opacity="1" fill="#1a1a1a" fill-opacity="1" stroke="#000" stroke-width=".334" stroke-linecap="square" stroke-linejoin="bevel" stroke-miterlimit="4" stroke-dasharray="none" stroke-dashoffset="0" stroke-opacity=".078"/><path id="path4530-0" d="M20.2 4.947h7.567c12.39 0 14.97 10.043 14.97 15.432v6.36c0 5.322-2.409 15.432-15.889 15.432h-6.173c-6.252 0-10.542-2.703-12.948-6.44-1.607-2.498-2.326-5.632-2.326-8.992v-6.36c0-8.55 4.873-15.432 14.799-15.432z" opacity="1" fill="#4d4d4d" fill-opacity="1" stroke="#000" stroke-width=".298" stroke-linecap="square" stroke-linejoin="bevel" stroke-miterlimit="4" stroke-dasharray="none" stroke-dashoffset="0" stroke-opacity=".078"/><g transform="matrix(.92344 0 0 .93273 69.366 -3.584)" id="g3279"><path d="M-30.91 25.289v7.397c0 12.11-9.79 14.632-15.043 14.632h-6.201c-5.188 0-15.045-2.355-15.045-15.53v-6.035c0-6.111 2.636-10.304 6.28-12.656 2.434-1.571 5.489-2.274 8.765-2.274h6.2c8.335 0 15.045 4.763 15.045 14.466z" id="path4530-2" opacity="1" fill="url(#linearGradient3230)" fill-opacity="1" stroke="#000" stroke-width=".291" stroke-linecap="square" stroke-linejoin="bevel" stroke-miterlimit="4" stroke-dasharray="none" stroke-dashoffset="0" stroke-opacity=".078"/><g id="g922" transform="matrix(1.11113 0 0 1.12148 -117.157 45.55)"><g transform="matrix(.13965 0 0 -.13687 25.543 13.593)" id="g478"><g id="g480"><g id="g486"><g id="g488"><path d="M219.53 206.668c0-20.142 16.328-36.47 36.47-36.47s36.469 16.328 36.469 36.47-16.327 36.47-36.469 36.47-36.47-16.328-36.47-36.47" id="path510" fill="url(#radialGradient490)" stroke="none"/></g></g></g></g><g id="g520" transform="matrix(.13965 0 0 -.13687 61.292 -19.454)"><path d="M0 0c-19.174 0-34.772-15.599-34.772-34.772 0-19.174 15.598-34.773 34.772-34.773 19.173 0 34.772 15.599 34.772 34.773C34.772-15.599 19.173 0 0 0m0-72.94c-21.045 0-38.167 17.122-38.167 38.168C-38.167-13.727-21.045 3.395 0 3.395s38.167-17.122 38.167-38.167C38.167-55.818 21.045-72.94 0-72.94" id="path522" fill="#000" fill-opacity="1" fill-rule="nonzero" stroke="none"/></g><path id="path526" d="M61.292-22.04c-4.132 0-7.495 3.295-7.495 7.345 0 4.051 3.363 7.346 7.495 7.346 4.133 0 7.495-3.295 7.495-7.346 0-4.05-3.362-7.345-7.495-7.345m0 15.063c-4.342 0-7.874-3.462-7.874-7.717 0-4.256 3.533-7.718 7.874-7.718 4.342 0 7.874 3.462 7.874 7.718 0 4.255-3.532 7.717-7.874 7.717" fill="#000" fill-opacity="1" fill-rule="nonzero" stroke="none" stroke-width=".138"/></g></g></g></svg>