<svg xmlns="http://www.w3.org/2000/svg" xmlns:xlink="http://www.w3.org/1999/xlink" width="48" height="48" version="1.1" id="svg38"><defs id="defs22"><linearGradient id="linearGradient4488"><stop id="stop4490" offset="0" stop-color="#000" stop-opacity=".047"/><stop id="stop4492" offset="1" stop-color="#000" stop-opacity="0"/></linearGradient><style id="style4511"/><style id="style4511-26"/><style id="style4511-9"/><style id="style4552"/><style id="style4511-2"/><linearGradient gradientTransform="matrix(.30894 0 0 .30458 -64.214 2.614)" xlink:href="#linearGradient4488" id="linearGradient4160" x1="288.112" y1="141.785" x2="287.575" y2="79.008" gradientUnits="userSpaceOnUse"/><linearGradient x2="47" x1="1" gradientTransform="matrix(0 -1 .93354 0 1.49 49.25)" gradientUnits="userSpaceOnUse" id="linearGradient3140"><stop id="stop1494" stop-opacity="1" stop-color="#e4e4e4"/><stop id="stop1496" stop-opacity="1" stop-color="#eee" offset="1"/></linearGradient></defs><style id="style4485" type="text/css"/><path d="M2.535 26.903v1.672c0 9.6 5.678 17.327 17.436 17.327h7.048c15.388 0 18.138-11.352 18.138-17.327v-1.672c0 5.974-2.75 17.326-18.138 17.326H19.97c-11.758 0-17.436-7.728-17.436-17.326z" id="path4147" opacity="1" fill="url(#linearGradient4160)" fill-opacity="1" stroke="none" stroke-width="1.111" stroke-linecap="square" stroke-linejoin="bevel" stroke-miterlimit="4" stroke-dasharray="none" stroke-dashoffset="0" stroke-opacity=".078"/><path d="M19.574 2.797h8.637c14.142 0 17.087 11.582 17.087 17.797v7.335c0 6.137-2.75 17.797-18.136 17.797h-7.047c-11.756 0-17.434-7.937-17.434-17.797v-7.335c0-9.86 5.562-17.797 16.893-17.797z" id="rect4144-6" opacity="1" fill="#4cb9e6" fill-opacity="1" stroke="#000" stroke-width=".342" stroke-linecap="square" stroke-linejoin="bevel" stroke-miterlimit="4" stroke-dasharray="none" stroke-dashoffset="0" stroke-opacity=".078"/><path d="M40.908 7.89L7.368 40.9c2.885 2.988 7.11 4.826 12.747 4.826h7.047c15.387 0 18.137-11.66 18.137-17.797v-7.336c0-3.538-.96-8.813-4.39-12.702z" id="rect4144" opacity="1" fill="#dc4db7" fill-opacity="1" stroke="#000" stroke-width=".342" stroke-linecap="square" stroke-linejoin="bevel" stroke-miterlimit="4" stroke-dasharray="none" stroke-dashoffset="0" stroke-opacity=".078"/><path d="M34.719 9.219v.03c-.27.032-.54.149-.7.25-.219.126-.252.23-.35.376-.197.277-.296.609-.41 1-.225.78-.459 1.832-.583 3.125-.248 2.582-.423 5.99-.554 9.438-.128 3.449-.263 6.898-.584 9.469-.16 1.28-.335 2.422-.583 3.125-.033.082-.141.055-.176.125-.222-.535-.448-1.363-.583-2.375-.274-2.027-.299-4.723-.41-7.47-.108-2.745-.298-5.503-.583-7.593-.142-1.047-.313-1.961-.583-2.625-.138-.332-.275-.625-.526-.875-.244-.254-.558-.5-1.167-.5-.463 0-1.05.188-1.342.375-.295.188-.427.387-.583.625-.318.48-.435 1.055-.584 1.75-.299 1.387-.488 3.184-.583 4.969-.098 1.789-.142 3.582-.41 4.875a4.867 4.867 0 0 1-.583 1.5c-.091.152-.138.223-.175.25-.04 0-.109-.074-.176-.125a1.625 1.625 0 0 1-.409-.625c-.214-.578-.339-1.477-.409-2.375-.072-.902-.014-1.851-.35-2.625-.171-.383-.386-.707-.816-1-.43-.297-1.24-.492-1.926-.47-.836.04-1.343.419-1.693.845-.343.426-.638.926-.788 1.5-.299 1.16-.295 2.684-.379 4.125-.08 1.445-.163 2.836-.409 3.844-.113.453-.405.789-.554 1-.055-.086-.15-.121-.205-.25-.226-.512-.434-1.285-.583-2.25-.299-1.93-.423-4.5-.555-7.094-.131-2.602-.138-5.242-.409-7.22-.138-.987-.335-1.84-.583-2.468-.135-.316-.361-.508-.583-.75-.226-.234-.492-.625-1.11-.625-.58 0-1.17.277-1.4.5-.226.223-.222.46-.35.75-.252.578-.445 1.324-.583 2.219-.281 1.789-.434 4.133-.584 6.469-.15 2.34-.285 4.664-.583 6.375-.142.859-.373 1.535-.584 1.969-.128-.223-.485-.484-.583-.875-.241-.977-.285-2.223-.41-3.594-.12-1.371-.192-2.781-.525-3.875a4.096 4.096 0 0 0-.817-1.47c-.29-.33-1.017-.692-1.625-.785-.033.48.002.919-.008 1.348.034.018.069.01.116.063.179.199.209.613.35 1.094.293.96.46 2.262.584 3.625.12 1.367.317 2.758.583 3.844.139.547.295.977.584 1.375.146.199.314.469.583.625.27.16.581.238.993.25.562 0 1.086-.273 1.342-.5.255-.223.445-.461.584-.75.277-.578.434-1.328.583-2.22.314-1.78.434-4.04.584-6.374.149-2.336.31-4.742.583-6.47.11-.694.197-1.183.35-1.624.16.5.474 1.192.584 2 .262 1.918.455 4.468.583 7.06.128 2.605.27 5.227.583 7.219.154 1 .27 1.855.555 2.5.142.32.335.504.583.75.249.246.551.605 1.138.625.829.039 1.615-.461 1.955-.875.335-.414.442-.934.584-1.5.28-1.133.474-2.527.554-3.97.08-1.44.084-2.847.35-3.874.136-.516.225-.902.41-1.125.181-.223.37-.25.408-.25.215 0 .23.047.35.125.117.082.292.223.41.5.244.559.338 1.477.408 2.375.073.895.062 1.852.35 2.625.146.387.374.695.759 1 .383.309 1.072.469 1.75.469.463 0 .883-.055 1.167-.25.285-.188.438-.477.584-.72.299-.476.448-1.054.583-1.75.278-1.39.482-3.218.584-5 .098-1.784.073-3.542.35-4.843.138-.645.39-1.078.583-1.375.048.082.186.137.234.25.222.535.448 1.363.583 2.375.274 2.027.241 4.723.35 7.469.11 2.746.299 5.504.584 7.594.142 1.047.313 1.957.583 2.625a2.5 2.5 0 0 0 .584.844c.244.254.729.5 1.342.5.361 0 .561-.125.788-.25.212-.125.438-.203.554-.344.238-.29.442-.594.584-1 .288-.816.423-1.938.583-3.25.329-2.625.423-6.145.555-9.594.128-3.453.342-6.898.583-9.438.096-.95.07-1.605.205-2.25.182.766.426 1.652.554 2.844.303 2.78.66 6.523.817 10.219.16 3.695.299 7.445.584 10.219.142 1.383.35 2.5.583 3.344.12.422.16.71.35 1 .095.14.215.363.41.5.196.133.525.262.933.25.576-.04.944-.277 1.167-.5.222-.223.455-.461.583-.75.255-.578.438-1.328.583-2.22.303-1.78.42-4.18.584-6.5.164-2.323.295-4.628.583-6.343a8.414 8.414 0 0 1 .584-1.97c.117.216.255.349.35.72.24.965.288 2.37.409 3.75.12 1.383.354 2.712.685 3.818.076.254.523.369.643.505.15-1.668.152-3.402.19-5.354a21.018 21.018 0 0 0-.146-2.75c-.007-.03-.022-.065-.029-.094-.135-.543-.285-1.074-.583-1.47a1.651 1.651 0 0 0-.584-.5 2.336 2.336 0 0 0-1.109-.25c-.572 0-.945.278-1.167.5-.222.224-.284.462-.409.75-.254.579-.434 1.333-.583 2.22a71.594 71.594 0 0 0-.76 6.469c-.163 2.32-.298 4.656-.583 6.375-.109.64-.268 1.035-.408 1.469a19.142 19.142 0 0 1-.584-3.094c-.28-2.73-.43-6.402-.583-10.09-.16-3.695-.219-7.395-.526-10.22-.15-1.413-.335-2.59-.583-3.468-.128-.441-.218-.828-.41-1.125-.094-.152-.24-.242-.408-.375a2.048 2.048 0 0 0-.934-.375.959.959 0 0 0-.262 0z" id="path1513" fill="url(#linearGradient3140)" fill-opacity="1" stroke-width=".966"/></svg>