<svg xmlns:osb="http://www.openswatchbook.org/uri/2009/osb" xmlns="http://www.w3.org/2000/svg" xmlns:xlink="http://www.w3.org/1999/xlink" width="48" height="48" version="1.1" id="svg38"><defs id="defs22"><linearGradient id="linearGradient4488"><stop id="stop4490" offset="0" stop-color="#000" stop-opacity=".047"/><stop id="stop4492" offset="1" stop-color="#000" stop-opacity="0"/></linearGradient><style id="style4511"/><style id="style4511-26"/><style id="style4511-9"/><style id="style4552"/><style id="style4511-2"/><linearGradient xlink:href="#linearGradient4488" id="linearGradient4540" gradientUnits="userSpaceOnUse" gradientTransform="translate(-62.889 1.994) scale(.3038)" x1="288.112" y1="141.785" x2="287.575" y2="79.008"/><linearGradient osb:paint="solid" id="linearGradient5293"><stop id="stop5295" offset="0" stop-color="#9a89c0" stop-opacity="1"/></linearGradient><linearGradient id="linearGradient7537"><stop id="stop7539" offset="0" stop-color="#f37e40" stop-opacity="1"/><stop id="stop7541" offset="1" stop-color="#f34f17" stop-opacity="1"/></linearGradient><linearGradient xlink:href="#linearGradient7537" id="linearGradient1249" x1="2.583" y1="23.586" x2="44.83" y2="23.586" gradientUnits="userSpaceOnUse" gradientTransform="matrix(1.00967 0 0 1 -.027 0)"/><filter id="filter3860" color-interpolation-filters="sRGB"><feGaussianBlur stdDeviation=".92" id="feGaussianBlur3862"/></filter><linearGradient x1="46.493" gradientTransform="matrix(1.34484 0 0 1.3867 154.877 406.595)" x2="46.493" gradientUnits="userSpaceOnUse" y2="53.006" id="linearGradient3117"><stop offset="0" id="stop4148-2" stop-color="#f6f6f6"/><stop offset="1" id="stop4150-8" stop-color="#e2e2e2"/></linearGradient></defs><style id="style4485" type="text/css"/><path id="path4516" d="M2.75 26.22v1.67c0 9.573 5.583 17.281 17.146 17.281h6.93c15.132 0 17.836-11.322 17.836-17.282v-1.668c0 5.96-2.704 17.282-17.836 17.282h-6.93C8.333 43.503 2.75 35.795 2.75 26.22z" opacity="1" fill="url(#linearGradient4540)" fill-opacity="1" stroke="none" stroke-width="1.1" stroke-linecap="square" stroke-linejoin="bevel" stroke-miterlimit="4" stroke-dasharray="none" stroke-dashoffset="0" stroke-opacity=".078"/><path id="path4518" d="M19.524 2.742H28.1c14.042 0 16.967 11.247 16.967 17.282v7.124c0 5.96-2.73 17.282-18.01 17.282h-6.996C8.387 44.43 2.75 36.722 2.75 27.148v-7.124c0-9.574 5.523-17.282 16.774-17.282z" opacity="1" fill="url(#linearGradient1249)" fill-opacity="1" stroke="#000" stroke-width=".336" stroke-linecap="square" stroke-linejoin="bevel" stroke-miterlimit="4" stroke-dasharray="none" stroke-dashoffset="0" stroke-opacity=".078"/><g id="layer2-3" transform="matrix(.07385 0 0 .08626 -34.396 -3.96)"><g id="g3106" transform="matrix(3.5553 0 0 3.5522 19.538 -1259.367)"><g id="g1844" transform="translate(.133 4.545)"><path transform="matrix(.97693 0 0 1 6.458 0)" d="M153.373 440.085c-.267 0-.479.209-.513.505l-.936 7.163.936 7.039c.034.296.246.503.513.503.259 0 .47-.205.51-.5l1.11-7.042-1.11-7.164c-.039-.296-.252-.504-.51-.504zm5.264-3.913c-.044-.308-.263-.52-.533-.52s-.495.22-.532.52l-1.258 11.581 1.258 11.324c.036.304.26.523.532.523.269 0 .488-.214.532-.52l1.431-11.327zm19.828-10.682c-.516 0-.943.426-.968.967l-1.002 21.306 1.002 13.769c.027.538.452.962.968.962.514 0 .939-.426.97-.965v.01l1.132-13.77-1.133-21.306c-.03-.54-.455-.967-.969-.967zm-10.262 7.405c-.396 0-.72.32-.751.745l-1.13 14.117 1.13 13.658c.03.423.355.742.751.742.393 0 .716-.32.75-.742l1.283-13.658-1.283-14.12c-.034-.423-.357-.742-.75-.742zm20.691 29.597c.64 0 1.16-.52 1.187-1.185l.983-13.537-.982-28.366c-.026-.666-.546-1.186-1.186-1.186-.646 0-1.168.521-1.188 1.187l-.872 28.363.872 13.543c.02.66.542 1.182 1.186 1.182zm21.351.063c.881 0 1.608-.73 1.624-1.63v.01-.01l.686-13.148-.686-32.76c-.015-.897-.743-1.63-1.624-1.63-.882 0-1.61.731-1.624 1.631l-.613 32.748.613 13.168c.014.89.743 1.621 1.624 1.621zm-10.756-.05c.767 0 1.385-.62 1.406-1.411v.01l.834-13.332-.836-28.571c-.02-.79-.638-1.409-1.405-1.409-.772 0-1.39.618-1.407 1.409l-.742 28.572.743 13.329a1.413 1.413 0 0 0 1.407 1.402zm-26.174-.126c.456 0 .825-.367.86-.85l1.208-13.773-1.209-13.1c-.033-.484-.402-.849-.859-.849-.462 0-.831.368-.86.855l-1.064 13.095 1.064 13.77c.03.485.398.852.86.852zm-10.18-.754c.332 0 .602-.265.64-.63l1.358-13.242-1.356-13.74c-.04-.367-.31-.632-.643-.632-.337 0-.607.266-.641.632l-1.195 13.74 1.195 13.238c.033.368.303.634.641.634zm41.712-42.9c-.833 0-1.5.667-1.517 1.521l-.677 27.528.677 13.246a1.52 1.52 0 0 0 1.517 1.51c.832 0 1.495-.665 1.514-1.52v.012l.76-13.246-.76-27.531c-.019-.852-.682-1.519-1.514-1.519zm-21.185 43.794c.576 0 1.05-.473 1.078-1.076l1.057-13.677-1.057-26.179c-.029-.605-.502-1.076-1.078-1.076-.58 0-1.054.473-1.079 1.076l-.936 26.179.937 13.683c.024.598.497 1.07 1.078 1.07zm11.805-1.29v-.01l.909-13.452-.909-29.32c-.022-.729-.592-1.3-1.295-1.3-.708 0-1.278.57-1.297 1.3l-.807 29.32.808 13.457c.02.721.59 1.291 1.296 1.291.705 0 1.272-.57 1.295-1.295v.01zm68.715-30.36c-2.157 0-4.215.439-6.09 1.23-1.252-14.293-13.152-25.506-27.666-25.506-3.551 0-7.013.704-10.07 1.895-1.189.463-1.505.94-1.516 1.865v50.338c.012.971.76 1.78 1.7 1.875.04.01 43.36.026 43.64.026 8.695 0 15.745-7.101 15.745-15.86 0-8.76-7.048-15.864-15.742-15.864zm-48.564-20.57c-.946 0-1.722.781-1.736 1.742l-.71 35.73.712 12.966c.012.947.789 1.728 1.734 1.728.943 0 1.72-.78 1.733-1.742v.015l.773-12.969-.773-35.732c-.013-.958-.79-1.74-1.733-1.74z" id="path3852" fill="#c42606" filter="url(#filter3860)"/><path d="M156.293 440.085c-.261 0-.468.209-.502.505l-.914 7.163.914 7.039c.034.296.24.503.502.503.253 0 .458-.205.499-.5l1.084-7.042-1.084-7.164c-.04-.296-.248-.504-.5-.504zm5.142-3.913c-.043-.308-.256-.52-.52-.52-.265 0-.484.22-.52.52l-1.23 11.581 1.23 11.324c.035.304.254.523.52.523.262 0 .476-.214.52-.52l1.398-11.327zm19.371-10.682c-.504 0-.921.426-.945.967l-.98 21.306.98 13.769c.025.538.44.962.945.962.502 0 .917-.426.947-.965v.01l1.106-13.77-1.106-21.306c-.03-.54-.445-.967-.947-.967zm-10.025 7.405c-.388 0-.704.32-.735.745l-1.102 14.117 1.102 13.658c.03.423.347.742.735.742.383 0 .699-.32.733-.742l1.253-13.658-1.253-14.12c-.034-.423-.35-.742-.733-.742zm20.213 29.597c.626 0 1.134-.52 1.16-1.185l.96-13.537-.96-28.366c-.025-.666-.533-1.186-1.158-1.186-.631 0-1.14.521-1.16 1.187l-.852 28.363.851 13.543c.02.66.53 1.182 1.16 1.182zm20.859.063c.86 0 1.57-.73 1.587-1.63v.01-.01l.67-13.148-.67-32.76c-.015-.897-.727-1.63-1.587-1.63-.862 0-1.574.731-1.587 1.631l-.599 32.748.599 13.168c.013.89.726 1.621 1.587 1.621zm-10.508-.05c.749 0 1.353-.62 1.373-1.411v.01l.815-13.332-.816-28.571c-.02-.79-.624-1.409-1.373-1.409-.755 0-1.359.618-1.375 1.409l-.725 28.572.726 13.329c.017.782.62 1.402 1.375 1.402zm-25.57-.126c.445 0 .805-.367.839-.85l1.18-13.773-1.18-13.1c-.032-.484-.393-.849-.84-.849-.451 0-.811.368-.84.855l-1.04 13.095 1.04 13.77c.03.485.389.852.84.852zm-9.946-.754c.325 0 .589-.265.626-.63l1.326-13.242-1.324-13.74c-.04-.367-.303-.632-.628-.632-.33 0-.593.266-.627.632l-1.167 13.74 1.167 13.238c.032.368.296.634.627.634zm40.75-42.9c-.813 0-1.466.667-1.482 1.521l-.661 27.528.661 13.246c.016.843.667 1.51 1.482 1.51.813 0 1.46-.665 1.48-1.52v.012l.742-13.246-.742-27.531c-.02-.852-.667-1.519-1.48-1.519zm-20.696 43.794c.562 0 1.026-.473 1.053-1.076l1.033-13.677-1.033-26.179c-.028-.605-.49-1.076-1.053-1.076-.567 0-1.03.473-1.054 1.076l-.915 26.179.916 13.683c.023.598.486 1.07 1.053 1.07zm11.533-1.29v-.01l.887-13.452-.887-29.32c-.022-.729-.579-1.3-1.266-1.3-.691 0-1.248.57-1.267 1.3l-.788 29.32.79 13.457c.019.721.575 1.291 1.265 1.291.689 0 1.243-.57 1.266-1.295v.01zm67.13-30.36a14.97 14.97 0 0 0-5.95 1.23c-1.224-14.293-12.849-25.506-27.028-25.506-3.47 0-6.852.704-9.838 1.895-1.161.463-1.47.94-1.481 1.865v50.338c.012.971.742 1.78 1.66 1.875.04.01 42.36.026 42.635.026 8.494 0 15.38-7.101 15.38-15.86 0-8.76-6.885-15.864-15.378-15.864zm-47.444-20.57c-.924 0-1.683.781-1.696 1.742l-.694 35.73.695 12.966c.012.947.77 1.728 1.695 1.728.921 0 1.68-.78 1.693-1.742v.015l.754-12.969-.754-35.732c-.014-.958-.772-1.74-1.693-1.74z" id="path2465" fill="url(#linearGradient3117)" stroke-width=".988"/></g></g></g></svg>