<svg xmlns="http://www.w3.org/2000/svg" xmlns:xlink="http://www.w3.org/1999/xlink" width="48" height="48" version="1.1" id="svg38"><defs id="defs22"><linearGradient id="linearGradient4488"><stop id="stop4490" offset="0" stop-color="#000" stop-opacity=".047"/><stop id="stop4492" offset="1" stop-color="#000" stop-opacity="0"/></linearGradient><style id="style4511"/><style id="style4511-26"/><style id="style4511-9"/><style id="style4552"/><style id="style4511-2"/><linearGradient gradientTransform="matrix(.3071 0 0 .30202 -63.408 2.469)" xlink:href="#linearGradient4488" id="linearGradient4160" x1="288.112" y1="141.785" x2="287.575" y2="79.008" gradientUnits="userSpaceOnUse"/><linearGradient gradientUnits="userSpaceOnUse" y2="400" x2="256" y1="232" x1="256" id="linearGradient4390" xlink:href="#linearGradient4319"/><linearGradient id="linearGradient4319"><stop id="stop4322" offset="0" stop-color="#fed965" stop-opacity="1"/><stop id="stop4324" offset="1" stop-color="#fed965" stop-opacity="0"/></linearGradient><linearGradient gradientTransform="translate(-40)" y2="472" x2="256" y1="232" x1="256" gradientUnits="userSpaceOnUse" id="linearGradient4394" xlink:href="#linearGradient4319"/><linearGradient y2="400" x2="256" y1="200" x1="256" gradientTransform="translate(-80)" gradientUnits="userSpaceOnUse" id="linearGradient4398" xlink:href="#linearGradient4319"/><linearGradient y2="368" x2="256" y1="152" x1="256" gradientTransform="translate(-120)" gradientUnits="userSpaceOnUse" id="linearGradient4402" xlink:href="#linearGradient4319"/><linearGradient y2="408" x2="256" y1="112" x1="256" gradientTransform="translate(-160)" gradientUnits="userSpaceOnUse" id="linearGradient4406" xlink:href="#linearGradient4319"/><linearGradient y2="312" x2="256" y1="160" x1="256" gradientTransform="translate(-200)" gradientUnits="userSpaceOnUse" id="linearGradient4411" xlink:href="#linearGradient4319"/><linearGradient gradientTransform="translate(40)" y2="544" x2="256" y1="160" x1="256" gradientUnits="userSpaceOnUse" id="linearGradient4415-8" xlink:href="#linearGradient4319"/><linearGradient y2="456" x2="256" y1="208" x1="256" gradientTransform="translate(80)" gradientUnits="userSpaceOnUse" id="linearGradient4419" xlink:href="#linearGradient4319"/><linearGradient y2="368" x2="256" y1="176" x1="256" gradientTransform="translate(120)" gradientUnits="userSpaceOnUse" id="linearGradient4423" xlink:href="#linearGradient4319"/><linearGradient y2="376" x2="256" y1="185.898" x1="256" gradientTransform="translate(160)" gradientUnits="userSpaceOnUse" id="linearGradient4427" xlink:href="#linearGradient4319"/><linearGradient y2="352" x2="256" y1="128" x1="256" gradientTransform="translate(200)" gradientUnits="userSpaceOnUse" id="linearGradient4431" xlink:href="#linearGradient4319"/><linearGradient gradientUnits="userSpaceOnUse" y2="72" x2="288" y1="296" x1="288" id="linearGradient4368" xlink:href="#linearGradient4287"/><linearGradient id="linearGradient4287"><stop offset="0" id="stop4424" stop-color="#ff9169" stop-opacity="1"/><stop offset="1" id="stop4426" stop-color="#f09778" stop-opacity="0"/></linearGradient><linearGradient gradientUnits="userSpaceOnUse" y2="-32" x2="218" y1="326.102" x1="216" id="linearGradient4366" xlink:href="#linearGradient4287"/><linearGradient gradientUnits="userSpaceOnUse" y2="136" x2="176" y1="264" x1="177.6" id="linearGradient4364" xlink:href="#linearGradient4287"/><linearGradient gradientUnits="userSpaceOnUse" y2="80" x2="136" y1="312" x1="136" id="linearGradient4362" xlink:href="#linearGradient4287"/><linearGradient gradientUnits="userSpaceOnUse" y2="162.4" x2="96.8" y1="352" x1="96.8" id="linearGradient4360" xlink:href="#linearGradient4287"/><linearGradient gradientUnits="userSpaceOnUse" y2="184" x2="56" y1="360" x1="56" id="linearGradient4358" xlink:href="#linearGradient4287"/><linearGradient gradientUnits="userSpaceOnUse" y2="72" x2="296" y1="280" x1="296" id="linearGradient4356" xlink:href="#linearGradient4287"/><linearGradient gradientUnits="userSpaceOnUse" y2="152" x2="336" y1="288" x1="336" id="linearGradient4354" xlink:href="#linearGradient4287"/><linearGradient gradientUnits="userSpaceOnUse" y2="96" x2="376" y1="304" x1="376" id="linearGradient4352" xlink:href="#linearGradient4287"/><linearGradient gradientUnits="userSpaceOnUse" y2="128" x2="416" y1="336" x1="416" id="linearGradient4350" xlink:href="#linearGradient4287"/><linearGradient gradientUnits="userSpaceOnUse" y2="192" x2="456" y1="368" x1="456" id="linearGradient4348" xlink:href="#linearGradient4287"/><linearGradient id="linearGradient4290"><stop id="stop4292" offset="0" stop-color="#d1313e" stop-opacity="1"/><stop offset=".348" id="stop4272" stop-color="#a9344f" stop-opacity="1"/><stop id="stop4294" offset="1" stop-color="#6b3274" stop-opacity="1"/></linearGradient><filter height="1.096" y="-.048" width="1.096" x="-.048" id="filter1685" color-interpolation-filters="sRGB"><feGaussianBlur id="feGaussianBlur1687" stdDeviation=".818"/></filter><linearGradient xlink:href="#linearGradient4290" id="linearGradient1796" x1="3.241" y1="23.935" x2="45.019" y2="23.935" gradientUnits="userSpaceOnUse"/></defs><style id="style4485" type="text/css"/><path d="M2.945 26.554v1.658c0 9.519 5.644 17.181 17.333 17.181h7.006c15.297 0 18.03-11.256 18.03-17.18v-1.66c0 5.925-2.733 17.182-18.03 17.182h-7.006c-11.689 0-17.333-7.663-17.333-17.181z" id="path4147" opacity="1" fill="url(#linearGradient4160)" fill-opacity="1" stroke="none" stroke-width="1.103" stroke-linecap="square" stroke-linejoin="bevel" stroke-miterlimit="4" stroke-dasharray="none" stroke-dashoffset="0" stroke-opacity=".078"/><path d="M3.408 28.325v-8.588C3.408 5.678 14.59 2.75 20.588 2.75h7.082c5.925 0 17.181 2.734 17.181 18.03v7.006c0 11.689-7.662 17.333-17.18 17.333h-7.082c-9.518 0-17.18-5.53-17.18-16.794z" id="rect4144" opacity="1" fill="url(#linearGradient1796)" fill-opacity="1" stroke="#000" stroke-width=".335" stroke-linecap="square" stroke-linejoin="bevel" stroke-miterlimit="4" stroke-dasharray="none" stroke-dashoffset="0" stroke-opacity=".078"/><g id="g1845" transform="translate(1.357 1.348)" stroke-linejoin="miter" stroke-miterlimit="4" stroke-dasharray="none" stroke-opacity="1"><g transform="matrix(.0788 0 0 .08446 2.625 .964)" id="g4370" display="inline" opacity=".5" stroke-width="128" color="#000" visibility="visible" fill-opacity="1" fill-rule="nonzero" stroke="none" stroke-linecap="butt" stroke-dashoffset="0"><path style="marker:none" d="M272 72v16h32V72zm0 24v16h32V96zm0 24v16h32v-16zm0 24v16h32v-16zm0 24v16h32v-16zm0 24v16h32v-16zm0 24v16h32v-16zm0 24v16h32v-16zm0 24v16h32v-16z" transform="translate(-32 -32)" id="rect4273" display="inline" overflow="visible" opacity="1" fill="url(#linearGradient4368)" enable-background="accumulate"/><path id="path4292" d="M200 40v16h32V40zm0 24v16h32V64zm0 24v16h32V88zm0 24v16h32v-16zm0 24v16h32v-16zm0 24v16h32v-16zm0 24v16h32v-16zm0 24v16h32v-16zm0 24v16h32v-16z" style="marker:none" display="inline" overflow="visible" opacity="1" fill="url(#linearGradient4366)" enable-background="accumulate"/><path style="marker:none" d="M160 40v16h32V40zm0 24v16h32V64zm0 24v16h32V88zm0 24v16h32v-16zm0 24v16h32v-16zm0 24v16h32v-16zm0 24v16h32v-16zm0 24v16h32v-16zm0 24v16h32v-16z" id="path4294" display="inline" overflow="visible" opacity="1" fill="url(#linearGradient4364)" enable-background="accumulate"/><path id="path4296" d="M120 40v16h32V40zm0 24v16h32V64zm0 24v16h32V88zm0 24v16h32v-16zm0 24v16h32v-16zm0 24v16h32v-16zm0 24v16h32v-16zm0 24v16h32v-16zm0 24v16h32v-16z" style="marker:none" display="inline" overflow="visible" opacity="1" fill="url(#linearGradient4362)" enable-background="accumulate"/><path style="marker:none" d="M80 40v16h32V40zm0 24v16h32V64zm0 24v16h32V88zm0 24v16h32v-16zm0 24v16h32v-16zm0 24v16h32v-16zm0 24v16h32v-16zm0 24v16h32v-16zm0 24v16h32v-16z" id="path4298" display="inline" overflow="visible" opacity="1" fill="url(#linearGradient4360)" enable-background="accumulate"/><path id="path4301" d="M40 40v16h32V40zm0 24v16h32V64zm0 24v16h32V88zm0 24v16h32v-16zm0 24v16h32v-16zm0 24v16h32v-16zm0 24v16h32v-16zm0 24v16h32v-16zm0 24v16h32v-16z" style="marker:none" display="inline" overflow="visible" opacity="1" fill="url(#linearGradient4358)" enable-background="accumulate"/><path id="path4303" d="M280 40v16h32V40zm0 24v16h32V64zm0 24v16h32V88zm0 24v16h32v-16zm0 24v16h32v-16zm0 24v16h32v-16zm0 24v16h32v-16zm0 24v16h32v-16zm0 24v16h32v-16z" style="marker:none" display="inline" overflow="visible" opacity="1" fill="url(#linearGradient4356)" enable-background="accumulate"/><path style="marker:none" d="M320 40v16h32V40zm0 24v16h32V64zm0 24v16h32V88zm0 24v16h32v-16zm0 24v16h32v-16zm0 24v16h32v-16zm0 24v16h32v-16zm0 24v16h32v-16zm0 24v16h32v-16z" id="path4305" display="inline" overflow="visible" opacity="1" fill="url(#linearGradient4354)" enable-background="accumulate"/><path id="path4307" d="M360 40v16h32V40zm0 24v16h32V64zm0 24v16h32V88zm0 24v16h32v-16zm0 24v16h32v-16zm0 24v16h32v-16zm0 24v16h32v-16zm0 24v16h32v-16zm0 24v16h32v-16z" style="marker:none" display="inline" overflow="visible" opacity="1" fill="url(#linearGradient4352)" enable-background="accumulate"/><path style="marker:none" d="M400 40v16h32V40zm0 24v16h32V64zm0 24v16h32V88zm0 24v16h32v-16zm0 24v16h32v-16zm0 24v16h32v-16zm0 24v16h32v-16zm0 24v16h32v-16zm0 24v16h32v-16z" id="path4309" display="inline" overflow="visible" opacity="1" fill="url(#linearGradient4350)" enable-background="accumulate"/><path id="path4311" d="M440 40v16h32V40zm0 24v16h32V64zm0 24v16h32V88zm0 24v16h32v-16zm0 24v16h32v-16zm0 24v16h32v-16zm0 24v16h32v-16zm0 24v16h32v-16zm0 24v16h32v-16z" style="marker:none" display="inline" overflow="visible" opacity="1" fill="url(#linearGradient4348)" enable-background="accumulate"/></g><g transform="matrix(.0788 0 0 .08446 2.578 .964)" id="g4433" display="inline" opacity=".5" stroke-width="128" color="#000" visibility="visible" fill-opacity="1" fill-rule="nonzero" stroke="none" stroke-linecap="butt" stroke-dashoffset="0"><path id="path4313" d="M240 264v16h32v-16zm0 24v16h32v-16zm0 24v16h32v-16zm0 24v16h32v-16zm0 24v16h32v-16zm0 24v16h32v-16zm0 24v16h32v-16zm0 24v16h32v-16zm0 24v16h32v-16z" style="marker:none" display="inline" overflow="visible" opacity=".467" fill="url(#linearGradient4390)" enable-background="accumulate"/><path style="marker:none" d="M200 264v16h32v-16zm0 24v16h32v-16zm0 24v16h32v-16zm0 24v16h32v-16zm0 24v16h32v-16zm0 24v16h32v-16zm0 24v16h32v-16zm0 24v16h32v-16zm0 24v16h32v-16z" id="path4392" display="inline" overflow="visible" opacity=".467" fill="url(#linearGradient4394)" enable-background="accumulate"/><path id="path4396" d="M160 264v16h32v-16zm0 24v16h32v-16zm0 24v16h32v-16zm0 24v16h32v-16zm0 24v16h32v-16zm0 24v16h32v-16zm0 24v16h32v-16zm0 24v16h32v-16zm0 24v16h32v-16z" style="marker:none" display="inline" overflow="visible" opacity=".467" fill="url(#linearGradient4398)" enable-background="accumulate"/><path style="marker:none" d="M120 264v16h32v-16zm0 24v16h32v-16zm0 24v16h32v-16zm0 24v16h32v-16zm0 24v16h32v-16zm0 24v16h32v-16zm0 24v16h32v-16zm0 24v16h32v-16zm0 24v16h32v-16z" id="path4400" display="inline" overflow="visible" opacity=".467" fill="url(#linearGradient4402)" enable-background="accumulate"/><path id="path4404" d="M80 264v16h32v-16zm0 24v16h32v-16zm0 24v16h32v-16zm0 24v16h32v-16zm0 24v16h32v-16zm0 24v16h32v-16zm0 24v16h32v-16zm0 24v16h32v-16zm0 24v16h32v-16z" style="marker:none" display="inline" overflow="visible" opacity=".467" fill="url(#linearGradient4406)" enable-background="accumulate"/><path style="marker:none" d="M40 264v16h32v-16zm0 24v16h32v-16zm0 24v16h32v-16zm0 24v16h32v-16zm0 24v16h32v-16zm0 24v16h32v-16zm0 24v16h32v-16zm0 24v16h32v-16zm0 24v16h32v-16z" id="path4408" display="inline" overflow="visible" opacity=".467" fill="url(#linearGradient4411)" enable-background="accumulate"/><path style="marker:none" d="M280 264v16h32v-16zm0 24v16h32v-16zm0 24v16h32v-16zm0 24v16h32v-16zm0 24v16h32v-16zm0 24v16h32v-16zm0 24v16h32v-16zm0 24v16h32v-16zm0 24v16h32v-16z" id="path4413" display="inline" overflow="visible" opacity=".467" fill="url(#linearGradient4415-8)" enable-background="accumulate"/><path id="path4417" d="M320 264v16h32v-16zm0 24v16h32v-16zm0 24v16h32v-16zm0 24v16h32v-16zm0 24v16h32v-16zm0 24v16h32v-16zm0 24v16h32v-16zm0 24v16h32v-16zm0 24v16h32v-16z" style="marker:none" display="inline" overflow="visible" opacity=".467" fill="url(#linearGradient4419)" enable-background="accumulate"/><path style="marker:none" d="M360 264v16h32v-16zm0 24v16h32v-16zm0 24v16h32v-16zm0 24v16h32v-16zm0 24v16h32v-16zm0 24v16h32v-16zm0 24v16h32v-16zm0 24v16h32v-16zm0 24v16h32v-16z" id="path4421" display="inline" overflow="visible" opacity=".467" fill="url(#linearGradient4423)" enable-background="accumulate"/><path id="path4425" d="M400 264v16h32v-16zm0 24v16h32v-16zm0 24v16h32v-16zm0 24v16h32v-16zm0 24v16h32v-16zm0 24v16h32v-16zm0 24v16h32v-16zm0 24v16h32v-16zm0 24v16h32v-16z" style="marker:none" display="inline" overflow="visible" opacity=".467" fill="url(#linearGradient4427)" enable-background="accumulate"/><path style="marker:none" d="M440 264v16h32v-16zm0 24v16h32v-16zm0 24v16h32v-16zm0 24v16h32v-16zm0 24v16h32v-16zm0 24v16h32v-16zm0 24v16h32v-16zm0 24v16h32v-16zm0 24v16h32v-16z" id="path4429" display="inline" overflow="visible" opacity=".467" fill="url(#linearGradient4431)" enable-background="accumulate"/></g><g id="g1671" transform="matrix(.60602 0 0 .64962 2.237 -148.23)" opacity=".3" stroke="#421f1f" filter="url(#filter1685)"><path id="path1649" d="M15.527 270.187l13.508 11.379 15.969-3.973 7.203-19.273-6.974-14.041-22.005 8.1-7.701 17.808v0" fill="none" stroke-width="1.058" stroke-linecap="butt"/><path id="path1651" d="M45.004 277.593l-8.98-7.406 16.183-11.867" fill="none" stroke-width=".794" stroke-linecap="butt"/><path id="path1653" d="M23.228 252.378l12.796 17.809 9.21-25.908v0" fill="none" stroke-width=".794" stroke-linecap="butt"/><path id="path1655" d="M15.527 270.187h20.497l-6.99 11.379" fill="none" stroke-width=".794" stroke-linecap="butt"/><circle r="2.117" cy="270.32" cx="35.792" id="circle1657" opacity="1" fill="#fff" fill-opacity="1" stroke-width=".275" stroke-linecap="round"/><circle id="circle1659" cx="45.043" cy="244.571" r="2.117" opacity="1" fill="#fff" fill-opacity="1" stroke-width=".275" stroke-linecap="round"/><circle r="2.117" cy="252.823" cx="23.419" id="circle1661" opacity="1" fill="#fff" fill-opacity="1" stroke-width=".275" stroke-linecap="round"/><circle r="2.646" cy="270.402" cx="16.084" id="circle1663" opacity="1" fill="#fff" fill-opacity="1" stroke-width=".344" stroke-linecap="round"/><circle id="circle1665" cx="29.226" cy="281.323" r="2.117" opacity="1" fill="#fff" fill-opacity="1" stroke-width=".275" stroke-linecap="round"/><circle r="2.381" cy="277.314" cx="44.696" id="circle1667" opacity="1" fill="#fff" fill-opacity="1" stroke-width=".31" stroke-linecap="round"/><circle id="circle1669" cx="51.608" cy="258.33" r="2.646" opacity="1" fill="#fff" fill-opacity="1" stroke-width=".344" stroke-linecap="round"/></g><path id="path1605" d="M11.647 27.29l8.186 7.392 9.678-2.581 4.365-12.52-4.226-9.122-13.336 5.262-4.667 11.569v0" fill="none" stroke="#fff" stroke-width=".664" stroke-linecap="butt"/><path id="path1609" d="M29.51 32.1l-5.441-4.81 9.807-7.71" fill="none" stroke="#fff" stroke-width=".498" stroke-linecap="butt"/><path id="path1613" d="M16.314 15.72l7.755 11.57 5.58-16.83v0" fill="none" stroke="#fff" stroke-width=".498" stroke-linecap="butt"/><path id="path1615" d="M11.647 27.29h12.422l-4.236 7.392" fill="none" stroke="#fff" stroke-width=".498" stroke-linecap="butt"/><ellipse ry="1.375" rx="1.283" cy="27.376" cx="23.928" id="circle1593" opacity="1" fill="#fff" fill-opacity="1" stroke="none" stroke-width=".173" stroke-linecap="round"/><ellipse ry="1.375" rx="1.283" id="circle1591" cx="29.534" cy="10.649" opacity="1" fill="#fff" fill-opacity="1" stroke="none" stroke-width=".173" stroke-linecap="round"/><ellipse ry="1.375" rx="1.283" cy="16.01" cx="16.43" id="path1589" opacity="1" fill="#fff" fill-opacity="1" stroke="none" stroke-width=".173" stroke-linecap="round"/><ellipse ry="1.719" rx="1.603" cy="27.43" cx="11.985" id="circle1601" opacity="1" fill="#fff" fill-opacity="1" stroke="none" stroke-width=".216" stroke-linecap="round"/><ellipse ry="1.375" rx="1.283" id="circle1595" cx="19.949" cy="34.524" opacity="1" fill="#fff" fill-opacity="1" stroke="none" stroke-width=".173" stroke-linecap="round"/><ellipse ry="1.547" rx="1.443" cy="31.92" cx="29.324" id="circle1597" opacity="1" fill="#fff" fill-opacity="1" stroke="none" stroke-width=".194" stroke-linecap="round"/><ellipse ry="1.719" rx="1.603" id="circle1599" cx="33.513" cy="19.587" opacity="1" fill="#fff" fill-opacity="1" stroke="none" stroke-width=".216" stroke-linecap="round"/></g></svg>