<svg xmlns="http://www.w3.org/2000/svg" xmlns:xlink="http://www.w3.org/1999/xlink" width="48" height="48" version="1.1" id="svg38"><defs id="defs22"><linearGradient id="linearGradient4488"><stop id="stop4490" offset="0" stop-color="#000" stop-opacity=".047"/><stop id="stop4492" offset="1" stop-color="#000" stop-opacity="0"/></linearGradient><style id="style4511"/><style id="style4511-26"/><style id="style4511-9"/><style id="style4552"/><style id="style4511-2"/><linearGradient gradientTransform="matrix(.3082 0 0 .3038 -64.056 2.216)" xlink:href="#linearGradient4488" id="linearGradient4160" x1="288.112" y1="141.785" x2="287.575" y2="79.008" gradientUnits="userSpaceOnUse"/><style id="style2" type="text/css"><![CDATA[.fil5{fill:none}.fil1{fill:#196FBA}.fil0{fill:#25B2EE}.fil4{fill:#793C7C}.fil3{fill:#8C508C}.fil2{fill:white}]]></style></defs><style id="style4485" type="text/css"/><path d="M2.535 26.443v1.668c0 9.575 5.664 17.282 17.394 17.282h7.031c15.352 0 18.095-11.322 18.095-17.282v-1.668c0 5.96-2.743 17.282-18.095 17.282h-7.03c-11.73 0-17.395-7.708-17.395-17.282z" id="path4147" opacity="1" fill="url(#linearGradient4160)" fill-opacity="1" stroke="none" stroke-width="1.108" stroke-linecap="square" stroke-linejoin="bevel" stroke-miterlimit="4" stroke-dasharray="none" stroke-dashoffset="0" stroke-opacity=".078"/><path d="M19.389 2.965h8.618c14.11 0 17.048 11.246 17.048 17.282v7.123c0 5.96-2.743 17.282-18.095 17.282h-7.03c-11.73 0-17.395-7.708-17.395-17.282v-7.123c0-9.575 5.55-17.282 16.854-17.282z" id="rect4144" opacity="1" fill="#6b5198" fill-opacity="1" stroke="#000" stroke-width=".337" stroke-linecap="square" stroke-linejoin="bevel" stroke-miterlimit="4" stroke-dasharray="none" stroke-dashoffset="0" stroke-opacity=".078"/><path d="M7.373 7.268a4.925 4.925 0 0 0-.63.606c-.209.231-.314.35-.542.658-.1.134-.183.237-.361.486-.222.269-.272.392-.456.676-.221.342-.374.582-.55.881-.193.322-.316.638-.475.978-.133.286-.297.615-.404.94.066-.059.169-.13.24-.19 1.587-1.337 4.1-1.447 7.243-.315 5.585 2.01 11.822 5.3 18.173 13.139.599.74 1.02 1.698 1.532 2.318-1.627.028-4.096-.126-6.223-.497-8.002-1.399-15.537-4.577-19.07-8.161-.317-.321-.575-.56-.576-.534-.002.028.712 1.435 1.584 3.126l1.311 2.955 1.949.918c2.12 1.013 4.82 2.195 10.684 4.68 6.424 2.724 9.302 4.033 12.22 5.564 2.337 1.226 4.714 2.722 5.913 3.721.408.342.503.429.539.465.001-.026.03-.152.018-.254-.077-.554-.525-2.746-.94-4.775-.09-.46-.189-.918-.283-1.377l-.137-.68c-.061-.295-.13-.575-.193-.867-.882-4.113-1.907-8.198-3.211-12.218-.602-1.831-.98-2.718-1.6-3.805-.229-.402-2.76-2.052-3.195-2.274-.007-.003-.036-.034-.04-.035l-.003.006c-.016-.008-.128-.082-.135-.084l-.004.003-.009-.003c-.026.023.172.442.386.808 2.19 3.744 3.627 9.821 2.896 12.967-.013.048-.022.098-.04.149l-.003.008v.003l-.01-.003c-.016.006-.063.015-.085.021-.597-.745-1.121-1.842-1.85-2.77-4.482-5.596-12.666-13.813-21.118-16.4-.145-.04-2.405-.8-2.545-.834z" id="path10" clip-rule="evenodd" fill="#fff" fill-rule="evenodd" stroke-width=".773" image-rendering="optimizeQuality" shape-rendering="geometricPrecision" text-rendering="geometricPrecision"/></svg>