<svg xmlns="http://www.w3.org/2000/svg" xmlns:xlink="http://www.w3.org/1999/xlink" width="48" height="48" version="1.1" id="svg38"><defs id="defs22"><linearGradient id="linearGradient4488"><stop id="stop4490" offset="0" stop-color="#000" stop-opacity=".047"/><stop id="stop4492" offset="1" stop-color="#000" stop-opacity="0"/></linearGradient><style id="style4511"/><linearGradient gradientUnits="userSpaceOnUse" x2="13" y2="4" x1="43" y1="40" id="a"><stop id="stop2-36753" stop-color="#f27935"/><stop id="stop4-562" stop-color="#f2784b" offset="1"/></linearGradient><style id="style4511-26"/><style id="style4511-9"/><style id="style4552"/><style id="style4511-2"/><linearGradient gradientTransform="translate(-63.205 2.216) scale(.3038)" xlink:href="#linearGradient4488" id="linearGradient4160" x1="288.112" y1="141.785" x2="287.575" y2="79.008" gradientUnits="userSpaceOnUse"/><style id="style4511-8"/><style id="style4511-26-4"/><style id="style4511-9-8"/><style id="style4552-5"/><style id="style4511-2-5"/><style id="style4511-87"/><style id="style4511-26-7"/><style id="style4511-9-1"/><style id="style4552-53"/><style id="style4511-2-9"/><clipPath id="b-3675"><use id="use948" overflow="visible" xlink:href="#a"/></clipPath><filter height="1.097" y="-.048" width="1.095" x="-.048" id="filter1644" color-interpolation-filters="sRGB"><feGaussianBlur id="feGaussianBlur1646" stdDeviation=".525"/></filter></defs><style id="style4485" type="text/css"/><path d="M2.433 26.443v1.668c0 9.575 5.583 17.282 17.146 17.282h6.93c15.133 0 17.837-11.322 17.837-17.282v-1.668c0 5.96-2.704 17.282-17.837 17.282h-6.93c-11.563 0-17.146-7.708-17.146-17.282z" id="path4147" opacity="1" fill="url(#linearGradient4160)" fill-opacity="1" stroke="none" stroke-width="1.1" stroke-linecap="square" stroke-linejoin="bevel" stroke-miterlimit="4" stroke-dasharray="none" stroke-dashoffset="0" stroke-opacity=".078"/><path d="M19.046 2.965h8.495c13.908 0 16.805 11.246 16.805 17.282v7.123c0 5.96-2.704 17.282-17.837 17.282h-6.93c-11.562 0-17.146-7.708-17.146-17.282v-7.123c0-9.575 5.47-17.282 16.613-17.282z" id="rect4144" opacity="1" fill="#e6e6e6" fill-opacity="1" stroke="#000" stroke-width=".334" stroke-linecap="square" stroke-linejoin="bevel" stroke-miterlimit="4" stroke-dasharray="none" stroke-dashoffset="0" stroke-opacity=".078"/><style type="text/css" id="style4485-4"/><style type="text/css" id="style4485-6"/><path clip-path="url(#b-3675)" d="M0 37V11l17 13z" id="path951-3" transform="matrix(.18317 0 0 .17624 -48.69 1.388)" fill="#fbbc05"/><path clip-path="url(#b-3675)" d="M0 11l17 13 7-6.1L48 14V0H0z" id="path953" transform="matrix(.18317 0 0 .17624 -48.69 1.388)" fill="#ea4335"/><path clip-path="url(#b-3675)" d="M0 37l30-23 7.9 1L48 0v48H0z" id="path955" transform="matrix(.18317 0 0 .17624 -48.69 1.388)" fill="#34a853"/><path clip-path="url(#b-3675)" d="M48 48L17 24l-4-3 35-10z" id="path957" transform="matrix(.18317 0 0 .17624 -48.69 1.388)" fill="#4285f4"/><g id="g1583" transform="matrix(.97681 0 0 1 6.233 -2.254)" stroke-opacity="1"><g transform="matrix(.67913 0 0 .65344 -5.796 -145.555)" id="g1587"><g transform="translate(4.26 230.233) scale(.50132)" id="g1786" stroke="#000"><path style="line-height:normal;font-variant-ligatures:normal;font-variant-position:normal;font-variant-caps:normal;font-variant-numeric:normal;font-variant-alternates:normal;font-feature-settings:normal;text-indent:0;text-align:start;text-decoration-line:none;text-decoration-style:solid;text-decoration-color:#000;text-transform:none;text-orientation:mixed;white-space:normal;shape-padding:0;isolation:auto;mix-blend-mode:normal;solid-color:#000;solid-opacity:1" d="M130 35.11c-49.645 0-90 40.355-90 90 0 26.1 11.335 50.92 31.06 68.013l.669-.771L80 185l12-16-3-7-17 12-2.87 2.55a79.682 79.682 0 0 1-18.83-51.44c0-44.079 35.622-79.702 79.7-79.702s79.701 35.623 79.701 79.701a79.686 79.686 0 0 1-18.42 50.955l-2.07-2.09-16.201-13.058-3.44 6.795 10.957 16.732 7.172 7.243 1.242 1.433A90.002 90.002 0 0 0 220 125.11c0-49.644-40.355-90-90-90z" transform="translate(-8.498 -1.928) scale(.52778)" id="path4609-6" color="#000" font-style="normal" font-variant="normal" font-weight="400" font-stretch="normal" font-size="medium" font-family="sans-serif" text-decoration="none" letter-spacing="normal" word-spacing="normal" writing-mode="lr-tb" direction="ltr" dominant-baseline="auto" baseline-shift="baseline" text-anchor="start" clip-rule="nonzero" display="inline" overflow="visible" visibility="visible" opacity="1" color-interpolation="sRGB" color-interpolation-filters="linearRGB" vector-effect="none" fill="#6a6a6a" fill-opacity="1" fill-rule="nonzero" stroke="none" stroke-width="10.299" stroke-linecap="butt" stroke-linejoin="miter" stroke-miterlimit="4" stroke-dasharray="none" stroke-dashoffset="0" stroke-opacity="1" color-rendering="auto" image-rendering="auto" shape-rendering="auto" text-rendering="auto" enable-background="accumulate"/></g><path style="line-height:normal;font-variant-ligatures:normal;font-variant-position:normal;font-variant-caps:normal;font-variant-numeric:normal;font-variant-alternates:normal;font-feature-settings:normal;text-indent:0;text-align:start;text-decoration-line:none;text-decoration-style:solid;text-decoration-color:#000;text-transform:none;text-orientation:mixed;white-space:normal;shape-padding:0;isolation:auto;mix-blend-mode:normal;solid-color:#000;solid-opacity:1" d="M34.396 234.854c-15.327 0-27.78 12.453-27.78 27.78 0 15.328 12.453 27.782 27.78 27.782 15.328 0 27.782-12.454 27.782-27.781 0-15.328-12.454-27.781-27.782-27.781zm0 2.646c13.898 0 25.135 11.237 25.135 25.135 0 13.897-11.237 25.135-25.135 25.135-13.897 0-25.136-11.238-25.136-25.135 0-13.898 11.239-25.135 25.136-25.135z" id="path942" color="#000" font-style="normal" font-variant="normal" font-weight="400" font-stretch="normal" font-size="medium" font-family="sans-serif" text-decoration="none" letter-spacing="normal" word-spacing="normal" writing-mode="lr-tb" direction="ltr" dominant-baseline="auto" baseline-shift="baseline" text-anchor="start" clip-rule="nonzero" display="inline" overflow="visible" visibility="visible" opacity="1" color-interpolation="sRGB" color-interpolation-filters="linearRGB" vector-effect="none" fill="#5874aa" fill-opacity="1" fill-rule="nonzero" stroke="none" stroke-width="2.646" stroke-linecap="butt" stroke-linejoin="round" stroke-miterlimit="4" stroke-dasharray="none" stroke-dashoffset="0" color-rendering="auto" image-rendering="auto" shape-rendering="auto" text-rendering="auto" enable-background="accumulate"/></g><path transform="matrix(.67913 0 0 .65344 -5.436 -145.556)" d="M36.78 261.779a2.98 2.98 0 0 0-.765-1.258c-1.178-1.159-25.564-20.95-25.564-20.95s20.19 24.058 21.367 25.217a2.992 2.992 0 0 0 4.961-3.01zm-1.92.55a.997.997 0 0 1-.436 1.185.997.997 0 0 1-1.366-.354.997.997 0 0 1 .354-1.365.997.997 0 0 1 1.366.354.997.997 0 0 1 .083.18z" id="path1614" display="inline" opacity=".3" fill="#000" fill-opacity="1" stroke="none" stroke-width="3.99" stroke-linecap="round" stroke-linejoin="round" stroke-miterlimit="4" stroke-dasharray="none" stroke-dashoffset="0" filter="url(#filter1644)" enable-background="new"/><path id="path1038" d="M19.542 25.502a1.935 1.935 0 0 0-.519-.822c-.8-.757-17.361-13.69-17.361-13.69s13.71 15.721 14.51 16.478a2.09 2.09 0 0 0 2.875-.022c.54-.53.705-1.28.495-1.944zm-1.303.36a.677.652 0 0 1-.297.774.677.652 0 0 1-.927-.23.677.652 0 0 1 .24-.893.677.652 0 0 1 .928.231.677.652 0 0 1 .056.118z" display="inline" opacity="1" fill="#ff1212" fill-opacity="1" stroke="none" stroke-width="2.658" stroke-linecap="round" stroke-linejoin="round" stroke-miterlimit="4" stroke-dasharray="none" stroke-dashoffset="0" enable-background="new"/></g></svg>