<svg xmlns:osb="http://www.openswatchbook.org/uri/2009/osb" xmlns="http://www.w3.org/2000/svg" xmlns:xlink="http://www.w3.org/1999/xlink" width="48" height="48" version="1.1" id="svg38"><defs id="defs22"><linearGradient id="linearGradient4488"><stop id="stop4490" offset="0" stop-color="#000" stop-opacity=".047"/><stop id="stop4492" offset="1" stop-color="#000" stop-opacity="0"/></linearGradient><style id="style4511"/><style id="style4511-26"/><style id="style4511-9"/><style id="style4552"/><style id="style4511-2"/><linearGradient xlink:href="#linearGradient4488" id="linearGradient4540" gradientUnits="userSpaceOnUse" gradientTransform="translate(-62.889 1.994) scale(.3038)" x1="288.112" y1="141.785" x2="287.575" y2="79.008"/><linearGradient osb:paint="solid" id="linearGradient5293"><stop id="stop5295" offset="0" stop-color="#9a89c0" stop-opacity="1"/></linearGradient></defs><style id="style4485" type="text/css"/><path id="path4516" d="M2.75 26.22v1.67c0 9.573 5.583 17.281 17.146 17.281h6.93c15.132 0 17.836-11.322 17.836-17.282v-1.668c0 5.96-2.704 17.282-17.836 17.282h-6.93C8.333 43.503 2.75 35.795 2.75 26.22z" opacity="1" fill="url(#linearGradient4540)" fill-opacity="1" stroke="none" stroke-width="1.1" stroke-linecap="square" stroke-linejoin="bevel" stroke-miterlimit="4" stroke-dasharray="none" stroke-dashoffset="0" stroke-opacity=".078"/><path id="path4518" d="M3.065 28.165v-8.58c0-14.045 11.247-16.97 17.282-16.97h7.123c5.96 0 17.282 2.73 17.282 18.013v6.999c0 11.677-7.707 17.316-17.282 17.316h-7.123c-9.574 0-17.282-5.525-17.282-16.778z" opacity="1" fill="#c3e242" fill-opacity="1" stroke="#000" stroke-width=".336" stroke-linecap="square" stroke-linejoin="bevel" stroke-miterlimit="4" stroke-dasharray="none" stroke-dashoffset="0" stroke-opacity=".078"/><g id="g1665" transform="matrix(1.0408 0 0 1.07366 -.55 -1.99)" fill="#0197fd" fill-opacity="1" stroke="none"><path id="path1623" d="M27.501 27c-5 0-6 9-12 9-3 0-5-2-5-6 0-8 8.221-7.942 15-6 0-4-9-5-9-9 0-2 1.916-3 4-3 7 0 8 9 8 12 1.416 1 9 6 6 9-1.439 1.515-5.52-6-7-6z" opacity="1"/><path id="path1627" d="M31.501 24c-.314-9.504 11.4-1.581 0 0" opacity="1"/></g></svg>