<svg height="48" width="48" xmlns="http://www.w3.org/2000/svg" xmlns:xlink="http://www.w3.org/1999/xlink"><linearGradient id="a" gradientUnits="userSpaceOnUse" x1="25.03094675612" x2="24.86807943138" y1="45.06785145782" y2="25.99627061771"><stop offset="0" stop-opacity=".046875"/><stop offset="1" stop-opacity="0"/></linearGradient><linearGradient id="b" gradientUnits="userSpaceOnUse" x1="23.801933" x2="23.514297" y1="39.730446" y2="10.463416"><stop offset="0" stop-color="#25c050"/><stop offset="1" stop-color="#37dc65"/></linearGradient><path d="m3.1412274 26.220541v1.668528c0 9.574276 5.58322 17.282199 17.1457296 17.282199h6.93044c15.13236 0 17.83641-11.322632 17.83641-17.282199v-1.668528c0 5.959567-2.70405 17.282198-17.83641 17.282198h-6.93044c-11.5625096 0-17.1457296-7.707923-17.1457296-17.282198z" fill="url(#a)"/><path d="m19.754367 2.7423187h8.49507c13.90774 0 16.80439 11.2468653 16.80439 17.2820843v7.123176c0 5.959564-2.70417 17.282082-17.83653 17.282082h-6.9301c-11.5625096 0-17.1459396-7.707808-17.1459396-17.282082v-7.123176c0-9.574274 5.47018-17.2820843 16.6131096-17.2820843z" style="stroke:#000;stroke-width:.33418;stroke-linecap:square;stroke-linejoin:bevel;stroke-opacity:.078125;fill:url(#b)"/><path d="m18.258781 15.40333c-2.206408.06498-4.226274.437521-6.011341.867244-.999341.239228-1.636478 1.176216-1.393904 2.170167.238659.995252 1.262226 1.62879 2.265357 1.38967 6.214436-1.497317 16.821347-.599208 23.002582 3.557671.849256.571593 1.950929.329658 2.525525-.520259.574728-.851541.330346-2.027324-.52245-2.60379-5.333271-3.586695-13.246605-5.055205-19.865769-4.860703zm.435727 6.944125c-1.959521.03574-3.913874.252441-5.749059.693752-.831449.198075-1.334477.993085-1.133736 1.823291.202654.829774.996081 1.330107 1.82963 1.127375 6.422438-1.542586 14.633265-.02491 19.779047 3.557779.7003.483763 1.596254.178365 2.089798-.520368.485882-.699816.355009-1.593377-.346889-2.083421-4.432745-3.078999-10.590195-4.707138-16.468791-4.598408zm.17556 6.421699c-1.760858.02058-3.661994.198725-5.57773.520368-.676144.111979-1.157715.718119-1.044898 1.38967.111048.673284.719767 1.151849 1.393903 1.040628 7.00392-1.173183 12.926787-.157897 17.424852 2.950666.559398.38857 1.263913.21367 1.656187-.346877.386824-.563686.305128-1.262636-.260169-1.647741-3.787699-2.618844-8.309662-3.972775-13.592145-3.906714z" fill="#fff" fill-rule="evenodd" stroke-width="2.782664"/></svg>