<svg xmlns="http://www.w3.org/2000/svg" xmlns:xlink="http://www.w3.org/1999/xlink" width="48" height="48" version="1.1" id="svg38"><defs id="defs22"><style id="style4511"/><style id="style4511-26"/><style id="style4511-9"/><linearGradient id="linearGradient4903"><stop offset="0" id="stop3" stop-color="#eef1f2" stop-opacity="1"/><stop offset="1" id="stop5" stop-color="#f9fafb" stop-opacity="1"/></linearGradient><style id="style4552"/><style id="style4511-2"/><path id="path-1" d="M7.61 32.588c14.531 1.406 23.38-.435 26.548-5.522C37.825 21.952 37.776 12.93 34.013 0c-5.066 10.421-16.645 11-22.29 11-3.762 0-6.85 1.544-9.262 4.632-3.57 5.114-3.088 9.793 1.447 14.04 14.57-2.413 23.881-8.106 27.934-17.08C28.332 23.5 20.256 30.165 7.61 32.588z"/><linearGradient xlink:href="#linearGradient4903" id="linearGradient1258" x1="2.267" y1="23.808" x2="45.232" y2="23.808" gradientUnits="userSpaceOnUse"/></defs><style id="style4485" type="text/css"/><path d="M19.332 2.966h8.64c14.145 0 17.091 11.246 17.091 17.28v7.124c0 5.959-2.75 17.28-18.14 17.28h-7.05c-11.76 0-17.438-7.707-17.438-17.28v-7.123C2.435 10.673 8 2.966 19.332 2.966z" id="rect4144" opacity="1" fill="url(#linearGradient1258)" fill-opacity="1" stroke="#000" stroke-width=".337" stroke-linecap="square" stroke-linejoin="bevel" stroke-miterlimit="4" stroke-dasharray="none" stroke-dashoffset="0" stroke-opacity=".078"/><g id="Group-3" transform="matrix(.79197 0 0 .81489 9.102 8.902)" fill="none" fill-rule="evenodd" stroke="none" stroke-width="1"><g id="Combined-Shape"><use height="100%" width="100%" y="0" x="0" xlink:href="#path-1" id="use1181" fill="#6db33f" fill-rule="evenodd"/><path d="M28.717 18.443C23.662 24.37 15.41 28.273 3.99 30.164l-.244.04-.18-.168c-4.717-4.416-5.228-9.373-1.5-14.712 2.506-3.208 5.739-4.824 9.658-4.824 4.272 0 7.749-.385 11.2-1.565 4.764-1.629 8.41-4.567 10.64-9.154l.567-1.166.362 1.245c3.802 13.064 3.851 22.225.09 27.47-3.303 5.304-12.315 7.179-27.021 5.756l-3.459-.335 3.413-.654c9.946-1.906 17.001-6.452 21.201-13.654z" id="path1183" stroke="#fff" stroke-width="1"/></g><circle id="Oval-6" cx="2.026" cy="32.711" r="1.737" fill="#6db33f"/></g></svg>