<svg xmlns:osb="http://www.openswatchbook.org/uri/2009/osb" xmlns="http://www.w3.org/2000/svg" xmlns:xlink="http://www.w3.org/1999/xlink" width="48" height="48" version="1.1" id="svg38"><defs id="defs22"><linearGradient id="linearGradient4488"><stop id="stop4490" offset="0" stop-color="#000" stop-opacity=".047"/><stop id="stop4492" offset="1" stop-color="#000" stop-opacity="0"/></linearGradient><style id="style4511"/><style id="style4511-26"/><style id="style4511-9"/><style id="style4552"/><linearGradient id="e-1" y1="41.22" x1="24.392" y2="25.343" x2="20.643" gradientUnits="userSpaceOnUse"><stop stop-color="#334545" id="stop22-8"/><stop offset="1" stop-color="#536161" id="stop24-7"/></linearGradient><style id="style4511-2"/><linearGradient xlink:href="#linearGradient4488" id="linearGradient4540" gradientUnits="userSpaceOnUse" gradientTransform="matrix(.30673 0 0 .3038 -63.522 1.994)" x1="288.112" y1="141.785" x2="287.575" y2="79.008"/><linearGradient osb:paint="solid" id="linearGradient5293"><stop id="stop5295" offset="0" stop-color="#9a89c0" stop-opacity="1"/></linearGradient><linearGradient osb:paint="solid" id="linearGradient5251"><stop id="stop5253" offset="0" stop-color="#2f343f" stop-opacity="1"/></linearGradient><linearGradient xlink:href="#e-1" id="linearGradient2002" x1="2.746" y1="23.739" x2="45.073" y2="23.739" gradientUnits="userSpaceOnUse"/><clipPath id="clipPath-455320549"/></defs><style id="style4485" type="text/css"/><path id="path4516" d="M2.75 26.22v1.669c0 9.574 5.638 17.282 17.312 17.282h6.998c15.278 0 18.008-11.323 18.008-17.282V26.22c0 5.96-2.73 17.282-18.008 17.282h-6.998c-11.674 0-17.311-7.708-17.311-17.282z" opacity="1" fill="url(#linearGradient4540)" fill-opacity="1" stroke="none" stroke-width="1.105" stroke-linecap="square" stroke-linejoin="bevel" stroke-miterlimit="4" stroke-dasharray="none" stroke-dashoffset="0" stroke-opacity=".078"/><path id="path4518" d="M44.905 19.354v8.576c0 14.042-11.329 16.967-17.408 16.967h-7.175c-6.003 0-17.407-2.73-17.407-18.009v-6.996c0-11.674 7.763-17.311 17.407-17.311h7.175c9.644 0 17.408 5.522 17.408 16.773z" opacity="1" fill="url(#linearGradient2002)" fill-opacity="1" stroke="#000" stroke-width=".337" stroke-linecap="square" stroke-linejoin="bevel" stroke-miterlimit="4" stroke-dasharray="none" stroke-dashoffset="0" stroke-opacity=".078"/><path id="path1952" d="M37.342 10.315c-.07.815-.757 4.231-7.115 6.524-14.532 5.927-7.665 13.349-7.665 13.349 1.92-5.108 3.235-9.182 8.422-10.91 1.06.519 1.196.385.401 1.132-3.187 2.88-4.96 6.179-6.817 9.933 10.242.255 13.237-11.97 12.77-20.027m.005 0" fill="#00ce9b" fill-opacity="1" fill-rule="nonzero" stroke="none" stroke-width="1.049"/><path id="path1954" d="M18.906 37.163c-2.118-1.039-8.472-13.11-8.472-13.503 0-1.039 3.644.061 4.236 1.038 1.473 1.969 3.082 6.184 4.236 5.194 1.059-1.039.716-2.86 1.968-5.409 1.188-2.888 5.358-4.196 1.688 5.677-3.135 6.63-2.597 7.003-3.656 7.003m0 0" fill="#00ce9b" fill-opacity="1" fill-rule="nonzero" stroke="none" stroke-width="1.049"/></svg>