<svg xmlns:osb="http://www.openswatchbook.org/uri/2009/osb" xmlns="http://www.w3.org/2000/svg" width="48" height="48" version="1.1" id="svg38"><defs id="defs22"><style id="style4511"/><style id="style4511-26"/><style id="style4511-9"/><style id="style4552"/><style id="style4511-2"/><linearGradient osb:paint="solid" id="linearGradient5293"><stop id="stop5295" offset="0" stop-color="#9a89c0" stop-opacity="1"/></linearGradient></defs><style id="style4485" type="text/css"/><path id="path4518" d="M19.591 2.743h8.611c14.098 0 17.034 11.247 17.034 17.282v7.122c0 5.96-2.74 17.282-18.08 17.282h-7.025c-11.72 0-17.38-7.708-17.38-17.282v-7.122c0-9.574 5.545-17.282 16.84-17.282z" opacity="1" fill="#e6e6e6" fill-opacity="1" stroke="#000" stroke-width=".336" stroke-linecap="square" stroke-linejoin="bevel" stroke-miterlimit="4" stroke-dasharray="none" stroke-dashoffset="0" stroke-opacity=".078"/><g id="g1297" transform="translate(-1.408 -1.794)" fill-opacity="1" stroke="none" stroke-width="1.118"><path id="path27" d="M15.074 28.646c-1.174 1.638-1.434 3.5-.734 5.254 1.2 2.983 4.975 5.19 9.568 5.592 3.007.261 6.046-.283 8.452-1.513a2.954 2.954 0 0 0 1.63.488c1.582 0 2.864-1.22 2.864-2.727 0-1.506-1.282-2.726-2.863-2.726-1.582 0-2.863 1.22-2.863 2.726 0 .139.012.277.035.413-1.628.789-3.662 1.22-5.76 1.223-5.06 0-9.161-2.442-9.161-5.453 0-.548.14-1.09.413-1.618z" opacity="1" fill="#2a3676"/><path id="path29" d="M25.402 16.654a4.58 2.181 0 0 0-4.58 2.181 4.58 2.181 0 0 0 4.58 2.181 4.58 2.181 0 0 0 4.58-2.18 4.58 2.181 0 0 0-4.58-2.182zm-10.34 5.453c-1.169 1.636-1.427 3.495-.728 5.247 1.2 2.982 4.976 5.189 9.568 5.591 3.007.262 6.046-.282 8.452-1.513a2.954 2.954 0 0 0 1.631.488c1.581 0 2.863-1.22 2.863-2.727 0-1.506-1.282-2.726-2.863-2.726s-2.863 1.22-2.863 2.726c.001.139.013.277.036.414-1.629.788-3.663 1.22-5.76 1.222-5.06 0-9.162-2.441-9.162-5.453 0-.551.14-1.101.418-1.627z" opacity="1" fill="#2b9d96"/><path id="path31" d="M25.924 11.212a11.452 7.634 0 0 0-7.493 1.57 11.452 7.634 0 0 0-4.09 8.031 11.452 7.634 0 0 0 9.568 5.592 11.452 7.634 0 0 0 8.452-1.513 2.863 2.726 0 0 0 1.63.487 2.863 2.726 0 0 0 2.864-2.727 2.863 2.726 0 0 0-2.863-2.726 2.863 2.726 0 0 0-2.863 2.726 2.863 2.726 0 0 0 .035.414 9.161 5.453 0 0 1-5.762 1.222 9.161 5.453 0 0 1-9.161-5.453 9.161 5.453 0 0 1 9.161-5.453 9.161 5.453 0 0 1 4.194.61l1.532-1.768a11.452 7.634 0 0 0-5.205-1.014z" opacity="1" fill="#2a3676"/></g></svg>