<svg xmlns="http://www.w3.org/2000/svg" xmlns:xlink="http://www.w3.org/1999/xlink" width="48" height="48" version="1.1" id="svg38"><defs id="defs22"><linearGradient id="linearGradient4488"><stop id="stop4490" offset="0" stop-color="#000" stop-opacity=".047"/><stop id="stop4492" offset="1" stop-color="#000" stop-opacity="0"/></linearGradient><style id="style4511"/><style id="style4511-26"/><style id="style4511-9"/><style id="style4552"/><style id="style4511-2"/><linearGradient xlink:href="#linearGradient4488" id="linearGradient4546" gradientUnits="userSpaceOnUse" gradientTransform="translate(-62.497 1.994) scale(.3038)" x1="288.112" y1="141.785" x2="287.575" y2="79.008"/></defs><style id="style4485" type="text/css"/><path d="M3.141 26.22v1.67c0 9.573 5.583 17.281 17.146 17.281h6.93c15.133 0 17.837-11.322 17.837-17.282v-1.668c0 5.96-2.704 17.282-17.837 17.282h-6.93c-11.563 0-17.146-7.708-17.146-17.282z" id="path4528" opacity="1" fill="url(#linearGradient4546)" fill-opacity="1" stroke="none" stroke-width="1.1" stroke-linecap="square" stroke-linejoin="bevel" stroke-miterlimit="4" stroke-dasharray="none" stroke-dashoffset="0" stroke-opacity=".078"/><path d="M19.754 2.742h8.495c13.908 0 16.805 11.247 16.805 17.282v7.124c0 5.96-2.704 17.282-17.837 17.282h-6.93c-11.562 0-17.146-7.708-17.146-17.282v-7.124c0-9.574 5.47-17.282 16.613-17.282z" id="path4530" opacity="1" fill="#4981ff" fill-opacity="1" stroke="#000" stroke-width=".334" stroke-linecap="square" stroke-linejoin="bevel" stroke-miterlimit="4" stroke-dasharray="none" stroke-dashoffset="0" stroke-opacity=".078"/><path id="path4461" d="M20.207 4.916h7.61c12.457 0 15.051 10.074 15.051 15.48v6.38c0 5.338-2.422 15.48-15.976 15.48h-6.207c-10.357 0-15.358-6.904-15.358-15.48v-6.38c0-8.576 4.9-15.48 14.88-15.48z" opacity="1" fill="#7ba3ff" fill-opacity="1" stroke="none" stroke-width=".309" stroke-linecap="square" stroke-linejoin="bevel" stroke-miterlimit="4" stroke-dasharray="none" stroke-dashoffset="0" stroke-opacity=".078"/><path d="M17.439 14.189c-.023-.005-.815 1.329-.798 1.343.004.004 3.056 1.768 6.782 3.919 3.727 2.15 6.813 3.931 6.857 3.959.093.058.189.236.235.434a1.172 1.172 0 0 1-.72 1.356c-.07.028-1.888 1.186-4.302 2.745a6608.84 6608.84 0 0 1-4.772 3.078c-.325.21-.617.405-.652.437a.677.677 0 0 1-.437.168.484.484 0 0 1-.267-.065.577.577 0 0 1-.285-.28l-.047-.086-.006-4.027-.003-4.027H17.46l-.003 3.912c-.002 2.15 0 3.984.003 4.077.019.527.245 1.039.633 1.427.346.345.806.57 1.288.63.087.01.25.015.36.009a2.134 2.134 0 0 0 1.213-.438c.283-.21 9.438-6.106 9.602-6.183.28-.131.515-.3.754-.54.238-.238.384-.437.52-.71a2.766 2.766 0 0 0 .013-2.41 3.448 3.448 0 0 0-.403-.612c-.064-.072-1.409-.855-7.027-4.098a2212.35 2212.35 0 0 0-6.975-4.018z" id="path4148-2" class="ColorScheme-Text" color="#4d4d4d" opacity="1" fill="#fff" fill-opacity="1" stroke="none"/></svg>