<svg xmlns="http://www.w3.org/2000/svg" width="48" height="48" version="1.1" id="svg38"><defs id="defs22"><style id="style4511"/><style id="style4511-26"/><style id="style4511-9"/><style id="style4552"/><style id="style4511-2"/></defs><style id="style4485" type="text/css"/><path id="path4518" d="M19.421 3.605h8.525c13.957 0 16.864 11.247 16.864 17.282v7.123c0 5.96-2.714 17.283-17.9 17.283h-6.954C8.353 45.293 2.75 37.585 2.75 28.01v-7.123c0-9.574 5.49-17.282 16.671-17.282z" opacity="1" fill="#7c529e" fill-opacity="1" stroke="#000" stroke-width=".335" stroke-linecap="square" stroke-linejoin="bevel" stroke-miterlimit="4" stroke-dasharray="none" stroke-dashoffset="0" stroke-opacity=".078"/><g id="g1099" transform="matrix(.58679 0 0 .61057 2.804 -134.078)"><path d="M6.902 61.744c-.743 2.456-1.146 5.44-1.338 8.372 4.97-.477 10.74-.858 15.73-.907 92.909.071 169.375 73.116 173.696 165.924h.117a178.068 178.068 0 0 0-32.976-99.19 52.661 52.661 0 0 0 8.793-13.982l22.058-1.328-18.425-12.164a52.9 52.9 0 0 0 .521-6.885 52.574 52.574 0 0 0-3.945-19.934l14.56-16.406-21.504 4.397a52.643 52.643 0 0 0-21.517-16.588l-1.313-21.824-12.056 18.26a52.97 52.97 0 0 0-6.834-.514 52.667 52.667 0 0 0-20.16 4.03L85.965 38.519l4.394 21.478a52.544 52.544 0 0 0-11.443 12.256 178.092 178.092 0 0 0-61.668-11.137c-3.403.053-6.952.38-10.346.629zm115.567-4.676c24.584 0 44.515 19.932 44.515 44.516a44.517 44.517 0 0 1-9.912 27.896 178.045 178.045 0 0 0-70.568-54.035 44.513 44.513 0 0 1 35.965-18.377z" id="path46" transform="translate(-1.354 231.07) scale(.26458)" fill="#fff" stroke-width=".674"/></g></svg>