<svg xmlns="http://www.w3.org/2000/svg" width="48" height="48" version="1.1" id="svg38"><defs id="defs22"><style id="style4511"/><style id="style4511-26"/><style id="style4511-9"/><style id="style4552"/><style id="style4511-2"/><clipPath id="clipPath-222431279"/></defs><style id="style4485" type="text/css"/><path d="M19.61 3.461h8.496c13.907 0 16.804 11.247 16.804 17.282v7.124c0 5.96-2.704 17.282-17.837 17.282h-6.93c-11.562 0-17.146-7.708-17.146-17.282v-7.124c0-9.574 5.47-17.282 16.614-17.282z" id="path4530" opacity="1" fill="#65717f" fill-opacity="1" stroke="#000" stroke-width=".334" stroke-linecap="square" stroke-linejoin="bevel" stroke-miterlimit="4" stroke-dasharray="none" stroke-dashoffset="0" stroke-opacity=".078"/><g id="g59" transform="translate(-.134 .387)"><g clip-path="url(#clipPath-222431279)" id="g57"><g transform="translate(1 1)" id="g55"><g id="g53" opacity=".1"><g id="g51" fill="#000" fill-opacity="1" fill-rule="nonzero" stroke="none"><path d="M12 13h6v6h-6m0-6" id="path33"/><path d="M21 13h6v6h-6m0-6" id="path35"/><path d="M30 13h6v6h-6m0-6" id="path37"/><path d="M12 21h6v6h-6m0-6" id="path39"/><path d="M21 21h6v6h-6m0-6" id="path41"/><path d="M30 21h6v6h-6m0-6" id="path43"/><path d="M12 29h6v6h-6m0-6" id="path45"/><path d="M21 29h6v6h-6m0-6" id="path47"/><path d="M30 29h6v6h-6m0-6" id="path49"/></g></g></g></g></g><path id="path61" d="M11.866 13.387h6v6h-6m0-6" fill="#fff" fill-opacity="1" fill-rule="nonzero" stroke="none"/><path id="path63" d="M20.866 13.387h6v6h-6m0-6" fill="#fff" fill-opacity="1" fill-rule="nonzero" stroke="none"/><path id="path65" d="M29.866 13.387h6v6h-6m0-6" fill="#fff" fill-opacity="1" fill-rule="nonzero" stroke="none"/><path id="path67" d="M11.866 21.387h6v6h-6m0-6" fill="#fff" fill-opacity="1" fill-rule="nonzero" stroke="none"/><path id="path69" d="M20.866 21.387h6v6h-6m0-6" fill="#1bb4e6" fill-opacity="1" fill-rule="nonzero" stroke="none"/><path id="path71" d="M29.866 21.387h6v6h-6m0-6" fill="#fff" fill-opacity="1" fill-rule="nonzero" stroke="none"/><path id="path73" d="M11.866 29.387h6v6h-6m0-6" fill="#fff" fill-opacity="1" fill-rule="nonzero" stroke="none"/><path id="path75" d="M20.866 29.387h6v6h-6m0-6" fill="#fff" fill-opacity="1" fill-rule="nonzero" stroke="none"/><path id="path77" d="M29.866 29.387h6v6h-6m0-6" fill="#fff" fill-opacity="1" fill-rule="nonzero" stroke="none"/></svg>