<svg xmlns="http://www.w3.org/2000/svg" xmlns:xlink="http://www.w3.org/1999/xlink" width="48" height="48" version="1.1" id="svg38"><defs id="defs22"><linearGradient id="linearGradient4694"><stop offset="0" id="stop4696" stop-color="#123b71" stop-opacity="1"/><stop offset="1" id="stop4698" stop-color="#1383b5" stop-opacity="1"/></linearGradient><linearGradient id="linearGradient4488"><stop id="stop4490" offset="0" stop-color="#000" stop-opacity=".047"/><stop id="stop4492" offset="1" stop-color="#000" stop-opacity="0"/></linearGradient><style id="style4511"/><style id="style4511-26"/><style id="style4511-9"/><style id="style4552"/><style id="style4511-2"/><linearGradient xlink:href="#linearGradient4488" id="linearGradient4471" gradientUnits="userSpaceOnUse" gradientTransform="translate(-62.47 2.216) scale(.3038)" x1="288.112" y1="141.785" x2="287.575" y2="79.008"/><style id="style4552-7"/><style id="style4552-6"/><linearGradient xlink:href="#linearGradient4694" id="linearGradient4700" x1="10.87" y1="10.595" x2="26.502" y2="40.609" gradientUnits="userSpaceOnUse"/></defs><style id="style4485" type="text/css"/><path d="M3.168 26.443v1.668c0 9.575 5.583 17.282 17.146 17.282h6.93c15.132 0 17.836-11.322 17.836-17.282v-1.668c0 5.96-2.704 17.282-17.836 17.282h-6.93c-11.563 0-17.146-7.708-17.146-17.282z" id="path4467" opacity="1" fill="url(#linearGradient4471)" fill-opacity="1" stroke="none" stroke-width="1.1" stroke-linecap="square" stroke-linejoin="bevel" stroke-miterlimit="4" stroke-dasharray="none" stroke-dashoffset="0" stroke-opacity=".078"/><path d="M19.781 2.965h8.495c13.908 0 16.805 11.246 16.805 17.282v7.123c0 5.96-2.705 17.282-17.837 17.282h-6.93c-11.563 0-17.146-7.708-17.146-17.282v-7.123c0-9.575 5.47-17.282 16.613-17.282z" id="path4469" opacity="1" fill="url(#linearGradient4700)" fill-opacity="1" stroke="#000" stroke-width=".334" stroke-linecap="square" stroke-linejoin="bevel" stroke-miterlimit="4" stroke-dasharray="none" stroke-dashoffset="0" stroke-opacity=".078"/><style type="text/css" id="style4485-4"/><style type="text/css" id="style4485-5"/><path d="M3.254 29.93c-1.915 11.12-.958 5.56 0 0zm22.223-16.976c-3.632 0-6.58 3.006-6.612 6.725l-4.122 6.06a4.795 4.795 0 0 0-3.032.686l-8.55-3.53v5.136c0 .429.022.85.046 1.27l6.203 2.556c1.69 5.92 9.16 4.067 9.734-.583l6.333-4.753c3.651 0 6.615-3.032 6.615-6.778 0-3.748-2.963-6.789-6.615-6.789zm0 2.235c2.446 0 4.437 2.043 4.437 4.554 0 2.51-1.99 4.542-4.437 4.542s-4.434-2.032-4.434-4.542 1.987-4.554 4.434-4.554zm.017.894c-1.955 0-3.539 1.63-3.539 3.637 0 2.006 1.584 3.637 3.539 3.637s3.544-1.63 3.544-3.637-1.589-3.637-3.544-3.637zm-11.263 10.97c2.012 0 3.631 1.66 3.631 3.726 0 2.065-1.619 3.726-3.631 3.726-1.4 0-2.607-.801-3.214-1.985.597.247 1.195.491 1.791.74 1.48.61 3.167-.124 3.762-1.643.595-1.518-.129-3.243-1.61-3.853l-1.512-.62c.252-.056.514-.09.783-.09z" id="rect4281-5" opacity="1" fill="#fff" fill-opacity="1" stroke="none" stroke-width=".812"/></svg>