<svg xmlns="http://www.w3.org/2000/svg" width="48" height="48" version="1.1" id="svg38"><defs id="defs22"><style id="style4511"/><style id="style4511-26"/><style id="style4511-9"/><style id="style4552"/><style id="style4511-2"/></defs><style id="style4485" type="text/css"/><path d="M19.74 3.213h8.587c14.059 0 16.987 11.181 16.987 17.18v7.082c0 5.925-2.733 17.181-18.03 17.181h-7.006c-11.689 0-17.333-7.662-17.333-17.18v-7.082c0-9.518 5.53-17.181 16.794-17.181z" id="rect4144" opacity="1" fill="#768f9c" fill-opacity="1" stroke="#000" stroke-width=".335" stroke-linecap="square" stroke-linejoin="bevel" stroke-miterlimit="4" stroke-dasharray="none" stroke-dashoffset="0" stroke-opacity=".078"/><path d="M31.367 16.698c-1.807.106-3.703.68-5.548 1.78-2.602-1.1-11.773-2.072-12.591 7.194-1.863-.309-6.692 1.314-6.988 5.363l-2.792 1.562c.55 1.87 1.54 4.52 2.46 5.642 1.19 1.451 3.082 3.193 4.63 4.15 1.75 1.08 3.392 1.507 5.521 2.008 2.257.322 4.758.39 7.139.39 1.24 0 2.186-.054 3.408-.051 1.212.003 2.81-.1 3.739-.19.727-.07 2.792-.485 3.397-.651.63-.173 2.248-.794 2.962-1.133.771-.366 2.048-1.099 2.881-1.831.833-.732 1.604-1.496 2.264-2.355.63-.818 1.31-1.987 1.736-2.89.398-.844.722-1.932 1.146-2.928-1.704-.54-3.014-2.896-3.28-2.948 1.743-8.011-3.621-13.497-10.077-13.115z" id="path1228" fill="#fff" fill-opacity=".902" fill-rule="nonzero" stroke="none" stroke-width=".903"/><path d="M19.668 3.122h8.587c14.058 0 16.986 11.267 16.986 17.313v7.135c0 5.97-2.733 17.313-18.03 17.313h-7.004c-11.688 0-17.331-7.722-17.331-17.313v-7.135c0-9.591 5.529-17.313 16.792-17.313z" id="rect4144-3" opacity="1" fill="#e6e6e6" fill-opacity=".233" stroke="#000" stroke-width=".336" stroke-linecap="square" stroke-linejoin="bevel" stroke-miterlimit="4" stroke-dasharray="none" stroke-dashoffset="0" stroke-opacity=".078"/><path id="polygon1207" transform="translate(-5.404 .81)" fill="#61bdff" d="M41 29V18H31v11h-6.109l10.982 13.178L46.855 29z"/></svg>