<svg xmlns="http://www.w3.org/2000/svg" width="48" height="48" version="1.1" id="svg38"><defs id="defs22"><style id="style4511"/><style id="style4511-26"/><style id="style4511-9"/><style id="style4552"/><style id="style4511-2"/><filter height="1.48" y="-.24" width="1.48" x="-.24" id="filter969" color-interpolation-filters="sRGB"><feGaussianBlur id="feGaussianBlur971" stdDeviation=".945"/></filter><filter height="1.48" y="-.24" width="1.48" x="-.24" id="filter991" color-interpolation-filters="sRGB"><feGaussianBlur id="feGaussianBlur993" stdDeviation=".606"/></filter></defs><style id="style4485" type="text/css"/><g id="g1555" fill-opacity="1"><path d="M19.421 3.605h8.525c13.957 0 16.864 11.247 16.864 17.282v7.123c0 5.96-2.714 17.283-17.9 17.283h-6.954C8.353 45.293 2.75 37.585 2.75 28.01v-7.123c0-9.574 5.49-17.282 16.671-17.282z" id="path4518" opacity="1" fill="#32004e" stroke="#000" stroke-width=".335" stroke-linecap="square" stroke-linejoin="bevel" stroke-miterlimit="4" stroke-dasharray="none" stroke-dashoffset="0" stroke-opacity=".078"/><path d="M31.833 16.067a7.916 7.916 0 0 0-1.787-.51c2.586 1.93 3.555 5.329 2.148 8.298-1.41 2.97-4.749 4.556-8.005 4.034a7.747 7.747 0 0 0 1.596.914c3.74 1.57 8.123-.007 9.794-3.524 1.672-3.514-.007-7.635-3.747-9.201m0-.01" id="path25" fill="#f2f2f2" fill-rule="nonzero" stroke="none" stroke-width=".1"/><path d="M26.239 21.033c-.196.139-.897-.4-1.139-.401-.243-.001-.948.531-1.143.39-.196-.14.112-.958.038-1.183-.074-.226-.81-.717-.734-.942.076-.225.967-.192 1.163-.33.196-.139.447-.975.69-.974.243 0 .485.84.68.98.195.14 1.086.114 1.16.34.074.226-.668.71-.744.936-.076.225.224 1.046.028 1.184z" id="path31" opacity="1" fill="#f2f2f2" stroke="none" stroke-width=".1"/><path d="M18.758 24.041c-.142.13-.65-.377-.826-.378-.176 0-.688.5-.83.368-.141-.132.082-.902.029-1.114-.054-.213-.588-.675-.533-.887.055-.212.701-.18.844-.31.142-.13.324-.918.5-.917.176 0 .352.79.493.922.142.132.788.108.842.32.053.213-.485.67-.54.881-.055.212.163.985.02 1.115z" id="path33" opacity="1" fill="#f2f2f2" stroke="none" stroke-width=".083"/><path d="M17.276 11.985c-.132.122-.602-.354-.764-.354-.162-.001-.635.469-.766.345s.075-.846.026-1.045c-.05-.2-.544-.633-.493-.832.051-.198.648-.168.78-.29.132-.123.3-.861.463-.86.162 0 .325.74.455.865.131.123.728.1.778.3.05.2-.447.627-.498.826-.051.199.15.923.018 1.045z" id="path35" opacity="1" fill="#f2f2f2" stroke="none" stroke-width=".077"/><path d="M12.115 26.319c-.197.138-.898-.4-1.14-.402-.242 0-.947.532-1.143.392-.195-.14.113-.959.04-1.185-.075-.226-.811-.717-.735-.942.076-.225.967-.19 1.163-.33.196-.138.447-.974.69-.973.242 0 .485.84.68.98.195.14 1.085.114 1.16.34.074.226-.668.71-.744.936-.076.225.224 1.045.028 1.184z" id="path35-3" opacity="1" fill="#f2f2f2" stroke="none" stroke-width=".1"/><path d="M18.623 30.59c-.196.139-.897-.4-1.139-.402-.242 0-.948.532-1.143.392-.196-.14.113-.959.039-1.185-.074-.225-.81-.716-.735-.941.076-.226.967-.192 1.163-.33.197-.139.448-.975.69-.974.243 0 .485.84.68.98.195.14 1.086.114 1.16.34.074.226-.668.71-.744.936-.075.225.225 1.046.028 1.184z" id="path35-6" opacity="1" fill="#f2f2f2" stroke="none" stroke-width=".1"/><g transform="translate(63.05 7.932)" id="g1540" fill="#e1e1e1" stroke="none" stroke-miterlimit="4" stroke-dasharray="none" stroke-opacity="1"><ellipse id="path1854" cx="-51.648" cy="9.777" rx="1.5" ry="1.62" opacity="1" stroke-width=".556"/><ellipse cy="5.814" cx="-48.41" id="circle1856" rx=".605" ry=".654" opacity="1" stroke-width=".224"/><ellipse cy="7.246" cx="-43.754" id="circle1858" rx=".945" ry="1.02" opacity="1" stroke-width=".35"/><circle id="circle894" cx="76.898" cy="-162.141" r="4.724" transform="matrix(.19997 0 0 .21594 -59.13 42.258)" opacity="1" stroke-width="1.685" filter="url(#filter969)"/><circle id="circle973" cx="53.611" cy="-168.772" r="3.028" transform="matrix(.19997 0 0 .21594 -59.13 42.258)" opacity="1" stroke-width="1.08" filter="url(#filter991)"/></g></g></svg>