<svg xmlns="http://www.w3.org/2000/svg" xmlns:xlink="http://www.w3.org/1999/xlink" width="48" height="48" version="1.1" id="svg38"><defs id="defs22"><linearGradient id="linearGradient4488"><stop id="stop4490" offset="0" stop-color="#000" stop-opacity=".047"/><stop id="stop4492" offset="1" stop-color="#000" stop-opacity="0"/></linearGradient><style id="style4511"/><style id="style4511-26"/><style id="style4511-9"/><style id="style4552"/><style id="style4511-2"/><linearGradient gradientTransform="translate(-63.205 2.216) scale(.3038)" xlink:href="#linearGradient4488" id="linearGradient4160" x1="288.112" y1="141.785" x2="287.575" y2="79.008" gradientUnits="userSpaceOnUse"/></defs><style id="style4485" type="text/css"/><path d="M2.433 26.443v1.668c0 9.575 5.583 17.282 17.146 17.282h6.93c15.133 0 17.837-11.322 17.837-17.282v-1.668c0 5.96-2.704 17.282-17.837 17.282h-6.93c-11.563 0-17.146-7.708-17.146-17.282z" id="path4147" opacity="1" fill="url(#linearGradient4160)" fill-opacity="1" stroke="none" stroke-width="1.1" stroke-linecap="square" stroke-linejoin="bevel" stroke-miterlimit="4" stroke-dasharray="none" stroke-dashoffset="0" stroke-opacity=".078"/><path d="M19.046 2.965h8.495c13.908 0 16.805 11.246 16.805 17.282v7.123c0 5.96-2.704 17.282-17.837 17.282h-6.93c-11.562 0-17.146-7.708-17.146-17.282v-7.123c0-9.575 5.47-17.282 16.613-17.282z" id="rect4144" opacity="1" fill="#b5f56c" fill-opacity="1" stroke="#000" stroke-width=".334" stroke-linecap="square" stroke-linejoin="bevel" stroke-miterlimit="4" stroke-dasharray="none" stroke-dashoffset="0" stroke-opacity=".078"/><path d="M17.278 32.986V32.4h5.076c3.452 0 5.171-.017 5.376-.055.68-.126 1.248-.522 1.52-1.058.265-.522.281-.706.281-3.183 0-2.478-.016-2.661-.28-3.184-.26-.51-.704-.866-1.313-1.052-.226-.07-.87-.084-4.736-.11-4.399-.03-4.481-.033-4.871-.142-1.163-.326-1.836-1.013-2.133-2.18-.11-.432-.115-.537-.114-2.536 0-1.801.012-2.136.088-2.466.109-.466.42-1.121.669-1.407.393-.452 1.119-.805 1.912-.93.21-.033 2.229-.052 5.53-.052h5.199v1.113l-5.174.018c-5.595.02-5.349.008-5.932.29-.527.255-.915.774-1.07 1.43-.11.467-.111 3.536-.002 4.001.201.853.73 1.391 1.586 1.614.246.064.912.076 4.285.077 3.972.001 4.682.025 5.264.177 1.083.282 1.811.993 2.084 2.035.16.617.187 1.19.166 3.634-.019 2.286-.026 2.439-.132 2.842-.238.914-.716 1.534-1.452 1.885-.833.397-.48.376-6.475.395l-5.352.018v-.587z" id="path4467" opacity="1" fill="#fff" fill-opacity="1" stroke="none" stroke-width=".041" stroke-linecap="round" stroke-linejoin="miter" stroke-miterlimit="4" stroke-dasharray="none" stroke-opacity="1"/></svg>