<svg xmlns:osb="http://www.openswatchbook.org/uri/2009/osb" xmlns="http://www.w3.org/2000/svg" xmlns:xlink="http://www.w3.org/1999/xlink" width="48" height="48" version="1.1" id="svg38"><defs id="defs22"><linearGradient id="linearGradient4488"><stop id="stop4490" offset="0" stop-color="#000" stop-opacity=".047"/><stop id="stop4492" offset="1" stop-color="#000" stop-opacity="0"/></linearGradient><style id="style4511"/><style id="style4511-26"/><style id="style4511-9"/><linearGradient id="linearGradient4303"><stop offset="0" id="stop8-3" stop-color="#197cf1" stop-opacity="1"/><stop offset="1" id="stop10-6" stop-color="#21c9fb" stop-opacity="1"/></linearGradient><style id="style4552"/><style id="style4511-2"/><linearGradient xlink:href="#linearGradient4488" id="linearGradient4540" gradientUnits="userSpaceOnUse" gradientTransform="translate(-62.889 1.994) scale(.3038)" x1="288.112" y1="141.785" x2="287.575" y2="79.008"/><linearGradient osb:paint="solid" id="linearGradient5293"><stop id="stop5295" offset="0" stop-color="#9a89c0" stop-opacity="1"/></linearGradient><linearGradient xlink:href="#linearGradient4303" id="linearGradient1401" x1="2.582" y1="23.586" x2="45.236" y2="23.586" gradientUnits="userSpaceOnUse" gradientTransform="rotate(-90 24.008 23.685)"/><linearGradient gradientUnits="userSpaceOnUse" gradientTransform="matrix(.17877 0 0 .17348 1.989 .79)" id="_lgradient_1" x1="50.478" y1="42.306" x2="187.934" y2="203.133"><stop offset="1.739%" stop-opacity="1" id="stop1416" stop-color="#e2e2e2"/><stop offset="100%" stop-opacity="1" id="stop1418" stop-color="#fbfbfb"/></linearGradient></defs><style id="style4485" type="text/css"/><path id="path4516" d="M2.75 26.22v1.67c0 9.573 5.583 17.281 17.146 17.281h6.93c15.132 0 17.836-11.322 17.836-17.282v-1.668c0 5.96-2.704 17.282-17.836 17.282h-6.93C8.333 43.503 2.75 35.795 2.75 26.22z" opacity="1" fill="url(#linearGradient4540)" fill-opacity="1" stroke="none" stroke-width="1.1" stroke-linecap="square" stroke-linejoin="bevel" stroke-miterlimit="4" stroke-dasharray="none" stroke-dashoffset="0" stroke-opacity=".078"/><path id="path4518" d="M3.065 28.169v-8.577c0-14.042 11.247-16.967 17.282-16.967h7.123c5.96 0 17.282 2.73 17.282 18.009v6.997c0 11.674-7.707 17.312-17.282 17.312h-7.123c-9.574 0-17.282-5.523-17.282-16.774z" opacity="1" fill="url(#linearGradient1401)" fill-opacity="1" stroke="#000" stroke-width=".336" stroke-linecap="square" stroke-linejoin="bevel" stroke-miterlimit="4" stroke-dasharray="none" stroke-dashoffset="0" stroke-opacity=".078"/><path style="isolation:isolate" d="M36.113 37.98a1.147 1.147 0 0 1-.694-.37c-.415-.453-1.096-1.783-1.656-3.23-.314-.812-.915-2.601-.915-2.723 0-.039.397-.305.881-.592l.881-.523.139.133c.547.522 2.123 2.918 3.042 4.624.368.682.404.78.403 1.06-.002.375-.118.637-.445 1.008-.393.444-1.07.698-1.636.613zm-26.19-.446c.016-.045.284-1.276.596-2.735.31-1.459.572-2.661.58-2.672.028-.037 2.844 1.973 2.844 2.03 0 .03-.815.742-1.809 1.582-2.239 1.89-2.248 1.897-2.211 1.795zm2.982-5.146c-.785-.552-1.42-1.027-1.413-1.056.018-.068 6.758-11.679 6.814-11.738.03-.032 2.976 1.852 3.114 1.993.03.03-6.979 11.779-7.034 11.792-.03.007-.697-.439-1.481-.991zm18.499-3.068c-.538-.923-.97-1.684-.96-1.691a94.257 94.257 0 0 1 2.155-1.261c.034 0 1.745 3.468 1.72 3.486-.22.156-1.854 1.147-1.888 1.146-.027-.001-.49-.758-1.027-1.68zm-22.12-.174c-.018-.161-.026-1.461-.017-2.888l.016-2.594 2.826.018a139.2 139.2 0 0 1 2.84.031c.008.007-.74 1.3-1.662 2.87l-1.676 2.856H9.319zm8.476.21c0-.014.768-1.309 1.706-2.875l1.705-2.85h6.054l1.618 2.744c.89 1.508 1.65 2.802 1.689 2.875l.07.133h-6.42c-3.532 0-6.422-.013-6.422-.027zm16.517-1.216l-1.363-2.847-.77-1.605h2.094c1.152 0 2.594-.017 3.205-.037l1.111-.037v5.769H34.87l-.593-1.242zm-4.676-1.842c-1.24-1.99-2.504-4.326-4.023-7.44-1.205-2.47-2.364-5.024-2.843-6.262-.693-1.792-.859-2.907-.447-3.012.658-.168 1.946 1.353 3.78 4.464 1.437 2.437 3.735 6.696 5.49 10.17.325.645.65 1.277.72 1.404l.13.232-1.094.648c-.601.356-1.113.648-1.137.648-.025 0-.284-.384-.576-.852zm-9.497-6.163l-1.524-1.023.144-.232.887-1.439c.409-.664.75-1.215.757-1.225.008-.009.695.438 1.526.995l1.511 1.013-.225.373-.827 1.378c-.331.553-.63 1.045-.664 1.093-.052.077-.27-.051-1.585-.933zm1.945-3.32c-.79-.525-1.436-.98-1.436-1.01 0-.222.653-.838.975-.92.53-.135 1.398.21 1.882.75.373.415.455.619.42 1.045-.026.322-.284 1.09-.365 1.09-.022 0-.686-.43-1.476-.955z" id="path1421" fill="url(#_lgradient_1)" stroke-width=".176"/></svg>