<svg xmlns="http://www.w3.org/2000/svg" xmlns:xlink="http://www.w3.org/1999/xlink" width="48" height="48" version="1.1" id="svg38"><defs id="defs22"><linearGradient id="linearGradient4488"><stop id="stop4490" offset="0" stop-color="#000" stop-opacity=".047"/><stop id="stop4492" offset="1" stop-color="#000" stop-opacity="0"/></linearGradient><style id="style4511"/><style id="style4511-26"/><style id="style4511-9"/><style id="style4552"/><style id="style4511-2"/><linearGradient xlink:href="#linearGradient4488" id="linearGradient4546" gradientUnits="userSpaceOnUse" gradientTransform="translate(-62.497 1.994) scale(.3038)" x1="288.112" y1="141.785" x2="287.575" y2="79.008"/><linearGradient gradientTransform="rotate(-90 -5.191 52.53)" gradientUnits="userSpaceOnUse" x2="47" x1="1" id="linearGradient3764-367"><stop id="stop1164-5" stop-opacity="1" stop-color="#833ebe"/><stop id="stop1166" stop-opacity="1" stop-color="#8d4cc4" offset="1"/></linearGradient><clipPath id="clipPath-353129086"/><radialGradient xlink:href="#linearGradient3764-367" id="radialGradient1284" cx="24.098" cy="23.586" fx="24.098" fy="23.586" r="21.011" gradientTransform="matrix(1 0 0 1.00536 0 -.126)" gradientUnits="userSpaceOnUse"/></defs><style id="style4485" type="text/css"/><path d="M3.141 26.22v1.67c0 9.573 5.583 17.281 17.146 17.281h6.93c15.133 0 17.837-11.322 17.837-17.282v-1.668c0 5.96-2.704 17.282-17.837 17.282h-6.93c-11.563 0-17.146-7.708-17.146-17.282z" id="path4528" opacity="1" fill="url(#linearGradient4546)" fill-opacity="1" stroke="none" stroke-width="1.1" stroke-linecap="square" stroke-linejoin="bevel" stroke-miterlimit="4" stroke-dasharray="none" stroke-dashoffset="0" stroke-opacity=".078"/><path d="M44.941 19.243v8.495c0 13.908-11.247 16.804-17.282 16.804h-7.123c-5.96 0-17.282-2.704-17.282-17.836v-6.93c0-11.563 7.708-17.146 17.282-17.146h7.123c9.574 0 17.282 5.47 17.282 16.613z" id="path4530" opacity="1" fill="url(#radialGradient1284)" fill-opacity="1" stroke="#000" stroke-width=".334" stroke-linecap="square" stroke-linejoin="bevel" stroke-miterlimit="4" stroke-dasharray="none" stroke-dashoffset="0" stroke-opacity=".078"/><path id="path1207" d="M10.587 20.033a9.648 9.289 0 0 1 .766-3.683 9.8 9.435 0 0 1 2.11-3.01 9.946 9.575 0 0 1 3.132-2.028 9.743 9.38 0 0 1 3.848-.733c1.834 0 3.509.444 5.013 1.337a10.199 9.82 0 0 1 3.549 3.485l.616-.076c.202-.025.404-.038.615-.038a7.44 7.44 0 0 1 2.863.555 7.588 7.305 0 0 1 2.349 1.529 7.453 7.175 0 0 1 1.583 2.26c.383.86.576 1.78.576 2.757 0 .982-.193 1.901-.576 2.76a7.45 7.172 0 0 1-1.583 2.253 7.714 7.427 0 0 1-2.349 1.524 7.048 6.785 0 0 1-2.863.567h-.624l2.185-2.646a4.91 4.728 0 0 0 2.388-1.681c.625-.809.936-1.74.936-2.799 0-.644-.127-1.253-.382-1.833a4.815 4.815 0 0 0-1.034-1.512 4.792 4.613 0 0 0-1.566-1.012 4.865 4.684 0 0 0-1.904-.369 4.91 4.91 0 0 0-2.639.738 7.004 6.743 0 0 0-.94-2.147 7.188 6.92 0 0 0-1.623-1.727 7.802 7.511 0 0 0-2.12-1.152 6.99 6.73 0 0 0-2.471-.42 7.379 7.379 0 0 0-2.877.564 7.565 7.283 0 0 0-2.344 1.528 7.442 7.165 0 0 0-1.574 2.248 7.228 6.959 0 0 0-.576 2.76c0 .792.131 1.555.4 2.29a7.211 7.211 0 0 0 1.095 1.987 7.25 7.25 0 0 0 1.663 1.545 6.712 6.462 0 0 0 2.12.962l-.84 2.239a10.117 9.74 0 0 1-2.762-1.337 9.995 9.623 0 0 1-2.194-2.033 9.632 9.273 0 0 1-1.442-2.62 9.547 9.191 0 0 1-.524-3.032m9.249 9.459l3.135-8.074h5.63l-3.378 5.42h4.503l-8.052 9.754 2.208-7.1m-4.046 0" fill="#fff" fill-opacity="1" fill-rule="nonzero" stroke="none" stroke-width="1.105"/></svg>