<svg xmlns:osb="http://www.openswatchbook.org/uri/2009/osb" xmlns="http://www.w3.org/2000/svg" xmlns:xlink="http://www.w3.org/1999/xlink" width="48" height="48" version="1.1" id="svg38"><defs id="defs22"><linearGradient id="linearGradient4488"><stop id="stop4490" offset="0" stop-color="#000" stop-opacity=".047"/><stop id="stop4492" offset="1" stop-color="#000" stop-opacity="0"/></linearGradient><style id="style4511"/><style id="style4511-26"/><style id="style4511-9"/><style id="style4552"/><linearGradient id="e-1" y1="41.22" x1="24.392" y2="25.343" x2="20.643" gradientUnits="userSpaceOnUse"><stop stop-color="#334545" id="stop22-8"/><stop offset="1" stop-color="#536161" id="stop24-7"/></linearGradient><style id="style4511-2"/><linearGradient xlink:href="#linearGradient4488" id="linearGradient4540" gradientUnits="userSpaceOnUse" gradientTransform="matrix(.3038 0 0 .3086 -62.889 1.982)" x1="288.112" y1="141.785" x2="287.575" y2="79.008"/><linearGradient osb:paint="solid" id="linearGradient5293"><stop id="stop5295" offset="0" stop-color="#9a89c0" stop-opacity="1"/></linearGradient><linearGradient xlink:href="#e-1" id="linearGradient1388" x1="2.58" y1="23.915" x2="45.596" y2="23.915" gradientUnits="userSpaceOnUse"/><clipPath id="clipPath-511559497"/></defs><style id="style4485" type="text/css"/><path id="path4516" d="M2.75 26.59v1.696c0 9.725 5.583 17.555 17.146 17.555h6.93c15.132 0 17.836-11.502 17.836-17.555V26.59c0 6.053-2.704 17.555-17.836 17.555h-6.93c-11.563 0-17.146-7.83-17.146-17.555z" opacity="1" fill="url(#linearGradient4540)" fill-opacity="1" stroke="none" stroke-width="1.109" stroke-linecap="square" stroke-linejoin="bevel" stroke-miterlimit="4" stroke-dasharray="none" stroke-dashoffset="0" stroke-opacity=".078"/><path id="path4518" d="M19.666 2.742h8.65c14.16 0 17.11 11.425 17.11 17.555v7.236c0 6.053-2.754 17.554-18.162 17.554h-7.056c-11.773 0-17.458-7.83-17.458-17.554v-7.236c0-9.725 5.57-17.555 16.916-17.555z" opacity="1" fill="url(#linearGradient1388)" fill-opacity="1" stroke="#000" stroke-width=".34" stroke-linecap="square" stroke-linejoin="bevel" stroke-miterlimit="4" stroke-dasharray="none" stroke-dashoffset="0" stroke-opacity=".078"/><path id="path1428" d="M31.459 15.01a8.446 8.478 0 1 0 0 16.957 8.446 8.478 0 0 0 0-16.957m-6.335 3.18h12.67l-6.335 12.717m-6.335-12.718" fill="#ffba00" fill-opacity="1" fill-rule="nonzero" stroke="none" stroke-width="1.058"/><path id="path1430" d="M16.678 31.962c-4.664 0-8.446-3.792-8.446-8.478 0-4.682 3.777-8.478 8.446-8.478 4.664 0 8.446 3.792 8.446 8.478 0 4.682-3.777 8.478-8.446 8.478m-6.33-3.179h12.669l-6.335-12.718m-6.334 12.718" fill="#ffba00" fill-opacity="1" fill-rule="nonzero" stroke="none" stroke-width="1.058"/></svg>