<svg xmlns:osb="http://www.openswatchbook.org/uri/2009/osb" xmlns="http://www.w3.org/2000/svg" xmlns:xlink="http://www.w3.org/1999/xlink" width="48" height="48" version="1.1" id="svg38"><defs id="defs22"><linearGradient id="linearGradient846"><stop offset="0" id="stop842" stop-color="#202d3a" stop-opacity="1"/><stop offset="1" id="stop844" stop-color="#34495e" stop-opacity="1"/></linearGradient><linearGradient id="linearGradient4488"><stop id="stop4490" offset="0" stop-color="#000" stop-opacity=".047"/><stop id="stop4492" offset="1" stop-color="#000" stop-opacity="0"/></linearGradient><style id="style4511"/><style id="style4511-26"/><style id="style4511-9"/><style id="style4552"/><style id="style4511-2"/><linearGradient xlink:href="#linearGradient4488" id="linearGradient4540" gradientUnits="userSpaceOnUse" gradientTransform="translate(-62.889 1.994) scale(.3038)" x1="288.112" y1="141.785" x2="287.575" y2="79.008"/><linearGradient osb:paint="solid" id="linearGradient5293"><stop id="stop5295" offset="0" stop-color="#9a89c0" stop-opacity="1"/></linearGradient><linearGradient xlink:href="#linearGradient846" id="linearGradient848" x1="22.983" y1="43.932" x2="23.186" y2="8.339" gradientUnits="userSpaceOnUse"/></defs><style id="style4485" type="text/css"/><rect id="Mask" x="63.147" y="78.204" width="20.231" height="20.096" rx=".581" fill="#f1f1f1" fill-opacity="1" fill-rule="evenodd" stroke="none" stroke-width=".336"/><g id="g1476"><path d="M2.75 26.22v1.67c0 9.573 5.583 17.281 17.146 17.281h6.93c15.132 0 17.836-11.322 17.836-17.282v-1.668c0 5.96-2.704 17.282-17.836 17.282h-6.93C8.333 43.503 2.75 35.795 2.75 26.22z" id="path4516" stroke-miterlimit="4" opacity="1" fill="url(#linearGradient4540)" fill-opacity="1" stroke="none" stroke-width="1.1" stroke-linecap="square" stroke-linejoin="bevel" stroke-dasharray="none" stroke-dashoffset="0" stroke-opacity=".078"/><path d="M19.363 2.742h8.495c13.908 0 16.804 11.247 16.804 17.282v7.124c0 5.96-2.704 17.282-17.836 17.282h-6.93C8.333 44.43 2.75 36.722 2.75 27.148v-7.124c0-9.574 5.47-17.282 16.613-17.282z" id="path4518" stroke-miterlimit="4" opacity="1" fill="url(#linearGradient848)" fill-opacity="1" stroke="#000" stroke-width=".334" stroke-linecap="square" stroke-linejoin="bevel" stroke-dasharray="none" stroke-dashoffset="0" stroke-opacity=".078"/><g transform="matrix(1.30568 0 0 1.30313 -7.39 -6.898)" id="g16"><path id="path14-6" d="M31.118 19.736h-3.06c0-.84-.24-1.512-.721-2.016-.744-.768-1.992-1.152-3.743-1.152-.864 0-1.608.144-2.232.432-1.008.457-1.512 1.201-1.512 2.232 0 .72.264 1.26.792 1.62.384.265 1.26.564 2.628.9l3.168.792c1.92.48 3.281 1.104 4.086 1.872.804.768 1.206 1.8 1.206 3.096 0 1.896-.696 3.408-2.088 4.536-1.393 1.128-3.181 1.692-5.364 1.692-3.24 0-5.521-.816-6.84-2.449-.841-1.055-1.26-2.436-1.26-4.139h3.06c0 1.031.275 1.859.828 2.483.815.912 2.208 1.368 4.176 1.368 1.272 0 2.28-.229 3.024-.684.863-.528 1.296-1.297 1.296-2.305 0-.72-.259-1.26-.774-1.62-.515-.36-1.506-.72-2.97-1.079l-3.672-.901c-1.393-.335-2.448-.852-3.168-1.548-.792-.768-1.188-1.776-1.188-3.024 0-1.944.721-3.456 2.16-4.536 1.319-.984 2.976-1.476 4.968-1.476 2.232 0 3.99.553 5.274 1.656 1.284 1.106 1.926 2.522 1.926 4.25z" fill="#ff8526" fill-opacity="1"/></g></g></svg>