<svg xmlns:osb="http://www.openswatchbook.org/uri/2009/osb" xmlns="http://www.w3.org/2000/svg" xmlns:xlink="http://www.w3.org/1999/xlink" width="48" height="48" version="1.1" id="svg38"><defs id="defs22"><linearGradient id="linearGradient4488"><stop id="stop4490" offset="0" stop-color="#000" stop-opacity=".047"/><stop id="stop4492" offset="1" stop-color="#000" stop-opacity="0"/></linearGradient><style id="style4511"/><style id="style4511-26"/><style id="style4511-9"/><linearGradient id="linearGradient4303"><stop offset="0" id="stop8-3" stop-color="#197cf1" stop-opacity="1"/><stop offset="1" id="stop10-6" stop-color="#21c9fb" stop-opacity="1"/></linearGradient><style id="style4552"/><style id="style4511-2"/><linearGradient xlink:href="#linearGradient4488" id="linearGradient4540" gradientUnits="userSpaceOnUse" gradientTransform="translate(-62.889 1.994) scale(.3038)" x1="288.112" y1="141.785" x2="287.575" y2="79.008"/><linearGradient osb:paint="solid" id="linearGradient5293"><stop id="stop5295" offset="0" stop-color="#9a89c0" stop-opacity="1"/></linearGradient><linearGradient xlink:href="#linearGradient4303" id="linearGradient1401" x1="2.582" y1="23.586" x2="45.236" y2="23.586" gradientUnits="userSpaceOnUse" gradientTransform="rotate(-90 24.008 23.685)"/></defs><style id="style4485" type="text/css"/><path id="path4516" d="M2.75 26.22v1.67c0 9.573 5.583 17.281 17.146 17.281h6.93c15.132 0 17.836-11.322 17.836-17.282v-1.668c0 5.96-2.704 17.282-17.836 17.282h-6.93C8.333 43.503 2.75 35.795 2.75 26.22z" opacity="1" fill="url(#linearGradient4540)" fill-opacity="1" stroke="none" stroke-width="1.1" stroke-linecap="square" stroke-linejoin="bevel" stroke-miterlimit="4" stroke-dasharray="none" stroke-dashoffset="0" stroke-opacity=".078"/><path id="path4518" d="M3.065 28.169v-8.577c0-14.042 11.247-16.967 17.282-16.967h7.123c5.96 0 17.282 2.73 17.282 18.009v6.997c0 11.674-7.707 17.312-17.282 17.312h-7.123c-9.574 0-17.282-5.523-17.282-16.774z" opacity="1" fill="url(#linearGradient1401)" fill-opacity="1" stroke="#000" stroke-width=".336" stroke-linecap="square" stroke-linejoin="bevel" stroke-miterlimit="4" stroke-dasharray="none" stroke-dashoffset="0" stroke-opacity=".078"/><g id="g1528" transform="translate(-.407 .203)"><g transform="matrix(.9931 0 0 .96565 50.203 1.674)" id="g1508" fill-opacity="1" stroke="none"><path d="M-14.533 26.416a4.119 4.119 0 1 1-8.237 0 4.119 4.119 0 1 1 8.237 0z" id="path1392" opacity=".1" fill="#acacac" fill-rule="nonzero"/><path d="M-26.431 7.28c-2.805 2.31-2.305 4-2.305 5.398 0 .73.679 1.602 2.572 1.602 1.589 0 2.428-.723 2.428-1.61 0-1.39 0-3.606-2.695-5.39z" id="path1396" opacity=".9" fill="#ffcb00"/><path d="M-19.736 9.28c-3.625.253-4.2 1.92-5.01 3.058-.424.596-.377 1.698 1.165 2.797 1.294.922 2.397.82 2.912.098.807-1.132 2.093-2.937.933-5.953z" id="path1398" opacity=".9" fill="#ffcb00"/><path d="M-14.96 13.719c-3.451-1.138-4.613.187-5.795.934-.618.39-.992 1.429.019 3.03.848 1.343 1.908 1.667 2.658 1.193 1.175-.742 3.049-1.926 3.118-5.157z" id="path1400" opacity=".9" fill="#ffcb00"/><path d="M-19.736 22.882l-4 7.398c3.85 1.045 7.05 4.408 13-2-4.627-5.893-6.66-6-9-5.398z" id="path1402" opacity=".722" fill="#2a8925"/><path d="M-12.476 20.889c-2.146-2.933-3.862-2.53-5.258-2.61-.73-.041-1.638.587-1.746 2.477-.091 1.586.583 2.465 1.469 2.516 1.388.079 3.6.206 5.535-2.383z" id="path1404" opacity=".9" fill="#ffcb00"/><path d="M-14.736 28.28c-.237-3.984-2.061-4.633-3.302-5.537-.65-.473-1.861-.433-3.085 1.248-1.027 1.41-.928 2.623-.14 3.196 1.234.899 3.2 2.33 6.527 1.092z" id="path1406" opacity=".9" fill="#ffcb00"/><path d="M-20.112 33.144c1.649-3.238.515-4.588-.043-5.87-.292-.67-1.262-1.197-2.998-.441-1.457.635-1.937 1.633-1.583 2.446.555 1.274 1.44 3.306 4.624 3.864z" id="path1408" opacity=".9" fill="#ffcb00"/><path d="M-39.736 36.28c-.785-6.627-1.487-13.201 7-14l7 7c-1.104 5.609-4.53 9.08-14 7z" id="path1410" opacity=".821" fill="#2a8925"/><path d="M-26.666 34.223c3.159-1.797 2.955-3.547 3.193-4.925.125-.721-.395-1.694-2.261-2.02-1.566-.271-2.516.298-2.667 1.172-.237 1.369-.616 3.553 1.735 5.77z" id="path1412" opacity=".9" fill="#ffcb00"/><path d="M-32.468 32.753c3.59-.56 4.02-2.27 4.732-3.473.372-.63.23-1.724-1.4-2.688-1.367-.81-2.457-.613-2.908.15-.707 1.196-1.835 3.104-.424 6.01z" id="path1414" opacity=".9" fill="#ffcb00"/><path d="M-38.054 28.31c3.404 1.273 4.617-.006 5.827-.706.633-.366 1.047-1.39.1-3.03-.795-1.376-1.841-1.74-2.61-1.296-1.202.696-3.121 1.804-3.317 5.03z" id="path1416" opacity=".9" fill="#ffcb00"/><path d="M-39.741 21.36c2.235 2.865 3.938 2.41 5.336 2.447.73.019 1.619-.636 1.669-2.53.042-1.587-.66-2.445-1.546-2.47-1.39-.036-3.605-.094-5.46 2.553z" id="path1418" opacity=".9" fill="#ffcb00"/><path d="M-37.245 13.41c-.45 4.544 1.359 5.619 2.509 6.873.6.656 1.885.839 3.47-.83 1.33-1.4 1.439-2.787.71-3.582-1.143-1.247-2.965-3.235-6.69-2.461z" id="path1420" opacity=".9" fill="#ffcb00"/><path d="M-32.857 9.103c-1.178 3.438.134 4.615.867 5.805.383.623 1.417 1.01 3.03.016 1.353-.833 1.689-1.89 1.223-2.644-.73-1.184-1.89-3.071-5.121-3.177z" id="path1422" opacity=".9" fill="#ffcb00"/><path d="M-18.732 21.28a8 8 0 1 1-16 0 8 8 0 1 1 16 0z" id="path1424" fill="#fb9201" fill-rule="nonzero" stroke-width="1.145"/><path d="M-19.732 21.28a7 7 0 1 1-14 0 7 7 0 1 1 14 0z" id="path1426" fill="#5f3b29" fill-rule="nonzero" stroke-width="1.002"/></g></g></svg>