<svg xmlns:osb="http://www.openswatchbook.org/uri/2009/osb" xmlns="http://www.w3.org/2000/svg" width="48" height="48" version="1.1" id="svg38"><defs id="defs22"><style id="style4511"/><style id="style4511-26"/><style id="style4511-9"/><style id="style4552"/><style id="style4511-2"/><linearGradient osb:paint="solid" id="linearGradient5293"><stop id="stop5295" offset="0" stop-color="#9a89c0" stop-opacity="1"/></linearGradient><style id="style4511-8"/><style id="style4511-26-4"/><style id="style4511-9-8"/><style id="style4552-5"/><style id="style4511-2-5"/></defs><style id="style4485" type="text/css"/><path id="path4518" d="M3.066 28.69v-8.577c0-14.042 11.247-16.967 17.282-16.967h7.123c5.96 0 17.282 2.73 17.282 18.01v6.996c0 11.674-7.708 17.312-17.282 17.312h-7.123c-9.574 0-17.282-5.523-17.282-16.774z" opacity="1" fill="#e6e6e6" fill-opacity="1" stroke="#000" stroke-width=".336" stroke-linecap="square" stroke-linejoin="bevel" stroke-miterlimit="4" stroke-dasharray="none" stroke-dashoffset="0" stroke-opacity=".078"/><style type="text/css" id="style4485-1"/><g id="g987" transform="matrix(.6702 0 0 .66388 .696 -148.633)" fill-opacity="1"><path id="path17935" d="M24.154 275.27s-.635-.953-.74-1.165c-.106-.211-1.852-6.876-1.429-9.098.424-2.222.582-3.915.953-4.39.37-.477 2.486-3.122 2.75-3.28.265-.16 1.376-1.958 2.063-1.958.688 0 5.608 2.222 6.242 2.116.635-.106 3.386-.106 3.597-.264.212-.159 1.006-.794 1.006-.794l.74-.423s1.693-.159 2.01-.159c.318 0 2.328 1.164 2.857 1.746.529.582 3.861 4.39 3.809 6.4-.053 2.01 0 3.598-.212 4.18-.212.582-.794 2.645-.952 3.227-.159.581-.476 1.798-.53 2.274-.052.476-.634.952-.846 1.164-.211.212-2.962.635-3.49.846-.53.212-2.17 1.376-2.646 1.587-.476.212-1.534.953-1.534.953s-1.481 1.48-1.798 1.64c-.318.158-3.016.687-3.968.105-.952-.582-2.01-1.587-2.486-2.169-.476-.581-1.534-1.692-1.905-2.01-.37-.317-3.49-.423-3.49-.529z" display="inline" opacity="1" fill="#fbfbfb" fill-rule="evenodd" stroke="none" stroke-width=".028" stroke-linecap="butt" stroke-linejoin="miter" stroke-opacity="1"/><path d="M24.39 275.017s-1.124-3.23-1.159-5.828c-.035-2.597-.175-4.107.316-6.073.492-1.965.492-2.211.492-2.211l.691-1.744-2.741 1.453s-.864 7.277-.9 7.487c-.034.21.317 4.072.317 4.072l.386 1.334.842 1.334.492.457z" id="path6184" display="inline" opacity="1" fill="#ccc" fill-rule="evenodd" stroke="none" stroke-width=".028" stroke-linecap="butt" stroke-linejoin="miter" stroke-opacity="1"/><path id="path4226" d="M45.134 275.087s1.123-3.23 1.158-5.827c.035-2.598.176-4.108-.316-6.073a98.212 98.212 0 0 0-1.148-4.123l2.923 2.273.261 4.482s.387 2.142.422 2.352c.035.211-.316 4.073-.316 4.073l-.386 1.334-.843 1.334-.491.456z" display="inline" opacity="1" fill="#ccc" fill-rule="evenodd" stroke="none" stroke-width=".028" stroke-linecap="butt" stroke-linejoin="miter" stroke-opacity="1"/><path id="path2225" d="M34.575 238.744a13.127 13.127 0 0 0-3.255.43c-4.185 1.097-7.778 4.44-9.078 8.447-.409 1.26-.486 1.734-.607 3.743-.297 4.909-1.36 6.86-5.577 10.246-1.48 1.188-2.025 1.716-2.92 2.834-.77.963-.976 1.439-.9 2.079.052.439.12.555.408.692.393.188.507.142 2.473-.99 2.02-1.165 3.283-1.689 3.514-1.459.068.069.159.664.202 1.323.184 2.83 1.053 5.356 2.7 7.841.66.996.875 1.242 1.052 1.196.305-.08.539.172.028-.829-.29-1.051-.497-1.586-.634-2.65-.317-1.342-.481-2.544-.486-3.84 0-3.912 1.839-7.611 4.995-10.053a8.136 8.136 0 0 1 1.164-.95l.382-.254c-.128-.14-.473-.646-1.357-2.17-.396-.808-.696-2.075-.696-2.944 0-1.833 1.017-3.972 2.286-4.807 2.004-1.32 4.431-.47 5.64 1.974.485.984.703 2.25.364 2.12-.129-.05-.193-.013-.193.112 0 .158-.552.418-.622.293a15.425 15.425 0 0 0-.288-.42c-.145-.208-.264-.432-.264-.5 0-.277-.351-.092-.607.319-.224.36-.273.6-.27 1.32.001.546.21.757.525.81.17.25.387.467.62.6.21.138.434.223.648.23.095.003.213-.152.32-.376.02-.038.04-.078.059-.119.06-.13.108-.289.145-.457.01-.04.02-.08.028-.12.03-.003.06-.003.09-.003.238.148-.004.617-.085.818l-.488 1.226s.502-.184.907-.164c.406.02 1.198.136 1.198.136l-.38-.448-.061-.107c.055-.14.037-.288.015-.323-.04-.064.732.348.739.308.03-.18.086-.352.154-.52l-.035-.013a.45.45 0 0 1 .036.01l-.001.003c.24.078.416.017.54-.179a.785.785 0 0 0 .027-.047c.215-.402.33-1.038.255-1.413a.898.898 0 0 0-.034-.127c.04-.299-.035-.59-.316-.88-.31-.32-.352-.344-.167-.09.31.424.31.5-.009.67-.224.12-.291.095-.528-.201-.147-.184-.236-.369-.26-.51a7.37 7.37 0 0 1-.148.219 2.306 2.306 0 0 0-.051-.067c-.079-.097-.144-.157-.176-.157-.15 0-.36.505-.432.972l-.01.068c-.073.066-.133.103-.17.096l.487-1.547.276-.408c.418-.617 1.334-1.248 2.234-1.538.65-.209.968-.246 1.634-.19 2.145.18 3.78 1.738 3.783 3.604.001.93-.369 1.954-.93 2.576-.681.754-2.182 1.41-3.23 1.414-.107 0-.186.003-.244.011.448.146.887.315 1.316.506.445.061.874.298 1.542.81 3.863 2.351 6.21 6.458 6.217 10.877-.006 1.517-.246 2.831-.708 4.485-.186.86-.518 1.645-.66 2.082-.04.73-.285.599-.04.73.144.077.278.088.32.026 1.571-2.297 2.394-3.895 2.888-5.609.375-1.298.648-2.938.648-3.893 0-.457.058-.767.158-.85.247-.204 1.393.24 3.017 1.17 2.142 1.228 2.54 1.412 2.868 1.33.429-.108.58-.361.565-.95-.024-1-1.512-2.834-3.765-4.637-4.3-3.443-5.382-5.396-5.656-10.196-.217-3.823-1.209-6.21-3.615-8.706-2.55-2.645-5.978-4.066-9.514-4.045zm1.396 11.817c.099-.152.157-.258.135-.255-.116.012-.159.112-.135.255zm-7.935 5.989c.114.123.06-.04.06-.04zm6.135-5.342c.084 0 .131.03.167.085.066.105.094.315.09.561-.008-.61-.098-.713-.538-.593.124-.035.215-.053.281-.053zm-1.954.634zm-12.619 7.125h.007c.043.008-.01.137-.135.37-.291.55-6.876 7.038-6.875 6.775.004-.781 1.637-2.653 3.815-4.375.775-.612 1.818-1.515 2.319-2.006.529-.519.796-.761.87-.765zm30.14.012c.079.006.373.273.985.867.565.549 1.503 1.36 2.085 1.802 1.28.976 2.366 2.004 3.067 2.907.444.57.866 1.328.866 1.554 0 .034-.04.063-.09.063-.138 0-6.68-6.603-6.825-6.89-.096-.19-.136-.297-.096-.303h.007zm-37.566 7.294l-.006.003c-.01.045-.034.208-.006.062a.493.493 0 0 0 .011-.06s0 .003.002-.005c-.001 0-.001 0 0 0zm.002 0h-.001zM33.44 280.61a1.822 1.822 0 0 1-.452.907l-.376.43.528-.386c.524-.381.538-.384 1.6-.331.947.047 1.124.092 1.526.387l.455.334-.367-.405a2.288 2.288 0 0 1-.513-.916 12.938 12.938 0 0 1-2.4-.02z" display="inline" opacity="1" fill="#050400" stroke-width=".028"/><ellipse id="ellipse882" cx="39.198" cy="251.768" rx="4.259" ry="3.986" display="inline" opacity="1" fill="#fff" stroke="none" stroke-width=".101" stroke-linecap="square" stroke-linejoin="round" stroke-miterlimit="4" stroke-dasharray="none" stroke-opacity="1"/><ellipse ry="5.705" rx="4.422" cy="251.577" cx="30.19" id="path878" display="inline" opacity="1" fill="#fff" stroke="none" stroke-width=".123" stroke-linecap="square" stroke-linejoin="round" stroke-miterlimit="4" stroke-dasharray="none" stroke-opacity="1"/><ellipse id="ellipse880" cx="33.165" cy="251.768" rx="1.392" ry="2.129" display="inline" opacity="1" fill="#120000" stroke="none" stroke-width=".042" stroke-linecap="square" stroke-linejoin="round" stroke-miterlimit="4" stroke-dasharray="none" stroke-opacity="1"/><ellipse ry="1.747" rx="1.147" cy="251.987" cx="36.086" id="ellipse884" display="inline" opacity="1" fill="#120000" stroke="none" stroke-width=".035" stroke-linecap="square" stroke-linejoin="round" stroke-miterlimit="4" stroke-dasharray="none" stroke-opacity="1"/><path id="path2227" d="M34.713 254.277c-.844.006-1.533.123-2.26.394-.587.218-1.172.536-1.585 1.007-.091.104-.175.376-.175.376s-.053.188-.026.322c.026.135 0 .256.067.363.067.108 3.183 3.56 3.183 3.56s.201.322.564.281c.363-.04.484-.08.591-.147.108-.067 2.727-2.7 2.727-2.7l.926-1.182s.068-.282.04-.537c-.026-.255-.443-.672-.443-.672s-.402-.268-.51-.309c-.107-.04-1.706-.725-2.726-.752a9.38 9.38 0 0 0-.373-.003zm8.875 20.443c-1.771-.006-3.08.274-4.546.974-2.862 1.369-4.21 4.384-2.63 5.89.235.226.586.465.78.532.48.167 12.17.184 12.765.018.56-.155 1.136-.641 1.34-1.13.43-1.028.041-2.572-.908-3.61-.742-.812-1.545-1.342-2.933-1.938-1.415-.606-2.06-.73-3.868-.736zm-18.183.037c-1.622-.005-2.489.19-3.8.794-2.453 1.129-3.599 2.442-3.703 4.244-.073 1.252.323 1.927 1.344 2.29.36.129 1.68.162 6.498.164 5.62.003 6.08-.013 6.521-.213.595-.27 1.078-.834 1.18-1.379.145-.77-.016-1.852-.372-2.505-.68-1.252-2.264-2.395-4.159-3.004-.85-.274-1.259-.33-2.764-.377a28.209 28.209 0 0 0-.745-.014z" display="inline" opacity="1" fill="#ffcf00" stroke-width=".028"/></g></svg>