<svg xmlns:osb="http://www.openswatchbook.org/uri/2009/osb" xmlns="http://www.w3.org/2000/svg" xmlns:xlink="http://www.w3.org/1999/xlink" width="48" height="48" version="1.1" id="svg38"><defs id="defs22"><linearGradient id="linearGradient4488"><stop id="stop4490" offset="0" stop-color="#000" stop-opacity=".047"/><stop id="stop4492" offset="1" stop-color="#000" stop-opacity="0"/></linearGradient><style id="style4511"/><style id="style4511-26"/><style id="style4511-9"/><style id="style4552"/><style id="style4511-2"/><linearGradient xlink:href="#linearGradient4488" id="linearGradient4540" gradientUnits="userSpaceOnUse" gradientTransform="translate(-62.889 1.994) scale(.3038)" x1="288.112" y1="141.785" x2="287.575" y2="79.008"/><linearGradient osb:paint="solid" id="linearGradient5293"><stop id="stop5295" offset="0" stop-color="#9a89c0" stop-opacity="1"/></linearGradient><linearGradient id="linearGradient1750"><stop id="stop1746" offset="0" stop-color="#ff8d00" stop-opacity="1"/><stop id="stop1748" offset="1" stop-color="#ff1f00" stop-opacity="1"/></linearGradient><radialGradient gradientTransform="matrix(.14728 0 0 .13637 49.217 195.614)" gradientUnits="userSpaceOnUse" xlink:href="#linearGradient3200" id="radialGradient6151" fy="450.862" fx="-148.5" r="13.5" cy="450.862" cx="-148.5"/><linearGradient id="linearGradient3200"><stop id="stop3202" offset="0" stop-color="#fff" stop-opacity="1"/><stop id="stop4187" offset=".9" stop-color="#f3f3f3" stop-opacity="1"/><stop id="stop4185" offset=".97" stop-color="#d9d9d9" stop-opacity="1"/><stop id="stop3204" offset="1" stop-color="#ccc" stop-opacity="1"/></linearGradient><radialGradient gradientTransform="matrix(.14728 0 0 .13642 49.217 195.592)" gradientUnits="userSpaceOnUse" xlink:href="#linearGradient7124" id="radialGradient11077" fy="450.862" fx="-148.5" r="13.563" cy="450.862" cx="-148.5"/><linearGradient id="linearGradient7124"><stop id="stop7126" offset="0" stop-color="#fff" stop-opacity="1"/><stop id="stop7128" offset="1" stop-color="#fff" stop-opacity="0"/></linearGradient><radialGradient gradientTransform="matrix(.14728 0 0 .13637 66.728 195.614)" gradientUnits="userSpaceOnUse" xlink:href="#linearGradient3200" id="radialGradient6147" fy="450.862" fx="-148.5" r="13.5" cy="450.862" cx="-148.5"/><radialGradient gradientTransform="matrix(.14728 0 0 .13637 66.728 195.614)" gradientUnits="userSpaceOnUse" xlink:href="#linearGradient7124" id="radialGradient11085" fy="450.862" fx="-148.5" r="13.5" cy="450.862" cx="-148.5"/><radialGradient gradientTransform="matrix(.55654 0 0 .51531 127.45 28.886)" gradientUnits="userSpaceOnUse" xlink:href="#linearGradient6135" id="radialGradient5164" fy="450.862" fx="-148.5" r="13.5" cy="450.862" cx="-148.5"/><linearGradient id="linearGradient6135"><stop id="stop6137" offset="0" stop-color="#000" stop-opacity="1"/><stop id="stop6139" offset=".9" stop-color="#0c0c0c" stop-opacity="1"/><stop id="stop6141" offset=".97" stop-color="#262626" stop-opacity="1"/><stop id="stop6143" offset="1" stop-color="#333" stop-opacity="1"/></linearGradient><radialGradient gradientTransform="matrix(.55654 0 0 .51531 110.448 28.886)" gradientUnits="userSpaceOnUse" xlink:href="#linearGradient6135" id="radialGradient5162" fy="450.862" fx="-148.5" r="13.5" cy="450.862" cx="-148.5"/><radialGradient gradientTransform="matrix(1.89836 0 0 1.75774 343.617 -533.536)" gradientUnits="userSpaceOnUse" xlink:href="#linearGradient3200" id="radialGradient3214" fy="450.862" fx="-148.5" r="13.5" cy="450.862" cx="-148.5"/><radialGradient gradientTransform="matrix(1.89836 0 0 1.75774 293.091 -533.536)" gradientUnits="userSpaceOnUse" xlink:href="#linearGradient3200" id="radialGradient3206" fy="450.862" fx="-148.5" r="13.5" cy="450.862" cx="-148.5"/><linearGradient gradientUnits="userSpaceOnUse" y2="292.718" x2="33.784" y1="262.592" x1="34.067" id="linearGradient1752" xlink:href="#linearGradient1750"/><filter height="1.42" y="-.21" width="1.054" x="-.027" id="filter906" color-interpolation-filters="sRGB"><feGaussianBlur id="feGaussianBlur908" stdDeviation=".322"/></filter></defs><style id="style4485" type="text/css"/><path id="path4516" d="M2.75 26.22v1.67c0 9.573 5.583 17.281 17.146 17.281h6.93c15.132 0 17.836-11.322 17.836-17.282v-1.668c0 5.96-2.704 17.282-17.836 17.282h-6.93C8.333 43.503 2.75 35.795 2.75 26.22z" opacity="1" fill="url(#linearGradient4540)" fill-opacity="1" stroke="none" stroke-width="1.1" stroke-linecap="square" stroke-linejoin="bevel" stroke-miterlimit="4" stroke-dasharray="none" stroke-dashoffset="0" stroke-opacity=".078"/><path id="path4518" d="M3.065 28.169v-8.577c0-14.042 11.247-16.967 17.282-16.967h7.123c5.96 0 17.282 2.73 17.282 18.009v6.997c0 11.674-7.707 17.312-17.282 17.312h-7.123c-9.574 0-17.282-5.523-17.282-16.774z" opacity="1" fill="#666" fill-opacity="1" stroke="#000" stroke-width=".336" stroke-linecap="square" stroke-linejoin="bevel" stroke-miterlimit="4" stroke-dasharray="none" stroke-dashoffset="0" stroke-opacity=".078"/><g id="g938" transform="matrix(.6443 0 0 .66047 1.959 -149.028)"><g transform="translate(17.175 116.001) scale(.50323)" id="g1730"><g transform="translate(-3.278)" id="g916" fill-opacity="1" fill-rule="nonzero" stroke-linecap="round" stroke-linejoin="round" stroke-miterlimit="4" stroke-dasharray="none" stroke-opacity="1"><path id="path2225" d="M36.812 258.965a25.628 23.73 0 1 1-51.256 0 25.628 23.73 0 1 1 51.256 0z" fill="url(#radialGradient3206)" stroke="none" stroke-width=".095"/><path id="path2227" d="M87.338 258.965a25.628 23.73 0 1 1-51.256 0 25.628 23.73 0 1 1 51.256 0z" fill="url(#radialGradient3214)" stroke="none" stroke-width=".095"/><path id="path5158" d="M35.315 261.221a7.513 6.957 0 1 1-15.027 0 7.513 6.957 0 1 1 15.027 0z" fill="url(#radialGradient5162)" stroke="none" stroke-width=".028"/><path id="path5160" d="M52.316 261.221a7.513 6.957 0 1 1-15.026 0 7.513 6.957 0 1 1 15.026 0z" fill="url(#radialGradient5164)" stroke="none" stroke-width=".028"/><path id="path6145" d="M46.844 257.1a1.988 1.841 0 1 1-3.976 0 1.988 1.841 0 1 1 3.976 0z" fill="url(#radialGradient6147)" stroke="url(#radialGradient11085)" stroke-width=".007"/><path id="path6149" d="M29.333 257.1a1.988 1.841 0 1 1-3.976 0 1.988 1.841 0 1 1 3.976 0z" fill="url(#radialGradient6151)" stroke="url(#radialGradient11077)" stroke-width=".007"/></g></g><text xml:space="preserve" style="line-height:1.25" x="19.254" y="259.334" id="text884" font-style="normal" font-weight="400" font-size="4.96" font-family="sans-serif" letter-spacing="0" word-spacing="0" opacity=".3" fill="#020000" fill-opacity="1" stroke="none" stroke-width=".124" filter="url(#filter906)"><tspan id="tspan882" x="19.254" y="259.334" style="-inkscape-font-specification:'Terminator Real NFI'" font-style="normal" font-variant="normal" font-weight="400" font-stretch="normal" font-family="Terminator Real NFI" fill="#020000" fill-opacity="1" stroke-width=".124">super</tspan></text><text xml:space="preserve" style="line-height:1.25" x="19.254" y="259.334" id="text920" font-style="normal" font-weight="400" font-size="4.96" font-family="sans-serif" letter-spacing="0" word-spacing="0" fill="none" fill-opacity="1" stroke="#fff" stroke-width=".529" stroke-miterlimit="4" stroke-dasharray="none" stroke-opacity="1"><tspan id="tspan918" x="19.254" y="259.334" style="-inkscape-font-specification:'Terminator Real NFI'" font-style="normal" font-variant="normal" font-weight="400" font-stretch="normal" font-family="Terminator Real NFI" fill="none" fill-opacity="1" stroke="#fff" stroke-width=".529" stroke-miterlimit="4" stroke-dasharray="none" stroke-opacity="1">super</tspan></text><text id="text880" y="259.334" x="19.254" style="line-height:1.25" xml:space="preserve" font-style="normal" font-weight="400" font-size="4.96" font-family="sans-serif" letter-spacing="0" word-spacing="0" fill="#222" fill-opacity="1" stroke="none" stroke-width=".124"><tspan style="-inkscape-font-specification:'Terminator Real NFI'" y="259.334" x="19.254" id="tspan878" font-style="normal" font-variant="normal" font-weight="400" font-stretch="normal" font-family="Terminator Real NFI" fill="#222" fill-opacity="1" stroke-width=".124">super</tspan></text><path d="M26.084 259.532a2648.46 2648.46 0 0 0-12.065 4.59c-.209.082-.198.133.68 3.196.49 1.711.901 3.122.914 3.135.013.014.879-.378 1.923-.869 1.045-.491 1.919-.893 1.942-.893.023 0 .524 1.342 1.114 2.981.941 2.618 1.097 2.981 1.28 2.981.153 0-.222.431-1.43 1.64-.9.902-1.671 1.64-1.713 1.64-.072 0-.06-.504.083-3.233l.062-1.196-1.973.038c-1.086.02-2.004.067-2.041.103-.077.074-3.262 11.755-3.262 11.965 0 .038 2.545.129 5.416.192l.696.015.22-1.284c.12-.706.247-1.435.28-1.62.033-.187.097-.297.144-.248.075.077 1.717 3.087 3.031 5.553.262.491.508.93.547.973.038.044.616-.17 1.284-.476l1.213-.556 1.558.104c.856.057 1.585.104 1.618.104.034 0 .186-.47.338-1.044.213-.802.315-1.043.444-1.043.404 0 2.438.306 2.51.378.043.043.165.472.27.952.105.48.212.895.24.922.026.026.689.09 1.473.14 2.482.159 2.439.15 2.512.54.038.206.11.32.184.294.066-.025 1.006-.202 2.09-.394a188.36 188.36 0 0 1 2.002-.348c.018 0 .018-.168.001-.373-.136-1.61-.166-2.631-.076-2.576.056.034.609.847 1.23 1.806.62.96 1.174 1.723 1.23 1.697.056-.026 1.109-.443 2.338-.927 2.219-.874 2.236-.879 2.269-.64.03.23.054.236.577.171.3-.038 1.503-.167 2.672-.289 1.17-.12 2.15-.243 2.178-.27.027-.028.008-.205-.044-.393-.051-.188-.206-1.483-.344-2.876a116.747 116.747 0 0 0-.297-2.8c-.06-.345-.023-.352 2.462-.436l1.971-.066-.06-.809a153.47 153.47 0 0 1-.159-2.74c-.054-1.061-.108-1.939-.121-1.95-.013-.012-1.161.063-2.551.165-1.39.102-2.544.17-2.564.15-.02-.02.29-.115.69-.21.398-.097.773-.203.831-.236.066-.038-.602-1.343-1.709-3.34-1-1.804-1.819-3.335-1.821-3.402-.003-.067 1.271-1.181 2.83-2.476 1.56-1.295 2.801-2.389 2.758-2.43-.084-.083-4.27-1.685-4.473-1.713-.068-.009-.837.558-1.71 1.26-.873.7-1.63 1.248-1.681 1.217-.051-.032-.55-.885-1.107-1.896-.895-1.623-1.039-1.833-1.227-1.789-1.079.25-3.455.7-3.494.661-.027-.027-.05-.137-.05-.245 0-.189-.05-.193-1.515-.123-.833.04-1.87.1-2.302.137l-.787.066.017 1.888c.01 1.038.046 2.855.08 4.036l.064 2.147-.543.41-.543.41-1.135.063-1.136.062-.46-.687-.46-.688-.232-3.559-.233-3.559-1.658.07c-.911.04-1.732.079-1.823.087-.117.011-.34-.322-.754-1.127-.346-.673-.64-1.13-.713-1.11zm14.277 4.61c.045-.045 1.748 3.314 1.74 3.433-.004.066-1.429 1.227-1.586 1.293-.037.015-.096-1.033-.131-2.328-.035-1.296-.046-2.375-.023-2.398zm-13.691 1.27c.05 0 .254 1.652.453 3.672l.362 3.673 1.357 1.32c.746.727 1.44 1.36 1.541 1.409.115.054 1.655-.035 4.041-.235l3.856-.323.447-.428.447-.427.537.39c.296.214.577.39.626.39.049 0 .924-.694 1.945-1.541 1.02-.847 1.88-1.54 1.91-1.54.063 0 2.112 4.084 2.068 4.123-.017.015-.591.058-1.277.097l-1.247.07-.573-.466-.571-.466-3.25.512c-5.376.847-5.087.783-5.087 1.116 0 .308.457 5.385.557 6.193.034.273.036.473.005.443-.056-.053-1.867-6.028-2.065-6.813l-.103-.407-1.259-.065a61.135 61.135 0 0 0-2.553-.064h-1.295l-.775 2.459c-1.617 5.13-1.768 5.59-1.834 5.588-.038 0-.486-.741-.996-1.646-.51-.904-.903-1.707-.874-1.784.03-.077.75-1.013 1.599-2.08.85-1.067 1.544-1.98 1.544-2.03 0-.049-.604-.612-1.341-1.25-.738-.64-1.342-1.196-1.342-1.237 0-.04.436-.245.969-.454.533-.21 1.2-.481 1.484-.605l.515-.224-1.236-3.054c-.679-1.68-1.235-3.087-1.235-3.126 0-.073 2.486-1.19 2.65-1.19zm13.287 12.931l.417.245c.395.231.427.286.62 1.053l.203.808-.25.328c-.272.357-.3.37-1.177.531-.327.06-.692.13-.81.156-.198.042-.22-.014-.33-.824-.065-.478-.152-1.1-.193-1.383l-.075-.513.797-.2zm5.341 2.869h1.379v2.981c0 1.64-.018 2.981-.04 2.981-.02 0-.808-.791-1.749-1.759-1.812-1.864-1.828-1.892-1.037-1.91.167-.004.375-.063.462-.132.211-.165 1.168-1.334 1.13-1.38-.016-.02-.056-.204-.087-.408zm-15.688.236c.029 0 .053.065.09.16.194.505.582 2.325.508 2.385-.042.034-.336.032-.652-.005s-.597-.09-.624-.117c-.027-.027.086-.536.252-1.13.276-.987.362-1.295.426-1.293z" id="path1744" opacity="1" fill="#ff8d00" fill-opacity="1" stroke="#fff" stroke-width="1.587" stroke-linecap="square" stroke-linejoin="miter" stroke-miterlimit="4" stroke-dasharray="none" stroke-opacity="1"/><path id="rect827" d="M26.084 259.532a2648.46 2648.46 0 0 0-12.065 4.59c-.209.082-.198.133.68 3.196.49 1.711.901 3.122.914 3.135.013.014.879-.378 1.923-.869 1.045-.491 1.919-.893 1.942-.893.023 0 .524 1.342 1.114 2.981.941 2.618 1.097 2.981 1.28 2.981.153 0-.222.431-1.43 1.64-.9.902-1.671 1.64-1.713 1.64-.072 0-.06-.504.083-3.233l.062-1.196-1.973.038c-1.086.02-2.004.067-2.041.103-.077.074-3.262 11.755-3.262 11.965 0 .038 2.545.129 5.416.192l.696.015.22-1.284c.12-.706.247-1.435.28-1.62.033-.187.097-.297.144-.248.075.077 1.717 3.087 3.031 5.553.262.491.508.93.547.973.038.044.616-.17 1.284-.476l1.213-.556 1.558.104c.856.057 1.585.104 1.618.104.034 0 .186-.47.338-1.044.213-.802.315-1.043.444-1.043.404 0 2.438.306 2.51.378.043.043.165.472.27.952.105.48.212.895.24.922.026.026.689.09 1.473.14 2.482.159 2.439.15 2.512.54.038.206.11.32.184.294.066-.025 1.006-.202 2.09-.394a188.36 188.36 0 0 1 2.002-.348c.018 0 .018-.168.001-.373-.136-1.61-.166-2.631-.076-2.576.056.034.609.847 1.23 1.806.62.96 1.174 1.723 1.23 1.697.056-.026 1.109-.443 2.338-.927 2.219-.874 2.236-.879 2.269-.64.03.23.054.236.577.171.3-.038 1.503-.167 2.672-.289 1.17-.12 2.15-.243 2.178-.27.027-.028.008-.205-.044-.393-.051-.188-.206-1.483-.344-2.876a116.747 116.747 0 0 0-.297-2.8c-.06-.345-.023-.352 2.462-.436l1.971-.066-.06-.809a153.47 153.47 0 0 1-.159-2.74c-.054-1.061-.108-1.939-.121-1.95-.013-.012-1.161.063-2.551.165-1.39.102-2.544.17-2.564.15-.02-.02.29-.115.69-.21.398-.097.773-.203.831-.236.066-.038-.602-1.343-1.709-3.34-1-1.804-1.819-3.335-1.821-3.402-.003-.067 1.271-1.181 2.83-2.476 1.56-1.295 2.801-2.389 2.758-2.43-.084-.083-4.27-1.685-4.473-1.713-.068-.009-.837.558-1.71 1.26-.873.7-1.63 1.248-1.681 1.217-.051-.032-.55-.885-1.107-1.896-.895-1.623-1.039-1.833-1.227-1.789-1.079.25-3.455.7-3.494.661-.027-.027-.05-.137-.05-.245 0-.189-.05-.193-1.515-.123-.833.04-1.87.1-2.302.137l-.787.066.017 1.888c.01 1.038.046 2.855.08 4.036l.064 2.147-.543.41-.543.41-1.135.063-1.136.062-.46-.687-.46-.688-.232-3.559-.233-3.559-1.658.07c-.911.04-1.732.079-1.823.087-.117.011-.34-.322-.754-1.127-.346-.673-.64-1.13-.713-1.11zm14.277 4.61c.045-.045 1.748 3.314 1.74 3.433-.004.066-1.429 1.227-1.586 1.293-.037.015-.096-1.033-.131-2.328-.035-1.296-.046-2.375-.023-2.398zm-13.691 1.27c.05 0 .254 1.652.453 3.672l.362 3.673 1.357 1.32c.746.727 1.44 1.36 1.541 1.409.115.054 1.655-.035 4.041-.235l3.856-.323.447-.428.447-.427.537.39c.296.214.577.39.626.39.049 0 .924-.694 1.945-1.541 1.02-.847 1.88-1.54 1.91-1.54.063 0 2.112 4.084 2.068 4.123-.017.015-.591.058-1.277.097l-1.247.07-.573-.466-.571-.466-3.25.512c-5.376.847-5.087.783-5.087 1.116 0 .308.457 5.385.557 6.193.034.273.036.473.005.443-.056-.053-1.867-6.028-2.065-6.813l-.103-.407-1.259-.065a61.135 61.135 0 0 0-2.553-.064h-1.295l-.775 2.459c-1.617 5.13-1.768 5.59-1.834 5.588-.038 0-.486-.741-.996-1.646-.51-.904-.903-1.707-.874-1.784.03-.077.75-1.013 1.599-2.08.85-1.067 1.544-1.98 1.544-2.03 0-.049-.604-.612-1.341-1.25-.738-.64-1.342-1.196-1.342-1.237 0-.04.436-.245.969-.454.533-.21 1.2-.481 1.484-.605l.515-.224-1.236-3.054c-.679-1.68-1.235-3.087-1.235-3.126 0-.073 2.486-1.19 2.65-1.19zm13.287 12.931l.417.245c.395.231.427.286.62 1.053l.203.808-.25.328c-.272.357-.3.37-1.177.531-.327.06-.692.13-.81.156-.198.042-.22-.014-.33-.824-.065-.478-.152-1.1-.193-1.383l-.075-.513.797-.2zm5.341 2.869h1.379v2.981c0 1.64-.018 2.981-.04 2.981-.02 0-.808-.791-1.749-1.759-1.812-1.864-1.828-1.892-1.037-1.91.167-.004.375-.063.462-.132.211-.165 1.168-1.334 1.13-1.38-.016-.02-.056-.204-.087-.408zm-15.688.236c.029 0 .053.065.09.16.194.505.582 2.325.508 2.385-.042.034-.336.032-.652-.005s-.597-.09-.624-.117c-.027-.027.086-.536.252-1.13.276-.987.362-1.295.426-1.293z" opacity="1" fill="url(#linearGradient1752)" fill-opacity="1" stroke="none" stroke-width=".541" stroke-linecap="square" stroke-linejoin="miter" stroke-miterlimit="4" stroke-dasharray="none" stroke-opacity="1"/></g></svg>