<svg xmlns="http://www.w3.org/2000/svg" xmlns:xlink="http://www.w3.org/1999/xlink" width="48" height="48" version="1.1" id="svg38"><defs id="defs22"><linearGradient id="linearGradient4488"><stop id="stop4490" offset="0" stop-color="#000" stop-opacity=".047"/><stop id="stop4492" offset="1" stop-color="#000" stop-opacity="0"/></linearGradient><style id="style4511"/><style id="style4511-26"/><style id="style4511-9"/><style id="style4552"/><style id="style4511-2"/><linearGradient gradientTransform="translate(-63.205 2.216) scale(.3038)" xlink:href="#linearGradient4488" id="linearGradient4160" x1="288.112" y1="141.785" x2="287.575" y2="79.008" gradientUnits="userSpaceOnUse"/><linearGradient gradientTransform="rotate(-90 24 24)" gradientUnits="userSpaceOnUse" x2="47" x1="1" id="linearGradient3764"><stop id="stop7-367" stop-opacity="1" stop-color="#e4e4e4"/><stop id="stop9-535" stop-opacity="1" stop-color="#eee" offset="1"/></linearGradient><linearGradient xlink:href="#linearGradient3764" id="linearGradient1249" x1="2.266" y1="23.808" x2="44.513" y2="23.808" gradientUnits="userSpaceOnUse"/></defs><style id="style4485" type="text/css"/><path d="M2.433 26.443v1.668c0 9.575 5.583 17.282 17.146 17.282h6.93c15.133 0 17.837-11.322 17.837-17.282v-1.668c0 5.96-2.704 17.282-17.837 17.282h-6.93c-11.563 0-17.146-7.708-17.146-17.282z" id="path4147" opacity="1" fill="url(#linearGradient4160)" fill-opacity="1" stroke="none" stroke-width="1.1" stroke-linecap="square" stroke-linejoin="bevel" stroke-miterlimit="4" stroke-dasharray="none" stroke-dashoffset="0" stroke-opacity=".078"/><path d="M19.046 2.965h8.495c13.908 0 16.805 11.246 16.805 17.282v7.123c0 5.96-2.704 17.282-17.837 17.282h-6.93c-11.562 0-17.146-7.708-17.146-17.282v-7.123c0-9.575 5.47-17.282 16.613-17.282z" id="rect4144" opacity="1" fill="url(#linearGradient1249)" fill-opacity="1" stroke="#000" stroke-width=".334" stroke-linecap="square" stroke-linejoin="bevel" stroke-miterlimit="4" stroke-dasharray="none" stroke-dashoffset="0" stroke-opacity=".078"/><g id="g370" transform="translate(-.935 -.791)" stroke="none"><path id="rect3050" d="M10.84 21.583h23.45V37.67H10.84z" fill="#f9f9f9" fill-opacity="1" stroke-width="1.086"/><path id="path3054" d="M34.291 37.671l3.518-1.005V20.577l-3.518 1.006z" fill="#999" stroke-width="1.086"/><path id="path3060" d="M22.565 12.533l3.518-1.006 12.899 9.05-3.518 1.006z" fill="#c83737" stroke-width="1.086"/><path id="rect3850" d="M15.53 13.538h1.173c.65 0 1.172.449 1.172 1.006v4.022c0 .557-.523 1.006-1.172 1.006H15.53c-.65 0-1.173-.449-1.173-1.006v-4.022c0-.557.523-1.006 1.173-1.006z" fill="#a05a2c" fill-opacity="1" stroke-width="1.086"/><path id="path3058" d="M9.667 21.583h25.797l-12.899-9.05z" fill="#f55" stroke-width="1.086"/><path id="rect3838" d="M14.357 28.621c2.346-2.01 4.69-2.01 7.036 0v9.05h-7.036z" fill="#916f6f" fill-opacity="1" stroke-width="1.086"/><path id="rect3852" d="M25.223 23.594h4.163c.769 0 1.388.557 1.388 1.25v3.752c0 .692-.62 1.25-1.388 1.25h-4.163c-.769 0-1.388-.558-1.388-1.25v-3.752c0-.693.62-1.25 1.388-1.25z" fill="#acf" fill-opacity="1" stroke-width="1.317"/></g></svg>