<svg xmlns="http://www.w3.org/2000/svg" xmlns:xlink="http://www.w3.org/1999/xlink" width="48" height="48" version="1.1" id="svg38"><defs id="defs22"><linearGradient id="linearGradient4488"><stop id="stop4490" offset="0" stop-color="#000" stop-opacity=".047"/><stop id="stop4492" offset="1" stop-color="#000" stop-opacity="0"/></linearGradient><style id="style4511"/><style id="style4511-26"/><style id="style4511-9"/><style id="style4552"/><style id="style4511-2"/><linearGradient xlink:href="#linearGradient4488" id="linearGradient4471" gradientUnits="userSpaceOnUse" gradientTransform="matrix(.3038 0 0 .3086 -62.47 2.206)" x1="288.112" y1="141.785" x2="287.575" y2="79.008"/><linearGradient id="linearGradient4245"><stop offset="0" id="stop4241" stop-color="#e8e8e8" stop-opacity="1"/><stop offset="1" id="stop4243" stop-color="#f5f5f5" stop-opacity="1"/></linearGradient><radialGradient gradientTransform="matrix(1.1875 0 0 1.125 -6 -3.25)" gradientUnits="userSpaceOnUse" xlink:href="#linearGradient3927" id="radialGradient3679" fy="26" fx="32" r="16" cy="26" cx="32"/><linearGradient id="linearGradient3927"><stop offset="0" id="stop3929" stop-color="#5db1eb" stop-opacity="1"/><stop offset=".719" id="stop3935" stop-color="#3ca0e6" stop-opacity="1"/><stop offset="1" id="stop3933" stop-color="#1b90e2" stop-opacity="1"/></linearGradient><linearGradient gradientTransform="translate(-36)" gradientUnits="userSpaceOnUse" xlink:href="#linearGradient3781" id="linearGradient3791" y2="38.502" x2="67.297" y1="15" x1="61"/><linearGradient id="linearGradient3781"><stop offset="0" id="stop3783" stop-color="#fff" stop-opacity="1"/><stop offset="1" id="stop3785" stop-color="#fff" stop-opacity="0"/></linearGradient><radialGradient gradientTransform="matrix(1.1875 0 0 1.125 -6 -5)" gradientUnits="userSpaceOnUse" xlink:href="#linearGradient3957" id="radialGradient3972" fy="40" fx="32" r="16" cy="40" cx="32"/><linearGradient id="linearGradient3957"><stop offset="0" id="stop3959" stop-color="#f14848" stop-opacity="1"/><stop offset=".672" id="stop3965" stop-color="#e42323" stop-opacity="1"/><stop offset="1" id="stop3963" stop-color="#c21313" stop-opacity="1"/></linearGradient><linearGradient gradientUnits="userSpaceOnUse" xlink:href="#linearGradient3781" id="linearGradient3974" y2="38.502" x2="67.297" y1="15" x1="61"/><radialGradient gradientTransform="matrix(1.1875 0 0 1.125 -6 -5)" gradientUnits="userSpaceOnUse" xlink:href="#linearGradient3957" id="radialGradient3984" fy="40" fx="32" r="16" cy="40" cx="32"/><radialGradient gradientTransform="matrix(1.1875 0 0 1.125 -6 -5)" gradientUnits="userSpaceOnUse" xlink:href="#linearGradient3957" id="radialGradient3996" fy="40" fx="32" r="16" cy="40" cx="32"/><linearGradient xlink:href="#linearGradient3781" id="linearGradient1531" gradientUnits="userSpaceOnUse" x1="61" y1="15" x2="67.297" y2="38.502"/><linearGradient xlink:href="#linearGradient3781" id="linearGradient1533" gradientUnits="userSpaceOnUse" x1="61" y1="15" x2="67.297" y2="38.502"/><linearGradient xlink:href="#linearGradient4245" id="linearGradient1598" x1="3.112" y1="24.139" x2="45.136" y2="24.139" gradientUnits="userSpaceOnUse"/></defs><style id="style4485" type="text/css"/><path d="M3.168 26.815v1.695c0 9.725 5.583 17.555 17.146 17.555h6.93c15.132 0 17.836-11.502 17.836-17.555v-1.695c0 6.054-2.704 17.555-17.836 17.555h-6.93c-11.563 0-17.146-7.83-17.146-17.555z" id="path4467" opacity="1" fill="url(#linearGradient4471)" fill-opacity="1" stroke="none" stroke-width="1.109" stroke-linecap="square" stroke-linejoin="bevel" stroke-miterlimit="4" stroke-dasharray="none" stroke-dashoffset="0" stroke-opacity=".078"/><path d="M3.28 28.55v-8.629c0-14.127 11.247-17.07 17.283-17.07h7.123c5.96 0 17.282 2.748 17.282 18.119v7.04c0 11.744-7.708 17.416-17.282 17.416h-7.123c-9.575 0-17.282-5.557-17.282-16.876z" id="path4469" opacity="1" fill="url(#linearGradient1598)" fill-opacity="1" stroke="#000" stroke-width=".337" stroke-linecap="square" stroke-linejoin="bevel" stroke-miterlimit="4" stroke-dasharray="none" stroke-dashoffset="0" stroke-opacity=".078"/><g id="g1590" transform="translate(1.108 .735)"><g id="layer4" transform="matrix(.40897 0 0 .41204 3.386 3.626)" color="#000" visibility="visible" fill-opacity="1" fill-rule="nonzero" stroke="none" stroke-width=".5"><path style="marker:none" id="path3663" transform="matrix(1 0 0 -1 -2 62)" d="M48 32a16 16 0 1 1-32 0 16 16 0 1 1 32 0z" display="inline" overflow="visible" fill="url(#radialGradient3679)"/><path style="marker:none" id="path3789" d="M30 15c-8.284 0-15 6.716-15 15 0 3.609 1.283 6.912 3.406 9.5a14.384 14.384 0 0 1-2.406-8C16 23.492 22.492 17 30.5 17c7.753 0 14.073 6.096 14.469 13.75.012-.25.031-.496.031-.75 0-8.284-6.716-15-15-15z" display="inline" overflow="visible" opacity=".4" fill="url(#linearGradient3791)"/><path style="marker:none" id="path3795" d="M30 14c-8.837 0-16 7.163-16 16s7.163 16 16 16 16-7.163 16-16-7.163-16-16-16zm0 .969c8.32 0 15.031 6.71 15.031 15.031 0 8.32-6.71 15.031-15.031 15.031A15.007 15.007 0 0 1 14.969 30c0-8.32 6.71-15.031 15.031-15.031z" display="inline" overflow="visible" opacity=".2" fill="#000"/><g id="g3967"><path style="marker:none" id="path3667" transform="translate(34 -2)" d="M48 32a16 16 0 1 1-32 0 16 16 0 1 1 32 0z" display="inline" overflow="visible" fill="url(#radialGradient3972)"/><path style="marker:none" id="path3764" d="M66 15c-8.284 0-15 6.716-15 15 0 3.609 1.283 6.912 3.406 9.5a14.384 14.384 0 0 1-2.406-8C52 23.492 58.492 17 66.5 17c7.753 0 14.073 6.096 14.469 13.75.012-.25.031-.496.031-.75 0-8.284-6.716-15-15-15z" display="inline" overflow="visible" opacity=".3" fill="url(#linearGradient1531)"/><path style="marker:none" id="path3802" d="M66 14c-8.837 0-16 7.163-16 16s7.163 16 16 16 16-7.163 16-16-7.163-16-16-16zm0 .969c8.32 0 15.031 6.71 15.031 15.031 0 8.32-6.71 15.031-15.031 15.031A15.007 15.007 0 0 1 50.969 30c0-8.32 6.71-15.031 15.031-15.031z" display="inline" overflow="visible" opacity=".2" fill="#000"/></g><g id="g3976" transform="translate(0 36)"><path style="marker:none" id="path3978" transform="translate(34 -2)" d="M48 32a16 16 0 1 1-32 0 16 16 0 1 1 32 0z" display="inline" overflow="visible" fill="url(#radialGradient3984)"/><path style="marker:none" id="path3980" d="M66 15c-8.284 0-15 6.716-15 15 0 3.609 1.283 6.912 3.406 9.5a14.384 14.384 0 0 1-2.406-8C52 23.492 58.492 17 66.5 17c7.753 0 14.073 6.096 14.469 13.75.012-.25.031-.496.031-.75 0-8.284-6.716-15-15-15z" display="inline" overflow="visible" opacity=".3" fill="url(#linearGradient1533)"/><path style="marker:none" id="path3982" d="M66 14c-8.837 0-16 7.163-16 16s7.163 16 16 16 16-7.163 16-16-7.163-16-16-16zm0 .969c8.32 0 15.031 6.71 15.031 15.031 0 8.32-6.71 15.031-15.031 15.031A15.007 15.007 0 0 1 50.969 30c0-8.32 6.71-15.031 15.031-15.031z" display="inline" overflow="visible" opacity=".2" fill="#000"/></g><g id="g3988" transform="translate(-36 36)"><path style="marker:none" id="path3990" transform="translate(34 -2)" d="M48 32a16 16 0 1 1-32 0 16 16 0 1 1 32 0z" display="inline" overflow="visible" fill="url(#radialGradient3996)"/><path style="marker:none" id="path3992" d="M66 15c-8.284 0-15 6.716-15 15 0 3.609 1.283 6.912 3.406 9.5a14.384 14.384 0 0 1-2.406-8C52 23.492 58.492 17 66.5 17c7.753 0 14.073 6.096 14.469 13.75.012-.25.031-.496.031-.75 0-8.284-6.716-15-15-15z" display="inline" overflow="visible" opacity=".3" fill="url(#linearGradient3974)"/><path style="marker:none" id="path3994" d="M66 14c-8.837 0-16 7.163-16 16s7.163 16 16 16 16-7.163 16-16-7.163-16-16-16zm0 .969c8.32 0 15.031 6.71 15.031 15.031 0 8.32-6.71 15.031-15.031 15.031A15.007 15.007 0 0 1 50.969 30c0-8.32 6.71-15.031 15.031-15.031z" display="inline" overflow="visible" opacity=".2" fill="#000"/></g></g></g></svg>