<svg xmlns:osb="http://www.openswatchbook.org/uri/2009/osb" xmlns="http://www.w3.org/2000/svg" xmlns:xlink="http://www.w3.org/1999/xlink" width="48" height="48" version="1.1" id="svg38"><defs id="defs22"><linearGradient id="linearGradient4488"><stop id="stop4490" offset="0" stop-color="#000" stop-opacity=".047"/><stop id="stop4492" offset="1" stop-color="#000" stop-opacity="0"/></linearGradient><style id="style4511"/><style id="style4511-26"/><style id="style4511-9"/><style id="style4552"/><style id="style4511-2"/><linearGradient xlink:href="#linearGradient4488" id="linearGradient4540" gradientUnits="userSpaceOnUse" gradientTransform="translate(-62.889 1.994) scale(.3038)" x1="288.112" y1="141.785" x2="287.575" y2="79.008"/><linearGradient osb:paint="solid" id="linearGradient5293"><stop id="stop5295" offset="0" stop-color="#9a89c0" stop-opacity="1"/></linearGradient></defs><style id="style4485" type="text/css"/><path id="path4516" d="M2.75 26.22v1.67c0 9.573 5.583 17.281 17.146 17.281h6.93c15.132 0 17.836-11.322 17.836-17.282v-1.668c0 5.96-2.704 17.282-17.836 17.282h-6.93C8.333 43.503 2.75 35.795 2.75 26.22z" opacity="1" fill="url(#linearGradient4540)" fill-opacity="1" stroke="none" stroke-width="1.1" stroke-linecap="square" stroke-linejoin="bevel" stroke-miterlimit="4" stroke-dasharray="none" stroke-dashoffset="0" stroke-opacity=".078"/><path id="path4518" d="M19.708 2.742h8.672c14.197 0 17.154 11.247 17.154 17.282v7.124c0 5.96-2.76 17.282-18.207 17.282h-7.075C8.45 44.43 2.75 36.722 2.75 27.148v-7.124c0-9.574 5.584-17.282 16.958-17.282z" opacity="1" fill="#20b293" fill-opacity="1" stroke="#000" stroke-width=".338" stroke-linecap="square" stroke-linejoin="bevel" stroke-miterlimit="4" stroke-dasharray="none" stroke-dashoffset="0" stroke-opacity=".078"/><path d="M22.883 6.531v3.767A13.863 13.385 0 0 0 10.663 21.3h2.93a10.995 10.616 0 0 1 10.724-8.308A10.995 10.616 0 0 1 35.033 21.3h2.924a13.863 13.385 0 0 0-12.206-11V6.53zm1.434 9.231a8.126 7.846 0 0 0-8.127 7.847 8.126 7.846 0 0 0 .135 1.384H29.37a5.258 5.077 0 0 1-5.053 3.693 5.258 5.077 0 0 1-4.05-1.846H16.92a8.126 7.846 0 0 0 7.396 4.615 8.126 7.846 0 0 0 8.126-7.846 8.126 7.846 0 0 0-.134-1.385H19.264a5.258 5.077 0 0 1 5.053-3.692 5.258 5.077 0 0 1 4.05 1.846h3.346a8.126 7.846 0 0 0-7.396-4.616zm-13.64 10.155a13.863 13.385 0 0 0 12.206 11v3.77h2.868V36.92a13.863 13.385 0 0 0 12.22-11.003h-2.93a10.995 10.616 0 0 1-10.724 8.308A10.995 10.616 0 0 1 13.6 25.917z" id="path990" fill="#e6e6e6" stroke-width=".939" fill-opacity="1"/></svg>