<svg xmlns="http://www.w3.org/2000/svg" xmlns:xlink="http://www.w3.org/1999/xlink" width="48" height="48" version="1.1" id="svg38"><defs id="defs22"><linearGradient id="linearGradient4488"><stop id="stop4490" offset="0" stop-color="#000" stop-opacity=".047"/><stop id="stop4492" offset="1" stop-color="#000" stop-opacity="0"/></linearGradient><style id="style4511"/><style id="style4511-26"/><style id="style4511-9"/><style id="style4552"/><style id="style4511-2"/><linearGradient gradientTransform="matrix(.3082 0 0 .3038 -64.056 2.216)" xlink:href="#linearGradient4488" id="linearGradient4160" x1="288.112" y1="141.785" x2="287.575" y2="79.008" gradientUnits="userSpaceOnUse"/><linearGradient gradientUnits="userSpaceOnUse" y2="33.631" x2="15.908" y1="38.196" x1="11.343" id="linearGradient4546" xlink:href="#linearGradient4544"/><linearGradient id="linearGradient4544"><stop id="stop4540" offset="0" stop-color="#95cd27" stop-opacity="1"/><stop id="stop4542" offset="1" stop-color="#b7e261" stop-opacity="1"/></linearGradient><linearGradient gradientUnits="userSpaceOnUse" y2="16.409" x2="15.981" y1="10.605" x1="10.177" id="linearGradient4554" xlink:href="#linearGradient4552"/><linearGradient id="linearGradient4552"><stop id="stop4548-3" offset="0" stop-color="#2663d9" stop-opacity="1"/><stop id="stop4550" offset="1" stop-color="#5c8be3" stop-opacity="1"/></linearGradient><linearGradient gradientUnits="userSpaceOnUse" y2="35.647" x2="39.338" y1="27.838" x1="30.177" id="linearGradient4570" xlink:href="#linearGradient4568"/><linearGradient id="linearGradient4568"><stop id="stop4564" offset="0" stop-color="#5ab8de" stop-opacity="1"/><stop id="stop4566" offset="1" stop-color="#299ecd" stop-opacity=".979"/></linearGradient><linearGradient gradientUnits="userSpaceOnUse" y2="17.263" x2="28.965" y1="8.056" x1="34.869" id="linearGradient4562-6" xlink:href="#linearGradient4560"/><linearGradient id="linearGradient4560"><stop id="stop4556" offset="0" stop-color="#18615e" stop-opacity="1"/><stop id="stop4558" offset="1" stop-color="#218984" stop-opacity="1"/></linearGradient></defs><style id="style4485" type="text/css"/><path d="M2.535 26.443v1.668c0 9.575 5.664 17.282 17.394 17.282h7.031c15.352 0 18.095-11.322 18.095-17.282v-1.668c0 5.96-2.743 17.282-18.095 17.282h-7.03c-11.73 0-17.395-7.708-17.395-17.282z" id="path4147" opacity="1" fill="url(#linearGradient4160)" fill-opacity="1" stroke="none" stroke-width="1.108" stroke-linecap="square" stroke-linejoin="bevel" stroke-miterlimit="4" stroke-dasharray="none" stroke-dashoffset="0" stroke-opacity=".078"/><path d="M19.389 2.965h8.618c14.11 0 17.048 11.246 17.048 17.282v7.123c0 5.96-2.743 17.282-18.095 17.282h-7.03c-11.73 0-17.395-7.708-17.395-17.282v-7.123c0-9.575 5.55-17.282 16.854-17.282z" id="rect4144" opacity="1" fill="#e3e7ea" fill-opacity="1" stroke="#000" stroke-width=".337" stroke-linecap="square" stroke-linejoin="bevel" stroke-miterlimit="4" stroke-dasharray="none" stroke-dashoffset="0" stroke-opacity=".078"/><g id="g5638" transform="matrix(.80015 0 0 .78871 4.592 4.88)" fill-opacity="1"><path id="path6" d="M4 24a20 20 0 0 0 20 20l3-3.5-2.35-3.523A13 13 0 0 1 24 37a13 13 0 0 1-12.977-12.35L7.5 27z" fill="url(#linearGradient4546)"/><path id="path8" d="M24 4A20 20 0 0 0 4 24l3.5 3 3.523-2.35A13 13 0 0 1 11 24a13 13 0 0 1 12.35-12.977L21 7.5z" fill="url(#linearGradient4554)"/><path id="path12" d="M40.5 21l-3.523 2.35A13 13 0 0 1 37 24a13 13 0 0 1-12.35 12.977L27 40.5 24 44a20 20 0 0 0 20-20z" fill="url(#linearGradient4570)"/><path id="path4" d="M24 4l-3 3.5 2.35 3.523A13 13 0 0 1 24 11a13 13 0 0 1 12.977 12.35L40.5 21l3.5 3A20 20 0 0 0 24 4z" fill="url(#linearGradient4562-6)"/></g></svg>