<svg xmlns="http://www.w3.org/2000/svg" xmlns:xlink="http://www.w3.org/1999/xlink" width="48" height="48" version="1.1" id="svg38"><defs id="defs22"><linearGradient id="linearGradient4488"><stop id="stop4490" offset="0" stop-color="#000" stop-opacity=".047"/><stop id="stop4492" offset="1" stop-color="#000" stop-opacity="0"/></linearGradient><style id="style4511"/><style id="style4511-26"/><style id="style4511-9"/><style id="style4552"/><style id="style4511-2"/><linearGradient gradientTransform="translate(-63.205 2.216) scale(.3038)" xlink:href="#linearGradient4488" id="linearGradient4160" x1="288.112" y1="141.785" x2="287.575" y2="79.008" gradientUnits="userSpaceOnUse"/></defs><style id="style4485" type="text/css"/><path d="M2.433 26.443v1.668c0 9.575 5.583 17.282 17.146 17.282h6.93c15.133 0 17.837-11.322 17.837-17.282v-1.668c0 5.96-2.704 17.282-17.837 17.282h-6.93c-11.563 0-17.146-7.708-17.146-17.282z" id="path4147" opacity="1" fill="url(#linearGradient4160)" fill-opacity="1" stroke="none" stroke-width="1.1" stroke-linecap="square" stroke-linejoin="bevel" stroke-miterlimit="4" stroke-dasharray="none" stroke-dashoffset="0" stroke-opacity=".078"/><path d="M19.046 2.965h8.495c13.908 0 16.805 11.246 16.805 17.282v7.123c0 5.96-2.704 17.282-17.837 17.282h-6.93c-11.562 0-17.146-7.708-17.146-17.282v-7.123c0-9.575 5.47-17.282 16.613-17.282z" id="rect4144" opacity="1" fill="#248be9" fill-opacity="1" stroke="#000" stroke-width=".334" stroke-linecap="square" stroke-linejoin="bevel" stroke-miterlimit="4" stroke-dasharray="none" stroke-dashoffset="0" stroke-opacity=".078"/><path id="path5814" d="M23.427 10.112a.312.312 0 0 0-.234.096 52.978 52.978 0 0 0-2.577 2.922v.004c-1.987 2.479-3.498 5.025-4.592 7.75-1.02 2.54-1.616 4.735-2.158 7.938-.119.701-.239 1.55-.322 2.234-.041.341-.073.641-.091.863a4.25 4.25 0 0 0-.016.275v.106c0 .018 0 .04.013.074.01.035 0 .105.14.19.076.047.086.037.104.042a.809.809 0 0 0 .148.023c.073.007.164.015.26.02.762.042 1.885.236 2.63.454 2.213.675 4.012 2.045 5.717 3.66.19.18.365.345.498.466.067.06.123.112.166.148a1.161 1.161 0 0 0 .097.076l.036.02c.02.01.037.027.123.032.103.004.124-.018.144-.028a.36.36 0 0 0 .08-.049l.064-.051a30.039 30.039 0 0 0 .726-.665c1.187-1.126 1.763-1.603 2.59-2.152 1.806-1.198 3.415-1.73 5.885-1.939l.2-.017a.31.31 0 0 0 .285-.31v-.117c0-.245-.059-.753-.138-1.38a54.8 54.8 0 0 0-.27-1.887c-.543-3.23-1.159-5.504-2.192-8.075-.93-2.317-2.262-4.657-3.854-6.775 0-.005-.01-.01-.012-.015-1.07-1.268-2.107-2.599-3.238-3.833a.31.31 0 0 0-.22-.101z" opacity=".717" fill="none" stroke="#fff" stroke-width="1.143" stroke-miterlimit="4" stroke-dasharray="none" stroke-opacity="1"/></svg>