<svg xmlns:osb="http://www.openswatchbook.org/uri/2009/osb" xmlns="http://www.w3.org/2000/svg" xmlns:xlink="http://www.w3.org/1999/xlink" width="48" height="48" version="1.1" id="svg38"><defs id="defs22"><linearGradient id="linearGradient4488"><stop id="stop4490" offset="0" stop-color="#000" stop-opacity=".047"/><stop id="stop4492" offset="1" stop-color="#000" stop-opacity="0"/></linearGradient><style id="style4511"/><style id="style4511-26"/><style id="style4511-9"/><style id="style4552"/><style id="style4511-2"/><linearGradient xlink:href="#linearGradient4488" id="linearGradient4540" gradientUnits="userSpaceOnUse" gradientTransform="matrix(.30902 0 0 .3038 -64.017 2.569)" x1="288.112" y1="141.785" x2="287.575" y2="79.008"/><linearGradient osb:paint="solid" id="linearGradient5293"><stop id="stop5295" offset="0" stop-color="#9a89c0" stop-opacity="1"/></linearGradient><linearGradient x1="577.945" y1="-1049.799" x2="621.064" y2="-1049.799" id="path3267_1_" gradientUnits="userSpaceOnUse" gradientTransform="matrix(.7031 0 0 -.6996 -452.416 -713.335)"><stop id="stop30" offset="0" stop-color="#f3cb20" stop-opacity=".3"/><stop id="stop32" offset=".22" stop-color="#f3cb20" stop-opacity="1"/><stop id="stop34" offset=".561" stop-color="#f3cb20" stop-opacity="1"/><stop id="stop36" offset="1" stop-color="#f3cb20" stop-opacity=".2"/></linearGradient></defs><style id="style4485" type="text/css"/><path id="path4516" d="M2.75 26.796v1.668c0 9.575 5.68 17.283 17.44 17.283h7.05c15.392 0 18.143-11.323 18.143-17.283v-1.668c0 5.96-2.75 17.282-18.143 17.282h-7.05c-11.76 0-17.44-7.708-17.44-17.282z" opacity="1" fill="url(#linearGradient4540)" fill-opacity="1" stroke="none" stroke-width="1.109" stroke-linecap="square" stroke-linejoin="bevel" stroke-miterlimit="4" stroke-dasharray="none" stroke-dashoffset="0" stroke-opacity=".078"/><path id="path4518" d="M19.649 3.318h8.64c14.148 0 17.094 11.246 17.094 17.282v7.123c0 5.96-2.75 17.282-18.143 17.282h-7.05c-11.76 0-17.44-7.708-17.44-17.282V20.6c0-9.575 5.564-17.282 16.899-17.282z" opacity="1" fill="#362b18" fill-opacity="1" stroke="#000" stroke-width=".337" stroke-linecap="square" stroke-linejoin="bevel" stroke-miterlimit="4" stroke-dasharray="none" stroke-dashoffset="0" stroke-opacity=".078"/><style id="style3" type="text/css"/><g id="g1540" transform="matrix(1.33228 0 0 1.05207 64.659 1.553)"><path d="M-40.497 10.328l-2.435 13.81-3.548.029v1l4.494-.029 2.016-11.419 2.892 17.876.553 3.09.553-3.069 1.243-8.478h4.278l.63-1.935 1.998 7.131 1.473-3.196 11.877.004v-1l-12.579-.004-.489 1.062-2.209-7.903-1.525 4.841h-4.417l-.86 5.77-2.84-17.476-.544-2.908z" id="path3267_13_" fill="url(#path3267_1_)"/><path d="M-24.102 31.471c0 1.163 1.33 1.807 2.077 2.525.784-.75 2.061-1.47 2.061-2.525 0-.99-1.696-1.326-2.07-.174-.43-1.125-2.068-.918-2.068.174z" id="path5749_13_" fill="#f0c512"/><text y="35.086" x="-30.074" transform="scale(1.03349 .9676)" id="text40" style="line-height:0%" font-size="5.035" font-family="Arial-BoldMT" fill="#f0c512">49</text><path d="M-24.218 17.138h3.31c.228 0 .426.13.426.298v.307c0 .17-.197.395-.426.395h-3.31c-.229 0-.265-.226-.265-.395v-.307c.001-.169.036-.298.265-.298z" id="rect5784_13_" fill="#f0c512"/><path d="M-24.218 15.138h3.31c.228 0 .426.18.426.35v.307c0 .168-.197.343-.426.343h-3.31c-.229 0-.265-.175-.265-.343v-.307c.001-.17.036-.35.265-.35z" id="rect5814_26_" fill="#f0c512"/><path d="M-24.218 13.138h3.31c.228 0 .426.18.426.35v.307c0 .168-.197.343-.426.343h-3.31c-.229 0-.265-.175-.265-.343v-.307c.001-.17.036-.35.265-.35z" id="rect5814_25_" opacity=".8" fill="#f0c512"/><path d="M-24.14 11.138h3.31c.228 0 .348.157.348.326v.308c0 .17-.119.366-.348.366h-3.31c-.229 0-.343-.197-.343-.366v-.308c.001-.169.114-.326.343-.326z" id="rect5818_13_" opacity=".608" fill="#f0c512"/><path d="M-24.14 9.138h3.31c.228 0 .348.161.348.331v.308c0 .168-.119.362-.348.362h-3.31c-.229 0-.343-.193-.343-.362V9.47c.001-.17.114-.33.343-.33z" id="rect5820_13_" opacity=".5" fill="#f0c512"/></g><style id="style3-9" type="text/css"/></svg>