<svg xmlns="http://www.w3.org/2000/svg" xmlns:xlink="http://www.w3.org/1999/xlink" width="48" height="48" version="1.1" id="svg38"><defs id="defs22"><linearGradient id="linearGradient4492"><stop offset="0" id="stop4494" stop-color="#6721dc" stop-opacity="1"/><stop offset="1" id="stop4496" stop-color="#9258f4" stop-opacity="1"/></linearGradient><linearGradient id="linearGradient4488"><stop id="stop4490" offset="0" stop-color="#000" stop-opacity=".047"/><stop id="stop4492" offset="1" stop-color="#000" stop-opacity="0"/></linearGradient><style id="style4511"/><style id="style4511-26"/><style id="style4511-9"/><style id="style4552"/><style id="style4511-2"/><linearGradient gradientTransform="translate(-63.205 2.216) scale(.3038)" xlink:href="#linearGradient4488" id="linearGradient4160" x1="288.112" y1="141.785" x2="287.575" y2="79.008" gradientUnits="userSpaceOnUse"/><linearGradient xlink:href="#linearGradient4492" id="linearGradient4499" x1="17.223" y1="44.806" x2="25.673" y2="4.537" gradientUnits="userSpaceOnUse"/></defs><style id="style4485" type="text/css"/><path d="M2.433 26.443v1.668c0 9.575 5.583 17.282 17.146 17.282h6.93c15.133 0 17.837-11.322 17.837-17.282v-1.668c0 5.96-2.704 17.282-17.837 17.282h-6.93c-11.563 0-17.146-7.708-17.146-17.282z" id="path4147" opacity="1" fill="url(#linearGradient4160)" fill-opacity="1" stroke="none" stroke-width="1.1" stroke-linecap="square" stroke-linejoin="bevel" stroke-miterlimit="4" stroke-dasharray="none" stroke-dashoffset="0" stroke-opacity=".078"/><path d="M19.046 2.965h8.495c13.908 0 16.805 11.246 16.805 17.282v7.123c0 5.96-2.704 17.282-17.837 17.282h-6.93c-11.562 0-17.146-7.708-17.146-17.282v-7.123c0-9.575 5.47-17.282 16.613-17.282z" id="rect4144" opacity="1" fill="url(#linearGradient4499)" fill-opacity="1" stroke="#000" stroke-width=".334" stroke-linecap="square" stroke-linejoin="bevel" stroke-miterlimit="4" stroke-dasharray="none" stroke-dashoffset="0" stroke-opacity=".078"/><path d="M8.857 11.886V33.97h11.379v3.311h-3.182v.551H30.27v-.551h-3.181V33.97h11.378V11.887H23.661zm28.752.858V31.83H9.715l.015-9.53.016-9.527 13.931-.016z" id="path21359-7" fill="#fff" fill-opacity="1" stroke="none" stroke-width=".067" stroke-miterlimit="4" stroke-dasharray="none" stroke-opacity="1"/><path class="ColorScheme-Text" id="path4148" d="M19.894 17.232a11.33 11.33 0 0 0-.502.846c.002.002 1.923 1.113 4.27 2.467l4.316 2.492c.059.037.119.15.148.273a.738.738 0 0 1-.453.854c-.045.018-1.189.747-2.71 1.729-1.446.934-2.798 1.805-3.003 1.937a7.8 7.8 0 0 0-.41.275.426.426 0 0 1-.276.106.305.305 0 0 1-.168-.041.363.363 0 0 1-.18-.176l-.029-.055-.003-2.535-.002-2.535h-.985l-.002 2.463c-.001 1.354 0 2.508.002 2.566.012.332.155.655.399.899.217.217.507.36.81.396.055.007.157.01.227.006a1.34 1.34 0 0 0 .763-.275c.179-.133 5.942-3.844 6.045-3.893.177-.083.325-.189.475-.34.15-.15.242-.275.328-.447a1.74 1.74 0 0 0 .008-1.517 2.17 2.17 0 0 0-.254-.385c-.04-.046-.887-.539-4.424-2.58a1420.548 1420.548 0 0 0-4.39-2.53z" color="#4d4d4d" opacity="1" fill="#fff" fill-opacity="1" stroke="none"/></svg>