<?xml version="1.0" encoding="UTF-8" standalone="no"?>
<svg
   xmlns:dc="http://purl.org/dc/elements/1.1/"
   xmlns:cc="http://creativecommons.org/ns#"
   xmlns:rdf="http://www.w3.org/1999/02/22-rdf-syntax-ns#"
   xmlns:svg="http://www.w3.org/2000/svg"
   xmlns="http://www.w3.org/2000/svg"
   xmlns:xlink="http://www.w3.org/1999/xlink"
   xmlns:sodipodi="http://sodipodi.sourceforge.net/DTD/sodipodi-0.dtd"
   xmlns:inkscape="http://www.inkscape.org/namespaces/inkscape"
   height="48"
   width="48"
   version="1.1"
   id="svg38"
   sodipodi:docname="system-file-manager.svg"
   inkscape:version="0.92.4 5da689c313, 2019-01-14">
  <metadata
     id="metadata42">
    <rdf:RDF>
      <cc:Work
         rdf:about="">
        <dc:format>image/svg+xml</dc:format>
        <dc:type
           rdf:resource="http://purl.org/dc/dcmitype/StillImage" />
      </cc:Work>
    </rdf:RDF>
  </metadata>
  <sodipodi:namedview
     pagecolor="#ffffff"
     bordercolor="#666666"
     borderopacity="1"
     objecttolerance="10"
     gridtolerance="10"
     guidetolerance="10"
     inkscape:pageopacity="0"
     inkscape:pageshadow="2"
     inkscape:window-width="1366"
     inkscape:window-height="698"
     id="namedview40"
     showgrid="false"
     inkscape:zoom="4"
     inkscape:cx="-11.25393"
     inkscape:cy="36.860738"
     inkscape:window-x="0"
     inkscape:window-y="0"
     inkscape:window-maximized="1"
     inkscape:current-layer="svg38" />
  <defs
     id="defs14">
    <linearGradient
       id="a">
      <stop
         offset="0"
         stop-color="#1867ef"
         id="stop2" />
      <stop
         offset="1"
         stop-color="#15c0fb"
         id="stop4" />
    </linearGradient>
    <linearGradient
       xlink:href="#a"
       id="f"
       x1="17.084"
       y1="43"
       x2="17.38"
       y2="3"
       gradientUnits="userSpaceOnUse" />
    <filter
       id="c"
       x="-0.079705317"
       width="1.1594106"
       y="-0.048106715"
       height="1.0962134"
       color-interpolation-filters="sRGB">
      <feGaussianBlur
         stdDeviation="0.83376955"
         id="feGaussianBlur8" />
    </filter>
    <filter
       id="e"
       x="-0.077133489"
       width="1.154267"
       y="-0.049094704"
       height="1.0981894"
       color-interpolation-filters="sRGB">
      <feGaussianBlur
         stdDeviation="0.852775"
         id="feGaussianBlur11" />
    </filter>
    <filter
       inkscape:collect="always"
       style="color-interpolation-filters:sRGB"
       id="filter856"
       x="-0.059837829"
       width="1.1196757"
       y="-0.060163052"
       height="1.1203261">
      <feGaussianBlur
         inkscape:collect="always"
         stdDeviation="1.0450197"
         id="feGaussianBlur858" />
    </filter>
    <filter
       inkscape:collect="always"
       style="color-interpolation-filters:sRGB"
       id="filter866"
       x="-0.19443473"
       width="1.3888695"
       y="-0.044180024"
       height="1.08836">
      <feGaussianBlur
         inkscape:collect="always"
         stdDeviation="0.76571346"
         id="feGaussianBlur868" />
    </filter>
  </defs>
  <linearGradient
     id="b"
     gradientUnits="userSpaceOnUse"
     x1="24.323"
     x2="24.16"
     y1="45.29"
     y2="26.219">
    <stop
       offset="0"
       stop-opacity=".047"
       id="stop16" />
    <stop
       offset="1"
       stop-opacity="0"
       id="stop18" />
  </linearGradient>
  <linearGradient
     id="d"
     gradientTransform="matrix(.33461 0 0 .31723 17.53 -10.718)"
     gradientUnits="userSpaceOnUse"
     x1="41.563"
     x2="44.715"
     y1="172.759"
     y2="60.052">
    <stop
       offset="0"
       stop-color="#ddd9d9"
       id="stop21" />
    <stop
       offset="1"
       stop-color="#fefefe"
       id="stop23" />
  </linearGradient>
  <path
     style="opacity:0.53804345;fill:#080808;fill-opacity:1;filter:url(#filter856)"
     d="m 19.226562,2.8554688 c -11.2599995,0 -16.7871089,7.7062502 -16.7871089,17.2812502 v 7.123047 c 0,9.574 5.6431719,17.283203 17.3261719,17.283203 h 7.001953 c 0.77,0 1.498078,-0.0368 2.205078,-0.0918 -0.0028,-0.0092 -0.005,-0.01812 -0.0078,-0.02734 12.969605,-1.16321 15.388672,-11.542984 15.388672,-17.164062 V 20.13672 c 0,-6.036 -2.896688,-17.2792971 -16.804688,-17.2792971 l -3.080078,-0.00195 H 24.2422 Z"
     id="path849"
     inkscape:connector-curvature="0"
     transform="matrix(0.97548386,0,0,0.97548386,0.57359165,0.5810133)" />
  <path
     d="M2.433 26.443v1.668c0 9.575 5.583 17.282 17.146 17.282h6.93c15.133 0 17.837-11.322 17.837-17.282v-1.668c0 5.96-2.704 17.282-17.837 17.282h-6.93c-11.563 0-17.146-7.708-17.146-17.282z"
     fill="url(#b)"
     id="path26" />
  <path
     d="M19.226 2.855c-11.26 0-16.787 7.707-16.787 17.282v7.123c0 9.574 5.643 17.283 17.326 17.283h7.002c.77 0 1.499-.037 2.206-.092-1.85-6.016-2.365-11.377-.973-18.931h-8.541c-.296-7.263 1.27-14.886 5.01-22.665z"
     id="path34"
     fill="url(#f)" />
  <path
     id="path860"
     d="M 24.242,2.856 C 20.54,10.635 18.99,18.258 19.282,25.52 h 8.454 c -1.378,7.554 -0.87,12.916 0.963,18.932"
     inkscape:connector-curvature="0"
     style="opacity:0.25;fill:none;fill-rule:evenodd;stroke:#000000;stroke-opacity:1;filter:url(#filter866)"
     sodipodi:nodetypes="cccc" />
  <path
     d="M24.242 2.856c-3.702 7.779-5.252 15.402-4.96 22.664h8.454c-1.378 7.554-.87 12.916.963 18.932C41.906 43.41 44.353 32.92 44.353 27.26v-7.123c0-6.036-2.897-17.28-16.805-17.28z"
     id="path30"
     fill-rule="evenodd"
     fill="url(#d)" />
  <path
     d="M12.905 14.93V18m19.298-3.07V18M11.011 33.887s4.89 3.874 13.627 1.538c8.206-2.195 10.92-8.198 10.92-8.198"
     stroke-width="1.313"
     fill="none"
     stroke="#000"
     stroke-linecap="round"
     image-rendering="optimizeSpeed"
     id="path36" />
</svg>
