<svg xmlns="http://www.w3.org/2000/svg" width="48" height="48" version="1.1" id="svg38"><defs id="defs22"><style id="style4511"/><style id="style4511-26"/><style id="style4511-9"/><style id="style4552"/><style id="style4511-2"/><clipPath id="clipPath-886807824"/><clipPath id="clipPath-897244418"/><clipPath id="clipPath-721932823"/></defs><style id="style4485" type="text/css"/><path d="M19.765 2.965h8.496c13.907 0 16.804 11.246 16.804 17.282v7.123c0 5.96-2.704 17.282-17.837 17.282h-6.93c-11.562 0-17.146-7.766-17.146-17.282v-7.123c0-9.575 5.47-17.282 16.613-17.282z" id="rect4144" opacity="1" fill="#ff4d41" fill-opacity="1" stroke="#000" stroke-width=".334" stroke-linecap="square" stroke-linejoin="bevel" stroke-miterlimit="4" stroke-dasharray="none" stroke-dashoffset="0" stroke-opacity=".078"/><path id="path1756" d="M23.113 9.808l-3 7-10-1 5.996 6-7 4 8 1-5.996 8 9-3 .996 6 5-5 8 5-3-9 8-1-7-4 5-2-4-1.996 5-9-11 4.996m-4.465 1h2.938c.293 0 .531.238.531.531v7.938a.531.531 0 0 1-.531.531h-2.938a.531.531 0 0 1-.531-.531v-7.938c0-.293.238-.531.531-.531m0 10h2.938c.293 0 .531.238.531.531v2.938a.531.531 0 0 1-.531.531h-2.938a.531.531 0 0 1-.531-.531v-2.938c0-.293.238-.531.531-.531m0 0" fill="#f9f9f9" fill-opacity="1" fill-rule="nonzero" stroke="none"/></svg>