<svg xmlns="http://www.w3.org/2000/svg" xmlns:xlink="http://www.w3.org/1999/xlink" width="48" height="48" version="1.1" id="svg38"><defs id="defs22"><linearGradient id="linearGradient4488"><stop id="stop4490" offset="0" stop-color="#000" stop-opacity=".047"/><stop id="stop4492" offset="1" stop-color="#000" stop-opacity="0"/></linearGradient><style id="style4511"/><style id="style4511-26"/><style id="style4511-9"/><style id="style4552"/><style id="style4511-2"/><linearGradient gradientTransform="translate(-63.205 2.216) scale(.3038)" xlink:href="#linearGradient4488" id="linearGradient4160" x1="288.112" y1="141.785" x2="287.575" y2="79.008" gradientUnits="userSpaceOnUse"/></defs><style id="style4485" type="text/css"/><path d="M2.433 26.443v1.668c0 9.575 5.583 17.282 17.146 17.282h6.93c15.133 0 17.837-11.322 17.837-17.282v-1.668c0 5.96-2.704 17.282-17.837 17.282h-6.93c-11.563 0-17.146-7.708-17.146-17.282z" id="path4147" opacity="1" fill="url(#linearGradient4160)" fill-opacity="1" stroke="none" stroke-width="1.1" stroke-linecap="square" stroke-linejoin="bevel" stroke-miterlimit="4" stroke-dasharray="none" stroke-dashoffset="0" stroke-opacity=".078"/><path d="M19.046 2.965h8.495c13.908 0 16.805 11.246 16.805 17.282v7.123c0 5.96-2.704 17.282-17.837 17.282h-6.93c-11.562 0-17.146-7.708-17.146-17.282v-7.123c0-9.575 5.47-17.282 16.613-17.282z" id="rect4144" opacity="1" fill="#0ba2ff" fill-opacity="1" stroke="#000" stroke-width=".334" stroke-linecap="square" stroke-linejoin="bevel" stroke-miterlimit="4" stroke-dasharray="none" stroke-dashoffset="0" stroke-opacity=".078"/><path d="M15.868 12.467c-1.784 0-3.571.016-3.802.047-.85.114-1.589.779-1.926 1.735-.083.236-.095.334-.121 1.066-.016.443-.039 4.924-.053 9.957l-.027 9.152h1.579l.015-9.89.014-9.89.18-.229c.197-.252.327-.332.646-.4.3-.063 6.615-.064 7.005-.001.38.061.606.136.793.26.089.059.545.51 1.012 1.002.467.492.994 1.017 1.172 1.166.378.317.926.602 1.309.682.592.123 1.068.134 7.105.152l5.995.018v-1.54l-6.12-.02c-4.296-.012-6.207-.03-6.408-.059-.6-.085-.955-.335-1.783-1.262-1.213-1.358-1.803-1.757-2.807-1.901-.215-.03-1.994-.046-3.778-.045zm.678 7.724v1.54h18.712l-.002 3.953c0 2.174-.015 4.283-.032 4.688-.037.87-.092 1.126-.367 1.686a2.276 2.276 0 0 1-1.05 1.08c-.535.276-.84.357-1.505.393-.316.017-4.344.042-8.953.055l-8.38.023v1.54l7.59-.024c7.477-.024 9.838-.052 10.489-.13.479-.056.698-.121 1.147-.337 1.02-.49 1.589-1.043 2.07-2.01.27-.543.366-.86.428-1.416.056-.507.1-3.15.125-7.322l.022-3.719H16.546z" id="path10880" fill="#fff" fill-opacity="1" stroke="none" stroke-width=".007" stroke-miterlimit="4" stroke-dasharray="none" stroke-opacity="1"/></svg>