<svg xmlns="http://www.w3.org/2000/svg" xmlns:xlink="http://www.w3.org/1999/xlink" width="48" height="48" version="1.1" id="svg38"><defs id="defs22"><linearGradient id="linearGradient4488"><stop id="stop4490" offset="0" stop-color="#000" stop-opacity=".047"/><stop id="stop4492" offset="1" stop-color="#000" stop-opacity="0"/></linearGradient><style id="style4511"/><style id="style4511-26"/><style id="style4511-9"/><style id="style4552"/><style id="style4511-2"/><linearGradient xlink:href="#linearGradient4488" id="linearGradient4546" gradientUnits="userSpaceOnUse" gradientTransform="translate(-62.497 1.994) scale(.3038)" x1="288.112" y1="141.785" x2="287.575" y2="79.008"/></defs><style id="style4485" type="text/css"/><path d="M3.141 26.22v1.67c0 9.573 5.583 17.281 17.146 17.281h6.93c15.133 0 17.837-11.322 17.837-17.282v-1.668c0 5.96-2.704 17.282-17.837 17.282h-6.93c-11.563 0-17.146-7.708-17.146-17.282z" id="path4528" opacity="1" fill="url(#linearGradient4546)" fill-opacity="1" stroke="none" stroke-width="1.1" stroke-linecap="square" stroke-linejoin="bevel" stroke-miterlimit="4" stroke-dasharray="none" stroke-dashoffset="0" stroke-opacity=".078"/><path d="M19.754 2.742h8.495c13.908 0 16.805 11.247 16.805 17.282v7.124c0 5.96-2.704 17.282-17.837 17.282h-6.93c-7.018 0-11.833-3.027-14.534-7.213-1.805-2.797-2.612-6.306-2.612-10.07v-7.123c0-9.574 5.47-17.282 16.613-17.282z" id="path4530" opacity="1" fill="#3cb7b5" fill-opacity="1" stroke="#000" stroke-width=".334" stroke-linecap="square" stroke-linejoin="bevel" stroke-miterlimit="4" stroke-dasharray="none" stroke-dashoffset="0" stroke-opacity=".078"/><path d="M34.376 21.345h-2.57v-3.406c0-3.745-3.345-6.679-7.616-6.679h-.163c-4.212 0-7.638 2.996-7.638 6.679v3.406h-2.57c-.71 0-1.285.5-1.285 1.12v12.326c0 .62.575 1.12 1.285 1.12h20.557c.71 0 1.285-.5 1.285-1.12V22.465c0-.62-.575-1.12-1.285-1.12zm-15.418-3.406c0-2.778 2.578-4.438 5.069-4.438h.163c2.481 0 5.047 1.66 5.047 4.438v3.406H18.958z" id="path11" fill="#fff" stroke-width="1.2"/></svg>