<svg xmlns:osb="http://www.openswatchbook.org/uri/2009/osb" xmlns="http://www.w3.org/2000/svg" xmlns:xlink="http://www.w3.org/1999/xlink" width="48" height="48" version="1.1" id="svg38"><defs id="defs22"><linearGradient id="linearGradient4488"><stop id="stop4490" offset="0" stop-color="#000" stop-opacity=".047"/><stop id="stop4492" offset="1" stop-color="#000" stop-opacity="0"/></linearGradient><linearGradient id="linearGradient4154"><stop offset="0" id="stop2" stop-color="#000" stop-opacity="1"/><stop offset="1" id="stop4" stop-color="#000" stop-opacity="0"/></linearGradient><style id="style4511"/><style id="style4511-26"/><style id="style4511-9"/><style id="style4552"/><style id="style4511-2"/><linearGradient xlink:href="#linearGradient4488" id="linearGradient4540" gradientUnits="userSpaceOnUse" gradientTransform="matrix(.30673 0 0 .3038 -63.522 1.994)" x1="288.112" y1="141.785" x2="287.575" y2="79.008"/><linearGradient osb:paint="solid" id="linearGradient5293"><stop id="stop5295" offset="0" stop-color="#9a89c0" stop-opacity="1"/></linearGradient><linearGradient osb:paint="solid" id="linearGradient5251"><stop id="stop5253" offset="0" stop-color="#2f343f" stop-opacity="1"/></linearGradient><style id="style4511-8"/><style id="style4511-26-4"/><style id="style4511-9-8"/><style id="style4552-5"/><style id="style4511-2-5"/><linearGradient gradientTransform="matrix(.17934 0 0 .18443 -39.35 44.605)" xlink:href="#linearGradient945" id="linearGradient955" x1="200" y1="268" x2="200" y2="44" gradientUnits="userSpaceOnUse"/><linearGradient id="linearGradient945"><stop id="stop943" offset="0" stop-color="#e6e6e6" stop-opacity="1"/><stop id="stop941" offset="1" stop-color="#d3d3d3" stop-opacity="1"/></linearGradient><linearGradient gradientTransform="translate(-26.432 -40.432)" xlink:href="#linearGradient1033" id="linearGradient1035" x1="152" y1="100" x2="152" y2="212" gradientUnits="userSpaceOnUse"/><linearGradient id="linearGradient1033"><stop offset="0" id="stop1029" stop-color="#000" stop-opacity="0"/><stop id="stop1037" offset=".5" stop-color="#000" stop-opacity="1"/><stop offset="1" id="stop1031" stop-color="#000" stop-opacity="0"/></linearGradient><filter id="filter1025" x="-.024" width="1.048" y="-.024" height="1.048" color-interpolation-filters="sRGB"><feGaussianBlur stdDeviation="1.5" id="feGaussianBlur1027"/></filter><linearGradient xlink:href="#linearGradient4154" id="linearGradient982" x1="152" y1="124" x2="152" y2="236" gradientUnits="userSpaceOnUse"/><clipPath clipPathUnits="userSpaceOnUse" id="clipPath999-3"><path style="marker:none" d="M152 68c-48.601 0-88 39.399-88 88s39.399 88 88 88 88-39.399 88-88-39.399-88-88-88z" id="path1001-6" color="#000" display="inline" overflow="visible" visibility="visible" opacity="1" fill="#5d5d5d" fill-opacity="1" fill-rule="nonzero" stroke="none" stroke-width="3.826" stroke-linecap="butt" stroke-linejoin="round" stroke-miterlimit="4" stroke-dasharray="none" stroke-dashoffset="0" stroke-opacity="1" enable-background="accumulate"/></clipPath><filter id="filter1003" x="-.06" width="1.12" y="-.06" height="1.12" color-interpolation-filters="sRGB"><feGaussianBlur stdDeviation="4.4" id="feGaussianBlur1005"/></filter></defs><style id="style4485" type="text/css"/><style type="text/css" id="style4485-4"/><g id="g1599"><path d="M2.75 26.22v1.669c0 9.574 5.638 17.282 17.312 17.282h6.998c15.278 0 18.008-11.323 18.008-17.282V26.22c0 5.96-2.73 17.282-18.008 17.282h-6.998c-11.674 0-17.311-7.708-17.311-17.282z" id="path4516" opacity="1" fill="url(#linearGradient4540)" fill-opacity="1" stroke="none" stroke-width="1.105" stroke-linecap="square" stroke-linejoin="bevel" stroke-miterlimit="4" stroke-dasharray="none" stroke-dashoffset="0" stroke-opacity=".078"/><path d="M19.525 2.743H28.1c14.042 0 16.967 11.329 16.967 17.408v7.175c0 6.003-2.73 17.408-18.009 17.408h-6.996c-11.674 0-17.311-7.764-17.311-17.408v-7.175c0-9.644 5.522-17.408 16.773-17.408z" id="path4518" opacity="1" fill="#f2f2f2" fill-opacity="1" stroke="#000" stroke-width=".337" stroke-linecap="square" stroke-linejoin="bevel" stroke-miterlimit="4" stroke-dasharray="none" stroke-dashoffset="0" stroke-opacity=".078"/><g transform="translate(65.591 -1.767)" id="g1425"><g id="g1638" transform="matrix(1.01024 0 0 1.00094 -29.467 -47.938)" stroke-miterlimit="4" stroke-dashoffset="0" stroke-opacity="1"><ellipse ry="16.23" rx="15.782" transform="scale(1 -1)" cy="-73.376" cx="-12.091" id="path4238" style="marker:none" color="#000" display="inline" overflow="visible" visibility="visible" opacity="1" fill="#5d5d5d" fill-opacity="1" fill-rule="nonzero" stroke="none" stroke-width=".696" stroke-linecap="butt" stroke-linejoin="miter" stroke-dasharray="2.08750102,2.08750102" enable-background="accumulate"/><path id="circle1007" d="M-27.873 73.376a15.782 16.23 0 0 1 15.782-16.23A15.782 16.23 0 0 1 3.69 73.376z" style="marker:none" color="#000" display="inline" overflow="visible" visibility="visible" opacity=".05" fill="#000" fill-opacity="1" fill-rule="nonzero" stroke="none" stroke-width=".696" stroke-linecap="butt" stroke-linejoin="miter" stroke-dasharray="2.08750102,2.08750102" enable-background="accumulate"/><path clip-path="url(#clipPath999-3)" id="path962" d="M152 70c-48.601 0-88 39.399-88 88s39.399 88 88 88 88-39.399 88-88-39.399-88-88-88z" style="marker:none" transform="matrix(.17934 0 0 .18443 -39.35 44.605)" color="#000" display="inline" overflow="visible" visibility="visible" opacity=".2" fill="none" fill-opacity="1" fill-rule="nonzero" stroke="url(#linearGradient982)" stroke-width="10" stroke-linecap="butt" stroke-linejoin="round" stroke-dasharray="none" filter="url(#filter1003)" enable-background="accumulate"/><path transform="matrix(.17934 0 0 .18443 -34.61 52.062)" id="path1039" d="M125.568 42.574c-5.394-.06-7.28.14-8.04 6.662l-.288 2.305c-.666 4.23-.793 6.145-4.795 7.181-.268.06-.536.12-.803.184-.063.013-.119.028-.183.04l.008.003c-1.01.244-2.01.514-3 .808l.01-.011c-.166.056-.316.101-.473.15-.15.046-.3.09-.45.137-4.02 1.128-5.085-.468-7.786-3.81l-1.405-1.852c-1.959-2.635-3.37-3.759-4.873-3.881a3.58 3.58 0 0 0-.57 0c-1.344.105-2.817.93-4.848 2.133-4.7 2.645-6.234 3.76-3.63 9.787l.9 2.14c1.656 4.303 2.518 5.968-1.303 9.305l.102-.023a60.985 60.985 0 0 0-2.307 2.308l.022-.101c-3.338 3.82-5.003 2.959-9.305 1.303l-2.14-.903c-1.884-.814-3.288-1.223-4.409-1.258-2.466-.077-3.56 1.657-5.379 4.889-2.749 4.641-3.52 6.375 1.748 10.293l1.852 1.404c3.343 2.702 4.938 3.766 3.81 7.787-.047.15-.09.3-.136.45-.05.156-.092.307-.149.472l.01-.01c-.294.99-.565 1.99-.809 3l-.002-.008c-.012.065-.028.12-.04.184-.064.267-.124.534-.184.803-1.037 4.002-2.952 4.129-7.182 4.795l-2.305.289c-6.521.758-6.722 2.645-6.662 8.039-.06 5.393.14 7.28 6.662 8.039l2.305.289c4.23.666 6.145.793 7.182 4.795.06.268.12.536.183.802.013.064.029.12.041.184l.002-.008c.244 1.01.515 2.01.809 3l-.012-.01c.057.165.102.316.15.473.046.15.09.3.137.449 1.128 4.021-.467 5.085-3.81 7.787l-1.852 1.404c-5.269 3.918-4.497 5.65-1.748 10.291 2.645 4.701 3.76 6.235 9.787 3.631l2.14-.9c4.303-1.657 5.968-2.519 9.306 1.303l-.024-.102a60.97 60.97 0 0 0 2.309 2.307l-.102-.022c3.821 3.338 2.96 5.002 1.303 9.305l-.902 2.14c-2.604 6.028-1.07 7.145 3.63 9.79 4.642 2.748 6.375 3.518 10.293-1.75l1.405-1.852c2.701-3.343 3.765-4.939 7.787-3.81l.449.136c.157.049.307.094.473.15l-.01-.011c.99.294 1.99.565 3 .808l-.008.002c.064.013.12.028.183.041.267.064.535.124.803.184 4.002 1.036 4.13 2.952 4.795 7.182l.289 2.304c.759 6.522 2.645 6.722 8.04 6.662 5.393.06 7.28-.14 8.038-6.662l.29-2.304c.665-4.23.792-6.146 4.794-7.182.268-.06.536-.12.803-.184.063-.013.119-.028.183-.04l-.008-.003c1.01-.243 2.01-.514 3-.808l-.01.012c.166-.057.316-.102.473-.15.15-.047.3-.09.45-.138 4.02-1.128 5.085.468 7.786 3.81l1.405 1.853c3.918 5.268 5.65 4.496 10.29 1.748 4.702-2.645 6.235-3.76 3.632-9.788l-.9-2.14c-1.657-4.303-2.52-5.967 1.302-9.305l-.102.024a60.963 60.963 0 0 0 2.307-2.31l-.021.103c3.337-3.822 5.002-2.96 9.304-1.303l2.14.902c6.028 2.604 7.143 1.07 9.788-3.63 2.749-4.642 3.52-6.376-1.748-10.294l-1.852-1.404c-3.343-2.702-4.938-3.766-3.81-7.787.047-.15.09-.3.137-.45.048-.156.092-.307.148-.472l-.01.01c.294-.99.565-1.99.809-3l.002.008c.012-.065.028-.12.04-.184.064-.266.124-.534.184-.802 1.037-4.002 2.952-4.13 7.182-4.795l2.304-.29c6.522-.758 6.723-2.645 6.663-8.038.06-5.394-.14-7.28-6.663-8.04l-2.304-.289c-4.23-.665-6.145-.792-7.182-4.794-.06-.269-.12-.536-.183-.803-.014-.063-.029-.119-.041-.184l-.002.008a59.65 59.65 0 0 0-.809-3l.012.01c-.057-.165-.102-.316-.15-.472-.047-.15-.09-.3-.137-.45-1.129-4.021.467-5.085 3.81-7.787l1.852-1.404c5.268-3.918 4.496-5.65 1.748-10.291-1.819-3.232-2.914-4.968-5.38-4.89-1.12.034-2.524.445-4.407 1.26l-2.141.9c-4.303 1.656-5.967 2.518-9.305-1.303l.024.101a60.963 60.963 0 0 0-2.309-2.306l.102.021c-3.821-3.337-2.96-5.002-1.303-9.305l.902-2.14c2.604-6.028 1.07-7.142-3.63-9.787-2.321-1.375-3.915-2.255-5.419-2.133-1.503.122-2.916 1.246-4.875 3.88l-1.404 1.852c-2.702 3.343-3.766 4.939-7.787 3.81l-.45-.136c-.156-.049-.306-.092-.472-.148l.01.01c-.99-.294-1.99-.565-3-.809l.008-.002c-.065-.013-.12-.028-.183-.04a59.969 59.969 0 0 0-.803-.184c-4.002-1.037-4.13-2.952-4.795-7.182l-.29-2.305c-.758-6.522-2.644-6.722-8.038-6.662zm-.012 30.994h.012c5.065 0 9.96.875 14.535 2.48a12 12 0 0 0 5.465 6.88 12 12 0 0 0 8.67 1.29c7.203 6.191 12.43 14.704 14.44 24.55a4 4 0 0 1-3.92 4.8h-12.38a4 4 0 0 1-3.833-2.857 23.967 23.967 0 0 0-22.967-17.141 23.96 23.96 0 0 0-5.537.676 4 4 0 0 1-4.409-1.887l-6.18-10.701a4 4 0 0 1 2.19-5.791 43.99 43.99 0 0 1 13.914-2.299zM99.25 83.664a4 4 0 0 1 3.277 1.996l6.18 10.701a4 4 0 0 1-.56 4.752 23.995 23.995 0 0 0-6.579 16.457 23.995 23.995 0 0 0 6.568 16.47 4 4 0 0 1 .56 4.75l-6.161 10.676a4 4 0 0 1-6.115.997 43.998 43.998 0 0 1-14.063-24.74 12 12 0 0 0 3.211-8.155 12 12 0 0 0-3.213-8.15 43.996 43.996 0 0 1 14.057-24.754 4 4 0 0 1 2.838-1zm53.138 37.904h12.328a4 4 0 0 1 3.92 4.8c-2.008 9.84-7.23 18.35-14.427 24.54a12 12 0 0 0-2.924-.303 12 12 0 0 0-5.717 1.604 12 12 0 0 0-5.453 6.861 43.84 43.84 0 0 1-14.563 2.498c-4.73-.019-9.425-.8-13.906-2.314a4 4 0 0 1-2.185-5.79l6.17-10.687a4 4 0 0 1 4.408-1.887 24.02 24.02 0 0 0 5.54.676 23.966 23.966 0 0 0 22.975-17.14 4 4 0 0 1 3.834-2.858z" style="marker:none" color="#000" display="inline" overflow="visible" visibility="visible" opacity=".2" fill="#000" fill-opacity=".714" fill-rule="nonzero" stroke="none" stroke-width="16.078" stroke-linecap="butt" stroke-linejoin="miter" stroke-dasharray="none" filter="url(#filter1025)" enable-background="accumulate"/><path transform="matrix(.17934 0 0 .18443 -34.61 52.062)" style="marker:none" d="M125.568 44.574c-5.394-.06-7.28.14-8.04 6.662l-.288 2.305c-.666 4.23-.793 6.145-4.795 7.181-.268.06-.536.12-.803.184-.063.013-.119.028-.183.04l.008.003c-1.01.244-2.01.514-3 .808l.01-.011c-.166.056-.316.101-.473.15-.15.046-.3.09-.45.137-4.02 1.128-5.085-.468-7.786-3.81l-1.405-1.852c-1.959-2.635-3.37-3.759-4.873-3.881a3.58 3.58 0 0 0-.57 0c-1.344.105-2.817.93-4.848 2.133-4.7 2.645-6.234 3.76-3.63 9.787l.9 2.14c1.656 4.303 2.518 5.968-1.303 9.305l.102-.023a60.985 60.985 0 0 0-2.307 2.308l.022-.101c-3.338 3.82-5.003 2.959-9.305 1.303l-2.14-.903c-1.884-.814-3.288-1.223-4.409-1.258-2.466-.077-3.56 1.657-5.379 4.889-2.749 4.641-3.52 6.375 1.748 10.293l1.852 1.404c3.343 2.702 4.938 3.766 3.81 7.787-.047.15-.09.3-.136.45-.05.156-.092.307-.149.472l.01-.01c-.294.99-.565 1.99-.809 3l-.002-.008c-.012.065-.028.12-.04.184-.064.267-.124.534-.184.803-1.037 4.002-2.952 4.129-7.182 4.795l-2.305.289c-6.521.758-6.722 2.645-6.662 8.039-.06 5.393.14 7.28 6.662 8.039l2.305.289c4.23.666 6.145.793 7.182 4.795.06.268.12.536.183.802.013.064.029.12.041.184l.002-.008c.244 1.01.515 2.01.809 3l-.012-.01c.057.165.102.316.15.473.046.15.09.3.137.449 1.128 4.021-.467 5.085-3.81 7.787l-1.852 1.404c-5.269 3.918-4.497 5.65-1.748 10.291 2.645 4.701 3.76 6.235 9.787 3.631l2.14-.9c4.303-1.657 5.968-2.519 9.306 1.303l-.024-.102a60.97 60.97 0 0 0 2.309 2.307l-.102-.022c3.821 3.338 2.96 5.002 1.303 9.305l-.902 2.14c-2.604 6.028-1.07 7.145 3.63 9.79 4.642 2.748 6.375 3.518 10.293-1.75l1.405-1.852c2.701-3.343 3.765-4.939 7.787-3.81l.449.136c.157.049.307.094.473.15l-.01-.011c.99.294 1.99.565 3 .808l-.008.002c.064.013.12.028.183.041.267.064.535.124.803.184 4.002 1.036 4.13 2.952 4.795 7.182l.289 2.304c.759 6.522 2.645 6.722 8.04 6.662 5.393.06 7.28-.14 8.038-6.662l.29-2.304c.665-4.23.792-6.146 4.794-7.182.268-.06.536-.12.803-.184.063-.013.119-.028.183-.04l-.008-.003c1.01-.243 2.01-.514 3-.808l-.01.012c.166-.057.316-.102.473-.15.15-.047.3-.09.45-.138 4.02-1.128 5.085.468 7.786 3.81l1.405 1.853c3.918 5.268 5.65 4.496 10.29 1.748 4.702-2.645 6.235-3.76 3.632-9.788l-.9-2.14c-1.657-4.303-2.52-5.967 1.302-9.305l-.102.024a60.963 60.963 0 0 0 2.307-2.31l-.021.103c3.337-3.822 5.002-2.96 9.304-1.303l2.14.902c6.028 2.604 7.143 1.07 9.788-3.63 2.749-4.642 3.52-6.376-1.748-10.294l-1.852-1.404c-3.343-2.702-4.938-3.766-3.81-7.787.047-.15.09-.3.137-.45.048-.156.092-.307.148-.472l-.01.01c.294-.99.565-1.99.809-3l.002.008c.012-.065.028-.12.04-.184.064-.266.124-.534.184-.802 1.037-4.002 2.952-4.13 7.182-4.795l2.304-.29c6.522-.758 6.723-2.645 6.663-8.038.06-5.394-.14-7.28-6.663-8.04l-2.304-.289c-4.23-.665-6.145-.792-7.182-4.794-.06-.269-.12-.536-.183-.803-.014-.063-.029-.119-.041-.184l-.002.008a59.65 59.65 0 0 0-.809-3l.012.01c-.057-.165-.102-.316-.15-.472-.047-.15-.09-.3-.137-.45-1.129-4.021.467-5.085 3.81-7.787l1.852-1.404c5.268-3.918 4.496-5.65 1.748-10.291-1.819-3.232-2.914-4.968-5.38-4.89-1.12.034-2.524.445-4.407 1.26l-2.141.9c-4.303 1.656-5.967 2.518-9.305-1.303l.024.101a60.963 60.963 0 0 0-2.309-2.306l.102.021c-3.821-3.337-2.96-5.002-1.303-9.305l.902-2.14c2.604-6.028 1.07-7.142-3.63-9.787-2.321-1.375-3.915-2.255-5.419-2.133-1.503.122-2.916 1.246-4.875 3.88l-1.404 1.852c-2.702 3.343-3.766 4.939-7.787 3.81l-.45-.136c-.156-.049-.306-.092-.472-.148l.01.01c-.99-.294-1.99-.565-3-.809l.008-.002c-.065-.013-.12-.028-.183-.04a59.969 59.969 0 0 0-.803-.184c-4.002-1.037-4.13-2.952-4.795-7.182l-.29-2.305c-.758-6.522-2.644-6.722-8.038-6.662zm-.012 30.994h.012c5.065 0 9.96.875 14.535 2.48a12 12 0 0 0 5.465 6.88 12 12 0 0 0 8.67 1.29c7.203 6.191 12.43 14.704 14.44 24.55a4 4 0 0 1-3.92 4.8h-12.38a4 4 0 0 1-3.833-2.857 23.967 23.967 0 0 0-22.967-17.141 23.96 23.96 0 0 0-5.537.676 4 4 0 0 1-4.409-1.887l-6.18-10.701a4 4 0 0 1 2.19-5.791 43.99 43.99 0 0 1 13.914-2.299zM99.25 85.664a4 4 0 0 1 3.277 1.996l6.18 10.701a4 4 0 0 1-.56 4.752 23.995 23.995 0 0 0-6.579 16.457 23.995 23.995 0 0 0 6.568 16.47 4 4 0 0 1 .56 4.75l-6.161 10.676a4 4 0 0 1-6.115.997 43.998 43.998 0 0 1-14.063-24.74 12 12 0 0 0 3.211-8.155 12 12 0 0 0-3.213-8.15 43.996 43.996 0 0 1 14.057-24.754 4 4 0 0 1 2.838-1zm53.138 37.904h12.328a4 4 0 0 1 3.92 4.8c-2.008 9.84-7.23 18.35-14.427 24.54a12 12 0 0 0-2.924-.303 12 12 0 0 0-5.717 1.604 12 12 0 0 0-5.453 6.861 43.84 43.84 0 0 1-14.563 2.498c-4.73-.019-9.425-.8-13.906-2.314a4 4 0 0 1-2.185-5.79l6.17-10.687a4 4 0 0 1 4.408-1.887 24.02 24.02 0 0 0 5.54.676 23.966 23.966 0 0 0 22.975-17.14 4 4 0 0 1 3.834-2.858z" id="path1021" color="#000" display="inline" overflow="visible" visibility="visible" opacity=".2" fill="url(#linearGradient1035)" fill-opacity="1" fill-rule="nonzero" stroke="none" stroke-width="16.078" stroke-linecap="butt" stroke-linejoin="miter" stroke-dasharray="none" filter="url(#filter1025)" enable-background="accumulate"/><path id="path4356" d="M-12.091 59.545c-.968-.012-1.306.025-1.442 1.228l-.052.425c-.12.78-.142 1.134-.86 1.325a10.91 10.91 0 0 0-.144.034l-.033.007h.002c-.181.045-.36.095-.538.15l.002-.002-.085.027-.08.025c-.722.209-.913-.086-1.397-.702l-.252-.342c-.351-.486-.604-.693-.874-.715a.624.624 0 0 0-.102 0c-.241.019-.506.171-.87.393-.843.488-1.118.693-.65 1.805l.16.395c.298.793.452 1.1-.233 1.716l.018-.004c-.141.138-.28.28-.413.425l.003-.018c-.598.704-.897.545-1.668.24l-.384-.167c-.338-.15-.59-.225-.79-.232-.443-.014-.64.306-.965.902-.493.856-.632 1.176.313 1.898l.332.26c.6.498.886.694.684 1.435l-.025.083c-.009.03-.016.057-.027.087l.002-.002c-.053.183-.101.367-.145.554v-.002l-.008.034-.032.148c-.186.738-.53.762-1.288.885l-.414.053c-1.17.14-1.205.488-1.195 1.482-.01.995.026 1.343 1.195 1.483l.414.053c.758.123 1.102.147 1.288.885l.032.148.008.034v-.002c.044.187.092.371.145.554l-.002-.003.027.088.025.082c.202.742-.084.938-.684 1.437l-.332.259c-.945.722-.806 1.042-.313 1.898.474.867.674 1.15 1.755.67l.384-.167c.771-.305 1.07-.464 1.668.24l-.004-.018c.135.145.273.287.414.425l-.018-.004c.685.615.53.922.234 1.716l-.162.395c-.467 1.111-.192 1.317.651 1.805.832.507 1.143.65 1.846-.323l.252-.341c.484-.617.675-.911 1.396-.703l.08.025.086.028-.002-.002c.177.054.357.104.538.15h-.002l.033.007.144.034c.718.191.74.544.86 1.324l.052.425c.136 1.203.475 1.24 1.442 1.23.967.01 1.305-.027 1.442-1.23l.051-.425c.12-.78.143-1.133.86-1.324l.144-.034.033-.008h-.001c.181-.045.36-.095.538-.149l-.002.002.085-.028.08-.025c.722-.208.912.086 1.397.703l.252.341c.702.972 1.013.83 1.845.323.843-.488 1.118-.694.651-1.805l-.161-.395c-.297-.794-.452-1.1.234-1.716l-.019.004c.142-.138.28-.28.414-.426l-.004.02c.599-.706.897-.547 1.669-.241l.384.166c1.08.48 1.28.198 1.755-.67.493-.855.631-1.175-.314-1.898l-.332-.259c-.6-.498-.885-.694-.683-1.436l.025-.083.026-.087-.002.002c.053-.182.102-.367.145-.553v.001l.008-.034c.012-.049.022-.098.033-.148.186-.738.53-.761 1.288-.884l.413-.053c1.17-.14 1.206-.488 1.195-1.483.01-.995-.025-1.343-1.195-1.483l-.413-.053c-.759-.123-1.102-.146-1.288-.884a3.533 3.533 0 0 0-.033-.148l-.007-.034v.001a11.25 11.25 0 0 0-.146-.553l.002.002-.027-.087-.024-.083c-.202-.742.084-.938.683-1.436l.332-.259c.945-.723.807-1.042.314-1.898-.326-.596-.523-.916-.965-.902-.2.006-.453.082-.79.232l-.384.166c-.772.306-1.07.465-1.669-.24l.004.019a11.094 11.094 0 0 0-.414-.425l.018.004c-.685-.616-.53-.923-.233-1.716l.162-.395c.467-1.112.192-1.317-.651-1.805-.417-.254-.703-.416-.972-.394-.27.023-.523.23-.874.716l-.252.342c-.485.616-.676.91-1.397.702l-.08-.025-.085-.027.002.002a10.485 10.485 0 0 0-.538-.15h.001l-.033-.007a11.072 11.072 0 0 0-.144-.034c-.718-.191-.74-.544-.86-1.324l-.052-.425c-.136-1.203-.474-1.24-1.441-1.23zm-.002 5.716h.002c.908 0 1.786.161 2.606.457a2.152 2.213 0 0 0 .98 1.269 2.152 2.213 0 0 0 1.555.238 8.144 8.144 0 0 1 2.59 4.527c.09.458-.25.886-.703.886h-2.22a.72.72 0 0 1-.688-.527c-.544-1.877-2.214-3.159-4.119-3.161a4.206 4.206 0 0 0-.993.124.71.71 0 0 1-.79-.348l-1.108-1.973a.745.745 0 0 1 .392-1.068 7.692 7.692 0 0 1 2.496-.424zm-4.718 1.862c.244.011.465.15.588.368l1.108 1.973a.754.754 0 0 1-.1.877 4.493 4.493 0 0 0-1.18 3.035 4.494 4.494 0 0 0 1.178 3.038.754.754 0 0 1 .1.876l-1.105 1.969a.706.706 0 0 1-1.097.183 8.173 8.173 0 0 1-2.522-4.563 2.152 2.213 0 0 0 .576-1.503 2.152 2.213 0 0 0-.576-1.504 8.173 8.173 0 0 1 2.52-4.565.705.705 0 0 1 .51-.184zm9.53 6.99h2.21c.454 0 .794.428.704.886a8.145 8.145 0 0 1-2.588 4.525 2.152 2.213 0 0 0-.524-.055 2.152 2.213 0 0 0-1.025.295 2.152 2.213 0 0 0-.978 1.266c-.821.297-1.7.46-2.609.46h-.003a7.694 7.694 0 0 1-2.494-.426.745.745 0 0 1-.392-1.068l1.107-1.971a.71.71 0 0 1 .79-.348c.325.081.66.123.994.124 1.905-.002 3.576-1.283 4.12-3.16a.72.72 0 0 1 .688-.528z" style="marker:none" color="#000" display="inline" overflow="visible" visibility="visible" opacity="1" fill="url(#linearGradient955)" fill-opacity="1" fill-rule="nonzero" stroke="none" stroke-width="2.924" stroke-linecap="butt" stroke-linejoin="miter" stroke-dasharray="none" enable-background="accumulate"/><path id="path4451" d="M-12.091 63.785c-4.414 0-8.11 3.158-9.077 7.395a2.152 2.213 0 0 1 1.327.692 8.173 8.173 0 0 1 2.52-4.565.705.705 0 0 1 1.098.184l1.108 1.973a.754.754 0 0 1-.1.877 4.493 4.493 0 0 0-1.18 3.035 4.494 4.494 0 0 0 1.178 3.038.754.754 0 0 1 .1.876l-1.105 1.969a.706.706 0 0 1-1.097.183 8.173 8.173 0 0 1-2.522-4.563 2.152 2.213 0 0 1-1.327.693c.967 4.236 4.664 7.394 9.077 7.394.935 0 1.838-.143 2.69-.407a2.152 2.213 0 0 1-.081-1.53 7.66 7.66 0 0 1-2.609.461h-.003a7.694 7.694 0 0 1-2.494-.426.745.745 0 0 1-.392-1.068l1.107-1.971a.71.71 0 0 1 .79-.348c.325.081.66.123.994.124 1.905-.002 3.576-1.283 4.12-3.16a.72.72 0 0 1 .688-.528h2.21c.455 0 .794.428.704.886a8.145 8.145 0 0 1-2.588 4.525 2.152 2.213 0 0 1 1.25.835 9.69 9.69 0 0 0 2.94-6.983 9.69 9.69 0 0 0-2.94-6.985 2.152 2.213 0 0 1-1.245.834 8.145 8.145 0 0 1 2.59 4.527c.09.458-.25.886-.703.886h-2.22a.72.72 0 0 1-.688-.527c-.544-1.877-2.214-3.159-4.119-3.161a4.206 4.206 0 0 0-.993.124.71.71 0 0 1-.79-.348l-1.108-1.973a.745.745 0 0 1 .392-1.068 7.692 7.692 0 0 1 2.496-.424h.002c.908 0 1.786.161 2.606.457a2.152 2.213 0 0 1 .083-1.526 9.077 9.077 0 0 0-2.69-.407zm0 6.64a2.87 2.95 0 0 1 2.87 2.95 2.87 2.95 0 0 1-2.87 2.951 2.87 2.95 0 0 1-2.87-2.95 2.87 2.95 0 0 1 2.87-2.951z" style="marker:none" color="#000" display="inline" overflow="visible" visibility="visible" opacity=".1" fill="#000" fill-opacity="1" fill-rule="nonzero" stroke="none" stroke-width=".716" stroke-linecap="butt" stroke-linejoin="miter" stroke-dasharray="2.14770022,2.14770022" enable-background="accumulate"/><path id="circle1245" d="M-7.48 63.965a1.076 1.107 0 0 0-.88.552 1.076 1.107 0 0 0 .394 1.511 1.076 1.107 0 0 0 1.47-.405 1.076 1.107 0 0 0-.394-1.511 1.076 1.107 0 0 0-.59-.147zm-13.937 8.304a1.076 1.107 0 0 0-1.076 1.107 1.076 1.107 0 0 0 1.076 1.106 1.076 1.107 0 0 0 1.076-1.106 1.076 1.107 0 0 0-1.076-1.107zm13.963 8.306a1.076 1.107 0 0 0-.512.148 1.076 1.107 0 0 0-.394 1.511 1.076 1.107 0 0 0 1.47.405 1.076 1.107 0 0 0 .393-1.511 1.076 1.107 0 0 0-.957-.553z" display="inline" opacity="1" fill="#b3b3b3" fill-opacity="1" stroke="none" stroke-width=".546" stroke-linecap="round" stroke-linejoin="round" stroke-dasharray="none" enable-background="new"/></g></g></g></svg>