<svg xmlns="http://www.w3.org/2000/svg" xmlns:xlink="http://www.w3.org/1999/xlink" width="48" height="48" version="1.1" id="svg38"><defs id="defs22"><linearGradient id="linearGradient4488"><stop id="stop4490" offset="0" stop-color="#000" stop-opacity=".047"/><stop id="stop4492" offset="1" stop-color="#000" stop-opacity="0"/></linearGradient><style id="style4511"/><style id="style4511-26"/><style id="style4511-9"/><style id="style4552"/><style id="style4511-2"/><linearGradient xlink:href="#linearGradient4488" id="linearGradient4546" gradientUnits="userSpaceOnUse" gradientTransform="translate(-62.497 1.994) scale(.3038)" x1="288.112" y1="141.785" x2="287.575" y2="79.008"/></defs><style id="style4485" type="text/css"/><path d="M3.141 26.22v1.67c0 9.573 5.583 17.281 17.146 17.281h6.93c15.133 0 17.837-11.322 17.837-17.282v-1.668c0 5.96-2.704 17.282-17.837 17.282h-6.93c-11.563 0-17.146-7.708-17.146-17.282z" id="path4528" opacity="1" fill="url(#linearGradient4546)" fill-opacity="1" stroke="none" stroke-width="1.1" stroke-linecap="square" stroke-linejoin="bevel" stroke-miterlimit="4" stroke-dasharray="none" stroke-dashoffset="0" stroke-opacity=".078"/><path d="M19.755 3.304h8.494c13.907 0 16.803 11.327 16.803 17.406v7.174c0 6.003-2.704 17.407-17.835 17.407h-6.93c-11.561 0-17.144-7.763-17.144-17.407V20.71c0-9.643 5.47-17.406 16.612-17.406z" id="path4530" opacity="1" fill="#008eff" fill-opacity="1" stroke="#000" stroke-width=".335" stroke-linecap="square" stroke-linejoin="bevel" stroke-miterlimit="4" stroke-dasharray="none" stroke-dashoffset="0" stroke-opacity=".078"/><path d="M23.637 24.206c0-.85.497-1.542 1.108-1.542H35.82c.612 0 1.108.691 1.108 1.542 0 .852-.496 1.542-1.108 1.542H24.745c-.611 0-1.108-.69-1.108-1.542z" id="path14594" fill="#fff" fill-rule="evenodd" stroke="none" stroke-width=".118" stroke-miterlimit="4" stroke-dasharray="none"/><path d="M32.418 30.955a11.048 11.048 0 0 1-8.865 4.448c-6.117 0-11.075-4.972-11.075-11.106 0-6.133 4.958-11.105 11.075-11.105 3.623 0 6.84 1.744 8.86 4.442" id="path14596" fill="none" fill-rule="evenodd" stroke="#fff" stroke-width="3.218" stroke-linecap="round" stroke-linejoin="round" stroke-miterlimit="4" stroke-dasharray="none"/></svg>