<svg xmlns="http://www.w3.org/2000/svg" xmlns:xlink="http://www.w3.org/1999/xlink" width="48" height="48" version="1.1" id="svg38"><defs id="defs22"><linearGradient id="linearGradient4477"><stop offset="0" id="stop4479" stop-color="#6a19f2" stop-opacity=".89"/><stop offset="1" id="stop4481" stop-color="#9961f6" stop-opacity=".89"/></linearGradient><linearGradient id="linearGradient4488"><stop id="stop4490" offset="0" stop-color="#000" stop-opacity=".047"/><stop id="stop4492" offset="1" stop-color="#000" stop-opacity="0"/></linearGradient><style id="style4511"/><style id="style4511-26"/><style id="style4511-9"/><style id="style4552"/><style id="style4511-2"/><linearGradient xlink:href="#linearGradient4488" id="linearGradient4546" gradientUnits="userSpaceOnUse" gradientTransform="translate(-62.497 1.994) scale(.3038)" x1="288.112" y1="141.785" x2="287.575" y2="79.008"/><linearGradient xlink:href="#linearGradient4477" id="linearGradient4483" x1="24.691" y1="42.139" x2="22.929" y2="2.732" gradientUnits="userSpaceOnUse" gradientTransform="matrix(.99992 0 0 1.0072 .002 .541)"/><clipPath id="_clipPath_V6dNe6oooqcZQht5KlQwV1ZTiFOej1za"><path id="rect4820" d="M0 0h48v48H0z"/></clipPath></defs><style id="style4485" type="text/css"/><path d="M3.141 26.22v1.67c0 9.573 5.583 17.281 17.146 17.281h6.93c15.133 0 17.837-11.322 17.837-17.282v-1.668c0 5.96-2.704 17.282-17.837 17.282h-6.93c-11.563 0-17.146-7.708-17.146-17.282z" id="path4528" opacity="1" fill="url(#linearGradient4546)" fill-opacity="1" stroke="none" stroke-width="1.1" stroke-linecap="square" stroke-linejoin="bevel" stroke-miterlimit="4" stroke-dasharray="none" stroke-dashoffset="0" stroke-opacity=".078"/><path d="M19.755 3.304h8.494c13.907 0 16.803 11.327 16.803 17.406v7.174c0 6.003-2.704 17.407-17.835 17.407h-6.93c-11.561 0-17.144-7.763-17.144-17.407V20.71c0-9.643 5.47-17.406 16.612-17.406z" id="path4530" opacity="1" fill="url(#linearGradient4483)" fill-opacity="1" stroke="#000" stroke-width=".335" stroke-linecap="square" stroke-linejoin="bevel" stroke-miterlimit="4" stroke-dasharray="none" stroke-dashoffset="0" stroke-opacity=".078"/><path id="path4825" d="M24.532 10.829a1.17 1.17 0 0 0-1.032.584 1.164 1.164 0 0 0 0 1.187c.212.368.608.591 1.032.584A11.17 11.17 0 0 1 35.718 24.37a11.17 11.17 0 0 1-11.186 11.186A11.17 11.17 0 0 1 13.346 24.37c0-3.224 1.36-6.115 3.533-8.155v3.445a1.17 1.17 0 0 0 .584 1.033c.366.216.82.216 1.187 0 .367-.213.591-.608.584-1.033v-5.887c0-.65-.528-1.178-1.178-1.178h-5.887a1.172 1.172 0 0 0-1.033.584 1.168 1.168 0 0 0 0 1.187c.213.368.608.592 1.033.584h2.642a13.51 13.51 0 0 0-3.82 9.42c0 7.466 6.076 13.541 13.541 13.541 7.465 0 13.541-6.075 13.541-13.541 0-7.465-6.076-13.541-13.541-13.541z" style="isolation:isolate" fill="#fff"/></svg>