<svg xmlns="http://www.w3.org/2000/svg" xmlns:xlink="http://www.w3.org/1999/xlink" width="48" height="48" version="1.1" id="svg38"><defs id="defs22"><linearGradient id="linearGradient4488"><stop id="stop4490" offset="0" stop-color="#000" stop-opacity=".047"/><stop id="stop4492" offset="1" stop-color="#000" stop-opacity="0"/></linearGradient><style id="style4511"/><style id="style4511-26"/><style id="style4511-9"/><style id="style4552"/><style id="style4511-2"/><linearGradient xlink:href="#linearGradient4488" id="linearGradient4477" gradientUnits="userSpaceOnUse" gradientTransform="translate(-62.724 2.216) scale(.3038)" x1="288.112" y1="141.785" x2="287.575" y2="79.008"/></defs><style id="style4485" type="text/css"/><path id="path4473" d="M2.915 26.443v1.668c0 9.575 5.583 17.282 17.145 17.282h6.93c15.133 0 17.837-11.322 17.837-17.282v-1.668c0 5.96-2.704 17.282-17.836 17.282h-6.93c-11.563 0-17.146-7.708-17.146-17.282z" opacity="1" fill="url(#linearGradient4477)" fill-opacity="1" stroke="none" stroke-width="1.1" stroke-linecap="square" stroke-linejoin="bevel" stroke-miterlimit="4" stroke-dasharray="none" stroke-dashoffset="0" stroke-opacity=".078"/><path id="path4475" d="M19.528 2.965h8.495c13.908 0 16.804 11.246 16.804 17.282v7.123c0 5.96-2.704 17.282-17.836 17.282h-6.93c-11.563 0-17.146-7.708-17.146-17.282v-7.123c0-9.575 5.47-17.282 16.613-17.282z" opacity="1" fill="#0d88e6" fill-opacity="1" stroke="#000" stroke-width=".334" stroke-linecap="square" stroke-linejoin="bevel" stroke-miterlimit="4" stroke-dasharray="none" stroke-dashoffset="0" stroke-opacity=".078"/><path d="M23.87 10.063c-7.598 0-13.744 6.147-13.744 13.745 0 7.598 6.146 13.745 13.745 13.745 7.599 0 13.745-6.147 13.745-13.745 0-7.598-6.146-13.745-13.745-13.745zM20.7 19.58v2.115h6.344V19.58l3.777 2.115 3.624 2.114-3.624 2.115-3.777 2.114v-2.114H20.7v2.114l-3.777-2.114-3.624-2.115 3.624-2.114L20.7 19.58z" id="path4866-5-1" fill="#fefefe" fill-opacity="1"/></svg>