<svg xmlns="http://www.w3.org/2000/svg" xmlns:xlink="http://www.w3.org/1999/xlink" width="48" height="48" version="1.1" id="svg38"><defs id="defs22"><linearGradient id="linearGradient4488"><stop id="stop4490" offset="0" stop-color="#000" stop-opacity=".047"/><stop id="stop4492" offset="1" stop-color="#000" stop-opacity="0"/></linearGradient><style id="style4511"/><style id="style4511-26"/><style id="style4511-9"/><linearGradient id="linearGradient4303"><stop offset="0" id="stop8-3" stop-color="#197cf1" stop-opacity="1"/><stop offset="1" id="stop10-6" stop-color="#21c9fb" stop-opacity="1"/></linearGradient><style id="style4552"/><style id="style4511-2"/><linearGradient xlink:href="#linearGradient4488" id="linearGradient4546" gradientUnits="userSpaceOnUse" gradientTransform="translate(-62.497 1.994) scale(.3038)" x1="288.112" y1="141.785" x2="287.575" y2="79.008"/><linearGradient xlink:href="#linearGradient4303" id="linearGradient1164" x1="2.974" y1="23.586" x2="45.221" y2="23.586" gradientUnits="userSpaceOnUse"/></defs><style id="style4485" type="text/css"/><path d="M3.141 26.22v1.67c0 9.573 5.583 17.281 17.146 17.281h6.93c15.133 0 17.837-11.322 17.837-17.282v-1.668c0 5.96-2.704 17.282-17.837 17.282h-6.93c-11.563 0-17.146-7.708-17.146-17.282z" id="path4528" opacity="1" fill="url(#linearGradient4546)" fill-opacity="1" stroke="none" stroke-width="1.1" stroke-linecap="square" stroke-linejoin="bevel" stroke-miterlimit="4" stroke-dasharray="none" stroke-dashoffset="0" stroke-opacity=".078"/><path d="M19.754 2.742h8.495c13.908 0 16.805 11.247 16.805 17.282v7.124c0 5.96-2.704 17.282-17.837 17.282h-6.93c-11.562 0-17.146-7.708-17.146-17.282v-7.124c0-9.574 5.47-17.282 16.613-17.282z" id="path4530" opacity="1" fill="url(#linearGradient1164)" fill-opacity="1" stroke="#000" stroke-width=".334" stroke-linecap="square" stroke-linejoin="bevel" stroke-miterlimit="4" stroke-dasharray="none" stroke-dashoffset="0" stroke-opacity=".078"/><path d="M18.847 8.17l-3.491 3.447h-5.237v5.172l-3.492 3.448 3.492 3.448v5.172h5.237l3.491 3.448 3.492-3.448h5.237v-5.172l3.492-3.448-3.492-3.448v-5.172H22.34z" id="path344" fill="#ff8a47" stroke-width=".867"/><ellipse id="circle4752-7-5" stroke-miterlimit="10" cy="19.754" cx="18.47" rx="6.594" ry="6.505" opacity="1" fill="#ffcd2e" fill-opacity="1" stroke="#ffcd2e" stroke-width="1.859" stroke-opacity="1"/><path id="path4615-3" d="M33.892 22.347a7.602 7.602 0 0 0-7.454-6.117 7.608 7.608 0 0 0-6.74 4.09 6.084 6.084 0 0 0-5.423 6.046 6.08 6.08 0 0 0 6.081 6.081h13.177a5.07 5.07 0 0 0 5.067-5.068c0-2.676-2.083-4.844-4.708-5.032z" opacity="1" fill="#fff" fill-opacity="1" stroke="none" stroke-width="1" stroke-miterlimit="4" stroke-dasharray="none" stroke-opacity="1"/></svg>