<svg xmlns:osb="http://www.openswatchbook.org/uri/2009/osb" xmlns="http://www.w3.org/2000/svg" width="48" height="48" version="1.1" id="svg38"><defs id="defs22"><style id="style4511"/><style id="style4511-26"/><style id="style4511-9"/><style id="style4552"/><style id="style4511-2"/><linearGradient osb:paint="solid" id="linearGradient5293"><stop id="stop5295" offset="0" stop-color="#9a89c0" stop-opacity="1"/></linearGradient></defs><style id="style4485" type="text/css"/><path id="path4518" d="M19.363 2.742h8.495c13.908 0 16.804 11.247 16.804 17.282v7.124c0 5.96-2.704 17.282-17.836 17.282h-6.93C8.333 44.43 2.75 36.722 2.75 27.148v-7.124c0-9.574 5.47-17.282 16.613-17.282z" opacity="1" fill="#e6e6e6" fill-opacity="1" stroke="#000" stroke-width=".334" stroke-linecap="square" stroke-linejoin="bevel" stroke-miterlimit="4" stroke-dasharray="none" stroke-dashoffset="0" stroke-opacity=".078"/><g id="g1252" transform="matrix(.93358 0 0 .93463 2.98 1.51)"><path id="path1214" d="M36.713 19.619c-1.052-.104-1.542-.446-2.338-1.579-.725-.994-1.848-2.495-2.883-3.968 1.37-1.881 1.894-2.596 2.139-2.912.793-.965 1.049-1.194 2.226-1.331l.509-.052V8.71h-5v1.064l.307.054c.492.061.636.122.724.16-.125.479-1.121 1.892-1.778 2.827-.724-.988-1.422-1.925-1.957-2.795-.025-.037-.055-.07-.074-.099.137-.027.17-.059.51-.093l.268-.044V8.71h-5v1.067l.623.052c1.074.125 1.242.238 1.988 1.318l.227.262c.39.488 1.326 1.826 2.257 3.197-2.115 3.089-2.72 3.902-2.905 4.076-.501.552-.87.857-1.754.963l-.185.065h-.381l-.114.3a4.925 4.925 0 0 1-.913 1.593c-.442.511-1.337.5-2.244.5-1.501 0-1.6-.01-1.6-1.202V17.71h1.34c1.25 0 1.326.271 1.545 1.331l.084.669h1.032v-4.633l1.074-.17-.023-1.18c-.056-.784-.051-1.524-.051-1.992v-.025H16.93c-.078-1-.153-2.085-.123-2.784l.02-.611-1.068-.121-.161.253c-.168.228-.168.263-.443.263H7.899c-.176 0-.342-.064-.401-.087-.047-.018-.103-.35-.141-.415l-.144-.498H6.156l-.017.702c-.043 1.238-.105 2.543-.195 3.433l-.056.865h1.218l.104-.719c.487-1.705.55-2.281 2.652-2.281h.504v8.626c0 1.171-.037 1.192-1.488 1.266l-.512.023v1.085h6v-1.086l-.477-.022c-1.522-.074-1.523-.096-1.523-1.266V9.71h1.15c1.125 0 1.85.379 1.85 1.544v1.21l.657.022c1.14.056 1.343.057 1.343 1.429v7.059c0 1.188-.091 1.211-1.436 1.282l-.564.024v1.43h9.283l.09-.486c.065-.273.169-.864.278-1.36.078-.354.158-1.154.23-1.154h4.119v-1.069l-.458-.039c-.405-.035-.606-.081-.702-.114a3.59 3.59 0 0 1 .082-.179l.12-.203c.546-.926 1.155-1.959 1.975-3.212.996 1.359 2.059 2.869 2.448 3.478.027.053.046.094.06.124-.093.033-.5.08-.866.126l-.66.054v1.034h6v-1.046zM22.34 14.71l-.087.697c-.201.898-.266 1.303-1.547 1.303h-1.34v-4.037c0-.005-.264.037-.262.037h1.692c1.929 0 2.08.212 2.41 1.811l.073.189z" fill="#231815"/><circle id="circle1216" r="8" cy="32.71" cx="30.366" fill="#dcdddd"/><path id="path1218" d="M35.643 34.554l-1.426-.809c.089-.332.152-.674.152-1.033 0-.338-.055-.661-.133-.974l1.438-.784a.5.5 0 0 0 .199-.678l-.48-.878a.5.5 0 0 0-.677-.199l-1.437.784a3.98 3.98 0 0 0-1.912-1.129V27.21a.5.5 0 0 0-.5-.5h-1a.5.5 0 0 0-.5.5v1.644a3.978 3.978 0 0 0-1.867 1.079l-1.423-.807a.501.501 0 0 0-.682.188l-.493.87a.501.501 0 0 0 .188.682l1.432.812a3.969 3.969 0 0 0-.152 1.034c0 .336.054.657.132.968l-1.441.786a.5.5 0 0 0-.2.678l.48.878a.5.5 0 0 0 .678.199l1.438-.785a3.978 3.978 0 0 0 1.91 1.132v1.64a.5.5 0 0 0 .5.5h1a.5.5 0 0 0 .5-.5v-1.639a3.986 3.986 0 0 0 1.874-1.082l1.417.804c.24.136.545.052.682-.188l.493-.87a.5.5 0 0 0-.19-.679zm-5.274.158a2 2 0 1 1-.001-3.999 2 2 0 0 1 0 3.999z" fill="#80b60c"/></g></svg>