<svg xmlns:osb="http://www.openswatchbook.org/uri/2009/osb" xmlns="http://www.w3.org/2000/svg" width="48" height="48" version="1.1" id="svg38"><defs id="defs22"><style id="style4511"/><style id="style4511-26"/><style id="style4511-9"/><style id="style4552"/><style id="style4511-2"/><linearGradient osb:paint="solid" id="linearGradient5293"><stop id="stop5295" offset="0" stop-color="#9a89c0" stop-opacity="1"/></linearGradient></defs><style id="style4485" type="text/css"/><path id="path4518" d="M19.363 2.742h8.495c13.908 0 16.804 11.247 16.804 17.282v7.124c0 5.96-2.704 17.282-17.836 17.282h-6.93C8.333 44.43 2.75 36.722 2.75 27.148v-7.124c0-9.574 5.47-17.282 16.613-17.282z" opacity="1" fill="#333" fill-opacity="1" stroke="#000" stroke-width=".334" stroke-linecap="square" stroke-linejoin="bevel" stroke-miterlimit="4" stroke-dasharray="none" stroke-dashoffset="0" stroke-opacity=".078"/><g id="g1466" transform="matrix(.88577 0 0 .90689 55.5 6.302)" fill="#fff" fill-opacity="1" stroke="none"><g transform="matrix(.06464 0 0 .06214 -54.11 .974)" id="g4340" fill-rule="nonzero"><path d="M198.475 174.714H14.876l-5.382 70.683h5.69c4.088-52.955 8.669-62.24 57.927-62.24h17.563c6.1.965 6.1 4.889 6.1 12.201v174.047c0 11.627-.965 15.078-27.772 15.078h-9.058v7.703h93.545v-7.703h-9.059c-26.395 0-27.36-3.533-27.36-15.078V195.358c0-7.066 0-10.825 5.771-12.201h17.42c48.62 0 53.51 9.223 57.7 62.24h5.546" id="path4262"/><path d="M358.06 381.155h-5.69c-6.983 47.43-11.153 73.189-67.087 73.189H241.16c-12.674 0-13.25-1.602-13.25-12.592v-89.396h29.93c30.01 0 32.907 11.072 32.907 38.043h5.135v-83.131h-5.135c0 26.478-2.897 37.385-32.908 37.385h-29.928v-79.27c0-10.742.554-12.365 13.249-12.365h43.486c49.196 0 54.968 19.658 59.385 61.83h5.772l-7.62-70.683H181.137v8.832c22.554 0 26.149 0 26.149 14.359v172.506c0 14.359-3.615 14.359-26.15 14.359v7.703h165.359" id="path4264"/><path d="M443.739 271.238l47.019-68.361c4.724-6.656 14.358-20.46 40.446-20.87v-7.704h-58.481v7.704c10.188.965 12.756 7.374 12.756 12.51 0 3.861-1.602 6.429-3.862 9.55l-41.966 61.214-47.02-69.163c-2.238-3.533-2.567-4.498-2.567-5.464 0-2.896 3.451-8.34 14.05-8.668v-7.703h-68.053v7.703c17.501 0 23.191.637 30.175 10.6l61.378 90.587-55.36 81.282c-13.639 19.822-34.262 20.213-40.363 20.213v7.703h58.4v-7.703c-9.8-.966-12.675-7.375-12.675-12.51 0-4.17 1.602-6.43 3.204-8.668l50.881-74.627 55.277 81.693c2.486 3.533 2.486 4.498 2.486 5.464 0 2.567-2.814 8.031-13.968 8.668v7.785h68.053v-7.785c-20.377 0-23.581-1.52-29.846-10.6" id="path4266"/></g><ellipse ry="4.017" rx="20.157" cy="28.469" cx="-35.182" id="path4345" opacity=".199" stroke-width=".089" stroke-linecap="round" stroke-linejoin="round" stroke-miterlimit="4" stroke-dasharray="none" stroke-dashoffset="0" stroke-opacity="1"/><path id="path4352" d="M-39.107-4.053c-3.932.24-7.737.944-10.933 2.112l-5.25 30.135c.709-2.09 9.44-3.743 20.108-3.743 8.505.002 16.09 1.068 18.956 2.664zm-16.184 32.247a.853.853 0 0 0-.048.275z" opacity=".101" fill-rule="nonzero" stroke-width=".089"/></g></svg>