<svg xmlns:osb="http://www.openswatchbook.org/uri/2009/osb" xmlns="http://www.w3.org/2000/svg" xmlns:xlink="http://www.w3.org/1999/xlink" width="48" height="48" version="1.1" id="svg38"><defs id="defs22"><linearGradient id="linearGradient4488"><stop id="stop4490" offset="0" stop-color="#000" stop-opacity=".047"/><stop id="stop4492" offset="1" stop-color="#000" stop-opacity="0"/></linearGradient><style id="style4511"/><style id="style4511-26"/><style id="style4511-9"/><style id="style4552"/><linearGradient id="a-36" y1="543.8" y2="503.8" x2="0" gradientUnits="userSpaceOnUse"><stop stop-color="#2a2c2f" id="stop2-7"/><stop offset="1" stop-color="#424649" id="stop4-53"/></linearGradient><style id="style4511-2"/><linearGradient xlink:href="#linearGradient4488" id="linearGradient4540" gradientUnits="userSpaceOnUse" gradientTransform="translate(-62.889 1.994) scale(.3038)" x1="288.112" y1="141.785" x2="287.575" y2="79.008"/><linearGradient osb:paint="solid" id="linearGradient5293"><stop id="stop5295" offset="0" stop-color="#9a89c0" stop-opacity="1"/></linearGradient><linearGradient id="linearGradient936"><stop id="stop932" offset="0" stop-color="#ff0038" stop-opacity="1"/><stop offset=".5" id="stop940" stop-color="#ff6400" stop-opacity=".992"/><stop id="stop942" offset=".75" stop-color="#cbc019" stop-opacity=".988"/><stop offset=".875" id="stop944" stop-color="#0ce3e5" stop-opacity=".988"/><stop id="stop946" offset=".938" stop-color="#067ef2" stop-opacity=".988"/><stop id="stop934" offset="1" stop-color="#001aff" stop-opacity=".988"/></linearGradient><linearGradient id="linearGradient930"><stop id="stop926" offset="0" stop-color="#191313" stop-opacity="1"/><stop id="stop928" offset="1" stop-color="#191313" stop-opacity="0"/></linearGradient><linearGradient xlink:href="#linearGradient4221" id="linearGradient4227-3" x1="29.625" y1="43.125" x2="29.625" y2="15.25" gradientUnits="userSpaceOnUse" gradientTransform="matrix(.82441 0 0 .70828 -.571 5.352)"/><linearGradient id="linearGradient4221"><stop offset="0" id="stop4223" stop-color="#c9795c" stop-opacity="1"/><stop offset="1" id="stop4225" stop-color="#fcd470" stop-opacity="1"/></linearGradient><radialGradient gradientUnits="userSpaceOnUse" gradientTransform="matrix(.01123 0 0 .29875 -12.482 -50.88)" r="32.342" fy="255.003" fx="-23.531" cy="255.003" cx="-23.531" id="radialGradient932" xlink:href="#linearGradient930"/><linearGradient gradientUnits="userSpaceOnUse" y2="275.833" x2="31.75" y1="248.052" x1="31.75" id="linearGradient938" xlink:href="#linearGradient936" gradientTransform="matrix(.60066 0 0 .68462 5.726 -154.806)"/><linearGradient xlink:href="#a-36" id="linearGradient1457" x1="2.583" y1="23.586" x2="44.83" y2="23.586" gradientUnits="userSpaceOnUse"/></defs><style id="style4485" type="text/css"/><g id="g1297" transform="matrix(1.01707 0 0 1.01351 -.045 -.036)"><path d="M2.75 26.22v1.67c0 9.573 5.583 17.281 17.146 17.281h6.93c15.132 0 17.836-11.322 17.836-17.282v-1.668c0 5.96-2.704 17.282-17.836 17.282h-6.93C8.333 43.503 2.75 35.795 2.75 26.22z" id="path4516" opacity="1" fill="url(#linearGradient4540)" fill-opacity="1" stroke="none" stroke-width="1.1" stroke-linecap="square" stroke-linejoin="bevel" stroke-miterlimit="4" stroke-dasharray="none" stroke-dashoffset="0" stroke-opacity=".078"/><path d="M19.363 2.742h8.495c13.908 0 16.804 11.247 16.804 17.282v7.124c0 5.96-2.704 17.282-17.836 17.282h-6.93C8.333 44.43 2.75 36.722 2.75 27.148v-7.124c0-9.574 5.47-17.282 16.613-17.282z" id="path4518" opacity="1" fill="url(#linearGradient1457)" fill-opacity="1" stroke="#000" stroke-width=".334" stroke-linecap="square" stroke-linejoin="bevel" stroke-miterlimit="4" stroke-dasharray="none" stroke-dashoffset="0" stroke-opacity=".078"/><path id="path4213-9" d="M2.972 30.296h8.893s2.179-.403 2.179-1.9c0 0 .455 1.448 2.851 1.448 0 0 1.621.026 1.639 1.616.455.185 1.12.057 1.12.057 2.052-6.179.443-12.903 1.045-12.963.616-.06 0 8.682 1.46 15.725.023-.065 1.143.035 1.167-.029 1.084-2.969.537-4.607 2.664-4.109 0 0 3.963.656 4.662-1.978 0 0 .935-1.797 1.966-1.797 1.48 0 2.406 2.466 2.406 2.466s.93 1.398 2.283 1.398c1.353 0 2.196-1.157 2.196-1.157s.289-.915.493-.915c.36 0 .873.645 1.65 1.319 0 0 1.295.942 2.616.942" opacity=".15" fill="none" fill-rule="evenodd" stroke="#000" stroke-width=".37" stroke-linecap="butt" stroke-linejoin="round" stroke-miterlimit="4" stroke-dasharray="none" stroke-opacity="1"/><g transform="translate(-1.277 .26)" id="g644" fill-opacity="1" stroke-width=".068"><path d="M24.047 37.194c-1.103-.197-2.05-.8-2.764-1.758-1.299-1.745-1.438-4.211-.335-5.935l.316-.495V21.2c0-7.589.004-7.819.128-8.269.343-1.252 1.172-2.23 2.262-2.672.625-.252 1.597-.26 2.212-.017.863.34 1.57 1.049 1.988 1.989.391.88.376.525.376 9.005v7.753l.253.374c.527.778.793 1.73.796 2.845.005 2.266-1.444 4.37-3.356 4.876-.548.145-1.4.195-1.876.11zm1.914-2.356c1.235-.696 1.798-2.393 1.256-3.788-.072-.187-.29-.53-.484-.761l-.353-.421-.017-8.154-.018-8.153-.15-.381c-.33-.829-1.017-1.237-1.762-1.047-.464.118-.825.43-1.042.899l-.177.383-.017 8.2-.017 8.2-.31.365c-.572.677-.858 1.656-.715 2.445.17.929.684 1.76 1.333 2.155.516.313.78.377 1.44.348.494-.022.62-.057 1.033-.29zm-1.757-.55c-.844-.293-1.369-1.09-1.372-2.08-.002-.628.175-1.019.701-1.544l.35-.35v-7.74l.002-7.739h1.789l.001 7.776.002 7.776.258.208c.142.115.363.388.491.608.291.5.35 1.093.172 1.708-.157.539-.698 1.15-1.17 1.321-.353.128-.94.155-1.224.056z" id="path1581" fill="#ccf4ff"/><path id="path1598" d="M24.204 34.288c-.844-.293-1.369-1.09-1.372-2.08-.002-.628.175-1.019.701-1.544l.35-.35.002-15.479h1.789l.003 15.552.258.208c.142.115.363.388.492.608.29.5.35 1.093.17 1.708-.156.539-.697 1.15-1.17 1.321-.352.128-.94.155-1.223.056z" fill="url(#linearGradient938)"/></g><path d="M3.139 31.072h8.604s2.116.033 2.116-3.149c0 0 .47 2.658 3.093 2.658 0 0 2.229.24 2.229 1.914 1.482-4.751 1.006-15.987 1.623-15.987.616 0 .703 9.141 1.966 18.946.77-2.47.567-4.87 2.885-4.648 0 0 3.736 1.085 4.431-1.77 0 0 .947-2.225 2.59-2.225 1.642 0 2.563 2.202 2.563 2.202s.754 2.003 2.1 2.003 1.739-1.45 1.739-1.45.219-.796.901-.796c.683 0 .954.553 1.727 1.284 0 0 1.185 1.15 2.498 1.15" id="path4213" fill="url(#radialGradient932)" fill-opacity="1" fill-rule="evenodd" stroke="url(#linearGradient4227-3)" stroke-width=".388" stroke-linecap="butt" stroke-linejoin="round" stroke-miterlimit="4" stroke-dasharray="none" stroke-opacity="1"/></g></svg>