<svg xmlns="http://www.w3.org/2000/svg" xmlns:xlink="http://www.w3.org/1999/xlink" width="48" height="48" version="1.1" id="svg38"><defs id="defs22"><style id="style4511"/><style id="style4511-26"/><linearGradient id="linearGradient14664"><stop offset="0" id="stop14666" stop-color="#fff" stop-opacity="1"/><stop offset="1" id="stop14668" stop-color="#eeeeec" stop-opacity="1"/></linearGradient><style id="style4511-9"/><style id="style4552"/><style id="style4511-2"/><linearGradient id="linearGradient3650-7-9"><stop id="stop4366" offset="0" stop-color="#5884f4" stop-opacity="1"/><stop offset="1" id="stop4368" stop-color="#80a3fa" stop-opacity="1"/></linearGradient><linearGradient xlink:href="#linearGradient14664" id="linearGradient1581" x1="2.394" y1="31.544" x2="44.384" y2="31.544" gradientUnits="userSpaceOnUse" gradientTransform="matrix(.99999 0 0 1.00422 .53 -.012)"/><linearGradient xlink:href="#linearGradient3650-7-9" id="linearGradient1589" x1="2.266" y1="23.808" x2="44.513" y2="23.808" gradientUnits="userSpaceOnUse" gradientTransform="matrix(.99999 0 0 1.00422 .53 -.012)"/></defs><style id="style4485" type="text/css"/><g id="g1367"><path id="rect4144" d="M19.577 2.965h8.495c13.907 0 16.804 11.294 16.804 17.355v7.153c0 5.985-2.704 17.355-17.836 17.355h-6.93c-11.563 0-17.146-7.74-17.146-17.355V20.32c0-9.615 5.47-17.355 16.613-17.355z" opacity="1" fill="url(#linearGradient1589)" fill-opacity="1" stroke="#000" stroke-width=".335" stroke-linecap="square" stroke-linejoin="bevel" stroke-miterlimit="4" stroke-dasharray="none" stroke-dashoffset="0" stroke-opacity=".078"/><path id="path4163" d="M12.407 11.477c-1.334-.014-2.23.238-2.691.704-.483.486-.731 1.282-.731 2.388v19.584h29.87V14.57c0-1.106-.248-1.902-.731-2.388-.46-.466-1.37-.704-2.692-.704H17.721z" style="line-height:125%;-inkscape-font-specification:Ubuntu;text-align:center" font-style="normal" font-variant="normal" font-weight="400" font-stretch="normal" font-size="15" font-family="Ubuntu" letter-spacing="0" word-spacing="0" writing-mode="lr-tb" text-anchor="middle" display="inline" fill="#faf8cc" fill-opacity="1" stroke="none" stroke-width=".171"/><path id="path14977" d="M14.959 16.516v1.26H32.88v-1.26zm0 3.78v1.259h8.96v-1.26z" style="marker:none" color="#000" display="inline" overflow="visible" visibility="visible" opacity=".5" fill="#666" fill-opacity=".996" fill-rule="nonzero" stroke="none" stroke-width=".772"/><path id="path1008" d="M12.407 11.476c-1.334-.014-2.231.252-2.691.718-.484.485-.731 1.281-.731 2.387v.315c0-1.106.247-1.902.73-2.387.46-.466 1.358-.732 2.692-.718h23.025c1.335 0 2.232.252 2.692.718.483.485.73 1.281.73 2.387v-.315c0-1.106-.247-1.902-.73-2.387-.46-.466-1.357-.718-2.692-.718H18.467z" style="line-height:125%;-inkscape-font-specification:Ubuntu;text-align:center" font-style="normal" font-variant="normal" font-weight="400" font-stretch="normal" font-size="15" font-family="Ubuntu" letter-spacing="0" word-spacing="0" writing-mode="lr-tb" text-anchor="middle" display="inline" fill="#fff" fill-opacity="1" stroke="none" stroke-width=".171"/><path d="M3.035 18.509l-.07.626-.013.674-.01.689-.007.677.02.673-.01.678-.01.677-.01.677.058 5.11c.06 1.719.566 3.646.872 4.788.189.66.45 1.461.68 1.956.255.553.565 1.251.84 1.658.177.32.409.638.62.968.214.342.435.51.62.774.26.324.392.464.625.703.23.259.46.477.683.695.22.24.434.454.698.65.245.19.502.396.854.646.277.187.627.426 1.008.631.318.19.702.406 1.14.63.42.088.937.45 1.41.592.442.18 1.005.386 1.546.512.89.225 2.282.63 3.836.629l11.045-.005c1.493 0 2.115-.247 3.364-.585.652-.195 1.254-.367 1.753-.557a9.408 9.408 0 0 0 1.408-.579c.425-.21.847-.44 1.278-.687.376-.197.673-.425.978-.636.337-.25.585-.41.842-.63.26-.195.48-.378.733-.627.243-.226.434-.389.601-.573.214-.24.319-.375.515-.605.197-.237.306-.38.477-.633.218-.28.285-.296.49-.66.239-.334.775-1.237 1.047-1.765.32-.678.73-1.563.973-2.397.244-.851.738-2.45.831-4.15l.164-2.979-.008-2.54-.007-2.546-.051-2.48-20.959 10.417z" id="path17654" display="inline" opacity="1" fill="url(#linearGradient1581)" fill-opacity="1" fill-rule="evenodd" stroke="none" stroke-width=".158" stroke-linecap="butt" stroke-linejoin="miter" stroke-opacity="1"/><path style="marker:none" d="M3.41 27.367c.013.47.008 1.025.031 1.457.032.598.074 1.16.128 1.688.054.529.12 1.023.199 1.486.056.327.128.619.198.914l.591.286v-5.276z" id="path17771" color="#000" display="inline" overflow="visible" visibility="visible" opacity="1" fill="#668fff" fill-opacity="1" fill-rule="nonzero" stroke="none" stroke-width="10.104" stroke-linecap="butt" stroke-linejoin="miter" stroke-miterlimit="4" stroke-dasharray="none" stroke-dashoffset="0" stroke-opacity="1"/><path style="marker:none" d="M3.441 20.612l1.205.582v5.276l-1.205-.582z" id="path17773" color="#000" display="inline" overflow="visible" visibility="visible" opacity="1" fill="#e93549" fill-opacity="1" fill-rule="nonzero" stroke="none" stroke-width="10.104" stroke-linecap="butt" stroke-linejoin="miter" stroke-miterlimit="4" stroke-dasharray="none" stroke-dashoffset="0" stroke-opacity="1"/><path style="marker:none" d="M43.593 33.038c.07-.296.143-.588.199-.914.08-.463.145-.958.199-1.486.053-.528.096-1.09.128-1.689.023-.431.018-.987.032-1.456l-1.148.554v5.276z" id="path17876" color="#000" display="inline" overflow="visible" visibility="visible" opacity="1" fill="#668fff" fill-opacity="1" fill-rule="nonzero" stroke="none" stroke-width="10.104" stroke-linecap="butt" stroke-linejoin="miter" stroke-miterlimit="4" stroke-dasharray="none" stroke-dashoffset="0" stroke-opacity="1"/><path style="marker:none" d="M44.145 20.984v5.276l-1.205.582v-5.276z" id="path18129" color="#000" display="inline" overflow="visible" visibility="visible" opacity="1" fill="#e93549" fill-opacity="1" fill-rule="nonzero" stroke="none" stroke-width="10.104" stroke-linecap="butt" stroke-linejoin="miter" stroke-miterlimit="4" stroke-dasharray="none" stroke-dashoffset="0" stroke-opacity="1"/><path transform="matrix(-.89403 .44802 -.93007 -.36738 0 0)" id="rect1324-6" fill="#b3b3b3" fill-opacity=".294" stroke="none" stroke-width=".462" stroke-miterlimit="4" stroke-dasharray="none" stroke-opacity="1" d="M2.217-50.582h22.978v.626H2.217z"/><path transform="matrix(.88725 .4613 .20387 .979 0 0)" id="rect1324" fill="#b3b3b3" fill-opacity=".294" stroke="none" stroke-width=".856" stroke-miterlimit="4" stroke-dasharray="none" stroke-opacity="1" d="M-1.036 19.394h42.66v1.157h-42.66z"/></g></svg>