<svg xmlns="http://www.w3.org/2000/svg" xmlns:xlink="http://www.w3.org/1999/xlink" width="48" height="48" version="1.1" id="svg38"><defs id="defs22"><style id="style4511"/><style id="style4511-26"/><style id="style4511-9"/><style id="style4552"/><style id="style4511-2"/><linearGradient id="linearGradient4245"><stop offset="0" id="stop4241" stop-color="#e47115" stop-opacity="1"/><stop offset="1" id="stop4243" stop-color="#f2974d" stop-opacity="1"/></linearGradient><linearGradient xlink:href="#linearGradient4245" id="linearGradient1623" x1="3.098" y1="23.808" x2="45.119" y2="23.808" gradientUnits="userSpaceOnUse"/><clipPath id="clipPath-886807824"/><clipPath id="clipPath-897244418"/><linearGradient x2="26.554" x1="16.16" gradientUnits="userSpaceOnUse" id="SVGID_1_" gradientTransform="translate(-.494 -1.08)"><stop id="stop1471" stop-color="#94c94a"/><stop id="stop1473" offset="1" stop-color="#9dcc58"/></linearGradient></defs><style id="style4485" type="text/css"/><g id="g1608"><path id="rect4144" d="M3.265 28.151v-8.495c0-13.907 11.247-16.804 17.282-16.804h7.123c5.96 0 17.282 2.704 17.282 17.836v6.93c0 11.563-7.765 17.146-17.282 17.146h-7.123c-9.574 0-17.282-5.47-17.282-16.613z" opacity="1" fill="url(#linearGradient1623)" fill-opacity="1" stroke="#000" stroke-width=".334" stroke-linecap="square" stroke-linejoin="bevel" stroke-miterlimit="4" stroke-dasharray="none" stroke-dashoffset="0" stroke-opacity=".078"/><g transform="matrix(1.0099 0 0 .90617 .314 3.941)" id="g1597"><path id="path1490" d="M11.3.978c-1.051.463-1.674.983-2.509 1.665.22.81.667 2.284.826 2.83.39 1.24 1.53 4.71 2.06 4.77.35.04-.28-4.71-.19-6.28.042-.71-.008-2.45.291-3.249z" fill="#2d2d2d" fill-opacity="1"/><path id="path1492" d="M44.112 25.467a43.738 43.738 0 0 0-1.738 1.865c-5.7 6.58-9.7 14.621-31.68 8.881-5.8-1.52-8.08-1.91-2.91.92 15.586 8.544 26.675 4.325 32.2-1.039a22.865 22.865 0 0 0 4.129-10.627z" fill="#2d2d2d" fill-opacity="1"/><path d="M7.616 25.49c1.15 4.05 12.47 6.04 15.93 7.32 4.17 1.54 8.51-3.18 10.16-6.39.89-1.73 1.67-3.56 3.02-4.99 1.75-1.86 4.47-2.51 5.98-4.63 1.89-2.67-2.04-4.04-3.99-4.53-4.96-1.23-12.51-.91-13.67 1.54-4.18.75-9.28.87-14.24 1.34-5.42.5-4.3 6.46-3.19 10.34.75 2.65-.88-3.08 0 0z" id="path1512" fill="#fff"/><path d="M5.168 7.112c-.595.937-.919 2.025-1.219 2.943 1.05 1.403 1.963 3.01 1.878 5.026-.13 3.44-2.831 7.48-.641 10.78 1.38 2.08 11.249 7.34 18.879 7.24.14 0 .06-.06-.18-.16-2.01-.84-15.51-4.8-16.27-7.45-.18-.61-.12-1.122 1.57-1.092 4.97.09 3.35 4.191 11.81 3.961 1.85-.079 3.754-.775 4.89-2.029 1.37-1.4 2.04-3.12 2.95-3.78 4.58-3.33 4.25-2.67 6.02-3.64 3.48-1.9 1.29-4.61 0-3.19-1.54 1.7-4.18.401-7.72.351-2.62-.26-7.56 1.4-10.2 3.06-4.23 2.66-3.638-.34-4.358-2.91-.05.35-.46 3.08 0 4.84-1.98.69-2.34.74-4 .7-.58 0-1.85.12-1.82-1.46.03-1.48.339-2.63.549-3.85.13-.76.23-1.56.2-2.49-.068-2.158-1.428-5.07-2.157-7.178" id="path1514" fill="#2d2d2d" fill-opacity="1"/><path d="M25.976 23.87a5.208 5.208 0 0 0-3.47-5.84c-2.29.74-4.32 1.88-6.19 3.39-.19.15-.37.29-.54.4a5.18 5.18 0 0 0 .92 4.28c2.3.89 6.46.36 9.28-2.23zm-5.12-2.21c.72 0 1.3.58 1.3 1.3 0 .72-.58 1.3-1.3 1.3-.72 0-1.3-.58-1.3-1.3 0-.72.59-1.3 1.3-1.3z" id="path1516" fill="url(#SVGID_1_)"/><path d="M30.146 12.05c1.85-.46 4.65-.23 6.55-.19 1.43.04 2.35-.02 1.99-.54-1.87-2.67-18.55-.45-17.12 2.12.29.52.77.74 1.39.76 1.77.05 4.65-1.52 7.19-2.15z" id="path1518" fill="#2d2d2d"/><path d="M20.296 4.34c-.05 2.55-1.63 4.85-2.89 6.94-1.25 2.07-.02 2.71 1.5 1.17 1.64-1.66 3.27-5.31 3.43-7.64.17-2.27-1.98-3.46-2.04-.47z" id="path1520" fill="#2d2d2d"/></g></g></svg>