<svg xmlns="http://www.w3.org/2000/svg" xmlns:xlink="http://www.w3.org/1999/xlink" width="48" height="48" version="1.1" id="svg38"><defs id="defs22"><linearGradient id="linearGradient4488"><stop id="stop4490" offset="0" stop-color="#000" stop-opacity=".047"/><stop id="stop4492" offset="1" stop-color="#000" stop-opacity="0"/></linearGradient><style id="style4511"/><style id="style4511-26"/><style id="style4511-9"/><style id="style4552"/><linearGradient id="b-2-9" y1="540.92" y2="522.55" x2="0" gradientUnits="userSpaceOnUse" gradientTransform="matrix(1 0 0 1.14286 0 -77.4)"><stop stop-color="#197cf1" id="stop7-91"/><stop offset="1" stop-color="#05a0eb" id="stop9-2"/></linearGradient><style id="style4511-2"/><linearGradient xlink:href="#linearGradient4488" id="linearGradient4548" gradientUnits="userSpaceOnUse" gradientTransform="translate(-62.55 1.994) scale(.3038)" x1="288.112" y1="141.785" x2="287.575" y2="79.008"/><linearGradient xlink:href="#b-2-9" id="linearGradient1177" x1="2.921" y1="23.586" x2="45.168" y2="23.586" gradientUnits="userSpaceOnUse" gradientTransform="rotate(-90 24.045 23.586)"/></defs><style id="style4485" type="text/css"/><g id="g1188"><g transform="matrix(.99998 0 0 1.0135 0 -.034)" id="g1182"><path id="path4532" d="M3.088 26.22v1.67c0 9.573 5.583 17.281 17.146 17.281h6.93c15.133 0 17.837-11.322 17.837-17.282v-1.668c0 5.96-2.704 17.282-17.837 17.282h-6.93c-11.563 0-17.146-7.708-17.146-17.282z" opacity="1" fill="url(#linearGradient4548)" fill-opacity="1" stroke="none" stroke-width="1.1" stroke-linecap="square" stroke-linejoin="bevel" stroke-miterlimit="4" stroke-dasharray="none" stroke-dashoffset="0" stroke-opacity=".078"/><path id="path4534" d="M3.2 27.93v-8.496C3.2 5.526 14.449 2.63 20.484 2.63h7.123c5.96 0 17.282 2.704 17.282 17.836v6.93c0 11.563-7.708 17.146-17.282 17.146h-7.123c-9.574 0-17.282-5.47-17.282-16.613z" opacity="1" fill="url(#linearGradient1177)" fill-opacity="1" stroke="#000" stroke-width=".334" stroke-linecap="square" stroke-linejoin="bevel" stroke-miterlimit="4" stroke-dasharray="none" stroke-dashoffset="0" stroke-opacity=".078"/><path id="polygon1149" transform="translate(.045 3.415)" fill="#fffeff" fill-rule="evenodd" stroke="none" stroke-width="1" d="M17.276 31.342l-3.285-3.286 5.818-5.818L12 17.73l2.323-4.024 7.412 4.28V9h4.647v8.918l7.295-4.212L36 17.73l-7.809 4.508 5.818 5.818-3.285 3.286L24 24.618z"/></g></g></svg>