<svg xmlns="http://www.w3.org/2000/svg" xmlns:xlink="http://www.w3.org/1999/xlink" width="48" height="48" version="1.1" id="svg38"><defs id="defs22"><linearGradient id="linearGradient4488"><stop id="stop4490" offset="0" stop-color="#000" stop-opacity=".047"/><stop id="stop4492" offset="1" stop-color="#000" stop-opacity="0"/></linearGradient><style id="style4511"/><style id="style4511-26"/><style id="style4511-9"/><style id="style4552"/><style id="style4511-2"/><linearGradient xlink:href="#linearGradient4488" id="linearGradient4548" gradientUnits="userSpaceOnUse" gradientTransform="matrix(.30791 0 0 .30817 -63.719 1.983)" x1="288.112" y1="141.785" x2="287.575" y2="79.008"/><linearGradient gradientTransform="rotate(-90 -2.1 48.862)" gradientUnits="userSpaceOnUse" x2="47" x1="1" id="linearGradient3764-36-7" y1="0" y2="0" spreadMethod="pad"><stop id="stop1188" stop-opacity="1" stop-color="#e2262b"/><stop id="stop1190" stop-opacity="1" stop-color="#e4383e" offset="1"/></linearGradient><linearGradient xlink:href="#linearGradient3764-36-7" id="linearGradient1310" x1="2.639" y1="23.886" x2="45.458" y2="23.886" gradientUnits="userSpaceOnUse"/></defs><style id="style4485" type="text/css"/><path id="path4532" d="M2.808 26.558v1.693c0 9.712 5.66 17.53 17.378 17.53h7.025c15.337 0 18.077-11.485 18.077-17.53v-1.693c0 6.045-2.74 17.53-18.077 17.53h-7.025c-11.719 0-17.378-7.818-17.378-17.53z" opacity="1" fill="url(#linearGradient4548)" fill-opacity="1" stroke="none" stroke-width="1.115" stroke-linecap="square" stroke-linejoin="bevel" stroke-miterlimit="4" stroke-dasharray="none" stroke-dashoffset="0" stroke-opacity=".078"/><path id="path4534" d="M19.647 2.742h8.61c14.096 0 17.032 11.409 17.032 17.53V27.5c0 6.045-2.741 17.53-18.079 17.53h-7.023c-11.72 0-17.379-7.818-17.379-17.53v-7.226c0-9.712 5.545-17.53 16.839-17.53z" opacity="1" fill="url(#linearGradient1310)" fill-opacity="1" stroke="#000" stroke-width=".339" stroke-linecap="square" stroke-linejoin="bevel" stroke-miterlimit="4" stroke-dasharray="none" stroke-dashoffset="0" stroke-opacity=".078"/><path d="M28.759 8.972a2.014 2.014 0 0 0-.883.167l-16.6 8.872-7.844-3.458-.642 3.797 7.66 3.355a2.021 2.021 0 0 0 1.596.01l17.4-9.209c1.897-.773 1.374-3.46-.687-3.534zm0 7.367a2.016 2.016 0 0 0-.884.168l-16.599 8.871-8.503-3.641v3.932l7.678 3.403a2.021 2.021 0 0 0 1.595.01l17.4-9.209c1.897-.773 1.374-3.46-.687-3.534zm0 7.368a2.017 2.017 0 0 0-.884.167l-16.599 8.871-8.527-3.73.645 4.247 7.057 3.177a2.021 2.021 0 0 0 1.595.011l17.4-9.21c1.897-.772 1.374-3.46-.687-3.534z" id="path391" fill="#fff" fill-rule="evenodd" stroke-width=".944"/></svg>