<svg xmlns:osb="http://www.openswatchbook.org/uri/2009/osb" xmlns="http://www.w3.org/2000/svg" xmlns:xlink="http://www.w3.org/1999/xlink" width="48" height="48" version="1.1" id="svg38"><defs id="defs22"><style id="style4511"/><style id="style4511-26"/><linearGradient id="linearGradient8285"><stop offset="0" id="stop8287" stop-color="#ff6c6c" stop-opacity="1"/><stop offset="1" id="stop8289" stop-color="#c00" stop-opacity="1"/></linearGradient><style id="style4511-9"/><style id="style4552"/><style id="style4511-2"/><linearGradient osb:paint="solid" id="linearGradient5293"><stop id="stop5295" offset="0" stop-color="#9a89c0" stop-opacity="1"/></linearGradient><linearGradient xlink:href="#linearGradient4245-7" id="linearGradient1396" x1="2.583" y1="23.586" x2="44.83" y2="23.586" gradientUnits="userSpaceOnUse" gradientTransform="translate(.288 .72)"/><linearGradient id="linearGradient4245-7"><stop offset="0" id="stop4241" stop-color="#e8e8e8" stop-opacity="1"/><stop offset="1" id="stop4243" stop-color="#f5f5f5" stop-opacity="1"/></linearGradient><linearGradient id="linearGradient920"><stop id="stop916" offset="0" stop-color="#ed5353" stop-opacity="1"/><stop id="stop918" offset="1" stop-color="#c6262e" stop-opacity="1"/></linearGradient><linearGradient xlink:href="#linearGradient920" id="linearGradient1374" x1="9.89" y1="25.309" x2="38.097" y2="25.309" gradientUnits="userSpaceOnUse"/><linearGradient xlink:href="#linearGradient8285" id="linearGradient1382" x1="11.301" y1="14.236" x2="33.866" y2="14.236" gradientUnits="userSpaceOnUse"/></defs><style id="style4485" type="text/css"/><path id="path4518" d="M19.65 3.461h8.496c13.907 0 16.804 11.247 16.804 17.282v7.124c0 5.96-2.704 17.282-17.836 17.282h-6.93c-11.563 0-17.146-7.708-17.146-17.282v-7.124c0-9.574 5.47-17.282 16.613-17.282z" opacity="1" fill="url(#linearGradient1396)" fill-opacity="1" stroke="#000" stroke-width=".334" stroke-linecap="square" stroke-linejoin="bevel" stroke-miterlimit="4" stroke-dasharray="none" stroke-dashoffset="0" stroke-opacity=".078"/><g id="g1413" transform="matrix(.91842 0 0 .935 1.957 1.58)" stroke-width=".687"><ellipse ry="13.378" rx="14.103" id="circle1322" cy="25.309" cx="23.994" fill="url(#linearGradient1374)" fill-opacity="1"/><path id="path1324" d="M20.794 10.594c-.096.004-.194.02-.291.05-.518.157-.805.634-.644 1.069l.404 1.091C14.409 13.34 11.3 19.2 11.3 19.2s1.959.35 6.684-2.126c1.313-.688 2.07-1.427 2.501-2.096-.09.69-.076 1.574.132 2.703.524 2.834 2.711 4.953 2.711 4.953s2.647-4.17-.191-8.256c4.186 2.698 10.728 1.525 10.728 1.525s-2.93-2.637-6.042-3.294c-2.322-.491-4.46-.17-5.57.078a.711.711 0 0 0-.045-.242l-.481-1.3c-.131-.353-.516-.567-.934-.55z" opacity=".2" fill-rule="evenodd"/><path id="path1326" d="M23.994 11.93c-7.813 0-14.102 5.967-14.102 13.379 0 .112-.003.223 0 .334C10.078 18.388 16.3 12.6 23.994 12.6s13.916 5.788 14.102 13.043c.003-.111 0-.222 0-.334 0-7.412-6.29-13.378-14.102-13.378z" opacity=".2" fill="#fff"/><path id="path1330" d="M20.794 9.925c-.096.004-.194.02-.291.05-.518.157-.805.634-.644 1.069l.404 1.091c-5.854.536-8.962 6.395-8.962 6.395s1.959.35 6.684-2.126c1.313-.688 2.07-1.427 2.502-2.096-.09.69-.076 1.574.132 2.703.524 2.834 2.71 4.953 2.71 4.953s2.647-4.17-.191-8.256c4.186 2.697 10.728 1.525 10.728 1.525s-2.93-2.637-6.042-3.295c-2.322-.49-4.46-.17-5.57.08a.711.711 0 0 0-.045-.243l-.48-1.3c-.132-.353-.517-.567-.934-.55z" fill="#4bd24d" fill-opacity="1" fill-rule="evenodd"/><path id="path1332" d="M20.794 9.926c-.096.003-.194.02-.292.05-.517.157-.804.633-.643 1.068l.036.097a.978.978 0 0 1 .607-.497c.098-.03.196-.046.292-.05.418-.016.803.197.934.55l.48 1.3a.71.71 0 0 1 .045.242c1.111-.249 3.25-.569 5.571-.078 2.199.464 4.285 1.904 5.333 2.717l.709-.091s-2.931-2.638-6.042-3.295c-2.322-.49-4.46-.17-5.572.078a.71.71 0 0 0-.044-.242l-.48-1.3c-.13-.353-.517-.566-.934-.55zm-.765 2.245c-5.7.67-8.728 6.358-8.728 6.358s.133.024.403.016c.982-1.516 3.874-5.311 8.559-5.74l-.234-.633zm3.108 2.207c.907 1.306 1.25 2.617 1.303 3.801a7.08 7.08 0 0 0-.726-3.473c-.194-.105-.39-.208-.577-.328zm-2.651.6c-.013.019-.032.04-.046.06-.002.153-.005.307.002.475.008-.19.022-.369.044-.536z" opacity=".1" fill="url(#linearGradient1382)" fill-opacity="1" fill-rule="evenodd"/></g></svg>