<svg xmlns="http://www.w3.org/2000/svg" xmlns:xlink="http://www.w3.org/1999/xlink" width="48" height="48" version="1.1" id="svg38"><defs id="defs22"><linearGradient id="linearGradient4488"><stop id="stop4490" offset="0" stop-color="#000" stop-opacity=".047"/><stop id="stop4492" offset="1" stop-color="#000" stop-opacity="0"/></linearGradient><style id="style4511"/><style id="style4511-26"/><style id="style4511-9"/><style id="style4552"/><style id="style4511-2"/><linearGradient xlink:href="#linearGradient4488" id="linearGradient4546" gradientUnits="userSpaceOnUse" gradientTransform="translate(-62.497 2.425) scale(.3038)" x1="288.112" y1="141.785" x2="287.575" y2="79.008"/></defs><style id="style4485" type="text/css"/><path d="M3.141 26.652v1.669c0 9.574 5.583 17.282 17.146 17.282h6.93c15.133 0 17.837-11.323 17.837-17.282v-1.669c0 5.96-2.704 17.282-17.837 17.282h-6.93c-11.563 0-17.146-7.708-17.146-17.282z" id="path4528" opacity="1" fill="url(#linearGradient4546)" fill-opacity="1" stroke="none" stroke-width="1.1" stroke-linecap="square" stroke-linejoin="bevel" stroke-miterlimit="4" stroke-dasharray="none" stroke-dashoffset="0" stroke-opacity=".078"/><path d="M19.754 3.174h8.495c13.908 0 16.805 11.247 16.805 17.282v7.123c0 5.96-2.704 17.282-17.837 17.282h-6.93c-11.562 0-17.146-7.708-17.146-17.282v-7.123c0-9.574 5.47-17.282 16.613-17.282z" id="path4530" opacity="1" fill="#de372f" fill-opacity="1" stroke="#000" stroke-width=".334" stroke-linecap="square" stroke-linejoin="bevel" stroke-miterlimit="4" stroke-dasharray="none" stroke-dashoffset="0" stroke-opacity=".078"/><path id="path4461" d="M20.48 6.568h7.176c11.748 0 14.195 9.42 14.195 14.475v5.966c0 4.992-2.284 14.475-15.067 14.475H20.93c-9.768 0-14.484-6.456-14.484-14.475v-5.966c0-8.02 4.62-14.475 14.033-14.475z" opacity="1" fill="#ececec" fill-opacity="1" stroke="none" stroke-width=".29" stroke-linecap="square" stroke-linejoin="bevel" stroke-miterlimit="4" stroke-dasharray="none" stroke-dashoffset="0" stroke-opacity=".078"/><g id="g1337" transform="matrix(.9427 0 0 .84005 2.068 5.238)" fill="#de372f" fill-opacity="1" fill-rule="nonzero" stroke="none" stroke-width=".974"><path d="M18.525 8.469v24.32l17.569-12.154M18.525 8.473" id="path1253"/><path d="M32.186 44.434v-29.16h3.904v29.16m-3.904 0" id="path1255"/></g></svg>