<svg xmlns:osb="http://www.openswatchbook.org/uri/2009/osb" xmlns="http://www.w3.org/2000/svg" xmlns:xlink="http://www.w3.org/1999/xlink" width="48" height="48" version="1.1" id="svg38"><defs id="defs22"><linearGradient id="linearGradient4488"><stop id="stop4490" offset="0" stop-color="#000" stop-opacity=".047"/><stop id="stop4492" offset="1" stop-color="#000" stop-opacity="0"/></linearGradient><style id="style4511"/><style id="style4511-26"/><style id="style4511-9"/><style id="style4552"/><style id="style4511-2"/><linearGradient xlink:href="#linearGradient4488" id="linearGradient4540" gradientUnits="userSpaceOnUse" gradientTransform="rotate(90.216 54.465 -7.917) scale(.3038)" x1="288.112" y1="141.785" x2="287.575" y2="79.008"/><linearGradient osb:paint="solid" id="linearGradient5293"><stop id="stop5295" offset="0" stop-color="#9a89c0" stop-opacity="1"/></linearGradient><style id="style4511-87"/><style id="style4511-26-7"/><style id="style4511-9-1"/><style id="style4552-53"/><style id="style4511-2-9"/><style id="style4511-8"/><style id="style4511-26-4"/><style id="style4511-9-8"/><style id="style4552-5"/><style id="style4511-2-5"/><style id="style4511-8792"/><style id="style4511-26-3"/><style id="style4511-9-6"/><style id="style4552-4"/><style id="style4511-2-06"/><style id="style4511-87-2"/><style id="style4511-26-7-2"/><style id="style4511-9-1-8"/><style id="style4552-53-6"/><style id="style4511-2-9-9"/><style id="style4511-8-6"/><style id="style4511-26-4-2"/><style id="style4511-9-8-4"/><style id="style4552-5-9"/><style id="style4511-2-5-9"/><style id="style4511-879"/><style id="style4511-26-76"/><style id="style4511-9-2"/><style id="style4552-8"/><style id="style4511-2-0"/><style id="style4511-87920"/><style id="style4511-26-37"/><style id="style4511-9-0"/><style id="style4552-43"/><style id="style4511-2-6"/><circle cx="73.957" cy="-31.965" r="15.999" id="SVGID_1_-9"/><linearGradient id="linearGradient4040"><stop offset="0" id="stop4042" stop-color="#f07c53" stop-opacity="1"/><stop offset="1" id="stop4044" stop-color="#e95420" stop-opacity="1"/></linearGradient><linearGradient gradientUnits="userSpaceOnUse" gradientTransform="scale(.38771 2.57924)" x1="45.444" y1="1.215" x2="39.509" y2="1.215" id="linearGradient-7-8"><stop stop-color="#F0645D" offset="0%" id="stop1549"/><stop stop-color="#FC8B71" offset="100%" id="stop1551"/></linearGradient><linearGradient gradientUnits="userSpaceOnUse" gradientTransform="matrix(.99616 -.01604 .01474 .77914 -60.462 5.017)" x1="9.435" y1="9.466" x2="11.334" y2="12.266" id="linearGradient-13"><stop stop-color="#ED3C7E" offset="0%" id="stop1561"/><stop stop-color="#ED3D7D" offset="0%" id="stop1563"/><stop stop-color="#FF7183" offset="100%" id="stop1565"/></linearGradient><linearGradient gradientUnits="userSpaceOnUse" gradientTransform="scale(.4595 2.17625)" x1="38.585" y1="6.082" x2="29.479" y2="6.082" id="linearGradient-17"><stop stop-color="#FFC47F" offset="0%" id="stop1576"/><stop stop-color="#F6AA42" offset="100%" id="stop1578"/></linearGradient><linearGradient xlink:href="#linearGradient4040" id="linearGradient4420" x1="2.389" y1="14.024" x2="24.35" y2="14.024" gradientUnits="userSpaceOnUse"/><linearGradient xlink:href="#linearGradient-13" id="linearGradient4435" x1="23.859" y1="24.107" x2="45.862" y2="24.107" gradientUnits="userSpaceOnUse"/><linearGradient xlink:href="#linearGradient-7-8" id="linearGradient4443" x1="23.889" y1="34.894" x2="45.805" y2="34.894" gradientUnits="userSpaceOnUse"/><linearGradient xlink:href="#linearGradient-17" id="linearGradient4453" x1="2.381" y1="24.094" x2="24.35" y2="24.094" gradientUnits="userSpaceOnUse"/><linearGradient xlink:href="#linearGradient4040" id="linearGradient908" gradientUnits="userSpaceOnUse" x1="2.389" y1="14.024" x2="24.35" y2="14.024" gradientTransform="matrix(1.00064 0 0 1 -.015 0)"/><clipPath id="SVGID_2_-2"><use id="use25" x="0" y="0" width="1" height="1" xlink:href="#SVGID_1_-9" overflow="visible"/></clipPath></defs><style id="style4485" type="text/css"/><style type="text/css" id="style4485-7"/><style id="style4485-6" type="text/css"/><style type="text/css" id="style4485-8"/><style id="style4485-7-2" type="text/css"/><style type="text/css" id="style4485-6-4"/><style id="style4485-3" type="text/css"/><path id="path4516" d="M22.28 3.136l-1.67-.007C11.037 3.093 3.309 8.648 3.265 20.21l-.026 6.93c-.057 15.133 11.255 17.88 17.215 17.902l1.669.006c-5.96-.022-17.272-2.77-17.215-17.901l.026-6.93C4.976 8.653 12.705 3.1 22.279 3.135z" opacity="1" fill="url(#linearGradient4540)" fill-opacity="1" stroke="none" stroke-width="1.1" stroke-linecap="square" stroke-linejoin="bevel" stroke-miterlimit="4" stroke-dasharray="none" stroke-dashoffset="0" stroke-opacity=".078"/><path d="M45.695 19.837C45.737 8.694 38.05 3.195 28.476 3.16l-4.293-.016-.157 41.912 4.293.016c6.035.023 17.292-2.832 17.344-16.74z" id="path4518" opacity="1" fill="url(#linearGradient4435)" fill-opacity="1" stroke="#000" stroke-width=".334" stroke-linecap="square" stroke-linejoin="bevel" stroke-miterlimit="4" stroke-dasharray="none" stroke-dashoffset="0" stroke-opacity=".078"/><path d="M2.548 28.39c-.027 11.142 7.667 16.631 17.24 16.655l4.294.01.101-41.912-4.293-.01C13.855 3.118 2.602 5.988 2.568 19.895z" id="path4518-7" opacity="1" fill="url(#linearGradient4453)" fill-opacity="1" stroke="#000" stroke-width=".334" stroke-linecap="square" stroke-linejoin="bevel" stroke-miterlimit="4" stroke-dasharray="none" stroke-dashoffset="0" stroke-opacity=".078"/><path stroke-miterlimit="4" d="M19.888 3.133c-6.04-.013-17.3 2.854-17.333 16.762l-.012 5.02H24.13l.052-21.772z" id="path4518-7-6" opacity="1" fill="url(#linearGradient908)" fill-opacity="1" stroke="#000" stroke-width=".334" stroke-linecap="square" stroke-linejoin="bevel" stroke-dasharray="none" stroke-dashoffset="0" stroke-opacity=".078"/><path d="M28.371 45.056C34.41 45.05 45.66 42.343 45.644 29.4l-.006-4.672-21.587.072.024 20.262z" id="path4518-7-6-7" opacity="1" fill="url(#linearGradient4443)" fill-opacity="1" stroke="#000" stroke-width=".322" stroke-linecap="square" stroke-linejoin="bevel" stroke-miterlimit="4" stroke-dasharray="none" stroke-dashoffset="0" stroke-opacity=".078"/><path id="path4518-0" d="M7.147 27.77v-6.803C7.147 9.83 16.355 7.51 21.296 7.51h5.832c4.88 0 14.15 2.165 14.15 14.282v5.55c0 9.258-6.311 13.729-14.15 13.729h-5.832c-7.839 0-14.15-4.38-14.15-13.303z" opacity="1" fill="#4d4d4d" fill-opacity="1" stroke="#000" stroke-width=".271" stroke-linecap="square" stroke-linejoin="bevel" stroke-miterlimit="4" stroke-dasharray="none" stroke-dashoffset="0" stroke-opacity=".078"/><style type="text/css" id="style4485-5"/><path id="path2958" d="M24.11 13.912a2.484 2.484 0 0 0-1.296.329l-7.286 4.19a2.465 2.465 0 0 0-1.238 2.137v8.272c0 .881.472 1.695 1.238 2.136l7.286 4.19a2.482 2.482 0 0 0 1.325.329c.398-.014.64-.228.998-.433l7.05-4.339c.767-.44 1.085-.745 1.085-1.627v-8.135c0-.299.488-.984.386-1.255a2.469 2.469 0 0 0-1.082-1.275l-7.286-4.19a2.483 2.483 0 0 0-1.18-.33z" fill="#fe4b71" stroke-width=".542"/><path id="path2964" d="M14.54 19.489a2.476 2.467 0 0 0-.25 1.078v8.381a2.476 2.467 0 0 0 1.238 2.136l7.286 4.19a2.476 2.467 0 0 0 1.238.33V24.776z" fill="#ff8c2a" stroke-width=".542"/><path id="path2966" d="M33.57 19.509L24.051 24.8l.001 10.803a2.476 2.467 0 0 0 1.237-.329l7.287-4.19a2.476 2.467 0 0 0 1.238-2.136v-8.381a2.476 2.467 0 0 0-.244-1.058z" fill="#3f3f3f" stroke-width=".542"/><path id="path2970" d="M29.476 29.856l-3.797 2.023v.943l3.797-2.1z" fill="#fff" stroke-width=".542"/></svg>