<svg xmlns="http://www.w3.org/2000/svg" xmlns:xlink="http://www.w3.org/1999/xlink" width="48" height="48" version="1.1" id="svg38"><defs id="defs22"><linearGradient id="linearGradient4505"><stop offset="0" id="stop4507" stop-color="#504170" stop-opacity="1"/><stop offset="1" id="stop4509" stop-color="#1e9584" stop-opacity="1"/></linearGradient><linearGradient id="linearGradient4488"><stop id="stop4490" offset="0" stop-color="#000" stop-opacity=".047"/><stop id="stop4492" offset="1" stop-color="#000" stop-opacity="0"/></linearGradient><style id="style4511"/><style id="style4511-26"/><style id="style4511-9"/><style id="style4552"/><style id="style4511-2"/><linearGradient xlink:href="#linearGradient4488" id="linearGradient4546" gradientUnits="userSpaceOnUse" gradientTransform="translate(-62.497 1.994) scale(.3038)" x1="288.112" y1="141.785" x2="287.575" y2="79.008"/><linearGradient id="c-270-2-7" y1="35.601" x1="37.46" y2="21.467" x2="23.68" gradientUnits="userSpaceOnUse"><stop stop-color="#735a93" id="stop4730-3"/><stop offset="1" stop-color="#8b6cb1" id="stop4732-1"/></linearGradient><linearGradient xlink:href="#linearGradient4505" id="linearGradient4511" x1="24.432" y1="43.01" x2="23.967" y2="3.247" gradientUnits="userSpaceOnUse"/></defs><style id="style4485" type="text/css"/><path d="M3.141 26.22v1.67c0 9.573 5.583 17.281 17.146 17.281h6.93c15.133 0 17.837-11.322 17.837-17.282v-1.668c0 5.96-2.704 17.282-17.837 17.282h-6.93c-11.563 0-17.146-7.708-17.146-17.282z" id="path4528" opacity="1" fill="url(#linearGradient4546)" fill-opacity="1" stroke="none" stroke-width="1.1" stroke-linecap="square" stroke-linejoin="bevel" stroke-miterlimit="4" stroke-dasharray="none" stroke-dashoffset="0" stroke-opacity=".078"/><path d="M19.754 2.742h8.495c13.908 0 16.805 11.247 16.805 17.282v7.124c0 5.96-2.704 17.282-17.837 17.282h-6.93c-11.562 0-17.146-7.708-17.146-17.282v-7.124c0-9.574 5.47-17.282 16.613-17.282z" id="path4530" opacity="1" fill="url(#linearGradient4511)" fill-opacity="1" stroke="#000" stroke-width=".334" stroke-linecap="square" stroke-linejoin="bevel" stroke-miterlimit="4" stroke-dasharray="none" stroke-dashoffset="0" stroke-opacity=".078"/><g id="g4802-6-1" transform="translate(1.84 4.075) scale(.92738)"><path id="path4742-8-0" d="M21 13c-.65 1.696-.766 3.177-2.43 4.203C14.303 19.268 11.006 23.927 11 29c0 7.18 5.82 13 13 13v-3c-5.523 0-10-4.477-10-10s4.477-10 10-10v-5c-1.216-.093-2.12-.485-3-1" fill="#fdfcdf" image-rendering="optimizeSpeed"/><path id="path4744-7-5" d="M27 13c-.783.421-1.972 1.076-3 1v28a13 13 0 0 0 13-13 13 13 0 0 0-7.678-11.844c-1.28-.864-2.135-2.4-2.322-4.156" fill="url(#c-270-2-7)" image-rendering="optimizeSpeed"/><g id="g4746-9-6" fill="#78af52" image-rendering="optimizeSpeed"><path id="path4748-2-7" d="M20.428 6c-.018.055-.035.11-.048.157Q18.821 11.314 23.655 13c.943-2.635-.048-4.909-2.984-6.843A9.293 9.293 0 0 0 20.427 6"/><path id="path4750-0-7" d="M25.04 13c-.249-2.02.742-3.361 2.963-4-.242 2.223-1.228 3.554-2.963 4"/></g><g id="g4752-2-4" stroke-width="2"><path id="path4754-3-0" d="M24 19a10 10 0 0 0-10 10 10 10 0 0 0 10 10v-3a7 7 0 0 1-7-7 7 7 0 0 1 7-7z" fill="#eaeace"/><path id="path4756-7-6" d="M24 22a7 7 0 0 0-7 7 7 7 0 0 0 7 7v-3a4 4 0 0 1-4-4 4 4 0 0 1 4-4z" fill="#d1d1b8"/><path id="path4758-5-4" d="M24 25a4 4 0 0 0-4 4 4 4 0 0 0 4 4z" fill="#bfbfa9"/></g></g></svg>