<svg xmlns="http://www.w3.org/2000/svg" xmlns:xlink="http://www.w3.org/1999/xlink" width="48" height="48" version="1.1" id="svg38"><defs id="defs22"><linearGradient id="linearGradient4488"><stop id="stop4490" offset="0" stop-color="#000" stop-opacity=".047"/><stop id="stop4492" offset="1" stop-color="#000" stop-opacity="0"/></linearGradient><style id="style4511"/><style id="style4511-26"/><style id="style4511-9"/><style id="style4552"/><linearGradient id="e-1" y1="41.22" x1="24.392" y2="25.343" x2="20.643" gradientUnits="userSpaceOnUse"><stop stop-color="#334545" id="stop22-8"/><stop offset="1" stop-color="#536161" id="stop24-7"/></linearGradient><style id="style4511-2"/><linearGradient gradientTransform="matrix(.3082 0 0 .3038 -64.056 2.216)" xlink:href="#linearGradient4488" id="linearGradient4160" x1="288.112" y1="141.785" x2="287.575" y2="79.008" gradientUnits="userSpaceOnUse"/><clipPath id="clipPath-055346580"/><radialGradient xlink:href="#e-1" id="radialGradient1306" cx="23.795" cy="23.808" fx="23.795" fy="23.808" r="21.428" gradientTransform="matrix(1 0 0 .98056 0 .463)" gradientUnits="userSpaceOnUse"/></defs><style id="style4485" type="text/css"/><path d="M2.535 26.443v1.668c0 9.575 5.664 17.282 17.394 17.282h7.031c15.352 0 18.095-11.322 18.095-17.282v-1.668c0 5.96-2.743 17.282-18.095 17.282h-7.03c-11.73 0-17.395-7.708-17.395-17.282z" id="path4147" opacity="1" fill="url(#linearGradient4160)" fill-opacity="1" stroke="none" stroke-width="1.108" stroke-linecap="square" stroke-linejoin="bevel" stroke-miterlimit="4" stroke-dasharray="none" stroke-dashoffset="0" stroke-opacity=".078"/><path d="M19.389 2.965h8.618c14.11 0 17.048 11.246 17.048 17.282v7.123c0 5.96-2.743 17.282-18.095 17.282h-7.03c-11.73 0-17.395-7.708-17.395-17.282v-7.123c0-9.575 5.55-17.282 16.854-17.282z" id="rect4144" opacity="1" fill="url(#radialGradient1306)" fill-opacity="1" stroke="#000" stroke-width=".337" stroke-linecap="square" stroke-linejoin="bevel" stroke-miterlimit="4" stroke-dasharray="none" stroke-dashoffset="0" stroke-opacity=".078"/><path id="path1221" stroke-miterlimit="4" d="M17.387 11.586h12.812a5.878 5.847 0 0 1 5.888 5.849v12.74a5.885 5.853 0 0 1-5.888 5.857H17.387a5.878 5.847 0 0 1-5.876-5.857v-12.74a5.872 5.84 0 0 1 5.876-5.85m0 0" fill="none" stroke="#f9f9f9" stroke-width="1.993" stroke-linecap="butt" stroke-linejoin="miter" stroke-opacity="1"/><path id="path1223" d="M10.5 26.02h26.59v2.204H10.5m0-2.204" fill="#f9f9f9" fill-opacity="1" fill-rule="nonzero" stroke="none" stroke-width="1.105"/><path id="path1225" d="M22.687 35.937v-8.815h2.211v8.815m-2.211 0" fill="#f9f9f9" fill-opacity="1" fill-rule="nonzero" stroke="none" stroke-width="1.105"/></svg>