<svg xmlns:osb="http://www.openswatchbook.org/uri/2009/osb" xmlns="http://www.w3.org/2000/svg" xmlns:xlink="http://www.w3.org/1999/xlink" width="48" height="48" version="1.1" id="svg38"><defs id="defs22"><linearGradient id="linearGradient4488"><stop id="stop4490" offset="0" stop-color="#000" stop-opacity=".047"/><stop id="stop4492" offset="1" stop-color="#000" stop-opacity="0"/></linearGradient><style id="style4511"/><style id="style4511-26"/><style id="style4511-9"/><style id="style4552"/><style id="style4511-2"/><linearGradient xlink:href="#linearGradient4488" id="linearGradient4540" gradientUnits="userSpaceOnUse" gradientTransform="matrix(.30795 0 0 .30379 -63.784 1.995)" x1="288.112" y1="141.785" x2="287.575" y2="79.008"/><linearGradient osb:paint="solid" id="linearGradient5293"><stop id="stop5295" offset="0" stop-color="#9a89c0" stop-opacity="1"/></linearGradient><clipPath id="clipPath-103532304"/></defs><style id="style4485" type="text/css"/><path id="path4516" d="M2.751 26.22v1.669c0 9.574 5.66 17.281 17.38 17.281h7.025c15.34 0 18.08-11.322 18.08-17.281V26.22c0 5.96-2.74 17.282-18.08 17.282h-7.025c-11.72 0-17.38-7.708-17.38-17.282z" opacity="1" fill="url(#linearGradient4540)" fill-opacity="1" stroke="none" stroke-width="1.107" stroke-linecap="square" stroke-linejoin="bevel" stroke-miterlimit="4" stroke-dasharray="none" stroke-dashoffset="0" stroke-opacity=".078"/><path id="path4518" d="M19.591 2.743h8.611c14.098 0 17.034 11.247 17.034 17.282v7.122c0 5.96-2.74 17.282-18.08 17.282h-7.025c-11.72 0-17.38-7.708-17.38-17.282v-7.122c0-9.574 5.545-17.282 16.84-17.282z" opacity="1" fill="#e6e6e6" fill-opacity="1" stroke="#000" stroke-width=".336" stroke-linecap="square" stroke-linejoin="bevel" stroke-miterlimit="4" stroke-dasharray="none" stroke-dashoffset="0" stroke-opacity=".078"/><path id="path49" d="M24.03 9.355c-1.29 0-2.564.172-3.77.525l7.617 5.095c.076.035.15.082.227.122a9.05 9.05 0 0 1 1.772 1.172c.066.056.127.106.188.162l8.258 5.458 1.357-5.175-2.941 1.214c-2.206-5.201-7.145-8.572-12.706-8.572M15.55 12.35a14.231 14.231 0 0 0-4.488 6.105l4.337 1.75c.042-.122.104-.213.15-.324m0-7.525" fill="#048dc0" fill-opacity="1" fill-rule="nonzero" stroke="none" stroke-width="1.249"/><path id="path51" d="M10.758 21.566l-2.45 8.773 2.979-1.172a14.067 14.067 0 0 0 4.26 5.62V24.359l-4.789-2.79m23.83 6.302l-13.952 9.502c1.08.288 2.235.445 3.394.445 5.712 0 10.775-3.532 12.896-8.976m-2.338-.97" fill="#ea3653" fill-opacity="1" fill-rule="nonzero" stroke="none" stroke-width="1.249"/><path id="path53" d="M17.961 10.649v25.87l18.094-12.933M17.96 10.65" fill="#1f1f1f" fill-opacity="1" fill-rule="nonzero" stroke="none" stroke-width="1.249"/></svg>