<svg xmlns="http://www.w3.org/2000/svg" xmlns:xlink="http://www.w3.org/1999/xlink" width="48" height="48" version="1.1" id="svg38"><defs id="defs22"><linearGradient id="linearGradient4488"><stop id="stop4490" offset="0" stop-color="#000" stop-opacity=".047"/><stop id="stop4492" offset="1" stop-color="#000" stop-opacity="0"/></linearGradient><style id="style4511"/><style id="style4511-26"/><style id="style4511-9"/><linearGradient id="linearGradient4191"><stop id="stop17-3-7" offset="0" stop-color="#dc2b41" stop-opacity="1"/><stop id="stop19-5-5" offset="1" stop-color="#c61423" stop-opacity="1"/></linearGradient><style id="style4552"/><style id="style4511-2"/><linearGradient xlink:href="#linearGradient4488" id="linearGradient4546" gradientUnits="userSpaceOnUse" gradientTransform="translate(-62.497 2.425) scale(.3038)" x1="288.112" y1="141.785" x2="287.575" y2="79.008"/><linearGradient xlink:href="#linearGradient4191" id="linearGradient1474" x1="2.974" y1="23.586" x2="45.221" y2="23.586" gradientUnits="userSpaceOnUse" gradientTransform="translate(0 .431)"/></defs><style id="style4485" type="text/css"/><path d="M3.141 26.652v1.669c0 9.574 5.583 17.282 17.146 17.282h6.93c15.133 0 17.837-11.323 17.837-17.282v-1.669c0 5.96-2.704 17.282-17.837 17.282h-6.93c-11.563 0-17.146-7.708-17.146-17.282z" id="path4528" opacity="1" fill="url(#linearGradient4546)" fill-opacity="1" stroke="none" stroke-width="1.1" stroke-linecap="square" stroke-linejoin="bevel" stroke-miterlimit="4" stroke-dasharray="none" stroke-dashoffset="0" stroke-opacity=".078"/><path d="M19.754 3.174h8.495c13.908 0 16.805 11.247 16.805 17.282v7.123c0 5.96-2.704 17.282-17.837 17.282h-6.93c-11.562 0-17.146-7.708-17.146-17.282v-7.123c0-9.574 5.47-17.282 16.613-17.282z" id="path4530" opacity="1" fill="url(#linearGradient1474)" fill-opacity="1" stroke="#000" stroke-width=".334" stroke-linecap="square" stroke-linejoin="bevel" stroke-miterlimit="4" stroke-dasharray="none" stroke-dashoffset="0" stroke-opacity=".078"/><path id="path4461" d="M20.48 6.568h7.176c11.748 0 14.195 9.42 14.195 14.475v5.966c0 4.992-2.284 14.475-15.067 14.475H20.93c-9.768 0-14.484-6.456-14.484-14.475v-5.966c0-8.02 4.62-14.475 14.033-14.475z" opacity="1" fill="#ececec" fill-opacity="1" stroke="none" stroke-width=".29" stroke-linecap="square" stroke-linejoin="bevel" stroke-miterlimit="4" stroke-dasharray="none" stroke-dashoffset="0" stroke-opacity=".078"/><g id="g1466" transform="matrix(1 0 0 .9529 .453 1.01)" fill-opacity="1" stroke="none" stroke-width=".719"><path d="M23.695 10.904l-7.273 7.103h4.364V30.79h-4.364l7.273 7.103 7.274-7.103h-4.364V18.007h4.364z" id="path4562" opacity=".5" fill="#fff"/><path id="path2985" d="M23.695 10.413l-7.273 7.103h4.364V30.3h-4.364l7.273 7.103L30.97 30.3h-4.364V17.516h4.364z" fill="#424242"/><path id="path3762" d="M20.786 21.067l.727 4.972h4.364l.728-4.972z" fill="#b3b3b3"/><path id="path2985-8" d="M23.695 10.413l-7.274 7.103h.7l6.574-6.42 6.575 6.42h.699zM16.421 30.3l.7.683h3.665V30.3zm10.184 0v.683h3.665l.699-.683z" opacity=".3" fill="#000"/><path id="path3757" d="M33.878 18.936c0 1.766-1.46 3.197-10.183 3.197-8.723 0-10.183-1.431-10.183-3.197 0-1.765 1.471-3.196 10.183-3.196s10.183 1.431 10.183 3.196z" fill="#d41a1a"/><path id="path3852" d="M21.41 25.337l.103.702h4.364l.105-.713z" opacity=".2" fill="#000"/><path id="path3757-2" d="M23.695 15.74c-8.712 0-10.183 1.431-10.183 3.197 0 .115.007.229.021.341.202-1.605 2.018-2.855 10.162-2.855 8.144 0 9.96 1.25 10.162 2.855a2.75 2.75 0 0 0 .021-.341c0-1.766-1.47-3.197-10.183-3.197z" opacity=".3" fill="#fff"/><path id="path3757-3" d="M13.52 18.732a2.888 2.888 0 0 0-.008.205c0 1.765 1.46 3.196 10.183 3.196 8.724 0 10.183-1.431 10.183-3.196a2.93 2.93 0 0 0-.008-.204c-.118 1.669-1.793 2.99-10.175 2.99-8.383 0-10.057-1.321-10.175-2.991z" opacity=".3" fill="#000"/></g></svg>