<svg xmlns="http://www.w3.org/2000/svg" xmlns:xlink="http://www.w3.org/1999/xlink" width="48" height="48" version="1.1" id="svg38"><defs id="defs22"><linearGradient id="linearGradient4488"><stop id="stop4490" offset="0" stop-color="#000" stop-opacity=".047"/><stop id="stop4492" offset="1" stop-color="#000" stop-opacity="0"/></linearGradient><style id="style4511"/><style id="style4511-26"/><style id="style4511-9"/><style id="style4552"/><style id="style4511-2"/><linearGradient gradientTransform="matrix(.3082 0 0 .3038 -64.056 2.216)" xlink:href="#linearGradient4488" id="linearGradient4160" x1="288.112" y1="141.785" x2="287.575" y2="79.008" gradientUnits="userSpaceOnUse"/><linearGradient x2="554.27" x1="309.1" gradientUnits="userSpaceOnUse" id="linearGradient4089" gradientTransform="matrix(.10185 -.045 .04836 .09827 -32.714 25.22)"><stop id="stop1153" stop-color="#8a2489" stop-opacity="1"/><stop id="stop1155" offset="1" stop-color="#721e71" stop-opacity="1"/></linearGradient></defs><style id="style4485" type="text/css"/><path d="M2.535 26.443v1.668c0 9.575 5.664 17.282 17.394 17.282h7.031c15.352 0 18.095-11.322 18.095-17.282v-1.668c0 5.96-2.743 17.282-18.095 17.282h-7.03c-11.73 0-17.395-7.708-17.395-17.282z" id="path4147" opacity="1" fill="url(#linearGradient4160)" fill-opacity="1" stroke="none" stroke-width="1.108" stroke-linecap="square" stroke-linejoin="bevel" stroke-miterlimit="4" stroke-dasharray="none" stroke-dashoffset="0" stroke-opacity=".078"/><path d="M19.389 2.965h8.618c14.11 0 17.048 11.246 17.048 17.282v7.123c0 5.96-2.743 17.282-18.095 17.282h-7.03c-11.73 0-17.395-7.708-17.395-17.282v-7.123c0-9.575 5.55-17.282 16.854-17.282z" id="rect4144" opacity="1" fill="#e6e6e6" fill-opacity="1" stroke="#000" stroke-width=".337" stroke-linecap="square" stroke-linejoin="bevel" stroke-miterlimit="4" stroke-dasharray="none" stroke-dashoffset="0" stroke-opacity=".078"/><g id="g1260" transform="matrix(1.16271 0 0 1.05508 -3.997 -2.321)" fill-opacity="1"><path d="M12.574 31.639l.2-6.937c.2-6.938.199-6.725.695-7.156 3.73-1.648 6.984-3.025 10.505-3.978 3.386-.896 4.13-.912 4.971-.669.944.273 1.708 1.665 3.184 4.62.35.715 2.214 4.501 2.214 4.501l-.133 4.625-15.832 6.996s-6.637 3.65-6.926 3.06c-.29-.588.799-3.272 1.123-5.062z" id="path1178" fill="url(#linearGradient4089)" stroke-width=".11"/><path d="M12.574 31.639c-.07.387-.191.84-.311 1.279l22.047-9.742.033-1.156z" id="path1180" fill="#490148" stroke-width="1.063"/><path d="M12.641 29.326l-.033 1.157 21.274-9.4-.461-.938z" id="path1182" fill="#490148" stroke-width="1.063"/><path d="M34.871 20.645c.462.938 2.115 4.297 1.318 5.126l-17.81 7.87c7.599-8.256 12.714-11.288 16.492-12.996z" id="path1184" fill="#490148" fill-rule="nonzero" stroke="none" stroke-width="1.063"/></g></svg>