<svg xmlns="http://www.w3.org/2000/svg" xmlns:xlink="http://www.w3.org/1999/xlink" width="48" height="48" version="1.1" id="svg38"><defs id="defs22"><linearGradient id="linearGradient4488"><stop id="stop4490" offset="0" stop-color="#000" stop-opacity=".047"/><stop id="stop4492" offset="1" stop-color="#000" stop-opacity="0"/></linearGradient><style id="style4511"/><style id="style4511-26"/><style id="style4511-9"/><style id="style4552"/><linearGradient id="b-2-9" y1="540.92" y2="522.55" x2="0" gradientUnits="userSpaceOnUse" gradientTransform="matrix(1 0 0 1.14286 0 -77.4)"><stop stop-color="#197cf1" id="stop7-91"/><stop offset="1" stop-color="#05a0eb" id="stop9-2"/></linearGradient><style id="style4511-2"/><linearGradient gradientTransform="translate(-63.205 2.216) scale(.3038)" xlink:href="#linearGradient4488" id="linearGradient4160" x1="288.112" y1="141.785" x2="287.575" y2="79.008" gradientUnits="userSpaceOnUse"/><linearGradient xlink:href="#b-2-9" id="linearGradient1266" x1="2.266" y1="23.808" x2="44.513" y2="23.808" gradientUnits="userSpaceOnUse"/><style id="style2" type="text/css"><![CDATA[.fil5{fill:none}.fil1{fill:#196FBA}.fil0{fill:#25B2EE}.fil4{fill:#793C7C}.fil3{fill:#8C508C}.fil2{fill:white}]]></style></defs><style id="style4485" type="text/css"/><g id="g1228" transform="translate(.431 .288)"><path id="path4147" d="M2.433 26.443v1.668c0 9.575 5.583 17.282 17.146 17.282h6.93c15.133 0 17.837-11.322 17.837-17.282v-1.668c0 5.96-2.704 17.282-17.837 17.282h-6.93c-11.563 0-17.146-7.708-17.146-17.282z" opacity="1" fill="url(#linearGradient4160)" fill-opacity="1" stroke="none" stroke-width="1.1" stroke-linecap="square" stroke-linejoin="bevel" stroke-miterlimit="4" stroke-dasharray="none" stroke-dashoffset="0" stroke-opacity=".078"/><path id="rect4144" d="M19.046 2.965h8.495c13.908 0 16.805 11.246 16.805 17.282v7.123c0 5.96-2.704 17.282-17.837 17.282h-6.93c-11.562 0-17.146-7.708-17.146-17.282v-7.123c0-9.575 5.47-17.282 16.613-17.282z" opacity="1" fill="url(#linearGradient1266)" fill-opacity="1" stroke="#000" stroke-width=".334" stroke-linecap="square" stroke-linejoin="bevel" stroke-miterlimit="4" stroke-dasharray="none" stroke-dashoffset="0" stroke-opacity=".078"/><g transform="matrix(.95827 0 0 .93421 56.506 1.577)" id="g415"><g id="g851" transform="matrix(.17028 0 0 .17175 -56.58 3.014)" clip-rule="evenodd" fill-rule="evenodd" image-rendering="optimizeQuality" shape-rendering="geometricPrecision" text-rendering="geometricPrecision" fill-opacity="1" stroke-width=".225"><path d="M172.953 74.599a10.286 10.286 0 0 0 1.932 1.539c1.494.91 3.19 1.37 5.077 1.37 2.729 0 5.054-.977 6.997-2.91 1.931-1.93 2.897-4.267 2.897-6.996 0-1.887-.46-3.583-1.381-5.099a10.483 10.483 0 0 0-1.516-1.91c-1.943-1.942-4.268-2.897-6.997-2.897-2.74 0-5.077.955-7.009 2.898-1.942 1.932-2.897 4.279-2.897 7.008 0 2.73.955 5.065 2.897 6.997zm-8.412-33.693c0-1.887-.46-3.583-1.381-5.088a10.217 10.217 0 0 0-1.527-1.932C159.7 31.955 157.376 31 154.647 31c-2.752 0-5.077.955-7.02 2.886-1.931 1.943-2.897 4.29-2.897 7.02 0 2.729.966 5.065 2.897 6.985a10.285 10.285 0 0 0 1.932 1.54c1.505.92 3.201 1.38 5.088 1.38 2.729 0 5.054-.977 6.986-2.92 1.943-1.92 2.908-4.256 2.908-6.985zm-25.326 0c0-1.887-.46-3.583-1.37-5.088a10.689 10.689 0 0 0-1.527-1.932C134.375 31.955 132.05 31 129.32 31c-2.74 0-5.077.955-7.008 2.886-1.943 1.943-2.898 4.29-2.898 7.02 0 2.729.955 5.065 2.898 6.985a9.874 9.874 0 0 0 1.92 1.54c1.505.92 3.201 1.38 5.088 1.38 2.729 0 5.054-.977 6.997-2.92 1.932-1.92 2.897-4.256 2.897-6.985zM163.16 89.21a10.246 10.246 0 0 0-1.527-1.921c-1.932-1.943-4.257-2.898-6.986-2.898-2.752 0-5.077.955-7.02 2.898-1.931 1.932-2.897 4.279-2.897 7.008 0 2.74.966 5.065 2.897 7.008a10.689 10.689 0 0 0 1.932 1.528c1.505.91 3.201 1.37 5.088 1.37 2.729 0 5.054-.977 6.986-2.898 1.943-1.943 2.908-4.267 2.908-7.008 0-1.887-.46-3.583-1.381-5.087zm-25.315 0a10.246 10.246 0 0 0-1.527-1.921c-1.943-1.943-4.268-2.898-6.997-2.898-2.74 0-5.077.955-7.008 2.898-1.943 1.932-2.898 4.279-2.898 7.008 0 2.74.955 5.065 2.898 7.008a10.246 10.246 0 0 0 1.92 1.528c1.505.91 3.201 1.37 5.088 1.37 2.729 0 5.054-.977 6.997-2.898 1.932-1.943 2.897-4.267 2.897-7.008 0-1.887-.46-3.583-1.37-5.087zm1.37 31.783c0-1.875-.46-3.571-1.381-5.087a10.18 10.18 0 0 0-1.516-1.92c-1.943-1.933-4.268-2.898-6.997-2.898-2.74 0-5.077.965-7.008 2.897-1.943 1.932-2.898 4.28-2.898 7.008 0 2.74.955 5.077 2.898 7.009a9.81 9.81 0 0 0 1.92 1.527c1.505.92 3.201 1.381 5.088 1.381 2.729 0 5.054-.988 6.997-2.908 1.932-1.932 2.897-4.268 2.897-7.009zm-1.37 21.62a10.689 10.689 0 0 0-1.527-1.932c-1.943-1.92-4.268-2.897-6.997-2.897-2.74 0-5.077.977-7.008 2.897-1.943 1.943-2.898 4.28-2.898 7.02 0 2.729.955 5.065 2.898 6.997a10.246 10.246 0 0 0 1.92 1.527c1.505.921 3.201 1.382 5.088 1.382 2.729 0 5.054-.978 6.997-2.91 1.932-1.931 2.897-4.267 2.897-6.996 0-1.887-.46-3.583-1.37-5.088zm1.37 31.784c0-1.887-.46-3.583-1.37-5.088a10.689 10.689 0 0 0-1.527-1.931c-1.943-1.92-4.268-2.887-6.997-2.887-2.74 0-5.077.966-7.008 2.887-1.943 1.943-2.898 4.279-2.898 7.019 0 2.73.955 5.065 2.898 6.997a10.246 10.246 0 0 0 1.92 1.527c1.505.921 3.201 1.382 5.088 1.382 2.729 0 5.054-.977 6.997-2.909 1.932-1.932 2.897-4.268 2.897-6.997zm-1.37 21.609a10.689 10.689 0 0 0-1.527-1.932c-1.943-1.92-4.268-2.887-6.997-2.887-2.74 0-5.077.966-7.008 2.887-1.943 1.943-2.898 4.29-2.898 7.02 0 2.728.955 5.064 2.898 6.996a10.246 10.246 0 0 0 1.92 1.528c1.505.92 3.201 1.381 5.088 1.381 2.729 0 5.054-.977 6.997-2.909 1.932-1.932 2.897-4.268 2.897-6.997 0-1.887-.46-3.582-1.37-5.087zM112.53 35.829a10.35 10.35 0 0 0-1.538-1.943C109.06 31.955 106.735 31 103.995 31s-5.077.955-7.008 2.886c-1.932 1.943-2.898 4.29-2.898 7.02 0 2.729.966 5.065 2.898 6.985a9.875 9.875 0 0 0 1.92 1.54c1.505.92 3.201 1.38 5.088 1.38 2.74 0 5.065-.977 6.997-2.92 1.932-1.92 2.92-4.256 2.92-6.985 0-1.887-.46-3.583-1.382-5.077zM71.66 74.6a10.35 10.35 0 0 0 1.944 1.539c1.493.91 3.19 1.37 5.076 1.37 2.73 0 5.054-.977 6.986-2.91 1.943-1.93 2.92-4.267 2.92-6.996 0-1.887-.46-3.583-1.393-5.088a10.247 10.247 0 0 0-1.527-1.92c-1.932-1.943-4.257-2.898-6.986-2.898-2.74 0-5.076.955-7.02 2.898-1.931 1.932-2.886 4.279-2.886 7.008 0 2.73.955 5.065 2.887 6.997zm40.87 14.623a10.285 10.285 0 0 0-1.538-1.932c-1.932-1.943-4.257-2.898-6.997-2.898s-5.077.955-7.008 2.898c-1.932 1.932-2.898 4.279-2.898 7.008 0 2.74.966 5.065 2.898 7.008a10.247 10.247 0 0 0 1.92 1.528c1.505.91 3.201 1.37 5.088 1.37 2.74 0 5.065-.977 6.997-2.898 1.932-1.943 2.92-4.267 2.92-7.008 0-1.875-.46-3.571-1.382-5.076zm0 106.785a10.285 10.285 0 0 0-1.538-1.932c-1.932-1.92-4.257-2.887-6.997-2.887s-5.077.966-7.008 2.887c-1.932 1.943-2.898 4.29-2.898 7.02 0 2.728.966 5.064 2.898 6.996a10.247 10.247 0 0 0 1.92 1.528c1.505.92 3.201 1.381 5.088 1.381 2.74 0 5.065-.977 6.997-2.909 1.932-1.932 2.92-4.268 2.92-6.997 0-1.875-.46-3.571-1.382-5.087z" id="path147" fill="#fff"/><path d="M137.834 62.514a10.18 10.18 0 0 0-1.516-1.92c-1.943-1.943-4.268-2.898-6.997-2.898-2.74 0-5.077.955-7.008 2.898-1.943 1.932-2.898 4.279-2.898 7.008 0 2.73.955 5.065 2.898 6.997a9.81 9.81 0 0 0 1.92 1.527c1.505.921 3.201 1.382 5.088 1.382 2.729 0 5.054-.977 6.997-2.91 1.932-1.93 2.897-4.267 2.897-6.996 0-1.887-.46-3.583-1.381-5.088zm6.896 5.088c0 2.73.966 5.065 2.897 6.997a10.35 10.35 0 0 0 1.943 1.539c1.494.91 3.19 1.37 5.077 1.37 2.729 0 5.054-.977 6.986-2.91 1.943-1.93 2.908-4.267 2.908-6.996 0-1.887-.46-3.583-1.392-5.099a10.483 10.483 0 0 0-1.516-1.91c-1.932-1.942-4.257-2.897-6.986-2.897-2.752 0-5.077.955-7.02 2.898-1.931 1.932-2.897 4.279-2.897 7.008zm2.897 46.384c-1.931 1.932-2.897 4.28-2.897 7.008 0 2.74.966 5.077 2.897 7.009a10.35 10.35 0 0 0 1.943 1.538c1.494.91 3.19 1.37 5.077 1.37 2.729 0 5.054-.988 6.986-2.908 1.943-1.932 2.908-4.268 2.908-7.009 0-1.886-.46-3.582-1.392-5.087a10.18 10.18 0 0 0-1.516-1.92c-1.932-1.933-4.257-2.898-6.986-2.898-2.752 0-5.077.965-7.02 2.897zm40.848-24.775a10.181 10.181 0 0 0-1.516-1.921c-1.943-1.943-4.268-2.898-6.997-2.898-2.74 0-5.077.955-7.009 2.898-1.942 1.932-2.897 4.279-2.897 7.008 0 2.74.955 5.065 2.897 7.008a10.314 10.314 0 0 0 1.932 1.528c1.494.91 3.19 1.37 5.077 1.37 2.729 0 5.054-.977 6.997-2.898 1.931-1.943 2.897-4.267 2.897-7.008 0-1.887-.46-3.583-1.381-5.087zm9.793-1.921c-1.931 1.932-2.886 4.279-2.886 7.008 0 2.74.955 5.065 2.886 7.008a10.69 10.69 0 0 0 1.932 1.528c1.505.91 3.2 1.37 5.088 1.37 2.729 0 5.054-.977 6.985-2.898 1.943-1.943 2.91-4.267 2.91-7.008 0-1.887-.461-3.583-1.382-5.087a10.247 10.247 0 0 0-1.528-1.921c-1.931-1.943-4.256-2.898-6.985-2.898-2.752 0-5.077.955-7.02 2.898zm-25.315 26.696c-1.942 1.932-2.897 4.28-2.897 7.008 0 2.74.955 5.077 2.897 7.009a10.286 10.286 0 0 0 1.932 1.538c1.494.91 3.19 1.37 5.077 1.37 2.729 0 5.054-.988 6.997-2.908 1.931-1.932 2.897-4.268 2.897-7.009 0-1.886-.46-3.582-1.381-5.087a10.181 10.181 0 0 0-1.516-1.92c-1.943-1.933-4.268-2.898-6.997-2.898-2.74 0-5.077.965-7.009 2.897zm25.315 0c-1.931 1.932-2.886 4.28-2.886 7.008 0 2.74.955 5.077 2.886 7.009a10.35 10.35 0 0 0 1.943 1.538c1.494.91 3.19 1.37 5.077 1.37 2.729 0 5.054-.988 6.985-2.908 1.943-1.932 2.91-4.268 2.91-7.009 0-1.886-.461-3.582-1.393-5.087a10.181 10.181 0 0 0-1.517-1.92c-1.931-1.933-4.256-2.898-6.985-2.898-2.752 0-5.077.965-7.02 2.897zm14.005 26.696c-1.931-1.92-4.256-2.897-6.985-2.897-2.752 0-5.077.977-7.02 2.897-1.931 1.943-2.886 4.28-2.886 7.02 0 2.729.955 5.065 2.886 6.997a10.286 10.286 0 0 0 1.932 1.538c1.505.91 3.2 1.37 5.088 1.37 2.729 0 5.054-.977 6.985-2.908 1.943-1.932 2.91-4.268 2.91-6.997 0-1.887-.461-3.583-1.382-5.1a11.024 11.024 0 0 0-1.528-1.92zm-23.798 1.92a10.95 10.95 0 0 0-1.516-1.92c-1.943-1.92-4.268-2.897-6.997-2.897-2.74 0-5.077.977-7.009 2.897-1.942 1.943-2.897 4.28-2.897 7.02 0 2.729.955 5.065 2.897 6.997a9.939 9.939 0 0 0 1.932 1.538c1.494.91 3.19 1.37 5.077 1.37 2.729 0 5.054-.977 6.997-2.908 1.931-1.932 2.897-4.268 2.897-6.997 0-1.887-.46-3.583-1.381-5.1zm-25.315 0a11.024 11.024 0 0 0-1.527-1.92c-1.932-1.92-4.257-2.897-6.986-2.897-2.752 0-5.077.977-7.02 2.897-1.931 1.943-2.897 4.28-2.897 7.02 0 2.729.966 5.065 2.897 6.997a10.285 10.285 0 0 0 1.932 1.538c1.505.91 3.201 1.37 5.088 1.37 2.729 0 5.054-.977 6.986-2.908 1.943-1.932 2.908-4.268 2.908-6.997 0-1.887-.46-3.583-1.381-5.1zm1.381 31.796c0-1.887-.46-3.583-1.381-5.099a11.024 11.024 0 0 0-1.527-1.92c-1.932-1.92-4.257-2.887-6.986-2.887-2.752 0-5.077.966-7.02 2.887-1.931 1.943-2.897 4.279-2.897 7.019 0 2.73.966 5.065 2.897 6.997a10.285 10.285 0 0 0 1.932 1.539c1.505.91 3.201 1.37 5.088 1.37 2.729 0 5.054-.977 6.986-2.909 1.943-1.932 2.908-4.268 2.908-6.997zm-19.811 26.696c0 2.73.966 5.065 2.897 6.997a10.285 10.285 0 0 0 1.932 1.539c1.505.91 3.201 1.37 5.088 1.37 2.729 0 5.054-.977 6.986-2.909 1.943-1.932 2.908-4.268 2.908-6.997 0-1.887-.46-3.582-1.381-5.099a11.024 11.024 0 0 0-1.527-1.92c-1.932-1.92-4.257-2.887-6.986-2.887-2.752 0-5.077.966-7.02 2.887-1.931 1.943-2.897 4.29-2.897 7.02zm45.126-26.696c0-1.887-.46-3.583-1.381-5.099a10.95 10.95 0 0 0-1.516-1.92c-1.943-1.92-4.268-2.887-6.997-2.887-2.74 0-5.077.966-7.009 2.887-1.942 1.943-2.897 4.279-2.897 7.019 0 2.73.955 5.065 2.897 6.997a9.938 9.938 0 0 0 1.932 1.539c1.494.91 3.19 1.37 5.077 1.37 2.729 0 5.054-.977 6.997-2.909 1.931-1.932 2.897-4.268 2.897-6.997zM46.346 87.29c-1.943 1.932-2.898 4.279-2.898 7.008 0 2.74.955 5.065 2.898 7.008a10.314 10.314 0 0 0 1.932 1.528c1.493.91 3.19 1.37 5.076 1.37 2.74 0 5.054-.977 6.997-2.898 1.932-1.943 2.909-4.267 2.909-7.008 0-1.887-.46-3.583-1.382-5.087a10.247 10.247 0 0 0-1.527-1.921c-1.943-1.943-4.257-2.898-6.997-2.898s-5.076.955-7.008 2.898zm0 26.696c-1.943 1.932-2.898 4.28-2.898 7.008 0 2.74.955 5.077 2.898 7.009a10.286 10.286 0 0 0 1.932 1.538c1.493.91 3.19 1.37 5.076 1.37 2.74 0 5.054-.988 6.997-2.908 1.932-1.932 2.909-4.268 2.909-7.009 0-1.875-.46-3.571-1.382-5.087a10.247 10.247 0 0 0-1.527-1.92c-1.943-1.933-4.257-2.898-6.997-2.898s-5.076.965-7.008 2.897zm66.173-51.472a9.81 9.81 0 0 0-1.527-1.92c-1.932-1.943-4.257-2.898-6.997-2.898s-5.077.955-7.008 2.898c-1.932 1.932-2.898 4.279-2.898 7.008 0 2.73.966 5.065 2.898 6.997a10.217 10.217 0 0 0 1.931 1.527c1.505.921 3.201 1.382 5.077 1.382 2.74 0 5.065-.977 6.997-2.91 1.932-1.93 2.92-4.267 2.92-6.996 0-1.887-.46-3.583-1.393-5.088zM87.204 89.211a9.875 9.875 0 0 0-1.538-1.921c-1.932-1.943-4.257-2.898-6.986-2.898-2.74 0-5.076.955-7.02 2.898-1.931 1.932-2.886 4.279-2.886 7.008 0 2.74.955 5.065 2.887 7.008a10.69 10.69 0 0 0 1.931 1.528c1.505.91 3.201 1.37 5.088 1.37 2.73 0 5.054-.977 6.986-2.898 1.943-1.943 2.92-4.267 2.92-7.008 0-1.887-.46-3.583-1.382-5.087zm-15.543 24.775c-1.932 1.932-2.887 4.28-2.887 7.008 0 2.74.955 5.077 2.887 7.009a10.35 10.35 0 0 0 1.943 1.538c1.493.91 3.19 1.37 5.076 1.37 2.73 0 5.054-.988 6.986-2.908 1.943-1.932 2.92-4.268 2.92-7.009 0-1.875-.46-3.571-1.393-5.087a10.247 10.247 0 0 0-1.527-1.92c-1.932-1.933-4.257-2.898-6.986-2.898-2.74 0-5.076.965-7.02 2.897zm40.87 1.932a10.285 10.285 0 0 0-1.54-1.932c-1.93-1.932-4.256-2.897-6.996-2.897s-5.077.965-7.008 2.897c-1.932 1.932-2.898 4.28-2.898 7.008 0 2.74.966 5.077 2.898 7.009a10.217 10.217 0 0 0 1.931 1.527c1.505.92 3.201 1.381 5.077 1.381 2.74 0 5.065-.988 6.997-2.908 1.932-1.932 2.92-4.268 2.92-7.009 0-1.875-.46-3.571-1.382-5.076zm0 26.696a10.285 10.285 0 0 0-1.54-1.932c-1.93-1.92-4.256-2.897-6.996-2.897s-5.077.977-7.008 2.897c-1.932 1.943-2.898 4.28-2.898 7.02 0 2.729.966 5.065 2.898 6.997a10.247 10.247 0 0 0 1.92 1.527c1.505.921 3.201 1.382 5.088 1.382 2.74 0 5.065-.978 6.997-2.91 1.932-1.931 2.92-4.267 2.92-6.996 0-1.876-.46-3.572-1.382-5.088zm-25.327 0a10.286 10.286 0 0 0-1.538-1.932c-1.932-1.92-4.257-2.897-6.986-2.897-2.74 0-5.076.977-7.02 2.897-1.931 1.943-2.886 4.28-2.886 7.02 0 2.729.955 5.065 2.887 6.997a10.286 10.286 0 0 0 1.931 1.538c1.505.91 3.201 1.37 5.088 1.37 2.73 0 5.054-.977 6.986-2.908 1.943-1.932 2.92-4.268 2.92-6.997 0-1.887-.46-3.583-1.382-5.088zm-25.326 0a10.69 10.69 0 0 0-1.527-1.932c-1.943-1.92-4.257-2.897-6.997-2.897s-5.076.977-7.008 2.897c-1.943 1.943-2.898 4.28-2.898 7.02 0 2.729.955 5.065 2.898 6.997a9.939 9.939 0 0 0 1.932 1.538c1.493.91 3.19 1.37 5.076 1.37 2.74 0 5.054-.977 6.997-2.908 1.932-1.932 2.909-4.268 2.909-6.997 0-1.887-.46-3.583-1.382-5.088zm26.708 31.784c0-1.887-.46-3.583-1.382-5.088a10.286 10.286 0 0 0-1.538-1.931c-1.932-1.92-4.257-2.887-6.986-2.887-2.74 0-5.076.966-7.02 2.887-1.931 1.943-2.886 4.279-2.886 7.019 0 2.73.955 5.065 2.887 6.997a10.285 10.285 0 0 0 1.931 1.539c1.505.91 3.201 1.37 5.088 1.37 2.73 0 5.054-.977 6.986-2.909 1.943-1.932 2.92-4.268 2.92-6.997zm23.944-5.088a10.285 10.285 0 0 0-1.538-1.931c-1.932-1.92-4.257-2.887-6.997-2.887s-5.077.966-7.008 2.887c-1.932 1.943-2.898 4.279-2.898 7.019 0 2.73.966 5.065 2.898 6.997a10.247 10.247 0 0 0 1.92 1.527c1.505.921 3.201 1.382 5.088 1.382 2.74 0 5.065-.977 6.997-2.909 1.932-1.932 2.92-4.268 2.92-6.997 0-1.876-.46-3.571-1.382-5.088z" id="path149" fill="#045"/></g></g></g></svg>