<svg xmlns:osb="http://www.openswatchbook.org/uri/2009/osb" xmlns="http://www.w3.org/2000/svg" xmlns:xlink="http://www.w3.org/1999/xlink" width="48" height="48" version="1.1" id="svg38"><defs id="defs22"><linearGradient id="linearGradient4488"><stop id="stop4490" offset="0" stop-color="#000" stop-opacity=".047"/><stop id="stop4492" offset="1" stop-color="#000" stop-opacity="0"/></linearGradient><style id="style4511"/><style id="style4511-26"/><style id="style4511-9"/><style id="style4552"/><style id="style4511-2"/><linearGradient xlink:href="#linearGradient4488" id="linearGradient4540" gradientUnits="userSpaceOnUse" gradientTransform="translate(-62.889 1.994) scale(.3038)" x1="288.112" y1="141.785" x2="287.575" y2="79.008"/><linearGradient osb:paint="solid" id="linearGradient5293"><stop id="stop5295" offset="0" stop-color="#9a89c0" stop-opacity="1"/></linearGradient></defs><style id="style4485" type="text/css"/><path id="path4516" d="M2.75 26.22v1.67c0 9.573 5.583 17.281 17.146 17.281h6.93c15.132 0 17.836-11.322 17.836-17.282v-1.668c0 5.96-2.704 17.282-17.836 17.282h-6.93C8.333 43.503 2.75 35.795 2.75 26.22z" opacity="1" fill="url(#linearGradient4540)" fill-opacity="1" stroke="none" stroke-width="1.1" stroke-linecap="square" stroke-linejoin="bevel" stroke-miterlimit="4" stroke-dasharray="none" stroke-dashoffset="0" stroke-opacity=".078"/><path id="path4518" d="M19.363 2.742h8.495c13.908 0 16.804 11.247 16.804 17.282v7.124c0 5.96-2.704 17.282-17.836 17.282h-6.93C8.333 44.43 2.75 36.722 2.75 27.148v-7.124c0-9.574 5.47-17.282 16.613-17.282z" opacity="1" fill="#e6e6e6" fill-opacity="1" stroke="#000" stroke-width=".334" stroke-linecap="square" stroke-linejoin="bevel" stroke-miterlimit="4" stroke-dasharray="none" stroke-dashoffset="0" stroke-opacity=".078"/><g transform="matrix(.4461 0 0 .458 1.958 1.982)" id="g4650"><path d="M40.93 70.69c-.38-8.17-1.038-42.555-9.85-48.582-.896-.284-.614-.617.688-.812 3.192-.479 10.372.438 14.744 1.882 9.172 3.03 16.39 9.933 18.647 17.833.85 2.977.843 8.052-.016 10.8-2.09 6.686-7.015 12.276-13.809 15.675-2.382 1.191-6.645 2.733-9.185 3.323-2.158.5-2.222.494-1.218-.119z" id="path4619" fill="#c4ccde" fill-opacity="1" stroke-width=".262"/><path d="M42.383 61.41c-.362-.362-.098-.853.457-.853 1.394 0 4.618-2.813 6.046-5.275 2.655-4.577 1.736-9.582-2.497-13.601-1.054-1-2.271-1.996-2.706-2.212-.435-.217-.825-.631-.867-.921-.429-2.953-3.269-8.855-5.738-11.926-1.17-1.456-2.393-2.178-2.111-2.242.762-.175 6.631.908 9.037 1.7 7.426 2.444 13.199 8.733 13.99 15.243.433 3.551-.329 7.449-2.039 10.43-1.691 2.947-5.897 6.627-9.579 8.38-2.041.973-3.751 1.519-3.993 1.277z" id="path4632" fill="#8495ba" fill-opacity="1" stroke-width=".264"/><path d="M33.855 71.344c-.146-.05-.726-.167-1.288-.261l-1.021-.171 1.434-1.513c3.606-3.801 5.175-7.459 5.796-13.512.749-7.29-1.428-13.378-6.64-18.577l-1.6-1.595-.002-7.128-.002-7.128 1.662.873c4.018 2.11 7.942 7.486 10.045 13.765 1.005 2.997 1.004 3.875-.004 5.361-.436.644-.795 1.384-.797 1.646-.007.727.925 2.417 3.153 5.714 2.814 4.165 3.03 4.537 2.87 4.953-.077.202-.913.624-1.857.938-2.159.719-2.693 1.265-2.473 2.53l.323 1.855c.13.74.055.977-.399 1.26-.65.406-.733 1.34-.163 1.814.347.288.33.422-.142 1.084-.488.684-.522 1.01-.365 3.493.16 2.546.133 2.788-.402 3.46-.316.397-1.017.845-1.56.995-.895.249-5.933.36-6.568.144z" id="path4606" fill="#445275" fill-opacity="1" stroke-width=".266"/><g id="svg3428_copy" transform="translate(12.67 13.15) scale(.17711)"><linearGradient gradientTransform="translate(0 -391)" y2="416.493" x2="161.322" y1="765.269" x1="240.563" gradientUnits="userSpaceOnUse" id="linearGradient4531"><stop id="stop4527" offset="0" stop-color="#5d1f0e"/><stop id="stop4529" offset="1" stop-color="#d09737"/></linearGradient><radialGradient gradientUnits="userSpaceOnUse" gradientTransform="matrix(.9774 .2114 -.1266 .5851 .87 -343.185)" fy="598.069" fx="127.527" r="304.651" cy="598.875" cx="131.414" id="radialGradient4542"><stop id="stop4534" offset="0" stop-color="#fff" stop-opacity="0"/><stop id="stop4536" offset=".466" stop-color="#fff" stop-opacity=".08"/><stop id="stop4538" offset=".986" stop-color="#fff" stop-opacity=".214"/><stop id="stop4540" offset="1" stop-color="#fff" stop-opacity="0"/></radialGradient><path d="M138.729 375.748c-6.897-.68-17.83-2.331-24.295-3.672-15.435-3.199-43.888-12.086-43.888-13.708 0-2.587 8.753-3.355 17.183-1.507a70816.01 70816.01 0 0 0 18.868 4.133c39.636 8.675 86.154 6.253 123.394-6.426 30.18-10.276 71.302-36.352 90.611-57.46 17.263-18.87 29.065-40.201 35.497-64.157 5.148-19.172 4.842-49.479-.71-70.465-11.534-43.594-38.252-77.793-79.914-102.288-39.546-23.252-80.87-33.526-128.125-31.856-23.59.834-41.748 3.181-44.407 5.742-.716.69-1.222 21.969-1.123 47.287l.178 46.034 8.273 8.621c11.908 12.41 15.92 22.264 15.91 39.07-.01 16.137-4.242 26.82-14.774 37.293-14.527 14.448-33.599 19.103-53.5 13.058-9.915-3.012-12.692-4.742-21.081-13.137-7.26-7.265-10.38-11.811-12.55-18.289-3.305-9.867-3.795-25.998-1.075-35.36 2.671-9.19 10.62-20.423 17.968-25.386 14.302-9.662 14.023-9.075 21.392-45.055 7.883-38.492 9.82-44.651 16.406-52.152 6.13-6.98 13.419-10.192 32.332-14.245 62.61-13.42 124.402-4.233 174.254 25.904 33.58 20.3 66.352 54.03 81.221 83.597 32.383 64.39 16.511 138.023-40.688 188.76-48.335 42.874-115.275 62.762-187.357 55.664z" id="path4593" fill="#354159" fill-opacity="1" stroke-width="1.567"/></g><circle id="path4634" cx="24.301" cy="44.897" r="6" opacity="1" fill="#49bd2e" fill-opacity="1" stroke="none" stroke-width="1.924" stroke-miterlimit="4" stroke-dasharray="none" stroke-opacity="1"/></g></svg>