<svg xmlns="http://www.w3.org/2000/svg" xmlns:xlink="http://www.w3.org/1999/xlink" width="48" height="48" version="1.1" id="svg38"><defs id="defs22"><linearGradient id="linearGradient4488"><stop id="stop4490" offset="0" stop-color="#000" stop-opacity=".047"/><stop id="stop4492" offset="1" stop-color="#000" stop-opacity="0"/></linearGradient><style id="style4511"/><style id="style4511-26"/><style id="style4511-9"/><style id="style4552"/><linearGradient id="e-1" y1="41.22" x1="24.392" y2="25.343" x2="20.643" gradientUnits="userSpaceOnUse"><stop stop-color="#334545" id="stop22-8"/><stop offset="1" stop-color="#536161" id="stop24-7"/></linearGradient><style id="style4511-2"/><linearGradient gradientTransform="matrix(.3082 0 0 .3038 -64.056 2.216)" xlink:href="#linearGradient4488" id="linearGradient4160" x1="288.112" y1="141.785" x2="287.575" y2="79.008" gradientUnits="userSpaceOnUse"/><clipPath id="clipPath-037453546"/><linearGradient gradientTransform="matrix(2.97732 0 0 2.98678 -356.17 -793.748)" y2="268.33" x2="0" y1="279.1" gradientUnits="userSpaceOnUse" id="linear0"><stop id="stop367" stop-opacity="1" stop-color="#c8c8c8"/><stop id="stop369" stop-opacity="1" stop-color="#eaeaea" offset="1"/></linearGradient><linearGradient xlink:href="#e-1" id="linearGradient1413" x1="2.367" y1="23.808" x2="45.224" y2="23.808" gradientUnits="userSpaceOnUse"/></defs><style id="style4485" type="text/css"/><path d="M2.535 26.443v1.668c0 9.575 5.664 17.282 17.394 17.282h7.031c15.352 0 18.095-11.322 18.095-17.282v-1.668c0 5.96-2.743 17.282-18.095 17.282h-7.03c-11.73 0-17.395-7.708-17.395-17.282z" id="path4147" opacity="1" fill="url(#linearGradient4160)" fill-opacity="1" stroke="none" stroke-width="1.108" stroke-linecap="square" stroke-linejoin="bevel" stroke-miterlimit="4" stroke-dasharray="none" stroke-dashoffset="0" stroke-opacity=".078"/><path d="M19.389 2.965h8.618c14.11 0 17.048 11.246 17.048 17.282v7.123c0 5.96-2.743 17.282-18.095 17.282h-7.03c-11.73 0-17.395-7.708-17.395-17.282v-7.123c0-9.575 5.55-17.282 16.854-17.282z" id="rect4144" opacity="1" fill="url(#linearGradient1413)" fill-opacity="1" stroke="#000" stroke-width=".337" stroke-linecap="square" stroke-linejoin="bevel" stroke-miterlimit="4" stroke-dasharray="none" stroke-dashoffset="0" stroke-opacity=".078"/><path id="path432" d="M23.795 7.791c8.814 0 15.961 7.17 15.961 16.017 0 8.842-7.147 16.013-15.961 16.013-8.819 0-15.967-7.17-15.967-16.013 0-8.847 7.148-16.017 15.967-16.017m0 0" fill="url(#linear0)" fill-rule="evenodd" stroke="none" stroke-width="1.066"/><path id="path434" d="M35 35.282a16.453 16.505 0 0 0 3.483-5.202c.412-.976.724-1.998.94-3.061.212-1.064.33-2.165.33-3.287h-11.39a4.95 4.95 0 0 1-.382 1.91 4.788 4.803 0 0 1-1.04 1.552l8.062 8.087m-.004 0" fill="#fff" fill-opacity=".498" fill-rule="nonzero" stroke="none" stroke-width="1.066"/><path id="path436" d="M12.614 12.37a16.097 16.148 0 0 0-1.974 2.416 16.165 16.217 0 0 0-1.493 2.77 15.73 15.73 0 0 0-.935 3.045 16.296 16.348 0 0 0-.33 3.279h11.352c0-.676.133-1.322.382-1.902a4.832 4.848 0 0 1 1.035-1.547l-8.024-8.055m-.013-.004" fill="#fff" fill-opacity=".498" fill-rule="nonzero" stroke="none" stroke-width="1.066"/><path id="path438" d="M28.36 23.808a4.561 4.575 0 1 1-9.121 0 4.561 4.575 0 1 1 9.122 0m0 0" fill="#999" fill-opacity=".498" fill-rule="nonzero" stroke="none" stroke-width="1.066"/><path id="path440" d="M19.665 25.69L9.258 30.435a15.926 15.976 0 0 0 3.256 4.696l8.05-8.079a4.545 4.56 0 0 1-.898-1.36m0-.004" fill="#fff" fill-opacity=".498" fill-rule="nonzero" stroke="none" stroke-width="1.066"/><path id="path442" d="M35.08 12.487l-8.054 8.075c.387.388.674.855.903 1.36l10.407-4.747a16.062 16.113 0 0 0-3.257-4.693m0 .004" fill="#fff" fill-opacity=".498" fill-rule="nonzero" stroke="none" stroke-width="1.066"/><path id="path444" d="M39.76 23.808a16.07 16.07 0 0 1-.569 4.242l-15.396-4.242m15.966 0" fill="#999" fill-opacity=".498" fill-rule="nonzero" stroke="none" stroke-width="1.066"/><path id="path446" d="M7.828 23.808c0-1.435.192-2.862.57-4.242l15.397 4.242m-15.967 0" fill="#999" fill-opacity=".498" fill-rule="nonzero" stroke="none" stroke-width="1.066"/><path id="path448" d="M23.795 7.791c1.43 0 2.852.192 4.229.571l-4.23 15.446m0-16.017" fill="#b7c8e4" fill-opacity="1" fill-rule="nonzero" stroke="none" stroke-width="1.066"/><path id="path450" d="M23.795 39.825c-1.43 0-2.853-.192-4.23-.571l4.23-15.446m0 16.017" fill="#b7c8e4" fill-opacity="1" fill-rule="nonzero" stroke="none" stroke-width="1.066"/><path id="path452" d="M23.795 21.522a2.29 2.29 0 0 1 1.613.663c.412.413.666.989.666 1.623a2.278 2.285 0 0 1-.666 1.619 2.278 2.285 0 0 1-1.613.667 2.281 2.288 0 0 1-1.618-.667 2.293 2.3 0 0 1-.661-1.619c0-.634.253-1.21.66-1.623a2.296 2.303 0 0 1 1.619-.663m0 0" fill="#fff" fill-opacity=".498" fill-rule="nonzero" stroke="none" stroke-width="1.066"/><path id="path454" d="M26.988 26.449c2.008-1.444 3.57-1.786 5.854-1.248v5.371c-.112.213-.565 1.256 1.592 1.84V21.86c-4.05-.367-6.187-.35-9.047 1.506v8.45c.728-1.092-2.969 2.587 1.597 1.556m.004-6.923" fill="#2d4c78" fill-opacity="1" fill-rule="nonzero" stroke="none" stroke-width="1.066"/><path id="path456" d="M26.988 33.418a2.129 2.136 0 1 1-4.257.001 2.129 2.136 0 0 1 4.257 0m0 0" fill="#2d4c78" fill-opacity="1" fill-rule="nonzero" stroke="none" stroke-width="1.066"/><path id="path458" d="M34.439 32.35a2.129 2.136 0 1 1-4.257.001 2.129 2.136 0 0 1 4.257 0m0 0" fill="#2d4c78" fill-opacity="1" fill-rule="nonzero" stroke="none" stroke-width="1.066"/></svg>