<svg xmlns="http://www.w3.org/2000/svg" xmlns:xlink="http://www.w3.org/1999/xlink" width="48" height="48" version="1.1" id="svg38"><defs id="defs22"><linearGradient id="linearGradient4488"><stop id="stop4490" offset="0" stop-color="#000" stop-opacity=".047"/><stop id="stop4492" offset="1" stop-color="#000" stop-opacity="0"/></linearGradient><style id="style4511"/><style id="style4511-26"/><style id="style4511-9"/><style id="style4552"/><style id="style4511-2"/><linearGradient gradientTransform="matrix(.3082 0 0 .3038 -64.056 2.216)" xlink:href="#linearGradient4488" id="linearGradient4160" x1="288.112" y1="141.785" x2="287.575" y2="79.008" gradientUnits="userSpaceOnUse"/></defs><style id="style4485" type="text/css"/><g id="g362" fill-opacity="1"><path id="path4147" d="M2.535 26.443v1.668c0 9.575 5.664 17.282 17.394 17.282h7.031c15.352 0 18.095-11.322 18.095-17.282v-1.668c0 5.96-2.743 17.282-18.095 17.282h-7.03c-11.73 0-17.395-7.708-17.395-17.282z" opacity="1" fill="url(#linearGradient4160)" stroke="none" stroke-width="1.108" stroke-linecap="square" stroke-linejoin="bevel" stroke-miterlimit="4" stroke-dasharray="none" stroke-dashoffset="0" stroke-opacity=".078"/><path id="rect4144" d="M19.389 2.965h8.618c14.11 0 17.048 11.246 17.048 17.282v7.123c0 5.96-2.743 17.282-18.095 17.282h-7.03c-11.73 0-17.395-7.708-17.395-17.282v-7.123c0-9.575 5.55-17.282 16.854-17.282z" opacity="1" fill="#28b3a6" stroke="#000" stroke-width=".337" stroke-linecap="square" stroke-linejoin="bevel" stroke-miterlimit="4" stroke-dasharray="none" stroke-dashoffset="0" stroke-opacity=".078"/><path d="M10.799 21.061c.001-.224.197-.405.439-.404l12.362.05c2.23.01 4.036 1.697 4.026 3.764l-.017 3.339c0 .225-.198.406-.44.405l-.026.001-12.35-.05c-2.22-.01-4.02-1.697-4.01-3.765l.016-3.34zm22.032-.32l3.543.015c.24.001.435.185.434.408l-.017 3.341c-.01 2.067-1.824 3.74-4.047 3.73l-3.533-.014c-.251-.001-.446-.18-.445-.407l.016-3.34c.01-2.067 1.827-3.741 4.05-3.732zm-5.667 8.552l-7.136-.03c-.24 0-.437.182-.439.405l-.032 6.681c-.001.228.195.407.446.408l3.532.015c2.222.009 4.039-1.665 4.049-3.731l.016-3.34c.001-.224-.194-.407-.436-.408zm1.094-14.16c-.012 2.359-2.077 4.263-4.614 4.252-2.536-.01-4.582-1.93-4.57-4.289.01-2.358 2.076-4.261 4.612-4.251 2.536.01 4.583 1.93 4.572 4.288z" id="path6" fill="#fff" stroke-width=".948"/></g></svg>