<svg xmlns="http://www.w3.org/2000/svg" xmlns:xlink="http://www.w3.org/1999/xlink" width="48" height="48" version="1.1" id="svg38"><defs id="defs22"><linearGradient id="linearGradient4488"><stop id="stop4490" offset="0" stop-color="#000" stop-opacity=".047"/><stop id="stop4492" offset="1" stop-color="#000" stop-opacity="0"/></linearGradient><style id="style4511"/><style id="style4511-26"/><style id="style4511-9"/><style id="style4552"/><style id="style4511-2"/><linearGradient gradientTransform="translate(-63.205 2.216) scale(.3038)" xlink:href="#linearGradient4488" id="linearGradient4160" x1="288.112" y1="141.785" x2="287.575" y2="79.008" gradientUnits="userSpaceOnUse"/><clipPath id="clipPath-017246326"/></defs><style id="style4485" type="text/css"/><path d="M2.433 26.443v1.668c0 9.575 5.583 17.282 17.146 17.282h6.93c15.133 0 17.837-11.322 17.837-17.282v-1.668c0 5.96-2.704 17.282-17.837 17.282h-6.93c-11.563 0-17.146-7.708-17.146-17.282z" id="path4147" opacity="1" fill="url(#linearGradient4160)" fill-opacity="1" stroke="none" stroke-width="1.1" stroke-linecap="square" stroke-linejoin="bevel" stroke-miterlimit="4" stroke-dasharray="none" stroke-dashoffset="0" stroke-opacity=".078"/><path d="M19.046 2.965h8.495c13.908 0 16.805 11.246 16.805 17.282v7.123c0 5.96-2.704 17.282-17.837 17.282h-6.93c-11.562 0-17.146-7.708-17.146-17.282v-7.123c0-9.575 5.47-17.282 16.613-17.282z" id="rect4144" opacity="1" fill="#e3e7ea" fill-opacity="1" stroke="#000" stroke-width=".334" stroke-linecap="square" stroke-linejoin="bevel" stroke-miterlimit="4" stroke-dasharray="none" stroke-dashoffset="0" stroke-opacity=".078"/><path id="path1255" d="M34.146 26.572l-1.987-.512a3.152 3.054 0 0 0-3.855 2.15l-1.36 4.919a3.15 3.053 0 0 0 2.233 3.727l1.987.513a3.14 3.042 0 0 0 3.847-2.151l1.355-4.918a3.14 3.042 0 0 0-2.22-3.728m0 0" fill="#2e3436" fill-opacity="1" fill-rule="nonzero" stroke="none" stroke-width="1.068"/><path id="path1257" d="M33.538 22.759l-1.407-.366a2.223 2.154 0 0 0-2.72 1.523l-.966 3.481a2.227 2.157 0 0 0 1.576 2.64l1.402.366a2.223 2.154 0 0 0 2.724-1.523l.962-3.481a2.223 2.154 0 0 0-1.571-2.64m0 0" fill="#2e3436" fill-opacity="1" fill-rule="nonzero" stroke="none" stroke-width="1.068"/><path id="path1259" d="M15.709 21.409l1.406-.366a2.228 2.158 0 0 1 2.725 1.523l.962 3.481a2.223 2.154 0 0 1-1.572 2.64l-1.406.365a2.223 2.154 0 0 1-2.725-1.522l-.962-3.482a2.221 2.152 0 0 1 1.572-2.64m0 0" fill="#2e3436" fill-opacity="1" fill-rule="nonzero" stroke="none" stroke-width="1.068"/><path id="path1261" d="M27.92 10.31c-3.113-.259-6.295 1.97-7.524 5.5a9.345 9.345 0 0 0-.39 1.502v.017a9.56 9.262 0 0 0-1.919 3.198c-1.533 4.404.462 9.03 4.445 10.332 3.982 1.3 8.443-1.207 9.972-5.612.572-1.638.67-3.308.347-4.827.064-.156.127-.308.182-.472 1.403-4.035-.288-8.239-3.778-9.38a5.62 5.445 0 0 0-1.334-.258m0 0" fill="#121919" fill-opacity="1" fill-rule="nonzero" stroke="none" stroke-width="1.068"/><path id="path1263" d="M25.84 12.218c-1.042.024-2.07.797-2.495 1.979-.364 1.026-.182 2.073.394 2.754-2 .653-3.787 2.356-4.627 4.705-1.313 3.67.187 7.5 3.343 8.559 3.156 1.063 6.778-1.051 8.092-4.72.97-2.718.398-5.518-1.242-7.225 1.169.222 2.283-.267 2.571-1.17.314-.985-.478-2.077-1.753-2.463-.759-.226-1.513-.148-2.072.16.055-1.129-.509-2.143-1.496-2.475a1.898 1.839 0 0 0-.711-.103m1.449 4.516c.038.094.085.184.135.279-.071-.028-.148-.062-.224-.09-.025-.009-.051-.021-.076-.029.055-.053.114-.103.165-.152m0 0" fill="#ececec" fill-opacity="1" fill-rule="nonzero" stroke="none" stroke-width="1.068"/><path id="path1265" d="M27.34 15.88c-.063.315-.246.59-.474.71a.462.448 0 0 1-.627-.136c-.153-.205-.2-.525-.114-.842.11-.472.47-.796.805-.723.339.074.52.513.41.99m0 0" fill="#2e3436" fill-opacity="1" fill-rule="nonzero" stroke="none" stroke-width="1.068"/><path id="path1267" d="M28.937 16.348c-.064.32-.246.591-.475.714a.46.446 0 0 1-.622-.135c-.158-.205-.2-.526-.114-.842.106-.472.466-.796.804-.726.336.074.518.517.407.989m0 0" fill="#2e3436" fill-opacity="1" fill-rule="nonzero" stroke="none" stroke-width="1.068"/><path id="path1269" d="M24.574 17.033s1.67-.336 2.644.066c.97.407 1.598 1.417 1.598 1.417s-1.67 2.323-3.127 1.634c-1.458-.694-1.11-3.116-1.11-3.116m-.004 0" fill="#ffb30a" fill-opacity="1" fill-rule="nonzero" stroke="none" stroke-width="1.068"/><path id="path1271" d="M20.13 17.58s.135 1.588.555 2.98c.415 1.395.695 3.616-.487 2.474-1.182-1.145-1.805-2.562-1.182-3.772.626-1.21 1.113-1.684 1.113-1.684m0 0" fill="#121919" fill-opacity="1" fill-rule="nonzero" stroke="none" stroke-width="1.068"/><path id="path1273" d="M32.42 19.946s-1.385 1.585-2.919 2.758c-1.53 1.174-3.558 3.33-1.415 2.98 2.151-.348 3.918-1.39 4.198-3.135.284-1.745.136-2.603.136-2.603m0 0" fill="#121919" fill-opacity="1" fill-rule="nonzero" stroke="none" stroke-width="1.068"/><path id="path1275" d="M24.083 21.1c-1.987 0-3.614 1.556-3.614 3.485a3.622 3.51 0 0 0 3.614 3.502 3.608 3.496 0 0 0 3.6-3.502 3.594 3.482 0 0 0-3.6-3.484m.046.936c.352.008.7.09 1.013.218 2.733.988 1.525 5.364-1.36 4.864-3.038-.148-3.025-4.897 0-5.07.114-.016.233-.016.347-.012m0 0" fill="#2e3436" fill-opacity="1" fill-rule="nonzero" stroke="none" stroke-width="1.068"/><path id="path1277" d="M25.823 24.615a1.771 1.716 0 1 1-3.542 0c0-.948.792-1.72 1.771-1.72.979 0 1.771.77 1.771 1.72m0 0" fill="#2e3436" fill-opacity="1" fill-rule="nonzero" stroke="none" stroke-width="1.068"/><path id="path1279" d="M12.084 26.712l1.987-.513a3.143 3.045 0 0 1 3.847 2.151l1.36 4.918a3.143 3.045 0 0 1-2.22 3.728l-1.987.513a3.138 3.04 0 0 1-3.847-2.152l-1.36-4.917a3.143 3.045 0 0 1 2.22-3.728m0 0" fill="#2e3436" fill-opacity="1" fill-rule="nonzero" stroke="none" stroke-width="1.068"/><path id="path1281" d="M21.24 28.551c0 2.229-1.74 4.04-3.894 4.04-2.147 0-3.889-1.811-3.889-4.04 0-2.233 1.74-4.04 3.89-4.04 2.151 0 3.893 1.807 3.893 4.04m0 0" fill="#ffb30a" fill-opacity="1" fill-rule="nonzero" stroke="none" stroke-width="1.068"/><path id="path1283" d="M33.181 29.766c0 2.233-1.74 4.04-3.89 4.04-2.147 0-3.893-1.807-3.893-4.04 0-2.229 1.745-4.04 3.894-4.04 2.147 0 3.889 1.811 3.889 4.04m0 0" fill="#ffb30a" fill-opacity="1" fill-rule="nonzero" stroke="none" stroke-width="1.068"/><path id="path1285" d="M16.558 23.917c-.123-.004-.225 0-.318.013-.737.098-.44 1.38-.44 1.38s1.131-.046 2.165-.046c.707 0 .99.242 1.102.394-1.45 1.133-3.461 3.489-3.461 4.983 0 1.548.347 5.246.347 5.246s3.275.336 7.516.336c4.24 0 7.85-.599 7.85-.599s.207-2.224.347-3.473c.14-1.251-.839-3.805-1.602-4.75-.42-.516-1.275-1.186-1.983-1.711.098-.153.37-.427 1.119-.427 1.033 0 2.164.045 2.164.045s.296-1.28-.44-1.38c-.737-.094-2.554.325-2.554.325l-.682 1.141c-.373-.266-.678-.48-.678-.48s-1.25-.607-3.054-.678c-1.81-.066-3.265.205-3.265.205l-1.245.924-.653-1.113s-1.398-.32-2.237-.336m-.005 0" fill="#e25136" fill-opacity="1" fill-rule="nonzero" stroke="none" stroke-width="1.068"/><path id="path1287" d="M19.553 29.023h8.08a2.223 2.154 0 0 1 2.224 2.155v1.749a2.223 2.154 0 0 1-2.225 2.155h-8.079a2.223 2.154 0 0 1-2.224-2.155v-1.749a2.223 2.154 0 0 1 2.224-2.155m0 0" fill="#2e3436" fill-opacity=".675" fill-rule="nonzero" stroke="none" stroke-width="1.068"/></svg>