<svg xmlns:osb="http://www.openswatchbook.org/uri/2009/osb" xmlns="http://www.w3.org/2000/svg" xmlns:xlink="http://www.w3.org/1999/xlink" width="48" height="48" version="1.1" id="svg38"><defs id="defs22"><linearGradient id="linearGradient4488"><stop id="stop4490" offset="0" stop-color="#000" stop-opacity=".047"/><stop id="stop4492" offset="1" stop-color="#000" stop-opacity="0"/></linearGradient><style id="style4511"/><style id="style4511-26"/><style id="style4511-9"/><style id="style4552"/><style id="style4511-2"/><linearGradient xlink:href="#linearGradient4488" id="linearGradient4540" gradientUnits="userSpaceOnUse" gradientTransform="matrix(.30902 0 0 .31108 -64.017 1.976)" x1="288.112" y1="141.785" x2="287.575" y2="79.008"/><linearGradient osb:paint="solid" id="linearGradient5293"><stop id="stop5295" offset="0" stop-color="#9a89c0" stop-opacity="1"/></linearGradient></defs><style id="style4485" type="text/css"/><path id="path4516" d="M2.75 26.783v1.709c0 9.804 5.68 17.696 17.44 17.696h7.05c15.392 0 18.143-11.594 18.143-17.696v-1.709c0 6.103-2.75 17.697-18.143 17.697h-7.05c-11.76 0-17.44-7.893-17.44-17.697z" opacity="1" fill="url(#linearGradient4540)" fill-opacity="1" stroke="none" stroke-width="1.123" stroke-linecap="square" stroke-linejoin="bevel" stroke-miterlimit="4" stroke-dasharray="none" stroke-dashoffset="0" stroke-opacity=".078"/><path id="path4518" d="M19.649 2.742h8.64c14.148 0 17.094 11.517 17.094 17.697v7.294c0 6.102-2.75 17.696-18.143 17.696h-7.05c-11.76 0-17.44-7.893-17.44-17.696v-7.294c0-9.804 5.564-17.697 16.899-17.697z" opacity="1" fill="#1cb7eb" fill-opacity="1" stroke="#000" stroke-width=".341" stroke-linecap="square" stroke-linejoin="bevel" stroke-miterlimit="4" stroke-dasharray="none" stroke-dashoffset="0" stroke-opacity=".078"/><g id="g1008" transform="translate(.623 .596)"><g id="g1006"><path d="M36.8 15.4c-.9.5-2 .8-3 .9 1.1-.7 1.9-1.8 2.3-3.1-1 .6-2.1 1.1-3.4 1.4-1-1.1-2.3-1.8-3.8-1.8-2.9 0-5.3 2.5-5.3 5.7 0 .4 0 .9.1 1.3-4.4-.2-8.3-2.5-10.9-5.9-.5.8-.7 1.8-.7 2.9 0 2 .9 3.7 2.3 4.7-.9 0-1.7-.3-2.4-.7v.1c0 2.7 1.8 5 4.2 5.6-.4.1-.9.2-1.4.2-.3 0-.7 0-1-.1.7 2.3 2.6 3.9 4.9 3.9-1.8 1.5-4.1 2.4-6.5 2.4-.4 0-.8 0-1.3-.1 2.3 1.6 5.1 2.6 8.1 2.6 9.7 0 15-8.6 15-16.1v-.7c1.2-1 2.1-2 2.8-3.2z" id="path1004" fill="#fff"/></g></g></svg>