<svg xmlns:osb="http://www.openswatchbook.org/uri/2009/osb" xmlns="http://www.w3.org/2000/svg" width="48" height="48" version="1.1" id="svg38"><defs id="defs22"><style id="style4511"/><style id="style4511-26"/><style id="style4511-9"/><style id="style4552"/><style id="style4511-2"/><linearGradient osb:paint="solid" id="linearGradient5293"><stop id="stop5295" offset="0" stop-color="#9a89c0" stop-opacity="1"/></linearGradient></defs><style id="style4485" type="text/css"/><path id="path4518" d="M3.066 28.69v-8.577c0-14.042 11.247-16.967 17.282-16.967h7.123c5.96 0 17.282 2.73 17.282 18.01v6.996c0 11.674-7.708 17.312-17.282 17.312h-7.123c-9.574 0-17.282-5.523-17.282-16.774z" opacity="1" fill="#e6e6e6" fill-opacity="1" stroke="#000" stroke-width=".336" stroke-linecap="square" stroke-linejoin="bevel" stroke-miterlimit="4" stroke-dasharray="none" stroke-dashoffset="0" stroke-opacity=".078"/><g transform="matrix(.98387 0 0 .89727 .297 2.77)" id="g4971" opacity=".6"><path d="M35.18 10H12.819l-1.016 11h1.973c.271-1.94.62-3.632 1.047-4.873 1.008-2.83 2.565-4.104 5.202-4.104 1.28 0 1.822.426 1.822 1.396v20.736c0 1.629-.365 1.513-3.49 1.823h-.456V38h12.197v-2.022h-.455c-3.103 0-3.452-.194-3.452-1.823V13.419c0-.97.543-1.396 1.823-1.396 2.366 0 3.961 1.118 4.93 3.445.582 1.435.97 3.321 1.28 5.532h1.973z" id="path4969"/></g></svg>