<svg xmlns="http://www.w3.org/2000/svg" xmlns:xlink="http://www.w3.org/1999/xlink" width="48" height="48" version="1.1" id="svg38"><defs id="defs22"><linearGradient id="linearGradient4488"><stop id="stop4490" offset="0" stop-color="#000" stop-opacity=".047"/><stop id="stop4492" offset="1" stop-color="#000" stop-opacity="0"/></linearGradient><style id="style4511"/><style id="style4511-26"/><style id="style4511-9"/><style id="style4552"/><linearGradient id="b-2-9" y1="540.92" y2="522.55" x2="0" gradientUnits="userSpaceOnUse" gradientTransform="matrix(1 0 0 1.14286 0 -77.4)"><stop stop-color="#197cf1" id="stop7-91"/><stop offset="1" stop-color="#05a0eb" id="stop9-2"/></linearGradient><style id="style4511-2"/><linearGradient gradientTransform="matrix(.3071 0 0 .30202 -63.408 2.469)" xlink:href="#linearGradient4488" id="linearGradient4160" x1="288.112" y1="141.785" x2="287.575" y2="79.008" gradientUnits="userSpaceOnUse"/><clipPath id="clipPath-713493829"/><linearGradient xlink:href="#b-2-9" id="linearGradient1587" x1="2.778" y1="23.935" x2="45.482" y2="23.935" gradientUnits="userSpaceOnUse"/></defs><style id="style4485" type="text/css"/><path d="M2.945 26.554v1.658c0 9.519 5.644 17.181 17.333 17.181h7.006c15.297 0 18.03-11.256 18.03-17.18v-1.66c0 5.925-2.733 17.182-18.03 17.182h-7.006c-11.689 0-17.333-7.663-17.333-17.181z" id="path4147" opacity="1" fill="url(#linearGradient4160)" fill-opacity="1" stroke="none" stroke-width="1.103" stroke-linecap="square" stroke-linejoin="bevel" stroke-miterlimit="4" stroke-dasharray="none" stroke-dashoffset="0" stroke-opacity=".078"/><path d="M19.74 3.213h8.587c14.059 0 16.987 11.181 16.987 17.18v7.082c0 5.925-2.733 17.181-18.03 17.181h-7.006c-11.689 0-17.333-7.662-17.333-17.18v-7.082c0-9.518 5.53-17.181 16.794-17.181z" id="rect4144" opacity="1" fill="url(#linearGradient1587)" fill-opacity="1" stroke="#000" stroke-width=".335" stroke-linecap="square" stroke-linejoin="bevel" stroke-miterlimit="4" stroke-dasharray="none" stroke-dashoffset="0" stroke-opacity=".078"/><path id="path1497" d="M12.586 20.98c-.547.027-.926.154-.926.755V34.32c0 .797.67 1.436 1.51 1.436h21.893c.843 0 1.536-.639 1.536-1.436V21.735c0-.8-.693-.755-1.536-.755H13.17c-.21 0-.405-.011-.584 0m0 0" fill="#f9f9f9" fill-opacity="1" fill-rule="nonzero" stroke="none" stroke-width=".972"/><path id="path1499" d="M15.545 14.48l-3.117 4.53h10.738v-6.897h-5.283c-.78 0-2.339 2.367-2.339 2.367m9.533-2.367v6.897h10.731l-3.117-4.53s-1.559-2.367-2.342-2.367m-5.268 0" fill="#f9f9f9" fill-opacity="1" fill-rule="nonzero" stroke="none" stroke-width=".972"/></svg>