<svg xmlns:osb="http://www.openswatchbook.org/uri/2009/osb" xmlns="http://www.w3.org/2000/svg" xmlns:xlink="http://www.w3.org/1999/xlink" width="48" height="48" version="1.1" id="svg38"><defs id="defs22"><linearGradient id="linearGradient4488"><stop id="stop4490" offset="0" stop-color="#000" stop-opacity=".047"/><stop id="stop4492" offset="1" stop-color="#000" stop-opacity="0"/></linearGradient><style id="style4511"/><style id="style4511-26"/><style id="style4511-9"/><style id="style4552"/><style id="style4511-2"/><linearGradient xlink:href="#linearGradient4488" id="linearGradient4540" gradientUnits="userSpaceOnUse" gradientTransform="matrix(.30902 0 0 .3038 -64.017 1.994)" x1="288.112" y1="141.785" x2="287.575" y2="79.008"/><linearGradient osb:paint="solid" id="linearGradient5293"><stop id="stop5295" offset="0" stop-color="#9a89c0" stop-opacity="1"/></linearGradient><linearGradient xlink:href="#linearGradient3764-36753" id="linearGradient1535" x1="2.583" y1="23.586" x2="44.83" y2="23.586" gradientUnits="userSpaceOnUse" gradientTransform="matrix(1.0172 0 0 1 -.047 0)"/><linearGradient gradientTransform="matrix(0 -.9388 .92656 0 -48.196 46.434)" gradientUnits="userSpaceOnUse" x2="47" x1="1" id="linearGradient3764-36753"><stop id="stop469" stop-opacity="1" stop-color="#73cf19"/><stop id="stop471" stop-opacity="1" stop-color="#7de21b" offset="1"/></linearGradient><clipPath id="clipPath-034436465"/></defs><style id="style4485" type="text/css"/><path id="path4516" d="M2.75 26.22v1.67c0 9.573 5.68 17.281 17.44 17.281h7.05c15.392 0 18.143-11.322 18.143-17.282v-1.668c0 5.96-2.75 17.282-18.143 17.282h-7.05c-11.76 0-17.44-7.708-17.44-17.282z" opacity="1" fill="url(#linearGradient4540)" fill-opacity="1" stroke="none" stroke-width="1.109" stroke-linecap="square" stroke-linejoin="bevel" stroke-miterlimit="4" stroke-dasharray="none" stroke-dashoffset="0" stroke-opacity=".078"/><path id="path4518" d="M19.649 2.742h8.64c14.148 0 17.094 11.247 17.094 17.282v7.124c0 5.96-2.75 17.282-18.143 17.282h-7.05c-11.76 0-17.44-7.708-17.44-17.282v-7.124c0-9.574 5.564-17.282 16.899-17.282z" opacity=".95" fill="url(#linearGradient1535)" fill-opacity="1" stroke="#000" stroke-width=".337" stroke-linecap="square" stroke-linejoin="bevel" stroke-miterlimit="4" stroke-dasharray="none" stroke-dashoffset="0" stroke-opacity=".078"/><path id="path514" d="M34.282 23.844c.066 3.55-1.932 6.855-5.228 8.649a10.977 10.703 0 0 1-10.655 0c-3.292-1.794-5.29-5.098-5.229-8.649-.061-3.55 1.936-6.854 5.229-8.648a10.977 10.703 0 0 1 10.655 0c3.29 1.794 5.288 5.098 5.228 8.648m0 0" fill="#191919" fill-opacity="1" fill-rule="nonzero" stroke="none" stroke-width="1.028"/><path id="path516" d="M21.19 8.358c-.326 0-.61.385-.61.892v3c0 .043.028.078.032.122-.899.246-1.766.603-2.572 1.028l-1.997-1.884a1.26 1.229 0 0 0-.408-.258c-.329-.21-.655-.274-.842-.095l-4.098 3.86c-.24.218-.109.694.27 1.055l2.103 1.979c.028.023.04.04.069.064a11.584 11.295 0 0 0-.814 1.69H9.516c-.386 0-.708.174-.846.416a.617.601 0 0 0-.237.448v6.538c0 .377.395.67.916.67h2.876c.11 0 .212-.04.31-.067.228.551.5 1.083.809 1.59-.036.032-.069.067-.11.1l-2.059 1.948c-.3.277-.414.587-.341.828-.037.175-.004.346.106.448l4.064 3.86c.232.218.737.1 1.115-.254l2.104-1.979c.113-.11.17-.23.236-.353a13.1 13.1 0 0 0 2.164.797c-.004.043-.032.083-.032.127v2.963c0 .508.284.924.61.924h5.72c.322 0 .574-.416.574-.924v-2.963c0-.044.005-.084 0-.127.859-.234 1.697-.528 2.474-.924.057.162.147.333.305.48l2.104 1.98c.378.357.854.471 1.086.253l4.098-3.86c.113-.11.147-.293.102-.48.049-.238-.094-.531-.37-.797l-2.066-1.948a1.452 1.416 0 0 0-.342-.254c.273-.464.504-.936.72-1.436.098.023.196.064.305.064h2.84c.521 0 .948-.298.948-.67V20.67c0-.179-.113-.325-.269-.445-.004-.008.005-.027 0-.035-.012-.005-.024-.024-.032-.032-.15-.206-.463-.353-.813-.353H35.81c-.183-.508-.456-.993-.712-1.468.13-.06.252-.143.37-.254l2.103-1.979c.378-.357.468-.833.24-1.055l-4.064-3.86c-.175-.167-.5-.14-.814.031a1.276 1.244 0 0 0-.508.29l-2.062 1.944c-.021.02-.021.047-.033.067a12.498 12.186 0 0 0-2.807-1.151c.005-.044 0-.083 0-.123V9.25c0-.507-.252-.892-.578-.892m1.034 7.108c.329-.02.679.06.98.227a1.629 1.588 0 0 1 .61 2.201c-.468.77-1.49 1.016-2.303.575-.813-.445-1.114-1.4-.642-2.17a1.74 1.696 0 0 1 1.355-.833m-3.93 1.563c.553 0 1.103.044 1.628.159a2.365 2.306 0 0 0 1.22 1.88 2.514 2.451 0 0 0 2.336.067 6.687 6.52 0 0 1 1.891 4.019h-2.913c-.284-1.925-2.043-3.384-4.162-3.384-.549 0-1.07.104-1.554.29L21 17.666a7.36 7.177 0 0 1 3.048-.639m-4.06 1.182l1.453 2.392c-.977.726-1.624 1.86-1.624 3.126 0 1.265.643 2.391 1.624 3.125l-1.453 2.389a7.53 7.342 0 0 1-.98-.766 6.731 6.563 0 0 1-1.761-2.805 2.367 2.308 0 0 0 1.118-1.947c0-.81-.443-1.503-1.118-1.92.337-1.044.915-2.042 1.76-2.837.302-.281.64-.535.981-.766m-4.097 3.919c.939 0 1.724.71 1.724 1.594 0 .885-.785 1.595-1.724 1.595-.94 0-1.697-.71-1.697-1.595 0-.884.757-1.594 1.697-1.594m12.319 2.17h2.913a6.666 6.5 0 0 1-1.891 4.019 2.513 2.45 0 0 0-2.335.067 2.35 2.291 0 0 0-1.221 1.88 7.456 7.27 0 0 1-1.628.159A7.455 7.27 0 0 1 21 29.78l1.456-2.364a4.32 4.32 0 0 0 1.587.29c2.12 0 3.882-1.488 4.162-3.416m.036 4.466a1.693 1.65 0 0 1 1.355.798c.472.765.175 1.756-.638 2.201-.814.445-1.864.194-2.335-.575-.468-.77-.171-1.753.642-2.201a1.77 1.726 0 0 1 .977-.223m0 0" fill="#61b212" fill-opacity="1" fill-rule="nonzero" stroke="none" stroke-width="1.028"/></svg>