<svg xmlns:osb="http://www.openswatchbook.org/uri/2009/osb" xmlns="http://www.w3.org/2000/svg" xmlns:xlink="http://www.w3.org/1999/xlink" width="48" height="48" version="1.1" id="svg38"><defs id="defs22"><linearGradient id="linearGradient4488"><stop id="stop4490" offset="0" stop-color="#000" stop-opacity=".047"/><stop id="stop4492" offset="1" stop-color="#000" stop-opacity="0"/></linearGradient><style id="style4511"/><style id="style4511-26"/><style id="style4511-9"/><style id="style4552"/><style id="style4511-2"/><linearGradient xlink:href="#linearGradient4488" id="linearGradient4540" gradientUnits="userSpaceOnUse" gradientTransform="matrix(.30902 0 0 .3038 -64.017 1.994)" x1="288.112" y1="141.785" x2="287.575" y2="79.008"/><linearGradient osb:paint="solid" id="linearGradient5293"><stop id="stop5295" offset="0" stop-color="#9a89c0" stop-opacity="1"/></linearGradient><linearGradient xlink:href="#linearGradient4290" id="linearGradient1535" x1="2.583" y1="23.586" x2="44.83" y2="23.586" gradientUnits="userSpaceOnUse" gradientTransform="matrix(1.0172 0 0 1 -.047 0)"/><linearGradient id="linearGradient4290"><stop id="stop4292" offset="0" stop-color="#2eaa42" stop-opacity="1"/><stop id="stop4294" offset="1" stop-color="#3fd874" stop-opacity="1"/></linearGradient><filter height="1.096" y="-.048" width="1.096" x="-.048" id="filter971" color-interpolation-filters="sRGB"><feGaussianBlur id="feGaussianBlur973" stdDeviation="1.363"/></filter></defs><style id="style4485" type="text/css"/><path id="path4516" d="M2.75 26.22v1.67c0 9.573 5.68 17.281 17.44 17.281h7.05c15.392 0 18.143-11.322 18.143-17.282v-1.668c0 5.96-2.75 17.282-18.143 17.282h-7.05c-11.76 0-17.44-7.708-17.44-17.282z" opacity="1" fill="url(#linearGradient4540)" fill-opacity="1" stroke="none" stroke-width="1.109" stroke-linecap="square" stroke-linejoin="bevel" stroke-miterlimit="4" stroke-dasharray="none" stroke-dashoffset="0" stroke-opacity=".078"/><path id="path4518" d="M19.649 2.742h8.64c14.148 0 17.094 11.247 17.094 17.282v7.124c0 5.96-2.75 17.282-18.143 17.282h-7.05c-11.76 0-17.44-7.708-17.44-17.282v-7.124c0-9.574 5.564-17.282 16.899-17.282z" opacity="1" fill="url(#linearGradient1535)" fill-opacity="1" stroke="#000" stroke-width=".337" stroke-linecap="square" stroke-linejoin="bevel" stroke-miterlimit="4" stroke-dasharray="none" stroke-dashoffset="0" stroke-opacity=".078"/><g id="layer4" transform="matrix(.41296 0 0 .39755 4.595 5.99)" display="inline" fill="#fff" fill-opacity="1" stroke="none" stroke-width="3.408"><path id="path945" d="M80.4 38.731H63.362v10.223h10.223l-18.742 22.15-17.038-22.15h8.52V25.101h17.037v6.815H80.4v-6.815s0-13.63-12.779-13.63H42.065s-12.779 0-12.779 14.482v26.409h-6.815V28.509H12.248v25.556c0 8.52 8.52 8.52 8.52 8.52h8.518v4.259c0 12.778 12.779 12.778 12.779 12.778H67.62c12.78 0 12.78-12.778 12.78-12.778" opacity=".3" fill="#000" fill-opacity="1" filter="url(#filter971)"/><path d="M80.4 38.731H63.362v10.223h10.223l-18.742 22.15-17.038-22.15h8.52V25.101h17.037v6.815H80.4v-6.815s0-13.63-12.779-13.63H42.065s-12.779 0-12.779 14.482v26.409h-6.815V28.509H12.248v25.556c0 8.52 8.52 8.52 8.52 8.52h8.518v4.259c0 12.778 12.779 12.778 12.779 12.778H67.62c12.78 0 12.78-12.778 12.78-12.778" id="path8" fill="#fff"/></g></svg>