<svg xmlns:osb="http://www.openswatchbook.org/uri/2009/osb" xmlns="http://www.w3.org/2000/svg" xmlns:xlink="http://www.w3.org/1999/xlink" width="48" height="48" version="1.1" id="svg38"><defs id="defs22"><linearGradient id="linearGradient4488"><stop id="stop4490" offset="0" stop-color="#000" stop-opacity=".047"/><stop id="stop4492" offset="1" stop-color="#000" stop-opacity="0"/></linearGradient><style id="style4511"/><style id="style4511-26"/><style id="style4511-9"/><style id="style4552"/><style id="style4511-2"/><linearGradient xlink:href="#linearGradient4488" id="linearGradient4540" gradientUnits="userSpaceOnUse" gradientTransform="matrix(.30902 0 0 .3038 -64.017 1.994)" x1="288.112" y1="141.785" x2="287.575" y2="79.008"/><linearGradient osb:paint="solid" id="linearGradient5293"><stop id="stop5295" offset="0" stop-color="#9a89c0" stop-opacity="1"/></linearGradient></defs><style id="style4485" type="text/css"/><path id="path4516" d="M2.75 26.22v1.67c0 9.573 5.68 17.281 17.44 17.281h7.05c15.392 0 18.143-11.322 18.143-17.282v-1.668c0 5.96-2.75 17.282-18.143 17.282h-7.05c-11.76 0-17.44-7.708-17.44-17.282z" opacity="1" fill="url(#linearGradient4540)" fill-opacity="1" stroke="none" stroke-width="1.109" stroke-linecap="square" stroke-linejoin="bevel" stroke-miterlimit="4" stroke-dasharray="none" stroke-dashoffset="0" stroke-opacity=".078"/><path id="path4518" d="M19.7 3.505h8.64c14.147 0 17.094 11.247 17.094 17.282v7.123c0 5.96-2.75 17.282-18.143 17.282h-7.05c-11.76 0-17.44-7.707-17.44-17.282v-7.123c0-9.574 5.564-17.282 16.898-17.282z" opacity="1" fill="#1bc271" fill-opacity=".941" stroke="#000" stroke-width=".337" stroke-linecap="square" stroke-linejoin="bevel" stroke-miterlimit="4" stroke-dasharray="none" stroke-dashoffset="0" stroke-opacity=".078"/><path d="M24.097 7.556c3.255.007 6.437.934 9.015 3.011 1.813 2.16-1.64 4.474-3.196 2.367-4.682-2.93-11.167-1.776-14.69 2.606-1.874 2.175-2.93 5.077-2.918 7.99h3.428l-5.356 7.42-5.355-7.42h3.57c-.099-6.955 4.737-13.572 11.229-15.373 1.392-.396 2.827-.617 4.273-.601zm13.656 8.619l5.355 7.387h-3.57c.087 7.039-4.871 13.73-11.477 15.436-4.457 1.288-9.378.595-13.04-2.351-1.87-2.197 1.631-4.488 3.201-2.362 4.537 2.847 10.77 1.698 14.352-2.37 2.073-2.21 3.265-5.273 3.25-8.353h-3.427l5.355-7.388z" id="path8" fill="#e6e6e6" stroke-width="1.21"/><g id="g1458" transform="matrix(1.05926 0 0 1.06188 -1.898 -1.672)" stroke-width=".418"><path d="M24.1 15.657c-1.708 0-3.084 1.418-3.084 3.18 0 3.973-2.643 4.37-2.643 7.152 0 3.073 2.564 5.564 5.727 5.564 3.164 0 5.728-2.491 5.728-5.564 0-2.782-2.643-3.179-2.643-7.153 0-1.761-1.376-3.18-3.085-3.18z" id="path4" fill="#4f4f4f"/><path d="M24.1 20.823c-1.051 0-1.762.85-1.762 1.908 0 2.384-1.762 2.622-1.762 4.291 0 1.844 1.578 3.338 3.524 3.338 1.947 0 3.525-1.494 3.525-3.338 0-1.669-1.762-1.907-1.762-4.291 0-1.057-.711-1.908-1.763-1.908z" id="path6" opacity=".1"/><path d="M24.1 20.426c-1.051 0-1.762.85-1.762 1.907 0 2.385-1.762 2.623-1.762 4.292 0 1.844 1.578 3.338 3.524 3.338 1.947 0 3.525-1.494 3.525-3.338 0-1.67-1.762-1.908-1.762-4.292 0-1.057-.711-1.907-1.763-1.907z" id="path8-3" fill="#fff"/><path d="M20.807 31.939c-.185-.027-.35-.077-.71-.217-.536-.208-.786-.275-1.767-.477-.49-.1-.672-.145-1.097-.268-.155-.045-.36-.103-.458-.128-.264-.068-.334-.095-.43-.163a.4.4 0 0 1-.17-.398c.015-.103.055-.202.165-.41.147-.277.266-.377.289-.65.013-.16.002-.34-.043-.716a3.223 3.223 0 0 1-.033-.446c0-.154.001-.38.019-.439.066-.22.116-.347.35-.401.068-.016.111-.019.429-.024a6.05 6.05 0 0 0 .399-.016.684.684 0 0 0 .33-.154c.088-.076.148-.153.264-.338.18-.285.534-.282.824-.293.082.015.11.026.2.072a.65.65 0 0 1 .194.141c.198.19.293.307.737.913.353.48.46.633.602.859.155.245.434.639.537.758l.238.272c.114.13.218.25.23.27.214.267.364.574.417.882a.724.724 0 0 1 .009.248c-.013.155-.024.222-.043.256a.991.991 0 0 0-.037.082c-.163.409-.57.715-1.04.785-.1.015-.298.015-.405 0z" id="path12-3" fill="#eab108"/><path d="M28.78 31.748c.145-.093.262-.196.502-.449.359-.376.54-.526 1.28-1.065.37-.268.505-.374.808-.638.11-.096.259-.221.33-.279.192-.157.24-.205.29-.299.067-.127.051-.27-.045-.396-.061-.08-.142-.147-.334-.279-.257-.176-.33-.327-.48-.546-.087-.129-.163-.284-.303-.614a3.13 3.13 0 0 0-.182-.385.735.735 0 0 0-.13-.192.587.587 0 0 0-.564-.17c-.066.012-.104.027-.377.142-.17.071-.323.132-.347.137a.71.71 0 0 1-.354-.004c-.112-.03-.2.008-.386-.102-.127-.075-.264-.17-.362-.194-.136-.033-.135-.033-.262-.02a.617.617 0 0 0-.448.25.526.526 0 0 0-.099.191c-.079.233-.104.367-.195 1.04a10.91 10.91 0 0 0-.106.943 7.591 7.591 0 0 1-.099.835l-.074.317a7.943 7.943 0 0 0-.069.312c-.054.304-.036.617.064.893a.711.711 0 0 0 .11.21c.085.125.126.176.158.198a.866.866 0 0 1 .07.055 1.42 1.42 0 0 0 1.259.262c.092-.026.261-.1.345-.153z" id="path16" fill="#eab108"/><ellipse ry="1.192" rx="1.322" cx="22.779" cy="19.233" id="circle18" opacity=".1"/><ellipse ry="1.192" rx="1.322" cx="22.779" cy="18.836" id="circle20" fill="#fff"/><ellipse ry=".397" rx=".441" cx="22.779" cy="18.836" id="circle22" fill="#323232"/><ellipse ry="1.192" rx="1.322" cx="25.422" cy="19.233" id="circle24" opacity=".1"/><ellipse ry="1.192" rx="1.322" cx="25.422" cy="18.836" id="circle26" fill="#fff"/><path d="M25.863 20.426c0 1.097-.79 1.987-1.763 1.987-.973 0-1.762-.89-1.762-1.987z" id="path28" opacity=".1"/><path d="M25.863 20.028c0 1.098-.79 1.987-1.763 1.987-.973 0-1.762-.89-1.762-1.987z" id="path30" fill="#f77d00"/><ellipse ry=".397" rx=".441" cx="25.422" cy="18.836" id="circle32" fill="#323232"/><path d="M25.863 20.227c0 .199-.79 1.39-1.763 1.39-.973 0-1.762-1.191-1.762-1.39 0-.549.79-.994 1.762-.994.974 0 1.763.445 1.763.994z" id="path34" fill="#eab108"/><path d="M27.992 26.387c-.033-.002-.065.001-.129.007a.616.616 0 0 0-.446.251.526.526 0 0 0-.1.191c-.079.233-.104.367-.195 1.04a10.91 10.91 0 0 0-.106.943 7.602 7.602 0 0 1-.098.835l-.074.317a8.605 8.605 0 0 0-.07.312 1.842 1.842 0 0 0-.015.532c.004-.045.007-.09.015-.135.003-.02.034-.16.07-.312l.074-.316c.031-.139.082-.573.098-.836.014-.241.033-.41.106-.943.091-.672.116-.807.195-1.04a.526.526 0 0 1 .1-.19.616.616 0 0 1 .447-.25.497.497 0 0 1 .262.02c.098.024.235.118.362.193.186.11.274.073.386.103a.709.709 0 0 0 .353.004 5.45 5.45 0 0 0 .348-.137c.273-.116.312-.13.377-.142a.586.586 0 0 1 .564.169.735.735 0 0 1 .13.192c.066.119.1.19.183.385.14.331.215.485.303.614.148.22.222.37.479.547.192.131.273.198.335.278.008.01.012.022.019.033.007-.011.018-.021.025-.033a.355.355 0 0 0-.044-.397c-.062-.08-.143-.147-.335-.279-.257-.175-.33-.327-.48-.546-.087-.13-.163-.283-.302-.614a3.133 3.133 0 0 0-.183-.385.767.767 0 0 0-.13-.193.586.586 0 0 0-.564-.169c-.065.013-.104.027-.377.142-.17.072-.324.132-.348.138a.709.709 0 0 1-.353-.004c-.112-.03-.2.007-.386-.103-.127-.076-.264-.17-.362-.194a.944.944 0 0 0-.134-.028z" id="path36" opacity=".2" fill="#fff"/><path d="M28.506 27.976c-.73 0-.854-.534-.88-1.192-.03-.718.05-1.133 1.32-1.192 1.427-.49.954 2.346-.44 2.384z" id="path38" fill="#4f4f4f"/><path d="M24.1 15.657c-1.708 0-3.084 1.418-3.084 3.18 0 3.973-2.643 4.37-2.643 7.152 0 .072.008.142.011.213.118-2.612 2.632-3.087 2.632-6.969 0-1.76 1.376-3.179 3.084-3.179 1.709 0 3.085 1.418 3.085 3.18 0 3.88 2.514 4.356 2.632 6.968.003-.071.011-.141.011-.213 0-2.782-2.643-3.179-2.643-7.153 0-1.761-1.376-3.18-3.085-3.18z" id="path40" opacity=".1" fill="#fff"/><path d="M19.168 26.401c-.29.01-.645.007-.824.293-.116.185-.176.262-.265.338a.683.683 0 0 1-.33.154 6.019 6.019 0 0 1-.398.016c-.318.005-.361.008-.429.024-.234.054-.284.182-.35.402-.018.058-.02.284-.02.437 0 .03.007.068.008.095.003-.055.005-.113.012-.135.066-.22.116-.347.35-.402.068-.016.111-.019.429-.024a5.39 5.39 0 0 0 .399-.016.683.683 0 0 0 .33-.153c.088-.076.148-.154.264-.339.18-.285.534-.282.824-.292a.57.57 0 0 1 .2.072.66.66 0 0 1 .194.14c.198.19.293.308.738.913.352.48.46.634.601.86.155.245.434.638.537.757l.238.272c.114.13.218.251.231.27a2 2 0 0 1 .406.842c.006-.039.013-.043.018-.11a.726.726 0 0 0-.007-.247 1.993 1.993 0 0 0-.417-.883 9.668 9.668 0 0 0-.23-.27l-.239-.272a9.09 9.09 0 0 1-.537-.757c-.142-.225-.25-.38-.601-.86-.445-.605-.54-.722-.738-.912a.647.647 0 0 0-.194-.14.57.57 0 0 0-.2-.073zm-2.546 2.866c-.031.242-.142.349-.282.611-.11.208-.15.307-.165.41a.406.406 0 0 0 .041.249c.026-.068.063-.147.124-.261.148-.277.266-.377.289-.65a2.365 2.365 0 0 0-.007-.36z" id="path42" opacity=".2" fill="#fff"/></g></svg>