<svg xmlns:osb="http://www.openswatchbook.org/uri/2009/osb" xmlns="http://www.w3.org/2000/svg" xmlns:xlink="http://www.w3.org/1999/xlink" width="48" height="48" version="1.1" id="svg38"><defs id="defs22"><linearGradient id="linearGradient4488"><stop id="stop4490" offset="0" stop-color="#000" stop-opacity=".047"/><stop id="stop4492" offset="1" stop-color="#000" stop-opacity="0"/></linearGradient><style id="style4511"/><style id="style4511-26"/><style id="style4511-9"/><style id="style4552"/><style id="style4511-2"/><linearGradient xlink:href="#linearGradient4488" id="linearGradient4540" gradientUnits="userSpaceOnUse" gradientTransform="matrix(.30902 0 0 .30595 -64.017 1.988)" x1="288.112" y1="141.785" x2="287.575" y2="79.008"/><linearGradient osb:paint="solid" id="linearGradient5293"><stop id="stop5295" offset="0" stop-color="#9a89c0" stop-opacity="1"/></linearGradient><filter id="filter-1" filterUnits="objectBoundingBox" height="1.189" width="1.235" y="-.068" x="-.103"><feOffset id="feOffset6" result="shadowOffsetOuter1" in="SourceAlpha" dy="1" dx="0"/><feGaussianBlur id="feGaussianBlur8" result="shadowBlurOuter1" in="shadowOffsetOuter1" stdDeviation="1"/><feComposite id="feComposite10" result="shadowBlurOuter1" operator="out" in2="SourceAlpha" in="shadowBlurOuter1"/><feColorMatrix id="feColorMatrix12" result="shadowMatrixOuter1" in="shadowBlurOuter1" type="matrix" values="0 0 0 0 0 0 0 0 0 0 0 0 0 0 0 0 0 0 0.2 0"/><feMerge id="feMerge18"><feMergeNode id="feMergeNode14" in="shadowMatrixOuter1"/><feMergeNode id="feMergeNode16" in="SourceGraphic"/></feMerge></filter></defs><style id="style4485" type="text/css"/><g id="g1333"><path d="M2.75 26.387v1.68c0 9.643 5.68 17.405 17.44 17.405h7.05c15.392 0 18.143-11.403 18.143-17.405v-1.68c0 6.002-2.75 17.405-18.143 17.405h-7.05c-11.76 0-17.44-7.763-17.44-17.405z" id="path4516" opacity="1" fill="url(#linearGradient4540)" fill-opacity="1" stroke="none" stroke-width="1.113" stroke-linecap="square" stroke-linejoin="bevel" stroke-miterlimit="4" stroke-dasharray="none" stroke-dashoffset="0" stroke-opacity=".078"/><path d="M19.649 2.742h8.64c14.148 0 17.094 11.327 17.094 17.405v7.174c0 6.001-2.75 17.404-18.143 17.404h-7.05c-11.76 0-17.44-7.762-17.44-17.404v-7.174c0-9.642 5.564-17.405 16.899-17.405z" id="path4518" opacity="1" fill="#e6e6e6" fill-opacity="1" stroke="#000" stroke-width=".338" stroke-linecap="square" stroke-linejoin="bevel" stroke-miterlimit="4" stroke-dasharray="none" stroke-dashoffset="0" stroke-opacity=".078"/><g transform="matrix(.8886 0 0 .79507 8.54 9.38)" id="g49" fill="none" fill-rule="nonzero" stroke="none" stroke-width="1" filter="url(#filter-1)"><g id="g47"><g transform="translate(24.049)" id="g37" fill="#599ccd"><path id="path35" d="M.376 19.497V4.523l9-3.81v19.4c0 2.34-9 2.612-9-.62z"/></g><g transform="translate(4.976 5.756)" id="g41" fill="#7ec183"><path id="path39" d="M11.874 30.643c-2.816 0-5.253-.394-7.302-1.18-2.05-.785-2.629-2.262-3.907-3.615-.686-.722 5.709.423 9.97-.506 4.09-.845 6.062-3.642 6.743-4.308 1.38-1.348 2.066-3.637 2.066-6.869V.335c3.712 1.436 8.397 6.337 9.002 11.659v2.788c0 2.34-.328 4.486-.984 6.437-.656 1.951-1.663 3.629-3.013 5.022-1.356 1.399-3.071 2.48-5.16 3.244-2.087.77-4.557 1.148-7.42 1.148z"/></g><g transform="translate(0 10.689)" id="g45" fill="#4675ab"><path id="path43" d="M22 16.944c-.851 1.605-4.771 6.422-12.27 7.18l-1.082.029c-1.648-.747-3.041-1.71-4.17-2.896-1.334-1.398-2.319-3.063-2.953-4.998-.64-1.934-.959-4.072-.959-6.407V4.415L9.568.45v8.786c0 1.618.183 2.996.554 4.129.366 1.135.873 2.055 1.517 2.769a5.37 5.37 0 0 0 2.33 1.53c.912.307 1.913.46 3 .46 2.211 0 4.008-.676 5.39-2.023l-.355.844z"/></g></g></g></g></svg>