<svg xmlns="http://www.w3.org/2000/svg" xmlns:xlink="http://www.w3.org/1999/xlink" width="48" height="48" version="1.1" id="svg38"><defs id="defs22"><linearGradient id="linearGradient4488"><stop id="stop4490" offset="0" stop-color="#000" stop-opacity=".047"/><stop id="stop4492" offset="1" stop-color="#000" stop-opacity="0"/></linearGradient><style id="style4511"/><style id="style4511-26"/><style id="style4511-9"/><style id="style4552"/><style id="style4511-2"/><linearGradient xlink:href="#linearGradient4488" id="linearGradient4471" gradientUnits="userSpaceOnUse" gradientTransform="translate(-62.47 2.216) scale(.3038)" x1="288.112" y1="141.785" x2="287.575" y2="79.008"/></defs><style id="style4485" type="text/css"/><path d="M3.168 26.443v1.668c0 9.575 5.583 17.282 17.146 17.282h6.93c15.132 0 17.836-11.322 17.836-17.282v-1.668c0 5.96-2.704 17.282-17.836 17.282h-6.93c-11.563 0-17.146-7.708-17.146-17.282z" id="path4467" opacity="1" fill="url(#linearGradient4471)" fill-opacity="1" stroke="none" stroke-width="1.1" stroke-linecap="square" stroke-linejoin="bevel" stroke-miterlimit="4" stroke-dasharray="none" stroke-dashoffset="0" stroke-opacity=".078"/><path d="M19.781 2.965h8.495c13.908 0 16.805 11.246 16.805 17.282v7.123c0 5.96-2.705 17.282-17.837 17.282h-6.93c-11.563 0-17.146-7.708-17.146-17.282v-7.123c0-9.575 5.47-17.282 16.613-17.282z" id="path4469" opacity="1" fill="#ff3617" fill-opacity="1" stroke="#000" stroke-width=".334" stroke-linecap="square" stroke-linejoin="bevel" stroke-miterlimit="4" stroke-dasharray="none" stroke-dashoffset="0" stroke-opacity=".078"/><path d="M21.743 11.879v11.687h9.842v6.801H29.74v-1.226l-1.512.906c-.832.5-1.518.912-1.524.918-.006.006.671.42 1.504.92l1.514.908.01-.615.01-.615h3.074v-7.997h3.691V11.88H21.744zm.89.889l6.483.007 6.485.008.008 4.983.01 4.98H22.631v-9.978zm6.358.992c-.33-.028-.712.045-.96.197a1.825 1.825 0 0 0-.577.633 1.51 1.51 0 0 0 .83 2.092c.115.041.207.09.207.107s-.394.413-.878.881-.881.86-.881.871c0 .011.09.111.2.22l.204.2.686-.676.687-.676v1.058l-.652 1.358c-.359.748-.641 1.37-.63 1.381.013.012.125.071.25.131.126.06.237.11.247.112.01.001.123-.223.254-.5.13-.278.373-.788.539-1.135l.303-.631.527 1.11c.29.61.534 1.12.539 1.136.011.032.537-.198.537-.234 0-.013-.291-.634-.648-1.38l-.65-1.355v-1.049l.687.674.69.674.208-.21.21-.212-.907-.883c-.763-.744-.896-.887-.838-.906.673-.223 1.036-.621 1.147-1.256.123-.709-.317-1.427-1.024-1.672a1.262 1.262 0 0 0-.307-.06zm-.173.596c.254 0 .31.011.449.093a.93.93 0 0 1 .154 1.518.878.878 0 0 1-.305.178c-.241.06-.31.065-.459.037a.914.914 0 0 1-.761-.92c0-.353.161-.63.472-.813.14-.082.195-.093.45-.093zm-10.133 1.869l-.01.613-.01.611h-3.074v8.612H11.9v11.687h14.73V26.061h-9.844v-7.417h1.882v.602c0 .468.009.6.042.586.024-.01.707-.416 1.52-.904l1.478-.889-1.512-.906-1.511-.908zm-5.93 10.76h13.02l-.008 4.962-.008 4.965-6.48.008c-3.564.005-6.49-.001-6.502-.014-.013-.012-.022-2.25-.022-4.972v-4.95zm6.22.341c-.21 0-.285.085-.302.352l-.014.226-.158.02c-.964.119-1.746.383-2.312.785-.85.604-1.593 2.097-1.649 3.318-.018.406-.016.416.063.471.156.11.293.075.513-.129.644-.595 1.544-.61 2.125-.033.196.194.33.264.426.227.033-.013.18-.125.326-.252.256-.221.6-.401.676-.354.046.029.041 2.649-.006 2.834-.08.319-.418.564-.775.565a.796.796 0 0 1-.815-.686c-.045-.285-.297-.4-.48-.217-.081.081-.085.106-.064.283.057.489.41.908.904 1.07.305.101.742.074 1.035-.064a1.3 1.3 0 0 0 .652-.619l.112-.226.01-1.479c.007-1.116.02-1.478.05-1.478.11 0 .494.224.668.39.222.211.345.272.46.227.041-.017.164-.115.273-.219.457-.437 1.032-.539 1.607-.283.098.043.306.176.463.295.31.233.41.261.57.156l.094-.063-.02-.396c-.037-.832-.37-1.83-.851-2.547-.213-.317-.654-.732-.96-.904-.659-.372-1.24-.55-2.187-.672l-.162-.022v-.199c0-.262-.083-.377-.271-.377zm.05 1.184c.296 0 .594.02.77.058.606.136 1.335.456 1.747.766.113.085.283.255.377.379.202.266.537.934.66 1.316.105.324.108.38.026.346a1.89 1.89 0 0 0-.725-.154c-.528 0-.808.104-1.262.467a3.877 3.877 0 0 1-.283.216 3.93 3.93 0 0 1-.25-.187c-.295-.231-.655-.41-.916-.457-.433-.078-.977.07-1.416.383l-.146.103-.145-.103a2.437 2.437 0 0 0-.693-.34c-.277-.083-.778-.082-1.102 0-.139.035-.286.053-.336.04-.08-.02-.088-.034-.068-.15.035-.204.34-.785.578-1.1.318-.42.887-.96 1.15-1.093.256-.129.908-.35 1.266-.43a4.05 4.05 0 0 1 .768-.06z" id="path28177" opacity="1" fill="#fff" fill-opacity="1" stroke="none" stroke-width=".4" stroke-linecap="square" stroke-linejoin="miter" stroke-miterlimit="4" stroke-dasharray="none" stroke-opacity="1"/></svg>