<svg xmlns:osb="http://www.openswatchbook.org/uri/2009/osb" xmlns="http://www.w3.org/2000/svg" width="48" height="48" version="1.1" id="svg38"><defs id="defs22"><style id="style4511"/><style id="style4511-26"/><style id="style4511-9"/><style id="style4552"/><style id="style4511-2"/><linearGradient osb:paint="solid" id="linearGradient5293"><stop id="stop5295" offset="0" stop-color="#9a89c0" stop-opacity="1"/></linearGradient></defs><style id="style4485" type="text/css"/><path id="path4518" d="M19.591 2.743h8.611c14.098 0 17.034 11.247 17.034 17.282v7.122c0 5.96-2.74 17.282-18.08 17.282h-7.025c-11.72 0-17.38-7.708-17.38-17.282v-7.122c0-9.574 5.545-17.282 16.84-17.282z" opacity="1" fill="#f2f2f2" fill-opacity="1" stroke="#000" stroke-width=".336" stroke-linecap="square" stroke-linejoin="bevel" stroke-miterlimit="4" stroke-dasharray="none" stroke-dashoffset="0" stroke-opacity=".078"/><g id="g1321" transform="matrix(1.08488 0 0 1.16627 55.03 -6.647)" fill="none" fill-rule="evenodd" stroke="#363636" stroke-width="2.1" stroke-miterlimit="4" stroke-dasharray="none"><path d="M-18.099 23.65a4.475 4.475 0 0 0-3.09-1.252c-2.577 0-4.666 2.238-4.666 5 0 2.761 2.09 5 4.667 5v0c1.214 0 2.32-.497 3.15-1.31" id="Oval-18" stroke-linecap="round"/><path d="M-28.522 18.398v8.666a5.333 5.333 0 0 1-5.333 5.334v0a5.333 5.333 0 0 1-5.333-5.334v-8.666 0" id="Rectangle-19"/></g></svg>