<svg xmlns="http://www.w3.org/2000/svg" xmlns:xlink="http://www.w3.org/1999/xlink" width="48" height="48" version="1.1" id="svg38"><defs id="defs22"><linearGradient id="linearGradient4488"><stop id="stop4490" offset="0" stop-color="#000" stop-opacity=".047"/><stop id="stop4492" offset="1" stop-color="#000" stop-opacity="0"/></linearGradient><style id="style4511"/><style id="style4511-26"/><style id="style4511-9"/><style id="style4552"/><style id="style4511-2"/><linearGradient gradientTransform="translate(-63.205 2.216) scale(.3038)" xlink:href="#linearGradient4488" id="linearGradient4160" x1="288.112" y1="141.785" x2="287.575" y2="79.008" gradientUnits="userSpaceOnUse"/></defs><style id="style4485" type="text/css"/><path d="M2.433 26.443v1.668c0 9.575 5.583 17.282 17.146 17.282h6.93c15.133 0 17.837-11.322 17.837-17.282v-1.668c0 5.96-2.704 17.282-17.837 17.282h-6.93c-11.563 0-17.146-7.708-17.146-17.282z" id="path4147" opacity="1" fill="url(#linearGradient4160)" fill-opacity="1" stroke="none" stroke-width="1.1" stroke-linecap="square" stroke-linejoin="bevel" stroke-miterlimit="4" stroke-dasharray="none" stroke-dashoffset="0" stroke-opacity=".078"/><path d="M19.046 2.965h8.495c13.908 0 16.805 11.246 16.805 17.282v7.123c0 5.96-2.704 17.282-17.837 17.282h-6.93c-11.562 0-17.146-7.708-17.146-17.282v-7.123c0-9.575 5.47-17.282 16.613-17.282z" id="rect4144" opacity="1" fill="#3a464e" fill-opacity="1" stroke="#000" stroke-width=".334" stroke-linecap="square" stroke-linejoin="bevel" stroke-miterlimit="4" stroke-dasharray="none" stroke-dashoffset="0" stroke-opacity=".078"/><g id="g416" transform="matrix(.91635 0 0 .86122 51.438 1.544)" fill-opacity="1" fill-rule="nonzero" stroke="none"><path d="M-26.642 26.353l5.201-9.066 2.514 9.066-2.514 9.063zm-2.536 1.472l5.203 9.064-9.061-2.343-6.546-6.721zm5.202-12.011l-5.202 9.065h-10.404l6.546-6.721zm7.426 7.454l-3.174-11.916-11.845 3.193-1.753 3.112-3.558-.026-8.67 8.723 8.67 8.72 3.556-.026 1.756 3.111 11.844 3.193 3.174-11.914-1.803-3.085 1.803-3.085" id="path4157" opacity=".1" fill="#000"/><path id="path24" d="M-27.642 25.353l5.201-9.066 2.514 9.066-2.514 9.063zm-2.536 1.472l5.203 9.064-9.061-2.343-6.546-6.721zm5.202-12.011l-5.202 9.065h-10.404l6.546-6.721zm7.426 7.454l-3.174-11.916-11.845 3.193-1.753 3.112-3.558-.026-8.67 8.723 8.67 8.72 3.556-.026 1.756 3.111 11.844 3.193 3.174-11.914-1.803-3.085 1.803-3.085" fill="#e8eef2"/></g></svg>