<svg xmlns:osb="http://www.openswatchbook.org/uri/2009/osb" xmlns="http://www.w3.org/2000/svg" xmlns:xlink="http://www.w3.org/1999/xlink" width="48" height="48" version="1.1" id="svg38"><defs id="defs22"><style id="style4511"/><style id="style4511-26"/><style id="style4511-9"/><linearGradient gradientUnits="userSpaceOnUse" x2="19.574" y2="22.495" x1="3.783" y1="23.644" id="g-5"><stop id="stop24-2" stop-color="#2980b9"/><stop id="stop26" stop-color="#34495e" offset="1"/></linearGradient><style id="style4552"/><style id="style4511-2"/><linearGradient osb:paint="solid" id="linearGradient5293"><stop id="stop5295" offset="0" stop-color="#9a89c0" stop-opacity="1"/></linearGradient><linearGradient gradientUnits="userSpaceOnUse" gradientTransform="scale(.91645 1.09117)" x1=".159" y1="11.878" x2="23.847" y2="11.878" id="linearGradient-2"><stop stop-color="#FFF" offset="0%" id="stop867"/><stop stop-color="#FFF" offset="49.915%" id="stop869"/><stop stop-color="#F4FBFF" offset="49.942%" id="stop871"/><stop stop-color="#FFF" offset="100%" id="stop873"/></linearGradient><radialGradient xlink:href="#g-5" id="radialGradient1426" cx="23.808" cy="24.305" fx="23.808" fy="24.305" r="21.011" gradientTransform="matrix(1 0 0 1.01502 0 -.365)" gradientUnits="userSpaceOnUse"/><clipPath id="clipPath-911982837-0"/><linearGradient xlink:href="#linearGradient-2" id="linearGradient1297" x1="5.37" y1="23.844" x2="38.1" y2="23.844" gradientUnits="userSpaceOnUse"/></defs><style id="style4485" type="text/css"/><path id="path4518" d="M2.965 28.69v-8.577c0-14.042 11.246-16.967 17.281-16.967h7.123c5.96 0 17.282 2.73 17.282 18.01v6.996c0 11.674-7.708 17.312-17.282 17.312h-7.123c-9.574 0-17.281-5.523-17.281-16.774z" opacity="1" fill="url(#radialGradient1426)" fill-opacity="1" stroke="#000" stroke-width=".336" stroke-linecap="square" stroke-linejoin="bevel" stroke-miterlimit="4" stroke-dasharray="none" stroke-dashoffset="0" stroke-opacity=".078"/><path d="M26.71 23.845l5.87-10.067 2.838 10.067-2.837 10.064zm-2.862 1.634l5.872 10.066-10.226-2.602-7.388-7.464zm5.87-13.337l-5.87 10.066H12.106l7.388-7.464zm8.382 8.277L34.518 7.187 21.15 10.733l-1.98 3.455-4.015-.029-9.785 9.686 9.785 9.684 4.014-.03 1.982 3.456L34.518 40.5 38.1 27.27l-2.034-3.425 2.034-3.426" id="path24" opacity=".25" fill="url(#linearGradient1297)" fill-opacity="1" fill-rule="nonzero" stroke="none" stroke-width="1.119"/><path id="path53" d="M14.672 33.3c-1.294-3.071-3.014-5.773-3.05-10.781-.04-5.176 4.504-8.528 8.097-8.528 4.346 0 8.175 3.588 8.373 6.554.184 2.683-.792 6.581-5.834 6.557-2.405-.02-4.907-2.061-4.92-5.107-.02-3.28 4.192-3.603 5.258-2.77.41.327.398.968.033.852-2.267-.721-3.67.704-3.561 2.114.139 1.925 1.307 3.066 3.394 3.158 3.014.144 3.856-2.718 3.78-3.884-.098-1.412-1.355-4.318-5.278-4.847-1.851-.253-3.39.289-4.508 1.35-1.123 1.067-1.754 2.165-1.843 3.966-.097 1.862.318 2.954 1.46 5.401.408.874 1.546 2.634 2.426 4.399l-3.824 1.558m0 .007" fill="#fff" fill-opacity="1" fill-rule="nonzero" stroke="#6e8db2" stroke-width="1.201" stroke-linecap="butt" stroke-linejoin="miter" stroke-miterlimit="4" stroke-opacity="1"/><path id="path55" d="M34.525 14c1.297 3.067 3.02 5.769 3.057 10.781.04 5.176-4.505 8.523-8.098 8.523-4.348 0-8.175-3.588-8.374-6.556-.184-2.683.793-6.581 5.835-6.555 2.407.017 4.91 2.061 4.922 5.105.017 3.282-4.2 3.608-5.26 2.77-.41-.325-.398-.968-.038-.852 2.271.721 3.67-.702 3.568-2.114-.141-1.923-1.307-3.064-3.396-3.158-3.014-.141-3.857 2.72-3.78 3.886.095 1.413 1.355 4.318 5.278 4.848 1.851.252 3.39-.29 4.507-1.352 1.119-1.066 1.755-2.163 1.844-3.965.094-1.861-.32-2.954-1.461-5.4-.407-.877-1.545-2.635-2.43-4.4l3.829-1.56m-.005 0" fill="#a9c1e3" fill-opacity="1" fill-rule="nonzero" stroke="#6e8db2" stroke-width="1.024" stroke-linecap="butt" stroke-linejoin="miter" stroke-miterlimit="4" stroke-opacity="1"/></svg>