<svg xmlns="http://www.w3.org/2000/svg" xmlns:xlink="http://www.w3.org/1999/xlink" width="48" height="48" version="1.1" id="svg38"><defs id="defs22"><linearGradient id="linearGradient3764" x1="1" x2="47" gradientUnits="userSpaceOnUse" gradientTransform="rotate(-90 -7.42 54.903)"><stop stop-color="#842c5c" stop-opacity="1" id="stop1259"/><stop offset="1" stop-color="#923165" stop-opacity="1" id="stop1261"/></linearGradient><linearGradient id="linearGradient4488"><stop id="stop4490" offset="0" stop-color="#000" stop-opacity=".047"/><stop id="stop4492" offset="1" stop-color="#000" stop-opacity="0"/></linearGradient><style id="style4511"/><style id="style4511-26"/><style id="style4511-9"/><style id="style4552"/><style id="style4511-2"/><linearGradient xlink:href="#linearGradient4488" id="linearGradient4548" gradientUnits="userSpaceOnUse" gradientTransform="translate(-62.55 1.994) scale(.3038)" x1="288.112" y1="141.785" x2="287.575" y2="79.008"/><linearGradient xlink:href="#linearGradient3764" id="linearGradient1270" x1="2.921" y1="23.586" x2="45.168" y2="23.586" gradientUnits="userSpaceOnUse"/></defs><style id="style4485" type="text/css"/><path id="path4532" d="M3.088 26.22v1.67c0 9.573 5.583 17.281 17.146 17.281h6.93c15.133 0 17.837-11.322 17.837-17.282v-1.668c0 5.96-2.704 17.282-17.837 17.282h-6.93c-11.563 0-17.146-7.708-17.146-17.282z" opacity="1" fill="url(#linearGradient4548)" fill-opacity="1" stroke="none" stroke-width="1.1" stroke-linecap="square" stroke-linejoin="bevel" stroke-miterlimit="4" stroke-dasharray="none" stroke-dashoffset="0" stroke-opacity=".078"/><path id="path4534" d="M19.701 2.742h8.495c13.908 0 16.805 11.247 16.805 17.282v7.124c0 5.96-2.704 17.282-17.837 17.282h-6.93c-11.562 0-17.146-7.708-17.146-17.282v-7.124c0-9.574 5.47-17.282 16.613-17.282z" opacity="1" fill="url(#linearGradient1270)" fill-opacity="1" stroke="#000" stroke-width=".334" stroke-linecap="square" stroke-linejoin="bevel" stroke-miterlimit="4" stroke-dasharray="none" stroke-dashoffset="0" stroke-opacity=".078"/><path d="M30.47 30.416c0-.423-.044-.632-.15-.716-.114-.092-.571-.107-1.974-.066l-1.826.053-2.904-2.8-2.904-2.799-2.184.004a97.06 97.06 0 0 0-3.41.062l-1.227.058-.153.53c-.431 1.496-1.825 2.434-3.205 2.158-1.096-.219-1.943-1.062-2.256-2.246-.614-2.318 1.413-4.473 3.561-3.785.38.121.67.31 1.061.69.506.49.638.724.932 1.644l.09.28 1.308.029 1.308.027 2.913-2.86 2.913-2.86 1.672.004 1.672.003.21-.471c.404-.903 1.332-1.386 2.159-1.123.461.146 1.092.826 1.233 1.329.435 1.552-.986 3.041-2.362 2.474-.419-.172-.793-.571-1.04-1.11l-.204-.444h-3.178l-2.339 2.312c-1.397 1.381-2.338 2.384-2.338 2.49 0 .175.2.178 9.328.137 7.957-.036 9.342-.062 9.422-.176.051-.074.08-.417.062-.763l-.031-.628.488.264c.269.145 1.028.548 1.686.896.659.348 1.161.666 1.117.706-.045.04-.78.453-1.635.917l-1.553.845-.03-.62c-.015-.342-.076-.677-.135-.745-.16-.185-14.332-.061-14.54.127-.122.11.19.448 2.279 2.467l2.42 2.338 1.217-.01a30.12 30.12 0 0 0 1.847-.07l.631-.06.029-.678.028-.678h3.099v3.46H30.47v-.596z" id="path13714" fill="#ff7845" fill-opacity="1" stroke="#ff7845" stroke-width=".868" stroke-miterlimit="4" stroke-dasharray="none" stroke-opacity="1"/></svg>