<svg xmlns:osb="http://www.openswatchbook.org/uri/2009/osb" xmlns="http://www.w3.org/2000/svg" xmlns:xlink="http://www.w3.org/1999/xlink" width="48" height="48" version="1.1" id="svg38"><defs id="defs22"><linearGradient id="linearGradient4488"><stop id="stop4490" offset="0" stop-color="#000" stop-opacity=".047"/><stop id="stop4492" offset="1" stop-color="#000" stop-opacity="0"/></linearGradient><linearGradient id="linearGradient4154"><stop offset="0" id="stop2" stop-color="#000" stop-opacity="1"/><stop offset="1" id="stop4" stop-color="#000" stop-opacity="0"/></linearGradient><style id="style4511"/><style id="style4511-26"/><style id="style4511-9"/><style id="style4552"/><style id="style4511-2"/><linearGradient xlink:href="#linearGradient4488" id="linearGradient4540" gradientUnits="userSpaceOnUse" gradientTransform="translate(-62.889 1.994) scale(.3038)" x1="288.112" y1="141.785" x2="287.575" y2="79.008"/><linearGradient osb:paint="solid" id="linearGradient5293"><stop id="stop5295" offset="0" stop-color="#9a89c0" stop-opacity="1"/></linearGradient><linearGradient gradientUnits="userSpaceOnUse" y2="210.694" x2="21.425" y1="210.694" x1="252.122" id="linearGradient918" xlink:href="#linearGradient4154"/><filter height="1.143" y="-.072" width="1.103" x="-.052" id="filter920" color-interpolation-filters="sRGB"><feGaussianBlur id="feGaussianBlur922" stdDeviation="3.138"/></filter><linearGradient gradientUnits="userSpaceOnUse" y2="236" x2="296" y1="-212" x1="296" id="linearGradient1108" xlink:href="#linearGradient1013"/><linearGradient id="linearGradient1013"><stop offset="0" id="stop1005" stop-color="#fff" stop-opacity="1"/><stop id="stop1007" offset=".125" stop-color="#fff" stop-opacity=".098"/><stop id="stop1009" offset=".925" stop-color="#000" stop-opacity=".098"/><stop offset="1" id="stop1011" stop-color="#000" stop-opacity=".498"/></linearGradient><clipPath id="clipPath1082-3-2-8" clipPathUnits="userSpaceOnUse"><path d="M361.938-212C507.235-212 528-191.287 528-46.125v116.25C528 215.286 507.235 236 361.937 236H214.063C68.766 236 48 215.286 48 70.125v-116.25C48-191.287 68.765-212 214.063-212z" id="path1084-6-70-7" display="inline" opacity="1" fill="#8c59d9" fill-opacity="1" stroke="none" stroke-width="2" stroke-linecap="round" stroke-linejoin="round" stroke-miterlimit="4" stroke-dasharray="none" stroke-dashoffset="0" stroke-opacity="1" enable-background="new"/></clipPath><filter height="1.025" y="-.012" width="1.023" x="-.012" id="filter4569" color-interpolation-filters="sRGB"><feGaussianBlur id="feGaussianBlur4571" stdDeviation="1.16"/></filter><filter height="1.05" y="-.025" width="1.046" x="-.023" id="filter913" color-interpolation-filters="sRGB"><feGaussianBlur id="feGaussianBlur915" stdDeviation="2.32"/></filter></defs><style id="style4485" type="text/css"/><path d="M162.537 5.568c72.648 0 83.031 10.357 83.031 82.938v58.125c0 72.58-10.383 82.937-83.031 82.937H88.599c-72.648 0-83.031-10.357-83.031-82.937V88.506c0-72.581 10.383-82.938 83.031-82.938z" id="path899" transform="matrix(.45367 0 0 .39682 -176.93 -18.365)" display="inline" opacity=".2" fill="#000" fill-opacity="1" stroke="none" stroke-width="2" stroke-linecap="round" stroke-linejoin="round" stroke-miterlimit="4" stroke-dasharray="none" stroke-dashoffset="0" stroke-opacity="1" filter="url(#filter913)" enable-background="new"/><path id="path4567" d="M162.537 3.568c72.648 0 83.031 10.357 83.031 82.938v58.125c0 72.58-10.383 82.937-83.031 82.937H88.599c-72.648 0-83.031-10.357-83.031-82.937V86.506c0-72.581 10.383-82.938 83.031-82.938z" transform="matrix(.45367 0 0 .39682 -176.93 -18.365)" display="inline" opacity=".1" fill="#000" fill-opacity="1" stroke="none" stroke-width="2" stroke-linecap="round" stroke-linejoin="round" stroke-miterlimit="4" stroke-dasharray="none" stroke-dashoffset="0" stroke-opacity="1" filter="url(#filter4569)" enable-background="new"/><path d="M-136.735-16.95c-16.48 0-25.894 1.026-31.193 5.655-5.3 4.63-6.475 12.856-6.475 27.257v23.065c0 14.402 1.176 22.628 6.475 27.257 5.3 4.63 14.713 5.655 31.193 5.655h33.543c16.48 0 25.894-1.025 31.193-5.655 5.3-4.629 6.476-12.855 6.476-27.257V15.962c0-14.401-1.177-22.628-6.476-27.257-5.299-4.629-14.713-5.655-31.193-5.655z" id="rect877" display="inline" opacity="1" fill="#4d4d4d" fill-opacity="1" stroke="none" stroke-width=".849" stroke-linecap="round" stroke-linejoin="round" stroke-miterlimit="4" stroke-dasharray="none" stroke-dashoffset="0" stroke-opacity="1" enable-background="new"/><path d="M-174.403 38.234v.793c0 14.402 1.176 22.628 6.475 27.257 5.3 4.63 14.713 5.655 31.193 5.655h33.543c16.48 0 25.894-1.025 31.193-5.655 5.3-4.629 6.476-12.855 6.476-27.257v-.793c0 14.401-1.177 22.627-6.476 27.257-5.299 4.629-14.713 5.654-31.193 5.654h-33.543c-16.48 0-25.894-1.025-31.193-5.654-5.3-4.63-6.475-12.856-6.475-27.257z" id="path917" display="inline" opacity=".2" fill="#131313" fill-opacity="1" stroke="none" stroke-width=".849" stroke-linecap="round" stroke-linejoin="round" stroke-miterlimit="4" stroke-dasharray="none" stroke-dashoffset="0" stroke-opacity="1" enable-background="new"/><path id="path1068" d="M361.938-212C507.235-212 528-191.287 528-46.125v116.25C528 215.286 507.235 236 361.937 236H214.063C68.766 236 48 215.286 48 70.125v-116.25C48-191.287 68.765-212 214.063-212z" clip-path="url(#clipPath1082-3-2-8)" transform="matrix(.22683 0 0 .19841 -185.291 25.114)" display="inline" opacity=".4" fill="none" fill-opacity="1" stroke="url(#linearGradient1108)" stroke-width="8" stroke-linecap="round" stroke-linejoin="round" stroke-miterlimit="4" stroke-dasharray="none" stroke-dashoffset="0" stroke-opacity="1" enable-background="new"/><path d="M-174.403 24.32v14.707c0 14.402 1.176 22.628 6.475 27.257 5.3 4.63 14.713 5.655 31.193 5.655h33.543c16.48 0 25.894-1.025 31.193-5.655 5.3-4.629 6.476-12.855 6.476-27.257V24.32z" id="path897" display="inline" opacity=".05" fill="#fff" fill-opacity="1" stroke="none" stroke-width=".849" stroke-linecap="round" stroke-linejoin="round" stroke-miterlimit="4" stroke-dasharray="none" stroke-dashoffset="0" stroke-opacity="1" enable-background="new"/><g id="g1740" fill-opacity="1"><g id="g1651" stroke-linecap="square" stroke-linejoin="bevel" stroke-miterlimit="4" stroke-dasharray="none" stroke-dashoffset="0" stroke-opacity=".078"><path id="path4516" d="M2.75 26.22v1.67c0 9.573 5.583 17.281 17.146 17.281h6.93c15.132 0 17.836-11.322 17.836-17.282v-1.668c0 5.96-2.704 17.282-17.836 17.282h-6.93C8.333 43.503 2.75 35.795 2.75 26.22z" opacity="1" fill="url(#linearGradient4540)" stroke="none" stroke-width="1.1"/><path id="path4518" d="M19.666 2.742h8.65c14.16 0 17.11 11.247 17.11 17.282v7.124c0 5.96-2.754 17.282-18.162 17.282h-7.056C8.435 44.43 2.75 36.722 2.75 27.148v-7.124c0-9.574 5.57-17.282 16.916-17.282z" opacity="1" fill="#4d4d4d" stroke="#000" stroke-width=".337"/></g><path id="path910" d="M110.858 138l-4.936 14.806 50.1 20.04-50.1 20.04 4.936 14.806 64.457-27.219V165.22zm64.365 90.031v15.105h76.7v-15.105z" style="line-height:125%;-inkscape-font-specification:'Ubuntu Medium';text-align:center" transform="matrix(.1496 0 0 .1997 -7.631 -13.739)" font-style="normal" font-variant="normal" font-weight="500" font-stretch="normal" font-size="299.107" font-family="Ubuntu" letter-spacing="0" word-spacing="0" writing-mode="lr-tb" text-anchor="middle" display="inline" opacity=".5" fill="url(#linearGradient918)" stroke="none" stroke-width="1.92" filter="url(#filter920)" enable-background="new"/><path id="path4212" d="M8.953 13.422l-.738 2.957 7.495 4.002-7.495 4.002.738 2.957 9.643-5.436v-3.046zm9.63 17.98v3.063h11.503v-3.063z" style="line-height:125%;-inkscape-font-specification:'Ubuntu Medium';text-align:center" font-style="normal" font-variant="normal" font-weight="500" font-stretch="normal" font-size="299.107" font-family="Ubuntu" letter-spacing="0" word-spacing="0" writing-mode="lr-tb" text-anchor="middle" display="inline" fill="#f2f2f2" stroke="none" stroke-width=".332" enable-background="new"/><path id="path4327" d="M8.953 13.422l-.738 2.957.088.046.65-2.604 9.643 5.436v-.4zm6.383 7.158l-7.121 3.803.088.353 7.407-3.956zm3.246 10.822v.4h11.504v-.4z" style="line-height:125%;-inkscape-font-specification:'Ubuntu Medium';text-align:center" font-style="normal" font-variant="normal" font-weight="500" font-stretch="normal" font-size="299.107" font-family="Ubuntu" letter-spacing="0" word-spacing="0" writing-mode="lr-tb" text-anchor="middle" display="inline" fill="#fff" stroke="none" stroke-width=".332" enable-background="new"/><path id="path848" d="M20.697 4.448h-7.323c-1.066 0-1.94.037-2.867.063l12.852 18.3L8.944 42.623c1.321.068 2.783.097 4.43.097h1.4L26.24 27.04l10.348 14.926c.049-.013.108-.02.157-.034.452-.123.87-.264 1.257-.425a7.46 7.46 0 0 0 1.071-.545 5.98 5.98 0 0 0 .898-.677c.272-.249.518-.522.74-.822.22-.3.418-.626.594-.98a8.53 8.53 0 0 0 .465-1.152c.134-.414.25-.858.347-1.336.099-.477.18-.987.246-1.533.01-.076.014-.165.023-.242L33.43 22.726l8.79-10.914c-.035-.21-.062-.44-.103-.64a12.4 12.4 0 0 0-.347-1.335 8.528 8.528 0 0 0-.465-1.152 6.488 6.488 0 0 0-.595-.98 5.723 5.723 0 0 0-.74-.822c-.023-.022-.054-.039-.078-.06l-9.205 11.713z" opacity=".1" fill="#e4e4e4" stroke="none" stroke-width=".455"/></g></svg>