<svg xmlns="http://www.w3.org/2000/svg" width="48" height="48" version="1.1" id="svg38"><defs id="defs22"><style id="style4511"/><style id="style4511-26"/><style id="style4511-9"/><style id="style4552"/><style id="style4511-2"/><filter height="1.048" y="-.024" width="1.048" x="-.024" id="filter1060" color-interpolation-filters="sRGB"><feGaussianBlur id="feGaussianBlur1062" stdDeviation="1.531"/></filter></defs><style id="style4485" type="text/css"/><g id="g1903" stroke-miterlimit="4" stroke-dasharray="none" stroke-dashoffset="0"><path id="rect4144" d="M3.408 28.325v-8.588C3.408 5.678 14.59 2.75 20.588 2.75h7.082c5.925 0 17.181 2.734 17.181 18.03v7.006c0 11.689-7.662 17.333-17.18 17.333h-7.082c-9.518 0-17.18-5.53-17.18-16.794z" opacity="1" fill="#ececec" fill-opacity="1" stroke="#000" stroke-width=".335" stroke-linecap="square" stroke-linejoin="bevel" stroke-opacity=".078"/><path id="path4271" d="M9.18 8.545v.752h29.977v-.752zm0 2.255v.751h29.977V10.8zm0 2.255v.751h29.977v-.751zm0 2.255v.751h29.977v-.751zm0 2.254v.752h29.977v-.752zm0 2.255v.752h29.977v-.752zm0 2.255v.752h29.977v-.752zm0 2.255v.752h29.977v-.752zm0 2.255v.751h29.977v-.751zm0 2.255v.751h29.977v-.751zm0 2.255v.751h29.977v-.751zm0 2.254v.752h29.977v-.752zm0 2.255v.752h29.998v-.752zm0 2.255v.752h29.998v-.752z" style="marker:none" color="#000" display="inline" overflow="visible" visibility="visible" opacity=".75" fill="#b3b3b3" fill-opacity="1" fill-rule="nonzero" stroke="none" stroke-width=".281" stroke-linecap="butt" stroke-linejoin="miter" stroke-opacity="1" enable-background="accumulate"/><path transform="matrix(.18736 0 0 .1879 .642 1.862)" id="path1030" d="M113.443 42.568c-35.298 0-64 28.702-64 64s28.702 64 64 64c15.452 0 29.64-5.502 40.709-14.648l6.89 6.89-1.413 1.414 31.5 31.5 11.314-11.312-31.5-31.5-1.414 1.414-6.88-6.881c9.23-11.094 14.794-25.345 14.794-40.877 0-35.298-28.702-64-64-64zm0 8.137c30.901 0 55.865 24.962 55.865 55.863s-24.964 55.865-55.865 55.865c-30.901 0-55.865-24.964-55.865-55.865 0-30.901 24.964-55.863 55.865-55.863z" style="line-height:normal;font-variant-ligatures:normal;font-variant-position:normal;font-variant-caps:normal;font-variant-numeric:normal;font-variant-alternates:normal;font-feature-settings:normal;text-indent:0;text-align:start;text-decoration-line:none;text-decoration-style:solid;text-decoration-color:#000;text-transform:none;text-orientation:mixed;white-space:normal;shape-padding:0;isolation:auto;mix-blend-mode:normal;solid-color:#000;solid-opacity:1;marker:none" color="#000" font-style="normal" font-variant="normal" font-weight="400" font-stretch="normal" font-size="medium" font-family="sans-serif" text-decoration="none" letter-spacing="normal" word-spacing="normal" writing-mode="lr-tb" direction="ltr" dominant-baseline="auto" baseline-shift="baseline" text-anchor="start" clip-rule="nonzero" display="inline" overflow="visible" visibility="visible" opacity=".1" color-interpolation="sRGB" color-interpolation-filters="linearRGB" vector-effect="none" fill="#000" fill-opacity="1" fill-rule="nonzero" stroke="none" stroke-width="12" stroke-linecap="butt" stroke-linejoin="miter" stroke-opacity="1" filter="url(#filter1060)" color-rendering="auto" image-rendering="auto" shape-rendering="auto" text-rendering="auto" enable-background="accumulate"/><g transform="matrix(.18736 0 0 .1879 -5.809 -4.984)" id="g1125" display="inline" color="#000" visibility="visible" fill-rule="nonzero" stroke-linecap="butt" stroke-linejoin="miter" stroke-opacity="1"><g id="g1131" transform="matrix(-1 0 0 1 319.875 0)" display="inline" fill="none" fill-opacity="0"><path style="marker:none" d="M116.157 196l12-12" id="path4480" display="inline" overflow="visible" opacity="1" stroke="#888" stroke-width="12" enable-background="accumulate"/><path id="path4478" d="M88.657 223.5l31.5-31.5" style="marker:none" display="inline" overflow="visible" opacity="1" stroke="#3b3b3b" stroke-width="16" enable-background="accumulate"/></g><circle style="marker:none" id="path4260" cx="147.875" cy="140" r="59.932" display="inline" overflow="visible" opacity="1" fill="#fff" fill-opacity=".543" stroke="#666" stroke-width="8.136" enable-background="accumulate"/></g></g></svg>