<svg xmlns:osb="http://www.openswatchbook.org/uri/2009/osb" xmlns="http://www.w3.org/2000/svg" xmlns:xlink="http://www.w3.org/1999/xlink" width="48" height="48" version="1.1" id="svg38"><defs id="defs22"><linearGradient id="linearGradient4488"><stop id="stop4490" offset="0" stop-color="#000" stop-opacity=".047"/><stop id="stop4492" offset="1" stop-color="#000" stop-opacity="0"/></linearGradient><style id="style4511"/><style id="style4511-26"/><style id="style4511-9"/><style id="style4552"/><style id="style4511-2"/><linearGradient xlink:href="#linearGradient4488" id="linearGradient4546" gradientUnits="userSpaceOnUse" gradientTransform="rotate(-179.669 55.35 22.969) scale(.3038)" x1="288.112" y1="141.785" x2="287.575" y2="79.008"/><style id="style4511-8"/><style id="style4511-26-4"/><style id="style4511-9-7"/><style id="style4552-3"/><style id="style4511-2-8"/><style id="style4552-7"/><style id="style4552-6"/><style id="style4552-73"/><style id="style4552-2"/><linearGradient osb:paint="solid" id="linearGradient5251"><stop id="stop5253" offset="0" stop-color="#2f343f" stop-opacity="1"/></linearGradient></defs><style id="style4485" type="text/css"/><style type="text/css" id="style4485-0"/><style id="style4485-4" type="text/css"/><style id="style4485-5" type="text/css"/><style id="style4485-3" type="text/css"/><style id="style4485-5-1" type="text/css"/><g id="g1805"><path id="path4528" d="M45.067 21.65l.01-1.668c.057-9.574-5.48-17.315-17.043-17.384l-6.93-.04C5.972 2.467 3.201 13.773 3.165 19.732l-.01 1.669c.036-5.96 2.807-17.266 17.94-17.176l6.93.04c11.562.07 17.1 7.81 17.042 17.384z" opacity="1" fill="url(#linearGradient4546)" fill-opacity="1" stroke="none" stroke-width="1.1" stroke-linecap="square" stroke-linejoin="bevel" stroke-miterlimit="4" stroke-dasharray="none" stroke-dashoffset="0" stroke-opacity=".078"/><path id="path4530" d="M28.315 45.03l-8.495-.05C5.913 44.896 3.083 33.632 3.12 27.597l.042-7.123C3.196 14.515 5.968 3.209 21.1 3.299l6.93.04c11.562.07 17.1 7.81 17.043 17.384l-.042 7.123c-.057 9.574-5.573 17.25-16.716 17.184z" opacity="1" fill="#4d4d4d" fill-opacity="1" stroke="#000" stroke-width=".334" stroke-linecap="square" stroke-linejoin="bevel" stroke-miterlimit="4" stroke-dasharray="none" stroke-dashoffset="0" stroke-opacity=".078"/><path id="path1971" d="M32.306 3.413h-6.89L11.052 36.416c.045.226.083.468.135.678.104.424.224.816.36 1.18.138.362.291.696.464 1.003.172.307.363.587.575.842.211.255.444.486.698.693.255.208.532.393.834.558.301.165.627.309.978.435.352.126.73.235 1.136.327.405.092.839.168 1.302.23.083.011.18.016.265.027L34.732 3.483a58.59 58.59 0 0 0-2.426-.07z" style="marker:none" color="#000" display="inline" overflow="visible" visibility="visible" opacity=".2" fill="#f0f0f0" fill-opacity="1" fill-rule="nonzero" stroke="none" stroke-width=".426"/><path id="path1043" d="M36.528 13.295c-2.269 0-4.107 1.83-4.107 4.086 0 2.256 1.838 4.085 4.107 4.085 2.268 0 4.106-1.829 4.106-4.085 0-2.257-1.838-4.086-4.106-4.086z" fill="#c0ca33" stroke-width="1.024"/><path id="path4530-0" d="M28.315 45.03l-8.495-.05C5.913 44.896 3.083 33.632 3.12 27.597l.042-7.123C3.196 14.515 5.968 3.209 21.1 3.299l6.93.04c11.562.07 17.1 7.81 17.043 17.384l-.042 7.123c-.057 9.574-5.573 17.25-16.716 17.184z" opacity="1" fill="#fff" fill-opacity=".075" stroke="#000" stroke-width=".334" stroke-linecap="square" stroke-linejoin="bevel" stroke-miterlimit="4" stroke-dasharray="none" stroke-dashoffset="0" stroke-opacity=".078"/><path id="path5889" d="M35.441 43.954a14.315 14.315 0 0 0 3.991-2.386l-1.035-1.073 5.235-5.627-6.195-.036-5.407 5.63c.95.956 2.16 2.205 3.411 3.492z" opacity="1" fill="#c0ca33" fill-opacity="1" stroke="none" stroke-width="1.79" stroke-linecap="round" stroke-linejoin="miter" stroke-miterlimit="4" stroke-dasharray="none" stroke-dashoffset="0" stroke-opacity="1"/><path id="path5893" d="M30.477 45.103c1.891-.172 3.6-.58 5.118-1.202l-3.32-3.442 5.234-5.627-6.195-.036-5.405 5.63a650.933 650.933 0 0 1 4.568 4.677z" opacity="1" fill="#c0ca33" fill-opacity="1" stroke="none" stroke-width="1.79" stroke-linecap="round" stroke-linejoin="miter" stroke-miterlimit="4" stroke-dasharray="none" stroke-dashoffset="0" stroke-opacity="1"/><path id="path5895" d="M28.321 45.196a22.03 22.03 0 0 0 2.352-.12l-4.491-4.653 5.234-5.627-6.195-.036-5.405 5.63c1.3 1.31 2.972 3.034 4.67 4.783z" opacity="1" fill="#c0ca33" fill-opacity="1" stroke="none" stroke-width="1.79" stroke-linecap="round" stroke-linejoin="miter" stroke-miterlimit="4" stroke-dasharray="none" stroke-dashoffset="0" stroke-opacity="1"/><path id="path5897" d="M24.68 45.175l-4.621-4.788 5.233-5.627-6.194-.036-5.405 5.63c1.286 1.295 2.936 2.997 4.618 4.73.5.034 1.009.06 1.54.062z" opacity="1" fill="#c0ca33" fill-opacity="1" stroke="none" stroke-width="1.79" stroke-linecap="round" stroke-linejoin="miter" stroke-miterlimit="4" stroke-dasharray="none" stroke-dashoffset="0" stroke-opacity="1"/><path id="path5899" d="M18.506 45.101l-4.583-4.75 5.233-5.627-6.195-.037-5.399 5.624c.052.056.102.114.155.17.092.092.225.231.321.329 2.325 2.305 5.68 4 10.468 4.291z" opacity="1" fill="#c0ca33" fill-opacity="1" stroke="none" stroke-width="1.79" stroke-linecap="round" stroke-linejoin="miter" stroke-miterlimit="4" stroke-dasharray="none" stroke-dashoffset="0" stroke-opacity="1"/><path id="path5901" d="M9.466 42.042L7.8 40.314l5.235-5.626-6.195-.037-1.785 1.859c.966 2.05 2.373 4.004 4.411 5.532z" opacity="1" fill="#c0ca33" fill-opacity="1" stroke="none" stroke-width="1.79" stroke-linecap="round" stroke-linejoin="miter" stroke-miterlimit="4" stroke-dasharray="none" stroke-dashoffset="0" stroke-opacity="1"/><path id="path5903" d="M5.124 36.652l1.86-2-2.697-.016c.23.677.516 1.35.837 2.016z" opacity="1" fill="#c0ca33" fill-opacity="1" stroke="none" stroke-width="1.79" stroke-linecap="round" stroke-linejoin="miter" stroke-miterlimit="4" stroke-dasharray="none" stroke-dashoffset="0" stroke-opacity="1"/><path id="path5905" d="M39.19 41.762c2.194-1.776 3.774-4.138 4.719-6.892l-.552-.004-5.404 5.63c.344.347.833.854 1.236 1.266z" opacity="1" fill="#c0ca33" fill-opacity="1" stroke="none" stroke-width="1.79" stroke-linecap="round" stroke-linejoin="miter" stroke-miterlimit="4" stroke-dasharray="none" stroke-dashoffset="0" stroke-opacity="1"/><path transform="matrix(1.68614 .08061 -.16126 .84287 60.51 15.68)" d="M-18.984 28.153l-5.328.487-5.327.487 2.242-4.857 2.242-4.857 3.085 4.37z" id="path960" fill="#c0ca33" fill-opacity="1" stroke="none" stroke-opacity="1"/><path transform="matrix(1.33607 .08061 -.12778 .84287 55.616 16.259)" d="M-18.984 28.153l-5.328.487-5.327.487 2.242-4.857 2.242-4.857 3.085 4.37z" id="path960-3" fill="#c0ca33" fill-opacity="1" stroke="none" stroke-opacity="1"/></g></svg>