<svg xmlns:osb="http://www.openswatchbook.org/uri/2009/osb" xmlns="http://www.w3.org/2000/svg" xmlns:xlink="http://www.w3.org/1999/xlink" width="48" height="48" version="1.1" id="svg38"><defs id="defs22"><linearGradient id="linearGradient4217"><stop offset="0" id="stop1757" stop-color="#1f93b9" stop-opacity="1"/><stop offset="1" id="stop1759" stop-color="#1a5c9b" stop-opacity="1"/></linearGradient><linearGradient id="linearGradient4488"><stop id="stop4490" offset="0" stop-color="#000" stop-opacity=".047"/><stop id="stop4492" offset="1" stop-color="#000" stop-opacity="0"/></linearGradient><style id="style4511"/><style id="style4511-26"/><style id="style4511-9"/><linearGradient id="linearGradient4217-1"><stop id="stop12-5" offset="0" stop-color="#1f93b9" stop-opacity="1"/><stop id="stop14-5" offset="1" stop-color="#1a5c9b" stop-opacity="1"/></linearGradient><style id="style4552"/><style id="style4511-2"/><linearGradient xlink:href="#linearGradient4488" id="linearGradient4540" gradientUnits="userSpaceOnUse" gradientTransform="translate(-62.889 1.994) scale(.3038)" x1="288.112" y1="141.785" x2="287.575" y2="79.008"/><linearGradient osb:paint="solid" id="linearGradient5293"><stop id="stop5295" offset="0" stop-color="#9a89c0" stop-opacity="1"/></linearGradient><linearGradient gradientUnits="userSpaceOnUse" gradientTransform="matrix(2.6002 0 0 .04343 60.894 36.867)" id="linearGradient-7" y2="25.675" x2="4.536" y1="17.964" x1="4.536"><stop id="stop18-1" offset="0%" stop-color="#F7F7F7"/><stop id="stop20-2" offset="100%" stop-color="#F7F7F7"/></linearGradient><style id="style4511-8"/><style id="style4511-26-4"/><style id="style4511-9-8"/><style id="style4552-9"/><style id="style4511-2-4"/><linearGradient y2="79.008" x2="287.575" y1="141.785" x1="288.112" gradientTransform="translate(-176.595 2.629) scale(.3038)" gradientUnits="userSpaceOnUse" id="linearGradient4548" xlink:href="#linearGradient4488"/><linearGradient gradientUnits="userSpaceOnUse" y2="23.586" x2="45.168" y1="23.586" x1="2.921" id="linearGradient1147" xlink:href="#linearGradient4217-1" gradientTransform="translate(-114.045 .635)"/><linearGradient xlink:href="#linearGradient4217" id="linearGradient1772" x1="4.251" y1="23.665" x2="43.252" y2="23.665" gradientUnits="userSpaceOnUse" gradientTransform="rotate(90 23.752 23.665)"/></defs><style id="style4485" type="text/css"/><rect id="Mask" x="63.147" y="78.204" width="20.231" height="20.096" rx=".581" fill="#f1f1f1" fill-opacity="1" fill-rule="evenodd" stroke="none" stroke-width=".336"/><path d="M82.713 37.983a.675.675 0 0 0-.584-.335H63.246a.675.675 0 0 0-.584.335z" id="use70" fill="url(#linearGradient-7)" fill-rule="evenodd" stroke="none" stroke-width=".336"/><path id="path4516" d="M2.75 26.22v1.67c0 9.573 5.583 17.281 17.146 17.281h6.93c15.132 0 17.836-11.322 17.836-17.282v-1.668c0 5.96-2.704 17.282-17.836 17.282h-6.93C8.333 43.503 2.75 35.795 2.75 26.22z" opacity="1" fill="url(#linearGradient4540)" fill-opacity="1" stroke="none" stroke-width="1.1" stroke-linecap="square" stroke-linejoin="bevel" stroke-miterlimit="4" stroke-dasharray="none" stroke-dashoffset="0" stroke-opacity=".078"/><path id="path4518" d="M19.363 2.742h8.495c13.908 0 16.804 11.247 16.804 17.282v7.124c0 5.96-2.704 17.282-17.836 17.282h-6.93C8.333 44.43 2.75 36.722 2.75 27.148v-7.124c0-9.574 5.47-17.282 16.613-17.282z" opacity="1" fill="#f9f9f9" fill-opacity="1" stroke="#000" stroke-width=".334" stroke-linecap="square" stroke-linejoin="bevel" stroke-miterlimit="4" stroke-dasharray="none" stroke-dashoffset="0" stroke-opacity=".078"/><path id="path4518-0" d="M27.762 43.01h-7.844c-12.84 0-15.515-10.438-15.515-16.04v-6.61c0-5.532 2.497-16.04 16.468-16.04h6.399c10.675 0 15.83 7.153 15.83 16.04v6.61c0 8.887-5.05 16.04-15.338 16.04z" opacity="1" fill="url(#linearGradient1772)" fill-opacity="1" stroke="#000" stroke-width=".309" stroke-linecap="square" stroke-linejoin="bevel" stroke-miterlimit="4" stroke-dasharray="none" stroke-dashoffset="0" stroke-opacity=".078"/><path d="M23.107 14.027l-.74 2.944-2.438 9.666-1.83-6.294-.195-.643H4.179v1.76l12.43.045 2.547 8.73.892 3.068.784-3.102 2.481-9.824 1.48 4.613.806 2.504.849-2.492 1.752-5.189 2.167 6.847.195.62h.632l12.184-.007v-1.845l-11.553.047-2.776-8.752-.805-2.527-.849 2.515-1.752 5.189-1.611-4.986z" id="path998" fill="#f9f9f9" fill-opacity="1" fill-rule="nonzero" stroke="none" stroke-width=".355" stroke-opacity="1"/><style type="text/css" id="style4485-8"/><path id="path4532" d="M-110.956 26.856v1.668c0 9.575 5.583 17.282 17.145 17.282h6.93c15.133 0 17.837-11.322 17.837-17.282v-1.668c0 5.96-2.704 17.282-17.836 17.282h-6.93c-11.563 0-17.146-7.708-17.146-17.282z" opacity="1" fill="url(#linearGradient4548)" fill-opacity="1" stroke="none" stroke-width="1.1" stroke-linecap="square" stroke-linejoin="bevel" stroke-miterlimit="4" stroke-dasharray="none" stroke-dashoffset="0" stroke-opacity=".078"/><path id="path4534" d="M-94.343 3.377h8.495c13.908 0 16.804 11.247 16.804 17.283v7.123c0 5.96-2.704 17.282-17.836 17.282h-6.93c-11.563 0-17.146-7.708-17.146-17.282V20.66c0-9.575 5.47-17.283 16.613-17.283z" opacity="1" fill="url(#linearGradient1147)" fill-opacity="1" stroke="#000" stroke-width=".334" stroke-linecap="square" stroke-linejoin="bevel" stroke-miterlimit="4" stroke-dasharray="none" stroke-dashoffset="0" stroke-opacity=".078"/></svg>