<svg xmlns:osb="http://www.openswatchbook.org/uri/2009/osb" xmlns="http://www.w3.org/2000/svg" width="48" height="48" version="1.1" id="svg38"><defs id="defs22"><style id="style4511"/><style id="style4511-26"/><style id="style4511-9"/><style id="style4552"/><style id="style4511-2"/><linearGradient osb:paint="solid" id="linearGradient5293"><stop id="stop5295" offset="0" stop-color="#9a89c0" stop-opacity="1"/></linearGradient></defs><style id="style4485" type="text/css"/><path id="path4518" d="M3.066 28.69v-8.577c0-14.042 11.247-16.967 17.282-16.967h7.123c5.96 0 17.282 2.73 17.282 18.01v6.996c0 11.674-7.708 17.312-17.282 17.312h-7.123c-9.574 0-17.282-5.523-17.282-16.774z" opacity="1" fill="#16626e" fill-opacity="1" stroke="#000" stroke-width=".336" stroke-linecap="square" stroke-linejoin="bevel" stroke-miterlimit="4" stroke-dasharray="none" stroke-dashoffset="0" stroke-opacity=".078"/><g id="g1325" transform="matrix(.38626 0 0 .45226 11.332 16.793)"><path id="path1281" d="M72.54 40.572H59.038v-8.101l6.751-3.592z" fill="#2bac8f"/><path id="path1283" d="M65.787 28.879H52.286l1.351 6.292 5.4 5.4z" fill="#2e997c"/><path id="path1285" d="M59.04 40.572H45.538l2.701-8.101 4.05-3.592z" fill="#278768"/><path id="path1287" d="M45.535 17.18l-5.4-3.618-8.102 3.618 6.751 11.692z" fill="#21674f"/><path id="path1289" d="M52.29 28.879l-6.75-1.809-6.751 1.809 6.751 11.692z" fill="#2a8d70"/><path id="path1291" d="M52.29 28.869H38.789l3.318-5.747 3.432-5.945z" fill="#2f9f81"/><path id="path1293" d="M72.54-6.229H59.039V.038l6.75 5.425z" fill="#96cfba"/><path id="path1295" d="M65.788 5.463H52.286l1.35-8.126 5.4-3.566z" fill="#85c8b1"/><path id="path1297" d="M59.04-6.229H45.539V.038l6.75 5.425z" fill="#6bbfa4"/><path id="path1299" d="M52.29 5.465L45.54 8.14l-6.751-2.675L45.54-6.227z" fill="#52b99b"/><path id="path1301" d="M52.29 5.474H38.789l1.351 5.375 5.4 6.317z" fill="#44b799"/><path id="path1303" d="M45.535 17.17H32.034l6.751-11.692z" fill="#33b394"/><path id="path1305" d="M38.784 28.87l-6.75 3.592-6.752-3.592 6.751-11.692z" fill="#2da4ad"/><path id="path1307" d="M38.785 28.879H25.283l.216 7.607 6.535 4.086z" fill="#2f98af"/><path id="path1309" d="M32.03 40.572H18.528l.001-8.101 6.75-3.592 3.328 5.763z" fill="#0d657a"/><path id="path1311" d="M25.282 28.879l-6.75-1.809-6.752 1.809 6.751 11.692" fill="#2a69b1"/><path id="path1313" d="M25.282 28.869H11.781l1.351-7.209 5.4-4.483z" fill="#2077bc"/><path id="path1315" d="M18.531 17.18l-8.1-3.618-5.402 3.618 6.751 11.692" fill="#2886c7"/><path id="path1317" d="M18.532 17.17H5.03l.001-9.02 6.75-2.674z" fill="#238dcd"/><path id="path1319" d="M11.82 5.439L5.03 2.713l-6.752 2.726 6.771 11.727" fill="#1a9cd1"/><path id="path1321" d="M11.78 5.463H-1.721L-.37.037l5.4-6.266z" fill="#0ea6d3" stroke="none"/><path id="path1323" d="M5.03-6.229H-8.471L-1.72 5.463z" fill="#08abd8" stroke="none"/></g></svg>