<svg xmlns:osb="http://www.openswatchbook.org/uri/2009/osb" xmlns="http://www.w3.org/2000/svg" xmlns:xlink="http://www.w3.org/1999/xlink" width="48" height="48" version="1.1" id="svg38"><defs id="defs22"><linearGradient id="linearGradient4488"><stop id="stop4490" offset="0" stop-color="#000" stop-opacity=".047"/><stop id="stop4492" offset="1" stop-color="#000" stop-opacity="0"/></linearGradient><style id="style4511"/><style id="style4511-26"/><style id="style4511-9"/><style id="style4552"/><style id="style4511-2"/><linearGradient xlink:href="#linearGradient4488" id="linearGradient4540" gradientUnits="userSpaceOnUse" gradientTransform="matrix(.30902 0 0 .31108 -64.017 1.976)" x1="288.112" y1="141.785" x2="287.575" y2="79.008"/><linearGradient osb:paint="solid" id="linearGradient5293"><stop id="stop5295" offset="0" stop-color="#9a89c0" stop-opacity="1"/></linearGradient><linearGradient x1="309.45" x2="309.45" gradientTransform="translate(0 2.886)" y1="463.79" gradientUnits="userSpaceOnUse" y2="48.21" id="linearGradient4284"><stop offset="0" id="stop4349" stop-opacity="0"/><stop offset=".496" id="stop4355"/><stop offset="1" id="stop4351" stop-opacity="0"/></linearGradient><linearGradient id="linearGradient1810" y2="154.86" gradientUnits="userSpaceOnUse" y1="460.98" x2="464" x1="126.19"><stop id="stop1806" offset="0" stop-color="#feedff" stop-opacity="1"/><stop id="stop1808" offset="1" stop-color="#fefcfd" stop-opacity="1"/></linearGradient><linearGradient id="linearGradient1796-3" y2="154.86" gradientUnits="userSpaceOnUse" y1="460.98" x2="464" x1="126.19"><stop id="stop1792" offset="0" stop-color="#eabbe7" stop-opacity="1"/><stop id="stop1794" offset="1" stop-color="#f7e5f6" stop-opacity="1"/></linearGradient><linearGradient y2="154.86" x2="464" y1="460.98" x1="126.19" gradientUnits="userSpaceOnUse" id="linearGradient883" xlink:href="#linearGradient4257-7" gradientTransform="translate(-22.465 239.45) scale(.08991)"/><linearGradient x1="126.19" x2="464" y1="460.98" gradientUnits="userSpaceOnUse" y2="154.86" id="linearGradient4257-7"><stop offset="0" id="stop4273-2" stop-color="#e8bbea" stop-opacity="1"/><stop offset="1" id="stop4271-7" stop-color="#f7e5f5" stop-opacity="1"/></linearGradient><linearGradient x1="364.35" x2="344.65" y1="236.42" gradientUnits="userSpaceOnUse" y2="255.67" id="linearGradient4432-1" gradientTransform="translate(-22.465 239.45) scale(.08991)"><stop offset="0" id="stop4144-2" stop-color="#88b637"/><stop offset="1" id="stop4146-7" stop-color="#88b637" stop-opacity="0"/></linearGradient><filter x="-.012" y="-.012" width="1.024" height="1.024" id="filter4315-5-2" color-interpolation-filters="sRGB"><feGaussianBlur stdDeviation="2.078" id="feGaussianBlur4317-6-2"/></filter><filter x="-.096" y="-.096" width="1.192" height="1.192" id="filter4300-5-6" color-interpolation-filters="sRGB"><feGaussianBlur stdDeviation="16.624" id="feGaussianBlur4302-3-1"/></filter><linearGradient y2="154.86" x2="464" y1="460.98" x1="126.19" gradientTransform="translate(-22.465 239.45) scale(.08991)" gradientUnits="userSpaceOnUse" id="linearGradient1732" xlink:href="#linearGradient1796-3"/><filter height="1.094" y="-.047" width="1.098" x="-.049" id="filter1782" color-interpolation-filters="sRGB"><feGaussianBlur id="feGaussianBlur1784" stdDeviation=".56"/></filter><linearGradient gradientUnits="userSpaceOnUse" y2="88.962" x2="954.977" y1="74.4" x1="935.513" id="linearGradient1804" xlink:href="#linearGradient1810"/><linearGradient xlink:href="#linearGradient1810" id="linearGradient1169" gradientUnits="userSpaceOnUse" x1="935.513" y1="74.4" x2="954.977" y2="88.962"/><linearGradient xlink:href="#linearGradient1810" id="linearGradient1171" gradientUnits="userSpaceOnUse" x1="935.513" y1="74.4" x2="954.977" y2="88.962"/><linearGradient xlink:href="#linearGradient1810" id="linearGradient1173" gradientUnits="userSpaceOnUse" x1="935.513" y1="74.4" x2="954.977" y2="88.962"/><linearGradient xlink:href="#linearGradient1810" id="linearGradient1175" gradientUnits="userSpaceOnUse" x1="935.513" y1="74.4" x2="954.977" y2="88.962"/><linearGradient xlink:href="#linearGradient1810" id="linearGradient1177" gradientUnits="userSpaceOnUse" x1="935.513" y1="74.4" x2="954.977" y2="88.962"/><linearGradient xlink:href="#linearGradient1810" id="linearGradient1179" gradientUnits="userSpaceOnUse" x1="935.513" y1="74.4" x2="954.977" y2="88.962"/><linearGradient xlink:href="#linearGradient1810" id="linearGradient1181" gradientUnits="userSpaceOnUse" x1="935.513" y1="74.4" x2="954.977" y2="88.962"/><linearGradient xlink:href="#linearGradient1810" id="linearGradient1183" gradientUnits="userSpaceOnUse" x1="935.513" y1="74.4" x2="954.977" y2="88.962"/></defs><style id="style4485" type="text/css"/><path id="path4516" d="M2.75 26.783v1.709c0 9.804 5.68 17.696 17.44 17.696h7.05c15.392 0 18.143-11.594 18.143-17.696v-1.709c0 6.103-2.75 17.697-18.143 17.697h-7.05c-11.76 0-17.44-7.893-17.44-17.697z" opacity="1" fill="url(#linearGradient4540)" fill-opacity="1" stroke="none" stroke-width="1.123" stroke-linecap="square" stroke-linejoin="bevel" stroke-miterlimit="4" stroke-dasharray="none" stroke-dashoffset="0" stroke-opacity=".078"/><path id="path4518" d="M19.649 2.742h8.64c14.148 0 17.094 11.517 17.094 17.697v7.294c0 6.102-2.75 17.696-18.143 17.696h-7.05c-11.76 0-17.44-7.893-17.44-17.696v-7.294c0-9.804 5.564-17.697 16.899-17.697z" opacity="1" fill="#7c529e" fill-opacity="1" stroke="#000" stroke-width=".341" stroke-linecap="square" stroke-linejoin="bevel" stroke-miterlimit="4" stroke-dasharray="none" stroke-dashoffset="0" stroke-opacity=".078"/><g id="g2047" transform="matrix(.95589 0 0 .97285 .518 1.044)"><g transform="matrix(.4275 0 0 .43808 -373.794 -20.036)" id="g1760" opacity=".3" fill="#060508" fill-opacity="1" filter="url(#filter1782)"><g id="g1758" transform="translate(277.696 60.118)" fill="#060508" fill-opacity="1"><g id="g1746" transform="matrix(3.84929 0 0 -3.84929 662.84 38.33)"><path d="M0 0a.33.33 0 0 0-.329.313c-.055 1.118-.582 1.666-1.658 1.724a.33.33 0 0 0 .035.658C-.532 2.619.257 1.806.329.346A.33.33 0 0 0 .017 0H0" id="path1744" fill="#060508" fill-opacity="1" fill-rule="nonzero" stroke="none"/></g><g id="g1750" transform="matrix(3.84929 0 0 -3.84929 669.35 40.51)"><path d="M0 0h-.008A.33.33 0 0 0-.33.337c.026 1.126-.296 2.038-.983 2.788-.684.748-1.623 1.156-2.872 1.248a.33.33 0 1 0 .048.657c1.405-.103 2.518-.594 3.31-1.46C-.031 2.701.358 1.609.329.322A.33.33 0 0 0 0 0" id="path1748" fill="#060508" fill-opacity="1" fill-rule="nonzero" stroke="none"/></g><g id="g1754" transform="matrix(3.84929 0 0 -3.84929 676.014 43.119)"><path d="M0 0a.329.329 0 0 0-.329.327C-.345 2.342-.925 3.88-2.103 5.031c-1.164 1.133-2.635 1.715-4.372 1.727a.33.33 0 0 0 .002.659h.003c1.913-.013 3.537-.658 4.827-1.915C-.351 4.241.313 2.501.329.332A.328.328 0 0 0 .003 0z" id="path1752" fill="#060508" fill-opacity="1" fill-rule="nonzero" stroke="none"/></g></g></g><g id="layer1-3" transform="matrix(.4275 0 0 .43808 -373.794 -20.036)" fill="url(#linearGradient1804)" fill-opacity="1"><g transform="translate(277.696 60.118)" id="g1055" fill="url(#linearGradient1183)" fill-opacity="1"><g transform="matrix(3.84929 0 0 -3.84929 662.84 38.33)" id="g134940" fill="url(#linearGradient1171)"><path id="path134942" d="M0 0a.33.33 0 0 0-.329.313c-.055 1.118-.582 1.666-1.658 1.724a.33.33 0 0 0 .035.658C-.532 2.619.257 1.806.329.346A.33.33 0 0 0 .017 0H0" fill="url(#linearGradient1169)" fill-opacity="1" fill-rule="nonzero" stroke="none"/></g><g transform="matrix(3.84929 0 0 -3.84929 669.35 40.51)" id="g134944" fill="url(#linearGradient1175)"><path id="path134946" d="M0 0h-.008A.33.33 0 0 0-.33.337c.026 1.126-.296 2.038-.983 2.788-.684.748-1.623 1.156-2.872 1.248a.33.33 0 1 0 .048.657c1.405-.103 2.518-.594 3.31-1.46C-.031 2.701.358 1.609.329.322A.33.33 0 0 0 0 0" fill="url(#linearGradient1173)" fill-opacity="1" fill-rule="nonzero" stroke="none"/></g><g transform="matrix(3.84929 0 0 -3.84929 676.014 43.119)" id="g134948" fill="url(#linearGradient1179)"><path id="path134950" d="M0 0a.329.329 0 0 0-.329.327C-.345 2.342-.925 3.88-2.103 5.031c-1.164 1.133-2.635 1.715-4.372 1.727a.33.33 0 0 0 .002.659h.003c1.913-.013 3.537-.658 4.827-1.915C-.351 4.241.313 2.501.329.332A.328.328 0 0 0 .003 0z" fill="url(#linearGradient1177)" fill-opacity="1" fill-rule="nonzero" stroke="none"/></g></g></g><g transform="matrix(-.61519 0 0 .6304 23.613 -140.176)" id="g1742" color="#000"><path transform="translate(-22.465 239.45) scale(.08991)" d="M377.06 51.096l-52.99 120.5 25.464 42.436-.116.178 4.42 7.429c-19.138 25.886-40.56 49.8-62.604 71.854l.003.003c-.053.052-.106.102-.158.155l-.158.157c-22.09 22.081-46.049 43.534-71.986 62.697l-7.42-4.413c-.059.037-.118.079-.175.116l-42.43-25.48-120.5 52.99c8.446 37.308 21.008 101.08 77.786 84.133 52.315-15.616 96.19-46.806 135.52-81.921l-.008-.006c21.415-17.96 41.5-37.337 60.763-56.592l.003.003.157-.158.155-.158c19.22-19.226 38.56-39.275 56.491-60.645l.006.008c35.11-39.34 66.29-83.21 81.91-135.53 16.95-56.776-46.82-69.338-84.13-77.784z" id="path4277" opacity=".2" fill="url(#linearGradient4284)" stroke-width="1.443" filter="url(#filter4300-5-6)" enable-background="accumulate"/><path transform="translate(-22.465 239.45) scale(.08991)" d="M377.06 51.096l-52.99 120.5 25.464 42.436-.116.178 4.42 7.429c-19.138 25.886-40.56 49.8-62.604 71.854l.003.003c-.053.052-.106.102-.158.155l-.158.157c-22.09 22.081-46.049 43.534-71.986 62.697l-7.42-4.413c-.059.037-.118.079-.175.116l-42.43-25.48-120.5 52.99c8.446 37.308 21.008 101.08 77.786 84.133 52.315-15.616 96.19-46.806 135.52-81.921l-.01-.006c21.416-17.96 41.502-37.337 60.764-56.592l.003.003.157-.158.155-.158c19.22-19.226 38.56-39.275 56.491-60.645l.006.009c35.11-39.34 66.29-83.21 81.91-135.53 16.95-56.776-46.82-69.337-84.13-77.784z" id="path4277-6" opacity=".1" stroke-width="1.443" filter="url(#filter4315-5-2)" enable-background="accumulate"/><path d="M15.087 245.584c.195.76.174 1.649-.14 2.7-2.038 6.826-6.473 12.54-11.227 17.296l-.014.014-.014.014c-4.755 4.753-10.469 9.188-17.297 11.226-1.05.314-1.94.334-2.698.14 1.034 2.312 2.748 4.054 5.94 3.102 6.827-2.038 12.136-6.879 16.89-11.632l.015-.014.014-.014c4.753-4.756 9.593-10.065 11.632-16.892.952-3.19-.79-4.906-3.102-5.94z" id="path4341" fill="url(#linearGradient1732)" stroke-width=".13" enable-background="accumulate"/><path d="M11.592 255.77a44.593 44.593 0 0 1-3.802 5.347l2.119 3.815c1.745-1.91 3.405-3.932 4.826-6.116l-3.143-3.046z" id="path4421" opacity=".1" fill="url(#linearGradient4432-1)" stroke-width=".13" enable-background="accumulate"/><path d="M11.437 243.785L6.673 254.62l2.29 3.816-.011.016 2.684 4.513c3.157-3.536 5.962-7.481 7.366-12.185 1.523-5.105-4.21-6.235-7.565-6.994z" id="path4325" fill="#f8e7f6" fill-opacity="1" stroke-width=".13" enable-background="accumulate"/><path d="M-18.113 273.334l10.834-4.765 3.816 2.29.016-.01 4.512 2.684c-3.536 3.157-7.48 5.961-12.185 7.365-5.105 1.524-6.234-4.21-6.993-7.564z" id="path4327" fill="url(#linearGradient883)" stroke-width=".13" enable-background="accumulate"/><path d="M11.439 243.786L6.674 254.62l.066.11 4.698-10.685c2.935.664 7.69 1.612 7.814 5.257.098-3.86-4.812-4.837-7.814-5.517zm-2.175 15.448c-1.699 2.284-3.593 4.396-5.542 6.346l-.014.015-.015.014c-1.986 1.985-4.14 3.914-6.472 5.637l-.667-.397-.016.01-3.816-2.288-10.835 4.764.054.236 10.781-4.74 3.816 2.289.015-.01.668.396c2.332-1.723 4.486-3.652 6.472-5.637l.014-.014.015-.014c1.981-1.983 3.907-4.134 5.628-6.461l-.086-.145z" id="path4349" fill="#fff" stroke-width=".187" enable-background="accumulate"/></g></g></svg>