<svg xmlns:osb="http://www.openswatchbook.org/uri/2009/osb" xmlns="http://www.w3.org/2000/svg" xmlns:xlink="http://www.w3.org/1999/xlink" width="48" height="48" version="1.1" id="svg38"><defs id="defs22"><style id="style4511"/><style id="style4511-26"/><style id="style4511-9"/><style id="style4552"/><style id="style4511-2"/><linearGradient osb:paint="solid" id="linearGradient5293"><stop id="stop5295" offset="0" stop-color="#9a89c0" stop-opacity="1"/></linearGradient><clipPath id="clipPath-156981671"/><clipPath id="clipPath-162844874"/></defs><style id="style4485" type="text/css"/><path stroke-miterlimit="4" id="path4518" d="M19.524 3.15h8.578c14.042 0 16.966 11.315 16.966 17.387v7.167c0 5.996-2.73 17.388-18.009 17.388h-6.997c-11.674 0-17.311-7.755-17.311-17.388v-7.167c0-9.632 5.523-17.387 16.773-17.387z" opacity="1" fill="#2fb031" fill-opacity="1" stroke="#000" stroke-width=".337" stroke-linecap="square" stroke-linejoin="bevel" stroke-dasharray="none" stroke-dashoffset="0" stroke-opacity=".078"/><use transform="translate(0 .001)" id="use485" xlink:href="#SVGCleanerId_0" x="0" y="0" width="100%" height="100%"/><path id="path487" d="M26.939 14.628l-.32.292v1.071l.279.258h1.492v1.035l-9.859 9.063V16.264h1.637l.336-.306v-1.083l-.31-.22h-8.628l-.28.258v1.109l.283.258h1.503v18.573l.28.258h1.704l20.668-19.335v-.852l-.321-.291h-8.464m-.004-.004" fill="#000" fill-opacity="1" fill-rule="nonzero" stroke="none" stroke-width=".955"/><path id="path489" d="M24.739 26.254a.082.082 0 0 0-.041.019l-.4.31a.084.084 0 0 0-.025.037l-.4 1.016c-.015.03-.003.063.02.086l.305.277a.09.09 0 0 0 .067.025H25.5a.09.09 0 0 0 .067-.025l.32-.292a.114.114 0 0 0 .027-.037l.342-1.068a.076.076 0 0 0-.025-.082l-.265-.243a.102.102 0 0 0-.067-.022h-1.16m-2.259 2.86c-.037.008-.063.03-.07.063l-.153.55a.08.08 0 0 0 .015.07c.02.02.045.033.074.033h.728l-1.801 4.661c-.012.026-.008.057.011.075a.094.094 0 0 0 .075.037h2.62c.042 0 .079-.022.09-.056l.172-.504a.076.076 0 0 0-.015-.075.1.1 0 0 0-.074-.033h-.593l1.782-4.71a.074.074 0 0 0-.012-.078.095.096 0 0 0-.074-.034H22.48m8.345.02c-.022.003-.041.01-.053.025l-.548.56h-.864l-.582-.544a.095.096 0 0 0-.063-.026h-2.073c-.037 0-.074.022-.086.056l-.19.516a.067.067 0 0 0 .012.074.1.1 0 0 0 .074.037h.556l-1.727 4.612c-.012.022-.004.053.011.075a.095.096 0 0 0 .075.033h2.208c.037 0 .074-.022.086-.056l.171-.448a.076.076 0 0 0-.015-.075.094.094 0 0 0-.074-.037h-.384l1.1-3.14h1.99l-1.255 3.647a.072.072 0 0 0 .021.075.095.096 0 0 0 .075.034h2.126a.095.096 0 0 0 .086-.05l.19-.414c.011-.026.007-.063-.008-.079a.108.108 0 0 0-.078-.037h-.384l1.123-3.193h1.89l-1.272 3.664c-.011.019-.004.056.012.066a.115.115 0 0 0 .078.034h2.334c.04 0 .074-.02.09-.053l.19-.448a.087.087 0 0 0-.012-.078c-.022-.022-.045-.038-.078-.038h-.462l1.412-4.145c.012-.026.004-.057-.021-.079l-.437-.53a.095.096 0 0 0-.074-.034H34.32a.092.092 0 0 0-.06.026l-.534.523H32.8l-.538-.541c-.022-.015-.04-.026-.066-.022h-1.35c-.004-.004-.012-.004-.022 0m.007 0" fill="#000" fill-opacity="1" fill-rule="nonzero" stroke="none" stroke-width=".955"/><path id="path491" d="M24.758 26.336l-.4.31-.398 1.016.305.276H25.5l.325-.291.343-1.068-.269-.243m-3.4 2.86l-.153.553h.854l-1.842 4.773h2.62l.173-.5h-.72l1.823-4.828m5.589.019l-.575.586h-.947l-.608-.572H26.64l-.19.52h.686l-1.77 4.72h2.208l.168-.448h-.511l1.16-3.309h2.185l-1.294 3.757h2.129l.19-.415h-.51l1.177-3.357h2.089l-1.313 3.771h2.338l.19-.448h-.59l1.448-4.257-.436-.535H34.32l-.552.553H32.76l-.571-.568h-1.35m.004 0" fill="#000" fill-opacity="1" fill-rule="nonzero" stroke="none" stroke-width=".955"/><path id="SVGCleanerId_0" d="M23.188 35.549c-2.614-.647-8.648-6.401-10.463-9.976-.585-1.158-.585-1.812 0-2.966.806-1.595 2.453-3.634 4.672-5.784 2.86-2.77 5.031-4.198 6.391-4.198 1.406 0 3.77 1.595 6.798 4.57 2.48 2.451 4.146 4.703 4.59 6.208.205.701.16 1.142-.213 1.99-1.264 2.878-6.8 8.456-9.743 9.833-.798.374-1.42.47-2.017.325m-.015-.003" fill="#003b01" fill-opacity=".502" fill-rule="nonzero" stroke="none" stroke-width=".955"/><path id="path504" d="M26.94 14.627l-.321.292v1.071l.28.258h1.491v1.035l-9.859 9.063V16.263h1.638l.336-.306v-1.083l-.31-.22h-8.629l-.28.258v1.109l.284.258h1.502v18.573l.28.258h1.704l20.668-19.335v-.852l-.32-.291h-8.465m-.004-.004" fill="#e7e7e7" fill-opacity="1" fill-rule="nonzero" stroke="none" stroke-width=".955"/><path id="path506" d="M24.739 26.253a.082.082 0 0 0-.041.019l-.4.31c-.01.011-.021.022-.025.037l-.399 1.016c-.015.03-.004.063.02.086l.305.277c.019.019.04.025.067.025H25.5a.09.09 0 0 0 .067-.025l.32-.292a.114.114 0 0 0 .026-.037l.343-1.068a.076.076 0 0 0-.026-.082l-.264-.243a.102.102 0 0 0-.067-.022h-1.16m-2.26 2.86c-.037.008-.062.03-.07.063l-.153.55a.08.08 0 0 0 .015.07c.02.019.045.033.075.033h.727l-1.801 4.661c-.011.026-.008.057.011.075a.094.094 0 0 0 .075.037h2.621c.041 0 .078-.022.09-.056l.172-.504a.076.076 0 0 0-.016-.075.1.1 0 0 0-.074-.033h-.593l1.782-4.71a.074.074 0 0 0-.011-.078.095.096 0 0 0-.075-.034H22.48m8.344.02c-.022.003-.04.01-.052.025l-.548.56h-.865l-.581-.544a.095.096 0 0 0-.063-.026H26.64c-.037 0-.074.022-.085.056l-.19.515a.067.067 0 0 0 .011.075.1.1 0 0 0 .074.037h.556l-1.727 4.612c-.011.022-.004.053.012.075a.095.096 0 0 0 .074.033h2.208c.037 0 .075-.022.086-.056l.172-.448a.076.076 0 0 0-.015-.075.094.094 0 0 0-.075-.037h-.384l1.1-3.141h1.991l-1.256 3.648a.072.072 0 0 0 .022.075.095.096 0 0 0 .074.033h2.126a.095.096 0 0 0 .086-.048l.19-.415c.012-.026.008-.063-.008-.079a.108.108 0 0 0-.078-.037h-.384l1.123-3.193h1.89l-1.271 3.663c-.012.02-.004.057.011.067a.115.115 0 0 0 .078.034h2.334c.041 0 .075-.02.09-.053l.19-.448a.083.083 0 0 0-.012-.079c-.022-.022-.044-.037-.078-.037h-.462l1.413-4.145c.011-.026.004-.057-.022-.079l-.436-.53a.095.096 0 0 0-.075-.034H34.32a.092.092 0 0 0-.06.026l-.534.523h-.925l-.537-.541c-.022-.015-.041-.026-.067-.022h-1.35c-.004-.004-.011-.004-.022 0m.008 0" fill="#fff" fill-opacity="1" fill-rule="nonzero" stroke="none" stroke-width=".955"/><path id="path508" d="M24.758 26.335l-.399.31-.399 1.016.306.276H25.5l.324-.291.343-1.068-.268-.243m-3.401 2.86l-.153.553h.854l-1.842 4.773h2.621l.172-.5h-.72l1.824-4.828m5.588.019l-.574.586h-.947l-.608-.572H26.64l-.19.52h.686l-1.77 4.72h2.207l.168-.448h-.51l1.16-3.309h2.184l-1.293 3.757h2.128l.19-.415h-.51l1.178-3.357h2.088l-1.312 3.771h2.337l.19-.448h-.589l1.447-4.257-.436-.535H34.32l-.552.553H32.76l-.57-.568h-1.35m.003 0" fill="#e7e7e7" fill-opacity="1" fill-rule="nonzero" stroke="none" stroke-width=".955"/></svg>