<svg xmlns="http://www.w3.org/2000/svg" style="isolation:isolate" width="48" height="48"><path d="M19.68 3.413h8.596c14.073 0 17.004 11.247 17.004 17.282v7.122c0 5.96-2.736 17.282-18.048 17.282H20.22c-11.7 0-17.35-7.708-17.35-17.282v-7.122c0-9.574 5.535-17.282 16.81-17.282z" fill="#19c1e3"/><path d="M9.165 18.53c3.17-2.876 6-7.886 9.286-6.846 5.446 1.425 3.093 11.954 6.187 16.876 4.238-2.414 6.988-7.497 5.846-10.134-.256-.737.055-2.575-3.425-.969-.903.417-.865-1.198-.706-1.417 3.22-3.578 5.08-5.07 7.285-4.979 1.854.314 5.114 2.42 4.516 7.469C36.913 26.043 26 37.842 22.35 37.408c-4.175.93-6.3-12.405-9.44-18.671l-2.874 1.125c-1.184.188-1.02-.577-.87-1.332z" fill="#fff"/></svg>