<svg xmlns="http://www.w3.org/2000/svg" xmlns:xlink="http://www.w3.org/1999/xlink" width="48" height="48" version="1.1" id="svg38"><defs id="defs22"><linearGradient id="linearGradient4488"><stop id="stop4490" offset="0" stop-color="#000" stop-opacity=".047"/><stop id="stop4492" offset="1" stop-color="#000" stop-opacity="0"/></linearGradient><style id="style4511"/><style id="style4511-26"/><style id="style4511-9"/><style id="style4552"/><style id="style4511-2"/><linearGradient xlink:href="#linearGradient4488" id="linearGradient4548" gradientUnits="userSpaceOnUse" gradientTransform="translate(-62.55 1.994) scale(.3038)" x1="288.112" y1="141.785" x2="287.575" y2="79.008"/></defs><style id="style4485" type="text/css"/><path id="path4532" d="M3.088 26.22v1.67c0 9.573 5.583 17.281 17.146 17.281h6.93c15.133 0 17.837-11.322 17.837-17.282v-1.668c0 5.96-2.704 17.282-17.837 17.282h-6.93c-11.563 0-17.146-7.708-17.146-17.282z" opacity="1" fill="url(#linearGradient4548)" fill-opacity="1" stroke="none" stroke-width="1.1" stroke-linecap="square" stroke-linejoin="bevel" stroke-miterlimit="4" stroke-dasharray="none" stroke-dashoffset="0" stroke-opacity=".078"/><path id="path4534" d="M19.701 2.742h8.495c13.908 0 16.805 11.247 16.805 17.282v7.124c0 5.96-2.704 17.282-17.837 17.282h-6.93c-11.562 0-17.146-7.708-17.146-17.282v-7.124c0-9.574 5.47-17.282 16.613-17.282z" opacity="1" fill="#5b84b3" fill-opacity="1" stroke="#000" stroke-width=".334" stroke-linecap="square" stroke-linejoin="bevel" stroke-miterlimit="4" stroke-dasharray="none" stroke-dashoffset="0" stroke-opacity=".078"/><path id="path3673" d="M23.91 7.225l-13.581 6.15.961 14.705 5.175 3.525a7.807 7.593 0 0 0-.04.752 7.807 7.593 0 0 0 7.808 7.59 7.807 7.593 0 0 0 7.806-7.59 7.807 7.593 0 0 0-.07-.937l4.56-3.126L37.76 13.32 23.91 7.225zm.052 1.446l10.752 4.971-10.752 5.935-10.318-6.202 10.318-4.704zm.137 1.095l-.094.047-7.888 3.945 7.825 4.62 2.843-1.577.024.026v-.038l5.536-3.07-8.246-3.953zm.006.485l7.287 3.495-4.744 2.633c-.02-.015-.042-.027-.097-.071l-.01-.01-1.402-.89 2.192-2.59-.273-.337-2.255 1.214 1.46-2.098-4.7 2.133 1.664-1.72-1.13-.757 2.008-1.002zm-2.46 1.228l.904.605-2.094 2.165.248.348 4.3-1.947-1.078 1.548.281.316 2.045-1.1-1.772 2.096 1.744 1.104-2.273 1.262-6.92-4.087 4.614-2.31zm-9.55 4.943l10 6.204v11.12l-9.52-6.951-.48-10.373zm23.686.161l-.534 10.05-9.411 6.791.106-10.692 9.839-6.149zm-1.469 5.782l-.348.236-.153 1.027-.763-.401-.33.222 1.018.515-.232 1.5.346-.235.171-1.127.84.438.327-.222-1.094-.556.218-1.397zm-20.527.23l-.76 2.004.401.243 2.115-1.188-.314-.19-1.788 1.015.66-1.694-.314-.19zm2.637.77l-1.92 2.124.85.513c.31.188.595.264.859.23a.806.806 0 0 0 .615-.41.624.624 0 0 0 .106-.4.594.594 0 0 0-.196-.354.694.694 0 0 0 .886-.29c.102-.168.122-.329.061-.48-.061-.151-.204-.294-.43-.43l-.83-.503zm.108.432l.483.291c.144.087.235.173.27.26.038.088.025.184-.038.288a.436.436 0 0 1-.336.224c-.142.017-.3-.026-.472-.13l-.485-.294.578-.64zm15.64.236a.78.78 0 0 0-.607.14 1.1 1.1 0 0 0-.36.394 1.239 1.239 0 0 0-.135.541 1.576 1.576 0 0 0 .267.868c.148.218.325.35.53.395.204.044.408-.001.612-.14.162-.11.286-.243.367-.396.081-.152.125-.333.132-.541a1.348 1.348 0 0 0-.073-.448 1.761 1.761 0 0 0-.222-.455.791.791 0 0 0-.511-.358zm-.281.318a.388.388 0 0 1 .185 0c.12.03.23.122.332.273.175.257.257.511.244.765a.693.693 0 0 1-.305.575c-.134.09-.26.122-.379.09-.119-.035-.233-.132-.34-.29a1.448 1.448 0 0 1-.169-.332 1.159 1.159 0 0 1-.065-.34.839.839 0 0 1 .069-.38c.05-.109.128-.2.236-.274a.57.57 0 0 1 .192-.087zm-16.147.32l.522.315c.155.094.252.191.287.291.036.101.015.214-.061.34-.1.165-.23.262-.391.288-.161.026-.34-.02-.536-.139l-.523-.317.702-.778zm14.043.105c-.163-.007-.355.062-.572.21l-.803.548 1.13 2.631.82-.558c.299-.204.49-.433.57-.686a.807.807 0 0 0-.119-.731.626.626 0 0 0-.32-.263.594.594 0 0 0-.403.03.696.696 0 0 0 .23-.443.696.696 0 0 0-.122-.483c-.11-.163-.248-.247-.411-.255zm-.12.385c.094.003.176.055.244.155a.43.43 0 0 1 .063.397c-.044.136-.148.261-.315.375l-.469.32-.34-.795.464-.315c.14-.095.258-.14.353-.137zm-11.2.338a1.245 1.245 0 0 0-.55.104 1.376 1.376 0 0 0-.372.245c-.124.11-.225.23-.304.36-.136.226-.182.44-.138.646.045.204.173.371.385.499.167.1.336.156.509.167.172.01.355-.026.548-.106.124-.053.249-.136.376-.253.128-.116.236-.246.322-.389a.798.798 0 0 0 .112-.617.776.776 0 0 0-.38-.49 1.101 1.101 0 0 0-.508-.166zm-.022.296a.65.65 0 0 1 .344.102c.135.081.214.183.236.305.022.122-.014.26-.108.416-.16.266-.358.446-.594.541-.235.095-.451.084-.65-.036-.139-.084-.218-.188-.238-.31-.019-.122.021-.264.12-.428.065-.108.141-.205.23-.29.09-.086.185-.153.283-.203a.85.85 0 0 1 .377-.097zm11.76.42c.106.009.2.074.282.197.109.159.142.315.098.472-.043.157-.16.3-.35.43l-.505.344-.414-.963.503-.342c.15-.103.28-.149.385-.139zm-10.09.197l-.043 1.138-1.462.416.36.218 1.096-.316-.051.945.34.206.047-1.226 1.363-.385-.359-.218-.998.289.047-.861-.34-.206zm8.193.043l-.303.205.175 2.05-1.263-1.308-.303.207 1.505 1.526.385-.263-.196-2.417z" opacity="1" fill="#fff" fill-opacity="1" fill-rule="evenodd" stroke="none" stroke-width="1" stroke-linecap="butt" stroke-linejoin="miter" stroke-opacity="1"/></svg>