<svg xmlns="http://www.w3.org/2000/svg" xmlns:xlink="http://www.w3.org/1999/xlink" width="48" height="48" version="1.1" id="svg38"><defs id="defs22"><linearGradient id="linearGradient4488"><stop id="stop4490" offset="0" stop-color="#000" stop-opacity=".047"/><stop id="stop4492" offset="1" stop-color="#000" stop-opacity="0"/></linearGradient><style id="style4511"/><style id="style4511-26"/><style id="style4511-9"/><style id="style4552"/><style id="style4511-2"/><linearGradient xlink:href="#linearGradient4488" id="linearGradient4546" gradientUnits="userSpaceOnUse" gradientTransform="translate(-62.497 1.994) scale(.3038)" x1="288.112" y1="141.785" x2="287.575" y2="79.008"/><linearGradient gradientTransform="rotate(-90 -8.76 51.208)" gradientUnits="userSpaceOnUse" x2="47" x1="1" id="linearGradient3764"><stop id="stop336" stop-opacity="1" stop-color="#e4e4e4"/><stop id="stop338" stop-opacity="1" stop-color="#eee" offset="1"/></linearGradient><linearGradient xlink:href="#linearGradient3764" id="linearGradient1274" x1="2.974" y1="23.586" x2="45.221" y2="23.586" gradientUnits="userSpaceOnUse"/><clipPath id="clipPath-754239457"/></defs><style id="style4485" type="text/css"/><path d="M3.141 26.22v1.67c0 9.573 5.583 17.281 17.146 17.281h6.93c15.133 0 17.837-11.322 17.837-17.282v-1.668c0 5.96-2.704 17.282-17.837 17.282h-6.93c-11.563 0-17.146-7.708-17.146-17.282z" id="path4528" opacity="1" fill="url(#linearGradient4546)" fill-opacity="1" stroke="none" stroke-width="1.1" stroke-linecap="square" stroke-linejoin="bevel" stroke-miterlimit="4" stroke-dasharray="none" stroke-dashoffset="0" stroke-opacity=".078"/><path d="M19.754 2.742h8.495c13.908 0 16.805 11.247 16.805 17.282v7.124c0 5.96-2.704 17.282-17.837 17.282h-6.93c-11.562 0-17.146-7.708-17.146-17.282v-7.124c0-9.574 5.47-17.282 16.613-17.282z" id="path4530" opacity="1" fill="url(#linearGradient1274)" fill-opacity="1" stroke="#000" stroke-width=".334" stroke-linecap="square" stroke-linejoin="bevel" stroke-miterlimit="4" stroke-dasharray="none" stroke-dashoffset="0" stroke-opacity=".078"/><path id="path424" d="M23.132 11.898a2.431 2.37 0 0 1-2.424 2.38 2.431 2.37 0 0 1-2.42-2.38c0-1.315 1.08-2.38 2.42-2.38a2.431 2.37 0 0 1 2.424 2.38m0 0" fill="#f36f20" fill-opacity="1" fill-rule="nonzero" stroke="none" stroke-width="1.096"/><path id="path426" d="M27.139 18.51a2.025 1.974 0 0 1-2.016 1.983c-1.11 0-2.02-.888-2.02-1.983 0-1.095.902-1.982 2.02-1.982 1.11 0 2.016.887 2.016 1.982m0 0" fill="#f36f20" fill-opacity="1" fill-rule="nonzero" stroke="none" stroke-width="1.096"/><path id="path428" d="M37.828 20.196c0 2.194-1.804 3.97-4.037 3.97-2.232 0-4.038-1.776-4.038-3.97 0-2.19 1.804-3.965 4.038-3.965 2.231 0 4.037 1.776 4.037 3.965m0 0" fill="#f36f20" fill-opacity="1" fill-rule="nonzero" stroke="none" stroke-width="1.096"/><path id="path430" d="M25.717 26.545c0 3.944-3.249 7.144-7.268 7.144-4.011 0-7.269-3.2-7.269-7.144s3.249-7.14 7.269-7.14c4.015 0 7.268 3.196 7.268 7.14m0 0" fill="#f36f20" fill-opacity="1" fill-rule="nonzero" stroke="none" stroke-width="1.096"/><path id="path432" d="M26.523 36.069c0 .875-.72 1.585-1.613 1.585a1.617 1.577 0 0 1-1.613-1.585c0-.88.719-1.59 1.613-1.59.893 0 1.613.71 1.613 1.59m0 0" fill="#f36f20" fill-opacity="1" fill-rule="nonzero" stroke="none" stroke-width="1.096"/><path id="path434" d="M19.736 13.018l-1.135 7.91.807.101 1.135-7.91m-.807-.1" fill="#f36f20" fill-opacity="1" fill-rule="nonzero" stroke="none" stroke-width="1.096"/><path id="path436" d="M23.86 19.08l-1.162 3.074.803.266 1.162-3.078m-.803-.262" fill="#f36f20" fill-opacity="1" fill-rule="nonzero" stroke="none" stroke-width="1.096"/><path id="path438" d="M31.102 21.012l-7.064 5.71.537.617 7.064-5.71m-.537-.617" fill="#f36f20" fill-opacity="1" fill-rule="nonzero" stroke="none" stroke-width="1.096"/><path id="path440" d="M23.323 29.268l-.716.177 1.431 5.533.716-.177m-1.43-5.533" fill="#f36f20" fill-opacity="1" fill-rule="nonzero" stroke="none" stroke-width="1.096"/></svg>