<svg xmlns:osb="http://www.openswatchbook.org/uri/2009/osb" xmlns="http://www.w3.org/2000/svg" xmlns:xlink="http://www.w3.org/1999/xlink" width="48" height="48" version="1.1" id="svg38"><defs id="defs22"><style id="style4511"/><style id="style4511-26"/><style id="style4511-9"/><style id="style4552"/><linearGradient id="b-2-9" y1="540.92" y2="522.55" x2="0" gradientUnits="userSpaceOnUse" gradientTransform="matrix(1 0 0 1.14286 0 -77.4)"><stop offset="0" stop-color="#009320" id="stop7-91" stop-opacity="1"/><stop offset="1" stop-color="#05be14" id="stop9-2" stop-opacity="1"/></linearGradient><style id="style4511-2"/><linearGradient osb:paint="solid" id="linearGradient5293"><stop id="stop5295" offset="0" stop-color="#9a89c0" stop-opacity="1"/></linearGradient><linearGradient gradientTransform="rotate(-90 -6.993 55.55)" gradientUnits="userSpaceOnUse" x2="47" x1="1" id="linearGradient3764-3"><stop id="stop2-67" stop-opacity="1" stop-color="#e4e4e4"/><stop id="stop4-535" stop-opacity="1" stop-color="#eee" offset="1"/></linearGradient><linearGradient xlink:href="#b-2-9" id="linearGradient1257" x1="10.698" y1="23.086" x2="35.674" y2="23.086" gradientUnits="userSpaceOnUse" gradientTransform="translate(-2.832 -2.82) scale(1.12215)"/><linearGradient xlink:href="#linearGradient3764-3" id="linearGradient1265" x1="2.583" y1="23.586" x2="44.83" y2="23.586" gradientUnits="userSpaceOnUse"/></defs><style id="style4485" type="text/css"/><path id="path4518" d="M19.363 2.742h8.495c13.908 0 16.804 11.247 16.804 17.282v7.124c0 5.96-2.704 17.282-17.836 17.282h-6.93C8.333 44.43 2.75 36.722 2.75 27.148v-7.124c0-9.574 5.47-17.282 16.613-17.282z" opacity="1" fill="url(#linearGradient1265)" fill-opacity="1" stroke="#000" stroke-width=".334" stroke-linecap="square" stroke-linejoin="bevel" stroke-miterlimit="4" stroke-dasharray="none" stroke-dashoffset="0" stroke-opacity=".078"/><path id="path29" style="white-space:normal;isolation:auto;mix-blend-mode:normal;solid-color:#000;solid-opacity:1" d="M18.516 21.396l-7.68-5.606-1.663.842v12.905l1.664.842 7.677-5.607L31.36 36.554l5.84-2.244V11.862l-5.84-2.244s-8.57 7.85-12.846 11.782zm12.845 6.735l-7.006-5.05 7.006-5.05zm-18.685-8.136l3.504 3.085-3.504 3.086z" color="#000" visibility="visible" opacity="1" color-interpolation="sRGB" color-interpolation-filters="linearRGB" fill="url(#linearGradient1257)" fill-opacity="1" fill-rule="nonzero" stroke="none" stroke-width="1.146" color-rendering="auto" image-rendering="auto" shape-rendering="auto"/></svg>