<svg xmlns:osb="http://www.openswatchbook.org/uri/2009/osb" xmlns="http://www.w3.org/2000/svg" width="48" height="48" version="1.1" id="svg38"><defs id="defs22"><style id="style4511"/><style id="style4511-26"/><style id="style4511-9"/><style id="style4552"/><style id="style4511-2"/><linearGradient osb:paint="solid" id="linearGradient5293"><stop id="stop5295" offset="0" stop-color="#9a89c0" stop-opacity="1"/></linearGradient></defs><style id="style4485" type="text/css"/><g id="g1322"><path d="M19.525 3.175H28.1c14.042 0 16.966 11.402 16.966 17.52v7.22c0 6.042-2.73 17.52-18.008 17.52h-6.996c-11.674 0-17.31-7.814-17.31-17.52v-7.22c0-9.706 5.522-17.52 16.772-17.52z" id="path4518" opacity="1" fill="#fc4358" fill-opacity="1" stroke="#000" stroke-width=".338" stroke-linecap="square" stroke-linejoin="bevel" stroke-miterlimit="4" stroke-dasharray="none" stroke-dashoffset="0" stroke-opacity=".078"/><g transform="translate(-.564 .594)" id="g1316" fill-rule="evenodd" stroke="none"><path d="M12.356 17.867l10.457 18.475s.566.989 1.99.989c1.425 0 1.992-.99 1.992-.99s7.268-11.131 10.233-17.07c.298-.595.619-1.198.754-1.852.092-.444.136-.92.03-1.361-.13-.538-.378-1.088-.784-1.463-.47-.433-1.12-.7-1.754-.765-.682-.072-1.41.092-2.02.41a2.65 2.65 0 0 0-1.05 1.01c-.238.42-.3.928-.326 1.409-.018.33.047.664.115.988.023.11.06.219.099.325.097.27.229.528.328.798.082.222.196.44.222.676.042.38.032.786-.108 1.14-.683 1.729-1.857 3.39-3.41 4.406-.642.42-1.465.525-2.232.558-.875.037-1.883-.032-2.593-.418s-1.044-1.056-1.49-1.647c-2.041-2.71-5.38-8.646-5.38-8.646s-1.45-2.565-4.061-1.01c-2.61 1.556-1.015 4.04-1.015 4.04z" id="path469" opacity=".1" fill="#000"/><path d="M11.356 16.867l10.457 18.475s.566.989 1.99.989c1.425 0 1.992-.99 1.992-.99s7.268-11.131 10.233-17.07c.298-.595.619-1.198.754-1.852.092-.444.136-.92.03-1.361-.13-.538-.378-1.088-.784-1.463-.47-.433-1.12-.7-1.754-.765-.682-.072-1.41.092-2.02.41a2.65 2.65 0 0 0-1.05 1.01c-.238.42-.3.928-.326 1.409-.018.33.047.664.115.988.023.11.06.219.099.325.097.27.229.528.328.798.082.222.196.44.222.676.042.38.032.786-.108 1.14-.683 1.729-1.857 3.39-3.41 4.406-.642.42-1.465.525-2.232.558-.875.037-1.883-.032-2.593-.418s-1.044-1.056-1.49-1.647c-2.041-2.71-5.38-8.646-5.38-8.646s-1.45-2.565-4.061-1.01c-2.61 1.556-1.015 4.04-1.015 4.04z" id="path471" fill="#f9f9f9"/></g></g></svg>