<svg xmlns:osb="http://www.openswatchbook.org/uri/2009/osb" xmlns="http://www.w3.org/2000/svg" width="48" height="48" version="1.1" id="svg38"><defs id="defs22"><style id="style4511"/><style id="style4511-26"/><style id="style4511-9"/><style id="style4552"/><style id="style4511-2"/><linearGradient osb:paint="solid" id="linearGradient5293"><stop id="stop5295" offset="0" stop-color="#9a89c0" stop-opacity="1"/></linearGradient></defs><style id="style4485" type="text/css"/><g id="g1890" transform="matrix(.99993 0 0 1.017 .002 -.045)"><path d="M19.649 2.742h8.64c14.148 0 17.094 11.247 17.094 17.282v7.124c0 5.96-2.75 17.282-18.143 17.282h-7.05c-11.76 0-17.44-7.708-17.44-17.282v-7.124c0-9.574 5.564-17.282 16.899-17.282z" id="path4518" opacity="1" fill="#437297" fill-opacity="1" stroke="#000" stroke-width=".337" stroke-linecap="square" stroke-linejoin="bevel" stroke-miterlimit="4" stroke-dasharray="none" stroke-dashoffset="0" stroke-opacity=".078"/><path d="M23.629 33.28H25.5s.565-.066.854-.395c.266-.303.257-.872.257-.872s-.037-2.662 1.129-3.054c1.15-.387 2.625 2.573 4.189 3.71 1.183.862 2.081.673 2.081.673l4.183-.062s2.187-.143 1.15-1.966c-.085-.15-.604-1.349-3.11-3.814-2.623-2.579-2.272-2.162.887-6.625 1.925-2.718 2.693-4.377 2.453-5.087-.23-.678-1.644-.499-1.644-.499l-4.71.031s-.349-.05-.607.114c-.253.16-.416.535-.416.535s-.745 2.104-1.739 3.892c-2.097 3.775-2.935 3.974-3.278 3.74-.798-.547-.598-2.194-.598-3.365 0-3.658.523-5.183-1.02-5.578-.511-.13-.888-.217-2.197-.231-1.68-.019-3.102.005-3.908.423-.535.278-.949.898-.697.933.312.044 1.016.202 1.39.741.483.696.466 2.259.466 2.259s.277 4.305-.648 4.84c-.634.367-1.505-.382-3.375-3.806-.957-1.754-1.68-3.693-1.68-3.693s-.14-.362-.389-.556c-.3-.235-.722-.31-.722-.31l-4.475.031s-.671.02-.918.33c-.22.275-.018.845-.018.845s3.503 8.688 7.47 13.066c3.638 4.015 7.768 3.751 7.768 3.751" id="path1212" fill="#f2f2f2" fill-rule="evenodd" stroke-width="1.44"/></g></svg>