<svg xmlns="http://www.w3.org/2000/svg" xmlns:xlink="http://www.w3.org/1999/xlink" width="48" height="48" version="1.1" id="svg38"><defs id="defs22"><linearGradient id="linearGradient835"><stop offset="0" id="stop831" stop-color="#ec4b00" stop-opacity="1"/><stop offset="1" id="stop833" stop-color="#ec9500" stop-opacity="1"/></linearGradient><linearGradient id="linearGradient4488"><stop id="stop4490" offset="0" stop-color="#000" stop-opacity=".047"/><stop id="stop4492" offset="1" stop-color="#000" stop-opacity="0"/></linearGradient><style id="style4511"/><style id="style4511-26"/><style id="style4511-9"/><style id="style4552"/><style id="style4511-2"/><linearGradient xlink:href="#linearGradient4488" id="linearGradient4546" gradientUnits="userSpaceOnUse" gradientTransform="matrix(.3038 0 0 .3086 -62.497 1.982)" x1="288.112" y1="141.785" x2="287.575" y2="79.008"/><linearGradient xlink:href="#linearGradient835" id="linearGradient837" x1="24" y1="43.119" x2="24.203" y2="6.508" gradientUnits="userSpaceOnUse"/></defs><style id="style4485" type="text/css"/><path d="M3.141 26.592v1.695c0 9.726 5.583 17.555 17.146 17.555h6.93c15.133 0 17.837-11.501 17.837-17.555v-1.695c0 6.054-2.704 17.556-17.837 17.556h-6.93c-11.563 0-17.146-7.83-17.146-17.556z" id="path4528" opacity="1" fill="url(#linearGradient4546)" fill-opacity="1" stroke="none" stroke-width="1.109" stroke-linecap="square" stroke-linejoin="bevel" stroke-miterlimit="4" stroke-dasharray="none" stroke-dashoffset="0" stroke-opacity=".078"/><path d="M3.149 28.484v-8.495c0-13.908 11.303-16.805 17.369-16.805h7.16c5.989 0 17.368 2.704 17.368 17.837v6.93c0 11.562-7.746 17.146-17.369 17.146h-7.159c-9.623 0-17.37-5.47-17.37-16.613z" id="path4530" opacity="1" fill="url(#linearGradient837)" fill-opacity="1" stroke="#000" stroke-width=".335" stroke-linecap="square" stroke-linejoin="bevel" stroke-miterlimit="4" stroke-dasharray="none" stroke-dashoffset="0" stroke-opacity=".078"/><g id="rss-1-6-0" transform="matrix(1.06317 0 0 1.06018 -31.39 -57.371)" fill="#ececec" fill-opacity="1" fill-rule="evenodd" stroke="none" stroke-width="1"><g id="VLC_media_Player-8-7-8" data-name="VLC media Player" transform="translate(27.966 58.454)" fill="#ececec" fill-opacity="1"><path d="M23.967 6.431a1.51 1.51 0 0 0-1.44 1.07l-.601 2.061a.5.5 0 0 0 .338.627 7.59 7.59 0 0 0 .008.002 7.59 7.59 0 0 0 .002 0 7.59 7.59 0 0 0 1.953.24 7.59 7.59 0 0 0 2-.25.5.5 0 0 0 .35-.629l-.61-2.05a1.51 1.51 0 0 0-1.49-1.07zM21 13.96a.5.5 0 0 0-.482.353l-1.23 4.12a.5.5 0 0 0 0 .269c.31 1.19 2.699 1.73 4.939 1.73s4.63-.54 4.94-1.75a.5.5 0 0 0 0-.27l-1.22-4.099a.5.5 0 0 0-.63-.33 10.93 10.93 0 0 1-6.17 0A.5.5 0 0 0 21 13.96zm-4.084 7.472a1.51 1.51 0 0 0-1.398 1l-2.172 5.6a1.75 1.75 0 0 0-.12.63 1.77 1.77 0 0 0 1.77 1.77h18.461a1.77 1.77 0 0 0 1.65-2.4l-2.17-5.6a1.51 1.51 0 0 0-1.4-1h-1.43a.5.5 0 0 0-.45.72.63.63 0 0 1 .07.28c0 .94-2.35 2-5.5 2s-5.5-1.06-5.5-2a.63.63 0 0 1 .07-.28.5.5 0 0 0-.451-.72z" id="path4488-7-5-8" fill="#ececec" fill-opacity="1"/></g></g></svg>