<svg xmlns:osb="http://www.openswatchbook.org/uri/2009/osb" xmlns="http://www.w3.org/2000/svg" xmlns:xlink="http://www.w3.org/1999/xlink" width="48" height="48" version="1.1" id="svg38"><defs id="defs22"><linearGradient id="linearGradient4488"><stop id="stop4490" offset="0" stop-color="#000" stop-opacity=".047"/><stop id="stop4492" offset="1" stop-color="#000" stop-opacity="0"/></linearGradient><style id="style4511"/><style id="style4511-26"/><style id="style4511-9"/><style id="style4552"/><style id="style4511-2"/><linearGradient xlink:href="#linearGradient4488" id="linearGradient4540" gradientUnits="userSpaceOnUse" gradientTransform="translate(-62.601 2.137) scale(.3038)" x1="288.112" y1="141.785" x2="287.575" y2="79.008"/><linearGradient osb:paint="solid" id="linearGradient5293"><stop id="stop5295" offset="0" stop-color="#9a89c0" stop-opacity="1"/></linearGradient><linearGradient gradientTransform="rotate(-90 -6.993 55.55)" gradientUnits="userSpaceOnUse" x2="47" x1="1" id="linearGradient3764-3"><stop id="stop2-67" stop-opacity="1" stop-color="#e4e4e4"/><stop id="stop4-535" stop-opacity="1" stop-color="#eee" offset="1"/></linearGradient><linearGradient x1="0%" y1="46.467%" x2="100%" y2="46.467%" id="linearGradient-1-1"><stop stop-color="#FC8F18" offset="0%" id="stop78"/><stop stop-color="#FF7614" offset="100%" id="stop80"/></linearGradient><linearGradient gradientUnits="userSpaceOnUse" y2="26.728" x2="38" y1="26.728" x1="2" id="linearGradient119" xlink:href="#linearGradient-1-1" gradientTransform="matrix(.6007 0 0 .58735 9.577 9.633)"/><linearGradient gradientUnits="userSpaceOnUse" gradientTransform="matrix(.80594 0 0 .43778 9.577 9.633)" y2="25.885" x2="28.324" y1="25.885" x1="1.491" id="linearGradient123" xlink:href="#linearGradient-1-1"/><linearGradient xlink:href="#linearGradient3764-3" id="linearGradient1498" x1="2.583" y1="23.586" x2="44.83" y2="23.586" gradientUnits="userSpaceOnUse" gradientTransform="translate(.288 .144)"/><style id="style4511-8"/><style id="style4511-26-7"/><style id="style4511-9-7"/><style id="style4552-5"/><style id="style4511-2-5"/></defs><style id="style4485" type="text/css"/><style type="text/css" id="style4485-2"/><path id="path4516" d="M3.037 26.364v1.669c0 9.574 5.584 17.282 17.146 17.282h6.93c15.133 0 17.837-11.323 17.837-17.282v-1.669c0 5.96-2.704 17.283-17.836 17.283h-6.93c-11.563 0-17.147-7.708-17.147-17.283z" opacity="1" fill="url(#linearGradient4540)" fill-opacity="1" stroke="none" stroke-width="1.1" stroke-linecap="square" stroke-linejoin="bevel" stroke-miterlimit="4" stroke-dasharray="none" stroke-dashoffset="0" stroke-opacity=".078"/><path id="path4518" d="M19.65 2.886h8.496c13.907 0 16.804 11.247 16.804 17.282v7.123c0 5.96-2.704 17.282-17.836 17.282h-6.93c-11.563 0-17.146-7.707-17.146-17.282v-7.123c0-9.574 5.47-17.282 16.613-17.282z" opacity="1" fill="url(#linearGradient1498)" fill-opacity="1" stroke="#000" stroke-width=".334" stroke-linecap="square" stroke-linejoin="bevel" stroke-miterlimit="4" stroke-dasharray="none" stroke-dashoffset="0" stroke-opacity=".078"/><g id="g1490" transform="matrix(.9499 0 0 .93347 1.077 .837)" stroke="none"><g transform="matrix(1.12636 0 0 1.10202 -.194 -7.85)" id="g1284" fill-rule="evenodd" stroke-width=".877"><path id="Combined-Shape" d="M14.983 15.507H28.2c2.322 0 4.205 1.84 4.205 4.111V32.54c0 2.27-1.883 4.112-4.205 4.112H14.983c-2.322 0-4.205-1.841-4.205-4.112V19.618c0-2.27 1.883-4.111 4.205-4.111zm4.806 4.699c-2.323 0-4.205 1.84-4.205 4.111v3.524c0 2.27 1.882 4.112 4.205 4.112h3.604c2.322 0 4.205-1.841 4.205-4.112v-3.524c0-2.27-1.883-4.111-4.205-4.111z" fill="url(#linearGradient119)"/><path id="path94" d="M32.404 27.254v-7.636c0-2.27-1.883-4.111-4.205-4.111H14.983c-2.322 0-4.205 1.84-4.205 4.111v7.636h4.806v-2.937c0-2.27 1.882-4.111 4.205-4.111h3.604c2.322 0 4.205 1.84 4.205 4.111v2.937z" fill="url(#linearGradient123)"/></g><g transform="translate(-.351 13.384)" id="g1323" fill="#4d4da8" fill-opacity="1" stroke-width=".199" stroke-miterlimit="4" stroke-dasharray="none" stroke-opacity="1"><ellipse id="path1279" cx="16.845" cy="23.634" rx="2.774" ry="2.792" opacity=".699"/><ellipse id="path1279-3" cx="24.401" cy="23.634" rx="2.774" ry="2.792" opacity=".699"/><ellipse id="path1279-6" cx="32.181" cy="23.595" rx="2.774" ry="2.792" opacity=".699"/></g></g></svg>