<svg xmlns:osb="http://www.openswatchbook.org/uri/2009/osb" xmlns="http://www.w3.org/2000/svg" xmlns:xlink="http://www.w3.org/1999/xlink" width="48" height="48" version="1.1" id="svg38"><defs id="defs22"><linearGradient id="linearGradient4488"><stop id="stop4490" offset="0" stop-color="#000" stop-opacity=".047"/><stop id="stop4492" offset="1" stop-color="#000" stop-opacity="0"/></linearGradient><style id="style4511"/><style id="style4511-26"/><style id="style4511-9"/><style id="style4552"/><style id="style4511-2"/><linearGradient xlink:href="#linearGradient4488" id="linearGradient4540" gradientUnits="userSpaceOnUse" gradientTransform="translate(-62.601 2.137) scale(.3038)" x1="288.112" y1="141.785" x2="287.575" y2="79.008"/><linearGradient osb:paint="solid" id="linearGradient5293"><stop id="stop5295" offset="0" stop-color="#9a89c0" stop-opacity="1"/></linearGradient><linearGradient gradientTransform="rotate(-90 -6.993 55.55)" gradientUnits="userSpaceOnUse" x2="47" x1="1" id="linearGradient3764-3"><stop id="stop2-67" stop-opacity="1" stop-color="#e4e4e4"/><stop id="stop4-535" stop-opacity="1" stop-color="#eee" offset="1"/></linearGradient><linearGradient xlink:href="#linearGradient3764-3" id="linearGradient1498" x1="2.583" y1="23.586" x2="44.83" y2="23.586" gradientUnits="userSpaceOnUse" gradientTransform="translate(.288 .144)"/></defs><style id="style4485" type="text/css"/><path id="path4516" d="M3.037 26.364v1.669c0 9.574 5.584 17.282 17.146 17.282h6.93c15.133 0 17.837-11.323 17.837-17.282v-1.669c0 5.96-2.704 17.283-17.836 17.283h-6.93c-11.563 0-17.147-7.708-17.147-17.283z" opacity="1" fill="url(#linearGradient4540)" fill-opacity="1" stroke="none" stroke-width="1.1" stroke-linecap="square" stroke-linejoin="bevel" stroke-miterlimit="4" stroke-dasharray="none" stroke-dashoffset="0" stroke-opacity=".078"/><path id="path4518" d="M19.65 2.886h8.496c13.907 0 16.804 11.247 16.804 17.282v7.123c0 5.96-2.704 17.282-17.836 17.282h-6.93c-11.563 0-17.146-7.707-17.146-17.282v-7.123c0-9.574 5.47-17.282 16.613-17.282z" opacity="1" fill="url(#linearGradient1498)" fill-opacity="1" stroke="#000" stroke-width=".334" stroke-linecap="square" stroke-linejoin="bevel" stroke-miterlimit="4" stroke-dasharray="none" stroke-dashoffset="0" stroke-opacity=".078"/><path d="M14.151 12.462c-.909 0-1.64.718-1.64 1.61v7.243c0 .892.731 1.61 1.64 1.61.909 0 1.64-.718 1.64-1.61v-3.37l2.461 2.415v2.565h3.281v-.805a.81.81 0 0 1 .82-.805h.82v-3.219H20.56l-2.46-2.414h3.435c.908 0 1.64-.718 1.64-1.61 0-.892-.732-1.61-1.64-1.61H14.15zm12.303 0c-.908 0-1.64.718-1.64 1.61 0 .892.732 1.61 1.64 1.61h3.435l-2.46 2.414h-2.615v3.22h.82a.81.81 0 0 1 .82.804v.805h3.281V20.36l2.461-2.415v3.37c0 .892.732 1.61 1.64 1.61.91 0 1.641-.718 1.641-1.61v-7.243c0-.891-.732-1.61-1.64-1.61h-7.383zm-8.202 12.073v3.219c0 .892.732 1.61 1.64 1.61h3.282v-3.22h-.82a.81.81 0 0 1-.82-.805v-.804zm8.202 0v.804a.81.81 0 0 1-.82.805h-.82v3.22h2.614l2.461 2.414h-3.435c-.909 0-1.64.718-1.64 1.61 0 .891.731 1.61 1.64 1.61h7.382c.909 0 1.64-.719 1.64-1.61v-7.244c0-.891-.731-1.61-1.64-1.61-.909 0-1.64.719-1.64 1.61v3.37L29.735 27.1v-2.566h-3.28z" id="path1288" fill="#ffa01f" fill-opacity="1" stroke-width=".812"/></svg>