<svg xmlns:osb="http://www.openswatchbook.org/uri/2009/osb" xmlns="http://www.w3.org/2000/svg" xmlns:xlink="http://www.w3.org/1999/xlink" width="48" height="48" version="1.1" id="svg38"><defs id="defs22"><linearGradient id="linearGradient4488"><stop id="stop4490" offset="0" stop-color="#000" stop-opacity=".047"/><stop id="stop4492" offset="1" stop-color="#000" stop-opacity="0"/></linearGradient><style id="style4511"/><style id="style4511-26"/><style id="style4511-9"/><style id="style4552"/><style id="style4511-2"/><linearGradient xlink:href="#linearGradient4488" id="linearGradient4540" gradientUnits="userSpaceOnUse" gradientTransform="translate(-62.601 2.137) scale(.3038)" x1="288.112" y1="141.785" x2="287.575" y2="79.008"/><linearGradient osb:paint="solid" id="linearGradient5293"><stop id="stop5295" offset="0" stop-color="#9a89c0" stop-opacity="1"/></linearGradient><linearGradient gradientTransform="rotate(-90 -6.993 55.55)" gradientUnits="userSpaceOnUse" x2="47" x1="1" id="linearGradient3764-3"><stop id="stop2-67" stop-opacity="1" stop-color="#e4e4e4"/><stop id="stop4-535" stop-opacity="1" stop-color="#eee" offset="1"/></linearGradient><linearGradient x1="0%" y1="46.467%" x2="100%" y2="46.467%" id="linearGradient-1-1"><stop stop-color="#FC8F18" offset="0%" id="stop78"/><stop stop-color="#FF7614" offset="100%" id="stop80"/></linearGradient><linearGradient x1="0%" y1="50%" x2="100%" y2="50%" id="linearGradient-2-8"><stop stop-color="#80B3F4" offset="0%" id="stop83"/><stop stop-color="#508AC7" offset="100%" id="stop85"/></linearGradient><linearGradient gradientUnits="userSpaceOnUse" y2="26.728" x2="38" y1="26.728" x1="2" id="linearGradient119" xlink:href="#linearGradient-1-1" gradientTransform="matrix(.6007 0 0 .58735 9.29 8.896)"/><linearGradient gradientUnits="userSpaceOnUse" y2="20" x2="46" y1="20" x1="10" id="linearGradient121" xlink:href="#linearGradient-2-8" gradientTransform="matrix(.6007 0 0 .58735 9.29 8.896)"/><linearGradient gradientUnits="userSpaceOnUse" gradientTransform="matrix(.80594 0 0 .43778 9.29 8.896)" y2="25.885" x2="28.324" y1="25.885" x1="1.491" id="linearGradient123" xlink:href="#linearGradient-1-1"/><linearGradient gradientUnits="userSpaceOnUse" gradientTransform="matrix(.96328 0 0 .36628 9.29 8.896)" y2="49.711" x2="28.686" y1="49.711" x1="6.236" id="linearGradient125" xlink:href="#linearGradient-2-8"/><linearGradient xlink:href="#linearGradient3764-3" id="linearGradient1498" x1="2.583" y1="23.586" x2="44.83" y2="23.586" gradientUnits="userSpaceOnUse" gradientTransform="translate(.288 .144)"/></defs><style id="style4485" type="text/css"/><path id="path4516" d="M3.037 26.364v1.669c0 9.574 5.584 17.282 17.146 17.282h6.93c15.133 0 17.837-11.323 17.837-17.282v-1.669c0 5.96-2.704 17.283-17.836 17.283h-6.93c-11.563 0-17.147-7.708-17.147-17.283z" opacity="1" fill="url(#linearGradient4540)" fill-opacity="1" stroke="none" stroke-width="1.1" stroke-linecap="square" stroke-linejoin="bevel" stroke-miterlimit="4" stroke-dasharray="none" stroke-dashoffset="0" stroke-opacity=".078"/><path id="path4518" d="M19.65 2.886h8.496c13.907 0 16.804 11.247 16.804 17.282v7.123c0 5.96-2.704 17.282-17.836 17.282h-6.93c-11.563 0-17.146-7.707-17.146-17.282v-7.123c0-9.574 5.47-17.282 16.613-17.282z" opacity="1" fill="url(#linearGradient1498)" fill-opacity="1" stroke="#000" stroke-width=".334" stroke-linecap="square" stroke-linejoin="bevel" stroke-miterlimit="4" stroke-dasharray="none" stroke-dashoffset="0" stroke-opacity=".078"/><g id="g1297" transform="translate(.288 .738)" fill-rule="evenodd" stroke="none" stroke-width=".877"><path d="M14.696 14.77H27.91c2.322 0 4.205 1.84 4.205 4.11v12.922c0 2.271-1.883 4.112-4.205 4.112H14.696c-2.323 0-4.205-1.841-4.205-4.112V18.881c0-2.271 1.882-4.112 4.205-4.112zm4.805 4.698c-2.322 0-4.205 1.84-4.205 4.111v3.525c0 2.27 1.883 4.111 4.205 4.111h3.604c2.323 0 4.205-1.84 4.205-4.111v-3.525c0-2.27-1.882-4.111-4.205-4.111z" id="Combined-Shape" fill="url(#linearGradient119)"/><path d="M19.501 10.07h13.216c2.322 0 4.205 1.841 4.205 4.112v12.922c0 2.27-1.883 4.111-4.205 4.111H19.5c-2.322 0-4.205-1.84-4.205-4.111V14.182c0-2.27 1.883-4.112 4.205-4.112zm4.806 4.7c-2.322 0-4.205 1.84-4.205 4.11v3.525c0 2.27 1.883 4.111 4.205 4.111h3.604c2.322 0 4.205-1.84 4.205-4.111V18.88c0-2.271-1.883-4.112-4.205-4.112z" id="path92" fill="url(#linearGradient121)"/><path d="M32.116 26.516v-7.635c0-2.271-1.883-4.112-4.205-4.112H14.696c-2.323 0-4.205 1.841-4.205 4.112v7.635h4.805V23.58c0-2.27 1.883-4.111 4.205-4.111h3.604c2.323 0 4.205 1.84 4.205 4.111v2.937z" id="path94" fill="url(#linearGradient123)"/><path d="M36.922 22.992v4.112c0 2.27-1.883 4.111-4.205 4.111H19.5c-2.322 0-4.205-1.84-4.205-4.111v-4.112h4.848c.292 1.993 2.044 3.524 4.163 3.524h3.604c2.119 0 3.871-1.531 4.163-3.524z" id="path96" fill="url(#linearGradient125)"/></g></svg>