<svg xmlns:osb="http://www.openswatchbook.org/uri/2009/osb" xmlns="http://www.w3.org/2000/svg" xmlns:xlink="http://www.w3.org/1999/xlink" width="48" height="48" version="1.1" id="svg38"><defs id="defs22"><linearGradient id="linearGradient4488"><stop id="stop4490" offset="0" stop-color="#000" stop-opacity=".047"/><stop id="stop4492" offset="1" stop-color="#000" stop-opacity="0"/></linearGradient><style id="style4511"/><style id="style4511-26"/><style id="style4511-9"/><linearGradient gradientUnits="userSpaceOnUse" x2="19.574" y2="22.495" x1="3.783" y1="23.644" id="g-5"><stop id="stop24-2" stop-color="#2980b9"/><stop id="stop26" stop-color="#34495e" offset="1"/></linearGradient><style id="style4552"/><style id="style4511-2"/><linearGradient xlink:href="#linearGradient4488" id="linearGradient4540" gradientUnits="userSpaceOnUse" gradientTransform="matrix(.3074 0 0 .30379 -63.667 1.994)" x1="288.112" y1="141.785" x2="287.575" y2="79.008"/><linearGradient osb:paint="solid" id="linearGradient5293"><stop id="stop5295" offset="0" stop-color="#9a89c0" stop-opacity="1"/></linearGradient><style id="style2" type="text/css"><![CDATA[.fil5{fill:none}.fil1{fill:#196FBA}.fil0{fill:#25B2EE}.fil4{fill:#793C7C}.fil3{fill:#8C508C}.fil2{fill:white}]]></style><linearGradient xlink:href="#g-5" id="linearGradient1628" x1="2.583" y1="23.586" x2="45.329" y2="23.586" gradientUnits="userSpaceOnUse"/></defs><style id="style4485" type="text/css"/><path id="path4516" d="M2.751 26.22v1.669c0 9.574 5.65 17.282 17.35 17.282h7.012c15.312 0 18.048-11.323 18.048-17.282V26.22c0 5.96-2.736 17.282-18.048 17.282H20.1c-11.7 0-17.349-7.708-17.349-17.282z" opacity="1" fill="url(#linearGradient4540)" fill-opacity="1" stroke="none" stroke-width="1.106" stroke-linecap="square" stroke-linejoin="bevel" stroke-miterlimit="4" stroke-dasharray="none" stroke-dashoffset="0" stroke-opacity=".078"/><path id="path4518" d="M19.561 2.743h8.596c14.073 0 17.004 11.247 17.004 17.282v7.122c0 5.96-2.736 17.282-18.048 17.282H20.1c-11.7 0-17.35-7.708-17.35-17.282v-7.122c0-9.574 5.535-17.282 16.81-17.282z" opacity="1" fill="url(#linearGradient1628)" fill-opacity="1" stroke="#000" stroke-width=".336" stroke-linecap="square" stroke-linejoin="bevel" stroke-miterlimit="4" stroke-dasharray="none" stroke-dashoffset="0" stroke-opacity=".078"/><path id="path1552" d="M42.605 28.71l.788-8.516 2.016.218c-.01-.064-.01-.127-.019-.182l-1.978-.208.619-6.685c-.047-.145-.094-.29-.15-.435l-.657 7.092-1.097-.118v-.018a.963.963 0 0 0-.619-.889l2.11-6.793-.112-.272-2.176 7.011a1.424 1.424 0 0 0-.197-.018 1.11 1.11 0 0 0-.384.072L34.992 8.484a1.05 1.05 0 0 0 .431-.544l6.807 1.47-.14-.218-6.63-1.433c.01-.046.01-.09.01-.136 0-.563-.469-1.016-1.05-1.016-.216 0-.422.063-.59.172l-4.792-3.89c-.113-.019-.225-.028-.347-.046l4.988 4.054c-.14.136-.244.309-.29.508l-7.942-1.007 1.322-3.737c-.066 0-.131-.009-.197-.009L25.259 6.38l-5.56-.698v-.064c0-.163-.037-.317-.094-.462l5.326-2.567c-.131 0-.272-.01-.403-.01l-5.007 2.413a1.273 1.273 0 0 0-1.088-.598c-.609 0-1.125.417-1.237.98l-5.513-.68c-.113.044-.226.09-.338.144l5.832.726v.063c0 .164.038.327.094.463L9.348 9.936a1.265 1.265 0 0 0-.938-.59l.131-2.975-.196.136-.132 2.83a1.228 1.228 0 0 0-1.219 1.215c0 .318.122.599.329.817L3.74 14.997a1.16 1.16 0 0 0-.29-.173c-.245.926-.45 1.887-.61 2.876v8.244c-.122.01-.244.037-.357.073.057.79.132 1.578.244 2.35.066.008.14.017.206.017.132 0 .263-.018.385-.054l4.66 11.229a1.166 1.166 0 0 0-.328.226c.59.517 1.266.989 2.016 1.415.084-.163.14-.353.14-.553 0-.163-.037-.317-.093-.463l5.063-2.412a.954.954 0 0 0 1.115.372l2.85 5.796.226.027-2.907-5.905a.916.916 0 0 0 .413-.517l5.025.925-1.19 5.633c.065.009.122.009.187.018l1.191-5.614 4.172.77c-.009.046-.009.091-.009.137 0 .299.113.58.3.789l-4.229 4.009c.085 0 .17.009.254.009l4.106-3.891c.225.19.516.308.835.308a1.25 1.25 0 0 0 1.181-.798l3.338.943a1.17 1.17 0 0 0 .038.635l-7.117 2.875c.178 0 .347-.009.525-.009l6.667-2.657c.206.399.637.68 1.134.68.582 0 1.07-.381 1.22-.898l2.756.526c.094-.045.187-.082.29-.127l-3.01-.58c.01-.046.01-.1.01-.146 0-.344-.15-.662-.394-.88l3.15-3.682 3.78 2.93c.046-.046.084-.09.13-.136l-3.787-2.93 4.66-5.451a1.266 1.266 0 0 0 .975.2l.994 3.528c.037-.1.075-.19.112-.29l-.919-3.284c.488-.172.844-.617.844-1.152 0-.335-.14-.635-.356-.852l2.072-2.259.028-.3-2.24 2.44a1.409 1.409 0 0 0-.592-.253zm-.497-8.661l1.098.118-.788 8.526h-.075l-.994-7.9a.994.994 0 0 0 .76-.744zm-1.209.744c.075.018.16.027.234.027h.028l.994 7.9a1.286 1.286 0 0 0-.89.653l-3.113-.998zm.469 9.832l-4.82 3.882a1.265 1.265 0 0 0-.478-.4l2.016-5.56 3.104.99a1.242 1.242 0 0 0-.066.371c.01.272.094.517.244.717zm-17.44.653l9.62-3.81a.73.73 0 0 0 .14.154l-3.46 6.123-6.281-1.987a.75.75 0 0 0 .028-.208c-.01-.1-.028-.19-.047-.272zM8.513 21.11l2.579-.69 1.031 3.456c-.244.082-.45.227-.619.409l-3.169-2.286a1.22 1.22 0 0 0 .197-.653.654.654 0 0 0-.019-.236zm6.442-9.805l8.41-1.333a.83.83 0 0 0 .329.444l-3.498 6.495c-.15-.064-.319-.1-.497-.1-.281 0-.553.09-.76.245l-4.34-4.78a1.2 1.2 0 0 0 .365-.862c0-.036 0-.073-.01-.109zm19.165 15.31l-.216-6.212 6.245-.381a.902.902 0 0 0 .234.48l-6.01 6.204a.501.501 0 0 0-.253-.09zm6.02-6.784l-6.245.381-.094-2.775a1.26 1.26 0 0 0 .947-.59l5.457 2.658c-.037.1-.056.208-.066.326zm-6.208 6.785a.634.634 0 0 0-.309.163l-8.167-5.451a.942.942 0 0 0 .122-.427l8.148-.498zm-20.168-2.277l5.138-5.351c.207.163.478.263.76.272l.384 6.993c-.46.054-.844.354-1.012.762l-4.998-1.533c.019-.09.028-.19.028-.281a1.277 1.277 0 0 0-.3-.862zm6.095-5.088a1.28 1.28 0 0 0 .872-.508l3 1.732a.918.918 0 0 0 .272 1.134l-3.188 4.78a1.222 1.222 0 0 0-.581-.145zm1.106-1.288l3.413-.445.094 2.431a.976.976 0 0 0-.647.372l-3-1.732c.084-.164.13-.354.13-.554.01-.027.01-.045.01-.072zm3.197 3.746c.066.036.141.054.207.072l-.844 5.524-2.054.045a1.248 1.248 0 0 0-.497-.861zm.394.1h.047c.3 0 .563-.128.74-.336l8.167 5.451a.36.36 0 0 0-.046.163l-9.742.209zm.01-4.318l2.634-.345-2.119 2.912a.943.943 0 0 0-.422-.118zm.993 3.238a.943.943 0 0 0-.328-.562l2.213-3.048 4.979-.644c.112.535.6.943 1.19.97l.094 2.785zm6.845-4.508v.073l-4.81.626 2.297-3.157 2.691 1.832c-.112.182-.178.4-.178.626zm-5.054.726l-2.784.363-.272-6.767a.792.792 0 0 0 .487-.254l4.97 3.374zm-2.981.39l-3.432.444a1.221 1.221 0 0 0-.572-.789l3.497-6.494c.075.027.15.045.235.054zm-5.57-.163a1.025 1.025 0 0 0-.094.1l-5.11-3.348.103-1.297c.282 0 .554-.09.76-.244zm-.197.254c-.103.18-.169.39-.169.607 0 .082.01.164.029.236l-5.317 1.415.432-5.542zm-.094 1.015c.057.155.15.3.263.418l-5.129 5.333a1.456 1.456 0 0 0-.815-.39l.309-3.928zm-5.87 5.352h-.018a1.22 1.22 0 0 0-.31.036l-1.03-3.456 1.659-.444zm-.018 2.812c.14 0 .272-.019.403-.055l.872 3.819-4.332 2.05a1.234 1.234 0 0 0-.318-.3l2.822-5.614c.169.063.356.1.553.1zm.581-.118c.235-.1.441-.263.6-.463l4.032 2.476-3.76 1.787zm.694-.617a1.09 1.09 0 0 0 .094-.218l4.988 1.524c-.018.09-.037.181-.037.281 0 .163.037.318.094.454l-1.013.48zm5.232 2.213c.113.19.282.345.478.453l-.3.644-1.087-.67zm.647.535a1.4 1.4 0 0 0 .44.073c.226 0 .432-.055.61-.155l1.538 2.268a.899.899 0 0 0-.16.163l-2.737-1.687zm1.21-.181c.281-.209.469-.535.497-.907l2.025-.046-.478 3.111h-.047a.978.978 0 0 0-.46.11zm2.71-.953l9.77-.208c0 .009 0 .018.009.027l-9.62 3.81a.975.975 0 0 0-.638-.481zm10.154.218c.066.018.131.036.197.036l1.069 6.25a1.35 1.35 0 0 0-1.032.97l-3.684-1.16zm.384.01a.602.602 0 0 0 .338-.282l3.338 1.061-2.007 5.542a1.391 1.391 0 0 0-.478-.082c-.037 0-.084 0-.122.01zm3.742.607l-3.348-1.07c0-.028.01-.055.01-.082a.553.553 0 0 0-.122-.345l6.02-6.213a.772.772 0 0 0 .187.11zM34.429 8.648a1 1 0 0 0 .404-.082l5.757 10.485a.875.875 0 0 0-.291.29l-5.457-2.648c.066-.145.094-.3.094-.472 0-.607-.46-1.115-1.07-1.206zm-.656-.218c.131.1.29.172.469.2l-.553 6.367h-.01c-.394 0-.75.172-.975.444l-2.69-1.832zm-.356-.499c.047.136.122.263.215.372l-3.788 5.206-4.96-3.374a.75.75 0 0 0 .103-.38v-.073zM25.38 6.58l7.98 1.006v.046c0 .045 0 .081.009.127l-8.439 1.75a.83.83 0 0 0-.422-.462zm-5.71-.726l5.523.698-.854 2.431a.873.873 0 0 0-.778.227l-4.069-2.948c.084-.118.15-.254.178-.408zm-1.238.98c.385 0 .722-.164.957-.418l4.07 2.948a.735.735 0 0 0-.113.4V9.8l-8.41 1.333a1.212 1.212 0 0 0-.376-.617l3.17-3.891c.196.127.44.209.702.209zm-1.087-.599c.065.1.14.19.234.272l-3.169 3.891a1.283 1.283 0 0 0-.713-.208c-.6 0-1.097.399-1.228.934l-2.944-.472c0-.036.01-.072.01-.109a1.24 1.24 0 0 0-.094-.462zm-7.858 4.608l2.945.471c0 .037-.01.073-.01.11 0 .616.469 1.124 1.079 1.205l-.094 1.189-4.06-2.658c.065-.1.112-.209.14-.317zm-.234.471l4.144 2.712-.45 5.714-1.725.463-2.531-8.499c.225-.081.421-.217.562-.39zm-1.013.463h.02c.084 0 .177-.01.262-.027l2.531 8.498-2.578.69a1.244 1.244 0 0 0-.985-.798zM3.75 26.235l2.868-3.846c.197.118.422.181.657.181h.037l1.003 9.36a1.307 1.307 0 0 0-.553.236l-3.9-4.154c.215-.217.347-.517.347-.843 0-.372-.178-.708-.46-.934zm.13-11.102l3.582-3.628c.169.136.375.227.6.263l-.76 8.362h-.018c-.262 0-.497.073-.703.21l-2.785-3.475c.253-.227.422-.544.422-.907a1.274 1.274 0 0 0-.338-.825zm-.843 10.82v-8.788c.225-.019.43-.091.61-.2l2.784 3.474a1.216 1.216 0 0 0-.422.907c0 .38.178.716.45.934L3.6 26.126a1.45 1.45 0 0 0-.562-.173zm5.457 13.488c-.113 0-.235.018-.338.054l-4.66-11.22c.075-.036.15-.081.225-.136l3.9 4.154a1.196 1.196 0 0 0-.346.844c0 .662.544 1.197 1.219 1.224zm.009-7.528L7.5 22.553c.29-.055.544-.2.731-.4l3.17 2.286c-.15.217-.235.48-.235.762 0 .526.3.98.731 1.224L9.076 32.03a1.312 1.312 0 0 0-.535-.117h-.037zm6.188 5.714L9.63 40.048c-.216-.344-.6-.59-1.04-.598v-5.09c.403-.018.759-.208.974-.507l5.167 3.065a.92.92 0 0 0-.094.39c0 .11.019.218.056.318zm.14-.862L9.668 33.7a1.17 1.17 0 0 0 .14-.562c0-.2-.056-.4-.14-.562l4.266-2.023 1.35 5.896a.883.883 0 0 0-.45.317zm1.042-.317a1.09 1.09 0 0 0-.3-.046c-.038 0-.075 0-.113.01L14.1 30.47l3.91-1.85 1.21.744zm5.654 1.868l-5.026-.925v-.082a.888.888 0 0 0-.469-.78l3.338-7.074 2.72 1.668a.926.926 0 0 0-.104.427c0 .453.328.834.769.925zm4.36.807l-4.173-.77 1.238-5.85h.028c.122 0 .244-.028.356-.064l3.113 5.959a1.203 1.203 0 0 0-.562.725zm1.218-.907a1.45 1.45 0 0 0-.487.091l-3.113-5.96a.882.882 0 0 0 .375-.425l6.245 1.977-2.504 4.426a1.19 1.19 0 0 0-.516-.109zm.685.2l2.522-4.454 3.741 1.18c-.01.045-.01.1-.01.145 0 .254.076.48.198.68l-6.039 2.848a1.311 1.311 0 0 0-.412-.4zm5.082 1.433a1.25 1.25 0 0 0-1.182.798l-3.338-.943a1.17 1.17 0 0 0 .029-.254c0-.163-.029-.309-.094-.454l6.066-2.857c.141.173.328.309.544.4l-1.584 3.4a1.105 1.105 0 0 0-.441-.09zm.731.227c-.037-.028-.084-.055-.122-.082l1.594-3.42c.113.028.235.046.357.046.412 0 .787-.172 1.04-.454l.282.218zm3.263-3.819l-.281-.218a1.26 1.26 0 0 0 .234-.743c0-.227-.056-.436-.16-.626l4.839-3.9.038.036z" fill="#fff" stroke-width=".092" fill-opacity=".606"/><path d="M29.896 24.823v-8.255c0-2.932-2.729-5.304-6.1-5.304-3.373 0-6.101 2.372-6.101 5.304v8.255c-1.18 1.212-1.883 2.766-1.883 4.475 0 3.832 3.575 6.94 7.983 6.94 4.409 0 7.983-3.108 7.983-6.94 0-1.71-.703-3.273-1.882-4.475zm-5.374 4.288v2.3c0 .342-.322.632-.727.632-.405 0-.726-.28-.726-.632v-2.3c-.5-.228-.846-.683-.846-1.212 0-.756.703-1.357 1.56-1.357.858 0 1.561.612 1.561 1.357.012.529-.321.984-.822 1.212zm3.896-5.48a8.781 8.781 0 0 0-4.623-1.284c-1.727 0-3.324.477-4.623 1.285v-7.075c0-2.216 2.074-4.019 4.623-4.019 2.55 0 4.623 1.803 4.623 4.02z" id="path1556" fill="#e6e6e6" stroke-width=".111"/></svg>