<svg xmlns:osb="http://www.openswatchbook.org/uri/2009/osb" xmlns="http://www.w3.org/2000/svg" xmlns:xlink="http://www.w3.org/1999/xlink" width="48" height="48" version="1.1" id="svg38"><defs id="defs22"><linearGradient id="linearGradient4488"><stop id="stop4490" offset="0" stop-color="#000" stop-opacity=".047"/><stop id="stop4492" offset="1" stop-color="#000" stop-opacity="0"/></linearGradient><style id="style4511"/><style id="style4511-26"/><style id="style4511-9"/><style id="style4552"/><linearGradient id="b-56" y1="547.8" y2="536.8" x2="0" gradientUnits="userSpaceOnUse" gradientTransform="matrix(1 0 0 .54545 0 244)"><stop stop-color="#c6cdd1" id="stop7-2"/><stop offset="1" stop-color="#e0e5e7" id="stop9-91"/></linearGradient><style id="style4511-2"/><linearGradient xlink:href="#linearGradient4488" id="linearGradient4540" gradientUnits="userSpaceOnUse" gradientTransform="rotate(90 54.154 -8.502) scale(.3038)" x1="288.112" y1="141.785" x2="287.575" y2="79.008"/><linearGradient osb:paint="solid" id="linearGradient5293"><stop id="stop5295" offset="0" stop-color="#9a89c0" stop-opacity="1"/></linearGradient><linearGradient xlink:href="#b-56" id="linearGradient1466" x1="3.049" y1="23.939" x2="45.07" y2="23.939" gradientUnits="userSpaceOnUse"/><clipPath id="clipPath-609371321"/></defs><style id="style4485" type="text/css"/><path id="path4516" d="M21.425 2.983h-1.669c-9.574 0-17.282 5.583-17.282 17.146v6.93c0 15.132 11.323 17.837 17.282 17.837h1.669c-5.96 0-17.282-2.705-17.282-17.837v-6.93c0-11.563 7.708-17.146 17.282-17.146z" opacity="1" fill="url(#linearGradient4540)" fill-opacity="1" stroke="none" stroke-width="1.1" stroke-linecap="square" stroke-linejoin="bevel" stroke-miterlimit="4" stroke-dasharray="none" stroke-dashoffset="0" stroke-opacity=".078"/><path id="path4518" d="M44.903 19.596v8.495c0 13.908-11.247 16.805-17.282 16.805h-7.123c-5.96 0-17.282-2.705-17.282-17.837v-6.93c0-11.563 7.708-17.146 17.282-17.146h7.123c9.574 0 17.282 5.47 17.282 16.613z" opacity="1" fill="url(#linearGradient1466)" fill-opacity="1" stroke="#000" stroke-width=".334" stroke-linecap="square" stroke-linejoin="bevel" stroke-miterlimit="4" stroke-dasharray="none" stroke-dashoffset="0" stroke-opacity=".078"/><path id="path1356" d="M12.142 11.94h23.586a2.144 2.077 0 0 1 2.144 2.076v18.692a2.144 2.077 0 0 1-2.144 2.077H12.142a2.144 2.077 0 0 1-2.145-2.077V14.016a2.144 2.077 0 0 1 2.145-2.077m0 0" fill="#314c5b" fill-opacity="1" fill-rule="nonzero" stroke="none" stroke-width="1"/><path id="path1358" d="M15.358 14.016h20.37v18.692h-20.37m0-18.692" fill="#82949d" fill-opacity="1" fill-rule="nonzero" stroke="none" stroke-width="1"/><path id="path1360" d="M13.214 24.4h3.216c.59 0 1.072.467 1.072 1.039 0 .572-.481 1.039-1.072 1.039h-3.216c-.591 0-1.072-.467-1.072-1.039 0-.572.48-1.038 1.072-1.038m0 0" fill="#82949d" fill-opacity="1" fill-rule="nonzero" stroke="none" stroke-width="1"/><path id="path1362" d="M31.493 38.607c.42.402 1.022.483 1.516 0l.758-.734a1.057 1.024 0 0 0 0-1.469L23.155 26.121c-.758-.734-2.274-.734-2.655-.365-.378.365-.378 1.834.38 2.568m10.612 10.283" fill="#475b64" fill-opacity="1" fill-rule="nonzero" stroke="none" stroke-width="1"/><path id="path1364" d="M19.743 25.022c-.377.365.38 2.568 1.14 3.302l2.274-2.203c-.758-.734-3.032-1.468-3.414-1.1m0 0" fill="#f4b359" fill-opacity="1" fill-rule="nonzero" stroke="none" stroke-width="1"/></svg>