<svg xmlns="http://www.w3.org/2000/svg" xmlns:xlink="http://www.w3.org/1999/xlink" style="isolation:isolate" width="48" height="48" version="1.1" id="svg21"><defs id="defs5"><mask id="_mask_KAFkdqxWBZswsjPdYPpY4iuYRJUI3ULT"><path id="path904" d="M18.595 4.621H29.23c7.794 0 14.121 6.328 14.121 14.121V29.45c0 7.794-6.327 14.121-14.121 14.121H18.595c-7.793 0-14.12-6.327-14.12-14.121V18.742c0-7.793 6.327-14.121 14.12-14.121z" stroke="#000" fill="#fff" stroke-miterlimit="10"/></mask><mask id="_mask_HYTuEigEp0mJti2sb1hiRT0qK4j9vWLL"><path id="path907" d="M18.595 4.621H29.23c7.794 0 14.121 6.328 14.121 14.121V29.45c0 7.794-6.327 14.121-14.121 14.121H18.595c-7.793 0-14.12-6.327-14.12-14.121V18.742c0-7.793 6.327-14.121 14.12-14.121z" stroke="#000" fill="#fff" stroke-miterlimit="10"/></mask><style id="style4511"/><style id="style4511-26"/><style id="style4511-9"/><style id="style4552"/><style id="style4511-2"/><style id="style4511-8"/><style id="style4511-26-4"/><style id="style4511-9-7"/><style id="style4552-3"/><style id="style4511-2-8"/><style id="style4552-7"/><linearGradient id="linearGradient4778"><stop offset="0" id="stop66" stop-color="#e1b16f" stop-opacity="1"/><stop offset="1" id="stop68" stop-color="#99bf83" stop-opacity="1"/></linearGradient><style id="style4552-6"/><style id="style4552-73"/><style id="style4552-2"/><linearGradient gradientTransform="rotate(-90 24 24)" gradientUnits="userSpaceOnUse" x2="47" x1="1" id="linearGradient3764-356"><stop id="stop2-29" stop-opacity="1" stop-color="#5e6670"/><stop id="stop4-127" stop-opacity="1" stop-color="#67707b" offset="1"/></linearGradient><style id="style4511-7"/><style id="style4511-26-1"/><style id="style4511-9-4"/><style id="style4552-8"/><style id="style4511-2-5"/><linearGradient xlink:href="#linearGradient3764-356" id="linearGradient5486" x1="8.054" y1="22.77" x2="40.163" y2="22.77" gradientUnits="userSpaceOnUse" spreadMethod="pad"/><linearGradient xlink:href="#linearGradient3764-356" id="linearGradient5488" x1="17.109" y1="21.57" x2="31.108" y2="21.57" gradientUnits="userSpaceOnUse"/><linearGradient xlink:href="#linearGradient3764-356" id="linearGradient5490" x1="16.329" y1="37.464" x2="31.835" y2="37.464" gradientUnits="userSpaceOnUse"/><linearGradient xlink:href="#linearGradient4778" id="linearGradient5511" x1="12" y1="-23.949" x2="33.559" y2="-23.949" gradientUnits="userSpaceOnUse"/></defs><style type="text/css" id="style4485"/><style id="style4485-0" type="text/css"/><style type="text/css" id="style4485-4"/><style type="text/css" id="style4485-5"/><style type="text/css" id="style4485-3"/><style type="text/css" id="style4485-5-1"/><style type="text/css" id="style4485-1"/><g id="g5518" fill-opacity="1"><path d="M19.765 2.965h8.496c13.907 0 16.804 11.246 16.804 17.282v7.123c0 5.959-2.704 17.282-17.837 17.282h-6.93c-11.562 0-17.146-7.708-17.146-17.282v-7.123c0-9.575 5.471-17.282 16.613-17.282z" stroke-miterlimit="4" id="path7" vector-effect="non-scaling-stroke" fill="#e6e6e6" stroke="#000" stroke-width=".334" stroke-linecap="square" stroke-linejoin="bevel" stroke-opacity=".078"/><path transform="rotate(90)" id="rect3118" fill="url(#linearGradient5511)" stroke-width="1.153" d="M12-39.051h21.559v30.203H12z"/><path id="path9" d="M30.943 37.318h.152c-1.586-.187-2.432-.785-2.882-1.39h-8.209c-.449.605-1.295 1.203-2.882 1.39h.1c-.496 0-.893.38-.893.841 0 .461.403.841.893.841h13.721c.495 0 .892-.38.892-.841 0-.461-.397-.841-.892-.841z" fill="url(#linearGradient5490)"/><path id="path11" d="M30.685 20.514l-1.302-.212a4.81 4.81 0 0 0-.575-1.327l.767-1.009a.454.454 0 0 0-.053-.605l-.456-.436-.456-.436a.515.515 0 0 0-.641-.05l-1.078.717a5.393 5.393 0 0 0-1.441-.561l-.211-1.215c-.04-.23-.245-.392-.496-.399h-1.309a.49.49 0 0 0-.495.393l-.232 1.233a5.569 5.569 0 0 0-1.401.549l-1.057-.729a.523.523 0 0 0-.641.05l-.463.43-.463.429a.446.446 0 0 0-.053.605l.767 1.022a4.846 4.846 0 0 0-.575 1.32l-1.289.2a.485.485 0 0 0-.423.467v1.234c0 .23.172.43.417.467l1.308.218c.126.474.331.916.582 1.321l-.767 1.003a.453.453 0 0 0 .053.605l.456.436.456.436a.515.515 0 0 0 .641.05l1.084-.723c.423.237.886.417 1.368.536l.212 1.227c.04.231.244.393.496.399h1.308a.49.49 0 0 0 .496-.393l.225-1.227a5.445 5.445 0 0 0 1.408-.542l1.07.723c.199.13.47.112.641-.05l.463-.43.463-.43a.445.445 0 0 0 .053-.604l-.747-1.016c.257-.411.456-.854.588-1.321l1.302-.199a.486.486 0 0 0 .423-.468v-1.233a.5.5 0 0 0-.423-.455zm-5.823 4.156c-1.818.392-3.628-.679-4.045-2.393-.416-1.713.721-3.42 2.538-3.813 1.818-.392 3.629.679 4.045 2.393.41 1.707-.72 3.414-2.538 3.813z" fill="url(#linearGradient5488)"/><path id="path13" d="M40.163 29.044V13.199c0-1.215-1.044-2.199-2.333-2.199H10.387c-1.288 0-2.333.984-2.333 2.199v19.477c.04 1.034.945 1.863 2.056 1.863h27.991c1.11 0 2.009-.829 2.055-1.863zm-14.191 3.383c0 .268-.231.486-.515.486h-2.703c-.285 0-.516-.218-.516-.486v-.337c0-.268.231-.486.516-.486h2.703c.284 0 .515.218.515.486zm11.858-2.611H10.387c-.224 0-.409-.174-.409-.386V13.199c0-.211.185-.386.409-.386h27.436c.225 0 .41.175.41.386V29.43a.394.394 0 0 1-.403.386z" fill="url(#linearGradient5486)"/></g></svg>