<svg xmlns="http://www.w3.org/2000/svg" xmlns:xlink="http://www.w3.org/1999/xlink" width="48" height="48" version="1.1" id="svg38"><defs id="defs22"><linearGradient id="linearGradient4488"><stop id="stop4490" offset="0" stop-color="#000" stop-opacity=".047"/><stop id="stop4492" offset="1" stop-color="#000" stop-opacity="0"/></linearGradient><style id="style4511"/><style id="style4511-26"/><style id="style4511-9"/><style id="style4552"/><style id="style4511-2"/><linearGradient xlink:href="#linearGradient4488" id="linearGradient4546" gradientUnits="userSpaceOnUse" gradientTransform="translate(-62.497 1.994) scale(.3038)" x1="288.112" y1="141.785" x2="287.575" y2="79.008"/><linearGradient id="linearGradient-2" y2="43.239" x2="19.494" y1="19.36" x1="19.494" gradientTransform="matrix(1.25634 0 0 .79596 -.88 -1.45)" gradientUnits="userSpaceOnUse"><stop id="stop1167" offset="0%" stop-color="#216000"/><stop id="stop1169" offset="100%" stop-color="#002A3A"/></linearGradient><radialGradient xlink:href="#linearGradient-2" id="radialGradient1227" cx="24.098" cy="23.586" fx="24.098" fy="23.586" r="21.011" gradientTransform="matrix(1 0 0 1.00536 0 -.126)" gradientUnits="userSpaceOnUse"/></defs><style id="style4485" type="text/css"/><path d="M3.141 26.22v1.67c0 9.573 5.583 17.281 17.146 17.281h6.93c15.133 0 17.837-11.322 17.837-17.282v-1.668c0 5.96-2.704 17.282-17.837 17.282h-6.93c-11.563 0-17.146-7.708-17.146-17.282z" id="path4528" opacity="1" fill="url(#linearGradient4546)" fill-opacity="1" stroke="none" stroke-width="1.1" stroke-linecap="square" stroke-linejoin="bevel" stroke-miterlimit="4" stroke-dasharray="none" stroke-dashoffset="0" stroke-opacity=".078"/><path d="M44.941 19.243v8.495c0 13.908-11.247 16.804-17.282 16.804h-7.123c-5.96 0-17.282-2.704-17.282-17.836v-6.93c0-11.563 7.708-17.146 17.282-17.146h7.123c9.574 0 17.282 5.47 17.282 16.613z" id="path4530" opacity="1" fill="url(#radialGradient1227)" fill-opacity="1" stroke="#000" stroke-width=".334" stroke-linecap="square" stroke-linejoin="bevel" stroke-miterlimit="4" stroke-dasharray="none" stroke-dashoffset="0" stroke-opacity=".078"/><path d="M18.472 34.46c-.211-2.499 2.746-7.657 4.905-5.587 1.676 1.607 2.445 6.579.697 7.574-1.695.965-5.467-.393-5.602-1.988zm8.586.991c-1.465-1.292-.426-6.177 1.583-6.454 2.44-.338 4.843 3.572 4 4.952-1.152 1.894-4.18 2.745-5.586 1.503zm-14.82-5.658c.137-3.108 5.283-5.718 6.753-3.574 1.394 2.032-1.066 6.134-2.9 6.765-1.852.638-3.871-1.721-3.853-3.191zm7.72-4.423c-1.597-2.808-7-1.752-7.02-5.209-.018-4.616 5.694-9.871 9.883-9.355 3.487.44 11.193 1.287 11.887 4.955.405 1.958.754 3.912 1.322 5.85 1.054 3.601-2.16 5.916-5.4 5.812-3.36-.128-8.832.995-10.675-2.054zm9.568-3.123c3.2-2.16.883-8.04-2.13-6.347-1.251.772-2.47 4.082-1.601 5.3.61 1.432 2.462 1.821 3.73 1.047zm-6.982-6.749c-1.062-1.017-2.791-.612-3.558.627-.726 1.174-1.666 4.778.873 5.238 3.259.59 4.359-4.575 2.684-5.866z" id="path1186" display="inline" fill="#e6e6e6" fill-opacity="1"/></svg>