<svg xmlns="http://www.w3.org/2000/svg" xmlns:xlink="http://www.w3.org/1999/xlink" width="48" height="48" version="1.1" id="svg38"><defs id="defs22"><linearGradient id="linearGradient4488"><stop id="stop4490" offset="0" stop-color="#000" stop-opacity=".047"/><stop id="stop4492" offset="1" stop-color="#000" stop-opacity="0"/></linearGradient><style id="style4511"/><style id="style4511-26"/><style id="style4511-9"/><style id="style4552"/><style id="style4511-2"/><linearGradient xlink:href="#linearGradient4488" id="linearGradient4546" gradientUnits="userSpaceOnUse" gradientTransform="matrix(.3038 0 0 .30687 -62.641 2.42)" x1="288.112" y1="141.785" x2="287.575" y2="79.008"/><linearGradient gradientTransform="rotate(-90 -6.701 53.752)" gradientUnits="userSpaceOnUse" x2="47" x1="1" id="linearGradient3764-36"><stop id="stop1158" stop-opacity="1" stop-color="#813f91"/><stop id="stop1160" stop-opacity="1" stop-color="#8c459f" offset="1"/></linearGradient><clipPath id="clipPath-025307470"/><linearGradient xlink:href="#linearGradient3764-36" id="linearGradient1319" x1="2.942" y1="24.231" x2="44.965" y2="24.231" gradientUnits="userSpaceOnUse"/></defs><style id="style4485" type="text/css"/><path d="M2.997 26.892v1.685c0 9.671 5.584 17.457 17.146 17.457h6.93c15.133 0 17.837-11.437 17.837-17.457v-1.685c0 6.02-2.704 17.457-17.836 17.457h-6.93c-11.563 0-17.147-7.786-17.147-17.457z" id="path4528" opacity="1" fill="url(#linearGradient4546)" fill-opacity="1" stroke="none" stroke-width="1.106" stroke-linecap="square" stroke-linejoin="bevel" stroke-miterlimit="4" stroke-dasharray="none" stroke-dashoffset="0" stroke-opacity=".078"/><path d="M44.797 19.844v8.58c0 14.049-11.246 16.975-17.282 16.975h-7.123c-5.96 0-17.282-2.732-17.282-18.017v-7c0-11.68 7.708-17.32 17.282-17.32h7.123c9.575 0 17.282 5.526 17.282 16.782z" id="path4530" opacity="1" fill="url(#linearGradient1319)" fill-opacity="1" stroke="#000" stroke-width=".336" stroke-linecap="square" stroke-linejoin="bevel" stroke-miterlimit="4" stroke-dasharray="none" stroke-dashoffset="0" stroke-opacity=".078"/><path id="path1209" d="M18.086 17.339v12h11.467v-12m-8.6 3h5.733v6h-5.733m0-6" fill="#ffa44d" fill-opacity="1" fill-rule="nonzero" stroke="none" stroke-width=".978"/><path id="path1211" d="M12.352 11.339v3h28.402v-3" fill="#ffa44d" fill-opacity="1" fill-rule="nonzero" stroke="none" stroke-width=".978"/><path id="path1213" d="M6.885 32.339v3h28.402v-3" fill="#ffa44d" fill-opacity="1" fill-rule="nonzero" stroke="none" stroke-width=".978"/><path id="path1215" d="M29.553 29.339l5.734 3v1h-5.734v-1l-5.733-3v-1h5.733m0 1" fill="#ffa44d" fill-opacity="1" fill-rule="nonzero" stroke="none" stroke-width=".978"/><path id="path1217" d="M18.086 14.339l5.734 3v1h-5.734v-1l-5.734-3v-1h5.734m0 1" fill="#ffa44d" fill-opacity="1" fill-rule="nonzero" stroke="none" stroke-width=".978"/></svg>