<svg xmlns="http://www.w3.org/2000/svg" xmlns:xlink="http://www.w3.org/1999/xlink" width="48" height="48" version="1.1" id="svg38"><defs id="defs22"><linearGradient id="linearGradient4488"><stop id="stop4490" offset="0" stop-color="#000" stop-opacity=".047"/><stop id="stop4492" offset="1" stop-color="#000" stop-opacity="0"/></linearGradient><style id="style4511"/><style id="style4511-26"/><style id="style4511-9"/><style id="style4552"/><style id="style4511-2"/><linearGradient gradientTransform="translate(-63.205 2.216) scale(.3038)" xlink:href="#linearGradient4488" id="linearGradient4160" x1="288.112" y1="141.785" x2="287.575" y2="79.008" gradientUnits="userSpaceOnUse"/></defs><style id="style4485" type="text/css"/><path d="M2.433 26.443v1.668c0 9.575 5.583 17.282 17.146 17.282h6.93c15.133 0 17.837-11.322 17.837-17.282v-1.668c0 5.96-2.704 17.282-17.837 17.282h-6.93c-11.563 0-17.146-7.708-17.146-17.282z" id="path4147" opacity="1" fill="url(#linearGradient4160)" fill-opacity="1" stroke="none" stroke-width="1.1" stroke-linecap="square" stroke-linejoin="bevel" stroke-miterlimit="4" stroke-dasharray="none" stroke-dashoffset="0" stroke-opacity=".078"/><path d="M19.046 2.965h8.495c13.908 0 16.805 11.246 16.805 17.282v7.123c0 5.96-2.704 17.282-17.837 17.282h-6.93c-11.562 0-17.146-7.708-17.146-17.282v-7.123c0-9.575 5.47-17.282 16.613-17.282z" id="rect4144" opacity="1" fill="#eede50" fill-opacity="1" stroke="#000" stroke-width=".334" stroke-linecap="square" stroke-linejoin="bevel" stroke-miterlimit="4" stroke-dasharray="none" stroke-dashoffset="0" stroke-opacity=".078"/><path d="M34.536 11.535c.558 0 .87.428.935 1.284l-.704 4.033h.172l.369-.298h.098v.09c-.508.378-1 1.413-1.476 3.106a19.811 19.811 0 0 1-.91 4.033c-.377 1.275-.566 2.45-.566 3.526l-.713 2.12c0 .18.27.36.811.539-.098.418-.246.627-.442.627v.12h.172v.09c0 .218-.279.328-.837.328l.099.12v.417h-.172c.114.419.36.628.738.628v.209h-.738v.12c.246 0 .369.179.369.537l-1.034.418.099.12v.09c0 .139-.123.209-.37.209v.12c.312 0 .468.069.468.208-.443.18-1.025 1.066-1.746 2.66-.738 1.413-1.378 2.12-1.92 2.12h-.196c-.41-.318-.746-1.374-1.009-3.166-1.05-2.729-1.574-4.332-1.574-4.81 0-1.235-.336-2.55-1.009-3.944-.18-.617-.303-1.697-.369-2.633h-.443c-1.115 2.052-1.697 3.838-1.746 4.993-.312.678-.558 1.494-.738 2.45.672.22 1.008.428 1.008.627v.12c-.525-.08-.894-.23-1.107-.448-.23.538-.533 2.031-.91 4.481-.295 1.135-.664 1.564-1.107 1.564-1.246-.498-2.288-1.176-3.124-2.31-.132 0-.345-.568-.64-1.704-.18 0-.303-.567-.369-1.703-.623-1.613-1.05-3.455-1.28-5.526v-3.107h-.098l-.442.12v-.12c0-.14.147-.21.442-.21l-.098-1.792v-1.404l-.713-4.481v-1.912c.311-1.195.852-1.793 1.623-1.793l.295.299-.295-.09c1.197 1.594 1.903 2.938 2.116 4.033h.836v.21h-.64v.238c.247.917.427 1.375.542 1.375h.197l.443-.12.098.12.098-.12.099.12v.09c-.328.238-.55.567-.664.985h-.074v.21h.172c.23 3.325.656 5.845 1.28 7.558l.368.298h.197c.246 0 .763-1.165 1.55-3.495.508-1.055.877-1.828 1.107-2.625l-.098-.329c.508-.776 1.033-1.165 1.574-1.165h.172c.345 0 .59.22.738.657.46.658.828 1.49 1.107 2.805l1.378 3.107c.18.219.27.468.27.747.509 1.175.968 2.23 1.378 2.609h.295c.345 0 .804-1.733 1.378-4.64.098 0 .369-.778.812-2.331v-.12l-.468-.209-.37.12h-.467v-.24l.935-.089h.739c.705-2.569 1.353-4.56 1.943-5.975.197-2.908.468-4.361.812-4.362l1.344-.537" id="path4719-5-2" fill="#fff" fill-opacity="1"/></svg>