<svg xmlns:osb="http://www.openswatchbook.org/uri/2009/osb" xmlns="http://www.w3.org/2000/svg" xmlns:xlink="http://www.w3.org/1999/xlink" width="48" height="48" version="1.1" id="svg38"><defs id="defs22"><linearGradient id="linearGradient4488"><stop id="stop4490" offset="0" stop-color="#000" stop-opacity=".047"/><stop id="stop4492" offset="1" stop-color="#000" stop-opacity="0"/></linearGradient><style id="style4511"/><style id="style4511-26"/><style id="style4511-9"/><style id="style4552"/><style id="style4511-2"/><linearGradient xlink:href="#linearGradient4488" id="linearGradient4540" gradientUnits="userSpaceOnUse" gradientTransform="matrix(.30673 0 0 .3038 -63.522 1.994)" x1="288.112" y1="141.785" x2="287.575" y2="79.008"/><linearGradient osb:paint="solid" id="linearGradient5293"><stop id="stop5295" offset="0" stop-color="#9a89c0" stop-opacity="1"/></linearGradient><linearGradient osb:paint="solid" id="linearGradient5251"><stop id="stop5253" offset="0" stop-color="#2f343f" stop-opacity="1"/></linearGradient><linearGradient xlink:href="#linearGradient5501" x2="264.08" x1="255.51" gradientTransform="matrix(.25142 0 0 -.25142 -45.775 -127.854)" gradientUnits="userSpaceOnUse" id="linearGradient5504"/><linearGradient x2="290.27" x1="282.46" gradientTransform="matrix(.25142 0 0 -.25142 -45.775 -127.854)" gradientUnits="userSpaceOnUse" id="linearGradient5501"><stop id="stop1892" offset=".006" stop-color="#6176b9"/><stop id="stop1894" offset=".691" stop-color="#394a9f"/></linearGradient><linearGradient xlink:href="#linearGradient5501" id="linearGradient6739" gradientUnits="userSpaceOnUse" gradientTransform="matrix(.25142 0 0 -.25142 -45.775 -127.854)" x1="282.46" x2="290.27"/></defs><style id="style4485" type="text/css"/><path id="path4516" d="M2.75 26.22v1.669c0 9.574 5.638 17.282 17.312 17.282h6.998c15.278 0 18.008-11.323 18.008-17.282V26.22c0 5.96-2.73 17.282-18.008 17.282h-6.998c-11.674 0-17.311-7.708-17.311-17.282z" opacity="1" fill="url(#linearGradient4540)" fill-opacity="1" stroke="none" stroke-width="1.105" stroke-linecap="square" stroke-linejoin="bevel" stroke-miterlimit="4" stroke-dasharray="none" stroke-dashoffset="0" stroke-opacity=".078"/><path id="path4518" d="M44.905 19.354v8.576c0 14.042-11.329 16.967-17.408 16.967h-7.175c-6.003 0-17.407-2.73-17.407-18.009v-6.996c0-11.674 7.763-17.311 17.407-17.311h7.175c9.644 0 17.408 5.522 17.408 16.773z" opacity="1" fill="#d75227" fill-opacity="1" stroke="#000" stroke-width=".337" stroke-linecap="square" stroke-linejoin="bevel" stroke-miterlimit="4" stroke-dasharray="none" stroke-dashoffset="0" stroke-opacity=".078"/><g transform="matrix(1.06667 0 0 1.05833 -1.69 -1.662)" id="g1944"><path d="M24 9C15.716 9 9 15.716 9 24c0 8.284 6.716 15 15 15 8.284 0 15-6.716 15-15 0-8.284-6.716-15-15-15zm0 1c7.732 0 14 6.268 14 14s-6.268 14-14 14-14-6.268-14-14 6.268-14 14-14z" id="path1918" fill="#fff" fill-opacity="1" fill-rule="nonzero" stroke="none"/><g id="g1942"><path d="M18.16 15.09c-.317.008-.456.123-.656.156.249.022 1.426.591 1.656.625-.23.156-.881-.006-1.313.188-.217.098-.408.479-.406.656 1.234-.125 3.175-.007 4.313.5-.906.103-2.283.22-2.875.531-1.722.907-2.485 3.02-2.031 5.563.454 2.533 2.459 11.788 3.094 14.875.018.085.018.167.031.25 1.281.356 2.636.563 4.03.563.981 0 1.946-.101 2.875-.281-.631-1.228-1.314-2.504-1.688-3.25-.997-1.994-1.986-4.812-1.531-6.625.082-.33-.866-2.853-.594-3.03 2.116-1.38 2.653.15 3.5-.469.437-.32 1.036.28 1.188-.25.543-1.903-.739-5.206-2.188-6.656-.474-.472-1.212-.78-2.031-.938-.315-.431-.811-.837-1.531-1.219-.802-.427-2.565-1.01-3.469-1.156a1.894 1.894 0 0 0-.375-.031z" id="path1920" fill="#d5d7d8"/><path d="M19.13 15a6.861 6.861 0 0 0-1.188.125c.249.023.833.528 1.063.563-.347.235-1.256.196-1.25.719a7.537 7.537 0 0 1 3.719.594c-.906.103-1.751.312-2.344.625-1.723.906-2.172 2.741-1.719 5.281.454 2.538 2.43 11.762 3.063 14.844.06.289.078.574.094.844 1.102.258 2.257.406 3.438.406 1.215 0 2.4-.165 3.531-.438a494.385 494.385 0 0 1-1.781-3.531c-.998-1.995-2.02-4.781-1.563-6.594.084-.329.101-1.696.375-1.875 2.114-1.381 1.964-.037 2.813-.656.437-.319.785-.72.938-1.25.544-1.904-.769-5.206-2.219-6.656-.472-.472-1.181-.781-2-.938-.315-.432-.843-.837-1.563-1.219A7.303 7.303 0 0 0 19.131 15z" id="path1922" fill="#fff"/><path d="M20.35 22.07a.951.951 0 1 0 0 1.904.952.952 0 0 0 0-1.904zm.422.387c.137 0 .246.111.246.248s-.11.246-.246.246a.246.246 0 0 1 0-.494z" id="path1924" fill="#2d4f8e"/><path d="M26.713 21.639a.817.817 0 1 0-.001 1.635.817.817 0 0 0 .001-1.635zm.363.33c.12 0 .211.094.211.211a.21.21 0 0 1-.211.213.212.212 0 1 1 0-.424z" id="path1926" fill="#2d4f8e"/><path d="M20.62 20.261s-.718-.325-1.415.114c-.696.438-.671.886-.671.886s-.37-.825.617-1.23c.988-.405 1.469.23 1.469.23z" id="path1928" fill="url(#linearGradient5504)"/><path d="M27.21 20.2s-.516-.295-.916-.29c-.822.011-1.046.374-1.046.374s.138-.866 1.19-.692c.57.095.772.608.772.608z" id="path1930" fill="url(#linearGradient6739)"/><path d="M23.264 26.692c.095-.576 1.584-1.666 2.637-1.732 1.056-.066 1.385-.052 2.265-.262.882-.211 3.152-.776 3.78-1.067.63-.291 3.294.144 1.416 1.191-.813.455-3 1.29-4.569 1.757-1.564.468-2.512-.447-3.03.322-.414.611-.084 1.449 1.785 1.622 2.524.234 4.943-1.136 5.209-.409.268.728-2.169 1.636-3.652 1.665-1.481.028-4.469-.98-4.916-1.292-.449-.312-1.047-1.038-.923-1.797z" id="path1932" fill="#fdd20a"/><path d="M24.406 34.561s-3.545-1.891-3.603-1.124c-.06.768 0 3.899.413 4.136.414.236 3.368-1.536 3.368-1.536l-.178-1.477" id="path1934" fill="#65bc46"/><path d="M25.764 34.441s2.422-1.832 2.955-1.713c.531.12.649 3.9.176 4.079-.473.175-3.245-.959-3.245-.959l.114-1.406z" id="path1936" fill="#65bc46"/><path d="M23.548 34.761c0 1.24-.178 1.772.355 1.89.531.119 1.535 0 1.89-.236s.058-1.831-.059-2.128c-.119-.294-2.186-.057-2.186.474z" id="path1938" fill="#43a244"/><path d="M23.773 34.485c0 1.24-.178 1.773.355 1.89.53.119 1.535 0 1.89-.236.355-.237.058-1.83-.06-2.129-.118-.295-2.185-.057-2.185.474z" id="path1940" fill="#65bc46"/></g></g></svg>