<svg xmlns:osb="http://www.openswatchbook.org/uri/2009/osb" xmlns="http://www.w3.org/2000/svg" xmlns:xlink="http://www.w3.org/1999/xlink" width="48" height="48" version="1.1" id="svg38"><defs id="defs22"><linearGradient id="linearGradient3764-367535-6" x1="1" x2="47" gradientUnits="userSpaceOnUse" gradientTransform="rotate(-90 -5.687 51.187)" y1="0" y2="0" spreadMethod="pad"><stop stop-color="#16aaf6" stop-opacity="1" id="stop1462"/><stop offset="1" stop-color="#29b3f7" stop-opacity="1" id="stop1464"/></linearGradient><linearGradient id="linearGradient4488"><stop id="stop4490" offset="0" stop-color="#000" stop-opacity=".047"/><stop id="stop4492" offset="1" stop-color="#000" stop-opacity="0"/></linearGradient><style id="style4511"/><style id="style4511-26"/><style id="style4511-9"/><style id="style4552"/><style id="style4511-2"/><linearGradient xlink:href="#linearGradient4488" id="linearGradient4540" gradientUnits="userSpaceOnUse" gradientTransform="matrix(.30902 0 0 .31004 -64.017 2.182)" x1="288.112" y1="141.785" x2="287.575" y2="79.008"/><linearGradient osb:paint="solid" id="linearGradient5293"><stop id="stop5295" offset="0" stop-color="#9a89c0" stop-opacity="1"/></linearGradient><clipPath id="clipPath-951601626"/><linearGradient xlink:href="#linearGradient3764-367535-6" id="linearGradient1473" x1="2.58" y1="24.218" x2="45.553" y2="24.218" gradientUnits="userSpaceOnUse"/></defs><style id="style4485" type="text/css"/><path id="path4516" d="M2.75 26.907v1.702c0 9.771 5.68 17.638 17.44 17.638h7.05c15.392 0 18.143-11.556 18.143-17.638v-1.702c0 6.082-2.75 17.637-18.143 17.637h-7.05c-11.76 0-17.44-7.867-17.44-17.637z" opacity="1" fill="url(#linearGradient4540)" fill-opacity="1" stroke="none" stroke-width="1.121" stroke-linecap="square" stroke-linejoin="bevel" stroke-miterlimit="4" stroke-dasharray="none" stroke-dashoffset="0" stroke-opacity=".078"/><path id="path4518" d="M19.649 2.946h8.64c14.148 0 17.094 11.478 17.094 17.637v7.27c0 6.082-2.75 17.637-18.143 17.637h-7.05c-11.76 0-17.44-7.866-17.44-17.637v-7.27c0-9.77 5.564-17.637 16.899-17.637z" opacity="1" fill="url(#linearGradient1473)" fill-opacity="1" stroke="#000" stroke-width=".34" stroke-linecap="square" stroke-linejoin="bevel" stroke-miterlimit="4" stroke-dasharray="none" stroke-dashoffset="0" stroke-opacity=".078"/><path id="path1389" d="M40.876 31.035c0-.316-.07-.371-.609-.473a10.6 10.6 0 0 1-2.547-.887c-1.902-.977-3.387-2.598-4.074-4.434-.355-.961-.48-1.621-.559-3.035-.039-.676-.121-1.48-.184-1.785-.711-3.387-3.215-6-6.613-6.922-.984-.266-2.762-.332-3.781-.145-3.195.594-5.723 2.672-6.898 5.668-.121.32-.25.711-.281.871-.063.32.016.313-.914.121-.637-.133-1.852-.066-2.52.145-1.09.352-1.98.941-2.695 1.785a5.657 5.657 0 0 0-.695 6.23c.582 1.125 1.824 2.254 2.941 2.672 1.066.395.418.383 15.438.391l13.996.008m-.004-.211" fill="#fff" fill-opacity="1" fill-rule="nonzero" stroke="none"/></svg>