<svg xmlns:osb="http://www.openswatchbook.org/uri/2009/osb" xmlns="http://www.w3.org/2000/svg" xmlns:xlink="http://www.w3.org/1999/xlink" width="48" height="48" version="1.1" id="svg38"><defs id="defs22"><style id="style4511"/><style id="style4511-26"/><style id="style4511-9"/><style id="style4552"/><style id="style4511-2"/><linearGradient osb:paint="solid" id="linearGradient5293"><stop id="stop5295" offset="0" stop-color="#9a89c0" stop-opacity="1"/></linearGradient><linearGradient xlink:href="#webb-3-5" id="linearGradient1396" x1="2.583" y1="23.586" x2="44.83" y2="23.586" gradientUnits="userSpaceOnUse" gradientTransform="translate(.288 .72)"/><linearGradient gradientTransform="rotate(-90 -1.38 48.719)" gradientUnits="userSpaceOnUse" x2="47" x1="1" id="webb-3-5"><stop id="stop1318" stop-color="#9b437f" stop-opacity="1"/><stop id="stop1320" offset="1" stop-color="#a84a8b" stop-opacity="1"/></linearGradient></defs><style id="style4485" type="text/css"/><path id="path4518" d="M19.65 3.461h8.496c13.907 0 16.804 11.247 16.804 17.282v7.124c0 5.96-2.704 17.282-17.836 17.282h-6.93c-11.563 0-17.146-7.708-17.146-17.282v-7.124c0-9.574 5.47-17.282 16.613-17.282z" opacity="1" fill="url(#linearGradient1396)" fill-opacity="1" stroke="#000" stroke-width=".334" stroke-linecap="square" stroke-linejoin="bevel" stroke-miterlimit="4" stroke-dasharray="none" stroke-dashoffset="0" stroke-opacity=".078"/><path d="M16.666 14.482a318.264 318.264 0 0 0-.145 3.416c-1.202.773-1.998 2.1-1.998 3.611 0 .38.062.747.156 1.098-1.765 1.163-2.922 3.143-2.922 5.39 0 3.593 2.96 6.485 6.639 6.485h12.723c3.678 0 6.639-2.893 6.639-6.486 0-2.87-1.896-5.289-4.53-6.148a6.12 6.12 0 0 0-.325-3.382c.115-.834.239-1.653.355-2.492l-2.445-.22a6.425 6.425 0 0 0-3.842-1.27 6.384 6.384 0 0 0-5.652 3.378 4.6 4.6 0 0 0-.771-.37c.096-.88.2-1.773.285-2.636l-4.166-.373z" id="path1337" opacity=".1" fill="#000" fill-opacity="1" stroke="none"/><g transform="matrix(1.1661 .10468 -.07256 .85105 -.242 -.518)" id="g1347" fill="#fff" fill-opacity="1" stroke="none"><g id="g1345"><path transform="matrix(.85105 -.10468 .07256 1.1661 0 0)" d="M26.21 14a6.384 6.384 0 0 0-5.653 3.378 4.48 4.48 0 0 0-2.368-.676c-2.444 0-4.426 1.936-4.426 4.324 0 .38.061.747.156 1.098-1.765 1.163-2.922 3.143-2.922 5.388 0 3.594 2.961 6.487 6.638 6.487h12.723c3.678 0 6.638-2.893 6.638-6.487 0-2.87-1.896-5.289-4.529-6.149.071-.373.104-.755.104-1.149 0-3.433-2.848-6.216-6.362-6.216" id="path1339" color="#000" display="inline" visibility="visible" fill="#c587b1" fill-rule="nonzero" stroke-width="1"/><path transform="matrix(.85105 -.10468 .07256 1.1661 0 0)" d="M29.334 16.12c-.359 4.23-.522 8.512-.875 12.85-.674-2.364-1.478-4.783-2.072-7.229l-3.289-.295c-1.129 2.295-2.244 4.45-3.373 6.738.313-3.655.795-7.585 1.195-11.383-.128.188-.253.38-.359.582a4.483 4.483 0 0 0-2.369-.676c-.479 0-.933.093-1.365.23-.207 4.845-.304 9.742.025 14.697l3.729.336c1.257-2.321 2.511-4.618 3.912-7.01.873 2.453 1.619 5.01 2.594 7.598l3.727.334c.844-3.736 1.426-7.545 1.973-11.389-.106-.041-.205-.095-.314-.131a6.12 6.12 0 0 0 .104-1.148 6.104 6.104 0 0 0-1.441-3.939l-1.799-.162z" id="path1341" opacity=".1" fill="#000"/><path d="M23.11 21.524c.683 2.79 1.542 5.525 2.288 8.211-.014-5.095-.186-10.11-.188-15.08h3.573c-.257 6.58-.456 13.03-1.097 19.4h-3.197c-1.018-2.916-1.837-5.818-2.758-8.587-1.018 2.94-1.919 5.75-2.821 8.587h-3.197c-.725-6.507-.987-12.991-1.16-19.4h3.573c-.05 4.966-.218 10.247-.219 15.08.794-2.786 1.588-5.417 2.382-8.211z" id="path1343" fill="#f9f9f9"/></g></g></svg>