<svg xmlns:osb="http://www.openswatchbook.org/uri/2009/osb" xmlns="http://www.w3.org/2000/svg" xmlns:xlink="http://www.w3.org/1999/xlink" width="48" height="48" version="1.1" id="svg38"><defs id="defs22"><linearGradient id="linearGradient4488"><stop id="stop4490" offset="0" stop-color="#000" stop-opacity=".047"/><stop id="stop4492" offset="1" stop-color="#000" stop-opacity="0"/></linearGradient><style id="style4511"/><style id="style4511-26"/><style id="style4511-9"/><style id="style4552"/><style id="style4511-2"/><linearGradient xlink:href="#linearGradient4488" id="linearGradient4540" gradientUnits="userSpaceOnUse" gradientTransform="rotate(90.216 54.465 -7.917) scale(.3038)" x1="288.112" y1="141.785" x2="287.575" y2="79.008"/><linearGradient osb:paint="solid" id="linearGradient5293"><stop id="stop5295" offset="0" stop-color="#9a89c0" stop-opacity="1"/></linearGradient><style id="style4511-87"/><style id="style4511-26-7"/><style id="style4511-9-1"/><style id="style4552-53"/><style id="style4511-2-9"/><style id="style4511-8"/><style id="style4511-26-4"/><style id="style4511-9-8"/><style id="style4552-5"/><style id="style4511-2-5"/><style id="style4511-8792"/><style id="style4511-26-3"/><style id="style4511-9-6"/><style id="style4552-4"/><style id="style4511-2-06"/><style id="style4511-87-2"/><style id="style4511-26-7-2"/><style id="style4511-9-1-8"/><style id="style4552-53-6"/><style id="style4511-2-9-9"/><style id="style4511-8-6"/><style id="style4511-26-4-2"/><style id="style4511-9-8-4"/><style id="style4552-5-9"/><style id="style4511-2-5-9"/><style id="style4511-879"/><style id="style4511-26-76"/><style id="style4511-9-2"/><style id="style4552-8"/><style id="style4511-2-0"/><linearGradient id="SVGID_3_" gradientUnits="userSpaceOnUse" x1="23.941" y1="9.526" x2="33.759" y2="30.043"><stop offset="0" id="stop2868" stop-color="#c841ba"/><stop offset="1" id="stop2870" stop-color="#8056f7"/></linearGradient><linearGradient xlink:href="#SVGID_3_" id="linearGradient3010" x1="23.859" y1="24.107" x2="45.862" y2="24.107" gradientUnits="userSpaceOnUse"/></defs><style id="style4485" type="text/css"/><style type="text/css" id="style4485-7"/><style id="style4485-6" type="text/css"/><style type="text/css" id="style4485-8"/><style id="style4485-7-2" type="text/css"/><style type="text/css" id="style4485-6-4"/><style id="style4485-3" type="text/css"/><path id="path4516" d="M22.28 3.136l-1.67-.007C11.037 3.093 3.309 8.648 3.265 20.21l-.026 6.93c-.057 15.133 11.255 17.88 17.215 17.902l1.669.006c-5.96-.022-17.272-2.77-17.215-17.901l.026-6.93C4.976 8.653 12.705 3.1 22.279 3.135z" opacity="1" fill="url(#linearGradient4540)" fill-opacity="1" stroke="none" stroke-width="1.1" stroke-linecap="square" stroke-linejoin="bevel" stroke-miterlimit="4" stroke-dasharray="none" stroke-dashoffset="0" stroke-opacity=".078"/><path d="M45.695 19.837C45.737 8.694 38.05 3.195 28.476 3.16l-4.293-.016-.157 41.912 4.293.016c6.035.023 17.292-2.832 17.344-16.74z" id="path4518" opacity="1" fill="url(#linearGradient3010)" fill-opacity="1" stroke="#000" stroke-width=".334" stroke-linecap="square" stroke-linejoin="bevel" stroke-miterlimit="4" stroke-dasharray="none" stroke-dashoffset="0" stroke-opacity=".078"/><path d="M2.548 28.39c-.027 11.142 7.667 16.631 17.24 16.655l4.294.01.101-41.912-4.293-.01C13.855 3.118 2.602 5.988 2.568 19.895z" id="path4518-7" opacity="1" fill="#1bbecf" fill-opacity="1" stroke="#000" stroke-width=".334" stroke-linecap="square" stroke-linejoin="bevel" stroke-miterlimit="4" stroke-dasharray="none" stroke-dashoffset="0" stroke-opacity=".078"/><g id="g748" transform="matrix(1.00064 0 0 1 -.015 0)" fill="#ff4" fill-opacity="1"><path id="path4518-7-6" d="M19.89 3.133C13.855 3.12 2.602 5.987 2.568 19.895l-.012 5.02h21.575l.052-21.772z" opacity="1" fill="#ff4" fill-opacity="1" stroke="#000" stroke-width=".334" stroke-linecap="square" stroke-linejoin="bevel" stroke-miterlimit="4" stroke-dasharray="none" stroke-dashoffset="0" stroke-opacity=".078"/></g><path d="M28.371 45.056C34.41 45.05 45.66 42.343 45.644 29.4l-.006-4.672-21.587.072.024 20.262z" id="path4518-7-6-7" opacity="1" fill="#00deff" fill-opacity="1" stroke="#000" stroke-width=".322" stroke-linecap="square" stroke-linejoin="bevel" stroke-miterlimit="4" stroke-dasharray="none" stroke-dashoffset="0" stroke-opacity=".078"/><path id="path4518-0" d="M7.147 27.77v-6.803C7.147 9.83 16.355 7.51 21.296 7.51h5.832c4.88 0 14.15 2.165 14.15 14.282v5.55c0 9.258-6.311 13.729-14.15 13.729h-5.832c-7.839 0-14.15-4.38-14.15-13.303z" opacity="1" fill="#4d4d4d" fill-opacity="1" stroke="#000" stroke-width=".271" stroke-linecap="square" stroke-linejoin="bevel" stroke-miterlimit="4" stroke-dasharray="none" stroke-dashoffset="0" stroke-opacity=".078"/><path id="rect2897" fill="#fff" stroke-width="1.062" d="M13.822 32.667h9.587v2.116h-9.587z"/><g id="g2903" transform="matrix(1.0652 0 0 1.05799 -1.09 -.131)" fill="#fff"><path d="M14.972 24.961l-2.828-9.989h2.229c.464 1.966.803 3.435 1.017 4.408.26 1.159.45 2.123.571 2.893l1.421-7.301h2.216c.538 2.54.905 4.278 1.101 5.215.13.64.26 1.335.39 2.086.26-1.242.46-2.179.599-2.81.01-.046.362-1.543 1.06-4.491h2.117l-2.814 9.989h-2.006a304.782 304.782 0 0 1-1.031-5.007 169.08 169.08 0 0 1-.515-2.781 166.037 166.037 0 0 1-.753 3.895 539.517 539.517 0 0 0-.821 3.894h-1.953z" id="path2899"/><path d="M25.615 21.882h2.007c0 .409.12.748.362 1.018.362.399.947.599 1.755.599.595 0 1.068-.083 1.421-.25.446-.214.669-.562.669-1.044 0-.361-.167-.635-.502-.82-.223-.12-.659-.26-1.31-.417l-1.072-.251c-1.068-.25-1.797-.51-2.188-.778-.659-.454-.989-1.173-.989-2.156 0-.77.232-1.419.697-1.947.659-.751 1.708-1.127 3.148-1.127 1.365 0 2.396.384 3.093 1.151.538.592.808 1.281.808 2.067h-2.006c-.047-.396-.163-.7-.349-.911-.334-.387-.9-.58-1.699-.58-.474 0-.864.084-1.171.251-.381.213-.57.528-.57.945 0 .344.12.604.361.779.14.102.372.19.697.264l2.438.599c.827.204 1.436.468 1.825.793.529.436.794 1.066.794 1.892 0 1.011-.334 1.794-1.003 2.351-.733.612-1.714.918-2.939.918-1.625 0-2.796-.399-3.511-1.198-.51-.569-.766-1.284-.766-2.148z" id="path2901"/></g></svg>