<svg xmlns="http://www.w3.org/2000/svg" xmlns:xlink="http://www.w3.org/1999/xlink" width="48" height="48" version="1.1" id="svg38"><defs id="defs22"><linearGradient id="linearGradient4488"><stop id="stop4490" offset="0" stop-color="#000" stop-opacity=".047"/><stop id="stop4492" offset="1" stop-color="#000" stop-opacity="0"/></linearGradient><style id="style4511"/><style id="style4511-26"/><style id="style4511-9"/><style id="style4552"/><style id="style4511-2"/><linearGradient xlink:href="#linearGradient4488" id="linearGradient4546" gradientUnits="userSpaceOnUse" gradientTransform="translate(-62.497 1.994) scale(.3038)" x1="288.112" y1="141.785" x2="287.575" y2="79.008"/><linearGradient xlink:href="#linearGradient-1" id="linearGradient1263" x1="2.974" y1="23.586" x2="45.221" y2="23.586" gradientUnits="userSpaceOnUse" gradientTransform="rotate(90 24.098 23.586)"/><linearGradient id="linearGradient-1" y2="44.756" x2="24" y1="2" x1="24" gradientUnits="userSpaceOnUse" gradientTransform="translate(-48.88 -1.45)"><stop id="stop1162" offset="0%" stop-color="#A3FF00"/><stop id="stop1164" offset="100%" stop-color="#00967F"/></linearGradient><linearGradient id="linearGradient-2" y2="43.239" x2="19.494" y1="19.36" x1="19.494" gradientTransform="matrix(1.25634 0 0 .79596 -.88 -1.45)" gradientUnits="userSpaceOnUse"><stop id="stop1167" offset="0%" stop-color="#216000"/><stop id="stop1169" offset="100%" stop-color="#002A3A"/></linearGradient></defs><style id="style4485" type="text/css"/><path d="M3.141 26.22v1.67c0 9.573 5.583 17.281 17.146 17.281h6.93c15.133 0 17.837-11.322 17.837-17.282v-1.668c0 5.96-2.704 17.282-17.837 17.282h-6.93c-11.563 0-17.146-7.708-17.146-17.282z" id="path4528" opacity="1" fill="url(#linearGradient4546)" fill-opacity="1" stroke="none" stroke-width="1.1" stroke-linecap="square" stroke-linejoin="bevel" stroke-miterlimit="4" stroke-dasharray="none" stroke-dashoffset="0" stroke-opacity=".078"/><path d="M44.941 19.243v8.495c0 13.908-11.247 16.804-17.282 16.804h-7.123c-5.96 0-17.282-2.704-17.282-17.836v-6.93c0-11.563 7.708-17.146 17.282-17.146h7.123c9.574 0 17.282 5.47 17.282 16.613z" id="path4530" opacity="1" fill="url(#linearGradient1263)" fill-opacity="1" stroke="#000" stroke-width=".334" stroke-linecap="square" stroke-linejoin="bevel" stroke-miterlimit="4" stroke-dasharray="none" stroke-dashoffset="0" stroke-opacity=".078"/><path id="path1176" d="M19.89 19.89c.108-.382 1.158-.562 1.266.22.067.374-.289 2.268-2.1 4.167-1.81 1.898-5.063 2.965-6.995 2.95-2.938.013-4.94-4.12-2.03-8.342 1.939-2.815 4.948-4.437 9.026-4.867 3.402-.32 5.456.708 6.16 3.084 1.055 3.562-3.961 8.253-4.696 8.854-.735.6-4.52 4.934-3.138 5.276.922.228 3.417-1.47 7.484-5.095.629-2.803 1.385-4.75 2.268-5.84 1.867-2.369 3.172-2.92 3.916-1.653.246 1.854-1.348 4.612-4.78 8.272-1.404 6.549 2.892 4.01 3.563 3.374 7.48-7.179 6.936-12.671 6.569-14.423-.246-1.167.02-1.557.794-1.168 2.665 2.992.84 6.892.309 8.302-.532 1.41-4.891 8.508-9.124 9.503-2.822.664-4.12-.64-3.893-3.91-4.598 4.031-7.748 5.276-9.45 3.734-1.391-1.7-.628-3.824 2.291-6.372 4.379-3.822 4.739-3.721 5.955-6.22 1.41-3.66-.845-4.03-1.917-4.127-1.072-.096-6.872.759-9.609 5.528-1.824 3.18-1.484 4.726 1.02 4.64 5.61-.923 6.52-4.257 7.11-5.886zm9.328.241s-1.313 1.515-2.01 3.486c1.228-1.79 1.95-2.873 2.168-3.25.236-.41-.158-.236-.158-.236z" fill="url(#linearGradient-2)" fill-rule="evenodd" stroke="none" stroke-width="1"/></svg>