<svg xmlns="http://www.w3.org/2000/svg" xmlns:xlink="http://www.w3.org/1999/xlink" width="48" height="48" version="1.1" id="svg38"><defs id="defs22"><linearGradient id="linearGradient4488"><stop id="stop4490" offset="0" stop-color="#000" stop-opacity=".047"/><stop id="stop4492" offset="1" stop-color="#000" stop-opacity="0"/></linearGradient><style id="style4511"/><style id="style4511-26"/><style id="style4511-9"/><style id="style4552"/><style id="style4511-2"/><linearGradient xlink:href="#linearGradient4488" id="linearGradient4546" gradientUnits="userSpaceOnUse" gradientTransform="translate(-62.497 1.994) scale(.3038)" x1="288.112" y1="141.785" x2="287.575" y2="79.008"/></defs><style id="style4485" type="text/css"/><path d="M3.141 26.22v1.67c0 9.573 5.583 17.281 17.146 17.281h6.93c15.133 0 17.837-11.322 17.837-17.282v-1.668c0 5.96-2.704 17.282-17.837 17.282h-6.93c-11.563 0-17.146-7.708-17.146-17.282z" id="path4528" opacity="1" fill="url(#linearGradient4546)" fill-opacity="1" stroke="none" stroke-width="1.1" stroke-linecap="square" stroke-linejoin="bevel" stroke-miterlimit="4" stroke-dasharray="none" stroke-dashoffset="0" stroke-opacity=".078"/><path d="M19.754 2.742h8.495c13.908 0 16.805 11.247 16.805 17.282v7.124c0 5.96-2.704 17.282-17.837 17.282h-6.93c-11.562 0-17.146-7.708-17.146-17.282v-7.124c0-9.574 5.47-17.282 16.613-17.282z" id="path4530" opacity=".97" fill="#46c055" fill-opacity="1" stroke="#000" stroke-width=".334" stroke-linecap="square" stroke-linejoin="bevel" stroke-miterlimit="4" stroke-dasharray="none" stroke-dashoffset="0" stroke-opacity=".078"/><path d="M24.341 36.29c-2.306 0-4.472-.59-6.357-1.624l-7.28 2.313 2.373-7a12.915 12.915 0 0 1-1.886-6.738c0-7.207 5.887-13.048 13.15-13.048 7.262 0 13.15 5.841 13.15 13.048s-5.887 13.048-13.15 13.048zm0-24.02c-6.097 0-11.056 4.922-11.056 10.971 0 2.4.783 4.623 2.106 6.432l-1.381 4.074 4.248-1.35a11.05 11.05 0 0 0 6.083 1.814c6.096 0 11.056-4.92 11.056-10.97 0-6.049-4.96-10.97-11.056-10.97zm6.64 13.976c-.08-.133-.296-.213-.617-.373-.323-.16-1.908-.934-2.203-1.04-.296-.107-.511-.16-.726.16-.214.32-.832 1.04-1.02 1.253-.189.214-.377.24-.699.08-.322-.16-1.36-.497-2.592-1.587-.958-.847-1.605-1.894-1.793-2.214-.188-.32-.02-.493.141-.652.145-.144.322-.374.484-.56.161-.188.215-.32.322-.534.108-.214.054-.4-.027-.56-.08-.16-.726-1.734-.994-2.375-.268-.64-.537-.533-.725-.533-.188 0-.403-.027-.618-.027-.215 0-.564.08-.86.4-.295.32-1.128 1.094-1.128 2.668s1.155 3.094 1.317 3.307c.16.213 2.229 3.548 5.505 4.829 3.278 1.28 3.278.853 3.87.8.59-.054 1.906-.774 2.175-1.52.268-.748.268-1.388.188-1.522z" id="whatsapp-6-7-7" fill="#fff" fill-rule="evenodd" stroke="none" stroke-width="1"/></svg>