<svg xmlns="http://www.w3.org/2000/svg" xmlns:xlink="http://www.w3.org/1999/xlink" width="48" height="48" version="1.1" id="svg38"><defs id="defs22"><linearGradient id="linearGradient4488"><stop id="stop4490" offset="0" stop-color="#000" stop-opacity=".047"/><stop id="stop4492" offset="1" stop-color="#000" stop-opacity="0"/></linearGradient><style id="style4511"/><style id="style4511-26"/><style id="style4511-9"/><style id="style4552"/><style id="style4511-2"/><linearGradient xlink:href="#linearGradient4488" id="linearGradient4546" gradientUnits="userSpaceOnUse" gradientTransform="translate(-62.497 1.994) scale(.3038)" x1="288.112" y1="141.785" x2="287.575" y2="79.008"/></defs><style id="style4485" type="text/css"/><path d="M3.141 26.22v1.67c0 9.573 5.583 17.281 17.146 17.281h6.93c15.133 0 17.837-11.322 17.837-17.282v-1.668c0 5.96-2.704 17.282-17.837 17.282h-6.93c-11.563 0-17.146-7.708-17.146-17.282z" id="path4528" opacity="1" fill="url(#linearGradient4546)" fill-opacity="1" stroke="none" stroke-width="1.1" stroke-linecap="square" stroke-linejoin="bevel" stroke-miterlimit="4" stroke-dasharray="none" stroke-dashoffset="0" stroke-opacity=".078"/><path d="M19.754 2.742h8.495c13.908 0 16.805 11.247 16.805 17.282v7.124c0 5.96-2.704 17.282-17.837 17.282h-6.93c-11.562 0-17.146-7.708-17.146-17.282v-7.124c0-9.574 5.47-17.282 16.613-17.282z" id="path4530" opacity="1" fill="#4aac5f" fill-opacity="1" stroke="#000" stroke-width=".334" stroke-linecap="square" stroke-linejoin="bevel" stroke-miterlimit="4" stroke-dasharray="none" stroke-dashoffset="0" stroke-opacity=".078"/><path d="M24.343 10.192c-7.263 0-13.15 5.843-13.15 13.05 0 2.464.689 4.77 1.886 6.736l-2.375 7.002 7.281-2.315a13.169 13.169 0 0 0 6.356 1.625c7.262 0 13.15-5.842 13.15-13.049 0-7.206-5.886-13.049-13.148-13.049zm-.002 2.079c6.095 0 11.056 4.921 11.056 10.97 0 6.05-4.96 10.971-11.056 10.971-2.246 0-4.336-.668-6.082-1.814l-4.248 1.35 1.38-4.075a10.857 10.857 0 0 1-2.105-6.432c0-6.049 4.958-10.97 11.055-10.97zm-6.344 9.025a1.56 1.56 0 0 0-1.559 1.56 1.56 1.56 0 0 0 1.559 1.56 1.56 1.56 0 0 0 1.56-1.56 1.56 1.56 0 0 0-1.56-1.56zm6.725 0a1.56 1.56 0 0 0-1.56 1.56 1.56 1.56 0 0 0 1.56 1.56 1.56 1.56 0 0 0 1.56-1.56 1.56 1.56 0 0 0-1.56-1.56zm6.724 0a1.56 1.56 0 0 0-1.56 1.56 1.56 1.56 0 0 0 1.56 1.56 1.56 1.56 0 0 0 1.56-1.56 1.56 1.56 0 0 0-1.56-1.56z" id="whatsapp-6-4" fill="#fff" fill-rule="evenodd" stroke="none" stroke-width="1"/></svg>