<svg xmlns="http://www.w3.org/2000/svg" xmlns:xlink="http://www.w3.org/1999/xlink" width="48" height="48" version="1.1" id="svg38"><defs id="defs22"><linearGradient id="linearGradient4488"><stop id="stop4490" offset="0" stop-color="#000" stop-opacity=".047"/><stop id="stop4492" offset="1" stop-color="#000" stop-opacity="0"/></linearGradient><style id="style4511"/><linearGradient gradientUnits="userSpaceOnUse" x2="13" y2="4" x1="43" y1="40" id="a"><stop id="stop2-36753" stop-color="#f27935"/><stop id="stop4-562" stop-color="#f2784b" offset="1"/></linearGradient><style id="style4511-26"/><style id="style4511-9"/><style id="style4552"/><style id="style4511-2"/><linearGradient gradientTransform="translate(-63.205 2.216) scale(.3038)" xlink:href="#linearGradient4488" id="linearGradient4160" x1="288.112" y1="141.785" x2="287.575" y2="79.008" gradientUnits="userSpaceOnUse"/><clipPath id="b-3675"><use id="use948" overflow="visible" xlink:href="#a" x="0" y="0" width="100%" height="100%"/></clipPath><filter height="1.288" y="-.144" width="1.274" x="-.137" id="filter8489" color-interpolation-filters="sRGB"><feGaussianBlur id="feGaussianBlur8491" stdDeviation="1.589"/></filter><filter height="1.274" y="-.137" width="1.274" x="-.137" id="filter8493" color-interpolation-filters="sRGB"><feGaussianBlur id="feGaussianBlur8495" stdDeviation="55.938"/></filter><filter height="1.31" y="-.155" width="1.205" x="-.103" id="filter8497" color-interpolation-filters="sRGB"><feGaussianBlur id="feGaussianBlur8499" stdDeviation="3.421"/></filter><filter height="1.264" y="-.132" width="1.205" x="-.103" id="filter8501" color-interpolation-filters="sRGB"><feGaussianBlur id="feGaussianBlur8503" stdDeviation="3.421"/></filter></defs><style id="style4485" type="text/css"/><path d="M2.433 26.443v1.668c0 9.575 5.583 17.282 17.146 17.282h6.93c15.133 0 17.837-11.322 17.837-17.282v-1.668c0 5.96-2.704 17.282-17.837 17.282h-6.93c-11.563 0-17.146-7.708-17.146-17.282z" id="path4147" opacity="1" fill="url(#linearGradient4160)" fill-opacity="1" stroke="none" stroke-width="1.1" stroke-linecap="square" stroke-linejoin="bevel" stroke-miterlimit="4" stroke-dasharray="none" stroke-dashoffset="0" stroke-opacity=".078"/><path d="M19.046 2.965h8.495c13.908 0 16.805 11.246 16.805 17.282v7.123c0 5.96-2.704 17.282-17.837 17.282h-6.93c-11.562 0-17.146-7.708-17.146-17.282v-7.123c0-9.575 5.47-17.282 16.613-17.282z" id="rect4144" opacity="1" fill="#e6e6e6" fill-opacity="1" stroke="#000" stroke-width=".334" stroke-linecap="square" stroke-linejoin="bevel" stroke-miterlimit="4" stroke-dasharray="none" stroke-dashoffset="0" stroke-opacity=".078"/><path clip-path="url(#b-3675)" d="M0 37V11l17 13z" id="path951-3" transform="matrix(.16414 0 0 .1812 -56.492 -.302)" fill="#fbbc05"/><path clip-path="url(#b-3675)" d="M0 11l17 13 7-6.1L48 14V0H0z" id="path953" transform="matrix(.16414 0 0 .1812 -56.492 -.302)" fill="#ea4335"/><path clip-path="url(#b-3675)" d="M0 37l30-23 7.9 1L48 0v48H0z" id="path955" transform="matrix(.16414 0 0 .1812 -56.492 -.302)" fill="#34a853"/><path clip-path="url(#b-3675)" d="M48 48L17 24l-4-3 35-10z" id="path957" transform="matrix(.16414 0 0 .1812 -56.492 -.302)" fill="#4285f4"/><g id="g1734" transform="translate(61.22 -.305)"><g transform="matrix(.16102 0 0 .17775 -58.34 1.472)" id="g8387"><g transform="translate(-86.39 86.767) scale(2.15246)" id="g1790" fill="#3b3738" fill-opacity="1" stroke="none" stroke-opacity="1" font-style="normal" font-weight="400" font-family="sans-serif"><g id="text1769" style="line-height:1.25" aria-label="I" font-size="40" letter-spacing="0" word-spacing="0"><path id="path1780" style="-inkscape-font-specification:Likhan" d="M117.966 49.645V31.87q0-1.992-.488-2.637l-.293-.293q-.703-.527-3.008-.664h-.097v-.761h11.875v.761q-2.403.118-3.125.684-.723.566-.782 2.246l-.02.664v17.774q0 2.05.626 2.734.644.703 2.715.84.273 0 .586.02V54H114.08v-.762q2.363-.078 3.066-.605.723-.528.8-2.149.02-.351.02-.84z" font-style="normal" font-variant="normal" font-weight="400" font-stretch="normal" font-family="Likhan" fill="#3b3738" fill-opacity="1"/></g><g id="text1773" style="line-height:1.25" aria-label="I" font-size="40" letter-spacing="0" word-spacing="0"><path id="path1777" style="-inkscape-font-specification:Likhan" d="M133.966 49.645V31.87q0-1.992-.488-2.637l-.293-.293q-.703-.527-3.008-.664h-.097v-.761h11.875v.761q-2.403.118-3.125.684-.723.566-.782 2.246l-.019.664v17.774q0 2.05.625 2.734.645.703 2.715.84.273 0 .586.02V54H130.08v-.762q2.363-.078 3.066-.605.723-.528.801-2.149.02-.351.02-.84z" font-style="normal" font-variant="normal" font-weight="400" font-stretch="normal" font-family="Likhan" fill="#3b3738" fill-opacity="1"/></g><path id="path1775" d="M134.519 31.31L120 49l.88.612 14.518-17.687z" style="line-height:normal;font-variant-ligatures:normal;font-variant-position:normal;font-variant-caps:normal;font-variant-numeric:normal;font-variant-alternates:normal;font-feature-settings:normal;text-indent:0;text-align:start;text-decoration-line:none;text-decoration-style:solid;text-decoration-color:#000;text-transform:none;text-orientation:mixed;white-space:normal;shape-padding:0;isolation:auto;mix-blend-mode:normal;solid-color:#000;solid-opacity:1" color="#000" font-variant="normal" font-stretch="normal" font-size="medium" text-decoration="none" letter-spacing="normal" word-spacing="normal" writing-mode="lr-tb" direction="ltr" dominant-baseline="auto" baseline-shift="baseline" text-anchor="start" clip-rule="nonzero" display="inline" overflow="visible" visibility="visible" opacity="1" color-interpolation="sRGB" color-interpolation-filters="linearRGB" vector-effect="none" fill-rule="nonzero" stroke-width="1.06" stroke-linecap="butt" stroke-linejoin="miter" stroke-miterlimit="4" stroke-dasharray="none" stroke-dashoffset="0" stroke-opacity="1" color-rendering="auto" image-rendering="auto" shape-rendering="auto" text-rendering="auto" enable-background="accumulate"/></g><g transform="translate(155.467 46.464) scale(.06116)" id="g6809" fill="#3b3738" fill-opacity="1" stroke="#000" stroke-opacity="1"><g id="g6777"><path d="M734.713 883.12h245l61.2-122.5v245h-367.5v-205c125.5-54.1 214.4-188.7 214.4-346.2 0-205.3-150.9-365.9-336.9-365.9-186.1 0-336.9 160.6-336.9 365.8 0 157.6 88.9 292.2 214.4 346.2v205h-367.5v-244.9l61.3 122.5h245v-31.2c-179.6-63.6-306.3-217.6-306.3-397.5 0-236.8 219.4-428.8 490-428.8s490 192 490 428.8c0 179.9-126.7 334-306.3 397.6v31.1z" id="path6775" fill="#3b3738" fill-opacity="1"/></g></g><path d="M58.388 107.976h3.489L73.525 85.38l9.582 22.596h3.359l19.907-45.802c1.116-2.57 3.291-4.113 5.603-4.462v-2.728H95.88v2.729c2.136.475 4.403 1.275 5.412 3.53L86.673 94.958c-2.643-5.62-5.352-11.76-7.938-17.889 2.67-5.67 4.85-10.938 8.123-16.114 1.915-3.045 5.021-3.117 6.622-3.267v-2.705H76.37v2.705c2.135 0 6.578.192 4.597 4.355l-4.963 10.434-5.256-11.606c-.819-1.807.771-3.011 3.366-3.155l-.02-2.73H54.837v2.705c2.295.075 5.53.063 6.724 2.008 3.677 6.755 6.135 13.771 9.487 20.658l-8.674 16.22-14.58-33.515c-1.643-3.776 2.258-4.993 4.792-5.309l-.029-2.768H32.024v2.705c2.835.938 6.492 5.155 7.513 7.29 7.67 16.042 11.532 26.798 18.853 42.998z" id="path7474" fill="#3b3738" fill-opacity="1" stroke="#000" stroke-width=".047" stroke-opacity="1"/><path d="M43.904 140.89c.011 1.402.724 2.194.464 3.428-.811 3.743-2.52 7.516-3.893 10.784-.904 2.109-1.301 4.626-2.75 6.167-.312.174-2.86-.03-3.45-.442-.864-.011-1.719.024-2.275.215v.464c3.858 3.737 8.035 5.01 13.296 7.344-.73 3.795-4.562 6.326-6.428 9.177-.961 0-1.735-.064-2.285-.464-.527.098-.57.122-.917.238.093 3.371 2.904 6.236 5.726 6.88 1.894-2.121 4.261-3.14 7.106-4.346 2.601 2.712 3.354 6.584 4.356 10.987.435 1.924-.277 4.04.227 5.726.88 2.978 2.467 3.866 3.892 5.952h1.607c1.008-5.388-1.464-10.621-2.75-14.902-.376-1.825-.76-3.674-1.143-5.511-.956-1.57-2.838-1.974-4.13-3.202-.4-.134-.226-.041-.452-.227 2.954-1.53 6.095-3.22 9.165-4.582.823.915 4.642 4.593 5.963 3.892.232-.07.453-.14.68-.226-.076-1.298-.14-2.59-.227-3.893-2.891-2.885-7.147-5.274-11.926-6.178v.226h-.227c.539 1.582 2.299 3.093 3.678 3.893v.69c-2.717.394-5.125 1.712-7.57 2.535-1.675.539-3.697.46-5.058 1.358h-.68c.992-2.775 4.278-5.05 5.964-7.344 3.337-4.496 5.982-10.01 11.236-12.605-.139-2.115-6.238-6.49-8.486-5.047-.562.295-.163-.121-.453.453-.342.834.789 1.863.453 3.213-.44 1.767-4.805 10.083-5.952 11.01v.238c-2.364-.806-4.162-3.03-6.416-4.13.4-2.11 2.165-3.732 3.202-5.273 2.625-3.963 4.733-7.742 8.713-10.331-.035-3.048-4.958-6.225-8.26-6.167zm27.1 2.184a2.253 2.253 0 0 0-1.165.35c-.232.081-.459.134-.68.227 0 1.958.975 3.436.453 5.499-1.054 4.12-3.407 9.013-5.51 12.39-1.263 2.028-4.009 4.221-4.119 7.118 3.743-.371 4.64-4.236 7.547-5.285.846.783 1.678 1.55 2.524 2.297 1.199 1.802.98 4.505 1.607 6.869a6838.92 6838.92 0 0 1 3.202 14.902c.145 2.463.302 4.888.464 7.344.608 2.207 2.44 6.064 4.809 6.597.388.197.702.121 1.143-.226.805-.655.371-1.812.928-2.75 1.286-.921 3.558-.685 5.272-1.154 4.687-1.234 10.159-1.15 15.356-2.297 2.462-.54 6.528.926 8.475-.215.232-.093.476-.15.69-.25-.11-2.994-5.845-4.268-8.95-3.405-1.374.382-2.978 1.236-4.357 1.595a199.4 199.4 0 0 1-3.214.215c-.359-3.73-2.198-6.624-2.285-10.523 3.447-.075 7.765-.53 10.07-1.833-.046-1.159-.255-1.161-.678-1.822-2.625-.62-7.132-.723-9.177.679-.58-.023-.842-.023-1.132-.226-1.28-1.622-.674-4.933-1.833-6.642v-.917c2.468-.533 6.493-.971 7.785-2.75.18-.237.082-.064.226-.452-.208-.203-.29-.395-.452-.69-3.586-.904-5.144-.283-8.25.916-.967-3.1.2-5.553-2.975-6.416.678-1.176 2.937-1.131 4.356-1.607 2.213-.73 4.725-1.707 6.643-2.738.15-.394.046-.232.237-.464-.127-1.159-.458-1.12-.928-1.833-3.308-.255-5.948.066-7.796 1.833h-.441c.272-1.709 1.341-4.16 2.285-5.5.65-.938 1.846-.807 2.297-2.059h.227v-.248c-.47-.603-.912-1.226-1.37-1.822-1.077-.753-2.634-.82-3.666-1.607-1.523-.023-2.983-.023-3.892.453.122.88.516 1.433.69 2.059.632 2.364-1.643 9.672-2.523 10.772-.713.892-8.989 3.892-11.236 3.214-.533-.168-2.09-.946-2.524-1.38-.185-.227-.081-.054-.226-.453 3.25-3.053 5.586-9.852 10.082-11.225.081-.37.156-.766.238-1.143-.984-1.014-5.278-5.516-8.227-5.397zm8.928 20.639c.67-.04 1.18-.017 1.347.09 2.433 1.13 1.562 4.708 2.976 6.88-.481 1.124-6.07 2.82-7.797 2.976-.307-2.427-.71-7.386-2.297-8.701.274-.465 3.762-1.126 5.771-1.245zm4.775 9.946h.238c.44 2.086.686 5.67 1.833 7.344-.823 2.016-5.885 1.834-7.796 2.987-.8-.48-1.857-6.232-1.833-7.796 1.75-.162 6.29-1.672 7.558-2.535zm-26.58 10.082c-.463 1.982 4.405 6.411 5.952 7.581.77.58 1.8 1.897 2.976 1.358.603-.046.79-.104 1.154-.226.267-.608.667-1.388.227-2.048-.122-2.88-7.592-6.114-10.309-6.665zm29.33.226c.18 2.132 1.492 8.153 2.523 9.63.006.139 0 .313 0 .464-2.763.59-5.636 1.392-8.713 1.38-.475-3.267-2.042-6.147-2.06-9.63 3.518-.063 5.342-1.484 8.25-1.844zm-42.41 2.75c-.348.782-.308 2.05-.68 2.976-1.98 4.867-2.623 5.882.465 10.546 1.373 0 1.55-.215 2.285-.69.91-3.807 1.058-11.047-2.07-12.832z" id="path926" opacity=".88" fill="#231f20" stroke-width="5.793"/><g id="g8399" transform="translate(-86.39 86.767) scale(2.15246)" opacity=".3" fill="#000" fill-opacity="1" stroke="none" stroke-opacity="1" filter="url(#filter8489)" font-style="normal" font-weight="400" font-family="sans-serif"><g aria-label="I" style="line-height:1.25" id="g8391" font-size="40" letter-spacing="0" word-spacing="0"><path d="M117.966 49.645V31.87q0-1.992-.488-2.637l-.293-.293q-.703-.527-3.008-.664h-.097v-.761h11.875v.761q-2.403.118-3.125.684-.723.566-.782 2.246l-.02.664v17.774q0 2.05.626 2.734.644.703 2.715.84.273 0 .586.02V54H114.08v-.762q2.363-.078 3.066-.605.723-.528.8-2.149.02-.351.02-.84z" style="-inkscape-font-specification:Likhan" id="path8389" font-style="normal" font-variant="normal" font-weight="400" font-stretch="normal" font-family="Likhan" fill="#000" fill-opacity="1"/></g><g aria-label="I" style="line-height:1.25" id="g8395" font-size="40" letter-spacing="0" word-spacing="0"><path d="M133.966 49.645V31.87q0-1.992-.488-2.637l-.293-.293q-.703-.527-3.008-.664h-.097v-.761h11.875v.761q-2.403.118-3.125.684-.723.566-.782 2.246l-.019.664v17.774q0 2.05.625 2.734.645.703 2.715.84.273 0 .586.02V54H130.08v-.762q2.363-.078 3.066-.605.723-.528.801-2.149.02-.351.02-.84z" style="-inkscape-font-specification:Likhan" id="path8393" font-style="normal" font-variant="normal" font-weight="400" font-stretch="normal" font-family="Likhan" fill="#000" fill-opacity="1"/></g><path style="line-height:normal;font-variant-ligatures:normal;font-variant-position:normal;font-variant-caps:normal;font-variant-numeric:normal;font-variant-alternates:normal;font-feature-settings:normal;text-indent:0;text-align:start;text-decoration-line:none;text-decoration-style:solid;text-decoration-color:#000;text-transform:none;text-orientation:mixed;white-space:normal;shape-padding:0;isolation:auto;mix-blend-mode:normal;solid-color:#000;solid-opacity:1" d="M134.519 31.31L120 49l.88.612 14.518-17.687z" id="path8397" color="#000" font-variant="normal" font-stretch="normal" font-size="medium" text-decoration="none" letter-spacing="normal" word-spacing="normal" writing-mode="lr-tb" direction="ltr" dominant-baseline="auto" baseline-shift="baseline" text-anchor="start" clip-rule="nonzero" display="inline" overflow="visible" visibility="visible" opacity="1" color-interpolation="sRGB" color-interpolation-filters="linearRGB" vector-effect="none" fill-rule="nonzero" stroke-width="1.06" stroke-linecap="butt" stroke-linejoin="miter" stroke-miterlimit="4" stroke-dasharray="none" stroke-dashoffset="0" stroke-opacity="1" color-rendering="auto" image-rendering="auto" shape-rendering="auto" text-rendering="auto" enable-background="accumulate"/></g><g id="g8435" transform="translate(155.467 46.464) scale(.06116)" opacity=".3" fill="#000" fill-opacity="1" stroke="#000" stroke-opacity="1" filter="url(#filter8493)"><g id="g8403"><path id="path8401" d="M734.713 883.12h245l61.2-122.5v245h-367.5v-205c125.5-54.1 214.4-188.7 214.4-346.2 0-205.3-150.9-365.9-336.9-365.9-186.1 0-336.9 160.6-336.9 365.8 0 157.6 88.9 292.2 214.4 346.2v205h-367.5v-244.9l61.3 122.5h245v-31.2c-179.6-63.6-306.3-217.6-306.3-397.5 0-236.8 219.4-428.8 490-428.8s490 192 490 428.8c0 179.9-126.7 334-306.3 397.6v31.1z" fill="#000" fill-opacity="1"/></g></g><path id="path8437" d="M58.388 107.976h3.489L73.525 85.38l9.582 22.596h3.359l19.907-45.802c1.116-2.57 3.291-4.113 5.603-4.462v-2.728H95.88v2.729c2.136.475 4.403 1.275 5.412 3.53L86.673 94.958c-2.643-5.62-5.352-11.76-7.938-17.889 2.67-5.67 4.85-10.938 8.123-16.114 1.915-3.045 5.021-3.117 6.622-3.267v-2.705H76.37v2.705c2.135 0 6.578.192 4.597 4.355l-4.963 10.434-5.256-11.606c-.819-1.807.771-3.011 3.366-3.155l-.02-2.73H54.837v2.705c2.295.075 5.53.063 6.724 2.008 3.677 6.755 6.135 13.771 9.487 20.658l-8.674 16.22-14.58-33.515c-1.643-3.776 2.258-4.993 4.792-5.309l-.029-2.768H32.024v2.705c2.835.938 6.492 5.155 7.513 7.29 7.67 16.042 11.532 26.798 18.853 42.998z" opacity=".3" fill="#000" fill-opacity="1" stroke="#000" stroke-width=".047" stroke-opacity="1" filter="url(#filter8497)"/><path id="path8439" d="M43.904 140.89c.011 1.402.724 2.194.464 3.428-.811 3.743-2.52 7.516-3.893 10.784-.904 2.109-1.301 4.626-2.75 6.167-.312.174-2.86-.03-3.45-.442-.864-.011-1.719.024-2.275.215v.464c3.858 3.737 8.035 5.01 13.296 7.344-.73 3.795-4.562 6.326-6.428 9.177-.961 0-1.735-.064-2.285-.464-.527.098-.57.122-.917.238.093 3.371 2.904 6.236 5.726 6.88 1.894-2.121 4.261-3.14 7.106-4.346 2.601 2.712 3.354 6.584 4.356 10.987.435 1.924-.277 4.04.227 5.726.88 2.978 2.467 3.866 3.892 5.952h1.607c1.008-5.388-1.464-10.621-2.75-14.902-.376-1.825-.76-3.674-1.143-5.511-.956-1.57-2.838-1.974-4.13-3.202-.4-.134-.226-.041-.452-.227 2.954-1.53 6.095-3.22 9.165-4.582.823.915 4.642 4.593 5.963 3.892.232-.07.453-.14.68-.226-.076-1.298-.14-2.59-.227-3.893-2.891-2.885-7.147-5.274-11.926-6.178v.226h-.227c.539 1.582 2.299 3.093 3.678 3.893v.69c-2.717.394-5.125 1.712-7.57 2.535-1.675.539-3.697.46-5.058 1.358h-.68c.992-2.775 4.278-5.05 5.964-7.344 3.337-4.496 5.982-10.01 11.236-12.605-.139-2.115-6.238-6.49-8.486-5.047-.562.295-.163-.121-.453.453-.342.834.789 1.863.453 3.213-.44 1.767-4.805 10.083-5.952 11.01v.238c-2.364-.806-4.162-3.03-6.416-4.13.4-2.11 2.165-3.732 3.202-5.273 2.625-3.963 4.733-7.742 8.713-10.331-.035-3.048-4.958-6.225-8.26-6.167zm27.1 2.184a2.253 2.253 0 0 0-1.165.35c-.232.081-.459.134-.68.227 0 1.958.975 3.436.453 5.499-1.054 4.12-3.407 9.013-5.51 12.39-1.263 2.028-4.009 4.221-4.119 7.118 3.743-.371 4.64-4.236 7.547-5.285.846.783 1.678 1.55 2.524 2.297 1.199 1.802.98 4.505 1.607 6.869a6838.92 6838.92 0 0 1 3.202 14.902c.145 2.463.302 4.888.464 7.344.608 2.207 2.44 6.064 4.809 6.597.388.197.702.121 1.143-.226.805-.655.371-1.812.928-2.75 1.286-.921 3.558-.685 5.272-1.154 4.687-1.234 10.159-1.15 15.356-2.297 2.462-.54 6.528.926 8.475-.215.232-.093.476-.15.69-.25-.11-2.994-5.845-4.268-8.95-3.405-1.374.382-2.978 1.236-4.357 1.595a199.4 199.4 0 0 1-3.214.215c-.359-3.73-2.198-6.624-2.285-10.523 3.447-.075 7.765-.53 10.07-1.833-.046-1.159-.255-1.161-.678-1.822-2.625-.62-7.132-.723-9.177.679-.58-.023-.842-.023-1.132-.226-1.28-1.622-.674-4.933-1.833-6.642v-.917c2.468-.533 6.493-.971 7.785-2.75.18-.237.082-.064.226-.452-.208-.203-.29-.395-.452-.69-3.586-.904-5.144-.283-8.25.916-.967-3.1.2-5.553-2.975-6.416.678-1.176 2.937-1.131 4.356-1.607 2.213-.73 4.725-1.707 6.643-2.738.15-.394.046-.232.237-.464-.127-1.159-.458-1.12-.928-1.833-3.308-.255-5.948.066-7.796 1.833h-.441c.272-1.709 1.341-4.16 2.285-5.5.65-.938 1.846-.807 2.297-2.059h.227v-.248c-.47-.603-.912-1.226-1.37-1.822-1.077-.753-2.634-.82-3.666-1.607-1.523-.023-2.983-.023-3.892.453.122.88.516 1.433.69 2.059.632 2.364-1.643 9.672-2.523 10.772-.713.892-8.989 3.892-11.236 3.214-.533-.168-2.09-.946-2.524-1.38-.185-.227-.081-.054-.226-.453 3.25-3.053 5.586-9.852 10.082-11.225.081-.37.156-.766.238-1.143-.984-1.014-5.278-5.516-8.227-5.397zm8.928 20.639c.67-.04 1.18-.017 1.347.09 2.433 1.13 1.562 4.708 2.976 6.88-.481 1.124-6.07 2.82-7.797 2.976-.307-2.427-.71-7.386-2.297-8.701.274-.465 3.762-1.126 5.771-1.245zm4.775 9.946h.238c.44 2.086.686 5.67 1.833 7.344-.823 2.016-5.885 1.834-7.796 2.987-.8-.48-1.857-6.232-1.833-7.796 1.75-.162 6.29-1.672 7.558-2.535zm-26.58 10.082c-.463 1.982 4.405 6.411 5.952 7.581.77.58 1.8 1.897 2.976 1.358.603-.046.79-.104 1.154-.226.267-.608.667-1.388.227-2.048-.122-2.88-7.592-6.114-10.309-6.665zm29.33.226c.18 2.132 1.492 8.153 2.523 9.63.006.139 0 .313 0 .464-2.763.59-5.636 1.392-8.713 1.38-.475-3.267-2.042-6.147-2.06-9.63 3.518-.063 5.342-1.484 8.25-1.844zm-42.41 2.75c-.348.782-.308 2.05-.68 2.976-1.98 4.867-2.623 5.882.465 10.546 1.373 0 1.55-.215 2.285-.69.91-3.807 1.058-11.047-2.07-12.832z" opacity=".3" fill="#000" fill-opacity="1" stroke-width="5.793" filter="url(#filter8501)"/></g></g></svg>