<svg xmlns="http://www.w3.org/2000/svg" xmlns:xlink="http://www.w3.org/1999/xlink" width="48" height="48" version="1.1" id="svg38"><defs id="defs22"><linearGradient id="linearGradient4488"><stop id="stop4490" offset="0" stop-color="#000" stop-opacity=".047"/><stop id="stop4492" offset="1" stop-color="#000" stop-opacity="0"/></linearGradient><style id="style4511"/><style id="style4511-26"/><linearGradient id="linearGradient14664"><stop offset="0" id="stop14666" stop-color="#fff" stop-opacity="1"/><stop offset="1" id="stop14668" stop-color="#eeeeec" stop-opacity="1"/></linearGradient><style id="style4511-9"/><linearGradient gradientTransform="rotate(45 820.042 -190.615)" x2="378.58" gradientUnits="userSpaceOnUse" y2="523.86" x1="430.51" y1="522.99" id="b-3-7"><stop id="stop7-67" stop-color="#fcfcfc"/><stop id="stop9-53" stop-color="#e9eaeb" offset="1"/></linearGradient><linearGradient gradientUnits="userSpaceOnUse" x2="19.574" y2="22.495" x1="3.783" y1="23.644" id="g-5"><stop id="stop24-2" stop-color="#2980b9"/><stop id="stop26" stop-color="#34495e" offset="1"/></linearGradient><style id="style4552"/><style id="style4511-2"/><linearGradient xlink:href="#linearGradient4488" id="linearGradient4546" gradientUnits="userSpaceOnUse" gradientTransform="matrix(.3038 0 0 .30687 -62.641 2.42)" x1="288.112" y1="141.785" x2="287.575" y2="79.008"/><linearGradient xlink:href="#g-5" id="linearGradient1263" x1="2.974" y1="23.586" x2="45.221" y2="23.586" gradientUnits="userSpaceOnUse" gradientTransform="matrix(0 1.0101 -1 0 47.54 -.11)"/><linearGradient xlink:href="#linearGradient14664" id="linearGradient4893" x1="14.704" y1="22.976" x2="32.037" y2="22.976" gradientUnits="userSpaceOnUse" gradientTransform="matrix(1 0 0 1.0101 1.726 -.888)"/><linearGradient xlink:href="#b-3-7" id="linearGradient4901" x1="7.934" y1="27.127" x2="30.088" y2="27.127" gradientUnits="userSpaceOnUse" gradientTransform="matrix(1 0 0 1.0101 1.726 -.888)"/></defs><style id="style4485" type="text/css"/><path d="M2.997 26.892v1.685c0 9.671 5.584 17.457 17.146 17.457h6.93c15.133 0 17.837-11.437 17.837-17.457v-1.685c0 6.02-2.704 17.457-17.836 17.457h-6.93c-11.563 0-17.147-7.786-17.147-17.457z" id="path4528" opacity="1" fill="url(#linearGradient4546)" fill-opacity="1" stroke="none" stroke-width="1.106" stroke-linecap="square" stroke-linejoin="bevel" stroke-miterlimit="4" stroke-dasharray="none" stroke-dashoffset="0" stroke-opacity=".078"/><path d="M44.797 19.844v8.58c0 14.049-11.246 16.975-17.282 16.975h-7.123c-5.96 0-17.282-2.732-17.282-18.017v-7c0-11.68 7.708-17.32 17.282-17.32h7.123c9.575 0 17.282 5.526 17.282 16.782z" id="path4530" opacity="1" fill="url(#linearGradient1263)" fill-opacity="1" stroke="#000" stroke-width=".336" stroke-linecap="square" stroke-linejoin="bevel" stroke-miterlimit="4" stroke-dasharray="none" stroke-dashoffset="0" stroke-opacity=".078"/><path d="M12.836 13.521a17.135 19.265 60.038 0 0 .918 20.688 17.135 19.265 60.038 0 0 18.06 4.585 19.866 21.734 63.852 0 1-15.216-6.265 19.866 21.734 63.852 0 1-3.762-19.008z" id="path4861" fill="url(#linearGradient4901)" fill-opacity="1" stroke-width="2.688"/><path d="M19.247 11.786a13.67 15.405 63.035 0 0 .186 16.498 13.67 15.405 63.035 0 0 14.33 4.138 15.845 17.384 67.055 0 1-12.01-5.4 15.845 17.384 67.055 0 1-2.506-15.236z" id="path4861-6" fill="url(#linearGradient4893)" fill-opacity="1" stroke-width="2.147"/></svg>