<svg xmlns:osb="http://www.openswatchbook.org/uri/2009/osb" xmlns="http://www.w3.org/2000/svg" xmlns:xlink="http://www.w3.org/1999/xlink" width="48" height="48" version="1.1" id="svg38"><defs id="defs22"><linearGradient id="linearGradient4488"><stop id="stop4490" offset="0" stop-color="#000" stop-opacity=".047"/><stop id="stop4492" offset="1" stop-color="#000" stop-opacity="0"/></linearGradient><style id="style4511"/><style id="style4511-26"/><style id="style4511-9"/><style id="style4552"/><style id="style4511-2"/><linearGradient xlink:href="#linearGradient4488" id="linearGradient4540" gradientUnits="userSpaceOnUse" gradientTransform="matrix(0 .30902 -.3038 0 46.114 -64.042)" x1="288.112" y1="141.785" x2="287.575" y2="79.008"/><linearGradient osb:paint="solid" id="linearGradient5293"><stop id="stop5295" offset="0" stop-color="#9a89c0" stop-opacity="1"/></linearGradient><style id="style4511-87920237"/><style id="style4511-26-443"/><style id="style4511-9-5"/><style id="style4552-09"/><style id="style4511-2-0"/><linearGradient id="linearGradient4390" osb:paint="solid"><stop offset="0" id="stop4388" stop-color="#000" stop-opacity="1"/></linearGradient><linearGradient id="linearGradient4300" osb:paint="solid"><stop offset="0" id="stop4298" stop-color="#9f007b" stop-opacity="1"/></linearGradient><style id="style4511-879202"/><linearGradient id="d-78" y1="1050.34" y2="1038.36" gradientUnits="userSpaceOnUse" x2="0" gradientTransform="matrix(-2.83522 0 0 2.83875 47.655 -1933.28)"><stop stop-color="#c61423" id="stop17-4"/><stop offset="1" stop-color="#dc2b41" id="stop19-50"/></linearGradient><style id="style4511-26-47"/><style id="style4511-9-17"/><style id="style4552-4"/><style id="style4511-2-4"/><style id="style4511-879"/><style id="style4511-26-65"/><style id="style4511-9-2"/><style id="style4552-89"/><style id="style4511-2-1"/><style id="style4511-8"/><style id="style4511-26-4"/><style id="style4511-9-7"/><style id="style4552-3"/><style id="style4511-2-8"/><style id="style4552-7"/><style id="style4552-6"/><style id="style4552-73"/><style id="style4552-2"/><linearGradient id="linearGradient5251" osb:paint="solid"><stop offset="0" id="stop5253" stop-color="#2f343f" stop-opacity="1"/></linearGradient><style id="style4511-87"/><style id="style4511-26-6"/><style id="style4511-9-1"/><style id="style4552-8"/><style id="style4511-2-5"/><style id="style4511-8792"/><style id="style4511-26-3"/><style id="style4511-9-0"/><style id="style4552-86"/><style id="style4511-2-84"/><style id="style4511-8-6"/><style id="style4511-26-4-3"/><style id="style4511-9-7-8"/><style id="style4552-3-7"/><style id="style4511-2-8-9"/><style id="style4552-7-5"/><style id="style4552-6-87"/><style id="style4552-73-3"/><style id="style4552-2-1"/><style id="style4511-87-0"/><style id="style4511-26-6-5"/><style id="style4511-9-1-3"/><style id="style4552-8-8"/><style id="style4511-2-5-3"/><style id="style4511-879-4"/><style id="style4511-26-65-7"/><style id="style4511-9-2-0"/><style id="style4552-89-8"/><style id="style4511-2-1-9"/><style id="style4511-8-0"/><style id="style4511-26-4-0"/><style id="style4511-9-7-9"/><style id="style4552-3-4"/><style id="style4511-2-8-7"/><style id="style4552-7-4"/><style id="style4552-6-8"/><style id="style4552-73-7"/><style id="style4552-2-2"/><style id="style4511-87-2"/><style id="style4511-26-6-4"/><style id="style4511-9-1-7"/><style id="style4552-8-9"/><style id="style4511-2-5-0"/><style id="style4511-87920"/><style id="style4511-26-45"/><style id="style4511-9-9"/><style id="style4552-0"/><style id="style4511-2-9"/><style id="style4511-8792023"/><style id="style4511-26-44"/><style id="style4511-9-71"/><style id="style4552-43"/><style id="style4511-2-96"/><linearGradient id="linearGradient903"><stop id="stop897" offset="0" stop-color="#d3d3d3" stop-opacity="1"/><stop id="stop901" offset="1" stop-color="#bfbfbf" stop-opacity="1"/></linearGradient><filter height="1.212" y="-.106" width="2.198" x="-.599" id="filter887" color-interpolation-filters="sRGB"><feGaussianBlur id="feGaussianBlur889" stdDeviation="2.03"/></filter><linearGradient xlink:href="#linearGradient903" id="linearGradient5258" x1="2.63" y1="24.041" x2="45.6" y2="24.041" gradientUnits="userSpaceOnUse"/><radialGradient xlink:href="#d-78" id="radialGradient5264" cx="24.064" cy="34.981" fx="24.064" fy="34.981" r="21.317" gradientTransform="matrix(1 0 0 .48369 0 18.06)" gradientUnits="userSpaceOnUse"/></defs><style id="style4485" type="text/css"/><style type="text/css" id="style4485-8"/><style id="style4485-039" type="text/css"/><style type="text/css" id="style4485-34"/><style id="style4485-0" type="text/css"/><style type="text/css" id="style4485-4"/><style type="text/css" id="style4485-5"/><style type="text/css" id="style4485-3"/><style type="text/css" id="style4485-5-1"/><style id="style4485-1" type="text/css"/><style type="text/css" id="style4485-33"/><style id="style4485-0-7" type="text/css"/><style type="text/css" id="style4485-4-9"/><style type="text/css" id="style4485-5-4"/><style type="text/css" id="style4485-3-9"/><style type="text/css" id="style4485-5-1-9"/><style id="style4485-1-5" type="text/css"/><style id="style4485-51" type="text/css"/><style type="text/css" id="style4485-0-9"/><style id="style4485-4-7" type="text/css"/><style id="style4485-5-13" type="text/css"/><style id="style4485-3-1" type="text/css"/><style id="style4485-5-1-2" type="text/css"/><style type="text/css" id="style4485-1-6"/><style type="text/css" id="style4485-03"/><style id="style4485-6" type="text/css"/><path id="path4516" d="M21.887 2.725H20.22c-9.574 0-17.282 5.68-17.282 17.44v7.05c0 15.392 11.322 18.143 17.282 18.143h1.668c-5.96 0-17.282-2.75-17.282-18.143v-7.05c0-11.76 7.708-17.44 17.282-17.44z" opacity="1" fill="url(#linearGradient4540)" fill-opacity="1" stroke="none" stroke-width="1.109" stroke-linecap="square" stroke-linejoin="bevel" stroke-miterlimit="4" stroke-dasharray="none" stroke-dashoffset="0" stroke-opacity=".078"/><path id="path4518" d="M19.698 2.793h8.64c14.146 0 17.092 11.465 17.092 17.618v7.261c0 6.076-2.75 17.618-18.142 17.618H20.24C8.48 45.29 2.8 37.433 2.8 27.672v-7.261c0-9.76 5.564-17.618 16.898-17.618z" opacity="1" fill="url(#linearGradient5258)" fill-opacity="1" stroke="#000" stroke-width=".34" stroke-linecap="square" stroke-linejoin="bevel" stroke-miterlimit="4" stroke-dasharray="none" stroke-dashoffset="0" stroke-opacity=".078"/><path d="M4.61 25.204c-.55-.243-1.264-.332-1.81-.182l-.052 3.267c-.019 1.205.255 3.107.453 4.289.038.585.48 1.583.642 2.072.169.5.274.747.434 1.155.165.419.266.621.465 1.036.172.38.377.673.569 1.01.195.316.403.61.615.894.213.278.386.59.673.912.277.324.49.582.786.879.313.192.732.681 1.038.94.26.218.91.734 1.286 1.017.273.181 1.26.732 1.745.988.467.226 1.471.658 1.985.849.79.29 1.883.511 2.527.612.781.135 2.35.337 3.6.338l10.168.011c1.648.002 3.059-.377 4.007-.772a55.244 55.244 0 0 1 1.913-.606c.525-.207.59-.25.99-.432.545-.268 1.306-.732 1.732-1.004.432-.272 1.02-.756 1.407-1.088.338-.278.637-.542.919-.86.322-.344.67-.675.83-.872.267-.291.46-.628.672-.912.212-.284.4-.593.569-.93.167-.336.408-.59.603-.959.195-.38.356-.75.532-1.164.176-.41.36-.84.517-1.329.13-.478.316-.92.448-1.484.22-1.034.286-1.37.382-2.225l.126-1.124c-3.41-4.172-6.774-5.277-10.746-4.73-4.67.982-8.14 4.294-13.453 4.532-5.957.267-8.241-.557-12.144-2.067z" id="path1645" fill="url(#radialGradient5264)" fill-opacity="1" stroke-width=".722"/><path style="line-height:normal;font-variant-ligatures:normal;font-variant-position:normal;font-variant-caps:normal;font-variant-numeric:normal;font-variant-alternates:normal;font-feature-settings:normal;text-indent:0;text-align:start;text-decoration-line:none;text-decoration-style:solid;text-decoration-color:#000;text-transform:none;text-orientation:mixed;white-space:normal;shape-padding:0;isolation:auto;mix-blend-mode:normal;solid-color:#000;solid-opacity:1" d="M16.187 239.18a22.536 22.536 0 0 0-2.236 3.443c-2.652 4.981-4.262 11.78-4.262 19.284 0 7.503 1.61 14.304 4.262 19.285.8 1.5 1.7 2.84 2.686 3.984l1.184-.732c-.959-1.083-1.851-2.39-2.655-3.899-2.516-4.724-4.102-11.333-4.102-18.638 0-7.306 1.586-13.913 4.102-18.637a21.328 21.328 0 0 1 2.032-3.155l-1.01-.935z" id="path852" transform="matrix(.65546 0 0 .68084 .28 -154.088)" color="#000" font-style="normal" font-variant="normal" font-weight="400" font-stretch="normal" font-size="medium" font-family="sans-serif" text-decoration="none" letter-spacing="normal" word-spacing="normal" writing-mode="lr-tb" direction="ltr" dominant-baseline="auto" baseline-shift="baseline" text-anchor="start" clip-rule="nonzero" display="inline" overflow="visible" visibility="visible" opacity=".87" color-interpolation="sRGB" color-interpolation-filters="linearRGB" vector-effect="none" fill="#fff" fill-opacity="1" fill-rule="nonzero" stroke="none" stroke-width="1.376" stroke-linecap="butt" stroke-linejoin="miter" stroke-miterlimit="4" stroke-dasharray="none" stroke-dashoffset="0" stroke-opacity="1" filter="url(#filter887)" color-rendering="auto" image-rendering="auto" shape-rendering="auto" text-rendering="auto" enable-background="accumulate"/><path id="path4518-5" d="M19.698 2.97h8.64c14.146 0 17.092 11.465 17.092 17.617v7.262c0 6.075-2.75 17.618-18.142 17.618H20.24C8.48 45.467 2.8 37.61 2.8 27.85v-7.262c0-9.76 5.564-17.618 16.898-17.618z" opacity="1" fill="#b13333" fill-opacity=".161" stroke="#000" stroke-width=".34" stroke-linecap="square" stroke-linejoin="bevel" stroke-miterlimit="4" stroke-dasharray="none" stroke-dashoffset="0" stroke-opacity=".078"/><g id="g5271" transform="matrix(.3486 0 0 .27388 47.654 40.298)" fill="#f2f2f2" color="#000" fill-opacity="1"><path id="path916" overflow="visible" display="block" d="M-27.433-79.878c-.367.173-3.274-4.818-3.663-4.922-.388-.102-4.969 2.903-5.23 2.56-.26-.339 3.058-4.994 3.025-5.442-.033-.448-3.987-4.425-3.779-4.81.208-.383 5.165 1.732 5.533 1.557.368-.173 2.506-5.636 2.894-5.533.389.103.134 6.067.395 6.406.26.341 5.535.942 5.567 1.39.033.449-5.081 2.018-5.288 2.402-.207.385.915 6.218.546 6.392z" style="isolation:auto;mix-blend-mode:normal;marker:none" stroke-width=".394" enable-background="accumulate"/><path id="path920" overflow="visible" display="block" style="isolation:auto;mix-blend-mode:normal;marker:none" d="M-87.373-63.808c-.662.746-10.906-7.178-11.83-7.013-.925.165-8.494 11.265-9.327 10.787-.833-.478 2.694-13.897 2.268-14.837-.424-.939-12.139-5.614-11.992-6.653.146-1.042 12.57-1.41 13.232-2.156.662-.745.99-14.735 1.915-14.899.924-.165 5.075 13.025 5.909 13.504.833.478 12.75-3.493 13.176-2.554.424.939-9.434 9.46-9.58 10.5-.147 1.041 6.89 12.576 6.229 13.321z" stroke-width="1.181" enable-background="accumulate"/><path id="path924" overflow="visible" display="block" style="isolation:auto;mix-blend-mode:normal;marker:none" d="M-52.122-64.808c-.36.419-6.075-3.843-6.584-3.743-.508.101-4.59 6.304-5.053 6.05-.465-.256 1.369-7.695 1.127-8.208-.243-.514-6.743-2.967-6.671-3.544.072-.573 6.922-.911 7.28-1.327.36-.419.422-8.139.93-8.24.51-.1 2.91 7.132 3.374 7.386.464.255 7.004-2.062 7.246-1.548.242.513-5.124 5.318-5.196 5.893-.073.576 3.906 6.863 3.547 7.281z" stroke-width=".394" enable-background="accumulate"/></g></svg>