<svg xmlns:osb="http://www.openswatchbook.org/uri/2009/osb" xmlns="http://www.w3.org/2000/svg" xmlns:xlink="http://www.w3.org/1999/xlink" width="48" height="48" version="1.1" id="svg38"><defs id="defs22"><linearGradient id="linearGradient4488"><stop id="stop4490" offset="0" stop-color="#000" stop-opacity=".047"/><stop id="stop4492" offset="1" stop-color="#000" stop-opacity="0"/></linearGradient><style id="style4511"/><style id="style4511-26"/><style id="style4511-9"/><linearGradient id="linearGradient4217"><stop id="stop12-5" offset="0" stop-color="#1f93b9" stop-opacity="1"/><stop id="stop14-5" offset="1" stop-color="#1a5c9b" stop-opacity="1"/></linearGradient><style id="style4552"/><style id="style4511-2"/><linearGradient xlink:href="#linearGradient4488" id="linearGradient4540" gradientUnits="userSpaceOnUse" gradientTransform="matrix(.3038 0 0 .30593 -62.889 2.276)" x1="288.112" y1="141.785" x2="287.575" y2="79.008"/><linearGradient osb:paint="solid" id="linearGradient5293"><stop id="stop5295" offset="0" stop-color="#9a89c0" stop-opacity="1"/></linearGradient><linearGradient gradientTransform="rotate(-90 24 24) scale(3.5433)" x2="13.547" x1="0" gradientUnits="userSpaceOnUse" id="linear0"><stop id="stop14-60" stop-opacity="1" stop-color="#008ef3"/><stop id="stop16-62" stop-opacity="1" stop-color="#00d4ff" offset="1"/></linearGradient><linearGradient xlink:href="#linear0" id="linearGradient1636" x1="-33.575" y1="-27.42" x2="-14.244" y2="-27.42" gradientUnits="userSpaceOnUse" gradientTransform="matrix(.92573 0 0 .91263 -1.776 -2.091)"/><linearGradient xlink:href="#linearGradient4217" id="linearGradient1463" x1="4.393" y1="23.959" x2="43.308" y2="23.959" gradientUnits="userSpaceOnUse"/></defs><style id="style4485" type="text/css"/><rect id="Mask" x="63.147" y="78.204" width="20.231" height="20.096" rx=".581" fill="#f1f1f1" fill-opacity="1" fill-rule="evenodd" stroke="none" stroke-width=".336"/><path id="path4516" d="M2.75 26.673v1.68c0 9.641 5.583 17.403 17.146 17.403h6.93c15.132 0 17.836-11.402 17.836-17.403v-1.68c0 6.001-2.704 17.403-17.836 17.403h-6.93c-11.563 0-17.146-7.762-17.146-17.403z" opacity="1" fill="url(#linearGradient4540)" fill-opacity="1" stroke="none" stroke-width="1.104" stroke-linecap="square" stroke-linejoin="bevel" stroke-miterlimit="4" stroke-dasharray="none" stroke-dashoffset="0" stroke-opacity=".078"/><path id="path4518" d="M19.363 3.03h8.495c13.908 0 16.804 11.326 16.804 17.403v7.173c0 6.002-2.704 17.404-17.836 17.404h-6.93C8.333 45.01 2.75 37.248 2.75 27.606v-7.173c0-9.641 5.47-17.403 16.613-17.403z" opacity="1" fill="#e6e6e6" fill-opacity="1" stroke="#000" stroke-width=".335" stroke-linecap="square" stroke-linejoin="bevel" stroke-miterlimit="4" stroke-dasharray="none" stroke-dashoffset="0" stroke-opacity=".078"/><path id="path4518-0" d="M19.85 4.476h7.824c12.81 0 15.479 10.513 15.479 16.154v6.658c0 5.57-2.49 16.154-16.43 16.154h-6.382c-10.65 0-15.793-7.205-15.793-16.154V20.63c0-8.95 5.038-16.154 15.302-16.154z" opacity="1" fill="url(#linearGradient1463)" fill-opacity="1" stroke="#000" stroke-width=".31" stroke-linecap="square" stroke-linejoin="bevel" stroke-miterlimit="4" stroke-dasharray="none" stroke-dashoffset="0" stroke-opacity=".078"/><path stroke-miterlimit="2.013" id="shape0" transform="rotate(-179.928) skewX(-.035)" fill="#c4cbcf" fill-rule="evenodd" stroke="#003bc3" stroke-width="0" stroke-linecap="square" stroke-linejoin="miter" d="M-29.402-17.73h5.695v6.563h-5.695z"/><path stroke-miterlimit="2" id="shape1" transform="rotate(-179.928) skewX(-.035)" fill="#a8b2b8" fill-rule="evenodd" stroke="#003bc3" stroke-width="0" stroke-linecap="square" stroke-linejoin="miter" d="M-23.707-17.73h5.695v6.563h-5.695z"/><path stroke-miterlimit="2.013" id="shape3" transform="rotate(-179.928) skewX(-.035)" fill="#4d4d4d" fill-rule="evenodd" stroke="#003bc3" stroke-width="0" stroke-linecap="square" stroke-linejoin="miter" d="M-28.074-13.896h3v1.092h-3z"/><path stroke-miterlimit="2" id="shape4" transform="rotate(-179.928) skewX(-.035)" fill="#4d4d4d" fill-rule="evenodd" stroke="#003bc3" stroke-width="0" stroke-linecap="square" stroke-linejoin="miter" d="M-22.157-13.896h3.02v1.092h-3.02z"/><rect y="-36.698" x="-32.857" ry="2.51" rx="4.634" height="19.164" width="17.895" stroke-miterlimit="2.013" id="shape2" transform="rotate(-179.938) skewX(-.063)" fill="url(#linearGradient1636)" fill-opacity="1" fill-rule="evenodd" stroke="#003bc3" stroke-width="0" stroke-linecap="square" stroke-linejoin="miter"/><g id="g1500" transform="matrix(.88324 0 0 1.01223 3.04 -5.012)" fill="#f9f9f9" fill-opacity="1" fill-rule="nonzero" stroke="none" stroke-width="1.049"><path d="M18.312 35.872l.006-3.7 4.72.007-.006 3.7m-4.72-.007" id="path57"/><path d="M28.801 35.888l-4.72-.007.006-3.7 4.72.007m-.006 3.7" id="path59"/><path d="M24.088 31.35l.006-3.7 4.72.007-.005 3.7m-4.72-.007" id="path61"/><path d="M23.03 31.349l-4.721-.007.006-3.7 4.72.007m-.006 3.7" id="path63"/></g></svg>