<svg xmlns:osb="http://www.openswatchbook.org/uri/2009/osb" xmlns="http://www.w3.org/2000/svg" xmlns:xlink="http://www.w3.org/1999/xlink" width="48" height="48" version="1.1" id="svg38"><defs id="defs22"><linearGradient y2="113" x2="64" y1="3" x1="64" gradientUnits="userSpaceOnUse" id="linearGradient4246"><stop id="stop1897" offset="0" stop-color="#29abe2"/><stop id="stop1899" offset=".476" stop-color="#28a9e1"/><stop id="stop1901" offset=".664" stop-color="#23a2dc"/><stop id="stop1903" offset=".801" stop-color="#1a96d4"/><stop id="stop1905" offset=".913" stop-color="#0e85c9"/><stop id="stop1907" offset="1" stop-color="#0071bc"/></linearGradient><linearGradient id="linearGradient4488"><stop id="stop4490" offset="0" stop-color="#000" stop-opacity=".047"/><stop id="stop4492" offset="1" stop-color="#000" stop-opacity="0"/></linearGradient><style id="style4511"/><style id="style4511-26"/><style id="style4511-9"/><linearGradient gradientUnits="userSpaceOnUse" x2="19.574" y2="22.495" x1="3.783" y1="23.644" id="g-5"><stop id="stop24-2" stop-color="#2980b9"/><stop id="stop26" stop-color="#34495e" offset="1"/></linearGradient><style id="style4552"/><style id="style4511-2"/><linearGradient xlink:href="#linearGradient4488" id="linearGradient4540" gradientUnits="userSpaceOnUse" gradientTransform="rotate(.202 -417.044 -16585.248) scale(.3038)" x1="288.112" y1="141.785" x2="287.575" y2="79.008"/><linearGradient osb:paint="solid" id="linearGradient5293"><stop id="stop5295" offset="0" stop-color="#9a89c0" stop-opacity="1"/></linearGradient><style id="style4511-87"/><style id="style4511-26-7"/><style id="style4511-9-1"/><style id="style4552-53"/><style id="style4511-2-9"/><style id="style4511-8"/><style id="style4511-26-4"/><style id="style4511-9-8"/><style id="style4552-5"/><style id="style4511-2-5"/><linearGradient gradientTransform="rotate(-90 -6.993 55.55)" gradientUnits="userSpaceOnUse" x2="47" x1="1" id="linearGradient3764-3-0"><stop id="stop2-67-5" stop-opacity="1" stop-color="#e4e4e4"/><stop id="stop4-535-6" stop-opacity="1" stop-color="#eee" offset="1"/></linearGradient><linearGradient xlink:href="#linearGradient4246" id="linearGradient1916" x1="2.995" y1="13.359" x2="45.257" y2="13.359" gradientUnits="userSpaceOnUse"/><linearGradient xlink:href="#g-5" id="linearGradient1924" x1="2.984" y1="34.853" x2="45.241" y2="34.853" gradientUnits="userSpaceOnUse"/><linearGradient xlink:href="#linearGradient3764-3-0" id="linearGradient1738" x1="3.16" y1="16.01" x2="45.093" y2="16.01" gradientUnits="userSpaceOnUse"/></defs><style id="style4485" type="text/css"/><style type="text/css" id="style4485-7"/><style id="style4485-6" type="text/css"/><g id="g1738" transform="translate(.25)"><g transform="matrix(1.01784 0 0 .99416 -.805 .266)" id="g1744" fill-opacity="1" stroke-miterlimit="4" stroke-dasharray="none"><path id="path4516" d="M3.154 25.94l-.006 1.668c-.036 9.575 5.518 17.303 17.08 17.347l6.931.026c15.132.057 17.879-11.255 17.901-17.215l.007-1.669c-.023 5.96-2.77 17.272-17.902 17.215l-6.93-.026C8.673 43.243 3.118 35.514 3.155 25.94z" opacity="1" fill="url(#linearGradient4540)" stroke="none" stroke-width="1.1" stroke-linecap="square" stroke-linejoin="bevel" stroke-dashoffset="0" stroke-opacity=".078"/><path d="M19.856 2.524C8.713 2.482 3.214 10.17 3.178 19.743l-.016 4.293 41.911.157.017-4.293c.022-6.035-2.832-17.292-16.74-17.344z" id="path4518" opacity="1" fill="url(#linearGradient1916)" stroke="#000" stroke-width=".334" stroke-linecap="square" stroke-linejoin="bevel" stroke-dashoffset="0" stroke-opacity=".078"/><path d="M28.408 45.671c11.143.027 16.632-7.667 16.655-17.24l.01-4.294-41.911-.101-.01 4.293c-.015 6.035 2.854 17.288 16.762 17.322z" id="path4518-7" opacity="1" fill="url(#linearGradient1924)" stroke="#000" stroke-width=".334" stroke-linecap="square" stroke-linejoin="bevel" stroke-dashoffset="0" stroke-opacity=".078"/><path d="M3.16 24.3h10.659s1.72-16.355 20.856-16.58c-6.173 7.209-.387 16.582-.387 16.582h10.805" id="path1591" fill="#ececec" fill-rule="evenodd" stroke="url(#linearGradient1738)" stroke-width="1.689" stroke-linecap="butt" stroke-linejoin="round" stroke-opacity="1"/></g></g></svg>