<svg xmlns:osb="http://www.openswatchbook.org/uri/2009/osb" xmlns="http://www.w3.org/2000/svg" xmlns:xlink="http://www.w3.org/1999/xlink" width="48" height="48" version="1.1" id="svg38"><defs id="defs22"><linearGradient id="linearGradient4488"><stop id="stop4490" offset="0" stop-color="#000" stop-opacity=".047"/><stop id="stop4492" offset="1" stop-color="#000" stop-opacity="0"/></linearGradient><style id="style4511"/><style id="style4511-26"/><style id="style4511-9"/><linearGradient id="linearGradient4217"><stop id="stop12-5" offset="0" stop-color="#1f93b9" stop-opacity="1"/><stop id="stop14-5" offset="1" stop-color="#1a5c9b" stop-opacity="1"/></linearGradient><style id="style4552"/><style id="style4511-2"/><linearGradient xlink:href="#linearGradient4488" id="linearGradient4540" gradientUnits="userSpaceOnUse" gradientTransform="matrix(.30893 0 0 .30737 -63.995 2.274)" x1="288.112" y1="141.785" x2="287.575" y2="79.008"/><linearGradient osb:paint="solid" id="linearGradient5293"><stop id="stop5295" offset="0" stop-color="#9a89c0" stop-opacity="1"/></linearGradient><linearGradient gradientTransform="rotate(-90 24 24) scale(3.5433)" x2="13.547" x1="0" gradientUnits="userSpaceOnUse" id="linear0"><stop id="stop14-60" stop-opacity="1" stop-color="#008ef3"/><stop id="stop16-62" stop-opacity="1" stop-color="#00d4ff" offset="1"/></linearGradient><linearGradient xlink:href="#linear0" id="linearGradient1636" x1="-33.575" y1="-27.42" x2="-14.244" y2="-27.42" gradientUnits="userSpaceOnUse" gradientTransform="matrix(.94136 0 0 .91693 -1.762 -2.089)"/><linearGradient xlink:href="#linearGradient4217" id="linearGradient1463" x1="4.393" y1="23.959" x2="43.308" y2="23.959" gradientUnits="userSpaceOnUse" gradientTransform="matrix(1.01688 0 0 1.0047 -.044 -.013)"/></defs><style id="style4485" type="text/css"/><rect id="Mask" x="63.147" y="78.204" width="20.231" height="20.096" rx=".581" fill="#f1f1f1" fill-opacity="1" fill-rule="evenodd" stroke="none" stroke-width=".336"/><g id="g1463" transform="matrix(1.00946 0 0 1.0118 -.33 -.136)"><path d="M2.752 26.786v1.688c0 9.687 5.677 17.485 17.435 17.485h7.048c15.387 0 18.137-11.456 18.137-17.485v-1.688c0 6.03-2.75 17.485-18.137 17.485h-7.048c-11.758 0-17.435-7.799-17.435-17.485z" id="path4516" opacity="1" fill="url(#linearGradient4540)" fill-opacity="1" stroke="none" stroke-width="1.116" stroke-linecap="square" stroke-linejoin="bevel" stroke-miterlimit="4" stroke-dasharray="none" stroke-dashoffset="0" stroke-opacity=".078"/><path d="M19.646 3.031h8.638c14.143 0 17.088 11.38 17.088 17.486v7.207c0 6.03-2.75 17.485-18.137 17.485h-7.048c-11.757 0-17.435-7.799-17.435-17.485v-7.207c0-9.687 5.563-17.486 16.894-17.486z" id="path4518" opacity="1" fill="#e6e6e6" fill-opacity="1" stroke="#000" stroke-width=".339" stroke-linecap="square" stroke-linejoin="bevel" stroke-miterlimit="4" stroke-dasharray="none" stroke-dashoffset="0" stroke-opacity=".078"/><path d="M20.14 4.485h7.957c13.027 0 15.74 10.562 15.74 16.23v6.689c0 5.597-2.533 16.23-16.706 16.23H20.64c-10.83 0-16.06-7.239-16.06-16.23v-6.69c0-8.99 5.124-16.23 15.56-16.23z" id="path4518-0" opacity="1" fill="url(#linearGradient1463)" fill-opacity="1" stroke="#000" stroke-width=".313" stroke-linecap="square" stroke-linejoin="bevel" stroke-miterlimit="4" stroke-dasharray="none" stroke-dashoffset="0" stroke-opacity=".078"/><path transform="rotate(-179.928) skewX(-.037)" id="shape0" stroke-miterlimit="2.013" fill="#c4cbcf" fill-rule="evenodd" stroke="#003bc3" stroke-width="0" stroke-linecap="square" stroke-linejoin="miter" d="M-29.854-17.801h5.791v6.594h-5.791z"/><path transform="rotate(-179.928) skewX(-.037)" id="shape1" stroke-miterlimit="2" fill="#a8b2b8" fill-rule="evenodd" stroke="#003bc3" stroke-width="0" stroke-linecap="square" stroke-linejoin="miter" d="M-24.063-17.801h5.791v6.594h-5.791z"/><path transform="rotate(-179.928) skewX(-.037)" id="shape3" stroke-miterlimit="2.013" fill="#4d4d4d" fill-rule="evenodd" stroke="#003bc3" stroke-width="0" stroke-linecap="square" stroke-linejoin="miter" d="M-28.504-13.949h3.05v1.097h-3.05z"/><path transform="rotate(-179.928) skewX(-.037)" id="shape4" stroke-miterlimit="2" fill="#4d4d4d" fill-rule="evenodd" stroke="#003bc3" stroke-width="0" stroke-linecap="square" stroke-linejoin="miter" d="M-22.487-13.949h3.071v1.097h-3.071z"/><rect transform="rotate(-179.939) skewX(-.066)" id="shape2" stroke-miterlimit="2.013" width="18.197" height="19.254" rx="4.712" ry="2.522" x="-33.367" y="-36.858" fill="url(#linearGradient1636)" fill-opacity="1" fill-rule="evenodd" stroke="#003bc3" stroke-width="0" stroke-linecap="square" stroke-linejoin="miter"/><g transform="matrix(.89816 0 0 1.017 3.046 -5.048)" id="g1500" fill="#f9f9f9" fill-opacity="1" fill-rule="nonzero" stroke="none" stroke-width="1.049"><path id="path57" d="M18.312 35.872l.006-3.7 4.72.007-.006 3.7m-4.72-.007"/><path id="path59" d="M28.801 35.888l-4.72-.007.006-3.7 4.72.007m-.006 3.7"/><path id="path61" d="M24.088 31.35l.006-3.7 4.72.007-.005 3.7m-4.72-.007"/><path id="path63" d="M23.03 31.349l-4.721-.007.006-3.7 4.72.007m-.006 3.7"/></g></g></svg>