<svg xmlns="http://www.w3.org/2000/svg" xmlns:xlink="http://www.w3.org/1999/xlink" width="48" height="48" version="1.1" id="svg38"><defs id="defs22"><style id="style4511"/><style id="style4511-26"/><style id="style4511-9"/><style id="style4552"/><style id="style4511-2"/><linearGradient gradientTransform="translate(7 4)" gradientUnits="userSpaceOnUse" x2="21" y2="32" x1="8" y1="4" id="g-3"><stop id="stop32" stop-color="#bdc3c7"/><stop id="stop34" stop-color="#7f8c8d" offset="1"/></linearGradient><linearGradient gradientTransform="matrix(5 0 0 6.25 57.465 -10.718)" gradientUnits="userSpaceOnUse" x2="19" y2="33" x1="27" y1="44" id="a-6"><stop id="stop2-2" stop-color="#18222a"/><stop id="stop4-912" stop-color="#566069" offset="1"/></linearGradient><linearGradient xlink:href="#g-3" id="linearGradient530" gradientUnits="userSpaceOnUse" gradientTransform="matrix(.8867 0 0 .68926 13.835 16.956)" x1="8" y1="4" x2="21" y2="32"/><linearGradient xlink:href="#a-6" id="linearGradient534" gradientUnits="userSpaceOnUse" gradientTransform="matrix(.8867 0 0 .86158 3.195 10.063)" x1="27" y1="44" x2="19" y2="33"/></defs><style id="style4485" type="text/css"/><path d="M19.046 2.965h8.495c13.908 0 16.805 11.246 16.805 17.282v7.123c0 5.96-2.704 17.282-17.837 17.282h-6.93c-11.562 0-17.146-7.708-17.146-17.282v-7.123c0-9.575 5.47-17.282 16.613-17.282z" id="rect4144" opacity="1" fill="#e6e6e6" fill-opacity="1" stroke="#000" stroke-width=".334" stroke-linecap="square" stroke-linejoin="bevel" stroke-miterlimit="4" stroke-dasharray="none" stroke-dashoffset="0" stroke-opacity=".078"/><path id="path14979" d="M7.78 14.968v-1.373h26.59v1.373z" style="marker:none" color="#000" display="inline" overflow="visible" visibility="visible" opacity="1" fill="#b3b3b3" fill-opacity=".996" fill-rule="nonzero" stroke="none" stroke-width=".533"/><path id="path4235" d="M23.955 17.714v-1.373h14.582v1.373z" style="marker:none" color="#000" display="inline" overflow="visible" visibility="visible" opacity="1" fill="#b3b3b3" fill-opacity=".997" fill-rule="nonzero" stroke="none" stroke-width=".533"/><path style="marker:none" d="M7.78 16.341v10.984h13.234V16.34z" id="rect4315" color="#000" display="inline" overflow="visible" visibility="visible" opacity="1" fill="#b3b3b3" fill-opacity="1" fill-rule="nonzero" stroke="none" stroke-width=".533"/><path id="path4633" d="M23.955 23.193v-1.36h14.582v1.36z" style="marker:none" color="#000" display="inline" overflow="visible" visibility="visible" opacity="1" fill="#b3b3b3" fill-opacity=".996" fill-rule="nonzero" stroke="none" stroke-width=".533"/><path style="marker:none" d="M7.78 32.817v-1.373h30.88v1.373z" id="path4635" color="#000" display="inline" overflow="visible" visibility="visible" opacity="1" fill="#b3b3b3" fill-opacity=".996" fill-rule="nonzero" stroke="none" stroke-width=".533"/><path style="marker:none" d="M23.955 25.94v-1.361h14.582v1.36z" id="path4725" color="#000" display="inline" overflow="visible" visibility="visible" opacity="1" fill="#b3b3b3" fill-opacity=".996" fill-rule="nonzero" stroke="none" stroke-width=".533"/><path id="path4727" d="M7.78 30.07v-1.36h30.88v1.36z" style="marker:none" color="#000" display="inline" overflow="visible" visibility="visible" opacity="1" fill="#b3b3b3" fill-opacity=".996" fill-rule="nonzero" stroke="none" stroke-width=".533"/><path style="marker:none" d="M7.78 35.563V34.19h19.116v1.373z" id="path14983" color="#000" display="inline" overflow="visible" visibility="visible" opacity="1" fill="#b3b3b3" fill-opacity=".996" fill-rule="nonzero" stroke="none" stroke-width=".533"/><path style="marker:none" d="M7.78 12.222V10.85h30.88v1.373z" id="path14977" color="#000" display="inline" overflow="visible" visibility="visible" opacity="1" fill="#b3b3b3" fill-opacity=".996" fill-rule="nonzero" stroke="none" stroke-width=".533"/><g id="g1227"><path id="path4631" d="M23.955 20.46v-1.373h7.352v1.373z" style="marker:none" color="#000" display="inline" overflow="visible" visibility="visible" opacity="1" fill="#b3b3b3" fill-opacity=".997" fill-rule="nonzero" stroke="none" stroke-width=".533"/><path d="M23.59 19.713a1.773 1.379 0 0 0-1.774 1.378 1.773 1.379 0 0 0 .758 1.128c-1.3 3.05-3.676 8.033-6.079 9.9 0 0 3.547 4.136 3.547 6.893h8.867c0-2.757 3.547-6.893 3.547-6.893-2.403-1.867-4.777-6.844-6.074-9.898a1.773 1.379 0 0 0 .754-1.13 1.773 1.379 0 0 0-1.773-1.378v12.593c.548.246.885.7.886 1.192 0 .762-.793 1.379-1.773 1.379-.98 0-1.774-.617-1.774-1.379.001-.491.34-.946.887-1.192V22.47z" id="path61" fill="url(#linearGradient530)" stroke-width="1.564" stroke-linejoin="bevel"/><path id="path63" d="M20.042 39.012h8.867c.737 0 1.33.461 1.33 1.034s-.593 1.034-1.33 1.034h-8.867c-.737 0-1.33-.461-1.33-1.034s.593-1.034 1.33-1.034" fill="#f60" stroke-width="4.847" stroke-linejoin="bevel"/><path id="rect65" d="M27.182 44.526a44.742 44.742 0 0 0 1.467-.095c.093-.008.17-.02.26-.03V41.08h-8.867v3.446z" fill="url(#linearGradient534)" stroke-width="4.847" stroke-linecap="round" stroke-linejoin="bevel"/></g></svg>