<svg xmlns="http://www.w3.org/2000/svg" xmlns:xlink="http://www.w3.org/1999/xlink" width="48" height="48" version="1.1" id="svg38"><defs id="defs22"><linearGradient id="linearGradient4488"><stop id="stop4490" offset="0" stop-color="#000" stop-opacity=".047"/><stop id="stop4492" offset="1" stop-color="#000" stop-opacity="0"/></linearGradient><style id="style4511"/><style id="style4511-26"/><style id="style4511-9"/><style id="style4552"/><style id="style4511-2"/><linearGradient xlink:href="#linearGradient4488" id="linearGradient4471" gradientUnits="userSpaceOnUse" gradientTransform="translate(-62.47 2.216) scale(.3038)" x1="288.112" y1="141.785" x2="287.575" y2="79.008"/><circle id="SVGID_1_" r="15.999" cy="-31.965" cx="73.957"/><filter height="1.096" y="-.048" width="1.096" x="-.048" id="filter1393" color-interpolation-filters="sRGB"><feGaussianBlur id="feGaussianBlur1395" stdDeviation="1.058"/></filter></defs><style id="style4485" type="text/css"/><g id="g9" transform="translate(-49.354 -2.761)"><g id="g11"><g id="g13"><g id="g15"><g id="g17" opacity=".15"><g id="g19"><clipPath id="SVGID_2_"><use id="use25" x="0" y="0" width="1" height="1" xlink:href="#SVGID_1_" overflow="visible"/></clipPath></g></g></g></g></g></g><path d="M3.168 26.443v1.668c0 9.575 5.583 17.282 17.146 17.282h6.93c15.132 0 17.836-11.322 17.836-17.282v-1.668c0 5.96-2.704 17.282-17.836 17.282h-6.93c-11.563 0-17.146-7.708-17.146-17.282z" id="path4467" opacity="1" fill="url(#linearGradient4471)" fill-opacity="1" stroke="none" stroke-width="1.1" stroke-linecap="square" stroke-linejoin="bevel" stroke-miterlimit="4" stroke-dasharray="none" stroke-dashoffset="0" stroke-opacity=".078"/><path d="M19.781 2.965h8.495c13.908 0 16.805 11.246 16.805 17.282v7.123c0 5.96-2.705 17.282-17.837 17.282h-6.93c-11.563 0-17.146-7.708-17.146-17.282v-7.123c0-9.575 5.47-17.282 16.613-17.282z" id="path4469" opacity="1" fill="#0095cc" fill-opacity="1" stroke="#000" stroke-width=".334" stroke-linecap="square" stroke-linejoin="bevel" stroke-miterlimit="4" stroke-dasharray="none" stroke-dashoffset="0" stroke-opacity=".078"/><g id="g1024" transform="matrix(.63065 0 0 .63208 2.952 -141.969)" fill-opacity="1"><g id="g1379" opacity=".3" fill="#000" stroke="none" stroke-opacity="1" filter="url(#filter1393)"><g id="g1361" transform="matrix(.1846 0 0 -.1846 10.82 262.436)"><path d="M0 0c0-49.187 28.833-91.648 70.512-111.414L11.074 51.111C3.967 35.54 0 18.232 0 0" id="path1359" fill="#000" fill-opacity="1" fill-rule="nonzero" stroke="none" stroke-opacity="1"/></g><g id="g1365" transform="matrix(.1846 0 0 -.1846 26.955 284.208)"><path d="M0 0a123.176 123.176 0 0 1 35.842-5.304c14.475 0 28.364 2.505 41.266 7.092L37.969 108.81z" id="path1363" fill="#000" fill-opacity="1" fill-rule="nonzero" stroke="none" stroke-opacity="1"/></g><g id="g1369" transform="matrix(.1846 0 0 -.1846 22.817 250.09)"><path d="M0 0v-7.378c0-.677-.529-1.23-1.177-1.23h-14.271c-1.596 0-2.268-.963-1.708-2.613l44.76-131.853L54.84-60.845 36.733-11.332c-.657 1.796-1.437 2.724-4.223 2.724H19.985c-.648 0-1.177.554-1.177 1.23V0c0 .676.531 1.258 1.177 1.229C43.292.19 66.743.198 90.332 1.229c.646.028 1.177-.553 1.177-1.229v-7.378c0-.677-.529-1.23-1.177-1.23H77.876c-2.47 0-3.265-1.142-2.583-3.15l44.061-129.79 16.178 49.243c19.56 59.536-16.735 65.836-15.833 95.435.446 14.641 11.179 21.032 21.932 20.747-21.945 20.171-51.22 32.492-83.371 32.492-43.348 0-81.471-22.393-103.442-56.238C-31.181.274-16.151.434-1.178 1.23-.531 1.263 0 .677 0 0" id="path1367" fill="#000" fill-opacity="1" fill-rule="nonzero" stroke="none" stroke-opacity="1"/></g><g id="g1373" transform="matrix(.1846 0 0 -.1846 33.571 287.321)"><path id="path1371" transform="matrix(.8 0 0 -.8 -256 390.812)" d="M320 140.832c-98.934 0-179.166 80.234-179.166 179.168 0 98.934 80.232 179.166 179.166 179.166S499.166 418.934 499.166 320 418.934 140.832 320 140.832zm0 10.652c93.051 0 168.516 75.464 168.516 168.516 0 93.051-75.464 168.516-168.516 168.516-93.052 0-168.516-75.465-168.516-168.516 0-93.052 75.465-168.516 168.516-168.516z" fill="#000" fill-opacity="1" fill-rule="nonzero" stroke="none" stroke-width="1.25" stroke-opacity="1"/></g><g id="g1377" transform="matrix(.1846 0 0 -.1846 53.581 251.603)"><path d="M0 0c.675-18.336-4.852-41.105-10.803-57.957l-38.445-108.869c38.193 20.94 64.096 61.519 64.096 108.141C14.848-37.441 9.47-17.45 0 0" id="path1375" fill="#000" fill-opacity="1" fill-rule="nonzero" stroke="none" stroke-opacity="1"/></g></g><g id="g1357" fill="#fff"><g transform="matrix(.1846 0 0 -.1846 10.82 262.436)" id="g210"><path id="path212" d="M0 0c0-49.187 28.833-91.648 70.512-111.414L11.074 51.111C3.967 35.54 0 18.232 0 0" fill="#fff" fill-opacity="1" fill-rule="nonzero" stroke="none"/></g><g transform="matrix(.1846 0 0 -.1846 26.955 284.208)" id="g214"><path id="path216" d="M0 0a123.176 123.176 0 0 1 35.842-5.304c14.475 0 28.364 2.505 41.266 7.092L37.969 108.81z" fill="#fff" fill-opacity="1" fill-rule="nonzero" stroke="none"/></g><g transform="matrix(.1846 0 0 -.1846 22.817 250.09)" id="g218"><path id="path220" d="M0 0v-7.378c0-.677-.529-1.23-1.177-1.23h-14.271c-1.596 0-2.268-.963-1.708-2.613l44.76-131.853L54.84-60.845 36.733-11.332c-.657 1.796-1.437 2.724-4.223 2.724H19.985c-.648 0-1.177.554-1.177 1.23V0c0 .676.531 1.258 1.177 1.229C43.292.19 66.743.198 90.332 1.229c.646.028 1.177-.553 1.177-1.229v-7.378c0-.677-.529-1.23-1.177-1.23H77.876c-2.47 0-3.265-1.142-2.583-3.15l44.061-129.79 16.178 49.243c19.56 59.536-16.735 65.836-15.833 95.435.446 14.641 11.179 21.032 21.932 20.747-21.945 20.171-51.22 32.492-83.371 32.492-43.348 0-81.471-22.393-103.442-56.238C-31.181.274-16.151.434-1.178 1.23-.531 1.263 0 .677 0 0" fill="#fff" fill-opacity="1" fill-rule="nonzero" stroke="none"/></g><g transform="matrix(.1846 0 0 -.1846 33.571 287.321)" id="g222"><path d="M320 140.832c-98.934 0-179.166 80.234-179.166 179.168 0 98.934 80.232 179.166 179.166 179.166S499.166 418.934 499.166 320 418.934 140.832 320 140.832zm0 10.652c93.051 0 168.516 75.464 168.516 168.516 0 93.051-75.464 168.516-168.516 168.516-93.052 0-168.516-75.465-168.516-168.516 0-93.052 75.465-168.516 168.516-168.516z" transform="matrix(.8 0 0 -.8 -256 390.812)" id="path224" fill="#fff" fill-opacity="1" fill-rule="nonzero" stroke="none" stroke-width="1.25"/></g><g transform="matrix(.1846 0 0 -.1846 53.581 251.603)" id="g226"><path id="path228" d="M0 0c.675-18.336-4.852-41.105-10.803-57.957l-38.445-108.869c38.193 20.94 64.096 61.519 64.096 108.141C14.848-37.441 9.47-17.45 0 0" fill="#fff" fill-opacity="1" fill-rule="nonzero" stroke="none"/></g></g></g></svg>