<svg xmlns:osb="http://www.openswatchbook.org/uri/2009/osb" xmlns="http://www.w3.org/2000/svg" xmlns:xlink="http://www.w3.org/1999/xlink" width="48" height="48" version="1.1" id="svg38"><defs id="defs22"><linearGradient id="linearGradient4488"><stop id="stop4490" offset="0" stop-color="#000" stop-opacity=".047"/><stop id="stop4492" offset="1" stop-color="#000" stop-opacity="0"/></linearGradient><style id="style4511"/><style id="style4511-26"/><style id="style4511-9"/><style id="style4552"/><style id="style4511-2"/><linearGradient xlink:href="#linearGradient4488" id="linearGradient4540" gradientUnits="userSpaceOnUse" gradientTransform="translate(-62.889 1.994) scale(.3038)" x1="288.112" y1="141.785" x2="287.575" y2="79.008"/><linearGradient osb:paint="solid" id="linearGradient5293"><stop id="stop5295" offset="0" stop-color="#9a89c0" stop-opacity="1"/></linearGradient><linearGradient xlink:href="#linearGradient3764-3675" id="linearGradient1249" x1="2.583" y1="23.586" x2="44.83" y2="23.586" gradientUnits="userSpaceOnUse"/><linearGradient gradientTransform="rotate(-90 -9.855 59.288)" gradientUnits="userSpaceOnUse" x2="47" x1="1" id="linearGradient3764-3675"><stop id="stop1243" stop-opacity="1" stop-color="#428923"/><stop id="stop1245" stop-opacity="1" stop-color="#4b9a27" offset="1"/></linearGradient><linearGradient id="linearGradient-2-6" y2="15.672" x2="4.666" y1="15.672" x1="13.942" gradientTransform="scale(1.36277 .7338)" gradientUnits="userSpaceOnUse"><stop id="stop475" offset="0%" stop-color="#F5F5F5"/><stop id="stop477" offset="100%" stop-color="#A1E37D"/></linearGradient></defs><style id="style4485" type="text/css"/><g id="g554"><path d="M2.75 26.22v1.67c0 9.573 5.583 17.281 17.146 17.281h6.93c15.132 0 17.836-11.322 17.836-17.282v-1.668c0 5.96-2.704 17.282-17.836 17.282h-6.93C8.333 43.503 2.75 35.795 2.75 26.22z" id="path4516" opacity="1" fill="url(#linearGradient4540)" fill-opacity="1" stroke="none" stroke-width="1.1" stroke-linecap="square" stroke-linejoin="bevel" stroke-miterlimit="4" stroke-dasharray="none" stroke-dashoffset="0" stroke-opacity=".078"/><path d="M19.363 2.742h8.495c13.908 0 16.804 11.247 16.804 17.282v7.124c0 5.96-2.704 17.282-17.836 17.282h-6.93C8.333 44.43 2.75 36.722 2.75 27.148v-7.124c0-9.574 5.47-17.282 16.613-17.282z" id="path4518" opacity="1" fill="url(#linearGradient1249)" fill-opacity="1" stroke="#000" stroke-width=".334" stroke-linecap="square" stroke-linejoin="bevel" stroke-miterlimit="4" stroke-dasharray="none" stroke-dashoffset="0" stroke-opacity=".078"/><g transform="translate(-.904 -.736)" id="g544"><g id="g537"><g transform="translate(48)" id="g531"><g transform="translate(-35.39 12.322)" id="Group" fill="none" fill-rule="nonzero" stroke="none" stroke-width="1"><path id="Combined-Shape" d="M19 8.5V15H6V8a1 1 0 0 0 1 1h12z" fill="url(#linearGradient-2-6)"/><path id="path487" d="M23 24H1a1 1 0 0 1-1-1v-4a1 1 0 0 1 1-1h16a1 1 0 0 0 1-1V9h5a1 1 0 0 1 1 1v13a1 1 0 0 1-1 1zM6 7v8H1a1 1 0 0 1-1-1V1a1 1 0 0 1 1-1h22a1 1 0 0 1 1 1v4a1 1 0 0 1-1 1H7a1 1 0 0 0-1 1z" fill="#fff"/></g></g></g></g></g></svg>