<svg xmlns:osb="http://www.openswatchbook.org/uri/2009/osb" xmlns="http://www.w3.org/2000/svg" xmlns:xlink="http://www.w3.org/1999/xlink" width="48" height="48" version="1.1" id="svg38"><defs id="defs22"><linearGradient id="linearGradient4488"><stop id="stop4490" offset="0" stop-color="#000" stop-opacity=".047"/><stop id="stop4492" offset="1" stop-color="#000" stop-opacity="0"/></linearGradient><style id="style4511"/><style id="style4511-26"/><style id="style4511-9"/><style id="style4552"/><style id="style4511-2"/><linearGradient xlink:href="#linearGradient4488" id="linearGradient4540" gradientUnits="userSpaceOnUse" gradientTransform="matrix(.30795 0 0 .3038 -63.786 1.994)" x1="288.112" y1="141.785" x2="287.575" y2="79.008"/><linearGradient osb:paint="solid" id="linearGradient5293"><stop id="stop5295" offset="0" stop-color="#9a89c0" stop-opacity="1"/></linearGradient><linearGradient id="3764-61-2"><stop id="stop7539" offset="0" stop-color="#f37e40" stop-opacity="1"/><stop id="stop7541" offset="1" stop-color="#f34f17" stop-opacity="1"/></linearGradient><linearGradient xlink:href="#3764-61-2" id="linearGradient1249" x1="2.583" y1="23.586" x2="44.83" y2="23.586" gradientUnits="userSpaceOnUse" gradientTransform="matrix(1.01367 0 0 1 -.038 0)"/><linearGradient id="linearGradient-2-6" y2="17.676" x2="4.669" y1="17.676" x1="13.662" gradientTransform="scale(1.3093 .76376)" gradientUnits="userSpaceOnUse"><stop id="stop591" offset="0%" stop-color="#FFD6C2"/><stop id="stop593" offset="100%" stop-color="#FFC4B1"/></linearGradient></defs><style id="style4485" type="text/css"/><path id="path4516" d="M2.75 26.22v1.67c0 9.573 5.66 17.281 17.38 17.281h7.025c15.34 0 18.08-11.322 18.08-17.282v-1.668c0 5.96-2.74 17.282-18.08 17.282H20.13c-11.72 0-17.38-7.708-17.38-17.282z" opacity="1" fill="url(#linearGradient4540)" fill-opacity="1" stroke="none" stroke-width="1.107" stroke-linecap="square" stroke-linejoin="bevel" stroke-miterlimit="4" stroke-dasharray="none" stroke-dashoffset="0" stroke-opacity=".078"/><path id="path4518" d="M19.59 2.742h8.611c14.098 0 17.034 11.247 17.034 17.282v7.124c0 5.96-2.74 17.282-18.08 17.282H20.13c-11.72 0-17.38-7.708-17.38-17.282v-7.124c0-9.574 5.545-17.282 16.84-17.282z" opacity="1" fill="url(#linearGradient1249)" fill-opacity="1" stroke="#000" stroke-width=".336" stroke-linecap="square" stroke-linejoin="bevel" stroke-miterlimit="4" stroke-dasharray="none" stroke-dashoffset="0" stroke-opacity=".078"/><g id="g663" transform="translate(-.805 -.773)"><g id="g657"><g id="Group" transform="translate(12.798 12.868)" fill="none" fill-rule="nonzero" stroke="none" stroke-width="1"><path d="M18 10.5V17H6v-7a1 1 0 0 0 1 1h11z" id="Combined-Shape" fill="url(#linearGradient-2-6)"/><path d="M17 6H7a1 1 0 0 0-1 1v16a1 1 0 0 1-1 1H1a1 1 0 0 1-1-1V1a1 1 0 0 1 1-1h22a1 1 0 0 1 1 1v15a1 1 0 0 1-1 1h-5V7a1 1 0 0 0-1-1z" id="path602" fill="#fff"/></g></g></g></svg>