<svg xmlns:osb="http://www.openswatchbook.org/uri/2009/osb" xmlns="http://www.w3.org/2000/svg" xmlns:xlink="http://www.w3.org/1999/xlink" width="48" height="48" version="1.1" id="svg38"><defs id="defs22"><linearGradient id="linearGradient4488"><stop id="stop4490" offset="0" stop-color="#000" stop-opacity=".047"/><stop id="stop4492" offset="1" stop-color="#000" stop-opacity="0"/></linearGradient><style id="style4511"/><style id="style4511-26"/><style id="style4511-9"/><style id="style4552"/><style id="style4511-2"/><linearGradient xlink:href="#linearGradient4488" id="linearGradient4540" gradientUnits="userSpaceOnUse" gradientTransform="matrix(.30795 0 0 .3038 -63.786 1.994)" x1="288.112" y1="141.785" x2="287.575" y2="79.008"/><linearGradient osb:paint="solid" id="linearGradient5293"><stop id="stop5295" offset="0" stop-color="#9a89c0" stop-opacity="1"/></linearGradient><linearGradient gradientTransform="rotate(-90 -3.398 48.457)" gradientUnits="userSpaceOnUse" x2="47" x1="1" id="linearGradient3764-3675"><stop id="stop582" stop-opacity="1" stop-color="#2f58cd"/><stop id="stop584" stop-opacity="1" stop-color="#3e64d2" offset="1"/></linearGradient><linearGradient xlink:href="#linearGradient3764-3675" id="linearGradient1520" x1="2.582" y1="23.586" x2="45.404" y2="23.586" gradientUnits="userSpaceOnUse"/><linearGradient id="linearGradient-2-6" y2="28.797" x2="9.745" y1="12.023" x1="9.745" gradientTransform="scale(1.22972 .8132)" gradientUnits="userSpaceOnUse"><stop id="stop620" offset="0%" stop-color="#A2BAFF"/><stop id="stop622" offset="100%" stop-color="#93BDFF"/></linearGradient></defs><style id="style4485" type="text/css"/><path id="path4516" d="M2.75 26.22v1.67c0 9.573 5.66 17.281 17.38 17.281h7.025c15.34 0 18.08-11.322 18.08-17.282v-1.668c0 5.96-2.74 17.282-18.08 17.282H20.13c-11.72 0-17.38-7.708-17.38-17.282z" opacity="1" fill="url(#linearGradient4540)" fill-opacity="1" stroke="none" stroke-width="1.107" stroke-linecap="square" stroke-linejoin="bevel" stroke-miterlimit="4" stroke-dasharray="none" stroke-dashoffset="0" stroke-opacity=".078"/><path id="path4518" d="M19.59 2.742h8.611c14.098 0 17.034 11.247 17.034 17.282v7.124c0 5.96-2.74 17.282-18.08 17.282H20.13c-11.72 0-17.38-7.708-17.38-17.282v-7.124c0-9.574 5.545-17.282 16.84-17.282z" opacity="1" fill="url(#linearGradient1520)" fill-opacity="1" stroke="#000" stroke-width=".336" stroke-linecap="square" stroke-linejoin="bevel" stroke-miterlimit="4" stroke-dasharray="none" stroke-dashoffset="0" stroke-opacity=".078"/><g id="g673" transform="translate(47.484 .078)"><g id="g667"><g transform="translate(-35.492 11.508)" id="Group" fill="none" fill-rule="nonzero" stroke="none" stroke-width="1"><path id="Shape" d="M11.276 9.733L1.025 19.984l4.949 3.949 5.302-5.302a1 1 0 0 1 1.414 0l5.302 5.302 4.949-3.949-10.25-10.25a1 1 0 0 0-1.415 0z" fill="url(#linearGradient-2-6)"/><path id="Combined-Shape" d="M1 0h4a1 1 0 0 1 1 1v23H1a1 1 0 0 1-1-1V1a1 1 0 0 1 1-1zm18 0h4a1 1 0 0 1 1 1v22a1 1 0 0 1-1 1h-5V1a1 1 0 0 1 1-1z" fill="#fff"/></g></g></g></svg>