<svg xmlns:osb="http://www.openswatchbook.org/uri/2009/osb" xmlns="http://www.w3.org/2000/svg" width="48" height="48" version="1.1" id="svg38"><defs id="defs22"><style id="style4511"/><style id="style4511-26"/><style id="style4511-9"/><style id="style4552"/><style id="style4511-2"/><linearGradient osb:paint="solid" id="linearGradient5293"><stop id="stop5295" offset="0" stop-color="#9a89c0" stop-opacity="1"/></linearGradient></defs><style id="style4485" type="text/css"/><path id="path4518" d="M19.525 2.846H28.1c14.042 0 16.966 11.383 16.966 17.491v7.21c0 6.031-2.73 17.491-18.008 17.491h-6.996c-11.674 0-17.311-7.801-17.311-17.491v-7.21c0-9.69 5.523-17.491 16.773-17.491z" opacity="1" fill="#fca622" fill-opacity="1" stroke="#000" stroke-width=".338" stroke-linecap="square" stroke-linejoin="bevel" stroke-miterlimit="4" stroke-dasharray="none" stroke-dashoffset="0" stroke-opacity=".078"/><g id="g1281" stroke-width=".734" fill-opacity="1"><path id="path1263" d="M30.339 18.2l-17.52 15.647c2.277 2.429 5.697 3.97 9.537 3.97 6.885 0 12.428-4.95 12.428-11.1 0-3.43-1.726-6.484-4.445-8.517z" fill="#622903"/><path id="path1267" d="M25.463 10.067c-6.885 0-12.428 4.95-12.428 11.1 0 3.43 1.726 6.484 4.445 8.517L35 14.037c-2.277-2.429-5.697-3.97-9.537-3.97z" fill="#592903"/></g></svg>