<svg xmlns:osb="http://www.openswatchbook.org/uri/2009/osb" xmlns="http://www.w3.org/2000/svg" xmlns:xlink="http://www.w3.org/1999/xlink" width="48" height="48" version="1.1" id="svg38"><defs id="defs22"><linearGradient id="linearGradient4488"><stop id="stop4490" offset="0" stop-color="#000" stop-opacity=".047"/><stop id="stop4492" offset="1" stop-color="#000" stop-opacity="0"/></linearGradient><style id="style4511"/><style id="style4511-26"/><style id="style4511-9"/><style id="style4552"/><style id="style4511-2"/><linearGradient xlink:href="#linearGradient4488" id="linearGradient4540" gradientUnits="userSpaceOnUse" gradientTransform="matrix(.30795 0 0 .30379 -63.784 1.995)" x1="288.112" y1="141.785" x2="287.575" y2="79.008"/><linearGradient osb:paint="solid" id="linearGradient5293"><stop id="stop5295" offset="0" stop-color="#9a89c0" stop-opacity="1"/></linearGradient></defs><style id="style4485" type="text/css"/><path id="path4516" d="M2.751 26.22v1.669c0 9.574 5.66 17.281 17.38 17.281h7.025c15.34 0 18.08-11.322 18.08-17.281V26.22c0 5.96-2.74 17.282-18.08 17.282h-7.025c-11.72 0-17.38-7.708-17.38-17.282z" opacity="1" fill="url(#linearGradient4540)" fill-opacity="1" stroke="none" stroke-width="1.107" stroke-linecap="square" stroke-linejoin="bevel" stroke-miterlimit="4" stroke-dasharray="none" stroke-dashoffset="0" stroke-opacity=".078"/><path id="path4518" d="M19.591 2.743h8.611c14.098 0 17.034 11.247 17.034 17.282v7.122c0 5.96-2.74 17.282-18.08 17.282h-7.025c-11.72 0-17.38-7.708-17.38-17.282v-7.122c0-9.574 5.545-17.282 16.84-17.282z" opacity="1" fill="#334266" fill-opacity="1" stroke="#000" stroke-width=".336" stroke-linecap="square" stroke-linejoin="bevel" stroke-miterlimit="4" stroke-dasharray="none" stroke-dashoffset="0" stroke-opacity=".078"/><g id="g1728" transform="matrix(.6471 0 0 .82285 1.74 -192.826)" fill-opacity="1" stroke="none"><path id="path22" d="M56.278 273.356c.636-.287 1.24-.89 1.846-1.733-12.346.193-31.08.193-47.598.163.046.097.097.19.145.287h3.368c17.272-.03 32.95-.03 42.24 1.286" fill="#d9822b" fill-rule="evenodd" stroke-width=".303"/><path id="path24" d="M12.944 268.969v-1.97h.254l.811 1.156.808-1.156h.254v1.97h-.309v-1.416l-.756 1.098-.753-1.098v1.416z" fill="#fff" fill-rule="evenodd" stroke-width=".303"/><path id="path26" d="M17.474 268.969v-1.97h1.849v.287h-1.54v.494h1.013v.281h-1.014v.626h1.628v.282z" fill="#fff" fill-rule="evenodd" stroke-width=".303"/><path id="path28" d="M21.577 267.002v1.967h.88c.327 0 .584-.088.778-.263.194-.179.294-.418.294-.715a.938.938 0 0 0-.294-.717c-.2-.184-.457-.272-.778-.272zm.311.281h.57c.22 0 .405.064.541.197a.66.66 0 0 1 .215.505.67.67 0 0 1-.206.515c-.133.127-.318.19-.55.19h-.57z" fill="#fff" fill-rule="evenodd" stroke-width=".303"/><path id="path30" d="M25.744 268.969v-1.976h.314v1.976z" fill="#fff" fill-rule="evenodd" stroke-width=".303"/><path id="path32" d="M29.09 267.002l-1.007 1.967h.326l.258-.5h1.044l.257.5h.323l-1.004-1.967zm.1.454l.384.747h-.771z" fill="#fff" fill-rule="evenodd" stroke-width=".303"/><path id="path34" d="M35.974 268.488c-.12.178-.242.311-.454.405-.181.094-.363.14-.605.14-.363 0-.635-.097-.847-.294-.242-.197-.333-.445-.333-.748 0-.302.09-.55.333-.75.212-.197.484-.296.847-.296.212 0 .393.042.575.124a.922.922 0 0 1 .424.338l-.242.173a.691.691 0 0 0-.303-.26 1.215 1.215 0 0 0-.454-.091.987.987 0 0 0-.635.218.724.724 0 0 0 0 1.08.987.987 0 0 0 .635.218.9.9 0 0 0 .454-.103.853.853 0 0 0 .363-.324z" fill="#fff" fill-rule="evenodd" stroke-width=".303"/><path id="path36" d="M38.213 268.969v-1.97h1.846v.287h-1.543v.494h1.029v.281h-1.03v.626h1.635v.282z" fill="#fff" fill-rule="evenodd" stroke-width=".303"/><path id="path38" d="M42.329 268.969v-1.97h.15l1.272 1.386v-1.386h.302v1.97h-.181l-1.24-1.38v1.38z" fill="#fff" fill-rule="evenodd" stroke-width=".303"/><path id="path40" d="M46.928 268.969v-1.698h-.847V267h1.967v.272h-.817v1.698z" fill="#fff" fill-rule="evenodd" stroke-width=".303"/><path id="path42" d="M50.075 268.969v-1.97h1.846v.287h-1.513v.494h.998v.281h-.998v.626h1.604v.282z" fill="#fff" fill-rule="evenodd" stroke-width=".303"/><path id="path44" d="M54.19 267.002v1.967h.303v-.863h.877l.545.863h.333l-.545-.863a.623.623 0 0 0 .363-.19.506.506 0 0 0 .121-.36.503.503 0 0 0-.181-.412c-.091-.097-.242-.142-.454-.142zm.303.287h1.059c.09 0 .181.03.242.07.06.042.09.109.09.194 0 .088-.03.151-.09.196a.395.395 0 0 1-.242.07h-1.06z" fill="#fff" fill-rule="evenodd" stroke-width=".303"/><path id="path46" d="M25.383 253.422l-.355 2.452H22.88c-1.304 0-2.512.463-3.623 1.385a6.543 6.543 0 0 0-.787.763 3.855 3.855 0 0 0-.492-.763c-.76-.922-1.798-1.385-3.103-1.385h-2.774c-.1.519 0 .96.293 1.325.295.365.7.552 1.22.552h.908c.777 0 1.384.278 1.822.84.439.561.586 1.234.439 2.011-.148.78-.545 1.443-1.196 1.997-.651.552-1.373.833-2.147.833h-.908c-.52 0-.995.18-1.43.545-.437.365-.705.803-.802 1.324h2.784c1.304 0 2.505-.455 3.616-1.37.29-.24.555-.497.785-.765.13.268.3.525.5.765.76.915 1.79 1.37 3.094 1.37h2.784c.1-.52 0-.959-.295-1.324-.295-.366-.707-.545-1.225-.545h-.9c-.78 0-1.39-.28-1.83-.833-.444-.554-.591-1.217-.441-1.997.147-.777.55-1.45 1.203-2.011.654-.562 1.372-.84 2.15-.84h.907c.506 0 .971-.182 1.4-.53l-.492 3.36c-.196 1.326.114 2.45.937 3.379.804.944 1.886 1.409 3.193 1.409 1.331 0 2.542-.465 3.631-1.41 1.09-.929 1.743-2.052 1.937-3.379.193-1.329-.121-2.452-.92-3.381-.823-.923-1.913-1.392-3.244-1.392h-2.832l.048-.37c.097-.548-.024-1.027-.387-1.424-.315-.397-.768-.59-1.32-.59zm1.368 4.29h2.857c.774 0 1.404.271 1.888.833.436.559.605 1.249.508 2.035-.12.787-.484 1.46-1.113 2.027-.63.57-1.332.861-2.13.861-.8 0-1.429-.29-1.889-.861-.46-.567-.63-1.24-.532-2.027z" fill="#82c223" fill-rule="nonzero" stroke-width=".242"/><path id="path48" d="M39.387 255.807c-1.331 0-2.541.467-3.606 1.399-1.09.946-1.743 2.067-1.937 3.396l-.702 4.767c.557 0 1.065-.187 1.5-.584.46-.39.727-.862.8-1.42l.411-2.763c.121-.794.484-1.474 1.114-2.05.63-.562 1.355-.84 2.13-.84.799 0 1.428.278 1.888.84.46.576.63 1.256.508 2.05l-.387 2.762c-.097.55.049 1.01.387 1.407.34.394.775.598 1.332.598l.702-4.767c.097-.794.484-1.474 1.113-2.05.63-.562 1.332-.84 2.13-.84.775 0 1.405.278 1.865.84.46.576.653 1.256.532 2.05l-.411 2.762c-.073.55.048 1.01.387 1.407.339.394.775.598 1.331.598l.34-2.232c.145.293.314.571.556.832.823.932 1.888 1.4 3.195 1.4h2.833c.072-.526-.049-.976-.363-1.349-.315-.368-.75-.552-1.26-.552h-.92c-.798 0-1.427-.285-1.887-.847-.484-.56-.654-1.232-.557-2.019.121-.794.508-1.474 1.138-2.05.63-.562 1.355-.84 2.13-.84h.92c.532 0 1.017-.196 1.452-.567.412-.37.654-.808.727-1.338h-2.809c-1.33 0-2.517.467-3.606 1.399-.533.465-.969.973-1.283 1.527-.146-.556-.436-1.067-.823-1.527-.824-.932-1.889-1.4-3.22-1.4-.726 0-1.453.173-2.179.507-.726.334-1.38.782-1.912 1.37a4.217 4.217 0 0 0-1.501-1.385 4.405 4.405 0 0 0-2.058-.491z" fill="#bdd1e3" fill-rule="nonzero" stroke-width=".242"/></g></svg>