<svg xmlns="http://www.w3.org/2000/svg" xmlns:xlink="http://www.w3.org/1999/xlink" width="48" height="48" version="1.1" id="svg38"><defs id="defs22"><linearGradient id="linearGradient4477"><stop offset="0" id="stop4479" stop-color="#f46803" stop-opacity="1"/><stop offset="1" id="stop4481" stop-color="#e61b12" stop-opacity="1"/></linearGradient><linearGradient id="linearGradient4488"><stop id="stop4490" offset="0" stop-color="#000" stop-opacity=".047"/><stop id="stop4492" offset="1" stop-color="#000" stop-opacity="0"/></linearGradient><style id="style4511"/><style id="style4511-26"/><style id="style4511-9"/><style id="style4552"/><style id="style4511-2"/><linearGradient xlink:href="#linearGradient4488" id="linearGradient4546" gradientUnits="userSpaceOnUse" gradientTransform="translate(-62.497 1.994) scale(.3038)" x1="288.112" y1="141.785" x2="287.575" y2="79.008"/><linearGradient xlink:href="#linearGradient4477" id="linearGradient4483" x1="2.974" y1="23.586" x2="45.221" y2="23.586" gradientUnits="userSpaceOnUse"/></defs><style id="style4485" type="text/css"/><path d="M3.141 26.22v1.67c0 9.573 5.583 17.281 17.146 17.281h6.93c15.133 0 17.837-11.322 17.837-17.282v-1.668c0 5.96-2.704 17.282-17.837 17.282h-6.93c-11.563 0-17.146-7.708-17.146-17.282z" id="path4528" opacity="1" fill="url(#linearGradient4546)" fill-opacity="1" stroke="none" stroke-width="1.1" stroke-linecap="square" stroke-linejoin="bevel" stroke-miterlimit="4" stroke-dasharray="none" stroke-dashoffset="0" stroke-opacity=".078"/><path d="M19.754 2.742h8.495c13.908 0 16.805 11.247 16.805 17.282v7.124c0 5.96-2.704 17.282-17.837 17.282h-6.93c-11.562 0-17.146-7.708-17.146-17.282v-7.124c0-9.574 5.47-17.282 16.613-17.282z" id="path4530" opacity="1" fill="url(#linearGradient4483)" fill-opacity="1" stroke="#000" stroke-width=".334" stroke-linecap="square" stroke-linejoin="bevel" stroke-miterlimit="4" stroke-dasharray="none" stroke-dashoffset="0" stroke-opacity=".078"/><path d="M24.093 10.47a14.74 14.74 0 0 0-1.918.147c-.14.018-.28.039-.42.06a13.796 13.796 0 0 0-1.184.255c-5.536 1.441-9.588 6.178-9.588 11.8 0 .041.003.083.004.124a9.22 9.22 0 0 0-.004.074c.007 3.86 2.026 7.482 5.246 9.836l-.355 3.935 3.834-2.047c1.408.482 2.891.73 4.388.735 6.977-.008 12.726-5.204 13.082-11.823.01-.145.019-.289.024-.435l.01-.201c0-.027 0-.053-.002-.08l.002-.118c0-6.35-5.164-11.582-11.805-12.197-.362-.032-.727-.05-1.092-.053-.073 0-.144-.011-.218-.011h-.004zm-4.368 7.136l4.373 4.37 4.372-4.37 1.638 1.638-4.37 4.371 4.37 4.371-1.638 1.639-4.372-4.371-4.373 4.371-1.638-1.639 4.37-4.37-4.37-4.372 1.638-1.638z" id="path2-6-1-9" fill="#fff" fill-opacity="1" stroke="none" stroke-width=".156" stroke-miterlimit="4" stroke-dasharray="none" stroke-opacity=".063"/></svg>