<svg xmlns="http://www.w3.org/2000/svg" xmlns:xlink="http://www.w3.org/1999/xlink" width="48" height="48" version="1.1" id="svg38"><defs id="defs22"><linearGradient id="linearGradient4488"><stop id="stop4490" offset="0" stop-color="#000" stop-opacity=".047"/><stop id="stop4492" offset="1" stop-color="#000" stop-opacity="0"/></linearGradient><style id="style4511"/><style id="style4511-26"/><style id="style4511-9"/><style id="style4552"/><style id="style4511-2"/><linearGradient gradientTransform="translate(-63.205 2.216) scale(.3038)" xlink:href="#linearGradient4488" id="linearGradient4160" x1="288.112" y1="141.785" x2="287.575" y2="79.008" gradientUnits="userSpaceOnUse"/><linearGradient id="linearGradient3688"><stop offset="0" id="stop3690" stop-color="#ad0d0d" stop-opacity="1"/><stop offset="1" id="stop3692" stop-color="#e02f11" stop-opacity="1"/></linearGradient><linearGradient gradientTransform="matrix(.9134 0 0 1.07609 1.468 -2.043)" gradientUnits="userSpaceOnUse" y2="31.453" x2="27.308" y1="11.627" x1="17.197" id="linearGradient4162" xlink:href="#linearGradient4168-3"/><linearGradient id="linearGradient4168-3"><stop id="stop7-675" offset="0" stop-color="#fcfcfc" stop-opacity="1"/><stop id="stop9-35" offset="1" stop-color="#fbc2bb" stop-opacity="1"/></linearGradient><linearGradient xlink:href="#linearGradient3688" id="linearGradient1394" x1="2.266" y1="23.808" x2="44.513" y2="23.808" gradientUnits="userSpaceOnUse"/></defs><style id="style4485" type="text/css"/><path d="M2.433 26.443v1.668c0 9.575 5.583 17.282 17.146 17.282h6.93c15.133 0 17.837-11.322 17.837-17.282v-1.668c0 5.96-2.704 17.282-17.837 17.282h-6.93c-11.563 0-17.146-7.708-17.146-17.282z" id="path4147" opacity="1" fill="url(#linearGradient4160)" fill-opacity="1" stroke="none" stroke-width="1.1" stroke-linecap="square" stroke-linejoin="bevel" stroke-miterlimit="4" stroke-dasharray="none" stroke-dashoffset="0" stroke-opacity=".078"/><path d="M19.046 2.965h8.495c13.908 0 16.805 11.246 16.805 17.282v7.123c0 5.96-2.704 17.282-17.837 17.282h-6.93c-11.562 0-17.146-7.708-17.146-17.282v-7.123c0-9.575 5.47-17.282 16.613-17.282z" id="rect4144" opacity="1" fill="url(#linearGradient1394)" fill-opacity="1" stroke="#000" stroke-width=".334" stroke-linecap="square" stroke-linejoin="bevel" stroke-miterlimit="4" stroke-dasharray="none" stroke-dashoffset="0" stroke-opacity=".078"/><path d="M17.845 14.099c-.06.001-.128.008-.206.012-.296.02-5.88 1.254-6.236 1.376-.375.128-.696.4-.774.657-.134.437.253 1.858.764 2.812 2.037 2.85 4.3 3.575 6.516 5.11.255.352.355.522-1.597 1.54-3.05 1.591-4.037 2.945-4.622 4.947-.172.592-.252 2.156-.13 2.55.157.51.252.613 3.2-.045 2.96-.662 2.716-.7 2.962-.977.202-.224.213-.278.3-1.34.052-.609.156-1.797.233-2.112.177-.731.625-1.495 1.111-1.898 1.847-1.532 5.323-.768 7.204 1.582.709.885 1.154 2.149 1.509 3.522.205.792.413 1.136.736 1.212.297.07.305-.04 4.072-.883 2.095-.469 2.967-.697 3.09-.81.266-.243.267-.837.003-1.82-.453-1.689-1.239-2.812-2.694-4.11-.72-.643-1.63-1.25-3.168-2.119-1.464-.825-2.162-1.049-2.162-1.305 0-.213.575-.307 1.737-.716 2.544-.897 3.77-2.156 3.77-4.486 0-1.023-.163-1.848-.418-2.116-.339-.356-.934-.367-2.356-.064-4.56.971-4.246.933-4.458 1.338-.113.214-.108.264.099 1.236.118.557.213 1.254.212 1.416-.002.344-.381.919-.567 1.124-.453.5-1.483.842-2.537.842-1.274 0-2.235-.517-3.19-1.714-.689-.865-1.04-1.702-1.51-3.242-.413-1.353-.47-1.529-.893-1.52z" id="path31" fill="url(#linearGradient4162)" fill-opacity="1" stroke-width="1.013"/></svg>