<svg xmlns="http://www.w3.org/2000/svg" xmlns:xlink="http://www.w3.org/1999/xlink" width="48" height="48" version="1.1" id="svg38"><defs id="defs22"><linearGradient id="linearGradient218" spreadMethod="pad" gradientTransform="matrix(0 40.16896 -50.14553 0 -110.889 -13.691)" gradientUnits="userSpaceOnUse" y2="0" x2="1" y1="0" x1="0"><stop id="stop1437" offset="0" stop-opacity="1" stop-color="#fb2d68"/><stop id="stop1439" offset="1" stop-opacity="1" stop-color="#ff5a37"/></linearGradient><linearGradient id="linearGradient4488"><stop id="stop4490" offset="0" stop-color="#000" stop-opacity=".047"/><stop id="stop4492" offset="1" stop-color="#000" stop-opacity="0"/></linearGradient><style id="style4511"/><style id="style4511-26"/><style id="style4511-9"/><style id="style4552"/><style id="style4511-2"/><linearGradient xlink:href="#linearGradient4488" id="linearGradient4546" gradientUnits="userSpaceOnUse" gradientTransform="translate(-62.497 1.994) scale(.3038)" x1="288.112" y1="141.785" x2="287.575" y2="79.008"/><clipPath clipPathUnits="userSpaceOnUse" id="clipPath250"><path d="M0 512h512V0H0v512z" id="path252"/></clipPath><linearGradient xlink:href="#linearGradient218" id="linearGradient1448" x1="2.975" y1="24.297" x2="45.22" y2="24.297" gradientUnits="userSpaceOnUse" gradientTransform="rotate(90 24.098 24.297)"/></defs><style id="style4485" type="text/css"/><path d="M3.141 26.22v1.67c0 9.573 5.583 17.281 17.146 17.281h6.93c15.133 0 17.837-11.322 17.837-17.282v-1.668c0 5.96-2.704 17.282-17.837 17.282h-6.93c-11.563 0-17.146-7.708-17.146-17.282z" id="path4528" opacity="1" fill="url(#linearGradient4546)" fill-opacity="1" stroke="none" stroke-width="1.1" stroke-linecap="square" stroke-linejoin="bevel" stroke-miterlimit="4" stroke-dasharray="none" stroke-dashoffset="0" stroke-opacity=".078"/><path d="M45.091 19.954v8.495c0 13.906-11.328 16.803-17.406 16.803H20.51c-6.002 0-17.406-2.704-17.406-17.835v-6.93c0-11.561 7.763-17.144 17.406-17.144h7.175c9.643 0 17.406 5.47 17.406 16.611z" id="path4530" opacity="1" fill="url(#linearGradient1448)" fill-opacity="1" stroke="#000" stroke-width=".335" stroke-linecap="square" stroke-linejoin="bevel" stroke-miterlimit="4" stroke-dasharray="none" stroke-dashoffset="0" stroke-opacity=".078"/><path d="M18.572 14.304a2.979 2.8 0 0 0-1.49.376c-.916.497-1.486 1.425-1.486 2.422v14.796c0 .996.57 1.924 1.488 2.423a2.98 2.802 0 0 0 1.488.374 2.98 2.801 0 0 0 1.487-.374l13.63-7.398c.92-.5 1.489-1.427 1.489-2.423 0-.997-.57-1.925-1.488-2.423l-13.63-7.398a2.98 2.8 0 0 0-1.488-.375m0 2.315c.088 0 .177.022.256.065l13.63 7.398a.513.482 0 0 1 0 .835l-13.63 7.398a.513.483 0 0 1-.513 0 .513.482 0 0 1-.257-.417V17.102a.513.482 0 0 1 .514-.483" id="path256" fill="#fff" fill-opacity="1" fill-rule="nonzero" stroke="none" stroke-width="1.25"/></svg>