<svg xmlns="http://www.w3.org/2000/svg" xmlns:xlink="http://www.w3.org/1999/xlink" width="48" height="48" version="1.1" id="svg38"><defs id="defs22"><linearGradient id="linearGradient4488"><stop id="stop4490" offset="0" stop-color="#000" stop-opacity=".047"/><stop id="stop4492" offset="1" stop-color="#000" stop-opacity="0"/></linearGradient><style id="style4511"/><style id="style4511-26"/><style id="style4511-9"/><linearGradient id="linearGradient4454"><stop id="stop7-36" offset="0" stop-color="#d21e1e" stop-opacity="1"/><stop id="stop9-75" offset="1" stop-color="#e05e4c" stop-opacity="1"/></linearGradient><style id="style4552"/><style id="style4511-2"/><linearGradient xlink:href="#linearGradient4488" id="linearGradient4544" gradientUnits="userSpaceOnUse" gradientTransform="translate(-62.887 1.994) scale(.3038)" x1="288.112" y1="141.785" x2="287.575" y2="79.008"/><radialGradient gradientUnits="userSpaceOnUse" gradientTransform="matrix(1 0 0 .99464 1.295 -.095)" r="20.956" fy="23.809" fx="22.413" cy="23.809" cx="22.413" id="radialGradient4838-4" xlink:href="#linearGradient4454"/></defs><style id="style4485" type="text/css"/><g id="g1587" fill-opacity="1"><path d="M2.752 26.22v1.67c0 9.573 5.583 17.281 17.146 17.281h6.93c15.133 0 17.837-11.322 17.837-17.282v-1.668c0 5.96-2.704 17.282-17.837 17.282h-6.93c-11.563 0-17.146-7.708-17.146-17.282z" id="path4524" opacity="1" fill="url(#linearGradient4544)" stroke="none" stroke-width="1.1" stroke-linecap="square" stroke-linejoin="bevel" stroke-miterlimit="4" stroke-dasharray="none" stroke-dashoffset="0" stroke-opacity=".078"/><path d="M19.365 2.735h8.495c13.908 0 16.805 11.25 16.805 17.285v7.125c0 5.96-2.705 17.285-17.837 17.285h-6.93c-11.563 0-17.146-7.71-17.146-17.285V20.02c0-9.576 5.47-17.285 16.613-17.285z" id="path4526" opacity="1" fill="#ffc42e" stroke="#000" stroke-width=".334" stroke-linecap="square" stroke-linejoin="bevel" stroke-miterlimit="4" stroke-dasharray="none" stroke-dashoffset="0" stroke-opacity=".078"/><path style="marker:none" d="M19.366 2.742c-11.143 0-16.614 7.707-16.614 17.282v7.123c0 1.922.236 3.763.69 5.488.951.899 1.98 1.744 3.113 2.498 3.532 2.35 7.758 3.61 11.984 3.549 4.229-.062 8.911-1.502 12.266-5.692 1.783-2.227 2.04-4.923 1.467-7.246-.574-2.322-2.384-4.311-4.022-5.252l-.021-.011-.02-.01a3.98 3.98 0 0 0-3.617.11c-.97.525-1.648 1.314-1.86 2.112l-.171.65a3.707 3.707 0 0 1-.465-.044c-.734-.13-1.293-.44-1.479-.994-.226-1.77.228-3.24 1.141-4.33.924-1.103 2.325-1.827 4.004-2.01 2.85-.311 5.825.936 7.742 2.974 1.917 2.04 3.208 4.867 3.44 7.575.659 7.701-6.147 15.522-13.233 17.732v.184h3.117c15.133 0 17.836-11.324 17.836-17.283v-7.124c0-1.836-.273-4.156-1.039-6.494a23.35 23.35 0 0 0-2.761-2.166C37.33 9.013 33.108 7.747 28.88 7.81c-4.228.062-8.801 1.507-12.156 5.697-1.783 2.227-2.04 4.924-1.467 7.246.574 2.322 2.272 4.311 3.91 5.252l.02.01.021.011a3.98 3.98 0 0 0 3.617-.109c.97-.525 1.647-1.315 1.858-2.113l.187-.705a3.8 3.8 0 0 1 .48.025c.376.05.834.154 1.089.31.245.151.396.337.484.604.456 3.561-1.943 6.573-5.267 6.936-2.85.31-5.382-.936-7.3-2.975-1.917-2.038-3.645-5.308-3.876-8.016-.617-7.21 5.31-14.523 11.883-17.24z" id="path6190-0" color="#000" display="inline" overflow="visible" visibility="visible" opacity=".96" fill="url(#radialGradient4838-4)" fill-rule="evenodd" stroke="none" stroke-width=".953" stroke-linecap="butt" stroke-linejoin="miter" stroke-miterlimit="4" stroke-dasharray="none" stroke-dashoffset="0" stroke-opacity="1"/><path id="path6190-0-2" d="M19.366 2.742c-11.143 0-16.614 7.707-16.614 17.282v7.123c0 1.922.236 3.763.69 5.488.951.899 1.98 1.744 3.113 2.498 3.532 2.35 7.758 3.61 11.984 3.549 4.229-.062 8.911-1.502 12.266-5.692a7.46 7.46 0 0 0 .46-.66 15.29 15.285 0 0 1-1.089.037 15.29 15.285 0 0 1-7.072-1.746 5.97 5.97 0 0 1-1.447.352c-2.85.31-5.382-.936-7.3-2.975-1.917-2.038-3.645-5.308-3.876-8.016-.617-7.21 5.31-14.523 11.883-17.24zm-4.37 16.014a9.28 9.28 0 0 0 .262 1.996c.124.502.308.984.525 1.447a15.29 15.285 0 0 1-.787-3.443z" style="marker:none" color="#000" display="inline" overflow="visible" visibility="visible" opacity=".96" fill="#baff41" fill-rule="evenodd" stroke="none" stroke-width=".953" stroke-linecap="butt" stroke-linejoin="miter" stroke-miterlimit="4" stroke-dasharray="none" stroke-dashoffset="0" stroke-opacity="1"/><path id="path14" d="M34.982 23.87a11.274 11.35 0 0 1-11.274 11.349 11.274 11.35 0 0 1-11.273-11.35 11.274 11.35 0 0 1 11.273-11.348A11.274 11.35 0 0 1 34.982 23.87z" fill="#4d4d4d" stroke-width=".943"/></g></svg>