<svg xmlns="http://www.w3.org/2000/svg" xmlns:xlink="http://www.w3.org/1999/xlink" width="48" height="48" version="1.1" id="svg38"><defs id="defs22"><linearGradient id="linearGradient4488"><stop id="stop4490" offset="0" stop-color="#000" stop-opacity=".047"/><stop id="stop4492" offset="1" stop-color="#000" stop-opacity="0"/></linearGradient><style id="style4511"/><style id="style4511-26"/><style id="style4511-9"/><style id="style4552"/><style id="style4511-2"/><linearGradient gradientTransform="translate(-63.205 2.216) scale(.3038)" xlink:href="#linearGradient4488" id="linearGradient4160" x1="288.112" y1="141.785" x2="287.575" y2="79.008" gradientUnits="userSpaceOnUse"/><linearGradient gradientUnits="userSpaceOnUse" y2="4.22" x2="25.142" y1="39.349" x1="25.336" id="linearGradient4584-3" xlink:href="#linearGradient4582-5"/><linearGradient id="linearGradient4582-5"><stop id="stop4578" offset="0" stop-color="#eb5958" stop-opacity="1"/><stop id="stop4580" offset="1" stop-color="#f29860" stop-opacity="1"/></linearGradient><linearGradient gradientUnits="userSpaceOnUse" y2="36.638" x2="24.5" y1="13.039" x1="24.5" id="linearGradient4610" xlink:href="#linearGradient4608"/><linearGradient id="linearGradient4608"><stop id="stop4604" offset="0" stop-color="#000" stop-opacity="1"/><stop id="stop4606" offset="1" stop-color="#fff" stop-opacity="1"/></linearGradient><linearGradient gradientUnits="userSpaceOnUse" y2="35.884" x2="24.44" y1="14.009" x1="24.207" id="linearGradient4592" xlink:href="#linearGradient4590"/><linearGradient id="linearGradient4590"><stop id="stop4586" offset="0" stop-color="#f9fafb" stop-opacity="1"/><stop id="stop4588" offset="1" stop-color="#d4dbde" stop-opacity="1"/></linearGradient><linearGradient gradientUnits="userSpaceOnUse" y2="33.687" x2="32.527" y1="23.6" x1="22.44" id="linearGradient4629-5" xlink:href="#linearGradient4488"/><linearGradient gradientUnits="userSpaceOnUse" y2="31.681" x2="25.073" y1="17.996" x1="24.759" id="linearGradient4600" xlink:href="#linearGradient4598"/><linearGradient id="linearGradient4598"><stop id="stop4594" offset="0" stop-color="#20b9fa" stop-opacity="1"/><stop id="stop4596" offset="1" stop-color="#197ef1" stop-opacity="1"/></linearGradient></defs><style id="style4485" type="text/css"/><path d="M2.433 26.443v1.668c0 9.575 5.583 17.282 17.146 17.282h6.93c15.133 0 17.837-11.322 17.837-17.282v-1.668c0 5.96-2.704 17.282-17.837 17.282h-6.93c-11.563 0-17.146-7.708-17.146-17.282z" id="path4147" opacity="1" fill="url(#linearGradient4160)" fill-opacity="1" stroke="none" stroke-width="1.1" stroke-linecap="square" stroke-linejoin="bevel" stroke-miterlimit="4" stroke-dasharray="none" stroke-dashoffset="0" stroke-opacity=".078"/><path d="M19.046 2.965h8.495c13.908 0 16.805 11.246 16.805 17.282v7.123c0 5.96-2.704 17.282-17.837 17.282h-6.93c-11.562 0-17.146-7.708-17.146-17.282v-7.123c0-9.575 5.47-17.282 16.613-17.282z" id="rect4144" opacity="1" fill="#e3e7ea" fill-opacity="1" stroke="#000" stroke-width=".334" stroke-linecap="square" stroke-linejoin="bevel" stroke-miterlimit="4" stroke-dasharray="none" stroke-dashoffset="0" stroke-opacity=".078"/><g id="g8483" transform="matrix(.68954 0 0 .66437 6.84 9.192)" fill-opacity="1" stroke="none" stroke-linecap="round" stroke-linejoin="round" stroke-miterlimit="4" stroke-dasharray="none" stroke-dashoffset="0" stroke-opacity="1"><path id="rect4528" d="M17.826 4.006a2.997 2.997 0 0 0-2.723 3.776l1.167 4.358a20.407 20.407 0 0 0-2.822 2.043l-3.322-3.325a2.994 2.994 0 0 0-4.244 0 2.996 2.996 0 0 0 0 4.245l3.355 3.358c-1.483 1.663-2.844 3.22-4.193 4.24-1.392 1.023-1.392 3.58 0 4.603C11 31.013 15 40.026 23.998 40h.004C33 40.026 37 31.013 42.956 27.304c1.392-1.022 1.392-3.58 0-4.602-1.349-1.02-2.709-2.577-4.191-4.24l3.357-3.359a2.996 2.996 0 0 0 0-4.245 2.991 2.991 0 0 0-4.242 0l-3.326 3.328a20.433 20.433 0 0 0-2.802-2.034l1.17-4.37A2.997 2.997 0 0 0 30.8 4.104a2.994 2.994 0 0 0-3.673 2.124l-1.043 3.897A15.276 15.276 0 0 0 24 9.981h-.002c-.714 0-1.397.053-2.057.142L20.9 6.228a2.993 2.993 0 0 0-3.073-2.222z" opacity="1" fill="url(#linearGradient4584-3)" stroke-width="3.923"/><circle id="circle4602" cx="24" cy="25" r="12" opacity=".2" fill="url(#linearGradient4610)" stroke-width="3.513"/><circle r="11" cy="25" cx="24" id="path4574" opacity="1" fill="url(#linearGradient4592)" stroke-width="3.22"/><path id="path4612" d="M15.055 6.477c-.075.42-.07.862.049 1.304l.939 3.51c.078-.048.148-.104.227-.15l-1.166-4.36c-.028-.101-.033-.203-.05-.304zm17.916 0c-.017.101-.022.203-.05.304l-1.169 4.371c.078.047.15.103.227.15l.943-3.52c.118-.443.124-.884.049-1.305zM5.047 12.48a2.99 2.99 0 0 0 .834 2.624l2.879 2.88c.161-.18.312-.339.476-.523l-3.355-3.357a2.99 2.99 0 0 1-.834-1.624zm37.91 0a2.99 2.99 0 0 1-.834 1.624l-3.357 3.359c.164.184.314.342.476.523l2.881-2.882a2.99 2.99 0 0 0 .834-2.624zM4.049 24.504c-.155 1.047.167 2.193.994 2.8C10.999 31.015 15 40.027 23.998 40h.004C33 40.026 37 31.013 42.957 27.305c.827-.608 1.15-1.754.994-2.801-.106.715-.43 1.386-.994 1.8C37.001 30.015 33 39.027 24.002 39h-.004C15 39.026 11 30.013 5.043 26.305c-.565-.415-.888-1.086-.994-1.801z" opacity=".2" fill="#000" stroke-width="3.923"/><path id="rect4617" d="M25.594 19.11l-7.733 8.257.926 2.328 9.543 9.543c4.494-1.639 7.624-5.63 10.9-8.857L28.84 19.992z" opacity=".3" fill="url(#linearGradient4629-5)" stroke-width="2.051"/><circle id="circle4576" cx="24" cy="25" r="7" opacity="1" fill="url(#linearGradient4600)" stroke-width="2.049"/></g></svg>