<svg xmlns="http://www.w3.org/2000/svg" xmlns:xlink="http://www.w3.org/1999/xlink" width="48" height="48" version="1.1" id="svg38"><defs id="defs22"><linearGradient id="linearGradient4488"><stop id="stop4490" offset="0" stop-color="#000" stop-opacity=".047"/><stop id="stop4492" offset="1" stop-color="#000" stop-opacity="0"/></linearGradient><style id="style4511"/><style id="style4511-26"/><style id="style4511-9"/><linearGradient id="linearGradient4454"><stop id="stop7-36" offset="0" stop-color="#d21e1e" stop-opacity="1"/><stop id="stop9-75" offset="1" stop-color="#e05e4c" stop-opacity="1"/></linearGradient><linearGradient id="linearGradient4303"><stop offset="0" id="stop8-3" stop-color="#197cf1" stop-opacity="1"/><stop offset="1" id="stop10-6" stop-color="#21c9fb" stop-opacity="1"/></linearGradient><style id="style4552"/><style id="style4511-2"/><linearGradient gradientTransform="translate(-63.205 2.216) scale(.3038)" xlink:href="#linearGradient4488" id="linearGradient4160" x1="288.112" y1="141.785" x2="287.575" y2="79.008" gradientUnits="userSpaceOnUse"/><linearGradient xlink:href="#linearGradient4454" id="linearGradient1221" x1="13.056" y1="26.693" x2="34.065" y2="26.693" gradientUnits="userSpaceOnUse"/><linearGradient xlink:href="#linearGradient4303" id="linearGradient1229" x1="6.109" y1="23.808" x2="40.67" y2="23.808" gradientUnits="userSpaceOnUse"/></defs><style id="style4485" type="text/css"/><g id="g1235" fill-opacity="1"><path id="path4147" d="M2.433 26.443v1.668c0 9.575 5.583 17.282 17.146 17.282h6.93c15.133 0 17.837-11.322 17.837-17.282v-1.668c0 5.96-2.704 17.282-17.837 17.282h-6.93c-11.563 0-17.146-7.708-17.146-17.282z" opacity="1" fill="url(#linearGradient4160)" stroke="none" stroke-width="1.1" stroke-linecap="square" stroke-linejoin="bevel" stroke-miterlimit="4" stroke-dasharray="none" stroke-dashoffset="0" stroke-opacity=".078"/><path id="rect4144" d="M19.046 2.965h8.495c13.908 0 16.805 11.246 16.805 17.282v7.123c0 5.96-2.704 17.282-17.837 17.282h-6.93c-11.562 0-17.146-7.708-17.146-17.282v-7.123c0-9.575 5.47-17.282 16.613-17.282z" opacity="1" fill="#e3e7ea" stroke="#000" stroke-width=".334" stroke-linecap="square" stroke-linejoin="bevel" stroke-miterlimit="4" stroke-dasharray="none" stroke-dashoffset="0" stroke-opacity=".078"/><path id="path1181" d="M30.324 14.196c-.637.035-1.344.192-2.138.438l-.956-.426-13.44 8.65c2.002-.812 4.255-1.529 5.282-1.618l-3.362 3.54 2.606-1.004c-1.079 3.18-2.348 6.163-5.26 7.524a15.5 15.5 0 0 0 8.414 4.053l1.922 3.845 1.918-3.845a15.496 15.496 0 0 0 8.755-4.395c-4.146.038-7.71-.676-8.11-5.468-.108-.607-.032-4.55 6.075-6.477-.616-.42-2.6-.41-4.06-.416-.063-.571.308-3.153 5.02-3.429-.739-.754-1.605-1.031-2.666-.972zm-3.938 1.688c.302.13.342.325.396.535-.527.108-1.27.36-1.476.073-.094-.098.551-.46 1.086-.599l-.006-.009z" fill="url(#linearGradient1221)" stroke-width=".961"/><path id="path1183" d="M16.12 7.46c-5.911 2.721-10.011 8.653-10.011 15.549 0 9.472 7.737 17.152 17.282 17.152 9.542 0 17.28-7.681 17.28-17.152 0-6.81-4.002-12.685-9.794-15.441l-.18.178c4.573 2.547 7.673 7.394 7.673 12.97 0 7.489-5.809 13.6-13.06 14.635L23.392 39.2l-1.922-3.85c-7.25-1.036-13.057-7.146-13.057-14.635 0-5.634 3.164-10.521 7.814-13.045-.032-.068-.076-.143-.109-.215" fill="url(#linearGradient1229)" stroke-width=".961"/></g></svg>