<svg xmlns="http://www.w3.org/2000/svg" xmlns:xlink="http://www.w3.org/1999/xlink" width="48" height="48" version="1.1" id="svg38"><defs id="defs22"><linearGradient id="linearGradient4488"><stop id="stop4490" offset="0" stop-color="#000" stop-opacity=".047"/><stop id="stop4492" offset="1" stop-color="#000" stop-opacity="0"/></linearGradient><style id="style4511"/><style id="style4511-26"/><style id="style4511-9"/><style id="style4552"/><style id="style4511-2"/><linearGradient gradientTransform="translate(-63.205 2.216) scale(.3038)" xlink:href="#linearGradient4488" id="linearGradient4160" x1="288.112" y1="141.785" x2="287.575" y2="79.008" gradientUnits="userSpaceOnUse"/><linearGradient xlink:href="#a-5-3-6" id="linearGradient4582-7-9-7" x1="10.973" y1="24" x2="36.937" y2="24" gradientUnits="userSpaceOnUse" gradientTransform="matrix(1.00141 0 0 1.00257 .66 .63)"/><linearGradient gradientUnits="userSpaceOnUse" x2="0" y2="503.8" y1="542.8" id="a-5-3-6"><stop stop-color="#2a2c2f" id="stop4723-6-8"/><stop stop-color="#424649" offset="1" id="stop4725-0-9"/></linearGradient><linearGradient xlink:href="#LO" id="linearGradient4586-1-0" gradientUnits="userSpaceOnUse" gradientTransform="matrix(.08824 0 0 .08717 -18.272 3.583)" x1="319.208" y1="235.149" x2="657.653" y2="269.494"/><linearGradient id="LO" gradientUnits="userSpaceOnUse" x1="319.208" y1="235.149" x2="657.653" y2="269.494"><stop offset="0" id="stop4714" stop-color="#e54c18"/><stop offset="1" id="stop4716" stop-color="#fec350"/></linearGradient></defs><style id="style4485" type="text/css"/><path d="M2.433 26.443v1.668c0 9.575 5.583 17.282 17.146 17.282h6.93c15.133 0 17.837-11.322 17.837-17.282v-1.668c0 5.96-2.704 17.282-17.837 17.282h-6.93c-11.563 0-17.146-7.708-17.146-17.282z" id="path4147" opacity="1" fill="url(#linearGradient4160)" fill-opacity="1" stroke="none" stroke-width="1.1" stroke-linecap="square" stroke-linejoin="bevel" stroke-miterlimit="4" stroke-dasharray="none" stroke-dashoffset="0" stroke-opacity=".078"/><path d="M19.046 2.965h8.495c13.908 0 16.805 11.246 16.805 17.282v7.123c0 5.96-2.704 17.282-17.837 17.282h-6.93c-11.562 0-17.146-7.708-17.146-17.282v-7.123c0-9.575 5.47-17.282 16.613-17.282z" id="rect4144" opacity="1" fill="#e3e7ea" fill-opacity="1" stroke="#000" stroke-width=".334" stroke-linecap="square" stroke-linejoin="bevel" stroke-miterlimit="4" stroke-dasharray="none" stroke-dashoffset="0" stroke-opacity=".078"/><g transform="translate(2.674 3.057) scale(.84042)" id="g4851" fill-opacity="1"><path id="path4733-9" d="M11.94 38.182l9.816-12.85L11.65 11.204l6.496.005 8.054 11.11-12.042 15.863H11.94zm19.213.01l-7.997-11.13 12.141-15.87h2.164l-9.857 12.91 10.045 14.09h-6.496z" fill="url(#linearGradient4582-7-9-7)"/><path id="path4743-3" d="M24.648 16.12c-.78 0-1.615.06-2.366.132 1.338 1.724 2.448 3.184 3.726 4.842-.717-1.525-2.191-2.987-1.682-3.739.505-.744 1.434-.62 1.505-.62 1.49 0 2.925.167 4.266.475l.314-.428c-1.789-.455-3.731-.661-5.763-.661zm8.071 1.392l-.29.409c4.132 1.598 6.927 4.651 6.927 8.15 0 5.153-6.059 9.334-13.525 9.334s-13.528-4.181-13.528-9.333c0-2.806 1.798-5.325 4.64-7.037l-.873-1.316c-4.46 1.869-7.42 5.148-7.42 8.881 0 5.809 7.166 10.52 15.998 10.52 8.832 0 16.001-4.711 16.001-10.52 0-3.873-3.187-7.26-7.93-9.088z" fill="url(#linearGradient4586-1-0)"/></g></svg>