<svg xmlns:osb="http://www.openswatchbook.org/uri/2009/osb" xmlns="http://www.w3.org/2000/svg" xmlns:xlink="http://www.w3.org/1999/xlink" width="48" height="48" version="1.1" id="svg38"><defs id="defs22"><linearGradient id="linearGradient4488"><stop id="stop4490" offset="0" stop-color="#000" stop-opacity=".047"/><stop id="stop4492" offset="1" stop-color="#000" stop-opacity="0"/></linearGradient><style id="style4511"/><style id="style4511-26"/><style id="style4511-9"/><style id="style4552"/><style id="style4511-2"/><linearGradient xlink:href="#linearGradient4488" id="linearGradient4540" gradientUnits="userSpaceOnUse" gradientTransform="translate(-62.889 1.994) scale(.3038)" x1="288.112" y1="141.785" x2="287.575" y2="79.008"/><linearGradient osb:paint="solid" id="linearGradient5293"><stop id="stop5295" offset="0" stop-color="#9a89c0" stop-opacity="1"/></linearGradient></defs><style id="style4485" type="text/css"/><g id="g1651" fill-opacity="1" stroke-linecap="square" stroke-linejoin="bevel" stroke-miterlimit="4" stroke-dasharray="none" stroke-dashoffset="0" stroke-opacity=".078"><path d="M2.75 26.22v1.67c0 9.573 5.583 17.281 17.146 17.281h6.93c15.132 0 17.836-11.322 17.836-17.282v-1.668c0 5.96-2.704 17.282-17.836 17.282h-6.93C8.333 43.503 2.75 35.795 2.75 26.22z" id="path4516" opacity="1" fill="url(#linearGradient4540)" stroke="none" stroke-width="1.1"/><path d="M19.666 2.742h8.65c14.16 0 17.11 11.247 17.11 17.282v7.124c0 5.96-2.754 17.282-18.162 17.282h-7.056C8.435 44.43 2.75 36.722 2.75 27.148v-7.124c0-9.574 5.57-17.282 16.916-17.282z" id="path4518" opacity="1" fill="#4d4d4d" stroke="#000" stroke-width=".337"/></g><path style="line-height:normal;-inkscape-font-specification:Sans;text-indent:0;text-align:start;text-decoration-line:none;text-transform:none;marker:none" d="M2.75 24.818v1.403h9.1a.695.697 0 0 0 .693-.581l1.093-6.434 2.654 17.949a.695.697 0 0 0 1.367 0l1.56-10.45.772 2.354a.695.697 0 0 0 1.335-.08l1.061-5.774 2.155 15.32a.695.697 0 0 0 1.383-.064v-.13l1.142-18.384.273 4.258a.695.697 0 0 0 1.368.113l1.254-5.515 1.4 10.014a.695.697 0 0 0 1.366.049l.901-4.048.096.79a.695.697 0 0 0 .692.613h11.024v-1.403H35.026l-.53-4.129a.695.697 0 0 0-1.368-.048l-.932 4.177-1.384-9.95a.695.697 0 0 0-1.367-.065l-1.029 4.516-.66-10.45v-.081a.695.697 0 0 0-.755-.661v-.001a.695.697 0 0 0-.627.661v.08l-1.416 22.659-1.785-12.74a.695.697 0 0 0-1.383-.033l-1.335 7.274-.836-2.549a.695.697 0 0 0-1.351.113l-1.287 8.725-2.605-17.61a.695.697 0 0 0-1.367-.016l-1.737 10.128z" id="path3036" color="#000" font-style="normal" font-variant="normal" font-weight="400" font-stretch="normal" font-size="medium" font-family="Sans" text-decoration="none" letter-spacing="normal" word-spacing="normal" writing-mode="lr-tb" direction="ltr" baseline-shift="baseline" text-anchor="start" display="inline" overflow="visible" visibility="visible" fill="#ffef64" fill-opacity="1" stroke="none" stroke-width="1.391"/></svg>