<svg xmlns="http://www.w3.org/2000/svg" xmlns:xlink="http://www.w3.org/1999/xlink" width="48" height="48" version="1.1" id="svg38"><defs id="defs22"><linearGradient id="linearGradient4488"><stop id="stop4490" offset="0" stop-color="#000" stop-opacity=".047"/><stop id="stop4492" offset="1" stop-color="#000" stop-opacity="0"/></linearGradient><style id="style4511"/><style id="style4511-26"/><style id="style4511-9"/><style id="style4552"/><style id="style4511-2"/><linearGradient gradientTransform="translate(-63.205 2.216) scale(.3038)" xlink:href="#linearGradient4488" id="linearGradient4160" x1="288.112" y1="141.785" x2="287.575" y2="79.008" gradientUnits="userSpaceOnUse"/></defs><style id="style4485" type="text/css"/><path d="M2.433 26.443v1.668c0 9.575 5.583 17.282 17.146 17.282h6.93c15.133 0 17.837-11.322 17.837-17.282v-1.668c0 5.96-2.704 17.282-17.837 17.282h-6.93c-11.563 0-17.146-7.708-17.146-17.282z" id="path4147" opacity="1" fill="url(#linearGradient4160)" fill-opacity="1" stroke="none" stroke-width="1.1" stroke-linecap="square" stroke-linejoin="bevel" stroke-miterlimit="4" stroke-dasharray="none" stroke-dashoffset="0" stroke-opacity=".078"/><path d="M19.046 2.965h8.495c13.908 0 16.805 11.246 16.805 17.282v7.123c0 5.96-2.704 17.282-17.837 17.282h-6.93c-11.562 0-17.146-7.708-17.146-17.282v-7.123c0-9.575 5.47-17.282 16.613-17.282z" id="rect4144" opacity="1" fill="#ececec" fill-opacity="1" stroke="#000" stroke-width=".334" stroke-linecap="square" stroke-linejoin="bevel" stroke-miterlimit="4" stroke-dasharray="none" stroke-dashoffset="0" stroke-opacity=".078"/><g id="g1166" transform="matrix(.93299 0 0 .9575 -50.086 2.928)"><ellipse ry="4.74" rx="4.884" id="circle1150" cy="24.771" cx="90.561" fill="#da350b" stroke-width=".747"/><path d="M82.147 24.113v12.052h-6.829V24.022L63.87 7.45h8.135l6.847 10.491L85.377 7.45h7.813z" id="path1152" fill="#596cfa" stroke-width=".747"/><path id="path1156" d="M83.216 29.203c-9.103 2.856-17.725 1.442-19.257-3.157s4.607-10.641 13.71-13.496c3.521-1.104 6.963-1.563 9.957-1.454-3.424-.577-7.61-.28-11.883 1.06-9.096 2.853-15.093 9.298-13.395 14.396 1.697 5.098 10.447 6.918 19.543 4.065 4.273-1.34 7.847-3.477 10.276-5.89-2.361 1.789-5.43 3.372-8.951 4.476z" fill="#da350b" stroke-width=".747"/><g transform="matrix(.75874 0 0 .7363 60.902 3.768)" id="g1160"><path id="path1158" d="M27.409 27.482l-8.167-.025L3.911 5h10.722l9.025 14.249L32.257 5h10.297z" fill="#596cfa"/></g></g></svg>