<svg xmlns="http://www.w3.org/2000/svg" xmlns:xlink="http://www.w3.org/1999/xlink" width="48" height="48" version="1.1" id="svg38"><defs id="defs22"><linearGradient id="linearGradient4488"><stop id="stop4490" offset="0" stop-color="#000" stop-opacity=".047"/><stop id="stop4492" offset="1" stop-color="#000" stop-opacity="0"/></linearGradient><style id="style4511"/><style id="style4511-26"/><style id="style4511-9"/><style id="style4552"/><style id="style4511-2"/><linearGradient gradientTransform="matrix(.3082 0 0 .3038 -64.056 2.216)" xlink:href="#linearGradient4488" id="linearGradient4160" x1="288.112" y1="141.785" x2="287.575" y2="79.008" gradientUnits="userSpaceOnUse"/><linearGradient xlink:href="#linearGradient3764-3" id="linearGradient1294" x1="2.367" y1="23.808" x2="45.224" y2="23.808" gradientUnits="userSpaceOnUse"/><linearGradient gradientTransform="rotate(-90 24 24)" gradientUnits="userSpaceOnUse" x2="47" x1="1" id="linearGradient3764-3"><stop id="stop1157" stop-opacity="1" stop-color="#7547bb"/><stop id="stop1159" stop-opacity="1" stop-color="#8056c0" offset="1"/></linearGradient><clipPath id="clipPath-017753830"/></defs><style id="style4485" type="text/css"/><path stroke-miterlimit="4" d="M2.535 26.443v1.668c0 9.575 5.664 17.282 17.394 17.282h7.031c15.352 0 18.095-11.322 18.095-17.282v-1.668c0 5.96-2.743 17.282-18.095 17.282h-7.03c-11.73 0-17.395-7.708-17.395-17.282z" id="path4147" opacity="1" fill="url(#linearGradient4160)" fill-opacity="1" stroke="none" stroke-width="1.108" stroke-linecap="square" stroke-linejoin="bevel" stroke-dasharray="none" stroke-dashoffset="0" stroke-opacity=".078"/><path stroke-miterlimit="4" d="M19.389 2.965h8.618c14.11 0 17.048 11.246 17.048 17.282v7.123c0 5.96-2.743 17.282-18.095 17.282h-7.03c-11.73 0-17.395-7.708-17.395-17.282v-7.123c0-9.575 5.55-17.282 16.854-17.282z" id="rect4144" opacity="1" fill="url(#linearGradient1294)" fill-opacity="1" stroke="#000" stroke-width=".337" stroke-linecap="square" stroke-linejoin="bevel" stroke-dasharray="none" stroke-dashoffset="0" stroke-opacity=".078"/><path id="path1204" d="M9.314 14.263l.004.996h3.813l7.217 9.957.218 4.754c-.191.824-.808 1.117-1.248 1.289h-2.67l.03 1h11.88v-1H25.06c-.436.074-.402-.934-.44-1.211l-.221-4.52c.057-.363.128-.727.59-1.09l6.92-5.844 3.234-.336.515-1H24.887l.173 1 3.091.102c.184.16.55.145.147.859l-4.49 4.125c-.237.152-.418.07-.59-.074l-5.002-6.938c-.372-.551-.011-1.027.44-1.074h3.234v-1H9.317m0 .004" fill="#f9f9f9" fill-opacity="1" fill-rule="nonzero" stroke="none" stroke-width=".981"/><path id="path1206" d="M31.287 29.533l1.432.938-.962 1.789-1.46-.965.989-1.766m0 .004" fill="#f9f9f9" fill-opacity="1" fill-rule="nonzero" stroke="none" stroke-width=".981"/><path id="path1208" d="M31.975 27.892l1.215.82 5.001-8.688-2.83-1.715-3.39 9.582m.004 0" fill="#f9f9f9" fill-opacity="1" fill-rule="nonzero" stroke="none" stroke-width=".981"/></svg>