<svg height="48" width="48" xmlns="http://www.w3.org/2000/svg" xmlns:xlink="http://www.w3.org/1999/xlink"><linearGradient id="a" gradientUnits="userSpaceOnUse" x1="24.6414256" x2="24.478285" y1="45.068283" y2="25.9966304"><stop offset="0" stop-opacity=".047"/><stop offset="1" stop-opacity="0"/></linearGradient><linearGradient id="b" gradientUnits="userSpaceOnUse" x1="23.534153" x2="23.272678" y1="42.501255" y2="4.263967"><stop offset="0" stop-color="#225aff"/><stop offset="1" stop-color="#2cb9f5"/></linearGradient><linearGradient id="c" gradientUnits="userSpaceOnUse" x1="22.494745" x2="22.315525" y1="32.804983" y2="15.313458"><stop offset="0"/><stop offset="1" stop-color="#171717"/></linearGradient><path d="m2.752 26.22v1.67c0 9.573 5.583 17.281 17.146 17.281h6.93c15.133 0 17.837-11.322 17.837-17.282v-1.668c0 5.96-2.704 17.282-17.837 17.282h-6.93c-11.563 0-17.146-7.708-17.146-17.282z" fill="url(#a)"/><path d="m19.365 2.742h8.495c13.908 0 16.805 11.247 16.805 17.282v7.124c0 5.96-2.705 17.282-17.837 17.282h-6.93c-11.563 0-17.146-7.708-17.146-17.282v-7.124c0-9.574 5.47-17.282 16.613-17.282z" style="stroke:#000;stroke-width:.334;stroke-linecap:square;stroke-linejoin:bevel;stroke-opacity:.078;fill:url(#b)"/><path d="m19.619 14.233-1.414 1.414 8.586 8.586-8.586 8.586 1.414 1.414 10-10-1.414-1.414z" fill="url(#c)"/></svg>