<svg xmlns:osb="http://www.openswatchbook.org/uri/2009/osb" xmlns="http://www.w3.org/2000/svg" xmlns:xlink="http://www.w3.org/1999/xlink" width="48" height="48" version="1.1" id="svg38"><defs id="defs22"><linearGradient id="linearGradient4488"><stop id="stop4490" offset="0" stop-color="#000" stop-opacity=".047"/><stop id="stop4492" offset="1" stop-color="#000" stop-opacity="0"/></linearGradient><style id="style4511"/><style id="style4511-26"/><style id="style4511-9"/><style id="style4552"/><linearGradient id="e-1" y1="41.22" x1="24.392" y2="25.343" x2="20.643" gradientUnits="userSpaceOnUse"><stop stop-color="#334545" id="stop22-8"/><stop offset="1" stop-color="#536161" id="stop24-7"/></linearGradient><style id="style4511-2"/><linearGradient xlink:href="#linearGradient4488" id="linearGradient4540" gradientUnits="userSpaceOnUse" gradientTransform="translate(-62.889 1.994) scale(.3038)" x1="288.112" y1="141.785" x2="287.575" y2="79.008"/><linearGradient osb:paint="solid" id="linearGradient5293"><stop id="stop5295" offset="0" stop-color="#9a89c0" stop-opacity="1"/></linearGradient><linearGradient xlink:href="#e-1" id="linearGradient2525" x1="2.695" y1="23.586" x2="44.717" y2="23.586" gradientUnits="userSpaceOnUse"/><clipPath id="clipPath-248964556"/></defs><style id="style4485" type="text/css"/><path id="path4516" d="M2.75 26.22v1.67c0 9.573 5.583 17.281 17.146 17.281h6.93c15.132 0 17.836-11.322 17.836-17.282v-1.668c0 5.96-2.704 17.282-17.836 17.282h-6.93C8.333 43.503 2.75 35.795 2.75 26.22z" opacity="1" fill="url(#linearGradient4540)" fill-opacity="1" stroke="none" stroke-width="1.1" stroke-linecap="square" stroke-linejoin="bevel" stroke-miterlimit="4" stroke-dasharray="none" stroke-dashoffset="0" stroke-opacity=".078"/><path id="path4518" d="M2.862 27.93v-8.496C2.862 5.526 14.11 2.63 20.145 2.63h7.123c5.96 0 17.282 2.704 17.282 17.836v6.93c0 11.563-7.708 17.146-17.282 17.146h-7.123c-9.575 0-17.283-5.47-17.283-16.613z" opacity="1" fill="url(#linearGradient2525)" fill-opacity="1" stroke="#000" stroke-width=".334" stroke-linecap="square" stroke-linejoin="bevel" stroke-miterlimit="4" stroke-dasharray="none" stroke-dashoffset="0" stroke-opacity=".078"/><path id="path1811" d="M31.296 24.033l-8.568-8.465L29.586 9.6l8.817 8.485v5.498m-7.11.448" fill="#cf9c28" fill-opacity="1" fill-rule="nonzero" stroke="none" stroke-width="1"/><path id="path1813" d="M17.83 37.571l6.858-5.593-9.927-8.39H9.009v5.47m8.817 8.513" fill="#7fa336" fill-opacity="1" fill-rule="nonzero" stroke="none" stroke-width="1"/><path id="path1815" d="M9.013 23.588h10.776l-2.939-2.797L29.586 9.605H17.83l-5.878 6.525-2.94-2.796m0 10.254" fill="#e4c84c" fill-opacity="1" fill-rule="nonzero" stroke="none" stroke-width="1"/><path id="path1817" d="M17.83 37.571l12.735-11.186-2.939-2.797h10.777v10.254l-2.94-2.796-6.857 6.525m-10.776 0" fill="#abcc5b" fill-opacity="1" fill-rule="nonzero" stroke="none" stroke-width="1"/><path id="path1819" d="M9.013 29.061l5.752-5.473H9.013m0 5.473" fill="#5f7827" fill-opacity="1" fill-rule="nonzero" stroke="none" stroke-width="1"/><path id="path1821" d="M22.728 15.57h13.057l-6.2-5.965m-6.857 5.964" fill="#9b7520" fill-opacity="1" fill-rule="nonzero" stroke="none" stroke-width="1"/></svg>