<svg xmlns="http://www.w3.org/2000/svg" width="48" height="48" version="1.1" id="svg38"><defs id="defs22"><style id="style4511"/><style id="style4511-26"/><style id="style4511-9"/><style id="style4552"/><style id="style4511-2"/></defs><style id="style4485" type="text/css"/><path d="M19.45 3.253h8.577c14.042 0 16.967 11.413 16.967 17.537v7.229c0 6.047-2.73 17.537-18.01 17.537h-6.996c-11.675 0-17.312-7.822-17.312-17.537V20.79c0-9.715 5.523-17.537 16.774-17.537z" id="rect4144" opacity="1" fill="#00a6dd" fill-opacity="1" stroke="#000" stroke-width=".338" stroke-linecap="square" stroke-linejoin="bevel" stroke-miterlimit="4" stroke-dasharray="none" stroke-dashoffset="0" stroke-opacity=".078"/><g id="g796" transform="matrix(.90703 0 0 .9391 2.253 1.477)" fill="#fff" stroke-width=".953"><path d="M28.714 26.169l-3.638-3.314a8.25 8.25 0 0 0 1.183-4.273c0-4.519-3.598-8.182-8.035-8.182-4.438 0-8.036 3.663-8.036 8.182s3.598 8.182 8.036 8.182a7.887 7.887 0 0 0 4.172-1.188l3.258 3.709a.306.306 0 0 0 .438 0s.565-.426 1.385-1.26c.82-.835 1.237-1.41 1.237-1.41a.32.32 0 0 0 0-.446zm-10.49-2.996c-2.49 0-4.509-2.056-4.509-4.59 0-2.536 2.02-4.592 4.509-4.592 2.49 0 4.508 2.056 4.508 4.591s-2.019 4.59-4.508 4.59z" id="path11"/><path d="M38.034 14.798l-9.33-3.186-1.606 2.541c.705 1.23 1.008 2.83 1.008 2.83l1.082-1.948 4.153 1.593c-2.22 5.881-2.143 11.978-2.143 11.978l-3.112 3.168s-5.988-.079-11.763 2.183l-1.565-4.229 1.912-1.101s-1.57-.308-2.778-1.027l-2.495 1.636 3.129 9.5s4.48-4.19 15.453-3.187l4.927-5.017c-.986-11.17 3.128-15.734 3.128-15.734z" id="path13"/></g></svg>