<svg xmlns="http://www.w3.org/2000/svg" xmlns:xlink="http://www.w3.org/1999/xlink" width="48" height="48" version="1.1" id="svg38"><defs id="defs22"><linearGradient id="linearGradient4488"><stop id="stop4490" offset="0" stop-color="#000" stop-opacity=".047"/><stop id="stop4492" offset="1" stop-color="#000" stop-opacity="0"/></linearGradient><style id="style4511"/><style id="style4511-26"/><style id="style4511-9"/><style id="style4552"/><style id="style4511-2"/><linearGradient gradientTransform="translate(-63.205 2.216) scale(.3038)" xlink:href="#linearGradient4488" id="linearGradient4160" x1="288.112" y1="141.785" x2="287.575" y2="79.008" gradientUnits="userSpaceOnUse"/><clipPath id="clipPath-717368145"/></defs><style id="style4485" type="text/css"/><path d="M2.433 26.443v1.668c0 9.575 5.583 17.282 17.146 17.282h6.93c15.133 0 17.837-11.322 17.837-17.282v-1.668c0 5.96-2.704 17.282-17.837 17.282h-6.93c-11.563 0-17.146-7.708-17.146-17.282z" id="path4147" opacity="1" fill="url(#linearGradient4160)" fill-opacity="1" stroke="none" stroke-width="1.1" stroke-linecap="square" stroke-linejoin="bevel" stroke-miterlimit="4" stroke-dasharray="none" stroke-dashoffset="0" stroke-opacity=".078"/><path d="M19.046 2.965h8.495c13.908 0 16.805 11.246 16.805 17.282v7.123c0 5.96-2.704 17.282-17.837 17.282h-6.93c-11.562 0-17.146-7.708-17.146-17.282v-7.123c0-9.575 5.47-17.282 16.613-17.282z" id="rect4144" opacity="1" fill="#e33c3c" fill-opacity="1" stroke="#000" stroke-width=".334" stroke-linecap="square" stroke-linejoin="bevel" stroke-miterlimit="4" stroke-dasharray="none" stroke-dashoffset="0" stroke-opacity=".078"/><path id="path380" d="M23.546 14.802c-3.039 0-7.5.176-8.844.219-1.461.129-2.01.203-2.813.875-1.219 1.066-1.5 3.172-1.5 6.375v3.063c0 3.66.5 5.508 1.313 6.188.938.793 1.563.844 2.188.938.242.035 1.949.355 9.563.355 4.746 0 8.828-.23 9.25-.281.68-.086 1.641-.195 2.375-1 1.09-1.219 1.313-3.258 1.313-6.191v-3.527c0-1.898-.113-4.598-1.313-5.723-.906-.754-1.246-.969-3.125-1.063-.531-.023-5.168-.219-8.406-.219m-3.156 3h6v7h2.469l-5.469 5.625-5.469-5.625h2.469m0-7" fill="#fff" fill-opacity="1" fill-rule="nonzero" stroke="none"/></svg>