<svg xmlns="http://www.w3.org/2000/svg" xmlns:xlink="http://www.w3.org/1999/xlink" width="48" height="48" version="1.1" id="svg38"><defs id="defs22"><linearGradient id="linearGradient4488"><stop id="stop4490" offset="0" stop-color="#000" stop-opacity=".047"/><stop id="stop4492" offset="1" stop-color="#000" stop-opacity="0"/></linearGradient><style id="style4511"/><style id="style4511-26"/><style id="style4511-9"/><style id="style4552"/><style id="style4511-2"/><linearGradient gradientTransform="matrix(.3071 0 0 .30202 -63.408 2.469)" xlink:href="#linearGradient4488" id="linearGradient4160" x1="288.112" y1="141.785" x2="287.575" y2="79.008" gradientUnits="userSpaceOnUse"/><linearGradient id="gradiant1" spreadMethod="pad" gradientTransform="matrix(0 38.76481 -38.76867 0 20.664 4.653)" gradientUnits="userSpaceOnUse" y2="0" x2="1" y1=".172" x1=".086"><stop offset="0" id="stop2-3-3" stop-color="#789fcc" stop-opacity="1"/><stop offset="1" id="stop8-6" stop-color="#13498f" stop-opacity="1"/></linearGradient><linearGradient xlink:href="#gradiant1" id="linearGradient1362" x1="3.241" y1="23.935" x2="45.019" y2="23.935" gradientUnits="userSpaceOnUse" gradientTransform="rotate(90 24.13 23.935)"/></defs><style id="style4485" type="text/css"/><g id="g1373"><path id="path4147" d="M2.945 26.554v1.658c0 9.519 5.644 17.181 17.333 17.181h7.006c15.297 0 18.03-11.256 18.03-17.18v-1.66c0 5.925-2.733 17.182-18.03 17.182h-7.006c-11.689 0-17.333-7.663-17.333-17.181z" opacity="1" fill="url(#linearGradient4160)" fill-opacity="1" stroke="none" stroke-width="1.103" stroke-linecap="square" stroke-linejoin="bevel" stroke-miterlimit="4" stroke-dasharray="none" stroke-dashoffset="0" stroke-opacity=".078"/><path id="rect4144" d="M19.74 3.213h8.587c14.059 0 16.987 11.181 16.987 17.18v7.082c0 5.925-2.733 17.181-18.03 17.181h-7.006c-11.689 0-17.333-7.662-17.333-17.18v-7.082c0-9.518 5.53-17.181 16.794-17.181z" opacity="1" fill="url(#linearGradient1362)" fill-opacity="1" stroke="#000" stroke-width=".335" stroke-linecap="square" stroke-linejoin="bevel" stroke-miterlimit="4" stroke-dasharray="none" stroke-dashoffset="0" stroke-opacity=".078"/><g transform="matrix(1.06265 0 0 1.06815 -1.499 -1.701)" id="g18" fill="#fdfffe"><path id="polygon6" d="M34 17h2v-3h-2v2h-2v1h-2v4h2v-2h2z"/><path id="polygon8" d="M38 17h-2v2h2z"/><path id="path10" d="M38 21h-2v-2h-2v2h-2v2h2v3h-2v-3h-2v6.7c0 3.7-2.4 6.7-6 6.7-3.7 0-6-3-6-6.7V17.2c0-3.2 1.3-5.2 4.5-5.2h4.4V9h-4.4v2h-2V9.3c-6 1.5-10.5 7.1-10.5 14.2C10 31.7 15.5 39 24 39s14-7 14-15.2V21z"/><path id="polygon12" d="M27 14h3V9h-2v3h-1z"/><path id="rect14" d="M30 14h2v2h-2z"/><path id="rect16" d="M32 12h1.9v1.9H32z"/></g></g></svg>