<svg xmlns="http://www.w3.org/2000/svg" xmlns:xlink="http://www.w3.org/1999/xlink" width="48" height="48" version="1.1" id="svg38"><defs id="defs22"><linearGradient id="linearGradient4488"><stop id="stop4490" offset="0" stop-color="#000" stop-opacity=".047"/><stop id="stop4492" offset="1" stop-color="#000" stop-opacity="0"/></linearGradient><style id="style4511"/><style id="style4511-26"/><style id="style4511-9"/><style id="style4552"/><style id="style4511-2"/><linearGradient gradientTransform="translate(-63.205 2.216) scale(.3038)" xlink:href="#linearGradient4488" id="linearGradient4160" x1="288.112" y1="141.785" x2="287.575" y2="79.008" gradientUnits="userSpaceOnUse"/></defs><style id="style4485" type="text/css"/><path d="M2.433 26.443v1.668c0 9.575 5.583 17.282 17.146 17.282h6.93c15.133 0 17.837-11.322 17.837-17.282v-1.668c0 5.96-2.704 17.282-17.837 17.282h-6.93c-11.563 0-17.146-7.708-17.146-17.282z" id="path4147" opacity="1" fill="url(#linearGradient4160)" fill-opacity="1" stroke="none" stroke-width="1.1" stroke-linecap="square" stroke-linejoin="bevel" stroke-miterlimit="4" stroke-dasharray="none" stroke-dashoffset="0" stroke-opacity=".078"/><path d="M19.046 2.965h8.495c13.908 0 16.805 11.246 16.805 17.282v7.123c0 5.96-2.704 17.282-17.837 17.282h-6.93c-11.562 0-17.146-7.708-17.146-17.282v-7.123c0-9.575 5.47-17.282 16.613-17.282z" id="rect4144" opacity="1" fill="#d23d5f" fill-opacity="1" stroke="#000" stroke-width=".334" stroke-linecap="square" stroke-linejoin="bevel" stroke-miterlimit="4" stroke-dasharray="none" stroke-dashoffset="0" stroke-opacity=".078"/><g transform="translate(-6.054 -7.966) scale(2.45359)" id="g47" fill="#fff"><g id="left page"><path id="path5" d="M5.34 16.999c-.34.019-.34-.244-.34-.447V10.4c0-.211.287-.4.489-.4.203 0 .489.189.489.4v5.759c2.171-.284 3.582-.368 5.596.229.315.188.172.654-.162.608z"/><path id="path7" d="M8.694 8.9c1.778.094 2.806.774 2.806.774l-.003 5.726C9.329 14.578 7 15.142 7 15.142l.001-5.933S7.392 8.9 8.694 8.9z"/></g><g id="right page"><path id="path10" d="M12.588 16.997c-.335.045-.477-.42-.162-.608 2.014-.597 3.426-.513 5.596-.229V10.4c0-.211.286-.4.489-.4.202 0 .489.189.489.4v6.152c0 .203 0 .466-.34.447z"/><path id="path12" d="M16.999 9.209L17 15.142s-2.329-.564-4.497.258L12.5 9.674s1.028-.68 2.806-.774c1.302 0 1.693.309 1.693.309z"/></g></g></svg>