<?xml version="1.0" encoding="UTF-8" standalone="no"?>
<svg
   xmlns:dc="http://purl.org/dc/elements/1.1/"
   xmlns:cc="http://creativecommons.org/ns#"
   xmlns:rdf="http://www.w3.org/1999/02/22-rdf-syntax-ns#"
   xmlns:svg="http://www.w3.org/2000/svg"
   xmlns="http://www.w3.org/2000/svg"
   xmlns:sodipodi="http://sodipodi.sourceforge.net/DTD/sodipodi-0.dtd"
   xmlns:inkscape="http://www.inkscape.org/namespaces/inkscape"
   width="100%"
   height="100%"
   viewBox="0 0 96 96"
   version="1.1"
   xml:space="preserve"
   style="fill-rule:evenodd;clip-rule:evenodd;stroke-linejoin:round;stroke-miterlimit:1.41421;"
   id="svg18"
   sodipodi:docname="emblem-personal.svg"
   inkscape:version="0.92.4 5da689c313, 2019-01-14"><metadata
     id="metadata22"><rdf:RDF><cc:Work
         rdf:about=""><dc:format>image/svg+xml</dc:format><dc:type
           rdf:resource="http://purl.org/dc/dcmitype/StillImage" /><dc:title></dc:title></cc:Work></rdf:RDF></metadata><sodipodi:namedview
     pagecolor="#ffffff"
     bordercolor="#666666"
     borderopacity="1"
     objecttolerance="10"
     gridtolerance="10"
     guidetolerance="10"
     inkscape:pageopacity="0"
     inkscape:pageshadow="2"
     inkscape:window-width="640"
     inkscape:window-height="480"
     id="namedview20"
     showgrid="false"
     inkscape:zoom="2.4583333"
     inkscape:cx="48"
     inkscape:cy="48"
     inkscape:window-x="0"
     inkscape:window-y="24"
     inkscape:window-maximized="0"
     inkscape:current-layer="svg18" /><path
     d="M48,16c-9.487,0 -17.091,7.145 -17.091,16c0.021,0.943 0.092,2.306 0.182,3.455c-1.622,0.688 -1.741,3.846 -0.364,7.09c0.546,1.287 1.242,2.275 2,3.091c0.185,0.912 0.136,1.322 0.364,2.364c0.635,1.906 3.141,5.643 5.454,8.727c0.227,2.369 0.463,4.76 0,7.455c-6.666,5.531 -23.843,7.91 -23.818,13.636l-0.363,2.182l67.272,0l-0.363,-2.182c-0.028,-4.901 -17.233,-7.91 -23.818,-13.636c-0.267,-2.192 -0.318,-4.387 -0.182,-6.546c2.108,-3.253 4.928,-7.513 5.636,-9.636c0.254,-1.075 0.347,-1.801 0.546,-2.727c0.631,-0.766 1.171,-1.631 1.636,-2.728c1.308,-3.082 1.224,-6.025 -0.182,-6.909c0.083,-1.242 0.145,-2.563 0.182,-3.636c0,-8.855 -7.604,-16 -17.091,-16Z"
     style="fill:none;stroke:#000000;stroke-width:5px;stroke-opacity:1"
     id="path2" /><path
     d="M48,16c-9.487,0 -17.091,7.145 -17.091,16c0.021,0.943 0.092,2.306 0.182,3.455c-1.622,0.688 -1.741,3.846 -0.364,7.09c0.546,1.287 1.242,2.275 2,3.091c0.185,0.912 0.136,1.322 0.364,2.364c0.635,1.906 3.141,5.643 5.454,8.727c0.227,2.369 0.463,4.76 0,7.455c-6.666,5.531 -23.843,7.91 -23.818,13.636l-0.363,2.182l67.272,0l-0.363,-2.182c-0.028,-4.901 -17.233,-7.91 -23.818,-13.636c-0.267,-2.192 -0.318,-4.387 -0.182,-6.546c2.108,-3.253 4.928,-7.513 5.636,-9.636c0.254,-1.075 0.347,-1.801 0.546,-2.727c0.631,-0.766 1.171,-1.631 1.636,-2.728c1.308,-3.082 1.224,-6.025 -0.182,-6.909c0.083,-1.242 0.145,-2.563 0.182,-3.636c0,-8.855 -7.604,-16 -17.091,-16Z"
     style="fill:#ffffff;fill-opacity:1"
     id="path4" /><defs
     id="defs16"><linearGradient
       id="_Linear1"
       x1="0"
       y1="0"
       x2="1"
       y2="0"
       gradientUnits="userSpaceOnUse"
       gradientTransform="matrix(5.59368e-14,-913.518,913.518,5.59368e-14,-1045.71,995.754)"><stop
         offset="0"
         style="stop-color:#fff;stop-opacity:0.239216"
         id="stop6" /><stop
         offset="1"
         style="stop-color:#b3b3b3;stop-opacity:1"
         id="stop8" /></linearGradient><linearGradient
       id="_Linear2"
       x1="0"
       y1="0"
       x2="1"
       y2="0"
       gradientUnits="userSpaceOnUse"
       gradientTransform="matrix(67.272,0,0,84.1644,14.364,48)"><stop
         offset="0"
         style="stop-color:#292929;stop-opacity:1"
         id="stop11" /><stop
         offset="1"
         style="stop-color:#353535;stop-opacity:1"
         id="stop13" /></linearGradient></defs></svg>