<?xml version="1.0" encoding="UTF-8" standalone="no"?>
<svg
   xmlns:serif="http://www.serif.com/"
   xmlns:dc="http://purl.org/dc/elements/1.1/"
   xmlns:cc="http://creativecommons.org/ns#"
   xmlns:rdf="http://www.w3.org/1999/02/22-rdf-syntax-ns#"
   xmlns:svg="http://www.w3.org/2000/svg"
   xmlns="http://www.w3.org/2000/svg"
   xmlns:sodipodi="http://sodipodi.sourceforge.net/DTD/sodipodi-0.dtd"
   xmlns:inkscape="http://www.inkscape.org/namespaces/inkscape"
   style="clip-rule:evenodd;fill-rule:evenodd;stroke-linejoin:round;stroke-miterlimit:1.41421"
   version="1.1"
   viewBox="0 0 96 96"
   id="svg18"
   sodipodi:docname="emblem-generic.svg"
   inkscape:version="0.92.4 5da689c313, 2019-01-14">
  <metadata
     id="metadata22">
    <rdf:RDF>
      <cc:Work
         rdf:about="">
        <dc:format>image/svg+xml</dc:format>
        <dc:type
           rdf:resource="http://purl.org/dc/dcmitype/StillImage" />
        <dc:title></dc:title>
      </cc:Work>
    </rdf:RDF>
  </metadata>
  <sodipodi:namedview
     pagecolor="#ffffff"
     bordercolor="#666666"
     borderopacity="1"
     objecttolerance="10"
     gridtolerance="10"
     guidetolerance="10"
     inkscape:pageopacity="0"
     inkscape:pageshadow="2"
     inkscape:window-width="1115"
     inkscape:window-height="780"
     id="namedview20"
     showgrid="false"
     inkscape:zoom="2.4583333"
     inkscape:cx="48"
     inkscape:cy="48"
     inkscape:window-x="0"
     inkscape:window-y="24"
     inkscape:window-maximized="0"
     inkscape:current-layer="svg18" />
  <path
     d="m48 16c-17.673 0-32 14.327-32 32s14.327 32 32 32 32-14.327 32-32-14.327-32-32-32zm0 8c13.255 0 24 10.745 24 24s-10.745 24-24 24-24-10.745-24-24 10.745-24 24-24zm0 4c-2.216 0-4 1.784-4 4v9l-7.875-4.5c-1.919-1.108-4.392-0.419-5.5 1.5s-0.419 4.392 1.5 5.5l7.75 4.5-7.75 4.5c-1.919 1.108-2.608 3.581-1.5 5.5s3.581 2.608 5.5 1.5l7.875-4.5v9c0 2.216 1.784 4 4 4s4-1.784 4-4v-9l7.875 4.5c1.919 1.108 4.392 0.419 5.5-1.5s0.419-4.392-1.5-5.5l-7.75-4.5 7.75-4.5c1.919-1.108 2.608-3.581 1.5-5.5s-3.581-2.608-5.5-1.5l-7.875 4.5v-9c0-2.216-1.784-4-4-4z"
     style="fill:none;stroke-width:5px;stroke:#000000;stroke-opacity:1"
     id="path2" />
  <path
     d="m48 16c-17.673 0-32 14.327-32 32s14.327 32 32 32 32-14.327 32-32-14.327-32-32-32zm0 8c13.255 0 24 10.745 24 24s-10.745 24-24 24-24-10.745-24-24 10.745-24 24-24zm0 4c-2.216 0-4 1.784-4 4v9l-7.875-4.5c-1.919-1.108-4.392-0.419-5.5 1.5s-0.419 4.392 1.5 5.5l7.75 4.5-7.75 4.5c-1.919 1.108-2.608 3.581-1.5 5.5s3.581 2.608 5.5 1.5l7.875-4.5v9c0 2.216 1.784 4 4 4s4-1.784 4-4v-9l7.875 4.5c1.919 1.108 4.392 0.419 5.5-1.5s0.419-4.392-1.5-5.5l-7.75-4.5 7.75-4.5c1.919-1.108 2.608-3.581 1.5-5.5s-3.581-2.608-5.5-1.5l-7.875 4.5v-9c0-2.216-1.784-4-4-4z"
     style="fill-rule:nonzero;fill:#ffffff;fill-opacity:1"
     serif:id="path2932"
     id="path4" />
  <defs
     id="defs16">
    <linearGradient
       id="_Linear1"
       x2="1"
       gradientTransform="matrix(64,0,0,64,16,48)"
       gradientUnits="userSpaceOnUse">
      <stop
         style="stop-color:#fff;stop-opacity:.211765"
         offset="0"
         id="stop6" />
      <stop
         style="stop-color:#b3b3b3"
         offset="1"
         id="stop8" />
    </linearGradient>
    <linearGradient
       id="_Linear2"
       x2="1"
       gradientTransform="matrix(-.621527 61.0699 -61.0699 -.621527 49.0363 19.0041)"
       gradientUnits="userSpaceOnUse">
      <stop
         style="stop-color:#292929"
         offset="0"
         id="stop11" />
      <stop
         style="stop-color:#353535"
         offset="1"
         id="stop13" />
    </linearGradient>
  </defs>
</svg>
