<?xml version="1.0" encoding="UTF-8" standalone="no"?>
<svg
   xmlns:dc="http://purl.org/dc/elements/1.1/"
   xmlns:cc="http://creativecommons.org/ns#"
   xmlns:rdf="http://www.w3.org/1999/02/22-rdf-syntax-ns#"
   xmlns:svg="http://www.w3.org/2000/svg"
   xmlns="http://www.w3.org/2000/svg"
   xmlns:sodipodi="http://sodipodi.sourceforge.net/DTD/sodipodi-0.dtd"
   xmlns:inkscape="http://www.inkscape.org/namespaces/inkscape"
   width="100%"
   height="100%"
   viewBox="0 0 96 96"
   version="1.1"
   xml:space="preserve"
   style="fill-rule:evenodd;clip-rule:evenodd;stroke-linejoin:round;stroke-miterlimit:1.41421;"
   id="svg18"
   sodipodi:docname="emblem-question.svg"
   inkscape:version="0.92.4 5da689c313, 2019-01-14"><metadata
     id="metadata22"><rdf:RDF><cc:Work
         rdf:about=""><dc:format>image/svg+xml</dc:format><dc:type
           rdf:resource="http://purl.org/dc/dcmitype/StillImage" /><dc:title></dc:title></cc:Work></rdf:RDF></metadata><sodipodi:namedview
     pagecolor="#ffffff"
     bordercolor="#666666"
     borderopacity="1"
     objecttolerance="10"
     gridtolerance="10"
     guidetolerance="10"
     inkscape:pageopacity="0"
     inkscape:pageshadow="2"
     inkscape:window-width="640"
     inkscape:window-height="480"
     id="namedview20"
     showgrid="false"
     inkscape:zoom="2.4583333"
     inkscape:cx="48"
     inkscape:cy="48"
     inkscape:window-x="0"
     inkscape:window-y="24"
     inkscape:window-maximized="0"
     inkscape:current-layer="svg18" /><path
     d="M51.742,58.987l-12.907,0c0,-3.927 0.45,-7.217 1.349,-9.87c0.9,-2.654 2.549,-5.015 4.947,-7.083c2.099,-1.739 3.755,-3.403 4.969,-4.992c1.214,-1.589 1.821,-3.327 1.821,-5.216c0,-4.527 -1.933,-6.791 -5.801,-6.791c-1.559,0 -2.953,0.578 -4.182,1.732c-1.229,1.154 -1.873,3.02 -1.933,5.598l-15.245,0c0.12,-6.685 2.226,-11.527 6.318,-14.525c4.092,-2.998 9.106,-4.497 15.042,-4.497c6.566,0 11.715,1.514 15.447,4.542c3.733,3.028 5.599,7.45 5.599,13.266c0,3.898 -1.049,7.06 -3.148,9.489c-2.098,2.428 -4.662,5.021 -7.69,7.78c-1.768,1.528 -2.96,3.08 -3.575,4.654c-0.614,1.574 -0.951,3.545 -1.011,5.913Zm-14.75,13.671c0,-2.158 0.779,-3.965 2.338,-5.419c1.559,-1.454 3.583,-2.181 6.071,-2.181c2.488,0 4.512,0.727 6.071,2.181c1.559,1.454 2.338,3.261 2.338,5.419c0,2.159 -0.779,3.965 -2.338,5.419c-1.559,1.454 -3.583,2.181 -6.071,2.181c-2.488,0 -4.512,-0.727 -6.071,-2.181c-1.559,-1.454 -2.338,-3.26 -2.338,-5.419Z"
     style="fill:none;stroke:#000000;stroke-width:4.76px;stroke-opacity:1"
     id="path2" /><path
     d="M51.742,58.987l-12.907,0c0,-3.927 0.45,-7.217 1.349,-9.87c0.9,-2.654 2.549,-5.015 4.947,-7.083c2.099,-1.739 3.755,-3.403 4.969,-4.992c1.214,-1.589 1.821,-3.327 1.821,-5.216c0,-4.527 -1.933,-6.791 -5.801,-6.791c-1.559,0 -2.953,0.578 -4.182,1.732c-1.229,1.154 -1.873,3.02 -1.933,5.598l-15.245,0c0.12,-6.685 2.226,-11.527 6.318,-14.525c4.092,-2.998 9.106,-4.497 15.042,-4.497c6.566,0 11.715,1.514 15.447,4.542c3.733,3.028 5.599,7.45 5.599,13.266c0,3.898 -1.049,7.06 -3.148,9.489c-2.098,2.428 -4.662,5.021 -7.69,7.78c-1.768,1.528 -2.96,3.08 -3.575,4.654c-0.614,1.574 -0.951,3.545 -1.011,5.913Zm-14.75,13.671c0,-2.158 0.779,-3.965 2.338,-5.419c1.559,-1.454 3.583,-2.181 6.071,-2.181c2.488,0 4.512,0.727 6.071,2.181c1.559,1.454 2.338,3.261 2.338,5.419c0,2.159 -0.779,3.965 -2.338,5.419c-1.559,1.454 -3.583,2.181 -6.071,2.181c-2.488,0 -4.512,-0.727 -6.071,-2.181c-1.559,-1.454 -2.338,-3.26 -2.338,-5.419Z"
     style="fill:#ffffff;fill-rule:nonzero;fill-opacity:1"
     id="path4" /><defs
     id="defs16"><linearGradient
       id="_Linear1"
       x1="0"
       y1="0"
       x2="1"
       y2="0"
       gradientUnits="userSpaceOnUse"
       gradientTransform="matrix(5967.14,-12607.6,12607.6,5967.14,-20437.8,6294.91)"><stop
         offset="0"
         style="stop-color:#fff;stop-opacity:0.239216"
         id="stop6" /><stop
         offset="1"
         style="stop-color:#b3b3b3;stop-opacity:1"
         id="stop8" /></linearGradient><linearGradient
       id="_Linear2"
       x1="0"
       y1="0"
       x2="1"
       y2="0"
       gradientUnits="userSpaceOnUse"
       gradientTransform="matrix(2.90103e-15,-74.7585,47.3775,4.57764e-15,732.501,83.8182)"><stop
         offset="0"
         style="stop-color:#292929;stop-opacity:1"
         id="stop11" /><stop
         offset="1"
         style="stop-color:#353535;stop-opacity:1"
         id="stop13" /></linearGradient></defs></svg>