<?xml version="1.0" encoding="UTF-8" standalone="no"?>
<svg
   xmlns:dc="http://purl.org/dc/elements/1.1/"
   xmlns:cc="http://creativecommons.org/ns#"
   xmlns:rdf="http://www.w3.org/1999/02/22-rdf-syntax-ns#"
   xmlns:svg="http://www.w3.org/2000/svg"
   xmlns="http://www.w3.org/2000/svg"
   xmlns:sodipodi="http://sodipodi.sourceforge.net/DTD/sodipodi-0.dtd"
   xmlns:inkscape="http://www.inkscape.org/namespaces/inkscape"
   width="100%"
   height="100%"
   viewBox="0 0 96 96"
   version="1.1"
   xml:space="preserve"
   style="fill-rule:evenodd;clip-rule:evenodd;stroke-linejoin:round;stroke-miterlimit:1.41421;"
   id="svg17"
   sodipodi:docname="emblem-remove.svg"
   inkscape:version="0.92.4 5da689c313, 2019-01-14"><metadata
     id="metadata21"><rdf:RDF><cc:Work
         rdf:about=""><dc:format>image/svg+xml</dc:format><dc:type
           rdf:resource="http://purl.org/dc/dcmitype/StillImage" /><dc:title></dc:title></cc:Work></rdf:RDF></metadata><sodipodi:namedview
     pagecolor="#ffffff"
     bordercolor="#666666"
     borderopacity="1"
     objecttolerance="10"
     gridtolerance="10"
     guidetolerance="10"
     inkscape:pageopacity="0"
     inkscape:pageshadow="2"
     inkscape:window-width="640"
     inkscape:window-height="480"
     id="namedview19"
     showgrid="false"
     inkscape:zoom="2.4583333"
     inkscape:cx="48"
     inkscape:cy="48"
     inkscape:window-x="0"
     inkscape:window-y="24"
     inkscape:window-maximized="0"
     inkscape:current-layer="svg17" /><path
     d="M48,16c-17.664,0 -32,14.336 -32,32c0,17.664 14.336,32 32,32c17.664,0 32,-14.336 32,-32c0,-17.664 -14.336,-32 -32,-32Zm21.586,24.749l0,14.596l-43.07,0.004l-0.008,-14.588l43.078,-0.012Z"
     style="fill:none;stroke:#000000;stroke-width:5px;stroke-opacity:1"
     id="path2" /><path
     id="path2505"
     d="M48,16c-17.664,0 -32,14.336 -32,32c0,17.664 14.336,32 32,32c17.664,0 32,-14.336 32,-32c0,-17.664 -14.336,-32 -32,-32Zm21.586,24.749l0,14.596l-43.07,0.004l-0.008,-14.588l43.078,-0.012Z"
     style="fill:#ffffff;fill-rule:nonzero;fill-opacity:1" /><defs
     id="defs15"><linearGradient
       id="_Linear1"
       x1="0"
       y1="0"
       x2="1"
       y2="0"
       gradientUnits="userSpaceOnUse"
       gradientTransform="matrix(-2.31326,-993.541,993.541,-2.31326,-1010.43,1078.25)"><stop
         offset="0"
         style="stop-color:#8f8f8f;stop-opacity:0.301961"
         id="stop5" /><stop
         offset="1"
         style="stop-color:#8f8f8f;stop-opacity:1"
         id="stop7" /></linearGradient><linearGradient
       id="_Linear2"
       x1="0"
       y1="0"
       x2="1"
       y2="0"
       gradientUnits="userSpaceOnUse"
       gradientTransform="matrix(-0.621527,61.0699,-61.0699,-0.621527,-928.082,9.05967)"><stop
         offset="0"
         style="stop-color:#292929;stop-opacity:1"
         id="stop10" /><stop
         offset="1"
         style="stop-color:#353535;stop-opacity:1"
         id="stop12" /></linearGradient></defs></svg>