<?xml version="1.0" encoding="UTF-8" standalone="no"?>
<svg
   xmlns:dc="http://purl.org/dc/elements/1.1/"
   xmlns:cc="http://creativecommons.org/ns#"
   xmlns:rdf="http://www.w3.org/1999/02/22-rdf-syntax-ns#"
   xmlns:svg="http://www.w3.org/2000/svg"
   xmlns="http://www.w3.org/2000/svg"
   xmlns:sodipodi="http://sodipodi.sourceforge.net/DTD/sodipodi-0.dtd"
   xmlns:inkscape="http://www.inkscape.org/namespaces/inkscape"
   width="100%"
   height="100%"
   viewBox="0 0 96 96"
   version="1.1"
   xml:space="preserve"
   style="fill-rule:evenodd;clip-rule:evenodd;stroke-linejoin:round;stroke-miterlimit:1.41421;"
   id="svg18"
   sodipodi:docname="emblem-encrypted-unlocked.svg"
   inkscape:version="0.92.4 5da689c313, 2019-01-14"><metadata
     id="metadata22"><rdf:RDF><cc:Work
         rdf:about=""><dc:format>image/svg+xml</dc:format><dc:type
           rdf:resource="http://purl.org/dc/dcmitype/StillImage" /><dc:title></dc:title></cc:Work></rdf:RDF></metadata><sodipodi:namedview
     pagecolor="#ffffff"
     bordercolor="#666666"
     borderopacity="1"
     objecttolerance="10"
     gridtolerance="10"
     guidetolerance="10"
     inkscape:pageopacity="0"
     inkscape:pageshadow="2"
     inkscape:window-width="640"
     inkscape:window-height="480"
     id="namedview20"
     showgrid="false"
     inkscape:zoom="2.4583333"
     inkscape:cx="48"
     inkscape:cy="48"
     inkscape:window-x="0"
     inkscape:window-y="24"
     inkscape:window-maximized="0"
     inkscape:current-layer="svg18" /><path
     d="M40.105,14.955l15.79,0c4.374,0 10.014,4.983 10.014,9.356l0,15.791c4.374,0 5.776,3.521 5.776,7.895l0,23.571c0,4.374 -3.521,8.009 -7.895,8.009l-31.58,0c-4.374,0 -7.895,-3.521 -7.895,-7.895l0,-23.685c0,-4.374 1.621,-7.895 5.995,-7.895l25.585,0l0,-11.843c0,-2.187 -1.76,-3.948 -3.947,-3.948l-7.896,0c-2.187,0 -3.947,1.761 -3.947,3.948l0,2.809l-9.795,0l0,-6.757c0,-4.373 5.421,-9.356 9.795,-9.356Z"
     style="fill:none;stroke:#000000;stroke-width:3px;stroke-opacity:1"
     id="path2" /><path
     d="M40.105,14.955l15.79,0c4.374,0 10.014,4.983 10.014,9.356l0,15.791c4.374,0 5.776,3.521 5.776,7.895l0,23.571c0,4.374 -3.521,8.009 -7.895,8.009l-31.58,0c-4.374,0 -7.895,-3.521 -7.895,-7.895l0,-23.685c0,-4.374 1.621,-7.895 5.995,-7.895l25.585,0l0,-11.843c0,-2.187 -1.76,-3.948 -3.947,-3.948l-7.896,0c-2.187,0 -3.947,1.761 -3.947,3.948l0,2.809l-9.795,0l0,-6.757c0,-4.373 5.421,-9.356 9.795,-9.356Z"
     style="fill:#ffffff;fill-opacity:1"
     id="path4" /><defs
     id="defs16"><linearGradient
       id="_Linear1"
       x1="0"
       y1="0"
       x2="1"
       y2="0"
       gradientUnits="userSpaceOnUse"
       gradientTransform="matrix(9.95699e-14,-1626.1,1626.1,9.95699e-14,-995.03,1708.18)"><stop
         offset="0"
         style="stop-color:#fff;stop-opacity:0.211765"
         id="stop6" /><stop
         offset="1"
         style="stop-color:#b3b3b3;stop-opacity:1"
         id="stop8" /></linearGradient><linearGradient
       id="_Linear2"
       x1="0"
       y1="0"
       x2="1"
       y2="0"
       gradientUnits="userSpaceOnUse"
       gradientTransform="matrix(3.90943e-15,63.8458,-63.8458,3.90943e-15,48,15.3431)"><stop
         offset="0"
         style="stop-color:#292929;stop-opacity:1"
         id="stop11" /><stop
         offset="1"
         style="stop-color:#353535;stop-opacity:1"
         id="stop13" /></linearGradient></defs></svg>