<?xml version="1.0" encoding="UTF-8" standalone="no"?>
<svg
   xmlns:dc="http://purl.org/dc/elements/1.1/"
   xmlns:cc="http://creativecommons.org/ns#"
   xmlns:rdf="http://www.w3.org/1999/02/22-rdf-syntax-ns#"
   xmlns:svg="http://www.w3.org/2000/svg"
   xmlns="http://www.w3.org/2000/svg"
   xmlns:sodipodi="http://sodipodi.sourceforge.net/DTD/sodipodi-0.dtd"
   xmlns:inkscape="http://www.inkscape.org/namespaces/inkscape"
   width="100%"
   height="100%"
   viewBox="0 0 96 96"
   version="1.1"
   xml:space="preserve"
   style="fill-rule:evenodd;clip-rule:evenodd;stroke-linejoin:round;stroke-miterlimit:1.41421;"
   id="svg18"
   sodipodi:docname="emblem-sound.svg"
   inkscape:version="0.92.4 5da689c313, 2019-01-14"><metadata
     id="metadata22"><rdf:RDF><cc:Work
         rdf:about=""><dc:format>image/svg+xml</dc:format><dc:type
           rdf:resource="http://purl.org/dc/dcmitype/StillImage" /><dc:title></dc:title></cc:Work></rdf:RDF></metadata><sodipodi:namedview
     pagecolor="#ffffff"
     bordercolor="#666666"
     borderopacity="1"
     objecttolerance="10"
     gridtolerance="10"
     guidetolerance="10"
     inkscape:pageopacity="0"
     inkscape:pageshadow="2"
     inkscape:window-width="1239"
     inkscape:window-height="872"
     id="namedview20"
     showgrid="false"
     inkscape:zoom="2.4583333"
     inkscape:cx="48"
     inkscape:cy="48"
     inkscape:window-x="0"
     inkscape:window-y="24"
     inkscape:window-maximized="0"
     inkscape:current-layer="svg18" /><path
     d="M50.081,17l0,41.834c-3.322,-1.302 -7.502,-1.423 -11.659,0c-7.495,2.567 -11.917,9.012 -9.797,14.5c2.12,5.489 9.944,7.857 17.439,5.291c6.134,-2.1 10.186,-6.797 10.287,-11.463c0.007,-0.323 0.032,-0.658 0,-0.98l0,-33.702c5.513,3.501 12.655,10.781 12.541,25.277c4.645,-28.612 -9.893,-25.522 -18.811,-40.757Z"
     style="fill:none;stroke:#000000;stroke-width:3px;stroke-opacity:1"
     id="path2" /><path
     d="M50.081,17l0,41.834c-3.322,-1.302 -7.502,-1.423 -11.659,0c-7.495,2.567 -11.917,9.012 -9.797,14.5c2.12,5.489 9.944,7.857 17.439,5.291c6.134,-2.1 10.186,-6.797 10.287,-11.463c0.007,-0.323 0.032,-0.658 0,-0.98l0,-33.702c5.513,3.501 12.655,10.781 12.541,25.277c4.645,-28.612 -9.893,-25.522 -18.811,-40.757Z"
     style="fill:#ffffff;fill-opacity:1"
     id="path4" /><defs
     id="defs16"><linearGradient
       id="_Linear1"
       x1="0"
       y1="0"
       x2="1"
       y2="0"
       gradientUnits="userSpaceOnUse"
       gradientTransform="matrix(43.1514,-1823.85,1823.85,43.1514,-1138.58,1879.69)"><stop
         offset="0"
         style="stop-color:#fff;stop-opacity:0.211765"
         id="stop6" /><stop
         offset="1"
         style="stop-color:#b3b3b3;stop-opacity:1"
         id="stop8" /></linearGradient><linearGradient
       id="_Linear2"
       x1="0"
       y1="0"
       x2="1"
       y2="0"
       gradientUnits="userSpaceOnUse"
       gradientTransform="matrix(41.6918,0,0,82.4026,28.0939,48.3301)"><stop
         offset="0"
         style="stop-color:#292929;stop-opacity:1"
         id="stop11" /><stop
         offset="1"
         style="stop-color:#353535;stop-opacity:1"
         id="stop13" /></linearGradient></defs></svg>