<?xml version="1.0" encoding="UTF-8" standalone="no"?>
<svg
   xmlns:dc="http://purl.org/dc/elements/1.1/"
   xmlns:cc="http://creativecommons.org/ns#"
   xmlns:rdf="http://www.w3.org/1999/02/22-rdf-syntax-ns#"
   xmlns:svg="http://www.w3.org/2000/svg"
   xmlns="http://www.w3.org/2000/svg"
   xmlns:sodipodi="http://sodipodi.sourceforge.net/DTD/sodipodi-0.dtd"
   xmlns:inkscape="http://www.inkscape.org/namespaces/inkscape"
   width="100%"
   height="100%"
   viewBox="0 0 96 96"
   version="1.1"
   xml:space="preserve"
   style="fill-rule:evenodd;clip-rule:evenodd;stroke-linejoin:round;stroke-miterlimit:1.41421;"
   id="svg18"
   sodipodi:docname="emblem-dropbox-syncing.svg"
   inkscape:version="0.92.4 5da689c313, 2019-01-14"><metadata
     id="metadata22"><rdf:RDF><cc:Work
         rdf:about=""><dc:format>image/svg+xml</dc:format><dc:type
           rdf:resource="http://purl.org/dc/dcmitype/StillImage" /><dc:title></dc:title></cc:Work></rdf:RDF></metadata><sodipodi:namedview
     pagecolor="#ffffff"
     bordercolor="#666666"
     borderopacity="1"
     objecttolerance="10"
     gridtolerance="10"
     guidetolerance="10"
     inkscape:pageopacity="0"
     inkscape:pageshadow="2"
     inkscape:window-width="1496"
     inkscape:window-height="921"
     id="namedview20"
     showgrid="false"
     inkscape:zoom="2.4583333"
     inkscape:cx="47.999999"
     inkscape:cy="47.999999"
     inkscape:window-x="0"
     inkscape:window-y="24"
     inkscape:window-maximized="0"
     inkscape:current-layer="svg18" /><path
     d="M48.25,20.375c-14.72,0 -26.731,11.504 -27.625,26l-8.625,0l13.875,20.75l13.875,-20.75l-9.875,0c0.852,-9.405 8.745,-16.75 18.375,-16.75c3.562,0 6.933,1.007 9.75,2.75l4.75,-7.875c-4.217,-2.593 -9.19,-4.125 -14.5,-4.125Zm21.875,8l-13.875,20.75l9.875,0c-0.852,9.405 -8.745,16.75 -18.375,16.75c-3.562,0 -6.933,-1.007 -9.75,-2.75l-4.75,7.875c4.217,2.593 9.19,4.125 14.5,4.125c14.72,0 26.731,-11.504 27.625,-26l8.625,0l-13.875,-20.75Z"
     style="fill:none;stroke:#000000;stroke-width:5px;stroke-opacity:1"
     id="path2" /><path
     d="M48.25,20.375c-14.72,0 -26.731,11.504 -27.625,26l-8.625,0l13.875,20.75l13.875,-20.75l-9.875,0c0.852,-9.405 8.745,-16.75 18.375,-16.75c3.562,0 6.933,1.007 9.75,2.75l4.75,-7.875c-4.217,-2.593 -9.19,-4.125 -14.5,-4.125Zm21.875,8l-13.875,20.75l9.875,0c-0.852,9.405 -8.745,16.75 -18.375,16.75c-3.562,0 -6.933,-1.007 -9.75,-2.75l-4.75,7.875c4.217,2.593 9.19,4.125 14.5,4.125c14.72,0 26.731,-11.504 27.625,-26l8.625,0l-13.875,-20.75Z"
     style="fill:#ffffff;fill-opacity:1"
     id="path4" /><defs
     id="defs16"><linearGradient
       id="_Linear1"
       x1="0"
       y1="0"
       x2="1"
       y2="0"
       gradientUnits="userSpaceOnUse"
       gradientTransform="matrix(-25.7639,-657.774,657.774,-25.7639,-1142.27,783.318)"><stop
         offset="0"
         style="stop-color:#fff;stop-opacity:0.219608"
         id="stop6" /><stop
         offset="1"
         style="stop-color:#b3b3b3;stop-opacity:1"
         id="stop8" /></linearGradient><linearGradient
       id="_Linear2"
       x1="0"
       y1="0"
       x2="1"
       y2="0"
       gradientUnits="userSpaceOnUse"
       gradientTransform="matrix(72,0,0,54.75,12,47.75)"><stop
         offset="0"
         style="stop-color:#292929;stop-opacity:1"
         id="stop11" /><stop
         offset="1"
         style="stop-color:#353535;stop-opacity:1"
         id="stop13" /></linearGradient></defs></svg>