<?xml version="1.0" encoding="UTF-8" standalone="no"?>
<svg
   xmlns:dc="http://purl.org/dc/elements/1.1/"
   xmlns:cc="http://creativecommons.org/ns#"
   xmlns:rdf="http://www.w3.org/1999/02/22-rdf-syntax-ns#"
   xmlns:svg="http://www.w3.org/2000/svg"
   xmlns="http://www.w3.org/2000/svg"
   xmlns:sodipodi="http://sodipodi.sourceforge.net/DTD/sodipodi-0.dtd"
   xmlns:inkscape="http://www.inkscape.org/namespaces/inkscape"
   width="100%"
   height="100%"
   viewBox="0 0 96 96"
   version="1.1"
   xml:space="preserve"
   style="fill-rule:evenodd;clip-rule:evenodd;stroke-linejoin:round;stroke-miterlimit:1.41421;"
   id="svg18"
   sodipodi:docname="emblem-mounted.svg"
   inkscape:version="0.92.4 5da689c313, 2019-01-14"><metadata
     id="metadata22"><rdf:RDF><cc:Work
         rdf:about=""><dc:format>image/svg+xml</dc:format><dc:type
           rdf:resource="http://purl.org/dc/dcmitype/StillImage" /><dc:title></dc:title></cc:Work></rdf:RDF></metadata><sodipodi:namedview
     pagecolor="#ffffff"
     bordercolor="#666666"
     borderopacity="1"
     objecttolerance="10"
     gridtolerance="10"
     guidetolerance="10"
     inkscape:pageopacity="0"
     inkscape:pageshadow="2"
     inkscape:window-width="1272"
     inkscape:window-height="798"
     id="namedview20"
     showgrid="false"
     inkscape:zoom="2.4583333"
     inkscape:cx="48"
     inkscape:cy="48"
     inkscape:window-x="0"
     inkscape:window-y="24"
     inkscape:window-maximized="0"
     inkscape:current-layer="svg18" /><path
     d="M56.145,69.409l-7.654,-7.655l-15.982,15.982c0,0 -7.394,7.393 -13.33,1.457c-5.937,-5.937 1.456,-13.331 1.456,-13.331l15.982,-15.981l-7.655,-7.655l12.844,-12.845l3.054,3.053l5.529,-5.476l5.543,5.427l-5.52,5.601l9.921,9.921l5.368,-5.663l5.724,5.756l-5.339,5.661l2.904,2.904l-12.845,12.844Z"
     style="fill:none;stroke:#000000;stroke-width:5px;stroke-opacity:1"
     id="path2" /><path
     d="M56.145,69.409l-7.654,-7.655l-15.982,15.982c0,0 -7.394,7.393 -13.33,1.457c-5.937,-5.937 1.456,-13.331 1.456,-13.331l15.982,-15.981l-7.655,-7.655l12.844,-12.845l3.119,3.118l5.464,-5.541l5.543,5.427l-5.457,5.665l9.843,9.842l5.383,-5.648l5.724,5.756l-5.281,5.719l2.846,2.846l-12.845,12.844Z"
     style="fill:#ffffff;fill-opacity:1"
     id="path4" /><defs
     id="defs16"><linearGradient
       id="_Linear1"
       x1="0"
       y1="0"
       x2="1"
       y2="0"
       gradientUnits="userSpaceOnUse"
       gradientTransform="matrix(993.586,-2099.28,2099.28,993.586,-3383.29,1045.86)"><stop
         offset="0"
         style="stop-color:#fff;stop-opacity:0.239216"
         id="stop6" /><stop
         offset="1"
         style="stop-color:#b3b3b3;stop-opacity:1"
         id="stop8" /></linearGradient><linearGradient
       id="_Linear2"
       x1="0"
       y1="0"
       x2="1"
       y2="0"
       gradientUnits="userSpaceOnUse"
       gradientTransform="matrix(6.14553e-15,-100.364,100.364,6.14553e-15,1516.15,86.2797)"><stop
         offset="0"
         style="stop-color:#292929;stop-opacity:1"
         id="stop11" /><stop
         offset="1"
         style="stop-color:#353535;stop-opacity:1"
         id="stop13" /></linearGradient></defs></svg>